<svg width="24" height="24" viewBox="0 0 24 24" fill="none" xmlns="http://www.w3.org/2000/svg">
<path d="M17.55 9.75945L12.67 3.89946C12.4239 3.526 12.0597 3.24582 11.6356 3.10368C11.2115 2.96155 10.7521 2.96565 10.3306 3.11535C9.90913 3.26505 9.55001 3.5517 9.31062 3.9295C9.07122 4.30729 8.96537 4.75443 9.00997 5.19946V18.5995C9.00397 19.0209 9.13127 19.4335 9.37371 19.7783C9.61615 20.1231 9.96133 20.3825 10.36 20.5195C10.5864 20.6068 10.8273 20.6509 11.07 20.6495C11.3763 20.6553 11.6799 20.5908 11.9573 20.4607C12.2347 20.3307 12.4785 20.1387 12.67 19.8995L17.6 14.0195C18.0908 13.4155 18.3545 12.6586 18.3454 11.8804C18.3362 11.1022 18.0548 10.3518 17.55 9.75945Z" fill="black"/>
</svg>
