<svg width="24" height="24" viewBox="0 0 24 24" fill="none" xmlns="http://www.w3.org/2000/svg">
<path d="M19.8182 12.7087L13.9582 7.77867C13.3586 7.27569 12.6009 7 11.8182 7C11.0355 7 10.2779 7.27569 9.67821 7.77867L3.81821 12.7087C3.46985 12.9638 3.21342 13.3249 3.08726 13.7378C2.9611 14.1508 2.97199 14.5935 3.11829 14.9998C3.26459 15.4061 3.53845 15.7541 3.89894 15.9918C4.25942 16.2295 4.68715 16.3442 5.11821 16.3187H18.5182C18.9493 16.3442 19.377 16.2295 19.7375 15.9918C20.098 15.7541 20.3718 15.4061 20.5181 14.9998C20.6644 14.5935 20.6753 14.1508 20.5492 13.7378C20.423 13.3249 20.1666 12.9638 19.8182 12.7087V12.7087Z" fill="black"/>
</svg>
