<svg width="24" height="24" viewBox="0 0 24 24" fill="none" xmlns="http://www.w3.org/2000/svg">
<path d="M12 2C10.0222 2 8.08879 2.58649 6.4443 3.6853C4.79981 4.78412 3.51809 6.3459 2.76121 8.17317C2.00433 10.0004 1.8063 12.0111 2.19215 13.9509C2.578 15.8907 3.53041 17.6725 4.92894 19.0711C6.32746 20.4696 8.10929 21.422 10.0491 21.8079C11.9889 22.1937 13.9996 21.9957 15.8268 21.2388C17.6541 20.4819 19.2159 19.2002 20.3147 17.5557C21.4135 15.9112 22 13.9778 22 12C22 9.34784 20.9464 6.8043 19.0711 4.92893C17.1957 3.05357 14.6522 2 12 2V2ZM16.43 11.43L12.53 15.33C12.3894 15.4705 12.1988 15.5493 12 15.5493C11.8013 15.5493 11.6106 15.4705 11.47 15.33L7.57 11.43C7.42955 11.2894 7.35066 11.0988 7.35066 10.9C7.35066 10.7012 7.42955 10.5106 7.57 10.37C7.63895 10.2992 7.72137 10.243 7.81239 10.2046C7.90342 10.1662 8.00121 10.1464 8.1 10.1464C8.1988 10.1464 8.29659 10.1662 8.38762 10.2046C8.47864 10.243 8.56106 10.2992 8.63 10.37L12 13.73L15.37 10.37C15.439 10.2992 15.5214 10.243 15.6124 10.2046C15.7034 10.1662 15.8012 10.1464 15.9 10.1464C15.9988 10.1464 16.0966 10.1662 16.1876 10.2046C16.2786 10.243 16.3611 10.2992 16.43 10.37C16.5705 10.5106 16.6493 10.7012 16.6493 10.9C16.6493 11.0988 16.5705 11.2894 16.43 11.43V11.43Z" fill="black"/>
</svg>
