<svg width="24" height="24" viewBox="0 0 24 24" fill="none" xmlns="http://www.w3.org/2000/svg">
<path d="M19.0679 4.93002C18.6139 4.47781 18.1184 4.06934 17.5879 3.71002C15.9383 2.59204 13.9906 1.99622 11.9979 2.00002V2.00002C10.0052 1.99622 8.05741 2.59204 6.40786 3.71002C5.87734 4.06934 5.38182 4.47781 4.92786 4.93002C3.05315 6.8053 2 9.34838 2 12C2 14.6517 3.05315 17.1947 4.92786 19.07C5.38182 19.5222 5.87734 19.9307 6.40786 20.29C8.05741 21.408 10.0052 22.0038 11.9979 22C13.9906 22.0038 15.9383 21.408 17.5879 20.29C18.1184 19.9307 18.6139 19.5222 19.0679 19.07C20.9426 17.1947 21.9957 14.6517 21.9957 12C21.9957 9.34838 20.9426 6.8053 19.0679 4.93002V4.93002ZM14.7679 12.53L10.8679 16.43C10.7997 16.5016 10.7173 16.5581 10.6261 16.5959C10.5348 16.6338 10.4367 16.6522 10.3379 16.65C10.2393 16.6505 10.1417 16.6313 10.0507 16.5935C9.95966 16.5557 9.87711 16.5001 9.80786 16.43C9.66741 16.2894 9.58852 16.0988 9.58852 15.9C9.58852 15.7013 9.66741 15.5106 9.80786 15.37L13.1779 12L9.80786 8.63002C9.67538 8.48784 9.60326 8.2998 9.60669 8.1055C9.61012 7.91119 9.68883 7.72581 9.82624 7.5884C9.96366 7.45098 10.149 7.37227 10.3433 7.36884C10.5376 7.36541 10.7257 7.43754 10.8679 7.57002L14.7679 11.47C14.8386 11.539 14.8949 11.6214 14.9333 11.7124C14.9717 11.8034 14.9914 11.9012 14.9914 12C14.9914 12.0988 14.9717 12.1966 14.9333 12.2876C14.8949 12.3787 14.8386 12.4611 14.7679 12.53V12.53Z" fill="black"/>
</svg>
