<svg width="409" height="485" viewBox="0 0 409 485" fill="none" xmlns="http://www.w3.org/2000/svg">
<path d="M105.73 37.7855C105.73 16.9172 122.648 0 143.516 0H308.711C329.579 0 346.496 16.9172 346.496 37.7855V446.556C346.496 467.425 329.579 484.342 308.711 484.342H143.516C122.648 484.342 105.73 467.425 105.73 446.556V37.7855Z" fill="#1A2437"/>
<path d="M120.604 34.5542C120.604 23.1714 129.831 13.9438 141.214 13.9438H311.405C322.788 13.9438 332.015 23.1714 332.015 34.5541V448.634C332.015 460.016 322.788 469.244 311.405 469.244H141.214C129.831 469.244 120.604 460.016 120.604 448.634V34.5542Z" fill="#F5F8F9"/>
<path d="M331.735 449.826C331.735 460.482 323.098 469.119 312.442 469.119L139.548 469.119C128.893 469.119 120.256 460.482 120.256 449.826L120.256 437.954L331.735 437.954L331.735 449.826Z" fill="white"/>
<path fill-rule="evenodd" clip-rule="evenodd" d="M331.736 438.275H120.256V437.632H331.736V438.275Z" fill="#D2DFE6"/>
<path fill-rule="evenodd" clip-rule="evenodd" d="M138.436 447.6C137.189 447.6 135.969 447.97 134.932 448.663C133.895 449.356 133.086 450.341 132.609 451.494C132.132 452.646 132.007 453.914 132.25 455.138C132.493 456.361 133.094 457.485 133.976 458.367C134.858 459.249 135.982 459.85 137.206 460.094C138.429 460.337 139.697 460.212 140.85 459.735C142.002 459.257 142.987 458.449 143.681 457.412C144.374 456.374 144.744 455.155 144.744 453.907C144.744 452.235 144.079 450.63 142.896 449.447C141.713 448.265 140.109 447.6 138.436 447.6ZM138.436 459.521C137.704 459.52 136.978 459.375 136.302 459.093C135.626 458.812 135.011 458.4 134.494 457.881C134.085 457.48 133.742 457.017 133.477 456.509C132.907 455.422 132.709 454.177 132.913 452.967C133.116 451.756 133.711 450.645 134.605 449.804C135.5 448.963 136.645 448.438 137.866 448.309C139.087 448.18 140.317 448.455 141.367 449.091C142.418 449.727 143.231 450.689 143.683 451.83C144.135 452.972 144.2 454.23 143.87 455.413C143.539 456.595 142.831 457.637 141.852 458.379C140.874 459.121 139.68 459.522 138.452 459.521H138.436Z" fill="#00C6D7"/>
<path fill-rule="evenodd" clip-rule="evenodd" d="M136.377 453.182C136.513 453.184 136.647 453.145 136.76 453.07C136.874 452.996 136.963 452.889 137.017 452.764C137.07 452.639 137.084 452.501 137.059 452.367C137.033 452.234 136.969 452.111 136.873 452.014C136.777 451.917 136.655 451.851 136.522 451.824C136.389 451.797 136.25 451.81 136.124 451.862C135.999 451.913 135.891 452.001 135.815 452.114C135.74 452.227 135.699 452.36 135.699 452.496C135.699 452.677 135.77 452.85 135.897 452.978C136.024 453.107 136.197 453.18 136.377 453.182Z" fill="#00C6D7"/>
<path fill-rule="evenodd" clip-rule="evenodd" d="M140.596 453.182C140.732 453.182 140.864 453.142 140.977 453.067C141.09 452.991 141.178 452.884 141.23 452.759C141.282 452.633 141.295 452.496 141.269 452.362C141.242 452.229 141.177 452.107 141.081 452.011C140.985 451.915 140.863 451.85 140.73 451.824C140.597 451.797 140.459 451.811 140.334 451.863C140.208 451.914 140.101 452.002 140.026 452.115C139.95 452.228 139.91 452.361 139.91 452.496C139.91 452.586 139.928 452.676 139.962 452.759C139.997 452.842 140.047 452.918 140.111 452.981C140.175 453.045 140.25 453.096 140.334 453.13C140.417 453.164 140.506 453.182 140.596 453.182Z" fill="#00C6D7"/>
<path fill-rule="evenodd" clip-rule="evenodd" d="M138.065 456.691C137.588 456.636 137.128 456.477 136.72 456.225C136.311 455.973 135.963 455.634 135.699 455.232L135.132 455.603C135.447 456.087 135.864 456.496 136.355 456.801C136.845 457.106 137.397 457.3 137.97 457.369C138.117 457.377 138.265 457.377 138.412 457.369C139.068 457.369 139.713 457.205 140.29 456.893C140.867 456.58 141.357 456.129 141.715 455.579L141.14 455.208C140.814 455.716 140.355 456.123 139.812 456.385C139.269 456.646 138.664 456.752 138.065 456.691Z" fill="#00C6D7"/>
<g opacity="0.7">
<mask id="mask0_10272_1633" style="mask-type:alpha" maskUnits="userSpaceOnUse" x="120" y="13" width="213" height="457">
<path d="M120.604 34.5542C120.604 23.1714 129.831 13.9438 141.214 13.9438H311.405C322.788 13.9438 332.015 23.1714 332.015 34.5541V448.634C332.015 460.016 322.788 469.244 311.405 469.244H141.214C129.831 469.244 120.604 460.016 120.604 448.634V34.5542Z" fill="#F5F8F9"/>
</mask>
<g mask="url(#mask0_10272_1633)">
<path opacity="0.2" d="M331.913 146.324C311.322 142.215 290.374 140.165 269.377 140.204C231.685 140.204 200.21 146.84 180.525 158.925C140.718 183.482 136.229 235.048 137.106 263.607C138.009 293.148 144.846 334.282 171.96 362.428C193.709 385.022 242.83 397.21 278.097 397.262C280.729 397.242 283.339 397.742 285.778 398.733C288.217 399.725 290.436 401.189 292.308 403.041C294.18 404.893 295.668 407.097 296.687 409.526C297.706 411.955 298.236 414.562 298.246 417.197V430.702C298.246 431.147 298.374 431.584 298.614 431.959C298.855 432.334 299.199 432.632 299.604 432.817C300.009 433.002 300.459 433.066 300.9 433.003C301.34 432.939 301.754 432.75 302.09 432.457C313.467 422.542 325.541 411.8 337.46 400.774C340.375 398.192 343.368 395.325 346.361 392.588C360.653 379.677 375.436 366.069 385.678 351.505C397.649 334.515 405.415 313.34 408.897 288.577C411.868 265.259 410.997 241.61 406.318 218.574C398.707 180.383 372.289 154.742 331.913 146.324Z" fill="#D2DFE6"/>
</g>
</g>
<path d="M120.618 33.0927C120.618 22.4375 129.256 13.7998 139.911 13.7998H312.738C323.393 13.7998 332.031 22.4375 332.031 33.0927V39.771H120.618V33.0927Z" fill="#167491"/>
<path d="M167.102 13.7998H284.83V15.3612C284.83 24.3294 277.56 31.5996 268.592 31.5996H183.34C174.372 31.5996 167.102 24.3294 167.102 15.3612V13.7998Z" fill="#1A2437"/>
<path d="M332 39.6001H120.601V69.2702H332V39.6001Z" fill="#2CC3D5"/>
<path d="M319.378 53.4214L322.59 50.201C322.669 50.1017 322.709 49.9766 322.702 49.8498C322.694 49.723 322.64 49.6034 322.55 49.5139C322.46 49.4245 322.34 49.3715 322.213 49.3652C322.086 49.3589 321.962 49.3997 321.863 49.4798L318.649 52.692L315.434 49.4798C315.389 49.4233 315.333 49.3769 315.269 49.3436C315.204 49.3104 315.134 49.291 315.062 49.2868C314.989 49.2826 314.917 49.2937 314.85 49.3192C314.782 49.3448 314.72 49.3843 314.669 49.4353C314.618 49.4862 314.578 49.5473 314.551 49.6148C314.525 49.6822 314.514 49.7544 314.517 49.8266C314.521 49.8988 314.54 49.9695 314.572 50.034C314.605 50.0985 314.651 50.1554 314.707 50.201L317.919 53.4152L314.707 56.6357C314.636 56.7078 314.587 56.7995 314.567 56.8992C314.548 56.9989 314.558 57.1021 314.597 57.1959C314.636 57.2897 314.702 57.3699 314.786 57.4264C314.871 57.4829 314.97 57.5132 315.072 57.5134C315.139 57.5138 315.206 57.5007 315.268 57.4749C315.331 57.4491 315.387 57.411 315.434 57.363L318.649 54.1487L321.863 57.363C321.91 57.411 321.967 57.4491 322.029 57.4749C322.091 57.5007 322.158 57.5138 322.226 57.5134C322.327 57.5132 322.426 57.4829 322.511 57.4264C322.595 57.3699 322.661 57.2897 322.7 57.1959C322.739 57.1021 322.749 56.9989 322.73 56.8992C322.71 56.7995 322.662 56.7078 322.59 56.6357L319.378 53.4214Z" fill="white"/>
<path d="M132.864 56.6524C132.812 56.652 132.761 56.6403 132.714 56.6181C132.668 56.596 132.626 56.5639 132.593 56.524L130.111 53.5673C130.001 53.4373 129.941 53.2728 129.941 53.1029C129.941 52.933 130.001 52.7685 130.111 52.6385L132.593 49.6818C132.655 49.6121 132.743 49.5694 132.836 49.5627C132.929 49.556 133.022 49.5859 133.093 49.646C133.165 49.7061 133.211 49.7917 133.22 49.8848C133.23 49.9779 133.203 50.0711 133.145 50.1447L130.663 53.1029L133.141 56.061C133.186 56.1135 133.214 56.1776 133.223 56.2458C133.232 56.314 133.222 56.3833 133.192 56.4456C133.163 56.5079 133.117 56.5604 133.059 56.5971C133 56.6338 132.933 56.653 132.864 56.6524Z" fill="white"/>
<path fill-rule="evenodd" clip-rule="evenodd" d="M149.17 63.342C151.003 63.3407 152.795 62.7959 154.319 61.7765C155.843 60.757 157.031 59.3086 157.732 57.6143C158.433 55.9201 158.616 54.056 158.258 52.2577C157.9 50.4594 157.017 48.8076 155.721 47.5111C154.424 46.2145 152.772 45.3314 150.974 44.9734C149.176 44.6154 147.312 44.7985 145.617 45.4996C143.923 46.2007 142.475 47.3883 141.455 48.9123C140.436 50.4364 139.891 52.2285 139.89 54.062C139.895 56.5217 140.874 58.8791 142.613 60.6183C144.353 62.3576 146.71 63.3369 149.17 63.342Z" fill="#2C2A46"/>
<path d="M151.73 48.4312C150.825 48.2509 149.905 48.1609 148.982 48.1626C147.326 48.1626 145.944 48.4539 145.079 48.9843C143.33 50.0622 143.133 52.3257 143.171 53.5793C143.211 54.8759 143.511 56.6815 144.702 57.9169C145.658 58.9087 147.816 59.4436 149.365 59.4459C149.481 59.445 149.596 59.467 149.703 59.5105C149.81 59.554 149.907 59.6183 149.99 59.6996C150.072 59.7809 150.137 59.8776 150.182 59.9842C150.227 60.0908 150.25 60.2053 150.251 60.3209V60.9137C150.251 60.9333 150.256 60.9524 150.267 60.9689C150.277 60.9853 150.292 60.9984 150.31 61.0065C150.328 61.0147 150.348 61.0175 150.367 61.0147C150.387 61.0119 150.405 61.0036 150.419 60.9908C150.919 60.5555 151.45 60.084 151.973 59.6C152.101 59.4867 152.233 59.3609 152.364 59.2408C152.992 58.674 153.642 58.0767 154.092 57.4375C154.618 56.6917 154.959 55.7623 155.112 54.6753C155.242 53.6517 155.204 52.6137 154.999 51.6026C154.664 49.9262 153.504 48.8007 151.73 48.4312Z" fill="#00C6D7"/>
<path opacity="0.25" d="M155.101 54.0871C154.98 54.9603 154.628 55.7854 154.081 56.4763C153.627 57.0306 152.981 57.5418 152.353 58.0371C152.222 58.1414 152.09 58.2445 151.962 58.3476C151.439 58.7681 151.252 58.8996 150.751 59.2771C150.737 59.2875 150.72 59.2942 150.703 59.2966C150.685 59.299 150.668 59.2969 150.651 59.2905C150.635 59.2842 150.62 59.2738 150.609 59.2604C150.598 59.2469 150.59 59.2308 150.586 59.2136L150.512 58.7341C150.512 58.3148 149.847 58.2241 149.361 58.223C147.812 58.223 145.654 57.7583 144.698 56.9014C143.505 55.828 143.207 54.2662 143.167 53.1452C143.167 53.1248 143.167 53.1044 143.167 53.0829C143.167 53.2506 143.167 53.4093 143.167 53.5532C143.207 54.8499 143.507 56.6554 144.698 57.8909C145.654 58.8826 147.812 59.4176 149.361 59.4199C149.477 59.419 149.592 59.4409 149.699 59.4844C149.806 59.528 149.903 59.5922 149.986 59.6735C150.068 59.7548 150.133 59.8516 150.178 59.9582C150.223 60.0648 150.246 60.1792 150.246 60.2949V60.8877C150.246 60.9072 150.252 60.9264 150.263 60.9428C150.273 60.9593 150.288 60.9724 150.306 60.9805C150.324 60.9886 150.344 60.9915 150.363 60.9887C150.382 60.9859 150.4 60.9776 150.415 60.9647C150.915 60.5295 151.446 60.058 151.969 59.574C152.097 59.4607 152.229 59.3349 152.36 59.2147C152.988 58.648 153.638 58.0507 154.088 57.4114C154.613 56.6656 154.955 55.7362 155.108 54.6493C155.17 54.1816 155.195 53.7097 155.182 53.2381C155.173 53.5225 155.146 53.8061 155.101 54.0871Z" fill="#2D91AF"/>
<path opacity="0.2" d="M149.647 49.7086C150.397 49.9647 151.585 49.9976 152.501 50.5847C152.841 50.7978 153.328 50.918 153.462 50.7049C153.596 50.4918 153.57 50.1563 153.109 49.8083C152.582 49.4116 152.066 49.1033 150.175 48.9016C149.367 48.8132 149.079 49.5148 149.647 49.7086Z" fill="white"/>
<path opacity="0.2" d="M153.662 51.8951C153.886 51.8951 154.067 51.7139 154.067 51.4904C154.067 51.267 153.886 51.0858 153.662 51.0858C153.439 51.0858 153.258 51.267 153.258 51.4904C153.258 51.7139 153.439 51.8951 153.662 51.8951Z" fill="white"/>
<path d="M146.726 53.6796C146.981 53.6796 147.187 53.4731 147.187 53.2183C147.187 52.9635 146.981 52.757 146.726 52.757C146.471 52.757 146.265 52.9635 146.265 53.2183C146.265 53.4731 146.471 53.6796 146.726 53.6796Z" fill="#167491"/>
<path d="M151.585 53.6796C151.84 53.6796 152.047 53.4731 152.047 53.2183C152.047 52.9635 151.84 52.757 151.585 52.757C151.331 52.757 151.124 52.9635 151.124 53.2183C151.124 53.4731 151.331 53.6796 151.585 53.6796Z" fill="#167491"/>
<path d="M149.181 55.8565C148.476 55.8565 147.873 55.612 147.681 55.2469C147.661 55.2089 147.657 55.1649 147.668 55.1236C147.68 55.0824 147.706 55.047 147.742 55.0244C147.762 55.0137 147.784 55.007 147.806 55.0047C147.828 55.0024 147.851 55.0046 147.872 55.0111C147.894 55.0175 147.914 55.0282 147.931 55.0424C147.948 55.0567 147.963 55.0742 147.973 55.094C148.082 55.3029 148.541 55.5237 149.172 55.5237C149.804 55.5237 150.291 55.2944 150.381 55.0719C150.399 55.0301 150.432 54.9967 150.473 54.9792C150.515 54.9616 150.562 54.9614 150.604 54.9785C150.646 54.9956 150.679 55.0287 150.697 55.0704C150.714 55.1121 150.714 55.1591 150.697 55.201C150.539 55.5848 149.909 55.8565 149.181 55.8565Z" fill="#167491"/>
<path d="M157.975 50.7837C159.409 50.7837 160.571 49.6213 160.571 48.1875C160.571 46.7537 159.409 45.5914 157.975 45.5914C156.541 45.5914 155.379 46.7537 155.379 48.1875C155.379 49.6213 156.541 50.7837 157.975 50.7837Z" fill="#90E6BC"/>
<path fill-rule="evenodd" clip-rule="evenodd" d="M157.974 45.9259C156.725 45.9259 155.712 46.9385 155.712 48.1875C155.712 49.4366 156.725 50.4491 157.974 50.4491C159.223 50.4491 160.235 49.4366 160.235 48.1875C160.235 46.9385 159.223 45.9259 157.974 45.9259ZM155.043 48.1875C155.043 46.569 156.355 45.2569 157.974 45.2569C159.592 45.2569 160.904 46.569 160.904 48.1875C160.904 49.8061 159.592 51.1182 157.974 51.1182C156.355 51.1182 155.043 49.8061 155.043 48.1875Z" fill="#2CC3D5"/>
<rect x="161.949" y="52.4364" width="49.1434" height="3.59586" rx="1.79793" fill="white"/>
<g opacity="0.2">
<path d="M236.222 20.3363H200.629C199.762 20.3363 199.059 21.0394 199.059 21.9066C199.059 22.7739 199.762 23.4769 200.629 23.4769H236.222C237.089 23.4769 237.792 22.7739 237.792 21.9066C237.792 21.0394 237.089 20.3363 236.222 20.3363Z" fill="white"/>
<path d="M253.214 22.5547C253.217 22.9979 253.088 23.432 252.844 23.8019C252.599 24.1717 252.251 24.4605 251.842 24.6315C251.433 24.8026 250.982 24.8481 250.547 24.7624C250.113 24.6767 249.713 24.4636 249.4 24.1502C249.086 23.8368 248.873 23.4372 248.787 23.0023C248.702 22.5675 248.747 22.1169 248.918 21.708C249.089 21.2991 249.378 20.9503 249.748 20.706C250.118 20.4617 250.552 20.3329 250.995 20.336C251.583 20.336 252.148 20.5697 252.564 20.9858C252.98 21.4019 253.214 21.9662 253.214 22.5547Z" fill="white"/>
</g>
<g filter="url(#filter0_d_10272_1633)">
<path d="M227.146 103.701C227.146 98.5669 222.984 94.405 217.85 94.405H18.296C13.162 94.405 9.00003 98.5669 9.00003 103.701V144.603C9.00003 145.63 9.83241 146.462 10.8592 146.462H217.85C222.984 146.462 227.146 142.3 227.146 137.166V103.701Z" fill="white"/>
</g>
<path d="M18.9667 105.354C18.9667 120.928 31.5913 133.552 47.1645 133.552C62.7377 133.552 75.3623 120.928 75.3623 105.354C75.3623 89.7812 62.7377 77.1566 47.1645 77.1566C31.5913 77.1566 18.9667 89.7812 18.9667 105.354Z" fill="#FCCCCC"/>
<path fill-rule="evenodd" clip-rule="evenodd" d="M99.0684 113.985C99.0684 112.379 100.37 111.077 101.975 111.077H206.4C208.006 111.077 209.307 112.379 209.307 113.985C209.307 115.59 208.006 116.892 206.4 116.892H101.975C100.37 116.892 99.0684 115.59 99.0684 113.985Z" fill="#D2DFE6"/>
<path fill-rule="evenodd" clip-rule="evenodd" d="M99.0684 126.999C99.0684 125.393 100.37 124.092 101.975 124.092H172.462C174.068 124.092 175.369 125.393 175.369 126.999C175.369 128.604 174.068 129.906 172.462 129.906H101.975C100.37 129.906 99.0684 128.604 99.0684 126.999Z" fill="#D2DFE6"/>
<mask id="mask1_10272_1633" style="mask-type:alpha" maskUnits="userSpaceOnUse" x="18" y="77" width="58" height="57">
<path d="M47.1656 133.552C62.7388 133.552 75.3633 120.928 75.3633 105.354C75.3633 89.7812 62.7388 77.1566 47.1656 77.1566C31.5924 77.1566 18.9678 89.7812 18.9678 105.354C18.9678 120.928 31.5924 133.552 47.1656 133.552Z" fill="#FF5A60"/>
</mask>
<g mask="url(#mask1_10272_1633)">
<path fill-rule="evenodd" clip-rule="evenodd" d="M35.961 126.352C36.2801 126.762 36.2073 127.353 35.7989 127.673C35.7993 127.673 35.7994 127.673 35.7992 127.673L35.7981 127.673L35.7972 127.674L35.7966 127.675C35.7962 127.675 35.7959 127.675 35.2168 126.931L35.7959 127.675" fill="#C226FB"/>
<path fill-rule="evenodd" clip-rule="evenodd" d="M58.0996 126.519C58.4556 126.139 59.0524 126.119 59.4324 126.475L58.7877 127.163C59.4324 126.475 59.4322 126.475 59.4324 126.475L59.4336 126.476L59.435 126.478L59.4388 126.481L59.45 126.492C59.459 126.5 59.4712 126.512 59.4863 126.527C59.5166 126.557 59.5589 126.599 59.6117 126.653C59.7174 126.762 59.8657 126.921 60.0463 127.128C60.4073 127.543 60.8982 128.154 61.4357 128.956C62.5102 130.561 63.7747 132.939 64.5552 136.049C64.682 136.554 64.3752 137.066 63.8701 137.193C63.3649 137.32 62.8527 137.013 62.7259 136.508C62.0075 133.645 60.8456 131.465 59.8685 130.006C59.3801 129.276 58.9388 128.728 58.6241 128.367C58.4668 128.186 58.3414 128.053 58.2578 127.966C58.216 127.923 58.1847 127.892 58.1652 127.873L58.1448 127.853L58.1426 127.851L58.1415 127.85C58.1413 127.85 58.1414 127.85 58.1415 127.85L58.1426 127.851C57.7629 127.495 57.7436 126.898 58.0996 126.519Z" fill="#C226FB"/>
<path d="M33.7587 126.052C33.7587 126.052 30.684 137.867 30.0196 138.736L29.6826 139.154C30.1041 139.189 30.5285 139.159 30.9408 139.064L31.8394 137.96L34.1888 129.936L33.7587 126.052Z" fill="#167491"/>
<path d="M59.5769 127.458C59.5769 127.458 62.3531 137.7 63.0304 138.569L63.4251 139.17C63.009 139.143 62.5996 139.051 62.2119 138.897L61.3165 137.793L58.9639 129.769L59.5769 127.458Z" fill="#167491"/>
<path d="M62.5903 140.174C61.4477 135.273 58.6586 123.806 58.6586 123.806C58.6586 123.244 55.2437 123.045 47.5793 122.894V122.856L46.4688 122.872L45.3551 122.856V122.894C37.6939 123.045 34.2757 123.244 34.2757 123.806C34.2757 123.806 31.4866 135.283 30.344 140.174C29.2464 144.895 32.4944 149.065 35.5788 149.065H57.3556C60.4399 149.065 63.6912 144.895 62.5903 140.174Z" fill="#C226FB"/>
<path d="M50.7576 83.5348C50.2963 82.9534 49.6426 82.7199 49.0997 82.2139L48.9219 82.2543C49.4551 82.7356 49.9517 83.2559 50.4078 83.8108C50.6324 84.0965 50.8635 84.3564 51.0496 84.6773C51.2505 84.9727 51.4327 85.2803 51.5952 85.5984C52.2624 86.8713 52.4882 88.3297 52.237 89.7448C51.9111 91.1635 51.251 92.4839 50.3115 93.5959C51.3385 92.53 52.084 91.2253 52.481 89.7993C52.7874 88.3224 52.5967 86.7856 51.9386 85.4283C51.6172 84.7549 51.221 84.1197 50.7576 83.5348Z" fill="#2C2A46"/>
<path d="M45.0429 91.0728C44.7417 90.759 44.3778 90.5122 43.9749 90.3484C43.572 90.1846 43.1391 90.1075 42.7044 90.1222C41.8325 90.1307 40.9706 90.3083 40.1664 90.6452C39.3713 90.9796 38.6385 91.4463 37.9992 92.0254C37.3523 92.5944 36.7723 93.2354 36.2705 93.9358C35.7629 94.6342 35.3353 95.3876 34.996 96.1816C34.6587 96.969 34.4431 97.8032 34.3564 98.6554C34.1813 100.363 34.6646 102.074 35.7076 103.437C35.9595 103.777 36.2396 104.091 36.5296 104.448C36.8105 104.799 37.0659 105.17 37.2937 105.557C37.7421 106.342 38.0512 107.199 38.2075 108.09C38.5289 109.872 38.2236 111.655 38.1249 113.373C38.0455 114.222 38.1732 115.078 38.4973 115.867C38.6839 116.246 38.9351 116.59 39.2397 116.882C39.5522 117.174 39.899 117.427 40.2724 117.635C41.0584 118.053 41.752 118.625 42.3115 119.318C42.5784 119.667 42.8041 120.045 42.9842 120.446C43.1567 120.853 43.3057 121.27 43.4303 121.694C43.1672 120.861 42.7549 120.082 42.2135 119.396C41.6412 118.744 40.9431 118.215 40.1611 117.84C39.7601 117.635 39.3859 117.381 39.0466 117.085C38.7108 116.776 38.4311 116.412 38.2201 116.008C37.8529 115.179 37.6924 114.274 37.7527 113.37C37.7668 112.478 37.8642 111.609 37.9048 110.741C37.9634 109.88 37.9217 109.015 37.7804 108.164C37.6261 107.326 37.3283 106.521 36.9001 105.784C36.6805 105.419 36.4358 105.069 36.1679 104.738C35.9017 104.416 35.5928 104.081 35.3235 103.717C34.7879 102.991 34.3884 102.174 34.1446 101.305C33.9026 100.431 33.8315 99.5191 33.9353 98.6185C34.0309 97.7254 34.264 96.8525 34.6265 96.0306C34.9801 95.2073 35.4357 94.4316 35.9826 93.7217C36.5143 93.0102 37.1266 92.3626 37.8073 91.7919C38.4818 91.2066 39.2535 90.7438 40.0876 90.4246C40.9228 90.1169 41.8097 89.9741 42.6993 90.0039C43.144 90.0239 43.5819 90.1216 43.9929 90.2927C44.4043 90.4577 44.7661 90.7265 45.0429 91.0728Z" fill="#2C2A46"/>
<path d="M43.4284 91.9947C43.5834 91.5884 43.8223 91.2192 44.1295 90.9113C44.4367 90.6034 44.8053 90.3637 45.2114 90.2078C46.0176 89.8758 46.8806 89.7034 47.7525 89.7002C48.615 89.6983 49.4717 89.8424 50.2862 90.1265C51.1038 90.3985 51.8877 90.7626 52.6228 91.2121C53.3625 91.6574 54.0499 92.1845 54.6718 92.7835C55.2894 93.3772 55.8131 94.0613 56.2251 94.8124C57.0521 96.3169 57.2736 98.0804 56.8446 99.7428C56.7451 100.154 56.6095 100.552 56.4817 100.994C56.3597 101.427 56.269 101.867 56.2101 102.313C56.1033 103.211 56.1526 104.121 56.3559 105.002C56.7544 106.768 57.7307 108.291 58.4911 109.835C58.8953 110.586 59.1113 111.424 59.1204 112.277C59.0962 112.699 58.9987 113.113 58.8323 113.501C58.6581 113.891 58.4372 114.259 58.1745 114.596C57.6136 115.288 57.198 116.085 56.9527 116.941C56.8429 117.367 56.7826 117.803 56.773 118.243C56.7728 118.685 56.798 119.126 56.8486 119.566C56.766 118.696 56.8423 117.818 57.0735 116.975C57.3465 116.152 57.783 115.392 58.357 114.742C58.6462 114.397 58.892 114.017 59.089 113.612C59.2781 113.197 59.3937 112.753 59.4304 112.298C59.4457 111.392 59.2405 110.496 58.8326 109.687C58.472 108.871 58.0437 108.109 57.6679 107.325C57.2784 106.555 56.9798 105.743 56.7781 104.904C56.5936 104.072 56.5541 103.214 56.6613 102.369C56.7211 101.947 56.8102 101.53 56.9277 101.12C57.0472 100.719 57.201 100.29 57.3075 99.8509C57.5176 98.9733 57.5669 98.0649 57.4528 97.1697C57.3352 96.2709 57.0451 95.4032 56.5985 94.6143C56.1624 93.8291 55.6074 93.116 54.9533 92.5004C54.3068 91.88 53.5848 91.3433 52.8045 90.9027C52.0375 90.4547 51.2212 90.097 50.372 89.8367C49.5227 89.5606 48.6316 89.4352 47.7391 89.4663C46.85 89.5085 45.9775 89.7227 45.17 90.0969C44.7681 90.2886 44.403 90.5493 44.0912 90.867C43.7766 91.1794 43.5483 91.5679 43.4284 91.9947Z" fill="#2C2A46"/>
<path d="M57.5255 100.989V111.874C57.5255 116.765 53.848 120.85 48.9437 121.849C48.1732 122.004 47.3893 122.081 46.6035 122.08H46.0319C45.2459 122.081 44.4619 122.003 43.6917 121.846C38.7874 120.843 35.1133 116.761 35.1133 111.874V100.989C35.1133 95.352 40.0009 90.782 46.0252 90.782H46.6069C52.6412 90.782 57.5255 95.352 57.5255 100.989Z" fill="#2C2A46"/>
<path d="M46.4536 127.88C48.3091 127.88 49.8134 126.641 49.8134 125.112C49.8134 123.583 48.3091 122.344 46.4536 122.344C44.598 122.344 43.0938 123.583 43.0938 125.112C43.0938 126.641 44.598 127.88 46.4536 127.88Z" fill="#F3C29F"/>
<path fill-rule="evenodd" clip-rule="evenodd" d="M46.454 122.412C44.6229 122.412 43.1619 123.633 43.1619 125.112C43.1619 126.592 44.6229 127.813 46.454 127.813C48.285 127.813 49.746 126.592 49.746 125.112C49.746 123.633 48.285 122.412 46.454 122.412ZM43.0264 125.112C43.0264 123.534 44.5738 122.276 46.454 122.276C48.3341 122.276 49.8816 123.534 49.8816 125.112C49.8816 126.69 48.3341 127.948 46.454 127.948C44.5738 127.948 43.0264 126.69 43.0264 125.112Z" fill="white"/>
<path d="M46.7238 118.678H46.1788C45.4402 118.679 44.7037 118.599 43.9824 118.44V124.792C43.982 125.083 44.0389 125.371 44.1499 125.64C44.261 125.909 44.4239 126.153 44.6295 126.359C44.835 126.565 45.0791 126.728 45.3479 126.84C45.6166 126.951 45.9046 127.009 46.1956 127.009H46.7071C46.998 127.009 47.286 126.951 47.5548 126.84C47.8235 126.728 48.0676 126.565 48.2732 126.359C48.4787 126.153 48.6417 125.909 48.7527 125.64C48.8637 125.371 48.9206 125.083 48.9202 124.792V118.437C48.1988 118.595 47.4624 118.676 46.7238 118.678Z" fill="#F3C29F"/>
<path d="M43.9893 120.162V121.99C43.9893 121.99 44.5208 121.084 46.4598 121.074C48.3988 121.064 48.927 122.077 48.927 122.077V119.881L43.9893 119.791V120.162Z" fill="#E8AA7D"/>
<path d="M56.9979 99.4614V110.133C56.9979 114.923 53.5411 118.928 48.921 119.908C48.1988 120.06 47.4626 120.136 46.7245 120.135H46.1796C45.4413 120.137 44.705 120.059 43.9832 119.904C39.3664 118.928 35.9062 114.92 35.9062 110.133V99.4614C35.9062 93.9352 40.5064 89.4554 46.1796 89.4554H46.7245C52.4011 89.4554 56.9979 93.9385 56.9979 99.4614Z" fill="#F3C29F"/>
<path d="M35.9062 105.254V109.955C35.4865 109.948 35.0864 109.776 34.7923 109.476C34.4983 109.176 34.334 108.773 34.335 108.353V106.856C34.3349 106.436 34.4995 106.033 34.7933 105.734C35.0871 105.434 35.4868 105.262 35.9062 105.254Z" fill="#F3C29F"/>
<path d="M58.5683 106.856V108.353C58.5693 108.773 58.405 109.176 58.111 109.476C57.8169 109.776 57.4168 109.948 56.9971 109.955V105.254C57.4165 105.262 57.8162 105.434 58.11 105.734C58.4038 106.033 58.5684 106.436 58.5683 106.856Z" fill="#F3C29F"/>
<path d="M56.7493 102.159C56.7493 102.159 56.9432 105.526 56.7493 106.82C56.5554 108.113 57.5249 102.159 57.5249 102.159H56.7493Z" fill="#2C2A46"/>
<path d="M36.2795 103.968C36.2795 103.968 36.1023 107.335 36.2795 108.648C36.4567 109.962 35.5039 103.968 35.5039 103.968H36.2795Z" fill="#2C2A46"/>
<path d="M41.9188 87.4324C41.7818 86.3875 41.9754 85.326 42.4726 84.3968C42.9697 83.4675 43.7454 82.7173 44.6907 82.2515C45.6359 81.7856 46.7034 81.6275 47.7431 81.7993C48.7829 81.9711 49.7427 82.4642 50.4879 83.2094C51.2331 83.9546 51.7262 84.9144 51.898 85.9541C52.0698 86.9939 51.9117 88.0613 51.4458 89.0066C50.9799 89.9519 50.2297 90.7276 49.3005 91.2247C48.3713 91.7218 47.3097 91.9155 46.2648 91.7785C45.1629 91.634 44.1394 91.1296 43.3536 90.3437C42.5677 89.5578 42.0633 88.5344 41.9188 87.4324Z" fill="#2C2A46"/>
<path fill-rule="evenodd" clip-rule="evenodd" d="M50.4219 81.6107C50.4908 81.64 50.5229 81.7196 50.4936 81.7885L47.0468 89.8888C47.0259 89.9381 46.9779 89.9704 46.9243 89.9713C46.8708 89.9722 46.8217 89.9415 46.7992 89.8929L44.8535 85.7073C44.8219 85.6394 44.8514 85.5588 44.9193 85.5273C44.9872 85.4957 45.0678 85.5252 45.0993 85.593L46.9166 89.5024L50.2441 81.6823C50.2734 81.6134 50.353 81.5814 50.4219 81.6107Z" fill="#F99B45"/>
<path d="M36.1828 105.75C35.7819 105.797 35.3784 105.686 35.0577 105.441C34.737 105.195 34.5242 104.835 34.4645 104.436C34.3542 103.694 34.2371 102.835 34.2004 102.296C33.7959 96.5462 38.4428 89.8332 43.6313 89.8332H50.829C57.0371 90.6088 59.4107 98.0506 58.03 103.941C58.0008 104.062 57.945 104.174 57.8667 104.271C57.7885 104.367 57.6898 104.445 57.5777 104.498C57.4657 104.552 57.3431 104.58 57.2189 104.58C57.0948 104.58 56.9721 104.553 56.8599 104.499C56.4287 104.302 55.8102 104.028 54.941 103.664C52.5741 102.661 50.9961 99.1638 50.9961 99.1638C50.9961 99.1638 50.9961 101.053 45.3797 103.664C42.859 104.837 38.4729 105.479 36.1828 105.75Z" fill="#2C2A46"/>
<path d="M51.8107 95.8535C51.6896 96.7097 51.4941 97.5537 51.2266 98.376C50.9672 99.2074 50.6365 100.015 50.2381 100.789C49.8462 101.576 49.3672 102.317 48.81 102.997C48.5281 103.337 48.2247 103.659 47.9018 103.96C47.7317 104.105 47.5584 104.246 47.3851 104.387C47.2984 104.458 47.215 104.531 47.1219 104.596L46.8395 104.775C45.3291 105.683 43.6593 106.294 41.9197 106.576C41.0642 106.728 40.1985 106.817 39.3298 106.842C38.4654 106.872 37.6 106.828 36.7432 106.71C38.4507 106.669 40.1497 106.454 41.8138 106.069C42.635 105.881 43.4424 105.638 44.2304 105.34C44.4294 105.269 44.6187 105.183 44.8145 105.099C45.0102 105.016 45.2028 104.942 45.3857 104.843L45.9473 104.56C46.1303 104.461 46.2939 104.342 46.4705 104.239L46.7336 104.079C46.8171 104.021 46.8941 103.954 46.9743 103.889L47.4685 103.482C47.7606 103.187 48.0687 102.911 48.3318 102.587C48.8794 101.949 49.3631 101.258 49.776 100.526C50.2071 99.794 50.5888 99.0339 50.9185 98.2508C51.2569 97.4676 51.5547 96.6674 51.8107 95.8535Z" fill="#2C2A46"/>
</g>
<g filter="url(#filter1_d_10272_1633)">
<path d="M182.576 204.097C182.576 198.963 186.738 194.801 191.872 194.801H391.426C396.56 194.801 400.722 198.963 400.722 204.097V244.999C400.722 246.026 399.889 246.859 398.862 246.859H191.872C186.738 246.859 182.576 242.697 182.576 237.563V204.097Z" fill="white"/>
</g>
<path fill-rule="evenodd" clip-rule="evenodd" d="M310.652 214.381C310.652 212.775 309.351 211.474 307.745 211.474H203.32C201.715 211.474 200.413 212.775 200.413 214.381C200.413 215.986 201.715 217.288 203.32 217.288H307.745C309.351 217.288 310.652 215.986 310.652 214.381Z" fill="#D2DFE6"/>
<path fill-rule="evenodd" clip-rule="evenodd" d="M310.652 227.395C310.652 225.79 309.351 224.488 307.745 224.488H237.259C235.653 224.488 234.351 225.79 234.351 227.395C234.351 229.001 235.653 230.302 237.259 230.302H307.745C309.351 230.302 310.652 229.001 310.652 227.395Z" fill="#D2DFE6"/>
<path d="M390.807 205.751C390.807 221.324 378.182 233.948 362.609 233.948C347.036 233.948 334.411 221.324 334.411 205.751C334.411 190.177 347.036 177.553 362.609 177.553C378.182 177.553 390.807 190.177 390.807 205.751Z" fill="#DFEA95"/>
<mask id="mask2_10272_1633" style="mask-type:alpha" maskUnits="userSpaceOnUse" x="334" y="177" width="57" height="57">
<path d="M362.609 233.948C378.182 233.948 390.807 221.324 390.807 205.751C390.807 190.177 378.182 177.553 362.609 177.553C347.036 177.553 334.411 190.177 334.411 205.751C334.411 221.324 347.036 233.948 362.609 233.948Z" fill="#FF5A60"/>
</mask>
<g mask="url(#mask2_10272_1633)">
<path d="M362.923 222.438C353.074 222.438 345.092 223.293 345.092 224.345V224.999V273.015V273.673C345.092 274.725 353.074 275.576 362.923 275.576C372.771 275.576 380.757 274.725 380.757 273.673V273.015V224.999V224.345C380.757 223.293 372.771 222.438 362.923 222.438Z" fill="#D2DFE6"/>
<path d="M375.265 200.872V202.397C375.266 202.825 375.098 203.236 374.799 203.541C374.499 203.846 374.092 204.021 373.664 204.029V199.241C374.091 199.249 374.498 199.424 374.798 199.729C375.097 200.034 375.265 200.444 375.265 200.872Z" fill="#CB8591"/>
<path fill-rule="evenodd" clip-rule="evenodd" d="M347.993 229.322C347.993 229.322 347.993 229.322 347.993 229.322L347.99 229.33L347.974 229.364C347.96 229.395 347.937 229.444 347.908 229.51C347.849 229.641 347.761 229.841 347.648 230.108C347.421 230.642 347.092 231.443 346.692 232.498C345.892 234.608 344.807 237.735 343.675 241.774C343.481 242.468 342.761 242.873 342.067 242.679C341.373 242.485 340.968 241.764 341.162 241.07C342.316 236.95 343.426 233.75 344.252 231.573C344.664 230.484 345.006 229.651 345.246 229.087C345.365 228.805 345.46 228.59 345.525 228.444C345.558 228.371 345.583 228.315 345.601 228.277L345.622 228.232L345.627 228.22L345.63 228.215C345.63 228.214 345.63 228.214 346.78 228.753L345.63 228.215C345.936 227.562 346.713 227.28 347.366 227.586C348.018 227.892 348.299 228.669 347.993 229.322Z" fill="#D2DFE6"/>
<path fill-rule="evenodd" clip-rule="evenodd" d="M378.001 227.613C378.621 227.245 379.422 227.447 379.79 228.067L378.669 228.735C379.79 228.067 379.79 228.066 379.79 228.067L379.792 228.07L379.795 228.074L379.802 228.087L379.828 228.13C379.849 228.167 379.879 228.22 379.917 228.289C379.993 228.425 380.101 228.625 380.237 228.889C380.509 229.416 380.891 230.196 381.344 231.233C382.25 233.306 383.44 236.402 384.605 240.542C384.8 241.236 384.396 241.956 383.702 242.152C383.008 242.347 382.287 241.943 382.092 241.249C380.961 237.229 379.812 234.245 378.952 232.278C378.522 231.294 378.165 230.564 377.918 230.086C377.794 229.847 377.699 229.67 377.635 229.556C377.604 229.5 377.58 229.458 377.566 229.433L377.55 229.406L377.548 229.403C377.548 229.402 377.548 229.403 377.548 229.403L377.547 229.401C377.547 229.401 377.547 229.401 377.547 229.401M377.547 229.401L377.548 229.403L377.547 229.401ZM378.001 227.613C377.382 227.982 377.18 228.783 377.548 229.403L378.001 227.613Z" fill="#D2DFE6"/>
<path d="M363.092 227.045C364.983 227.045 366.515 225.782 366.515 224.225C366.515 222.668 364.983 221.405 363.092 221.405C361.202 221.405 359.67 222.668 359.67 224.225C359.67 225.782 361.202 227.045 363.092 227.045Z" fill="#C18775"/>
<path fill-rule="evenodd" clip-rule="evenodd" d="M363.092 226.958C364.951 226.958 366.428 225.719 366.428 224.225C366.428 222.731 364.951 221.492 363.092 221.492C361.234 221.492 359.757 222.731 359.757 224.225C359.757 225.719 361.234 226.958 363.092 226.958ZM366.515 224.225C366.515 225.782 364.983 227.045 363.092 227.045C361.202 227.045 359.67 225.782 359.67 224.225C359.67 222.668 361.202 221.405 363.092 221.405C364.983 221.405 366.515 222.668 366.515 224.225Z" fill="#CB9685"/>
<path fill-rule="evenodd" clip-rule="evenodd" d="M363.092 226.958C364.951 226.958 366.428 225.719 366.428 224.225C366.428 222.731 364.951 221.492 363.092 221.492C361.234 221.492 359.757 222.731 359.757 224.225C359.757 225.719 361.234 226.958 363.092 226.958ZM366.515 224.225C366.515 225.782 364.983 227.045 363.092 227.045C361.202 227.045 359.67 225.782 359.67 224.225C359.67 222.668 361.202 221.405 363.092 221.405C364.983 221.405 366.515 222.668 366.515 224.225Z" fill="white"/>
<path d="M373.837 194.881V206.044C373.839 207.419 373.57 208.781 373.045 210.052C372.52 211.322 371.749 212.477 370.777 213.449C369.805 214.421 368.65 215.192 367.379 215.717C366.109 216.242 364.747 216.511 363.372 216.509H362.834C362.082 216.51 361.331 216.429 360.597 216.267C358.266 215.757 356.181 214.465 354.684 212.608C353.188 210.75 352.371 208.436 352.369 206.051V194.881C352.369 192.106 353.472 189.444 355.434 187.481C357.397 185.519 360.059 184.416 362.834 184.416H363.389C366.162 184.421 368.819 185.525 370.778 187.487C372.737 189.45 373.837 192.109 373.837 194.881Z" fill="#C18775"/>
<path fill-rule="evenodd" clip-rule="evenodd" d="M373.75 206.044V194.881C373.75 192.132 372.659 189.495 370.716 187.549C368.774 185.603 366.138 184.508 363.389 184.503H362.834C360.082 184.503 357.442 185.597 355.496 187.543C353.55 189.489 352.456 192.129 352.456 194.881L352.456 206.051C352.458 208.417 353.268 210.711 354.752 212.553C356.236 214.395 358.304 215.676 360.615 216.182C361.344 216.343 362.088 216.423 362.834 216.422H363.372C364.735 216.424 366.086 216.157 367.346 215.637C368.606 215.116 369.751 214.351 370.715 213.387C371.679 212.423 372.444 211.278 372.964 210.018C373.485 208.758 373.752 207.408 373.75 206.044ZM352.369 206.051V194.881C352.369 192.106 353.472 189.444 355.434 187.481C357.397 185.519 360.059 184.416 362.834 184.416H363.389C366.162 184.421 368.819 185.525 370.778 187.487C372.737 189.45 373.837 192.109 373.837 194.881V206.044C373.839 207.419 373.57 208.781 373.045 210.052C372.52 211.322 371.749 212.477 370.777 213.449C369.805 214.421 368.65 215.192 367.379 215.717C366.109 216.242 364.747 216.511 363.372 216.509H362.834C362.082 216.51 361.331 216.429 360.597 216.267C358.266 215.757 356.181 214.465 354.684 212.608C353.188 210.75 352.371 208.436 352.369 206.051Z" fill="#CB9685"/>
<path d="M352.352 199.24V204.028C351.924 204.021 351.516 203.846 351.217 203.541C350.917 203.236 350.75 202.825 350.751 202.397V200.872C350.751 200.444 350.919 200.034 351.218 199.729C351.517 199.424 351.924 199.249 352.352 199.24Z" fill="#C18775"/>
<path fill-rule="evenodd" clip-rule="evenodd" d="M352.265 199.244C352.293 199.242 352.322 199.241 352.352 199.24V204.028C352.322 204.028 352.293 204.027 352.265 204.025C351.869 203.997 351.496 203.825 351.217 203.541C350.917 203.236 350.75 202.825 350.751 202.397V200.872C350.751 200.444 350.919 200.034 351.218 199.729C351.497 199.445 351.869 199.273 352.265 199.244ZM352.265 199.332C351.893 199.36 351.543 199.522 351.28 199.79C350.997 200.079 350.838 200.467 350.838 200.872V202.397C350.837 202.802 350.995 203.191 351.279 203.48C351.542 203.748 351.892 203.91 352.265 203.937V199.332Z" fill="#CB9685"/>
<path d="M375.434 200.872V202.397C375.435 202.825 375.267 203.236 374.968 203.541C374.668 203.846 374.261 204.021 373.833 204.028V199.24C374.26 199.249 374.667 199.424 374.967 199.729C375.266 200.034 375.434 200.444 375.434 200.872Z" fill="#C18775"/>
<path fill-rule="evenodd" clip-rule="evenodd" d="M375.347 202.397L375.347 200.872H375.434V202.397C375.435 202.825 375.267 203.236 374.968 203.541C374.689 203.825 374.316 203.997 373.92 204.025C373.891 204.027 373.862 204.028 373.833 204.028V199.24C373.862 199.241 373.891 199.242 373.92 199.244C374.315 199.273 374.688 199.445 374.967 199.729C375.266 200.034 375.434 200.444 375.434 200.872H375.347C375.347 200.467 375.188 200.079 374.905 199.79C374.642 199.522 374.292 199.36 373.92 199.332V203.937C374.292 203.91 374.643 203.748 374.906 203.48C375.189 203.191 375.347 202.802 375.347 202.397Z" fill="#CB9685"/>
<path opacity="0.2" fill-rule="evenodd" clip-rule="evenodd" d="M361.574 187.974C359.977 187.974 358.445 188.608 357.316 189.737C356.187 190.867 355.552 192.398 355.552 193.996C355.552 194.14 355.435 194.257 355.291 194.257C355.147 194.257 355.03 194.14 355.03 193.996C355.03 192.26 355.72 190.595 356.947 189.368C358.174 188.141 359.839 187.452 361.574 187.452C361.718 187.452 361.835 187.568 361.835 187.713C361.835 187.857 361.718 187.974 361.574 187.974Z" fill="white"/>
<path d="M363.371 216.509H362.833C362.081 216.51 361.33 216.429 360.596 216.268V222.738C360.598 223.331 360.835 223.899 361.254 224.319C361.672 224.739 362.24 224.978 362.833 224.982H363.354C363.65 224.982 363.944 224.924 364.218 224.81C364.491 224.697 364.74 224.53 364.949 224.321C365.159 224.111 365.325 223.862 365.438 223.588C365.551 223.314 365.609 223.021 365.608 222.724V216.271C364.873 216.43 364.123 216.51 363.371 216.509Z" fill="#C18775"/>
<path fill-rule="evenodd" clip-rule="evenodd" d="M365.521 222.724V216.378C364.814 216.524 364.094 216.597 363.371 216.596L363.371 216.509C364.094 216.51 364.814 216.436 365.521 216.289M365.608 216.271V222.724C365.609 223.021 365.551 223.314 365.438 223.588C365.325 223.862 365.159 224.111 364.949 224.321C364.74 224.53 364.491 224.697 364.218 224.81C363.944 224.924 363.65 224.982 363.354 224.982H362.833C362.24 224.978 361.672 224.739 361.254 224.319C360.835 223.899 360.598 223.331 360.596 222.738V216.268C360.625 216.274 360.654 216.28 360.683 216.286C361.39 216.436 362.11 216.51 362.833 216.509H363.371L363.371 216.596M360.683 216.375V222.738C360.685 223.308 360.913 223.854 361.315 224.258C361.718 224.662 362.263 224.891 362.833 224.895H363.354C363.639 224.895 363.921 224.839 364.184 224.73C364.447 224.621 364.687 224.461 364.888 224.259C365.089 224.057 365.249 223.818 365.357 223.555C365.466 223.291 365.522 223.009 365.521 222.724" fill="#CB9685"/>
<path d="M360.585 218.685V220.548C360.585 220.548 361.126 219.625 363.098 219.615C365.07 219.605 365.615 220.636 365.615 220.636V218.399L360.585 218.307V218.685Z" fill="#BF7D68"/>
<path d="M373.429 205.745C373.371 206.926 372.857 208.04 371.996 208.851C371.135 209.662 369.994 210.109 368.811 210.097H368.6C368.325 210.093 368.053 210.029 367.804 209.912C367.555 209.795 367.334 209.625 367.156 209.416C366.643 208.819 366.008 208.338 365.294 208.005C364.58 207.673 363.803 207.497 363.015 207.489C362.228 207.481 361.448 207.641 360.727 207.959C360.006 208.276 359.362 208.744 358.836 209.331C358.655 209.536 358.432 209.701 358.181 209.815C357.931 209.928 357.66 209.987 357.386 209.988C356.226 209.976 355.114 209.526 354.274 208.727C353.434 207.928 352.927 206.841 352.857 205.684L352.353 197.47V210.298C352.353 215.164 354.917 219.111 361.162 219.111H365.294C371.859 219.111 373.837 215.164 373.837 210.298V197.47L373.429 205.745Z" fill="#2C2A46"/>
</g>
<g filter="url(#filter2_d_10272_1633)">
<path d="M274.245 265.555C274.245 260.763 278.13 256.879 282.921 256.879H313.288C318.08 256.879 321.964 260.763 321.964 265.555V277.33C321.964 278.87 320.716 280.119 319.176 280.119H282.921C278.13 280.119 274.245 276.234 274.245 271.443V265.555Z" fill="white"/>
</g>
<path d="M304.983 270.452C305.976 266.653 303.702 262.769 299.903 261.776C296.104 260.783 292.22 263.057 291.227 266.856C290.234 270.655 292.508 274.539 296.307 275.532C300.106 276.525 303.99 274.251 304.983 270.452Z" fill="#F6A721"/>
<path d="M295.801 267.353C295.801 267.835 295.473 268.225 295.07 268.225C294.668 268.225 294.341 267.835 294.341 267.353C294.341 266.872 294.669 266.481 295.07 266.481C295.471 266.481 295.801 266.872 295.801 267.353Z" fill="#2C2A46"/>
<path d="M301.63 268.232C301.569 268.234 301.51 268.212 301.465 268.171C300.989 267.733 300.288 268.076 300.279 268.081C300.234 268.102 300.184 268.108 300.135 268.098C300.087 268.089 300.042 268.064 300.009 268.027C299.976 267.99 299.955 267.943 299.95 267.894C299.945 267.845 299.957 267.795 299.982 267.752C300.162 267.479 300.411 267.257 300.704 267.111C300.997 266.964 301.324 266.898 301.651 266.918C301.681 266.92 301.711 266.928 301.738 266.942C301.766 266.955 301.79 266.974 301.81 266.997C301.83 267.02 301.845 267.047 301.855 267.076C301.865 267.105 301.868 267.136 301.866 267.166C301.864 267.196 301.856 267.226 301.842 267.253C301.829 267.281 301.81 267.305 301.787 267.325C301.764 267.345 301.737 267.36 301.708 267.37C301.679 267.379 301.649 267.383 301.618 267.381C301.401 267.368 301.185 267.406 300.986 267.493C301.282 267.513 301.562 267.633 301.779 267.835C301.802 267.855 301.82 267.88 301.833 267.908C301.846 267.936 301.853 267.966 301.854 267.996C301.855 268.027 301.85 268.057 301.84 268.086C301.829 268.114 301.813 268.141 301.792 268.163C301.771 268.185 301.746 268.202 301.718 268.214C301.69 268.226 301.66 268.232 301.63 268.232Z" fill="#2C2A46"/>
<path d="M298.596 273.281C297.823 273.281 297.071 273.024 296.46 272.55C296.393 272.492 296.35 272.41 296.341 272.322C296.332 272.233 296.357 272.144 296.412 272.073C296.466 272.003 296.546 271.956 296.634 271.942C296.722 271.928 296.812 271.949 296.886 272C297.304 272.323 297.805 272.52 298.331 272.569C298.857 272.618 299.386 272.516 299.857 272.277C300.328 272.037 300.721 271.669 300.991 271.215C301.26 270.761 301.396 270.24 301.382 269.712C301.379 269.62 301.413 269.53 301.476 269.463C301.539 269.395 301.627 269.356 301.719 269.353C301.812 269.35 301.901 269.384 301.969 269.448C302.036 269.511 302.075 269.598 302.078 269.691C302.105 270.614 301.764 271.51 301.131 272.183C300.498 272.856 299.624 273.25 298.701 273.28L298.596 273.281Z" fill="#2C2A46"/>
<g filter="url(#filter3_d_10272_1633)">
<path d="M178.498 165.159C178.498 160.367 174.614 156.482 169.822 156.482H139.455C134.663 156.482 130.779 160.367 130.779 165.159V176.934C130.779 178.474 132.027 179.722 133.568 179.722H169.822C174.614 179.722 178.498 175.838 178.498 171.046V165.159Z" fill="white"/>
</g>
<path d="M155.834 175.737C159.965 175.076 162.778 171.192 162.117 167.061C161.456 162.93 157.571 160.117 153.44 160.778C149.31 161.439 146.497 165.323 147.158 169.454C147.819 173.585 151.703 176.398 155.834 175.737Z" fill="#F6A721"/>
<path d="M159.025 167.277C159.043 167.287 159.063 167.291 159.083 167.291C159.103 167.291 159.123 167.286 159.14 167.276C159.158 167.266 159.173 167.251 159.183 167.234C159.194 167.217 159.2 167.197 159.2 167.177C159.2 166.912 159.095 166.657 158.907 166.469C158.719 166.282 158.465 166.176 158.199 166.176C157.934 166.176 157.679 166.282 157.491 166.469C157.304 166.657 157.198 166.912 157.198 167.177C157.199 167.199 157.205 167.219 157.216 167.237C157.227 167.255 157.243 167.27 157.261 167.28C157.28 167.29 157.301 167.295 157.322 167.295C157.343 167.294 157.364 167.288 157.382 167.277C157.628 167.125 157.911 167.044 158.2 167.044C158.489 167.044 158.773 167.125 159.018 167.277H159.025Z" fill="#2C2A46"/>
<path d="M151.884 167.277C151.902 167.287 151.921 167.291 151.942 167.291C151.962 167.291 151.981 167.286 151.999 167.276C152.016 167.266 152.031 167.251 152.041 167.234C152.052 167.217 152.058 167.197 152.059 167.177C152.059 166.912 151.953 166.657 151.766 166.469C151.578 166.282 151.323 166.176 151.058 166.176C150.792 166.176 150.538 166.282 150.35 166.469C150.162 166.657 150.057 166.912 150.057 167.177C150.058 167.197 150.063 167.217 150.074 167.234C150.084 167.251 150.099 167.266 150.117 167.276C150.134 167.286 150.154 167.291 150.174 167.291C150.194 167.291 150.214 167.287 150.232 167.277C150.478 167.125 150.761 167.044 151.051 167.044C151.34 167.044 151.624 167.125 151.87 167.277H151.884Z" fill="#2C2A46"/>
<path d="M154.677 171.705C153.4 171.703 152.171 171.223 151.231 170.359C151.166 170.29 151.129 170.2 151.129 170.105C151.128 170.011 151.164 169.92 151.228 169.851C151.292 169.782 151.38 169.74 151.474 169.734C151.569 169.727 151.662 169.757 151.735 169.816C152.522 170.541 153.55 170.949 154.62 170.962C155.69 170.974 156.727 170.591 157.531 169.885C157.568 169.852 157.61 169.828 157.656 169.812C157.702 169.796 157.751 169.79 157.799 169.793C157.848 169.796 157.895 169.808 157.939 169.829C157.982 169.851 158.021 169.881 158.054 169.917C158.086 169.953 158.11 169.996 158.126 170.042C158.142 170.088 158.149 170.136 158.146 170.185C158.143 170.233 158.13 170.281 158.109 170.324C158.087 170.368 158.058 170.407 158.021 170.439C157.098 171.255 155.909 171.705 154.677 171.705Z" fill="#2C2A46"/>
<path d="M236.751 308.666C236.751 303.852 232.849 299.95 228.035 299.95H139.521C134.707 299.95 130.805 303.852 130.805 308.666V320.426C130.805 322.031 132.106 323.331 133.71 323.331H228.035C232.849 323.331 236.751 319.429 236.751 314.616V308.666Z" fill="#D2DFE6"/>
<path d="M236.751 394.1C236.751 389.287 232.849 385.385 228.035 385.385H139.521C134.707 385.385 130.805 389.287 130.805 394.1V405.861C130.805 407.465 132.106 408.766 133.71 408.766H228.035C232.849 408.766 236.751 404.864 236.751 400.05V394.1Z" fill="#D2DFE6"/>
<path d="M189.651 344.442C189.651 339.628 193.553 335.726 198.367 335.726H313.186C317.999 335.726 321.901 339.628 321.901 344.442V370.085C321.901 371.689 320.6 372.99 318.996 372.99H198.367C193.553 372.99 189.651 369.088 189.651 364.274V344.442Z" fill="#D2DFE6"/>
<defs>
<filter id="filter0_d_10272_1633" x="0.854832" y="87.6173" width="234.436" height="68.3478" filterUnits="userSpaceOnUse" color-interpolation-filters="sRGB">
<feFlood flood-opacity="0" result="BackgroundImageFix"/>
<feColorMatrix in="SourceAlpha" type="matrix" values="0 0 0 0 0 0 0 0 0 0 0 0 0 0 0 0 0 0 127 0" result="hardAlpha"/>
<feOffset dy="1.35753"/>
<feGaussianBlur stdDeviation="4.07258"/>
<feColorMatrix type="matrix" values="0 0 0 0 0.374547 0 0 0 0 0.481553 0 0 0 0 0.601935 0 0 0 0.15 0"/>
<feBlend mode="normal" in2="BackgroundImageFix" result="effect1_dropShadow_10272_1633"/>
<feBlend mode="normal" in="SourceGraphic" in2="effect1_dropShadow_10272_1633" result="shape"/>
</filter>
<filter id="filter1_d_10272_1633" x="174.431" y="188.013" width="234.436" height="68.3478" filterUnits="userSpaceOnUse" color-interpolation-filters="sRGB">
<feFlood flood-opacity="0" result="BackgroundImageFix"/>
<feColorMatrix in="SourceAlpha" type="matrix" values="0 0 0 0 0 0 0 0 0 0 0 0 0 0 0 0 0 0 127 0" result="hardAlpha"/>
<feOffset dy="1.35753"/>
<feGaussianBlur stdDeviation="4.07258"/>
<feColorMatrix type="matrix" values="0 0 0 0 0.374547 0 0 0 0 0.481553 0 0 0 0 0.601935 0 0 0 0.15 0"/>
<feBlend mode="normal" in2="BackgroundImageFix" result="effect1_dropShadow_10272_1633"/>
<feBlend mode="normal" in="SourceGraphic" in2="effect1_dropShadow_10272_1633" result="shape"/>
</filter>
<filter id="filter2_d_10272_1633" x="270.527" y="253.78" width="55.1565" height="30.6767" filterUnits="userSpaceOnUse" color-interpolation-filters="sRGB">
<feFlood flood-opacity="0" result="BackgroundImageFix"/>
<feColorMatrix in="SourceAlpha" type="matrix" values="0 0 0 0 0 0 0 0 0 0 0 0 0 0 0 0 0 0 127 0" result="hardAlpha"/>
<feOffset dy="0.619731"/>
<feGaussianBlur stdDeviation="1.85919"/>
<feColorMatrix type="matrix" values="0 0 0 0 0.374547 0 0 0 0 0.481553 0 0 0 0 0.601935 0 0 0 0.15 0"/>
<feBlend mode="normal" in2="BackgroundImageFix" result="effect1_dropShadow_10272_1633"/>
<feBlend mode="normal" in="SourceGraphic" in2="effect1_dropShadow_10272_1633" result="shape"/>
</filter>
<filter id="filter3_d_10272_1633" x="127.06" y="153.384" width="55.1565" height="30.6767" filterUnits="userSpaceOnUse" color-interpolation-filters="sRGB">
<feFlood flood-opacity="0" result="BackgroundImageFix"/>
<feColorMatrix in="SourceAlpha" type="matrix" values="0 0 0 0 0 0 0 0 0 0 0 0 0 0 0 0 0 0 127 0" result="hardAlpha"/>
<feOffset dy="0.619731"/>
<feGaussianBlur stdDeviation="1.85919"/>
<feColorMatrix type="matrix" values="0 0 0 0 0.374547 0 0 0 0 0.481553 0 0 0 0 0.601935 0 0 0 0.15 0"/>
<feBlend mode="normal" in2="BackgroundImageFix" result="effect1_dropShadow_10272_1633"/>
<feBlend mode="normal" in="SourceGraphic" in2="effect1_dropShadow_10272_1633" result="shape"/>
</filter>
</defs>
</svg>
