<svg width="405" height="491" viewBox="0 0 405 491" fill="none" xmlns="http://www.w3.org/2000/svg">
<path d="M98.3889 105.065H85.576C83.0134 105.065 81 103.052 81 100.489V80.4464C81 77.8838 83.0134 75.8703 85.576 75.8703H98.3889C100.951 75.8703 102.965 77.8838 102.965 80.4464V100.489C102.965 103.052 100.951 105.065 98.3889 105.065Z" fill="#0096FA"/>
<path d="M98.3889 167.299H85.576C83.0134 167.299 81 165.286 81 162.723V121.813C81 119.251 83.0134 117.237 85.576 117.237H98.3889C100.951 117.237 102.965 119.251 102.965 121.813V162.723C102.965 165.286 100.951 167.299 98.3889 167.299Z" fill="#0096FA"/>
<path d="M323.896 194.664H311.083C308.52 194.664 306.507 192.651 306.507 190.088V149.178C306.507 146.616 308.52 144.602 311.083 144.602H323.896C326.458 144.602 328.472 146.616 328.472 149.178V190.088C328.472 192.651 326.367 194.664 323.896 194.664Z" fill="#0096FA"/>
<path d="M283.353 481.214H125.938C109.006 481.214 95.2783 467.486 95.2783 450.555V39.9946C95.2783 23.0633 109.006 9.33524 125.938 9.33524H283.353C300.284 9.33524 314.012 23.0633 314.012 39.9946V450.555C313.92 467.486 300.284 481.214 283.353 481.214Z" fill="url(#paint0_linear_10272_1633)"/>
<path d="M95.1367 30.5429C95.1367 18.6451 104.166 9 115.305 9H295.969C307.107 9 316.137 18.6451 316.137 30.5429V38H95.1367V30.5429Z" fill="url(#paint1_linear_10272_1633)"/>
<path d="M314.137 38.12H95.1367V68.8569H314.137V38.12Z" fill="#0096FA"/>
<path d="M301.062 52.4382L304.389 49.102C304.471 48.9991 304.513 48.8695 304.505 48.7382C304.497 48.6068 304.441 48.4829 304.348 48.3902C304.254 48.2976 304.13 48.2427 303.999 48.2362C303.867 48.2297 303.738 48.2719 303.636 48.3549L300.306 51.6826L296.976 48.3549C296.929 48.2963 296.871 48.2482 296.804 48.2138C296.738 48.1794 296.665 48.1593 296.59 48.1549C296.515 48.1506 296.44 48.162 296.37 48.1885C296.3 48.215 296.237 48.256 296.183 48.3087C296.13 48.3615 296.089 48.4248 296.062 48.4947C296.034 48.5645 296.022 48.6393 296.026 48.7141C296.03 48.789 296.049 48.8622 296.083 48.929C296.117 48.9958 296.165 49.0547 296.223 49.102L299.55 52.4318L296.223 55.768C296.149 55.8428 296.098 55.9377 296.078 56.041C296.058 56.1443 296.068 56.2512 296.109 56.3484C296.149 56.4456 296.217 56.5287 296.305 56.5872C296.392 56.6457 296.495 56.6771 296.6 56.6773C296.67 56.6777 296.74 56.6642 296.804 56.6374C296.869 56.6107 296.927 56.5712 296.976 56.5215L300.306 53.1917L303.636 56.5215C303.685 56.5712 303.743 56.6107 303.808 56.6374C303.872 56.6642 303.942 56.6777 304.011 56.6773C304.117 56.6771 304.22 56.6457 304.307 56.5872C304.394 56.5287 304.463 56.4456 304.503 56.3484C304.543 56.2512 304.554 56.1443 304.534 56.041C304.514 55.9377 304.463 55.8428 304.389 55.768L301.062 52.4382Z" fill="white"/>
<path d="M107.841 55.7854C107.788 55.785 107.735 55.7729 107.686 55.7499C107.638 55.727 107.595 55.6937 107.56 55.6524L104.989 52.5894C104.876 52.4547 104.813 52.2844 104.813 52.1083C104.813 51.9323 104.876 51.7619 104.989 51.6272L107.56 48.5642C107.625 48.492 107.715 48.4477 107.812 48.4408C107.909 48.4339 108.004 48.4648 108.079 48.5271C108.153 48.5894 108.2 48.6781 108.21 48.7745C108.22 48.8709 108.193 48.9675 108.133 49.0438L105.561 52.1083L108.128 55.1728C108.174 55.2272 108.204 55.2936 108.213 55.3642C108.223 55.4348 108.212 55.5066 108.181 55.5712C108.151 55.6357 108.103 55.6902 108.043 55.7281C107.983 55.7661 107.913 55.786 107.841 55.7854Z" fill="white"/>
<path fill-rule="evenodd" clip-rule="evenodd" d="M124.732 62.7155C126.631 62.7142 128.488 62.1498 130.067 61.0937C131.645 60.0376 132.876 58.5371 133.602 56.7819C134.328 55.0267 134.518 53.0957 134.147 51.2327C133.776 49.3698 132.861 47.6586 131.518 46.3154C130.175 44.9723 128.464 44.0574 126.601 43.6865C124.738 43.3156 122.807 43.5053 121.052 44.2316C119.297 44.9579 117.796 46.1882 116.74 47.7671C115.684 49.3459 115.119 51.2024 115.118 53.1019C115.123 55.65 116.138 58.0922 117.94 59.8939C119.742 61.6957 122.184 62.7102 124.732 62.7155Z" fill="#2C2A46"/>
<path fill-rule="evenodd" clip-rule="evenodd" d="M127.404 57.6474C126.652 57.737 125.8 57.7663 124.85 57.7663C123.9 57.7663 123.049 57.737 122.297 57.6472L122.296 57.6483L121.003 59.5063C120.929 59.6088 120.817 59.6616 120.704 59.6616C120.592 59.6616 120.48 59.6119 120.408 59.5125C119.717 58.5618 119.016 57.3314 118.558 55.8463C118.385 55.2842 118.246 54.6868 118.157 54.0551C118.078 53.5717 118.038 53.0269 118.038 52.4131C118.038 47.5849 120.81 46.0376 124.85 46.0376C128.885 46.0376 131.655 47.5808 131.662 52.3938C131.662 52.4002 131.662 52.4066 131.662 52.4131C131.662 52.4296 131.662 52.4461 131.662 52.4626C131.66 53.0221 131.625 53.5237 131.558 53.9734C131.241 56.3115 130.257 58.1862 129.292 59.5124C129.146 59.7144 128.84 59.7113 128.697 59.5062L127.404 57.6483C127.404 57.648 127.404 57.6477 127.404 57.6474Z" fill="#0096FA"/>
<path d="M118.658 56.1569C119.138 57.5892 119.851 58.745 120.409 59.5124C120.555 59.7144 120.86 59.7112 121.004 59.5062L122.296 57.6482C120.524 57.4929 119.2 56.9802 118.658 56.1569Z" fill="url(#paint2_linear_10272_1633)"/>
<path d="M131.032 56.1569C130.553 57.5892 129.839 58.745 129.282 59.5124C129.135 59.7144 128.83 59.7112 128.687 59.5062L127.394 57.6482C129.166 57.4929 130.49 56.9802 131.032 56.1569Z" fill="url(#paint3_linear_10272_1633)"/>
<path fill-rule="evenodd" clip-rule="evenodd" d="M126.498 54.8064L127.192 54.8065C127.188 55.0267 127.034 55.204 126.845 55.204C126.655 55.204 126.501 55.0266 126.498 54.8064Z" fill="black"/>
<path fill-rule="evenodd" clip-rule="evenodd" d="M123.256 54.8064L122.562 54.8065C122.566 55.0267 122.72 55.204 122.909 55.204C123.099 55.204 123.253 55.0266 123.256 54.8064Z" fill="black"/>
<path fill-rule="evenodd" clip-rule="evenodd" d="M120.664 53.7001C120.54 53.7001 120.439 53.8006 120.439 53.9244C120.439 54.0483 120.54 54.1488 120.664 54.1488H121.018L121.17 55.3204C121.235 55.8246 121.655 56.2078 122.163 56.2266L123.114 56.2618C123.615 56.2804 124.07 55.9685 124.233 55.4938L124.696 54.1488H124.88L125.343 55.4938C125.506 55.9685 125.961 56.2804 126.463 56.2618L127.413 56.2266C127.921 56.2078 128.341 55.8246 128.407 55.3204L128.558 54.1488H128.944C129.068 54.1488 129.168 54.0483 129.168 53.9244C129.168 53.8006 129.068 53.7001 128.944 53.7001H120.664Z" fill="#0035B5"/>
<path fill-rule="evenodd" clip-rule="evenodd" d="M127.516 55.101L127.581 54.1318L128.123 54.1686L128.057 55.1378L127.516 55.101Z" fill="#0065FF"/>
<path d="M133.855 49.7057C135.34 49.7057 136.544 48.5015 136.544 47.0162C136.544 45.5308 135.34 44.3267 133.855 44.3267C132.369 44.3267 131.165 45.5308 131.165 47.0162C131.165 48.5015 132.369 49.7057 133.855 49.7057Z" fill="#90E6BC"/>
<path fill-rule="evenodd" clip-rule="evenodd" d="M133.853 44.6733C132.559 44.6733 131.51 45.7222 131.51 47.0162C131.51 48.3101 132.559 49.3591 133.853 49.3591C135.147 49.3591 136.196 48.3101 136.196 47.0162C136.196 45.7222 135.147 44.6733 133.853 44.6733ZM130.817 47.0162C130.817 45.3394 132.177 43.9801 133.853 43.9801C135.53 43.9801 136.889 45.3394 136.889 47.0162C136.889 48.6929 135.53 50.0522 133.853 50.0522C132.177 50.0522 130.817 48.6929 130.817 47.0162Z" fill="#2CC3D5"/>
<rect x="137.973" y="51.4178" width="50.9103" height="3.72515" rx="1.86257" fill="white"/>
<path d="M208.035 28H182.239C178.855 28 176.137 25.7727 176.137 23C176.137 20.2273 178.855 18 182.239 18H208.035C211.418 18 214.137 20.2273 214.137 23C214.137 25.7727 211.418 28 208.035 28Z" fill="#0096FA"/>
<path d="M226.013 26.2707C227.782 26.2707 229.216 24.8366 229.216 23.0675C229.216 21.2984 227.782 19.8643 226.013 19.8643C224.244 19.8643 222.81 21.2984 222.81 23.0675C222.81 24.8366 224.244 26.2707 226.013 26.2707Z" fill="#F5F5F5"/>
<path fill-rule="evenodd" clip-rule="evenodd" d="M124.608 490.641H284.769C305.086 490.641 321.468 474.258 321.377 454.032V36.6081C321.377 16.3821 304.995 0 284.769 0H124.608C104.382 0 88 16.3821 88 36.6081V454.032C88 474.258 104.382 490.641 124.608 490.641ZM126.074 481.214H283.489C300.421 481.214 314.057 467.486 314.149 450.555V39.9946C314.149 23.0633 300.421 9.33524 283.489 9.33524H126.074C109.143 9.33524 95.415 23.0633 95.415 39.9946V450.555C95.415 467.486 109.143 481.214 126.074 481.214Z" fill="url(#paint4_linear_10272_1633)"/>
<path d="M215.911 295.512C215.911 290.811 212.1 287 207.399 287H129.511C124.81 287 120.999 290.811 120.999 295.512V306.998C120.999 308.565 122.269 309.836 123.836 309.836H207.399C212.1 309.836 215.911 306.025 215.911 301.323V295.512Z" fill="white"/>
<path d="M200.881 326.86C200.881 322.159 204.692 318.348 209.393 318.348H295.845C300.546 318.348 304.357 322.159 304.357 326.86V338.346C304.357 339.914 303.086 341.184 301.519 341.184H209.393C204.692 341.184 200.881 337.373 200.881 332.672V326.86Z" fill="#B2DFFD"/>
<path d="M200.881 403.117C200.881 398.415 204.692 394.604 209.393 394.604H295.845C300.546 394.604 304.357 398.415 304.357 403.117V414.603C304.357 416.17 303.086 417.44 301.519 417.44H209.393C204.692 417.44 200.881 413.629 200.881 408.928V403.117Z" fill="#B2DFFD"/>
<path d="M250.164 358.209C250.164 353.507 246.353 349.696 241.652 349.696H129.51C124.809 349.696 120.997 353.507 120.997 358.209V383.254C120.997 384.821 122.268 386.091 123.835 386.091H241.652C246.353 386.091 250.164 382.28 250.164 377.579V358.209Z" fill="white"/>
<g filter="url(#filter0_d_10272_1633)">
<path d="M227.146 113.544C227.146 108.41 222.984 104.248 217.85 104.248H18.296C13.162 104.248 9.00003 108.41 9.00003 113.544V154.446C9.00003 155.473 9.83241 156.306 10.8592 156.306H217.85C222.984 156.306 227.146 152.144 227.146 147.01V113.544Z" fill="white"/>
</g>
<path d="M18.9667 115.198C18.9667 130.771 31.5913 143.395 47.1645 143.395C62.7377 143.395 75.3623 130.771 75.3623 115.198C75.3623 99.6245 62.7377 86.9999 47.1645 86.9999C31.5913 86.9999 18.9667 99.6245 18.9667 115.198Z" fill="#FCCCCC"/>
<path fill-rule="evenodd" clip-rule="evenodd" d="M99.0684 123.828C99.0684 122.222 100.37 120.921 101.975 120.921H206.4C208.006 120.921 209.307 122.222 209.307 123.828C209.307 125.433 208.006 126.735 206.4 126.735H101.975C100.37 126.735 99.0684 125.433 99.0684 123.828Z" fill="#D2DFE6"/>
<path fill-rule="evenodd" clip-rule="evenodd" d="M99.0684 136.842C99.0684 135.237 100.37 133.935 101.975 133.935H172.462C174.068 133.935 175.369 135.237 175.369 136.842C175.369 138.448 174.068 139.749 172.462 139.749H101.975C100.37 139.749 99.0684 138.448 99.0684 136.842Z" fill="#D2DFE6"/>
<path d="M47.9499 144.235C63.9385 144.235 76.8997 131.274 76.8997 115.285C76.8997 99.2966 63.9385 86.3353 47.9499 86.3353C31.9612 86.3353 19 99.2966 19 115.285C19 131.274 31.9612 144.235 47.9499 144.235Z" fill="#C5D9FB"/>
<path d="M19.5938 120.919C21.9661 132.855 31.7149 142.419 44.4292 143.976C57.0323 145.532 68.7458 138.675 73.9724 127.851L19.5938 120.919Z" fill="url(#paint5_linear_10272_1633)"/>
<path d="M63.8162 117.88V115.211L60.0352 104.647L61.1103 103.683L64.4464 107.983L65.3361 107.427L68.079 97.6039L69.2652 97.7521L68.8203 104.61L71.4893 96.1582L73.0089 96.3806L71.6377 104.943L74.8623 98.6047L76.1597 99.346L74.3063 106.204L77.4943 101.607L78.421 102.052L74.1952 115.285V117.695L63.8162 117.88Z" fill="url(#paint6_linear_10272_1633)"/>
<path d="M61.0352 141.047C68.6341 137.192 74.3056 130.075 76.1961 121.513V118.844C76.1961 117.991 75.4917 117.287 74.6391 117.287H62.629C61.7764 117.287 61.0724 117.991 61.0724 118.844V141.047H61.0352Z" fill="url(#paint7_linear_10272_1633)"/>
<path d="M39.2018 121.883C50.0315 121.883 58.8105 113.403 58.8105 102.942C58.8105 92.4805 50.0315 84 39.2018 84C28.3721 84 19.5928 92.4805 19.5928 102.942C19.5928 113.403 28.3721 121.883 39.2018 121.883Z" fill="black"/>
<path d="M37.3121 111.504L37.3494 103.831L47.9507 100.31L54.734 110.763L52.3246 112.468L52.1765 120.067L48.2471 119.845V124.589L37.3121 123.181V117.102H35.9405C35.0509 117.102 34.3467 116.397 34.3467 115.508V111.467H37.3121V111.504Z" fill="#6E3A0C"/>
<path d="M48.2827 119.845L43.3154 119.437L48.2454 123.514L48.2827 119.845Z" fill="url(#paint8_linear_10272_1633)"/>
<g filter="url(#filter1_d_10272_1633)">
<path d="M178 204.196C178 199.062 182.162 194.9 187.296 194.9H386.85C391.984 194.9 396.145 199.062 396.145 204.196V245.098C396.145 246.125 395.313 246.957 394.286 246.957H187.296C182.162 246.957 178 242.795 178 237.661V204.196Z" fill="#F6F6F6"/>
</g>
<path fill-rule="evenodd" clip-rule="evenodd" d="M306.076 214.48C306.076 212.874 304.775 211.573 303.169 211.573H198.744C197.139 211.573 195.837 212.874 195.837 214.48C195.837 216.085 197.139 217.387 198.744 217.387H303.169C304.775 217.387 306.076 216.085 306.076 214.48Z" fill="#1968F0"/>
<path fill-rule="evenodd" clip-rule="evenodd" d="M306.076 227.494C306.076 225.888 304.775 224.587 303.169 224.587H232.682C231.077 224.587 229.775 225.888 229.775 227.494C229.775 229.1 231.077 230.401 232.682 230.401H303.169C304.775 230.401 306.076 229.1 306.076 227.494Z" fill="#1968F0"/>
<mask id="mask0_10272_1633" style="mask-type:alpha" maskUnits="userSpaceOnUse" x="330" y="188" width="58" height="58">
<path d="M358.95 245.9C374.938 245.9 387.9 232.939 387.9 216.95C387.9 200.961 374.938 188 358.95 188C342.961 188 330 200.961 330 216.95C330 232.939 342.961 245.9 358.95 245.9Z" fill="#FDE99B"/>
</mask>
<g mask="url(#mask0_10272_1633)">
<path d="M354.605 252.577C374.557 255.253 392.901 241.248 395.577 221.296C398.254 201.343 384.249 183 364.297 180.323C344.344 177.647 326 191.652 323.324 211.604C320.648 231.556 334.653 249.9 354.605 252.577Z" fill="#1156CF"/>
<path d="M366.208 230.549L378.25 216.857L376.729 202.216L346.713 195.887L343.887 203.038L350.278 206.882L366.208 230.549Z" fill="#F06305"/>
<path d="M350.946 203.3L347.004 209.492L346.724 213.437L343.03 221.031L345.209 221.946L345.275 231.662L351.58 231.512L352.475 239.224L368.039 239.631L365.684 224.256L368.808 221.377L365.889 216.692L363.854 218.41L362.479 209.639L350.946 203.3Z" fill="#FCAA73"/>
<path d="M352.2 236.635L358.766 231.293L351.581 231.512L352.2 236.635Z" fill="url(#paint9_linear_10272_1633)"/>
<path d="M362.435 228.985L367.106 233.594L365.683 224.256L362.435 228.985Z" fill="url(#paint10_linear_10272_1633)"/>
<path d="M345.202 226.176L347.625 222.954L345.209 221.945L345.202 226.176Z" fill="url(#paint11_linear_10272_1633)"/>
</g>
<g filter="url(#filter2_d_10272_1633)">
<path d="M256.467 272.073C256.467 267.281 260.351 263.396 265.143 263.396H295.51C300.302 263.396 304.186 267.281 304.186 272.073V283.848C304.186 285.388 302.938 286.636 301.397 286.636H265.143C260.351 286.636 256.467 282.752 256.467 277.96V272.073Z" fill="white"/>
</g>
<path d="M287.205 276.97C288.198 273.171 285.923 269.286 282.125 268.293C278.326 267.3 274.441 269.575 273.448 273.374C272.455 277.172 274.73 281.057 278.529 282.05C282.327 283.043 286.212 280.768 287.205 276.97Z" fill="#F6A721"/>
<path d="M278.023 273.871C278.023 274.352 277.694 274.743 277.292 274.743C276.889 274.743 276.562 274.352 276.562 273.871C276.562 273.39 276.891 272.999 277.292 272.999C277.693 272.999 278.023 273.39 278.023 273.871Z" fill="#2C2A46"/>
<path d="M283.851 274.75C283.791 274.752 283.732 274.73 283.687 274.689C283.211 274.25 282.509 274.594 282.501 274.599C282.456 274.62 282.406 274.626 282.357 274.616C282.308 274.606 282.264 274.581 282.231 274.544C282.197 274.508 282.177 274.461 282.172 274.412C282.167 274.362 282.178 274.313 282.204 274.27C282.384 273.996 282.633 273.775 282.926 273.628C283.219 273.482 283.546 273.415 283.873 273.436C283.903 273.438 283.933 273.446 283.96 273.459C283.987 273.473 284.012 273.492 284.032 273.515C284.052 273.538 284.067 273.565 284.077 273.594C284.086 273.623 284.09 273.653 284.088 273.684C284.086 273.714 284.078 273.744 284.064 273.771C284.05 273.798 284.031 273.823 284.008 273.843C283.985 273.862 283.959 273.878 283.93 273.887C283.901 273.897 283.87 273.901 283.84 273.899C283.623 273.885 283.406 273.924 283.207 274.01C283.503 274.03 283.783 274.151 284.001 274.352C284.023 274.373 284.042 274.398 284.054 274.425C284.067 274.453 284.075 274.483 284.076 274.514C284.077 274.544 284.072 274.575 284.062 274.603C284.051 274.632 284.035 274.658 284.014 274.681C283.993 274.702 283.968 274.72 283.94 274.732C283.912 274.743 283.882 274.75 283.851 274.75Z" fill="#2C2A46"/>
<path d="M280.817 279.799C280.044 279.799 279.293 279.542 278.682 279.068C278.614 279.01 278.571 278.928 278.562 278.839C278.553 278.75 278.579 278.661 278.633 278.591C278.688 278.52 278.768 278.473 278.856 278.46C278.944 278.446 279.034 278.467 279.107 278.518C279.526 278.84 280.027 279.037 280.553 279.086C281.079 279.135 281.608 279.034 282.079 278.794C282.549 278.555 282.942 278.187 283.212 277.733C283.482 277.279 283.618 276.758 283.603 276.23C283.6 276.137 283.634 276.048 283.698 275.98C283.761 275.913 283.849 275.873 283.941 275.871C284.033 275.868 284.123 275.902 284.19 275.965C284.258 276.028 284.297 276.116 284.3 276.208C284.326 277.132 283.986 278.028 283.353 278.701C282.72 279.373 281.846 279.768 280.923 279.797L280.817 279.799Z" fill="#2C2A46"/>
<g filter="url(#filter3_d_10272_1633)">
<path d="M160.72 171.676C160.72 166.884 156.835 163 152.043 163H121.677C116.885 163 113 166.884 113 171.676V183.451C113 184.991 114.249 186.24 115.789 186.24H152.043C156.835 186.24 160.72 182.355 160.72 177.564V171.676Z" fill="white"/>
</g>
<path d="M138.056 182.255C142.186 181.594 144.999 177.709 144.338 173.578C143.677 169.447 139.793 166.635 135.662 167.295C131.531 167.956 128.718 171.841 129.379 175.972C130.04 180.103 133.925 182.915 138.056 182.255Z" fill="#F6A721"/>
<path d="M141.247 173.795C141.265 173.804 141.285 173.809 141.305 173.809C141.325 173.808 141.345 173.803 141.362 173.793C141.38 173.783 141.394 173.769 141.405 173.752C141.415 173.735 141.421 173.715 141.422 173.695C141.422 173.429 141.317 173.175 141.129 172.987C140.941 172.799 140.687 172.694 140.421 172.694C140.156 172.694 139.901 172.799 139.713 172.987C139.525 173.175 139.42 173.429 139.42 173.695C139.42 173.716 139.427 173.737 139.438 173.755C139.449 173.773 139.464 173.788 139.483 173.798C139.502 173.808 139.523 173.813 139.544 173.812C139.565 173.812 139.586 173.806 139.604 173.795C139.849 173.642 140.133 173.562 140.422 173.562C140.711 173.562 140.994 173.642 141.24 173.795H141.247Z" fill="#2C2A46"/>
<path d="M134.105 173.795C134.123 173.804 134.143 173.809 134.163 173.809C134.183 173.808 134.203 173.803 134.221 173.793C134.238 173.783 134.253 173.769 134.263 173.752C134.274 173.735 134.28 173.715 134.28 173.695C134.28 173.429 134.175 173.175 133.987 172.987C133.8 172.799 133.545 172.694 133.279 172.694C133.014 172.694 132.759 172.799 132.572 172.987C132.384 173.175 132.278 173.429 132.278 173.695C132.279 173.715 132.285 173.735 132.296 173.752C132.306 173.769 132.321 173.783 132.338 173.793C132.356 173.803 132.375 173.808 132.396 173.809C132.416 173.809 132.436 173.804 132.453 173.795C132.699 173.643 132.983 173.562 133.272 173.562C133.562 173.562 133.845 173.643 134.091 173.795H134.105Z" fill="#2C2A46"/>
<path d="M136.898 178.222C135.622 178.22 134.392 177.74 133.452 176.876C133.387 176.808 133.351 176.717 133.351 176.623C133.35 176.529 133.386 176.438 133.45 176.369C133.514 176.3 133.602 176.258 133.696 176.251C133.79 176.245 133.883 176.274 133.956 176.334C134.744 177.059 135.771 177.467 136.841 177.479C137.912 177.492 138.949 177.108 139.753 176.402C139.789 176.37 139.832 176.345 139.878 176.329C139.924 176.314 139.972 176.307 140.021 176.31C140.069 176.313 140.117 176.326 140.16 176.347C140.204 176.368 140.243 176.398 140.275 176.435C140.307 176.471 140.332 176.513 140.348 176.559C140.364 176.605 140.37 176.654 140.367 176.702C140.364 176.751 140.352 176.798 140.33 176.842C140.309 176.886 140.279 176.925 140.243 176.957C139.32 177.773 138.13 178.223 136.898 178.222Z" fill="#2C2A46"/>
<defs>
<filter id="filter0_d_10272_1633" x="0.854832" y="97.4606" width="234.436" height="68.3478" filterUnits="userSpaceOnUse" color-interpolation-filters="sRGB">
<feFlood flood-opacity="0" result="BackgroundImageFix"/>
<feColorMatrix in="SourceAlpha" type="matrix" values="0 0 0 0 0 0 0 0 0 0 0 0 0 0 0 0 0 0 127 0" result="hardAlpha"/>
<feOffset dy="1.35753"/>
<feGaussianBlur stdDeviation="4.07258"/>
<feColorMatrix type="matrix" values="0 0 0 0 0.374547 0 0 0 0 0.481553 0 0 0 0 0.601935 0 0 0 0.15 0"/>
<feBlend mode="normal" in2="BackgroundImageFix" result="effect1_dropShadow_10272_1633"/>
<feBlend mode="normal" in="SourceGraphic" in2="effect1_dropShadow_10272_1633" result="shape"/>
</filter>
<filter id="filter1_d_10272_1633" x="169.855" y="188.112" width="234.436" height="68.3478" filterUnits="userSpaceOnUse" color-interpolation-filters="sRGB">
<feFlood flood-opacity="0" result="BackgroundImageFix"/>
<feColorMatrix in="SourceAlpha" type="matrix" values="0 0 0 0 0 0 0 0 0 0 0 0 0 0 0 0 0 0 127 0" result="hardAlpha"/>
<feOffset dy="1.35753"/>
<feGaussianBlur stdDeviation="4.07258"/>
<feColorMatrix type="matrix" values="0 0 0 0 0.374547 0 0 0 0 0.481553 0 0 0 0 0.601935 0 0 0 0.15 0"/>
<feBlend mode="normal" in2="BackgroundImageFix" result="effect1_dropShadow_10272_1633"/>
<feBlend mode="normal" in="SourceGraphic" in2="effect1_dropShadow_10272_1633" result="shape"/>
</filter>
<filter id="filter2_d_10272_1633" x="252.748" y="260.298" width="55.1565" height="30.6767" filterUnits="userSpaceOnUse" color-interpolation-filters="sRGB">
<feFlood flood-opacity="0" result="BackgroundImageFix"/>
<feColorMatrix in="SourceAlpha" type="matrix" values="0 0 0 0 0 0 0 0 0 0 0 0 0 0 0 0 0 0 127 0" result="hardAlpha"/>
<feOffset dy="0.619731"/>
<feGaussianBlur stdDeviation="1.85919"/>
<feColorMatrix type="matrix" values="0 0 0 0 0.374547 0 0 0 0 0.481553 0 0 0 0 0.601935 0 0 0 0.15 0"/>
<feBlend mode="normal" in2="BackgroundImageFix" result="effect1_dropShadow_10272_1633"/>
<feBlend mode="normal" in="SourceGraphic" in2="effect1_dropShadow_10272_1633" result="shape"/>
</filter>
<filter id="filter3_d_10272_1633" x="109.282" y="159.901" width="55.1565" height="30.6767" filterUnits="userSpaceOnUse" color-interpolation-filters="sRGB">
<feFlood flood-opacity="0" result="BackgroundImageFix"/>
<feColorMatrix in="SourceAlpha" type="matrix" values="0 0 0 0 0 0 0 0 0 0 0 0 0 0 0 0 0 0 127 0" result="hardAlpha"/>
<feOffset dy="0.619731"/>
<feGaussianBlur stdDeviation="1.85919"/>
<feColorMatrix type="matrix" values="0 0 0 0 0.374547 0 0 0 0 0.481553 0 0 0 0 0.601935 0 0 0 0.15 0"/>
<feBlend mode="normal" in2="BackgroundImageFix" result="effect1_dropShadow_10272_1633"/>
<feBlend mode="normal" in="SourceGraphic" in2="effect1_dropShadow_10272_1633" result="shape"/>
</filter>
<linearGradient id="paint0_linear_10272_1633" x1="15.6076" y1="-134.315" x2="325.531" y2="530.94" gradientUnits="userSpaceOnUse">
<stop stop-color="white"/>
<stop offset="0.147721" stop-color="#F7FAFE"/>
<stop offset="0.304044" stop-color="#E2ECFD"/>
<stop offset="0.516199" stop-color="#FAFCFF"/>
<stop offset="0.970404" stop-color="#C5D9FB"/>
</linearGradient>
<linearGradient id="paint1_linear_10272_1633" x1="225.137" y1="42" x2="206.137" y2="-5" gradientUnits="userSpaceOnUse">
<stop stop-color="#0D4FC1"/>
<stop offset="0.482673" stop-color="#135CD8"/>
<stop offset="1" stop-color="#1A69F1"/>
</linearGradient>
<linearGradient id="paint2_linear_10272_1633" x1="122.373" y1="57.3111" x2="118.824" y2="58.1086" gradientUnits="userSpaceOnUse">
<stop offset="0.0105566" stop-color="#0012FF" stop-opacity="0.2"/>
<stop offset="0.5203" stop-color="#0012FF" stop-opacity="0"/>
</linearGradient>
<linearGradient id="paint3_linear_10272_1633" x1="127.318" y1="57.3111" x2="130.866" y2="58.1086" gradientUnits="userSpaceOnUse">
<stop offset="0.0105566" stop-color="#0012FF" stop-opacity="0.2"/>
<stop offset="0.5203" stop-color="#0012FF" stop-opacity="0"/>
</linearGradient>
<linearGradient id="paint4_linear_10272_1633" x1="53.5935" y1="102.062" x2="409.069" y2="438.926" gradientUnits="userSpaceOnUse">
<stop stop-color="#1968F0"/>
<stop offset="0.2912" stop-color="#125BD8"/>
<stop offset="0.5885" stop-color="#0E51C6"/>
<stop offset="0.8048" stop-color="#0C4EC0"/>
</linearGradient>
<linearGradient id="paint5_linear_10272_1633" x1="27.7309" y1="137.808" x2="65.7881" y2="117.249" gradientUnits="userSpaceOnUse">
<stop offset="0.0650309" stop-color="#0096FA"/>
<stop offset="0.2889" stop-color="#0093FA"/>
<stop offset="0.4695" stop-color="#0089FB"/>
<stop offset="0.6351" stop-color="#0078FC"/>
<stop offset="0.7917" stop-color="#0060FD"/>
<stop offset="0.9406" stop-color="#0041FE"/>
<stop offset="1" stop-color="#0033FF"/>
</linearGradient>
<linearGradient id="paint6_linear_10272_1633" x1="69.2293" y1="105.327" x2="69.2293" y2="123.745" gradientUnits="userSpaceOnUse">
<stop offset="0.375" stop-color="#6E3A0C"/>
<stop offset="0.5005" stop-color="#6A380C"/>
<stop offset="0.6185" stop-color="#5F320A"/>
<stop offset="0.7335" stop-color="#4C2808"/>
<stop offset="0.8467" stop-color="#311A05"/>
<stop offset="0.9576" stop-color="#0F0802"/>
<stop offset="1"/>
</linearGradient>
<linearGradient id="paint7_linear_10272_1633" x1="57.2971" y1="119.293" x2="82.2662" y2="142.055" gradientUnits="userSpaceOnUse">
<stop offset="0.2046" stop-color="#0096FA"/>
<stop offset="0.3622" stop-color="#0092FA"/>
<stop offset="0.5231" stop-color="#0086FB"/>
<stop offset="0.6855" stop-color="#0071FC"/>
<stop offset="0.8479" stop-color="#0055FD"/>
<stop offset="1" stop-color="#0033FF"/>
</linearGradient>
<linearGradient id="paint8_linear_10272_1633" x1="44.8283" y1="122.524" x2="49.5457" y2="117.32" gradientUnits="userSpaceOnUse">
<stop offset="0.2107" stop-color="#6E3A0C"/>
<stop offset="0.3223" stop-color="#65350B"/>
<stop offset="0.5021" stop-color="#4E2908"/>
<stop offset="0.7264" stop-color="#271504"/>
<stop offset="0.9218"/>
</linearGradient>
<linearGradient id="paint9_linear_10272_1633" x1="357.557" y1="235.703" x2="351.819" y2="229.769" gradientUnits="userSpaceOnUse">
<stop offset="0.2944" stop-opacity="0"/>
<stop offset="1" stop-opacity="0.5"/>
</linearGradient>
<linearGradient id="paint10_linear_10272_1633" x1="362.883" y1="235.438" x2="369.859" y2="223.057" gradientUnits="userSpaceOnUse">
<stop offset="0.3675" stop-opacity="0"/>
<stop offset="0.8842" stop-opacity="0.5"/>
</linearGradient>
<linearGradient id="paint11_linear_10272_1633" x1="347.954" y1="227.759" x2="345.483" y2="220.593" gradientUnits="userSpaceOnUse">
<stop offset="0.3675" stop-opacity="0"/>
<stop offset="0.9278" stop-opacity="0.5"/>
</linearGradient>
</defs>
</svg>
