<svg width="248" height="498" viewBox="0 0 248 498" fill="none" xmlns="http://www.w3.org/2000/svg">
<path d="M17.634 105.065H4.82113C2.25856 105.065 0.245117 103.052 0.245117 100.489V80.4464C0.245117 77.8838 2.25856 75.8703 4.82113 75.8703H17.634C20.1966 75.8703 22.21 77.8838 22.21 80.4464V100.489C22.21 103.052 20.1966 105.065 17.634 105.065Z" fill="#0096FA"/>
<path d="M17.634 167.299H4.82113C2.25856 167.299 0.245117 165.286 0.245117 162.723V121.813C0.245117 119.251 2.25856 117.237 4.82113 117.237H17.634C20.1966 117.237 22.21 119.251 22.21 121.813V162.723C22.21 165.286 20.1966 167.299 17.634 167.299Z" fill="#0096FA"/>
<path d="M243.141 194.664H230.328C227.765 194.664 225.752 192.651 225.752 190.088V149.178C225.752 146.616 227.765 144.602 230.328 144.602H243.141C245.703 144.602 247.717 146.616 247.717 149.178V190.088C247.717 192.651 245.612 194.664 243.141 194.664Z" fill="#0096FA"/>
<path d="M202.598 481.214H45.1827C28.2515 481.214 14.5234 467.486 14.5234 450.555V39.9946C14.5234 23.0633 28.2515 9.33524 45.1827 9.33524H202.598C219.529 9.33524 233.257 23.0633 233.257 39.9946V450.555C233.165 467.486 219.529 481.214 202.598 481.214Z" fill="url(#paint0_linear_10272_1635)"/>
<path d="M126.571 125.512C126.571 120.811 122.76 117 118.059 117H40.1711C35.4699 117 31.6588 120.811 31.6588 125.512V136.999C31.6588 138.566 32.9292 139.836 34.4962 139.836H118.059C122.76 139.836 126.571 136.025 126.571 131.324V125.512Z" fill="white"/>
<path d="M111.541 156.86C111.541 152.159 115.352 148.348 120.053 148.348H206.505C211.206 148.348 215.017 152.159 215.017 156.86V168.347C215.017 169.914 213.747 171.184 212.18 171.184H120.053C115.352 171.184 111.541 167.373 111.541 162.672V156.86Z" fill="#B2DFFD"/>
<path d="M111.541 233.117C111.541 228.416 115.352 224.605 120.053 224.605H206.505C211.206 224.605 215.017 228.416 215.017 233.117V244.603C215.017 246.17 213.747 247.441 212.18 247.441H120.053C115.352 247.441 111.541 243.629 111.541 238.928V233.117Z" fill="#B2DFFD"/>
<path d="M160.824 188.209C160.824 183.508 157.013 179.697 152.312 179.697H40.17C35.4687 179.697 31.6576 183.508 31.6576 188.209V213.254C31.6576 214.821 32.928 216.092 34.4951 216.092H152.312C157.013 216.092 160.824 212.28 160.824 207.579V188.209Z" fill="white"/>
<path d="M14.2451 37.5429C14.2451 25.6451 23.2746 16 34.4129 16H215.077C226.216 16 235.245 25.6451 235.245 37.5429V45H14.2451V37.5429Z" fill="url(#paint1_linear_10272_1635)"/>
<path d="M233.245 45.12H14.2451V75.8569H233.245V45.12Z" fill="#0096FA"/>
<path d="M220.17 59.4382L223.498 56.102C223.58 55.9991 223.621 55.8695 223.613 55.7382C223.606 55.6068 223.55 55.4829 223.456 55.3902C223.363 55.2976 223.238 55.2427 223.107 55.2362C222.976 55.2297 222.846 55.2719 222.744 55.3549L219.414 58.6826L216.085 55.3549C216.038 55.2963 215.979 55.2482 215.913 55.2138C215.846 55.1794 215.773 55.1593 215.698 55.1549C215.624 55.1506 215.549 55.162 215.479 55.1885C215.409 55.215 215.345 55.256 215.292 55.3087C215.238 55.3615 215.197 55.4248 215.17 55.4947C215.143 55.5645 215.131 55.6393 215.134 55.7141C215.138 55.789 215.158 55.8622 215.191 55.929C215.225 55.9958 215.273 56.0547 215.331 56.102L218.659 59.4318L215.331 62.768C215.257 62.8428 215.207 62.9377 215.186 63.041C215.166 63.1443 215.177 63.2512 215.217 63.3484C215.258 63.4456 215.326 63.5287 215.413 63.5872C215.501 63.6457 215.604 63.6771 215.709 63.6773C215.779 63.6777 215.848 63.6642 215.912 63.6374C215.977 63.6107 216.036 63.5712 216.085 63.5215L219.414 60.1917L222.744 63.5215C222.793 63.5712 222.852 63.6107 222.916 63.6374C222.981 63.6642 223.05 63.6777 223.12 63.6773C223.225 63.6771 223.328 63.6457 223.415 63.5872C223.503 63.5287 223.571 63.4456 223.611 63.3484C223.652 63.2512 223.663 63.1443 223.642 63.041C223.622 62.9377 223.572 62.8428 223.498 62.768L220.17 59.4382Z" fill="white"/>
<path d="M26.9498 62.7854C26.8961 62.785 26.8431 62.7729 26.7946 62.7499C26.7461 62.727 26.7032 62.6937 26.6689 62.6524L24.0974 59.5894C23.984 59.4547 23.9219 59.2843 23.9219 59.1083C23.9219 58.9323 23.984 58.7619 24.0974 58.6272L26.6689 55.5642C26.7335 55.492 26.8238 55.4477 26.9204 55.4408C27.0171 55.4339 27.1127 55.4648 27.187 55.5271C27.2613 55.5894 27.3085 55.6781 27.3186 55.7745C27.3287 55.8709 27.3009 55.9675 27.2411 56.0438L24.6697 59.1083L27.2366 62.1728C27.2827 62.2272 27.3122 62.2936 27.3216 62.3642C27.331 62.4348 27.32 62.5066 27.2898 62.5712C27.2595 62.6357 27.2114 62.6902 27.1512 62.7281C27.0909 62.7661 27.021 62.786 26.9498 62.7854Z" fill="white"/>
<path fill-rule="evenodd" clip-rule="evenodd" d="M43.8402 69.7155C45.7397 69.7142 47.5962 69.1498 49.175 68.0937C50.7539 67.0376 51.9842 65.5371 52.7105 63.7819C53.4368 62.0267 53.6265 60.0957 53.2556 58.2327C52.8847 56.3698 51.9698 54.6586 50.6267 53.3154C49.2835 51.9723 47.5723 51.0574 45.7094 50.6865C43.8464 50.3156 41.9153 50.5053 40.1602 51.2316C38.405 51.9579 36.9045 53.1882 35.8484 54.7671C34.7923 56.3459 34.2279 58.2024 34.2266 60.1019C34.2318 62.65 35.2464 65.0922 37.0482 66.8939C38.8499 68.6957 41.2921 69.7102 43.8402 69.7155Z" fill="#2C2A46"/>
<path fill-rule="evenodd" clip-rule="evenodd" d="M46.5123 64.6474C45.7601 64.737 44.9087 64.7663 43.9586 64.7663C43.0087 64.7663 42.1574 64.737 41.4052 64.6472L41.4045 64.6483L40.1118 66.5063C40.0371 66.6088 39.9249 66.6616 39.8128 66.6616C39.7007 66.6616 39.5885 66.6119 39.5169 66.5125C38.8254 65.5618 38.1246 64.3314 37.6667 62.8463C37.493 62.2842 37.3547 61.6868 37.265 61.0551C37.1864 60.5717 37.1469 60.0269 37.1465 59.4131C37.1465 54.5849 39.9187 53.0376 43.9586 53.0376C47.9932 53.0376 50.7634 54.5808 50.7708 59.3938C50.7708 59.4002 50.7708 59.4066 50.7708 59.4131C50.7708 59.4296 50.7708 59.4461 50.7707 59.4626C50.7688 60.0221 50.7339 60.5237 50.6661 60.9734C50.3497 63.3115 49.3655 65.1862 48.4004 66.5124C48.254 66.7144 47.9488 66.7113 47.8055 66.5062L46.5128 64.6483C46.5127 64.648 46.5125 64.6477 46.5123 64.6474Z" fill="#0096FA"/>
<path d="M37.7666 63.1569C38.2463 64.5892 38.9596 65.745 39.5171 66.5124C39.6635 66.7144 39.9688 66.7112 40.1121 66.5062L41.4047 64.6482C39.6324 64.4929 38.3086 63.9802 37.7666 63.1569Z" fill="url(#paint2_linear_10272_1635)"/>
<path d="M50.1406 63.1569C49.6609 64.5892 48.9476 65.745 48.3901 66.5124C48.2437 66.7144 47.9384 66.7112 47.7951 66.5062L46.5025 64.6482C48.2748 64.4929 49.5986 63.9802 50.1406 63.1569Z" fill="url(#paint3_linear_10272_1635)"/>
<path fill-rule="evenodd" clip-rule="evenodd" d="M45.6064 61.8064L46.2999 61.8065C46.2967 62.0267 46.1427 62.204 45.9532 62.204C45.7637 62.204 45.6097 62.0266 45.6064 61.8064Z" fill="black"/>
<path fill-rule="evenodd" clip-rule="evenodd" d="M42.3643 61.8064L41.6708 61.8065C41.674 62.0267 41.828 62.204 42.0175 62.204C42.207 62.204 42.361 62.0266 42.3643 61.8064Z" fill="black"/>
<path fill-rule="evenodd" clip-rule="evenodd" d="M39.7722 60.7001C39.6483 60.7001 39.5479 60.8006 39.5479 60.9244C39.5479 61.0483 39.6483 61.1488 39.7722 61.1488H40.1269L40.2785 62.3204C40.3437 62.8246 40.7638 63.2078 41.2718 63.2266L42.2222 63.2618C42.7239 63.2804 43.1786 62.9685 43.3419 62.4938L43.8047 61.1488H43.9887L44.4516 62.4938C44.6149 62.9685 45.0696 63.2804 45.5712 63.2618L46.5217 63.2266C47.0297 63.2078 47.4497 62.8246 47.5149 62.3204L47.6666 61.1488H48.0521C48.176 61.1488 48.2765 61.0483 48.2765 60.9244C48.2765 60.8006 48.176 60.7001 48.0521 60.7001H39.7722Z" fill="#0035B5"/>
<path fill-rule="evenodd" clip-rule="evenodd" d="M46.624 62.101L46.6898 61.1318L47.231 61.1686L47.1652 62.1378L46.624 62.101Z" fill="#0065FF"/>
<path d="M52.9629 56.7057C54.4483 56.7057 55.6524 55.5015 55.6524 54.0162C55.6524 52.5308 54.4483 51.3267 52.9629 51.3267C51.4776 51.3267 50.2734 52.5308 50.2734 54.0162C50.2734 55.5015 51.4776 56.7057 52.9629 56.7057Z" fill="#90E6BC"/>
<path fill-rule="evenodd" clip-rule="evenodd" d="M52.9618 51.6733C51.6679 51.6733 50.6189 52.7222 50.6189 54.0162C50.6189 55.3101 51.6679 56.3591 52.9618 56.3591C54.2558 56.3591 55.3047 55.3101 55.3047 54.0162C55.3047 52.7222 54.2558 51.6733 52.9618 51.6733ZM49.9258 54.0162C49.9258 52.3394 51.2851 50.9801 52.9618 50.9801C54.6386 50.9801 55.9978 52.3394 55.9978 54.0162C55.9978 55.6929 54.6386 57.0522 52.9618 57.0522C51.2851 57.0522 49.9258 55.6929 49.9258 54.0162Z" fill="#2CC3D5"/>
<rect x="57.0811" y="58.4178" width="50.9103" height="3.72515" rx="1.86257" fill="white"/>
<path d="M127.143 35H101.347C97.9634 35 95.2451 32.7727 95.2451 30C95.2451 27.2273 97.9634 25 101.347 25H127.143C130.527 25 133.245 27.2273 133.245 30C133.245 32.7727 130.527 35 127.143 35Z" fill="#0096FA"/>
<path d="M145.121 33.2707C146.89 33.2707 148.324 31.8366 148.324 30.0675C148.324 28.2984 146.89 26.8643 145.121 26.8643C143.352 26.8643 141.918 28.2984 141.918 30.0675C141.918 31.8366 143.352 33.2707 145.121 33.2707Z" fill="#F5F5F5"/>
<path fill-rule="evenodd" clip-rule="evenodd" d="M43.7165 497.641H203.877C224.195 497.641 240.577 481.258 240.485 461.032V43.6081C240.485 23.3821 224.103 7 203.877 7H43.7165C23.4905 7 7.1084 23.3821 7.1084 43.6081V461.032C7.1084 481.258 23.4905 497.641 43.7165 497.641ZM45.1827 488.214H202.598C219.529 488.214 233.165 474.486 233.257 457.555V46.9946C233.257 30.0633 219.529 16.3352 202.598 16.3352H45.1827C28.2515 16.3352 14.5234 30.0633 14.5234 46.9946V457.555C14.5234 474.486 28.2515 488.214 45.1827 488.214Z" fill="url(#paint4_linear_10272_1635)"/>
<defs>
<linearGradient id="paint0_linear_10272_1635" x1="-65.1473" y1="-134.315" x2="244.776" y2="530.94" gradientUnits="userSpaceOnUse">
<stop stop-color="white"/>
<stop offset="0.147721" stop-color="#F7FAFE"/>
<stop offset="0.304044" stop-color="#E2ECFD"/>
<stop offset="0.677979" stop-color="#FAFCFF"/>
<stop offset="0.967346" stop-color="#C5D9FB"/>
</linearGradient>
<linearGradient id="paint1_linear_10272_1635" x1="144.245" y1="49" x2="125.245" y2="2" gradientUnits="userSpaceOnUse">
<stop stop-color="#0D4FC1"/>
<stop offset="0.482673" stop-color="#135CD8"/>
<stop offset="1" stop-color="#1A69F1"/>
</linearGradient>
<linearGradient id="paint2_linear_10272_1635" x1="41.4812" y1="64.3111" x2="37.9326" y2="65.1086" gradientUnits="userSpaceOnUse">
<stop offset="0.0105566" stop-color="#0012FF" stop-opacity="0.2"/>
<stop offset="0.5203" stop-color="#0012FF" stop-opacity="0"/>
</linearGradient>
<linearGradient id="paint3_linear_10272_1635" x1="46.426" y1="64.3111" x2="49.9747" y2="65.1086" gradientUnits="userSpaceOnUse">
<stop offset="0.0105566" stop-color="#0012FF" stop-opacity="0.2"/>
<stop offset="0.5203" stop-color="#0012FF" stop-opacity="0"/>
</linearGradient>
<linearGradient id="paint4_linear_10272_1635" x1="-27.2981" y1="109.062" x2="328.177" y2="445.926" gradientUnits="userSpaceOnUse">
<stop stop-color="#1968F0"/>
<stop offset="0.2912" stop-color="#125BD8"/>
<stop offset="0.5885" stop-color="#0E51C6"/>
<stop offset="0.8048" stop-color="#0C4EC0"/>
</linearGradient>
</defs>
</svg>
