<svg width="241" height="485" viewBox="0 0 241 485" fill="none" xmlns="http://www.w3.org/2000/svg">
<path d="M0.0078125 37.7855C0.0078125 16.9172 16.925 0 37.7933 0H202.988C223.856 0 240.773 16.9172 240.773 37.7855V446.556C240.773 467.425 223.856 484.342 202.988 484.342H37.7934C16.925 484.342 0.0078125 467.425 0.0078125 446.556V37.7855Z" fill="#1A2437"/>
<path d="M15.0078 34.5542C15.0078 23.1714 24.2354 13.9438 35.6181 13.9438H205.809C217.192 13.9438 226.419 23.1714 226.419 34.5541V448.634C226.419 460.016 217.192 469.244 205.809 469.244H35.6181C24.2354 469.244 15.0078 460.016 15.0078 448.634V34.5542Z" fill="#F5F8F9"/>
<path d="M226.013 449.827C226.013 460.482 217.375 469.12 206.72 469.12L33.8258 469.12C23.1706 469.12 14.5329 460.482 14.5329 449.827L14.5329 437.954L226.013 437.954L226.013 449.827Z" fill="white"/>
<path fill-rule="evenodd" clip-rule="evenodd" d="M226.013 438.276H14.5332V437.633H226.013V438.276Z" fill="#D2DFE6"/>
<path fill-rule="evenodd" clip-rule="evenodd" d="M32.7136 447.6C31.4661 447.6 30.2466 447.97 29.2094 448.663C28.1722 449.357 27.3638 450.342 26.8864 451.494C26.409 452.647 26.2841 453.915 26.5274 455.138C26.7708 456.362 27.3715 457.486 28.2536 458.368C29.1357 459.25 30.2596 459.85 31.4831 460.094C32.7066 460.337 33.9747 460.212 35.1273 459.735C36.2798 459.258 37.2648 458.449 37.9579 457.412C38.6509 456.375 39.0208 455.155 39.0208 453.908C39.0208 452.235 38.3563 450.631 37.1735 449.448C35.9906 448.265 34.3864 447.6 32.7136 447.6ZM32.7136 459.521C31.9809 459.52 31.2557 459.375 30.5793 459.094C29.9029 458.812 29.2886 458.4 28.7715 457.881C28.3624 457.48 28.0191 457.017 27.7544 456.51C27.1844 455.422 26.9862 454.178 27.1899 452.967C27.3937 451.756 27.9882 450.645 28.8827 449.804C29.7773 448.963 30.9225 448.438 32.1436 448.31C33.3646 448.181 34.5942 448.455 35.6446 449.091C36.6949 449.727 37.5082 450.689 37.9601 451.831C38.412 452.972 38.4778 454.231 38.1472 455.413C37.8167 456.596 37.1082 457.637 36.1298 458.379C35.1515 459.121 33.9571 459.522 32.7293 459.521H32.7136Z" fill="#00C6D7"/>
<path fill-rule="evenodd" clip-rule="evenodd" d="M30.6546 453.182C30.7906 453.184 30.924 453.145 31.0378 453.071C31.1516 452.996 31.2408 452.89 31.2939 452.765C31.347 452.639 31.3617 452.501 31.3362 452.368C31.3106 452.234 31.2459 452.111 31.1503 452.014C31.0547 451.918 30.9325 451.852 30.7992 451.824C30.666 451.797 30.5276 451.81 30.4018 451.862C30.276 451.914 30.1685 452.002 30.0927 452.115C30.017 452.228 29.9766 452.361 29.9766 452.497C29.9766 452.677 30.0477 452.85 30.1747 452.979C30.3016 453.107 30.4741 453.18 30.6546 453.182Z" fill="#00C6D7"/>
<path fill-rule="evenodd" clip-rule="evenodd" d="M34.8734 453.183C35.0091 453.183 35.1417 453.142 35.2545 453.067C35.3673 452.992 35.4552 452.884 35.5071 452.759C35.559 452.634 35.5726 452.496 35.5462 452.363C35.5197 452.23 35.4544 452.107 35.3584 452.012C35.2625 451.916 35.1403 451.85 35.0072 451.824C34.8742 451.797 34.7363 451.811 34.6109 451.863C34.4856 451.915 34.3785 452.003 34.3031 452.115C34.2277 452.228 34.1875 452.361 34.1875 452.497C34.1875 452.587 34.2052 452.676 34.2397 452.759C34.2742 452.842 34.3247 452.918 34.3884 452.982C34.4521 453.045 34.5277 453.096 34.6109 453.13C34.6941 453.165 34.7833 453.183 34.8734 453.183Z" fill="#00C6D7"/>
<path fill-rule="evenodd" clip-rule="evenodd" d="M32.3421 456.691C31.8649 456.636 31.4057 456.477 30.9969 456.225C30.5881 455.973 30.2399 455.634 29.9768 455.232L29.4092 455.603C29.724 456.087 30.1414 456.496 30.6319 456.802C31.1223 457.107 31.6739 457.3 32.2475 457.369C32.3945 457.377 32.5419 457.377 32.689 457.369C33.345 457.369 33.9908 457.205 34.5676 456.893C35.1445 456.58 35.6342 456.129 35.9924 455.579L35.4169 455.209C35.0917 455.716 34.6321 456.123 34.0893 456.385C33.5464 456.647 32.9416 456.753 32.3421 456.691Z" fill="#00C6D7"/>
<path d="M14.8955 33.0927C14.8955 22.4375 23.5332 13.7998 34.1884 13.7998H207.015C217.67 13.7998 226.308 22.4375 226.308 33.0927V39.771H14.8955V33.0927Z" fill="#2D91AF"/>
<path d="M61.3789 13.7998H179.107V15.3612C179.107 24.3294 171.837 31.5996 162.869 31.5996H77.6173C68.6491 31.5996 61.3789 24.3294 61.3789 15.3612V13.7998Z" fill="#1A2437"/>
<path d="M226.298 39.58H14.8984V69.2501H226.298V39.58Z" fill="#2CC3D5"/>
<path d="M213.679 53.4012L216.891 50.1807C216.97 50.0814 217.01 49.9564 217.003 49.8296C216.995 49.7028 216.941 49.5831 216.851 49.4937C216.761 49.4043 216.641 49.3513 216.514 49.345C216.387 49.3387 216.262 49.3795 216.164 49.4596L212.949 52.6718L209.735 49.4596C209.69 49.4031 209.634 49.3566 209.569 49.3234C209.505 49.2901 209.435 49.2708 209.362 49.2666C209.29 49.2624 209.218 49.2734 209.15 49.299C209.083 49.3246 209.021 49.3641 208.97 49.415C208.918 49.466 208.878 49.5271 208.852 49.5945C208.826 49.662 208.814 49.7341 208.818 49.8064C208.822 49.8786 208.84 49.9493 208.873 50.0138C208.906 50.0783 208.952 50.1352 209.008 50.1807L212.22 53.395L209.008 56.6154C208.936 56.6876 208.888 56.7793 208.868 56.879C208.849 56.9787 208.859 57.0819 208.898 57.1757C208.937 57.2695 209.003 57.3497 209.087 57.4062C209.172 57.4627 209.271 57.493 209.373 57.4932C209.44 57.4936 209.507 57.4805 209.569 57.4547C209.631 57.4288 209.688 57.3908 209.735 57.3428L212.949 54.1285L216.164 57.3428C216.211 57.3908 216.267 57.4288 216.33 57.4547C216.392 57.4805 216.459 57.4936 216.526 57.4932C216.628 57.493 216.727 57.4627 216.812 57.4062C216.896 57.3497 216.962 57.2695 217.001 57.1757C217.04 57.0819 217.05 56.9787 217.031 56.879C217.011 56.7793 216.963 56.6876 216.891 56.6154L213.679 53.4012Z" fill="white"/>
<path d="M27.165 56.6322C27.1132 56.6318 27.0621 56.6201 27.0152 56.598C26.9684 56.5758 26.927 56.5437 26.8938 56.5038L24.4116 53.5471C24.3022 53.4171 24.2422 53.2526 24.2422 53.0827C24.2422 52.9128 24.3022 52.7483 24.4116 52.6183L26.8938 49.6616C26.9563 49.5919 27.0434 49.5492 27.1367 49.5425C27.23 49.5358 27.3223 49.5657 27.394 49.6258C27.4658 49.6859 27.5113 49.7716 27.521 49.8646C27.5308 49.9577 27.504 50.0509 27.4462 50.1246L24.964 53.0827L27.4419 56.0409C27.4864 56.0933 27.5148 56.1574 27.5239 56.2256C27.533 56.2938 27.5224 56.3631 27.4932 56.4254C27.464 56.4877 27.4176 56.5403 27.3594 56.5769C27.3012 56.6136 27.2337 56.6328 27.165 56.6322Z" fill="white"/>
<path fill-rule="evenodd" clip-rule="evenodd" d="M43.4733 63.3218C45.3069 63.3205 47.099 62.7757 48.623 61.7562C50.1471 60.7367 51.3347 59.2883 52.0358 57.5941C52.7369 55.8998 52.92 54.0358 52.562 52.2375C52.2039 50.4392 51.3208 48.7874 50.0243 47.4908C48.7278 46.1943 47.076 45.3112 45.2777 44.9532C43.4794 44.5951 41.6153 44.7783 39.921 45.4794C38.2268 46.1804 36.7784 47.3681 35.7589 48.8921C34.7394 50.4161 34.1946 52.2082 34.1934 54.0418C34.1985 56.5014 35.1778 58.8589 36.917 60.5981C38.6563 62.3373 41.0137 63.3167 43.4733 63.3218Z" fill="#2C2A46"/>
<path d="M46.0334 48.411C45.1288 48.2306 44.2084 48.1406 43.286 48.1424C41.63 48.1424 40.2472 48.4337 39.3824 48.9641C37.6336 50.042 37.4363 52.3055 37.4749 53.559C37.5146 54.8557 37.8149 56.6612 39.0061 57.8967C39.9616 58.8884 42.1197 59.4234 43.6691 59.4257C43.7847 59.4248 43.8994 59.4467 44.0065 59.4902C44.1137 59.5338 44.2112 59.598 44.2934 59.6793C44.3756 59.7606 44.441 59.8574 44.4858 59.964C44.5306 60.0706 44.5538 60.185 44.5543 60.3007V60.8935C44.5543 60.913 44.5599 60.9322 44.5705 60.9486C44.581 60.9651 44.5961 60.9782 44.6139 60.9863C44.6317 60.9944 44.6515 60.9973 44.6709 60.9945C44.6902 60.9917 44.7084 60.9834 44.7232 60.9705C45.223 60.5353 45.7535 60.0638 46.2771 59.5798C46.4052 59.4665 46.5367 59.3407 46.6681 59.2205C47.296 58.6538 47.9455 58.0565 48.3955 57.4172C48.9214 56.6714 49.2625 55.742 49.4156 54.6551C49.5461 53.6315 49.5078 52.5935 49.3022 51.5823C48.9679 49.906 47.8072 48.7805 46.0334 48.411Z" fill="#00C6D7"/>
<path opacity="0.25" d="M49.4046 54.0668C49.2842 54.9401 48.9319 55.7651 48.3845 56.4561C47.9311 57.0104 47.2851 57.5215 46.6571 58.0168C46.5257 58.1211 46.3942 58.2243 46.2661 58.3274C45.7425 58.7479 45.5555 58.8794 45.0545 59.2568C45.0404 59.2673 45.0238 59.274 45.0064 59.2764C44.989 59.2787 44.9712 59.2766 44.9548 59.2703C44.9384 59.264 44.9239 59.2536 44.9126 59.2401C44.9013 59.2267 44.8936 59.2106 44.8901 59.1933L44.8153 58.7139C44.8153 58.2945 44.1511 58.2039 43.6649 58.2027C42.1155 58.2027 39.9574 57.738 39.002 56.8811C37.8085 55.8078 37.5104 54.2459 37.4707 53.125C37.4707 53.1046 37.4707 53.0842 37.4707 53.0626C37.4707 53.2304 37.4707 53.389 37.4707 53.533C37.5104 54.8296 37.8107 56.6352 39.002 57.8706C39.9574 58.8624 42.1155 59.3974 43.6649 59.3996C43.7805 59.3987 43.8952 59.4207 44.0024 59.4642C44.1095 59.5077 44.207 59.572 44.2892 59.6533C44.3715 59.7346 44.4368 59.8313 44.4816 59.9379C44.5264 60.0446 44.5497 60.159 44.5501 60.2746V60.8674C44.5501 60.887 44.5557 60.9061 44.5663 60.9226C44.5769 60.9391 44.592 60.9521 44.6098 60.9603C44.6276 60.9684 44.6473 60.9712 44.6667 60.9684C44.6861 60.9656 44.7042 60.9573 44.719 60.9445C45.2188 60.5092 45.7493 60.0377 46.2729 59.5538C46.401 59.4404 46.5325 59.3146 46.6639 59.1945C47.2919 58.6278 47.9413 58.0304 48.3913 57.3912C48.9172 56.6454 49.2584 55.716 49.4114 54.629C49.4736 54.1614 49.4986 53.6895 49.4862 53.2179C49.4767 53.5023 49.4494 53.7858 49.4046 54.0668Z" fill="#2D91AF"/>
<path opacity="0.2" d="M43.9505 49.6883C44.7009 49.9445 45.8887 49.9774 46.8045 50.5645C47.1445 50.7776 47.6319 50.8977 47.7657 50.6846C47.8994 50.4715 47.8733 50.1361 47.4132 49.7881C46.8861 49.3914 46.3693 49.0831 44.4787 48.8813C43.6706 48.7929 43.3827 49.4945 43.9505 49.6883Z" fill="white"/>
<path opacity="0.2" d="M47.9662 51.8748C48.1896 51.8748 48.3708 51.6937 48.3708 51.4702C48.3708 51.2467 48.1896 51.0656 47.9662 51.0656C47.7427 51.0656 47.5615 51.2467 47.5615 51.4702C47.5615 51.6937 47.7427 51.8748 47.9662 51.8748Z" fill="white"/>
<path d="M41.0297 53.6594C41.2844 53.6594 41.491 53.4528 41.491 53.198C41.491 52.9433 41.2844 52.7367 41.0297 52.7367C40.7749 52.7367 40.5684 52.9433 40.5684 53.198C40.5684 53.4528 40.7749 53.6594 41.0297 53.6594Z" fill="#167491"/>
<path d="M45.889 53.6594C46.1438 53.6594 46.3503 53.4528 46.3503 53.198C46.3503 52.9433 46.1438 52.7367 45.889 52.7367C45.6343 52.7367 45.4277 52.9433 45.4277 53.198C45.4277 53.4528 45.6343 53.6594 45.889 53.6594Z" fill="#167491"/>
<path d="M43.4845 55.8363C42.7797 55.8363 42.1768 55.5918 41.9849 55.2266C41.9652 55.1887 41.9606 55.1447 41.9719 55.1034C41.9832 55.0622 42.0097 55.0267 42.046 55.0041C42.0658 54.9935 42.0874 54.9868 42.1097 54.9845C42.132 54.9822 42.1546 54.9844 42.176 54.9908C42.1975 54.9973 42.2175 55.008 42.2348 55.0222C42.2521 55.0364 42.2665 55.054 42.277 55.0738C42.3857 55.2827 42.8442 55.5034 43.476 55.5034C44.1077 55.5034 44.5952 55.2742 44.6852 55.0517C44.7023 55.0098 44.7353 54.9764 44.7771 54.9589C44.8188 54.9414 44.8657 54.9412 44.9076 54.9583C44.9495 54.9754 44.9829 55.0085 45.0004 55.0502C45.0179 55.0919 45.0182 55.1389 45.001 55.1808C44.8431 55.5646 44.213 55.8363 43.4845 55.8363Z" fill="#167491"/>
<path d="M52.2788 50.7632C53.7126 50.7632 54.8749 49.6009 54.8749 48.1671C54.8749 46.7333 53.7126 45.571 52.2788 45.571C50.8449 45.571 49.6826 46.7333 49.6826 48.1671C49.6826 49.6009 50.8449 50.7632 52.2788 50.7632Z" fill="#90E6BC"/>
<path fill-rule="evenodd" clip-rule="evenodd" d="M52.2773 45.9056C51.0283 45.9056 50.0157 46.9181 50.0157 48.1672C50.0157 49.4162 51.0283 50.4288 52.2773 50.4288C53.5264 50.4288 54.5389 49.4162 54.5389 48.1672C54.5389 46.9181 53.5264 45.9056 52.2773 45.9056ZM49.3467 48.1672C49.3467 46.5486 50.6588 45.2365 52.2773 45.2365C53.8959 45.2365 55.208 46.5486 55.208 48.1672C55.208 49.7857 53.8959 51.0978 52.2773 51.0978C50.6588 51.0978 49.3467 49.7857 49.3467 48.1672Z" fill="#2CC3D5"/>
<rect x="56.25" y="52.4163" width="49.1434" height="3.59586" rx="1.79793" fill="white"/>
<g opacity="0.2">
<path d="M130.499 20.3363H94.9062C94.039 20.3363 93.3359 21.0394 93.3359 21.9066C93.3359 22.7739 94.039 23.4769 94.9062 23.4769H130.499C131.367 23.4769 132.07 22.7739 132.07 21.9066C132.07 21.0394 131.367 20.3363 130.499 20.3363Z" fill="white"/>
<path d="M147.491 22.5547C147.494 22.9979 147.365 23.432 147.121 23.8019C146.877 24.1717 146.528 24.4605 146.119 24.6315C145.71 24.8026 145.26 24.8481 144.825 24.7624C144.39 24.6767 143.99 24.4636 143.677 24.1502C143.363 23.8368 143.15 23.4372 143.065 23.0023C142.979 22.5675 143.024 22.1169 143.196 21.708C143.367 21.2991 143.655 20.9503 144.025 20.706C144.395 20.4617 144.829 20.3329 145.272 20.336C145.861 20.336 146.425 20.5697 146.841 20.9858C147.257 21.4019 147.491 21.9662 147.491 22.5547Z" fill="white"/>
</g>
<path fill-rule="evenodd" clip-rule="evenodd" d="M74.0078 119C74.0078 117.343 75.351 116 77.0078 116H164.508C166.165 116 167.508 117.343 167.508 119C167.508 120.657 166.165 122 164.508 122H77.0078C75.351 122 74.0078 120.657 74.0078 119Z" fill="#B9CBD3"/>
<path fill-rule="evenodd" clip-rule="evenodd" d="M49.0078 135C49.0078 133.343 50.351 132 52.0078 132H190.008C191.665 132 193.008 133.343 193.008 135C193.008 136.657 191.665 138 190.008 138H52.0078C50.351 138 49.0078 136.657 49.0078 135Z" fill="#B9CBD3"/>
<path d="M123.646 258.659C123.47 257.779 122.59 257.076 121.535 257.252C120.656 257.428 119.952 258.307 120.128 259.362C120.128 259.538 121.887 269.738 118.018 281.873C113.621 295.942 104.301 303.328 100.432 305.966C99.5525 306.493 99.3766 307.548 99.9042 308.428C100.256 308.955 100.783 309.131 101.311 309.131C101.663 309.131 102.015 308.955 102.366 308.779C106.411 305.966 116.435 298.052 121.183 282.928C125.58 269.738 123.821 259.011 123.646 258.659Z" fill="#B3D4FF"/>
<path d="M135.077 256.548C134.198 251.624 130.681 247.579 125.933 246.172C123.998 245.469 121.712 245.469 119.777 245.82C116.26 246.348 113.27 248.282 111.16 251.272C109.05 254.086 108.346 257.603 108.874 261.12C108.874 261.12 109.402 264.462 108.874 269.034C108.874 269.913 109.577 270.793 110.457 270.969C111.512 271.145 112.215 270.265 112.391 269.386C112.743 264.286 112.391 260.769 112.215 260.593C111.864 258.131 112.391 255.493 113.798 253.382C115.381 251.272 117.491 249.865 120.129 249.338C121.712 249.162 123.295 249.162 124.702 249.689C128.219 250.745 130.681 253.734 131.384 257.251C131.56 258.658 133.495 270.617 128.922 285.213C126.108 294.71 121.008 302.976 113.974 309.658C113.27 310.362 113.27 311.417 113.974 312.12C114.326 312.472 114.853 312.648 115.205 312.648C115.557 312.648 116.084 312.472 116.436 312.12C123.822 305.086 129.274 296.293 132.439 286.269C137.364 270.793 135.253 257.955 135.077 256.548Z" fill="#B3D4FF"/>
<path d="M110.457 279.41C110.808 278.355 111.16 277.3 111.336 276.069C111.512 275.19 110.984 274.134 110.105 273.958C109.226 273.783 108.171 274.31 107.995 275.19C107.819 276.245 107.467 277.3 107.115 278.179C104.477 286.269 99.7292 292.952 93.574 296.996L93.3982 297.172C92.343 297.876 90.0568 299.283 90.0568 299.283C89.1775 299.81 89.0016 300.865 89.5292 301.745C89.8809 302.272 90.4085 302.624 91.1119 302.624C91.4637 302.624 91.8154 302.624 91.9913 302.448C92.1671 302.448 94.2775 301.041 95.5085 300.162L95.6844 299.986C102.367 295.59 107.643 288.203 110.457 279.41Z" fill="#B3D4FF"/>
<path d="M145.277 269.562C144.398 269.562 143.518 270.265 143.342 271.144C142.815 277.124 141.76 282.927 140.001 288.555C137.715 296.117 134.198 302.976 129.625 309.131C129.098 309.834 129.273 311.065 129.977 311.593C130.329 311.769 130.68 311.944 131.032 311.944C131.56 311.944 132.087 311.769 132.439 311.241C137.187 304.734 140.88 297.524 143.342 289.786C145.277 283.982 146.332 277.827 146.86 271.496C147.035 270.617 146.332 269.738 145.277 269.562Z" fill="#B3D4FF"/>
<path d="M90.4079 289.259C91.4631 288.38 93.5734 286.621 95.5079 283.807C96.0355 282.928 95.8596 281.873 95.1562 281.345C94.2769 280.817 93.2217 280.993 92.6941 281.697C90.9355 284.159 89.1769 285.566 88.1217 286.445C87.77 286.621 87.5941 286.797 87.4182 286.973C86.3631 287.852 82.8458 290.314 81.4389 291.193C80.9113 291.897 80.5596 293.128 81.2631 293.831C81.6148 294.359 82.1424 294.535 82.67 294.535C83.0217 294.535 83.3734 294.359 83.7251 294.183C84.2527 293.831 88.6493 290.842 90.0562 289.611C90.0562 289.611 90.232 289.435 90.4079 289.259Z" fill="#B3D4FF"/>
<path d="M118.371 237.907C121.712 237.379 125.229 237.555 128.395 238.61C135.957 241.073 141.584 247.404 142.991 255.317C143.167 256.548 143.695 259.714 143.695 264.638C143.695 265.693 144.574 266.397 145.453 266.397C146.508 266.397 147.212 265.517 147.212 264.638C147.212 259.538 146.684 256.021 146.508 254.79C144.926 245.645 138.419 238.259 129.626 235.445C125.933 234.214 121.888 234.038 118.019 234.741C111.512 235.797 105.884 239.49 102.015 244.766C98.3222 250.041 96.7395 256.548 97.7947 262.704C97.7947 263.231 98.3222 268.859 96.3878 275.014C96.2119 275.541 96.036 276.069 95.8602 276.421C95.5084 277.3 96.036 278.355 96.9153 278.707C97.0912 278.707 97.2671 278.883 97.6188 278.883C98.3222 278.883 99.0257 278.531 99.2016 277.828C99.3774 277.3 99.5533 276.773 99.7291 276.245C101.839 269.386 101.312 263.231 101.136 262.528C100.257 257.076 101.488 251.624 104.829 247.052C107.995 241.952 112.919 238.962 118.371 237.907Z" fill="#B3D4FF"/>
<path d="M88.6488 272.376C89.8798 268.331 89.7039 264.638 89.7039 263.407C89.3522 260.593 89.1764 257.779 89.5281 254.966C89.7039 254.086 89.0005 253.207 87.9453 253.031C87.066 252.855 86.1867 253.559 86.0108 254.614C85.6591 257.779 85.6591 260.769 86.1867 263.759C86.1867 264.462 86.3626 267.628 85.3074 271.145C84.2522 274.662 82.6695 275.893 81.6143 276.948C80.5591 277.828 76.866 280.466 75.4591 281.345C74.5798 281.873 74.4039 282.928 74.9315 283.807C75.2833 284.335 75.8108 284.51 76.3384 284.51C76.6902 284.51 77.0419 284.335 77.3936 284.159C77.9212 283.807 82.4936 280.642 83.9005 279.41C85.1315 278.707 87.2419 276.948 88.6488 272.376Z" fill="#B3D4FF"/>
<path d="M132.965 224.366C127.514 222.607 121.71 222.256 115.907 223.135C106.41 224.718 98.1447 229.993 92.5171 237.907C90.2309 241.073 88.6481 244.414 87.4171 247.931C87.0654 248.811 87.593 249.866 88.6481 250.218C88.824 250.218 88.9999 250.218 89.1757 250.218C89.8792 250.218 90.5826 249.69 90.9343 248.987C91.9895 245.821 93.5723 242.656 95.5068 239.842C100.607 232.807 107.993 228.059 116.61 226.476C121.71 225.597 126.986 225.949 131.91 227.531C132.79 227.883 133.845 227.356 134.196 226.3C134.372 225.597 133.845 224.542 132.965 224.366Z" fill="#D2DFE6"/>
<path d="M139.298 227.003C138.419 226.476 137.363 226.827 136.836 227.707C136.308 228.586 136.66 229.641 137.539 230.169C146.332 234.917 152.487 243.359 154.07 253.383C154.598 256.372 156.005 267.276 153.543 281.169C153.367 282.048 154.07 283.103 154.95 283.279C155.125 283.279 155.125 283.279 155.301 283.279C156.181 283.279 156.884 282.752 157.06 281.872C159.698 267.803 158.291 256.9 157.587 252.855C155.829 241.776 149.146 232.279 139.298 227.003Z" fill="#D2DFE6"/>
<path d="M154.422 286.093C153.543 285.917 152.488 286.445 152.312 287.324C151.96 288.907 151.433 290.489 150.905 292.072C149.85 295.413 148.619 298.755 147.036 301.92C146.684 302.8 147.036 303.855 147.915 304.207C148.091 304.382 148.443 304.382 148.619 304.382C149.322 304.382 149.85 304.031 150.202 303.327C151.784 299.986 153.015 296.645 154.071 293.127C154.598 291.545 155.126 289.962 155.478 288.203C156.005 287.324 155.478 286.445 154.422 286.093Z" fill="#D2DFE6"/>
<path d="M165.149 236.5C164.621 235.621 163.566 235.445 162.687 235.797C161.807 236.324 161.632 237.379 161.983 238.259C166.38 245.469 168.49 253.734 168.49 262C168.49 270.441 166.204 278.531 162.159 285.741C161.632 286.621 161.983 287.676 162.863 288.203C163.214 288.379 163.39 288.379 163.742 288.379C164.27 288.379 164.973 288.028 165.325 287.5C169.721 279.762 172.007 270.969 172.007 262C172.007 253.031 169.721 244.238 165.149 236.5Z" fill="#D2DFE6"/>
<path d="M121.008 211C110.632 211 100.608 214.166 92.1662 219.969C91.2868 220.497 91.111 221.552 91.6386 222.431C92.1662 223.31 93.2213 223.486 94.1006 222.959C102.014 217.331 111.335 214.517 121.008 214.517C135.252 214.517 148.794 220.848 157.763 231.928C158.114 232.279 158.642 232.631 159.17 232.631C159.521 232.631 159.873 232.455 160.225 232.279C160.928 231.752 161.104 230.521 160.401 229.817C150.728 217.859 136.308 211 121.008 211Z" fill="#D2DFE6"/>
<path d="M73.5251 262C73.5251 249.162 78.6251 237.028 87.7699 228.059C88.4733 227.355 88.4733 226.3 87.7699 225.597C87.0664 224.893 86.0113 224.893 85.3078 225.597C75.4595 235.269 70.0078 248.107 70.0078 262C70.0078 265.517 70.3595 268.859 71.063 272.2C71.2388 273.079 71.9423 273.607 72.8216 273.607C72.9975 273.607 72.9975 273.607 73.1733 273.607C74.0526 273.431 74.7561 272.552 74.5802 271.497C73.8768 268.331 73.5251 265.166 73.5251 262Z" fill="#D2DFE6"/>
</svg>
