<svg width="242" height="485" viewBox="0 0 242 485" fill="none" xmlns="http://www.w3.org/2000/svg">
<path d="M0.242188 37.7855C0.242188 16.9172 17.1593 0 38.0277 0H203.222C224.091 0 241.008 16.9172 241.008 37.7855V446.556C241.008 467.425 224.091 484.342 203.222 484.342H38.0277C17.1594 484.342 0.242188 467.425 0.242188 446.556V37.7855Z" fill="#1A2437"/>
<path d="M15.2422 34.5542C15.2422 23.1714 24.4697 13.9438 35.8525 13.9438H206.044C217.426 13.9438 226.654 23.1714 226.654 34.5541V448.634C226.654 460.016 217.426 469.244 206.044 469.244H35.8525C24.4697 469.244 15.2422 460.016 15.2422 448.634V34.5542Z" fill="#F5F8F9"/>
<path d="M226.247 449.827C226.247 460.482 217.609 469.12 206.954 469.12L34.0601 469.12C23.405 469.12 14.7673 460.482 14.7673 449.827L14.7673 437.954L226.247 437.954L226.247 449.827Z" fill="white"/>
<path fill-rule="evenodd" clip-rule="evenodd" d="M226.247 438.276H14.7676V437.633H226.247V438.276Z" fill="#D2DFE6"/>
<path fill-rule="evenodd" clip-rule="evenodd" d="M32.9479 447.6C31.7005 447.6 30.481 447.97 29.4438 448.663C28.4065 449.357 27.5981 450.342 27.1207 451.494C26.6434 452.647 26.5185 453.915 26.7618 455.138C27.0052 456.362 27.6059 457.486 28.488 458.368C29.3701 459.25 30.4939 459.85 31.7174 460.094C32.9409 460.337 34.2091 460.212 35.3616 459.735C36.5141 459.258 37.4992 458.449 38.1923 457.412C38.8853 456.375 39.2552 455.155 39.2552 453.908C39.2552 452.235 38.5907 450.631 37.4079 449.448C36.225 448.265 34.6207 447.6 32.9479 447.6ZM32.9479 459.521C32.2153 459.52 31.4901 459.375 30.8137 459.094C30.1372 458.812 29.5229 458.4 29.0059 457.881C28.5967 457.48 28.2535 457.017 27.9888 456.51C27.4188 455.422 27.2205 454.178 27.4243 452.967C27.628 451.756 28.2226 450.645 29.1171 449.804C30.0116 448.963 31.1569 448.438 32.3779 448.31C33.599 448.181 34.8286 448.455 35.8789 449.091C36.9293 449.727 37.7425 450.689 38.1945 451.831C38.6464 452.972 38.7121 454.231 38.3816 455.413C38.0511 456.596 37.3426 457.637 36.3642 458.379C35.3858 459.121 34.1915 459.522 32.9637 459.521H32.9479Z" fill="#00C6D7"/>
<path fill-rule="evenodd" clip-rule="evenodd" d="M30.889 453.182C31.025 453.184 31.1583 453.145 31.2722 453.071C31.386 452.996 31.4751 452.89 31.5283 452.765C31.5814 452.639 31.5961 452.501 31.5705 452.368C31.545 452.234 31.4803 452.111 31.3847 452.014C31.2891 451.918 31.1669 451.852 31.0336 451.824C30.9003 451.797 30.762 451.81 30.6362 451.862C30.5104 451.914 30.4028 452.002 30.3271 452.115C30.2514 452.228 30.2109 452.361 30.2109 452.497C30.2109 452.677 30.2821 452.85 30.409 452.979C30.536 453.107 30.7084 453.18 30.889 453.182Z" fill="#00C6D7"/>
<path fill-rule="evenodd" clip-rule="evenodd" d="M35.1078 453.183C35.2435 453.183 35.3761 453.142 35.4889 453.067C35.6017 452.992 35.6896 452.884 35.7415 452.759C35.7934 452.634 35.807 452.496 35.7805 452.363C35.7541 452.23 35.6887 452.107 35.5928 452.012C35.4969 451.916 35.3747 451.85 35.2416 451.824C35.1086 451.797 34.9706 451.811 34.8453 451.863C34.72 451.915 34.6128 452.003 34.5375 452.115C34.4621 452.228 34.4219 452.361 34.4219 452.497C34.4219 452.587 34.4396 452.676 34.4741 452.759C34.5086 452.842 34.5591 452.918 34.6228 452.982C34.6865 453.045 34.7621 453.096 34.8453 453.13C34.9285 453.165 35.0177 453.183 35.1078 453.183Z" fill="#00C6D7"/>
<path fill-rule="evenodd" clip-rule="evenodd" d="M32.5764 456.691C32.0993 456.636 31.6401 456.477 31.2313 456.225C30.8225 455.973 30.4743 455.634 30.2112 455.232L29.6436 455.603C29.9584 456.087 30.3758 456.496 30.8662 456.802C31.3567 457.107 31.9082 457.3 32.4818 457.369C32.6289 457.377 32.7763 457.377 32.9233 457.369C33.5794 457.369 34.2251 457.205 34.802 456.893C35.3789 456.58 35.8686 456.129 36.2268 455.579L35.6513 455.209C35.3261 455.716 34.8665 456.123 34.3236 456.385C33.7808 456.647 33.1759 456.753 32.5764 456.691Z" fill="#00C6D7"/>
<path d="M15.1299 33.0927C15.1299 22.4375 23.7676 13.7998 34.4228 13.7998H207.25C217.905 13.7998 226.542 22.4375 226.542 33.0927V39.771H15.1299V33.0927Z" fill="#2D91AF"/>
<path d="M61.6133 13.7998H179.342V15.3612C179.342 24.3294 172.072 31.5996 163.103 31.5996H77.8517C68.8835 31.5996 61.6133 24.3294 61.6133 15.3612V13.7998Z" fill="#1A2437"/>
<path d="M226.532 39.8H15.1328V69.4701H226.532V39.8Z" fill="#2CC3D5"/>
<path d="M213.913 53.6217L217.125 50.4012C217.205 50.3019 217.244 50.1769 217.237 50.0501C217.23 49.9233 217.176 49.8037 217.085 49.7142C216.995 49.6248 216.875 49.5718 216.748 49.5655C216.621 49.5592 216.497 49.6 216.398 49.6801L213.184 52.8923L209.97 49.6801C209.924 49.6236 209.868 49.5772 209.804 49.5439C209.739 49.5107 209.669 49.4913 209.597 49.4871C209.525 49.4829 209.452 49.4939 209.385 49.5195C209.317 49.5451 209.256 49.5846 209.204 49.6356C209.153 49.6865 209.113 49.7476 209.087 49.8151C209.06 49.8825 209.049 49.9546 209.052 50.0269C209.056 50.0991 209.075 50.1698 209.107 50.2343C209.14 50.2988 209.186 50.3557 209.242 50.4012L212.454 53.6155L209.242 56.8359C209.171 56.9081 209.122 56.9998 209.103 57.0995C209.083 57.1992 209.093 57.3024 209.132 57.3962C209.171 57.49 209.237 57.5702 209.322 57.6267C209.406 57.6832 209.505 57.7135 209.607 57.7137C209.674 57.7141 209.741 57.701 209.803 57.6752C209.866 57.6493 209.922 57.6113 209.97 57.5633L213.184 54.349L216.398 57.5633C216.445 57.6113 216.502 57.6493 216.564 57.6752C216.626 57.701 216.693 57.7141 216.761 57.7137C216.862 57.7135 216.962 57.6832 217.046 57.6267C217.13 57.5702 217.196 57.49 217.235 57.3962C217.274 57.3024 217.285 57.1992 217.265 57.0995C217.245 56.9998 217.197 56.9081 217.125 56.8359L213.913 53.6217Z" fill="white"/>
<path d="M27.3994 56.8525C27.3475 56.8521 27.2964 56.8404 27.2496 56.8182C27.2028 56.7961 27.1613 56.7639 27.1282 56.7241L24.646 53.7674C24.5366 53.6374 24.4766 53.4729 24.4766 53.303C24.4766 53.133 24.5366 52.9686 24.646 52.8386L27.1282 49.8819C27.1906 49.8121 27.2777 49.7694 27.3711 49.7628C27.4644 49.7561 27.5567 49.786 27.6284 49.8461C27.7001 49.9062 27.7457 49.9918 27.7554 50.0849C27.7652 50.178 27.7383 50.2712 27.6806 50.3448L25.1984 53.303L27.6763 56.2611C27.7207 56.3136 27.7492 56.3777 27.7583 56.4459C27.7674 56.514 27.7567 56.5834 27.7276 56.6457C27.6984 56.7079 27.652 56.7605 27.5938 56.7972C27.5356 56.8339 27.4681 56.853 27.3994 56.8525Z" fill="white"/>
<path fill-rule="evenodd" clip-rule="evenodd" d="M43.7077 63.5423C45.5413 63.541 47.3334 62.9962 48.8574 61.9768C50.3814 60.9573 51.5691 59.5089 52.2702 57.8146C52.9713 56.1204 53.1544 54.2563 52.7963 52.458C52.4383 50.6597 51.5552 49.0079 50.2587 47.7114C48.9621 46.4148 47.3103 45.5317 45.512 45.1737C43.7137 44.8157 41.8497 44.9988 40.1554 45.6999C38.4612 46.401 37.0128 47.5886 35.9933 49.1126C34.9738 50.6367 34.429 52.4288 34.4277 54.2623C34.4328 56.722 35.4122 59.0794 37.1514 60.8186C38.8906 62.5579 41.2481 63.5372 43.7077 63.5423Z" fill="#2C2A46"/>
<path d="M46.2678 48.6315C45.3631 48.4512 44.4428 48.3612 43.5203 48.3629C41.8644 48.3629 40.4816 48.6542 39.6168 49.1846C37.8679 50.2625 37.6707 52.526 37.7093 53.7796C37.7489 55.0762 38.0493 56.8818 39.2405 58.1172C40.196 59.109 42.3541 59.6439 43.9034 59.6462C44.0191 59.6453 44.1338 59.6673 44.2409 59.7108C44.348 59.7543 44.4455 59.8186 44.5278 59.8999C44.61 59.9812 44.6754 60.0779 44.7202 60.1845C44.7649 60.2912 44.7882 60.4056 44.7887 60.5212V61.114C44.7886 61.1336 44.7943 61.1527 44.8048 61.1692C44.8154 61.1856 44.8305 61.1987 44.8483 61.2068C44.8661 61.215 44.8859 61.2178 44.9052 61.215C44.9246 61.2122 44.9428 61.2039 44.9575 61.1911C45.4574 60.7558 45.9878 60.2843 46.5115 59.8004C46.6395 59.687 46.771 59.5612 46.9025 59.4411C47.5304 58.8743 48.1799 58.277 48.6299 57.6378C49.1558 56.892 49.4969 55.9626 49.6499 54.8756C49.7805 53.852 49.7422 52.814 49.5366 51.8029C49.2022 50.1265 48.0416 49.001 46.2678 48.6315Z" fill="#00C6D7"/>
<path opacity="0.25" d="M49.639 54.2874C49.5185 55.1606 49.1663 55.9857 48.6189 56.6766C48.1655 57.2309 47.5194 57.7421 46.8915 58.2374C46.76 58.3417 46.6286 58.4448 46.5005 58.5479C45.9768 58.9684 45.7898 59.0999 45.2889 59.4774C45.2747 59.4878 45.2582 59.4945 45.2408 59.4969C45.2233 59.4993 45.2056 59.4972 45.1892 59.4908C45.1728 59.4845 45.1583 59.4741 45.147 59.4607C45.1357 59.4472 45.1279 59.4311 45.1245 59.4139L45.0497 58.9344C45.0497 58.5151 44.3855 58.4244 43.8993 58.4233C42.3499 58.4233 40.1918 57.9586 39.2363 57.1017C38.0428 56.0283 37.7447 54.4665 37.7051 53.3455C37.7051 53.3251 37.7051 53.3047 37.7051 53.2832C37.7051 53.4509 37.7051 53.6096 37.7051 53.7535C37.7447 55.0502 38.0451 56.8557 39.2363 58.0912C40.1918 59.0829 42.3499 59.6179 43.8993 59.6202C44.0149 59.6193 44.1296 59.6412 44.2367 59.6847C44.3439 59.7283 44.4414 59.7925 44.5236 59.8738C44.6058 59.9551 44.6712 60.0519 44.716 60.1585C44.7608 60.2651 44.784 60.3795 44.7845 60.4952V61.088C44.7845 61.1075 44.7901 61.1267 44.8007 61.1431C44.8112 61.1596 44.8263 61.1727 44.8441 61.1808C44.8619 61.1889 44.8817 61.1918 44.9011 61.189C44.9204 61.1862 44.9386 61.1779 44.9534 61.165C45.4532 60.7298 45.9836 60.2583 46.5073 59.7743C46.6354 59.661 46.7668 59.5352 46.8983 59.415C47.5262 58.8483 48.1757 58.251 48.6257 57.6117C49.1516 56.8659 49.4927 55.9365 49.6458 54.8496C49.7079 54.3819 49.7329 53.91 49.7206 53.4384C49.711 53.7228 49.6838 54.0064 49.639 54.2874Z" fill="#2D91AF"/>
<path opacity="0.2" d="M44.1849 49.9089C44.9352 50.165 46.1231 50.1979 47.0389 50.785C47.3789 50.9981 47.8663 51.1183 48 50.9052C48.1338 50.6921 48.1077 50.3566 47.6475 50.0086C47.1205 49.6119 46.6037 49.3036 44.7131 49.1019C43.905 49.0135 43.6171 49.7151 44.1849 49.9089Z" fill="white"/>
<path opacity="0.2" d="M48.2005 52.0954C48.424 52.0954 48.6052 51.9142 48.6052 51.6907C48.6052 51.4673 48.424 51.2861 48.2005 51.2861C47.9771 51.2861 47.7959 51.4673 47.7959 51.6907C47.7959 51.9142 47.9771 52.0954 48.2005 52.0954Z" fill="white"/>
<path d="M41.264 53.8799C41.5188 53.8799 41.7253 53.6734 41.7253 53.4186C41.7253 53.1638 41.5188 52.9573 41.264 52.9573C41.0093 52.9573 40.8027 53.1638 40.8027 53.4186C40.8027 53.6734 41.0093 53.8799 41.264 53.8799Z" fill="#167491"/>
<path d="M46.1234 53.8799C46.3782 53.8799 46.5847 53.6734 46.5847 53.4186C46.5847 53.1638 46.3782 52.9573 46.1234 52.9573C45.8686 52.9573 45.6621 53.1638 45.6621 53.4186C45.6621 53.6734 45.8686 53.8799 46.1234 53.8799Z" fill="#167491"/>
<path d="M43.7189 56.0568C43.0141 56.0568 42.4112 55.8123 42.2193 55.4472C42.1996 55.4092 42.1949 55.3652 42.2063 55.324C42.2176 55.2827 42.2441 55.2473 42.2804 55.2247C42.3001 55.214 42.3218 55.2073 42.3441 55.205C42.3664 55.2027 42.3889 55.2049 42.4104 55.2114C42.4319 55.2178 42.4519 55.2285 42.4692 55.2427C42.4865 55.257 42.5009 55.2745 42.5114 55.2943C42.6201 55.5032 43.0786 55.724 43.7104 55.724C44.3421 55.724 44.8295 55.4947 44.9195 55.2722C44.9367 55.2304 44.9697 55.197 45.0114 55.1795C45.0531 55.1619 45.1001 55.1617 45.142 55.1788C45.1839 55.196 45.2173 55.229 45.2348 55.2707C45.2523 55.3125 45.2525 55.3594 45.2354 55.4013C45.0775 55.7851 44.4474 56.0568 43.7189 56.0568Z" fill="#167491"/>
<path d="M52.5131 50.9841C53.9469 50.9841 55.1093 49.8217 55.1093 48.3879C55.1093 46.9541 53.9469 45.7918 52.5131 45.7918C51.0793 45.7918 49.917 46.9541 49.917 48.3879C49.917 49.8217 51.0793 50.9841 52.5131 50.9841Z" fill="#90E6BC"/>
<path fill-rule="evenodd" clip-rule="evenodd" d="M52.5117 46.1264C51.2627 46.1264 50.2501 47.1389 50.2501 48.388C50.2501 49.637 51.2627 50.6496 52.5117 50.6496C53.7608 50.6496 54.7733 49.637 54.7733 48.388C54.7733 47.1389 53.7608 46.1264 52.5117 46.1264ZM49.5811 48.388C49.5811 46.7694 50.8932 45.4573 52.5117 45.4573C54.1303 45.4573 55.4424 46.7694 55.4424 48.388C55.4424 50.0065 54.1303 51.3186 52.5117 51.3186C50.8932 51.3186 49.5811 50.0065 49.5811 48.388Z" fill="#2CC3D5"/>
<rect x="56.4844" y="52.6368" width="49.1434" height="3.59586" rx="1.79793" fill="white"/>
<g opacity="0.2">
<path d="M130.734 20.3363H95.1406C94.2734 20.3363 93.5703 21.0394 93.5703 21.9066C93.5703 22.7739 94.2734 23.4769 95.1406 23.4769H130.734C131.601 23.4769 132.304 22.7739 132.304 21.9066C132.304 21.0394 131.601 20.3363 130.734 20.3363Z" fill="white"/>
<path d="M147.725 22.5547C147.729 22.9979 147.6 23.432 147.355 23.8019C147.111 24.1717 146.762 24.4605 146.353 24.6315C145.945 24.8026 145.494 24.8481 145.059 24.7624C144.624 24.6767 144.225 24.4636 143.911 24.1502C143.598 23.8368 143.385 23.4372 143.299 23.0023C143.213 22.5675 143.259 22.1169 143.43 21.708C143.601 21.2991 143.89 20.9503 144.26 20.706C144.629 20.4617 145.064 20.3329 145.507 20.336C146.095 20.336 146.66 20.5697 147.076 20.9858C147.492 21.4019 147.725 21.9662 147.725 22.5547Z" fill="white"/>
</g>
<path fill-rule="evenodd" clip-rule="evenodd" d="M74.2422 119C74.2422 117.343 75.5853 116 77.2422 116H164.742C166.399 116 167.742 117.343 167.742 119C167.742 120.657 166.399 122 164.742 122H77.2422C75.5853 122 74.2422 120.657 74.2422 119Z" fill="#B9CBD3"/>
<path fill-rule="evenodd" clip-rule="evenodd" d="M49.2422 135C49.2422 133.343 50.5853 132 52.2422 132H190.242C191.899 132 193.242 133.343 193.242 135C193.242 136.657 191.899 138 190.242 138H52.2422C50.5853 138 49.2422 136.657 49.2422 135Z" fill="#B9CBD3"/>
<path d="M123.88 258.659C123.704 257.779 122.825 257.076 121.77 257.252C120.89 257.428 120.187 258.307 120.363 259.362C120.363 259.538 122.121 269.738 118.252 281.873C113.856 295.942 104.535 303.328 100.666 305.966C99.7868 306.493 99.611 307.548 100.139 308.428C100.49 308.955 101.018 309.131 101.545 309.131C101.897 309.131 102.249 308.955 102.601 308.779C106.645 305.966 116.67 298.052 121.418 282.928C125.814 269.738 124.056 259.011 123.88 258.659Z" fill="#D2DFE6"/>
<path d="M135.312 256.548C134.432 251.624 130.915 247.579 126.167 246.172C124.232 245.469 121.946 245.469 120.012 245.82C116.495 246.348 113.505 248.282 111.395 251.272C109.284 254.086 108.581 257.603 109.108 261.12C109.108 261.12 109.636 264.462 109.108 269.034C109.108 269.913 109.812 270.793 110.691 270.969C111.746 271.145 112.45 270.265 112.626 269.386C112.977 264.286 112.626 260.769 112.45 260.593C112.098 258.131 112.626 255.493 114.032 253.382C115.615 251.272 117.726 249.865 120.363 249.338C121.946 249.162 123.529 249.162 124.936 249.689C128.453 250.745 130.915 253.734 131.619 257.251C131.795 258.658 133.729 270.617 129.157 285.213C126.343 294.71 121.243 302.976 114.208 309.658C113.505 310.362 113.505 311.417 114.208 312.12C114.56 312.472 115.088 312.648 115.439 312.648C115.791 312.648 116.319 312.472 116.67 312.12C124.057 305.086 129.508 296.293 132.674 286.269C137.598 270.793 135.488 257.955 135.312 256.548Z" fill="#D2DFE6"/>
<path d="M110.691 279.41C111.043 278.355 111.395 277.3 111.57 276.069C111.746 275.19 111.219 274.134 110.339 273.958C109.46 273.783 108.405 274.31 108.229 275.19C108.053 276.245 107.701 277.3 107.35 278.179C104.712 286.269 99.9636 292.952 93.8084 296.996L93.6325 297.172C92.5774 297.876 90.2911 299.283 90.2911 299.283C89.4118 299.81 89.236 300.865 89.7636 301.745C90.1153 302.272 90.6429 302.624 91.3463 302.624C91.698 302.624 92.0498 302.624 92.2256 302.448C92.4015 302.448 94.5118 301.041 95.7429 300.162L95.9187 299.986C102.601 295.59 107.877 288.203 110.691 279.41Z" fill="#D2DFE6"/>
<path d="M145.511 269.562C144.632 269.562 143.753 270.265 143.577 271.144C143.049 277.124 141.994 282.927 140.235 288.555C137.949 296.117 134.432 302.976 129.859 309.131C129.332 309.834 129.508 311.065 130.211 311.593C130.563 311.769 130.915 311.944 131.266 311.944C131.794 311.944 132.322 311.769 132.673 311.241C137.422 304.734 141.115 297.524 143.577 289.786C145.511 283.982 146.566 277.827 147.094 271.496C147.27 270.617 146.566 269.738 145.511 269.562Z" fill="#D2DFE6"/>
<path d="M90.6423 289.259C91.6974 288.38 93.8078 286.621 95.7423 283.807C96.2699 282.928 96.094 281.873 95.3905 281.345C94.5112 280.817 93.4561 280.993 92.9285 281.697C91.1699 284.159 89.4112 285.566 88.3561 286.445C88.0043 286.621 87.8285 286.797 87.6526 286.973C86.5974 287.852 83.0802 290.314 81.6733 291.193C81.1457 291.897 80.794 293.128 81.4974 293.831C81.8492 294.359 82.3768 294.535 82.9043 294.535C83.2561 294.535 83.6078 294.359 83.9595 294.183C84.4871 293.831 88.8837 290.842 90.2906 289.611C90.2906 289.611 90.4664 289.435 90.6423 289.259Z" fill="#D2DFE6"/>
<path d="M118.605 237.907C121.946 237.379 125.464 237.555 128.629 238.61C136.191 241.073 141.819 247.404 143.226 255.317C143.401 256.548 143.929 259.714 143.929 264.638C143.929 265.693 144.808 266.397 145.688 266.397C146.743 266.397 147.446 265.517 147.446 264.638C147.446 259.538 146.919 256.021 146.743 254.79C145.16 245.645 138.653 238.259 129.86 235.445C126.167 234.214 122.122 234.038 118.253 234.741C111.746 235.797 106.119 239.49 102.25 244.766C98.5566 250.041 96.9739 256.548 98.029 262.704C98.029 263.231 98.5566 268.859 96.6221 275.014C96.4463 275.541 96.2704 276.069 96.0945 276.421C95.7428 277.3 96.2704 278.355 97.1497 278.707C97.3256 278.707 97.5014 278.883 97.8532 278.883C98.5566 278.883 99.2601 278.531 99.4359 277.828C99.6118 277.3 99.7876 276.773 99.9635 276.245C102.074 269.386 101.546 263.231 101.37 262.528C100.491 257.076 101.722 251.624 105.064 247.052C108.229 241.952 113.153 238.962 118.605 237.907Z" fill="#D2DFE6"/>
<path d="M88.8831 272.376C90.1142 268.331 89.9383 264.638 89.9383 263.407C89.5866 260.593 89.4107 257.779 89.7625 254.966C89.9383 254.086 89.2349 253.207 88.1797 253.031C87.3004 252.855 86.4211 253.559 86.2452 254.614C85.8935 257.779 85.8935 260.769 86.4211 263.759C86.4211 264.462 86.5969 267.628 85.5418 271.145C84.4866 274.662 82.9038 275.893 81.8487 276.948C80.7935 277.828 77.1004 280.466 75.6935 281.345C74.8142 281.873 74.6383 282.928 75.1659 283.807C75.5176 284.335 76.0452 284.51 76.5728 284.51C76.9245 284.51 77.2763 284.335 77.628 284.159C78.1556 283.807 82.728 280.642 84.1349 279.41C85.3659 278.707 87.4763 276.948 88.8831 272.376Z" fill="#D2DFE6"/>
<path d="M133.2 224.366C127.748 222.607 121.945 222.256 116.141 223.135C106.645 224.718 98.3791 229.993 92.7515 237.907C90.4653 241.073 88.8825 244.414 87.6515 247.931C87.2998 248.811 87.8273 249.866 88.8825 250.218C89.0584 250.218 89.2342 250.218 89.4101 250.218C90.1136 250.218 90.817 249.69 91.1687 248.987C92.2239 245.821 93.8067 242.656 95.7411 239.842C100.841 232.807 108.227 228.059 116.845 226.476C121.945 225.597 127.22 225.949 132.145 227.531C133.024 227.883 134.079 227.356 134.431 226.3C134.607 225.597 134.079 224.542 133.2 224.366Z" fill="#D2DFE6"/>
<path d="M139.532 227.003C138.653 226.476 137.598 226.827 137.07 227.707C136.543 228.586 136.894 229.641 137.774 230.169C146.567 234.917 152.722 243.359 154.305 253.383C154.832 256.372 156.239 267.276 153.777 281.169C153.601 282.048 154.305 283.103 155.184 283.279C155.36 283.279 155.36 283.279 155.536 283.279C156.415 283.279 157.118 282.752 157.294 281.872C159.932 267.803 158.525 256.9 157.822 252.855C156.063 241.776 149.38 232.279 139.532 227.003Z" fill="#D2DFE6"/>
<path d="M154.657 286.093C153.777 285.917 152.722 286.445 152.546 287.324C152.195 288.907 151.667 290.489 151.139 292.072C150.084 295.413 148.853 298.755 147.271 301.92C146.919 302.8 147.271 303.855 148.15 304.207C148.326 304.382 148.677 304.382 148.853 304.382C149.557 304.382 150.084 304.031 150.436 303.327C152.019 299.986 153.25 296.645 154.305 293.127C154.833 291.545 155.36 289.962 155.712 288.203C156.239 287.324 155.712 286.445 154.657 286.093Z" fill="#D2DFE6"/>
<path d="M165.383 236.5C164.856 235.621 163.8 235.445 162.921 235.797C162.042 236.324 161.866 237.379 162.218 238.259C166.614 245.469 168.725 253.734 168.725 262C168.725 270.441 166.438 278.531 162.394 285.741C161.866 286.621 162.218 287.676 163.097 288.203C163.449 288.379 163.625 288.379 163.976 288.379C164.504 288.379 165.207 288.028 165.559 287.5C169.956 279.762 172.242 270.969 172.242 262C172.242 253.031 169.956 244.238 165.383 236.5Z" fill="#D2DFE6"/>
<path d="M121.242 211C110.866 211 100.842 214.166 92.4005 219.969C91.5212 220.497 91.3454 221.552 91.8729 222.431C92.4005 223.31 93.4557 223.486 94.335 222.959C102.249 217.331 111.569 214.517 121.242 214.517C135.487 214.517 149.028 220.848 157.997 231.928C158.349 232.279 158.876 232.631 159.404 232.631C159.756 232.631 160.107 232.455 160.459 232.279C161.163 231.752 161.338 230.521 160.635 229.817C150.963 217.859 136.542 211 121.242 211Z" fill="#D2DFE6"/>
<path d="M73.7594 262C73.7594 249.162 78.8594 237.028 88.0043 228.059C88.7077 227.355 88.7077 226.3 88.0043 225.597C87.3008 224.893 86.2456 224.893 85.5422 225.597C75.6939 235.269 70.2422 248.107 70.2422 262C70.2422 265.517 70.5939 268.859 71.2974 272.2C71.4732 273.079 72.1767 273.607 73.056 273.607C73.2318 273.607 73.2318 273.607 73.4077 273.607C74.287 273.431 74.9905 272.552 74.8146 271.497C74.1112 268.331 73.7594 265.166 73.7594 262Z" fill="#D2DFE6"/>
</svg>
