<svg width="24" height="24" viewBox="0 0 24 24" fill="none" xmlns="http://www.w3.org/2000/svg">
<path fill-rule="evenodd" clip-rule="evenodd" d="M21.9999 11.86C22.0049 11.9066 22.0049 11.9535 21.9999 12C21.9728 12.0509 21.9392 12.0979 21.8999 12.14C21.8878 12.1914 21.8711 12.2417 21.8499 12.29V12.38C21.6899 12.66 17.7399 19.2 11.9999 19.2C6.59552 19.2 2.53294 12.9858 2.1702 12.4309C2.1611 12.417 2.15433 12.4067 2.14993 12.4C2.14543 12.3635 2.14543 12.3266 2.14993 12.29C2.11968 12.2448 2.09924 12.1937 2.08993 12.14C2.0768 12.0472 2.0768 11.9529 2.08993 11.86C2.09924 11.8064 2.11968 11.7553 2.14993 11.71C2.14543 11.6735 2.14543 11.6366 2.14993 11.6C2.15433 11.5934 2.1611 11.5831 2.1702 11.5692C2.53294 11.0143 6.59552 4.80005 11.9999 4.80005C17.1887 4.80005 20.9148 10.1443 21.7746 11.3775C21.866 11.5085 21.925 11.5932 21.9499 11.62V11.71C21.9711 11.7584 21.9878 11.8086 21.9999 11.86ZM3.69993 12C4.63993 13.34 7.99993 17.7 11.9999 17.7C16.1599 17.7 19.4199 13.32 20.3099 12C19.4199 10.68 16.1599 6.30005 11.9999 6.30005C7.99993 6.30005 4.62993 10.66 3.69993 12ZM14.3401 11.2443C14.6315 11.1136 14.8808 10.9044 15.06 10.64C15.1039 10.5689 15.1675 10.5121 15.2432 10.4766C15.3188 10.4411 15.4032 10.4284 15.4859 10.4401C15.5687 10.4517 15.6462 10.4872 15.7091 10.5423C15.772 10.5973 15.8174 10.6695 15.84 10.75C16.015 11.2985 16.0696 11.8784 16 12.45C15.9133 13.1388 15.6488 13.7933 15.2326 14.3489C14.8163 14.9046 14.2626 15.3423 13.6259 15.6191C12.9891 15.8959 12.2913 16.0021 11.6011 15.9275C10.9108 15.8528 10.2519 15.5998 9.68908 15.1932C9.12627 14.7867 8.67896 14.2407 8.39114 13.6089C8.10333 12.9771 7.98492 12.2812 8.04757 11.5898C8.11021 10.8983 8.35175 10.2351 8.74842 9.66528C9.1451 9.09548 9.68326 8.63874 10.31 8.33997C10.8077 8.09142 11.3538 7.95489 11.91 7.93997C11.9916 7.93896 12.0718 7.96118 12.1412 8.00405C12.2107 8.04692 12.2665 8.10867 12.3021 8.18207C12.3378 8.25548 12.3518 8.33752 12.3426 8.4186C12.3333 8.49968 12.3012 8.57647 12.25 8.63998C12.1104 8.82316 12.0099 9.03309 11.9549 9.25672C11.8998 9.48036 11.8913 9.71292 11.93 9.93997C11.9906 10.3066 12.167 10.6441 12.4333 10.9033C12.6996 11.1624 13.0418 11.3294 13.41 11.38C13.7266 11.422 14.0486 11.375 14.3401 11.2443Z" fill="black"/>
</svg>
