<svg width="24" height="24" viewBox="0 0 24 24" fill="none" xmlns="http://www.w3.org/2000/svg">
<path d="M19.45 7.26L15.55 3C15.2716 2.68865 14.9312 2.43887 14.5506 2.26667C14.17 2.09447 13.7577 2.00364 13.34 2H6.77002C5.97437 2 5.21131 2.31607 4.6487 2.87868C4.08609 3.44129 3.77002 4.20435 3.77002 5V19C3.77002 19.7956 4.08609 20.5587 4.6487 21.1213C5.21131 21.6839 5.97437 22 6.77002 22H17.23C18.0257 22 18.7887 21.6839 19.3513 21.1213C19.9139 20.5587 20.23 19.7956 20.23 19V9.28C20.2306 8.53304 19.9524 7.81275 19.45 7.26V7.26ZM17.45 7.26H15C14.7507 7.26 14.5116 7.16096 14.3353 6.98468C14.1591 6.8084 14.06 6.5693 14.06 6.32V3.7C14.1997 3.77375 14.325 3.87197 14.43 3.99L17.45 7.26ZM18.73 19C18.73 19.3978 18.572 19.7794 18.2907 20.0607C18.0094 20.342 17.6278 20.5 17.23 20.5H6.77002C6.37219 20.5 5.99066 20.342 5.70936 20.0607C5.42805 19.7794 5.27002 19.3978 5.27002 19V5C5.27002 4.60218 5.42805 4.22064 5.70936 3.93934C5.99066 3.65804 6.37219 3.5 6.77002 3.5H12.57V6.32C12.5726 6.9646 12.8292 7.58219 13.284 8.03893C13.7389 8.49567 14.3554 8.75474 15 8.76H18.62C18.6839 8.92603 18.7178 9.10211 18.72 9.28L18.73 19Z" fill="black"/>
</svg>
