<svg width="24" height="24" viewBox="0 0 24 24" fill="none" xmlns="http://www.w3.org/2000/svg">
<path fill-rule="evenodd" clip-rule="evenodd" d="M5.43001 2.00001H18.57C19.0208 1.99869 19.4674 2.08651 19.8842 2.25842C20.3009 2.43033 20.6796 2.68293 20.9983 3.00169C21.3171 3.32046 21.5697 3.69911 21.7416 4.11585C21.9135 4.53259 22.0013 4.97921 22 5.43001V18.57C22.0013 19.0208 21.9135 19.4674 21.7416 19.8842C21.5697 20.3009 21.3171 20.6796 20.9983 20.9983C20.6796 21.3171 20.3009 21.5697 19.8842 21.7416C19.4674 21.9135 19.0208 22.0013 18.57 22H5.43001C4.97921 22.0013 4.53259 21.9135 4.11585 21.7416C3.69911 21.5697 3.32046 21.3171 3.00169 20.9983C2.68293 20.6796 2.43033 20.3009 2.25842 19.8842C2.08651 19.4674 1.99869 19.0208 2.00001 18.57V5.43001C1.99869 4.97921 2.08651 4.53259 2.25842 4.11585C2.43033 3.69911 2.68293 3.32046 3.00169 3.00169C3.32046 2.68293 3.69911 2.43033 4.11585 2.25842C4.53259 2.08651 4.97921 1.99869 5.43001 2.00001ZM18.57 3.50001H5.43001C5.17619 3.49869 4.92463 3.54771 4.68987 3.64423C4.45511 3.74075 4.24183 3.88286 4.06234 4.06234C3.88286 4.24183 3.74075 4.45511 3.64423 4.68987C3.54771 4.92463 3.49869 5.17619 3.50001 5.43001V15.66L5.65001 14C6.01838 13.656 6.50618 13.4688 7.01014 13.4781C7.5141 13.4874 7.99464 13.6926 8.35001 14.05L9.82002 15.23L14.31 10.82C14.682 10.4654 15.1761 10.2676 15.69 10.2676C16.2039 10.2676 16.6981 10.4654 17.07 10.82L20.5 14.33V5.43001C20.5013 5.17619 20.4523 4.92463 20.3558 4.68987C20.2593 4.45511 20.1172 4.24183 19.9377 4.06234C19.7582 3.88286 19.5449 3.74075 19.3102 3.64423C19.0754 3.54771 18.8238 3.49869 18.57 3.50001ZM5.43001 20.5H18.57C18.823 20.4974 19.073 20.4448 19.3056 20.3453C19.5382 20.2458 19.7488 20.1012 19.9254 19.92C20.102 19.7388 20.241 19.5245 20.3344 19.2894C20.4279 19.0543 20.474 18.803 20.47 18.55V16.45L16.02 11.88C15.9325 11.7963 15.8161 11.7495 15.695 11.7495C15.5739 11.7495 15.4575 11.7963 15.37 11.88L11 16.18L13.26 18C13.3641 18.0988 13.4376 18.2254 13.4719 18.3647C13.5062 18.504 13.4998 18.6502 13.4535 18.786C13.4071 18.9218 13.3228 19.0415 13.2106 19.1308C13.0983 19.2201 12.9627 19.2754 12.82 19.29C12.6481 19.2913 12.4814 19.231 12.35 19.12L7.35001 15.12C7.30353 15.0731 7.24823 15.036 7.1873 15.0106C7.12637 14.9852 7.06102 14.9721 6.99501 14.9721C6.92901 14.9721 6.86366 14.9852 6.80273 15.0106C6.7418 15.036 6.6865 15.0731 6.64001 15.12L3.50001 17.57V18.57C3.49869 18.8238 3.54771 19.0754 3.64423 19.3102C3.74075 19.5449 3.88286 19.7582 4.06234 19.9377C4.24183 20.1172 4.45511 20.2593 4.68987 20.3558C4.92463 20.4523 5.17619 20.5013 5.43001 20.5ZM8.20017 10.9599C8.18933 10.9491 8.17524 10.9421 8.16004 10.94C7.40525 10.9782 6.66133 10.7479 6.06005 10.29C5.58898 9.73258 5.34293 9.01937 5.37005 8.29004C5.31943 7.88866 5.37605 7.48105 5.53414 7.10866C5.69222 6.73628 5.94614 6.41242 6.27005 6.17004C6.80566 5.90102 7.40125 5.77364 8.00004 5.80004C8.39277 5.79693 8.78479 5.83379 9.17005 5.91004C9.54986 5.97128 9.90155 6.14818 10.1771 6.41662C10.4527 6.68506 10.6388 7.03196 10.71 7.41004C10.9152 8.29384 10.7682 9.22282 10.3 10C10.0367 10.3432 9.7421 10.6612 9.42005 10.95C9.08005 11.25 8.75004 11.54 8.42005 11.82H8.35005C8.31723 11.8201 8.2856 11.8078 8.26148 11.7856C8.23737 11.7633 8.22257 11.7328 8.22005 11.7V11C8.21799 10.9848 8.21101 10.9707 8.20017 10.9599Z" fill="black"/>
</svg>
