<svg width="24" height="24" viewBox="0 0 24 24" fill="none" xmlns="http://www.w3.org/2000/svg">
<path fill-rule="evenodd" clip-rule="evenodd" d="M19.44 5.78002L21.68 9.63002C21.9929 10.1192 22.1073 10.7093 22 11.28L20.38 18.62C20.2683 19.137 19.9833 19.6002 19.5723 19.9331C19.1613 20.2659 18.6489 20.4483 18.12 20.45C17.9588 20.4482 17.7981 20.4315 17.64 20.4L16.52 20.16C16.2666 20.509 15.9343 20.7933 15.5503 20.9896C15.1663 21.186 14.7413 21.2889 14.31 21.29H4.74C4.01331 21.29 3.31638 21.0013 2.80253 20.4875C2.28868 19.9736 2 19.2767 2 18.55V5.74002C2 5.37935 2.0712 5.02224 2.20952 4.68915C2.34785 4.35607 2.55057 4.05357 2.80606 3.799C3.06155 3.54444 3.36479 3.34282 3.69838 3.20571C4.03196 3.0686 4.38934 2.9987 4.75 3.00002H10.75C11.3586 3.00283 11.9493 3.20674 12.43 3.58002H12.5C12.6681 3.57482 12.8362 3.59163 13 3.63002L17.92 4.68002C18.2353 4.74914 18.533 4.88249 18.7945 5.07174C19.0561 5.26099 19.2758 5.5021 19.44 5.78002ZM18.37 8.74002L19.58 9.00002L18.29 6.71002L18 8.09002C17.9684 8.22505 17.9889 8.36706 18.0575 8.48759C18.1261 8.60812 18.2377 8.69829 18.37 8.74002ZM11.67 4.91002C11.4689 4.70006 11.1993 4.56885 10.91 4.54002V6.97002C10.91 7.07508 10.9307 7.1791 10.9709 7.27617C11.0111 7.37323 11.07 7.46142 11.1443 7.5357C11.2186 7.60999 11.3068 7.66892 11.4039 7.70912C11.5009 7.74933 11.6049 7.77002 11.71 7.77002H14.27L11.67 4.91002ZM16.49 7.76002L16.86 6.00002L14.37 5.46002L15.81 7.00002L16.04 7.27002C16.18 7.41002 16.33 7.57002 16.49 7.76002ZM4.74 19.8H14.31V19.79C14.6295 19.7825 14.934 19.6529 15.1609 19.4279C15.3878 19.2028 15.5199 18.8994 15.53 18.58V9.68002C15.5261 9.49915 15.4817 9.32145 15.4 9.16002C15.2847 9.24749 15.1447 9.29647 15 9.30002H11.71C11.1 9.30002 10.515 9.0577 10.0837 8.62636C9.65232 8.19503 9.41 7.61002 9.41 7.00002V4.50002H4.74C4.41194 4.50263 4.09806 4.63411 3.86608 4.8661C3.6341 5.09808 3.50261 5.41196 3.5 5.74002V18.55C3.49999 18.8798 3.63031 19.1963 3.86257 19.4304C4.09484 19.6645 4.41022 19.7974 4.74 19.8ZM18.6349 18.7764C18.7805 18.6581 18.8811 18.4935 18.92 18.31L20.52 11C20.5297 10.9237 20.5297 10.8464 20.52 10.77L18.09 10.25C17.7546 10.1708 17.4427 10.0131 17.18 9.79002V18.65C17.1846 18.6966 17.1846 18.7435 17.18 18.79L17.95 18.96H18.12C18.3076 18.9595 18.4893 18.8947 18.6349 18.7764ZM10.1899 12.9999H11.9999C12.1644 13.0387 12.311 13.1319 12.4159 13.2644C12.5208 13.3969 12.5778 13.5609 12.5778 13.7299C12.5778 13.8989 12.5208 14.0629 12.4159 14.1954C12.311 14.3279 12.1644 14.4211 11.9999 14.4599H10.1899V16.3099C10.1899 16.5088 10.1109 16.6996 9.97021 16.8402C9.82956 16.9809 9.63879 17.0599 9.43988 17.0599C9.24097 17.0599 9.0502 16.9809 8.90955 16.8402C8.7689 16.6996 8.68988 16.5088 8.68988 16.3099V14.4999H6.87988C6.68097 14.4999 6.4902 14.4209 6.34955 14.2802C6.2089 14.1396 6.12988 13.9488 6.12988 13.7499C6.12988 13.551 6.2089 13.3602 6.34955 13.2196C6.4902 13.0789 6.68097 12.9999 6.87988 12.9999H8.68988V11.1499C8.68988 10.951 8.7689 10.7602 8.90955 10.6196C9.0502 10.4789 9.24097 10.3999 9.43988 10.3999C9.63879 10.3999 9.82956 10.4789 9.97021 10.6196C10.1109 10.7602 10.1899 10.951 10.1899 11.1499V12.9999Z" fill="black"/>
</svg>
