<svg width="24" height="24" viewBox="0 0 24 24" fill="none" xmlns="http://www.w3.org/2000/svg">
<path fill-rule="evenodd" clip-rule="evenodd" d="M15.55 3L19.45 7.26C19.9524 7.81275 20.2306 8.53304 20.23 9.28V19C20.23 19.7956 19.9139 20.5587 19.3513 21.1213C18.7887 21.6839 18.0257 22 17.23 22H6.77002C5.97437 22 5.21131 21.6839 4.6487 21.1213C4.08609 20.5587 3.77002 19.7956 3.77002 19V5C3.77002 4.20435 4.08609 3.44129 4.6487 2.87868C5.21131 2.31607 5.97437 2 6.77002 2H13.34C13.7577 2.00364 14.17 2.09447 14.5506 2.26667C14.9312 2.43887 15.2716 2.68865 15.55 3ZM15 7.26H17.45L14.43 3.99C14.325 3.87197 14.1997 3.77375 14.06 3.7V6.32C14.06 6.5693 14.1591 6.8084 14.3353 6.98468C14.5116 7.16096 14.7507 7.26 15 7.26ZM18.2907 20.0607C18.572 19.7794 18.73 19.3978 18.73 19L18.72 9.28C18.7178 9.10211 18.6839 8.92603 18.62 8.76H15C14.3546 8.75736 13.7366 8.49912 13.2811 8.04181C12.8257 7.58451 12.57 6.9654 12.57 6.32V3.5H6.77002C6.37219 3.5 5.99066 3.65804 5.70936 3.93934C5.42805 4.22064 5.27002 4.60218 5.27002 5V19C5.27002 19.3978 5.42805 19.7794 5.70936 20.0607C5.99066 20.342 6.37219 20.5 6.77002 20.5H17.23C17.6278 20.5 18.0094 20.342 18.2907 20.0607ZM7.06982 11.6799H14.6298C14.8287 11.6799 15.0195 11.6009 15.1602 11.4603C15.3008 11.3196 15.3798 11.1288 15.3798 10.9299C15.3798 10.731 15.3008 10.5403 15.1602 10.3996C15.0195 10.2589 14.8287 10.1799 14.6298 10.1799H7.06982C6.87091 10.1799 6.68015 10.2589 6.53949 10.3996C6.39884 10.5403 6.31982 10.731 6.31982 10.9299C6.31982 11.1288 6.39884 11.3196 6.53949 11.4603C6.68015 11.6009 6.87091 11.6799 7.06982 11.6799ZM7.06982 14.8101H16.9298C17.1287 14.8101 17.3195 14.731 17.4602 14.5904C17.6008 14.4497 17.6798 14.259 17.6798 14.0601C17.6798 13.8611 17.6008 13.6704 17.4602 13.5297C17.3195 13.3891 17.1287 13.3101 16.9298 13.3101H7.06982C6.87091 13.3101 6.68015 13.3891 6.53949 13.5297C6.39884 13.6704 6.31982 13.8611 6.31982 14.0601C6.31982 14.259 6.39884 14.4497 6.53949 14.5904C6.68015 14.731 6.87091 14.8101 7.06982 14.8101ZM11.9998 18.26H7.06982C6.87091 18.26 6.68015 18.181 6.53949 18.0403C6.39884 17.8997 6.31982 17.7089 6.31982 17.51C6.31982 17.3111 6.39884 17.1203 6.53949 16.9797C6.68015 16.839 6.87091 16.76 7.06982 16.76H11.9998C12.1987 16.76 12.3895 16.839 12.5302 16.9797C12.6708 17.1203 12.7498 17.3111 12.7498 17.51C12.7498 17.7089 12.6708 17.8997 12.5302 18.0403C12.3895 18.181 12.1987 18.26 11.9998 18.26Z" fill="black"/>
</svg>
