<svg width="1079" height="1094" viewBox="0 0 1079 1094" fill="none" xmlns="http://www.w3.org/2000/svg">
<g opacity="0.06" filter="url(#filter0_f_10272_1624)">
<path d="M458.179 1047.4C458.179 1065.41 385.826 1080 296.575 1080C207.323 1080 134.971 1065.41 134.971 1047.4C134.971 1029.4 207.323 1014.81 296.575 1014.81C385.826 1014.81 458.179 1029.4 458.179 1047.4Z" fill="#0A0F1A"/>
</g>
<g style="mix-blend-mode:luminosity" opacity="0.16">
<path d="M898.49 700.004C898.49 700.004 704.162 958.593 484.625 993.78C265.088 1028.97 164.176 934.365 171.747 833.16C179.317 731.956 212.096 659.338 146.538 580.117C80.9795 500.897 -9.93913 437.058 55.6949 241.186C121.329 45.3129 302.939 -16.281 419.067 3.5241C535.194 23.3292 545.187 133.38 681.451 161.965C817.716 190.55 989.333 137.803 1034.76 280.796C1080.18 423.789 989.333 592.924 898.49 700.004Z" fill="#B9CBD3"/>
</g>
<g opacity="0.06" filter="url(#filter1_f_10272_1624)">
<path d="M871.1 932.392C871.1 948.696 744.827 961.913 589.061 961.913C433.295 961.913 307.021 948.696 307.021 932.392C307.021 916.087 433.295 902.87 589.061 902.87C744.827 902.87 871.1 916.087 871.1 932.392Z" fill="#0A0F1A"/>
</g>
<path d="M371.604 126.857C371.604 89.8118 401.608 59.7803 438.619 59.7803H739.274C776.286 59.7803 806.289 89.8117 806.289 126.857V867.958C806.289 905.003 776.286 935.035 739.274 935.035H438.62C401.608 935.035 371.604 905.003 371.604 867.958V126.857Z" fill="#0A0F1A"/>
<path d="M398.457 121.566C398.457 101.359 414.823 84.9785 435.011 84.9785H743.592C763.78 84.9785 780.145 101.359 780.145 121.566V871.164C780.145 891.37 763.78 907.751 743.592 907.751H435.011C414.823 907.751 398.457 891.37 398.457 871.164V121.566Z" fill="#F5F8F9"/>
<path d="M779.643 873.278C779.643 892.193 764.323 907.527 745.425 907.527L432.048 907.527C413.151 907.527 397.831 892.193 397.831 873.278L397.831 851.208L779.643 851.208L779.643 873.278Z" fill="#F8FBFB"/>
<path fill-rule="evenodd" clip-rule="evenodd" d="M779.642 851.778H397.831V850.637H779.642V851.778Z" fill="#D2DFE6"/>
<path fill-rule="evenodd" clip-rule="evenodd" d="M430.655 868.641C428.403 868.641 426.201 869.309 424.328 870.562C422.456 871.814 420.996 873.594 420.134 875.677C419.273 877.759 419.047 880.051 419.486 882.262C419.926 884.473 421.01 886.504 422.603 888.098C424.195 889.692 426.224 890.778 428.433 891.217C430.642 891.657 432.932 891.432 435.013 890.569C437.093 889.706 438.872 888.245 440.123 886.371C441.374 884.497 442.042 882.293 442.042 880.039C442.042 877.016 440.843 874.117 438.707 871.979C436.571 869.841 433.675 868.641 430.655 868.641ZM430.655 890.183C429.332 890.181 428.023 889.919 426.802 889.41C425.58 888.902 424.471 888.157 423.538 887.219C422.799 886.495 422.179 885.658 421.702 884.74C420.673 882.775 420.315 880.527 420.682 878.339C421.05 876.151 422.124 874.143 423.739 872.623C425.354 871.104 427.421 870.155 429.626 869.922C431.83 869.689 434.05 870.185 435.947 871.334C437.843 872.483 439.311 874.222 440.127 876.285C440.943 878.348 441.062 880.622 440.465 882.759C439.868 884.896 438.589 886.778 436.823 888.119C435.056 889.459 432.9 890.184 430.683 890.183H430.655Z" fill="#2CC3D5"/>
<path fill-rule="evenodd" clip-rule="evenodd" d="M426.937 878.727C427.183 878.729 427.423 878.659 427.629 878.525C427.834 878.39 427.995 878.198 428.091 877.971C428.187 877.745 428.214 877.495 428.168 877.254C428.121 877.013 428.005 876.79 427.832 876.616C427.659 876.441 427.439 876.321 427.198 876.272C426.958 876.223 426.708 876.247 426.481 876.341C426.254 876.434 426.059 876.593 425.923 876.797C425.786 877.001 425.713 877.241 425.713 877.487C425.713 877.813 425.841 878.126 426.071 878.358C426.3 878.59 426.611 878.723 426.937 878.727Z" fill="#2CC3D5"/>
<path fill-rule="evenodd" clip-rule="evenodd" d="M434.555 878.727C434.8 878.727 435.039 878.654 435.243 878.518C435.446 878.382 435.605 878.188 435.699 877.961C435.793 877.735 435.817 877.486 435.769 877.245C435.722 877.005 435.604 876.784 435.43 876.611C435.257 876.437 435.037 876.319 434.796 876.271C434.556 876.224 434.307 876.248 434.081 876.342C433.855 876.436 433.661 876.595 433.525 876.798C433.389 877.002 433.316 877.242 433.316 877.487C433.316 877.65 433.348 877.811 433.411 877.961C433.473 878.112 433.564 878.249 433.679 878.364C433.794 878.479 433.931 878.57 434.081 878.632C434.231 878.695 434.392 878.727 434.555 878.727Z" fill="#2CC3D5"/>
<path fill-rule="evenodd" clip-rule="evenodd" d="M429.985 885.067C429.123 884.968 428.294 884.681 427.556 884.225C426.818 883.77 426.189 883.157 425.714 882.431L424.689 883.101C425.258 883.976 426.011 884.715 426.897 885.267C427.782 885.818 428.778 886.168 429.814 886.292C430.079 886.306 430.345 886.306 430.611 886.292C431.795 886.292 432.961 885.996 434.003 885.432C435.044 884.867 435.928 884.051 436.575 883.058L435.536 882.388C434.949 883.305 434.119 884.041 433.139 884.514C432.159 884.987 431.067 885.178 429.985 885.067Z" fill="#2CC3D5"/>
<path d="M453.949 883.4V873.745H460.038V874.69H455.044V878.032H459.751V878.977H455.044V882.455H460.038V883.4H453.949Z" fill="#738192"/>
<path d="M461.776 883.4V876.744H462.857V877.881C463.076 877.461 463.386 877.146 463.787 876.936C464.189 876.726 464.64 876.621 465.142 876.621C466.72 876.621 467.509 877.498 467.509 879.251V883.4H466.401V879.319C466.401 878.698 466.277 878.246 466.031 877.963C465.794 877.671 465.411 877.525 464.882 877.525C464.271 877.525 463.783 877.717 463.418 878.1C463.062 878.475 462.884 878.977 462.884 879.607V883.4H461.776Z" fill="#738192"/>
<path d="M472.221 883.524C471.436 883.524 470.848 883.318 470.456 882.907C470.063 882.487 469.867 881.885 469.867 881.1V877.607H468.567V876.744H469.867V874.704H470.976V876.744H473.083V877.607H470.976V880.99C470.976 881.51 471.085 881.908 471.304 882.181C471.523 882.446 471.879 882.579 472.371 882.579C472.517 882.579 472.663 882.56 472.809 882.524C472.955 882.487 473.087 882.451 473.206 882.414L473.397 883.263C473.279 883.327 473.105 883.387 472.877 883.441C472.649 883.496 472.43 883.524 472.221 883.524Z" fill="#738192"/>
<path d="M477.266 883.524C476.217 883.524 475.387 883.218 474.776 882.606C474.164 881.985 473.859 881.145 473.859 880.086C473.859 879.401 473.996 878.799 474.269 878.278C474.543 877.749 474.917 877.342 475.391 877.059C475.875 876.767 476.431 876.621 477.061 876.621C477.964 876.621 478.671 876.913 479.181 877.498C479.692 878.073 479.948 878.867 479.948 879.881V880.305H474.94C474.976 881.063 475.195 881.643 475.597 882.045C475.998 882.437 476.554 882.633 477.266 882.633C477.667 882.633 478.05 882.574 478.415 882.455C478.78 882.328 479.127 882.122 479.455 881.839L479.838 882.62C479.537 882.903 479.154 883.126 478.689 883.291C478.224 883.446 477.749 883.524 477.266 883.524ZM477.088 877.443C476.459 877.443 475.961 877.639 475.597 878.032C475.232 878.424 475.017 878.94 474.953 879.579H478.99C478.963 878.904 478.785 878.379 478.456 878.004C478.137 877.63 477.681 877.443 477.088 877.443Z" fill="#738192"/>
<path d="M481.552 883.4V876.744H482.633V877.936C482.988 877.132 483.718 876.69 484.822 876.607L485.219 876.566L485.301 877.525L484.603 877.607C483.973 877.662 483.495 877.863 483.166 878.21C482.838 878.548 482.674 879.013 482.674 879.607V883.4H481.552Z" fill="#738192"/>
<path d="M490.736 885.866L491.872 883.291L489.067 876.744H490.271L492.474 882.14L494.69 876.744H495.853L491.899 885.866H490.736Z" fill="#738192"/>
<path d="M499.669 883.524C499.021 883.524 498.46 883.382 497.986 883.099C497.511 882.816 497.142 882.419 496.877 881.908C496.622 881.387 496.494 880.775 496.494 880.072C496.494 879.369 496.622 878.762 496.877 878.251C497.142 877.73 497.511 877.329 497.986 877.046C498.46 876.763 499.021 876.621 499.669 876.621C500.307 876.621 500.864 876.763 501.338 877.046C501.821 877.329 502.191 877.73 502.446 878.251C502.711 878.762 502.843 879.369 502.843 880.072C502.843 880.775 502.711 881.387 502.446 881.908C502.191 882.419 501.821 882.816 501.338 883.099C500.864 883.382 500.307 883.524 499.669 883.524ZM499.669 882.633C500.289 882.633 500.786 882.414 501.16 881.976C501.534 881.529 501.721 880.894 501.721 880.072C501.721 879.242 501.534 878.607 501.16 878.169C500.786 877.73 500.289 877.511 499.669 877.511C499.039 877.511 498.537 877.73 498.163 878.169C497.799 878.607 497.616 879.242 497.616 880.072C497.616 880.894 497.799 881.529 498.163 881.976C498.537 882.414 499.039 882.633 499.669 882.633Z" fill="#738192"/>
<path d="M506.861 883.524C505.265 883.524 504.467 882.643 504.467 880.88V876.744H505.575V880.867C505.575 881.46 505.693 881.898 505.931 882.181C506.177 882.464 506.56 882.606 507.08 882.606C507.646 882.606 508.106 882.419 508.462 882.045C508.818 881.661 508.996 881.154 508.996 880.524V876.744H510.104V883.4H509.023V882.277C508.813 882.679 508.517 882.989 508.134 883.209C507.76 883.419 507.335 883.524 506.861 883.524Z" fill="#738192"/>
<path d="M512.177 883.4V876.744H513.258V877.936C513.614 877.132 514.344 876.69 515.448 876.607L515.844 876.566L515.927 877.525L515.229 877.607C514.599 877.662 514.12 877.863 513.792 878.21C513.464 878.548 513.299 879.013 513.299 879.607V883.4H512.177Z" fill="#738192"/>
<path d="M520.623 883.4V876.744H521.704V877.867C521.905 877.466 522.183 877.16 522.538 876.95C522.894 876.731 523.309 876.621 523.784 876.621C524.823 876.621 525.489 877.073 525.781 877.977C525.982 877.557 526.278 877.228 526.671 876.991C527.063 876.744 527.514 876.621 528.025 876.621C529.503 876.621 530.242 877.498 530.242 879.251V883.4H529.134V879.305C529.134 878.694 529.024 878.246 528.805 877.963C528.595 877.671 528.244 877.525 527.752 877.525C527.213 877.525 526.785 877.717 526.465 878.1C526.146 878.484 525.987 878.995 525.987 879.634V883.4H524.878V879.305C524.878 878.694 524.769 878.246 524.55 877.963C524.34 877.671 523.989 877.525 523.496 877.525C522.949 877.525 522.516 877.717 522.196 878.1C521.886 878.484 521.731 878.995 521.731 879.634V883.4H520.623Z" fill="#738192"/>
<path d="M535.311 883.524C534.262 883.524 533.431 883.218 532.82 882.606C532.209 881.985 531.904 881.145 531.904 880.086C531.904 879.401 532.04 878.799 532.314 878.278C532.588 877.749 532.962 877.342 533.436 877.059C533.919 876.767 534.476 876.621 535.105 876.621C536.008 876.621 536.715 876.913 537.226 877.498C537.737 878.073 537.992 878.867 537.992 879.881V880.305H532.984C533.021 881.063 533.24 881.643 533.641 882.045C534.043 882.437 534.599 882.633 535.311 882.633C535.712 882.633 536.095 882.574 536.46 882.455C536.825 882.328 537.171 882.122 537.5 881.839L537.883 882.62C537.582 882.903 537.199 883.126 536.734 883.291C536.268 883.446 535.794 883.524 535.311 883.524ZM535.133 877.443C534.503 877.443 534.006 877.639 533.641 878.032C533.276 878.424 533.062 878.94 532.998 879.579H537.035C537.007 878.904 536.829 878.379 536.501 878.004C536.182 877.63 535.726 877.443 535.133 877.443Z" fill="#738192"/>
<path d="M541.84 883.524C541.32 883.524 540.828 883.451 540.363 883.304C539.897 883.158 539.514 882.953 539.213 882.688L539.569 881.908C539.897 882.172 540.258 882.369 540.65 882.496C541.051 882.615 541.457 882.674 541.868 882.674C542.388 882.674 542.78 882.579 543.044 882.387C543.309 882.195 543.441 881.935 543.441 881.606C543.441 881.351 543.355 881.15 543.181 881.004C543.008 880.848 542.734 880.73 542.36 880.648L541.115 880.374C539.984 880.127 539.418 879.543 539.418 878.621C539.418 878.018 539.656 877.534 540.13 877.169C540.613 876.804 541.243 876.621 542.018 876.621C542.474 876.621 542.908 876.694 543.318 876.84C543.738 876.977 544.084 877.183 544.358 877.457L543.989 878.237C543.724 877.991 543.414 877.804 543.058 877.676C542.711 877.539 542.365 877.47 542.018 877.47C541.507 877.47 541.12 877.571 540.855 877.772C540.591 877.972 540.458 878.237 540.458 878.566C540.458 879.077 540.796 879.406 541.471 879.552L542.716 879.812C543.3 879.94 543.742 880.145 544.043 880.428C544.344 880.702 544.495 881.077 544.495 881.551C544.495 882.163 544.253 882.647 543.77 883.003C543.286 883.35 542.643 883.524 541.84 883.524Z" fill="#738192"/>
<path d="M548.428 883.524C547.908 883.524 547.415 883.451 546.95 883.304C546.485 883.158 546.102 882.953 545.801 882.688L546.156 881.908C546.485 882.172 546.845 882.369 547.237 882.496C547.639 882.615 548.045 882.674 548.455 882.674C548.975 882.674 549.367 882.579 549.632 882.387C549.896 882.195 550.029 881.935 550.029 881.606C550.029 881.351 549.942 881.15 549.769 881.004C549.595 880.848 549.322 880.73 548.948 880.648L547.703 880.374C546.571 880.127 546.006 879.543 546.006 878.621C546.006 878.018 546.243 877.534 546.717 877.169C547.201 876.804 547.83 876.621 548.606 876.621C549.062 876.621 549.495 876.694 549.906 876.84C550.325 876.977 550.672 877.183 550.945 877.457L550.576 878.237C550.311 877.991 550.001 877.804 549.646 877.676C549.299 877.539 548.952 877.47 548.606 877.47C548.095 877.47 547.707 877.571 547.443 877.772C547.178 877.972 547.046 878.237 547.046 878.566C547.046 879.077 547.383 879.406 548.058 879.552L549.303 879.812C549.887 879.94 550.33 880.145 550.631 880.428C550.932 880.702 551.082 881.077 551.082 881.551C551.082 882.163 550.841 882.647 550.357 883.003C549.874 883.35 549.231 883.524 548.428 883.524Z" fill="#738192"/>
<path d="M554.865 883.524C554.409 883.524 553.998 883.437 553.633 883.263C553.278 883.081 552.995 882.834 552.785 882.524C552.575 882.213 552.47 881.866 552.47 881.483C552.47 880.999 552.593 880.616 552.84 880.333C553.095 880.05 553.51 879.849 554.085 879.73C554.669 879.602 555.462 879.538 556.466 879.538H556.903V879.114C556.903 878.548 556.785 878.141 556.548 877.895C556.32 877.639 555.95 877.511 555.439 877.511C555.038 877.511 554.65 877.571 554.276 877.689C553.902 877.799 553.519 877.982 553.127 878.237L552.744 877.429C553.091 877.183 553.51 876.986 554.003 876.84C554.504 876.694 554.983 876.621 555.439 876.621C556.297 876.621 556.931 876.831 557.341 877.251C557.761 877.671 557.971 878.324 557.971 879.21V883.4H556.931V882.25C556.758 882.643 556.488 882.953 556.124 883.181C555.768 883.409 555.348 883.524 554.865 883.524ZM555.043 882.688C555.59 882.688 556.037 882.501 556.384 882.127C556.73 881.743 556.903 881.259 556.903 880.675V880.264H556.479C555.74 880.264 555.157 880.301 554.728 880.374C554.308 880.438 554.012 880.556 553.839 880.73C553.674 880.894 553.592 881.122 553.592 881.415C553.592 881.789 553.72 882.095 553.975 882.332C554.24 882.569 554.596 882.688 555.043 882.688Z" fill="#738192"/>
<path d="M562.969 885.989C562.394 885.989 561.851 885.911 561.34 885.756C560.839 885.61 560.392 885.386 560 885.085L560.369 884.277C560.779 884.569 561.185 884.779 561.587 884.907C561.997 885.035 562.44 885.099 562.914 885.099C564.227 885.099 564.884 884.423 564.884 883.072V881.894C564.693 882.314 564.392 882.647 563.981 882.894C563.58 883.131 563.119 883.25 562.599 883.25C561.988 883.25 561.459 883.108 561.012 882.825C560.565 882.542 560.218 882.154 559.972 881.661C559.735 881.159 559.616 880.579 559.616 879.922C559.616 879.264 559.735 878.689 559.972 878.196C560.218 877.694 560.565 877.306 561.012 877.032C561.459 876.758 561.988 876.621 562.599 876.621C563.119 876.621 563.58 876.74 563.981 876.977C564.392 877.215 564.693 877.539 564.884 877.95V876.744H565.965V882.921C565.965 883.944 565.71 884.711 565.199 885.222C564.697 885.733 563.954 885.989 562.969 885.989ZM562.804 882.346C563.443 882.346 563.949 882.127 564.323 881.688C564.697 881.25 564.884 880.661 564.884 879.922C564.884 879.182 564.697 878.598 564.323 878.169C563.949 877.73 563.443 877.511 562.804 877.511C562.175 877.511 561.673 877.73 561.299 878.169C560.925 878.598 560.738 879.182 560.738 879.922C560.738 880.661 560.925 881.25 561.299 881.688C561.673 882.127 562.175 882.346 562.804 882.346Z" fill="#738192"/>
<path d="M571.041 883.524C569.992 883.524 569.162 883.218 568.55 882.606C567.939 881.985 567.634 881.145 567.634 880.086C567.634 879.401 567.77 878.799 568.044 878.278C568.318 877.749 568.692 877.342 569.166 877.059C569.65 876.767 570.206 876.621 570.835 876.621C571.738 876.621 572.445 876.913 572.956 877.498C573.467 878.073 573.722 878.867 573.722 879.881V880.305H568.715C568.751 881.063 568.97 881.643 569.371 882.045C569.773 882.437 570.329 882.633 571.041 882.633C571.442 882.633 571.825 882.574 572.19 882.455C572.555 882.328 572.901 882.122 573.23 881.839L573.613 882.62C573.312 882.903 572.929 883.126 572.464 883.291C571.998 883.446 571.524 883.524 571.041 883.524ZM570.863 877.443C570.233 877.443 569.736 877.639 569.371 878.032C569.006 878.424 568.792 878.94 568.728 879.579H572.765C572.737 878.904 572.559 878.379 572.231 878.004C571.912 877.63 571.456 877.443 570.863 877.443Z" fill="#738192"/>
<path d="M578.841 883.4V873.745H579.949V877.84C580.168 877.438 580.473 877.137 580.866 876.936C581.267 876.726 581.714 876.621 582.207 876.621C583.785 876.621 584.574 877.498 584.574 879.251V883.4H583.465V879.319C583.465 878.698 583.342 878.246 583.096 877.963C582.859 877.671 582.476 877.525 581.947 877.525C581.335 877.525 580.847 877.717 580.483 878.1C580.127 878.475 579.949 878.977 579.949 879.607V883.4H578.841Z" fill="#738192"/>
<path d="M589.614 883.524C588.565 883.524 587.735 883.218 587.124 882.606C586.512 881.985 586.207 881.145 586.207 880.086C586.207 879.401 586.344 878.799 586.617 878.278C586.891 877.749 587.265 877.342 587.739 877.059C588.223 876.767 588.779 876.621 589.409 876.621C590.312 876.621 591.019 876.913 591.529 877.498C592.04 878.073 592.296 878.867 592.296 879.881V880.305H587.288C587.324 881.063 587.543 881.643 587.945 882.045C588.346 882.437 588.902 882.633 589.614 882.633C590.015 882.633 590.398 882.574 590.763 882.455C591.128 882.328 591.475 882.122 591.803 881.839L592.186 882.62C591.885 882.903 591.502 883.126 591.037 883.291C590.572 883.446 590.097 883.524 589.614 883.524ZM589.436 877.443C588.807 877.443 588.309 877.639 587.945 878.032C587.58 878.424 587.365 878.94 587.301 879.579H591.338C591.311 878.904 591.133 878.379 590.804 878.004C590.485 877.63 590.029 877.443 589.436 877.443Z" fill="#738192"/>
<path d="M593.9 883.4V876.744H594.981V877.936C595.336 877.132 596.066 876.69 597.17 876.607L597.567 876.566L597.649 877.525L596.951 877.607C596.321 877.662 595.843 877.863 595.514 878.21C595.186 878.548 595.022 879.013 595.022 879.607V883.4H593.9Z" fill="#738192"/>
<path d="M601.72 883.524C600.671 883.524 599.841 883.218 599.23 882.606C598.618 881.985 598.313 881.145 598.313 880.086C598.313 879.401 598.45 878.799 598.723 878.278C598.997 877.749 599.371 877.342 599.845 877.059C600.329 876.767 600.885 876.621 601.515 876.621C602.418 876.621 603.125 876.913 603.635 877.498C604.146 878.073 604.402 878.867 604.402 879.881V880.305H599.394C599.43 881.063 599.649 881.643 600.051 882.045C600.452 882.437 601.008 882.633 601.72 882.633C602.121 882.633 602.504 882.574 602.869 882.455C603.234 882.328 603.581 882.122 603.909 881.839L604.292 882.62C603.991 882.903 603.608 883.126 603.143 883.291C602.678 883.446 602.203 883.524 601.72 883.524ZM601.542 877.443C600.913 877.443 600.415 877.639 600.051 878.032C599.686 878.424 599.471 878.94 599.407 879.579H603.444C603.417 878.904 603.239 878.379 602.91 878.004C602.591 877.63 602.135 877.443 601.542 877.443Z" fill="#738192"/>
<path d="M398.486 118.967C398.486 100.052 413.806 84.7183 432.703 84.7183H745.959C764.857 84.7183 780.176 100.052 780.176 118.967V131.651H398.486V118.967Z" fill="#2498A8"/>
<path d="M780.298 131.208H398.486V184.845H780.298V131.208Z" fill="#2CC3D5"/>
<path d="M757.5 157.805L763.302 151.983C763.445 151.804 763.516 151.578 763.503 151.348C763.49 151.119 763.392 150.903 763.229 150.741C763.066 150.58 762.85 150.484 762.62 150.472C762.391 150.461 762.166 150.535 761.988 150.68L756.183 156.487L750.377 150.68C750.296 150.577 750.194 150.493 750.078 150.433C749.962 150.373 749.835 150.338 749.704 150.331C749.574 150.323 749.443 150.343 749.321 150.389C749.199 150.436 749.088 150.507 748.995 150.599C748.902 150.691 748.83 150.802 748.783 150.924C748.735 151.045 748.714 151.176 748.721 151.306C748.727 151.437 748.761 151.565 748.82 151.681C748.879 151.798 748.962 151.901 749.064 151.983L754.865 157.794L749.064 163.616C748.935 163.746 748.847 163.912 748.811 164.092C748.776 164.272 748.795 164.459 748.865 164.629C748.936 164.798 749.055 164.943 749.207 165.045C749.36 165.147 749.539 165.202 749.722 165.203C749.844 165.203 749.965 165.18 750.077 165.133C750.19 165.086 750.292 165.017 750.377 164.931L756.183 159.12L761.988 164.931C762.073 165.017 762.175 165.086 762.288 165.133C762.4 165.18 762.521 165.203 762.643 165.203C762.826 165.202 763.006 165.147 763.158 165.045C763.311 164.943 763.43 164.798 763.5 164.629C763.57 164.459 763.589 164.272 763.554 164.092C763.519 163.912 763.431 163.746 763.302 163.616L757.5 157.805Z" fill="black"/>
<path d="M420.633 164.779C420.54 164.778 420.448 164.757 420.363 164.717C420.278 164.677 420.204 164.619 420.144 164.547L415.661 159.202C415.463 158.967 415.354 158.669 415.354 158.362C415.354 158.055 415.463 157.758 415.661 157.522L420.144 152.177C420.256 152.051 420.414 151.974 420.582 151.962C420.751 151.95 420.918 152.004 421.047 152.113C421.177 152.221 421.259 152.376 421.276 152.544C421.294 152.713 421.246 152.881 421.141 153.014L416.658 158.362L421.134 163.71C421.214 163.805 421.265 163.921 421.282 164.044C421.298 164.167 421.279 164.292 421.226 164.405C421.173 164.517 421.09 164.613 420.985 164.679C420.879 164.745 420.758 164.78 420.633 164.779Z" fill="black"/>
<path d="M482.407 84.7183H694.957V88.0578C694.957 103.978 682.063 116.884 666.158 116.884H511.207C495.301 116.884 482.407 103.978 482.407 88.0578V84.7183Z" fill="#1A2437"/>
<path opacity="0.7" fill-rule="evenodd" clip-rule="evenodd" d="M723.826 105.282C721.334 105.282 718.941 106.256 717.155 107.996L715.126 105.99C717.445 103.713 720.565 102.437 723.814 102.437C727.063 102.437 730.182 103.713 732.501 105.99L730.498 107.996C728.712 106.256 726.318 105.282 723.826 105.282ZM710.64 102.437H707.647V113.405H710.64V102.437ZM703.36 104.62H706.353V113.405H703.36V104.62ZM702.066 106.523H699.073V113.404H702.066V106.523ZM697.753 108.504H694.76V113.404H697.753V108.504ZM719.846 110.713C720.912 109.674 722.341 109.093 723.828 109.093C725.316 109.093 726.745 109.674 727.811 110.713L729.815 108.682C728.213 107.119 726.065 106.244 723.828 106.244C721.592 106.244 719.443 107.119 717.842 108.682L719.846 110.713ZM723.828 112.897C723.349 112.902 722.889 113.083 722.534 113.405L720.505 111.374C721.405 110.528 722.593 110.056 723.828 110.053C725.055 110.057 726.234 110.53 727.126 111.374L725.096 113.405C724.751 113.084 724.299 112.903 723.828 112.897ZM755.231 103.756H737.272C736.964 103.756 736.714 104.006 736.714 104.315V111.5C736.714 111.808 736.964 112.058 737.272 112.058H755.231C755.54 112.058 755.789 111.808 755.789 111.5V104.315C755.789 104.006 755.54 103.756 755.231 103.756ZM756.778 106.119H757.184C757.493 106.119 757.742 106.369 757.742 106.677V109.14C757.742 109.448 757.493 109.699 757.184 109.699H756.778C756.47 109.699 756.22 109.448 756.22 109.14V106.677C756.22 106.369 756.47 106.119 756.778 106.119ZM420.122 108.68C420.129 108.296 420.254 107.924 420.482 107.615C420.709 107.306 421.026 107.075 421.39 106.954C421.095 106.84 420.839 106.643 420.654 106.386C420.47 106.129 420.364 105.823 420.35 105.507C420.363 105.26 420.425 105.019 420.534 104.798C420.643 104.577 420.796 104.381 420.984 104.222C421.172 104.062 421.39 103.943 421.626 103.872C421.862 103.8 422.11 103.777 422.354 103.806C422.583 103.773 422.816 103.79 423.038 103.853C423.259 103.917 423.466 104.026 423.642 104.175C423.819 104.323 423.963 104.507 424.065 104.715C424.166 104.922 424.223 105.149 424.231 105.38C424.226 105.708 424.121 106.027 423.931 106.294C423.741 106.561 423.474 106.765 423.166 106.878C423.533 106.972 423.858 107.185 424.092 107.484C424.326 107.782 424.455 108.149 424.46 108.528C424.447 108.797 424.38 109.061 424.262 109.304C424.144 109.546 423.978 109.762 423.774 109.938C423.569 110.114 423.331 110.246 423.074 110.327C422.817 110.408 422.546 110.435 422.278 110.407C420.934 110.432 420.122 109.62 420.122 108.68ZM423.572 108.68C423.572 107.893 423.039 107.512 422.177 107.258C421.856 107.312 421.564 107.475 421.351 107.721C421.138 107.966 421.017 108.279 421.01 108.604C421.006 108.772 421.037 108.939 421.101 109.093C421.166 109.248 421.263 109.388 421.385 109.503C421.507 109.618 421.652 109.706 421.81 109.761C421.968 109.816 422.136 109.837 422.304 109.823C422.463 109.837 422.624 109.818 422.775 109.767C422.927 109.716 423.067 109.635 423.186 109.527C423.305 109.42 423.4 109.29 423.467 109.144C423.533 108.998 423.569 108.84 423.572 108.68ZM421.187 105.456C421.187 106.091 421.669 106.446 422.405 106.649C422.673 106.585 422.913 106.437 423.091 106.227C423.268 106.017 423.375 105.756 423.394 105.481C423.402 105.337 423.379 105.193 423.326 105.058C423.274 104.924 423.193 104.802 423.09 104.701C422.987 104.6 422.863 104.522 422.728 104.473C422.592 104.424 422.447 104.404 422.304 104.415C422.162 104.401 422.019 104.416 421.884 104.461C421.749 104.506 421.625 104.578 421.52 104.674C421.414 104.77 421.33 104.887 421.273 105.017C421.216 105.147 421.187 105.288 421.187 105.43V105.456ZM427.523 105.903C427.413 106.013 427.352 106.161 427.352 106.316C427.352 106.471 427.413 106.62 427.523 106.729C427.632 106.839 427.781 106.9 427.935 106.9C428.09 106.9 428.238 106.839 428.348 106.729C428.457 106.62 428.519 106.471 428.519 106.316C428.519 106.161 428.457 106.013 428.348 105.903C428.238 105.794 428.09 105.732 427.935 105.732C427.781 105.732 427.632 105.794 427.523 105.903ZM427.523 109.407C427.413 109.517 427.352 109.665 427.352 109.82C427.352 109.975 427.413 110.123 427.523 110.233C427.632 110.342 427.781 110.404 427.935 110.404C428.09 110.404 428.238 110.342 428.348 110.233C428.457 110.123 428.519 109.975 428.519 109.82C428.519 109.665 428.457 109.517 428.348 109.407C428.238 109.298 428.09 109.236 427.935 109.236C427.781 109.236 427.632 109.298 427.523 109.407ZM431.51 109.313C431.947 109.577 432.446 109.717 432.956 109.719C434.072 109.719 434.402 109.008 434.402 108.475C434.402 107.942 433.59 107.18 432.728 107.18H432.246V106.52H432.728C433.362 106.52 434.174 106.215 434.174 105.454C434.174 104.692 433.844 104.464 433.032 104.464C432.576 104.477 432.134 104.628 431.764 104.895L431.536 104.26C432.034 103.937 432.616 103.769 433.21 103.778C434.478 103.778 435.061 104.514 435.061 105.301C435.048 105.649 434.926 105.983 434.712 106.256C434.498 106.53 434.203 106.729 433.869 106.825C434.268 106.88 434.634 107.077 434.9 107.38C435.165 107.683 435.313 108.072 435.315 108.475C435.315 109.491 434.503 110.405 432.956 110.405C432.369 110.415 431.791 110.266 431.282 109.973L431.51 109.313ZM440.439 110.43C441.86 110.43 442.671 109.211 442.671 107.028C442.671 104.971 441.86 103.778 440.541 103.778C439.222 103.778 438.309 104.996 438.309 107.129C438.309 109.262 439.019 110.43 440.439 110.43ZM439.171 107.074C439.18 108.719 439.686 109.566 440.49 109.566C441.302 109.566 441.809 108.525 441.809 106.901C441.809 105.276 441.403 104.362 440.49 104.362C439.586 104.362 439.18 105.356 439.171 107.074Z" fill="#F5F8F9"/>
<g opacity="0.2">
<path d="M607.199 96.5293H542.938C541.372 96.5293 540.103 97.7998 540.103 99.367C540.103 100.934 541.372 102.205 542.938 102.205H607.199C608.764 102.205 610.034 100.934 610.034 99.367C610.034 97.7998 608.764 96.5293 607.199 96.5293Z" fill="#F8FBFB"/>
<path d="M637.877 100.539C637.883 101.34 637.65 102.124 637.209 102.793C636.768 103.461 636.138 103.983 635.4 104.292C634.662 104.601 633.849 104.683 633.063 104.528C632.278 104.374 631.557 103.988 630.991 103.422C630.425 102.856 630.04 102.134 629.886 101.348C629.731 100.562 629.813 99.7478 630.122 99.0088C630.431 98.2699 630.952 97.6396 631.62 97.1981C632.288 96.7566 633.071 96.5238 633.872 96.5294C634.934 96.5294 635.953 96.9518 636.704 97.7037C637.455 98.4557 637.877 99.4755 637.877 100.539Z" fill="#F8FBFB"/>
</g>
<g filter="url(#filter2_d_10272_1624)">
<path d="M675.825 647.164C675.825 638.657 682.715 631.762 691.213 631.762H746.591C755.09 631.762 761.979 638.657 761.979 647.164V668.808C761.979 671.542 759.765 673.759 757.033 673.759H691.213C682.715 673.759 675.825 666.863 675.825 658.356V647.164Z" fill="white"/>
</g>
<path d="M731.321 656.29C733.114 649.425 729.007 642.405 722.149 640.611C715.291 638.816 708.277 642.926 706.485 649.791C704.692 656.656 708.798 663.675 715.656 665.47C722.515 667.264 729.528 663.154 731.321 656.29Z" fill="#F9B42F"/>
<path d="M714.744 650.689C714.744 651.559 714.151 652.265 713.424 652.265C712.698 652.265 712.107 651.559 712.107 650.689C712.107 649.819 712.701 649.113 713.424 649.113C714.148 649.113 714.744 649.819 714.744 650.689Z" fill="#2C2A46"/>
<path d="M725.265 652.278C725.156 652.282 725.049 652.242 724.969 652.168C724.109 651.375 722.842 651.996 722.828 652.005C722.746 652.043 722.655 652.054 722.567 652.036C722.48 652.019 722.4 651.973 722.34 651.907C722.279 651.84 722.242 651.756 722.233 651.667C722.225 651.578 722.245 651.488 722.291 651.411C722.616 650.916 723.066 650.516 723.595 650.251C724.124 649.986 724.713 649.866 725.304 649.903C725.359 649.907 725.412 649.922 725.462 649.946C725.511 649.971 725.555 650.005 725.591 650.047C725.627 650.088 725.654 650.136 725.672 650.189C725.689 650.241 725.696 650.296 725.692 650.351C725.688 650.406 725.674 650.46 725.649 650.509C725.625 650.558 725.591 650.602 725.549 650.638C725.507 650.675 725.459 650.702 725.407 650.72C725.355 650.737 725.299 650.744 725.245 650.74C724.853 650.716 724.462 650.785 724.103 650.942C724.637 650.977 725.142 651.195 725.535 651.559C725.576 651.597 725.609 651.642 725.632 651.692C725.655 651.742 725.668 651.796 725.671 651.851C725.673 651.906 725.664 651.961 725.645 652.013C725.626 652.065 725.596 652.113 725.559 652.153C725.521 652.192 725.475 652.224 725.425 652.245C725.374 652.267 725.32 652.278 725.265 652.278Z" fill="#2C2A46"/>
<path d="M719.788 661.402C718.393 661.402 717.037 660.937 715.933 660.082C715.811 659.976 715.733 659.828 715.717 659.668C715.701 659.507 715.747 659.347 715.845 659.219C715.944 659.091 716.088 659.007 716.247 658.982C716.406 658.957 716.569 658.995 716.701 659.087C717.457 659.67 718.361 660.026 719.311 660.114C720.26 660.203 721.215 660.02 722.065 659.587C722.915 659.154 723.625 658.489 724.112 657.669C724.599 656.848 724.844 655.906 724.818 654.952C724.813 654.785 724.874 654.623 724.989 654.501C725.103 654.38 725.261 654.309 725.428 654.304C725.594 654.298 725.756 654.36 725.878 654.474C725.999 654.589 726.071 654.747 726.076 654.914C726.124 656.582 725.509 658.202 724.366 659.418C723.223 660.633 721.645 661.346 719.978 661.399L719.788 661.402Z" fill="#2C2A46"/>
<path d="M608.154 803.859C608.154 795.314 601.234 788.387 592.697 788.387H432.334C423.797 788.387 416.877 795.314 416.877 803.859V825.482C416.877 828.33 419.184 830.639 422.029 830.639H592.697C601.234 830.639 608.154 823.712 608.154 815.167V803.859Z" fill="#D2DFE6"/>
<path d="M523.121 714.121C523.121 705.576 530.042 698.649 538.579 698.649H746.431C754.968 698.649 761.888 705.576 761.888 714.121V760.831C761.888 763.68 759.581 765.989 756.736 765.989H538.579C530.042 765.989 523.121 759.062 523.121 750.517V714.121Z" fill="#DEE8EC"/>
<path d="M574.703 902.924C574.882 902.924 575.054 902.853 575.181 902.726C575.308 902.598 575.38 902.426 575.38 902.246C575.38 902.066 575.308 901.894 575.181 901.767C575.054 901.64 574.882 901.568 574.703 901.568C574.523 901.568 574.351 901.64 574.224 901.767C574.097 901.894 574.025 902.066 574.025 902.246C574.025 902.426 574.097 902.598 574.224 902.726C574.351 902.853 574.523 902.924 574.703 902.924Z" fill="#DF638D"/>
<path d="M482.765 164.41C481.783 164.41 480.854 164.286 479.978 164.037C479.114 163.789 478.392 163.451 477.812 163.025L478.611 160.857C479.167 161.248 479.801 161.556 480.511 161.781C481.232 162.006 481.984 162.118 482.765 162.118C483.617 162.118 484.226 161.988 484.593 161.728C484.972 161.455 485.161 161.118 485.161 160.715C485.161 160.371 485.031 160.099 484.771 159.898C484.51 159.696 484.055 159.524 483.404 159.382L481.398 158.956C479.162 158.482 478.043 157.321 478.043 155.474C478.043 154.68 478.256 153.987 478.682 153.395C479.108 152.791 479.7 152.323 480.457 151.991C481.227 151.659 482.114 151.494 483.12 151.494C483.984 151.494 484.794 151.618 485.552 151.867C486.309 152.116 486.936 152.465 487.433 152.915L486.635 154.94C485.664 154.171 484.487 153.786 483.102 153.786C482.357 153.786 481.777 153.934 481.363 154.23C480.96 154.514 480.759 154.887 480.759 155.349C480.759 155.693 480.883 155.971 481.132 156.184C481.38 156.397 481.812 156.569 482.428 156.699L484.434 157.126C486.729 157.623 487.877 158.749 487.877 160.502C487.877 161.283 487.664 161.97 487.238 162.563C486.824 163.143 486.232 163.599 485.463 163.931C484.706 164.251 483.806 164.41 482.765 164.41Z" fill="white"/>
<path d="M493.589 164.41C491.14 164.41 489.915 163.22 489.915 160.839V157.499H488.264V155.491H489.915V152.933H492.595V155.491H495.169V157.499H492.595V160.733C492.595 161.23 492.708 161.603 492.932 161.852C493.169 162.101 493.542 162.225 494.051 162.225C494.205 162.225 494.364 162.207 494.53 162.172C494.707 162.136 494.897 162.089 495.098 162.03L495.489 163.984C495.24 164.114 494.944 164.215 494.601 164.286C494.258 164.369 493.921 164.41 493.589 164.41Z" fill="white"/>
<path d="M500.59 164.41C499.655 164.41 498.839 164.227 498.141 163.86C497.454 163.481 496.922 162.954 496.543 162.278C496.164 161.591 495.975 160.78 495.975 159.844C495.975 158.92 496.164 158.121 496.543 157.446C496.922 156.759 497.454 156.232 498.141 155.864C498.839 155.497 499.655 155.314 500.59 155.314C501.525 155.314 502.336 155.497 503.022 155.864C503.72 156.232 504.259 156.759 504.638 157.446C505.028 158.121 505.223 158.92 505.223 159.844C505.223 160.78 505.028 161.591 504.638 162.278C504.259 162.954 503.72 163.481 503.022 163.86C502.336 164.227 501.525 164.41 500.59 164.41ZM500.59 162.403C501.158 162.403 501.62 162.195 501.975 161.781C502.342 161.366 502.525 160.721 502.525 159.844C502.525 158.98 502.342 158.346 501.975 157.943C501.62 157.529 501.158 157.321 500.59 157.321C500.022 157.321 499.561 157.529 499.206 157.943C498.851 158.346 498.673 158.98 498.673 159.844C498.673 160.721 498.851 161.366 499.206 161.781C499.561 162.195 500.022 162.403 500.59 162.403Z" fill="white"/>
<path d="M506.854 164.215V155.491H509.481V157.002C509.895 155.983 510.783 155.42 512.144 155.314L512.925 155.26L513.085 157.517L511.576 157.677C510.25 157.807 509.588 158.482 509.588 159.702V164.215H506.854Z" fill="white"/>
<path d="M518.54 164.41C517.51 164.41 516.623 164.227 515.877 163.86C515.143 163.481 514.575 162.954 514.173 162.278C513.783 161.591 513.587 160.786 513.587 159.862C513.587 158.962 513.777 158.174 514.155 157.499C514.546 156.812 515.072 156.279 515.735 155.9C516.41 155.509 517.185 155.314 518.06 155.314C519.327 155.314 520.333 155.716 521.078 156.522C521.824 157.315 522.196 158.393 522.196 159.755V160.431H516.143C516.238 161.118 516.487 161.621 516.889 161.941C517.303 162.249 517.871 162.403 518.593 162.403C519.066 162.403 519.546 162.332 520.031 162.19C520.516 162.047 520.954 161.828 521.344 161.532L522.054 163.327C521.617 163.658 521.078 163.925 520.439 164.126C519.812 164.316 519.179 164.41 518.54 164.41ZM518.167 157.09C517.599 157.09 517.137 157.262 516.782 157.606C516.439 157.949 516.226 158.429 516.143 159.045H519.978C519.907 157.742 519.303 157.09 518.167 157.09Z" fill="white"/>
<g filter="url(#filter3_d_10272_1624)">
<path d="M579.099 538.907C579.099 531.7 584.936 525.857 592.136 525.857H894.308C901.509 525.857 907.346 531.7 907.346 538.907V601.652C907.346 603.093 906.178 604.262 904.738 604.262H592.136C584.936 604.262 579.099 598.419 579.099 591.212V538.907Z" fill="white"/>
</g>
<path fill-rule="evenodd" clip-rule="evenodd" d="M771.521 555.347C771.521 553.093 769.695 551.266 767.443 551.266H610.314C608.062 551.266 606.236 553.093 606.236 555.347C606.236 557.6 608.062 559.428 610.314 559.428H767.443C769.695 559.428 771.521 557.6 771.521 555.347Z" fill="#D2DFE6"/>
<path fill-rule="evenodd" clip-rule="evenodd" d="M771.521 574.947C771.521 572.693 769.695 570.866 767.443 570.866H661.381C659.129 570.866 657.304 572.693 657.304 574.947C657.304 577.201 659.129 579.028 661.381 579.028H767.443C769.695 579.028 771.521 577.201 771.521 574.947Z" fill="#D2DFE6"/>
<path fill-rule="evenodd" clip-rule="evenodd" d="M450.524 174.731C453.836 174.729 457.073 173.744 459.825 171.901C462.578 170.058 464.723 167.439 465.989 164.376C467.255 161.314 467.586 157.944 466.939 154.693C466.293 151.442 464.698 148.456 462.356 146.112C460.014 143.768 457.031 142.172 453.783 141.524C450.535 140.877 447.169 141.208 444.109 142.476C441.048 143.743 438.433 145.89 436.591 148.645C434.75 151.4 433.766 154.64 433.764 157.955C433.773 162.401 435.542 166.663 438.683 169.807C441.824 172.951 446.082 174.722 450.524 174.731Z" fill="#F6A721"/>
<path d="M458.726 154.846C458.766 154.652 458.715 154.451 458.587 154.298C458.46 154.145 458.268 154.056 458.067 154.056H442.898L442.875 153.952C442.635 152.841 441.62 152.036 440.461 152.036H439.314C438.942 152.036 438.641 152.331 438.641 152.695C438.641 153.059 438.942 153.354 439.314 153.354H440.461C440.988 153.354 441.449 153.72 441.559 154.224L443.558 163.475C443.747 164.349 444.417 165.032 445.259 165.284C445.157 165.52 445.101 165.778 445.101 166.05C445.101 167.14 446.007 168.027 447.12 168.027C448.233 168.027 449.139 167.14 449.139 166.05C449.139 165.819 449.098 165.597 449.023 165.391H452.036C451.961 165.597 451.92 165.819 451.92 166.05C451.92 167.14 452.826 168.027 453.939 168.027C455.052 168.027 455.958 167.14 455.958 166.05C455.958 165.819 455.917 165.597 455.842 165.391H456.003C456.375 165.391 456.676 165.096 456.676 164.732C456.676 164.368 456.375 164.073 456.003 164.073H445.972C445.445 164.073 444.984 163.707 444.875 163.202L444.702 162.403H448.104C448.105 162.403 448.105 162.403 448.106 162.403C448.106 162.403 448.107 162.403 448.107 162.403H452.413C452.414 162.403 452.414 162.403 452.415 162.403C452.415 162.403 452.416 162.403 452.417 162.403H456.618C456.939 162.403 457.215 162.182 457.278 161.875L457.985 158.443C458.004 158.39 458.015 158.335 458.019 158.277L458.726 154.846ZM447.793 166.05C447.793 166.413 447.491 166.709 447.12 166.709C446.749 166.709 446.447 166.413 446.447 166.05C446.447 165.686 446.749 165.391 447.12 165.391C447.491 165.391 447.793 165.686 447.793 166.05ZM454.612 166.05C454.612 166.413 454.31 166.709 453.939 166.709C453.568 166.709 453.266 166.413 453.266 166.05C453.266 165.686 453.568 165.391 453.939 165.391C454.31 165.391 454.612 165.686 454.612 166.05ZM456.792 157.571H453.625L453.905 155.374H457.244L456.792 157.571ZM448.701 161.085L448.421 158.889H452.1L451.82 161.085H448.701ZM448.252 157.571L447.972 155.374H452.549L452.268 157.571H448.252ZM446.615 155.374L446.896 157.571H443.658L443.183 155.374H446.615ZM443.943 158.889H447.064L447.345 161.085H444.417L443.943 158.889ZM453.176 161.085L453.456 158.889H456.52L456.068 161.085H453.176Z" fill="white"/>
<path fill-rule="evenodd" clip-rule="evenodd" d="M443.066 153.848H458.067C458.33 153.848 458.58 153.964 458.747 154.165C458.916 154.366 458.983 154.631 458.931 154.888C458.931 154.888 458.931 154.888 458.931 154.888L458.226 158.307C458.22 158.372 458.207 158.436 458.187 158.497L457.482 161.917M447.121 166.501C447.381 166.501 447.586 166.294 447.586 166.05C447.586 165.805 447.381 165.599 447.121 165.599C446.86 165.599 446.655 165.805 446.655 166.05C446.655 166.294 446.86 166.501 447.121 166.501ZM453.94 166.501C454.201 166.501 454.405 166.294 454.405 166.05C454.405 165.805 454.201 165.599 453.94 165.599C453.679 165.599 453.475 165.805 453.475 166.05C453.475 166.294 453.679 166.501 453.94 166.501ZM453.862 157.363H456.623L456.99 155.582H454.089L453.862 157.363ZM448.885 160.877H451.638L451.865 159.097H448.657L448.885 160.877ZM448.436 157.363H452.086L452.314 155.582H448.209L448.436 157.363ZM446.433 155.582H443.441L443.826 157.363H446.661L446.433 155.582ZM444.201 159.097L444.586 160.877H447.109L446.882 159.097H444.201ZM453.413 160.877H455.899L456.266 159.097H453.64L453.413 160.877ZM447.121 166.709C447.492 166.709 447.794 166.413 447.794 166.05C447.794 165.686 447.492 165.391 447.121 165.391C446.75 165.391 446.448 165.686 446.448 166.05C446.448 166.413 446.75 166.709 447.121 166.709ZM453.94 166.709C454.311 166.709 454.613 166.413 454.613 166.05C454.613 165.686 454.311 165.391 453.94 165.391C453.569 165.391 453.267 165.686 453.267 166.05C453.267 166.413 453.569 166.709 453.94 166.709Z" fill="white"/>
<path d="M465.938 152.306C469.001 152.306 471.485 149.82 471.485 146.754C471.485 143.687 469.001 141.202 465.938 141.202C462.874 141.202 460.391 143.687 460.391 146.754C460.391 149.82 462.874 152.306 465.938 152.306Z" fill="#BED42B"/>
<path fill-rule="evenodd" clip-rule="evenodd" d="M465.938 141.86C463.237 141.86 461.048 144.051 461.048 146.754C461.048 149.457 463.237 151.648 465.938 151.648C468.638 151.648 470.827 149.457 470.827 146.754C470.827 144.051 468.638 141.86 465.938 141.86ZM459.732 146.754C459.732 143.324 462.511 140.543 465.938 140.543C469.365 140.543 472.143 143.324 472.143 146.754C472.143 150.184 469.365 152.965 465.938 152.965C462.511 152.965 459.732 150.184 459.732 146.754Z" fill="#2CC3D5"/>
<g filter="url(#filter4_d_10272_1624)">
<path d="M683.686 322.362V461.738C683.686 471.124 676.081 478.736 666.703 478.736H479.894C470.516 478.736 462.911 471.124 462.911 461.738C462.911 329.976 462.9 354.658 462.948 322.362H683.686Z" fill="white"/>
</g>
<path d="M684.166 322.362V354.551C684.166 361.518 678.587 367.289 671.628 367.317C671.55 367.317 476.066 367.317 475.925 367.317C468.967 367.286 463.392 361.515 463.392 354.551C463.392 345.264 463.385 351.779 463.429 322.362H684.166Z" fill="#D2DFE6" fill-opacity="0.4"/>
<path d="M696.662 322.362C696.662 339.37 682.883 353.172 665.881 353.172C648.882 353.172 635.1 339.377 635.1 322.362C635.1 339.377 621.318 353.172 604.319 353.172C587.32 353.172 573.538 339.377 573.538 322.362C573.538 339.377 559.755 353.172 542.757 353.172C525.758 353.172 511.976 339.377 511.976 322.362C511.949 339.265 498.05 353.172 481.195 353.172C464.36 353.172 450.44 339.283 450.414 322.362C450.414 295.586 450.341 297.233 450.6 296.004C450.854 294.798 449.089 299.069 475.792 237.381C477.14 234.273 480.202 232.26 483.583 232.26H663.493C666.873 232.26 669.936 234.273 671.284 237.381C698.007 299.115 696.221 294.797 696.476 296.004C696.735 297.231 696.662 295.557 696.662 322.362Z" fill="#2D91AF"/>
<path d="M696.652 322.362C696.652 339.369 682.874 353.172 665.871 353.172C648.873 353.172 635.09 339.376 635.09 322.362C635.09 339.376 621.308 353.172 604.309 353.172C587.311 353.172 573.528 339.376 573.528 322.362C573.528 339.376 559.746 353.172 542.747 353.172C525.749 353.172 511.966 339.376 511.966 322.362C511.94 339.265 498.041 353.172 481.185 353.172C464.351 353.172 450.431 339.282 450.404 322.362V297.767C450.404 297.173 450.468 296.583 450.59 296.004H696.467C696.725 297.231 696.652 295.557 696.652 322.362Z" fill="#247D99"/>
<path d="M629.144 385.803C629.365 384.71 629.083 383.575 628.377 382.712C627.671 381.849 626.615 381.348 625.501 381.348H541.734L541.609 380.756C540.284 374.489 534.677 369.941 528.278 369.941H521.94C519.888 369.941 518.224 371.606 518.224 373.661C518.224 375.715 519.888 377.38 521.94 377.38H528.278C531.187 377.38 533.735 379.448 534.338 382.296L545.38 434.513C546.423 439.445 550.124 443.302 554.771 444.726C554.21 446.055 553.9 447.516 553.9 449.048C553.9 455.201 558.901 460.207 565.049 460.207C571.197 460.207 576.198 455.201 576.198 449.048C576.198 447.744 575.971 446.492 575.559 445.328H592.198C591.785 446.492 591.559 447.744 591.559 449.048C591.559 455.201 596.56 460.207 602.708 460.207C608.855 460.207 613.857 455.201 613.857 449.048C613.857 447.744 613.63 446.492 613.217 445.328H614.104C616.157 445.328 617.821 443.663 617.821 441.608C617.821 439.553 616.157 437.888 614.104 437.888H558.711C555.802 437.888 553.254 435.821 552.652 432.973L551.699 428.465H570.485C570.488 428.465 570.492 428.466 570.495 428.466C570.498 428.466 570.5 428.465 570.503 428.465H594.281C594.284 428.465 594.286 428.466 594.289 428.466C594.293 428.466 594.296 428.465 594.299 428.465H617.504C619.273 428.465 620.797 427.217 621.147 425.481L625.052 406.108C625.153 405.811 625.218 405.498 625.24 405.173L629.144 385.803ZM568.765 449.048C568.765 451.099 567.099 452.767 565.049 452.767C563 452.767 561.333 451.099 561.333 449.048C561.333 446.996 563 445.328 565.049 445.328C567.099 445.328 568.765 446.996 568.765 449.048ZM606.424 449.048C606.424 451.099 604.757 452.767 602.708 452.767C600.658 452.767 598.991 451.099 598.991 449.048C598.991 446.996 600.658 445.328 602.708 445.328C604.757 445.328 606.424 446.996 606.424 449.048ZM618.461 401.187H600.971L602.52 388.788H620.96L618.461 401.187ZM573.78 421.026L572.232 408.626H592.552L591.004 421.026H573.78ZM571.303 401.187L569.754 388.788H595.03L593.481 401.187H571.303ZM562.264 388.788L563.812 401.187H545.929L543.307 388.788H562.264ZM547.503 408.626H564.741L566.29 421.026H550.125L547.503 408.626ZM598.494 421.026L600.042 408.626H616.961L614.462 421.026H598.494Z" fill="#6E7B91"/>
<path d="M892.18 542.614C892.18 566.069 873.183 585.083 849.75 585.083C826.317 585.083 807.32 566.069 807.32 542.614C807.32 519.159 826.317 500.145 849.75 500.145C873.183 500.145 892.18 519.159 892.18 542.614Z" fill="#F6A721"/>
<path d="M871.193 532.677C871.289 532.215 871.167 531.735 870.862 531.371C870.557 531.006 870.102 530.794 869.62 530.794H833.449L833.395 530.544C832.823 527.897 830.402 525.976 827.638 525.976H824.902C824.015 525.976 823.297 526.679 823.297 527.547C823.297 528.415 824.015 529.118 824.902 529.118H827.638C828.894 529.118 829.995 529.992 830.255 531.195L835.023 553.253C835.474 555.337 837.072 556.967 839.078 557.568C838.836 558.13 838.702 558.747 838.702 559.394C838.702 561.993 840.862 564.108 843.517 564.108C846.171 564.108 848.331 561.993 848.331 559.394C848.331 558.843 848.233 558.314 848.055 557.822H855.24C855.061 558.314 854.964 558.843 854.964 559.394C854.964 561.993 857.123 564.108 859.778 564.108C862.433 564.108 864.592 561.993 864.592 559.394C864.592 558.843 864.494 558.314 864.316 557.822H864.699C865.585 557.822 866.304 557.119 866.304 556.251C866.304 555.383 865.585 554.679 864.699 554.679H840.78C839.524 554.679 838.423 553.806 838.163 552.603L837.752 550.699H845.864C845.865 550.699 845.867 550.699 845.868 550.699C845.869 550.699 845.87 550.699 845.872 550.699H856.139C856.14 550.699 856.141 550.699 856.143 550.699C856.144 550.699 856.146 550.699 856.147 550.699H866.167C866.931 550.699 867.589 550.171 867.74 549.438L869.426 541.254C869.47 541.129 869.498 540.997 869.508 540.859L871.193 532.677ZM845.121 559.394C845.121 560.26 844.402 560.965 843.517 560.965C842.632 560.965 841.912 560.26 841.912 559.394C841.912 558.527 842.632 557.822 843.517 557.822C844.402 557.822 845.121 558.527 845.121 559.394ZM861.383 559.394C861.383 560.26 860.663 560.965 859.778 560.965C858.893 560.965 858.173 560.26 858.173 559.394C858.173 558.527 858.893 557.822 859.778 557.822C860.663 557.822 861.383 558.527 861.383 559.394ZM866.58 539.175H859.028L859.697 533.937H867.66L866.58 539.175ZM847.287 547.556L846.618 542.318H855.393L854.724 547.556H847.287ZM846.217 539.175L845.548 533.937H856.463L855.794 539.175H846.217ZM842.314 533.937L842.983 539.175H835.261L834.128 533.937H842.314ZM835.94 542.318H843.384L844.052 547.556H837.072L835.94 542.318ZM857.958 547.556L858.627 542.318H865.933L864.854 547.556H857.958Z" fill="white"/>
<path fill-rule="evenodd" clip-rule="evenodd" d="M870.862 531.371C871.166 531.736 871.288 532.215 871.193 532.677L869.507 540.859C869.497 540.997 869.47 541.129 869.426 541.254L867.74 549.438C867.589 550.172 866.93 550.699 866.167 550.699H856.147L856.142 550.699L856.139 550.699H845.871L845.868 550.699L845.863 550.699H837.751L838.163 552.603C838.423 553.807 839.523 554.68 840.779 554.68H864.699C865.585 554.68 866.303 555.383 866.303 556.251C866.303 557.073 865.659 557.748 864.837 557.817C864.792 557.821 864.745 557.823 864.699 557.823H864.316C864.374 557.984 864.424 558.15 864.464 558.319C864.547 558.664 864.592 559.024 864.592 559.394C864.592 561.993 862.432 564.108 859.777 564.108C857.123 564.108 854.963 561.993 854.963 559.394C854.963 559.024 855.007 558.664 855.09 558.319C855.131 558.15 855.181 557.984 855.239 557.823H848.054C848.113 557.984 848.162 558.15 848.203 558.319C848.286 558.664 848.33 559.024 848.33 559.394C848.33 561.993 846.171 564.108 843.516 564.108C840.861 564.108 838.702 561.993 838.702 559.394C838.702 558.922 838.773 558.465 838.906 558.034C838.955 557.875 839.012 557.72 839.078 557.568C838.919 557.521 838.762 557.466 838.608 557.406C836.825 556.705 835.438 555.172 835.023 553.254L830.254 531.195C829.994 529.992 828.894 529.119 827.638 529.119H824.901C824.015 529.119 823.296 528.415 823.296 527.547C823.296 526.679 824.015 525.976 824.901 525.976H827.638C830.401 525.976 832.822 527.897 833.394 530.545L833.448 530.795H869.62C870.101 530.795 870.557 531.006 870.862 531.371ZM833.846 530.299C833.169 527.49 830.578 525.48 827.638 525.48H824.901C823.751 525.48 822.801 526.395 822.801 527.547C822.801 528.7 823.751 529.615 824.901 529.615H827.638C828.668 529.615 829.561 530.332 829.77 531.3C829.77 531.3 829.77 531.3 829.77 531.3L834.539 553.359C834.991 555.453 836.504 557.116 838.438 557.872C838.287 558.354 838.206 558.865 838.206 559.394C838.206 562.277 840.598 564.604 843.516 564.604C846.434 564.604 848.826 562.277 848.826 559.394C848.826 559.025 848.786 558.666 848.711 558.319H854.582C854.507 558.666 854.468 559.025 854.468 559.394C854.468 562.277 856.859 564.604 859.777 564.604C862.695 564.604 865.087 562.277 865.087 559.394C865.087 559.019 865.046 558.654 864.969 558.301C865.993 558.171 866.799 557.312 866.799 556.251C866.799 555.099 865.848 554.184 864.699 554.184H840.779C839.749 554.184 838.856 553.466 838.647 552.498C838.647 552.498 838.647 552.498 838.647 552.498L838.365 551.195H845.853C845.857 551.195 845.862 551.195 845.868 551.195C845.873 551.195 845.878 551.195 845.882 551.195H856.127C856.132 551.195 856.137 551.195 856.142 551.195C856.147 551.195 856.152 551.195 856.157 551.195H866.167C867.158 551.195 868.025 550.509 868.225 549.538L869.905 541.384C869.953 541.239 869.985 541.087 869.999 540.93L871.678 532.777C871.678 532.777 871.678 532.777 871.678 532.777C871.804 532.165 871.642 531.532 871.242 531.053C870.841 530.574 870.246 530.299 869.62 530.299H833.846ZM843.516 560.469C844.138 560.469 844.625 559.976 844.625 559.394C844.625 558.812 844.138 558.319 843.516 558.319C842.894 558.319 842.407 558.812 842.407 559.394C842.407 559.976 842.894 560.469 843.516 560.469ZM859.777 560.469C860.399 560.469 860.887 559.976 860.887 559.394C860.887 558.812 860.399 558.319 859.777 558.319C859.156 558.319 858.668 558.812 858.668 559.394C858.668 559.976 859.156 560.469 859.777 560.469ZM866.58 539.176L867.659 533.938H859.696L859.028 539.176H866.58ZM859.59 538.68H866.176L867.051 534.434H860.132L859.59 538.68ZM847.722 547.06H854.287L854.829 542.814H847.18L847.722 547.06ZM847.286 547.556H854.723L855.392 542.318H846.618L847.286 547.556ZM846.653 538.68H855.357L855.899 534.434H846.111L846.653 538.68ZM845.548 533.938L846.216 539.176H855.793L856.462 533.938H845.548ZM841.877 534.434H834.742L835.66 538.68H842.419L841.877 534.434ZM842.982 539.176H835.26L834.128 533.938H842.313L842.982 539.176ZM835.939 542.318L837.072 547.556H844.052L843.383 542.318H835.939ZM836.553 542.814L837.471 547.06H843.489L842.947 542.814H836.553ZM857.958 547.556H864.853L865.932 542.318H858.626L857.958 547.556ZM858.521 547.06H864.449L865.324 542.814H859.063L858.521 547.06ZM843.516 560.965C844.401 560.965 845.121 560.261 845.121 559.394C845.121 558.527 844.401 557.823 843.516 557.823C842.631 557.823 841.911 558.527 841.911 559.394C841.911 560.261 842.631 560.965 843.516 560.965ZM859.777 560.965C860.662 560.965 861.382 560.261 861.382 559.394C861.382 558.527 860.662 557.823 859.777 557.823C858.892 557.823 858.173 558.527 858.173 559.394C858.173 560.261 858.892 560.965 859.777 560.965Z" fill="white"/>
<path fill-rule="evenodd" clip-rule="evenodd" d="M278.539 396.422C272.491 396.422 267.882 400.445 267.882 405.056C267.882 406.218 268.166 407.016 268.609 407.592C269.057 408.174 269.735 408.613 270.673 408.932C272.596 409.586 275.321 409.65 278.539 409.65C281.756 409.65 284.481 409.586 286.404 408.932C287.342 408.613 288.02 408.174 288.469 407.592C288.912 407.016 289.195 406.218 289.195 405.056C289.195 400.479 284.584 396.422 278.539 396.422ZM266.168 405.056C266.168 399.202 271.869 394.706 278.539 394.706C285.211 394.706 290.91 399.24 290.91 405.056C290.91 406.51 290.549 407.702 289.826 408.639C289.11 409.57 288.102 410.167 286.956 410.557C284.712 411.32 281.68 411.366 278.539 411.366C275.398 411.366 272.366 411.32 270.122 410.557C268.976 410.167 267.968 409.57 267.251 408.639C266.529 407.702 266.168 406.51 266.168 405.056Z" fill="white"/>
<path d="M288.909 400.967V373.805C285.885 374.463 282.799 374.793 279.705 374.791H277.419C274.324 374.794 271.238 374.46 268.216 373.793V400.967C267.449 402.195 267.029 403.608 267 405.056C267 410.289 272.155 410.508 278.514 410.508C284.872 410.508 290.027 410.289 290.027 405.056C290.028 403.617 289.641 402.205 288.909 400.967Z" fill="#FDC2BF"/>
<path d="M322.78 291.844V337.796C322.787 343.46 321.677 349.069 319.514 354.303C317.352 359.537 314.179 364.293 310.178 368.297C306.177 372.302 301.426 375.478 296.196 377.643C290.967 379.807 285.363 380.918 279.704 380.912H277.419C274.324 380.915 271.238 380.58 268.215 379.914C258.617 377.812 250.024 372.49 243.864 364.829C237.703 357.169 234.343 347.63 234.343 337.796V291.844C234.343 280.409 238.881 269.443 246.959 261.357C255.038 253.271 265.994 248.729 277.419 248.729H279.704C291.129 248.729 302.085 253.271 310.164 261.357C318.242 269.443 322.78 280.409 322.78 291.844Z" fill="#FDC2BF"/>
<path d="M268.168 379.95L268.448 405.591C268.448 405.591 276.958 393.337 290.563 391.463L286.405 377.322L276.521 376.859L268.168 379.95Z" fill="#F4B1AF"/>
<path d="M338.854 238.494C333.663 235.574 323.705 238.008 319.96 232.86C316.216 227.712 304.957 223.611 296.447 231.412C287.936 239.212 280.422 233.846 280.422 233.846C260.52 224.196 252.289 238.008 250.125 241.525C247.961 245.042 256.277 242.997 236.751 249.35C217.225 255.702 217.565 272.897 220.483 276.365C223.401 279.834 221.699 282.961 219.863 295.203C219.747 297.12 220.05 299.038 220.751 300.826C220.23 311.937 220.494 323.071 221.541 334.145C221.541 334.145 218.21 367.939 239.328 376.872C260.447 385.804 265.31 374.791 268.848 385.901C272.386 397.012 312.909 395.199 319.912 385.475C326.915 375.752 333.286 376.762 332.459 367.684C331.632 358.606 331.328 345.67 326.27 341.52C321.213 337.37 317.359 349.272 310.72 351.182C299.255 354.419 296.35 302.834 285.602 305.243C281.468 306.168 274.21 296.141 273.736 295.386C271.304 291.48 272.945 284.665 272.058 283.022C267.863 275.319 274.489 272.739 275.705 272.143C277.432 271.279 280.447 263.003 304.678 278.312C322.222 289.387 346.732 280.819 350.197 265.802C351.519 260.635 351.128 255.178 349.082 250.252C347.036 245.327 343.446 241.201 338.854 238.494Z" fill="#2C2A46"/>
<path d="M277.432 319.652C275.243 321.27 271.912 326.357 279.535 341.192C279.891 341.891 280.413 342.493 281.055 342.944C281.429 343.201 281.838 343.402 282.271 343.54C282.436 343.582 282.61 343.584 282.776 343.547C282.943 343.511 283.099 343.436 283.233 343.328C283.366 343.221 283.472 343.084 283.544 342.929C283.615 342.774 283.65 342.604 283.644 342.433C283.644 338.782 283.316 324.179 281.043 319.834C280.435 318.691 278.173 319.104 277.432 319.652Z" fill="#FDC2BF"/>
<path d="M209.955 1011.39C209.955 1011.39 209.7 1040.6 209.529 1043.49C209.359 1046.39 229.177 1051.32 274.478 1046.18C277.055 1045.89 280.666 1045.14 282.49 1043C285.602 1039.34 285.019 1032.69 281.505 1029.71C277.748 1026.52 256.8 1017.95 252.046 1016.67C248.8 1015.81 246.417 1004.5 244.751 1002.91C237.918 996.667 210.782 1000.17 210.782 1000.17L209.955 1011.39Z" fill="#1A2437"/>
<path d="M314.574 1017.44C314.574 1017.44 314.757 1046.65 314.574 1049.54C314.392 1052.44 334.343 1057.07 379.571 1051.28C382.149 1050.95 385.735 1050.14 387.523 1047.97C390.587 1044.32 389.954 1037.63 386.307 1034.71C382.501 1031.57 361.419 1023.31 356.653 1022.1C353.395 1021.28 350.854 1009.93 349.115 1008.45C342.21 1002.3 315.073 1006.21 315.073 1006.21L314.574 1017.44Z" fill="#1A2437"/>
<path d="M227.547 1008.89C236.471 1008.89 243.705 1007.23 243.705 1005.19C243.705 1003.14 236.471 1001.49 227.547 1001.49C218.623 1001.49 211.389 1003.14 211.389 1005.19C211.389 1007.23 218.623 1008.89 227.547 1008.89Z" fill="#FDC2BF"/>
<path d="M211.389 989.949V1005.19H243.693V989.949C243.693 989.949 211.389 989.596 211.389 989.949Z" fill="#FDC2BF"/>
<path d="M331.426 1014.7C340.349 1014.7 347.584 1013.05 347.584 1011C347.584 1008.96 340.349 1007.3 331.426 1007.3C322.502 1007.3 315.268 1008.96 315.268 1011C315.268 1013.05 322.502 1014.7 331.426 1014.7Z" fill="#FDC2BF"/>
<path d="M315.268 995.767V1011H347.559V995.767C347.559 995.767 315.268 995.414 315.268 995.767Z" fill="#FDC2BF"/>
<path fill-rule="evenodd" clip-rule="evenodd" d="M351.204 410.909C351.205 410.91 351.205 410.91 351.205 410.911L351.221 410.939L351.29 411.063C351.354 411.178 351.452 411.355 351.584 411.59C351.849 412.061 352.246 412.765 352.765 413.671C353.801 415.483 355.318 418.097 357.212 421.259C361.011 427.601 366.278 436.066 372.203 444.661C378.172 453.322 384.583 461.784 390.655 468.292C393.688 471.543 396.419 474.071 398.766 475.845C401.234 477.709 402.582 478.207 402.868 478.281C407.429 479.451 413.858 478.611 422.379 474.548C430.728 470.568 439.469 464.251 447.668 457.167C455.784 450.154 462.904 442.798 468.022 437.15C470.569 434.34 472.591 431.986 473.961 430.353C474.645 429.538 475.165 428.904 475.505 428.487C475.674 428.278 475.799 428.123 475.876 428.027L475.964 427.917C475.965 427.915 475.966 427.914 475.967 427.913M338.684 417.833L326.164 424.756C322.344 417.835 324.853 409.124 331.768 405.301C338.683 401.478 347.384 403.989 351.204 410.909M475.967 427.913C480.867 421.714 489.86 420.662 496.056 425.565C502.253 430.469 503.305 439.473 498.405 445.676L487.412 436.976C498.405 445.676 498.403 445.678 498.401 445.681L498.395 445.688L498.381 445.706L498.338 445.76C498.304 445.804 498.256 445.863 498.197 445.937C498.078 446.085 497.911 446.293 497.697 446.556C497.269 447.083 496.654 447.832 495.868 448.769C494.296 450.642 492.034 453.274 489.211 456.389C483.589 462.592 475.624 470.84 466.361 478.843C457.181 486.775 446.249 494.885 434.682 500.4C423.287 505.833 409.556 509.557 395.764 506.018C390.335 504.625 385.503 501.701 381.531 498.699C377.437 495.606 373.467 491.824 369.744 487.834C362.304 479.858 354.986 470.107 348.655 460.922C342.279 451.672 336.674 442.658 332.676 435.982C330.671 432.636 329.058 429.856 327.94 427.902C327.381 426.924 326.944 426.152 326.644 425.617C326.494 425.35 326.378 425.142 326.297 424.997L326.203 424.827L326.166 424.759C326.165 424.758 326.164 424.756 338.684 417.833" fill="#FDC2BF"/>
<path fill-rule="evenodd" clip-rule="evenodd" d="M331.438 969.876C340.351 969.876 347.577 977.109 347.577 986.031V998.115C347.577 1007.04 340.351 1014.27 331.438 1014.27C322.524 1014.27 315.298 1007.04 315.298 998.115V986.031C315.298 977.109 322.524 969.876 331.438 969.876Z" fill="#FDC2BF"/>
<path d="M279.109 593.583H278.525C239.935 593.583 208.422 598.536 208.397 604.535L208.519 988.38C208.519 990.813 216.653 992.882 226.659 992.882H227.242C237.248 992.882 245.37 990.862 245.37 988.38L249.467 820.273L253.796 664.749C258.27 665.771 268.507 666.173 278.805 666.076C289.09 666.173 299.34 665.771 303.802 664.749L308.142 820.273L312.239 988.38C312.239 990.813 320.349 992.882 330.355 992.882H330.95C340.957 992.882 349.078 990.862 349.078 988.38L349.2 604.535C349.151 598.536 317.637 593.595 279.109 593.583Z" fill="#1A2437"/>
<path d="M279.254 399.556C239.911 399.556 208.021 402.975 208.021 407.186V409.802V601.87V604.487C208.021 608.697 239.911 612.117 279.254 612.117C318.598 612.117 350.488 608.697 350.488 604.487V601.87V409.802V407.161C350.488 402.975 318.598 399.556 279.254 399.556Z" fill="#CC99FF"/>
<path opacity="0.3" d="M207.596 487.479L208.094 457.311L211.255 447.466L220.714 439.921C219.743 444.822 219.057 449.775 218.66 454.756C214.198 499.198 205.359 551.161 208.094 604.438" fill="#B97CE8"/>
<path fill-rule="evenodd" clip-rule="evenodd" d="M223.92 431.143C228.664 424.822 227.391 415.847 221.076 411.098L223.92 431.143ZM212.484 422.544C201.048 413.943 201.047 413.944 201.046 413.946L200.997 414.011L200.867 414.185C200.754 414.336 200.591 414.555 200.38 414.839C199.958 415.407 199.346 416.235 198.572 417.291C197.024 419.402 194.825 422.429 192.198 426.122C186.955 433.495 179.964 443.586 173.038 454.379C166.153 465.108 159.137 476.832 153.972 487.408C151.396 492.685 149.124 497.992 147.578 502.951C146.142 507.56 144.823 513.417 145.605 519.166C146.558 526.163 149.239 534.093 152.31 541.643C155.466 549.404 159.421 557.688 163.473 565.644C169.244 576.975 175.564 588.301 180.272 596.74C182.101 600.018 183.687 602.861 184.903 605.098C188.269 611.29 189.571 617.866 189.964 623.132C190.158 625.721 190.121 627.865 190.044 629.297C190.006 630.009 189.959 630.532 189.927 630.834C189.912 630.984 189.9 631.077 189.896 631.11L189.904 631.051L189.908 631.027C189.909 631.023 189.909 631.018 204.058 633.121L189.909 631.018C189.905 631.049 189.9 631.079 189.896 631.11C188.791 638.896 194.174 646.126 201.957 647.283C209.771 648.445 217.046 643.046 218.207 635.224L205.117 633.279C218.207 635.224 218.208 635.22 218.208 635.215L218.21 635.206L218.213 635.185L218.219 635.139L218.235 635.027C218.246 634.944 218.26 634.842 218.275 634.723C218.305 634.486 218.342 634.179 218.38 633.807C218.458 633.065 218.545 632.061 218.611 630.832C218.743 628.383 218.791 624.998 218.492 620.996C217.901 613.079 215.908 602.223 210.033 591.414C208.589 588.758 206.843 585.629 204.899 582.145C200.252 573.818 194.47 563.457 188.96 552.639C185.096 545.053 181.538 537.565 178.807 530.848C176.029 524.017 174.454 518.813 173.972 515.444C173.973 515.449 173.974 515.451 173.975 515.451C173.997 515.451 174.013 514.287 174.888 511.477C175.84 508.425 177.443 504.553 179.675 499.981C184.128 490.861 190.465 480.207 197.108 469.854C203.711 459.566 210.425 449.87 215.505 442.727C218.04 439.162 220.157 436.249 221.634 434.234C222.373 433.227 222.951 432.445 223.341 431.919C223.536 431.657 223.684 431.458 223.782 431.328L223.89 431.183L223.92 431.143C223.92 431.143 223.92 431.143 223.92 431.143M212.484 422.544L201.048 413.943C205.794 407.622 214.761 406.348 221.076 411.098" fill="#FDC2BF"/>
<path fill-rule="evenodd" clip-rule="evenodd" d="M231.174 412.312C235.785 420.299 233.055 430.515 225.075 435.131C223.452 436.069 220.793 438.716 215.806 446.628C214.417 448.833 212.764 451.59 210.906 454.691C207.223 460.834 202.732 468.328 197.875 475.548C192.727 483.199 182.357 485.225 174.713 480.073C167.068 474.92 165.045 464.541 170.192 456.889C174.71 450.174 178.089 444.513 181.385 438.99C183.4 435.613 185.385 432.288 187.58 428.805C192.52 420.967 198.912 411.682 208.377 406.207C216.357 401.592 226.563 404.326 231.174 412.312Z" fill="#CC99FF"/>
<path opacity="0.3" d="M350.489 601.87L350.38 478.668L349.918 453.234L335.79 443.499C335.79 443.499 351.061 579.966 350.489 601.87Z" fill="#B97CE8"/>
<path fill-rule="evenodd" clip-rule="evenodd" d="M331.6 406.709C339.041 401.267 349.481 402.894 354.918 410.342C360.808 418.412 365.623 426.847 369.94 434.41C370.889 436.072 371.813 437.692 372.72 439.256C377.939 448.262 383.088 456.448 390.212 464.37C396.377 471.227 395.822 481.787 388.972 487.958C382.122 494.129 371.571 493.573 365.406 486.717C355.939 476.188 349.414 465.616 343.851 456.017C342.723 454.07 341.65 452.195 340.611 450.378C336.355 442.936 332.656 436.468 327.97 430.048C322.533 422.6 324.158 412.151 331.6 406.709Z" fill="#CC99FF"/>
<defs>
<filter id="filter0_f_10272_1624" x="120.971" y="1000.81" width="351.208" height="93.1938" filterUnits="userSpaceOnUse" color-interpolation-filters="sRGB">
<feFlood flood-opacity="0" result="BackgroundImageFix"/>
<feBlend mode="normal" in="SourceGraphic" in2="BackgroundImageFix" result="shape"/>
<feGaussianBlur stdDeviation="7" result="effect1_foregroundBlur_10272_1624"/>
</filter>
<filter id="filter1_f_10272_1624" x="293.021" y="888.87" width="592.078" height="87.0435" filterUnits="userSpaceOnUse" color-interpolation-filters="sRGB">
<feFlood flood-opacity="0" result="BackgroundImageFix"/>
<feBlend mode="normal" in="SourceGraphic" in2="BackgroundImageFix" result="shape"/>
<feGaussianBlur stdDeviation="7" result="effect1_foregroundBlur_10272_1624"/>
</filter>
<filter id="filter2_d_10272_1624" x="670.459" y="627.29" width="96.8859" height="52.7297" filterUnits="userSpaceOnUse" color-interpolation-filters="sRGB">
<feFlood flood-opacity="0" result="BackgroundImageFix"/>
<feColorMatrix in="SourceAlpha" type="matrix" values="0 0 0 0 0 0 0 0 0 0 0 0 0 0 0 0 0 0 127 0" result="hardAlpha"/>
<feOffset dy="0.894382"/>
<feGaussianBlur stdDeviation="2.68315"/>
<feColorMatrix type="matrix" values="0 0 0 0 0.374547 0 0 0 0 0.481553 0 0 0 0 0.601935 0 0 0 0.15 0"/>
<feBlend mode="normal" in2="BackgroundImageFix" result="effect1_dropShadow_10272_1624"/>
<feBlend mode="normal" in="SourceGraphic" in2="effect1_dropShadow_10272_1624" result="shape"/>
</filter>
<filter id="filter3_d_10272_1624" x="569.803" y="518.111" width="346.838" height="96.9954" filterUnits="userSpaceOnUse" color-interpolation-filters="sRGB">
<feFlood flood-opacity="0" result="BackgroundImageFix"/>
<feColorMatrix in="SourceAlpha" type="matrix" values="0 0 0 0 0 0 0 0 0 0 0 0 0 0 0 0 0 0 127 0" result="hardAlpha"/>
<feOffset dy="1.54925"/>
<feGaussianBlur stdDeviation="4.64776"/>
<feColorMatrix type="matrix" values="0 0 0 0 0.374547 0 0 0 0 0.481553 0 0 0 0 0.601935 0 0 0 0.15 0"/>
<feBlend mode="normal" in2="BackgroundImageFix" result="effect1_dropShadow_10272_1624"/>
<feBlend mode="normal" in="SourceGraphic" in2="effect1_dropShadow_10272_1624" result="shape"/>
</filter>
<filter id="filter4_d_10272_1624" x="452.077" y="313.334" width="242.442" height="178.041" filterUnits="userSpaceOnUse" color-interpolation-filters="sRGB">
<feFlood flood-opacity="0" result="BackgroundImageFix"/>
<feColorMatrix in="SourceAlpha" type="matrix" values="0 0 0 0 0 0 0 0 0 0 0 0 0 0 0 0 0 0 127 0" result="hardAlpha"/>
<feOffset dy="1.80551"/>
<feGaussianBlur stdDeviation="5.41654"/>
<feColorMatrix type="matrix" values="0 0 0 0 0.374547 0 0 0 0 0.481553 0 0 0 0 0.601935 0 0 0 0.15 0"/>
<feBlend mode="normal" in2="BackgroundImageFix" result="effect1_dropShadow_10272_1624"/>
<feBlend mode="normal" in="SourceGraphic" in2="effect1_dropShadow_10272_1624" result="shape"/>
</filter>
</defs>
</svg>
