<svg width="1081" height="1080" viewBox="0 0 1081 1080" fill="none" xmlns="http://www.w3.org/2000/svg">
<path fill-rule="evenodd" clip-rule="evenodd" d="M893.871 1062.8L794.69 698.039L815.442 692.397L914.623 1057.16L893.871 1062.8Z" fill="#202C44"/>
<path fill-rule="evenodd" clip-rule="evenodd" d="M534.701 1067.24L633.9 702.483L654.652 708.127L555.453 1072.89L534.701 1067.24Z" fill="#202C44"/>
<path d="M541.245 720.37H643.461V383.129C643.49 380.551 644.541 378.089 646.384 376.285C648.226 374.48 650.709 373.481 653.288 373.505H896.03C897.799 373.491 899.501 374.178 900.764 375.416C902.027 376.655 902.747 378.344 902.767 380.113V663.145C902.767 695.404 876.061 737.952 843.136 737.952H540.837C539.605 737.954 538.385 737.7 537.256 737.204C536.128 736.709 535.115 735.983 534.282 735.074C533.45 734.165 532.816 733.092 532.421 731.924C532.027 730.756 531.88 729.519 531.991 728.291C532.313 726.074 533.429 724.05 535.131 722.593C536.832 721.137 539.005 720.347 541.245 720.37Z" fill="#202C44"/>
<path d="M579.87 720.444H820.947C853.871 720.444 880.577 694.293 880.577 662.035V373.505H631.061C628.483 373.481 626 374.48 624.157 376.285C622.315 378.089 621.263 380.551 621.234 383.129L579.87 720.444Z" fill="#3A4A65"/>
<path fill-rule="evenodd" clip-rule="evenodd" d="M474.512 893.869C490.155 903.776 494.805 924.488 484.898 940.13L460.543 978.589C450.636 994.231 429.924 998.882 414.281 988.975C398.638 979.068 393.988 958.356 403.895 942.714L428.251 904.255C438.157 888.613 458.869 883.962 474.512 893.869Z" fill="#FDC2BF"/>
<path d="M454.261 999.479L425.39 1049.3C424.825 1050.28 424.069 1051.13 423.167 1051.8C422.265 1052.48 421.235 1052.96 420.14 1053.23C419.046 1053.49 417.909 1053.53 416.798 1053.35C415.686 1053.17 414.624 1052.76 413.674 1052.15L279.94 966.74C278.724 965.964 277.675 964.952 276.856 963.764C276.037 962.577 275.464 961.237 275.171 959.824C274.878 958.412 274.87 956.955 275.149 955.539C275.428 954.123 275.987 952.778 276.794 951.582C279.396 947.722 282.942 944.592 287.095 942.489C291.248 940.387 295.87 939.382 300.521 939.571L341.699 941.94C344.985 942.402 348.308 942.532 351.619 942.328L390.614 943.309C396.827 943.556 402.839 945.58 407.937 949.139L454.446 981.601C461.201 986.32 458.388 992.354 454.261 999.479Z" fill="#505F79"/>
<path d="M456.305 984.864C457.852 982.42 446.47 972.438 430.882 962.569C415.295 952.699 401.404 946.68 399.856 949.124C398.309 951.568 409.691 961.55 425.279 971.419C440.867 981.288 454.757 987.308 456.305 984.864Z" fill="#FDC2BF"/>
<path d="M406.494 938.59L399.85 949.102L456.279 984.84L464.255 972.718L406.494 938.59Z" fill="#FDC2BF"/>
<path fill-rule="evenodd" clip-rule="evenodd" d="M654.713 898.772C672.667 898.772 687.221 913.326 687.221 931.28V975.402C687.221 993.355 672.667 1007.91 654.713 1007.91C636.759 1007.91 622.205 993.355 622.205 975.402V931.28C622.205 913.326 636.759 898.772 654.713 898.772Z" fill="#FDC2BF"/>
<path d="M692.894 995.797L695.078 1051.58C695.12 1052.67 694.942 1053.75 694.553 1054.77C694.165 1055.79 693.574 1056.72 692.817 1057.51C692.06 1058.29 691.151 1058.92 690.147 1059.34C689.142 1059.77 688.062 1059.98 686.972 1059.98L533.139 1059.37C531.741 1059.37 530.358 1059.08 529.072 1058.53C527.786 1057.99 526.622 1057.19 525.649 1056.18C524.676 1055.18 523.914 1053.99 523.408 1052.69C522.902 1051.39 522.661 1050 522.7 1048.6C522.818 1044.07 524.094 1039.66 526.408 1035.77C528.722 1031.88 531.995 1028.65 535.915 1026.39L570.857 1007.03C573.792 1005.71 576.583 1004.09 579.185 1002.2L611.573 982.786C616.784 979.769 622.751 978.311 628.766 978.585L683.751 981.047C691.747 981.417 692.579 987.82 692.894 995.797Z" fill="#505F79"/>
<path d="M654.583 987.819C672.47 987.819 686.971 985.549 686.971 982.748C686.971 979.947 672.47 977.677 654.583 977.677C636.696 977.677 622.195 979.947 622.195 982.748C622.195 985.549 636.696 987.819 654.583 987.819Z" fill="#FDC2BF"/>
<path d="M622.195 970.7V982.749H686.971L687.212 968.683L622.195 970.7Z" fill="#FDC2BF"/>
<path fill-rule="evenodd" clip-rule="evenodd" d="M773.466 692.577L644.595 699.114H643.481C643.498 699.114 643.507 699.115 643.507 699.116C643.508 699.131 641.38 699.304 636.956 701.268C632.29 703.339 626.704 706.684 620.854 711.21C608.335 720.894 599.895 731.772 597.157 737.583L596.868 738.197L488.663 951.358L406.198 909.498L513.83 697.465C524.655 674.901 544.233 653.56 564.267 638.062C583.312 623.329 611.482 607.123 642.037 606.644L768.781 600.215L773.466 692.577Z" fill="#073985"/>
<path fill-rule="evenodd" clip-rule="evenodd" d="M737.846 571.307C737.849 571.317 737.852 571.327 782.007 557.598C826.162 543.868 826.166 543.879 826.169 543.891L826.196 543.976L826.243 544.13C826.279 544.247 826.324 544.394 826.377 544.57C826.483 544.921 826.623 545.388 826.791 545.963C827.127 547.111 827.58 548.695 828.113 550.654C829.175 554.559 830.572 560.018 832.003 566.525C834.798 579.242 838.013 597.276 838.678 616.085C839.297 633.552 838.055 658.419 826.338 680.294C820.014 692.1 810.293 703.636 796.078 711.693C781.892 719.733 766.283 722.578 750.926 721.932C750.921 721.932 750.917 721.932 750.913 721.932C747.473 721.788 744.205 721.645 741.087 721.508C728.763 720.969 718.775 720.532 709.799 720.542C704.329 720.548 700.207 720.741 697.131 721.014C696.957 746.496 696.957 797.08 697.003 841.846C697.026 864.601 697.061 885.781 697.09 901.274C697.104 909.02 697.117 915.344 697.126 919.73L697.142 926.56C697.142 926.561 697.142 926.562 650.901 926.671C604.661 926.78 604.661 926.779 604.661 926.778L604.646 919.928C604.636 915.534 604.623 909.202 604.609 901.447C604.58 885.936 604.545 864.728 604.522 841.94C604.476 796.457 604.475 744.397 604.662 718.938C604.792 701.26 608.091 681.822 619.686 664.789C631.92 646.818 649.172 637.622 665.218 633.08C680.173 628.847 696.016 628.077 709.695 628.061C720.939 628.048 733.587 628.605 746.097 629.156C746.319 626.385 746.388 623.111 746.255 619.355C745.863 608.278 743.848 596.252 741.678 586.379C740.626 581.591 739.607 577.623 738.873 574.924C738.508 573.581 738.218 572.57 738.036 571.948C737.945 571.637 737.881 571.425 737.849 571.319C737.835 571.272 737.827 571.245 737.825 571.241L737.832 571.263L737.846 571.307Z" fill="#0747A6"/>
<path fill-rule="evenodd" clip-rule="evenodd" d="M690.236 356.209C703.846 362.755 709.573 379.094 703.028 392.704L619.319 566.765C612.774 580.375 596.435 586.102 582.825 579.557C569.215 573.012 563.488 556.673 570.033 543.063L653.742 369.001C660.287 355.391 676.626 349.664 690.236 356.209Z" fill="#FDC2BF"/>
<path d="M724.95 162.484L747.159 167.148C768.035 166.704 790.947 147.845 802.051 163.798L802.736 162.929C814.599 160.152 829.257 169.684 827.832 210.011C825.981 264.108 801.755 298.495 801.755 298.495C793.399 309.468 781.517 317.226 768.109 320.463C763.91 321.459 759.617 322.005 755.302 322.092H752.119C747.773 322.199 743.428 321.827 739.163 320.981C725.729 318.326 713.605 311.161 704.8 300.673C695.995 290.185 691.037 277.003 690.748 263.312L689.416 199.295C688.898 166.186 691.803 163.169 724.95 162.484Z" fill="#FDC2BF"/>
<path d="M802.809 162.929C792.038 176.791 789.373 168.185 779.101 182.435C775.603 235.2 798.478 233.053 798.478 233.053L800.181 264.349L803.605 266.866L799.718 301.104C799.718 301.104 825.351 269.087 827.905 210.011C829.645 169.702 814.672 160.116 802.809 162.929Z" fill="#2C2A46"/>
<path d="M761.038 339.951C811.415 339.951 852.242 344.319 852.242 349.704V353.054V598.739V602.089C852.242 607.474 811.415 611.842 761.038 611.842C710.661 611.842 669.834 607.474 669.834 602.089V598.739V353.054V349.704C669.834 344.319 710.68 339.951 761.038 339.951Z" fill="#00C6D7"/>
<path d="M844.599 594.409C845.673 543.662 838.64 426.14 838.64 426.14C843.97 434.487 852.298 455.752 852.298 455.752V594.557L844.599 594.409Z" fill="#C8D6E5"/>
<path d="M679.254 580.862C678.662 553.101 671.592 496.172 673.387 458.713C674.868 427.584 685.214 412.686 685.214 412.686C679.883 421.014 669.834 445.999 669.834 445.999V557.728L679.254 580.862Z" fill="#C8D6E5"/>
<path fill-rule="evenodd" clip-rule="evenodd" d="M695.333 348.881C709.648 356.811 714.824 374.843 706.894 389.158C702.897 396.374 697.382 409.001 692.497 420.943C690.149 426.683 688.093 431.899 686.624 435.68C685.891 437.568 685.308 439.089 684.911 440.13C684.712 440.65 684.561 441.049 684.461 441.314L684.32 441.686C684.32 441.687 684.32 441.687 684.32 441.688C678.564 457.006 661.481 464.759 646.163 459.004C630.844 453.249 623.09 436.166 628.845 420.847L656.583 431.266C628.845 420.847 628.845 420.845 628.846 420.844L629.035 420.343C629.152 420.033 629.322 419.585 629.54 419.014C629.975 417.873 630.602 416.237 631.384 414.225C632.945 410.207 635.134 404.651 637.649 398.504C642.489 386.674 649.17 371.068 655.056 360.443C662.986 346.128 681.018 340.952 695.333 348.881Z" fill="#00C6D7"/>
<path d="M754.806 369.538C765.648 369.313 774.288 361.89 774.102 352.958C773.917 344.027 764.977 336.969 754.134 337.194C743.292 337.42 734.652 344.843 734.838 353.774C735.023 362.706 743.963 369.763 754.806 369.538Z" fill="#FDC2BF"/>
<path fill-rule="evenodd" clip-rule="evenodd" d="M754.163 338.656C743.85 338.87 736.135 345.872 736.299 353.744C736.462 361.616 744.461 368.291 754.775 368.077C765.088 367.862 772.803 360.861 772.639 352.989C772.476 345.117 764.477 338.442 754.163 338.656ZM733.375 353.805C733.168 343.813 742.731 335.969 754.103 335.733C765.475 335.496 775.355 342.937 775.563 352.928C775.77 362.919 766.207 370.764 754.835 371C743.463 371.236 733.583 363.796 733.375 353.805Z" fill="white"/>
<path d="M755.079 306.878H751.896C747.549 306.979 743.204 306.6 738.94 305.75L739.2 317.446L739.718 342.783C739.786 346.216 741.214 349.481 743.688 351.862C746.162 354.242 749.481 355.543 752.913 355.479H755.912C759.341 355.401 762.6 353.966 764.973 351.489C767.346 349.012 768.64 345.694 768.571 342.265L768.052 317.465L767.793 305.25C763.625 306.241 759.363 306.787 755.079 306.878Z" fill="#FDC2BF"/>
<path d="M739.403 322.573L739.588 333.251C739.588 333.251 742.568 327.903 753.894 327.607C765.221 327.31 768.441 333.159 768.441 333.159L768.182 320.296H739.311L739.403 322.573Z" fill="#F4B1AF"/>
<path d="M805.492 207.679C805.492 207.679 787.263 196.927 778.342 214.398C769.422 231.869 736.904 232.054 720.877 216.156C704.85 200.258 697.724 232.905 674.331 219.08C650.938 205.255 647.273 160.412 684.603 143.57C721.932 126.728 723.949 163.688 746.695 140.535C769.44 117.382 798.015 148.438 815.875 160.893C828.053 169.314 854.074 152.805 838.917 211.862C827.572 255.984 805.492 207.679 805.492 207.679Z" fill="#2C2A46"/>
<path d="M799.648 269.678L797.908 237.383C797.908 237.383 809.29 231.646 812.492 242.325C815.694 253.003 810.252 267.309 799.648 269.678Z" fill="#FDC2BF"/>
<path d="M827.997 418.644C827.997 418.644 820.41 528.985 813.062 538.646C784.209 576.679 792.167 578.955 761.038 582.693C761.038 582.693 850.04 591.373 852.242 602.015V455.696L827.997 418.644Z" fill="#00BACA"/>
<path fill-rule="evenodd" clip-rule="evenodd" d="M820.07 354.258C834.758 342.397 856.28 344.689 868.141 359.377L841.546 380.852" fill="#00C6D7"/>
<path d="M667.447 579.807H807.381C809.202 579.807 810.949 580.53 812.236 581.818C813.524 583.105 814.247 584.852 814.247 586.673V589.319C814.247 589.992 813.98 590.637 813.505 591.112C813.029 591.588 812.384 591.855 811.712 591.855H667.447V579.807Z" fill="#F3F6FA"/>
<path d="M646.534 446.979L689.23 591.336C689.244 591.385 689.247 591.437 689.238 591.487C689.229 591.538 689.208 591.585 689.178 591.627C689.147 591.668 689.108 591.701 689.062 591.725C689.017 591.748 688.966 591.761 688.915 591.762H499.696C496.548 591.761 493.48 590.769 490.928 588.925C488.377 587.081 486.471 584.479 485.483 581.49L443.897 455.973C443.153 453.721 442.954 451.325 443.317 448.981C443.679 446.638 444.592 444.413 445.982 442.491C447.371 440.569 449.196 439.004 451.308 437.925C453.42 436.845 455.757 436.282 458.129 436.282H632.098C635.337 436.266 638.493 437.3 641.096 439.228C643.698 441.156 645.606 443.876 646.534 446.979Z" fill="#F8FBFB"/>
<path opacity="0.6" d="M568.394 518.566C566.917 515.937 564.885 513.66 562.441 511.892C559.996 510.125 557.197 508.91 554.236 508.332C551.718 507.844 549.158 507.596 546.593 507.592C543.298 507.592 538.857 508.017 536.284 510.09C533.045 512.663 532.694 517.66 535.248 524.156C537.121 529.171 540.319 533.584 544.501 536.926C548.799 539.813 553.818 541.442 558.993 541.627L560.214 544.995C560.439 545.566 560.821 546.061 561.315 546.425C561.81 546.788 562.397 547.005 563.009 547.049H563.175C563.361 547.041 563.544 546.996 563.712 546.916C563.881 546.837 564.031 546.725 564.156 546.587C565.304 545.143 566.821 543.218 568.246 541.219L568.857 540.35C570.066 538.853 571.039 537.18 571.744 535.39C573.188 531.151 571.929 524.877 568.394 518.566Z" fill="#D2DFE6"/>
<path fill-rule="evenodd" clip-rule="evenodd" d="M824.882 354.867C835.92 344.56 853.223 345.152 863.531 356.189L844.087 374.347C863.531 356.189 863.535 356.194 863.539 356.199L863.578 356.24L863.658 356.327C863.722 356.396 863.808 356.488 863.913 356.602C864.125 356.832 864.418 357.152 864.786 357.558C865.522 358.369 866.561 359.526 867.849 360.992C870.422 363.92 874.006 368.102 878.176 373.248C886.456 383.468 897.315 397.825 907.152 413.944C916.818 429.783 926.427 448.815 930.921 468.204C935.399 487.528 935.659 511.523 920.237 531.887C909.83 545.633 894.338 554.23 880.756 559.837C866.613 565.675 851.155 569.624 837.419 572.336C823.549 575.073 810.625 576.703 801.22 577.652C796.494 578.129 792.598 578.44 789.845 578.633C788.466 578.73 787.371 578.798 786.596 578.842C786.208 578.865 785.901 578.881 785.678 578.893C785.567 578.898 785.477 578.903 785.408 578.906L785.322 578.91L785.279 578.913C785.274 578.913 785.269 578.913 784.007 551.598L785.269 578.913C770.183 579.61 757.388 567.945 756.692 552.859C755.995 537.78 767.65 524.99 782.726 524.283C782.728 524.283 782.73 524.283 782.732 524.283C782.734 524.283 782.736 524.282 782.738 524.282C782.738 524.282 782.738 524.282 782.738 524.282L782.746 524.282L782.855 524.276C782.975 524.27 783.177 524.259 783.456 524.243C784.014 524.211 784.879 524.158 786.013 524.079C788.286 523.919 791.624 523.654 795.73 523.24C803.99 522.406 815.124 520.992 826.829 518.682C838.668 516.345 850.302 513.243 859.888 509.285C870.036 505.096 874.911 501.154 876.635 498.875L876.639 498.871C878.309 496.665 880.253 491.809 877.644 480.552C875.05 469.361 868.799 456.083 860.469 442.433C852.31 429.063 843.036 416.751 835.683 407.676C832.036 403.174 828.928 399.551 826.763 397.087C825.682 395.857 824.84 394.92 824.289 394.312C824.013 394.008 823.81 393.787 823.686 393.652C823.625 393.585 823.583 393.54 823.561 393.517L823.56 393.516C823.558 393.513 823.555 393.511 823.553 393.508C823.552 393.507 823.55 393.505 823.548 393.503C823.548 393.502 823.547 393.501 823.546 393.5C813.253 382.462 813.85 365.17 824.882 354.867Z" fill="#FDC2BF"/>
<path d="M700.185 901.446H594.656C587.869 901.446 582.367 906.948 582.367 913.735V941.052C582.367 947.839 587.869 953.34 594.656 953.34H700.185C706.972 953.34 712.474 947.839 712.474 941.052V913.735C712.474 906.948 706.972 901.446 700.185 901.446Z" fill="#0954C4"/>
<path d="M507.56 926.099L416.17 873.335C410.292 869.942 402.776 871.955 399.383 877.833L385.724 901.49C382.331 907.368 384.345 914.884 390.223 918.277L481.613 971.041C487.491 974.435 495.007 972.421 498.4 966.544L512.058 942.886C515.452 937.009 513.438 929.493 507.56 926.099Z" fill="#093679"/>
<path fill-rule="evenodd" clip-rule="evenodd" d="M499.955 1059.37V602.015H521.461V1059.37H499.955Z" fill="#8CA0B3"/>
<path fill-rule="evenodd" clip-rule="evenodd" d="M827.916 350.606C846.002 341.158 868.615 348.181 878.422 366.293C883.366 375.422 893.018 389.857 902.37 403.165C906.865 409.562 911.002 415.293 914.016 419.425C915.521 421.488 916.739 423.143 917.573 424.273C917.99 424.837 918.311 425.27 918.524 425.556L918.823 425.959C918.824 425.96 918.824 425.96 918.825 425.961C931.166 442.499 927.828 465.624 911.368 477.614C894.908 489.605 871.558 485.918 859.215 469.38L889.019 447.67C859.215 469.38 859.215 469.379 859.213 469.378L858.81 468.835C858.561 468.5 858.201 468.015 857.743 467.395C856.828 466.156 855.519 464.377 853.915 462.178C850.712 457.787 846.305 451.682 841.492 444.833C832.227 431.649 820.207 413.949 812.927 400.505C803.12 382.394 809.831 360.053 827.916 350.606Z" fill="#00C6D7"/>
<path fill-rule="evenodd" clip-rule="evenodd" d="M670.834 1080H350.583V1058.49H670.834V1080Z" fill="#8CA0B3"/>
<path d="M415.154 589.764C425.425 589.766 435.373 586.176 443.276 579.615C451.178 573.055 456.537 563.937 458.425 553.841C458.604 552.849 458.563 551.829 458.304 550.855C458.045 549.881 457.574 548.976 456.926 548.204C456.277 547.432 455.467 546.812 454.552 546.388C453.637 545.965 452.64 545.748 451.632 545.753H378.658C377.651 545.751 376.656 545.97 375.742 546.395C374.829 546.819 374.02 547.439 373.372 548.21C372.725 548.982 372.254 549.885 371.994 550.858C371.733 551.831 371.69 552.849 371.866 553.841C373.757 563.938 379.12 573.056 387.025 579.617C394.931 586.177 404.881 589.767 415.154 589.764Z" fill="#212A3C"/>
<path fill-rule="evenodd" clip-rule="evenodd" d="M455.926 553.951C455.926 552.572 457.045 551.453 458.425 551.453H466.42C467.46 551.453 468.459 551.866 469.194 552.602C469.929 553.337 470.342 554.333 470.344 555.372C470.344 555.373 470.344 555.375 470.344 555.377H467.845L470.344 555.367C470.344 555.368 470.344 555.37 470.344 555.372C470.365 561.129 468.1 566.659 464.046 570.748C459.992 574.838 454.479 577.15 448.72 577.178C447.341 577.185 446.217 576.072 446.21 574.692C446.203 573.312 447.317 572.188 448.696 572.181C453.131 572.16 457.375 570.379 460.498 567.23C463.369 564.333 465.075 560.497 465.317 556.45H466.42C466.135 556.45 465.862 556.337 465.661 556.136C465.462 555.936 465.349 555.667 465.347 555.386L467.845 555.377M465.347 555.386C465.348 555.742 465.338 556.097 465.317 556.45H458.425C457.045 556.45 455.926 555.331 455.926 553.951" fill="#212A3C"/>
<path opacity="0.6" d="M420.706 481.2C422.106 480.937 423.547 480.986 424.926 481.345C426.305 481.703 427.588 482.361 428.683 483.272C430.974 485.232 432.582 487.87 433.273 490.805C433.621 492.212 433.832 493.65 433.902 495.099C434.049 496.557 434.049 498.027 433.902 499.485C433.467 502.337 432.574 505.099 431.256 507.665C428.905 512.514 426.222 516.512 424.889 520.879L424.445 522.527L424.13 524.211C423.976 525.251 424.013 526.311 424.241 527.339C424.766 529.772 425.772 532.075 427.202 534.112C424.671 532.921 422.566 530.983 421.169 528.56C420.382 527.224 419.89 525.734 419.725 524.192C419.725 523.489 419.633 522.767 419.596 522.045C419.559 521.324 419.596 520.602 419.707 519.88C420.355 514.069 423.149 509.109 425.259 504.76C426.317 502.756 427.143 500.639 427.721 498.449C428.138 496.235 428.293 493.98 428.183 491.73C428.107 489.528 427.47 487.381 426.332 485.493C425.002 483.462 423.017 481.947 420.706 481.2Z" fill="#80E3EB"/>
<path opacity="0.6" d="M405.143 497.245C406.118 497.067 407.119 497.104 408.078 497.354C409.037 497.603 409.93 498.058 410.695 498.689C412.282 500.063 413.395 501.902 413.878 503.945C414.137 504.913 414.299 505.905 414.359 506.906C414.461 507.921 414.461 508.944 414.359 509.959C414.052 511.946 413.427 513.871 412.509 515.66C410.8 518.629 409.315 521.723 408.067 524.913L407.752 526.061C407.752 526.45 407.641 526.838 407.53 527.227C407.386 527.948 407.386 528.69 407.53 529.411C407.892 531.105 408.591 532.71 409.585 534.13C407.816 533.308 406.348 531.957 405.383 530.262C404.845 529.33 404.505 528.296 404.384 527.227C404.282 526.224 404.282 525.213 404.384 524.21C405.038 520.504 406.348 516.944 408.252 513.698C408.995 512.302 409.573 510.823 409.973 509.293C410.124 508.535 410.229 507.769 410.288 506.998C410.334 506.203 410.334 505.406 410.288 504.611C410.245 503.081 409.805 501.589 409.011 500.28C408.105 498.857 406.74 497.786 405.143 497.245Z" fill="#80E3EB"/>
<path d="M504.749 343.93L522.849 405.134C523.244 406.461 523.324 407.863 523.081 409.226C522.839 410.589 522.28 411.877 521.452 412.987C520.623 414.096 519.546 414.996 518.307 415.616C517.069 416.235 515.702 416.556 514.317 416.553H430.849C428.977 416.549 427.154 415.957 425.637 414.861C424.12 413.765 422.984 412.221 422.391 410.446L402.144 349.26C401.702 347.922 401.584 346.499 401.799 345.106C402.014 343.713 402.557 342.391 403.383 341.25C404.208 340.108 405.293 339.178 406.549 338.537C407.804 337.896 409.193 337.563 410.602 337.564H496.217C498.136 337.561 500.004 338.18 501.542 339.327C503.08 340.475 504.205 342.09 504.749 343.93Z" fill="#80E3EB" fill-opacity="0.4"/>
<path d="M490.572 355.941L508.672 417.127C509.067 418.456 509.146 419.86 508.903 421.226C508.659 422.591 508.099 423.881 507.269 424.992C506.438 426.103 505.359 427.005 504.119 427.625C502.878 428.245 501.509 428.567 500.122 428.564H416.672C414.799 428.565 412.973 427.976 411.455 426.879C409.936 425.783 408.802 424.235 408.214 422.457L387.856 361.272C387.415 359.933 387.297 358.508 387.512 357.114C387.727 355.721 388.27 354.399 389.095 353.255C389.921 352.112 391.005 351.181 392.26 350.538C393.515 349.895 394.904 349.559 396.314 349.556H482.022C483.945 349.557 485.816 350.179 487.357 351.329C488.898 352.48 490.025 354.098 490.572 355.941Z" fill="#80E3EB" fill-opacity="0.5"/>
<path d="M735.997 407.818L749.175 452.346C749.459 453.314 749.514 454.334 749.336 455.327C749.158 456.32 748.751 457.257 748.147 458.065C747.544 458.873 746.761 459.53 745.86 459.983C744.959 460.436 743.965 460.673 742.956 460.675H682.215C680.852 460.672 679.525 460.242 678.419 459.445C677.314 458.648 676.486 457.525 676.052 456.233L661.246 411.686C660.924 410.713 660.837 409.677 660.993 408.664C661.149 407.652 661.543 406.69 662.143 405.859C662.743 405.028 663.531 404.351 664.443 403.884C665.356 403.417 666.366 403.173 667.391 403.172H729.705C731.117 403.155 732.495 403.6 733.631 404.438C734.767 405.277 735.598 406.463 735.997 407.818Z" fill="#80E3EB" fill-opacity="0.4"/>
<path d="M725.67 416.554L738.847 461.082C739.132 462.05 739.187 463.07 739.009 464.063C738.831 465.055 738.424 465.993 737.82 466.801C737.217 467.609 736.434 468.266 735.533 468.719C734.632 469.171 733.637 469.408 732.629 469.411H671.888C670.525 469.408 669.197 468.978 668.092 468.181C666.986 467.384 666.159 466.261 665.725 464.969L650.919 420.422C650.597 419.449 650.51 418.413 650.666 417.4C650.822 416.387 651.216 415.426 651.816 414.595C652.416 413.764 653.204 413.087 654.116 412.62C655.029 412.153 656.039 411.909 657.063 411.908H719.378C720.789 411.891 722.168 412.335 723.304 413.174C724.44 414.013 725.271 415.199 725.67 416.554Z" fill="#80E3EB" fill-opacity="0.5"/>
<path d="M600.691 427.214H557.773C556.989 427.17 556.238 426.888 555.619 426.405C555.001 425.922 554.544 425.261 554.312 424.512L542.078 381.815C541.955 381.516 541.908 381.19 541.943 380.868C541.977 380.546 542.091 380.238 542.275 379.971C542.459 379.704 542.707 379.488 542.996 379.341C543.284 379.195 543.605 379.123 543.929 379.132C544.71 379.177 545.458 379.458 546.076 379.937C546.694 380.416 547.152 381.071 547.39 381.815L558.865 421.828H599.1C599.88 421.873 600.629 422.154 601.246 422.633C601.864 423.112 602.322 423.767 602.56 424.512C602.684 424.814 602.73 425.142 602.694 425.466C602.659 425.79 602.543 426.101 602.357 426.369C602.172 426.637 601.922 426.855 601.631 427.002C601.34 427.15 601.017 427.223 600.691 427.214Z" fill="#E7C3F9"/>
<path opacity="0.6" d="M574.8 415.517C573.494 415.485 572.219 415.115 571.098 414.443C560.327 407.54 556.848 413.74 556.7 414.017C556.494 414.303 556.231 414.542 555.926 414.718C555.621 414.894 555.283 415.003 554.932 415.038C554.582 415.073 554.229 415.033 553.895 414.921C553.562 414.809 553.256 414.627 552.998 414.388C552.363 414.036 551.869 413.475 551.603 412.799C551.336 412.124 551.312 411.377 551.536 410.686C553.498 406.985 560.531 402.191 573.134 410.279C573.541 410.409 575.503 410.075 576.836 405.189C579.556 395.751 587.94 389.699 588.347 389.44C589.016 389.112 589.778 389.028 590.502 389.204C591.225 389.38 591.864 389.804 592.308 390.402C592.569 390.635 592.777 390.92 592.92 391.239C593.063 391.558 593.137 391.903 593.137 392.253C593.137 392.602 593.063 392.948 592.92 393.267C592.777 393.586 592.569 393.871 592.308 394.104C592.308 394.104 584.535 399.656 582.166 407.91C580.87 412.315 578.797 414.869 575.966 415.461C575.58 415.52 575.189 415.539 574.8 415.517Z" fill="#E7C3F9"/>
<path opacity="0.8" d="M554.83 414.906C554.256 414.898 553.694 414.739 553.202 414.444C552.519 414.128 551.963 413.59 551.627 412.917C551.291 412.245 551.193 411.478 551.351 410.742C551.98 409.169 557.643 395.418 567.1 395.418H567.212C569.636 395.418 573.356 396.399 577.428 400.748C580.592 404.154 583.442 405.967 585.867 406.134C587.017 406.139 588.148 405.842 589.149 405.274C590.149 404.706 590.982 403.886 591.567 402.895C591.785 402.623 592.056 402.399 592.364 402.236C592.672 402.074 593.01 401.977 593.357 401.951C593.705 401.925 594.054 401.97 594.382 402.085C594.711 402.2 595.013 402.381 595.269 402.617C595.896 402.975 596.378 403.541 596.632 404.217C596.885 404.893 596.894 405.637 596.657 406.319C595.669 407.957 594.256 409.297 592.568 410.196C590.88 411.096 588.98 411.521 587.07 411.427C582.813 411.149 578.334 408.503 573.745 403.58C571.376 401.044 569.729 400.73 568.692 400.711C563.695 400.711 558.698 408.651 556.718 413.666C556.584 414.052 556.327 414.383 555.985 414.608C555.644 414.832 555.238 414.937 554.83 414.906Z" fill="#E7C3F9"/>
<path d="M703.537 533.186H699.077C697.866 533.117 696.705 532.681 695.747 531.938C694.788 531.194 694.078 530.178 693.71 529.022L693.117 526.931C693.073 526.799 693.002 526.677 692.91 526.572C692.818 526.467 692.706 526.381 692.581 526.32C692.472 526.255 692.347 526.221 692.22 526.221C692.093 526.221 691.968 526.255 691.859 526.32L690.36 527.357C689.319 527.859 688.136 527.982 687.014 527.705C685.892 527.428 684.902 526.768 684.215 525.839L680.884 521.971C680.092 521.101 679.628 519.982 679.57 518.806C679.54 518.317 679.637 517.829 679.851 517.388C680.065 516.947 680.389 516.568 680.792 516.289L682.291 515.234C682.383 515.166 682.451 515.069 682.484 514.959C682.517 514.85 682.514 514.732 682.476 514.624C682.432 514.488 682.363 514.363 682.27 514.255C682.178 514.147 682.066 514.059 681.939 513.994L679.829 512.958C678.747 512.49 677.85 511.677 677.278 510.646C676.706 509.615 676.49 508.424 676.664 507.258L677.793 503.408C678.367 501.409 680.736 500.725 683.049 501.872L685.159 502.908C685.262 502.981 685.385 503.02 685.511 503.02C685.637 503.02 685.76 502.981 685.863 502.908C685.96 502.844 686.031 502.748 686.065 502.636C686.099 502.525 686.093 502.405 686.048 502.298L685.455 500.206C685.265 499.733 685.197 499.219 685.257 498.712C685.318 498.205 685.506 497.722 685.803 497.307C686.1 496.892 686.497 496.558 686.957 496.337C687.417 496.116 687.925 496.015 688.435 496.042H692.877C694.088 496.11 695.251 496.544 696.209 497.288C697.168 498.032 697.878 499.05 698.244 500.206L698.836 502.298C698.881 502.43 698.951 502.552 699.043 502.657C699.135 502.762 699.248 502.847 699.373 502.908C699.481 502.978 699.606 503.015 699.734 503.015C699.862 503.015 699.987 502.978 700.095 502.908L701.612 501.872C702.06 501.592 702.562 501.41 703.086 501.34C703.609 501.27 704.142 501.312 704.647 501.465C705.858 501.769 706.94 502.449 707.738 503.408L711.07 507.258C712.791 509.238 712.92 511.81 711.181 512.958L709.682 513.994C709.585 514.064 709.515 514.164 709.482 514.277C709.448 514.391 709.453 514.513 709.496 514.624C709.537 514.758 709.606 514.882 709.699 514.987C709.791 515.093 709.905 515.177 710.033 515.234L712.125 516.289C713.25 516.842 714.184 517.719 714.808 518.806C715.38 519.756 715.553 520.894 715.289 521.971L714.179 525.839C714.046 526.307 713.794 526.733 713.447 527.074C713.1 527.415 712.669 527.659 712.199 527.782C711.091 528.048 709.925 527.897 708.923 527.357L706.813 526.32C706.705 526.253 706.58 526.217 706.452 526.217C706.324 526.217 706.199 526.253 706.091 526.32C705.997 526.387 705.927 526.483 705.893 526.594C705.86 526.704 705.864 526.823 705.906 526.931L706.517 529.022C706.707 529.496 706.775 530.01 706.715 530.517C706.654 531.023 706.467 531.507 706.17 531.922C705.872 532.337 705.476 532.671 705.015 532.892C704.555 533.113 704.047 533.214 703.537 533.186ZM691.137 522.508C691.964 522.521 692.776 522.731 693.506 523.119C694.289 523.495 694.986 524.028 695.555 524.683C696.125 525.339 696.555 526.104 696.819 526.931L697.411 529.022C697.453 529.153 697.534 529.267 697.643 529.35C697.753 529.433 697.885 529.48 698.022 529.485H702.482C702.538 529.485 702.593 529.472 702.642 529.446C702.692 529.421 702.735 529.384 702.767 529.339C702.8 529.294 702.821 529.241 702.829 529.186C702.838 529.131 702.833 529.075 702.815 529.022L702.26 526.931C702.008 526.261 701.981 525.527 702.181 524.84C702.381 524.153 702.798 523.549 703.37 523.119C704.038 522.717 704.803 522.505 705.582 522.505C706.361 522.505 707.126 522.717 707.794 523.119L709.904 524.155C710.024 524.194 710.154 524.194 710.274 524.155C710.325 524.136 710.371 524.107 710.41 524.069C710.448 524.03 710.477 523.984 710.496 523.933L711.606 520.065C711.634 520.01 711.648 519.95 711.648 519.889C711.648 519.828 711.634 519.768 711.606 519.713C711.548 519.585 711.441 519.486 711.31 519.436L709.2 518.381C708.42 518.004 707.725 517.471 707.159 516.815C706.592 516.16 706.166 515.395 705.906 514.568C705.65 513.896 705.62 513.158 705.82 512.467C706.02 511.776 706.44 511.168 707.016 510.737L708.516 509.701C708.561 509.665 708.597 509.62 708.623 509.569C708.648 509.518 708.662 509.462 708.664 509.405C708.654 509.274 708.602 509.151 708.516 509.053L705.166 505.203C705.086 505.09 704.967 505.011 704.833 504.981C704.72 504.937 704.594 504.937 704.481 504.981L702.982 506.036C702.311 506.43 701.548 506.638 700.77 506.638C699.993 506.638 699.229 506.43 698.559 506.036C697.777 505.654 697.08 505.117 696.511 504.459C695.942 503.801 695.511 503.034 695.246 502.205L694.654 500.114C694.615 499.985 694.538 499.871 694.431 499.788C694.325 499.705 694.196 499.657 694.061 499.651H689.49C689.433 499.647 689.376 499.657 689.323 499.681C689.271 499.705 689.227 499.742 689.193 499.789C689.16 499.835 689.139 499.89 689.132 499.947C689.126 500.003 689.134 500.061 689.157 500.114L689.749 502.205C690.002 502.878 690.031 503.615 689.831 504.305C689.631 504.996 689.212 505.603 688.639 506.036C687.968 506.43 687.205 506.638 686.427 506.638C685.649 506.638 684.886 506.43 684.215 506.036L682.124 504.981C681.846 504.852 681.587 504.981 681.532 505.166L680.403 509.016C680.386 509.147 680.411 509.28 680.474 509.397C680.537 509.513 680.635 509.606 680.755 509.664L682.864 510.7C683.649 511.078 684.348 511.613 684.918 512.272C685.488 512.931 685.917 513.7 686.177 514.531C686.429 515.201 686.457 515.935 686.257 516.622C686.056 517.309 685.639 517.913 685.067 518.344L683.549 519.399C683.506 519.43 683.471 519.472 683.448 519.52C683.426 519.569 683.416 519.623 683.42 519.676C683.418 519.742 683.43 519.807 683.456 519.868C683.481 519.929 683.519 519.983 683.568 520.028L686.899 523.896C686.974 524.002 687.084 524.077 687.21 524.107C687.336 524.138 687.469 524.122 687.584 524.062L689.083 523.026C689.705 522.646 690.428 522.465 691.156 522.508H691.137ZM698.244 522.304C696.102 522.179 694.049 521.403 692.359 520.08C690.669 518.757 689.423 516.951 688.787 514.901C688.437 514.065 688.306 513.153 688.405 512.252C688.505 511.35 688.832 510.489 689.355 509.749C689.879 509.009 690.582 508.414 691.399 508.02C692.216 507.627 693.119 507.447 694.024 507.498C696.167 507.624 698.22 508.4 699.909 509.723C701.599 511.045 702.845 512.852 703.482 514.901C703.831 515.738 703.963 516.649 703.863 517.551C703.764 518.452 703.437 519.313 702.913 520.053C702.389 520.793 701.686 521.388 700.869 521.782C700.053 522.176 699.149 522.356 698.244 522.304ZM695.079 511.311C694.626 511.282 694.174 511.371 693.765 511.567C693.357 511.764 693.005 512.063 692.745 512.434C692.485 512.806 692.325 513.238 692.28 513.69C692.235 514.141 692.306 514.597 692.488 515.012C692.798 516.037 693.415 516.941 694.256 517.604C695.096 518.266 696.121 518.653 697.189 518.714C697.642 518.742 698.094 518.654 698.503 518.457C698.912 518.26 699.263 517.962 699.523 517.59C699.783 517.218 699.944 516.786 699.989 516.335C700.034 515.883 699.962 515.428 699.78 515.012C699.471 513.988 698.854 513.083 698.013 512.421C697.172 511.759 696.148 511.371 695.079 511.311Z" fill="#80E3EB"/>
<path d="M725.375 558.597H722.192C721.324 558.548 720.491 558.238 719.804 557.705C719.116 557.173 718.607 556.445 718.342 555.617L717.916 554.118C717.887 554.021 717.837 553.931 717.77 553.855C717.703 553.778 717.62 553.717 717.528 553.674C717.449 553.629 717.36 553.605 717.269 553.605C717.178 553.605 717.088 553.629 717.009 553.674L715.936 554.414C715.196 554.783 714.349 554.877 713.547 554.68C712.744 554.484 712.036 554.009 711.55 553.341L709.162 550.565C708.592 549.947 708.257 549.147 708.218 548.307C708.189 547.949 708.254 547.59 708.407 547.266C708.559 546.941 708.794 546.662 709.088 546.456L710.162 545.716C710.231 545.668 710.281 545.597 710.304 545.517C710.328 545.436 710.323 545.349 710.291 545.272C710.263 545.174 710.213 545.084 710.146 545.007C710.079 544.93 709.996 544.869 709.903 544.828L708.404 544.069C707.618 543.751 706.965 543.173 706.554 542.432C706.143 541.691 705.999 540.832 706.146 539.997L706.942 537.24C707.349 535.815 709.051 535.389 710.643 536.148L712.142 536.888C712.22 536.935 712.31 536.96 712.401 536.96C712.492 536.96 712.582 536.935 712.66 536.888C712.729 536.84 712.779 536.769 712.803 536.689C712.827 536.608 712.822 536.522 712.79 536.444L712.346 534.945C712.212 534.605 712.166 534.236 712.211 533.874C712.257 533.511 712.393 533.166 712.606 532.869C712.82 532.573 713.105 532.335 713.434 532.177C713.764 532.019 714.127 531.946 714.492 531.965H717.676C718.542 532.012 719.373 532.323 720.058 532.855C720.742 533.388 721.248 534.117 721.507 534.945L721.932 536.444C721.962 536.541 722.012 536.631 722.079 536.707C722.146 536.784 722.229 536.845 722.321 536.888C722.4 536.933 722.489 536.957 722.58 536.957C722.671 536.957 722.76 536.933 722.839 536.888L723.913 536.148C724.232 535.94 724.594 535.805 724.971 535.754C725.349 535.703 725.733 535.736 726.097 535.852C726.962 536.074 727.738 536.559 728.317 537.24L730.686 539.997C731.926 541.422 731.963 543.254 730.779 544.069L729.687 544.828C729.502 544.939 729.539 545.161 729.557 545.272C729.589 545.368 729.64 545.457 729.707 545.533C729.774 545.609 729.855 545.672 729.946 545.716L731.445 546.456C732.234 546.873 732.879 547.518 733.296 548.307C733.521 548.643 733.675 549.022 733.748 549.42C733.822 549.818 733.812 550.226 733.722 550.62L732.907 553.378C732.816 553.715 732.638 554.022 732.391 554.269C732.145 554.515 731.838 554.693 731.501 554.785C730.707 554.977 729.871 554.872 729.15 554.488L727.633 553.73C727.558 553.682 727.471 553.656 727.383 553.656C727.294 553.656 727.208 553.682 727.133 553.73C727.061 553.775 727.009 553.846 726.985 553.927C726.961 554.009 726.968 554.097 727.003 554.174L727.429 555.673C727.552 556.003 727.594 556.357 727.549 556.706C727.504 557.056 727.375 557.389 727.173 557.677C726.971 557.965 726.701 558.199 726.388 558.359C726.074 558.52 725.727 558.601 725.375 558.597ZM716.491 550.954C717.083 550.967 717.665 551.112 718.194 551.379C718.756 551.649 719.256 552.031 719.664 552.502C720.071 552.973 720.377 553.523 720.563 554.118L720.989 555.617C721.021 555.711 721.081 555.792 721.16 555.851C721.239 555.911 721.334 555.945 721.433 555.951H724.616C724.657 555.954 724.698 555.946 724.736 555.929C724.773 555.912 724.806 555.885 724.83 555.852C724.854 555.818 724.869 555.779 724.874 555.738C724.878 555.697 724.873 555.655 724.857 555.617L724.431 554.118C724.245 553.638 724.222 553.109 724.366 552.614C724.51 552.119 724.812 551.685 725.227 551.379C725.706 551.096 726.252 550.946 726.809 550.946C727.366 550.946 727.912 551.096 728.391 551.379L729.891 552.138C729.932 552.155 729.976 552.164 730.02 552.164C730.065 552.164 730.109 552.155 730.15 552.138C730.187 552.127 730.221 552.108 730.25 552.083C730.278 552.057 730.301 552.025 730.316 551.99L731.112 549.232C731.132 549.192 731.142 549.148 731.142 549.103C731.142 549.058 731.132 549.014 731.112 548.973C731.062 548.883 730.984 548.812 730.89 548.77L729.391 548.029C728.833 547.755 728.335 547.371 727.928 546.9C727.522 546.43 727.213 545.882 727.022 545.29C726.839 544.809 726.818 544.282 726.961 543.788C727.105 543.293 727.406 542.859 727.818 542.551L728.891 541.792C728.927 541.772 728.956 541.742 728.975 541.706C728.995 541.67 729.004 541.63 729.002 541.589C729.001 541.543 728.991 541.498 728.972 541.457C728.953 541.416 728.925 541.379 728.891 541.348L726.504 538.572C726.437 538.504 726.354 538.453 726.263 538.424C726.222 538.407 726.178 538.398 726.134 538.398C726.089 538.398 726.045 538.407 726.004 538.424L724.931 539.164C724.451 539.448 723.905 539.597 723.348 539.597C722.792 539.597 722.245 539.448 721.766 539.164C721.206 538.892 720.707 538.509 720.3 538.038C719.893 537.567 719.585 537.019 719.397 536.425L718.971 534.926C718.942 534.834 718.886 534.754 718.81 534.694C718.734 534.635 718.642 534.6 718.546 534.593H715.362C715.321 534.59 715.28 534.597 715.242 534.615C715.205 534.632 715.173 534.659 715.148 534.692C715.124 534.726 715.109 534.765 715.104 534.806C715.1 534.847 715.106 534.888 715.122 534.926L715.547 536.425C715.724 536.907 715.742 537.433 715.599 537.925C715.456 538.418 715.159 538.852 714.752 539.164C714.272 539.448 713.726 539.597 713.169 539.597C712.613 539.597 712.066 539.448 711.587 539.164L710.069 538.424C709.884 538.332 709.699 538.424 709.662 538.535L708.848 541.293C708.835 541.387 708.854 541.484 708.901 541.567C708.947 541.65 709.02 541.716 709.107 541.755L710.606 542.514C711.17 542.781 711.672 543.162 712.08 543.634C712.488 544.105 712.792 544.657 712.975 545.253C713.158 545.734 713.179 546.262 713.035 546.756C712.892 547.25 712.591 547.684 712.179 547.992L711.106 548.733C711.088 548.764 711.078 548.799 711.078 548.834C711.078 548.87 711.088 548.905 711.106 548.936C711.082 549.021 711.082 549.111 711.106 549.195L713.493 551.953C713.554 552.022 713.634 552.071 713.723 552.094C713.812 552.117 713.906 552.113 713.993 552.082L715.066 551.324C715.497 551.068 715.991 550.94 716.491 550.954ZM721.581 550.805C720.053 550.717 718.587 550.167 717.378 549.229C716.169 548.291 715.272 547.008 714.807 545.549C714.57 544.955 714.485 544.312 714.559 543.676C714.633 543.041 714.864 542.434 715.231 541.911C715.599 541.387 716.091 540.964 716.663 540.678C717.235 540.392 717.869 540.254 718.509 540.275C720.04 540.362 721.508 540.914 722.718 541.856C723.928 542.798 724.822 544.086 725.282 545.549C725.52 546.142 725.606 546.785 725.533 547.42C725.459 548.055 725.227 548.661 724.86 549.183C724.492 549.705 723.999 550.128 723.426 550.411C722.854 550.694 722.219 550.83 721.581 550.805ZM719.323 542.921C718.998 542.89 718.671 542.946 718.374 543.083C718.078 543.219 717.823 543.431 717.635 543.698C717.447 543.965 717.333 544.277 717.304 544.602C717.276 544.927 717.334 545.254 717.472 545.549C717.696 546.278 718.14 546.92 718.743 547.387C719.346 547.855 720.079 548.124 720.84 548.159C721.163 548.188 721.487 548.132 721.782 547.996C722.076 547.861 722.329 547.65 722.516 547.386C722.704 547.122 722.818 546.814 722.849 546.491C722.88 546.169 722.825 545.844 722.691 545.549C722.47 544.817 722.028 544.171 721.424 543.7C720.821 543.23 720.087 542.958 719.323 542.921Z" fill="#80E3EB"/>
<path d="M376.869 202.711C432.064 202.711 476.809 157.967 476.809 102.772C476.809 47.5765 432.064 2.83206 376.869 2.83206C321.674 2.83206 276.93 47.5765 276.93 102.772C276.93 157.967 321.674 202.711 376.869 202.711Z" fill="#F8FBFB"/>
<path d="M376.259 193.994H376.24C375.617 193.994 375.111 194.5 375.111 195.123V200.768C375.111 201.392 375.617 201.897 376.24 201.897H376.259C376.882 201.897 377.388 201.392 377.388 200.768V195.123C377.388 194.5 376.882 193.994 376.259 193.994Z" fill="#3A4A65"/>
<path d="M376.259 1.99869H376.24C375.617 1.99869 375.111 2.50414 375.111 3.12764V8.77236C375.111 9.39586 375.617 9.90131 376.24 9.90131H376.259C376.882 9.90131 377.388 9.39586 377.388 8.77236V3.12764C377.388 2.50414 376.882 1.99869 376.259 1.99869Z" fill="#3A4A65"/>
<path d="M475.68 101.476H470.035C469.412 101.476 468.906 101.981 468.906 102.605V102.623C468.906 103.247 469.412 103.752 470.035 103.752H475.68C476.303 103.752 476.809 103.247 476.809 102.623V102.605C476.809 101.981 476.303 101.476 475.68 101.476Z" fill="#3A4A65"/>
<path d="M283.693 101.702L278.048 101.714C277.424 101.715 276.92 102.221 276.921 102.845L276.921 102.863C276.923 103.487 277.429 103.991 278.053 103.99L283.697 103.978C284.321 103.977 284.825 103.47 284.824 102.847L284.824 102.828C284.823 102.205 284.316 101.7 283.693 101.702Z" fill="#3A4A65"/>
<path d="M450.25 171.396C450.039 171.607 449.753 171.725 449.455 171.725C449.156 171.725 448.87 171.607 448.659 171.396L444.661 167.399C444.451 167.187 444.333 166.901 444.333 166.603C444.333 166.305 444.451 166.019 444.661 165.807C444.873 165.597 445.159 165.479 445.457 165.479C445.755 165.479 446.041 165.597 446.253 165.807L450.25 169.805C450.456 170.018 450.571 170.304 450.571 170.6C450.571 170.897 450.456 171.183 450.25 171.396Z" fill="#3A4A65"/>
<path d="M314.74 35.3862C314.529 35.5964 314.243 35.7144 313.944 35.7144C313.646 35.7144 313.36 35.5964 313.149 35.3862L309.169 31.3701C309.064 31.2682 308.98 31.1461 308.922 31.0109C308.865 30.8758 308.835 30.7304 308.835 30.5836C308.835 30.4367 308.865 30.2913 308.922 30.1562C308.98 30.021 309.064 29.8989 309.169 29.797C309.273 29.6907 309.397 29.6062 309.533 29.5484C309.67 29.4907 309.817 29.461 309.965 29.461C310.114 29.461 310.261 29.4907 310.397 29.5484C310.534 29.6062 310.658 29.6907 310.761 29.797L314.74 33.7946C314.846 33.8981 314.931 34.0218 314.989 34.1585C315.046 34.2952 315.076 34.442 315.076 34.5904C315.076 34.7388 315.046 34.8856 314.989 35.0223C314.931 35.159 314.846 35.2827 314.74 35.3862Z" fill="#3A4A65"/>
<path d="M445.684 31.6581L441.745 35.7007C441.31 36.1473 441.319 36.862 441.766 37.2972L441.779 37.3101C442.225 37.7452 442.94 37.736 443.375 37.2895L447.315 33.2468C447.75 32.8003 447.741 32.0856 447.294 31.6504L447.281 31.6375C446.834 31.2024 446.12 31.2116 445.684 31.6581Z" fill="#3A4A65"/>
<path d="M311.456 168.899L307.511 172.936C307.075 173.382 307.083 174.097 307.529 174.533L307.542 174.546C307.988 174.982 308.703 174.973 309.139 174.527L313.084 170.49C313.52 170.044 313.512 169.33 313.066 168.894L313.052 168.881C312.606 168.445 311.892 168.453 311.456 168.899Z" fill="#3A4A65"/>
<path d="M376.869 204.617C353.196 204.62 330.255 196.414 311.955 181.398C293.655 166.381 281.129 145.483 276.511 122.265C271.894 99.047 275.47 74.9463 286.632 54.0702C297.794 33.1941 315.849 16.8347 337.722 7.77995C359.594 -1.27478 383.93 -2.46438 406.581 4.41389C429.232 11.2922 448.798 25.8126 461.942 45.5005C475.087 65.1885 480.997 88.8254 478.666 112.383C476.335 135.941 465.907 157.961 449.158 174.691C439.686 184.211 428.42 191.758 416.011 196.895C403.603 202.032 390.299 204.657 376.869 204.617ZM376.869 4.7379C357.556 4.73424 338.675 10.4579 322.615 21.185C306.555 31.9121 294.037 47.1609 286.644 65.0028C279.25 82.8447 277.314 102.478 281.08 121.421C284.845 140.363 294.143 157.764 307.799 171.421C321.454 185.079 338.852 194.381 357.794 198.15C376.736 201.919 396.37 199.986 414.213 192.596C432.056 185.206 447.308 172.691 458.038 156.633C468.768 140.575 474.495 121.696 474.495 102.383C474.471 76.4946 464.178 51.6734 445.876 33.3644C427.574 15.0554 402.757 4.7537 376.869 4.7194V4.7379Z" fill="#3A4A65"/>
<path fill-rule="evenodd" clip-rule="evenodd" d="M376 102V56H378V102H376Z" fill="#3A4A65"/>
<path opacity="0.5" fill-rule="evenodd" clip-rule="evenodd" d="M426.548 134L377 102.784L377.452 102L427 133.216L426.548 134Z" fill="#125AD5"/>
<path d="M860.904 591.503H160.512C154.707 591.503 150 596.209 150 602.015C150 607.82 154.707 612.527 160.512 612.527H860.904C866.709 612.527 871.416 607.82 871.416 602.015C871.416 596.209 866.709 591.503 860.904 591.503Z" fill="#D78935"/>
</svg>
