<svg width="1080" height="1080" viewBox="0 0 1080 1080" fill="none" xmlns="http://www.w3.org/2000/svg">
<g clip-path="url(#clip0_10272_1627)">
<g opacity="0.06" filter="url(#filter0_f_10272_1627)">
<path d="M871.373 972.579C871.373 990.685 731.017 1005.36 557.88 1005.36C384.743 1005.36 244.387 990.685 244.387 972.579C244.387 954.474 384.743 939.796 557.88 939.796C731.017 939.796 871.373 954.474 871.373 972.579Z" fill="#0A0F1A"/>
</g>
<g style="mix-blend-mode:luminosity" opacity="0.16">
<path d="M908.746 719.096C908.746 719.096 708.979 984.738 483.297 1020.88C257.615 1057.03 153.879 959.849 161.661 855.884C169.443 751.92 203.14 677.32 135.747 595.939C68.3536 514.558 -25.1098 448.979 42.3613 247.764C109.832 46.5488 296.526 -16.7251 415.904 3.62022C535.282 23.9655 545.554 137.017 685.632 166.383C825.711 195.748 1002.13 141.561 1048.82 288.454C1095.52 435.347 1002.13 609.096 908.746 719.096Z" fill="#B9CBD3"/>
</g>
<path d="M316.174 78.039C316.174 36.9001 349.524 3.55029 390.662 3.55029H724.847C765.986 3.55029 799.336 36.9 799.336 78.0389V901.025C799.336 942.164 765.986 975.514 724.847 975.514H390.662C349.524 975.514 316.174 942.164 316.174 901.025V78.039Z" fill="#1A2437"/>
<path d="M346.021 72.1634C346.021 49.724 364.212 31.5332 386.651 31.5332H729.646C752.085 31.5332 770.276 49.7239 770.276 72.1634V904.586C770.276 927.026 752.085 945.216 729.646 945.216H386.651C364.212 945.216 346.021 927.026 346.021 904.586V72.1634Z" fill="#F5F8F9"/>
<path d="M769.716 906.934C769.716 927.939 752.688 944.967 731.683 944.967L383.358 944.967C362.352 944.967 345.325 927.939 345.325 906.934L345.325 882.425L769.716 882.425L769.716 906.934Z" fill="#F8FBFB"/>
<path fill-rule="evenodd" clip-rule="evenodd" d="M769.716 883.058H345.324V881.791H769.716V883.058Z" fill="#D2DFE6"/>
<path fill-rule="evenodd" clip-rule="evenodd" d="M381.807 901.784C379.304 901.784 376.857 902.527 374.775 903.917C372.694 905.308 371.072 907.285 370.114 909.598C369.156 911.911 368.905 914.456 369.393 916.911C369.882 919.366 371.087 921.621 372.857 923.392C374.628 925.162 376.883 926.367 379.338 926.856C381.793 927.344 384.338 927.093 386.651 926.135C388.964 925.177 390.941 923.555 392.332 921.474C393.722 919.392 394.465 916.945 394.465 914.441C394.465 911.085 393.131 907.865 390.758 905.491C388.384 903.118 385.164 901.784 381.807 901.784ZM381.807 925.706C380.337 925.705 378.882 925.413 377.524 924.848C376.167 924.284 374.934 923.457 373.897 922.416C373.076 921.611 372.387 920.682 371.856 919.663C370.712 917.48 370.314 914.983 370.723 912.554C371.132 910.124 372.325 907.895 374.12 906.207C375.915 904.519 378.213 903.466 380.664 903.207C383.114 902.949 385.582 903.499 387.689 904.775C389.797 906.051 391.429 907.982 392.336 910.273C393.243 912.564 393.375 915.089 392.712 917.462C392.048 919.835 390.626 921.926 388.663 923.415C386.7 924.903 384.303 925.708 381.839 925.706H381.807Z" fill="#2CC3D5"/>
<path fill-rule="evenodd" clip-rule="evenodd" d="M377.676 912.984C377.948 912.987 378.216 912.909 378.445 912.76C378.673 912.611 378.852 912.397 378.959 912.146C379.065 911.894 379.095 911.617 379.043 911.349C378.992 911.081 378.862 910.834 378.67 910.64C378.478 910.446 378.233 910.313 377.966 910.259C377.698 910.205 377.421 910.231 377.168 910.335C376.916 910.438 376.7 910.615 376.548 910.841C376.396 911.068 376.315 911.335 376.315 911.608C376.315 911.97 376.458 912.318 376.712 912.576C376.967 912.833 377.313 912.98 377.676 912.984Z" fill="#2CC3D5"/>
<path fill-rule="evenodd" clip-rule="evenodd" d="M386.142 912.984C386.414 912.984 386.68 912.904 386.907 912.752C387.133 912.601 387.31 912.386 387.414 912.135C387.518 911.883 387.545 911.606 387.492 911.339C387.439 911.072 387.308 910.827 387.115 910.635C386.923 910.442 386.678 910.311 386.411 910.258C386.144 910.205 385.867 910.232 385.615 910.336C385.364 910.44 385.149 910.617 384.998 910.843C384.846 911.07 384.766 911.336 384.766 911.608C384.766 911.789 384.801 911.968 384.87 912.135C384.94 912.302 385.041 912.453 385.169 912.581C385.297 912.709 385.448 912.811 385.615 912.88C385.782 912.949 385.961 912.984 386.142 912.984Z" fill="#2CC3D5"/>
<path fill-rule="evenodd" clip-rule="evenodd" d="M381.063 920.025C380.106 919.916 379.184 919.597 378.364 919.091C377.543 918.585 376.845 917.905 376.317 917.098L375.177 917.842C375.809 918.814 376.647 919.635 377.631 920.247C378.615 920.86 379.722 921.249 380.873 921.386C381.168 921.402 381.464 921.402 381.759 921.386C383.076 921.386 384.372 921.058 385.529 920.431C386.687 919.803 387.67 918.897 388.389 917.794L387.234 917.051C386.581 918.069 385.659 918.886 384.569 919.411C383.48 919.936 382.266 920.149 381.063 920.025Z" fill="#2CC3D5"/>
<path d="M407.7 918.175V907.453H414.468V908.503H408.917V912.213H414.149V913.263H408.917V917.126H414.468V918.175H407.7Z" fill="#738192"/>
<path d="M416.4 918.175V910.784H417.601V912.046C417.844 911.58 418.189 911.23 418.635 910.997C419.081 910.764 419.583 910.647 420.141 910.647C421.895 910.647 422.772 911.62 422.772 913.567V918.175H421.54V913.643C421.54 912.954 421.403 912.452 421.13 912.137C420.866 911.813 420.44 911.651 419.852 911.651C419.173 911.651 418.63 911.864 418.225 912.289C417.829 912.705 417.632 913.263 417.632 913.962V918.175H416.4Z" fill="#738192"/>
<path d="M428.009 918.312C427.137 918.312 426.483 918.084 426.047 917.628C425.611 917.161 425.393 916.492 425.393 915.62V911.742H423.949V910.784H425.393V908.518H426.625V910.784H428.967V911.742H426.625V915.499C426.625 916.076 426.747 916.517 426.99 916.822C427.234 917.116 427.629 917.263 428.177 917.263C428.339 917.263 428.501 917.242 428.663 917.202C428.826 917.161 428.973 917.121 429.104 917.08L429.317 918.023C429.185 918.094 428.993 918.16 428.739 918.221C428.486 918.282 428.243 918.312 428.009 918.312Z" fill="#738192"/>
<path d="M433.617 918.312C432.451 918.312 431.529 917.972 430.849 917.293C430.17 916.604 429.83 915.671 429.83 914.495C429.83 913.734 429.982 913.065 430.286 912.487C430.591 911.899 431.006 911.448 431.534 911.134C432.071 910.809 432.689 910.647 433.389 910.647C434.393 910.647 435.179 910.971 435.746 911.62C436.314 912.259 436.598 913.141 436.598 914.267V914.738H431.032C431.072 915.58 431.316 916.223 431.762 916.67C432.208 917.106 432.826 917.324 433.617 917.324C434.063 917.324 434.489 917.258 434.895 917.126C435.3 916.984 435.686 916.756 436.051 916.441L436.476 917.308C436.142 917.623 435.716 917.871 435.199 918.054C434.682 918.226 434.155 918.312 433.617 918.312ZM433.419 911.559C432.72 911.559 432.167 911.777 431.762 912.213C431.356 912.649 431.118 913.222 431.047 913.932H435.533C435.503 913.182 435.305 912.599 434.94 912.183C434.585 911.767 434.078 911.559 433.419 911.559Z" fill="#738192"/>
<path d="M438.381 918.175V910.784H439.582V912.107C439.978 911.215 440.789 910.723 442.016 910.632L442.457 910.586L442.548 911.651L441.772 911.742C441.073 911.803 440.541 912.026 440.176 912.411C439.811 912.786 439.628 913.303 439.628 913.962V918.175H438.381Z" fill="#738192"/>
<path d="M448.589 920.913L449.852 918.054L446.734 910.784H448.072L450.521 916.776L452.985 910.784H454.278L449.882 920.913H448.589Z" fill="#738192"/>
<path d="M458.518 918.312C457.798 918.312 457.175 918.155 456.648 917.841C456.12 917.526 455.71 917.085 455.416 916.517C455.132 915.94 454.99 915.26 454.99 914.48C454.99 913.699 455.132 913.025 455.416 912.457C455.71 911.879 456.12 911.433 456.648 911.118C457.175 910.804 457.798 910.647 458.518 910.647C459.228 910.647 459.846 910.804 460.374 911.118C460.911 911.433 461.322 911.879 461.606 912.457C461.9 913.025 462.047 913.699 462.047 914.48C462.047 915.26 461.9 915.94 461.606 916.517C461.322 917.085 460.911 917.526 460.374 917.841C459.846 918.155 459.228 918.312 458.518 918.312ZM458.518 917.324C459.208 917.324 459.76 917.08 460.176 916.594C460.592 916.097 460.8 915.392 460.8 914.48C460.8 913.557 460.592 912.852 460.176 912.366C459.76 911.879 459.208 911.636 458.518 911.636C457.819 911.636 457.261 911.879 456.845 912.366C456.44 912.852 456.237 913.557 456.237 914.48C456.237 915.392 456.44 916.097 456.845 916.594C457.261 917.08 457.819 917.324 458.518 917.324Z" fill="#738192"/>
<path d="M466.513 918.312C464.739 918.312 463.851 917.334 463.851 915.377V910.784H465.083V915.362C465.083 916.021 465.215 916.507 465.479 916.822C465.752 917.136 466.178 917.293 466.756 917.293C467.385 917.293 467.897 917.085 468.292 916.67C468.688 916.244 468.885 915.681 468.885 914.981V910.784H470.117V918.175H468.916V916.928C468.683 917.374 468.353 917.719 467.927 917.962C467.512 918.196 467.04 918.312 466.513 918.312Z" fill="#738192"/>
<path d="M472.422 918.175V910.784H473.624V912.107C474.019 911.215 474.83 910.723 476.057 910.632L476.498 910.586L476.589 911.651L475.814 911.742C475.114 911.803 474.582 912.026 474.217 912.411C473.852 912.786 473.669 913.303 473.669 913.962V918.175H472.422Z" fill="#738192"/>
<path d="M481.809 918.175V910.784H483.011V912.031C483.234 911.585 483.543 911.245 483.939 911.012C484.334 910.769 484.795 910.647 485.323 910.647C486.478 910.647 487.219 911.149 487.543 912.153C487.766 911.686 488.096 911.321 488.532 911.058C488.968 910.784 489.47 910.647 490.037 910.647C491.68 910.647 492.501 911.62 492.501 913.567V918.175H491.269V913.628C491.269 912.949 491.148 912.452 490.904 912.137C490.671 911.813 490.281 911.651 489.733 911.651C489.135 911.651 488.658 911.864 488.304 912.289C487.949 912.715 487.771 913.283 487.771 913.993V918.175H486.539V913.628C486.539 912.949 486.418 912.452 486.174 912.137C485.941 911.813 485.551 911.651 485.003 911.651C484.395 911.651 483.913 911.864 483.558 912.289C483.214 912.715 483.041 913.283 483.041 913.993V918.175H481.809Z" fill="#738192"/>
<path d="M498.135 918.312C496.969 918.312 496.046 917.972 495.367 917.293C494.688 916.604 494.348 915.671 494.348 914.495C494.348 913.734 494.5 913.065 494.804 912.487C495.109 911.899 495.524 911.448 496.052 911.134C496.589 910.809 497.207 910.647 497.907 910.647C498.911 910.647 499.697 910.971 500.264 911.62C500.832 912.259 501.116 913.141 501.116 914.267V914.738H495.55C495.59 915.58 495.834 916.223 496.28 916.67C496.726 917.106 497.344 917.324 498.135 917.324C498.581 917.324 499.007 917.258 499.413 917.126C499.818 916.984 500.203 916.756 500.568 916.441L500.994 917.308C500.66 917.623 500.234 917.871 499.717 918.054C499.2 918.226 498.672 918.312 498.135 918.312ZM497.937 911.559C497.238 911.559 496.685 911.777 496.28 912.213C495.874 912.649 495.636 913.222 495.565 913.932H500.051C500.021 913.182 499.823 912.599 499.458 912.183C499.103 911.767 498.596 911.559 497.937 911.559Z" fill="#738192"/>
<path d="M505.393 918.312C504.815 918.312 504.268 918.231 503.751 918.069C503.233 917.907 502.808 917.678 502.473 917.384L502.868 916.517C503.233 916.812 503.634 917.03 504.07 917.171C504.516 917.303 504.967 917.369 505.423 917.369C506.001 917.369 506.437 917.263 506.731 917.05C507.025 916.837 507.172 916.548 507.172 916.183C507.172 915.899 507.076 915.676 506.884 915.514C506.691 915.341 506.387 915.21 505.971 915.118L504.587 914.814C503.33 914.54 502.701 913.891 502.701 912.867C502.701 912.198 502.965 911.661 503.492 911.255C504.029 910.85 504.729 910.647 505.591 910.647C506.098 910.647 506.579 910.728 507.036 910.89C507.502 911.042 507.887 911.27 508.191 911.575L507.781 912.442C507.487 912.168 507.142 911.96 506.747 911.818C506.361 911.666 505.976 911.59 505.591 911.59C505.023 911.59 504.592 911.701 504.298 911.924C504.004 912.148 503.857 912.442 503.857 912.807C503.857 913.374 504.232 913.739 504.982 913.902L506.366 914.191C507.015 914.333 507.507 914.561 507.842 914.875C508.176 915.179 508.344 915.595 508.344 916.122C508.344 916.801 508.075 917.339 507.537 917.734C507 918.119 506.285 918.312 505.393 918.312Z" fill="#738192"/>
<path d="M512.715 918.312C512.137 918.312 511.59 918.231 511.073 918.069C510.556 917.907 510.13 917.678 509.795 917.384L510.191 916.517C510.556 916.812 510.956 917.03 511.392 917.171C511.838 917.303 512.289 917.369 512.746 917.369C513.324 917.369 513.76 917.263 514.054 917.05C514.348 916.837 514.495 916.548 514.495 916.183C514.495 915.899 514.398 915.676 514.206 915.514C514.013 915.341 513.709 915.21 513.293 915.118L511.909 914.814C510.652 914.54 510.023 913.891 510.023 912.867C510.023 912.198 510.287 911.661 510.814 911.255C511.351 910.85 512.051 910.647 512.913 910.647C513.42 910.647 513.901 910.728 514.358 910.89C514.824 911.042 515.209 911.27 515.514 911.575L515.103 912.442C514.809 912.168 514.464 911.96 514.069 911.818C513.683 911.666 513.298 911.59 512.913 911.59C512.345 911.59 511.914 911.701 511.62 911.924C511.326 912.148 511.179 912.442 511.179 912.807C511.179 913.374 511.554 913.739 512.305 913.902L513.689 914.191C514.337 914.333 514.829 914.561 515.164 914.875C515.498 915.179 515.666 915.595 515.666 916.122C515.666 916.801 515.397 917.339 514.86 917.734C514.322 918.119 513.607 918.312 512.715 918.312Z" fill="#738192"/>
<path d="M519.87 918.312C519.363 918.312 518.907 918.216 518.501 918.023C518.106 917.82 517.792 917.547 517.558 917.202C517.325 916.857 517.209 916.472 517.209 916.046C517.209 915.509 517.345 915.083 517.619 914.768C517.903 914.454 518.364 914.231 519.003 914.099C519.652 913.957 520.534 913.886 521.649 913.886H522.136V913.415C522.136 912.786 522.004 912.335 521.741 912.061C521.487 911.777 521.077 911.636 520.509 911.636C520.063 911.636 519.632 911.701 519.216 911.833C518.8 911.955 518.375 912.158 517.939 912.442L517.513 911.544C517.898 911.27 518.364 911.053 518.912 910.89C519.47 910.728 520.002 910.647 520.509 910.647C521.462 910.647 522.167 910.88 522.623 911.347C523.089 911.813 523.322 912.538 523.322 913.521V918.175H522.167V916.898C521.974 917.334 521.675 917.678 521.269 917.932C520.874 918.185 520.407 918.312 519.87 918.312ZM520.068 917.384C520.676 917.384 521.173 917.177 521.558 916.761C521.943 916.335 522.136 915.798 522.136 915.149V914.692H521.665C520.843 914.692 520.194 914.733 519.718 914.814C519.252 914.885 518.922 915.017 518.729 915.21C518.547 915.392 518.456 915.646 518.456 915.97C518.456 916.386 518.598 916.725 518.881 916.989C519.175 917.253 519.571 917.384 520.068 917.384Z" fill="#738192"/>
<path d="M528.878 921.05C528.239 921.05 527.636 920.963 527.068 920.791C526.51 920.629 526.013 920.38 525.577 920.046L525.988 919.149C526.444 919.473 526.896 919.706 527.342 919.848C527.798 919.99 528.29 920.061 528.817 920.061C530.277 920.061 531.007 919.311 531.007 917.81V916.502C530.794 916.969 530.459 917.339 530.003 917.613C529.557 917.876 529.045 918.008 528.467 918.008C527.788 918.008 527.2 917.851 526.703 917.536C526.206 917.222 525.821 916.791 525.547 916.244C525.283 915.686 525.152 915.042 525.152 914.312C525.152 913.582 525.283 912.943 525.547 912.396C525.821 911.838 526.206 911.407 526.703 911.103C527.2 910.799 527.788 910.647 528.467 910.647C529.045 910.647 529.557 910.779 530.003 911.042C530.459 911.306 530.794 911.666 531.007 912.122V910.784H532.208V917.643C532.208 918.778 531.925 919.63 531.357 920.198C530.799 920.766 529.973 921.05 528.878 921.05ZM528.695 917.004C529.405 917.004 529.968 916.761 530.383 916.274C530.799 915.787 531.007 915.133 531.007 914.312C531.007 913.491 530.799 912.842 530.383 912.366C529.968 911.879 529.405 911.636 528.695 911.636C527.996 911.636 527.438 911.879 527.022 912.366C526.607 912.842 526.399 913.491 526.399 914.312C526.399 915.133 526.607 915.787 527.022 916.274C527.438 916.761 527.996 917.004 528.695 917.004Z" fill="#738192"/>
<path d="M537.85 918.312C536.684 918.312 535.761 917.972 535.082 917.293C534.403 916.604 534.063 915.671 534.063 914.495C534.063 913.734 534.215 913.065 534.519 912.487C534.823 911.899 535.239 911.448 535.766 911.134C536.304 910.809 536.922 910.647 537.622 910.647C538.626 910.647 539.411 910.971 539.979 911.62C540.547 912.259 540.831 913.141 540.831 914.267V914.738H535.264C535.305 915.58 535.548 916.223 535.994 916.67C536.441 917.106 537.059 917.324 537.85 917.324C538.296 917.324 538.722 917.258 539.127 917.126C539.533 916.984 539.918 916.756 540.283 916.441L540.709 917.308C540.374 917.623 539.949 917.871 539.432 918.054C538.914 918.226 538.387 918.312 537.85 918.312ZM537.652 911.559C536.953 911.559 536.4 911.777 535.994 912.213C535.589 912.649 535.351 913.222 535.28 913.932H539.766C539.736 913.182 539.538 912.599 539.173 912.183C538.818 911.767 538.311 911.559 537.652 911.559Z" fill="#738192"/>
<path d="M546.52 918.175V907.453H547.752V912.001C547.995 911.554 548.335 911.22 548.771 910.997C549.217 910.764 549.714 910.647 550.261 910.647C552.015 910.647 552.892 911.62 552.892 913.567V918.175H551.66V913.643C551.66 912.954 551.523 912.452 551.25 912.137C550.986 911.813 550.56 911.651 549.972 911.651C549.293 911.651 548.75 911.864 548.345 912.289C547.949 912.705 547.752 913.263 547.752 913.962V918.175H546.52Z" fill="#738192"/>
<path d="M558.494 918.312C557.328 918.312 556.406 917.972 555.726 917.293C555.047 916.604 554.707 915.671 554.707 914.495C554.707 913.734 554.86 913.065 555.164 912.487C555.468 911.899 555.884 911.448 556.411 911.134C556.948 910.809 557.567 910.647 558.266 910.647C559.27 910.647 560.056 910.971 560.624 911.62C561.191 912.259 561.475 913.141 561.475 914.267V914.738H555.909C555.95 915.58 556.193 916.223 556.639 916.67C557.085 917.106 557.704 917.324 558.494 917.324C558.941 917.324 559.366 917.258 559.772 917.126C560.178 916.984 560.563 916.756 560.928 916.441L561.354 917.308C561.019 917.623 560.593 917.871 560.076 918.054C559.559 918.226 559.032 918.312 558.494 918.312ZM558.297 911.559C557.597 911.559 557.045 911.777 556.639 912.213C556.233 912.649 555.995 913.222 555.924 913.932H560.411C560.38 913.182 560.183 912.599 559.818 912.183C559.463 911.767 558.956 911.559 558.297 911.559Z" fill="#738192"/>
<path d="M563.258 918.175V910.784H564.46V912.107C564.855 911.215 565.666 910.723 566.893 910.632L567.334 910.586L567.425 911.651L566.65 911.742C565.95 911.803 565.418 912.026 565.053 912.411C564.688 912.786 564.505 913.303 564.505 913.962V918.175H563.258Z" fill="#738192"/>
<path d="M571.951 918.312C570.785 918.312 569.862 917.972 569.183 917.293C568.503 916.604 568.164 915.671 568.164 914.495C568.164 913.734 568.316 913.065 568.62 912.487C568.924 911.899 569.34 911.448 569.867 911.134C570.404 910.809 571.023 910.647 571.722 910.647C572.726 910.647 573.512 910.971 574.08 911.62C574.648 912.259 574.931 913.141 574.931 914.267V914.738H569.365C569.406 915.58 569.649 916.223 570.095 916.67C570.541 917.106 571.16 917.324 571.951 917.324C572.397 917.324 572.822 917.258 573.228 917.126C573.634 916.984 574.019 916.756 574.384 916.441L574.81 917.308C574.475 917.623 574.049 917.871 573.532 918.054C573.015 918.226 572.488 918.312 571.951 918.312ZM571.753 911.559C571.053 911.559 570.501 911.777 570.095 912.213C569.689 912.649 569.451 913.222 569.38 913.932H573.867C573.836 913.182 573.639 912.599 573.274 912.183C572.919 911.767 572.412 911.559 571.753 911.559Z" fill="#738192"/>
<path d="M346.052 69.2768C346.052 48.2717 363.08 31.2437 384.085 31.2437H732.276C753.281 31.2437 770.309 48.2717 770.309 69.2768V83.3619H346.052V69.2768Z" fill="#2498A8"/>
<path d="M770.444 82.8706H346.052V142.434H770.444V82.8706Z" fill="#2CC3D5"/>
<path d="M745.106 112.407L751.554 105.941C751.713 105.742 751.793 105.491 751.778 105.236C751.763 104.982 751.655 104.742 751.474 104.562C751.293 104.383 751.052 104.276 750.797 104.264C750.542 104.251 750.292 104.333 750.094 104.494L743.641 110.942L737.189 104.494C737.098 104.38 736.985 104.287 736.856 104.22C736.727 104.154 736.585 104.115 736.44 104.106C736.295 104.098 736.15 104.12 736.015 104.171C735.879 104.223 735.755 104.302 735.652 104.404C735.549 104.506 735.469 104.629 735.416 104.765C735.364 104.9 735.34 105.045 735.347 105.19C735.355 105.335 735.392 105.477 735.458 105.606C735.524 105.736 735.616 105.85 735.729 105.941L742.177 112.394L735.729 118.859C735.585 119.004 735.487 119.188 735.448 119.388C735.409 119.588 735.43 119.796 735.508 119.984C735.586 120.172 735.718 120.333 735.888 120.447C736.057 120.56 736.257 120.621 736.461 120.621C736.596 120.622 736.73 120.596 736.855 120.544C736.98 120.492 737.094 120.416 737.189 120.319L743.641 113.867L750.094 120.319C750.189 120.416 750.303 120.492 750.428 120.544C750.553 120.596 750.687 120.622 750.822 120.621C751.026 120.621 751.225 120.56 751.395 120.447C751.564 120.333 751.697 120.172 751.775 119.984C751.853 119.796 751.874 119.588 751.835 119.388C751.795 119.188 751.698 119.004 751.554 118.859L745.106 112.407Z" fill="black"/>
<path d="M370.671 120.15C370.567 120.149 370.464 120.126 370.37 120.081C370.276 120.037 370.193 119.972 370.126 119.893L365.143 113.957C364.923 113.696 364.803 113.366 364.803 113.024C364.803 112.683 364.923 112.353 365.143 112.092L370.126 106.156C370.252 106.017 370.426 105.931 370.614 105.917C370.801 105.904 370.986 105.964 371.13 106.085C371.274 106.205 371.366 106.377 371.385 106.564C371.405 106.751 371.351 106.938 371.235 107.086L366.252 113.024L371.227 118.963C371.316 119.068 371.373 119.197 371.391 119.334C371.409 119.471 371.388 119.61 371.329 119.735C371.271 119.86 371.178 119.966 371.061 120.039C370.944 120.113 370.809 120.151 370.671 120.15Z" fill="black"/>
<path d="M439.333 31.2437H675.587V34.9521C675.587 52.6317 661.255 66.9638 643.575 66.9638H471.344C453.665 66.9638 439.333 52.6317 439.333 34.9521V31.2437Z" fill="#1A2437"/>
<path opacity="0.7" fill-rule="evenodd" clip-rule="evenodd" d="M707.675 54.0798C704.905 54.0798 702.245 55.1611 700.26 57.0935L698.004 54.8661C700.582 52.3365 704.049 50.9194 707.661 50.9194C711.273 50.9194 714.74 52.3365 717.318 54.8661L715.09 57.0935C713.106 55.1611 710.445 54.0798 707.675 54.0798ZM693.018 50.9197H689.691V63.0997H693.018V50.9197ZM684.926 53.3445H688.253V63.0997H684.926V53.3445ZM683.488 55.4579H680.161V63.0986H683.488V55.4579ZM678.694 57.6575H675.367V63.099H678.694V57.6575ZM703.251 60.1106C704.435 58.9567 706.024 58.311 707.677 58.311C709.331 58.311 710.919 58.9567 712.104 60.1106L714.331 57.8551C712.551 56.1191 710.164 55.1475 707.677 55.1475C705.191 55.1475 702.803 56.1191 701.023 57.8551L703.251 60.1106ZM707.677 62.5358C707.145 62.5411 706.633 62.7418 706.239 63.0997L703.983 60.8441C704.984 59.9049 706.304 59.3808 707.677 59.378C709.041 59.3823 710.352 59.9066 711.342 60.8441L709.087 63.0997C708.703 62.7437 708.2 62.5427 707.677 62.5358ZM742.582 52.3849H722.621C722.278 52.3849 722.001 52.6626 722.001 53.0052V60.9842C722.001 61.3268 722.278 61.6045 722.621 61.6045H742.582C742.925 61.6045 743.203 61.3268 743.203 60.9842V53.0052C743.203 52.6626 742.925 52.3849 742.582 52.3849ZM744.302 55.0084H744.753C745.096 55.0084 745.373 55.2861 745.373 55.6287V58.3635C745.373 58.7061 745.096 58.9838 744.753 58.9838H744.302C743.96 58.9838 743.682 58.7061 743.682 58.3635V55.6287C743.682 55.2861 743.96 55.0084 744.302 55.0084ZM370.101 57.8531C370.109 57.4269 370.248 57.0135 370.501 56.6701C370.753 56.3266 371.106 56.0701 371.511 55.9359C371.182 55.8098 370.898 55.5905 370.693 55.305C370.487 55.0195 370.37 54.6802 370.355 54.3288C370.368 54.0554 370.438 53.7877 370.559 53.5423C370.68 53.2969 370.851 53.0789 371.059 52.9018C371.268 52.7248 371.511 52.5924 371.773 52.513C372.035 52.4335 372.31 52.4086 372.582 52.4398C372.836 52.4041 373.095 52.4221 373.342 52.4927C373.588 52.5634 373.817 52.685 374.014 52.8498C374.211 53.0146 374.371 53.2188 374.483 53.4493C374.596 53.6798 374.659 53.9314 374.669 54.1878C374.662 54.5522 374.546 54.9062 374.334 55.2031C374.123 55.5001 373.827 55.726 373.484 55.8513C373.892 55.9565 374.254 56.193 374.514 56.5242C374.773 56.8554 374.917 57.2629 374.922 57.6839C374.909 57.9831 374.834 58.2763 374.703 58.5456C374.572 58.8149 374.387 59.0546 374.16 59.25C373.933 59.4453 373.668 59.5922 373.382 59.6817C373.097 59.7712 372.796 59.8013 372.498 59.7703C371.003 59.7985 370.101 58.8963 370.101 57.8531ZM373.936 57.8531C373.936 56.9791 373.343 56.5561 372.385 56.2742C372.028 56.3332 371.704 56.5148 371.467 56.7876C371.23 57.0604 371.096 57.4074 371.088 57.7685C371.083 57.9548 371.118 58.14 371.19 58.3119C371.261 58.4839 371.369 58.6388 371.504 58.7665C371.64 58.8942 371.801 58.9919 371.977 59.0531C372.153 59.1143 372.34 59.1377 372.526 59.1218C372.703 59.1373 372.881 59.1162 373.05 59.0598C373.219 59.0033 373.374 58.9128 373.506 58.7938C373.639 58.6748 373.745 58.5299 373.819 58.3681C373.893 58.2062 373.932 58.0309 373.936 57.8531ZM371.285 54.2724C371.285 54.9772 371.821 55.372 372.639 55.5975C372.936 55.5263 373.203 55.3622 373.401 55.129C373.598 54.8958 373.717 54.6056 373.738 54.3006C373.747 54.1404 373.721 53.9803 373.663 53.8309C373.604 53.6814 373.515 53.5462 373.4 53.4341C373.285 53.322 373.148 53.2357 372.997 53.1809C372.846 53.1262 372.686 53.1042 372.526 53.1164C372.368 53.1006 372.21 53.118 372.06 53.1676C371.909 53.2171 371.771 53.2977 371.654 53.4041C371.537 53.5104 371.444 53.6401 371.38 53.7849C371.317 53.9296 371.284 54.0861 371.285 54.2442V54.2724ZM378.327 54.7694C378.205 54.891 378.137 55.056 378.137 55.228C378.137 55.3999 378.205 55.5649 378.327 55.6865C378.449 55.8081 378.614 55.8764 378.786 55.8764C378.958 55.8764 379.123 55.8081 379.244 55.6865C379.366 55.5649 379.434 55.3999 379.434 55.228C379.434 55.056 379.366 54.891 379.244 54.7694C379.123 54.6478 378.958 54.5795 378.786 54.5795C378.614 54.5795 378.449 54.6478 378.327 54.7694ZM378.327 58.6603C378.205 58.7819 378.137 58.9468 378.137 59.1188C378.137 59.2908 378.205 59.4557 378.327 59.5773C378.449 59.6989 378.614 59.7673 378.786 59.7673C378.958 59.7673 379.123 59.6989 379.244 59.5773C379.366 59.4557 379.434 59.2908 379.434 59.1188C379.434 58.9468 379.366 58.7819 379.244 58.6603C379.123 58.5386 378.958 58.4703 378.786 58.4703C378.614 58.4703 378.449 58.5386 378.327 58.6603ZM382.759 58.5556C383.244 58.8487 383.8 59.0046 384.366 59.0067C385.607 59.0067 385.973 58.2173 385.973 57.6252C385.973 57.0331 385.071 56.1873 384.113 56.1873H383.577V55.4542H384.113C384.818 55.4542 385.72 55.1159 385.72 54.27C385.72 53.4242 385.353 53.1705 384.451 53.1705C383.944 53.1857 383.453 53.3526 383.041 53.6498L382.788 52.9449C383.341 52.5858 383.989 52.3993 384.648 52.4092C386.058 52.4092 386.707 53.2268 386.707 54.1009C386.692 54.4864 386.556 54.8576 386.318 55.1613C386.08 55.4651 385.752 55.686 385.381 55.7925C385.825 55.8536 386.232 56.0725 386.527 56.4091C386.822 56.7457 386.986 57.1775 386.988 57.6252C386.988 58.753 386.086 59.768 384.366 59.768C383.714 59.7793 383.071 59.6136 382.506 59.2886L382.759 58.5556ZM392.684 59.7958C394.263 59.7958 395.165 58.4424 395.165 56.0177C395.165 53.734 394.263 52.4088 392.797 52.4088C391.331 52.4088 390.316 53.7622 390.316 56.1305C390.316 58.4988 391.105 59.7958 392.684 59.7958ZM391.274 56.0697C391.285 57.8964 391.847 58.8372 392.74 58.8372C393.643 58.8372 394.207 57.6812 394.207 55.8767C394.207 54.0723 393.755 53.0573 392.74 53.0573C391.736 53.0573 391.284 54.1616 391.274 56.0697Z" fill="#F5F8F9"/>
<g opacity="0.2">
<path d="M578.04 44.3604H506.613C504.873 44.3604 503.462 45.7712 503.462 47.5116C503.462 49.2519 504.873 50.6628 506.613 50.6628H578.04C579.781 50.6628 581.192 49.2519 581.192 47.5116C581.192 45.7712 579.781 44.3604 578.04 44.3604Z" fill="#F8FBFB"/>
<path d="M612.141 48.8129C612.147 49.7024 611.888 50.5736 611.398 51.3157C610.908 52.0579 610.208 52.6374 609.387 52.9807C608.567 53.3239 607.662 53.4154 606.79 53.2433C605.917 53.0713 605.115 52.6437 604.486 52.0147C603.857 51.3857 603.43 50.5839 603.258 49.7113C603.086 48.8386 603.177 47.9344 603.52 47.1139C603.864 46.2933 604.443 45.5933 605.185 45.103C605.927 44.6127 606.799 44.3543 607.688 44.3605C608.869 44.3605 610.002 44.8296 610.837 45.6646C611.672 46.4996 612.141 47.6321 612.141 48.8129Z" fill="#F8FBFB"/>
</g>
<g filter="url(#filter1_d_10272_1627)">
<path d="M654.321 655.836C654.321 646.39 661.978 638.732 671.425 638.732H732.979C742.425 638.732 750.083 646.39 750.083 655.836V679.871C750.083 682.908 747.621 685.369 744.585 685.369H671.425C661.978 685.369 654.321 677.711 654.321 668.265V655.836Z" fill="white"/>
</g>
<path d="M716.005 665.97C717.998 658.347 713.434 650.552 705.811 648.559C698.187 646.566 690.392 651.131 688.399 658.754C686.406 666.377 690.971 674.172 698.594 676.165C706.217 678.158 714.012 673.593 716.005 665.97Z" fill="#F9B42F"/>
<path d="M697.58 659.751C697.58 660.717 696.921 661.501 696.113 661.501C695.305 661.501 694.649 660.717 694.649 659.751C694.649 658.785 695.309 658 696.113 658C696.917 658 697.58 658.785 697.58 659.751Z" fill="#2C2A46"/>
<path d="M709.275 661.515C709.153 661.519 709.035 661.475 708.945 661.393C707.989 660.513 706.582 661.202 706.565 661.212C706.475 661.254 706.374 661.266 706.276 661.247C706.179 661.227 706.09 661.177 706.023 661.103C705.956 661.029 705.915 660.936 705.905 660.837C705.895 660.737 705.918 660.638 705.969 660.552C706.33 660.003 706.83 659.559 707.418 659.265C708.006 658.97 708.662 658.837 709.318 658.878C709.379 658.882 709.439 658.898 709.493 658.926C709.548 658.953 709.597 658.991 709.637 659.037C709.677 659.083 709.708 659.137 709.727 659.195C709.746 659.253 709.754 659.314 709.75 659.376C709.745 659.437 709.729 659.496 709.702 659.551C709.674 659.606 709.637 659.654 709.59 659.695C709.544 659.735 709.49 659.765 709.432 659.785C709.374 659.804 709.313 659.812 709.252 659.807C708.817 659.781 708.382 659.858 707.983 660.032C708.576 660.071 709.139 660.313 709.575 660.717C709.62 660.759 709.657 660.809 709.683 660.864C709.709 660.92 709.723 660.98 709.726 661.041C709.728 661.103 709.718 661.164 709.697 661.221C709.676 661.279 709.643 661.332 709.601 661.376C709.559 661.42 709.508 661.455 709.452 661.479C709.396 661.503 709.336 661.515 709.275 661.515Z" fill="#2C2A46"/>
<path d="M703.186 671.648C701.634 671.648 700.127 671.132 698.901 670.181C698.765 670.065 698.679 669.9 698.661 669.722C698.642 669.544 698.693 669.365 698.803 669.224C698.913 669.082 699.072 668.988 699.249 668.96C699.427 668.933 699.607 668.975 699.754 669.077C700.594 669.724 701.6 670.12 702.655 670.218C703.711 670.316 704.772 670.113 705.717 669.632C706.661 669.152 707.45 668.413 707.992 667.502C708.533 666.591 708.806 665.545 708.777 664.485C708.771 664.3 708.839 664.12 708.966 663.985C709.093 663.85 709.269 663.771 709.454 663.765C709.639 663.759 709.819 663.827 709.955 663.955C710.09 664.082 710.169 664.257 710.174 664.442C710.228 666.295 709.544 668.094 708.274 669.444C707.004 670.794 705.25 671.586 703.397 671.645L703.186 671.648Z" fill="#2C2A46"/>
<path d="M579.103 829.843C579.103 820.354 571.411 812.662 561.922 812.662H383.675C374.186 812.662 366.494 820.354 366.494 829.843V853.856C366.494 857.019 369.058 859.583 372.221 859.583H561.922C571.411 859.583 579.103 851.89 579.103 842.401V829.843Z" fill="#D2DFE6"/>
<path d="M484.586 730.191C484.586 720.702 492.279 713.01 501.768 713.01H732.8C742.289 713.01 749.981 720.702 749.981 730.191V782.062C749.981 785.225 747.417 787.79 744.254 787.79H501.768C492.279 787.79 484.586 780.097 484.586 770.608V730.191Z" fill="#DEE8EC"/>
<path d="M541.92 939.856C542.12 939.856 542.312 939.777 542.453 939.636C542.594 939.494 542.673 939.303 542.673 939.103C542.673 938.904 542.594 938.712 542.453 938.571C542.312 938.43 542.12 938.351 541.92 938.351C541.721 938.351 541.529 938.43 541.388 938.571C541.247 938.712 541.168 938.904 541.168 939.103C541.168 939.303 541.247 939.494 541.388 939.636C541.529 939.777 541.721 939.856 541.92 939.856Z" fill="#DF638D"/>
<path d="M439.73 119.741C438.639 119.741 437.606 119.603 436.633 119.327C435.672 119.051 434.87 118.676 434.226 118.202L435.113 115.795C435.732 116.229 436.435 116.571 437.225 116.821C438.027 117.071 438.862 117.196 439.73 117.196C440.677 117.196 441.355 117.052 441.763 116.762C442.184 116.46 442.394 116.085 442.394 115.638C442.394 115.256 442.249 114.954 441.96 114.73C441.671 114.506 441.164 114.316 440.441 114.158L438.211 113.684C435.725 113.158 434.482 111.869 434.482 109.817C434.482 108.936 434.719 108.166 435.192 107.509C435.666 106.838 436.324 106.318 437.165 105.95C438.02 105.582 439.007 105.397 440.125 105.397C441.085 105.397 441.986 105.536 442.828 105.812C443.67 106.088 444.367 106.476 444.919 106.976L444.032 109.225C442.953 108.37 441.644 107.943 440.105 107.943C439.277 107.943 438.632 108.107 438.172 108.436C437.724 108.752 437.501 109.166 437.501 109.679C437.501 110.06 437.639 110.37 437.915 110.606C438.191 110.843 438.672 111.034 439.355 111.178L441.585 111.652C444.137 112.204 445.413 113.454 445.413 115.401C445.413 116.269 445.176 117.032 444.702 117.689C444.242 118.334 443.584 118.84 442.729 119.209C441.888 119.564 440.888 119.741 439.73 119.741Z" fill="white"/>
<path d="M451.762 119.741C449.039 119.741 447.678 118.42 447.678 115.776V112.066H445.843V109.837H447.678V106.996H450.657V109.837H453.518V112.066H450.657V115.657C450.657 116.21 450.782 116.624 451.032 116.9C451.295 117.177 451.709 117.315 452.275 117.315C452.446 117.315 452.623 117.295 452.807 117.255C453.005 117.216 453.215 117.163 453.439 117.098L453.873 119.268C453.597 119.413 453.268 119.524 452.886 119.603C452.505 119.695 452.13 119.741 451.762 119.741Z" fill="white"/>
<path d="M459.544 119.741C458.505 119.741 457.597 119.538 456.821 119.13C456.058 118.709 455.466 118.124 455.045 117.374C454.624 116.611 454.414 115.71 454.414 114.671C454.414 113.645 454.624 112.757 455.045 112.007C455.466 111.244 456.058 110.659 456.821 110.251C457.597 109.843 458.505 109.639 459.544 109.639C460.583 109.639 461.484 109.843 462.247 110.251C463.023 110.659 463.621 111.244 464.042 112.007C464.476 112.757 464.693 113.645 464.693 114.671C464.693 115.71 464.476 116.611 464.042 117.374C463.621 118.124 463.023 118.709 462.247 119.13C461.484 119.538 460.583 119.741 459.544 119.741ZM459.544 117.512C460.175 117.512 460.688 117.282 461.083 116.821C461.49 116.361 461.694 115.644 461.694 114.671C461.694 113.711 461.49 113.007 461.083 112.56C460.688 112.099 460.175 111.869 459.544 111.869C458.912 111.869 458.399 112.099 458.005 112.56C457.61 113.007 457.413 113.711 457.413 114.671C457.413 115.644 457.61 116.361 458.005 116.821C458.399 117.282 458.912 117.512 459.544 117.512Z" fill="white"/>
<path d="M466.506 119.524V109.837H469.426V111.514C469.886 110.383 470.873 109.758 472.386 109.639L473.254 109.58L473.431 112.086L471.754 112.264C470.281 112.408 469.544 113.158 469.544 114.513V119.524H466.506Z" fill="white"/>
<path d="M479.495 119.741C478.35 119.741 477.364 119.538 476.535 119.13C475.72 118.709 475.088 118.124 474.641 117.374C474.207 116.611 473.99 115.716 473.99 114.69C473.99 113.691 474.201 112.816 474.621 112.066C475.055 111.303 475.641 110.712 476.377 110.291C477.127 109.857 477.989 109.639 478.962 109.639C480.37 109.639 481.488 110.087 482.316 110.981C483.145 111.862 483.559 113.059 483.559 114.572V115.322H476.831C476.936 116.085 477.213 116.644 477.66 116.999C478.12 117.341 478.752 117.512 479.554 117.512C480.08 117.512 480.613 117.433 481.152 117.275C481.691 117.117 482.178 116.874 482.612 116.545L483.401 118.538C482.915 118.906 482.316 119.202 481.606 119.426C480.909 119.636 480.205 119.741 479.495 119.741ZM479.08 111.613C478.449 111.613 477.936 111.803 477.542 112.185C477.16 112.566 476.923 113.099 476.831 113.783H481.093C481.014 112.336 480.343 111.613 479.08 111.613Z" fill="white"/>
<path fill-rule="evenodd" clip-rule="evenodd" d="M403.895 131.203C407.576 131.2 411.173 130.106 414.233 128.06C417.292 126.013 419.676 123.105 421.084 119.704C422.491 116.303 422.859 112.561 422.14 108.951C421.421 105.34 419.649 102.024 417.046 99.4215C414.443 96.8187 411.127 95.0459 407.517 94.3271C403.907 93.6084 400.164 93.9759 396.763 95.3834C393.362 96.7909 390.454 99.1751 388.408 102.235C386.361 105.294 385.267 108.892 385.265 112.573C385.275 117.511 387.241 122.243 390.733 125.735C394.224 129.226 398.957 131.192 403.895 131.203Z" fill="#FB5A8B"/>
<path d="M421.026 106.3C424.431 106.3 427.192 103.54 427.192 100.135C427.192 96.7293 424.431 93.9688 421.026 93.9688C417.621 93.9688 414.86 96.7293 414.86 100.135C414.86 103.54 417.621 106.3 421.026 106.3Z" fill="#BED42B"/>
<path fill-rule="evenodd" clip-rule="evenodd" d="M421.026 94.6996C418.025 94.6996 415.592 97.1327 415.592 100.134C415.592 103.135 418.025 105.568 421.026 105.568C424.027 105.568 426.46 103.135 426.46 100.134C426.46 97.1327 424.027 94.6996 421.026 94.6996ZM414.129 100.134C414.129 96.3248 417.217 93.2368 421.026 93.2368C424.835 93.2368 427.923 96.3248 427.923 100.134C427.923 103.943 424.835 107.031 421.026 107.031C417.217 107.031 414.129 103.943 414.129 100.134Z" fill="#2CC3D5"/>
<g filter="url(#filter2_d_10272_1627)">
<path d="M663.059 429.259V584.035C663.059 594.459 654.605 602.912 644.182 602.912H436.54C426.116 602.912 417.663 594.459 417.663 584.035C417.663 437.714 417.651 465.124 417.704 429.259H663.059Z" fill="white"/>
</g>
<path d="M663.593 429.259V465.006C663.593 472.741 657.392 479.15 649.656 479.181C649.57 479.182 432.284 479.182 432.128 479.181C424.394 479.148 418.197 472.739 418.197 465.006C418.197 454.692 418.19 461.926 418.239 429.259H663.593Z" fill="#D2DFE6" fill-opacity="0.4"/>
<path d="M677.483 429.259C677.483 448.146 662.167 463.473 643.269 463.473C624.375 463.473 609.055 448.154 609.055 429.259C609.055 448.154 593.736 463.473 574.842 463.473C555.947 463.473 540.628 448.154 540.628 429.259C540.628 448.154 525.308 463.473 506.414 463.473C487.52 463.473 472.2 448.154 472.2 429.259C472.171 448.03 456.721 463.473 437.986 463.473C419.274 463.473 403.802 448.049 403.773 429.259C403.773 399.524 403.691 401.354 403.979 399.989C404.262 398.649 402.3 403.392 431.981 334.888C433.48 331.437 436.883 329.202 440.641 329.202H640.615C644.372 329.202 647.776 331.437 649.274 334.888C678.978 403.443 676.993 398.648 677.276 399.989C677.564 401.351 677.483 399.492 677.483 429.259Z" fill="#4C9AFF"/>
<path d="M677.472 429.259C677.472 448.146 662.157 463.473 643.258 463.473C624.364 463.473 609.045 448.154 609.045 429.259C609.045 448.154 593.725 463.473 574.831 463.473C555.937 463.473 540.617 448.154 540.617 429.259C540.617 448.154 525.298 463.473 506.403 463.473C487.509 463.473 472.19 448.154 472.19 429.259C472.16 448.03 456.711 463.473 437.976 463.473C419.264 463.473 403.791 448.049 403.762 429.259V401.947C403.762 401.287 403.833 400.632 403.968 399.989H677.266C677.553 401.351 677.472 399.492 677.472 429.259Z" fill="#307DDF"/>
<path d="M602.435 499.711C602.68 498.496 602.367 497.236 601.582 496.278C600.798 495.32 599.624 494.763 598.386 494.763H505.277L505.137 494.106C503.665 487.147 497.433 482.096 490.32 482.096H483.275C480.994 482.096 479.145 483.945 479.145 486.226C479.145 488.508 480.994 490.357 483.275 490.357H490.32C493.553 490.357 496.386 492.653 497.055 495.816L509.33 553.802C510.489 559.28 514.602 563.563 519.768 565.144C519.145 566.62 518.8 568.242 518.8 569.943C518.8 576.776 524.359 582.335 531.192 582.335C538.025 582.335 543.584 576.776 543.584 569.943C543.584 568.495 543.332 567.105 542.874 565.812H561.369C560.91 567.105 560.658 568.495 560.658 569.943C560.658 576.776 566.217 582.335 573.05 582.335C579.884 582.335 585.443 576.776 585.443 569.943C585.443 568.495 585.19 567.105 584.732 565.812H585.718C587.999 565.812 589.849 563.963 589.849 561.682C589.849 559.4 587.999 557.551 585.718 557.551H524.147C520.914 557.551 518.082 555.255 517.412 552.092L516.353 547.086H537.234C537.238 547.086 537.242 547.087 537.246 547.087C537.248 547.087 537.251 547.086 537.254 547.086H563.684C563.687 547.086 563.69 547.087 563.693 547.087C563.697 547.087 563.701 547.086 563.704 547.086H589.497C591.463 547.086 593.157 545.7 593.546 543.772L597.887 522.259C597.999 521.929 598.071 521.582 598.096 521.221L602.435 499.711ZM535.323 569.943C535.323 572.221 533.47 574.074 531.192 574.074C528.914 574.074 527.061 572.221 527.061 569.943C527.061 567.665 528.914 565.812 531.192 565.812C533.47 565.812 535.323 567.665 535.323 569.943ZM577.181 569.943C577.181 572.221 575.328 574.074 573.05 574.074C570.772 574.074 568.92 572.221 568.92 569.943C568.92 567.665 570.772 565.812 573.05 565.812C575.328 565.812 577.181 567.665 577.181 569.943ZM590.56 516.794H571.121L572.842 503.025H593.338L590.56 516.794ZM540.897 538.825L539.176 525.056H561.762L560.041 538.825H540.897ZM538.143 516.794L536.422 503.025H564.516L562.795 516.794H538.143ZM528.096 503.025L529.817 516.794H509.94L507.025 503.025H528.096ZM511.689 525.056H530.85L532.571 538.825H514.604L511.689 525.056ZM568.367 538.825L570.088 525.056H588.894L586.116 538.825H568.367Z" fill="#3A4A65"/>
<g filter="url(#filter3_d_10272_1627)">
<path d="M546.807 220.623C546.807 212.619 553.295 206.131 561.298 206.131H897.169C905.172 206.131 911.66 212.619 911.66 220.623V290.3C911.66 291.901 910.363 293.199 908.762 293.199H561.298C553.295 293.199 546.807 286.711 546.807 278.707V220.623Z" fill="white"/>
</g>
<path fill-rule="evenodd" clip-rule="evenodd" d="M760.688 238.88C760.688 236.377 758.659 234.348 756.156 234.348H581.503C579 234.348 576.971 236.377 576.971 238.88C576.971 241.382 579 243.412 581.503 243.412H756.156C758.659 243.412 760.688 241.382 760.688 238.88Z" fill="#D2DFE6"/>
<path fill-rule="evenodd" clip-rule="evenodd" d="M760.688 260.646C760.688 258.143 758.659 256.114 756.156 256.114H638.265C635.762 256.114 633.733 258.143 633.733 260.646C633.733 263.149 635.762 265.178 638.265 265.178H756.156C758.659 265.178 760.688 263.149 760.688 260.646Z" fill="#D2DFE6"/>
<path d="M894.803 224.739C894.803 250.786 873.689 271.901 847.642 271.901C821.595 271.901 800.48 250.786 800.48 224.739C800.48 198.693 821.595 177.578 847.642 177.578C873.689 177.578 894.803 198.693 894.803 224.739Z" fill="#FB5A8B"/>
<path d="M864.372 212.275H858.225V210.738C858.225 204.807 853.4 199.981 847.468 199.981C841.537 199.981 836.711 204.807 836.711 210.738V212.275H830.564C829.715 212.275 829.027 212.963 829.027 213.812V244.546C829.027 247.088 831.095 249.156 833.638 249.156H861.299C863.841 249.156 865.909 247.088 865.909 244.546V213.812C865.909 212.963 865.221 212.275 864.372 212.275ZM839.784 210.738C839.784 206.501 843.231 203.054 847.468 203.054C851.705 203.054 855.152 206.501 855.152 210.738V212.275H839.784V210.738ZM862.835 244.546C862.835 245.393 862.146 246.083 861.299 246.083H833.638C832.79 246.083 832.101 245.393 832.101 244.546V215.348H836.711V218.422C836.711 219.27 837.399 219.958 838.248 219.958C839.096 219.958 839.784 219.27 839.784 218.422V215.348H855.152V218.422C855.152 219.27 855.84 219.958 856.688 219.958C857.537 219.958 858.225 219.27 858.225 218.422V215.348H862.835V244.546Z" fill="white"/>
<path d="M853.79 224.124C853.12 223.603 852.155 223.724 851.634 224.394L840.877 238.224C840.086 239.24 840.827 240.704 842.089 240.704C842.547 240.704 843 240.501 843.303 240.111L854.06 226.28C854.581 225.611 854.46 224.645 853.79 224.124Z" fill="white"/>
<path d="M852.847 240.705C854.544 240.705 855.92 239.329 855.92 237.631C855.92 235.934 854.544 234.558 852.847 234.558C851.149 234.558 849.773 235.934 849.773 237.631C849.773 239.329 851.149 240.705 852.847 240.705Z" fill="white"/>
<path d="M842.09 229.947C843.787 229.947 845.163 228.571 845.163 226.874C845.163 225.176 843.787 223.8 842.09 223.8C840.392 223.8 839.016 225.176 839.016 226.874C839.016 228.571 840.392 229.947 842.09 229.947Z" fill="white"/>
<path d="M410.411 107.457H407.906V106.831C407.906 104.415 405.94 102.449 403.524 102.449C401.107 102.449 399.141 104.415 399.141 106.831V107.457H396.637C396.291 107.457 396.011 107.738 396.011 108.083V120.605C396.011 121.641 396.854 122.483 397.889 122.483H409.159C410.194 122.483 411.037 121.641 411.037 120.605V108.083C411.037 107.738 410.757 107.457 410.411 107.457ZM400.394 106.831C400.394 105.105 401.798 103.701 403.524 103.701C405.25 103.701 406.654 105.105 406.654 106.831V107.457H400.394V106.831ZM409.785 120.605C409.785 120.95 409.504 121.231 409.159 121.231H397.889C397.544 121.231 397.263 120.95 397.263 120.605V108.709H399.141V109.962C399.141 110.307 399.422 110.588 399.767 110.588C400.113 110.588 400.394 110.307 400.394 109.962V108.709H406.654V109.962C406.654 110.307 406.935 110.588 407.28 110.588C407.626 110.588 407.906 110.307 407.906 109.962V108.709H409.785V120.605Z" fill="white"/>
<path d="M406.1 112.285C405.827 112.072 405.433 112.122 405.221 112.395L400.838 118.029C400.516 118.443 400.818 119.04 401.332 119.04C401.519 119.04 401.703 118.957 401.827 118.798L406.209 113.163C406.422 112.89 406.372 112.497 406.1 112.285Z" fill="white"/>
<path d="M405.715 119.039C406.407 119.039 406.967 118.479 406.967 117.787C406.967 117.096 406.407 116.535 405.715 116.535C405.024 116.535 404.463 117.096 404.463 117.787C404.463 118.479 405.024 119.039 405.715 119.039Z" fill="white"/>
<path d="M401.333 114.657C402.024 114.657 402.585 114.097 402.585 113.405C402.585 112.713 402.024 112.153 401.333 112.153C400.641 112.153 400.081 112.713 400.081 113.405C400.081 114.097 400.641 114.657 401.333 114.657Z" fill="white"/>
<path fill-rule="evenodd" clip-rule="evenodd" d="M242.086 814.935C254.347 819.977 260.2 834.003 255.158 846.265L232.957 837.136L210.756 828.007C215.798 815.746 229.825 809.893 242.086 814.935ZM150.769 985.396C146.108 1001.65 144.505 1022.62 157.245 1039.97C170.155 1057.55 191.947 1063.54 215.274 1063.54C228.531 1063.54 239.278 1052.79 239.278 1039.53C239.278 1026.28 228.531 1015.53 215.274 1015.53C207.131 1015.53 202.052 1014.45 199.124 1013.36C197.713 1012.84 196.905 1012.35 196.491 1012.05C196.098 1011.76 195.97 1011.59 195.943 1011.55C195.915 1011.52 195.832 1011.4 195.727 1011.09C195.615 1010.76 195.454 1010.12 195.384 1009.08C195.239 1006.89 195.537 1003.45 196.921 998.622L196.923 998.612C201.773 981.673 216.046 944.17 229.662 909.651C236.361 892.668 242.739 876.812 247.444 865.198C249.795 859.393 251.727 854.653 253.069 851.366C253.74 849.723 254.264 848.444 254.619 847.577L255.158 846.265C255.158 846.264 255.158 846.265 232.957 837.136C210.756 828.007 210.756 828.008 210.756 828.009L210.198 829.368C209.836 830.252 209.304 831.549 208.625 833.211C207.267 836.535 205.318 841.32 202.947 847.174C198.206 858.878 191.771 874.876 185.002 892.034C171.686 925.792 156.406 965.715 150.772 985.387" fill="#CB8591"/>
<path fill-rule="evenodd" clip-rule="evenodd" d="M259.637 855.707C259.636 855.709 259.635 855.711 259.634 855.713L259.632 855.716L259.581 855.816C259.527 855.922 259.436 856.101 259.311 856.349C259.062 856.845 258.674 857.621 258.164 858.66C257.144 860.738 255.636 863.863 253.764 867.903C250.015 875.99 244.823 887.696 239.161 901.957C233.046 917.359 215.603 924.888 200.201 918.773C184.799 912.657 177.27 895.214 183.385 879.812C189.526 864.348 195.176 851.6 199.318 842.663C201.391 838.192 203.092 834.663 204.294 832.215C204.895 830.991 205.371 830.036 205.708 829.367C205.876 829.033 206.01 828.77 206.106 828.581L206.223 828.352L206.281 828.239C206.282 828.237 206.283 828.235 232.69 841.838L206.283 828.235C213.872 813.503 231.966 807.712 246.698 815.301C261.424 822.887 267.216 840.971 259.64 855.7C259.639 855.702 259.638 855.705 259.637 855.707Z" fill="#F66689"/>
<path fill-rule="evenodd" clip-rule="evenodd" d="M413.595 815.084C425.994 810.391 439.85 816.638 444.542 829.037L422.092 837.534L399.642 846.031C394.949 833.633 401.196 819.777 413.595 815.084ZM452.057 995.831C447.649 978.753 434.802 941.867 422.562 908.047C416.537 891.4 410.804 875.887 406.575 864.531C404.461 858.855 402.725 854.223 401.519 851.013C400.916 849.408 400.445 848.159 400.126 847.312L399.642 846.031C399.642 846.031 399.642 846.031 422.092 837.534C444.542 829.037 444.543 829.038 444.543 829.039L445.045 830.368C445.371 831.232 445.848 832.499 446.459 834.124C447.68 837.373 449.433 842.05 451.565 847.776C455.829 859.224 461.616 874.883 467.706 891.709C479.693 924.831 493.449 964.093 498.545 983.845L498.55 983.865C504.568 1007.27 502.359 1031.07 483.204 1047.21C466.969 1060.89 443.814 1063.86 422.772 1063.86C409.515 1063.86 398.768 1053.11 398.768 1039.85C398.768 1026.59 409.515 1015.85 422.772 1015.85C431.724 1015.85 438.669 1015.13 443.846 1013.92C449.067 1012.69 451.407 1011.22 452.273 1010.49C452.744 1010.1 453.044 1009.8 453.299 1008.56C453.658 1006.82 453.876 1002.91 452.057 995.831Z" fill="#CB8591"/>
<path fill-rule="evenodd" clip-rule="evenodd" d="M408.363 815.675C423.098 808.093 441.19 813.891 448.773 828.626L422.092 842.356C448.773 828.626 448.774 828.628 448.775 828.63L448.832 828.743L448.949 828.971C449.045 829.161 449.179 829.424 449.347 829.758C449.683 830.427 450.16 831.383 450.76 832.607C451.962 835.056 453.662 838.586 455.734 843.059C459.876 851.999 465.525 864.75 471.664 880.212C477.779 895.614 470.251 913.057 454.849 919.172C439.447 925.288 422.004 917.759 415.889 902.357C410.226 888.094 405.033 876.38 401.283 868.287C399.41 864.244 397.902 861.114 396.881 859.034C396.371 857.994 395.983 857.217 395.733 856.719C395.608 856.471 395.518 856.292 395.463 856.186L395.412 856.085L395.41 856.081C395.409 856.08 395.409 856.078 395.408 856.077C395.407 856.074 395.405 856.072 395.404 856.07C387.834 841.337 393.633 823.255 408.363 815.675Z" fill="#F66689"/>
<path d="M432.874 1064.02V819.972V816.171C432.874 809.99 385.985 804.969 328.135 804.969C270.284 804.969 223.375 809.97 223.375 816.171V819.972V1064.02H432.874Z" fill="#F66689"/>
<path d="M427.413 1058H434.235V936.413C433.26 921.455 431.134 906.595 427.873 891.965C427.873 891.965 429.094 993.184 427.413 1058Z" fill="#F56D73"/>
<path d="M227.036 1051.32C226.416 990.984 229.596 897.967 229.596 897.967C223.655 907.289 219.375 931.293 219.375 931.293L219.475 1051.32H227.036Z" fill="#F56D73"/>
<path d="M324.523 832.754C335.626 832.754 344.627 825.339 344.627 816.191C344.627 807.043 335.626 799.628 324.523 799.628C313.42 799.628 304.42 807.043 304.42 816.191C304.42 825.339 313.42 832.754 324.523 832.754Z" fill="#CB8591"/>
<path d="M324.524 801.628C334.525 801.628 342.527 808.17 342.527 816.191C342.527 824.212 334.405 830.774 324.524 830.774C314.642 830.774 306.4 824.232 306.4 816.191C306.4 808.149 314.522 801.628 324.524 801.628ZM324.524 799.628C313.402 799.628 304.4 807.049 304.4 816.191C304.4 825.333 313.402 832.774 324.524 832.774C335.646 832.774 344.527 825.353 344.527 816.191C344.527 807.029 335.526 799.628 324.524 799.628Z" fill="white"/>
<path d="M326.144 779.365H322.884C318.465 779.378 314.058 778.908 309.741 777.964V815.971C309.739 817.712 310.079 819.436 310.744 821.045C311.408 822.654 312.383 824.116 313.613 825.348C314.843 826.58 316.303 827.557 317.911 828.224C319.519 828.891 321.243 829.234 322.984 829.234H326.044C327.792 829.244 329.524 828.909 331.141 828.247C332.758 827.585 334.228 826.609 335.467 825.377C336.705 824.144 337.688 822.678 338.357 821.064C339.026 819.45 339.369 817.719 339.367 815.971V777.964C335.022 778.905 330.589 779.375 326.144 779.365Z" fill="#CB8591"/>
<path d="M309.781 791.967V802.929C309.781 802.929 312.961 797.508 324.563 797.448C336.166 797.388 339.326 803.449 339.326 803.449V790.286L309.781 789.746V791.967Z" fill="#A8747D"/>
<path d="M261.352 692.449V720.574C258.84 720.532 256.446 719.503 254.687 717.71C252.927 715.917 251.944 713.504 251.95 710.992V701.95C251.97 699.454 252.964 697.064 254.72 695.289C256.476 693.515 258.856 692.496 261.352 692.449Z" fill="#CB8591"/>
<path d="M397.017 701.95V710.912C397.023 713.424 396.04 715.837 394.28 717.63C392.521 719.423 390.127 720.452 387.615 720.494V692.449C390.112 692.496 392.491 693.515 394.247 695.289C396.003 697.064 396.997 699.454 397.017 701.95Z" fill="#CB8591"/>
<path d="M387.615 664.362V729.954C387.628 738.03 386.047 746.03 382.962 753.494C379.878 760.958 375.35 767.74 369.64 773.45C363.929 779.161 357.147 783.688 349.683 786.773C342.219 789.858 334.22 791.439 326.144 791.425H322.883C318.463 791.432 314.056 790.956 309.74 790.005C296.035 787.016 283.763 779.431 274.962 768.508C266.16 757.585 261.358 743.982 261.352 729.954V664.362C261.352 656.284 262.944 648.286 266.037 640.824C269.129 633.362 273.663 626.583 279.377 620.874C285.092 615.165 291.875 610.638 299.34 607.553C306.805 604.467 314.805 602.883 322.883 602.891H326.144C342.447 602.891 358.082 609.367 369.61 620.895C381.138 632.423 387.615 648.059 387.615 664.362Z" fill="#CB8591"/>
<path d="M325.364 676.645C322.183 678.646 314.462 679.126 305.22 679.786C295.978 680.446 292.338 677.106 285.396 680.126C278.455 683.147 264.053 683.047 255.591 676.125C250.024 671.197 245.618 665.096 242.689 658.262C235.187 635.338 262.352 622.175 262.352 622.175C262.352 622.175 263.452 601.752 288.357 603.732C288.357 603.732 291.958 604.352 294.638 596.531C297.319 588.709 338.046 567.925 361.971 596.591C361.971 596.591 369.712 611.353 375.413 610.453C381.114 609.553 426.603 620.615 410.52 663.523C407.739 670.944 394.016 695.189 357.03 675.225C357.03 675.225 338.766 667.944 325.364 676.645Z" fill="#2C2A46"/>
<path opacity="0.2" d="M283.356 678.146C285.216 677.945 265.132 687.947 261.352 710.371V672.625H270.773L283.356 678.146Z" fill="#2C2A46"/>
<path fill-rule="evenodd" clip-rule="evenodd" d="M259.911 683.947C259.911 683.118 260.583 682.446 261.411 682.446H267.353C268.181 682.446 268.853 683.118 268.853 683.947C268.853 684.775 268.181 685.447 267.353 685.447H261.411C260.583 685.447 259.911 684.775 259.911 683.947Z" fill="#2C2A46"/>
<path fill-rule="evenodd" clip-rule="evenodd" d="M259.911 690.529C259.911 689.7 260.583 689.028 261.411 689.028H267.353C268.181 689.028 268.853 689.7 268.853 690.529C268.853 691.357 268.181 692.029 267.353 692.029H261.411C260.583 692.029 259.911 691.357 259.911 690.529Z" fill="#2C2A46"/>
<path opacity="0.2" d="M365.511 678.146C363.75 677.865 383.814 688.027 387.515 710.371V672.625H378.093L365.511 678.146Z" fill="#2C2A46"/>
<path fill-rule="evenodd" clip-rule="evenodd" d="M380.114 683.947C380.114 683.118 380.785 682.446 381.614 682.446H387.555C388.384 682.446 389.055 683.118 389.055 683.947C389.055 684.775 388.384 685.447 387.555 685.447H381.614C380.785 685.447 380.114 684.775 380.114 683.947Z" fill="#2C2A46"/>
<path fill-rule="evenodd" clip-rule="evenodd" d="M380.114 690.529C380.114 689.7 380.785 689.028 381.614 689.028H387.555C388.384 689.028 389.055 689.7 389.055 690.529C389.055 691.357 388.384 692.029 387.555 692.029H381.614C380.785 692.029 380.114 691.357 380.114 690.529Z" fill="#2C2A46"/>
<path fill-rule="evenodd" clip-rule="evenodd" d="M362.998 751.022C356.193 751.022 349.54 749.004 343.882 745.223C338.223 741.442 333.813 736.068 331.208 729.78C330.282 727.544 329.599 725.227 329.163 722.871H319.865C318.607 729.67 315.318 735.986 310.36 740.944C303.907 747.397 295.155 751.022 286.029 751.022C279.224 751.022 272.571 749.004 266.912 745.223C261.254 741.442 256.843 736.068 254.239 729.781C251.635 723.493 250.953 716.575 252.281 709.9C253.609 703.225 256.886 697.094 261.698 692.282C266.51 687.47 272.641 684.193 279.316 682.865C285.991 681.537 292.91 682.219 299.197 684.823C305.484 687.427 310.858 691.838 314.639 697.496C318.42 703.155 320.438 709.807 320.438 716.613C320.438 717.491 320.405 718.366 320.338 719.236H328.689C328.452 716.129 328.636 712.988 329.25 709.899C330.578 703.225 333.855 697.094 338.667 692.281C343.48 687.469 349.611 684.192 356.285 682.864C362.96 681.537 369.879 682.218 376.166 684.822C382.454 687.427 387.828 691.837 391.609 697.496C395.39 703.154 397.408 709.807 397.408 716.612C397.408 725.738 393.782 734.49 387.329 740.943C380.876 747.396 372.124 751.022 362.998 751.022ZM362.998 685.838C356.912 685.838 350.962 687.643 345.901 691.024C340.84 694.406 336.896 699.212 334.566 704.835C332.237 710.459 331.628 716.647 332.815 722.616C334.002 728.586 336.933 734.069 341.237 738.373C345.541 742.677 351.025 745.608 356.995 746.796C362.964 747.983 369.152 747.374 374.775 745.045C380.399 742.715 385.205 738.771 388.587 733.71C391.968 728.649 393.773 722.699 393.773 716.612C393.776 712.568 392.982 708.563 391.437 704.826C389.892 701.088 387.626 697.692 384.768 694.83C381.911 691.968 378.517 689.697 374.782 688.147C371.047 686.597 367.043 685.797 362.998 685.795V685.838ZM286.029 685.838C279.943 685.842 273.995 687.651 268.937 691.035C263.879 694.419 259.938 699.227 257.612 704.851C255.286 710.475 254.68 716.662 255.87 722.63C257.06 728.598 259.992 734.08 264.297 738.382C268.602 742.683 274.086 745.612 280.055 746.798C286.024 747.984 292.21 747.373 297.833 745.043C303.455 742.713 308.26 738.769 311.64 733.708C315.021 728.648 316.825 722.699 316.825 716.613C316.825 708.443 313.581 700.608 307.807 694.829C302.032 689.05 294.199 685.801 286.029 685.795V685.838Z" fill="#F9B42F"/>
<path d="M486.364 1025.57V1025.91C486.355 1025.8 486.355 1025.69 486.364 1025.57Z" fill="#F8F7EF"/>
<path d="M499.426 704.312L450.276 1028.37H199.509L165.365 700.312L499.426 704.312Z" fill="url(#paint0_linear_10272_1627)"/>
<path opacity="0.5" d="M419.412 873.962C419.412 869.543 422.994 865.961 427.413 865.961H513.429C517.848 865.961 521.43 869.543 521.43 873.962V929.973C521.43 934.392 517.848 937.974 513.429 937.974H427.413C422.994 937.974 419.412 934.392 419.412 929.973V873.962Z" fill="#C3EEF4"/>
<path opacity="0.5" d="M427.413 881.963C427.413 877.544 430.996 873.962 435.415 873.962H521.431C525.85 873.962 529.432 877.544 529.432 881.963V937.974C529.432 942.393 525.85 945.975 521.431 945.975H435.415C430.996 945.975 427.413 942.393 427.413 937.974V881.963Z" fill="#87DDE8"/>
<path opacity="0.5" d="M502.086 894.652C502.2 894.092 502.055 893.51 501.693 893.068C501.331 892.625 500.789 892.369 500.218 892.369H457.247L457.183 892.065C456.503 888.854 453.627 886.522 450.344 886.522H447.093C446.04 886.522 445.187 887.376 445.187 888.429C445.187 889.482 446.04 890.335 447.093 890.335H450.344C451.836 890.335 453.144 891.395 453.453 892.854L459.117 919.616C459.652 922.144 461.551 924.121 463.934 924.85C463.647 925.532 463.488 926.28 463.488 927.065C463.488 930.218 466.053 932.784 469.207 932.784C472.361 932.784 474.926 930.218 474.926 927.065C474.926 926.397 474.81 925.755 474.598 925.159H483.134C482.922 925.755 482.806 926.397 482.806 927.065C482.806 930.218 485.371 932.784 488.525 932.784C491.679 932.784 494.244 930.218 494.244 927.065C494.244 926.397 494.128 925.755 493.916 925.159H494.371C495.424 925.159 496.278 924.305 496.278 923.252C496.278 922.199 495.424 921.346 494.371 921.346H465.956C464.464 921.346 463.156 920.286 462.847 918.827L462.359 916.516H471.995C471.997 916.516 471.999 916.517 472.001 916.517C472.002 916.517 472.003 916.516 472.005 916.516H484.202C484.204 916.516 484.205 916.517 484.207 916.517C484.208 916.517 484.21 916.516 484.212 916.516H496.115C497.023 916.516 497.805 915.877 497.984 914.987L499.987 905.058C500.039 904.906 500.072 904.746 500.084 904.579L502.086 894.652ZM471.113 927.065C471.113 928.116 470.258 928.971 469.207 928.971C468.156 928.971 467.301 928.116 467.301 927.065C467.301 926.014 468.156 925.159 469.207 925.159C470.258 925.159 471.113 926.014 471.113 927.065ZM490.432 927.065C490.432 928.116 489.576 928.971 488.525 928.971C487.474 928.971 486.619 928.116 486.619 927.065C486.619 926.014 487.474 925.159 488.525 925.159C489.576 925.159 490.432 926.014 490.432 927.065ZM496.606 902.536H487.634L488.429 896.182H497.888L496.606 902.536ZM473.686 912.704L472.892 906.349H483.316L482.521 912.704H473.686ZM472.415 902.536L471.621 896.182H484.587L483.792 902.536H472.415ZM467.778 896.182L468.573 902.536H459.399L458.054 896.182H467.778ZM460.206 906.349H469.049L469.844 912.704H461.551L460.206 906.349ZM486.364 912.704L487.158 906.349H495.837L494.555 912.704H486.364Z" fill="white"/>
<path opacity="0.5" d="M135.359 893.965C135.359 889.546 138.941 885.964 143.36 885.964H225.376C229.795 885.964 233.377 889.546 233.377 893.965V947.975C233.377 952.394 229.795 955.977 225.375 955.977H143.36C138.941 955.977 135.359 952.394 135.359 947.975V893.965Z" fill="#87DDE8"/>
<path opacity="0.5" d="M125.357 885.964C125.357 881.545 128.94 877.963 133.359 877.963H219.375C223.794 877.963 227.376 881.545 227.376 885.964V941.975C227.376 946.394 223.794 949.976 219.375 949.976H133.359C128.94 949.976 125.357 946.394 125.357 941.975V885.964Z" fill="#C3EEF4"/>
<path opacity="0.5" d="M69.3469 821.953C69.3469 817.534 72.9293 813.951 77.3484 813.951H137.359C141.779 813.951 145.361 817.534 145.361 821.953V861.96C145.361 866.379 141.779 869.962 137.359 869.962H77.3484C72.9293 869.962 69.3469 866.379 69.3469 861.96V821.953Z" fill="#87DDE8"/>
<path opacity="0.5" d="M61.3455 815.951C61.3455 811.532 64.9278 807.95 69.3469 807.95H133.359C137.778 807.95 141.36 811.532 141.36 815.951V855.959C141.36 860.378 137.778 863.96 133.359 863.96H69.3469C64.9278 863.96 61.3455 860.378 61.3455 855.959V815.951Z" fill="#C3EEF4"/>
<g opacity="0.06" filter="url(#filter4_f_10272_1627)">
<path d="M324.394 1080C398.966 1080 459.419 1076.87 459.419 1073C459.419 1069.13 398.966 1066 324.394 1066C249.822 1066 189.369 1069.13 189.369 1073C189.369 1076.87 249.822 1080 324.394 1080Z" fill="#0A0F1A"/>
</g>
<path d="M445.268 925.972H205.924C203.261 925.976 200.63 926.552 198.209 927.662C195.789 928.771 193.635 930.388 191.893 932.402C190.152 934.417 188.864 936.782 188.116 939.338C187.369 941.894 187.179 944.58 187.56 947.216L204.623 1064.62C204.998 1067.18 206.283 1069.53 208.245 1071.23C210.206 1072.92 212.712 1073.86 215.305 1073.86H435.886C438.481 1073.86 440.989 1072.93 442.951 1071.23C444.913 1069.53 446.197 1067.19 446.568 1064.62L463.651 947.216C464.033 944.579 463.843 941.89 463.094 939.333C462.345 936.776 461.055 934.41 459.312 932.395C457.568 930.38 455.412 928.764 452.989 927.655C450.565 926.547 447.932 925.973 445.268 925.972Z" fill="#F5F8F9"/>
<path opacity="0.8" d="M345.845 999.015C345.284 996.015 343.807 993.257 341.614 991.117C339.421 988.976 336.618 987.556 333.584 987.048C330.71 986.483 327.787 986.2 324.857 986.204C320.313 986.026 315.802 987.026 311.766 989.104C306.748 992.069 304.261 997.89 304.566 1005.51C304.491 1010.95 306.422 1016.24 309.999 1020.38C313.403 1023.9 319.926 1025.66 325.01 1025.87V1029.79C325.009 1030.42 325.262 1031.03 325.711 1031.48C326.161 1031.93 326.771 1032.19 327.409 1032.19H327.628C328.126 1032.15 328.599 1031.95 328.98 1031.63C330.944 1029.96 333.54 1027.73 336.071 1025.4L337.184 1024.38C339.219 1022.65 341.062 1020.7 342.682 1018.58C346.301 1012.73 347.439 1005.7 345.845 999.015Z" fill="#D2DFE6"/>
<path opacity="0.5" fill-rule="evenodd" clip-rule="evenodd" d="M113.67 840.762C115.143 842.414 116.24 844.366 116.886 846.483C117.007 846.865 117.035 847.27 116.97 847.666C116.905 848.061 116.748 848.435 116.511 848.758C116.278 849.084 115.97 849.349 115.613 849.531C115.256 849.713 114.861 849.806 114.46 849.804H110.175C110.527 850.345 110.715 850.978 110.715 851.624C110.727 852.144 110.61 852.66 110.375 853.124C109.881 853.878 109.275 854.552 108.579 855.125L108.259 855.415C108.013 855.652 107.684 855.784 107.342 855.784C107 855.784 106.671 855.652 106.424 855.415C106.344 855.335 106.234 855.235 106.109 855.125C105.413 854.552 104.808 853.878 104.314 853.124C104.078 852.66 103.961 852.144 103.974 851.624C103.973 850.977 104.162 850.344 104.519 849.804H100.248C99.8473 849.806 99.4521 849.713 99.0953 849.531C98.7384 849.349 98.4305 849.084 98.1975 848.758C97.9606 848.435 97.8032 848.061 97.7381 847.666C97.6729 847.27 97.7018 846.865 97.8224 846.483C98.4649 844.375 99.5549 842.43 101.018 840.782C101.083 834.146 104.039 830.38 105.809 828.725C106.223 828.33 106.772 828.11 107.344 828.11C107.916 828.11 108.466 828.33 108.879 828.725C110.67 830.38 113.6 834.136 113.67 840.762ZM107.354 853.554C107.833 853.155 108.257 852.694 108.614 852.184C108.698 852.01 108.735 851.817 108.724 851.624C108.724 851.261 108.58 850.912 108.323 850.655C108.066 850.398 107.718 850.254 107.354 850.254C106.991 850.254 106.642 850.398 106.385 850.655C106.128 850.912 105.984 851.261 105.984 851.624C105.97 851.816 106.004 852.009 106.084 852.184C106.445 852.695 106.872 853.156 107.354 853.554ZM107.252 830.128C107.223 830.14 107.196 830.158 107.174 830.18V830.185C105.924 831.355 103.018 834.741 103.038 841.022V841.152C103.044 841.242 103.053 841.333 103.062 841.426C103.078 841.58 103.093 841.736 103.093 841.892C103.207 843.529 103.413 845.159 103.708 846.773C103.717 846.816 103.73 846.858 103.742 846.899C103.763 846.972 103.783 847.043 103.783 847.113V847.183C103.794 847.224 103.804 847.264 103.814 847.303C103.827 847.356 103.839 847.407 103.854 847.458C103.863 847.473 103.871 847.488 103.879 847.503C103.889 847.534 103.898 847.564 103.908 847.593C103.931 847.666 103.954 847.734 103.979 847.798H110.715C111.26 846.298 111.59 842.402 111.675 840.967C111.67 834.736 108.764 831.35 107.514 830.18C107.492 830.158 107.465 830.14 107.436 830.128C107.407 830.116 107.376 830.109 107.344 830.109C107.313 830.109 107.281 830.116 107.252 830.128ZM100.003 847.743C100.079 847.782 100.163 847.803 100.248 847.803L101.868 847.793V847.753L101.823 847.563C101.809 847.511 101.797 847.457 101.785 847.402C101.775 847.358 101.764 847.313 101.753 847.268L101.708 847.048L101.648 846.753L101.603 846.508C101.598 846.473 101.59 846.439 101.581 846.404C101.567 846.344 101.553 846.283 101.553 846.223L101.508 845.948C101.504 845.921 101.498 845.895 101.493 845.869C101.48 845.807 101.468 845.746 101.468 845.683L101.423 845.373C101.398 845.313 101.398 845.253 101.398 845.193C101.333 844.713 101.278 844.238 101.228 843.783C100.59 844.813 100.086 845.92 99.7277 847.078C99.7007 847.162 99.6944 847.252 99.7092 847.339C99.724 847.426 99.7595 847.508 99.8128 847.578C99.8624 847.647 99.9277 847.704 100.003 847.743ZM114.705 847.743C114.781 847.704 114.846 847.647 114.896 847.578C114.944 847.509 114.976 847.43 114.989 847.347C115.002 847.264 114.996 847.179 114.971 847.098C114.612 845.94 114.108 844.833 113.47 843.803C113.343 845.149 113.126 846.486 112.82 847.803H114.46C114.546 847.803 114.629 847.782 114.705 847.743ZM108.996 841.413C108.51 841.74 107.939 841.915 107.354 841.917C106.964 841.918 106.579 841.842 106.219 841.693C105.859 841.545 105.531 841.327 105.255 841.052C104.98 840.777 104.761 840.45 104.611 840.091C104.461 839.731 104.384 839.346 104.383 838.956C104.383 838.371 104.557 837.799 104.882 837.313C105.206 836.826 105.668 836.447 106.209 836.222C106.749 835.998 107.344 835.939 107.918 836.052C108.492 836.165 109.019 836.446 109.434 836.859C109.848 837.273 110.131 837.799 110.246 838.373C110.362 838.946 110.305 839.541 110.082 840.082C109.859 840.624 109.482 841.087 108.996 841.413ZM108.024 837.96C107.826 837.826 107.593 837.753 107.354 837.751C107.195 837.75 107.037 837.78 106.889 837.84C106.741 837.9 106.607 837.988 106.493 838.1C106.38 838.212 106.29 838.346 106.228 838.493C106.166 838.639 106.134 838.797 106.134 838.956C106.133 839.196 106.203 839.43 106.335 839.629C106.466 839.829 106.655 839.984 106.875 840.077C107.095 840.17 107.338 840.195 107.573 840.15C107.808 840.104 108.024 839.99 108.194 839.822C108.364 839.654 108.481 839.44 108.529 839.205C108.577 838.971 108.555 838.728 108.465 838.506C108.375 838.285 108.222 838.095 108.024 837.96Z" fill="#F8FBFB"/>
<g opacity="0.5">
<path d="M196.748 934.629H169.988C169.693 934.629 169.41 934.512 169.202 934.304C168.994 934.095 168.876 933.812 168.876 933.518V906.424C168.876 906.129 168.994 905.846 169.202 905.638C169.41 905.43 169.693 905.312 169.988 905.312C170.283 905.312 170.565 905.43 170.774 905.638C170.982 905.846 171.099 906.129 171.099 906.424V932.406H196.748C197.043 932.406 197.326 932.523 197.534 932.732C197.743 932.94 197.86 933.223 197.86 933.518C197.86 933.812 197.743 934.095 197.534 934.304C197.326 934.512 197.043 934.629 196.748 934.629Z" fill="#F8FBFB"/>
<path opacity="0.5" d="M181.701 927.428C181.031 927.446 180.371 927.252 179.818 926.872C174.683 922.838 171.6 926.489 171.483 926.65C171.244 926.916 170.911 927.079 170.555 927.106C170.198 927.132 169.845 927.021 169.569 926.794C169.293 926.567 169.114 926.242 169.071 925.887C169.028 925.533 169.124 925.175 169.338 924.888C169.388 924.827 174.272 919.026 181.474 924.627C181.84 924.799 183.074 924.627 184.735 921.738C187.825 916.381 193.592 912.947 193.837 912.803C194.155 912.616 194.533 912.562 194.89 912.655C195.247 912.747 195.553 912.977 195.74 913.295C195.927 913.612 195.981 913.991 195.888 914.348C195.796 914.705 195.566 915.011 195.248 915.198C195.193 915.225 189.858 918.421 187.141 923.127C185.708 925.611 184.135 927.017 182.463 927.378C182.211 927.418 181.956 927.435 181.701 927.428ZM181.468 924.616L181.512 924.649L181.468 924.616Z" fill="#F8FBFB"/>
<path opacity="0.8" d="M170.366 927.133C170.115 927.132 169.868 927.063 169.653 926.934C169.438 926.804 169.262 926.618 169.144 926.396C169.026 926.175 168.97 925.925 168.983 925.674C168.996 925.423 169.076 925.18 169.216 924.971C169.821 924.071 175.267 916.275 180.59 916.275H180.651C181.99 916.275 183.913 916.831 185.485 919.254C186.769 921.243 188.136 922.304 189.547 922.393C191.653 922.521 193.437 920.526 193.437 920.51C193.552 920.361 193.695 920.237 193.859 920.146C194.023 920.054 194.204 919.997 194.391 919.978C194.577 919.958 194.766 919.976 194.945 920.032C195.125 920.087 195.291 920.178 195.434 920.299C195.577 920.421 195.695 920.57 195.778 920.738C195.862 920.906 195.911 921.089 195.923 921.276C195.934 921.464 195.907 921.651 195.844 921.828C195.78 922.005 195.682 922.167 195.554 922.304C195.448 922.432 192.892 925.394 189.369 925.166C187.036 925.01 184.924 923.532 183.157 920.76C182.424 919.648 181.596 919.093 180.629 919.054H180.59C177.678 919.054 173.478 923.627 171.511 926.527C171.384 926.714 171.213 926.867 171.013 926.972C170.814 927.078 170.592 927.133 170.366 927.133Z" fill="#F8FBFB"/>
</g>
</g>
<defs>
<filter id="filter0_f_10272_1627" x="230.387" y="925.796" width="654.986" height="93.5674" filterUnits="userSpaceOnUse" color-interpolation-filters="sRGB">
<feFlood flood-opacity="0" result="BackgroundImageFix"/>
<feBlend mode="normal" in="SourceGraphic" in2="BackgroundImageFix" result="shape"/>
<feGaussianBlur stdDeviation="7" result="effect1_foregroundBlur_10272_1627"/>
</filter>
<filter id="filter1_d_10272_1627" x="648.955" y="634.26" width="106.494" height="57.3698" filterUnits="userSpaceOnUse" color-interpolation-filters="sRGB">
<feFlood flood-opacity="0" result="BackgroundImageFix"/>
<feColorMatrix in="SourceAlpha" type="matrix" values="0 0 0 0 0 0 0 0 0 0 0 0 0 0 0 0 0 0 127 0" result="hardAlpha"/>
<feOffset dy="0.894382"/>
<feGaussianBlur stdDeviation="2.68315"/>
<feColorMatrix type="matrix" values="0 0 0 0 0.374547 0 0 0 0 0.481553 0 0 0 0 0.601935 0 0 0 0.15 0"/>
<feBlend mode="normal" in2="BackgroundImageFix" result="effect1_dropShadow_10272_1627"/>
<feBlend mode="normal" in="SourceGraphic" in2="effect1_dropShadow_10272_1627" result="shape"/>
</filter>
<filter id="filter2_d_10272_1627" x="406.829" y="420.232" width="267.063" height="195.319" filterUnits="userSpaceOnUse" color-interpolation-filters="sRGB">
<feFlood flood-opacity="0" result="BackgroundImageFix"/>
<feColorMatrix in="SourceAlpha" type="matrix" values="0 0 0 0 0 0 0 0 0 0 0 0 0 0 0 0 0 0 127 0" result="hardAlpha"/>
<feOffset dy="1.80551"/>
<feGaussianBlur stdDeviation="5.41654"/>
<feColorMatrix type="matrix" values="0 0 0 0 0.374547 0 0 0 0 0.481553 0 0 0 0 0.601935 0 0 0 0.15 0"/>
<feBlend mode="normal" in2="BackgroundImageFix" result="effect1_dropShadow_10272_1627"/>
<feBlend mode="normal" in="SourceGraphic" in2="effect1_dropShadow_10272_1627" result="shape"/>
</filter>
<filter id="filter3_d_10272_1627" x="537.511" y="198.385" width="383.445" height="105.658" filterUnits="userSpaceOnUse" color-interpolation-filters="sRGB">
<feFlood flood-opacity="0" result="BackgroundImageFix"/>
<feColorMatrix in="SourceAlpha" type="matrix" values="0 0 0 0 0 0 0 0 0 0 0 0 0 0 0 0 0 0 127 0" result="hardAlpha"/>
<feOffset dy="1.54925"/>
<feGaussianBlur stdDeviation="4.64776"/>
<feColorMatrix type="matrix" values="0 0 0 0 0.374547 0 0 0 0 0.481553 0 0 0 0 0.601935 0 0 0 0.15 0"/>
<feBlend mode="normal" in2="BackgroundImageFix" result="effect1_dropShadow_10272_1627"/>
<feBlend mode="normal" in="SourceGraphic" in2="effect1_dropShadow_10272_1627" result="shape"/>
</filter>
<filter id="filter4_f_10272_1627" x="175.369" y="1052" width="298.05" height="42.0029" filterUnits="userSpaceOnUse" color-interpolation-filters="sRGB">
<feFlood flood-opacity="0" result="BackgroundImageFix"/>
<feBlend mode="normal" in="SourceGraphic" in2="BackgroundImageFix" result="shape"/>
<feGaussianBlur stdDeviation="7" result="effect1_foregroundBlur_10272_1627"/>
</filter>
<linearGradient id="paint0_linear_10272_1627" x1="324.893" y1="1101.4" x2="325.394" y2="787.327" gradientUnits="userSpaceOnUse">
<stop offset="0.108095" stop-color="#DAF2F4"/>
<stop offset="1" stop-color="#DAF2F4" stop-opacity="0"/>
</linearGradient>
<clipPath id="clip0_10272_1627">
<rect width="1080" height="1080" fill="white"/>
</clipPath>
</defs>
</svg>
