<svg width="1108" height="1080" viewBox="0 0 1108 1080" fill="none" xmlns="http://www.w3.org/2000/svg">
<g filter="url(#filter0_d_10272_1591)">
<path fill-rule="evenodd" clip-rule="evenodd" d="M992.573 132C998.115 132 1002.61 136.202 1002.61 141.383L1002.61 360.236V466.84L962.462 493.489V493.49L828.377 582.46L828.376 582.459L828.374 582.46L771.8 544.924L715.384 582.46H715.383L715.382 582.46H715.186L581.102 493.491L540.955 466.84V360.236V141.385C540.955 136.202 545.449 132 550.992 132H992.573Z" fill="white"/>
</g>
<path d="M846.875 451.47H695.535C690.87 451.47 687.125 455.204 687.125 459.853C687.125 464.47 690.87 468.234 695.535 468.234H846.877C851.542 468.234 855.287 464.47 855.287 459.853C855.284 455.206 851.54 451.47 846.875 451.47Z" fill="#D2DFE6"/>
<path d="M813.273 484.996H729.175C724.51 484.996 720.766 488.728 720.766 493.377C720.766 497.993 724.51 501.758 729.175 501.758H813.273C817.906 501.758 821.683 497.993 821.683 493.377C821.683 488.728 817.904 484.996 813.273 484.996Z" fill="#D2DFE6"/>
<g opacity="0.2" filter="url(#filter1_f_10272_1591)">
<path d="M1094 769.599C1094 780.559 957.502 789.443 789.123 789.443C620.743 789.443 484.245 780.559 484.245 769.599C484.245 758.64 620.743 749.755 789.123 749.755C957.502 749.755 1094 758.64 1094 769.599Z" fill="#0A0F1A"/>
</g>
<path d="M1002.04 459.308L961.889 487.713L827.844 582.537H714.81H714.615L580.531 487.713L540.383 459.308L460.089 402.496V722.571C460.089 734.604 465.539 745.27 473.968 752.578H473.929C473.968 752.617 474.008 752.617 474.047 752.657C480.595 758.284 488.827 761.957 498.002 762.386H1044.81C1049.44 762.191 1053.63 760.98 1057.67 759.377H1057.87C1072.29 753.4 1082.33 739.177 1082.33 722.571V402.497L1002.04 459.308Z" fill="#FFD27A"/>
<path fill-rule="evenodd" clip-rule="evenodd" d="M521.761 343.785C498.041 359.116 460.09 386.182 460.09 402.419L528.981 451.163L540.383 459.231V459.231L540.384 459.231V332.273C540.384 332.273 540.384 332.273 540.383 332.273V332.273C540.383 332.273 533.932 336.011 524.688 341.906C523.74 342.51 522.763 343.137 521.761 343.785Z" fill="#F5BD4D"/>
<path d="M1082.33 402.585L1002.04 459.397V332.438C1002.04 332.438 1082.33 378.967 1082.33 402.585Z" fill="#F5BD4D"/>
<path d="M827.805 582.461L778.734 548.123H778.733C776.895 546.044 774.21 544.727 771.21 544.727C768.21 544.727 765.526 546.045 763.686 548.123H763.675L714.813 582.461H714.617L473.929 752.501C480.359 758.088 488.788 761.683 498.002 762.308H1044.81C1049.44 762.112 1053.63 760.902 1057.67 759.299H1057.87C1061.67 757.501 1065.28 755.276 1068.49 752.501L827.805 582.461Z" fill="#FFD686"/>
<path d="M850.018 276.631C845.449 253.432 828.946 237.216 804.765 232.202C794.003 230.052 783.052 228.989 772.078 229.028C757.639 229.028 737.36 230.901 722.826 239.913C698.453 254.987 695.661 284.882 696.168 301.32C696.676 317.759 700.675 340.893 716.447 357.205C729.49 370.787 755.005 377.261 774.204 377.737V394.62C774.191 395.584 774.371 396.54 774.733 397.433C775.095 398.326 775.632 399.138 776.312 399.821C776.991 400.504 777.801 401.044 778.692 401.41C779.584 401.776 780.539 401.96 781.503 401.951H782.169C783.672 401.829 785.096 401.228 786.232 400.237C793.753 393.89 803.622 385.227 813.206 376.278L817.459 372.374C825.141 365.827 832.09 358.463 838.181 350.414C851.161 331.944 855.604 304.335 850.018 276.631Z" fill="#2CC3D5"/>
<g opacity="0.5">
<path fill-rule="evenodd" clip-rule="evenodd" d="M782.127 297.956C779.648 299.612 776.735 300.495 773.754 300.495C769.757 300.495 765.924 298.908 763.098 296.081C760.272 293.255 758.684 289.422 758.684 285.425C758.684 282.445 759.568 279.531 761.224 277.053C762.88 274.575 765.233 272.643 767.987 271.502C770.741 270.362 773.771 270.063 776.694 270.645C779.617 271.226 782.303 272.662 784.41 274.769C786.518 276.877 787.953 279.562 788.535 282.485C789.116 285.409 788.818 288.439 787.677 291.192C786.536 293.946 784.605 296.3 782.127 297.956ZM771.342 304.439H776.165C781.823 304.442 787.248 306.691 791.249 310.692C795.249 314.692 797.498 320.118 797.502 325.775V329.97C797.498 331.241 796.992 332.46 796.093 333.359C795.194 334.257 793.976 334.764 792.704 334.767H754.79C753.519 334.764 752.301 334.257 751.402 333.359C750.503 332.46 749.996 331.241 749.993 329.97V325.788C749.993 320.126 752.242 314.696 756.246 310.692C760.25 306.688 765.68 304.439 771.342 304.439Z" fill="white"/>
</g>
<g opacity="0.2" filter="url(#filter2_f_10272_1591)">
<path d="M623.755 927.568C623.755 938.528 487.257 947.412 318.878 947.412C150.498 947.412 14 938.528 14 927.568C14 916.608 150.498 907.724 318.878 907.724C487.257 907.724 623.755 916.608 623.755 927.568Z" fill="#0A0F1A"/>
</g>
<path d="M330.951 789.479C330.951 793.199 329.848 796.835 327.781 799.928C325.714 803.021 322.777 805.432 319.34 806.856C315.903 808.279 312.121 808.652 308.473 807.926C304.824 807.2 301.473 805.409 298.842 802.779C296.212 800.148 294.42 796.797 293.694 793.148C292.969 789.5 293.341 785.718 294.765 782.281C296.188 778.844 298.599 775.906 301.692 773.84C304.785 771.773 308.422 770.67 312.142 770.67C317.13 770.67 321.915 772.651 325.442 776.179C328.969 779.706 330.951 784.49 330.951 789.479Z" fill="#BAE6F0"/>
<path fill-rule="evenodd" clip-rule="evenodd" d="M381.223 519.614C389.979 513.783 401.803 516.154 407.634 524.91C443.694 579.058 475.647 641.102 484.581 694.093C489.064 720.686 488.139 747.256 476.657 769.621C464.75 792.813 443.099 808.407 412.766 815.428C402.517 817.8 392.286 811.415 389.914 801.166C387.542 790.918 393.927 780.687 404.175 778.315C425.792 773.311 436.933 763.587 442.768 752.223C449.026 740.032 450.79 722.809 447.017 700.426C439.437 655.467 411.095 598.834 375.927 546.025C370.096 537.269 372.467 525.445 381.223 519.614Z" fill="#F3C29F"/>
<path fill-rule="evenodd" clip-rule="evenodd" d="M379.981 517.895C389.686 511.379 402.836 513.963 409.353 523.668C428.595 552.324 445.957 582.199 461.328 613.105C466.533 623.572 462.269 636.277 451.802 641.483C441.335 646.688 428.63 642.423 423.424 631.957C408.869 602.691 392.429 574.402 374.209 547.267C367.692 537.562 370.276 524.412 379.981 517.895Z" fill="#FB5A8B"/>
<path d="M415.534 829.495C415.597 828.889 415.547 828.276 415.386 827.688L413.251 821.955C408.323 808.304 396.101 773.791 395.723 758.793C395.082 733.216 398.811 689.389 401.013 674.703C396.889 676.888 392.881 679.91 388.594 679.91H233.555C229.251 679.91 224.832 677.381 220.709 675.196C222.91 689.882 225.473 733.216 224.832 758.793C224.455 773.791 212.315 808.304 207.305 821.955L205.169 827.688C205.009 828.276 204.959 828.889 205.021 829.495C205.02 829.522 205.02 829.55 205.021 829.577C205.021 837.183 252.036 843.376 310.319 843.475C368.602 843.573 415.616 837.183 415.616 829.577C415.591 829.548 415.564 829.52 415.534 829.495Z" fill="#FB5A8B"/>
<path d="M238.319 682.293C231.93 682.08 225.788 679.771 220.841 675.722L224.668 733.397C224.422 719.27 232.685 685.233 232.685 685.233C233.583 685.411 234.496 685.5 235.412 685.496C245.268 685.036 273.572 682.884 273.572 682.884C255.584 682.868 238.319 682.293 238.319 682.293Z" fill="#C64A79"/>
<path d="M312.914 679.187L220.709 675.196L224.98 750.497C226.935 703.582 312.914 679.187 312.914 679.187Z" fill="#EA4577"/>
<path d="M416.421 623.778C408.898 591.466 390.5 515.787 390.5 515.787C390.5 512.075 367.978 510.76 317.448 509.775V509.528L310.106 509.627L302.779 509.528V509.775C252.25 510.76 229.728 512.075 229.728 515.787C229.728 515.787 211.33 591.466 203.806 623.778C196.545 654.99 217.966 682.423 238.303 682.423H381.925C402.245 682.472 423.748 654.924 416.421 623.778Z" fill="#FB5A8B"/>
<path d="M382.5 682.292C382.5 682.292 365.235 682.867 347.247 682.867C347.247 682.867 387.05 683.179 392.011 702.908C392.389 704.781 392.766 706.719 393.128 708.69C394.771 717.742 396.249 727.368 396.15 733.331L401.079 674.44C395.69 678.645 388.479 682.292 382.5 682.292Z" fill="#EA4577"/>
<path fill-rule="evenodd" clip-rule="evenodd" d="M243.061 519.959C251.817 525.79 254.188 537.615 248.357 546.37C213.667 598.461 188.723 655.957 182.781 701.483C179.808 724.259 181.841 742.123 187.834 754.631C193.375 766.197 203.01 774.796 220.028 778.658C230.287 780.985 236.716 791.189 234.389 801.447C232.061 811.706 221.858 818.135 211.599 815.808C183.877 809.518 164.326 793.733 153.479 771.091C143.083 749.391 141.526 723.224 145.007 696.552C151.972 643.183 180.112 580.121 216.65 525.255C222.481 516.499 234.306 514.128 243.061 519.959Z" fill="#F3C29F"/>
<path fill-rule="evenodd" clip-rule="evenodd" d="M244.302 518.239C254.008 524.755 256.594 537.904 250.078 547.61C231.86 574.749 215.419 603.039 200.86 632.304C195.653 642.77 182.947 647.034 172.481 641.827C162.015 636.62 157.752 623.914 162.959 613.448C178.333 582.546 195.693 552.672 214.931 524.015C221.446 514.31 234.596 511.724 244.302 518.239Z" fill="#FB5A8B"/>
<path d="M430.582 708.576H193.769C191.131 708.574 188.524 709.14 186.125 710.236C183.726 711.333 181.59 712.933 179.865 714.928C178.139 716.923 176.864 719.266 176.125 721.799C175.387 724.331 175.202 726.993 175.584 729.603L192.471 845.808C192.841 848.338 194.104 850.652 196.033 852.33C197.962 854.009 200.428 854.941 202.985 854.957H421.3C423.869 854.957 426.351 854.032 428.293 852.352C430.236 850.672 431.509 848.349 431.879 845.808L448.766 729.603C449.149 726.993 448.964 724.331 448.225 721.799C447.487 719.266 446.211 716.923 444.486 714.928C442.76 712.933 440.625 711.333 438.226 710.236C435.827 709.14 433.219 708.574 430.582 708.576Z" fill="url(#paint0_linear_10272_1591)"/>
<path opacity="0.8" d="M330.622 782.003C330.117 779.257 328.778 776.734 326.788 774.777C324.798 772.819 322.254 771.522 319.501 771.062C316.909 770.548 314.274 770.289 311.632 770.29C308.133 770.29 303.221 770.75 299.673 772.951C295.238 775.695 292.905 781.033 293.102 787.966C293.217 791.957 294.17 797.575 298.03 801.584C301.119 804.869 307.049 806.397 311.649 806.594V810.191C311.653 810.769 311.884 811.323 312.293 811.732C312.702 812.14 313.255 812.372 313.833 812.376H314.03C314.479 812.34 314.905 812.162 315.246 811.867C317.037 810.339 319.402 808.302 321.685 806.15L322.704 805.23C324.531 803.649 326.183 801.875 327.632 799.941C330.868 795.423 331.952 788.721 330.622 782.003Z" fill="#DAE5EA"/>
<path d="M312.142 849.109L311.009 849.552L309.366 848.041L312.142 849.109Z" fill="#564B5E"/>
<path d="M565.216 750.383C565.434 750.383 565.643 750.296 565.797 750.142C565.951 749.988 566.037 749.779 566.037 749.561C566.037 749.344 565.951 749.135 565.797 748.981C565.643 748.827 565.434 748.74 565.216 748.74C564.998 748.74 564.789 748.827 564.635 748.981C564.481 749.135 564.395 749.344 564.395 749.561C564.395 749.779 564.481 749.988 564.635 750.142C564.789 750.296 564.998 750.383 565.216 750.383Z" fill="#DF638D"/>
<path opacity="0.6" d="M180.331 762.784C180.331 762.784 205.399 794.176 244.101 812.377C264.339 821.856 288.454 824.451 314.327 823.959C337.949 823.515 368.437 814.562 391.78 803.622C422.992 788.985 443.854 771.474 442.54 772.41L355.756 849.125L243.46 853.034L186.097 802.39L180.331 762.784Z" fill="#DEE8EC"/>
<path d="M538.424 934.823C528.951 937.535 519.152 938.939 509.299 938.996C500.538 939.076 491.785 938.488 483.114 937.238C467.008 934.858 451.09 931.35 435.475 926.741C431.656 925.664 428.372 923.209 426.258 919.851C424.144 916.493 423.35 912.47 424.031 908.56C424.711 904.651 426.817 901.133 429.942 898.686C433.066 896.24 436.987 895.039 440.946 895.316H441.159C455.672 896.52 470.252 896.696 484.789 895.842C491.422 895.419 498.013 894.486 504.502 893.049C509.964 891.887 515.227 889.933 520.124 887.251C526.044 884.057 532.979 883.308 539.444 885.166C545.909 887.024 551.388 891.34 554.709 897.189C558.031 903.039 558.928 909.956 557.211 916.459C555.493 922.963 551.297 928.535 545.52 931.981C543.807 932.956 541.988 933.733 540.099 934.298L538.424 934.823Z" fill="#212A3C"/>
<path d="M486.647 915.507C486.647 927.745 482.984 937.65 478.434 937.65L463.222 935.581C434.549 935.781 405.885 934.427 377.358 931.523C348.296 928.665 319.405 924.279 290.804 918.381C268.53 913.813 246.506 908.105 224.816 901.281L332.841 857.076C350.566 863.647 368.619 869.429 386.869 874.669C413.221 882.281 439.965 888.461 466.984 893.182H467.132C467.428 893.182 467.723 893.33 468.019 893.396H478.434C482.984 893.379 486.647 903.285 486.647 915.507Z" fill="#146984"/>
<path d="M104.06 887.269C108.958 889.952 114.221 891.905 119.683 893.068C126.172 894.506 132.762 895.439 139.395 895.861C153.933 896.715 168.512 896.539 183.025 895.335H183.239C187.195 895.063 191.112 896.268 194.233 898.716C197.353 901.164 199.455 904.681 200.134 908.589C200.812 912.496 200.018 916.516 197.904 919.873C195.791 923.229 192.509 925.683 188.693 926.76C173.079 931.372 157.16 934.879 141.054 937.257C132.399 938.499 123.662 939.081 114.919 938.998C105.066 938.941 95.2664 937.537 85.7935 934.826L84.1508 934.349C80.6591 933.342 77.4203 931.607 74.6479 929.257C71.8755 926.908 69.6323 923.998 68.0662 920.718C66.5 917.439 65.6465 913.865 65.5617 910.232C65.4769 906.599 66.1629 902.989 67.5743 899.64C68.9858 896.292 71.0908 893.28 73.7506 890.804C76.4104 888.328 79.5647 886.443 83.0057 885.274C86.4467 884.105 90.0962 883.679 93.714 884.023C97.3317 884.367 100.836 885.473 103.995 887.269H104.06Z" fill="#212A3C"/>
<path d="M508.051 848.796L506.671 849.798C492.994 859.682 478.502 868.387 463.353 875.819C449.255 882.778 434.776 888.937 419.985 894.266C391.733 904.344 362.797 912.392 333.398 918.348C304.803 924.247 275.917 928.633 246.86 931.49C218.328 934.393 189.659 935.748 160.98 935.548L145.785 937.617C141.267 937.617 137.571 927.761 137.571 915.474C137.571 903.186 141.218 893.346 145.785 893.346H156.2C156.495 893.346 156.775 893.182 157.087 893.133H157.234C165.448 891.72 173.662 890.149 181.875 888.418C183.255 888.139 184.635 887.86 185.998 887.548C341.694 881.24 440.897 774.07 442.441 772.394C443.624 771.228 444.757 770.061 445.874 768.895C447.953 766.726 450.212 764.737 452.626 762.948C474.901 746.702 505.357 752.747 520.634 776.451C535.911 800.156 530.342 832.533 508.051 848.796Z" fill="#167491"/>
<path d="M267.295 829.297C280.979 836.015 297.801 843.309 312.141 849.108C293.487 853.54 274.591 856.891 255.55 859.145C207.271 864.812 142.302 866.455 132.988 860.163C132.479 859.851 131.969 859.539 131.46 859.194L131.181 859.03C126.669 856.139 122.168 853.061 117.678 849.798L116.298 848.796C94.0065 832.533 88.372 800.139 103.6 776.435C118.828 752.73 149.251 746.685 171.542 762.964C173.956 764.753 176.215 766.742 178.294 768.911C186.541 777.437 195.498 785.247 205.07 792.254C215.386 799.843 226.113 806.857 237.201 813.264C246.926 818.893 256.957 824.237 267.295 829.297Z" fill="#167491"/>
<path d="M312.142 849.108C288.175 858.652 262.384 867.44 237.366 874.635C221.35 879.218 203.871 883.621 187.51 887.235L186.886 887.547L186.606 887.432L186.097 887.547L186.459 887.366C177.933 883.867 169.44 880.056 160.931 875.867C151.364 871.123 142.044 865.898 133.005 860.212C148.233 870.528 312.142 849.108 312.142 849.108Z" fill="#146984"/>
<path d="M442.54 772.395C440.996 774.038 341.793 881.241 186.098 887.549L187.461 887.253C204.217 883.584 220.841 879.379 237.334 874.637C262.669 867.38 287.626 858.86 312.11 849.109L314.82 848.042C339.702 838.154 363.855 826.522 387.099 813.233C398.188 806.825 408.914 799.811 419.23 792.222C427.45 786.161 435.238 779.535 442.54 772.395Z" fill="#146984"/>
<path d="M295.125 322.422C298.283 321.914 332.792 297.638 363.365 328.473C384.997 350.278 365.21 364.687 383.726 379.714C400.129 393.033 415.426 423.123 391.784 457.32C351.39 515.72 355.101 500.675 326.866 508.052C276.732 521.189 284.463 493.933 284.463 493.933L295.125 322.422Z" fill="#211F36"/>
<path d="M295.533 318.986C306.789 314.377 318.564 309.972 331.205 309.623C337.581 309.317 343.933 310.573 349.647 313.27C355.346 316.193 359.94 320.727 362.786 326.239C365.786 331.457 368.222 336.949 370.058 342.63C371.838 348.272 373.283 354.004 374.388 359.798C375.578 365.535 376.552 371.272 378.219 376.803C379.6 382.318 381.965 387.57 385.21 392.333C386.914 394.654 388.865 396.803 391.033 398.746C393.263 400.923 395.23 403.328 396.899 405.917C400.241 411.088 402.449 416.844 403.392 422.84C405.254 434.805 402.267 446.852 397.418 457.669C392.363 468.437 385.811 478.517 377.937 487.643C370.204 496.758 361.776 505.324 352.72 513.274C361.355 504.961 369.41 496.126 376.834 486.824C384.246 477.587 390.412 467.511 395.189 456.829C399.713 446.155 402.18 434.518 400.34 423.291C399.422 417.703 397.316 412.351 394.15 407.556C392.573 405.176 390.737 402.958 388.674 400.938C386.356 398.871 384.267 396.585 382.44 394.116C378.958 389.097 376.404 383.555 374.885 377.725C373.284 371.989 372.266 366.191 371.097 360.475C368.933 349.083 365.903 337.815 360.145 327.694C357.645 322.57 353.562 318.283 348.435 315.401C343.118 312.7 337.151 311.351 331.118 311.488C325.019 311.553 318.95 312.317 313.044 313.762C307.157 315.073 301.399 317.204 295.533 318.986Z" fill="#2C2A46"/>
<path d="M323.253 430.543C322.716 427.794 321.611 425.188 320.008 422.891C318.405 420.594 316.341 418.658 313.946 417.205C309.224 414.146 303.954 412.03 298.428 410.973C292.894 410.018 287.238 410.018 281.704 410.973C270.624 412.649 260.057 416.772 250.771 423.043C246.17 426.13 242.065 429.899 238.597 434.22C231.662 442.905 228.303 453.909 229.207 464.987C229.394 467.75 229.809 470.43 230.121 473.297C230.422 476.195 230.506 479.111 230.37 482.022C230.048 487.863 228.72 493.605 226.444 498.995C221.915 509.818 213.979 518.419 207.393 527.414C203.994 531.754 201.692 536.849 200.683 542.268C200.357 544.982 200.512 547.731 201.14 550.391C201.824 553.075 202.821 555.669 204.111 558.119C206.917 563.151 208.676 568.698 209.284 574.427C209.531 577.282 209.433 580.155 208.993 582.986C208.471 585.796 207.778 588.572 206.916 591.296C208.417 585.843 208.917 580.163 208.391 574.531C207.587 568.971 205.672 563.63 202.761 558.826C201.318 556.304 200.201 553.609 199.437 550.807C198.683 547.949 198.444 544.981 198.73 542.04C199.642 536.25 201.945 530.768 205.441 526.064C208.661 521.286 212.255 516.882 215.516 512.311C218.842 507.848 221.631 503.009 223.826 497.894C225.95 492.799 227.16 487.37 227.399 481.856C227.512 479.082 227.414 476.305 227.108 473.546C226.797 470.866 226.319 467.958 226.111 465.049C225.749 459.189 226.453 453.311 228.189 447.702C229.949 442.106 232.77 436.901 236.499 432.371C240.169 427.855 244.514 423.931 249.379 420.737C254.172 417.535 259.352 414.952 264.794 413.05C270.203 411.076 275.821 409.731 281.538 409.041C287.269 408.237 293.096 408.433 298.76 409.623C304.381 410.89 309.701 413.239 314.424 416.54C316.77 418.197 318.803 420.259 320.428 422.627C322.027 424.983 323 427.707 323.253 430.543Z" fill="#2C2A46"/>
<path d="M327.408 326.44C326.984 323.705 325.869 321.123 324.167 318.94C322.559 316.748 320.585 314.85 318.33 313.331C313.768 310.312 308.669 308.196 303.31 307.099C298.116 305.728 292.922 307.971 288.186 310.61C283.514 313.466 279.018 316.602 274.724 320C270.32 323.324 265.916 326.689 261.137 329.619C256.359 332.548 251.062 334.646 246.242 337.056C243.882 338.199 241.7 339.675 239.76 341.439C237.949 343.199 236.533 345.323 235.605 347.672C233.954 352.733 233.291 358.065 233.653 363.377C234.276 374.305 234.463 385.751 231.326 396.617C229.783 402.102 227.194 407.238 223.702 411.74C220.253 416.269 215.973 419.884 212.546 424.018C209.053 428.091 206.74 433.04 205.856 438.332C205.015 443.701 205.015 449.167 205.856 454.536C206.703 459.968 207.848 465.35 209.284 470.657C209.949 473.337 210.614 476.017 211.05 478.759C211.619 481.5 211.619 484.328 211.05 487.069C211.463 484.347 211.322 481.57 210.634 478.905C210.073 476.225 209.305 473.566 208.557 470.927C206.885 465.639 205.498 460.264 204.402 454.827C203.377 449.302 203.244 443.649 204.007 438.083C204.799 432.403 207.134 427.049 210.759 422.606C214.291 418.181 218.383 414.483 221.624 410.141C224.874 405.877 227.266 401.023 228.667 395.848C230.068 390.619 230.849 385.243 230.993 379.831C230.993 377.109 230.993 374.388 230.993 371.666L230.578 363.356C230.196 357.625 230.966 351.875 232.842 346.446C233.948 343.682 235.634 341.188 237.787 339.133C239.946 337.194 242.374 335.578 244.996 334.334C250.065 331.862 255.175 329.951 259.766 327.126C264.357 324.3 268.824 321.288 273.394 318.109C277.852 314.777 282.507 311.717 287.334 308.948C289.801 307.553 292.432 306.472 295.166 305.728C297.965 304.939 300.927 304.939 303.725 305.728C309.172 307.046 314.314 309.402 318.87 312.666C321.181 314.233 323.137 316.269 324.608 318.643C326.079 321.016 327.033 323.673 327.408 326.44Z" fill="#2C2A46"/>
<path d="M320.593 539.781C332.124 539.781 341.472 532.08 341.472 522.58C341.472 513.08 332.124 505.378 320.593 505.378C309.062 505.378 299.715 513.08 299.715 522.58C299.715 532.08 309.062 539.781 320.593 539.781Z" fill="#EFB8C2"/>
<path d="M320.593 539.781C332.124 539.781 341.472 532.08 341.472 522.58C341.472 513.08 332.124 505.378 320.593 505.378C309.062 505.378 299.715 513.08 299.715 522.58C299.715 532.08 309.062 539.781 320.593 539.781Z" fill="#F3C29F"/>
<path fill-rule="evenodd" clip-rule="evenodd" d="M320.594 506.61C309.509 506.61 300.947 513.973 300.947 522.58C300.947 531.187 309.509 538.549 320.594 538.549C331.678 538.549 340.24 531.187 340.24 522.58C340.24 513.973 331.678 506.61 320.594 506.61ZM298.483 522.58C298.483 512.187 308.617 504.146 320.594 504.146C332.571 504.146 342.704 512.187 342.704 522.58C342.704 532.973 332.571 541.013 320.594 541.013C308.617 541.013 298.483 532.973 298.483 522.58Z" fill="#F3C29F"/>
<path d="M322.276 473.156H318.89C314.3 473.163 309.724 472.668 305.241 471.681V511.153C305.249 512.962 305.615 514.752 306.316 516.421C307.017 518.089 308.041 519.602 309.328 520.874C310.615 522.146 312.141 523.151 313.817 523.832C315.494 524.513 317.288 524.857 319.098 524.843H322.276C324.084 524.843 325.874 524.487 327.544 523.794C329.214 523.102 330.731 522.087 332.008 520.808C333.286 519.528 334.298 518.01 334.988 516.339C335.678 514.668 336.032 512.877 336.029 511.07V471.702C331.511 472.68 326.9 473.168 322.276 473.156Z" fill="#F3C29F"/>
<path d="M305.283 500.491V511.855C305.283 511.855 308.586 506.225 320.635 506.183C332.684 506.142 335.967 512.416 335.967 512.416V498.746L305.241 498.227L305.283 500.491Z" fill="#E8AA7D"/>
<path d="M386.117 375.654V440.055C386.117 468.953 364.636 493.093 335.925 498.993C331.435 499.923 326.862 500.389 322.276 500.385H318.89C314.304 500.391 309.729 499.918 305.241 498.972C276.552 493.051 255.05 468.89 255.05 440.055V375.654C255.05 342.415 283.636 315.408 318.89 315.408H322.276C357.552 315.408 386.117 342.415 386.117 375.654Z" fill="#F3C29F"/>
<path d="M256.628 400.654V429.863C254.02 429.82 251.534 428.751 249.706 426.889C247.879 425.027 246.858 422.521 246.864 419.912V410.605C246.864 407.998 247.887 405.495 249.712 403.634C251.538 401.773 254.022 400.703 256.628 400.654Z" fill="#EFB8C2"/>
<path d="M391.808 428.676V437.983C391.814 440.591 390.793 443.097 388.966 444.96C387.139 446.822 384.652 447.89 382.044 447.934V418.724C384.651 418.773 387.134 419.843 388.96 421.704C390.786 423.565 391.808 426.068 391.808 428.676Z" fill="#F3C29F"/>
<path d="M289.578 386.044C280.27 400.067 301.814 414.567 283.345 446.726C274.35 462.411 275.742 471.22 280.291 477.452C285.111 483.871 299.695 488.961 306.176 499.224C315.733 514.431 320.573 538.509 295.644 571.104C264.814 611.386 254.552 611.718 243.312 638.164C243.146 638.758 242.859 639.311 242.47 639.789C242.081 640.268 241.598 640.661 241.051 640.946C240.504 641.23 239.904 641.399 239.289 641.442C238.674 641.485 238.056 641.402 237.475 641.197C230.798 634.701 225.621 626.825 222.306 618.12C218.99 609.414 217.616 600.09 218.279 590.798C220.585 559.117 197.837 554.11 199.166 540.794C201.244 519.708 210.343 527.228 227.835 500.449C231.326 495.09 232.655 487.237 218.985 476.122C205.316 465.008 201.514 436.817 213.875 427.157C226.236 417.497 230.869 402.061 223.805 390.677C221.188 386.522 204.506 361.26 240.279 341.337C246.616 337.826 260.098 326.192 267.93 315.41C275.139 305.459 310.144 296.173 326.494 310.009C342.844 323.845 395.964 342.417 375.377 382.304C363.597 405.177 304.888 363.046 289.578 386.044Z" fill="#2C2A46"/>
<path d="M369.561 322.328C361.5 316.532 361.376 301.553 326.495 309.863C306.074 314.911 386.575 392.276 386.118 419.698C386.118 419.698 411.65 398.924 401.99 371.647C396.173 355.151 395.633 341.087 369.561 322.328Z" fill="#2C2A46"/>
<path d="M403.145 373.182C403.296 369.52 402.895 365.856 401.955 362.314C401.078 358.847 399.756 355.509 398.024 352.381C394.415 346.119 389.693 340.569 384.09 336.003C381.159 333.692 378.322 331.298 375.577 328.82C372.784 326.301 370.259 323.743 366.746 322.795C363.189 321.839 359.579 321.092 355.936 320.556L344.813 318.634L355.921 319.719C359.654 320.052 363.361 320.632 367.017 321.456C368.914 321.903 370.705 322.718 372.289 323.853C373.875 324.971 375.267 326.199 376.7 327.422C379.537 329.81 382.421 332.085 385.398 334.285C391.891 338.408 397.183 344.169 400.742 350.987C404.398 357.792 405.26 365.753 403.145 373.182Z" fill="#2C2A46"/>
<defs>
<filter id="filter0_d_10272_1591" x="528.955" y="122" width="485.654" height="474.46" filterUnits="userSpaceOnUse" color-interpolation-filters="sRGB">
<feFlood flood-opacity="0" result="BackgroundImageFix"/>
<feColorMatrix in="SourceAlpha" type="matrix" values="0 0 0 0 0 0 0 0 0 0 0 0 0 0 0 0 0 0 127 0" result="hardAlpha"/>
<feOffset dy="2"/>
<feGaussianBlur stdDeviation="6"/>
<feColorMatrix type="matrix" values="0 0 0 0 0.374547 0 0 0 0 0.481553 0 0 0 0 0.601935 0 0 0 0.15 0"/>
<feBlend mode="normal" in2="BackgroundImageFix" result="effect1_dropShadow_10272_1591"/>
<feBlend mode="normal" in="SourceGraphic" in2="effect1_dropShadow_10272_1591" result="shape"/>
</filter>
<filter id="filter1_f_10272_1591" x="470.245" y="735.755" width="637.755" height="67.6882" filterUnits="userSpaceOnUse" color-interpolation-filters="sRGB">
<feFlood flood-opacity="0" result="BackgroundImageFix"/>
<feBlend mode="normal" in="SourceGraphic" in2="BackgroundImageFix" result="shape"/>
<feGaussianBlur stdDeviation="7" result="effect1_foregroundBlur_10272_1591"/>
</filter>
<filter id="filter2_f_10272_1591" x="0" y="893.724" width="637.755" height="67.6882" filterUnits="userSpaceOnUse" color-interpolation-filters="sRGB">
<feFlood flood-opacity="0" result="BackgroundImageFix"/>
<feBlend mode="normal" in="SourceGraphic" in2="BackgroundImageFix" result="shape"/>
<feGaussianBlur stdDeviation="7" result="effect1_foregroundBlur_10272_1591"/>
</filter>
<linearGradient id="paint0_linear_10272_1591" x1="312.143" y1="854.957" x2="312.143" y2="708.576" gradientUnits="userSpaceOnUse">
<stop offset="0.21" stop-color="#F5F8F9"/>
<stop offset="1" stop-color="white"/>
</linearGradient>
</defs>
</svg>
