<svg width="1081" height="1080" viewBox="0 0 1081 1080" fill="none" xmlns="http://www.w3.org/2000/svg">
<path fill-rule="evenodd" clip-rule="evenodd" d="M440.724 249.436V11.1761H443.791V249.436H440.724Z" fill="#3A4A65"/>
<path d="M451.822 288.894H432.693V254.406C432.693 253.753 432.821 253.107 433.071 252.504C433.321 251.901 433.687 251.353 434.149 250.891C434.61 250.43 435.158 250.064 435.761 249.814C436.364 249.564 437.011 249.435 437.664 249.435H446.783C447.435 249.435 448.082 249.564 448.685 249.814C449.288 250.064 449.836 250.43 450.298 250.891C450.759 251.353 451.125 251.901 451.375 252.504C451.625 253.107 451.754 253.753 451.754 254.406L451.822 288.894Z" fill="#3A4A65"/>
<path fill-rule="evenodd" clip-rule="evenodd" d="M431.442 288.894H453.074V319.423C463.676 323.705 471.157 334.094 471.157 346.231C471.157 362.191 458.218 375.13 442.258 375.13C426.297 375.13 413.358 362.191 413.358 346.231C413.358 334.094 420.839 323.705 431.442 319.423V288.894Z" fill="#E7EDF4"/>
<path fill-rule="evenodd" clip-rule="evenodd" d="M239.42 268.976V0H242.488V268.976H239.42Z" fill="#3A4A65"/>
<path d="M250.519 308.537H231.39V273.947C231.39 273.294 231.518 272.648 231.768 272.045C232.018 271.442 232.384 270.894 232.846 270.432C233.307 269.97 233.855 269.604 234.458 269.354C235.061 269.105 235.708 268.976 236.361 268.976H245.548C246.201 268.976 246.847 269.105 247.451 269.354C248.054 269.604 248.602 269.97 249.063 270.432C249.525 270.894 249.891 271.442 250.141 272.045C250.391 272.648 250.519 273.294 250.519 273.947V308.537Z" fill="#3A4A65"/>
<path fill-rule="evenodd" clip-rule="evenodd" d="M230.139 308.453H251.771V338.964C262.373 343.246 269.854 353.635 269.854 365.771C269.854 381.732 256.915 394.671 240.954 394.671C224.993 394.671 212.055 381.732 212.055 365.771C212.055 353.635 219.536 343.245 230.139 338.964V308.453Z" fill="#E7EDF4"/>
<path fill-rule="evenodd" clip-rule="evenodd" d="M322.983 171.959V20.2444H326.051V171.959H322.983Z" fill="#3A4A65"/>
<path d="M334.082 211.417H314.952V176.93C314.952 176.277 315.081 175.631 315.33 175.028C315.58 174.424 315.946 173.876 316.408 173.415C316.87 172.953 317.418 172.587 318.021 172.337C318.624 172.087 319.27 171.959 319.923 171.959H329.111C329.763 171.959 330.41 172.087 331.013 172.337C331.616 172.587 332.164 172.953 332.625 173.415C333.087 173.876 333.453 174.424 333.703 175.028C333.953 175.631 334.082 176.277 334.082 176.93V211.417Z" fill="#3A4A65"/>
<path d="M324.517 289.22C323.096 289.223 321.688 288.945 320.375 288.402C319.062 287.859 317.868 287.062 316.864 286.058C315.859 285.053 315.062 283.86 314.519 282.546C313.976 281.233 313.698 279.826 313.701 278.405V211.418H335.333V278.405C335.333 281.273 334.193 284.024 332.165 286.053C330.136 288.081 327.385 289.22 324.517 289.22Z" fill="#E7EDF4"/>
<path fill-rule="evenodd" clip-rule="evenodd" d="M145.299 281.215V5.74234H148.367V281.215H145.299Z" fill="#3A4A65"/>
<path d="M156.398 320.691H137.269V286.255C137.269 284.936 137.792 283.672 138.724 282.74C139.657 281.808 140.921 281.284 142.239 281.284H151.427C152.745 281.284 154.01 281.808 154.942 282.74C155.874 283.672 156.398 284.936 156.398 286.255V320.691Z" fill="#3A4A65"/>
<path d="M146.816 398.493C143.947 398.493 141.196 397.354 139.168 395.325C137.14 393.297 136 390.546 136 387.677V320.69H157.632V387.677C157.634 389.098 157.356 390.506 156.813 391.819C156.271 393.132 155.474 394.326 154.469 395.33C153.464 396.335 152.271 397.132 150.958 397.675C149.644 398.217 148.237 398.496 146.816 398.493Z" fill="#E7EDF4"/>
<path fill-rule="evenodd" clip-rule="evenodd" d="M187.233 416.003L187.233 152.166L190.301 152.166L190.301 416.003L187.233 416.003Z" fill="#3A4A65"/>
<path d="M196.405 438.244H180.978V410.304C180.978 409.239 181.4 408.217 182.152 407.462C182.903 406.707 183.924 406.28 184.989 406.276H192.445C193.511 406.28 194.531 406.707 195.283 407.462C196.034 408.217 196.456 409.239 196.456 410.304L196.405 438.244Z" fill="#3A4A65"/>
<path fill-rule="evenodd" clip-rule="evenodd" d="M179.898 438.243H197.416V462.976C205.999 466.443 212.055 474.853 212.055 484.678C212.055 497.6 201.579 508.076 188.657 508.076C175.735 508.076 165.26 497.6 165.26 484.678C165.26 474.853 171.316 466.443 179.898 462.976V438.243Z" fill="#E7EDF4"/>
<path d="M723.501 628.205C517.605 889.389 430.893 860.274 430.893 860.274C430.893 860.274 191.727 958.038 316.993 1061.95C316.993 1061.95 314.903 1060.4 364.34 1079.86H813.969C813.969 1079.86 940.166 1058.38 945.533 847.063C948.226 741.406 928.068 681.349 907.312 647.648C886.556 613.947 790.405 543.37 723.501 628.205Z" fill="#00C6D7"/>
<path d="M821.963 604.325C819.462 598.821 815.316 594.229 810.095 591.181C804.875 588.134 798.837 586.78 792.815 587.308C770.78 589.219 736.314 600.054 713.681 645.039C704.558 663.102 726.477 715.914 686.627 734.776C581.236 804.721 445.983 835.065 398.671 844.055C387.703 846.132 381.455 847.063 381.455 847.063C366.798 856.036 352.858 866.131 339.761 877.258C300.625 902.783 262.653 940.406 274.186 997.489C292.25 1087.03 365.585 1079.86 365.585 1079.86C365.585 1079.86 364.987 1079.68 364.073 1078.2C361.68 1074.53 357.077 1062.6 354.617 1024.29C351.194 971.116 475.779 955.628 475.779 955.628C554.265 998.153 634.496 971.199 663.761 951.241C700.204 926.314 764.665 764.738 818.822 737.318C865.17 713.887 837.235 637.96 821.963 604.325Z" fill="#3B93AE"/>
<path opacity="0.2" d="M492.512 926.463L477.556 923.489L465.641 936.335C463.334 933.33 460.15 931.116 456.53 930C452.91 928.884 449.033 928.92 445.434 930.103L407.079 942.699L406.947 942.516C404.171 942.516 343.45 957.472 324.356 969.437C305.261 981.402 314.385 1005.5 331.518 1007.44C347.272 1009.22 395.414 989.861 409.738 984.493C424.063 979.126 428.616 974.24 428.616 974.24L439.152 970.783C442.326 975.503 455.488 976.234 459.343 974.356C465.458 971.365 522.358 919.933 522.358 919.933L492.512 926.463Z" fill="black"/>
<path d="M639.515 847.062L643.171 922.591L566.546 972.162L514.565 922.458L639.515 847.062Z" fill="#212A3C"/>
<path fill-rule="evenodd" clip-rule="evenodd" d="M466.955 759.602C469.433 749.792 479.395 743.848 489.206 746.326L569.786 766.683C579.596 769.162 585.54 779.124 583.062 788.934C580.583 798.745 570.621 804.688 560.811 802.21L480.231 781.853C470.42 779.374 464.477 769.413 466.955 759.602Z" fill="#C18775"/>
<path fill-rule="evenodd" clip-rule="evenodd" d="M678.025 612.282C686.819 617.287 689.89 628.474 684.885 637.268L668.962 628.205C684.885 637.268 684.884 637.269 684.883 637.27L684.745 637.513C684.658 637.665 684.53 637.888 684.364 638.178C684.031 638.758 683.541 639.607 682.904 640.706C681.629 642.904 679.763 646.099 677.376 650.128C672.602 658.184 665.738 669.584 657.344 683.013C640.588 709.819 617.599 744.93 592.892 777.71C586.801 785.79 575.314 787.403 567.234 781.313C559.153 775.222 557.54 763.734 563.631 755.654C587.448 724.056 609.809 689.928 626.272 663.59C634.488 650.447 641.201 639.298 645.852 631.449C648.177 627.525 649.985 624.429 651.206 622.322C651.817 621.269 652.281 620.464 652.59 619.927C652.744 619.659 652.859 619.457 652.934 619.325L653.039 619.142L653.04 619.141C658.046 610.347 669.232 607.277 678.025 612.282Z" fill="#EFA11D"/>
<path d="M704.009 612.866L772.392 639.704L748.097 671.976L725.164 769.873L666.453 794.8L618.51 784.43L576.533 776.669L578.195 759.586C608.805 715.117 595.162 689.309 617.779 667.224L668.896 609.775L704.009 612.866Z" fill="#F6A721"/>
<path d="M749.376 615.641C768.245 615.641 783.542 600.345 783.542 581.475C783.542 562.605 768.245 547.308 749.376 547.308C730.506 547.308 715.209 562.605 715.209 581.475C715.209 600.345 730.506 615.641 749.376 615.641Z" fill="#2C2A46"/>
<path d="M783.542 589.286C802.412 589.286 817.708 573.989 817.708 555.119C817.708 536.249 802.412 520.953 783.542 520.953C764.672 520.953 749.375 536.249 749.375 555.119C749.375 573.989 764.672 589.286 783.542 589.286Z" fill="#2C2A46"/>
<path d="M646.993 518.211C665.863 518.211 681.16 502.914 681.16 484.044C681.16 465.175 665.863 449.878 646.993 449.878C628.123 449.878 612.827 465.175 612.827 484.044C612.827 502.914 628.123 518.211 646.993 518.211Z" fill="#2C2A46"/>
<path d="M638.102 552.36C656.972 552.36 672.269 537.063 672.269 518.194C672.269 499.324 656.972 484.027 638.102 484.027C619.233 484.027 603.936 499.324 603.936 518.194C603.936 537.063 619.233 552.36 638.102 552.36Z" fill="#2C2A46"/>
<path d="M646.993 586.527C665.863 586.527 681.16 571.23 681.16 552.36C681.16 533.491 665.863 518.194 646.993 518.194C628.123 518.194 612.827 533.491 612.827 552.36C612.827 571.23 628.123 586.527 646.993 586.527Z" fill="#2C2A46"/>
<path d="M667.766 606.801C686.636 606.801 701.933 591.504 701.933 572.634C701.933 553.765 686.636 538.468 667.766 538.468C648.896 538.468 633.6 553.765 633.6 572.634C633.6 591.504 648.896 606.801 667.766 606.801Z" fill="#2C2A46"/>
<path d="M700.187 608.463C719.057 608.463 734.354 593.166 734.354 574.296C734.354 555.426 719.057 540.13 700.187 540.13C681.318 540.13 666.021 555.426 666.021 574.296C666.021 593.166 681.318 608.463 700.187 608.463Z" fill="#2C2A46"/>
<path d="M709.31 585.795H712.135C715.969 585.802 719.791 585.389 723.535 584.566V617.469C723.537 618.979 723.242 620.475 722.666 621.871C722.09 623.267 721.245 624.536 720.179 625.606C719.112 626.675 717.846 627.524 716.452 628.104C715.057 628.684 713.562 628.983 712.052 628.985H709.393C706.342 628.981 703.417 627.766 701.261 625.607C699.105 623.447 697.894 620.521 697.894 617.469V584.599C701.646 585.403 705.473 585.804 709.31 585.795Z" fill="#CB9685"/>
<path d="M723.502 593.556V603.061C723.502 603.061 720.744 598.358 710.69 598.309C700.636 598.259 697.861 603.527 697.861 603.527V592.11L723.502 591.628V593.556Z" fill="#C18775"/>
<path d="M655.967 484.426V540.678C656.019 552.762 660.208 564.464 667.836 573.837C675.464 583.209 686.072 589.688 697.894 592.193C701.646 592.997 705.473 593.399 709.31 593.39H712.136C726.19 593.43 739.689 587.904 749.682 578.02C759.675 568.136 765.348 554.699 765.462 540.644V484.426C765.383 470.36 759.721 456.902 749.721 447.011C739.72 437.12 726.201 431.605 712.136 431.681H709.31C702.344 431.639 695.437 432.971 688.986 435.599C682.534 438.228 676.663 442.102 671.71 447C666.756 451.899 662.816 457.725 660.114 464.147C657.413 470.568 656.004 477.459 655.967 484.426Z" fill="#CB9685"/>
<path d="M760.078 508.706L770.779 493.733L764.365 468.058L762.221 455.213L751.519 444.511L736.547 433.809L717.286 427.394L691.612 433.809L674.479 440.24L661.65 450.942L659.506 472.329L656.564 477.314L760.078 508.706Z" fill="#292645"/>
<path d="M757.935 532.253V534.064C757.935 534.064 758.433 548.771 757.935 553.657C755.808 575.044 755.808 574.296 755.808 574.296L775.018 553.657L779.289 530.109L775.018 512.992H768.587L760.029 517.263L755.758 523.694" fill="#292645"/>
<path d="M754.262 571.056C754.262 571.056 749.559 548.406 761.79 543.686C774.021 538.967 776.912 555.934 771.079 563.628C765.246 571.322 754.262 571.056 754.262 571.056Z" fill="#CB9685"/>
<path d="M666.021 488.216C684.89 488.216 700.187 472.919 700.187 454.049C700.187 435.18 684.89 419.883 666.021 419.883C647.151 419.883 631.854 435.18 631.854 454.049C631.854 472.919 647.151 488.216 666.021 488.216Z" fill="#2C2A46"/>
<path d="M697.894 461.56C716.764 461.56 732.06 446.263 732.06 427.394C732.06 408.524 716.764 393.227 697.894 393.227C679.024 393.227 663.728 408.524 663.728 427.394C663.728 446.263 679.024 461.56 697.894 461.56Z" fill="#2C2A46"/>
<path d="M743.526 470.018C762.396 470.018 777.693 454.722 777.693 435.852C777.693 416.982 762.396 401.686 743.526 401.686C724.657 401.686 709.36 416.982 709.36 435.852C709.36 454.722 724.657 470.018 743.526 470.018Z" fill="#2C2A46"/>
<path d="M779.819 504.168C798.689 504.168 813.986 488.871 813.986 470.002C813.986 451.132 798.689 435.835 779.819 435.835C760.95 435.835 745.653 451.132 745.653 470.002C745.653 488.871 760.95 504.168 779.819 504.168Z" fill="#2C2A46"/>
<path d="M799.629 542.872C818.499 542.872 833.795 527.575 833.795 508.705C833.795 489.835 818.499 474.539 799.629 474.539C780.759 474.539 765.462 489.835 765.462 508.705C765.462 527.575 780.759 542.872 799.629 542.872Z" fill="#2C2A46"/>
<path d="M654.322 460.995L658.825 463.77L669.959 468.324L682.24 449.811L754.511 468.53C754.511 468.53 783.742 516.831 758.151 543.653C759.247 551.696 751.736 567.616 751.736 567.616C752.268 563.412 750.673 533.682 749.376 530.491C672.269 547.309 662.963 524.858 661.301 515.369C655.701 530.574 651.331 538.468 639.881 528.946L637.305 519.623C634.198 502.856 642.473 474.173 654.322 460.995Z" fill="#2C2A46"/>
<path d="M525.017 965.616C511.424 954.415 381.073 861.239 356.495 834.883C356.013 834.367 355.315 833.669 354.484 832.805C340.491 818.497 314.435 791.859 331.967 765.237C350.063 737.701 387.487 752.092 409.855 760.7C485.549 789.798 581.784 843.258 585.839 845.452L555.511 899.875C554.946 899.56 546.354 897.665 503.43 876.444C529.57 898.612 531.814 904.794 554.182 923.207L525.017 965.616Z" fill="#202C44"/>
<path d="M406.947 929.039C404.172 929.039 331.734 921.079 312.64 933.027C293.546 944.975 304.68 962.939 319.803 971.015C334.925 979.092 395.414 976.4 409.739 971.015C424.064 965.631 428.617 960.779 428.617 960.779L406.947 929.039Z" fill="#E8F2FF"/>
<path fill-rule="evenodd" clip-rule="evenodd" d="M468.558 928.327C471.713 937.941 466.478 948.293 456.864 951.449L416.416 964.727C406.803 967.883 396.451 962.647 393.295 953.034C390.139 943.42 395.374 933.068 404.988 929.912L445.436 916.634C455.05 913.478 465.402 918.713 468.558 928.327Z" fill="#CB9685"/>
<path d="M453.176 970.823C458.438 967.799 455.665 953.1 446.983 937.993C438.301 922.885 426.996 913.09 421.735 916.114C416.473 919.138 419.246 933.836 427.928 948.944C436.61 964.051 447.914 973.847 453.176 970.823Z" fill="#3A4A65"/>
<path d="M459.31 966.098L454.112 969.989L446.564 966.447L454.574 959.384L459.31 966.098Z" fill="#3A4A65"/>
<path d="M638.119 968.291C623.163 971.449 608.506 962.691 600.164 949.829C594.148 940.589 594.962 927.012 601.942 913.269C609.868 897.698 617.347 885.65 623.545 872.09C569.42 898.064 502.965 937.515 454.375 969.371L421.99 915.858C440.918 903.444 607.11 795.714 673.216 784.663C679.599 783.519 686.175 784.211 692.179 786.658C698.184 789.106 703.37 793.209 707.133 798.489C720.428 817.317 715.16 830.495 686.943 902.168C674.496 934.042 667.765 962.076 638.119 968.291Z" fill="#3A4A65"/>
<path d="M516.874 914.715C497.265 924.304 484.519 958.736 511.241 972.329C537.962 985.923 552.254 981.785 562.324 981.436C574.189 981.021 615.086 984.012 623.611 965.616C633.349 944.577 595.976 943.647 576.715 939.526C552.736 934.391 539.458 903.681 516.874 914.715Z" fill="#E8F2FF"/>
<path d="M363.69 663.518L426.838 814.11C427.728 816.286 429.22 818.162 431.139 819.519C433.059 820.876 435.325 821.657 437.673 821.771L530.584 825.194C531.962 825.251 533.332 824.964 534.571 824.359C535.811 823.755 536.88 822.851 537.683 821.73C538.486 820.609 538.997 819.306 539.171 817.938C539.344 816.569 539.175 815.18 538.677 813.894L480.099 661.258C479.516 659.735 478.498 658.416 477.171 657.468C475.844 656.519 474.267 655.982 472.637 655.924L371.65 652.068C370.265 652.023 368.89 652.326 367.652 652.948C366.413 653.57 365.35 654.492 364.559 655.63C363.767 656.768 363.273 658.086 363.122 659.464C362.97 660.841 363.165 662.235 363.69 663.518Z" fill="#F8FBFB"/>
<path fill-rule="evenodd" clip-rule="evenodd" d="M480.597 763.701C484.005 754.174 494.492 749.214 504.019 752.622L542.85 766.514L664.214 783.553C674.234 784.96 681.217 794.223 679.81 804.243C678.404 814.264 669.14 821.246 659.12 819.84L535.898 802.54C534.662 802.367 533.448 802.068 532.273 801.648L491.676 787.123C482.149 783.715 477.188 773.229 480.597 763.701Z" fill="#CB9685"/>
<path d="M751.038 645.038C751.038 645.038 728.072 695.058 710.058 718.739C700.902 730.754 682.506 745.095 682.506 745.095C682.506 745.095 669.693 780.325 661.667 784.446C653.641 788.567 720.179 775.24 720.179 775.24L766.46 678.706L751.038 645.038Z" fill="#EFA11D"/>
<path fill-rule="evenodd" clip-rule="evenodd" d="M768.501 638.28C778.319 640.729 784.292 650.674 781.842 660.491L764.066 656.056C781.842 660.491 781.842 660.493 781.842 660.494L781.788 660.71C781.754 660.844 781.705 661.039 781.641 661.291C781.513 661.796 781.325 662.533 781.081 663.48C780.593 665.373 779.88 668.108 778.969 671.514C777.147 678.32 774.529 687.826 771.335 698.652C765.002 720.12 756.201 747.476 746.688 769.248C746.396 769.916 746.064 770.567 745.695 771.195C729.865 798.132 706.979 810.458 688.412 815.88C679.21 818.567 671.002 819.594 665.038 819.952C662.041 820.131 659.567 820.145 657.762 820.107C656.859 820.088 656.118 820.056 655.56 820.025C655.281 820.01 655.046 819.994 654.859 819.981C654.766 819.974 654.684 819.968 654.614 819.962L654.519 819.954L654.478 819.951L654.459 819.949C654.45 819.949 654.441 819.948 656.033 801.696L654.441 819.948C644.361 819.069 636.902 810.185 637.781 800.104C638.656 790.066 647.471 782.627 657.499 783.433C657.517 783.435 657.55 783.437 657.597 783.439C657.755 783.448 658.072 783.463 658.531 783.473C659.454 783.492 660.934 783.489 662.843 783.375C666.691 783.144 672.105 782.469 678.14 780.707C689.833 777.292 703.593 769.932 713.565 753.531C721.97 734.067 730.071 709.025 736.19 688.283C739.278 677.817 741.812 668.618 743.572 662.041C744.451 658.755 745.135 656.13 745.598 654.336C745.829 653.439 746.005 652.75 746.121 652.29C746.179 652.06 746.223 651.888 746.251 651.775L746.29 651.621C746.29 651.621 746.29 651.621 746.29 651.62C748.74 641.803 758.684 635.831 768.501 638.28ZM657.601 783.442C657.604 783.442 657.606 783.442 657.608 783.442C657.608 783.442 657.608 783.442 657.608 783.442L657.601 783.442ZM657.608 783.442C657.616 783.444 657.615 783.546 656.05 801.494L657.624 783.444C657.619 783.443 657.613 783.443 657.608 783.442Z" fill="#F6A721"/>
<path fill-rule="evenodd" clip-rule="evenodd" d="M381.451 753.464C384.905 743.953 395.416 739.044 404.926 742.499L416.958 746.87C426.468 750.324 431.377 760.835 427.923 770.345C424.468 779.856 413.957 784.765 404.447 781.31L392.416 776.94C382.905 773.485 377.996 762.974 381.451 753.464Z" fill="#CB9685"/>
<path d="M410.702 807.28C417.898 812.348 424.927 817.6 431.923 822.901L452.795 838.871L473.618 854.907L494.573 870.81C486.766 866.73 479.209 862.191 471.939 857.217C464.611 852.348 457.565 847.097 450.569 841.762C443.572 836.428 436.792 830.861 430.128 825.144C423.465 819.428 416.917 813.462 410.702 807.28Z" fill="#1A2437"/>
<path d="M524.568 978.079C541.827 978.477 559.09 977.521 576.2 975.22C592.525 973.156 608.496 968.891 623.677 962.541C630.788 959.469 637.542 955.63 643.818 951.091C649.842 946.792 655.259 941.7 659.921 935.952C664.65 929.724 668.926 923.166 672.717 916.326C674.761 912.77 676.755 909.114 678.733 905.408C680.71 901.703 682.737 897.98 684.715 894.208C700.502 863.963 716.106 832.406 736.131 802.809C746.029 787.689 757.565 773.706 770.53 761.115C777.203 754.732 784.638 749.195 792.665 744.63C800.725 740.176 809.865 737.069 818.805 737.301C811.017 740.774 804.013 745.788 798.215 752.041C795.333 755.03 792.63 758.187 790.122 761.497C787.563 764.821 785.137 768.144 782.877 771.667C780.617 775.19 778.39 778.713 776.23 782.303C774.069 785.892 772.009 789.565 769.998 793.271C765.91 800.632 762.121 808.227 758.366 815.788C743.31 846.315 729.45 877.823 712.699 909.014C710.589 912.903 708.445 916.808 706.218 920.647C703.992 924.486 701.582 928.374 699.123 932.28C694.082 940.43 688.291 948.091 681.823 955.163C674.898 962.405 666.974 968.621 658.292 973.625C649.871 978.405 640.897 982.138 631.571 984.742C613.717 989.565 595.154 991.207 576.732 989.595C572.234 989.262 567.763 988.764 563.321 988.099C558.9 987.468 554.497 986.637 550.143 985.69C541.416 983.887 532.86 981.34 524.568 978.079Z" fill="#80E3EB"/>
<path opacity="0.6" d="M459.077 741.722C457.825 739.479 456.098 737.536 454.017 736.029C451.936 734.522 449.551 733.487 447.029 732.998C444.882 732.588 442.701 732.376 440.515 732.366C437.723 732.366 433.868 732.732 431.724 734.493C428.982 736.687 428.666 740.941 430.86 746.492C432.464 750.759 435.191 754.514 438.753 757.36C442.415 759.806 446.683 761.192 451.084 761.365L452.131 764.24C452.335 764.709 452.665 765.112 453.085 765.405C453.504 765.699 453.996 765.87 454.507 765.901H454.673C454.829 765.893 454.981 765.853 455.121 765.784C455.261 765.716 455.385 765.62 455.487 765.503C456.484 764.273 457.764 762.644 458.977 760.933C459.143 760.683 459.326 760.451 459.509 760.201C460.537 758.921 461.366 757.492 461.968 755.964C463.182 752.441 462.101 747.09 459.077 741.722Z" fill="#D2DFE6"/>
<path d="M383.449 580.112L395.796 621.84C396.062 622.746 396.113 623.702 395.945 624.632C395.777 625.562 395.395 626.439 394.829 627.196C394.263 627.952 393.528 628.566 392.684 628.989C391.839 629.412 390.908 629.633 389.963 629.634H333.063C331.784 629.637 330.538 629.235 329.502 628.486C328.466 627.736 327.693 626.678 327.297 625.462L313.487 583.735C313.188 582.823 313.109 581.852 313.257 580.904C313.405 579.955 313.775 579.055 314.338 578.277C314.9 577.499 315.639 576.865 316.493 576.427C317.348 575.99 318.293 575.76 319.254 575.758H377.632C378.941 575.761 380.214 576.187 381.262 576.971C382.31 577.756 383.077 578.857 383.449 580.112Z" fill="#80E3EB" fill-opacity="0.4"/>
<path d="M478.383 590.815L488.942 626.53C489.17 627.305 489.213 628.124 489.07 628.919C488.926 629.715 488.599 630.466 488.115 631.114C487.631 631.761 487.003 632.287 486.281 632.649C485.559 633.011 484.762 633.2 483.954 633.2H435.296C434.203 633.203 433.136 632.859 432.25 632.218C431.364 631.576 430.704 630.671 430.365 629.63L418.556 593.915C418.3 593.134 418.232 592.304 418.359 591.492C418.485 590.68 418.802 589.91 419.283 589.244C419.764 588.578 420.396 588.036 421.126 587.661C421.857 587.286 422.666 587.09 423.487 587.088H473.41C474.529 587.091 475.618 587.455 476.514 588.126C477.41 588.798 478.065 589.74 478.383 590.815Z" fill="#80E3EB" fill-opacity="0.4"/>
<path d="M359.903 680.292L372.25 722.02C372.516 722.927 372.567 723.883 372.399 724.812C372.231 725.742 371.849 726.62 371.283 727.376C370.717 728.132 369.983 728.746 369.138 729.17C368.293 729.593 367.362 729.813 366.417 729.814H309.517C308.239 729.817 306.992 729.416 305.956 728.666C304.92 727.917 304.148 726.858 303.751 725.643L289.941 683.915C289.642 683.003 289.563 682.033 289.711 681.084C289.859 680.136 290.229 679.235 290.792 678.457C291.354 677.679 292.093 677.045 292.947 676.608C293.802 676.17 294.748 675.941 295.708 675.938H354.086C355.395 675.942 356.668 676.367 357.716 677.152C358.764 677.936 359.531 679.037 359.903 680.292Z" fill="#80E3EB" fill-opacity="0.4"/>
<path d="M373.777 588.305L386.107 630.016C386.376 630.921 386.43 631.877 386.265 632.807C386.1 633.737 385.719 634.615 385.154 635.372C384.589 636.129 383.856 636.744 383.011 637.167C382.167 637.59 381.236 637.81 380.291 637.81H323.391C322.115 637.812 320.871 637.412 319.836 636.666C318.801 635.92 318.027 634.866 317.625 633.655L303.815 591.928C303.512 591.015 303.431 590.044 303.577 589.094C303.723 588.144 304.093 587.242 304.656 586.463C305.22 585.684 305.96 585.05 306.816 584.613C307.672 584.177 308.621 583.95 309.582 583.951H367.878C369.201 583.934 370.494 584.35 371.56 585.136C372.625 585.922 373.403 587.035 373.777 588.305Z" fill="#80E3EB" fill-opacity="0.5"/>
<path d="M470.519 597.564L481.064 633.276C481.294 634.051 481.341 634.869 481.199 635.665C481.058 636.461 480.732 637.213 480.249 637.861C479.766 638.509 479.139 639.035 478.417 639.398C477.695 639.76 476.898 639.949 476.09 639.948H427.429C426.338 639.95 425.274 639.607 424.389 638.969C423.503 638.33 422.842 637.428 422.498 636.392L410.688 600.666C410.429 599.885 410.359 599.053 410.484 598.24C410.609 597.426 410.926 596.654 411.407 595.987C411.889 595.32 412.522 594.777 413.254 594.404C413.987 594.03 414.798 593.835 415.62 593.837H465.474C466.606 593.822 467.712 594.178 468.623 594.851C469.534 595.524 470.2 596.477 470.519 597.564Z" fill="#80E3EB" fill-opacity="0.5"/>
<path d="M350.231 688.485L362.561 730.196C362.831 731.102 362.885 732.057 362.719 732.987C362.554 733.917 362.173 734.795 361.608 735.552C361.044 736.309 360.31 736.924 359.465 737.347C358.621 737.77 357.69 737.991 356.745 737.99H299.845C298.569 737.992 297.325 737.592 296.29 736.846C295.255 736.1 294.481 735.047 294.079 733.836L280.269 692.108C279.967 691.196 279.885 690.224 280.031 689.274C280.177 688.324 280.547 687.423 281.11 686.643C281.674 685.864 282.414 685.23 283.27 684.794C284.127 684.357 285.075 684.13 286.036 684.132H344.332C345.655 684.114 346.948 684.53 348.014 685.316C349.079 686.102 349.858 687.215 350.231 688.485Z" fill="#80E3EB" fill-opacity="0.5"/>
<path fill-rule="evenodd" clip-rule="evenodd" d="M523.042 661.695C522.733 660.599 521.595 659.962 520.499 660.271C519.501 660.552 518.883 661.523 519.015 662.522C517.912 662.676 516.834 662.991 515.817 663.462C514.188 664.216 512.761 665.346 511.653 666.759C510.55 668.319 509.826 670.116 509.538 672.005C509.249 673.894 509.404 675.825 509.991 677.643C510.818 680.428 511.456 683.265 511.902 686.135C511.609 687.423 511.128 688.661 510.473 689.808C510.293 690.115 510.199 690.465 510.199 690.821C510.199 691.178 510.293 691.527 510.473 691.835C510.655 692.14 510.913 692.392 511.221 692.567C511.53 692.742 511.879 692.833 512.234 692.832H524.269C524.825 693.853 525.609 694.74 526.568 695.418C527.909 696.367 529.52 696.859 531.162 696.82C534.005 696.82 535.942 695.37 535.817 692.832H545.852C546.269 692.834 546.676 692.709 547.02 692.475C547.364 692.24 547.629 691.907 547.78 691.519C547.949 691.145 548.003 690.728 547.934 690.323C547.866 689.918 547.68 689.542 547.398 689.243C545.948 687.995 544.628 686.603 543.459 685.088C542.286 682.3 541.287 679.442 540.468 676.53C539.261 672.573 536.853 669.089 533.578 666.561C530.587 664.252 527.008 662.845 523.261 662.493C523.251 662.443 523.239 662.393 523.225 662.343L523.042 661.695Z" fill="#FB5A8B"/>
</svg>
