<svg width="1080" height="1080" viewBox="0 0 1080 1080" fill="none" xmlns="http://www.w3.org/2000/svg">
<g opacity="0.2" filter="url(#filter0_f_10272_1603)">
<path d="M909.963 984.418C909.963 973.541 710.422 964.723 464.276 964.723C218.13 964.723 18.5894 973.541 18.5894 984.418C18.5894 995.295 218.13 1004.11 464.276 1004.11C710.422 1004.11 909.963 995.295 909.963 984.418Z" fill="#0A0F1A"/>
</g>
<g opacity="0.2" filter="url(#filter1_f_10272_1603)">
<path d="M1057.31 925.334C1057.31 934.196 1007.34 941.381 945.706 941.381C884.068 941.381 834.102 934.196 834.102 925.334C834.102 916.471 884.068 909.286 945.706 909.286C1007.34 909.286 1057.31 916.471 1057.31 925.334Z" fill="#0A0F1A"/>
</g>
<path fill-rule="evenodd" clip-rule="evenodd" d="M254.312 642.305L189.955 596.759C189.955 581.247 222.299 556.824 246.722 540.322C247.382 539.662 248.372 539.332 249.032 538.672C262.563 529.761 272.795 523.82 272.795 523.82V655.837L254.312 642.305Z" fill="#F5BD4D"/>
<path fill-rule="evenodd" clip-rule="evenodd" d="M751.684 655.837L834.854 596.759C834.854 584.548 814.062 566.396 793.269 551.214C772.476 536.032 751.684 523.82 751.684 523.82" fill="#F5BD4D"/>
<path fill-rule="evenodd" clip-rule="evenodd" d="M683.695 324.806C689.306 324.146 694.587 327.776 695.247 333.057L724.29 558.805L738.482 668.708L700.857 701.382L574.782 810.956L511.744 779.602L458.608 825.807H458.278L308.769 751.878L263.884 729.766L249.692 619.862L220.649 394.114C219.988 388.834 223.949 383.883 229.56 383.223L683.695 324.806Z" fill="#F5F8F9"/>
<g filter="url(#filter2_d_10272_1603)">
<path fill-rule="evenodd" clip-rule="evenodd" d="M741.783 362.761C747.394 362.761 752.344 367.051 752.344 372.662V600.39V711.284L710.759 739.007L571.812 831.418L513.065 792.473L454.648 831.088H454.318L315.371 738.677L273.786 710.953V600.06V372.332C273.786 367.051 278.406 362.431 284.347 362.431H741.783V362.761Z" fill="#FBFBFB"/>
</g>
<path d="M688.39 486.532H348.118C339.628 486.532 332.497 480.545 332.497 473.417V431.791C332.497 424.663 339.628 418.676 348.118 418.676H688.39C696.88 418.676 704.012 424.663 704.012 431.791V473.417C704.012 480.545 697.22 486.532 688.39 486.532Z" fill="#BED42B"/>
<path opacity="0.8" d="M490.003 778.316H354.81C342.669 778.316 332.497 767.139 332.497 752.981V549.188C332.497 535.403 342.341 523.854 354.81 523.854H490.003C502.144 523.854 512.317 535.03 512.317 549.188V752.981C512.317 767.139 502.473 778.316 490.003 778.316Z" fill="#D2DFE6"/>
<g opacity="0.8">
<path d="M557.29 544.283H693.596C699.537 544.283 704.158 539.663 704.158 533.722C704.158 527.781 699.537 523.161 693.596 523.161H557.29C551.349 523.161 546.728 527.781 546.728 533.722C546.728 539.663 551.349 544.283 557.29 544.283Z" fill="#D2DFE6"/>
<path d="M693.596 564.746H557.29C551.349 564.746 546.728 569.367 546.728 575.307C546.728 581.248 551.349 585.869 557.29 585.869H693.596C699.537 585.869 704.158 581.248 704.158 575.307C704.158 569.367 699.537 564.746 693.596 564.746Z" fill="#D2DFE6"/>
<path d="M693.596 606.661H557.29C551.349 606.661 546.728 611.282 546.728 617.222C546.728 623.163 551.349 627.784 557.29 627.784H693.596C699.537 627.784 704.158 623.163 704.158 617.222C704.158 611.282 699.537 606.661 693.596 606.661Z" fill="#D2DFE6"/>
<path d="M693.596 732.076H557.29C551.349 732.076 546.728 736.697 546.728 742.638C546.728 748.578 551.349 753.199 557.29 753.199H693.596C699.537 753.199 704.158 748.578 704.158 742.638C704.158 736.697 699.537 732.076 693.596 732.076Z" fill="#D2DFE6"/>
<path d="M693.595 773.661H332.531C326.59 773.661 321.97 778.282 321.97 784.222C321.97 790.163 326.59 794.784 332.531 794.784H693.595C699.536 794.784 704.157 790.163 704.157 784.222C704.157 778.282 699.536 773.661 693.595 773.661Z" fill="#D2DFE6"/>
<path d="M692.936 815.577H331.872C325.931 815.577 321.311 820.198 321.311 826.138C321.311 832.079 325.931 836.7 331.872 836.7H692.936C698.877 836.7 703.497 832.079 703.497 826.138C703.497 820.198 698.877 815.577 692.936 815.577Z" fill="#D2DFE6"/>
<path d="M693.596 690.162H557.29C551.349 690.162 546.728 694.782 546.728 700.723C546.728 706.664 551.349 711.284 557.29 711.284H693.596C699.537 711.284 704.158 706.664 704.158 700.723C704.158 694.782 699.537 690.162 693.596 690.162Z" fill="#D2DFE6"/>
<path d="M693.596 648.246H557.29C551.349 648.246 546.728 652.866 546.728 658.807C546.728 664.748 551.349 669.368 557.29 669.368H693.596C699.537 669.368 704.158 664.748 704.158 658.807C704.158 652.866 699.537 648.246 693.596 648.246Z" fill="#D2DFE6"/>
</g>
<path d="M751.683 655.837L710.098 685.54L571.151 784.223H453.987H453.657L314.71 685.54L273.125 655.837L189.955 596.76V929.77C189.955 942.312 195.565 953.533 204.476 961.124C211.407 967.065 219.658 970.695 229.229 971.355H795.909C800.86 971.025 805.15 970.035 809.111 968.385H809.441C824.292 962.114 834.854 947.263 834.854 930.1V596.76L751.683 655.837Z" fill="#FFD278"/>
<path d="M571.151 783.893L520.325 748.248C518.345 745.938 515.704 744.618 512.404 744.618C509.434 744.618 506.463 745.938 504.483 748.248L453.987 783.893H453.657L204.146 960.794C210.747 966.735 219.658 970.365 229.229 971.025H795.909C800.859 970.695 805.15 969.705 809.11 968.055H809.44C813.401 966.075 817.031 963.765 820.332 961.124L571.151 783.893Z" fill="#FCDA97"/>
<path d="M159.394 907.628C159.394 909.862 158.731 912.046 157.49 913.904C156.249 915.762 154.484 917.21 152.42 918.065C150.356 918.92 148.085 919.143 145.893 918.707C143.702 918.272 141.689 917.196 140.109 915.616C138.53 914.036 137.454 912.023 137.018 909.832C136.582 907.641 136.806 905.369 137.661 903.305C138.516 901.241 139.964 899.477 141.821 898.235C143.679 896.994 145.863 896.332 148.097 896.332C151.093 896.332 153.967 897.522 156.085 899.64C158.204 901.759 159.394 904.632 159.394 907.628Z" fill="#BAE6F0"/>
<path fill-rule="evenodd" clip-rule="evenodd" d="M189.587 745.551C194.845 742.049 201.947 743.473 205.449 748.731C227.106 781.252 246.297 818.515 251.662 850.341C254.354 866.312 253.799 882.27 246.903 895.702C239.752 909.631 226.748 918.996 208.531 923.213C202.376 924.638 196.231 920.803 194.806 914.648C193.382 908.492 197.216 902.348 203.371 900.923C216.354 897.918 223.045 892.078 226.549 885.253C230.308 877.931 231.368 867.587 229.101 854.144C224.549 827.142 207.527 793.129 186.406 761.413C182.904 756.154 184.328 749.053 189.587 745.551Z" fill="#F3C29F"/>
<path fill-rule="evenodd" clip-rule="evenodd" d="M188.841 744.519C194.67 740.605 202.567 742.157 206.481 747.986C218.038 765.196 228.465 783.139 237.697 801.7C240.823 807.987 238.262 815.617 231.976 818.744C225.689 821.87 218.059 819.309 214.932 813.022C206.191 795.446 196.317 778.456 185.374 762.159C181.46 756.33 183.012 748.432 188.841 744.519Z" fill="#2CC3D5"/>
<path d="M210.194 931.661C210.232 931.297 210.201 930.929 210.105 930.576L208.822 927.133C205.863 918.934 198.522 898.206 198.296 889.199C197.911 873.837 200.15 847.515 201.472 838.695C198.996 840.007 196.589 841.823 194.014 841.823H100.899C98.3146 841.823 95.6606 840.303 93.1843 838.991C94.5063 847.811 96.0454 873.837 95.6606 889.199C95.4337 898.206 88.1428 918.934 85.1337 927.133L83.8512 930.576C83.7547 930.929 83.7246 931.297 83.7624 931.661C83.7614 931.678 83.7614 931.694 83.7624 931.711C83.7624 936.279 111.999 939.998 147.003 940.057C182.007 940.116 210.243 936.279 210.243 931.711C210.228 931.693 210.212 931.676 210.194 931.661Z" fill="#2CC3D5"/>
<path d="M103.76 843.253C99.9229 843.125 96.2341 841.739 93.2629 839.307L95.5617 873.946C95.4137 865.461 100.376 845.019 100.376 845.019C100.916 845.126 101.464 845.179 102.014 845.177C107.934 844.901 124.932 843.608 124.932 843.608C114.129 843.598 103.76 843.253 103.76 843.253Z" fill="#C64A79"/>
<path d="M148.561 841.389L93.1836 838.992L95.7487 884.217C96.9228 856.04 148.561 841.389 148.561 841.389Z" fill="#2AB6C8"/>
<path d="M210.726 808.111C206.207 788.705 195.157 743.253 195.157 743.253C195.157 741.023 181.631 740.234 151.284 739.642V739.494L146.874 739.553L142.474 739.494V739.642C112.126 740.234 98.6 741.023 98.6 743.253C98.6 743.253 87.5502 788.705 83.0316 808.111C78.6709 826.856 91.536 843.332 103.75 843.332H190.007C202.212 843.362 215.126 826.817 210.726 808.111Z" fill="#2CC3D5"/>
<path d="M190.353 843.253C190.353 843.253 179.984 843.598 169.181 843.598C169.181 843.598 193.086 843.786 196.065 855.635C196.292 856.759 196.519 857.924 196.736 859.107C197.723 864.544 198.611 870.325 198.552 873.906L201.511 838.537C198.275 841.063 193.944 843.253 190.353 843.253Z" fill="#2AB6C8"/>
<path fill-rule="evenodd" clip-rule="evenodd" d="M106.608 745.758C111.867 749.26 113.291 756.362 109.789 761.62C88.9545 792.905 73.9729 827.436 70.4042 854.779C68.6188 868.458 69.84 879.187 73.4391 886.699C76.7668 893.645 82.554 898.81 92.7748 901.129C98.9361 902.527 102.797 908.655 101.399 914.816C100.001 920.978 93.8734 924.839 87.7121 923.441C71.063 919.663 59.3209 910.183 52.8058 896.585C46.562 883.552 45.6269 867.836 47.7176 851.818C51.9012 819.765 68.8015 781.891 90.7459 748.939C94.2478 743.68 101.349 742.256 106.608 745.758Z" fill="#F3C29F"/>
<path fill-rule="evenodd" clip-rule="evenodd" d="M107.353 744.725C113.182 748.638 114.735 756.535 110.822 762.365C99.8805 778.664 90.0065 795.655 81.2622 813.231C78.135 819.517 70.5042 822.077 64.2184 818.95C57.9326 815.823 55.3721 808.192 58.4993 801.906C67.7328 783.347 78.1593 765.405 89.7132 748.194C93.6263 742.365 101.524 740.812 107.353 744.725Z" fill="#2CC3D5"/>
<path d="M219.23 859.039H77.0033C75.4191 859.037 73.8532 859.378 72.4122 860.036C70.9712 860.694 69.6889 861.655 68.6526 862.853C67.6163 864.052 66.8502 865.459 66.4066 866.98C65.963 868.501 65.8522 870.099 66.0817 871.667L76.2239 941.458C76.4456 942.978 77.2044 944.368 78.3628 945.376C79.5212 946.384 81.0024 946.944 82.538 946.954H213.656C215.198 946.953 216.689 946.398 217.856 945.389C219.022 944.38 219.787 942.984 220.009 941.458L230.151 871.667C230.381 870.099 230.27 868.501 229.827 866.98C229.383 865.459 228.617 864.052 227.581 862.853C226.544 861.655 225.262 860.694 223.821 860.036C222.38 859.378 220.814 859.037 219.23 859.039Z" fill="url(#paint0_linear_10272_1603)"/>
<path opacity="0.8" d="M159.196 903.139C158.893 901.49 158.089 899.975 156.894 898.799C155.699 897.623 154.171 896.844 152.517 896.568C150.961 896.259 149.378 896.104 147.791 896.104C145.69 896.104 142.74 896.38 140.609 897.703C137.945 899.35 136.544 902.557 136.663 906.72C136.732 909.117 137.304 912.492 139.622 914.899C141.477 916.872 145.039 917.789 147.801 917.908V920.069C147.804 920.416 147.943 920.748 148.188 920.993C148.434 921.239 148.766 921.378 149.113 921.381H149.232C149.502 921.359 149.757 921.252 149.962 921.075C151.037 920.157 152.458 918.934 153.829 917.642L154.441 917.089C155.538 916.139 156.531 915.074 157.401 913.912C159.344 911.199 159.996 907.174 159.196 903.139Z" fill="#DAE5EA"/>
<path d="M148.098 943.442L147.417 943.708L146.43 942.8L148.098 943.442Z" fill="#564B5E"/>
<path d="M300.091 884.148C300.222 884.148 300.347 884.096 300.44 884.003C300.532 883.911 300.584 883.785 300.584 883.654C300.584 883.524 300.532 883.398 300.44 883.306C300.347 883.213 300.222 883.161 300.091 883.161C299.96 883.161 299.835 883.213 299.742 883.306C299.65 883.398 299.598 883.524 299.598 883.654C299.598 883.785 299.65 883.911 299.742 884.003C299.835 884.096 299.96 884.148 300.091 884.148Z" fill="#DF638D"/>
<path opacity="0.6" d="M68.9333 891.596C68.9333 891.596 83.9887 910.45 107.233 921.381C119.388 927.074 133.871 928.633 149.409 928.337C163.597 928.07 181.908 922.693 195.927 916.123C214.672 907.332 227.202 896.815 226.413 897.378L174.291 943.451L106.848 945.799L72.3963 915.383L68.9333 891.596Z" fill="#DEE8EC"/>
<path d="M284.001 994.921C278.311 996.55 272.426 997.393 266.508 997.427C261.247 997.475 255.99 997.123 250.782 996.372C241.109 994.942 231.549 992.836 222.171 990.067C219.877 989.421 217.905 987.946 216.635 985.929C215.365 983.912 214.889 981.496 215.297 979.148C215.706 976.8 216.971 974.687 218.848 973.218C220.724 971.749 223.079 971.028 225.456 971.194H225.585C234.301 971.917 243.057 972.023 251.789 971.51C255.772 971.256 259.73 970.695 263.628 969.833C266.908 969.134 270.069 967.961 273.01 966.35C276.565 964.432 280.731 963.982 284.613 965.098C288.496 966.214 291.787 968.806 293.782 972.319C295.776 975.832 296.315 979.987 295.284 983.892C294.252 987.798 291.732 991.145 288.263 993.215C287.234 993.8 286.141 994.267 285.007 994.606L284.001 994.921Z" fill="#FF7B80"/>
<path d="M252.903 983.32C252.903 990.67 250.702 996.619 247.97 996.619L238.834 995.376C221.613 995.496 204.398 994.683 187.265 992.939C169.81 991.222 152.459 988.588 135.281 985.046C121.904 982.302 108.676 978.874 95.6501 974.776L160.528 948.227C171.174 952.173 182.016 955.646 192.977 958.793C208.804 963.364 224.866 967.076 241.093 969.912H241.182C241.36 969.912 241.537 970.001 241.715 970.04H247.97C250.702 970.03 252.903 975.979 252.903 983.32Z" fill="#121927"/>
<path d="M23.1261 966.36C26.0675 967.971 29.2283 969.144 32.5085 969.843C36.4058 970.706 40.3639 971.267 44.3476 971.52C53.0787 972.033 61.8352 971.927 70.5514 971.204H70.6797C73.056 971.041 75.4084 971.765 77.2825 973.235C79.1565 974.705 80.4192 976.817 80.8264 979.164C81.2337 981.511 80.7568 983.926 79.4877 985.941C78.2186 987.957 76.2475 989.431 73.9551 990.078C64.5777 992.847 55.0171 994.954 45.3441 996.382C40.1459 997.128 34.8986 997.478 29.6474 997.428C23.7297 997.394 17.8445 996.55 12.1552 994.922L11.1686 994.636C9.0715 994.031 7.12634 992.989 5.46126 991.578C3.79618 990.166 2.44897 988.419 1.50836 986.449C0.567762 984.48 0.0551187 982.333 0.00420466 980.151C-0.0467094 977.969 0.365261 975.801 1.21298 973.79C2.06069 971.779 3.32492 969.97 4.92237 968.483C6.51982 966.996 8.41425 965.864 10.4809 965.162C12.5475 964.46 14.7394 964.204 16.9121 964.41C19.0849 964.617 21.1893 965.281 23.0866 966.36H23.1261Z" fill="#FF7B80"/>
<path d="M265.758 943.255L264.929 943.856C256.715 949.792 248.012 955.02 238.913 959.484C230.446 963.664 221.75 967.363 212.867 970.563C195.899 976.616 178.52 981.449 160.864 985.027C143.69 988.569 126.342 991.204 108.89 992.919C91.7542 994.663 74.5359 995.476 57.3116 995.356L48.1856 996.599C45.4725 996.599 43.2527 990.68 43.2527 983.3C43.2527 975.921 45.4429 970.011 48.1856 970.011H54.4406C54.6182 970.011 54.7859 969.912 54.9734 969.883H55.0622C59.9951 969.034 64.9281 968.09 69.861 967.051C70.6897 966.883 71.5185 966.716 72.3373 966.528C165.846 962.74 225.426 898.375 226.354 897.368C227.064 896.668 227.745 895.967 228.416 895.267C229.664 893.964 231.021 892.769 232.471 891.695C245.849 881.938 264.14 885.569 273.315 899.805C282.491 914.042 279.146 933.487 265.758 943.255Z" fill="#1A2437"/>
<path d="M121.164 931.543C129.382 935.578 139.485 939.959 148.097 943.442C136.894 946.104 125.545 948.116 114.109 949.47C85.1136 952.873 46.094 953.86 40.5 950.081C40.1942 949.894 39.8883 949.706 39.5825 949.499L39.4148 949.401C36.705 947.664 34.0017 945.816 31.305 943.856L30.4763 943.254C17.0883 933.487 13.7043 914.031 22.85 899.795C31.9956 885.558 50.2673 881.928 63.6553 891.705C65.1051 892.779 66.4616 893.974 67.7102 895.276C72.6631 900.397 78.043 905.087 83.7916 909.296C89.9872 913.853 96.4296 918.066 103.089 921.914C108.93 925.295 114.955 928.505 121.164 931.543Z" fill="#1A2437"/>
<path d="M148.098 943.441C133.703 949.173 118.214 954.452 103.188 958.773C93.569 961.526 83.0717 964.17 73.2453 966.34L72.8704 966.528L72.7027 966.459L72.3968 966.528L72.6139 966.419C67.4935 964.318 62.3928 962.029 57.2823 959.513C51.5368 956.663 45.9389 953.525 40.5103 950.111C49.6559 956.307 148.098 943.441 148.098 943.441Z" fill="#121927"/>
<path d="M226.413 897.368C225.486 898.355 165.906 962.74 72.3967 966.528L73.2156 966.351C83.2788 964.147 93.2631 961.622 103.168 958.774C118.385 954.415 133.373 949.298 148.078 943.442L149.706 942.801C164.65 936.862 179.156 929.876 193.116 921.895C199.775 918.047 206.218 913.834 212.413 909.277C217.35 905.636 222.028 901.657 226.413 897.368Z" fill="#141E30"/>
<path d="M137.878 627.121C139.775 626.815 160.501 612.235 178.862 630.755C191.854 643.85 179.97 652.504 191.091 661.529C200.942 669.528 210.129 687.6 195.93 708.138C171.67 743.213 173.899 734.177 156.942 738.607C126.832 746.497 131.474 730.128 131.474 730.128L137.878 627.121Z" fill="#211F36"/>
<path d="M138.123 625.057C144.883 622.288 151.955 619.643 159.547 619.433C163.377 619.249 167.192 620.004 170.623 621.624C174.046 623.379 176.805 626.102 178.514 629.413C180.316 632.547 181.779 635.845 182.882 639.256C183.951 642.645 184.819 646.088 185.482 649.568C186.197 653.013 186.782 656.459 187.783 659.781C188.613 663.093 190.033 666.247 191.982 669.108C193.005 670.502 194.177 671.792 195.479 672.959C196.818 674.267 198 675.712 199.002 677.266C201.009 680.372 202.336 683.829 202.902 687.43C204.02 694.616 202.226 701.851 199.314 708.348C196.278 714.815 192.343 720.869 187.614 726.35C182.969 731.824 177.908 736.969 172.469 741.743C177.655 736.751 182.493 731.444 186.951 725.858C191.403 720.31 195.106 714.259 197.975 707.844C200.692 701.433 202.174 694.444 201.069 687.701C200.517 684.345 199.253 681.13 197.351 678.25C196.404 676.821 195.301 675.489 194.062 674.276C192.67 673.034 191.415 671.661 190.318 670.178C188.227 667.164 186.693 663.836 185.781 660.335C184.819 656.889 184.208 653.407 183.506 649.974C182.206 643.132 180.386 636.365 176.928 630.286C175.427 627.209 172.974 624.634 169.895 622.903C166.702 621.281 163.118 620.471 159.495 620.553C155.832 620.592 152.187 621.051 148.64 621.919C145.104 622.707 141.646 623.986 138.123 625.057Z" fill="#2C2A46"/>
<path d="M154.771 692.056C154.449 690.406 153.785 688.84 152.822 687.461C151.86 686.082 150.62 684.918 149.182 684.046C146.345 682.209 143.18 680.938 139.861 680.303C136.538 679.73 133.141 679.73 129.817 680.303C123.163 681.309 116.817 683.786 111.239 687.552C108.476 689.406 106.011 691.67 103.928 694.265C99.7627 699.481 97.7456 706.09 98.2881 712.743C98.4004 714.403 98.6499 716.012 98.8371 717.734C99.0181 719.474 99.0682 721.226 98.9868 722.974C98.7934 726.483 97.9956 729.931 96.6286 733.168C93.9086 739.668 89.1424 744.834 85.1872 750.236C83.1457 752.843 81.7633 755.903 81.1572 759.157C80.9615 760.787 81.0544 762.439 81.4317 764.036C81.8424 765.648 82.4412 767.206 83.2159 768.677C84.9011 771.699 85.9579 775.031 86.3227 778.472C86.4708 780.186 86.4122 781.912 86.148 783.612C85.8348 785.3 85.4181 786.967 84.9003 788.603C85.8021 785.328 86.1022 781.916 85.7861 778.534C85.3034 775.195 84.1535 771.987 82.4049 769.102C81.5386 767.587 80.8679 765.969 80.4086 764.285C79.9562 762.569 79.8126 760.787 79.9844 759.02C80.5319 755.543 81.9148 752.251 84.0144 749.425C85.9483 746.556 88.1069 743.911 90.0657 741.166C92.063 738.485 93.7381 735.579 95.0565 732.507C96.3323 729.447 97.0587 726.186 97.2026 722.874C97.2701 721.209 97.2117 719.54 97.0279 717.884C96.8407 716.274 96.5538 714.527 96.429 712.781C96.2115 709.261 96.6342 705.731 97.6767 702.362C98.7339 699.001 100.428 695.875 102.667 693.154C104.872 690.442 107.481 688.085 110.403 686.167C113.282 684.244 116.393 682.693 119.661 681.551C122.91 680.365 126.284 679.557 129.718 679.143C133.16 678.66 136.659 678.778 140.061 679.492C143.437 680.253 146.632 681.664 149.469 683.647C150.878 684.642 152.099 685.88 153.074 687.303C154.035 688.717 154.619 690.353 154.771 692.056Z" fill="#2C2A46"/>
<path d="M157.266 629.534C157.012 627.891 156.342 626.34 155.32 625.029C154.354 623.713 153.168 622.573 151.814 621.661C149.074 619.847 146.012 618.576 142.793 617.917C139.674 617.094 136.555 618.442 133.71 620.026C130.904 621.742 128.204 623.625 125.625 625.666C122.98 627.662 120.335 629.683 117.465 631.443C114.595 633.202 111.414 634.462 108.519 635.909C107.102 636.596 105.791 637.482 104.626 638.542C103.538 639.599 102.688 640.874 102.131 642.285C101.139 645.325 100.741 648.527 100.958 651.718C101.332 658.28 101.445 665.155 99.5605 671.681C98.6338 674.975 97.0789 678.06 94.9814 680.764C92.9103 683.484 90.34 685.655 88.2813 688.138C86.1838 690.584 84.7945 693.556 84.2637 696.734C83.7584 699.959 83.7584 703.242 84.2637 706.467C84.7725 709.729 85.4598 712.961 86.3224 716.149C86.7217 717.758 87.1209 719.368 87.383 721.015C87.725 722.661 87.725 724.359 87.383 726.005C87.6311 724.371 87.5462 722.703 87.1334 721.102C86.7965 719.492 86.3349 717.895 85.8857 716.311C84.8813 713.135 84.0483 709.907 83.3903 706.641C82.7749 703.323 82.6949 699.928 83.1533 696.585C83.6287 693.174 85.0313 689.958 87.2083 687.289C89.3294 684.632 91.7873 682.411 93.7337 679.803C95.6858 677.243 97.1223 674.327 97.9634 671.219C98.8048 668.078 99.2739 664.85 99.3609 661.599C99.3609 659.965 99.3609 658.33 99.3609 656.696L99.1113 651.705C98.8818 648.263 99.3442 644.809 100.471 641.549C101.135 639.889 102.148 638.391 103.441 637.157C104.737 635.992 106.196 635.022 107.77 634.275C110.815 632.79 113.884 631.642 116.641 629.945C119.399 628.248 122.081 626.439 124.826 624.53C127.503 622.529 130.299 620.691 133.198 619.028C134.68 618.191 136.26 617.541 137.902 617.094C139.583 616.62 141.362 616.62 143.043 617.094C146.314 617.886 149.402 619.301 152.138 621.261C153.527 622.202 154.701 623.425 155.585 624.851C156.468 626.276 157.041 627.872 157.266 629.534Z" fill="#2C2A46"/>
<path d="M153.174 757.663C160.099 757.663 165.713 753.038 165.713 747.332C165.713 741.627 160.099 737.001 153.174 737.001C146.249 737.001 140.635 741.627 140.635 747.332C140.635 753.038 146.249 757.663 153.174 757.663Z" fill="#EFB8C2"/>
<path d="M153.174 757.663C160.099 757.663 165.713 753.038 165.713 747.332C165.713 741.627 160.099 737.001 153.174 737.001C146.249 737.001 140.635 741.627 140.635 747.332C140.635 753.038 146.249 757.663 153.174 757.663Z" fill="#F3C29F"/>
<path fill-rule="evenodd" clip-rule="evenodd" d="M153.174 737.741C146.517 737.741 141.375 742.163 141.375 747.332C141.375 752.502 146.517 756.923 153.174 756.923C159.831 756.923 164.973 752.502 164.973 747.332C164.973 742.163 159.831 737.741 153.174 737.741ZM139.895 747.332C139.895 741.09 145.981 736.261 153.174 736.261C160.367 736.261 166.453 741.09 166.453 747.332C166.453 753.574 160.367 758.403 153.174 758.403C145.981 758.403 139.895 753.574 139.895 747.332Z" fill="#F3C29F"/>
<path d="M154.185 717.648H152.151C149.394 717.652 146.646 717.355 143.954 716.762V740.469C143.959 741.555 144.178 742.631 144.599 743.633C145.02 744.634 145.635 745.543 146.408 746.307C147.181 747.071 148.097 747.675 149.104 748.084C150.111 748.493 151.189 748.699 152.276 748.691H154.185C155.27 748.691 156.346 748.477 157.348 748.061C158.351 747.645 159.263 747.036 160.03 746.267C160.797 745.499 161.405 744.587 161.819 743.583C162.234 742.58 162.446 741.505 162.444 740.419V716.775C159.731 717.363 156.961 717.655 154.185 717.648Z" fill="#F3C29F"/>
<path d="M143.979 734.066V740.891C143.979 740.891 145.962 737.51 153.199 737.485C160.436 737.46 162.407 741.228 162.407 741.228V733.018L143.954 732.706L143.979 734.066Z" fill="#E8AA7D"/>
<path d="M192.526 659.091V697.769C192.526 715.125 179.625 729.623 162.382 733.166C159.685 733.725 156.938 734.005 154.185 734.002H152.151C149.396 734.006 146.649 733.722 143.953 733.154C126.723 729.598 113.809 715.087 113.809 697.769V659.091C113.809 639.128 130.977 622.907 152.151 622.907H154.185C175.37 622.907 192.526 639.128 192.526 659.091Z" fill="#F3C29F"/>
<path d="M114.758 674.105V691.648C113.191 691.621 111.698 690.98 110.6 689.861C109.503 688.743 108.89 687.238 108.893 685.671V680.081C108.893 678.516 109.507 677.012 110.604 675.895C111.701 674.777 113.192 674.134 114.758 674.105Z" fill="#EFB8C2"/>
<path d="M195.946 690.934V696.524C195.949 698.09 195.336 699.596 194.239 700.714C193.142 701.832 191.648 702.474 190.082 702.5V684.958C191.647 684.987 193.139 685.63 194.235 686.747C195.332 687.865 195.946 689.368 195.946 690.934Z" fill="#F3C29F"/>
<path d="M134.546 665.33C128.956 673.752 141.895 682.461 130.803 701.776C125.4 711.196 126.236 716.486 128.968 720.229C131.863 724.084 140.622 727.141 144.515 733.305C150.254 742.438 153.161 756.899 138.189 776.475C119.673 800.668 113.509 800.868 106.759 816.751C106.659 817.107 106.487 817.44 106.253 817.727C106.02 818.014 105.73 818.251 105.401 818.421C105.072 818.592 104.712 818.694 104.343 818.72C103.974 818.746 103.603 818.696 103.253 818.573C99.2436 814.671 96.1343 809.941 94.143 804.712C92.1517 799.484 91.3263 793.884 91.7247 788.303C93.1096 769.276 79.4474 766.269 80.2459 758.271C81.4936 745.607 86.9585 750.124 97.4641 734.041C99.5602 730.822 100.359 726.106 92.1489 719.431C83.9391 712.755 81.6558 695.824 89.0796 690.022C96.5034 684.221 99.2857 674.95 95.0436 668.113C93.4715 665.617 83.4525 650.445 104.938 638.48C108.743 636.371 116.841 629.384 121.545 622.909C125.874 616.932 146.898 611.355 156.717 619.665C166.537 627.974 198.44 639.129 186.076 663.085C179.001 676.822 143.741 651.518 134.546 665.33Z" fill="#2C2A46"/>
<path d="M182.583 627.063C177.742 623.582 177.667 614.586 156.718 619.577C144.453 622.609 192.802 669.073 192.527 685.543C192.527 685.543 207.861 673.066 202.059 656.684C198.566 646.777 198.241 638.33 182.583 627.063Z" fill="#2C2A46"/>
<path d="M202.753 657.606C202.844 655.406 202.603 653.206 202.039 651.078C201.512 648.997 200.718 646.992 199.678 645.113C197.51 641.352 194.674 638.019 191.309 635.276C189.549 633.888 187.845 632.451 186.196 630.963C184.519 629.449 183.003 627.913 180.893 627.344C178.756 626.77 176.588 626.321 174.4 625.999L167.72 624.845L174.391 625.496C176.633 625.696 178.86 626.045 181.055 626.54C182.195 626.808 183.27 627.298 184.222 627.979C185.174 628.651 186.01 629.389 186.871 630.123C188.575 631.557 190.307 632.924 192.095 634.245C195.994 636.721 199.173 640.181 201.311 644.276C203.506 648.363 204.024 653.144 202.753 657.606Z" fill="#2C2A46"/>
<path opacity="0.5" d="M735.983 387.66C723.227 381.835 723.227 369.906 722.673 362.694H752.36V369.48V406.801C751.805 400.975 748.471 393.363 735.983 387.66Z" fill="#D2DFE6"/>
<path fill-rule="evenodd" clip-rule="evenodd" d="M902.339 262.538C904.715 271.808 899.139 281.248 889.881 283.647C889.866 283.651 889.851 283.655 889.836 283.659L885.527 266.847C889.836 283.659 889.842 283.657 889.848 283.656L889.874 283.649L889.823 283.663C889.746 283.683 889.599 283.723 889.383 283.785C888.951 283.907 888.246 284.113 887.292 284.412C885.383 285.009 882.481 285.977 878.768 287.39C871.336 290.217 860.701 294.811 848.317 301.76C823.537 315.664 791.96 338.879 764.899 376.085C759.261 383.836 748.406 385.55 740.655 379.912C732.903 374.274 731.19 363.419 736.828 355.668C767.444 313.575 803.199 287.274 831.331 271.489C845.404 263.593 857.62 258.298 866.425 254.948C870.831 253.271 874.394 252.078 876.921 251.287C878.184 250.891 879.19 250.596 879.914 250.391C880.276 250.288 880.568 250.208 880.786 250.149C880.895 250.12 880.986 250.095 881.058 250.076L881.153 250.052L881.189 250.042L881.205 250.038C881.212 250.037 881.218 250.035 885.327 266.067L881.218 250.035C890.503 247.655 899.959 253.253 902.339 262.538Z" fill="#BC7785"/>
<path d="M923.304 915.169V915.343C923.029 928.084 918.242 929.314 892.556 929.314C867.608 929.314 862.184 927.217 861.866 915.256V915.169C861.89 914.714 861.939 914.26 862.011 913.81C863.023 923.702 869.329 925.525 892.556 925.525C916.564 925.525 922.306 924.454 923.173 913.954C923.231 914.331 923.275 914.735 923.304 915.169Z" fill="#CB9733"/>
<path fill-rule="evenodd" clip-rule="evenodd" d="M1004.68 856.119C1014.27 856.119 1022.04 863.889 1022.04 873.474V895.501C1022.04 905.086 1014.27 912.856 1004.68 912.856C995.1 912.856 987.329 905.086 987.329 895.501V873.474C987.329 863.889 995.1 856.119 1004.68 856.119Z" fill="#BC7785"/>
<path fill-rule="evenodd" clip-rule="evenodd" d="M892.584 853.688C902.169 853.688 909.939 861.458 909.939 871.043V893.07C909.939 902.655 902.169 910.425 892.584 910.425C882.999 910.425 875.229 902.655 875.229 893.07V871.043C875.229 861.458 882.999 853.688 892.584 853.688Z" fill="#BC7785"/>
<path d="M923.304 911.379V911.552C923.304 912.391 923.304 913.172 923.173 913.91C922.306 924.453 916.564 925.48 892.556 925.48C869.329 925.48 863.023 923.658 862.011 913.765C862.011 913.028 861.895 912.319 861.866 911.422V911.336C862.083 907.17 863.905 904.509 867.651 901.11C871.542 897.524 869.387 886.214 879.583 885.91H905.731C915.928 886.214 913.773 897.48 917.663 901.11C921.264 904.553 923.087 907.214 923.304 911.379Z" fill="#F9B42F"/>
<path d="M1035.4 915.169V915.343C1035.13 928.084 1030.34 929.314 1004.65 929.314C979.707 929.314 974.283 927.217 973.965 915.256V915.169C973.989 914.714 974.038 914.26 974.11 913.81C975.122 923.702 981.428 925.525 1004.65 925.525C1028.66 925.525 1034.4 924.454 1035.27 913.954C1035.3 914.331 1035.34 914.735 1035.4 915.169Z" fill="#CB9733"/>
<path d="M1035.4 911.379V911.552C1035.4 912.391 1035.4 913.172 1035.27 913.91C1034.4 924.453 1028.66 925.48 1004.65 925.48C981.428 925.48 975.122 923.658 974.11 913.765C974.037 913.028 973.994 912.319 973.965 911.422V911.336C974.182 907.17 976.004 904.509 979.678 901.11C983.568 897.524 981.413 886.214 991.61 885.91H1017.76C1027.88 886.214 1025.8 897.48 1029.69 901.11C1033.36 904.553 1035.19 907.214 1035.4 911.379Z" fill="#F9B42F"/>
<path d="M948.353 444.452H947.717C906.223 444.452 872.337 449.774 872.323 456.268L872.453 868.556C872.453 871.231 881.131 873.401 891.949 873.401H892.585C903.345 873.401 912.066 871.231 912.066 868.556L916.477 687.975L921.134 520.901C925.95 521.986 936.957 522.348 948.02 522.348C959.084 522.348 970.105 522.015 974.907 520.901L979.564 687.975L983.902 868.556C983.902 871.231 992.58 873.401 1003.38 873.401H1004.02C1014.78 873.401 1023.52 871.231 1023.52 868.556L1023.75 456.268C1023.75 449.774 989.847 444.466 948.353 444.452Z" fill="#202C44"/>
<path d="M995.299 469.964C995.682 472.906 996.641 475.744 998.122 478.316C999.602 480.887 1001.57 483.141 1003.93 484.95C1006.28 486.759 1008.96 488.088 1011.83 488.859C1014.69 489.63 1017.68 489.83 1020.62 489.446C1021.67 489.309 1022.7 489.096 1023.72 488.809V456.225C1023.73 456.177 1023.73 456.128 1023.72 456.08C1023.56 454.113 1020.23 452.262 1014.49 450.628C1011.29 449.752 1008.05 449.038 1004.79 448.487C1001.38 450.849 998.698 454.104 997.024 457.892C995.35 461.681 994.753 465.858 995.299 469.964Z" fill="#1A2437"/>
<path opacity="0.5" fill-rule="evenodd" clip-rule="evenodd" d="M938.583 462.334H939.371C940.822 462.334 942.273 462.352 943.717 462.37L943.72 462.37C945.167 462.388 946.608 462.406 948.049 462.406C950.808 462.406 953.508 462.392 956.149 462.348L956.95 462.335V486.624C956.95 492.399 952.954 497.319 947.759 497.319C942.563 497.319 938.583 492.397 938.583 486.624V462.334ZM940.159 463.912V486.624C940.159 491.784 943.671 495.743 947.759 495.743C951.85 495.743 955.374 491.782 955.374 486.624V463.937C952.978 463.971 950.536 463.982 948.049 463.982C946.597 463.982 945.147 463.964 943.702 463.946L943.7 463.946C942.517 463.931 941.337 463.917 940.159 463.912Z" fill="#3D4657"/>
<path d="M900.814 469.964C900.43 472.906 899.471 475.744 897.991 478.316C896.511 480.887 894.538 483.141 892.187 484.95C889.835 486.759 887.15 488.088 884.285 488.859C881.42 489.63 878.432 489.83 875.49 489.446C874.444 489.309 873.409 489.096 872.395 488.809V456.225C872.387 456.177 872.387 456.128 872.395 456.08C872.554 454.113 875.88 452.262 881.622 450.628C884.819 449.752 888.058 449.038 891.326 448.487C894.729 450.849 897.415 454.104 899.088 457.892C900.762 461.681 901.359 465.858 900.814 469.964Z" fill="#1A2437"/>
<path opacity="0.5" fill-rule="evenodd" clip-rule="evenodd" d="M876.866 488.721C877.266 488.723 877.588 489.048 877.587 489.447L876.082 866.75C876.081 867.15 875.756 867.472 875.356 867.47C874.957 867.469 874.635 867.144 874.636 866.744L876.14 489.442C876.142 489.042 876.467 488.72 876.866 488.721Z" fill="#3D4657"/>
<path d="M902.896 470.238C902.038 476.746 898.635 482.65 893.433 486.654C888.231 490.658 881.653 492.436 875.142 491.599C874.433 491.498 873.319 491.252 872.336 491.006V486.523C873.493 486.826 875.04 487.202 875.706 487.289C878.364 487.638 881.065 487.46 883.655 486.764C886.244 486.068 888.671 484.869 890.796 483.234C892.921 481.599 894.703 479.561 896.04 477.237C897.376 474.912 898.242 472.347 898.586 469.688C898.745 466.815 898.477 463.935 897.79 461.141C899.237 461.271 900.683 461.415 902.303 461.531C902.915 464.39 903.115 467.322 902.896 470.238Z" fill="#3C4557"/>
<path opacity="0.5" fill-rule="evenodd" clip-rule="evenodd" d="M1019.17 488.721C1019.57 488.72 1019.9 489.042 1019.9 489.442L1021.4 866.744C1021.41 867.144 1021.08 867.469 1020.68 867.47C1020.28 867.472 1019.96 867.15 1019.96 866.75L1018.45 489.447C1018.45 489.048 1018.77 488.723 1019.17 488.721Z" fill="#3D4657"/>
<path d="M1023.75 486.509V490.993C1022.75 491.239 1021.63 491.499 1020.85 491.6C1019.76 491.739 1018.67 491.807 1017.57 491.803C1011.57 491.784 1005.78 489.587 1001.27 485.622C996.765 481.656 993.852 476.19 993.071 470.239C992.867 467.333 993.067 464.413 993.664 461.561L998.176 461.171C997.49 463.96 997.222 466.836 997.381 469.704C997.726 472.363 998.593 474.929 999.931 477.253C1001.27 479.578 1003.05 481.615 1005.18 483.25C1007.31 484.885 1009.73 486.084 1012.32 486.78C1014.91 487.476 1017.62 487.654 1020.28 487.305C1020.98 487.204 1022.57 486.827 1023.75 486.509Z" fill="#3C4557"/>
<path d="M948.092 237.476C906.252 237.476 872.351 241.106 872.351 245.575V248.352V452.276V455.067C872.351 459.536 906.252 463.152 948.092 463.152C989.933 463.152 1023.82 459.536 1023.82 455.067V452.276V248.352V245.575C1023.82 241.106 989.918 237.476 948.092 237.476Z" fill="#517BF2"/>
<path d="M993.708 120.444V167.853C993.717 173.692 992.574 179.475 990.344 184.872C988.114 190.268 984.84 195.171 980.711 199.3C976.583 203.429 971.679 206.703 966.283 208.933C960.886 211.163 955.103 212.306 949.264 212.296H946.906C943.711 212.301 940.525 211.957 937.404 211.27C927.508 209.101 918.649 203.618 912.295 195.727C905.94 187.837 902.471 178.013 902.462 167.882V120.444C902.462 108.657 907.145 97.3521 915.48 89.0173C923.815 80.6825 935.119 76 946.906 76H949.264C961.051 76 972.355 80.6825 980.69 89.0173C989.025 97.3521 993.708 108.657 993.708 120.444Z" fill="#CB8591"/>
<path d="M902.463 138.956V159.291C900.647 159.26 898.916 158.516 897.644 157.22C896.372 155.924 895.661 154.179 895.665 152.363V145.884C895.665 144.069 896.377 142.326 897.648 141.031C898.919 139.735 900.648 138.99 902.463 138.956Z" fill="#CB8591"/>
<path d="M1000.51 145.884V152.363C1000.51 154.179 999.799 155.924 998.527 157.22C997.255 158.516 995.524 159.26 993.708 159.291V138.956C995.522 138.99 997.251 139.735 998.522 141.031C999.794 142.326 1000.51 144.069 1000.51 145.884Z" fill="#CB8591"/>
<path opacity="0.2" fill-rule="evenodd" clip-rule="evenodd" d="M941.627 94.3378C935.701 94.3378 930.017 96.692 925.827 100.882C921.637 105.073 919.282 110.756 919.282 116.683C919.282 119.079 917.34 121.021 914.944 121.021C912.547 121.021 910.605 119.079 910.605 116.683C910.605 108.455 913.873 100.564 919.691 94.7464C925.509 88.9286 933.4 85.6602 941.627 85.6602C944.023 85.6602 945.966 87.6027 945.966 89.999C945.966 92.3952 944.023 94.3378 941.627 94.3378Z" fill="white"/>
<path d="M949.264 212.296H946.907C943.711 212.301 940.525 211.956 937.405 211.269V238.748C937.403 240.007 937.649 241.253 938.129 242.417C938.609 243.58 939.314 244.637 940.204 245.528C941.093 246.418 942.149 247.125 943.312 247.607C944.474 248.089 945.72 248.337 946.979 248.337H949.192C950.45 248.337 951.696 248.089 952.859 247.607C954.021 247.125 955.078 246.418 955.967 245.528C956.856 244.637 957.561 243.58 958.041 242.417C958.522 241.253 958.768 240.007 958.766 238.748V211.284C955.644 211.96 952.458 212.299 949.264 212.296Z" fill="#CB8591"/>
<path d="M937.433 221.537V229.448C937.433 229.448 939.732 225.529 948.121 225.486C956.509 225.442 958.794 229.824 958.794 229.824V220.322L937.433 219.932V221.537Z" fill="#A8747D"/>
<path d="M991.929 166.579C991.682 171.597 989.502 176.325 985.846 179.771C982.19 183.217 977.341 185.113 972.317 185.062H971.435C970.264 185.042 969.111 184.774 968.052 184.275C966.992 183.776 966.05 183.059 965.288 182.17C963.108 179.633 960.412 177.591 957.38 176.18C954.347 174.768 951.049 174.021 947.704 173.986C944.36 173.952 941.046 174.632 937.986 175.981C934.925 177.33 932.187 179.317 929.956 181.808C929.175 182.679 928.218 183.372 927.148 183.844C926.078 184.315 924.92 184.553 923.751 184.542C918.846 184.482 914.144 182.572 910.588 179.192C907.032 175.813 904.884 171.215 904.574 166.319L902.462 131.435V185.916C902.462 206.583 913.367 223.345 939.877 223.345H956.293C984.177 223.345 993.708 206.583 993.708 185.916V131.435L991.929 166.579Z" fill="#2C2A46"/>
<path d="M948.093 257.044C956.12 257.044 962.628 251.683 962.628 245.069C962.628 238.455 956.12 233.094 948.093 233.094C940.065 233.094 933.558 238.455 933.558 245.069C933.558 251.683 940.065 257.044 948.093 257.044Z" fill="#CB8591"/>
<path fill-rule="evenodd" clip-rule="evenodd" d="M937.592 238.257C936.672 239.143 935.936 240.203 935.427 241.374C934.919 242.544 934.647 243.802 934.627 245.077C934.633 250.911 940.462 255.973 948.092 255.973C955.722 255.973 961.538 250.911 961.542 245.075C961.51 242.587 960.513 240.209 958.762 238.442L960.303 236.915C962.452 239.083 963.674 242.002 963.712 245.055L963.712 245.069H963.712C963.712 252.478 956.513 258.143 948.092 258.143C939.673 258.143 932.458 252.479 932.458 245.069V245.052L932.458 245.052C932.481 243.489 932.814 241.945 933.437 240.51C934.06 239.076 934.961 237.779 936.088 236.694L937.592 238.257Z" fill="white"/>
<path d="M774.815 370.734C774.815 384.662 763.519 387.439 749.592 387.439C735.664 387.439 724.369 384.662 724.369 370.734C724.369 364.045 727.026 357.629 731.756 352.899C736.486 348.169 742.902 345.511 749.592 345.511C756.281 345.511 762.697 348.169 767.427 352.899C772.157 357.629 774.815 364.045 774.815 370.734Z" fill="#BC7785"/>
<path fill-rule="evenodd" clip-rule="evenodd" d="M902.282 249.358C902.325 249.403 902.367 249.448 886.612 264.361L902.367 249.448C910.604 258.149 910.226 271.88 901.525 280.116C896.62 284.758 890.118 286.664 883.903 285.885C879.218 287.677 868.03 293.407 846.329 310.104C836.833 317.41 823.212 315.635 815.906 306.139C808.6 296.643 810.375 283.022 819.871 275.716C843.739 257.352 859.298 248.535 870.135 244.725C875.631 242.792 881.219 241.673 886.758 242.174C889.632 242.434 892.548 243.138 895.34 244.431C896.725 245.073 898.021 245.832 899.216 246.694C899.811 247.123 900.372 247.571 900.899 248.034C901.162 248.265 901.416 248.499 901.661 248.735C901.784 248.853 901.904 248.972 902.021 249.09C902.08 249.15 902.138 249.209 902.196 249.269L902.282 249.358ZM885.634 285.319C885.634 285.32 885.614 285.324 885.576 285.332C885.615 285.322 885.635 285.319 885.634 285.319Z" fill="#517BF2"/>
<path opacity="0.2" d="M925.722 357.625C908.941 357.401 883.508 357.625 879.341 347.642C878.628 345.93 873.224 278.961 873.145 277.874L871.957 325.26V457.693C872.416 446.639 871.117 390.213 877.772 367.784C879.753 361.08 910.747 359.784 931.331 357.689L925.722 357.625Z" fill="#3D5CB6"/>
<path opacity="0.4" d="M970.021 357.625C986.801 357.401 1012.23 357.625 1016.4 347.642C1017.11 345.93 1022.52 278.961 1022.6 277.874L1023.79 325.26V457.693C1023.33 446.639 1024.63 390.213 1017.97 367.784C1015.99 361.08 984.995 359.784 964.411 357.689L970.021 357.625Z" fill="#3D5CB6"/>
<path fill-rule="evenodd" clip-rule="evenodd" d="M1002.02 249.145C1008.41 242.002 1019.38 241.392 1026.52 247.783L1014.95 260.717C1026.52 247.783 1026.53 247.789 1026.54 247.794L1026.55 247.808L1026.59 247.841L1026.69 247.932C1026.77 248.003 1026.87 248.096 1026.99 248.209C1027.24 248.436 1027.57 248.748 1027.99 249.141C1028.81 249.928 1029.96 251.044 1031.35 252.469C1034.13 255.315 1037.93 259.417 1042.19 264.613C1050.64 274.937 1061.19 289.935 1068.99 308.281C1076.81 326.67 1082.08 348.917 1079.21 373.31C1076.31 397.91 1065.29 423.367 1042.66 448.121C1036.19 455.195 1025.21 455.686 1018.14 449.218C1011.06 442.75 1010.57 431.773 1017.04 424.699C1035.24 404.799 1042.77 385.968 1044.73 369.253C1046.73 352.331 1043.16 336.237 1037.05 321.865C1030.92 307.451 1022.43 295.272 1015.34 286.607C1011.82 282.309 1008.71 278.965 1006.53 276.738C1005.45 275.626 1004.6 274.799 1004.05 274.277C1003.77 274.015 1003.58 273.831 1003.46 273.726C1003.4 273.673 1003.37 273.64 1003.35 273.628C1003.35 273.627 1003.35 273.626 1003.35 273.625C1003.35 273.625 1003.35 273.625 1003.35 273.625C996.236 267.231 995.636 256.279 1002.02 249.145Z" fill="#BC7785"/>
<path fill-rule="evenodd" clip-rule="evenodd" d="M996.166 252.284C1002.84 242.331 1016.31 239.67 1026.26 246.34L1014.19 264.362C1026.26 246.34 1026.27 246.344 1026.28 246.347L1026.31 246.371L1026.36 246.407L1026.49 246.493C1026.58 246.558 1026.7 246.636 1026.83 246.727C1027.09 246.909 1027.42 247.146 1027.82 247.437C1028.62 248.018 1029.68 248.817 1030.96 249.836C1033.5 251.871 1036.93 254.801 1040.81 258.638C1048.55 266.284 1058.31 277.725 1066.56 293.069C1072.23 303.622 1068.27 316.776 1057.72 322.448C1047.17 328.12 1034.01 324.162 1028.34 313.609C1022.57 302.876 1015.71 294.828 1010.32 289.505C1007.64 286.857 1005.37 284.932 1003.87 283.733C1003.12 283.135 1002.57 282.723 1002.26 282.497C1002.12 282.392 1002.03 282.327 1001.99 282.304C992.136 275.606 989.522 262.198 996.166 252.284Z" fill="#517BF2"/>
<defs>
<filter id="filter0_f_10272_1603" x="4.58936" y="950.723" width="919.374" height="67.3896" filterUnits="userSpaceOnUse" color-interpolation-filters="sRGB">
<feFlood flood-opacity="0" result="BackgroundImageFix"/>
<feBlend mode="normal" in="SourceGraphic" in2="BackgroundImageFix" result="shape"/>
<feGaussianBlur stdDeviation="7" result="effect1_foregroundBlur_10272_1603"/>
</filter>
<filter id="filter1_f_10272_1603" x="820.102" y="895.286" width="251.208" height="60.0955" filterUnits="userSpaceOnUse" color-interpolation-filters="sRGB">
<feFlood flood-opacity="0" result="BackgroundImageFix"/>
<feBlend mode="normal" in="SourceGraphic" in2="BackgroundImageFix" result="shape"/>
<feGaussianBlur stdDeviation="7" result="effect1_foregroundBlur_10272_1603"/>
</filter>
<filter id="filter2_d_10272_1603" x="257.506" y="350.802" width="511.118" height="501.547" filterUnits="userSpaceOnUse" color-interpolation-filters="sRGB">
<feFlood flood-opacity="0" result="BackgroundImageFix"/>
<feColorMatrix in="SourceAlpha" type="matrix" values="0 0 0 0 0 0 0 0 0 0 0 0 0 0 0 0 0 0 127 0" result="hardAlpha"/>
<feOffset dy="4.65129"/>
<feGaussianBlur stdDeviation="8.13976"/>
<feColorMatrix type="matrix" values="0 0 0 0 0.374547 0 0 0 0 0.481553 0 0 0 0 0.601935 0 0 0 0.2 0"/>
<feBlend mode="normal" in2="BackgroundImageFix" result="effect1_dropShadow_10272_1603"/>
<feBlend mode="normal" in="SourceGraphic" in2="effect1_dropShadow_10272_1603" result="shape"/>
</filter>
<linearGradient id="paint0_linear_10272_1603" x1="148.097" y1="946.954" x2="148.097" y2="859.039" gradientUnits="userSpaceOnUse">
<stop offset="0.21" stop-color="#F5F8F9"/>
<stop offset="1" stop-color="white"/>
</linearGradient>
</defs>
</svg>
