<svg width="1080" height="1080" viewBox="0 0 1080 1080" fill="none" xmlns="http://www.w3.org/2000/svg">
<path opacity="0.3" d="M104.607 37.8127C104.607 31.7892 109.49 26.9062 115.514 26.9062H284.563C290.587 26.9062 295.469 31.7892 295.469 37.8127V149.603C295.469 155.627 290.587 160.51 284.563 160.51H115.514C109.49 160.51 104.607 155.627 104.607 149.603V37.8127Z" fill="#C3EEF4"/>
<path opacity="0.3" d="M115.515 51.4465C115.515 45.423 120.398 40.54 126.421 40.54H295.47C301.494 40.54 306.377 45.423 306.377 51.4464V163.237C306.377 169.26 301.494 174.143 295.47 174.143H126.421C120.398 174.143 115.515 169.261 115.515 163.237V51.4465Z" fill="#C3EEF4"/>
<path d="M96.4287 26.9064C96.4287 20.883 101.312 16 107.335 16H276.384C282.408 16 287.291 20.883 287.291 26.9064V138.697C287.291 144.72 282.408 149.603 276.384 149.603H107.335C101.312 149.603 96.4287 144.72 96.4287 138.697V26.9064Z" fill="#F8FBFB"/>
<path d="M96.4287 26.9064C96.4287 20.883 101.312 16 107.335 16H276.384C282.408 16 287.291 20.883 287.291 26.9064V45.9926H96.4287V26.9064Z" fill="#202C44"/>
<path d="M120.968 30.9962C120.968 33.2549 119.137 35.0861 116.878 35.0861C114.619 35.0861 112.788 33.2549 112.788 30.9962C112.788 28.7374 114.619 26.9062 116.878 26.9062C119.137 26.9062 120.968 28.7374 120.968 30.9962Z" fill="#FF5A60"/>
<path d="M131.875 30.9962C131.875 33.2549 130.044 35.0861 127.785 35.0861C125.526 35.0861 123.695 33.2549 123.695 30.9962C123.695 28.7374 125.526 26.9062 127.785 26.9062C130.044 26.9062 131.875 28.7374 131.875 30.9962Z" fill="#F9B42F"/>
<path d="M142.781 30.9962C142.781 33.2549 140.95 35.0861 138.691 35.0861C136.433 35.0861 134.602 33.2549 134.602 30.9962C134.602 28.7374 136.433 26.9062 138.691 26.9062C140.95 26.9062 142.781 28.7374 142.781 30.9962Z" fill="#4DCB7B"/>
<path fill-rule="evenodd" clip-rule="evenodd" d="M183.214 91.2137V75.7852H187.071V91.2137H183.214Z" fill="#DEE8EC"/>
<path fill-rule="evenodd" clip-rule="evenodd" d="M183.214 120.143V100.857H187.071V120.143H183.214Z" fill="#DEE8EC"/>
<path d="M158.143 63.0573C158.143 60.501 160.215 58.4287 162.771 58.4287H211.371C213.927 58.4287 216 60.501 216 63.0573V73.0859C216 75.6421 213.927 77.7144 211.371 77.7144H162.771C160.215 77.7144 158.143 75.6421 158.143 73.0859V63.0573Z" fill="#E7EEF1"/>
<path d="M158.143 90.0573C158.143 87.501 160.215 85.4287 162.771 85.4287H211.371C213.927 85.4287 216 87.501 216 90.0573V100.086C216 102.642 213.927 104.714 211.371 104.714H162.771C160.215 104.714 158.143 102.642 158.143 100.086V90.0573Z" fill="#E7EEF1"/>
<path d="M158.143 117.057C158.143 114.501 160.215 112.429 162.771 112.429H211.371C213.927 112.429 216 114.501 216 117.057V127.086C216 129.642 213.927 131.714 211.371 131.714H162.771C160.215 131.714 158.143 129.642 158.143 127.086V117.057Z" fill="#E7EEF1"/>
<path d="M108 117.058C108 114.502 110.072 112.43 112.629 112.43H145.8C148.356 112.43 150.429 114.502 150.429 117.058V127.087C150.429 129.643 148.356 131.715 145.8 131.715H112.629C110.072 131.715 108 129.643 108 127.087V117.058Z" fill="#E7EEF1"/>
<path fill-rule="evenodd" clip-rule="evenodd" d="M127.286 66.1434C127.286 65.0783 128.15 64.2148 129.215 64.2148H163.929V68.072H131.143V81.572H127.286V66.1434Z" fill="#DEE8EC"/>
<path d="M108 82.3434C108 79.7871 110.072 77.7148 112.629 77.7148H145.8C148.356 77.7148 150.429 79.7871 150.429 82.3434V100.086C150.429 102.643 148.356 104.715 145.8 104.715H112.629C110.072 104.715 108 102.643 108 100.086V82.3434Z" fill="#E7EEF1"/>
<path d="M270.001 66.1431H231.429C229.299 66.1431 227.572 67.87 227.572 70.0002V124C227.572 126.13 229.299 127.857 231.429 127.857H270.001C272.131 127.857 273.858 126.13 273.858 124V70.0002C273.858 67.87 272.131 66.1431 270.001 66.1431Z" fill="white"/>
<path d="M227.572 66.1433C227.572 64.013 229.299 62.2861 231.429 62.2861H270.001C272.131 62.2861 273.858 64.013 273.858 66.1433V70.0004H227.572V66.1433Z" fill="#202C44"/>
<path fill-rule="evenodd" clip-rule="evenodd" d="M273.858 116.672H227.572V115.901H273.858V116.672Z" fill="#F5F8F9"/>
<path d="M243.002 103.912C243.002 102.225 244.369 100.858 246.056 100.858H266.948C268.635 100.858 270.002 102.225 270.002 103.912V108.063C270.002 108.344 269.774 108.572 269.493 108.572H246.056C244.369 108.572 243.002 107.205 243.002 105.518V103.912Z" fill="#E7EEF1"/>
<path d="M258.43 92.3402C258.43 90.6535 257.062 89.2861 255.376 89.2861H234.484C232.797 89.2861 231.43 90.6535 231.43 92.3402V96.4914C231.43 96.7725 231.658 97.0004 231.939 97.0004H255.376C257.062 97.0004 258.43 95.6331 258.43 93.9464V92.3402Z" fill="#2CC3D5"/>
<g style="mix-blend-mode:luminosity" opacity="0.16">
<path d="M856.254 721.09C856.254 721.09 673.623 963.771 467.301 996.793C260.979 1029.82 166.142 941.033 173.256 846.055C180.371 751.077 211.177 682.926 149.565 608.579C87.9529 534.232 2.50705 474.321 64.1903 290.499C125.873 106.676 296.552 48.8715 405.689 67.4582C514.826 86.0449 524.217 189.325 652.28 216.152C780.342 242.979 941.629 193.476 984.316 327.672C1027 461.868 941.629 620.598 856.254 721.09Z" fill="#B9CBD3"/>
</g>
<g opacity="0.2" filter="url(#filter0_f_10272_1616)">
<path d="M791.679 1006.46C791.679 1016.64 675.012 1024.88 531.096 1024.88C387.18 1024.88 270.514 1016.64 270.514 1006.46C270.514 996.284 387.18 988.035 531.096 988.035C675.012 988.035 791.679 996.284 791.679 1006.46Z" fill="#0A0F1A"/>
</g>
<g opacity="0.2" filter="url(#filter1_f_10272_1616)">
<path d="M1010.15 1032.78C1010.15 1042.96 954.17 1051.21 885.12 1051.21C816.069 1051.21 760.093 1042.96 760.093 1032.78C760.093 1022.61 816.069 1014.36 885.12 1014.36C954.17 1014.36 1010.15 1022.61 1010.15 1032.78Z" fill="#0A0F1A"/>
</g>
<g opacity="0.2" filter="url(#filter2_f_10272_1616)">
<path d="M238.928 1044.63C238.928 1054.8 214.181 1063.05 183.653 1063.05C153.125 1063.05 128.378 1054.8 128.378 1044.63C128.378 1034.45 153.125 1026.2 183.653 1026.2C214.181 1026.2 238.928 1034.45 238.928 1044.63Z" fill="#0A0F1A"/>
</g>
<path fill-rule="evenodd" clip-rule="evenodd" d="M348.508 500.039C372.15 509.761 383.435 536.808 373.713 560.45L330.905 542.847L288.097 525.245C297.819 501.603 324.866 490.318 348.508 500.039ZM172.435 828.707C183.298 790.777 212.762 713.796 238.438 648.703C251.489 615.618 263.897 584.771 273.039 562.203C277.611 550.915 281.37 541.69 283.988 535.28C285.297 532.075 286.322 529.573 287.02 527.87C287.369 527.018 287.637 526.365 287.818 525.924L288.096 525.249C288.097 525.246 288.097 525.245 330.905 542.847C373.713 560.45 373.713 560.45 373.713 560.451L373.453 561.083C373.278 561.509 373.017 562.146 372.674 562.981C371.989 564.652 370.979 567.119 369.685 570.287C367.097 576.624 363.372 585.765 358.838 596.958C349.767 619.352 337.47 649.925 324.552 682.672C298.297 749.232 270.776 821.547 261.424 854.209L261.419 854.227C258.75 863.532 258.176 870.165 258.457 874.387C258.591 876.396 258.902 877.624 259.118 878.267C259.319 878.863 259.48 879.089 259.535 879.163C259.586 879.233 259.832 879.566 260.591 880.113C261.389 880.688 262.947 881.634 265.667 882.648C271.314 884.753 281.108 886.827 296.808 886.827C322.371 886.827 343.094 907.55 343.094 933.113C343.094 958.676 322.371 979.399 296.808 979.399C251.829 979.399 209.809 967.853 184.916 933.949C160.351 900.492 163.442 860.074 172.429 828.726C172.43 828.723 172.431 828.72 172.432 828.717C172.433 828.714 172.434 828.71 172.435 828.707Z" fill="#CB8591"/>
<path fill-rule="evenodd" clip-rule="evenodd" d="M679.213 500.328C703.121 491.279 729.837 503.325 738.886 527.232L695.597 543.617L652.308 560.001C643.259 536.093 655.305 509.377 679.213 500.328ZM753.373 848.838C744.872 815.904 720.103 744.787 696.504 679.581C684.886 647.481 673.831 617.568 665.676 595.672C661.601 584.728 658.253 575.796 655.927 569.606C654.764 566.511 653.856 564.102 653.241 562.471C652.933 561.655 652.699 561.034 652.542 560.618L652.308 560.001C652.308 560 652.308 560.001 695.597 543.617C738.886 527.232 738.886 527.234 738.887 527.236L739.137 527.897C739.3 528.328 739.541 528.966 739.855 529.798C740.483 531.464 741.404 533.908 742.581 537.041C744.936 543.306 748.316 552.325 752.427 563.365C760.648 585.44 771.807 615.633 783.549 648.077C806.664 711.944 833.188 787.649 843.015 825.736L843.025 825.774C854.627 870.903 850.369 916.802 813.433 947.917C782.13 974.289 737.481 980.014 696.908 980.014C671.346 980.014 650.623 959.291 650.623 933.728C650.623 908.165 671.346 887.442 696.908 887.442C714.169 887.442 727.56 886.058 737.543 883.721C747.61 881.364 752.122 878.526 753.791 877.12C754.7 876.354 755.278 875.774 755.769 873.393C756.463 870.032 756.884 862.502 753.373 848.838Z" fill="#CB8591"/>
<path fill-rule="evenodd" clip-rule="evenodd" d="M669.124 501.468C697.536 486.848 732.422 498.028 747.042 526.441L695.597 552.914C747.042 526.441 747.044 526.445 747.046 526.448L747.157 526.665C747.214 526.776 747.289 526.923 747.382 527.106C747.568 527.471 747.825 527.978 748.149 528.623C748.798 529.913 749.717 531.755 750.875 534.117C753.191 538.839 756.469 545.645 760.465 554.271C768.451 571.508 779.344 596.094 791.182 625.909C802.973 655.608 788.457 689.242 758.758 701.033C729.06 712.825 695.426 698.308 683.634 668.61C672.715 641.107 662.702 618.521 655.472 602.914C651.86 595.118 648.952 589.085 646.984 585.073C646.001 583.068 645.253 581.569 644.771 580.61C644.53 580.131 644.355 579.786 644.25 579.581L644.151 579.387C644.15 579.384 644.149 579.382 644.148 579.38M644.148 579.38C644.144 579.372 644.14 579.365 644.136 579.357C629.539 550.95 640.721 516.084 669.124 501.468" fill="#F66689"/>
<path d="M716.387 980.324V509.752V502.424C716.387 490.505 625.976 480.824 514.427 480.824C402.879 480.824 312.429 490.467 312.429 502.424V509.752V980.324H716.387Z" fill="#F66689"/>
<path d="M705.857 968.714H719.01V734.277C717.132 705.436 713.031 676.782 706.745 648.571C706.745 648.571 709.097 843.743 705.857 968.714Z" fill="#F56D73"/>
<path d="M319.488 955.831C318.292 839.5 324.425 660.143 324.425 660.143C312.969 678.117 304.715 724.403 304.715 724.403L304.908 955.831H319.488Z" fill="#F56D73"/>
<path d="M507.464 534.399C528.872 534.399 546.228 520.1 546.228 502.462C546.228 484.824 528.872 470.525 507.464 470.525C486.055 470.525 468.699 484.824 468.699 502.462C468.699 520.1 486.055 534.399 507.464 534.399Z" fill="#CB8591"/>
<path d="M507.464 474.382C526.75 474.382 542.178 486.995 542.178 502.462C542.178 517.929 526.518 530.581 507.464 530.581C488.41 530.581 472.518 517.968 472.518 502.462C472.518 486.956 488.178 474.382 507.464 474.382ZM507.464 470.525C486.018 470.525 468.661 484.835 468.661 502.462C468.661 520.089 486.018 534.438 507.464 534.438C528.91 534.438 546.035 520.128 546.035 502.462C546.035 484.796 528.678 470.525 507.464 470.525Z" fill="white"/>
<path d="M510.588 431.453H504.3C495.78 431.478 487.283 430.573 478.959 428.753V502.039C478.954 505.395 479.611 508.72 480.892 511.822C482.173 514.924 484.053 517.744 486.424 520.119C488.796 522.494 491.612 524.379 494.713 525.664C497.813 526.95 501.137 527.611 504.493 527.611H510.395C513.764 527.632 517.104 526.985 520.223 525.709C523.341 524.432 526.176 522.551 528.564 520.174C530.952 517.797 532.846 514.97 534.136 511.858C535.427 508.745 536.088 505.408 536.083 502.039V428.753C527.707 430.567 519.159 431.472 510.588 431.453Z" fill="#CB8591"/>
<path d="M479.036 455.752V476.889C479.036 476.889 485.169 466.436 507.54 466.32C529.912 466.204 536.006 477.892 536.006 477.892V452.512L479.036 451.47V455.752Z" fill="#A8747D"/>
<path d="M385.655 263.86V318.091C380.812 318.01 376.196 316.027 372.803 312.57C369.411 309.112 367.516 304.459 367.526 299.616V282.181C367.566 277.368 369.482 272.759 372.868 269.337C376.254 265.915 380.842 263.95 385.655 263.86Z" fill="#CB8591"/>
<path d="M647.247 282.181V299.461C647.258 304.305 645.362 308.958 641.97 312.415C638.577 315.872 633.961 317.856 629.118 317.937V263.86C633.931 263.95 638.519 265.915 641.905 269.337C645.291 272.759 647.207 277.368 647.247 282.181Z" fill="#CB8591"/>
<path d="M629.118 209.702V336.178C629.144 351.751 626.095 367.175 620.147 381.568C614.2 395.96 605.47 409.037 594.458 420.048C583.447 431.06 570.37 439.79 555.978 445.737C541.585 451.685 526.161 454.733 510.588 454.708H504.301C495.779 454.721 487.282 453.803 478.96 451.969C452.532 446.206 428.87 431.58 411.899 410.519C394.928 389.457 385.668 363.226 385.655 336.178V209.702C385.655 194.127 388.725 178.704 394.689 164.316C400.653 149.928 409.394 136.856 420.413 125.848C431.432 114.84 444.512 106.112 458.906 100.162C473.3 94.2119 488.726 91.1572 504.301 91.1724H510.588C542.024 91.1724 572.173 103.66 594.402 125.889C616.63 148.118 629.118 178.266 629.118 209.702Z" fill="#CB8591"/>
<path d="M509.084 233.388C502.951 237.245 488.063 238.171 470.243 239.443C452.423 240.716 445.403 234.275 432.018 240.099C418.634 245.923 390.863 245.731 374.547 232.385C363.813 222.881 355.316 211.118 349.668 197.941C335.204 153.738 387.584 128.358 387.584 128.358C387.584 128.358 389.705 88.9763 437.727 92.7949C437.727 92.7949 444.67 93.9906 449.838 78.9092C455.007 63.8277 533.538 23.752 579.67 79.0249C579.67 79.0249 594.597 107.491 605.59 105.755C616.583 104.019 704.294 125.349 673.283 208.085C667.921 222.395 641.461 269.143 570.143 230.649C570.143 230.649 534.927 216.609 509.084 233.388Z" fill="#2C2A46"/>
<path opacity="0.2" d="M428.084 236.28C431.671 235.894 392.945 255.18 385.655 298.419V225.634H403.822L428.084 236.28Z" fill="#2C2A46"/>
<path fill-rule="evenodd" clip-rule="evenodd" d="M382.878 247.467C382.878 245.869 384.173 244.574 385.771 244.574H397.227C398.824 244.574 400.119 245.869 400.119 247.467C400.119 249.065 398.824 250.36 397.227 250.36H385.771C384.173 250.36 382.878 249.065 382.878 247.467Z" fill="#2C2A46"/>
<path fill-rule="evenodd" clip-rule="evenodd" d="M382.878 260.157C382.878 258.559 384.173 257.264 385.771 257.264H397.227C398.824 257.264 400.119 258.559 400.119 260.157C400.119 261.754 398.824 263.049 397.227 263.049H385.771C384.173 263.049 382.878 261.754 382.878 260.157Z" fill="#2C2A46"/>
<path opacity="0.2" d="M586.497 236.28C583.102 235.74 621.789 255.334 628.925 298.419V225.634H610.758L586.497 236.28Z" fill="#2C2A46"/>
<path fill-rule="evenodd" clip-rule="evenodd" d="M614.654 247.467C614.654 245.869 615.949 244.574 617.547 244.574H629.003C630.601 244.574 631.896 245.869 631.896 247.467C631.896 249.065 630.601 250.36 629.003 250.36H617.547C615.949 250.36 614.654 249.065 614.654 247.467Z" fill="#2C2A46"/>
<path fill-rule="evenodd" clip-rule="evenodd" d="M614.654 260.157C614.654 258.559 615.949 257.264 617.547 257.264H629.003C630.601 257.264 631.896 258.559 631.896 260.157C631.896 261.754 630.601 263.049 629.003 263.049H617.547C615.949 263.049 614.654 261.754 614.654 260.157Z" fill="#2C2A46"/>
<path fill-rule="evenodd" clip-rule="evenodd" d="M581.65 376.802C568.528 376.802 555.7 372.911 544.789 365.62C533.878 358.33 525.374 347.967 520.352 335.844C518.566 331.531 517.249 327.065 516.409 322.521H498.479C496.054 335.631 489.713 347.809 480.153 357.369C467.71 369.812 450.834 376.802 433.237 376.802C420.115 376.802 407.287 372.911 396.376 365.62C385.465 358.33 376.961 347.968 371.939 335.844C366.917 323.721 365.603 310.38 368.164 297.51C370.724 284.64 377.043 272.817 386.322 263.538C395.601 254.259 407.423 247.94 420.293 245.38C433.164 242.82 446.504 244.134 458.628 249.156C470.751 254.178 481.113 262.682 488.404 273.593C495.694 284.504 499.586 297.331 499.586 310.454C499.586 312.148 499.521 313.835 499.393 315.513H515.495C515.037 309.522 515.392 303.466 516.577 297.51C519.137 284.639 525.456 272.817 534.735 263.538C544.014 254.259 555.836 247.94 568.706 245.38C581.577 242.82 594.917 244.134 607.041 249.155C619.164 254.177 629.527 262.681 636.817 273.592C644.108 284.503 647.999 297.331 647.999 310.453C647.999 328.05 641.009 344.926 628.566 357.369C616.123 369.812 599.247 376.802 581.65 376.802ZM581.65 251.113C569.914 251.113 558.441 254.593 548.683 261.114C538.924 267.634 531.318 276.902 526.827 287.745C522.336 298.588 521.161 310.519 523.45 322.03C525.74 333.541 531.392 344.115 539.69 352.413C547.989 360.712 558.563 366.364 570.074 368.654C581.585 370.943 593.516 369.768 604.359 365.277C615.202 360.785 624.47 353.18 630.99 343.421C637.511 333.663 640.991 322.19 640.991 310.453C640.996 302.655 639.466 294.932 636.486 287.726C633.507 280.519 629.138 273.97 623.628 268.452C618.117 262.934 611.574 258.555 604.372 255.566C597.169 252.577 589.449 251.036 581.65 251.03V251.113ZM433.237 251.113C421.502 251.122 410.034 254.609 400.281 261.134C390.528 267.66 382.928 276.93 378.443 287.774C373.958 298.618 372.789 310.548 375.083 322.056C377.378 333.564 383.033 344.134 391.333 352.428C399.634 360.723 410.207 366.371 421.717 368.657C433.227 370.943 445.156 369.766 455.997 365.273C466.837 360.781 476.103 353.175 482.621 343.417C489.14 333.66 492.619 322.188 492.619 310.454C492.619 294.701 486.364 279.593 475.229 268.45C464.094 257.307 448.99 251.041 433.237 251.03V251.113Z" fill="#F9B42F"/>
<path d="M819.527 906.198V906.851C819.508 906.634 819.508 906.415 819.527 906.198Z" fill="#F8F7EF"/>
<path d="M817.714 382.429C819.844 382.429 821.571 380.702 821.571 378.572C821.571 376.441 819.844 374.714 817.714 374.714C815.583 374.714 813.856 376.441 813.856 378.572C813.856 380.702 815.583 382.429 817.714 382.429Z" fill="#E7EEF1"/>
<path d="M729.001 282.144C731.131 282.144 732.858 280.417 732.858 278.287C732.858 276.157 731.131 274.43 729.001 274.43C726.87 274.43 725.144 276.157 725.144 278.287C725.144 280.417 726.87 282.144 729.001 282.144Z" fill="#E7EEF1"/>
<path d="M177.428 494.286C179.559 494.286 181.286 492.559 181.286 490.428C181.286 488.298 179.559 486.571 177.428 486.571C175.298 486.571 173.571 488.298 173.571 490.428C173.571 492.559 175.298 494.286 177.428 494.286Z" fill="#E7EEF1"/>
<path d="M879.429 640.856C881.56 640.856 883.287 639.129 883.287 636.999C883.287 634.869 881.56 633.142 879.429 633.142C877.299 633.142 875.572 634.869 875.572 636.999C875.572 639.129 877.299 640.856 879.429 640.856Z" fill="#E7EEF1"/>
<path d="M1076.14 143.286C1078.27 143.286 1080 141.559 1080 139.428C1080 137.298 1078.27 135.571 1076.14 135.571C1074.01 135.571 1072.29 137.298 1072.29 139.428C1072.29 141.559 1074.01 143.286 1076.14 143.286Z" fill="#E7EEF1"/>
<path d="M790.715 509.714C792.845 509.714 794.572 507.987 794.572 505.857C794.572 503.727 792.845 502 790.715 502C788.584 502 786.857 503.727 786.857 505.857C786.857 507.987 788.584 509.714 790.715 509.714Z" fill="#E7EEF1"/>
<path d="M914.143 613.858C916.274 613.858 918 612.131 918 610.001C918 607.87 916.274 606.144 914.143 606.144C912.013 606.144 910.286 607.87 910.286 610.001C910.286 612.131 912.013 613.858 914.143 613.858Z" fill="#E7EEF1"/>
<path d="M285.428 189.571C287.559 189.571 289.286 187.844 289.286 185.714C289.286 183.584 287.559 181.857 285.428 181.857C283.298 181.857 281.571 183.584 281.571 185.714C281.571 187.844 283.298 189.571 285.428 189.571Z" fill="#E7EEF1"/>
<path fill-rule="evenodd" clip-rule="evenodd" d="M1045.29 82.3436C1041.45 82.3436 1038.34 85.4521 1038.34 89.2865C1038.34 93.1209 1041.45 96.2294 1045.29 96.2294C1049.12 96.2294 1052.23 93.1209 1052.23 89.2865C1052.23 85.4521 1049.12 82.3436 1045.29 82.3436ZM1036.8 89.2865C1036.8 84.6 1040.6 80.8008 1045.29 80.8008C1049.97 80.8008 1053.77 84.6 1053.77 89.2865C1053.77 93.973 1049.97 97.7722 1045.29 97.7722C1040.6 97.7722 1036.8 93.973 1036.8 89.2865Z" fill="#E7EEF1"/>
<path fill-rule="evenodd" clip-rule="evenodd" d="M918.001 541.343C912.036 541.343 907.201 546.178 907.201 552.143C907.201 558.107 912.036 562.943 918.001 562.943C923.966 562.943 928.801 558.107 928.801 552.143C928.801 546.178 923.966 541.343 918.001 541.343ZM905.658 552.143C905.658 545.326 911.184 539.8 918.001 539.8C924.818 539.8 930.344 545.326 930.344 552.143C930.344 558.959 924.818 564.486 918.001 564.486C911.184 564.486 905.658 558.959 905.658 552.143Z" fill="#E7EEF1"/>
<path fill-rule="evenodd" clip-rule="evenodd" d="M308.573 186.486C304.738 186.486 301.63 189.594 301.63 193.429C301.63 197.263 304.738 200.371 308.573 200.371C312.407 200.371 315.515 197.263 315.515 193.429C315.515 189.594 312.407 186.486 308.573 186.486ZM300.087 193.429C300.087 188.742 303.886 184.943 308.573 184.943C313.259 184.943 317.058 188.742 317.058 193.429C317.058 198.115 313.259 201.914 308.573 201.914C303.886 201.914 300.087 198.115 300.087 193.429Z" fill="#E7EEF1"/>
<path fill-rule="evenodd" clip-rule="evenodd" d="M718.236 243.313C717.114 242.078 715.203 241.988 713.968 243.11L705.597 250.722C704.363 251.844 704.272 253.755 705.395 254.99L713.006 263.361C714.129 264.595 716.04 264.686 717.274 263.564L725.645 255.952C726.88 254.829 726.971 252.918 725.848 251.684L718.236 243.313ZM712.67 241.683C714.693 239.844 717.824 239.993 719.663 242.016L727.275 250.386C729.114 252.409 728.965 255.54 726.942 257.379L718.572 264.99C716.549 266.83 713.418 266.681 711.579 264.658L703.968 256.288C702.128 254.265 702.277 251.134 704.3 249.295L712.67 241.683Z" fill="#E7EEF1"/>
<path fill-rule="evenodd" clip-rule="evenodd" d="M336.38 73.5987C335.257 72.364 333.346 72.2732 332.111 73.3959L323.741 81.0072C322.506 82.13 322.415 84.0411 323.538 85.2758L331.149 93.6464C332.272 94.8811 334.183 94.9719 335.418 93.8492L343.789 86.2379C345.023 85.1151 345.114 83.204 343.991 81.9693L336.38 73.5987ZM330.814 71.969C332.837 70.1297 335.968 70.2785 337.807 72.3012L345.418 80.6718C347.258 82.6946 347.109 85.8255 345.086 87.6648L336.715 95.2761C334.693 97.1154 331.562 96.9666 329.722 94.9438L322.111 86.5732C320.272 84.5505 320.421 81.4196 322.443 79.5803L330.814 71.969Z" fill="#E7EEF1"/>
<path fill-rule="evenodd" clip-rule="evenodd" d="M205.238 571.17C204.116 569.935 202.205 569.844 200.97 570.967L192.599 578.579C191.365 579.701 191.274 581.612 192.396 582.847L200.008 591.218C201.131 592.452 203.042 592.543 204.276 591.42L212.647 583.809C213.882 582.686 213.972 580.775 212.85 579.541L205.238 571.17ZM199.672 569.54C201.695 567.701 204.826 567.85 206.665 569.873L214.277 578.243C216.116 580.266 215.967 583.397 213.944 585.236L205.574 592.847C203.551 594.687 200.42 594.538 198.581 592.515L190.97 584.145C189.13 582.122 189.279 578.991 191.302 577.152L199.672 569.54Z" fill="#E7EEF1"/>
<path d="M1014.79 106.057L1008.7 99.3603C1007.52 98.0573 1005.5 97.9615 1004.2 99.1463L997.503 105.235C996.2 106.42 996.104 108.437 997.289 109.74L1003.38 116.436C1004.56 117.739 1006.58 117.835 1007.88 116.65L1014.58 110.561C1015.88 109.377 1015.98 107.36 1014.79 106.057Z" fill="#E7EEF1"/>
<path d="M899.079 580.485L892.99 573.788C891.805 572.485 889.788 572.39 888.485 573.575L881.789 579.664C880.486 580.848 880.39 582.865 881.575 584.168L887.664 590.865C888.849 592.168 890.866 592.263 892.169 591.079L898.865 584.99C900.168 583.805 900.264 581.788 899.079 580.485Z" fill="#E7EEF1"/>
<path d="M285.792 229.485L279.703 222.788C278.518 221.485 276.501 221.39 275.198 222.575L268.502 228.664C267.199 229.848 267.103 231.865 268.288 233.168L274.377 239.865C275.562 241.168 277.578 241.263 278.881 240.079L285.578 233.99C286.881 232.805 286.977 230.788 285.792 229.485Z" fill="#E7EEF1"/>
<path d="M254.936 549.628L248.846 542.931C247.662 541.628 245.645 541.532 244.342 542.717L237.645 548.806C236.342 549.991 236.247 552.008 237.431 553.311L243.52 560.007C244.705 561.31 246.722 561.406 248.025 560.221L254.721 554.132C256.025 552.947 256.12 550.931 254.936 549.628Z" fill="#E7EEF1"/>
<path d="M844.714 286.001L749.942 910.858H266.409L200.571 278.287L844.714 286.001Z" fill="url(#paint0_linear_10272_1616)"/>
<path opacity="0.5" d="M690.429 613.858C690.429 605.337 697.336 598.429 705.857 598.429H871.714C880.235 598.429 887.143 605.337 887.143 613.858V721.858C887.143 730.379 880.235 737.286 871.714 737.286H705.857C697.336 737.286 690.429 730.379 690.429 721.858V613.858Z" fill="#C3EEF4"/>
<path opacity="0.5" d="M705.857 629.285C705.857 620.764 712.765 613.856 721.286 613.856H887.143C895.664 613.856 902.572 620.764 902.572 629.285V737.285C902.572 745.806 895.664 752.714 887.143 752.714H721.286C712.765 752.714 705.857 745.806 705.857 737.285V629.285Z" fill="#87DDE8"/>
<path opacity="0.5" d="M142.714 652.429C142.714 643.908 149.621 637 158.142 637H316.285C324.806 637 331.714 643.908 331.714 652.429V756.571C331.714 765.092 324.806 772 316.285 772H158.142C149.622 772 142.714 765.092 142.714 756.571V652.429Z" fill="#87DDE8"/>
<path opacity="0.5" d="M123.43 637C123.43 628.479 130.337 621.571 138.858 621.571H304.715C313.236 621.571 320.144 628.479 320.144 637V745C320.144 753.521 313.236 760.428 304.715 760.428H138.858C130.337 760.428 123.43 753.521 123.43 745V637Z" fill="#C3EEF4"/>
<path opacity="0.5" d="M15.4287 513.571C15.4287 505.05 22.3363 498.143 30.8573 498.143H146.572C155.093 498.143 162 505.05 162 513.571V590.714C162 599.235 155.093 606.143 146.572 606.143H30.8573C22.3363 606.143 15.4287 599.235 15.4287 590.714V513.571Z" fill="#87DDE8"/>
<path opacity="0.5" d="M0 502C0 493.479 6.90761 486.571 15.4286 486.571H138.857C147.378 486.571 154.286 493.479 154.286 502V579.143C154.286 587.664 147.378 594.571 138.857 594.571H15.4286C6.90759 594.571 0 587.664 0 579.143V502Z" fill="#C3EEF4"/>
<path d="M740.285 714.144H278.778C273.643 714.151 268.57 715.263 263.903 717.402C259.235 719.541 255.082 722.659 251.724 726.543C248.366 730.428 245.883 734.988 244.441 739.916C243 744.844 242.634 750.025 243.369 755.106L276.271 981.482C276.993 986.43 279.471 990.953 283.253 994.225C287.035 997.497 291.867 999.299 296.868 999.302H722.195C727.198 999.307 732.034 997.508 735.818 994.235C739.601 990.961 742.077 986.434 742.792 981.482L775.732 755.106C776.467 750.022 776.101 744.838 774.657 739.907C773.214 734.976 770.726 730.414 767.364 726.529C764.002 722.644 759.844 719.527 755.172 717.39C750.5 715.253 745.423 714.146 740.285 714.144Z" fill="#F5F8F9"/>
<path opacity="0.8" d="M548.579 854.989C547.497 849.202 544.649 843.885 540.42 839.758C536.192 835.63 530.786 832.891 524.936 831.912C519.394 830.822 513.758 830.277 508.108 830.285C499.348 829.943 490.648 831.87 482.867 835.877C473.191 841.594 468.395 852.819 468.984 867.508C468.838 878.011 472.563 888.205 479.459 896.176C486.022 902.978 498.601 906.358 508.403 906.775V914.328C508.403 915.55 508.889 916.722 509.756 917.589C510.622 918.456 511.799 918.949 513.03 918.96H513.451C514.413 918.875 515.324 918.496 516.059 917.875C519.846 914.662 524.852 910.364 529.732 905.857L531.877 903.896C535.802 900.553 539.356 896.804 542.479 892.712C549.458 881.432 551.651 867.869 548.579 854.989Z" fill="#D2DFE6"/>
<path d="M977.594 958.724H791.448V908.002H977.594C983.732 908.002 989.618 910.441 993.958 914.781C998.299 919.121 1000.74 925.007 1000.74 931.145V935.581C1000.74 941.719 998.299 947.605 993.958 951.945C989.618 956.286 983.732 958.724 977.594 958.724Z" fill="#F5F8F9"/>
<path fill-rule="evenodd" clip-rule="evenodd" d="M981.49 916.275H784.081V904.356H981.49C994.649 904.356 1006.73 914.046 1006.73 927.21V937.894C1006.73 951.238 994.659 960.748 981.49 960.748H784.081V948.829H981.49C989.612 948.829 994.816 943.219 994.816 937.894V927.21C994.816 922.014 989.544 916.275 981.49 916.275Z" fill="#BED42B"/>
<path d="M988.703 1025.34H805.025V963.122H988.703C995.495 963.122 1002.01 965.82 1006.81 970.623C1011.62 975.426 1014.31 981.94 1014.31 988.733V999.61C1014.33 1002.98 1013.68 1006.33 1012.4 1009.45C1011.12 1012.57 1009.23 1015.4 1006.85 1017.8C1004.47 1020.19 1001.65 1022.08 998.53 1023.38C995.416 1024.67 992.076 1025.34 988.703 1025.34Z" fill="#F5F8F9"/>
<path fill-rule="evenodd" clip-rule="evenodd" d="M994.835 971.895H797.658V959.976H995.058L995.165 959.98C998.577 960.103 1001.93 960.897 1005.04 962.317C1008.14 963.737 1010.94 965.755 1013.26 968.256C1015.59 970.757 1017.39 973.692 1018.58 976.893C1019.76 980.056 1020.31 983.418 1020.2 986.791V999.774C1020.31 1003.15 1019.76 1006.51 1018.58 1009.67C1017.39 1012.87 1015.59 1015.81 1013.26 1018.31C1010.94 1020.81 1008.14 1022.83 1005.04 1024.25C1001.93 1025.67 998.577 1026.46 995.165 1026.59L995.058 1026.59H797.658V1014.67H994.835C996.648 1014.59 998.429 1014.16 1000.08 1013.41C1001.76 1012.64 1003.27 1011.55 1004.53 1010.2C1005.79 1008.84 1006.77 1007.25 1007.41 1005.52C1008.05 1003.79 1008.35 1001.95 1008.28 1000.1L1008.28 999.989V986.576L1008.28 986.465C1008.35 984.618 1008.05 982.776 1007.41 981.044C1006.77 979.312 1005.79 977.723 1004.53 976.37C1003.27 975.016 1001.76 973.924 1000.08 973.155C998.429 972.4 996.648 971.972 994.835 971.895Z" fill="#B97CE8"/>
<path d="M252.755 404.252L241.688 393.185C246.283 387.926 248.688 381.106 248.407 374.128C248.127 367.15 245.182 360.545 240.18 355.672C235.177 350.799 228.497 348.029 221.514 347.931C214.531 347.834 207.776 350.417 202.64 355.149C197.503 359.88 194.376 366.401 193.901 373.368C193.426 380.336 195.64 387.22 200.087 392.605C204.534 397.99 210.876 401.466 217.807 402.317C224.739 403.168 231.733 401.33 237.351 397.18L248.582 408.412C248.856 408.688 249.18 408.907 249.538 409.056C249.896 409.206 250.28 409.284 250.668 409.284C251.055 409.285 251.437 409.208 251.794 409.058C252.15 408.908 252.473 408.688 252.743 408.412C253.295 407.861 253.606 407.114 253.608 406.334C253.611 405.555 253.304 404.806 252.755 404.252ZM199.719 375.188C199.719 370.948 200.976 366.802 203.333 363.277C205.689 359.751 209.038 357.003 212.956 355.381C216.874 353.759 221.185 353.335 225.344 354.163C229.503 354.991 233.323 357.034 236.32 360.033C239.318 363.033 241.359 366.854 242.185 371.013C243.011 375.173 242.584 379.483 240.96 383.401C239.336 387.318 236.586 390.665 233.059 393.019C229.532 395.374 225.386 396.629 221.145 396.627C215.462 396.617 210.015 394.355 205.996 390.337C201.978 386.319 199.716 380.871 199.707 375.188H199.719Z" fill="#BED42B"/>
<path fill-rule="evenodd" clip-rule="evenodd" d="M866.509 472.637C866.501 472.682 866.488 472.726 866.471 472.768C866.482 472.835 866.488 472.903 866.488 472.97L857.723 503.123C857.287 504.625 856.272 505.891 854.901 506.644C853.531 507.397 851.918 507.575 850.416 507.139L818.023 497.722C816.539 497.291 815.283 496.294 814.527 494.946C813.77 493.599 813.573 492.008 813.978 490.516L825.272 451.665C825.709 450.163 826.724 448.897 828.094 448.144C829.464 447.391 831.078 447.213 832.579 447.649L858.08 455.062C858.233 455.106 858.38 455.171 858.516 455.255C858.552 455.259 858.586 455.269 858.617 455.284C858.765 455.37 858.9 455.475 859.019 455.598L859.079 455.615C859.209 455.76 859.317 455.924 859.397 456.102L866.398 471.587L866.383 471.638C866.447 471.791 866.492 471.951 866.518 472.115C866.532 472.289 866.529 472.464 866.509 472.637ZM856.983 467.604C857.073 467.767 857.222 467.888 857.4 467.943L860.578 468.943L857.979 463.164L856.92 467.07C856.871 467.249 856.894 467.441 856.983 467.604ZM852.844 502.885C853.237 502.669 853.528 502.306 853.654 501.875L861.847 473.766L856.153 471.969C854.936 471.595 853.912 470.764 853.297 469.65C852.681 468.536 852.523 467.226 852.855 465.998L854.908 458.408L831.435 451.585C831.004 451.459 830.541 451.511 830.148 451.727C829.755 451.943 829.463 452.306 829.338 452.737L818.062 491.528C817.936 491.959 817.987 492.422 818.204 492.815C818.42 493.209 818.783 493.5 819.214 493.625L851.557 503.027C851.988 503.152 852.451 503.101 852.844 502.885ZM842.303 472.101L831.415 468.936C830.88 468.78 830.428 468.418 830.16 467.93C829.891 467.441 829.828 466.866 829.983 466.331C830.139 465.795 830.501 465.344 830.989 465.075C831.478 464.807 832.053 464.743 832.588 464.899L843.477 468.064C844.012 468.22 844.464 468.582 844.732 469.07C845.001 469.559 845.064 470.134 844.908 470.669C844.753 471.205 844.391 471.656 843.902 471.925C843.414 472.193 842.839 472.256 842.303 472.101ZM851.779 480.655L829.861 474.284C829.325 474.128 828.75 474.192 828.262 474.46C827.773 474.729 827.411 475.18 827.256 475.715C827.1 476.251 827.164 476.826 827.432 477.314C827.7 477.803 828.152 478.165 828.687 478.32L850.606 484.692C851.141 484.848 851.716 484.784 852.205 484.516C852.693 484.247 853.055 483.796 853.211 483.26C853.366 482.725 853.303 482.15 853.034 481.661C852.766 481.173 852.314 480.811 851.779 480.655ZM827.139 483.639L849.057 490.01C849.592 490.166 850.044 490.528 850.312 491.016C850.581 491.505 850.644 492.08 850.489 492.615C850.333 493.151 849.971 493.602 849.483 493.871C848.994 494.139 848.419 494.202 847.884 494.047L825.965 487.675C825.43 487.52 824.979 487.158 824.71 486.669C824.442 486.181 824.378 485.605 824.534 485.07C824.689 484.535 825.051 484.083 825.54 483.815C826.028 483.546 826.604 483.483 827.139 483.639Z" fill="#F99B45"/>
<g opacity="0.5">
<path fill-rule="evenodd" clip-rule="evenodd" d="M820.118 654.678L828.592 663.376C829.019 663.819 829.255 664.411 829.252 665.026V700.242C829.252 701.492 828.755 702.691 827.871 703.575C826.987 704.46 825.788 704.956 824.537 704.956H780.035C778.784 704.956 777.585 704.46 776.701 703.575C775.817 702.691 775.32 701.492 775.32 700.242V658.674C775.32 657.423 775.817 656.224 776.701 655.34C777.585 654.456 778.784 653.959 780.035 653.959H818.421C818.737 653.959 819.051 654.023 819.342 654.146C819.634 654.27 819.898 654.451 820.118 654.678ZM813.659 669.528V658.662L790.677 658.615V669.528C790.677 669.863 790.81 670.184 791.046 670.42C791.283 670.657 791.604 670.789 791.938 670.789H812.398C812.733 670.789 813.053 670.657 813.29 670.42C813.526 670.184 813.659 669.863 813.659 669.528ZM790.677 689.376V700.242H813.659V689.376C813.659 689.041 813.526 688.72 813.29 688.484C813.053 688.247 812.733 688.114 812.398 688.114H791.938C791.604 688.114 791.283 688.247 791.046 688.484C790.81 688.72 790.677 689.041 790.677 689.376ZM818.374 700.242H824.537V665.969L818.374 659.605V669.481C818.37 671.065 817.74 672.583 816.62 673.703C815.5 674.823 813.982 675.454 812.398 675.457H791.938C790.354 675.454 788.836 674.823 787.716 673.703C786.596 672.583 785.966 671.065 785.963 669.481V658.615H780.07V700.242H785.963V689.376C785.966 687.792 786.596 686.274 787.716 685.154C788.836 684.034 790.354 683.403 791.938 683.4H812.398C813.982 683.403 815.5 684.034 816.62 685.154C817.74 686.274 818.37 687.792 818.374 689.376V700.242ZM811.025 668.968C810.583 669.41 809.983 669.658 809.358 669.658C808.733 669.658 808.133 669.41 807.691 668.968C807.249 668.526 807.001 667.926 807.001 667.301V662.716C807.001 662.091 807.249 661.492 807.691 661.05C808.133 660.607 808.733 660.359 809.358 660.359C809.983 660.359 810.583 660.607 811.025 661.05C811.467 661.492 811.715 662.091 811.715 662.716V667.301C811.715 667.926 811.467 668.526 811.025 668.968Z" fill="#F8FBFB"/>
</g>
<path opacity="0.5" fill-rule="evenodd" clip-rule="evenodd" d="M100.892 549.839C103.731 553.025 105.847 556.788 107.092 560.87C107.325 561.607 107.38 562.388 107.255 563.15C107.129 563.913 106.826 564.635 106.369 565.258C105.919 565.886 105.326 566.397 104.638 566.747C103.95 567.098 103.188 567.278 102.415 567.273H94.1514C94.8308 568.318 95.1925 569.537 95.1928 570.783C95.2163 571.787 94.991 572.781 94.5371 573.676C93.5847 575.129 92.4175 576.43 91.0753 577.533L90.4582 578.092C89.9823 578.549 89.3483 578.804 88.6887 578.804C88.0292 578.804 87.3951 578.549 86.9193 578.092C86.765 577.938 86.5528 577.745 86.3118 577.533C84.9696 576.43 83.8024 575.129 82.85 573.676C82.3961 572.781 82.1709 571.787 82.1943 570.783C82.193 569.535 82.5585 568.315 83.2453 567.273H75.0103C74.2381 567.278 73.4759 567.098 72.7879 566.747C72.0999 566.397 71.5062 565.886 71.0568 565.258C70.6001 564.635 70.2966 563.913 70.1709 563.15C70.0453 562.388 70.101 561.607 70.3336 560.87C71.5725 556.805 73.6743 553.056 76.4953 549.877C76.6207 537.081 82.3196 529.82 85.7332 526.629C86.5312 525.868 87.5912 525.444 88.6936 525.444C89.7959 525.444 90.8559 525.868 91.6539 526.629C95.1061 529.82 100.757 537.062 100.892 549.839ZM88.7128 574.505C89.6357 573.736 90.4528 572.847 91.1428 571.863C91.3032 571.527 91.3761 571.155 91.355 570.783C91.355 570.082 91.0766 569.41 90.5811 568.915C90.0856 568.419 89.4136 568.141 88.7128 568.141C88.0121 568.141 87.3401 568.419 86.8446 568.915C86.3491 569.41 86.0707 570.082 86.0707 570.783C86.0435 571.154 86.1098 571.525 86.2636 571.863C86.9595 572.848 87.7831 573.737 88.7128 574.505ZM88.5161 529.334C88.4598 529.357 88.4087 529.391 88.3657 529.435V529.444C85.955 531.701 80.3525 538.229 80.3911 550.34V550.591C80.4019 550.765 80.4195 550.941 80.4373 551.119C80.467 551.416 80.4971 551.717 80.4971 552.018C80.7172 555.175 81.1132 558.317 81.6832 561.43C81.7005 561.513 81.7239 561.593 81.7469 561.672C81.7881 561.813 81.8278 561.949 81.8278 562.085V562.22C81.8486 562.299 81.8675 562.376 81.8862 562.452C81.911 562.553 81.9354 562.652 81.9628 562.751C81.9807 562.779 81.9968 562.808 82.0111 562.837C82.0307 562.896 82.0495 562.954 82.068 563.011C82.113 563.151 82.156 563.283 82.2039 563.406H95.1928C96.2439 560.514 96.8803 553.002 97.0443 550.234C97.0346 538.219 91.4321 531.691 89.0214 529.435C88.9784 529.391 88.9273 529.357 88.8711 529.334C88.8148 529.311 88.7545 529.298 88.6936 529.298C88.6326 529.298 88.5723 529.311 88.5161 529.334ZM74.5389 563.3C74.6846 563.375 74.8462 563.415 75.0103 563.416L78.1346 563.397V563.32L78.0478 562.953C78.0213 562.852 77.9976 562.748 77.9737 562.643C77.9542 562.557 77.9345 562.471 77.9128 562.384L77.8261 561.96L77.7103 561.391L77.6236 560.919C77.613 560.852 77.5974 560.785 77.5818 560.719C77.5545 560.602 77.5271 560.485 77.5271 560.369L77.4403 559.839C77.4317 559.787 77.4214 559.736 77.4112 559.686C77.387 559.567 77.3632 559.449 77.3632 559.327L77.2764 558.73C77.2282 558.614 77.2282 558.498 77.2282 558.382C77.1028 557.457 76.9968 556.541 76.9003 555.663C75.6708 557.65 74.6988 559.786 74.0075 562.018C73.9554 562.18 73.9431 562.352 73.9717 562.52C74.0002 562.688 74.0687 562.846 74.1714 562.982C74.2672 563.115 74.3931 563.224 74.5389 563.3ZM102.887 563.3C103.033 563.224 103.159 563.115 103.254 562.982C103.348 562.849 103.409 562.697 103.434 562.536C103.459 562.376 103.447 562.211 103.399 562.056C102.708 559.824 101.736 557.689 100.506 555.702C100.26 558.298 99.8414 560.875 99.2525 563.416H102.415C102.579 563.415 102.741 563.375 102.887 563.3ZM91.879 551.094C90.9428 551.724 89.841 552.062 88.7128 552.066C87.9619 552.067 87.218 551.921 86.5238 551.634C85.8295 551.348 85.1985 550.928 84.6666 550.398C84.1347 549.868 83.7124 549.238 83.4239 548.545C83.1354 547.852 82.9862 547.108 82.9849 546.357C82.9849 545.229 83.3193 544.126 83.9457 543.188C84.5721 542.249 85.4625 541.518 86.5045 541.085C87.5465 540.653 88.6933 540.538 89.8001 540.757C90.9069 540.976 91.9241 541.518 92.7233 542.314C93.5224 543.11 94.0676 544.126 94.29 545.232C94.5125 546.338 94.4022 547.485 93.9731 548.529C93.5439 549.572 92.8153 550.465 91.879 551.094ZM90.005 544.437C89.6235 544.178 89.1739 544.037 88.7128 544.033C88.4055 544.031 88.1008 544.089 87.8161 544.205C87.5314 544.32 87.2723 544.491 87.0536 544.707C86.835 544.923 86.6612 545.18 86.5422 545.463C86.4231 545.746 86.3612 546.05 86.3599 546.357C86.3581 546.818 86.4928 547.27 86.7472 547.654C87.0016 548.039 87.3643 548.34 87.7894 548.518C88.2145 548.697 88.683 548.746 89.1358 548.658C89.5885 548.571 90.0053 548.351 90.3333 548.027C90.6614 547.703 90.8861 547.289 90.9791 546.837C91.0721 546.386 91.0292 545.917 90.8558 545.489C90.6824 545.062 90.3864 544.696 90.005 544.437Z" fill="#F8FBFB"/>
<g opacity="0.5">
<path d="M261.088 730.835H209.488C208.919 730.835 208.374 730.609 207.972 730.208C207.57 729.806 207.345 729.261 207.345 728.692V676.449C207.345 675.881 207.57 675.336 207.972 674.934C208.374 674.532 208.919 674.307 209.488 674.307C210.056 674.307 210.601 674.532 211.003 674.934C211.405 675.336 211.63 675.881 211.63 676.449V726.55H261.088C261.656 726.55 262.201 726.775 262.603 727.177C263.005 727.579 263.23 728.124 263.23 728.692C263.23 729.261 263.005 729.806 262.603 730.208C262.201 730.609 261.656 730.835 261.088 730.835Z" fill="#F8FBFB"/>
<path opacity="0.5" d="M232.072 716.951C230.779 716.986 229.507 716.611 228.44 715.879C218.54 708.101 212.593 715.14 212.368 715.451C211.907 715.963 211.266 716.278 210.579 716.329C209.891 716.381 209.211 716.166 208.678 715.728C208.145 715.291 207.802 714.665 207.719 713.98C207.636 713.296 207.82 712.606 208.233 712.054C208.329 711.936 217.747 700.751 231.633 711.551C232.34 711.883 234.719 711.551 237.922 705.979C243.879 695.651 255.001 689.029 255.472 688.751C256.084 688.39 256.815 688.287 257.503 688.465C258.191 688.642 258.781 689.086 259.142 689.699C259.503 690.311 259.605 691.042 259.428 691.73C259.25 692.418 258.806 693.008 258.194 693.368C258.086 693.422 247.801 699.583 242.561 708.658C239.797 713.447 236.765 716.158 233.54 716.854C233.055 716.932 232.563 716.965 232.072 716.951ZM231.622 711.529L231.708 711.593L231.622 711.529Z" fill="#F8FBFB"/>
<path opacity="0.8" d="M210.215 716.382C209.731 716.38 209.256 716.247 208.841 715.997C208.426 715.747 208.086 715.389 207.859 714.961C207.631 714.534 207.524 714.052 207.548 713.568C207.573 713.085 207.728 712.616 207.997 712.214C209.165 710.478 219.665 695.446 229.929 695.446H230.047C232.629 695.446 236.336 696.517 239.369 701.189C241.844 705.024 244.479 707.071 247.201 707.242C251.261 707.489 254.701 703.642 254.701 703.61C254.922 703.324 255.199 703.085 255.515 702.909C255.831 702.733 256.18 702.622 256.54 702.584C256.9 702.546 257.264 702.582 257.61 702.689C257.955 702.795 258.276 702.971 258.552 703.205C258.828 703.439 259.054 703.727 259.216 704.05C259.378 704.374 259.472 704.727 259.494 705.089C259.515 705.45 259.463 705.812 259.341 706.152C259.219 706.493 259.029 706.806 258.783 707.071C258.579 707.317 253.651 713.028 246.858 712.589C242.358 712.289 238.286 709.439 234.879 704.092C233.465 701.949 231.869 700.878 230.004 700.803H229.929C224.315 700.803 216.215 709.621 212.422 715.214C212.177 715.574 211.848 715.868 211.464 716.072C211.079 716.275 210.65 716.382 210.215 716.382Z" fill="#F8FBFB"/>
</g>
<path opacity="0.3" d="M779.144 162.571C779.144 154.05 786.051 147.143 794.572 147.143H1033.71C1042.24 147.143 1049.14 154.05 1049.14 162.571V320.714C1049.14 329.235 1042.24 336.143 1033.71 336.143H794.572C786.051 336.143 779.144 329.235 779.144 320.714V162.571Z" fill="#C3EEF4"/>
<path opacity="0.3" d="M794.572 181.857C794.572 173.336 801.48 166.429 810.001 166.429H1049.14C1057.66 166.429 1064.57 173.336 1064.57 181.857V340C1064.57 348.521 1057.66 355.429 1049.14 355.429H810.001C801.48 355.429 794.572 348.521 794.572 340V181.857Z" fill="#C3EEF4"/>
<path d="M767.572 147.142C767.572 138.622 774.48 131.714 783.001 131.714H1022.14C1030.66 131.714 1037.57 138.621 1037.57 147.142V305.285C1037.57 313.806 1030.66 320.714 1022.14 320.714H783.001C774.48 320.714 767.572 313.806 767.572 305.285V147.142Z" fill="#F8FBFB"/>
<path d="M767.572 147.142C767.572 138.621 774.48 131.714 783.001 131.714H1022.14C1030.66 131.714 1037.57 138.621 1037.57 147.142V174.142H767.572V147.142Z" fill="#202C44"/>
<path d="M802.287 152.928C802.287 156.124 799.697 158.714 796.502 158.714C793.306 158.714 790.716 156.124 790.716 152.928C790.716 149.733 793.306 147.143 796.502 147.143C799.697 147.143 802.287 149.733 802.287 152.928Z" fill="#FF5A60"/>
<path d="M817.716 152.928C817.716 156.124 815.126 158.714 811.93 158.714C808.735 158.714 806.145 156.124 806.145 152.928C806.145 149.733 808.735 147.143 811.93 147.143C815.126 147.143 817.716 149.733 817.716 152.928Z" fill="#F9B42F"/>
<path d="M833.144 152.928C833.144 156.124 830.553 158.714 827.358 158.714C824.163 158.714 821.572 156.124 821.572 152.928C821.572 149.733 824.163 147.143 827.358 147.143C830.553 147.143 833.144 149.733 833.144 152.928Z" fill="#4DCB7B"/>
<path d="M923.015 197.287H787.63C785.073 197.287 783.001 199.359 783.001 201.916V287.024C783.001 289.581 785.073 291.653 787.63 291.653H923.015C925.572 291.653 927.644 289.581 927.644 287.024V201.916C927.644 199.359 925.572 197.287 923.015 197.287Z" fill="#E7EEF1"/>
<path opacity="0.7" d="M853.571 228.143C850.291 228.146 847.086 229.122 844.361 230.946C841.635 232.771 839.512 235.362 838.259 238.393C837.006 241.424 836.68 244.759 837.322 247.975C837.964 251.192 839.544 254.145 841.865 256.464C844.185 258.782 847.141 260.36 850.358 260.998C853.574 261.637 856.909 261.307 859.938 260.052C862.968 258.796 865.558 256.67 867.379 253.943C869.201 251.215 870.174 248.009 870.174 244.729C870.169 240.329 868.418 236.11 865.305 233C862.192 229.89 857.971 228.143 853.571 228.143Z" fill="#2CC3D5"/>
<path d="M850.969 252.056C850.964 252.308 851.037 252.554 851.176 252.762C851.316 252.969 851.515 253.127 851.746 253.212C851.978 253.298 852.23 253.307 852.467 253.239C852.704 253.171 852.914 253.028 853.067 252.832L855.344 250.059L859.072 245.505C859.251 245.287 859.349 245.013 859.349 244.729C859.349 244.445 859.251 244.17 859.072 243.953L855.344 239.399L853.067 236.626C852.914 236.43 852.704 236.287 852.467 236.219C852.23 236.151 851.978 236.16 851.746 236.246C851.515 236.331 851.316 236.489 851.176 236.696C851.037 236.903 850.964 237.15 850.969 237.402V252.056Z" fill="white"/>
<path d="M1017.51 197.286H941.915C939.358 197.286 937.286 199.358 937.286 201.915V285.229C937.286 287.785 939.358 289.858 941.915 289.858H1017.51C1020.07 289.858 1022.14 287.785 1022.14 285.229V201.915C1022.14 199.358 1020.07 197.286 1017.51 197.286Z" fill="white"/>
<path fill-rule="evenodd" clip-rule="evenodd" d="M945.966 212.715C945.966 211.117 947.261 209.822 948.859 209.822H1008.64C1010.24 209.822 1011.54 211.117 1011.54 212.715C1011.54 214.312 1010.24 215.607 1008.64 215.607H948.859C947.261 215.607 945.966 214.312 945.966 212.715Z" fill="#D2DFE6"/>
<path fill-rule="evenodd" clip-rule="evenodd" d="M945.966 224.286C945.966 222.689 947.261 221.394 948.859 221.394H1008.64C1010.24 221.394 1011.54 222.689 1011.54 224.286C1011.54 225.884 1010.24 227.179 1008.64 227.179H948.859C947.261 227.179 945.966 225.884 945.966 224.286Z" fill="#D2DFE6"/>
<path fill-rule="evenodd" clip-rule="evenodd" d="M945.966 235.858C945.966 234.26 947.261 232.965 948.859 232.965H1008.64C1010.24 232.965 1011.54 234.26 1011.54 235.858C1011.54 237.455 1010.24 238.751 1008.64 238.751H948.859C947.261 238.751 945.966 237.455 945.966 235.858Z" fill="#D2DFE6"/>
<path fill-rule="evenodd" clip-rule="evenodd" d="M945.966 262.858C945.966 261.261 947.261 259.965 948.859 259.965H1008.64C1010.24 259.965 1011.54 261.261 1011.54 262.858C1011.54 264.456 1010.24 265.751 1008.64 265.751H948.859C947.261 265.751 945.966 264.456 945.966 262.858Z" fill="#D2DFE6"/>
<path fill-rule="evenodd" clip-rule="evenodd" d="M945.966 274.429C945.966 272.832 947.261 271.537 948.859 271.537H1008.64C1010.24 271.537 1011.54 272.832 1011.54 274.429C1011.54 276.027 1010.24 277.322 1008.64 277.322H948.859C947.261 277.322 945.966 276.027 945.966 274.429Z" fill="#D2DFE6"/>
<path fill-rule="evenodd" clip-rule="evenodd" d="M945.966 247.429C945.966 245.832 947.261 244.537 948.859 244.537H983.573C985.171 244.537 986.466 245.832 986.466 247.429C986.466 249.027 985.171 250.322 983.573 250.322H948.859C947.261 250.322 945.966 249.027 945.966 247.429Z" fill="#D2DFE6"/>
<path d="M233.449 944.077C233.449 950.21 233.642 1008.68 233.449 1014.12C232.446 1032.44 225.503 1047.41 184.27 1047.41C141.456 1047.41 135.632 1031.4 135.015 1011.92C135.015 1007.1 135.015 949.4 135.015 944.077C135.015 917.077 136.056 947.124 184.27 947.124C232.485 947.124 233.449 917.077 233.449 944.077Z" fill="#2CC3D5"/>
<path d="M232.986 935.244C232.986 944.887 211.116 952.717 184.116 952.717C157.116 952.717 135.284 945.003 135.284 935.244C135.284 925.486 157.154 917.81 184.116 917.81C211.077 917.81 232.986 925.64 232.986 935.244Z" fill="#2CC3D5"/>
<mask id="mask0_10272_1616" style="mask-type:alpha" maskUnits="userSpaceOnUse" x="139" y="920" width="90" height="30">
<path d="M228.357 934.82C228.357 942.959 208.57 949.555 184.115 949.555C159.661 949.555 139.874 942.959 139.874 934.82C139.874 926.682 159.7 920.086 184.115 920.086C208.531 920.086 228.357 926.682 228.357 934.82Z" fill="#2498A8"/>
</mask>
<g mask="url(#mask0_10272_1616)">
<path d="M228.357 934.82C228.357 942.959 208.57 949.555 184.115 949.555C159.661 949.555 139.874 942.959 139.874 934.82C139.874 926.682 159.7 920.086 184.115 920.086C208.531 920.086 228.357 926.682 228.357 934.82Z" fill="#2498A8"/>
<path d="M139.064 943.806C139.064 951.212 158.852 957.229 183.267 957.229C207.683 957.229 227.393 951.212 227.393 943.806C227.393 936.4 207.567 930.383 183.152 930.383C158.736 930.383 139.064 936.4 139.064 943.806Z" fill="#594339"/>
</g>
<path d="M233.294 1020.41C229.579 1020.42 225.884 1019.86 222.34 1018.75L226.583 1006.02C228.01 1006.49 241.047 1010.3 246.524 999.658C254.238 984.847 252.966 962.707 247.99 958.271C246.777 957.019 245.207 956.172 243.494 955.848C241.782 955.523 240.011 955.736 238.424 956.458C236.474 957.276 234.665 958.395 233.063 959.775L223.536 950.21C226.45 947.517 229.837 945.386 233.526 943.922C237.392 942.351 241.628 941.923 245.731 942.688C249.833 943.454 253.629 945.382 256.668 948.242C264.074 954.838 265.154 967.528 265.154 974.702C265.241 985.463 262.852 996.1 258.173 1005.79C255.833 1010.33 252.254 1014.11 247.85 1016.7C243.446 1019.29 238.399 1020.58 233.294 1020.41Z" fill="#2CC3D5"/>
<path opacity="0.08" d="M183.151 938.331C183.151 938.331 172.236 926.104 170.23 924.445C165.162 920.672 160.343 916.574 155.804 912.179C154.928 911.257 154.164 910.234 153.529 909.132C152.904 908.107 152.497 906.965 152.333 905.776C152.154 904.561 152.314 903.32 152.796 902.189C153.332 900.938 154.135 899.819 155.149 898.911C158.117 896.489 161.521 894.656 165.177 893.511C171.273 891.399 177.512 889.723 183.846 888.496C186.748 887.935 189.599 887.135 192.37 886.105C193.858 885.616 195.244 884.857 196.459 883.868C196.683 883.665 196.878 883.431 197.037 883.174C197.054 883.097 197.054 883.018 197.037 882.942C197.042 882.852 197.042 882.762 197.037 882.672C196.932 882.444 196.789 882.235 196.613 882.055C194.791 880.33 192.621 879.015 190.249 878.198C187.181 876.946 183.967 876.09 180.683 875.652C175.714 875.041 170.818 873.943 166.064 872.373C162.817 871.307 159.841 869.543 157.347 867.205C156.362 866.212 155.565 865.049 154.994 863.772C154.461 862.557 154.198 861.241 154.223 859.915C154.355 857.383 155.302 854.961 156.923 853.011C160.33 848.954 164.747 845.867 169.729 844.062C171.726 843.278 173.792 842.684 175.9 842.288C176.414 842.252 176.929 842.252 177.443 842.288C180.181 842.288 184.964 842.288 183.923 846.145C182.997 849.076 181.184 848.999 178.33 849.462L177.211 849.655C175.557 849.969 173.931 850.42 172.351 851.005C168.577 852.259 165.19 854.464 162.516 857.408C161.803 858.181 161.334 859.147 161.166 860.185C161.09 860.515 161.09 860.858 161.166 861.188C161.363 861.695 161.665 862.155 162.053 862.538C163.816 864.14 165.891 865.361 168.147 866.125C176.324 869.211 184.193 869.134 192.409 872.644C195.703 873.899 198.642 875.938 200.971 878.583C201.473 879.242 201.875 879.969 202.167 880.743C202.504 881.574 202.636 882.474 202.553 883.366C202.502 884.294 202.224 885.194 201.743 885.989C201.267 886.797 200.654 887.515 199.93 888.111C198.171 889.483 196.187 890.54 194.067 891.235C190.979 892.25 187.821 893.036 184.617 893.588C178.478 894.601 172.41 896.005 166.45 897.792C163.409 898.679 160.539 900.074 157.964 901.919C157.343 902.413 156.831 903.03 156.46 903.732C156.234 904.24 156.141 904.798 156.19 905.352C156.278 906.069 156.501 906.762 156.846 907.396C157.339 908.291 157.907 909.143 158.543 909.942C162.752 914.42 167.235 918.632 171.966 922.555C173.817 924.445 184.347 935.129 183.151 938.331Z" fill="black"/>
<path opacity="0.08" d="M198.04 937.753C198.04 937.753 198.04 937.097 198.233 937.058C198.413 935.465 198.16 933.853 197.5 932.391C196.82 931.013 195.862 929.791 194.684 928.804C191.74 926.517 188.544 924.576 185.157 923.018C181.602 921.401 178.281 919.312 175.283 916.808C173.936 915.586 172.87 914.086 172.158 912.411C171.459 910.591 171.311 908.606 171.734 906.703C171.947 905.652 172.44 904.679 173.161 903.887C173.898 903.05 174.772 902.346 175.746 901.804C178.037 900.557 180.49 899.636 183.036 899.065C188.898 897.6 194.8 896.828 200.74 895.633C203.131 895.159 205.479 894.488 207.76 893.627C208.53 893.342 209.256 892.953 209.92 892.47C210.337 892.213 210.682 891.855 210.923 891.428C211.099 891.126 211.167 890.772 211.116 890.425C210.997 889.759 210.734 889.127 210.344 888.574C209.505 887.319 208.521 886.167 207.413 885.141C206.217 883.984 203.826 882.055 205.214 880.32C206.603 878.584 209.457 881.014 210.653 882.133C212.025 883.431 213.23 884.895 214.24 886.491C214.911 887.553 215.333 888.753 215.474 890.001C215.597 891.152 215.354 892.313 214.78 893.318C214.22 894.283 213.44 895.103 212.504 895.71C211.547 896.365 210.51 896.897 209.418 897.291C206.905 898.176 204.326 898.86 201.704 899.335C195.803 900.377 189.901 901.033 184.038 902.267C181.806 902.719 179.641 903.458 177.597 904.465C176.905 904.803 176.279 905.26 175.746 905.815C175.347 906.227 175.056 906.731 174.897 907.281C174.512 908.669 174.512 910.136 174.897 911.524C175.4 912.851 176.19 914.049 177.211 915.034C179.956 917.453 182.987 919.526 186.237 921.205C189.687 922.963 192.891 925.167 195.764 927.763C196.983 928.947 197.93 930.381 198.541 931.967C199.081 933.634 199.081 935.429 198.541 937.097C198.541 937.097 198.156 937.791 198.04 937.753Z" fill="black"/>
<path d="M148.823 943.768V976.978C148.823 979.157 149.689 981.246 151.23 982.787C152.77 984.328 154.86 985.193 157.039 985.193C159.218 985.193 161.308 984.328 162.848 982.787C164.389 981.246 165.255 979.157 165.255 976.978V963.015C165.568 961.227 166.501 959.607 167.891 958.439C169.281 957.272 171.038 956.632 172.853 956.632C174.668 956.632 176.425 957.272 177.815 958.439C179.205 959.607 180.139 961.227 180.452 963.015V968.839C180.452 970.885 181.265 972.847 182.711 974.294C184.158 975.741 186.12 976.553 188.166 976.553H189.362C191.408 976.553 193.37 975.741 194.817 974.294C196.263 972.847 197.076 970.885 197.076 968.839V943.768H148.823Z" fill="#594339"/>
<defs>
<filter id="filter0_f_10272_1616" x="256.514" y="974.035" width="549.165" height="64.8501" filterUnits="userSpaceOnUse" color-interpolation-filters="sRGB">
<feFlood flood-opacity="0" result="BackgroundImageFix"/>
<feBlend mode="normal" in="SourceGraphic" in2="BackgroundImageFix" result="shape"/>
<feGaussianBlur stdDeviation="7" result="effect1_foregroundBlur_10272_1616"/>
</filter>
<filter id="filter1_f_10272_1616" x="746.093" y="1000.36" width="278.054" height="64.8501" filterUnits="userSpaceOnUse" color-interpolation-filters="sRGB">
<feFlood flood-opacity="0" result="BackgroundImageFix"/>
<feBlend mode="normal" in="SourceGraphic" in2="BackgroundImageFix" result="shape"/>
<feGaussianBlur stdDeviation="7" result="effect1_foregroundBlur_10272_1616"/>
</filter>
<filter id="filter2_f_10272_1616" x="114.378" y="1012.2" width="138.55" height="64.8501" filterUnits="userSpaceOnUse" color-interpolation-filters="sRGB">
<feFlood flood-opacity="0" result="BackgroundImageFix"/>
<feBlend mode="normal" in="SourceGraphic" in2="BackgroundImageFix" result="shape"/>
<feGaussianBlur stdDeviation="7" result="effect1_foregroundBlur_10272_1616"/>
</filter>
<linearGradient id="paint0_linear_10272_1616" x1="508.176" y1="1051.67" x2="509.143" y2="446.072" gradientUnits="userSpaceOnUse">
<stop offset="0.108095" stop-color="#DAF2F4"/>
<stop offset="1" stop-color="#DAF2F4" stop-opacity="0"/>
</linearGradient>
</defs>
</svg>
