<svg width="1080" height="1080" viewBox="0 0 1080 1080" fill="none" xmlns="http://www.w3.org/2000/svg">
<g clip-path="url(#clip0_10272_1614)">
<g style="mix-blend-mode:luminosity" opacity="0.16">
<path d="M858.14 695.763C858.14 695.763 670.762 944.658 459.076 978.526C247.391 1012.39 150.088 921.338 157.388 823.928C164.687 726.517 196.294 656.621 133.08 580.37C69.8666 504.119 -17.8006 442.674 45.4862 254.144C108.773 65.6143 283.888 6.32931 395.863 25.392C507.837 44.4547 517.472 150.38 648.864 177.893C780.255 205.407 945.735 154.637 989.532 292.27C1033.33 429.902 945.735 592.697 858.14 695.763Z" fill="#B9CBD3"/>
</g>
<g opacity="0.2" filter="url(#filter0_f_10272_1614)">
<path d="M284.269 1010.7C284.269 1018.36 220.633 1024.57 142.134 1024.57C63.6357 1024.57 6.08849e-08 1018.36 3.92228e-08 1010.7C1.75606e-08 1003.04 63.6357 996.834 142.134 996.834C220.633 996.834 284.269 1003.04 284.269 1010.7Z" fill="#0A0F1A"/>
</g>
<g opacity="0.2" filter="url(#filter1_f_10272_1614)">
<path d="M755.739 1010.7C755.739 1018.36 642.126 1024.57 501.977 1024.57C361.828 1024.57 248.215 1018.36 248.215 1010.7C248.215 1003.04 361.828 996.834 501.977 996.834C642.126 996.834 755.739 1003.04 755.739 1010.7Z" fill="#0A0F1A"/>
</g>
<g opacity="0.2" filter="url(#filter2_f_10272_1614)">
<path d="M902.727 1043.98C902.727 1051.64 869.823 1057.85 829.233 1057.85C788.644 1057.85 755.739 1051.64 755.739 1043.98C755.739 1036.32 788.644 1030.11 829.233 1030.11C869.823 1030.11 902.727 1036.32 902.727 1043.98Z" fill="#0A0F1A"/>
</g>
<path fill-rule="evenodd" clip-rule="evenodd" d="M341.195 499.965C365.018 509.761 376.39 537.015 366.593 560.839L323.457 543.101L280.321 525.364C290.117 501.54 317.371 490.169 341.195 499.965ZM253.44 856.744C262.869 823.876 290.6 751.036 317.054 683.987C330.071 650.996 342.463 620.191 351.604 597.626C356.173 586.348 359.926 577.137 362.534 570.752C363.839 567.559 364.856 565.074 365.547 563.39C365.892 562.548 366.155 561.906 366.331 561.477L366.593 560.839C366.594 560.838 366.593 560.839 323.457 543.101C280.321 525.364 280.32 525.365 280.319 525.368L280.04 526.048C279.857 526.493 279.587 527.15 279.236 528.008C278.532 529.725 277.5 532.246 276.18 535.475C273.542 541.934 269.754 551.229 265.147 562.602C255.936 585.341 243.433 616.421 230.282 649.751C204.404 715.34 174.712 792.889 163.771 831.037L163.768 831.047C154.712 862.648 151.59 903.391 176.344 937.116C201.428 971.29 243.775 982.923 289.098 982.923C314.857 982.923 335.739 962.042 335.739 936.283C335.739 910.524 314.857 889.642 289.098 889.642C273.278 889.642 263.409 887.552 257.72 885.431C254.98 884.409 253.411 883.457 252.607 882.877C251.843 882.326 251.595 881.99 251.543 881.92C251.487 881.844 251.324 881.615 251.121 881.012C250.902 880.361 250.588 879.121 250.453 877.092C250.17 872.83 250.749 866.139 253.438 856.754C253.438 856.751 253.439 856.747 253.44 856.744Z" fill="#FDC2BF"/>
<path fill-rule="evenodd" clip-rule="evenodd" d="M375.408 578.927C375.405 578.933 375.402 578.938 375.399 578.944L375.397 578.949L375.396 578.95L323.457 552.467L271.519 525.983C286.145 497.298 321.256 485.902 349.941 500.528C378.618 515.151 390.015 550.247 375.408 578.927C375.408 578.927 375.408 578.927 375.408 578.927ZM375.396 578.95L375.29 579.161C375.183 579.372 375.006 579.724 374.762 580.212C374.275 581.188 373.523 582.707 372.533 584.738C370.553 588.8 367.628 594.9 363.987 602.779C356.699 618.55 346.579 641.371 335.449 669.169C323.48 699.06 289.546 713.589 259.654 701.621C229.762 689.652 215.233 655.718 227.202 625.826C239.198 595.867 250.143 571.172 258.14 553.867C262.141 545.208 265.413 538.38 267.72 533.648C268.873 531.282 269.786 529.438 270.429 528.15C270.75 527.506 271.004 527.001 271.187 526.638C271.278 526.457 271.352 526.311 271.408 526.202L271.515 525.99C271.517 525.986 271.519 525.983 323.457 552.467" fill="#4AA86C"/>
<path fill-rule="evenodd" clip-rule="evenodd" d="M674.438 500.257C698.529 491.138 725.451 503.276 734.569 527.368L690.948 543.877L647.327 560.387C638.209 536.296 650.347 509.375 674.438 500.257ZM839.464 828.184C839.462 828.18 839.461 828.175 839.46 828.171C829.573 789.776 802.854 713.488 779.571 649.143C767.741 616.448 756.497 586.023 748.214 563.779C744.071 552.653 740.665 543.565 738.293 537.252C737.106 534.095 736.178 531.632 735.545 529.954C735.229 529.115 734.986 528.472 734.822 528.037L734.57 527.372C734.569 527.369 734.569 527.368 690.948 543.877C647.327 560.387 647.327 560.386 647.327 560.387L647.562 561.01C647.72 561.428 647.957 562.054 648.267 562.876C648.887 564.52 649.801 566.947 650.973 570.066C653.317 576.303 656.69 585.303 660.797 596.331C669.013 618.395 680.151 648.537 691.855 680.882C715.638 746.608 740.59 818.279 749.128 851.442L749.132 851.455C752.679 865.219 752.258 872.804 751.562 876.185C751.069 878.578 750.488 879.162 749.573 879.933C747.893 881.35 743.347 884.21 733.205 886.587C723.149 888.944 709.658 890.341 692.269 890.341C666.51 890.341 645.629 911.222 645.629 936.981C645.629 962.74 666.51 983.622 692.269 983.622C733.163 983.622 778.155 977.84 809.693 951.256C846.901 919.893 851.179 873.644 839.464 828.184Z" fill="#FDC2BF"/>
<path fill-rule="evenodd" clip-rule="evenodd" d="M664.293 501.394C692.929 486.673 728.077 497.953 742.799 526.59L690.948 553.245C742.799 526.59 742.801 526.593 742.803 526.597L742.914 526.815C742.971 526.926 743.046 527.074 743.14 527.257C743.326 527.624 743.584 528.134 743.91 528.783C744.562 530.08 745.486 531.934 746.651 534.31C748.98 539.061 752.277 545.911 756.3 554.594C764.339 571.946 775.311 596.7 787.254 626.73C799.153 656.649 784.545 690.55 754.626 702.449C724.706 714.348 690.806 699.74 678.906 669.821C667.879 642.094 657.785 619.333 650.5 603.609C646.861 595.754 643.933 589.675 641.951 585.633C640.961 583.612 640.208 582.102 639.722 581.136C639.479 580.652 639.303 580.305 639.198 580.098L639.097 579.9C639.096 579.898 639.095 579.896 639.094 579.893M639.094 579.893C639.09 579.886 639.086 579.878 639.082 579.87C624.384 551.239 635.666 516.11 664.293 501.394" fill="#4AA86C"/>
<path d="M710.77 984.05V509.869V502.367C710.77 490.357 619.665 480.641 507.222 480.641C394.779 480.641 303.713 490.357 303.713 502.367V509.869V984.05H710.77Z" fill="#4AA86C"/>
<path d="M704.785 983.74H718.038V747.465C716.108 718.307 711.924 689.342 705.523 660.83C705.523 660.83 708.205 857.693 704.785 983.74Z" fill="#449F65"/>
<path d="M307.678 974.334C306.434 857.071 312.653 676.377 312.653 676.377C300.993 694.451 292.792 741.091 292.792 741.091V974.295L307.678 974.334Z" fill="#449F65"/>
<path d="M501.197 539.443C522.771 539.443 540.259 525.035 540.259 507.261C540.259 489.488 522.771 475.079 501.197 475.079C479.624 475.079 462.136 489.488 462.136 507.261C462.136 525.035 479.624 539.443 501.197 539.443Z" fill="#FDC2BF"/>
<path fill-rule="evenodd" clip-rule="evenodd" d="M501.197 535.557C521.362 535.557 536.372 522.218 536.372 507.261C536.372 492.305 521.362 478.966 501.197 478.966C481.032 478.966 466.022 492.305 466.022 507.261C466.022 522.218 481.032 535.557 501.197 535.557ZM540.259 507.261C540.259 525.035 522.771 539.443 501.197 539.443C479.624 539.443 462.136 525.035 462.136 507.261C462.136 489.488 479.624 475.079 501.197 475.079C522.771 475.079 540.259 489.488 540.259 507.261Z" fill="white"/>
<path d="M815.44 908.772V909.432C815.421 909.212 815.421 908.991 815.44 908.772Z" fill="#F8F7EF"/>
<path d="M145.096 583.096C147.242 583.096 148.982 581.356 148.982 579.209C148.982 577.062 147.242 575.322 145.096 575.322C142.949 575.322 141.209 577.062 141.209 579.209C141.209 581.356 142.949 583.096 145.096 583.096Z" fill="#E7EEF1"/>
<path d="M724.218 279.931C726.365 279.931 728.105 278.191 728.105 276.044C728.105 273.897 726.365 272.157 724.218 272.157C722.072 272.157 720.332 273.897 720.332 276.044C720.332 278.191 722.072 279.931 724.218 279.931Z" fill="#E7EEF1"/>
<path d="M168.416 493.701C170.563 493.701 172.303 491.961 172.303 489.814C172.303 487.668 170.563 485.928 168.416 485.928C166.269 485.928 164.529 487.668 164.529 489.814C164.529 491.961 166.269 493.701 168.416 493.701Z" fill="#E7EEF1"/>
<path d="M875.801 641.397C877.947 641.397 879.688 639.657 879.688 637.51C879.688 635.364 877.947 633.624 875.801 633.624C873.654 633.624 871.914 635.364 871.914 637.51C871.914 639.657 873.654 641.397 875.801 641.397Z" fill="#E7EEF1"/>
<path d="M1073.85 255.648C1075.89 256.327 1078.09 255.226 1078.77 253.19C1079.45 251.153 1078.35 248.952 1076.31 248.273C1074.28 247.594 1072.08 248.695 1071.4 250.731C1070.72 252.768 1071.82 254.969 1073.85 255.648Z" fill="#E7EEF1"/>
<path d="M786.406 509.248C788.552 509.248 790.293 507.508 790.293 505.361C790.293 503.215 788.552 501.475 786.406 501.475C784.259 501.475 782.519 503.215 782.519 505.361C782.519 507.508 784.259 509.248 786.406 509.248Z" fill="#E7EEF1"/>
<path d="M930.215 618.077C932.361 618.077 934.102 616.337 934.102 614.19C934.102 612.043 932.361 610.303 930.215 610.303C928.068 610.303 926.328 612.043 926.328 614.19C926.328 616.337 928.068 618.077 930.215 618.077Z" fill="#E7EEF1"/>
<path d="M277.244 186.65C279.391 186.65 281.131 184.91 281.131 182.763C281.131 180.617 279.391 178.876 277.244 178.876C275.098 178.876 273.357 180.617 273.357 182.763C273.357 184.91 275.098 186.65 277.244 186.65Z" fill="#E7EEF1"/>
<path fill-rule="evenodd" clip-rule="evenodd" d="M1063.78 187.554C1060.11 186.332 1056.15 188.313 1054.93 191.979C1053.71 195.644 1055.69 199.606 1059.35 200.828C1063.02 202.05 1066.98 200.07 1068.2 196.404C1069.43 192.739 1067.45 188.777 1063.78 187.554ZM1053.46 191.487C1054.95 187.007 1059.79 184.586 1064.27 186.08C1068.75 187.573 1071.17 192.416 1069.68 196.896C1068.19 201.376 1063.34 203.797 1058.86 202.303C1054.38 200.81 1051.96 195.967 1053.46 191.487Z" fill="#E7EEF1"/>
<path fill-rule="evenodd" clip-rule="evenodd" d="M937.988 533.345C931.978 533.345 927.105 538.217 927.105 544.228C927.105 550.238 931.978 555.11 937.988 555.11C943.999 555.11 948.871 550.238 948.871 544.228C948.871 538.217 943.999 533.345 937.988 533.345ZM925.551 544.228C925.551 537.359 931.119 531.79 937.988 531.79C944.857 531.79 950.426 537.359 950.426 544.228C950.426 551.097 944.857 556.665 937.988 556.665C931.119 556.665 925.551 551.097 925.551 544.228Z" fill="#E7EEF1"/>
<path fill-rule="evenodd" clip-rule="evenodd" d="M265.584 206.86C261.72 206.86 258.587 209.992 258.587 213.856C258.587 217.72 261.72 220.852 265.584 220.852C269.447 220.852 272.58 217.72 272.58 213.856C272.58 209.992 269.447 206.86 265.584 206.86ZM257.033 213.856C257.033 209.134 260.861 205.305 265.584 205.305C270.306 205.305 274.134 209.134 274.134 213.856C274.134 218.578 270.306 222.407 265.584 222.407C260.861 222.407 257.033 218.578 257.033 213.856Z" fill="#E7EEF1"/>
<path fill-rule="evenodd" clip-rule="evenodd" d="M713.373 240.802C712.241 239.558 710.316 239.466 709.071 240.597L700.637 248.267C699.392 249.398 699.301 251.324 700.432 252.568L708.102 261.003C709.233 262.247 711.159 262.339 712.403 261.208L720.838 253.538C722.082 252.407 722.174 250.481 721.042 249.237L713.373 240.802ZM707.764 239.16C709.802 237.306 712.957 237.456 714.81 239.494L722.48 247.929C724.334 249.967 724.184 253.122 722.145 254.976L713.711 262.645C711.672 264.499 708.517 264.349 706.664 262.311L698.994 253.876C697.141 251.838 697.291 248.683 699.329 246.829L707.764 239.16Z" fill="#E7EEF1"/>
<path fill-rule="evenodd" clip-rule="evenodd" d="M37.0821 407.932C35.9508 406.687 34.025 406.596 32.7808 407.727L24.346 415.397C23.1018 416.528 23.0103 418.454 24.1417 419.698L31.8114 428.133C32.9427 429.377 34.8685 429.469 36.1127 428.337L44.5475 420.668C45.7917 419.536 45.8832 417.611 44.7518 416.366L37.0821 407.932ZM31.4734 406.289C33.5117 404.436 36.6665 404.586 38.52 406.624L46.1896 415.059C48.0431 417.097 47.8932 420.252 45.8549 422.106L37.4201 429.775C35.3818 431.629 32.2269 431.479 30.3735 429.441L22.7038 421.006C20.8504 418.967 21.0003 415.813 23.0386 413.959L31.4734 406.289Z" fill="#E7EEF1"/>
<path fill-rule="evenodd" clip-rule="evenodd" d="M188.665 617.815C187.533 616.571 185.608 616.48 184.363 617.611L175.929 625.281C174.684 626.412 174.593 628.338 175.724 629.582L183.394 638.017C184.525 639.261 186.451 639.353 187.695 638.221L196.13 630.552C197.374 629.42 197.466 627.494 196.334 626.25L188.665 617.815ZM183.056 616.173C185.094 614.32 188.249 614.47 190.102 616.508L197.772 624.943C199.626 626.981 199.476 630.136 197.437 631.989L189.003 639.659C186.964 641.513 183.809 641.363 181.956 639.324L174.286 630.89C172.433 628.851 172.583 625.696 174.621 623.843L183.056 616.173Z" fill="#E7EEF1"/>
<path d="M1027.07 200.503L1023.39 192.161C1022.67 190.538 1020.77 189.804 1019.15 190.521L1010.81 194.207C1009.18 194.925 1008.45 196.822 1009.17 198.445L1012.85 206.787C1013.57 208.411 1015.47 209.145 1017.09 208.428L1025.43 204.741C1027.06 204.024 1027.79 202.127 1027.07 200.503Z" fill="#E7EEF1"/>
<path d="M907.261 576.674L901.125 569.926C899.931 568.613 897.899 568.516 896.586 569.71L889.838 575.846C888.525 577.04 888.429 579.072 889.622 580.385L895.758 587.133C896.952 588.446 898.984 588.542 900.297 587.348L907.045 581.213C908.358 580.019 908.455 577.987 907.261 576.674Z" fill="#E7EEF1"/>
<path d="M285.384 257.962L279.249 251.214C278.055 249.901 276.023 249.805 274.71 250.999L267.962 257.134C266.649 258.328 266.552 260.361 267.746 261.674L273.882 268.421C275.076 269.734 277.108 269.831 278.421 268.637L285.169 262.501C286.482 261.307 286.578 259.275 285.384 257.962Z" fill="#E7EEF1"/>
<path d="M223.196 568.9L217.061 562.152C215.867 560.839 213.835 560.743 212.522 561.937L205.774 568.072C204.461 569.266 204.364 571.299 205.558 572.612L211.694 579.359C212.888 580.672 214.92 580.769 216.233 579.575L222.981 573.439C224.294 572.245 224.39 570.213 223.196 568.9Z" fill="#E7EEF1"/>
<path opacity="0.5" d="M67.3608 700.13C67.3608 693.451 72.7746 688.038 79.4529 688.038H203.396C210.075 688.038 215.488 693.451 215.488 700.13V781.751C215.488 788.429 210.075 793.843 203.396 793.843H79.4529C72.7746 793.843 67.3608 788.429 67.3608 781.751V700.13Z" fill="#87DDE8"/>
<path opacity="0.5" d="M51.814 688.469C51.814 681.791 57.2278 676.377 63.906 676.377H193.896C200.574 676.377 205.988 681.791 205.988 688.469V773.114C205.988 779.792 200.574 785.206 193.896 785.206H63.906C57.2277 785.206 51.814 779.792 51.814 773.114V688.469Z" fill="#C3EEF4"/>
<path opacity="0.5" d="M250.037 631.664C250.037 626.306 254.38 621.963 259.737 621.963H359.164C364.522 621.963 368.865 626.306 368.865 631.664V697.14C368.865 702.497 364.522 706.84 359.164 706.84H259.737C254.38 706.84 250.037 702.497 250.037 697.14V631.664Z" fill="#87DDE8"/>
<path opacity="0.5" d="M238.377 620.003C238.377 614.646 242.72 610.303 248.077 610.303H352.354C357.712 610.303 362.055 614.646 362.055 620.003V687.905C362.055 693.262 357.712 697.605 352.354 697.605H248.077C242.72 697.605 238.377 693.262 238.377 687.905V620.003Z" fill="#C3EEF4"/>
<path opacity="0.5" fill-rule="evenodd" clip-rule="evenodd" d="M320.831 676.053L326.756 681.963L326.749 682.008C326.889 682.149 327.001 682.316 327.077 682.499C327.153 682.683 327.192 682.879 327.192 683.078C327.192 683.276 327.153 683.473 327.077 683.657C327.001 683.84 326.889 684.007 326.749 684.147C326.608 684.288 326.442 684.399 326.258 684.475C326.075 684.551 325.878 684.59 325.68 684.59C325.481 684.59 325.284 684.551 325.101 684.475C324.917 684.399 324.751 684.288 324.61 684.147L318.564 678.101C314.854 680.921 310.198 682.199 305.569 681.668C300.939 681.137 296.693 678.838 293.719 675.251C290.744 671.664 289.27 667.066 289.605 662.418C289.94 657.77 292.057 653.431 295.515 650.307C298.973 647.183 303.505 645.516 308.163 645.654C312.821 645.792 317.245 647.724 320.513 651.047C323.78 654.37 325.637 658.826 325.697 663.486C325.756 668.146 324.013 672.648 320.831 676.053ZM295.029 655.462C293.379 657.939 292.501 660.849 292.506 663.825V663.795C292.507 665.773 292.898 667.732 293.656 669.56C294.414 671.388 295.525 673.048 296.925 674.446C298.326 675.844 299.987 676.952 301.816 677.708C303.645 678.464 305.604 678.851 307.583 678.849C310.559 678.843 313.466 677.955 315.937 676.297C318.408 674.639 320.332 672.286 321.465 669.534C322.599 666.783 322.891 663.757 322.305 660.84C321.719 657.923 320.282 655.244 318.174 653.144C316.066 651.043 313.383 649.615 310.463 649.04C307.544 648.464 304.519 648.767 301.772 649.91C299.025 651.053 296.678 652.986 295.029 655.462ZM316.807 657.336C317.037 657.566 317.166 657.877 317.166 658.202C317.166 659.254 316.82 660.277 316.181 661.113C315.541 661.949 314.645 662.551 313.629 662.827V663.379H315.964C316.289 663.379 316.6 663.508 316.83 663.737C317.06 663.967 317.189 664.278 317.189 664.603C317.189 664.928 317.06 665.239 316.83 665.469C316.6 665.698 316.289 665.827 315.964 665.827H313.629V666.152C313.618 666.431 313.588 666.709 313.538 666.984C314.566 667.248 315.478 667.847 316.129 668.685C316.78 669.524 317.134 670.555 317.136 671.616C317.136 671.941 317.007 672.253 316.777 672.482C316.548 672.712 316.236 672.841 315.911 672.841C315.587 672.841 315.275 672.712 315.046 672.482C314.816 672.253 314.687 671.941 314.687 671.616C314.676 671.053 314.461 670.512 314.081 670.095C313.702 669.678 313.184 669.413 312.624 669.349C312.101 670.14 311.391 670.79 310.556 671.239C309.721 671.689 308.788 671.925 307.84 671.926H307.205C306.257 671.925 305.324 671.689 304.489 671.239C303.654 670.79 302.944 670.14 302.421 669.349C301.861 669.413 301.343 669.678 300.964 670.095C300.584 670.512 300.369 671.053 300.358 671.616C300.358 671.941 300.229 672.253 299.999 672.482C299.77 672.712 299.458 672.841 299.134 672.841C298.809 672.841 298.498 672.712 298.268 672.482C298.038 672.253 297.909 671.941 297.909 671.616C297.913 670.551 298.271 669.517 298.928 668.678C299.585 667.839 300.503 667.243 301.537 666.984C301.518 666.707 301.518 666.429 301.537 666.152V665.827H299.164C298.839 665.827 298.528 665.698 298.298 665.469C298.069 665.239 297.94 664.928 297.94 664.603C297.94 664.278 298.069 663.967 298.298 663.737C298.528 663.508 298.839 663.379 299.164 663.379H301.537V662.827C300.521 662.551 299.625 661.949 298.985 661.113C298.346 660.277 298 659.254 298 658.202C298 657.877 298.129 657.566 298.359 657.336C298.588 657.106 298.9 656.977 299.224 656.977C299.549 656.977 299.86 657.106 300.09 657.336C300.32 657.566 300.449 657.877 300.449 658.202C300.443 658.714 300.607 659.214 300.914 659.624C301.222 660.034 301.656 660.331 302.149 660.469C302.316 660.368 302.506 660.308 302.701 660.295V660.023C302.703 659.283 302.929 658.561 303.35 657.953C303.771 657.344 304.367 656.878 305.059 656.615L304.303 655.383C304.176 655.164 304.14 654.904 304.204 654.659C304.268 654.414 304.426 654.205 304.643 654.075C304.861 653.949 305.12 653.913 305.363 653.977C305.607 654.041 305.815 654.198 305.943 654.415L307.092 656.365H308.074L309.223 654.415C309.285 654.305 309.368 654.208 309.469 654.13C309.569 654.052 309.683 653.995 309.806 653.962C309.928 653.929 310.056 653.92 310.182 653.937C310.307 653.954 310.428 653.996 310.537 654.061C310.647 654.125 310.742 654.211 310.818 654.313C310.893 654.414 310.948 654.53 310.978 654.653C311.009 654.777 311.014 654.904 310.994 655.03C310.974 655.155 310.93 655.275 310.863 655.383L310.107 656.615C310.799 656.878 311.395 657.344 311.815 657.953C312.236 658.561 312.463 659.283 312.465 660.023V660.295C312.663 660.309 312.854 660.369 313.024 660.469C313.516 660.33 313.949 660.032 314.255 659.622C314.561 659.212 314.723 658.713 314.717 658.202C314.717 657.877 314.846 657.566 315.076 657.336C315.305 657.106 315.617 656.977 315.942 656.977C316.266 656.977 316.578 657.106 316.807 657.336Z" fill="white"/>
<g opacity="0.5">
<path fill-rule="evenodd" clip-rule="evenodd" d="M159.9 733.115C159.904 733.078 159.904 733.04 159.9 733.003C159.876 732.862 159.838 732.723 159.788 732.588C159.729 732.465 159.657 732.349 159.572 732.243V732.2L150.494 721.585C150.391 721.465 150.272 721.361 150.14 721.274H150.08C149.96 721.206 149.833 721.154 149.7 721.118C149.668 721.114 149.636 721.114 149.605 721.118C149.478 721.083 149.347 721.066 149.216 721.066H127.39C126.105 721.066 124.872 721.577 123.964 722.486C123.055 723.394 122.544 724.627 122.544 725.912V759.165C122.569 760.434 123.09 761.643 123.996 762.533C124.902 763.423 126.12 763.922 127.39 763.924H155.115C156.4 763.922 157.631 763.411 158.539 762.502C159.447 761.594 159.958 760.363 159.961 759.079V733.271C159.945 733.217 159.925 733.165 159.9 733.115ZM151.634 731.388C151.482 731.386 151.336 731.324 151.228 731.216C151.12 731.108 151.058 730.962 151.056 730.809L150.995 727.484L154.372 731.448L151.634 731.388ZM156.463 759.027C156.463 759.396 156.316 759.749 156.055 760.01C155.795 760.271 155.441 760.417 155.072 760.417H127.39C127.021 760.417 126.667 760.271 126.407 760.01C126.146 759.749 125.999 759.396 125.999 759.027V725.825C125.999 725.457 126.146 725.103 126.407 724.842C126.667 724.581 127.021 724.435 127.39 724.435H147.48L147.601 730.896C147.621 731.941 148.046 732.939 148.788 733.677C149.529 734.415 150.528 734.836 151.574 734.851L156.48 734.964L156.463 759.027ZM136.2 743.429V741.148C136.2 740.993 136.735 740.509 137.72 740.509C138.064 740.509 138.393 740.373 138.636 740.13C138.879 739.887 139.016 739.557 139.016 739.214C139.016 738.87 138.879 738.541 138.636 738.298C138.393 738.055 138.064 737.918 137.72 737.918C135.414 737.918 133.609 739.335 133.609 741.148V743.429C133.609 743.593 133.065 744.068 132.089 744.068C131.745 744.068 131.415 744.204 131.172 744.447C130.93 744.69 130.793 745.02 130.793 745.363C130.793 745.707 130.93 746.036 131.172 746.279C131.415 746.522 131.745 746.659 132.089 746.659C133.065 746.659 133.609 747.134 133.609 747.289V749.578C133.609 751.383 135.414 752.817 137.755 752.817C138.098 752.817 138.428 752.681 138.671 752.438C138.914 752.195 139.05 751.865 139.05 751.522C139.05 751.178 138.914 750.848 138.671 750.606C138.428 750.363 138.098 750.226 137.755 750.226C136.77 750.226 136.234 749.751 136.234 749.596V747.289C136.22 746.567 135.93 745.878 135.423 745.363C135.919 744.841 136.197 744.149 136.2 743.429ZM148.81 743.429C148.81 743.593 149.354 744.068 150.33 744.068C150.674 744.068 151.004 744.204 151.247 744.447C151.489 744.69 151.626 745.02 151.626 745.363C151.626 745.707 151.489 746.036 151.247 746.279C151.004 746.522 150.674 746.659 150.33 746.659C149.354 746.659 148.81 747.134 148.81 747.289V749.578C148.81 751.383 147.005 752.8 144.699 752.8C144.355 752.8 144.026 752.663 143.783 752.42C143.54 752.177 143.403 751.848 143.403 751.504C143.403 751.161 143.54 750.831 143.783 750.588C144.026 750.345 144.355 750.209 144.699 750.209C145.684 750.209 146.219 749.734 146.219 749.578V747.289C146.233 746.567 146.524 745.878 147.031 745.363C146.522 744.847 146.231 744.154 146.219 743.429V741.148C146.219 740.993 145.684 740.509 144.699 740.509C144.355 740.509 144.026 740.373 143.783 740.13C143.54 739.887 143.403 739.557 143.403 739.214C143.403 738.87 143.54 738.541 143.783 738.298C144.026 738.055 144.355 737.918 144.699 737.918C147.005 737.918 148.81 739.335 148.81 741.148V743.429Z" fill="white"/>
</g>
<path opacity="0.3" d="M9.98242 178.748C9.98242 172.344 15.174 167.152 21.5782 167.152H201.313C207.717 167.152 212.909 172.344 212.909 178.748V297.605C212.909 304.009 207.717 309.201 201.313 309.201H21.5782C15.174 309.201 9.98242 304.009 9.98242 297.605V178.748Z" fill="#C3EEF4"/>
<path opacity="0.3" d="M21.5791 193.243C21.5791 186.839 26.7707 181.647 33.1749 181.647H212.91C219.314 181.647 224.505 186.839 224.505 193.243V312.1C224.505 318.504 219.314 323.696 212.91 323.696H33.1749C26.7707 323.696 21.5791 318.504 21.5791 312.1V193.243Z" fill="#C3EEF4"/>
<path d="M1.28613 167.151C1.28613 160.747 6.47774 155.556 12.8819 155.556H192.617C199.021 155.556 204.212 160.747 204.212 167.151V286.008C204.212 292.412 199.021 297.604 192.617 297.604H12.8819C6.47774 297.604 1.28613 292.412 1.28613 286.008V167.151Z" fill="#F8FBFB"/>
<path d="M1.28613 167.151C1.28613 160.747 6.47774 155.556 12.8819 155.556H192.617C199.021 155.556 204.212 160.747 204.212 167.151V187.444H1.28613V167.151Z" fill="#202C44"/>
<path d="M27.3765 171.501C27.3765 173.902 25.4297 175.849 23.0281 175.849C20.6265 175.849 18.6797 173.902 18.6797 171.501C18.6797 169.099 20.6265 167.152 23.0281 167.152C25.4297 167.152 27.3765 169.099 27.3765 171.501Z" fill="#FF5A60"/>
<path d="M38.9727 171.501C38.9727 173.902 37.0259 175.849 34.6243 175.849C32.2227 175.849 30.2759 173.902 30.2759 171.501C30.2759 169.099 32.2227 167.152 34.6243 167.152C37.0259 167.152 38.9727 169.099 38.9727 171.501Z" fill="#F9B42F"/>
<path d="M50.5684 171.501C50.5684 173.902 48.6216 175.849 46.22 175.849C43.8184 175.849 41.8716 173.902 41.8716 171.501C41.8716 169.099 43.8184 167.152 46.22 167.152C48.6216 167.152 50.5684 169.099 50.5684 171.501Z" fill="#4DCB7B"/>
<path d="M190.538 204.769H133.495C131.566 204.769 130.002 206.333 130.002 208.261V271.125C130.002 273.054 131.566 274.617 133.495 274.617H190.538C192.467 274.617 194.03 273.054 194.03 271.125V208.261C194.03 206.333 192.467 204.769 190.538 204.769Z" fill="white"/>
<path fill-rule="evenodd" clip-rule="evenodd" d="M136.551 216.41C136.551 215.205 137.528 214.228 138.734 214.228H183.844C185.049 214.228 186.027 215.205 186.027 216.41C186.027 217.616 185.049 218.593 183.844 218.593H138.734C137.528 218.593 136.551 217.616 136.551 216.41Z" fill="#D2DFE6"/>
<path fill-rule="evenodd" clip-rule="evenodd" d="M136.551 225.142C136.551 223.937 137.528 222.959 138.734 222.959H183.844C185.049 222.959 186.027 223.937 186.027 225.142C186.027 226.348 185.049 227.325 183.844 227.325H138.734C137.528 227.325 136.551 226.348 136.551 225.142Z" fill="#D2DFE6"/>
<path fill-rule="evenodd" clip-rule="evenodd" d="M136.551 233.873C136.551 232.667 137.528 231.69 138.734 231.69H183.844C185.049 231.69 186.027 232.667 186.027 233.873C186.027 235.078 185.049 236.055 183.844 236.055H138.734C137.528 236.055 136.551 235.078 136.551 233.873Z" fill="#D2DFE6"/>
<path fill-rule="evenodd" clip-rule="evenodd" d="M136.551 254.246C136.551 253.04 137.528 252.063 138.734 252.063H183.844C185.049 252.063 186.027 253.04 186.027 254.246C186.027 255.451 185.049 256.429 183.844 256.429H138.734C137.528 256.429 136.551 255.451 136.551 254.246Z" fill="#D2DFE6"/>
<path fill-rule="evenodd" clip-rule="evenodd" d="M136.551 262.978C136.551 261.772 137.528 260.795 138.734 260.795H183.844C185.049 260.795 186.027 261.772 186.027 262.978C186.027 264.183 185.049 265.16 183.844 265.16H138.734C137.528 265.16 136.551 264.183 136.551 262.978Z" fill="#D2DFE6"/>
<path fill-rule="evenodd" clip-rule="evenodd" d="M136.551 242.604C136.551 241.399 137.528 240.421 138.734 240.421H164.927C166.132 240.421 167.109 241.399 167.109 242.604C167.109 243.81 166.132 244.787 164.927 244.787H138.734C137.528 244.787 136.551 243.81 136.551 242.604Z" fill="#D2DFE6"/>
<path d="M119.234 204.77H17.0808C15.152 204.77 13.5884 206.333 13.5884 208.262V272.48C13.5884 274.408 15.152 275.972 17.0808 275.972H119.234C121.163 275.972 122.727 274.408 122.727 272.48V208.262C122.727 206.333 121.163 204.77 119.234 204.77Z" fill="#E7EEF1"/>
<path fill-rule="evenodd" clip-rule="evenodd" d="M20.1367 228.052C20.1367 226.847 21.114 225.87 22.3195 225.87H28.1402C29.3457 225.87 30.3229 226.847 30.3229 228.052C30.3229 229.258 29.3457 230.235 28.1402 230.235H22.3195C21.114 230.235 20.1367 229.258 20.1367 228.052Z" fill="#FF7B80"/>
<path fill-rule="evenodd" clip-rule="evenodd" d="M31.7778 228.052C31.7778 226.847 32.7551 225.87 33.9606 225.87H63.0641C64.2696 225.87 65.2469 226.847 65.2469 228.052C65.2469 229.258 64.2696 230.235 63.0641 230.235H33.9606C32.7551 230.235 31.7778 229.258 31.7778 228.052Z" fill="#FF7B80"/>
<path fill-rule="evenodd" clip-rule="evenodd" d="M20.1367 251.335C20.1367 250.13 21.114 249.152 22.3195 249.152H28.1402C29.3457 249.152 30.3229 250.13 30.3229 251.335C30.3229 252.541 29.3457 253.518 28.1402 253.518H22.3195C21.114 253.518 20.1367 252.541 20.1367 251.335Z" fill="#BED42B"/>
<path fill-rule="evenodd" clip-rule="evenodd" d="M31.7778 251.335C31.7778 250.13 32.7551 249.152 33.9606 249.152H63.0641C64.2696 249.152 65.2469 250.13 65.2469 251.335C65.2469 252.541 64.2696 253.518 63.0641 253.518H33.9606C32.7551 253.518 31.7778 252.541 31.7778 251.335Z" fill="#BED42B"/>
<path fill-rule="evenodd" clip-rule="evenodd" d="M20.1367 262.976C20.1367 261.771 21.114 260.793 22.3195 260.793H28.1402C29.3457 260.793 30.3229 261.771 30.3229 262.976C30.3229 264.182 29.3457 265.159 28.1402 265.159H22.3195C21.114 265.159 20.1367 264.182 20.1367 262.976Z" fill="#607B99"/>
<path fill-rule="evenodd" clip-rule="evenodd" d="M31.7778 262.976C31.7778 261.771 32.7551 260.793 33.9606 260.793H89.2573C90.4628 260.793 91.44 261.771 91.44 262.976C91.44 264.182 90.4628 265.159 89.2573 265.159H33.9606C32.7551 265.159 31.7778 264.182 31.7778 262.976Z" fill="#607B99"/>
<path fill-rule="evenodd" clip-rule="evenodd" d="M20.1367 239.694C20.1367 238.488 21.114 237.511 22.3195 237.511H33.9609C35.1664 237.511 36.1436 238.488 36.1436 239.694C36.1436 240.899 35.1664 241.876 33.9609 241.876H22.3195C21.114 241.876 20.1367 240.899 20.1367 239.694Z" fill="#B97CE8"/>
<path fill-rule="evenodd" clip-rule="evenodd" d="M40.5088 239.694C40.5088 238.488 41.486 237.511 42.6916 237.511H68.8847C70.0902 237.511 71.0675 238.488 71.0675 239.694C71.0675 240.899 70.0902 241.876 68.8847 241.876H42.6916C41.486 241.876 40.5088 240.899 40.5088 239.694Z" fill="#B97CE8"/>
<path d="M23.2978 218.186C23.3673 218.243 23.4215 218.317 23.4556 218.4C23.4897 218.484 23.5026 218.575 23.4932 218.664C23.5009 218.755 23.4873 218.847 23.4534 218.932C23.4195 219.016 23.3662 219.092 23.2978 219.153C23.1764 219.26 23.02 219.319 22.8581 219.319H22.0375C21.8444 219.335 21.65 219.309 21.4679 219.243C21.2859 219.176 21.1203 219.071 20.9829 218.935C20.8454 218.798 20.7392 218.633 20.6716 218.452C20.604 218.27 20.5767 218.076 20.5916 217.883V216.407C20.6058 216.214 20.5651 216.021 20.4743 215.851C20.4197 215.79 20.3535 215.742 20.2795 215.708C20.2056 215.675 20.1256 215.657 20.0444 215.655C19.9555 215.657 19.8673 215.64 19.785 215.607C19.7027 215.573 19.628 215.523 19.5657 215.46C19.4594 215.323 19.4041 215.154 19.4094 214.981C19.4018 214.814 19.4576 214.65 19.5657 214.522C19.6931 214.395 19.8645 214.321 20.0444 214.317C20.1256 214.315 20.2056 214.297 20.2795 214.263C20.3535 214.23 20.4197 214.181 20.4743 214.121C20.5678 213.951 20.6086 213.758 20.5916 213.564V212.05C20.5817 211.857 20.6113 211.664 20.6785 211.482C20.7457 211.301 20.8491 211.135 20.9823 210.995C21.2711 210.737 21.6505 210.603 22.0375 210.624H22.8581C23.0189 210.62 23.1754 210.676 23.2978 210.78C23.4221 210.912 23.4914 211.087 23.4914 211.268C23.4914 211.45 23.4221 211.625 23.2978 211.757C23.1729 211.857 23.0181 211.912 22.8581 211.913H22.7018C22.5967 211.907 22.4928 211.938 22.4087 212.001C22.3713 212.047 22.3434 212.1 22.3266 212.158C22.3099 212.215 22.3045 212.274 22.311 212.333V213.779C22.3163 214.066 22.2232 214.345 22.0473 214.571C21.9019 214.774 21.6918 214.922 21.4513 214.991C21.6928 215.051 21.9044 215.197 22.0473 215.401C22.2232 215.627 22.3163 215.906 22.311 216.192V217.629C22.3045 217.688 22.3099 217.748 22.3266 217.805C22.3434 217.862 22.3713 217.915 22.4087 217.961C22.4928 218.024 22.5967 218.055 22.7018 218.049H22.8581C23.0163 218.04 23.1722 218.089 23.2978 218.186Z" fill="#B9CBD3"/>
<path d="M30.7522 216.828C30.7524 216.93 30.7317 217.032 30.6914 217.126C30.6511 217.22 30.5919 217.305 30.5177 217.375C30.4454 217.453 30.3578 217.516 30.2603 217.558C30.1628 217.601 30.0575 217.623 29.9511 217.623C29.8446 217.623 29.7393 217.601 29.6418 217.558C29.5443 217.516 29.4567 217.453 29.3844 217.375L28.2218 216.173L27.0787 217.385C27.0065 217.463 26.9188 217.525 26.8213 217.568C26.7238 217.611 26.6185 217.633 26.5121 217.633C26.4056 217.633 26.3003 217.611 26.2028 217.568C26.1053 217.525 26.0177 217.463 25.9454 217.385C25.8712 217.315 25.8121 217.23 25.7718 217.136C25.7314 217.042 25.7107 216.94 25.7109 216.838C25.716 216.627 25.8037 216.427 25.9552 216.281L27.1862 215.06L26.0529 213.956C25.9 213.806 25.8122 213.603 25.8086 213.389C25.8085 213.287 25.8291 213.185 25.8695 213.091C25.9098 212.997 25.9689 212.912 26.0431 212.842C26.1111 212.764 26.1953 212.702 26.2898 212.66C26.3842 212.617 26.4868 212.596 26.5902 212.598C26.7015 212.598 26.8112 212.624 26.9111 212.673C27.011 212.722 27.0984 212.793 27.1666 212.881L28.2218 213.956L29.2867 212.881C29.3608 212.798 29.4509 212.731 29.5517 212.684C29.6525 212.637 29.7618 212.611 29.8729 212.607C30.077 212.612 30.2715 212.695 30.4168 212.838C30.5621 212.982 30.6471 213.175 30.6545 213.379C30.6522 213.487 30.6286 213.594 30.585 213.693C30.5414 213.792 30.4787 213.881 30.4005 213.956L29.2769 215.06L30.5079 216.281C30.6571 216.425 30.7446 216.621 30.7522 216.828Z" fill="#B9CBD3"/>
<path d="M36.0959 214.452C36.153 214.514 36.1971 214.586 36.2256 214.665C36.2542 214.744 36.2665 214.828 36.262 214.912C36.2671 215.086 36.208 215.257 36.0959 215.39C36.0347 215.453 35.9617 215.502 35.8812 215.535C35.8006 215.569 35.7142 215.586 35.627 215.586C35.5443 215.587 35.4628 215.605 35.3873 215.639C35.3117 215.672 35.2437 215.721 35.1873 215.781C35.0965 215.952 35.0559 216.145 35.0701 216.338V217.843C35.0882 218.036 35.0634 218.23 34.9977 218.413C34.9319 218.595 34.8267 218.761 34.6895 218.898C34.5524 219.035 34.3867 219.141 34.2042 219.206C34.0218 219.272 33.827 219.297 33.6339 219.279H32.823C32.6549 219.281 32.4917 219.222 32.3638 219.113C32.2984 219.05 32.2477 218.974 32.2156 218.89C32.1835 218.805 32.1707 218.714 32.1782 218.624C32.17 218.536 32.1826 218.446 32.2148 218.363C32.247 218.28 32.298 218.206 32.3638 218.145C32.4917 218.036 32.6549 217.977 32.823 217.979H32.9696C33.0746 217.986 33.1786 217.955 33.2626 217.891C33.3001 217.845 33.328 217.792 33.3448 217.735C33.3616 217.678 33.3668 217.618 33.3603 217.559V216.123C33.3561 215.839 33.4453 215.561 33.6144 215.332C33.7572 215.128 33.9688 214.982 34.2103 214.921C33.9698 214.853 33.7597 214.705 33.6144 214.501C33.4453 214.272 33.3561 213.994 33.3603 213.71V212.303C33.3668 212.244 33.3616 212.184 33.3448 212.127C33.328 212.07 33.3001 212.017 33.2626 211.971C33.1786 211.907 33.0746 211.876 32.9696 211.883H32.823C32.6568 211.884 32.4951 211.829 32.3638 211.727C32.2437 211.592 32.1773 211.418 32.1773 211.238C32.1773 211.058 32.2437 210.884 32.3638 210.75C32.4931 210.644 32.6561 210.589 32.823 210.593H33.6339C34.0209 210.573 34.4003 210.706 34.6891 210.965C34.8206 211.106 34.9222 211.272 34.9877 211.453C35.0532 211.635 35.0812 211.827 35.0701 212.02V213.534C35.053 213.727 35.0938 213.921 35.1873 214.091C35.2437 214.151 35.3117 214.2 35.3873 214.233C35.4628 214.267 35.5443 214.285 35.627 214.286C35.7983 214.283 35.9651 214.342 36.0959 214.452Z" fill="#B9CBD3"/>
<path d="M623.824 201.099V328.506C623.85 344.198 620.778 359.741 614.784 374.243C608.791 388.746 599.994 401.923 588.898 413.019C577.802 424.115 564.625 432.912 550.123 438.905C535.62 444.899 520.077 447.971 504.385 447.945H498.05C489.462 447.958 480.9 447.033 472.514 445.185C445.918 439.358 422.111 424.621 405.034 403.416C387.957 382.211 378.635 355.81 378.61 328.584V201.099C378.61 169.422 391.194 139.042 413.593 116.643C424.684 105.552 437.851 96.7538 452.342 90.7514C466.833 84.7491 482.365 81.6597 498.05 81.6597H504.385C536.062 81.6597 566.442 94.2434 588.841 116.643C611.24 139.042 623.824 169.422 623.824 201.099Z" fill="#FDC2BF"/>
<path d="M378.61 255.69V310.337C373.73 310.256 369.079 308.257 365.66 304.773C362.242 301.29 360.332 296.601 360.343 291.72V274.307C360.342 269.43 362.255 264.747 365.672 261.265C369.088 257.783 373.734 255.782 378.61 255.69Z" fill="#FDC2BF"/>
<path d="M642.092 274.307V291.72C642.103 296.601 640.193 301.29 636.774 304.773C633.356 308.257 628.704 310.256 623.824 310.337V255.69C628.701 255.782 633.347 257.783 636.763 261.265C640.179 264.747 642.093 269.43 642.092 274.307Z" fill="#FDC2BF"/>
<path d="M504.385 425.985H498.05C489.463 425.998 480.9 425.072 472.514 423.225V497.073C472.509 500.455 473.171 503.805 474.462 506.931C475.752 510.058 477.647 512.899 480.037 515.292C482.426 517.685 485.265 519.584 488.389 520.88C491.513 522.175 494.862 522.842 498.244 522.842H504.191C507.573 522.842 510.922 522.175 514.047 520.88C517.171 519.584 520.009 517.685 522.399 515.292C524.789 512.899 526.683 510.058 527.974 506.931C529.265 503.805 529.926 500.455 529.921 497.073V423.225C521.532 425.055 512.971 425.98 504.385 425.985Z" fill="#FDC2BF"/>
<path d="M472.592 472.199V493.498C472.592 493.498 478.772 482.965 501.276 482.848C523.78 482.732 529.999 494.508 529.999 494.508V468.934L472.592 467.884V472.199Z" fill="#F4B1AF"/>
<path d="M619.277 325.086C618.575 338.564 612.683 351.248 602.836 360.479C592.989 369.71 579.952 374.771 566.456 374.602H564.046C560.905 374.549 557.811 373.829 554.97 372.488C552.129 371.148 549.605 369.219 547.566 366.829C541.708 360.012 534.462 354.523 526.313 350.731C518.163 346.938 509.298 344.929 500.31 344.837C491.322 344.745 482.418 346.572 474.192 350.197C465.967 353.822 458.61 359.161 452.614 365.857C450.522 368.204 447.951 370.074 445.074 371.341C442.198 372.608 439.083 373.243 435.94 373.203C422.762 373.075 410.118 367.975 400.54 358.923C390.962 349.871 385.156 337.536 384.285 324.386L378.61 230.793V376.934C378.61 432.437 407.877 477.484 479.16 477.484H523.274C598.211 477.484 623.824 432.437 623.824 376.934V230.793L619.277 325.086Z" fill="#2C2A46"/>
<path d="M655.035 115.046C655.035 87.8384 626.273 65.8784 590.826 65.8784C585.686 65.8889 580.559 66.3834 575.512 67.3554C573.491 67.161 571.625 67.0444 569.371 67.0444C562.414 67.0386 555.504 68.1946 548.927 70.4648C540.921 73.538 532.261 74.5051 523.775 73.2733C515.289 72.0415 507.261 68.6522 500.459 63.4298C491.591 56.2357 480.57 52.2164 469.152 52.0121C457.734 51.8078 446.576 55.4304 437.456 62.3026C433.958 65.0247 429.6 66.4035 425.173 66.1894C421.287 65.9562 416.778 65.8007 415.262 65.8007C387.511 65.8007 383.158 117.689 366.367 117.261C337.295 116.523 325.557 152.008 325.557 181.509C325.557 214.74 346.04 242.763 379.971 242.763C405.157 242.763 396.295 223.33 405.779 201.992L406.595 200.709C416.973 184.035 434.074 173.152 451.914 181.275C451.914 181.275 573.025 250.265 616.439 242.763C651.42 236.7 663.08 195.307 646.562 170.587C640.926 162.23 643.608 144.74 648.894 136.15C652.903 129.841 655.033 122.521 655.035 115.046Z" fill="#2C2A46"/>
<path opacity="0.3" d="M766.973 256.61C766.973 248.024 773.933 241.063 782.52 241.063H1023.5C1032.08 241.063 1039.04 248.024 1039.04 256.61V415.966C1039.04 424.553 1032.08 431.513 1023.5 431.513H782.52C773.933 431.513 766.973 424.553 766.973 415.966V256.61Z" fill="#C3EEF4"/>
<path opacity="0.3" d="M782.519 276.044C782.519 267.458 789.48 260.497 798.066 260.497H1039.04C1047.63 260.497 1054.59 267.458 1054.59 276.044V435.4C1054.59 443.986 1047.63 450.947 1039.04 450.947H798.066C789.48 450.947 782.519 443.986 782.519 435.4V276.044Z" fill="#C3EEF4"/>
<path d="M755.312 241.063C755.312 232.477 762.273 225.516 770.859 225.516H1011.84C1020.42 225.516 1027.38 232.477 1027.38 241.063V400.419C1027.38 409.005 1020.42 415.966 1011.84 415.966H770.859C762.273 415.966 755.312 409.005 755.312 400.419V241.063Z" fill="#F8FBFB"/>
<path d="M755.312 241.063C755.312 232.477 762.273 225.516 770.859 225.516H1011.84C1020.42 225.516 1027.38 232.477 1027.38 241.063V268.27H755.312V241.063Z" fill="#202C44"/>
<path d="M790.293 246.894C790.293 250.113 787.683 252.724 784.463 252.724C781.243 252.724 778.633 250.113 778.633 246.894C778.633 243.674 781.243 241.063 784.463 241.063C787.683 241.063 790.293 243.674 790.293 246.894Z" fill="#FF5A60"/>
<path d="M805.839 246.894C805.839 250.113 803.229 252.724 800.009 252.724C796.789 252.724 794.179 250.113 794.179 246.894C794.179 243.674 796.789 241.063 800.009 241.063C803.229 241.063 805.839 243.674 805.839 246.894Z" fill="#F9B42F"/>
<path d="M821.387 246.894C821.387 250.113 818.777 252.724 815.557 252.724C812.337 252.724 809.727 250.113 809.727 246.894C809.727 243.674 812.337 241.063 815.557 241.063C818.777 241.063 821.387 243.674 821.387 246.894Z" fill="#4DCB7B"/>
<path d="M1007.17 291.59H930.992C928.416 291.59 926.328 293.678 926.328 296.254V380.207C926.328 382.783 928.416 384.871 930.992 384.871H1007.17C1009.75 384.871 1011.84 382.783 1011.84 380.207V296.254C1011.84 293.678 1009.75 291.59 1007.17 291.59Z" fill="white"/>
<path fill-rule="evenodd" clip-rule="evenodd" d="M935.074 307.138C935.074 305.528 936.379 304.223 937.989 304.223H1000.18C1001.79 304.223 1003.09 305.528 1003.09 307.138C1003.09 308.748 1001.79 310.053 1000.18 310.053H937.989C936.379 310.053 935.074 308.748 935.074 307.138Z" fill="#D2DFE6"/>
<path fill-rule="evenodd" clip-rule="evenodd" d="M935.074 318.798C935.074 317.188 936.379 315.883 937.989 315.883H1000.18C1001.79 315.883 1003.09 317.188 1003.09 318.798C1003.09 320.408 1001.79 321.713 1000.18 321.713H937.989C936.379 321.713 935.074 320.408 935.074 318.798Z" fill="#D2DFE6"/>
<path fill-rule="evenodd" clip-rule="evenodd" d="M935.074 330.459C935.074 328.849 936.379 327.543 937.989 327.543H1000.18C1001.79 327.543 1003.09 328.849 1003.09 330.459C1003.09 332.068 1001.79 333.374 1000.18 333.374H937.989C936.379 333.374 935.074 332.068 935.074 330.459Z" fill="#D2DFE6"/>
<path fill-rule="evenodd" clip-rule="evenodd" d="M977.828 349.893C977.828 348.283 979.133 346.978 980.743 346.978H1000.18C1001.79 346.978 1003.09 348.283 1003.09 349.893C1003.09 351.503 1001.79 352.808 1000.18 352.808H980.743C979.133 352.808 977.828 351.503 977.828 349.893Z" fill="#D2DFE6"/>
<path fill-rule="evenodd" clip-rule="evenodd" d="M977.828 361.553C977.828 359.943 979.133 358.638 980.743 358.638H996.29C997.9 358.638 999.205 359.943 999.205 361.553C999.205 363.163 997.9 364.468 996.29 364.468H980.743C979.133 364.468 977.828 363.163 977.828 361.553Z" fill="#D2DFE6"/>
<path fill-rule="evenodd" clip-rule="evenodd" d="M977.828 373.213C977.828 371.603 979.133 370.298 980.743 370.298H988.516C990.126 370.298 991.431 371.603 991.431 373.213C991.431 374.823 990.126 376.128 988.516 376.128H980.743C979.133 376.128 977.828 374.823 977.828 373.213Z" fill="#D2DFE6"/>
<path d="M969.778 375.274H941.18C940.865 375.274 940.563 375.149 940.341 374.926C940.118 374.703 939.993 374.401 939.993 374.086V345.132C939.993 344.817 940.118 344.515 940.341 344.293C940.563 344.07 940.865 343.945 941.18 343.945C941.495 343.945 941.797 344.07 942.02 344.293C942.243 344.515 942.368 344.817 942.368 345.132V372.899H969.778C970.093 372.899 970.395 373.024 970.618 373.247C970.84 373.469 970.966 373.771 970.966 374.086C970.966 374.401 970.84 374.703 970.618 374.926C970.395 375.149 970.093 375.274 969.778 375.274Z" fill="#B9CBD3"/>
<path d="M946.388 370.684C945.994 370.684 945.617 370.527 945.338 370.249C945.06 369.97 944.903 369.593 944.903 369.199V358.125C944.903 357.731 945.06 357.353 945.338 357.075C945.617 356.797 945.994 356.64 946.388 356.64C946.782 356.64 947.159 356.797 947.438 357.075C947.716 357.353 947.872 357.731 947.872 358.125V369.199C947.872 369.593 947.716 369.97 947.438 370.249C947.159 370.527 946.782 370.684 946.388 370.684Z" fill="#C3EEF4"/>
<path d="M952.902 370.684C952.508 370.684 952.131 370.527 951.852 370.249C951.574 369.971 951.417 369.593 951.417 369.199V352.323C951.417 352.128 951.456 351.935 951.53 351.755C951.605 351.575 951.714 351.412 951.852 351.274C951.99 351.136 952.154 351.026 952.334 350.952C952.514 350.877 952.707 350.839 952.902 350.839C953.097 350.839 953.29 350.877 953.47 350.952C953.65 351.026 953.814 351.136 953.952 351.274C954.09 351.412 954.199 351.575 954.274 351.755C954.348 351.935 954.387 352.128 954.387 352.323V369.199C954.387 369.593 954.23 369.971 953.952 370.249C953.673 370.527 953.296 370.684 952.902 370.684Z" fill="#87DDE8"/>
<path d="M965.93 370.684C965.536 370.684 965.159 370.528 964.88 370.249C964.602 369.971 964.445 369.593 964.445 369.2V350.459C964.445 350.065 964.602 349.688 964.88 349.409C965.159 349.131 965.536 348.975 965.93 348.975C966.324 348.975 966.701 349.131 966.98 349.409C967.258 349.688 967.414 350.065 967.414 350.459V369.2C967.415 369.395 967.377 369.588 967.303 369.769C967.229 369.949 967.119 370.113 966.981 370.251C966.843 370.389 966.679 370.498 966.499 370.573C966.318 370.647 966.125 370.685 965.93 370.684Z" fill="#2CC3D5"/>
<path d="M959.415 370.683C959.021 370.683 958.644 370.527 958.365 370.248C958.087 369.97 957.931 369.592 957.931 369.199V355.589C957.931 355.195 958.087 354.817 958.365 354.539C958.644 354.26 959.021 354.104 959.415 354.104C959.809 354.104 960.186 354.26 960.465 354.539C960.743 354.817 960.9 355.195 960.9 355.589V369.199C960.9 369.394 960.863 369.587 960.788 369.768C960.714 369.948 960.605 370.112 960.467 370.25C960.329 370.388 960.165 370.497 959.984 370.572C959.804 370.646 959.61 370.684 959.415 370.683Z" fill="#C3EEF4"/>
<path d="M911.354 291.59H775.504C772.939 291.59 770.859 293.669 770.859 296.234V381.635C770.859 384.2 772.939 386.28 775.504 386.28H911.354C913.92 386.28 915.999 384.2 915.999 381.635V296.234C915.999 293.669 913.92 291.59 911.354 291.59Z" fill="#E7EEF1"/>
<path fill-rule="evenodd" clip-rule="evenodd" d="M779.567 322.553C779.567 320.95 780.867 319.65 782.47 319.65H790.211C791.814 319.65 793.114 320.95 793.114 322.553C793.114 324.156 791.814 325.456 790.211 325.456H782.47C780.867 325.456 779.567 324.156 779.567 322.553Z" fill="#2CC3D5"/>
<path fill-rule="evenodd" clip-rule="evenodd" d="M795.049 322.553C795.049 320.95 796.348 319.65 797.952 319.65H836.656C838.259 319.65 839.558 320.95 839.558 322.553C839.558 324.156 838.259 325.456 836.656 325.456H797.952C796.348 325.456 795.049 324.156 795.049 322.553Z" fill="#2CC3D5"/>
<path fill-rule="evenodd" clip-rule="evenodd" d="M779.567 353.517C779.567 351.913 780.867 350.614 782.47 350.614H790.211C791.814 350.614 793.114 351.913 793.114 353.517C793.114 355.12 791.814 356.419 790.211 356.419H782.47C780.867 356.419 779.567 355.12 779.567 353.517Z" fill="#F9B42F"/>
<path fill-rule="evenodd" clip-rule="evenodd" d="M795.049 353.517C795.049 351.913 796.348 350.614 797.952 350.614H836.656C838.259 350.614 839.558 351.913 839.558 353.517C839.558 355.12 838.259 356.419 836.656 356.419H797.952C796.348 356.419 795.049 355.12 795.049 353.517Z" fill="#F9B42F"/>
<path fill-rule="evenodd" clip-rule="evenodd" d="M779.567 368.997C779.567 367.393 780.867 366.094 782.47 366.094H790.211C791.814 366.094 793.114 367.393 793.114 368.997C793.114 370.6 791.814 371.899 790.211 371.899H782.47C780.867 371.899 779.567 370.6 779.567 368.997Z" fill="#55CFFF"/>
<path fill-rule="evenodd" clip-rule="evenodd" d="M795.049 368.997C795.049 367.393 796.348 366.094 797.952 366.094H871.489C873.092 366.094 874.392 367.393 874.392 368.997C874.392 370.6 873.092 371.899 871.489 371.899H797.952C796.348 371.899 795.049 370.6 795.049 368.997Z" fill="#55CFFF"/>
<path fill-rule="evenodd" clip-rule="evenodd" d="M779.567 338.036C779.567 336.433 780.867 335.133 782.47 335.133H797.952C799.555 335.133 800.855 336.433 800.855 338.036C800.855 339.639 799.555 340.939 797.952 340.939H782.47C780.867 340.939 779.567 339.639 779.567 338.036Z" fill="#B97CE8"/>
<path fill-rule="evenodd" clip-rule="evenodd" d="M806.661 338.036C806.661 336.433 807.96 335.133 809.563 335.133H844.397C846 335.133 847.3 336.433 847.3 338.036C847.3 339.639 846 340.939 844.397 340.939H809.563C807.96 340.939 806.661 339.639 806.661 338.036Z" fill="#B97CE8"/>
<path d="M783.773 309.433C783.865 309.509 783.937 309.607 783.982 309.718C784.028 309.829 784.045 309.95 784.032 310.069C784.043 310.19 784.025 310.312 783.979 310.425C783.934 310.538 783.864 310.638 783.773 310.719C783.611 310.861 783.403 310.94 783.188 310.94H782.097C781.84 310.961 781.581 310.927 781.339 310.838C781.097 310.75 780.877 310.61 780.694 310.429C780.511 310.247 780.37 310.028 780.28 309.787C780.19 309.545 780.154 309.287 780.174 309.03V307.068C780.193 306.811 780.138 306.555 780.018 306.327C779.945 306.247 779.857 306.183 779.759 306.138C779.66 306.094 779.554 306.07 779.446 306.068C779.328 306.07 779.21 306.048 779.101 306.003C778.992 305.958 778.892 305.892 778.809 305.808C778.668 305.626 778.595 305.401 778.602 305.171C778.591 304.949 778.666 304.73 778.809 304.56C778.979 304.391 779.207 304.294 779.446 304.288C779.554 304.285 779.66 304.261 779.759 304.217C779.857 304.172 779.945 304.108 780.018 304.028C780.142 303.802 780.196 303.544 780.174 303.287V301.273C780.161 301.016 780.2 300.759 780.289 300.518C780.379 300.277 780.516 300.056 780.693 299.87C781.077 299.526 781.582 299.349 782.097 299.376H783.188C783.402 299.371 783.61 299.445 783.773 299.584C783.938 299.76 784.03 299.992 784.03 300.234C784.03 300.475 783.938 300.708 783.773 300.883C783.607 301.016 783.401 301.09 783.188 301.091H782.98C782.84 301.082 782.702 301.124 782.59 301.208C782.54 301.27 782.503 301.34 782.481 301.416C782.459 301.492 782.452 301.571 782.46 301.65V303.573C782.467 303.954 782.343 304.325 782.11 304.625C781.916 304.896 781.637 305.093 781.317 305.184C781.638 305.265 781.92 305.458 782.11 305.73C782.343 306.03 782.467 306.401 782.46 306.782V308.692C782.452 308.771 782.459 308.85 782.481 308.926C782.503 309.002 782.54 309.072 782.59 309.134C782.702 309.218 782.84 309.26 782.98 309.251H783.188C783.398 309.24 783.606 309.304 783.773 309.433Z" fill="#B9CBD3"/>
<path d="M793.686 307.623C793.686 307.759 793.658 307.894 793.605 308.019C793.551 308.144 793.473 308.257 793.374 308.351C793.278 308.454 793.161 308.537 793.031 308.594C792.902 308.651 792.762 308.68 792.62 308.68C792.479 308.68 792.339 308.651 792.209 308.594C792.079 308.537 791.963 308.454 791.867 308.351L790.321 306.752L788.8 308.364C788.704 308.467 788.588 308.55 788.458 308.607C788.328 308.664 788.188 308.693 788.047 308.693C787.905 308.693 787.765 308.664 787.636 308.607C787.506 308.55 787.389 308.467 787.293 308.364C787.195 308.27 787.116 308.157 787.062 308.032C787.009 307.907 786.981 307.772 786.981 307.636C786.988 307.356 787.105 307.09 787.306 306.895L788.943 305.271L787.436 303.803C787.233 303.605 787.116 303.334 787.111 303.05C787.111 302.913 787.139 302.779 787.192 302.654C787.246 302.529 787.324 302.416 787.423 302.322C787.514 302.218 787.626 302.136 787.751 302.079C787.877 302.023 788.013 301.995 788.151 301.997C788.299 301.998 788.445 302.032 788.578 302.097C788.71 302.162 788.827 302.257 788.917 302.374L790.321 303.803L791.737 302.374C791.835 302.264 791.955 302.175 792.089 302.112C792.223 302.049 792.369 302.015 792.516 302.01C792.788 302.017 793.046 302.126 793.24 302.317C793.433 302.508 793.546 302.765 793.556 303.037C793.553 303.18 793.521 303.322 793.463 303.454C793.405 303.585 793.322 303.704 793.218 303.803L791.724 305.271L793.361 306.895C793.559 307.087 793.676 307.348 793.686 307.623Z" fill="#B9CBD3"/>
<path d="M800.792 304.465C800.868 304.547 800.927 304.643 800.965 304.748C801.003 304.853 801.019 304.965 801.013 305.076C801.02 305.308 800.941 305.535 800.792 305.713C800.711 305.795 800.614 305.861 800.507 305.906C800.4 305.95 800.285 305.973 800.169 305.973C800.059 305.974 799.95 305.998 799.85 306.043C799.749 306.088 799.659 306.152 799.584 306.232C799.463 306.46 799.409 306.716 799.428 306.973V308.974C799.452 309.231 799.419 309.49 799.332 309.732C799.244 309.975 799.104 310.195 798.922 310.378C798.74 310.56 798.519 310.7 798.277 310.787C798.034 310.875 797.775 310.908 797.518 310.884H796.44C796.216 310.887 795.999 310.808 795.829 310.663C795.742 310.58 795.675 310.479 795.632 310.366C795.589 310.254 795.572 310.133 795.582 310.013C795.571 309.895 795.588 309.776 795.631 309.666C795.674 309.555 795.742 309.456 795.829 309.377C795.999 309.231 796.216 309.153 796.44 309.156H796.635C796.774 309.165 796.913 309.123 797.024 309.039C797.074 308.977 797.111 308.907 797.134 308.831C797.156 308.755 797.163 308.676 797.154 308.597V306.687C797.149 306.309 797.267 305.939 797.492 305.635C797.682 305.363 797.964 305.17 798.285 305.089C797.965 304.998 797.686 304.801 797.492 304.53C797.267 304.226 797.149 303.856 797.154 303.478V301.607C797.163 301.528 797.156 301.449 797.134 301.373C797.111 301.297 797.074 301.227 797.024 301.165C796.913 301.081 796.774 301.039 796.635 301.048H796.44C796.219 301.049 796.004 300.976 795.829 300.84C795.669 300.662 795.581 300.431 795.581 300.191C795.581 299.951 795.669 299.72 795.829 299.541C796.001 299.401 796.218 299.327 796.44 299.333H797.518C798.033 299.306 798.537 299.483 798.921 299.827C799.096 300.015 799.231 300.236 799.319 300.477C799.406 300.718 799.443 300.974 799.428 301.23V303.244C799.405 303.501 799.46 303.759 799.584 303.985C799.659 304.065 799.749 304.129 799.85 304.174C799.95 304.219 800.059 304.243 800.169 304.245C800.397 304.24 800.618 304.318 800.792 304.465Z" fill="#B9CBD3"/>
<path fill-rule="evenodd" clip-rule="evenodd" d="M267.32 407.73C267.333 407.784 267.341 407.84 267.342 407.896C267.368 407.971 267.387 408.047 267.399 408.124L272.604 446.628C272.863 448.538 272.351 450.473 271.183 452.006C270.015 453.54 268.286 454.546 266.375 454.804L225.162 460.376C223.252 460.634 221.317 460.123 219.784 458.955C218.251 457.787 217.244 456.057 216.986 454.147L210.304 404.717C210.046 402.807 210.557 400.872 211.725 399.339C212.893 397.805 214.622 396.799 216.533 396.54L249.041 392.146C249.236 392.119 249.434 392.119 249.629 392.145C249.675 392.133 249.723 392.126 249.77 392.126C249.971 392.15 250.168 392.202 250.354 392.282L250.456 392.268C250.666 392.371 250.863 392.498 251.044 392.646L266.67 406.601L266.679 406.666C266.827 406.807 266.958 406.965 267.07 407.136C267.172 407.325 267.255 407.524 267.32 407.73ZM254.069 406.816C254.251 406.955 254.481 407.017 254.708 406.99L258.79 406.529L252.974 401.315L253.732 406.246C253.766 406.472 253.887 406.677 254.069 406.816ZM267.031 448.648C267.367 448.208 267.513 447.652 267.439 447.104L262.604 411.335L255.289 412.154C253.734 412.334 252.171 411.904 250.926 410.956C249.682 410.008 248.853 408.615 248.614 407.068L247.136 397.489L217.208 401.535C216.66 401.609 216.163 401.898 215.828 402.338C215.493 402.778 215.346 403.333 215.42 403.881L222.092 453.234C222.166 453.783 222.455 454.279 222.895 454.614C223.335 454.949 223.89 455.096 224.439 455.022L265.652 449.451C266.2 449.377 266.696 449.088 267.031 448.648ZM232.763 425.395L228.853 431.768L234.391 437.046C234.642 437.28 234.844 437.562 234.985 437.875C235.126 438.188 235.204 438.525 235.213 438.868C235.223 439.212 235.164 439.553 235.04 439.873C234.917 440.194 234.731 440.486 234.493 440.734C234.256 440.982 233.971 441.18 233.656 441.317C233.342 441.454 233.003 441.527 232.66 441.531C232.316 441.536 231.976 441.473 231.657 441.345C231.339 441.217 231.049 441.027 230.804 440.786L224.09 434.346C223.582 433.857 223.255 433.21 223.161 432.511C223.066 431.812 223.21 431.102 223.569 430.495L228.344 422.685C228.703 422.099 229.281 421.68 229.949 421.519C230.618 421.359 231.323 421.471 231.909 421.83C232.495 422.19 232.914 422.767 233.074 423.436C233.235 424.104 233.123 424.809 232.763 425.395ZM249.631 419.429C249.398 419.678 249.216 419.97 249.097 420.29C248.977 420.609 248.922 420.949 248.934 421.29C248.946 421.631 249.025 421.966 249.167 422.276C249.309 422.587 249.511 422.866 249.761 423.098L255.225 428.216L251.313 434.772C250.959 435.362 250.855 436.069 251.022 436.737C251.19 437.404 251.616 437.978 252.206 438.331C252.796 438.685 253.503 438.79 254.171 438.622C254.838 438.455 255.412 438.029 255.765 437.438L260.534 429.486C260.893 428.879 261.037 428.168 260.943 427.469C260.848 426.77 260.521 426.124 260.014 425.634L253.323 419.374C253.079 419.133 252.788 418.942 252.47 418.814C252.151 418.686 251.809 418.623 251.466 418.628C251.122 418.633 250.783 418.707 250.468 418.844C250.153 418.981 249.868 419.18 249.631 419.429ZM244.224 419.987C244.565 419.953 244.909 419.987 245.236 420.087C245.568 420.189 245.876 420.357 246.142 420.58C246.407 420.804 246.625 421.078 246.783 421.387C246.941 421.696 247.035 422.034 247.059 422.38C247.084 422.726 247.039 423.074 246.927 423.402L242.121 438.432C241.887 439.054 241.423 439.561 240.826 439.851C240.229 440.14 239.543 440.189 238.911 439.988C238.278 439.787 237.747 439.351 237.427 438.769C237.106 438.188 237.021 437.506 237.189 436.864L241.995 421.833C242.092 421.505 242.253 421.199 242.468 420.933C242.684 420.667 242.95 420.447 243.252 420.284C243.553 420.122 243.884 420.021 244.224 419.987Z" fill="#55CFFF"/>
<path d="M1000.56 774.622C999.835 774.578 999.106 774.736 998.461 775.08C997.815 775.424 997.277 775.94 996.907 776.571L995.931 776.511C994.896 776.446 993.928 775.974 993.241 775.196C992.555 774.419 992.205 773.4 992.269 772.365L992.413 770.032L994.365 770.153C997.413 770.313 1000.42 769.411 1002.88 767.602C1005.34 765.792 1007.09 763.186 1007.84 760.228C1008.59 757.271 1008.3 754.144 1007 751.38C1005.71 748.617 1003.49 746.388 1000.74 745.074C1000.54 741.966 999.387 738.996 997.426 736.577C995.466 734.158 992.8 732.411 989.799 731.578C986.799 730.746 983.614 730.869 980.687 731.932C977.76 732.995 975.237 734.943 973.47 737.507C973.035 737.413 972.593 737.353 972.149 737.327C969.66 737.173 967.212 738.013 965.343 739.663C963.473 741.312 962.335 743.637 962.179 746.125C962.141 746.728 962.162 747.333 962.243 747.932C960.925 748.846 959.83 750.046 959.041 751.443C958.253 752.84 957.79 754.397 957.687 755.997C957.521 759.152 958.608 762.245 960.712 764.602C962.816 766.958 965.767 768.387 968.92 768.577L972.083 768.773L971.94 771.077C971.876 772.112 971.403 773.08 970.626 773.766C969.848 774.453 968.83 774.803 967.794 774.739L966.818 774.679C966.463 773.858 965.842 773.181 965.054 772.757C964.267 772.332 963.36 772.185 962.479 772.34C961.598 772.494 960.795 772.94 960.199 773.607C959.603 774.274 959.249 775.122 959.194 776.014C959.138 776.907 959.385 777.792 959.895 778.527C960.404 779.262 961.146 779.804 962.001 780.066C962.856 780.328 963.774 780.294 964.608 779.97C965.441 779.646 966.141 779.051 966.595 778.28L967.571 778.341C969.57 778.464 971.535 777.789 973.036 776.463C974.536 775.138 975.449 773.271 975.573 771.272L975.714 768.998L980.496 769.294L980.178 774.428C979.358 774.784 978.683 775.406 978.259 776.193C977.836 776.981 977.69 777.887 977.845 778.768C978 779.648 978.446 780.45 979.113 781.046C979.779 781.641 980.627 781.995 981.519 782.051C982.411 782.106 983.296 781.859 984.03 781.35C984.765 780.842 985.307 780.1 985.57 779.246C985.832 778.391 985.799 777.474 985.476 776.64C985.153 775.807 984.559 775.106 983.789 774.652L984.107 769.518L988.89 769.814L988.747 772.117C988.623 774.116 989.299 776.081 990.624 777.582C991.95 779.082 993.817 779.995 995.816 780.119L996.792 780.179C997.076 780.83 997.529 781.392 998.105 781.808C998.68 782.224 999.357 782.478 1000.06 782.544C1000.77 782.609 1001.48 782.484 1002.12 782.181C1002.77 781.878 1003.32 781.408 1003.71 780.821C1004.11 780.233 1004.35 779.55 1004.39 778.841C1004.44 778.132 1004.29 777.425 1003.97 776.792C1003.65 776.159 1003.16 775.624 1002.56 775.242C1001.96 774.86 1001.27 774.646 1000.56 774.622ZM961.841 756.166C961.915 755.016 962.294 753.907 962.938 752.951C963.583 751.996 964.47 751.23 965.509 750.73C965.959 750.515 966.316 750.145 966.513 749.687C966.711 749.229 966.736 748.715 966.584 748.24C966.316 747.424 966.251 746.555 966.397 745.709C966.543 744.862 966.894 744.065 967.419 743.385C967.945 742.706 968.629 742.166 969.412 741.813C970.194 741.459 971.052 741.304 971.909 741.359C972.498 741.396 973.076 741.534 973.618 741.768C974.092 741.963 974.622 741.976 975.105 741.803C975.588 741.63 975.99 741.285 976.233 740.833C977.386 738.665 979.241 736.953 981.494 735.977C983.747 735.001 986.265 734.818 988.635 735.459C991.006 736.1 993.088 737.526 994.543 739.504C995.998 741.482 996.738 743.895 996.643 746.349C996.625 746.796 996.753 747.238 997.007 747.607C997.262 747.976 997.629 748.253 998.054 748.395C1000.15 749.083 1001.92 750.512 1003.04 752.414C1004.16 754.316 1004.54 756.56 1004.12 758.725C1003.7 760.89 1002.5 762.828 1000.76 764.173C999.009 765.519 996.831 766.181 994.63 766.035L969.175 764.459C968.149 764.396 967.145 764.132 966.221 763.682C965.297 763.231 964.471 762.603 963.789 761.833C963.108 761.063 962.585 760.166 962.251 759.194C961.917 758.221 961.777 757.193 961.841 756.166Z" fill="#FA7E25"/>
<path d="M833.774 342.702L740.562 957.271H264.991L200.237 335.115L833.774 342.702Z" fill="url(#paint0_linear_10272_1614)"/>
<path opacity="0.5" d="M681.464 594.755C681.464 586.169 688.424 579.208 697.011 579.208H864.14C872.726 579.208 879.687 586.169 879.687 594.755V703.584C879.687 712.17 872.726 719.131 864.14 719.131H697.011C688.424 719.131 681.464 712.17 681.464 703.584V594.755Z" fill="#C3EEF4"/>
<path opacity="0.5" d="M697.011 610.303C697.011 601.716 703.972 594.756 712.558 594.756H879.687C888.274 594.756 895.234 601.716 895.234 610.303V719.131C895.234 727.718 888.274 734.678 879.687 734.678H712.558C703.972 734.678 697.011 727.717 697.011 719.131V610.303Z" fill="#87DDE8"/>
<path opacity="0.5" fill-rule="evenodd" clip-rule="evenodd" d="M822.433 685.886C821.925 685.479 821.357 685.155 820.749 684.925V680.606C820.749 680.033 820.521 679.484 820.116 679.079C819.711 678.674 819.162 678.447 818.589 678.447H811.453C812.303 676.722 812.906 674.887 813.245 672.995H819.55C820.123 672.995 820.672 672.767 821.077 672.362C821.482 671.957 821.71 671.408 821.71 670.835C821.71 670.263 821.482 669.713 821.077 669.308C820.672 668.904 820.123 668.676 819.55 668.676H813.612C813.66 666.674 813.494 664.672 813.116 662.706C813.051 662.36 812.964 662.015 812.878 661.68H818.589C819.162 661.68 819.711 661.452 820.116 661.047C820.521 660.643 820.749 660.093 820.749 659.521V655.148C821.358 654.915 821.927 654.587 822.433 654.176C823.359 653.417 824.039 652.4 824.387 651.255C824.735 650.109 824.736 648.886 824.39 647.74C824.043 646.594 823.364 645.576 822.44 644.815C821.515 644.055 820.385 643.585 819.194 643.466C817.602 643.312 816.014 643.793 814.774 644.804C813.535 645.815 812.745 647.274 812.576 648.864C812.437 650.19 812.74 651.524 813.437 652.66C814.134 653.796 815.186 654.671 816.43 655.148V657.307H810.902C809.118 654.745 806.519 652.861 803.528 651.963V648.389C803.528 647.817 803.301 647.268 802.896 646.863C802.491 646.458 801.942 646.23 801.369 646.23C800.796 646.23 800.247 646.458 799.842 646.863C799.437 647.268 799.21 647.817 799.21 648.389V651.132C798.27 651.002 797.31 650.905 796.338 650.851V645.053C796.338 644.481 796.11 643.931 795.705 643.526C795.3 643.122 794.751 642.894 794.179 642.894C793.606 642.894 793.057 643.122 792.652 643.526C792.247 643.931 792.019 644.481 792.019 645.053V650.829C791.174 650.829 790.284 650.958 789.381 651.087L789.381 651.087L789.147 651.121V648.389C789.147 647.817 788.92 647.268 788.515 646.863C788.11 646.458 787.561 646.23 786.988 646.23C786.415 646.23 785.866 646.458 785.461 646.863C785.056 647.268 784.829 647.817 784.829 648.389V652.19C783.886 652.517 782.982 652.944 782.13 653.464C780.211 654.677 778.646 656.375 777.595 658.387H771.927V656.228C772.913 655.864 773.784 655.245 774.453 654.435C775.212 653.509 775.68 652.378 775.796 651.187C775.913 649.995 775.673 648.795 775.108 647.739C774.543 646.683 773.678 645.818 772.621 645.254C771.565 644.69 770.365 644.452 769.173 644.569C767.981 644.687 766.851 645.155 765.925 645.915C765 646.675 764.32 647.692 763.972 648.838C763.625 649.984 763.624 651.208 763.972 652.354C764.319 653.5 764.999 654.518 765.924 655.278C766.434 655.684 767.001 656.012 767.608 656.249V660.568C767.608 661.141 767.836 661.69 768.241 662.095C768.646 662.5 769.195 662.727 769.768 662.727H775.997C775.56 664.671 775.371 666.663 775.436 668.654C775.436 669 775.436 669.345 775.49 669.734H768.839C768.267 669.734 767.717 669.962 767.312 670.367C766.907 670.771 766.68 671.321 766.68 671.893C766.68 672.466 766.907 673.015 767.312 673.42C767.717 673.825 768.267 674.053 768.839 674.053H776.127C776.577 675.949 777.305 677.768 778.286 679.451H769.768C769.195 679.451 768.646 679.678 768.241 680.083C767.836 680.488 767.608 681.037 767.608 681.61V685.929C766.338 686.422 765.271 687.328 764.579 688.501C763.886 689.674 763.608 691.046 763.79 692.396C763.972 693.746 764.603 694.996 765.582 695.944C766.561 696.891 767.83 697.482 769.185 697.621H769.789C770.935 697.618 772.057 697.29 773.024 696.675C773.991 696.059 774.763 695.183 775.252 694.146C775.74 693.109 775.924 691.955 775.783 690.818C775.642 689.681 775.181 688.607 774.453 687.721C773.784 686.911 772.913 686.293 771.927 685.929V683.769H781.763C781.902 683.786 782.044 683.786 782.184 683.769C785.524 685.865 789.336 687.09 793.272 687.332V690.01C793.272 690.784 793.578 691.527 794.125 692.075C794.671 692.623 795.413 692.933 796.187 692.936H796.457C797.057 692.88 797.625 692.643 798.087 692.255C799.814 690.776 802.082 688.811 804.306 686.739L805.256 685.864C806.335 684.892 807.415 683.888 808.387 682.819H816.43V684.979C815.197 685.444 814.149 686.299 813.446 687.413C812.743 688.528 812.422 689.841 812.533 691.154C812.68 692.651 813.378 694.04 814.491 695.051C815.604 696.063 817.053 696.625 818.557 696.628C818.755 696.639 818.953 696.639 819.151 696.628C820.342 696.509 821.472 696.04 822.396 695.279C823.321 694.518 824 693.501 824.346 692.355C824.693 691.208 824.692 689.985 824.344 688.84C823.996 687.694 823.316 686.677 822.39 685.918L822.433 685.886ZM818.751 647.806C818.979 647.828 819.201 647.894 819.403 648.001C819.605 648.109 819.783 648.256 819.928 648.433C820.081 648.613 820.194 648.824 820.261 649.05C820.328 649.277 820.347 649.515 820.317 649.75C820.28 650.166 820.094 650.554 819.792 650.842C819.49 651.13 819.093 651.299 818.676 651.315H818.417C817.957 651.271 817.534 651.046 817.24 650.689C816.947 650.333 816.807 649.875 816.851 649.415C816.896 648.956 817.121 648.532 817.477 648.239C817.833 647.945 818.292 647.805 818.751 647.85V647.806ZM768.429 649.437C768.574 649.26 768.753 649.113 768.955 649.006C769.157 648.898 769.378 648.832 769.606 648.811H769.779C770.174 648.816 770.555 648.957 770.858 649.21C771.22 649.498 771.453 649.917 771.506 650.376C771.55 650.835 771.41 651.293 771.117 651.65C770.974 651.829 770.796 651.977 770.593 652.084C770.391 652.192 770.169 652.257 769.94 652.276H769.876H769.681C769.309 652.263 768.952 652.126 768.667 651.888C768.491 651.744 768.345 651.567 768.237 651.367C768.13 651.167 768.063 650.947 768.04 650.721C767.999 650.259 768.138 649.798 768.429 649.437ZM771.506 691.748C771.472 692.078 771.345 692.392 771.139 692.652C770.933 692.912 770.657 693.107 770.343 693.215C770.029 693.324 769.691 693.34 769.369 693.262C769.046 693.184 768.753 693.015 768.523 692.776C768.293 692.537 768.137 692.237 768.072 691.911C768.007 691.586 768.037 691.249 768.157 690.94C768.278 690.631 768.485 690.363 768.753 690.167C769.021 689.972 769.339 689.857 769.671 689.837H769.94C770.4 689.886 770.822 690.114 771.115 690.472C771.408 690.829 771.548 691.288 771.506 691.748ZM802.341 682.593L801.358 683.489C800.073 684.687 798.778 685.842 797.59 686.89V685.562C797.59 685.227 797.524 684.896 797.396 684.587C797.268 684.277 797.081 683.997 796.844 683.76C796.607 683.523 796.326 683.336 796.017 683.208C795.708 683.08 795.377 683.014 795.042 683.014C791.21 683.014 785.865 681.697 783.522 679.257C780.586 676.201 779.852 671.699 779.754 668.46C779.657 665.221 780.143 659.769 784.462 657.135C786.621 655.817 790 655.105 794.114 655.105C796.412 655.1 798.705 655.325 800.959 655.774C802.931 656.077 804.76 656.987 806.19 658.379C807.62 659.77 808.581 661.574 808.937 663.537C809.779 667.855 809.639 673.88 806.702 678.069C805.41 679.725 803.948 681.241 802.341 682.593ZM819.928 691.672C819.713 691.938 819.423 692.135 819.097 692.237C818.77 692.339 818.421 692.342 818.092 692.247C817.763 692.151 817.47 691.96 817.25 691.699C817.029 691.437 816.89 691.116 816.851 690.776C816.829 690.549 816.852 690.319 816.918 690.1C816.985 689.881 817.094 689.678 817.239 689.501C817.385 689.325 817.564 689.179 817.766 689.071C817.968 688.964 818.189 688.898 818.417 688.876H818.676C819.047 688.895 819.402 689.031 819.691 689.265C819.868 689.41 820.014 689.588 820.122 689.79C820.229 689.992 820.296 690.214 820.317 690.442C820.353 690.887 820.214 691.329 819.928 691.672ZM797.579 662.9H791.512C790.475 662.9 789.481 663.312 788.748 664.045C788.015 664.778 787.603 665.772 787.603 666.809V672.876C787.615 673.905 788.031 674.888 788.763 675.612C789.495 676.336 790.482 676.741 791.512 676.741H797.579C798.616 676.741 799.61 676.33 800.343 675.597C801.076 674.864 801.487 673.87 801.487 672.833V666.809C801.487 665.772 801.076 664.778 800.343 664.045C799.61 663.312 798.616 662.9 797.579 662.9ZM797.709 672.876C797.709 672.911 797.695 672.944 797.671 672.968C797.646 672.992 797.614 673.006 797.579 673.006H791.512C791.477 673.006 791.444 672.992 791.42 672.968C791.396 672.944 791.382 672.911 791.382 672.876V666.809C791.382 666.774 791.396 666.741 791.42 666.717C791.444 666.693 791.477 666.679 791.512 666.679H797.579C797.614 666.679 797.646 666.693 797.671 666.717C797.695 666.741 797.709 666.774 797.709 666.809V672.876ZM793.852 668.192C794.075 668.115 794.311 668.085 794.545 668.104C794.973 668.138 795.372 668.332 795.663 668.647C795.954 668.962 796.116 669.375 796.116 669.804C796.116 670.233 795.954 670.646 795.663 670.961C795.372 671.277 794.973 671.471 794.545 671.505C794.311 671.523 794.075 671.493 793.852 671.416C793.63 671.339 793.426 671.217 793.253 671.057C793.08 670.898 792.942 670.704 792.847 670.488C792.753 670.272 792.704 670.04 792.704 669.804C792.704 669.569 792.753 669.336 792.847 669.12C792.942 668.904 793.08 668.711 793.253 668.551C793.426 668.391 793.63 668.269 793.852 668.192Z" fill="white"/>
<path d="M891.456 932.139C891.456 941.856 869.418 949.707 842.211 949.707C815.004 949.707 793.005 941.934 793.005 932.139C793.005 922.345 815.043 914.571 842.211 914.571C869.379 914.571 891.456 922.422 891.456 932.139Z" fill="#F66689"/>
<path d="M892.04 940.999C892.04 947.218 892.274 1006.1 892.04 1011.58C891.03 1030.04 884.034 1045.12 842.485 1045.12C799.342 1045.12 793.473 1028.99 792.851 1009.41C792.851 1004.55 792.851 946.402 792.851 940.999C792.851 913.792 793.9 944.109 842.485 944.109C891.069 944.109 892.04 913.831 892.04 940.999Z" fill="#F66689"/>
<path d="M886.949 931.709C886.949 939.91 867.01 946.557 842.368 946.557C817.726 946.557 797.787 939.91 797.787 931.709C797.787 923.508 817.765 916.823 842.368 916.823C866.971 916.823 886.949 923.508 886.949 931.709Z" fill="#C14F75"/>
<mask id="mask0_10272_1614" style="mask-type:alpha" maskUnits="userSpaceOnUse" x="797" y="916" width="90" height="31">
<path d="M886.949 931.709C886.949 939.91 867.01 946.557 842.368 946.557C817.726 946.557 797.787 939.91 797.787 931.709C797.787 923.508 817.765 916.823 842.368 916.823C866.971 916.823 886.949 923.508 886.949 931.709Z" fill="#C14F75"/>
</mask>
<g mask="url(#mask0_10272_1614)">
<path d="M796.971 940.689C796.971 948.151 816.91 954.215 841.513 954.215C866.116 954.215 886.055 948.151 886.055 940.689C886.055 933.226 866.116 927.163 841.513 927.163C816.91 927.163 796.971 933.304 796.971 940.689Z" fill="#594339"/>
</g>
<path d="M891.924 1017.96C888.177 1017.98 884.45 1017.4 880.885 1016.25L885.161 1003.42C886.599 1003.89 899.736 1007.74 905.255 997.047C913.029 982.122 911.746 959.773 906.732 955.304C905.506 954.048 903.921 953.203 902.196 952.883C900.47 952.563 898.688 952.784 897.093 953.516C895.111 954.307 893.283 955.438 891.69 956.858L882.207 947.219C885.123 944.479 888.541 942.328 892.273 940.884C896.169 939.3 900.438 938.869 904.572 939.64C908.706 940.412 912.532 942.355 915.594 945.237C923.056 951.883 924.145 964.671 924.145 971.9C924.226 982.743 921.819 993.46 917.11 1003.23C914.744 1007.82 911.118 1011.65 906.658 1014.25C902.198 1016.86 897.087 1018.15 891.924 1017.96Z" fill="#F66689"/>
<path opacity="0.08" d="M841.396 935.248C841.396 935.248 830.397 922.888 828.376 921.217C823.269 917.428 818.414 913.312 813.839 908.896C812.964 907.946 812.196 906.903 811.546 905.787C810.918 904.768 810.508 903.629 810.341 902.444C810.164 901.206 810.325 899.944 810.807 898.79C811.339 897.536 812.15 896.419 813.178 895.526C816.168 893.073 819.598 891.213 823.284 890.045C829.422 887.912 835.71 886.236 842.096 885.031C845.016 884.448 847.887 883.642 850.685 882.622C852.18 882.099 853.573 881.323 854.805 880.328C855.04 880.132 855.238 879.895 855.388 879.629C855.405 879.552 855.405 879.472 855.388 879.396C855.388 879.396 855.388 879.396 855.388 879.162C855.274 878.925 855.13 878.703 854.961 878.502C853.115 876.777 850.931 875.453 848.548 874.615C845.451 873.371 842.214 872.51 838.909 872.05C833.905 871.433 828.973 870.34 824.178 868.785C820.911 867.753 817.912 866.015 815.394 863.693C814.393 862.7 813.588 861.526 813.023 860.234C812.481 859.011 812.216 857.684 812.246 856.347C812.376 853.802 813.316 851.365 814.927 849.39C818.376 845.311 822.841 842.213 827.87 840.412C829.881 839.61 831.963 838.998 834.089 838.585L835.644 838.391C838.403 838.391 843.417 838.391 842.173 842.277C841.241 845.231 839.414 845.192 836.538 845.659L835.41 845.853C833.744 846.156 832.106 846.598 830.513 847.175C826.721 848.483 823.305 850.698 820.563 853.627C819.879 854.438 819.423 855.418 819.242 856.464C819.228 856.811 819.294 857.157 819.436 857.474C819.635 857.986 819.939 858.45 820.33 858.835C822.099 860.45 824.193 861.669 826.471 862.411C834.711 865.52 842.64 865.442 850.919 868.979C854.233 870.273 857.19 872.338 859.547 875.004C860.068 875.656 860.476 876.392 860.752 877.18C861.091 878.017 861.225 878.924 861.141 879.823C861.084 880.757 860.805 881.663 860.324 882.466C859.835 883.273 859.218 883.995 858.498 884.604C856.722 885.983 854.724 887.047 852.59 887.752C849.482 888.78 846.298 889.56 843.067 890.084C836.885 891.123 830.771 892.538 824.761 894.321C821.58 895.219 818.581 896.666 815.899 898.596C815.283 899.088 814.768 899.696 814.383 900.384C814.159 900.897 814.065 901.458 814.111 902.016C814.194 902.74 814.419 903.44 814.772 904.076C815.251 904.989 815.824 905.849 816.482 906.642C820.733 911.156 825.25 915.413 830.008 919.39C831.99 921.256 842.601 932.022 841.396 935.248Z" fill="black"/>
<path opacity="0.08" d="M856.477 934.627C856.477 934.627 856.477 934.005 856.671 933.928C856.856 932.309 856.601 930.671 855.933 929.186C855.236 927.805 854.272 926.576 853.096 925.571C850.114 923.289 846.896 921.334 843.495 919.741C839.913 918.111 836.566 916.007 833.545 913.484C832.177 912.277 831.101 910.775 830.397 909.092C829.697 907.257 829.548 905.257 829.97 903.339C830.176 902.267 830.673 901.271 831.408 900.463C832.16 899.631 833.039 898.922 834.012 898.364C836.328 897.125 838.798 896.197 841.358 895.605C847.266 894.166 853.018 893.35 859.198 892.145C861.611 891.699 863.978 891.036 866.272 890.163C867.04 889.861 867.771 889.469 868.448 888.997C868.871 888.725 869.219 888.351 869.459 887.909C869.636 887.604 869.705 887.247 869.653 886.898C869.527 886.229 869.262 885.594 868.876 885.033C868.021 883.775 867.03 882.615 865.922 881.573C864.717 880.407 862.307 878.464 863.706 876.754C865.106 875.044 867.982 877.415 869.187 878.542C870.579 879.855 871.794 881.345 872.801 882.973C873.484 884.04 873.909 885.25 874.045 886.51C874.161 887.669 873.916 888.836 873.346 889.852C872.764 890.812 871.982 891.634 871.052 892.262C870.061 892.901 869.006 893.435 867.904 893.856C865.378 894.759 862.777 895.435 860.131 895.877C854.184 896.926 848.237 897.587 842.329 898.869C840.076 899.294 837.892 900.027 835.839 901.046C835.142 901.386 834.51 901.847 833.973 902.406C833.573 902.822 833.28 903.329 833.118 903.883C832.728 905.282 832.728 906.76 833.118 908.159C833.624 909.507 834.42 910.728 835.45 911.735C838.204 914.186 841.261 916.276 844.545 917.953C848.013 919.738 851.24 921.958 854.145 924.561C855.374 925.769 856.328 927.227 856.944 928.836C857.487 930.516 857.487 932.325 856.944 934.005C856.944 934.005 856.477 934.705 856.477 934.627Z" fill="black"/>
<path d="M211.869 942.152H24.2568V891.08H211.869C218.054 891.08 223.986 893.537 228.359 897.91C232.733 902.284 235.19 908.216 235.19 914.4V918.909C235.169 925.08 232.703 930.992 228.332 935.349C223.961 939.705 218.041 942.152 211.869 942.152Z" fill="#F5F8F9"/>
<path fill-rule="evenodd" clip-rule="evenodd" d="M215.756 899.416H16.833V887.406H215.756C229.064 887.406 241.194 897.177 241.194 910.435V921.24C241.194 934.71 229.083 944.308 215.756 944.308H16.833V932.298H215.756C223.962 932.298 229.184 926.66 229.184 921.24V910.435C229.184 905.192 223.903 899.416 215.756 899.416Z" fill="#FF7B80"/>
<path d="M233.012 886.804H45.3999V835.732H233.012C239.197 835.732 245.129 838.189 249.502 842.562C253.876 846.936 256.333 852.867 256.333 859.052V863.561C256.312 869.732 253.846 875.644 249.475 880.001C245.104 884.357 239.184 886.804 233.012 886.804Z" fill="#F5F8F9"/>
<path fill-rule="evenodd" clip-rule="evenodd" d="M236.9 844.11H37.9771V832.1H236.9C250.217 832.1 262.339 841.879 262.339 855.168V865.973C262.339 879.396 250.236 889.041 236.9 889.041H37.9771V877.031H236.9C245.096 877.031 250.329 871.362 250.329 865.973V855.168C250.329 849.878 245.037 844.11 236.9 844.11Z" fill="#2CC3D5"/>
<path d="M223.063 1009.31H37.9771V946.622H223.063C229.908 946.622 236.472 949.341 241.312 954.181C246.152 959.021 248.871 965.585 248.871 972.43V983.507C248.871 990.352 246.152 996.916 241.312 1001.76C236.472 1006.6 229.908 1009.31 223.063 1009.31Z" fill="#F5F8F9"/>
<path fill-rule="evenodd" clip-rule="evenodd" d="M229.353 955.462H30.5537V943.452H229.59L229.704 943.456C236.64 943.719 243.19 946.722 247.915 951.807C252.615 956.864 255.129 963.57 254.915 970.467V983.561C255.129 990.459 252.615 997.164 247.915 1002.22C243.19 1007.31 236.64 1010.31 229.704 1010.57L229.59 1010.58H30.5537V998.566H229.353C233.073 998.398 236.581 996.775 239.118 994.045C241.678 991.29 243.042 987.632 242.909 983.873L242.905 983.766V970.262L242.909 970.156C243.042 966.396 241.678 962.738 239.118 959.983C236.581 957.253 233.073 955.63 229.353 955.462Z" fill="#517BF2"/>
<path d="M735.589 719.131H270.542C265.368 719.139 260.257 720.259 255.553 722.414C250.85 724.57 246.665 727.712 243.281 731.626C239.898 735.54 237.395 740.136 235.942 745.101C234.49 750.067 234.121 755.287 234.862 760.408L268.016 988.52C268.744 993.506 271.241 998.064 275.052 1001.36C278.863 1004.66 283.732 1006.47 288.771 1006.48H717.361C722.402 1006.48 727.276 1004.67 731.088 1001.37C734.901 998.072 737.396 993.509 738.116 988.52L771.309 760.408C772.05 755.284 771.68 750.061 770.226 745.092C768.771 740.124 766.265 735.526 762.877 731.611C759.489 727.696 755.299 724.556 750.591 722.402C745.883 720.249 740.767 719.133 735.589 719.131Z" fill="#F5F8F9"/>
<path d="M542.412 861.056C541.322 855.225 538.452 849.867 534.191 845.708C529.93 841.549 524.483 838.789 518.588 837.802C513.003 836.704 507.324 836.155 501.631 836.163C492.803 835.818 484.037 837.76 476.196 841.797C466.446 847.558 461.613 858.869 462.206 873.671C462.059 884.254 465.813 894.527 472.762 902.559C479.375 909.413 492.05 912.819 501.928 913.24V920.851C501.928 922.081 502.418 923.262 503.291 924.136C504.164 925.011 505.35 925.507 506.591 925.518H507.015C507.984 925.432 508.902 925.05 509.643 924.425C513.458 921.187 518.503 916.856 523.42 912.315L525.582 910.338C529.537 906.97 533.118 903.192 536.265 899.069C543.298 887.702 545.508 874.035 542.412 861.056Z" fill="#DEE8EC"/>
</g>
<defs>
<filter id="filter0_f_10272_1614" x="-14" y="982.834" width="312.269" height="55.7334" filterUnits="userSpaceOnUse" color-interpolation-filters="sRGB">
<feFlood flood-opacity="0" result="BackgroundImageFix"/>
<feBlend mode="normal" in="SourceGraphic" in2="BackgroundImageFix" result="shape"/>
<feGaussianBlur stdDeviation="7" result="effect1_foregroundBlur_10272_1614"/>
</filter>
<filter id="filter1_f_10272_1614" x="234.215" y="982.834" width="535.524" height="55.7334" filterUnits="userSpaceOnUse" color-interpolation-filters="sRGB">
<feFlood flood-opacity="0" result="BackgroundImageFix"/>
<feBlend mode="normal" in="SourceGraphic" in2="BackgroundImageFix" result="shape"/>
<feGaussianBlur stdDeviation="7" result="effect1_foregroundBlur_10272_1614"/>
</filter>
<filter id="filter2_f_10272_1614" x="741.739" y="1016.11" width="174.988" height="55.7334" filterUnits="userSpaceOnUse" color-interpolation-filters="sRGB">
<feFlood flood-opacity="0" result="BackgroundImageFix"/>
<feBlend mode="normal" in="SourceGraphic" in2="BackgroundImageFix" result="shape"/>
<feGaussianBlur stdDeviation="7" result="effect1_foregroundBlur_10272_1614"/>
</filter>
<linearGradient id="paint0_linear_10272_1614" x1="502.776" y1="1095.76" x2="503.728" y2="500.137" gradientUnits="userSpaceOnUse">
<stop offset="0.108095" stop-color="#DAF2F4"/>
<stop offset="1" stop-color="#DAF2F4" stop-opacity="0"/>
</linearGradient>
<clipPath id="clip0_10272_1614">
<rect width="1080" height="1080" fill="white"/>
</clipPath>
</defs>
</svg>
