<svg width="1080" height="1080" viewBox="0 0 1080 1080" fill="none" xmlns="http://www.w3.org/2000/svg">
<g clip-path="url(#clip0_10272_1630)">
<g opacity="0.06" filter="url(#filter0_f_10272_1630)">
<path d="M866.502 1021.86C866.502 1014.65 884.003 1008.81 905.659 1008.81C927.315 1008.81 944.816 1014.65 944.816 1021.86C944.816 1029.08 927.273 1034.92 905.659 1034.92C884.045 1034.92 866.502 1029.04 866.502 1021.86Z" fill="#0A0F1A"/>
</g>
<g style="mix-blend-mode:luminosity" opacity="0.16">
<path d="M868.139 794.842C911.368 806.704 995.117 752.717 993.729 687.189C992.01 619.545 930.471 568.7 922.737 501.248C914.144 426.615 996.968 371.667 1014.42 298.508C1032.86 221.567 994.588 129.751 935.098 75.8923C884.399 29.9842 800.519 4.08071 732.304 15.8142C649.348 30.0483 599.377 119.877 517.876 140.523C451.776 157.321 384.089 138.92 319.576 116.864C270.662 100.065 228.821 100.001 183.476 97.6283C133.571 94.9353 -19.847 168.158 15.7148 314.025C27.0839 360.895 73.1556 391.607 117.046 413.984C160.936 436.361 223.599 489.707 255.856 526.126C308.339 585.05 290.69 636.921 288.906 714.759C287.121 792.598 251.559 873.963 313.363 944.493C338.414 973.281 404.58 1004.96 446.157 1008.23C475.241 1010.53 518.008 1000.66 537.177 986.81C652.587 903.329 627.139 728.929 868.139 794.842Z" fill="#B9CBD3"/>
</g>
<path d="M393.784 1005.65C393.276 1013.84 392.028 1021.96 390.054 1029.93H698.686C696.697 1021.97 695.448 1013.84 694.957 1005.65C693.838 960.601 700.402 883.368 704.243 857.487C697.008 861.217 689.96 866.661 682.389 866.661H409.148C401.69 866.661 393.784 862.223 386.549 858.382C390.39 884.263 394.902 960.601 393.784 1005.65Z" fill="#DF638D"/>
<path fill-rule="evenodd" clip-rule="evenodd" d="M675.449 589.266C691.501 579.996 712.028 585.494 721.298 601.546L692.233 618.331C721.298 601.546 721.299 601.548 721.301 601.551L721.654 602.164C721.882 602.559 722.217 603.142 722.652 603.901C723.523 605.418 724.797 607.642 726.42 610.491C729.666 616.187 734.313 624.384 739.941 634.429C751.19 654.507 766.392 682.029 782.171 711.754C797.924 741.43 814.386 773.55 828.091 802.765C841.481 831.306 853.297 859.262 858.578 879.768M675.449 589.266C659.397 598.536 653.899 619.064 663.169 635.116L675.449 589.266ZM663.169 635.116L663.48 635.657C663.693 636.026 664.013 636.582 664.432 637.313C665.271 638.775 666.511 640.94 668.099 643.726C671.275 649.299 675.841 657.354 681.38 667.239C692.464 687.024 707.408 714.081 722.881 743.227C738.378 772.422 754.273 803.463 767.32 831.274C780.682 859.756 790.014 882.688 793.573 896.51L793.574 896.515C800.839 924.716 793.925 932.213 790.38 935.2C782.747 941.632 764.451 947.809 728.183 947.809C709.647 947.809 694.62 962.836 694.62 981.372C694.62 999.909 709.647 1014.94 728.183 1014.94C766.985 1014.94 806.604 1009.31 833.635 986.532C864.752 960.311 869.249 921.195 858.579 879.773" fill="#CB9685"/>
<path fill-rule="evenodd" clip-rule="evenodd" d="M647.07 589.409C659.088 572.683 682.39 568.868 699.116 580.886L677.354 611.171C699.116 580.886 699.127 580.895 699.139 580.903L699.163 580.92L699.214 580.957L699.329 581.041C699.412 581.101 699.505 581.169 699.609 581.246C699.818 581.4 700.071 581.588 700.365 581.811C700.954 582.256 701.711 582.839 702.621 583.564C704.44 585.014 706.874 587.03 709.805 589.637C715.665 594.848 723.526 602.434 732.433 612.582C750.257 632.89 772.281 663.475 790.769 705.758C799.02 724.629 790.412 746.616 771.541 754.867C752.67 763.119 730.683 754.51 722.431 735.639C707.394 701.248 689.795 677.07 676.377 661.782C669.663 654.132 663.999 648.713 660.238 645.368C658.358 643.696 656.959 642.547 656.147 641.9C655.741 641.577 655.483 641.38 655.386 641.306C655.38 641.302 655.375 641.298 655.371 641.295C638.833 629.23 635.104 606.06 647.07 589.409Z" fill="#517BF2"/>
<path fill-rule="evenodd" clip-rule="evenodd" d="M418.009 590.973C434.067 600.234 439.576 620.758 430.316 636.815L429.829 636.535C430.316 636.815 430.316 636.815 430.316 636.815L429.997 637.368C429.781 637.745 429.456 638.309 429.031 639.052C428.179 640.537 426.921 642.734 425.31 645.561C422.088 651.214 417.454 659.381 411.83 669.399C400.574 689.447 385.381 716.856 369.599 746.344C337.18 806.921 304.951 871.445 296.381 901.344L296.38 901.348C290.436 922.074 293.623 931.546 296.299 935.194C298.734 938.514 308.276 947.176 341.312 947.176C359.849 947.176 374.876 962.203 374.876 980.739C374.876 999.276 359.849 1014.3 341.312 1014.3C299.316 1014.3 263.138 1003.48 242.172 974.896C221.448 946.642 223.553 911.793 231.853 882.847M418.009 590.973C401.952 581.712 381.428 587.222 372.167 603.279L418.009 590.973ZM372.167 603.279L401.241 620.047L372.167 603.279ZM401.241 620.047C372.167 603.279 372.166 603.281 372.164 603.284L401.241 620.047ZM372.164 603.284L372.159 603.293L372.164 603.284ZM372.159 603.293L372.141 603.325L372.159 603.293ZM372.141 603.325L372.072 603.444L372.141 603.325ZM372.072 603.444L371.809 603.9L372.072 603.444ZM371.809 603.9C371.58 604.3 371.242 604.888 370.801 605.655L371.809 603.9ZM370.801 605.655C369.921 607.19 368.634 609.439 366.991 612.321L370.801 605.655ZM366.991 612.321C363.707 618.084 359.001 626.377 353.297 636.538L366.991 612.321ZM353.297 636.538C341.895 656.847 326.472 684.668 310.415 714.67L353.297 636.538ZM310.415 714.67C279.159 773.073 242.827 844.57 231.855 882.843L310.415 714.67Z" fill="#CB9685"/>
<path fill-rule="evenodd" clip-rule="evenodd" d="M442.118 633.898C455.152 618.065 452.956 594.658 437.172 581.529C421.337 568.358 397.824 570.518 384.653 586.352L412.87 609.822C384.653 586.352 384.646 586.36 384.64 586.368L384.596 586.421L384.53 586.501C384.482 586.559 384.428 586.624 384.368 586.698C384.248 586.845 384.103 587.024 383.934 587.235C383.594 587.658 383.157 588.209 382.628 588.894C381.568 590.262 380.138 592.16 378.374 594.613C374.847 599.518 369.991 606.636 364.112 616.168C352.351 635.236 336.516 663.931 319.046 703.841C310.787 722.708 319.387 744.699 338.254 752.958C357.122 761.217 379.112 752.617 387.371 733.75C403.464 696.986 417.687 671.384 427.593 655.322C432.548 647.289 436.427 641.635 438.927 638.158C440.177 636.42 441.083 635.225 441.607 634.548C441.869 634.21 442.035 634.001 442.102 633.919C442.108 633.911 442.114 633.904 442.118 633.898ZM442.019 634.018C442.019 634.018 442.019 634.017 442.019 634.018V634.018Z" fill="#517BF2"/>
<path d="M396.393 603.712C396.393 603.712 360.667 740.986 352.799 751.092L349.069 755.903C353.967 756.334 358.902 755.981 363.688 754.858L374.13 742.067L401.428 648.836L396.393 603.712Z" fill="#3D5CB6"/>
<path opacity="0.5" d="M691.407 623.044C691.407 623.044 728.631 739.047 736.499 749.153L740.229 754.188C734.1 752.721 728.051 750.941 722.104 748.855L716.511 740.129L689.175 646.898L691.407 623.044Z" fill="#3D5CB6"/>
<path d="M727.183 767.761C713.907 710.853 681.499 577.57 681.499 577.57C681.499 571.044 641.82 568.694 552.766 566.979V566.531H539.863H526.922V566.941C437.905 568.657 398.189 571.006 398.189 577.532C398.189 577.532 365.782 710.89 352.506 767.724C339.715 822.618 377.492 871.061 413.33 871.061H666.359C702.197 871.098 739.974 822.655 727.183 767.761Z" fill="#517BF2"/>
<path d="M417.537 870.874C406.293 870.519 395.48 866.469 386.771 859.351L393.52 960.898C393.073 936.136 407.803 876.02 407.803 876.02C409.389 876.328 410.999 876.49 412.614 876.505C430.03 875.685 479.74 871.881 479.74 871.881C447.967 871.881 417.537 870.874 417.537 870.874Z" fill="#D8608E"/>
<path d="M671.611 870.876C682.165 870.876 694.844 864.462 704.391 857.152L695.627 960.9C696.075 936.026 681.531 876.022 681.531 876.022C679.945 876.33 678.335 876.492 676.72 876.507C659.305 875.687 609.594 871.883 609.594 871.883C641.18 871.883 671.611 870.876 671.611 870.876Z" fill="#D8608E"/>
<path d="M860.796 952.098V952.729C860.778 952.519 860.778 952.308 860.796 952.098Z" fill="#F8F7EF"/>
<path opacity="0.2" d="M818.557 529.229C818.557 521.865 824.527 515.895 831.891 515.895H968.565C975.929 515.895 981.899 521.865 981.899 529.229V619.234C981.899 626.598 975.929 632.568 968.565 632.568H831.891C824.527 632.568 818.557 626.598 818.557 619.234V529.229Z" fill="#87DDE8"/>
<path opacity="0.5" d="M801.414 514.943C801.414 507.579 807.383 501.609 814.748 501.609H958.089C965.453 501.609 971.423 507.579 971.423 514.943V608.281C971.423 615.645 965.453 621.615 958.089 621.615H814.748C807.383 621.615 801.414 615.645 801.414 608.281V514.943Z" fill="#C3EEF4"/>
<g opacity="0.06" filter="url(#filter1_f_10272_1630)">
<path fill-rule="evenodd" clip-rule="evenodd" d="M555.11 1046.1C700.312 1046.1 818.021 1040.26 818.021 1033.05C818.021 1025.84 700.312 1020 555.11 1020C409.908 1020 292.198 1025.84 292.198 1033.05C292.198 1034.11 294.744 1035.14 299.548 1036.13C290.844 1035.99 281.853 1035.92 272.653 1035.92C203.394 1035.92 145.894 1039.95 134.757 1045.24C86.8465 1046.88 52.8022 1051.04 52.8022 1055.92C52.8022 1062.24 109.729 1067.35 179.952 1067.35C242.299 1067.35 294.166 1063.32 305.015 1058C366.646 1056.83 412.5 1052.4 412.5 1047.11C412.5 1045.96 410.342 1044.86 406.334 1043.81C448.641 1045.26 499.887 1046.1 555.11 1046.1Z" fill="#0A0F1A"/>
</g>
<path fill-rule="evenodd" clip-rule="evenodd" d="M295.431 376.82C289.767 376.82 285.176 381.412 285.176 387.076C285.176 392.74 289.767 397.331 295.431 397.331C301.095 397.331 305.686 392.74 305.686 387.076C305.686 381.412 301.095 376.82 295.431 376.82ZM283.311 387.076C283.311 380.382 288.737 374.956 295.431 374.956C302.125 374.956 307.551 380.382 307.551 387.076C307.551 393.769 302.125 399.196 295.431 399.196C288.737 399.196 283.311 393.769 283.311 387.076Z" fill="#E7EEF1"/>
<path fill-rule="evenodd" clip-rule="evenodd" d="M1004.04 639.691C998.376 639.691 993.785 644.283 993.785 649.947C993.785 655.611 998.376 660.202 1004.04 660.202C1009.7 660.202 1014.3 655.611 1014.3 649.947C1014.3 644.283 1009.7 639.691 1004.04 639.691ZM991.92 649.947C991.92 643.253 997.346 637.827 1004.04 637.827C1010.73 637.827 1016.16 643.253 1016.16 649.947C1016.16 656.64 1010.73 662.067 1004.04 662.067C997.346 662.067 991.92 656.64 991.92 649.947Z" fill="#E7EEF1"/>
<path fill-rule="evenodd" clip-rule="evenodd" d="M743.436 543.59C739.831 543.59 736.91 546.512 736.91 550.116C736.91 553.72 739.831 556.642 743.436 556.642C747.04 556.642 749.962 553.72 749.962 550.116C749.962 546.512 747.04 543.59 743.436 543.59ZM735.045 550.116C735.045 545.482 738.802 541.725 743.436 541.725C748.07 541.725 751.826 545.482 751.826 550.116C751.826 554.75 748.07 558.507 743.436 558.507C738.802 558.507 735.045 554.75 735.045 550.116Z" fill="#E7EEF1"/>
<path fill-rule="evenodd" clip-rule="evenodd" d="M952.274 383.232C948.67 383.232 945.748 386.154 945.748 389.758C945.748 393.363 948.67 396.285 952.274 396.285C955.878 396.285 958.8 393.363 958.8 389.758C958.8 386.154 955.878 383.232 952.274 383.232ZM943.883 389.758C943.883 385.124 947.64 381.368 952.274 381.368C956.908 381.368 960.665 385.124 960.665 389.758C960.665 394.393 956.908 398.149 952.274 398.149C947.64 398.149 943.883 394.393 943.883 389.758Z" fill="#E7EEF1"/>
<path fill-rule="evenodd" clip-rule="evenodd" d="M1071.61 357.127C1068.01 357.127 1065.08 360.049 1065.08 363.653C1065.08 367.257 1068.01 370.179 1071.61 370.179C1075.21 370.179 1078.14 367.257 1078.14 363.653C1078.14 360.049 1075.21 357.127 1071.61 357.127ZM1063.22 363.653C1063.22 359.019 1066.98 355.262 1071.61 355.262C1076.24 355.262 1080 359.019 1080 363.653C1080 368.287 1076.24 372.044 1071.61 372.044C1066.98 372.044 1063.22 368.287 1063.22 363.653Z" fill="#E7EEF1"/>
<path d="M281.01 572.492C283.07 572.492 284.74 570.822 284.74 568.762C284.74 566.703 283.07 565.033 281.01 565.033C278.951 565.033 277.281 566.703 277.281 568.762C277.281 570.822 278.951 572.492 281.01 572.492Z" fill="#E7EEF1"/>
<path d="M53.5266 568.762C55.5862 568.762 57.2558 567.093 57.2558 565.033C57.2558 562.973 55.5862 561.304 53.5266 561.304C51.467 561.304 49.7974 562.973 49.7974 565.033C49.7974 567.093 51.467 568.762 53.5266 568.762Z" fill="#E7EEF1"/>
<path d="M128.112 736.578C130.171 736.578 131.841 734.908 131.841 732.848C131.841 730.789 130.171 729.119 128.112 729.119C126.052 729.119 124.382 730.789 124.382 732.848C124.382 734.908 126.052 736.578 128.112 736.578Z" fill="#E7EEF1"/>
<path d="M120.653 833.538C122.713 833.538 124.382 831.868 124.382 829.808C124.382 827.749 122.713 826.079 120.653 826.079C118.593 826.079 116.924 827.749 116.924 829.808C116.924 831.868 118.593 833.538 120.653 833.538Z" fill="#E7EEF1"/>
<path d="M776.57 629.073C778.629 629.073 780.299 627.404 780.299 625.344C780.299 623.284 778.629 621.615 776.57 621.615C774.51 621.615 772.84 623.284 772.84 625.344C772.84 627.404 774.51 629.073 776.57 629.073Z" fill="#E7EEF1"/>
<path d="M877.688 441.968C879.748 441.968 881.417 440.299 881.417 438.239C881.417 436.179 879.748 434.51 877.688 434.51C875.629 434.51 873.959 436.179 873.959 438.239C873.959 440.299 875.629 441.968 877.688 441.968Z" fill="#E7EEF1"/>
<path d="M1056.69 378.571C1058.75 378.571 1060.42 376.901 1060.42 374.842C1060.42 372.782 1058.75 371.112 1056.69 371.112C1054.63 371.112 1052.96 372.782 1052.96 374.842C1052.96 376.901 1054.63 378.571 1056.69 378.571Z" fill="#E7EEF1"/>
<path d="M777 345.007C779.059 345.007 780.729 343.337 780.729 341.278C780.729 339.218 779.059 337.548 777 337.548C774.94 337.548 773.271 339.218 773.271 341.278C773.271 343.337 774.94 345.007 777 345.007Z" fill="#E7EEF1"/>
<path d="M918.71 695.556C920.77 695.556 922.439 693.887 922.439 691.827C922.439 689.767 920.77 688.098 918.71 688.098C916.651 688.098 914.981 689.767 914.981 691.827C914.981 693.887 916.651 695.556 918.71 695.556Z" fill="#E7EEF1"/>
<path fill-rule="evenodd" clip-rule="evenodd" d="M113.195 714.948C109.487 714.948 106.482 717.953 106.482 721.66C106.482 725.368 109.487 728.373 113.195 728.373C116.902 728.373 119.907 725.368 119.907 721.66C119.907 717.953 116.902 714.948 113.195 714.948ZM104.99 721.66C104.99 717.129 108.663 713.456 113.195 713.456C117.726 713.456 121.399 717.129 121.399 721.66C121.399 726.192 117.726 729.865 113.195 729.865C108.663 729.865 104.99 726.192 104.99 721.66Z" fill="#E7EEF1"/>
<path d="M1064.15 154.815C1066.21 154.815 1067.88 153.146 1067.88 151.086C1067.88 149.027 1066.21 147.357 1064.15 147.357C1062.09 147.357 1060.42 149.027 1060.42 151.086C1060.42 153.146 1062.09 154.815 1064.15 154.815Z" fill="#E7EEF1"/>
<path fill-rule="evenodd" clip-rule="evenodd" d="M1060.42 103.353C1056.71 103.353 1053.71 106.358 1053.71 110.066C1053.71 113.773 1056.71 116.778 1060.42 116.778C1064.13 116.778 1067.13 113.773 1067.13 110.066C1067.13 106.358 1064.13 103.353 1060.42 103.353ZM1052.22 110.066C1052.22 105.535 1055.89 101.861 1060.42 101.861C1064.95 101.861 1068.63 105.535 1068.63 110.066C1068.63 114.597 1064.95 118.27 1060.42 118.27C1055.89 118.27 1052.22 114.597 1052.22 110.066Z" fill="#E7EEF1"/>
<path fill-rule="evenodd" clip-rule="evenodd" d="M233.313 643.095C232.227 641.902 230.379 641.814 229.185 642.899L221.092 650.258C219.899 651.344 219.811 653.191 220.896 654.385L228.255 662.478C229.341 663.672 231.189 663.76 232.382 662.674L240.475 655.315C241.669 654.23 241.757 652.382 240.671 651.188L233.313 643.095ZM227.931 641.52C229.887 639.741 232.914 639.885 234.692 641.841L242.051 649.934C243.829 651.89 243.685 654.917 241.73 656.695L233.637 664.054C231.681 665.832 228.654 665.688 226.876 663.733L219.517 655.64C217.739 653.684 217.882 650.657 219.838 648.879L227.931 641.52Z" fill="#E7EEF1"/>
<path fill-rule="evenodd" clip-rule="evenodd" d="M72.9541 781.079C71.8686 779.885 70.0209 779.797 68.8271 780.883L60.7341 788.242C59.5403 789.327 59.4525 791.175 60.538 792.369L67.8969 800.462C68.9824 801.655 70.8301 801.743 72.0239 800.658L80.1169 793.299C81.3107 792.213 81.3985 790.366 80.313 789.172L72.9541 781.079ZM67.5726 779.503C69.5283 777.725 72.5554 777.869 74.3337 779.824L81.6926 787.917C83.4709 789.873 83.3271 792.9 81.3714 794.678L73.2784 802.037C71.3227 803.816 68.2957 803.672 66.5173 801.716L59.1584 793.623C57.3801 791.667 57.5239 788.64 59.4796 786.862L67.5726 779.503Z" fill="#E7EEF1"/>
<path fill-rule="evenodd" clip-rule="evenodd" d="M762.865 311.193C761.78 309.999 759.932 309.911 758.738 310.997L750.645 318.356C749.451 319.441 749.364 321.289 750.449 322.483L757.808 330.576C758.894 331.77 760.741 331.857 761.935 330.772L770.028 323.413C771.222 322.328 771.31 320.48 770.224 319.286L762.865 311.193ZM757.484 309.617C759.439 307.839 762.466 307.983 764.245 309.939L771.604 318.032C773.382 319.987 773.238 323.014 771.283 324.793L763.19 332.152C761.234 333.93 758.207 333.786 756.428 331.83L749.07 323.737C747.291 321.782 747.435 318.755 749.391 316.976L757.484 309.617Z" fill="#E7EEF1"/>
<path fill-rule="evenodd" clip-rule="evenodd" d="M17.0156 542.407C15.9301 541.213 14.0824 541.125 12.8886 542.211L4.79559 549.57C3.60179 550.655 3.51401 552.503 4.59952 553.697L11.9584 561.79C13.0439 562.984 14.8917 563.071 16.0855 561.986L24.1785 554.627C25.3723 553.541 25.4601 551.694 24.3746 550.5L17.0156 542.407ZM11.6342 540.831C13.5899 539.053 16.6169 539.197 18.3952 541.152L25.7541 549.245C27.5324 551.201 27.3886 554.228 25.4329 556.007L17.3399 563.365C15.3842 565.144 12.3572 565 10.5789 563.044L3.21995 554.951C1.44164 552.995 1.58545 549.968 3.54115 548.19L11.6342 540.831Z" fill="#E7EEF1"/>
<path fill-rule="evenodd" clip-rule="evenodd" d="M842.828 765.101C841.742 763.907 839.894 763.82 838.701 764.905L830.608 772.264C829.414 773.35 829.326 775.197 830.412 776.391L837.77 784.484C838.856 785.678 840.704 785.766 841.897 784.68L849.99 777.321C851.184 776.236 851.272 774.388 850.187 773.194L842.828 765.101ZM837.446 763.526C839.402 761.747 842.429 761.891 844.207 763.847L851.566 771.94C853.344 773.896 853.201 776.923 851.245 778.701L843.152 786.06C841.196 787.838 838.169 787.694 836.391 785.739L829.032 777.646C827.254 775.69 827.397 772.663 829.353 770.884L837.446 763.526Z" fill="#E7EEF1"/>
<path d="M165.756 599.893L159.869 593.419C158.724 592.159 156.774 592.066 155.514 593.212L149.039 599.099C147.78 600.245 147.687 602.194 148.833 603.454L154.72 609.929C155.865 611.188 157.815 611.281 159.075 610.136L165.549 604.248C166.809 603.103 166.902 601.153 165.756 599.893Z" fill="#E7EEF1"/>
<path d="M899.395 426.159L894.98 421.304C894.121 420.359 892.658 420.289 891.714 421.148L886.858 425.564C885.913 426.423 885.843 427.885 886.703 428.83L891.118 433.686C891.977 434.631 893.439 434.7 894.384 433.841L899.24 429.426C900.185 428.567 900.254 427.104 899.395 426.159Z" fill="#E7EEF1"/>
<path d="M720.392 556.682L715.977 551.827C715.117 550.882 713.655 550.812 712.71 551.671L707.854 556.087C706.909 556.946 706.84 558.408 707.699 559.353L712.114 564.209C712.974 565.154 714.436 565.223 715.381 564.364L720.237 559.949C721.182 559.09 721.251 557.627 720.392 556.682Z" fill="#E7EEF1"/>
<path d="M1038.4 115.092L1032.51 108.617C1031.37 107.358 1029.42 107.265 1028.16 108.411L1021.68 114.298C1020.42 115.443 1020.33 117.393 1021.47 118.653L1027.36 125.127C1028.51 126.387 1030.46 126.48 1031.72 125.334L1038.19 119.447C1039.45 118.302 1039.54 116.352 1038.4 115.092Z" fill="#E7EEF1"/>
<path d="M285.73 353.365L279.969 346.778C278.848 345.496 276.936 345.406 275.699 346.575L269.34 352.587C268.102 353.756 268.008 355.744 269.129 357.025L274.89 363.612C276.011 364.894 277.923 364.984 279.16 363.815L285.52 357.803C286.757 356.634 286.852 354.646 285.73 353.365Z" fill="#E7EEF1"/>
<path d="M523.639 192.542C529.301 191.512 591.185 142.387 646.009 204.786C684.802 248.91 649.319 278.069 682.522 308.478C711.938 335.43 739.369 396.321 696.973 465.523C624.536 583.702 631.191 553.256 580.559 568.185C490.656 594.769 504.518 539.614 504.518 539.614L523.639 192.542Z" fill="#211F36"/>
<path d="M546.62 194.972C565.74 186.699 585.743 178.793 607.217 178.168C618.049 177.618 628.839 179.872 638.545 184.713C648.227 189.958 656.029 198.095 660.864 207.989C665.96 217.354 670.1 227.209 673.219 237.405C676.242 247.531 678.697 257.818 680.573 268.218C682.595 278.514 684.25 288.809 687.081 298.737C689.428 308.635 693.445 318.06 698.958 326.609C701.852 330.774 705.166 334.631 708.849 338.118C712.637 342.026 715.979 346.342 718.814 350.987C724.491 360.269 728.243 370.598 729.845 381.359C733.007 402.833 727.933 424.454 719.696 443.869C711.108 463.193 699.979 481.284 686.603 497.663C673.466 514.021 659.149 529.395 643.766 543.663C658.435 528.744 672.117 512.887 684.728 496.192C697.32 479.615 707.795 461.532 715.909 442.361C723.594 423.204 727.786 402.318 724.66 382.168C723.1 372.141 719.523 362.534 714.144 353.929C711.464 349.657 708.347 345.677 704.841 342.052C700.904 338.342 697.355 334.239 694.251 329.808C688.337 320.801 683.998 310.854 681.419 300.392C678.698 290.096 676.969 279.69 674.984 269.431C671.307 248.987 666.159 228.764 656.378 210.599C652.131 201.403 645.195 193.71 636.486 188.537C627.454 183.689 617.318 181.269 607.07 181.514C596.708 181.632 586.399 183.002 576.367 185.596C566.365 187.949 556.584 191.773 546.62 194.972Z" fill="#2C2A46"/>
<path d="M573.425 398.751C572.475 393.886 570.518 389.273 567.682 385.208C564.845 381.143 561.19 377.715 556.952 375.144C548.594 369.73 539.266 365.985 529.485 364.113C519.691 362.423 509.679 362.423 499.885 364.113C480.275 367.079 461.571 374.377 445.135 385.477C436.991 390.941 429.726 397.611 423.587 405.259C411.313 420.631 405.368 440.109 406.967 459.715C407.298 464.606 408.034 469.349 408.585 474.423C409.119 479.553 409.266 484.715 409.026 489.867C408.456 500.206 406.105 510.369 402.077 519.908C394.061 539.065 380.015 554.288 368.359 570.209C362.342 577.89 358.268 586.909 356.482 596.5C355.905 601.303 356.179 606.169 357.291 610.877C358.501 615.627 360.266 620.218 362.549 624.556C367.515 633.462 370.63 643.28 371.705 653.42C372.141 658.472 371.969 663.559 371.19 668.569C370.267 673.543 369.039 678.455 367.513 683.277C370.17 673.625 371.055 663.572 370.124 653.604C368.701 643.763 365.312 634.309 360.159 625.806C357.606 621.342 355.629 616.573 354.276 611.613C352.943 606.555 352.519 601.301 353.026 596.096C354.639 585.848 358.715 576.145 364.902 567.819C370.602 559.362 376.963 551.567 382.736 543.478C388.622 535.577 393.558 527.012 397.444 517.959C401.203 508.942 403.344 499.333 403.768 489.573C403.967 484.664 403.795 479.747 403.253 474.865C402.702 470.121 401.856 464.973 401.488 459.826C400.847 449.453 402.093 439.05 405.165 429.123C408.281 419.217 413.275 410.004 419.873 401.986C426.371 393.993 434.06 387.048 442.671 381.395C451.155 375.728 460.323 371.157 469.954 367.79C479.528 364.296 489.473 361.915 499.591 360.694C509.735 359.27 520.049 359.619 530.073 361.723C540.022 363.966 549.439 368.125 557.798 373.968C561.951 376.9 565.549 380.548 568.425 384.741C571.255 388.91 572.976 393.732 573.425 398.751Z" fill="#2C2A46"/>
<path d="M580.779 214.497C580.029 209.656 578.054 205.087 575.043 201.223C572.197 197.343 568.701 193.984 564.71 191.295C556.637 185.95 547.612 182.205 538.126 180.264C528.933 177.837 519.741 181.808 511.357 186.478C503.087 191.534 495.131 197.084 487.53 203.098C479.735 208.981 471.939 214.938 463.482 220.123C455.025 225.307 445.649 229.021 437.118 233.286C432.942 235.309 429.078 237.922 425.646 241.045C422.44 244.159 419.933 247.919 418.292 252.076C415.369 261.035 414.196 270.472 414.836 279.874C415.939 299.215 416.27 319.475 410.717 338.706C407.986 348.415 403.404 357.505 397.223 365.475C391.119 373.491 383.544 379.889 377.477 387.206C371.296 394.414 367.202 403.174 365.637 412.54C364.148 422.043 364.148 431.719 365.637 441.221C367.137 450.836 369.162 460.362 371.704 469.755C372.881 474.498 374.058 479.241 374.83 484.095C375.838 488.946 375.838 493.952 374.83 498.803C375.561 493.986 375.311 489.07 374.094 484.352C373.102 479.609 371.741 474.902 370.417 470.233C367.457 460.872 365.002 451.36 363.063 441.736C361.25 431.958 361.014 421.952 362.365 412.099C363.766 402.046 367.899 392.571 374.315 384.706C380.566 376.874 387.81 370.328 393.546 362.643C399.299 355.097 403.532 346.505 406.011 337.346C408.49 328.09 409.873 318.575 410.129 308.996C410.129 304.179 410.129 299.362 410.129 294.545L409.394 279.837C408.717 269.693 410.08 259.516 413.402 249.906C415.358 245.015 418.342 240.601 422.153 236.963C425.974 233.532 430.272 230.671 434.912 228.47C443.884 224.094 452.929 220.711 461.056 215.71C469.182 210.71 477.087 205.378 485.177 199.752C493.066 193.854 501.305 188.439 509.849 183.536C514.216 181.069 518.872 179.154 523.712 177.837C528.665 176.44 533.908 176.44 538.861 177.837C548.502 180.171 557.603 184.341 565.666 190.118C569.758 192.891 573.218 196.495 575.822 200.696C578.426 204.897 580.115 209.599 580.779 214.497Z" fill="#2C2A46"/>
<path d="M568.719 624.08C589.128 624.08 605.673 610.449 605.673 593.634C605.673 576.819 589.128 563.188 568.719 563.188C548.31 563.188 531.765 576.819 531.765 593.634C531.765 610.449 548.31 624.08 568.719 624.08Z" fill="#EFB8C2"/>
<path d="M568.719 624.08C589.128 624.08 605.673 610.449 605.673 593.634C605.673 576.819 589.128 563.188 568.719 563.188C548.31 563.188 531.765 576.819 531.765 593.634C531.765 610.449 548.31 624.08 568.719 624.08Z" fill="#CB9685"/>
<path fill-rule="evenodd" clip-rule="evenodd" d="M568.718 565.331C549.086 565.331 533.908 578.373 533.908 593.634C533.908 608.895 549.086 621.937 568.718 621.937C588.351 621.937 603.529 608.895 603.529 593.634C603.529 578.373 588.351 565.331 568.718 565.331ZM529.622 593.634C529.622 575.266 547.533 561.045 568.718 561.045C589.904 561.045 607.815 575.266 607.815 593.634C607.815 612.002 589.904 626.223 568.718 626.223C547.533 626.223 529.622 612.002 529.622 593.634Z" fill="#CB9685"/>
<path d="M571.698 506.156H565.704C557.581 506.168 549.48 505.292 541.546 503.545V573.408C541.561 576.611 542.207 579.779 543.448 582.732C544.69 585.685 546.501 588.363 548.78 590.614C551.058 592.865 553.758 594.645 556.726 595.85C559.693 597.056 562.869 597.664 566.072 597.64H571.698C574.898 597.64 578.066 597.009 581.022 595.783C583.977 594.558 586.662 592.761 588.923 590.497C591.184 588.233 592.976 585.545 594.197 582.587C595.418 579.63 596.044 576.461 596.04 573.261V503.582C588.042 505.314 579.881 506.177 571.698 506.156Z" fill="#CB9685"/>
<path d="M541.62 522.555V542.669C541.62 542.669 547.466 532.704 568.793 532.63C590.12 532.557 595.929 543.661 595.929 543.661V519.467L541.546 518.547L541.62 522.555Z" fill="#BF7D68"/>
<path d="M684.691 301.603V415.59C684.691 466.737 646.671 509.464 595.855 519.907C587.908 521.552 579.813 522.378 571.697 522.37H565.703C557.586 522.382 549.489 521.544 541.545 519.87C490.766 509.391 452.709 466.627 452.709 415.59V301.603C452.709 242.771 503.305 194.97 565.703 194.97H571.697C634.132 194.97 684.691 242.771 684.691 301.603Z" fill="#CB9685"/>
<path d="M455.504 377.83V429.528C450.887 429.451 446.486 427.56 443.252 424.264C440.018 420.969 438.211 416.533 438.222 411.915V395.442C438.221 390.828 440.031 386.398 443.263 383.104C446.495 379.81 450.89 377.916 455.504 377.83Z" fill="#EFB8C2"/>
<path d="M694.766 395.442V411.915C694.777 416.533 692.97 420.969 689.736 424.264C686.502 427.56 682.101 429.451 677.484 429.528V377.83C682.098 377.916 686.493 379.81 689.725 383.104C692.957 386.398 694.767 390.828 694.766 395.442Z" fill="#CB9685"/>
<path d="M513.821 319.99C497.348 344.809 535.479 370.475 502.79 427.395C486.868 455.156 489.332 470.747 497.385 481.778C505.915 493.14 531.728 502.149 543.2 520.313C560.114 547.229 568.682 589.845 524.558 647.537C469.991 718.835 451.827 719.423 431.934 766.231C431.639 767.282 431.131 768.261 430.443 769.108C429.754 769.954 428.899 770.651 427.931 771.154C426.963 771.657 425.901 771.956 424.812 772.033C423.724 772.11 422.631 771.962 421.602 771.6C409.785 760.102 400.621 746.161 394.753 730.753C388.884 715.345 386.452 698.841 387.626 682.395C391.708 626.321 351.444 617.459 353.798 593.89C357.475 556.568 373.58 569.879 404.54 522.482C410.718 512.996 413.071 499.097 388.876 479.425C364.682 459.753 357.953 409.856 379.831 392.758C401.709 375.66 409.909 348.339 397.407 328.189C392.774 320.835 363.248 276.123 426.566 240.86C437.78 234.646 461.644 214.055 475.507 194.971C488.266 177.359 550.223 160.922 579.161 185.411C608.099 209.9 702.12 242.772 665.681 313.371C644.833 353.855 540.92 279.285 513.821 319.99Z" fill="#2C2A46"/>
<path d="M655.386 207.214C641.119 196.955 640.899 170.444 579.162 185.152C543.017 194.087 685.501 331.019 684.692 379.556C684.692 379.556 729.882 342.786 712.784 294.506C702.488 265.311 701.532 240.418 655.386 207.214Z" fill="#2C2A46"/>
<path d="M720.506 320.356C721.684 313.977 721.894 307.457 721.131 301.015C720.457 294.723 718.974 288.543 716.718 282.63C711.955 270.757 705.064 259.854 696.384 250.456C691.825 245.676 687.449 240.774 683.257 235.748C678.992 230.637 675.205 225.526 669.285 222.989C663.29 220.427 657.152 218.218 650.9 216.371L631.89 210.23L651.084 214.9C657.542 216.414 663.893 218.354 670.094 220.709C673.306 221.967 676.242 223.84 678.735 226.225C681.235 228.578 683.368 231.079 685.574 233.579C689.95 238.469 694.436 243.176 699.105 247.772C709.455 256.616 717.292 268.03 721.829 280.865C726.539 293.7 726.064 307.865 720.506 320.356Z" fill="#2C2A46"/>
<path opacity="0.3" d="M73.1675 410.535C73.1675 404.292 78.2286 399.231 84.4719 399.231H270.361C276.604 399.231 281.665 404.292 281.665 410.535V533.875C281.665 540.118 276.604 545.179 270.361 545.179H84.4719C78.2286 545.179 73.1675 540.118 73.1675 533.875V410.535Z" fill="#C3EEF4"/>
<path opacity="0.3" d="M85.082 425.429C85.082 419.186 90.1432 414.125 96.3864 414.125H282.275C288.518 414.125 293.58 419.186 293.58 425.429V548.768C293.58 555.012 288.518 560.073 282.275 560.073H96.3864C90.1432 560.073 85.082 555.012 85.082 548.768V425.429Z" fill="#C3EEF4"/>
<path d="M64.2319 398.621C64.2319 392.378 69.2931 387.316 75.5363 387.316H261.425C267.668 387.316 272.729 392.378 272.729 398.621V521.96C272.729 528.203 267.668 533.265 261.425 533.265H75.5363C69.2931 533.265 64.2319 528.203 64.2319 521.96V398.621Z" fill="#F8FBFB"/>
<path d="M64.2319 398.621C64.2319 392.378 69.2931 387.316 75.5363 387.316H261.425C267.668 387.316 272.729 392.378 272.729 398.621V420.08H64.2319V398.621Z" fill="#202C44"/>
<path d="M91.0391 403.699C91.0391 406.166 89.0388 408.167 86.5713 408.167C84.1038 408.167 82.1035 406.166 82.1035 403.699C82.1035 401.231 84.1038 399.231 86.5713 399.231C89.0388 399.231 91.0391 401.231 91.0391 403.699Z" fill="#FF5A60"/>
<path d="M102.953 403.699C102.953 406.166 100.952 408.167 98.4849 408.167C96.0174 408.167 94.0171 406.166 94.0171 403.699C94.0171 401.231 96.0174 399.231 98.4849 399.231C100.952 399.231 102.953 401.231 102.953 403.699Z" fill="#F9B42F"/>
<path d="M114.867 403.699C114.867 406.166 112.866 408.167 110.399 408.167C107.931 408.167 105.931 406.166 105.931 403.699C105.931 401.231 107.931 399.231 110.399 399.231C112.866 399.231 114.867 401.231 114.867 403.699Z" fill="#4DCB7B"/>
<path d="M258.864 437.881H199.888C198.007 437.881 196.483 439.406 196.483 441.286V506.243C196.483 508.123 198.007 509.647 199.888 509.647H258.864C260.744 509.647 262.268 508.123 262.268 506.243V441.286C262.268 439.406 260.744 437.881 258.864 437.881Z" fill="white"/>
<path fill-rule="evenodd" clip-rule="evenodd" d="M203.325 449.842C203.325 448.667 204.278 447.714 205.453 447.714H251.802C252.977 447.714 253.93 448.667 253.93 449.842C253.93 451.017 252.977 451.97 251.802 451.97H205.453C204.278 451.97 203.325 451.017 203.325 449.842Z" fill="#D2DFE6"/>
<path fill-rule="evenodd" clip-rule="evenodd" d="M203.325 458.814C203.325 457.639 204.278 456.686 205.453 456.686H251.802C252.977 456.686 253.93 457.639 253.93 458.814C253.93 459.989 252.977 460.942 251.802 460.942H205.453C204.278 460.942 203.325 459.989 203.325 458.814Z" fill="#D2DFE6"/>
<path fill-rule="evenodd" clip-rule="evenodd" d="M203.325 467.784C203.325 466.608 204.278 465.656 205.453 465.656H251.802C252.977 465.656 253.93 466.608 253.93 467.784C253.93 468.959 252.977 469.912 251.802 469.912H205.453C204.278 469.912 203.325 468.959 203.325 467.784Z" fill="#D2DFE6"/>
<path fill-rule="evenodd" clip-rule="evenodd" d="M203.325 488.715C203.325 487.54 204.278 486.587 205.453 486.587H251.802C252.977 486.587 253.93 487.54 253.93 488.715C253.93 489.891 252.977 490.843 251.802 490.843H205.453C204.278 490.843 203.325 489.891 203.325 488.715Z" fill="#D2DFE6"/>
<path fill-rule="evenodd" clip-rule="evenodd" d="M203.325 497.687C203.325 496.512 204.278 495.56 205.453 495.56H251.802C252.977 495.56 253.93 496.512 253.93 497.687C253.93 498.863 252.977 499.815 251.802 499.815H205.453C204.278 499.815 203.325 498.863 203.325 497.687Z" fill="#D2DFE6"/>
<path fill-rule="evenodd" clip-rule="evenodd" d="M203.325 476.755C203.325 475.58 204.278 474.627 205.453 474.627H232.365C233.541 474.627 234.493 475.58 234.493 476.755C234.493 477.93 233.541 478.883 232.365 478.883H205.453C204.278 478.883 203.325 477.93 203.325 476.755Z" fill="#D2DFE6"/>
<path d="M185.603 437.882H80.2782C78.3979 437.882 76.8735 439.407 76.8735 441.287V507.635C76.8735 509.515 78.3979 511.04 80.2782 511.04H185.603C187.484 511.04 189.008 509.515 189.008 507.635V441.287C189.008 439.407 187.484 437.882 185.603 437.882Z" fill="#E7EEF1"/>
<path fill-rule="evenodd" clip-rule="evenodd" d="M83.7153 461.803C83.7153 460.628 84.668 459.675 85.8432 459.675H91.8238C92.999 459.675 93.9517 460.628 93.9517 461.803C93.9517 462.978 92.999 463.931 91.8238 463.931H85.8432C84.668 463.931 83.7153 462.978 83.7153 461.803Z" fill="#FF7B80"/>
<path fill-rule="evenodd" clip-rule="evenodd" d="M95.6772 461.803C95.6772 460.628 96.6299 459.675 97.8052 459.675H127.708C128.883 459.675 129.836 460.628 129.836 461.803C129.836 462.978 128.883 463.931 127.708 463.931H97.8052C96.6299 463.931 95.6772 462.978 95.6772 461.803Z" fill="#FF7B80"/>
<path fill-rule="evenodd" clip-rule="evenodd" d="M83.7153 485.726C83.7153 484.55 84.668 483.598 85.8432 483.598H91.8238C92.999 483.598 93.9517 484.55 93.9517 485.726C93.9517 486.901 92.999 487.853 91.8238 487.853H85.8432C84.668 487.853 83.7153 486.901 83.7153 485.726Z" fill="#BED42B"/>
<path fill-rule="evenodd" clip-rule="evenodd" d="M95.6772 485.726C95.6772 484.55 96.6299 483.598 97.8052 483.598H127.708C128.883 483.598 129.836 484.55 129.836 485.726C129.836 486.901 128.883 487.853 127.708 487.853H97.8052C96.6299 487.853 95.6772 486.901 95.6772 485.726Z" fill="#BED42B"/>
<path fill-rule="evenodd" clip-rule="evenodd" d="M83.7153 497.687C83.7153 496.511 84.668 495.559 85.8432 495.559H91.8238C92.999 495.559 93.9517 496.511 93.9517 497.687C93.9517 498.862 92.999 499.814 91.8238 499.814H85.8432C84.668 499.814 83.7153 498.862 83.7153 497.687Z" fill="#607B99"/>
<path fill-rule="evenodd" clip-rule="evenodd" d="M95.6772 497.687C95.6772 496.511 96.6299 495.559 97.8052 495.559H154.62C155.795 495.559 156.748 496.511 156.748 497.687C156.748 498.862 155.795 499.814 154.62 499.814H97.8052C96.6299 499.814 95.6772 498.862 95.6772 497.687Z" fill="#607B99"/>
<path fill-rule="evenodd" clip-rule="evenodd" d="M83.7153 473.764C83.7153 472.588 84.668 471.636 85.8432 471.636H97.8043C98.9795 471.636 99.9322 472.588 99.9322 473.764C99.9322 474.939 98.9795 475.892 97.8043 475.892H85.8432C84.668 475.892 83.7153 474.939 83.7153 473.764Z" fill="#B97CE8"/>
<path fill-rule="evenodd" clip-rule="evenodd" d="M104.648 473.764C104.648 472.588 105.601 471.636 106.776 471.636H133.688C134.863 471.636 135.816 472.588 135.816 473.764C135.816 474.939 134.863 475.892 133.688 475.892H106.776C105.601 475.892 104.648 474.939 104.648 473.764Z" fill="#B97CE8"/>
<path d="M86.8499 451.663C86.9213 451.722 86.977 451.798 87.012 451.884C87.0471 451.97 87.0603 452.063 87.0506 452.155C87.0586 452.249 87.0446 452.343 87.0097 452.43C86.9749 452.517 86.9201 452.595 86.8499 452.657C86.7251 452.767 86.5645 452.828 86.3982 452.828H85.555C85.3565 452.844 85.1569 452.817 84.9698 452.749C84.7827 452.681 84.6127 452.573 84.4714 452.433C84.3301 452.293 84.221 452.123 84.1516 451.937C84.0822 451.75 84.0541 451.551 84.0693 451.352V449.836C84.084 449.638 84.0422 449.44 83.9489 449.264C83.8928 449.202 83.8247 449.153 83.7488 449.118C83.6728 449.084 83.5906 449.065 83.5072 449.063C83.4159 449.065 83.3252 449.048 83.2406 449.014C83.156 448.979 83.0794 448.928 83.0153 448.863C82.9061 448.722 82.8493 448.548 82.8547 448.371C82.8469 448.199 82.9042 448.03 83.0153 447.899C83.1463 447.768 83.3223 447.693 83.5072 447.688C83.5906 447.687 83.6728 447.668 83.7488 447.633C83.8247 447.599 83.8928 447.549 83.9489 447.487C84.0449 447.313 84.0869 447.114 84.0693 446.915V445.359C84.0593 445.161 84.0896 444.962 84.1587 444.776C84.2277 444.59 84.3339 444.419 84.4709 444.275C84.7676 444.01 85.1574 443.873 85.555 443.894H86.3982C86.5633 443.89 86.7242 443.947 86.8499 444.054C86.9776 444.19 87.0488 444.37 87.0488 444.556C87.0488 444.743 86.9776 444.922 86.8499 445.058C86.7216 445.161 86.5625 445.217 86.3982 445.219H86.2375C86.1296 445.212 86.0227 445.244 85.9364 445.309C85.8979 445.357 85.8693 445.411 85.852 445.47C85.8348 445.528 85.8294 445.59 85.836 445.65V447.136C85.8414 447.43 85.7457 447.717 85.565 447.949C85.4157 448.158 85.1998 448.31 84.9527 448.381C85.2008 448.443 85.4182 448.593 85.565 448.802C85.7457 449.034 85.8414 449.321 85.836 449.615V451.091C85.8294 451.152 85.8348 451.213 85.852 451.272C85.8693 451.33 85.8979 451.385 85.9364 451.432C86.0227 451.498 86.1296 451.53 86.2375 451.523H86.3982C86.5607 451.514 86.7209 451.564 86.8499 451.663Z" fill="#B9CBD3"/>
<path d="M94.5088 450.271C94.509 450.376 94.4877 450.48 94.4463 450.577C94.4048 450.673 94.3441 450.761 94.2678 450.833C94.1936 450.913 94.1035 450.977 94.0033 451.021C93.9031 451.065 93.795 451.088 93.6856 451.088C93.5763 451.088 93.4681 451.065 93.3679 451.021C93.2677 450.977 93.1777 450.913 93.1034 450.833L91.9089 449.598L90.7344 450.843C90.6602 450.923 90.5701 450.987 90.4699 451.031C90.3697 451.075 90.2616 451.098 90.1522 451.098C90.0429 451.098 89.9347 451.075 89.8345 451.031C89.7343 450.987 89.6443 450.923 89.57 450.843C89.4937 450.771 89.433 450.683 89.3916 450.587C89.3502 450.49 89.3289 450.386 89.3291 450.281C89.3343 450.065 89.4245 449.859 89.5801 449.709L90.8449 448.454L89.6804 447.32C89.5233 447.166 89.4331 446.957 89.4295 446.737C89.4293 446.632 89.4506 446.528 89.492 446.432C89.5334 446.335 89.5941 446.248 89.6704 446.175C89.7403 446.095 89.8268 446.031 89.9238 445.988C90.0209 445.945 90.1262 445.923 90.2325 445.924C90.3469 445.925 90.4596 445.951 90.5622 446.002C90.6649 446.052 90.7546 446.125 90.8248 446.215L91.9089 447.32L93.003 446.215C93.0792 446.13 93.1718 446.061 93.2753 446.013C93.3789 445.965 93.4911 445.938 93.6053 445.934C93.815 445.939 94.0149 446.024 94.1642 446.172C94.3134 446.319 94.4008 446.518 94.4084 446.727C94.406 446.838 94.3818 446.948 94.337 447.05C94.2922 447.151 94.2277 447.243 94.1474 447.32L92.993 448.454L94.2578 449.709C94.411 449.857 94.501 450.058 94.5088 450.271Z" fill="#B9CBD3"/>
<path d="M99.9999 447.83C100.059 447.894 100.104 447.968 100.133 448.049C100.163 448.13 100.175 448.216 100.171 448.302C100.176 448.482 100.115 448.657 99.9999 448.794C99.9371 448.858 99.862 448.909 99.7793 448.943C99.6965 448.978 99.6077 448.995 99.5181 448.995C99.4332 448.996 99.3494 449.015 99.2718 449.049C99.1942 449.084 99.1243 449.134 99.0664 449.196C98.9731 449.371 98.9313 449.57 98.9459 449.768V451.314C98.9645 451.512 98.9391 451.712 98.8715 451.9C98.8039 452.087 98.6958 452.257 98.5549 452.398C98.414 452.539 98.2438 452.647 98.0563 452.715C97.8688 452.782 97.6687 452.808 97.4703 452.789H96.6372C96.4644 452.791 96.2968 452.731 96.1654 452.619C96.0981 452.555 96.0461 452.476 96.0131 452.389C95.9801 452.302 95.967 452.209 95.9747 452.117C95.9663 452.026 95.9791 451.934 96.0122 451.848C96.0453 451.763 96.0977 451.687 96.1654 451.625C96.2968 451.513 96.4644 451.452 96.6372 451.454H96.7877C96.8957 451.461 97.0025 451.429 97.0889 451.364C97.1273 451.316 97.156 451.262 97.1733 451.203C97.1905 451.145 97.1959 451.083 97.1893 451.023V449.547C97.1849 449.255 97.2766 448.969 97.4503 448.734C97.597 448.524 97.8144 448.375 98.0626 448.312C97.8155 448.242 97.5996 448.09 97.4503 447.881C97.2766 447.646 97.1849 447.36 97.1893 447.068V445.622C97.1959 445.561 97.1905 445.5 97.1733 445.441C97.156 445.383 97.1273 445.328 97.0889 445.281C97.0025 445.216 96.8957 445.184 96.7877 445.19H96.6372C96.4664 445.191 96.3002 445.135 96.1654 445.03C96.0419 444.892 95.9737 444.713 95.9737 444.528C95.9737 444.343 96.0419 444.164 96.1654 444.026C96.2982 443.917 96.4657 443.86 96.6372 443.865H97.4703C97.8679 443.844 98.2577 443.981 98.5545 444.247C98.6896 444.392 98.794 444.562 98.8613 444.749C98.9285 444.935 98.9573 445.133 98.9459 445.331V446.887C98.9284 447.085 98.9703 447.285 99.0664 447.459C99.1243 447.521 99.1942 447.571 99.2718 447.605C99.3494 447.64 99.4332 447.658 99.5181 447.66C99.6941 447.656 99.8655 447.717 99.9999 447.83Z" fill="#B9CBD3"/>
<path opacity="0.3" d="M784.028 171.424C784.028 163.186 790.706 156.507 798.945 156.507H1030.16C1038.4 156.507 1045.07 163.186 1045.07 171.424V324.323C1045.07 332.562 1038.4 339.24 1030.16 339.24H798.945C790.706 339.24 784.028 332.561 784.028 324.323V171.424Z" fill="#C3EEF4"/>
<path opacity="0.3" d="M798.945 190.071C798.945 181.832 805.624 175.154 813.862 175.154H1045.08C1053.31 175.154 1059.99 181.832 1059.99 190.071V342.97C1059.99 351.208 1053.31 357.887 1045.08 357.887H813.862C805.624 357.887 798.945 351.208 798.945 342.97V190.071Z" fill="#C3EEF4"/>
<path d="M772.84 156.507C772.84 148.268 779.519 141.59 787.757 141.59H1018.97C1027.21 141.59 1033.89 148.268 1033.89 156.507V309.406C1033.89 317.644 1027.21 324.323 1018.97 324.323H787.757C779.519 324.323 772.84 317.644 772.84 309.406V156.507Z" fill="#F8FBFB"/>
<path d="M772.84 156.507C772.84 148.268 779.519 141.59 787.757 141.59H1018.97C1027.21 141.59 1033.89 148.268 1033.89 156.507V182.611H772.84V156.507Z" fill="#202C44"/>
<path d="M806.404 162.101C806.404 165.191 803.9 167.695 800.81 167.695C797.721 167.695 795.216 165.191 795.216 162.101C795.216 159.012 797.721 156.507 800.81 156.507C803.9 156.507 806.404 159.012 806.404 162.101Z" fill="#FF5A60"/>
<path d="M821.321 162.101C821.321 165.191 818.817 167.695 815.727 167.695C812.638 167.695 810.133 165.191 810.133 162.101C810.133 159.012 812.638 156.507 815.727 156.507C818.817 156.507 821.321 159.012 821.321 162.101Z" fill="#F9B42F"/>
<path d="M836.238 162.101C836.238 165.191 833.733 167.695 830.644 167.695C827.554 167.695 825.05 165.191 825.05 162.101C825.05 159.012 827.554 156.507 830.644 156.507C833.733 156.507 836.238 159.012 836.238 162.101Z" fill="#4DCB7B"/>
<path d="M923.129 204.989H792.233C789.761 204.989 787.758 206.993 787.758 209.464V291.751C787.758 294.222 789.761 296.226 792.233 296.226H923.129C925.601 296.226 927.604 294.222 927.604 291.751V209.464C927.604 206.993 925.601 204.989 923.129 204.989Z" fill="#E7EEF1"/>
<path opacity="0.7" d="M855.987 234.822C852.816 234.825 849.717 235.768 847.082 237.532C844.447 239.296 842.394 241.802 841.182 244.732C839.971 247.663 839.656 250.887 840.276 253.996C840.897 257.106 842.425 259.962 844.669 262.203C846.912 264.444 849.77 265.97 852.88 266.587C855.99 267.205 859.214 266.886 862.143 265.672C865.072 264.458 867.576 262.403 869.337 259.766C871.099 257.129 872.039 254.029 872.039 250.858C872.035 246.604 870.342 242.525 867.332 239.518C864.322 236.511 860.241 234.822 855.987 234.822Z" fill="#2CC3D5"/>
<path d="M853.471 257.941C853.466 258.185 853.536 258.423 853.671 258.624C853.806 258.824 853.999 258.977 854.223 259.059C854.446 259.142 854.69 259.151 854.919 259.085C855.148 259.019 855.351 258.881 855.5 258.691L857.7 256.011L861.306 251.607C861.478 251.397 861.573 251.132 861.573 250.857C861.573 250.583 861.478 250.317 861.306 250.107L857.7 245.704L855.5 243.023C855.351 242.833 855.148 242.696 854.919 242.63C854.69 242.564 854.446 242.573 854.223 242.655C853.999 242.738 853.806 242.89 853.671 243.091C853.536 243.291 853.466 243.53 853.471 243.773V257.941Z" fill="white"/>
<path d="M1014.5 204.988H941.402C938.931 204.988 936.927 206.991 936.927 209.463V290.014C936.927 292.486 938.931 294.49 941.402 294.49H1014.5C1016.97 294.49 1018.97 292.486 1018.97 290.014V209.463C1018.97 206.991 1016.97 204.988 1014.5 204.988Z" fill="white"/>
<path fill-rule="evenodd" clip-rule="evenodd" d="M945.318 219.905C945.318 218.36 946.571 217.108 948.115 217.108H1005.92C1007.46 217.108 1008.72 218.36 1008.72 219.905C1008.72 221.45 1007.46 222.702 1005.92 222.702H948.115C946.571 222.702 945.318 221.45 945.318 219.905Z" fill="#D2DFE6"/>
<path fill-rule="evenodd" clip-rule="evenodd" d="M945.318 231.092C945.318 229.548 946.571 228.295 948.115 228.295H1005.92C1007.46 228.295 1008.72 229.548 1008.72 231.092C1008.72 232.637 1007.46 233.889 1005.92 233.889H948.115C946.571 233.889 945.318 232.637 945.318 231.092Z" fill="#D2DFE6"/>
<path fill-rule="evenodd" clip-rule="evenodd" d="M945.318 242.281C945.318 240.736 946.571 239.484 948.115 239.484H1005.92C1007.46 239.484 1008.72 240.736 1008.72 242.281C1008.72 243.826 1007.46 245.078 1005.92 245.078H948.115C946.571 245.078 945.318 243.826 945.318 242.281Z" fill="#D2DFE6"/>
<path fill-rule="evenodd" clip-rule="evenodd" d="M945.318 268.385C945.318 266.841 946.571 265.588 948.115 265.588H1005.92C1007.46 265.588 1008.72 266.841 1008.72 268.385C1008.72 269.93 1007.46 271.182 1005.92 271.182H948.115C946.571 271.182 945.318 269.93 945.318 268.385Z" fill="#D2DFE6"/>
<path fill-rule="evenodd" clip-rule="evenodd" d="M945.318 279.573C945.318 278.029 946.571 276.776 948.115 276.776H1005.92C1007.46 276.776 1008.72 278.029 1008.72 279.573C1008.72 281.118 1007.46 282.37 1005.92 282.37H948.115C946.571 282.37 945.318 281.118 945.318 279.573Z" fill="#D2DFE6"/>
<path fill-rule="evenodd" clip-rule="evenodd" d="M945.318 253.469C945.318 251.924 946.571 250.672 948.115 250.672H981.678C983.223 250.672 984.475 251.924 984.475 253.469C984.475 255.014 983.223 256.266 981.678 256.266H948.115C946.571 256.266 945.318 255.014 945.318 253.469Z" fill="#D2DFE6"/>
<g opacity="0.6">
<path fill-rule="evenodd" clip-rule="evenodd" d="M903.502 569.543C901.622 570.798 899.412 571.469 897.152 571.469C894.121 571.469 891.214 570.265 889.07 568.121C886.927 565.978 885.723 563.071 885.723 560.04C885.723 557.779 886.393 555.569 887.649 553.69C888.905 551.81 890.69 550.345 892.778 549.48C894.867 548.615 897.165 548.389 899.382 548.83C901.599 549.271 903.635 550.359 905.234 551.958C906.832 553.556 907.921 555.593 908.362 557.81C908.803 560.027 908.576 562.325 907.711 564.413C906.846 566.502 905.381 568.287 903.502 569.543ZM901.385 553.704C900.132 552.867 898.659 552.42 897.152 552.42V552.439C895.134 552.439 893.199 553.239 891.771 554.664C890.343 556.089 889.538 558.022 889.533 560.04C889.533 561.547 889.979 563.02 890.817 564.273C891.654 565.526 892.844 566.502 894.236 567.079C895.628 567.656 897.16 567.807 898.638 567.513C900.117 567.219 901.474 566.493 902.54 565.427C903.605 564.362 904.331 563.004 904.625 561.526C904.919 560.048 904.768 558.516 904.191 557.124C903.615 555.731 902.638 554.541 901.385 553.704ZM882.951 593.641H893.256L893.247 593.651C893.752 593.651 894.237 593.852 894.594 594.209C894.951 594.566 895.152 595.051 895.152 595.556C895.152 596.061 894.951 596.546 894.594 596.903C894.237 597.26 893.752 597.461 893.247 597.461H882.77C881.806 597.458 880.882 597.074 880.2 596.392C879.518 595.711 879.134 594.787 879.132 593.822V590.651C879.132 586.357 880.838 582.238 883.874 579.202C886.911 576.165 891.029 574.459 895.323 574.459H898.942C901.822 574.461 904.65 575.23 907.133 576.688C907.376 576.798 907.593 576.957 907.771 577.156C907.948 577.355 908.082 577.589 908.163 577.843C908.244 578.097 908.271 578.365 908.243 578.63C908.214 578.895 908.13 579.151 907.996 579.381C907.862 579.612 907.681 579.812 907.465 579.968C907.249 580.124 907.002 580.233 906.742 580.288C906.481 580.343 906.211 580.343 905.951 580.287C905.69 580.231 905.444 580.121 905.228 579.965C903.337 578.854 901.184 578.265 898.99 578.26H895.333C892.049 578.26 888.9 579.564 886.578 581.886C884.256 584.208 882.951 587.357 882.951 590.641V593.641ZM920.811 576.85H916.839C915.338 576.842 913.891 577.41 912.794 578.435C911.698 579.46 911.036 580.866 910.943 582.365H899.657C899.438 582.364 899.221 582.406 899.018 582.489C898.815 582.573 898.631 582.695 898.476 582.851L895.371 585.955C895.208 586.12 895.08 586.317 894.996 586.533C894.913 586.749 894.875 586.981 894.885 587.213C894.897 587.447 894.958 587.675 895.065 587.884C895.172 588.092 895.322 588.276 895.504 588.422L898.666 590.994C898.963 591.233 899.333 591.364 899.714 591.365H905.553C905.995 591.365 906.419 591.19 906.731 590.877C907.044 590.564 907.219 590.141 907.219 589.698C907.219 589.256 907.044 588.832 906.731 588.52C906.419 588.207 905.995 588.032 905.553 588.032H900.314L899.038 587.003L900.343 585.698H912.639C913.081 585.698 913.505 585.523 913.817 585.21C914.13 584.898 914.305 584.474 914.305 584.032V582.689C914.305 582.017 914.572 581.372 915.047 580.897C915.523 580.422 916.167 580.155 916.839 580.155H920.811C921.957 580.158 923.056 580.612 923.869 581.42C924.682 582.228 925.144 583.324 925.154 584.47V589.127C925.151 590.278 924.693 591.381 923.879 592.195C923.065 593.009 921.962 593.468 920.811 593.47H916.839C916.169 593.47 915.526 593.205 915.051 592.731C914.576 592.258 914.308 591.616 914.305 590.946V588.841C914.305 588.399 914.13 587.975 913.817 587.663C913.505 587.35 913.081 587.175 912.639 587.175C912.197 587.175 911.773 587.35 911.46 587.663C911.148 587.975 910.972 588.399 910.972 588.841V590.984C910.972 592.54 911.59 594.033 912.69 595.133C913.791 596.233 915.283 596.851 916.839 596.851H920.811C922.846 596.849 924.797 596.039 926.236 594.6C927.675 593.161 928.485 591.21 928.487 589.175V584.47C928.467 582.445 927.65 580.51 926.213 579.084C924.776 577.658 922.835 576.855 920.811 576.85ZM922.232 585.963C922.404 586.22 922.496 586.522 922.496 586.831C922.496 587.245 922.331 587.643 922.038 587.936C921.745 588.228 921.348 588.393 920.934 588.393C920.625 588.393 920.323 588.301 920.066 588.13C919.809 587.958 919.609 587.714 919.491 587.429C919.372 587.143 919.341 586.829 919.402 586.526C919.462 586.223 919.611 585.945 919.829 585.727C920.048 585.508 920.326 585.359 920.629 585.299C920.932 585.239 921.246 585.27 921.531 585.388C921.817 585.506 922.061 585.706 922.232 585.963Z" fill="#F8FBFB"/>
</g>
<path fill-rule="evenodd" clip-rule="evenodd" d="M306.417 197.548C311.974 201.645 316.576 206.898 319.908 212.945C320.522 214.034 320.87 215.252 320.926 216.5C320.981 217.749 320.741 218.993 320.225 220.132C319.723 221.276 318.954 222.282 317.981 223.067C317.009 223.851 315.863 224.39 314.638 224.639L301.556 227.393C302.98 228.821 303.959 230.63 304.374 232.603C304.746 234.184 304.72 235.832 304.3 237.401C303.277 240.019 301.863 242.466 300.105 244.66L299.315 245.751C298.714 246.633 297.795 247.248 296.751 247.468C295.707 247.688 294.618 247.495 293.713 246.931C293.417 246.738 293.017 246.503 292.564 246.248C290.072 244.948 287.791 243.279 285.799 241.295C284.782 240.029 284.094 238.531 283.797 236.934C283.379 234.959 283.551 232.905 284.291 231.028L271.255 233.772C270.034 234.037 268.767 234.006 267.561 233.68C266.355 233.354 265.245 232.743 264.324 231.899C263.394 231.064 262.673 230.023 262.22 228.858C261.767 227.693 261.595 226.438 261.717 225.194C262.324 218.346 264.402 211.71 267.809 205.738C263.743 185.44 270.345 172.046 274.686 165.856C275.695 164.386 277.232 163.361 278.977 162.994C280.722 162.627 282.542 162.945 284.058 163.883C290.587 167.785 301.945 177.366 306.417 197.548ZM295.356 240.654C296.561 239.128 297.558 237.45 298.323 235.662C298.465 235.076 298.456 234.464 298.299 233.882C298.065 232.772 297.401 231.801 296.451 231.182C295.502 230.563 294.345 230.346 293.236 230.579C292.126 230.813 291.155 231.478 290.536 232.427C289.917 233.377 289.7 234.533 289.934 235.643C290.014 236.238 290.243 236.804 290.599 237.288C292.029 238.616 293.629 239.748 295.356 240.654ZM279.992 169.211C279.911 169.267 279.842 169.338 279.788 169.421L279.791 169.436C276.727 173.811 270.033 186.013 274.13 205.173L274.214 205.57C274.289 205.841 274.375 206.114 274.463 206.39C274.609 206.85 274.757 207.317 274.857 207.794C276.257 212.718 277.931 217.56 279.871 222.297C279.926 222.423 279.99 222.542 280.053 222.66C280.165 222.869 280.273 223.072 280.318 223.287L280.363 223.501C280.422 223.619 280.478 223.734 280.533 223.848C280.606 223.999 280.677 224.148 280.754 224.296C280.791 224.334 280.827 224.374 280.859 224.417C280.91 224.504 280.959 224.589 281.007 224.673C281.125 224.878 281.237 225.074 281.354 225.253L301.916 220.925C302.616 215.995 301.12 203.891 300.458 199.456C296.439 180.439 285.394 171.971 280.826 169.202C280.744 169.148 280.651 169.111 280.554 169.093C280.458 169.075 280.358 169.076 280.262 169.096C280.165 169.116 280.074 169.155 279.992 169.211ZM269.184 227.638C269.44 227.709 269.709 227.719 269.969 227.666L274.909 226.594L274.883 226.472L274.624 225.921C274.548 225.77 274.476 225.613 274.403 225.455C274.344 225.325 274.284 225.195 274.22 225.065L273.942 224.422L273.569 223.56L273.274 222.841C273.235 222.739 273.188 222.639 273.141 222.539C273.059 222.363 272.977 222.188 272.938 222.003L272.624 221.192C272.593 221.114 272.56 221.037 272.527 220.96C272.449 220.78 272.372 220.602 272.332 220.409L271.995 219.492C271.88 219.324 271.842 219.141 271.803 218.958C271.296 217.534 270.823 216.12 270.378 214.763C269.094 218.318 268.266 222.022 267.916 225.786C267.887 226.06 267.925 226.337 268.027 226.593C268.128 226.849 268.289 227.077 268.497 227.258C268.693 227.437 268.928 227.568 269.184 227.638ZM314.061 218.192C314.266 218.024 314.429 217.81 314.536 217.567C314.64 217.325 314.687 217.063 314.673 216.801C314.659 216.538 314.585 216.283 314.457 216.053C312.619 212.75 310.368 209.694 307.76 206.958C308.236 211.15 308.432 215.369 308.346 219.587L313.353 218.533C313.612 218.477 313.855 218.36 314.061 218.192ZM292.567 202.54C291.295 203.849 289.663 204.751 287.878 205.133C286.69 205.385 285.464 205.401 284.269 205.179C283.075 204.957 281.936 204.503 280.917 203.841C279.899 203.179 279.02 202.323 278.333 201.321C277.645 200.32 277.161 199.193 276.909 198.005C276.533 196.218 276.694 194.361 277.373 192.667C278.052 190.973 279.218 189.518 280.724 188.486C282.229 187.454 284.006 186.891 285.831 186.868C287.656 186.845 289.447 187.364 290.978 188.359C292.508 189.353 293.71 190.779 294.43 192.456C295.151 194.133 295.359 195.985 295.027 197.78C294.695 199.575 293.839 201.231 292.567 202.54ZM287.382 192.625C286.692 192.342 285.933 192.269 285.202 192.417C284.715 192.515 284.252 192.709 283.839 192.987C283.427 193.264 283.074 193.621 282.8 194.036C282.526 194.45 282.336 194.915 282.242 195.403C282.148 195.891 282.151 196.393 282.252 196.88C282.402 197.61 282.766 198.28 283.297 198.804C283.828 199.328 284.502 199.683 285.234 199.824C285.967 199.966 286.725 199.886 287.413 199.597C288.1 199.308 288.687 198.822 289.098 198.199C289.509 197.577 289.727 196.847 289.724 196.101C289.721 195.355 289.496 194.627 289.08 194.008C288.663 193.389 288.072 192.908 287.382 192.625Z" fill="#2CC3D5"/>
<path fill-rule="evenodd" clip-rule="evenodd" d="M1055.44 737.036L1055.69 735.792C1056.11 733.751 1056.13 731.648 1055.74 729.601C1055.35 727.554 1054.56 725.604 1053.41 723.863C1052.27 722.123 1050.79 720.625 1049.06 719.457C1047.34 718.289 1045.4 717.473 1043.36 717.055L1038.27 716.019L1038.32 715.782C1038.79 713.443 1038.32 711.009 1037 709.018C1035.68 707.026 1033.63 705.64 1031.29 705.163C1028.95 704.687 1026.52 705.16 1024.52 706.477C1022.53 707.795 1021.15 709.85 1020.67 712.19L1020.62 712.426L1014.4 711.159C1010.29 710.325 1006.01 711.157 1002.51 713.471C999.009 715.785 996.569 719.394 995.725 723.505L995.472 724.749C993.844 724.775 992.274 725.358 991.022 726.399C989.77 727.441 988.912 728.879 988.591 730.476L986.465 740.916C986.141 742.508 986.371 744.163 987.116 745.607C987.862 747.05 989.078 748.195 990.564 748.853L990.311 750.097C989.473 754.214 990.303 758.494 992.62 761.999C994.937 765.504 998.55 767.945 1002.67 768.786L1031.62 774.682C1035.73 775.516 1040.01 774.684 1043.51 772.369C1047.01 770.054 1049.44 766.445 1050.28 762.334L1050.54 761.09C1052.16 761.063 1053.72 760.483 1054.96 759.448C1056.21 758.412 1057.06 756.983 1057.39 755.395L1059.52 744.918C1059.83 743.336 1059.6 741.695 1058.86 740.263C1058.11 738.831 1056.91 737.694 1055.44 737.036ZM1032.64 769.705L1003.68 763.809C1000.89 763.24 998.433 761.586 996.859 759.21C995.285 756.833 994.718 753.929 995.283 751.135L1000.7 724.518C1001.27 721.726 1002.93 719.274 1005.31 717.703C1007.69 716.131 1010.59 715.568 1013.39 716.137L1042.34 722.033C1045.13 722.604 1047.58 724.259 1049.15 726.635C1050.73 729.01 1051.29 731.912 1050.73 734.704L1045.31 761.321C1044.74 764.111 1043.08 766.561 1040.71 768.133C1038.33 769.704 1035.43 770.27 1032.64 769.705ZM1025.66 713.206C1025.87 712.186 1026.47 711.29 1027.34 710.716C1028.21 710.142 1029.27 709.936 1030.29 710.143C1031.31 710.351 1032.2 710.955 1032.78 711.823C1033.35 712.691 1033.56 713.752 1033.35 714.771L1033.3 715.008L1025.6 713.44C1025.61 713.404 1025.62 713.368 1025.63 713.332C1025.64 713.292 1025.65 713.251 1025.66 713.206ZM990.198 741.676L992.324 731.236C992.448 730.643 992.731 730.095 993.144 729.652C993.556 729.208 994.082 728.885 994.664 728.719L991.37 744.895C990.901 744.516 990.544 744.015 990.338 743.448C990.131 742.881 990.083 742.269 990.198 741.676ZM1053.66 754.598C1053.54 755.185 1053.26 755.728 1052.85 756.169C1052.45 756.609 1051.93 756.929 1051.35 757.095L1054.65 740.919C1055.11 741.298 1055.46 741.796 1055.66 742.36C1055.87 742.924 1055.91 743.533 1055.79 744.12L1053.66 754.598ZM1026.08 730.788C1023.66 730.295 1021.14 730.531 1018.85 731.467C1016.56 732.404 1014.6 733.998 1013.22 736.049C1011.84 738.1 1011.09 740.515 1011.08 742.989C1011.07 745.463 1011.79 747.885 1013.16 749.948C1014.52 752.011 1016.47 753.623 1018.75 754.58C1021.03 755.537 1023.55 755.796 1025.97 755.325C1028.4 754.853 1030.64 753.672 1032.39 751.93C1034.15 750.189 1035.35 747.965 1035.85 745.541C1036.5 742.291 1035.85 738.912 1034.02 736.146C1032.19 733.38 1029.33 731.453 1026.08 730.788ZM1021.85 751.569C1020.17 751.226 1018.62 750.391 1017.41 749.169C1016.2 747.947 1015.38 746.393 1015.05 744.704C1014.72 743.015 1014.9 741.267 1015.57 739.68C1016.23 738.094 1017.35 736.74 1018.79 735.791C1020.22 734.841 1021.91 734.339 1023.63 734.347C1025.35 734.354 1027.03 734.872 1028.45 735.834C1029.88 736.797 1030.99 738.16 1031.64 739.753C1032.29 741.345 1032.46 743.095 1032.11 744.781C1031.65 747.04 1030.31 749.023 1028.39 750.296C1026.46 751.568 1024.11 752.026 1021.85 751.569ZM1022.21 739.679C1022.88 739.404 1023.61 739.333 1024.32 739.474C1024.79 739.568 1025.23 739.754 1025.63 740.021C1026.03 740.289 1026.37 740.632 1026.64 741.031C1026.9 741.431 1027.09 741.879 1027.18 742.35C1027.27 742.821 1027.27 743.305 1027.17 743.775C1027.03 744.481 1026.68 745.128 1026.17 745.636C1025.66 746.143 1025.01 746.487 1024.3 746.625C1023.59 746.763 1022.86 746.688 1022.2 746.411C1021.53 746.133 1020.96 745.664 1020.56 745.064C1020.17 744.464 1019.95 743.76 1019.96 743.039C1019.96 742.319 1020.17 741.615 1020.57 741.017C1020.98 740.419 1021.55 739.953 1022.21 739.679ZM1024.16 742.56C1024.3 742.702 1024.48 742.8 1024.68 742.84C1024.94 742.894 1025.22 742.84 1025.44 742.692C1025.67 742.543 1025.82 742.311 1025.88 742.047C1025.92 741.85 1025.9 741.646 1025.82 741.46C1025.75 741.274 1025.62 741.115 1025.45 741.002C1025.28 740.89 1025.09 740.829 1024.89 740.829C1024.69 740.828 1024.49 740.886 1024.32 740.997C1024.15 741.108 1024.02 741.266 1023.95 741.451C1023.87 741.637 1023.85 741.841 1023.89 742.038C1023.92 742.235 1024.02 742.417 1024.16 742.56Z" fill="#F66689"/>
<path opacity="0.5" d="M109.906 652.067L111.033 680.272C111.047 680.612 110.987 680.952 110.858 681.268C110.728 681.583 110.533 681.867 110.284 682.101C110.035 682.336 109.738 682.514 109.413 682.624C109.089 682.733 108.744 682.772 108.403 682.736C102.48 682.091 97.3282 683.179 91.5495 690.332C96.079 687.995 104.163 686.051 116.503 690.717L115.129 656.361C113.599 654.691 111.84 653.245 109.906 652.067Z" fill="#F1E733"/>
<path d="M116.938 654.824C114.892 652.571 112.475 650.685 109.793 649.248L109.787 649.105C109.767 648.632 109.607 648.175 109.326 647.794C109.046 647.413 108.658 647.123 108.212 646.964C107.74 646.792 97.0247 643.11 85.5131 653.197C80.4008 649.303 75.1281 647.655 69.8249 648.224C60.3367 649.319 54.4843 657.309 54.2478 657.652C53.8939 658.101 53.7133 658.663 53.7391 659.234L55.1108 693.541C55.1268 693.934 55.2398 694.317 55.4396 694.655C55.6395 694.993 55.92 695.277 56.2561 695.481C56.5922 695.684 56.9735 695.802 57.366 695.822C57.7585 695.843 58.1499 695.766 58.5054 695.598C76.5492 687.072 85.0061 695.349 85.3544 695.716L85.4162 695.773C85.497 695.851 85.5836 695.924 85.6751 695.989L85.7855 696.068C85.8966 696.142 86.0149 696.206 86.1386 696.256L86.198 696.254L86.5958 696.369C86.7734 696.4 86.9535 696.412 87.1335 696.407C87.3264 696.395 87.517 696.359 87.7012 696.301L87.8321 696.296C87.8757 696.301 87.9198 696.299 87.9629 696.291L88.1261 696.201L88.4749 695.984L88.6819 695.797C88.7786 695.707 88.8664 695.608 88.9441 695.501C89.0033 695.42 89.0556 695.334 89.1006 695.244C89.1373 695.209 89.1679 695.167 89.1911 695.122L91.311 690.628L89.3885 694.697C91.3871 692.83 99.4293 686.86 115.629 692.992C115.996 693.131 116.393 693.176 116.782 693.125C117.172 693.073 117.542 692.926 117.861 692.696C118.18 692.466 118.437 692.161 118.609 691.808C118.781 691.454 118.863 691.064 118.848 690.671L117.473 656.28C117.462 655.749 117.274 655.236 116.938 654.824ZM72.3528 687.014C68.0124 687.254 63.7445 688.231 59.7312 689.901L58.5312 659.888C59.9307 658.235 64.2413 653.702 70.3139 653.007C74.5717 652.515 78.9099 654.033 83.2323 657.542L84.5075 689.435C80.726 687.613 76.544 686.779 72.3528 687.014ZM89.1294 685.83L87.9912 657.364C95.3444 650.552 102.163 650.637 105.101 651.103L106.169 677.81C100.993 677.707 95.1631 679.096 89.1294 685.83ZM113.985 687.339C106.096 684.926 99.9684 685.147 95.4399 686.317C94.7331 686.903 94.0619 687.53 93.4299 688.196C98.4629 682.955 103.126 682.161 108.403 682.736C108.744 682.772 109.088 682.734 109.413 682.624C109.738 682.515 110.035 682.336 110.284 682.101C110.533 681.868 110.728 681.584 110.857 681.268C110.987 680.953 111.047 680.613 111.033 680.272L110.023 655.017C110.998 655.706 111.921 656.465 112.783 657.29L113.985 687.339Z" fill="#F1E733"/>
<path d="M855.702 418.747L767.34 1021.64H316.513L229.954 418.747H855.702Z" fill="url(#paint0_linear_10272_1630)"/>
<path opacity="0.5" d="M688.18 676.487C688.18 669.707 693.676 664.211 700.456 664.211H826.283C833.062 664.211 838.558 669.707 838.558 676.487V759.348C838.558 766.128 833.062 771.624 826.283 771.624H700.456C693.676 771.624 688.18 766.128 688.18 759.348V676.487Z" fill="#87DDE8"/>
<path opacity="0.5" d="M672.835 664.21C672.835 657.431 678.332 651.935 685.111 651.935H817.076C823.856 651.935 829.352 657.431 829.352 664.21V750.141C829.352 756.921 823.856 762.417 817.076 762.417H685.111C678.332 762.417 672.835 756.921 672.835 750.141V664.21Z" fill="#C3EEF4"/>
<g opacity="0.5">
<path d="M780.055 736.296H748.482C747.115 736.294 745.804 735.75 744.837 734.783C743.87 733.816 743.325 732.505 743.323 731.137V706.755C743.325 704.967 744.037 703.252 745.302 701.987C746.566 700.722 748.281 700.011 750.07 700.009H761.673C762.847 700.009 763.972 700.474 764.802 701.303C765.633 702.132 766.1 703.256 766.102 704.43V706.231H780.055C781.423 706.233 782.734 706.778 783.701 707.745C784.668 708.712 785.212 710.023 785.214 711.39V731.137C785.212 732.505 784.668 733.816 783.701 734.783C782.734 735.75 781.423 736.294 780.055 736.296ZM750.07 703.977C749.333 703.977 748.626 704.27 748.105 704.791C747.584 705.312 747.292 706.018 747.292 706.755V731.137C747.292 731.453 747.417 731.756 747.64 731.979C747.864 732.203 748.166 732.328 748.482 732.328H780.055C780.371 732.328 780.674 732.203 780.897 731.979C781.12 731.756 781.246 731.453 781.246 731.137V711.39C781.246 711.075 781.12 710.772 780.897 710.549C780.674 710.325 780.371 710.2 780.055 710.2H764.118C763.857 710.201 763.599 710.15 763.357 710.051C763.116 709.952 762.897 709.805 762.713 709.621C762.528 709.437 762.382 709.217 762.283 708.976C762.183 708.735 762.133 708.476 762.134 708.216V704.43C762.132 704.309 762.082 704.194 761.996 704.109C761.91 704.025 761.794 703.977 761.673 703.977H750.07Z" fill="#F8FBFB"/>
</g>
<path d="M765.535 758.953H319.332C314.367 758.96 309.463 760.035 304.95 762.103C300.437 764.172 296.421 767.186 293.175 770.941C289.929 774.697 287.527 779.106 286.134 783.871C284.74 788.636 284.386 793.644 285.097 798.557L316.908 1017.43C317.606 1022.21 320.002 1026.58 323.658 1029.75C327.315 1032.91 331.987 1034.65 336.822 1034.66H748.045C752.882 1034.66 757.558 1032.92 761.216 1029.76C764.874 1026.59 767.268 1022.21 767.959 1017.43L799.807 798.557C800.518 793.641 800.163 788.629 798.768 783.862C797.372 779.095 794.967 774.683 791.717 770.927C788.466 767.171 784.446 764.158 779.929 762.092C775.411 760.025 770.502 758.955 765.535 758.953Z" fill="#F5F8F9"/>
<path opacity="0.8" d="M580.185 895.127C579.14 889.533 576.386 884.392 572.298 880.401C568.209 876.411 562.983 873.763 557.326 872.816C551.969 871.762 546.519 871.235 541.057 871.243C532.587 870.912 524.176 872.775 516.652 876.649C507.297 882.176 502.66 893.029 503.23 907.231C503.089 917.386 506.69 927.242 513.358 934.949C519.703 941.525 531.864 944.793 541.342 945.197V952.499C541.342 953.68 541.812 954.813 542.649 955.652C543.487 956.49 544.625 956.967 545.816 956.978H546.222C547.152 956.895 548.033 956.528 548.744 955.929C552.405 952.822 557.245 948.666 561.963 944.309L564.038 942.413C567.832 939.181 571.269 935.556 574.288 931.6C581.036 920.693 583.156 907.58 580.185 895.127Z" fill="#D2DFE6"/>
<path d="M953.765 922.524C953.818 922.77 953.818 923.024 953.765 923.27L934.783 1023.74C934.783 1027.24 921.433 1030.08 904.949 1030.08C888.504 1030.08 875.116 1027.24 875.116 1023.74L864.301 966.529V965.895C862.548 956.684 860.795 947.51 859.08 938.299C859.08 937.814 858.893 937.292 858.781 936.733V935.912L857.998 931.885L856.395 923.27C856.342 923.024 856.342 922.77 856.395 922.524C856.42 922.104 856.529 921.693 856.714 921.315C856.9 920.937 857.159 920.6 857.476 920.324C859.52 918.656 861.898 917.448 864.45 916.781C868.112 915.662 871.851 914.814 875.638 914.245C885.512 912.764 895.487 912.053 905.472 912.12C931.837 912.12 953.765 916.781 953.765 922.524Z" fill="#F5F8F9"/>
<path d="M955.108 921.406L953.653 916.334H945.859C917.62 909.997 888.326 909.997 860.087 916.334H852.293L850.838 921.406C850.595 921.811 850.466 922.275 850.465 922.748C850.465 928.902 873.922 933.936 902.898 933.936C931.875 933.936 955.332 928.939 955.332 922.748C955.36 922.29 955.284 921.83 955.108 921.406Z" fill="#ECEAE1"/>
<path d="M956.003 923.568C956.003 929.721 932.508 934.755 903.569 934.755C874.631 934.755 851.136 929.758 851.136 923.568C851.132 923.106 851.261 922.652 851.509 922.262L852.218 919.689L852.926 917.153H860.758C889.002 910.86 918.286 910.86 946.53 917.153H954.362L955.779 922.262C955.971 922.669 956.049 923.12 956.003 923.568Z" fill="#1D1D1D"/>
<path d="M903.048 927.075C930.996 927.075 953.653 922.267 953.653 916.335C953.653 910.403 930.996 905.595 903.048 905.595C875.099 905.595 852.442 910.403 852.442 916.335C852.442 922.267 875.099 927.075 903.048 927.075Z" fill="#333333"/>
<path d="M952.274 913.163L951.752 911.597H950.633C944.405 907.271 925.46 904.139 903.01 904.139C880.56 904.139 861.616 907.271 855.388 911.597H854.418L853.896 912.977C853.485 913.457 853.249 914.061 853.225 914.692C853.225 920.547 875.601 925.283 903.01 925.283C930.42 925.283 952.796 920.547 952.796 914.692C952.776 914.143 952.594 913.611 952.274 913.163Z" fill="#1D1D1D"/>
<path d="M903.047 922.785C929.966 922.785 951.788 918.144 951.788 912.418C951.788 906.692 929.966 902.051 903.047 902.051C876.128 902.051 854.306 906.692 854.306 912.418C854.306 918.144 876.128 922.785 903.047 922.785Z" fill="#333333"/>
<path d="M946.68 911.336L943.734 900.372H862.362L859.416 911.336C859.23 911.667 859.128 912.038 859.117 912.417C859.117 917.564 878.77 921.741 903.048 921.741C927.325 921.741 946.978 917.564 946.978 912.417C946.967 912.038 946.865 911.667 946.68 911.336Z" fill="#1D1D1D"/>
<path d="M903.048 909.024C925.518 909.024 943.734 905.151 943.734 900.373C943.734 895.594 925.518 891.721 903.048 891.721C880.578 891.721 862.362 895.594 862.362 900.373C862.362 905.151 880.578 909.024 903.048 909.024Z" fill="#333333"/>
<path d="M903.048 907.009C920.266 907.009 934.224 904.038 934.224 900.371C934.224 896.705 920.266 893.733 903.048 893.733C885.83 893.733 871.872 896.705 871.872 900.371C871.872 904.038 885.83 907.009 903.048 907.009Z" fill="#F8F7EF"/>
<path d="M872.579 901.789L873.099 902.235L872.579 901.789Z" fill="#F8F7EF"/>
<path d="M933.626 901.789L933.105 902.235L933.626 901.789Z" fill="#F8F7EF"/>
<path d="M902.861 892.094C918.3 892.094 931.352 895.525 935.492 900.261C931.352 904.96 918.3 908.428 902.861 908.428C887.422 908.428 874.332 904.96 870.193 900.261C874.332 895.525 887.385 892.094 902.861 892.094Z" fill="#333333"/>
<path d="M902.861 897.426C916.995 897.426 928.965 899.44 932.695 902.199C928.965 904.959 916.92 906.935 902.861 906.935C888.802 906.935 876.756 904.959 873.027 902.199C876.756 899.44 888.876 897.426 902.861 897.426Z" fill="#333333"/>
<path d="M884.699 905.742C887.223 905.364 889.716 904.803 892.158 904.064C892.589 903.977 892.976 903.744 893.254 903.404C893.533 903.064 893.685 902.638 893.685 902.199C893.685 901.76 893.533 901.334 893.254 900.994C892.976 900.654 892.589 900.421 892.158 900.334C889.716 899.595 887.223 899.034 884.699 898.656C880.652 899.026 876.721 900.205 873.139 902.124C876.708 904.099 880.641 905.33 884.699 905.742Z" fill="#333333"/>
<path d="M884.699 902.088C887.226 902.448 889.72 903.01 892.158 903.766H892.493C892.816 903.586 893.079 903.316 893.251 902.988C893.423 902.661 893.495 902.291 893.459 901.923C893.424 901.555 893.282 901.205 893.051 900.917C892.819 900.628 892.509 900.413 892.158 900.298C889.716 899.559 887.223 898.998 884.699 898.62C880.652 898.99 876.721 900.169 873.139 902.088C874.223 902.808 875.403 903.373 876.644 903.766C879.278 902.984 881.972 902.423 884.699 902.088Z" fill="#1D1D1D"/>
<path d="M934.224 900.371V900.632V900.819V901.043L933.926 901.49L933.702 901.714L933.142 902.161C929.413 899.439 917.405 897.425 903.308 897.425C889.212 897.425 877.204 899.439 873.475 902.161L872.915 901.714L872.691 901.49C872.567 901.359 872.466 901.208 872.393 901.043V900.819C872.393 900.819 872.393 900.819 872.393 900.632V900.371C872.393 896.642 886.34 893.771 903.57 893.771C920.799 893.771 934.224 896.717 934.224 900.371Z" fill="#F8F7EF"/>
<path d="M934.224 900.371V900.632V900.819V901.043L933.926 901.49L933.702 901.714L933.142 902.161C929.413 899.439 917.405 897.425 903.308 897.425C889.212 897.425 877.204 899.439 873.475 902.161L872.915 901.714L872.691 901.49C872.567 901.359 872.466 901.208 872.393 901.043V900.819C872.393 900.819 872.393 900.819 872.393 900.632V900.371C872.393 896.642 886.34 893.771 903.57 893.771C920.799 893.771 934.224 896.717 934.224 900.371Z" fill="#1D1D1D"/>
<path d="M948.879 952.097C948.915 952.306 948.915 952.519 948.879 952.728V952.097Z" fill="#F8F7EF"/>
<path d="M903.793 959.704C900.105 959.704 896.5 960.798 893.434 962.847C890.368 964.895 887.978 967.808 886.566 971.215C885.155 974.622 884.786 978.371 885.505 981.988C886.225 985.605 888.001 988.927 890.608 991.535C893.216 994.143 896.539 995.919 900.156 996.638C903.773 997.358 907.522 996.988 910.929 995.577C914.336 994.166 917.248 991.776 919.297 988.71C921.346 985.643 922.439 982.038 922.439 978.35C922.439 973.405 920.475 968.662 916.978 965.165C913.481 961.669 908.738 959.704 903.793 959.704ZM897.752 970.892C898.996 970.165 900.475 969.958 901.871 970.314C903.267 970.67 904.466 971.56 905.21 972.794C904.42 973.559 903.464 974.133 902.416 974.469C901.368 974.805 900.257 974.896 899.169 974.733C898.153 974.564 897.112 974.62 896.12 974.897C895.127 975.175 894.208 975.666 893.426 976.336C893.462 975.096 893.884 973.899 894.632 972.909C895.381 971.92 896.419 971.189 897.603 970.817L897.752 970.892ZM893.351 977.157C894.057 976.435 894.931 975.901 895.894 975.601C896.858 975.302 897.88 975.247 898.871 975.441C900.232 975.582 901.609 975.417 902.898 974.957C903.724 974.642 904.484 974.174 905.136 973.577C905.085 974.845 904.631 976.064 903.839 977.057C903.048 978.05 901.96 978.764 900.735 979.096C899.494 979.796 898.029 979.985 896.65 979.623C895.272 979.261 894.089 978.377 893.351 977.157ZM899.057 981.11C899.899 979.982 901.141 979.219 902.527 978.977C903.914 978.734 905.34 979.03 906.516 979.805C906.121 980.836 905.49 981.761 904.674 982.506C903.859 983.251 902.88 983.794 901.817 984.093C900.827 984.343 899.903 984.807 899.111 985.451C898.319 986.095 897.677 986.904 897.23 987.823C896.747 986.624 896.665 985.301 896.994 984.051C897.323 982.802 898.047 981.692 899.057 980.886V981.11ZM905.21 987.3C902.786 989.687 899.467 990.284 897.752 988.568C898.118 987.643 898.702 986.821 899.456 986.171C900.209 985.522 901.109 985.065 902.078 984.839C903.382 984.425 904.57 983.709 905.546 982.751C906.174 982.13 906.68 981.396 907.038 980.588C907.451 981.748 907.497 983.007 907.17 984.195C906.843 985.382 906.159 986.44 905.21 987.226V987.3ZM906.665 973.428C907.336 970.071 909.797 967.722 912.147 968.207C912.395 969.278 912.39 970.392 912.131 971.46C911.872 972.529 911.366 973.522 910.655 974.36C909.967 975.133 909.459 976.049 909.169 977.042C908.878 978.036 908.813 979.081 908.977 980.103C907.948 979.366 907.174 978.329 906.76 977.133C906.345 975.937 906.312 974.643 906.665 973.428ZM915.279 975.106C914.608 978.462 912.147 980.812 909.797 980.364C909.566 979.378 909.578 978.35 909.831 977.37C910.085 976.389 910.572 975.484 911.252 974.733C912.107 973.641 912.695 972.364 912.967 971.004C913.137 970.129 913.137 969.23 912.967 968.356C914 969.089 914.778 970.126 915.192 971.323C915.607 972.52 915.637 973.816 915.279 975.031V975.106Z" fill="#007B47"/>
<path opacity="0.08" d="M903.824 900.316C903.824 900.316 893.271 888.494 891.331 886.891C886.432 883.242 881.773 879.281 877.384 875.032C876.537 874.14 875.798 873.151 875.184 872.086C874.58 871.095 874.187 869.99 874.028 868.841C873.855 867.666 874.01 866.466 874.475 865.373C874.993 864.163 875.77 863.081 876.75 862.203C879.62 859.861 882.911 858.089 886.446 856.982C892.34 854.94 898.372 853.32 904.496 852.134C907.302 851.592 910.058 850.818 912.737 849.822C914.176 849.349 915.516 848.616 916.69 847.659C916.907 847.463 917.095 847.237 917.25 846.988C917.266 846.914 917.266 846.838 917.25 846.764C917.254 846.677 917.254 846.59 917.25 846.503C917.148 846.282 917.009 846.08 916.839 845.906C915.078 844.239 912.98 842.967 910.686 842.177C907.721 840.966 904.613 840.139 901.438 839.716C896.634 839.125 891.9 838.064 887.304 836.546C884.164 835.514 881.287 833.809 878.876 831.549C877.923 830.589 877.152 829.464 876.601 828.23C876.086 827.055 875.831 825.783 875.855 824.5C875.983 822.052 876.899 819.711 878.466 817.825C881.76 813.903 886.031 810.918 890.847 809.173C892.777 808.416 894.775 807.841 896.813 807.458C897.31 807.424 897.808 807.424 898.305 807.458C900.953 807.458 905.577 807.458 904.57 811.187C903.675 814.021 901.922 813.947 899.163 814.394L898.081 814.581C896.481 814.884 894.91 815.321 893.382 815.886C889.733 817.098 886.458 819.23 883.873 822.076C883.184 822.824 882.73 823.758 882.568 824.761C882.494 825.08 882.494 825.412 882.568 825.731C882.758 826.222 883.051 826.667 883.425 827.036C885.13 828.585 887.136 829.766 889.318 830.505C897.224 833.488 904.831 833.413 912.775 836.807C915.959 838.021 918.801 839.992 921.053 842.55C921.538 843.186 921.928 843.89 922.21 844.638C922.535 845.442 922.663 846.311 922.582 847.174C922.533 848.071 922.264 848.942 921.799 849.71C921.339 850.491 920.746 851.185 920.047 851.761C918.346 853.088 916.428 854.11 914.378 854.782C911.392 855.763 908.339 856.523 905.241 857.057C899.306 858.036 893.439 859.394 887.677 861.122C884.736 861.979 881.962 863.328 879.472 865.112C878.872 865.589 878.377 866.186 878.018 866.865C877.8 867.356 877.71 867.895 877.757 868.431C877.842 869.124 878.057 869.794 878.391 870.407C878.868 871.272 879.417 872.096 880.032 872.869C884.101 877.198 888.436 881.271 893.01 885.063C894.8 886.891 904.98 897.221 903.824 900.316Z" fill="black"/>
<path opacity="0.08" d="M918.219 899.756C918.219 899.756 918.219 899.122 918.406 899.085C918.58 897.544 918.335 895.985 917.697 894.573C917.04 893.24 916.113 892.059 914.975 891.104C912.129 888.893 909.038 887.016 905.764 885.511C902.326 883.947 899.115 881.927 896.217 879.506C894.914 878.325 893.884 876.874 893.196 875.255C892.52 873.496 892.377 871.576 892.786 869.736C892.992 868.721 893.469 867.78 894.166 867.013C894.878 866.204 895.723 865.523 896.664 865C898.88 863.794 901.252 862.903 903.713 862.352C909.381 860.935 915.087 860.189 920.83 859.033C923.142 858.575 925.412 857.926 927.617 857.094C928.361 856.818 929.064 856.442 929.705 855.975C930.109 855.727 930.442 855.38 930.675 854.968C930.845 854.675 930.911 854.333 930.861 853.998C930.747 853.354 930.492 852.743 930.116 852.208C929.304 850.995 928.353 849.881 927.281 848.889C926.125 847.771 923.813 845.906 925.156 844.228C926.498 842.55 929.258 844.899 930.414 845.981C931.741 847.236 932.906 848.651 933.882 850.195C934.531 851.221 934.939 852.382 935.076 853.588C935.194 854.701 934.959 855.823 934.404 856.795C933.863 857.728 933.109 858.52 932.204 859.107C931.278 859.741 930.276 860.255 929.221 860.636C926.791 861.492 924.297 862.153 921.762 862.613C916.056 863.62 910.351 864.254 904.682 865.447C902.523 865.885 900.43 866.599 898.454 867.573C897.786 867.9 897.18 868.341 896.664 868.878C896.279 869.276 895.998 869.763 895.844 870.295C895.472 871.637 895.472 873.055 895.844 874.397C896.33 875.68 897.094 876.839 898.081 877.791C900.735 880.13 903.665 882.134 906.808 883.758C910.144 885.457 913.241 887.588 916.019 890.097C917.197 891.243 918.113 892.629 918.704 894.162C919.226 895.774 919.226 897.51 918.704 899.122C918.704 899.122 918.331 899.793 918.219 899.756Z" fill="black"/>
<path d="M293.239 792.878C295.359 790.626 297.001 787.965 298.066 785.056C299.131 782.147 299.597 779.05 299.435 775.955C299.274 772.859 298.488 769.829 297.125 767.048C295.763 764.267 293.852 761.793 291.51 759.776L290.378 758.783C285.543 754.61 279.299 752.459 272.933 752.775C266.567 753.09 260.565 755.848 256.162 760.48C254.026 762.723 252.369 765.382 251.294 768.293C250.219 771.204 249.748 774.305 249.91 777.406C250.072 780.507 250.863 783.542 252.236 786.324C253.609 789.105 255.533 791.576 257.891 793.582L259.024 794.575C263.858 798.749 270.102 800.899 276.468 800.583C282.834 800.268 288.837 797.51 293.239 792.878Z" fill="#607B99"/>
<path d="M274.196 839.533L297.789 860.222L364.779 788.369L341.186 767.68C333.279 760.872 323.503 756.633 313.149 755.525C302.795 754.417 292.349 756.491 283.193 761.474C278.5 764.004 274.251 767.288 270.614 771.198C266.235 775.839 262.841 781.328 260.641 787.329C258.44 793.331 257.478 799.72 257.813 806.108C258.148 812.495 259.773 818.747 262.59 824.483C265.407 830.219 269.355 835.318 274.196 839.471V839.533Z" fill="#24B8CA"/>
<path d="M295.504 816.672L319.096 837.361L364.779 788.369L341.186 767.68C333.279 760.872 323.503 756.633 313.149 755.525C302.795 754.417 292.349 756.491 283.193 761.474C280.107 768.293 278.695 775.757 279.075 783.239C279.433 789.636 281.072 795.895 283.895 801.64C286.718 807.385 290.667 812.498 295.504 816.672Z" fill="#2CC3D5"/>
<path d="M296.554 859.891C303.677 866.284 324.716 855.608 343.533 836.016C362.349 816.423 371.881 795.341 364.758 788.948C359.138 783.879 344.809 789.486 329.76 801.755C325.539 805.202 321.518 808.891 317.717 812.803C313.374 817.339 309.357 822.178 305.694 827.285C295.298 841.912 291.18 855.049 296.554 859.891Z" fill="#1B808E"/>
<path d="M305.777 827.181C308.555 830.18 312.247 832.167 316.271 832.83C320.295 833.493 324.425 832.794 328.011 830.843C330.032 829.775 331.817 828.307 333.259 826.527C334.701 824.748 335.77 822.693 336.4 820.488C337.031 818.282 337.211 815.971 336.93 813.694C336.649 811.417 335.912 809.22 334.763 807.236C333.502 805.06 331.78 803.188 329.719 801.754C325.512 805.203 321.505 808.892 317.717 812.802C313.407 817.308 309.417 822.113 305.777 827.181Z" fill="white"/>
<path fill-rule="evenodd" clip-rule="evenodd" d="M237.255 735.444L105.112 823.895L167.733 1027.03L180.43 1023.11L120.723 829.434L236.282 752.083L258.456 771.015L267.083 760.911L237.255 735.444Z" fill="#607B99"/>
<path d="M238.395 759.693C229.981 759.693 223.161 753.089 223.161 744.942C223.161 736.795 229.981 730.191 238.395 730.191C246.809 730.191 253.629 736.795 253.629 744.942C253.629 753.089 246.809 759.693 238.395 759.693Z" fill="#607B99"/>
<path d="M230.778 744.942C230.778 746.972 231.581 748.919 233.009 750.354C234.438 751.79 236.375 752.596 238.396 752.596C240.416 752.596 242.353 751.79 243.782 750.354C245.21 748.919 246.013 746.972 246.013 744.942C246.013 742.911 245.21 740.964 243.782 739.529C242.353 738.093 240.416 737.287 238.396 737.287C236.375 737.287 234.438 738.093 233.009 739.529C231.581 740.964 230.778 742.911 230.778 744.942Z" fill="#8CA0B3"/>
<path d="M112.506 1050.21H270.079C270.079 1041.86 266.78 1033.86 260.907 1027.96C255.035 1022.06 247.071 1018.74 238.766 1018.74H143.819C135.514 1018.74 127.55 1022.06 121.677 1027.96C115.805 1033.86 112.506 1041.86 112.506 1050.21Z" fill="#2CC3D5"/>
<path d="M209.161 1010.88H237.592V1019.53H209.161V1010.88Z" fill="#607B99"/>
<path d="M114.132 849.339C102.353 849.339 92.8043 840.095 92.8043 828.692C92.8043 817.288 102.353 808.044 114.132 808.044C125.912 808.044 135.46 817.288 135.46 828.692C135.46 840.095 125.912 849.339 114.132 849.339Z" fill="#607B99"/>
<path d="M103.468 828.691C103.395 830.825 103.957 832.932 105.083 834.743C106.209 836.554 107.847 837.985 109.788 838.853C111.729 839.722 113.884 839.988 115.976 839.618C118.069 839.247 120.003 838.257 121.532 836.774C123.061 835.291 124.114 833.383 124.556 831.295C124.999 829.206 124.81 827.033 124.015 825.053C123.22 823.073 121.855 821.377 120.094 820.182C118.333 818.987 116.257 818.348 114.132 818.346C112.756 818.322 111.389 818.57 110.108 819.076C108.827 819.583 107.658 820.338 106.668 821.299C105.678 822.259 104.886 823.406 104.337 824.675C103.788 825.943 103.493 827.308 103.468 828.691Z" fill="#8CA0B3"/>
<path d="M339.942 984.919H159.931V935.917H339.942C345.876 935.917 351.567 938.274 355.763 942.471C359.96 946.667 362.317 952.358 362.317 958.292V962.618C362.297 968.54 359.931 974.212 355.737 978.392C351.543 982.572 345.863 984.919 339.942 984.919Z" fill="#F5F8F9"/>
<path fill-rule="evenodd" clip-rule="evenodd" d="M343.671 943.879H152.808V932.355H343.671C356.448 932.355 368.078 941.738 368.078 954.489V964.856C368.078 977.735 356.466 986.989 343.671 986.989H152.808V975.466H343.671C351.535 975.466 356.555 970.027 356.555 964.856V954.489C356.555 949.413 351.478 943.879 343.671 943.879Z" fill="#B766F6"/>
<path d="M350.682 1049.36H173.096V989.17H350.682C357.246 989.18 363.539 991.792 368.181 996.434C372.822 1001.08 375.434 1007.37 375.444 1013.93V1024.6C375.444 1031.17 372.835 1037.46 368.192 1042.11C363.548 1046.75 357.249 1049.36 350.682 1049.36Z" fill="#F5F8F9"/>
<path fill-rule="evenodd" clip-rule="evenodd" d="M356.716 997.69H165.972V986.167H356.944L357.053 986.171C363.708 986.423 369.992 989.304 374.526 994.183C379.036 999.035 381.448 1005.47 381.243 1012.09V1024.65C381.448 1031.27 379.036 1037.7 374.526 1042.55C369.992 1047.43 363.708 1050.31 357.053 1050.57L356.944 1050.57H165.972V1039.05H356.716C360.286 1038.89 363.651 1037.33 366.085 1034.71C368.542 1032.07 369.85 1028.56 369.723 1024.95L369.719 1024.85V1011.89L369.723 1011.79C369.85 1008.18 368.542 1004.67 366.085 1002.03C363.651 999.408 360.286 997.852 356.716 997.69Z" fill="#F99B45"/>
</g>
<defs>
<filter id="filter0_f_10272_1630" x="852.502" y="994.812" width="106.314" height="54.1045" filterUnits="userSpaceOnUse" color-interpolation-filters="sRGB">
<feFlood flood-opacity="0" result="BackgroundImageFix"/>
<feBlend mode="normal" in="SourceGraphic" in2="BackgroundImageFix" result="shape"/>
<feGaussianBlur stdDeviation="7" result="effect1_foregroundBlur_10272_1630"/>
</filter>
<filter id="filter1_f_10272_1630" x="38.8022" y="1006" width="793.219" height="75.3535" filterUnits="userSpaceOnUse" color-interpolation-filters="sRGB">
<feFlood flood-opacity="0" result="BackgroundImageFix"/>
<feBlend mode="normal" in="SourceGraphic" in2="BackgroundImageFix" result="shape"/>
<feGaussianBlur stdDeviation="7" result="effect1_foregroundBlur_10272_1630"/>
</filter>
<linearGradient id="paint0_linear_10272_1630" x1="541.926" y1="1157.5" x2="542.892" y2="573.191" gradientUnits="userSpaceOnUse">
<stop offset="0.108095" stop-color="#DAF2F4"/>
<stop offset="1" stop-color="#DAF2F4" stop-opacity="0"/>
</linearGradient>
<clipPath id="clip0_10272_1630">
<rect width="1080" height="1080" fill="white"/>
</clipPath>
</defs>
</svg>
