<svg width="1080" height="1094" viewBox="0 0 1080 1094" fill="none" xmlns="http://www.w3.org/2000/svg">
<path opacity="0.1" d="M810.836 130.466L810.836 220.23C810.836 228.004 817.138 234.306 824.912 234.306L897.699 234.306C905.473 234.306 911.775 228.004 911.775 220.23L911.775 130.466C911.775 122.692 905.473 116.39 897.699 116.39L824.912 116.39C817.138 116.39 810.836 122.692 810.836 130.466Z" fill="#2CC3D5"/>
<g style="mix-blend-mode:luminosity" opacity="0.16">
<path d="M940.922 348.056C888.176 293.972 816.179 264.604 744.235 245.296C731.035 241.78 717.784 238.535 704.48 235.453C657.774 224.738 614.708 201.201 579.79 167.306L579.112 166.712C541.496 129.988 509.306 86.5046 465.9 56.8124C435.103 36.0453 399.876 23.3956 363.287 19.9645C326.697 16.5334 289.853 22.4247 255.961 37.1257C188.764 67.6292 138.784 136.641 131.688 212.305C123.132 302.95 172.017 393.433 155.113 482.726C134.245 593.057 13.259 692.627 12.0069 805.068C11.433 860.504 46.8053 940.981 90.786 972.729C134.767 1004.48 190.903 1015.02 243.91 1007.94C324.775 997.121 395.207 899.769 468.769 863.046C547.792 823.473 632.279 796.906 719.193 784.299C778.042 775.808 839.187 773.482 892.767 746.44C960.59 712.259 1007.81 639.083 1015.94 561.31C1024.08 483.537 994.554 402.951 940.922 348.056Z" fill="#B9CBD3"/>
</g>
<g opacity="0.2" filter="url(#filter0_f_10272_1612)">
<path d="M648.073 1061.86C648.073 1071.88 568.903 1080 471.242 1080C373.581 1080 294.411 1071.88 294.411 1061.86C294.411 1051.85 373.581 1043.73 471.242 1043.73C568.903 1043.73 648.073 1051.85 648.073 1061.86Z" fill="#0A0F1A"/>
</g>
<path opacity="0.15" d="M801.138 120.766L801.138 210.531C801.138 218.305 807.44 224.607 815.213 224.607L888 224.607C895.774 224.607 902.076 218.305 902.076 210.531L902.076 120.766C902.076 112.993 895.774 106.691 888 106.691L815.213 106.691C807.44 106.691 801.138 112.993 801.138 120.766Z" fill="#2CC3D5"/>
<path d="M139.514 394.896C136.362 394.896 133.282 393.961 130.661 392.21C128.041 390.459 125.999 387.971 124.793 385.059C123.586 382.147 123.271 378.944 123.886 375.853C124.501 372.762 126.018 369.922 128.247 367.694C130.475 365.465 133.314 363.948 136.405 363.333C139.496 362.718 142.7 363.034 145.612 364.24C148.523 365.446 151.012 367.488 152.763 370.109C154.514 372.729 155.448 375.81 155.448 378.961C155.445 383.186 153.765 387.237 150.777 390.225C147.79 393.212 143.739 394.892 139.514 394.896ZM139.514 365.798C136.911 365.798 134.366 366.57 132.201 368.016C130.036 369.463 128.349 371.519 127.353 373.924C126.356 376.329 126.096 378.976 126.604 381.529C127.112 384.083 128.365 386.428 130.206 388.269C132.047 390.11 134.393 391.364 136.946 391.872C139.499 392.379 142.146 392.119 144.551 391.122C146.957 390.126 149.012 388.439 150.459 386.274C151.905 384.11 152.677 381.565 152.677 378.961C152.674 375.471 151.285 372.125 148.818 369.657C146.35 367.19 143.004 365.802 139.514 365.798Z" fill="#D2DFE6"/>
<path d="M612.003 784.249C608.852 784.249 605.771 783.315 603.151 781.564C600.53 779.813 598.488 777.324 597.282 774.413C596.076 771.501 595.76 768.297 596.375 765.206C596.99 762.115 598.507 759.276 600.736 757.048C602.964 754.819 605.804 753.301 608.895 752.687C611.986 752.072 615.189 752.387 618.101 753.593C621.013 754.799 623.501 756.842 625.252 759.462C627.003 762.083 627.938 765.163 627.938 768.315C627.934 772.54 626.254 776.591 623.267 779.578C620.279 782.566 616.228 784.246 612.003 784.249ZM612.003 755.152C609.4 755.152 606.855 755.924 604.69 757.37C602.525 758.816 600.838 760.872 599.842 763.277C598.846 765.683 598.585 768.329 599.093 770.883C599.601 773.436 600.855 775.782 602.695 777.623C604.536 779.463 606.882 780.717 609.435 781.225C611.989 781.733 614.635 781.472 617.041 780.476C619.446 779.48 621.502 777.793 622.948 775.628C624.394 773.463 625.166 770.918 625.166 768.315C625.163 764.825 623.775 761.479 621.307 759.011C618.839 756.543 615.493 755.155 612.003 755.152Z" fill="#D2DFE6"/>
<path d="M1056.78 678.943C1062.52 678.943 1067.17 674.291 1067.17 668.551C1067.17 662.812 1062.52 658.159 1056.78 658.159C1051.04 658.159 1046.39 662.812 1046.39 668.551C1046.39 674.291 1051.04 678.943 1056.78 678.943Z" fill="#D2DFE6"/>
<path d="M372.295 332.543C376.503 332.543 379.915 329.131 379.915 324.923C379.915 320.714 376.503 317.302 372.295 317.302C368.086 317.302 364.674 320.714 364.674 324.923C364.674 329.131 368.086 332.543 372.295 332.543Z" fill="#D2DFE6"/>
<path d="M375.347 718.025C374.228 718.026 373.137 717.677 372.227 717.026C371.318 716.374 370.635 715.454 370.276 714.395L364.941 698.225C364.499 696.875 364.609 695.406 365.246 694.137C365.559 693.511 365.993 692.953 366.524 692.497C367.054 692.04 367.67 691.693 368.336 691.477L384.52 686.142C385.185 685.921 385.887 685.834 386.586 685.885C387.284 685.937 387.966 686.125 388.592 686.441C389.218 686.756 389.775 687.192 390.232 687.723C390.688 688.255 391.036 688.871 391.254 689.537L396.602 705.665C396.827 706.331 396.917 707.035 396.868 707.736C396.819 708.437 396.631 709.121 396.315 709.749C395.999 710.377 395.562 710.935 395.028 711.393C394.495 711.85 393.876 712.197 393.207 712.413L377.037 717.748C376.492 717.929 375.922 718.022 375.347 718.025ZM386.182 688.595C385.908 688.594 385.636 688.641 385.379 688.733L369.209 694.068C368.887 694.171 368.589 694.338 368.332 694.557C368.076 694.777 367.865 695.045 367.713 695.347C367.561 695.649 367.47 695.978 367.446 696.315C367.422 696.652 367.466 696.99 367.574 697.31L372.908 713.48C373.124 714.125 373.585 714.659 374.193 714.966C374.8 715.272 375.504 715.326 376.151 715.115L392.334 709.781C392.654 709.678 392.95 709.513 393.205 709.294C393.46 709.075 393.668 708.807 393.817 708.506C394.122 707.895 394.177 707.189 393.969 706.538L388.621 690.368C388.454 689.853 388.128 689.404 387.69 689.085C387.252 688.766 386.724 688.595 386.182 688.595Z" fill="#D2DFE6"/>
<path d="M623.373 176.253C622.539 176.255 621.717 176.055 620.976 175.671C620.351 175.365 619.793 174.938 619.334 174.414C618.875 173.891 618.524 173.282 618.302 172.622L612.968 156.453C612.746 155.787 612.659 155.084 612.71 154.384C612.761 153.684 612.95 153.001 613.265 152.374C613.58 151.747 614.016 151.189 614.548 150.731C615.079 150.273 615.696 149.924 616.362 149.705L632.546 144.37C633.889 143.928 635.353 144.037 636.616 144.674C637.878 145.31 638.837 146.422 639.28 147.765L644.628 163.893C644.853 164.559 644.944 165.263 644.895 165.964C644.845 166.665 644.657 167.349 644.342 167.977C644.026 168.604 643.588 169.163 643.055 169.621C642.521 170.078 641.902 170.425 641.234 170.641L625.064 175.976C624.518 176.157 623.948 176.25 623.373 176.253ZM634.209 146.823C633.935 146.823 633.663 146.869 633.405 146.961L617.235 152.296C616.59 152.511 616.056 152.973 615.75 153.58C615.443 154.187 615.39 154.891 615.6 155.538L620.935 171.708C621.15 172.353 621.612 172.887 622.219 173.193C622.826 173.5 623.53 173.554 624.177 173.343L640.361 168.008C641.006 167.793 641.54 167.332 641.846 166.724C642.153 166.117 642.206 165.413 641.996 164.766L636.647 148.596C636.48 148.081 636.155 147.632 635.716 147.313C635.278 146.994 634.751 146.823 634.209 146.823Z" fill="#D2DFE6"/>
<path d="M545.468 639.887C544.954 639.876 544.446 639.764 543.976 639.556C543.505 639.349 543.08 639.05 542.724 638.678C542.369 638.306 542.091 637.867 541.906 637.387C541.721 636.907 541.632 636.395 541.645 635.881L541.861 629.185C533.454 628.556 522.639 625.29 517.158 619.205C510.363 611.641 508.952 601.348 508.99 594.096C509.01 581.416 513.569 571.814 521.843 567.071C528.447 563.26 537.468 562.713 543.865 562.93C548.699 563.079 553.505 563.715 558.211 564.827C568.981 567.435 576.135 574.954 577.862 585.428C579.884 597.769 577.494 609.968 571.499 617.994C568.695 621.463 565.527 624.621 562.048 627.414L560.134 629.047C555.806 632.833 551.374 636.431 547.991 639.119C547.36 639.61 546.595 639.9 545.797 639.95L545.468 639.887ZM543.754 567.705C535.606 567.441 528.704 568.672 524.314 571.205C515.28 576.403 513.905 587.729 513.894 594.033C513.882 600.338 515.07 609.531 520.831 615.947C525.532 621.167 535.936 624.148 543.784 624.413C544.201 624.422 544.611 624.514 544.992 624.684C545.372 624.854 545.715 625.099 545.999 625.403C546.284 625.707 546.506 626.065 546.65 626.455C546.795 626.846 546.86 627.261 546.843 627.678L546.627 633.903C549.676 631.425 553.364 628.407 556.965 625.267L558.9 623.6C562.104 621.045 565.031 618.161 567.635 614.996C572.901 608.016 574.941 597.199 573.111 586.123C571.698 577.526 566.027 571.601 557.12 569.441C552.734 568.422 548.257 567.845 543.757 567.718L543.754 567.705Z" fill="#D2DFE6"/>
<path d="M1005.51 363.027C1034.21 363.027 1057.47 339.764 1057.47 311.067C1057.47 282.37 1034.21 259.107 1005.51 259.107C976.816 259.107 953.553 282.37 953.553 311.067C953.553 339.764 976.816 363.027 1005.51 363.027Z" fill="#2CC3D5"/>
<path opacity="0.5" d="M1035.37 296.837C1034.87 294.1 1033.54 291.585 1031.55 289.634C1029.57 287.683 1027.03 286.39 1024.29 285.932C1021.7 285.414 1019.06 285.154 1016.42 285.156C1012.93 285.156 1008.02 285.614 1004.47 287.803C1001.56 289.699 999.482 292.647 998.683 296.033C1001.45 296.267 1004.14 297.094 1006.57 298.458C1011 301.229 1013.31 306.522 1013.11 313.436C1013.05 315.932 1012.63 318.406 1011.86 320.78C1013.38 321.112 1014.93 321.321 1016.49 321.404V325.089C1016.49 325.663 1016.72 326.212 1017.12 326.618C1017.53 327.023 1018.08 327.251 1018.65 327.251H1018.84C1019.28 327.212 1019.7 327.037 1020.03 326.752C1021.82 325.214 1024.19 323.177 1026.48 321.029L1027.48 320.101C1029.33 318.529 1031.01 316.759 1032.48 314.822C1035.62 310.236 1036.7 303.543 1035.37 296.837Z" fill="white"/>
<path d="M1006.55 298.458C1003 296.255 998.099 295.798 994.608 295.798C991.965 295.795 989.329 296.055 986.737 296.574C983.994 297.039 981.459 298.335 979.476 300.288C977.494 302.241 976.159 304.756 975.653 307.492C974.267 314.199 975.417 320.891 978.562 325.38C980.032 327.321 981.709 329.096 983.564 330.673L984.562 331.602C986.848 333.722 989.204 335.759 991.019 337.324C991.345 337.597 991.746 337.766 992.169 337.809H992.405C992.973 337.806 993.517 337.578 993.919 337.176C994.321 336.774 994.549 336.23 994.552 335.662V332.017C999.152 331.823 1005.08 330.244 1008.19 327.015C1012.02 323.011 1012.98 317.399 1013.11 313.409C1013.3 306.522 1010.99 301.202 1006.55 298.458Z" fill="white"/>
<path d="M886.636 474.195C885.804 474.191 884.984 473.996 884.239 473.626C882.973 472.985 882.012 471.87 881.565 470.523L876.23 454.353C876.01 453.686 875.923 452.982 875.975 452.282C876.026 451.581 876.216 450.898 876.533 450.271C876.85 449.644 877.287 449.086 877.82 448.628C878.353 448.171 878.971 447.823 879.639 447.605L895.809 442.27C897.154 441.831 898.618 441.942 899.882 442.578C901.146 443.214 902.107 444.323 902.557 445.665L907.891 461.849C908.111 462.515 908.197 463.217 908.144 463.916C908.092 464.615 907.902 465.297 907.586 465.923C907.273 466.55 906.836 467.109 906.303 467.566C905.77 468.023 905.151 468.369 904.483 468.583L888.313 473.917C887.772 474.098 887.206 474.192 886.636 474.195ZM897.485 444.764C897.212 444.769 896.941 444.816 896.682 444.903L880.498 450.238C879.853 450.453 879.319 450.914 879.012 451.522C878.706 452.129 878.652 452.833 878.863 453.48L884.197 469.65C884.413 470.299 884.876 470.837 885.486 471.146C885.786 471.298 886.113 471.389 886.449 471.413C886.784 471.437 887.121 471.393 887.44 471.285L903.624 465.95C903.944 465.848 904.24 465.682 904.494 465.463C904.749 465.244 904.957 464.976 905.106 464.675C905.26 464.374 905.353 464.045 905.379 463.707C905.405 463.369 905.364 463.03 905.259 462.708L899.924 446.538C899.704 445.892 899.242 445.355 898.635 445.042C898.278 444.862 897.885 444.767 897.485 444.764Z" fill="#D2DFE6"/>
<path d="M496.763 78.508C518.443 78.508 536.017 60.9334 536.017 39.254C536.017 17.5746 518.443 0 496.763 0C475.084 0 457.509 17.5746 457.509 39.254C457.509 60.9334 475.084 78.508 496.763 78.508Z" fill="#517BF2"/>
<path opacity="0.5" d="M488.214 48.7873C490.785 48.7873 492.87 46.7029 492.87 44.1317C492.87 41.5605 490.785 39.4761 488.214 39.4761C485.643 39.4761 483.559 41.5605 483.559 44.1317C483.559 46.7029 485.643 48.7873 488.214 48.7873Z" fill="white"/>
<path opacity="0.5" d="M488.726 49.0087H487.701C485.921 49.0087 484.214 49.7148 482.954 50.9721C481.694 52.2293 480.984 53.9351 480.981 55.715V58.4862C480.966 58.741 481.003 58.9962 481.09 59.2361C481.177 59.476 481.313 59.6955 481.488 59.8811C481.663 60.0667 481.875 60.2145 482.109 60.3154C482.343 60.4162 482.596 60.468 482.851 60.4676H493.645C493.891 60.4694 494.135 60.4223 494.363 60.3289C494.591 60.2356 494.798 60.0979 494.972 59.9238C495.146 59.7497 495.284 59.5428 495.377 59.315C495.47 59.0872 495.518 58.8432 495.516 58.597V55.8258C495.529 54.9293 495.362 54.0393 495.026 53.2081C494.69 52.377 494.191 51.6215 493.558 50.9863C492.925 50.351 492.172 49.8488 491.342 49.5091C490.512 49.1695 489.623 48.9993 488.726 49.0087Z" fill="white"/>
<path d="M512.17 25.8279C511.82 24.008 510.918 22.3401 509.587 21.0509C508.256 19.7618 506.56 18.9139 504.729 18.6228C503.01 18.2787 501.26 18.107 499.506 18.1101C496.756 17.9968 494.024 18.6033 491.58 19.8698C488.629 21.6988 487.091 25.2321 487.229 29.8323C487.185 33.1411 488.347 36.3528 490.499 38.8664C492.55 41.0002 496.457 42.0532 499.506 42.1918V44.5473C499.506 44.9368 499.66 45.3104 499.936 45.5859C500.211 45.8613 500.585 46.016 500.974 46.016H501.113C501.414 45.9859 501.699 45.8652 501.931 45.6696C503.122 44.6443 504.702 43.3003 506.198 41.887L506.863 41.2634C508.126 40.2251 509.269 39.0493 510.272 37.7579C512.46 34.1898 513.143 29.899 512.17 25.8279Z" fill="white"/>
<path d="M285.002 512.672C313.699 512.672 336.962 489.409 336.962 460.712C336.962 432.015 313.699 408.752 285.002 408.752C256.305 408.752 233.042 432.015 233.042 460.712C233.042 489.409 256.305 512.672 285.002 512.672Z" fill="#FF7B80"/>
<path opacity="0.5" d="M283.491 456.57C285.612 456.57 287.686 455.941 289.449 454.762C291.213 453.584 292.588 451.909 293.399 449.949C294.211 447.99 294.423 445.833 294.01 443.753C293.596 441.673 292.574 439.762 291.075 438.262C289.575 436.762 287.664 435.74 285.583 435.327C283.503 434.913 281.347 435.125 279.387 435.937C277.427 436.749 275.752 438.123 274.574 439.887C273.396 441.651 272.767 443.724 272.767 445.845C272.77 448.688 273.901 451.414 275.912 453.424C277.922 455.435 280.648 456.566 283.491 456.57Z" fill="white"/>
<path opacity="0.5" d="M286.484 478.85C286.484 475.91 287.652 473.09 289.731 471.011C291.81 468.933 294.629 467.765 297.569 467.765H298.179C296.205 464.554 293.237 462.076 289.727 460.706C286.216 459.336 282.354 459.15 278.727 460.175C275.101 461.201 271.908 463.382 269.635 466.387C267.361 469.393 266.13 473.058 266.13 476.827V483.159C266.134 483.999 266.469 484.804 267.063 485.398C267.658 485.993 268.462 486.328 269.303 486.332H289.339C287.488 484.281 286.47 481.612 286.484 478.85Z" fill="white"/>
<path d="M297.61 467.724C295.418 467.724 293.275 468.374 291.452 469.592C289.629 470.81 288.208 472.541 287.369 474.566C286.53 476.592 286.311 478.821 286.738 480.971C287.166 483.121 288.222 485.096 289.772 486.647C291.322 488.197 293.297 489.253 295.448 489.68C297.598 490.108 299.827 489.888 301.852 489.049C303.878 488.21 305.609 486.79 306.827 484.967C308.045 483.144 308.695 481.001 308.695 478.808C308.695 475.869 307.527 473.049 305.448 470.97C303.37 468.891 300.55 467.724 297.61 467.724ZM303.277 477.284L296.668 483.506C296.462 483.701 296.19 483.81 295.906 483.81C295.621 483.811 295.345 483.707 295.13 483.519L291.874 480.485C291.656 480.284 291.527 480.005 291.514 479.709C291.501 479.414 291.605 479.125 291.805 478.905C292.008 478.687 292.289 478.557 292.587 478.544C292.885 478.531 293.177 478.636 293.398 478.836L295.892 481.15L301.739 475.608C301.844 475.503 301.968 475.419 302.104 475.362C302.241 475.305 302.388 475.276 302.536 475.276C302.684 475.276 302.831 475.305 302.968 475.362C303.104 475.419 303.228 475.503 303.333 475.608C303.45 475.716 303.542 475.848 303.603 475.994C303.665 476.141 303.694 476.3 303.689 476.459C303.683 476.618 303.644 476.774 303.573 476.916C303.502 477.059 303.401 477.184 303.277 477.284Z" fill="white"/>
<g filter="url(#filter1_d_10272_1612)">
<path d="M792.236 109.681L792.236 199.446C792.236 207.22 798.538 213.522 806.312 213.522L879.099 213.522C886.873 213.522 893.175 207.22 893.175 199.446L893.175 109.681C893.175 101.908 886.873 95.6058 879.099 95.6058L806.312 95.6058C798.538 95.6058 792.236 101.908 792.236 109.681Z" fill="white"/>
</g>
<path d="M842.676 157.278C853.175 157.278 861.686 148.768 861.686 138.269C861.686 127.771 853.175 119.26 842.676 119.26C832.178 119.26 823.667 127.771 823.667 138.269C823.667 148.768 832.178 157.278 842.676 157.278Z" fill="#B97CE8"/>
<path fill-rule="evenodd" clip-rule="evenodd" d="M816.465 173.559C816.465 170.576 818.884 168.157 821.867 168.157H863.514C866.497 168.157 868.916 170.576 868.916 173.559C868.916 176.543 866.497 178.961 863.514 178.961H821.867C818.884 178.961 816.465 176.543 816.465 173.559Z" fill="#D2DFE6"/>
<path fill-rule="evenodd" clip-rule="evenodd" d="M825.659 189.869C825.659 188.005 827.171 186.493 829.035 186.493H856.316C858.181 186.493 859.692 188.005 859.692 189.869C859.692 191.734 858.181 193.246 856.316 193.246H829.035C827.171 193.246 825.659 191.734 825.659 189.869Z" fill="#D2DFE6"/>
<path opacity="0.1" d="M91.4556 616.28C91.4556 611.553 95.2875 607.721 100.014 607.721H209.242C213.969 607.721 217.801 611.553 217.801 616.28V684.751C217.801 689.478 213.969 693.31 209.242 693.31H100.014C95.2875 693.31 91.4556 689.478 91.4556 684.751V616.28Z" fill="#2CC3D5"/>
<path opacity="0.15" d="M81.3408 607.852C81.3408 603.125 85.1728 599.293 89.8997 599.293H199.127C203.854 599.293 207.686 603.125 207.686 607.852V676.323C207.686 681.05 203.854 684.882 199.127 684.882H89.8997C85.1728 684.882 81.3408 681.05 81.3408 676.323V607.852Z" fill="#2CC3D5"/>
<g filter="url(#filter2_d_10272_1612)">
<path d="M69.541 596.052C69.541 591.325 73.373 587.493 78.0999 587.493H187.327C192.054 587.493 195.886 591.325 195.886 596.052V664.523C195.886 669.25 192.054 673.082 187.327 673.082H78.0999C73.373 673.082 69.541 669.25 69.541 664.523V596.052Z" fill="white"/>
</g>
<path d="M185.035 609.079H158.565C158.164 609.194 157.742 609.214 157.332 609.137C156.922 609.061 156.536 608.891 156.203 608.639C155.87 608.388 155.6 608.063 155.414 607.69C155.228 607.317 155.131 606.906 155.131 606.489C155.131 606.072 155.228 605.661 155.414 605.288C155.6 604.915 155.87 604.59 156.203 604.339C156.536 604.088 156.922 603.917 157.332 603.841C157.742 603.765 158.164 603.785 158.565 603.899H185.035C185.598 604.06 186.093 604.4 186.446 604.867C186.798 605.334 186.989 605.904 186.989 606.489C186.989 607.074 186.798 607.644 186.446 608.111C186.093 608.579 185.598 608.918 185.035 609.079Z" fill="#D2DFE6"/>
<path d="M185.035 617.23H158.565C158.164 617.344 157.742 617.364 157.332 617.288C156.922 617.212 156.536 617.041 156.203 616.79C155.87 616.539 155.6 616.214 155.414 615.841C155.228 615.468 155.131 615.057 155.131 614.64C155.131 614.223 155.228 613.812 155.414 613.439C155.6 613.065 155.87 612.741 156.203 612.489C156.536 612.238 156.922 612.068 157.332 611.992C157.742 611.915 158.164 611.935 158.565 612.05H185.035C185.598 612.211 186.093 612.55 186.446 613.018C186.798 613.485 186.989 614.055 186.989 614.64C186.989 615.225 186.798 615.795 186.446 616.262C186.093 616.729 185.598 617.069 185.035 617.23Z" fill="#D2DFE6"/>
<path d="M136.181 656.217H92.5629C92.0825 656.217 91.6217 656.026 91.282 655.686C90.9423 655.347 90.7515 654.886 90.7515 654.406V610.244C90.7515 609.763 90.9423 609.302 91.282 608.963C91.6217 608.623 92.0825 608.432 92.5629 608.432C93.0433 608.432 93.504 608.623 93.8437 608.963C94.1834 609.302 94.3743 609.763 94.3743 610.244V652.594H136.181C136.662 652.594 137.123 652.785 137.462 653.125C137.802 653.464 137.993 653.925 137.993 654.406C137.993 654.886 137.802 655.347 137.462 655.686C137.123 656.026 136.662 656.217 136.181 656.217Z" fill="#D2DFE6"/>
<path opacity="0.7" d="M111.655 644.48C110.562 644.51 109.487 644.193 108.585 643.574C100.216 636.999 95.1895 642.949 94.9993 643.212C94.6094 643.645 94.0676 643.911 93.4865 643.955C92.9054 643.999 92.3298 643.817 91.8795 643.447C91.4292 643.077 91.1388 642.548 91.0687 641.969C90.9986 641.391 91.1543 640.808 91.5033 640.341C91.5848 640.241 99.5459 630.786 111.284 639.915C111.882 640.196 113.892 639.915 116.6 635.206C121.636 626.475 131.037 620.877 131.436 620.642C131.953 620.337 132.571 620.25 133.153 620.4C133.734 620.55 134.233 620.926 134.538 621.443C134.843 621.961 134.93 622.579 134.779 623.16C134.629 623.742 134.254 624.24 133.736 624.545C133.646 624.591 124.951 629.798 120.522 637.47C118.185 641.518 115.622 643.81 112.896 644.398C112.486 644.464 112.07 644.492 111.655 644.48ZM111.275 639.897L111.347 639.951L111.275 639.897Z" fill="#2CC3D5"/>
<path opacity="0.8" d="M93.1784 643.999C92.7689 643.998 92.3674 643.886 92.0167 643.674C91.666 643.463 91.3792 643.16 91.1868 642.799C90.9944 642.437 90.9037 642.03 90.9242 641.621C90.9448 641.212 91.0759 640.816 91.3036 640.476C92.2909 639.009 101.167 626.302 109.843 626.302H109.943C112.126 626.302 115.259 627.207 117.823 631.156C119.915 634.399 122.143 636.129 124.443 636.274C127.876 636.482 130.783 633.23 130.783 633.203C130.97 632.961 131.204 632.759 131.472 632.61C131.739 632.461 132.034 632.368 132.338 632.336C132.642 632.304 132.95 632.334 133.242 632.424C133.534 632.514 133.805 632.663 134.039 632.861C134.272 633.059 134.463 633.302 134.6 633.575C134.737 633.849 134.817 634.148 134.835 634.453C134.853 634.758 134.809 635.064 134.706 635.352C134.603 635.64 134.442 635.904 134.234 636.129C134.062 636.337 129.896 641.164 124.153 640.793C120.349 640.539 116.908 638.13 114.028 633.611C112.832 631.799 111.483 630.894 109.907 630.83H109.843C105.097 630.83 98.2504 638.284 95.0442 643.012C94.8373 643.316 94.5592 643.565 94.2339 643.737C93.9087 643.909 93.5464 643.999 93.1784 643.999Z" fill="#F9B42F"/>
<path opacity="0.1" d="M963.148 616.707H841.03C832.126 616.707 824.908 623.925 824.908 632.829V701.758C824.908 710.662 832.126 717.881 841.03 717.881H963.148C972.052 717.881 979.271 710.662 979.271 701.758V632.829C979.271 623.925 972.052 616.707 963.148 616.707Z" fill="#2CC3D5"/>
<path opacity="0.15" d="M951.263 606.307H829.145C820.241 606.307 813.022 613.526 813.022 622.43V691.358C813.022 700.263 820.241 707.481 829.145 707.481H951.263C960.167 707.481 967.386 700.263 967.386 691.358V622.43C967.386 613.526 960.167 606.307 951.263 606.307Z" fill="#2CC3D5"/>
<g filter="url(#filter3_d_10272_1612)">
<path d="M939.378 594.422H817.26C808.356 594.422 801.138 601.64 801.138 610.545V679.473C801.138 688.378 808.356 695.596 817.26 695.596H939.378C948.282 695.596 955.501 688.378 955.501 679.473V610.545C955.501 601.64 948.282 594.422 939.378 594.422Z" fill="white"/>
</g>
<path d="M843.904 666.91C856 666.91 865.805 657.105 865.805 645.009C865.805 632.913 856 623.107 843.904 623.107C831.808 623.107 822.002 632.913 822.002 645.009C822.002 657.105 831.808 666.91 843.904 666.91Z" fill="#4DCB7B"/>
<path fill-rule="evenodd" clip-rule="evenodd" d="M882.195 635.623C882.195 633.161 884.19 631.166 886.652 631.166H934.637C937.098 631.166 939.094 633.161 939.094 635.623C939.094 638.084 937.098 640.08 934.637 640.08H886.652C884.19 640.08 882.195 638.084 882.195 635.623Z" fill="#D2DFE6"/>
<path fill-rule="evenodd" clip-rule="evenodd" d="M882.195 654.411C882.195 651.95 884.19 649.954 886.652 649.954H918.099C920.561 649.954 922.556 651.95 922.556 654.411C922.556 656.873 920.561 658.868 918.099 658.868H886.652C884.19 658.868 882.195 656.873 882.195 654.411Z" fill="#D2DFE6"/>
<path d="M854.677 640.906C854.372 639.3 853.58 637.826 852.41 636.684C851.239 635.542 849.746 634.787 848.132 634.521C846.618 634.223 845.078 634.073 843.535 634.074C841.1 633.99 838.685 634.54 836.527 635.671C835.305 636.444 834.33 637.552 833.718 638.863C833.61 639.085 833.594 639.342 833.675 639.575C833.756 639.809 833.926 640 834.149 640.108C834.371 640.216 834.627 640.232 834.86 640.151C835.094 640.07 835.286 639.9 835.394 639.677C835.855 638.7 836.586 637.874 837.501 637.299C839.366 636.353 841.447 635.912 843.535 636.022C844.95 636.017 846.362 636.157 847.749 636.437C849.017 636.629 850.193 637.214 851.109 638.111C852.026 639.008 852.637 640.17 852.857 641.433C853.603 644.523 853.098 647.781 851.453 650.5C850.684 651.46 849.823 652.342 848.883 653.134L848.276 653.677C847.286 654.603 846.249 655.513 845.371 656.279V654.683C845.371 654.374 845.248 654.077 845.029 653.859C844.811 653.64 844.514 653.517 844.205 653.517C841.593 653.583 839.038 652.743 836.974 651.139C836.805 650.961 836.572 650.858 836.326 650.852C836.081 650.846 835.843 650.938 835.665 651.107C835.487 651.276 835.384 651.509 835.378 651.755C835.372 652 835.464 652.238 835.633 652.416C837.846 654.275 840.63 655.317 843.519 655.369V657.285C843.519 657.653 843.665 658.006 843.926 658.267C844.186 658.527 844.539 658.673 844.908 658.673H845.02C845.308 658.643 845.581 658.526 845.802 658.338C846.855 657.444 848.212 656.263 849.553 655.018L850.128 654.475C851.209 653.556 852.189 652.523 853.049 651.394C854.954 648.25 855.539 644.48 854.677 640.906Z" fill="white"/>
<path d="M839.753 648.888C839.554 649.106 839.443 649.391 839.443 649.686C839.443 649.982 839.554 650.267 839.753 650.484C839.966 650.68 840.246 650.789 840.535 650.788C840.697 650.789 840.856 650.756 841.004 650.693C841.153 650.63 841.286 650.537 841.397 650.421L845.42 646.047V645.951C845.42 645.951 845.42 645.951 845.42 645.855C845.42 645.759 845.42 645.855 845.42 645.775C845.428 645.744 845.428 645.711 845.42 645.68C845.413 645.648 845.413 645.615 845.42 645.584C845.413 645.558 845.413 645.53 845.42 645.504C845.428 645.472 845.428 645.44 845.42 645.408C845.42 645.408 845.42 645.408 845.42 645.312V645.233L841.397 640.875C841.293 640.763 841.167 640.672 841.027 640.609C840.887 640.545 840.736 640.51 840.583 640.505C840.429 640.499 840.277 640.524 840.133 640.578C839.989 640.632 839.857 640.714 839.745 640.819C839.633 640.924 839.543 641.049 839.479 641.189C839.416 641.329 839.38 641.48 839.375 641.633C839.37 641.787 839.395 641.94 839.449 642.083C839.503 642.227 839.585 642.359 839.689 642.471L841.924 644.897H833.943C833.79 644.897 833.638 644.927 833.497 644.986C833.355 645.045 833.227 645.13 833.119 645.239C833.01 645.347 832.925 645.475 832.866 645.617C832.807 645.758 832.777 645.91 832.777 646.063C832.782 646.369 832.906 646.661 833.124 646.876C833.342 647.091 833.636 647.212 833.943 647.212H841.924L839.753 648.888Z" fill="white"/>
<path opacity="0.3" d="M71.7012 93.0504C71.7012 85.3383 77.9531 79.0864 85.6651 79.0864H302.107C309.819 79.0864 316.071 85.3383 316.071 93.0504V236.181C316.071 243.893 309.819 250.145 302.107 250.145H85.6651C77.953 250.145 71.7012 243.893 71.7012 236.181V93.0504Z" fill="#C3EEF4"/>
<path opacity="0.3" d="M85.6646 110.506C85.6646 102.794 91.9164 96.5425 99.6285 96.5425H316.07C323.782 96.5425 330.034 102.794 330.034 110.506V253.637C330.034 261.349 323.782 267.601 316.07 267.601H99.6285C91.9164 267.601 85.6646 261.349 85.6646 253.637V110.506Z" fill="#C3EEF4"/>
<path d="M61.228 79.087C61.228 71.3749 67.4799 65.123 75.192 65.123H291.634C299.346 65.123 305.597 71.3749 305.597 79.087V222.218C305.597 229.93 299.346 236.182 291.633 236.182H75.192C67.4799 236.182 61.228 229.93 61.228 222.218V79.087Z" fill="#F8FBFB"/>
<path d="M61.228 79.087C61.228 71.3749 67.4799 65.123 75.192 65.123H291.634C299.346 65.123 305.597 71.3749 305.597 79.087V103.524H61.228V79.087Z" fill="#202C44"/>
<path d="M92.6473 84.3229C92.6473 87.2149 90.3028 89.5594 87.4108 89.5594C84.5188 89.5594 82.1743 87.2149 82.1743 84.3229C82.1743 81.4309 84.5188 79.0864 87.4108 79.0864C90.3028 79.0864 92.6473 81.4309 92.6473 84.3229Z" fill="#FF5A60"/>
<path d="M106.612 84.3229C106.612 87.2149 104.267 89.5594 101.375 89.5594C98.4831 89.5594 96.1387 87.2149 96.1387 84.3229C96.1387 81.4309 98.4831 79.0864 101.375 79.0864C104.267 79.0864 106.612 81.4309 106.612 84.3229Z" fill="#F9B42F"/>
<path d="M120.575 84.3229C120.575 87.2149 118.23 89.5594 115.338 89.5594C112.446 89.5594 110.102 87.2149 110.102 84.3229C110.102 81.4309 112.446 79.0864 115.338 79.0864C118.23 79.0864 120.575 81.4309 120.575 84.3229Z" fill="#4DCB7B"/>
<path fill-rule="evenodd" clip-rule="evenodd" d="M172.343 161.423V141.669H177.282V161.423H172.343Z" fill="#DEE8EC"/>
<path fill-rule="evenodd" clip-rule="evenodd" d="M172.343 198.462V173.77H177.282V198.462H172.343Z" fill="#DEE8EC"/>
<path d="M140.243 125.372C140.243 122.1 142.896 119.446 146.169 119.446H208.394C211.667 119.446 214.32 122.1 214.32 125.372V138.212C214.32 141.485 211.667 144.139 208.394 144.139H146.169C142.896 144.139 140.243 141.485 140.243 138.212V125.372Z" fill="#E7EEF1"/>
<path d="M140.243 159.942C140.243 156.669 142.896 154.016 146.169 154.016H208.394C211.667 154.016 214.32 156.669 214.32 159.942V172.782C214.32 176.055 211.667 178.708 208.394 178.708H146.169C142.896 178.708 140.243 176.055 140.243 172.782V159.942Z" fill="#E7EEF1"/>
<path d="M140.243 194.512C140.243 191.239 142.896 188.586 146.169 188.586H208.394C211.667 188.586 214.32 191.239 214.32 194.512V207.352C214.32 210.625 211.667 213.278 208.394 213.278H146.169C142.896 213.278 140.243 210.625 140.243 207.352V194.512Z" fill="#E7EEF1"/>
<path d="M76.043 194.513C76.043 191.24 78.6962 188.586 81.9691 188.586H124.44C127.713 188.586 130.366 191.24 130.366 194.513V207.353C130.366 210.626 127.713 213.279 124.44 213.279H81.9691C78.6962 213.279 76.043 210.626 76.043 207.353V194.513Z" fill="#E7EEF1"/>
<path fill-rule="evenodd" clip-rule="evenodd" d="M100.736 129.324C100.736 127.96 101.841 126.855 103.205 126.855H147.651V131.793H105.674V149.078H100.736V129.324Z" fill="#DEE8EC"/>
<path d="M76.043 150.066C76.043 146.793 78.6962 144.14 81.9691 144.14H124.44C127.713 144.14 130.366 146.793 130.366 150.066V172.783C130.366 176.056 127.713 178.709 124.44 178.709H81.9691C78.6962 178.709 76.043 176.056 76.043 172.783V150.066Z" fill="#E7EEF1"/>
<path d="M283.46 129.323H234.075C231.348 129.323 229.137 131.534 229.137 134.261V203.4C229.137 206.127 231.348 208.338 234.075 208.338H283.46C286.187 208.338 288.398 206.127 288.398 203.4V134.261C288.398 131.534 286.187 129.323 283.46 129.323Z" fill="white"/>
<path d="M229.137 129.324C229.137 126.596 231.348 124.385 234.075 124.385H283.46C286.187 124.385 288.398 126.596 288.398 129.324V134.262H229.137V129.324Z" fill="#202C44"/>
<path fill-rule="evenodd" clip-rule="evenodd" d="M288.398 194.018H229.137V193.031H288.398V194.018Z" fill="#F5F8F9"/>
<path d="M248.891 177.681C248.891 175.521 250.641 173.771 252.801 173.771H279.55C281.709 173.771 283.46 175.521 283.46 177.681V182.996C283.46 183.356 283.168 183.647 282.808 183.647H252.801C250.641 183.647 248.891 181.897 248.891 179.737V177.681Z" fill="#E7EEF1"/>
<path d="M268.645 162.865C268.645 160.706 266.894 158.955 264.734 158.955H237.985C235.826 158.955 234.075 160.706 234.075 162.865V168.18C234.075 168.54 234.367 168.832 234.727 168.832H264.734C266.894 168.832 268.645 167.081 268.645 164.922V162.865Z" fill="#2CC3D5"/>
<path opacity="0.3" d="M489.966 319.331C489.966 310.736 496.934 303.768 505.529 303.768H746.761C755.357 303.768 762.325 310.736 762.325 319.331V478.856C762.325 487.451 755.357 494.419 746.761 494.419H505.529C496.934 494.419 489.966 487.451 489.966 478.856V319.331Z" fill="#C3EEF4"/>
<path opacity="0.3" d="M505.529 338.787C505.529 330.191 512.497 323.223 521.092 323.223H762.324C770.92 323.223 777.888 330.191 777.888 338.786V498.311C777.888 506.906 770.92 513.874 762.324 513.874H521.092C512.497 513.874 505.529 506.906 505.529 498.311V338.787Z" fill="#C3EEF4"/>
<path d="M478.292 303.768C478.292 295.173 485.26 288.205 493.856 288.205H735.088C743.683 288.205 750.651 295.173 750.651 303.768V463.292C750.651 471.888 743.683 478.856 735.088 478.856H493.856C485.26 478.856 478.292 471.888 478.292 463.292V303.768Z" fill="#F8FBFB"/>
<path d="M478.292 303.768C478.292 295.173 485.26 288.205 493.856 288.205H735.088C743.683 288.205 750.651 295.173 750.651 303.768V331.004H478.292V303.768Z" fill="#202C44"/>
<path d="M666.153 370.615L666.153 424.736C666.153 429.423 669.953 433.223 674.64 433.223L718.525 433.223C723.212 433.223 727.011 429.423 727.011 424.736L727.011 370.615C727.011 365.928 723.212 362.128 718.525 362.128L674.64 362.128C669.953 362.128 666.153 365.928 666.153 370.615Z" fill="white"/>
<path d="M696.565 399.312C702.895 399.312 708.026 394.181 708.026 387.851C708.026 381.521 702.895 376.39 696.565 376.39C690.235 376.39 685.104 381.521 685.104 387.851C685.104 394.181 690.235 399.312 696.565 399.312Z" fill="#F99B45"/>
<path fill-rule="evenodd" clip-rule="evenodd" d="M681.691 409.129C681.691 407.843 682.734 406.8 684.02 406.8H709.13C710.416 406.8 711.459 407.843 711.459 409.129C711.459 410.415 710.416 411.458 709.13 411.458H684.02C682.734 411.458 681.691 410.415 681.691 409.129Z" fill="#D2DFE6"/>
<path fill-rule="evenodd" clip-rule="evenodd" d="M686.012 418.963C686.012 417.677 687.055 416.634 688.341 416.634H704.789C706.076 416.634 707.119 417.677 707.119 418.963C707.119 420.25 706.076 421.292 704.789 421.292H688.341C687.055 421.292 686.012 420.25 686.012 418.963Z" fill="#D2DFE6"/>
<path d="M585.84 370.615L585.84 424.736C585.84 429.423 589.64 433.223 594.327 433.223L638.212 433.223C642.899 433.223 646.698 429.423 646.698 424.736L646.698 370.615C646.698 365.928 642.899 362.128 638.212 362.128L594.327 362.128C589.64 362.128 585.84 365.928 585.84 370.615Z" fill="white"/>
<path d="M616.252 399.312C622.582 399.312 627.713 394.181 627.713 387.851C627.713 381.521 622.582 376.39 616.252 376.39C609.922 376.39 604.791 381.521 604.791 387.851C604.791 394.181 609.922 399.312 616.252 399.312Z" fill="#2CC3D5"/>
<path fill-rule="evenodd" clip-rule="evenodd" d="M601.378 409.129C601.378 407.843 602.421 406.8 603.707 406.8H628.817C630.103 406.8 631.146 407.843 631.146 409.129C631.146 410.415 630.103 411.458 628.817 411.458H603.707C602.421 411.458 601.378 410.415 601.378 409.129Z" fill="#D2DFE6"/>
<path fill-rule="evenodd" clip-rule="evenodd" d="M605.699 418.963C605.699 417.677 606.742 416.634 608.028 416.634H624.476C625.763 416.634 626.806 417.677 626.806 418.963C626.806 420.25 625.763 421.292 624.476 421.292H608.028C606.742 421.292 605.699 420.25 605.699 418.963Z" fill="#D2DFE6"/>
<path d="M505.529 370.615L505.529 424.736C505.529 429.423 509.328 433.223 514.015 433.223L557.9 433.223C562.587 433.223 566.387 429.423 566.387 424.736L566.387 370.615C566.387 365.928 562.587 362.128 557.9 362.128L514.015 362.128C509.328 362.128 505.529 365.928 505.529 370.615Z" fill="white"/>
<path d="M535.941 399.312C542.271 399.312 547.402 394.181 547.402 387.851C547.402 381.521 542.271 376.39 535.941 376.39C529.611 376.39 524.48 381.521 524.48 387.851C524.48 394.181 529.611 399.312 535.941 399.312Z" fill="#BED42B"/>
<path fill-rule="evenodd" clip-rule="evenodd" d="M521.066 409.129C521.066 407.843 522.109 406.8 523.396 406.8H548.505C549.791 406.8 550.834 407.843 550.834 409.129C550.834 410.415 549.791 411.458 548.505 411.458H523.396C522.109 411.458 521.066 410.415 521.066 409.129Z" fill="#D2DFE6"/>
<path fill-rule="evenodd" clip-rule="evenodd" d="M525.388 418.963C525.388 417.677 526.431 416.634 527.717 416.634H544.165C545.452 416.634 546.495 417.677 546.495 418.963C546.495 420.25 545.452 421.292 544.165 421.292H527.717C526.431 421.292 525.388 420.25 525.388 418.963Z" fill="#D2DFE6"/>
<path d="M513.31 309.604C513.31 312.828 510.697 315.441 507.473 315.441C504.25 315.441 501.637 312.828 501.637 309.604C501.637 306.381 504.25 303.768 507.473 303.768C510.697 303.768 513.31 306.381 513.31 309.604Z" fill="#FF5A60"/>
<path d="M528.875 309.604C528.875 312.828 526.262 315.441 523.038 315.441C519.815 315.441 517.202 312.828 517.202 309.604C517.202 306.381 519.815 303.768 523.038 303.768C526.262 303.768 528.875 306.381 528.875 309.604Z" fill="#F9B42F"/>
<path d="M544.437 309.604C544.437 312.828 541.824 315.441 538.6 315.441C535.377 315.441 532.764 312.828 532.764 309.604C532.764 306.381 535.377 303.768 538.6 303.768C541.824 303.768 544.437 306.381 544.437 309.604Z" fill="#4DCB7B"/>
<path d="M353.001 1024.16C353.001 1024.16 352.732 1054.92 352.553 1057.97C352.373 1061.02 373.264 1066.21 421.018 1060.8C423.735 1060.5 427.541 1059.7 429.463 1057.45C432.744 1053.6 432.129 1046.59 428.425 1043.45C424.465 1040.09 402.383 1031.07 397.371 1029.72C393.95 1028.81 391.438 1016.91 389.682 1015.23C382.479 1008.65 353.873 1012.35 353.873 1012.35L353.001 1024.16Z" fill="#1A2437"/>
<path d="M463.285 1030.53C463.285 1030.53 463.477 1061.29 463.285 1064.34C463.093 1067.39 484.124 1072.27 531.801 1066.17C534.518 1065.83 538.299 1064.97 540.183 1062.69C543.412 1058.84 542.746 1051.79 538.901 1048.72C534.89 1045.41 512.666 1036.71 507.642 1035.44C504.207 1034.58 501.529 1022.62 499.696 1021.06C492.416 1014.59 463.81 1018.7 463.81 1018.7L463.285 1030.53Z" fill="#1A2437"/>
<path d="M371.546 1021.52C380.953 1021.52 388.579 1019.78 388.579 1017.63C388.579 1015.47 380.953 1013.73 371.546 1013.73C362.139 1013.73 354.513 1015.47 354.513 1017.63C354.513 1019.78 362.139 1021.52 371.546 1021.52Z" fill="#FDC2BF"/>
<path d="M354.513 1001.58V1017.62H388.566V1001.58C388.566 1001.58 354.513 1001.21 354.513 1001.58Z" fill="#FDC2BF"/>
<path d="M481.049 1027.65C490.456 1027.65 498.082 1025.9 498.082 1023.75C498.082 1021.6 490.456 1019.85 481.049 1019.85C471.642 1019.85 464.016 1021.6 464.016 1023.75C464.016 1025.9 471.642 1027.65 481.049 1027.65Z" fill="#FDC2BF"/>
<path d="M464.016 1007.7V1023.75H498.056V1007.7C498.056 1007.7 464.016 1007.33 464.016 1007.7Z" fill="#FDC2BF"/>
<path fill-rule="evenodd" clip-rule="evenodd" d="M483.406 384.928C491.203 382.004 499.893 385.954 502.818 393.75C502.818 393.75 502.818 393.75 502.818 393.75L502.818 393.751L502.819 393.752L502.827 393.776L502.875 393.901C502.919 394.018 502.989 394.2 503.083 394.445C503.271 394.934 503.557 395.669 503.932 396.617C504.684 398.514 505.794 401.256 507.202 404.575C510.03 411.238 514.013 420.112 518.68 429.103C523.395 438.187 528.57 446.923 533.71 453.559C536.274 456.869 538.588 459.339 540.569 461.01C541.54 461.83 542.321 462.363 542.9 462.694C543.446 463.006 543.713 463.082 543.713 463.082C547.461 464.042 551.548 463.274 556.937 459.043C562.602 454.594 568.229 447.331 573.367 438.634C578.398 430.117 582.417 421.162 585.201 414.227C586.582 410.787 587.633 407.91 588.331 405.918C588.679 404.924 588.938 404.154 589.105 403.65C589.188 403.398 589.248 403.212 589.284 403.099L589.321 402.983L589.322 402.979C589.323 402.977 589.324 402.975 589.324 402.974M488.7 399.046L474.582 404.34C471.658 396.543 475.609 387.851 483.406 384.928M589.324 402.974C591.812 395.029 600.268 390.604 608.214 393.088C616.162 395.574 620.59 404.032 618.105 411.98L603.867 407.527C618.105 411.98 618.104 411.983 618.102 411.987L618.092 412.021L618.069 412.092C618.051 412.149 618.027 412.225 617.997 412.319C617.936 412.508 617.851 412.772 617.741 413.104C617.521 413.769 617.204 414.711 616.792 415.888C615.968 418.239 614.76 421.544 613.187 425.462C610.064 433.24 605.401 443.698 599.332 453.972C593.368 464.067 585.476 474.976 575.561 482.761C565.372 490.763 551.818 496.292 536.221 492.293C524.924 489.397 516.035 479.986 509.87 472.027C503.14 463.339 497.004 452.802 491.914 442.997C486.777 433.1 482.462 423.472 479.442 416.355C477.926 412.785 476.725 409.817 475.897 407.727C475.483 406.682 475.161 405.854 474.939 405.278C474.829 404.991 474.743 404.766 474.683 404.608L474.612 404.422L474.583 404.345C474.582 404.342 474.582 404.34 488.7 399.046" fill="#FDC2BF"/>
<path fill-rule="evenodd" clip-rule="evenodd" d="M481.061 980.439C490.458 980.439 498.075 988.056 498.075 997.453V1010.18C498.075 1019.58 490.458 1027.19 481.061 1027.19C471.665 1027.19 464.048 1019.58 464.048 1010.18V997.453C464.048 988.056 471.665 980.439 481.061 980.439Z" fill="#FDC2BF"/>
<path d="M425.899 584.141H425.284C384.605 584.141 351.385 589.357 351.36 595.675L351.488 999.927C351.488 1002.49 360.062 1004.67 370.61 1004.67H371.225C381.773 1004.67 390.334 1002.54 390.334 999.927L394.653 822.882L399.216 659.09C403.932 660.167 414.724 660.59 425.579 660.487C436.422 660.59 447.226 660.167 451.929 659.09L456.505 822.882L460.824 999.927C460.824 1002.49 469.372 1004.67 479.92 1004.67H480.548C491.096 1004.67 499.657 1002.54 499.657 999.927L499.785 595.675C499.734 589.357 466.514 584.153 425.899 584.141Z" fill="#1A2437"/>
<path d="M426.054 379.797C384.581 379.797 350.963 383.398 350.963 387.833V390.588V592.868V595.623C350.963 600.058 384.581 603.659 426.054 603.659C467.528 603.659 501.145 600.058 501.145 595.623V592.868V390.588V387.807C501.145 383.398 467.528 379.797 426.054 379.797Z" fill="#DBB3FB"/>
<path fill-rule="evenodd" clip-rule="evenodd" d="M425.297 376.497C418.922 376.497 414.064 380.734 414.064 385.59C414.064 386.814 414.363 387.655 414.83 388.261C415.303 388.874 416.017 389.336 417.006 389.672C419.033 390.361 421.906 390.428 425.297 390.428C428.689 390.428 431.561 390.361 433.589 389.672C434.577 389.336 435.292 388.874 435.765 388.261C436.232 387.655 436.531 386.814 436.531 385.59C436.531 380.77 431.67 376.497 425.297 376.497ZM412.257 385.59C412.257 379.425 418.267 374.69 425.297 374.69C432.33 374.69 438.338 379.465 438.338 385.59C438.338 387.122 437.958 388.377 437.196 389.364C436.441 390.344 435.378 390.973 434.17 391.383C431.805 392.187 428.609 392.235 425.297 392.235C421.986 392.235 418.79 392.187 416.425 391.383C415.217 390.973 414.154 390.344 413.399 389.364C412.637 388.377 412.257 387.122 412.257 385.59Z" fill="white"/>
<path d="M436.23 381.283V352.677C433.042 353.37 429.79 353.718 426.528 353.715H424.118C420.856 353.719 417.603 353.367 414.416 352.665V381.283C413.608 382.577 413.165 384.065 413.135 385.59C413.135 391.101 418.569 391.331 425.272 391.331C431.975 391.331 437.409 391.101 437.409 385.59C437.409 384.074 437.002 382.587 436.23 381.283Z" fill="#FDC2BF"/>
<path d="M471.936 266.36V314.754C471.943 320.719 470.773 326.627 468.493 332.139C466.214 337.651 462.869 342.66 458.651 346.878C454.434 351.095 449.425 354.44 443.913 356.719C438.401 358.999 432.493 360.169 426.528 360.162H424.119C420.856 360.166 417.603 359.813 414.417 359.111C404.299 356.898 395.241 351.293 388.747 343.225C382.252 335.157 378.711 325.111 378.71 314.754V266.36C378.71 254.317 383.495 242.767 392.01 234.251C400.526 225.736 412.076 220.952 424.119 220.952H426.528C438.571 220.952 450.121 225.736 458.636 234.251C467.152 242.767 471.936 254.317 471.936 266.36Z" fill="#FDC2BF"/>
<path opacity="0.3" d="M350.515 472.395L351.04 440.623L354.372 430.255L364.343 422.309C363.319 427.47 362.596 432.686 362.177 437.932C357.474 484.737 348.156 539.462 351.04 595.572" fill="#B97CE8"/>
<path fill-rule="evenodd" clip-rule="evenodd" d="M367.722 413.064C372.724 406.406 371.382 396.955 364.725 391.952L367.722 413.064ZM355.667 404.007C343.612 394.949 343.611 394.95 343.61 394.952L343.558 395.021L343.421 395.204C343.303 395.363 343.13 395.594 342.908 395.893C342.463 396.491 341.818 397.363 341.002 398.475C339.37 400.698 337.052 403.886 334.283 407.776C328.756 415.541 321.387 426.168 314.086 437.535C306.828 448.835 299.432 461.181 293.988 472.32C291.272 477.877 288.877 483.466 287.247 488.689C285.733 493.543 284.343 499.711 285.168 505.766C286.172 513.136 288.999 521.486 292.235 529.438C295.562 537.612 299.731 546.337 304.002 554.715C310.086 566.649 316.748 578.577 321.711 587.464C323.64 590.917 325.312 593.911 326.594 596.267C330.141 602.788 331.514 609.714 331.928 615.259C332.132 617.987 332.094 620.244 332.013 621.752C331.973 622.502 331.922 623.053 331.889 623.371C331.873 623.529 331.861 623.627 331.856 623.662L331.865 623.599L331.869 623.574C331.87 623.57 331.87 623.565 346.785 625.78L331.87 623.565C331.866 623.598 331.861 623.629 331.856 623.662C330.692 631.862 336.365 639.476 344.57 640.695C352.808 641.918 360.477 636.232 361.7 627.995L347.901 625.946C361.7 627.995 361.701 627.99 361.701 627.985L361.703 627.975L361.706 627.954L361.713 627.905L361.73 627.787C361.742 627.699 361.756 627.592 361.772 627.467C361.804 627.217 361.842 626.894 361.883 626.503C361.965 625.721 362.057 624.663 362.126 623.369C362.265 620.79 362.316 617.225 362.001 613.01C361.377 604.672 359.277 593.239 353.084 581.856C351.562 579.058 349.721 575.763 347.671 572.093C342.773 563.324 336.678 552.412 330.869 541.018C326.797 533.03 323.046 525.143 320.167 518.069C317.239 510.875 315.578 505.395 315.07 501.846C315.071 501.851 315.072 501.854 315.073 501.854C315.097 501.854 315.113 500.628 316.036 497.669C317.039 494.454 318.729 490.376 321.082 485.562C325.777 475.956 332.456 464.736 339.459 453.833C346.419 442.997 353.497 432.786 358.852 425.263C361.524 421.509 363.756 418.441 365.313 416.319C366.092 415.258 366.701 414.435 367.112 413.881C367.318 413.605 367.474 413.396 367.577 413.258L367.69 413.106L367.722 413.064C367.722 413.064 367.722 413.064 367.722 413.064M355.667 404.007L343.612 394.949C348.615 388.292 358.067 386.95 364.725 391.952" fill="#FDC2BF"/>
<path fill-rule="evenodd" clip-rule="evenodd" d="M375.37 393.232C380.23 401.643 377.352 412.403 368.94 417.263C367.229 418.252 364.426 421.04 359.169 429.372C357.705 431.694 355.963 434.597 354.003 437.863C350.122 444.333 345.387 452.226 340.267 459.829C334.84 467.888 323.909 470.021 315.851 464.595C307.793 459.168 305.659 448.237 311.086 440.179C315.848 433.106 319.41 427.144 322.884 421.327C325.009 417.771 327.101 414.269 329.415 410.601C334.622 402.347 341.361 392.568 351.338 386.802C359.75 381.942 370.509 384.82 375.37 393.232Z" fill="#DBB3FB"/>
<path opacity="0.3" d="M501.144 592.867L501.029 463.115L500.542 436.329L485.649 426.076C485.649 426.076 501.747 569.798 501.144 592.867Z" fill="#B97CE8"/>
<path fill-rule="evenodd" clip-rule="evenodd" d="M475.983 393.458C480.443 384.827 491.055 381.446 499.686 385.907C514.381 393.501 518.403 406.731 520.649 415.929C521.15 417.981 521.593 419.938 522.023 421.838C523.644 429 525.083 435.363 528.771 442.985C533.001 451.731 529.341 462.25 520.596 466.48C511.851 470.711 501.332 467.051 497.101 458.306C491.472 446.67 489.031 435.675 487.395 428.309C487.06 426.804 486.76 425.45 486.472 424.273C484.792 417.392 483.88 417.228 483.597 417.177C483.57 417.172 483.549 417.168 483.534 417.16C474.903 412.7 471.523 402.088 475.983 393.458Z" fill="#DBB3FB"/>
<path d="M414.365 359.15L414.66 386.154C414.66 386.154 423.631 373.248 437.973 371.274L433.59 356.382L423.17 355.895L414.365 359.15Z" fill="#F4B1AF"/>
<path d="M488.879 210.173C483.407 207.097 472.91 209.661 468.963 204.239C465.015 198.818 453.147 194.499 444.176 202.714C435.205 210.929 427.284 205.277 427.284 205.277C406.304 195.114 397.627 209.661 395.346 213.364C393.065 217.068 401.831 214.915 381.248 221.605C360.665 228.295 361.024 246.405 364.1 250.057C367.176 253.71 365.381 257.004 363.446 269.897C363.324 271.915 363.643 273.936 364.382 275.818C363.832 287.52 364.111 299.246 365.215 310.909C365.215 310.909 361.703 346.5 383.965 355.907C406.227 365.314 411.354 353.716 415.083 365.417C418.813 377.118 461.529 375.209 468.911 364.968C476.294 354.728 483.009 355.792 482.138 346.231C481.266 336.67 480.946 323.046 475.614 318.676C470.283 314.306 466.22 326.84 459.222 328.852C447.137 332.261 444.073 277.933 432.744 280.471C428.386 281.445 420.735 270.884 420.235 270.089C417.672 265.975 419.402 258.798 418.467 257.068C414.045 248.955 421.03 246.238 422.311 245.61C424.131 244.7 427.31 235.985 452.853 252.108C471.347 263.771 497.184 254.748 500.837 238.933C502.23 233.491 501.817 227.743 499.661 222.556C497.504 217.369 493.72 213.023 488.879 210.173Z" fill="#2C2A46"/>
<path d="M424.131 295.645C421.824 297.35 418.313 302.707 426.349 318.33C426.723 319.067 427.274 319.701 427.951 320.176C428.345 320.447 428.777 320.658 429.232 320.804C429.407 320.847 429.59 320.85 429.765 320.811C429.941 320.772 430.106 320.693 430.246 320.58C430.387 320.467 430.499 320.324 430.574 320.16C430.649 319.996 430.686 319.817 430.681 319.637C430.681 315.793 430.334 300.413 427.938 295.838C427.297 294.633 424.913 295.069 424.131 295.645Z" fill="#FDC2BF"/>
<defs>
<filter id="filter0_f_10272_1612" x="280.411" y="1029.73" width="381.662" height="64.2729" filterUnits="userSpaceOnUse" color-interpolation-filters="sRGB">
<feFlood flood-opacity="0" result="BackgroundImageFix"/>
<feBlend mode="normal" in="SourceGraphic" in2="BackgroundImageFix" result="shape"/>
<feGaussianBlur stdDeviation="7" result="effect1_foregroundBlur_10272_1612"/>
</filter>
<filter id="filter1_d_10272_1612" x="779.401" y="84.9102" width="126.608" height="143.586" filterUnits="userSpaceOnUse" color-interpolation-filters="sRGB">
<feFlood flood-opacity="0" result="BackgroundImageFix"/>
<feColorMatrix in="SourceAlpha" type="matrix" values="0 0 0 0 0 0 0 0 0 0 0 0 0 0 0 0 0 0 127 0" result="hardAlpha"/>
<feOffset dy="2.13915"/>
<feGaussianBlur stdDeviation="6.41746"/>
<feColorMatrix type="matrix" values="0 0 0 0 0.374547 0 0 0 0 0.481553 0 0 0 0 0.601935 0 0 0 0.15 0"/>
<feBlend mode="normal" in2="BackgroundImageFix" result="effect1_dropShadow_10272_1612"/>
<feBlend mode="normal" in="SourceGraphic" in2="effect1_dropShadow_10272_1612" result="shape"/>
</filter>
<filter id="filter2_d_10272_1612" x="53.9265" y="574.481" width="157.574" height="116.818" filterUnits="userSpaceOnUse" color-interpolation-filters="sRGB">
<feFlood flood-opacity="0" result="BackgroundImageFix"/>
<feColorMatrix in="SourceAlpha" type="matrix" values="0 0 0 0 0 0 0 0 0 0 0 0 0 0 0 0 0 0 127 0" result="hardAlpha"/>
<feOffset dy="2.60242"/>
<feGaussianBlur stdDeviation="7.80727"/>
<feColorMatrix type="matrix" values="0 0 0 0 0.374547 0 0 0 0 0.481553 0 0 0 0 0.601935 0 0 0 0.15 0"/>
<feBlend mode="normal" in2="BackgroundImageFix" result="effect1_dropShadow_10272_1612"/>
<feBlend mode="normal" in="SourceGraphic" in2="effect1_dropShadow_10272_1612" result="shape"/>
</filter>
<filter id="filter3_d_10272_1612" x="787.376" y="582.954" width="181.887" height="128.697" filterUnits="userSpaceOnUse" color-interpolation-filters="sRGB">
<feFlood flood-opacity="0" result="BackgroundImageFix"/>
<feColorMatrix in="SourceAlpha" type="matrix" values="0 0 0 0 0 0 0 0 0 0 0 0 0 0 0 0 0 0 127 0" result="hardAlpha"/>
<feOffset dy="2.2936"/>
<feGaussianBlur stdDeviation="6.88081"/>
<feColorMatrix type="matrix" values="0 0 0 0 0.374547 0 0 0 0 0.481553 0 0 0 0 0.601935 0 0 0 0.15 0"/>
<feBlend mode="normal" in2="BackgroundImageFix" result="effect1_dropShadow_10272_1612"/>
<feBlend mode="normal" in="SourceGraphic" in2="effect1_dropShadow_10272_1612" result="shape"/>
</filter>
</defs>
</svg>
