<svg width="24" height="24" viewBox="0 0 24 24" fill="none" xmlns="http://www.w3.org/2000/svg">
<path d="M21 21.33H6C4.93913 21.33 3.92172 20.9086 3.17157 20.1584C2.42143 19.4083 2 18.3909 2 17.33V3C2 2.73478 2.10536 2.48043 2.29289 2.29289C2.48043 2.10536 2.73478 2 3 2C3.26522 2 3.51957 2.10536 3.70711 2.29289C3.89464 2.48043 4 2.73478 4 3V17.33C4 17.8604 4.21071 18.3691 4.58579 18.7442C4.96086 19.1193 5.46957 19.33 6 19.33H21C21.2652 19.33 21.5196 19.4354 21.7071 19.6229C21.8946 19.8104 22 20.0648 22 20.33C22 20.5952 21.8946 20.8496 21.7071 21.0371C21.5196 21.2246 21.2652 21.33 21 21.33Z" fill="black"/>
<path opacity="0.6" d="M11.5798 16.68C11.0905 16.6867 10.6113 16.5398 10.2098 16.26C6.52982 13.33 4.27983 15.81 3.99983 16.1C3.81977 16.2539 3.59093 16.3388 3.35407 16.3398C3.11721 16.3407 2.8877 16.2576 2.70643 16.1051C2.52516 15.9526 2.40389 15.7408 2.36422 15.5073C2.32456 15.2738 2.36907 15.0337 2.48983 14.83C3.72983 13.33 7.18983 11.33 11.4298 14.67C11.6298 14.78 12.5698 14.67 13.8198 12.51C15.5215 9.83999 17.8095 7.59307 20.5098 5.93997C20.7384 5.82041 21.0043 5.79379 21.252 5.86565C21.4997 5.93751 21.71 6.10231 21.8391 6.32561C21.9682 6.54891 22.006 6.81345 21.9446 7.06396C21.8833 7.31448 21.7275 7.5316 21.5098 7.66997C19.1025 9.14891 17.0533 11.1435 15.5098 13.51C14.4598 15.33 13.3098 16.38 12.0898 16.62C11.922 16.6555 11.7513 16.6756 11.5798 16.68Z" fill="black"/>
<path opacity="0.8" d="M3.26004 16.4599C3.06501 16.4685 2.87135 16.4235 2.70004 16.3299C2.48125 16.1801 2.33095 15.9494 2.28219 15.6888C2.23343 15.4281 2.29021 15.1587 2.44004 14.9399C2.88004 14.2799 6.88004 8.55994 10.79 8.55994H10.84C11.567 8.5856 12.2749 8.80011 12.8938 9.18235C13.5127 9.56459 14.0215 10.1014 14.37 10.7399C15.37 12.2099 16.37 12.9899 17.37 13.0599C17.9188 13.0284 18.4558 12.8885 18.9501 12.6482C19.4445 12.4079 19.8863 12.072 20.25 11.6599C20.4224 11.4584 20.6678 11.3335 20.9323 11.3129C21.1967 11.2923 21.4585 11.3775 21.66 11.5499C21.8616 11.7223 21.9864 11.9677 22.0071 12.2322C22.0277 12.4966 21.9424 12.7584 21.77 12.9599C21.2057 13.6089 20.5101 14.1307 19.7293 14.491C18.9484 14.8512 18.1 15.0418 17.24 15.0499C15.52 14.9399 13.99 13.8499 12.68 11.8199C12.5027 11.4651 12.2361 11.1623 11.9066 10.9415C11.577 10.7206 11.1957 10.5891 10.8 10.5599V10.5599C8.39004 10.5599 5.08004 14.6299 4.10004 16.0599C4.00292 16.1897 3.87572 16.2939 3.72939 16.3636C3.58306 16.4333 3.42198 16.4663 3.26004 16.4599V16.4599Z" fill="black"/>
</svg>
