<svg xmlns="http://www.w3.org/2000/svg" width="126" height="126" fill="none" viewBox="0 0 126 126"><circle cx="62.874" cy="63.19" r="62.35" fill="#f9b42f"/><path fill="#bc8417" fill-rule="evenodd" d="M113.81 99.362c-11.322 11.591-27.124 18.787-44.607 18.787-34.435 0-62.35-27.915-62.35-62.35 0-13.396 4.225-25.805 11.414-35.967C7.29 31.07.524 46.442.524 63.393c0 34.435 27.915 62.35 62.35 62.35 21.04 0 39.644-10.421 50.936-26.382" clip-rule="evenodd" opacity=".3"/><path fill="#2c2a46" d="M37.615 62.994a4.807 4.807 0 1 0 0-9.615 4.807 4.807 0 0 0 0 9.615m50.64-.001a4.807 4.807 0 1 0 0-9.614 4.807 4.807 0 0 0 0 9.614M63.302 76.395c7.345 0 13.627 2.549 15.627 6.354a1.77 1.77 0 0 1-.637 2.318 1.77 1.77 0 0 1-2.407-.726c-1.133-2.177-5.91-4.477-12.494-4.477s-11.663 2.389-12.6 4.707a1.778 1.778 0 0 1-3.293-1.345c1.646-4 8.212-6.83 15.804-6.83"/><path fill="#c3eef4" d="m95.912 60.51-5.875 10.15a7.04 7.04 0 0 0-.892 3.551 7.04 7.04 0 0 0 1.016 3.52 7.2 7.2 0 0 0 2.658 2.563 7.4 7.4 0 0 0 3.604.937 7.4 7.4 0 0 0 3.604-.937 7.2 7.2 0 0 0 2.658-2.564 7.03 7.03 0 0 0 .123-7.07l-6.162-10.15a.48.48 0 0 0-.367-.168.5.5 0 0 0-.367.169"/></svg>