<svg width="125" height="125" viewBox="0 0 125 125" fill="none" xmlns="http://www.w3.org/2000/svg">
<circle cx="62.3496" cy="62.3496" r="62.3496" fill="#F9B42F"/>
<path opacity="0.3" fill-rule="evenodd" clip-rule="evenodd" d="M113.285 98.5199C101.964 110.111 86.1615 117.307 68.6786 117.307C34.2439 117.307 6.32903 89.3919 6.32903 54.9572C6.32903 41.5615 10.5535 29.1525 17.7429 18.9897C6.76513 30.2289 0 45.6007 0 62.5525C0 96.9872 27.9149 124.902 62.3496 124.902C83.3887 124.902 101.994 114.481 113.285 98.5199Z" fill="#BC8417"/>
<path d="M61.8781 86.5663C66.2291 86.5663 69.7563 81.2677 69.7563 74.7314C69.7563 68.1952 66.2291 62.8965 61.8781 62.8965C57.5272 62.8965 54 68.1952 54 74.7314C54 81.2677 57.5272 86.5663 61.8781 86.5663Z" fill="#2C2A46"/>
<path d="M28.5252 45.2374H28.2008C27.8063 45.1494 27.4624 44.9093 27.2438 44.5692C27.0252 44.2292 26.9496 43.8167 27.0333 43.4212C27.2906 42.1697 27.8468 40.9989 28.6543 40.0088C29.4619 39.0187 30.4969 38.2385 31.6711 37.7348C32.8264 37.2162 34.0841 36.9662 35.3499 37.0037C36.6157 37.0411 37.8565 37.365 38.9791 37.951C39.1523 38.0518 39.304 38.1857 39.4254 38.3451C39.5469 38.5045 39.6357 38.6863 39.6869 38.88C39.7381 39.0738 39.7506 39.2757 39.7238 39.4743C39.6969 39.6729 39.6313 39.8642 39.5305 40.0374C39.4297 40.2106 39.2957 40.3623 39.1363 40.4837C38.9769 40.6052 38.7952 40.694 38.6014 40.7452C38.2101 40.8486 37.7938 40.7924 37.444 40.5888C36.7371 40.2421 35.9617 40.0574 35.1744 40.048C34.3871 40.0387 33.6076 40.2049 32.8927 40.5347C32.1604 40.8462 31.5154 41.3322 31.0142 41.9503C30.5129 42.5684 30.1706 43.2998 30.0171 44.0806C29.9345 44.413 29.7424 44.7079 29.4717 44.9178C29.201 45.1276 28.8676 45.2402 28.5252 45.2374Z" fill="#2C2A46"/>
<path d="M42.2337 63.8963C41.6264 63.8933 41.0443 63.6527 40.6121 63.226L29.5203 52.1234C29.0902 51.6933 28.8486 51.11 28.8486 50.5018C28.8486 49.8936 29.0902 49.3103 29.5203 48.8802C29.9504 48.4501 30.5337 48.2085 31.1419 48.2085C31.7501 48.2085 32.3334 48.4501 32.7635 48.8802L43.8661 59.972C44.1871 60.2925 44.4057 60.7011 44.4943 61.1459C44.5829 61.5908 44.5375 62.0519 44.3638 62.4709C44.1902 62.89 43.8961 63.248 43.5189 63.4998C43.1416 63.7517 42.6981 63.8859 42.2445 63.8855L42.2337 63.8963Z" fill="#2C2A46"/>
<path d="M31.1308 63.8957C30.6781 63.894 30.2361 63.7582 29.8604 63.5056C29.4848 63.253 29.1924 62.8948 29.0202 62.4762C28.8479 62.0576 28.8034 61.5973 28.8923 61.1535C28.9813 60.7097 29.1997 60.3021 29.5199 59.9822L40.6117 48.8904C41.0418 48.4604 41.6251 48.2188 42.2333 48.2188C42.8416 48.2188 43.4249 48.4604 43.8549 48.8904C44.285 49.3205 44.5266 49.9038 44.5266 50.512C44.5266 51.1203 44.285 51.7036 43.8549 52.1337L32.7524 63.2362C32.3197 63.661 31.737 63.8979 31.1308 63.8957Z" fill="#2C2A46"/>
<path d="M95.4748 45.2374H95.7992C96.1937 45.1494 96.5376 44.9093 96.7562 44.5692C96.9748 44.2292 97.0504 43.8167 96.9667 43.4212C96.7094 42.1697 96.1532 40.9989 95.3457 40.0088C94.5381 39.0187 93.5031 38.2385 92.3289 37.7348C91.1736 37.2162 89.9159 36.9662 88.6501 37.0037C87.3843 37.0411 86.1435 37.365 85.0209 37.951C84.8477 38.0518 84.696 38.1857 84.5746 38.3451C84.4531 38.5045 84.3643 38.6863 84.3131 38.88C84.2619 39.0738 84.2494 39.2757 84.2762 39.4743C84.3031 39.6729 84.3687 39.8642 84.4695 40.0374C84.5703 40.2106 84.7043 40.3623 84.8637 40.4837C85.0231 40.6052 85.2048 40.694 85.3986 40.7452C85.7899 40.8486 86.2062 40.7924 86.556 40.5888C87.2629 40.2421 88.0383 40.0574 88.8256 40.048C89.6129 40.0387 90.3924 40.2049 91.1073 40.5347C91.8396 40.8462 92.4846 41.3322 92.9858 41.9503C93.4871 42.5684 93.8294 43.2998 93.9829 44.0806C94.0655 44.413 94.2576 44.7079 94.5283 44.9178C94.799 45.1276 95.1324 45.2402 95.4748 45.2374Z" fill="#2C2A46"/>
<path d="M81.7663 63.8963C82.3736 63.8933 82.9557 63.6527 83.3879 63.226L94.4797 52.1234C94.9098 51.6933 95.1514 51.11 95.1514 50.5018C95.1514 49.8936 94.9098 49.3103 94.4797 48.8802C94.0496 48.4501 93.4663 48.2085 92.8581 48.2085C92.2499 48.2085 91.6666 48.4501 91.2365 48.8802L80.1339 59.972C79.8129 60.2925 79.5943 60.7011 79.5057 61.1459C79.4171 61.5908 79.4625 62.0519 79.6362 62.4709C79.8098 62.89 80.1039 63.248 80.4811 63.4998C80.8584 63.7517 81.3019 63.8859 81.7555 63.8855L81.7663 63.8963Z" fill="#2C2A46"/>
<path d="M92.8692 63.8957C93.3219 63.894 93.7639 63.7582 94.1396 63.5056C94.5152 63.253 94.8076 62.8948 94.9798 62.4762C95.1521 62.0576 95.1966 61.5973 95.1077 61.1535C95.0187 60.7097 94.8003 60.3021 94.4801 59.9822L83.3883 48.8904C82.9582 48.4604 82.3749 48.2188 81.7667 48.2188C81.1584 48.2188 80.5751 48.4604 80.1451 48.8904C79.715 49.3205 79.4734 49.9038 79.4734 50.512C79.4734 51.1203 79.715 51.7036 80.1451 52.1337L91.2476 63.2362C91.6803 63.661 92.263 63.8979 92.8692 63.8957Z" fill="#2C2A46"/>
</svg>
