<svg xmlns="http://www.w3.org/2000/svg" width="125" height="125" fill="none" viewBox="0 0 125 125"><circle cx="62.35" cy="62.35" r="62.35" fill="#f9b42f"/><path fill="#bc8417" fill-rule="evenodd" d="M113.285 98.52c-11.321 11.591-27.123 18.787-44.606 18.787-34.435 0-62.35-27.915-62.35-62.35 0-13.395 4.225-25.804 11.414-35.967C6.765 30.229 0 45.6 0 62.553c0 34.434 27.915 62.349 62.35 62.349 21.039 0 39.644-10.421 50.935-26.382" clip-rule="evenodd" opacity=".3"/><path fill="#2c2a46" d="M61.878 86.566c4.351 0 7.878-5.298 7.878-11.835 0-6.536-3.527-11.834-7.878-11.834-4.35 0-7.878 5.298-7.878 11.834 0 6.537 3.527 11.835 7.878 11.835M28.525 45.237h-.324a1.535 1.535 0 0 1-1.168-1.816 7.92 7.92 0 0 1 4.638-5.686 8.38 8.38 0 0 1 7.308.216 1.525 1.525 0 1 1-1.535 2.638 5.3 5.3 0 0 0-4.551-.054 4.88 4.88 0 0 0-2.876 3.546 1.525 1.525 0 0 1-1.492 1.156m13.709 18.659a2.33 2.33 0 0 1-1.622-.67L29.52 52.123a2.293 2.293 0 1 1 3.244-3.243l11.102 11.092a2.291 2.291 0 0 1-1.621 3.913z"/><path fill="#2c2a46" d="M31.13 63.896a2.292 2.292 0 0 1-1.61-3.914L40.612 48.89a2.294 2.294 0 0 1 3.243 3.244L32.752 63.236a2.3 2.3 0 0 1-1.621.66m64.344-18.659h.324a1.535 1.535 0 0 0 1.168-1.816 7.92 7.92 0 0 0-4.638-5.686 8.38 8.38 0 0 0-7.308.216 1.525 1.525 0 1 0 1.535 2.638 5.3 5.3 0 0 1 4.551-.054 4.88 4.88 0 0 1 2.876 3.546 1.525 1.525 0 0 0 1.492 1.156M81.766 63.896a2.33 2.33 0 0 0 1.622-.67L94.48 52.123a2.293 2.293 0 1 0-3.243-3.243L80.134 59.972a2.291 2.291 0 0 0 1.621 3.913z"/><path fill="#2c2a46" d="M92.87 63.896a2.292 2.292 0 0 0 1.61-3.914L83.388 48.89a2.294 2.294 0 0 0-3.243 3.244l11.103 11.102a2.3 2.3 0 0 0 1.621.66"/></svg>