<svg xmlns="http://www.w3.org/2000/svg" width="126" height="126" fill="none" viewBox="0 0 126 126"><circle cx="63.115" cy="62.77" r="62.35" fill="#f9b42f"/><path fill="#bc8417" fill-rule="evenodd" d="M114.051 98.941c-11.322 11.592-27.124 18.787-44.607 18.787-34.434 0-62.35-27.915-62.35-62.35 0-13.395 4.225-25.804 11.415-35.967C7.53 30.651.766 46.022.766 62.974c0 34.435 27.914 62.35 62.35 62.35 21.038 0 39.643-10.421 50.935-26.383" clip-rule="evenodd" opacity=".3"/><path fill="#2c2a46" d="M79.76 75.114H46.612c-2.672 0-3.642 3.152-1.751 5.064 4.146 4.152 9.755 8.862 18.313 8.862s14.167-4.748 18.313-8.862c1.916-1.912.946-5.064-1.727-5.064M44.906 61.188c-.717 0-1.404-.28-1.91-.78a2.64 2.64 0 0 1-.792-1.882c0-.904-.364-1.77-1.013-2.41a3.48 3.48 0 0 0-2.445-.998 3.5 3.5 0 0 0-2.446.998 3.38 3.38 0 0 0-1.013 2.41 2.64 2.64 0 0 1-.791 1.882 2.72 2.72 0 0 1-1.91.78c-.717 0-1.404-.28-1.91-.78a2.64 2.64 0 0 1-.792-1.882c0-2.316.933-4.537 2.595-6.175a8.93 8.93 0 0 1 6.267-2.557c2.35 0 4.604.92 6.266 2.557a8.67 8.67 0 0 1 2.596 6.175 2.64 2.64 0 0 1-.792 1.882 2.72 2.72 0 0 1-1.91.78"/><path fill="#55cfff" d="M11.057 64.018a13.8 13.8 0 0 0-6.562 7.497 8.38 8.38 0 0 0 2.248 9.284 8.2 8.2 0 0 0 8.628.361c4.396-2.263 7.316-7.66 9.088-12.09a18.04 18.04 0 0 1 6.43-8.3.803.803 0 0 0-.525-1.476c-6.151.59-13.796 1.558-19.307 4.724"/><path fill="#2c2a46" d="M80.694 61.188c.716 0 1.404-.28 1.91-.78.507-.5.792-1.176.792-1.882 0-.904.364-1.77 1.013-2.41a3.5 3.5 0 0 1 2.445-.998c.917 0 1.797.36 2.445.998a3.38 3.38 0 0 1 1.013 2.41c0 .706.285 1.383.792 1.882.506.5 1.194.78 1.91.78.717 0 1.404-.28 1.91-.78.507-.5.792-1.176.792-1.882a8.67 8.67 0 0 0-2.596-6.175 8.93 8.93 0 0 0-6.266-2.557 8.93 8.93 0 0 0-6.266 2.557 8.67 8.67 0 0 0-2.596 6.175c0 .706.285 1.383.791 1.882.507.5 1.194.78 1.91.78"/><path fill="#55cfff" d="M114.543 64.018a13.8 13.8 0 0 1 6.561 7.497 8.38 8.38 0 0 1-2.247 9.284 8.2 8.2 0 0 1-8.628.361c-4.397-2.263-7.316-7.66-9.088-12.09a18.04 18.04 0 0 0-6.43-8.3.803.803 0 0 1 .525-1.476c6.151.59 13.795 1.558 19.307 4.724"/></svg>