<svg width="125" height="125" viewBox="0 0 125 125" fill="none" xmlns="http://www.w3.org/2000/svg">
<circle cx="62.3496" cy="62.3496" r="62.3496" fill="url(#paint0_linear)"/>
<path opacity="0.3" fill-rule="evenodd" clip-rule="evenodd" d="M113.285 98.5209C101.964 110.112 86.1615 117.308 68.6786 117.308C34.2439 117.308 6.32903 89.3929 6.32903 54.9582C6.32903 41.5625 10.5535 29.1535 17.7429 18.9907C6.76513 30.2299 0 45.6016 0 62.5535C0 96.9882 27.9149 124.903 62.3496 124.903C83.3887 124.903 101.994 114.482 113.285 98.5209Z" fill="#BC8417"/>
<path d="M37.0904 62.1525C39.7453 62.1525 41.8976 60.0002 41.8976 57.3453C41.8976 54.6903 39.7453 52.5381 37.0904 52.5381C34.4355 52.5381 32.2832 54.6903 32.2832 57.3453C32.2832 60.0002 34.4355 62.1525 37.0904 62.1525Z" fill="#2C2A46"/>
<path d="M87.7965 62.1525C90.4514 62.1525 92.6037 60.0002 92.6037 57.3453C92.6037 54.6903 90.4514 52.5381 87.7965 52.5381C85.1415 52.5381 82.9893 54.6903 82.9893 57.3453C82.9893 60.0002 85.1415 62.1525 87.7965 62.1525Z" fill="#2C2A46"/>
<path d="M45.8391 88.8477L78.9871 88.8477C81.6591 88.8477 82.6296 85.6954 80.739 83.7837C76.5924 79.6313 70.9837 74.9219 62.4257 74.9219C53.8677 74.9219 48.259 79.6693 44.1124 83.7837C42.1966 85.6954 43.1671 88.8477 45.8391 88.8477Z" fill="#2C2A46"/>
<defs>
<linearGradient id="paint0_linear" x1="62" y1="-7" x2="62" y2="62" gradientUnits="userSpaceOnUse">
<stop stop-color="#2A97FF"/>
<stop offset="0.329851" stop-color="#75BEBE"/>
<stop offset="1" stop-color="#F9B42F"/>
</linearGradient>
</defs>
</svg>
