<svg xmlns="http://www.w3.org/2000/svg" width="125" height="126" fill="none" viewBox="0 0 125 126"><circle cx="62.375" cy="62.77" r="62.35" fill="#f9b42f"/><path fill="#bc8417" fill-rule="evenodd" d="M113.311 98.941c-11.322 11.592-27.124 18.787-44.607 18.787-34.435 0-62.35-27.915-62.35-62.35 0-13.395 4.225-25.804 11.414-35.967C6.791 30.651.025 46.022.025 62.974c0 34.435 27.915 62.35 62.35 62.35 21.039 0 39.644-10.421 50.936-26.383" clip-rule="evenodd" opacity=".3"/><path fill="#2c2a46" d="M37.116 62.573a4.807 4.807 0 1 0 0-9.615 4.807 4.807 0 0 0 0 9.615m50.706 0a4.807 4.807 0 1 0 0-9.614 4.807 4.807 0 0 0 0 9.614M79.02 75.342H45.87c-2.672 0-3.642 3.153-1.752 5.064 4.147 4.153 9.756 8.862 18.314 8.862s14.166-4.747 18.313-8.862c1.916-1.911.945-5.064-1.727-5.064"/></svg>