<svg xmlns="http://www.w3.org/2000/svg" width="129" height="126" fill="none" viewBox="0 0 129 126"><circle cx="62.992" cy="62.77" r="62.35" fill="#f9b42f"/><path fill="#bc8417" fill-rule="evenodd" d="M113.926 98.941c-11.322 11.592-27.124 18.787-44.607 18.787-34.434 0-62.35-27.915-62.35-62.35 0-13.395 4.225-25.804 11.415-35.967C7.406 30.651.64 46.022.64 62.974c0 34.435 27.914 62.35 62.35 62.35 21.038 0 39.643-10.421 50.935-26.383" clip-rule="evenodd" opacity=".3"/><path fill="#d5f3ff" d="M115.076 17.307 104.873 34.57a11.97 11.97 0 0 0-1.687 6.133 11.97 11.97 0 0 0 1.7 6.128 12.5 12.5 0 0 0 4.633 4.485 13 13 0 0 0 6.326 1.642 13 13 0 0 0 6.326-1.642 12.5 12.5 0 0 0 4.634-4.485 12 12 0 0 0 1.7-6.129 11.97 11.97 0 0 0-1.687-6.132l-10.203-17.264a.9.9 0 0 0-.326-.314.91.91 0 0 0-.887 0 .9.9 0 0 0-.326.314"/><path fill="#2c2a46" d="M46.68 62.454c-.717 0-1.405-.28-1.911-.78a2.64 2.64 0 0 1-.792-1.882c0-.904-.364-1.77-1.012-2.41a3.5 3.5 0 0 0-2.446-.998c-.917 0-1.797.36-2.445.998a3.38 3.38 0 0 0-1.013 2.41c0 .706-.285 1.383-.791 1.882-.507.5-1.194.78-1.911.78s-1.404-.28-1.91-.78a2.64 2.64 0 0 1-.792-1.882 8.67 8.67 0 0 1 2.596-6.175 8.93 8.93 0 0 1 6.266-2.557c2.35 0 4.605.92 6.266 2.557a8.67 8.67 0 0 1 2.596 6.175c0 .706-.285 1.383-.791 1.882a2.72 2.72 0 0 1-1.91.78m48.107 0c-.717 0-1.404-.28-1.91-.78a2.64 2.64 0 0 1-.792-1.882c0-.904-.364-1.77-1.013-2.41a3.5 3.5 0 0 0-2.446-.998 3.5 3.5 0 0 0-2.445.998 3.38 3.38 0 0 0-1.013 2.41 2.64 2.64 0 0 1-.791 1.882 2.72 2.72 0 0 1-1.91.78 2.72 2.72 0 0 1-1.911-.78 2.64 2.64 0 0 1-.791-1.882c0-2.316.933-4.537 2.595-6.175a8.93 8.93 0 0 1 6.266-2.557c2.35 0 4.605.92 6.267 2.557a8.67 8.67 0 0 1 2.595 6.175c0 .706-.284 1.383-.79 1.882-.508.5-1.195.78-1.911.78M81.534 76.38H48.386c-2.672 0-3.643 3.152-1.752 5.064 4.147 4.152 9.755 8.862 18.313 8.862s14.167-4.748 18.314-8.862c1.916-1.912.945-5.064-1.727-5.064"/></svg>