<svg xmlns="http://www.w3.org/2000/svg" width="126" height="126" fill="none" viewBox="0 0 126 126"><circle cx="62.899" cy="63.149" r="62.35" fill="#f9b42f"/><path fill="#bc8417" fill-rule="evenodd" d="M113.832 99.322c-11.321 11.591-27.124 18.787-44.606 18.787-34.435 0-62.35-27.915-62.35-62.35 0-13.396 4.224-25.805 11.414-35.967C7.312 31.03.547 46.402.547 63.354c0 34.435 27.915 62.35 62.35 62.35 21.039 0 39.644-10.421 50.935-26.382" clip-rule="evenodd" opacity=".3"/><path fill="#2c2a46" d="m43.18 58.96-6.586 1.973a1.946 1.946 0 0 0-1.31 2.42 1.946 1.946 0 0 0 2.425 1.302l6.585-1.972a1.946 1.946 0 0 0 1.31-2.42 1.946 1.946 0 0 0-2.424-1.302m39.45 3.725 6.596 1.976a1.946 1.946 0 0 0 2.424-1.303 1.946 1.946 0 0 0-1.31-2.42l-6.596-1.975a1.946 1.946 0 0 0-2.424 1.302 1.946 1.946 0 0 0 1.31 2.42m-3.16 8.86H46.324c-2.672 0-3.643 3.152-1.752 5.064 4.146 4.152 9.755 8.862 18.313 8.862s14.167-4.748 18.313-8.862c1.916-1.912.945-5.064-1.727-5.064"/></svg>