<svg xmlns="http://www.w3.org/2000/svg" width="126" height="125" fill="none" viewBox="0 0 126 125"><circle cx="62.897" cy="62.35" r="62.35" fill="#f9b42f"/><path fill="#bc8417" fill-rule="evenodd" d="M113.832 98.52c-11.321 11.592-27.124 18.788-44.606 18.788-34.435 0-62.35-27.915-62.35-62.35 0-13.395 4.224-25.804 11.414-35.967C7.312 30.23.547 45.6.547 62.554c0 34.434 27.915 62.349 62.35 62.349 21.039 0 39.644-10.421 50.935-26.382" clip-rule="evenodd" opacity=".3"/><path fill="#2c2a46" d="M65.095 84.608c-7.345 0-13.627-2.549-15.627-6.354a1.77 1.77 0 0 1 .725-2.318 1.77 1.77 0 0 1 2.407.726c1.133 2.176 5.911 4.477 12.494 4.477s11.663-2.389 12.601-4.707a1.778 1.778 0 0 1 3.292 1.345c-1.681 4-8.212 6.83-15.892 6.83M46.585 61.4a2.72 2.72 0 0 1-1.91-.78 2.64 2.64 0 0 1-.791-1.882c0-.904-.365-1.77-1.013-2.41a3.5 3.5 0 0 0-2.446-.997c-.917 0-1.796.359-2.445.998a3.38 3.38 0 0 0-1.013 2.41c0 .705-.285 1.382-.791 1.882a2.72 2.72 0 0 1-1.91.78 2.73 2.73 0 0 1-1.911-.78 2.64 2.64 0 0 1-.791-1.883c0-2.316.933-4.537 2.595-6.174a8.93 8.93 0 0 1 6.266-2.558c2.35 0 4.605.92 6.267 2.558a8.67 8.67 0 0 1 2.595 6.174c0 .706-.284 1.383-.791 1.883a2.72 2.72 0 0 1-1.91.78m48.107-.001c-.717 0-1.404-.28-1.91-.78a2.64 2.64 0 0 1-.792-1.882c0-.904-.364-1.77-1.013-2.41a3.5 3.5 0 0 0-2.445-.997c-.917 0-1.797.359-2.446.998a3.38 3.38 0 0 0-1.013 2.41c0 .705-.284 1.382-.79 1.882a2.73 2.73 0 0 1-3.821 0 2.64 2.64 0 0 1-.792-1.883c0-2.316.934-4.537 2.595-6.174a8.93 8.93 0 0 1 6.267-2.558c2.35 0 4.604.92 6.266 2.558a8.67 8.67 0 0 1 2.596 6.174c0 .706-.285 1.383-.792 1.883a2.72 2.72 0 0 1-1.91.78"/></svg>