<svg xmlns="http://www.w3.org/2000/svg" width="126" height="126" fill="none" viewBox="0 0 126 126"><circle cx="62.917" cy="63.149" r="62.35" fill="#f9b42f"/><path fill="#bc8417" fill-rule="evenodd" d="M113.853 99.32c-11.322 11.591-27.124 18.787-44.607 18.787-34.435 0-62.35-27.915-62.35-62.35 0-13.396 4.225-25.805 11.414-35.967C7.333 31.029.567 46.4.567 63.352c0 34.435 27.915 62.35 62.35 62.35 21.039 0 39.644-10.421 50.936-26.382" clip-rule="evenodd" opacity=".3"/><path fill="#2c2a46" d="M38.29 62.953a4.807 4.807 0 1 0 0-9.615 4.807 4.807 0 0 0 0 9.615m50.257-.001a4.807 4.807 0 1 0 0-9.614 4.807 4.807 0 0 0 0 9.614M63.426 87.366c4.351 0 7.878-5.299 7.878-11.835s-3.527-11.835-7.878-11.835-7.878 5.299-7.878 11.835 3.527 11.835 7.878 11.835"/></svg>