<svg width="125" height="125" viewBox="0 0 125 125" fill="none" xmlns="http://www.w3.org/2000/svg">
<circle cx="62.3496" cy="62.6318" r="62.3496" fill="#F9B42F"/>
<path opacity="0.3" fill-rule="evenodd" clip-rule="evenodd" d="M113.285 98.5302C101.964 110.121 86.1615 117.317 68.6786 117.317C34.2439 117.317 6.32903 89.4022 6.32903 54.9674C6.32903 41.5718 10.5535 29.1628 17.7428 19C6.76513 30.2391 0 45.6109 0 62.5628C0 96.9975 27.9149 124.912 62.3496 124.912C83.3887 124.912 101.994 114.492 113.285 98.5302Z" fill="#BC8417"/>
<path d="M96 57H78V123C78 123 91 120 95 115.5C99 111 96 57 96 57Z" fill="#55CFFF"/>
<path d="M28.0801 57H46.0801V123C46.0801 123 33.0801 120 29.0801 115.5C25.0801 111 28.0801 57 28.0801 57Z" fill="#55CFFF"/>
<path d="M36.612 61.5052C34.8458 61.5073 33.0967 61.1596 31.4656 60.4822C29.8345 59.8048 28.3536 58.8112 27.1085 57.5587C26.7274 57.0457 26.5443 56.4124 26.5926 55.7752C26.6409 55.138 26.9174 54.5396 27.3714 54.0899C27.8255 53.6402 28.4265 53.3693 29.0641 53.3271C29.7018 53.2848 30.3333 53.474 30.8426 53.8599C31.6002 54.6177 32.4997 55.2187 33.4896 55.6288C34.4795 56.0389 35.5405 56.2499 36.612 56.2499C37.6835 56.2499 38.7445 56.0389 39.7344 55.6288C40.7243 55.2187 41.6238 54.6177 42.3814 53.8599C42.8846 53.391 43.5502 53.1357 44.2379 53.1479C44.9257 53.16 45.5818 53.4386 46.0682 53.925C46.5546 54.4114 46.8332 55.0675 46.8453 55.7553C46.8574 56.443 46.6022 57.1086 46.1332 57.6118C44.8827 58.8585 43.3973 59.8445 41.7629 60.5129C40.1285 61.1812 38.3777 61.5185 36.612 61.5052Z" fill="#2C2A46"/>
<path d="M87.1221 61.505C85.3529 61.5094 83.6005 61.1628 81.9662 60.4854C80.3319 59.808 78.8481 58.8131 77.6008 57.5585C77.3056 57.3252 77.0632 57.0318 76.89 56.6978C76.7167 56.3637 76.6164 55.9967 76.5958 55.6209C76.5752 55.2452 76.6347 54.8693 76.7703 54.5183C76.906 54.1673 77.1148 53.8492 77.3827 53.585C77.6507 53.3208 77.9718 53.1166 78.3247 52.986C78.6776 52.8553 79.0543 52.8012 79.4297 52.8271C79.8051 52.8531 80.1707 52.9586 80.5022 53.1366C80.8338 53.3146 81.1237 53.5611 81.3527 53.8597C82.1103 54.6174 83.0098 55.2185 83.9997 55.6286C84.9896 56.0386 86.0506 56.2497 87.1221 56.2497C88.1936 56.2497 89.2546 56.0386 90.2445 55.6286C91.2344 55.2185 92.1339 54.6174 92.8915 53.8597C93.4027 53.4998 94.0246 53.3319 94.6476 53.3856C95.2705 53.4394 95.8545 53.7112 96.2966 54.1534C96.7387 54.5955 97.0106 55.1794 97.0643 55.8024C97.118 56.4253 96.9501 57.0472 96.5902 57.5585C95.3492 58.8068 93.8741 59.7979 92.2494 60.4752C90.6247 61.1524 88.8823 61.5024 87.1221 61.505Z" fill="#2C2A46"/>
<path d="M61.9426 89.0282C66.2936 89.0282 69.8207 83.7296 69.8207 77.1933C69.8207 70.6571 66.2936 65.3584 61.9426 65.3584C57.5916 65.3584 54.0645 70.6571 54.0645 77.1933C54.0645 83.7296 57.5916 89.0282 61.9426 89.0282Z" fill="#2C2A46"/>
<path d="M25.3813 46.9276C24.7873 46.9487 24.2083 46.7389 23.7655 46.3424C23.3228 45.9459 23.0507 45.3933 23.0064 44.8006C22.9621 44.2079 23.149 43.6211 23.5279 43.1631C23.9068 42.7052 24.4482 42.4117 25.0388 42.3442C27.9128 41.8116 30.6527 40.7142 33.0997 39.1155C35.5468 37.5168 37.6524 35.4485 39.2947 33.0306C39.6226 32.5352 40.1294 32.1859 40.709 32.0558C41.2887 31.9257 41.8961 32.025 42.4042 32.3328C42.9123 32.6406 43.2816 33.1331 43.4347 33.7071C43.5878 34.2811 43.5129 34.892 43.2257 35.412C41.2405 38.4039 38.6659 40.9596 35.6595 42.9227C32.6531 44.8859 29.2779 46.2153 25.7402 46.8298L25.3813 46.9276Z" fill="#2C2A46"/>
<path d="M98.1314 46.9276C98.7254 46.9487 99.3044 46.7389 99.7472 46.3424C100.19 45.9459 100.462 45.3933 100.506 44.8006C100.551 44.2079 100.364 43.6211 99.9848 43.1631C99.6059 42.7052 99.0645 42.4117 98.4739 42.3442C95.5999 41.8116 92.86 40.7142 90.413 39.1155C87.9659 37.5168 85.8603 35.4485 84.218 33.0306C83.8901 32.5352 83.3833 32.1859 82.8037 32.0558C82.224 31.9257 81.6166 32.025 81.1085 32.3328C80.6004 32.6406 80.2311 33.1331 80.078 33.7071C79.9249 34.2811 79.9998 34.892 80.287 35.412C82.2722 38.4039 84.8467 40.9596 87.8532 42.9227C90.8596 44.8859 94.2348 46.2153 97.7725 46.8298L98.1314 46.9276Z" fill="#2C2A46"/>
</svg>
