<svg xmlns="http://www.w3.org/2000/svg" width="137" height="126" fill="none" viewBox="0 0 137 126"><circle cx="68.075" cy="63.19" r="62.35" fill="#f9b42f"/><path fill="#bc8417" fill-rule="evenodd" d="M119.011 99.362c-11.322 11.591-27.124 18.787-44.607 18.787-34.434 0-62.35-27.915-62.35-62.35 0-13.396 4.225-25.805 11.414-35.967C12.491 31.07 5.726 46.442 5.726 63.393c0 34.435 27.915 62.35 62.35 62.35 21.038 0 39.643-10.421 50.935-26.382" clip-rule="evenodd" opacity=".3"/><path fill="#2c2a46" d="M42.182 63.398a4.807 4.807 0 1 0 0-9.614 4.807 4.807 0 0 0 0 9.614m50.64 0a4.807 4.807 0 1 0 0-9.614 4.807 4.807 0 0 0 0 9.614"/><path fill="#0a0f1a" d="M103.658 26.415a32.5 32.5 0 0 0-21.489 8.168 32.53 32.53 0 0 0-10.716 20.346 36 36 0 0 0-4.334-.177q-1.11-.06-2.218 0a32.58 32.58 0 0 0-11.784-21.3A32.55 32.55 0 0 0 8.132 37.23a32.58 32.58 0 0 0 2.03 45.117 32.55 32.55 0 0 0 45.141-.28 32.58 32.58 0 0 0 9.825-22.272q.996-.06 1.99 0a33 33 0 0 1 4.108.176 32.5 32.5 0 0 0 5.99 17.738 32.443 32.443 0 0 0 49.781 3.75 32.49 32.49 0 0 0 6.547-35.253 32.47 32.47 0 0 0-11.965-14.397 32.44 32.44 0 0 0-17.921-5.394M32.696 86.367A27.43 27.43 0 0 1 17.45 81.74a27.466 27.466 0 0 1-4.158-42.241 27.44 27.44 0 0 1 29.906-5.952A27.45 27.45 0 0 1 55.514 43.66a27.46 27.46 0 0 1 4.624 15.253 27.5 27.5 0 0 1-8.052 19.399 27.5 27.5 0 0 1-19.39 8.056m70.962 0a27.43 27.43 0 0 1-15.225-4.664 27.466 27.466 0 0 1-4.077-42.231 27.44 27.44 0 0 1 29.897-5.917 27.44 27.44 0 0 1 12.303 10.112 27.46 27.46 0 0 1 4.62 15.245 27.485 27.485 0 0 1-16.997 25.38 27.5 27.5 0 0 1-10.521 2.075"/><path fill="#2c2a46" d="M75.48 80.598H60.807c-1.182 0-1.612 1.433-.775 2.301 1.836 1.888 4.318 4.029 8.106 4.029s6.27-2.158 8.106-4.029c.848-.868.418-2.301-.764-2.301"/></svg>