<svg xmlns="http://www.w3.org/2000/svg" width="126" height="126" fill="none" viewBox="0 0 126 126"><circle cx="63.115" cy="63.19" r="62.35" fill="#f9b42f"/><path fill="#bc8417" fill-rule="evenodd" d="M114.051 99.363c-11.322 11.591-27.124 18.787-44.607 18.787-34.434 0-62.35-27.915-62.35-62.35 0-13.396 4.225-25.805 11.415-35.967C7.53 31.072.766 46.443.766 63.395c0 34.435 27.914 62.35 62.35 62.35 21.038 0 39.643-10.421 50.935-26.382" clip-rule="evenodd" opacity=".3"/><path fill="#2c2a46" d="M37.856 62.994a4.807 4.807 0 1 0 0-9.615 4.807 4.807 0 0 0 0 9.615m50.64-.001a4.807 4.807 0 1 0 0-9.614 4.807 4.807 0 0 0 0 9.614M78.477 78.927H48.745a1.77 1.77 0 1 0 0 3.54h29.732a1.77 1.77 0 0 0 0-3.54"/></svg>