<svg xmlns="http://www.w3.org/2000/svg" width="125" height="125" fill="none" viewBox="0 0 125 125"><circle cx="62.35" cy="62.35" r="62.35" fill="#f9b42f"/><path fill="#bc8417" fill-rule="evenodd" d="M113.289 98.518c-11.322 11.593-27.126 18.79-44.61 18.79-34.435 0-62.35-27.915-62.35-62.35 0-13.394 4.223-25.8 11.41-35.963C6.765 30.234 0 45.605 0 62.555c0 34.434 27.915 62.349 62.35 62.349 21.04 0 39.647-10.422 50.939-26.386" clip-rule="evenodd" opacity=".3"/><path fill="#2c2a46" d="M62.778 75.554c7.344 0 13.627 2.549 15.627 6.354a1.77 1.77 0 0 1-.637 2.318 1.77 1.77 0 0 1-2.407-.726c-1.133-2.176-5.911-4.477-12.495-4.477s-11.662 2.39-12.6 4.708a1.778 1.778 0 0 1-3.292-1.346c1.646-4 8.212-6.83 15.804-6.83M93.81 64.774q-.245 0-.477-.073l-11.258-3.284a1.728 1.728 0 0 1-.319-3.197s8.76-4.533 11.38-5.93a1.729 1.729 0 1 1 1.63 3.051c-1.47.784-4.9 2.56-7.583 3.97l7.117 2.07a1.728 1.728 0 0 1-.49 3.393m-63.53 0a1.727 1.727 0 0 1-.479-3.393l7.118-2.07c-2.707-1.41-6.125-3.185-7.583-3.97a1.728 1.728 0 1 1 1.617-3.05c2.622 1.397 11.38 5.93 11.38 5.93a1.728 1.728 0 0 1-.306 3.197L30.77 64.7a1.7 1.7 0 0 1-.49.073M96.37 46.35h-.269a19.8 19.8 0 0 1-13.12-8.575 1.727 1.727 0 1 1 2.916-1.825 16.62 16.62 0 0 0 10.694 6.995 1.73 1.73 0 0 1 1.446 1.972 1.7 1.7 0 0 1-1.666 1.433m-68.639 0a1.73 1.73 0 0 1-1.715-1.458 1.75 1.75 0 0 1 1.446-1.972 16.48 16.48 0 0 0 10.658-6.97 1.726 1.726 0 0 1 2.914-.174 1.73 1.73 0 0 1 .038 1.962 19.83 19.83 0 0 1-13.132 8.575z"/></svg>