<svg xmlns="http://www.w3.org/2000/svg" width="126" height="126" fill="none" viewBox="0 0 126 126"><circle cx="62.874" cy="62.77" r="62.35" fill="#f9b42f"/><path fill="#bc8417" fill-rule="evenodd" d="M113.81 98.941c-11.322 11.592-27.124 18.787-44.607 18.787-34.435 0-62.35-27.915-62.35-62.35 0-13.395 4.225-25.804 11.414-35.967C7.29 30.651.524 46.022.524 62.974c0 34.435 27.915 62.35 62.35 62.35 21.04 0 39.644-10.421 50.936-26.383" clip-rule="evenodd" opacity=".3"/><path fill="#2c2a46" d="M63.191 85.028c-7.345 0-13.627-2.548-15.627-6.353a1.77 1.77 0 0 1 .637-2.318 1.77 1.77 0 0 1 2.407.725c1.133 2.177 5.911 4.478 12.495 4.478s11.662-2.39 12.6-4.708a1.778 1.778 0 1 1 3.292 1.345c-1.646 4-8.212 6.831-15.804 6.831"/><path fill="#2c2a46" fill-rule="evenodd" d="M81.719 56.125h13.185a2.035 2.035 0 0 1 0 4.07H81.719a2.035 2.035 0 1 1-.035-4.07zm-50.693-.001h13.185a2.034 2.034 0 1 1 .035 4.07h-13.22a2.035 2.035 0 0 1 0-4.07" clip-rule="evenodd"/></svg>