<svg width="126" height="126" viewBox="0 0 126 126" fill="none" xmlns="http://www.w3.org/2000/svg">
<circle cx="62.8965" cy="62.77" r="62.3496" fill="#F9B42F"/>
<path opacity="0.3" fill-rule="evenodd" clip-rule="evenodd" d="M113.832 98.9413C102.511 110.533 86.7084 117.728 69.2255 117.728C34.7908 117.728 6.87591 89.8133 6.87591 55.3786C6.87591 41.9829 11.1004 29.5739 18.2897 19.4111C7.31201 30.6503 0.546875 46.022 0.546875 62.9739C0.546875 97.4086 28.4617 125.324 62.8965 125.324C83.9355 125.324 102.541 114.903 113.832 98.9413Z" fill="#BC8417"/>
<path d="M79.5408 75.3418H46.3928C43.7208 75.3418 42.7503 78.4941 44.6409 80.4057C48.7875 84.5581 54.3962 89.2676 62.9542 89.2676C71.5122 89.2676 77.1209 84.5202 81.2675 80.4057C83.1833 78.4941 82.2128 75.3418 79.5408 75.3418Z" fill="#2C2A46"/>
<path d="M102.109 29.2545C91.6378 9.30677 72.2685 23.4556 75.6648 38.3756C78.3344 50.0921 91.1929 66.7177 91.1929 66.7177C93.0468 66.0652 110.978 59.5988 119.52 51.1451C130.391 40.3481 121.671 18.1016 102.109 29.2545Z" fill="#CF5358"/>
<path d="M23.6081 29.2545C34.0937 9.30677 53.463 23.4556 50.0667 38.3756C47.3823 50.0921 34.5237 66.7177 34.5237 66.7177C32.6699 66.0652 14.754 59.5988 6.19648 51.1451C-4.71917 40.3481 4.0163 18.1016 23.6081 29.2545Z" fill="#CF5358"/>
</svg>
