<svg xmlns="http://www.w3.org/2000/svg" width="125" height="126" fill="none" viewBox="0 0 125 126"><circle cx="62.375" cy="63.19" r="62.35" fill="#f9b42f"/><path fill="#bc8417" fill-rule="evenodd" d="M113.311 99.363c-11.322 11.591-27.124 18.787-44.607 18.787-34.435 0-62.35-27.915-62.35-62.35 0-13.396 4.225-25.805 11.414-35.967C6.791 31.072.025 46.443.025 63.395c0 34.435 27.915 62.35 62.35 62.35 21.04 0 39.644-10.421 50.936-26.382" clip-rule="evenodd" opacity=".3"/><path fill="#2c2a46" fill-rule="evenodd" d="M81.22 56.544h13.185a2.035 2.035 0 0 1 0 4.07H81.22a2.035 2.035 0 1 1-.035-4.07zm-50.693.002h13.185a2.035 2.035 0 1 1 .035 4.07h-13.22a2.035 2.035 0 0 1 0-4.07" clip-rule="evenodd"/><path stroke="#2c2a46" stroke-linecap="round" stroke-miterlimit="10" stroke-width="1.511" d="M48.766 79.964h22.387c1.55.03 3.05-.59 4.169-1.724.419-.435.75-.955.972-1.529a4.8 4.8 0 0 0 .323-1.81"/></svg>