<svg width="126" height="125" viewBox="0 0 126 125" fill="none" xmlns="http://www.w3.org/2000/svg">
<path d="M37.2232 57.7643C39.8782 57.7643 42.0304 55.612 42.0304 52.9571C42.0304 50.3022 39.8782 48.1499 37.2232 48.1499C34.5683 48.1499 32.416 50.3022 32.416 52.9571C32.416 55.612 34.5683 57.7643 37.2232 57.7643Z" fill="#167582"/>
<path d="M62.7811 80.4482C55.4366 80.4482 49.154 77.8998 47.1542 74.0948C46.9565 73.6887 46.9215 73.2225 47.0564 72.7915C47.1913 72.3604 47.4858 71.9973 47.8798 71.7764C48.0852 71.665 48.3107 71.5953 48.5432 71.5715C48.7757 71.5477 49.0106 71.5702 49.2344 71.6376C49.4582 71.7051 49.6664 71.8162 49.847 71.9646C50.0276 72.1129 50.177 72.2956 50.2866 72.502C51.4193 74.6788 56.1976 76.9795 62.7811 76.9795C69.3645 76.9795 74.4437 74.5903 75.3817 72.272C75.47 72.0558 75.6 71.8592 75.7643 71.6933C75.9286 71.5274 76.124 71.3955 76.3393 71.3051C76.5545 71.2147 76.7855 71.1676 77.019 71.1665C77.2525 71.1654 77.4839 71.2103 77.7 71.2986C77.9162 71.3869 78.1128 71.5169 78.2787 71.6812C78.4446 71.8455 78.5765 72.0409 78.6669 72.2562C78.7572 72.4715 78.8043 72.7024 78.8055 72.9359C78.8066 73.1694 78.7617 73.4008 78.6734 73.617C76.9921 77.6166 70.4618 80.4482 62.7811 80.4482Z" fill="#167582"/>
<path d="M91.62 55.641C91.1506 55.641 90.7005 55.4546 90.3686 55.1227C90.0367 54.7908 89.8503 54.3406 89.8503 53.8713C89.878 53.5581 89.8403 53.2427 89.7395 52.9449C89.6387 52.6472 89.4771 52.3737 89.2649 52.1418C89.0526 51.9099 88.7944 51.7247 88.5068 51.5981C88.2191 51.4714 87.9082 51.406 87.5938 51.406C87.2795 51.406 86.9686 51.4714 86.6809 51.5981C86.3932 51.7247 86.1351 51.9099 85.9228 52.1418C85.7106 52.3737 85.5489 52.6472 85.4481 52.9449C85.3474 53.2427 85.3097 53.5581 85.3374 53.8713C85.3374 54.3406 85.151 54.7908 84.8191 55.1227C84.4872 55.4546 84.037 55.641 83.5677 55.641C83.0983 55.641 82.6481 55.4546 82.3163 55.1227C81.9844 54.7908 81.7979 54.3406 81.7979 53.8713C81.7543 53.0832 81.872 52.2945 82.1435 51.5534C82.4151 50.8124 82.835 50.1345 83.3775 49.5612C83.92 48.9879 84.5737 48.5312 85.2986 48.2191C86.0236 47.9071 86.8046 47.7461 87.5938 47.7461C88.3831 47.7461 89.1641 47.9071 89.889 48.2191C90.614 48.5312 91.2677 48.9879 91.8102 49.5612C92.3527 50.1345 92.7725 50.8124 93.0441 51.5534C93.3157 52.2945 93.4333 53.0832 93.3898 53.8713C93.3898 54.3406 93.2033 54.7908 92.8714 55.1227C92.5395 55.4546 92.0894 55.641 91.62 55.641Z" fill="#167582"/>
<circle cx="63.1152" cy="62.3496" r="62.3496" fill="#F9B42F"/>
<path opacity="0.3" fill-rule="evenodd" clip-rule="evenodd" d="M114.051 98.521C102.729 110.112 86.9271 117.308 69.4443 117.308C35.0095 117.308 7.09466 89.3929 7.09466 54.9582C7.09466 41.5625 11.3191 29.1535 18.5085 18.9907C7.53076 30.2299 0.765625 45.6016 0.765625 62.5535C0.765625 96.9882 28.6805 124.903 63.1152 124.903C84.1543 124.903 102.759 114.482 114.051 98.521Z" fill="#BC8417"/>
<path d="M37.2213 61.923C39.8762 61.923 42.0285 59.7707 42.0285 57.1158C42.0285 54.4609 39.8762 52.3086 37.2213 52.3086C34.5663 52.3086 32.4141 54.4609 32.4141 57.1158C32.4141 59.7707 34.5663 61.923 37.2213 61.923Z" fill="#2C2A46"/>
<path d="M62.7791 84.6069C55.4346 84.6069 49.152 82.0584 47.1522 78.2535C46.9545 77.8474 46.9195 77.3812 47.0544 76.9501C47.1893 76.5191 47.4839 76.156 47.8778 75.9351C48.0833 75.8237 48.3088 75.754 48.5413 75.7302C48.7738 75.7064 49.0087 75.7289 49.2325 75.7963C49.4562 75.8638 49.6644 75.9749 49.845 76.1233C50.0256 76.2716 50.1751 76.4543 50.2847 76.6607C51.4173 78.8375 56.1956 81.1382 62.7791 81.1382C69.3626 81.1382 74.4417 78.749 75.3797 76.4306C75.468 76.2145 75.598 76.0179 75.7623 75.852C75.9266 75.6861 76.122 75.5542 76.3373 75.4638C76.5526 75.3734 76.7836 75.3263 77.017 75.3252C77.2505 75.3241 77.4819 75.369 77.6981 75.4573C77.9142 75.5456 78.1108 75.6756 78.2767 75.8399C78.4426 76.0042 78.5745 76.1996 78.6649 76.4149C78.7553 76.6302 78.8024 76.8611 78.8035 77.0946C78.8046 77.3281 78.7597 77.5595 78.6714 77.7757C76.9902 81.7753 70.4598 84.6069 62.7791 84.6069Z" fill="#2C2A46"/>
<path d="M91.6181 59.7997C91.1487 59.7997 90.6985 59.6132 90.3667 59.2814C90.0348 58.9495 89.8483 58.4993 89.8483 58.03C89.8761 57.7168 89.8384 57.4014 89.7376 57.1036C89.6368 56.8059 89.4751 56.5324 89.2629 56.3005C89.0507 56.0686 88.7925 55.8834 88.5048 55.7568C88.2171 55.6301 87.9062 55.5646 87.5919 55.5646C87.2775 55.5646 86.9666 55.6301 86.679 55.7568C86.3913 55.8834 86.1331 56.0686 85.9209 56.3005C85.7086 56.5324 85.547 56.8059 85.4462 57.1036C85.3454 57.4014 85.3077 57.7168 85.3355 58.03C85.3355 58.4993 85.149 58.9495 84.8171 59.2814C84.4852 59.6132 84.0351 59.7997 83.5657 59.7997C83.0963 59.7997 82.6462 59.6132 82.3143 59.2814C81.9824 58.9495 81.796 58.4993 81.796 58.03C81.7524 57.2419 81.87 56.4532 82.1416 55.7121C82.4132 54.9711 82.833 54.2931 83.3755 53.7198C83.918 53.1465 84.5717 52.6899 85.2967 52.3778C86.0216 52.0657 86.8026 51.9048 87.5919 51.9048C88.3812 51.9048 89.1621 52.0657 89.8871 52.3778C90.6121 52.6899 91.2657 53.1465 91.8082 53.7198C92.3507 54.2931 92.7706 54.9711 93.0422 55.7121C93.3138 56.4532 93.4314 57.2419 93.3878 58.03C93.3878 58.4993 93.2014 58.9495 92.8695 59.2814C92.5376 59.6132 92.0874 59.7997 91.6181 59.7997Z" fill="#2C2A46"/>
</svg>
