<svg xmlns="http://www.w3.org/2000/svg" width="126" height="125" fill="none" viewBox="0 0 126 125"><path fill="#167582" d="M37.223 57.764a4.807 4.807 0 1 0 0-9.614 4.807 4.807 0 0 0 0 9.614m25.558 22.684c-7.344 0-13.627-2.548-15.627-6.353a1.77 1.77 0 0 1 .726-2.319 1.77 1.77 0 0 1 2.407.726c1.132 2.177 5.91 4.478 12.494 4.478s11.663-2.39 12.6-4.708a1.777 1.777 0 1 1 3.292 1.345c-1.68 4-8.211 6.831-15.892 6.831M91.62 55.641a1.77 1.77 0 0 1-1.77-1.77 2.266 2.266 0 1 0-4.513 0 1.77 1.77 0 1 1-3.54 0 5.806 5.806 0 0 1 11.247-2.318c.272.742.39 1.53.346 2.318a1.77 1.77 0 0 1-1.77 1.77"/><circle cx="63.115" cy="62.35" r="62.35" fill="#f9b42f"/><path fill="#bc8417" fill-rule="evenodd" d="M114.051 98.521c-11.322 11.591-27.124 18.787-44.607 18.787-34.434 0-62.35-27.915-62.35-62.35 0-13.395 4.225-25.804 11.415-35.967C7.53 30.23.766 45.6.766 62.554c0 34.434 27.914 62.349 62.35 62.349 21.038 0 39.643-10.421 50.935-26.382" clip-rule="evenodd" opacity=".3"/><path fill="#2c2a46" d="M37.221 61.923a4.807 4.807 0 1 0 0-9.615 4.807 4.807 0 0 0 0 9.615M62.78 84.607c-7.345 0-13.628-2.549-15.628-6.353a1.77 1.77 0 0 1 .726-2.319 1.77 1.77 0 0 1 2.407.726c1.132 2.177 5.91 4.477 12.494 4.477s11.663-2.389 12.6-4.707a1.778 1.778 0 1 1 3.292 1.345c-1.68 4-8.211 6.83-15.892 6.83M91.618 59.8a1.77 1.77 0 0 1-1.77-1.77 2.265 2.265 0 1 0-4.513 0 1.77 1.77 0 0 1-3.539 0 5.804 5.804 0 1 1 11.592 0 1.77 1.77 0 0 1-1.77 1.77"/></svg>