<svg xmlns="http://www.w3.org/2000/svg" width="126" height="125" fill="none" viewBox="0 0 126 125"><circle cx="63.105" cy="62.35" r="62.35" fill="#f9b42f"/><path fill="#2c2a46" d="M37.842 61.923a4.807 4.807 0 1 0 0-9.615 4.807 4.807 0 0 0 0 9.615"/><path fill="#ff5a60" d="M63.396 84.607a29.7 29.7 0 0 1-5.893-.602v3.54a5.981 5.981 0 1 0 11.963.106v-4.097c-2 .38-4.035 1.103-6.07 1.053"/><path fill="#e93a40" d="M63.398 84.607h-.796v3.186a.885.885 0 1 0 1.77 0v-3.204z"/><path fill="#2c2a46" d="M63.398 84.607c-7.344 0-13.627-2.549-15.627-6.353a1.77 1.77 0 0 1 .726-2.319 1.77 1.77 0 0 1 2.407.726c1.132 2.177 5.91 4.477 12.494 4.477s11.663-2.389 12.6-4.707a1.78 1.78 0 0 1 2.898-.591 1.78 1.78 0 0 1 .395 1.936c-1.682 4-8.212 6.83-15.893 6.83M92.24 59.8a1.77 1.77 0 0 1-1.77-1.77 2.266 2.266 0 1 0-4.513 0 1.77 1.77 0 1 1-3.54 0 5.804 5.804 0 1 1 11.592 0 1.77 1.77 0 0 1-1.77 1.77"/><path fill="#bc8417" fill-rule="evenodd" d="M113.439 98.368c-11.322 11.591-27.124 18.786-44.607 18.786-34.435 0-62.35-27.914-62.35-62.35 0-13.395 4.225-25.804 11.414-35.967C6.918 30.077.153 45.448.153 62.4c0 34.435 27.915 62.35 62.35 62.35 21.039 0 39.644-10.421 50.936-26.382" clip-rule="evenodd" opacity=".3"/></svg>