<svg width="24" height="24" viewBox="0 0 24 24" fill="none" xmlns="http://www.w3.org/2000/svg">
<path fill-rule="evenodd" clip-rule="evenodd" d="M9.24082 3.93934C8.95951 3.65804 8.57798 3.5 8.18016 3.5H4.91016C4.51233 3.5 4.1308 3.65804 3.8495 3.93934C3.56819 4.22064 3.41016 4.60218 3.41016 5V8.27C3.41016 8.66783 3.56819 9.04936 3.8495 9.33066C4.1308 9.61196 4.51233 9.77 4.91016 9.77H8.18016C8.57798 9.77 8.95951 9.61196 9.24082 9.33066C9.52212 9.04936 9.68016 8.66783 9.68016 8.27V5C9.68016 4.60218 9.52212 4.22064 9.24082 3.93934ZM4.91016 2H8.18016C8.97581 2 9.73887 2.31607 10.3015 2.87868C10.8641 3.44129 11.1802 4.20435 11.1802 5V8.27C11.1802 9.06565 10.8641 9.82871 10.3015 10.3913C9.73887 10.9539 8.97581 11.27 8.18016 11.27H4.91016C4.11451 11.27 3.35144 10.9539 2.78884 10.3913C2.22623 9.82871 1.91016 9.06565 1.91016 8.27V5C1.91016 4.20435 2.22623 3.44129 2.78884 2.87868C3.35144 2.31607 4.11451 2 4.91016 2ZM17.4502 21.62C17.2521 21.6174 17.0628 21.5375 16.9227 21.3974C16.7826 21.2573 16.7028 21.0681 16.7002 20.87V18H13.8701C13.6712 18 13.4804 17.921 13.3398 17.7803C13.1991 17.6397 13.1201 17.4489 13.1201 17.25C13.1201 17.0511 13.1991 16.8603 13.3398 16.7197C13.4804 16.579 13.6712 16.5 13.8701 16.5H16.7002V13.71C16.7002 13.511 16.7792 13.3203 16.9199 13.1796C17.0605 13.039 17.2513 12.96 17.4502 12.96C17.6491 12.96 17.8399 13.039 17.9805 13.1796C18.1212 13.3203 18.2002 13.511 18.2002 13.71V16.5H21.0001C21.199 16.5 21.3898 16.579 21.5304 16.7197C21.6711 16.8603 21.7501 17.0511 21.7501 17.25C21.7501 17.4489 21.6711 17.6397 21.5304 17.7803C21.3898 17.921 21.199 18 21.0001 18H18.2002V20.87C18.1976 21.0681 18.1178 21.2573 17.9777 21.3974C17.8376 21.5375 17.6483 21.6174 17.4502 21.62ZM8.18016 14.23C8.57798 14.23 8.95951 14.388 9.24082 14.6693C9.52212 14.9506 9.68016 15.3322 9.68016 15.73V19C9.68016 19.3978 9.52212 19.7793 9.24082 20.0606C8.95951 20.3419 8.57798 20.5 8.18016 20.5H4.91016C4.51233 20.5 4.1308 20.3419 3.8495 20.0606C3.56819 19.7793 3.41016 19.3978 3.41016 19V15.73C3.41016 15.3322 3.56819 14.9506 3.8495 14.6693C4.1308 14.388 4.51233 14.23 4.91016 14.23H8.18016ZM8.18016 12.73H4.91016C4.11451 12.73 3.35144 13.0461 2.78884 13.6087C2.22623 14.1713 1.91016 14.9343 1.91016 15.73V19C1.91016 19.7956 2.22623 20.5587 2.78884 21.1213C3.35144 21.6839 4.11451 22 4.91016 22H8.18016C8.97581 22 9.73887 21.6839 10.3015 21.1213C10.8641 20.5587 11.1802 19.7956 11.1802 19V15.73C11.1802 14.9343 10.8641 14.1713 10.3015 13.6087C9.73887 13.0461 8.97581 12.73 8.18016 12.73ZM19.6561 3.60513C19.4735 3.52912 19.2776 3.49 19.0798 3.49V3.5H15.7998C15.402 3.5 15.0204 3.65804 14.7391 3.93934C14.4578 4.22064 14.2998 4.60218 14.2998 5V8.26C14.2998 8.65782 14.4578 9.03936 14.7391 9.32066C15.0204 9.60196 15.402 9.76 15.7998 9.76H19.0798C19.4776 9.76 19.8592 9.60196 20.1405 9.32066C20.4218 9.03936 20.5798 8.65782 20.5798 8.26V5C20.5811 4.80218 20.5433 4.60605 20.4685 4.4229C20.3937 4.23976 20.2834 4.07322 20.144 3.93287C20.0046 3.79252 19.8388 3.68114 19.6561 3.60513ZM15.7998 2H19.0798C19.8755 2 20.6385 2.31607 21.2011 2.87868C21.7637 3.44129 22.0798 4.20435 22.0798 5V8.26C22.0798 9.05565 21.7637 9.81871 21.2011 10.3813C20.6385 10.9439 19.8755 11.26 19.0798 11.26H15.7998C15.0042 11.26 14.2411 10.9439 13.6785 10.3813C13.1159 9.81871 12.7998 9.05565 12.7998 8.26V5C12.7998 4.20435 13.1159 3.44129 13.6785 2.87868C14.2411 2.31607 15.0042 2 15.7998 2Z" fill="black"/>
</svg>
