<svg width="24" height="24" viewBox="0 0 24 24" fill="none" xmlns="http://www.w3.org/2000/svg">
<path fill-rule="evenodd" clip-rule="evenodd" d="M6.2 3C6.2 3.44183 6.55817 3.8 7 3.8C7.44183 3.8 7.8 3.44183 7.8 3C7.8 2.55817 7.44183 2.2 7 2.2C6.55817 2.2 6.2 2.55817 6.2 3ZM6.35 4.892C5.56451 4.62221 5 3.87703 5 3C5 1.89543 5.89543 1 7 1C8.10457 1 9 1.89543 9 3C9 3.87703 8.43549 4.62221 7.65 4.892V7H12.35V5C12.35 4.08873 13.0887 3.35 14 3.35L19.108 3.35C19.3778 2.56451 20.123 2 21 2C22.1046 2 23 2.89543 23 4C23 5.10457 22.1046 6 21 6C20.123 6 19.3778 5.43549 19.108 4.65L14 4.65C13.8067 4.65 13.65 4.8067 13.65 5V7H14C15.6569 7 17 8.34315 17 10L17 11.35H19C19.9113 11.35 20.65 12.0887 20.65 13V18.108C21.4355 18.3778 22 19.123 22 20C22 21.1046 21.1046 22 20 22C18.8954 22 18 21.1046 18 20C18 19.123 18.5645 18.3778 19.35 18.108V13C19.35 12.8067 19.1933 12.65 19 12.65H17L17 19C17 20.6569 15.6569 22 14 22H5.00001C3.34316 22 2.00001 20.6569 2.00001 19V18.5038C2 18.5014 2 18.4991 2.00001 18.4967V10C2.00001 8.34315 3.34316 7 5.00001 7H6.35L6.35 4.892ZM3.30001 18.4842V19C3.30001 19.9389 4.06113 20.7 5.00001 20.7H14C14.9389 20.7 15.7 19.9389 15.7 19V17.9001C15.6813 17.886 15.6634 17.8705 15.6465 17.8536L12.3536 14.5607C12.1583 14.3654 11.8417 14.3654 11.6465 14.5607L8.62792 17.5792L10.7867 19.0904C11.013 19.2487 11.068 19.5605 10.9096 19.7867C10.7513 20.013 10.4395 20.068 10.2133 19.9096L5.83961 16.848C5.65475 16.7186 5.40613 16.7291 5.23278 16.8735L3.30001 18.4842ZM7.79602 16.9969L6.41307 16.0288C5.8585 15.6406 5.11264 15.672 4.5926 16.1053L3.30001 17.1825V10C3.30001 9.06112 4.06113 8.3 5.00001 8.3H14C14.9389 8.3 15.7 9.06112 15.7 10V16.4929L13.0607 13.8536C12.4749 13.2678 11.5251 13.2678 10.9394 13.8536L7.79602 16.9969ZM6.62017 13.7052C6.63156 13.7068 6.64214 13.712 6.65026 13.7201C6.65839 13.7282 6.66363 13.7388 6.66517 13.7502V14.2752C6.66706 14.2997 6.67816 14.3227 6.69625 14.3394C6.71433 14.356 6.73806 14.3653 6.76267 14.3652H6.81517C7.06267 14.1552 7.31017 13.9377 7.56517 13.7127C7.80671 13.4961 8.02766 13.2576 8.22517 13.0002C8.57627 12.4173 8.68657 11.7206 8.53267 11.0577C8.47926 10.7742 8.33969 10.514 8.13299 10.3126C7.92629 10.1113 7.66253 9.97864 7.37767 9.93271C7.08872 9.87552 6.79471 9.84788 6.50017 9.85021C6.05107 9.83041 5.60438 9.92595 5.20267 10.1277C4.95974 10.3095 4.7693 10.5524 4.65074 10.8317C4.53217 11.111 4.48971 11.4167 4.52767 11.7177C4.50733 12.2647 4.69187 12.7996 5.04517 13.2177C5.49613 13.5611 6.05407 13.7338 6.62017 13.7052ZM19.2 20C19.2 19.5582 19.5582 19.2 20 19.2C20.4418 19.2 20.8 19.5582 20.8 20C20.8 20.4418 20.4418 20.8 20 20.8C19.5582 20.8 19.2 20.4418 19.2 20ZM20.2 4C20.2 4.44183 20.5582 4.8 21 4.8C21.4418 4.8 21.8 4.44183 21.8 4C21.8 3.55817 21.4418 3.2 21 3.2C20.5582 3.2 20.2 3.55817 20.2 4Z" fill="#202C44"/>
</svg>
