<svg width="24" height="24" viewBox="0 0 24 24" fill="none" xmlns="http://www.w3.org/2000/svg">
<path d="M17.3802 14.0699C18.6165 12.7379 19.3025 10.9872 19.3002 9.16988C19.3023 7.98659 19.0154 6.82069 18.4646 5.77341C17.9138 4.72612 17.1157 3.82912 16.1396 3.16026C15.1635 2.49141 14.0388 2.07094 12.8633 1.93534C11.6878 1.79975 10.497 1.95313 9.39423 2.38218C8.29146 2.81123 7.31009 3.50297 6.53532 4.39735C5.76055 5.29173 5.21579 6.3617 4.94836 7.51438C4.68093 8.66705 4.6989 9.86759 5.00071 11.0117C5.30252 12.1559 5.87905 13.2091 6.68024 14.0799L9.26024 17.7099C9.19585 17.8226 9.16142 17.95 9.16024 18.0799V20.3199C9.16024 20.7796 9.34218 21.2207 9.66634 21.5467C9.99049 21.8728 10.4305 22.0572 10.8902 22.0599H13.1702C13.6317 22.0599 14.0743 21.8766 14.4006 21.5502C14.7269 21.2239 14.9102 20.7814 14.9102 20.3199V18.0799C14.9093 17.9563 14.8748 17.8353 14.8102 17.7299L17.3802 14.0699ZM10.5202 16.8899L8.73024 14.3699H15.3402L13.5602 16.8899C13.4767 17.0211 13.4349 17.1745 13.4402 17.3299H10.6402C10.6505 17.1739 10.6082 17.019 10.5202 16.8899ZM17.8002 9.16988C17.7998 10.5237 17.3218 11.8339 16.4502 12.8699H15.5102C15.9312 11.6816 16.1476 10.4305 16.1502 9.16988C16.158 7.41993 15.7137 5.69764 14.8602 4.16988C15.7481 4.66955 16.4878 5.39538 17.0042 6.2736C17.5206 7.15182 17.7952 8.15111 17.8002 9.16988ZM12.4802 3.42988C13.9201 4.98968 14.6981 7.04763 14.6502 9.16988C14.6515 10.4421 14.3929 11.7012 13.8902 12.8699H10.2502C10.2502 12.8699 10.2502 12.7999 10.2502 12.7599C9.79145 11.6187 9.55717 10.3998 9.56024 9.16988C9.5129 7.04473 10.2906 4.98387 11.7302 3.41988H12.0502C12.1936 3.41383 12.3373 3.41717 12.4802 3.42988V3.42988ZM9.37024 4.05988C8.469 5.61179 7.99621 7.37526 8.00024 9.16988C8.00288 10.4305 8.21928 11.6816 8.64024 12.8699H7.62024C6.7449 11.8361 6.26631 10.5244 6.27024 9.16988C6.27006 8.11604 6.559 7.08234 7.1056 6.18134C7.6522 5.28033 8.43551 4.54655 9.37024 4.05988V4.05988ZM13.3702 20.3199C13.3702 20.3835 13.345 20.4446 13.2999 20.4896C13.2549 20.5346 13.1939 20.5599 13.1302 20.5599H10.8902C10.8592 20.5599 10.8284 20.5536 10.7999 20.5415C10.7713 20.5293 10.7455 20.5114 10.724 20.489C10.7025 20.4666 10.6857 20.44 10.6748 20.411C10.6638 20.3819 10.6589 20.3509 10.6602 20.3199V18.8299H13.4102L13.3702 20.3199Z" fill="black"/>
</svg>
