<svg width="24" height="24" viewBox="0 0 24 24" fill="none" xmlns="http://www.w3.org/2000/svg">
<path d="M4 11.7001C4 11.1478 4.44772 10.7001 5 10.7001H15C15.5523 10.7001 16 11.1478 16 11.7001V12.5001C16 13.0524 15.5523 13.5001 15 13.5001H5C4.44772 13.5001 4 13.0524 4 12.5001V11.7001Z" fill="#454545"/>
<path d="M4 5.6001C4 5.04781 4.44772 4.6001 5 4.6001H19C19.5523 4.6001 20 5.04781 20 5.6001V6.4001C20 6.95238 19.5523 7.4001 19 7.4001H5C4.44772 7.4001 4 6.95238 4 6.4001V5.6001Z" fill="#454545"/>
<path d="M4 17.5001C4 16.9478 4.44772 16.5001 5 16.5001H17C17.5523 16.5001 18 16.9478 18 17.5001V18.3001C18 18.8524 17.5523 19.3001 17 19.3001H5C4.44772 19.3001 4 18.8524 4 18.3001V17.5001Z" fill="#454545"/>
</svg>
