<svg width="24" height="24" viewBox="0 0 24 24" fill="none" xmlns="http://www.w3.org/2000/svg">
<path d="M6 11.7001C6 11.1478 6.44772 10.7001 7 10.7001H17C17.5523 10.7001 18 11.1478 18 11.7001V12.5001C18 13.0524 17.5523 13.5001 17 13.5001H7C6.44772 13.5001 6 13.0524 6 12.5001V11.7001Z" fill="#454545"/>
<path d="M4 5.6001C4 5.04781 4.44772 4.6001 5 4.6001H19C19.5523 4.6001 20 5.04781 20 5.6001V6.4001C20 6.95238 19.5523 7.4001 19 7.4001H5C4.44772 7.4001 4 6.95238 4 6.4001V5.6001Z" fill="#454545"/>
<path d="M5 17.5001C5 16.9478 5.44772 16.5001 6 16.5001H18C18.5523 16.5001 19 16.9478 19 17.5001V18.3001C19 18.8524 18.5523 19.3001 18 19.3001H6C5.44772 19.3001 5 18.8524 5 18.3001V17.5001Z" fill="#454545"/>
</svg>
