<svg width="24" height="24" viewBox="0 0 24 24" fill="none" xmlns="http://www.w3.org/2000/svg">
<path d="M8.8125 1.93018C9.01138 1.93018 9.20213 2.00929 9.34277 2.1499C9.48343 2.29055 9.5625 2.48126 9.5625 2.68018C9.5625 2.87909 9.48343 3.0698 9.34277 3.21045C9.20213 3.35106 9.01138 3.43018 8.8125 3.43018H5.68262C5.08588 3.43018 4.51375 3.6674 4.0918 4.08936C3.66984 4.51131 3.43262 5.08344 3.43262 5.68018V18.3198C3.43262 18.9166 3.66984 19.4897 4.0918 19.9116C4.51372 20.3334 5.08603 20.5698 5.68262 20.5698H8.8125C9.0113 20.5698 9.20214 20.649 9.34277 20.7896C9.48334 20.9301 9.5624 21.121 9.5625 21.3198C9.5625 21.5187 9.48335 21.7095 9.34277 21.8501C9.20212 21.9907 9.01141 22.0698 8.8125 22.0698H5.68262C4.6882 22.0698 3.73448 21.6752 3.03125 20.9722C2.32799 20.2689 1.93262 19.3144 1.93262 18.3198V5.68018C1.93262 4.68561 2.32799 3.73207 3.03125 3.02881C3.73451 2.32555 4.68806 1.93018 5.68262 1.93018H8.8125ZM18.3223 1.93018C19.3168 1.93018 20.2704 2.32558 20.9736 3.02881C21.6769 3.73207 22.0723 4.68561 22.0723 5.68018V18.3198C22.0723 19.3144 21.6769 20.2689 20.9736 20.9722C20.2704 21.6752 19.3167 22.0698 18.3223 22.0698H15.1924C14.9935 22.0698 14.8028 21.9907 14.6621 21.8501C14.5216 21.7095 14.4424 21.5187 14.4424 21.3198C14.4425 21.121 14.5215 20.9301 14.6621 20.7896C14.8027 20.649 14.9936 20.5698 15.1924 20.5698H18.3223C18.9188 20.5698 19.4912 20.3333 19.9131 19.9116C20.335 19.4897 20.5723 18.9166 20.5723 18.3198V5.68018C20.5723 5.08344 20.335 4.51131 19.9131 4.08936C19.4911 3.66744 18.919 3.43018 18.3223 3.43018H15.1924C15.0939 3.43018 14.9962 3.41121 14.9053 3.37354C14.8143 3.33584 14.7318 3.28009 14.6621 3.21045C14.5925 3.14081 14.5367 3.05828 14.499 2.96729C14.4614 2.87631 14.4424 2.77864 14.4424 2.68018C14.4424 2.58171 14.4614 2.48404 14.499 2.39307C14.5367 2.30207 14.5925 2.21955 14.6621 2.1499C14.7318 2.08026 14.8143 2.02451 14.9053 1.98682C14.9962 1.94915 15.0939 1.93018 15.1924 1.93018H18.3223Z" fill="#282828"/>
</svg>
