<svg width="24" height="24" viewBox="0 0 24 24" fill="none" xmlns="http://www.w3.org/2000/svg">
<path d="M12.1498 15.9001C12.0513 15.9005 11.9537 15.8813 11.8627 15.8435C11.7716 15.8058 11.6891 15.7502 11.6198 15.6801L6.21985 10.2801C6.08737 10.1379 6.01524 9.94985 6.01867 9.75555C6.0221 9.56125 6.10081 9.37586 6.23822 9.23845C6.37564 9.10104 6.56102 9.02233 6.75532 9.0189C6.94963 9.01547 7.13767 9.08759 7.27985 9.22007L12.1498 14.0901L16.9998 9.22007C17.1405 9.07962 17.3311 9.00073 17.5298 9.00073C17.7286 9.00073 17.9192 9.07962 18.0598 9.22007C18.1306 9.28902 18.1868 9.37143 18.2252 9.46246C18.2636 9.55349 18.2834 9.65128 18.2834 9.75007C18.2834 9.84887 18.2636 9.94666 18.2252 10.0377C18.1868 10.1287 18.1306 10.2111 18.0598 10.2801L12.6598 15.6801C12.5255 15.8177 12.3422 15.8968 12.1498 15.9001V15.9001Z" fill="black"/>
</svg>
