<svg width="24" height="24" viewBox="0 0 24 24" fill="none" xmlns="http://www.w3.org/2000/svg">
<path fill-rule="evenodd" clip-rule="evenodd" d="M15.9441 17.9434C16.0351 17.9812 16.1328 18.0004 16.2313 18C16.3314 17.9984 16.4301 17.9764 16.5212 17.9351C16.6124 17.8938 16.6941 17.8342 16.7613 17.76C16.9017 17.6194 16.9806 17.4287 16.9806 17.23C16.9806 17.0312 16.9017 16.8406 16.7613 16.7L11.8913 11.85L16.7613 6.97998C16.835 6.91132 16.8941 6.82852 16.9351 6.73652C16.9761 6.64452 16.9981 6.54521 16.9999 6.44451C17.0017 6.3438 16.9831 6.24377 16.9454 6.15039C16.9077 6.057 16.8516 5.97216 16.7803 5.90094C16.7091 5.82973 16.6243 5.77358 16.5309 5.73586C16.4375 5.69814 16.3375 5.67961 16.2368 5.68139C16.1361 5.68317 16.0368 5.70521 15.9448 5.7462C15.8528 5.78719 15.77 5.8463 15.7013 5.91998L10.3013 11.32C10.1608 11.4606 10.082 11.6512 10.082 11.85C10.082 12.0487 10.1608 12.2394 10.3013 12.38L15.7013 17.78C15.7705 17.8501 15.8531 17.9057 15.9441 17.9434ZM6.33195 5.68127C5.91774 5.68127 5.58195 6.01706 5.58195 6.43127L5.58195 16.9313C5.58195 17.3455 5.91774 17.6813 6.33195 17.6813C6.74617 17.6813 7.08195 17.3455 7.08195 16.9313L7.08195 6.43127C7.08195 6.01706 6.74617 5.68127 6.33195 5.68127Z" fill="#505F79"/>
</svg>
