<svg width="24" height="24" viewBox="0 0 24 24" fill="none" xmlns="http://www.w3.org/2000/svg">
<path d="M6.74983 14.9001C6.65129 14.9005 6.55365 14.8813 6.46263 14.8435C6.37162 14.8058 6.28907 14.7502 6.21983 14.6801C6.07938 14.5394 6.00049 14.3488 6.00049 14.1501C6.00049 13.9513 6.07938 13.7607 6.21983 13.6201L11.6198 8.22007C11.7605 8.07962 11.9511 8.00073 12.1498 8.00073C12.3486 8.00073 12.5392 8.07962 12.6798 8.22007L18.0798 13.6201C18.1506 13.689 18.2068 13.7714 18.2452 13.8625C18.2836 13.9535 18.3034 14.0513 18.3034 14.1501C18.3034 14.2489 18.2836 14.3467 18.2452 14.4377C18.2068 14.5287 18.1506 14.6111 18.0798 14.6801C17.9392 14.8205 17.7486 14.8994 17.5498 14.8994C17.3511 14.8994 17.1605 14.8205 17.0198 14.6801L12.1498 9.81007L7.27983 14.6801C7.21058 14.7502 7.12803 14.8058 7.03702 14.8435C6.94601 14.8813 6.84837 14.9005 6.74983 14.9001V14.9001Z" fill="black"/>
</svg>
