<svg width="24" height="24" viewBox="0 0 24 24" fill="none" xmlns="http://www.w3.org/2000/svg">
<path d="M8.75024 18.3001C8.6517 18.3006 8.55406 18.2813 8.46305 18.2436C8.37204 18.2058 8.28949 18.1502 8.22024 18.0801C8.14766 18.0101 8.08992 17.9262 8.05048 17.8335C8.01105 17.7407 7.99072 17.6409 7.99072 17.5401C7.99072 17.4393 8.01105 17.3395 8.05048 17.2467C8.08992 17.1539 8.14766 17.0701 8.22024 17.0001L13.0902 12.1501L8.22024 7.28009C8.08776 7.13792 8.01564 6.94987 8.01907 6.75557C8.0225 6.56127 8.10121 6.37588 8.23862 6.23847C8.37603 6.10106 8.56142 6.02234 8.75572 6.01892C8.95002 6.01549 9.13807 6.08761 9.28024 6.22009L14.6802 11.6201C14.8207 11.7607 14.8996 11.9513 14.8996 12.1501C14.8996 12.3488 14.8207 12.5395 14.6802 12.6801L9.28024 18.0801C9.211 18.1502 9.12845 18.2058 9.03744 18.2436C8.94642 18.2813 8.84878 18.3006 8.75024 18.3001V18.3001Z" fill="black"/>
</svg>
