<svg width="24" height="24" viewBox="0 0 24 24" fill="none" xmlns="http://www.w3.org/2000/svg">
<path fill-rule="evenodd" clip-rule="evenodd" d="M20.531 2.1906C20.8253 2.48211 20.8275 2.95698 20.536 3.25125L4.52916 19.4094C4.23765 19.7037 3.76278 19.7059 3.46851 19.4144C3.17424 19.1229 3.17201 18.648 3.46352 18.3538L19.4704 2.19559C19.7619 1.90132 20.2367 1.89909 20.531 2.1906Z" fill="#454545"/>
<path fill-rule="evenodd" clip-rule="evenodd" d="M15.9126 3.82097C15.8635 3.76776 15.8132 3.71542 15.7618 3.66402C14.7454 2.64757 13.3668 2.07654 11.9293 2.07654C10.4918 2.07654 9.11322 2.64757 8.09677 3.66402C7.08032 4.68047 6.50929 6.05906 6.50929 7.49654V11.2065C6.5082 11.7974 6.60372 12.3836 6.79133 12.9422L8.03968 11.6938C8.01954 11.533 8.00929 11.3703 8.00929 11.2065V7.49654C8.00929 6.45689 8.42229 5.45982 9.15743 4.72468C9.89257 3.98954 10.8896 3.57654 11.9293 3.57654C12.9689 3.57654 13.966 3.98954 14.7011 4.72468C14.7526 4.77613 14.8025 4.82887 14.8507 4.88281L15.9126 3.82097ZM15.6354 6.21945L16.7788 5.07607C17 5.51924 17.1599 5.99171 17.2532 6.48037L15.8493 7.88427V7.49654C15.8493 7.05776 15.7757 6.62657 15.6354 6.21945ZM8.59194 13.2629L7.50601 14.3488C7.68144 14.5965 7.87777 14.8297 8.09323 15.0455C8.19253 15.145 8.2955 15.2404 8.40189 15.3316L9.47243 14.2611C9.36292 14.173 9.25774 14.0787 9.15743 13.9784C8.93996 13.7609 8.75068 13.5205 8.59194 13.2629ZM10.8732 14.9816L9.69861 16.1562C9.74963 16.1793 9.80105 16.2015 9.85283 16.223C10.5111 16.496 11.2167 16.6365 11.9293 16.6365C12.6419 16.6365 13.3475 16.496 14.0057 16.223C14.664 15.95 15.2619 15.5499 15.7653 15.0455C16.2688 14.5412 16.6678 13.9425 16.9396 13.2838C17.2114 12.625 17.3506 11.9191 17.3493 11.2065V8.50559L15.8493 10.0056V11.2065C15.8493 12.2462 15.4363 13.2433 14.7011 13.9784C13.966 14.7135 12.9689 15.1265 11.9293 15.1265C11.5691 15.1265 11.2141 15.077 10.8732 14.9816ZM7.3292 16.4043C6.98801 16.1206 6.67363 15.8061 6.39005 15.4648L5.35181 16.503C5.64139 16.8386 5.95624 17.1518 6.29366 17.4398L7.3292 16.4043ZM7.53207 18.3228L8.60213 17.2527C9.59779 17.7737 10.7026 18.0565 11.8294 18.0766H11.9294H12.0294C13.276 18.0598 14.4972 17.7215 15.5746 17.0943C16.652 16.4671 17.5493 15.5723 18.1794 14.4966C18.276 14.3279 18.4349 14.2041 18.622 14.1517C18.8091 14.0993 19.0093 14.1226 19.1794 14.2166C19.2676 14.2636 19.3454 14.3279 19.4084 14.4054C19.4714 14.483 19.5183 14.5724 19.5462 14.6684C19.5742 14.7644 19.5826 14.8649 19.5712 14.9642C19.5597 15.0635 19.5285 15.1595 19.4794 15.2466C18.7758 16.4535 17.7928 17.474 16.613 18.2222C15.4333 18.9704 14.0911 19.4246 12.6994 19.5466V21.2766C12.6994 21.4755 12.6204 21.6662 12.4797 21.8069C12.3391 21.9475 12.1483 22.0266 11.9494 22.0266C11.7505 22.0266 11.5597 21.9475 11.4191 21.8069C11.2784 21.6662 11.1994 21.4755 11.1994 21.2766V19.4966C9.90364 19.383 8.65086 18.9815 7.53207 18.3228ZM4.463 15.2705L5.4897 14.2438C5.41988 14.1935 5.34119 14.1553 5.25677 14.1317C5.06967 14.0793 4.86948 14.1026 4.69941 14.1966C4.53273 14.2949 4.41053 14.4539 4.35834 14.6403C4.30616 14.8266 4.32804 15.0259 4.41941 15.1966C4.43382 15.2213 4.44835 15.2459 4.463 15.2705Z" fill="#454545"/>
</svg>
