<svg width="24" height="24" viewBox="0 0 24 24" fill="none" xmlns="http://www.w3.org/2000/svg">
<path fill-rule="evenodd" clip-rule="evenodd" d="M14.9268 1.80961C15.2331 1.97442 15.3859 2.32821 15.2959 2.66419L13.4195 9.66716L17.5247 10.7671C17.7757 10.8344 17.9741 11.0269 18.0489 11.2758C18.1236 11.5248 18.0642 11.7947 17.8917 11.9892L8.99032 22.0274C8.75954 22.2876 8.38011 22.3551 8.0738 22.1902C7.76749 22.0254 7.6147 21.6716 7.70472 21.3357L9.58116 14.3327L5.47597 13.2327C5.2249 13.1654 5.02656 12.973 4.95179 12.724C4.87702 12.4751 4.93648 12.2052 5.10894 12.0107L14.0103 1.97248C14.2411 1.71223 14.6205 1.6448 14.9268 1.80961ZM7.03638 12.0979L10.6938 13.0779C11.0939 13.1851 11.3314 13.5964 11.2242 13.9965L9.97589 18.6551L15.9643 11.9019L12.3068 10.9219C11.9067 10.8147 11.6693 10.4035 11.7765 10.0034L13.0247 5.34476L7.03638 12.0979Z" fill="#202C44"/>
</svg>
