<svg width="24" height="24" viewBox="0 0 24 24" fill="none" xmlns="http://www.w3.org/2000/svg">
<path fill-rule="evenodd" clip-rule="evenodd" d="M12 20.7C16.8049 20.7 20.7 16.8049 20.7 12C20.7 7.19512 16.8049 3.3 12 3.3C7.19512 3.3 3.3 7.19512 3.3 12C3.3 16.8049 7.19512 20.7 12 20.7ZM12 22C17.5228 22 22 17.5228 22 12C22 6.47715 17.5228 2 12 2C6.47715 2 2 6.47715 2 12C2 17.5228 6.47715 22 12 22ZM8 11.3C7.6134 11.3 7.3 11.6134 7.3 12V16C7.3 16.3866 7.6134 16.7 8 16.7H16C16.3866 16.7 16.7 16.3866 16.7 16V12C16.7 11.6134 16.3866 11.3 16 11.3H8ZM8 10C6.89543 10 6 10.8954 6 12V16C6 17.1046 6.89543 18 8 18H16C17.1046 18 18 17.1046 18 16V12C18 10.8954 17.1046 10 16 10H12.6V9C12.6 8.96959 12.5977 8.9397 12.5934 8.91051C13.4082 8.65771 14 7.89797 14 7C14 5.89543 13.1046 5 12 5C10.8954 5 10 5.89543 10 7C10 7.89797 10.5918 8.65771 11.4066 8.91051C11.4023 8.9397 11.4 8.96959 11.4 9V10H8ZM12 8C12.5523 8 13 7.55228 13 7C13 6.44772 12.5523 6 12 6C11.4477 6 11 6.44772 11 7C11 7.55228 11.4477 8 12 8ZM10.4685 13.6252C10.2615 13.3664 9.88394 13.3245 9.62518 13.5315C9.36643 13.7385 9.32447 14.1161 9.53148 14.3748C9.8512 14.7745 10.7387 15.6 12 15.6C13.2613 15.6 14.1488 14.7745 14.4685 14.3748C14.6755 14.1161 14.6336 13.7385 14.3748 13.5315C14.1161 13.3245 13.7385 13.3664 13.5315 13.6252C13.3179 13.8922 12.7387 14.4 12 14.4C11.2613 14.4 10.6821 13.8922 10.4685 13.6252Z" fill="#202C44"/>
</svg>
