<svg width="24" height="24" viewBox="0 0 24 24" fill="none" xmlns="http://www.w3.org/2000/svg">
<path fill-rule="evenodd" clip-rule="evenodd" d="M5.90436 4.07262C7.63425 2.74245 9.75175 2.01464 11.9339 2.00021C13.4721 1.99028 14.9919 2.33536 16.3751 3.00862C17.7582 3.68187 18.9674 4.66514 19.9085 5.88194C20.8496 7.09874 21.4974 8.51626 21.8013 10.0242C22.1052 11.5322 22.0572 13.0899 21.6609 14.5763C21.2646 16.0627 20.5307 17.4376 19.5163 18.594C18.502 19.7505 17.2345 20.6574 15.8125 21.2441C14.3905 21.8308 12.8523 22.0815 11.3176 21.9768C9.78285 21.8721 8.29299 21.4147 6.96387 20.6402L6.86387 20.5802C4.99152 19.4594 3.53718 17.7569 2.72269 15.7325C1.9082 13.708 1.77827 11.4727 2.35272 9.3675C2.92718 7.2623 4.17448 5.40279 5.90436 4.07262ZM7.63387 18.7102C7.63774 18.9557 7.70306 19.1964 7.82387 19.4102H7.90387C9.12667 20.0842 10.4976 20.4444 11.8938 20.4583C13.29 20.4723 14.6678 20.1397 15.9039 19.4902C15.8903 19.4175 15.8903 19.3429 15.9039 19.2702C15.9749 19.092 16.0122 18.9021 16.0139 18.7102C16.0139 17.9455 15.7108 17.2119 15.1709 16.6702C14.6311 16.1285 13.8986 15.8229 13.1339 15.8202H10.5139C9.74913 15.8229 9.01661 16.1285 8.47679 16.6702C7.93697 17.2119 7.63387 17.9455 7.63387 18.7102ZM16.1041 15.5281C16.9106 16.2808 17.4033 17.3101 17.4839 18.4102C18.7808 17.2839 19.705 15.7902 20.1343 14.127C20.5636 12.4638 20.4776 10.7094 19.8879 9.0961C19.2981 7.4828 18.2322 6.08665 16.8315 5.09246C15.4307 4.09827 13.761 3.55292 12.0435 3.5286C10.3259 3.50428 8.64145 4.00214 7.21308 4.95627C5.78472 5.9104 4.67979 7.27581 4.04456 8.87177C3.40933 10.4677 3.27375 12.219 3.65576 13.8937C4.03778 15.5684 4.91938 17.0876 6.18387 18.2502C6.29949 17.1813 6.80507 16.1926 7.60391 15.4731C8.40275 14.7536 9.43878 14.3538 10.5139 14.3502H13.1339C14.237 14.3548 15.2977 14.7755 16.1041 15.5281ZM9.89037 7.23663C10.4626 6.85425 11.1355 6.65015 11.8238 6.65015C12.7467 6.65015 13.6319 7.01679 14.2845 7.66942C14.9371 8.32204 15.3038 9.20719 15.3038 10.1301C15.3038 10.8184 15.0997 11.4912 14.7173 12.0635C14.3349 12.6358 13.7914 13.0819 13.1555 13.3452C12.5196 13.6086 11.8199 13.6776 11.1448 13.5433C10.4698 13.409 9.84971 13.0776 9.36302 12.5909C8.87633 12.1042 8.5449 11.4841 8.41062 10.8091C8.27634 10.134 8.34526 9.43429 8.60865 8.79841C8.87204 8.16252 9.31808 7.61902 9.89037 7.23663ZM10.7126 11.7631C11.0415 11.9828 11.4282 12.1001 11.8238 12.1001C12.3542 12.1001 12.8629 11.8894 13.238 11.5144C13.613 11.1393 13.8238 10.6306 13.8238 10.1001C13.8238 9.70458 13.7065 9.3179 13.4867 8.98901C13.2669 8.66011 12.9546 8.40376 12.5891 8.25239C12.2237 8.10101 11.8215 8.06141 11.4336 8.13858C11.0456 8.21575 10.6892 8.40623 10.4095 8.68593C10.1298 8.96564 9.93935 9.322 9.86218 9.70997C9.78501 10.0979 9.82462 10.5001 9.97599 10.8655C10.1274 11.231 10.3837 11.5433 10.7126 11.7631Z" fill="black"/>
</svg>
