<svg width="24" height="24" viewBox="0 0 24 24" fill="none" xmlns="http://www.w3.org/2000/svg">
<path fill-rule="evenodd" clip-rule="evenodd" d="M7.18384 6.07776V5.06622C7.18384 2.4063 9.34013 0.25 12.0001 0.25C14.66 0.25 16.8163 2.4063 16.8163 5.06622V6.07775C17.0658 6.08318 17.2931 6.09258 17.5005 6.10884C18.008 6.14862 18.4553 6.23265 18.8766 6.43262C19.5488 6.7517 20.1108 7.26354 20.4913 7.90302C20.5161 7.9447 20.5428 7.98755 20.5705 8.03209C20.6888 8.22205 20.8264 8.4429 20.9185 8.73561C21.0256 9.07593 21.0844 9.52736 21.1551 10.2819L21.7582 16.7154C21.8409 17.5967 21.9073 18.3055 21.9125 18.8801C21.9178 19.47 21.8612 19.992 21.6514 20.4803C21.3199 21.252 20.7388 21.89 20.0014 22.2922C19.5349 22.5466 19.0204 22.6517 18.4327 22.7015C17.8601 22.7499 17.1483 22.7499 16.2631 22.7499H7.73767C6.85246 22.7499 6.14068 22.7499 5.56809 22.7015C4.98031 22.6517 4.46586 22.5466 3.99929 22.2922C3.26192 21.89 2.68089 21.252 2.34933 20.4803C2.13954 19.992 2.0829 19.47 2.08823 18.8801C2.09342 18.3055 2.15987 17.5968 2.2425 16.7155L2.84565 10.2819C2.91639 9.52736 2.97512 9.07593 3.08224 8.73561C3.17436 8.4429 3.31185 8.22217 3.43017 8.03221C3.45794 7.98763 3.48465 7.94474 3.50947 7.90302C3.88991 7.26354 4.45198 6.7517 5.12417 6.43262C5.54543 6.23265 5.99272 6.14862 6.5002 6.10884C6.70745 6.09259 6.93456 6.08319 7.18384 6.07776ZM8.68384 5.06622C8.68384 3.23472 10.1686 1.75 12.0001 1.75C13.8316 1.75 15.3163 3.23472 15.3163 5.06622V6.07031L8.68384 6.07031V5.06622ZM7.18384 7.57809V10.1128C7.18384 10.527 7.51962 10.8628 7.93384 10.8628C8.34805 10.8628 8.68384 10.527 8.68384 10.1128V7.57031L15.3163 7.57031V10.1128C15.3163 10.527 15.6521 10.8628 16.0663 10.8628C16.4805 10.8628 16.8163 10.527 16.8163 10.1128V7.57808C17.0287 7.58301 17.2152 7.59107 17.3833 7.60425C17.8002 7.63693 18.044 7.69782 18.2333 7.7877C18.6366 7.97915 18.9739 8.28625 19.2022 8.66994C19.266 8.77727 19.3132 8.85384 19.3491 8.91218C19.4342 9.05026 19.4563 9.08617 19.4877 9.18595C19.539 9.34897 19.5883 9.63981 19.6616 10.4219L20.2616 16.8219C20.3482 17.7446 20.408 18.39 20.4126 18.8937C20.4171 19.3894 20.3654 19.6737 20.2732 19.8881C20.0743 20.3511 19.7257 20.734 19.2833 20.9753C19.0783 21.087 18.8001 21.165 18.3062 21.2068C17.8043 21.2493 17.1561 21.2499 16.2293 21.2499H7.77142C6.84463 21.2499 6.19646 21.2493 5.69459 21.2068C5.20065 21.165 4.92243 21.087 4.71749 20.9753C4.27506 20.734 3.92645 20.3512 3.72751 19.8881C3.63536 19.6737 3.58369 19.3894 3.58817 18.8937C3.59272 18.39 3.65259 17.7446 3.7391 16.8219L4.3391 10.4219C4.41242 9.6398 4.46173 9.34896 4.51304 9.18595C4.54444 9.08617 4.56657 9.05025 4.65163 8.91218C4.68757 8.85384 4.73474 8.77726 4.79859 8.66993C5.02685 8.28625 5.3641 7.97914 5.76741 7.78769C5.95674 7.69782 6.20059 7.63693 6.61743 7.60425C6.78538 7.59108 6.97172 7.58302 7.18384 7.57809Z" fill="#454545"/>
</svg>
