<svg width="24" height="24" viewBox="0 0 24 24" fill="none" xmlns="http://www.w3.org/2000/svg">
<path d="M20.92 17.08C20.4171 16.5073 19.9902 15.8721 19.65 15.19C19.4712 13.8275 19.3877 12.4542 19.4 11.08C19.3992 9.31693 18.7442 7.61687 17.5619 6.30896C16.3796 5.00104 14.7541 4.1783 13 4.00001V3.89001C13 3.6248 12.8947 3.37044 12.7071 3.18291C12.5196 2.99537 12.2653 2.89001 12 2.89001C11.7348 2.89001 11.4805 2.99537 11.2929 3.18291C11.1054 3.37044 11 3.6248 11 3.89001V4.00001C9.24856 4.17579 7.62455 4.99504 6.4423 6.29921C5.26005 7.60338 4.60362 9.29974 4.60004 11.06C4.61271 12.4375 4.52917 13.8142 4.35004 15.18C4.00986 15.8621 3.58299 16.4973 3.08004 17.07C2.96641 17.2223 2.89854 17.4039 2.88438 17.5934C2.87021 17.7829 2.91033 17.9725 3.00004 18.14C3.07965 18.3121 3.20653 18.4579 3.36587 18.5606C3.52522 18.6633 3.71047 18.7186 3.90004 18.72H9.10004C9.16616 19.4326 9.50451 20.0922 10.0447 20.5616C10.5849 21.031 11.2852 21.274 12 21.24C12.7315 21.3011 13.4574 21.0704 14.0194 20.5983C14.5814 20.1262 14.9339 19.451 15 18.72H20.2C20.3896 18.7186 20.5749 18.6633 20.7342 18.5606C20.8935 18.4579 21.0204 18.3121 21.1 18.14C21.1741 17.9645 21.1965 17.7715 21.1646 17.5838C21.1327 17.396 21.0479 17.2212 20.92 17.08V17.08ZM12 19.24C11.86 19.24 11.21 19.24 11.06 18.72H12.94C12.79 19.21 12.14 19.24 12 19.24ZM5.81004 16.72C6.01375 16.4095 6.17517 16.0732 6.29004 15.72C6.50979 14.19 6.61342 12.6456 6.60004 11.1C6.60533 9.74557 7.14709 8.44841 8.1067 7.49255C9.06632 6.53668 10.3656 6 11.72 6.00001H12.28C13.6379 6.00001 14.9402 6.53944 15.9004 7.49963C16.8606 8.45981 17.4 9.76211 17.4 11.12C17.387 12.6623 17.4906 14.2034 17.71 15.73C17.8268 16.0824 17.9881 16.4185 18.19 16.73L5.81004 16.72Z" fill="#010101"/>
</svg>
