<svg xmlns="http://www.w3.org/2000/svg" viewBox="0 0 24 24"><defs><style>.cls-1{fill:#010101;}.cls-2{fill:none;}</style></defs><title>bell</title><g id="Camada_2" data-name="Camada 2"><g id="Camada_1-2" data-name="Camada 1"><path class="cls-1" d="M20.92,17.08a8.85,8.85,0,0,1-1.27-1.89,29.54,29.54,0,0,1-.25-4.11A7.12,7.12,0,0,0,13,4V3.89a1,1,0,0,0-2,0V4a7.11,7.11,0,0,0-6.4,7.06,29.59,29.59,0,0,1-.25,4.12,8.85,8.85,0,0,1-1.27,1.89A1,1,0,0,0,3,18.14a1,1,0,0,0,.9.58h5.2A2.78,2.78,0,0,0,12,21.24,2.78,2.78,0,0,0,15,18.72h5.2a1,1,0,0,0,.9-.58A1,1,0,0,0,20.92,17.08ZM12,19.24c-.14,0-.79,0-.94-.52h1.88C12.79,19.21,12.14,19.24,12,19.24ZM5.81,16.72a4.18,4.18,0,0,0,.48-1,30.63,30.63,0,0,0,.31-4.62A5.12,5.12,0,0,1,11.72,6h.56a5.12,5.12,0,0,1,5.12,5.12,30.58,30.58,0,0,0,.31,4.61,4.36,4.36,0,0,0,.48,1Z"/><rect class="cls-2" width="24" height="24"/><rect class="cls-2" width="24" height="24"/></g></g></svg>