<svg width="24" height="24" viewBox="0 0 24 24" fill="none" xmlns="http://www.w3.org/2000/svg">
<path d="M18 2.62H6C5.00544 2.62 4.05161 3.01508 3.34835 3.71834C2.64509 4.42161 2.25 5.37543 2.25 6.37V13.37C2.25264 14.3637 2.64858 15.316 3.35127 16.0187C4.05396 16.7214 5.00625 17.1174 6 17.12H11.25V19.89H8.72C8.52109 19.89 8.33032 19.969 8.18967 20.1097C8.04902 20.2503 7.97 20.4411 7.97 20.64C7.97 20.8389 8.04902 21.0297 8.18967 21.1703C8.33032 21.311 8.52109 21.39 8.72 21.39H15.28C15.4789 21.39 15.6697 21.311 15.8103 21.1703C15.951 21.0297 16.03 20.8389 16.03 20.64C16.03 20.4411 15.951 20.2503 15.8103 20.1097C15.6697 19.969 15.4789 19.89 15.28 19.89H12.75V17.12H18C18.9938 17.1174 19.946 16.7214 20.6487 16.0187C21.3514 15.316 21.7474 14.3637 21.75 13.37V6.37C21.75 5.87754 21.653 5.3899 21.4645 4.93493C21.2761 4.47996 20.9999 4.06656 20.6517 3.71834C20.3034 3.37012 19.89 3.0939 19.4351 2.90545C18.9801 2.71699 18.4925 2.62 18 2.62V2.62ZM6 4.12H18C18.5967 4.12 19.169 4.35705 19.591 4.77901C20.0129 5.20096 20.25 5.77326 20.25 6.37V12.49H3.75V6.37C3.75 5.77326 3.98705 5.20096 4.40901 4.77901C4.83097 4.35705 5.40326 4.12 6 4.12V4.12ZM18 15.62H6C5.51528 15.6162 5.04462 15.4567 4.65748 15.165C4.27034 14.8733 3.98725 14.4649 3.85 14H20.15C20.0127 14.4649 19.7297 14.8733 19.3425 15.165C18.9554 15.4567 18.4847 15.6162 18 15.62V15.62Z" fill="black"/>
</svg>
