<svg width="24" height="24" viewBox="0 0 24 24" fill="none" xmlns="http://www.w3.org/2000/svg">
<path fill-rule="evenodd" clip-rule="evenodd" d="M17.2 4C17.2 3.55817 17.5582 3.2 18 3.2C18.4418 3.2 18.8 3.55817 18.8 4C18.8 4.44183 18.4418 4.8 18 4.8C17.5582 4.8 17.2 4.44183 17.2 4ZM16 4C16 2.89543 16.8954 2 18 2C19.1046 2 20 2.89543 20 4C20 4.89793 19.4083 5.65765 18.5935 5.91048C18.5978 5.93965 18.6001 5.96951 18.6001 5.9999L18.6001 7.9999C18.6001 8.88356 17.8838 9.5999 17.0001 9.5999H14.5001C14.1687 9.5999 13.9001 9.33127 13.9001 8.9999C13.9001 8.66853 14.1687 8.3999 14.5001 8.3999H17.0001C17.221 8.3999 17.4001 8.22082 17.4001 7.9999L17.4001 5.9999C17.4001 5.96953 17.4024 5.93969 17.4067 5.91053C16.5918 5.65776 16 4.898 16 4ZM17.4001 18.0001C17.4001 18.0305 17.4024 18.0603 17.4067 18.0895C16.5918 18.3422 16 19.102 16 20C16 21.1046 16.8954 22 18 22C19.1046 22 20 21.1046 20 20C20 19.1021 19.4083 18.3424 18.5935 18.0895C18.5978 18.0603 18.6001 18.0305 18.6001 18.0001L18.6001 16.0001C18.6001 15.1164 17.8838 14.4001 17.0001 14.4001H14.0001C13.6687 14.4001 13.4001 14.6687 13.4001 15.0001C13.4001 15.3315 13.6687 15.6001 14.0001 15.6001H17.0001C17.221 15.6001 17.4001 15.7792 17.4001 16.0001L17.4001 18.0001ZM20 11.2C19.5582 11.2 19.2 11.5582 19.2 12C19.2 12.4418 19.5582 12.8 20 12.8C20.4418 12.8 20.8 12.4418 20.8 12C20.8 11.5582 20.4418 11.2 20 11.2ZM18.0895 12.5933C18.0603 12.5976 18.0305 12.5999 18.0001 12.5999H15.0001C14.6687 12.5999 14.4001 12.3313 14.4001 11.9999C14.4001 11.6685 14.6687 11.3999 15.0001 11.3999H18.0001C18.0305 11.3999 18.0603 11.4022 18.0895 11.4065C18.3424 10.5917 19.1021 10 20 10C21.1046 10 22 10.8954 22 12C22 13.1046 21.1046 14 20 14C19.102 14 18.3422 13.4082 18.0895 12.5933ZM18 20.8C17.5582 20.8 17.2 20.4418 17.2 20C17.2 19.5582 17.5582 19.2 18 19.2C18.4418 19.2 18.8 19.5582 18.8 20C18.8 20.4418 18.4418 20.8 18 20.8ZM4.8999 9.9999C4.8999 9.66853 5.16853 9.3999 5.4999 9.3999L9.4999 9.3999C9.83127 9.3999 10.0999 9.66853 10.0999 9.9999C10.0999 10.3313 9.83127 10.5999 9.4999 10.5999L5.4999 10.5999C5.16853 10.5999 4.8999 10.3313 4.8999 9.9999ZM5.3999 11.9999C5.3999 11.6685 5.66853 11.3999 5.9999 11.3999H8.9999C9.33127 11.3999 9.5999 11.6685 9.5999 11.9999C9.5999 12.3313 9.33127 12.5999 8.9999 12.5999L5.9999 12.5999C5.66853 12.5999 5.3999 12.3313 5.3999 11.9999ZM7.2642 16.5323C7.24094 16.9182 7.21408 17.3637 7.46981 17.6201C7.21398 17.3638 7.24084 16.9182 7.2641 16.5322L7.2641 16.5322C7.27044 16.4269 7.27652 16.3261 7.27653 16.2347L7.27662 16.2348C7.27662 16.3261 7.27055 16.427 7.2642 16.5323V16.5323ZM3.54825 14.8555C3.56148 14.8692 3.57489 14.8827 3.58849 14.8962C3.57486 14.8827 3.56141 14.8691 3.54815 14.8554C2.65335 13.8158 2.17277 12.4907 2.19611 11.1274C2.13758 9.22871 2.78141 7.76289 4.0281 7.00689C6.00215 5.98658 9.31331 5.78618 11.1931 7.21451C9.31329 5.78627 6.00221 5.98668 4.0282 7.00698C2.78151 7.76297 2.13768 9.2288 2.19621 11.1274C2.17287 12.4908 2.65345 13.8159 3.54825 14.8555ZM2.0036 11.1287C1.98062 12.5379 2.4779 13.907 3.40229 14.981C3.40472 14.9838 3.40724 14.9865 3.40984 14.9892C3.8633 15.4579 4.50923 15.7983 5.19244 16.0303C5.81262 16.2408 6.47541 16.366 7.07819 16.4142C7.07644 16.4465 7.07443 16.4798 7.07234 16.5144L7.07234 16.5145L7.07232 16.5147C7.06974 16.5575 7.06705 16.6022 7.06461 16.649C7.05662 16.8017 7.05192 16.9699 7.0695 17.1325C7.08706 17.2949 7.12798 17.4638 7.2199 17.6121C7.31447 17.7646 7.45661 17.8847 7.65568 17.9547C7.94043 18.0549 8.25332 17.9832 8.47695 17.7962L8.47996 17.7936L8.54562 17.7364L8.54573 17.7363C9.2217 17.1469 9.75497 16.682 10.2389 16.2385L10.3077 16.1764L10.3077 16.1764C10.8785 15.6608 11.4564 15.1387 11.9466 14.5123L11.9468 14.5121C12.7094 13.5351 13.1033 12.2043 13.0785 10.897C13.0537 9.58921 12.6092 8.28313 11.667 7.36818C10.7227 6.45122 9.31703 6.0475 7.90088 6.00398C6.48255 5.96041 5.02179 6.27665 3.93973 6.83592C3.93585 6.83793 3.93204 6.84006 3.92831 6.84233C2.60436 7.64517 1.9449 9.18828 2.0036 11.1287ZM9.81673 15.1844C10.21 14.8529 10.5507 14.4696 10.8915 14.0861L10.8915 14.0861L10.8916 14.0862C10.5508 14.4696 10.2102 14.853 9.81683 15.1844C9.26771 15.6807 8.71656 16.1742 8.15458 16.656L8.15457 16.6559C8.21878 16.6008 8.28284 16.5456 8.34677 16.4903C8.84243 16.0613 9.33037 15.6239 9.81673 15.1844ZM10.8918 14.086L10.8915 14.0861C10.9526 14.0174 11.0137 13.9486 11.0751 13.8801C12.1063 12.7305 12.4096 9.55106 10.9039 8.11318L10.904 8.11327C12.4097 9.55114 12.1064 12.7306 11.0752 13.8802C11.0139 13.9486 10.9528 14.0173 10.8918 14.086ZM7.60439 15.3749C6.30135 15.3749 5.14883 14.9843 4.32916 14.2524C5.14882 14.9842 6.3013 15.3748 7.60429 15.3748C7.73871 15.3734 7.86743 15.4284 7.96654 15.5164C7.86745 15.4285 7.73876 15.3734 7.60439 15.3749ZM8.3466 16.2356C8.79757 15.843 9.2429 15.4436 9.68769 15.0416L9.69272 15.0372C10.0745 14.7155 10.4047 14.344 10.7457 13.9604L10.7457 13.9604L10.7458 13.9603L10.7462 13.9599L10.7468 13.9592C10.808 13.8903 10.8696 13.821 10.9319 13.7516C11.4046 13.2246 11.7323 12.1952 11.7484 11.1019C11.7645 10.0112 11.4696 8.91953 10.771 8.25237C9.89858 7.41927 8.79639 7.19934 7.60429 7.19934C6.76799 7.19934 6.22278 7.2673 5.78217 7.38465C5.34404 7.50134 5.00073 7.66878 4.5613 7.88485C3.96661 8.26326 3.62971 8.8334 3.44442 9.43006C3.25777 10.0311 3.22875 10.6482 3.243 11.0923L3.24307 11.1019C3.21972 12.4104 3.68775 13.4241 4.46184 14.1129C5.23893 14.8043 6.34042 15.1822 7.6034 15.1823C7.81997 15.1804 8.01713 15.2823 8.15165 15.4289C8.26942 15.5572 8.34899 15.7304 8.34692 15.9194C8.3466 15.9486 8.34655 16.0861 8.3466 16.2356Z" fill="#202C44"/>
</svg>
