<svg width="24" height="24" viewBox="0 0 24 24" fill="none" xmlns="http://www.w3.org/2000/svg">
<path fill-rule="evenodd" clip-rule="evenodd" d="M15.7901 15.46V16.33C16.1845 16.3626 16.5523 16.5419 16.8208 16.8326C17.0893 17.1234 17.2389 17.5043 17.2401 17.9V18.28C17.2401 18.7 17.0739 19.1029 16.7779 19.4008C16.4819 19.6987 16.08 19.8674 15.6601 19.87H15.3901C15.4005 19.9564 15.4005 20.0436 15.3901 20.13V20.42C15.3901 20.6021 15.3541 20.7823 15.2841 20.9504C15.2141 21.1185 15.1116 21.2711 14.9824 21.3994C14.8532 21.5276 14.6998 21.6291 14.5313 21.6978C14.3627 21.7666 14.1821 21.8013 14.0001 21.8H10.0001C9.63582 21.7974 9.28737 21.6508 9.03073 21.3923C8.77409 21.1338 8.63007 20.7843 8.63008 20.42V20.13C8.61971 20.0436 8.61971 19.9564 8.63008 19.87H8.36008C7.93838 19.87 7.53396 19.7025 7.23578 19.4043C6.9376 19.1061 6.77008 18.7017 6.77008 18.28V17.9C6.77328 17.5065 6.92227 17.1282 7.18826 16.8382C7.45425 16.5482 7.81832 16.3671 8.21008 16.33V15.46C6.88761 14.6365 5.86934 13.4047 5.30933 11.9509C4.74932 10.4971 4.67804 8.90052 5.10629 7.40263C5.53453 5.90474 6.43899 4.58708 7.68283 3.64902C8.92666 2.71097 10.4422 2.20355 12.0001 2.20355C13.558 2.20355 15.0735 2.71097 16.3173 3.64902C17.5612 4.58708 18.4656 5.90474 18.8939 7.40263C19.3221 8.90052 19.2508 10.4971 18.6908 11.9509C18.1308 13.4047 17.1125 14.6365 15.7901 15.46ZM10.1001 20.27V20.33H13.9001V20.27H10.1001ZM7.10232 6.51663C6.59714 7.38274 6.33067 8.36732 6.33008 9.37C6.33381 10.3911 6.6137 11.3921 7.14008 12.2671C7.66646 13.1421 8.41973 13.8583 9.32008 14.34C9.43774 14.4056 9.53586 14.5012 9.60439 14.6172C9.67292 14.7332 9.7094 14.8653 9.71008 15V16.32H14.2901V15.03C14.2908 14.8953 14.3272 14.7632 14.3958 14.6472C14.4643 14.5312 14.5624 14.4356 14.6801 14.37C15.5637 13.8961 16.3058 13.1963 16.8308 12.3421C17.3558 11.4878 17.6448 10.5096 17.6685 9.50723C17.6922 8.50483 17.4496 7.51409 16.9655 6.63601C16.4815 5.75792 15.7732 5.02391 14.913 4.50879C14.0527 3.99368 13.0713 3.7159 12.0687 3.70376C11.0661 3.69163 10.0782 3.94558 9.20576 4.43972C8.33331 4.93386 7.60749 5.65052 7.10232 6.51663ZM10.1501 9.85C10.1501 10.3526 9.74266 10.76 9.24008 10.76C8.7375 10.76 8.33008 10.3526 8.33008 9.85C8.33008 9.34742 8.7375 8.94 9.24008 8.94C9.74266 8.94 10.1501 9.34742 10.1501 9.85ZM11.9998 10.76C12.5024 10.76 12.9098 10.3526 12.9098 9.85C12.9098 9.34742 12.5024 8.94 11.9998 8.94C11.4973 8.94 11.0898 9.34742 11.0898 9.85C11.0898 10.3526 11.4973 10.76 11.9998 10.76ZM15.6701 9.85C15.6701 10.3526 15.2627 10.76 14.7601 10.76C14.2575 10.76 13.8501 10.3526 13.8501 9.85C13.8501 9.34742 14.2575 8.94 14.7601 8.94C15.2627 8.94 15.6701 9.34742 15.6701 9.85Z" fill="black"/>
</svg>
