<svg xmlns="http://www.w3.org/2000/svg" width="24" height="24" fill="none" viewBox="0 0 24 24"><path fill="#282828" fill-rule="evenodd" d="M12 2.25a7.75 7.75 0 0 1 3.75 14.532V19A2.75 2.75 0 0 1 13 21.75h-2A2.75 2.75 0 0 1 8.25 19v-2.218A7.75 7.75 0 0 1 12 2.25M9.75 19c0 .69.56 1.25 1.25 1.25h2c.69 0 1.25-.56 1.25-1.25v-.25h-4.5zM12 3.75a6.25 6.25 0 0 0-2.678 11.898c.347.165.428.502.428.852v.75h4.5v-.75c0-.35.08-.686.428-.852A6.25 6.25 0 0 0 12 3.75" clip-rule="evenodd"/><path fill="#282828" d="M9 11a1 1 0 1 0 0-2 1 1 0 0 0 0 2M12 11a1 1 0 1 0 0-2 1 1 0 0 0 0 2M15 11a1 1 0 1 0 0-2 1 1 0 0 0 0 2"/></svg>