<svg width="24" height="24" viewBox="0 0 24 24" fill="none" xmlns="http://www.w3.org/2000/svg">
<path fill-rule="evenodd" clip-rule="evenodd" d="M17.2642 11.5323C17.2409 11.9182 17.2141 12.3637 17.4698 12.6201C17.214 12.3638 17.2408 11.9182 17.2641 11.5322L17.2641 11.5322C17.2704 11.4269 17.2765 11.3261 17.2765 11.2347L17.2766 11.2348C17.2766 11.3261 17.2705 11.427 17.2642 11.5323ZM13.5483 9.85549C13.5615 9.86917 13.5749 9.88274 13.5885 9.8962C13.5749 9.88271 13.5614 9.86911 13.5482 9.85541C12.6533 8.8158 12.1728 7.49068 12.1961 6.12736C12.1376 4.22871 12.7814 2.76289 14.0281 2.00689C15.9462 1.0155 19.1267 0.798205 21.0299 2.09697C19.1267 0.798287 15.9463 1.0156 14.0282 2.00698C12.7815 2.76297 12.1377 4.2288 12.1962 6.12745C12.1729 7.49077 12.6534 8.81588 13.5483 9.85549ZM12.0036 6.12869C11.9806 7.5379 12.4779 8.90697 13.4023 9.98095C13.4047 9.98378 13.4072 9.98654 13.4098 9.98923C13.8633 10.4579 14.5092 10.7983 15.1924 11.0303C15.8126 11.2408 16.4754 11.366 17.0782 11.4142C17.0764 11.4464 17.0744 11.4797 17.0724 11.5142L17.0723 11.5144L17.0723 11.5145C17.0698 11.5574 17.0671 11.6021 17.0646 11.649C17.0566 11.8017 17.0519 11.9699 17.0695 12.1325C17.0871 12.2949 17.128 12.4638 17.2199 12.6121C17.3145 12.7646 17.4566 12.8847 17.6557 12.9547C17.9404 13.0549 18.2533 12.9832 18.4769 12.7962L18.48 12.7936L18.5456 12.7364L18.5457 12.7363C19.2217 12.1469 19.755 11.682 20.2389 11.2385L20.3077 11.1764C20.8785 10.6608 21.4564 10.1387 21.9466 9.51234L21.9468 9.51215C22.7094 8.5351 23.1033 7.20434 23.0785 5.897C23.0537 4.58921 22.6092 3.28313 21.667 2.36818C20.7227 1.45122 19.317 1.0475 17.9009 1.00398C16.4826 0.960406 15.0218 1.27665 13.9397 1.83592C13.9359 1.83793 13.932 1.84006 13.9283 1.84233C12.6044 2.64517 11.9449 4.18828 12.0036 6.12869ZM19.8167 10.1844C20.21 9.85291 20.5507 9.46956 20.8915 9.08614L20.8915 9.08612L20.8916 9.08604C20.9526 9.0173 21.0137 8.94856 21.0751 8.88011C22.1063 7.73055 22.4096 4.55106 20.9039 3.11318L20.904 3.11327C22.4097 4.55114 22.1064 7.73064 21.0752 8.8802C21.0138 8.94865 20.9527 9.0174 20.8916 9.08614L20.8916 9.08622L20.8916 9.08623C20.5508 9.46965 20.2101 9.85299 19.8168 10.1844C19.2677 10.6807 18.7166 11.1742 18.1546 11.656L18.1546 11.6559C18.2188 11.6008 18.2828 11.5456 18.3468 11.4903C18.8424 11.0613 19.3304 10.6239 19.8167 10.1844ZM17.6044 10.3749C16.3014 10.3749 15.1488 9.98427 14.3292 9.25241C15.1488 9.98421 16.3013 10.3748 17.6043 10.3748C17.7387 10.3734 17.8674 10.4284 17.9665 10.5164C17.8674 10.4285 17.7388 10.3734 17.6044 10.3749ZM18.3466 11.2356C18.7976 10.843 19.2429 10.4436 19.6877 10.0416L19.6927 10.0372C20.0745 9.71546 20.4047 9.34399 20.7457 8.96038L20.7457 8.96035L20.7458 8.96034L20.7462 8.95986L20.7476 8.9583C20.8085 8.88972 20.8698 8.82075 20.9319 8.7516C21.4046 8.22459 21.7323 7.19523 21.7484 6.10192C21.7645 5.01118 21.4696 3.91953 20.771 3.25237C19.8986 2.41927 18.7964 2.19934 17.6043 2.19934C16.768 2.19934 16.2228 2.2673 15.7822 2.38465C15.344 2.50134 15.0007 2.66878 14.5613 2.88485C13.9666 3.26326 13.6297 3.8334 13.4444 4.43006C13.2578 5.0311 13.2287 5.64819 13.243 6.09233L13.2431 6.10194C13.2197 7.41042 13.6878 8.42408 14.4618 9.11287C15.2389 9.80433 16.3404 10.1822 17.6034 10.1823C17.82 10.1804 18.0171 10.2823 18.1516 10.4289C18.2694 10.5572 18.349 10.7304 18.3469 10.9194C18.3466 10.9486 18.3465 11.0861 18.3466 11.2356ZM14.8999 4.9999C14.8999 4.66853 15.1685 4.3999 15.4999 4.3999H19.4999C19.8313 4.3999 20.0999 4.66853 20.0999 4.9999C20.0999 5.33127 19.8313 5.5999 19.4999 5.5999H15.4999C15.1685 5.5999 14.8999 5.33127 14.8999 4.9999ZM15.3999 6.9999C15.3999 6.66853 15.6685 6.3999 15.9999 6.3999H18.9999C19.3313 6.3999 19.5999 6.66853 19.5999 6.9999C19.5999 7.33127 19.3313 7.5999 18.9999 7.5999L15.9999 7.5999C15.6685 7.5999 15.3999 7.33127 15.3999 6.9999ZM9.8 10C9.8 10.4418 9.44183 10.8 9 10.8C8.55817 10.8 8.2 10.4418 8.2 10C8.2 9.55817 8.55817 9.2 9 9.2C9.44183 9.2 9.8 9.55817 9.8 10ZM9.59337 11.9105C10.4082 11.6577 11 10.898 11 10C11 8.89543 10.1046 8 9 8C7.89543 8 7 8.89543 7 10C7 10.898 7.59179 11.6577 8.40663 11.9105C8.40226 11.9397 8.4 11.9696 8.4 12V13H5C3.89543 13 3 13.8954 3 15V19C3 20.1046 3.89543 21 5 21H13C14.1046 21 15 20.1046 15 19V15C15 13.8954 14.1046 13 13 13H9.6L9.6 12C9.6 11.9696 9.59774 11.9397 9.59337 11.9105ZM5 14.3C4.6134 14.3 4.3 14.6134 4.3 15V19C4.3 19.3866 4.6134 19.7 5 19.7H13C13.3866 19.7 13.7 19.3866 13.7 19V15C13.7 14.6134 13.3866 14.3 13 14.3H5ZM7.46852 16.6252C7.26152 16.3664 6.88394 16.3245 6.62518 16.5315C6.36643 16.7385 6.32447 17.1161 6.53148 17.3748C6.82767 17.7451 7.51578 18.6 9 18.6C10.4842 18.6 11.1723 17.7451 11.4685 17.3748C11.6755 17.1161 11.6336 16.7385 11.3748 16.5315C11.1161 16.3245 10.7385 16.3664 10.5315 16.6252L10.5283 16.6292C10.2909 16.9259 9.91167 17.4 9 17.4C8.08833 17.4 7.70906 16.9259 7.47172 16.6292L7.46852 16.6252Z" fill="#202C44"/>
</svg>
