<svg width="24" height="24" viewBox="0 0 24 24" fill="none" xmlns="http://www.w3.org/2000/svg">
<path d="M19.4988 10V5.75C19.4988 4.23122 18.2676 3 16.7488 3H15.7488C15.3346 3 14.9988 3.33579 14.9988 3.75C14.9988 4.16421 15.3346 4.5 15.7488 4.5H16.7488C17.4392 4.5 17.9988 5.05964 17.9988 5.75V10C17.9988 11.5188 19.23 12.75 20.7488 12.75H21.25C21.6642 12.75 22 12.4142 22 12C22 11.5858 21.6642 11.25 21.25 11.25H20.7488C20.0585 11.25 19.4988 10.6904 19.4988 10Z" fill="#282828"/>
<path d="M18 18.25V14C18 12.4812 19.2312 11.25 20.75 11.25H21.25C21.6642 11.25 22 11.5858 22 12C22 12.4142 21.6642 12.75 21.25 12.75H20.75C20.0596 12.75 19.5 13.3096 19.5 14V18.25C19.5 19.7688 18.2688 21 16.75 21H15.75C15.3358 21 15 20.6642 15 20.25C15 19.8358 15.3358 19.5 15.75 19.5H16.75C17.4404 19.5 18 18.9404 18 18.25Z" fill="#282828"/>
<path d="M4.50119 10V5.75C4.50119 4.23122 5.7324 3 7.25119 3H8.25119C8.6654 3 9.00119 3.33579 9.00119 3.75C9.00119 4.16421 8.6654 4.5 8.25119 4.5H7.25119C6.56083 4.5 6.00119 5.05964 6.00119 5.75V10C6.00119 11.5188 4.76997 12.75 3.25119 12.75H2.75C2.33579 12.75 2 12.4142 2 12C2 11.5858 2.33579 11.25 2.75 11.25H3.25119C3.94154 11.25 4.50119 10.6904 4.50119 10Z" fill="#282828"/>
<path d="M6 18.25L6.00006 14C6.00006 12.4812 4.76884 11.25 3.25006 11.25H2.75006C2.33585 11.25 2.00006 11.5858 2.00006 12C2.00006 12.4142 2.33585 12.75 2.75006 12.75H3.25006C3.94041 12.75 4.50006 13.3096 4.50006 14L4.5 18.25C4.5 19.7688 5.73122 21 7.25 21H8.25C8.66421 21 9 20.6642 9 20.25C9 19.8358 8.66421 19.5 8.25 19.5H7.25C6.55964 19.5 6 18.9404 6 18.25Z" fill="#282828"/>
<path d="M12 7.25C12.2841 7.25 12.5438 7.41095 12.6709 7.66504L16.1709 14.665L16.2012 14.7354C16.3358 15.0907 16.1822 15.4973 15.8349 15.6709C15.4645 15.8558 15.0143 15.7053 14.8291 15.335L14.0361 13.75H9.96385L9.17088 15.335C8.9857 15.7053 8.53543 15.8558 8.16502 15.6709C7.79466 15.4857 7.64414 15.0354 7.82908 14.665L11.3291 7.66504C11.4561 7.41095 11.7159 7.25 12 7.25ZM10.7138 12.25H13.2861L12 9.67676L10.7138 12.25Z" fill="#282828"/>
</svg>
