<svg width="24" height="24" viewBox="0 0 24 24" fill="none" xmlns="http://www.w3.org/2000/svg">
<path d="M10.6444 3.09827C12.1089 1.63397 14.4828 1.63386 15.9472 3.09827C16.8144 3.96572 17.167 5.15227 17.0067 6.27991C18.1346 6.11954 19.3218 6.47301 20.1894 7.34045C21.6535 8.80493 21.6537 11.1798 20.1894 12.6442L13.2011 19.6324L14.7919 21.2242C15.0841 21.5171 15.0844 21.9921 14.7919 22.2848C14.4992 22.5775 14.0243 22.577 13.7314 22.2848L11.9804 20.5338C11.4829 20.0362 11.4829 19.2297 11.9804 18.7321L19.1288 11.5836C20.0073 10.705 20.0071 9.27969 19.1288 8.401C18.2502 7.52264 16.8258 7.52276 15.9472 8.401L10.2909 14.0582C9.99814 14.351 9.52232 14.3508 9.2294 14.0582C8.9368 13.7654 8.93684 13.2905 9.2294 12.9977L14.8866 7.34045C15.765 6.46188 15.7649 5.03747 14.8866 4.15881C14.008 3.28019 12.5837 3.2803 11.705 4.15881L4.28018 11.5836C3.98748 11.8762 3.51255 11.8759 3.21963 11.5836C2.92676 11.2908 2.92681 10.816 3.21963 10.5231L10.6444 3.09827Z" fill="#282828"/>
<path d="M12.7655 5.21936C13.0584 4.92657 13.5332 4.92662 13.8261 5.21936C14.1186 5.51226 14.1188 5.98712 13.8261 6.27991L8.52334 11.5836C7.64466 12.4623 7.64466 13.8866 8.52334 14.7653C9.40206 15.6435 10.8265 15.6438 11.705 14.7653L17.0087 9.46155C17.3016 9.16915 17.7765 9.16891 18.0692 9.46155C18.3618 9.75445 18.362 10.2303 18.0692 10.5231L12.7655 15.8258C11.3012 17.2901 8.9273 17.2898 7.4628 15.8258C5.99833 14.3613 5.99833 11.9875 7.4628 10.5231L12.7655 5.21936Z" fill="#282828"/>
</svg>
