<svg width="24" height="24" viewBox="0 0 24 24" fill="none" xmlns="http://www.w3.org/2000/svg">
<path fill-rule="evenodd" clip-rule="evenodd" d="M5 3C4.44772 3 4 3.44772 4 4V20C4 20.5523 4.44772 21 5 21H19C19.5523 21 20 20.5523 20 20V4C20 3.44772 19.5523 3 19 3H5ZM6 5H18V19H6V5ZM8 7C7.44772 7 7 7.44772 7 8C7 8.55228 7.44772 9 8 9H16C16.5523 9 17 8.55228 17 8C17 7.44772 16.5523 7 16 7H8ZM7 12C7 11.4477 7.44772 11 8 11H13C13.5523 11 14 11.4477 14 12C14 12.5523 13.5523 13 13 13H8C7.44772 13 7 12.5523 7 12ZM8 15C7.44772 15 7 15.4477 7 16C7 16.5523 7.44772 17 8 17H11C11.5523 17 12 16.5523 12 16C12 15.4477 11.5523 15 11 15H8ZM15.5 11C16.3284 11 17 11.6716 17 12.5V14.5858L18.2929 13.2929C18.6834 12.9024 19.3166 12.9024 19.7071 13.2929C20.0976 13.6834 20.0976 14.3166 19.7071 14.7071L17.7071 16.7071C17.3166 17.0976 16.6834 17.0976 16.2929 16.7071L14.2929 14.7071C13.9024 14.3166 13.9024 13.6834 14.2929 13.2929C14.6834 12.9024 15.3166 12.9024 15.7071 13.2929L15 13.5858V12.5C15 11.6716 15.6716 11 16.5 11H16.5Z" fill="black"/>
</svg>