<svg width="24" height="24" viewBox="0 0 24 24" fill="none" xmlns="http://www.w3.org/2000/svg">
<path d="M13.1012 7.49233C13.4894 7.63646 13.6871 8.06807 13.5432 8.45631C13.399 8.84448 12.9675 9.04222 12.5792 8.89825C12.425 8.84108 12.2684 8.792 12.1103 8.74979C10.3567 8.28148 8.41106 8.73539 7.03766 10.1088C4.98747 12.159 4.98743 15.4832 7.03766 17.5334C9.08788 19.5836 12.412 19.5836 14.4623 17.5334C15.8661 16.1295 16.3099 14.1273 15.7895 12.3447L15.6728 11.9918L15.6493 11.9186C15.5537 11.5507 15.7508 11.163 16.1147 11.0279C16.4787 10.8929 16.8808 11.0583 17.0483 11.3994L17.0787 11.4698L17.1581 11.6956C17.9337 14.0396 17.3898 16.7271 15.5229 18.594C12.8869 21.23 8.61301 21.2301 5.97699 18.594C3.34098 15.958 3.34102 11.6841 5.97699 9.0481C7.74425 7.28089 10.2474 6.69903 12.497 7.29967C12.7005 7.35401 12.9025 7.41863 13.1012 7.49233Z" fill="#282828"/>
<path fill-rule="evenodd" clip-rule="evenodd" d="M19.7656 4.80546C19.9192 4.95908 20.0517 5.12694 20.1619 5.30541C20.817 6.36562 20.6858 7.77436 19.7656 8.69455C18.8758 9.58437 17.5297 9.73364 16.4828 9.14892L13.1503 12.4814C13.7349 13.5283 13.5849 14.8752 12.6945 15.7656C11.6206 16.8396 9.87936 16.8396 8.80542 15.7656C7.73148 14.6917 7.73148 12.9505 8.80542 11.8765C9.69583 10.9861 11.0427 10.8362 12.0896 11.4208L15.4221 8.08826C14.8374 7.04136 14.9867 5.69529 15.8765 4.80546C16.7967 3.88528 18.2054 3.75405 19.2656 4.40909C19.4441 4.51938 19.612 4.65184 19.7656 4.80546ZM11.6338 12.9372C11.5629 12.8662 11.4864 12.806 11.406 12.7563C10.9241 12.4585 10.2833 12.5199 9.86608 12.9372C9.37793 13.4253 9.37793 14.2168 9.86608 14.705C10.3542 15.1931 11.1457 15.1931 11.6338 14.705C12.0511 14.2877 12.1125 13.6469 11.8148 13.1651C11.7651 13.0846 11.7048 13.0081 11.6338 12.9372ZM18.7049 5.86612C18.634 5.79517 18.5575 5.73491 18.477 5.6852C17.9952 5.38748 17.3544 5.44886 16.9372 5.86612C16.449 6.35427 16.449 7.14573 16.9372 7.63389C17.4253 8.12204 18.2168 8.12204 18.7049 7.63389C19.1222 7.21662 19.1836 6.57587 18.8858 6.094C18.8361 6.01355 18.7759 5.93707 18.7049 5.86612Z" fill="#282828"/>
</svg>
