<svg width="24" height="24" viewBox="0 0 24 24" fill="none" xmlns="http://www.w3.org/2000/svg">
<path fill-rule="evenodd" clip-rule="evenodd" d="M17.68 3.9H18.24C18.7333 3.89868 19.222 3.99471 19.6781 4.18258C20.1343 4.37044 20.5488 4.64646 20.8981 4.99481C21.2474 5.34316 21.5245 5.757 21.7136 6.21262C21.9027 6.66825 22 7.1567 22 7.65V18.24C21.9921 19.232 21.5925 20.1807 20.8882 20.8793C20.1839 21.578 19.232 21.97 18.24 21.97H5.76C4.76796 21.97 3.81611 21.578 3.11183 20.8793C2.40755 20.1807 2.00792 19.232 2 18.24V7.65C2 7.1567 2.09733 6.66825 2.28641 6.21262C2.47549 5.757 2.7526 5.34316 3.10188 4.99481C3.45116 4.64646 3.86574 4.37044 4.32187 4.18258C4.77799 3.99471 5.2667 3.89868 5.76 3.9H6.46V2.9C6.46 2.66131 6.55482 2.43239 6.7236 2.2636C6.89239 2.09482 7.12131 2 7.36 2C7.59869 2 7.82761 2.09482 7.9964 2.2636C8.16518 2.43239 8.26 2.66131 8.26 2.9V3.9H15.88V2.9C15.88 2.66131 15.9748 2.43239 16.1436 2.2636C16.3124 2.09482 16.5413 2 16.78 2C17.0187 2 17.2476 2.09482 17.4164 2.2636C17.5852 2.43239 17.68 2.66131 17.68 2.9V3.9ZM18.24 5.4H5.76C5.46285 5.39736 5.16811 5.45361 4.89282 5.5655C4.61752 5.67739 4.36712 5.8427 4.15606 6.0519C3.94501 6.26109 3.77749 6.51002 3.66316 6.78432C3.54884 7.05861 3.48999 7.35284 3.49 7.65V9.22H20.49V7.65C20.49 7.05326 20.2529 6.48097 19.831 6.05901C19.409 5.63705 18.8367 5.4 18.24 5.4ZM5.76 20.49H18.24C18.5372 20.4926 18.8319 20.4364 19.1072 20.3245C19.3825 20.2126 19.6329 20.0473 19.8439 19.8381C20.055 19.6289 20.2225 19.38 20.3368 19.1057C20.4512 18.8314 20.51 18.5372 20.51 18.24V10.72H3.51V18.24C3.51 18.8367 3.74705 19.409 4.16901 19.831C4.59097 20.2529 5.16326 20.49 5.76 20.49ZM5.32002 11.97H7.72002C8.16185 11.97 8.52002 12.3281 8.52002 12.77V15.17C8.52002 15.6118 8.16185 15.97 7.72002 15.97H5.32002C4.87819 15.97 4.52002 15.6118 4.52002 15.17V12.77C4.52002 12.3281 4.87819 11.97 5.32002 11.97Z" fill="black"/>
</svg>
