<svg width="24" height="24" viewBox="0 0 24 24" fill="none" xmlns="http://www.w3.org/2000/svg">
<path fill-rule="evenodd" clip-rule="evenodd" d="M3.07727 3.08507C2.82049 3.06557 2.48964 3.06506 1.99295 3.06506H1.77686C1.36264 3.06506 1.02686 2.72928 1.02686 2.31506C1.02686 1.90085 1.36264 1.56506 1.77686 1.56506H1.99295C2.00218 1.56506 2.01139 1.56506 2.02056 1.56506C2.48242 1.56505 2.87054 1.56505 3.19089 1.58938C3.52699 1.61491 3.84302 1.67006 4.1503 1.80886C4.62604 2.02373 5.03079 2.36958 5.31725 2.80597C5.50227 3.08783 5.60605 3.39139 5.6837 3.7194C5.75771 4.03202 5.81824 4.41538 5.89028 4.87158L5.90028 4.93493L18.7858 4.93493C19.4399 4.93492 19.9798 4.93491 20.4135 4.97305C20.8608 5.01238 21.2803 5.09749 21.658 5.32252C22.2283 5.66234 22.6564 6.19702 22.8634 6.82784C23.0004 7.24556 22.9917 7.67354 22.9323 8.1186C22.8747 8.55017 22.7566 9.07702 22.6136 9.71531L21.6817 13.8744C21.5867 14.2985 21.5067 14.6559 21.4186 14.9471C21.326 15.2533 21.2111 15.5351 21.0233 15.7951C20.7316 16.199 20.3357 16.516 19.8778 16.7123C19.5831 16.8387 19.2829 16.8893 18.9639 16.9127C18.6605 16.9349 18.2943 16.9349 17.8596 16.9349H9.62389C9.162 16.9349 8.77387 16.9349 8.4535 16.9106C8.11738 16.8851 7.80134 16.8299 7.49405 16.6911C7.0183 16.4762 6.61354 16.1304 6.32709 15.6939C6.14206 15.412 6.0383 15.1085 5.96067 14.7804C5.88667 14.4678 5.82615 14.0844 5.75413 13.6282L4.51862 5.80193L4.41295 5.13288C4.33547 4.64226 4.28337 4.31555 4.22404 4.06495C4.16689 3.82352 4.11462 3.70732 4.06328 3.62911C3.93307 3.43075 3.74909 3.27355 3.53285 3.17588C3.44759 3.13737 3.32466 3.10387 3.07727 3.08507ZM6.13712 6.43493L7.23148 13.367C7.30894 13.8576 7.36103 14.1844 7.42034 14.435C7.47749 14.6764 7.52975 14.7926 7.58109 14.8708C7.71129 15.0692 7.89527 15.2264 8.11152 15.3241C8.19679 15.3626 8.31972 15.3961 8.56713 15.4149C8.82392 15.4344 9.15479 15.4349 9.65151 15.4349H17.8331C18.3012 15.4349 18.6121 15.4345 18.8541 15.4167C19.0867 15.3996 19.2039 15.3692 19.2866 15.3338C19.4948 15.2445 19.6747 15.1004 19.8073 14.9168C19.86 14.8439 19.9153 14.7362 19.9828 14.5129C20.0531 14.2806 20.1215 13.9774 20.2238 13.5206L21.1424 9.42059C21.2948 8.74071 21.3976 8.27849 21.4455 7.92013C21.4925 7.56782 21.4727 7.40088 21.4381 7.29535C21.344 7.00861 21.1494 6.76557 20.8902 6.61111C20.7948 6.55425 20.6362 6.49842 20.2821 6.46729C19.922 6.43562 19.4485 6.43493 18.7517 6.43493H6.13712ZM7.93801 20.6849C7.93801 19.7184 8.72151 18.9349 9.68801 18.9349C10.6545 18.9349 11.438 19.7184 11.438 20.6849C11.438 21.6514 10.6545 22.4349 9.68801 22.4349C8.72151 22.4349 7.93801 21.6514 7.93801 20.6849ZM15.938 20.6849C15.938 19.7184 16.7215 18.9349 17.688 18.9349C18.6545 18.9349 19.438 19.7184 19.438 20.6849C19.438 21.6514 18.6545 22.4349 17.688 22.4349C16.7215 22.4349 15.938 21.6514 15.938 20.6849Z" fill="#292929"/>
</svg>
