<svg width="24" height="24" viewBox="0 0 24 24" fill="none" xmlns="http://www.w3.org/2000/svg">
<path fill-rule="evenodd" clip-rule="evenodd" d="M4.58008 2H8.75008C9.99272 2 11.0001 3.00736 11.0001 4.25V6.42C11.0001 7.66264 9.99272 8.67 8.75008 8.67H4.58008C3.33744 8.67 2.33008 7.66264 2.33008 6.42V4.25C2.33008 3.00736 3.33744 2 4.58008 2ZM8.75008 7.17C9.16204 7.16461 9.49469 6.83196 9.50008 6.42V4.25C9.49469 3.83804 9.16204 3.50539 8.75008 3.5H4.58008C4.16812 3.50539 3.83546 3.83804 3.83008 4.25V6.42C3.83546 6.83196 4.16812 7.16461 4.58008 7.17H8.75008Z" fill="#454545"/>
<path fill-rule="evenodd" clip-rule="evenodd" d="M15.9201 2H19.4201C20.6627 2 21.6701 3.00736 21.6701 4.25V11.08C21.6701 12.3226 20.6627 13.33 19.4201 13.33H15.9201C15.3225 13.3327 14.7487 13.0965 14.3261 12.6739C13.9036 12.2514 13.6674 11.6776 13.6701 11.08V4.25C13.6701 3.00736 14.6774 2 15.9201 2ZM19.4201 11.83C19.8343 11.83 20.1701 11.4942 20.1701 11.08V4.25C20.1647 3.83804 19.832 3.50539 19.4201 3.5H15.9201C15.5058 3.5 15.1701 3.83579 15.1701 4.25V11.08C15.1673 11.2797 15.2455 11.4721 15.3867 11.6133C15.528 11.7546 15.7203 11.8327 15.9201 11.83H19.4201Z" fill="#454545"/>
<path fill-rule="evenodd" clip-rule="evenodd" d="M15.9201 16H19.4201C20.6627 16 21.6701 17.0074 21.6701 18.25V19.75C21.6701 20.9926 20.6627 22 19.4201 22H15.9201C14.6774 22 13.6701 20.9926 13.6701 19.75V18.25C13.6701 17.0074 14.6774 16 15.9201 16ZM19.4201 20.5C19.832 20.4946 20.1647 20.162 20.1701 19.75V18.25C20.1647 17.838 19.832 17.5054 19.4201 17.5H15.9201C15.5059 17.5 15.1701 17.8358 15.1701 18.25V19.75C15.1701 20.1642 15.5059 20.5 15.9201 20.5H19.4201Z" fill="#454545"/>
<path fill-rule="evenodd" clip-rule="evenodd" d="M4.58008 11.33H8.75008C9.99272 11.33 11.0001 12.3374 11.0001 13.58V19.75C11.0001 20.9926 9.99272 22 8.75008 22H4.58008C3.33744 22 2.33008 20.9926 2.33008 19.75V13.58C2.33008 12.3374 3.33744 11.33 4.58008 11.33ZM8.75008 20.5C9.16204 20.4946 9.49469 20.162 9.50008 19.75V13.58C9.49469 13.168 9.16204 12.8354 8.75008 12.83H4.58008C4.16812 12.8354 3.83546 13.168 3.83008 13.58V19.75C3.83546 20.162 4.16812 20.4946 4.58008 20.5H8.75008Z" fill="#454545"/>
</svg>
