<svg width="24" height="24" viewBox="0 0 24 24" fill="none" xmlns="http://www.w3.org/2000/svg">
<path d="M10.3917 21.9933H9.85167C7.67531 21.8437 5.64171 20.8562 4.17828 19.2383C2.71485 17.6205 1.93555 15.4984 2.00418 13.318C2.0728 11.1376 2.984 9.06866 4.54627 7.54608C6.10854 6.0235 8.20021 5.16583 10.3817 5.15332C10.5798 5.15591 10.769 5.23576 10.9091 5.37585C11.0492 5.51595 11.1291 5.70521 11.1317 5.90332V12.1933C11.1317 12.3631 11.1991 12.5258 11.3191 12.6459C11.4391 12.7659 11.6019 12.8333 11.7717 12.8333H18.0617C18.2606 12.8333 18.4513 12.9123 18.592 13.053C18.7327 13.1936 18.8117 13.3844 18.8117 13.5833C18.8085 14.7338 18.571 15.8715 18.1137 16.9271C17.6564 17.9828 16.9888 18.9342 16.1517 19.7233C14.5929 21.1892 12.5314 22.0017 10.3917 21.9933ZM9.63167 6.67332C7.91305 6.86705 6.32898 7.69642 5.19064 8.99849C4.05231 10.3006 3.44199 11.9812 3.47958 13.7103C3.51717 15.4394 4.19995 17.092 5.39379 18.3433C6.58764 19.5947 8.20625 20.3545 9.93167 20.4733C11.7113 20.5869 13.4663 20.01 14.8315 18.8627C16.1968 17.7154 17.0671 16.086 17.2617 14.3133H11.7617C11.1958 14.3107 10.6541 14.084 10.2549 13.683C9.85576 13.282 9.63166 12.7392 9.63167 12.1733V6.67332Z" fill="black"/>
<path opacity="0.6" fill-rule="evenodd" clip-rule="evenodd" d="M14.4516 10.8133H20.5516C20.7471 10.8148 20.9407 10.7736 21.1186 10.6924C21.2966 10.6112 21.4546 10.492 21.5816 10.3433C21.7058 10.2098 21.8011 10.052 21.8613 9.87991C21.9215 9.7078 21.9455 9.52508 21.9316 9.34326C21.7653 7.444 20.9319 5.66494 19.5793 4.32141C18.2266 2.97788 16.4419 2.15664 14.5416 2.00326C14.3598 1.99056 14.1774 2.01505 14.0055 2.07523C13.8336 2.13541 13.6757 2.23001 13.5416 2.35326C13.4031 2.48047 13.2925 2.63501 13.2167 2.80713C13.141 2.97926 13.1018 3.16521 13.1016 3.35326V9.45326C13.1016 9.81223 13.2435 10.1566 13.4964 10.4114C13.7492 10.6662 14.0926 10.8106 14.4516 10.8133Z" fill="black"/>
</svg>
