<svg width="24" height="24" viewBox="0 0 24 24" fill="none" xmlns="http://www.w3.org/2000/svg">
<path d="M21 21.33H6C4.93913 21.33 3.92172 20.9086 3.17157 20.1584C2.42143 19.4083 2 18.3909 2 17.33V3C2 2.73478 2.10536 2.48043 2.29289 2.29289C2.48043 2.10536 2.73478 2 3 2C3.26522 2 3.51957 2.10536 3.70711 2.29289C3.89464 2.48043 4 2.73478 4 3V17.33C4 17.8604 4.21071 18.3691 4.58579 18.7442C4.96086 19.1193 5.46957 19.33 6 19.33H21C21.2652 19.33 21.5196 19.4354 21.7071 19.6229C21.8946 19.8104 22 20.0648 22 20.33C22 20.5952 21.8946 20.8496 21.7071 21.0371C21.5196 21.2246 21.2652 21.33 21 21.33Z" fill="black"/>
<path opacity="0.6" fill-rule="evenodd" clip-rule="evenodd" d="M6.33008 5.88H14.0001C14.2653 5.88 14.5196 5.77465 14.7072 5.58711C14.8947 5.39958 15.0001 5.14522 15.0001 4.88C15.0001 4.61479 14.8947 4.36043 14.7072 4.1729C14.5196 3.98536 14.2653 3.88 14.0001 3.88H6.33008C6.06486 3.88 5.81051 3.98536 5.62297 4.1729C5.43544 4.36043 5.33008 4.61479 5.33008 4.88C5.33008 5.14522 5.43544 5.39958 5.62297 5.58711C5.81051 5.77465 6.06486 5.88 6.33008 5.88ZM6.33008 9.88H18.0001C18.2653 9.88 18.5196 9.77465 18.7072 9.58711C18.8947 9.39958 19.0001 9.14522 19.0001 8.88C19.0001 8.61479 18.8947 8.36043 18.7072 8.1729C18.5196 7.98536 18.2653 7.88 18.0001 7.88H6.33008C6.06486 7.88 5.81051 7.98536 5.62297 8.1729C5.43544 8.36043 5.33008 8.61479 5.33008 8.88C5.33008 9.14522 5.43544 9.39958 5.62297 9.58711C5.81051 9.77465 6.06486 9.88 6.33008 9.88ZM19.2801 17.89H6.33008C6.06486 17.89 5.81051 17.7847 5.62297 17.5971C5.43544 17.4096 5.33008 17.1552 5.33008 16.89C5.33008 16.6248 5.43544 16.3704 5.62297 16.1829C5.81051 15.9954 6.06486 15.89 6.33008 15.89H19.3301C19.5953 15.89 19.8496 15.9954 20.0372 16.1829C20.2247 16.3704 20.3301 16.6248 20.3301 16.89C20.3301 17.1552 20.2247 17.4096 20.0372 17.5971C19.8496 17.7847 19.5953 17.89 19.3301 17.89H19.2801ZM6.33008 13.89H15.7301C15.9953 13.89 16.2496 13.7847 16.4372 13.5971C16.6247 13.4096 16.7301 13.1552 16.7301 12.89C16.7301 12.6248 16.6247 12.3704 16.4372 12.1829C16.2496 11.9954 15.9953 11.89 15.7301 11.89H6.33008C6.06486 11.89 5.81051 11.9954 5.62297 12.1829C5.43544 12.3704 5.33008 12.6248 5.33008 12.89C5.33008 13.1552 5.43544 13.4096 5.62297 13.5971C5.81051 13.7847 6.06486 13.89 6.33008 13.89Z" fill="black"/>
</svg>
