<svg width="24" height="24" viewBox="0 0 24 24" fill="none" xmlns="http://www.w3.org/2000/svg">
<path d="M10.6701 15.3201C10.5739 15.3211 10.4784 15.3031 10.3892 15.2671C10.2999 15.231 10.2187 15.1777 10.1501 15.1101L7.48013 12.5401C7.38588 12.482 7.30569 12.4036 7.24532 12.3108C7.18494 12.218 7.14587 12.1129 7.13092 12.0032C7.11596 11.8934 7.1255 11.7817 7.15883 11.6761C7.19217 11.5705 7.24848 11.4736 7.32373 11.3923C7.39897 11.3111 7.49128 11.2475 7.59401 11.2061C7.69675 11.1648 7.80737 11.1467 7.91793 11.1532C8.02849 11.1597 8.13624 11.1906 8.23344 11.2436C8.33065 11.2967 8.41489 11.3706 8.48013 11.4601L10.6301 13.5301L15.4401 8.89013C15.588 8.79883 15.7631 8.76174 15.9353 8.78521C16.1075 8.80868 16.2663 8.89125 16.3844 9.01879C16.5025 9.14633 16.5726 9.31094 16.5828 9.48446C16.5929 9.65799 16.5425 9.82966 16.4401 9.97013L11.1901 15.1101C11.0494 15.243 10.8637 15.318 10.6701 15.3201Z" fill="#454545"/>
<path fill-rule="evenodd" clip-rule="evenodd" d="M16 5.00002H8.00002C6.34317 5.00002 5.00002 6.34317 5.00002 8.00002V16C5.00002 17.6569 6.34317 19 8.00002 19H16C17.6569 19 19 17.6569 19 16V8.00002C19 6.34317 17.6569 5.00002 16 5.00002ZM8.00002 4.00002C5.79089 4.00002 4.00002 5.79089 4.00002 8.00002V16C4.00002 18.2092 5.79089 20 8.00002 20H16C18.2092 20 20 18.2092 20 16V8.00002C20 5.79089 18.2092 4.00002 16 4.00002H8.00002Z" fill="#454545"/>
<path fill-rule="evenodd" clip-rule="evenodd" d="M16 5.10002H8.00002C6.3984 5.10002 5.10002 6.3984 5.10002 8.00002V16C5.10002 17.6017 6.3984 18.9 8.00002 18.9H16C17.6017 18.9 18.9 17.6017 18.9 16V8.00002C18.9 6.3984 17.6017 5.10002 16 5.10002ZM3.90002 8.00002C3.90002 5.73566 5.73566 3.90002 8.00002 3.90002H16C18.2644 3.90002 20.1 5.73566 20.1 8.00002V16C20.1 18.2644 18.2644 20.1 16 20.1H8.00002C5.73566 20.1 3.90002 18.2644 3.90002 16V8.00002ZM8.00002 5.00002H16C17.6569 5.00002 19 6.34317 19 8.00002V16C19 17.6569 17.6569 19 16 19H8.00002C6.34317 19 5.00002 17.6569 5.00002 16V8.00002C5.00002 6.34317 6.34317 5.00002 8.00002 5.00002ZM4.00002 8.00002C4.00002 5.79089 5.79089 4.00002 8.00002 4.00002H16C18.2092 4.00002 20 5.79089 20 8.00002V16C20 18.2092 18.2092 20 16 20H8.00002C5.79089 20 4.00002 18.2092 4.00002 16V8.00002Z" fill="#454545"/>
</svg>
