<svg width="24" height="24" viewBox="0 0 24 24" fill="none" xmlns="http://www.w3.org/2000/svg">
<path fill-rule="evenodd" clip-rule="evenodd" d="M16.7224 4.93251C15.3245 3.99852 13.6811 3.5 12 3.5C9.74648 3.50265 7.58601 4.39903 5.99252 5.99252C4.39903 7.586 3.50265 9.74647 3.5 12C3.5 13.6811 3.99852 15.3245 4.93251 16.7223C5.8665 18.1202 7.19402 19.2096 8.7472 19.853C10.3004 20.4963 12.0094 20.6646 13.6583 20.3367C15.3071 20.0087 16.8217 19.1992 18.0104 18.0104C19.1992 16.8217 20.0087 15.3071 20.3367 13.6583C20.6647 12.0094 20.4963 10.3004 19.853 8.74719C19.2096 7.19402 18.1202 5.8665 16.7224 4.93251ZM6.4443 3.6853C8.08879 2.58649 10.0222 2 12 2C14.6522 2 17.1957 3.05357 19.0711 4.92893C20.9464 6.8043 22 9.34784 22 12C22 13.9778 21.4135 15.9112 20.3147 17.5557C19.2159 19.2002 17.6541 20.4819 15.8268 21.2388C13.9996 21.9957 11.9889 22.1937 10.0491 21.8079C8.10929 21.422 6.32746 20.4696 4.92894 19.0711C3.53041 17.6725 2.578 15.8907 2.19215 13.9509C1.8063 12.0111 2.00433 10.0004 2.76121 8.17317C3.51809 6.3459 4.79981 4.78412 6.4443 3.6853ZM10.3891 15.267C10.4784 15.3031 10.5739 15.3211 10.6701 15.3201C10.8637 15.318 11.0493 15.243 11.1901 15.1101L16.4401 9.9701C16.5425 9.82963 16.5929 9.65796 16.5827 9.48444C16.5726 9.31091 16.5024 9.14631 16.3843 9.01877C16.2662 8.89122 16.1075 8.80866 15.9353 8.78519C15.7631 8.76172 15.588 8.7988 15.4401 8.8901L10.6301 13.5301L8.4801 11.4601C8.41487 11.3706 8.33062 11.2967 8.23342 11.2436C8.13621 11.1905 8.02846 11.1596 7.91791 11.1532C7.80735 11.1467 7.69673 11.1648 7.59399 11.2061C7.49125 11.2475 7.39895 11.3111 7.3237 11.3923C7.24846 11.4736 7.19215 11.5705 7.15881 11.6761C7.12547 11.7817 7.11594 11.8934 7.13089 12.0031C7.14584 12.1129 7.18491 12.2179 7.24529 12.3108C7.30567 12.4036 7.38586 12.4819 7.4801 12.5401L10.1501 15.1101C10.2187 15.1777 10.2999 15.231 10.3891 15.267Z" fill="black"/>
</svg>
