<svg width="23" height="24" viewBox="0 0 23 24" fill="none" xmlns="http://www.w3.org/2000/svg">
<path fill-rule="evenodd" clip-rule="evenodd" d="M8.62881 11.471C7.91318 11.471 7.33305 12.066 7.33305 12.7999V17.285C7.33305 18.0189 7.91318 18.6139 8.62881 18.6139H13.9738C14.6894 18.6139 15.2696 18.0189 15.2696 17.285V12.7999C15.2696 12.066 14.6894 11.471 13.9738 11.471H8.62881Z" fill="#505F79"/>
<path fill-rule="evenodd" clip-rule="evenodd" d="M15.2696 14.1165H7.33305V13.3228H15.2696V14.1165Z" fill="white"/>
<path fill-rule="evenodd" clip-rule="evenodd" d="M13.1532 16.762H7.33305V15.9684H13.1532V16.762Z" fill="white"/>
<path fill-rule="evenodd" clip-rule="evenodd" d="M9.44949 18.6139V16.7621H10.2431V18.6139H9.44949Z" fill="white"/>
<path fill-rule="evenodd" clip-rule="evenodd" d="M9.44949 13.3229V11.471H10.2431V13.3229H9.44949Z" fill="white"/>
<path fill-rule="evenodd" clip-rule="evenodd" d="M12.3596 18.6139V16.7621H13.1532V18.6139H12.3596Z" fill="white"/>
<path fill-rule="evenodd" clip-rule="evenodd" d="M12.3596 13.3229V11.471H13.1532V13.3229H12.3596Z" fill="white"/>
<path fill-rule="evenodd" clip-rule="evenodd" d="M4 3.80124C4 2.81153 4.79471 2 5.78634 2H13.364C13.7605 2 14.1452 2.133 14.4579 2.37724L16.2355 3.76563L18.0254 5.18181C18.4579 5.52401 18.709 6.04693 18.709 6.59889V20.1988C18.709 21.1885 17.9143 22 16.9227 22H5.78634C4.79471 22 4 21.1885 4 20.1988V3.80124ZM5.77297 3.79156C5.77205 3.79376 5.77123 3.79674 5.77123 3.80124V20.1988C5.77123 20.2033 5.77205 20.2062 5.77297 20.2084C5.77401 20.2109 5.77559 20.2133 5.77755 20.2153C5.77951 20.2173 5.78129 20.2183 5.78239 20.2188C5.78316 20.2191 5.78416 20.2195 5.78634 20.2195H16.9227C16.9248 20.2195 16.9258 20.2191 16.9266 20.2188C16.927 20.2186 16.9274 20.2184 16.9279 20.2181C16.9289 20.2175 16.9301 20.2166 16.9314 20.2153C16.9334 20.2133 16.935 20.2109 16.936 20.2084C16.9369 20.2062 16.9378 20.2033 16.9378 20.1988V6.59889C16.9378 6.59041 16.9339 6.58408 16.9299 6.58096L15.1452 5.16889L15.1441 5.16796L15.1424 5.16664L15.1412 5.16571L13.3712 3.78326C13.3685 3.78116 13.366 3.78054 13.364 3.78054H5.78634C5.78416 3.78054 5.78316 3.78088 5.78239 3.78121C5.78129 3.78168 5.77951 3.78271 5.77755 3.78469C5.77559 3.78668 5.77401 3.78905 5.77297 3.79156Z" fill="#505F79"/>
</svg>
