<svg width="24" height="24" viewBox="0 0 24 24" fill="none" xmlns="http://www.w3.org/2000/svg">
<path d="M12 16.25C12.4142 16.25 12.75 16.5858 12.75 17C12.75 17.4142 12.4142 17.75 12 17.75H8C7.58579 17.75 7.25 17.4142 7.25 17C7.25 16.5858 7.58579 16.25 8 16.25H12Z" fill="#282828"/>
<path d="M16 13.25C16.4142 13.25 16.75 13.5858 16.75 14C16.75 14.4142 16.4142 14.75 16 14.75H8C7.58579 14.75 7.25 14.4142 7.25 14C7.25 13.5858 7.58579 13.25 8 13.25H16Z" fill="#282828"/>
<path d="M16 10.25C16.4142 10.25 16.75 10.5858 16.75 11C16.75 11.4142 16.4142 11.75 16 11.75H8C7.58579 11.75 7.25 11.4142 7.25 11C7.25 10.5858 7.58579 10.25 8 10.25H16Z" fill="#282828"/>
<path fill-rule="evenodd" clip-rule="evenodd" d="M12 2.25C13.2609 2.25 14.32 3.0996 14.6445 4.25684C15.3718 4.30299 16.0046 4.69431 16.3818 5.26855C18.2736 5.45983 19.75 7.05781 19.75 9V18C19.75 20.0711 18.0711 21.75 16 21.75H8C5.92893 21.75 4.25 20.0711 4.25 18V9C4.25 7.05814 5.7259 5.46028 7.61719 5.26855C7.99421 4.6943 8.62739 4.30329 9.35449 4.25684C9.67894 3.09947 10.739 2.25 12 2.25ZM16.7168 6.86816C16.5409 7.93541 15.6171 8.75 14.5 8.75H9.5C8.38287 8.75 7.45808 7.93549 7.28223 6.86816C6.39174 7.16787 5.75 8.00848 5.75 9V18C5.75 19.2426 6.75736 20.25 8 20.25H16C17.2426 20.25 18.25 19.2426 18.25 18V9C18.25 8.00815 17.6077 7.16761 16.7168 6.86816ZM12 3.75C11.3096 3.75 10.75 4.30964 10.75 5L10.7461 5.07715C10.7075 5.45512 10.3882 5.75 10 5.75H9.5C9.08579 5.75 8.75 6.08579 8.75 6.5C8.75 6.91421 9.08579 7.25 9.5 7.25H14.5C14.9142 7.25 15.25 6.91421 15.25 6.5C15.25 6.08579 14.9142 5.75 14.5 5.75H14C13.5858 5.75 13.25 5.41421 13.25 5C13.25 4.30964 12.6904 3.75 12 3.75Z" fill="#282828"/>
</svg>
