<svg width="24" height="24" viewBox="0 0 24 24" fill="none" xmlns="http://www.w3.org/2000/svg">
<path fill-rule="evenodd" clip-rule="evenodd" d="M16.7224 4.93251C15.3245 3.99852 13.6811 3.5 12 3.5C9.74648 3.50265 7.58601 4.39903 5.99252 5.99252C4.39903 7.586 3.50265 9.74647 3.5 12C3.5 13.6811 3.99852 15.3245 4.93251 16.7223C5.8665 18.1202 7.19402 19.2096 8.7472 19.853C10.3004 20.4963 12.0094 20.6646 13.6583 20.3367C15.3071 20.0087 16.8217 19.1992 18.0104 18.0104C19.1992 16.8217 20.0087 15.3071 20.3367 13.6583C20.6647 12.0094 20.4963 10.3004 19.853 8.74719C19.2096 7.19402 18.1202 5.8665 16.7224 4.93251ZM6.4443 3.6853C8.08879 2.58649 10.0222 2 12 2C14.6522 2 17.1957 3.05357 19.0711 4.92893C20.9464 6.8043 22 9.34784 22 12C22 13.9778 21.4135 15.9112 20.3147 17.5557C19.2159 19.2002 17.6541 20.4819 15.8268 21.2388C13.9996 21.9957 11.9889 22.1937 10.0491 21.8079C8.10929 21.422 6.32746 20.4696 4.92894 19.0711C3.53041 17.6725 2.578 15.8907 2.19215 13.9509C1.8063 12.0111 2.00433 10.0004 2.76121 8.17317C3.51809 6.3459 4.79981 4.78412 6.4443 3.6853ZM13.7799 15.86C13.9205 16.0007 14.1111 16.0798 14.3099 16.08C14.5079 16.0757 14.6971 15.9972 14.8399 15.86C14.9804 15.7194 15.0593 15.5288 15.0593 15.33C15.0593 15.1312 14.9804 14.9406 14.8399 14.8L12.4399 12.4V8C12.4399 7.80109 12.3609 7.61032 12.2203 7.46967C12.0796 7.32902 11.8889 7.25 11.6899 7.25C11.491 7.25 11.3003 7.32902 11.1596 7.46967C11.019 7.61032 10.9399 7.80109 10.9399 8V12.71C10.9401 12.9088 11.0192 13.0995 11.1599 13.24L13.7799 15.86Z" fill="black"/>
</svg>
