<svg width="24" height="24" viewBox="0 0 24 24" fill="none" xmlns="http://www.w3.org/2000/svg">
<path fill-rule="evenodd" clip-rule="evenodd" d="M5.74018 7.74996C5.6406 7.74842 5.5422 7.72807 5.45018 7.68996C5.35725 7.65183 5.27292 7.59542 5.2022 7.52408C5.13148 7.45273 5.07581 7.36791 5.03851 7.27464C5.0012 7.18137 4.98301 7.08155 4.98501 6.98111C4.98702 6.88068 5.00918 6.78167 5.05018 6.68996C5.76586 4.89939 7.12893 3.44356 8.86858 2.61172C10.6082 1.77987 12.5971 1.63289 14.4402 2.19996C14.6338 2.25831 14.7963 2.39118 14.8919 2.56934C14.9876 2.7475 15.0085 2.95636 14.9502 3.14996C14.8918 3.34357 14.759 3.50607 14.5808 3.60172C14.4026 3.69736 14.1938 3.71831 14.0002 3.65996C13.4017 3.47142 12.7776 3.37696 12.1502 3.37996C10.9202 3.39618 9.72256 3.77614 8.7082 4.47196C7.69383 5.16778 6.90815 6.14831 6.45018 7.28996C6.39074 7.42837 6.29152 7.54598 6.16511 7.62789C6.03869 7.70979 5.89079 7.75228 5.74018 7.74996ZM13.9301 6.99995C15.0499 7.00856 16.1301 7.41593 16.9768 8.14899C17.8235 8.88205 18.3813 9.89281 18.55 11L18.63 11.83L19.39 12.19C19.8342 12.4196 20.1983 12.7788 20.434 13.2198C20.6696 13.6608 20.7659 14.163 20.71 14.66C20.6416 15.3404 20.3088 15.9667 19.7833 16.4043C19.2578 16.8419 18.5816 17.0558 17.9 17H6.00005C5.62091 17.0071 5.24419 16.9382 4.8921 16.7973C4.54002 16.6565 4.2197 16.4466 3.95005 16.18C3.72621 15.9427 3.55242 15.6629 3.43903 15.3571C3.32564 15.0513 3.27498 14.7258 3.29005 14.4C3.34138 13.6988 3.66318 13.0451 4.18749 12.5767C4.71179 12.1084 5.39758 11.8621 6.10005 11.89H9.14005L9.37005 10.65C9.61658 9.6214 10.1987 8.70426 11.0244 8.04331C11.8501 7.38236 12.8725 7.01526 13.9301 6.99995ZM13.9301 5.49995C12.5098 5.52448 11.1405 6.03363 10.0493 6.943C8.95801 7.85238 8.21029 9.10738 7.93005 10.5H6.09005C4.99177 10.4725 3.92627 10.8755 3.121 11.6228C2.31574 12.3702 1.83451 13.4027 1.78005 14.5C1.77374 15.0476 1.87998 15.5908 2.09218 16.0957C2.30437 16.6007 2.61801 17.0566 3.01365 17.4354C3.40929 17.8142 3.8785 18.1076 4.39221 18.2976C4.90591 18.4876 5.45317 18.5701 6.00005 18.54H17.9C18.9747 18.5977 20.029 18.2305 20.8354 17.5177C21.6417 16.8049 22.1355 15.8036 22.21 14.73C22.2824 13.9335 22.1095 13.134 21.7145 12.4387C21.3195 11.7434 20.7212 11.1855 20 10.84C19.7984 9.35763 19.0701 7.99734 17.9483 7.0077C16.8264 6.01805 15.386 5.46512 13.8901 5.44995L13.9301 5.49995ZM4.6198 22.0601C4.70998 22.0912 4.80444 22.108 4.8998 22.1101C5.049 22.1117 5.1953 22.0688 5.32 21.9869C5.44469 21.905 5.54211 21.7877 5.5998 21.6501L6.2498 20.0401C6.32539 19.8557 6.32465 19.6489 6.24776 19.4652C6.17087 19.2814 6.02412 19.1357 5.8398 19.0601C5.65547 18.9845 5.44867 18.9852 5.26488 19.0621C5.0811 19.139 4.93539 19.2857 4.8598 19.4701L4.2098 21.0601C4.16907 21.1524 4.14739 21.252 4.14606 21.3529C4.14473 21.4538 4.16378 21.5539 4.20206 21.6473C4.24034 21.7407 4.29707 21.8253 4.36885 21.8963C4.44063 21.9672 4.52598 22.0229 4.6198 22.0601ZM8.17022 22.1101C8.07162 22.1078 7.97389 22.091 7.88022 22.0601C7.78728 22.0218 7.70285 21.9654 7.63183 21.8943C7.56081 21.8232 7.50461 21.7387 7.46648 21.6457C7.42834 21.5527 7.40904 21.453 7.40968 21.3525C7.41033 21.252 7.4309 21.1526 7.47022 21.0601L8.12022 19.4701C8.19581 19.2857 8.34152 19.139 8.52531 19.0621C8.70909 18.9852 8.9159 18.9845 9.10022 19.0601C9.28455 19.1357 9.4313 19.2814 9.50819 19.4652C9.58508 19.6489 9.58581 19.8557 9.51022 20.0401L8.86022 21.6301C8.8063 21.7698 8.71176 21.8903 8.58878 21.9758C8.4658 22.0614 8.32002 22.1081 8.17022 22.1101ZM11.14 22.0599C11.2337 22.0908 11.3314 22.1076 11.43 22.1099C11.5826 22.1156 11.7332 22.0747 11.8619 21.9925C11.9906 21.9103 12.0911 21.7908 12.15 21.6499L12.8 20.0599C12.8422 19.9678 12.865 19.868 12.8671 19.7667C12.8691 19.6654 12.8504 19.5647 12.8119 19.471C12.7735 19.3772 12.7162 19.2924 12.6436 19.2216C12.571 19.1509 12.4847 19.0959 12.39 19.0599C12.2981 19.0162 12.1981 18.9921 12.0963 18.9893C11.9946 18.9865 11.8934 19.005 11.7992 19.0436C11.7051 19.0822 11.62 19.1401 11.5495 19.2135C11.4791 19.2869 11.4247 19.3742 11.39 19.4699L10.73 21.0599C10.6907 21.1524 10.6701 21.2518 10.6694 21.3523C10.6688 21.4528 10.6881 21.5525 10.7262 21.6455C10.7644 21.7385 10.8206 21.823 10.8916 21.8941C10.9626 21.9653 11.047 22.0216 11.14 22.0599ZM14.6902 22.1099C14.5916 22.1076 14.4939 22.0908 14.4002 22.0599C14.3073 22.0216 14.2229 21.9653 14.1519 21.8941C14.0808 21.823 14.0246 21.7385 13.9865 21.6455C13.9484 21.5525 13.9291 21.4528 13.9297 21.3523C13.9303 21.2518 13.9509 21.1524 13.9902 21.0599L14.6502 19.4699C14.685 19.3742 14.7393 19.2869 14.8098 19.2135C14.8803 19.1401 14.9653 19.0822 15.0595 19.0436C15.1537 19.005 15.2549 18.9865 15.3566 18.9893C15.4583 18.9921 15.5583 19.0162 15.6502 19.0599C15.745 19.0959 15.8313 19.1509 15.9039 19.2216C15.9764 19.2924 16.0337 19.3772 16.0722 19.471C16.1106 19.5647 16.1294 19.6654 16.1273 19.7667C16.1253 19.868 16.1024 19.9678 16.0602 20.0599L15.4102 21.6499C15.3513 21.7908 15.2508 21.9103 15.1221 21.9925C14.9935 22.0747 14.8428 22.1156 14.6902 22.1099ZM17.7098 22.0599C17.8035 22.0908 17.9012 22.1076 17.9998 22.1099C18.1507 22.1136 18.2992 22.0717 18.4259 21.9896C18.5525 21.9075 18.6515 21.7891 18.7098 21.6499L19.3698 20.0599C19.4091 19.9674 19.4297 19.868 19.4303 19.7675C19.431 19.667 19.4117 19.5673 19.3736 19.4743C19.3354 19.3813 19.2792 19.2968 19.2082 19.2257C19.1372 19.1545 19.0528 19.0982 18.9598 19.0599C18.8677 19.0177 18.7679 18.9949 18.6666 18.9928C18.5653 18.9908 18.4646 19.0096 18.3709 19.048C18.2771 19.0864 18.1923 19.1437 18.1215 19.2163C18.0508 19.2889 17.9958 19.3752 17.9598 19.4699L17.2998 21.0599C17.2605 21.1524 17.2399 21.2518 17.2393 21.3523C17.2386 21.4529 17.2579 21.5525 17.2961 21.6455C17.3342 21.7385 17.3904 21.823 17.4614 21.8942C17.5324 21.9653 17.6169 22.0216 17.7098 22.0599Z" fill="black"/>
</svg>
