<svg xmlns="http://www.w3.org/2000/svg" width="24" height="24" fill="none" viewBox="0 0 24 24"><path fill="#282828" fill-rule="evenodd" d="M6 14.25a3.75 3.75 0 1 1 0 7.5 3.75 3.75 0 0 1 0-7.5m0 1.5a2.25 2.25 0 1 0 0 4.5 2.25 2.25 0 0 0 0-4.5" clip-rule="evenodd"/><path fill="#282828" d="M14.995 2.25a.75.75 0 0 1 .75.75v4.188l2.964-2.964a.75.75 0 1 1 1.06 1.06l-2.96 2.961H21a.75.75 0 0 1 0 1.5h-4.201l2.97 2.97a.75.75 0 1 1-1.06 1.061l-2.964-2.963V15a.75.75 0 0 1-1.5 0v-4.191l-2.96 2.96a.75.75 0 0 1-1.061-1.06l2.964-2.964H9a.75.75 0 0 1 0-1.5h4.178l-2.954-2.954a.75.75 0 0 1 1.06-1.06l2.961 2.96V3a.75.75 0 0 1 .75-.75"/></svg>