<svg xmlns="http://www.w3.org/2000/svg" width="24" height="24" fill="none" viewBox="0 0 24 24"><path fill="#282828" d="M21 16.25a.75.75 0 0 1 .75.75A2.75 2.75 0 0 1 19 19.75H5A2.75 2.75 0 0 1 2.25 17a.75.75 0 0 1 1.5 0c0 .69.56 1.25 1.25 1.25h14c.69 0 1.25-.56 1.25-1.25a.75.75 0 0 1 .75-.75"/><path fill="#282828" fill-rule="evenodd" d="M13.04 5.592q.48 0 .736.256.273.255.272.752v3.728q.28-.492.8-.832.735-.48 1.712-.48 1.04 0 1.808.496.768.495 1.2 1.408.432.896.432 2.16 0 1.248-.432 2.176-.432.912-1.216 1.408-.769.495-1.792.496-.991 0-1.744-.496a2.37 2.37 0 0 1-.8-.888v.329q0 .495-.256.767-.255.255-.72.256-.48 0-.736-.256-.255-.272-.256-.767V6.6q0-.496.256-.752.255-.256.736-.256M16 10.536a1.9 1.9 0 0 0-1.04.288q-.449.272-.704.848-.24.56-.24 1.408 0 1.265.544 1.92.544.64 1.44.64.592 0 1.04-.288.449-.287.689-.848.255-.576.255-1.424.001-1.28-.544-1.904-.544-.64-1.44-.64M7.624 9q1.152 0 1.888.352.751.352 1.12 1.072.368.704.368 1.824v3.84q0 .496-.24.768-.24.256-.688.256t-.704-.256q-.24-.27-.24-.768v-.339q-.12.3-.32.547a2.2 2.2 0 0 1-.816.624q-.496.224-1.137.224a3.5 3.5 0 0 1-1.52-.32 2.76 2.76 0 0 1-1.04-.896 2.25 2.25 0 0 1-.367-1.264q0-.864.448-1.36.448-.511 1.456-.736t2.704-.224h.56v-.336q0-.8-.352-1.152-.353-.351-1.184-.352-.465 0-1.008.112a5.4 5.4 0 0 0-1.12.384q-.304.144-.544.08a.6.6 0 0 1-.352-.256.84.84 0 0 1-.128-.448q0-.24.128-.464a.76.76 0 0 1 .432-.352q.736-.304 1.408-.432A7 7 0 0 1 7.624 9m.928 4.496q-.993 0-1.584.096t-.848.336q-.24.225-.24.64 0 .528.368.864t1.023.336q.529 0 .93-.24.414-.255.654-.688t.24-.992v-.352z" clip-rule="evenodd"/></svg>