<svg xmlns="http://www.w3.org/2000/svg" width="24" height="24" fill="none" viewBox="0 0 24 24"><path fill="#282828" fill-rule="evenodd" d="M7.957 15q.65 0 1.07.188.428.18.634.564.214.376.214.97v1.582q0 .345-.167.524-.166.18-.483.18-.325 0-.5-.18-.145-.159-.162-.45a.9.9 0 0 1-.138.263.96.96 0 0 1-.373.28 1.3 1.3 0 0 1-.523.103q-.451 0-.8-.165a1.4 1.4 0 0 1-.539-.446 1.17 1.17 0 0 1-.19-.657q0-.423.222-.666.221-.242.713-.344.49-.11 1.307-.11h.302v-.11q0-.28-.151-.399-.144-.117-.5-.117-.19 0-.427.047a3 3 0 0 0-.531.15q-.214.077-.365.023a.47.47 0 0 1-.237-.189.56.56 0 0 1-.08-.289.6.6 0 0 1 .103-.298.66.66 0 0 1 .31-.219A3.5 3.5 0 0 1 7.957 15m.285 2.294q-.309 0-.514.047a.57.57 0 0 0-.293.133.3.3 0 0 0-.096.227q0 .18.127.297.135.117.38.118.2 0 .35-.087a.7.7 0 0 0 .252-.234.7.7 0 0 0 .096-.36v-.141z" clip-rule="evenodd"/><path fill="#282828" d="M13.17 15q.23 0 .484.047.254.039.524.156.19.07.26.22a.5.5 0 0 1 .064.306.6.6 0 0 1-.095.296.4.4 0 0 1-.23.181q-.141.047-.325-.039a1 1 0 0 0-.269-.087 1.15 1.15 0 0 0-.642.031.7.7 0 0 0-.27.189.8.8 0 0 0-.173.297q-.056.18-.056.407 0 .454.23.713t.65.258q.126 0 .261-.024.135-.03.27-.094.182-.085.325-.03a.43.43 0 0 1 .23.179.59.59 0 0 1 .023.603.5.5 0 0 1-.27.211 2 2 0 0 1-.514.157 2.5 2.5 0 0 1-.476.047q-.657 0-1.148-.243a1.8 1.8 0 0 1-.753-.696 2.1 2.1 0 0 1-.27-1.081q0-.47.15-.837.15-.376.436-.635a2 2 0 0 1 .69-.391Q12.68 15 13.17 15"/><path fill="#282828" fill-rule="evenodd" d="M16 12.25A2.75 2.75 0 0 1 18.75 15v4A2.75 2.75 0 0 1 16 21.75H5A2.75 2.75 0 0 1 2.25 19v-4A2.75 2.75 0 0 1 5 12.25zm-11 1.5c-.69 0-1.25.56-1.25 1.25v4c0 .69.56 1.25 1.25 1.25h11c.69 0 1.25-.56 1.25-1.25v-4c0-.69-.56-1.25-1.25-1.25z" clip-rule="evenodd"/><path fill="#282828" d="M17 9.25A4.75 4.75 0 0 1 21.75 14v3a.75.75 0 0 1-1.5 0v-3A3.25 3.25 0 0 0 17 10.75h-7a.75.75 0 0 1 0-1.5zM8 3.75a.75.75 0 0 1 0 1.5H7c-.69 0-1.25.56-1.25 1.25v1.69l.72-.72a.75.75 0 1 1 1.06 1.06l-2 2a.75.75 0 0 1-1.06 0l-2-2a.75.75 0 1 1 1.06-1.06l.72.72V6.5A2.75 2.75 0 0 1 7 3.75z"/><path fill="#282828" fill-rule="evenodd" d="M11.969 3.746q.652 0 1.075.2.43.19.638.595.215.397.216 1.026v1.671q0 .365-.168.555t-.487.19q-.327 0-.502-.19-.147-.17-.162-.477a.93.93 0 0 1-.514.577Q11.833 8 11.538 8a1.8 1.8 0 0 1-.805-.174 1.4 1.4 0 0 1-.542-.472A1.3 1.3 0 0 1 10 6.66q0-.446.223-.703t.717-.364q.495-.116 1.315-.116h.304V5.36q0-.298-.153-.423-.144-.123-.502-.124-.19 0-.43.05-.239.042-.534.158-.214.082-.366.025a.48.48 0 0 1-.239-.2.6.6 0 0 1-.08-.305.63.63 0 0 1 .103-.314.67.67 0 0 1 .31-.233 3.4 3.4 0 0 1 1.3-.248m.286 2.425q-.31 0-.518.05a.56.56 0 0 0-.295.14.32.32 0 0 0-.095.24.42.42 0 0 0 .128.315q.135.124.381.124.2 0 .351-.09a.7.7 0 0 0 .256-.249.75.75 0 0 0 .096-.38v-.15zM15.701 2q.343 0 .526.19.192.19.192.555V4.32q.132-.209.374-.358.351-.215.789-.215.51 0 .893.257.39.257.605.728.215.472.216 1.142 0 .654-.216 1.134-.215.48-.605.736a1.57 1.57 0 0 1-.893.257q-.454 0-.812-.224a1.1 1.1 0 0 1-.384-.413.7.7 0 0 1-.175.43q-.176.19-.51.19-.342 0-.525-.19Q15 7.603 15 7.238V2.745q0-.364.184-.555.183-.19.517-.19m1.435 2.83a.7.7 0 0 0-.383.107.7.7 0 0 0-.263.34q-.095.224-.095.596 0 .547.207.795a.66.66 0 0 0 .534.248.65.65 0 0 0 .375-.107.77.77 0 0 0 .262-.34q.096-.232.096-.596 0-.554-.207-.794a.66.66 0 0 0-.526-.249" clip-rule="evenodd"/></svg>