<svg xmlns="http://www.w3.org/2000/svg" width="24" height="24" fill="none" viewBox="0 0 24 24"><path fill="#282828" d="M11 2.25a.75.75 0 0 1 0 1.5h-1c-.69 0-1.25.56-1.25 1.25v1.69l.72-.72a.75.75 0 1 1 1.06 1.06l-2 2a.75.75 0 0 1-1.06 0l-2-2a.75.75 0 1 1 1.06-1.06l.72.72V5A2.75 2.75 0 0 1 10 2.25z"/><path fill="#282828" fill-rule="evenodd" d="M13.817 2q.398 0 .612.222.222.222.222.647v1.836q.154-.243.436-.417a1.7 1.7 0 0 1 .919-.25q.594 0 1.039.299.454.3.704.85.25.549.251 1.332 0 .763-.25 1.323-.251.56-.705.86a1.8 1.8 0 0 1-1.04.298 1.75 1.75 0 0 1-.945-.26 1.3 1.3 0 0 1-.447-.481q-.029.318-.203.5-.204.221-.594.221-.398 0-.612-.221Q13 8.537 13 8.11V2.87q0-.425.213-.647T13.817 2m1.67 3.302a.8.8 0 0 0-.446.126.83.83 0 0 0-.307.395q-.11.261-.11.696 0 .636.24.926.242.29.622.29a.76.76 0 0 0 .436-.126.9.9 0 0 0 .307-.395q.11-.27.11-.695 0-.647-.24-.927a.76.76 0 0 0-.613-.29M11.575 13q.825 0 1.352.27.536.257.804.808.27.54.269 1.395v2.601q0 .434-.193.668-.194.235-.558.235t-.568-.235q-.195-.234-.194-.668v-.073q-.073.22-.204.401-.203.281-.525.446a1.7 1.7 0 0 1-.74.152q-.58 0-1.041-.246A1.785 1.785 0 0 1 9 17.137q0-.633.3-.996.301-.375.976-.528.676-.165 1.792-.164h.387v-.199q0-.516-.215-.727-.214-.222-.73-.222-.288 0-.632.082a4 4 0 0 0-.74.246q-.237.117-.42.059a.54.54 0 0 1-.279-.235.79.79 0 0 1 .01-.773.64.64 0 0 1 .356-.293 4.3 4.3 0 0 1 1.77-.387m.504 3.363q-.548 0-.89.07-.333.06-.483.212-.14.152-.14.421 0 .33.204.54.215.21.612.21.311 0 .547-.152.246-.165.386-.434.14-.28.14-.632v-.235z" clip-rule="evenodd"/><path fill="#282828" fill-rule="evenodd" d="M18 10.25A2.75 2.75 0 0 1 20.75 13v6A2.75 2.75 0 0 1 18 21.75H6A2.75 2.75 0 0 1 3.25 19v-6A2.75 2.75 0 0 1 6 10.25zm-12 1.5c-.69 0-1.25.56-1.25 1.25v6c0 .69.56 1.25 1.25 1.25h12c.69 0 1.25-.56 1.25-1.25v-6c0-.69-.56-1.25-1.25-1.25z" clip-rule="evenodd"/></svg>