<svg xmlns="http://www.w3.org/2000/svg" width="24" height="24" fill="none" viewBox="0 0 24 24"><path fill="#282828" d="M16.995 17.689q-.784 0-1.405-.296a2.55 2.55 0 0 1-.96-.828 2.1 2.1 0 0 1-.34-1.168q0-.798.413-1.257.414-.473 1.346-.68.93-.207 2.498-.207h.74v1.065h-.725q-.917 0-1.464.089-.547.088-.783.31-.222.207-.222.591 0 .489.34.799t.946.31q.488 0 .858-.222.384-.236.606-.635.222-.4.222-.917v-1.7q0-.74-.326-1.064-.324-.326-1.094-.326a4.6 4.6 0 0 0-.931.104q-.488.103-1.035.355-.28.132-.503.073a.56.56 0 0 1-.325-.236.8.8 0 0 1-.118-.414q0-.221.118-.429a.7.7 0 0 1 .4-.325q.68-.28 1.3-.4a6.4 6.4 0 0 1 1.153-.117q1.065 0 1.745.325a2.15 2.15 0 0 1 1.035.99q.34.651.34 1.686v3.548q0 .458-.222.71-.222.236-.636.236-.413 0-.65-.236-.222-.252-.222-.71v-.71h.118a2.003 2.003 0 0 1-1.168 1.478 2.5 2.5 0 0 1-1.05.208M3.894 17.66q-.355 0-.577-.163a.67.67 0 0 1-.25-.43q-.045-.28.103-.62l3.903-8.649q.191-.428.458-.606A1.1 1.1 0 0 1 8.167 7q.339 0 .606.192.28.177.473.606l3.918 8.649q.162.34.118.62a.68.68 0 0 1-.252.444q-.206.148-.546.148-.415 0-.651-.192-.221-.207-.4-.62l-.96-2.233.798.517H5.032l.799-.517-.946 2.232q-.193.429-.4.621t-.591.192m4.243-8.487-2.07 4.923-.384-.473h4.938l-.37.473-2.084-4.923z"/></svg>