<svg xmlns="http://www.w3.org/2000/svg" width="24" height="24" fill="none" viewBox="0 0 24 24"><path fill="#282828" d="M14.741 17.54q-.488 0-.754-.25-.252-.267-.251-.755V8.123q0-.487.251-.739.266-.266.754-.266h3.548q1.094 0 1.863.325.769.326 1.168.932.414.606.414 1.448 0 .946-.547 1.597-.548.651-1.493.872v-.221q1.094.162 1.7.828t.606 1.73q0 1.389-.946 2.158-.931.753-2.602.754zm.813-1.433h2.661q1.005 0 1.479-.385.473-.399.473-1.182 0-.8-.473-1.183-.474-.384-1.479-.384h-2.66zm0-4.569h2.41q.975 0 1.449-.37.488-.383.488-1.123 0-.739-.488-1.109-.474-.384-1.45-.384h-2.409zM2.838 17.66q-.355 0-.576-.163a.67.67 0 0 1-.252-.43q-.045-.28.104-.62l3.903-8.649q.192-.428.458-.606A1.1 1.1 0 0 1 7.111 7q.339 0 .606.192.28.177.473.606l3.918 8.649q.162.34.118.62a.68.68 0 0 1-.251.444q-.207.148-.547.148-.414 0-.65-.192-.223-.207-.4-.62l-.961-2.233.798.517H3.976l.799-.517-.946 2.232q-.192.429-.4.621-.207.192-.59.192m4.243-8.487-2.07 4.923-.384-.473h4.938l-.37.473-2.084-4.923z"/></svg>