<svg width="24" height="24" viewBox="0 0 24 24" fill="none" xmlns="http://www.w3.org/2000/svg">
<path d="M22.21 12.7301C22.2846 11.9347 22.1126 11.1356 21.7172 10.4414C21.3218 9.74723 20.7222 9.19162 20 8.85009C19.789 7.42493 19.0851 6.11882 18.0108 5.15888C16.9366 4.19895 15.5598 3.64593 14.1199 3.59599C12.6801 3.54605 11.2683 4.00236 10.1301 4.88556C8.99189 5.76876 8.19924 7.02298 7.89001 8.43009H6.09001C4.99173 8.40264 3.92622 8.8056 3.12096 9.55295C2.31569 10.3003 1.83446 11.3328 1.78001 12.4301C1.76393 12.9836 1.86295 13.5344 2.0708 14.0477C2.27865 14.5609 2.5908 15.0254 2.98749 15.4118C3.38418 15.7981 3.85676 16.0979 4.37532 16.2921C4.89388 16.4863 5.44712 16.5708 6.00001 16.5401H8.31001V17.6801C8.31959 17.8509 8.29402 18.0218 8.23488 18.1823C8.17574 18.3428 8.08428 18.4895 7.96617 18.6132C7.84805 18.737 7.7058 18.8352 7.54821 18.9017C7.39063 18.9682 7.22106 19.0017 7.05001 19.0001H6.66001C6.53495 18.8032 6.36205 18.6413 6.15745 18.5294C5.95285 18.4175 5.72322 18.3592 5.49001 18.3601C5.12136 18.3601 4.7678 18.5065 4.50713 18.7672C4.24645 19.0279 4.10001 19.3814 4.10001 19.7501C4.10001 20.1187 4.24645 20.4723 4.50713 20.733C4.7678 20.9936 5.12136 21.1401 5.49001 21.1401C5.72357 21.1429 5.95391 21.0854 6.15884 20.9733C6.36376 20.8612 6.53636 20.6983 6.66001 20.5001H7.05001C7.78119 20.4975 8.48168 20.2058 8.99871 19.6888C9.51574 19.1718 9.80737 18.4713 9.81001 17.7401V16.5501H11.25V18.7601C10.997 18.9222 10.8034 19.162 10.6981 19.4434C10.5928 19.7248 10.5816 20.0328 10.6661 20.3211C10.7505 20.6095 10.9262 20.8627 11.1667 21.0429C11.4071 21.223 11.6995 21.3204 12 21.3204C12.3005 21.3204 12.5929 21.223 12.8334 21.0429C13.0738 20.8627 13.2495 20.6095 13.334 20.3211C13.4184 20.0328 13.4072 19.7248 13.3019 19.4434C13.1966 19.162 13.003 18.9222 12.75 18.7601V16.5401H14.19V17.6801C14.19 18.0472 14.2629 18.4107 14.4046 18.7494C14.5463 19.0881 14.7539 19.3953 15.0154 19.6531C15.2769 19.9108 15.587 20.114 15.9277 20.2508C16.2684 20.3877 16.6329 20.4554 17 20.4501H17.39C17.5136 20.6483 17.6863 20.8112 17.8912 20.9233C18.0961 21.0354 18.3264 21.0929 18.56 21.0901C18.9287 21.0901 19.2822 20.9436 19.5429 20.683C19.8036 20.4223 19.95 20.0687 19.95 19.7001C19.95 19.3314 19.8036 18.9779 19.5429 18.7172C19.2822 18.4565 18.9287 18.3101 18.56 18.3101C18.3268 18.3092 18.0972 18.3675 17.8926 18.4794C17.688 18.5913 17.5151 18.7532 17.39 18.9501H17C16.8342 18.9514 16.6697 18.9197 16.5163 18.8569C16.3628 18.794 16.2234 18.7013 16.1061 18.584C15.9888 18.4667 15.8961 18.3273 15.8332 18.1738C15.7704 18.0204 15.7387 17.8559 15.74 17.6901V16.5501H17.9C18.9763 16.6077 20.032 16.2392 20.8387 15.5243C21.6453 14.8093 22.1379 13.8055 22.21 12.7301V12.7301ZM3.94001 14.2201C3.71598 13.985 3.54198 13.707 3.42854 13.4028C3.31509 13.0985 3.26456 12.7744 3.28001 12.4501C3.33131 11.7481 3.65275 11.0933 4.17677 10.6234C4.70079 10.1534 5.38658 9.90493 6.09001 9.93009H9.14001L9.37001 8.70009C9.60691 7.66228 10.1848 6.73384 11.0115 6.06312C11.8381 5.3924 12.8657 5.01812 13.93 5.00009C15.0505 5.00667 16.1317 5.41332 16.9788 6.14675C17.8259 6.88017 18.3831 7.8921 18.55 9.00009L18.63 9.83009L19.39 10.1901C19.8342 10.4198 20.1982 10.7789 20.4339 11.2199C20.6696 11.661 20.7659 12.1632 20.71 12.6601C20.644 13.3415 20.312 13.9694 19.7859 14.4075C19.2598 14.8457 18.5821 15.0586 17.9 15.0001H6.00001C5.62174 15.0161 5.24416 14.9552 4.89008 14.8212C4.53601 14.6871 4.2128 14.4826 3.94001 14.2201V14.2201Z" fill="black"/>
</svg>
