<svg width="24" height="24" viewBox="0 0 24 24" fill="none" xmlns="http://www.w3.org/2000/svg">
<path fill-rule="evenodd" clip-rule="evenodd" d="M11.22 21.9579C11.3892 22.0218 11.5692 22.0524 11.75 22.0479C11.9152 22.0399 12.0778 22.0026 12.23 21.9379C13.6302 21.2977 14.969 20.5312 16.23 19.6479C17.2887 18.9197 18.2411 18.048 19.06 17.0579C19.9424 16.0372 20.4503 14.7462 20.5 13.3979V5.30788C20.4984 5.03165 20.4096 4.76298 20.2461 4.54027C20.0827 4.31757 19.8531 4.15223 19.59 4.06788C17.318 3.26546 15.0006 2.59764 12.65 2.06788C12.0534 1.97737 11.4466 1.97737 10.85 2.06788C8.50569 2.59663 6.19493 3.26448 3.93 4.06788C3.6624 4.14733 3.42747 4.31081 3.25999 4.53412C3.0925 4.75744 3.00134 5.02874 3 5.30788V13.3979C3.04966 14.7462 3.55761 16.0372 4.44 17.0579C5.23969 18.0539 6.17553 18.9325 7.22 19.6679C8.48097 20.5512 9.81984 21.3177 11.22 21.9579ZM4.5 13.3979V5.45788C6.64704 4.68133 8.8374 4.03023 11.06 3.50788C11.5173 3.43788 11.9827 3.43788 12.44 3.50788C14.663 4.02882 16.8534 4.67995 19 5.45788V13.3979C18.9441 14.4079 18.5496 15.3696 17.88 16.1279C17.1491 17.0061 16.3012 17.78 15.36 18.4279C14.2211 19.2333 13.0131 19.936 11.75 20.5279C10.4869 19.936 9.27885 19.2333 8.14 18.4279C7.19674 17.7826 6.34851 17.0084 5.62 16.1279C4.94772 15.3713 4.55276 14.4086 4.5 13.3979ZM9.81008 14.1979C10.0473 14.4237 10.3626 14.549 10.6901 14.5479C11.0168 14.545 11.3307 14.4202 11.5701 14.1979L15.3301 10.6179C15.4391 10.478 15.495 10.304 15.4878 10.1268C15.4807 9.94958 15.411 9.78064 15.2911 9.64996C15.1712 9.51928 15.0089 9.43531 14.8329 9.41296C14.657 9.39061 14.4788 9.43133 14.3301 9.52789L10.6801 12.9579L9.18008 11.5879C9.11114 11.5171 9.02872 11.4609 8.9377 11.4225C8.84667 11.3841 8.74888 11.3643 8.65008 11.3643C8.55129 11.3643 8.4535 11.3841 8.36247 11.4225C8.27145 11.4609 8.18903 11.5171 8.12008 11.5879C7.98203 11.7298 7.90479 11.9199 7.90479 12.1179C7.90479 12.3159 7.98203 12.506 8.12008 12.6479L9.81008 14.1979Z" fill="black"/>
</svg>
