<svg width="24" height="24" viewBox="0 0 24 24" fill="none" xmlns="http://www.w3.org/2000/svg">
<path fill-rule="evenodd" clip-rule="evenodd" d="M5.76005 20.51H9.19005V20.49C9.38897 20.49 9.57973 20.569 9.72038 20.7097C9.86104 20.8503 9.94005 21.0411 9.94005 21.24C9.94005 21.4389 9.86104 21.6297 9.72038 21.7703C9.57973 21.911 9.38897 21.99 9.19005 21.99H5.76005C4.76722 21.9927 3.81384 21.6015 3.10899 20.9023C2.40414 20.203 2.00534 19.2528 2.00005 18.26V7.67C1.99741 7.17502 2.09279 6.68441 2.28069 6.22648C2.46859 5.76854 2.74529 5.35233 3.09483 5.00186C3.44437 4.65139 3.85984 4.37358 4.31728 4.18447C4.77472 3.99535 5.26507 3.89867 5.76005 3.9H6.46005V2.9C6.46005 2.66131 6.55487 2.43239 6.72366 2.2636C6.89244 2.09482 7.12136 2 7.36005 2C7.59875 2 7.82767 2.09482 7.99645 2.2636C8.16523 2.43239 8.26005 2.66131 8.26005 2.9V3.9H15.9001V2.9C15.9001 2.66131 15.9949 2.43239 16.1637 2.2636C16.3324 2.09482 16.5614 2 16.8001 2C17.0387 2 17.2677 2.09482 17.4364 2.2636C17.6052 2.43239 17.7001 2.66131 17.7001 2.9V3.9H18.2601C19.2546 3.9 20.2084 4.29509 20.9117 4.99835C21.615 5.70161 22.0101 6.65544 22.0101 7.65V11.65C22.0101 11.8489 21.931 12.0397 21.7904 12.1803C21.6497 12.321 21.459 12.4 21.2601 12.4C21.0611 12.4 20.8704 12.321 20.7297 12.1803C20.5891 12.0397 20.5101 11.8489 20.5101 11.65V10.74H3.51005V18.26C3.51005 18.8567 3.74711 19.429 4.16906 19.851C4.59102 20.2729 5.16332 20.51 5.76005 20.51ZM18.2401 5.42H5.76005C5.4629 5.41736 5.16817 5.47361 4.89287 5.5855C4.61758 5.69739 4.36717 5.8627 4.15612 6.0719C3.94506 6.28109 3.77754 6.53002 3.66322 6.80432C3.5489 7.07861 3.49004 7.37284 3.49005 7.67V9.24H20.4901V7.67C20.4901 7.07326 20.253 6.50097 19.831 6.07901C19.4091 5.65705 18.8368 5.42 18.2401 5.42ZM17.0698 11.99C16.0809 11.99 15.1142 12.2832 14.292 12.8326C13.4697 13.382 12.8289 14.1629 12.4504 15.0766C12.072 15.9902 11.973 16.9955 12.1659 17.9654C12.3588 18.9353 12.835 19.8263 13.5343 20.5255C14.2336 21.2248 15.1245 21.701 16.0944 21.8939C17.0643 22.0868 18.0696 21.9878 18.9832 21.6094C19.8969 21.2309 20.6778 20.5901 21.2272 19.7678C21.7766 18.9456 22.0698 17.9789 22.0698 16.99C22.0698 16.3334 21.9405 15.6832 21.6892 15.0766C21.438 14.4699 21.0697 13.9187 20.6054 13.4545C20.1411 12.9902 19.5899 12.6219 18.9832 12.3706C18.3766 12.1193 17.7264 11.99 17.0698 11.99ZM17.0698 20.49C16.3776 20.49 15.7009 20.2847 15.1253 19.9001C14.5498 19.5155 14.1012 18.9689 13.8362 18.3294C13.5713 17.6898 13.502 16.9861 13.6371 16.3072C13.7721 15.6282 14.1055 15.0046 14.595 14.5151C15.0844 14.0256 15.7081 13.6923 16.387 13.5572C17.0659 13.4222 17.7697 13.4915 18.4092 13.7564C19.0488 14.0213 19.5954 14.4699 19.98 15.0455C20.3646 15.6211 20.5698 16.2978 20.5698 16.99C20.5698 17.9182 20.2011 18.8085 19.5447 19.4649C18.8883 20.1212 17.9981 20.49 17.0698 20.49ZM17.7598 16.99V15.51C17.7598 15.3111 17.6807 15.1203 17.5401 14.9797C17.3994 14.839 17.2087 14.76 17.0098 14.76C16.8109 14.76 16.6201 14.839 16.4794 14.9797C16.3388 15.1203 16.2598 15.3111 16.2598 15.51V17.27C16.2621 17.4684 16.3409 17.6583 16.4798 17.8L17.4798 18.8C17.6225 18.9273 17.8085 18.9953 17.9998 18.99C18.1978 18.9857 18.3869 18.9072 18.5298 18.77C18.6702 18.6294 18.7491 18.4388 18.7491 18.24C18.7491 18.0413 18.6702 17.8506 18.5298 17.71L17.7598 16.99Z" fill="black"/>
</svg>
