<svg width="24" height="24" viewBox="0 0 24 24" fill="none" xmlns="http://www.w3.org/2000/svg">
<path fill-rule="evenodd" clip-rule="evenodd" d="M19.39 18.2901L21.63 20.5201C21.7704 20.6607 21.8493 20.8514 21.8493 21.0501C21.8493 21.2489 21.7704 21.4395 21.63 21.5801C21.4894 21.7206 21.2987 21.7995 21.1 21.7995C20.9012 21.7995 20.7106 21.7206 20.57 21.5801L18.34 19.3501C16.3869 21.0475 13.852 21.9217 11.2679 21.7891C8.68373 21.6565 6.25158 20.5274 4.48252 18.6391C2.71345 16.7508 1.74521 14.2503 1.78124 11.663C1.81728 9.07569 2.8548 6.60309 4.67577 4.76477C6.49675 2.92646 8.9594 1.86555 11.5462 1.80499C14.1331 1.74443 16.6427 2.68893 18.5477 4.44002C20.4527 6.1911 21.6048 8.61244 21.7618 11.1952C21.9189 13.778 21.0687 16.3211 19.39 18.2901ZM4.80237 7.1711C3.87498 8.55905 3.37998 10.1908 3.37998 11.8601C3.38262 14.0977 4.27269 16.2429 5.85492 17.8252C7.43715 19.4074 9.58236 20.2975 11.82 20.3001C13.4893 20.3001 15.121 19.8051 16.509 18.8777C17.8969 17.9503 18.9787 16.6322 19.6175 15.09C20.2563 13.5478 20.4235 11.8508 20.0978 10.2136C19.7721 8.57635 18.9683 7.07249 17.788 5.89213C16.6076 4.71178 15.1037 3.90795 13.4665 3.58229C11.8293 3.25663 10.1323 3.42377 8.59013 4.06257C7.04792 4.70138 5.72977 5.78315 4.80237 7.1711ZM16.7774 9.40255C16.9175 9.54265 16.9973 9.73191 16.9999 9.93002C17.0002 10.0338 16.979 10.1365 16.9377 10.2316C16.8963 10.3267 16.8356 10.4123 16.7595 10.4827C16.6833 10.5532 16.5934 10.6072 16.4954 10.6411C16.3973 10.6751 16.2933 10.6883 16.1899 10.68H15.9499C15.9765 10.8455 15.9932 11.0125 15.9999 11.18V11.5H16.1899C16.3888 11.5 16.5796 11.579 16.7202 11.7197C16.8609 11.8603 16.9399 12.0511 16.9399 12.25C16.9399 12.4489 16.8609 12.6397 16.7202 12.7803C16.5796 12.921 16.3888 13 16.1899 13H15.9999V13.82H16.2799C16.4788 13.82 16.6696 13.899 16.8102 14.0397C16.9509 14.1803 17.0299 14.3711 17.0299 14.57C17.0299 14.7689 16.9509 14.9597 16.8102 15.1003C16.6696 15.241 16.4788 15.32 16.2799 15.32H15.7799C15.4742 16.0723 14.9514 16.7165 14.2782 17.1706C13.605 17.6248 12.8119 17.8682 11.9999 17.87H11.6799C10.8679 17.8682 10.0748 17.6248 9.40158 17.1706C8.72841 16.7165 8.20565 16.0723 7.8999 15.32H7.3999C7.20099 15.32 7.01022 15.241 6.86957 15.1003C6.72892 14.9597 6.6499 14.7689 6.6499 14.57C6.6499 14.3711 6.72892 14.1803 6.86957 14.0397C7.01022 13.899 7.20099 13.82 7.3999 13.82H7.5899V13H7.3999C7.20099 13 7.01022 12.921 6.86957 12.7803C6.72892 12.6397 6.6499 12.4489 6.6499 12.25C6.6499 12.0511 6.72892 11.8603 6.86957 11.7197C7.01022 11.579 7.20099 11.5 7.3999 11.5H7.6399V11.18C7.63004 11.0135 7.63004 10.8465 7.6399 10.68H7.3999C7.20099 10.68 7.01022 10.601 6.86957 10.4603C6.72892 10.3197 6.6499 10.1289 6.6499 9.93002C6.6499 9.73111 6.72892 9.54034 6.86957 9.39969C7.01022 9.25904 7.20099 9.18002 7.3999 9.18002H8.1499C8.40329 8.72537 8.74297 8.32454 9.1499 8.00002L8.7799 7.24002C8.68708 7.06365 8.66811 6.85763 8.72719 6.66728C8.78626 6.47693 8.91853 6.31784 9.0949 6.22502C9.27127 6.13219 9.47729 6.11323 9.66764 6.1723C9.85799 6.23138 10.0171 6.36365 10.1099 6.54002L10.5099 7.29002C10.9009 7.16292 11.3088 7.09549 11.7199 7.09002H11.9999C12.4617 7.11838 12.9151 7.22665 13.3399 7.41002L13.8499 6.41002C13.8903 6.31411 13.9503 6.22767 14.026 6.1562C14.1016 6.08473 14.1913 6.02979 14.2894 5.99487C14.3874 5.95996 14.4917 5.94583 14.5955 5.9534C14.6993 5.96097 14.8004 5.99006 14.8924 6.03882C14.9843 6.08758 15.0651 6.15495 15.1296 6.23664C15.1941 6.31833 15.2409 6.41255 15.267 6.5133C15.2931 6.61406 15.298 6.71915 15.2812 6.82188C15.2645 6.92461 15.2266 7.02274 15.1699 7.11002L14.6299 8.11002C14.9807 8.41262 15.2752 8.77486 15.4999 9.18002H16.2499C16.448 9.18261 16.6373 9.26246 16.7774 9.40255ZM13.3785 8.99376C12.9662 8.73189 12.4883 8.59192 11.9999 8.59002H11.6799C11.1915 8.59192 10.7136 8.73189 10.3013 8.99376C9.88904 9.25563 9.55922 9.62873 9.3499 10.07C9.3345 10.1673 9.29685 10.2597 9.2399 10.34C9.23217 10.371 9.21994 10.4004 9.20786 10.4295C9.18871 10.4757 9.1699 10.521 9.1699 10.57H14.5099C14.4893 10.4914 14.4626 10.4145 14.4299 10.34C14.3803 10.2569 14.3464 10.1654 14.3299 10.07C14.1206 9.62873 13.7908 9.25563 13.3785 8.99376ZM9.0899 12.07V13.78C9.08974 14.3785 9.29686 14.9586 9.67606 15.4217C10.0553 15.8847 10.5831 16.2022 11.1699 16.32V12.07H9.0899ZM12.6699 12.07V16.26C13.2097 16.1062 13.6848 15.7811 14.0239 15.3339C14.363 14.8866 14.5476 14.3413 14.5499 13.78V12.07H12.6699Z" fill="black"/>
</svg>
