<svg xmlns="http://www.w3.org/2000/svg" width="24" height="24" fill="none" viewBox="0 0 24 24"><path fill="#282828" d="M6.43 11.512a.75.75 0 0 1 1.058-.081l3.5 3a.75.75 0 0 1 0 1.138l-3.5 3a.75.75 0 0 1-.976-1.138L9.347 15l-2.835-2.43a.75.75 0 0 1-.081-1.058M18 14.25a.75.75 0 0 1 0 1.5h-4a.75.75 0 0 1 0-1.5zM7 5a1 1 0 1 1 0 2 1 1 0 0 1 0-2M10 5a1 1 0 1 1 0 2 1 1 0 0 1 0-2"/><path fill="#282828" fill-rule="evenodd" d="M17 2.25A4.75 4.75 0 0 1 21.75 7v10A4.75 4.75 0 0 1 17 21.75H7A4.75 4.75 0 0 1 2.25 17V7A4.75 4.75 0 0 1 7 2.25zM3.75 17A3.25 3.25 0 0 0 7 20.25h10A3.25 3.25 0 0 0 20.25 17V9.75H3.75zM7 3.75A3.25 3.25 0 0 0 3.75 7v1.25h16.5V7A3.25 3.25 0 0 0 17 3.75z" clip-rule="evenodd"/></svg>