<svg width="24" height="24" viewBox="0 0 24 24" fill="none" xmlns="http://www.w3.org/2000/svg">
<path d="M12 2C14.671 2 17.1824 3.04019 19.0711 4.92892C20.9598 6.81766 22 9.32895 22 12C22 14.671 20.9598 17.1824 19.0711 19.0711C17.1824 20.9598 14.671 22 12 22C9.32895 22 6.81766 20.9598 4.92892 19.0711C3.04019 17.1824 2 14.671 2 12C2 9.32895 3.04019 6.81766 4.92892 4.92892C6.81766 3.04019 9.32895 2 12 2ZM12 20.4375C16.6524 20.4375 20.4375 16.6524 20.4375 12C20.4375 7.3476 16.6524 3.5625 12 3.5625C7.3476 3.5625 3.5625 7.3476 3.5625 12C3.5625 16.6524 7.3476 20.4375 12 20.4375ZM7.70312 12.782H16.2969V11.2195H7.70312V12.782Z" fill="#505F79"/>
</svg>
