<svg xmlns="http://www.w3.org/2000/svg" width="24" height="24" fill="none" viewBox="0 0 24 24">
  <path fill="#454545" fill-rule="evenodd" d="M12 20.5a8.5 8.5 0 1 0 0-17 8.5 8.5 0 0 0 0 17Zm0 1.5c5.523 0 10-4.477 10-10S17.523 2 12 2 2 6.477 2 12s4.477 10 10 10Z" clip-rule="evenodd"/>
  <path fill="#454545" d="M12.076 17a.558.558 0 0 1-.41-.158.48.48 0 0 1-.158-.368v-.725a3.88 3.88 0 0 1-1.138-.169 5.257 5.257 0 0 1-1.024-.389.656.656 0 0 1-.284-.284.66.66 0 0 1-.057-.357c.015-.12.06-.22.137-.305a.528.528 0 0 1 .307-.168c.121-.028.261 0 .42.084.213.112.49.22.831.326.349.098.766.147 1.251.147.38 0 .687-.042.922-.126.235-.084.405-.2.512-.347a.804.804 0 0 0 .17-.505.696.696 0 0 0-.114-.4.883.883 0 0 0-.375-.304 2.597 2.597 0 0 0-.705-.221l-1.206-.242c-.69-.14-1.206-.375-1.547-.705-.341-.329-.512-.76-.512-1.293 0-.413.11-.782.33-1.104.22-.33.527-.592.921-.789.395-.196.63-.322 1.16-.357v-.715a.48.48 0 0 1 .16-.368.557.557 0 0 1 .41-.158c.159 0 .291.053.398.158.113.098.17.22.17.368v.715c.326.007.444.066.83.179.395.112.732.27 1.013.473a.61.61 0 0 1 .228.294.5.5 0 0 1-.16.568.58.58 0 0 1-.318.126.822.822 0 0 1-.421-.115 3.234 3.234 0 0 0-.74-.284 3.63 3.63 0 0 0-.978-.116c-.485 0-.868.102-1.149.305a.914.914 0 0 0-.41.778c0 .238.084.431.251.578.167.14.451.253.853.337l1.24.252c.728.147 1.263.382 1.604.705.341.315.512.732.512 1.251 0 .407-.11.768-.33 1.083-.22.309-.523.557-.91.747-.38.182-.607.298-1.115.347v.725a.48.48 0 0 1-.159.368.557.557 0 0 1-.41.158Z"/>
</svg>
