<svg width="24" height="24" viewBox="0 0 24 24" fill="none" xmlns="http://www.w3.org/2000/svg">
<path fill-rule="evenodd" clip-rule="evenodd" d="M15.2803 7.21967C15.5732 7.51256 15.5732 7.98744 15.2803 8.28033L7.28033 16.2803C6.98744 16.5732 6.51256 16.5732 6.21967 16.2803L2.21967 12.2803C1.92678 11.9874 1.92678 11.5126 2.21967 11.2197C2.51256 10.9268 2.98744 10.9268 3.28033 11.2197L6.75 14.6893L14.2197 7.21967C14.5126 6.92678 14.9874 6.92678 15.2803 7.21967Z" fill="#505F79"/>
<path fill-rule="evenodd" clip-rule="evenodd" d="M21.2803 7.21967C21.5732 7.51256 21.5732 7.98744 21.2803 8.28033L13.2803 16.2803C13.1397 16.421 12.9489 16.5 12.75 16.5C12.5511 16.5 12.3603 16.421 12.2197 16.2803L10.7197 14.7803C10.4268 14.4874 10.4268 14.0126 10.7197 13.7197C11.0126 13.4268 11.4874 13.4268 11.7803 13.7197L12.75 14.6893L20.2197 7.21967C20.5126 6.92678 20.9874 6.92678 21.2803 7.21967Z" fill="#505F79"/>
</svg>
