<svg width="24" height="24" viewBox="0 0 24 24" fill="none" xmlns="http://www.w3.org/2000/svg">
<path d="M15 11.25C15.4142 11.25 15.75 11.5858 15.75 12V14.25H18C18.4142 14.25 18.75 14.5858 18.75 15C18.75 15.4142 18.4142 15.75 18 15.75H15.75V18C15.75 18.4142 15.4142 18.75 15 18.75C14.5858 18.75 14.25 18.4142 14.25 18V15.75H12C11.5858 15.75 11.25 15.4142 11.25 15C11.25 14.5858 11.5858 14.25 12 14.25H14.25V12C14.25 11.5858 14.5858 11.25 15 11.25Z" fill="#282828"/>
<path fill-rule="evenodd" clip-rule="evenodd" d="M18 8.25C20.0711 8.25 21.75 9.92893 21.75 12V18C21.75 20.0711 20.0711 21.75 18 21.75H12C9.92893 21.75 8.25 20.0711 8.25 18V12C8.25 9.92893 9.92893 8.25 12 8.25H18ZM12 9.75C10.7574 9.75 9.75 10.7574 9.75 12V18C9.75 19.2426 10.7574 20.25 12 20.25H18C19.2426 20.25 20.25 19.2426 20.25 18V12C20.25 10.7574 19.2426 9.75 18 9.75H12Z" fill="#282828"/>
<path d="M12 2.25C14.0711 2.25 15.75 3.92893 15.75 6V6.5C15.75 6.91421 15.4142 7.25 15 7.25C14.5858 7.25 14.25 6.91421 14.25 6.5V6C14.25 4.75736 13.2426 3.75 12 3.75H6C4.75736 3.75 3.75 4.75736 3.75 6V12C3.75 13.2426 4.75736 14.25 6 14.25C6.41421 14.25 6.75 14.5858 6.75 15C6.75 15.4142 6.41421 15.75 6 15.75C3.92893 15.75 2.25 14.0711 2.25 12V6C2.25 3.92893 3.92893 2.25 6 2.25H12Z" fill="#282828"/>
</svg>
