<svg width="24" height="24" viewBox="0 0 24 24" fill="none" xmlns="http://www.w3.org/2000/svg">
<path fill-rule="evenodd" clip-rule="evenodd" d="M10.6698 18.1301H10.4998L7.57983 17.8801C7.13918 17.8418 6.72616 17.6493 6.4134 17.3365C6.10063 17.0238 5.90816 16.6108 5.86983 16.1701L5.61983 13.2501C5.59464 12.9782 5.62901 12.704 5.72054 12.4467C5.81207 12.1894 5.95856 11.9551 6.14983 11.7601L6.24983 11.6601L15.0598 2.74012C15.3356 2.45392 15.6665 2.22661 16.0326 2.07192C16.3987 1.91723 16.7924 1.83837 17.1898 1.84012C17.5853 1.83915 17.9772 1.9164 18.3427 2.06742C18.7083 2.21845 19.0403 2.44027 19.3198 2.72012L21.1198 4.53012C21.404 4.80935 21.6298 5.14239 21.7839 5.50982C21.938 5.87724 22.0174 6.27169 22.0174 6.67012C22.0174 7.06855 21.938 7.46299 21.7839 7.83041C21.6298 8.19784 21.404 8.53089 21.1198 8.81012C20.6696 9.2472 20.1859 9.71451 19.6826 10.1993C19.6634 10.2241 19.6426 10.2477 19.6202 10.2701C19.5902 10.3005 19.5578 10.3281 19.5232 10.3527C18.5401 11.299 17.4888 12.3058 16.4698 13.2801C14.6698 15.0001 12.9998 16.6101 11.9998 17.6001C11.6438 17.9453 11.1657 18.1358 10.6698 18.1301ZM20.0598 7.69012C19.7433 7.99976 19.4107 8.32329 19.0667 8.65663L15.1528 4.74269L16.1298 3.75012C16.2671 3.60763 16.4318 3.49432 16.6139 3.417C16.7961 3.33967 16.992 3.29992 17.1898 3.30012C17.5901 3.30214 17.9739 3.45996 18.2598 3.74012L20.0598 5.55012C20.2032 5.68903 20.3171 5.85532 20.395 6.03913C20.4728 6.22294 20.5129 6.42051 20.5129 6.62012C20.5129 6.81972 20.4728 7.0173 20.395 7.2011C20.3171 7.38491 20.2032 7.55121 20.0598 7.69012ZM7.31983 12.7001L14.1011 5.81104L17.9886 9.69847C17.458 10.21 16.9133 10.7336 16.3692 11.2567L16.3667 11.2592C16.0532 11.5605 15.74 11.8616 15.4298 12.1601L14.9034 12.6631L14.9034 12.6632C13.2963 14.1988 11.8322 15.5978 10.9298 16.5001C10.8896 16.5368 10.8421 16.5647 10.7904 16.5819C10.7387 16.5991 10.684 16.6053 10.6298 16.6001L7.70983 16.3401C7.62195 16.3332 7.5394 16.2952 7.47707 16.2329C7.41474 16.1705 7.37671 16.088 7.36983 16.0001L7.10983 13.1101C7.10383 13.055 7.11064 12.9993 7.12972 12.9472C7.1488 12.8952 7.17964 12.8483 7.21983 12.8101L7.31983 12.7001ZM2.72998 22.0801H18.84C19.0389 22.0801 19.2297 22.0011 19.3703 21.8604C19.511 21.7198 19.59 21.529 19.59 21.3301C19.59 21.1312 19.511 20.9404 19.3703 20.7997C19.2297 20.6591 19.0389 20.5801 18.84 20.5801H2.72998C2.53107 20.5801 2.3403 20.6591 2.19965 20.7997C2.059 20.9404 1.97998 21.1312 1.97998 21.3301C1.97998 21.529 2.059 21.7198 2.19965 21.8604C2.3403 22.0011 2.53107 22.0801 2.72998 22.0801Z" fill="black"/>
</svg>
