<svg width="24" height="24" viewBox="0 0 24 24" fill="none" xmlns="http://www.w3.org/2000/svg">
<path d="M18.8403 20.5804C19.0391 20.5804 19.23 20.6595 19.3706 20.8001C19.5111 20.9407 19.5903 21.1316 19.5903 21.3304C19.5903 21.5292 19.5112 21.72 19.3706 21.8606C19.23 22.0012 19.0391 22.0803 18.8403 22.0804H2.72998C2.53113 22.0804 2.34035 22.0012 2.19971 21.8606C2.05911 21.72 1.98005 21.5292 1.97998 21.3304C1.97998 21.1315 2.05913 20.9407 2.19971 20.8001C2.34036 20.6594 2.53107 20.5804 2.72998 20.5804H18.8403Z" fill="#282828"/>
<path fill-rule="evenodd" clip-rule="evenodd" d="M17.1899 1.84012C17.5853 1.83916 17.9769 1.91672 18.3423 2.06766C18.7078 2.21867 19.0403 2.44019 19.3198 2.72L21.1196 4.53055C21.4038 4.80976 21.6296 5.14266 21.7837 5.51004C21.9378 5.87744 22.0171 6.2718 22.0171 6.67019C22.0171 7.06861 21.9378 7.46294 21.7837 7.83035C21.6296 8.19775 21.4038 8.53062 21.1196 8.80984C20.666 9.25019 20.1768 9.71962 19.6694 10.2083C19.653 10.2286 19.6392 10.2511 19.6206 10.2698C19.5913 10.2995 19.5576 10.3247 19.5239 10.3489C18.5402 11.2958 17.4899 12.3054 16.4702 13.2805C14.6702 15.0005 12.9995 16.6099 11.9995 17.5999C11.6434 17.945 11.1653 18.1358 10.6694 18.1302H10.4995L7.57959 17.8802C7.13903 17.8418 6.72628 17.6489 6.41357 17.3362C6.10088 17.0235 5.90796 16.6108 5.86963 16.1702L5.61963 13.2503C5.59444 12.9783 5.62869 12.7039 5.72021 12.4466C5.81174 12.1893 5.95864 11.955 6.1499 11.76L6.24951 11.6604L15.0601 2.74051C15.3358 2.45431 15.6666 2.22625 16.0327 2.07156C16.3988 1.91693 16.7926 1.83837 17.1899 1.84012ZM7.31982 12.7005L7.22021 12.8098C7.18002 12.848 7.14847 12.8955 7.12939 12.9475C7.11041 12.9995 7.10388 13.0556 7.10986 13.1106L7.36963 16.0003C7.37653 16.0881 7.41481 16.1704 7.47705 16.2327C7.5393 16.2949 7.62172 16.3332 7.70947 16.3401L10.6294 16.5999C10.6836 16.6051 10.7389 16.5995 10.7905 16.5823C10.8422 16.5651 10.8899 16.537 10.9302 16.5003C11.9302 15.5003 13.6202 13.8904 15.4302 12.1604C16.2796 11.3431 17.1507 10.5045 17.9878 9.69754L14.1001 5.81082L7.31982 12.7005ZM17.1899 3.30008C16.9921 3.29988 16.7959 3.33994 16.6138 3.41726C16.4317 3.49459 16.2666 3.60784 16.1294 3.75027L15.1519 4.74148L19.064 8.65359C19.4079 8.32029 19.7435 7.99934 20.0601 7.68973C20.2032 7.55094 20.3172 7.38501 20.395 7.20144C20.4728 7.01771 20.5132 6.81991 20.5132 6.62039C20.5132 6.42084 20.4728 6.22309 20.395 6.03933C20.3172 5.85556 20.2034 5.68897 20.0601 5.55008L18.2603 3.74051C17.9744 3.46037 17.5902 3.30213 17.1899 3.30008Z" fill="#282828"/>
<path d="M1.25238 6.37169H1.25397C2.64127 6.56275 3.63651 6.85628 3.91429 7.15675C4.03651 7.28702 4.34921 7.79939 4.63651 9.72037C4.66032 9.89058 4.80317 10 5 10C5.19683 10 5.33968 9.88884 5.36349 9.71863C5.65238 7.79939 5.96508 7.28702 6.08571 7.15675C6.36349 6.85628 7.35873 6.56448 8.74603 6.37169C8.9 6.34911 9 6.20321 9 6C9 5.80026 8.89841 5.65089 8.74603 5.62831C7.35873 5.43552 6.36349 5.14199 6.08571 4.84325C5.96349 4.71298 5.65079 4.20061 5.36349 2.27964C5.33968 2.10942 5.19683 2 5 2C4.80317 2 4.66032 2.11116 4.63651 2.28137C4.34762 4.20061 4.03492 4.71298 3.91429 4.84325C3.63651 5.14373 2.64127 5.43552 1.25397 5.62831C1.10159 5.65089 1 5.80026 1 6C1 6.19974 1.10159 6.34911 1.25238 6.37169Z" fill="#282828"/>
<path d="M7.12619 3.18584H7.12698C7.82064 3.28137 8.31825 3.42814 8.45714 3.57838C8.51825 3.64351 8.6746 3.8997 8.81825 4.86018C8.83016 4.94529 8.90159 5 9 5C9.09841 5 9.16984 4.94442 9.18175 4.85931C9.32619 3.8997 9.48254 3.64351 9.54286 3.57838C9.68175 3.42814 10.1794 3.28224 10.873 3.18584C10.95 3.17456 11 3.10161 11 3C11 2.90013 10.9492 2.82545 10.873 2.81416C10.1794 2.71776 9.68175 2.57099 9.54286 2.42162C9.48175 2.35649 9.3254 2.1003 9.18175 1.13982C9.16984 1.05471 9.09841 1 9 1C8.90159 1 8.83016 1.05558 8.81825 1.14069C8.67381 2.1003 8.51746 2.35649 8.45714 2.42162C8.31825 2.57186 7.82064 2.71776 7.12698 2.81416C7.05079 2.82545 7 2.90013 7 3C7 3.09987 7.05079 3.17456 7.12619 3.18584Z" fill="#282828"/>
</svg>
