<svg xmlns="http://www.w3.org/2000/svg" width="24" height="24" fill="none" viewBox="0 0 24 24"><path fill="#282828" d="M18.84 20.58a.75.75 0 0 1 0 1.5H2.73a.75.75 0 0 1 0-1.5z"/><path fill="#282828" fill-rule="evenodd" d="M17.19 1.84a3 3 0 0 1 2.13.88l1.8 1.81a3 3 0 0 1 0 4.28c-.454.44-.943.91-1.45 1.398-.017.02-.03.043-.05.062a1 1 0 0 1-.096.079c-.984.947-2.034 1.956-3.054 2.932C14.67 15 13 16.61 12 17.6a1.88 1.88 0 0 1-1.33.53h-.17l-2.92-.25a1.88 1.88 0 0 1-1.71-1.71l-.25-2.92a1.88 1.88 0 0 1 .53-1.49l.1-.1 8.81-8.92a2.94 2.94 0 0 1 2.13-.9M7.32 12.7l-.1.11a.36.36 0 0 0-.11.3L7.37 16a.37.37 0 0 0 .34.34l2.92.26a.4.4 0 0 0 .3-.1c1-1 2.69-2.61 4.5-4.34l2.558-2.462L14.1 5.81zm9.87-9.4a1.47 1.47 0 0 0-1.06.45l-.978.991 3.912 3.913c.344-.334.68-.655.996-.964a1.49 1.49 0 0 0 0-2.14l-1.8-1.81a1.54 1.54 0 0 0-1.07-.44" clip-rule="evenodd"/><path fill="#282828" d="M1.252 6.372h.002c1.387.19 2.383.484 2.66.785.123.13.435.642.723 2.563.023.17.166.28.363.28s.34-.111.363-.281c.29-1.92.602-2.432.723-2.562.277-.3 1.273-.593 2.66-.785C8.9 6.349 9 6.203 9 6c0-.2-.102-.35-.254-.372-1.387-.192-2.383-.486-2.66-.785-.123-.13-.435-.642-.723-2.563C5.34 2.11 5.197 2 5 2s-.34.111-.363.281c-.29 1.92-.602 2.432-.723 2.562-.277.3-1.273.593-2.66.785C1.102 5.651 1 5.8 1 6s.102.35.252.372M7.126 3.186zc.694.095 1.191.242 1.33.392.061.066.218.322.361 1.282.012.085.084.14.182.14s.17-.056.182-.14c.144-.96.3-1.216.36-1.282.14-.15.637-.296 1.331-.392C10.95 3.175 11 3.102 11 3c0-.1-.05-.175-.127-.186-.694-.096-1.191-.243-1.33-.392-.061-.066-.218-.322-.361-1.282C9.17 1.055 9.098 1 9 1s-.17.056-.182.14c-.144.96-.3 1.216-.36 1.282-.14.15-.637.296-1.331.392C7.051 2.825 7 2.9 7 3s.05.175.126.186"/></svg>