<svg width="24" height="24" viewBox="0 0 24 24" fill="none" xmlns="http://www.w3.org/2000/svg">
<path d="M19 4.57007H5C4.20435 4.57007 3.44129 4.88614 2.87868 5.44875C2.31607 6.01136 2 6.77442 2 7.57007V16.4301C2 17.2257 2.31607 17.9888 2.87868 18.5514C3.44129 19.114 4.20435 19.4301 5 19.4301H19C19.7956 19.4301 20.5587 19.114 21.1213 18.5514C21.6839 17.9888 22 17.2257 22 16.4301V7.57007C22 6.77442 21.6839 6.01136 21.1213 5.44875C20.5587 4.88614 19.7956 4.57007 19 4.57007ZM5 6.07007H19C19.2206 6.07026 19.4383 6.11975 19.6373 6.21491C19.8362 6.31007 20.0114 6.4485 20.15 6.62007L15.25 11.6201C14.8271 12.0537 14.3216 12.3983 13.7635 12.6335C13.2053 12.8688 12.6057 12.99 12 12.99C11.3943 12.99 10.7947 12.8688 10.2365 12.6335C9.67837 12.3983 9.17294 12.0537 8.75 11.6201L3.85 6.62007C3.98953 6.44956 4.16491 6.31189 4.36367 6.21683C4.56243 6.12177 4.77969 6.07166 5 6.07007ZM19 17.9301H5C4.60218 17.9301 4.22064 17.772 3.93934 17.4907C3.65804 17.2094 3.5 16.8279 3.5 16.4301V8.43007L7.68 12.6901C8.24359 13.2624 8.91637 13.7158 9.65844 14.0232C10.4005 14.3307 11.1968 14.4861 12 14.4801V14.4801C12.8047 14.4835 13.6018 14.325 14.3439 14.014C15.0861 13.7031 15.7581 13.246 16.32 12.6701L20.5 8.41007V16.4101C20.5026 16.6087 20.4658 16.8059 20.3916 16.9902C20.3174 17.1745 20.2073 17.3423 20.0678 17.4837C19.9282 17.6251 19.762 17.7374 19.5787 17.814C19.3954 17.8906 19.1987 17.9301 19 17.9301V17.9301Z" fill="black"/>
</svg>
