<svg width="24" height="24" viewBox="0 0 24 24" fill="none" xmlns="http://www.w3.org/2000/svg">
<path d="M7.87158 9.1749C7.87158 9.4818 7.98917 9.77704 8.20016 9.9999C8.41682 10.2112 8.7075 10.3295 9.01016 10.3295C9.31283 10.3295 9.6035 10.2112 9.82016 9.9999C10.0312 9.77704 10.1487 9.4818 10.1487 9.1749C10.1487 8.868 10.0312 8.57277 9.82016 8.3499C9.6035 8.13856 9.31283 8.02026 9.01016 8.02026C8.7075 8.02026 8.41682 8.13856 8.20016 8.3499C7.98917 8.57277 7.87158 8.868 7.87158 9.1749Z" fill="#292929"/>
<path d="M13.8516 9.1749C13.8516 9.4818 13.9691 9.77704 14.1801 9.9999C14.3968 10.2112 14.6875 10.3295 14.9901 10.3295C15.2928 10.3295 15.5835 10.2112 15.8001 9.9999C16.0111 9.77704 16.1287 9.4818 16.1287 9.1749C16.1287 8.868 16.0111 8.57277 15.8001 8.3499C15.5835 8.13856 15.2928 8.02026 14.9901 8.02026C14.6875 8.02026 14.3968 8.13856 14.1801 8.3499C13.9691 8.57277 13.8516 8.868 13.8516 9.1749Z" fill="#292929"/>
<path d="M12.0269 12.7148C12.9866 12.7155 13.9247 13.0009 14.7221 13.5349C15.5196 14.069 16.1408 14.8276 16.5069 15.7148C16.5493 15.8063 16.5726 15.9055 16.5753 16.0064C16.5781 16.1072 16.5601 16.2075 16.5227 16.3012C16.4852 16.3948 16.429 16.4798 16.3575 16.5509C16.286 16.6221 16.2007 16.6779 16.1069 16.7148C16.0152 16.7558 15.9161 16.778 15.8157 16.78C15.7153 16.782 15.6155 16.7638 15.5222 16.7265C15.4289 16.6892 15.3441 16.6335 15.2727 16.5628C15.2014 16.4921 15.145 16.4078 15.1069 16.3148C14.8492 15.7042 14.4173 15.183 13.865 14.8166C13.3127 14.4502 12.6646 14.2547 12.0019 14.2547C11.3391 14.2547 10.691 14.4502 10.1387 14.8166C9.58645 15.183 9.15448 15.7042 8.89686 16.3148C8.85873 16.4078 8.80231 16.4921 8.73097 16.5628C8.65962 16.6335 8.5748 16.6892 8.48153 16.7265C8.38826 16.7638 8.28844 16.782 8.18801 16.78C8.08757 16.778 7.98856 16.7558 7.89686 16.7148C7.80207 16.6791 7.71576 16.624 7.64342 16.5531C7.57108 16.4822 7.51429 16.397 7.47667 16.3029C7.43904 16.2088 7.42141 16.108 7.42489 16.0067C7.42836 15.9055 7.45287 15.8061 7.49686 15.7148C7.86617 14.8197 8.49499 14.0556 9.30233 13.5209C10.1097 12.9863 11.0586 12.7055 12.0269 12.7148Z" fill="#292929"/>
<path fill-rule="evenodd" clip-rule="evenodd" d="M6.4443 3.6853C8.08879 2.58649 10.0222 2 12 2C13.3132 2 14.6136 2.25866 15.8268 2.7612C17.0401 3.26375 18.1425 4.00035 19.0711 4.92893C19.9997 5.85752 20.7363 6.95991 21.2388 8.17317C21.7413 9.38642 22 10.6868 22 12C22 13.9778 21.4135 15.9112 20.3147 17.5557C19.2159 19.2002 17.6541 20.4819 15.8268 21.2388C13.9996 21.9957 11.9889 22.1937 10.0491 21.8079C8.10929 21.422 6.32746 20.4696 4.92894 19.0711C3.53041 17.6725 2.578 15.8907 2.19215 13.9509C1.8063 12.0111 2.00433 10.0004 2.76121 8.17317C3.51809 6.3459 4.79981 4.78412 6.4443 3.6853ZM16.7224 4.93251C15.3245 3.99852 13.6811 3.5 12 3.5C9.74648 3.50265 7.58601 4.39903 5.99252 5.99252C4.39903 7.586 3.50265 9.74647 3.5 12C3.5 13.6811 3.99852 15.3245 4.93251 16.7223C5.8665 18.1202 7.19402 19.2096 8.74719 19.853C10.3004 20.4963 12.0094 20.6646 13.6583 20.3367C15.3071 20.0087 16.8217 19.1992 18.0104 18.0104C19.1992 16.8217 20.0087 15.3071 20.3367 13.6583C20.6647 12.0094 20.4963 10.3004 19.853 8.74719C19.2096 7.19402 18.1202 5.8665 16.7224 4.93251Z" fill="#292929"/>
</svg>
