<svg width="24" height="24" viewBox="0 0 24 24" fill="none" xmlns="http://www.w3.org/2000/svg">
<path fill-rule="evenodd" clip-rule="evenodd" d="M7.5 7.5C7.5 9.15685 8.84315 10.5 10.5 10.5C12.1569 10.5 13.5 9.15685 13.5 7.5C13.5 5.84315 12.1569 4.5 10.5 4.5C8.84315 4.5 7.5 5.84315 7.5 7.5ZM10.5 3C8.01472 3 6 5.01472 6 7.5C6 9.98528 8.01472 12 10.5 12C12.9853 12 15 9.98528 15 7.5C15 5.01472 12.9853 3 10.5 3ZM20.2664 17.8769C20.2712 17.9169 20.2712 17.9574 20.2664 17.9974L20.2465 18.0476L20.1769 18.1379C20.1271 18.1681 20.1271 18.2383 20.1271 18.2383L17.4708 21.2502C17.4025 21.3322 17.3172 21.398 17.221 21.4431C17.1247 21.4882 17.0198 21.5115 16.9137 21.5113C16.7341 21.5073 16.5615 21.4398 16.4262 21.3205C16.2792 21.1874 16.1896 21.0016 16.1765 20.8027C16.1635 20.6038 16.2281 20.4077 16.3566 20.2563L17.9086 18.4994H13.281C13.2707 18.4998 13.2604 18.5 13.25 18.5H12.75C12.3358 18.5 12 18.1642 12 17.75C12 17.3358 12.3358 17 12.75 17H13V16.9934H17.9086L16.3566 15.2365C16.2281 15.0851 16.1635 14.8889 16.1765 14.6901C16.1896 14.4912 16.2792 14.3053 16.4262 14.1723C16.5034 14.1074 16.5929 14.0591 16.6892 14.0304C16.7856 14.0017 16.8867 13.9932 16.9864 14.0054C17.0861 14.0176 17.1823 14.0503 17.269 14.1015C17.3558 14.1526 17.4312 14.2211 17.4907 14.3028L20.147 17.3147C20.1968 17.3448 20.1968 17.405 20.1968 17.405L20.2664 17.5054C20.2712 17.5488 20.2712 17.5926 20.2664 17.636V17.7564V17.8769ZM9.54545 14.5H11.8C12.2176 14.5 12.6248 14.5449 13.0169 14.6302L13.0196 14.6256L13.3661 14.7559C13.7503 14.9003 14.1791 14.7051 14.3238 14.32C14.4686 13.9348 14.2745 13.5055 13.8903 13.3611L13.4538 13.1971C13.4017 13.1775 13.3488 13.1643 13.2959 13.157L13.2956 13.1556C12.8131 13.0536 12.3128 13 11.8 13H9.54545C5.9305 13 3 15.9305 3 19.5455C3 20.9011 4.09894 22 5.45455 22H12V22H12.25C12.6642 22 13 21.6642 13 21.25C13 20.8357 12.6642 20.4999 12.25 20.4999H11.75L11.7412 20.5H5.45455C4.92736 20.5 4.5 20.0726 4.5 19.5455C4.5 16.7589 6.75893 14.5 9.54545 14.5Z" fill="black"/>
</svg>
