<svg width="24" height="24" viewBox="0 0 24 24" fill="none" xmlns="http://www.w3.org/2000/svg">
<path d="M21 21.75C21.4142 21.75 21.75 21.4142 21.75 21V14.25C21.75 13.8358 21.4142 13.5 21 13.5C20.5858 13.5 20.25 13.8358 20.25 14.25V19.1895L14.5303 13.4697C14.2374 13.1768 13.7626 13.1768 13.4697 13.4697C13.1768 13.7626 13.1768 14.2374 13.4697 14.5303L19.1895 20.25H14.25C13.8358 20.25 13.5 20.5858 13.5 21C13.5 21.4142 13.8358 21.75 14.25 21.75H21Z" fill="#282828"/>
<path d="M9.46973 10.5303C9.76262 10.8232 10.2374 10.8232 10.5303 10.5303C10.8232 10.2374 10.8232 9.76262 10.5303 9.46973L4.81055 3.75L9.75 3.75C10.1642 3.75 10.5 3.41421 10.5 3C10.5 2.58579 10.1642 2.25 9.75 2.25L3 2.25C2.58579 2.25 2.25 2.58579 2.25 3L2.25 9.75C2.25 10.1642 2.58579 10.5 3 10.5C3.41421 10.5 3.75 10.1642 3.75 9.75L3.75 4.81055L9.46973 10.5303Z" fill="#282828"/>
</svg>
