<svg width="24" height="24" viewBox="0 0 24 24" fill="none" xmlns="http://www.w3.org/2000/svg">
<path d="M20 20.75C20.4142 20.75 20.75 20.4142 20.75 20V13.25C20.75 12.8358 20.4142 12.5 20 12.5C19.5858 12.5 19.25 12.8358 19.25 13.25V18.1895L14.0605 13C13.7677 12.7071 13.2929 12.7071 13 13C12.7071 13.2929 12.7071 13.7677 13 14.0605L18.1895 19.25H13.25C12.8358 19.25 12.5 19.5858 12.5 20C12.5 20.4142 12.8358 20.75 13.25 20.75H20Z" fill="#282828"/>
<path d="M9.93945 11C10.2323 11.2929 10.7071 11.2929 11 11C11.2929 10.7071 11.2929 10.2323 11 9.93945L5.81055 4.75L10.75 4.75C11.1642 4.75 11.5 4.41421 11.5 4C11.5 3.58579 11.1642 3.25 10.75 3.25L4 3.25C3.58579 3.25 3.25 3.58579 3.25 4L3.25 10.75C3.25 11.1642 3.58579 11.5 4 11.5C4.41421 11.5 4.75 11.1642 4.75 10.75L4.75 5.81055L9.93945 11Z" fill="#282828"/>
</svg>
