<svg width="24" height="24" viewBox="0 0 24 24" fill="none" xmlns="http://www.w3.org/2000/svg">
<path d="M20.4697 21.5302C20.7626 21.8231 21.2373 21.8231 21.5302 21.5302C21.8231 21.2373 21.8231 20.7626 21.5302 20.4697L15.8105 14.7499H20.7499C21.1642 14.7499 21.4999 14.4142 21.4999 13.9999C21.4999 13.5857 21.1642 13.2499 20.7499 13.2499L13.9999 13.2499C13.5857 13.2499 13.2499 13.5857 13.2499 13.9999V20.7499C13.2499 21.1642 13.5857 21.4999 13.9999 21.4999C14.4142 21.4999 14.7499 21.1642 14.7499 20.7499V15.8105L20.4697 21.5302Z" fill="#282828"/>
<path d="M9.99994 10.7499C10.4142 10.7499 10.7499 10.4142 10.7499 9.99994L10.7499 3.24994C10.7499 2.83573 10.4142 2.49994 9.99994 2.49994C9.58573 2.49994 9.24994 2.83573 9.24994 3.24994L9.24994 8.1894L3.53022 2.46967C3.23732 2.17678 2.76256 2.17678 2.46967 2.46967C2.17678 2.76256 2.17678 3.23732 2.46967 3.53022L8.1894 9.24994L3.24994 9.24994C2.83573 9.24994 2.49994 9.58573 2.49994 9.99994C2.49994 10.4142 2.83573 10.7499 3.24994 10.7499L9.99994 10.7499Z" fill="#282828"/>
</svg>
