<svg width="24" height="24" viewBox="0 0 24 24" fill="none" xmlns="http://www.w3.org/2000/svg">
<path fill-rule="evenodd" clip-rule="evenodd" d="M5.75 22.26H18.51C19.0025 22.26 19.4901 22.163 19.9451 21.9745C20.4 21.7861 20.8134 21.5099 21.1616 21.1616C21.5099 20.8134 21.7861 20.4 21.9745 19.9451C22.163 19.4901 22.26 19.0025 22.26 18.51V13.44C22.26 13.2411 22.181 13.0503 22.0403 12.9097C21.8997 12.769 21.7089 12.69 21.51 12.69C21.3111 12.69 21.1203 12.769 20.9797 12.9097C20.839 13.0503 20.76 13.2411 20.76 13.44V18.51C20.76 19.1067 20.5229 19.679 20.101 20.101C19.679 20.5229 19.1067 20.76 18.51 20.76H5.75C5.15326 20.76 4.58097 20.5229 4.15901 20.101C3.73705 19.679 3.5 19.1067 3.5 18.51V5.75C3.5 5.15326 3.73705 4.58097 4.15901 4.15901C4.58097 3.73705 5.15326 3.5 5.75 3.5H10.13C10.3281 3.49741 10.5174 3.41756 10.6575 3.27747C10.7976 3.13737 10.8774 2.94811 10.88 2.75C10.8774 2.55189 10.7976 2.36263 10.6575 2.22253C10.5174 2.08244 10.3281 2.00259 10.13 2H5.75C4.75544 2 3.80161 2.39509 3.09835 3.09835C2.39509 3.80161 2 4.75544 2 5.75V18.51C2 19.5046 2.39509 20.4584 3.09835 21.1616C3.80161 21.8649 4.75544 22.26 5.75 22.26ZM22 2.77999C22.0057 2.82648 22.0057 2.87349 22 2.91999C22.0014 2.97019 21.9981 3.02041 21.99 3.06999V9.50999C21.99 9.7089 21.911 9.89967 21.7704 10.0403C21.6297 10.181 21.439 10.26 21.24 10.26C21.0411 10.26 20.8504 10.181 20.7097 10.0403C20.5691 9.89967 20.49 9.7089 20.49 9.50999V4.91999L14.75 10.66C14.6808 10.7301 14.5982 10.7857 14.5072 10.8235C14.4162 10.8612 14.3186 10.8805 14.22 10.88C14.1214 10.881 14.0236 10.8621 13.9325 10.8243C13.8414 10.7864 13.7589 10.7306 13.69 10.66C13.5496 10.5194 13.4707 10.3287 13.4707 10.13C13.4707 9.93124 13.5496 9.74061 13.69 9.59999L19.47 3.87999H14.84C14.6411 3.87999 14.4504 3.80097 14.3097 3.66032C14.1691 3.51967 14.09 3.3289 14.09 3.12999C14.09 2.93108 14.1691 2.74031 14.3097 2.59966C14.4504 2.45901 14.6411 2.37999 14.84 2.37999H21.24C21.2899 2.37529 21.3402 2.37529 21.39 2.37999H21.53L21.65 2.45999L21.84 2.53999C21.8692 2.5763 21.8928 2.61674 21.91 2.65999C21.9455 2.69561 21.9758 2.736 22 2.77999Z" fill="black"/>
</svg>
