<svg width="24" height="24" viewBox="0 0 24 24" fill="none" xmlns="http://www.w3.org/2000/svg">
<path d="M21.6901 7.71C21.5334 7.58848 21.335 7.53394 21.1383 7.5583C20.9415 7.58266 20.7624 7.68394 20.6401 7.84C20.6401 7.84 17.1501 12.28 12.0001 12.28C6.67009 12.28 3.39009 7.9 3.36009 7.86C3.23787 7.715 3.06527 7.62168 2.87702 7.59883C2.68877 7.57597 2.49886 7.62527 2.34549 7.73681C2.19213 7.84834 2.08672 8.01383 2.05046 8.19996C2.0142 8.3861 2.0498 8.57905 2.15009 8.74C3.12964 9.98459 4.31716 11.0503 5.66009 11.89L4.00009 13.54C3.92933 13.6089 3.87309 13.6914 3.8347 13.7824C3.7963 13.8734 3.77652 13.9712 3.77652 14.07C3.77652 14.1688 3.7963 14.2666 3.8347 14.3576C3.87309 14.4486 3.92933 14.531 4.00009 14.6C4.1406 14.7407 4.33124 14.8198 4.53009 14.82C4.72808 14.8157 4.91724 14.7372 5.06009 14.6L7.06009 12.6C8.38571 13.227 9.81706 13.6001 11.2801 13.7V15.7C11.2801 15.8989 11.3591 16.0897 11.4998 16.2303C11.6404 16.371 11.8312 16.45 12.0301 16.45C12.229 16.45 12.4198 16.371 12.5604 16.2303C12.7011 16.0897 12.7801 15.8989 12.7801 15.7V13.7C14.2349 13.5946 15.6567 13.2146 16.9701 12.58L18.9701 14.58C19.1129 14.7172 19.3021 14.7957 19.5001 14.8C19.6858 14.7975 19.8639 14.7263 20.0001 14.6C20.0708 14.531 20.1271 14.4486 20.1655 14.3576C20.2039 14.2666 20.2237 14.1688 20.2237 14.07C20.2237 13.9712 20.2039 13.8734 20.1655 13.7824C20.1271 13.6914 20.0708 13.6089 20.0001 13.54L18.3301 11.86C19.6619 11.0219 20.8504 9.97519 21.8501 8.76C21.9087 8.6806 21.951 8.59042 21.9746 8.49463C21.9983 8.39885 22.0028 8.29933 21.988 8.20179C21.9731 8.10425 21.9391 8.01061 21.888 7.92621C21.8369 7.84182 21.7696 7.76835 21.6901 7.71V7.71Z" fill="black"/>
</svg>
