<svg width="24" height="24" viewBox="0 0 24 24" fill="none" xmlns="http://www.w3.org/2000/svg">
<path d="M12 2C10.0222 2 8.08879 2.58649 6.4443 3.6853C4.79981 4.78412 3.51809 6.3459 2.76121 8.17317C2.00433 10.0004 1.8063 12.0111 2.19215 13.9509C2.578 15.8907 3.53041 17.6725 4.92894 19.0711C6.32746 20.4696 8.10929 21.422 10.0491 21.8079C11.9889 22.1937 13.9996 21.9957 15.8268 21.2388C17.6541 20.4819 19.2159 19.2002 20.3147 17.5557C21.4135 15.9112 22 13.9778 22 12C22 10.6868 21.7413 9.38642 21.2388 8.17317C20.7363 6.95991 19.9997 5.85752 19.0711 4.92893C18.1425 4.00035 17.0401 3.26375 15.8268 2.7612C14.6136 2.25866 13.3132 2 12 2V2ZM3.5 12C3.49792 10.3771 3.96104 8.78758 4.83449 7.41976C5.70795 6.05194 6.95515 4.96312 8.42835 4.28229C9.90156 3.60146 11.539 3.35714 13.1468 3.57828C14.7546 3.79941 16.2653 4.47673 17.5 5.53C17.4058 5.56397 17.3203 5.61865 17.25 5.69L5.77 17.17C5.66989 17.2747 5.60367 17.4071 5.58 17.55C4.24011 16.0113 3.50141 14.0403 3.5 12V12ZM12 20.5C9.95971 20.4986 7.98866 19.7599 6.45 18.42C6.5929 18.3963 6.72533 18.3301 6.83 18.23L18.31 6.75C18.379 6.68161 18.4334 6.59997 18.47 6.51C19.5245 7.74358 20.2028 9.25384 20.4246 10.8615C20.6463 12.4691 20.402 14.1066 19.7208 15.5796C19.0396 17.0525 17.9501 18.2991 16.5815 19.1713C15.2129 20.0435 13.6229 20.5046 12 20.5V20.5Z" fill="black"/>
</svg>
