<svg width="24" height="24" viewBox="0 0 24 24" fill="none" xmlns="http://www.w3.org/2000/svg">
<path d="M17.1201 21.6299C16.8034 21.6263 16.4932 21.5401 16.2201 21.3799L12.0001 18.8499L7.77007 21.3799C7.47842 21.5497 7.14388 21.6315 6.80678 21.6156C6.46967 21.5996 6.14437 21.4865 5.87007 21.2899C5.59309 21.0916 5.38081 20.816 5.25984 20.4975C5.13888 20.1791 5.1146 19.8321 5.19007 19.4999L6.29007 14.6899L2.58007 11.4399C2.33279 11.2143 2.15627 10.9217 2.07193 10.5978C1.98759 10.2738 1.99904 9.93239 2.10489 9.61482C2.21075 9.29725 2.40646 9.01722 2.66831 8.80867C2.93015 8.60012 3.24687 8.47201 3.58007 8.43988L8.47007 7.99988L10.4101 3.46988C10.5348 3.14938 10.7532 2.87393 11.0368 2.67947C11.3205 2.48502 11.6562 2.38062 12.0001 2.37988C12.3399 2.38064 12.6722 2.48034 12.9563 2.66679C13.2404 2.85325 13.4641 3.11841 13.6001 3.42988L15.5301 7.99988L20.4301 8.44988C20.7695 8.47854 21.0929 8.60676 21.3597 8.81845C21.6266 9.03014 21.825 9.31589 21.9301 9.63988C22.0337 9.96291 22.0406 10.3092 21.95 10.6361C21.8594 10.963 21.6752 11.2563 21.4201 11.4799L17.7101 14.7299L18.8101 19.5499C18.8855 19.8821 18.8613 20.2291 18.7403 20.5475C18.6193 20.866 18.4071 21.1416 18.1301 21.3399C17.83 21.5354 17.4782 21.6364 17.1201 21.6299ZM12.0001 3.87988C11.9549 3.87885 11.9106 3.89173 11.873 3.91677C11.8354 3.94182 11.8065 3.97782 11.7901 4.01988L9.67007 8.99988C9.61724 9.12495 9.53186 9.23357 9.42283 9.31447C9.3138 9.39536 9.18508 9.44558 9.05007 9.45988L3.70007 9.89988C3.65338 9.90444 3.60919 9.92316 3.57344 9.95355C3.53769 9.98394 3.51209 10.0245 3.50007 10.0699C3.486 10.1123 3.48517 10.1579 3.49767 10.2008C3.51017 10.2437 3.53543 10.2817 3.57007 10.3099L7.57007 13.8599C7.67308 13.9479 7.74993 14.0626 7.79226 14.1913C7.83458 14.32 7.84074 14.4579 7.81007 14.5899L6.66007 19.8399C6.64957 19.8843 6.65251 19.9308 6.66854 19.9736C6.68457 20.0163 6.71295 20.0533 6.75007 20.0799C6.78711 20.1091 6.83291 20.125 6.88007 20.125C6.92724 20.125 6.97303 20.1091 7.01007 20.0799L11.6201 17.3299C11.7348 17.2558 11.8685 17.2164 12.0051 17.2164C12.1416 17.2164 12.2753 17.2558 12.3901 17.3299L17.0001 20.0899C17.0378 20.1175 17.0833 20.1324 17.1301 20.1324C17.1768 20.1324 17.2224 20.1175 17.2601 20.0899C17.2972 20.0633 17.3256 20.0263 17.3416 19.9836C17.3576 19.9408 17.3606 19.8943 17.3501 19.8499L16.1601 14.5999C16.1294 14.4679 16.1356 14.33 16.1779 14.2013C16.2202 14.0726 16.2971 13.9579 16.4001 13.8699L20.4001 10.3199C20.4356 10.2901 20.4612 10.2503 20.4737 10.2057C20.4862 10.1611 20.4849 10.1138 20.4701 10.0699V10.0699C20.4552 10.027 20.4286 9.98929 20.3932 9.96097C20.3578 9.93266 20.3151 9.91494 20.2701 9.90988L15.0001 9.41988C14.8606 9.4181 14.7243 9.37796 14.6061 9.30388C14.488 9.2298 14.3925 9.12463 14.3301 8.99988L12.2201 3.99988C12.1989 3.96075 12.1669 3.92859 12.1279 3.90729C12.0888 3.88599 12.0444 3.87647 12.0001 3.87988Z" fill="black"/>
</svg>
