<svg width="24" height="24" viewBox="0 0 24 24" fill="none" xmlns="http://www.w3.org/2000/svg">
<path fill-rule="evenodd" clip-rule="evenodd" d="M16 20.5H6C5.17157 20.5 4.5 19.8284 4.5 19V5C4.5 4.17157 5.17157 3.5 6 3.5H11.25V6.5C11.25 8.01878 12.4812 9.25 14 9.25H17.5V11H8C7.44772 11 7 11.4477 7 12V18C7 18.5523 7.44772 19 8 19H17.5C17.5 19.8284 16.8284 20.5 16 20.5ZM19 9.24264V11H21C21.5523 11 22 11.4477 22 12V18C22 18.5523 21.5523 19 21 19H19C19 20.6569 17.6569 22 16 22H6C4.34315 22 3 20.6569 3 19V5C3 3.34315 4.34315 2 6 2H11.7574C12.553 2 13.3161 2.31607 13.8787 2.87868L18.1213 7.12132C18.6839 7.68393 19 8.44699 19 9.24264ZM16.6287 7.75L12.818 3.93934C12.7959 3.91727 12.7733 3.89596 12.75 3.87542V6.5C12.75 7.19036 13.3096 7.75 14 7.75H16.6287ZM14.3569 17.0539C14.2049 17.0539 14.0889 17.0119 14.0089 16.9279C13.9289 16.8439 13.8889 16.7259 13.8889 16.5739V13.1959C13.8889 13.0439 13.9289 12.9259 14.0089 12.8419C14.0889 12.7579 14.2049 12.7159 14.3569 12.7159C14.5049 12.7159 14.6189 12.7579 14.6989 12.8419C14.7789 12.9259 14.8189 13.0439 14.8189 13.1959V16.5739C14.8189 16.7259 14.7789 16.8439 14.6989 16.9279C14.6229 17.0119 14.5089 17.0539 14.3569 17.0539ZM10.4735 16.9999C10.3535 16.9999 10.2555 16.9759 10.1795 16.9279C10.1035 16.8759 10.0515 16.8079 10.0235 16.7239C9.99948 16.6359 9.99948 16.5399 10.0235 16.4359C10.0515 16.3319 10.1075 16.2279 10.1915 16.1239L12.1603 13.5439H10.4015C10.2695 13.5439 10.1675 13.5099 10.0955 13.4419C10.0275 13.3739 9.99348 13.2779 9.99348 13.1539C9.99348 13.0299 10.0275 12.9359 10.0955 12.8719C10.1675 12.8039 10.2695 12.7699 10.4015 12.7699H12.8135C12.9375 12.7699 13.0355 12.7959 13.1075 12.8479C13.1835 12.8959 13.2355 12.9619 13.2635 13.0459C13.2915 13.1299 13.2915 13.2259 13.2635 13.3339C13.2355 13.4379 13.1795 13.5419 13.0955 13.6459L11.1225 16.2259H12.9815C13.1135 16.2259 13.2135 16.2599 13.2815 16.3279C13.3535 16.3919 13.3895 16.4859 13.3895 16.6099C13.3895 16.7379 13.3535 16.8359 13.2815 16.9039C13.2135 16.9679 13.1135 16.9999 12.9815 16.9999H10.4735ZM15.7901 16.9279C15.8701 17.0119 15.9861 17.0539 16.1381 17.0539C16.2901 17.0539 16.4041 17.0119 16.4801 16.9279C16.5601 16.8439 16.6001 16.7259 16.6001 16.5739V15.4759H17.6021C18.0741 15.4759 18.4381 15.3559 18.6941 15.1159C18.9501 14.8759 19.0781 14.5439 19.0781 14.1199C19.0781 13.6959 18.9501 13.3659 18.6941 13.1299C18.4381 12.8899 18.0741 12.7699 17.6021 12.7699H16.1441C15.9921 12.7699 15.8741 12.8099 15.7901 12.8899C15.7101 12.9699 15.6701 13.0879 15.6701 13.2439V16.5739C15.6701 16.7259 15.7101 16.8439 15.7901 16.9279ZM17.4461 14.7559H16.6001V13.4959H17.4461C17.6861 13.4959 17.8681 13.5479 17.9921 13.6519C18.1201 13.7559 18.1841 13.9119 18.1841 14.1199C18.1841 14.3279 18.1201 14.4859 17.9921 14.5939C17.8681 14.7019 17.6861 14.7559 17.4461 14.7559Z" fill="#505F79"/>
</svg>
