<svg width="24" height="24" viewBox="0 0 24 24" fill="none" xmlns="http://www.w3.org/2000/svg">
<path fill-rule="evenodd" clip-rule="evenodd" d="M16 20.5H6C5.17157 20.5 4.5 19.8284 4.5 19V5C4.5 4.17157 5.17157 3.5 6 3.5H11.25V6.5C11.25 8.01878 12.4812 9.25 14 9.25H17.5V11H8C7.44772 11 7 11.4477 7 12V18C7 18.5523 7.44772 19 8 19H17.5C17.5 19.8284 16.8284 20.5 16 20.5ZM19 9.24264V11H21C21.5523 11 22 11.4477 22 12V18C22 18.5523 21.5523 19 21 19H19C19 20.6569 17.6569 22 16 22H6C4.34315 22 3 20.6569 3 19V5C3 3.34315 4.34315 2 6 2H11.7574C12.553 2 13.3161 2.31607 13.8787 2.87868L18.1213 7.12132C18.6839 7.68393 19 8.44699 19 9.24264ZM16.6287 7.75L12.818 3.93934C12.7959 3.91727 12.7733 3.89596 12.75 3.87542V6.5C12.75 7.19036 13.3096 7.75 14 7.75H16.6287ZM17.7355 17.024C17.9115 17.052 18.0835 17.066 18.2515 17.066C18.5155 17.066 18.7535 17.036 18.9655 16.976C19.1775 16.912 19.3595 16.822 19.5115 16.706C19.6635 16.59 19.7795 16.452 19.8595 16.292C19.9395 16.128 19.9795 15.946 19.9795 15.746C19.9795 15.442 19.8835 15.198 19.6915 15.014C19.4995 14.826 19.2075 14.69 18.8155 14.606L18.1375 14.462C17.9295 14.418 17.7835 14.36 17.6995 14.288C17.6155 14.216 17.5735 14.122 17.5735 14.006C17.5735 13.902 17.6035 13.81 17.6635 13.73C17.7275 13.65 17.8175 13.588 17.9335 13.544C18.0535 13.5 18.1975 13.478 18.3655 13.478C18.5215 13.478 18.6735 13.494 18.8215 13.526C18.9695 13.558 19.1095 13.608 19.2415 13.676C19.3495 13.728 19.4415 13.746 19.5175 13.73C19.5935 13.714 19.6555 13.678 19.7035 13.622C19.7555 13.566 19.7855 13.502 19.7935 13.43C19.8055 13.354 19.7955 13.28 19.7635 13.208C19.7355 13.132 19.6815 13.07 19.6015 13.022C19.4375 12.918 19.2475 12.84 19.0315 12.788C18.8155 12.732 18.5955 12.704 18.3715 12.704C18.1195 12.704 17.8875 12.736 17.6755 12.8C17.4675 12.864 17.2875 12.956 17.1355 13.076C16.9835 13.196 16.8655 13.338 16.7815 13.502C16.6975 13.666 16.6555 13.848 16.6555 14.048C16.6555 14.364 16.7475 14.62 16.9315 14.816C17.1195 15.008 17.4055 15.144 17.7895 15.224L18.4675 15.368C18.6875 15.416 18.8415 15.474 18.9295 15.542C19.0175 15.61 19.0615 15.702 19.0615 15.818C19.0615 15.954 18.9995 16.068 18.8755 16.16C18.7515 16.248 18.5435 16.292 18.2515 16.292C18.0595 16.292 17.8655 16.27 17.6695 16.226C17.4775 16.182 17.2995 16.114 17.1355 16.022C17.0395 15.974 16.9515 15.96 16.8715 15.98C16.7955 15.996 16.7315 16.036 16.6795 16.1C16.6315 16.16 16.6015 16.23 16.5895 16.31C16.5815 16.39 16.5955 16.47 16.6315 16.55C16.6675 16.626 16.7295 16.688 16.8175 16.736C16.9415 16.808 17.0815 16.868 17.2375 16.916C17.3975 16.964 17.5635 17 17.7355 17.024ZM9.53277 17.054C9.41277 17.054 9.31277 17.022 9.23277 16.958C9.15677 16.89 9.11277 16.808 9.10077 16.712C9.08877 16.612 9.12077 16.51 9.19677 16.406L10.3669 14.8546L9.25077 13.37C9.17477 13.262 9.14077 13.16 9.14877 13.064C9.16077 12.964 9.20477 12.882 9.28077 12.818C9.36077 12.75 9.45877 12.716 9.57477 12.716C9.67477 12.716 9.76077 12.74 9.83277 12.788C9.90877 12.836 9.98477 12.912 10.0608 13.016L10.9003 14.1761L11.7348 13.016C11.8108 12.908 11.8868 12.832 11.9628 12.788C12.0388 12.74 12.1268 12.716 12.2268 12.716C12.3468 12.716 12.4448 12.748 12.5208 12.812C12.6008 12.876 12.6448 12.958 12.6528 13.058C12.6648 13.154 12.6308 13.258 12.5508 13.37L11.4287 14.8556L12.5928 16.406C12.6728 16.51 12.7068 16.612 12.6948 16.712C12.6868 16.808 12.6428 16.89 12.5628 16.958C12.4868 17.022 12.3868 17.054 12.2628 17.054C12.1668 17.054 12.0808 17.03 12.0048 16.982C11.9328 16.934 11.8568 16.856 11.7768 16.748L10.8978 15.5368L10.0188 16.748C9.94277 16.856 9.86677 16.934 9.79077 16.982C9.71477 17.03 9.62877 17.054 9.53277 17.054ZM13.8502 17C13.6982 17 13.5802 16.958 13.4962 16.874C13.4162 16.79 13.3762 16.674 13.3762 16.526V13.232C13.3762 13.076 13.4162 12.958 13.4962 12.878C13.5762 12.798 13.6922 12.758 13.8442 12.758C13.9922 12.758 14.1062 12.798 14.1862 12.878C14.2662 12.958 14.3062 13.076 14.3062 13.232V16.214H15.9142C16.0422 16.214 16.1402 16.248 16.2082 16.316C16.2802 16.384 16.3162 16.48 16.3162 16.604C16.3162 16.732 16.2802 16.83 16.2082 16.898C16.1402 16.966 16.0422 17 15.9142 17H13.8502Z" fill="#505F79"/>
</svg>
