<svg width="24" height="24" viewBox="0 0 24 24" fill="none" xmlns="http://www.w3.org/2000/svg">
<path fill-rule="evenodd" clip-rule="evenodd" d="M4.68987 20.3558C4.92463 20.4523 5.17619 20.5013 5.43001 20.5H11.59L12.49 21.31L11.89 22H5.43001C4.97921 22.0013 4.53259 21.9135 4.11585 21.7416C3.69911 21.5697 3.32046 21.3171 3.00169 20.9983C2.68293 20.6796 2.43033 20.3009 2.25842 19.8842C2.08651 19.4674 1.99869 19.0208 2.00001 18.57V5.43001C1.99869 4.97921 2.08651 4.53259 2.25842 4.11585C2.43033 3.69911 2.68293 3.32046 3.00169 3.00169C3.32046 2.68293 3.69911 2.43033 4.11585 2.25842C4.53259 2.08651 4.97921 1.99869 5.43001 2.00001H11.14L11.86 3.50001H5.43001C5.17619 3.49869 4.92463 3.54771 4.68987 3.64423C4.45511 3.74075 4.24183 3.88286 4.06234 4.06234C3.88286 4.24183 3.74075 4.45511 3.64423 4.68987C3.54771 4.92463 3.49869 5.17619 3.50001 5.43001V15.66L5.65001 14C6.02492 13.6695 6.51 13.4913 7.00973 13.5005C7.50946 13.5098 7.98761 13.7058 8.35001 14.05L9.81001 15.25L10.81 14.25L11.9 15.3L11 16.18L11.58 16.69L10.48 17.69L7.35001 15.16C7.30693 15.1097 7.25428 15.0685 7.19514 15.0387C7.13599 15.009 7.07152 14.9912 7.00547 14.9866C6.93941 14.9819 6.8731 14.9905 6.81036 15.0116C6.74762 15.0328 6.68972 15.0663 6.64001 15.11L3.50001 17.57V18.57C3.49869 18.8238 3.54771 19.0754 3.64423 19.3102C3.74075 19.5449 3.88286 19.7582 4.06234 19.9377C4.24183 20.1172 4.45511 20.2593 4.68987 20.3558ZM18.5699 2.00001H12.8099L13.5299 3.50001H18.5299C18.787 3.49331 19.0429 3.53835 19.2823 3.63247C19.5217 3.72658 19.7398 3.86784 19.9236 4.04787C20.1073 4.22789 20.253 4.44301 20.352 4.68044C20.451 4.91787 20.5013 5.17277 20.4999 5.43001V14.33L17.0699 10.82C16.6979 10.4654 16.2038 10.2676 15.6899 10.2676C15.176 10.2676 14.6818 10.4654 14.3099 10.82L11.8799 13.2L12.9999 14.25L15.4099 11.88C15.4974 11.7963 15.6138 11.7495 15.7349 11.7495C15.856 11.7495 15.9724 11.7963 16.0599 11.88L20.5099 16.45V18.55C20.5112 18.8038 20.4622 19.0554 20.3657 19.2902C20.2691 19.5249 20.127 19.7382 19.9476 19.9177C19.7681 20.0972 19.5548 20.2393 19.32 20.3358C19.0853 20.4323 18.8337 20.4813 18.5799 20.48H13.8199L14.0399 20.67C14.1714 20.8 14.2503 20.974 14.2613 21.1585C14.2724 21.3431 14.2149 21.5252 14.0999 21.67L13.8799 21.93H18.5699C19.4684 21.9328 20.3318 21.5819 20.9737 20.9531C21.6155 20.3244 21.9841 19.4684 21.9999 18.57V5.43001C22.0012 4.97921 21.9134 4.53259 21.7415 4.11585C21.5696 3.69911 21.317 3.32046 20.9982 3.00169C20.6794 2.68293 20.3008 2.43033 19.884 2.25842C19.4673 2.08651 19.0207 1.99869 18.5699 2.00001ZM8.42005 11.83H8.35005C8.33297 11.83 8.31607 11.8267 8.3003 11.8201C8.28452 11.8136 8.27019 11.804 8.25812 11.792C8.24605 11.7799 8.23647 11.7656 8.22994 11.7498C8.22341 11.734 8.22005 11.7171 8.22005 11.7V11C8.21031 10.9923 8.1987 10.9873 8.1864 10.9856C8.1741 10.9838 8.16155 10.9853 8.15005 10.99C7.39247 11.0116 6.65184 10.7635 6.06005 10.29C5.58898 9.73258 5.34293 9.01937 5.37005 8.29004C5.31943 7.88866 5.37605 7.48105 5.53414 7.10866C5.69222 6.73628 5.94614 6.41242 6.27005 6.17004C6.80566 5.90102 7.40125 5.77364 8.00004 5.80004C8.39277 5.79693 8.78479 5.83379 9.17005 5.91004C9.49148 5.96132 9.79409 6.09519 10.0483 6.29852C10.3024 6.50186 10.4995 6.7677 10.62 7.07004C10.5513 7.18488 10.515 7.31621 10.515 7.45004C10.515 7.58387 10.5513 7.7152 10.62 7.83004L10.79 8.08004C10.834 8.75576 10.6624 9.428 10.3 10C10.0372 10.3467 9.74257 10.6681 9.42005 10.96C9.08005 11.26 8.75004 11.55 8.42005 11.83ZM11.7598 18.6201L12.7598 17.6201L13.2598 18.0001C13.3976 18.089 13.5025 18.2205 13.5584 18.3747C13.6144 18.5288 13.6182 18.6971 13.5694 18.8536C13.5207 19.0102 13.4219 19.1464 13.2883 19.2415C13.1547 19.3366 12.9937 19.3853 12.8298 19.3801C12.7183 19.3786 12.6088 19.3512 12.5098 19.3001L11.7598 18.6201Z" fill="black"/>
</svg>
