<svg width="24" height="24" viewBox="0 0 24 24" fill="none" xmlns="http://www.w3.org/2000/svg">
<path fill-rule="evenodd" clip-rule="evenodd" d="M15.55 3L19.45 7.26C19.9524 7.81275 20.2306 8.53304 20.23 9.28V19C20.23 19.7956 19.9139 20.5587 19.3513 21.1213C18.7887 21.6839 18.0257 22 17.23 22H6.77002C5.97437 22 5.21131 21.6839 4.6487 21.1213C4.08609 20.5587 3.77002 19.7956 3.77002 19V5C3.77002 4.20435 4.08609 3.44129 4.6487 2.87868C5.21131 2.31607 5.97437 2 6.77002 2H13.34C13.7577 2.00364 14.17 2.09447 14.5506 2.26667C14.9312 2.43887 15.2716 2.68865 15.55 3ZM15 7.26H17.45L14.43 3.99C14.325 3.87197 14.1997 3.77375 14.06 3.7V6.32C14.06 6.5693 14.1591 6.8084 14.3353 6.98468C14.5116 7.16096 14.7507 7.26 15 7.26ZM18.2907 20.0607C18.572 19.7794 18.73 19.3978 18.73 19L18.72 9.28C18.7178 9.10211 18.6839 8.92603 18.62 8.76H15C14.3546 8.75736 13.7366 8.49912 13.2811 8.04181C12.8257 7.58451 12.57 6.9654 12.57 6.32V3.5H6.77002C6.37219 3.5 5.99066 3.65804 5.70936 3.93934C5.42805 4.22064 5.27002 4.60218 5.27002 5V19C5.27002 19.3978 5.42805 19.7794 5.70936 20.0607C5.99066 20.342 6.37219 20.5 6.77002 20.5H17.23C17.6278 20.5 18.0094 20.342 18.2907 20.0607ZM12.5799 16.6099C12.2734 16.5392 11.9821 16.4139 11.7199 16.2399C11.6466 16.1826 11.5854 16.1112 11.5399 16.0299C11.4968 15.9466 11.4762 15.8536 11.4799 15.7599C11.4788 15.6174 11.5284 15.4792 11.6199 15.3699C11.6561 15.3184 11.704 15.2761 11.7596 15.2466C11.8152 15.2171 11.877 15.2011 11.9399 15.1999H12.1299C12.208 15.2305 12.2819 15.2708 12.3499 15.3199C12.5457 15.4257 12.754 15.5064 12.9699 15.5599C13.195 15.6189 13.4273 15.6459 13.6599 15.6399C13.894 15.6555 14.1281 15.6107 14.3399 15.5099C14.4115 15.4737 14.4712 15.4177 14.512 15.3486C14.5527 15.2794 14.5729 15.2001 14.5699 15.1199C14.566 15.0554 14.5444 14.9932 14.5073 14.9403C14.4702 14.8873 14.4192 14.8456 14.3599 14.8199C14.0959 14.6993 13.8167 14.6152 13.5299 14.5699C13.1238 14.4996 12.7299 14.3716 12.3599 14.1899C12.1146 14.0772 11.9064 13.8968 11.7599 13.6699C11.642 13.4486 11.5834 13.2006 11.5899 12.9499C11.5892 12.633 11.6909 12.3243 11.8799 12.0699C12.0862 11.7994 12.3582 11.586 12.6699 11.4499C13.032 11.303 13.4192 11.2283 13.8099 11.2299C14.1472 11.2235 14.4837 11.2639 14.8099 11.3499C15.0935 11.4293 15.3609 11.5579 15.5999 11.7299C15.6765 11.7866 15.7411 11.858 15.7899 11.9399C15.833 12.0232 15.8537 12.1162 15.8499 12.2099C15.8548 12.3513 15.8086 12.4897 15.7199 12.5999C15.6832 12.6509 15.6352 12.6927 15.5797 12.7222C15.5242 12.7517 15.4627 12.768 15.3999 12.7699H15.2199C15.1384 12.7401 15.0611 12.6997 14.9899 12.6499L14.7699 12.5399C14.6396 12.4661 14.4975 12.4153 14.3499 12.3899C14.1797 12.3485 14.0051 12.3283 13.8299 12.3299C13.6133 12.321 13.3985 12.3729 13.2099 12.4799C13.1412 12.5196 13.0839 12.5763 13.0436 12.6446C13.0033 12.713 12.9814 12.7906 12.9799 12.8699C12.9791 12.9535 13.0074 13.0349 13.0599 13.0999C13.1506 13.1794 13.2559 13.2406 13.3699 13.2799C13.5912 13.3588 13.8186 13.419 14.0499 13.4599C14.4458 13.5328 14.8295 13.6607 15.1899 13.8399C15.4326 13.9528 15.6374 14.1334 15.7799 14.3599C15.9034 14.5721 15.9657 14.8144 15.9599 15.0599C15.9608 15.3753 15.8629 15.683 15.6799 15.9399C15.4748 16.2044 15.2018 16.4083 14.8899 16.5299C14.5178 16.6772 14.12 16.7486 13.7199 16.7399C13.3362 16.7412 12.9536 16.6976 12.5799 16.6099ZM8.06002 16.16C8.05178 16.015 8.09816 15.8723 8.19002 15.76C8.30741 15.6692 8.45162 15.6199 8.60002 15.62H8.86002C8.9247 15.6252 8.98966 15.6142 9.04903 15.588C9.1084 15.5619 9.1603 15.5213 9.20002 15.47C9.28526 15.3623 9.32796 15.227 9.32002 15.09V12C9.31759 11.9098 9.33315 11.82 9.36577 11.7359C9.39839 11.6517 9.44742 11.5749 9.51002 11.51C9.57888 11.4441 9.66063 11.3932 9.75013 11.3605C9.83962 11.3278 9.93492 11.314 10.03 11.32C10.1219 11.3162 10.2135 11.3311 10.2995 11.3637C10.3854 11.3964 10.4638 11.4461 10.53 11.51C10.5946 11.5735 10.6449 11.6501 10.6776 11.7345C10.7104 11.819 10.7248 11.9095 10.72 12V15.08C10.7456 15.5087 10.6061 15.9309 10.33 16.26C10.0091 16.5647 9.58256 16.7332 9.14002 16.7299H8.90002C8.34002 16.74 8.06002 16.5499 8.06002 16.16Z" fill="black"/>
</svg>
