<svg width="24" height="24" viewBox="0 0 24 24" fill="none" xmlns="http://www.w3.org/2000/svg">
<path fill-rule="evenodd" clip-rule="evenodd" d="M15.55 3L19.45 7.26C19.9524 7.81275 20.2306 8.53304 20.23 9.28V19C20.23 19.7956 19.9139 20.5587 19.3513 21.1213C18.7887 21.6839 18.0257 22 17.23 22H6.77002C5.97437 22 5.21131 21.6839 4.6487 21.1213C4.08609 20.5587 3.77002 19.7956 3.77002 19V5C3.77002 4.20435 4.08609 3.44129 4.6487 2.87868C5.21131 2.31607 5.97437 2 6.77002 2H13.34C13.7577 2.00364 14.17 2.09447 14.5506 2.26667C14.9312 2.43887 15.2716 2.68865 15.55 3ZM15 7.26H17.45L14.43 3.99C14.325 3.87197 14.1997 3.77375 14.06 3.7V6.32C14.06 6.5693 14.1591 6.8084 14.3353 6.98468C14.5116 7.16096 14.7507 7.26 15 7.26ZM18.2907 20.0607C18.572 19.7794 18.73 19.3978 18.73 19L18.72 9.28C18.7178 9.10211 18.6839 8.92603 18.62 8.76H15C14.3546 8.75736 13.7366 8.49912 13.2811 8.04181C12.8257 7.58451 12.57 6.9654 12.57 6.32V3.5H6.77002C6.37219 3.5 5.99066 3.65804 5.70936 3.93934C5.42805 4.22064 5.27002 4.60218 5.27002 5V19C5.27002 19.3978 5.42805 19.7794 5.70936 20.0607C5.99066 20.342 6.37219 20.5 6.77002 20.5H17.23C17.6278 20.5 18.0094 20.342 18.2907 20.0607ZM8.3501 10.3899H15.6501C15.9153 10.3899 16.1697 10.4952 16.3572 10.6828C16.5447 10.8703 16.6501 11.1247 16.6501 11.3899V15.2899C16.6501 15.5551 16.5447 15.8095 16.3572 15.997C16.1697 16.1845 15.9153 16.2899 15.6501 16.2899H12.6501V16.9999H13.4401C13.6125 16.9999 13.7778 17.0684 13.8997 17.1903C14.0216 17.3122 14.0901 17.4775 14.0901 17.6499C14.0901 17.8223 14.0216 17.9876 13.8997 18.1095C13.7778 18.2314 13.6125 18.2999 13.4401 18.2999H10.5601C10.3877 18.2999 10.2224 18.2314 10.1005 18.1095C9.97858 17.9876 9.9101 17.8223 9.9101 17.6499C9.9101 17.4775 9.97858 17.3122 10.1005 17.1903C10.2224 17.0684 10.3877 16.9999 10.5601 16.9999H11.3501V16.2499H8.3501C8.08488 16.2499 7.83053 16.1445 7.64299 15.957C7.45545 15.7695 7.3501 15.5151 7.3501 15.2499V11.3899C7.3501 11.1247 7.45545 10.8703 7.64299 10.6828C7.83053 10.4952 8.08488 10.3899 8.3501 10.3899ZM8.6501 14.9999H15.3501V11.6899H8.6501V14.9999Z" fill="black"/>
</svg>
