  <svg width="24" height="24" viewBox="0 0 24 24" fill="none" xmlns="http://www.w3.org/2000/svg">
    <path fill-rule="evenodd" clip-rule="evenodd"
      d="M15.5 12.75C15.9142 12.75 16.25 13.0858 16.25 13.5C16.25 13.9142 15.9142 14.25 15.5 14.25H12.5C12.0858 14.25 11.75 13.9142 11.75 13.5C11.75 13.0858 12.0858 12.75 12.5 12.75H15.5Z M15.5 10.25C15.9142 10.25 16.25 10.5858 16.25 11C16.25 11.4142 15.9142 11.75 15.5 11.75H8.5C8.08579 11.75 7.75 11.4142 7.75 11C7.75 10.5858 8.08579 10.25 8.5 10.25H15.5Z M15.5 7.75C15.9142 7.75 16.25 8.08579 16.25 8.5C16.25 8.91421 15.9142 9.25 15.5 9.25H8.5C8.08579 9.25 7.75 8.91421 7.75 8.5C7.75 8.08579 8.08579 7.75 8.5 7.75H15.5Z M17 4C18.6568 4 20 5.34314 20 7V17C20 18.6568 18.6568 20 17 20H11.6572C10.5964 20 9.57826 19.5781 8.82812 18.8281L5.17188 15.1719C4.42172 14.4217 4 13.4036 4 12.3428V7C4 5.34315 5.34315 4 7 4H17ZM7 5.5C6.58579 5.5 6.2109 5.66801 5.93945 5.93945C5.87159 6.00732 5.80977 6.08133 5.75586 6.16113C5.59413 6.40053 5.5 6.68934 5.5 7V11.5C5.5 12.3283 6.17154 12.9999 7 13H8.5C9.88071 13 11 14.1193 11 15.5V17C11 17.8284 11.6716 18.5 12.5 18.5H17C17.8284 18.5 18.5 17.8284 18.5 17V7C18.5 6.17158 17.8284 5.5 17 5.5H7ZM9.52734 17.4062C9.50936 17.2734 9.5 17.1378 9.5 17V15.5C9.5 14.9477 9.05229 14.5 8.5 14.5H7C6.86184 14.5 6.72598 14.4898 6.59277 14.4717L9.52734 17.4062Z"
      fill="#282828" />
  </svg>
