<svg width="24" height="24" viewBox="0 0 24 24" fill="none" xmlns="http://www.w3.org/2000/svg">
<path fill-rule="evenodd" clip-rule="evenodd" d="M16 20.5H6C5.17157 20.5 4.5 19.8284 4.5 19V5C4.5 4.17157 5.17157 3.5 6 3.5H11.25V6.5C11.25 8.01878 12.4812 9.25 14 9.25H17.5V11H8C7.44772 11 7 11.4477 7 12V18C7 18.5523 7.44772 19 8 19H17.5C17.5 19.8284 16.8284 20.5 16 20.5ZM19 9.24264V11H21C21.5523 11 22 11.4477 22 12V18C22 18.5523 21.5523 19 21 19H19C19 20.6569 17.6569 22 16 22H6C4.34315 22 3 20.6569 3 19V5C3 3.34315 4.34315 2 6 2H11.7574C12.553 2 13.3161 2.31607 13.8787 2.87868L18.1213 7.12132C18.6839 7.68393 19 8.44699 19 9.24264ZM16.6287 7.75L12.818 3.93934C12.7959 3.91727 12.7733 3.89596 12.75 3.87542V6.5C12.75 7.19036 13.3096 7.75 14 7.75H16.6287ZM10.9165 17.066C10.4605 17.066 10.0705 16.976 9.74646 16.796C9.42246 16.616 9.17246 16.364 8.99646 16.04C8.82446 15.712 8.73846 15.326 8.73846 14.882C8.73846 14.55 8.78646 14.252 8.88246 13.988C8.98246 13.72 9.12646 13.492 9.31446 13.304C9.50246 13.112 9.73046 12.964 9.99846 12.86C10.2705 12.756 10.5765 12.704 10.9165 12.704C11.1165 12.704 11.3185 12.73 11.5225 12.782C11.7305 12.83 11.9105 12.9 12.0625 12.992C12.1625 13.048 12.2305 13.118 12.2665 13.202C12.3025 13.286 12.3125 13.37 12.2965 13.454C12.2845 13.538 12.2505 13.61 12.1945 13.67C12.1425 13.73 12.0765 13.768 11.9965 13.784C11.9165 13.8 11.8265 13.782 11.7265 13.73C11.6065 13.658 11.4805 13.606 11.3485 13.574C11.2165 13.542 11.0825 13.526 10.9465 13.526C10.6785 13.526 10.4525 13.58 10.2685 13.688C10.0885 13.792 9.95246 13.944 9.86046 14.144C9.76846 14.344 9.72246 14.59 9.72246 14.882C9.72246 15.17 9.76846 15.416 9.86046 15.62C9.95246 15.824 10.0885 15.98 10.2685 16.088C10.4525 16.192 10.6785 16.244 10.9465 16.244C11.0745 16.244 11.2045 16.228 11.3365 16.196C11.4725 16.164 11.6025 16.114 11.7265 16.046C11.8305 15.994 11.9225 15.976 12.0025 15.992C12.0865 16.004 12.1545 16.04 12.2065 16.1C12.2625 16.156 12.2965 16.224 12.3085 16.304C12.3245 16.384 12.3165 16.464 12.2845 16.544C12.2525 16.624 12.1925 16.692 12.1045 16.748C11.9565 16.848 11.7745 16.926 11.5585 16.982C11.3425 17.038 11.1285 17.066 10.9165 17.066ZM14.3784 17.066C14.2104 17.066 14.0384 17.052 13.8624 17.024C13.6904 17 13.5244 16.964 13.3644 16.916C13.2084 16.868 13.0684 16.808 12.9444 16.736C12.8564 16.688 12.7944 16.626 12.7584 16.55C12.7224 16.47 12.7084 16.39 12.7164 16.31C12.7284 16.23 12.7584 16.16 12.8064 16.1C12.8584 16.036 12.9224 15.996 12.9984 15.98C13.0784 15.96 13.1664 15.974 13.2624 16.022C13.4264 16.114 13.6044 16.182 13.7964 16.226C13.9924 16.27 14.1864 16.292 14.3784 16.292C14.6704 16.292 14.8784 16.248 15.0024 16.16C15.1264 16.068 15.1884 15.954 15.1884 15.818C15.1884 15.702 15.1444 15.61 15.0564 15.542C14.9684 15.474 14.8144 15.416 14.5944 15.368L13.9164 15.224C13.5324 15.144 13.2464 15.008 13.0584 14.816C12.8744 14.62 12.7824 14.364 12.7824 14.048C12.7824 13.848 12.8244 13.666 12.9084 13.502C12.9924 13.338 13.1104 13.196 13.2624 13.076C13.4144 12.956 13.5944 12.864 13.8024 12.8C14.0144 12.736 14.2464 12.704 14.4984 12.704C14.7224 12.704 14.9424 12.732 15.1584 12.788C15.3744 12.84 15.5644 12.918 15.7284 13.022C15.8084 13.07 15.8624 13.132 15.8904 13.208C15.9224 13.28 15.9324 13.354 15.9204 13.43C15.9124 13.502 15.8824 13.566 15.8304 13.622C15.7824 13.678 15.7204 13.714 15.6444 13.73C15.5684 13.746 15.4764 13.728 15.3684 13.676C15.2364 13.608 15.0964 13.558 14.9484 13.526C14.8004 13.494 14.6484 13.478 14.4924 13.478C14.3244 13.478 14.1804 13.5 14.0604 13.544C13.9444 13.588 13.8544 13.65 13.7904 13.73C13.7304 13.81 13.7004 13.902 13.7004 14.006C13.7004 14.122 13.7424 14.216 13.8264 14.288C13.9104 14.36 14.0564 14.418 14.2644 14.462L14.9424 14.606C15.3344 14.69 15.6264 14.826 15.8184 15.014C16.0104 15.198 16.1064 15.442 16.1064 15.746C16.1064 15.946 16.0664 16.128 15.9864 16.292C15.9064 16.452 15.7904 16.59 15.6384 16.706C15.4864 16.822 15.3044 16.912 15.0924 16.976C14.8804 17.036 14.6424 17.066 14.3784 17.066ZM18.0681 16.97C18.1521 17.026 18.2581 17.054 18.3861 17.054C18.5181 17.054 18.6221 17.026 18.6981 16.97C18.7781 16.91 18.8461 16.82 18.9021 16.7L20.4141 13.34C20.4661 13.22 20.4821 13.114 20.4621 13.022C20.4461 12.926 20.4021 12.852 20.3301 12.8C20.2621 12.744 20.1741 12.716 20.0661 12.716C19.9381 12.716 19.8381 12.746 19.7661 12.806C19.6941 12.866 19.6321 12.956 19.5801 13.076L18.404 15.8008L17.2281 13.082C17.1801 12.962 17.1201 12.872 17.0481 12.812C16.9761 12.748 16.8721 12.716 16.7361 12.716C16.6281 12.716 16.5361 12.744 16.4601 12.8C16.3841 12.852 16.3341 12.926 16.3101 13.022C16.2861 13.114 16.3021 13.22 16.3581 13.34L17.8701 16.7C17.9221 16.82 17.9881 16.91 18.0681 16.97Z" fill="#505F79"/>
</svg>
