<svg width="24" height="24" viewBox="0 0 24 24" fill="none" xmlns="http://www.w3.org/2000/svg">
<path fill-rule="evenodd" clip-rule="evenodd" d="M16 20.5H6C5.17157 20.5 4.5 19.8284 4.5 19V5C4.5 4.17157 5.17157 3.5 6 3.5H11.25V6.5C11.25 8.01878 12.4812 9.25 14 9.25H17.5V11H8C7.44772 11 7 11.4477 7 12V18C7 18.5523 7.44772 19 8 19H17.5C17.5 19.8284 16.8284 20.5 16 20.5ZM19 9.24264V11H21C21.5523 11 22 11.4477 22 12V18C22 18.5523 21.5523 19 21 19H19C19 20.6569 17.6569 22 16 22H6C4.34315 22 3 20.6569 3 19V5C3 3.34315 4.34315 2 6 2H11.7574C12.553 2 13.3161 2.31607 13.8787 2.87868L18.1213 7.12132C18.6839 7.68393 19 8.44699 19 9.24264ZM16.6287 7.75L12.818 3.93934C12.7959 3.91727 12.7733 3.89596 12.75 3.87542V6.5C12.75 7.19036 13.3096 7.75 14 7.75H16.6287ZM9.36763 17.054C9.21563 17.054 9.09963 17.012 9.01963 16.928C8.93963 16.844 8.89963 16.726 8.89963 16.574V13.244C8.89963 13.088 8.93963 12.97 9.01963 12.89C9.10363 12.81 9.22163 12.77 9.37363 12.77H10.8316C11.3036 12.77 11.6676 12.89 11.9236 13.13C12.1796 13.366 12.3076 13.696 12.3076 14.12C12.3076 14.544 12.1796 14.876 11.9236 15.116C11.6676 15.356 11.3036 15.476 10.8316 15.476H9.82963V16.574C9.82963 16.726 9.78963 16.844 9.70963 16.928C9.63363 17.012 9.51963 17.054 9.36763 17.054ZM9.82963 14.756H10.6756C10.9156 14.756 11.0976 14.702 11.2216 14.594C11.3496 14.486 11.4136 14.328 11.4136 14.12C11.4136 13.912 11.3496 13.756 11.2216 13.652C11.0976 13.548 10.9156 13.496 10.6756 13.496H9.82963V14.756ZM13.37 17C13.214 17 13.094 16.958 13.01 16.874C12.926 16.79 12.884 16.67 12.884 16.514V13.256C12.884 13.1 12.926 12.98 13.01 12.896C13.094 12.812 13.214 12.77 13.37 12.77H14.54C15.264 12.77 15.822 12.954 16.214 13.322C16.61 13.686 16.808 14.206 16.808 14.882C16.808 15.222 16.756 15.524 16.652 15.788C16.552 16.048 16.406 16.268 16.214 16.448C16.022 16.628 15.786 16.766 15.506 16.862C15.226 16.954 14.904 17 14.54 17H13.37ZM13.814 16.238H14.486C14.714 16.238 14.912 16.21 15.08 16.154C15.248 16.098 15.388 16.014 15.5 15.902C15.612 15.79 15.696 15.65 15.752 15.482C15.808 15.31 15.836 15.11 15.836 14.882C15.836 14.426 15.722 14.088 15.494 13.868C15.27 13.644 14.934 13.532 14.486 13.532H13.814V16.238ZM17.6505 16.928C17.7345 17.012 17.8525 17.054 18.0045 17.054C18.3085 17.054 18.4605 16.89 18.4605 16.562V15.254H19.9365C20.0565 15.254 20.1485 15.222 20.2125 15.158C20.2765 15.094 20.3085 15.004 20.3085 14.888C20.3085 14.772 20.2765 14.684 20.2125 14.624C20.1485 14.56 20.0565 14.528 19.9365 14.528H18.4605V13.496H20.0685C20.1885 13.496 20.2785 13.466 20.3385 13.406C20.4025 13.342 20.4345 13.25 20.4345 13.13C20.4345 13.014 20.4025 12.926 20.3385 12.866C20.2785 12.802 20.1885 12.77 20.0685 12.77H18.0165C17.8605 12.77 17.7405 12.812 17.6565 12.896C17.5725 12.98 17.5305 13.1 17.5305 13.256V16.562C17.5305 16.722 17.5705 16.844 17.6505 16.928Z" fill="#505F79"/>
</svg>
