<svg width="24" height="24" viewBox="0 0 24 24" fill="none" xmlns="http://www.w3.org/2000/svg">
<path fill-rule="evenodd" clip-rule="evenodd" d="M16 20.5H6C5.17157 20.5 4.5 19.8284 4.5 19V5C4.5 4.17157 5.17157 3.5 6 3.5H11.25V6.5C11.25 8.01878 12.4812 9.25 14 9.25H17.5V11H8C7.44772 11 7 11.4477 7 12V18C7 18.5523 7.44772 19 8 19H17.5C17.5 19.8284 16.8284 20.5 16 20.5ZM19 9.24264V11H21C21.5523 11 22 11.4477 22 12V18C22 18.5523 21.5523 19 21 19H19C19 20.6569 17.6569 22 16 22H6C4.34315 22 3 20.6569 3 19V5C3 3.34315 4.34315 2 6 2H11.7574C12.553 2 13.3161 2.31607 13.8787 2.87868L18.1213 7.12132C18.6839 7.68393 19 8.44699 19 9.24264ZM16.6287 7.75L12.818 3.93934C12.7959 3.91727 12.7733 3.89596 12.75 3.87542V6.5C12.75 7.19036 13.3096 7.75 14 7.75H16.6287ZM14.7728 17.066C14.3568 17.066 13.9908 16.976 13.6748 16.796C13.3628 16.612 13.1188 16.356 12.9428 16.028C12.7708 15.7 12.6848 15.318 12.6848 14.882C12.6848 14.55 12.7328 14.252 12.8288 13.988C12.9288 13.72 13.0708 13.492 13.2548 13.304C13.4388 13.112 13.6588 12.964 13.9148 12.86C14.1748 12.756 14.4608 12.704 14.7728 12.704C15.1968 12.704 15.5648 12.794 15.8768 12.974C16.1888 13.154 16.4308 13.408 16.6028 13.736C16.7788 14.06 16.8668 14.44 16.8668 14.876C16.8668 15.208 16.8168 15.508 16.7168 15.776C16.6168 16.044 16.4748 16.274 16.2908 16.466C16.1068 16.658 15.8868 16.806 15.6308 16.91C15.3748 17.014 15.0888 17.066 14.7728 17.066ZM14.7728 16.274C15.0088 16.274 15.2088 16.22 15.3728 16.112C15.5408 16 15.6688 15.84 15.7568 15.632C15.8488 15.42 15.8948 15.17 15.8948 14.882C15.8948 14.442 15.7968 14.102 15.6008 13.862C15.4048 13.618 15.1288 13.496 14.7728 13.496C14.5408 13.496 14.3408 13.55 14.1728 13.658C14.0048 13.766 13.8768 13.924 13.7888 14.132C13.7008 14.34 13.6568 14.59 13.6568 14.882C13.6568 15.318 13.7548 15.66 13.9508 15.908C14.1468 16.152 14.4208 16.274 14.7728 16.274ZM8.65028 17C8.49428 17 8.37428 16.958 8.29028 16.874C8.20628 16.79 8.16428 16.67 8.16428 16.514V13.256C8.16428 13.1 8.20628 12.98 8.29028 12.896C8.37428 12.812 8.49428 12.77 8.65028 12.77H9.82028C10.5443 12.77 11.1023 12.954 11.4943 13.322C11.8903 13.686 12.0883 14.206 12.0883 14.882C12.0883 15.222 12.0363 15.524 11.9323 15.788C11.8323 16.048 11.6863 16.268 11.4943 16.448C11.3023 16.628 11.0663 16.766 10.7863 16.862C10.5063 16.954 10.1843 17 9.82028 17H8.65028ZM9.09428 16.238H9.76628C9.99428 16.238 10.1923 16.21 10.3603 16.154C10.5283 16.098 10.6683 16.014 10.7803 15.902C10.8923 15.79 10.9763 15.65 11.0323 15.482C11.0883 15.31 11.1163 15.11 11.1163 14.882C11.1163 14.426 11.0023 14.088 10.7743 13.868C10.5503 13.644 10.2143 13.532 9.76628 13.532H9.09428V16.238ZM18.4682 16.796C18.7922 16.976 19.1822 17.066 19.6382 17.066C19.8502 17.066 20.0642 17.038 20.2802 16.982C20.4962 16.926 20.6782 16.848 20.8262 16.748C20.9142 16.692 20.9742 16.624 21.0062 16.544C21.0382 16.464 21.0462 16.384 21.0302 16.304C21.0182 16.224 20.9842 16.156 20.9282 16.1C20.8762 16.04 20.8082 16.004 20.7242 15.992C20.6442 15.976 20.5522 15.994 20.4482 16.046C20.3242 16.114 20.1942 16.164 20.0582 16.196C19.9262 16.228 19.7962 16.244 19.6682 16.244C19.4002 16.244 19.1742 16.192 18.9902 16.088C18.8102 15.98 18.6742 15.824 18.5822 15.62C18.4902 15.416 18.4442 15.17 18.4442 14.882C18.4442 14.59 18.4902 14.344 18.5822 14.144C18.6742 13.944 18.8102 13.792 18.9902 13.688C19.1742 13.58 19.4002 13.526 19.6682 13.526C19.8042 13.526 19.9382 13.542 20.0702 13.574C20.2022 13.606 20.3282 13.658 20.4482 13.73C20.5482 13.782 20.6382 13.8 20.7182 13.784C20.7982 13.768 20.8642 13.73 20.9162 13.67C20.9722 13.61 21.0062 13.538 21.0182 13.454C21.0342 13.37 21.0242 13.286 20.9882 13.202C20.9522 13.118 20.8842 13.048 20.7842 12.992C20.6322 12.9 20.4522 12.83 20.2442 12.782C20.0402 12.73 19.8382 12.704 19.6382 12.704C19.2982 12.704 18.9922 12.756 18.7202 12.86C18.4522 12.964 18.2242 13.112 18.0362 13.304C17.8482 13.492 17.7042 13.72 17.6042 13.988C17.5082 14.252 17.4602 14.55 17.4602 14.882C17.4602 15.326 17.5462 15.712 17.7182 16.04C17.8942 16.364 18.1442 16.616 18.4682 16.796Z" fill="#505F79"/>
</svg>
