<svg width="24" height="24" viewBox="0 0 24 24" fill="none" xmlns="http://www.w3.org/2000/svg">
<path fill-rule="evenodd" clip-rule="evenodd" d="M15.55 3L19.45 7.26C19.9524 7.81275 20.2306 8.53304 20.23 9.28V19C20.23 19.7956 19.9139 20.5587 19.3513 21.1213C18.7887 21.6839 18.0257 22 17.23 22H6.77002C5.97437 22 5.21131 21.6839 4.6487 21.1213C4.08609 20.5587 3.77002 19.7956 3.77002 19V5C3.77002 4.20435 4.08609 3.44129 4.6487 2.87868C5.21131 2.31607 5.97437 2 6.77002 2H13.34C13.7577 2.00364 14.17 2.09447 14.5506 2.26667C14.9312 2.43887 15.2716 2.68865 15.55 3ZM15 7.26H17.45L14.43 3.99C14.325 3.87197 14.1997 3.77375 14.06 3.7V6.32C14.06 6.5693 14.1591 6.8084 14.3353 6.98468C14.5116 7.16096 14.7507 7.26 15 7.26ZM18.2907 20.0607C18.572 19.7794 18.73 19.3978 18.73 19L18.72 9.28C18.7178 9.10211 18.6839 8.92603 18.62 8.76H15C14.3546 8.75736 13.7366 8.49912 13.2811 8.04181C12.8257 7.58451 12.57 6.9654 12.57 6.32V3.5H6.77002C6.37219 3.5 5.99066 3.65804 5.70936 3.93934C5.42805 4.22064 5.27002 4.60218 5.27002 5V19C5.27002 19.3978 5.42805 19.7794 5.70936 20.0607C5.99066 20.342 6.37219 20.5 6.77002 20.5H17.23C17.6278 20.5 18.0094 20.342 18.2907 20.0607ZM11.8724 10.7726C12.0125 10.6325 12.2018 10.5526 12.3999 10.55C12.5988 10.55 12.7896 10.6291 12.9302 10.7697C13.0709 10.9104 13.1499 11.1011 13.1499 11.3V15.69C13.1499 15.7885 13.1305 15.8861 13.0928 15.9771C13.0551 16.0681 12.9999 16.1507 12.9302 16.2204C12.8606 16.29 12.7779 16.3453 12.6869 16.383C12.5959 16.4206 12.4984 16.44 12.3999 16.44C12.3014 16.44 12.2039 16.4206 12.1129 16.383C12.0219 16.3453 11.9392 16.29 11.8696 16.2204C11.7999 16.1507 11.7447 16.0681 11.707 15.9771C11.6693 15.8861 11.6499 15.7885 11.6499 15.69V11.3C11.6525 11.1019 11.7323 10.9127 11.8724 10.7726ZM10.5304 12.1403C10.3897 12.281 10.199 12.36 10 12.36L7.87004 12.35L7.79004 14.76H8.67004C8.57833 14.6917 8.5042 14.6026 8.45377 14.5C8.40334 14.3974 8.37807 14.2843 8.38004 14.17C8.38263 13.9719 8.46248 13.7826 8.60257 13.6425C8.74267 13.5024 8.93193 13.4226 9.13004 13.42H10C10.1981 13.4226 10.3874 13.5024 10.5275 13.6425C10.6676 13.7826 10.7474 13.9719 10.75 14.17V15.5C10.75 15.6989 10.671 15.8897 10.5304 16.0303C10.3897 16.171 10.199 16.25 10 16.25H7.87004C7.66909 16.2566 7.4688 16.2237 7.28061 16.1529C7.09242 16.0821 6.92003 15.9749 6.77329 15.8375C6.62655 15.7 6.50834 15.535 6.42542 15.3518C6.3425 15.1686 6.2965 14.9709 6.29004 14.77V12.34C6.2965 12.139 6.3425 11.9413 6.42542 11.7581C6.50834 11.575 6.62655 11.4099 6.77329 11.2725C6.92003 11.135 7.09242 11.0279 7.28061 10.9571C7.4688 10.8863 7.66909 10.8533 7.87004 10.86H10C10.199 10.86 10.3897 10.939 10.5304 11.0796C10.671 11.2203 10.75 11.4111 10.75 11.61C10.75 11.8089 10.671 11.9997 10.5304 12.1403ZM16.9999 10.55H14.8999C14.701 10.55 14.5102 10.6291 14.3696 10.7697C14.2289 10.9104 14.1499 11.1011 14.1499 11.3V15.69C14.1499 15.889 14.2289 16.0797 14.3696 16.2204C14.5102 16.361 14.701 16.44 14.8999 16.44C15.0988 16.44 15.2896 16.361 15.4302 16.2204C15.5709 16.0797 15.6499 15.889 15.6499 15.69V14.25H16.0999C16.2988 14.25 16.4896 14.171 16.6302 14.0304C16.7709 13.8897 16.8499 13.699 16.8499 13.5C16.8499 13.3011 16.7709 13.1104 16.6302 12.9697C16.4896 12.8291 16.2988 12.75 16.0999 12.75H15.6499V12.05H16.9999C17.1988 12.05 17.3896 11.971 17.5302 11.8304C17.6709 11.6897 17.7499 11.499 17.7499 11.3C17.7499 11.1011 17.6709 10.9104 17.5302 10.7697C17.3896 10.6291 17.1988 10.55 16.9999 10.55Z" fill="black"/>
</svg>
