<svg width="24" height="24" viewBox="0 0 24 24" fill="none" xmlns="http://www.w3.org/2000/svg">
<path fill-rule="evenodd" clip-rule="evenodd" d="M6.80996 2H19.35C19.451 1.99992 19.5511 2.02027 19.6441 2.05982C19.7371 2.09937 19.8211 2.15732 19.8912 2.23017C19.9612 2.30302 20.0158 2.38928 20.0517 2.48377C20.0876 2.57825 20.104 2.67901 20.1 2.78V15.94C20.0971 16.6437 19.8919 17.3318 19.509 17.9222C19.126 18.5126 18.5814 18.9805 17.94 19.27V21.25C17.94 21.4489 17.8609 21.6397 17.7203 21.7803C17.5796 21.921 17.3889 22 17.19 22H7.55996C7.07763 22 6.60006 21.9047 6.1547 21.7195C5.70934 21.5343 5.30497 21.2629 4.96485 20.921C4.62472 20.579 4.35555 20.1731 4.1728 19.7268C3.99004 19.2804 3.89732 18.8023 3.89996 18.32V5.15C3.90255 4.95189 3.9824 4.76263 4.12249 4.62253C4.26259 4.48244 4.45185 4.40259 4.64996 4.4H6.05996V2.75C6.05996 2.55109 6.13897 2.36032 6.27963 2.21967C6.42028 2.07902 6.61104 2 6.80996 2ZM6.03613 19.8409C6.44092 20.2438 6.98882 20.47 7.55996 20.47H16.43V10.25H13.25C13.0858 10.25 12.9233 10.2177 12.7716 10.1548C12.6199 10.092 12.4821 9.99996 12.3661 9.88388C12.25 9.76781 12.1579 9.63001 12.0951 9.47836C12.0323 9.3267 12 9.16415 12 9V5.9H5.39996V18.32C5.4026 18.8911 5.63134 19.438 6.03613 19.8409ZM15.39 8.72L13.56 6.93L13.51 8.72H15.39ZM18.4773 16.772C18.5907 16.5057 18.6494 16.2194 18.65 15.93L18.56 3.53H7.55996V4.4H12.76C12.9533 4.40311 13.1387 4.47796 13.28 4.61L17.76 8.94C17.8336 9.00919 17.892 9.09292 17.9316 9.18587C17.9712 9.27882 17.9911 9.37898 17.99 9.48V17.48C18.1982 17.279 18.3639 17.0383 18.4773 16.772ZM13.0802 13H7.2002C7.00128 13 6.81052 12.921 6.66987 12.7803C6.52921 12.6397 6.4502 12.4489 6.4502 12.25C6.4502 12.0511 6.52921 11.8603 6.66987 11.7197C6.81052 11.579 7.00128 11.5 7.2002 11.5H13.0802C13.2791 11.5 13.4699 11.579 13.6105 11.7197C13.7512 11.8603 13.8302 12.0511 13.8302 12.25C13.8302 12.4489 13.7512 12.6397 13.6105 12.7803C13.4699 12.921 13.2791 13 13.0802 13ZM14.8702 14H7.2002C7.00128 14 6.81052 14.079 6.66987 14.2197C6.52921 14.3603 6.4502 14.5511 6.4502 14.75C6.4502 14.9489 6.52921 15.1397 6.66987 15.2803C6.81052 15.421 7.00128 15.5 7.2002 15.5H14.8702C15.0691 15.5 15.2599 15.421 15.4005 15.2803C15.5412 15.1397 15.6202 14.9489 15.6202 14.75C15.6202 14.5511 15.5412 14.3603 15.4005 14.2197C15.2599 14.079 15.0691 14 14.8702 14ZM7.2002 17.3999H11.0002C11.1991 17.3999 11.3899 17.4789 11.5305 17.6196C11.6712 17.7602 11.7502 17.951 11.7502 18.1499C11.7502 18.3488 11.6712 18.5396 11.5305 18.6802C11.3899 18.8209 11.1991 18.8999 11.0002 18.8999H7.2002C7.00128 18.8999 6.81052 18.8209 6.66987 18.6802C6.52921 18.5396 6.4502 18.3488 6.4502 18.1499C6.4502 17.951 6.52921 17.7602 6.66987 17.6196C6.81052 17.4789 7.00128 17.3999 7.2002 17.3999Z" fill="black"/>
</svg>
