<svg width="24" height="24" viewBox="0 0 24 24" fill="none" xmlns="http://www.w3.org/2000/svg">
<path d="M12.8701 2.00609C13.4676 1.93634 13.9267 2.47614 13.915 3.07933C13.7862 9.78448 20.9998 8.31191 21 14.9787C21 18.9908 16.9706 22.0002 12 22.0002C7.02944 22.0002 3 18.5124 3 12.9729C3.00006 6.47681 8.16142 2.55606 12.8701 2.00609ZM11.6465 14.72C10.4825 15.2582 9.5001 16.4544 9.5 17.9563C9.5 19.1918 10.669 20.4836 12 20.4836C12.7708 20.4836 13.4381 20.2174 13.8896 19.8508C14.3503 19.4767 14.4999 19.0828 14.5 18.8157C14.4999 18.3272 14.4005 18.1359 14.3467 18.052C14.2683 17.93 14.1445 17.8123 13.8008 17.5549C13.5015 17.3308 12.9784 16.9628 12.5332 16.426C12.152 15.9663 11.8465 15.4114 11.6465 14.72ZM12.4209 3.59691C8.48256 4.3334 4.50006 7.686 4.5 12.9729C4.5 16.1871 6.07675 18.5523 8.43945 19.7063C8.15896 19.1583 8 18.5574 8 17.9563C8.00012 15.3555 9.97113 13.4989 11.9258 13.0227C12.4521 12.8945 12.8859 13.3423 12.9863 13.8801C13.5209 16.7434 15.9998 15.9215 16 18.8157C16 19.1403 15.9312 19.4588 15.8057 19.762C18.1208 18.7731 19.5 16.9122 19.5 14.9787C19.4999 13.6196 19.1436 12.7818 18.6738 12.1516C18.1584 11.4604 17.4546 10.9372 16.5273 10.261C15.6621 9.62999 14.5735 8.84612 13.7539 7.7141C12.9716 6.63354 12.4789 5.30793 12.4209 3.59691Z" fill="#282828"/>
</svg>
