<svg width="24" height="24" viewBox="0 0 24 24" fill="none" xmlns="http://www.w3.org/2000/svg">
<path d="M9 3C10.6569 3 12 4.34315 12 6H19C20.6569 6 22 7.34315 22 9V18C22 19.6569 20.6569 21 19 21H5C3.34315 21 2 19.6569 2 18V6C2 4.34315 3.34315 3 5 3H9ZM5 4.5C4.17157 4.5 3.5 5.17157 3.5 6V18C3.5 18.8284 4.17157 19.5 5 19.5H19C19.7767 19.5 20.4154 18.9097 20.4922 18.1533L20.5 18V9C20.5 8.17157 19.8284 7.5 19 7.5H12C11.2233 7.5 10.5846 6.90972 10.5078 6.15332L10.4922 5.84668C10.4205 5.14069 9.85931 4.57949 9.15332 4.50781L9 4.5H5ZM12 10C12.4142 10 12.75 10.3358 12.75 10.75V12.75H14.75C15.1642 12.75 15.5 13.0858 15.5 13.5C15.5 13.9142 15.1642 14.25 14.75 14.25H12.75V16.25C12.7499 16.6642 12.4142 17 12 17C11.5858 17 11.2501 16.6642 11.25 16.25V14.25H9.25C8.8358 14.25 8.5 13.9142 8.5 13.5C8.5 13.0858 8.8358 12.75 9.25 12.75H11.25V10.75C11.25 10.3358 11.5858 10 12 10Z" fill="#282828"/>
</svg>
