<svg width="24" height="24" viewBox="0 0 24 24" fill="none" xmlns="http://www.w3.org/2000/svg">
<path d="M9 3C10.6569 3 12 4.34315 12 6H18C19.6569 6 21 7.34315 21 9V11.001C20.9893 11.0009 20.9785 11 20.9678 11C22.9774 11 24.4192 12.9375 23.8418 14.8623L22.6416 18.8623L22.5605 19.0947C22.1138 20.2359 21.0097 21 19.7676 21H5C3.34315 21 2 19.6569 2 18V6C2 4.34315 3.34315 3 5 3H9ZM6.23242 12.5C5.57003 12.5 4.98526 12.9349 4.79492 13.5693L3.5957 17.5693C3.30718 18.5317 4.02754 19.5 5.03223 19.5H19.7676C20.43 19.5 21.0147 19.0651 21.2051 18.4307L22.4043 14.4307C22.6928 13.4683 21.9725 12.5 20.9678 12.5H6.23242ZM2.03027 18.0186C2.03024 18.0124 2.03124 18.0062 2.03125 18C2.03124 18.0062 2.03024 18.0124 2.03027 18.0186ZM2.07422 17.4912C2.04857 17.6379 2.03595 17.7841 2.03223 17.9287C2.03595 17.7841 2.04857 17.6379 2.07422 17.4912ZM5 4.5C4.17157 4.5 3.5 5.17157 3.5 6V12.7637C3.94667 11.7755 4.89687 11.0991 5.98535 11.0098L6.23242 11H19.5V9C19.5 8.17157 18.8284 7.5 18 7.5H12C11.2233 7.5 10.5846 6.90972 10.5078 6.15332L10.4922 5.84668C10.4205 5.14069 9.85931 4.57949 9.15332 4.50781L9 4.5H5ZM2.5918 19.7432C2.6163 19.7774 2.64108 19.8115 2.66699 19.8447C2.64108 19.8115 2.6163 19.7774 2.5918 19.7432ZM2.03613 18.1895C2.03849 18.2271 2.04213 18.2644 2.0459 18.3018C2.04213 18.2644 2.03849 18.2271 2.03613 18.1895ZM2.07422 17.4912C2.08428 17.4336 2.09677 17.3761 2.11035 17.3184C2.09677 17.3761 2.08428 17.4336 2.07422 17.4912Z" fill="#282828"/>
</svg>
