<svg xmlns="http://www.w3.org/2000/svg" width="24" height="24" fill="none" viewBox="0 0 24 24"><path fill="#282828" d="M14.47 10.47a.75.75 0 1 1 1.06 1.06l-4 4a.75.75 0 0 1-1.06 0l-2-2a.75.75 0 1 1 1.06-1.06L11 13.94z"/><path fill="#282828" fill-rule="evenodd" d="M8.92 3a3 3 0 0 1 3 3v.28H19a3 3 0 0 1 3 3v7.74a3 3 0 0 1-3 3H5a3 3 0 0 1-3-3v-11a3 3 0 0 1 3-3h3.92zM5 4.52a1.5 1.5 0 0 0-1.5 1.5v11a1.5 1.5 0 0 0 1.5 1.5h14a1.5 1.5 0 0 0 1.5-1.46V9.3A1.5 1.5 0 0 0 19 7.8h-7.08a1.5 1.5 0 0 1-1.5-1.5v-.28a1.5 1.5 0 0 0-1.5-1.5z" clip-rule="evenodd"/></svg>