<svg width="24" height="24" viewBox="0 0 24 24" fill="none" xmlns="http://www.w3.org/2000/svg">
<path d="M9 3C10.6569 3 12 4.34315 12 6H19C20.6569 6 22 7.34315 22 9V18C22 19.6569 20.6569 21 19 21H5C3.34315 21 2 19.6569 2 18V6C2 4.34315 3.34315 3 5 3H9ZM5 4.5C4.17157 4.5 3.5 5.17157 3.5 6V18C3.5 18.8284 4.17157 19.5 5 19.5H19C19.7767 19.5 20.4154 18.9097 20.4922 18.1533L20.5 18V9C20.5 8.17157 19.8284 7.5 19 7.5H12C11.2233 7.5 10.5846 6.90972 10.5078 6.15332L10.4922 5.84668C10.4205 5.14069 9.85931 4.57949 9.15332 4.50781L9 4.5H5ZM14.9697 10.9697C15.2626 10.6769 15.7374 10.6769 16.0303 10.9697C16.3231 11.2626 16.3231 11.7374 16.0303 12.0303L11.5303 16.5303C11.2374 16.8232 10.7626 16.8232 10.4697 16.5303L8.46973 14.5303C8.17683 14.2374 8.17683 13.7626 8.46973 13.4697C8.76262 13.1769 9.2374 13.1769 9.53027 13.4697L11 14.9395L14.9697 10.9697Z" fill="#282828"/>
</svg>
