<svg width="24" height="24" viewBox="0 0 24 24" fill="none" xmlns="http://www.w3.org/2000/svg">
<path d="M12.8012 15.1199H16.1672V10.8539H13.2872V7.88388H16.2932L16.7072 5.39988H19.5872V15.1199H22.4132V17.9999H12.8012V15.1199Z" fill="#454545"/>
<path d="M2.07983 5.12988H5.40983V9.80988C6.00983 9.02988 6.86783 8.63988 7.98383 8.63988C9.11183 8.63988 9.93383 8.98188 10.4498 9.66588C10.9658 10.3379 11.2238 11.3519 11.2238 12.7079V17.9999H7.89383V13.1219C7.89383 11.9699 7.47983 11.3939 6.65183 11.3939C6.23183 11.3939 5.91983 11.5379 5.71583 11.8259C5.51183 12.1019 5.40983 12.5339 5.40983 13.1219V17.9999H2.07983V5.12988Z" fill="#454545"/>
</svg>
