<svg width="24" height="24" viewBox="0 0 24 24" fill="none" xmlns="http://www.w3.org/2000/svg">
<path d="M13.3167 15.6779C13.0047 15.6779 12.7647 15.6239 12.5967 15.5159C12.4287 15.3959 12.3447 15.2039 12.3447 14.9399C12.3447 14.7839 12.3627 14.6459 12.3987 14.5259C12.4347 14.4059 12.5067 14.2559 12.6147 14.0759L17.3127 5.39988H19.5807L14.9547 13.9499H18.5187L19.4367 10.3139H20.5887V13.8059H22.1187V15.6779H20.5887V17.9999H18.4827V15.6779H13.3167Z" fill="#454545"/>
<path d="M2.53662 5.12988H4.64262V9.98988C5.24262 9.16188 6.15462 8.74788 7.37862 8.74788C8.56662 8.74788 9.43062 9.10188 9.97062 9.80988C10.5226 10.5059 10.7986 11.5379 10.7986 12.9059V17.9999H8.69262V13.1399C8.69262 12.2519 8.53062 11.5919 8.20662 11.1599C7.88262 10.7159 7.39062 10.4939 6.73062 10.4939C5.99862 10.4939 5.46462 10.7159 5.12862 11.1599C4.80462 11.6039 4.64262 12.2759 4.64262 13.1759V17.9999H2.53662V5.12988Z" fill="#454545"/>
</svg>
