<svg width="24" height="24" viewBox="0 0 24 24" fill="none" xmlns="http://www.w3.org/2000/svg">
<path d="M17.8393 18.1799C16.2793 18.1799 15.1153 17.8379 14.3473 17.1539C13.5793 16.4579 13.1953 15.5039 13.1953 14.2919H14.9593C14.9593 15.1079 15.2173 15.7199 15.7333 16.1279C16.2613 16.5239 16.9513 16.7219 17.8033 16.7219C18.6193 16.7219 19.2853 16.4879 19.8013 16.0199C20.3173 15.5519 20.5753 14.8559 20.5753 13.9319C20.5753 13.0079 20.3113 12.3119 19.7833 11.8439C19.2673 11.3759 18.5833 11.1419 17.7313 11.1419C16.8193 11.1419 16.0393 11.2799 15.3913 11.5559C15.2473 11.5919 15.0973 11.6099 14.9413 11.6099C14.7613 11.6099 14.6053 11.5799 14.4733 11.5199C14.1973 11.3879 14.0593 11.1299 14.0593 10.7459C14.0593 10.5899 14.0653 10.4699 14.0773 10.3859L14.6893 6.71388C14.7373 6.36588 14.7853 6.10788 14.8333 5.93988C14.8933 5.75988 14.9953 5.62788 15.1393 5.54388C15.2953 5.44788 15.5293 5.39988 15.8413 5.39988H21.5833V6.92988H16.2553L15.7333 10.0979C16.2973 9.90588 17.0113 9.80988 17.8753 9.80988C19.3273 9.80988 20.4433 10.1879 21.2233 10.9439C22.0033 11.6999 22.3933 12.7139 22.3933 13.9859C22.3933 15.2699 21.9973 16.2899 21.2053 17.0459C20.4133 17.8019 19.2913 18.1799 17.8393 18.1799Z" fill="#454545"/>
<path d="M3.33203 5.12988H5.07803V10.0439C5.67803 9.20388 6.60803 8.78388 7.86803 8.78388C9.08003 8.78388 9.95603 9.13788 10.496 9.84588C11.048 10.5419 11.324 11.5799 11.324 12.9599V17.9999H9.59603V13.1399C9.59603 12.1559 9.41603 11.4299 9.05603 10.9619C8.69603 10.4819 8.14403 10.2419 7.40003 10.2419C6.59603 10.2419 6.00803 10.4879 5.63603 10.9799C5.26403 11.4599 5.07803 12.1979 5.07803 13.1939V17.9999H3.33203V5.12988Z" fill="#454545"/>
</svg>
