<svg width="24" height="24" viewBox="0 0 24 24" fill="none" xmlns="http://www.w3.org/2000/svg">
<path d="M17.4017 18.1799C15.7817 18.1799 14.5757 17.8199 13.7837 17.0999C12.9917 16.3679 12.5957 15.3539 12.5957 14.0579H15.0797C15.0797 14.7419 15.2837 15.2639 15.6917 15.6239C16.0997 15.9719 16.6277 16.1459 17.2757 16.1459C17.9477 16.1459 18.4757 15.9659 18.8597 15.6059C19.2437 15.2339 19.4357 14.6939 19.4357 13.9859C19.4357 12.3779 18.6497 11.6399 17.0777 11.7719C16.9937 11.7719 16.8077 11.7719 16.5197 11.7719C16.2437 11.7719 16.0217 11.7479 15.8537 11.6999C15.6977 11.6399 15.5837 11.5439 15.5117 11.4119C15.4397 11.2799 15.4037 11.1539 15.4037 11.0339C15.4037 10.7819 15.5297 10.5119 15.7817 10.2239L18.2117 7.57788H13.0277V5.39988H20.3897C21.1817 5.39988 21.5777 5.69388 21.5777 6.28188C21.5777 6.46188 21.5477 6.62988 21.4877 6.78588C21.4277 6.92988 21.3257 7.08588 21.1817 7.25388L18.4997 10.2419C19.6037 10.3259 20.4557 10.7039 21.0557 11.3759C21.6677 12.0479 21.9737 12.9059 21.9737 13.9499C21.9737 14.7539 21.7937 15.4799 21.4337 16.1279C21.0857 16.7639 20.5697 17.2679 19.8857 17.6399C19.2017 17.9999 18.3737 18.1799 17.4017 18.1799Z" fill="#454545"/>
<path d="M2.39331 5.12988H4.87731V9.95388C5.47731 9.12588 6.37131 8.71188 7.55931 8.71188C8.73531 8.71188 9.58731 9.05988 10.1153 9.75588C10.6553 10.4399 10.9253 11.4659 10.9253 12.8339V17.9999H8.44131V13.1219C8.44131 12.3299 8.29731 11.7419 8.00931 11.3579C7.72131 10.9739 7.28331 10.7819 6.69531 10.7819C6.07131 10.7819 5.60931 10.9799 5.30931 11.3759C5.02131 11.7599 4.87731 12.3539 4.87731 13.1579V17.9999H2.39331V5.12988Z" fill="#454545"/>
</svg>
