<svg width="24" height="24" viewBox="0 0 24 24" fill="none" xmlns="http://www.w3.org/2000/svg">
<path fill-rule="evenodd" clip-rule="evenodd" d="M12 20.6348C11.3516 20.6348 10.7579 20.3864 10.2432 20.0856C9.72836 19.7848 9.22128 19.3875 8.75266 19.0181C8.51227 18.8286 8.25915 18.6337 7.99792 18.4326C6.84307 17.5435 5.52964 16.5322 4.45707 15.3245C3.11617 13.8146 2.09009 11.9377 2.09009 9.47643C2.09009 6.96863 3.50928 4.79108 5.56257 3.85252C7.49721 2.96819 9.87619 3.23118 12 5.10688C14.1238 3.23118 16.5028 2.96819 18.4374 3.85252C20.4907 4.79108 21.9099 6.96863 21.9099 9.47643C21.9099 11.9377 20.8838 13.8146 19.5429 15.3245C18.4704 16.5322 17.1569 17.5435 16.0021 18.4326C15.7408 18.6337 15.4877 18.8286 15.2473 19.0181C14.7787 19.3875 14.2716 19.7848 13.7568 20.0856C13.2421 20.3864 12.6484 20.6348 12 20.6348ZM3.59009 9.47643C3.59009 7.52983 4.68994 5.90068 6.18616 5.21675C7.63435 4.55478 9.58865 4.72361 11.4567 6.66254C11.4604 6.66642 11.4642 6.67026 11.468 6.67408C11.6142 6.82135 11.807 6.89544 12 6.89546C12.1101 6.89547 12.2203 6.87138 12.3221 6.82302C12.3982 6.78686 12.4694 6.73719 12.532 6.67408C12.5358 6.67027 12.5396 6.66642 12.5433 6.66254C14.4114 4.72361 16.3656 4.55478 17.8138 5.21675C19.3101 5.90068 20.4099 7.52983 20.4099 9.47643C20.4099 11.4696 19.5951 13.0067 18.4214 14.3284C17.4525 15.4194 16.2803 16.3231 15.1318 17.2086C14.8584 17.4194 14.5864 17.6291 14.3187 17.8401C13.8363 18.2204 13.4099 18.551 13 18.7905C12.5898 19.0302 12.2676 19.1348 12 19.1348C11.7324 19.1348 11.4102 19.0302 11 18.7905C10.5901 18.551 10.1637 18.2204 9.68129 17.8401C9.41364 17.6291 9.14159 17.4194 8.8682 17.2086C7.71967 16.3231 6.54749 15.4194 5.57864 14.3284C4.40489 13.0067 3.59009 11.4696 3.59009 9.47643Z" fill="#292929"/>
</svg>
