<svg width="24" height="24" viewBox="0 0 24 24" fill="none" xmlns="http://www.w3.org/2000/svg">
<path fill-rule="evenodd" clip-rule="evenodd" d="M17.8199 5.99995L21.1199 8.80995C21.3267 8.96719 21.4779 9.18632 21.5515 9.43544C21.625 9.68456 21.6172 9.95067 21.529 10.195C21.4409 10.4394 21.2771 10.6492 21.0614 10.794C20.8457 10.9388 20.5895 11.0109 20.3299 10.9999H3.66993C3.4104 11.0109 3.15415 10.9388 2.93848 10.794C2.7228 10.6492 2.55897 10.4394 2.47082 10.195C2.38268 9.95067 2.37483 9.68456 2.44841 9.43544C2.52199 9.18632 2.67317 8.96719 2.87993 8.80995L6.17993 5.99995L9.91993 2.79995C10.4987 2.30225 11.2366 2.02856 11.9999 2.02856C12.7632 2.02856 13.5012 2.30225 14.0799 2.79995L17.8199 5.99995ZM4.41993 9.45995H11.9999H19.5799L16.8399 7.10995L13.1099 3.90995C12.8004 3.64582 12.4068 3.50072 11.9999 3.50072C11.593 3.50072 11.1995 3.64582 10.8899 3.90995L7.15993 7.10995L4.41993 9.45995ZM19.1014 12.2344C19.193 12.1971 19.2911 12.1787 19.39 12.18C19.5889 12.18 19.7797 12.259 19.9203 12.3997C20.061 12.5403 20.14 12.7311 20.14 12.93V18.25C20.1373 19.2438 19.7414 20.196 19.0387 20.8987C18.336 21.6014 17.3837 21.9974 16.39 22H7.60998C7.11452 21.9987 6.6242 21.8995 6.16721 21.7081C5.71021 21.5166 5.29556 21.2368 4.94707 20.8846C4.59859 20.5324 4.32315 20.1148 4.13659 19.6558C3.95003 19.1968 3.85603 18.7054 3.85998 18.21V12.93C3.85998 12.7311 3.939 12.5403 4.07965 12.3997C4.22031 12.259 4.41107 12.18 4.60998 12.18C4.8089 12.18 4.99966 12.259 5.14031 12.3997C5.28097 12.5403 5.35998 12.7311 5.35998 12.93V18.21C5.35998 18.8067 5.59704 19.379 6.01899 19.801C6.44095 20.2229 7.01325 20.46 7.60998 20.46H16.39C16.9867 20.46 17.559 20.2229 17.981 19.801C18.4029 19.379 18.64 18.8067 18.64 18.21V12.93C18.6386 12.8311 18.6571 12.733 18.6943 12.6414C18.7315 12.5498 18.7867 12.4666 18.8567 12.3967C18.9266 12.3268 19.0098 12.2716 19.1014 12.2344Z" fill="black"/>
</svg>
