<svg xmlns="http://www.w3.org/2000/svg" width="24" height="24" fill="none" viewBox="0 0 24 24"><path fill="#282828" fill-rule="evenodd" d="M12 2.25a.75.75 0 0 1 0 1.5 6.25 6.25 0 0 0-2.678 11.898c.347.165.428.502.428.852v.75h4.5v-.75c0-.35.08-.686.428-.852A6.25 6.25 0 0 0 18.25 10a.75.75 0 0 1 1.5 0 7.75 7.75 0 0 1-4 6.782V19A2.75 2.75 0 0 1 13 21.75h-2A2.75 2.75 0 0 1 8.25 19v-2.218A7.75 7.75 0 0 1 12 2.25M9.75 19c0 .69.56 1.25 1.25 1.25h2c.69 0 1.25-.56 1.25-1.25v-.25h-4.5z" clip-rule="evenodd"/><path fill="#282828" d="M16.158 3.732c.867.12 1.49.303 1.663.491.077.081.272.402.452 1.602.015.107.104.175.227.175s.212-.07.227-.176c.18-1.2.376-1.52.452-1.601.173-.188.795-.37 1.662-.49.096-.015.159-.106.159-.233 0-.125-.064-.218-.159-.232-.867-.12-1.489-.304-1.662-.491-.077-.081-.272-.402-.452-1.602C18.712 1.068 18.623 1 18.5 1s-.212.07-.227.176c-.18 1.2-.376 1.52-.452 1.601-.173.188-.795.37-1.662.49-.095.015-.159.108-.159.233s.064.218.158.232M10.284 7.918h.002c1.56.215 2.68.545 2.993.883.137.147.489.723.812 2.884.027.192.188.315.409.315s.382-.125.409-.316c.325-2.16.677-2.736.812-2.883.313-.338 1.433-.666 2.993-.883.174-.025.286-.19.286-.418 0-.225-.114-.393-.286-.418-1.56-.217-2.68-.547-2.993-.883-.137-.147-.489-.723-.812-2.884C14.882 3.123 14.72 3 14.5 3s-.382.125-.409.317c-.325 2.159-.677 2.735-.812 2.882-.313.338-1.433.666-2.993.883-.172.025-.286.193-.286.418s.114.393.284.418"/></svg>