<svg width="24" height="24" viewBox="0 0 24 24" fill="none" xmlns="http://www.w3.org/2000/svg">
<path d="M17.4729 22H6.5269C4.03591 22 2 19.9665 2 17.4545V6.52153C2 4.03349 4.03591 2 6.5269 2H17.4729C19.9639 2 21.9998 4.03349 21.9998 6.52153V17.4545C22.0237 19.9665 19.9878 22 17.4729 22ZM6.5269 3.98565C5.13769 3.98565 3.988 5.13397 3.988 6.52153V17.4545C3.988 18.866 5.13769 19.9904 6.5269 19.9904H17.4729C18.8621 19.9904 20.0118 18.8421 20.0118 17.4545V6.52153C20.0118 5.13397 18.8621 3.98565 17.4729 3.98565H6.5269V3.98565ZM12.0119 17.2153C9.1616 17.2153 6.83827 14.8947 6.83827 12.0478C6.83827 9.20096 9.1616 6.88038 12.0119 6.88038C14.8621 6.88038 17.1855 9.20096 17.1855 12.0478C17.1855 14.8947 14.8621 17.2153 12.0119 17.2153ZM12.0119 8.86603C10.2634 8.86603 8.82628 10.3014 8.82628 12.0478C8.82628 13.7943 10.2634 15.2297 12.0119 15.2297C13.7604 15.2297 15.1975 13.7943 15.1975 12.0478C15.1975 10.3014 13.7604 8.86603 12.0119 8.86603ZM17.3771 5.61244C16.6585 5.61244 16.0597 6.21053 16.0597 6.92823C16.0597 7.64593 16.6346 8.24402 17.3771 8.24402C18.0956 8.24402 18.6944 7.64593 18.6944 6.92823C18.6944 6.21053 18.0956 5.61244 17.3771 5.61244Z" fill="#454545"/>
</svg>
