<svg width="24" height="24" viewBox="0 0 24 24" fill="none" xmlns="http://www.w3.org/2000/svg">
<path d="M3.9701 20.0306C1.74421 17.8048 1.74421 14.1952 3.9701 11.9694L5.46994 10.4695C5.76285 10.1768 6.23776 10.1767 6.5306 10.4695C6.82344 10.7624 6.82334 11.2373 6.5306 11.5302L5.03076 13.03C3.39066 14.6701 3.39066 17.3299 5.03076 18.97C6.67089 20.6098 9.33004 20.6093 10.97 18.9693L12.4699 17.4695C12.7628 17.1767 13.2377 17.1767 13.5305 17.4695C13.8234 17.7623 13.8233 18.2372 13.5305 18.5301L12.0307 20.03C9.80492 22.2557 6.19601 22.2562 3.9701 20.0306Z" fill="#282828"/>
<path d="M20.0299 3.96935C22.2558 6.19524 22.2558 9.80476 20.0299 12.0306L18.5301 13.5305C18.2372 13.8232 17.7622 13.8233 17.4694 13.5305C17.1766 13.2376 17.1767 12.7627 17.4694 12.4698L18.9692 10.97C20.6093 9.32988 20.6093 6.67012 18.9692 5.03001C17.3291 3.39023 14.67 3.39071 13.03 5.0307L11.5301 6.53054C11.2372 6.82326 10.7623 6.82333 10.4695 6.53054C10.1766 6.2377 10.1767 5.76279 10.4695 5.46988L11.9693 3.97004C14.1951 1.74426 17.804 1.74378 20.0299 3.96935Z" fill="#282828"/>
<path d="M11.4697 11.4697C11.7626 11.1768 12.2373 11.1768 12.5302 11.4697C12.8231 11.7626 12.8231 12.2374 12.5302 12.5303L9.53022 15.5303C9.23732 15.8232 8.76256 15.8232 8.46967 15.5303C8.17678 15.2374 8.17678 14.7626 8.46967 14.4697L11.4697 11.4697ZM14.4697 8.46972C14.7626 8.17683 15.2373 8.17683 15.5302 8.46972C15.8231 8.76262 15.8231 9.23738 15.5302 9.53027L14.5302 10.5303C14.2373 10.8232 13.7626 10.8232 13.4697 10.5303C13.1768 10.2374 13.1768 9.76262 13.4697 9.46972L14.4697 8.46972Z" fill="#282828"/>
<path d="M5.53033 4.46972C5.23744 4.17683 4.76268 4.17683 4.46978 4.46972C4.17689 4.76262 4.17689 5.23738 4.46978 5.53027L18.4698 19.5303C18.7627 19.8232 19.2374 19.8232 19.5303 19.5303C19.8232 19.2374 19.8232 18.7626 19.5303 18.4697L5.53033 4.46972Z" fill="#282828"/>
</svg>
