<svg width="25" height="24" viewBox="0 0 25 24" fill="none" xmlns="http://www.w3.org/2000/svg">
<path fill-rule="evenodd" clip-rule="evenodd" d="M12 22C9.61 22 4 15.74 4 10C4 7.87827 4.84285 5.84344 6.34315 4.34315C7.84344 2.84285 9.87827 2 12 2C14.1217 2 16.1566 2.84285 17.6569 4.34315C19.1571 5.84344 20 7.87827 20 10C20 10.9622 19.8424 11.939 19.5687 12.8984C19.406 13.1602 19.3079 13.4598 19.2864 13.7725C19.1979 14.0181 19.1025 14.2618 19.0009 14.5031H17.3829C18.0666 13.0894 18.53 11.5438 18.53 10C18.5313 9.14163 18.3634 8.29142 18.0358 7.49801C17.7082 6.7046 17.2274 5.98355 16.6209 5.37613C16.0144 4.7687 15.2941 4.28681 14.5012 3.95802C13.7083 3.62923 12.8584 3.46 12 3.46C11.1416 3.46 10.2917 3.62923 9.49876 3.95802C8.70586 4.28681 7.98555 4.7687 7.37905 5.37613C6.77256 5.98355 6.29177 6.7046 5.96419 7.49801C5.63662 8.29142 5.46869 9.14163 5.47 10C5.47 15.29 10.87 20.56 12 20.56C12.4585 20.56 13.6199 19.6891 14.8384 18.3021C14.8589 18.3028 14.8794 18.3031 14.9 18.3031H16.7828C15.1068 20.5036 13.1685 22 12 22ZM12.0001 14.51C11.0859 14.512 10.1917 14.2427 9.43067 13.7363C8.6696 13.2298 8.07588 12.509 7.72467 11.6649C7.37346 10.8209 7.28054 9.89169 7.45768 8.99484C7.63481 8.09799 8.07403 7.27385 8.71975 6.62673C9.36547 5.97961 10.1887 5.5386 11.0851 5.35953C11.9816 5.18045 12.911 5.27136 13.7558 5.62074C14.6006 5.97012 15.3227 6.56227 15.8308 7.32224C16.3389 8.08221 16.6101 8.97584 16.6101 9.89001C16.6101 11.1136 16.1247 12.2872 15.2605 13.1533C14.3962 14.0194 13.2237 14.5074 12.0001 14.51ZM12.0001 6.78001C11.3822 6.77803 10.7776 6.95959 10.263 7.30166C9.74838 7.64373 9.34693 8.1309 9.10954 8.70141C8.87216 9.27192 8.80953 9.90008 8.9296 10.5062C9.04967 11.1124 9.34702 11.6692 9.78396 12.1062C10.2209 12.5431 10.7778 12.8405 11.3839 12.9605C11.9901 13.0806 12.6182 13.018 13.1887 12.7806C13.7592 12.5432 14.2464 12.1418 14.5885 11.6271C14.9305 11.1125 15.1121 10.5079 15.1101 9.89001C15.1101 9.06519 14.7825 8.27415 14.1992 7.69091C13.616 7.10767 12.8249 6.78001 12.0001 6.78001ZM24.24 16.3531C24.2443 16.4097 24.2443 16.4665 24.24 16.5231C24.2363 16.6012 24.2228 16.6784 24.2 16.7531C24.176 16.8096 24.1458 16.8633 24.11 16.9131C24.0844 16.9483 24.061 16.985 24.04 17.0231L21.82 19.5031C21.6608 19.6807 21.4376 19.7878 21.1995 19.8009C20.9614 19.814 20.7278 19.7321 20.55 19.5731C20.3724 19.4139 20.2654 19.1907 20.2522 18.9526C20.2391 18.7145 20.321 18.4809 20.48 18.3031L21.36 17.3031H14.9C14.6613 17.3031 14.4324 17.2083 14.2636 17.0395C14.0948 16.8707 14 16.6418 14 16.4031C14 16.1644 14.0948 15.9355 14.2636 15.7667C14.4324 15.5979 14.6613 15.5031 14.9 15.5031H21.36L20.51 14.5031C20.3509 14.3241 20.2694 14.0892 20.2834 13.8501C20.2975 13.611 20.406 13.3873 20.585 13.2281C20.764 13.069 20.9989 12.9875 21.238 13.0016C21.4771 13.0156 21.7009 13.1241 21.86 13.3031L24.08 15.7531C24.1056 15.7883 24.129 15.825 24.15 15.8631C24.1836 15.9108 24.2137 15.961 24.24 16.0131C24.2448 16.0697 24.2448 16.1266 24.24 16.1831C24.2455 16.2397 24.2455 16.2966 24.24 16.3531Z" fill="#292929"/>
</svg>