<svg width="24" height="24" viewBox="0 0 24 24" fill="none" xmlns="http://www.w3.org/2000/svg">
<path d="M18.7301 13.8901C18.2182 13.8909 17.7255 13.6953 17.3534 13.3437C16.9814 12.9921 16.7583 12.5112 16.7301 12.0001C16.7358 11.9569 16.7358 11.9132 16.7301 11.8701C16.7066 10.7112 16.2619 9.60063 15.4791 8.74578C14.6964 7.89094 13.6291 7.35035 12.4768 7.22504C11.3245 7.09972 10.1661 7.39826 9.21784 8.06486C8.26963 8.73146 7.59658 9.72052 7.32445 10.8472C7.05233 11.9739 7.19976 13.1611 7.73919 14.187C8.27862 15.2129 9.17314 16.0073 10.2556 16.4217C11.338 16.8362 12.5344 16.8423 13.621 16.439C14.7076 16.0356 15.6102 15.2504 16.1601 14.2301C16.4866 14.5914 16.8844 14.881 17.3285 15.0807C17.7726 15.2803 18.2533 15.3857 18.7401 15.3901C19.184 15.3888 19.6233 15.3 20.0329 15.129C20.4424 14.9579 20.8143 14.7078 21.1272 14.393C21.4402 14.0782 21.688 13.7049 21.8567 13.2943C22.0253 12.8837 22.1115 12.4439 22.1101 12.0001C22.1098 9.69328 21.3206 7.45598 19.8735 5.65951C18.4264 3.86305 16.4085 2.61547 14.1547 2.12387C11.9009 1.63226 9.54677 1.92618 7.48303 2.95685C5.41929 3.98752 3.77007 5.69295 2.80912 7.79006C1.84817 9.88717 1.63328 12.2498 2.20013 14.4859C2.76697 16.722 4.08145 18.697 5.92539 20.083C7.76932 21.4691 10.0318 22.1829 12.3373 22.106C14.6428 22.0291 16.8527 21.166 18.6001 19.6601C18.675 19.5944 18.7362 19.5147 18.7802 19.4254C18.8242 19.336 18.8502 19.2389 18.8567 19.1396C18.8632 19.0402 18.8501 18.9406 18.8181 18.8463C18.7861 18.752 18.7358 18.6649 18.6701 18.5901C18.6045 18.5152 18.5247 18.454 18.4354 18.41C18.3461 18.366 18.249 18.34 18.1496 18.3335C18.0503 18.327 17.9506 18.3401 17.8563 18.3721C17.7621 18.4041 17.675 18.4544 17.6001 18.5201C16.1082 19.8014 14.2227 20.5334 12.257 20.5943C10.2913 20.6552 8.36401 20.0413 6.79566 18.8548C5.2273 17.6683 4.1124 15.9806 3.63639 14.0725C3.16037 12.1643 3.35193 10.1507 4.17921 8.36656C5.00648 6.58241 6.41961 5.13523 8.18356 4.26571C9.94752 3.39619 11.956 3.15675 13.8749 3.5872C15.7938 4.01765 17.5076 5.09206 18.7311 6.63172C19.9547 8.17139 20.6142 10.0835 20.6001 12.0501C20.5923 12.5408 20.3918 13.0088 20.0419 13.353C19.6921 13.6972 19.2209 13.8901 18.7301 13.8901ZM12.0001 15.2401C11.3593 15.2401 10.7329 15.0501 10.2001 14.694C9.66728 14.338 9.252 13.832 9.00677 13.24C8.76155 12.6479 8.69738 11.9965 8.8224 11.368C8.94742 10.7395 9.256 10.1622 9.70912 9.70905C10.1622 9.25593 10.7396 8.94735 11.3681 8.82234C11.9965 8.69732 12.648 8.76148 13.24 9.00671C13.8321 9.25194 14.3381 9.66722 14.6941 10.2C15.0501 10.7328 15.2401 11.3593 15.2401 12.0001C15.2375 12.8586 14.8953 13.6811 14.2883 14.2882C13.6812 14.8952 12.8586 15.2374 12.0001 15.2401V15.2401Z" fill="black"/>
</svg>
