<svg width="24" height="24" viewBox="0 0 24 24" fill="none" xmlns="http://www.w3.org/2000/svg">
<path fill-rule="evenodd" clip-rule="evenodd" d="M7.5 5.25C7.5 6.49264 6.49264 7.5 5.25 7.5C4.00736 7.5 3 6.49264 3 5.25C3 4.00736 4.00736 3 5.25 3C6.49264 3 7.5 4.00736 7.5 5.25ZM5.25 14.25C6.49264 14.25 7.5 13.2426 7.5 12C7.5 10.7574 6.49264 9.75 5.25 9.75C4.00736 9.75 3 10.7574 3 12C3 13.2426 4.00736 14.25 5.25 14.25ZM5.25 21C6.49264 21 7.5 19.9926 7.5 18.75C7.5 17.5074 6.49264 16.5 5.25 16.5C4.00736 16.5 3 17.5074 3 18.75C3 19.9926 4.00736 21 5.25 21ZM18.75 21C19.9926 21 21 19.9926 21 18.75C21 17.5074 19.9926 16.5 18.75 16.5C17.5074 16.5 16.5 17.5074 16.5 18.75C16.5 19.9926 17.5074 21 18.75 21ZM14.25 18.75C14.25 19.9926 13.2426 21 12 21C10.7574 21 9.75 19.9926 9.75 18.75C9.75 17.5074 10.7574 16.5 12 16.5C13.2426 16.5 14.25 17.5074 14.25 18.75ZM21 12C21 13.2426 19.9926 14.25 18.75 14.25C17.5074 14.25 16.5 13.2426 16.5 12C16.5 10.7574 17.5074 9.75 18.75 9.75C19.9926 9.75 21 10.7574 21 12ZM12 14.25C13.2426 14.25 14.25 13.2426 14.25 12C14.25 10.7574 13.2426 9.75 12 9.75C10.7574 9.75 9.75 10.7574 9.75 12C9.75 13.2426 10.7574 14.25 12 14.25ZM18.75 7.5C19.9926 7.5 21 6.49264 21 5.25C21 4.00736 19.9926 3 18.75 3C17.5074 3 16.5 4.00736 16.5 5.25C16.5 6.49264 17.5074 7.5 18.75 7.5ZM14.25 5.25C14.25 6.49264 13.2426 7.5 12 7.5C10.7574 7.5 9.75 6.49264 9.75 5.25C9.75 4.00736 10.7574 3 12 3C13.2426 3 14.25 4.00736 14.25 5.25Z" fill="black"/>
</svg>
