<svg xmlns="http://www.w3.org/2000/svg" width="24" height="24" fill="none" viewBox="0 0 24 24"><path fill="#282828" fill-rule="evenodd" d="M20.804 12.624a1 1 0 0 0 .021-.088l.01-.05q.072-.347.123-.696l.1-.566a.75.75 0 0 0-1.476-.263l-.198 1.117a9.8 9.8 0 0 1-1.216 3.112 14.7 14.7 0 0 1-2.149 2.26l-.48.439c-.689.64-1.439 1.31-2.358 2.109v-1.28a.927.927 0 0 0-.94-.94c-1.929 0-4.637-.679-5.847-1.928a8.33 8.33 0 0 1-1.929-5.477c-.05-1.58.2-4.438 2.42-5.857a9.66 9.66 0 0 1 4.877-1q.386 0 .771.016l.804.038a.75.75 0 0 0 .784-.713v-.01a.75.75 0 0 0-.713-.783l-.51-.024a19 19 0 0 0-1.136-.033 11.25 11.25 0 0 0-5.627 1.28c-2.13 1.309-3.229 3.847-3.129 7.136a9.73 9.73 0 0 0 2.309 6.456c1.45 1.52 4.198 2.27 6.367 2.39v1.608a1.14 1.14 0 0 0 1.21 1.12l.01-.02a1.1 1.1 0 0 0 .629-.26l.11-.098a162 162 0 0 0 2.888-2.59l.47-.43a16 16 0 0 0 2.399-2.52 11.3 11.3 0 0 0 1.406-3.456" clip-rule="evenodd"/><path fill="#282828" d="M18.158 3.732c.867.12 1.49.303 1.663.491.077.081.272.402.452 1.602.015.107.104.175.227.175s.212-.07.227-.176c.18-1.2.376-1.52.452-1.601.173-.188.795-.37 1.662-.49.096-.015.159-.106.159-.233 0-.125-.064-.218-.159-.232-.867-.12-1.489-.304-1.662-.491-.077-.081-.272-.402-.452-1.602C20.712 1.068 20.623 1 20.5 1s-.212.07-.227.176c-.18 1.2-.376 1.52-.452 1.601-.173.188-.795.37-1.662.49-.095.015-.159.108-.159.233s.064.218.158.232M12.284 7.918h.002c1.56.215 2.68.545 2.993.883.137.147.489.723.812 2.884.027.192.188.315.409.315s.382-.125.409-.316c.325-2.16.677-2.736.812-2.883.313-.338 1.433-.666 2.993-.883.174-.025.286-.19.286-.418 0-.225-.114-.393-.286-.418-1.56-.217-2.68-.547-2.993-.883-.137-.147-.489-.723-.812-2.884C16.882 3.123 16.72 3 16.5 3s-.382.125-.409.317c-.325 2.159-.677 2.735-.812 2.882-.313.338-1.433.666-2.993.883-.172.025-.286.193-.286.418s.114.393.284.418"/></svg>