<svg width="24" height="24" viewBox="0 0 24 24" fill="none" xmlns="http://www.w3.org/2000/svg">
<path d="M17.9999 1.83325C17.1758 1.83325 16.3702 2.07762 15.685 2.53546C14.9998 2.9933 14.4658 3.64405 14.1504 4.4054C13.8351 5.16676 13.7525 6.00454 13.9133 6.8128C14.0741 7.62105 14.4709 8.36348 15.0536 8.9462C15.6364 9.52892 16.3788 9.92575 17.187 10.0865C17.9953 10.2473 18.8331 10.1648 19.5944 9.84942C20.3558 9.53405 21.0065 9 21.4644 8.31479C21.9222 7.62959 22.1666 6.82401 22.1666 5.99992C22.1666 4.89485 21.7276 3.83504 20.9462 3.05364C20.1648 2.27224 19.105 1.83325 17.9999 1.83325V1.83325ZM19.8833 5.16659L17.6624 7.29575C17.6038 7.35112 17.5264 7.38236 17.4458 7.38325C17.4057 7.38367 17.3659 7.37615 17.3287 7.36114C17.2915 7.34612 17.2577 7.3239 17.2291 7.29575L16.1166 6.22492C16.0773 6.20068 16.0439 6.16805 16.0187 6.12937C15.9936 6.09068 15.9773 6.04691 15.9711 6.00119C15.9649 5.95546 15.9688 5.90893 15.9827 5.86492C15.9966 5.82092 16.0201 5.78054 16.0514 5.74668C16.0828 5.71282 16.1212 5.68632 16.164 5.66909C16.2068 5.65186 16.2529 5.64433 16.299 5.64703C16.3451 5.64973 16.39 5.6626 16.4305 5.68471C16.471 5.70682 16.5061 5.73763 16.5333 5.77492L17.4291 6.63742L19.4333 4.70409C19.4949 4.66605 19.5678 4.65059 19.6396 4.66037C19.7113 4.67015 19.7775 4.70455 19.8267 4.7577C19.8759 4.81084 19.9051 4.87942 19.9094 4.95173C19.9136 5.02403 19.8926 5.09556 19.8499 5.15409L19.8833 5.16659Z" fill="#454545"/>
<path fill-rule="evenodd" clip-rule="evenodd" d="M20.8042 12.6235C20.8128 12.5952 20.8198 12.566 20.8251 12.5361L20.8342 12.4853C20.8826 12.255 20.9238 12.0232 20.9577 11.7904L21.0585 11.2239C21.131 10.8165 20.8591 10.427 20.4517 10.3546C20.0444 10.2822 19.6549 10.554 19.5825 10.9614L19.3839 12.0777C19.1628 13.1674 18.755 14.2212 18.1683 15.1903C17.5341 16.0172 16.8138 16.7744 16.0194 17.4491L15.5397 17.8888C14.85 18.5285 14.1004 19.1981 13.1809 19.9977V18.7184C13.1823 18.5947 13.1589 18.4719 13.1121 18.3573C13.0654 18.2428 12.9962 18.1386 12.9088 18.0511C12.8212 17.9636 12.7171 17.8944 12.6025 17.8476C12.488 17.801 12.3651 17.7776 12.2414 17.7789C10.3124 17.7789 7.60385 17.0992 6.39449 15.8499C5.11501 14.3149 4.43034 12.3708 4.4655 10.3728C4.41552 8.7936 4.6654 5.93512 6.88422 4.51584C8.39485 3.76247 10.0764 3.41787 11.7616 3.51636C12.0191 3.51583 12.2765 3.52113 12.5335 3.53224L13.3368 3.57014C13.75 3.58966 14.1014 3.26996 14.1209 2.8567L14.1213 2.8478C14.1408 2.43454 13.8211 2.08319 13.4079 2.06368L12.8982 2.03963C12.52 2.01717 12.141 2.00632 11.7616 2.00718C9.80666 1.9373 7.86722 2.37824 6.13462 3.2865C4.00573 4.59581 2.90631 7.13449 3.00626 10.4227C2.9664 12.7839 3.78704 15.0789 5.31504 16.8794C6.76429 18.3986 9.51286 19.1482 11.6817 19.2681V20.8772C11.6841 21.0313 11.7178 21.1832 11.7805 21.3238C11.8433 21.4645 11.934 21.591 12.047 21.6956C12.16 21.8003 12.2931 21.8808 12.4382 21.9326C12.5832 21.9844 12.7373 22.0062 12.8911 21.9967L12.9011 21.9767C13.133 21.9582 13.3533 21.8673 13.5307 21.7168L13.6411 21.6193C14.7976 20.5966 15.7056 19.7936 16.5291 19.0282L16.9989 18.5985C17.8872 17.848 18.6915 17.0036 19.3976 16.0798C20.0618 15.0039 20.5334 13.8348 20.8042 12.6235Z" fill="#454545"/>
</svg>
