<svg width="24" height="24" viewBox="0 0 24 24" fill="none" xmlns="http://www.w3.org/2000/svg">
<path fill-rule="evenodd" clip-rule="evenodd" d="M13.437 21.9359C13.5822 21.9877 13.7363 22.0095 13.8902 22L13.9001 21.98C14.1313 21.9578 14.3506 21.8673 14.5301 21.72C15.3401 21.03 16.4502 20.03 17.5302 19.03L18.0001 18.59C18.8883 17.8461 19.693 17.0078 20.4001 16.09C21.9689 13.5556 22.4688 10.5025 21.7901 7.60004C21.5483 6.28894 20.9091 5.08393 19.9592 4.14838C19.0093 3.21283 17.7948 2.59199 16.4801 2.37004C15.2559 2.12121 14.0095 1.99724 12.7601 2.00004C10.7907 1.92311 8.83555 2.36448 7.09015 3.28004C5.64767 4.20911 4.6333 5.67312 4.27015 7.35004C4.22108 7.54364 4.25094 7.74881 4.35315 7.92041C4.45535 8.092 4.62154 8.21597 4.81515 8.26504C5.00876 8.3141 5.21393 8.28425 5.38552 8.18204C5.55712 8.07983 5.68108 7.91364 5.73015 7.72004C5.86009 7.06752 6.11895 6.44749 6.49157 5.89629C6.86419 5.34509 7.34307 4.8738 7.90015 4.51004C9.41157 3.75625 11.0941 3.41148 12.7801 3.51004C13.9287 3.50755 15.0746 3.62146 16.2002 3.85004C17.2183 4.00889 18.1625 4.47845 18.9036 5.19446C19.6446 5.91047 20.1464 6.83796 20.3401 7.85004C20.9395 10.3526 20.5261 12.9907 19.1902 15.19C18.554 16.0129 17.8371 16.77 17.0501 17.45L16.5601 17.89C15.7501 18.65 14.9201 19.38 14.2001 20V18.72C14.2002 18.4725 14.1025 18.2349 13.9284 18.0589C13.7542 17.8829 13.5177 17.7827 13.2702 17.78C11.3302 17.78 8.62015 17.1 7.41015 15.85C7.00826 15.4326 6.67118 14.9573 6.41015 14.44C6.31865 14.2623 6.16031 14.1283 5.96996 14.0673C5.77961 14.0064 5.57284 14.0235 5.39515 14.115C5.21745 14.2065 5.08339 14.3649 5.02244 14.5552C4.96149 14.7456 4.97865 14.9523 5.07015 15.13C5.39691 15.7701 5.81457 16.3596 6.31015 16.88C7.76015 18.4 10.5101 19.15 12.6802 19.27V20.88C12.6826 21.0341 12.7162 21.1861 12.779 21.3269C12.8418 21.4676 12.9325 21.5941 13.0456 21.6988C13.1587 21.8035 13.2919 21.8842 13.437 21.9359ZM12.0901 11.21C12.0944 11.2666 12.0944 11.3234 12.0901 11.38C12.0946 11.4332 12.0946 11.4867 12.0901 11.54C12.0661 11.5965 12.0359 11.6501 12.0001 11.7C11.9575 11.7561 11.9206 11.8164 11.8901 11.88L9.6701 14.36C9.51088 14.5375 9.2877 14.6446 9.04958 14.6578C8.81146 14.6709 8.57786 14.589 8.4001 14.43C8.22255 14.2708 8.11545 14.0476 8.10232 13.8095C8.0892 13.5713 8.17112 13.3377 8.3301 13.16L9.2101 12.16H2.7501C2.5114 12.16 2.28248 12.0652 2.1137 11.8964C1.94492 11.7276 1.8501 11.4987 1.8501 11.26C1.8501 11.0213 1.94492 10.7924 2.1137 10.6236C2.28248 10.4548 2.5114 10.36 2.7501 10.36H9.2101L8.3701 9.35998C8.29014 9.27257 8.22843 9.17008 8.18859 9.05851C8.14876 8.94694 8.1316 8.82855 8.13812 8.71026C8.14464 8.59198 8.17471 8.47618 8.22656 8.36967C8.27842 8.26316 8.35101 8.16807 8.4401 8.08998C8.61786 7.931 8.85146 7.84908 9.08958 7.8622C9.3277 7.87533 9.55088 7.98243 9.7101 8.15998L11.9301 10.61C11.9557 10.6452 11.9791 10.6819 12.0001 10.72C12.0337 10.7677 12.0638 10.8178 12.0901 10.87C12.0949 10.9265 12.0949 10.9834 12.0901 11.04C12.0956 11.0965 12.0956 11.1534 12.0901 11.21Z" fill="black"/>
</svg>
