<svg width="24" height="24" viewBox="0 0 24 24" fill="none" xmlns="http://www.w3.org/2000/svg">
<path d="M12.0001 3.5C16.6201 3.5 20.3801 6.85 20.3801 10.97C20.3801 15.09 16.6401 18.43 12.0001 18.43H11.7301L11.4801 18.53L7.14014 20.15V17.07L6.56014 16.62C5.67279 15.9721 4.94744 15.1275 4.44086 14.1525C3.93428 13.1776 3.66022 12.0986 3.64014 11C3.64014 6.85 7.40014 3.5 12.0001 3.5ZM12.0001 2C6.56014 2 2.14014 6 2.14014 11C2.15561 12.333 2.47968 13.6443 3.08693 14.831C3.69417 16.0177 4.56809 17.0477 5.64014 17.84V20.84C5.63566 21.0047 5.67192 21.1679 5.74571 21.3151C5.81949 21.4624 5.92851 21.5892 6.06308 21.6842C6.19765 21.7791 6.3536 21.8394 6.51708 21.8596C6.68055 21.8798 6.84649 21.8594 7.00014 21.8L12.0001 19.93C17.4601 19.93 21.8801 15.93 21.8801 10.93C21.8801 5.93 17.4801 2 12.0001 2Z" fill="black"/>
<path d="M11.9998 13.7799L11.1398 10.6399L7.90976 12.9999C7.7493 13.1206 7.54748 13.1726 7.34869 13.1444C7.1499 13.1163 6.97043 13.0103 6.84976 12.8499C6.72908 12.6894 6.67709 12.4876 6.70522 12.2888C6.73335 12.09 6.8393 11.9106 6.99976 11.7899L11.9998 8.13989L12.8798 11.3499L16.1398 9.10989C16.3042 8.99585 16.5072 8.9518 16.7041 8.98743C16.901 9.02306 17.0757 9.13546 17.1898 9.29989C17.3038 9.46433 17.3479 9.66733 17.3122 9.86424C17.2766 10.0612 17.1642 10.2358 16.9998 10.3499L11.9998 13.7799Z" fill="black"/>
</svg>
