<svg width="24" height="24" viewBox="0 0 24 24" fill="none" xmlns="http://www.w3.org/2000/svg">
<path d="M11.9998 3.5C13.2402 3.50264 14.4291 3.99656 15.3062 4.87366C16.1833 5.75076 16.6772 6.9396 16.6798 8.18V15.82C16.6798 17.0612 16.1868 18.2516 15.3091 19.1293C14.4314 20.0069 13.241 20.5 11.9998 20.5C10.7586 20.5 9.56823 20.0069 8.69056 19.1293C7.81289 18.2516 7.31982 17.0612 7.31982 15.82V8.18C7.32247 6.9396 7.81638 5.75076 8.69348 4.87366C9.57058 3.99656 10.7594 3.50264 11.9998 3.5V3.5ZM11.9998 2C10.3608 2 8.78888 2.65111 7.6299 3.81008C6.47093 4.96905 5.81982 6.54096 5.81982 8.18V15.82C5.81982 17.459 6.47093 19.0309 7.6299 20.1899C8.78888 21.3489 10.3608 22 11.9998 22C13.6389 22 15.2108 21.3489 16.3697 20.1899C17.5287 19.0309 18.1798 17.459 18.1798 15.82V8.18C18.1798 7.36843 18.02 6.56481 17.7094 5.81502C17.3988 5.06522 16.9436 4.38395 16.3697 3.81008C15.7959 3.23621 15.1146 2.781 14.3648 2.47042C13.615 2.15985 12.8114 2 11.9998 2V2Z" fill="black"/>
<path d="M12 8.88989C11.8019 8.8873 11.6126 8.80745 11.4725 8.66736C11.3324 8.52726 11.2526 8.338 11.25 8.13989V6.13989C11.25 5.94098 11.329 5.75021 11.4697 5.60956C11.6103 5.46891 11.8011 5.38989 12 5.38989C12.1989 5.38989 12.3897 5.46891 12.5303 5.60956C12.671 5.75021 12.75 5.94098 12.75 6.13989V8.13989C12.7474 8.338 12.6676 8.52726 12.5275 8.66736C12.3874 8.80745 12.1981 8.8873 12 8.88989Z" fill="black"/>
</svg>
