<svg width="24" height="24" viewBox="0 0 24 24" fill="none" xmlns="http://www.w3.org/2000/svg">
<path fill-rule="evenodd" clip-rule="evenodd" d="M11.4863 21.8101C11.6261 21.9327 11.8054 22.0002 11.9908 22L11.9933 22L11.9937 22L11.9978 21.9999C12.1941 21.9987 12.3821 21.9199 12.521 21.7803C12.5367 21.7645 12.5517 21.7481 12.5658 21.7311L16.0322 18.5118C16.1198 18.4511 16.1934 18.3722 16.2481 18.2806C16.3029 18.1889 16.3375 18.0866 16.3496 17.9804C16.3618 17.8742 16.3512 17.7667 16.3186 17.6649C16.2859 17.5632 16.232 17.4696 16.1605 17.3906C16.0889 17.3115 16.0014 17.2487 15.9037 17.2064C15.806 17.1641 15.7004 17.1433 15.594 17.1453C15.4877 17.1474 15.383 17.1723 15.287 17.2183C15.191 17.2644 15.1059 17.3305 15.0374 17.4123L12.7395 19.54V12.7553H19.5716L17.4545 15.0634C17.3148 15.2039 17.2363 15.3945 17.2363 15.5931C17.2363 15.7918 17.3148 15.9823 17.4545 16.1228C17.5908 16.254 17.7732 16.3259 17.9619 16.3227C18.0601 16.3266 18.1581 16.311 18.2503 16.2766C18.3425 16.2423 18.4271 16.1901 18.4991 16.1228L21.7819 12.5546C21.9217 12.4141 22.0001 12.2236 22.0001 12.0249C22.0001 11.8263 21.9217 11.6357 21.7819 11.4952C21.7444 11.4585 21.7035 11.4261 21.66 11.3983L18.4294 7.88702C18.2895 7.74664 18.0999 7.66779 17.9022 7.66779C17.7045 7.66779 17.5148 7.74664 17.3749 7.88702C17.2352 8.02758 17.1567 8.2181 17.1567 8.41675C17.1567 8.6154 17.2352 8.80593 17.3749 8.94649L19.4927 11.2553H12.7395V4.46966L15.0377 6.59759C15.1746 6.72787 15.3565 6.79956 15.5451 6.79749C15.6479 6.79811 15.7497 6.77709 15.8439 6.73578C15.9382 6.69446 16.0227 6.63377 16.0922 6.55761C16.2319 6.41706 16.3104 6.22653 16.3104 6.02788C16.3104 5.82923 16.2319 5.6387 16.0922 5.49815L12.5407 2.19981C12.4683 2.13349 12.3835 2.08216 12.2912 2.04877C12.2257 2.02506 12.1574 2.01072 12.0882 2.00607C12.0569 2.00205 12.0252 2 11.9934 2C11.9615 2 11.9298 2.00206 11.8984 2.00609C11.8294 2.01077 11.7611 2.0251 11.6957 2.04877C11.6035 2.08216 11.5187 2.13349 11.4462 2.19981L7.89476 5.49815C7.75504 5.6387 7.67656 5.82923 7.67656 6.02788C7.67656 6.22653 7.75504 6.41706 7.89476 6.55761C7.96423 6.63377 8.04881 6.69446 8.14305 6.73578C8.23729 6.77709 8.33909 6.79811 8.44191 6.79749C8.63044 6.79956 8.81238 6.72787 8.94926 6.59759L11.2473 4.46983V11.2553H4.4875L6.61176 8.92645C6.69318 8.85766 6.75901 8.77217 6.80484 8.67571C6.85068 8.57926 6.87545 8.47407 6.8775 8.3672C6.87955 8.26034 6.85883 8.15427 6.81674 8.05611C6.77464 7.95795 6.71214 7.86997 6.63342 7.79807C6.5547 7.72618 6.46159 7.67202 6.36033 7.63925C6.25908 7.60647 6.15202 7.59583 6.04633 7.60803C5.94064 7.62024 5.83877 7.65501 5.74756 7.71002C5.65635 7.76502 5.5779 7.83899 5.51747 7.92696L2.35187 11.3677C2.31366 11.3933 2.27761 11.4225 2.24424 11.4552C2.1717 11.5214 2.11286 11.6014 2.07109 11.6905C2.02932 11.7796 2.00545 11.8761 2.00083 11.9745C1.99621 12.0729 2.01094 12.1713 2.04417 12.2639C2.0774 12.3566 2.12849 12.4418 2.1945 12.5146L5.47737 16.0828C5.54722 16.1585 5.63188 16.2189 5.72603 16.2601C5.82018 16.3014 5.92179 16.3227 6.02452 16.3227C6.12752 16.3246 6.22972 16.3042 6.32415 16.2628C6.41857 16.2214 6.503 16.16 6.57166 16.0828C6.71138 15.9423 6.78986 15.7517 6.78986 15.5531C6.78986 15.3544 6.71138 15.1639 6.57166 15.0234L4.49133 12.7553H11.2473V19.5582L8.92967 17.4123C8.78099 17.3092 8.60013 17.2638 8.42067 17.2845C8.2412 17.3053 8.07531 17.3907 7.9538 17.525C7.83228 17.6593 7.76339 17.8333 7.7599 18.0148C7.75642 18.1963 7.81859 18.3728 7.93486 18.5118L11.4863 21.8101Z" fill="black"/>
</svg>
