<svg width="24" height="24" viewBox="0 0 24 24" fill="none" xmlns="http://www.w3.org/2000/svg">
<path fill-rule="evenodd" clip-rule="evenodd" d="M11.4862 21.8101C11.626 21.9327 11.8052 22.0002 11.9907 22L11.9931 22L11.9935 22L11.9977 21.9999C12.194 21.9987 12.382 21.9199 12.5208 21.7803C12.5366 21.7645 12.5515 21.7481 12.5657 21.7311L16.0321 18.5118C16.1196 18.4511 16.1932 18.3722 16.248 18.2806C16.3027 18.1889 16.3374 18.0866 16.3495 17.9804C16.3616 17.8742 16.3511 17.7667 16.3184 17.6649C16.2858 17.5632 16.2319 17.4696 16.1603 17.3906C16.0888 17.3115 16.0012 17.2487 15.9035 17.2064C15.8058 17.1641 15.7003 17.1433 15.5939 17.1453C15.4875 17.1474 15.3828 17.1723 15.2868 17.2183C15.1908 17.2644 15.1057 17.3305 15.0373 17.4123L12.7394 19.54V12.7553H19.5714L17.4544 15.0634C17.3147 15.2039 17.2362 15.3945 17.2362 15.5931C17.2362 15.7918 17.3147 15.9823 17.4544 16.1228C17.5907 16.254 17.773 16.3259 17.9618 16.3227C18.06 16.3266 18.158 16.311 18.2502 16.2766C18.3424 16.2423 18.4269 16.1901 18.4989 16.1228L21.7818 12.5546C21.9215 12.4141 22 12.2236 22 12.0249C22 11.8263 21.9215 11.6357 21.7818 11.4952C21.7443 11.4585 21.7034 11.4261 21.6598 11.3983L18.4293 7.88702C18.2894 7.74664 18.0998 7.66779 17.9021 7.66779C17.7043 7.66779 17.5147 7.74664 17.3748 7.88702C17.2351 8.02758 17.1566 8.2181 17.1566 8.41675C17.1566 8.6154 17.2351 8.80593 17.3748 8.94649L19.4926 11.2553H12.7394V4.46966L15.0376 6.59759C15.1745 6.72787 15.3564 6.79956 15.5449 6.79749C15.6477 6.79811 15.7496 6.77709 15.8438 6.73578C15.938 6.69446 16.0226 6.63377 16.0921 6.55761C16.2318 6.41706 16.3103 6.22653 16.3103 6.02788C16.3103 5.82923 16.2318 5.6387 16.0921 5.49815L12.5406 2.19981C12.4681 2.13349 12.3833 2.08216 12.2911 2.04877C12.2256 2.02506 12.1572 2.01072 12.088 2.00607C12.0568 2.00205 12.0251 2 11.9933 2C11.9613 2 11.9296 2.00206 11.8983 2.00609C11.8292 2.01077 11.761 2.0251 11.6956 2.04877C11.6034 2.08216 11.5186 2.13349 11.4461 2.19981L7.89463 5.49815C7.75491 5.6387 7.67643 5.82923 7.67643 6.02788C7.67643 6.22653 7.75491 6.41706 7.89463 6.55761C7.9641 6.63377 8.04868 6.69446 8.14292 6.73578C8.23716 6.77709 8.33896 6.79811 8.44178 6.79749C8.63031 6.79956 8.81225 6.72787 8.94913 6.59759L11.2472 4.46983V11.2553H4.48737L6.61163 8.92645C6.69305 8.85766 6.75888 8.77217 6.80471 8.67571C6.85055 8.57926 6.87532 8.47407 6.87737 8.3672C6.87942 8.26034 6.8587 8.15427 6.81661 8.05611C6.77451 7.95795 6.71201 7.86997 6.63329 7.79807C6.55457 7.72618 6.46146 7.67202 6.36021 7.63925C6.25895 7.60647 6.15189 7.59583 6.0462 7.60803C5.94051 7.62024 5.83864 7.65501 5.74743 7.71002C5.65622 7.76502 5.57777 7.83899 5.51734 7.92696L2.35174 11.3677C2.31353 11.3933 2.27748 11.4225 2.24411 11.4552C2.17157 11.5214 2.11273 11.6014 2.07096 11.6905C2.02919 11.7796 2.00532 11.8761 2.0007 11.9745C1.99608 12.0729 2.01081 12.1713 2.04404 12.2639C2.07727 12.3566 2.12836 12.4418 2.19437 12.5146L5.47724 16.0828C5.54709 16.1585 5.63175 16.2189 5.7259 16.2601C5.82005 16.3014 5.92166 16.3227 6.02439 16.3227C6.12739 16.3246 6.22959 16.3042 6.32402 16.2628C6.41844 16.2214 6.50287 16.16 6.57153 16.0828C6.71125 15.9423 6.78973 15.7517 6.78973 15.5531C6.78973 15.3544 6.71125 15.1639 6.57153 15.0234L4.4912 12.7553H11.2472V19.5582L8.92954 17.4123C8.78086 17.3092 8.6 17.2638 8.42054 17.2845C8.24107 17.3053 8.07519 17.3907 7.95367 17.525C7.83215 17.6593 7.76326 17.8333 7.75977 18.0148C7.75629 18.1963 7.81846 18.3728 7.93473 18.5118L11.4862 21.8101Z" fill="#505F79"/>
</svg>
