<svg width="24" height="24" viewBox="0 0 24 24" fill="none" xmlns="http://www.w3.org/2000/svg">
<path d="M21.9998 17.6099L20.5798 15.6099V7.51995C20.5798 7.05582 20.3955 6.6107 20.0673 6.28251C19.7391 5.95432 19.294 5.76995 18.8298 5.76995H5.82985C5.59374 5.76055 5.35815 5.79879 5.13714 5.88239C4.91612 5.96599 4.71421 6.09324 4.54343 6.25655C4.37265 6.41987 4.23651 6.6159 4.14312 6.83295C4.04973 7.05001 4.001 7.28365 3.99985 7.51995V15.5999L2.17985 17.4399C2.00169 17.6217 1.88078 17.8516 1.83211 18.1014C1.78344 18.3512 1.80914 18.6097 1.90602 18.8451C2.00291 19.0804 2.16673 19.282 2.37717 19.4251C2.5876 19.5682 2.8354 19.6464 3.08985 19.6499H20.9098C21.1405 19.6451 21.3656 19.5786 21.5617 19.4572C21.7579 19.3359 21.9179 19.1641 22.0252 18.9599C22.1324 18.7556 22.1829 18.5264 22.1714 18.296C22.1599 18.0656 22.0869 17.8425 21.9598 17.6499L21.9998 17.6099ZM5.51985 7.51995C5.51985 7.45364 5.54618 7.39006 5.59307 7.34317C5.63995 7.29629 5.70354 7.26995 5.76985 7.26995H18.7698C18.8362 7.26995 18.8997 7.29629 18.9466 7.34317C18.9935 7.39006 19.0198 7.45364 19.0198 7.51995V15.1599H5.51985V7.51995ZM3.59985 18.1499L5.07985 16.6599H19.4598L20.4598 18.1499H3.59985Z" fill="black"/>
</svg>
