<svg width="24" height="24" viewBox="0 0 24 24" fill="none" xmlns="http://www.w3.org/2000/svg">
<path d="M4.50167 10V5.75C4.50167 4.23122 5.73289 3 7.25167 3H8.25167C8.66589 3 9.00167 3.33579 9.00167 3.75C9.00167 4.16421 8.66589 4.5 8.25167 4.5H7.25167C6.56132 4.5 6.00167 5.05964 6.00167 5.75V10C6.00167 11.5188 4.77046 12.75 3.25168 12.75H2.75049C2.33627 12.75 2.00049 12.4142 2.00049 12C2.00049 11.5858 2.33627 11.25 2.75049 11.25H3.25168C3.94203 11.25 4.50167 10.6904 4.50167 10Z" fill="#282828"/>
<path d="M6.00024 18.25L6.0003 14C6.0003 12.4812 4.76909 11.25 3.2503 11.25H2.7503C2.33609 11.25 2.0003 11.5858 2.0003 12C2.0003 12.4142 2.33609 12.75 2.7503 12.75H3.2503C3.94066 12.75 4.5003 13.3096 4.5003 14L4.50024 18.25C4.50024 19.7688 5.73146 21 7.25024 21H8.25024C8.66446 21 9.00024 20.6642 9.00024 20.25C9.00024 19.8358 8.66446 19.5 8.25024 19.5H7.25024C6.55989 19.5 6.00024 18.9404 6.00024 18.25Z" fill="#282828"/>
<path d="M19.5015 10V5.75C19.5015 4.23122 18.2703 3 16.7515 3H15.7515C15.3373 3 15.0015 3.33579 15.0015 3.75C15.0015 4.16421 15.3373 4.5 15.7515 4.5H16.7515C17.4419 4.5 18.0015 5.05964 18.0015 5.75V10C18.0015 11.5188 19.2327 12.75 20.7515 12.75H21.2527C21.6669 12.75 22.0027 12.4142 22.0027 12C22.0027 11.5858 21.6669 11.25 21.2527 11.25H20.7515C20.0611 11.25 19.5015 10.6904 19.5015 10Z" fill="#282828"/>
<path d="M18.0027 18.25V14C18.0027 12.4812 19.2339 11.25 20.7527 11.25H21.2527C21.6669 11.25 22.0027 11.5858 22.0027 12C22.0027 12.4142 21.6669 12.75 21.2527 12.75H20.7527C20.0623 12.75 19.5027 13.3096 19.5027 14V18.25C19.5027 19.7688 18.2715 21 16.7527 21H15.7527C15.3385 21 15.0027 20.6642 15.0027 20.25C15.0027 19.8358 15.3385 19.5 15.7527 19.5H16.7527C17.443 19.5 18.0027 18.9404 18.0027 18.25Z" fill="#282828"/>
</svg>
