<svg width="24" height="24" viewBox="0 0 24 24" fill="none" xmlns="http://www.w3.org/2000/svg">
<path fill-rule="evenodd" clip-rule="evenodd" d="M7.87991 2.41C7.91977 2.40518 7.96006 2.40518 7.99991 2.41L8.04991 2.43L8.13991 2.5C8.16991 2.55 8.23991 2.55 8.23991 2.55L11.2399 5.22C11.3215 5.28868 11.3871 5.37441 11.432 5.47116C11.4769 5.56791 11.5001 5.67333 11.4999 5.78C11.496 5.96056 11.4288 6.134 11.3099 6.27C11.1774 6.4178 10.9923 6.50787 10.7942 6.52095C10.5961 6.53403 10.4007 6.46909 10.2499 6.34L8.49991 4.78L8.49991 16C8.49991 16.1989 8.42089 16.3897 8.28024 16.5303C8.13959 16.671 7.94882 16.75 7.74991 16.75C7.551 16.75 7.36023 16.671 7.21958 16.5303C7.07893 16.3897 6.99991 16.1989 6.99991 16L6.99991 4.78L5.24991 6.34C5.09909 6.46909 4.90374 6.53403 4.70565 6.52095C4.50756 6.50787 4.32245 6.4178 4.18991 6.27C4.12526 6.19245 4.07716 6.10248 4.04858 6.00564C4.02 5.9088 4.01153 5.80714 4.02371 5.70691C4.03589 5.60668 4.06845 5.51 4.11939 5.42282C4.17033 5.33565 4.23857 5.25982 4.31991 5.2L7.31991 2.53C7.34991 2.48 7.40991 2.48 7.40991 2.48L7.50991 2.41C7.55311 2.40521 7.59671 2.40521 7.63991 2.41L7.75991 2.41L7.87991 2.41ZM15.2701 19.5802L15.2701 8.39024C15.2701 8.19132 15.3491 8.00056 15.4898 7.8599C15.6304 7.71925 15.8212 7.64024 16.0201 7.64024C16.219 7.64024 16.4098 7.71925 16.5504 7.8599C16.6911 8.00056 16.7701 8.19132 16.7701 8.39024L16.7701 19.5802L18.5201 18.0002C18.6733 17.9035 18.8567 17.8664 19.0355 17.8959C19.2143 17.9254 19.3761 18.0194 19.4901 18.1602C19.5556 18.2329 19.606 18.3178 19.6384 18.4101C19.6709 18.5023 19.6847 18.6001 19.6791 18.6977C19.6735 18.7954 19.6487 18.891 19.6059 18.9789C19.5632 19.0669 19.5034 19.1455 19.4301 19.2102L16.4301 21.8802C16.4101 21.9402 16.3401 21.9402 16.3401 21.9402C16.3106 21.966 16.2767 21.9863 16.2401 22.0002C16.197 22.0058 16.1533 22.0058 16.1101 22.0002L16.0001 22.0002L15.8401 21.9102C15.797 21.9158 15.7533 21.9158 15.7101 21.9102C15.6735 21.8963 15.6396 21.876 15.6101 21.8502C15.5779 21.8338 15.5477 21.8136 15.5201 21.7902L12.5201 19.1202C12.4456 19.0563 12.3848 18.9779 12.3413 18.8899C12.2977 18.8019 12.2724 18.706 12.2668 18.608C12.2612 18.51 12.2754 18.4118 12.3087 18.3194C12.3419 18.227 12.3934 18.1423 12.4601 18.0702C12.5927 17.9224 12.7778 17.8324 12.9759 17.8193C13.1739 17.8062 13.3693 17.8711 13.5201 18.0002L15.2701 19.5802Z" fill="#454545"/>
</svg>
