<svg width="24" height="24" viewBox="0 0 24 24" fill="none" xmlns="http://www.w3.org/2000/svg">
<path d="M2.1712 7.04005H3.2932V5.61805H2.3332V4.62805H3.3352L3.4732 3.80005H4.4332V7.04005H5.3752V8.00005H2.1712V7.04005Z" fill="#454545"/>
<path d="M2.6452 14C2.4772 14 2.3492 13.968 2.2612 13.904C2.1732 13.836 2.1292 13.736 2.1292 13.604C2.1292 13.5201 2.1412 13.448 2.1652 13.388C2.1892 13.324 2.2332 13.258 2.2972 13.19L3.4312 11.984L3.6052 11.798C3.7972 11.598 3.9352 11.438 4.0192 11.318C4.1072 11.198 4.1512 11.076 4.1512 10.952C4.1512 10.748 4.0232 10.646 3.7672 10.646C3.5912 10.646 3.4552 10.694 3.3592 10.79C3.2632 10.886 3.2152 11.026 3.2152 11.21H2.1352C2.1352 10.746 2.2712 10.386 2.5432 10.13C2.8152 9.87005 3.2352 9.74005 3.8032 9.74005C4.2792 9.74005 4.6432 9.84005 4.8952 10.04C5.1472 10.236 5.2732 10.51 5.2732 10.862C5.2732 11.058 5.2272 11.246 5.1352 11.426C5.0472 11.606 4.8832 11.822 4.6432 12.074L3.7612 13.01H5.2492V14H2.6452Z" fill="#454545"/>
<path d="M3.7312 20.06C3.1752 20.06 2.7592 19.932 2.4832 19.676C2.2112 19.416 2.0752 19.054 2.0752 18.59H3.1792C3.1792 18.77 3.2252 18.91 3.3172 19.01C3.4092 19.106 3.5252 19.154 3.6652 19.154C3.8172 19.154 3.9372 19.11 4.0252 19.022C4.1132 18.934 4.1572 18.808 4.1572 18.644C4.1572 18.448 4.1272 18.302 4.0672 18.206C4.0112 18.106 3.8972 18.056 3.7252 18.056H3.4852C3.3612 18.056 3.2632 18.046 3.1912 18.026C3.1192 18.006 3.0672 17.966 3.0352 17.906C3.0072 17.862 2.9932 17.81 2.9932 17.75C2.9932 17.638 3.0472 17.52 3.1552 17.396L3.7012 16.754H2.2132V15.8H4.6372C4.9852 15.8 5.1592 15.93 5.1592 16.19C5.1592 16.274 5.1472 16.348 5.1232 16.412C5.0992 16.472 5.0552 16.538 4.9912 16.61L4.2892 17.45C4.6132 17.506 4.8572 17.642 5.0212 17.858C5.1892 18.07 5.2732 18.336 5.2732 18.656C5.2732 18.916 5.2152 19.152 5.0992 19.364C4.9832 19.576 4.8092 19.746 4.5772 19.874C4.3452 19.998 4.0632 20.06 3.7312 20.06Z" fill="#454545"/>
<path d="M8.00001 11.7001C8.00001 11.1478 8.44773 10.7001 9.00001 10.7001H21C21.5523 10.7001 22 11.1478 22 11.7001V12.5001C22 13.0523 21.5523 13.5001 21 13.5001H9.00001C8.44773 13.5001 8.00001 13.0523 8.00001 12.5001V11.7001Z" fill="#454545"/>
<path d="M8.00001 5.60005C8.00001 5.04777 8.44773 4.60006 9.00001 4.60006H21C21.5523 4.60006 22 5.04777 22 5.60006V6.40006C22 6.95234 21.5523 7.40006 21 7.40006H9.00001C8.44773 7.40006 8.00001 6.95234 8.00001 6.40005V5.60005Z" fill="#454545"/>
<path d="M8.00001 17.5C8.00001 16.9478 8.44773 16.5 9.00001 16.5H21C21.5523 16.5 22 16.9478 22 17.5V18.3C22 18.8523 21.5523 19.3 21 19.3H9.00001C8.44773 19.3 8.00001 18.8523 8.00001 18.3V17.5Z" fill="#454545"/>
</svg>
