<svg width="24" height="24" viewBox="0 0 24 24" fill="none" xmlns="http://www.w3.org/2000/svg">
<path d="M9.17757 22.25C8.90343 22.25 8.6729 22.1828 8.48598 22.0484C8.29907 21.9017 8.17445 21.7184 8.11215 21.4985C8.04984 21.2785 8.04984 21.0402 8.11215 20.7836C8.18692 20.527 8.33022 20.2887 8.54206 20.0687L13.1215 14.6797V15.3213H9.06542C8.72897 15.3213 8.46729 15.2296 8.28037 15.0463C8.09346 14.863 8 14.6125 8 14.2948C8 13.9526 8.09346 13.696 8.28037 13.5249C8.46729 13.3416 8.72897 13.25 9.06542 13.25H14.4673C14.8037 13.25 15.0717 13.3233 15.271 13.47C15.4704 13.6166 15.6012 13.7999 15.6636 14.0199C15.7383 14.2276 15.7445 14.4598 15.6822 14.7164C15.6324 14.9608 15.5016 15.193 15.2897 15.4129L10.5981 20.9119V20.197H14.9346C15.6449 20.197 16 20.5392 16 21.2235C16 21.5535 15.9065 21.8101 15.7196 21.9934C15.5327 22.1645 15.271 22.25 14.9346 22.25H9.17757Z" fill="#454545"/>
<path fill-rule="evenodd" clip-rule="evenodd" d="M11.2275 11.25C10.5755 11.25 9.98134 11.12 9.45042 10.8545C8.92236 10.5904 8.50365 10.2278 8.20251 9.76531C7.90011 9.30087 7.75 8.77843 7.75 8.20508C7.75 7.5312 7.92102 6.96833 8.29191 6.54703C8.66176 6.11514 9.2416 5.83398 9.98933 5.67572C10.7359 5.50609 11.7118 5.42383 12.9099 5.42383H13.2779V5.375C13.2779 4.8852 13.1674 4.60931 13.0151 4.469L13.0151 4.46907L13.0102 4.46436C12.8519 4.31038 12.545 4.20117 12.0172 4.20117C11.73 4.20117 11.4109 4.23934 11.0589 4.31817L11.059 4.31825L11.0529 4.31945C10.7188 4.38566 10.3412 4.50256 9.91916 4.67283C9.63429 4.80422 9.34809 4.85193 9.07812 4.77063L9.07802 4.77098L9.06525 4.76637C8.82202 4.67847 8.62689 4.52726 8.49213 4.31262L8.49203 4.31268L8.48817 4.30608C8.36323 4.09288 8.29936 3.86188 8.29936 3.61719C8.29936 3.35941 8.3697 3.11632 8.50594 2.89207C8.65524 2.63398 8.8949 2.45578 9.19758 2.34675C9.74673 2.11983 10.2662 1.96228 10.7552 1.87678L10.7562 1.87661C11.2479 1.7927 11.7029 1.75 12.1202 1.75C13.023 1.75 13.7836 1.88747 14.3888 2.17763C15.0099 2.45817 15.4803 2.90108 15.7922 3.50096C16.1032 4.08753 16.25 4.82862 16.25 5.70898V9.61133C16.25 10.082 16.1381 10.4832 15.8788 10.7783C15.6139 11.0796 15.2401 11.2148 14.7983 11.2148C14.3559 11.2148 13.9799 11.0795 13.7051 10.7833L13.7051 10.7834L13.7006 10.7783C13.5701 10.6298 13.4758 10.4723 13.4156 10.3011C13.1779 10.5942 12.8779 10.826 12.5198 10.9971L12.5198 10.9971L12.5134 11C12.1327 11.1689 11.7023 11.25 11.2275 11.25ZM13.4474 9.04179C13.3507 9.40137 13.2594 9.68961 13.0562 9.9496L13.0554 9.9506C12.8642 10.1979 12.6166 10.3961 12.3074 10.5444C12.0021 10.6792 11.6439 10.75 11.2275 10.75C10.6434 10.75 10.1274 10.634 9.67405 10.4073C9.21784 10.1791 8.86974 9.87373 8.62152 9.4925C8.37456 9.11319 8.25 8.68641 8.25 8.20508C8.25 7.61411 8.39903 7.18142 8.66817 6.87632L8.67077 6.87337L8.67074 6.87335C8.94155 6.55646 9.40206 6.31085 10.0946 6.16452L10.0984 6.16372L10.0984 6.16369C10.7936 6.00549 11.7284 5.92383 12.9099 5.92383H13.5279C13.666 5.92383 13.7779 5.8119 13.7779 5.67383V5.375C13.7779 4.83503 13.6601 4.38533 13.3565 4.10361C13.0568 3.81401 12.5866 3.70117 12.0172 3.70117C11.6872 3.70117 11.332 3.74481 10.9526 3.82959C10.5795 3.9038 10.1703 4.03203 9.72606 4.21158L9.71411 4.2164L9.71425 4.21671C9.50133 4.3158 9.34507 4.32681 9.22848 4.29368C9.08747 4.24133 8.98764 4.16004 8.91758 4.0499C8.83785 3.91258 8.79936 3.76967 8.79936 3.61719C8.79936 3.45416 8.84287 3.29976 8.93442 3.14978L8.93788 3.14411L8.9378 3.14407C9.01653 3.00703 9.15167 2.89386 9.37143 2.81559L9.38329 2.81136L9.38317 2.81107C9.90758 2.594 10.3933 2.44768 10.8409 2.36939C11.3103 2.2893 11.7365 2.25 12.1202 2.25C12.9785 2.25 13.659 2.38164 14.175 2.62962L14.1805 2.6323L14.1806 2.63223C14.7022 2.86723 15.0891 3.23215 15.349 3.73244L15.35 3.7344L15.35 3.7344C15.6108 4.22579 15.75 4.8789 15.75 5.70898V9.61133C15.75 10.0078 15.6559 10.2746 15.5032 10.4482C15.356 10.6157 15.1347 10.7148 14.7983 10.7148C14.464 10.7148 14.2339 10.6167 14.0739 10.4456C13.9321 10.2834 13.8615 10.1196 13.8409 9.92453C13.8247 9.77161 13.8385 9.59249 13.8838 9.37158L13.957 9.09375L13.9483 9.09161C13.9606 8.97153 13.8843 8.85691 13.7639 8.82483C13.6404 8.79191 13.5138 8.8575 13.4675 8.97331L13.4648 8.97266L13.4474 9.04179ZM13.2718 10.118L13.2532 10.1035L13.2718 10.1179L13.2718 10.118ZM14.0739 10.4456L14.0717 10.4432L13.8884 10.6133L14.0762 10.4482L14.0739 10.4456ZM10.8409 2.36939L10.8413 2.36931L10.7983 2.12305L10.8403 2.36948L10.8409 2.36939ZM8.91758 4.0499L8.91559 4.04676L8.70386 4.17969L8.91956 4.05329L8.91758 4.0499ZM9.22848 4.29368L9.2223 4.29187L9.15021 4.53125L9.23518 4.29613L9.22848 4.29368ZM10.9526 3.82959L10.9497 3.83026L11.0043 4.07422L10.9557 3.82899L10.9526 3.82959ZM13.3565 4.10361L13.354 4.10131L13.1845 4.28516L13.3589 4.10595L13.3565 4.10361ZM12.3074 10.5444L12.3042 10.5459L12.412 10.7715L12.3106 10.543L12.3074 10.5444ZM10.7564 8.09961C10.7564 8.36508 10.8413 8.56716 11.0044 8.7265C11.1727 8.8803 11.4293 8.97461 11.8112 8.97461C12.1028 8.97461 12.3482 8.90831 12.5559 8.78304C12.7819 8.64187 12.9571 8.45734 13.0848 8.22684C13.2119 7.98575 13.2779 7.7108 13.2779 7.39648V7.29492H12.927C12.3514 7.29492 11.8939 7.32975 11.5493 7.39591L11.5493 7.39599L11.5429 7.39705C11.2128 7.45156 11.0137 7.54368 10.9053 7.64479C10.8152 7.73887 10.7564 7.87978 10.7564 8.09961ZM11.8112 9.47461C11.3478 9.47461 10.9527 9.35886 10.6632 9.09204L10.6631 9.0921L10.6586 9.08765C10.3883 8.82546 10.2564 8.48913 10.2564 8.09961C10.2564 7.78298 10.3451 7.50274 10.5508 7.29212L10.5506 7.292L10.5574 7.28562C10.7695 7.08387 11.0836 6.96651 11.4582 6.90427C11.8456 6.83021 12.3369 6.79492 12.927 6.79492H13.5279C13.666 6.79492 13.7779 6.90685 13.7779 7.04492V7.39648C13.7779 7.78444 13.6955 8.14167 13.5257 8.4626L13.5257 8.46262L13.5236 8.46652C13.354 8.77368 13.1181 9.02181 12.8189 9.20826L12.8189 9.20828L12.8161 9.20999C12.5205 9.38886 12.1827 9.47461 11.8112 9.47461Z" fill="#454545"/>
</svg>
