<svg width="24" height="24" viewBox="0 0 24 24" fill="none" xmlns="http://www.w3.org/2000/svg">
<path d="M16.5186 11.0993L10.3486 4.92934L7.63857 2.21934C7.49794 2.07889 7.30732 2 7.10857 2C6.90982 2 6.71919 2.07889 6.57857 2.21934C6.50781 2.28829 6.45157 2.3707 6.41318 2.46173C6.37478 2.55275 6.355 2.65055 6.355 2.74934C6.355 2.84813 6.37478 2.94593 6.41318 3.03695C6.45157 3.12798 6.50781 3.21039 6.57857 3.27934L8.75857 5.45934L3.11857 11.0993C2.40227 11.8173 2 12.7901 2 13.8043C2 14.8185 2.40227 15.7913 3.11857 16.5093L7.11857 20.5093C7.83827 21.2262 8.81272 21.6288 9.82857 21.6288C10.8444 21.6288 11.8189 21.2262 12.5386 20.5093L16.5386 16.5093C17.2522 15.7887 17.6509 14.8144 17.6471 13.8002C17.6434 12.786 17.2375 11.8147 16.5186 11.0993V11.0993ZM15.4586 15.4493L11.4586 19.4493C11.0157 19.8729 10.4264 20.1093 9.81357 20.1093C9.20071 20.1093 8.61147 19.8729 8.16857 19.4493L4.16857 15.4493C3.95178 15.2337 3.77974 14.9774 3.66235 14.6951C3.54496 14.4128 3.48453 14.1101 3.48453 13.8043C3.48453 13.4986 3.54496 13.1959 3.66235 12.9136C3.77974 12.6313 3.95178 12.3749 4.16857 12.1593L9.81857 6.51934L10.9986 7.70934L15.4486 12.1593C15.666 12.3743 15.8388 12.6301 15.9571 12.912C16.0753 13.194 16.1367 13.4965 16.1376 13.8023C16.1385 14.108 16.079 14.4109 15.9625 14.6936C15.846 14.9762 15.6747 15.2331 15.4586 15.4493V15.4493Z" fill="black"/>
<path opacity="0.6" fill-rule="evenodd" clip-rule="evenodd" d="M3.19837 13.7994L16.5284 13.8894C16.6258 13.8842 16.7224 13.9102 16.8042 13.9635C16.8859 14.0168 16.9486 14.0948 16.9831 14.1861C17.0176 14.2774 17.0222 14.3773 16.9962 14.4714C16.9702 14.5655 16.9149 14.6488 16.8384 14.7094C15.2574 16.1433 12.2403 19.0979 10.6756 20.6301C10.5379 20.7649 10.4116 20.8887 10.2984 20.9994C10.2193 21.0795 10.1251 21.1432 10.0212 21.1866C9.91738 21.23 9.80594 21.2524 9.69337 21.2524C9.5808 21.2524 9.46935 21.23 9.36549 21.1866C9.26163 21.1432 9.16744 21.0795 9.08837 20.9994L2.81837 14.7094C2.74207 14.6353 2.68985 14.5399 2.6685 14.4357C2.64715 14.3315 2.65765 14.2233 2.69864 14.1251C2.73964 14.0269 2.80922 13.9434 2.89834 13.8853C2.98747 13.8272 3.09201 13.7973 3.19837 13.7994ZM19.8997 14.3219C19.9923 14.3659 20.0739 14.4299 20.1386 14.5094C20.7779 15.2102 21.2166 16.0704 21.4086 16.9994C21.4086 17.4794 21.2179 17.9398 20.8784 18.2792C20.539 18.6187 20.0786 18.8094 19.5986 18.8094C19.1185 18.8094 18.6582 18.6187 18.3187 18.2792C17.9793 17.9398 17.7886 17.4794 17.7886 16.9994C17.9805 16.0683 18.4231 15.2073 19.0686 14.5094C19.1333 14.4299 19.2149 14.3659 19.3074 14.3219C19.3999 14.2779 19.5011 14.2551 19.6036 14.2551C19.706 14.2551 19.8072 14.2779 19.8997 14.3219Z" fill="black"/>
</svg>
