<svg width="24" height="24" viewBox="0 0 24 24" fill="none" xmlns="http://www.w3.org/2000/svg">
<path d="M21.9999 3.17991V3.08991C21.9812 3.02665 21.9543 2.96613 21.9199 2.90991V2.82991C21.8703 2.76034 21.8094 2.69951 21.7399 2.64991C21.6675 2.60051 21.5859 2.56647 21.4999 2.54991V2.54991C21.4734 2.54502 21.4463 2.54502 21.4199 2.54991C21.3636 2.54 21.3061 2.54 21.2499 2.54991C21.2067 2.54425 21.163 2.54425 21.1199 2.54991H21.0299L3.65986 10.5499C3.43293 10.6561 3.24313 10.8279 3.11508 11.0433C2.98703 11.2586 2.92663 11.5074 2.94172 11.7575C2.95681 12.0075 3.0467 12.2473 3.19971 12.4457C3.35273 12.644 3.56181 12.7918 3.79986 12.8699L7.91986 14.1999C8.10949 14.2595 8.315 14.2413 8.49125 14.1494C8.66751 14.0576 8.80008 13.8995 8.85985 13.7099C8.89093 13.6167 8.90314 13.5182 8.89577 13.4203C8.88839 13.3223 8.86158 13.2268 8.8169 13.1393C8.77222 13.0518 8.71057 12.9741 8.63553 12.9106C8.56049 12.8472 8.47358 12.7994 8.37986 12.7699L4.78986 11.6999L17.8599 5.69991L9.99986 13.6999C9.99986 13.6999 9.99986 13.6999 9.99986 13.7599C9.99986 13.8199 9.99985 13.7599 9.94985 13.8199C9.89985 13.8799 9.94985 13.8699 9.94985 13.8999C9.94985 13.9299 9.94985 13.9899 9.94985 14.0299C9.94494 14.0898 9.94494 14.15 9.94985 14.2099C9.94985 14.2099 9.94985 14.2599 9.94985 14.2899L10.4899 20.8399C10.4997 20.9829 10.5514 21.1199 10.6385 21.2337C10.7257 21.3475 10.8444 21.4331 10.9799 21.4799C11.0629 21.5119 11.1509 21.5288 11.2399 21.5299C11.4379 21.5256 11.627 21.4471 11.7699 21.3099L15.0999 17.9599L16.5299 18.8799C16.8125 19.0638 17.1427 19.1612 17.4799 19.1599C17.6603 19.1334 17.8357 19.0794 17.9999 18.9999C18.2552 18.8852 18.4792 18.7109 18.6532 18.4916C18.8272 18.2724 18.9461 18.0146 18.9999 17.7399L21.9999 3.39991C22.015 3.32735 22.015 3.25247 21.9999 3.17991V3.17991ZM11.6899 19.0699L11.4099 15.6499L13.6499 17.0899L11.6899 19.0699ZM17.5599 17.4299C17.5542 17.4695 17.5383 17.5069 17.5137 17.5385C17.4892 17.57 17.4568 17.5947 17.4199 17.6099C17.3828 17.6292 17.3416 17.6393 17.2999 17.6393C17.2581 17.6393 17.2169 17.6292 17.1799 17.6099L11.7199 14.0799L19.9999 5.59991L17.5599 17.4299Z" fill="black"/>
</svg>
