<svg xmlns="http://www.w3.org/2000/svg" width="24" height="24" fill="none" viewBox="0 0 24 24"><path fill="#282828" fill-rule="evenodd" d="M21.42 2.55a.2.2 0 0 1 .08 0 .6.6 0 0 1 .24.1q.105.075.18.18v.08a.8.8 0 0 1 .08.18v.09a.5.5 0 0 1 0 .22l-3 14.34A1.75 1.75 0 0 1 18 19q-.248.12-.52.16a1.73 1.73 0 0 1-.95-.28l-1.43-.92-3.33 3.35a.8.8 0 0 1-.53.22.8.8 0 0 1-.26-.05.73.73 0 0 1-.49-.64l-.54-6.55v-.39c0-.03-.05-.02 0-.08s.05 0 .05-.06v-.06l7.86-8-13.07 6 3.59 1.07a.744.744 0 0 1 .48.94.75.75 0 0 1-.94.49L3.8 12.87a1.25 1.25 0 0 1-.14-2.32l17.37-8h.09a.5.5 0 0 1 .13 0 .5.5 0 0 1 .17 0m-9.73 16.52 1.96-1.98-2.24-1.44zm.03-4.99 5.46 3.53a.26.26 0 0 0 .24 0 .23.23 0 0 0 .14-.18L20 5.6z" clip-rule="evenodd"/><path fill="#282828" d="M4.75 1a.75.75 0 0 1 .75.75V4h2.25a.75.75 0 0 1 0 1.5H5.5v2.25a.75.75 0 0 1-1.5 0V5.5H1.75a.75.75 0 0 1 0-1.5H4V1.75A.75.75 0 0 1 4.75 1"/></svg>