<svg width="24" height="24" viewBox="0 0 24 24" fill="none" xmlns="http://www.w3.org/2000/svg">
<path d="M16 18.25C16.4142 18.25 16.75 18.5858 16.75 19C16.75 19.4142 16.4142 19.75 16 19.75H13.5C13.0858 19.75 12.75 19.4142 12.75 19C12.75 18.5858 13.0858 18.25 13.5 18.25H16Z" fill="#282828"/>
<path d="M17.5 15.75C17.9142 15.75 18.25 16.0858 18.25 16.5C18.25 16.9142 17.9142 17.25 17.5 17.25H13.5C13.0858 17.25 12.75 16.9142 12.75 16.5C12.75 16.0858 13.0858 15.75 13.5 15.75H17.5Z" fill="#282828"/>
<path d="M17.5 13.25C17.9142 13.25 18.25 13.5858 18.25 14C18.25 14.4142 17.9142 14.75 17.5 14.75H13.5C13.0858 14.75 12.75 14.4142 12.75 14C12.75 13.5858 13.0858 13.25 13.5 13.25H17.5Z" fill="#282828"/>
<path fill-rule="evenodd" clip-rule="evenodd" d="M18 10.75C19.5188 10.75 20.75 11.9812 20.75 13.5V19.5C20.75 21.0188 19.5188 22.25 18 22.25H13C11.4812 22.25 10.25 21.0188 10.25 19.5V13.5C10.25 11.9812 11.4812 10.75 13 10.75H18ZM13 12.25C12.3096 12.25 11.75 12.8096 11.75 13.5V19.5C11.75 20.1904 12.3096 20.75 13 20.75H18C18.6904 20.75 19.25 20.1904 19.25 19.5V13.5C19.25 12.8096 18.6904 12.25 18 12.25H13Z" fill="#282828"/>
<path fill-rule="evenodd" clip-rule="evenodd" d="M11 2.25C12.2609 2.25 13.32 3.0996 13.6445 4.25684C14.3718 4.30299 15.0046 4.69431 15.3818 5.26855C17.2736 5.45983 18.75 7.05781 18.75 9C18.75 9.41421 18.4142 9.75 18 9.75C17.5858 9.75 17.25 9.41421 17.25 9C17.25 8.00815 16.6077 7.16761 15.7168 6.86816C15.5409 7.93541 14.6171 8.75 13.5 8.75H8.5C7.38287 8.75 6.45808 7.93549 6.28223 6.86816C5.39174 7.16787 4.75 8.00848 4.75 9V18C4.75 19.2426 5.75736 20.25 7 20.25H8.5C8.91421 20.25 9.25 20.5858 9.25 21C9.25 21.4142 8.91421 21.75 8.5 21.75H7C4.92893 21.75 3.25 20.0711 3.25 18V9C3.25 7.05814 4.7259 5.46028 6.61719 5.26855C6.99421 4.6943 7.62739 4.30329 8.35449 4.25684C8.67894 3.09947 9.73901 2.25 11 2.25ZM11 3.75C10.3096 3.75 9.75 4.30964 9.75 5L9.74609 5.07715C9.70747 5.45512 9.38817 5.75 9 5.75H8.5C8.08579 5.75 7.75 6.08579 7.75 6.5C7.75 6.91421 8.08579 7.25 8.5 7.25H13.5C13.9142 7.25 14.25 6.91421 14.25 6.5C14.25 6.08579 13.9142 5.75 13.5 5.75H13C12.5858 5.75 12.25 5.41421 12.25 5C12.25 4.30964 11.6904 3.75 11 3.75Z" fill="#282828"/>
</svg>

