<svg width="24" height="25" viewBox="0 0 24 25" fill="none" xmlns="http://www.w3.org/2000/svg">
<path d="M11.5723 3C11.5091 3 11.4619 2.94206 11.4714 2.87956C11.4902 2.75579 11.5 2.62904 11.5 2.5C11.5 1.11929 10.3807 0 9 0C7.61929 0 6.5 1.11929 6.5 2.5C6.5 2.62904 6.50978 2.75579 6.52863 2.87956C6.53815 2.94206 6.49089 3 6.42767 3H5.1C4.76863 3 4.5 3.26863 4.5 3.6V4.19995C2.67746 4.19995 1.19995 5.67741 1.19995 7.49995V19.5C1.19995 21.3225 2.67741 22.7999 4.49995 22.7999H6.49995C6.94178 22.7999 7.29995 22.4418 7.29995 22C7.29995 21.5581 6.94178 21.2 6.49995 21.2H4.49995C3.56107 21.2 2.79995 20.4388 2.79995 19.5V7.49995C2.79995 6.56107 3.56107 5.79995 4.49995 5.79995L4.5 6.4C4.5 6.73137 4.76863 7 5.1 7H12.9C13.2314 7 13.5 6.73137 13.5 6.4V5.62445C13.637 5.73426 13.8108 5.79995 14 5.79995C14.6628 5.79995 15.2 6.33721 15.2 6.99995C15.2 7.44178 15.5582 7.79995 16 7.79995C16.4419 7.79995 16.8 7.44178 16.8 6.99995C16.8 5.45355 15.5464 4.19995 14 4.19995C13.8108 4.19995 13.637 4.26564 13.5 4.37545V3.6C13.5 3.26863 13.2314 3 12.9 3H11.5723Z" fill="#454545"/>
<path d="M11.2 15C11.2 14.5581 11.5581 14.2 12 14.2H17C17.4418 14.2 17.8 14.5581 17.8 15C17.8 15.4418 17.4418 15.8 17 15.8H12C11.5581 15.8 11.2 15.4418 11.2 15Z" fill="#454545"/>
<path d="M12 17.2C11.5581 17.2 11.2 17.5581 11.2 18C11.2 18.4418 11.5581 18.8 12 18.8H15C15.4418 18.8 15.8 18.4418 15.8 18C15.8 17.5581 15.4418 17.2 15 17.2H12Z" fill="#454545"/>
<path fill-rule="evenodd" clip-rule="evenodd" d="M11 9.19995C9.45355 9.19995 8.19995 10.4536 8.19995 12V22C8.19995 23.5463 9.45355 24.8 11 24.8H18C19.5463 24.8 20.8 23.5463 20.8 22V12C20.8 10.4536 19.5463 9.19995 18 9.19995H11ZM9.79995 12C9.79995 11.3372 10.3372 10.8 11 10.8H18C18.6627 10.8 19.2 11.3372 19.2 12V22C19.2 22.6627 18.6627 23.2 18 23.2H11C10.3372 23.2 9.79995 22.6627 9.79995 22V12Z" fill="#454545"/>
</svg>
