<svg width="24" height="24" viewBox="0 0 24 24" fill="none" xmlns="http://www.w3.org/2000/svg">
<path d="M19 5H5C4.20435 5 3.44129 5.31607 2.87868 5.87868C2.31607 6.44129 2 7.20435 2 8V16C2 16.7956 2.31607 17.5587 2.87868 18.1213C3.44129 18.6839 4.20435 19 5 19H19C19.7956 19 20.5587 18.6839 21.1213 18.1213C21.6839 17.5587 22 16.7956 22 16V8C22 7.20435 21.6839 6.44129 21.1213 5.87868C20.5587 5.31607 19.7956 5 19 5ZM5 6.54H19C19.391 6.53986 19.7666 6.69239 20.0468 6.9651C20.3269 7.23782 20.4896 7.60915 20.5 8V8.38H3.5V8C3.51043 7.60915 3.67305 7.23782 3.95324 6.9651C4.23342 6.69239 4.60901 6.53986 5 6.54V6.54ZM19 17.46H5C4.60901 17.4601 4.23342 17.3076 3.95324 17.0349C3.67305 16.7622 3.51043 16.3909 3.5 16V12H20.5V16C20.4896 16.3909 20.3269 16.7622 20.0468 17.0349C19.7666 17.3076 19.391 17.4601 19 17.46V17.46Z" fill="black"/>
</svg>
