<svg width="24" height="24" viewBox="0 0 24 24" fill="none" xmlns="http://www.w3.org/2000/svg">
<path fill-rule="evenodd" clip-rule="evenodd" d="M6.599 15.9193L2.349 20.1683C2.057 20.4613 2.057 20.9363 2.349 21.2292C2.642 21.5222 3.117 21.5222 3.41 21.2292L7.66 16.9793L11.8 21.1203C12.412 21.7323 13.405 21.7323 14.017 21.1203L15.175 19.9623C15.218 19.9193 15.259 19.8733 15.296 19.8263C15.362 19.7703 15.43 19.7073 15.497 19.6403C16.811 18.3263 16.916 16.2573 15.811 14.8233L20.865 9.76925C21.816 8.81825 21.816 7.27425 20.865 6.32325L17.255 2.71325C16.304 1.76225 14.76 1.76225 13.809 2.71325L8.756 7.76725C7.321 6.66225 5.252 6.76725 3.938 8.08225C3.872 8.14825 3.809 8.21625 3.748 8.28625C3.706 8.31925 3.66 8.36025 3.616 8.40425L2.459 9.56125C1.847 10.1733 1.847 11.1673 2.459 11.7793L6.599 15.9193ZM14.249 15.3373L14.248 15.3363L14.439 15.5283C15.279 16.3763 15.277 17.7393 14.436 18.5803C14.383 18.6333 14.328 18.6822 14.271 18.7292C14.214 18.7752 14.164 18.8303 14.122 18.8923C14.12 18.8953 14.117 18.8993 14.114 18.9023L12.957 20.0593C12.93 20.0863 12.887 20.0863 12.86 20.0593L3.519 10.7183C3.493 10.6913 3.493 10.6483 3.519 10.6223L4.677 9.46425C4.68 9.46125 4.683 9.45825 4.687 9.45625C4.748 9.41525 4.803 9.36525 4.85 9.30725C4.896 9.25025 4.946 9.19525 4.999 9.14225C5.842 8.29925 7.211 8.29925 8.054 9.14225L8.28 9.36725C8.532 9.59225 8.778 9.55625 8.778 9.55625C8.976 9.55625 9.167 9.47725 9.308 9.33625L14.87 3.77425C15.236 3.40825 15.829 3.40825 16.195 3.77425L19.804 7.38425C20.17 7.74925 20.17 8.34325 19.804 8.70825L14.242 14.2703C14.028 14.4853 13.964 14.8073 14.08 15.0883C14.119 15.1833 14.177 15.2683 14.249 15.3373Z" fill="black"/>
</svg>
