<svg width="24" height="24" viewBox="0 0 24 24" fill="none" xmlns="http://www.w3.org/2000/svg">
<path fill-rule="evenodd" clip-rule="evenodd" d="M9.78153 6.48828L9.78188 6.48863L12.1259 8.83303L14.4592 6.49957L14.4595 6.49928C14.6589 6.29989 14.8746 6.12169 15.1033 5.96592L13.088 3.95064L13.088 3.95059C12.4871 3.34974 11.513 3.34988 10.9124 3.95055L10.9124 3.9506L8.99884 5.86413C9.2795 6.04023 9.54213 6.24899 9.78153 6.48828ZM7.89559 6.96737C7.50896 6.78515 7.08358 6.68907 6.64356 6.68907H6.05257L6.64356 6.09808L7.4749 5.26675L9.85173 2.88994C11.0382 1.70335 12.962 1.70335 14.1487 2.88994L16.5766 5.3179L17.5974 6.33873L17.9587 6.70007H17.5974C17.0988 6.70007 16.619 6.82344 16.1931 7.05571C15.9487 7.18895 15.7221 7.35803 15.5199 7.5602L12.5201 10.5602C12.3027 10.7782 11.9487 10.7774 11.7319 10.5605L8.72113 7.5492C8.47743 7.30562 8.19839 7.11008 7.89559 6.96737ZM14.4593 17.5006L14.459 17.5003L12.1258 15.167L9.7816 17.5112L9.78134 17.5115C9.54191 17.7508 9.27927 17.9596 8.99859 18.1357L10.9122 20.0493L10.9123 20.0493C11.5129 20.65 12.4869 20.6501 13.0878 20.0493L13.0879 20.0493L15.1032 18.034C14.8744 17.8782 14.6588 17.7 14.4593 17.5006ZM16.1929 16.9442C16.6189 17.1764 17.0986 17.2998 17.5973 17.2998H17.9586L17.5973 17.6611L16.5765 18.682L14.1485 21.11C12.9619 22.2965 11.0381 22.2965 9.8516 21.11L7.47462 18.7331L6.64341 17.9019L6.05225 17.3107H6.64341C7.08341 17.3107 7.50873 17.2147 7.89532 17.0325C8.19815 16.8898 8.47721 16.6942 8.72093 16.4506L11.7317 13.4398C11.9422 13.2293 12.3093 13.2286 12.5199 13.4398L15.5197 16.4397C15.722 16.6418 15.9486 16.8109 16.1929 16.9442ZM17.5973 16.4178C17.056 16.4178 16.5262 16.1983 16.1438 15.8155L13.2219 12.8938L13.1441 12.8161C12.8723 12.544 12.4992 12.408 12.126 12.408C11.7529 12.408 11.3797 12.544 11.1076 12.8158L11.0297 12.8937L8.09693 15.8265C7.71447 16.2092 7.18467 16.4287 6.64343 16.4287H5.35621C5.3013 16.4287 5.24999 16.4416 5.20147 16.4598L2.88994 14.1483C1.70335 12.9617 1.70335 11.038 2.88994 9.8514L5.20156 7.5398C5.25 7.55807 5.3013 7.571 5.35621 7.571H6.64343C7.18467 7.571 7.71447 7.7904 8.09693 8.1732L11.0353 11.1116L11.1079 11.1842C11.3885 11.4647 11.7571 11.6051 12.126 11.6051C12.4945 11.6051 12.8634 11.4647 13.1441 11.1839L13.2166 11.1115L16.1438 8.1842C16.5262 7.80147 17.056 7.58193 17.5973 7.58193H18.6441C18.7021 7.58193 18.757 7.56927 18.8077 7.54893L21.1101 9.8514C22.2966 11.038 22.2966 12.9617 21.1101 14.1483L18.8077 16.4507C18.757 16.4304 18.7021 16.4178 18.6441 16.4178H17.5973ZM17.2044 14.7548L14.4494 12L17.2045 9.24485L17.2049 9.2444C17.3058 9.14338 17.4539 9.08193 17.5973 9.08193H18.2193L20.0494 10.912C20.6502 11.5128 20.6502 12.4868 20.0494 13.0877L18.2193 14.9178H17.5973C17.4539 14.9178 17.3058 14.8563 17.2049 14.7553L17.2044 14.7548ZM7.03627 9.23386L9.80225 11.9998L7.03626 14.7659L7.036 14.7662C6.935 14.8672 6.7869 14.9287 6.64343 14.9287H5.79164L3.95061 13.0877L3.95059 13.0877C3.3498 12.4868 3.3498 11.5129 3.9506 10.9121L3.95061 10.9121L5.79168 9.071H6.64343C6.787 9.071 6.93496 9.13246 7.03581 9.2334L7.03627 9.23386Z" fill="#505F79"/>
</svg>
