<svg width="24" height="24" viewBox="0 0 24 24" fill="none" xmlns="http://www.w3.org/2000/svg">
<path d="M19.6579 11.52H12.8779V4.75C12.8779 4.55109 12.7989 4.36032 12.6583 4.21967C12.5176 4.07902 12.3268 4 12.1279 4C11.929 4 11.7383 4.07902 11.5976 4.21967C11.457 4.36032 11.3779 4.55109 11.3779 4.75V11.52H4.62793C4.45255 11.5489 4.29315 11.6392 4.17814 11.7747C4.06313 11.9103 4 12.0822 4 12.26C4 12.4378 4.06313 12.6097 4.17814 12.7453C4.29315 12.8808 4.45255 12.9711 4.62793 13H11.3979V19.76C11.3979 19.9589 11.477 20.1497 11.6176 20.2903C11.7583 20.431 11.949 20.51 12.1479 20.51C12.3468 20.51 12.5376 20.431 12.6783 20.2903C12.8189 20.1497 12.8979 19.9589 12.8979 19.76V13H19.6579C19.8568 13 20.0476 12.921 20.1883 12.7803C20.3289 12.6397 20.4079 12.4489 20.4079 12.25C20.4079 12.0511 20.3289 11.8603 20.1883 11.7197C20.0476 11.579 19.8568 11.5 19.6579 11.5V11.52Z" fill="black"/>
</svg>
