<svg width="24" height="24" viewBox="0 0 24 24" fill="none" xmlns="http://www.w3.org/2000/svg">
<path d="M21.9998 19.37L20.5798 17.37V13.2C20.5798 13.0011 20.5008 12.8104 20.3602 12.6697C20.2195 12.529 20.0288 12.45 19.8298 12.45C19.6309 12.45 19.4402 12.529 19.2995 12.6697C19.1589 12.8104 19.0798 13.0011 19.0798 13.2V16.92H5.51985V9.28003C5.51558 9.24477 5.51888 9.20901 5.52952 9.17512C5.54016 9.14124 5.5579 9.11001 5.58155 9.08352C5.60521 9.05703 5.63424 9.03588 5.6667 9.02148C5.69917 9.00709 5.73433 8.99977 5.76985 9.00003H6.20985C6.40876 9.00003 6.59952 8.92101 6.74018 8.78036C6.88083 8.63971 6.95985 8.44894 6.95985 8.25003C6.95985 8.05112 6.88083 7.86035 6.74018 7.7197C6.59952 7.57905 6.40876 7.50003 6.20985 7.50003H5.76985C5.53619 7.49869 5.3046 7.54388 5.08859 7.63299C4.87258 7.72209 4.67648 7.85331 4.51172 8.019C4.34696 8.18469 4.21685 8.38153 4.12896 8.59804C4.04108 8.81454 3.99719 9.04638 3.99985 9.28003V17.36L2.17985 19.2C2.00169 19.3817 1.88078 19.6117 1.83211 19.8615C1.78344 20.1113 1.80914 20.3698 1.90602 20.6051C2.00291 20.8404 2.16673 21.0421 2.37717 21.1852C2.5876 21.3283 2.8354 21.4065 3.08985 21.41H20.9098C21.1405 21.4052 21.3656 21.3387 21.5617 21.2173C21.7579 21.0959 21.9179 20.9242 22.0252 20.7199C22.1324 20.5157 22.1829 20.2865 22.1714 20.0561C22.1599 19.8257 22.0869 19.6026 21.9598 19.41L21.9998 19.37ZM3.59985 19.91L5.07985 18.42H19.4498L20.4998 19.91H3.59985Z" fill="black"/>
<path d="M8.10976 8.7699L11.4698 9.8499C11.563 9.88098 11.6614 9.89319 11.7594 9.88581C11.8574 9.87844 11.9529 9.85163 12.0404 9.80695C12.1279 9.76227 12.2056 9.70061 12.269 9.62557C12.3324 9.55054 12.3803 9.46362 12.4098 9.3699C12.441 9.27602 12.4533 9.17689 12.4461 9.07822C12.4388 8.97956 12.4121 8.8833 12.3675 8.79499C12.3229 8.70669 12.2612 8.62809 12.1861 8.56371C12.111 8.49934 12.0239 8.45046 11.9298 8.4199L10.3998 7.9299L16.5898 5.0699L12.7198 8.9999C12.7169 9.0198 12.7169 9.04 12.7198 9.0599L12.6598 9.1199C12.6572 9.1465 12.6572 9.1733 12.6598 9.1999C12.6125 9.29679 12.5853 9.40223 12.5798 9.5099C12.5798 9.5099 12.5798 9.5599 12.5798 9.5899L12.9198 13.7099C12.9332 13.8518 12.9863 13.987 13.0729 14.1002C13.1596 14.2134 13.2763 14.2999 13.4098 14.3499C13.493 14.3809 13.5809 14.3978 13.6698 14.3999C13.8686 14.3997 14.0592 14.3206 14.1998 14.1799L16.1398 12.2299L17.6198 13.2299C17.7414 13.3099 17.8842 13.3517 18.0298 13.3499C18.1293 13.3484 18.2277 13.328 18.3198 13.2899C18.4299 13.2401 18.527 13.1655 18.6034 13.0717C18.6797 12.978 18.7333 12.8678 18.7598 12.7499L20.8098 2.8399C20.8145 2.77665 20.8145 2.71315 20.8098 2.6499C20.8049 2.6201 20.8049 2.5897 20.8098 2.5599C20.7873 2.49812 20.7606 2.43798 20.7298 2.3799C20.7298 2.3799 20.7298 2.3799 20.7298 2.3099C20.6835 2.24372 20.6259 2.18618 20.5598 2.1399V2.1399C20.4865 2.09228 20.4052 2.05839 20.3198 2.0399V2.0399C20.2933 2.03501 20.2662 2.03501 20.2398 2.0399C20.1835 2.02999 20.126 2.02999 20.0698 2.0399C20.0266 2.03424 19.9829 2.03424 19.9398 2.0399H19.8598L7.99976 7.3799C7.85973 7.43968 7.74155 7.54119 7.66133 7.67059C7.58112 7.8 7.54277 7.951 7.55152 8.103C7.56026 8.255 7.61568 8.4006 7.71022 8.51995C7.80475 8.6393 7.9338 8.72658 8.07976 8.7699H8.10976ZM14.1998 11.9999L14.1198 10.9999L14.7698 11.4199L14.1998 11.9999ZM17.4298 11.3599L14.4298 9.4199L18.7498 4.9999L17.4298 11.3599Z" fill="black"/>
<path d="M10.4702 12.0001L9.47015 13.0001C9.39939 13.0691 9.34316 13.1515 9.30476 13.2425C9.26636 13.3335 9.24658 13.4313 9.24658 13.5301C9.24658 13.6289 9.26636 13.7267 9.30476 13.8177C9.34316 13.9088 9.39939 13.9912 9.47015 14.0601C9.61067 14.2008 9.80131 14.2799 10.0002 14.2801C10.1981 14.2758 10.3873 14.1973 10.5302 14.0601L11.5302 13.0601C11.6626 12.9179 11.7348 12.7299 11.7313 12.5356C11.7279 12.3413 11.6492 12.1559 11.5118 12.0185C11.3744 11.8811 11.189 11.8024 10.9947 11.7989C10.8004 11.7955 10.6123 11.8676 10.4702 12.0001V12.0001Z" fill="black"/>
<path d="M7.81016 12.1099L6.81016 13.1099C6.70678 13.2161 6.6367 13.3502 6.60856 13.4957C6.58041 13.6412 6.59542 13.7918 6.65175 13.9289C6.70807 14.0659 6.80324 14.1836 6.92556 14.2673C7.04787 14.351 7.19198 14.3971 7.34016 14.3999C7.53816 14.3956 7.72731 14.3171 7.87016 14.1799L8.87016 13.1799C8.94092 13.1109 8.99715 13.0285 9.03555 12.9375C9.07395 12.8465 9.09373 12.7487 9.09373 12.6499C9.09373 12.5511 9.07395 12.4533 9.03555 12.3623C8.99715 12.2713 8.94092 12.1888 8.87016 12.1199C8.73086 11.9781 8.54098 11.8974 8.34223 11.8955C8.14348 11.8937 7.95211 11.9708 7.81016 12.1099Z" fill="black"/>
</svg>
