<svg width="24" height="24" viewBox="0 0 24 24" fill="none" xmlns="http://www.w3.org/2000/svg">
<path fill-rule="evenodd" clip-rule="evenodd" d="M16.7224 4.93251C15.3245 3.99852 13.6811 3.5 12 3.5C9.74648 3.50265 7.58601 4.39903 5.99252 5.99252C4.39903 7.586 3.50265 9.74647 3.5 12C3.5 13.6811 3.99852 15.3245 4.93251 16.7223C5.86651 18.1202 7.19402 19.2096 8.74719 19.853C10.3004 20.4963 12.0094 20.6646 13.6583 20.3367C15.3071 20.0087 16.8217 19.1992 18.0104 18.0104C19.1992 16.8217 20.0087 15.3071 20.3367 13.6583C20.6647 12.0094 20.4963 10.3004 19.853 8.74719C19.2096 7.19402 18.1202 5.8665 16.7224 4.93251ZM6.4443 3.6853C8.08879 2.58649 10.0222 2 12 2C13.3132 2 14.6136 2.25866 15.8268 2.7612C17.0401 3.26375 18.1425 4.00035 19.0711 4.92893C19.9997 5.85752 20.7363 6.95991 21.2388 8.17317C21.7413 9.38642 22 10.6868 22 12C22 13.9778 21.4135 15.9112 20.3147 17.5557C19.2159 19.2002 17.6541 20.4819 15.8268 21.2388C13.9996 21.9957 11.9889 22.1937 10.0491 21.8079C8.10929 21.422 6.32746 20.4696 4.92894 19.0711C3.53041 17.6725 2.578 15.8907 2.19215 13.9509C1.8063 12.0111 2.00433 10.0004 2.76121 8.17317C3.51809 6.3459 4.79981 4.78412 6.4443 3.6853ZM14.3199 8.65989C14.0841 8.3541 13.7744 8.11323 13.4199 7.95989C12.5926 7.66213 11.6873 7.66213 10.8599 7.95989C10.4563 8.09085 10.0752 8.2831 9.72994 8.52989C9.61188 8.61907 9.51321 8.73135 9.43994 8.85989C9.37295 8.99325 9.33867 9.14065 9.33994 9.28989C9.33667 9.52231 9.41446 9.74861 9.55994 9.92989C9.82994 10.2599 10.1699 10.3199 10.7499 9.98989L10.9999 9.80989C11.1648 9.71004 11.339 9.62632 11.5199 9.55989C11.6491 9.49636 11.791 9.46332 11.9349 9.46332C12.0788 9.46332 12.2208 9.49636 12.3499 9.55989C12.3928 9.59243 12.427 9.63495 12.4497 9.68375C12.4724 9.73255 12.4827 9.78616 12.4799 9.83989C12.479 9.96802 12.4408 10.0931 12.3699 10.1999C12.2693 10.3586 12.1519 10.5061 12.0199 10.6399C11.8084 10.8533 11.6237 11.0917 11.4699 11.3499C11.3224 11.6263 11.25 11.9367 11.2599 12.2499C11.2457 12.4636 11.3137 12.6746 11.4499 12.8399C11.513 12.9157 11.5928 12.9759 11.683 13.0158C11.7732 13.0557 11.8714 13.0742 11.9699 13.0699C12.1408 13.0749 12.3076 13.018 12.4399 12.9099C12.5754 12.8039 12.6649 12.65 12.6899 12.4799C12.7283 12.3381 12.8003 12.2078 12.8999 12.0999C13.0664 11.929 13.2434 11.7687 13.4299 11.6199C13.6432 11.4333 13.8328 11.2546 13.9916 11.1048L13.9916 11.1048L14.0499 11.0499C14.2168 10.8701 14.3582 10.6682 14.4699 10.4499C14.6115 10.1625 14.6715 9.84166 14.6433 9.5225C14.6151 9.20333 14.4998 8.89803 14.3099 8.63989L14.3199 8.65989ZM12.0001 14.0001C11.8471 13.9954 11.6949 14.0233 11.5536 14.0819C11.4122 14.1405 11.2849 14.2285 11.1801 14.3401C10.9675 14.5601 10.8486 14.8541 10.8486 15.1601C10.8486 15.466 10.9675 15.7601 11.1801 15.9801C11.3976 16.1975 11.6926 16.3196 12.0001 16.3196C12.3076 16.3196 12.6026 16.1975 12.8201 15.9801C13.0327 15.7601 13.1516 15.466 13.1516 15.1601C13.1516 14.8541 13.0327 14.5601 12.8201 14.3401C12.7161 14.2275 12.589 14.1388 12.4474 14.0801C12.3058 14.0214 12.1532 13.9941 12.0001 14.0001Z" fill="black"/>
</svg>
