<svg width="24" height="24" viewBox="0 0 24 24" fill="none" xmlns="http://www.w3.org/2000/svg">
<path d="M20.6333 3.87815C20.7519 4.47134 20.3745 5.04982 19.7903 5.17024C19.7329 5.18208 19.5449 5.25099 19.2324 5.46705C18.938 5.67059 18.5925 5.96335 18.2267 6.33839C17.494 7.08951 16.732 8.11719 16.1675 9.28947C15.6333 10.3985 15.2911 11.5923 15.2896 12.795C16.0013 12.1631 16.9329 11.7803 17.9525 11.7803C20.1879 11.7803 22 13.6203 22 15.8901C22 18.1599 20.1879 20 17.9525 20C16.455 20 15.1474 19.1742 14.4474 17.9465C12.1834 14.7802 12.9451 11.1622 14.2283 8.4978C14.904 7.09473 15.8082 5.70298 16.693 4.79589C17.1359 4.34182 17.5869 3.95296 18.0175 3.65523C18.4301 3.37002 18.8956 3.11801 19.3608 3.02212C19.945 2.90171 20.5147 3.28496 20.6333 3.87815Z" fill="#454545"/>
<path d="M9.63331 3.87815C9.7519 4.47134 9.37446 5.04982 8.79028 5.17024C8.73286 5.18208 8.54494 5.25099 8.23244 5.46705C7.93804 5.67059 7.59249 5.96335 7.22667 6.33839C6.49399 7.08951 5.73201 8.11719 5.16746 9.28947C4.63334 10.3985 4.29108 11.5923 4.28964 12.795C5.00134 12.1631 5.93291 11.7803 6.95254 11.7803C9.18789 11.7803 11 13.6203 11 15.8901C11 18.1599 9.18789 20 6.95254 20C5.45501 20 4.14743 19.1742 3.4474 17.9465C1.18338 14.7802 1.94512 11.1622 3.22827 8.4978C3.90396 7.09473 4.80818 5.70298 5.69299 4.79589C6.1359 4.34182 6.5869 3.95296 7.01753 3.65523C7.43005 3.37002 7.89563 3.11801 8.36084 3.02212C8.94502 2.90171 9.51473 3.28496 9.63331 3.87815Z" fill="#454545"/>
</svg>
