<svg width="24" height="24" viewBox="0 0 24 24" fill="none" xmlns="http://www.w3.org/2000/svg">
<path fill-rule="evenodd" clip-rule="evenodd" d="M5.00005 12C5.00005 15.866 8.13406 19 12 19C15.866 19 19 15.866 19 12C19 8.13406 15.866 5.00005 12 5.00005C8.13406 5.00005 5.00005 8.13406 5.00005 12ZM12 4.00005C7.58177 4.00005 4.00005 7.58177 4.00005 12C4.00005 16.4183 7.58177 20 12 20C16.4183 20 20 16.4183 20 12C20 7.58177 16.4183 4.00005 12 4.00005Z" fill="#454545"/>
<path fill-rule="evenodd" clip-rule="evenodd" d="M5.20005 12C5.20005 15.7556 8.24451 18.8 12 18.8C15.7556 18.8 18.8 15.7556 18.8 12C18.8 8.24451 15.7556 5.20005 12 5.20005C8.24451 5.20005 5.20005 8.24451 5.20005 12ZM3.80005 12C3.80005 7.47131 7.47131 3.80005 12 3.80005C16.5288 3.80005 20.2001 7.47131 20.2001 12C20.2001 16.5288 16.5288 20.2001 12 20.2001C7.47131 20.2001 3.80005 16.5288 3.80005 12ZM12 19C8.13406 19 5.00005 15.866 5.00005 12C5.00005 8.13406 8.13406 5.00005 12 5.00005C15.866 5.00005 19 8.13406 19 12C19 15.866 15.866 19 12 19ZM4.00005 12C4.00005 7.58177 7.58177 4.00005 12 4.00005C16.4183 4.00005 20 7.58177 20 12C20 16.4183 16.4183 20 12 20C7.58177 20 4.00005 16.4183 4.00005 12Z" fill="#454545"/>
<path d="M8.00005 12C8.00005 9.79091 9.79091 8.00005 12 8.00005C14.2092 8.00005 16 9.79091 16 12C16 14.2092 14.2092 16 12 16C9.79091 16 8.00005 14.2092 8.00005 12Z" fill="#454545"/>
<path fill-rule="evenodd" clip-rule="evenodd" d="M9.00005 12C9.00005 13.6569 10.3432 15 12 15C13.6569 15 15 13.6569 15 12C15 10.3432 13.6569 9.00005 12 9.00005C10.3432 9.00005 9.00005 10.3432 9.00005 12ZM12 8.00005C9.79091 8.00005 8.00005 9.79091 8.00005 12C8.00005 14.2092 9.79091 16 12 16C14.2092 16 16 14.2092 16 12C16 9.79091 14.2092 8.00005 12 8.00005Z" fill="#454545"/>
</svg>
