<svg width="24" height="24" viewBox="0 0 24 24" fill="none" xmlns="http://www.w3.org/2000/svg">
<path d="M19.9999 11C19.7347 11 19.4803 11.1053 19.2928 11.2929C19.1052 11.4804 18.9999 11.7348 18.9999 12C19.0148 13.4271 18.5888 14.8241 17.7799 16C16.9639 17.1886 15.8007 18.0963 14.4494 18.599C13.098 19.1016 11.6245 19.1748 10.23 18.8083C8.83554 18.4419 7.58823 17.6539 6.65855 16.5518C5.72886 15.4498 5.16214 14.0876 5.03584 12.6513C4.90954 11.2151 5.22982 9.77488 5.95291 8.52751C6.676 7.28015 7.76663 6.28649 9.07574 5.68234C10.3849 5.07819 11.8486 4.89301 13.2669 5.15212C14.6852 5.41123 15.9889 6.10198 16.9999 7.12997H16.3399C16.0747 7.11273 15.8135 7.20156 15.6137 7.3769C15.414 7.55225 15.2921 7.79975 15.2749 8.06497C15.2577 8.33019 15.3465 8.59139 15.5218 8.79112C15.6972 8.99084 15.9447 9.11273 16.2099 9.12997L19.0399 9.30997H19.1099C19.2298 9.30782 19.3484 9.28411 19.4599 9.23997L19.5699 9.16997C19.6479 9.12823 19.7161 9.07026 19.7699 8.99997C19.8083 8.96828 19.842 8.93124 19.8699 8.88997C19.9181 8.84441 19.9616 8.79416 19.9999 8.73997C20.0258 8.68906 20.046 8.63539 20.0599 8.57997C20.0599 8.57997 20.0599 8.49997 20.1099 8.44997L20.6199 5.64997C20.6676 5.38476 20.6081 5.11144 20.4543 4.89014C20.3005 4.66885 20.0651 4.51771 19.7999 4.46997C19.5347 4.42223 19.2614 4.48181 19.0401 4.63559C18.8188 4.78937 18.6676 5.02476 18.6199 5.28997L18.5199 5.83997C17.0766 4.32324 15.1497 3.35715 13.0709 3.10803C10.9921 2.8589 8.89149 3.34232 7.13071 4.47507C5.36992 5.60782 4.05915 7.31901 3.42406 9.31404C2.78896 11.3091 2.86929 13.4631 3.65121 15.4053C4.43313 17.3475 5.86771 18.9563 7.70797 19.9547C9.54824 20.9532 11.679 21.2788 13.7335 20.8756C15.788 20.4723 17.6376 19.3654 18.9639 17.7454C20.2902 16.1253 21.0102 14.0936 20.9999 12C20.9999 11.7348 20.8945 11.4804 20.707 11.2929C20.5195 11.1053 20.2651 11 19.9999 11Z" fill="#010101"/>
</svg>
