<svg width="24" height="24" viewBox="0 0 24 24" fill="none" xmlns="http://www.w3.org/2000/svg">
<path d="M2.29289 10.7071C1.90237 10.3166 1.90237 9.68342 2.29289 9.29289L7.29289 4.29289C7.68342 3.90237 8.31658 3.90237 8.70711 4.29289C9.09763 4.68342 9.09763 5.31658 8.70711 5.70711L5.41421 9H15.0484C18.4487 9 21.5 11.3495 21.5 15.1429V18.9992C21.5 19.5514 21.0523 20 20.5 20C19.9477 20 19.5 19.5523 19.5 19V15.1429C19.5 12.6505 17.5513 11 15.0484 11H5.41421L8.70711 14.2929C9.09763 14.6834 9.09763 15.3166 8.70711 15.7071C8.31658 16.0976 7.68342 16.0976 7.29289 15.7071L2.29289 10.7071Z" fill="#454545"/>
</svg>
