<svg width="24" height="24" viewBox="0 0 24 24" fill="none" xmlns="http://www.w3.org/2000/svg">
<path d="M5.79004 11.6599H11.51C11.709 11.6599 11.8997 11.5809 12.0404 11.4402C12.181 11.2996 12.26 11.1088 12.26 10.9099C12.26 10.711 12.181 10.5202 12.0404 10.3796C11.8997 10.2389 11.709 10.1599 11.51 10.1599H5.79004C5.59113 10.1599 5.40036 10.2389 5.25971 10.3796C5.11906 10.5202 5.04004 10.711 5.04004 10.9099C5.04004 11.1088 5.11906 11.2996 5.25971 11.4402C5.40036 11.5809 5.59113 11.6599 5.79004 11.6599V11.6599Z" fill="black"/>
<path d="M9.93004 13.3799H5.79004C5.59113 13.3799 5.40036 13.4589 5.25971 13.5996C5.11906 13.7402 5.04004 13.931 5.04004 14.1299C5.04004 14.3288 5.11906 14.5196 5.25971 14.6602C5.40036 14.8009 5.59113 14.8799 5.79004 14.8799H9.93004C10.129 14.8799 10.3197 14.8009 10.4604 14.6602C10.601 14.5196 10.68 14.3288 10.68 14.1299C10.68 13.931 10.601 13.7402 10.4604 13.5996C10.3197 13.4589 10.129 13.3799 9.93004 13.3799V13.3799Z" fill="black"/>
<path d="M9.93004 16.6001H5.79004C5.59113 16.6001 5.40036 16.6791 5.25971 16.8198C5.11906 16.9604 5.04004 17.1512 5.04004 17.3501C5.04004 17.549 5.11906 17.7398 5.25971 17.8804C5.40036 18.0211 5.59113 18.1001 5.79004 18.1001H9.93004C10.129 18.1001 10.3197 18.0211 10.4604 17.8804C10.601 17.7398 10.68 17.549 10.68 17.3501C10.68 17.1512 10.601 16.9604 10.4604 16.8198C10.3197 16.6791 10.129 16.6001 9.93004 16.6001Z" fill="black"/>
<path d="M16.71 10.8901V7.5001C16.7075 6.51322 16.317 5.5669 15.623 4.86534C14.9289 4.16378 13.9868 3.76322 13 3.7501C12.9203 3.74046 12.8397 3.74046 12.76 3.7501C12.6837 3.7398 12.6063 3.7398 12.53 3.7501H11.53C11.3712 3.29592 11.0751 2.90234 10.6828 2.62387C10.2904 2.34539 9.82114 2.1958 9.34 2.1958C8.85886 2.1958 8.38961 2.34539 7.99725 2.62387C7.60488 2.90234 7.3088 3.29592 7.15 3.7501H6.15C6.09857 3.76212 6.04836 3.77886 6 3.8001C5.92034 3.78973 5.83966 3.78973 5.76 3.8001C4.7731 3.79997 3.82571 4.18787 3.12227 4.88008C2.41883 5.57229 2.01575 6.51332 2 7.5001V18.2801C2.01048 19.2669 2.40851 20.21 3.1082 20.906C3.80789 21.6019 4.75315 21.9949 5.74 22.0001H15C15.1629 21.9945 15.3201 21.9386 15.45 21.8401C16.1867 21.9531 16.9386 21.9163 17.6608 21.7319C18.3829 21.5475 19.0604 21.2193 19.6528 20.7669C20.2451 20.3145 20.74 19.7472 21.1079 19.099C21.4759 18.4508 21.7092 17.7351 21.7941 16.9946C21.8789 16.2541 21.8134 15.5042 21.6016 14.7896C21.3897 14.075 21.0359 13.4105 20.5612 12.8359C20.0865 12.2613 19.5008 11.7883 18.8391 11.4454C18.1773 11.1025 17.4532 10.8966 16.71 10.8401V10.8901ZM7.79 5.2501C7.98891 5.2501 8.17968 5.17108 8.32033 5.03043C8.46098 4.88978 8.54 4.69901 8.54 4.5001C8.54 4.28527 8.62534 4.07925 8.77724 3.92734C8.92915 3.77544 9.13518 3.6901 9.35 3.6901C9.56483 3.6901 9.77085 3.77544 9.92276 3.92734C10.0747 4.07925 10.16 4.28527 10.16 4.5001C10.16 4.69901 10.239 4.88978 10.3797 5.03043C10.5203 5.17108 10.7111 5.2501 10.91 5.2501H11.73C11.6999 5.62505 11.53 5.97501 11.2541 6.23061C10.9781 6.48621 10.6162 6.6288 10.24 6.6301H8.47C8.09799 6.62161 7.74222 6.47607 7.47093 6.22139C7.19964 5.96671 7.03194 5.62083 7 5.2501H7.79ZM5.79 20.5301C5.19326 20.5301 4.62097 20.293 4.19901 19.8711C3.77705 19.4491 3.54 18.8768 3.54 18.2801V7.5001C3.54393 6.94942 3.74968 6.41931 4.11828 6.01017C4.48688 5.60103 4.99272 5.34127 5.54 5.2801C5.57852 6.04947 5.91151 6.77453 6.47 7.3051C7.02849 7.83566 7.76967 8.13106 8.54 8.1301H10.31C11.0803 8.13106 11.8215 7.83566 12.38 7.3051C12.9385 6.77453 13.2715 6.04947 13.31 5.2801C13.8581 5.33916 14.3652 5.5983 14.7342 6.0079C15.1033 6.4175 15.3083 6.94879 15.31 7.5001V11.0001C14.3235 11.2269 13.4182 11.7201 12.6928 12.426C11.9673 13.1319 11.4495 14.0233 11.1957 15.0032C10.942 15.9831 10.9621 17.0139 11.2538 17.9831C11.5455 18.9524 12.0976 19.823 12.85 20.5001L5.79 20.5301ZM16.51 20.4601C15.7189 20.4601 14.9455 20.2255 14.2877 19.786C13.6299 19.3465 13.1172 18.7217 12.8145 17.9908C12.5117 17.2599 12.4325 16.4557 12.5869 15.6797C12.7412 14.9038 13.1222 14.1911 13.6816 13.6317C14.241 13.0723 14.9537 12.6913 15.7296 12.537C16.5056 12.3826 17.3098 12.4618 18.0407 12.7646C18.7716 13.0673 19.3964 13.58 19.8359 14.2378C20.2754 14.8956 20.51 15.669 20.51 16.4601C20.51 16.9896 20.4049 17.5139 20.2008 18.0025C19.9967 18.4911 19.6976 18.9343 19.3208 19.3064C18.9441 19.6784 18.4972 19.972 18.0061 20.1701C17.515 20.3681 16.9895 20.4667 16.46 20.4601H16.51Z" fill="black"/>
<path d="M19.1701 14.87C19.0295 14.7295 18.8389 14.6506 18.6401 14.6506C18.4414 14.6506 18.2507 14.7295 18.1101 14.87L16.1101 16.76L15.3801 16C15.2307 15.8968 15.0489 15.8514 14.8685 15.8721C14.688 15.8929 14.5213 15.9784 14.3991 16.1127C14.277 16.2471 14.2077 16.4212 14.2042 16.6028C14.2007 16.7843 14.2632 16.961 14.3801 17.1L15.6201 18.25C15.7577 18.3803 15.9406 18.452 16.1301 18.45C16.322 18.4487 16.5068 18.3776 16.6501 18.25L19.1601 15.89C19.2901 15.7526 19.3634 15.5711 19.3652 15.3819C19.3671 15.1928 19.2974 15.0099 19.1701 14.87Z" fill="black"/>
</svg>
