<svg width="24" height="24" viewBox="0 0 24 24" fill="none" xmlns="http://www.w3.org/2000/svg">
<path fill-rule="evenodd" clip-rule="evenodd" d="M21.4013 13.0152C21.7908 13.5171 22.0015 14.1347 21.9999 14.77C21.9988 15.3979 21.7904 16.0079 21.407 16.5052C21.0237 17.0024 20.4868 17.3592 19.8799 17.52C19.7465 18.3769 19.3115 19.158 18.6534 19.7226C17.9952 20.2873 17.1571 20.5984 16.2899 20.6H7.7199C6.85991 20.5897 6.03119 20.2761 5.37987 19.7144C4.72856 19.1528 4.2965 18.3792 4.1599 17.53C3.53632 17.3838 2.98048 17.0311 2.58262 16.5291C2.18477 16.0272 1.96826 15.4055 1.96826 14.765C1.96826 14.1245 2.18477 13.5028 2.58262 13.0009C2.98048 12.499 3.53632 12.1462 4.1599 12C4.34125 11.1904 4.79233 10.4664 5.43916 9.94673C6.08599 9.42708 6.89019 9.14263 7.7199 9.14003H11.2599V7.76003C10.7567 7.583 10.3323 7.2337 10.0619 6.77391C9.79145 6.31412 9.69236 5.77349 9.78215 5.24767C9.87194 4.72186 10.1448 4.24475 10.5525 3.90077C10.9602 3.55679 11.4765 3.3681 12.0099 3.3681C12.5433 3.3681 13.0596 3.55679 13.4673 3.90077C13.875 4.24475 14.1479 4.72186 14.2376 5.24767C14.3274 5.77349 14.2283 6.31412 13.9579 6.77391C13.6875 7.2337 13.2631 7.583 12.7599 7.76003V9.13003H16.2899C17.1215 9.13132 17.9277 9.41653 18.575 9.93844C19.2224 10.4603 19.6722 11.1877 19.8499 12C20.4657 12.1561 21.0118 12.5134 21.4013 13.0152ZM12.4138 5.03126C12.2918 4.94766 12.1478 4.902 11.9999 4.90003C11.8001 4.90001 11.6082 4.97871 11.466 5.11908C11.3238 5.25945 11.2425 5.4502 11.2399 5.65003C11.2399 5.79793 11.2837 5.94254 11.3656 6.06565C11.4476 6.18876 11.5642 6.28488 11.7006 6.34193C11.8371 6.39898 11.9874 6.4144 12.1326 6.38626C12.2778 6.35813 12.4114 6.28768 12.5167 6.18379C12.622 6.0799 12.6942 5.9472 12.7242 5.80238C12.7543 5.65756 12.7409 5.50708 12.6856 5.36988C12.6304 5.23267 12.5358 5.11486 12.4138 5.03126ZM3.62781 14.144C3.52146 14.3358 3.4638 14.5508 3.4599 14.77C3.46633 14.9888 3.52507 15.2028 3.6312 15.3942C3.73733 15.5856 3.88776 15.7487 4.0699 15.87V13.67C3.88597 13.7895 3.73417 13.9522 3.62781 14.144ZM18.296 17.7813C18.4042 17.521 18.4599 17.2419 18.4599 16.96L18.4399 12.78C18.4399 12.4982 18.3842 12.2191 18.2761 11.9588C18.1679 11.6985 18.0094 11.4621 17.8096 11.2633C17.6098 11.0644 17.3727 10.907 17.1119 10.8C16.8511 10.6931 16.5718 10.6387 16.2899 10.64H7.7199C7.15141 10.64 6.60606 10.8652 6.20314 11.2662C5.80023 11.6673 5.57254 12.2115 5.5699 12.78V17C5.58296 17.5615 5.81523 18.0956 6.21703 18.4881C6.61882 18.8805 7.15824 19.1002 7.7199 19.1H16.3099C16.5918 19.1013 16.8711 19.047 17.1319 18.94C17.3927 18.8331 17.6298 18.6756 17.8296 18.4768C18.0294 18.2779 18.1879 18.0416 18.296 17.7813ZM19.9599 13.68V15.86C20.1437 15.7437 20.2951 15.5827 20.4 15.3922C20.505 15.2016 20.56 14.9876 20.56 14.77C20.56 14.5525 20.505 14.3385 20.4 14.1479C20.2951 13.9573 20.1437 13.7964 19.9599 13.68ZM11.99 16.5482C12.9527 16.5482 13.8764 16.1678 14.56 15.49C14.6289 15.4192 14.7113 15.363 14.8024 15.3246C14.8934 15.2862 14.9912 15.2664 15.09 15.2664C15.1888 15.2664 15.2866 15.2862 15.3776 15.3246C15.4686 15.363 15.551 15.4192 15.62 15.49C15.7604 15.6306 15.8393 15.8212 15.8393 16.02C15.8393 16.2187 15.7604 16.4094 15.62 16.55C14.6564 17.5112 13.351 18.0509 11.99 18.0509C10.629 18.0509 9.32353 17.5112 8.35996 16.55C8.21951 16.4094 8.14062 16.2187 8.14062 16.02C8.14062 15.8212 8.21951 15.6306 8.35996 15.49C8.42891 15.4192 8.51133 15.363 8.60235 15.3246C8.69338 15.2862 8.79117 15.2664 8.88997 15.2664C8.98876 15.2664 9.08655 15.2862 9.17758 15.3246C9.2686 15.363 9.35102 15.4192 9.41996 15.49C10.1036 16.1678 11.0273 16.5482 11.99 16.5482ZM10.0299 14.12C10.538 14.12 10.9499 13.7081 10.9499 13.2C10.9499 12.6919 10.538 12.28 10.0299 12.28C9.52176 12.28 9.10986 12.6919 9.10986 13.2C9.10986 13.7081 9.52176 14.12 10.0299 14.12ZM14.9399 14H13.3999C13.201 14 13.0102 13.921 12.8696 13.7803C12.7289 13.6397 12.6499 13.4489 12.6499 13.25C12.6499 13.0511 12.7289 12.8603 12.8696 12.7197C13.0102 12.579 13.201 12.5 13.3999 12.5H14.9399C15.1388 12.5 15.3296 12.579 15.4702 12.7197C15.6109 12.8603 15.6899 13.0511 15.6899 13.25C15.6899 13.4489 15.6109 13.6397 15.4702 13.7803C15.3296 13.921 15.1388 14 14.9399 14Z" fill="black"/>
</svg>
