<svg width="24" height="24" viewBox="0 0 24 24" fill="none" xmlns="http://www.w3.org/2000/svg">
<path fill-rule="evenodd" clip-rule="evenodd" d="M13 3.00001C13 3.55229 13.4477 4 14 4C14.5523 4 15 3.55228 15 3.00001C15 2.44773 14.5523 2 14 2C13.4477 2 13 2.44772 13 3.00001ZM12.2795 4.02036C12.102 3.72164 12 3.37273 12 3.00001C12 1.89544 12.8955 1 14 1C15.1046 1 16 1.89544 16 3.00001C16 4.10457 15.1046 5 14 5C13.6311 5 13.2856 4.90013 12.9889 4.72594L12.4942 5.19232L12.7935 5.7596C15.036 5.85377 17.1517 6.37207 18.7698 7.69925C19.8905 8.61845 20.6687 9.83722 21.1121 11.3402C22.2495 11.6561 22.9329 12.5181 22.9962 14.2514C23.057 16.0071 22.6013 16.6195 21.4016 16.8486C21.0973 18.7559 20.3162 20.2203 18.855 21.1782C17.0851 22.3384 14.626 22.5 12.0001 22.5C9.37425 22.5 6.91513 22.3384 5.14525 21.1782C3.68397 20.2203 2.90282 18.7558 2.59854 16.8483C1.39983 16.619 0.944528 16.0065 1.00533 14.2514C1.06854 12.5188 1.75141 11.6568 2.88806 11.3405C3.33142 9.83743 4.10967 8.61853 5.23046 7.69925C6.95623 6.28377 9.24797 5.78838 11.6559 5.74632L11.4323 5.32268L11.2549 4.98638L11.5316 4.72554L12.2795 4.02036ZM2.25263 15.6734C2.28642 15.7002 2.33886 15.7327 2.4224 15.7661C2.35689 15.3357 2.32699 14.8246 2.34805 14.2167L2.34812 14.2149C2.37068 13.5967 2.44543 13.0679 2.55194 12.6172C2.29243 12.8552 2.04034 13.3142 2.0047 14.2869C1.9662 15.4015 2.17585 15.6125 2.25263 15.6734ZM21.7489 15.6734C21.7151 15.7002 21.6626 15.7327 21.5791 15.7661C21.6446 15.3357 21.6745 14.8246 21.6534 14.2167L21.6534 14.2149C21.6308 13.5967 21.5561 13.0679 21.4496 12.6172C21.7091 12.8552 21.9611 13.3142 21.9968 14.2869C22.0353 15.4015 21.8256 15.6125 21.7489 15.6734ZM12.0001 21C17.3474 21 20.0547 20.2221 20.0547 14.7234C20.0547 9.05851 16.7764 7.24335 12.0001 7.24335C7.22381 7.24335 3.94556 9.05851 3.94556 14.7234C3.94556 20.2221 6.6528 21 12.0001 21Z" fill="#454545"/>
<path fill-rule="evenodd" clip-rule="evenodd" d="M6.32683 16.6908C6.22607 14.9155 6.38058 13.2599 6.74334 11.5246C7.0111 8.99212 16.9306 9.03432 17.2566 11.5246C17.6193 13.2599 17.7739 14.9155 17.6731 16.6908C17.5992 17.5551 16.7057 18.2666 15.8929 18.4128C13.2797 18.6655 10.7135 18.6655 8.10703 18.4128C7.24044 18.3264 6.46119 17.5152 6.32683 16.6908ZM18.2419 11.3511C18.6155 13.1492 18.7773 14.8839 18.6715 16.7474L18.6707 16.7617L18.6695 16.776C18.6051 17.5288 18.1947 18.1406 17.7332 18.5606C17.2705 18.9818 16.675 19.2882 16.07 19.397L16.0298 19.4043L15.9891 19.4082C13.312 19.667 10.6813 19.6671 8.01055 19.4082L8.00778 19.4079C7.30063 19.3374 6.68564 18.9815 6.23889 18.5393C5.79289 18.0979 5.44613 17.5038 5.33985 16.8516L5.33141 16.7998L5.32844 16.7474C5.22287 14.8875 5.3838 13.1559 5.75586 11.3614C5.8418 10.7249 6.21668 10.2459 6.63655 9.91235C7.06286 9.57367 7.59726 9.33106 8.14661 9.15414C9.25016 8.79874 10.6371 8.63828 11.9802 8.64106C13.324 8.64383 14.7121 8.81019 15.8197 9.16572C16.371 9.34272 16.9058 9.5832 17.3344 9.91498C17.7565 10.2418 18.1443 10.7145 18.2419 11.3511Z" fill="#454545"/>
<path fill-rule="evenodd" clip-rule="evenodd" d="M8.17257 14.6464C7.97731 14.8417 7.97731 15.1583 8.17257 15.3535C8.36783 15.5488 8.68441 15.5488 8.87968 15.3535L9.52612 14.7071L10.1726 15.3535C10.3678 15.5488 10.6844 15.5488 10.8797 15.3535C11.0749 15.1583 11.0749 14.8417 10.8797 14.6464L10.2332 14L10.8797 13.3535C11.0749 13.1583 11.0749 12.8417 10.8797 12.6464C10.6844 12.4512 10.3678 12.4512 10.1726 12.6464L9.52612 13.2929L8.87968 12.6464C8.68441 12.4512 8.36783 12.4512 8.17257 12.6464C7.97731 12.8417 7.97731 13.1583 8.17257 13.3535L8.81902 14L8.17257 14.6464Z" fill="#454545"/>
<path fill-rule="evenodd" clip-rule="evenodd" d="M13.1264 14.6464C12.9312 14.8417 12.9312 15.1583 13.1264 15.3535C13.3217 15.5488 13.6383 15.5488 13.8335 15.3535L14.48 14.7071L15.1264 15.3535C15.3217 15.5488 15.6383 15.5488 15.8335 15.3535C16.0288 15.1583 16.0288 14.8417 15.8335 14.6464L15.1871 14L15.8335 13.3535C16.0288 13.1583 16.0288 12.8417 15.8335 12.6464C15.6383 12.4512 15.3217 12.4512 15.1264 12.6464L14.48 13.2929L13.8335 12.6464C13.6383 12.4512 13.3217 12.4512 13.1264 12.6464C12.9312 12.8417 12.9312 13.1583 13.1264 13.3535L13.7729 14L13.1264 14.6464Z" fill="#454545"/>
</svg>
