<svg width="24" height="24" viewBox="0 0 24 24" fill="none" xmlns="http://www.w3.org/2000/svg">
<path fill-rule="evenodd" clip-rule="evenodd" d="M9.19089 2.84763C8.87662 2.71746 8.52351 2.71746 8.20924 2.84763C7.89497 2.97782 7.64528 3.22752 7.5151 3.54181L6.79222 5.28706L6.79177 5.28813C6.50871 5.96856 5.96729 6.50891 5.28632 6.79062L3.54239 7.51301C3.38669 7.57745 3.24499 7.67202 3.12582 7.79116C3.00665 7.9103 2.91212 8.05175 2.84764 8.20744C2.78315 8.36312 2.74997 8.52999 2.75 8.69851C2.75003 8.86703 2.78326 9.03389 2.84779 9.18956L2.84818 9.19048L3.56903 10.9358C3.85158 11.6172 3.85228 12.3833 3.57063 13.0649L2.84821 14.8091C2.71829 15.1233 2.71847 15.4763 2.8487 15.7904C2.97893 16.1045 3.22855 16.3541 3.54269 16.4842L5.28787 17.2071C5.96907 17.49 6.51069 18.032 6.79263 18.7136L7.51555 20.4589C7.64582 20.7729 7.89537 21.0223 8.20939 21.1524C8.52341 21.2824 8.87621 21.2825 9.1903 21.1527L10.9346 20.4312C11.6158 20.1487 12.3821 20.1479 13.0637 20.4296L14.8082 21.1522C15.1225 21.2824 15.4756 21.2824 15.7899 21.1522C16.1042 21.022 16.3539 20.7723 16.484 20.458L17.2069 18.7128C17.4898 18.0314 18.032 17.4897 18.7138 17.2078L20.4573 16.4856C20.613 16.4211 20.7547 16.3266 20.8738 16.2074C20.993 16.0883 21.0875 15.9468 21.152 15.7911C21.2165 15.6355 21.2497 15.4686 21.2496 15.3001C21.2496 15.1315 21.2164 14.9647 21.1519 14.809L20.4312 13.0666C20.1472 12.3839 20.1477 11.6163 20.43 10.9348L21.1524 9.1908C21.2825 8.87651 21.2825 8.52336 21.1524 8.20906C21.0222 7.89476 20.7725 7.64506 20.4582 7.51488L18.713 6.79198C18.0467 6.51526 17.5138 5.99056 17.2271 5.32984C17.2205 5.31633 17.2143 5.30256 17.2085 5.28853L16.4854 3.54287C16.3552 3.22866 16.1056 2.97903 15.7914 2.84887C15.4771 2.71872 15.1241 2.71869 14.8099 2.8488L13.0645 3.56867C12.3833 3.85106 11.617 3.85189 10.9354 3.57027L9.19089 2.84763ZM18.5786 4.67664C18.5841 4.68821 18.5893 4.69998 18.5943 4.71193C18.7242 5.02617 18.9736 5.27594 19.2876 5.40637L21.0323 6.12907C21.7141 6.4115 22.2558 6.95322 22.5382 7.63506C22.8206 8.31689 22.8206 9.08298 22.5382 9.76481L21.8158 11.5088C21.6854 11.8236 21.6856 12.1768 21.816 12.4901L21.8166 12.4917L22.5375 14.2346C22.6775 14.5723 22.7496 14.9343 22.7496 15.2998C22.7497 15.6654 22.6777 16.0274 22.5378 16.3652C22.3979 16.7029 22.1929 17.0098 21.9343 17.2682C21.6758 17.5267 21.3689 17.7317 21.0311 17.8715L19.2874 18.5938C18.9733 18.7236 18.7232 18.973 18.5927 19.2868M18.5927 19.2868L17.8699 21.032C17.5874 21.7139 17.0458 22.2556 16.3639 22.538C15.6821 22.8204 14.916 22.8204 14.2342 22.538L12.4909 21.8159C12.1766 21.686 11.8236 21.6863 11.5095 21.8166L9.76356 22.5388C9.08212 22.8206 8.31662 22.8204 7.63535 22.5382C6.95408 22.256 6.41269 21.7149 6.13008 21.0338L5.40681 19.2876C5.27686 18.9733 5.02727 18.7231 4.71322 18.5927L2.96864 17.87C2.28712 17.5877 1.74558 17.0463 1.46306 16.3649C1.18055 15.6835 1.18016 14.9177 1.462 14.236L2.1843 12.4922C2.31403 12.1779 2.31385 11.8247 2.18356 11.5107L1.46215 9.76401C1.32229 9.42645 1.25006 9.06414 1.25 8.69875C1.24994 8.33318 1.32191 7.97118 1.46181 7.63343C1.6017 7.29568 1.80678 6.98881 2.06531 6.73035C2.32379 6.47194 2.63064 6.26699 2.96834 6.1272L4.71228 5.40481C5.02612 5.27504 5.27611 5.02591 5.40667 4.71238L6.12927 2.96781C6.41168 2.28597 6.95338 1.74425 7.6352 1.46182C8.31702 1.17939 9.08311 1.17939 9.76494 1.46182L11.5083 2.18396C11.8225 2.31369 12.1756 2.31351 12.4896 2.18322L12.4911 2.1826L14.2361 1.4629C14.9176 1.1809 15.6839 1.18078 16.3654 1.46306C17.0471 1.74544 17.5887 2.287 17.8712 2.96866L18.5786 4.67664M16.5303 7.46967C16.8232 7.76256 16.8232 8.23744 16.5303 8.53033L8.53033 16.5303C8.23744 16.8232 7.76256 16.8232 7.46967 16.5303C7.17678 16.2374 7.17678 15.7626 7.46967 15.4697L15.4697 7.46967C15.7626 7.17678 16.2374 7.17678 16.5303 7.46967ZM7.75 9C7.75 8.30964 8.30964 7.75 9 7.75C9.69036 7.75 10.25 8.30964 10.25 9C10.25 9.69036 9.69036 10.25 9 10.25C8.30964 10.25 7.75 9.69036 7.75 9ZM13.75 15C13.75 14.3096 14.3096 13.75 15 13.75C15.6904 13.75 16.25 14.3096 16.25 15C16.25 15.6904 15.6904 16.25 15 16.25C14.3096 16.25 13.75 15.6904 13.75 15Z" fill="#454545"/>
</svg>
