<svg width="24" height="24" viewBox="0 0 24 24" fill="none" xmlns="http://www.w3.org/2000/svg">
<path fill-rule="evenodd" clip-rule="evenodd" d="M9.81367 15.313C9.80889 15.1497 9.84414 14.9829 9.92424 14.8272L11.2813 12.1892L8.42279 13.1846C8.10475 13.2953 7.76918 13.2361 7.51443 13.0553C6.97345 14.4205 5.59586 15.3406 4.05292 15.2324C2.14545 15.0986 0.707606 13.4438 0.841392 11.5364C0.975178 9.6289 2.62994 8.19105 4.5374 8.32484C6.03299 8.42973 7.23987 9.46968 7.62685 10.8333L11.0581 9.64029C11.2096 9.58763 11.3714 9.57219 11.5299 9.59516L11.4957 8.91959C11.4847 8.7017 11.5452 8.48618 11.668 8.30589L16.1 1.80109C16.2501 1.58088 16.4818 1.42966 16.7438 1.38099L17.2497 1.28698C18.1211 1.12506 18.7569 2.093 18.262 2.8284L14.0346 9.11132C13.92 9.28161 13.8606 9.48305 13.8644 9.68827L13.8697 9.96965L14.0614 10.0003C14.2641 10.0328 14.4719 10.0021 14.6565 9.9124L21.468 6.60334C22.2653 6.21603 23.135 6.98063 22.853 7.82095L22.6893 8.30879C22.6045 8.56141 22.4225 8.76975 22.1835 8.88758L15.1237 12.3682C14.928 12.4647 14.7061 12.4945 14.4919 12.4532L13.9086 12.3406C13.8976 12.47 13.8614 12.5963 13.8017 12.7124L12.3125 15.6105C13.5529 16.2498 14.3593 17.5837 14.2555 19.0639C14.1164 21.0473 12.3958 22.5423 10.4125 22.4032C8.42911 22.2641 6.93406 20.5435 7.07316 18.5602C7.1856 16.9571 8.33121 15.673 9.81367 15.313ZM12.6594 18.952C12.5822 20.0538 11.6263 20.8844 10.5244 20.8072C9.42255 20.7299 8.59196 19.774 8.66924 18.6721C8.74653 17.5703 9.70241 16.7397 10.8043 16.817C11.9061 16.8942 12.7367 17.8501 12.6594 18.952ZM2.43747 11.6483C2.50943 10.6223 3.39948 9.84895 4.42545 9.92091C5.45143 9.99287 6.22481 10.8829 6.15285 11.9089C6.08089 12.9349 5.19084 13.7083 4.16486 13.6363C3.13889 13.5643 2.36551 12.6743 2.43747 11.6483ZM12.7 10.2999C12.3134 10.2999 12 10.6133 12 10.9999C12 11.3865 12.3134 11.6999 12.7 11.6999C13.0866 11.6999 13.4 11.3865 13.4 10.9999C13.4 10.6133 13.0866 10.2999 12.7 10.2999Z" fill="#454545"/>
</svg>
