<svg width="24" height="24" viewBox="0 0 24 24" fill="none" xmlns="http://www.w3.org/2000/svg">
<path fill-rule="evenodd" clip-rule="evenodd" d="M2.85986 9.61011H5.85986C6.85361 9.60747 7.80591 9.21153 8.5086 8.50884C9.21129 7.80615 9.60722 6.85386 9.60986 5.86011V2.86011C9.60986 2.6612 9.53085 2.47043 9.39019 2.32978C9.24954 2.18913 9.05878 2.11011 8.85986 2.11011C8.66095 2.11011 8.47019 2.18913 8.32953 2.32978C8.18888 2.47043 8.10986 2.6612 8.10986 2.86011V5.86011C8.10986 6.45684 7.87281 7.02914 7.45085 7.4511C7.0289 7.87305 6.4566 8.11011 5.85986 8.11011H2.85986C2.66095 8.11011 2.47019 8.18913 2.32953 8.32978C2.18888 8.47043 2.10986 8.6612 2.10986 8.86011C2.10986 9.05902 2.18888 9.24979 2.32953 9.39044C2.47019 9.53109 2.66095 9.61011 2.85986 9.61011ZM18.1802 9.61011H21.1802C21.3791 9.61011 21.5699 9.53109 21.7105 9.39044C21.8512 9.24979 21.9302 9.05902 21.9302 8.86011C21.9302 8.6612 21.8512 8.47043 21.7105 8.32978C21.5699 8.18913 21.3791 8.11011 21.1802 8.11011H18.1802C17.5834 8.11011 17.0111 7.87305 16.5892 7.4511C16.1672 7.02914 15.9302 6.45684 15.9302 5.86011V2.86011C15.9302 2.6612 15.8512 2.47043 15.7105 2.32978C15.5699 2.18913 15.3791 2.11011 15.1802 2.11011C14.9813 2.11011 14.7905 2.18913 14.6498 2.32978C14.5092 2.47043 14.4302 2.6612 14.4302 2.86011V5.86011C14.4328 6.85386 14.8288 7.80615 15.5314 8.50884C16.2341 9.21153 17.1864 9.60747 18.1802 9.61011ZM15.1401 21.9299C14.942 21.9273 14.7528 21.8475 14.6127 21.7074C14.4726 21.5673 14.3927 21.378 14.3901 21.1799V18.1799C14.3928 17.1862 14.7887 16.2339 15.4914 15.5312C16.1941 14.8285 17.1464 14.4326 18.1401 14.4299H21.1401C21.339 14.4299 21.5298 14.5089 21.6705 14.6496C21.8111 14.7903 21.8901 14.981 21.8901 15.1799C21.8901 15.3788 21.8111 15.5696 21.6705 15.7103C21.5298 15.8509 21.339 15.9299 21.1401 15.9299H18.1401C17.5434 15.9299 16.9711 16.167 16.5491 16.5889C16.1272 17.0109 15.8901 17.5832 15.8901 18.1799V21.1799C15.8901 21.3788 15.8111 21.5696 15.6705 21.7103C15.5298 21.8509 15.339 21.9299 15.1401 21.9299ZM8.32953 21.7103C8.47019 21.8509 8.66095 21.9299 8.85986 21.9299C9.05797 21.9273 9.24724 21.8475 9.38733 21.7074C9.52742 21.5673 9.60727 21.378 9.60986 21.1799V18.1799C9.60722 17.1862 9.21129 16.2339 8.5086 15.5312C7.80591 14.8285 6.85361 14.4326 5.85986 14.4299H2.85986C2.66095 14.4299 2.47019 14.5089 2.32953 14.6496C2.18888 14.7903 2.10986 14.981 2.10986 15.1799C2.10986 15.3788 2.18888 15.5696 2.32953 15.7103C2.47019 15.8509 2.66095 15.9299 2.85986 15.9299H5.85986C6.4566 15.9299 7.0289 16.167 7.45085 16.5889C7.87281 17.0109 8.10986 17.5832 8.10986 18.1799V21.1799C8.10986 21.3788 8.18888 21.5696 8.32953 21.7103Z" fill="black"/>
</svg>
