<svg width="24" height="24" viewBox="0 0 24 24" fill="none" xmlns="http://www.w3.org/2000/svg">
<path d="M21.8866 20.7696L18.3766 17.2596C19.9209 15.4269 20.6962 13.0678 20.5403 10.6763C20.3844 8.28484 19.3094 6.04638 17.5403 4.42965C15.7712 2.81292 13.4452 1.9433 11.0493 2.00287C8.65351 2.06244 6.37361 3.04658 4.68703 4.74922C3.00044 6.45187 2.03796 8.74099 2.0011 11.1373C1.96424 13.5336 2.85587 15.8512 4.48929 17.6049C6.12272 19.3586 8.37127 20.4124 10.7641 20.5457C13.157 20.6789 15.5086 19.8812 17.3266 18.3196L20.8266 21.8296C20.9673 21.9701 21.1579 22.049 21.3566 22.049C21.5554 22.049 21.746 21.9701 21.8866 21.8296C22.0271 21.689 22.106 21.4984 22.106 21.2996C22.106 21.1009 22.0271 20.9103 21.8866 20.7696V20.7696ZM3.60664 11.3596C3.60466 9.83433 4.05516 8.3427 4.90115 7.07348C5.74713 5.80426 6.95057 4.81449 8.35921 4.22941C9.76786 3.64432 11.3184 3.49021 12.8146 3.78657C14.3109 4.08293 15.6856 4.81645 16.7649 5.89432C17.8442 6.97218 18.5795 8.34595 18.8778 9.84182C19.1761 11.3377 19.024 12.8884 18.4407 14.2978C17.8574 15.7072 16.8692 16.912 15.6011 17.7596C14.333 18.6072 12.842 19.0596 11.3166 19.0596C9.27436 19.057 7.31634 18.2452 5.87129 16.8021C4.42625 15.3589 3.61193 13.4019 3.60664 11.3596V11.3596Z" fill="black"/>
</svg>
