<svg width="24" height="24" viewBox="0 0 24 24" fill="none" xmlns="http://www.w3.org/2000/svg">
<path d="M5.87977 22C5.17322 21.9986 4.48089 21.8013 3.87977 21.43C3.26127 21.0566 2.75124 20.5279 2.40038 19.8963C2.04952 19.2648 1.87004 18.5524 1.87977 17.83C1.88089 17.7411 1.89782 17.653 1.92977 17.57L3.27977 13.88C3.34873 13.693 3.48913 13.5411 3.67011 13.4576C3.85108 13.3742 4.05779 13.366 4.24477 13.435C4.43175 13.504 4.58367 13.6444 4.66713 13.8253C4.75058 14.0063 4.75873 14.213 4.68977 14.4L3.39977 18C3.40922 18.4428 3.5295 18.8761 3.74961 19.2605C3.96972 19.6448 4.28264 19.9678 4.65977 20.2C5.0016 20.4161 5.39476 20.5374 5.79894 20.5515C6.20311 20.5655 6.60375 20.4718 6.95977 20.28L19.5698 13.74C19.8865 13.5856 20.1536 13.3453 20.3404 13.0465C20.5271 12.7477 20.6262 12.4024 20.6262 12.05C20.6262 11.6976 20.5271 11.3523 20.3404 11.0535C20.1536 10.7547 19.8865 10.5144 19.5698 10.36L6.99977 3.77C6.64375 3.57815 6.24311 3.48445 5.83894 3.49851C5.43476 3.51257 5.0416 3.63388 4.69977 3.85C4.30546 4.08221 3.97772 4.41221 3.74824 4.80812C3.51876 5.20402 3.39529 5.65243 3.38977 6.11L3.99977 9.34C4.10286 9.84347 4.37973 10.2946 4.78193 10.6146C5.18412 10.9345 5.68601 11.1028 6.19977 11.09H12.9998C13.1987 11.09 13.3894 11.169 13.5301 11.3097C13.6708 11.4503 13.7498 11.6411 13.7498 11.84C13.7498 12.0389 13.6708 12.2297 13.5301 12.3703C13.3894 12.511 13.1987 12.59 12.9998 12.59H6.17977C5.31142 12.6029 4.46632 12.3092 3.7932 11.7605C3.12008 11.2117 2.66207 10.4432 2.49977 9.59L1.90977 6.31C1.90495 6.26346 1.90495 6.21654 1.90977 6.17C1.90004 5.4476 2.07952 4.73522 2.43038 4.10367C2.78124 3.47212 3.29127 2.94338 3.90977 2.57C4.47283 2.22296 5.11653 2.02848 5.77755 2.00568C6.43857 1.98289 7.09414 2.13257 7.67977 2.44L20.2598 9C20.8121 9.28267 21.2757 9.71236 21.5995 10.2417C21.9232 10.771 22.0946 11.3795 22.0946 12C22.0946 12.6205 21.9232 13.229 21.5995 13.7583C21.2757 14.2876 20.8121 14.7173 20.2598 15L7.64977 21.56C7.10339 21.846 6.49645 21.9968 5.87977 22V22Z" fill="black"/>
</svg>
