<svg width="24" height="24" viewBox="0 0 24 24" fill="none" xmlns="http://www.w3.org/2000/svg">
<path d="M18.1798 14.5302C17.2283 14.5328 16.3161 14.9098 15.6405 15.5798C14.9649 16.2498 14.5803 17.1588 14.5698 18.1102H13.1698L13.2398 5.88019H14.5698C14.5836 6.77358 14.9274 7.63028 15.5349 8.28546C16.1424 8.94063 16.9708 9.34799 17.8606 9.42914C18.7504 9.51029 19.6387 9.25951 20.3548 8.72504C21.0708 8.19057 21.5638 7.41019 21.739 6.53404C21.9143 5.6579 21.7593 4.74791 21.3039 3.97916C20.8486 3.21042 20.125 2.63724 19.2724 2.36992C18.4198 2.1026 17.4985 2.16002 16.6858 2.53114C15.873 2.90226 15.2262 3.56085 14.8698 4.38019H13.2398C13.0414 4.37215 12.8435 4.4033 12.6572 4.47184C12.4709 4.54039 12.3 4.64499 12.1541 4.77967C12.0083 4.91434 11.8905 5.07645 11.8074 5.25671C11.7243 5.43697 11.6775 5.63184 11.6698 5.83019V11.2202H9.66978C9.48375 10.2962 8.96093 9.47424 8.20287 8.91406C7.4448 8.35389 6.5056 8.09544 5.56767 8.18892C4.62974 8.2824 3.76003 8.72113 3.12744 9.4199C2.49484 10.1187 2.14453 11.0276 2.14453 11.9702C2.14453 12.9128 2.49484 13.8217 3.12744 14.5205C3.76003 15.2193 4.62974 15.658 5.56767 15.7515C6.5056 15.8449 7.4448 15.5865 8.20287 15.0263C8.96093 14.4661 9.48375 13.6442 9.66978 12.7202H11.6698V18.1102C11.6775 18.3085 11.7243 18.5034 11.8074 18.6837C11.8905 18.8639 12.0083 19.026 12.1541 19.1607C12.3 19.2954 12.4709 19.4 12.6572 19.4685C12.8435 19.5371 13.0414 19.5682 13.2398 19.5602H14.8698C15.131 20.1558 15.5483 20.6698 16.0776 21.0478C16.6069 21.4258 17.2284 21.6539 17.8766 21.7078C18.5247 21.7617 19.1754 21.6395 19.7599 21.3541C20.3443 21.0687 20.8408 20.6307 21.1968 20.0864C21.5529 19.5421 21.7552 18.9117 21.7826 18.2619C21.8099 17.6121 21.6612 16.967 21.3521 16.3947C21.043 15.8224 20.5851 15.3443 20.0267 15.0108C19.4683 14.6773 18.8302 14.5009 18.1798 14.5002V14.5302ZM18.1798 3.73019C18.5991 3.73019 19.009 3.85453 19.3576 4.08747C19.7062 4.32042 19.9779 4.65152 20.1384 5.0389C20.2989 5.42628 20.3408 5.85254 20.259 6.26378C20.1772 6.67502 19.9753 7.05277 19.6788 7.34926C19.3824 7.64574 19.0046 7.84765 18.5934 7.92946C18.1821 8.01126 17.7559 7.96927 17.3685 7.80882C16.9811 7.64836 16.65 7.37663 16.4171 7.028C16.1841 6.67937 16.0598 6.26949 16.0598 5.85019C16.0585 5.57142 16.1124 5.29515 16.2185 5.03734C16.3245 4.77953 16.4806 4.5453 16.6778 4.34817C16.8749 4.15105 17.1091 3.99494 17.3669 3.88887C17.6247 3.7828 17.901 3.72887 18.1798 3.73019V3.73019ZM5.99978 14.3002C5.54289 14.3101 5.09339 14.1837 4.70864 13.9371C4.32388 13.6905 4.02132 13.3349 3.83955 12.9156C3.65777 12.4963 3.60503 12.0323 3.68805 11.5829C3.77107 11.1335 3.98608 10.719 4.30566 10.3924C4.62524 10.0657 5.0349 9.8416 5.48237 9.74873C5.92983 9.65586 6.39482 9.69839 6.81802 9.8709C7.24121 10.0434 7.60341 10.3381 7.85842 10.7173C8.11343 11.0966 8.24967 11.5432 8.24978 12.0002C8.24992 12.6016 8.01448 13.1792 7.5939 13.6091C7.17332 14.039 6.60107 14.2871 5.99978 14.3002V14.3002ZM18.2298 20.3002C17.8101 20.3022 17.3992 20.1795 17.0493 19.9478C16.6993 19.716 16.426 19.3856 16.264 18.9984C16.102 18.6112 16.0586 18.1847 16.1393 17.7728C16.22 17.3609 16.4211 16.9822 16.7172 16.6847C17.0133 16.3872 17.391 16.1843 17.8025 16.1017C18.214 16.0191 18.6408 16.0605 19.0287 16.2206C19.4167 16.3808 19.7484 16.6525 19.9818 17.0013C20.2152 17.3502 20.3398 17.7605 20.3398 18.1802C20.3359 18.4595 20.2768 18.7352 20.166 18.9916C20.0552 19.248 19.8949 19.4799 19.6942 19.6741C19.4935 19.8683 19.2563 20.021 18.9965 20.1233C18.7366 20.2256 18.459 20.2755 18.1798 20.2702L18.2298 20.3002Z" fill="black"/>
</svg>
