<svg width="24" height="24" viewBox="0 0 24 24" fill="none" xmlns="http://www.w3.org/2000/svg">
<path d="M13.7411 3.47494C13.8456 3.47596 13.9463 3.51303 14.0255 3.57961C14.1047 3.64619 14.1572 3.73798 14.1739 3.83875L14.506 6.09047C15.0477 6.30301 15.5586 6.584 16.0257 6.92626L18.1492 6.09047C18.1991 6.08117 18.2503 6.08117 18.3002 6.09047C18.3764 6.09035 18.4513 6.11039 18.5169 6.14848C18.5824 6.18656 18.6362 6.24127 18.6725 6.30679L20.4237 9.25664C20.4745 9.34481 20.4913 9.44787 20.471 9.54711C20.4507 9.64634 20.3946 9.73517 20.313 9.79745L18.4712 11.2134C18.5518 11.7612 18.5518 12.3175 18.4712 12.8653L20.313 14.2812C20.393 14.3448 20.4471 14.4343 20.4655 14.5335C20.484 14.6326 20.4656 14.735 20.4136 14.822L18.6725 17.7719C18.6346 17.8361 18.5805 17.8897 18.5153 17.9276C18.4501 17.9654 18.376 17.9863 18.3002 17.9882C18.247 17.9985 18.1923 17.9985 18.1391 17.9882L16.0257 17.0541C15.5708 17.3928 15.0737 17.6737 14.5462 17.8899L14.2242 20.1416C14.2076 20.2424 14.155 20.3341 14.0758 20.4007C13.9966 20.4673 13.8959 20.5044 13.7914 20.5054H10.2589C10.1539 20.5064 10.052 20.47 9.97241 20.4031C9.89278 20.3362 9.8408 20.2432 9.82615 20.1416L9.49403 17.8899C8.96982 17.6735 8.47603 17.3927 8.02466 17.0541L5.85081 17.8899C5.80094 17.8992 5.74972 17.8992 5.69985 17.8899C5.62358 17.89 5.5487 17.8699 5.48314 17.8319C5.41758 17.7938 5.36379 17.7391 5.32747 17.6735L3.57631 14.7237C3.52547 14.6355 3.50868 14.5325 3.52899 14.4332C3.54931 14.334 3.60538 14.2452 3.68702 14.1829L5.52876 12.767C5.43473 12.2202 5.43473 11.6619 5.52876 11.115L3.68702 9.74828C3.60538 9.686 3.54931 9.59718 3.52899 9.49794C3.50868 9.39871 3.52547 9.29565 3.57631 9.20748L5.32747 6.25763C5.36994 6.2012 5.4264 6.15625 5.49154 6.12701C5.55668 6.09777 5.62836 6.08519 5.69985 6.09047C5.74972 6.08117 5.80094 6.08117 5.85081 6.09047L8.02466 6.94593C8.47492 6.60046 8.96876 6.31295 9.49403 6.09047L9.82615 3.83875C9.8408 3.73712 9.89278 3.64417 9.97241 3.57723C10.052 3.51029 10.1539 3.47393 10.2589 3.47494H13.7411ZM12 14.94C12.5971 14.94 13.1809 14.767 13.6774 14.4429C14.1739 14.1187 14.5609 13.658 14.7894 13.119C15.0179 12.58 15.0777 11.9869 14.9612 11.4147C14.8447 10.8425 14.5572 10.3169 14.1349 9.90431C13.7127 9.49176 13.1747 9.21082 12.589 9.097C12.0033 8.98318 11.3963 9.04159 10.8446 9.26486C10.2929 9.48813 9.82135 9.86622 9.48959 10.3513C9.15783 10.8364 8.98076 11.4067 8.98076 11.9902C8.98076 12.7725 9.29885 13.5228 9.86507 14.076C10.4313 14.6292 11.1992 14.94 12 14.94ZM13.7411 2.00001H10.2589C9.79843 1.99845 9.35236 2.15677 9.00027 2.44673C8.64819 2.73669 8.413 3.13943 8.33665 3.5831L8.11524 5.10719L7.84351 5.26451L6.42447 4.70404C6.19262 4.6185 5.94761 4.57195 5.69985 4.56638C5.35543 4.56906 5.018 4.66162 4.7225 4.83451C4.427 5.00739 4.18416 5.25429 4.01914 5.54966L2.27804 8.49951C2.04463 8.89058 1.96198 9.35028 2.04503 9.79565C2.12808 10.241 2.37135 10.6427 2.73093 10.9282L3.94869 11.8328C3.94869 11.882 3.94869 11.9902 3.94869 11.9902C3.94869 11.9902 3.94869 12.0983 3.94869 12.1475L2.74099 13.0718C2.37473 13.352 2.12423 13.7519 2.03549 14.198C1.94675 14.6442 2.02572 15.1067 2.25791 15.5005L4.00907 18.4503C4.1741 18.7457 4.41694 18.9926 4.71244 19.1655C5.00794 19.3384 5.34537 19.4309 5.68978 19.4336C5.93455 19.4306 6.1767 19.3839 6.40434 19.296L7.83345 18.7355L8.10518 18.8928L8.31652 20.3677C8.39556 20.8162 8.63135 21.2241 8.98372 21.5217C9.33608 21.8194 9.78319 21.9884 10.2488 22H13.731C14.1915 22.0016 14.6376 21.8432 14.9897 21.5533C15.3417 21.2633 15.5769 20.8606 15.6533 20.4169L15.8848 18.8731L16.1565 18.7158L17.5755 19.2763C17.8069 19.3636 18.0522 19.4102 18.3002 19.414C18.6441 19.4092 18.9807 19.3158 19.2759 19.1432C19.571 18.9705 19.8142 18.7247 19.9809 18.4307L21.722 15.4808C21.9554 15.0898 22.038 14.6301 21.955 14.1847C21.8719 13.7393 21.6286 13.3376 21.2691 13.0521L20.0513 12.1475V11.8328L21.259 10.9086C21.6253 10.6283 21.8758 10.2284 21.9645 9.78229C22.0533 9.33614 21.9743 8.87368 21.7421 8.47985L19.9909 5.53C19.8259 5.23463 19.5831 4.98772 19.2876 4.81484C18.9921 4.64196 18.6546 4.54939 18.3102 4.54671C18.0654 4.54977 17.8233 4.59642 17.5957 4.68437L16.1666 5.24485L15.8848 5.10719L15.6734 3.63226C15.6685 3.60626 15.6685 3.5796 15.6734 3.5536C15.5785 3.12119 15.3371 2.73266 14.9883 2.45077C14.6396 2.16888 14.2037 2.01008 13.7512 2.00001H13.7411ZM12 13.4946C11.6955 13.4946 11.3977 13.4064 11.1445 13.241C10.8913 13.0757 10.6939 12.8408 10.5774 12.5659C10.4609 12.291 10.4304 11.9885 10.4898 11.6967C10.5492 11.4048 10.6958 11.1368 10.9112 10.9264C11.1265 10.716 11.4009 10.5727 11.6996 10.5147C11.9983 10.4566 12.3079 10.4864 12.5893 10.6003C12.8706 10.7141 13.1111 10.907 13.2803 11.1544C13.4495 11.4018 13.5398 11.6926 13.5398 11.9902C13.5398 12.3892 13.3776 12.7718 13.0888 13.054C12.8 13.3361 12.4084 13.4946 12 13.4946V13.4946Z" fill="black"/>
</svg>
