<svg width="24" height="24" viewBox="0 0 24 24" fill="none" xmlns="http://www.w3.org/2000/svg">
<path d="M16.9998 11.92C17.9888 11.92 18.9554 11.6268 19.7777 11.0774C20.5999 10.528 21.2408 9.74709 21.6192 8.83346C21.9977 7.91983 22.0967 6.9145 21.9038 5.94459C21.7108 4.97469 21.2346 4.08377 20.5354 3.38451C19.8361 2.68525 18.9452 2.20905 17.9753 2.01612C17.0054 1.82319 16.0001 1.92221 15.0864 2.30065C14.1728 2.67909 13.3919 3.31995 12.8425 4.14219C12.2931 4.96444 11.9998 5.93114 11.9998 6.92005C12.0078 7.14803 12.0312 7.37522 12.0698 7.60005H11.9998L7.99984 9.60005C7.52478 9.11017 6.9186 8.76759 6.25387 8.61333C5.58914 8.45907 4.89404 8.49967 4.25179 8.73026C3.60953 8.96084 3.04735 9.37165 2.63254 9.9135C2.21773 10.4553 1.96789 11.1053 1.91291 11.7854C1.85793 12.4656 2.00016 13.1472 2.32256 13.7486C2.64496 14.3501 3.13387 14.8458 3.73075 15.1766C4.32763 15.5073 5.00719 15.659 5.68807 15.6135C6.36894 15.568 7.02227 15.3273 7.56984 14.92L12.5698 18.31C12.5174 18.5363 12.4906 18.7678 12.4898 19C12.4684 19.7595 12.7161 20.5021 13.1893 21.0965C13.6625 21.6909 14.3306 22.0988 15.0755 22.2482C15.8204 22.3975 16.5942 22.2787 17.2599 21.9127C17.9257 21.5466 18.4406 20.957 18.7135 20.2479C18.9865 19.5389 19 18.7562 18.7516 18.0382C18.5032 17.3202 18.0089 16.7132 17.3562 16.3245C16.7034 15.9357 15.9342 15.7903 15.1846 15.9139C14.435 16.0376 13.7532 16.4223 13.2598 17L8.51984 13.75C8.82215 13.2336 8.98738 12.6484 8.99984 12.05C8.99342 11.6406 8.91907 11.2351 8.77984 10.85L12.4998 9.00005C12.895 9.86399 13.5281 10.5975 14.3251 11.1146C15.1221 11.6317 16.0499 11.9111 16.9998 11.92V11.92ZM16.9998 3.36005C17.698 3.36005 18.3805 3.56708 18.961 3.95496C19.5415 4.34284 19.994 4.89415 20.2611 5.53917C20.5283 6.1842 20.5982 6.89396 20.462 7.57872C20.3258 8.26347 19.9896 8.89245 19.4959 9.38613C19.0023 9.87981 18.3733 10.216 17.6885 10.3522C17.0038 10.4884 16.294 10.4185 15.649 10.1513C15.0039 9.88416 14.4526 9.43171 14.0648 8.85121C13.6769 8.2707 13.4698 7.58821 13.4698 6.89005C13.4725 5.95464 13.8452 5.05831 14.5067 4.39687C15.1681 3.73544 16.0644 3.36268 16.9998 3.36005V3.36005ZM15.6398 17.3C15.9701 17.2942 16.2946 17.3863 16.5725 17.5649C16.8503 17.7435 17.0689 18.0004 17.2008 18.3032C17.3326 18.606 17.3717 18.9411 17.3131 19.2662C17.2544 19.5912 17.1008 19.8916 16.8715 20.1292C16.6422 20.3669 16.3475 20.5313 16.0248 20.6016C15.7021 20.6718 15.3658 20.6448 15.0584 20.5239C14.7511 20.4031 14.4864 20.1938 14.298 19.9225C14.1096 19.6513 14.0058 19.3303 13.9998 19C13.9945 18.7804 14.0329 18.5618 14.1127 18.3571C14.1925 18.1524 14.3121 17.9655 14.4647 17.8074C14.6172 17.6493 14.7997 17.523 15.0014 17.4359C15.2031 17.3488 15.4201 17.3026 15.6398 17.3ZM5.42984 14.09C5.03656 14.0802 4.65491 13.9546 4.33266 13.729C4.0104 13.5033 3.76185 13.1876 3.61811 12.8214C3.47438 12.4552 3.44184 12.0547 3.52456 11.6701C3.60728 11.2855 3.8016 10.9338 4.0832 10.6591C4.36479 10.3844 4.72115 10.1988 5.10769 10.1256C5.49422 10.0524 5.89376 10.0948 6.25631 10.2476C6.61886 10.4003 6.92831 10.6565 7.14594 10.9843C7.36358 11.312 7.47972 11.6966 7.47984 12.09C7.47993 12.357 7.42659 12.6212 7.32296 12.8671C7.21934 13.1131 7.06754 13.3358 6.87649 13.5222C6.68545 13.7086 6.45903 13.8549 6.21057 13.9524C5.96212 14.0499 5.69666 14.0967 5.42984 14.09V14.09Z" fill="black"/>
</svg>
