<svg width="24" height="24" viewBox="0 0 24 24" fill="none" xmlns="http://www.w3.org/2000/svg">
<path d="M12 2C10.0222 2 8.08879 2.58649 6.4443 3.6853C4.79981 4.78412 3.51809 6.3459 2.76121 8.17317C2.00433 10.0004 1.8063 12.0111 2.19215 13.9509C2.578 15.8907 3.53041 17.6725 4.92894 19.0711C6.32746 20.4696 8.10929 21.422 10.0491 21.8079C11.9889 22.1937 13.9996 21.9957 15.8268 21.2388C17.6541 20.4819 19.2159 19.2002 20.3147 17.5557C21.4135 15.9112 22 13.9778 22 12C22 10.6868 21.7413 9.38642 21.2388 8.17317C20.7363 6.95991 19.9997 5.85752 19.0711 4.92893C18.1425 4.00035 17.0401 3.26375 15.8268 2.7612C14.6136 2.25866 13.3132 2 12 2V2ZM20.46 11.25H16.64C16.6463 8.74066 16.0857 6.26232 15 4C16.5015 4.57008 17.811 5.55342 18.7772 6.83636C19.7434 8.1193 20.3268 9.64947 20.46 11.25ZM12.77 3.54C12.8044 3.59423 12.8447 3.64453 12.89 3.69C12.89 3.69 14.89 5.48 15.14 11.25H8.86C9.14 5.53 11.06 3.74 11.11 3.69C11.1586 3.64478 11.2021 3.59449 11.24 3.54C11.49 3.54 11.74 3.54 12 3.54C12.26 3.54 12.52 3.52 12.77 3.54ZM9 4C7.90765 6.24738 7.33354 8.71125 7.32 11.21H3.54C3.68046 9.61652 4.2672 8.09489 5.23292 6.81964C6.19865 5.54438 7.50426 4.56714 9 4V4ZM3.5 12.71H7.33C7.2367 15.253 7.83826 17.7733 9.07 20C7.55477 19.4417 6.22993 18.4632 5.25058 17.1793C4.27123 15.8953 3.67788 14.3589 3.54 12.75L3.5 12.71ZM11.28 20.43C11.2525 20.3739 11.2152 20.3231 11.17 20.28C11.17 20.28 8.82 18.14 8.79 12.71H15.13C15.13 18.14 12.77 20.26 12.75 20.28C12.7026 20.3212 12.665 20.3724 12.64 20.43C12.41 20.43 12.19 20.43 11.96 20.43C11.73 20.43 11.55 20.48 11.32 20.47L11.28 20.43ZM14.89 19.93C16.1094 17.7239 16.7106 15.2294 16.63 12.71H20.42C20.2928 14.3214 19.7087 15.8631 18.7363 17.1543C17.7639 18.4455 16.4435 19.4326 14.93 20L14.89 19.93Z" fill="black"/>
</svg>
