<svg width="24" height="24" viewBox="0 0 24 24" fill="none" xmlns="http://www.w3.org/2000/svg">
<path fill-rule="evenodd" clip-rule="evenodd" d="M9.24082 3.93934C8.95951 3.65804 8.57798 3.5 8.18016 3.5H4.91016C4.51233 3.5 4.1308 3.65804 3.8495 3.93934C3.56819 4.22064 3.41016 4.60218 3.41016 5V8.27C3.41016 8.66783 3.56819 9.04936 3.8495 9.33066C4.1308 9.61196 4.51233 9.77 4.91016 9.77H8.18016C8.57798 9.77 8.95951 9.61196 9.24082 9.33066C9.52212 9.04936 9.68016 8.66783 9.68016 8.27V5C9.68016 4.60218 9.52212 4.22064 9.24082 3.93934ZM4.91016 2H8.18016C8.97581 2 9.73887 2.31607 10.3015 2.87868C10.8641 3.44129 11.1802 4.20435 11.1802 5V8.27C11.1802 9.06565 10.8641 9.82871 10.3015 10.3913C9.73887 10.9539 8.97581 11.27 8.18016 11.27H4.91016C4.11451 11.27 3.35144 10.9539 2.78884 10.3913C2.22623 9.82871 1.91016 9.06565 1.91016 8.27V5C1.91016 4.20435 2.22623 3.44129 2.78884 2.87868C3.35144 2.31607 4.11451 2 4.91016 2ZM9.24082 14.6693C8.95951 14.388 8.57798 14.23 8.18016 14.23H4.91016C4.51233 14.23 4.1308 14.388 3.8495 14.6693C3.56819 14.9506 3.41016 15.3322 3.41016 15.73V19C3.41016 19.3978 3.56819 19.7793 3.8495 20.0606C4.1308 20.3419 4.51233 20.5 4.91016 20.5H8.18016C8.57798 20.5 8.95951 20.3419 9.24082 20.0606C9.52212 19.7793 9.68016 19.3978 9.68016 19V15.73C9.68016 15.3322 9.52212 14.9506 9.24082 14.6693ZM4.91016 12.73H8.18016C8.97581 12.73 9.73887 13.0461 10.3015 13.6087C10.8641 14.1713 11.1802 14.9343 11.1802 15.73V19C11.1802 19.7956 10.8641 20.5587 10.3015 21.1213C9.73887 21.6839 8.97581 22 8.18016 22H4.91016C4.11451 22 3.35144 21.6839 2.78884 21.1213C2.22623 20.5587 1.91016 19.7956 1.91016 19V15.73C1.91016 14.9343 2.22623 14.1713 2.78884 13.6087C3.35144 13.0461 4.11451 12.73 4.91016 12.73ZM19.0798 3.49C19.2776 3.49 19.4735 3.52912 19.6561 3.60513C19.8388 3.68114 20.0046 3.79252 20.144 3.93287C20.2834 4.07322 20.3937 4.23976 20.4685 4.4229C20.5433 4.60605 20.5811 4.80218 20.5798 5V8.26C20.5798 8.65782 20.4218 9.03936 20.1405 9.32066C19.8592 9.60196 19.4776 9.76 19.0798 9.76H15.7998C15.402 9.76 15.0204 9.60196 14.7391 9.32066C14.4578 9.03936 14.2998 8.65782 14.2998 8.26V5C14.2998 4.60218 14.4578 4.22064 14.7391 3.93934C15.0204 3.65804 15.402 3.5 15.7998 3.5H19.0798V3.49ZM19.0798 2H15.7998C15.0042 2 14.2411 2.31607 13.6785 2.87868C13.1159 3.44129 12.7998 4.20435 12.7998 5V8.26C12.7998 9.05565 13.1159 9.81871 13.6785 10.3813C14.2411 10.9439 15.0042 11.26 15.7998 11.26H19.0798C19.8755 11.26 20.6385 10.9439 21.2011 10.3813C21.7637 9.81871 22.0798 9.05565 22.0798 8.26V5C22.0798 4.20435 21.7637 3.44129 21.2011 2.87868C20.6385 2.31607 19.8755 2 19.0798 2ZM20.1405 14.6593C19.8592 14.378 19.4776 14.22 19.0798 14.22H15.7998C15.402 14.22 15.0204 14.378 14.7391 14.6593C14.4578 14.9406 14.2998 15.3221 14.2998 15.72V19C14.2998 19.3978 14.4578 19.7793 14.7391 20.0606C15.0204 20.3419 15.402 20.5 15.7998 20.5H19.0798C19.4776 20.5 19.8592 20.3419 20.1405 20.0606C20.4218 19.7793 20.5798 19.3978 20.5798 19V15.72C20.5798 15.3221 20.4218 14.9406 20.1405 14.6593ZM15.7998 12.72H19.0798C19.8755 12.72 20.6385 13.036 21.2011 13.5986C21.7637 14.1613 22.0798 14.9243 22.0798 15.72V19C22.0798 19.7956 21.7637 20.5587 21.2011 21.1213C20.6385 21.6839 19.8755 22 19.0798 22H15.7998C15.0042 22 14.2411 21.6839 13.6785 21.1213C13.1159 20.5587 12.7998 19.7956 12.7998 19V15.72C12.7998 14.9243 13.1159 14.1613 13.6785 13.5986C14.2411 13.036 15.0042 12.72 15.7998 12.72Z" fill="black"/>
</svg>
