<svg width="24" height="24" viewBox="0 0 24 24" fill="none" xmlns="http://www.w3.org/2000/svg">
<path fill-rule="evenodd" clip-rule="evenodd" d="M8 2H16C16.7956 2 17.5587 2.31607 18.1213 2.87868C18.6839 3.44129 19 4.20435 19 5V19C19 19.7956 18.6839 20.5587 18.1213 21.1213C17.5587 21.6839 16.7956 22 16 22H8C7.20435 22 6.44129 21.6839 5.87868 21.1213C5.31607 20.5587 5 19.7956 5 19V5C5 4.20435 5.31607 3.44129 5.87868 2.87868C6.44129 2.31607 7.20435 2 8 2ZM16 3.5H8C7.60218 3.5 7.22064 3.65804 6.93934 3.93934C6.65804 4.22064 6.5 4.60218 6.5 5V17.25H17.5V5C17.5 4.60218 17.342 4.22064 17.0607 3.93934C16.7794 3.65804 16.3978 3.5 16 3.5ZM8 20.5H16C16.3978 20.5 16.7794 20.342 17.0607 20.0607C17.342 19.7794 17.5 19.3978 17.5 19V18.75H6.5V19C6.5 19.3978 6.65804 19.7794 6.93934 20.0607C7.22064 20.342 7.60218 20.5 8 20.5ZM13.1101 6.56995H10.8901C10.6912 6.56995 10.5005 6.49093 10.3598 6.35028C10.2192 6.20962 10.1401 6.01886 10.1401 5.81995C10.1401 5.62103 10.2192 5.43027 10.3598 5.28962C10.5005 5.14896 10.6912 5.06995 10.8901 5.06995H13.1101C13.309 5.06995 13.4998 5.14896 13.6405 5.28962C13.7811 5.43027 13.8601 5.62103 13.8601 5.81995C13.8601 6.01886 13.7811 6.20962 13.6405 6.35028C13.4998 6.49093 13.309 6.56995 13.1101 6.56995Z" fill="black"/>
</svg>
