<svg width="24" height="24" viewBox="0 0 24 24" fill="none" xmlns="http://www.w3.org/2000/svg">
<path d="M21.9997 6.00364C22.0034 5.95273 21.9701 5.90182 21.9071 5.89092C20.985 5.77456 19.111 5.48367 18.5851 4.97461C18.1222 4.52736 17.8111 3.06926 17.6444 2.0875C17.6333 2.01114 17.5593 1.98569 17.5 2.00751C17.4444 1.98569 17.3704 2.01114 17.3556 2.0875C17.1926 3.06926 16.8778 4.52372 16.4149 4.97461C15.889 5.48367 14.015 5.77456 13.0929 5.89092C13.0299 5.89819 12.9966 5.94909 13.0003 6C12.9966 6.05091 13.0299 6.10181 13.0929 6.10908C14.015 6.22544 15.889 6.51633 16.4149 7.02539C16.8778 7.47264 17.1889 8.93074 17.3556 9.9125C17.3667 9.98886 17.4407 10.0143 17.5 9.99249C17.5556 10.0143 17.6296 9.98886 17.6444 9.9125C17.8074 8.93074 18.1222 7.47628 18.5851 7.02539C19.111 6.51633 20.985 6.22544 21.9071 6.10908C21.9664 6.10908 21.9997 6.05454 21.9997 6.00364Z" fill="#454545"/>
<path d="M23 18.5049C23 18.4464 22.9657 18.3878 22.897 18.3781C21.8715 18.2513 19.7911 17.9196 19.2023 17.349C18.6871 16.8418 18.3388 15.2031 18.1572 14.1009C18.1425 14.018 18.064 13.9887 18.0002 14.0083C17.9364 13.9839 17.853 14.0131 17.8432 14.1009C17.6617 15.2031 17.3133 16.8418 16.7981 17.349C16.2142 17.9196 14.1289 18.2513 13.1034 18.3781C13.0348 18.3878 12.9955 18.4464 13.0004 18.5C13.0004 18.5585 13.0348 18.6122 13.1034 18.6219C14.1289 18.7487 16.2093 19.0804 16.7981 19.651C17.3133 20.1582 17.6617 21.7969 17.8432 22.8991C17.8579 22.982 17.9364 23.0113 18.0002 22.9917C18.064 23.0161 18.1474 22.9869 18.1572 22.8991C18.3388 21.7969 18.6871 20.1582 19.2023 19.651C19.7862 19.0804 21.8715 18.7487 22.897 18.6219C22.9657 18.6219 23 18.5634 23 18.5049C23 18.5098 23 18.5098 23 18.5049Z" fill="#454545"/>
<path d="M19.7722 12.7595H19.7761C20.1415 12.7095 20.3877 12.3786 20.3877 11.9363C20.3877 11.4939 20.1415 11.1631 19.7722 11.1131C16.4102 10.6861 13.9982 10.0398 13.3251 9.37431C13.0327 9.0858 12.2749 7.95101 11.5748 3.70033C11.5171 3.32334 11.1709 3.07715 10.6939 3.07715C10.2169 3.07715 9.87065 3.31949 9.81295 3.69648C9.11668 7.95101 8.35887 9.0858 8.06267 9.37431C7.38949 10.036 4.97756 10.6861 1.61548 11.1131C1.24619 11.1631 1 11.4939 1 11.9363C1 12.3863 1.24235 12.7095 1.61548 12.7595C4.97756 13.1865 7.38949 13.8327 8.06267 14.4982C8.35502 14.7867 9.11284 15.9215 9.81295 20.1722C9.87065 20.5492 10.2169 20.7954 10.6939 20.7954C11.1709 20.7954 11.5171 20.553 11.5748 20.176C12.271 15.9215 13.0289 14.7867 13.3251 14.4982C13.9982 13.8327 16.4102 13.1826 19.7722 12.7595ZM17.2757 11.9363C16.6871 12.044 16.0755 12.1748 15.4908 12.3248C13.9828 12.7095 13.0019 13.1441 12.4865 13.6481C11.7979 14.329 11.1939 15.9138 10.6939 18.3681C10.1938 15.9177 9.58984 14.3328 8.90127 13.6481C8.3858 13.1441 7.40487 12.7095 5.89694 12.3248C5.31223 12.1748 4.69675 12.0478 4.11204 11.9363C4.70059 11.8286 5.31223 11.6978 5.89694 11.5477C7.40487 11.1631 8.3858 10.7284 8.90127 10.2244C9.58984 9.54357 10.1938 7.9587 10.6939 5.50446C11.1939 7.95485 11.7979 9.53972 12.4865 10.2244C13.0019 10.7284 13.9828 11.1631 15.4908 11.5477C16.0755 11.6978 16.691 11.8286 17.2757 11.9363Z" fill="#454545"/>
</svg>
