<svg width="24" height="24" viewBox="0 0 24 24" fill="none" xmlns="http://www.w3.org/2000/svg">
<path fill-rule="evenodd" clip-rule="evenodd" d="M16.1536 20.2262C16.2741 20.3366 16.4273 20.4047 16.59 20.42C16.6798 20.4105 16.7675 20.3868 16.85 20.35C19.93 19.18 22 15.87 22 12C22 8.13 19.9 4.76 16.76 3.65C16.5746 3.58881 16.3726 3.60233 16.197 3.68769C16.0214 3.77305 15.886 3.92351 15.8196 4.10711C15.7532 4.29071 15.761 4.49297 15.8414 4.6709C15.9217 4.84884 16.0683 4.98842 16.25 5.06C18.76 5.98 20.51 8.9 20.51 12.06C20.51 15.22 18.79 18.07 16.33 19C16.1833 19.072 16.0641 19.1899 15.9906 19.3358C15.917 19.4817 15.8932 19.6477 15.9226 19.8084C15.952 19.9691 16.0331 20.1158 16.1536 20.2262ZM10.6898 19C10.4179 18.9978 10.1518 18.9218 9.91981 18.78L6.7398 16.78C6.57778 16.6795 6.39042 16.6275 6.1998 16.63H4.1998C3.62867 16.6274 3.08183 16.3986 2.67891 15.9938C2.276 15.589 2.0498 15.0411 2.0498 14.47V9.42C2.0498 8.84886 2.276 8.30096 2.67891 7.89617C3.08183 7.49138 3.62867 7.26264 4.1998 7.26H6.1998C6.38546 7.25881 6.56778 7.21064 6.7298 7.12L9.92981 5.25C10.1505 5.11787 10.4021 5.04638 10.6593 5.04275C10.9164 5.03912 11.17 5.10349 11.3943 5.22933C11.6186 5.35518 11.8056 5.53805 11.9366 5.75942C12.0675 5.98079 12.1376 6.23282 12.1398 6.49V17.49C12.1479 17.6854 12.1164 17.8804 12.0471 18.0633C11.9779 18.2462 11.8724 18.4132 11.7369 18.5543C11.6015 18.6954 11.4389 18.8076 11.2589 18.8842C11.079 18.9608 10.8854 19.0002 10.6898 19ZM4.1998 8.76C4.0265 8.76262 3.86118 8.83332 3.73957 8.95681C3.61795 9.0803 3.54978 9.24667 3.5498 9.42V14.47C3.54978 14.6433 3.61795 14.8097 3.73957 14.9332C3.86118 15.0567 4.0265 15.1274 4.1998 15.13H6.1998C6.66998 15.1296 7.13081 15.2613 7.52981 15.51L10.7098 17.51L10.6398 6.58L7.4998 8.42C7.10947 8.6415 6.66861 8.7586 6.2198 8.76H4.1998ZM14.5699 17.06C14.4162 17.0586 14.2664 17.0111 14.1398 16.9238C14.0133 16.8364 13.9158 16.7132 13.8599 16.57C13.8199 16.4758 13.7996 16.3744 13.8003 16.2721C13.801 16.1697 13.8226 16.0686 13.8638 15.9749C13.905 15.8813 13.965 15.797 14.04 15.7274C14.115 15.6577 14.2034 15.6042 14.2999 15.57C14.9671 15.2491 15.526 14.7403 15.9079 14.106C16.2899 13.4718 16.4783 12.7398 16.4499 12C16.4902 11.2465 16.3029 10.4984 15.9124 9.85276C15.5218 9.20716 14.946 8.694 14.2599 8.38001C14.112 8.28928 14.0001 8.15006 13.9433 7.98607C13.8865 7.82208 13.8884 7.64348 13.9485 7.48071C14.0087 7.31793 14.1234 7.18105 14.2732 7.0934C14.423 7.00574 14.5985 6.97274 14.7699 7.00001C15.7553 7.40262 16.5935 8.09796 17.1711 8.99212C17.7487 9.88628 18.038 10.9362 17.9999 12C18.0399 13.0499 17.7639 14.0877 17.2077 14.9791C16.6515 15.8705 15.8406 16.5745 14.8799 17C14.7812 17.0392 14.6761 17.0595 14.5699 17.06Z" fill="black"/>
</svg>
