<svg width="24" height="24" viewBox="0 0 24 24" fill="none" xmlns="http://www.w3.org/2000/svg">
<path fill-rule="evenodd" clip-rule="evenodd" d="M16.2 4C16.2 3.55817 16.5582 3.2 17 3.2C17.4418 3.2 17.8 3.55817 17.8 4C17.8 4.44183 17.4418 4.8 17 4.8C16.5582 4.8 16.2 4.44183 16.2 4ZM15 4C15 2.89543 15.8954 2 17 2C18.1046 2 19 2.89543 19 4C19 4.89797 18.4082 5.65771 17.5934 5.91051C17.5977 5.93971 17.6 5.96959 17.6 6V9C17.6 9.88366 16.8837 10.6 16 10.6H14C13.6686 10.6 13.4 10.3314 13.4 10C13.4 9.66863 13.6686 9.4 14 9.4H16C16.2209 9.4 16.4 9.22091 16.4 9L16.4 6C16.4 5.96959 16.4023 5.93971 16.4066 5.91051C15.5918 5.65771 15 4.89797 15 4ZM13.4 16C13.4 15.6686 13.6686 15.4 14 15.4H16C16.8837 15.4 17.6 16.1163 17.6 17V18C17.6 18.0304 17.5977 18.0603 17.5934 18.0895C18.4082 18.3423 19 19.102 19 20C19 21.1046 18.1046 22 17 22C15.8954 22 15 21.1046 15 20C15 19.102 15.5918 18.3423 16.4066 18.0895C16.4023 18.0603 16.4 18.0304 16.4 18V17C16.4 16.7791 16.2209 16.6 16 16.6H14C13.6686 16.6 13.4 16.3314 13.4 16ZM19.2 13C19.2 12.5582 19.5582 12.2 20 12.2C20.4418 12.2 20.8 12.5582 20.8 13C20.8 13.4418 20.4418 13.8 20 13.8C19.5582 13.8 19.2 13.4418 19.2 13ZM14 13.6H18.0916C18.3464 14.4114 19.1045 15 20 15C21.1046 15 22 14.1046 22 13C22 11.8954 21.1046 11 20 11C19.1045 11 18.3464 11.5886 18.0916 12.4H14C13.6686 12.4 13.4 12.6686 13.4 13C13.4 13.3314 13.6686 13.6 14 13.6ZM17 19.2C16.5582 19.2 16.2 19.5582 16.2 20C16.2 20.4418 16.5582 20.8 17 20.8C17.4418 20.8 17.8 20.4418 17.8 20C17.8 19.5582 17.4418 19.2 17 19.2ZM9.91981 18.7799C10.1518 18.9216 10.4179 18.9977 10.6898 18.9999C10.8854 19 11.079 18.9606 11.2589 18.8841C11.4389 18.8075 11.6015 18.6953 11.7369 18.5542C11.8724 18.4131 11.9779 18.2461 12.0471 18.0632C12.1164 17.8803 12.1479 17.6853 12.1398 17.4899V6.48988C12.1376 6.2327 12.0675 5.98067 11.9366 5.7593C11.8056 5.53792 11.6186 5.35506 11.3943 5.22921C11.17 5.10336 10.9164 5.039 10.6593 5.04263C10.4021 5.04625 10.1505 5.11775 9.92981 5.24988L6.7298 7.11988C6.56778 7.21052 6.38546 7.25868 6.1998 7.25988H4.1998C3.62867 7.26252 3.08183 7.49126 2.67891 7.89605C2.276 8.30084 2.0498 8.84874 2.0498 9.41988V14.4699C2.0498 15.041 2.276 15.5889 2.67891 15.9937C3.08183 16.3985 3.62867 16.6272 4.1998 16.6299H6.1998C6.39042 16.6274 6.57778 16.6794 6.7398 16.7799L9.91981 18.7799ZM3.73957 8.95669C3.86118 8.8332 4.0265 8.7625 4.1998 8.75988H6.2198C6.66861 8.75848 7.10947 8.64138 7.4998 8.41988L10.6398 6.57988L10.7098 17.5099L7.52981 15.5099C7.13081 15.2611 6.66998 15.1295 6.1998 15.1299H4.1998C4.0265 15.1272 3.86118 15.0566 3.73957 14.9331C3.61795 14.8096 3.54978 14.6432 3.5498 14.4699V9.41988C3.54978 9.24655 3.61795 9.08018 3.73957 8.95669Z" fill="#202C44"/>
</svg>
