<svg width="24" height="24" viewBox="0 0 24 24" fill="none" xmlns="http://www.w3.org/2000/svg">
<path fill-rule="evenodd" clip-rule="evenodd" d="M1.67578 5.97327C2.08999 5.97327 2.42578 6.30905 2.42578 6.72327C2.42578 8.20969 3.63076 9.41467 5.11719 9.41467C6.60361 9.41467 7.80859 8.20969 7.80859 6.72327C7.80859 6.30905 8.14438 5.97327 8.55859 5.97327C8.97281 5.97327 9.30859 6.30905 9.30859 6.72327C9.30859 8.20969 10.5136 9.41467 12 9.41467C13.4864 9.41467 14.6914 8.20969 14.6914 6.72327C14.6914 6.30905 15.0272 5.97327 15.4414 5.97327C15.8556 5.97327 16.1914 6.30905 16.1914 6.72327C16.1914 8.20969 17.3964 9.41467 18.8828 9.41467C20.3692 9.41467 21.5742 8.20969 21.5742 6.72327C21.5742 6.30905 21.91 5.97327 22.3242 5.97327C22.7384 5.97327 23.0742 6.30905 23.0742 6.72327C23.0742 9.03812 21.1977 10.9147 18.8828 10.9147C17.4577 10.9147 16.1987 10.2034 15.4414 9.11653C14.6841 10.2034 13.4251 10.9147 12 10.9147C10.5749 10.9147 9.31587 10.2034 8.55859 9.11653C7.80132 10.2034 6.54231 10.9147 5.11719 10.9147C2.80234 10.9147 0.925781 9.03812 0.925781 6.72327C0.925781 6.30905 1.26157 5.97327 1.67578 5.97327Z" fill="#292929"/>
<path fill-rule="evenodd" clip-rule="evenodd" d="M21.077 3.5H2.92285C2.64671 3.5 2.42285 3.72386 2.42285 4V20C2.42285 20.2761 2.64671 20.5 2.92285 20.5H21.077C21.3532 20.5 21.577 20.2761 21.577 20V4C21.577 3.72386 21.3532 3.5 21.077 3.5ZM2.92285 2C1.81828 2 0.922852 2.89543 0.922852 4V20C0.922852 21.1046 1.81828 22 2.92285 22H21.077C22.1816 22 23.077 21.1046 23.077 20V4C23.077 2.89543 22.1816 2 21.077 2H2.92285Z" fill="#292929"/>
<path fill-rule="evenodd" clip-rule="evenodd" d="M7.80713 15C7.80713 13.4812 9.03835 12.25 10.5571 12.25H13.4426C14.9614 12.25 16.1926 13.4812 16.1926 15V21H14.6926V15C14.6926 14.3096 14.133 13.75 13.4426 13.75H10.5571C9.86677 13.75 9.30713 14.3096 9.30713 15V21H7.80713V15Z" fill="#292929"/>
<path fill-rule="evenodd" clip-rule="evenodd" d="M22.1243 6.63611H1.87598V5.13611H22.1243V6.63611Z" fill="#292929"/>
</svg>
