<svg width="24" height="24" viewBox="0 0 24 24" fill="none" xmlns="http://www.w3.org/2000/svg">
<path fill-rule="evenodd" clip-rule="evenodd" d="M22.0002 9.36993L21.2402 3.99993C21.1699 3.6981 21.0165 3.42198 20.7973 3.20283C20.5782 2.98368 20.3021 2.83026 20.0002 2.75993L14.5502 1.99993C14.2939 1.98049 14.0365 1.98049 13.7802 1.99993C12.8876 1.96517 12.0176 2.28515 11.3602 2.88993L2.88022 11.3199C2.23823 12.0338 1.90429 12.9724 1.95111 13.9314C1.99794 14.8904 2.42173 15.792 3.13022 16.4399L7.53022 20.8499C8.27687 21.5852 9.28227 21.9982 10.3302 21.9999C10.7591 22.0052 11.1848 21.9257 11.5829 21.7661C11.981 21.6065 12.3437 21.3699 12.6502 21.0699L21.1802 12.5499C22.0002 11.7799 22.1602 10.9199 22.0002 9.36993ZM20.1102 11.5299L11.5802 20.0499C11.4135 20.2115 11.2161 20.3382 10.9998 20.4223C10.7834 20.5065 10.5523 20.5465 10.3202 20.5399C9.66404 20.529 9.03872 20.2595 8.58021 19.7899L4.20021 15.3799C3.77039 15.015 3.50197 14.4952 3.45328 13.9334C3.4046 13.3716 3.57959 12.8134 3.94022 12.3799L12.4202 3.91993C12.801 3.60357 13.2856 3.43966 13.7802 3.45993C13.9698 3.44226 14.1606 3.44226 14.3502 3.45993L19.7202 4.17993L19.7802 4.23993L20.5202 9.49993C20.6502 10.8899 20.4502 11.1999 20.1202 11.5299H20.1102ZM15.1598 6.9999C14.9714 7.18298 14.8419 7.41809 14.788 7.67515C14.734 7.93221 14.7579 8.19954 14.8567 8.44292C14.9555 8.68631 15.1246 8.89469 15.3425 9.0414C15.5604 9.18811 15.8171 9.26648 16.0798 9.26648C16.3424 9.26648 16.5991 9.18811 16.817 9.0414C17.0349 8.89469 17.2041 8.68631 17.3029 8.44292C17.4016 8.19954 17.4256 7.93221 17.3716 7.67515C17.3176 7.41809 17.1881 7.18298 16.9998 6.9999C16.7522 6.76276 16.4226 6.63037 16.0798 6.63037C15.7369 6.63037 15.4073 6.76276 15.1598 6.9999ZM9.21988 10.6206C9.41863 10.6206 9.60925 10.6995 9.74988 10.8399L13.0599 14.1499C13.2003 14.2906 13.2792 14.4812 13.2792 14.6799C13.2792 14.8787 13.2003 15.0693 13.0599 15.2099C12.9906 15.2801 12.9081 15.3356 12.8171 15.3734C12.7261 15.4112 12.6284 15.4304 12.5299 15.4299C12.4311 15.4322 12.3329 15.4138 12.2417 15.3759C12.1504 15.338 12.068 15.2815 11.9999 15.2099L8.68988 11.8999C8.61912 11.831 8.56289 11.7486 8.52449 11.6576C8.48609 11.5665 8.46631 11.4687 8.46631 11.3699C8.46631 11.2712 8.48609 11.1734 8.52449 11.0823C8.56289 10.9913 8.61912 10.9089 8.68988 10.8399C8.8305 10.6995 9.02113 10.6206 9.21988 10.6206ZM11.5298 9.05992C11.3892 8.91947 11.1986 8.84058 10.9998 8.84058C10.8011 8.84058 10.6105 8.91947 10.4698 9.05992C10.3294 9.20054 10.2505 9.39117 10.2505 9.58992C10.2505 9.78867 10.3294 9.97929 10.4698 10.1199L13.7798 13.4299C13.9205 13.5704 14.1111 13.6493 14.3098 13.6493C14.5086 13.6493 14.6992 13.5704 14.8398 13.4299C14.9803 13.2893 15.0592 13.0987 15.0592 12.8999C15.0592 12.7012 14.9803 12.5105 14.8398 12.3699L11.5298 9.05992ZM7.75642 12.4062C7.84842 12.4472 7.93122 12.5063 7.99988 12.58L9.93988 14.52C10.0786 14.6636 10.1561 14.8554 10.1561 15.055C10.1561 15.2546 10.0786 15.4465 9.93988 15.59C9.79681 15.7258 9.6071 15.8014 9.40988 15.8014C9.21266 15.8014 9.02295 15.7258 8.87988 15.59L6.93988 13.64C6.86619 13.5714 6.80709 13.4886 6.7661 13.3966C6.72511 13.3046 6.70307 13.2052 6.70129 13.1045C6.69951 13.0038 6.71804 12.9038 6.75576 12.8104C6.79348 12.717 6.84962 12.6322 6.92084 12.561C6.99206 12.4898 7.07689 12.4336 7.17028 12.3959C7.26367 12.3582 7.3637 12.3396 7.4644 12.3414C7.56511 12.3432 7.66442 12.3652 7.75642 12.4062Z" fill="black"/>
</svg>
