<svg width="24" height="24" viewBox="0 0 24 24" fill="none" xmlns="http://www.w3.org/2000/svg">
<path d="M22 5.55998C21.9651 5.41505 21.8873 5.28404 21.7766 5.18412C21.666 5.08419 21.5278 5.02001 21.38 4.99998L19.38 4.59998L18.98 2.59998C18.9523 2.46827 18.8896 2.34645 18.7986 2.2473C18.7076 2.14815 18.5916 2.07533 18.4627 2.03646C18.3338 1.9976 18.1969 1.99413 18.0662 2.02642C17.9355 2.05871 17.816 2.12557 17.72 2.21998L15.52 4.41998C13.5481 3.40038 11.277 3.11814 9.11543 3.62406C6.9539 4.12999 5.04394 5.39085 3.72933 7.1797C2.41472 8.96854 1.78181 11.1679 1.94451 13.3819C2.10721 15.5958 3.05484 17.679 4.61683 19.2565C6.17882 20.834 8.25258 21.8021 10.4648 21.9866C12.6771 22.1711 14.8826 21.5598 16.6843 20.2629C18.486 18.966 19.7656 17.0686 20.2928 14.9121C20.82 12.7557 20.5602 10.4819 19.56 8.49998L21.76 6.29998C21.8657 6.21181 21.9444 6.09555 21.9868 5.96462C22.0293 5.83368 22.0339 5.69341 22 5.55998ZM11.32 20.44C10.1613 20.4428 9.01662 20.1861 7.97006 19.6886C6.92351 19.1912 6.00163 18.4657 5.27212 17.5654C4.54261 16.6651 4.02398 15.6129 3.75431 14.486C3.48463 13.359 3.47076 12.186 3.71371 11.053C3.95666 9.92001 4.45026 8.85581 5.15828 7.93852C5.8663 7.02123 6.77076 6.27414 7.80526 5.75211C8.83976 5.23008 9.97804 4.94635 11.1365 4.92175C12.295 4.89716 13.4443 5.13232 14.5 5.60998C14.4801 5.71235 14.4801 5.81761 14.5 5.91998L14.9 7.99998C14.1577 7.44428 13.2928 7.07499 12.378 6.92319C11.4632 6.7714 10.5254 6.84154 9.64334 7.1277C8.76132 7.41387 7.96093 7.9077 7.30952 8.56764C6.6581 9.22757 6.17472 10.0343 5.90004 10.92C5.62863 11.749 5.54571 12.6281 5.65732 13.4932C5.76893 14.3583 6.07226 15.1875 6.54519 15.9205C7.01811 16.6534 7.64869 17.2715 8.39093 17.7297C9.13316 18.1879 9.96833 18.4747 10.8355 18.569C11.7026 18.6633 12.5799 18.5628 13.4033 18.2749C14.2267 17.987 14.9754 17.519 15.5949 16.9048C16.2143 16.2907 16.6889 15.546 16.9839 14.7252C17.2788 13.9043 17.3869 13.0279 17.3 12.16C17.2913 12.0613 17.263 11.9654 17.217 11.8777C17.1709 11.79 17.108 11.7123 17.0317 11.6491C16.9555 11.5859 16.8675 11.5384 16.7728 11.5094C16.6781 11.4803 16.5786 11.4703 16.48 11.48C16.2837 11.5003 16.103 11.5961 15.976 11.7473C15.8491 11.8985 15.786 12.0931 15.8 12.29C15.8548 12.867 15.7901 13.4491 15.61 14C15.2488 15.0882 14.4734 15.9903 13.4519 16.5109C12.4303 17.0315 11.2448 17.1288 10.152 16.7816C9.05923 16.4345 8.14719 15.6708 7.6134 14.6561C7.07961 13.6413 6.96703 12.4571 7.30004 11.36C7.65768 10.2605 8.43553 9.34702 9.46397 8.81875C10.4924 8.29048 11.688 8.19027 12.79 8.53998C13.1645 8.66644 13.5208 8.84125 13.85 9.05998L10.78 12.14C10.7093 12.2089 10.653 12.2913 10.6146 12.3824C10.5763 12.4734 10.5565 12.5712 10.5565 12.67C10.5565 12.7688 10.5763 12.8666 10.6146 12.9576C10.653 13.0486 10.7093 13.131 10.78 13.2C10.8482 13.2715 10.9306 13.328 11.0218 13.3659C11.1131 13.4038 11.2113 13.4222 11.31 13.42C11.4086 13.4204 11.5062 13.4012 11.5972 13.3634C11.6882 13.3257 11.7708 13.2701 11.84 13.2L16 9.08998L18.13 9.50998H18.28H18.44C18.9762 10.6907 19.207 11.9872 19.1115 13.2803C19.0159 14.5735 18.597 15.822 17.8932 16.9111C17.1894 18.0002 16.2232 18.895 15.0834 19.5133C13.9436 20.1317 12.6668 20.4538 11.37 20.45L11.32 20.44ZM18 7.99998L16.38 7.67998L16 5.99998L17.73 4.26998L18 5.41998C18.0289 5.5657 18.1004 5.69956 18.2054 5.8046C18.3105 5.90964 18.4443 5.98112 18.59 6.00998L19.72 6.22998L18 7.99998Z" fill="black"/>
</svg>
