<svg width="24" height="24" viewBox="0 0 24 24" fill="none" xmlns="http://www.w3.org/2000/svg">
<path fill-rule="evenodd" clip-rule="evenodd" d="M13.6306 11.3711C13.1475 11.6918 12.58 11.862 12.0001 11.86C11.2247 11.8573 10.482 11.5475 9.93472 10.9983C9.3874 10.4491 9.08007 9.70534 9.08008 8.92998C9.08008 8.35006 9.25218 7.78318 9.57458 7.30113C9.89697 6.81908 10.3552 6.44354 10.8911 6.22207C11.4271 6.00061 12.0167 5.94317 12.5854 6.05704C13.154 6.1709 13.6761 6.45095 14.0854 6.86172C14.4948 7.27249 14.7731 7.7955 14.885 8.36452C14.9969 8.93355 14.9375 9.52298 14.7142 10.0582C14.4909 10.5934 14.1138 11.0503 13.6306 11.3711ZM12.7972 7.73611C12.5608 7.58018 12.2833 7.498 12.0001 7.49998C11.6226 7.50262 11.2614 7.65445 10.9954 7.92234C10.7294 8.19023 10.5801 8.55245 10.5801 8.92998C10.5801 9.21324 10.6642 9.4901 10.8218 9.72548C10.9794 9.96085 11.2033 10.1441 11.4652 10.2521C11.7271 10.36 12.0151 10.3877 12.2928 10.3317C12.5704 10.2757 12.8252 10.1385 13.0248 9.93756C13.2244 9.73657 13.3598 9.48083 13.4138 9.20278C13.4679 8.92473 13.4381 8.6369 13.3283 8.37578C13.2186 8.11466 13.0337 7.89203 12.7972 7.73611ZM7.68277 11.5721C7.25786 11.8531 6.75927 12.002 6.24986 12.0001C5.90935 11.9988 5.57247 11.9301 5.25864 11.798C4.94481 11.6658 4.66023 11.4729 4.42132 11.2303C4.18241 10.9877 3.99389 10.7001 3.86663 10.3843C3.73938 10.0685 3.6759 9.73056 3.67986 9.39007C3.68579 8.88069 3.84238 8.38446 4.12989 7.96394C4.41741 7.54341 4.82298 7.21742 5.29548 7.02704C5.76798 6.83665 6.28627 6.79041 6.78502 6.89414C7.28376 6.99786 7.74064 7.24691 8.09806 7.60989C8.45547 7.97288 8.69744 8.43354 8.79345 8.93383C8.88946 9.43412 8.83522 9.95163 8.63757 10.4211C8.43991 10.8906 8.10769 11.2911 7.68277 11.5721ZM6.85655 8.53032C6.67686 8.411 6.46556 8.34822 6.24986 8.35007V8.31007C5.96516 8.31271 5.69302 8.42765 5.49264 8.62991C5.29226 8.83216 5.17985 9.10536 5.17986 9.39007C5.17188 9.60562 5.22863 9.81863 5.34279 10.0016C5.45696 10.1847 5.6233 10.3293 5.82041 10.4169C6.01751 10.5045 6.23633 10.5311 6.44869 10.4933C6.66104 10.4554 6.85719 10.3548 7.01186 10.2045C7.16654 10.0541 7.27266 9.86093 7.31654 9.64974C7.36042 9.43855 7.34006 9.21906 7.25807 9.01955C7.17609 8.82004 7.03625 8.64964 6.85655 8.53032ZM17.77 12.0001C18.2794 12.002 18.778 11.8531 19.2029 11.5721C19.6278 11.2911 19.9601 10.8906 20.1577 10.4211C20.3554 9.95163 20.4096 9.43412 20.3136 8.93383C20.2176 8.43354 19.9756 7.97288 19.6182 7.60989C19.2608 7.24691 18.8039 6.99786 18.3052 6.89414C17.8064 6.79041 17.2881 6.83665 16.8156 7.02704C16.3431 7.21742 15.9376 7.54341 15.65 7.96394C15.3625 8.38446 15.2059 8.88069 15.2 9.39007C15.1947 9.73092 15.2573 10.0694 15.384 10.3859C15.5108 10.7023 15.6993 10.9903 15.9385 11.2332C16.1776 11.4761 16.4628 11.669 16.7772 11.8007C17.0916 11.9323 17.4291 12.0001 17.77 12.0001ZM17.77 8.35007C17.9857 8.34822 18.197 8.411 18.3767 8.53032C18.5564 8.64964 18.6962 8.82004 18.7782 9.01955C18.8602 9.21906 18.8806 9.43855 18.8367 9.64974C18.7928 9.86093 18.6867 10.0541 18.532 10.2045C18.3773 10.3548 18.1812 10.4554 17.9688 10.4933C17.7565 10.5311 17.5377 10.5045 17.3406 10.4169C17.1435 10.3293 16.9771 10.1847 16.8629 10.0016C16.7488 9.81863 16.692 9.60562 16.7 9.39007C16.7 9.10536 16.8124 8.83216 17.0128 8.62991C17.2132 8.42765 17.4853 8.31271 17.77 8.31007V8.35007ZM17.37 12.1499H18.17C19.186 12.1604 20.1571 12.57 20.8737 13.2903C21.5902 14.0106 21.9948 14.9839 22 15.9999C21.9975 16.4767 21.8091 16.9336 21.4747 17.2735C21.1404 17.6135 20.6867 17.8095 20.21 17.8199H16.63C16.4555 18.1222 16.2049 18.3735 15.9032 18.549C15.6014 18.7244 15.259 18.8178 14.91 18.8199H9.12C8.77097 18.8178 8.42857 18.7244 8.12683 18.549C7.82509 18.3735 7.57451 18.1222 7.4 17.8199H3.82C3.33731 17.8199 2.87438 17.6282 2.53307 17.2868C2.19175 16.9455 2 16.4826 2 15.9999C2.00265 14.9779 2.41049 13.9987 3.1341 13.2769C3.8577 12.5552 4.83799 12.1499 5.86 12.1499H6.65C7.55985 12.1514 8.43928 12.4777 9.13 13.0699C9.84328 12.5932 10.6821 12.3391 11.54 12.3399H12.48C13.3408 12.3407 14.1823 12.5946 14.9 13.0699C15.5863 12.4768 16.463 12.1503 17.37 12.1499ZM4.19475 14.3376C3.75245 14.778 3.50264 15.3757 3.5 15.9999C3.5 16.0848 3.53371 16.1662 3.59373 16.2262C3.65374 16.2862 3.73513 16.3199 3.82 16.3199H7.12C7.20509 15.5134 7.50943 14.7457 8 14.0999C7.60732 13.814 7.13569 13.6568 6.65 13.6499H5.86C5.23582 13.6499 4.63705 13.8972 4.19475 14.3376ZM9.12 17.2999H14.91C14.9778 17.2999 15.045 17.2864 15.1075 17.2601C15.17 17.2339 15.2267 17.1954 15.2742 17.147C15.3217 17.0986 15.3591 17.0412 15.3841 16.9781C15.4091 16.9151 15.4213 16.8477 15.42 16.7799C15.42 16.0002 15.1103 15.2524 14.5589 14.701C14.0075 14.1497 13.2597 13.8399 12.48 13.8399H11.54C10.7603 13.8399 10.0125 14.1497 9.46111 14.701C8.90975 15.2524 8.6 16.0002 8.6 16.7799C8.6 16.8482 8.61345 16.9158 8.63958 16.9789C8.66572 17.042 8.70402 17.0993 8.7523 17.1476C8.80059 17.1959 8.85792 17.2342 8.921 17.2603C8.98409 17.2865 9.05171 17.2999 9.12 17.2999ZM16.88 16.2999H20.21V16.3199C20.2949 16.3199 20.3763 16.2862 20.4363 16.2262C20.4963 16.1662 20.53 16.0848 20.53 15.9999C20.5274 15.3757 20.2775 14.778 19.8352 14.3376C19.3929 13.8972 18.7942 13.6499 18.17 13.6499H17.37C16.8769 13.6492 16.3966 13.8069 16 14.0999C16.4872 14.74 16.7914 15.5004 16.88 16.2999Z" fill="black"/>
</svg>
