<svg width="24" height="24" viewBox="0 0 24 24" fill="none" xmlns="http://www.w3.org/2000/svg">
<path d="M18.6001 10.7001H14.3001L12.5001 9.90007H12.4001C11.1001 9.40007 10.4001 9.10007 10.4001 8.40007C10.4001 7.30007 11.8001 7.20007 12.3001 7.20007C13.5001 7.20007 14.4001 7.50008 15.3001 8.30008C15.5001 8.40008 15.6001 8.50007 15.9001 8.50007C16.1001 8.50007 16.3001 8.40007 16.4001 8.20007L17.5001 6.90007C17.7001 6.60007 17.7001 6.20007 17.4001 5.90007C16.1001 4.60008 14.3001 3.90007 12.4001 3.90007C9.0001 3.80007 6.7001 5.80007 6.7001 8.50007C6.7001 9.30007 6.9001 10.1001 7.3001 10.8001H5.4001C5.0001 10.8001 4.6001 11.1001 4.6001 11.6001V12.7001C4.6001 13.1001 4.9001 13.5001 5.4001 13.5001H11.2001L12.4001 14.0001C13.8001 14.6001 14.3001 14.8001 14.3001 15.7001C14.3001 16.7001 13.2001 17.0001 12.1001 17.0001C10.8001 17.0001 9.5001 16.5001 8.5001 15.5001C8.4001 15.4001 8.2001 15.3001 7.9001 15.3001C7.7001 15.3001 7.5001 15.4001 7.4001 15.6001L6.2001 17.0001C5.9001 17.3001 6.0001 17.7001 6.2001 18.0001C7.7001 19.5001 9.8001 20.3001 12.0001 20.3001C15.5001 20.3001 17.9001 18.3001 17.9001 15.4001C17.9001 14.7001 17.8001 14.0001 17.5001 13.4001H18.6001C19.0001 13.4001 19.4001 13.1001 19.4001 12.6001V11.5001C19.3001 11.0001 19.0001 10.7001 18.6001 10.7001Z" fill="black"/>
</svg>
