<svg width="24" height="24" viewBox="0 0 24 24" fill="none" xmlns="http://www.w3.org/2000/svg">
<path d="M18.5998 3.99995C18.4998 3.79995 18.1998 3.69995 17.9998 3.69995H8.8998C8.4998 3.69995 8.1998 3.99995 8.1998 4.29995L7.7998 5.99995C7.7998 6.19995 7.7998 6.39995 7.9998 6.59995C8.0998 6.79995 8.3998 6.89995 8.5998 6.89995H11.2998L9.2998 17.1H6.3998C5.9998 17.1 5.6998 17.3 5.6998 17.7L5.2998 19.4C5.2998 19.6 5.2998 19.9 5.4998 20C5.6998 20.1 5.8998 20.2999 6.0998 20.2999H15.1998C15.5998 20.2999 15.8998 20 15.8998 19.7L16.1998 18C16.1998 17.8 16.1998 17.6 15.9998 17.4C15.8998 17.2 15.5998 17.1 15.3998 17.1H12.6998L14.6998 6.89995H17.6998C18.0998 6.89995 18.3998 6.59995 18.3998 6.29995L18.6998 4.59995C18.7998 4.39995 18.6998 4.09995 18.5998 3.99995Z" fill="black"/>
</svg>
