<svg width="24" height="24" viewBox="0 0 24 24" fill="none" xmlns="http://www.w3.org/2000/svg">
<path d="M15.8998 11.3001C16.7998 10.5001 17.3998 9.4001 17.3998 8.1001C17.3998 6.1001 16.2998 3.6001 11.2998 3.6001H6.5998C6.1998 3.7001 5.7998 4.0001 5.7998 4.4001V19.6001C5.7998 20.0001 6.0998 20.4001 6.5998 20.4001H11.6998C15.7998 20.4001 18.1998 18.5001 18.1998 15.2001C18.1998 13.4001 17.3998 12.1001 15.8998 11.3001ZM9.9998 13.4001H11.3998C14.0998 13.4001 14.0998 14.3001 14.0998 14.9001C14.0998 15.5001 14.0998 16.6001 11.3998 16.6001H9.9998V13.4001ZM10.9998 9.9001H9.9998V7.3001H11.0998C13.2998 7.3001 13.2998 8.0001 13.2998 8.5001C13.2998 9.0001 13.2998 9.9001 10.9998 9.9001Z" fill="black"/>
</svg>
