<svg width="24" height="24" viewBox="0 0 24 24" fill="none" xmlns="http://www.w3.org/2000/svg">
<path fill-rule="evenodd" clip-rule="evenodd" d="M21.1676 10.5261H21.0403L21.0697 10.5071C20.5894 10.5071 20.1288 10.6919 19.7891 11.0207C19.4495 11.3496 19.2587 11.7956 19.2587 12.2607C19.2587 12.7257 19.4495 13.1718 19.7891 13.5006C20.1288 13.8295 20.5894 14.0142 21.0697 14.0142H21.2068C21.3082 14.0078 21.4099 14.0212 21.5058 14.0538C21.6017 14.0864 21.6898 14.1374 21.7648 14.2038C21.8403 14.2692 21.9004 14.3497 21.941 14.4396C21.9815 14.5296 22.0016 14.627 21.9997 14.7251V16.2891C22.001 16.6447 21.9298 16.997 21.7901 17.3258C21.6505 17.6546 21.4452 17.9536 21.186 18.2054C20.9268 18.4573 20.6188 18.6571 20.2797 18.7935C19.9405 18.9298 19.5769 19 19.2097 19H4.81934C4.0785 18.9975 3.36888 18.7108 2.84594 18.2027C2.32299 17.6945 2.02936 17.0064 2.02937 16.2891V14.763C2.02994 14.6652 2.05106 14.5686 2.09145 14.479C2.13184 14.3893 2.19066 14.3086 2.26431 14.2417C2.41758 14.1103 2.61787 14.0423 2.82231 14.0521H2.93978C3.4201 14.0521 3.88074 13.8674 4.22038 13.5385C4.56001 13.2097 4.75082 12.7636 4.75082 12.2986C4.75082 11.8335 4.56001 11.3875 4.22038 11.0586C3.88074 10.7298 3.4201 10.545 2.93978 10.545H2.79294C2.69159 10.5509 2.59003 10.5372 2.49422 10.5047C2.39841 10.4721 2.31026 10.4214 2.23495 10.3555C2.16129 10.2885 2.10247 10.2078 2.06208 10.1182C2.02169 10.0286 2.00057 9.93191 2 9.83412V7.7109C2 6.99356 2.29363 6.30547 2.81657 5.79735C3.33951 5.28923 4.04913 5.00251 4.78997 5H19.1804C19.9186 5.00501 20.6247 5.29314 21.144 5.80126C21.6633 6.30938 21.9534 6.99607 21.9508 7.7109V9.81517C21.9526 9.91331 21.9326 10.0107 21.892 10.1007C21.8515 10.1906 21.7914 10.2711 21.7158 10.3365C21.5661 10.4673 21.369 10.5354 21.1676 10.5261ZM20.5019 16.2607V15.4265V15.4171C19.7391 15.2882 19.0477 14.9029 18.5495 14.329C18.0512 13.7551 17.778 13.0294 17.778 12.2796C17.778 11.5299 18.0512 10.8042 18.5495 10.2303C19.0477 9.65634 19.7391 9.27104 20.5019 9.14218V7.7109C20.5032 7.54206 20.47 7.37465 20.4042 7.2183C20.3383 7.06195 20.2412 6.91977 20.1183 6.79994C19.9955 6.68011 19.8494 6.585 19.6884 6.52011C19.5274 6.45521 19.3547 6.4218 19.1804 6.4218H12.7194V7.58768C12.7194 7.77622 12.642 7.95704 12.5043 8.09036C12.3666 8.22368 12.1799 8.29858 11.9852 8.29858C11.7904 8.29858 11.6037 8.22368 11.466 8.09036C11.3283 7.95704 11.251 7.77622 11.251 7.58768V6.4218H4.78997C4.43857 6.4243 4.10245 6.56122 3.85488 6.8027C3.60732 7.04419 3.4684 7.37065 3.46841 7.7109V9.15166C4.23121 9.28052 4.92261 9.66582 5.42087 10.2397C5.91913 10.8136 6.19231 11.5394 6.19231 12.2891C6.19231 13.0388 5.91913 13.7646 5.42087 14.3385C4.92261 14.9124 4.23121 15.2977 3.46841 15.4265V16.2512C3.47097 16.5898 3.61103 16.9138 3.85832 17.1533C4.1056 17.3927 4.44026 17.5283 4.78997 17.5308H11.2999V16.3744C11.2999 16.1859 11.3773 16.005 11.515 15.8717C11.6526 15.7384 11.8394 15.6635 12.0341 15.6635C12.2288 15.6635 12.4156 15.7384 12.5533 15.8717C12.691 16.005 12.7683 16.1859 12.7683 16.3744V17.5498H19.1804C19.3547 17.5498 19.5274 17.5164 19.6884 17.4515C19.8494 17.3866 19.9955 17.2915 20.1183 17.1716C20.2412 17.0518 20.3383 16.9096 20.4042 16.7533C20.47 16.5969 20.5032 16.4295 20.5019 16.2607ZM11.4688 10.0167C11.606 9.88389 11.7912 9.80821 11.9852 9.80575C12.1799 9.80575 12.3667 9.88065 12.5043 10.014C12.642 10.1473 12.7194 10.3281 12.7194 10.5167V13.4456C12.7194 13.6341 12.642 13.8149 12.5043 13.9482C12.3667 14.0816 12.1799 14.1565 11.9852 14.1565C11.7905 14.1565 11.6037 14.0816 11.466 13.9482C11.3283 13.8149 11.251 13.6341 11.251 13.4456V10.5167C11.2535 10.3289 11.3317 10.1495 11.4688 10.0167Z" fill="black"/>
</svg>
