<svg width="24" height="24" viewBox="0 0 24 24" fill="none" xmlns="http://www.w3.org/2000/svg">
<path d="M3.58501 13.6715C3.98046 15.5978 5.03082 17.3277 6.55753 18.5671C6.59083 18.5942 6.62431 18.6209 6.65796 18.6474C6.98816 18.9073 7.07897 19.3826 6.83212 19.7227C6.6 20.0424 6.15442 20.1231 5.84307 19.8799C5.79836 19.8449 5.75392 19.8096 5.70975 19.7738C3.91062 18.3181 2.67214 16.2833 2.20544 14.0165C1.73875 11.7497 2.07275 9.39126 3.15049 7.34318C4.22824 5.29511 5.983 3.68426 8.11559 2.78527C10.2482 1.88629 12.6266 1.75483 14.8453 2.41331C17.0639 3.0718 18.9855 4.47945 20.2824 6.39627L20.5424 5.72627C20.614 5.54062 20.7565 5.39102 20.9384 5.31038C21.1203 5.22974 21.3268 5.22466 21.5124 5.29627C21.6981 5.36788 21.8477 5.51031 21.9283 5.69222C22.009 5.87413 22.014 6.08062 21.9424 6.26627L20.9424 8.73627C20.8852 8.87496 20.7881 8.99361 20.6636 9.07725C20.539 9.16088 20.3925 9.20578 20.2424 9.20627C20.1534 9.22517 20.0614 9.22517 19.9724 9.20627L17.5024 8.20627C17.3168 8.13334 17.1677 7.98964 17.088 7.80679C17.0083 7.62395 17.0045 7.41692 17.0774 7.23127C17.1504 7.04562 17.2941 6.89655 17.4769 6.81684C17.6597 6.73714 17.8668 6.73334 18.0524 6.80627L18.9524 7.16627C17.8447 5.54151 16.2084 4.35053 14.3218 3.7958C12.4352 3.24108 10.4147 3.35685 8.60376 4.12343C6.79286 4.89 5.30333 6.26008 4.38839 8.00074C3.47345 9.7414 3.18957 11.7452 3.58501 13.6715Z" fill="#505F79"/>
<path d="M10.3473 22V20.7151L12.8232 18.1229C13.1369 17.7803 13.361 17.4823 13.4954 17.2291C13.6373 16.9683 13.7083 16.7076 13.7083 16.4469C13.7083 15.7765 13.2937 15.4413 12.4647 15.4413C12.1435 15.4413 11.8224 15.5047 11.5012 15.6313C11.1801 15.7505 10.8664 15.9367 10.5602 16.1899L10 14.9162C10.3286 14.6331 10.7319 14.4097 11.2099 14.2458C11.6954 14.0819 12.1921 14 12.7 14C13.5813 14 14.2535 14.1974 14.7165 14.5922C15.1871 14.9795 15.4224 15.5345 15.4224 16.257C15.4224 16.7337 15.3103 17.1918 15.0863 17.6313C14.8697 18.0633 14.5112 18.5326 14.0107 19.0391L12.4871 20.581H15.6722V22H10.3473Z" fill="#505F79"/>
<path d="M19.5113 22V20.5922H16.184V19.352L19.8026 14.1229H21.2142V19.2291L22 19.2179V20.581L21.2142 20.5922V22H19.5113ZM19.5113 19.2291V16.6592L17.7636 19.2291H19.5113Z" fill="#505F79"/>
<path d="M12 6V12H9" stroke="#505F79" stroke-width="1.5" stroke-linecap="round" stroke-linejoin="round"/>
</svg>
