<svg width="24" height="24" viewBox="0 0 24 24" fill="none" xmlns="http://www.w3.org/2000/svg">
<path d="M10.686 16.2693C10.4971 16.2684 10.3152 16.1971 10.176 16.0693L7.17601 13.2693C7.05913 13.1304 6.99664 12.9537 7.00014 12.7721C7.00364 12.5906 7.07289 12.4165 7.19505 12.2821C7.3172 12.1477 7.48395 12.0623 7.66435 12.0415C7.84475 12.0208 8.02655 12.0662 8.17601 12.1693L10.676 14.4893L16.276 9.21934C16.4166 9.07889 16.6073 9 16.806 9C17.0048 9 17.1954 9.07889 17.336 9.21934C17.4765 9.35997 17.5553 9.55059 17.5553 9.74934C17.5553 9.94809 17.4765 10.1387 17.336 10.2793L11.196 16.0693C11.0568 16.1971 10.875 16.2684 10.686 16.2693V16.2693Z" fill="black"/>
</svg>
