<svg width="24" height="24" viewBox="0 0 24 24" fill="none" xmlns="http://www.w3.org/2000/svg">
<path fill-rule="evenodd" clip-rule="evenodd" d="M2.77954 22H13.4795H13.5995C15.9535 21.59 18.087 20.3619 19.6238 18.5324C21.1606 16.7028 22.002 14.3894 21.9995 12C21.9995 9.34784 20.946 6.8043 19.0706 4.92893C17.1952 3.05357 14.6517 2 11.9995 2C9.34737 2 6.80383 3.05357 4.92847 4.92893C3.05311 6.8043 1.99954 9.34784 1.99954 12V21.22C1.99678 21.3232 2.01508 21.4258 2.0533 21.5217C2.09153 21.6176 2.14888 21.7047 2.22187 21.7777C2.29485 21.8507 2.38194 21.908 2.47782 21.9462C2.5737 21.9845 2.67636 22.0028 2.77954 22ZM13.3695 20.5H3.47954L3.49954 12C3.49954 9.74566 4.39507 7.58365 5.98913 5.98959C7.58319 4.39553 9.7452 3.5 11.9995 3.5C14.2539 3.5 16.4159 4.39553 18.0099 5.98959C19.604 7.58365 20.4995 9.74566 20.4995 12C20.4999 14.0289 19.7853 15.9931 18.4814 17.5475C17.1775 19.102 15.3676 20.1473 13.3695 20.5ZM8.99988 14C9.55216 14 9.99988 13.5523 9.99988 13C9.99988 12.4477 9.55216 12 8.99988 12C8.44759 12 7.99988 12.4477 7.99988 13C7.99988 13.5523 8.44759 14 8.99988 14ZM12.9999 13C12.9999 13.5523 12.5522 14 11.9999 14C11.4476 14 10.9999 13.5523 10.9999 13C10.9999 12.4477 11.4476 12 11.9999 12C12.5522 12 12.9999 12.4477 12.9999 13ZM14.9999 14C15.5522 14 15.9999 13.5523 15.9999 13C15.9999 12.4477 15.5522 12 14.9999 12C14.4476 12 13.9999 12.4477 13.9999 13C13.9999 13.5523 14.4476 14 14.9999 14Z" fill="#292929"/>
</svg>