<svg width="24" height="24" viewBox="0 0 24 24" fill="none" xmlns="http://www.w3.org/2000/svg">
<path d="M15.7288 9.59127H6.28875L7.37875 8.14127C7.47648 7.98145 7.51086 7.79085 7.47513 7.60695C7.4394 7.42306 7.33615 7.2592 7.18568 7.1476C7.03522 7.03601 6.84844 6.98476 6.66209 7.00395C6.47574 7.02313 6.30332 7.11136 6.17875 7.25127L4.21875 9.85127C4.07677 10.0401 4 10.27 4 10.5063C4 10.7425 4.07677 10.9724 4.21875 11.1613L6.21875 13.7613C6.3367 13.9065 6.50466 14.0024 6.68967 14.0301C6.87468 14.0579 7.06339 14.0155 7.21875 13.9113C7.37788 13.7919 7.48308 13.6143 7.51121 13.4173C7.53934 13.2204 7.4881 13.0204 7.36875 12.8613L6.04875 11.0913H15.7288C16.3939 11.0669 17.0416 11.3066 17.5306 11.7581C18.0196 12.2097 18.3101 12.8363 18.3388 13.5013V13.6413C18.3127 14.308 18.0233 14.9372 17.534 15.3908C17.0448 15.8445 16.3955 16.0856 15.7288 16.0613H12.1688C11.9698 16.0613 11.7791 16.1403 11.6384 16.2809C11.4978 16.4216 11.4188 16.6124 11.4188 16.8113C11.4188 17.0102 11.4978 17.2009 11.6384 17.3416C11.7791 17.4823 11.9698 17.5613 12.1688 17.5613H15.7288C16.2566 17.5759 16.782 17.4859 17.2749 17.2964C17.7677 17.1069 18.2182 16.8218 18.6003 16.4573C18.9823 16.0929 19.2885 15.6565 19.5011 15.1731C19.7136 14.6898 19.8284 14.1692 19.8388 13.6413V13.5013C19.8271 12.9742 19.7114 12.4547 19.4982 11.9725C19.2851 11.4903 18.9787 11.055 18.5968 10.6917C18.2148 10.3283 17.7648 10.044 17.2726 9.85518C16.7804 9.66633 16.2557 9.57665 15.7288 9.59127Z" fill="black"/>
</svg>
