<svg xmlns="http://www.w3.org/2000/svg" viewBox="0 0 24 24"><defs><style>.cls-1{fill:#010101;}.cls-2{fill:none;}</style></defs><title>undo-arrow
</title><g id="Camada_2" data-name="Camada 2"><g id="Camada_1-2" data-name="Camada 1"><path class="cls-1" d="M15.81,9.09H6.87L7.66,8a1,1,0,0,0-1.6-1.2l-2,2.6a1.35,1.35,0,0,0,0,1.62l2,2.6a1,1,0,0,0,.8.4,1,1,0,0,0,.6-.2,1,1,0,0,0,.2-1.4L6.59,11.05a1.55,1.55,0,0,0,.21,0h9a2.27,2.27,0,0,1,2.36,2.16v.15a2.27,2.27,0,0,1-2.36,2.16H12.25a1,1,0,0,0,0,2h3.56a4.27,4.27,0,0,0,4.36-4.16v-.15A4.27,4.27,0,0,0,15.81,9.09Z"/><rect class="cls-2" width="24" height="24"/></g></g></svg>