<svg width="24" height="24" viewBox="0 0 24 24" fill="none" xmlns="http://www.w3.org/2000/svg">
<path d="M3.9701 20.0306C1.74421 17.8048 1.74421 14.1952 3.9701 11.9694L5.46994 10.4695C5.76285 10.1768 6.23776 10.1767 6.5306 10.4695C6.82344 10.7624 6.82334 11.2373 6.5306 11.5302L5.03076 13.03C3.39066 14.6701 3.39066 17.3299 5.03076 18.97C6.67089 20.6098 9.33004 20.6093 10.97 18.9693L12.4699 17.4695C12.7628 17.1767 13.2377 17.1767 13.5305 17.4695C13.8234 17.7623 13.8233 18.2372 13.5305 18.5301L12.0307 20.03C9.80492 22.2557 6.19601 22.2562 3.9701 20.0306Z" fill="#282828"/>
<path d="M20.0299 3.96935C22.2558 6.19524 22.2558 9.80476 20.0299 12.0306L18.5301 13.5305C18.2372 13.8232 17.7622 13.8233 17.4694 13.5305C17.1766 13.2376 17.1767 12.7627 17.4694 12.4698L18.9692 10.97C20.6093 9.32988 20.6093 6.67012 18.9692 5.03001C17.3291 3.39023 14.67 3.39071 13.03 5.0307L11.5301 6.53054C11.2372 6.82326 10.7623 6.82333 10.4695 6.53054C10.1766 6.2377 10.1767 5.76279 10.4695 5.46988L11.9693 3.97004C14.1951 1.74426 17.804 1.74378 20.0299 3.96935Z" fill="#282828"/>
<path d="M14.4697 8.46972C14.7626 8.17683 15.2373 8.17683 15.5302 8.46972C15.8231 8.76262 15.8231 9.23738 15.5302 9.53027L9.53022 15.5303C9.23732 15.8232 8.76256 15.8232 8.46967 15.5303C8.17678 15.2374 8.17678 14.7626 8.46967 14.4697L14.4697 8.46972Z" fill="#282828"/>
<path d="M6 7.25C6.41421 7.25 6.75 7.58579 6.75 8C6.75 8.41421 6.41421 8.75 6 8.75H3C2.58579 8.75 2.25 8.41421 2.25 8C2.25 7.58579 2.58579 7.25 3 7.25L6 7.25Z" fill="#282828"/>
<path d="M18 16.75C17.5858 16.75 17.25 16.4142 17.25 16C17.25 15.5858 17.5858 15.25 18 15.25H21C21.4142 15.25 21.75 15.5858 21.75 16C21.75 16.4142 21.4142 16.75 21 16.75H18Z" fill="#282828"/>
<path d="M7.25 6V3C7.25 2.58579 7.58579 2.25 8 2.25C8.41421 2.25 8.75 2.58579 8.75 3V6C8.75 6.41421 8.41421 6.75 8 6.75C7.58579 6.75 7.25 6.41421 7.25 6Z" fill="#282828"/>
<path d="M16.75 18V21C16.75 21.4142 16.4142 21.75 16 21.75C15.5858 21.75 15.25 21.4142 15.25 21V18C15.25 17.5858 15.5858 17.25 16 17.25C16.4142 17.25 16.75 17.5858 16.75 18Z" fill="#282828"/>
</svg>
