<svg width="24" height="24" viewBox="0 0 24 24" fill="none" xmlns="http://www.w3.org/2000/svg">
<path d="M15.5 7C15.5 5.067 13.933 3.5 12 3.5C10.067 3.5 8.5 5.067 8.5 7C8.5 8.933 10.067 10.5 12 10.5V12C9.23858 12 7 9.76142 7 7C7 4.23858 9.23858 2 12 2C14.7614 2 17 4.23858 17 7C17 9.76142 14.7614 12 12 12V10.5C13.933 10.5 15.5 8.933 15.5 7Z" fill="#282828"/>
<path d="M4.25 18.667C4.25 15.6754 6.67545 13.25 9.66699 13.25H11C11.4142 13.25 11.75 13.5858 11.75 14C11.75 14.4142 11.4142 14.75 11 14.75H9.66699C7.50388 14.75 5.75 16.5039 5.75 18.667C5.75018 19.5412 6.45881 20.2498 7.33301 20.25H12C12.4142 20.25 12.75 20.5858 12.75 21C12.75 21.4142 12.4142 21.75 12 21.75H7.33301C5.63039 21.7498 4.25018 20.3696 4.25 18.667Z" fill="#282828"/>
<path d="M13.75 16.5C13.75 17.2831 14.0168 17.8268 14.3916 18.1777C14.7742 18.5358 15.3307 18.75 16 18.75V20.25C15.0127 20.25 14.0694 19.9309 13.3662 19.2725C12.6552 18.6067 12.25 17.6499 12.25 16.5C12.25 15.4145 12.5297 14.3605 13.1611 13.5605C13.8102 12.7383 14.7817 12.25 16 12.25H17V13.75H16C15.2183 13.75 14.6898 14.0457 14.3389 14.4902C13.9705 14.957 13.75 15.6527 13.75 16.5Z" fill="#282828"/>
<path d="M21.75 16.5C21.75 15.4145 21.4703 14.3605 20.8389 13.5605C20.1898 12.7383 19.2183 12.25 18 12.25H17V13.75H18C18.7817 13.75 19.3102 14.0457 19.6611 14.4902C20.0295 14.957 20.25 15.6527 20.25 16.5H21.75Z" fill="#282828"/>
<path d="M21.75 16.5C21.75 17.8786 21.219 19.1667 20.4551 20.1133C19.7058 21.0417 18.6371 21.75 17.5 21.75C17.0858 21.75 16.75 21.4142 16.75 21V20.25H16V18.75H17.5C17.9142 18.75 18.25 19.0858 18.25 19.5V20.0439C18.5949 19.8683 18.9575 19.5805 19.2881 19.1709C19.8598 18.4623 20.25 17.5003 20.25 16.5H21.75Z" fill="#282828"/>
</svg>
