<svg width="24" height="24" viewBox="0 0 24 24" fill="none" xmlns="http://www.w3.org/2000/svg">
<path d="M15.5 7C15.5 5.067 13.933 3.5 12 3.5C10.067 3.5 8.5 5.067 8.5 7C8.5 8.933 10.067 10.5 12 10.5V12C9.23858 12 7 9.76142 7 7C7 4.23858 9.23858 2 12 2C14.7614 2 17 4.23858 17 7C17 9.76142 14.7614 12 12 12V10.5C13.933 10.5 15.5 8.933 15.5 7Z" fill="#282828"/>
<path d="M4.25 18.667C4.25 15.6754 6.67545 13.25 9.66699 13.25H11C11.4142 13.25 11.75 13.5858 11.75 14C11.75 14.4142 11.4142 14.75 11 14.75H9.66699C7.50388 14.75 5.75 16.5039 5.75 18.667C5.75018 19.5412 6.45881 20.2498 7.33301 20.25H12C12.4142 20.25 12.75 20.5858 12.75 21C12.75 21.4142 12.4142 21.75 12 21.75H7.33301C5.63039 21.7498 4.25018 20.3696 4.25 18.667Z" fill="#282828"/>
<path d="M14.25 19C14.25 18.5858 14.5858 18.25 15 18.25C15.4142 18.25 15.75 18.5858 15.75 19C15.75 19.6904 16.3096 20.25 17 20.25H18C18.6903 20.25 19.25 19.6904 19.25 19V15C19.25 14.3096 18.6903 13.75 18 13.75H17C16.3096 13.75 15.75 14.3096 15.75 15V16C15.75 16.4142 15.4142 16.75 15 16.75H12.4013L11.9648 17.4043L12.3105 17.75H13C13.4142 17.75 13.75 18.0858 13.75 18.5C13.75 18.9142 13.4142 19.25 13 19.25H12C11.8011 19.25 11.6104 19.1709 11.4697 19.0303L10.4697 18.0303C10.2169 17.7775 10.1776 17.3815 10.376 17.084L11.376 15.584L11.4326 15.5098C11.574 15.346 11.7806 15.25 12 15.25H14.25V15C14.25 13.4812 15.4812 12.25 17 12.25H18C19.5188 12.25 20.75 13.4812 20.75 15V19C20.75 20.5188 19.5188 21.75 18 21.75H17C15.4812 21.75 14.25 20.5188 14.25 19Z" fill="#282828"/>
<path d="M18 17C18 17.2761 17.7761 17.5 17.5 17.5C17.2239 17.5 17 17.2761 17 17C17 16.7239 17.2239 16.5 17.5 16.5C17.7761 16.5 18 16.7239 18 17Z" fill="#282828"/>
<path d="M18 17C18 16.7239 17.7761 16.5 17.5 16.5C17.2239 16.5 17 16.7239 17 17C17 17.2761 17.2239 17.5 17.5 17.5C17.7761 17.5 18 17.2761 18 17ZM18.5 17C18.5 17.5523 18.0523 18 17.5 18C16.9477 18 16.5 17.5523 16.5 17C16.5 16.4477 16.9477 16 17.5 16C18.0523 16 18.5 16.4477 18.5 17Z" fill="#282828"/>
</svg>
