<svg width="24" height="25" viewBox="0 0 24 25" fill="none" xmlns="http://www.w3.org/2000/svg">
<path d="M10.0447 4.50623C10.6776 4.50623 11.2963 4.6939 11.8226 5.04552C12.3488 5.39714 12.7589 5.89691 13.0011 6.48164C13.2433 7.06636 13.3067 7.70978 13.1832 8.33051C13.0598 8.95125 12.755 9.52144 12.3075 9.96897C11.8599 10.4165 11.2898 10.7213 10.669 10.8447C10.0483 10.9682 9.40486 10.9048 8.82014 10.6626C8.23542 10.4204 7.73565 10.0103 7.38403 9.48405C7.03241 8.95781 6.84473 8.33913 6.84473 7.70623C6.84473 6.85753 7.18187 6.0436 7.78199 5.44348C8.3821 4.84337 9.19604 4.50623 10.0447 4.50623V4.50623ZM10.0447 3.00623C9.11516 3.00623 8.20646 3.28188 7.43355 3.79832C6.66064 4.31476 6.05823 5.0488 5.70249 5.90761C5.34676 6.76643 5.25369 7.71144 5.43504 8.62315C5.61639 9.53486 6.06402 10.3723 6.72133 11.0296C7.37863 11.6869 8.21609 12.1346 9.1278 12.3159C10.0395 12.4973 10.9845 12.4042 11.8433 12.0485C12.7022 11.6927 13.4362 11.0903 13.9526 10.3174C14.4691 9.54449 14.7447 8.6358 14.7447 7.70623C14.7447 6.45971 14.2496 5.26424 13.3681 4.38282C12.4867 3.5014 11.2912 3.00623 10.0447 3.00623V3.00623Z" fill="#454545"/>
<path d="M4.33935 22.7973C4.67723 22.9365 5.03933 23.0075 5.40477 23.0062H13.6248L13.1836 21.5062H5.40477C5.0653 21.5062 4.73972 21.3714 4.49968 21.1313C4.25963 20.8913 4.12477 20.5657 4.12477 20.2262C4.12742 18.8585 4.67191 17.5476 5.63902 16.5805C6.60614 15.6134 7.91707 15.0689 9.28477 15.0662H10.8048C11.2468 15.0671 11.683 15.1245 12.1035 15.2346L13.8264 14.295C12.8992 13.8219 11.8655 13.6377 10.8051 13.6361H9.28512C7.51959 13.6388 5.82678 14.2714 4.57836 15.5198C3.32994 16.7682 2.62742 18.4607 2.62477 20.2262C2.62345 20.5917 2.69446 20.9538 2.8337 21.2916C2.97294 21.6295 3.17766 21.9365 3.43607 22.1949C3.69448 22.4533 4.00147 22.6581 4.33935 22.7973Z" fill="#454545"/>
<path fill-rule="evenodd" clip-rule="evenodd" d="M22.4984 15.381L22.5081 15.4091C22.6568 15.8546 22.6639 16.3341 22.5279 16.7842C22.3924 17.2325 22.125 17.6192 21.7748 17.9053L21.7735 17.9064L20.6522 18.8249L20.9805 20.1672C21.089 20.627 21.0511 21.1062 20.8752 21.5416C20.6998 21.9756 20.3997 22.3367 20.0271 22.5914C20.0181 22.5975 20.0091 22.6035 20.0001 22.6094C19.6084 22.8649 19.1537 22.9982 18.6952 23.0026L18.6851 23.0027C18.2797 23.0039 17.8761 22.9037 17.5152 22.706L17.5036 22.6997L16.1217 21.9268L14.7345 22.7038L14.7187 22.7126C14.329 22.9247 13.8902 23.0232 13.4536 23.0038C13.0184 22.9846 12.5902 22.8485 12.2206 22.6018C11.8421 22.3506 11.5361 21.9896 11.3577 21.5527C11.1781 21.1133 11.141 20.6283 11.2547 20.1645L11.2551 20.1628L11.5804 18.8299L10.4564 17.9092C10.4487 17.9029 10.441 17.8964 10.4334 17.8899C10.0907 17.5976 9.83298 17.2068 9.70788 16.7575C9.58248 16.3072 9.59994 15.8311 9.75648 15.392C9.91256 14.9542 10.1956 14.5836 10.5551 14.3158C10.9138 14.0487 11.337 13.8918 11.7722 13.8525L11.7785 13.852L13.3515 13.7169L13.957 12.3764C14.1521 11.9495 14.4694 11.6018 14.8541 11.3643C15.2379 11.1274 15.6782 11.0062 16.1211 11.0062C16.564 11.0062 17.0043 11.1274 17.3882 11.3643C17.7729 11.6018 18.0901 11.9495 18.2852 12.3764L18.288 12.3825L18.8876 13.7099L20.4641 13.8333C20.9031 13.8711 21.3304 14.0282 21.6926 14.2968C22.0556 14.5661 22.3413 14.9395 22.4984 15.381ZM20.8253 16.7441C20.9532 16.6398 21.0459 16.5029 21.092 16.3502C21.1382 16.1975 21.1358 16.0355 21.0853 15.884C21.0316 15.7332 20.9321 15.6003 20.7989 15.5015C20.6657 15.4027 20.5047 15.3424 20.3354 15.3278L18.1807 15.1592C17.9988 15.145 17.8392 15.0328 17.7641 14.8665L16.921 12.9999C16.854 12.8534 16.7425 12.7285 16.6003 12.6408C16.4581 12.553 16.2915 12.5062 16.1211 12.5062C15.9507 12.5062 15.7841 12.553 15.6419 12.6408C15.4997 12.7285 15.3882 12.8534 15.3213 12.9999L14.4771 14.8689C14.4026 15.0339 14.2447 15.1457 14.0642 15.1612L11.9068 15.3465C11.7403 15.3615 11.5819 15.4214 11.451 15.5189C11.3201 15.6163 11.2223 15.7472 11.1694 15.8957C11.1165 16.0441 11.1107 16.2037 11.1529 16.3552C11.1951 16.5066 11.2833 16.6433 11.4069 16.7488L13.0181 18.0685C13.1669 18.1904 13.2326 18.3869 13.187 18.5738L12.7117 20.521C12.6737 20.6756 12.6857 20.8373 12.7463 20.9854C12.8068 21.1336 12.9131 21.2616 13.0517 21.3531C13.1888 21.445 13.3514 21.4978 13.5199 21.5053C13.6884 21.5128 13.8557 21.4745 14.0015 21.3951L15.877 20.3446C16.0287 20.2596 16.2136 20.2596 16.3654 20.3444L18.2358 21.3905C18.3707 21.4644 18.5243 21.5031 18.6807 21.5027C18.8596 21.5009 19.0338 21.4488 19.1806 21.3531C19.3185 21.2588 19.4241 21.1291 19.4844 20.9797C19.5448 20.8303 19.5573 20.6676 19.5205 20.5117L19.0455 18.5693C18.9997 18.3823 19.0654 18.1857 19.2143 18.0637L20.8253 16.7441Z" fill="#454545"/>
</svg>
