<svg width="24" height="24" viewBox="0 0 24 24" fill="none" xmlns="http://www.w3.org/2000/svg">
<path d="M15.5 7C15.5 5.067 13.933 3.5 12 3.5C10.067 3.5 8.5 5.067 8.5 7C8.5 8.933 10.067 10.5 12 10.5V12C9.23858 12 7 9.76142 7 7C7 4.23858 9.23858 2 12 2C14.7614 2 17 4.23858 17 7C17 9.76142 14.7614 12 12 12V10.5C13.933 10.5 15.5 8.933 15.5 7Z" fill="#282828"/>
<path d="M4.25 18.667C4.25 15.6754 6.67545 13.25 9.66699 13.25H12C12.4142 13.25 12.75 13.5858 12.75 14C12.75 14.4142 12.4142 14.75 12 14.75H9.66699C7.50388 14.75 5.75 16.5039 5.75 18.667C5.75018 19.5412 6.45881 20.2498 7.33301 20.25H11C11.4142 20.25 11.75 20.5858 11.75 21C11.75 21.4142 11.4142 21.75 11 21.75H7.33301C5.63039 21.7498 4.25018 20.3696 4.25 18.667Z" fill="#282828"/>
<path d="M18 18.5C18 18.7761 17.7761 19 17.5 19C17.2239 19 17 18.7761 17 18.5C17 18.2239 17.2239 18 17.5 18C17.7761 18 18 18.2239 18 18.5Z" fill="#282828"/>
<path d="M18 18.5C18 18.2239 17.7761 18 17.5 18C17.2239 18 17 18.2239 17 18.5C17 18.7761 17.2239 19 17.5 19C17.7761 19 18 18.7761 18 18.5ZM18.5 18.5C18.5 19.0523 18.0523 19.5 17.5 19.5C16.9477 19.5 16.5 19.0523 16.5 18.5C16.5 17.9477 16.9477 17.5 17.5 17.5C18.0523 17.5 18.5 17.9477 18.5 18.5Z" fill="#282828"/>
<path d="M20.25 17C20.25 16.8619 20.1381 16.75 20 16.75H15C14.8619 16.75 14.75 16.8619 14.75 17V20C14.75 20.1381 14.8619 20.25 15 20.25H20C20.1381 20.25 20.25 20.1381 20.25 20V17ZM21.75 20C21.75 20.9665 20.9665 21.75 20 21.75H15C14.0335 21.75 13.25 20.9665 13.25 20V17C13.25 16.0335 14.0335 15.25 15 15.25H20C20.9665 15.25 21.75 16.0335 21.75 17V20Z" fill="#282828"/>
<path d="M18.75 16V15C18.75 14.3096 18.1904 13.75 17.5 13.75C16.8096 13.75 16.25 14.3096 16.25 15V16C16.25 16.4142 15.9142 16.75 15.5 16.75C15.0858 16.75 14.75 16.4142 14.75 16V15C14.75 13.4812 15.9812 12.25 17.5 12.25C19.0188 12.25 20.25 13.4812 20.25 15V16C20.25 16.4142 19.9142 16.75 19.5 16.75C19.0858 16.75 18.75 16.4142 18.75 16Z" fill="#282828"/>
</svg>
