<svg width="24" height="24" viewBox="0 0 24 24" fill="none" xmlns="http://www.w3.org/2000/svg">
<path d="M16.75 10.5V8C16.75 5.37665 14.6234 3.25 12 3.25C9.37665 3.25 7.25 5.37665 7.25 8V10.5C7.25 10.8882 7.54488 11.2075 7.92285 11.2461L8.07715 11.2539C8.45512 11.2925 8.75 11.6118 8.75 12C8.75 12.4142 8.41421 12.75 8 12.75C6.75736 12.75 5.75 11.7426 5.75 10.5V8C5.75 4.54822 8.54822 1.75 12 1.75C15.4518 1.75 18.25 4.54822 18.25 8V10.5C18.25 11.7426 17.2426 12.75 16 12.75C15.5858 12.75 15.25 12.4142 15.25 12C15.25 11.6118 15.5449 11.2925 15.9229 11.2539L16.0771 11.2461C16.4551 11.2075 16.75 10.8882 16.75 10.5Z" fill="#282828"/>
<path d="M8 8.00003C8 6.13264 9.27953 4.56367 11.0098 4.12308C11.5449 3.98684 11.9864 4.45235 12.0879 4.99515C12.3843 6.58152 13.4185 7.61577 15.0049 7.91214C15.5477 8.01365 16.0132 8.45513 15.877 8.99026L15.7812 9.30862C15.2392 10.8752 13.7509 12 12 12V10.5C12.9241 10.5 13.7314 9.99662 14.1641 9.24905C12.4591 8.75384 11.2449 7.54022 10.75 5.83499C10.0026 6.26765 9.5 7.07601 9.5 8.00003C9.5 9.38074 10.6193 10.5 12 10.5V12C9.79086 12 8 10.2092 8 8.00003Z" fill="#282828"/>
<path d="M4.25 18.667C4.25 15.6754 6.67545 13.25 9.66699 13.25H12C12.4142 13.25 12.75 13.5858 12.75 14C12.75 14.4142 12.4142 14.75 12 14.75H9.66699C7.50388 14.75 5.75 16.5039 5.75 18.667C5.75018 19.5412 6.45881 20.2498 7.33301 20.25H12C12.4142 20.25 12.75 20.5858 12.75 21C12.75 21.4142 12.4142 21.75 12 21.75H7.33301C5.63039 21.7498 4.25018 20.3696 4.25 18.667Z" fill="#282828"/>
<path d="M19.75 18.667C19.75 15.6754 17.3246 13.25 14.333 13.25H12C11.5858 13.25 11.25 13.5858 11.25 14C11.25 14.4142 11.5858 14.75 12 14.75H14.333C16.4961 14.75 18.25 16.5039 18.25 18.667C18.2498 19.5412 17.5412 20.2498 16.667 20.25H12C11.5858 20.25 11.25 20.5858 11.25 21C11.25 21.4142 11.5858 21.75 12 21.75H16.667C18.3696 21.7498 19.7498 20.3696 19.75 18.667Z" fill="#282828"/>
</svg>
