<svg width="24" height="24" viewBox="0 0 24 24" fill="none" xmlns="http://www.w3.org/2000/svg">
<path d="M15.5 7C15.5 5.067 13.933 3.5 12 3.5C10.067 3.5 8.5 5.067 8.5 7C8.5 8.933 10.067 10.5 12 10.5V12C9.23858 12 7 9.76142 7 7C7 4.23858 9.23858 2 12 2C14.7614 2 17 4.23858 17 7C17 9.76142 14.7614 12 12 12V10.5C13.933 10.5 15.5 8.933 15.5 7Z" fill="#282828"/>
<path d="M4.25 18.667C4.25 15.6754 6.67545 13.25 9.66699 13.25H12C12.4142 13.25 12.75 13.5858 12.75 14C12.75 14.4142 12.4142 14.75 12 14.75H9.66699C7.50388 14.75 5.75 16.5039 5.75 18.667C5.75018 19.5412 6.45881 20.2498 7.33301 20.25H12C12.4142 20.25 12.75 20.5858 12.75 21C12.75 21.4142 12.4142 21.75 12 21.75H7.33301C5.63039 21.7498 4.25018 20.3696 4.25 18.667Z" fill="#282828"/>
<path d="M16.4502 12.4006C16.1189 12.1522 15.649 12.2189 15.4004 12.55L12.4004 16.55C12.2004 16.8167 12.2004 17.1838 12.4004 17.4504L15.4004 21.4504C15.649 21.7815 16.1189 21.8483 16.4502 21.5999C16.7813 21.3513 16.8481 20.8813 16.5996 20.55L13.9375 17.0002L16.5996 13.4504C16.8481 13.1192 16.7813 12.6492 16.4502 12.4006Z" fill="#282828"/>
<path d="M13 16.25C12.5858 16.25 12.25 16.5858 12.25 17C12.25 17.4142 12.5858 17.75 13 17.75H20C20.4142 17.75 20.75 17.4142 20.75 17C20.75 16.5858 20.4142 16.25 20 16.25H13Z" fill="#282828"/>
</svg>
