<svg width="24" height="24" viewBox="0 0 24 24" fill="none" xmlns="http://www.w3.org/2000/svg">
<path d="M15.5 7C15.5 5.067 13.933 3.5 12 3.5C10.067 3.5 8.5 5.067 8.5 7C8.5 8.933 10.067 10.5 12 10.5V12C9.23858 12 7 9.76142 7 7C7 4.23858 9.23858 2 12 2C14.7614 2 17 4.23858 17 7C17 9.76142 14.7614 12 12 12V10.5C13.933 10.5 15.5 8.933 15.5 7Z" fill="#282828"/>
<path d="M4.25 18.667C4.25 15.6754 6.67545 13.25 9.66699 13.25H11C11.4142 13.25 11.75 13.5858 11.75 14C11.75 14.4142 11.4142 14.75 11 14.75H9.66699C7.50388 14.75 5.75 16.5039 5.75 18.667C5.75018 19.5412 6.45881 20.2498 7.33301 20.25H12C12.4142 20.25 12.75 20.5858 12.75 21C12.75 21.4142 12.4142 21.75 12 21.75H7.33301C5.63039 21.7498 4.25018 20.3696 4.25 18.667Z" fill="#282828"/>
<path d="M20.25 17C20.25 15.2051 18.7949 13.75 17 13.75C15.2051 13.75 13.75 15.2051 13.75 17C13.75 18.7949 15.2051 20.25 17 20.25C18.7949 20.25 20.25 18.7949 20.25 17ZM21.75 17C21.75 19.6234 19.6234 21.75 17 21.75C14.3766 21.75 12.25 19.6234 12.25 17C12.25 14.3766 14.3766 12.25 17 12.25C19.6234 12.25 21.75 14.3766 21.75 17Z" fill="#282828"/>
<path d="M17.9697 15.4697C18.2626 15.1768 18.7373 15.1768 19.0302 15.4697C19.3231 15.7626 19.3231 16.2373 19.0302 16.5302L17.0302 18.5302C16.7373 18.8231 16.2626 18.8231 15.9697 18.5302L14.9697 17.5302C14.6768 17.2373 14.6768 16.7626 14.9697 16.4697C15.2626 16.1768 15.7373 16.1768 16.0302 16.4697L16.4999 16.9394L17.9697 15.4697Z" fill="#282828"/>
</svg>
