<svg width="25" height="24" viewBox="0 0 25 24" fill="none" xmlns="http://www.w3.org/2000/svg">
<path fill-rule="evenodd" clip-rule="evenodd" d="M17.5339 13.59L17.536 13.5913L20.7089 15.5731C20.9931 15.7506 21.3617 15.5463 21.3617 15.2112V7.73757C21.3617 7.40244 20.9931 7.19809 20.7089 7.37562L17.5339 9.35868V13.59ZM16.2557 13.7685C16.2543 13.7513 16.2536 13.734 16.2536 13.7164L16.2536 7.48675H16.2557V6.78908C16.2557 5.84632 15.4915 5.08207 14.5487 5.08207H5.48921C4.54646 5.08207 3.78221 5.84632 3.78221 6.78908V16.1597C3.78221 17.1024 4.54646 17.8667 5.48921 17.8667H14.5487C15.4915 17.8667 16.2557 17.1024 16.2557 16.1597V13.7685ZM17.536 6.78908V7.84792L20.0307 6.28976C21.1676 5.57963 22.642 6.39706 22.642 7.73757V15.2112C22.642 16.5517 21.1676 17.3691 20.0307 16.659L17.536 15.1008V16.1597C17.536 17.8095 16.1985 19.1469 14.5487 19.1469H5.48921C3.83939 19.1469 2.50195 17.8095 2.50195 16.1597V6.78908C2.50195 5.13926 3.83939 3.80182 5.48921 3.80182H14.5487C16.1985 3.80182 17.536 5.13926 17.536 6.78908Z" fill="#454545"/>
</svg>
