<svg width="24" height="24" viewBox="0 0 24 24" fill="none" xmlns="http://www.w3.org/2000/svg">
<path fill-rule="evenodd" clip-rule="evenodd" d="M16.9619 13.59L16.9639 13.5913L20.1369 15.5731C20.4211 15.7506 20.7897 15.5463 20.7897 15.2112V7.73757C20.7897 7.40244 20.4211 7.19809 20.1369 7.37562L16.9619 9.35868V13.59ZM15.6837 13.7685C15.6823 13.7513 15.6816 13.734 15.6816 13.7164L15.6816 7.48675H15.6837V6.78908C15.6837 5.84632 14.9194 5.08207 13.9767 5.08207H4.91719C3.97444 5.08207 3.21018 5.84632 3.21018 6.78908V16.1597C3.21018 17.1024 3.97444 17.8667 4.91719 17.8667H13.9767C14.9194 17.8667 15.6837 17.1024 15.6837 16.1597V13.7685ZM16.9639 6.78908V7.84792L19.4586 6.28976C20.5956 5.57963 22.0699 6.39706 22.0699 7.73757V15.2112C22.0699 16.5517 20.5956 17.3691 19.4586 16.659L16.9639 15.1008V16.1597C16.9639 17.8095 15.6265 19.1469 13.9767 19.1469H4.91719C3.26737 19.1469 1.92993 17.8095 1.92993 16.1597V6.78908C1.92993 5.13926 3.26737 3.80182 4.91719 3.80182H13.9767C15.6265 3.80182 16.9639 5.13926 16.9639 6.78908Z" fill="#454545"/>
<path d="M7.51634 7.53503C7.08121 7.53503 6.72847 7.88777 6.72847 8.3229C6.72847 8.75803 7.08121 9.11077 7.51634 9.11077H10.8667L5.90874 14.0687C5.60106 14.3764 5.60106 14.8753 5.90874 15.183C6.21642 15.4906 6.71527 15.4906 7.02295 15.183L11.9809 10.225V13.5754C11.9809 14.0105 12.3337 14.3632 12.7688 14.3632C13.2039 14.3632 13.5567 14.0105 13.5567 13.5754V8.3229C13.5567 7.88777 13.2039 7.53503 12.7688 7.53503H7.51634Z" fill="#454545"/>
</svg>
