<svg width="24" height="24" viewBox="0 0 24 24" fill="none" xmlns="http://www.w3.org/2000/svg">
<path fill-rule="evenodd" clip-rule="evenodd" d="M12.89 20.61L12.77 20.5H8C6.80734 20.4974 5.66428 20.0224 4.82094 19.1791C3.9776 18.3357 3.50264 17.1927 3.5 16V8C3.50264 6.80734 3.9776 5.66428 4.82094 4.82094C5.66428 3.9776 6.80734 3.50264 8 3.5H12.61L11.89 2H8C6.4087 2 4.88258 2.63214 3.75736 3.75736C2.63214 4.88258 2 6.4087 2 8V16C2 17.5913 2.63214 19.1174 3.75736 20.2426C4.88258 21.3679 6.4087 22 8 22H11.69L12.89 20.61ZM12.4701 14.75L11.2901 15.75C11.1148 15.9194 10.8837 16.019 10.6401 16.03C10.4941 16.0312 10.3499 15.9969 10.2201 15.93C10.0481 15.8504 9.90223 15.7235 9.79954 15.5641C9.69685 15.4048 9.64157 15.2195 9.64014 15.03V9.02996C9.64157 8.8404 9.69685 8.65515 9.79954 8.4958C9.90223 8.33645 10.0481 8.20958 10.2201 8.12997C10.391 8.04924 10.5813 8.01861 10.7689 8.04162C10.9566 8.06463 11.1338 8.14033 11.2801 8.25997L12.3401 9.12997L12.7301 9.70997L10.4901 11.71C10.4147 11.7783 10.3544 11.8616 10.3131 11.9546C10.2717 12.0476 10.2503 12.1482 10.2501 12.25C10.2475 12.3518 10.2657 12.453 10.3035 12.5476C10.3414 12.6422 10.398 12.728 10.4701 12.8L12.4701 14.75ZM14.0601 10.52L14.9201 11.23H14.8801C14.9933 11.3239 15.0844 11.4415 15.147 11.5746C15.2096 11.7077 15.242 11.853 15.242 12C15.242 12.1471 15.2096 12.2923 15.147 12.4254C15.0844 12.5585 14.9933 12.6762 14.8801 12.77L13.6001 13.82L12.0601 12.31L14.0601 10.52ZM13.5498 2H15.9998C17.5911 2 19.1172 2.63214 20.2424 3.75736C21.3677 4.88258 21.9998 6.4087 21.9998 8V16.03C21.9998 17.6213 21.3677 19.1474 20.2424 20.2726C19.1172 21.3979 17.5911 22.03 15.9998 22.03H13.6698L14.4998 21.03C14.5647 20.9588 14.6141 20.875 14.6451 20.7838C14.6761 20.6926 14.6879 20.596 14.6798 20.5H15.9998C17.1925 20.4974 18.3355 20.0224 19.1789 19.1791C20.0222 18.3357 20.4972 17.1927 20.4998 16V8C20.4972 6.80734 20.0222 5.66428 19.1789 4.82094C18.3355 3.9776 17.1925 3.50264 15.9998 3.5H14.2698L13.5498 2Z" fill="black"/>
</svg>
