<svg width="24" height="24" viewBox="0 0 24 24" fill="none" xmlns="http://www.w3.org/2000/svg">
<path fill-rule="evenodd" clip-rule="evenodd" d="M16.9619 13.59L16.9639 13.5913L20.1369 15.5731C20.4211 15.7506 20.7897 15.5463 20.7897 15.2112V7.73757C20.7897 7.40244 20.4211 7.19809 20.1369 7.37562L16.9619 9.35868V13.59ZM15.6837 13.7685C15.6823 13.7513 15.6816 13.734 15.6816 13.7164L15.6816 7.48675H15.6837V6.78908C15.6837 5.84632 14.9194 5.08207 13.9767 5.08207H4.91719C3.97444 5.08207 3.21018 5.84632 3.21018 6.78908V16.1597C3.21018 17.1024 3.97444 17.8667 4.91719 17.8667H13.9767C14.9194 17.8667 15.6837 17.1024 15.6837 16.1597V13.7685ZM16.9639 6.78908V7.84792L19.4586 6.28976C20.5956 5.57963 22.0699 6.39706 22.0699 7.73757V15.2112C22.0699 16.5517 20.5956 17.3691 19.4586 16.659L16.9639 15.1008V16.1597C16.9639 17.8095 15.6265 19.1469 13.9767 19.1469H4.91719C3.26737 19.1469 1.92993 17.8095 1.92993 16.1597V6.78908C1.92993 5.13926 3.26737 3.80182 4.91719 3.80182H13.9767C15.6265 3.80182 16.9639 5.13926 16.9639 6.78908Z" fill="#454545"/>
<path d="M13.2517 15.183C13.5594 14.8753 13.5594 14.3764 13.2517 14.0687L10.6573 11.4744L13.2517 8.88001C13.5594 8.57233 13.5594 8.07348 13.2517 7.7658C12.944 7.45811 12.4452 7.45811 12.1375 7.7658L9.5431 10.3602L6.94874 7.7658C6.64105 7.45811 6.1422 7.45811 5.83452 7.7658C5.52684 8.07348 5.52684 8.57233 5.83452 8.88001L8.42889 11.4744L5.83452 14.0687C5.52684 14.3764 5.52684 14.8753 5.83452 15.183C6.1422 15.4906 6.64105 15.4906 6.94874 15.183L9.5431 12.5886L12.1375 15.183C12.4452 15.4906 12.944 15.4906 13.2517 15.183Z" fill="#454545"/>
</svg>
