<svg width="24" height="24" viewBox="0 0 24 24" fill="none" xmlns="http://www.w3.org/2000/svg">
<path fill-rule="evenodd" clip-rule="evenodd" d="M18.7498 2.86244C19.044 3.15396 19.0463 3.62882 18.7547 3.92309L2.74791 20.0813C2.4564 20.3755 1.98153 20.3778 1.68726 20.0863C1.39299 19.7947 1.39076 19.3199 1.68227 19.0256L17.6891 2.86743C17.9806 2.57317 18.4555 2.57093 18.7498 2.86244Z" fill="#454545"/>
<path fill-rule="evenodd" clip-rule="evenodd" d="M14.7124 3.81391C14.6232 3.80591 14.533 3.80182 14.4418 3.80182H5.38228C3.73246 3.80182 2.39502 5.13926 2.39502 6.78908V16.1312L3.67527 14.851V6.78908C3.67527 5.84632 4.43952 5.08207 5.38228 5.08207H13.4442L14.7124 3.81391ZM15.3216 5.32599L16.2424 4.40525C16.6141 4.68652 16.9181 5.05275 17.1253 5.47505L16.1208 6.47952C16.0311 5.99022 15.7329 5.57385 15.3216 5.32599ZM3.81361 16.8339L2.87039 17.7771C3.12289 18.1685 3.46433 18.497 3.86612 18.7341L4.8262 17.774C4.37087 17.6172 4.00268 17.2732 3.81361 16.8339ZM6.8549 17.8667L5.57464 19.1469H14.4418C16.0916 19.1469 17.429 17.8095 17.429 16.1597V15.1008L19.9237 16.659C21.0607 17.3691 22.535 16.5517 22.535 15.2112V7.73757C22.535 6.39706 21.0607 5.57963 19.9237 6.28976L17.429 7.84792V7.29259L16.1467 8.57492L16.1467 13.7164C16.1467 13.734 16.1474 13.7513 16.1488 13.7685V16.1597C16.1488 17.1024 15.3845 17.8667 14.4418 17.8667H6.8549ZM17.429 13.5913L17.4269 13.59V9.35868L20.6019 7.37562C20.8862 7.19809 21.2548 7.40244 21.2548 7.73757V15.2112C21.2548 15.5463 20.8862 15.7506 20.6019 15.5731L17.429 13.5913Z" fill="#454545"/>
</svg>
