<svg width="25" height="24" viewBox="0 0 25 24" fill="none" xmlns="http://www.w3.org/2000/svg">
<path fill-rule="evenodd" clip-rule="evenodd" d="M21.5117 10.4174C21.6518 10.5575 21.841 10.6374 22.0391 10.64C22.1385 10.6413 22.2371 10.6229 22.3292 10.5858C22.4214 10.5487 22.5052 10.4936 22.5759 10.4238C22.6466 10.3541 22.7028 10.2709 22.7411 10.1793C22.7794 10.0876 22.7991 9.98929 22.7991 9.88995C22.7991 8.84726 22.5938 7.81477 22.1947 6.85144C21.7957 5.88812 21.2109 5.01282 20.4736 4.27552C19.7363 3.53823 18.861 2.95337 17.8976 2.55435C16.9343 2.15533 15.9018 1.94995 14.8591 1.94995C14.7606 1.94995 14.6631 1.96935 14.5721 2.00704C14.4811 2.04473 14.3984 2.09998 14.3288 2.16962C14.2592 2.23926 14.2039 2.32194 14.1662 2.41294C14.1285 2.50393 14.1091 2.60146 14.1091 2.69995C14.1091 2.79844 14.1285 2.89597 14.1662 2.98696C14.2039 3.07796 14.2592 3.16064 14.3288 3.23028C14.3984 3.29993 14.4811 3.35517 14.5721 3.39286C14.6631 3.43055 14.7606 3.44995 14.8591 3.44995C16.5654 3.4526 18.2009 4.13227 19.4064 5.33972C20.612 6.54716 21.2891 8.18369 21.2891 9.88995C21.2917 10.0881 21.3716 10.2773 21.5117 10.4174ZM7.94905 16.8901C12.1191 21.0701 15.2391 22.0001 17.2391 22.0001H17.5391C18.4661 21.9555 19.3432 21.5669 19.9991 20.9101L20.7991 20.1201C21.4421 19.5034 21.8139 18.6566 21.8326 17.7658C21.8514 16.8751 21.5156 16.0133 20.8991 15.3701L19.2691 13.7401C18.7856 13.2589 18.1312 12.9888 17.4491 12.9888C16.7669 12.9888 16.1125 13.2589 15.6291 13.7401L14.4791 14.9001C14.4641 14.9189 14.445 14.934 14.4234 14.9444C14.4018 14.9548 14.3781 14.9602 14.3541 14.9602C14.33 14.9602 14.3063 14.9548 14.2847 14.9444C14.2631 14.934 14.244 14.9189 14.2291 14.9001L9.71905 10.3901C9.68667 10.3566 9.66857 10.3118 9.66857 10.2651C9.66857 10.2185 9.68667 10.1737 9.71905 10.1401L10.8391 8.98012C11.0794 8.74291 11.2703 8.46032 11.4005 8.14874C11.5308 7.83717 11.5979 7.50283 11.5979 7.16512C11.5979 6.82741 11.5308 6.49307 11.4005 6.1815C11.2703 5.86993 11.0794 5.58733 10.8391 5.35012L9.20905 3.72012C8.57152 3.10149 7.71494 2.76051 6.82667 2.77175C5.9384 2.783 5.09073 3.14555 4.46905 3.78012L3.66905 4.58012C3.06013 5.20307 2.70383 6.02969 2.66905 6.90012C2.56905 9.00012 3.39905 12.3901 7.94905 16.8901ZM5.55905 4.84012C5.92214 4.47608 6.4149 4.27107 6.92905 4.27012C7.1608 4.26813 7.39063 4.31218 7.60521 4.39973C7.81979 4.48728 8.01485 4.61658 8.17905 4.78012L9.79905 6.41012C9.89913 6.50874 9.9786 6.62628 10.0328 6.75589C10.0871 6.88551 10.115 7.02461 10.115 7.16512C10.115 7.30563 10.0871 7.44473 10.0328 7.57435C9.9786 7.70396 9.89913 7.8215 9.79905 7.92012L8.65905 9.08012C8.50274 9.23534 8.37868 9.41996 8.29402 9.62334C8.20936 9.82671 8.16578 10.0448 8.16578 10.2651C8.16578 10.4854 8.20936 10.7035 8.29402 10.9069C8.37868 11.1103 8.50274 11.2949 8.65905 11.4501L13.1691 16.0001C13.4888 16.304 13.913 16.4735 14.3541 16.4735C14.7951 16.4735 15.2194 16.304 15.5391 16.0001L16.6891 14.8001C16.8913 14.5998 17.1644 14.4875 17.4491 14.4875C17.7337 14.4875 18.0068 14.5998 18.2091 14.8001L19.7991 16.4301C19.9731 16.606 20.1105 16.8147 20.2032 17.0441C20.296 17.2735 20.3424 17.519 20.3396 17.7664C20.3368 18.0138 20.2849 18.2582 20.187 18.4854C20.0891 18.7127 19.947 18.9182 19.7691 19.0901L18.9691 19.8801C18.5715 20.2934 18.0317 20.54 17.4591 20.5701C16.1191 20.6201 13.2191 20.1101 9.00905 15.9001C4.62905 11.5201 4.09905 8.45012 4.16905 7.00012C4.18424 6.48795 4.39543 6.00114 4.75905 5.64012L5.55905 4.84012ZM18.2813 10.3848C18.3765 10.4201 18.4779 10.4356 18.5792 10.4301C18.7729 10.4223 18.956 10.3399 19.0902 10.2001C19.2245 10.0602 19.2993 9.87388 19.2992 9.68006C19.2965 8.52014 18.8339 7.40864 18.0128 6.58939C17.1917 5.77015 16.0791 5.31006 14.9192 5.31006C14.7203 5.31006 14.5295 5.38908 14.3889 5.52973C14.2482 5.67038 14.1692 5.86115 14.1692 6.06006C14.1692 6.25897 14.2482 6.44974 14.3889 6.59039C14.5295 6.73104 14.7203 6.81006 14.9192 6.81006C15.6813 6.81005 16.4123 7.11211 16.9521 7.65005C17.4919 8.188 17.7965 8.91797 17.7992 9.68006C17.7977 9.78153 17.817 9.88224 17.8561 9.97591C17.8951 10.0696 17.9531 10.1542 18.0262 10.2246C18.0994 10.2949 18.1862 10.3494 18.2813 10.3848ZM15.6591 11.4401C15.461 11.4375 15.2717 11.3576 15.1316 11.2175C14.9915 11.0774 14.9117 10.8882 14.9091 10.6901C14.9091 10.462 14.8185 10.2432 14.6572 10.082C14.4959 9.92069 14.2772 9.83008 14.0491 9.83008C13.8502 9.83008 13.6594 9.75106 13.5187 9.61041C13.3781 9.46976 13.2991 9.27899 13.2991 9.08008C13.2991 8.88117 13.3781 8.6904 13.5187 8.54975C13.6594 8.4091 13.8502 8.33008 14.0491 8.33008C14.675 8.33008 15.2753 8.57872 15.7178 9.02131C16.1604 9.46389 16.4091 10.0642 16.4091 10.6901C16.4065 10.8882 16.3266 11.0774 16.1865 11.2175C16.0464 11.3576 15.8572 11.4375 15.6591 11.4401Z" fill="#454545"/>
</svg>
