<svg width="25" height="24" viewBox="0 0 25 24" fill="none" xmlns="http://www.w3.org/2000/svg">
<path d="M17.4197 21.6143C15.4197 21.6143 12.2997 20.6843 8.12972 16.5043C3.57972 12.0043 2.74972 8.61432 2.84972 6.51432C2.88449 5.64389 3.24079 4.81727 3.84972 4.19432L4.64972 3.39432C5.27139 2.75975 6.11906 2.39719 7.00733 2.38595C7.8956 2.37471 8.75218 2.71569 9.38972 3.33432L11.0197 4.96432C11.2601 5.20153 11.4509 5.48412 11.5812 5.7957C11.7115 6.10727 11.7786 6.44161 11.7786 6.77932C11.7786 7.11703 11.7115 7.45137 11.5812 7.76294C11.4509 8.07451 11.2601 8.35711 11.0197 8.59432L9.89972 9.75432C9.86733 9.78787 9.84924 9.83269 9.84924 9.87932C9.84924 9.92595 9.86733 9.97076 9.89972 10.0043L14.4097 14.5143C14.4247 14.5331 14.4437 14.5482 14.4654 14.5586C14.487 14.569 14.5107 14.5744 14.5347 14.5744C14.5587 14.5744 14.5824 14.569 14.6041 14.5586C14.6257 14.5482 14.6447 14.5331 14.6597 14.5143L15.8097 13.3543C16.2932 12.8731 16.9476 12.603 17.6297 12.603C18.3119 12.603 18.9662 12.8731 19.4497 13.3543L21.0797 14.9843C21.6962 15.6275 22.032 16.4893 22.0133 17.38C21.9945 18.2708 21.6227 19.1176 20.9797 19.7343L20.1797 20.5243C19.5239 21.1811 18.6468 21.5697 17.7197 21.6143H17.4197ZM7.10972 3.88432C6.59556 3.88527 6.10281 4.09028 5.73972 4.45432L4.93972 5.25432C4.5761 5.61533 4.36491 6.10214 4.34972 6.61432C4.27972 8.06432 4.80972 11.1343 9.18972 15.5143C13.3997 19.7243 16.2997 20.2343 17.6397 20.1843C18.2124 20.1542 18.7521 19.9076 19.1497 19.4943L19.9497 18.7043C20.1277 18.5324 20.2697 18.3269 20.3676 18.0996C20.4656 17.8724 20.5174 17.628 20.5202 17.3806C20.523 17.1332 20.4767 16.8877 20.3839 16.6583C20.2911 16.4289 20.1537 16.2202 19.9797 16.0443L18.3897 14.4143C18.1875 14.214 17.9144 14.1017 17.6297 14.1017C17.3451 14.1017 17.072 14.214 16.8697 14.4143L15.7197 15.6143C15.4 15.9182 14.9758 16.0877 14.5347 16.0877C14.0936 16.0877 13.6694 15.9182 13.3497 15.6143L8.83972 11.0643C8.6834 10.9091 8.55934 10.7245 8.47468 10.5211C8.39002 10.3177 8.34644 10.0996 8.34644 9.87932C8.34644 9.65903 8.39002 9.44091 8.47468 9.23753C8.55934 9.03416 8.6834 8.84954 8.83972 8.69432L9.97972 7.53432C10.0798 7.43569 10.1593 7.31816 10.2135 7.18854C10.2678 7.05893 10.2957 6.91983 10.2957 6.77932C10.2957 6.63881 10.2678 6.49971 10.2135 6.37009C10.1593 6.24048 10.0798 6.12294 9.97972 6.02432L8.35972 4.39432C8.19551 4.23078 8.00046 4.10148 7.78588 4.01393C7.5713 3.92638 7.34146 3.88232 7.10972 3.88432V3.88432Z" fill="#454545"/>
</svg>
