<svg width="24" height="24" viewBox="0 0 24 24" fill="none" xmlns="http://www.w3.org/2000/svg">
<path fill-rule="evenodd" clip-rule="evenodd" d="M20.7126 10.4174C20.8527 10.5575 21.042 10.6374 21.2401 10.64C21.3394 10.6413 21.438 10.6229 21.5301 10.5858C21.6223 10.5487 21.7062 10.4936 21.7769 10.4238C21.8476 10.3541 21.9037 10.2709 21.942 10.1793C21.9803 10.0876 22.0001 9.98929 22.0001 9.88995C22.0001 8.84726 21.7947 7.81477 21.3957 6.85144C20.9966 5.88812 20.4118 5.01282 19.6745 4.27552C18.9372 3.53823 18.0619 2.95337 17.0986 2.55435C16.1352 2.15533 15.1028 1.94995 14.0601 1.94995C13.9616 1.94995 13.864 1.96935 13.773 2.00704C13.6821 2.04473 13.5994 2.09998 13.5297 2.16962C13.4601 2.23926 13.4048 2.32194 13.3671 2.41294C13.3295 2.50393 13.3101 2.60146 13.3101 2.69995C13.3101 2.79844 13.3295 2.89597 13.3671 2.98696C13.4048 3.07796 13.4601 3.16064 13.5297 3.23028C13.5994 3.29993 13.6821 3.35517 13.773 3.39286C13.864 3.43055 13.9616 3.44995 14.0601 3.44995C15.7663 3.4526 17.4018 4.13227 18.6074 5.33972C19.8129 6.54716 20.4901 8.18369 20.4901 9.88995C20.4926 10.0881 20.5725 10.2773 20.7126 10.4174ZM7.14998 16.8901C11.32 21.0701 14.44 22.0001 16.44 22.0001H16.74C17.667 21.9555 18.5442 21.5669 19.2 20.9101L20 20.1201C20.643 19.5034 21.0148 18.6566 21.0335 17.7658C21.0523 16.8751 20.7165 16.0133 20.1 15.3701L18.47 13.7401C17.9865 13.2589 17.3321 12.9888 16.65 12.9888C15.9678 12.9888 15.3135 13.2589 14.83 13.7401L13.68 14.9001C13.665 14.9189 13.646 14.934 13.6243 14.9444C13.6027 14.9548 13.579 14.9602 13.555 14.9602C13.531 14.9602 13.5073 14.9548 13.4856 14.9444C13.464 14.934 13.445 14.9189 13.43 14.9001L8.91998 10.3901C8.8876 10.3566 8.8695 10.3118 8.8695 10.2651C8.8695 10.2185 8.8876 10.1737 8.91998 10.1401L10.04 8.98012C10.2803 8.74291 10.4712 8.46032 10.6015 8.14874C10.7317 7.83717 10.7988 7.50283 10.7988 7.16512C10.7988 6.82741 10.7317 6.49307 10.6015 6.1815C10.4712 5.86993 10.2803 5.58733 10.04 5.35012L8.40998 3.72012C7.77245 3.10149 6.91587 2.76051 6.0276 2.77175C5.13932 2.783 4.29165 3.14555 3.66998 3.78012L2.86998 4.58012C2.26106 5.20307 1.90476 6.02969 1.86998 6.90012C1.76998 9.00012 2.59998 12.3901 7.14998 16.8901ZM4.75998 4.84012C5.12307 4.47608 5.61582 4.27107 6.12998 4.27012C6.36173 4.26813 6.59156 4.31218 6.80614 4.39973C7.02072 4.48728 7.21578 4.61658 7.37998 4.78012L8.99998 6.41012C9.10006 6.50874 9.17953 6.62628 9.23378 6.75589C9.28802 6.88551 9.31596 7.02461 9.31596 7.16512C9.31596 7.30563 9.28802 7.44473 9.23378 7.57435C9.17953 7.70396 9.10006 7.8215 8.99998 7.92012L7.85998 9.08012C7.70367 9.23534 7.57961 9.41996 7.49495 9.62334C7.41029 9.82671 7.3667 10.0448 7.3667 10.2651C7.3667 10.4854 7.41029 10.7035 7.49495 10.9069C7.57961 11.1103 7.70367 11.2949 7.85998 11.4501L12.37 16.0001C12.6897 16.304 13.1139 16.4735 13.555 16.4735C13.9961 16.4735 14.4203 16.304 14.74 16.0001L15.89 14.8001C16.0922 14.5998 16.3653 14.4875 16.65 14.4875C16.9346 14.4875 17.2077 14.5998 17.41 14.8001L19 16.4301C19.174 16.606 19.3114 16.8147 19.4042 17.0441C19.4969 17.2735 19.5433 17.519 19.5405 17.7664C19.5377 18.0138 19.4858 18.2582 19.3879 18.4854C19.29 18.7127 19.1479 18.9182 18.97 19.0901L18.17 19.8801C17.7724 20.2934 17.2326 20.54 16.66 20.5701C15.32 20.6201 12.42 20.1101 8.20998 15.9001C3.82998 11.5201 3.29998 8.45012 3.36998 7.00012C3.38517 6.48795 3.59636 6.00114 3.95998 5.64012L4.75998 4.84012ZM17.4823 10.3848C17.5774 10.4201 17.6788 10.4356 17.7801 10.4301C17.9738 10.4223 18.1569 10.3399 18.2912 10.2001C18.4254 10.0602 18.5003 9.87388 18.5001 9.68006C18.4975 8.52014 18.0348 7.40864 17.2137 6.58939C16.3926 5.77015 15.28 5.31006 14.1201 5.31006C13.9212 5.31006 13.7304 5.38908 13.5898 5.52973C13.4491 5.67038 13.3701 5.86115 13.3701 6.06006C13.3701 6.25897 13.4491 6.44974 13.5898 6.59039C13.7304 6.73104 13.9212 6.81006 14.1201 6.81006C14.8822 6.81005 15.6132 7.11211 16.1531 7.65005C16.6929 8.188 16.9975 8.91797 17.0001 9.68006C16.9986 9.78153 17.018 9.88224 17.057 9.97591C17.0961 10.0696 17.154 10.1542 17.2271 10.2246C17.3003 10.2949 17.3871 10.3494 17.4823 10.3848ZM14.86 11.4401C14.6619 11.4375 14.4726 11.3576 14.3325 11.2175C14.1924 11.0774 14.1126 10.8882 14.11 10.6901C14.11 10.462 14.0194 10.2432 13.8581 10.082C13.6968 9.92068 13.4781 9.83008 13.25 9.83008C13.0511 9.83008 12.8603 9.75106 12.7197 9.61041C12.579 9.46976 12.5 9.27899 12.5 9.08008C12.5 8.88117 12.579 8.6904 12.7197 8.54975C12.8603 8.4091 13.0511 8.33008 13.25 8.33008C13.8759 8.33008 14.4762 8.57872 14.9188 9.02131C15.3614 9.46389 15.61 10.0642 15.61 10.6901C15.6074 10.8882 15.5276 11.0774 15.3875 11.2175C15.2474 11.3576 15.0581 11.4375 14.86 11.4401Z" fill="black"/>
</svg>
