<svg width="25" height="24" viewBox="0 0 25 24" fill="none" xmlns="http://www.w3.org/2000/svg">
<path d="M16.6404 22.0001C14.6404 22.0001 11.5204 21.0701 7.35042 16.8901C2.80042 12.3901 1.97042 9.00012 2.07042 6.90012C2.10519 6.02969 2.4615 5.20307 3.07042 4.58012L3.87042 3.78012C4.49209 3.14555 5.33976 2.783 6.22804 2.77175C7.11631 2.76051 7.97289 3.10149 8.61042 3.72012L10.2404 5.35012C10.4808 5.58733 10.6716 5.86993 10.8019 6.1815C10.9322 6.49307 10.9993 6.82741 10.9993 7.16512C10.9993 7.50283 10.9322 7.83717 10.8019 8.14874C10.6716 8.46032 10.4808 8.74291 10.2404 8.98012L9.12042 10.1401C9.08804 10.1737 9.06994 10.2185 9.06994 10.2651C9.06994 10.3118 9.08804 10.3566 9.12042 10.3901L13.6304 14.9001C13.6454 14.9189 13.6644 14.934 13.6861 14.9444C13.7077 14.9548 13.7314 14.9602 13.7554 14.9602C13.7794 14.9602 13.8031 14.9548 13.8248 14.9444C13.8464 14.934 13.8654 14.9189 13.8804 14.9001L15.0304 13.7401C15.5139 13.2589 16.1683 12.9888 16.8504 12.9888C17.5326 12.9888 18.1869 13.2589 18.6704 13.7401L20.3004 15.3701C20.9169 16.0133 21.2527 16.8751 21.234 17.7658C21.2152 18.6566 20.8434 19.5034 20.2004 20.1201L19.4004 20.9101C18.7446 21.5669 17.8675 21.9555 16.9404 22.0001H16.6404ZM6.33042 4.27012C5.81626 4.27107 5.32351 4.47608 4.96042 4.84012L4.16042 5.64012C3.7968 6.00114 3.58561 6.48795 3.57042 7.00012C3.50042 8.45012 4.03042 11.5201 8.41042 15.9001C12.6204 20.1101 15.5204 20.6201 16.8604 20.5701C17.4331 20.54 17.9729 20.2934 18.3704 19.8801L19.1704 19.0901C19.3484 18.9182 19.4904 18.7127 19.5884 18.4854C19.6863 18.2582 19.7381 18.0138 19.7409 17.7664C19.7437 17.519 19.6974 17.2735 19.6046 17.0441C19.5118 16.8147 19.3744 16.606 19.2004 16.4301L17.6104 14.8001C17.4082 14.5998 17.1351 14.4875 16.8504 14.4875C16.5658 14.4875 16.2927 14.5998 16.0904 14.8001L14.9404 16.0001C14.6207 16.304 14.1965 16.4735 13.7554 16.4735C13.3143 16.4735 12.8901 16.304 12.5704 16.0001L8.06042 11.4501C7.90411 11.2949 7.78004 11.1103 7.69539 10.9069C7.61073 10.7035 7.56714 10.4854 7.56714 10.2651C7.56714 10.0448 7.61073 9.82671 7.69539 9.62334C7.78004 9.41996 7.90411 9.23534 8.06042 9.08012L9.20042 7.92012C9.3005 7.8215 9.37997 7.70396 9.43422 7.57435C9.48846 7.44473 9.51639 7.30563 9.51639 7.16512C9.51639 7.02461 9.48846 6.88551 9.43422 6.75589C9.37997 6.62628 9.3005 6.50874 9.20042 6.41012L7.58042 4.78012C7.41622 4.61658 7.22116 4.48728 7.00658 4.39973C6.792 4.31218 6.56217 4.26813 6.33042 4.27012V4.27012Z" fill="#454545"/>
<path d="M15.7312 2.40292C15.2961 2.40292 14.9433 2.75566 14.9433 3.19079C14.9433 3.62592 15.2961 3.97866 15.7312 3.97866H19.0816L14.1236 8.93664C13.8159 9.24432 13.8159 9.74317 14.1236 10.0508C14.4313 10.3585 14.9301 10.3585 15.2378 10.0508L20.1958 5.09288V8.44325C20.1958 8.87838 20.5485 9.23112 20.9836 9.23112C21.4188 9.23112 21.7715 8.87838 21.7715 8.44325V3.19079C21.7715 2.75566 21.4188 2.40292 20.9836 2.40292H15.7312Z" fill="#454545"/>
</svg>
