<svg width="24" height="24" viewBox="0 0 24 24" fill="none" xmlns="http://www.w3.org/2000/svg">
<path fill-rule="evenodd" clip-rule="evenodd" d="M19.0517 4.90629C17.1809 3.03307 14.6928 2.00095 12.0417 2C6.57884 2 2.13291 6.44545 2.13101 11.9097C2.13006 13.6565 2.58672 15.3615 3.45395 16.8641L2.04785 22L7.30161 20.6219C8.74904 21.4117 10.379 21.8275 12.0374 21.828H12.0417C17.5035 21.828 21.95 17.382 21.9519 11.9178C21.9528 9.26956 20.9231 6.77999 19.0517 4.90677V4.90629ZM12.0417 20.1543H12.0383C10.5605 20.1539 9.11068 19.7566 7.84573 19.0063L7.54491 18.8276L4.42716 19.6454L5.25922 16.6056L5.06344 16.2938C4.23897 14.9823 3.80322 13.4664 3.80417 11.9102C3.80607 7.36876 7.50119 3.67364 12.045 3.67364C14.2451 3.67459 16.3132 4.53232 17.8685 6.08953C19.4238 7.64627 20.2797 9.71624 20.2787 11.9168C20.2768 16.4588 16.5817 20.1539 12.0417 20.1539V20.1543ZM16.5598 13.9854C16.3122 13.8614 15.0948 13.2626 14.8676 13.1799C14.6405 13.0972 14.4756 13.0559 14.3107 13.3039C14.1458 13.552 13.6711 14.1099 13.5267 14.2748C13.3822 14.4401 13.2377 14.4606 12.9901 14.3365C12.7426 14.2125 11.9447 13.9511 10.9986 13.1077C10.2626 12.4509 9.76547 11.6403 9.62105 11.3922C9.47658 11.1442 9.60585 11.0102 9.72937 10.8871C9.84055 10.7759 9.97695 10.5977 10.101 10.4532C10.225 10.3088 10.2659 10.2052 10.3485 10.0403C10.4313 9.87491 10.3899 9.7305 10.3281 9.60643C10.2663 9.48242 9.77122 8.26352 9.56449 7.76791C9.36346 7.28512 9.15917 7.3507 9.00757 7.34262C8.8631 7.33549 8.69823 7.33407 8.53286 7.33407C8.36749 7.33407 8.09945 7.39584 7.87232 7.6439C7.64519 7.89192 7.00556 8.49114 7.00556 9.70955C7.00556 10.9279 7.89278 12.106 8.01679 12.2714C8.1408 12.4367 9.76309 14.9377 12.2469 16.0107C12.8377 16.2658 13.299 16.4184 13.6588 16.5324C14.2518 16.7211 14.7916 16.6945 15.2183 16.6308C15.694 16.5595 16.6834 16.0316 16.8896 15.4532C17.0958 14.8749 17.0958 14.3788 17.0341 14.2757C16.9723 14.1726 16.807 14.1103 16.5594 13.9863L16.5598 13.9854Z" fill="#454545"/>
</svg>
