<svg width="24" height="24" viewBox="0 0 24 24" fill="none" xmlns="http://www.w3.org/2000/svg">
<path fill-rule="evenodd" clip-rule="evenodd" d="M3.40039 19.5444L4.35626 16.032C3.4654 14.5049 2.99735 12.768 3.00026 11C3.00026 5.477 7.47726 1 13.0003 1C18.5233 1 23.0003 5.477 23.0003 11C23.0003 16.523 18.5233 21 13.0003 21C11.233 21.0029 9.49691 20.5352 7.97026 19.645L4.4596 20.6029L3.00426 21L3.40039 19.5444ZM7.62806 18.3908L4.85574 19.1473L5.61064 16.3734L5.75372 15.8476L5.47916 15.377C4.70465 14.0493 4.29773 12.5392 4.30026 11.0021V11C4.30026 6.19497 8.19523 2.3 13.0003 2.3C17.8053 2.3 21.7003 6.19497 21.7003 11C21.7003 15.805 17.8053 19.7 13.0003 19.7L12.9982 19.7C11.4617 19.7025 9.95235 19.2959 8.62508 18.522L8.15406 18.2473L7.62806 18.3908ZM10.505 9.92801C10.505 9.92801 10.406 10.046 10.444 10.193C10.4694 10.2653 10.5036 10.3342 10.546 10.398L10.605 10.493C10.8887 10.958 11.2316 11.3842 11.625 11.761C11.6572 11.7922 11.6896 11.8239 11.7216 11.8554C11.8087 11.9409 11.896 12.0266 11.988 12.107C12.4562 12.5199 12.9859 12.8572 13.558 13.107L13.563 13.109L13.6293 13.1381C13.6797 13.1603 13.7269 13.1811 13.815 13.218C13.8329 13.2256 13.8509 13.2329 13.869 13.2398C13.9139 13.2568 13.9596 13.2716 14.006 13.284C14.0733 13.3013 14.1443 13.2982 14.2098 13.2751C14.2753 13.2519 14.3325 13.2098 14.374 13.154C15.0311 12.3579 15.1463 12.2382 15.1656 12.223L15.1677 12.2216L15.169 12.221V12.223L15.1712 12.221C15.221 12.1751 15.28 12.1402 15.3443 12.1186C15.4095 12.0967 15.4786 12.089 15.547 12.096C15.608 12.0987 15.668 12.1126 15.724 12.137C15.7823 12.1636 15.8447 12.1918 15.9096 12.221L15.9141 12.223C16.4395 12.4594 17.125 12.758 17.125 12.758L17.707 13.019C17.804 13.066 17.893 13.177 17.897 13.284L17.8975 13.2957C17.9007 13.3634 17.9057 13.4701 17.883 13.657C17.851 13.916 17.773 14.227 17.695 14.39C17.64 14.505 17.568 14.606 17.485 14.692C17.373 14.809 17.29 14.88 17.155 14.98C17.073 15.042 17.03 15.07 17.03 15.07C16.9058 15.1491 16.778 15.2226 16.647 15.29C16.3896 15.4271 16.1052 15.506 15.814 15.521C15.7817 15.5226 15.7493 15.5243 15.717 15.526H15.717C15.5636 15.5342 15.4108 15.5423 15.258 15.534L14.689 15.447C14.4173 15.3755 14.1494 15.2921 13.8862 15.1972L13.869 15.1909C12.7617 14.7891 11.7369 14.1827 10.849 13.401C10.6605 13.2343 10.4832 13.057 10.3048 12.8786L10.201 12.775C9.31201 11.89 8.63901 10.935 8.23001 10.033C8.03001 9.58701 7.90201 9.11001 7.90001 8.62001C7.89662 8.01343 8.09542 7.42301 8.46501 6.94201L8.49809 6.89852L8.49809 6.89851C8.55984 6.81692 8.62422 6.73186 8.72601 6.63601C8.8125 6.54623 8.91153 6.46944 9.02001 6.40801C9.13568 6.35004 9.26187 6.31603 9.39101 6.30801C9.52514 6.29867 9.65971 6.29634 9.79401 6.30301C9.84801 6.30701 9.90201 6.31301 9.95601 6.31901C10.115 6.33801 10.29 6.43401 10.349 6.56801C10.647 7.24401 10.937 7.92501 11.217 8.60901C11.279 8.76001 11.242 8.95501 11.124 9.14501C11.0429 9.27383 10.9551 9.39833 10.861 9.51801C10.748 9.66201 10.505 9.92801 10.505 9.92801Z" fill="#292929"/>
</svg>