<svg width="24" height="24" viewBox="0 0 24 24" fill="none" xmlns="http://www.w3.org/2000/svg">
<path fill-rule="evenodd" clip-rule="evenodd" d="M15.55 3L19.45 7.26C19.9524 7.81275 20.2306 8.53304 20.23 9.28V19C20.23 19.7956 19.9139 20.5587 19.3513 21.1213C18.7887 21.6839 18.0257 22 17.23 22H6.77002C5.97437 22 5.21131 21.6839 4.6487 21.1213C4.08609 20.5587 3.77002 19.7956 3.77002 19V5C3.77002 4.20435 4.08609 3.44129 4.6487 2.87868C5.21131 2.31607 5.97437 2 6.77002 2H13.34C13.7577 2.00364 14.17 2.09447 14.5506 2.26667C14.9312 2.43887 15.2716 2.68865 15.55 3ZM15 7.26H17.45L14.43 3.99C14.325 3.87197 14.1997 3.77375 14.06 3.7V6.32C14.06 6.5693 14.1591 6.8084 14.3353 6.98468C14.5116 7.16096 14.7507 7.26 15 7.26ZM18.2907 20.0607C18.572 19.7794 18.73 19.3978 18.73 19L18.72 9.28C18.7178 9.10211 18.6839 8.92603 18.62 8.76H15C14.3546 8.75736 13.7366 8.49912 13.2811 8.04181C12.8257 7.58451 12.57 6.9654 12.57 6.32V3.5H6.77002C6.37219 3.5 5.99066 3.65804 5.70936 3.93934C5.42805 4.22064 5.27002 4.60218 5.27002 5V19C5.27002 19.3978 5.42805 19.7794 5.70936 20.0607C5.99066 20.342 6.37219 20.5 6.77002 20.5H17.23C17.6278 20.5 18.0094 20.342 18.2907 20.0607ZM9.03712 16.5483C9.13779 16.5969 9.24839 16.6214 9.36017 16.6199H9.41017C9.55197 16.6234 9.69181 16.5862 9.81303 16.5125C9.93426 16.4389 10.0318 16.3319 10.0939 16.2044C10.1561 16.0769 10.1803 15.9343 10.1637 15.7934C10.1471 15.6525 10.0903 15.5194 10.0002 15.4099L8.82017 13.9999L9.94017 12.5499C10.049 12.3992 10.098 12.2135 10.0777 12.0287C10.0574 11.8439 9.96917 11.6733 9.83017 11.5499C9.6756 11.4244 9.47796 11.3645 9.27973 11.3832C9.08151 11.4019 8.89854 11.4977 8.77017 11.6499L7.33017 13.4199C7.20609 13.5783 7.13867 13.7737 7.13867 13.9749C7.13867 14.1761 7.20609 14.3715 7.33017 14.5299L8.78017 16.3399C8.84847 16.4284 8.93645 16.4997 9.03712 16.5483ZM14.2371 16.5126C14.3583 16.5862 14.4982 16.6235 14.64 16.6199C14.7461 16.626 14.8522 16.6086 14.9507 16.5688C15.0493 16.529 15.1378 16.468 15.21 16.3899L16.66 14.5799C16.784 14.4215 16.8515 14.2261 16.8515 14.0249C16.8515 13.8237 16.784 13.6283 16.66 13.4699L15.22 11.6999C15.0916 11.5477 14.9086 11.452 14.7104 11.4333C14.5122 11.4146 14.3145 11.4744 14.16 11.5999C14.021 11.7233 13.9328 11.894 13.9124 12.0788C13.8921 12.2635 13.9411 12.4492 14.05 12.5999L15.18 13.9999L14.05 15.4099C13.9598 15.5195 13.9031 15.6526 13.8864 15.7934C13.8698 15.9343 13.894 16.077 13.9562 16.2045C14.0184 16.332 14.1159 16.4389 14.2371 16.5126ZM11.1601 16.5299C11.0463 16.5309 10.9337 16.507 10.8301 16.4599C10.6513 16.3735 10.514 16.2197 10.4484 16.0323C10.3827 15.8448 10.3942 15.6389 10.4801 15.4599L12.1701 11.9099C12.2062 11.8122 12.2622 11.7231 12.3345 11.6482C12.4069 11.5733 12.4941 11.5143 12.5905 11.475C12.6869 11.4357 12.7905 11.4168 12.8945 11.4197C12.9986 11.4226 13.101 11.4471 13.1951 11.4917C13.2892 11.5363 13.3729 11.6001 13.4411 11.6788C13.5092 11.7576 13.5601 11.8497 13.5907 11.9492C13.6213 12.0487 13.6308 12.1535 13.6187 12.257C13.6065 12.3604 13.573 12.4601 13.5201 12.5499L11.8301 16.0999C11.7721 16.2287 11.6778 16.3379 11.5589 16.4143C11.44 16.4906 11.3015 16.5308 11.1601 16.5299Z" fill="black"/>
</svg>
