<?xml version="1.0" encoding="utf-8"?>
<!-- Generator: Adobe Illustrator 27.3.1, SVG Export Plug-In . SVG Version: 6.00 Build 0)  -->
<svg version="1.1" id="Layer_1" xmlns="http://www.w3.org/2000/svg" xmlns:xlink="http://www.w3.org/1999/xlink" x="0px" y="0px"
	 viewBox="0 0 512 512" style="enable-background:new 0 0 512 512;" xml:space="preserve">
<style type="text/css">
	.st0{fill:#F2F2F2;}
	.st1{fill:#4E5B31;}
	.st2{fill:#D57800;}
</style>
<path class="st0" d="M473.7,88.3H38.3C17.2,88.3,0,105.4,0,126.6v258.8c0,21.2,17.2,38.3,38.3,38.3h435.3
	c21.2,0,38.3-17.2,38.3-38.3V126.6C512,105.4,494.8,88.3,473.7,88.3z"/>
<path id="branch" class="st1" d="M263.2,375c-0.1,0-0.1-0.1-0.2-0.1l-0.1-0.1c-0.3-0.3-0.6-0.6-0.9-0.9c-0.8-0.9-1.8-2.1-2.7-3.2
	c-1.8-2.2-3.2-4.1-3.5-4.5l-0.5-0.6l-4.4-1.4l-3.2-1.5l1.7-1.9l5.9,2.5l4.4,0.9l8.2,6l0,0c0,0-1.2,1-2.4,2c-0.5,0.5-1.2,1.1-1.6,1.6
	c-0.2,0.2-0.4,0.4-0.5,0.6C263.4,374.7,263.3,374.8,263.2,375 M232.9,365.9c-4,0-7.9-1.1-11.3-3.2h0v0c0.4-0.7,1-1.3,1.6-1.8
	c1.1-0.8,3.1-1.8,6.3-1.8h0.1c3.8,0,8.5,1.3,13.9,3.8C240.2,364.9,236.6,365.9,232.9,365.9L232.9,365.9L232.9,365.9z M216.2,362.2
	c-0.7,0-1.3-0.3-1.8-0.8c-0.4-0.5-0.7-1-0.8-1.6c-0.2-0.8-0.2-1.6-0.2-2.4c0.3-0.1,0.6-0.2,0.9-0.2h0.1c1.4,0,2.6,1.2,3,2.5
	c0.3,0.5,0.3,1.2,0.2,1.7C217.3,361.9,216.8,362.2,216.2,362.2L216.2,362.2z M245.6,358.8c-9.9-1.4-14-5-15.8-7.7
	c-1.1-1.7-1.6-3.7-1.5-5.7v0h0c0.5-0.1,1-0.2,1.5-0.2C232.4,345.2,239.1,346.6,245.6,358.8L245.6,358.8L245.6,358.8L245.6,358.8z
	 M225.3,356.8c-4.2,0-7.4-0.7-9.5-2.2c-0.9-0.6-1.6-1.4-2.1-2.3c-0.2-0.4-0.3-0.8-0.3-1.1c1.4-0.6,2.9-0.9,4.4-0.9
	c0.2,0,0.4,0,0.7,0c3.3,0,8.2,1.1,13.4,6.1l0,0h0C229.7,356.7,227.5,356.8,225.3,356.8L225.3,356.8z M204.9,356.1
	c-4.4,0-10.5-1.4-14.4-5.2l0,0h0c2.9-0.7,5.8-1.1,8.8-1.2c0.3,0,0.6,0,0.8,0c4.2,0,7.4,0.8,9.5,2.4c0.6,0.4,1,0.9,1.2,1.6
	c0,0.5-0.2,1-0.6,1.2c-1,0.7-2.7,1.1-5.1,1.1L204.9,356.1L204.9,356.1z M190.5,348.7c-0.5,0-1.1-0.2-1.4-0.7
	c-0.3-0.4-0.5-0.9-0.6-1.4c-0.1-0.7-0.2-1.4-0.2-2.1v0c0.2-0.1,0.5-0.2,0.7-0.2l0,0c0.6,0,1.1,0.3,1.5,0.7c0.4,0.4,0.8,0.9,1,1.5
	c0.2,0.5,0.2,1,0.1,1.5C191.4,348.4,191,348.7,190.5,348.7L190.5,348.7z M223.8,347.9c-0.7,0-1.3-0.3-1.8-0.8
	c-0.4-0.5-0.7-1-0.8-1.6c-0.2-0.8-0.2-1.6-0.2-2.4c0.3-0.1,0.6-0.2,0.9-0.2h0.1c1.4,0,2.6,1.2,3,2.5c0.3,0.5,0.3,1.2,0.2,1.7
	C224.9,347.6,224.4,347.9,223.8,347.9L223.8,347.9z M207.6,347.2c-8.9-0.3-13.6-2.9-15.9-4.9c-1-0.9-1.8-1.9-2.4-3.1
	c-0.2-0.4-0.4-0.9-0.5-1.4l0,0c0.7-0.2,1.5-0.3,2.2-0.3h0.2C194.2,337.5,200.3,338.8,207.6,347.2L207.6,347.2L207.6,347.2z
	 M217.3,346.3c-7.2-1.1-11.3-4.2-13.4-6.6c-1.3-1.4-2.3-3.1-3-5c0.7-0.2,1.5-0.3,2.2-0.3c0.1,0,0.2,0,0.3,0c0.1,0,0.2,0,0.3,0
	C207.4,334.6,213.9,336.2,217.3,346.3L217.3,346.3L217.3,346.3z M180.4,342.9c-2.3,0-4.6-0.3-6.8-0.8c-3.8-0.9-5.4-2.4-6.1-3.4
	c-0.3-0.4-0.5-0.9-0.6-1.4c0-0.2,0-0.4,0-0.6l0,0c1.9-0.5,3.9-0.7,5.9-0.8c0.1,0,0.3,0,0.4,0c1.6,0,3.3,0.2,4.9,0.5
	c3.6,0.8,6.9,2.8,9.1,5.8v0h0C185,342.6,182.7,342.9,180.4,342.9L180.4,342.9z M197.1,336.8c-0.7,0-1.3-0.3-1.8-0.7
	c-0.4-0.5-0.7-1-0.8-1.7c-0.2-0.8-0.2-1.6-0.2-2.4c0.3-0.1,0.6-0.2,0.9-0.2h0.1c1.4,0,2.6,1.2,3,2.5c0.3,0.5,0.3,1.2,0.1,1.7
	C198.1,336.5,197.6,336.9,197.1,336.8L197.1,336.8z M184.5,335.1c-2.4-0.7-4.7-1.7-6.8-3c-3.2-1.9-7-5.4-7.5-10.7l0,0h0
	c0.2-0.1,0.5-0.1,0.7-0.1c0.1,0,0.1,0,0.2,0c0.9,0,2.9,0.3,5.2,2C179.3,325.6,182.1,329.6,184.5,335.1L184.5,335.1z M192.7,334.8
	c-2-0.9-3.8-2.1-5.4-3.5c-4.2-3.6-7.4-8.1-9.5-13.3c0.5-0.2,1.1-0.4,1.6-0.4c0.1,0,0.1,0,0.2,0c0.1,0,0.2,0,0.3,0
	c1.4,0,3.5,0.6,5.8,3.1C188.3,323.6,190.7,328.4,192.7,334.8L192.7,334.8L192.7,334.8L192.7,334.8z M171.5,334.2
	c-2.7,0-3.7-1.5-4-2.1c-0.3-0.7-0.4-1.4-0.3-2.1v0c0.4-0.1,0.9-0.2,1.4-0.2h0.1c1.8,0,3.5,0.8,4.6,2.2c0.1,0.2,0.6,1,0.2,1.5
	C173.2,333.9,172.5,334.2,171.5,334.2L171.5,334.2z M165.4,326.5c-2.1,0-4.2-0.2-6.3-0.5c-2.4-0.4-3.8-2.5-4.6-4.2
	c-0.5-1.1-0.8-2.3-1-3.6h0c7.5,0.2,11.1,2.4,12.8,4.2c1,1.1,1.7,2.5,1.8,3.9h0C168.1,326.4,167,326.5,165.4,326.5L165.4,326.5z
	 M173.2,318.7c0,0-0.9-1.1-1.7-2.4c-0.9-1.4-1.7-2.8-1.7-4c0-1.1-0.3-3.6-0.4-4.9c-0.2-1.7-0.4-3.1-0.4-3.3h0c0.2,0.1,4.7,1.8,4.7,6
	S173.3,318.6,173.2,318.7L173.2,318.7L173.2,318.7L173.2,318.7z M167.4,318.3c0,0-0.1,0-0.1,0c-1.3-0.2-3.7-1.2-6.3-2.7
	c-2.9-1.7-5.2-3.4-6.6-5c-1.3-1.4-2-3.7-2.2-6.7c-0.1-1.4-0.1-2.7,0-4.1c0.2-0.1,0.5-0.1,0.7-0.1c1,0,2.1,0.5,3.5,1.5
	c1.3,0.9,2.6,2,3.7,3.1c1.4,1.4,2.8,2.9,4.1,4.5l0,0c0.2,0.3,1.4,2.6,2.4,4.9c0.5,1,0.9,2.1,1.2,3.3c0.1,0.3,0.1,0.7,0,1
	c0,0.1-0.1,0.2-0.2,0.3C167.5,318.2,167.5,318.3,167.4,318.3L167.4,318.3z"/>
<path id="branch_00000083779294370168290310000004853908955100653720_" class="st1" d="M248.3,375c0.1,0,0.1-0.1,0.2-0.1l0.1-0.1
	c0.3-0.3,0.6-0.6,0.9-0.9c0.8-0.9,1.8-2.1,2.7-3.2c1.8-2.2,3.2-4.1,3.5-4.5l0.5-0.6l4.4-1.4l3.2-1.5l-1.7-1.9l-5.9,2.5l-4.4,0.9
	l-8.2,6l0,0c0,0,1.2,1,2.4,2c0.5,0.5,1.2,1.1,1.6,1.6c0.2,0.2,0.4,0.4,0.5,0.6C248.1,374.7,248.2,374.8,248.3,375 M278.6,365.9
	c4,0,7.9-1.1,11.3-3.2h0v0c-0.4-0.7-1-1.3-1.6-1.8c-1.1-0.8-3.1-1.8-6.3-1.8h-0.1c-3.8,0-8.5,1.3-13.9,3.8
	C271.3,364.9,274.9,365.9,278.6,365.9L278.6,365.9L278.6,365.9z M295.3,362.2c0.7,0,1.3-0.3,1.8-0.8c0.4-0.5,0.7-1,0.8-1.6
	c0.2-0.8,0.2-1.6,0.2-2.4c-0.3-0.1-0.6-0.2-0.9-0.2h-0.1c-1.4,0-2.6,1.2-3,2.5c-0.3,0.5-0.3,1.2-0.2,1.7
	C294.2,361.9,294.7,362.2,295.3,362.2L295.3,362.2z M265.9,358.8c9.9-1.4,14-5,15.8-7.7c1.1-1.7,1.6-3.7,1.5-5.7v0h0
	c-0.5-0.1-1-0.2-1.5-0.2C279.1,345.2,272.4,346.6,265.9,358.8L265.9,358.8L265.9,358.8L265.9,358.8z M286.2,356.8
	c4.2,0,7.4-0.7,9.5-2.2c0.9-0.6,1.6-1.4,2.1-2.3c0.2-0.4,0.3-0.8,0.3-1.1c-1.4-0.6-2.9-0.9-4.4-0.9c-0.2,0-0.4,0-0.7,0
	c-3.3,0-8.2,1.1-13.4,6.1l0,0h0C281.8,356.7,284,356.8,286.2,356.8L286.2,356.8z M306.6,356.1c4.4,0,10.5-1.4,14.4-5.2l0,0h0
	c-2.9-0.7-5.8-1.1-8.8-1.2c-0.3,0-0.6,0-0.8,0c-4.2,0-7.4,0.8-9.5,2.4c-0.6,0.4-1,0.9-1.2,1.6c0,0.5,0.2,1,0.6,1.2
	c1,0.7,2.7,1.1,5.1,1.1L306.6,356.1L306.6,356.1z M321,348.7c0.5,0,1.1-0.2,1.4-0.7c0.3-0.4,0.5-0.9,0.6-1.4
	c0.1-0.7,0.2-1.4,0.2-2.1v0c-0.2-0.1-0.5-0.2-0.7-0.2l0,0c-0.6,0-1.1,0.3-1.5,0.7c-0.4,0.4-0.8,0.9-1,1.5c-0.2,0.5-0.2,1-0.1,1.5
	C320.1,348.4,320.5,348.7,321,348.7L321,348.7z M287.7,347.9c0.7,0,1.3-0.3,1.8-0.8c0.4-0.5,0.7-1,0.8-1.6c0.2-0.8,0.2-1.6,0.2-2.4
	c-0.3-0.1-0.6-0.2-0.9-0.2h-0.1c-1.4,0-2.6,1.2-3,2.5c-0.3,0.5-0.3,1.2-0.2,1.7C286.6,347.6,287.1,347.9,287.7,347.9L287.7,347.9z
	 M303.9,347.2c8.9-0.3,13.6-2.9,15.9-4.9c1-0.9,1.8-1.9,2.4-3.1c0.2-0.4,0.4-0.9,0.5-1.4l0,0c-0.7-0.2-1.5-0.3-2.2-0.3h-0.2
	C317.3,337.5,311.2,338.8,303.9,347.2L303.9,347.2L303.9,347.2z M294.2,346.3c7.2-1.1,11.3-4.2,13.4-6.6c1.3-1.4,2.3-3.1,3-5
	c-0.7-0.2-1.5-0.3-2.2-0.3c-0.1,0-0.2,0-0.3,0s-0.2,0-0.3,0C304.1,334.6,297.6,336.2,294.2,346.3L294.2,346.3L294.2,346.3z
	 M331.1,342.9c2.3,0,4.6-0.3,6.8-0.8c3.8-0.9,5.4-2.4,6.1-3.4c0.3-0.4,0.5-0.9,0.6-1.4c0-0.2,0-0.4,0-0.6l0,0
	c-1.9-0.5-3.9-0.7-5.9-0.8c-0.1,0-0.3,0-0.4,0c-1.6,0-3.3,0.2-4.9,0.5c-3.6,0.8-6.9,2.8-9.1,5.8v0h0
	C326.5,342.6,328.8,342.9,331.1,342.9L331.1,342.9z M314.4,336.8c0.7,0,1.3-0.3,1.8-0.7c0.4-0.5,0.7-1,0.8-1.7
	c0.2-0.8,0.2-1.6,0.2-2.4c-0.3-0.1-0.6-0.2-0.9-0.2h-0.1c-1.4,0-2.6,1.2-3,2.5c-0.3,0.5-0.3,1.2-0.1,1.7
	C313.4,336.5,313.9,336.9,314.4,336.8L314.4,336.8z M327,335.1c2.4-0.7,4.7-1.7,6.8-3c3.2-1.9,7-5.4,7.5-10.7l0,0h0
	c-0.2-0.1-0.5-0.1-0.7-0.1c-0.1,0-0.1,0-0.2,0c-0.9,0-2.9,0.3-5.2,2C332.2,325.6,329.4,329.6,327,335.1L327,335.1z M318.8,334.8
	c2-0.9,3.8-2.1,5.4-3.5c4.2-3.6,7.4-8.1,9.5-13.3c-0.5-0.2-1.1-0.4-1.6-0.4c-0.1,0-0.1,0-0.2,0c-0.1,0-0.2,0-0.3,0
	c-1.4,0-3.5,0.6-5.8,3.1C323.2,323.6,320.8,328.4,318.8,334.8L318.8,334.8L318.8,334.8L318.8,334.8z M340,334.2c2.7,0,3.7-1.5,4-2.1
	c0.3-0.7,0.4-1.4,0.3-2.1v0c-0.4-0.1-0.9-0.2-1.4-0.2h-0.1c-1.8,0-3.5,0.8-4.6,2.2c-0.1,0.2-0.6,1-0.2,1.5
	C338.3,333.9,339,334.2,340,334.2L340,334.2z M346.1,326.5c2.1,0,4.2-0.2,6.3-0.5c2.4-0.4,3.8-2.5,4.6-4.2c0.5-1.1,0.8-2.3,1-3.6h0
	c-7.5,0.2-11.1,2.4-12.8,4.2c-1,1.1-1.7,2.5-1.8,3.9h0C343.4,326.4,344.5,326.5,346.1,326.5L346.1,326.5z M338.3,318.7
	c0,0,0.9-1.1,1.7-2.4c0.9-1.4,1.7-2.8,1.7-4c0-1.1,0.3-3.6,0.4-4.9c0.2-1.7,0.4-3.1,0.4-3.3h0c-0.2,0.1-4.7,1.8-4.7,6
	S338.2,318.6,338.3,318.7L338.3,318.7L338.3,318.7L338.3,318.7z M344.1,318.3c0,0,0.1,0,0.1,0c1.3-0.2,3.7-1.2,6.3-2.7
	c2.9-1.7,5.2-3.4,6.6-5c1.3-1.4,2-3.7,2.2-6.7c0.1-1.4,0.1-2.7,0-4.1c-0.2-0.1-0.5-0.1-0.7-0.1c-1,0-2.1,0.5-3.5,1.5
	c-1.3,0.9-2.6,2-3.7,3.1c-1.4,1.4-2.8,2.9-4.1,4.5l0,0c-0.2,0.3-1.4,2.6-2.4,4.9c-0.5,1-0.9,2.1-1.2,3.3c-0.1,0.3-0.1,0.7,0,1
	c0,0.1,0.1,0.2,0.2,0.3C344,318.2,344,318.3,344.1,318.3L344.1,318.3z"/>
<path class="st2" d="M413.3,146.1l-1.3,0.5l-0.5,0.2l-1.6-0.1l-1.5,0.7l-2.7,1.8l-0.1,0.1l-1,0.3l-0.9-0.4l-0.5,0.2l-0.2,1.1
	l-0.5,0.8l-0.6,0.4l-2.2,0.2l-1.8,0.9l-2.4-0.6l-1.1,0.4l-2.3,2.1l-1.2,0.6l-0.4,0l-1.6-0.1l-0.7,0.2l-1,1l-1.9,0.1l-0.6,0.4
	l-0.9,1.9l-1,1l-0.6,0.1l-0.6-0.2l-0.5,0.1l-0.2,1.2l-0.5,0.5l-1.3,0.4l-1,0.8l-0.9,0.5l-1.2,0h-0.3l-1.2,0.7l-2.2,0.2l-0.9,0.9
	l-0.2,0.2l-0.4,0.3l-0.7,0.4l-0.2,0.1l-0.9-0.2l-1,0.4l-0.4-0.6L367,166l-0.9,0l-1.1-0.5l-0.9-0.4l-0.6,0.1l-0.2,1.1l0,0.1l-0.7,0.9
	l-1.2,0.8l-0.2,0.2l-1.4,1.8L357,173l-2.3,1.2l-2.4,0.7l-1.6,1.4l-4.3,2.1l-6.8,3.4l-1.4,0.4l-2,0.3l-3.6,1.3l-3.1,0.9l-0.2,0.1
	l-0.6,0.2l-4.4,1.3l-2.1-0.2l-1.2,0.4l-3.2-0.4l-2.2,0l-1.4,0.3l-2.6,1.3l-4.4,2.1l-1.5,1.3l-2.3,1.2l-2.7,0.8l0-1.1l0,0l-0.9,0.3
	l-0.7,0.2l-2.2,0.3h-1.2l-0.8-0.2l-0.1,0l-4.4,1.5l-5,0.5l-2.5,0.8l-1.9,0l-1.2,0.3l-2.3,0.3l-0.8-0.2l-0.2-0.1l-6.7,0.3l-3.1-0.3
	l-1.5,0.3l-2.4-0.8l-3.6-0.4l-0.8-0.2l-1.9-0.6l-0.8,0.5l-0.6,0.1l-1.5-0.5l-0.5,0l-1.3,0.5l-0.7-0.2l-0.7-0.5l-1.6-0.2l-1-0.8
	l-5.3,0.7l-1.4-0.4l-4.9-1.4l-0.8,0l-1,0.7l-1.4,0.5l-1.3,0.3l-1.7,0.1l-2-0.5l-2-1l-0.8-0.2l-1.7,0.2l-0.5,0l-3.1-1.7l-4-2.5
	l-2.7-1.3l-1-0.2l-0.1,0.5l0.5,1.6l0.2,1.6l-0.1,1.5l0,0.9l0.3,0.8l1,1.1l0.4,1.1l0.3,3l0,3l-0.5,4.9l-0.2,0.7l-0.6,2.5l-0.5,2.3
	l-2,6.2l-0.6,0.8l-1.4,0.9l-3.1,2.1l-2.3,1.3l-0.7,0.3l-1.8,0.1l-1.1-0.1l-1.4-0.8l-1.4-0.4l-1.8-1.3l-2-0.4l-2.2-1.3l-0.6-0.7
	l-1.2-0.1l-1.7-0.5v0l-0.6-0.2l-0.4-0.1l0,0l-2.2-0.1l-2-0.9l-1.1-0.3l-1.4-0.1l-1.5,0.7l0,0l-0.8,0.4l-1-0.4l-0.7,0l-0.8,1.2
	l-0.1,0.2l-0.5,0.3l-0.7,0l-0.5,0l-0.6,0.3l-0.8,0.3l0,0l-0.7,0.3l-0.3,0.1l0,0l-0.2,0l-0.4,0.1l-0.5,0.1l-0.8-0.5l-0.4-0.3
	l-0.7-0.1l-0.4,0.3l-0.1,1.3l-0.4,0.8l-1.1,1l-1.1,1l-0.8,1.2l-2.1,4.8l-1.3,1.9l-0.4,0.4l-1.4,1.5l-1.2,0.9l-2.8,2.2l-2.6,1
	l-2.3,0.5l-1.1,0l-2.1-0.3l-1.9-0.6l-2.1-1.3l-2.3-1.8l-3.3-3.3l-0.5-0.3l-0.1-0.1l-1-0.7l-0.8,0l-0.3,0.5l-0.2,0.7l-0.1,0.6
	l-0.4,3.6l0,0.2l0.2,1.5l2.5,3.5l0.8,1.9l0.1,0.2l0.5,0.9l0.4,0.7l0,0.1l0.9,2.6l-0.6,1.4l0.3,1l-0.8,0.6l-0.1,0.8l2.2,2.8l0.5,1.2
	l-0.5,1.7l-0.9,0.9l-0.2,0.3l0.1,0.7l1,0.9l1.8,1.6l0.9,2.3l0.7,0.6l0.8-0.2l0.5,0.4l0.7,0l0.7,0.7l0.4,0.2l0.7,0.4l0.6,0.7l0.1,2.2
	l1,2.8l0,1.5l0,0.2l0.6,1.1l0.2,0.9l-0.3,2.3l0.8,0.7l0.9-0.2l0.6,0.1l0.9,0.8l1.1,1.7l1.1-0.2l0.7,0.3l3.4,3l0.8,0.4l0,0l0.5,0.3
	l0.7,0.7l1.1-0.7l0.1,0l1.1-0.1l0.5,0.3l1,0.7l1.3,0l2.8,0.8l1.2,0.3l2.4,1.5l1,0.6l0.6,0.5l0.8,0.7l1.6,0.7l1.4,0.3l0.8,0.2
	l0.6,0.2l0,0h0l0,0l3,1.1l1.6,0.4l1.5,0.6l1.1,0.4l0.8,0l1.1-1l1.1-0.1l0.9,0.2l0.9-0.1l1.4-0.9l0.3-0.4l1-0.5l3.4-0.4l1,0.3
	l2.5-1.1l1.7,0.5l1.5-0.5l3.3,0.7l0.9,0.6l1,1.1l0.1,0l1.1,0l-0.5,0.8l1.4,1.5l1.3,2l0.1,0.3l0.9,2.8l0.7,1l0.5,1.4l0,0.9l-0.8,0.6
	l-0.1,0.3l0,0.1l0.2,0.4l0.3-0.2l0.5-0.3l0.7-0.1l1.2,0.1l0.8,0.1l1.2-0.6l0.8-0.4l1.3,0.6l1.4,0l0.6,0.3l1.7,0.8l0.9,0.1l0.3-0.2
	l0.2-0.5l-0.1-0.6l-0.7-0.7l-1.4-1.7l-0.6-0.9l-0.4-1.2L223,296l-0.1-1.1l0.2-1.4l0.4-0.5l0.3-1.1h0l0.1-0.3l0.8-1.1l2.1-1.4l2.3-2
	l1.8-1.2l1.9-0.8l0-0.2l0.2,0.1l4.7-1.6l0.1,0l2.1-0.4l14.2,1l0.5-0.2v0l0.5-1.3l0.3-0.2l0.2-0.2l1.6-0.7l0.7-0.1l2,0.5l0.8,0.2
	l1.3-0.7l0.9,0l1.9-1.1l1.2,0l0.5-0.2l2.3-1.7l2.3-0.6l0.6-0.3l0.2-0.1l2.3-1.2l1.5-1.1l1.3-0.7l1.4-0.4l3.6-0.3l0.7-1.2l1.6-0.2
	l0.9-1.1l1.1-0.4l0.8-1.1l0.6-0.9l0.9-0.5l2.9-0.2l3.4,0.4l0.5-0.3l0.8-2.8l0.8-0.5l2.2-3.2l0-1.2v-1l0.4-1.4l-0.2-2.5l0.3-2.5
	l1.4-3.2l1.2-1.3l1.9-1.3l1-0.4l1.4-0.2v0l0.2,0l0.4-0.1l4.8-0.1c0.1,0,1.7,0,1.7,0l1.6,0l4,0.7l0.3,0.1l1.4,0.4l1.6,1.2l1.7,1.6
	l0.3,0.3l1.1,0.5l0.3,0.1l0.9-0.1l1.3-0.7l1-0.8l1.3-0.7l0,0l0.7-1.1l0,0l0,0v0h0l0.3-0.4l2.5-1l3-0.2l0.3-0.2l0.2-0.1l0.8-0.9
	l0.7,0l1.8,0.6l1.3-0.2l1,0.4l0.8-0.1l1.5-0.2l1.6,1.1l0.9,0.1l3.2,1.9l0.2,0l0.1,0l0.2,0l0.4-0.1l0.6-0.2l0.1,0l0.1,0.1l0.4,0.5
	l0.5,0.1l0.6-0.8l-0.2-0.4l-0.1-0.1l-1.1-0.2l-1-1.8l1-1.1l-1.5-1.9l-0.3-0.3l-0.1-0.1l-0.5-0.8l-2.7-4.1l-3.5-2.8l0,0l-1.2-1l0,0
	l-0.4-0.3l-1.9-1.9l-1.3-1.8l-0.2-0.4l-0.3-0.6l-0.8-1.7l-1.4-1.1l-1.1-1.2l-0.1-0.1l-2.4-3.2L332,221l-0.6-0.3l-1.2,0l-0.1-0.1
	l-0.1-0.1l0,0l0.6-0.6l0.6-0.2l0.3-0.6l-1.2-3.5l0-0.1l-0.1-1.1l1-5l0.1-0.6l1.7-3.4l1-0.8l1.1-2.2l1-1.4l0.9-0.9l0.2-0.1l1.7-1
	l1.4-0.2l1.3-0.2l2.3,0.7l2.2,0l0.4,0l1-0.1l1.7-0.5l0.8-0.5l0.4-0.6l0.8-2.8l0.3-0.9l0.5-1l3-3.5l2.3-2.1l5.1-3.8l2.5-1.5l1.3-0.8
	l11.4-5.1l3-3l1.5-1.6l2.7-1.8l3.2-1.3l2.8-2.2l0.6-0.8l0.8-2.4l0.6-0.2l0.6-1.2l0.2-0.4l2.3-1.6l0.3-0.1l8.7-4.4l1.3,0.2l0.7-1
	l2.5-0.4l0.5-0.1l0.6-0.3l0.5-0.9v-0.2l0.1-2.4l0.5-0.7l0.3-1.6l0.3-0.4l0.3-0.4l0.7-0.5L413.3,146.1L413.3,146.1z"/>
</svg>
