<svg width="24" height="24" viewBox="0 0 24 24" fill="none" xmlns="http://www.w3.org/2000/svg">
<path d="M16.13 3.50002C16.5995 3.50002 17.0497 3.6865 17.3816 4.01844C17.7135 4.35038 17.9 4.80058 17.9 5.27002V18.72C17.9038 19.1668 17.7374 19.5984 17.4347 19.9271C17.132 20.2558 16.7156 20.457 16.27 20.49H16.2C16.0104 20.4825 15.8242 20.437 15.6524 20.3563C15.4807 20.2755 15.3268 20.1612 15.2 20.02L13.2 17.92C13.0144 17.728 12.7923 17.5751 12.5467 17.4704C12.3011 17.3656 12.037 17.3111 11.77 17.31C11.5096 17.3072 11.2513 17.3572 11.0107 17.4569C10.7701 17.5565 10.5522 17.7039 10.37 17.89L8.17002 20.05C8.04134 20.1866 7.8865 20.296 7.71471 20.3716C7.54292 20.4472 7.35769 20.4874 7.17002 20.49H7.15002C6.70338 20.455 6.28612 20.2538 5.98063 19.9261C5.67515 19.5983 5.50365 19.168 5.50002 18.72V5.27002C5.50002 4.80058 5.6865 4.35038 6.01844 4.01844C6.35038 3.6865 6.80059 3.50002 7.27002 3.50002H16.13ZM16.13 2.00002H7.27002C6.84023 1.99869 6.41441 2.08237 6.01708 2.24624C5.61975 2.41011 5.25875 2.65092 4.95484 2.95483C4.65092 3.25874 4.41011 3.61975 4.24624 4.01708C4.08238 4.41441 3.9987 4.84022 4.00002 5.27002V18.72C3.99721 19.5425 4.30442 20.3358 4.86042 20.9418C5.41642 21.5478 6.18038 21.9221 7.00002 21.99H7.17002C7.9252 21.9745 8.64381 21.6619 9.17002 21.12L11.41 19C11.5051 18.9112 11.6299 18.8613 11.76 18.86C11.8952 18.8603 12.0246 18.9143 12.12 19.01L14.17 21.12C14.4264 21.3974 14.7351 21.6215 15.0783 21.7794C15.4215 21.9373 15.7925 22.0258 16.17 22.04H16.36C17.1788 21.9699 17.9414 21.5949 18.497 20.9894C19.0525 20.3838 19.3605 19.5918 19.36 18.77V5.27002C19.3627 4.40885 19.0245 3.58161 18.4193 2.96894C17.8142 2.35627 16.9912 2.00794 16.13 2.00002V2.00002Z" fill="black"/>
</svg>
