<svg width="24" height="24" viewBox="0 0 24 24" fill="none" xmlns="http://www.w3.org/2000/svg">
<path fill-rule="evenodd" clip-rule="evenodd" d="M15.2602 18.0899H8.74023C8.1435 18.0899 7.5712 17.8529 7.14924 17.4309C6.72729 17.0089 6.49023 16.4366 6.49023 15.8399V8.15991C6.49023 7.56317 6.72729 6.99088 7.14924 6.56892C7.5712 6.14697 8.1435 5.90991 8.74023 5.90991H15.2602C15.857 5.90991 16.4293 6.14697 16.8512 6.56892C17.2732 6.99088 17.5102 7.56317 17.5102 8.15991V15.8399C17.5102 16.4366 17.2732 17.0089 16.8512 17.4309C16.4293 17.8529 15.857 18.0899 15.2602 18.0899ZM8.74023 7.40991C8.54387 7.41507 8.35714 7.49604 8.21918 7.63587C8.08122 7.77569 8.00275 7.9635 8.00023 8.15991V15.8399C8.00282 16.038 8.08267 16.2273 8.22277 16.3674C8.36286 16.5075 8.55213 16.5873 8.75023 16.5899H15.2702C15.4683 16.5873 15.6576 16.5075 15.7977 16.3674C15.9378 16.2273 16.0176 16.038 16.0202 15.8399V8.15991C16.0176 7.96181 15.9378 7.77254 15.7977 7.63245C15.6576 7.49235 15.4683 7.4125 15.2702 7.40991H8.74023ZM5.29 7.78002H3.79C3.34322 7.75264 2.90383 7.90362 2.56825 8.19984C2.23266 8.49605 2.0283 8.9133 2 9.36002V14.64C2.02833 15.0849 2.2313 15.5006 2.56469 15.7965C2.89808 16.0924 3.33489 16.2447 3.78 16.22H5.31C5.50891 16.22 5.69968 16.141 5.84033 16.0004C5.98098 15.8597 6.06 15.6689 6.06 15.47L6 8.53002C6.00027 8.33785 5.92677 8.15291 5.79466 8.01335C5.66254 7.87379 5.4819 7.79027 5.29 7.78002ZM18.6899 7.78002H20.2099C20.6567 7.75264 21.0961 7.90362 21.4317 8.19984C21.7673 8.49605 21.9716 8.9133 21.9999 9.36002V14.64C21.986 14.863 21.928 15.081 21.8292 15.2815C21.7305 15.4819 21.5929 15.6608 21.4246 15.8077C21.2563 15.9546 21.0605 16.0667 20.8486 16.1375C20.6366 16.2083 20.4128 16.2363 20.1899 16.22H18.6899C18.491 16.22 18.3003 16.141 18.1596 16.0004C18.019 15.8597 17.9399 15.6689 17.9399 15.47V8.53002C17.9399 8.33111 18.019 8.14035 18.1596 7.99969C18.3003 7.85904 18.491 7.78002 18.6899 7.78002Z" fill="black"/>
</svg>
