<svg width="24" height="24" viewBox="0 0 24 24" fill="none" xmlns="http://www.w3.org/2000/svg">
<path fill-rule="evenodd" clip-rule="evenodd" d="M5 5.12012H19C19.7956 5.12012 20.5587 5.43619 21.1213 5.9988C21.6839 6.56141 22 7.32447 22 8.12012V15.1201C22 15.9158 21.6839 16.6788 21.1213 17.2414C20.5587 17.804 19.7956 18.1201 19 18.1201H13.9C13.8336 18.5766 13.605 18.994 13.2561 19.2958C12.9072 19.5976 12.4613 19.7637 12 19.7637C11.5387 19.7637 11.0928 19.5976 10.7439 19.2958C10.395 18.994 10.1664 18.5766 10.1 18.1201H5C4.20435 18.1201 3.44129 17.804 2.87868 17.2414C2.31607 16.6788 2 15.9158 2 15.1201V8.12012C2 7.32447 2.31607 6.56141 2.87868 5.9988C3.44129 5.43619 4.20435 5.12012 5 5.12012ZM20.0607 16.1808C20.342 15.8995 20.5 15.5179 20.5 15.1201V8.12012C20.5 7.72229 20.342 7.34076 20.0607 7.05946C19.7794 6.77815 19.3978 6.62012 19 6.62012H5C4.60218 6.62012 4.22064 6.77815 3.93934 7.05946C3.65804 7.34076 3.5 7.72229 3.5 8.12012V15.1201C3.5 15.5179 3.65804 15.8995 3.93934 16.1808C4.22064 16.4621 4.60218 16.6201 5 16.6201H10.52C10.6999 16.395 10.9281 16.2133 11.1877 16.0884C11.4474 15.9635 11.7319 15.8986 12.02 15.8986C12.3081 15.8986 12.5926 15.9635 12.8523 16.0884C13.1119 16.2133 13.3401 16.395 13.52 16.6201H19C19.3978 16.6201 19.7794 16.4621 20.0607 16.1808ZM6.0001 10.7H18.0001C18.2388 10.7 18.4677 10.7948 18.6365 10.9636C18.8053 11.1323 18.9001 11.3613 18.9001 11.6C18.9001 11.8386 18.8053 12.0676 18.6365 12.2363C18.4677 12.4051 18.2388 12.5 18.0001 12.5H6.0001C5.7614 12.5 5.53248 12.4051 5.3637 12.2363C5.19492 12.0676 5.1001 11.8386 5.1001 11.6C5.1001 11.3613 5.19492 11.1323 5.3637 10.9636C5.53248 10.7948 5.7614 10.7 6.0001 10.7Z" fill="black"/>
</svg>
