<svg width="24" height="24" viewBox="0 0 24 24" fill="none" xmlns="http://www.w3.org/2000/svg">
<path fill-rule="evenodd" clip-rule="evenodd" d="M21.7099 3.63009C21.6431 3.31313 21.4856 3.02242 21.2566 2.79338C21.0275 2.56433 20.7368 2.40684 20.4199 2.34009C18.4924 1.91712 16.4951 1.92736 14.5721 2.37007C12.6491 2.81277 10.8483 3.67691 9.29987 4.90009C8.28003 4.66873 7.21828 4.69866 6.2131 4.9871C5.20791 5.27555 4.29185 5.81316 3.54987 6.55009L2.25987 7.84009C2.11942 7.98072 2.04053 8.17134 2.04053 8.37009C2.04053 8.56884 2.11942 8.75946 2.25987 8.90009L5.14987 11.7801C5.14987 11.8417 5.12173 11.8987 5.09114 11.9606C5.07707 11.989 5.06247 12.0186 5.04987 12.0501C4.66613 12.939 4.39729 13.8732 4.24987 14.8301C4.24018 14.9386 4.25491 15.0479 4.29298 15.15C4.33105 15.2521 4.39149 15.3444 4.46987 15.4201L8.63987 19.5901C8.78039 19.7308 8.97102 19.8099 9.16987 19.8101H9.22987C10.1838 19.6586 11.1146 19.3864 11.9999 19.0001L12.2599 18.9001L15.1399 21.7901C15.2805 21.9305 15.4711 22.0094 15.6699 22.0094C15.8686 22.0094 16.0592 21.9305 16.1999 21.7901L17.4899 20.5001C18.2276 19.7566 18.7657 18.8388 19.0541 17.8319C19.3426 16.8249 19.3721 15.7615 19.1399 14.7401C20.3633 13.1936 21.2284 11.395 21.6729 9.47378C22.1173 7.5526 22.1299 5.55675 21.7099 3.63009ZM20.0999 3.80009C20.137 3.80734 20.171 3.82549 20.1978 3.85221C20.2245 3.87893 20.2426 3.91301 20.2499 3.95009C20.671 5.89981 20.594 7.92422 20.0259 9.83631C19.4579 11.7484 18.4172 13.4865 16.9999 14.8901C15.8813 16.0115 14.548 16.8958 13.0799 17.4901C13.0522 17.505 13.0213 17.5128 12.9899 17.5128C12.9585 17.5128 12.9275 17.505 12.8999 17.4901L6.59987 11.1201C6.58215 11.0916 6.57276 11.0587 6.57276 11.0251C6.57276 10.9915 6.58215 10.9586 6.59987 10.9301C7.65366 8.34482 9.58427 6.21325 12.0529 4.90944C14.5216 3.60563 17.3705 3.21287 20.0999 3.80009ZM4.60987 7.61009C5.47051 6.75536 6.62716 6.26477 7.83987 6.24009C6.82687 7.32032 5.99908 8.56031 5.38987 9.91009L3.84987 8.37009L4.60987 7.61009ZM9.43987 18.2701L5.78987 14.6201C5.92366 14.0682 6.09745 13.5268 6.30987 13.0001L11.1099 17.8001C10.5656 17.9979 10.0074 18.155 9.43987 18.2701ZM16.4399 19.4501L15.6799 20.2101L14.1399 18.6701C15.4946 18.0655 16.7359 17.2335 17.8099 16.2101C17.7857 17.4258 17.2952 18.5858 16.4399 19.4501ZM14.9999 12.24C15.6376 12.2384 16.2606 12.0481 16.7903 11.6931C17.32 11.3381 17.7328 10.8342 17.9766 10.245C18.2204 9.65574 18.2844 9.00752 18.1604 8.382C18.0364 7.75648 17.7301 7.18166 17.2799 6.72997C16.6659 6.14315 15.8493 5.81567 14.9999 5.81567C14.1506 5.81567 13.334 6.14315 12.7199 6.72997C12.2698 7.18166 11.9634 7.75648 11.8395 8.382C11.7155 9.00752 11.7794 9.65574 12.0233 10.245C12.2671 10.8342 12.6799 11.3381 13.2096 11.6931C13.7393 12.0481 14.3623 12.2384 14.9999 12.24ZM13.8199 7.78997C14.0615 7.54709 14.3698 7.3814 14.7056 7.31389C15.0414 7.24639 15.3898 7.2801 15.7064 7.41077C16.0231 7.54143 16.2938 7.76316 16.4843 8.04786C16.6748 8.33256 16.7765 8.66741 16.7765 9.00997C16.7765 9.35252 16.6748 9.68737 16.4843 9.97207C16.2938 10.2568 16.0231 10.4785 15.7064 10.6092C15.3898 10.7398 15.0414 10.7735 14.7056 10.706C14.3698 10.6385 14.0615 10.4728 13.8199 10.23C13.4999 9.90453 13.3206 9.46639 13.3206 9.00997C13.3206 8.55355 13.4999 8.1154 13.8199 7.78997ZM4.47 18.5999C4.61052 18.4592 4.80115 18.3801 5 18.3799C5.17284 18.3992 5.33624 18.4687 5.47 18.5799C5.61 18.7268 5.6881 18.9219 5.6881 19.1249C5.6881 19.3278 5.61 19.523 5.47 19.6699L3.47 21.6699C3.33353 21.795 3.15512 21.8644 2.97 21.8644C2.78488 21.8644 2.60647 21.795 2.47 21.6699C2.32931 21.5294 2.25018 21.3387 2.25 21.1399C2.25179 20.9384 2.33049 20.7452 2.47 20.5999L4.47 18.5999Z" fill="black"/>
</svg>
