<svg width="24" height="24" viewBox="0 0 24 24" fill="none" xmlns="http://www.w3.org/2000/svg">
<path d="M20.54 13.85H19.73V12.85C19.73 12.4601 19.5752 12.0862 19.2995 11.8105C19.0238 11.5348 18.6499 11.38 18.26 11.38H12.68V10.15H13.39C13.7764 10.1473 14.1463 9.99267 14.4195 9.71943C14.6928 9.4462 14.8474 9.07636 14.85 8.68995V5.75995C14.8474 5.37447 14.6924 5.00568 14.4189 4.73404C14.1454 4.46239 13.7755 4.30994 13.39 4.30995H10.47C10.2779 4.3073 10.0872 4.34285 9.909 4.41453C9.73076 4.48622 9.56855 4.5926 9.43178 4.72751C9.29501 4.86242 9.18641 5.02316 9.11229 5.2004C9.03817 5.37764 9.00002 5.56784 9.00003 5.75995V8.68995C9.00003 9.07717 9.15385 9.44853 9.42766 9.72233C9.70146 9.99613 10.0728 10.15 10.46 10.15H11.17V11.37H5.74003C5.35017 11.37 4.97627 11.5248 4.70059 11.8005C4.42491 12.0762 4.27003 12.4501 4.27003 12.84V13.84H3.46003C3.26746 13.8399 3.07679 13.878 2.899 13.952C2.72121 14.026 2.55981 14.1345 2.42411 14.2711C2.2884 14.4077 2.18107 14.5699 2.10829 14.7482C2.03551 14.9265 1.99872 15.1174 2.00003 15.31V18.23C1.99872 18.4212 2.03525 18.6108 2.10753 18.7879C2.1798 18.965 2.2864 19.126 2.42118 19.2617C2.55595 19.3974 2.71625 19.5051 2.89282 19.5786C3.0694 19.6521 3.25877 19.69 3.45003 19.69H6.39003C6.5813 19.69 6.77067 19.6521 6.94724 19.5786C7.12382 19.5051 7.28411 19.3974 7.41889 19.2617C7.55367 19.126 7.66026 18.965 7.73254 18.7879C7.80482 18.6108 7.84135 18.4212 7.84003 18.23V15.31C7.84004 14.9245 7.6876 14.5546 7.41595 14.2811C7.14431 14.0076 6.77551 13.8526 6.39003 13.85H5.76003V12.85H11.2V13.85H10.49C10.2958 13.846 10.1027 13.8808 9.9221 13.9524C9.74149 14.0239 9.57698 14.1309 9.43821 14.2668C9.29944 14.4028 9.18921 14.5651 9.11397 14.7442C9.03873 14.9233 8.99999 15.1157 9.00003 15.31V18.23C9.00003 18.6172 9.15385 18.9885 9.42766 19.2623C9.70146 19.5361 10.0728 19.69 10.46 19.69H13.38C13.7673 19.69 14.1386 19.5361 14.4124 19.2623C14.6862 18.9885 14.84 18.6172 14.84 18.23V15.31C14.8374 14.9235 14.6828 14.5537 14.4095 14.2805C14.1363 14.0072 13.7664 13.8526 13.38 13.85H12.67V12.85H18.22V13.85H17.6C17.2146 13.8526 16.8458 14.0076 16.5741 14.2811C16.3025 14.5546 16.15 14.9245 16.15 15.31V18.23C16.1487 18.4212 16.1852 18.6108 16.2575 18.7879C16.3298 18.965 16.4364 19.126 16.5712 19.2617C16.706 19.3974 16.8662 19.5051 17.0428 19.5786C17.2194 19.6521 17.4088 19.69 17.6 19.69H20.53C20.723 19.6926 20.9145 19.6568 21.0934 19.5844C21.2723 19.5121 21.435 19.4049 21.5719 19.2689C21.7088 19.1329 21.8172 18.971 21.8907 18.7926C21.9642 18.6142 22.0014 18.4229 22 18.23V15.31C22 14.9227 21.8462 14.5514 21.5724 14.2776C21.2986 14.0038 20.9273 13.85 20.54 13.85V13.85ZM10.47 5.84995H13.35V8.64995H10.51L10.47 5.84995ZM6.34003 18.19H3.51003V15.31H6.39003L6.34003 18.19ZM13.34 18.19H10.5V15.31H13.38L13.34 18.19ZM20.48 18.19H17.65L17.6 15.31H20.48V18.19Z" fill="black"/>
</svg>
