<svg width="24" height="24" viewBox="0 0 24 24" fill="none" xmlns="http://www.w3.org/2000/svg">
<path fill-rule="evenodd" clip-rule="evenodd" d="M13.4798 22H2.77978C2.6766 22.0028 2.57394 21.9845 2.47806 21.9462C2.38218 21.908 2.2951 21.8507 2.22211 21.7777C2.14912 21.7047 2.09177 21.6176 2.05355 21.5217C2.01532 21.4258 1.99703 21.3232 1.99978 21.22V12C1.99978 9.34784 3.05335 6.8043 4.92871 4.92893C6.80408 3.05357 9.34762 2 11.9998 2C14.6519 2 17.1955 3.05357 19.0709 4.92893C20.9462 6.8043 21.9998 9.34784 21.9998 12C22.0022 14.3894 21.1609 16.7028 19.624 18.5324C18.0872 20.3619 15.9537 21.59 13.5998 22H13.4798ZM3.47978 20.5H13.3698C15.3678 20.1473 17.1777 19.102 18.4816 17.5475C19.7856 15.9931 20.5001 14.0289 20.4998 12C20.4998 9.74566 19.6042 7.58365 18.0102 5.98959C16.4161 4.39553 14.2541 3.5 11.9998 3.5C9.74544 3.5 7.58343 4.39553 5.98937 5.98959C4.39532 7.58365 3.49978 9.74566 3.49978 12L3.47978 20.5ZM15.9998 11.7399H7.48984C7.25115 11.7399 7.02223 11.6451 6.85345 11.4763C6.68466 11.3076 6.58984 11.0786 6.58984 10.8399C6.58984 10.6012 6.68466 10.3723 6.85345 10.2035C7.02223 10.0348 7.25115 9.93994 7.48984 9.93994H15.9998C16.2385 9.93994 16.4675 10.0348 16.6362 10.2035C16.805 10.3723 16.8998 10.6012 16.8998 10.8399C16.8998 11.0786 16.805 11.3076 16.6362 11.4763C16.4675 11.6451 16.2385 11.7399 15.9998 11.7399ZM7.49003 15.77H13.58C13.8036 15.7464 14.0106 15.6409 14.1611 15.4738C14.3115 15.3067 14.3948 15.0898 14.3948 14.865C14.3948 14.6401 14.3115 14.4232 14.1611 14.2561C14.0106 14.089 13.8036 13.9835 13.58 13.96H7.49003C7.26641 13.9835 7.05943 14.089 6.90898 14.2561C6.75854 14.4232 6.67529 14.6401 6.67529 14.865C6.67529 15.0898 6.75854 15.3067 6.90898 15.4738C7.05943 15.6409 7.26641 15.7464 7.49003 15.77Z" fill="black"/>
</svg>
