<svg width="24" height="24" viewBox="0 0 24 24" fill="none" xmlns="http://www.w3.org/2000/svg">
<path d="M19.07 4.93002C18.616 4.47781 18.1205 4.06934 17.59 3.71002C15.9405 2.59204 13.9927 1.99622 12 2.00002V2.00002C9.34784 2.00002 6.8043 3.05359 4.92893 4.92895C3.05357 6.80431 2 9.34785 2 12C2 14.6522 3.05357 17.1957 4.92893 19.0711C6.8043 20.9464 9.34784 22 12 22V22C13.9927 22.0038 15.9405 21.408 17.59 20.29C18.1205 19.9307 18.616 19.5222 19.07 19.07C20.9447 17.1947 21.9979 14.6517 21.9979 12C21.9979 9.34838 20.9447 6.8053 19.07 4.93002V4.93002ZM16 12.75H12.75V16C12.75 16.1989 12.671 16.3897 12.5303 16.5303C12.3897 16.671 12.1989 16.75 12 16.75C11.8011 16.75 11.6103 16.671 11.4697 16.5303C11.329 16.3897 11.25 16.1989 11.25 16V12.75H8C7.80109 12.75 7.61032 12.671 7.46967 12.5303C7.32902 12.3897 7.25 12.1989 7.25 12C7.25 11.8011 7.32902 11.6103 7.46967 11.4697C7.61032 11.329 7.80109 11.25 8 11.25H11.25V8.00002C11.25 7.80111 11.329 7.61034 11.4697 7.46969C11.6103 7.32904 11.8011 7.25002 12 7.25002C12.1989 7.25002 12.3897 7.32904 12.5303 7.46969C12.671 7.61034 12.75 7.80111 12.75 8.00002V11.25H16C16.1989 11.25 16.3897 11.329 16.5303 11.4697C16.671 11.6103 16.75 11.8011 16.75 12C16.75 12.1989 16.671 12.3897 16.5303 12.5303C16.3897 12.671 16.1989 12.75 16 12.75V12.75Z" fill="black"/>
</svg>
