<svg width="24" height="24" viewBox="0 0 24 24" fill="none" xmlns="http://www.w3.org/2000/svg">
<path d="M14.9687 3.13457C14.5754 2.9825 14.144 2.95865 13.7364 3.0664C13.3287 3.17416 12.9655 3.40802 12.6987 3.73457L7.77867 9.61457C7.27569 10.2142 7 10.9719 7 11.7546C7 12.5372 7.27569 13.2949 7.77867 13.8946L12.6987 19.7546C12.8879 19.9848 13.1262 20.1698 13.3961 20.2961C13.666 20.4224 13.9607 20.4868 14.2587 20.4846C14.8016 20.4819 15.3214 20.2651 15.7053 19.8812C16.0892 19.4974 16.306 18.9775 16.3087 18.4346V5.05457C16.3154 4.63433 16.1895 4.22265 15.949 3.87799C15.7084 3.53333 15.3654 3.27322 14.9687 3.13457V3.13457Z" fill="black"/>
</svg>
