<svg width="24" height="24" viewBox="0 0 24 24" fill="none" xmlns="http://www.w3.org/2000/svg">
<path d="M12 2C10.0222 2 8.08879 2.58649 6.4443 3.6853C4.79981 4.78412 3.51809 6.3459 2.76121 8.17317C2.00433 10.0004 1.8063 12.0111 2.19215 13.9509C2.578 15.8907 3.53041 17.6725 4.92894 19.0711C6.32746 20.4696 8.10929 21.422 10.0491 21.8079C11.9889 22.1937 13.9996 21.9957 15.8268 21.2388C17.6541 20.4819 19.2159 19.2002 20.3147 17.5557C21.4135 15.9112 22 13.9778 22 12C22 10.6868 21.7413 9.38642 21.2388 8.17317C20.7363 6.95991 19.9997 5.85752 19.0711 4.92893C18.1425 4.00035 17.0401 3.26375 15.8268 2.7612C14.6136 2.25866 13.3132 2 12 2V2ZM12.84 16.32C12.7285 16.4344 12.5945 16.5246 12.4466 16.5848C12.2986 16.645 12.1397 16.674 11.98 16.67C11.8205 16.6723 11.6622 16.6425 11.5145 16.5823C11.3667 16.5222 11.2326 16.433 11.12 16.32C10.9021 16.0867 10.7809 15.7793 10.7809 15.46C10.7809 15.1407 10.9021 14.8333 11.12 14.6C11.3498 14.3752 11.6585 14.2494 11.98 14.2494C12.3015 14.2494 12.6102 14.3752 12.84 14.6C13.0648 14.8298 13.1906 15.1385 13.1906 15.46C13.1906 15.7815 13.0648 16.0902 12.84 16.32V16.32ZM13.21 8.62L12.8 13C12.7829 13.2117 12.6907 13.4103 12.54 13.56C12.3925 13.6949 12.1999 13.7697 12 13.7697C11.8001 13.7697 11.6075 13.6949 11.46 13.56C11.3093 13.4103 11.2171 13.2117 11.2 13L10.78 8.5C10.7651 8.33572 10.7911 8.17031 10.8557 8.01851C10.9203 7.86672 11.0214 7.73325 11.15 7.63C11.3904 7.43514 11.6905 7.32881 12 7.32881C12.3095 7.32881 12.6096 7.43514 12.85 7.63C12.9728 7.72929 13.0704 7.85628 13.1347 8.00054C13.199 8.14481 13.2283 8.30226 13.22 8.46L13.21 8.62Z" fill="black"/>
</svg>
