<svg width="25" height="24" viewBox="0 0 25 24" fill="none" xmlns="http://www.w3.org/2000/svg">
<path fill-rule="evenodd" clip-rule="evenodd" d="M20.9458 2.19063C21.2401 2.48214 21.2423 2.95701 20.9508 3.25128L4.94395 19.4095C4.65244 19.7037 4.17757 19.706 3.8833 19.4144C3.58904 19.1229 3.5868 18.6481 3.87831 18.3538L19.8851 2.19562C20.1767 1.90135 20.6515 1.89912 20.9458 2.19063Z" fill="#454545"/>
<path fill-rule="evenodd" clip-rule="evenodd" d="M16.3274 3.821C16.2783 3.76779 16.228 3.71545 16.1766 3.66405C15.1602 2.6476 13.7816 2.07657 12.3441 2.07657C10.9066 2.07657 9.52801 2.6476 8.51156 3.66405C7.49512 4.6805 6.92408 6.0591 6.92408 7.49657V11.2066C6.92299 11.7974 7.01852 12.3836 7.20612 12.9422L16.3274 3.821ZM7.92081 14.3488L17.1936 5.07611C17.4148 5.51927 17.5747 5.99174 17.668 6.4804L8.81669 15.3317C8.7103 15.2405 8.60732 15.145 8.50802 15.0456C8.29257 14.8297 8.09623 14.5966 7.92081 14.3488ZM5.9045 14.2438C5.83468 14.1935 5.75598 14.1554 5.67157 14.1317C5.48447 14.0793 5.28427 14.1026 5.1142 14.1966C4.94753 14.2949 4.82532 14.4539 4.77314 14.6403C4.72096 14.8266 4.74284 15.026 4.8342 15.1966C4.84862 15.2213 4.86315 15.246 4.8778 15.2705L5.9045 14.2438ZM5.7666 16.503L6.80484 15.4648C7.08842 15.8061 7.40281 16.1206 7.744 16.4043L6.70845 17.4399C6.37103 17.1519 6.05618 16.8386 5.7666 16.503ZM7.94687 18.3228C9.06566 18.9815 10.3184 19.383 11.6142 19.4966V21.2766C11.6142 21.4755 11.6932 21.6663 11.8339 21.8069C11.9745 21.9476 12.1653 22.0266 12.3642 22.0266C12.5631 22.0266 12.7539 21.9476 12.8945 21.8069C13.0352 21.6663 13.1142 21.4755 13.1142 21.2766V19.5466C14.5059 19.4246 15.8481 18.9705 17.0278 18.2222C18.2076 17.474 19.1906 16.4535 19.8942 15.2466C19.9433 15.1595 19.9745 15.0635 19.986 14.9643C19.9974 14.865 19.989 14.7644 19.961 14.6684C19.9331 14.5725 19.8862 14.4831 19.8232 14.4055C19.7602 14.3279 19.6824 14.2637 19.5942 14.2166C19.4241 14.1226 19.2239 14.0993 19.0368 14.1517C18.8497 14.2041 18.6908 14.328 18.5942 14.4966C17.9641 15.5723 17.0668 16.4671 15.9894 17.0943C14.9119 17.7215 13.6908 18.0599 12.4442 18.0766H12.3442H12.2442C11.1174 18.0565 10.0126 17.7737 9.01692 17.2527L7.94687 18.3228ZM10.1134 16.1563C10.1644 16.1793 10.2158 16.2016 10.2676 16.223C10.9259 16.496 11.6315 16.6366 12.3441 16.6366C13.0567 16.6366 13.7623 16.496 14.4205 16.223C15.0788 15.95 15.6767 15.5499 16.1801 15.0456C16.6836 14.5412 17.0826 13.9425 17.3544 13.2838C17.6262 12.625 17.7654 11.9192 17.7641 11.2066V8.50562L10.1134 16.1563Z" fill="#454545"/>
</svg>
