<svg width="24" height="24" viewBox="0 0 24 24" fill="none" xmlns="http://www.w3.org/2000/svg">
<path fill-rule="evenodd" clip-rule="evenodd" d="M14.0765 16.1465C13.4183 16.4195 12.7127 16.56 12.0001 16.56C11.2875 16.56 10.5819 16.4195 9.92363 16.1465C9.26539 15.8735 8.66745 15.4733 8.16403 14.969C7.6606 14.4646 7.26158 13.866 6.98979 13.2072C6.71799 12.5485 6.57877 11.8426 6.58009 11.13V7.42C6.58009 5.98253 7.15112 4.60393 8.16757 3.58748C9.18402 2.57103 10.5626 2 12.0001 2C13.4376 2 14.8162 2.57103 15.8326 3.58748C16.8491 4.60393 17.4201 5.98253 17.4201 7.42V11.13C17.4214 11.8426 17.2822 12.5485 17.0104 13.2072C16.7386 13.866 16.3396 14.4646 15.8361 14.969C15.3327 15.4733 14.7348 15.8735 14.0765 16.1465ZM18.6936 14.0789C18.8799 14.0268 19.0793 14.0486 19.2499 14.14C19.338 14.1871 19.4159 14.2513 19.4789 14.3289C19.5419 14.4065 19.5887 14.4959 19.6167 14.5919C19.6446 14.6878 19.6531 14.7884 19.6416 14.8877C19.6302 14.987 19.599 15.0829 19.5499 15.17C18.8463 16.3769 17.8633 17.3974 16.6835 18.1456C15.5037 18.8939 14.1616 19.3481 12.7699 19.47V21.2C12.7699 21.3989 12.6909 21.5897 12.5502 21.7303C12.4096 21.871 12.2188 21.95 12.0199 21.95C11.821 21.95 11.6302 21.871 11.4895 21.7303C11.3489 21.5897 11.2699 21.3989 11.2699 21.2V19.42C9.87815 19.2981 8.53602 18.8439 7.35624 18.0956C6.17645 17.3474 5.19347 16.3269 4.48987 15.12C4.40099 14.9489 4.38046 14.7504 4.43245 14.5647C4.48443 14.379 4.60506 14.2201 4.76987 14.12C4.94048 14.0286 5.13981 14.0068 5.32617 14.0589C5.51254 14.1111 5.67152 14.2333 5.76987 14.4C6.39577 15.4766 7.28878 16.3735 8.3626 17.0042C9.43643 17.6348 10.6548 17.9778 11.8999 18C11.933 17.9942 11.9668 17.9942 11.9999 18C12.0364 17.9955 12.0733 17.9955 12.1099 18C13.3548 17.9816 14.5739 17.6424 15.6494 17.0153C16.725 16.3882 17.6206 15.4943 18.2499 14.42C18.3482 14.2533 18.5072 14.1311 18.6936 14.0789Z" fill="black"/>
</svg>
