<svg width="24" height="24" viewBox="0 0 24 24" fill="none" xmlns="http://www.w3.org/2000/svg">
<path fill-rule="evenodd" clip-rule="evenodd" d="M20.2621 21.0823H3.73779V10.6327C3.73779 9.39005 4.74515 8.38269 5.98779 8.38269H18.0121C19.2547 8.38269 20.2621 9.39005 20.2621 10.6327V21.0823ZM21.0121 22.48H21.012V22.4823H2.98779V22.48C2.57358 22.48 2.23779 22.1442 2.23779 21.73V10.6327V5.63745C2.23779 3.56638 3.91673 1.88745 5.98779 1.88745H18.0121C20.0831 1.88745 21.7621 3.56638 21.7621 5.63745V10.6327V21.73C21.7621 22.1442 21.4263 22.48 21.0121 22.48ZM9.77271 9.96968C9.77271 9.75977 9.94287 9.5896 10.1528 9.5896H13.847C14.0569 9.5896 14.2271 9.75977 14.2271 9.96968C14.2271 10.1796 14.0569 10.3498 13.847 10.3498H10.1528C9.94287 10.3498 9.77271 10.1796 9.77271 9.96968ZM6.97095 18.1918C6.97095 17.4574 7.56631 16.8621 8.30072 16.8621H15.699C16.4335 16.8621 17.0288 17.4574 17.0288 18.1918C17.0288 18.9262 16.4335 19.5216 15.699 19.5216H8.30072C7.56631 19.5216 6.97095 18.9262 6.97095 18.1918Z" fill="#454545"/>
</svg>
