<svg width="24" height="24" viewBox="0 0 24 24" fill="none" xmlns="http://www.w3.org/2000/svg">
<path d="M15.81 6.16006H8.19C7.39952 6.13474 6.61183 6.26596 5.87224 6.54616C5.13265 6.82636 4.45575 7.25001 3.88048 7.79275C3.30521 8.3355 2.84292 8.98662 2.5202 9.70866C2.19747 10.4307 2.02069 11.2094 2 12.0001C2.02069 12.7907 2.19747 13.5694 2.5202 14.2915C2.84292 15.0135 3.30521 15.6646 3.88048 16.2074C4.45575 16.7501 5.13265 17.1738 5.87224 17.454C6.61183 17.7342 7.39952 17.8654 8.19 17.8401H15.81C16.6005 17.8654 17.3882 17.7342 18.1278 17.454C18.8674 17.1738 19.5442 16.7501 20.1195 16.2074C20.6948 15.6646 21.1571 15.0135 21.4798 14.2915C21.8025 13.5694 21.9793 12.7907 22 12.0001C21.9793 11.2094 21.8025 10.4307 21.4798 9.70866C21.1571 8.98662 20.6948 8.3355 20.1195 7.79275C19.5442 7.25001 18.8674 6.82636 18.1278 6.54616C17.3882 6.26596 16.6005 6.13474 15.81 6.16006V6.16006ZM10.13 14.9101C9.73381 14.9522 9.33701 14.8361 9.02607 14.587C8.71513 14.3378 8.51526 13.9759 8.47 13.5801V12.7501C8.40561 12.6955 8.33059 12.6548 8.24969 12.6307C8.16879 12.6066 8.08376 12.5996 8 12.6101C7.83822 12.6101 7.68306 12.5458 7.56867 12.4314C7.45427 12.317 7.39 12.1618 7.39 12.0001C7.39 11.8383 7.45427 11.6831 7.56867 11.5687C7.68306 11.4543 7.83822 11.3901 8 11.3901C8.15935 11.4028 8.31734 11.3526 8.44 11.2501V10.4201C8.48526 10.0242 8.68513 9.66229 8.99607 9.41316C9.30701 9.16404 9.70381 9.0479 10.1 9.09006C10.2618 9.09006 10.4169 9.15433 10.5313 9.26872C10.6457 9.38312 10.71 9.53827 10.71 9.70006C10.71 9.86184 10.6457 10.017 10.5313 10.1314C10.4169 10.2458 10.2618 10.3101 10.1 10.3101C9.94126 10.3022 9.78503 10.3519 9.66 10.4501V11.2801C9.6573 11.5426 9.56564 11.7964 9.4 12.0001C9.56564 12.2037 9.6573 12.4576 9.66 12.7201V13.5501C9.78503 13.6482 9.94126 13.6979 10.1 13.6901C10.2618 13.6901 10.4169 13.7543 10.5313 13.8687C10.6457 13.9831 10.71 14.1383 10.71 14.3001C10.7102 14.4568 10.6501 14.6076 10.5421 14.7211C10.4341 14.8347 10.2865 14.9023 10.13 14.9101V14.9101ZM13 11.7301L12.71 12.0001C12.6245 12.0636 12.5443 12.1338 12.47 12.2101C12.4321 12.2532 12.4047 12.3045 12.39 12.3601C12.3763 12.4552 12.3261 12.5413 12.25 12.6001C12.1887 12.6348 12.1203 12.6553 12.05 12.6601C12.1929 12.6696 12.3277 12.7299 12.43 12.8301C12.4886 12.885 12.5349 12.9517 12.566 13.0258C12.597 13.0999 12.612 13.1797 12.61 13.2601C12.6114 13.3403 12.5961 13.4199 12.5651 13.4939C12.5341 13.568 12.4881 13.6347 12.43 13.6901C12.3731 13.7454 12.3058 13.789 12.232 13.8181C12.1582 13.8473 12.0794 13.8616 12 13.8601C11.9221 13.8619 11.8446 13.8478 11.7724 13.8186C11.7001 13.7893 11.6347 13.7456 11.58 13.6901C11.5219 13.6347 11.4759 13.568 11.4449 13.4939C11.4139 13.4199 11.3986 13.3403 11.4 13.2601C11.3969 13.1128 11.45 12.9699 11.5484 12.8603C11.6468 12.7507 11.7833 12.6827 11.93 12.6701C11.8408 12.661 11.7585 12.618 11.7 12.5501C11.6273 12.4638 11.5914 12.3525 11.6 12.2401C11.5928 12.0838 11.6273 11.9285 11.7 11.7901C11.7797 11.6658 11.87 11.5487 11.97 11.4401C12.0275 11.383 12.0779 11.3192 12.12 11.2501C12.1345 11.2079 12.1345 11.1622 12.12 11.1201C12.1253 11.1092 12.1281 11.0972 12.1281 11.0851C12.1281 11.0729 12.1253 11.061 12.12 11.0501C12.0723 11.0247 12.0191 11.0114 11.965 11.0114C11.9109 11.0114 11.8577 11.0247 11.81 11.0501C11.7296 11.0782 11.6524 11.1151 11.58 11.1601L11.45 11.2201C11.16 11.3801 10.96 11.3501 10.82 11.1701C10.7398 11.0792 10.6969 10.9613 10.7 10.8401C10.6968 10.7591 10.7177 10.6791 10.76 10.6101C10.7924 10.5373 10.8443 10.475 10.91 10.4301C11.0726 10.3087 11.2554 10.2173 11.45 10.1601C11.847 10.0139 12.283 10.0139 12.68 10.1601C12.8572 10.2367 13.0121 10.3572 13.13 10.5101C13.2403 10.6572 13.3 10.8361 13.3 11.0201C13.3001 11.1584 13.2694 11.2951 13.21 11.4201C13.1557 11.5332 13.0849 11.6377 13 11.7301V11.7301ZM16 12.6101C15.8407 12.5973 15.6827 12.6475 15.56 12.7501V13.5801C15.5147 13.9759 15.3149 14.3378 15.0039 14.587C14.693 14.8361 14.2962 14.9522 13.9 14.9101C13.7382 14.9101 13.5831 14.8458 13.4687 14.7314C13.3543 14.617 13.29 14.4618 13.29 14.3001C13.29 14.1383 13.3543 13.9831 13.4687 13.8687C13.5831 13.7543 13.7382 13.6901 13.9 13.6901C14.0587 13.6979 14.215 13.6482 14.34 13.5501V12.7201C14.3427 12.4576 14.4344 12.2037 14.6 12.0001C14.4344 11.7964 14.3427 11.5426 14.34 11.2801V10.4501C14.215 10.3519 14.0587 10.3022 13.9 10.3101C13.7382 10.3101 13.5831 10.2458 13.4687 10.1314C13.3543 10.017 13.29 9.86184 13.29 9.70006C13.29 9.53827 13.3543 9.38312 13.4687 9.26872C13.5831 9.15433 13.7382 9.09006 13.9 9.09006C14.2962 9.0479 14.693 9.16404 15.0039 9.41316C15.3149 9.66229 15.5147 10.0242 15.56 10.4201V11.2501C15.6827 11.3526 15.8407 11.4028 16 11.3901C16.1618 11.3901 16.3169 11.4543 16.4313 11.5687C16.5457 11.6831 16.61 11.8383 16.61 12.0001C16.61 12.1618 16.5457 12.317 16.4313 12.4314C16.3169 12.5458 16.1618 12.6101 16 12.6101V12.6101Z" fill="black"/>
</svg>
