<svg width="24" height="24" viewBox="0 0 24 24" fill="none" xmlns="http://www.w3.org/2000/svg">
<path d="M15.81 6.16006H8.19C7.39952 6.13474 6.61183 6.26596 5.87224 6.54616C5.13265 6.82636 4.45575 7.25001 3.88048 7.79275C3.30521 8.3355 2.84292 8.98662 2.5202 9.70866C2.19747 10.4307 2.02069 11.2094 2 12.0001C2.02069 12.7907 2.19747 13.5694 2.5202 14.2915C2.84292 15.0135 3.30521 15.6646 3.88048 16.2074C4.45575 16.7501 5.13265 17.1738 5.87224 17.454C6.61183 17.7342 7.39952 17.8654 8.19 17.8401H15.81C16.6005 17.8654 17.3882 17.7342 18.1278 17.454C18.8674 17.1738 19.5442 16.7501 20.1195 16.2074C20.6948 15.6646 21.1571 15.0135 21.4798 14.2915C21.8025 13.5694 21.9793 12.7907 22 12.0001C21.9793 11.2094 21.8025 10.4307 21.4798 9.70866C21.1571 8.98662 20.6948 8.3355 20.1195 7.79275C19.5442 7.25001 18.8674 6.82636 18.1278 6.54616C17.3882 6.26596 16.6005 6.13474 15.81 6.16006V6.16006ZM6.6 12.5901H5.72C5.56352 12.5901 5.41345 12.5279 5.30281 12.4173C5.19216 12.3066 5.13 12.1565 5.13 12.0001C5.13 11.8436 5.19216 11.6935 5.30281 11.5829C5.41345 11.4722 5.56352 11.4101 5.72 11.4101H6.6C6.75648 11.4101 6.90655 11.4722 7.01719 11.5829C7.12784 11.6935 7.19 11.8436 7.19 12.0001C7.19 12.1565 7.12784 12.3066 7.01719 12.4173C6.90655 12.5279 6.75648 12.5901 6.6 12.5901V12.5901ZM9.84 12.5901H8.22C8.06352 12.5901 7.91345 12.5279 7.80281 12.4173C7.69216 12.3066 7.63 12.1565 7.63 12.0001C7.63 11.8436 7.69216 11.6935 7.80281 11.5829C7.91345 11.4722 8.06352 11.4101 8.22 11.4101H9.84C9.99648 11.4101 10.1465 11.4722 10.2572 11.5829C10.3678 11.6935 10.43 11.8436 10.43 12.0001C10.43 12.1565 10.3678 12.3066 10.2572 12.4173C10.1465 12.5279 9.99648 12.5901 9.84 12.5901V12.5901ZM12.34 12.5901H11.46C11.3035 12.5901 11.1535 12.5279 11.0428 12.4173C10.9322 12.3066 10.87 12.1565 10.87 12.0001C10.87 11.8436 10.9322 11.6935 11.0428 11.5829C11.1535 11.4722 11.3035 11.4101 11.46 11.4101H12.34C12.4965 11.4101 12.6465 11.4722 12.7572 11.5829C12.8678 11.6935 12.93 11.8436 12.93 12.0001C12.93 12.1565 12.8678 12.3066 12.7572 12.4173C12.6465 12.5279 12.4965 12.5901 12.34 12.5901V12.5901ZM18.45 13.0601C18.5437 13.153 18.6181 13.2636 18.6689 13.3855C18.7197 13.5073 18.7458 13.638 18.7458 13.7701C18.7458 13.9021 18.7197 14.0328 18.6689 14.1546C18.6181 14.2765 18.5437 14.3871 18.45 14.4801C18.3566 14.5727 18.2457 14.6461 18.1239 14.6958C18.0021 14.7456 17.8716 14.7708 17.74 14.7701C17.6084 14.7708 17.4779 14.7456 17.3561 14.6958C17.2343 14.6461 17.1234 14.5727 17.03 14.4801L16 13.4101L14.94 14.4801C14.7517 14.667 14.4968 14.7716 14.2315 14.7706C13.9661 14.7697 13.712 14.6634 13.525 14.4751C13.338 14.2868 13.2335 14.0319 13.2344 13.7665C13.2354 13.5012 13.3417 13.247 13.53 13.0601L14.56 12.0001L13.5 10.9401C13.4063 10.8471 13.3319 10.7365 13.2811 10.6146C13.2303 10.4928 13.2042 10.3621 13.2042 10.2301C13.2042 10.098 13.2303 9.96734 13.2811 9.84548C13.3319 9.72362 13.4063 9.61302 13.5 9.52006C13.6874 9.33381 13.9408 9.22926 14.205 9.22926C14.4692 9.22926 14.7226 9.33381 14.91 9.52006L16 10.5901L17 9.52006C17.1883 9.33175 17.4437 9.22597 17.71 9.22597C17.9763 9.22597 18.2317 9.33175 18.42 9.52006C18.6083 9.70836 18.7141 9.96376 18.7141 10.2301C18.7141 10.4964 18.6083 10.7518 18.42 10.9401L17.39 12.0001L18.45 13.0601Z" fill="black"/>
</svg>
