<svg width="24" height="24" viewBox="0 0 24 24" fill="none" xmlns="http://www.w3.org/2000/svg">
<path fill-rule="evenodd" clip-rule="evenodd" d="M4.58008 2H8.75008C9.99272 2 11.0001 3.00736 11.0001 4.25V6.42C11.0001 7.66264 9.99272 8.67 8.75008 8.67H4.58008C3.33744 8.67 2.33008 7.66264 2.33008 6.42V4.25C2.33008 3.00736 3.33744 2 4.58008 2Z" fill="#454545"/>
<path fill-rule="evenodd" clip-rule="evenodd" d="M15.9201 2H19.4201C20.6627 2 21.6701 3.00736 21.6701 4.25V11.08C21.6701 12.3226 20.6627 13.33 19.4201 13.33H15.9201C15.3225 13.3327 14.7487 13.0965 14.3261 12.6739C13.9036 12.2514 13.6674 11.6776 13.6701 11.08V4.25C13.6701 3.00736 14.6774 2 15.9201 2Z" fill="#454545"/>
<path fill-rule="evenodd" clip-rule="evenodd" d="M15.9201 16H19.4201C20.6627 16 21.6701 17.0074 21.6701 18.25V19.75C21.6701 20.9926 20.6627 22 19.4201 22H15.9201C14.6774 22 13.6701 20.9926 13.6701 19.75V18.25C13.6701 17.0074 14.6774 16 15.9201 16Z" fill="#454545"/>
<path fill-rule="evenodd" clip-rule="evenodd" d="M4.58008 11.33H8.75008C9.99272 11.33 11.0001 12.3374 11.0001 13.58V19.75C11.0001 20.9926 9.99272 22 8.75008 22H4.58008C3.33744 22 2.33008 20.9926 2.33008 19.75V13.58C2.33008 12.3374 3.33744 11.33 4.58008 11.33Z" fill="#454545"/>
</svg>
