<svg width="24" height="24" viewBox="0 0 24 24" fill="none" xmlns="http://www.w3.org/2000/svg">
<path d="M12 2C10.0222 2 8.08879 2.58649 6.4443 3.6853C4.79981 4.78412 3.51809 6.3459 2.76121 8.17317C2.00433 10.0004 1.8063 12.0111 2.19215 13.9509C2.578 15.8907 3.53041 17.6725 4.92894 19.0711C6.32746 20.4696 8.10929 21.422 10.0491 21.8079C11.9889 22.1937 13.9996 21.9957 15.8268 21.2388C17.6541 20.4819 19.2159 19.2002 20.3147 17.5557C21.4135 15.9112 22 13.9778 22 12C22 9.34784 20.9464 6.8043 19.0711 4.92893C17.1957 3.05357 14.6522 2 12 2V2ZM16.52 10L11.19 15.11C11.0492 15.2429 10.8636 15.3179 10.67 15.32C10.5738 15.321 10.4783 15.303 10.389 15.2669C10.2998 15.2309 10.2186 15.1776 10.15 15.11L7.48 12.54C7.38576 12.4818 7.30557 12.4035 7.24519 12.3107C7.18481 12.2178 7.14575 12.1128 7.13079 12.003C7.11584 11.8933 7.12538 11.7816 7.15871 11.676C7.19205 11.5704 7.24836 11.4735 7.32361 11.3922C7.39885 11.311 7.49115 11.2474 7.59389 11.206C7.69663 11.1647 7.80725 11.1466 7.91781 11.1531C8.02837 11.1595 8.13612 11.1904 8.23332 11.2435C8.33052 11.2966 8.41477 11.3705 8.48 11.46L10.63 13.53L15.44 8.89C15.5879 8.7987 15.763 8.76162 15.9352 8.78509C16.1074 8.80856 16.2662 8.89112 16.3842 9.01866C16.5023 9.14621 16.5725 9.31081 16.5826 9.48434C16.5928 9.65786 16.5424 9.82953 16.44 9.97L16.52 10Z" fill="black"/>
</svg>
