<svg width="24" height="24" viewBox="0 0 24 24" fill="none" xmlns="http://www.w3.org/2000/svg">
<path fill-rule="evenodd" clip-rule="evenodd" d="M8.07 2.00015H19.07C19.4665 1.99618 19.8598 2.07086 20.2273 2.21984C20.5947 2.36883 20.929 2.58918 21.2107 2.86815C21.4925 3.14712 21.7162 3.47918 21.8688 3.84513C22.0214 4.21107 22.1 4.60365 22.1 5.00015V19.0402C22.1 19.8358 21.7839 20.5989 21.2213 21.1615C20.6587 21.7241 19.8956 22.0402 19.1 22.0402H8.1C7.34264 22.0424 6.61247 21.7581 6.05603 21.2443C5.49958 20.7305 5.15806 20.0253 5.1 19.2702H2.9C2.66131 19.2702 2.43239 19.1753 2.2636 19.0065C2.09482 18.8378 2 18.6088 2 18.3702C2 18.1315 2.09482 17.9025 2.2636 17.7338C2.43239 17.565 2.66131 17.4701 2.9 17.4701H5.07V12.9001H2.9C2.66131 12.9001 2.43239 12.8053 2.2636 12.6365C2.09482 12.4678 2 12.2388 2 12.0001C2 11.7615 2.09482 11.5325 2.2636 11.3638C2.43239 11.195 2.66131 11.1002 2.9 11.1002H5.07V6.53015H2.9C2.66131 6.53015 2.43239 6.43533 2.2636 6.26655C2.09482 6.09776 2 5.86884 2 5.63015C2 5.39146 2.09482 5.16254 2.2636 4.99375C2.43239 4.82497 2.66131 4.73015 2.9 4.73015H5.01L5.07 4.75015C5.13284 3.9986 5.47645 3.29828 6.03239 2.78867C6.58834 2.27905 7.31583 1.99753 8.07 2.00015ZM19 5H8V19H19V5ZM8 4C7.44772 4 7 4.44772 7 5V19C7 19.5523 7.44772 20 8 20H19C19.5523 20 20 19.5523 20 19V5C20 4.44772 19.5523 4 19 4H8ZM14.8141 10.8627C14.4457 11.1089 14.0126 11.2403 13.5696 11.2403C12.9755 11.2403 12.4058 11.0043 11.9857 10.5842C11.5656 10.1641 11.3296 9.59434 11.3296 9.00025C11.3296 8.55722 11.461 8.12414 11.7071 7.75578C11.9532 7.38741 12.3031 7.10031 12.7124 6.93077C13.1217 6.76122 13.5721 6.71687 14.0066 6.8033C14.4411 6.88973 14.8402 7.10307 15.1535 7.41634C15.4668 7.72961 15.6801 8.12874 15.7665 8.56325C15.853 8.99777 15.8086 9.44816 15.6391 9.85747C15.4695 10.2668 15.1824 10.6166 14.8141 10.8627ZM13.2096 12.0701H13.9296C14.8765 12.0701 15.7845 12.4462 16.454 13.1157C17.1235 13.7852 17.4996 14.6932 17.4996 15.6401C17.497 16.0928 17.316 16.5262 16.9959 16.8463C16.6758 17.1664 16.2424 17.3474 15.7896 17.3501H11.3596C10.9052 17.3501 10.4692 17.1702 10.1469 16.8498C9.82467 16.5294 9.64229 16.0945 9.63965 15.6401C9.63965 14.6932 10.0158 13.7852 10.6853 13.1157C11.3548 12.4462 12.2628 12.0701 13.2096 12.0701Z" fill="#292929"/>
</svg>