<svg width="24" height="24" viewBox="0 0 24 24" fill="none" xmlns="http://www.w3.org/2000/svg">
<path d="M12 2C10.0222 2 8.08879 2.58649 6.4443 3.6853C4.79981 4.78412 3.51809 6.3459 2.76121 8.17317C2.00433 10.0004 1.8063 12.0111 2.19215 13.9509C2.578 15.8907 3.53041 17.6725 4.92894 19.0711C6.32746 20.4696 8.10929 21.422 10.0491 21.8079C11.9889 22.1937 13.9996 21.9957 15.8268 21.2388C17.6541 20.4819 19.2159 19.2002 20.3147 17.5557C21.4135 15.9112 22 13.9778 22 12C22 10.6868 21.7413 9.38642 21.2388 8.17317C20.7363 6.95991 19.9997 5.85752 19.0711 4.92893C18.1425 4.00035 17.0401 3.26375 15.8268 2.7612C14.6136 2.25866 13.3132 2 12 2V2ZM7.7 7.44H16.3C16.7452 7.44439 17.1743 7.6075 17.51 7.9L13.84 11.61C13.3468 12.0919 12.6846 12.3617 11.995 12.3617C11.3054 12.3617 10.6432 12.0919 10.15 11.61L6.49 7.9C6.82571 7.6075 7.25477 7.44439 7.7 7.44V7.44ZM18.14 14.72C18.14 15.208 17.9461 15.676 17.6011 16.0211C17.256 16.3661 16.788 16.56 16.3 16.56H7.7C7.45672 16.5594 7.21609 16.5094 6.99265 16.4131C6.76921 16.3169 6.5676 16.1764 6.4 16C6.05481 15.6554 5.86058 15.1878 5.86 14.7V9.28C5.86 9.28 5.86 9.22 5.86 9.18L9.2 12.56C9.56637 12.9301 10.0025 13.2239 10.4831 13.4243C10.9637 13.6248 11.4793 13.7281 12 13.7281C12.5208 13.7281 13.0363 13.6248 13.5169 13.4243C13.9975 13.2239 14.4336 12.9301 14.8 12.56L18.13 9.19C18.13 9.19 18.13 9.25 18.13 9.28L18.14 14.72Z" fill="black"/>
</svg>
