<svg width="24" height="24" viewBox="0 0 24 24" fill="none" xmlns="http://www.w3.org/2000/svg">
<path fill-rule="evenodd" clip-rule="evenodd" d="M12 2C10.0222 2 8.08879 2.58649 6.4443 3.6853C4.79981 4.78412 3.51809 6.3459 2.76121 8.17317C2.00433 10.0004 1.8063 12.0111 2.19215 13.9509C2.578 15.8907 3.53041 17.6725 4.92894 19.0711C6.32746 20.4696 8.10929 21.422 10.0491 21.8079C11.9889 22.1937 13.9996 21.9957 15.8268 21.2388C17.6541 20.4819 19.2159 19.2002 20.3147 17.5557C21.4135 15.9112 22 13.9778 22 12C22 10.6868 21.7413 9.38642 21.2388 8.17317C20.7363 6.95991 19.9997 5.85752 19.0711 4.92893C18.1425 4.00035 17.0401 3.26375 15.8268 2.7612C14.6136 2.25866 13.3132 2 12 2ZM7.87158 9.1749C7.87158 9.4818 7.98917 9.77704 8.20016 9.9999C8.41682 10.2112 8.7075 10.3295 9.01016 10.3295C9.31283 10.3295 9.6035 10.2112 9.82016 9.9999C10.0312 9.77704 10.1487 9.4818 10.1487 9.1749C10.1487 8.868 10.0312 8.57277 9.82016 8.3499C9.6035 8.13856 9.31283 8.02026 9.01016 8.02026C8.7075 8.02026 8.41682 8.13856 8.20016 8.3499C7.98917 8.57277 7.87158 8.868 7.87158 9.1749ZM14.1801 9.9999C13.9691 9.77704 13.8516 9.4818 13.8516 9.1749C13.8516 8.868 13.9691 8.57277 14.1801 8.3499C14.3968 8.13856 14.6875 8.02026 14.9901 8.02026C15.2928 8.02026 15.5835 8.13856 15.8001 8.3499C16.0111 8.57277 16.1287 8.868 16.1287 9.1749C16.1287 9.4818 16.0111 9.77704 15.8001 9.9999C15.5835 10.2112 15.2928 10.3295 14.9901 10.3295C14.6875 10.3295 14.3968 10.2112 14.1801 9.9999ZM14.7488 13.5348C13.9513 13.0008 13.0133 12.7154 12.0535 12.7147C11.0853 12.7054 10.1363 12.9862 9.32901 13.5208C8.52167 14.0555 7.89285 14.8196 7.52354 15.7147C7.47955 15.806 7.45504 15.9054 7.45157 16.0066C7.44809 16.1079 7.46572 16.2087 7.50335 16.3028C7.54097 16.3968 7.59776 16.482 7.6701 16.553C7.74244 16.6239 7.82875 16.679 7.92354 16.7147C8.01524 16.7557 8.11425 16.7779 8.21469 16.7799C8.31512 16.7819 8.41494 16.7637 8.50821 16.7264C8.60148 16.6891 8.6863 16.6334 8.75765 16.5627C8.829 16.492 8.88541 16.4076 8.92354 16.3147C9.18116 15.704 9.61313 15.1829 10.1654 14.8165C10.7177 14.4501 11.3658 14.2546 12.0285 14.2546C12.6913 14.2546 13.3394 14.4501 13.8917 14.8165C14.4439 15.1829 14.8759 15.704 15.1335 16.3147C15.1717 16.4076 15.2281 16.492 15.2994 16.5627C15.3708 16.6334 15.4556 16.6891 15.5489 16.7264C15.6421 16.7637 15.742 16.7819 15.8424 16.7799C15.9428 16.7779 16.0418 16.7557 16.1335 16.7147C16.2274 16.6777 16.3127 16.622 16.3842 16.5508C16.4557 16.4797 16.5119 16.3947 16.5494 16.301C16.5868 16.2074 16.6047 16.1071 16.602 16.0062C16.5993 15.9054 16.576 15.8062 16.5335 15.7147C16.1674 14.8275 15.5463 14.0688 14.7488 13.5348Z" fill="#292929"/>
</svg>
