<svg width="24" height="24" viewBox="0 0 24 24" fill="none" xmlns="http://www.w3.org/2000/svg">
<path fill-rule="evenodd" clip-rule="evenodd" d="M12 22C17.5228 22 22 17.5228 22 12C22 6.47715 17.5228 2 12 2C6.47715 2 2 6.47715 2 12C2 17.5228 6.47715 22 12 22ZM7.87158 9.1749C7.87158 9.4818 7.98917 9.77704 8.20016 9.9999C8.41682 10.2112 8.7075 10.3295 9.01016 10.3295C9.31283 10.3295 9.6035 10.2112 9.82016 9.9999C10.0312 9.77704 10.1487 9.4818 10.1487 9.1749C10.1487 8.868 10.0312 8.57277 9.82016 8.3499C9.6035 8.13856 9.31283 8.02026 9.01016 8.02026C8.7075 8.02026 8.41682 8.13856 8.20016 8.3499C7.98917 8.57277 7.87158 8.868 7.87158 9.1749ZM14.1801 9.9999C13.9691 9.77704 13.8516 9.4818 13.8516 9.1749C13.8516 8.868 13.9691 8.57277 14.1801 8.3499C14.3968 8.13856 14.6875 8.02026 14.9901 8.02026C15.2928 8.02026 15.5835 8.13856 15.8001 8.3499C16.0111 8.57277 16.1287 8.868 16.1287 9.1749C16.1287 9.4818 16.0111 9.77704 15.8001 9.9999C15.5835 10.2112 15.2928 10.3295 14.9901 10.3295C14.6875 10.3295 14.3968 10.2112 14.1801 9.9999ZM7.9375 13.9934C7.52329 13.9934 7.1875 14.3292 7.1875 14.7434C7.1875 15.1576 7.52329 15.4934 7.9375 15.4934L16.0977 15.4934C16.5119 15.4934 16.8477 15.1576 16.8477 14.7434C16.8477 14.3292 16.5119 13.9934 16.0977 13.9934L7.9375 13.9934Z" fill="#292929"/>
</svg>
