<svg width="24" height="24" viewBox="0 0 24 24" fill="none" xmlns="http://www.w3.org/2000/svg">
<path fill-rule="evenodd" clip-rule="evenodd" d="M6.4443 3.6853C8.08879 2.58649 10.0222 2 12 2C13.3132 2 14.6136 2.25866 15.8268 2.7612C17.0401 3.26375 18.1425 4.00035 19.0711 4.92893C19.9997 5.85752 20.7363 6.95991 21.2388 8.17317C21.7413 9.38642 22 10.6868 22 12C22 13.9778 21.4135 15.9112 20.3147 17.5557C19.2159 19.2002 17.6541 20.4819 15.8268 21.2388C13.9996 21.9957 11.9889 22.1937 10.0491 21.8079C8.10929 21.422 6.32746 20.4696 4.92894 19.0711C3.53041 17.6725 2.578 15.8907 2.19215 13.9509C1.8063 12.0111 2.00433 10.0004 2.76121 8.17317C3.51809 6.3459 4.79981 4.78412 6.4443 3.6853ZM7.87158 9.1749C7.87158 9.4818 7.98917 9.77704 8.20016 9.9999C8.41682 10.2112 8.7075 10.3295 9.01016 10.3295C9.31283 10.3295 9.6035 10.2112 9.82016 9.9999C10.0312 9.77704 10.1487 9.4818 10.1487 9.1749C10.1487 8.868 10.0312 8.57277 9.82016 8.3499C9.6035 8.13856 9.31283 8.02026 9.01016 8.02026C8.7075 8.02026 8.41682 8.13856 8.20016 8.3499C7.98917 8.57277 7.87158 8.868 7.87158 9.1749ZM14.1801 9.9999C13.9691 9.77704 13.8516 9.4818 13.8516 9.1749C13.8516 8.868 13.9691 8.57277 14.1801 8.3499C14.3968 8.13856 14.6875 8.02026 14.9901 8.02026C15.2928 8.02026 15.5835 8.13856 15.8001 8.3499C16.0111 8.57277 16.1287 8.868 16.1287 9.1749C16.1287 9.4818 16.0111 9.77704 15.8001 9.9999C15.5835 10.2112 15.2928 10.3295 14.9901 10.3295C14.6875 10.3295 14.3968 10.2112 14.1801 9.9999ZM9.30464 15.9598C10.1021 16.4939 11.0401 16.7793 11.9999 16.7799C12.9682 16.7892 13.9171 16.5085 14.7245 15.9738C15.5318 15.4391 16.1606 14.6751 16.5299 13.7799C16.5739 13.6887 16.5984 13.5893 16.6019 13.488C16.6054 13.3868 16.5877 13.2859 16.5501 13.1918C16.5125 13.0978 16.4557 13.0126 16.3834 12.9417C16.311 12.8708 16.2247 12.8157 16.1299 12.7799C16.0382 12.7389 15.9392 12.7168 15.8388 12.7147C15.7383 12.7127 15.6385 12.7309 15.5453 12.7682C15.452 12.8056 15.3672 12.8612 15.2958 12.9319C15.2245 13.0027 15.1681 13.087 15.1299 13.1799C14.8723 13.7906 14.4403 14.3117 13.8881 14.6781C13.3358 15.0446 12.6877 15.24 12.0249 15.24C11.3621 15.24 10.7141 15.0446 10.1618 14.6781C9.60952 14.3117 9.17755 13.7906 8.91993 13.1799C8.8818 13.087 8.82539 13.0027 8.75404 12.9319C8.6827 12.8612 8.59787 12.8056 8.5046 12.7682C8.41133 12.7309 8.31152 12.7127 8.21108 12.7147C8.11064 12.7168 8.01164 12.7389 7.91993 12.7799C7.82608 12.8169 7.74079 12.8727 7.66928 12.9438C7.59777 13.0149 7.54156 13.0999 7.5041 13.1936C7.46664 13.2872 7.44872 13.3876 7.45144 13.4884C7.45416 13.5892 7.47747 13.6884 7.51993 13.7799C7.88603 14.6671 8.50715 15.4258 9.30464 15.9598Z" fill="#292929"/>
</svg>
