<svg width="24" height="24" viewBox="0 0 24 24" fill="none" xmlns="http://www.w3.org/2000/svg">
<path d="M12 2C10.0222 2 8.08879 2.58649 6.4443 3.6853C4.79981 4.78412 3.51809 6.3459 2.76121 8.17317C2.00433 10.0004 1.8063 12.0111 2.19215 13.9509C2.578 15.8907 3.53041 17.6725 4.92894 19.0711C6.32746 20.4696 8.10929 21.422 10.0491 21.8079C11.9889 22.1937 13.9996 21.9957 15.8268 21.2388C17.6541 20.4819 19.2159 19.2002 20.3147 17.5557C21.4135 15.9112 22 13.9778 22 12C22 10.6868 21.7413 9.38642 21.2388 8.17317C20.7363 6.95991 19.9997 5.85752 19.0711 4.92893C18.1425 4.00035 17.0401 3.26375 15.8268 2.7612C14.6136 2.25866 13.3132 2 12 2V2ZM15.64 14.34C15.8086 14.5104 15.9031 14.7403 15.9031 14.98C15.9031 15.2197 15.8086 15.4496 15.64 15.62C15.4684 15.7862 15.2389 15.8791 15 15.8791C14.7611 15.8791 14.5316 15.7862 14.36 15.62L12 13.27L9.64 15.64C9.4684 15.8062 9.23888 15.8991 9 15.8991C8.76112 15.8991 8.53161 15.8062 8.36 15.64C8.19146 15.4696 8.09692 15.2397 8.09692 15C8.09692 14.7603 8.19146 14.5304 8.36 14.36L10.73 12L8.36 9.64C8.21825 9.46525 8.14626 9.24419 8.15794 9.01947C8.16962 8.79476 8.26414 8.58235 8.42325 8.42324C8.58235 8.26413 8.79477 8.16961 9.01948 8.15794C9.24419 8.14626 9.46526 8.21824 9.64 8.36L12 10.73L14.36 8.36C14.5348 8.21824 14.7558 8.14626 14.9805 8.15794C15.2052 8.16961 15.4177 8.26413 15.5768 8.42324C15.7359 8.58235 15.8304 8.79476 15.8421 9.01947C15.8537 9.24419 15.7818 9.46525 15.64 9.64L13.27 12L15.64 14.34Z" fill="black"/>
</svg>
