<svg width="24" height="24" viewBox="0 0 24 24" fill="none" xmlns="http://www.w3.org/2000/svg">
<rect x="1" y="1" width="22" height="22" rx="8" fill="#454545"/>
<path d="M19 12.0001C19 8.13408 15.866 5.00008 12 5.00008C8.134 5.00008 5 8.13408 5 12.0001C5 15.494 7.5598 18.3899 10.9062 18.915V14.0235H9.12891V12.0001H10.9062V10.4579C10.9062 8.70351 11.9513 7.73445 13.5503 7.73445C14.3161 7.73445 15.1172 7.87117 15.1172 7.87117V9.59383H14.2345C13.3649 9.59383 13.0937 10.1334 13.0937 10.687V12.0001H15.0352L14.7248 14.0235H13.0937V18.915C16.4402 18.3899 19 15.494 19 12.0001Z" fill="white"/>
<path d="M14.7248 14.0234L15.0352 12H13.0938V10.6869C13.0938 10.1333 13.3649 9.59375 14.2345 9.59375H15.1172V7.87109C15.1172 7.87109 14.3161 7.73438 13.5503 7.73438C11.9513 7.73438 10.9063 8.70344 10.9063 10.4578V12H9.12891V14.0234H10.9063V18.915C11.2626 18.9709 11.6279 19 12 19C12.3721 19 12.7374 18.9709 13.0938 18.915V14.0234H14.7248Z" fill="#454545"/>
</svg>
