<svg width="24" height="24" viewBox="0 0 24 24" fill="none" xmlns="http://www.w3.org/2000/svg">
<path d="M21.9298 9.59997C21.8224 9.27733 21.6234 8.99296 21.357 8.78163C21.0906 8.57029 20.7684 8.44114 20.4298 8.40997L15.5298 7.99997L13.5998 3.42997C13.4659 3.11656 13.2428 2.8494 12.9584 2.66164C12.674 2.47387 12.3406 2.37378 11.9998 2.37378C11.659 2.37378 11.3257 2.47387 11.0412 2.66164C10.7568 2.8494 10.5338 3.11656 10.3998 3.42997L8.46982 7.99997L3.56982 8.44997C3.23662 8.48209 2.91989 8.6102 2.65805 8.81875C2.39621 9.0273 2.20049 9.30734 2.09464 9.62491C1.98878 9.94247 1.97733 10.2839 2.06168 10.6079C2.14602 10.9318 2.32254 11.2243 2.56982 11.45L6.27982 14.7L5.17982 19.52C5.10377 19.8507 5.12782 20.1965 5.24891 20.5135C5.37001 20.8304 5.58266 21.1042 5.85982 21.3C6.13412 21.4966 6.45942 21.6097 6.79652 21.6256C7.13363 21.6416 7.46816 21.5598 7.75982 21.39L11.9998 18.85L16.2298 21.38C16.4997 21.5381 16.807 21.6209 17.1198 21.62C17.4777 21.6163 17.8262 21.5048 18.1198 21.3C18.3957 21.0983 18.6068 20.8208 18.7276 20.5011C18.8483 20.1815 18.8734 19.8336 18.7998 19.5L17.6998 14.69L21.4098 11.44C21.6656 11.2168 21.851 10.924 21.9433 10.5973C22.0357 10.2706 22.031 9.92405 21.9298 9.59997Z" fill="black"/>
</svg>
