<svg width="24" height="24" viewBox="0 0 24 24" fill="none" xmlns="http://www.w3.org/2000/svg">
<path fill-rule="evenodd" clip-rule="evenodd" d="M16.5146 10.2233H6.69457C6.34646 10.2222 6.00708 10.1142 5.7223 9.91402C5.43753 9.71381 5.22107 9.43101 5.1022 9.10383C4.98332 8.77665 4.96775 8.42086 5.05759 8.08454C5.14744 7.74823 5.33836 7.4476 5.60457 7.22329L9.90457 3.62329C10.3796 3.22086 10.982 3 11.6046 3C12.2271 3 12.8295 3.22086 13.3046 3.62329L17.6046 7.22329C17.8708 7.4476 18.0617 7.74823 18.1515 8.08454C18.2414 8.42086 18.2258 8.77665 18.1069 9.10383C17.9881 9.43101 17.7716 9.71381 17.4868 9.91402C17.202 10.1142 16.8627 10.2222 16.5146 10.2233ZM6.69457 13.0232H16.5146C16.8627 13.0243 17.202 13.1323 17.4868 13.3325C17.7716 13.5327 17.9881 13.8155 18.1069 14.1426C18.2258 14.4698 18.2414 14.8256 18.1515 15.1619C18.0617 15.4983 17.8708 15.7989 17.6046 16.0232L13.3046 19.6232C12.83 20.026 12.227 20.2459 11.6046 20.2432C10.9829 20.2415 10.3814 20.0222 9.90457 19.6232L5.60457 16.0232C5.33836 15.7989 5.14744 15.4983 5.05759 15.1619C4.96775 14.8256 4.98332 14.4698 5.1022 14.1426C5.22107 13.8155 5.43753 13.5327 5.7223 13.3325C6.00708 13.1323 6.34646 13.0243 6.69457 13.0232Z" fill="black"/>
</svg>
