<svg width="24" height="24" viewBox="0 0 24 24" fill="none" xmlns="http://www.w3.org/2000/svg">
<path d="M19.31 5.92H12.81V5.46C12.81 4.80757 12.5508 4.18186 12.0895 3.72052C11.6281 3.25918 11.0024 3 10.35 3H4.46C3.80757 3 3.18186 3.25918 2.72052 3.72052C2.25918 4.18186 2 4.80757 2 5.46V17.68C2 18.3324 2.25918 18.9581 2.72052 19.4195C3.18186 19.8808 3.80757 20.14 4.46 20.14H19.31C19.9607 20.1374 20.5838 19.877 21.043 19.416C21.5022 18.9549 21.76 18.3307 21.76 17.68V8.37C21.76 7.72022 21.5019 7.09705 21.0424 6.63759C20.5829 6.17812 19.9598 5.92 19.31 5.92V5.92Z" fill="black"/>
</svg>
