<svg width="24" height="24" viewBox="0 0 24 24" fill="none" xmlns="http://www.w3.org/2000/svg">
<g clip-path="url(#clip0_24822_3727)">
<path d="M9 3C10.6568 3.00001 12 4.34315 12 6H18C19.6568 6.00001 21 7.34315 21 9V11.001C22.9928 11.0215 24.4162 12.9477 23.8418 14.8623L22.6416 18.8623C22.2609 20.1312 21.0923 21 19.7676 21H5C3.34315 21 2 19.6569 2 18V6C2 4.34315 3.34315 3 5 3H9Z" fill="#282828"/>
<path opacity="0.5" d="M3.35861 13.138C3.7393 11.869 4.90727 11 6.23209 11H20.9679C22.9775 11 24.4188 12.9372 23.8414 14.862L22.6414 18.862C22.2607 20.131 21.0927 21 19.7679 21H5.03209C3.02251 21 1.58116 19.0628 2.15861 17.138L3.35861 13.138Z" fill="white"/>
</g>
<defs>
<clipPath id="clip0_24822_3727">
<rect width="24" height="24" fill="white"/>
</clipPath>
</defs>
</svg>
