<svg width="24" height="24" viewBox="0 0 24 24" fill="none" xmlns="http://www.w3.org/2000/svg">
<path d="M9 3C10.6569 3 12 4.34315 12 6H19C20.6569 6 22 7.34315 22 9V18C22 19.6569 20.6569 21 19 21H5C3.34315 21 2 19.6569 2 18V6C2 4.34315 3.34315 3 5 3H9ZM12 10C11.5858 10 11.25 10.3358 11.25 10.75V12.75H9.25C8.83579 12.75 8.5 13.0858 8.5 13.5C8.5 13.9142 8.83579 14.25 9.25 14.25H11.25V16.25C11.25 16.6642 11.5858 17 12 17C12.4142 17 12.75 16.6642 12.75 16.25V14.25H14.75C15.1642 14.25 15.5 13.9142 15.5 13.5C15.5 13.0858 15.1642 12.75 14.75 12.75H12.75V10.75C12.75 10.3358 12.4142 10 12 10Z" fill="#282828"/>
</svg>
