<svg width="24" height="24" viewBox="0 0 24 24" fill="none" xmlns="http://www.w3.org/2000/svg">
<path d="M19 5.92H12.81V5.14C12.81 4.57244 12.5845 4.02812 12.1832 3.62679C11.7819 3.22546 11.2376 3 10.67 3H4.77C4.03535 3 3.33079 3.29184 2.81131 3.81131C2.29184 4.33079 2 5.03535 2 5.77L2 17.36C2 18.0956 2.29151 18.8012 2.8107 19.3222C3.32989 19.8433 4.03443 20.1374 4.77 20.14H19C19.7356 20.1374 20.4401 19.8433 20.9593 19.3222C21.4785 18.8012 21.77 18.0956 21.77 17.36V8.69C21.77 7.95535 21.4782 7.25079 20.9587 6.73131C20.4392 6.21184 19.7346 5.92 19 5.92V5.92ZM17.2 11.19L11.86 16.33C11.6906 16.4922 11.4646 16.5819 11.23 16.58C10.9985 16.5815 10.7757 16.4916 10.61 16.33L7.94 13.76C7.85564 13.6772 7.78864 13.5783 7.7429 13.4693C7.69716 13.3603 7.6736 13.2432 7.6736 13.125C7.6736 13.0068 7.69716 12.8897 7.7429 12.7807C7.78864 12.6717 7.85564 12.5728 7.94 12.49C8.10867 12.3221 8.33699 12.2278 8.575 12.2278C8.81301 12.2278 9.04133 12.3221 9.21 12.49L11.21 14.49L15.92 9.95C16.0904 9.78145 16.3203 9.68692 16.56 9.68692C16.7997 9.68692 17.0296 9.78145 17.2 9.95C17.3576 10.1186 17.4445 10.3412 17.4426 10.572C17.4408 10.8028 17.3503 11.024 17.19 11.19H17.2Z" fill="black"/>
</svg>
