<svg width="24" height="24" viewBox="0 0 24 24" fill="none" xmlns="http://www.w3.org/2000/svg">
<path d="M9 3C10.6569 3 12 4.34315 12 6H19C20.6569 6 22 7.34315 22 9V18C22 19.6569 20.6569 21 19 21H5C3.34315 21 2 19.6569 2 18V6C2 4.34315 3.34315 3 5 3H9ZM16.0303 10.9697C15.7374 10.6769 15.2626 10.6769 14.9697 10.9697L11 14.9395L9.53027 13.4697C9.2374 13.1769 8.76262 13.1769 8.46973 13.4697C8.17683 13.7626 8.17683 14.2374 8.46973 14.5303L10.4697 16.5303C10.7626 16.8232 11.2374 16.8232 11.5303 16.5303L16.0303 12.0303C16.3231 11.7374 16.3231 11.2626 16.0303 10.9697Z" fill="#282828"/>
</svg>
