<svg width="24" height="24" viewBox="0 0 24 24" fill="none" xmlns="http://www.w3.org/2000/svg">
<path fill-rule="evenodd" clip-rule="evenodd" d="M6.26256 3.7445C6.59075 3.41631 7.03587 3.23193 7.5 3.23193C8.83293 3.23193 9.76174 4.17319 10.4053 5.34337C10.6739 5.8316 10.8716 6.32496 11.01 6.73193H7.5C7.03587 6.73193 6.59075 6.54756 6.26256 6.21937C5.93437 5.89118 5.75 5.44606 5.75 4.98193C5.75 4.5178 5.93437 4.07269 6.26256 3.7445ZM16.5 6.73193H12.99C13.1284 6.32496 13.3261 5.8316 13.5947 5.34337C14.2383 4.17319 15.1671 3.23193 16.5 3.23193C16.9641 3.23193 17.4092 3.41631 17.7374 3.7445C18.0656 4.07269 18.25 4.5178 18.25 4.98193C18.25 5.44606 18.0656 5.89118 17.7374 6.21937C17.4092 6.54756 16.9641 6.73193 16.5 6.73193ZM12.2803 4.62049C12.1779 4.80671 12.0847 4.9924 12 5.17414C11.9153 4.9924 11.8221 4.80671 11.7197 4.62049C10.9883 3.29068 9.66707 1.73193 7.5 1.73193C6.63805 1.73193 5.8114 2.07434 5.2019 2.68384C4.59241 3.29333 4.25 4.11998 4.25 4.98193C4.25 5.67649 4.47233 6.34813 4.87758 6.9017C2.79593 7.40602 1.25 9.28163 1.25 11.5183V17.5183C1.25 20.1417 3.37665 22.2683 6 22.2683H18C20.6234 22.2683 22.75 20.1417 22.75 17.5183V11.5183C22.75 9.28163 21.2041 7.40602 19.1224 6.9017C19.5277 6.34814 19.75 5.6765 19.75 4.98193C19.75 4.11998 19.4076 3.29333 18.7981 2.68384C18.1886 2.07434 17.362 1.73193 16.5 1.73193C14.3329 1.73193 13.0117 3.29068 12.2803 4.62049ZM12.7749 8.96777C12.7749 8.55356 12.4391 8.21777 12.0249 8.21777C11.6107 8.21777 11.2749 8.55356 11.2749 8.96777V12H3.37378C2.95957 12 2.62378 12.3358 2.62378 12.75C2.62378 13.1642 2.95957 13.5 3.37378 13.5H11.2749L11.2749 20.2756C11.2749 20.6898 11.6107 21.0256 12.0249 21.0256C12.4391 21.0256 12.7749 20.6898 12.7749 20.2756L12.7749 13.5H20.6265C21.0407 13.5 21.3765 13.1642 21.3765 12.75C21.3765 12.3358 21.0407 12 20.6265 12H12.7749V8.96777Z" fill="#454545"/>
</svg>
