<svg width="24" height="24" viewBox="0 0 24 24" fill="none" xmlns="http://www.w3.org/2000/svg">
<path fill-rule="evenodd" clip-rule="evenodd" d="M6 4C3.79086 4 2 5.79086 2 8V16C2 18.2091 3.79086 20 6 20H18C20.2091 20 22 18.2091 22 16V8C22 5.79086 20.2091 4 18 4H6ZM15.3599 14.8301C15.7162 14.6943 16.0277 14.4624 16.2599 14.1601C16.4632 13.8732 16.5747 13.5316 16.5799 13.1801C16.585 12.8941 16.5161 12.6116 16.3799 12.3601C16.2079 12.1018 15.9696 11.8946 15.6899 11.7601C15.2924 11.5601 14.868 11.4186 14.4299 11.3401C14.1929 11.2914 13.9591 11.228 13.7299 11.1501C13.6222 11.12 13.5229 11.0652 13.4399 10.9901C13.4185 10.9676 13.4021 10.9408 13.3917 10.9115C13.3814 10.8822 13.3774 10.851 13.3799 10.8201C13.3822 10.7552 13.402 10.6921 13.4372 10.6375C13.4724 10.5829 13.5217 10.5389 13.5799 10.5101C13.7631 10.4087 13.9708 10.3603 14.1799 10.3701C14.3584 10.3685 14.5364 10.3886 14.7099 10.4301C14.8523 10.463 14.99 10.5133 15.1199 10.5801L15.3499 10.7001C15.4379 10.7568 15.5318 10.8038 15.6299 10.8401C15.7063 10.8505 15.7836 10.8505 15.8599 10.8401C15.9462 10.8389 16.0309 10.8175 16.1074 10.7775C16.1838 10.7376 16.2498 10.6802 16.2999 10.6101C16.4116 10.4674 16.4715 10.2912 16.4699 10.1101C16.4726 9.98822 16.4447 9.86765 16.3888 9.75936C16.3329 9.65106 16.2508 9.55848 16.1499 9.49006C15.8793 9.30055 15.5783 9.15852 15.2599 9.07006C14.9046 8.97421 14.5379 8.92711 14.1699 8.93006C13.733 8.92626 13.3002 9.01486 12.8999 9.19006C12.5414 9.33638 12.23 9.57856 11.9999 9.89006C11.804 10.1529 11.6844 10.4647 11.6544 10.7911C11.6244 11.1176 11.6852 11.4459 11.8299 11.7401C11.9928 12.0086 12.2334 12.2213 12.5199 12.3501C12.9306 12.5436 13.364 12.6847 13.8099 12.7701C14.1036 12.8131 14.3898 12.8972 14.6599 13.0201C14.8299 13.1201 14.8299 13.2301 14.8299 13.2301C14.8321 13.2947 14.8153 13.3585 14.7815 13.4136C14.7477 13.4687 14.6985 13.5127 14.6399 13.5401C14.4319 13.6414 14.2008 13.6862 13.9699 13.6701C13.731 13.671 13.4927 13.6442 13.2599 13.5901C13.0404 13.533 12.8288 13.4491 12.6299 13.3401C12.5453 13.2838 12.4547 13.2369 12.3599 13.2001C12.2407 13.1588 12.1118 13.1549 11.9903 13.1888C11.8687 13.2228 11.7605 13.293 11.6799 13.3901C11.5683 13.5327 11.5084 13.709 11.5099 13.8901C11.504 14.0107 11.528 14.131 11.5799 14.2401C11.6397 14.3462 11.7215 14.4383 11.8199 14.5101C12.1257 14.7061 12.4645 14.8451 12.8199 14.9201C13.2251 15.0234 13.6419 15.0738 14.0599 15.0701C14.505 15.0783 14.9472 14.9967 15.3599 14.8301ZM10.0599 14.5101C10.3837 14.1374 10.5488 13.6529 10.5199 13.1601L10.5099 9.82006C10.5142 9.70582 10.4952 9.59192 10.4539 9.48531C10.4126 9.3787 10.35 9.28164 10.2699 9.20006C10.091 9.05298 9.86657 8.97257 9.63494 8.97257C9.40332 8.97257 9.17887 9.05298 8.99994 9.20006C8.92165 9.28247 8.8609 9.37991 8.82136 9.48648C8.78183 9.59305 8.76434 9.70653 8.76994 9.82006V13.1201C8.77962 13.2388 8.74388 13.3567 8.66994 13.4501C8.63371 13.4878 8.59025 13.5179 8.54214 13.5385C8.49404 13.5591 8.44228 13.5699 8.38994 13.5701H8.11994C7.92609 13.5671 7.73775 13.6346 7.58994 13.7601C7.47046 13.9022 7.40967 14.0846 7.41994 14.2701C7.41482 14.3644 7.43002 14.4588 7.46453 14.5468C7.49903 14.6348 7.55203 14.7143 7.61994 14.7801C7.82212 14.9444 8.08045 15.0233 8.33994 15.0001H8.44994H8.70994C9.20509 15.0095 9.68613 14.8349 10.0599 14.5101ZM6.5 14.25C6.5 14.6642 6.16421 15 5.75 15C5.33579 15 5 14.6642 5 14.25C5 13.8358 5.33579 13.5 5.75 13.5C6.16421 13.5 6.5 13.8358 6.5 14.25Z" fill="#292929"/>
</svg>