<svg width="24" height="24" viewBox="0 0 24 24" fill="none" xmlns="http://www.w3.org/2000/svg">
<path fill-rule="evenodd" clip-rule="evenodd" d="M10.8431 8.33336C10.9924 8.27845 11.151 8.25351 11.31 8.25998C11.4705 8.25273 11.6309 8.27727 11.7819 8.33219C11.9329 8.3871 12.0716 8.47131 12.19 8.57997C12.3023 8.69623 12.3896 8.83432 12.4463 8.9857C12.5031 9.13708 12.5282 9.29851 12.52 9.45997V13.75C12.5566 14.2966 12.4805 14.845 12.2964 15.3611C12.1124 15.8771 11.8243 16.3499 11.45 16.75C11.0265 17.1125 10.5354 17.3875 10.005 17.5591C9.47465 17.7308 8.91553 17.7956 8.35996 17.75C7.80442 17.7951 7.24545 17.73 6.71516 17.5584C6.18487 17.3867 5.69373 17.112 5.26996 16.75C4.89744 16.349 4.61116 15.8759 4.42883 15.3599C4.24651 14.8439 4.17201 14.2959 4.20996 13.75V10.29L3.83996 10.68C3.66006 10.8671 3.41446 10.9769 3.15507 10.9862C2.89569 10.9955 2.64283 10.9037 2.44996 10.73C2.26286 10.5501 2.15304 10.3045 2.14371 10.0451C2.13438 9.7857 2.22627 9.53285 2.39996 9.33998L4.45996 7.12998C4.64242 6.9188 4.84691 6.72772 5.06996 6.55997C5.19774 6.49843 5.33814 6.46761 5.47996 6.46997C5.61856 6.47295 5.75502 6.50471 5.88069 6.56324C6.00636 6.62178 6.11849 6.7058 6.20996 6.80997L8.56996 9.33998C8.68762 9.42749 8.78459 9.53981 8.85401 9.66898C8.92342 9.79815 8.96358 9.94101 8.97163 10.0874C8.97969 10.2338 8.95545 10.3802 8.90062 10.5162C8.84579 10.6522 8.76173 10.7745 8.65438 10.8744C8.54703 10.9743 8.41902 11.0494 8.27943 11.0943C8.13984 11.1392 7.99207 11.1529 7.84661 11.1343C7.70115 11.1158 7.56155 11.0654 7.4377 10.9869C7.31386 10.9084 7.20879 10.8036 7.12996 10.68L6.59996 10.12V13.85C6.56399 14.4034 6.72323 14.9519 7.04996 15.4C7.21121 15.5863 7.41333 15.733 7.64056 15.8284C7.86779 15.9238 8.11399 15.9654 8.35996 15.95C8.60454 15.9661 8.84951 15.9248 9.07525 15.8293C9.301 15.7338 9.50124 15.5868 9.65996 15.4C9.995 14.9556 10.1583 14.4052 10.12 13.85V9.45997C10.1104 9.29922 10.1339 9.13822 10.1889 8.98688C10.244 8.83553 10.3294 8.69706 10.44 8.57997C10.5568 8.47207 10.6938 8.38827 10.8431 8.33336ZM18.7102 8.32002C19.5897 8.26595 20.4563 8.55242 21.1302 9.12002C21.4265 9.40142 21.6578 9.74404 21.808 10.124C21.9583 10.504 22.0239 10.9121 22.0002 11.32C22.0217 11.7262 21.9551 12.1322 21.805 12.5103C21.6548 12.8883 21.4246 13.2293 21.1302 13.51C20.4568 14.0785 19.5899 14.3651 18.7102 14.31H16.6202V16.58C16.6285 16.7415 16.6034 16.9029 16.5466 17.0543C16.4899 17.2057 16.4026 17.3438 16.2902 17.46C16.1703 17.5729 16.0287 17.6604 15.874 17.7171C15.7193 17.7738 15.5548 17.7986 15.3902 17.79C15.2279 17.8018 15.0649 17.7786 14.9122 17.7221C14.7595 17.6656 14.6207 17.5771 14.5051 17.4624C14.3895 17.3478 14.2998 17.2097 14.2421 17.0575C14.1843 16.9053 14.1598 16.7425 14.1702 16.58V9.46002C14.1465 9.30486 14.1595 9.14628 14.2084 8.99711C14.2573 8.84793 14.3406 8.71236 14.4516 8.60137C14.5626 8.49037 14.6982 8.40706 14.8473 8.35818C14.9965 8.30931 15.1551 8.29623 15.3102 8.32002H18.7102ZM18.3802 12.48C18.736 12.5061 19.0897 12.4071 19.3802 12.2C19.496 12.0883 19.5857 11.9524 19.6427 11.802C19.6998 11.6516 19.7228 11.4904 19.7102 11.33C19.7102 10.56 19.2702 10.17 18.3802 10.17H16.6202V12.48H18.3802Z" fill="black"/>
</svg>
