<svg width="24" height="24" viewBox="0 0 24 24" fill="none" xmlns="http://www.w3.org/2000/svg">
<g clip-path="url(#clip0_13866_11046)">
<path fill-rule="evenodd" clip-rule="evenodd" d="M19.5279 10.4773C19.6744 10.3946 19.8498 10.3604 20.0286 10.3922C20.4375 10.465 20.7106 10.8562 20.6379 11.2654L20.5369 11.8344C20.5026 12.0683 20.4615 12.3011 20.4126 12.5325L20.4036 12.5836C20.3983 12.6136 20.3914 12.6428 20.3827 12.6713C20.1106 13.888 19.6369 15.0623 18.9697 16.1431C18.2604 17.0711 17.4524 17.9193 16.5601 18.6731L16.0883 19.1048C15.2611 19.8737 14.3487 20.6802 13.1873 21.7075L13.0763 21.8055C12.8982 21.9567 12.677 22.048 12.4437 22.0665L12.4338 22.0866C12.2793 22.0961 12.1245 22.0743 11.9789 22.0223C11.8331 21.9703 11.6995 21.8893 11.5859 21.7842C11.4724 21.6791 11.3813 21.5521 11.3183 21.4108C11.2553 21.2695 11.2214 21.1169 11.219 20.9622V19.3458C9.0404 19.2253 6.27947 18.4723 4.82374 16.9463C3.28887 15.1377 2.46454 12.8324 2.50454 10.4606C2.40417 7.15758 3.50854 4.60748 5.64697 3.29228C7.38739 2.37994 9.33556 1.93704 11.2993 2.00721C11.6803 2.00635 12.061 2.01724 12.4411 2.03984L12.953 2.06399C13.368 2.08356 13.6893 2.43649 13.6697 2.85161L13.6693 2.86058C13.662 3.01374 13.6092 3.1541 13.5248 3.26929C13.1089 3.99737 12.9039 4.72854 12.9039 5.63739C12.9039 8.44075 15.18 10.7167 17.9833 10.7167C18.5219 10.7167 19.0408 10.6327 19.5279 10.4773ZM21.5801 5.52101C21.5801 3.58162 20.0056 2.00711 18.0661 2.00711C16.1268 2.00711 14.5524 3.58162 14.5524 5.52101C14.5524 7.46037 16.1268 9.03491 18.0661 9.03491C20.0056 9.03491 21.5801 7.46037 21.5801 5.52101Z" fill="black"/>
</g>
<defs>
<clipPath id="clip0_13866_11046">
<rect width="20.1" height="20.1" fill="white" transform="translate(2 2)"/>
</clipPath>
</defs>
</svg>
