<svg width="24" height="24" viewBox="0 0 24 24" fill="none" xmlns="http://www.w3.org/2000/svg">
<path d="M12.8899 22.0001C12.7361 22.0096 12.5819 21.9878 12.4368 21.936C12.2916 21.8842 12.1585 21.8036 12.0454 21.6989C11.9323 21.5942 11.8416 21.4677 11.7788 21.3269C11.716 21.1862 11.6823 21.0342 11.6799 20.8801V19.2701C9.50992 19.1501 6.75991 18.4001 5.30991 16.8801C3.78112 15.0787 2.96004 12.7825 2.99991 10.4201C2.89991 7.13011 3.99991 4.5901 6.12991 3.2801C7.86344 2.37137 9.8039 1.9302 11.7599 2.0001C13.0092 1.99731 14.2556 2.12128 15.4799 2.3701C16.7919 2.59194 18.004 3.21168 18.952 4.14539C19.9 5.0791 20.5382 6.28163 20.7799 7.5901C21.4615 10.4912 20.9653 13.5442 19.3999 16.0801C18.6934 17.0044 17.8887 17.8493 16.9999 18.6001L16.5299 19.0301C15.6799 19.8201 14.7399 20.6501 13.5299 21.7201C13.3524 21.8707 13.132 21.9616 12.8999 21.9801L12.8899 22.0001Z" fill="black"/>
</svg>
