<svg width="24" height="24" viewBox="0 0 24 24" fill="none" xmlns="http://www.w3.org/2000/svg">
<path d="M12 2.79243C12 2.36201 11.6378 2.01724 11.2111 2.07429C9.19054 2.34448 7.35997 3.21076 5.9043 4.48932C5.59445 4.76146 5.59904 5.23615 5.89148 5.52692L9.21093 8.82735C9.47566 9.09055 9.89098 9.11325 10.2157 8.92902C10.5714 8.72715 10.9546 8.56767 11.3584 8.45749C11.7204 8.3587 12 8.0472 12 7.67193V2.79243Z" fill="#454545"/>
<path d="M5.09221 6.6404C4.76875 6.31879 4.23345 6.35723 3.99295 6.74481C3.04624 8.27049 2.5 10.0679 2.5 11.9922V11.9922C2.5 12.3078 2.76253 12.5545 3.07814 12.5545H7.09409C7.46893 12.5545 7.78012 12.2755 7.88004 11.9142C7.99002 11.5166 8.14866 11.139 8.34919 10.7881C8.53604 10.4612 8.51308 10.0416 8.24608 9.77617L5.09221 6.6404Z" fill="#454545"/>
<path d="M3.59337 13.9038C3.1217 13.9038 2.76577 14.3351 2.89798 14.7879C3.33421 16.2817 4.11116 17.6314 5.13967 18.7483C5.41363 19.0458 5.87723 19.0375 6.16403 18.7524L8.24613 16.6822C8.51313 16.4167 8.53608 15.9971 8.34923 15.6702C8.14868 15.3194 7.99003 14.9418 7.88004 14.5441C7.78012 14.1828 7.46893 13.9038 7.09409 13.9038H3.59337Z" fill="#454545"/>
<path d="M7.3307 19.5006C7.00139 19.828 7.04525 20.3748 7.44546 20.6104C8.94551 21.4932 10.696 22 12.5655 22C12.5849 22 12.6044 21.9999 12.6238 21.9998C12.6421 21.9999 12.6603 22 12.6786 22C17.5505 22 21.5 18.0732 21.5 13.2292C21.5 8.8871 18.3266 5.28199 14.16 4.58145C13.7296 4.50908 13.3571 4.85623 13.3571 5.29273V7.67193C13.3571 8.0472 13.6368 8.35872 13.9989 8.45752C16.1063 9.03268 17.6548 10.9511 17.6548 13.2292C17.6548 15.9617 15.4268 18.1768 12.6786 18.1768C11.7826 18.1768 10.9419 17.9414 10.2158 17.5293C9.89108 17.3451 9.47578 17.3678 9.21106 17.631L7.3307 19.5006Z" fill="#454545"/>
</svg>
