<svg width="24" height="24" viewBox="0 0 24 24" fill="none" xmlns="http://www.w3.org/2000/svg">
<path d="M2.82959 3.93555C2.82959 2.83098 3.72502 1.93555 4.82959 1.93555H7.82959C8.93416 1.93555 9.82959 2.83098 9.82959 3.93555V19.9246C9.82959 21.0291 8.93416 21.9246 7.82959 21.9246H4.82959C3.72502 21.9246 2.82959 21.0291 2.82959 19.9246V3.93555Z" fill="#292929"/>
<path d="M14.1697 3.93555C14.1697 2.83098 15.0651 1.93555 16.1697 1.93555H19.1697C20.2742 1.93555 21.1697 2.83098 21.1697 3.93555V19.9246C21.1697 21.0291 20.2742 21.9246 19.1697 21.9246H16.1697C15.0651 21.9246 14.1697 21.0291 14.1697 19.9246V3.93555Z" fill="#292929"/>
</svg>
