<svg width="24" height="24" viewBox="0 0 24 24" fill="none" xmlns="http://www.w3.org/2000/svg">
<path fill-rule="evenodd" clip-rule="evenodd" d="M16.2611 5.8879L17.2742 5.58221L17.2975 5.57563C17.4501 5.53199 17.6084 5.48673 17.7456 5.46043C17.8946 5.43187 18.1076 5.40612 18.3412 5.47239C18.6411 5.55748 18.8984 5.75155 19.0626 6.01655C19.1905 6.22296 19.2242 6.43477 19.2377 6.58588C19.2501 6.72504 19.25 6.8897 19.25 7.04843L19.25 8.21583L19.2916 8.25785C19.8423 8.81283 20.2975 9.46335 20.6301 10.1829L20.6667 10.2621L20.7143 10.2621L20.8307 10.2618C20.9996 10.2613 21.2754 10.2604 21.5354 10.2633C21.7029 10.2652 21.8735 10.2687 22.0124 10.2754C22.0808 10.2787 22.1514 10.2832 22.2143 10.29C22.2453 10.2933 22.2843 10.2982 22.3253 10.306L22.3267 10.3062C22.3523 10.3111 22.4437 10.3283 22.5424 10.3758C22.7975 10.4987 23.0033 10.7045 23.1262 10.9596C23.2082 11.1298 23.2319 11.2933 23.2415 11.4168C23.2501 11.5261 23.25 11.6522 23.25 11.7685V15.2223C23.25 15.3444 23.2501 15.4769 23.2407 15.5915C23.2301 15.7212 23.2039 15.8927 23.1138 16.0695C22.9939 16.3047 22.8027 16.4959 22.5675 16.6158C22.35 16.7266 22.1327 16.7381 21.9324 16.7459C21.7205 16.7541 21.375 16.7568 20.8003 16.7613L20.7059 16.7621L20.7 16.7621L20.1139 16.7621L20.0696 16.8265C19.3871 17.8213 18.4448 18.6242 17.3395 19.1374L17.25 19.179L17.25 20.2323C17.25 20.3545 17.2501 20.4869 17.2407 20.6015C17.2301 20.7313 17.2039 20.9027 17.1138 21.0796C16.9939 21.3148 16.8027 21.506 16.5675 21.6258C16.3907 21.7159 16.2192 21.7422 16.0895 21.7528C15.9748 21.7621 15.8424 21.7621 15.7202 21.7621H13.7796C13.6575 21.7621 13.5251 21.7621 13.4105 21.7528C13.2807 21.7422 13.1093 21.7159 12.9324 21.6258C12.6972 21.506 12.506 21.3148 12.3862 21.0796C12.2961 20.9027 12.2698 20.7313 12.2592 20.6016C12.2499 20.4869 12.2499 20.3545 12.2499 20.2323L12.2499 19.7621H10.7499L10.7499 20.2323C10.75 20.3545 10.75 20.4869 10.7406 20.6016C10.73 20.7313 10.7038 20.9027 10.6137 21.0796C10.4938 21.3148 10.3026 21.506 10.0674 21.6258C9.89059 21.7159 9.71916 21.7422 9.5894 21.7528C9.47478 21.7621 9.3423 21.7621 9.22016 21.7621H7.27965C7.15751 21.7621 7.02508 21.7621 6.91046 21.7528C6.7807 21.7422 6.60927 21.7159 6.43244 21.6258C6.19724 21.506 6.00601 21.3148 5.88617 21.0796C5.79607 20.9027 5.76983 20.7313 5.75923 20.6016C5.74987 20.4869 5.7499 20.3545 5.74993 20.2323L5.74992 17.8083L5.70828 17.7663C4.66393 16.7138 3.96323 15.3172 3.79117 13.7621H3.5C1.98122 13.7621 0.75 12.5309 0.75 11.0121C0.75 9.99324 1.30444 9.10479 2.12446 8.63044C2.483 8.42303 2.9418 8.54555 3.1492 8.9041C3.35661 9.26264 3.23409 9.72144 2.87554 9.92885C2.49996 10.1461 2.25 10.5503 2.25 11.0121C2.25 11.7024 2.80964 12.2621 3.5 12.2621H3.79113C4.04238 9.98965 5.42176 8.05814 7.35398 7.03865L7.36963 7.03063C7.4799 6.97571 7.68848 6.87242 7.89476 6.78027C7.99727 6.73448 8.10845 6.68727 8.21193 6.64919C8.22811 6.64323 8.24767 6.6361 8.26994 6.62843C8.23977 6.42986 8.22412 6.22652 8.22412 6.01953C8.22412 3.79961 10.0237 2 12.2437 2C14.4195 2 16.1916 3.7289 16.2611 5.8879ZM14.8632 6.01953C14.8632 6.99032 14.3351 7.83777 13.5505 8.29028L10.9368 8.29028C10.1522 7.83777 9.62412 6.99032 9.62412 6.01953C9.62412 4.5728 10.7969 3.4 12.2437 3.4C13.6904 3.4 14.8632 4.5728 14.8632 6.01953Z" fill="#454545"/>
</svg>
