<svg width="24" height="24" viewBox="0 0 24 24" fill="none" xmlns="http://www.w3.org/2000/svg">
<path fill-rule="evenodd" clip-rule="evenodd" d="M6.598 15.9162L2.347 20.1663C2.055 20.4592 2.055 20.9343 2.347 21.2273C2.64 21.5203 3.115 21.5203 3.408 21.2273L7.658 16.9762L11.797 21.1152C12.409 21.7272 13.403 21.7272 14.015 21.1152L15.172 19.9583C15.216 19.9153 15.256 19.8693 15.293 19.8223C15.359 19.7663 15.428 19.7033 15.494 19.6373C16.808 18.3233 16.913 16.2542 15.809 14.8202L20.861 9.76825C21.812 8.81725 21.812 7.27325 20.861 6.32225L17.252 2.71325C16.301 1.76225 14.758 1.76225 13.807 2.71325L8.754 7.76625C7.32 6.66125 5.252 6.76625 3.938 8.08025C3.871 8.14725 3.808 8.21525 3.748 8.28525C3.706 8.31725 3.66 8.35825 3.616 8.40225L2.459 9.55925C1.847 10.1713 1.847 11.1652 2.459 11.7772L6.598 15.9162Z" fill="black"/>
</svg>
