<svg width="24" height="24" viewBox="0 0 24 24" fill="none" xmlns="http://www.w3.org/2000/svg">
<path d="M17.5973 17.2998C16.8126 17.2998 16.0746 16.9943 15.5197 16.4397L12.5199 13.4398C12.3093 13.2286 11.9422 13.2293 11.7317 13.4398L8.72093 16.4506C8.16607 17.0052 7.42807 17.3107 6.64341 17.3107H6.05225L9.8516 21.11C11.0381 22.2965 12.9619 22.2965 14.1485 21.11L17.9586 17.2998H17.5973Z" fill="#505F79"/>
<path d="M6.64358 6.68907C7.42821 6.68907 8.16628 6.9946 8.72114 7.5492L11.7319 10.5605C11.9487 10.7774 12.3027 10.7782 12.5201 10.5602L15.5199 7.5602C16.0747 7.0056 16.8127 6.70007 17.5974 6.70007H17.9587L14.1487 2.88994C12.962 1.70335 11.0382 1.70335 9.85174 2.88994L6.05258 6.68907H6.64358Z" fill="#505F79"/>
<path d="M21.1101 9.8514L18.8077 7.54894C18.757 7.56927 18.7021 7.58194 18.6441 7.58194H17.5973C17.056 7.58194 16.5262 7.80147 16.1438 8.1842L13.1441 11.1839C12.8634 11.4647 12.4945 11.6051 12.126 11.6051C11.7571 11.6051 11.3885 11.4647 11.1079 11.1842L8.09693 8.1732C7.71447 7.7904 7.18467 7.571 6.64343 7.571H5.35621C5.3013 7.571 5.25 7.55807 5.20156 7.5398L2.88994 9.8514C1.70335 11.038 1.70335 12.9617 2.88994 14.1483L5.20147 16.4598C5.24999 16.4416 5.3013 16.4287 5.35621 16.4287H6.64343C7.18467 16.4287 7.71447 16.2092 8.09693 15.8265L11.1076 12.8158C11.6518 12.2721 12.6005 12.2719 13.1441 12.8161L16.1438 15.8155C16.5262 16.1983 17.056 16.4178 17.5973 16.4178H18.6441C18.7021 16.4178 18.757 16.4304 18.8077 16.4507L21.1101 14.1483C22.2966 12.9617 22.2966 11.038 21.1101 9.8514Z" fill="#505F79"/>
</svg>
