<svg width="24" height="24" viewBox="0 0 24 24" fill="none" xmlns="http://www.w3.org/2000/svg">
<path d="M21.1699 11.93C21.1727 11.2548 20.9965 10.5909 20.6592 10.0059C20.322 9.42096 19.8357 8.93585 19.2499 8.60001L13.9299 5.53001L8.58989 2.45001C8.00581 2.11279 7.34321 1.93535 6.66877 1.93555C5.99433 1.93574 5.33184 2.11357 4.74795 2.45112C4.16407 2.78868 3.67939 3.27407 3.34268 3.85845C3.00597 4.44282 2.8291 5.10557 2.82989 5.78001L2.82989 18.08C2.8291 18.7544 3.00597 19.4172 3.34268 20.0016C3.67939 20.5859 4.16407 21.0713 4.74795 21.4089C5.33184 21.7465 5.99433 21.9243 6.66877 21.9245C7.34321 21.9247 8.00581 21.7472 8.58989 21.41L13.9299 18.33L19.2499 15.26C19.8357 14.9242 20.322 14.4391 20.6592 13.8541C20.9965 13.2691 21.1727 12.6052 21.1699 11.93Z" fill="#292929"/>
</svg>
