<svg width="24" height="24" viewBox="0 0 24 24" fill="none" xmlns="http://www.w3.org/2000/svg">
<path fill-rule="evenodd" clip-rule="evenodd" d="M4.63158 2H19.3684C20.8218 2 22 3.1782 22 4.63158V19.3684C22 20.8218 20.8218 22 19.3684 22H4.63158C3.1782 22 2 20.8218 2 19.3684V4.63158C2 3.1782 3.1782 2 4.63158 2ZM5 6C5 5.44772 5.44772 5 6 5H10C10.5523 5 11 5.44772 11 6V10C11 10.5523 10.5523 11 10 11H6C5.44772 11 5 10.5523 5 10V6ZM6 6V10H10V6H6ZM9 7H7V9H9V7ZM19 7H16V5H14V7H12V8H19V7ZM8 18V15V13V12H10V13H12V15H9V18H8ZM13 9V10H12V11H13V12H15V9H13ZM17 11H16V9H18H19V10H18V11V12H17V11ZM7 18V17H5V18H7ZM12 5H13V6H12V5ZM7 12H6V13H5V16H7V13V12ZM19 5H17V6H19V5ZM17 15V17H15V15H17ZM10 16H12V18H10V16ZM14 13C13.4477 13 13 13.4477 13 14V18C13 18.5523 13.4477 19 14 19H18C18.5523 19 19 18.5523 19 18V14C19 13.4477 18.5523 13 18 13H14ZM14 18V14H18V18H14Z" fill="#505F79"/>
</svg>
