<svg width="24" height="24" viewBox="0 0 24 24" fill="none" xmlns="http://www.w3.org/2000/svg">
<path d="M12 2C10.0222 2 8.08879 2.58649 6.4443 3.6853C4.79981 4.78412 3.51809 6.3459 2.76121 8.17317C2.00433 10.0004 1.8063 12.0111 2.19215 13.9509C2.578 15.8907 3.53041 17.6725 4.92894 19.0711C6.32746 20.4696 8.10929 21.422 10.0491 21.8079C11.9889 22.1937 13.9996 21.9957 15.8268 21.2388C17.6541 20.4819 19.2159 19.2002 20.3147 17.5557C21.4135 15.9112 22 13.9778 22 12C22 10.6868 21.7413 9.38642 21.2388 8.17317C20.7363 6.95991 19.9997 5.85752 19.0711 4.92893C18.1425 4.00035 17.0401 3.26375 15.8268 2.7612C14.6136 2.25866 13.3132 2 12 2V2ZM12.93 16C12.81 16.1212 12.6665 16.2165 12.5083 16.2801C12.35 16.3438 12.1805 16.3743 12.01 16.37C11.8409 16.3754 11.6725 16.3452 11.5158 16.2815C11.359 16.2178 11.2174 16.1219 11.1 16C10.8618 15.757 10.7284 15.4303 10.7284 15.09C10.7284 14.7497 10.8618 14.423 11.1 14.18C11.343 13.9418 11.6697 13.8084 12.01 13.8084C12.3503 13.8084 12.677 13.9418 12.92 14.18C13.0409 14.2981 13.1361 14.4399 13.1998 14.5965C13.2635 14.753 13.2942 14.921 13.29 15.09C13.2937 15.258 13.2638 15.4251 13.202 15.5814C13.1401 15.7377 13.0477 15.88 12.93 16V16ZM14.59 10.49C14.4751 10.723 14.3231 10.9357 14.14 11.12C13.98 11.28 13.78 11.47 13.52 11.69C13.3368 11.8354 13.1662 11.996 13.01 12.17C12.9197 12.2582 12.8542 12.3685 12.82 12.49C12.793 12.6884 12.6888 12.868 12.53 12.99C12.3718 13.1096 12.1783 13.1729 11.98 13.17C11.863 13.1744 11.7466 13.1524 11.6392 13.1057C11.5319 13.0589 11.4365 12.9886 11.36 12.9V12.9C11.2113 12.7094 11.1367 12.4714 11.15 12.23C11.1299 11.8828 11.2061 11.5367 11.37 11.23C11.5305 10.9619 11.7218 10.7136 11.94 10.49C12.0676 10.3622 12.1816 10.2214 12.28 10.07C12.3364 9.98411 12.3644 9.88266 12.36 9.78C12.3621 9.74672 12.3569 9.71338 12.3448 9.6823C12.3327 9.65122 12.314 9.62313 12.29 9.6C12.1792 9.5468 12.0579 9.51917 11.935 9.51917C11.8121 9.51917 11.6908 9.5468 11.58 9.6C11.4042 9.67089 11.2337 9.75444 11.07 9.85L10.81 9.98C10.18 10.33 9.76 10.26 9.46 9.89C9.29865 9.68525 9.21377 9.43062 9.22 9.17C9.21728 9.00025 9.25498 8.83229 9.33 8.68C9.41398 8.53571 9.52622 8.40986 9.66 8.31C10.0149 8.05036 10.4102 7.85102 10.83 7.72C11.6894 7.42728 12.6248 7.44854 13.47 7.78C13.847 7.9375 14.175 8.193 14.42 8.52C14.6585 8.83668 14.7851 9.22358 14.78 9.62C14.7952 9.93456 14.7298 10.2478 14.59 10.53V10.49Z" fill="black"/>
</svg>
