<svg xmlns="http://www.w3.org/2000/svg" width="24" height="24" fill="none" viewBox="0 0 24 24">
  <path fill="#454545" fill-rule="evenodd" d="M12 22c5.523 0 10-4.477 10-10S17.523 2 12 2 2 6.477 2 12s4.477 10 10 10Zm3.35-5a.48.48 0 0 1-.371-.158.504.504 0 0 1-.144-.368v-.716a4.503 4.503 0 0 1-1.96-.567.63.63 0 0 1-.309-.641.575.575 0 0 1 .124-.305.468.468 0 0 1 .278-.168c.11-.028.237 0 .382.084.192.112.443.22.752.326.317.098.695.147 1.135.147.343 0 .622-.042.835-.126.213-.084.368-.2.464-.347a.858.858 0 0 0 .154-.505.75.75 0 0 0-.103-.4.824.824 0 0 0-.34-.304 2.2 2.2 0 0 0-.64-.221l-1.092-.242c-.626-.14-1.093-.375-1.402-.705-.31-.329-.464-.76-.464-1.293 0-.413.1-.782.299-1.104.199-.33.477-.592.835-.789a2.927 2.927 0 0 1 1.052-.326v-.746c0-.147.048-.27.144-.368A.48.48 0 0 1 15.35 7a.47.47 0 0 1 .361.158c.103.098.155.22.155.368v.729c.235.024.486.08.752.165.358.112.664.27.918.473a.607.607 0 0 1 .206.294.535.535 0 0 1-.144.568.5.5 0 0 1-.289.126c-.11.007-.237-.031-.381-.115a2.999 2.999 0 0 0-1.557-.4c-.44 0-.787.102-1.042.305a.944.944 0 0 0-.37.778.77.77 0 0 0 .226.578c.151.14.409.253.773.337l1.124.252c.66.147 1.145.382 1.454.705.31.315.464.732.464 1.251 0 .407-.1.768-.299 1.083-.2.309-.474.557-.825.747-.294.156-.63.263-1.01.321v.751a.5.5 0 0 1-.145.368.48.48 0 0 1-.37.158Zm-8.69-1.21c-.213 0-.378-.059-.495-.178-.11-.126-.165-.298-.165-.515v-6.12c0-.224.058-.393.175-.505.117-.12.282-.179.495-.179h2.485c.798 0 1.413.197 1.846.59.433.385.65.928.65 1.63 0 .455-.1.847-.3 1.177a1.87 1.87 0 0 1-.845.757c-.15.07-.312.127-.486.169.107.034.208.083.3.146.213.14.399.361.557.663l.773 1.461c.083.148.12.291.114.432a.492.492 0 0 1-.155.347c-.096.084-.237.126-.423.126a.809.809 0 0 1-.453-.116 1.078 1.078 0 0 1-.31-.379l-1.041-1.955c-.124-.239-.272-.396-.443-.473-.165-.085-.378-.127-.64-.127h-.98v2.356c0 .217-.054.389-.164.515-.11.12-.275.179-.495.179Zm.66-4.048h1.608c.475 0 .832-.098 1.073-.294.247-.203.37-.505.37-.904 0-.393-.123-.687-.37-.884-.24-.203-.598-.305-1.073-.305H7.32v2.387Z" clip-rule="evenodd"/>
</svg>
