<svg width="24" height="24" viewBox="0 0 24 24" fill="none" xmlns="http://www.w3.org/2000/svg">
<path fill-rule="evenodd" clip-rule="evenodd" d="M13.8181 5.83457C13.9349 5.58057 14 5.29789 14 5.00001C14 3.89544 13.1046 3 12 3C10.8954 3 10 3.89544 10 5.00001C10 5.2979 10.0651 5.58059 10.1819 5.8346C8.32496 6.03242 6.5996 6.57628 5.23046 7.69925C4.10967 8.61853 3.33142 9.83743 2.88806 11.3405C1.75141 11.6568 1.06854 12.5188 1.00533 14.2514C0.944528 16.0065 1.39983 16.619 2.59854 16.8483C2.90282 18.7558 3.68397 20.2203 5.14525 21.1782C6.91513 22.3384 9.37425 22.5 12.0001 22.5C14.626 22.5 17.0851 22.3384 18.855 21.1782C20.3162 20.2203 21.0973 18.7559 21.4016 16.8486C22.6013 16.6195 23.057 16.0071 22.9962 14.2514C22.9329 12.5181 22.2495 11.6561 21.1121 11.3402C20.6687 9.83722 19.8905 8.61845 18.7698 7.69925C17.4006 6.57624 15.6751 6.03238 13.8181 5.83457ZM12.0001 21C17.3474 21 20.0547 20.2221 20.0547 14.7234C20.0547 9.05851 16.7764 7.24335 12.0001 7.24335C7.22381 7.24335 3.94556 9.05851 3.94556 14.7234C3.94556 20.2221 6.6528 21 12.0001 21Z" fill="#454545"/>
<path fill-rule="evenodd" clip-rule="evenodd" d="M18.6744 16.6837C18.7802 14.8201 18.6184 13.0854 18.2448 11.2873C18.1472 10.6508 17.7594 10.178 17.3373 9.8512C16.9087 9.51942 16.374 9.27893 15.8226 9.10194C14.715 8.74641 13.3269 8.58005 11.9831 8.57728C10.64 8.5745 9.25309 8.73496 8.14954 9.09036C7.60019 9.26728 7.06579 9.50989 6.63948 9.84856C6.21961 10.1821 5.84473 10.6611 5.75879 11.2977C5.38673 13.0921 5.2258 14.8237 5.33137 16.6837C5.36893 17.3454 5.7825 18.0209 6.24182 18.4755C6.68857 18.9177 7.30356 19.2736 8.01071 19.3441L8.01348 19.3444C10.6842 19.6033 13.3149 19.6033 15.992 19.3444L16.0327 19.3405L16.0729 19.3333C16.6779 19.2244 17.2734 18.918 17.7361 18.4969C18.2427 18.0358 18.6349 17.3803 18.6744 16.6837ZM8.51408 14.5161C8.50934 14.2439 8.28709 14.0248 8.01379 14.025C7.7406 14.0252 7.51365 14.2536 7.51416 14.5266L7.51417 14.5278L7.51428 14.5371C7.51609 14.5981 7.52054 14.6593 7.5387 14.7537C7.5615 14.8721 7.60781 15.0357 7.70467 15.2039C7.91721 15.5729 8.32917 15.8836 9.00256 15.8836C9.67595 15.8836 10.0879 15.5729 10.3005 15.2039C10.3973 15.0357 10.4436 14.8721 10.4664 14.7537C10.4855 14.6546 10.4905 14.5918 10.491 14.5278L10.491 14.5266C10.4918 14.2501 10.2678 14.0252 9.99134 14.025C9.71755 14.0248 9.49579 14.2439 9.49104 14.5161L9.49072 14.5206C9.48861 14.546 9.47344 14.6361 9.43391 14.7048C9.39918 14.7651 9.31694 14.8836 9.00256 14.8836C8.68818 14.8836 8.60594 14.7651 8.57122 14.7048C8.53169 14.6361 8.51651 14.546 8.51441 14.5206L8.51408 14.5161ZM14.5143 14.5161C14.5096 14.2439 14.2873 14.0248 14.014 14.025C13.7408 14.0252 13.5139 14.2536 13.5144 14.5266L13.5144 14.5278L13.5145 14.5371C13.5163 14.5981 13.5208 14.6593 13.5389 14.7537C13.5617 14.8721 13.6081 15.0357 13.7049 15.2039C13.9175 15.5729 14.3294 15.8836 15.0028 15.8836C15.6762 15.8836 16.0882 15.5729 16.3007 15.2039C16.3976 15.0357 16.4439 14.8721 16.4667 14.7537C16.4857 14.6546 16.4907 14.5918 16.4912 14.5278L16.4912 14.5266C16.492 14.2501 16.268 14.0252 15.9916 14.025C15.7178 14.0248 15.496 14.2439 15.4913 14.5161L15.491 14.5206C15.4889 14.546 15.4737 14.6361 15.4342 14.7048C15.3994 14.7651 15.3172 14.8836 15.0028 14.8836C14.6884 14.8836 14.6062 14.7651 14.5715 14.7048C14.5319 14.6361 14.5168 14.546 14.5147 14.5206L14.5143 14.5161Z" fill="#454545"/>
</svg>
