<svg width="24" height="24" viewBox="0 0 24 24" fill="none" xmlns="http://www.w3.org/2000/svg">
<path d="M20.3998 10.2L5.39979 3.00005C4.69979 2.70005 3.89979 2.80005 3.29979 3.30005C2.69979 3.80005 2.39979 4.50005 2.59979 5.30005L3.69979 11H12.9998C13.5998 11 13.9998 11.4 13.9998 12C13.9998 12.6 13.5998 13 12.9998 13H3.69979L3.49979 14.8L2.59979 18.7C2.39979 19.5 2.69979 20.2001 3.29979 20.7001C3.69979 21.0001 4.09979 21.1 4.49979 21.1C4.79979 21.1 5.09979 21 5.39979 20.9L20.3998 13.7C21.0998 13.4 21.4998 12.7 21.4998 11.9C21.4998 11.2 21.0998 10.5 20.3998 10.2Z" fill="black"/>
<path d="M21.3301 11.81C21.3053 11.3592 21.163 10.9227 20.9174 10.5438C20.6719 10.1649 20.3315 9.85681 19.9301 9.65004L13.5501 6.34004L7.3101 3.11004C6.80411 2.86363 6.2428 2.75284 5.68113 2.78852C5.11947 2.8242 4.57669 3.00512 4.10594 3.31358C3.6352 3.62203 3.25262 4.04744 2.99567 4.54816C2.73872 5.04888 2.6162 5.60775 2.6401 6.17004L3.2401 9.47004C3.35321 9.98213 3.64014 10.4393 4.05213 10.7638C4.46413 11.0882 4.97576 11.2601 5.5001 11.25H13.0001C13.199 11.25 13.3898 11.3291 13.5304 11.4697C13.6711 11.6104 13.7501 11.8011 13.7501 12C13.7501 12.199 13.6711 12.3897 13.5304 12.5304C13.3898 12.671 13.199 12.75 13.0001 12.75H5.1301C4.69652 12.7382 4.27204 12.8758 3.92791 13.1398C3.58377 13.4038 3.34092 13.7782 3.2401 14.2V14.2L2.6401 17.49C2.61439 18.0532 2.73558 18.6133 2.99178 19.1154C3.24798 19.6175 3.63038 20.0444 4.10143 20.3541C4.57247 20.6637 5.11596 20.8455 5.67851 20.8816C6.24106 20.9178 6.80333 20.8069 7.3101 20.56L13.5501 17.32L19.9201 14C20.3229 13.7924 20.6642 13.4828 20.9098 13.102C21.1555 12.7212 21.297 12.2826 21.3201 11.83V11.77L21.3301 11.81Z" fill="black"/>
</svg>
