<svg width="24" height="24" viewBox="0 0 24 24" fill="none" xmlns="http://www.w3.org/2000/svg">
<path fill-rule="evenodd" clip-rule="evenodd" d="M6.40074 3.71433C8.03732 2.60834 9.96479 2.01179 11.94 1.99994C13.2583 1.99203 14.5651 2.24485 15.7853 2.74385C17.0055 3.24285 18.1149 3.9782 19.0499 4.90757C19.9848 5.83694 20.7268 6.94201 21.2331 8.15919C21.7394 9.37638 22 10.6817 22 11.9999C22 13.9752 21.415 15.9062 20.3188 17.5494C19.2226 19.1925 17.6643 20.4742 15.8406 21.2329C14.0168 21.9915 12.0092 22.193 10.0711 21.812C8.13291 21.4309 6.351 20.4845 4.95012 19.0919C3.54923 17.6994 2.59212 15.9232 2.19952 13.9874C1.80692 12.0515 1.99641 10.0428 2.7441 8.21449C3.49178 6.38622 4.76417 4.82032 6.40074 3.71433ZM13.3542 17.7641C13.7293 17.3891 13.94 16.8804 13.94 16.3499L13.93 14.8199C13.9088 14.6372 13.8212 14.4687 13.6838 14.3463C13.5465 14.224 13.3689 14.1564 13.185 14.1564C13.0011 14.1564 12.8235 14.224 12.6862 14.3463C12.5488 14.4687 12.4612 14.6372 12.44 14.8199H6.94V7.63994C6.94 7.51528 6.98952 7.39574 7.07766 7.3076C7.16581 7.21945 7.28535 7.16994 7.41 7.16994H10.46C10.6589 7.16994 10.8497 7.09092 10.9903 6.95027C11.131 6.80961 11.21 6.61885 11.21 6.41994C11.21 6.22102 11.131 6.03026 10.9903 5.88961C10.8497 5.74895 10.6589 5.66994 10.46 5.66994H7.41C6.87957 5.66994 6.37086 5.88065 5.99579 6.25572C5.62072 6.6308 5.41 7.1395 5.41 7.66994V16.3499C5.41 16.8804 5.62072 17.3891 5.99579 17.7641C6.37086 18.1392 6.87957 18.3499 7.41 18.3499H11.94C12.4704 18.3499 12.9791 18.1392 13.3542 17.7641ZM10.1942 8.82009C10.3344 8.70018 10.4255 8.53279 10.45 8.34994L10.44 8.28994C10.444 8.18847 10.4277 8.08723 10.3919 7.9922C10.3561 7.89716 10.3017 7.81025 10.2318 7.73661C10.1619 7.66297 10.0779 7.60408 9.98485 7.56343C9.89179 7.52278 9.79154 7.50119 9.69 7.49994H9.08C8.88109 7.49994 8.69033 7.57895 8.54967 7.71961C8.40902 7.86026 8.33 8.05102 8.33 8.24994C8.33 8.44885 8.40902 8.63961 8.54967 8.78027C8.69033 8.92092 8.88109 8.99994 9.08 8.99994H9.69C9.87445 9.00404 10.0539 8.94001 10.1942 8.82009ZM16.73 13.4799C17.0985 13.1578 17.4335 12.7993 17.73 12.4099L17.72 12.3499C18.4108 11.2559 18.6409 9.93299 18.36 8.66994C18.251 8.08934 17.9661 7.5563 17.544 7.14308C17.1218 6.72986 16.5828 6.45646 16 6.35994C15.4803 6.28398 14.954 6.26386 14.43 6.29994C13.5765 6.27017 12.7296 6.45952 11.97 6.84994C11.4765 7.1992 11.0868 7.67548 10.8421 8.22829C10.5974 8.7811 10.5068 9.38983 10.58 9.98994C10.5602 11.0171 10.9157 12.0162 11.58 12.7999C12.3163 13.4113 13.2337 13.7628 14.19 13.7999V14.2899C14.1912 14.3792 14.2105 14.4674 14.2467 14.549C14.283 14.6306 14.3354 14.704 14.4008 14.7648C14.4663 14.8256 14.5434 14.8724 14.6275 14.9025C14.7115 14.9326 14.8009 14.9454 14.89 14.9399C15.0235 14.92 15.1503 14.8686 15.26 14.7899C15.3395 14.7199 15.4194 14.6498 15.4995 14.5796C15.8421 14.2791 16.1876 13.9761 16.52 13.6599L16.73 13.4799ZM14.49 10.6501C14.7827 10.6501 15.02 10.4128 15.02 10.1201C15.02 9.82738 14.7827 9.59009 14.49 9.59009C14.1972 9.59009 13.96 9.82738 13.96 10.1201C13.96 10.4128 14.1972 10.6501 14.49 10.6501ZM7.40994 16.8001H11.9999C12.1205 16.7978 12.2357 16.7503 12.3228 16.6669C12.4099 16.5835 12.4624 16.4704 12.4699 16.3501H6.93994C6.94745 16.4704 6.99997 16.5835 7.08705 16.6669C7.17414 16.7503 7.2894 16.7978 7.40994 16.8001ZM13.4101 10.1201C13.4101 10.4128 13.1728 10.6501 12.8801 10.6501C12.5874 10.6501 12.3501 10.4128 12.3501 10.1201C12.3501 9.82738 12.5874 9.59009 12.8801 9.59009C13.1728 9.59009 13.4101 9.82738 13.4101 10.1201ZM16.0998 10.6501C16.3925 10.6501 16.6298 10.4128 16.6298 10.1201C16.6298 9.82738 16.3925 9.59009 16.0998 9.59009C15.8071 9.59009 15.5698 9.82738 15.5698 10.1201C15.5698 10.4128 15.8071 10.6501 16.0998 10.6501Z" fill="black"/>
</svg>
