<svg xmlns="http://www.w3.org/2000/svg" width="24" height="24" fill="none" viewBox="0 0 24 24"><path fill="#282828" d="M19.4 11.164h-.003c-3.295-.43-5.659-1.09-6.318-1.767-.29-.293-1.033-1.446-1.716-5.768C11.307 3.246 10.967 3 10.5 3s-.807.25-.863.633C8.95 7.951 8.207 9.104 7.92 9.397c-.66.676-3.023 1.333-6.318 1.767-.365.05-.603.379-.603.836 0 .45.241.786.603.836 3.295.434 5.659 1.095 6.318 1.767.29.293 1.033 1.446 1.716 5.768.056.383.396.629.863.629s.807-.25.863-.633c.686-4.318 1.43-5.471 1.716-5.764.66-.676 3.023-1.333 6.318-1.767.362-.05.603-.387.603-.836 0-.45-.241-.786-.6-.836M15.222 4.825h-.001c-.132-.02-.221-.15-.221-.325s.089-.305.222-.325c1.214-.169 2.085-.424 2.328-.687.106-.114.38-.562.632-2.242.02-.149.146-.246.318-.246s.297.096.318.245c.251 1.68.525 2.129.632 2.243.243.261 1.114.518 2.328.687.133.02.222.15.222.325 0 .178-.087.305-.222.325-1.214.169-2.085.424-2.328.687-.106.114-.38.562-.632 2.242-.02.149-.146.246-.318.246s-.297-.096-.318-.245c-.251-1.68-.525-2.129-.632-2.243-.243-.263-1.114-.52-2.328-.687"/><path fill="#282828" d="M22.716 18.082h-.002c-1.56-.215-2.68-.545-2.993-.883-.137-.147-.489-.723-.812-2.884-.027-.192-.188-.315-.409-.315s-.382.125-.409.316c-.325 2.16-.677 2.736-.812 2.883-.313.338-1.433.666-2.993.883-.173.025-.286.19-.286.418 0 .225.114.393.286.418 1.56.217 2.68.547 2.993.883.137.147.489.723.812 2.884.027.192.188.315.409.315s.382-.125.409-.317c.325-2.159.677-2.735.812-2.882.313-.338 1.433-.666 2.993-.883.172-.025.286-.193.286-.418s-.114-.393-.284-.418"/></svg>