<svg xmlns="http://www.w3.org/2000/svg" width="24" height="24" fill="none" viewBox="0 0 24 24">
  <path fill="#282828" d="M19.4 12.84c-3.3.43-5.66 1.09-6.32 1.76-.3.3-1.03 1.45-1.72 5.77-.05.38-.4.63-.86.63-.47 0-.8-.25-.86-.63-.69-4.32-1.43-5.47-1.72-5.77-.66-.67-3.02-1.33-6.32-1.76-.36-.05-.6-.38-.6-.84s.24-.79.6-.84c3.3-.43 5.66-1.1 6.32-1.76.3-.3 1.03-1.45 1.72-5.77.05-.38.4-.63.86-.63.47 0 .8.25.86.63.69 4.32 1.43 5.47 1.72 5.77.66.67 3.02 1.33 6.32 1.76.36.05.6.4.6.84 0 .45-.24.79-.6.84"/>
  <path fill="url(#a)" d="M19.4 12.84c-3.3.43-5.66 1.09-6.32 1.76-.3.3-1.03 1.45-1.72 5.77-.05.38-.4.63-.86.63-.47 0-.8-.25-.86-.63-.69-4.32-1.43-5.47-1.72-5.77-.66-.67-3.02-1.33-6.32-1.76-.36-.05-.6-.38-.6-.84s.24-.79.6-.84c3.3-.43 5.66-1.1 6.32-1.76.3-.3 1.03-1.45 1.72-5.77.05-.38.4-.63.86-.63.47 0 .8.25.86.63.69 4.32 1.43 5.47 1.72 5.77.66.67 3.02 1.33 6.32 1.76.36.05.6.4.6.84 0 .45-.24.79-.6.84"/>
  <path fill="#282828" d="M15.22 19.17c-.13.02-.22.16-.22.33q.01.27.22.33c1.22.16 2.09.42 2.33.68.1.12.38.56.63 2.24q.05.24.32.25.27-.02.32-.24c.25-1.69.52-2.13.63-2.25.24-.26 1.11-.52 2.33-.68.13-.02.22-.16.22-.33q-.01-.28-.22-.33c-1.22-.16-2.09-.42-2.33-.68-.1-.12-.38-.56-.63-2.24q-.05-.24-.32-.25-.27.02-.32.24c-.25 1.69-.52 2.13-.63 2.25-.24.26-1.11.52-2.33.68"/>
  <path fill="url(#b)" d="M15.22 19.17c-.13.02-.22.16-.22.33q.01.27.22.33c1.22.16 2.09.42 2.33.68.1.12.38.56.63 2.24q.05.24.32.25.27-.02.32-.24c.25-1.69.52-2.13.63-2.25.24-.26 1.11-.52 2.33-.68.13-.02.22-.16.22-.33q-.01-.28-.22-.33c-1.22-.16-2.09-.42-2.33-.68-.1-.12-.38-.56-.63-2.24q-.05-.24-.32-.25-.27.02-.32.24c-.25 1.69-.52 2.13-.63 2.25-.24.26-1.11.52-2.33.68"/>
  <path fill="#282828" d="M22.72 5.92c-1.57.21-2.69.54-3 .88-.14.15-.49.72-.81 2.89q-.06.3-.41.31c-.22 0-.38-.13-.4-.32-.33-2.16-.69-2.73-.82-2.88-.31-.34-1.43-.66-3-.88-.17-.03-.28-.2-.28-.42s.11-.4.29-.42c1.56-.22 2.68-.55 2.99-.88.14-.15.49-.72.81-2.89q.06-.3.41-.31c.22 0 .38.13.4.32.33 2.16.69 2.73.82 2.88.31.34 1.43.66 3 .88.17.03.28.2.28.42s-.11.4-.28.42"/>
  <path fill="url(#c)" d="M22.72 5.92c-1.57.21-2.69.54-3 .88-.14.15-.49.72-.81 2.89q-.06.3-.41.31c-.22 0-.38-.13-.4-.32-.33-2.16-.69-2.73-.82-2.88-.31-.34-1.43-.66-3-.88-.17-.03-.28-.2-.28-.42s.11-.4.29-.42c1.56-.22 2.68-.55 2.99-.88.14-.15.49-.72.81-2.89q.06-.3.41-.31c.22 0 .38.13.4.32.33 2.16.69 2.73.82 2.88.31.34 1.43.66 3 .88.17.03.28.2.28.42s-.11.4-.28.42"/>
  <defs>
    <linearGradient id="a" x1="1" x2="25.3" y1="23" y2="20.07" gradientUnits="userSpaceOnUse">
      <stop stop-color="#eeb6ff"/>
      <stop offset="1" stop-color="#0096fa"/>
    </linearGradient>
    <linearGradient id="b" x1="1" x2="25.3" y1="23" y2="20.07" gradientUnits="userSpaceOnUse">
      <stop stop-color="#eeb6ff"/>
      <stop offset="1" stop-color="#0096fa"/>
    </linearGradient>
    <linearGradient id="c" x1="1" x2="25.3" y1="23" y2="20.07" gradientUnits="userSpaceOnUse">
      <stop stop-color="#eeb6ff"/>
      <stop offset="1" stop-color="#0096fa"/>
    </linearGradient>
  </defs>
</svg>
