<svg width="24" height="24" viewBox="0 0 24 24" fill="none" xmlns="http://www.w3.org/2000/svg">
<path d="M18.9998 12.5C19.0036 12.39 18.9396 12.2801 18.8116 12.2644C16.9664 12.0209 13.2196 11.4005 12.1652 10.3206C11.2389 9.36641 10.6138 6.27209 10.2862 4.18695C10.2636 4.02595 10.113 3.97098 10 4.01417C9.88703 3.97098 9.73641 4.02595 9.71381 4.18695C9.3862 6.27209 8.76111 9.36641 7.83477 10.3206C6.78039 11.4005 3.03359 12.0209 1.18844 12.2644C1.06041 12.2801 0.996391 12.39 1.00016 12.4961V12.5V12.5039C0.996391 12.6099 1.06041 12.7199 1.18844 12.7356C3.03359 12.9791 6.78039 13.5995 7.83477 14.6794C8.76111 15.6336 9.3862 18.7279 9.71381 20.813C9.73641 20.974 9.88703 21.029 10 20.9858C10.113 21.029 10.2636 20.974 10.2862 20.813C10.6138 18.7279 11.2389 15.6336 12.1652 14.6794C13.2196 13.5995 16.9664 12.9791 18.8116 12.7356C18.9396 12.7199 19.0036 12.61 18.9998 12.5C18.9998 12.5039 18.9998 12.5039 18.9998 12.5Z" fill="#454545"/>
<path d="M21.9997 6.00364C22.0034 5.95273 21.9701 5.90182 21.9071 5.89092C20.985 5.77456 19.111 5.48367 18.5851 4.97461C18.1222 4.52736 17.8111 3.06926 17.6444 2.0875C17.6333 2.01114 17.5593 1.98569 17.5 2.00751C17.4444 1.98569 17.3704 2.01114 17.3556 2.0875C17.1926 3.06926 16.8778 4.52372 16.4149 4.97461C15.889 5.48367 14.015 5.77456 13.0929 5.89092C13.0299 5.89819 12.9966 5.94909 13.0003 6C12.9966 6.05091 13.0299 6.10181 13.0929 6.10908C14.015 6.22544 15.889 6.51633 16.4149 7.02539C16.8778 7.47264 17.1889 8.93074 17.3556 9.9125C17.3667 9.98886 17.4407 10.0143 17.5 9.99249C17.5556 10.0143 17.6296 9.98886 17.6444 9.9125C17.8074 8.93074 18.1222 7.47628 18.5851 7.02539C19.111 6.51633 20.985 6.22544 21.9071 6.10908C21.9664 6.10908 21.9997 6.05454 21.9997 6.00364Z" fill="#454545"/>
<path d="M23 18.5049C23 18.4464 22.9657 18.3878 22.897 18.3781C21.8715 18.2513 19.7911 17.9196 19.2023 17.349C18.6871 16.8418 18.3388 15.2031 18.1572 14.1009C18.1425 14.018 18.064 13.9887 18.0002 14.0083C17.9364 13.9839 17.853 14.0131 17.8432 14.1009C17.6617 15.2031 17.3133 16.8418 16.7981 17.349C16.2142 17.9196 14.1289 18.2513 13.1034 18.3781C13.0348 18.3878 12.9955 18.4464 13.0004 18.5C13.0004 18.5585 13.0348 18.6122 13.1034 18.6219C14.1289 18.7487 16.2093 19.0804 16.7981 19.651C17.3133 20.1582 17.6617 21.7969 17.8432 22.8991C17.8579 22.982 17.9364 23.0113 18.0002 22.9917C18.064 23.0161 18.1474 22.9869 18.1572 22.8991C18.3388 21.7969 18.6871 20.1582 19.2023 19.651C19.7862 19.0804 21.8715 18.7487 22.897 18.6219C22.9657 18.6219 23 18.5634 23 18.5049C23 18.5098 23 18.5098 23 18.5049Z" fill="#454545"/>
</svg>
