<svg width="30" height="30" viewBox="0 0 30 30" fill="none" xmlns="http://www.w3.org/2000/svg">
<path d="M24.5341 15.7817H24.5291C20.136 16.3549 16.9844 17.2355 16.1048 18.1369C15.7177 18.5277 14.7275 20.0648 13.8177 25.8277C13.7423 26.3384 13.2899 26.6666 12.6667 26.6666C12.0434 26.6666 11.591 26.3332 11.5156 25.8225C10.6008 20.0648 9.61058 18.5277 9.22857 18.1369C8.34894 17.2355 5.19735 16.3601 0.804233 15.7817C0.316667 15.714 0 15.2763 0 14.6666C0 14.0674 0.321693 13.6193 0.804233 13.5516C5.19735 12.9732 8.34894 12.0926 9.22857 11.1964C9.61561 10.8056 10.6058 9.26847 11.5156 3.50555C11.591 2.99491 12.0434 2.66665 12.6667 2.66665C13.2899 2.66665 13.7423 3.00012 13.8177 3.51076C14.7325 9.26847 15.7228 10.8056 16.1048 11.1964C16.9844 12.0978 20.136 12.9732 24.5291 13.5516C25.0116 13.6193 25.3333 14.0674 25.3333 14.6666C25.3333 15.2659 25.0116 15.714 24.5341 15.7817Z" fill="url(#paint0_linear_1175_17227)"/>
<path d="M18.963 24.233H18.9611C18.7852 24.2594 18.6667 24.4336 18.6667 24.6666C18.6667 24.8997 18.7852 25.0739 18.963 25.1003C20.5815 25.3252 21.7426 25.6656 22.0667 26.0162C22.2074 26.1682 22.5722 26.7659 22.9093 29.005C22.937 29.2036 23.1037 29.3333 23.3333 29.3333C23.563 29.3333 23.7296 29.2057 23.7574 29.0071C24.0926 26.7659 24.4574 26.1682 24.6 26.0162C24.9241 25.6677 26.0852 25.3252 27.7037 25.1003C27.8815 25.0739 28 24.8997 28 24.6666C28 24.4296 27.8833 24.2594 27.7037 24.233C26.0852 24.0081 24.9241 23.6677 24.6 23.3171C24.4593 23.1651 24.0944 22.5674 23.7574 20.3282C23.7296 20.1297 23.563 20 23.3333 20C23.1037 20 22.937 20.1276 22.9093 20.3262C22.5741 22.5674 22.2093 23.1651 22.0667 23.3171C21.7426 23.6677 20.5815 24.0101 18.963 24.233Z" fill="url(#paint1_linear_1175_17227)"/>
<path d="M28.9548 6.55751H28.9524C26.8714 6.8441 25.3786 7.28439 24.9619 7.73511C24.7786 7.9305 24.3095 8.69907 23.8786 11.5805C23.8429 11.8358 23.6286 12 23.3333 12C23.0381 12 22.8238 11.8332 22.7881 11.5779C22.3548 8.69907 21.8857 7.9305 21.7048 7.73511C21.2881 7.28439 19.7952 6.8467 17.7143 6.55751C17.4833 6.52365 17.3333 6.3048 17.3333 5.99998C17.3333 5.70037 17.4857 5.47631 17.7143 5.44245C19.7952 5.15326 21.2881 4.71296 21.7048 4.26485C21.8881 4.06945 22.3571 3.30089 22.7881 0.419434C22.8238 0.164114 23.0381 -2.09808e-05 23.3333 -2.09808e-05C23.6286 -2.09808e-05 23.8429 0.166718 23.8786 0.422037C24.3119 3.30089 24.781 4.06945 24.9619 4.26485C25.3786 4.71557 26.8714 5.15326 28.9524 5.44245C29.181 5.47631 29.3333 5.70037 29.3333 5.99998C29.3333 6.29959 29.181 6.52365 28.9548 6.55751Z" fill="url(#paint2_linear_1175_17227)"/>
<defs>
<linearGradient id="paint0_linear_1175_17227" x1="-0.337254" y1="29.6667" x2="32.877" y2="25.6668" gradientUnits="userSpaceOnUse">
<stop stop-color="#0099FF"/>
<stop offset="1" stop-color="#DC68FF"/>
</linearGradient>
<linearGradient id="paint1_linear_1175_17227" x1="-0.337254" y1="29.6667" x2="32.877" y2="25.6668" gradientUnits="userSpaceOnUse">
<stop stop-color="#0099FF"/>
<stop offset="1" stop-color="#DC68FF"/>
</linearGradient>
<linearGradient id="paint2_linear_1175_17227" x1="-0.337254" y1="29.6667" x2="32.877" y2="25.6668" gradientUnits="userSpaceOnUse">
<stop stop-color="#0099FF"/>
<stop offset="1" stop-color="#DC68FF"/>
</linearGradient>
</defs>
</svg>
