<svg width="24" height="24" viewBox="0 0 24 24" fill="none" xmlns="http://www.w3.org/2000/svg">
<path fill-rule="evenodd" clip-rule="evenodd" d="M1 4C1 2.89543 1.89543 2 3 2H21C22.1046 2 23 2.89543 23 4V5.10706L1 5.10706V4ZM1 6.60706V20C1 21.1046 1.89543 22 3 22H7.82153V15.0109C7.82153 13.4921 9.05275 12.2609 10.5715 12.2609H13.4094C14.9282 12.2609 16.1594 13.4921 16.1594 15.0109V22H21C22.1046 22 23 21.1046 23 20V6.60706L1 6.60706ZM14.6594 15.0109V22H9.32153V15.0109C9.32153 14.3205 9.88118 13.7609 10.5715 13.7609H13.4094C14.0998 13.7609 14.6594 14.3205 14.6594 15.0109ZM2.49536 6.59851C2.49536 8.0726 3.69034 9.26758 5.16443 9.26758C6.63851 9.26758 7.8335 8.0726 7.8335 6.59851H9.3335C9.3335 8.0726 10.5285 9.26758 12.0026 9.26758C13.4766 9.26758 14.6716 8.0726 14.6716 6.59851H16.1716C16.1716 8.0726 17.3666 9.26758 18.8407 9.26758C20.3148 9.26758 21.5098 8.0726 21.5098 6.59851H23.0098C23.0098 8.90102 21.1432 10.7676 18.8407 10.7676C17.4257 10.7676 16.1753 10.0626 15.4216 8.98474C14.668 10.0626 13.4176 10.7676 12.0026 10.7676C10.5875 10.7676 9.33717 10.0626 8.5835 8.98475C7.82983 10.0626 6.57945 10.7676 5.16443 10.7676C2.86192 10.7676 0.995361 8.90102 0.995361 6.59851H2.49536Z" fill="#292929"/>
</svg>
