<svg width="24" height="24" viewBox="0 0 24 24" fill="none" xmlns="http://www.w3.org/2000/svg">
<path fill-rule="evenodd" clip-rule="evenodd" d="M20.4996 9.04352C20.4996 8.22713 19.8378 7.56531 19.0214 7.56531H18.036C17.7638 7.56531 17.5432 7.78591 17.5432 8.05804C17.5432 8.33018 17.7638 8.55078 18.036 8.55078H19.0214C19.2936 8.55078 19.5142 8.77139 19.5142 9.04352V11.0145C19.5142 11.3931 19.6565 11.7384 19.8906 11.9999C19.6565 12.2615 19.5142 12.6068 19.5142 12.9854V14.9564C19.5142 15.2285 19.2936 15.4491 19.0214 15.4491H18.036C17.7638 15.4491 17.5432 15.6697 17.5432 15.9418C17.5432 16.214 17.7638 16.4346 18.036 16.4346H19.0214C19.8378 16.4346 20.4996 15.7728 20.4996 14.9564V12.9854C20.4996 12.7133 20.7202 12.4927 20.9924 12.4927C21.2645 12.4927 21.4851 12.2721 21.4851 11.9999C21.4851 11.7278 21.2645 11.5072 20.9924 11.5072C20.7202 11.5072 20.4996 11.2866 20.4996 11.0145V9.04352Z" fill="#454545"/>
<path d="M4.97858 7.56531C4.16219 7.56531 3.50037 8.22713 3.50037 9.04352V11.0145C3.50037 11.2866 3.27976 11.5072 3.00763 11.5072C2.7355 11.5072 2.51489 11.7278 2.51489 11.9999C2.51489 12.2721 2.7355 12.4927 3.00763 12.4927C3.27976 12.4927 3.50037 12.7133 3.50037 12.9854V14.9564C3.50037 15.7728 4.16219 16.4346 4.97858 16.4346H5.96405C6.23619 16.4346 6.45679 16.214 6.45679 15.9418C6.45679 15.6697 6.23619 15.4491 5.96405 15.4491H4.97858C4.70645 15.4491 4.48584 15.2285 4.48584 14.9564V12.9854C4.48584 12.6068 4.34351 12.2615 4.10944 11.9999C4.34351 11.7384 4.48584 11.3931 4.48584 11.0145V9.04352C4.48584 8.77139 4.70645 8.55078 4.97858 8.55078H5.96405C6.23619 8.55078 6.45679 8.33018 6.45679 8.05804C6.45679 7.78591 6.23619 7.56531 5.96405 7.56531H4.97858Z" fill="#454545"/>
<path d="M15.7704 13.6254C15.4624 13.6254 15.1944 13.5634 14.9664 13.4394C14.7384 13.3114 14.5624 13.1314 14.4384 12.8994C14.3144 12.6674 14.2524 12.3954 14.2524 12.0834C14.2524 11.7714 14.3144 11.5034 14.4384 11.2794C14.5624 11.0514 14.7384 10.8774 14.9664 10.7574C15.1944 10.6334 15.4624 10.5714 15.7704 10.5714C15.9584 10.5714 16.1444 10.6014 16.3284 10.6614C16.5124 10.7214 16.6644 10.8054 16.7844 10.9134L16.5624 11.4354C16.4584 11.3434 16.3404 11.2734 16.2084 11.2254C16.0804 11.1774 15.9564 11.1534 15.8364 11.1534C15.5764 11.1534 15.3744 11.2354 15.2304 11.3994C15.0904 11.5594 15.0204 11.7894 15.0204 12.0894C15.0204 12.3854 15.0904 12.6194 15.2304 12.7914C15.3744 12.9594 15.5764 13.0434 15.8364 13.0434C15.9524 13.0434 16.0764 13.0194 16.2084 12.9714C16.3404 12.9234 16.4584 12.8514 16.5624 12.7554L16.7844 13.2834C16.6644 13.3874 16.5104 13.4714 16.3224 13.5354C16.1384 13.5954 15.9544 13.6254 15.7704 13.6254Z" fill="#454545"/>
<path fill-rule="evenodd" clip-rule="evenodd" d="M14.9174 13.5265C14.6727 13.3891 14.4831 13.1952 14.3502 12.9465C14.2171 12.6975 14.1523 12.4087 14.1523 12.0833C14.1523 11.7582 14.217 11.4729 14.3507 11.2312C14.4839 10.9864 14.674 10.7983 14.9192 10.6691C15.1642 10.536 15.449 10.4713 15.7703 10.4713C15.9692 10.4713 16.1656 10.5031 16.3593 10.5662C16.554 10.6297 16.719 10.72 16.8512 10.839L16.9043 10.8867L16.6 11.6022L16.4961 11.5102C16.4016 11.4266 16.2945 11.3631 16.1742 11.3193C16.0559 11.2749 15.9428 11.2533 15.8363 11.2533C15.5991 11.2533 15.4269 11.3271 15.3055 11.4653C15.187 11.6008 15.1203 11.8037 15.1203 12.0893C15.1203 12.3694 15.1863 12.5783 15.3071 12.7272C15.4287 12.8685 15.6004 12.9433 15.8363 12.9433C15.9385 12.9433 16.0509 12.9222 16.1742 12.8773C16.2936 12.8339 16.4002 12.7689 16.4945 12.6818L16.5993 12.5851L16.9046 13.3114L16.8498 13.3589C16.718 13.4732 16.5518 13.5628 16.3546 13.63L16.3533 13.6304C16.1599 13.6935 15.9654 13.7253 15.7703 13.7253C15.4488 13.7253 15.1637 13.6605 14.9186 13.5272L14.9174 13.5265ZM15.2303 12.7913C15.0903 12.6193 15.0203 12.3853 15.0203 12.0893C15.0203 11.7893 15.0903 11.5593 15.2303 11.3993C15.3743 11.2353 15.5763 11.1533 15.8363 11.1533C15.9563 11.1533 16.0803 11.1773 16.2083 11.2253C16.3072 11.2613 16.3982 11.3096 16.4814 11.3702C16.5092 11.3905 16.5362 11.4122 16.5623 11.4353L16.7843 10.9133C16.6643 10.8053 16.5123 10.7213 16.3283 10.6613C16.1443 10.6013 15.9583 10.5713 15.7703 10.5713C15.4623 10.5713 15.1943 10.6333 14.9663 10.7573C14.7383 10.8773 14.5623 11.0513 14.4383 11.2793C14.3143 11.5033 14.2523 11.7713 14.2523 12.0833C14.2523 12.3953 14.3143 12.6673 14.4383 12.8993C14.5623 13.1313 14.7383 13.3113 14.9663 13.4393C15.1943 13.5633 15.4623 13.6253 15.7703 13.6253C15.9543 13.6253 16.1383 13.5953 16.3223 13.5353C16.5103 13.4713 16.6643 13.3873 16.7843 13.2833L16.5623 12.7553C16.5365 12.7792 16.5097 12.8016 16.4821 12.8225C16.3988 12.8857 16.3075 12.9353 16.2083 12.9713C16.0763 13.0193 15.9523 13.0433 15.8363 13.0433C15.5763 13.0433 15.3743 12.9593 15.2303 12.7913Z" fill="#454545"/>
<path d="M12.5087 13.6253C12.2927 13.6253 12.0987 13.5773 11.9267 13.4813C11.7587 13.3853 11.6327 13.2553 11.5487 13.0913V13.5653H10.8167V9.33533H11.5667V11.0633C11.6547 10.9153 11.7807 10.7973 11.9447 10.7093C12.1127 10.6173 12.3007 10.5713 12.5087 10.5713C12.7687 10.5713 12.9947 10.6333 13.1867 10.7573C13.3787 10.8813 13.5287 11.0573 13.6367 11.2853C13.7447 11.5093 13.7987 11.7793 13.7987 12.0953C13.7987 12.4073 13.7447 12.6793 13.6367 12.9113C13.5287 13.1393 13.3767 13.3153 13.1807 13.4393C12.9887 13.5633 12.7647 13.6253 12.5087 13.6253ZM12.2987 13.0553C12.5227 13.0553 12.7027 12.9753 12.8387 12.8153C12.9747 12.6513 13.0427 12.4113 13.0427 12.0953C13.0427 11.7753 12.9747 11.5373 12.8387 11.3813C12.7027 11.2213 12.5227 11.1413 12.2987 11.1413C12.0747 11.1413 11.8947 11.2213 11.7587 11.3813C11.6227 11.5373 11.5547 11.7753 11.5547 12.0953C11.5547 12.4113 11.6227 12.6513 11.7587 12.8153C11.8947 12.9753 12.0747 13.0553 12.2987 13.0553Z" fill="#454545"/>
<path fill-rule="evenodd" clip-rule="evenodd" d="M11.8781 13.5687L11.8772 13.5682C11.7914 13.5192 11.7152 13.4617 11.6488 13.3959V13.6654H10.7168V9.23535H11.6668V10.7836C11.7344 10.7216 11.8113 10.6675 11.8971 10.6214C12.081 10.5208 12.2856 10.4714 12.5088 10.4714C12.7853 10.4714 13.0307 10.5375 13.241 10.6733C13.4502 10.8084 13.6119 10.9994 13.727 11.2422C13.843 11.4829 13.8988 11.7684 13.8988 12.0954C13.8988 12.4188 13.8428 12.7058 13.7275 12.9536C13.6122 13.197 13.4479 13.3886 13.2347 13.5236C13.0247 13.6591 12.7815 13.7254 12.5088 13.7254C12.2774 13.7254 12.0664 13.6738 11.8781 13.5687ZM13.1808 13.4394C13.3768 13.3154 13.5288 13.1394 13.6368 12.9114C13.7448 12.6794 13.7988 12.4074 13.7988 12.0954C13.7988 11.7794 13.7448 11.5094 13.6368 11.2854C13.5288 11.0574 13.3788 10.8814 13.1868 10.7574C12.9948 10.6334 12.7688 10.5714 12.5088 10.5714C12.3008 10.5714 12.1128 10.6174 11.9448 10.7094C11.8351 10.7682 11.7425 10.8404 11.6668 10.9261C11.6293 10.9686 11.596 11.0143 11.5668 11.0634V9.33535H10.8168V13.5654H11.5488V13.0914C11.5773 13.147 11.6106 13.1987 11.6488 13.2465C11.7231 13.3396 11.8158 13.4179 11.9268 13.4814C12.0988 13.5774 12.2928 13.6254 12.5088 13.6254C12.7648 13.6254 12.9888 13.5634 13.1808 13.4394ZM12.7626 11.4461C12.647 11.3101 12.4957 11.2414 12.2988 11.2414C12.1019 11.2414 11.9506 11.3101 11.835 11.4461L11.8342 11.4471C11.7208 11.5772 11.6548 11.7869 11.6548 12.0954C11.6548 12.3986 11.7202 12.6119 11.8354 12.7511C11.9509 12.8867 12.1021 12.9554 12.2988 12.9554C12.4955 12.9554 12.6467 12.8867 12.7622 12.7511C12.8774 12.6119 12.9428 12.3986 12.9428 12.0954C12.9428 11.7869 12.8768 11.5772 12.7634 11.4471L12.7626 11.4461ZM12.8388 12.8154C12.7028 12.9754 12.5228 13.0554 12.2988 13.0554C12.0748 13.0554 11.8948 12.9754 11.7588 12.8154C11.6228 12.6514 11.5548 12.4114 11.5548 12.0954C11.5548 11.7754 11.6228 11.5374 11.7588 11.3814C11.8948 11.2214 12.0748 11.1414 12.2988 11.1414C12.5228 11.1414 12.7028 11.2214 12.8388 11.3814C12.9748 11.5374 13.0428 11.7754 13.0428 12.0954C13.0428 12.4114 12.9748 12.6514 12.8388 12.8154Z" fill="#454545"/>
<path d="M8.50156 13.6254C8.28956 13.6254 8.09956 13.5854 7.93156 13.5054C7.76756 13.4214 7.63756 13.3094 7.54156 13.1694C7.44956 13.0294 7.40356 12.8714 7.40356 12.6954C7.40356 12.4794 7.45956 12.3094 7.57156 12.1854C7.68356 12.0574 7.86556 11.9654 8.11756 11.9094C8.36956 11.8534 8.70756 11.8254 9.13156 11.8254H9.34156V11.6994C9.34156 11.4994 9.29756 11.3554 9.20956 11.2674C9.12156 11.1794 8.97356 11.1354 8.76556 11.1354C8.60156 11.1354 8.43356 11.1614 8.26156 11.2134C8.08956 11.2614 7.91556 11.3374 7.73956 11.4414L7.52356 10.9314C7.62756 10.8594 7.74956 10.7974 7.88956 10.7454C8.03356 10.6894 8.18356 10.6474 8.33956 10.6194C8.49956 10.5874 8.64956 10.5714 8.78956 10.5714C9.21756 10.5714 9.53556 10.6714 9.74356 10.8714C9.95156 11.0674 10.0556 11.3734 10.0556 11.7894V13.5654H9.35356V13.0974C9.28556 13.2614 9.17756 13.3914 9.02956 13.4874C8.88156 13.5794 8.70556 13.6254 8.50156 13.6254ZM8.65756 13.1094C8.85356 13.1094 9.01556 13.0414 9.14356 12.9054C9.27556 12.7694 9.34156 12.5974 9.34156 12.3894V12.2574H9.13756C8.76156 12.2574 8.49956 12.2874 8.35156 12.3474C8.20756 12.4034 8.13556 12.5074 8.13556 12.6594C8.13556 12.7914 8.18156 12.8994 8.27356 12.9834C8.36556 13.0674 8.49356 13.1094 8.65756 13.1094Z" fill="#454545"/>
<path fill-rule="evenodd" clip-rule="evenodd" d="M7.88588 13.5943C7.70837 13.5034 7.56519 13.3807 7.45899 13.2259L7.45788 13.2242C7.3546 13.0671 7.30347 12.8898 7.30347 12.6953C7.30347 12.4623 7.3641 12.2661 7.49673 12.1189C7.62834 11.9688 7.83349 11.87 8.09577 11.8117C8.35797 11.7534 8.70418 11.7253 9.13147 11.7253H9.24147V11.6993C9.24147 11.5104 9.19934 11.3986 9.13876 11.338C9.07875 11.278 8.96376 11.2353 8.76547 11.2353C8.61216 11.2353 8.45391 11.2596 8.29041 11.309L8.28835 11.3097C8.12587 11.355 7.95989 11.4272 7.79034 11.5274L7.69195 11.5855L7.39966 10.8954L7.46655 10.8491C7.57832 10.7717 7.70777 10.7062 7.85393 10.6518C8.00358 10.5937 8.15925 10.5501 8.32082 10.5211C8.48589 10.4881 8.64219 10.4713 8.78947 10.4713C9.23076 10.4713 9.57848 10.5742 9.81242 10.7989C10.0479 11.021 10.1555 11.3587 10.1555 11.7893V13.6653H9.25347V13.4319C9.20338 13.4839 9.14682 13.5304 9.08389 13.5712L9.08227 13.5723C8.91588 13.6757 8.72089 13.7253 8.50147 13.7253C8.27667 13.7253 8.07166 13.6828 7.88847 13.5956L7.88588 13.5943ZM9.25347 13.2767C9.29312 13.2223 9.32645 13.1625 9.35347 13.0973V13.5653H10.0555V11.7893C10.0555 11.3733 9.95147 11.0673 9.74347 10.8713C9.53547 10.6713 9.21747 10.5713 8.78947 10.5713C8.64947 10.5713 8.49947 10.5873 8.33947 10.6193C8.18347 10.6473 8.03347 10.6893 7.88947 10.7453C7.74947 10.7973 7.62747 10.8593 7.52347 10.9313L7.73947 11.4413C7.76873 11.424 7.79793 11.4075 7.82708 11.3918C7.97327 11.3128 8.11806 11.2533 8.26147 11.2133C8.43347 11.1613 8.60147 11.1353 8.76547 11.1353C8.97347 11.1353 9.12147 11.1793 9.20947 11.2673C9.29747 11.3553 9.34147 11.4993 9.34147 11.6993V11.8253H9.13147C8.70747 11.8253 8.36947 11.8533 8.11747 11.9093C7.86547 11.9653 7.68347 12.0573 7.57147 12.1853C7.45947 12.3093 7.40347 12.4793 7.40347 12.6953C7.40347 12.8713 7.44947 13.0293 7.54147 13.1693C7.63747 13.3093 7.76747 13.4213 7.93147 13.5053C8.09947 13.5853 8.28947 13.6253 8.50147 13.6253C8.70547 13.6253 8.88147 13.5793 9.02947 13.4873C9.11866 13.4295 9.19333 13.3593 9.25347 13.2767ZM9.07171 12.8357C9.18375 12.7202 9.24147 12.5741 9.24147 12.3893V12.3573H9.13747C8.76153 12.3573 8.51721 12.388 8.38904 12.44L8.38772 12.4405C8.33015 12.4629 8.29402 12.492 8.27169 12.5242C8.24943 12.5564 8.23547 12.5995 8.23547 12.6593C8.23547 12.7651 8.271 12.8456 8.34089 12.9095C8.40926 12.9719 8.51034 13.0093 8.65747 13.0093C8.82743 13.0093 8.96257 12.9516 9.07065 12.8368L9.07171 12.8357ZM9.13747 12.2573C8.76147 12.2573 8.49947 12.2873 8.35147 12.3473C8.20747 12.4033 8.13547 12.5073 8.13547 12.6593C8.13547 12.7913 8.18147 12.8993 8.27347 12.9833C8.36547 13.0673 8.49347 13.1093 8.65747 13.1093C8.85347 13.1093 9.01547 13.0413 9.14347 12.9053C9.27547 12.7693 9.34147 12.5973 9.34147 12.3893V12.2573H9.13747Z" fill="#454545"/>
</svg>
