<svg width="24" height="24" viewBox="0 0 24 24" fill="none" xmlns="http://www.w3.org/2000/svg">
<path fill-rule="evenodd" clip-rule="evenodd" d="M21.1676 10.5261H21.0403L21.0697 10.5071C20.5894 10.5071 20.1288 10.6919 19.7891 11.0207C19.4495 11.3496 19.2587 11.7956 19.2587 12.2607C19.2587 12.7257 19.4495 13.1718 19.7891 13.5006C20.1288 13.8295 20.5894 14.0142 21.0697 14.0142H21.2068C21.3082 14.0078 21.4099 14.0212 21.5058 14.0538C21.6017 14.0864 21.6898 14.1374 21.7648 14.2038C21.8403 14.2692 21.9004 14.3497 21.941 14.4396C21.9815 14.5296 22.0016 14.627 21.9997 14.7251V16.2891C22.001 16.6447 21.9298 16.997 21.7901 17.3258C21.6505 17.6546 21.4452 17.9536 21.186 18.2054C20.9268 18.4573 20.6188 18.6571 20.2797 18.7935C19.9405 18.9298 19.5769 19 19.2097 19H4.81934C4.0785 18.9975 3.36888 18.7108 2.84594 18.2027C2.32299 17.6945 2.02936 17.0064 2.02937 16.2891V14.763C2.02994 14.6652 2.05106 14.5686 2.09145 14.479C2.13184 14.3893 2.19066 14.3086 2.26431 14.2417C2.41758 14.1103 2.61787 14.0423 2.82231 14.0521H2.93978C3.4201 14.0521 3.88074 13.8674 4.22038 13.5385C4.56001 13.2097 4.75082 12.7636 4.75082 12.2986C4.75082 11.8335 4.56001 11.3875 4.22038 11.0586C3.88074 10.7298 3.4201 10.545 2.93978 10.545H2.79294C2.69159 10.5509 2.59003 10.5372 2.49422 10.5047C2.39841 10.4721 2.31026 10.4214 2.23495 10.3555C2.16129 10.2885 2.10247 10.2078 2.06208 10.1182C2.02169 10.0286 2.00057 9.93191 2 9.83412V7.7109C2 6.99356 2.29363 6.30547 2.81657 5.79735C3.33951 5.28923 4.04913 5.00251 4.78997 5H19.1804C19.9186 5.00501 20.6247 5.29314 21.144 5.80126C21.6633 6.30938 21.9534 6.99607 21.9508 7.7109V9.81517C21.9526 9.91331 21.9326 10.0107 21.892 10.1007C21.8515 10.1906 21.7914 10.2711 21.7158 10.3365C21.5661 10.4673 21.369 10.5354 21.1676 10.5261ZM11.2498 6.0188V7.51666C11.2498 7.93088 11.5855 8.26666 11.9998 8.26666C12.414 8.26666 12.7498 7.93088 12.7498 7.51666V6.0188L11.2498 6.0188ZM12.7498 10.5124C12.7498 10.0982 12.414 9.76239 11.9998 9.76239C11.5855 9.76239 11.2498 10.0982 11.2498 10.5124V13.5081C11.2498 13.9223 11.5855 14.2581 11.9998 14.2581C12.414 14.2581 12.7498 13.9223 12.7498 13.5081V10.5124ZM12.7498 16.5038C12.7498 16.0896 12.414 15.7538 11.9998 15.7538C11.5855 15.7538 11.2498 16.0896 11.2498 16.5038L11.2498 18.0017H12.7498L12.7498 16.5038Z" fill="#292929"/>
</svg>
