<svg width="24" height="24" viewBox="0 0 24 24" fill="none" xmlns="http://www.w3.org/2000/svg">
<path fill-rule="evenodd" clip-rule="evenodd" d="M6 4C3.79086 4 2 5.79086 2 8V16C2 18.2091 3.79086 20 6 20H18C20.2091 20 22 18.2091 22 16V8C22 5.79086 20.2091 4 18 4H6ZM5 9C5 8.17157 5.67157 7.5 6.5 7.5H7.5C7.77614 7.5 8 7.72386 8 8C8 8.27614 7.77614 8.5 7.5 8.5H6.5C6.22386 8.5 6 8.72386 6 9V11C6 11.3842 5.85557 11.7346 5.61805 12C5.85557 12.2654 6 12.6158 6 13V15C6 15.2761 6.22386 15.5 6.5 15.5H7.5C7.77614 15.5 8 15.7239 8 16C8 16.2761 7.77614 16.5 7.5 16.5H6.5C5.67157 16.5 5 15.8284 5 15V13C5 12.7239 4.77614 12.5 4.5 12.5C4.22386 12.5 4 12.2761 4 12C4 11.7239 4.22386 11.5 4.5 11.5C4.77614 11.5 5 11.2761 5 11V9ZM17.5 7.5C18.3284 7.5 19 8.17157 19 9V11C19 11.2761 19.2239 11.5 19.5 11.5C19.7761 11.5 20 11.7239 20 12C20 12.2761 19.7761 12.5 19.5 12.5C19.2239 12.5 19 12.7239 19 13V15C19 15.8284 18.3284 16.5 17.5 16.5H16.5C16.2239 16.5 16 16.2761 16 16C16 15.7239 16.2239 15.5 16.5 15.5H17.5C17.7761 15.5 18 15.2761 18 15V13C18 12.6158 18.1444 12.2654 18.382 12C18.1444 11.7346 18 11.3842 18 11V9C18 8.72386 17.7761 8.5 17.5 8.5H16.5C16.2239 8.5 16 8.27614 16 8C16 7.72386 16.2239 7.5 16.5 7.5H17.5ZM10.0303 13.2123C9.73744 13.5052 9.73744 13.9801 10.0303 14.273C10.3232 14.5659 10.7981 14.5659 11.091 14.273L12.1516 13.2123L13.2123 14.273C13.5052 14.5659 13.9801 14.5659 14.273 14.273C14.5658 13.9801 14.5658 13.5052 14.273 13.2123L13.2123 12.1517L14.273 11.091C14.5659 10.7981 14.5659 10.3232 14.273 10.0303C13.9801 9.73744 13.5052 9.73744 13.2123 10.0303L12.1516 11.091L11.091 10.0303C10.7981 9.73744 10.3232 9.73744 10.0303 10.0303C9.73742 10.3232 9.73742 10.7981 10.0303 11.091L11.091 12.1517L10.0303 13.2123Z" fill="#292929"/>
</svg>