<svg width="24" height="24" viewBox="0 0 24 24" fill="none" xmlns="http://www.w3.org/2000/svg">
<path fill-rule="evenodd" clip-rule="evenodd" d="M6.65138 19.6228L8.56548 23L12.0002 21.4655L15.4348 23L17.3489 19.6228L20.9493 18.7846L20.5991 14.9064L23.0267 12L20.5991 9.09355L20.9493 5.21543L17.3489 4.37725L15.4348 1L12.0002 2.53454L8.56548 1L6.65138 4.37725L3.05101 5.21543L3.40118 9.09355L0.973633 12L3.40118 14.9065L3.05101 18.7846L6.65138 19.6228ZM16.342 9.02387C16.7022 9.38408 16.7022 9.96811 16.342 10.3283L12.0205 14.6498C11.4802 15.1902 10.6041 15.1902 10.0638 14.6498L7.65849 12.2445C7.29828 11.8843 7.29828 11.3003 7.65849 10.9401C8.0187 10.5799 8.60272 10.5799 8.96294 10.9401L11.0421 13.0193L15.0376 9.02387C15.3978 8.66366 15.9818 8.66366 16.342 9.02387Z" fill="#292929"/>
</svg>
