<svg width="24" height="24" viewBox="0 0 24 24" fill="none" xmlns="http://www.w3.org/2000/svg">
<path fill-rule="evenodd" clip-rule="evenodd" d="M18.9636 2.86244C19.2579 3.15396 19.2601 3.62882 18.9686 3.92309L2.96177 20.0813C2.67026 20.3755 2.19539 20.3778 1.90113 20.0863C1.60686 19.7947 1.60462 19.3199 1.89614 19.0256L17.903 2.86743C18.1945 2.57317 18.6694 2.57093 18.9636 2.86244Z" fill="#454545"/>
<path fill-rule="evenodd" clip-rule="evenodd" d="M14.8693 3.87089C14.6626 3.82565 14.4479 3.80182 14.2277 3.80182H5.16817C3.51835 3.80182 2.18091 5.13926 2.18091 6.78908V16.1597C2.18091 16.287 2.18888 16.4125 2.20435 16.5357L14.8693 3.87089ZM2.83548 18.0259L16.2609 4.60055C16.6062 4.92151 16.8755 5.32319 17.0386 5.77557L3.93348 18.8806C3.50322 18.6851 3.12751 18.3905 2.83548 18.0259ZM5.78851 19.1469H14.2277C15.8775 19.1469 17.2149 17.8095 17.2149 16.1597V15.1008L17.2163 15.1017V7.84706L17.2149 7.84792V7.72056L5.78851 19.1469ZM19.7096 16.659L17.8896 15.5222V7.4265L19.7096 6.28976C20.8466 5.57963 22.3209 6.39706 22.3209 7.73757V15.2112C22.3209 16.5517 20.8466 17.3691 19.7096 16.659Z" fill="#454545"/>
</svg>
