<svg width="25" height="24" viewBox="0 0 25 24" fill="none" xmlns="http://www.w3.org/2000/svg">
<path fill-rule="evenodd" clip-rule="evenodd" d="M15.8935 14.3566C15.54 14.3566 15.2534 14.07 15.2534 13.7164L15.2534 7.48676L16.5337 7.48676L16.5337 13.7164C16.5337 14.07 16.2471 14.3566 15.8935 14.3566Z" fill="#454545"/>
<path fill-rule="evenodd" clip-rule="evenodd" d="M17.5357 6.78908V7.84792L17.5371 7.84706V15.1017L17.5357 15.1008V16.1597C17.5357 17.8095 16.1983 19.1469 14.5485 19.1469H5.48897C3.83915 19.1469 2.50171 17.8095 2.50171 16.1597V6.78908C2.50171 5.13926 3.83915 3.80182 5.48897 3.80182H14.5485C16.1983 3.80182 17.5357 5.13926 17.5357 6.78908ZM18.2104 15.5222L20.0304 16.659C21.1674 17.3691 22.6417 16.5517 22.6417 15.2112V7.73757C22.6417 6.39706 21.1674 5.57963 20.0304 6.28976L18.2104 7.4265V15.5222Z" fill="#454545"/>
</svg>
