<svg width="24" height="24" viewBox="0 0 24 24" fill="none" xmlns="http://www.w3.org/2000/svg">
<path d="M12 2C10.0222 2 8.08879 2.58649 6.4443 3.6853C4.79981 4.78412 3.51809 6.3459 2.76121 8.17317C2.00433 10.0004 1.8063 12.0111 2.19215 13.9509C2.578 15.8907 3.53041 17.6725 4.92894 19.0711C6.32746 20.4696 8.10929 21.422 10.0491 21.8079C11.9889 22.1937 13.9996 21.9957 15.8268 21.2388C17.6541 20.4819 19.2159 19.2002 20.3147 17.5557C21.4135 15.9112 22 13.9778 22 12C22 10.6868 21.7413 9.38642 21.2388 8.17317C20.7363 6.95991 19.9997 5.85752 19.0711 4.92893C18.1425 4.00035 17.0401 3.26375 15.8268 2.7612C14.6136 2.25866 13.3132 2 12 2V2ZM14.92 12.79L11.29 15.79C11.1101 15.9391 10.8837 16.0205 10.65 16.02C10.504 16.0212 10.3598 15.9869 10.23 15.92C10.058 15.8404 9.91209 15.7135 9.8094 15.5542C9.70671 15.3948 9.65143 15.2096 9.65 15.02V9C9.65143 8.81044 9.70671 8.62518 9.8094 8.46584C9.91209 8.30649 10.058 8.17961 10.23 8.1C10.4009 8.01928 10.5912 7.98864 10.7788 8.01165C10.9664 8.03466 11.1437 8.11037 11.29 8.23L14.92 11.23C15.0332 11.3238 15.1244 11.4415 15.187 11.5746C15.2495 11.7077 15.282 11.8529 15.282 12C15.282 12.1471 15.2495 12.2923 15.187 12.4254C15.1244 12.5585 15.0332 12.6762 14.92 12.77V12.79Z" fill="black"/>
</svg>
