<svg width="25" height="24" viewBox="0 0 25 24" fill="none" xmlns="http://www.w3.org/2000/svg">
<path fill-rule="evenodd" clip-rule="evenodd" d="M7.7513 16.8901C11.9213 21.0701 15.0413 22.0001 17.0413 22.0001H17.3413C18.2684 21.9555 19.1455 21.5669 19.8013 20.9101L20.6013 20.1201C21.2443 19.5034 21.6161 18.6566 21.6348 17.7658C21.6536 16.8751 21.3178 16.0133 20.7013 15.3701L19.0713 13.7401C18.5878 13.2589 17.9334 12.9888 17.2513 12.9888C16.5692 12.9888 15.9148 13.2589 15.4313 13.7401L14.2813 14.9001C14.2663 14.9189 14.2473 14.934 14.2257 14.9444C14.204 14.9548 14.1803 14.9602 14.1563 14.9602C14.1323 14.9602 14.1086 14.9548 14.0869 14.9444C14.0653 14.934 14.0463 14.9189 14.0313 14.9001L9.5213 10.3901C9.48892 10.3566 9.47082 10.3118 9.47082 10.2651C9.47082 10.2185 9.48892 10.1737 9.5213 10.1401L10.6413 8.98012C10.8817 8.74291 11.0725 8.46032 11.2028 8.14874C11.3331 7.83717 11.4001 7.50283 11.4001 7.16512C11.4001 6.82741 11.3331 6.49307 11.2028 6.1815C11.0725 5.86993 10.8817 5.58733 10.6413 5.35012L9.0113 3.72012C8.37376 3.10149 7.51719 2.76051 6.62891 2.77175C5.74064 2.783 4.89297 3.14555 4.2713 3.78012L3.4713 4.58012C2.86237 5.20307 2.50607 6.02969 2.4713 6.90012C2.3713 9.00012 3.2013 12.3901 7.7513 16.8901Z" fill="#454545"/>
<path d="M21.9416 10.0509C22.2493 9.74317 22.2493 9.24432 21.9416 8.93664L19.3473 6.34227L21.9416 3.7479C22.2493 3.44022 22.2493 2.94137 21.9416 2.63368C21.6339 2.326 21.1351 2.326 20.8274 2.63368L18.233 5.22805L15.6387 2.63368C15.331 2.326 14.8321 2.326 14.5245 2.63368C14.2168 2.94137 14.2168 3.44022 14.5245 3.7479L17.1188 6.34227L14.5245 8.93664C14.2168 9.24432 14.2168 9.74317 14.5245 10.0509C14.8321 10.3585 15.331 10.3585 15.6387 10.0509L18.233 7.45648L20.8274 10.0509C21.1351 10.3585 21.6339 10.3585 21.9416 10.0509Z" fill="#454545"/>
</svg>
