<svg width="24" height="24" viewBox="0 0 24 24" fill="none" xmlns="http://www.w3.org/2000/svg">
<path d="M17.5001 10.8C17.0583 10.8 16.7001 10.4418 16.7001 10V7.30004L14.0001 7.30004C13.5583 7.30004 13.2001 6.94186 13.2001 6.50004C13.2001 6.05821 13.5583 5.70004 14.0001 5.70004L16.7001 5.70004V3.00001C16.7001 2.55818 17.0583 2.20001 17.5001 2.20001C17.942 2.20001 18.3001 2.55818 18.3001 3.00001V5.70004L21.0001 5.70004C21.442 5.70004 21.8001 6.05821 21.8001 6.50004C21.8001 6.94187 21.442 7.30004 21.0001 7.30004L18.3001 7.30004V10C18.3001 10.4418 17.942 10.8 17.5001 10.8Z" fill="#454545"/>
<path fill-rule="evenodd" clip-rule="evenodd" d="M7.14998 16.8901C11.32 21.0701 14.44 22.0001 16.44 22.0001H16.74C17.667 21.9555 18.5442 21.5669 19.2 20.9101L20 20.1201C20.643 19.5034 21.0148 18.6566 21.0335 17.7658C21.0523 16.8751 20.7165 16.0133 20.1 15.3701L18.47 13.7401C17.9865 13.2589 17.3321 12.9888 16.65 12.9888C15.9678 12.9888 15.3135 13.2589 14.83 13.7401L13.68 14.9001C13.665 14.9189 13.646 14.934 13.6243 14.9444C13.6027 14.9548 13.579 14.9602 13.555 14.9602C13.531 14.9602 13.5073 14.9548 13.4856 14.9444C13.464 14.934 13.445 14.9189 13.43 14.9001L8.91998 10.3901C8.8876 10.3566 8.8695 10.3118 8.8695 10.2651C8.8695 10.2185 8.8876 10.1737 8.91998 10.1401L10.04 8.98012C10.2803 8.74291 10.4712 8.46032 10.6015 8.14874C10.7317 7.83717 10.7988 7.50283 10.7988 7.16512C10.7988 6.82741 10.7317 6.49307 10.6015 6.1815C10.4712 5.86993 10.2803 5.58733 10.04 5.35012L8.40998 3.72012C7.77245 3.10149 6.91587 2.76051 6.0276 2.77175C5.13932 2.783 4.29165 3.14555 3.66998 3.78012L2.86998 4.58012C2.26106 5.20307 1.90476 6.02969 1.86998 6.90012C1.76998 9.00012 2.59998 12.3901 7.14998 16.8901Z" fill="#454545"/>
</svg>
