<svg width="25" height="24" viewBox="0 0 25 24" fill="none" xmlns="http://www.w3.org/2000/svg">
<path fill-rule="evenodd" clip-rule="evenodd" d="M8.12972 16.5043C12.2997 20.6843 15.4197 21.6143 17.4197 21.6143H17.7197C18.6468 21.5697 19.5239 21.1811 20.1797 20.5243L20.9797 19.7343C21.6227 19.1176 21.9945 18.2708 22.0133 17.38C22.032 16.4893 21.6962 15.6275 21.0797 14.9843L19.4497 13.3543C18.9662 12.8731 18.3119 12.603 17.6297 12.603C16.9476 12.603 16.2932 12.8731 15.8097 13.3543L14.6597 14.5143C14.6447 14.5331 14.6257 14.5482 14.6041 14.5586C14.5824 14.569 14.5587 14.5744 14.5347 14.5744C14.5107 14.5744 14.487 14.569 14.4654 14.5586C14.4437 14.5482 14.4247 14.5331 14.4097 14.5143L9.89972 10.0043C9.86733 9.97076 9.84924 9.92595 9.84924 9.87932C9.84924 9.83269 9.86733 9.78787 9.89972 9.75432L11.0197 8.59432C11.2601 8.35711 11.4509 8.07451 11.5812 7.76294C11.7115 7.45137 11.7786 7.11703 11.7786 6.77932C11.7786 6.44161 11.7115 6.10727 11.5812 5.7957C11.4509 5.48412 11.2601 5.20153 11.0197 4.96432L9.38972 3.33432C8.75218 2.71569 7.8956 2.37471 7.00733 2.38595C6.11906 2.39719 5.27139 2.75975 4.64972 3.39432L3.84972 4.19432C3.24079 4.81727 2.88449 5.64389 2.84972 6.51432C2.74972 8.61432 3.57972 12.0043 8.12972 16.5043Z" fill="#454545"/>
</svg>
