<svg width="25" height="24" viewBox="0 0 25 24" fill="none" xmlns="http://www.w3.org/2000/svg">
<path fill-rule="evenodd" clip-rule="evenodd" d="M7.35042 16.8901C11.5204 21.0701 14.6404 22.0001 16.6404 22.0001H16.9404C17.8675 21.9555 18.7446 21.5669 19.4004 20.9101L20.2004 20.1201C20.8435 19.5034 21.2152 18.6566 21.234 17.7658C21.2527 16.8751 20.9169 16.0133 20.3004 15.3701L18.6704 13.7401C18.1869 13.2589 17.5326 12.9888 16.8504 12.9888C16.1683 12.9888 15.5139 13.2589 15.0304 13.7401L13.8804 14.9001C13.8654 14.9189 13.8464 14.934 13.8248 14.9444C13.8031 14.9548 13.7794 14.9602 13.7554 14.9602C13.7314 14.9602 13.7077 14.9548 13.6861 14.9444C13.6644 14.934 13.6454 14.9189 13.6304 14.9001L9.12042 10.3901C9.08804 10.3566 9.06994 10.3118 9.06994 10.2651C9.06994 10.2185 9.08804 10.1737 9.12042 10.1401L10.2404 8.98012C10.4808 8.74291 10.6716 8.46032 10.8019 8.14874C10.9322 7.83717 10.9993 7.50283 10.9993 7.16512C10.9993 6.82741 10.9322 6.49307 10.8019 6.1815C10.6716 5.86993 10.4808 5.58733 10.2404 5.35012L8.61042 3.72012C7.97289 3.10149 7.11631 2.76051 6.22804 2.77175C5.33976 2.783 4.49209 3.14555 3.87042 3.78012L3.07042 4.58012C2.4615 5.20307 2.10519 6.02969 2.07042 6.90012C1.97042 9.00012 2.80042 12.3901 7.35042 16.8901Z" fill="#454545"/>
<path d="M15.7312 2.40292C15.2961 2.40292 14.9433 2.75566 14.9433 3.19079C14.9433 3.62592 15.2961 3.97866 15.7312 3.97866H19.0816L14.1236 8.93664C13.8159 9.24432 13.8159 9.74317 14.1236 10.0508C14.4313 10.3585 14.9301 10.3585 15.2378 10.0508L20.1958 5.09288V8.44325C20.1958 8.87838 20.5485 9.23112 20.9836 9.23112C21.4188 9.23112 21.7715 8.87838 21.7715 8.44325V3.19079C21.7715 2.75566 21.4188 2.40292 20.9836 2.40292H15.7312Z" fill="#454545"/>
</svg>
