<svg width="24" height="24" viewBox="0 0 24 24" fill="none" xmlns="http://www.w3.org/2000/svg">
<path fill-rule="evenodd" clip-rule="evenodd" d="M11.8544 5.77563C5.95007 5.76855 3.08629 7.31712 1.67207 8.73133L1.45994 8.94346C0.835969 9.63054 0.490564 10.5256 0.491204 11.4537L0.484133 12.578C0.465513 13.4688 0.80144 14.3304 1.41804 14.9736C2.03464 15.6167 2.88143 15.9886 3.77218 16.0075L6.07735 16.0075C6.75948 16.0058 7.41322 15.7341 7.89556 15.2518C8.3779 14.7695 8.6496 14.1157 8.65122 13.4336L8.64415 11.8002C8.64148 11.7763 8.64422 11.7522 8.65216 11.7295C8.6601 11.7068 8.67304 11.6863 8.69002 11.6693C8.707 11.6523 8.72758 11.6394 8.75024 11.6314C8.7729 11.6235 8.79706 11.6207 8.82092 11.6234L15.199 11.6234C15.2457 11.6242 15.2901 11.6431 15.3231 11.6761C15.3561 11.7091 15.375 11.7535 15.3758 11.8002L15.4041 13.4124C15.4019 13.7501 15.4667 14.0849 15.5949 14.3973C15.7231 14.7097 15.9121 14.9936 16.1509 15.2324C16.3897 15.4711 16.6736 15.6601 16.986 15.7883C17.2984 15.9165 17.6332 15.9814 17.9709 15.9792H20.2761C21.1643 15.9658 22.0111 15.6012 22.6313 14.9652C23.2514 14.3291 23.5944 13.4734 23.5853 12.5851V11.4537C23.5754 10.5826 23.2428 9.74617 22.6519 9.1061C21.2377 7.55046 18.2537 5.74027 11.8544 5.77563Z" fill="#454545"/>
</svg>
