<svg width="24" height="24" viewBox="0 0 24 24" fill="none" xmlns="http://www.w3.org/2000/svg">
<path fill-rule="evenodd" clip-rule="evenodd" d="M6.28613 5.73371H16.7568V4.01506C16.7568 2.55437 15.2419 1.58641 13.9164 2.20022L6.28613 5.73371ZM2 11.2336C2 9.0245 3.79086 7.23364 6 7.23364H18C20.2091 7.23364 22 9.0245 22 11.2336V18C22 20.2091 20.2091 22 18 22H6C3.79086 22 2 20.2091 2 18V11.2336ZM15.7525 13.6684C15.5642 13.8514 15.4347 14.0865 15.3807 14.3436C15.3267 14.6007 15.3507 14.868 15.4495 15.1114C15.5482 15.3548 15.7174 15.5631 15.9353 15.7099C16.1532 15.8566 16.4099 15.9349 16.6725 15.9349C16.9352 15.9349 17.1919 15.8566 17.4098 15.7099C17.6277 15.5631 17.7968 15.3548 17.8956 15.1114C17.9944 14.868 18.0183 14.6007 17.9644 14.3436C17.9104 14.0865 17.7809 13.8514 17.5925 13.6684C17.345 13.4312 17.0154 13.2988 16.6725 13.2988C16.3297 13.2988 16.0001 13.4312 15.7525 13.6684Z" fill="#454545"/>
</svg>
