<svg width="72" height="72" viewBox="0 0 72 72" fill="none" xmlns="http://www.w3.org/2000/svg">
<path d="M63.67 54.89L39.51 13.05C39.1516 12.4403 38.6401 11.9348 38.0262 11.5836C37.4123 11.2324 36.7173 11.0476 36.01 11.0476C35.3028 11.0476 34.6078 11.2324 33.9939 11.5836C33.38 11.9348 32.8685 12.4403 32.51 13.05L8.33003 54.89C7.96521 55.5075 7.77091 56.2108 7.76697 56.9279C7.76303 57.6451 7.9496 58.3505 8.30761 58.9719C8.66562 59.5933 9.18223 60.1085 9.80462 60.4649C10.427 60.8212 11.1329 61.0059 11.85 61H60.15C60.8628 61.0028 61.5636 60.8174 62.1817 60.4625C62.7999 60.1077 63.3134 59.5961 63.6705 58.9793C64.0276 58.3624 64.2156 57.6623 64.2155 56.9496C64.2155 56.2369 64.0273 55.5368 63.67 54.92V54.89ZM37.73 50C37.2658 50.4485 36.6455 50.6992 36 50.6992C35.3545 50.6992 34.7343 50.4485 34.27 50C34.0444 49.7694 33.8679 49.4954 33.751 49.1946C33.6341 48.8938 33.5794 48.5725 33.59 48.25C33.5784 47.9289 33.6327 47.6088 33.7497 47.3096C33.8667 47.0103 34.0437 46.7382 34.27 46.51C34.7306 46.0545 35.3522 45.799 36 45.799C36.6478 45.799 37.2695 46.0545 37.73 46.51C37.9563 46.7382 38.1334 47.0103 38.2504 47.3096C38.3673 47.6088 38.4217 47.9289 38.41 48.25C38.4207 48.5725 38.3659 48.8938 38.2491 49.1946C38.1322 49.4954 37.9556 49.7694 37.73 50ZM38.45 29.92L37.24 42.56C37.2233 42.9131 37.0774 43.2476 36.83 43.5C36.6055 43.7117 36.3086 43.8296 36 43.8296C35.6915 43.8296 35.3946 43.7117 35.17 43.5C34.9226 43.2476 34.7767 42.9131 34.76 42.56L33.55 29.87V29.54C33.5366 29.2361 33.5926 28.9331 33.7139 28.6541C33.8352 28.3751 34.0186 28.1275 34.25 27.93C34.759 27.5343 35.3853 27.3195 36.03 27.3195C36.6747 27.3195 37.3011 27.5343 37.81 27.93C38.0415 28.1275 38.2248 28.3751 38.3461 28.6541C38.4674 28.9331 38.5235 29.2361 38.51 29.54L38.45 29.92Z" fill="black"/>
</svg>
