<svg width="24" height="24" viewBox="0 0 24 24" fill="none" xmlns="http://www.w3.org/2000/svg">
<rect x="1" y="1" width="22" height="22" rx="8" fill="#454545"/>
<path fill-rule="evenodd" clip-rule="evenodd" d="M16.9601 7.0344C15.6442 5.72315 13.8941 5.00067 12.0294 5C8.18698 5 5.05983 8.11182 5.05849 11.9368C5.05782 13.1596 5.37903 14.3531 5.98902 15.4049L5 19L8.69536 18.0353C9.71345 18.5882 10.8599 18.8792 12.0264 18.8796H12.0294C15.8712 18.8796 18.9987 15.7674 19 11.9425C19.0007 10.0887 18.2764 8.34599 16.9601 7.03474V7.0344ZM12.0294 17.708H12.0271C10.9876 17.7077 9.96782 17.4296 9.07808 16.9044L8.8665 16.7793L6.67354 17.3518L7.2588 15.2239L7.12109 15.0057C6.54118 14.0876 6.23468 13.0265 6.23535 11.9371C6.23669 8.75813 8.83574 6.17154 12.0318 6.17154C13.5793 6.17221 15.0339 6.77262 16.1279 7.86267C17.2218 8.95239 17.8238 10.4014 17.8231 11.9418C17.8218 15.1211 15.2228 17.7077 12.0294 17.7077V17.708ZM15.2074 13.3898C15.0332 13.303 14.1769 12.8838 14.0171 12.8259C13.8574 12.768 13.7414 12.7391 13.6254 12.9128C13.5094 13.0864 13.1755 13.4769 13.0739 13.5923C12.9723 13.7081 12.8707 13.7224 12.6965 13.6356C12.5224 13.5487 11.9612 13.3658 11.2958 12.7754C10.778 12.3157 10.4284 11.7482 10.3268 11.5745C10.2252 11.4009 10.3161 11.3071 10.403 11.221C10.4812 11.1431 10.5771 11.0184 10.6644 10.9173C10.7516 10.8161 10.7804 10.7436 10.8385 10.6282C10.8967 10.5124 10.8676 10.4113 10.8242 10.3245C10.7807 10.2377 10.4324 9.38446 10.287 9.03754C10.1456 8.69958 10.0019 8.74549 9.89529 8.73983C9.79368 8.73484 9.67771 8.73385 9.56139 8.73385C9.44508 8.73385 9.25654 8.77709 9.09679 8.95073C8.93703 9.12434 8.48713 9.5438 8.48713 10.3967C8.48713 11.2496 9.11118 12.0742 9.19841 12.19C9.28563 12.3057 10.4267 14.0564 12.1738 14.8075C12.5893 14.9861 12.9138 15.0929 13.1668 15.1727C13.584 15.3047 13.9637 15.2861 14.2638 15.2415C14.5984 15.1917 15.2943 14.8221 15.4393 14.4173C15.5844 14.0124 15.5844 13.6652 15.541 13.593C15.4975 13.5208 15.3812 13.4772 15.2071 13.3904L15.2074 13.3898Z" fill="white"/>
</svg>
