<svg width="24" height="24" viewBox="0 0 24 24" fill="none" xmlns="http://www.w3.org/2000/svg">
<path fill-rule="evenodd" clip-rule="evenodd" d="M16.7224 4.93251C15.3245 3.99852 13.6811 3.5 12 3.5C9.74648 3.50265 7.58601 4.39903 5.99252 5.99252C4.39903 7.586 3.50265 9.74647 3.5 12C3.5 13.6811 3.99852 15.3245 4.93251 16.7223C5.8665 18.1202 7.19402 19.2096 8.7472 19.853C10.3004 20.4963 12.0094 20.6646 13.6583 20.3367C15.3071 20.0087 16.8217 19.1992 18.0104 18.0104C19.1992 16.8217 20.0087 15.3071 20.3367 13.6583C20.6647 12.0094 20.4963 10.3004 19.853 8.74719C19.2096 7.19402 18.1202 5.8665 16.7224 4.93251ZM6.4443 3.6853C8.08879 2.58649 10.0222 2 12 2C14.6522 2 17.1957 3.05357 19.0711 4.92893C20.9464 6.8043 22 9.34784 22 12C22 13.9778 21.4135 15.9112 20.3147 17.5557C19.2159 19.2002 17.6541 20.4819 15.8268 21.2388C13.9996 21.9957 11.9889 22.1937 10.0491 21.8079C8.10929 21.422 6.32746 20.4696 4.92894 19.0711C3.53041 17.6725 2.578 15.8907 2.19215 13.9509C1.8063 12.0111 2.00433 10.0004 2.76121 8.17317C3.51809 6.3459 4.79981 4.78412 6.4443 3.6853ZM13.3823 16.5943C13.4734 16.6321 13.5712 16.651 13.6698 16.65C13.7684 16.6505 13.866 16.6313 13.957 16.5935C14.0481 16.5557 14.1306 16.5001 14.1998 16.43C14.3403 16.2894 14.4192 16.0988 14.4192 15.9C14.4192 15.7013 14.3403 15.5106 14.1998 15.37L10.8298 12L14.1998 8.63001C14.2735 8.56135 14.3326 8.47854 14.3736 8.38655C14.4146 8.29455 14.4367 8.19523 14.4384 8.09453C14.4402 7.99383 14.4217 7.8938 14.384 7.80041C14.3462 7.70702 14.2901 7.62219 14.2189 7.55097C14.1477 7.47975 14.0628 7.4236 13.9694 7.38588C13.8761 7.34816 13.776 7.32964 13.6753 7.33142C13.5746 7.33319 13.4753 7.35523 13.3833 7.39623C13.2913 7.43722 13.2085 7.49632 13.1398 7.57001L9.23985 11.47C9.0994 11.6106 9.02051 11.8013 9.02051 12C9.02051 12.1988 9.0994 12.3894 9.23985 12.53L13.1398 16.43C13.2087 16.5006 13.2912 16.5565 13.3823 16.5943Z" fill="black"/>
</svg>
