<svg width="24" height="24" viewBox="0 0 24 24" fill="none" xmlns="http://www.w3.org/2000/svg">
<path fill-rule="evenodd" clip-rule="evenodd" d="M16.7224 4.93251C15.3245 3.99852 13.6811 3.5 12 3.5C9.74648 3.50265 7.58601 4.39903 5.99252 5.99252C4.39903 7.586 3.50265 9.74647 3.5 12C3.5 13.6811 3.99852 15.3245 4.93251 16.7223C5.8665 18.1202 7.19402 19.2096 8.7472 19.853C10.3004 20.4963 12.0094 20.6646 13.6583 20.3367C15.3071 20.0087 16.8217 19.1992 18.0104 18.0104C19.1992 16.8217 20.0087 15.3071 20.3367 13.6583C20.6647 12.0094 20.4963 10.3004 19.853 8.74719C19.2096 7.19402 18.1202 5.8665 16.7224 4.93251ZM6.4443 3.6853C8.08879 2.58649 10.0222 2 12 2C14.6522 2 17.1957 3.05357 19.0711 4.92893C20.9464 6.8043 22 9.34784 22 12C22 13.9778 21.4135 15.9112 20.3147 17.5557C19.2159 19.2002 17.6541 20.4819 15.8268 21.2388C13.9996 21.9957 11.9889 22.1937 10.0491 21.8079C8.10929 21.422 6.32746 20.4696 4.92894 19.0711C3.53041 17.6725 2.578 15.8907 2.19215 13.9509C1.8063 12.0111 2.00433 10.0004 2.76121 8.17317C3.51809 6.3459 4.79981 4.78412 6.4443 3.6853ZM10.053 16.5934C10.144 16.6312 10.2416 16.6504 10.3402 16.6499C10.4389 16.6522 10.5371 16.6338 10.6284 16.5959C10.7196 16.558 10.802 16.5015 10.8702 16.4299L14.7702 12.5299C14.9106 12.3893 14.9895 12.1987 14.9895 11.9999C14.9895 11.8012 14.9106 11.6106 14.7702 11.4699L10.8702 7.56994C10.728 7.43746 10.5399 7.36534 10.3456 7.36877C10.1513 7.3722 9.96595 7.45091 9.82854 7.58832C9.69113 7.72574 9.61241 7.91112 9.60899 8.10542C9.60556 8.29972 9.67768 8.48777 9.81016 8.62994L13.1802 11.9999L9.81016 15.3699C9.66971 15.5106 9.59082 15.7012 9.59082 15.8999C9.59082 16.0987 9.66971 16.2893 9.81016 16.4299C9.8794 16.5001 9.96196 16.5556 10.053 16.5934Z" fill="black"/>
</svg>
