<svg width="504" height="323" viewBox="0 0 504 323" fill="none" xmlns="http://www.w3.org/2000/svg">
<path d="M24 32C24 27.5817 27.5817 24 32 24H448C452.418 24 456 27.5817 456 32V272C456 276.418 452.418 280 448 280H32C27.5817 280 24 276.418 24 272V32Z" fill="#F5F5F5"/>
<path d="M24 56H456V78H24V56Z" fill="white"/>
<path d="M417 64C417 62.3431 418.157 61 419.583 61H445.417C446.843 61 448 62.3431 448 64V70C448 71.6569 446.843 73 445.417 73H419.583C418.157 73 417 71.6569 417 70V64Z" fill="#1E6BF1"/>
<path d="M40 67C40 65.3431 41.3431 64 43 64H109C110.657 64 112 65.3431 112 67C112 68.6569 110.657 70 109 70H43C41.3431 70 40 68.6569 40 67Z" fill="#292929"/>
<path d="M24 32C24 27.5817 27.5817 24 32 24H448C452.418 24 456 27.5817 456 32V56H24V32Z" fill="#141414"/>
<path d="M40 40C40 36.6863 42.6863 34 46 34H90C93.3137 34 96 36.6863 96 40C96 43.3137 93.3137 46 90 46H46C42.6863 46 40 43.3137 40 40Z" fill="#666666"/>
<path d="M104 40C104 38.3431 105.343 37 107 37H125C126.657 37 128 38.3431 128 40C128 41.6569 126.657 43 125 43H107C105.343 43 104 41.6569 104 40Z" fill="#666666"/>
<path d="M136 40C136 38.3431 137.343 37 139 37H165C166.657 37 168 38.3431 168 40C168 41.6569 166.657 43 165 43H139C137.343 43 136 41.6569 136 40Z" fill="#666666"/>
<path d="M251.531 47.7942V35.6784C251.531 35.5498 251.63 35.4726 251.73 35.4726H254.111C254.21 35.4726 254.285 35.5498 254.309 35.627L254.458 36.373C255.078 35.627 255.971 35.2668 257.088 35.2668C259.295 35.2668 260.957 36.7331 260.957 39.9742C260.957 43.2154 259.32 44.7074 257.088 44.7074C255.996 44.7074 255.078 44.3472 254.458 43.5755V47.7685C254.458 47.8971 254.359 47.9742 254.26 47.9742H251.705C251.606 48 251.531 47.9228 251.531 47.7942ZM254.483 40.7717C254.483 40.8488 254.483 40.926 254.508 41.0032C254.781 41.9549 255.401 42.3665 256.17 42.3665C257.212 42.3665 257.931 41.672 257.931 40C257.931 38.3279 257.212 37.6334 256.17 37.6334C255.351 37.6334 254.731 38.045 254.508 38.9967C254.483 39.0739 254.483 39.1254 254.483 39.2025V40.7717Z" fill="white"/>
<path d="M234.242 32H236.797C236.921 32 236.995 32.1029 236.995 32.2058V36.3987C237.615 35.6527 238.533 35.2669 239.624 35.2669C241.857 35.2669 243.494 36.7588 243.494 40C243.494 43.2412 241.832 44.7074 239.624 44.7074C238.508 44.7074 237.615 44.3473 236.995 43.6013L236.846 44.3473C236.822 44.4502 236.747 44.5016 236.648 44.5016H234.267C234.143 44.5016 234.068 44.3987 234.068 44.2958V32.2058C234.043 32.0772 234.118 32 234.242 32ZM236.995 40.8232C236.995 40.9003 236.995 40.9518 237.02 41.0289C237.243 41.9807 237.863 42.3923 238.682 42.3923C239.724 42.3923 240.443 41.6977 240.443 40.0257C240.443 38.3537 239.724 37.6592 238.682 37.6592C237.913 37.6592 237.293 38.0707 237.02 39.0225C236.995 39.0997 236.995 39.1768 236.995 39.254V40.8232Z" fill="white"/>
<path d="M244.189 32H246.744C246.868 32 246.942 32.1029 246.942 32.2058V44.3215C246.942 44.4502 246.843 44.5273 246.744 44.5273H244.189C244.065 44.5273 243.99 44.4244 243.99 44.3215V32.2058C243.99 32.0772 244.065 32 244.189 32Z" fill="white"/>
<path d="M247.761 34.1093V32.2058C247.761 32.0772 247.86 32 247.959 32H250.514C250.638 32 250.713 32.1029 250.713 32.2058V34.1093C250.713 34.2379 250.613 34.3151 250.514 34.3151H247.959C247.835 34.3151 247.761 34.2122 247.761 34.1093ZM247.959 35.4727H250.514C250.638 35.4727 250.713 35.5756 250.713 35.6785V44.3215C250.713 44.4502 250.613 44.5273 250.514 44.5273H247.959C247.835 44.5273 247.761 44.4244 247.761 44.3215V35.6785C247.761 35.5498 247.835 35.4727 247.959 35.4727Z" fill="white"/>
<path d="M225.535 32C223.923 32 222.261 32.2572 221.12 33.0032C219.284 34.1865 218.739 36.5016 218.788 38.6109C218.838 40.4373 219.309 42.418 220.574 43.7814C221.765 45.0675 224.245 45.6592 225.932 45.6592C226.006 45.6592 226.081 45.7106 226.081 45.8135V47.6656C226.081 47.8457 226.23 48 226.403 48H226.428C226.502 48 226.552 47.9743 226.602 47.9228C227.445 47.1769 228.288 46.4051 229.132 45.6077C229.926 44.8617 230.819 44.0643 231.414 43.164C232.704 41.2605 232.902 38.5338 232.48 36.2958C232.059 34.135 230.595 32.7203 228.536 32.283C227.668 32.1286 226.602 32 225.535 32Z" fill="#80E3EB"/>
<path d="M446 40C446 44.4183 442.418 48 438 48C433.582 48 430 44.4183 430 40C430 35.5817 433.582 32 438 32C442.418 32 446 35.5817 446 40Z" fill="#84EBBC"/>
<path d="M44 111C44 106.582 47.5817 103 52 103H108C112.418 103 116 106.582 116 111V167C116 171.418 112.418 175 108 175H52C47.5817 175 44 171.418 44 167V111Z" fill="white"/>
<rect x="68" y="115" width="24" height="24" rx="12" fill="#80E3EB"/>
<path fill-rule="evenodd" clip-rule="evenodd" d="M86.2679 127.01C86.5276 127.345 86.668 127.756 86.6669 128.18C86.6662 128.598 86.5273 129.005 86.2717 129.337C86.0161 129.668 85.6582 129.906 85.2536 130.013C85.1646 130.584 84.8747 131.105 84.4359 131.482C83.9971 131.858 83.4384 132.066 82.8603 132.067H77.1469C76.5736 132.06 76.0211 131.851 75.5869 131.476C75.1527 131.102 74.8647 130.586 74.7736 130.02C74.3579 129.922 73.9873 129.687 73.7221 129.353C73.4568 129.018 73.3125 128.604 73.3125 128.177C73.3125 127.75 73.4568 127.335 73.7221 127C73.9873 126.666 74.3579 126.431 74.7736 126.333C74.8945 125.793 75.1952 125.311 75.6264 124.964C76.0577 124.618 76.5938 124.428 77.1469 124.427H79.5069V123.507C79.1715 123.389 78.8885 123.156 78.7083 122.849C78.528 122.543 78.4619 122.182 78.5218 121.832C78.5816 121.481 78.7635 121.163 79.0353 120.934C79.3071 120.704 79.6513 120.579 80.0069 120.579C80.3625 120.579 80.7067 120.704 80.9785 120.934C81.2503 121.163 81.4322 121.481 81.4921 121.832C81.552 122.182 81.4859 122.543 81.3056 122.849C81.1253 123.156 80.8424 123.389 80.5069 123.507V124.42H82.8603C83.4146 124.421 83.9521 124.611 84.3837 124.959C84.8153 125.307 85.1151 125.792 85.2336 126.333C85.6441 126.437 86.0082 126.675 86.2679 127.01ZM80.2762 121.687C80.1949 121.632 80.0989 121.601 80.0003 121.6C79.867 121.6 79.7392 121.652 79.6443 121.746C79.5495 121.84 79.4953 121.967 79.4936 122.1C79.4936 122.199 79.5228 122.295 79.5774 122.377C79.6321 122.459 79.7098 122.523 79.8007 122.561C79.8917 122.599 79.9919 122.609 80.0887 122.591C80.1855 122.572 80.2746 122.525 80.3448 122.456C80.415 122.386 80.4631 122.298 80.4832 122.201C80.5032 122.105 80.4942 122.005 80.4574 121.913C80.4206 121.822 80.3575 121.743 80.2762 121.687ZM74.4189 127.763C74.348 127.89 74.3095 128.034 74.3069 128.18C74.3112 128.326 74.3504 128.468 74.4211 128.596C74.4919 128.724 74.5922 128.832 74.7136 128.913V127.447C74.591 127.526 74.4898 127.635 74.4189 127.763ZM84.1977 130.187C84.2698 130.014 84.3069 129.828 84.3069 129.64L84.2936 126.853C84.2936 126.665 84.2565 126.479 84.1844 126.306C84.1122 126.132 84.0066 125.975 83.8734 125.842C83.7402 125.709 83.5821 125.605 83.4083 125.533C83.2344 125.462 83.0482 125.426 82.8603 125.427H77.1469C76.7679 125.427 76.4044 125.577 76.1358 125.844C75.8671 126.111 75.7154 126.474 75.7136 126.853V129.667C75.7223 130.041 75.8771 130.397 76.145 130.659C76.4129 130.92 76.7725 131.067 77.1469 131.067H82.8736C83.0615 131.067 83.2477 131.031 83.4216 130.96C83.5955 130.889 83.7535 130.784 83.8867 130.651C84.0199 130.519 84.1256 130.361 84.1977 130.187ZM85.3069 127.453V128.907C85.4295 128.829 85.5304 128.722 85.6004 128.595C85.6703 128.468 85.707 128.325 85.707 128.18C85.707 128.035 85.6703 127.892 85.6004 127.765C85.5304 127.638 85.4295 127.531 85.3069 127.453ZM79.9936 129.365C80.6354 129.365 81.2512 129.112 81.707 128.66C81.7529 128.613 81.8079 128.575 81.8686 128.55C81.9292 128.524 81.9944 128.511 82.0603 128.511C82.1262 128.511 82.1914 128.524 82.252 128.55C82.3127 128.575 82.3677 128.613 82.4136 128.66C82.5073 128.754 82.5599 128.881 82.5599 129.013C82.5599 129.146 82.5073 129.273 82.4136 129.367C81.7713 130.007 80.901 130.367 79.9936 130.367C79.0863 130.367 78.216 130.007 77.5736 129.367C77.48 129.273 77.4274 129.146 77.4274 129.013C77.4274 128.881 77.48 128.754 77.5736 128.66C77.6196 128.613 77.6745 128.575 77.7352 128.55C77.7959 128.524 77.8611 128.511 77.927 128.511C77.9928 128.511 78.058 128.524 78.1187 128.55C78.1794 128.575 78.2343 128.613 78.2803 128.66C78.736 129.112 79.3518 129.365 79.9936 129.365ZM78.6869 127.747C79.0256 127.747 79.3002 127.472 79.3002 127.133C79.3002 126.794 79.0256 126.52 78.6869 126.52C78.3482 126.52 78.0736 126.794 78.0736 127.133C78.0736 127.472 78.3482 127.747 78.6869 127.747ZM81.9603 127.667H80.9336C80.801 127.667 80.6738 127.614 80.58 127.52C80.4863 127.426 80.4336 127.299 80.4336 127.167C80.4336 127.034 80.4863 126.907 80.58 126.813C80.6738 126.719 80.801 126.667 80.9336 126.667H81.9603C82.0929 126.667 82.22 126.719 82.3138 126.813C82.4076 126.907 82.4603 127.034 82.4603 127.167C82.4603 127.299 82.4076 127.426 82.3138 127.52C82.22 127.614 82.0929 127.667 81.9603 127.667Z" fill="#292929"/>
<path d="M56 150C56 148.343 57.3431 147 59 147H101C102.657 147 104 148.343 104 150C104 151.657 102.657 153 101 153H59C57.3431 153 56 151.657 56 150Z" fill="#292929"/>
<path d="M72 160C72 158.343 73.3431 157 75 157H85C86.6569 157 88 158.343 88 160C88 161.657 86.6569 163 85 163H75C73.3431 163 72 161.657 72 160Z" fill="#666666"/>
<path d="M44 191C44 186.582 47.5817 183 52 183H108C112.418 183 116 186.582 116 191V247C116 251.418 112.418 255 108 255H52C47.5817 255 44 251.418 44 247V191Z" fill="white"/>
<rect x="68" y="195" width="24" height="24" rx="12" fill="#FDE99B"/>
<path fill-rule="evenodd" clip-rule="evenodd" d="M86.2679 207.01C86.5276 207.345 86.668 207.756 86.6669 208.18C86.6662 208.598 86.5273 209.005 86.2717 209.337C86.0161 209.668 85.6582 209.906 85.2536 210.013C85.1646 210.584 84.8747 211.105 84.4359 211.482C83.9971 211.858 83.4384 212.066 82.8603 212.067H77.1469C76.5736 212.06 76.0211 211.851 75.5869 211.476C75.1527 211.102 74.8647 210.586 74.7736 210.02C74.3579 209.922 73.9873 209.687 73.7221 209.353C73.4568 209.018 73.3125 208.604 73.3125 208.177C73.3125 207.75 73.4568 207.335 73.7221 207C73.9873 206.666 74.3579 206.431 74.7736 206.333C74.8945 205.793 75.1952 205.311 75.6264 204.964C76.0577 204.618 76.5938 204.428 77.1469 204.427H79.5069V203.507C79.1715 203.389 78.8885 203.156 78.7083 202.849C78.528 202.543 78.4619 202.182 78.5218 201.832C78.5816 201.481 78.7635 201.163 79.0353 200.934C79.3071 200.704 79.6513 200.579 80.0069 200.579C80.3625 200.579 80.7067 200.704 80.9785 200.934C81.2503 201.163 81.4322 201.481 81.4921 201.832C81.552 202.182 81.4859 202.543 81.3056 202.849C81.1253 203.156 80.8424 203.389 80.5069 203.507V204.42H82.8603C83.4146 204.421 83.9521 204.611 84.3837 204.959C84.8153 205.307 85.1151 205.792 85.2336 206.333C85.6441 206.437 86.0082 206.675 86.2679 207.01ZM80.2762 201.687C80.1949 201.632 80.0989 201.601 80.0003 201.6C79.867 201.6 79.7392 201.652 79.6443 201.746C79.5495 201.84 79.4953 201.967 79.4936 202.1C79.4936 202.199 79.5228 202.295 79.5774 202.377C79.6321 202.459 79.7098 202.523 79.8007 202.561C79.8917 202.599 79.9919 202.609 80.0887 202.591C80.1855 202.572 80.2746 202.525 80.3448 202.456C80.415 202.386 80.4631 202.298 80.4832 202.201C80.5032 202.105 80.4942 202.005 80.4574 201.913C80.4206 201.822 80.3575 201.743 80.2762 201.687ZM74.4189 207.763C74.348 207.89 74.3095 208.034 74.3069 208.18C74.3112 208.326 74.3504 208.468 74.4211 208.596C74.4919 208.724 74.5922 208.832 74.7136 208.913V207.447C74.591 207.526 74.4898 207.635 74.4189 207.763ZM84.1977 210.187C84.2698 210.014 84.3069 209.828 84.3069 209.64L84.2936 206.853C84.2936 206.665 84.2565 206.479 84.1844 206.306C84.1122 206.132 84.0066 205.975 83.8734 205.842C83.7402 205.709 83.5821 205.605 83.4083 205.533C83.2344 205.462 83.0482 205.426 82.8603 205.427H77.1469C76.7679 205.427 76.4044 205.577 76.1358 205.844C75.8671 206.111 75.7154 206.474 75.7136 206.853V209.667C75.7223 210.041 75.8771 210.397 76.145 210.659C76.4129 210.92 76.7725 211.067 77.1469 211.067H82.8736C83.0615 211.067 83.2477 211.031 83.4216 210.96C83.5955 210.889 83.7535 210.784 83.8867 210.651C84.0199 210.519 84.1256 210.361 84.1977 210.187ZM85.3069 207.453V208.907C85.4295 208.829 85.5304 208.722 85.6004 208.595C85.6703 208.468 85.707 208.325 85.707 208.18C85.707 208.035 85.6703 207.892 85.6004 207.765C85.5304 207.638 85.4295 207.531 85.3069 207.453ZM79.9936 209.365C80.6354 209.365 81.2512 209.112 81.707 208.66C81.7529 208.613 81.8079 208.575 81.8686 208.55C81.9292 208.524 81.9944 208.511 82.0603 208.511C82.1262 208.511 82.1914 208.524 82.252 208.55C82.3127 208.575 82.3677 208.613 82.4136 208.66C82.5073 208.754 82.5599 208.881 82.5599 209.013C82.5599 209.146 82.5073 209.273 82.4136 209.367C81.7713 210.007 80.901 210.367 79.9936 210.367C79.0863 210.367 78.216 210.007 77.5736 209.367C77.48 209.273 77.4274 209.146 77.4274 209.013C77.4274 208.881 77.48 208.754 77.5736 208.66C77.6196 208.613 77.6745 208.575 77.7352 208.55C77.7959 208.524 77.8611 208.511 77.927 208.511C77.9928 208.511 78.058 208.524 78.1187 208.55C78.1794 208.575 78.2343 208.613 78.2803 208.66C78.736 209.112 79.3518 209.365 79.9936 209.365ZM78.6869 207.747C79.0256 207.747 79.3002 207.472 79.3002 207.133C79.3002 206.794 79.0256 206.52 78.6869 206.52C78.3482 206.52 78.0736 206.794 78.0736 207.133C78.0736 207.472 78.3482 207.747 78.6869 207.747ZM81.9603 207.667H80.9336C80.801 207.667 80.6738 207.614 80.58 207.52C80.4863 207.426 80.4336 207.299 80.4336 207.167C80.4336 207.034 80.4863 206.907 80.58 206.813C80.6738 206.719 80.801 206.667 80.9336 206.667H81.9603C82.0929 206.667 82.22 206.719 82.3138 206.813C82.4076 206.907 82.4603 207.034 82.4603 207.167C82.4603 207.299 82.4076 207.426 82.3138 207.52C82.22 207.614 82.0929 207.667 81.9603 207.667Z" fill="#292929"/>
<path d="M56 230C56 228.343 57.3431 227 59 227H101C102.657 227 104 228.343 104 230C104 231.657 102.657 233 101 233H59C57.3431 233 56 231.657 56 230Z" fill="#292929"/>
<path d="M72 240C72 238.343 73.3431 237 75 237H85C86.6569 237 88 238.343 88 240C88 241.657 86.6569 243 85 243H75C73.3431 243 72 241.657 72 240Z" fill="#666666"/>
<path d="M124 111C124 106.582 127.582 103 132 103H188C192.418 103 196 106.582 196 111V167C196 171.418 192.418 175 188 175H132C127.582 175 124 171.418 124 167V111Z" fill="white"/>
<rect x="148" y="115" width="24" height="24" rx="12" fill="#0096FA"/>
<rect x="148" y="115" width="24" height="24" rx="12" fill="white" fill-opacity="0.6"/>
<path fill-rule="evenodd" clip-rule="evenodd" d="M166.268 127.01C166.528 127.345 166.668 127.756 166.667 128.18C166.666 128.598 166.527 129.005 166.272 129.337C166.016 129.668 165.658 129.906 165.254 130.013C165.165 130.584 164.875 131.105 164.436 131.482C163.997 131.858 163.438 132.066 162.86 132.067H157.147C156.574 132.06 156.021 131.851 155.587 131.476C155.153 131.102 154.865 130.586 154.774 130.02C154.358 129.922 153.987 129.687 153.722 129.353C153.457 129.018 153.312 128.604 153.312 128.177C153.312 127.75 153.457 127.335 153.722 127C153.987 126.666 154.358 126.431 154.774 126.333C154.894 125.793 155.195 125.311 155.626 124.964C156.058 124.618 156.594 124.428 157.147 124.427H159.507V123.507C159.171 123.389 158.889 123.156 158.708 122.849C158.528 122.543 158.462 122.182 158.522 121.832C158.582 121.481 158.764 121.163 159.035 120.934C159.307 120.704 159.651 120.579 160.007 120.579C160.363 120.579 160.707 120.704 160.979 120.934C161.25 121.163 161.432 121.481 161.492 121.832C161.552 122.182 161.486 122.543 161.306 122.849C161.125 123.156 160.842 123.389 160.507 123.507V124.42H162.86C163.415 124.421 163.952 124.611 164.384 124.959C164.815 125.307 165.115 125.792 165.234 126.333C165.644 126.437 166.008 126.675 166.268 127.01ZM160.276 121.687C160.195 121.632 160.099 121.601 160 121.6C159.867 121.6 159.739 121.652 159.644 121.746C159.549 121.84 159.495 121.967 159.494 122.1C159.494 122.199 159.523 122.295 159.577 122.377C159.632 122.459 159.71 122.523 159.801 122.561C159.892 122.599 159.992 122.609 160.089 122.591C160.186 122.572 160.275 122.525 160.345 122.456C160.415 122.386 160.463 122.298 160.483 122.201C160.503 122.105 160.494 122.005 160.457 121.913C160.421 121.822 160.358 121.743 160.276 121.687ZM154.419 127.763C154.348 127.89 154.31 128.034 154.307 128.18C154.311 128.326 154.35 128.468 154.421 128.596C154.492 128.724 154.592 128.832 154.714 128.913V127.447C154.591 127.526 154.49 127.635 154.419 127.763ZM164.198 130.187C164.27 130.014 164.307 129.828 164.307 129.64L164.294 126.853C164.294 126.665 164.256 126.479 164.184 126.306C164.112 126.132 164.007 125.975 163.873 125.842C163.74 125.709 163.582 125.605 163.408 125.533C163.234 125.462 163.048 125.426 162.86 125.427H157.147C156.768 125.427 156.404 125.577 156.136 125.844C155.867 126.111 155.715 126.474 155.714 126.853V129.667C155.722 130.041 155.877 130.397 156.145 130.659C156.413 130.92 156.772 131.067 157.147 131.067H162.874C163.062 131.067 163.248 131.031 163.422 130.96C163.595 130.889 163.754 130.784 163.887 130.651C164.02 130.519 164.126 130.361 164.198 130.187ZM165.307 127.453V128.907C165.429 128.829 165.53 128.722 165.6 128.595C165.67 128.468 165.707 128.325 165.707 128.18C165.707 128.035 165.67 127.892 165.6 127.765C165.53 127.638 165.429 127.531 165.307 127.453ZM159.994 129.365C160.635 129.365 161.251 129.112 161.707 128.66C161.753 128.613 161.808 128.575 161.869 128.55C161.929 128.524 161.994 128.511 162.06 128.511C162.126 128.511 162.191 128.524 162.252 128.55C162.313 128.575 162.368 128.613 162.414 128.66C162.507 128.754 162.56 128.881 162.56 129.013C162.56 129.146 162.507 129.273 162.414 129.367C161.771 130.007 160.901 130.367 159.994 130.367C159.086 130.367 158.216 130.007 157.574 129.367C157.48 129.273 157.427 129.146 157.427 129.013C157.427 128.881 157.48 128.754 157.574 128.66C157.62 128.613 157.675 128.575 157.735 128.55C157.796 128.524 157.861 128.511 157.927 128.511C157.993 128.511 158.058 128.524 158.119 128.55C158.179 128.575 158.234 128.613 158.28 128.66C158.736 129.112 159.352 129.365 159.994 129.365ZM158.687 127.747C159.026 127.747 159.3 127.472 159.3 127.133C159.3 126.794 159.026 126.52 158.687 126.52C158.348 126.52 158.074 126.794 158.074 127.133C158.074 127.472 158.348 127.747 158.687 127.747ZM161.96 127.667H160.934C160.801 127.667 160.674 127.614 160.58 127.52C160.486 127.426 160.434 127.299 160.434 127.167C160.434 127.034 160.486 126.907 160.58 126.813C160.674 126.719 160.801 126.667 160.934 126.667H161.96C162.093 126.667 162.22 126.719 162.314 126.813C162.408 126.907 162.46 127.034 162.46 127.167C162.46 127.299 162.408 127.426 162.314 127.52C162.22 127.614 162.093 127.667 161.96 127.667Z" fill="#292929"/>
<path d="M136 150C136 148.343 137.343 147 139 147H181C182.657 147 184 148.343 184 150C184 151.657 182.657 153 181 153H139C137.343 153 136 151.657 136 150Z" fill="#292929"/>
<path d="M152 160C152 158.343 153.343 157 155 157H165C166.657 157 168 158.343 168 160C168 161.657 166.657 163 165 163H155C153.343 163 152 161.657 152 160Z" fill="#666666"/>
<path d="M124 191C124 186.582 127.582 183 132 183H188C192.418 183 196 186.582 196 191V247C196 251.418 192.418 255 188 255H132C127.582 255 124 251.418 124 247V191Z" fill="white"/>
<rect x="148" y="195" width="24" height="24" rx="12" fill="#F99F9F"/>
<path fill-rule="evenodd" clip-rule="evenodd" d="M166.268 207.01C166.528 207.345 166.668 207.756 166.667 208.18C166.666 208.598 166.527 209.005 166.272 209.337C166.016 209.668 165.658 209.906 165.254 210.013C165.165 210.584 164.875 211.105 164.436 211.482C163.997 211.858 163.438 212.066 162.86 212.067H157.147C156.574 212.06 156.021 211.851 155.587 211.476C155.153 211.102 154.865 210.586 154.774 210.02C154.358 209.922 153.987 209.687 153.722 209.353C153.457 209.018 153.312 208.604 153.312 208.177C153.312 207.75 153.457 207.335 153.722 207C153.987 206.666 154.358 206.431 154.774 206.333C154.894 205.793 155.195 205.311 155.626 204.964C156.058 204.618 156.594 204.428 157.147 204.427H159.507V203.507C159.171 203.389 158.889 203.156 158.708 202.849C158.528 202.543 158.462 202.182 158.522 201.832C158.582 201.481 158.764 201.163 159.035 200.934C159.307 200.704 159.651 200.579 160.007 200.579C160.363 200.579 160.707 200.704 160.979 200.934C161.25 201.163 161.432 201.481 161.492 201.832C161.552 202.182 161.486 202.543 161.306 202.849C161.125 203.156 160.842 203.389 160.507 203.507V204.42H162.86C163.415 204.421 163.952 204.611 164.384 204.959C164.815 205.307 165.115 205.792 165.234 206.333C165.644 206.437 166.008 206.675 166.268 207.01ZM160.276 201.687C160.195 201.632 160.099 201.601 160 201.6C159.867 201.6 159.739 201.652 159.644 201.746C159.549 201.84 159.495 201.967 159.494 202.1C159.494 202.199 159.523 202.295 159.577 202.377C159.632 202.459 159.71 202.523 159.801 202.561C159.892 202.599 159.992 202.609 160.089 202.591C160.186 202.572 160.275 202.525 160.345 202.456C160.415 202.386 160.463 202.298 160.483 202.201C160.503 202.105 160.494 202.005 160.457 201.913C160.421 201.822 160.358 201.743 160.276 201.687ZM154.419 207.763C154.348 207.89 154.31 208.034 154.307 208.18C154.311 208.326 154.35 208.468 154.421 208.596C154.492 208.724 154.592 208.832 154.714 208.913V207.447C154.591 207.526 154.49 207.635 154.419 207.763ZM164.198 210.187C164.27 210.014 164.307 209.828 164.307 209.64L164.294 206.853C164.294 206.665 164.256 206.479 164.184 206.306C164.112 206.132 164.007 205.975 163.873 205.842C163.74 205.709 163.582 205.605 163.408 205.533C163.234 205.462 163.048 205.426 162.86 205.427H157.147C156.768 205.427 156.404 205.577 156.136 205.844C155.867 206.111 155.715 206.474 155.714 206.853V209.667C155.722 210.041 155.877 210.397 156.145 210.659C156.413 210.92 156.772 211.067 157.147 211.067H162.874C163.062 211.067 163.248 211.031 163.422 210.96C163.595 210.889 163.754 210.784 163.887 210.651C164.02 210.519 164.126 210.361 164.198 210.187ZM165.307 207.453V208.907C165.429 208.829 165.53 208.722 165.6 208.595C165.67 208.468 165.707 208.325 165.707 208.18C165.707 208.035 165.67 207.892 165.6 207.765C165.53 207.638 165.429 207.531 165.307 207.453ZM159.994 209.365C160.635 209.365 161.251 209.112 161.707 208.66C161.753 208.613 161.808 208.575 161.869 208.55C161.929 208.524 161.994 208.511 162.06 208.511C162.126 208.511 162.191 208.524 162.252 208.55C162.313 208.575 162.368 208.613 162.414 208.66C162.507 208.754 162.56 208.881 162.56 209.013C162.56 209.146 162.507 209.273 162.414 209.367C161.771 210.007 160.901 210.367 159.994 210.367C159.086 210.367 158.216 210.007 157.574 209.367C157.48 209.273 157.427 209.146 157.427 209.013C157.427 208.881 157.48 208.754 157.574 208.66C157.62 208.613 157.675 208.575 157.735 208.55C157.796 208.524 157.861 208.511 157.927 208.511C157.993 208.511 158.058 208.524 158.119 208.55C158.179 208.575 158.234 208.613 158.28 208.66C158.736 209.112 159.352 209.365 159.994 209.365ZM158.687 207.747C159.026 207.747 159.3 207.472 159.3 207.133C159.3 206.794 159.026 206.52 158.687 206.52C158.348 206.52 158.074 206.794 158.074 207.133C158.074 207.472 158.348 207.747 158.687 207.747ZM161.96 207.667H160.934C160.801 207.667 160.674 207.614 160.58 207.52C160.486 207.426 160.434 207.299 160.434 207.167C160.434 207.034 160.486 206.907 160.58 206.813C160.674 206.719 160.801 206.667 160.934 206.667H161.96C162.093 206.667 162.22 206.719 162.314 206.813C162.408 206.907 162.46 207.034 162.46 207.167C162.46 207.299 162.408 207.426 162.314 207.52C162.22 207.614 162.093 207.667 161.96 207.667Z" fill="#292929"/>
<path d="M136 230C136 228.343 137.343 227 139 227H181C182.657 227 184 228.343 184 230C184 231.657 182.657 233 181 233H139C137.343 233 136 231.657 136 230Z" fill="#292929"/>
<path d="M152 240C152 238.343 153.343 237 155 237H165C166.657 237 168 238.343 168 240C168 241.657 166.657 243 165 243H155C153.343 243 152 241.657 152 240Z" fill="#666666"/>
<path d="M204 111C204 106.582 207.582 103 212 103H268C272.418 103 276 106.582 276 111V167C276 171.418 272.418 175 268 175H212C207.582 175 204 171.418 204 167V111Z" fill="white"/>
<rect x="228" y="115" width="24" height="24" rx="12" fill="#FDE99B"/>
<path fill-rule="evenodd" clip-rule="evenodd" d="M246.268 127.01C246.528 127.345 246.668 127.756 246.667 128.18C246.666 128.598 246.527 129.005 246.272 129.337C246.016 129.668 245.658 129.906 245.254 130.013C245.165 130.584 244.875 131.105 244.436 131.482C243.997 131.858 243.438 132.066 242.86 132.067H237.147C236.574 132.06 236.021 131.851 235.587 131.476C235.153 131.102 234.865 130.586 234.774 130.02C234.358 129.922 233.987 129.687 233.722 129.353C233.457 129.018 233.312 128.604 233.312 128.177C233.312 127.75 233.457 127.335 233.722 127C233.987 126.666 234.358 126.431 234.774 126.333C234.894 125.793 235.195 125.311 235.626 124.964C236.058 124.618 236.594 124.428 237.147 124.427H239.507V123.507C239.171 123.389 238.889 123.156 238.708 122.849C238.528 122.543 238.462 122.182 238.522 121.832C238.582 121.481 238.764 121.163 239.035 120.934C239.307 120.704 239.651 120.579 240.007 120.579C240.363 120.579 240.707 120.704 240.979 120.934C241.25 121.163 241.432 121.481 241.492 121.832C241.552 122.182 241.486 122.543 241.306 122.849C241.125 123.156 240.842 123.389 240.507 123.507V124.42H242.86C243.415 124.421 243.952 124.611 244.384 124.959C244.815 125.307 245.115 125.792 245.234 126.333C245.644 126.437 246.008 126.675 246.268 127.01ZM240.276 121.687C240.195 121.632 240.099 121.601 240 121.6C239.867 121.6 239.739 121.652 239.644 121.746C239.549 121.84 239.495 121.967 239.494 122.1C239.494 122.199 239.523 122.295 239.577 122.377C239.632 122.459 239.71 122.523 239.801 122.561C239.892 122.599 239.992 122.609 240.089 122.591C240.186 122.572 240.275 122.525 240.345 122.456C240.415 122.386 240.463 122.298 240.483 122.201C240.503 122.105 240.494 122.005 240.457 121.913C240.421 121.822 240.358 121.743 240.276 121.687ZM234.419 127.763C234.348 127.89 234.31 128.034 234.307 128.18C234.311 128.326 234.35 128.468 234.421 128.596C234.492 128.724 234.592 128.832 234.714 128.913V127.447C234.591 127.526 234.49 127.635 234.419 127.763ZM244.198 130.187C244.27 130.014 244.307 129.828 244.307 129.64L244.294 126.853C244.294 126.665 244.256 126.479 244.184 126.306C244.112 126.132 244.007 125.975 243.873 125.842C243.74 125.709 243.582 125.605 243.408 125.533C243.234 125.462 243.048 125.426 242.86 125.427H237.147C236.768 125.427 236.404 125.577 236.136 125.844C235.867 126.111 235.715 126.474 235.714 126.853V129.667C235.722 130.041 235.877 130.397 236.145 130.659C236.413 130.92 236.772 131.067 237.147 131.067H242.874C243.062 131.067 243.248 131.031 243.422 130.96C243.595 130.889 243.754 130.784 243.887 130.651C244.02 130.519 244.126 130.361 244.198 130.187ZM245.307 127.453V128.907C245.429 128.829 245.53 128.722 245.6 128.595C245.67 128.468 245.707 128.325 245.707 128.18C245.707 128.035 245.67 127.892 245.6 127.765C245.53 127.638 245.429 127.531 245.307 127.453ZM239.994 129.365C240.635 129.365 241.251 129.112 241.707 128.66C241.753 128.613 241.808 128.575 241.869 128.55C241.929 128.524 241.994 128.511 242.06 128.511C242.126 128.511 242.191 128.524 242.252 128.55C242.313 128.575 242.368 128.613 242.414 128.66C242.507 128.754 242.56 128.881 242.56 129.013C242.56 129.146 242.507 129.273 242.414 129.367C241.771 130.007 240.901 130.367 239.994 130.367C239.086 130.367 238.216 130.007 237.574 129.367C237.48 129.273 237.427 129.146 237.427 129.013C237.427 128.881 237.48 128.754 237.574 128.66C237.62 128.613 237.675 128.575 237.735 128.55C237.796 128.524 237.861 128.511 237.927 128.511C237.993 128.511 238.058 128.524 238.119 128.55C238.179 128.575 238.234 128.613 238.28 128.66C238.736 129.112 239.352 129.365 239.994 129.365ZM238.687 127.747C239.026 127.747 239.3 127.472 239.3 127.133C239.3 126.794 239.026 126.52 238.687 126.52C238.348 126.52 238.074 126.794 238.074 127.133C238.074 127.472 238.348 127.747 238.687 127.747ZM241.96 127.667H240.934C240.801 127.667 240.674 127.614 240.58 127.52C240.486 127.426 240.434 127.299 240.434 127.167C240.434 127.034 240.486 126.907 240.58 126.813C240.674 126.719 240.801 126.667 240.934 126.667H241.96C242.093 126.667 242.22 126.719 242.314 126.813C242.408 126.907 242.46 127.034 242.46 127.167C242.46 127.299 242.408 127.426 242.314 127.52C242.22 127.614 242.093 127.667 241.96 127.667Z" fill="#292929"/>
<path d="M216 150C216 148.343 217.343 147 219 147H261C262.657 147 264 148.343 264 150C264 151.657 262.657 153 261 153H219C217.343 153 216 151.657 216 150Z" fill="#292929"/>
<path d="M232 160C232 158.343 233.343 157 235 157H245C246.657 157 248 158.343 248 160C248 161.657 246.657 163 245 163H235C233.343 163 232 161.657 232 160Z" fill="#666666"/>
<path d="M204 191C204 186.582 207.582 183 212 183H268C272.418 183 276 186.582 276 191V247C276 251.418 272.418 255 268 255H212C207.582 255 204 251.418 204 247V191Z" fill="white"/>
<rect x="228" y="195" width="24" height="24" rx="12" fill="#84EBBC"/>
<path fill-rule="evenodd" clip-rule="evenodd" d="M246.268 207.01C246.528 207.345 246.668 207.756 246.667 208.18C246.666 208.598 246.527 209.005 246.272 209.337C246.016 209.668 245.658 209.906 245.254 210.013C245.165 210.584 244.875 211.105 244.436 211.482C243.997 211.858 243.438 212.066 242.86 212.067H237.147C236.574 212.06 236.021 211.851 235.587 211.476C235.153 211.102 234.865 210.586 234.774 210.02C234.358 209.922 233.987 209.687 233.722 209.353C233.457 209.018 233.312 208.604 233.312 208.177C233.312 207.75 233.457 207.335 233.722 207C233.987 206.666 234.358 206.431 234.774 206.333C234.894 205.793 235.195 205.311 235.626 204.964C236.058 204.618 236.594 204.428 237.147 204.427H239.507V203.507C239.171 203.389 238.889 203.156 238.708 202.849C238.528 202.543 238.462 202.182 238.522 201.832C238.582 201.481 238.764 201.163 239.035 200.934C239.307 200.704 239.651 200.579 240.007 200.579C240.363 200.579 240.707 200.704 240.979 200.934C241.25 201.163 241.432 201.481 241.492 201.832C241.552 202.182 241.486 202.543 241.306 202.849C241.125 203.156 240.842 203.389 240.507 203.507V204.42H242.86C243.415 204.421 243.952 204.611 244.384 204.959C244.815 205.307 245.115 205.792 245.234 206.333C245.644 206.437 246.008 206.675 246.268 207.01ZM240.276 201.687C240.195 201.632 240.099 201.601 240 201.6C239.867 201.6 239.739 201.652 239.644 201.746C239.549 201.84 239.495 201.967 239.494 202.1C239.494 202.199 239.523 202.295 239.577 202.377C239.632 202.459 239.71 202.523 239.801 202.561C239.892 202.599 239.992 202.609 240.089 202.591C240.186 202.572 240.275 202.525 240.345 202.456C240.415 202.386 240.463 202.298 240.483 202.201C240.503 202.105 240.494 202.005 240.457 201.913C240.421 201.822 240.358 201.743 240.276 201.687ZM234.419 207.763C234.348 207.89 234.31 208.034 234.307 208.18C234.311 208.326 234.35 208.468 234.421 208.596C234.492 208.724 234.592 208.832 234.714 208.913V207.447C234.591 207.526 234.49 207.635 234.419 207.763ZM244.198 210.187C244.27 210.014 244.307 209.828 244.307 209.64L244.294 206.853C244.294 206.665 244.256 206.479 244.184 206.306C244.112 206.132 244.007 205.975 243.873 205.842C243.74 205.709 243.582 205.605 243.408 205.533C243.234 205.462 243.048 205.426 242.86 205.427H237.147C236.768 205.427 236.404 205.577 236.136 205.844C235.867 206.111 235.715 206.474 235.714 206.853V209.667C235.722 210.041 235.877 210.397 236.145 210.659C236.413 210.92 236.772 211.067 237.147 211.067H242.874C243.062 211.067 243.248 211.031 243.422 210.96C243.595 210.889 243.754 210.784 243.887 210.651C244.02 210.519 244.126 210.361 244.198 210.187ZM245.307 207.453V208.907C245.429 208.829 245.53 208.722 245.6 208.595C245.67 208.468 245.707 208.325 245.707 208.18C245.707 208.035 245.67 207.892 245.6 207.765C245.53 207.638 245.429 207.531 245.307 207.453ZM239.994 209.365C240.635 209.365 241.251 209.112 241.707 208.66C241.753 208.613 241.808 208.575 241.869 208.55C241.929 208.524 241.994 208.511 242.06 208.511C242.126 208.511 242.191 208.524 242.252 208.55C242.313 208.575 242.368 208.613 242.414 208.66C242.507 208.754 242.56 208.881 242.56 209.013C242.56 209.146 242.507 209.273 242.414 209.367C241.771 210.007 240.901 210.367 239.994 210.367C239.086 210.367 238.216 210.007 237.574 209.367C237.48 209.273 237.427 209.146 237.427 209.013C237.427 208.881 237.48 208.754 237.574 208.66C237.62 208.613 237.675 208.575 237.735 208.55C237.796 208.524 237.861 208.511 237.927 208.511C237.993 208.511 238.058 208.524 238.119 208.55C238.179 208.575 238.234 208.613 238.28 208.66C238.736 209.112 239.352 209.365 239.994 209.365ZM238.687 207.747C239.026 207.747 239.3 207.472 239.3 207.133C239.3 206.794 239.026 206.52 238.687 206.52C238.348 206.52 238.074 206.794 238.074 207.133C238.074 207.472 238.348 207.747 238.687 207.747ZM241.96 207.667H240.934C240.801 207.667 240.674 207.614 240.58 207.52C240.486 207.426 240.434 207.299 240.434 207.167C240.434 207.034 240.486 206.907 240.58 206.813C240.674 206.719 240.801 206.667 240.934 206.667H241.96C242.093 206.667 242.22 206.719 242.314 206.813C242.408 206.907 242.46 207.034 242.46 207.167C242.46 207.299 242.408 207.426 242.314 207.52C242.22 207.614 242.093 207.667 241.96 207.667Z" fill="#292929"/>
<path d="M216 230C216 228.343 217.343 227 219 227H261C262.657 227 264 228.343 264 230C264 231.657 262.657 233 261 233H219C217.343 233 216 231.657 216 230Z" fill="#292929"/>
<path d="M232 240C232 238.343 233.343 237 235 237H245C246.657 237 248 238.343 248 240C248 241.657 246.657 243 245 243H235C233.343 243 232 241.657 232 240Z" fill="#666666"/>
<path d="M284 111C284 106.582 287.582 103 292 103H348C352.418 103 356 106.582 356 111V167C356 171.418 352.418 175 348 175H292C287.582 175 284 171.418 284 167V111Z" fill="white"/>
<rect x="308" y="115" width="24" height="24" rx="12" fill="#F99F9F"/>
<path fill-rule="evenodd" clip-rule="evenodd" d="M326.268 127.01C326.528 127.345 326.668 127.756 326.667 128.18C326.666 128.598 326.527 129.005 326.272 129.337C326.016 129.668 325.658 129.906 325.254 130.013C325.165 130.584 324.875 131.105 324.436 131.482C323.997 131.858 323.438 132.066 322.86 132.067H317.147C316.574 132.06 316.021 131.851 315.587 131.476C315.153 131.102 314.865 130.586 314.774 130.02C314.358 129.922 313.987 129.687 313.722 129.353C313.457 129.018 313.312 128.604 313.312 128.177C313.312 127.75 313.457 127.335 313.722 127C313.987 126.666 314.358 126.431 314.774 126.333C314.894 125.793 315.195 125.311 315.626 124.964C316.058 124.618 316.594 124.428 317.147 124.427H319.507V123.507C319.171 123.389 318.889 123.156 318.708 122.849C318.528 122.543 318.462 122.182 318.522 121.832C318.582 121.481 318.764 121.163 319.035 120.934C319.307 120.704 319.651 120.579 320.007 120.579C320.363 120.579 320.707 120.704 320.979 120.934C321.25 121.163 321.432 121.481 321.492 121.832C321.552 122.182 321.486 122.543 321.306 122.849C321.125 123.156 320.842 123.389 320.507 123.507V124.42H322.86C323.415 124.421 323.952 124.611 324.384 124.959C324.815 125.307 325.115 125.792 325.234 126.333C325.644 126.437 326.008 126.675 326.268 127.01ZM320.276 121.687C320.195 121.632 320.099 121.601 320 121.6C319.867 121.6 319.739 121.652 319.644 121.746C319.549 121.84 319.495 121.967 319.494 122.1C319.494 122.199 319.523 122.295 319.577 122.377C319.632 122.459 319.71 122.523 319.801 122.561C319.892 122.599 319.992 122.609 320.089 122.591C320.186 122.572 320.275 122.525 320.345 122.456C320.415 122.386 320.463 122.298 320.483 122.201C320.503 122.105 320.494 122.005 320.457 121.913C320.421 121.822 320.358 121.743 320.276 121.687ZM314.419 127.763C314.348 127.89 314.31 128.034 314.307 128.18C314.311 128.326 314.35 128.468 314.421 128.596C314.492 128.724 314.592 128.832 314.714 128.913V127.447C314.591 127.526 314.49 127.635 314.419 127.763ZM324.198 130.187C324.27 130.014 324.307 129.828 324.307 129.64L324.294 126.853C324.294 126.665 324.256 126.479 324.184 126.306C324.112 126.132 324.007 125.975 323.873 125.842C323.74 125.709 323.582 125.605 323.408 125.533C323.234 125.462 323.048 125.426 322.86 125.427H317.147C316.768 125.427 316.404 125.577 316.136 125.844C315.867 126.111 315.715 126.474 315.714 126.853V129.667C315.722 130.041 315.877 130.397 316.145 130.659C316.413 130.92 316.772 131.067 317.147 131.067H322.874C323.062 131.067 323.248 131.031 323.422 130.96C323.595 130.889 323.754 130.784 323.887 130.651C324.02 130.519 324.126 130.361 324.198 130.187ZM325.307 127.453V128.907C325.429 128.829 325.53 128.722 325.6 128.595C325.67 128.468 325.707 128.325 325.707 128.18C325.707 128.035 325.67 127.892 325.6 127.765C325.53 127.638 325.429 127.531 325.307 127.453ZM319.994 129.365C320.635 129.365 321.251 129.112 321.707 128.66C321.753 128.613 321.808 128.575 321.869 128.55C321.929 128.524 321.994 128.511 322.06 128.511C322.126 128.511 322.191 128.524 322.252 128.55C322.313 128.575 322.368 128.613 322.414 128.66C322.507 128.754 322.56 128.881 322.56 129.013C322.56 129.146 322.507 129.273 322.414 129.367C321.771 130.007 320.901 130.367 319.994 130.367C319.086 130.367 318.216 130.007 317.574 129.367C317.48 129.273 317.427 129.146 317.427 129.013C317.427 128.881 317.48 128.754 317.574 128.66C317.62 128.613 317.675 128.575 317.735 128.55C317.796 128.524 317.861 128.511 317.927 128.511C317.993 128.511 318.058 128.524 318.119 128.55C318.179 128.575 318.234 128.613 318.28 128.66C318.736 129.112 319.352 129.365 319.994 129.365ZM318.687 127.747C319.026 127.747 319.3 127.472 319.3 127.133C319.3 126.794 319.026 126.52 318.687 126.52C318.348 126.52 318.074 126.794 318.074 127.133C318.074 127.472 318.348 127.747 318.687 127.747ZM321.96 127.667H320.934C320.801 127.667 320.674 127.614 320.58 127.52C320.486 127.426 320.434 127.299 320.434 127.167C320.434 127.034 320.486 126.907 320.58 126.813C320.674 126.719 320.801 126.667 320.934 126.667H321.96C322.093 126.667 322.22 126.719 322.314 126.813C322.408 126.907 322.46 127.034 322.46 127.167C322.46 127.299 322.408 127.426 322.314 127.52C322.22 127.614 322.093 127.667 321.96 127.667Z" fill="#292929"/>
<path d="M296 150C296 148.343 297.343 147 299 147H341C342.657 147 344 148.343 344 150C344 151.657 342.657 153 341 153H299C297.343 153 296 151.657 296 150Z" fill="#292929"/>
<path d="M312 160C312 158.343 313.343 157 315 157H325C326.657 157 328 158.343 328 160C328 161.657 326.657 163 325 163H315C313.343 163 312 161.657 312 160Z" fill="#666666"/>
<path d="M284 191C284 186.582 287.582 183 292 183H348C352.418 183 356 186.582 356 191V247C356 251.418 352.418 255 348 255H292C287.582 255 284 251.418 284 247V191Z" fill="white"/>
<rect x="308" y="195" width="24" height="24" rx="12" fill="#E0E0E0"/>
<path fill-rule="evenodd" clip-rule="evenodd" d="M326.268 207.01C326.528 207.345 326.668 207.756 326.667 208.18C326.666 208.598 326.527 209.005 326.272 209.337C326.016 209.668 325.658 209.906 325.254 210.013C325.165 210.584 324.875 211.105 324.436 211.482C323.997 211.858 323.438 212.066 322.86 212.067H317.147C316.574 212.06 316.021 211.851 315.587 211.476C315.153 211.102 314.865 210.586 314.774 210.02C314.358 209.922 313.987 209.687 313.722 209.353C313.457 209.018 313.312 208.604 313.312 208.177C313.312 207.75 313.457 207.335 313.722 207C313.987 206.666 314.358 206.431 314.774 206.333C314.894 205.793 315.195 205.311 315.626 204.964C316.058 204.618 316.594 204.428 317.147 204.427H319.507V203.507C319.171 203.389 318.889 203.156 318.708 202.849C318.528 202.543 318.462 202.182 318.522 201.832C318.582 201.481 318.764 201.163 319.035 200.934C319.307 200.704 319.651 200.579 320.007 200.579C320.363 200.579 320.707 200.704 320.979 200.934C321.25 201.163 321.432 201.481 321.492 201.832C321.552 202.182 321.486 202.543 321.306 202.849C321.125 203.156 320.842 203.389 320.507 203.507V204.42H322.86C323.415 204.421 323.952 204.611 324.384 204.959C324.815 205.307 325.115 205.792 325.234 206.333C325.644 206.437 326.008 206.675 326.268 207.01ZM320.276 201.687C320.195 201.632 320.099 201.601 320 201.6C319.867 201.6 319.739 201.652 319.644 201.746C319.549 201.84 319.495 201.967 319.494 202.1C319.494 202.199 319.523 202.295 319.577 202.377C319.632 202.459 319.71 202.523 319.801 202.561C319.892 202.599 319.992 202.609 320.089 202.591C320.186 202.572 320.275 202.525 320.345 202.456C320.415 202.386 320.463 202.298 320.483 202.201C320.503 202.105 320.494 202.005 320.457 201.913C320.421 201.822 320.358 201.743 320.276 201.687ZM314.419 207.763C314.348 207.89 314.31 208.034 314.307 208.18C314.311 208.326 314.35 208.468 314.421 208.596C314.492 208.724 314.592 208.832 314.714 208.913V207.447C314.591 207.526 314.49 207.635 314.419 207.763ZM324.198 210.187C324.27 210.014 324.307 209.828 324.307 209.64L324.294 206.853C324.294 206.665 324.256 206.479 324.184 206.306C324.112 206.132 324.007 205.975 323.873 205.842C323.74 205.709 323.582 205.605 323.408 205.533C323.234 205.462 323.048 205.426 322.86 205.427H317.147C316.768 205.427 316.404 205.577 316.136 205.844C315.867 206.111 315.715 206.474 315.714 206.853V209.667C315.722 210.041 315.877 210.397 316.145 210.659C316.413 210.92 316.772 211.067 317.147 211.067H322.874C323.062 211.067 323.248 211.031 323.422 210.96C323.595 210.889 323.754 210.784 323.887 210.651C324.02 210.519 324.126 210.361 324.198 210.187ZM325.307 207.453V208.907C325.429 208.829 325.53 208.722 325.6 208.595C325.67 208.468 325.707 208.325 325.707 208.18C325.707 208.035 325.67 207.892 325.6 207.765C325.53 207.638 325.429 207.531 325.307 207.453ZM319.994 209.365C320.635 209.365 321.251 209.112 321.707 208.66C321.753 208.613 321.808 208.575 321.869 208.55C321.929 208.524 321.994 208.511 322.06 208.511C322.126 208.511 322.191 208.524 322.252 208.55C322.313 208.575 322.368 208.613 322.414 208.66C322.507 208.754 322.56 208.881 322.56 209.013C322.56 209.146 322.507 209.273 322.414 209.367C321.771 210.007 320.901 210.367 319.994 210.367C319.086 210.367 318.216 210.007 317.574 209.367C317.48 209.273 317.427 209.146 317.427 209.013C317.427 208.881 317.48 208.754 317.574 208.66C317.62 208.613 317.675 208.575 317.735 208.55C317.796 208.524 317.861 208.511 317.927 208.511C317.993 208.511 318.058 208.524 318.119 208.55C318.179 208.575 318.234 208.613 318.28 208.66C318.736 209.112 319.352 209.365 319.994 209.365ZM318.687 207.747C319.026 207.747 319.3 207.472 319.3 207.133C319.3 206.794 319.026 206.52 318.687 206.52C318.348 206.52 318.074 206.794 318.074 207.133C318.074 207.472 318.348 207.747 318.687 207.747ZM321.96 207.667H320.934C320.801 207.667 320.674 207.614 320.58 207.52C320.486 207.426 320.434 207.299 320.434 207.167C320.434 207.034 320.486 206.907 320.58 206.813C320.674 206.719 320.801 206.667 320.934 206.667H321.96C322.093 206.667 322.22 206.719 322.314 206.813C322.408 206.907 322.46 207.034 322.46 207.167C322.46 207.299 322.408 207.426 322.314 207.52C322.22 207.614 322.093 207.667 321.96 207.667Z" fill="#292929"/>
<path d="M296 230C296 228.343 297.343 227 299 227H341C342.657 227 344 228.343 344 230C344 231.657 342.657 233 341 233H299C297.343 233 296 231.657 296 230Z" fill="#292929"/>
<path d="M312 240C312 238.343 313.343 237 315 237H325C326.657 237 328 238.343 328 240C328 241.657 326.657 243 325 243H315C313.343 243 312 241.657 312 240Z" fill="#666666"/>
<path d="M364 111C364 106.582 367.582 103 372 103H428C432.418 103 436 106.582 436 111V167C436 171.418 432.418 175 428 175H372C367.582 175 364 171.418 364 167V111Z" fill="white"/>
<rect x="388" y="115" width="24" height="24" rx="12" fill="#E0E0E0"/>
<path fill-rule="evenodd" clip-rule="evenodd" d="M406.268 127.01C406.528 127.345 406.668 127.756 406.667 128.18C406.666 128.598 406.527 129.005 406.272 129.337C406.016 129.668 405.658 129.906 405.254 130.013C405.165 130.584 404.875 131.105 404.436 131.482C403.997 131.858 403.438 132.066 402.86 132.067H397.147C396.574 132.06 396.021 131.851 395.587 131.476C395.153 131.102 394.865 130.586 394.774 130.02C394.358 129.922 393.987 129.687 393.722 129.353C393.457 129.018 393.312 128.604 393.312 128.177C393.312 127.75 393.457 127.335 393.722 127C393.987 126.666 394.358 126.431 394.774 126.333C394.894 125.793 395.195 125.311 395.626 124.964C396.058 124.618 396.594 124.428 397.147 124.427H399.507V123.507C399.171 123.389 398.889 123.156 398.708 122.849C398.528 122.543 398.462 122.182 398.522 121.832C398.582 121.481 398.764 121.163 399.035 120.934C399.307 120.704 399.651 120.579 400.007 120.579C400.363 120.579 400.707 120.704 400.979 120.934C401.25 121.163 401.432 121.481 401.492 121.832C401.552 122.182 401.486 122.543 401.306 122.849C401.125 123.156 400.842 123.389 400.507 123.507V124.42H402.86C403.415 124.421 403.952 124.611 404.384 124.959C404.815 125.307 405.115 125.792 405.234 126.333C405.644 126.437 406.008 126.675 406.268 127.01ZM400.276 121.687C400.195 121.632 400.099 121.601 400 121.6C399.867 121.6 399.739 121.652 399.644 121.746C399.549 121.84 399.495 121.967 399.494 122.1C399.494 122.199 399.523 122.295 399.577 122.377C399.632 122.459 399.71 122.523 399.801 122.561C399.892 122.599 399.992 122.609 400.089 122.591C400.186 122.572 400.275 122.525 400.345 122.456C400.415 122.386 400.463 122.298 400.483 122.201C400.503 122.105 400.494 122.005 400.457 121.913C400.421 121.822 400.358 121.743 400.276 121.687ZM394.419 127.763C394.348 127.89 394.31 128.034 394.307 128.18C394.311 128.326 394.35 128.468 394.421 128.596C394.492 128.724 394.592 128.832 394.714 128.913V127.447C394.591 127.526 394.49 127.635 394.419 127.763ZM404.198 130.187C404.27 130.014 404.307 129.828 404.307 129.64L404.294 126.853C404.294 126.665 404.256 126.479 404.184 126.306C404.112 126.132 404.007 125.975 403.873 125.842C403.74 125.709 403.582 125.605 403.408 125.533C403.234 125.462 403.048 125.426 402.86 125.427H397.147C396.768 125.427 396.404 125.577 396.136 125.844C395.867 126.111 395.715 126.474 395.714 126.853V129.667C395.722 130.041 395.877 130.397 396.145 130.659C396.413 130.92 396.772 131.067 397.147 131.067H402.874C403.062 131.067 403.248 131.031 403.422 130.96C403.595 130.889 403.754 130.784 403.887 130.651C404.02 130.519 404.126 130.361 404.198 130.187ZM405.307 127.453V128.907C405.429 128.829 405.53 128.722 405.6 128.595C405.67 128.468 405.707 128.325 405.707 128.18C405.707 128.035 405.67 127.892 405.6 127.765C405.53 127.638 405.429 127.531 405.307 127.453ZM399.994 129.365C400.635 129.365 401.251 129.112 401.707 128.66C401.753 128.613 401.808 128.575 401.869 128.55C401.929 128.524 401.994 128.511 402.06 128.511C402.126 128.511 402.191 128.524 402.252 128.55C402.313 128.575 402.368 128.613 402.414 128.66C402.507 128.754 402.56 128.881 402.56 129.013C402.56 129.146 402.507 129.273 402.414 129.367C401.771 130.007 400.901 130.367 399.994 130.367C399.086 130.367 398.216 130.007 397.574 129.367C397.48 129.273 397.427 129.146 397.427 129.013C397.427 128.881 397.48 128.754 397.574 128.66C397.62 128.613 397.675 128.575 397.735 128.55C397.796 128.524 397.861 128.511 397.927 128.511C397.993 128.511 398.058 128.524 398.119 128.55C398.179 128.575 398.234 128.613 398.28 128.66C398.736 129.112 399.352 129.365 399.994 129.365ZM398.687 127.747C399.026 127.747 399.3 127.472 399.3 127.133C399.3 126.794 399.026 126.52 398.687 126.52C398.348 126.52 398.074 126.794 398.074 127.133C398.074 127.472 398.348 127.747 398.687 127.747ZM401.96 127.667H400.934C400.801 127.667 400.674 127.614 400.58 127.52C400.486 127.426 400.434 127.299 400.434 127.167C400.434 127.034 400.486 126.907 400.58 126.813C400.674 126.719 400.801 126.667 400.934 126.667H401.96C402.093 126.667 402.22 126.719 402.314 126.813C402.408 126.907 402.46 127.034 402.46 127.167C402.46 127.299 402.408 127.426 402.314 127.52C402.22 127.614 402.093 127.667 401.96 127.667Z" fill="#292929"/>
<path d="M376 150C376 148.343 377.343 147 379 147H421C422.657 147 424 148.343 424 150C424 151.657 422.657 153 421 153H379C377.343 153 376 151.657 376 150Z" fill="#292929"/>
<path d="M392 160C392 158.343 393.343 157 395 157H405C406.657 157 408 158.343 408 160C408 161.657 406.657 163 405 163H395C393.343 163 392 161.657 392 160Z" fill="#666666"/>
<g filter="url(#filter0_d_12035_6908)">
<path d="M364 195.889C364 188.771 369.771 183 376.889 183H467.111C474.229 183 480 188.771 480 195.889V286.111C480 293.229 474.229 299 467.111 299H376.889C369.771 299 364 293.229 364 286.111V195.889Z" fill="white"/>
<rect x="402.667" y="202.333" width="38.6667" height="38.6667" rx="19.3333" fill="#0096FA"/>
<rect x="402.667" y="202.333" width="38.6667" height="38.6667" rx="19.3333" fill="white" fill-opacity="0.6"/>
<path fill-rule="evenodd" clip-rule="evenodd" d="M432.098 221.683C432.517 222.222 432.743 222.885 432.741 223.568C432.74 224.242 432.516 224.897 432.104 225.431C431.693 225.965 431.116 226.349 430.464 226.521C430.321 227.442 429.854 228.281 429.147 228.887C428.44 229.494 427.54 229.828 426.608 229.829H417.403C416.48 229.818 415.589 229.481 414.89 228.878C414.19 228.275 413.726 227.444 413.58 226.532C412.91 226.375 412.313 225.996 411.885 225.457C411.458 224.918 411.226 224.25 411.226 223.562C411.226 222.874 411.458 222.207 411.885 221.667C412.313 221.128 412.91 220.749 413.58 220.592C413.774 219.723 414.259 218.945 414.954 218.387C415.648 217.829 416.512 217.523 417.403 217.521H421.205V216.038C420.665 215.848 420.209 215.473 419.919 214.979C419.628 214.485 419.522 213.905 419.618 213.34C419.715 212.775 420.008 212.263 420.446 211.893C420.884 211.524 421.438 211.321 422.011 211.321C422.584 211.321 423.138 211.524 423.576 211.893C424.014 212.263 424.307 212.775 424.404 213.34C424.5 213.905 424.394 214.485 424.103 214.979C423.813 215.473 423.357 215.848 422.817 216.038V217.51H426.608C427.501 217.511 428.367 217.818 429.062 218.378C429.758 218.939 430.241 219.72 430.432 220.592C431.093 220.76 431.68 221.144 432.098 221.683ZM422.445 213.107C422.314 213.018 422.159 212.969 422 212.966C421.786 212.966 421.58 213.051 421.427 213.202C421.274 213.352 421.187 213.557 421.184 213.772C421.184 213.931 421.231 214.086 421.319 214.218C421.407 214.351 421.532 214.454 421.679 214.515C421.825 214.576 421.987 214.593 422.143 214.563C422.299 214.533 422.442 214.457 422.555 214.345C422.668 214.234 422.746 214.091 422.778 213.936C422.811 213.78 422.796 213.618 422.737 213.471C422.678 213.324 422.576 213.197 422.445 213.107ZM413.008 222.895C412.894 223.101 412.832 223.332 412.828 223.568C412.835 223.803 412.898 224.032 413.012 224.238C413.126 224.443 413.287 224.619 413.483 224.749V222.386C413.285 222.514 413.122 222.689 413.008 222.895ZM428.763 226.802C428.879 226.522 428.939 226.223 428.939 225.92L428.917 221.43C428.917 221.127 428.858 220.828 428.741 220.548C428.625 220.268 428.455 220.015 428.24 219.801C428.026 219.587 427.771 219.418 427.491 219.304C427.211 219.189 426.911 219.13 426.608 219.132H417.403C416.793 219.132 416.207 219.373 415.774 219.804C415.341 220.235 415.097 220.82 415.094 221.43V225.963C415.108 226.566 415.358 227.14 415.789 227.561C416.221 227.983 416.8 228.218 417.403 228.218H426.63C426.932 228.22 427.232 228.161 427.512 228.046C427.793 227.932 428.047 227.762 428.262 227.549C428.476 227.335 428.647 227.081 428.763 226.802ZM430.55 222.397V224.738C430.747 224.613 430.91 224.44 431.023 224.236C431.135 224.031 431.194 223.801 431.194 223.568C431.194 223.334 431.135 223.104 431.023 222.899C430.91 222.695 430.747 222.522 430.55 222.397ZM421.99 225.477C423.024 225.477 424.016 225.069 424.75 224.341C424.824 224.265 424.913 224.204 425.01 224.163C425.108 224.122 425.213 224.101 425.319 224.101C425.425 224.101 425.53 224.122 425.628 224.163C425.726 224.204 425.814 224.265 425.889 224.341C426.039 224.492 426.124 224.697 426.124 224.91C426.124 225.124 426.039 225.328 425.889 225.479C424.854 226.512 423.451 227.091 421.99 227.091C420.528 227.091 419.126 226.512 418.091 225.479C417.94 225.328 417.855 225.124 417.855 224.91C417.855 224.697 417.94 224.492 418.091 224.341C418.165 224.265 418.253 224.204 418.351 224.163C418.449 224.122 418.554 224.101 418.66 224.101C418.766 224.101 418.871 224.122 418.969 224.163C419.067 224.204 419.155 224.265 419.229 224.341C419.964 225.069 420.956 225.477 421.99 225.477ZM419.884 222.869C420.43 222.869 420.872 222.427 420.872 221.881C420.872 221.336 420.43 220.893 419.884 220.893C419.339 220.893 418.896 221.336 418.896 221.881C418.896 222.427 419.339 222.869 419.884 222.869ZM425.158 222.74H423.504C423.29 222.74 423.085 222.656 422.934 222.505C422.783 222.353 422.698 222.149 422.698 221.935C422.698 221.721 422.783 221.516 422.934 221.365C423.085 221.214 423.29 221.129 423.504 221.129H425.158C425.372 221.129 425.577 221.214 425.728 221.365C425.879 221.516 425.964 221.721 425.964 221.935C425.964 222.149 425.879 222.353 425.728 222.505C425.577 222.656 425.372 222.74 425.158 222.74Z" fill="#292929"/>
<path d="M383.333 258.722C383.333 256.053 385.497 253.889 388.166 253.889H455.833C458.502 253.889 460.666 256.053 460.666 258.722C460.666 261.392 458.502 263.556 455.833 263.556H388.166C385.497 263.556 383.333 261.392 383.333 258.722Z" fill="#292929"/>
<path d="M409.111 274.833C409.111 272.164 411.275 270 413.945 270H430.056C432.725 270 434.889 272.164 434.889 274.833C434.889 277.503 432.725 279.667 430.056 279.667H413.945C411.275 279.667 409.111 277.503 409.111 274.833Z" fill="#666666"/>
</g>
<defs>
<filter id="filter0_d_12035_6908" x="356" y="175" width="148" height="148" filterUnits="userSpaceOnUse" color-interpolation-filters="sRGB">
<feFlood flood-opacity="0" result="BackgroundImageFix"/>
<feColorMatrix in="SourceAlpha" type="matrix" values="0 0 0 0 0 0 0 0 0 0 0 0 0 0 0 0 0 0 127 0" result="hardAlpha"/>
<feOffset dx="8" dy="8"/>
<feGaussianBlur stdDeviation="8"/>
<feComposite in2="hardAlpha" operator="out"/>
<feColorMatrix type="matrix" values="0 0 0 0 0.160784 0 0 0 0 0.160784 0 0 0 0 0.160784 0 0 0 0.1 0"/>
<feBlend mode="normal" in2="BackgroundImageFix" result="effect1_dropShadow_12035_6908"/>
<feBlend mode="normal" in="SourceGraphic" in2="effect1_dropShadow_12035_6908" result="shape"/>
</filter>
</defs>
</svg>
