<svg width="480" height="304" viewBox="0 0 480 304" fill="none" xmlns="http://www.w3.org/2000/svg">
<path d="M24 32C24 27.5817 27.5817 24 32 24H448C452.418 24 456 27.5817 456 32V272C456 276.418 452.418 280 448 280H32C27.5817 280 24 276.418 24 272V32Z" fill="#F5F5F5"/>
<path d="M24 32C24 27.5817 27.5817 24 32 24H448C452.418 24 456 27.5817 456 32V56H24V32Z" fill="#141414"/>
<path d="M40 40C40 36.6863 42.6863 34 46 34H90C93.3137 34 96 36.6863 96 40C96 43.3137 93.3137 46 90 46H46C42.6863 46 40 43.3137 40 40Z" fill="#666666"/>
<path d="M104 40C104 38.3431 105.343 37 107 37H125C126.657 37 128 38.3431 128 40C128 41.6569 126.657 43 125 43H107C105.343 43 104 41.6569 104 40Z" fill="#666666"/>
<path d="M136 40C136 38.3431 137.343 37 139 37H165C166.657 37 168 38.3431 168 40C168 41.6569 166.657 43 165 43H139C137.343 43 136 41.6569 136 40Z" fill="#666666"/>
<path d="M251.531 47.7944V35.6787C251.531 35.55 251.63 35.4729 251.73 35.4729H254.111C254.21 35.4729 254.285 35.55 254.309 35.6272L254.458 36.3732C255.078 35.6272 255.971 35.2671 257.088 35.2671C259.295 35.2671 260.957 36.7333 260.957 39.9745C260.957 43.2156 259.32 44.7076 257.088 44.7076C255.996 44.7076 255.078 44.3475 254.458 43.5758V47.7687C254.458 47.8973 254.359 47.9745 254.26 47.9745H251.705C251.606 48.0002 251.531 47.923 251.531 47.7944ZM254.483 40.7719C254.483 40.8491 254.483 40.9263 254.508 41.0034C254.781 41.9552 255.401 42.3668 256.17 42.3668C257.212 42.3668 257.931 41.6722 257.931 40.0002C257.931 38.3282 257.212 37.6337 256.17 37.6337C255.351 37.6337 254.731 38.0452 254.508 38.997C254.483 39.0742 254.483 39.1256 254.483 39.2028V40.7719Z" fill="white"/>
<path d="M234.242 32H236.797C236.921 32 236.995 32.1029 236.995 32.2058V36.3987C237.615 35.6527 238.533 35.2669 239.624 35.2669C241.857 35.2669 243.494 36.7588 243.494 40C243.494 43.2412 241.832 44.7074 239.624 44.7074C238.508 44.7074 237.615 44.3473 236.995 43.6013L236.846 44.3473C236.822 44.4502 236.747 44.5016 236.648 44.5016H234.267C234.143 44.5016 234.068 44.3987 234.068 44.2958V32.2058C234.043 32.0772 234.118 32 234.242 32ZM236.995 40.8232C236.995 40.9003 236.995 40.9518 237.02 41.0289C237.243 41.9807 237.863 42.3923 238.682 42.3923C239.724 42.3923 240.443 41.6977 240.443 40.0257C240.443 38.3537 239.724 37.6592 238.682 37.6592C237.913 37.6592 237.293 38.0707 237.02 39.0225C236.995 39.0997 236.995 39.1768 236.995 39.254V40.8232Z" fill="white"/>
<path d="M244.189 32H246.744C246.868 32 246.942 32.1029 246.942 32.2058V44.3215C246.942 44.4502 246.843 44.5273 246.744 44.5273H244.189C244.065 44.5273 243.99 44.4244 243.99 44.3215V32.2058C243.99 32.0772 244.065 32 244.189 32Z" fill="white"/>
<path d="M247.761 34.1093V32.2058C247.761 32.0772 247.86 32 247.959 32H250.514C250.638 32 250.713 32.1029 250.713 32.2058V34.1093C250.713 34.2379 250.613 34.3151 250.514 34.3151H247.959C247.835 34.3151 247.761 34.2122 247.761 34.1093ZM247.959 35.4727H250.514C250.638 35.4727 250.713 35.5756 250.713 35.6785V44.3215C250.713 44.4502 250.613 44.5273 250.514 44.5273H247.959C247.835 44.5273 247.761 44.4244 247.761 44.3215V35.6785C247.761 35.5498 247.835 35.4727 247.959 35.4727Z" fill="white"/>
<path d="M225.535 32C223.923 32 222.261 32.2572 221.12 33.0032C219.284 34.1865 218.739 36.5016 218.788 38.6109C218.838 40.4373 219.309 42.418 220.574 43.7814C221.765 45.0675 224.245 45.6592 225.932 45.6592C226.006 45.6592 226.081 45.7106 226.081 45.8135V47.6656C226.081 47.8457 226.23 48 226.403 48H226.428C226.502 48 226.552 47.9743 226.602 47.9228C227.445 47.1769 228.288 46.4051 229.132 45.6077C229.926 44.8617 230.819 44.0643 231.414 43.164C232.704 41.2605 232.902 38.5338 232.48 36.2958C232.059 34.135 230.595 32.7203 228.536 32.283C227.668 32.1286 226.602 32 225.535 32Z" fill="#80E3EB"/>
<path d="M24 56H112V280H29.8667C26.6266 280 24 276.418 24 272V56Z" fill="white"/>
<path d="M40 80C40 78.3431 41.3431 77 43 77H77C78.6569 77 80 78.3431 80 80C80 81.6569 78.6569 83 77 83H43C41.3431 83 40 81.6569 40 80Z" fill="#292929"/>
<path d="M40 89C40 87.8954 40.8954 87 42 87H94C95.1046 87 96 87.8954 96 89C96 90.1046 95.1046 91 94 91H42C40.8954 91 40 90.1046 40 89Z" fill="#666666"/>
<path fill-rule="evenodd" clip-rule="evenodd" d="M96 112L40 112L40 111L96 111L96 112Z" fill="#E0E0E0"/>
<path d="M40 136C40 134.343 41.3431 133 43 133H93C94.6569 133 96 134.343 96 136C96 137.657 94.6569 139 93 139H43C41.3431 139 40 137.657 40 136Z" fill="#292929"/>
<path d="M40 145C40 143.895 40.8954 143 42 143H70C71.1046 143 72 143.895 72 145C72 146.105 71.1046 147 70 147H42C40.8954 147 40 146.105 40 145Z" fill="#666666"/>
<path fill-rule="evenodd" clip-rule="evenodd" d="M96 168L40 168L40 167L96 167L96 168Z" fill="#E0E0E0"/>
<path d="M40 192C40 190.343 41.3431 189 43 189H77C78.6569 189 80 190.343 80 192C80 193.657 78.6569 195 77 195H43C41.3431 195 40 193.657 40 192Z" fill="#292929"/>
<path d="M40 201C40 199.895 40.8954 199 42 199H94C95.1046 199 96 199.895 96 201C96 202.105 95.1046 203 94 203H42C40.8954 203 40 202.105 40 201Z" fill="#666666"/>
<path fill-rule="evenodd" clip-rule="evenodd" d="M96 224L40 224L40 223L96 223L96 224Z" fill="#E0E0E0"/>
<path d="M40 248C40 246.343 41.3431 245 43 245H93C94.6569 245 96 246.343 96 248C96 249.657 94.6569 251 93 251H43C41.3431 251 40 249.657 40 248Z" fill="#292929"/>
<path d="M40 257C40 255.895 40.8954 255 42 255H70C71.1046 255 72 255.895 72 257C72 258.105 71.1046 259 70 259H42C40.8954 259 40 258.105 40 257Z" fill="#666666"/>
<path d="M128 81C128 78.7909 129.791 77 132 77H212C214.209 77 216 78.7909 216 81C216 83.2091 214.209 85 212 85H132C129.791 85 128 83.2091 128 81Z" fill="#292929"/>
<path d="M216 104C216 99.5817 219.582 96 224 96H352C356.418 96 360 99.5817 360 104V150C360 154.418 356.418 158 352 158H224C219.582 158 216 154.418 216 150V104Z" fill="white"/>
<path d="M228 111C228 109.343 229.343 108 231 108H313C314.657 108 316 109.343 316 111C316 112.657 314.657 114 313 114H231C229.343 114 228 112.657 228 111Z" fill="#666666"/>
<path d="M228 126C228 123.791 229.791 122 232 122H248C250.209 122 252 123.791 252 126V142C252 144.209 250.209 146 248 146H232C229.791 146 228 144.209 228 142V126Z" fill="#E0E0E0"/>
<path d="M292 126C292 123.791 293.791 122 296 122H312C314.209 122 316 123.791 316 126V142C316 144.209 314.209 146 312 146H296C293.791 146 292 144.209 292 142V126Z" fill="#E0E0E0"/>
<path d="M260 126C260 123.791 261.791 122 264 122H280C282.209 122 284 123.791 284 126V142C284 144.209 282.209 146 280 146H264C261.791 146 260 144.209 260 142V126Z" fill="#E0E0E0"/>
<path d="M324 126C324 123.791 325.791 122 328 122H344C346.209 122 348 123.791 348 126V142C348 144.209 346.209 146 344 146H328C325.791 146 324 144.209 324 142V126Z" fill="#E0E0E0"/>
<path d="M128 104C128 99.5817 131.582 96 136 96H200C204.418 96 208 99.5817 208 104V150C208 154.418 204.418 158 200 158H136C131.582 158 128 154.418 128 150V104Z" fill="white"/>
<path d="M140 111C140 109.343 141.343 108 143 108H177C178.657 108 180 109.343 180 111C180 112.657 178.657 114 177 114H143C141.343 114 140 112.657 140 111Z" fill="#666666"/>
<path d="M140 126C140 123.791 141.791 122 144 122H160C162.209 122 164 123.791 164 126V142C164 144.209 162.209 146 160 146H144C141.791 146 140 144.209 140 142V126Z" fill="#E0E0E0"/>
<path d="M172 126C172 123.791 173.791 122 176 122H192C194.209 122 196 123.791 196 126V142C196 144.209 194.209 146 192 146H176C173.791 146 172 144.209 172 142V126Z" fill="#E0E0E0"/>
</svg>
