<svg width="488" height="328" viewBox="0 0 488 328" fill="none" xmlns="http://www.w3.org/2000/svg"><path d="M24 36c0-6.627 5.373-12 12-12h408c6.627 0 12 5.373 12 12v20H24V36Z" fill="#E7EDF4"/><rect x="140" y="32" width="200" height="16" rx="8" fill="#D2DFE6"/><rect x="24" y="56" width="432" height="224" rx="12" fill="#F3F6FA"/><rect x="72" y="104" width="48" height="6" rx="3" fill="#00C6D7"/><rect x="72" y="114" width="88" height="6" rx="3" fill="#00C6D7"/><rect x="72" y="124" width="64" height="6" rx="3" fill="#00C6D7"/><rect x="72" y="146" width="64" height="6" rx="3" fill="#B9CBD3"/><rect x="72" y="156" width="88" height="6" rx="3" fill="#B9CBD3"/><rect x="72" y="166" width="48" height="6" rx="3" fill="#B9CBD3"/><rect x="72" y="176" width="24" height="6" rx="3" fill="#B9CBD3"/><rect x="72" y="198" width="64" height="6" rx="3" fill="#B9CBD3"/><rect x="72" y="208" width="88" height="6" rx="3" fill="#B9CBD3"/><rect x="72" y="218" width="48" height="6" rx="3" fill="#B9CBD3"/><rect x="72" y="228" width="24" height="6" rx="3" fill="#B9CBD3"/><g filter="url(#screen-blipchat__a)"><path d="M248 108c0-8.837 7.163-16 16-16h136c8.837 0 16 7.163 16 16v24H248v-24Z" fill="#00C6D7"/><rect x="256" y="100" width="24" height="24" rx="12" fill="#fff"/><path d="M273.16 108.32h-2a2.314 2.314 0 0 0-.68-1.64 2.314 2.314 0 0 0-1.64-.68h-1.66a2.32 2.32 0 0 0-2.32 2.32h-2a1.491 1.491 0 0 0-1.078.434 1.507 1.507 0 0 0-.449 1.073v6.613c0 .4.159.783.442 1.065.282.283.665.442 1.065.442h10.32c.4 0 .783-.159 1.065-.442.283-.282.442-.665.442-1.065v-6.613a1.507 1.507 0 0 0-1.507-1.507Zm-7.3 0a1.333 1.333 0 0 1 1.333-1.333h1.64a1.333 1.333 0 0 1 1.334 1.333h-4.314.007Zm-3.02 1h10.32a.506.506 0 0 1 .507.507v2.113l-3.14 1.047a8.716 8.716 0 0 1-5.107.093l-3.087-.907v-2.346a.508.508 0 0 1 .507-.507Zm10.32 7.627h-10.32a.507.507 0 0 1-.507-.507v-3.227l2.814.807c.866.25 1.764.378 2.666.38a9.7 9.7 0 0 0 3.014-.48l2.84-.933v3.446a.525.525 0 0 1-.146.363.504.504 0 0 1-.361.151Z" fill="#00C6D7"/><rect x="288" y="108" width="80" height="8" rx="4" fill="#fff"/><path d="M248 132h168v156c0 8.837-7.163 16-16 16H264c-8.837 0-16-7.163-16-16V132Z" fill="#fff"/><path d="M256 152c0-6.627 5.373-12 12-12h72c6.627 0 12 5.373 12 12v8c0 6.627-5.373 12-12 12h-84v-20Z" fill="#E7EDF4"/><rect x="264" y="148" width="80" height="6" rx="3" fill="#8CA0B3"/><rect x="264" y="158" width="33" height="6" rx="3" fill="#8CA0B3"/><path d="M256 180h100c6.627 0 12 5.373 12 12v52c0 6.627-5.373 12-12 12h-88c-6.627 0-12-5.373-12-12v-64Z" fill="#E7EDF4"/><rect x="272" y="196" width="56" height="6" rx="3" fill="#8CA0B3"/><path opacity=".25" d="M272 218h80" stroke="#8CA0B3" stroke-linecap="round"/><rect x="272" y="234" width="80" height="6" rx="3" fill="#8CA0B3"/><rect x="256" y="272" width="152" height="24" rx="6" fill="#F3F6FA"/><rect x="424" y="264" width="40" height="40" rx="20" fill="#00C6D7"/><path d="m444.999 283.914 5.62-5.62a.762.762 0 0 0-.02-1.08.76.76 0 0 0-1.08.02l-5.62 5.62-5.62-5.62a.749.749 0 0 0-1.06 1.06l5.62 5.62-5.62 5.62a.75.75 0 0 0 1.06 1.06l5.62-5.58 5.62 5.62a.754.754 0 0 0 1.06 0 .749.749 0 0 0 0-1.06l-5.58-5.66Z" fill="#fff"/></g><defs><filter id="screen-blipchat__a" x="224" y="84" width="280" height="244" filterUnits="userSpaceOnUse" color-interpolation-filters="sRGB"><feFlood flood-opacity="0" result="BackgroundImageFix"/><feColorMatrix in="SourceAlpha" values="0 0 0 0 0 0 0 0 0 0 0 0 0 0 0 0 0 0 127 0" result="hardAlpha"/><feOffset dx="8" dy="8"/><feGaussianBlur stdDeviation="8"/><feColorMatrix values="0 0 0 0 0.536667 0 0 0 0 0.584274 0 0 0 0 0.670833 0 0 0 0.25 0"/><feBlend in2="BackgroundImageFix" result="effect1_dropShadow_12035_6914"/><feBlend in="SourceGraphic" in2="effect1_dropShadow_12035_6914" result="shape"/></filter></defs></svg>