<svg width="488" height="312" viewBox="0 0 488 312" fill="none" xmlns="http://www.w3.org/2000/svg"><path d="M24 36c0-6.627 5.373-12 12-12h408c6.627 0 12 5.373 12 12v20H24V36Z" fill="#1A2437"/><rect x="40" y="34" width="56" height="12" rx="6" fill="#8CA0B3"/><rect x="104" y="37" width="24" height="6" rx="3" fill="#B9CBD3"/><rect x="136" y="37" width="32" height="6" rx="3" fill="#B9CBD3"/><path d="M251.531 47.794V35.68c0-.13.099-.206.198-.206h2.381c.099 0 .174.077.199.154l.148.746c.621-.746 1.514-1.106 2.63-1.106 2.207 0 3.869 1.466 3.869 4.707 0 3.241-1.637 4.733-3.869 4.733-1.092 0-2.009-.36-2.63-1.131v4.193a.199.199 0 0 1-.198.205h-2.555c-.099.026-.173-.051-.173-.18Zm2.951-7.022c0 .077 0 .154.025.231.273.952.893 1.364 1.662 1.364 1.042 0 1.761-.695 1.761-2.367 0-1.672-.719-2.367-1.761-2.367-.819 0-1.439.412-1.662 1.364-.025.077-.025.128-.025.206v1.569ZM234.242 32h2.555c.124 0 .198.103.198.206v4.193c.62-.746 1.538-1.132 2.629-1.132 2.233 0 3.87 1.492 3.87 4.733 0 3.241-1.662 4.707-3.87 4.707-1.116 0-2.009-.36-2.629-1.106l-.149.746a.19.19 0 0 1-.198.155h-2.382c-.124 0-.198-.103-.198-.206v-12.09c-.025-.129.05-.206.174-.206Zm2.753 8.823c0 .077 0 .129.025.206.223.952.843 1.363 1.662 1.363 1.041 0 1.761-.694 1.761-2.366 0-1.672-.72-2.367-1.761-2.367-.769 0-1.389.412-1.662 1.364-.025.077-.025.154-.025.231v1.57ZM244.188 32h2.555c.124 0 .199.103.199.206V44.32a.2.2 0 0 1-.199.206h-2.555c-.124 0-.198-.103-.198-.206V32.206c0-.129.074-.206.198-.206Zm3.572 2.11v-1.904a.2.2 0 0 1 .199-.206h2.555c.124 0 .198.103.198.206v1.903a.199.199 0 0 1-.198.206h-2.555c-.124 0-.199-.103-.199-.206Zm.199 1.363h2.555c.124 0 .198.103.198.206v8.642a.199.199 0 0 1-.198.206h-2.555c-.124 0-.199-.103-.199-.206V35.68c0-.13.075-.206.199-.206Z" fill="#fff"/><path d="M225.535 32c-1.612 0-3.274.257-4.415 1.003-1.836 1.184-2.381 3.499-2.332 5.608.05 1.826.521 3.807 1.786 5.17 1.191 1.287 3.671 1.878 5.358 1.878.074 0 .149.052.149.154v1.853c0 .18.149.334.322.334h.025a.223.223 0 0 0 .174-.077 106.09 106.09 0 0 0 2.53-2.315c.794-.746 1.687-1.544 2.282-2.444 1.29-1.904 1.488-4.63 1.066-6.868-.421-2.161-1.885-3.576-3.944-4.013a17.564 17.564 0 0 0-3.001-.283Z" fill="#80E3EB"/><rect x="24" y="56" width="432" height="230" rx="12" fill="#F3F6FA"/><mask id="screen-desk__a" fill="#fff"><path d="M24 56h120v62H24V56Z"/></mask><path d="M24 56h120v62H24V56Z" fill="#233049"/><rect x="56" y="72" width="56" height="6" rx="3" fill="#B9CBD3"/><rect x="60" y="86" width="48" height="16" rx="4" fill="#21CC79"/><path d="M144 117.5H24v1h120v-1Z" fill="#D2DFE6" mask="url(#screen-desk__a)"/><mask id="screen-desk__e" fill="#fff"><path d="M24 118h120v168H36c-6.627 0-12-5.373-12-12V118Z"/></mask><path d="M24 118h120v168H36c-6.627 0-12-5.373-12-12V118Z" fill="#fff"/><g clip-path="url(#screen-desk__b)"><rect x="40" y="134" width="24" height="24" rx="12" fill="#FCCCCC"/><path d="M58.908 158.272c-.495-2.058-1.685-6.874-1.685-6.874 0-.242-1.464-.319-4.746-.382V151h-.953v.011c-3.282.063-4.746.146-4.746.382 0 0-1.195 4.818-1.684 6.874-.471 1.982.92 3.733 2.241 3.733h9.33c1.321.004 2.71-1.747 2.243-3.728Z" fill="#FFEC03"/><path fill-rule="evenodd" clip-rule="evenodd" d="M56.132 151.791c.757-.558 1.741-.268 2.226.482 1.5 2.325 2.504 5.037 3.528 7.587a1.56 1.56 0 0 1-.837 2.024 1.519 1.519 0 0 1-1.993-.851c-.944-2.351-1.842-4.964-3.273-7.085a1.569 1.569 0 0 1 .349-2.157Zm-8.264 0c-.757-.558-1.741-.268-2.226.482-1.5 2.325-2.504 5.037-3.528 7.587-.32.794.056 1.7.837 2.024a1.519 1.519 0 0 0 1.993-.851c.944-2.351 1.842-4.964 3.273-7.085a1.569 1.569 0 0 0-.349-2.157Z" fill="#FFEC03"/><path d="M51.824 138.532c.184-.035 2.198-1.679 3.982.41 1.262 1.478.108 2.455 1.188 3.474.957.904 2.288 3.288.47 5.261-.852.925 1.373 4.517-3.149 2.87-2.871-1.048-3.11-.388-3.11-.388l.62-11.627Z" fill="#202C44"/><path d="M53.227 139.081s.096-.873-1.24-1.414c-1.337-.541-4.556.171-4.494 3.017.062 2.845-2.884 2.975-2.09 5.115.795 2.139-1.408 2.418.647 4.151 2.056 1.733 5.6 1.276 5.55-1.698-.049-2.973 1.627-9.171 1.627-9.171Z" fill="#202C44"/><path d="M51.955 153c.664 0 1.202-.457 1.202-1.02s-.538-1.02-1.202-1.02c-.664 0-1.203.457-1.203 1.02s.539 1.02 1.203 1.02Z" fill="#CB9685"/><path fill-rule="evenodd" clip-rule="evenodd" d="M51.955 151.034c-.638 0-1.131.436-1.131.946s.493.946 1.13.946c.639 0 1.131-.436 1.131-.946s-.492-.946-1.13-.946Zm-1.275.946c0-.617.585-1.094 1.275-1.094s1.274.477 1.274 1.094c0 .617-.584 1.094-1.274 1.094-.69 0-1.275-.477-1.275-1.094Z" fill="#fff"/><path d="M52.053 149.049h-.195a3.467 3.467 0 0 1-.786-.087v2.341a.834.834 0 0 0 .231.577.789.789 0 0 0 .56.239h.184a.79.79 0 0 0 .734-.508.84.84 0 0 0 .058-.315v-2.34a3.59 3.59 0 0 1-.786.093Z" fill="#CB9685"/><path d="M51.074 149.599v.674s.188-.332.88-.332c.693 0 .885.37.885.37v-.816l-1.767-.033.002.137Z" fill="#BF7D68"/><path d="M55.73 141.765v4.039c0 .497-.094.989-.279 1.449-.184.46-.455.877-.797 1.229a3.644 3.644 0 0 1-1.193.82c-.447.19-.925.288-1.408.287h-.195a3.58 3.58 0 0 1-.786-.087 3.667 3.667 0 0 1-2.078-1.324 3.858 3.858 0 0 1-.813-2.372v-4.041c0-1.003.387-1.966 1.077-2.676a3.624 3.624 0 0 1 2.6-1.109h.195c.975 0 1.91.399 2.6 1.109a3.843 3.843 0 0 1 1.077 2.676Z" fill="#CB9685"/><path d="M48.272 144.75v1.732a.563.563 0 0 1-.399-.176.597.597 0 0 1-.163-.414v-.552c0-.154.058-.303.163-.413a.568.568 0 0 1 .399-.177Zm7.783.59v.552a.597.597 0 0 1-.164.414.563.563 0 0 1-.398.176v-1.732c.15.003.293.067.398.177a.6.6 0 0 1 .164.413Z" fill="#CB9685"/><path d="M52.122 138.539a6.43 6.43 0 0 1 1.518-.632c.27-.066.549-.091.826-.075.283.017.559.104.803.254.242.155.444.369.587.622l.113.179c.034.061.068.123.101.186.072.123.127.253.19.38.111.26.207.527.285.8.08.27.149.541.24.797.087.255.216.493.379.704.179.206.372.397.578.573.202.194.39.404.562.627.173.225.32.469.44.727.246.521.317 1.111.203 1.678a3.45 3.45 0 0 1-.809 1.457 3.56 3.56 0 0 0 .718-1.478 2.558 2.558 0 0 0-.24-1.592 3.297 3.297 0 0 0-.203-.353c-.07-.123-.155-.223-.24-.333a5.432 5.432 0 0 0-.553-.597 5.4 5.4 0 0 1-.598-.589 2.615 2.615 0 0 1-.412-.756c-.096-.27-.163-.544-.24-.81a7.396 7.396 0 0 0-.27-.78c-.058-.123-.11-.246-.178-.369-.032-.06-.062-.123-.096-.181l-.106-.176a1.725 1.725 0 0 0-.525-.588 1.625 1.625 0 0 0-.739-.26 2.77 2.77 0 0 0-.797.047 4.615 4.615 0 0 0-.78.222c-.257.092-.502.214-.757.316Z" fill="#202C44"/><path d="M53.26 139.514a1.217 1.217 0 0 0-.395-.88 2.515 2.515 0 0 0-.824-.519 2.812 2.812 0 0 0-.942-.181 4.103 4.103 0 0 0-.957.083 4.2 4.2 0 0 0-.919.296 3.112 3.112 0 0 0-.804.526 2.613 2.613 0 0 0-.85 1.695c-.017.161-.021.322-.033.499a3.053 3.053 0 0 1-.47 1.46c-.366.584-.904 1.004-1.368 1.46a2.033 2.033 0 0 0-.533.797 1.435 1.435 0 0 0-.057.479c.011.164.041.326.09.482.108.323.15.666.127 1.007a2.234 2.234 0 0 1-.104.492c-.057.16-.122.316-.196.467a2.83 2.83 0 0 0 .253-.963 2.542 2.542 0 0 0-.162-.975 2.15 2.15 0 0 1-.112-.503 1.54 1.54 0 0 1 .05-.519 2.13 2.13 0 0 1 .544-.862c.23-.247.478-.465.71-.698.236-.226.444-.479.623-.755a2.881 2.881 0 0 0 .433-1.383c.01-.16.01-.335.03-.508.039-.344.138-.678.293-.985.156-.308.37-.583.627-.808.253-.226.539-.409.847-.545.306-.138.627-.236.957-.292.326-.06.658-.081.988-.062.333.012.661.085.97.214.305.133.583.325.818.567.116.122.21.264.279.42.07.154.1.324.087.494Z" fill="#202C44"/><path d="M51.585 137.784c-2.872-.482-4.116 3.361-3.948 4.244.088.459.239 1.213.358 1.83 0 0 .348 2.193.278 1.716a3.362 3.362 0 0 1-.026-.343c-.01-.304.042-.606.153-.887.21-.537.495-1.196.495-1.196s1.887.304 3.556-.475c1.67-.778 2.333-3.27 2.333-3.27s-.328-1.136-3.2-1.619Z" fill="#202C44"/><path d="M51.714 137.659c3.99-.692 4.591 3.333 4.418 4.216-.174.883-.507 3.441-.507 3.441 0-.35-.372-2.834-.645-3.259-1.384-2.17-3.266-4.398-3.266-4.398Z" fill="#202C44"/><path d="M54.76 139.402a5.88 5.88 0 0 1-.219.968c-.096.319-.22.629-.368.926a4.532 4.532 0 0 1-.532.848c-.106.13-.219.254-.34.369-.063.056-.127.11-.192.164-.032.027-.063.056-.098.08l-.105.069a5.057 5.057 0 0 1-1.834.691 6.264 6.264 0 0 1-1.93.052 9.204 9.204 0 0 0 1.89-.246c.306-.072.607-.166.901-.28.074-.027.145-.06.218-.092.073-.032.145-.061.213-.099l.21-.108c.067-.039.128-.084.194-.124l.098-.061c.032-.022.06-.048.09-.073l.184-.156c.11-.114.224-.22.322-.344a4.97 4.97 0 0 0 .539-.791c.16-.281.303-.573.426-.873a9.7 9.7 0 0 0 .332-.92Z" fill="#202C44"/></g><rect x="72" y="139" width="56" height="6" rx="3" fill="#B9CBD3"/><rect x="72" y="149" width="48" height="4" rx="2" fill="#D2DFE6"/><path d="M128 173.5H40v1h88v-1Z" fill="#D2DFE6" mask="url(#screen-desk__path-18-inside-3_12035_6911)"/><g clip-path="url(#screen-desk__c)"><rect x="40" y="190" width="24" height="24" rx="12" fill="#FFEC03"/><path d="M58 210.265c0 3.723-2.686 10.235-6 10.235s-6-6.512-6-10.235c0-3.722 2.686-3.245 6-3.245s6-.477 6 3.245Z" fill="#FF4C4C"/><path fill-rule="evenodd" clip-rule="evenodd" d="M56.632 208.291c.757-.558 1.741-.268 2.226.482 1.5 2.325 2.504 5.037 3.528 7.587a1.56 1.56 0 0 1-.837 2.024 1.519 1.519 0 0 1-1.993-.851c-.944-2.351-1.842-4.964-3.273-7.085a1.569 1.569 0 0 1 .349-2.157Zm-9.264 0c-.757-.558-1.741-.268-2.226.482-1.5 2.325-2.504 5.037-3.528 7.587-.32.794.056 1.7.837 2.024a1.519 1.519 0 0 0 1.993-.851c.944-2.351 1.842-4.964 3.273-7.085a1.569 1.569 0 0 0-.349-2.157Z" fill="#FF4C4C"/><path d="M51.88 209c.748 0 1.354-.477 1.354-1.065 0-.589-.606-1.066-1.353-1.066-.748 0-1.354.477-1.354 1.066 0 .588.606 1.065 1.354 1.065Z" fill="#FDC2BF"/><path d="M51.88 209c.748 0 1.354-.477 1.354-1.065 0-.589-.606-1.066-1.353-1.066-.748 0-1.354.477-1.354 1.066 0 .588.606 1.065 1.354 1.065Z" fill="#F3C29F"/><path fill-rule="evenodd" clip-rule="evenodd" d="M51.88 208.842c.688 0 1.189-.434 1.189-.907 0-.474-.5-.907-1.188-.907s-1.188.433-1.188.907c0 .473.5.907 1.188.907Zm1.354-.907c0 .588-.606 1.065-1.353 1.065-.748 0-1.354-.477-1.354-1.065 0-.589.606-1.066 1.354-1.066.747 0 1.353.477 1.353 1.066Z" fill="#fff"/><path d="M51.991 205.152h-.22a4.24 4.24 0 0 1-.884-.091v2.445a.83.83 0 0 0 .261.603.902.902 0 0 0 .63.25h.207a.925.925 0 0 0 .63-.25.852.852 0 0 0 .194-.277.814.814 0 0 0 .067-.326v-2.445c-.29.061-.587.091-.885.091Z" fill="#F3C29F"/><path d="M50.869 205.882v.705s.214-.348.994-.352c.78-.004.995.386.995.386v-.847l-1.99-.035v.143Z" fill="#EDB58D"/><path d="M56.07 198.102v4.005c0 .493-.106.981-.313 1.437-.208.456-.513.87-.898 1.219a4.192 4.192 0 0 1-1.344.814 4.532 4.532 0 0 1-1.585.284h-.22c-.297 0-.594-.029-.885-.087a4.218 4.218 0 0 1-2.339-1.313 3.542 3.542 0 0 1-.915-2.352v-4.007c0-.995.436-1.95 1.212-2.654a4.19 4.19 0 0 1 1.343-.814 4.504 4.504 0 0 1 1.584-.286h.22c1.098 0 2.15.396 2.927 1.1.777.704 1.213 1.659 1.213 2.654Z" fill="#F3C29F"/><path d="M47.633 199.923v1.809a.657.657 0 0 1-.449-.185.6.6 0 0 1-.184-.432v-.576c0-.161.066-.317.185-.432a.66.66 0 0 1 .448-.184Zm9.07.616v.576a.6.6 0 0 1-.184.432.658.658 0 0 1-.45.185v-1.809a.66.66 0 0 1 .45.184.603.603 0 0 1 .184.432Z" fill="#F3C29F"/><path d="M55.826 199.559s.077 1.271 0 1.76c-.076.488.37-2.002.37-2.002l-.37.242Zm-7.949-.121s-.07 1.271 0 1.767-.306-1.767-.306-1.767h.306Z" fill="#212A3C"/><path d="M49.26 198.191s2.391 1.495 4.848 1.577l-.688-.441s1.745.508 4.114.222a3.338 3.338 0 0 0-.35-1.605 3.502 3.502 0 0 0-1.084-1.272s1.19.872 1.711 1.55c0 0-.936-3.659-5.387-3.933-4.452-.273-4.388 2.924-4.32 4.087 1.42-.22 1.156-.185 1.156-.185Z" fill="#202C44"/><path d="M47.793 200.407c-1.332-4.401.539-5.392 3.027-5.574l.303 3.185c-1.514-.463-2.85 1.4-3.33 2.389Zm8.087-.484c0-.63-.762-1.313-1.142-1.576l1.078-.363.254.121s.127.727.127 1.151a.893.893 0 0 1-.318.667Z" fill="#202C44"/></g><rect x="72" y="195" width="40" height="6" rx="3" fill="#B9CBD3"/><rect x="72" y="205" width="56" height="4" rx="2" fill="#D2DFE6"/><path d="M128 229.5H40v1h88v-1Z" fill="#D2DFE6" mask="url(#screen-desk__path-40-inside-4_12035_6911)"/><g clip-path="url(#screen-desk__d)"><rect x="40" y="246" width="24" height="24" rx="12" fill="#90E6BC"/><path d="M58.908 271.272c-.495-2.058-1.685-6.874-1.685-6.874 0-.242-1.464-.319-4.746-.382V264h-.953v.011c-3.282.063-4.746.146-4.746.382 0 0-1.195 4.818-1.684 6.874-.471 1.982.92 3.733 2.241 3.733h9.33c1.321.004 2.71-1.747 2.243-3.728Z" fill="#6D6F71"/><path fill-rule="evenodd" clip-rule="evenodd" d="M56.132 264.791c.757-.558 1.741-.268 2.226.482 1.5 2.325 2.504 5.037 3.528 7.587a1.56 1.56 0 0 1-.837 2.024 1.519 1.519 0 0 1-1.993-.851c-.944-2.351-1.842-4.964-3.273-7.085a1.569 1.569 0 0 1 .349-2.157Zm-8.264 0c-.757-.558-1.741-.268-2.226.482-1.5 2.325-2.504 5.037-3.528 7.587-.32.794.056 1.7.837 2.024a1.519 1.519 0 0 0 1.993-.851c.944-2.351 1.842-4.964 3.273-7.085a1.569 1.569 0 0 0-.349-2.157Z" fill="#6D6F71"/><path d="M51.8 265.999c.708 0 1.282-.503 1.282-1.123s-.574-1.122-1.282-1.122c-.708 0-1.281.502-1.281 1.122 0 .62.573 1.123 1.281 1.123Z" fill="#CB8591"/><path d="M51.8 263.889c.638 0 1.148.444 1.148.987 0 .544-.518.988-1.148.988-.63 0-1.155-.443-1.155-.988 0-.545.517-.987 1.155-.987Zm0-.135c-.709 0-1.283.503-1.283 1.122 0 .62.574 1.124 1.283 1.124.71 0 1.275-.503 1.275-1.124 0-.621-.574-1.122-1.275-1.122Z" fill="#fff"/><path d="M51.903 262.381h-.208a3.64 3.64 0 0 1-.837-.095v2.575a.946.946 0 0 0 .247.636.803.803 0 0 0 .597.263h.195a.794.794 0 0 0 .325-.067.85.85 0 0 0 .276-.194.941.941 0 0 0 .249-.638v-2.575a3.74 3.74 0 0 1-.844.095Z" fill="#CB8591"/><path d="M50.86 263.235v.742s.203-.367.943-.371c.74-.004.94.407.94.407v-.892l-1.883-.037v.151Z" fill="#A8747D"/><path d="M47.773 256.491v1.906a.595.595 0 0 1-.425-.194.671.671 0 0 1-.174-.456v-.612a.672.672 0 0 1 .176-.452.594.594 0 0 1 .423-.192Zm8.648.644v.607a.67.67 0 0 1-.174.455.591.591 0 0 1-.425.194v-1.9c.159.003.31.072.422.192a.672.672 0 0 1 .177.452Z" fill="#CB8591"/><path d="M55.822 254.587v4.445a4.4 4.4 0 0 1-.297 1.596 4.191 4.191 0 0 1-.85 1.352 3.905 3.905 0 0 1-1.271.903 3.71 3.71 0 0 1-1.5.315h-.209c-.281 0-.562-.032-.837-.096a3.897 3.897 0 0 1-2.217-1.457 4.333 4.333 0 0 1-.868-2.613v-4.445c0-.547.102-1.089.299-1.595.197-.505.486-.965.85-1.352a3.92 3.92 0 0 1 1.273-.902 3.711 3.711 0 0 1 1.5-.316h.208c1.04 0 2.036.439 2.771 1.22a4.303 4.303 0 0 1 1.148 2.945Z" fill="#CB8591"/><path d="M51.854 255.42c-.203.135-.695.168-1.285.213-.589.044-.82-.182-1.263.023-.443.204-1.36.198-1.9-.271a3.415 3.415 0 0 1-.822-1.211c-.479-1.553 1.253-2.445 1.253-2.445s.07-1.384 1.658-1.25c0 0 .23.042.4-.488s2.767-1.939 4.292.004c0 0 .494 1 .857.939.363-.061 3.263.689 2.238 3.597-.177.503-1.052 2.145-3.41.793 0 0-1.164-.494-2.018.096Z" fill="#202C44"/><path opacity=".2" d="M49.176 255.522c.118-.014-1.162.664-1.403 2.183v-2.558h.6l.803.375Z" fill="#202C44"/><path fill-rule="evenodd" clip-rule="evenodd" d="M47.657 255.915c0-.071.054-.128.12-.128h.379c.066 0 .12.057.12.128 0 .07-.054.127-.12.127h-.379c-.066 0-.12-.057-.12-.127Zm0 .446c0-.071.054-.128.12-.128h.379c.066 0 .12.057.12.128 0 .07-.054.127-.12.127h-.379c-.066 0-.12-.057-.12-.127Z" fill="#202C44"/><path opacity=".2" d="M54.413 255.522c-.112-.019 1.167.669 1.402 2.183v-2.558h-.6l-.802.375Z" fill="#202C44"/><path fill-rule="evenodd" clip-rule="evenodd" d="M55.32 255.915c0-.071.053-.128.12-.128h.378c.066 0 .12.057.12.128 0 .07-.054.127-.12.127h-.379c-.066 0-.12-.057-.12-.127Zm0 .446c0-.071.053-.128.12-.128h.378c.066 0 .12.057.12.128 0 .07-.054.127-.12.127h-.379c-.066 0-.12-.057-.12-.127Z" fill="#202C44"/><path fill-rule="evenodd" clip-rule="evenodd" d="M49.346 260.46a2.1 2.1 0 0 1-1.218-.393 2.305 2.305 0 0 1-.808-1.046 2.47 2.47 0 0 1-.125-1.348c.085-.452.294-.867.6-1.194a2.157 2.157 0 0 1 1.123-.638c.426-.09.867-.043 1.268.133.4.176.743.475.984.859a2.435 2.435 0 0 1 .363 1.473h.533a2.482 2.482 0 0 1 .035-.633c.085-.452.294-.867.6-1.194a2.157 2.157 0 0 1 1.124-.638c.425-.09.866-.043 1.267.133.4.176.743.475.984.859.241.383.37.834.37 1.295 0 .619-.231 1.212-.642 1.649a2.13 2.13 0 0 1-1.551.683c-.434 0-.858-.137-1.219-.393a2.306 2.306 0 0 1-.808-1.046 2.459 2.459 0 0 1-.13-.469h-.593c-.08.461-.29.889-.606 1.225a2.13 2.13 0 0 1-1.55.683Zm0-4.417a1.88 1.88 0 0 0-1.09.352 2.062 2.062 0 0 0-.721.936 2.21 2.21 0 0 0-.111 1.205c.076.404.263.776.537 1.067.274.292.624.49 1.004.571.38.08.775.039 1.134-.119.358-.158.664-.425.88-.768a2.18 2.18 0 0 0 .33-1.159c0-.553-.206-1.084-.575-1.476a1.904 1.904 0 0 0-1.388-.612v.003Zm4.907 0a1.88 1.88 0 0 0-1.09.351 2.063 2.063 0 0 0-.723.936 2.208 2.208 0 0 0-.111 1.205c.075.405.262.776.536 1.068.275.292.624.49 1.005.571.38.08.775.039 1.133-.119.359-.158.665-.425.88-.768a2.196 2.196 0 0 0 .182-1.957 2.096 2.096 0 0 0-.425-.678 1.959 1.959 0 0 0-.636-.453 1.86 1.86 0 0 0-.751-.159v.003Z" fill="#F6A721"/></g><rect x="72" y="251" width="56" height="6" rx="3" fill="#B9CBD3"/><rect x="72" y="261" width="32" height="4" rx="2" fill="#D2DFE6"/><path d="M24 118h120H24Zm120 168H24h120Zm-120 0V118v168Zm120.5-168v168h-1V118h1Z" fill="#D2DFE6" mask="url(#screen-desk__e)"/><g clip-path="url(#screen-desk__f)"><rect x="160" y="72" width="24" height="24" rx="12" fill="#FFB186"/><path d="M178 92.265c0 3.722-2.686 10.235-6 10.235s-6-6.513-6-10.235c0-3.722 2.686-3.245 6-3.245s6-.477 6 3.245Z" fill="#3F7DE8"/><path fill-rule="evenodd" clip-rule="evenodd" d="M176.632 90.29c.756-.557 1.741-.267 2.226.483 1.5 2.325 2.504 5.037 3.528 7.587.319.794-.056 1.7-.837 2.024a1.52 1.52 0 0 1-1.993-.85c-.944-2.352-1.842-4.965-3.273-7.086a1.568 1.568 0 0 1 .349-2.157Zm-9.264 0c-.756-.557-1.741-.267-2.226.483-1.5 2.325-2.504 5.037-3.528 7.587-.319.794.056 1.7.837 2.024a1.52 1.52 0 0 0 1.993-.85c.944-2.352 1.842-4.965 3.273-7.086a1.568 1.568 0 0 0-.349-2.157Z" fill="#3F7DE8"/><path d="M172 91c.689 0 1.248-.459 1.248-1.025 0-.566-.559-1.025-1.248-1.025s-1.248.459-1.248 1.025c0 .566.559 1.025 1.248 1.025Z" fill="#DA7A7A"/><path fill-rule="evenodd" clip-rule="evenodd" d="M172 90.876c.644 0 1.124-.425 1.124-.901 0-.477-.48-.902-1.124-.902-.644 0-1.124.425-1.124.902 0 .476.48.901 1.124.901Zm1.248-.901c0 .566-.559 1.025-1.248 1.025s-1.248-.459-1.248-1.025c0-.566.559-1.025 1.248-1.025s1.248.459 1.248 1.025Z" fill="#CB9685"/><path fill-rule="evenodd" clip-rule="evenodd" d="M172 90.876c.644 0 1.124-.425 1.124-.901 0-.477-.48-.902-1.124-.902-.644 0-1.124.425-1.124.902 0 .476.48.901 1.124.901Zm1.248-.901c0 .566-.559 1.025-1.248 1.025s-1.248-.459-1.248-1.025c0-.566.559-1.025 1.248-1.025s1.248.459 1.248 1.025Z" fill="#fff"/><path d="M175.918 79.305v4.059c0 .5-.098.995-.289 1.457a3.815 3.815 0 0 1-2.066 2.06c-.463.19-.96.289-1.461.288h-.196a3.82 3.82 0 0 1-2.972-1.418 3.799 3.799 0 0 1-.844-2.385v-4.061c0-1.01.402-1.977 1.117-2.69a3.824 3.824 0 0 1 2.699-1.115h.202a3.82 3.82 0 0 1 2.694 1.117 3.801 3.801 0 0 1 1.116 2.688Z" fill="#DA7A7A"/><path fill-rule="evenodd" clip-rule="evenodd" d="M175.793 83.364v-4.059c0-.975-.388-1.91-1.079-2.6a3.696 3.696 0 0 0-2.606-1.081h-.202a3.7 3.7 0 0 0-2.611 1.078 3.677 3.677 0 0 0-1.081 2.603v4.061c.001.84.289 1.653.817 2.307a3.693 3.693 0 0 0 2.085 1.287h.001c.259.057.523.086.788.085h.197a3.7 3.7 0 0 0 2.612-1.076 3.668 3.668 0 0 0 1.079-2.605Zm-7.703.002v-4.061c0-1.01.402-1.977 1.117-2.69a3.824 3.824 0 0 1 2.699-1.115h.202a3.82 3.82 0 0 1 2.694 1.117 3.801 3.801 0 0 1 1.116 2.688v4.059c0 .5-.098.995-.289 1.457a3.815 3.815 0 0 1-2.066 2.06c-.463.19-.96.289-1.461.288h-.196a3.82 3.82 0 0 1-2.972-1.418 3.799 3.799 0 0 1-.844-2.385Z" fill="#CB9685"/><path d="M168.084 80.89v1.74a.595.595 0 0 1-.584-.592v-.555a.593.593 0 0 1 .584-.593Z" fill="#DA7A7A"/><path fill-rule="evenodd" clip-rule="evenodd" d="M167.959 80.905a.604.604 0 0 1 .125-.015v1.74a.597.597 0 0 1-.414-.176.594.594 0 0 1-.17-.416m.459.45v-1.454a.47.47 0 0 0-.335.45v.554a.466.466 0 0 0 .335.45Z" fill="#CB9685"/><path d="M176.5 81.483v.555a.594.594 0 0 1-.584.593V80.89a.596.596 0 0 1 .584.593Z" fill="#DA7A7A"/><path fill-rule="evenodd" clip-rule="evenodd" d="M176.376 82.038v-.555h.124v.555a.594.594 0 0 1-.584.593V80.89a.604.604 0 0 1 .414.178c.109.11.17.26.17.415h-.124a.47.47 0 0 0-.335-.45v1.455a.469.469 0 0 0 .335-.45Z" fill="#CB9685"/><path opacity=".2" fill-rule="evenodd" clip-rule="evenodd" d="M171.446 77.07a1.918 1.918 0 0 0-1.918 1.913.372.372 0 0 1-.745 0c0-.704.28-1.38.78-1.878a2.666 2.666 0 0 1 1.883-.778.372.372 0 1 1 0 .743Z" fill="#fff"/><path d="M172.102 87.169h-.196c-.275 0-.548-.03-.816-.088v2.353a.817.817 0 0 0 .816.816h.19a.816.816 0 0 0 .581-.24.805.805 0 0 0 .178-.267.807.807 0 0 0 .063-.314v-2.347a3.854 3.854 0 0 1-.816.087Z" fill="#DA7A7A"/><path fill-rule="evenodd" clip-rule="evenodd" d="M172.918 89.429v-2.347a3.847 3.847 0 0 1-.816.087h-.196a3.787 3.787 0 0 1-.816-.088v2.353a.817.817 0 0 0 .816.816h.19a.816.816 0 0 0 .581-.24.805.805 0 0 0 .178-.267.807.807 0 0 0 .063-.314Zm-1.012.697h.19a.702.702 0 0 0 .645-.43.677.677 0 0 0 .052-.267v-2.196c-.228.04-.459.06-.691.06m-.196 2.833a.697.697 0 0 1-.692-.693v-2.201c.228.04.46.061.692.06h.196" fill="#CB9685"/><path d="M171.086 87.96v.677s.198-.335.917-.339c.719-.004.917.372.917.372v-.814l-1.834-.033v.137Z" fill="#BF7D68"/><path d="M175.769 83.255a1.666 1.666 0 0 1-1.684 1.582h-.077a.71.71 0 0 1-.527-.247 2.009 2.009 0 0 0-1.509-.7 2.024 2.024 0 0 0-1.524.669.709.709 0 0 1-.529.239 1.668 1.668 0 0 1-1.652-1.565l-.183-2.987v4.664c0 1.77.935 3.205 3.212 3.205h1.506c2.394 0 3.116-1.435 3.116-3.205v-4.664l-.149 3.009Z" fill="#212A3C"/></g><rect x="192" y="77" width="56" height="6" rx="3" fill="#B9CBD3"/><rect x="192" y="87" width="32" height="4" rx="2" fill="#D2DFE6"/><path d="M160 104h116c6.627 0 12 5.373 12 12v26c0 6.627-5.373 12-12 12H172c-6.627 0-12-5.373-12-12v-38Z" fill="#fff"/><rect x="172" y="116" width="104" height="6" rx="3" fill="#8CA0B3"/><rect x="172" y="126" width="56" height="6" rx="3" fill="#8CA0B3"/><rect x="172" y="136" width="72" height="6" rx="3" fill="#8CA0B3"/><g filter="url(#screen-desk__g)"><path d="M288 182c0-6.627 5.373-12 12-12h88c6.627 0 12 5.373 12 12v38H300c-6.627 0-12-5.373-12-12v-26Z" fill="#192438"/><rect x="300" y="182" width="88" height="6" rx="3" fill="#fff"/><rect x="300" y="192" width="48" height="6" rx="3" fill="#fff"/><rect x="300" y="202" width="62" height="6" rx="3" fill="#fff"/><path d="M232 240c0-6.627 5.373-12 12-12h156v48c0 6.627-5.373 12-12 12H244c-6.627 0-12-5.373-12-12v-36Z" fill="#192438"/><rect x="244" y="240" width="120" height="6" rx="3" fill="#fff"/><rect x="244" y="250" width="144" height="6" rx="3" fill="#fff"/><rect x="244" y="260" width="54" height="6" rx="3" fill="#fff"/><rect x="244" y="270" width="78" height="6" rx="3" fill="#fff"/><g clip-path="url(#screen-desk__h)"><rect x="416" y="170" width="48" height="48" rx="24" fill="#87DDE8"/><path d="M453.815 220.543a3228.573 3228.573 0 0 0-3.369-13.747c0-.484-2.928-.639-9.491-.765V206h-1.908v.022c-6.563.126-9.491.293-9.491.765 0 0-2.391 9.635-3.369 13.747-.941 3.964 1.843 7.466 4.484 7.466h18.66c2.641.007 5.418-3.495 4.484-7.457Z" fill="#FF8EAA"/><path fill-rule="evenodd" clip-rule="evenodd" d="M448.263 207.581c1.514-1.114 3.484-.535 4.452.965 3.001 4.65 5.009 10.074 7.058 15.174.637 1.588-.112 3.401-1.676 4.049-1.563.648-3.347-.114-3.985-1.702-1.889-4.702-3.684-9.928-6.547-14.171-.97-1.388-.661-3.314.698-4.315Zm-16.526 0c-1.514-1.114-3.484-.535-4.452.965-3.001 4.65-5.009 10.074-7.058 15.174-.637 1.588.112 3.401 1.676 4.049 1.563.648 3.347-.114 3.985-1.702 1.889-4.702 3.684-9.928 6.547-14.171.97-1.388.661-3.314-.698-4.315Z" fill="#FF8EAA"/><path d="M443.73 177.328c-.346-.429-.837-.601-1.245-.973l-.134.029a10.8 10.8 0 0 1 1.117 1.147c.168.211.342.402.482.639.151.217.288.444.41.678a4.7 4.7 0 0 1 .482 3.055 6.682 6.682 0 0 1-1.447 2.837 6.53 6.53 0 0 0 1.63-2.797 4.945 4.945 0 0 0-.407-3.22 7.306 7.306 0 0 0-.888-1.395Zm-4.294 5.554a2.356 2.356 0 0 0-1.757-.7 5.148 5.148 0 0 0-1.907.385 5.767 5.767 0 0 0-1.629 1.017 8.412 8.412 0 0 0-1.299 1.408 8.444 8.444 0 0 0-.957 1.654 6.113 6.113 0 0 0-.481 1.823 4.898 4.898 0 0 0 1.015 3.523c.19.25.4.481.618.745.211.258.403.531.574.816.337.579.569 1.21.687 1.867.241 1.312.012 2.626-.062 3.892-.06.626.036 1.256.28 1.838.14.279.329.532.557.747.235.215.496.401.776.555a4.945 4.945 0 0 1 1.533 1.24c.2.257.37.536.505.831.13.3.242.607.335.919a5.27 5.27 0 0 0-.914-1.693c-.43-.48-.955-.87-1.542-1.146a4.136 4.136 0 0 1-.838-.556 2.932 2.932 0 0 1-.621-.794 4.051 4.051 0 0 1-.351-1.944c.011-.657.084-1.297.114-1.936a8.05 8.05 0 0 0-.093-1.899 5.389 5.389 0 0 0-.662-1.753 6.706 6.706 0 0 0-.55-.771c-.2-.237-.432-.484-.634-.752a5.438 5.438 0 0 1-.886-1.777 5.088 5.088 0 0 1-.157-1.979 6.303 6.303 0 0 1 .519-1.907 7.853 7.853 0 0 1 1.019-1.701c.4-.524.86-1.001 1.371-1.422a5.783 5.783 0 0 1 1.713-1.007 5.267 5.267 0 0 1 1.963-.31c.334.014.663.087.972.213.309.121.581.319.789.574Z" fill="#2C2A46"/><path d="M438.223 183.561c.116-.299.296-.571.527-.798.231-.227.508-.404.813-.519a5.171 5.171 0 0 1 1.909-.374 5.84 5.84 0 0 1 1.904.315c.614.2 1.203.468 1.756.799a8.625 8.625 0 0 1 1.539 1.158c.464.437.858.941 1.167 1.495a4.877 4.877 0 0 1 .466 3.632c-.075.303-.177.597-.273.922a6.88 6.88 0 0 0-.204.972 5.668 5.668 0 0 0 .11 1.981c.299 1.301 1.033 2.423 1.604 3.561a3.82 3.82 0 0 1 .473 1.799 2.63 2.63 0 0 1-.216.902 3.895 3.895 0 0 1-.495.807 4.858 4.858 0 0 0-.918 1.727 4.146 4.146 0 0 0-.135.959c0 .326.019.651.057.975a5.214 5.214 0 0 1 .169-1.909 4.724 4.724 0 0 1 .964-1.645c.218-.254.402-.534.55-.832.143-.306.229-.634.257-.968a4.07 4.07 0 0 0-.449-1.925c-.271-.601-.593-1.162-.875-1.74a8.08 8.08 0 0 1-.669-1.784 5.352 5.352 0 0 1-.088-1.867c.045-.311.112-.618.2-.92.09-.295.206-.611.286-.935a5.384 5.384 0 0 0 .109-1.975 5.1 5.1 0 0 0-.642-1.883 6.457 6.457 0 0 0-1.236-1.558 8.042 8.042 0 0 0-1.615-1.177 8.727 8.727 0 0 0-1.828-.785 5.862 5.862 0 0 0-1.978-.273 5.246 5.246 0 0 0-1.93.465 2.855 2.855 0 0 0-.811.567c-.236.23-.408.516-.498.831Z" fill="#2C2A46"/><path d="M448.815 190.187v8.02c0 3.603-2.763 6.613-6.448 7.35a9.18 9.18 0 0 1-1.758.17h-.43c-.591 0-1.18-.057-1.758-.173-3.686-.739-6.446-3.746-6.446-7.347v-8.02c0-4.152 3.672-7.519 8.199-7.519h.437c4.534 0 8.204 3.367 8.204 7.519Z" fill="#2C2A46"/><path d="M440.496 210c1.394 0 2.524-.913 2.524-2.039 0-1.127-1.13-2.04-2.524-2.04-1.395 0-2.525.913-2.525 2.04 0 1.126 1.13 2.039 2.525 2.039Z" fill="#F3C29F"/><path fill-rule="evenodd" clip-rule="evenodd" d="M440.496 206.117c-1.323 0-2.326.859-2.326 1.844 0 .984 1.003 1.844 2.326 1.844 1.322 0 2.325-.86 2.325-1.844 0-.985-1.003-1.844-2.325-1.844Zm-2.724 1.844c0-1.268 1.257-2.235 2.724-2.235 1.466 0 2.724.967 2.724 2.235 0 1.268-1.258 2.234-2.724 2.234-1.467 0-2.724-.966-2.724-2.234Z" fill="#fff"/><path d="M440.699 203.219h-.409a7.762 7.762 0 0 1-1.651-.175v4.68a1.619 1.619 0 0 0 .486 1.155 1.68 1.68 0 0 0 1.177.478h.384a1.688 1.688 0 0 0 1.177-.478 1.6 1.6 0 0 0 .486-1.155v-4.682a7.886 7.886 0 0 1-1.65.177Z" fill="#F3C29F"/><path d="M438.644 204.313v1.347s.4-.667 1.857-.675c1.457-.007 1.853.739 1.853.739v-1.618l-3.71-.067v.274Z" fill="#E8AA7D"/><path d="M448.419 189.062v7.862c0 3.529-2.598 6.48-6.07 7.202a8.082 8.082 0 0 1-1.65.167h-.409a7.963 7.963 0 0 1-1.651-.17c-3.469-.719-6.069-3.672-6.069-7.199v-7.862c0-4.071 3.457-7.372 7.72-7.372h.409c4.265 0 7.72 3.303 7.72 7.372Z" fill="#F3C29F"/><path d="M432.57 193.33v3.463a1.215 1.215 0 0 1-.837-.352 1.169 1.169 0 0 1-.344-.827v-1.104c0-.309.124-.606.345-.826.221-.221.521-.348.836-.354Zm17.029 1.18v1.104c.001.309-.123.606-.344.827-.22.22-.521.347-.837.352v-3.463c.316.006.616.133.837.354.221.22.344.517.344.826Z" fill="#F3C29F"/><path d="M448.233 191.05s.145 2.48 0 3.433c-.146.953.582-3.433.582-3.433h-.582Zm-15.382 1.332s-.133 2.48 0 3.448-.582-3.448-.582-3.448h.582Zm4.238-12.182a3.66 3.66 0 0 1 .416-2.237 3.764 3.764 0 0 1 1.667-1.58 3.856 3.856 0 0 1 2.294-.333c.781.126 1.502.49 2.062 1.039.56.549.931 1.256 1.06 2.022.129.766.01 1.552-.34 2.249a3.752 3.752 0 0 1-1.612 1.634 3.857 3.857 0 0 1-2.281.408 3.826 3.826 0 0 1-2.188-1.057 3.695 3.695 0 0 1-1.078-2.145Z" fill="#2C2A46"/><path fill-rule="evenodd" clip-rule="evenodd" d="M443.593 175.643a.388.388 0 0 1 .211.513l-2.59 5.968a.4.4 0 0 1-.728.011l-1.462-3.083a.389.389 0 0 1 .193-.52.402.402 0 0 1 .53.19l1.084 2.287 2.239-5.159a.403.403 0 0 1 .523-.207Z" fill="#F66689"/><path d="M432.779 193.695a1.187 1.187 0 0 1-.846-.228 1.142 1.142 0 0 1-.446-.74 22.772 22.772 0 0 1-.198-1.576c-.304-4.237 3.188-9.183 7.086-9.183h5.409c4.665.572 6.448 6.054 5.411 10.394a.626.626 0 0 1-.61.471.647.647 0 0 1-.27-.059 46.42 46.42 0 0 0-1.441-.616c-1.779-.739-2.965-3.315-2.965-3.315s0 1.391-4.22 3.315c-1.894.864-5.19 1.337-6.91 1.537Z" fill="#2C2A46"/><path d="M444.522 186.404a10.803 10.803 0 0 1-.439 1.859 11.096 11.096 0 0 1-.743 1.778 8.673 8.673 0 0 1-1.073 1.627c-.212.25-.44.487-.683.709-.127.106-.258.21-.388.314-.065.052-.128.107-.198.154l-.212.132a10.538 10.538 0 0 1-3.697 1.327c-.642.112-1.293.178-1.946.196-.649.022-1.299-.01-1.943-.097a19.314 19.314 0 0 0 3.81-.473 14.114 14.114 0 0 0 1.816-.536c.149-.052.291-.116.439-.178.147-.061.291-.116.429-.189l.422-.208c.137-.073.26-.161.393-.236l.198-.119c.062-.042.12-.092.18-.139l.372-.3c.219-.218.451-.421.649-.66.411-.47.774-.979 1.085-1.518.324-.54.61-1.1.858-1.676.254-.577.478-1.167.671-1.767Z" fill="#2C2A46"/></g></g><defs><clipPath id="screen-desk__b"><rect x="40" y="134" width="24" height="24" rx="12" fill="#fff"/></clipPath><clipPath id="screen-desk__c"><rect x="40" y="190" width="24" height="24" rx="12" fill="#fff"/></clipPath><clipPath id="screen-desk__d"><rect x="40" y="246" width="24" height="24" rx="12" fill="#fff"/></clipPath><clipPath id="screen-desk__f"><rect x="160" y="72" width="24" height="24" rx="12" fill="#fff"/></clipPath><clipPath id="screen-desk__h"><rect x="416" y="170" width="48" height="48" rx="24" fill="#fff"/></clipPath><filter id="screen-desk__g" x="208" y="146" width="296" height="182" filterUnits="userSpaceOnUse" color-interpolation-filters="sRGB"><feFlood flood-opacity="0" result="BackgroundImageFix"/><feColorMatrix in="SourceAlpha" values="0 0 0 0 0 0 0 0 0 0 0 0 0 0 0 0 0 0 127 0" result="hardAlpha"/><feOffset dx="8" dy="8"/><feGaussianBlur stdDeviation="8"/><feColorMatrix values="0 0 0 0 0.536667 0 0 0 0 0.584274 0 0 0 0 0.670833 0 0 0 0.25 0"/><feBlend in2="BackgroundImageFix" result="effect1_dropShadow_12035_6911"/><feBlend in="SourceGraphic" in2="effect1_dropShadow_12035_6911" result="shape"/></filter></defs></svg>