<svg width="480" height="304" viewBox="0 0 480 304" fill="none" xmlns="http://www.w3.org/2000/svg">
<path d="M24 40C24 31.1634 31.1634 24 40 24H440C448.837 24 456 31.1634 456 40V56H24V40Z" fill="#1A2437"/>
<rect x="40" y="34" width="56" height="12" rx="6" fill="#8CA0B3"/>
<rect x="104" y="37" width="24" height="6" rx="3" fill="#B9CBD3"/>
<rect x="136" y="37" width="32" height="6" rx="3" fill="#B9CBD3"/>
<path d="M251.53 47.7942V35.6785C251.53 35.5499 251.629 35.4727 251.729 35.4727H254.11C254.209 35.4727 254.284 35.5499 254.308 35.627L254.457 36.373C255.077 35.627 255.97 35.2669 257.087 35.2669C259.294 35.2669 260.956 36.7331 260.956 39.9743C260.956 43.2155 259.319 44.7074 257.087 44.7074C255.995 44.7074 255.077 44.3473 254.457 43.5756V47.7685C254.457 47.8971 254.358 47.9743 254.259 47.9743H251.704C251.605 48 251.53 47.9229 251.53 47.7942ZM254.482 40.7717C254.482 40.8489 254.482 40.9261 254.507 41.0032C254.78 41.955 255.4 42.3666 256.169 42.3666C257.211 42.3666 257.93 41.6721 257.93 40C257.93 38.328 257.211 37.6335 256.169 37.6335C255.35 37.6335 254.73 38.045 254.507 38.9968C254.482 39.074 254.482 39.1254 254.482 39.2026V40.7717Z" fill="white"/>
<path d="M234.241 32H236.796C236.92 32 236.995 32.1029 236.995 32.2058V36.3987C237.615 35.6527 238.533 35.2669 239.624 35.2669C241.856 35.2669 243.494 36.7588 243.494 40C243.494 43.2412 241.832 44.7074 239.624 44.7074C238.508 44.7074 237.615 44.3473 236.995 43.6013L236.846 44.3473C236.821 44.4502 236.747 44.5016 236.647 44.5016H234.266C234.142 44.5016 234.068 44.3987 234.068 44.2958V32.2058C234.043 32.0772 234.117 32 234.241 32ZM236.995 40.8232C236.995 40.9003 236.995 40.9518 237.02 41.0289C237.243 41.9807 237.863 42.3923 238.681 42.3923C239.723 42.3923 240.443 41.6977 240.443 40.0257C240.443 38.3537 239.723 37.6592 238.681 37.6592C237.912 37.6592 237.292 38.0707 237.02 39.0225C236.995 39.0997 236.995 39.1768 236.995 39.254V40.8232Z" fill="white"/>
<path d="M244.188 32H246.743C246.867 32 246.942 32.1029 246.942 32.2058V44.3215C246.942 44.4502 246.842 44.5273 246.743 44.5273H244.188C244.064 44.5273 243.99 44.4244 243.99 44.3215V32.2058C243.99 32.0772 244.064 32 244.188 32Z" fill="white"/>
<path d="M247.76 34.1093V32.2058C247.76 32.0772 247.859 32 247.958 32H250.513C250.637 32 250.712 32.1029 250.712 32.2058V34.1093C250.712 34.2379 250.613 34.3151 250.513 34.3151H247.958C247.834 34.3151 247.76 34.2122 247.76 34.1093ZM247.958 35.4727H250.513C250.637 35.4727 250.712 35.5756 250.712 35.6785V44.3215C250.712 44.4502 250.613 44.5273 250.513 44.5273H247.958C247.834 44.5273 247.76 44.4244 247.76 44.3215V35.6785C247.76 35.5498 247.834 35.4727 247.958 35.4727Z" fill="white"/>
<path d="M225.535 32C223.923 32 222.261 32.2572 221.12 33.0032C219.284 34.1865 218.738 36.5016 218.788 38.6109C218.838 40.4373 219.309 42.418 220.574 43.7814C221.765 45.0675 224.245 45.6592 225.932 45.6592C226.006 45.6592 226.081 45.7106 226.081 45.8135V47.6656C226.081 47.8457 226.229 48 226.403 48H226.428C226.502 48 226.552 47.9743 226.601 47.9228C227.445 47.1769 228.288 46.4051 229.132 45.6077C229.925 44.8617 230.818 44.0643 231.414 43.164C232.703 41.2605 232.902 38.5338 232.48 36.2958C232.059 34.135 230.595 32.7203 228.536 32.283C227.668 32.1286 226.601 32 225.535 32Z" fill="#80E3EB"/>
<path d="M24 56H456V264C456 272.837 448.837 280 440 280H40C31.1634 280 24 272.837 24 264V56Z" fill="#F3F6FA"/>
<rect width="432" height="32" transform="translate(24 56)" fill="white"/>
<rect x="40" y="68" width="88" height="8" rx="4" fill="#B9CBD3"/>
<rect x="392" y="64" width="48" height="16" rx="4" fill="#3F7DE8"/>
<rect x="40" y="104" width="72" height="72" rx="8" fill="white"/>
<rect x="64" y="116" width="24" height="24" rx="12" fill="#125AD5"/>
<path fill-rule="evenodd" clip-rule="evenodd" d="M82.2676 128.01C82.5273 128.345 82.6678 128.756 82.6667 129.18C82.666 129.599 82.527 130.005 82.2714 130.337C82.0159 130.668 81.658 130.906 81.2533 131.013C81.1644 131.585 80.8744 132.105 80.4357 132.482C79.9969 132.858 79.4381 133.066 78.86 133.067H73.1467C72.5734 133.06 72.0209 132.851 71.5867 132.476C71.1525 132.102 70.8644 131.586 70.7733 131.02C70.3576 130.923 69.9871 130.687 69.7218 130.353C69.4566 130.018 69.3123 129.604 69.3123 129.177C69.3123 128.75 69.4566 128.335 69.7218 128.001C69.9871 127.666 70.3576 127.431 70.7733 127.333C70.8942 126.794 71.195 126.311 71.6262 125.964C72.0574 125.618 72.5935 125.428 73.1467 125.427H75.5067V124.507C75.1712 124.389 74.8883 124.156 74.708 123.849C74.5277 123.543 74.4617 123.182 74.5215 122.832C74.5814 122.481 74.7633 122.163 75.0351 121.934C75.3069 121.705 75.6511 121.579 76.0067 121.579C76.3623 121.579 76.7065 121.705 76.9783 121.934C77.2501 122.163 77.432 122.481 77.4918 122.832C77.5517 123.182 77.4856 123.543 77.3054 123.849C77.1251 124.156 76.8421 124.389 76.5067 124.507V125.42H78.86C79.4144 125.421 79.9519 125.611 80.3834 125.959C80.815 126.307 81.1149 126.792 81.2333 127.333C81.6439 127.437 82.0079 127.676 82.2676 128.01ZM76.276 122.688C76.1946 122.632 76.0986 122.601 76 122.6C75.8668 122.6 75.7389 122.652 75.6441 122.746C75.5493 122.84 75.4951 122.967 75.4933 123.1C75.4934 123.199 75.5225 123.295 75.5772 123.377C75.6318 123.459 75.7095 123.523 75.8005 123.561C75.8915 123.599 75.9917 123.61 76.0885 123.591C76.1853 123.572 76.2744 123.525 76.3446 123.456C76.4147 123.387 76.4629 123.298 76.4829 123.202C76.503 123.105 76.494 123.005 76.4572 122.913C76.4203 122.822 76.3573 122.743 76.276 122.688ZM70.4186 128.763C70.3477 128.891 70.3093 129.034 70.3067 129.18C70.311 129.326 70.3501 129.469 70.4209 129.596C70.4916 129.724 70.5919 129.832 70.7133 129.913V128.447C70.5907 128.526 70.4895 128.635 70.4186 128.763ZM80.1974 131.188C80.2696 131.014 80.3067 130.828 80.3067 130.64L80.2933 127.853C80.2934 127.665 80.2562 127.479 80.1841 127.306C80.112 127.132 80.0063 126.975 79.8731 126.842C79.7399 126.71 79.5819 126.605 79.408 126.533C79.2342 126.462 79.0479 126.426 78.86 126.427H73.1467C72.7677 126.427 72.4041 126.577 72.1355 126.844C71.8669 127.112 71.7151 127.474 71.7133 127.853V130.667C71.7221 131.041 71.8769 131.397 72.1448 131.659C72.4126 131.92 72.7722 132.067 73.1467 132.067H78.8733C79.0613 132.068 79.2475 132.031 79.4214 131.96C79.5952 131.889 79.7533 131.784 79.8865 131.651C80.0197 131.519 80.1253 131.361 80.1974 131.188ZM81.3067 128.453V129.907C81.4292 129.829 81.5302 129.722 81.6001 129.595C81.6701 129.468 81.7067 129.325 81.7067 129.18C81.7067 129.035 81.6701 128.892 81.6001 128.765C81.5302 128.638 81.4292 128.531 81.3067 128.453ZM75.9934 130.365C76.6352 130.365 77.251 130.112 77.7067 129.66C77.7527 129.613 77.8076 129.575 77.8683 129.55C77.929 129.524 77.9942 129.511 78.0601 129.511C78.1259 129.511 78.1911 129.524 78.2518 129.55C78.3125 129.575 78.3674 129.613 78.4134 129.66C78.507 129.754 78.5596 129.881 78.5596 130.013C78.5596 130.146 78.507 130.273 78.4134 130.367C77.771 131.007 76.9007 131.367 75.9934 131.367C75.0861 131.367 74.2158 131.007 73.5734 130.367C73.4798 130.273 73.4272 130.146 73.4272 130.013C73.4272 129.881 73.4798 129.754 73.5734 129.66C73.6194 129.613 73.6743 129.575 73.735 129.55C73.7957 129.524 73.8609 129.511 73.9267 129.511C73.9926 129.511 74.0578 129.524 74.1185 129.55C74.1792 129.575 74.2341 129.613 74.2801 129.66C74.7358 130.112 75.3516 130.365 75.9934 130.365ZM74.6867 128.747C75.0254 128.747 75.3 128.472 75.3 128.133C75.3 127.795 75.0254 127.52 74.6867 127.52C74.3479 127.52 74.0733 127.795 74.0733 128.133C74.0733 128.472 74.3479 128.747 74.6867 128.747ZM77.96 128.667H76.9334C76.8007 128.667 76.6736 128.614 76.5798 128.52C76.486 128.426 76.4334 128.299 76.4334 128.167C76.4334 128.034 76.486 127.907 76.5798 127.813C76.6736 127.719 76.8007 127.667 76.9334 127.667H77.96C78.0926 127.667 78.2198 127.719 78.3136 127.813C78.4073 127.907 78.46 128.034 78.46 128.167C78.46 128.299 78.4073 128.426 78.3136 128.52C78.2198 128.614 78.0926 128.667 77.96 128.667Z" fill="white"/>
<rect x="52" y="148" width="48" height="6" rx="3" fill="#8CA0B3"/>
<rect x="68" y="158" width="16" height="6" rx="3" fill="#B9CBD3"/>
<rect x="122" y="104" width="72" height="72" rx="8" fill="white"/>
<rect x="146" y="116" width="24" height="24" rx="12" fill="#00C6D7"/>
<path fill-rule="evenodd" clip-rule="evenodd" d="M164.268 128.01C164.527 128.345 164.668 128.756 164.667 129.18C164.666 129.599 164.527 130.005 164.271 130.337C164.016 130.668 163.658 130.906 163.253 131.013C163.164 131.585 162.874 132.105 162.436 132.482C161.997 132.858 161.438 133.066 160.86 133.067H155.147C154.573 133.06 154.021 132.851 153.587 132.476C153.152 132.102 152.864 131.586 152.773 131.02C152.358 130.923 151.987 130.687 151.722 130.353C151.457 130.018 151.312 129.604 151.312 129.177C151.312 128.75 151.457 128.335 151.722 128.001C151.987 127.666 152.358 127.431 152.773 127.333C152.894 126.794 153.195 126.311 153.626 125.964C154.057 125.618 154.594 125.428 155.147 125.427H157.507V124.507C157.171 124.389 156.888 124.156 156.708 123.849C156.528 123.543 156.462 123.182 156.522 122.832C156.581 122.481 156.763 122.163 157.035 121.934C157.307 121.705 157.651 121.579 158.007 121.579C158.362 121.579 158.706 121.705 158.978 121.934C159.25 122.163 159.432 122.481 159.492 122.832C159.552 123.182 159.486 123.543 159.305 123.849C159.125 124.156 158.842 124.389 158.507 124.507V125.42H160.86C161.414 125.421 161.952 125.611 162.383 125.959C162.815 126.307 163.115 126.792 163.233 127.333C163.644 127.437 164.008 127.676 164.268 128.01ZM158.276 122.688C158.195 122.632 158.099 122.601 158 122.6C157.867 122.6 157.739 122.652 157.644 122.746C157.549 122.84 157.495 122.967 157.493 123.1C157.493 123.199 157.523 123.295 157.577 123.377C157.632 123.459 157.71 123.523 157.8 123.561C157.891 123.599 157.992 123.61 158.088 123.591C158.185 123.572 158.274 123.525 158.345 123.456C158.415 123.387 158.463 123.298 158.483 123.202C158.503 123.105 158.494 123.005 158.457 122.913C158.42 122.822 158.357 122.743 158.276 122.688ZM152.419 128.763C152.348 128.891 152.309 129.034 152.307 129.18C152.311 129.326 152.35 129.469 152.421 129.596C152.492 129.724 152.592 129.832 152.713 129.913V128.447C152.591 128.526 152.49 128.635 152.419 128.763ZM162.197 131.188C162.27 131.014 162.307 130.828 162.307 130.64L162.293 127.853C162.293 127.665 162.256 127.479 162.184 127.306C162.112 127.132 162.006 126.975 161.873 126.842C161.74 126.71 161.582 126.605 161.408 126.533C161.234 126.462 161.048 126.426 160.86 126.427H155.147C154.768 126.427 154.404 126.577 154.136 126.844C153.867 127.112 153.715 127.474 153.713 127.853V130.667C153.722 131.041 153.877 131.397 154.145 131.659C154.413 131.92 154.772 132.067 155.147 132.067H160.873C161.061 132.068 161.247 132.031 161.421 131.96C161.595 131.889 161.753 131.784 161.886 131.651C162.02 131.519 162.125 131.361 162.197 131.188ZM163.307 128.453V129.907C163.429 129.829 163.53 129.722 163.6 129.595C163.67 129.468 163.707 129.325 163.707 129.18C163.707 129.035 163.67 128.892 163.6 128.765C163.53 128.638 163.429 128.531 163.307 128.453ZM157.993 130.365C158.635 130.365 159.251 130.112 159.707 129.66C159.753 129.613 159.808 129.575 159.868 129.55C159.929 129.524 159.994 129.511 160.06 129.511C160.126 129.511 160.191 129.524 160.252 129.55C160.312 129.575 160.367 129.613 160.413 129.66C160.507 129.754 160.56 129.881 160.56 130.013C160.56 130.146 160.507 130.273 160.413 130.367C159.771 131.007 158.901 131.367 157.993 131.367C157.086 131.367 156.216 131.007 155.573 130.367C155.48 130.273 155.427 130.146 155.427 130.013C155.427 129.881 155.48 129.754 155.573 129.66C155.619 129.613 155.674 129.575 155.735 129.55C155.796 129.524 155.861 129.511 155.927 129.511C155.993 129.511 156.058 129.524 156.118 129.55C156.179 129.575 156.234 129.613 156.28 129.66C156.736 130.112 157.352 130.365 157.993 130.365ZM156.687 128.747C157.025 128.747 157.3 128.472 157.3 128.133C157.3 127.795 157.025 127.52 156.687 127.52C156.348 127.52 156.073 127.795 156.073 128.133C156.073 128.472 156.348 128.747 156.687 128.747ZM159.96 128.667H158.933C158.801 128.667 158.674 128.614 158.58 128.52C158.486 128.426 158.433 128.299 158.433 128.167C158.433 128.034 158.486 127.907 158.58 127.813C158.674 127.719 158.801 127.667 158.933 127.667H159.96C160.093 127.667 160.22 127.719 160.314 127.813C160.407 127.907 160.46 128.034 160.46 128.167C160.46 128.299 160.407 128.426 160.314 128.52C160.22 128.614 160.093 128.667 159.96 128.667Z" fill="white"/>
<rect x="138" y="148" width="40" height="6" rx="3" fill="#8CA0B3"/>
<rect x="146" y="158" width="24" height="6" rx="3" fill="#B9CBD3"/>
<rect x="204" y="104" width="72" height="72" rx="8" fill="white"/>
<rect x="228" y="116" width="24" height="24" rx="12" fill="#FF4C4C"/>
<path fill-rule="evenodd" clip-rule="evenodd" d="M246.268 128.01C246.527 128.345 246.668 128.756 246.667 129.18C246.666 129.599 246.527 130.005 246.271 130.337C246.016 130.668 245.658 130.906 245.253 131.013C245.164 131.585 244.874 132.105 244.436 132.482C243.997 132.858 243.438 133.066 242.86 133.067H237.147C236.573 133.06 236.021 132.851 235.587 132.476C235.152 132.102 234.864 131.586 234.773 131.02C234.358 130.923 233.987 130.687 233.722 130.353C233.457 130.018 233.312 129.604 233.312 129.177C233.312 128.75 233.457 128.335 233.722 128.001C233.987 127.666 234.358 127.431 234.773 127.333C234.894 126.794 235.195 126.311 235.626 125.964C236.057 125.618 236.594 125.428 237.147 125.427H239.507V124.507C239.171 124.389 238.888 124.156 238.708 123.849C238.528 123.543 238.462 123.182 238.522 122.832C238.581 122.481 238.763 122.163 239.035 121.934C239.307 121.705 239.651 121.579 240.007 121.579C240.362 121.579 240.706 121.705 240.978 121.934C241.25 122.163 241.432 122.481 241.492 122.832C241.552 123.182 241.486 123.543 241.305 123.849C241.125 124.156 240.842 124.389 240.507 124.507V125.42H242.86C243.414 125.421 243.952 125.611 244.383 125.959C244.815 126.307 245.115 126.792 245.233 127.333C245.644 127.437 246.008 127.676 246.268 128.01ZM240.276 122.688C240.195 122.632 240.099 122.601 240 122.6C239.867 122.6 239.739 122.652 239.644 122.746C239.549 122.84 239.495 122.967 239.493 123.1C239.493 123.199 239.523 123.295 239.577 123.377C239.632 123.459 239.71 123.523 239.8 123.561C239.891 123.599 239.992 123.61 240.088 123.591C240.185 123.572 240.274 123.525 240.345 123.456C240.415 123.387 240.463 123.298 240.483 123.202C240.503 123.105 240.494 123.005 240.457 122.913C240.42 122.822 240.357 122.743 240.276 122.688ZM234.419 128.763C234.348 128.891 234.309 129.034 234.307 129.18C234.311 129.326 234.35 129.469 234.421 129.596C234.492 129.724 234.592 129.832 234.713 129.913V128.447C234.591 128.526 234.49 128.635 234.419 128.763ZM244.197 131.188C244.27 131.014 244.307 130.828 244.307 130.64L244.293 127.853C244.293 127.665 244.256 127.479 244.184 127.306C244.112 127.132 244.006 126.975 243.873 126.842C243.74 126.71 243.582 126.605 243.408 126.533C243.234 126.462 243.048 126.426 242.86 126.427H237.147C236.768 126.427 236.404 126.577 236.136 126.844C235.867 127.112 235.715 127.474 235.713 127.853V130.667C235.722 131.041 235.877 131.397 236.145 131.659C236.413 131.92 236.772 132.067 237.147 132.067H242.873C243.061 132.068 243.247 132.031 243.421 131.96C243.595 131.889 243.753 131.784 243.886 131.651C244.02 131.519 244.125 131.361 244.197 131.188ZM245.307 128.453V129.907C245.429 129.829 245.53 129.722 245.6 129.595C245.67 129.468 245.707 129.325 245.707 129.18C245.707 129.035 245.67 128.892 245.6 128.765C245.53 128.638 245.429 128.531 245.307 128.453ZM239.993 130.365C240.635 130.365 241.251 130.112 241.707 129.66C241.753 129.613 241.808 129.575 241.868 129.55C241.929 129.524 241.994 129.511 242.06 129.511C242.126 129.511 242.191 129.524 242.252 129.55C242.312 129.575 242.367 129.613 242.413 129.66C242.507 129.754 242.56 129.881 242.56 130.013C242.56 130.146 242.507 130.273 242.413 130.367C241.771 131.007 240.901 131.367 239.993 131.367C239.086 131.367 238.216 131.007 237.573 130.367C237.48 130.273 237.427 130.146 237.427 130.013C237.427 129.881 237.48 129.754 237.573 129.66C237.619 129.613 237.674 129.575 237.735 129.55C237.796 129.524 237.861 129.511 237.927 129.511C237.993 129.511 238.058 129.524 238.118 129.55C238.179 129.575 238.234 129.613 238.28 129.66C238.736 130.112 239.352 130.365 239.993 130.365ZM238.687 128.747C239.025 128.747 239.3 128.472 239.3 128.133C239.3 127.795 239.025 127.52 238.687 127.52C238.348 127.52 238.073 127.795 238.073 128.133C238.073 128.472 238.348 128.747 238.687 128.747ZM241.96 128.667H240.933C240.801 128.667 240.674 128.614 240.58 128.52C240.486 128.426 240.433 128.299 240.433 128.167C240.433 128.034 240.486 127.907 240.58 127.813C240.674 127.719 240.801 127.667 240.933 127.667H241.96C242.093 127.667 242.22 127.719 242.314 127.813C242.407 127.907 242.46 128.034 242.46 128.167C242.46 128.299 242.407 128.426 242.314 128.52C242.22 128.614 242.093 128.667 241.96 128.667Z" fill="white"/>
<rect x="224" y="148" width="32" height="6" rx="3" fill="#8CA0B3"/>
<rect x="228" y="158" width="24" height="6" rx="3" fill="#B9CBD3"/>
<rect x="286" y="104" width="72" height="72" rx="8" fill="white"/>
<rect x="310" y="116" width="24" height="24" rx="12" fill="#C226FB"/>
<path fill-rule="evenodd" clip-rule="evenodd" d="M328.268 128.01C328.527 128.345 328.668 128.756 328.667 129.18C328.666 129.599 328.527 130.005 328.271 130.337C328.016 130.668 327.658 130.906 327.253 131.013C327.164 131.585 326.874 132.105 326.436 132.482C325.997 132.858 325.438 133.066 324.86 133.067H319.147C318.573 133.06 318.021 132.851 317.587 132.476C317.152 132.102 316.864 131.586 316.773 131.02C316.358 130.923 315.987 130.687 315.722 130.353C315.457 130.018 315.312 129.604 315.312 129.177C315.312 128.75 315.457 128.335 315.722 128.001C315.987 127.666 316.358 127.431 316.773 127.333C316.894 126.794 317.195 126.311 317.626 125.964C318.057 125.618 318.594 125.428 319.147 125.427H321.507V124.507C321.171 124.389 320.888 124.156 320.708 123.849C320.528 123.543 320.462 123.182 320.522 122.832C320.581 122.481 320.763 122.163 321.035 121.934C321.307 121.705 321.651 121.579 322.007 121.579C322.362 121.579 322.706 121.705 322.978 121.934C323.25 122.163 323.432 122.481 323.492 122.832C323.552 123.182 323.486 123.543 323.305 123.849C323.125 124.156 322.842 124.389 322.507 124.507V125.42H324.86C325.414 125.421 325.952 125.611 326.383 125.959C326.815 126.307 327.115 126.792 327.233 127.333C327.644 127.437 328.008 127.676 328.268 128.01ZM322.276 122.688C322.195 122.632 322.099 122.601 322 122.6C321.867 122.6 321.739 122.652 321.644 122.746C321.549 122.84 321.495 122.967 321.493 123.1C321.493 123.199 321.523 123.295 321.577 123.377C321.632 123.459 321.71 123.523 321.8 123.561C321.891 123.599 321.992 123.61 322.088 123.591C322.185 123.572 322.274 123.525 322.345 123.456C322.415 123.387 322.463 123.298 322.483 123.202C322.503 123.105 322.494 123.005 322.457 122.913C322.42 122.822 322.357 122.743 322.276 122.688ZM316.419 128.763C316.348 128.891 316.309 129.034 316.307 129.18C316.311 129.326 316.35 129.469 316.421 129.596C316.492 129.724 316.592 129.832 316.713 129.913V128.447C316.591 128.526 316.49 128.635 316.419 128.763ZM326.197 131.188C326.27 131.014 326.307 130.828 326.307 130.64L326.293 127.853C326.293 127.665 326.256 127.479 326.184 127.306C326.112 127.132 326.006 126.975 325.873 126.842C325.74 126.71 325.582 126.605 325.408 126.533C325.234 126.462 325.048 126.426 324.86 126.427H319.147C318.768 126.427 318.404 126.577 318.136 126.844C317.867 127.112 317.715 127.474 317.713 127.853V130.667C317.722 131.041 317.877 131.397 318.145 131.659C318.413 131.92 318.772 132.067 319.147 132.067H324.873C325.061 132.068 325.247 132.031 325.421 131.96C325.595 131.889 325.753 131.784 325.886 131.651C326.02 131.519 326.125 131.361 326.197 131.188ZM327.307 128.453V129.907C327.429 129.829 327.53 129.722 327.6 129.595C327.67 129.468 327.707 129.325 327.707 129.18C327.707 129.035 327.67 128.892 327.6 128.765C327.53 128.638 327.429 128.531 327.307 128.453ZM321.993 130.365C322.635 130.365 323.251 130.112 323.707 129.66C323.753 129.613 323.808 129.575 323.868 129.55C323.929 129.524 323.994 129.511 324.06 129.511C324.126 129.511 324.191 129.524 324.252 129.55C324.312 129.575 324.367 129.613 324.413 129.66C324.507 129.754 324.56 129.881 324.56 130.013C324.56 130.146 324.507 130.273 324.413 130.367C323.771 131.007 322.901 131.367 321.993 131.367C321.086 131.367 320.216 131.007 319.573 130.367C319.48 130.273 319.427 130.146 319.427 130.013C319.427 129.881 319.48 129.754 319.573 129.66C319.619 129.613 319.674 129.575 319.735 129.55C319.796 129.524 319.861 129.511 319.927 129.511C319.993 129.511 320.058 129.524 320.118 129.55C320.179 129.575 320.234 129.613 320.28 129.66C320.736 130.112 321.352 130.365 321.993 130.365ZM320.687 128.747C321.025 128.747 321.3 128.472 321.3 128.133C321.3 127.795 321.025 127.52 320.687 127.52C320.348 127.52 320.073 127.795 320.073 128.133C320.073 128.472 320.348 128.747 320.687 128.747ZM323.96 128.667H322.933C322.801 128.667 322.674 128.614 322.58 128.52C322.486 128.426 322.433 128.299 322.433 128.167C322.433 128.034 322.486 127.907 322.58 127.813C322.674 127.719 322.801 127.667 322.933 127.667H323.96C324.093 127.667 324.22 127.719 324.314 127.813C324.407 127.907 324.46 128.034 324.46 128.167C324.46 128.299 324.407 128.426 324.314 128.52C324.22 128.614 324.093 128.667 323.96 128.667Z" fill="white"/>
<rect x="302" y="148" width="40" height="6" rx="3" fill="#8CA0B3"/>
<rect x="314" y="158" width="16" height="6" rx="3" fill="#B9CBD3"/>
<rect x="368" y="104" width="72" height="72" rx="8" fill="white"/>
<rect x="392" y="116" width="24" height="24" rx="12" fill="#AA398D"/>
<path fill-rule="evenodd" clip-rule="evenodd" d="M410.268 128.01C410.527 128.345 410.668 128.756 410.667 129.18C410.666 129.599 410.527 130.005 410.271 130.337C410.016 130.668 409.658 130.906 409.253 131.013C409.164 131.585 408.874 132.105 408.436 132.482C407.997 132.858 407.438 133.066 406.86 133.067H401.147C400.573 133.06 400.021 132.851 399.587 132.476C399.152 132.102 398.864 131.586 398.773 131.02C398.358 130.923 397.987 130.687 397.722 130.353C397.457 130.018 397.312 129.604 397.312 129.177C397.312 128.75 397.457 128.335 397.722 128.001C397.987 127.666 398.358 127.431 398.773 127.333C398.894 126.794 399.195 126.311 399.626 125.964C400.057 125.618 400.594 125.428 401.147 125.427H403.507V124.507C403.171 124.389 402.888 124.156 402.708 123.849C402.528 123.543 402.462 123.182 402.522 122.832C402.581 122.481 402.763 122.163 403.035 121.934C403.307 121.705 403.651 121.579 404.007 121.579C404.362 121.579 404.706 121.705 404.978 121.934C405.25 122.163 405.432 122.481 405.492 122.832C405.552 123.182 405.486 123.543 405.305 123.849C405.125 124.156 404.842 124.389 404.507 124.507V125.42H406.86C407.414 125.421 407.952 125.611 408.383 125.959C408.815 126.307 409.115 126.792 409.233 127.333C409.644 127.437 410.008 127.676 410.268 128.01ZM404.276 122.688C404.195 122.632 404.099 122.601 404 122.6C403.867 122.6 403.739 122.652 403.644 122.746C403.549 122.84 403.495 122.967 403.493 123.1C403.493 123.199 403.523 123.295 403.577 123.377C403.632 123.459 403.71 123.523 403.8 123.561C403.891 123.599 403.992 123.61 404.088 123.591C404.185 123.572 404.274 123.525 404.345 123.456C404.415 123.387 404.463 123.298 404.483 123.202C404.503 123.105 404.494 123.005 404.457 122.913C404.42 122.822 404.357 122.743 404.276 122.688ZM398.419 128.763C398.348 128.891 398.309 129.034 398.307 129.18C398.311 129.326 398.35 129.469 398.421 129.596C398.492 129.724 398.592 129.832 398.713 129.913V128.447C398.591 128.526 398.49 128.635 398.419 128.763ZM408.197 131.188C408.27 131.014 408.307 130.828 408.307 130.64L408.293 127.853C408.293 127.665 408.256 127.479 408.184 127.306C408.112 127.132 408.006 126.975 407.873 126.842C407.74 126.71 407.582 126.605 407.408 126.533C407.234 126.462 407.048 126.426 406.86 126.427H401.147C400.768 126.427 400.404 126.577 400.136 126.844C399.867 127.112 399.715 127.474 399.713 127.853V130.667C399.722 131.041 399.877 131.397 400.145 131.659C400.413 131.92 400.772 132.067 401.147 132.067H406.873C407.061 132.068 407.247 132.031 407.421 131.96C407.595 131.889 407.753 131.784 407.886 131.651C408.02 131.519 408.125 131.361 408.197 131.188ZM409.307 128.453V129.907C409.429 129.829 409.53 129.722 409.6 129.595C409.67 129.468 409.707 129.325 409.707 129.18C409.707 129.035 409.67 128.892 409.6 128.765C409.53 128.638 409.429 128.531 409.307 128.453ZM403.993 130.365C404.635 130.365 405.251 130.112 405.707 129.66C405.753 129.613 405.808 129.575 405.868 129.55C405.929 129.524 405.994 129.511 406.06 129.511C406.126 129.511 406.191 129.524 406.252 129.55C406.312 129.575 406.367 129.613 406.413 129.66C406.507 129.754 406.56 129.881 406.56 130.013C406.56 130.146 406.507 130.273 406.413 130.367C405.771 131.007 404.901 131.367 403.993 131.367C403.086 131.367 402.216 131.007 401.573 130.367C401.48 130.273 401.427 130.146 401.427 130.013C401.427 129.881 401.48 129.754 401.573 129.66C401.619 129.613 401.674 129.575 401.735 129.55C401.796 129.524 401.861 129.511 401.927 129.511C401.993 129.511 402.058 129.524 402.118 129.55C402.179 129.575 402.234 129.613 402.28 129.66C402.736 130.112 403.352 130.365 403.993 130.365ZM402.687 128.747C403.025 128.747 403.3 128.472 403.3 128.133C403.3 127.795 403.025 127.52 402.687 127.52C402.348 127.52 402.073 127.795 402.073 128.133C402.073 128.472 402.348 128.747 402.687 128.747ZM405.96 128.667H404.933C404.801 128.667 404.674 128.614 404.58 128.52C404.486 128.426 404.433 128.299 404.433 128.167C404.433 128.034 404.486 127.907 404.58 127.813C404.674 127.719 404.801 127.667 404.933 127.667H405.96C406.093 127.667 406.22 127.719 406.314 127.813C406.407 127.907 406.46 128.034 406.46 128.167C406.46 128.299 406.407 128.426 406.314 128.52C406.22 128.614 406.093 128.667 405.96 128.667Z" fill="white"/>
<rect x="380" y="148" width="48" height="6" rx="3" fill="#8CA0B3"/>
<rect x="392" y="158" width="24" height="6" rx="3" fill="#B9CBD3"/>
<rect x="40" y="192" width="72" height="72" rx="8" fill="white"/>
<rect x="64" y="204" width="24" height="24" rx="12" fill="#6D6F71"/>
<path fill-rule="evenodd" clip-rule="evenodd" d="M82.2676 216.01C82.5273 216.345 82.6678 216.756 82.6667 217.18C82.666 217.599 82.527 218.005 82.2714 218.337C82.0159 218.668 81.658 218.906 81.2533 219.013C81.1644 219.585 80.8744 220.105 80.4357 220.482C79.9969 220.858 79.4381 221.066 78.86 221.067H73.1467C72.5734 221.06 72.0209 220.851 71.5867 220.476C71.1525 220.102 70.8644 219.586 70.7733 219.02C70.3576 218.923 69.9871 218.687 69.7218 218.353C69.4566 218.018 69.3123 217.604 69.3123 217.177C69.3123 216.75 69.4566 216.335 69.7218 216.001C69.9871 215.666 70.3576 215.431 70.7733 215.333C70.8942 214.794 71.195 214.311 71.6262 213.964C72.0574 213.618 72.5935 213.428 73.1467 213.427H75.5067V212.507C75.1712 212.389 74.8883 212.156 74.708 211.849C74.5277 211.543 74.4617 211.182 74.5215 210.832C74.5814 210.481 74.7633 210.163 75.0351 209.934C75.3069 209.705 75.6511 209.579 76.0067 209.579C76.3623 209.579 76.7065 209.705 76.9783 209.934C77.2501 210.163 77.432 210.481 77.4918 210.832C77.5517 211.182 77.4856 211.543 77.3054 211.849C77.1251 212.156 76.8421 212.389 76.5067 212.507V213.42H78.86C79.4144 213.421 79.9519 213.611 80.3834 213.959C80.815 214.307 81.1149 214.792 81.2333 215.333C81.6439 215.437 82.0079 215.676 82.2676 216.01ZM76.276 210.688C76.1946 210.632 76.0986 210.601 76 210.6C75.8668 210.6 75.7389 210.652 75.6441 210.746C75.5493 210.84 75.4951 210.967 75.4933 211.1C75.4934 211.199 75.5225 211.295 75.5772 211.377C75.6318 211.459 75.7095 211.523 75.8005 211.561C75.8915 211.599 75.9917 211.61 76.0885 211.591C76.1853 211.572 76.2744 211.525 76.3446 211.456C76.4147 211.387 76.4629 211.298 76.4829 211.202C76.503 211.105 76.494 211.005 76.4572 210.913C76.4203 210.822 76.3573 210.743 76.276 210.688ZM70.4186 216.763C70.3477 216.891 70.3093 217.034 70.3067 217.18C70.311 217.326 70.3501 217.469 70.4209 217.596C70.4916 217.724 70.5919 217.832 70.7133 217.913V216.447C70.5907 216.526 70.4895 216.635 70.4186 216.763ZM80.1974 219.188C80.2696 219.014 80.3067 218.828 80.3067 218.64L80.2933 215.853C80.2934 215.665 80.2562 215.479 80.1841 215.306C80.112 215.132 80.0063 214.975 79.8731 214.842C79.7399 214.71 79.5819 214.605 79.408 214.533C79.2342 214.462 79.0479 214.426 78.86 214.427H73.1467C72.7677 214.427 72.4041 214.577 72.1355 214.844C71.8669 215.112 71.7151 215.474 71.7133 215.853V218.667C71.7221 219.041 71.8769 219.397 72.1448 219.659C72.4126 219.92 72.7722 220.067 73.1467 220.067H78.8733C79.0613 220.068 79.2475 220.031 79.4214 219.96C79.5952 219.889 79.7533 219.784 79.8865 219.651C80.0197 219.519 80.1253 219.361 80.1974 219.188ZM81.3067 216.453V217.907C81.4292 217.829 81.5302 217.722 81.6001 217.595C81.6701 217.468 81.7067 217.325 81.7067 217.18C81.7067 217.035 81.6701 216.892 81.6001 216.765C81.5302 216.638 81.4292 216.531 81.3067 216.453ZM75.9934 218.365C76.6352 218.365 77.251 218.112 77.7067 217.66C77.7527 217.613 77.8076 217.575 77.8683 217.55C77.929 217.524 77.9942 217.511 78.0601 217.511C78.1259 217.511 78.1911 217.524 78.2518 217.55C78.3125 217.575 78.3674 217.613 78.4134 217.66C78.507 217.754 78.5596 217.881 78.5596 218.013C78.5596 218.146 78.507 218.273 78.4134 218.367C77.771 219.007 76.9007 219.367 75.9934 219.367C75.0861 219.367 74.2158 219.007 73.5734 218.367C73.4798 218.273 73.4272 218.146 73.4272 218.013C73.4272 217.881 73.4798 217.754 73.5734 217.66C73.6194 217.613 73.6743 217.575 73.735 217.55C73.7957 217.524 73.8609 217.511 73.9267 217.511C73.9926 217.511 74.0578 217.524 74.1185 217.55C74.1792 217.575 74.2341 217.613 74.2801 217.66C74.7358 218.112 75.3516 218.365 75.9934 218.365ZM74.6867 216.747C75.0254 216.747 75.3 216.472 75.3 216.133C75.3 215.795 75.0254 215.52 74.6867 215.52C74.3479 215.52 74.0733 215.795 74.0733 216.133C74.0733 216.472 74.3479 216.747 74.6867 216.747ZM77.96 216.667H76.9334C76.8007 216.667 76.6736 216.614 76.5798 216.52C76.486 216.426 76.4334 216.299 76.4334 216.167C76.4334 216.034 76.486 215.907 76.5798 215.813C76.6736 215.719 76.8007 215.667 76.9334 215.667H77.96C78.0926 215.667 78.2198 215.719 78.3136 215.813C78.4073 215.907 78.46 216.034 78.46 216.167C78.46 216.299 78.4073 216.426 78.3136 216.52C78.2198 216.614 78.0926 216.667 77.96 216.667Z" fill="white"/>
<rect x="56" y="236" width="40" height="6" rx="3" fill="#8CA0B3"/>
<rect x="68" y="246" width="16" height="6" rx="3" fill="#B9CBD3"/>
<rect x="122" y="192" width="72" height="72" rx="8" fill="white"/>
<rect x="146" y="204" width="24" height="24" rx="12" fill="#FF6E1D"/>
<path fill-rule="evenodd" clip-rule="evenodd" d="M164.268 216.01C164.527 216.345 164.668 216.756 164.667 217.18C164.666 217.599 164.527 218.005 164.271 218.337C164.016 218.668 163.658 218.906 163.253 219.013C163.164 219.585 162.874 220.105 162.436 220.482C161.997 220.858 161.438 221.066 160.86 221.067H155.147C154.573 221.06 154.021 220.851 153.587 220.476C153.152 220.102 152.864 219.586 152.773 219.02C152.358 218.923 151.987 218.687 151.722 218.353C151.457 218.018 151.312 217.604 151.312 217.177C151.312 216.75 151.457 216.335 151.722 216.001C151.987 215.666 152.358 215.431 152.773 215.333C152.894 214.794 153.195 214.311 153.626 213.964C154.057 213.618 154.594 213.428 155.147 213.427H157.507V212.507C157.171 212.389 156.888 212.156 156.708 211.849C156.528 211.543 156.462 211.182 156.522 210.832C156.581 210.481 156.763 210.163 157.035 209.934C157.307 209.705 157.651 209.579 158.007 209.579C158.362 209.579 158.706 209.705 158.978 209.934C159.25 210.163 159.432 210.481 159.492 210.832C159.552 211.182 159.486 211.543 159.305 211.849C159.125 212.156 158.842 212.389 158.507 212.507V213.42H160.86C161.414 213.421 161.952 213.611 162.383 213.959C162.815 214.307 163.115 214.792 163.233 215.333C163.644 215.437 164.008 215.676 164.268 216.01ZM158.276 210.688C158.195 210.632 158.099 210.601 158 210.6C157.867 210.6 157.739 210.652 157.644 210.746C157.549 210.84 157.495 210.967 157.493 211.1C157.493 211.199 157.523 211.295 157.577 211.377C157.632 211.459 157.71 211.523 157.8 211.561C157.891 211.599 157.992 211.61 158.088 211.591C158.185 211.572 158.274 211.525 158.345 211.456C158.415 211.387 158.463 211.298 158.483 211.202C158.503 211.105 158.494 211.005 158.457 210.913C158.42 210.822 158.357 210.743 158.276 210.688ZM152.419 216.763C152.348 216.891 152.309 217.034 152.307 217.18C152.311 217.326 152.35 217.469 152.421 217.596C152.492 217.724 152.592 217.832 152.713 217.913V216.447C152.591 216.526 152.49 216.635 152.419 216.763ZM162.197 219.188C162.27 219.014 162.307 218.828 162.307 218.64L162.293 215.853C162.293 215.665 162.256 215.479 162.184 215.306C162.112 215.132 162.006 214.975 161.873 214.842C161.74 214.71 161.582 214.605 161.408 214.533C161.234 214.462 161.048 214.426 160.86 214.427H155.147C154.768 214.427 154.404 214.577 154.136 214.844C153.867 215.112 153.715 215.474 153.713 215.853V218.667C153.722 219.041 153.877 219.397 154.145 219.659C154.413 219.92 154.772 220.067 155.147 220.067H160.873C161.061 220.068 161.247 220.031 161.421 219.96C161.595 219.889 161.753 219.784 161.886 219.651C162.02 219.519 162.125 219.361 162.197 219.188ZM163.307 216.453V217.907C163.429 217.829 163.53 217.722 163.6 217.595C163.67 217.468 163.707 217.325 163.707 217.18C163.707 217.035 163.67 216.892 163.6 216.765C163.53 216.638 163.429 216.531 163.307 216.453ZM157.993 218.365C158.635 218.365 159.251 218.112 159.707 217.66C159.753 217.613 159.808 217.575 159.868 217.55C159.929 217.524 159.994 217.511 160.06 217.511C160.126 217.511 160.191 217.524 160.252 217.55C160.312 217.575 160.367 217.613 160.413 217.66C160.507 217.754 160.56 217.881 160.56 218.013C160.56 218.146 160.507 218.273 160.413 218.367C159.771 219.007 158.901 219.367 157.993 219.367C157.086 219.367 156.216 219.007 155.573 218.367C155.48 218.273 155.427 218.146 155.427 218.013C155.427 217.881 155.48 217.754 155.573 217.66C155.619 217.613 155.674 217.575 155.735 217.55C155.796 217.524 155.861 217.511 155.927 217.511C155.993 217.511 156.058 217.524 156.118 217.55C156.179 217.575 156.234 217.613 156.28 217.66C156.736 218.112 157.352 218.365 157.993 218.365ZM156.687 216.747C157.025 216.747 157.3 216.472 157.3 216.133C157.3 215.795 157.025 215.52 156.687 215.52C156.348 215.52 156.073 215.795 156.073 216.133C156.073 216.472 156.348 216.747 156.687 216.747ZM159.96 216.667H158.933C158.801 216.667 158.674 216.614 158.58 216.52C158.486 216.426 158.433 216.299 158.433 216.167C158.433 216.034 158.486 215.907 158.58 215.813C158.674 215.719 158.801 215.667 158.933 215.667H159.96C160.093 215.667 160.22 215.719 160.314 215.813C160.407 215.907 160.46 216.034 160.46 216.167C160.46 216.299 160.407 216.426 160.314 216.52C160.22 216.614 160.093 216.667 159.96 216.667Z" fill="white"/>
<rect x="134" y="236" width="48" height="6" rx="3" fill="#8CA0B3"/>
<rect x="146" y="246" width="24" height="6" rx="3" fill="#B9CBD3"/>
<rect x="204" y="192" width="72" height="72" rx="8" fill="white"/>
<rect x="228" y="204" width="24" height="24" rx="12" fill="#21CC79"/>
<path fill-rule="evenodd" clip-rule="evenodd" d="M246.268 216.01C246.527 216.345 246.668 216.756 246.667 217.18C246.666 217.599 246.527 218.005 246.271 218.337C246.016 218.668 245.658 218.906 245.253 219.013C245.164 219.585 244.874 220.105 244.436 220.482C243.997 220.858 243.438 221.066 242.86 221.067H237.147C236.573 221.06 236.021 220.851 235.587 220.476C235.152 220.102 234.864 219.586 234.773 219.02C234.358 218.923 233.987 218.687 233.722 218.353C233.457 218.018 233.312 217.604 233.312 217.177C233.312 216.75 233.457 216.335 233.722 216.001C233.987 215.666 234.358 215.431 234.773 215.333C234.894 214.794 235.195 214.311 235.626 213.964C236.057 213.618 236.594 213.428 237.147 213.427H239.507V212.507C239.171 212.389 238.888 212.156 238.708 211.849C238.528 211.543 238.462 211.182 238.522 210.832C238.581 210.481 238.763 210.163 239.035 209.934C239.307 209.705 239.651 209.579 240.007 209.579C240.362 209.579 240.706 209.705 240.978 209.934C241.25 210.163 241.432 210.481 241.492 210.832C241.552 211.182 241.486 211.543 241.305 211.849C241.125 212.156 240.842 212.389 240.507 212.507V213.42H242.86C243.414 213.421 243.952 213.611 244.383 213.959C244.815 214.307 245.115 214.792 245.233 215.333C245.644 215.437 246.008 215.676 246.268 216.01ZM240.276 210.688C240.195 210.632 240.099 210.601 240 210.6C239.867 210.6 239.739 210.652 239.644 210.746C239.549 210.84 239.495 210.967 239.493 211.1C239.493 211.199 239.523 211.295 239.577 211.377C239.632 211.459 239.71 211.523 239.8 211.561C239.891 211.599 239.992 211.61 240.088 211.591C240.185 211.572 240.274 211.525 240.345 211.456C240.415 211.387 240.463 211.298 240.483 211.202C240.503 211.105 240.494 211.005 240.457 210.913C240.42 210.822 240.357 210.743 240.276 210.688ZM234.419 216.763C234.348 216.891 234.309 217.034 234.307 217.18C234.311 217.326 234.35 217.469 234.421 217.596C234.492 217.724 234.592 217.832 234.713 217.913V216.447C234.591 216.526 234.49 216.635 234.419 216.763ZM244.197 219.188C244.27 219.014 244.307 218.828 244.307 218.64L244.293 215.853C244.293 215.665 244.256 215.479 244.184 215.306C244.112 215.132 244.006 214.975 243.873 214.842C243.74 214.71 243.582 214.605 243.408 214.533C243.234 214.462 243.048 214.426 242.86 214.427H237.147C236.768 214.427 236.404 214.577 236.136 214.844C235.867 215.112 235.715 215.474 235.713 215.853V218.667C235.722 219.041 235.877 219.397 236.145 219.659C236.413 219.92 236.772 220.067 237.147 220.067H242.873C243.061 220.068 243.247 220.031 243.421 219.96C243.595 219.889 243.753 219.784 243.886 219.651C244.02 219.519 244.125 219.361 244.197 219.188ZM245.307 216.453V217.907C245.429 217.829 245.53 217.722 245.6 217.595C245.67 217.468 245.707 217.325 245.707 217.18C245.707 217.035 245.67 216.892 245.6 216.765C245.53 216.638 245.429 216.531 245.307 216.453ZM239.993 218.365C240.635 218.365 241.251 218.112 241.707 217.66C241.753 217.613 241.808 217.575 241.868 217.55C241.929 217.524 241.994 217.511 242.06 217.511C242.126 217.511 242.191 217.524 242.252 217.55C242.312 217.575 242.367 217.613 242.413 217.66C242.507 217.754 242.56 217.881 242.56 218.013C242.56 218.146 242.507 218.273 242.413 218.367C241.771 219.007 240.901 219.367 239.993 219.367C239.086 219.367 238.216 219.007 237.573 218.367C237.48 218.273 237.427 218.146 237.427 218.013C237.427 217.881 237.48 217.754 237.573 217.66C237.619 217.613 237.674 217.575 237.735 217.55C237.796 217.524 237.861 217.511 237.927 217.511C237.993 217.511 238.058 217.524 238.118 217.55C238.179 217.575 238.234 217.613 238.28 217.66C238.736 218.112 239.352 218.365 239.993 218.365ZM238.687 216.747C239.025 216.747 239.3 216.472 239.3 216.133C239.3 215.795 239.025 215.52 238.687 215.52C238.348 215.52 238.073 215.795 238.073 216.133C238.073 216.472 238.348 216.747 238.687 216.747ZM241.96 216.667H240.933C240.801 216.667 240.674 216.614 240.58 216.52C240.486 216.426 240.433 216.299 240.433 216.167C240.433 216.034 240.486 215.907 240.58 215.813C240.674 215.719 240.801 215.667 240.933 215.667H241.96C242.093 215.667 242.22 215.719 242.314 215.813C242.407 215.907 242.46 216.034 242.46 216.167C242.46 216.299 242.407 216.426 242.314 216.52C242.22 216.614 242.093 216.667 241.96 216.667Z" fill="white"/>
<rect x="224" y="236" width="32" height="6" rx="3" fill="#8CA0B3"/>
<rect x="232" y="246" width="16" height="6" rx="3" fill="#B9CBD3"/>
<rect x="286" y="192" width="72" height="72" rx="8" fill="white"/>
<rect x="310" y="204" width="24" height="24" rx="12" fill="#B2B229"/>
<path fill-rule="evenodd" clip-rule="evenodd" d="M328.268 216.01C328.527 216.345 328.668 216.756 328.667 217.18C328.666 217.599 328.527 218.005 328.271 218.337C328.016 218.668 327.658 218.906 327.253 219.013C327.164 219.585 326.874 220.105 326.436 220.482C325.997 220.858 325.438 221.066 324.86 221.067H319.147C318.573 221.06 318.021 220.851 317.587 220.476C317.152 220.102 316.864 219.586 316.773 219.02C316.358 218.923 315.987 218.687 315.722 218.353C315.457 218.018 315.312 217.604 315.312 217.177C315.312 216.75 315.457 216.335 315.722 216.001C315.987 215.666 316.358 215.431 316.773 215.333C316.894 214.794 317.195 214.311 317.626 213.964C318.057 213.618 318.594 213.428 319.147 213.427H321.507V212.507C321.171 212.389 320.888 212.156 320.708 211.849C320.528 211.543 320.462 211.182 320.522 210.832C320.581 210.481 320.763 210.163 321.035 209.934C321.307 209.705 321.651 209.579 322.007 209.579C322.362 209.579 322.706 209.705 322.978 209.934C323.25 210.163 323.432 210.481 323.492 210.832C323.552 211.182 323.486 211.543 323.305 211.849C323.125 212.156 322.842 212.389 322.507 212.507V213.42H324.86C325.414 213.421 325.952 213.611 326.383 213.959C326.815 214.307 327.115 214.792 327.233 215.333C327.644 215.437 328.008 215.676 328.268 216.01ZM322.276 210.688C322.195 210.632 322.099 210.601 322 210.6C321.867 210.6 321.739 210.652 321.644 210.746C321.549 210.84 321.495 210.967 321.493 211.1C321.493 211.199 321.523 211.295 321.577 211.377C321.632 211.459 321.71 211.523 321.8 211.561C321.891 211.599 321.992 211.61 322.088 211.591C322.185 211.572 322.274 211.525 322.345 211.456C322.415 211.387 322.463 211.298 322.483 211.202C322.503 211.105 322.494 211.005 322.457 210.913C322.42 210.822 322.357 210.743 322.276 210.688ZM316.419 216.763C316.348 216.891 316.309 217.034 316.307 217.18C316.311 217.326 316.35 217.469 316.421 217.596C316.492 217.724 316.592 217.832 316.713 217.913V216.447C316.591 216.526 316.49 216.635 316.419 216.763ZM326.197 219.188C326.27 219.014 326.307 218.828 326.307 218.64L326.293 215.853C326.293 215.665 326.256 215.479 326.184 215.306C326.112 215.132 326.006 214.975 325.873 214.842C325.74 214.71 325.582 214.605 325.408 214.533C325.234 214.462 325.048 214.426 324.86 214.427H319.147C318.768 214.427 318.404 214.577 318.136 214.844C317.867 215.112 317.715 215.474 317.713 215.853V218.667C317.722 219.041 317.877 219.397 318.145 219.659C318.413 219.92 318.772 220.067 319.147 220.067H324.873C325.061 220.068 325.247 220.031 325.421 219.96C325.595 219.889 325.753 219.784 325.886 219.651C326.02 219.519 326.125 219.361 326.197 219.188ZM327.307 216.453V217.907C327.429 217.829 327.53 217.722 327.6 217.595C327.67 217.468 327.707 217.325 327.707 217.18C327.707 217.035 327.67 216.892 327.6 216.765C327.53 216.638 327.429 216.531 327.307 216.453ZM321.993 218.365C322.635 218.365 323.251 218.112 323.707 217.66C323.753 217.613 323.808 217.575 323.868 217.55C323.929 217.524 323.994 217.511 324.06 217.511C324.126 217.511 324.191 217.524 324.252 217.55C324.312 217.575 324.367 217.613 324.413 217.66C324.507 217.754 324.56 217.881 324.56 218.013C324.56 218.146 324.507 218.273 324.413 218.367C323.771 219.007 322.901 219.367 321.993 219.367C321.086 219.367 320.216 219.007 319.573 218.367C319.48 218.273 319.427 218.146 319.427 218.013C319.427 217.881 319.48 217.754 319.573 217.66C319.619 217.613 319.674 217.575 319.735 217.55C319.796 217.524 319.861 217.511 319.927 217.511C319.993 217.511 320.058 217.524 320.118 217.55C320.179 217.575 320.234 217.613 320.28 217.66C320.736 218.112 321.352 218.365 321.993 218.365ZM320.687 216.747C321.025 216.747 321.3 216.472 321.3 216.133C321.3 215.795 321.025 215.52 320.687 215.52C320.348 215.52 320.073 215.795 320.073 216.133C320.073 216.472 320.348 216.747 320.687 216.747ZM323.96 216.667H322.933C322.801 216.667 322.674 216.614 322.58 216.52C322.486 216.426 322.433 216.299 322.433 216.167C322.433 216.034 322.486 215.907 322.58 215.813C322.674 215.719 322.801 215.667 322.933 215.667H323.96C324.093 215.667 324.22 215.719 324.314 215.813C324.407 215.907 324.46 216.034 324.46 216.167C324.46 216.299 324.407 216.426 324.314 216.52C324.22 216.614 324.093 216.667 323.96 216.667Z" fill="white"/>
<rect x="302" y="236" width="40" height="6" rx="3" fill="#8CA0B3"/>
<rect x="310" y="246" width="24" height="6" rx="3" fill="#B9CBD3"/>
</svg>
