<svg width="480" height="304" viewBox="0 0 480 304" fill="none" xmlns="http://www.w3.org/2000/svg">
<path d="M24 32C24 27.5817 27.5817 24 32 24H448C452.418 24 456 27.5817 456 32V272C456 276.418 452.418 280 448 280H32C27.5817 280 24 276.418 24 272V32Z" fill="#F4EEE6"/>
<path d="M24 32C24 27.5817 27.5817 24 32 24H448C452.418 24 456 27.5817 456 32V56H24V32Z" fill="#E0E0E0"/>
<path d="M140 40C140 35.5817 143.582 32 148 32H332C336.418 32 340 35.5817 340 40C340 44.4183 336.418 48 332 48H148C143.582 48 140 44.4183 140 40Z" fill="#A3A3A3"/>
<path d="M144 56H456V112H144V56Z" fill="white"/>
<rect x="160" y="72" width="24" height="24.0137" rx="12" fill="#1E6BF1"/>
<path d="M172.594 90.6792C172.491 90.6855 172.388 90.6709 172.292 90.6364C172.195 90.6019 172.106 90.548 172.031 90.4782C171.955 90.4083 171.895 90.3239 171.853 90.23C171.811 90.1361 171.789 90.0347 171.787 89.9319V88.8576C170.34 88.7775 168.507 88.2771 167.54 87.2629C166.521 86.0609 165.974 84.5288 166 82.9525C165.934 80.7573 166.667 79.0625 168.087 78.1885C169.243 77.5821 170.536 77.2877 171.84 77.3344C172.673 77.3325 173.504 77.4152 174.32 77.5813C175.195 77.7293 176.003 78.1428 176.635 78.7658C177.267 79.3888 177.692 80.1912 177.854 81.0643C178.308 83 177.977 85.0371 176.934 86.7291C176.463 87.3458 175.926 87.9096 175.334 88.4106L175.02 88.6975C174.454 89.2246 173.827 89.7784 173.02 90.4923C172.902 90.5928 172.755 90.6535 172.6 90.6658L172.594 90.6792ZM171.84 78.3419C170.716 78.2762 169.595 78.5062 168.587 79.0092C167.107 79.9566 166.94 81.8649 166.974 82.9192C166.95 84.2531 167.407 85.5509 168.26 86.5756C169.067 87.4097 170.874 87.8634 172.16 87.8634C172.243 87.8625 172.325 87.8781 172.401 87.9093C172.478 87.9405 172.547 87.9867 172.605 88.0451C172.664 88.1036 172.71 88.1731 172.741 88.2496C172.772 88.3261 172.788 88.408 172.787 88.4906V89.3447C173.4 88.8109 173.9 88.3639 174.36 87.9368L174.68 87.6432C175.21 87.1928 175.691 86.6873 176.114 86.1353C177.002 84.6668 177.275 82.9067 176.874 81.2377C176.745 80.5634 176.411 79.9452 175.919 79.4675C175.426 78.9899 174.798 78.676 174.12 78.5688C173.37 78.4163 172.606 78.3403 171.84 78.3419Z" fill="white"/>
<path d="M192 84.0068C192 82.35 193.343 81.0068 195 81.0068H269C270.657 81.0068 272 82.35 272 84.0068C272 85.6637 270.657 87.0068 269 87.0068H195C193.343 87.0068 192 85.6637 192 84.0068Z" fill="#292929"/>
<path fill-rule="evenodd" clip-rule="evenodd" d="M284.528 90.0068L285.962 89.3233L287.396 90.0068L288.377 88.7157L289.962 88.6397L290.264 87.0448L291.623 86.2853L291.17 84.6904L292 83.3992L290.868 82.26L290.943 80.6651L289.434 80.2094L288.755 78.6904L287.245 78.9942L285.962 78.0068L284.755 78.9942L283.17 78.6904L282.566 80.2094L280.981 80.6651L281.132 82.26L280 83.3992L280.83 84.6904L280.302 86.2853L281.736 87.0448L281.962 88.6397L283.547 88.7157L284.528 90.0068ZM288.377 82.1077L289.056 82.7153L285.207 86.5887L282.943 84.3102L283.622 83.6266L285.283 85.2216L288.377 82.1077Z" fill="#1E6BF1"/>
<path d="M24 56H144V280H32C27.5817 280 24 276.418 24 272V56Z" fill="white"/>
<path fill-rule="evenodd" clip-rule="evenodd" d="M143.5 56V280H144.5V56H143.5Z" fill="#E0E0E0"/>
<g clip-path="url(#clip0_12035_6923)">
<rect x="40" y="72" width="24" height="24" rx="12" fill="#F99F9F"/>
<path d="M58 92.2651C58 95.9875 55.3137 102.5 52 102.5C48.6863 102.5 46 95.9875 46 92.2651C46 88.5427 48.6863 89.0199 52 89.0199C55.3137 89.0199 58 88.5427 58 92.2651Z" fill="#E60F0F"/>
<path fill-rule="evenodd" clip-rule="evenodd" d="M56.6317 90.2906C57.3885 89.7334 58.3734 90.0228 58.8576 90.773C60.3581 93.0978 61.362 95.8099 62.3863 98.3598C62.7052 99.1539 62.3303 100.06 61.5487 100.384C60.7672 100.709 59.875 100.328 59.5561 99.5334C58.6117 97.1823 57.7139 94.5694 56.2827 92.4478C55.7973 91.7542 55.9519 90.7911 56.6317 90.2906Z" fill="#E60F0F"/>
<path fill-rule="evenodd" clip-rule="evenodd" d="M47.3683 90.2906C46.6115 89.7334 45.6266 90.0228 45.1424 90.773C43.6419 93.0978 42.638 95.8099 41.6137 98.3598C41.2948 99.1539 41.6697 100.06 42.4513 100.384C43.2328 100.709 44.125 100.328 44.4439 99.5334C45.3883 97.1823 46.2861 94.5694 47.7173 92.4478C48.2027 91.7542 48.0481 90.7911 47.3683 90.2906Z" fill="#E60F0F"/>
<path d="M51.8809 90.9997C52.6284 90.9997 53.2344 90.5228 53.2344 89.9344C53.2344 89.3461 52.6284 88.8691 51.8809 88.8691C51.1333 88.8691 50.5273 89.3461 50.5273 89.9344C50.5273 90.5228 51.1333 90.9997 51.8809 90.9997Z" fill="#FDC2BF"/>
<path d="M51.8809 90.9997C52.6284 90.9997 53.2344 90.5228 53.2344 89.9344C53.2344 89.3461 52.6284 88.8691 51.8809 88.8691C51.1333 88.8691 50.5273 89.3461 50.5273 89.9344C50.5273 90.5228 51.1333 90.9997 51.8809 90.9997Z" fill="#F3C29F"/>
<path fill-rule="evenodd" clip-rule="evenodd" d="M51.8809 90.8416C52.5684 90.8416 53.0689 90.4082 53.0689 89.9344C53.0689 89.4607 52.5685 89.0273 51.8809 89.0273C51.1933 89.0273 50.6929 89.4607 50.6929 89.9344C50.6929 90.4082 51.1933 90.8416 51.8809 90.8416ZM53.2344 89.9344C53.2344 90.5228 52.6284 90.9997 51.8809 90.9997C51.1333 90.9997 50.5273 90.5228 50.5273 89.9344C50.5273 89.3461 51.1333 88.8691 51.8809 88.8691C52.6284 88.8691 53.2344 89.3461 53.2344 89.9344Z" fill="white"/>
<path d="M51.9911 87.1524H51.7716C51.474 87.1528 51.1773 87.1222 50.8867 87.061V89.5056C50.8865 89.6175 50.9095 89.7284 50.9542 89.8319C50.9989 89.9354 51.0646 90.0294 51.1474 90.1087C51.2302 90.1879 51.3285 90.2507 51.4368 90.2936C51.5451 90.3365 51.6611 90.3586 51.7783 90.3586H51.9844C52.1016 90.3586 52.2176 90.3365 52.3259 90.2936C52.4341 90.2507 52.5325 90.1879 52.6153 90.1087C52.6981 90.0294 52.7638 89.9354 52.8085 89.8319C52.8532 89.7284 52.8761 89.6175 52.876 89.5056V87.061C52.5853 87.1216 52.2886 87.1522 51.9911 87.1524Z" fill="#F3C29F"/>
<path d="M50.8691 87.8821V88.5871C50.8691 88.5871 51.0833 88.2385 51.8631 88.2346C52.6429 88.2307 52.8584 88.6206 52.8584 88.6206V87.774L50.8691 87.7393V87.8821Z" fill="#EDB58D"/>
<path d="M56.0696 80.1026V84.107C56.0705 84.6002 55.964 85.0887 55.7563 85.5446C55.5485 86.0004 55.2436 86.4145 54.859 86.7633C54.4744 87.112 54.0177 87.3885 53.515 87.5769C53.0124 87.7652 52.4736 87.8618 51.9297 87.861H51.7102C51.4125 87.8614 51.1157 87.8323 50.8251 87.7743C49.9033 87.5911 49.0781 87.1279 48.4862 86.4615C47.8943 85.795 47.5712 84.9652 47.5703 84.1095V80.1026C47.5703 79.107 48.0065 78.1522 48.7828 77.4481C49.1673 77.0996 49.6236 76.823 50.1259 76.6344C50.6282 76.4457 51.1665 76.3486 51.7102 76.3486H51.9297C53.0277 76.3486 54.0807 76.7441 54.8571 77.4481C55.6334 78.1522 56.0696 79.107 56.0696 80.1026Z" fill="#F3C29F"/>
<path d="M47.633 81.9229V83.7318C47.4639 83.7291 47.3027 83.6629 47.1843 83.5476C47.0658 83.4323 46.9996 83.2771 47 83.1155V82.5391C47 82.3777 47.0663 82.2226 47.1846 82.1074C47.303 81.9922 47.464 81.9259 47.633 81.9229Z" fill="#F3C29F"/>
<path d="M56.7033 82.5391V83.1155C56.7037 83.2771 56.6375 83.4323 56.5191 83.5476C56.4006 83.6629 56.2394 83.7291 56.0703 83.7318V81.9229C56.2393 81.9259 56.4003 81.9922 56.5187 82.1074C56.637 82.2226 56.7033 82.3777 56.7033 82.5391Z" fill="#F3C29F"/>
<path d="M55.8262 81.5593C55.8262 81.5593 55.9029 82.8304 55.8262 83.3188C55.7496 83.8073 56.1966 81.3169 56.1966 81.3169L55.8262 81.5593Z" fill="#292929"/>
<path d="M47.8769 81.438C47.8769 81.438 47.8068 82.7091 47.8769 83.2051C47.9469 83.7012 47.5703 81.438 47.5703 81.438H47.8769Z" fill="#292929"/>
<path d="M49.2602 80.1909C49.2602 80.1909 51.651 81.6856 54.1082 81.7676L53.4192 81.3267C53.4192 81.3267 55.1648 81.8348 57.534 81.5489C57.5529 80.9948 57.4325 80.4444 57.1829 79.944C56.9333 79.4435 56.5617 79.0074 56.0994 78.6723C56.0994 78.6723 57.2906 79.5441 57.811 80.2219C57.811 80.2219 56.8748 76.563 52.4235 76.2893C47.9723 76.0156 48.0356 79.2133 48.1046 80.3765C49.5241 80.1556 49.2602 80.1909 49.2602 80.1909Z" fill="#292929"/>
<path d="M47.7937 82.4074C46.462 78.0058 48.3323 77.0148 50.8205 76.833L51.1231 80.0184C49.6098 79.5551 48.273 81.418 47.7937 82.4074Z" fill="#292929"/>
<path d="M55.88 81.9228C55.88 81.2927 55.1188 80.61 54.7383 80.3474L55.8165 79.9839L56.0703 80.1051C56.0703 80.1051 56.1971 80.8322 56.1971 81.2563C56.1971 81.6804 55.88 81.9228 55.88 81.9228Z" fill="#292929"/>
</g>
<path d="M72 80C72 78.3431 73.3431 77 75 77H109C110.657 77 112 78.3431 112 80C112 81.6569 110.657 83 109 83H75C73.3431 83 72 81.6569 72 80Z" fill="#292929"/>
<path d="M72 89C72 87.8954 72.8954 87 74 87H126C127.105 87 128 87.8954 128 89C128 90.1046 127.105 91 126 91H74C72.8954 91 72 90.1046 72 89Z" fill="#666666"/>
<path fill-rule="evenodd" clip-rule="evenodd" d="M128 112L40 112L40 111L128 111L128 112Z" fill="#E0E0E0"/>
<g clip-path="url(#clip1_12035_6923)">
<rect x="40" y="128" width="24" height="24" rx="12" fill="#FDE99B"/>
<path d="M58.9076 153.272C58.4135 151.214 57.2228 146.398 57.2228 146.398C57.2228 146.156 55.7592 146.079 52.4773 146.016V146H52.0006H51.5238V146.011C48.242 146.074 46.7783 146.157 46.7783 146.393C46.7783 146.393 45.5826 151.211 45.0935 153.267C44.6229 155.249 46.0149 157 47.3353 157H56.6658C57.9862 157.004 59.3745 155.253 58.9076 153.272Z" fill="#A3A3A3"/>
<path fill-rule="evenodd" clip-rule="evenodd" d="M56.1317 146.791C56.8885 146.233 57.8734 146.523 58.3576 147.273C59.8581 149.598 60.862 152.31 61.8863 154.86C62.2052 155.654 61.8303 156.56 61.0487 156.884C60.2672 157.209 59.375 156.828 59.0561 156.033C58.1117 153.682 57.2139 151.069 55.7827 148.948C55.2973 148.254 55.4519 147.291 56.1317 146.791Z" fill="#A3A3A3"/>
<path fill-rule="evenodd" clip-rule="evenodd" d="M47.8683 146.791C47.1115 146.233 46.1266 146.523 45.6424 147.273C44.1419 149.598 43.138 152.31 42.1137 154.86C41.7948 155.654 42.1697 156.56 42.9513 156.884C43.7328 157.209 44.625 156.828 44.9439 156.033C45.8883 153.682 46.7861 151.069 48.2173 148.948C48.7027 148.254 48.5481 147.291 47.8683 146.791Z" fill="#A3A3A3"/>
<path d="M51.8001 147.999C52.5078 147.999 53.0815 147.496 53.0815 146.876C53.0815 146.256 52.5078 145.754 51.8001 145.754C51.0923 145.754 50.5186 146.256 50.5186 146.876C50.5186 147.496 51.0923 147.999 51.8001 147.999Z" fill="#CB8591"/>
<path d="M51.8004 145.889C52.4379 145.889 52.948 146.333 52.948 146.876C52.948 147.42 52.4303 147.865 51.8004 147.865C51.1704 147.865 50.6451 147.421 50.6451 146.876C50.6451 146.331 51.1628 145.889 51.8004 145.889ZM51.8004 145.754C51.0914 145.754 50.5176 146.257 50.5176 146.876C50.5176 147.496 51.0914 148 51.8004 148C52.5093 148 53.0755 147.497 53.0755 146.876C53.0755 146.255 52.5017 145.754 51.8004 145.754Z" fill="white"/>
<path d="M51.903 144.381H51.6952C51.4135 144.382 51.1326 144.35 50.8574 144.286V146.862C50.8573 146.98 50.879 147.096 50.9213 147.206C50.9637 147.315 51.0258 147.414 51.1042 147.497C51.1826 147.581 51.2757 147.647 51.3782 147.692C51.4807 147.737 51.5906 147.76 51.7016 147.76H51.8966C52.008 147.761 52.1185 147.738 52.2215 147.694C52.3246 147.649 52.4183 147.583 52.4973 147.499C52.5762 147.415 52.6388 147.316 52.6815 147.207C52.7242 147.097 52.746 146.98 52.7459 146.862V144.286C52.469 144.35 52.1864 144.382 51.903 144.381Z" fill="#CB8591"/>
<path d="M50.8604 145.234V145.977C50.8604 145.977 51.0631 145.61 51.8027 145.606C52.5422 145.602 52.7437 146.013 52.7437 146.013V145.121L50.8604 145.084V145.234Z" fill="#A8747D"/>
<path d="M47.7731 138.491V140.397C47.613 140.394 47.4604 140.324 47.3483 140.203C47.2361 140.081 47.1735 139.918 47.1738 139.747V139.135C47.1751 138.965 47.2385 138.803 47.3504 138.683C47.4624 138.563 47.614 138.494 47.7731 138.491Z" fill="#CB8591"/>
<path d="M56.4216 139.135V139.742C56.4219 139.912 56.3593 140.076 56.2471 140.197C56.135 140.319 55.9824 140.388 55.8223 140.391V138.491C55.9814 138.494 56.133 138.563 56.245 138.683C56.3569 138.803 56.4203 138.965 56.4216 139.135Z" fill="#CB8591"/>
<path d="M55.822 136.588V141.032C55.8228 141.58 55.7221 142.122 55.5254 142.628C55.3288 143.133 55.0402 143.593 54.6762 143.98C54.3122 144.367 53.8799 144.674 53.4041 144.883C52.9283 145.092 52.4184 145.199 51.9036 145.198H51.6957C51.414 145.198 51.1331 145.166 50.858 145.102C49.9843 144.899 49.2021 144.385 48.641 143.645C48.08 142.905 47.7738 141.983 47.7734 141.032V136.588C47.7734 136.04 47.8749 135.498 48.0721 134.992C48.2692 134.487 48.5582 134.027 48.9225 133.641C49.2867 133.254 49.7192 132.947 50.195 132.738C50.6709 132.529 51.1808 132.421 51.6957 132.422H51.9036C52.9428 132.422 53.9395 132.861 54.6743 133.642C55.4092 134.423 55.822 135.483 55.822 136.588Z" fill="#CB8591"/>
<path d="M51.8536 137.42C51.6508 137.555 51.1586 137.588 50.5695 137.633C49.9804 137.677 49.7483 137.451 49.3059 137.656C48.8634 137.86 47.9453 137.854 47.406 137.385C47.0511 137.051 46.7702 136.637 46.5835 136.174C46.1053 134.621 47.8369 133.729 47.8369 133.729C47.8369 133.729 47.9071 132.345 49.4946 132.479C49.4946 132.479 49.7241 132.521 49.895 131.991C50.0659 131.461 52.662 130.052 54.187 131.995C54.187 131.995 54.6805 132.995 55.0439 132.934C55.4073 132.873 58.307 133.623 57.2818 136.531C57.1045 137.034 56.2298 138.676 53.8721 137.324C53.8721 137.324 52.7079 136.83 51.8536 137.42Z" fill="#292929"/>
<path opacity="0.2" d="M49.1761 137.522C49.2947 137.508 48.0144 138.186 47.7734 139.705V137.147H48.374L49.1761 137.522Z" fill="#292929"/>
<path fill-rule="evenodd" clip-rule="evenodd" d="M47.6572 137.915C47.6572 137.845 47.7108 137.788 47.7769 137.788H48.1556C48.2217 137.788 48.2752 137.845 48.2752 137.915C48.2752 137.985 48.2217 138.042 48.1556 138.042H47.7769C47.7108 138.042 47.6572 137.985 47.6572 137.915Z" fill="#292929"/>
<path fill-rule="evenodd" clip-rule="evenodd" d="M47.6572 138.361C47.6572 138.29 47.7108 138.233 47.7769 138.233H48.1556C48.2217 138.233 48.2752 138.29 48.2752 138.361C48.2752 138.431 48.2217 138.488 48.1556 138.488H47.7769C47.7108 138.488 47.6572 138.431 47.6572 138.361Z" fill="#292929"/>
<path opacity="0.2" d="M54.4132 137.522C54.301 137.503 55.5799 138.191 55.8158 139.705V137.147H55.2153L54.4132 137.522Z" fill="#292929"/>
<path fill-rule="evenodd" clip-rule="evenodd" d="M55.3203 137.915C55.3203 137.845 55.3739 137.788 55.44 137.788H55.8187C55.8847 137.788 55.9383 137.845 55.9383 137.915C55.9383 137.985 55.8847 138.042 55.8187 138.042H55.44C55.3739 138.042 55.3203 137.985 55.3203 137.915Z" fill="#292929"/>
<path fill-rule="evenodd" clip-rule="evenodd" d="M55.3203 138.361C55.3203 138.29 55.3739 138.233 55.44 138.233H55.8187C55.8847 138.233 55.9383 138.29 55.9383 138.361C55.9383 138.431 55.8847 138.488 55.8187 138.488H55.44C55.3739 138.488 55.3203 138.431 55.3203 138.361Z" fill="#292929"/>
<path fill-rule="evenodd" clip-rule="evenodd" d="M49.3457 142.46C48.9119 142.46 48.4879 142.323 48.1272 142.067C47.7665 141.811 47.4853 141.447 47.3193 141.02C47.1533 140.594 47.1099 140.126 47.1945 139.673C47.2791 139.221 47.488 138.805 47.7948 138.479C48.1015 138.153 48.4924 137.931 48.9178 137.841C49.3433 137.751 49.7843 137.797 50.1851 137.974C50.5859 138.15 50.9285 138.449 51.1695 138.833C51.4105 139.216 51.5391 139.667 51.5391 140.128C51.5391 140.188 51.537 140.247 51.5327 140.306H52.0651C52.0499 140.095 52.0617 139.883 52.1008 139.673C52.1855 139.221 52.3944 138.805 52.7011 138.479C53.0079 138.153 53.3987 137.931 53.8242 137.841C54.2497 137.751 54.6907 137.797 55.0915 137.974C55.4923 138.15 55.8348 138.449 56.0758 138.833C56.3168 139.216 56.4455 139.667 56.4455 140.128C56.4455 140.747 56.2144 141.34 55.8031 141.777C55.3917 142.214 54.8338 142.46 54.2521 142.46C53.8183 142.46 53.3942 142.323 53.0335 142.067C52.6728 141.811 52.3917 141.447 52.2257 141.02C52.1666 140.869 52.1231 140.712 52.0953 140.552H51.5026C51.4224 141.013 51.2127 141.441 50.8967 141.777C50.4854 142.214 49.9275 142.46 49.3457 142.46ZM49.3457 138.043C48.9578 138.043 48.5787 138.166 48.2562 138.395C47.9338 138.624 47.6826 138.95 47.5343 139.331C47.3861 139.712 47.3474 140.131 47.4233 140.536C47.4991 140.94 47.686 141.312 47.9605 141.603C48.2349 141.895 48.5844 142.093 48.9649 142.174C49.3454 142.254 49.7398 142.213 50.0981 142.055C50.4565 141.897 50.7628 141.63 50.9783 141.287C51.1938 140.944 51.3088 140.541 51.3088 140.128C51.3088 139.575 51.102 139.044 50.7339 138.652C50.3658 138.26 49.8665 138.04 49.3457 138.04V138.043ZM54.2521 138.043C53.8641 138.043 53.4848 138.165 53.1622 138.394C52.8396 138.623 52.5882 138.949 52.4397 139.33C52.2912 139.711 52.2524 140.13 52.3281 140.535C52.4038 140.94 52.5906 141.311 52.8649 141.603C53.1393 141.894 53.4888 142.093 53.8694 142.174C54.2499 142.254 54.6443 142.213 55.0028 142.055C55.3613 141.897 55.6676 141.63 55.8832 141.287C56.0988 140.944 56.2138 140.541 56.2138 140.128C56.214 139.854 56.1634 139.583 56.0649 139.329C55.9664 139.076 55.822 138.846 55.6398 138.652C55.4576 138.458 55.2413 138.304 55.0032 138.199C54.7651 138.094 54.5099 138.04 54.2521 138.04V138.043Z" fill="#292929"/>
</g>
<path d="M72 136C72 134.343 73.3431 133 75 133H125C126.657 133 128 134.343 128 136C128 137.657 126.657 139 125 139H75C73.3431 139 72 137.657 72 136Z" fill="#292929"/>
<path d="M72 145C72 143.895 72.8954 143 74 143H102C103.105 143 104 143.895 104 145C104 146.105 103.105 147 102 147H74C72.8954 147 72 146.105 72 145Z" fill="#666666"/>
<path fill-rule="evenodd" clip-rule="evenodd" d="M128 168L40 168L40 167L128 167L128 168Z" fill="#E0E0E0"/>
<g clip-path="url(#clip2_12035_6923)">
<rect x="40" y="184" width="24" height="24" rx="12" fill="#84EBBC"/>
<path d="M58.9076 208.272C58.4135 206.214 57.2228 201.398 57.2228 201.398C57.2228 201.156 55.7592 201.079 52.4773 201.016V201H52.0006H51.5238V201.011C48.242 201.074 46.7783 201.157 46.7783 201.393C46.7783 201.393 45.5826 206.211 45.0935 208.267C44.6229 210.249 46.0149 212 47.3353 212H56.6658C57.9862 212.004 59.3745 210.253 58.9076 208.272Z" fill="#FDE99B"/>
<path fill-rule="evenodd" clip-rule="evenodd" d="M56.1317 201.791C56.8885 201.233 57.8734 201.523 58.3576 202.273C59.8581 204.598 60.862 207.31 61.8863 209.86C62.2052 210.654 61.8303 211.56 61.0487 211.884C60.2672 212.209 59.375 211.828 59.0561 211.033C58.1117 208.682 57.2139 206.069 55.7827 203.948C55.2973 203.254 55.4519 202.291 56.1317 201.791Z" fill="#FDE99B"/>
<path fill-rule="evenodd" clip-rule="evenodd" d="M47.8683 201.791C47.1115 201.233 46.1266 201.523 45.6424 202.273C44.1419 204.598 43.138 207.31 42.1137 209.86C41.7948 210.654 42.1697 211.56 42.9513 211.884C43.7328 212.209 44.625 211.828 44.9439 211.033C45.8883 208.682 46.7861 206.069 48.2173 203.948C48.7027 203.254 48.5481 202.291 47.8683 201.791Z" fill="#FDE99B"/>
<path d="M51.8249 188.532C52.0091 188.497 54.0228 186.853 55.8067 188.942C57.069 190.42 55.9144 191.397 56.9948 192.416C57.952 193.32 59.2825 195.704 57.4651 197.677C56.6132 198.602 58.8374 202.194 54.3159 200.547C51.4444 199.499 51.2051 200.159 51.2051 200.159L51.8249 188.532Z" fill="#292929"/>
<path d="M53.2267 189.081C53.2267 189.081 53.3236 188.208 51.9872 187.667C50.6507 187.126 47.431 187.838 47.4932 190.684C47.5554 193.529 44.6097 193.659 45.4042 195.799C46.1986 197.938 43.9947 198.217 46.0503 199.95C48.1058 201.683 51.6498 201.226 51.6007 198.252C51.5517 195.279 53.2267 189.081 53.2267 189.081Z" fill="#292929"/>
<path d="M51.9544 203C52.6185 203 53.1569 202.543 53.1569 201.98C53.1569 201.417 52.6185 200.96 51.9544 200.96C51.2903 200.96 50.752 201.417 50.752 201.98C50.752 202.543 51.2903 203 51.9544 203Z" fill="#CB9685"/>
<path fill-rule="evenodd" clip-rule="evenodd" d="M51.9539 201.034C51.3158 201.034 50.8233 201.47 50.8233 201.98C50.8233 202.49 51.3158 202.926 51.9539 202.926C52.592 202.926 53.0846 202.49 53.0846 201.98C53.0846 201.47 52.592 201.034 51.9539 201.034ZM50.6797 201.98C50.6797 201.363 51.2638 200.886 51.9539 200.886C52.644 200.886 53.2282 201.363 53.2282 201.98C53.2282 202.597 52.644 203.074 51.9539 203.074C51.2638 203.074 50.6797 202.597 50.6797 201.98Z" fill="white"/>
<path d="M52.0534 199.05H51.8584C51.594 199.05 51.3304 199.021 51.0723 198.962V201.303C51.0721 201.41 51.0925 201.516 51.1322 201.615C51.172 201.714 51.2303 201.804 51.3038 201.88C51.3774 201.956 51.4648 202.016 51.5609 202.057C51.6571 202.098 51.7602 202.119 51.8643 202.119H52.0474C52.152 202.119 52.2556 202.098 52.3522 202.057C52.4487 202.015 52.5364 201.955 52.61 201.878C52.6837 201.801 52.7419 201.711 52.7812 201.611C52.8206 201.511 52.8404 201.404 52.8395 201.297V198.956C52.5814 199.016 52.3179 199.048 52.0534 199.05Z" fill="#CB9685"/>
<path d="M51.0747 199.599V200.272C51.0747 200.272 51.2625 199.941 51.9553 199.941C52.648 199.941 52.8395 200.311 52.8395 200.311V199.495L51.0723 199.462L51.0747 199.599Z" fill="#BF7D68"/>
<path d="M55.7302 191.765V195.803C55.731 196.301 55.6364 196.793 55.452 197.253C55.2675 197.713 54.9967 198.13 54.6551 198.482C54.3135 198.834 53.9079 199.113 53.4614 199.302C53.015 199.492 52.5365 199.59 52.0534 199.589H51.8584C51.5941 199.589 51.3305 199.56 51.0723 199.502C50.2536 199.317 49.5208 198.85 48.9951 198.178C48.4694 197.506 48.1824 196.669 48.1816 195.806V191.765C48.1816 190.761 48.569 189.799 49.2585 189.089C49.9481 188.379 50.8833 187.98 51.8584 187.98H52.0534C53.0286 187.98 53.9638 188.379 54.6533 189.089C55.3429 189.799 55.7302 190.761 55.7302 191.765Z" fill="#CB9685"/>
<path d="M48.2713 194.75V196.482C48.1211 196.479 47.9779 196.416 47.8727 196.306C47.7675 196.195 47.7087 196.047 47.709 195.892V195.34C47.709 195.185 47.7679 195.037 47.873 194.927C47.9782 194.816 48.1212 194.753 48.2713 194.75Z" fill="#CB9685"/>
<path d="M56.0545 195.34V195.892C56.0549 196.047 55.9961 196.195 55.8908 196.306C55.7856 196.416 55.6424 196.479 55.4922 196.482V194.75C55.6423 194.753 55.7853 194.816 55.8905 194.927C55.9957 195.037 56.0546 195.185 56.0545 195.34Z" fill="#CB9685"/>
<path d="M52.1221 188.539C52.6004 188.264 53.1105 188.051 53.6404 187.907C53.9106 187.841 54.1887 187.816 54.466 187.832C54.7495 187.849 55.0249 187.936 55.2688 188.086C55.5109 188.241 55.7125 188.454 55.8563 188.708L55.9687 188.887C56.0034 188.948 56.0369 189.01 56.0704 189.073C56.1422 189.196 56.1973 189.326 56.2595 189.453C56.371 189.713 56.4665 189.98 56.5455 190.253C56.6256 190.522 56.6938 190.793 56.7847 191.05C56.8723 191.305 57.0005 191.543 57.164 191.754C57.3427 191.96 57.5359 192.151 57.7419 192.327C57.9443 192.521 58.1323 192.731 58.3043 192.954C58.4771 193.179 58.6247 193.422 58.7446 193.681C58.9899 194.202 59.061 194.792 58.9468 195.359C58.7988 195.906 58.5208 196.407 58.138 196.816C58.4882 196.389 58.7344 195.882 58.8559 195.338C58.9495 194.795 58.8653 194.235 58.6166 193.746C58.556 193.624 58.488 193.506 58.4132 193.393C58.3438 193.269 58.2576 193.17 58.1739 193.06C58.0038 192.847 57.8187 192.647 57.6199 192.463C57.406 192.282 57.206 192.086 57.0217 191.874C56.8441 191.647 56.705 191.392 56.6101 191.117C56.5143 190.848 56.4473 190.574 56.3708 190.308C56.2949 190.043 56.2042 189.783 56.0992 189.528C56.0417 189.405 55.9891 189.282 55.9221 189.159C55.8898 189.098 55.8599 189.036 55.8264 188.978L55.7199 188.802C55.5912 188.566 55.4115 188.365 55.1946 188.214C54.9723 188.068 54.7191 187.979 54.4564 187.954C54.19 187.931 53.9217 187.947 53.6595 188.001C53.3938 188.052 53.1328 188.126 52.8794 188.223C52.6222 188.315 52.3769 188.437 52.1221 188.539Z" fill="#292929"/>
<path d="M53.26 189.514C53.2578 189.347 53.2216 189.182 53.1536 189.031C53.0855 188.879 52.9873 188.744 52.8651 188.634C52.6255 188.408 52.3456 188.232 52.0408 188.116C51.7391 188.001 51.4207 187.94 51.0991 187.935C50.7781 187.925 50.4569 187.952 50.142 188.017C49.8259 188.08 49.5176 188.179 49.2231 188.313C48.9307 188.445 48.6596 188.623 48.419 188.839C47.9365 189.272 47.6327 189.878 47.5695 190.534C47.5516 190.695 47.548 190.857 47.536 191.033C47.5232 191.205 47.4984 191.376 47.4618 191.544C47.384 191.882 47.25 192.203 47.0658 192.494C46.6997 193.078 46.1625 193.498 45.6982 193.954C45.4604 194.171 45.2772 194.444 45.1646 194.751C45.119 194.906 45.0999 195.068 45.1084 195.23C45.1193 195.393 45.1494 195.555 45.1981 195.711C45.3057 196.035 45.3489 196.377 45.3249 196.718C45.3088 196.886 45.2739 197.051 45.2208 197.211C45.1642 197.37 45.0987 197.526 45.0246 197.677C45.1651 197.375 45.2511 197.048 45.2783 196.714C45.2884 196.381 45.233 196.05 45.1156 195.74C45.0586 195.577 45.0212 195.408 45.0043 195.236C44.9913 195.061 45.0079 194.886 45.0533 194.717C45.1643 194.389 45.3511 194.093 45.5977 193.855C45.8287 193.609 46.0763 193.391 46.3084 193.158C46.5436 192.932 46.7524 192.678 46.9306 192.403C47.1019 192.127 47.2258 191.823 47.2967 191.505C47.3299 191.345 47.3523 191.182 47.3637 191.019C47.3733 190.859 47.3745 190.684 47.3936 190.512C47.4327 190.168 47.532 189.834 47.6868 189.526C47.8433 189.218 48.0562 188.943 48.3137 188.718C48.5672 188.493 48.8529 188.309 49.1608 188.174C49.4668 188.036 49.7884 187.937 50.118 187.882C50.444 187.822 50.7756 187.801 51.1063 187.819C51.439 187.832 51.767 187.904 52.0755 188.033C52.3813 188.166 52.6592 188.358 52.8939 188.6C53.0099 188.722 53.1043 188.864 53.1726 189.02C53.2427 189.174 53.2728 189.344 53.26 189.514Z" fill="#292929"/>
<path d="M51.5843 187.784C48.7128 187.302 47.4684 191.144 47.636 192.028C47.7245 192.487 47.8753 193.241 47.9949 193.858C47.9949 193.858 48.3419 196.051 48.2725 195.574C48.2579 195.46 48.2491 195.345 48.2462 195.23C48.2363 194.927 48.2885 194.625 48.3993 194.343C48.6099 193.806 48.8946 193.147 48.8946 193.147C48.8946 193.147 50.7815 193.452 52.4506 192.673C54.1197 191.894 54.7837 189.402 54.7837 189.402C54.7837 189.402 54.4559 188.267 51.5843 187.784Z" fill="#292929"/>
<path d="M51.7148 187.658C55.7039 186.967 56.3057 190.992 56.1322 191.875C55.9588 192.758 55.6261 195.316 55.6261 195.316C55.6261 194.966 55.254 192.482 54.9812 192.057C53.5969 189.887 51.7148 187.658 51.7148 187.658Z" fill="#292929"/>
<path d="M54.7591 189.401C54.7139 189.73 54.6411 190.054 54.5413 190.37C54.4446 190.689 54.3213 190.999 54.1728 191.296C54.0267 191.598 53.8481 191.882 53.6404 192.143C53.5352 192.274 53.4221 192.397 53.3018 192.513C53.2383 192.568 53.1737 192.623 53.1091 192.677C53.0768 192.704 53.0457 192.732 53.011 192.757L52.9057 192.826C52.3426 193.174 51.7201 193.409 51.0715 193.517C50.7526 193.576 50.4298 193.61 50.106 193.619C49.7837 193.631 49.4611 193.614 49.1416 193.569C49.7782 193.553 50.4116 193.47 51.032 193.322C51.3382 193.25 51.6392 193.157 51.933 193.043C52.0072 193.016 52.0778 192.982 52.1507 192.95C52.2237 192.918 52.2955 192.89 52.3637 192.852L52.5731 192.743C52.6413 192.705 52.7023 192.66 52.7681 192.62L52.8662 192.559C52.8973 192.536 52.9261 192.511 52.956 192.486L53.1402 192.329C53.2491 192.216 53.364 192.11 53.4621 191.986C53.6662 191.741 53.8466 191.476 54.0005 191.195C54.1612 190.914 54.3035 190.622 54.4264 190.322C54.5526 190.021 54.6636 189.714 54.7591 189.401Z" fill="#292929"/>
</g>
<path d="M72 192C72 190.343 73.3431 189 75 189H109C110.657 189 112 190.343 112 192C112 193.657 110.657 195 109 195H75C73.3431 195 72 193.657 72 192Z" fill="#292929"/>
<path d="M72 201C72 199.895 72.8954 199 74 199H126C127.105 199 128 199.895 128 201C128 202.105 127.105 203 126 203H74C72.8954 203 72 202.105 72 201Z" fill="#666666"/>
<path fill-rule="evenodd" clip-rule="evenodd" d="M128 224L40 224L40 223L128 223L128 224Z" fill="#E0E0E0"/>
<path d="M72 248C72 246.343 73.3431 245 75 245H125C126.657 245 128 246.343 128 248C128 249.657 126.657 251 125 251H75C73.3431 251 72 249.657 72 248Z" fill="#292929"/>
<path d="M72 257C72 255.895 72.8954 255 74 255H102C103.105 255 104 255.895 104 257C104 258.105 103.105 259 102 259H74C72.8954 259 72 258.105 72 257Z" fill="#666666"/>
<g clip-path="url(#clip3_12035_6923)">
<rect x="40" y="240" width="24" height="24" rx="12" fill="#80E3EB"/>
<path d="M58 260.265C58 263.988 55.3137 270.5 52 270.5C48.6863 270.5 46 263.988 46 260.265C46 256.543 48.6863 257.02 52 257.02C55.3137 257.02 58 256.543 58 260.265Z" fill="#0096FA"/>
<path fill-rule="evenodd" clip-rule="evenodd" d="M56.6317 258.291C57.3885 257.733 58.3734 258.023 58.8576 258.773C60.3581 261.098 61.362 263.81 62.3863 266.36C62.7052 267.154 62.3303 268.06 61.5487 268.384C60.7672 268.709 59.875 268.328 59.5561 267.533C58.6117 265.182 57.7139 262.569 56.2827 260.448C55.7973 259.754 55.9519 258.791 56.6317 258.291Z" fill="#0096FA"/>
<path fill-rule="evenodd" clip-rule="evenodd" d="M47.3683 258.291C46.6115 257.733 45.6266 258.023 45.1424 258.773C43.6419 261.098 42.638 263.81 41.6137 266.36C41.2948 267.154 41.6697 268.06 42.4513 268.384C43.2328 268.709 44.125 268.328 44.4439 267.533C45.3883 265.182 46.2861 262.569 47.7173 260.448C48.2027 259.754 48.0481 258.791 47.3683 258.291Z" fill="#0096FA"/>
<path d="M51.9999 259C52.6891 259 53.2478 258.541 53.2478 257.974C53.2478 257.408 52.6891 256.949 51.9999 256.949C51.3107 256.949 50.752 257.408 50.752 257.974C50.752 258.541 51.3107 259 51.9999 259Z" fill="#F99F9F"/>
<path fill-rule="evenodd" clip-rule="evenodd" d="M51.9999 258.876C52.6441 258.876 53.1236 258.451 53.1236 257.974C53.1236 257.498 52.6441 257.073 51.9999 257.073C51.3557 257.073 50.8761 257.498 50.8761 257.974C50.8761 258.451 51.3557 258.876 51.9999 258.876ZM53.2478 257.974C53.2478 258.541 52.6891 259 51.9999 259C51.3107 259 50.752 258.541 50.752 257.974C50.752 257.408 51.3107 256.949 51.9999 256.949C52.6891 256.949 53.2478 257.408 53.2478 257.974Z" fill="white"/>
<path d="M55.9177 247.305V251.364C55.9185 251.864 55.8203 252.359 55.6289 252.821C55.4374 253.283 55.1564 253.703 54.8019 254.056C54.4474 254.41 54.0264 254.69 53.5631 254.881C53.0997 255.072 52.6032 255.17 52.1018 255.169H51.9057C51.6313 255.169 51.3578 255.14 51.0898 255.081C50.2402 254.895 49.4796 254.426 48.934 253.75C48.3885 253.075 48.0906 252.234 48.0898 251.366V247.305C48.0898 246.296 48.4919 245.328 49.2075 244.614C49.9231 243.901 50.8936 243.5 51.9057 243.5H52.1081C53.119 243.502 54.088 243.903 54.8022 244.617C55.5165 245.33 55.9177 246.297 55.9177 247.305Z" fill="#F99F9F"/>
<path d="M48.0836 248.89V250.631C47.9277 250.628 47.7791 250.564 47.6699 250.453C47.5607 250.342 47.4997 250.193 47.5 250.037V249.483C47.5 249.327 47.5611 249.178 47.6702 249.067C47.7794 248.956 47.9278 248.893 48.0836 248.89Z" fill="#F99F9F"/>
<path d="M56.4996 249.483V250.037C56.5 250.193 56.4389 250.342 56.3297 250.453C56.2205 250.564 56.0719 250.628 55.916 250.631V248.89C56.0718 248.893 56.2202 248.956 56.3294 249.067C56.4385 249.178 56.4997 249.327 56.4996 249.483Z" fill="#F99F9F"/>
<path opacity="0.2" fill-rule="evenodd" clip-rule="evenodd" d="M51.4467 245.07C50.9379 245.07 50.4499 245.272 50.0901 245.63C49.7304 245.989 49.5282 246.476 49.5282 246.983C49.5282 247.188 49.3615 247.355 49.1557 247.355C48.95 247.355 48.7832 247.188 48.7832 246.983C48.7832 246.279 49.0638 245.603 49.5633 245.105C50.0628 244.607 50.7403 244.327 51.4467 244.327C51.6524 244.327 51.8192 244.493 51.8192 244.699C51.8192 244.904 51.6524 245.07 51.4467 245.07Z" fill="white"/>
<path d="M52.1018 255.169H51.9057C51.6313 255.169 51.3578 255.14 51.0898 255.081V257.434C51.0908 257.649 51.177 257.856 51.3297 258.009C51.4824 258.161 51.6894 258.248 51.9057 258.25H52.0956C52.2037 258.25 52.3107 258.228 52.4105 258.187C52.5103 258.146 52.601 258.085 52.6773 258.009C52.7537 257.933 52.8142 257.842 52.8554 257.743C52.8967 257.643 52.9178 257.536 52.9177 257.429V255.082C52.6496 255.14 52.3761 255.169 52.1018 255.169Z" fill="#F99F9F"/>
<path d="M51.0859 255.96V256.638C51.0859 256.638 51.2834 256.302 52.0023 256.298C52.7213 256.295 52.92 256.67 52.92 256.67V255.856L51.0859 255.823V255.96Z" fill="#F99F9F"/>
<path d="M55.769 251.255C55.7478 251.685 55.5607 252.089 55.2468 252.384C54.9328 252.679 54.5166 252.842 54.0852 252.837H54.0082C53.9079 252.836 53.809 252.813 53.7182 252.77C53.6274 252.727 53.5468 252.666 53.4818 252.59C53.2946 252.373 53.0631 252.198 52.8027 252.077C52.5424 251.956 52.2592 251.892 51.972 251.889C51.6849 251.886 51.4004 251.944 51.1376 252.06C50.8748 252.175 50.6398 252.345 50.4482 252.559C50.382 252.634 50.3006 252.694 50.2094 252.735C50.1182 252.776 50.0193 252.797 49.9192 252.798C49.4965 252.794 49.0911 252.63 48.7846 252.339C48.4782 252.049 48.2935 251.653 48.2678 251.233L48.084 248.246V252.91C48.084 254.68 49.019 256.115 51.2963 256.115H52.8027C55.1968 256.115 55.918 254.68 55.918 252.91V248.246L55.769 251.255Z" fill="#292929"/>
</g>
<defs>
<clipPath id="clip0_12035_6923">
<rect x="40" y="72" width="24" height="24" rx="12" fill="white"/>
</clipPath>
<clipPath id="clip1_12035_6923">
<rect x="40" y="128" width="24" height="24" rx="12" fill="white"/>
</clipPath>
<clipPath id="clip2_12035_6923">
<rect x="40" y="184" width="24" height="24" rx="12" fill="white"/>
</clipPath>
<clipPath id="clip3_12035_6923">
<rect x="40" y="240" width="24" height="24" rx="12" fill="white"/>
</clipPath>
</defs>
</svg>
