<svg width="488" height="312" viewBox="0 0 488 312" fill="none" xmlns="http://www.w3.org/2000/svg">
<path d="M24 36C24 29.3726 29.3726 24 36 24H444C450.627 24 456 29.3726 456 36V56H24V36Z" fill="#1A2437"/>
<rect x="40" y="34" width="56" height="12" rx="6" fill="#8CA0B3"/>
<rect x="104" y="37" width="24" height="6" rx="3" fill="#B9CBD3"/>
<rect x="136" y="37" width="32" height="6" rx="3" fill="#B9CBD3"/>
<path d="M251.531 47.7942V35.6785C251.531 35.5498 251.63 35.4727 251.729 35.4727H254.11C254.209 35.4727 254.284 35.5498 254.309 35.627L254.457 36.373C255.078 35.627 255.971 35.2669 257.087 35.2669C259.294 35.2669 260.956 36.7331 260.956 39.9743C260.956 43.2154 259.319 44.7074 257.087 44.7074C255.995 44.7074 255.078 44.3473 254.457 43.5756V47.7685C254.457 47.8971 254.358 47.9743 254.259 47.9743H251.704C251.605 48 251.531 47.9228 251.531 47.7942ZM254.482 40.7717C254.482 40.8489 254.482 40.926 254.507 41.0032C254.78 41.955 255.4 42.3666 256.169 42.3666C257.211 42.3666 257.93 41.672 257.93 40C257.93 38.328 257.211 37.6334 256.169 37.6334C255.35 37.6334 254.73 38.045 254.507 38.9968C254.482 39.074 254.482 39.1254 254.482 39.2026V40.7717Z" fill="white"/>
<path d="M234.242 32H236.797C236.921 32 236.995 32.1029 236.995 32.2058V36.3987C237.615 35.6527 238.533 35.2669 239.624 35.2669C241.857 35.2669 243.494 36.7588 243.494 40C243.494 43.2412 241.832 44.7074 239.624 44.7074C238.508 44.7074 237.615 44.3473 236.995 43.6013L236.846 44.3473C236.821 44.4502 236.747 44.5016 236.648 44.5016H234.266C234.142 44.5016 234.068 44.3987 234.068 44.2958V32.2058C234.043 32.0772 234.118 32 234.242 32ZM236.995 40.8232C236.995 40.9003 236.995 40.9518 237.02 41.0289C237.243 41.9807 237.863 42.3923 238.682 42.3923C239.723 42.3923 240.443 41.6977 240.443 40.0257C240.443 38.3537 239.723 37.6592 238.682 37.6592C237.913 37.6592 237.293 38.0707 237.02 39.0225C236.995 39.0997 236.995 39.1768 236.995 39.254V40.8232Z" fill="white"/>
<path d="M244.188 32H246.743C246.867 32 246.942 32.1029 246.942 32.2058V44.3215C246.942 44.4502 246.842 44.5273 246.743 44.5273H244.188C244.064 44.5273 243.99 44.4244 243.99 44.3215V32.2058C243.99 32.0772 244.064 32 244.188 32Z" fill="white"/>
<path d="M247.76 34.1093V32.2058C247.76 32.0772 247.859 32 247.959 32H250.514C250.638 32 250.712 32.1029 250.712 32.2058V34.1093C250.712 34.2379 250.613 34.3151 250.514 34.3151H247.959C247.835 34.3151 247.76 34.2122 247.76 34.1093ZM247.959 35.4727H250.514C250.638 35.4727 250.712 35.5756 250.712 35.6785V44.3215C250.712 44.4502 250.613 44.5273 250.514 44.5273H247.959C247.835 44.5273 247.76 44.4244 247.76 44.3215V35.6785C247.76 35.5498 247.835 35.4727 247.959 35.4727Z" fill="white"/>
<path d="M225.535 32C223.923 32 222.261 32.2572 221.12 33.0032C219.284 34.1865 218.739 36.5016 218.788 38.6109C218.838 40.4373 219.309 42.418 220.574 43.7814C221.765 45.0675 224.245 45.6592 225.932 45.6592C226.006 45.6592 226.081 45.7106 226.081 45.8135V47.6656C226.081 47.8457 226.23 48 226.403 48H226.428C226.502 48 226.552 47.9743 226.602 47.9228C227.445 47.1769 228.288 46.4051 229.132 45.6077C229.926 44.8617 230.819 44.0643 231.414 43.164C232.704 41.2605 232.902 38.5338 232.48 36.2958C232.059 34.135 230.595 32.7203 228.536 32.283C227.668 32.1286 226.602 32 225.535 32Z" fill="#80E3EB"/>
<rect x="24" y="56" width="432" height="230" rx="12" fill="#F3F6FA"/>
<mask id="path-12-inside-1_12035_6911" fill="white">
<path d="M24 56H144V118H24V56Z"/>
</mask>
<path d="M24 56H144V118H24V56Z" fill="#233049"/>
<rect x="56" y="72" width="56" height="6" rx="3" fill="#B9CBD3"/>
<rect x="60" y="86" width="48" height="16" rx="4" fill="#21CC79"/>
<path d="M144 117.5H24V118.5H144V117.5Z" fill="#D2DFE6" mask="url(#path-12-inside-1_12035_6911)"/>
<mask id="path-16-inside-2_12035_6911" fill="white">
<path d="M24 118H144V286H36C29.3726 286 24 280.627 24 274V118Z"/>
</mask>
<path d="M24 118H144V286H36C29.3726 286 24 280.627 24 274V118Z" fill="white"/>
<g clip-path="url(#clip0_12035_6911)">
<rect x="40" y="134" width="24" height="24" rx="12" fill="#FCCCCC"/>
<path d="M58.9076 158.272C58.4135 156.214 57.2228 151.398 57.2228 151.398C57.2228 151.156 55.7592 151.079 52.4773 151.016V151H52.0006H51.5238V151.011C48.242 151.074 46.7783 151.157 46.7783 151.393C46.7783 151.393 45.5826 156.211 45.0935 158.267C44.6229 160.249 46.0149 162 47.3353 162H56.6658C57.9862 162.004 59.3745 160.253 58.9076 158.272Z" fill="#FFEC03"/>
<path fill-rule="evenodd" clip-rule="evenodd" d="M56.1317 151.791C56.8885 151.233 57.8734 151.523 58.3576 152.273C59.8581 154.598 60.862 157.31 61.8863 159.86C62.2052 160.654 61.8303 161.56 61.0487 161.884C60.2672 162.209 59.375 161.828 59.0561 161.033C58.1117 158.682 57.2139 156.069 55.7827 153.948C55.2973 153.254 55.4519 152.291 56.1317 151.791Z" fill="#FFEC03"/>
<path fill-rule="evenodd" clip-rule="evenodd" d="M47.8683 151.791C47.1115 151.233 46.1266 151.523 45.6424 152.273C44.1419 154.598 43.138 157.31 42.1137 159.86C41.7948 160.654 42.1697 161.56 42.9513 161.884C43.7328 162.209 44.625 161.828 44.9439 161.033C45.8883 158.682 46.7861 156.069 48.2173 153.948C48.7027 153.254 48.5481 152.291 47.8683 151.791Z" fill="#FFEC03"/>
<path d="M51.8241 138.532C52.0084 138.497 54.0221 136.853 55.806 138.942C57.0683 140.42 55.9137 141.397 56.9941 142.416C57.9513 143.32 59.2818 145.704 57.4643 147.677C56.6124 148.602 58.8367 152.194 54.3152 150.547C51.4436 149.499 51.2043 150.159 51.2043 150.159L51.8241 138.532Z" fill="#202C44"/>
<path d="M53.2265 139.081C53.2265 139.081 53.3234 138.208 51.9869 137.667C50.6505 137.126 47.4307 137.838 47.493 140.684C47.5552 143.529 44.6094 143.659 45.4039 145.799C46.1984 147.938 43.9945 148.217 46.05 149.95C48.1056 151.683 51.6495 151.226 51.6005 148.252C51.5514 145.279 53.2265 139.081 53.2265 139.081Z" fill="#202C44"/>
<path d="M51.9547 153C52.6188 153 53.1571 152.543 53.1571 151.98C53.1571 151.417 52.6188 150.96 51.9547 150.96C51.2906 150.96 50.7522 151.417 50.7522 151.98C50.7522 152.543 51.2906 153 51.9547 153Z" fill="#CB9685"/>
<path fill-rule="evenodd" clip-rule="evenodd" d="M51.9547 151.034C51.3166 151.034 50.824 151.47 50.824 151.98C50.824 152.49 51.3166 152.926 51.9547 152.926C52.5928 152.926 53.0853 152.49 53.0853 151.98C53.0853 151.47 52.5928 151.034 51.9547 151.034ZM50.6804 151.98C50.6804 151.363 51.2646 150.886 51.9547 150.886C52.6448 150.886 53.2289 151.363 53.2289 151.98C53.2289 152.597 52.6448 153.074 51.9547 153.074C51.2646 153.074 50.6804 152.597 50.6804 151.98Z" fill="white"/>
<path d="M52.0528 149.049H51.8577C51.5934 149.05 51.3298 149.021 51.0717 148.962V151.303C51.0715 151.41 51.0919 151.516 51.1316 151.615C51.1713 151.714 51.2297 151.804 51.3032 151.88C51.3768 151.956 51.4642 152.016 51.5603 152.057C51.6565 152.098 51.7596 152.119 51.8637 152.119H52.0468C52.1514 152.119 52.255 152.098 52.3516 152.056C52.4481 152.015 52.5358 151.954 52.6094 151.878C52.6831 151.801 52.7413 151.711 52.7806 151.611C52.82 151.511 52.8398 151.404 52.8389 151.296V148.956C52.5808 149.016 52.3173 149.047 52.0528 149.049Z" fill="#CB9685"/>
<path d="M51.074 149.599V150.273C51.074 150.273 51.2619 149.941 51.9547 149.941C52.6474 149.941 52.8389 150.311 52.8389 150.311V149.495L51.0717 149.462L51.074 149.599Z" fill="#BF7D68"/>
<path d="M55.7295 141.765V145.804C55.7303 146.301 55.6357 146.793 55.4512 147.253C55.2667 147.713 54.9959 148.13 54.6543 148.482C54.3128 148.834 53.9071 149.113 53.4607 149.302C53.0142 149.492 52.5358 149.59 52.0527 149.589H51.8577C51.5933 149.589 51.3298 149.56 51.0716 149.502C50.2529 149.317 49.52 148.85 48.9943 148.178C48.4686 147.506 48.1817 146.669 48.1809 145.806V141.765C48.1809 140.762 48.5683 139.799 49.2578 139.089C49.9473 138.379 50.8825 137.98 51.8577 137.98H52.0527C53.0279 137.98 53.9631 138.379 54.6526 139.089C55.3421 139.799 55.7295 140.762 55.7295 141.765Z" fill="#CB9685"/>
<path d="M48.2718 144.75V146.482C48.1216 146.48 47.9784 146.416 47.8732 146.306C47.7679 146.196 47.7091 146.047 47.7095 145.892V145.34C47.7094 145.186 47.7683 145.037 47.8735 144.927C47.9787 144.817 48.1217 144.753 48.2718 144.75Z" fill="#CB9685"/>
<path d="M56.055 145.34V145.892C56.0554 146.047 55.9966 146.196 55.8913 146.306C55.7861 146.416 55.6429 146.48 55.4927 146.482V144.75C55.6428 144.753 55.7858 144.817 55.891 144.927C55.9961 145.037 56.055 145.186 56.055 145.34Z" fill="#CB9685"/>
<path d="M52.1221 138.539C52.6004 138.264 53.1105 138.051 53.6404 137.907C53.9106 137.841 54.1887 137.816 54.466 137.832C54.7495 137.849 55.0249 137.936 55.2688 138.086C55.5109 138.241 55.7125 138.455 55.8563 138.708L55.9687 138.887C56.0034 138.948 56.0369 139.01 56.0704 139.073C56.1422 139.196 56.1973 139.326 56.2595 139.453C56.371 139.713 56.4665 139.98 56.5455 140.253C56.6256 140.523 56.6938 140.794 56.7847 141.05C56.8723 141.305 57.0005 141.543 57.164 141.754C57.3427 141.96 57.5359 142.151 57.7419 142.327C57.9443 142.521 58.1323 142.731 58.3043 142.954C58.4771 143.179 58.6247 143.423 58.7446 143.681C58.9899 144.202 59.061 144.792 58.9468 145.359C58.7988 145.906 58.5208 146.407 58.138 146.816C58.4882 146.389 58.7344 145.882 58.8559 145.338C58.9495 144.795 58.8653 144.235 58.6166 143.746C58.556 143.624 58.488 143.506 58.4132 143.393C58.3438 143.27 58.2576 143.17 58.1739 143.06C58.0038 142.847 57.8187 142.647 57.6199 142.463C57.406 142.283 57.206 142.086 57.0217 141.874C56.8441 141.647 56.705 141.392 56.6101 141.118C56.5143 140.848 56.4473 140.574 56.3708 140.308C56.2949 140.043 56.2042 139.783 56.0992 139.528C56.0417 139.405 55.9891 139.282 55.9221 139.159C55.8898 139.099 55.8599 139.036 55.8264 138.978L55.7199 138.802C55.5912 138.567 55.4115 138.365 55.1946 138.214C54.9723 138.068 54.7191 137.979 54.4564 137.954C54.19 137.931 53.9217 137.947 53.6595 138.001C53.3938 138.052 53.1328 138.126 52.8794 138.223C52.6222 138.315 52.3769 138.437 52.1221 138.539Z" fill="#202C44"/>
<path d="M53.26 139.514C53.2578 139.347 53.2216 139.182 53.1536 139.031C53.0855 138.879 52.9873 138.744 52.8651 138.634C52.6255 138.408 52.3456 138.232 52.0408 138.115C51.7391 138.001 51.4207 137.94 51.0991 137.934C50.7781 137.924 50.4569 137.952 50.142 138.017C49.8259 138.08 49.5176 138.179 49.2231 138.313C48.9307 138.445 48.6596 138.622 48.419 138.839C47.9365 139.272 47.6327 139.878 47.5695 140.534C47.5516 140.695 47.548 140.856 47.536 141.033C47.5232 141.205 47.4984 141.375 47.4618 141.544C47.384 141.881 47.25 142.203 47.0658 142.493C46.6997 143.077 46.1625 143.497 45.6982 143.953C45.4604 144.171 45.2772 144.444 45.1646 144.75C45.119 144.905 45.0999 145.068 45.1084 145.229C45.1193 145.393 45.1494 145.555 45.1981 145.711C45.3057 146.034 45.3489 146.377 45.3249 146.718C45.3088 146.885 45.2739 147.051 45.2208 147.21C45.1642 147.37 45.0987 147.526 45.0246 147.677C45.1651 147.375 45.2511 147.048 45.2783 146.714C45.2884 146.381 45.233 146.05 45.1156 145.739C45.0586 145.577 45.0212 145.408 45.0043 145.236C44.9913 145.061 45.0079 144.886 45.0533 144.717C45.1643 144.388 45.3511 144.092 45.5977 143.855C45.8287 143.608 46.0763 143.39 46.3084 143.157C46.5436 142.931 46.7524 142.678 46.9306 142.402C47.1019 142.127 47.2258 141.823 47.2967 141.504C47.3299 141.344 47.3523 141.182 47.3637 141.019C47.3733 140.859 47.3745 140.684 47.3936 140.511C47.4327 140.167 47.532 139.833 47.6868 139.526C47.8433 139.218 48.0562 138.943 48.3137 138.718C48.5672 138.492 48.8529 138.309 49.1608 138.173C49.4668 138.035 49.7884 137.937 50.118 137.881C50.444 137.821 50.7756 137.8 51.1063 137.819C51.439 137.831 51.767 137.904 52.0755 138.033C52.3813 138.166 52.6592 138.358 52.8939 138.6C53.0099 138.722 53.1043 138.864 53.1726 139.02C53.2427 139.174 53.2728 139.344 53.26 139.514Z" fill="#202C44"/>
<path d="M51.5849 137.784C48.7134 137.302 47.4691 141.145 47.6366 142.028C47.7251 142.487 47.8759 143.241 47.9955 143.858C47.9955 143.858 48.3425 146.051 48.2731 145.574C48.2585 145.46 48.2497 145.346 48.2468 145.231C48.2369 144.927 48.2891 144.625 48.3999 144.344C48.6105 143.807 48.8953 143.148 48.8953 143.148C48.8953 143.148 50.7821 143.452 52.4512 142.673C54.1203 141.895 54.7843 139.403 54.7843 139.403C54.7843 139.403 54.4565 138.267 51.5849 137.784Z" fill="#202C44"/>
<path d="M51.7141 137.659C55.7032 136.967 56.305 140.992 56.1315 141.875C55.958 142.758 55.6254 145.316 55.6254 145.316C55.6254 144.966 55.2533 142.482 54.9805 142.057C53.5962 139.887 51.7141 137.659 51.7141 137.659Z" fill="#202C44"/>
<path d="M54.7592 139.402C54.714 139.73 54.6412 140.054 54.5414 140.37C54.4447 140.689 54.3214 140.999 54.1729 141.296C54.0268 141.598 53.8482 141.883 53.6405 142.144C53.5354 142.274 53.4223 142.398 53.3019 142.513C53.2385 142.569 53.1739 142.623 53.1092 142.677C53.0769 142.704 53.0458 142.733 53.0111 142.757L52.9058 142.826C52.3427 143.175 51.7202 143.409 51.0716 143.517C50.7527 143.576 50.4299 143.61 50.1061 143.619C49.7838 143.631 49.4612 143.614 49.1417 143.569C49.7783 143.553 50.4117 143.47 51.0322 143.323C51.3383 143.251 51.6393 143.157 51.9331 143.043C52.0073 143.016 52.0779 142.983 52.1509 142.951C52.2239 142.919 52.2956 142.89 52.3638 142.852L52.5732 142.744C52.6414 142.705 52.7024 142.66 52.7682 142.62L52.8664 142.559C52.8975 142.537 52.9262 142.511 52.9561 142.486L53.1404 142.33C53.2492 142.216 53.3641 142.11 53.4622 141.986C53.6663 141.741 53.8467 141.476 54.0006 141.195C54.1613 140.914 54.3036 140.622 54.4266 140.322C54.5527 140.021 54.6638 139.714 54.7592 139.402Z" fill="#202C44"/>
</g>
<rect x="72" y="139" width="56" height="6" rx="3" fill="#B9CBD3"/>
<rect x="72" y="149" width="48" height="4" rx="2" fill="#D2DFE6"/>
<path d="M128 173.5H40V174.5H128V173.5Z" fill="#D2DFE6" mask="url(#path-18-inside-3_12035_6911)"/>
<g clip-path="url(#clip1_12035_6911)">
<rect x="40" y="190" width="24" height="24" rx="12" fill="#FFEC03"/>
<path d="M58 210.265C58 213.988 55.3137 220.5 52 220.5C48.6863 220.5 46 213.988 46 210.265C46 206.543 48.6863 207.02 52 207.02C55.3137 207.02 58 206.543 58 210.265Z" fill="#FF4C4C"/>
<path fill-rule="evenodd" clip-rule="evenodd" d="M56.6317 208.291C57.3885 207.733 58.3734 208.023 58.8576 208.773C60.3581 211.098 61.362 213.81 62.3863 216.36C62.7052 217.154 62.3303 218.06 61.5487 218.384C60.7672 218.709 59.875 218.328 59.5561 217.533C58.6117 215.182 57.7139 212.569 56.2827 210.448C55.7973 209.754 55.9519 208.791 56.6317 208.291Z" fill="#FF4C4C"/>
<path fill-rule="evenodd" clip-rule="evenodd" d="M47.3683 208.291C46.6115 207.733 45.6266 208.023 45.1424 208.773C43.6419 211.098 42.638 213.81 41.6137 216.36C41.2948 217.154 41.6697 218.06 42.4513 218.384C43.2328 218.709 44.125 218.328 44.4439 217.533C45.3883 215.182 46.2861 212.569 47.7173 210.448C48.2027 209.754 48.0481 208.791 47.3683 208.291Z" fill="#FF4C4C"/>
<path d="M51.8809 209C52.6284 209 53.2344 208.523 53.2344 207.935C53.2344 207.346 52.6284 206.869 51.8809 206.869C51.1333 206.869 50.5273 207.346 50.5273 207.935C50.5273 208.523 51.1333 209 51.8809 209Z" fill="#FDC2BF"/>
<path d="M51.8809 209C52.6284 209 53.2344 208.523 53.2344 207.935C53.2344 207.346 52.6284 206.869 51.8809 206.869C51.1333 206.869 50.5273 207.346 50.5273 207.935C50.5273 208.523 51.1333 209 51.8809 209Z" fill="#F3C29F"/>
<path fill-rule="evenodd" clip-rule="evenodd" d="M51.8809 208.842C52.5684 208.842 53.0689 208.408 53.0689 207.935C53.0689 207.461 52.5685 207.028 51.8809 207.028C51.1933 207.028 50.6929 207.461 50.6929 207.935C50.6929 208.408 51.1933 208.842 51.8809 208.842ZM53.2344 207.935C53.2344 208.523 52.6284 209 51.8809 209C51.1333 209 50.5273 208.523 50.5273 207.935C50.5273 207.346 51.1333 206.869 51.8809 206.869C52.6284 206.869 53.2344 207.346 53.2344 207.935Z" fill="white"/>
<path d="M51.9914 205.152H51.7718C51.4743 205.153 51.1776 205.122 50.887 205.061V207.506C50.8868 207.618 50.9097 207.729 50.9544 207.832C50.9992 207.935 51.0648 208.03 51.1476 208.109C51.2304 208.188 51.3288 208.251 51.437 208.294C51.5453 208.337 51.6614 208.359 51.7786 208.359H51.9846C52.1018 208.359 52.2179 208.337 52.3261 208.294C52.4344 208.251 52.5327 208.188 52.6155 208.109C52.6984 208.03 52.764 207.935 52.8087 207.832C52.8535 207.729 52.8764 207.618 52.8762 207.506V205.061C52.5855 205.122 52.2889 205.152 51.9914 205.152Z" fill="#F3C29F"/>
<path d="M50.8688 205.882V206.587C50.8688 206.587 51.0829 206.239 51.8627 206.235C52.6425 206.231 52.858 206.621 52.858 206.621V205.774L50.8688 205.739V205.882Z" fill="#EDB58D"/>
<path d="M56.0698 198.102V202.107C56.0707 202.6 55.9642 203.088 55.7565 203.544C55.5488 204 55.2439 204.414 54.8593 204.763C54.4747 205.112 54.018 205.388 53.5153 205.577C53.0126 205.765 52.4739 205.861 51.93 205.861H51.7104C51.4128 205.861 51.116 205.832 50.8253 205.774C49.9035 205.591 49.0783 205.128 48.4864 204.461C47.8945 203.795 47.5714 202.965 47.5706 202.109V198.102C47.5706 197.107 48.0067 196.152 48.7831 195.448C49.1675 195.099 49.6239 194.823 50.1262 194.634C50.6284 194.445 51.1667 194.348 51.7104 194.348H51.93C53.0279 194.348 54.0809 194.744 54.8573 195.448C55.6337 196.152 56.0698 197.107 56.0698 198.102Z" fill="#F3C29F"/>
<path d="M47.633 199.923V201.732C47.4639 201.729 47.3027 201.663 47.1843 201.547C47.0658 201.432 46.9996 201.277 47 201.115V200.539C47 200.378 47.0663 200.222 47.1846 200.107C47.303 199.992 47.464 199.926 47.633 199.923Z" fill="#F3C29F"/>
<path d="M56.7028 200.539V201.115C56.7032 201.277 56.637 201.432 56.5186 201.547C56.4001 201.663 56.2389 201.729 56.0698 201.732V199.923C56.2388 199.926 56.3998 199.992 56.5182 200.107C56.6366 200.222 56.7029 200.378 56.7028 200.539Z" fill="#F3C29F"/>
<path d="M55.8262 199.559C55.8262 199.559 55.9029 200.83 55.8262 201.319C55.7496 201.807 56.1966 199.317 56.1966 199.317L55.8262 199.559Z" fill="#212A3C"/>
<path d="M47.8771 199.438C47.8771 199.438 47.8071 200.709 47.8771 201.205C47.9471 201.701 47.5706 199.438 47.5706 199.438H47.8771Z" fill="#212A3C"/>
<path d="M49.2604 198.191C49.2604 198.191 51.6512 199.686 54.1084 199.768L53.4195 199.327C53.4195 199.327 55.165 199.835 57.5343 199.549C57.5531 198.995 57.4327 198.444 57.1831 197.944C56.9335 197.443 56.562 197.007 56.0996 196.672C56.0996 196.672 57.2908 197.544 57.8113 198.222C57.8113 198.222 56.8751 194.563 52.4238 194.289C47.9725 194.016 48.0359 197.213 48.1048 198.376C49.5244 198.156 49.2604 198.191 49.2604 198.191Z" fill="#202C44"/>
<path d="M47.7931 200.407C46.4614 196.006 48.3317 195.015 50.8199 194.833L51.1225 198.018C49.6092 197.555 48.2724 199.418 47.7931 200.407Z" fill="#202C44"/>
<path d="M55.8795 199.923C55.8795 199.293 55.1184 198.61 54.7378 198.347L55.8161 197.984L56.0698 198.105C56.0698 198.105 56.1966 198.832 56.1966 199.256C56.1966 199.68 55.8795 199.923 55.8795 199.923Z" fill="#202C44"/>
</g>
<rect x="72" y="195" width="40" height="6" rx="3" fill="#B9CBD3"/>
<rect x="72" y="205" width="56" height="4" rx="2" fill="#D2DFE6"/>
<path d="M128 229.5H40V230.5H128V229.5Z" fill="#D2DFE6" mask="url(#path-40-inside-4_12035_6911)"/>
<g clip-path="url(#clip2_12035_6911)">
<rect x="40" y="246" width="24" height="24" rx="12" fill="#90E6BC"/>
<path d="M58.9076 271.272C58.4135 269.214 57.2228 264.398 57.2228 264.398C57.2228 264.156 55.7592 264.079 52.4773 264.016V264H52.0006H51.5238V264.011C48.242 264.074 46.7783 264.157 46.7783 264.393C46.7783 264.393 45.5826 269.211 45.0935 271.267C44.6229 273.249 46.0149 275 47.3353 275H56.6658C57.9862 275.004 59.3745 273.253 58.9076 271.272Z" fill="#6D6F71"/>
<path fill-rule="evenodd" clip-rule="evenodd" d="M56.1317 264.791C56.8885 264.233 57.8734 264.523 58.3576 265.273C59.8581 267.598 60.862 270.31 61.8863 272.86C62.2052 273.654 61.8303 274.56 61.0487 274.884C60.2672 275.209 59.375 274.828 59.0561 274.033C58.1117 271.682 57.2139 269.069 55.7827 266.948C55.2973 266.254 55.4519 265.291 56.1317 264.791Z" fill="#6D6F71"/>
<path fill-rule="evenodd" clip-rule="evenodd" d="M47.8683 264.791C47.1115 264.233 46.1266 264.523 45.6424 265.273C44.1419 267.598 43.138 270.31 42.1137 272.86C41.7948 273.654 42.1697 274.56 42.9513 274.884C43.7328 275.209 44.625 274.828 44.9439 274.033C45.8883 271.682 46.7861 269.069 48.2173 266.948C48.7027 266.254 48.5481 265.291 47.8683 264.791Z" fill="#6D6F71"/>
<path d="M51.8001 265.999C52.5078 265.999 53.0815 265.496 53.0815 264.876C53.0815 264.256 52.5078 263.754 51.8001 263.754C51.0923 263.754 50.5186 264.256 50.5186 264.876C50.5186 265.496 51.0923 265.999 51.8001 265.999Z" fill="#CB8591"/>
<path d="M51.8001 263.889C52.4377 263.889 52.9477 264.333 52.9477 264.876C52.9477 265.42 52.43 265.864 51.8001 265.864C51.1702 265.864 50.6448 265.421 50.6448 264.876C50.6448 264.331 51.1625 263.889 51.8001 263.889ZM51.8001 263.754C51.0911 263.754 50.5173 264.257 50.5173 264.876C50.5173 265.496 51.0911 266 51.8001 266C52.5091 266 53.0752 265.497 53.0752 264.876C53.0752 264.255 52.5014 263.754 51.8001 263.754Z" fill="white"/>
<path d="M51.9033 262.381H51.6954C51.4138 262.382 51.1328 262.35 50.8577 262.286V264.861C50.8575 264.979 50.8792 265.096 50.9216 265.205C50.9639 265.314 51.0261 265.413 51.1045 265.497C51.1829 265.58 51.276 265.646 51.3785 265.692C51.481 265.737 51.5908 265.76 51.7018 265.76H51.8969C52.0083 265.761 52.1187 265.738 52.2218 265.693C52.3249 265.648 52.4186 265.582 52.4975 265.499C52.5765 265.415 52.6391 265.316 52.6817 265.206C52.7244 265.097 52.7463 264.98 52.7461 264.861V262.286C52.4692 262.35 52.1866 262.381 51.9033 262.381Z" fill="#CB8591"/>
<path d="M50.8602 263.235V263.977C50.8602 263.977 51.063 263.61 51.8025 263.606C52.5421 263.602 52.7436 264.013 52.7436 264.013V263.121L50.8602 263.084V263.235Z" fill="#A8747D"/>
<path d="M47.7731 256.491V258.397C47.613 258.394 47.4604 258.324 47.3483 258.203C47.2361 258.081 47.1735 257.918 47.1738 257.747V257.135C47.1751 256.965 47.2385 256.804 47.3504 256.683C47.4624 256.563 47.614 256.494 47.7731 256.491Z" fill="#CB8591"/>
<path d="M56.4211 257.135V257.742C56.4214 257.912 56.3588 258.076 56.2466 258.197C56.1345 258.319 55.9819 258.388 55.8218 258.391V256.491C55.9809 256.494 56.1326 256.563 56.2445 256.683C56.3564 256.804 56.4198 256.965 56.4211 257.135Z" fill="#CB8591"/>
<path d="M55.8218 254.587V259.032C55.8226 259.58 55.7218 260.122 55.5252 260.628C55.3286 261.133 55.04 261.593 54.6759 261.98C54.3119 262.367 53.8796 262.674 53.4038 262.883C52.928 263.092 52.4181 263.199 51.9033 263.198H51.6955C51.4138 263.198 51.1328 263.166 50.8577 263.102C49.9841 262.899 49.2018 262.385 48.6408 261.645C48.0797 260.905 47.7736 259.983 47.7732 259.032V254.587C47.7732 254.04 47.8747 253.498 48.0718 252.992C48.269 252.487 48.558 252.027 48.9222 251.64C49.2865 251.254 49.7189 250.947 50.1948 250.738C50.6706 250.529 51.1806 250.421 51.6955 250.422H51.9033C52.9425 250.422 53.9392 250.861 54.6741 251.642C55.4089 252.423 55.8218 253.483 55.8218 254.587Z" fill="#CB8591"/>
<path d="M51.8536 255.42C51.6508 255.555 51.1586 255.588 50.5695 255.633C49.9804 255.677 49.7483 255.451 49.3059 255.656C48.8634 255.86 47.9453 255.854 47.406 255.385C47.0511 255.051 46.7702 254.637 46.5835 254.174C46.1053 252.621 47.8369 251.729 47.8369 251.729C47.8369 251.729 47.9071 250.345 49.4946 250.479C49.4946 250.479 49.7241 250.521 49.895 249.991C50.0659 249.461 52.662 248.052 54.187 249.995C54.187 249.995 54.6805 250.995 55.0439 250.934C55.4073 250.873 58.307 251.623 57.2818 254.531C57.1045 255.034 56.2298 256.676 53.8721 255.324C53.8721 255.324 52.7079 254.83 51.8536 255.42Z" fill="#202C44"/>
<path opacity="0.2" d="M49.1758 255.522C49.2944 255.508 48.0142 256.186 47.7732 257.705V255.147H48.3738L49.1758 255.522Z" fill="#202C44"/>
<path fill-rule="evenodd" clip-rule="evenodd" d="M47.6573 255.915C47.6573 255.844 47.7109 255.787 47.777 255.787H48.1557C48.2218 255.787 48.2753 255.844 48.2753 255.915C48.2753 255.985 48.2218 256.042 48.1557 256.042H47.777C47.7109 256.042 47.6573 255.985 47.6573 255.915Z" fill="#202C44"/>
<path fill-rule="evenodd" clip-rule="evenodd" d="M47.6573 256.361C47.6573 256.29 47.7109 256.233 47.777 256.233H48.1557C48.2218 256.233 48.2753 256.29 48.2753 256.361C48.2753 256.431 48.2218 256.488 48.1557 256.488H47.777C47.7109 256.488 47.6573 256.431 47.6573 256.361Z" fill="#202C44"/>
<path opacity="0.2" d="M54.4127 255.522C54.3005 255.503 55.5795 256.191 55.8154 257.705V255.147H55.2148L54.4127 255.522Z" fill="#202C44"/>
<path fill-rule="evenodd" clip-rule="evenodd" d="M55.3196 255.915C55.3196 255.844 55.3731 255.787 55.4392 255.787H55.8179C55.884 255.787 55.9376 255.844 55.9376 255.915C55.9376 255.985 55.884 256.042 55.8179 256.042H55.4392C55.3731 256.042 55.3196 255.985 55.3196 255.915Z" fill="#202C44"/>
<path fill-rule="evenodd" clip-rule="evenodd" d="M55.3196 256.361C55.3196 256.29 55.3731 256.233 55.4392 256.233H55.8179C55.884 256.233 55.9376 256.29 55.9376 256.361C55.9376 256.431 55.884 256.488 55.8179 256.488H55.4392C55.3731 256.488 55.3196 256.431 55.3196 256.361Z" fill="#202C44"/>
<path fill-rule="evenodd" clip-rule="evenodd" d="M49.3462 260.46C48.9124 260.46 48.4883 260.323 48.1276 260.067C47.7669 259.811 47.4858 259.447 47.3198 259.021C47.1538 258.595 47.1103 258.126 47.195 257.673C47.2796 257.221 47.4885 256.806 47.7953 256.479C48.102 256.153 48.4928 255.931 48.9183 255.841C49.3438 255.751 49.7848 255.798 50.1856 255.974C50.5864 256.15 50.929 256.449 51.17 256.833C51.411 257.216 51.5396 257.667 51.5396 258.128C51.5396 258.188 51.5375 258.247 51.5332 258.306H52.0656C52.0504 258.096 52.0622 257.883 52.1013 257.673C52.186 257.221 52.3949 256.806 52.7016 256.479C53.0084 256.153 53.3992 255.931 53.8247 255.841C54.2501 255.751 54.6912 255.798 55.092 255.974C55.4927 256.15 55.8353 256.449 56.0763 256.833C56.3173 257.216 56.446 257.667 56.446 258.128C56.446 258.747 56.2149 259.34 55.8035 259.777C55.3922 260.214 54.8343 260.46 54.2526 260.46C53.8188 260.46 53.3947 260.323 53.034 260.067C52.6733 259.811 52.3922 259.447 52.2261 259.021C52.1671 258.869 52.1236 258.712 52.0958 258.552H51.503C51.4229 259.013 51.2132 259.441 50.8972 259.777C50.4858 260.214 49.928 260.46 49.3462 260.46ZM49.3462 256.043C48.9583 256.043 48.5792 256.166 48.2567 256.395C47.9343 256.624 47.6831 256.95 47.5348 257.331C47.3865 257.712 47.3479 258.132 47.4237 258.536C47.4996 258.94 47.6865 259.312 47.9609 259.603C48.2353 259.895 48.5849 260.093 48.9654 260.174C49.3459 260.254 49.7403 260.213 50.0986 260.055C50.457 259.897 50.7633 259.63 50.9788 259.287C51.1943 258.944 51.3093 258.541 51.3093 258.128C51.3093 257.575 51.1025 257.044 50.7344 256.652C50.3663 256.26 49.867 256.04 49.3462 256.04V256.043ZM54.2526 256.043C53.8646 256.043 53.4853 256.165 53.1627 256.394C52.8401 256.623 52.5887 256.949 52.4402 257.33C52.2917 257.711 52.2529 258.131 52.3286 258.535C52.4042 258.94 52.5911 259.311 52.8654 259.603C53.1398 259.895 53.4893 260.093 53.8699 260.174C54.2504 260.254 54.6448 260.213 55.0033 260.055C55.3618 259.897 55.6681 259.63 55.8837 259.287C56.0992 258.944 56.2143 258.541 56.2143 258.128C56.2145 257.854 56.1639 257.583 56.0654 257.33C55.9669 257.076 55.8224 256.846 55.6403 256.652C55.4581 256.458 55.2418 256.304 55.0037 256.199C54.7656 256.094 54.5104 256.04 54.2526 256.04V256.043Z" fill="#F6A721"/>
</g>
<rect x="72" y="251" width="56" height="6" rx="3" fill="#B9CBD3"/>
<rect x="72" y="261" width="32" height="4" rx="2" fill="#D2DFE6"/>
<path d="M24 118H144H24ZM144 286H24H144ZM24 286V118V286ZM144.5 118V286H143.5V118H144.5Z" fill="#D2DFE6" mask="url(#path-16-inside-2_12035_6911)"/>
<g clip-path="url(#clip3_12035_6911)">
<rect x="160" y="72" width="24" height="24" rx="12" fill="#FFB186"/>
<path d="M178 92.2651C178 95.9875 175.314 102.5 172 102.5C168.686 102.5 166 95.9875 166 92.2651C166 88.5427 168.686 89.0199 172 89.0199C175.314 89.0199 178 88.5427 178 92.2651Z" fill="#3F7DE8"/>
<path fill-rule="evenodd" clip-rule="evenodd" d="M176.632 90.2906C177.388 89.7334 178.373 90.0228 178.858 90.773C180.358 93.0978 181.362 95.8099 182.386 98.3598C182.705 99.1539 182.33 100.06 181.549 100.384C180.767 100.709 179.875 100.328 179.556 99.5334C178.612 97.1823 177.714 94.5694 176.283 92.4478C175.797 91.7542 175.952 90.7911 176.632 90.2906Z" fill="#3F7DE8"/>
<path fill-rule="evenodd" clip-rule="evenodd" d="M167.368 90.2906C166.612 89.7334 165.627 90.0228 165.142 90.773C163.642 93.0978 162.638 95.8099 161.614 98.3598C161.295 99.1539 161.67 100.06 162.451 100.384C163.233 100.709 164.125 100.328 164.444 99.5334C165.388 97.1823 166.286 94.5694 167.717 92.4478C168.203 91.7542 168.048 90.7911 167.368 90.2906Z" fill="#3F7DE8"/>
<path d="M172 91C172.689 91 173.248 90.541 173.248 89.9748C173.248 89.4085 172.689 88.9495 172 88.9495C171.311 88.9495 170.752 89.4085 170.752 89.9748C170.752 90.541 171.311 91 172 91Z" fill="#DA7A7A"/>
<path fill-rule="evenodd" clip-rule="evenodd" d="M172 90.8762C172.644 90.8762 173.124 90.4512 173.124 89.9748C173.124 89.4983 172.644 89.0733 172 89.0733C171.356 89.0733 170.876 89.4983 170.876 89.9748C170.876 90.4512 171.356 90.8762 172 90.8762ZM173.248 89.9748C173.248 90.541 172.689 91 172 91C171.311 91 170.752 90.541 170.752 89.9748C170.752 89.4085 171.311 88.9495 172 88.9495C172.689 88.9495 173.248 89.4085 173.248 89.9748Z" fill="#CB9685"/>
<path fill-rule="evenodd" clip-rule="evenodd" d="M172 90.8762C172.644 90.8762 173.124 90.4512 173.124 89.9748C173.124 89.4983 172.644 89.0733 172 89.0733C171.356 89.0733 170.876 89.4983 170.876 89.9748C170.876 90.4512 171.356 90.8762 172 90.8762ZM173.248 89.9748C173.248 90.541 172.689 91 172 91C171.311 91 170.752 90.541 170.752 89.9748C170.752 89.4085 171.311 88.9495 172 88.9495C172.689 88.9495 173.248 89.4085 173.248 89.9748Z" fill="white"/>
<path d="M175.918 79.305V83.3639C175.918 83.8638 175.82 84.359 175.629 84.821C175.437 85.283 175.156 85.7028 174.802 86.0563C174.447 86.4098 174.026 86.69 173.563 86.881C173.1 87.0719 172.603 87.1698 172.102 87.1689H171.906C171.631 87.1694 171.358 87.1399 171.09 87.081C170.24 86.8954 169.48 86.4259 168.934 85.7504C168.388 85.0748 168.091 84.2337 168.09 83.3664V79.305C168.09 78.2959 168.492 77.3281 169.207 76.6145C169.923 75.9009 170.894 75.5 171.906 75.5H172.108C173.119 75.5016 174.088 75.9033 174.802 76.6167C175.516 77.3301 175.918 78.297 175.918 79.305Z" fill="#DA7A7A"/>
<path fill-rule="evenodd" clip-rule="evenodd" d="M175.793 83.3641V79.305C175.793 78.3298 175.405 77.3943 174.714 76.7041C174.023 76.014 173.086 75.6254 172.108 75.6238H171.906C170.927 75.6238 169.988 76.0117 169.295 76.702C168.603 77.3924 168.214 78.3287 168.214 79.305V83.3663C168.215 84.2055 168.503 85.0192 169.031 85.6727C169.559 86.3263 170.294 86.7805 171.116 86.9601L171.117 86.9601C171.376 87.017 171.64 87.0455 171.905 87.0451H172.102C172.587 87.0459 173.067 86.9512 173.516 86.7665C173.964 86.5818 174.371 86.3107 174.714 85.9687C175.057 85.6268 175.329 85.2207 175.514 84.7737C175.699 84.3267 175.794 83.8477 175.793 83.3641ZM168.09 83.3664V79.305C168.09 78.2959 168.492 77.3281 169.207 76.6145C169.923 75.9009 170.894 75.5 171.906 75.5H172.108C173.119 75.5016 174.088 75.9033 174.802 76.6167C175.516 77.3301 175.918 78.297 175.918 79.305V83.3639C175.918 83.8638 175.82 84.359 175.629 84.821C175.437 85.283 175.156 85.7028 174.802 86.0563C174.447 86.4098 174.026 86.69 173.563 86.881C173.1 87.0719 172.603 87.1698 172.102 87.1689H171.906C171.631 87.1694 171.358 87.1399 171.09 87.081C170.24 86.8954 169.48 86.4259 168.934 85.7504C168.388 85.0748 168.091 84.2337 168.09 83.3664Z" fill="#CB9685"/>
<path d="M168.084 80.89V82.6309C167.928 82.6283 167.779 82.5646 167.67 82.4537C167.561 82.3427 167.5 82.1933 167.5 82.0378V81.4831C167.5 81.3277 167.561 81.1785 167.67 81.0676C167.779 80.9567 167.928 80.8929 168.084 80.89Z" fill="#DA7A7A"/>
<path fill-rule="evenodd" clip-rule="evenodd" d="M167.959 80.9054C168 80.896 168.041 80.8908 168.084 80.89V82.6309C168.041 82.6302 168 82.6251 167.959 82.6157C167.85 82.5904 167.75 82.5346 167.67 82.4537C167.561 82.3427 167.5 82.1933 167.5 82.0378M167.959 82.4877V81.0335C167.884 81.0561 167.815 81.0973 167.759 81.1543C167.673 81.2421 167.624 81.3601 167.624 81.4831V82.0381C167.624 82.161 167.672 82.2792 167.759 82.3669C167.815 82.424 167.884 82.4652 167.959 82.4877Z" fill="#CB9685"/>
<path d="M176.5 81.4831V82.0378C176.5 82.1933 176.439 82.3427 176.33 82.4537C176.221 82.5646 176.072 82.6283 175.916 82.6309V80.89C176.072 80.8929 176.221 80.9567 176.33 81.0676C176.439 81.1785 176.5 81.3277 176.5 81.4831Z" fill="#DA7A7A"/>
<path fill-rule="evenodd" clip-rule="evenodd" d="M176.376 82.0381L176.376 82.0378L176.376 81.4831H176.5V82.0378C176.5 82.1933 176.439 82.3427 176.33 82.4537C176.25 82.5346 176.15 82.5904 176.041 82.6157C176 82.6251 175.959 82.6302 175.916 82.6309V80.89C175.959 80.8908 176 80.896 176.041 80.9054C176.15 80.9309 176.25 80.9867 176.33 81.0676C176.439 81.1785 176.5 81.3277 176.5 81.4831H176.376C176.376 81.3601 176.327 81.2421 176.241 81.1543C176.185 81.0973 176.116 81.0561 176.041 81.0335V82.4877C176.116 82.4652 176.185 82.424 176.241 82.3669C176.328 82.2792 176.376 82.161 176.376 82.0381Z" fill="#CB9685"/>
<path opacity="0.2" fill-rule="evenodd" clip-rule="evenodd" d="M171.446 77.07C170.937 77.07 170.449 77.2716 170.09 77.6303C169.73 77.9891 169.528 78.4757 169.528 78.9831C169.528 79.1882 169.361 79.3545 169.155 79.3545C168.949 79.3545 168.783 79.1882 168.783 78.9831C168.783 78.2787 169.063 77.6031 169.563 77.105C170.062 76.6069 170.74 76.3271 171.446 76.3271C171.652 76.3271 171.819 76.4934 171.819 76.6986C171.819 76.9037 171.652 77.07 171.446 77.07Z" fill="white"/>
<path d="M172.102 87.169H171.906C171.631 87.1694 171.358 87.1399 171.09 87.0811V89.4337C171.091 89.6494 171.177 89.856 171.33 90.0087C171.482 90.1615 171.689 90.248 171.906 90.2497H172.096C172.204 90.2497 172.311 90.2284 172.41 90.1871C172.51 90.1459 172.601 90.0854 172.677 90.0091C172.754 89.9329 172.814 89.8424 172.855 89.7428C172.897 89.6432 172.918 89.5365 172.918 89.4287V87.0823C172.65 87.1402 172.376 87.1692 172.102 87.169Z" fill="#DA7A7A"/>
<path fill-rule="evenodd" clip-rule="evenodd" d="M172.918 89.4287V87.0823C172.876 87.0912 172.835 87.0994 172.793 87.107C172.565 87.1484 172.334 87.1692 172.102 87.169H171.906C171.674 87.1693 171.442 87.1483 171.214 87.1062C171.173 87.0985 171.131 87.0901 171.09 87.0811V89.4337C171.091 89.6494 171.177 89.856 171.33 90.0087C171.482 90.1615 171.689 90.248 171.906 90.2497H172.096C172.204 90.2497 172.311 90.2284 172.41 90.1871C172.51 90.1459 172.601 90.0854 172.677 90.0091C172.754 89.9329 172.814 89.8424 172.855 89.7428C172.897 89.6432 172.918 89.5365 172.918 89.4287ZM171.906 90.1258H172.096C172.187 90.1258 172.278 90.1078 172.363 90.0728C172.448 90.0377 172.525 89.9864 172.589 89.9217C172.654 89.8569 172.706 89.7801 172.741 89.6955C172.776 89.611 172.794 89.5204 172.793 89.4289L172.793 89.4287L172.793 87.2328C172.565 87.2729 172.334 87.293 172.102 87.2928M171.906 90.1258C171.723 90.1243 171.547 90.0509 171.418 89.9213C171.288 89.7917 171.215 89.6164 171.214 89.4334V87.232C171.442 87.2728 171.674 87.2931 171.906 87.2928H172.102" fill="#CB9685"/>
<path d="M171.086 87.9601V88.6374C171.086 88.6374 171.284 88.3019 172.003 88.2981C172.722 88.2944 172.92 88.6696 172.92 88.6696V87.8561L171.086 87.8227V87.9601Z" fill="#BF7D68"/>
<path d="M175.769 83.255C175.747 83.6846 175.56 84.0894 175.246 84.3844C174.932 84.6794 174.516 84.8418 174.085 84.8374H174.008C173.908 84.8358 173.809 84.8129 173.718 84.7702C173.627 84.7275 173.546 84.666 173.481 84.5898C173.294 84.3726 173.063 84.1977 172.802 84.0769C172.542 83.9561 172.259 83.8921 171.972 83.8891C171.684 83.8862 171.4 83.9444 171.137 84.0599C170.874 84.1754 170.639 84.3455 170.448 84.5588C170.382 84.6336 170.3 84.6936 170.209 84.7348C170.118 84.776 170.019 84.7974 169.919 84.7978C169.496 84.7935 169.091 84.6297 168.784 84.3393C168.478 84.0489 168.293 83.6535 168.267 83.2327L168.084 80.2461V84.9104C168.084 86.6799 169.019 88.115 171.296 88.115H172.802C175.196 88.115 175.918 86.6799 175.918 84.9104V80.2461L175.769 83.255Z" fill="#212A3C"/>
</g>
<rect x="192" y="77" width="56" height="6" rx="3" fill="#B9CBD3"/>
<rect x="192" y="87" width="32" height="4" rx="2" fill="#D2DFE6"/>
<path d="M160 104H276C282.627 104 288 109.373 288 116V142C288 148.627 282.627 154 276 154H172C165.373 154 160 148.627 160 142V104Z" fill="white"/>
<rect x="172" y="116" width="104" height="6" rx="3" fill="#8CA0B3"/>
<rect x="172" y="126" width="56" height="6" rx="3" fill="#8CA0B3"/>
<rect x="172" y="136" width="72" height="6" rx="3" fill="#8CA0B3"/>
<g filter="url(#filter0_d_12035_6911)">
<g filter="url(#filter1_d_12035_6911)">
<path d="M288 182C288 175.373 293.373 170 300 170H388C394.627 170 400 175.373 400 182V220H300C293.373 220 288 214.627 288 208V182Z" fill="#192438"/>
<rect x="300" y="182" width="88" height="6" rx="3" fill="white"/>
<rect x="300" y="192" width="48" height="6" rx="3" fill="white"/>
<rect x="300" y="202" width="62" height="6" rx="3" fill="white"/>
</g>
<g filter="url(#filter2_d_12035_6911)">
<path d="M232 240C232 233.373 237.373 228 244 228H400V276C400 282.627 394.627 288 388 288H244C237.373 288 232 282.627 232 276V240Z" fill="#192438"/>
<rect x="244" y="240" width="120" height="6" rx="3" fill="white"/>
<rect x="244" y="250" width="144" height="6" rx="3" fill="white"/>
<rect x="244" y="260" width="54" height="6" rx="3" fill="white"/>
<rect x="244" y="270" width="78" height="6" rx="3" fill="white"/>
</g>
<g filter="url(#filter3_d_12035_6911)">
<g clip-path="url(#clip4_12035_6911)">
<rect x="416" y="170" width="48" height="48" rx="24" fill="#87DDE8"/>
<path d="M453.815 220.543C452.827 216.429 450.446 206.796 450.446 206.796C450.446 206.312 447.518 206.157 440.955 206.031V206H440.001H439.047V206.022C432.484 206.148 429.556 206.315 429.556 206.787C429.556 206.787 427.165 216.422 426.187 220.534C425.246 224.498 428.03 228 430.671 228H449.331C451.972 228.007 454.749 224.505 453.815 220.543Z" fill="#FF8EAA"/>
<path fill-rule="evenodd" clip-rule="evenodd" d="M448.263 207.581C449.777 206.467 451.747 207.046 452.715 208.546C455.716 213.196 457.724 218.62 459.773 223.72C460.41 225.308 459.661 227.121 458.097 227.769C456.534 228.417 454.75 227.655 454.112 226.067C452.223 221.365 450.428 216.139 447.565 211.896C446.595 210.508 446.904 208.582 448.263 207.581Z" fill="#FF8EAA"/>
<path fill-rule="evenodd" clip-rule="evenodd" d="M431.737 207.581C430.223 206.467 428.253 207.046 427.285 208.546C424.284 213.196 422.276 218.62 420.227 223.72C419.59 225.308 420.339 227.121 421.903 227.769C423.466 228.417 425.25 227.655 425.888 226.067C427.777 221.365 429.572 216.139 432.435 211.896C433.405 210.508 433.096 208.582 431.737 207.581Z" fill="#FF8EAA"/>
<path d="M443.73 177.328C443.384 176.899 442.893 176.727 442.485 176.355L442.351 176.384C442.752 176.739 443.125 177.122 443.468 177.531C443.636 177.742 443.81 177.933 443.95 178.17C444.101 178.387 444.238 178.614 444.36 178.848C444.861 179.786 445.031 180.86 444.842 181.903C444.597 182.948 444.101 183.921 443.395 184.74C444.167 183.955 444.727 182.994 445.025 181.943C445.256 180.855 445.112 179.723 444.618 178.723C444.376 178.227 444.079 177.759 443.73 177.328Z" fill="#2C2A46"/>
<path d="M439.436 182.882C439.21 182.651 438.936 182.469 438.633 182.349C438.331 182.228 438.005 182.171 437.679 182.182C437.024 182.188 436.376 182.319 435.772 182.567C435.174 182.814 434.624 183.157 434.143 183.584C433.657 184.003 433.221 184.476 432.844 184.992C432.463 185.506 432.142 186.061 431.887 186.646C431.633 187.226 431.471 187.841 431.406 188.469C431.274 189.727 431.638 190.987 432.421 191.992C432.611 192.242 432.821 192.473 433.039 192.737C433.25 192.995 433.442 193.268 433.613 193.553C433.95 194.132 434.182 194.763 434.3 195.42C434.541 196.732 434.312 198.046 434.238 199.312C434.178 199.938 434.274 200.568 434.518 201.15C434.658 201.429 434.847 201.682 435.075 201.897C435.31 202.112 435.571 202.298 435.851 202.452C436.442 202.76 436.963 203.181 437.384 203.692C437.584 203.949 437.754 204.228 437.889 204.523C438.019 204.823 438.131 205.13 438.224 205.442C438.027 204.828 437.717 204.255 437.31 203.749C436.88 203.269 436.355 202.879 435.768 202.603C435.466 202.452 435.185 202.265 434.93 202.047C434.678 201.819 434.468 201.551 434.309 201.253C434.033 200.643 433.913 199.976 433.958 199.309C433.969 198.652 434.042 198.012 434.072 197.373C434.116 196.738 434.085 196.101 433.979 195.474C433.863 194.857 433.639 194.264 433.317 193.721C433.152 193.452 432.969 193.194 432.767 192.95C432.567 192.713 432.335 192.466 432.133 192.198C431.73 191.663 431.43 191.061 431.247 190.421C431.065 189.777 431.012 189.105 431.09 188.442C431.161 187.784 431.337 187.14 431.609 186.535C431.875 185.928 432.217 185.357 432.628 184.834C433.028 184.31 433.488 183.833 433.999 183.412C434.506 182.981 435.086 182.64 435.712 182.405C436.34 182.178 437.007 182.073 437.675 182.095C438.009 182.109 438.338 182.182 438.647 182.308C438.956 182.429 439.228 182.627 439.436 182.882Z" fill="#2C2A46"/>
<path d="M438.223 183.561C438.339 183.262 438.519 182.99 438.75 182.763C438.981 182.536 439.258 182.359 439.563 182.244C440.168 182 440.817 181.873 441.472 181.87C442.12 181.869 442.764 181.975 443.376 182.185C443.99 182.385 444.579 182.653 445.132 182.984C445.688 183.312 446.204 183.701 446.671 184.142C447.135 184.579 447.529 185.083 447.838 185.637C448.46 186.745 448.626 188.044 448.304 189.269C448.229 189.572 448.127 189.866 448.031 190.191C447.94 190.51 447.871 190.835 447.827 191.163C447.747 191.824 447.784 192.495 447.937 193.144C448.236 194.445 448.97 195.567 449.541 196.705C449.845 197.258 450.007 197.875 450.014 198.504C449.996 198.815 449.923 199.12 449.798 199.406C449.667 199.693 449.501 199.964 449.303 200.213C448.882 200.722 448.57 201.31 448.385 201.94C448.303 202.254 448.257 202.575 448.25 202.899C448.25 203.225 448.269 203.55 448.307 203.874C448.245 203.233 448.302 202.586 448.476 201.965C448.681 201.359 449.009 200.799 449.44 200.32C449.658 200.066 449.842 199.786 449.99 199.488C450.133 199.182 450.219 198.854 450.247 198.52C450.258 197.852 450.104 197.192 449.798 196.595C449.527 195.994 449.205 195.433 448.923 194.855C448.63 194.288 448.406 193.69 448.254 193.071C448.115 192.459 448.086 191.827 448.166 191.204C448.211 190.893 448.278 190.586 448.366 190.284C448.456 189.989 448.572 189.673 448.652 189.349C448.81 188.702 448.847 188.033 448.761 187.374C448.673 186.711 448.455 186.072 448.119 185.491C447.791 184.912 447.374 184.387 446.883 183.933C446.397 183.476 445.855 183.081 445.268 182.756C444.692 182.426 444.079 182.163 443.44 181.971C442.802 181.768 442.133 181.675 441.462 181.698C440.794 181.729 440.138 181.887 439.532 182.163C439.23 182.304 438.955 182.496 438.721 182.73C438.485 182.96 438.313 183.246 438.223 183.561Z" fill="#2C2A46"/>
<path d="M448.815 190.187V198.207C448.815 201.81 446.052 204.82 442.367 205.557C441.788 205.67 441.199 205.727 440.609 205.727H440.179C439.588 205.727 438.999 205.67 438.421 205.554C434.735 204.815 431.975 201.808 431.975 198.207V190.187C431.975 186.035 435.647 182.668 440.174 182.668H440.611C445.145 182.668 448.815 186.035 448.815 190.187Z" fill="#2C2A46"/>
<path d="M440.496 210C441.89 210 443.02 209.087 443.02 207.961C443.02 206.834 441.89 205.921 440.496 205.921C439.101 205.921 437.971 206.834 437.971 207.961C437.971 209.087 439.101 210 440.496 210Z" fill="#F3C29F"/>
<path fill-rule="evenodd" clip-rule="evenodd" d="M440.496 206.117C439.173 206.117 438.17 206.976 438.17 207.961C438.17 208.945 439.173 209.805 440.496 209.805C441.818 209.805 442.821 208.945 442.821 207.961C442.821 206.976 441.818 206.117 440.496 206.117ZM437.772 207.961C437.772 206.693 439.029 205.726 440.496 205.726C441.962 205.726 443.22 206.693 443.22 207.961C443.22 209.229 441.962 210.195 440.496 210.195C439.029 210.195 437.772 209.229 437.772 207.961Z" fill="white"/>
<path d="M440.699 203.219H440.29C439.735 203.22 439.181 203.161 438.639 203.044V207.724C438.639 207.938 438.682 208.151 438.765 208.349C438.848 208.547 438.971 208.727 439.125 208.879C439.28 209.03 439.463 209.151 439.665 209.233C439.867 209.315 440.084 209.357 440.302 209.357H440.686C440.905 209.357 441.122 209.315 441.323 209.233C441.525 209.151 441.709 209.03 441.863 208.879C442.018 208.727 442.14 208.547 442.224 208.349C442.307 208.151 442.35 207.938 442.349 207.724V203.042C441.807 203.159 441.254 203.218 440.699 203.219Z" fill="#F3C29F"/>
<path d="M438.644 204.313V205.66C438.644 205.66 439.044 204.993 440.501 204.985C441.958 204.978 442.354 205.724 442.354 205.724V204.106L438.644 204.039V204.313Z" fill="#E8AA7D"/>
<path d="M448.419 189.062V196.924C448.419 200.453 445.821 203.404 442.349 204.126C441.807 204.238 441.254 204.294 440.699 204.293H440.29C439.735 204.294 439.182 204.237 438.639 204.123C435.17 203.404 432.57 200.451 432.57 196.924V189.062C432.57 184.991 436.027 181.69 440.29 181.69H440.699C444.964 181.69 448.419 184.993 448.419 189.062Z" fill="#F3C29F"/>
<path d="M432.57 193.33V196.793C432.255 196.788 431.954 196.661 431.733 196.441C431.512 196.22 431.389 195.923 431.389 195.614V194.51C431.389 194.201 431.513 193.904 431.734 193.684C431.955 193.463 432.255 193.336 432.57 193.33Z" fill="#F3C29F"/>
<path d="M449.599 194.51V195.614C449.6 195.923 449.476 196.22 449.255 196.441C449.035 196.661 448.734 196.788 448.418 196.793V193.33C448.734 193.336 449.034 193.463 449.255 193.684C449.476 193.904 449.599 194.201 449.599 194.51Z" fill="#F3C29F"/>
<path d="M448.233 191.05C448.233 191.05 448.378 193.53 448.233 194.483C448.087 195.436 448.815 191.05 448.815 191.05H448.233Z" fill="#2C2A46"/>
<path d="M432.851 192.382C432.851 192.382 432.718 194.862 432.851 195.83C432.984 196.798 432.269 192.382 432.269 192.382H432.851Z" fill="#2C2A46"/>
<path d="M437.089 180.2C436.986 179.43 437.132 178.648 437.505 177.963C437.879 177.279 438.462 176.726 439.172 176.383C439.882 176.04 440.684 175.923 441.466 176.05C442.247 176.176 442.968 176.54 443.528 177.089C444.088 177.638 444.459 178.345 444.588 179.111C444.717 179.877 444.598 180.663 444.248 181.36C443.898 182.056 443.334 182.628 442.636 182.994C441.938 183.36 441.14 183.503 440.355 183.402C439.527 183.295 438.758 182.924 438.167 182.345C437.577 181.766 437.198 181.012 437.089 180.2Z" fill="#2C2A46"/>
<path fill-rule="evenodd" clip-rule="evenodd" d="M443.593 175.643C443.796 175.728 443.89 175.957 443.804 176.156L441.214 182.124C441.152 182.266 441.011 182.359 440.854 182.362C440.696 182.364 440.552 182.275 440.486 182.135L439.024 179.052C438.931 178.856 439.018 178.623 439.217 178.532C439.417 178.441 439.654 178.526 439.747 178.722L440.831 181.009L443.07 175.85C443.157 175.651 443.391 175.559 443.593 175.643Z" fill="#F66689"/>
<path d="M432.779 193.695C432.477 193.729 432.174 193.648 431.933 193.467C431.692 193.286 431.532 193.021 431.487 192.727C431.404 192.18 431.316 191.547 431.289 191.151C430.985 186.914 434.477 181.968 438.375 181.968H443.784C448.449 182.54 450.232 188.022 449.195 192.362C449.173 192.451 449.131 192.534 449.072 192.605C449.013 192.676 448.939 192.734 448.855 192.773C448.771 192.812 448.679 192.833 448.585 192.833C448.492 192.833 448.4 192.813 448.315 192.774C447.991 192.628 447.527 192.426 446.874 192.158C445.095 191.419 443.909 188.843 443.909 188.843C443.909 188.843 443.909 190.234 439.689 192.158C437.795 193.022 434.499 193.495 432.779 193.695Z" fill="#2C2A46"/>
<path d="M444.522 186.404C444.431 187.035 444.284 187.657 444.083 188.263C443.888 188.875 443.639 189.47 443.34 190.041C443.045 190.621 442.686 191.166 442.267 191.668C442.055 191.918 441.827 192.155 441.584 192.377C441.457 192.483 441.326 192.587 441.196 192.691C441.131 192.743 441.068 192.798 440.998 192.845L440.786 192.977C439.651 193.646 438.397 194.096 437.089 194.304C436.447 194.416 435.796 194.482 435.143 194.5C434.494 194.522 433.844 194.49 433.2 194.403C434.483 194.372 435.759 194.214 437.01 193.93C437.627 193.792 438.234 193.613 438.826 193.394C438.975 193.342 439.117 193.278 439.265 193.216C439.412 193.155 439.556 193.1 439.694 193.027L440.116 192.819C440.253 192.746 440.376 192.658 440.509 192.583L440.707 192.464C440.769 192.422 440.827 192.372 440.887 192.325L441.259 192.025C441.478 191.807 441.71 191.604 441.908 191.365C442.319 190.895 442.682 190.386 442.993 189.847C443.317 189.307 443.603 188.747 443.851 188.171C444.105 187.594 444.329 187.004 444.522 186.404Z" fill="#2C2A46"/>
</g>
</g>
</g>
<defs>
<filter id="filter0_d_12035_6911" x="208" y="146" width="296" height="182" filterUnits="userSpaceOnUse" color-interpolation-filters="sRGB">
<feFlood flood-opacity="0" result="BackgroundImageFix"/>
<feColorMatrix in="SourceAlpha" type="matrix" values="0 0 0 0 0 0 0 0 0 0 0 0 0 0 0 0 0 0 127 0" result="hardAlpha"/>
<feOffset dx="8" dy="8"/>
<feGaussianBlur stdDeviation="8"/>
<feColorMatrix type="matrix" values="0 0 0 0 0.536667 0 0 0 0 0.584274 0 0 0 0 0.670833 0 0 0 0.25 0"/>
<feBlend mode="normal" in2="BackgroundImageFix" result="effect1_dropShadow_12035_6911"/>
<feBlend mode="normal" in="SourceGraphic" in2="effect1_dropShadow_12035_6911" result="shape"/>
</filter>
<filter id="filter1_d_12035_6911" x="276.8" y="158.8" width="145.6" height="83.6" filterUnits="userSpaceOnUse" color-interpolation-filters="sRGB">
<feFlood flood-opacity="0" result="BackgroundImageFix"/>
<feColorMatrix in="SourceAlpha" type="matrix" values="0 0 0 0 0 0 0 0 0 0 0 0 0 0 0 0 0 0 127 0" result="hardAlpha"/>
<feOffset dx="5.6" dy="5.6"/>
<feGaussianBlur stdDeviation="8.4"/>
<feColorMatrix type="matrix" values="0 0 0 0 0.536667 0 0 0 0 0.584274 0 0 0 0 0.670833 0 0 0 0.25 0"/>
<feBlend mode="normal" in2="BackgroundImageFix" result="effect1_dropShadow_12035_6911"/>
<feBlend mode="normal" in="SourceGraphic" in2="effect1_dropShadow_12035_6911" result="shape"/>
</filter>
<filter id="filter2_d_12035_6911" x="220.8" y="216.8" width="201.6" height="93.6" filterUnits="userSpaceOnUse" color-interpolation-filters="sRGB">
<feFlood flood-opacity="0" result="BackgroundImageFix"/>
<feColorMatrix in="SourceAlpha" type="matrix" values="0 0 0 0 0 0 0 0 0 0 0 0 0 0 0 0 0 0 127 0" result="hardAlpha"/>
<feOffset dx="5.6" dy="5.6"/>
<feGaussianBlur stdDeviation="8.4"/>
<feColorMatrix type="matrix" values="0 0 0 0 0.536667 0 0 0 0 0.584274 0 0 0 0 0.670833 0 0 0 0.25 0"/>
<feBlend mode="normal" in2="BackgroundImageFix" result="effect1_dropShadow_12035_6911"/>
<feBlend mode="normal" in="SourceGraphic" in2="effect1_dropShadow_12035_6911" result="shape"/>
</filter>
<filter id="filter3_d_12035_6911" x="404.8" y="158.8" width="81.6" height="81.6" filterUnits="userSpaceOnUse" color-interpolation-filters="sRGB">
<feFlood flood-opacity="0" result="BackgroundImageFix"/>
<feColorMatrix in="SourceAlpha" type="matrix" values="0 0 0 0 0 0 0 0 0 0 0 0 0 0 0 0 0 0 127 0" result="hardAlpha"/>
<feOffset dx="5.6" dy="5.6"/>
<feGaussianBlur stdDeviation="8.4"/>
<feColorMatrix type="matrix" values="0 0 0 0 0.536667 0 0 0 0 0.584274 0 0 0 0 0.670833 0 0 0 0.25 0"/>
<feBlend mode="normal" in2="BackgroundImageFix" result="effect1_dropShadow_12035_6911"/>
<feBlend mode="normal" in="SourceGraphic" in2="effect1_dropShadow_12035_6911" result="shape"/>
</filter>
<clipPath id="clip0_12035_6911">
<rect x="40" y="134" width="24" height="24" rx="12" fill="white"/>
</clipPath>
<clipPath id="clip1_12035_6911">
<rect x="40" y="190" width="24" height="24" rx="12" fill="white"/>
</clipPath>
<clipPath id="clip2_12035_6911">
<rect x="40" y="246" width="24" height="24" rx="12" fill="white"/>
</clipPath>
<clipPath id="clip3_12035_6911">
<rect x="160" y="72" width="24" height="24" rx="12" fill="white"/>
</clipPath>
<clipPath id="clip4_12035_6911">
<rect x="416" y="170" width="48" height="48" rx="24" fill="white"/>
</clipPath>
</defs>
</svg>
