<svg width="480" height="304" viewBox="0 0 480 304" fill="none" xmlns="http://www.w3.org/2000/svg">
<path d="M24 32C24 27.5817 27.5817 24 32 24H448C452.418 24 456 27.5817 456 32V272C456 276.418 452.418 280 448 280H32C27.5817 280 24 276.418 24 272V32Z" fill="#F5F5F5"/>
<path d="M24 32C24 27.5817 27.5817 24 32 24H448C452.418 24 456 27.5817 456 32V56H24V32Z" fill="#E0E0E0"/>
<path d="M140 40C140 35.5817 143.582 32 148 32H332C336.418 32 340 35.5817 340 40C340 44.4183 336.418 48 332 48H148C143.582 48 140 44.4183 140 40Z" fill="#A3A3A3"/>
<path d="M68 100C68 98.3431 69.3431 97 71 97H113C114.657 97 116 98.3431 116 100C116 101.657 114.657 103 113 103H71C69.3431 103 68 101.657 68 100Z" fill="#1E6BF1"/>
<path d="M68 110C68 108.343 69.3431 107 71 107H153C154.657 107 156 108.343 156 110C156 111.657 154.657 113 153 113H71C69.3431 113 68 111.657 68 110Z" fill="#1E6BF1"/>
<path d="M68 120C68 118.343 69.3431 117 71 117H129C130.657 117 132 118.343 132 120C132 121.657 130.657 123 129 123H71C69.3431 123 68 121.657 68 120Z" fill="#1E6BF1"/>
<path d="M68 142C68 140.343 69.3431 139 71 139H129C130.657 139 132 140.343 132 142C132 143.657 130.657 145 129 145H71C69.3431 145 68 143.657 68 142Z" fill="#666666"/>
<path d="M68 152C68 150.343 69.3431 149 71 149H153C154.657 149 156 150.343 156 152C156 153.657 154.657 155 153 155H71C69.3431 155 68 153.657 68 152Z" fill="#666666"/>
<path d="M68 162C68 160.343 69.3431 159 71 159H113C114.657 159 116 160.343 116 162C116 163.657 114.657 165 113 165H71C69.3431 165 68 163.657 68 162Z" fill="#666666"/>
<path d="M68 172C68 170.343 69.3431 169 71 169H89C90.6569 169 92 170.343 92 172C92 173.657 90.6569 175 89 175H71C69.3431 175 68 173.657 68 172Z" fill="#666666"/>
<path d="M68 194C68 192.343 69.3431 191 71 191H129C130.657 191 132 192.343 132 194C132 195.657 130.657 197 129 197H71C69.3431 197 68 195.657 68 194Z" fill="#666666"/>
<path d="M68 204C68 202.343 69.3431 201 71 201H153C154.657 201 156 202.343 156 204C156 205.657 154.657 207 153 207H71C69.3431 207 68 205.657 68 204Z" fill="#666666"/>
<path d="M68 214C68 212.343 69.3431 211 71 211H113C114.657 211 116 212.343 116 214C116 215.657 114.657 217 113 217H71C69.3431 217 68 215.657 68 214Z" fill="#666666"/>
<path d="M68 224C68 222.343 69.3431 221 71 221H89C90.6569 221 92 222.343 92 224C92 225.657 90.6569 227 89 227H71C69.3431 227 68 225.657 68 224Z" fill="#666666"/>
</svg>
