<svg width="480" height="304" viewBox="0 0 480 304" fill="none" xmlns="http://www.w3.org/2000/svg"><g filter="url(#screen-control-panel-off__a)"><path d="M24 40c0-8.837 7.163-16 16-16h400c8.837 0 16 7.163 16 16v16H24V40Z" fill="#1A2437"/><rect x="40" y="34" width="56" height="12" rx="6" fill="#8CA0B3"/><rect x="104" y="37" width="24" height="6" rx="3" fill="#B9CBD3"/><rect x="136" y="37" width="32" height="6" rx="3" fill="#B9CBD3"/><path d="M251.53 47.794V35.68a.2.2 0 0 1 .199-.206h2.381c.099 0 .174.077.198.154l.149.746c.62-.746 1.513-1.106 2.63-1.106 2.207 0 3.869 1.466 3.869 4.707 0 3.242-1.637 4.733-3.869 4.733-1.092 0-2.01-.36-2.63-1.131v4.193a.199.199 0 0 1-.198.205h-2.555c-.099.026-.174-.051-.174-.18Zm2.952-7.022c0 .077 0 .154.025.231.273.952.893 1.364 1.662 1.364 1.042 0 1.761-.695 1.761-2.367 0-1.672-.719-2.367-1.761-2.367-.819 0-1.439.412-1.662 1.364-.025.077-.025.128-.025.206v1.569ZM234.241 32h2.555c.124 0 .199.103.199.206v4.193c.62-.746 1.538-1.132 2.629-1.132 2.232 0 3.87 1.492 3.87 4.733 0 3.241-1.662 4.707-3.87 4.707-1.116 0-2.009-.36-2.629-1.106l-.149.746c-.025.103-.099.155-.199.155h-2.381c-.124 0-.198-.103-.198-.206v-12.09c-.025-.129.049-.206.173-.206Zm2.754 8.823c0 .077 0 .129.025.206.223.952.843 1.363 1.661 1.363 1.042 0 1.762-.694 1.762-2.366 0-1.672-.72-2.367-1.762-2.367-.769 0-1.389.412-1.661 1.364-.025.077-.025.154-.025.231v1.57ZM244.188 32h2.555c.124 0 .199.103.199.206V44.32a.2.2 0 0 1-.199.206h-2.555c-.124 0-.198-.103-.198-.206V32.206c0-.129.074-.206.198-.206Zm3.572 2.11v-1.904c0-.129.099-.206.198-.206h2.555c.124 0 .199.103.199.206v1.903a.2.2 0 0 1-.199.206h-2.555c-.124 0-.198-.103-.198-.206Zm.198 1.363h2.555c.124 0 .199.103.199.206v8.642a.2.2 0 0 1-.199.206h-2.555c-.124 0-.198-.103-.198-.206V35.68c0-.13.074-.206.198-.206Z" fill="#fff"/><path d="M225.535 32c-1.612 0-3.274.257-4.415 1.003-1.836 1.184-2.382 3.499-2.332 5.608.05 1.826.521 3.807 1.786 5.17 1.191 1.287 3.671 1.878 5.358 1.878.074 0 .149.052.149.154v1.853c0 .18.148.334.322.334h.025a.22.22 0 0 0 .173-.077c.844-.746 1.687-1.518 2.531-2.315.793-.746 1.686-1.544 2.282-2.444 1.289-1.904 1.488-4.63 1.066-6.868-.421-2.161-1.885-3.576-3.944-4.013a17.573 17.573 0 0 0-3.001-.283Z" fill="#80E3EB"/><path d="M24 56h432v208c0 8.837-7.163 16-16 16H40c-8.837 0-16-7.163-16-16V56Z" fill="#F3F6FA"/><path fill="#fff" d="M24 56h432v32H24z"/><rect x="40" y="68" width="88" height="8" rx="4" fill="#B9CBD3"/><rect x="168" y="104" width="88" height="6" rx="3" fill="#B9CBD3"/><rect x="168" y="118" width="128" height="50" rx="8" fill="#fff"/><rect x="180" y="130" width="24" height="24" rx="4" fill="#E8F2FF"/><rect x="212" y="130" width="72" height="6" rx="3" fill="#8CA0B3"/><rect x="212" y="140" width="32" height="6" rx="3" fill="#D2DFE6"/><rect x="212" y="150" width="40" height="6" rx="3" fill="#D2DFE6"/><rect x="168" y="192" width="48" height="6" rx="3" fill="#B9CBD3"/><rect x="168" y="206" width="128" height="50" rx="8" fill="#fff"/><rect x="180" y="218" width="24" height="24" rx="4" fill="#E8F2FF"/><rect x="212" y="218" width="56" height="6" rx="3" fill="#8CA0B3"/><rect x="212" y="228" width="72" height="6" rx="3" fill="#D2DFE6"/><rect x="212" y="238" width="40" height="6" rx="3" fill="#D2DFE6"/><rect x="304" y="206" width="128" height="50" rx="8" fill="#fff"/><rect x="316" y="218" width="24" height="24" rx="4" fill="#E8F2FF"/><rect x="348" y="218" width="64" height="6" rx="3" fill="#8CA0B3"/><rect x="348" y="228" width="56" height="6" rx="3" fill="#D2DFE6"/><rect x="348" y="238" width="72" height="6" rx="3" fill="#D2DFE6"/></g><defs><filter id="screen-control-panel-off__a" x="-4" y="0" width="488" height="312" filterUnits="userSpaceOnUse" color-interpolation-filters="sRGB"><feFlood flood-opacity="0" result="BackgroundImageFix"/><feColorMatrix in="SourceAlpha" values="0 0 0 0 0 0 0 0 0 0 0 0 0 0 0 0 0 0 127 0" result="hardAlpha"/><feOffset dy="4"/><feGaussianBlur stdDeviation="2"/><feComposite in2="hardAlpha" operator="out"/><feColorMatrix values="0 0 0 0 0 0 0 0 0 0 0 0 0 0 0 0 0 0 0.25 0"/><feBlend in2="BackgroundImageFix" result="effect1_dropShadow_12035_6917"/><feBlend in="SourceGraphic" in2="effect1_dropShadow_12035_6917" result="shape"/></filter></defs></svg>