<svg width="488" height="328" viewBox="0 0 488 328" fill="none" xmlns="http://www.w3.org/2000/svg">
<path d="M24 32C24 27.5817 27.5817 24 32 24H448C452.418 24 456 27.5817 456 32V272C456 276.418 452.418 280 448 280H32C27.5817 280 24 276.418 24 272V32Z" fill="#F5F5F5"/>
<path d="M24 32C24 27.5817 27.5817 24 32 24H448C452.418 24 456 27.5817 456 32V56H24V32Z" fill="#E0E0E0"/>
<path d="M140 40C140 35.5817 143.582 32 148 32H332C336.418 32 340 35.5817 340 40C340 44.4183 336.418 48 332 48H148C143.582 48 140 44.4183 140 40Z" fill="#A3A3A3"/>
<path d="M68 100C68 98.3431 69.3431 97 71 97H113C114.657 97 116 98.3431 116 100C116 101.657 114.657 103 113 103H71C69.3431 103 68 101.657 68 100Z" fill="#1E6BF1"/>
<path d="M68 110C68 108.343 69.3431 107 71 107H153C154.657 107 156 108.343 156 110C156 111.657 154.657 113 153 113H71C69.3431 113 68 111.657 68 110Z" fill="#1E6BF1"/>
<path d="M68 120C68 118.343 69.3431 117 71 117H129C130.657 117 132 118.343 132 120C132 121.657 130.657 123 129 123H71C69.3431 123 68 121.657 68 120Z" fill="#1E6BF1"/>
<path d="M68 142C68 140.343 69.3431 139 71 139H129C130.657 139 132 140.343 132 142C132 143.657 130.657 145 129 145H71C69.3431 145 68 143.657 68 142Z" fill="#666666"/>
<path d="M68 152C68 150.343 69.3431 149 71 149H153C154.657 149 156 150.343 156 152C156 153.657 154.657 155 153 155H71C69.3431 155 68 153.657 68 152Z" fill="#666666"/>
<path d="M68 162C68 160.343 69.3431 159 71 159H113C114.657 159 116 160.343 116 162C116 163.657 114.657 165 113 165H71C69.3431 165 68 163.657 68 162Z" fill="#666666"/>
<path d="M68 172C68 170.343 69.3431 169 71 169H89C90.6569 169 92 170.343 92 172C92 173.657 90.6569 175 89 175H71C69.3431 175 68 173.657 68 172Z" fill="#666666"/>
<path d="M68 194C68 192.343 69.3431 191 71 191H129C130.657 191 132 192.343 132 194C132 195.657 130.657 197 129 197H71C69.3431 197 68 195.657 68 194Z" fill="#666666"/>
<path d="M68 204C68 202.343 69.3431 201 71 201H153C154.657 201 156 202.343 156 204C156 205.657 154.657 207 153 207H71C69.3431 207 68 205.657 68 204Z" fill="#666666"/>
<path d="M68 214C68 212.343 69.3431 211 71 211H113C114.657 211 116 212.343 116 214C116 215.657 114.657 217 113 217H71C69.3431 217 68 215.657 68 214Z" fill="#666666"/>
<path d="M68 224C68 222.343 69.3431 221 71 221H89C90.6569 221 92 222.343 92 224C92 225.657 90.6569 227 89 227H71C69.3431 227 68 225.657 68 224Z" fill="#666666"/>
<g filter="url(#filter0_d_12035_6914)">
<path d="M248 100C248 95.5817 251.582 92 256 92H408C412.418 92 416 95.5817 416 100V132H248V100Z" fill="#0096FA"/>
<rect x="256" y="100" width="24" height="24" rx="12" fill="white"/>
<path d="M268.594 118.667C268.491 118.673 268.388 118.659 268.292 118.624C268.195 118.589 268.106 118.536 268.031 118.466C267.955 118.396 267.895 118.312 267.853 118.218C267.811 118.124 267.789 118.023 267.787 117.92V116.847C266.34 116.767 264.507 116.267 263.54 115.253C262.521 114.052 261.974 112.522 262 110.947C261.934 108.753 262.667 107.06 264.087 106.187C265.243 105.581 266.536 105.287 267.84 105.333C268.673 105.332 269.504 105.414 270.32 105.58C271.195 105.728 272.003 106.141 272.635 106.764C273.267 107.386 273.692 108.188 273.854 109.06C274.308 110.994 273.977 113.029 272.934 114.72C272.463 115.336 271.926 115.9 271.334 116.4L271.02 116.687C270.454 117.213 269.827 117.767 269.02 118.48C268.902 118.58 268.755 118.641 268.6 118.653L268.594 118.667ZM267.84 106.34C266.716 106.274 265.595 106.504 264.587 107.007C263.107 107.953 262.94 109.86 262.974 110.913C262.95 112.246 263.407 113.543 264.26 114.567C265.067 115.4 266.874 115.853 268.16 115.853C268.243 115.853 268.325 115.868 268.401 115.899C268.478 115.93 268.547 115.977 268.605 116.035C268.664 116.093 268.71 116.163 268.741 116.239C268.772 116.316 268.788 116.398 268.787 116.48V117.333C269.4 116.8 269.9 116.353 270.36 115.927L270.68 115.633C271.21 115.183 271.691 114.678 272.114 114.127C273.002 112.66 273.275 110.901 272.874 109.233C272.745 108.56 272.411 107.942 271.919 107.465C271.426 106.987 270.798 106.674 270.12 106.567C269.37 106.414 268.606 106.338 267.84 106.34Z" fill="#1E6BF1"/>
<path d="M288 112C288 109.791 289.791 108 292 108H364C366.209 108 368 109.791 368 112C368 114.209 366.209 116 364 116H292C289.791 116 288 114.209 288 112Z" fill="white"/>
<path d="M248 132H416V296C416 300.418 412.418 304 408 304H256C251.582 304 248 300.418 248 296V132Z" fill="white"/>
<path d="M256 148C256 143.582 259.582 140 264 140H344C348.418 140 352 143.582 352 148V164C352 168.418 348.418 172 344 172H256V148Z" fill="#E0E0E0"/>
<path d="M264 151C264 149.343 265.343 148 267 148H341C342.657 148 344 149.343 344 151C344 152.657 342.657 154 341 154H267C265.343 154 264 152.657 264 151Z" fill="#292929"/>
<path d="M264 161C264 159.343 265.343 158 267 158H294C295.657 158 297 159.343 297 161C297 162.657 295.657 164 294 164H267C265.343 164 264 162.657 264 161Z" fill="#292929"/>
<path d="M256 180H360C364.418 180 368 183.582 368 188V248C368 252.418 364.418 256 360 256H264C259.582 256 256 252.418 256 248V180Z" fill="#E0E0E0"/>
<path d="M272 199C272 197.343 273.343 196 275 196H349C350.657 196 352 197.343 352 199C352 200.657 350.657 202 349 202H275C273.343 202 272 200.657 272 199Z" fill="#292929"/>
<path d="M272 237C272 235.343 273.343 234 275 234H349C350.657 234 352 235.343 352 237C352 238.657 350.657 240 349 240H275C273.343 240 272 238.657 272 237Z" fill="#292929"/>
<path d="M256 280C256 275.582 259.582 272 264 272H400C404.418 272 408 275.582 408 280V288C408 292.418 404.418 296 400 296H264C259.582 296 256 292.418 256 288V280Z" fill="#F5F5F5"/>
<path fill-rule="evenodd" clip-rule="evenodd" d="M360 218H265V217H360V218Z" fill="#A3A3A3"/>
<rect x="424" y="264" width="40" height="40" rx="20" fill="#1E6BF1"/>
<path d="M444.999 283.914L450.619 278.294C450.76 278.148 450.837 277.952 450.833 277.75C450.829 277.547 450.745 277.354 450.599 277.214C450.453 277.073 450.258 276.996 450.055 277C449.853 277.004 449.66 277.088 449.519 277.234L443.899 282.854L438.279 277.234C438.137 277.101 437.949 277.029 437.755 277.033C437.561 277.036 437.375 277.115 437.238 277.252C437.1 277.39 437.022 277.575 437.018 277.769C437.015 277.964 437.087 278.152 437.219 278.294L442.839 283.914L437.219 289.534C437.079 289.674 437 289.865 437 290.064C437 290.263 437.079 290.453 437.219 290.594C437.36 290.734 437.551 290.813 437.749 290.813C437.948 290.813 438.139 290.734 438.279 290.594L443.899 285.014L449.519 290.634C449.66 290.774 449.851 290.853 450.049 290.853C450.248 290.853 450.439 290.774 450.579 290.634C450.72 290.493 450.799 290.303 450.799 290.104C450.799 289.905 450.72 289.714 450.579 289.574L444.999 283.914Z" fill="white"/>
</g>
<defs>
<filter id="filter0_d_12035_6914" x="240" y="84" width="248" height="244" filterUnits="userSpaceOnUse" color-interpolation-filters="sRGB">
<feFlood flood-opacity="0" result="BackgroundImageFix"/>
<feColorMatrix in="SourceAlpha" type="matrix" values="0 0 0 0 0 0 0 0 0 0 0 0 0 0 0 0 0 0 127 0" result="hardAlpha"/>
<feOffset dx="8" dy="8"/>
<feGaussianBlur stdDeviation="8"/>
<feComposite in2="hardAlpha" operator="out"/>
<feColorMatrix type="matrix" values="0 0 0 0 0.160784 0 0 0 0 0.160784 0 0 0 0 0.160784 0 0 0 0.1 0"/>
<feBlend mode="normal" in2="BackgroundImageFix" result="effect1_dropShadow_12035_6914"/>
<feBlend mode="normal" in="SourceGraphic" in2="effect1_dropShadow_12035_6914" result="shape"/>
</filter>
</defs>
</svg>
