<svg width="24" height="24" viewBox="0 0 24 24" fill="none" xmlns="http://www.w3.org/2000/svg">
<path d="M14.1498 18.2999C14.0513 18.3004 13.9536 18.2812 13.8626 18.2434C13.7716 18.2056 13.6891 18.15 13.6198 18.0799L8.21983 12.6799C8.07938 12.5393 8.00049 12.3487 8.00049 12.1499C8.00049 11.9512 8.07938 11.7605 8.21983 11.6199L13.6198 6.21991C13.6885 6.14622 13.7713 6.08712 13.8633 6.04613C13.9553 6.00514 14.0546 5.98309 14.1553 5.98132C14.256 5.97954 14.356 5.99807 14.4494 6.03579C14.5428 6.07351 14.6276 6.12965 14.6989 6.20087C14.7701 6.27209 14.8262 6.35692 14.864 6.45031C14.9017 6.5437 14.9202 6.64373 14.9184 6.74443C14.9166 6.84513 14.8946 6.94445 14.8536 7.03645C14.8126 7.12845 14.7535 7.21125 14.6798 7.27991L9.80983 12.1499L14.6798 16.9999C14.8203 17.1405 14.8992 17.3312 14.8992 17.5299C14.8992 17.7287 14.8203 17.9193 14.6798 18.0599C14.6127 18.1341 14.5309 18.1937 14.4398 18.235C14.3486 18.2763 14.2499 18.2984 14.1498 18.2999V18.2999Z" fill="black"/>
</svg>
