<svg width="171" height="63" viewBox="0 0 171 63" fill="none" xmlns="http://www.w3.org/2000/svg">
<path fill-rule="evenodd" clip-rule="evenodd" d="M9.84004 4.52872C14.44 1.62872 21.14 0.628723 27.64 0.628723C32.04 0.628723 36.24 1.12873 39.74 1.72873C48.04 3.42873 53.94 8.92873 55.64 17.3287C57.34 26.0287 56.54 36.6287 51.34 44.0287C49.1747 47.1866 46.0325 50.0188 43.0885 52.6723C42.7695 52.9598 42.4529 53.2452 42.14 53.5287C38.74 56.6287 35.34 59.6287 31.94 62.5287C31.74 62.7287 31.54 62.8287 31.24 62.8287H31.14C30.44 62.8287 29.84 62.2287 29.84 61.5287V54.3287C29.84 53.9287 29.54 53.7287 29.24 53.7287C22.44 53.7287 12.44 51.4287 7.64004 46.4287C2.54004 41.1287 0.640039 33.4287 0.440039 26.3287C0.240039 18.1287 2.44004 9.12873 9.84004 4.52872ZM62.84 0.628723H73.14C73.64 0.628723 73.94 1.02873 73.94 1.42873V17.7287C76.44 14.8287 80.14 13.3287 84.54 13.3287C93.54 13.3287 100.14 19.1287 100.14 31.7287C100.14 44.3287 93.44 50.0287 84.54 50.0287C80.04 50.0287 76.44 48.6287 73.94 45.7287L73.34 48.6287C73.24 49.0287 72.94 49.2287 72.54 49.2287H62.94C62.44 49.2287 62.14 48.8287 62.14 48.4287V1.42873C61.94 0.928726 62.34 0.628723 62.84 0.628723ZM73.84 34.9287C73.84 35.2287 73.84 35.4287 73.94 35.7287C74.84 39.4287 77.34 41.0287 80.64 41.0287C84.84 41.0287 87.74 38.3287 87.74 31.8287C87.74 25.3287 84.84 22.6287 80.64 22.6287C77.54 22.6287 75.04 24.2287 73.94 27.9287C73.84 28.2287 73.84 28.5287 73.84 28.8287V34.9287ZM132.44 62.0287V14.9287C132.44 14.4287 132.84 14.1287 133.24 14.1287H142.84C143.24 14.1287 143.54 14.4287 143.64 14.7287L144.24 17.6287C146.74 14.7287 150.34 13.3287 154.84 13.3287C163.74 13.3287 170.44 19.0287 170.44 31.6287C170.44 44.2287 163.84 50.0287 154.84 50.0287C150.44 50.0287 146.74 48.6287 144.24 45.6287V61.9287C144.24 62.4287 143.84 62.7287 143.44 62.7287H133.14C132.84 62.8287 132.44 62.5287 132.44 62.0287ZM144.34 34.7287C144.34 35.0287 144.34 35.3287 144.44 35.6287C145.54 39.3287 148.04 40.9287 151.14 40.9287C155.34 40.9287 158.24 38.2287 158.24 31.7287C158.24 25.2287 155.34 22.5287 151.14 22.5287C147.84 22.5287 145.34 24.1287 144.44 27.8287C144.34 28.1287 144.34 28.3287 144.34 28.6287V34.7287ZM113.14 0.628723H102.84C102.44 0.628723 102.04 0.928726 102.04 1.42873V48.5287C102.04 48.9287 102.34 49.3287 102.84 49.3287H113.14C113.54 49.3287 113.94 49.0287 113.94 48.5287V1.42873C113.94 1.02873 113.64 0.628723 113.14 0.628723ZM117.24 8.82873V1.42873C117.24 0.928726 117.64 0.628723 118.04 0.628723H128.34C128.84 0.628723 129.14 1.02873 129.14 1.42873V8.82873C129.14 9.32873 128.74 9.62872 128.34 9.62872H118.04C117.64 9.62872 117.24 9.22873 117.24 8.82873ZM118.04 14.1287H128.34C128.84 14.1287 129.14 14.5287 129.14 14.9287V48.5287C129.14 49.0287 128.74 49.3287 128.34 49.3287H118.04C117.54 49.3287 117.24 48.9287 117.24 48.5287V14.9287C117.24 14.4287 117.64 14.1287 118.04 14.1287Z" fill="white"/>
</svg>
