<svg width="212" height="44" viewBox="0 0 212 44" fill="none" xmlns="http://www.w3.org/2000/svg">
<path d="M134.883 32.223V34.1758H132.022C126.542 34.1758 124.386 31.8505 124.386 25.3375V15.2857H119.03V13.3329H124.425L124.882 6.85938H126.502V13.3329H134.138V15.2857H126.502V25.5802C126.502 29.8131 127.292 32.2174 131.858 32.2174H134.883V32.223Z" fill="white"/>
<path d="M156.426 22.8424V34.1697H154.27V22.9666C154.27 17.571 152.278 14.9579 148.129 14.9579C143.524 14.9579 141.487 17.9887 141.487 22.8424V34.1697H139.331V4.49414H141.487V16.9841C142.813 14.45 145.262 13.1237 148.417 13.1237C154.14 13.1293 156.426 16.6172 156.426 22.8424Z" fill="white"/>
<path d="M162.07 6.44672C162.07 5.40824 162.775 4.87207 163.814 4.87207C164.892 4.87207 165.558 5.41388 165.558 6.44672C165.558 7.44004 164.892 8.06651 163.814 8.06651C162.775 8.06651 162.07 7.44569 162.07 6.44672ZM162.736 34.1695V13.3379H164.892V34.1695H162.736Z" fill="white"/>
<path d="M188.63 22.8423V34.1696H186.474V22.9664C186.474 17.5709 184.521 14.9578 180.334 14.9578C175.559 14.9578 173.691 18.1973 173.691 23.3389V34.1696H171.535V17.8192L170.953 13.338H172.737L173.482 17.283C174.853 14.5457 177.342 13.1348 180.661 13.1348C186.389 13.1291 188.63 16.6171 188.63 22.8423Z" fill="white"/>
<path d="M201.622 23.2149L211.872 34.1697H209.213L199.918 24.1292H197.096V34.1697H194.94V4.49414H197.096V22.2555H199.918L208.841 13.3325H211.499L201.622 23.2149Z" fill="white"/>
<path d="M67.6252 23.5656C67.6252 30.1125 64.3743 34.5712 58.6232 34.5712C55.203 34.5712 52.6181 32.9458 51.2862 29.819L50.496 34.1987H45.7043V29.6949V5.3584H51.4555V17.0187C52.8721 14.1854 55.3328 12.6842 58.6232 12.6842C64.3743 12.6842 67.6252 17.1428 67.6252 23.5656ZM61.8289 23.5656C61.8289 19.7278 59.91 17.4815 56.6196 17.4815C53.3688 17.4815 51.4498 19.7334 51.4498 23.5656C51.4498 27.5276 53.3688 29.7795 56.6196 29.7795C59.91 29.7739 61.8289 27.522 61.8289 23.5656Z" fill="white"/>
<path d="M82.9766 34.193V13.0566H88.7277V34.193H82.9766Z" fill="white"/>
<path d="M114.537 23.6448C114.537 30.1071 111.286 34.5657 105.535 34.5657C102.245 34.5657 99.7842 33.0645 98.3676 30.2312V41.3892H92.6165V17.555V13.0512H97.4081L98.1983 17.4309C99.5754 14.3042 102.115 12.6787 105.535 12.6787C111.286 12.6844 114.537 17.143 114.537 23.6448ZM108.741 23.6448C108.741 19.7279 106.822 17.476 103.532 17.476C100.281 17.476 98.3619 19.7279 98.3619 23.6448C98.3619 27.5222 100.281 29.7741 103.532 29.7741C106.822 29.7741 108.741 27.5222 108.741 23.6448Z" fill="white"/>
<path d="M89.1736 9.99207C89.3824 9.52928 89.5122 9.02132 89.5122 8.47951C89.5122 6.459 87.8755 4.82227 85.855 4.82227C83.8345 4.82227 82.1978 6.459 82.1978 8.47951C82.1978 9.02132 82.3219 9.52928 82.5364 9.99207H89.1736Z" fill="white"/>
<path d="M75.3065 29.1926H80.4764V34.1931H77.4343C71.9315 34.1931 69.5554 31.7323 69.5554 25.191V5.3584H75.3065V25.3547V29.1926Z" fill="white"/>
<path d="M19.0877 0.876953C6.66544 0.876953 0 5.5501 0 17.7691C0 28.6788 5.61568 37.043 19.0877 37.043C19.4263 37.043 20.0753 37.043 20.0753 37.043C20.0753 38.629 20.081 40.6608 20.081 42.416C20.081 42.8506 20.4252 43.257 20.9501 43.257C21.3621 43.257 21.475 43.1046 21.8024 42.8167C24.1784 40.768 31.1825 34.4073 31.1825 34.4073C34.6761 31.0831 38.1753 27.1154 38.1753 17.7691C38.1753 5.5501 31.5099 0.876953 19.0877 0.876953Z" fill="#0096FA"/>
</svg>
