<svg width="203" height="43" viewBox="0 0 203 43" fill="none" xmlns="http://www.w3.org/2000/svg">
<path d="M134.878 31.6029V33.5557H132.016C126.536 33.5557 124.38 31.2304 124.38 24.7174V14.6656H119.024V12.7128H124.419L124.877 6.23926H126.496V12.7128H134.133V14.6656H126.496V24.9601C126.496 29.193 127.287 31.6029 131.853 31.6029H134.878Z" fill="black"/>
<path d="M138.659 5.82758C138.659 4.7891 139.365 4.25293 140.403 4.25293C141.481 4.25293 142.147 4.79474 142.147 5.82758C142.147 6.82655 141.481 7.44737 140.403 7.44737C139.365 7.44737 138.659 6.82655 138.659 5.82758ZM139.32 33.5504V12.7188H141.475V33.5504H139.32Z" fill="black"/>
<path d="M177.128 22.0992V33.5507H174.972V22.2234C174.972 16.4158 172.98 14.3389 169.537 14.3389C165.592 14.3389 163.684 17.0761 163.684 22.308V33.5563H161.528V22.229C161.528 16.4214 159.536 14.3445 156.093 14.3445C152.148 14.3445 150.241 17.0818 150.241 22.3137V33.562H148.124V17.2116L147.543 12.7303H149.287L150.032 16.3819C151.279 13.7237 153.52 12.5215 156.466 12.5215C159.908 12.5215 162.07 13.972 163.063 17.0874C164.226 13.9325 166.676 12.5215 169.87 12.5215C174.887 12.5102 177.128 15.541 177.128 22.0992Z" fill="black"/>
<path d="M202.198 23.6339H184.143C184.352 28.3635 187.298 31.9756 192.361 31.9756C196.306 31.9756 199.043 29.8986 199.912 27.325H202.068C200.697 31.3491 197.169 33.7985 192.355 33.7985C185.966 33.7985 181.937 29.4019 181.937 23.1316C181.937 16.8669 186.006 12.5098 192.146 12.5098C198.372 12.5098 202.023 16.4944 202.232 22.3019C202.238 22.8042 202.283 23.1316 202.198 23.6339ZM184.228 21.7657H199.957C199.794 17.324 196.842 14.3384 192.112 14.3384C187.422 14.3384 184.685 17.6175 184.228 21.7657Z" fill="black"/>
<path d="M67.6194 22.9455C67.6194 29.4924 64.3685 33.9511 58.6174 33.9511C55.1972 33.9511 52.6123 32.3256 51.2803 29.1989L50.4902 33.5786H45.6985V29.0748V4.73828H51.4496V16.3986C52.8662 13.5653 55.327 12.0641 58.6174 12.0641C64.3685 12.0641 67.6194 16.5227 67.6194 22.9455ZM61.8287 22.9455C61.8287 19.1076 59.9098 16.8614 56.6194 16.8614C53.3685 16.8614 51.4496 19.1133 51.4496 22.9455C51.4496 26.9075 53.3685 29.1594 56.6194 29.1594C59.9098 29.1538 61.8287 26.9019 61.8287 22.9455Z" fill="black"/>
<path d="M82.9766 33.5729V12.4365H88.7277V33.5729H82.9766Z" fill="black"/>
<path d="M114.532 23.0237C114.532 29.486 111.281 33.9446 105.53 33.9446C102.239 33.9446 99.7786 32.4434 98.362 29.6101V40.7681H92.6108V16.9339V12.4301H97.4025L98.1926 16.8098C99.5698 13.6831 102.11 12.0576 105.53 12.0576C111.281 12.0633 114.532 16.5219 114.532 23.0237ZM108.741 23.0237C108.741 19.1068 106.822 16.8549 103.532 16.8549C100.281 16.8549 98.362 19.1068 98.362 23.0237C98.362 26.9011 100.281 29.153 103.532 29.153C106.822 29.153 108.741 26.9011 108.741 23.0237Z" fill="black"/>
<path d="M89.1734 9.37196C89.3822 8.90916 89.512 8.40121 89.512 7.85939C89.512 5.83888 87.8753 4.20215 85.8548 4.20215C83.8342 4.20215 82.1975 5.83888 82.1975 7.85939C82.1975 8.40121 82.3217 8.90916 82.5361 9.37196H89.1734Z" fill="black"/>
<path d="M75.3065 28.5724H80.4764V33.5729H77.4343C71.9315 33.5729 69.5554 31.1122 69.5554 24.5709V4.73828H75.3065V24.7346V28.5724Z" fill="black"/>
<path d="M19.0876 0.256836C6.66543 0.256836 0 4.92998 0 17.149C0 28.0587 5.61567 36.4229 19.0876 36.4229C19.4263 36.4229 20.0753 36.4229 20.0753 36.4229C20.0753 38.0088 20.081 40.0406 20.081 41.7959C20.081 42.2305 20.4252 42.6368 20.9501 42.6368C21.3621 42.6368 21.475 42.4845 21.8024 42.1966C24.1784 40.1479 31.1825 33.7872 31.1825 33.7872C34.6704 30.4573 38.1753 26.4953 38.1753 17.149C38.1753 4.92998 31.5042 0.256836 19.0876 0.256836Z" fill="#0096FA"/>
</svg>
