<svg width="268" height="43" viewBox="0 0 268 43" fill="none" xmlns="http://www.w3.org/2000/svg">
<path d="M120.515 26.6887H122.632C122.632 30.4249 125.454 31.8754 128.942 31.8754C132.385 31.8754 134.749 30.6281 134.749 27.8062C134.749 24.4876 131.47 23.9909 128.191 23.1161C123.958 21.9535 121.633 20.8755 121.633 17.5569C121.633 14.1536 124.246 12.3701 128.648 12.3701C133.835 12.3701 136.076 14.7801 136.076 18.2623H133.999C133.999 15.4009 131.758 14.1536 128.603 14.1536C126.193 14.1536 123.828 14.8591 123.828 17.348C123.828 19.9217 125.984 20.4183 128.891 21.2085C132.876 22.2469 136.945 23.2403 136.945 27.6425C136.945 31.0853 134.411 33.6589 128.851 33.6589C123.422 33.6589 120.515 31.0063 120.515 26.6887Z" fill="white"/>
<path d="M141.849 24.1999V12.5791H143.966V24.2394C143.966 29.8833 146.455 31.8361 150.276 31.8361C154.097 31.8361 156.54 29.8833 156.54 24.2394V12.5791H158.696V24.1999C158.696 30.5098 155.79 33.6647 150.27 33.6647C144.711 33.659 141.849 30.5041 141.849 24.1999Z" fill="white"/>
<path d="M184.969 23.0363C184.969 29.2615 181.193 33.6581 175.255 33.6581C171.604 33.6581 168.742 32.123 167.123 29.2615V42.2538H165.006V17.0651L164.425 12.5838H166.169L167.038 16.9804C168.613 13.9948 171.519 12.375 175.255 12.375C181.193 12.3694 184.969 16.7264 184.969 23.0363ZM182.773 23.0363C182.773 17.4771 179.703 14.1528 174.973 14.1528C170.199 14.1528 167.128 17.4714 167.128 23.0363C167.128 28.5165 170.199 31.8352 174.973 31.8352C179.697 31.8352 182.773 28.5109 182.773 23.0363Z" fill="white"/>
<path d="M210.078 23.0363C210.078 29.2615 206.302 33.6581 200.365 33.6581C196.713 33.6581 193.852 32.123 192.232 29.2615V42.2538H190.116V17.0651L189.534 12.5838H191.278L192.148 16.9804C193.722 13.9948 196.629 12.375 200.365 12.375C206.302 12.3694 210.078 16.7264 210.078 23.0363ZM207.883 23.0363C207.883 17.4771 204.812 14.1528 200.083 14.1528C195.308 14.1528 192.238 17.4714 192.238 23.0363C192.238 28.5165 195.308 31.8352 200.083 31.8352C204.807 31.8352 207.883 28.5109 207.883 23.0363Z" fill="white"/>
<path d="M213.736 22.9524C213.736 16.7272 217.805 12.3701 224.194 12.3701C230.583 12.3701 234.652 16.7272 234.652 22.9524C234.652 29.2623 230.583 33.6589 224.194 33.6589C217.805 33.6589 213.736 29.2623 213.736 22.9524ZM232.451 22.9524C232.451 17.4722 229.211 14.1987 224.149 14.1987C219.126 14.1987 215.931 17.4778 215.931 22.9524C215.931 28.5117 219.126 31.8359 224.149 31.8359C229.217 31.8359 232.451 28.5117 232.451 22.9524Z" fill="white"/>
<path d="M239.799 33.4107V17.0604L239.511 14.5714L239.223 12.5791H240.967L241.712 15.9824C242.711 13.7022 244.658 12.5791 248.186 12.5791H249.557V14.7802H248.146C243.293 14.7802 241.921 16.5242 241.921 22.2076V33.4107H239.799Z" fill="white"/>
<path d="M267.149 31.4633V33.4161H264.288C258.808 33.4161 256.652 31.0908 256.652 24.5777V14.5259H251.296V12.5732H256.691L257.148 6.09961H258.768V12.5732H266.404V14.5259H258.768V24.8204C258.768 29.0533 259.558 31.4576 264.124 31.4576H267.149V31.4633Z" fill="white"/>
<path d="M67.6999 22.8058C67.6999 29.3528 64.4491 33.8114 58.6979 33.8114C55.2777 33.8114 52.6928 32.186 51.3609 29.0593L50.5707 33.4389H45.7791V28.9351V4.59863H51.5302V16.2589C52.9468 13.4257 55.4075 11.9244 58.6979 11.9244C64.4491 11.9244 67.6999 16.3831 67.6999 22.8058ZM61.9037 22.8058C61.9037 18.968 59.9847 16.7217 56.6943 16.7217C53.4435 16.7217 51.5245 18.9736 51.5245 22.8058C51.5245 26.7678 53.4435 29.0198 56.6943 29.0198C59.9847 29.0141 61.9037 26.7622 61.9037 22.8058Z" fill="white"/>
<path d="M83.0513 33.4333V12.2969H88.8024V33.4333H83.0513Z" fill="white"/>
<path d="M114.612 22.885C114.612 29.3473 111.361 33.806 105.61 33.806C102.32 33.806 99.8589 32.3047 98.4423 29.4715V40.6294H92.6912V16.7953V12.2914H97.4828L98.273 16.6711C99.6501 13.5444 102.19 11.9189 105.61 11.9189C111.361 11.9246 114.612 16.3833 114.612 22.885ZM108.816 22.885C108.816 18.9682 106.897 16.7163 103.606 16.7163C100.356 16.7163 98.4366 18.9682 98.4366 22.885C98.4366 26.7624 100.356 29.0143 103.606 29.0143C106.897 29.0143 108.816 26.7624 108.816 22.885Z" fill="white"/>
<path d="M89.2481 9.23231C89.4569 8.76951 89.5867 8.26156 89.5867 7.71975C89.5867 5.69923 87.95 4.0625 85.9295 4.0625C83.909 4.0625 82.2722 5.69923 82.2722 7.71975C82.2722 8.26156 82.3964 8.76951 82.6109 9.23231H89.2481Z" fill="white"/>
<path d="M75.3813 28.4328H80.5511V33.4333H77.509C72.0062 33.4333 69.6301 30.9725 69.6301 24.4313V4.59863H75.3813V24.5949V28.4328Z" fill="white"/>
<path d="M19.1624 0.117188C6.74014 0.117188 0.074707 4.79033 0.074707 17.0094C0.074707 27.919 5.69038 36.2833 19.1624 36.2833C19.501 36.2833 20.15 36.2833 20.15 36.2833C20.15 37.8692 20.1557 39.901 20.1557 41.6562C20.1557 42.0908 20.5 42.4972 21.0248 42.4972C21.4368 42.4972 21.5497 42.3448 21.8771 42.057C24.2531 40.0082 31.2572 33.6476 31.2572 33.6476C34.7508 30.3233 38.25 26.3557 38.25 17.0094C38.25 4.79033 31.5846 0.117188 19.1624 0.117188Z" fill="white"/>
</svg>
