<svg width="265" height="44" viewBox="0 0 265 44" fill="none" xmlns="http://www.w3.org/2000/svg">
<path d="M19.2346 0.338379C14.8346 0.338379 10.2346 1.03838 7.13456 2.93838C2.03456 6.13838 0.534563 12.1384 0.734563 17.8384C0.834563 22.7384 2.13456 27.9384 5.63456 31.4384C8.93456 34.8384 15.6346 36.4384 20.3346 36.4384C20.5346 36.4384 20.7346 36.5384 20.7346 36.8384V41.7384C20.7346 42.2384 21.1346 42.6384 21.6346 42.6384H21.7346C21.9346 42.6384 22.0346 42.5384 22.2346 42.4384C24.5346 40.4384 26.8346 38.4384 29.1346 36.3384C31.2346 34.3384 33.7346 32.2384 35.4346 29.9384C38.9346 24.9384 39.5346 17.7384 38.3346 11.8384C37.0346 6.03838 33.0346 2.33838 27.3346 1.13838C25.0346 0.638379 22.1346 0.338379 19.2346 0.338379Z" fill="white"/>
<path d="M90.3345 42.0385V10.0385C90.3345 9.73848 90.5345 9.43848 90.9345 9.43848H97.4345C97.7345 9.43848 97.9345 9.63848 97.9345 9.83848L98.3345 11.8385C100.034 9.93848 102.434 8.93848 105.534 8.93848C111.534 8.93848 116.134 12.7385 116.134 21.3385C116.134 29.9385 111.634 33.8385 105.534 33.8385C102.534 33.8385 100.034 32.8385 98.3345 30.8385V41.9385C98.3345 42.2385 98.1345 42.5385 97.7345 42.5385H90.7345C90.5345 42.5385 90.3345 42.3385 90.3345 42.0385ZM98.3345 23.4385C98.3345 23.6385 98.3345 23.8385 98.4345 24.0385C99.1345 26.5385 100.834 27.6385 102.934 27.6385C105.734 27.6385 107.734 25.8385 107.734 21.4385C107.734 17.0385 105.734 15.2385 102.934 15.2385C100.634 15.2385 99.0345 16.3385 98.3345 18.8385C98.3345 19.0385 98.2345 19.2385 98.2345 19.3385V23.4385H98.3345Z" fill="white"/>
<path d="M43.0346 0.338379H50.0346C50.3346 0.338379 50.6346 0.538379 50.6346 0.938379V12.0384C52.3346 10.0384 54.8346 9.03838 57.8346 9.03838C63.9346 9.03838 68.4346 12.9384 68.4346 21.5384C68.4346 30.1384 63.9346 33.9384 57.8346 33.9384C54.7346 33.9384 52.3346 32.9384 50.6346 31.0384L50.2346 33.0384C50.1346 33.3384 49.9346 33.4384 49.7346 33.4384H43.2346C42.9346 33.4384 42.6346 33.2384 42.6346 32.8384V0.838379C42.4346 0.538379 42.7346 0.338379 43.0346 0.338379ZM50.5346 23.6384C50.5346 23.8384 50.5346 24.0384 50.6346 24.1384C51.2346 26.6384 52.9346 27.7384 55.2346 27.7384C58.0346 27.7384 60.0346 25.9384 60.0346 21.5384C60.0346 17.1384 58.0346 15.3384 55.2346 15.3384C53.1346 15.3384 51.4346 16.4384 50.7346 18.9384C50.6346 19.1384 50.6346 19.3384 50.6346 19.5384V23.6384H50.5346Z" fill="white"/>
<path d="M70.2347 0.338379H77.2347C77.5347 0.338379 77.7347 0.538379 77.7347 0.938379V32.9384C77.7347 33.2384 77.5347 33.5384 77.1347 33.5384H70.1347C69.8347 33.5384 69.5347 33.3384 69.5347 32.9384V0.938379C69.6347 0.538379 69.9347 0.338379 70.2347 0.338379Z" fill="white"/>
<path d="M80.0346 5.93838V0.938379C80.0346 0.638379 80.2346 0.338379 80.6346 0.338379H87.6346C87.9346 0.338379 88.2346 0.538379 88.2346 0.938379V5.93838C88.2346 6.23838 88.0346 6.53838 87.6346 6.53838H80.6346C80.2346 6.43838 80.0346 6.23838 80.0346 5.93838ZM80.5346 9.43838H87.5346C87.8346 9.43838 88.1346 9.63838 88.1346 10.0384V32.8384C88.1346 33.1384 87.9346 33.4384 87.5346 33.4384H80.5346C80.2346 33.4384 79.9346 33.2384 79.9346 32.8384V10.0384C80.0346 9.73838 80.2346 9.43838 80.5346 9.43838Z" fill="white"/>
<path d="M118.635 26.7388H121.735C121.935 29.6388 123.635 31.1388 128.335 31.1388C132.835 31.1388 134.735 29.7388 134.735 27.1388C134.735 21.2388 119.235 26.0388 119.235 16.3388C119.235 11.6388 123.035 9.73877 128.235 9.73877C134.035 9.73877 136.835 12.2388 137.135 16.4388H134.235C133.935 13.6388 132.235 12.3388 128.235 12.3388C124.535 12.3388 122.235 13.5388 122.235 16.2388C122.235 23.2388 137.735 18.2388 137.735 27.0388C137.735 31.9388 134.335 33.7388 128.335 33.7388C121.635 33.7388 118.935 31.1388 118.635 26.7388Z" fill="white"/>
<path d="M140.535 24.3386V10.0386H143.535V24.3386C143.535 29.6386 146.235 31.2386 150.035 31.2386C155.635 31.2386 157.735 26.5386 157.935 20.5386V10.0386H160.835V33.3386H158.235L158.035 28.4386C156.535 31.7386 153.835 33.7386 149.135 33.7386C143.535 33.7386 140.435 30.9386 140.535 24.3386Z" fill="white"/>
<path d="M165.135 10.0387H167.735L168.035 14.1387C169.735 11.0387 172.735 9.63867 176.635 9.63867C182.835 9.63867 187.335 13.2387 187.335 21.7387C187.335 30.1387 182.835 33.8387 176.635 33.8387C172.835 33.8387 169.835 32.4387 168.135 29.3387V43.0387H165.135V10.0387ZM168.135 24.5387C168.935 29.2387 172.035 31.1387 176.035 31.1387C180.735 31.1387 184.235 28.4387 184.235 21.7387C184.235 14.9387 180.735 12.3387 176.035 12.3387C172.035 12.3387 168.935 14.2387 168.135 18.9387V24.5387Z" fill="white"/>
<path d="M189.834 10.0387H192.434L192.734 14.1387C194.434 11.0387 197.434 9.63867 201.334 9.63867C207.534 9.63867 212.034 13.2387 212.034 21.7387C212.034 30.1387 207.534 33.8387 201.334 33.8387C197.534 33.8387 194.534 32.4387 192.834 29.3387V43.0387H189.834V10.0387ZM192.834 24.5387C193.634 29.2387 196.734 31.1387 200.734 31.1387C205.434 31.1387 208.934 28.4387 208.934 21.7387C208.934 14.9387 205.434 12.3387 200.734 12.3387C196.734 12.3387 193.634 14.2387 192.834 18.9387V24.5387Z" fill="white"/>
<path d="M212.834 21.7388C212.834 13.3388 217.534 9.73877 224.134 9.73877C230.734 9.73877 235.434 13.3388 235.434 21.7388C235.434 30.1388 230.734 33.7388 224.134 33.7388C217.534 33.7388 212.834 30.1388 212.834 21.7388ZM224.034 31.1388C228.734 31.1388 232.234 28.5388 232.234 21.7388C232.234 14.9388 228.734 12.3388 224.034 12.3388C219.334 12.3388 215.834 15.0388 215.834 21.7388C215.934 28.5388 219.334 31.1388 224.034 31.1388Z" fill="white"/>
<path d="M240.534 10.0388L240.834 15.4388C242.734 11.6388 246.034 9.73877 250.334 9.73877V12.8388H249.734C244.534 12.8388 240.834 16.8388 240.834 21.5388V33.4388H237.834V10.0388H240.534Z" fill="white"/>
<path d="M250.334 12.4386V10.0386H254.534V3.03857H257.434V10.0386H264.134V12.4386H257.434V26.5386C257.434 30.1386 258.034 30.8386 261.034 30.8386H264.434V33.4386H260.334C256.434 33.4386 254.534 31.7386 254.534 26.8386V12.4386H250.334Z" fill="white"/>
</svg>
