<svg width="239" height="43" viewBox="0 0 239 43" fill="none" xmlns="http://www.w3.org/2000/svg">
<path d="M120.494 27.1633H122.611C122.611 30.8995 125.433 32.35 128.921 32.35C132.363 32.35 134.728 31.1027 134.728 28.2808C134.728 24.9622 131.449 24.4655 128.17 23.5907C123.937 22.4281 121.612 21.3501 121.612 18.0315C121.612 14.6282 124.225 12.8447 128.627 12.8447C133.814 12.8447 136.055 15.2547 136.055 18.737H133.978C133.978 15.8755 131.737 14.6282 128.582 14.6282C126.172 14.6282 123.807 15.3337 123.807 17.8226C123.807 20.3963 125.963 20.8929 128.87 21.6831C132.855 22.7215 136.924 23.7149 136.924 28.1171C136.924 31.5599 134.39 34.1335 128.83 34.1335C123.395 34.1391 120.494 31.4809 120.494 27.1633Z" fill="white"/>
<path d="M154.403 31.9383V33.8911H151.541C146.061 33.8911 143.905 31.5658 143.905 25.0528V15.0123H138.549V13.0595H143.945L144.402 6.58594H146.022V13.0595H153.658V15.0123H146.022V25.3067C146.022 29.5397 146.812 31.944 151.378 31.944H154.403V31.9383Z" fill="white"/>
<path d="M177.063 33.891H175.319L174.489 29.5339C172.915 32.48 170.048 34.1394 166.311 34.1394C160.335 34.1394 156.519 29.7428 156.519 23.4329C156.519 17.2077 160.335 12.8506 166.311 12.8506C170.003 12.8506 172.87 14.4252 174.444 17.3318L174.901 13.0594H176.476V29.4098L177.063 33.891ZM174.365 23.4329C174.365 17.9527 171.335 14.6792 166.565 14.6792C161.796 14.6792 158.72 17.9583 158.72 23.4329C158.72 28.9921 161.791 32.3164 166.565 32.3164C171.34 32.3164 174.365 28.9921 174.365 23.4329Z" fill="white"/>
<path d="M195.987 31.9383V33.8911H193.126C187.645 33.8911 185.489 31.5658 185.489 25.0528V15.0123H180.133V13.0595H185.529L185.986 6.58594H187.606V13.0595H195.242V15.0123H187.606V25.3067C187.606 29.5397 188.396 31.944 192.962 31.944H195.987V31.9383Z" fill="white"/>
<path d="M200.096 24.6745V13.0537H202.212V24.714C202.212 30.3579 204.701 32.3107 208.522 32.3107C212.338 32.3107 214.787 30.3579 214.787 24.714V13.0537H216.943V24.6745C216.943 30.9844 214.036 34.1393 208.517 34.1393C202.963 34.1393 200.096 30.9844 200.096 24.6745Z" fill="white"/>
<path d="M221.678 27.1633H223.794C223.794 30.8995 226.616 32.35 230.104 32.35C233.547 32.35 235.912 31.1027 235.912 28.2808C235.912 24.9622 232.633 24.4655 229.354 23.5907C225.121 22.4281 222.795 21.3501 222.795 18.0315C222.795 14.6282 225.409 12.8447 229.811 12.8447C234.998 12.8447 237.238 15.2547 237.238 18.737H235.161C235.161 15.8755 232.921 14.6282 229.766 14.6282C227.361 14.6282 224.991 15.3337 224.991 17.8226C224.991 20.3963 227.147 20.8929 230.053 21.6831C234.038 22.7215 238.107 23.7149 238.107 28.1171C238.107 31.5599 235.573 34.1335 230.014 34.1335C224.585 34.1391 221.678 31.4809 221.678 27.1633Z" fill="white"/>
<path d="M67.6789 23.2807C67.6789 29.8276 64.4281 34.2862 58.6769 34.2862C55.2567 34.2862 52.6718 32.6608 51.3399 29.5341L50.5497 33.9138H45.7581V29.4099V5.0791H51.5092V16.7394C52.9258 13.9061 55.3865 12.4049 58.6769 12.4049C64.4281 12.4049 67.6789 16.8579 67.6789 23.2807ZM61.8827 23.2807C61.8827 19.4428 59.9637 17.1965 56.6733 17.1965C53.4225 17.1965 51.5035 19.4485 51.5035 23.2807C51.5035 27.2427 53.4225 29.4946 56.6733 29.4946C59.9637 29.4889 61.8827 27.237 61.8827 23.2807Z" fill="white"/>
<path d="M83.0303 33.9137V12.7773H88.7814V33.9137C88.7814 33.9081 83.0303 33.9081 83.0303 33.9137Z" fill="white"/>
<path d="M114.591 23.3596C114.591 29.8219 111.34 34.2806 105.589 34.2806C102.299 34.2806 99.8379 32.7793 98.4213 29.9461V41.104H92.6702V17.2699V12.7661H97.4618L98.252 17.1457C99.6291 14.019 102.169 12.3936 105.589 12.3936C111.34 12.4048 114.591 16.8579 114.591 23.3596ZM108.795 23.3596C108.795 19.4428 106.876 17.1909 103.585 17.1909C100.335 17.1909 98.4156 19.4428 98.4156 23.3596C98.4156 27.237 100.335 29.4889 103.585 29.4889C106.876 29.4889 108.795 27.237 108.795 23.3596Z" fill="white"/>
<path d="M89.2271 9.70692C89.4359 9.24412 89.5657 8.73616 89.5657 8.19435C89.5657 6.17384 87.929 4.53711 85.9085 4.53711C83.888 4.53711 82.2512 6.17384 82.2512 8.19435C82.2512 8.73616 82.3754 9.24412 82.5899 9.70692H89.2271Z" fill="white"/>
<path d="M75.3603 28.9133H80.5301V33.9138H77.488C71.9852 33.9138 69.6091 31.453 69.6091 24.9117V5.0791H75.3603V25.0754V28.9133Z" fill="white"/>
<path d="M19.1414 0.597656C6.71915 0.597656 0.0537109 5.2708 0.0537109 17.4898C0.0537109 28.3995 5.66938 36.7637 19.1414 36.7637C19.48 36.7637 20.129 36.7637 20.129 36.7637C20.129 38.3497 20.1347 40.3815 20.1347 42.1367C20.1347 42.5713 20.479 42.9777 21.0038 42.9777C21.4158 42.9777 21.5287 42.8253 21.8561 42.5374C24.2321 40.4887 31.2362 34.128 31.2362 34.128C34.7298 30.8038 38.229 26.8361 38.229 17.4898C38.229 5.2708 31.5636 0.597656 19.1414 0.597656Z" fill="white"/>
</svg>
