<svg width="250" height="44" viewBox="0 0 250 44" fill="none" xmlns="http://www.w3.org/2000/svg">
<path d="M142.535 23.7352C142.535 30.045 138.799 34.4416 132.867 34.4416C129.091 34.4416 126.185 32.7823 124.61 29.7911L123.741 34.1877H121.997L122.578 29.7064V4.5177H124.695V17.5495C126.314 14.688 129.176 13.1529 132.873 13.1529C138.804 13.1529 142.535 17.5099 142.535 23.7352ZM140.339 23.7352C140.339 18.2549 137.269 14.9758 132.54 14.9758C127.765 14.9758 124.695 18.2549 124.695 23.7352C124.695 29.2944 127.765 32.6186 132.54 32.6186C137.269 32.6186 140.339 29.2944 140.339 23.7352Z" fill="white"/>
<path d="M147.355 24.9826V13.3618H149.471V25.0221C149.471 30.666 151.96 32.6188 155.781 32.6188C159.602 32.6188 162.046 30.666 162.046 25.0221V13.3618H164.202V24.9826C164.202 31.2925 161.295 34.4474 155.775 34.4474C150.216 34.4418 147.355 31.2868 147.355 24.9826Z" fill="white"/>
<path d="M169.846 6.47064C169.846 5.43217 170.551 4.896 171.59 4.896C172.668 4.896 173.334 5.43781 173.334 6.47064C173.334 7.46961 172.668 8.09044 171.59 8.09044C170.551 8.09044 169.846 7.46961 169.846 6.47064ZM170.512 34.1934V13.3618H172.668V34.1934H170.512Z" fill="white"/>
<path d="M186.535 34.1933C181.054 34.1933 178.983 31.9526 178.983 25.2308V4.52332H181.139V25.6033C181.139 29.7967 181.845 32.2856 186.411 32.2856H187.737V34.1933H186.535Z" fill="white"/>
<path d="M209.567 34.1934H207.823L206.954 29.8363C205.38 32.7824 202.513 34.4417 198.737 34.4417C192.799 34.4417 189.024 30.0452 189.024 23.7353C189.024 17.5101 192.799 13.153 198.737 13.153C202.428 13.153 205.25 14.6881 206.87 17.5101V4.51782H208.986V29.7065L209.567 34.1934ZM206.87 23.7353C206.87 18.2551 203.799 14.976 199.07 14.976C194.295 14.976 191.225 18.2551 191.225 23.7353C191.225 29.2945 194.295 32.6188 199.07 32.6188C203.799 32.6188 206.87 29.2945 206.87 23.7353Z" fill="white"/>
<path d="M234.344 24.2771H216.289C216.498 29.0067 219.444 32.6187 224.507 32.6187C228.452 32.6187 231.189 30.5418 232.058 27.9682H234.214C232.843 31.9923 229.315 34.4417 224.501 34.4417C218.112 34.4417 214.083 30.0451 214.083 23.7748C214.083 17.51 218.152 13.153 224.292 13.153C230.518 13.153 234.169 17.1375 234.378 22.9451C234.384 23.4474 234.429 23.7748 234.344 24.2771ZM216.374 22.4089H232.103C231.94 17.9672 228.988 14.9816 224.258 14.9816C219.568 14.9816 216.831 18.2607 216.374 22.4089Z" fill="white"/>
<path d="M239.367 34.1934V17.8431L239.079 15.3541L238.792 13.3618H240.535L241.28 16.7651C242.274 14.485 244.227 13.3618 247.754 13.3618H249.125V15.5629H247.714C242.861 15.5629 241.489 17.3069 241.489 22.9903V34.1934H239.367Z" fill="white"/>
<path d="M68.1821 23.5883C68.1821 30.1352 64.9312 34.5939 59.1801 34.5939C55.7599 34.5939 53.175 32.9685 51.843 29.8417L51.0529 34.2214H46.2612V29.7176V5.3811H52.0124V17.0414C53.429 14.2082 55.8897 12.7069 59.1801 12.7069C64.9312 12.7069 68.1821 17.1656 68.1821 23.5883ZM62.3858 23.5883C62.3858 19.7505 60.4669 17.5042 57.1765 17.5042C53.9256 17.5042 52.0067 19.7561 52.0067 23.5883C52.0067 27.5503 53.9256 29.8022 57.1765 29.8022C60.4669 29.7966 62.3858 27.5447 62.3858 23.5883Z" fill="white"/>
<path d="M83.5393 34.2159V13.0795H89.2904V34.2159H83.5393Z" fill="white"/>
<path d="M115.094 23.6675C115.094 30.1298 111.843 34.5884 106.092 34.5884C102.802 34.5884 100.341 33.0872 98.9245 30.2539V41.4119H93.1733V17.5777V13.0739H97.965L98.7551 17.4536C100.132 14.3269 102.672 12.7014 106.092 12.7014C111.843 12.7071 115.094 17.1657 115.094 23.6675ZM109.298 23.6675C109.298 19.7506 107.379 17.4987 104.089 17.4987C100.838 17.4987 98.9188 19.7506 98.9188 23.6675C98.9188 27.5449 100.838 29.7968 104.089 29.7968C107.385 29.7968 109.298 27.5449 109.298 23.6675Z" fill="white"/>
<path d="M89.7361 10.0149C89.9449 9.5521 90.0747 9.04415 90.0747 8.50234C90.0747 6.48182 88.438 4.84509 86.4175 4.84509C84.397 4.84509 82.7603 6.48182 82.7603 8.50234C82.7603 9.04415 82.8844 9.5521 83.0989 10.0149H89.7361Z" fill="white"/>
<path d="M75.8637 29.2153H81.0335V34.2158H77.9914C72.4886 34.2158 70.1125 31.755 70.1125 25.2137V5.3811H75.8637V25.3774V29.2153Z" fill="white"/>
<path d="M19.6504 0.899902C7.22818 0.899902 0.562744 5.57305 0.562744 17.7921C0.562744 28.7017 6.17841 37.066 19.6504 37.066C19.989 37.066 20.6381 37.066 20.6381 37.066C20.6381 38.6519 20.6437 40.6837 20.6437 42.439C20.6437 42.8735 20.988 43.2799 21.5129 43.2799C21.9249 43.2799 22.0378 43.1275 22.3651 42.8397C24.7412 40.7909 31.7453 34.4303 31.7453 34.4303C35.2388 31.106 38.738 27.1384 38.738 17.7921C38.7324 5.57305 32.067 0.899902 19.6504 0.899902Z" fill="white"/>
</svg>
