<svg width="369" height="76" viewBox="0 0 369 76" fill="none" xmlns="http://www.w3.org/2000/svg">
<path d="M250.48 59.06H247.39L245.85 51.34C243.06 56.56 237.98 59.5 231.29 59.5C220.77 59.5 214.08 51.71 214.08 40.53C214.08 29.5 220.77 21.78 231.29 21.78C237.83 21.78 242.83 24.5 245.7 29.5V6.48001H249.45V51.11L250.48 59.06ZM245.7 40.53C245.7 30.82 240.26 25.01 231.88 25.01C223.42 25.01 217.98 30.82 217.98 40.53C217.98 50.38 223.42 56.27 231.88 56.27C240.25 56.27 245.7 50.38 245.7 40.53Z" fill="white"/>
<path d="M294.38 41.49H262.39C262.76 49.87 267.98 56.27 276.95 56.27C283.94 56.27 288.79 52.59 290.33 48.03H294.15C291.72 55.16 285.47 59.5 276.94 59.5C265.62 59.5 258.48 51.71 258.48 40.6C258.48 29.49 265.69 21.78 276.57 21.78C287.6 21.78 294.07 28.84 294.44 39.13C294.45 40.02 294.52 40.6 294.38 41.49ZM262.54 38.18H290.41C290.12 30.31 284.89 25.02 276.51 25.02C268.2 25.02 263.35 30.83 262.54 38.18Z" fill="white"/>
<path d="M300.48 47.15H304.23C304.23 53.77 309.23 56.34 315.41 56.34C321.51 56.34 325.7 54.13 325.7 49.13C325.7 43.25 319.89 42.36 314.08 40.82C306.58 38.76 302.46 36.85 302.46 30.97C302.46 24.94 307.09 21.78 314.89 21.78C324.08 21.78 328.05 26.04 328.05 32.22H324.37C324.37 27.15 320.4 24.94 314.81 24.94C310.54 24.94 306.35 26.19 306.35 30.6C306.35 35.16 310.17 36.04 315.32 37.44C322.38 39.28 329.59 41.04 329.59 48.84C329.59 54.94 325.1 59.5 315.25 59.5C305.63 59.5 300.48 54.8 300.48 47.15Z" fill="white"/>
<path d="M350.71 39.65L368.87 59.06H364.16L347.69 41.27H342.69V59.06H338.87V6.48001H342.69V37.95H347.69L363.5 22.14H368.21L350.71 39.65Z" fill="white"/>
<path d="M120.35 40.27C120.35 51.87 114.59 59.77 104.4 59.77C98.34 59.77 93.76 56.89 91.4 51.35L90 59.11H81.51V51.13V8.01001H91.7V28.67C94.21 23.65 98.57 20.99 104.4 20.99C114.59 20.99 120.35 28.89 120.35 40.27ZM110.08 40.27C110.08 33.47 106.68 29.49 100.85 29.49C95.09 29.49 91.69 33.48 91.69 40.27C91.69 47.29 95.09 51.28 100.85 51.28C106.68 51.27 110.08 47.28 110.08 40.27Z" fill="white"/>
<path d="M147.56 59.1V21.65H157.75V59.1H147.56Z" fill="white"/>
<path d="M203.47 40.41C203.47 51.86 197.71 59.76 187.52 59.76C181.69 59.76 177.33 57.1 174.82 52.08V71.85H164.63V29.62V21.64H173.12L174.52 29.4C176.96 23.86 181.46 20.98 187.52 20.98C197.71 20.99 203.47 28.89 203.47 40.41ZM193.2 40.41C193.2 33.47 189.8 29.48 183.97 29.48C178.21 29.48 174.81 33.47 174.81 40.41C174.81 47.28 178.21 51.27 183.97 51.27C189.81 51.27 193.2 47.28 193.2 40.41Z" fill="white"/>
<path d="M158.54 16.22C158.91 15.4 159.14 14.5 159.14 13.54C159.14 9.96 156.24 7.06 152.66 7.06C149.08 7.06 146.18 9.96 146.18 13.54C146.18 14.5 146.4 15.4 146.78 16.22H158.54Z" fill="white"/>
<path d="M133.96 50.24H143.12V59.1H137.73C127.98 59.1 123.77 54.74 123.77 43.15V8.01001H133.96V43.44V50.24Z" fill="white"/>
<path d="M34.36 0.0700073C12.35 0.0700073 0.539978 8.35001 0.539978 30C0.539978 49.33 10.49 64.15 34.36 64.15C34.96 64.15 36.11 64.15 36.11 64.15C36.11 66.96 36.12 70.56 36.12 73.67C36.12 74.44 36.73 75.16 37.66 75.16C38.39 75.16 38.59 74.89 39.17 74.38C43.38 70.75 55.79 59.48 55.79 59.48C61.98 53.59 68.18 46.56 68.18 30C68.17 8.35001 56.36 0.0700073 34.36 0.0700073Z" fill="#0096FA"/>
</svg>