<svg width="331" height="43" viewBox="0 0 331 43" fill="none" xmlns="http://www.w3.org/2000/svg">
<path d="M121.219 23.115C121.219 16.8898 125.288 12.5327 131.637 12.5327C136.824 12.5327 140.521 15.5635 141.638 20.1689H139.398C138.444 16.4778 135.582 14.3613 131.637 14.3613C126.614 14.3613 123.42 17.6404 123.42 23.1207C123.42 28.6799 126.614 32.0041 131.637 32.0041C135.661 32.0041 138.529 29.8877 139.482 26.1514H141.723C140.645 30.7568 136.909 33.8271 131.637 33.8271C125.282 33.8215 121.219 29.4249 121.219 23.115Z" fill="black"/>
<path d="M144.833 23.115C144.833 16.8898 148.902 12.5327 155.291 12.5327C161.68 12.5327 165.749 16.8898 165.749 23.115C165.749 29.4249 161.68 33.8215 155.291 33.8215C148.902 33.8215 144.833 29.4249 144.833 23.115ZM163.548 23.115C163.548 17.6348 160.309 14.3557 155.246 14.3557C150.223 14.3557 147.028 17.6348 147.028 23.115C147.028 28.6742 150.223 31.9985 155.246 31.9985C160.314 31.9985 163.548 28.6742 163.548 23.115Z" fill="black"/>
<path d="M199.906 22.1217V33.5731H197.75V22.2458C197.75 16.4383 195.758 14.3613 192.315 14.3613C188.37 14.3613 186.462 17.0986 186.462 22.3305V33.5788H184.306V22.2515C184.306 16.4439 182.314 14.367 178.871 14.367C174.926 14.367 173.019 17.1042 173.019 22.3361V33.5844H170.902V17.2341L170.321 12.7528H172.065L172.81 16.4044C174.057 13.7461 176.298 12.544 179.244 12.544C182.687 12.544 184.848 13.9945 185.842 17.1099C187.004 13.9549 189.454 12.544 192.648 12.544C197.665 12.5327 199.906 15.5635 199.906 22.1217Z" fill="black"/>
<path d="M235.226 22.1217V33.5731H233.07V22.2458C233.07 16.4383 231.077 14.3613 227.635 14.3613C223.69 14.3613 221.782 17.0986 221.782 22.3305V33.5788H219.626V22.2515C219.626 16.4439 217.634 14.367 214.191 14.367C210.246 14.367 208.338 17.1042 208.338 22.3361V33.5844H206.222V17.2341L205.64 12.7528H207.384L208.129 16.4044C209.377 13.7461 211.617 12.544 214.563 12.544C218.006 12.544 220.168 13.9945 221.161 17.1099C222.324 13.9549 224.773 12.544 227.968 12.544C232.985 12.5327 235.226 15.5635 235.226 22.1217Z" fill="black"/>
<path d="M241.208 24.362V12.7412H243.325V24.4015C243.325 30.0454 245.814 31.9982 249.635 31.9982C253.455 31.9982 255.899 30.0454 255.899 24.4015V12.7412H258.055V24.362C258.055 30.6719 255.149 33.8268 249.629 33.8268C244.07 33.8212 241.208 30.6662 241.208 24.362Z" fill="black"/>
<path d="M281.466 22.2458V33.5731H279.31V22.37C279.31 16.9744 277.357 14.3613 273.17 14.3613C268.395 14.3613 266.527 17.6009 266.527 22.7425V33.5731H264.371V17.2228L263.79 12.7415H265.573L266.318 16.6866C267.689 13.9493 270.178 12.5383 273.497 12.5383C279.22 12.5327 281.466 16.0206 281.466 22.2458Z" fill="black"/>
<path d="M287.11 5.85028C287.11 4.81181 287.815 4.27563 288.854 4.27563C289.932 4.27563 290.598 4.81745 290.598 5.85028C290.598 6.84925 289.932 7.47008 288.854 7.47008C287.815 7.47008 287.11 6.84925 287.11 5.85028ZM287.776 33.5731V12.7415H289.932V33.5731H287.776Z" fill="black"/>
<path d="M309.437 31.6259V33.5787H306.575C301.095 33.5787 298.939 31.2534 298.939 24.7403V14.6885H293.583V12.7358H298.979L299.436 6.26221H301.056V12.7358H308.692V14.6885H301.056V24.983C301.056 29.2159 301.846 31.6259 306.412 31.6259H309.437Z" fill="black"/>
<path d="M328.282 12.7412H330.399V30.7509C330.399 38.3024 326.871 41.875 319.98 41.875H317.367V40.0464H320.065C325.669 40.0464 328.282 37.1398 328.282 31.2927V29.3004C326.956 31.7104 324.591 32.9915 321.391 32.9915C315.787 32.9915 313.546 29.5883 313.546 23.4026V12.7356H315.702V23.2784C315.702 28.7135 317.655 31.1629 321.718 31.1629C326.369 31.1629 328.276 28.0531 328.276 23.1937V12.7412H328.282Z" fill="black"/>
<path d="M68.3186 22.9682C68.3186 29.5151 65.0677 33.9738 59.3166 33.9738C55.8964 33.9738 53.3115 32.3483 51.9795 29.2216L51.1894 33.6013H46.3977V29.0975V4.76099H52.1488V16.4213C53.5654 13.588 56.0262 12.0868 59.3166 12.0868C65.0677 12.0868 68.3186 16.5454 68.3186 22.9682ZM62.5223 22.9682C62.5223 19.1303 60.6034 16.8841 57.313 16.8841C54.0621 16.8841 52.1432 19.136 52.1432 22.9682C52.1432 26.9302 54.0621 29.1821 57.313 29.1821C60.6034 29.1765 62.5223 26.9246 62.5223 22.9682Z" fill="black"/>
<path d="M83.6758 33.5956V12.4592H89.4269V33.5956H83.6758Z" fill="black"/>
<path d="M115.231 23.0471C115.231 29.5094 111.98 33.9681 106.229 33.9681C102.938 33.9681 100.478 32.4668 99.0609 29.6336V40.7915H93.3098V16.9574V12.4536H98.1015L98.8916 16.8332C100.269 13.7065 102.808 12.0811 106.229 12.0811C111.98 12.0867 115.231 16.5454 115.231 23.0471ZM109.434 23.0471C109.434 19.1303 107.515 16.8784 104.225 16.8784C100.974 16.8784 99.0553 19.1303 99.0553 23.0471C99.0553 26.9245 100.974 29.1764 104.225 29.1764C107.521 29.1764 109.434 26.9245 109.434 23.0471Z" fill="black"/>
<path d="M89.8726 9.39466C90.0814 8.93186 90.2112 8.42391 90.2112 7.8821C90.2112 5.86158 88.5745 4.22485 86.554 4.22485C84.5335 4.22485 82.8967 5.86158 82.8967 7.8821C82.8967 8.42391 83.0209 8.93186 83.2354 9.39466H89.8726Z" fill="black"/>
<path d="M76.0002 28.5952H81.17V33.5956H78.1279C72.6251 33.5956 70.249 31.1349 70.249 24.5936V4.76099H76.0002V24.7573V28.5952Z" fill="black"/>
<path d="M19.7869 0.279785C7.36465 0.279785 0.699219 4.95293 0.699219 17.172C0.699219 28.0816 6.31489 36.4459 19.7869 36.4459C20.1255 36.4459 20.7745 36.4459 20.7745 36.4459C20.7745 38.0318 20.7802 40.0636 20.7802 41.8188C20.7802 42.2534 21.1245 42.6598 21.6494 42.6598C22.0614 42.6598 22.1742 42.5074 22.5016 42.2196C24.8777 40.1708 31.8817 33.8102 31.8817 33.8102C35.3753 30.4859 38.8745 26.5182 38.8745 17.172C38.8689 4.95293 32.2034 0.279785 19.7869 0.279785Z" fill="black"/>
</svg>
