<svg width="231" height="43" viewBox="0 0 231 43" fill="none" xmlns="http://www.w3.org/2000/svg">
<path d="M142.023 22.9977C142.023 29.223 138.247 33.6196 132.31 33.6196C128.658 33.6196 125.797 32.0844 124.177 29.223V42.2152H122.061V17.0265L121.479 12.5453H123.223L124.092 16.9419C125.667 13.9562 128.574 12.3364 132.31 12.3364C138.247 12.3308 142.023 16.6879 142.023 22.9977ZM139.828 22.9977C139.828 17.4385 136.757 14.1143 132.028 14.1143C127.253 14.1143 124.183 17.4329 124.183 22.9977C124.183 28.478 127.253 31.7966 132.028 31.7966C136.757 31.7966 139.828 28.4723 139.828 22.9977Z" fill="black"/>
<path d="M166.224 33.371H164.48L163.65 29.0139C162.076 31.96 159.209 33.6193 155.472 33.6193C149.495 33.6193 145.68 29.2227 145.68 22.9129C145.68 16.6877 149.501 12.3306 155.472 12.3306C159.163 12.3306 162.031 13.9052 163.605 16.8118L164.062 12.5394H165.637V28.8897L166.224 33.371ZM163.526 22.9129C163.526 17.4326 160.495 14.1592 155.726 14.1592C150.952 14.1592 147.881 17.4383 147.881 22.9129C147.881 28.4721 150.952 31.7964 155.726 31.7964C160.495 31.7964 163.526 28.4721 163.526 22.9129Z" fill="black"/>
<path d="M170.79 22.9129C170.79 16.6877 174.859 12.3306 181.208 12.3306C186.395 12.3306 190.092 15.3613 191.209 19.9668H188.969C188.015 16.2756 185.153 14.1592 181.208 14.1592C176.185 14.1592 172.991 17.4383 172.991 22.9129C172.991 28.4721 176.185 31.7964 181.208 31.7964C185.233 31.7964 188.1 29.6799 189.053 25.9436H191.294C190.216 30.5491 186.48 33.6193 181.208 33.6193C174.859 33.6193 170.79 29.2227 170.79 22.9129Z" fill="black"/>
<path d="M202.582 22.4161L212.831 33.3709H210.173L200.878 23.3304H198.056V33.3709H195.9V3.69531H198.056V21.4566H200.878L209.801 12.5336H212.459L202.582 22.4161Z" fill="black"/>
<path d="M213.661 26.6491H215.777C215.777 30.3854 218.599 31.8359 222.087 31.8359C225.53 31.8359 227.895 30.5886 227.895 27.7666C227.895 24.448 224.616 23.9513 221.337 23.0765C217.104 21.9139 214.778 20.8359 214.778 17.5173C214.778 14.114 217.392 12.3306 221.794 12.3306C226.98 12.3306 229.221 14.7405 229.221 18.2228H227.144C227.144 15.3613 224.904 14.114 221.749 14.114C219.344 14.114 216.974 14.8195 216.974 17.3085C216.974 19.8821 219.13 20.3788 222.036 21.1689C226.021 22.2074 230.09 23.2007 230.09 27.6029C230.09 31.0457 227.556 33.6193 221.997 33.6193C216.568 33.6193 213.661 30.9667 213.661 26.6491Z" fill="black"/>
<path d="M67.6704 22.7663C67.6704 29.3132 64.4195 33.7719 58.6684 33.7719C55.2482 33.7719 52.6633 32.1464 51.3313 29.0197L50.5412 33.3994H45.7495V28.8956V4.55908H51.5006V16.2194C52.9173 13.3861 55.378 11.8849 58.6684 11.8849C64.4195 11.8849 67.6704 16.3435 67.6704 22.7663ZM61.8741 22.7663C61.8741 18.9284 59.9552 16.6822 56.6648 16.6822C53.4139 16.6822 51.495 18.9341 51.495 22.7663C51.495 26.7283 53.4139 28.9802 56.6648 28.9802C59.9552 28.9746 61.8741 26.7227 61.8741 22.7663Z" fill="black"/>
<path d="M83.0217 33.3937V12.2573H88.7729V33.3937H83.0217Z" fill="black"/>
<path d="M114.583 22.845C114.583 29.3073 111.332 33.7659 105.58 33.7659C102.29 33.7659 99.8294 32.2647 98.4127 29.4314V40.5894H92.6616V16.7552V12.2514H97.4533L98.2434 16.6311C99.6205 13.5043 102.16 11.8789 105.58 11.8789C111.332 11.8846 114.583 16.3432 114.583 22.845ZM108.786 22.845C108.786 18.9281 106.867 16.6762 103.577 16.6762C100.326 16.6762 98.4071 18.9281 98.4071 22.845C98.4071 26.7224 100.326 28.9743 103.577 28.9743C106.867 28.9743 108.786 26.7224 108.786 22.845Z" fill="black"/>
<path d="M89.2188 9.19276C89.4276 8.72996 89.5574 8.22201 89.5574 7.68019C89.5574 5.65968 87.9207 4.02295 85.9002 4.02295C83.8796 4.02295 82.2429 5.65968 82.2429 7.68019C82.2429 8.22201 82.3671 8.72996 82.5815 9.19276H89.2188Z" fill="black"/>
<path d="M75.3517 28.3932H80.5215V33.3937H77.4795C71.9767 33.3937 69.6006 30.933 69.6006 24.3917V4.55908H75.3517V24.5554V28.3932Z" fill="black"/>
<path d="M19.1328 0.0776367C6.71061 0.0776367 0.045166 4.75078 0.045166 16.9698C0.045166 27.8795 5.66084 36.2437 19.1328 36.2437C19.4715 36.2437 20.1205 36.2437 20.1205 36.2437C20.1205 37.8296 20.1261 39.8614 20.1261 41.6167C20.1261 42.0513 20.4704 42.4576 20.9953 42.4576C21.4073 42.4576 21.5202 42.3053 21.8475 42.0174C24.2236 39.9687 31.2277 33.608 31.2277 33.608C34.7212 30.2838 38.2205 26.3161 38.2205 16.9698C38.2205 4.75078 31.555 0.0776367 19.1328 0.0776367Z" fill="black"/>
</svg>
