<svg width="249" height="43" viewBox="0 0 249 43" fill="none" xmlns="http://www.w3.org/2000/svg">
<path d="M65.4208 23.0049C65.4208 29.5504 62.1693 34.0117 56.4155 34.0117C52.9963 34.0117 50.4112 32.3859 49.0783 29.2596L48.2867 33.6381H43.4922V29.1365V4.79688H49.246V16.4594C50.6638 13.6239 53.1236 12.1234 56.4176 12.1234C62.1693 12.1234 65.4208 16.5847 65.4208 23.0049ZM59.6266 23.0049C59.6266 19.1697 57.708 16.9179 54.4162 16.9179C51.1647 16.9179 49.246 19.1697 49.246 23.0049C49.246 26.9653 51.1647 29.2172 54.4162 29.2172C57.708 29.215 59.6266 26.9653 59.6266 23.0049Z" fill="white"/>
<path d="M81.1626 33.636V12.499H86.9164V33.636H81.1626Z" fill="white"/>
<path d="M112.722 23.0872C112.722 29.5499 109.471 34.009 103.717 34.009C100.423 34.009 97.9633 32.5085 96.5456 29.673V40.8347H90.7917V17.0001V12.4985H95.5862L96.3779 16.877C97.7532 13.7508 100.296 12.125 103.715 12.125C109.471 12.1229 112.722 16.5842 112.722 23.0872ZM106.928 23.0872C106.928 19.1692 105.01 16.9174 101.718 16.9174C98.4663 16.9174 96.5477 19.1692 96.5477 23.0872C96.5477 26.9648 98.4663 29.2145 101.718 29.2145C105.01 29.2145 106.928 26.9648 106.928 23.0872Z" fill="white"/>
<path d="M87.36 9.43221C87.5722 8.96953 87.6974 8.46016 87.6974 7.91682C87.6974 5.8963 86.0589 4.25781 84.0384 4.25781C82.0179 4.25781 80.3794 5.8963 80.3794 7.91682C80.3794 8.45803 80.5046 8.96953 80.7169 9.43221H87.36Z" fill="white"/>
<path d="M73.4921 28.6335H78.6623V33.636H75.6187C70.1154 33.636 67.7383 31.1761 67.7383 24.6307V4.79688H73.4921V24.7983V28.6335Z" fill="white"/>
<path d="M19.0888 0.316406C6.66857 0.316406 0 4.98992 0 17.2064C0 28.1177 5.61798 36.482 19.0888 36.482C19.4284 36.482 20.0757 36.482 20.0757 36.482C20.0757 38.0653 20.08 40.1007 20.08 41.8538C20.08 42.2889 20.4259 42.6985 20.948 42.6985C21.3577 42.6985 21.4723 42.5436 21.8034 42.2592C24.1805 40.209 31.1844 33.8481 31.1844 33.8481C34.6757 30.5223 38.1777 26.5577 38.1777 17.2086C38.1777 4.98992 31.5091 0.316406 19.0888 0.316406Z" fill="#0095F9"/>
<path d="M123.925 33.1621C122.517 32.396 121.412 31.3029 120.605 29.883V40.8346H118.474V17.6453L117.888 13.1352H119.644L120.52 17.5201C121.299 16.0174 122.399 14.8671 123.821 14.0754C125.24 13.2817 126.896 12.8848 128.791 12.8848C130.74 12.8848 132.452 13.3368 133.927 14.2431C135.402 15.1472 136.544 16.4079 137.353 18.0231C138.159 19.6382 138.565 21.5038 138.565 23.6198C138.565 25.7083 138.162 27.559 137.353 29.1742C136.544 30.7893 135.405 32.05 133.927 32.9541C132.45 33.8583 130.74 34.3125 128.791 34.3125C126.953 34.3104 125.332 33.9283 123.925 33.1621ZM122.736 30.091C124.156 31.6786 126.077 32.4724 128.5 32.4724C130.894 32.4724 132.802 31.6786 134.222 30.091C135.642 28.5035 136.353 26.3471 136.353 23.6177C136.353 20.8331 135.642 18.6471 134.222 17.0595C132.802 15.472 130.894 14.6782 128.5 14.6782C126.079 14.6782 124.156 15.472 122.736 17.0595C121.316 18.6471 120.605 20.8331 120.605 23.6177C120.605 26.3471 121.316 28.5056 122.736 30.091Z" fill="white"/>
<path d="M145.225 32.9522C143.735 32.048 142.587 30.781 141.78 29.151C140.972 27.5231 140.568 25.649 140.568 23.533C140.568 21.4446 140.972 19.6002 141.78 17.9999C142.587 16.3996 143.735 15.1453 145.225 14.2411C146.715 13.337 148.434 12.8828 150.382 12.8828C152.248 12.8828 153.884 13.2648 155.289 14.031C156.694 14.7972 157.802 15.9178 158.609 17.3929L159.067 13.1333H160.655V29.5479L161.241 34.058H159.487L158.651 29.6731C157.843 31.1757 156.737 32.3261 155.332 33.1177C153.925 33.9115 152.275 34.3084 150.382 34.3084C148.434 34.3105 146.715 33.8585 145.225 32.9522ZM144.913 30.0912C146.333 31.6787 148.254 32.4725 150.677 32.4725C153.101 32.4725 155.013 31.6787 156.421 30.0912C157.826 28.5036 158.53 26.3176 158.53 23.533C158.53 20.8057 157.828 18.6536 156.421 17.0809C155.013 15.5082 153.101 14.7208 150.677 14.7208C148.254 14.7208 146.333 15.5103 144.913 17.083C143.493 18.6557 142.782 20.8078 142.782 23.5351C142.782 26.3197 143.493 28.5058 144.913 30.0912Z" fill="white"/>
<path d="M165.67 17.6454L165.377 15.0985L165.084 13.1353H166.837L167.589 16.5184C168.09 15.2937 168.862 14.396 169.906 13.8251C170.951 13.2541 172.349 12.9697 174.104 12.9697H175.482V15.1834H174.062C172.392 15.1834 171.11 15.4062 170.22 15.8519C169.329 16.2976 168.703 17.049 168.34 18.108C167.977 19.1671 167.797 20.6698 167.797 22.6181V34.0621H165.666V17.6454H165.67Z" fill="white"/>
<path d="M184.167 33.207C183.052 32.6361 182.237 31.7044 181.724 30.4097C181.208 29.1151 180.951 27.3683 180.951 25.1674V15.2219L177.802 15.1836V12.9721L180.994 13.0103L181.452 6.62402H183.08V13.1398H190.765V15.0605H183.08V25.4178C183.08 26.9778 183.22 28.23 183.498 29.1766C183.776 30.1232 184.305 30.8469 185.086 31.3478C185.864 31.8487 186.991 32.0991 188.469 32.0991H191.476V34.0624H188.636C186.771 34.0624 185.281 33.778 184.167 33.207Z" fill="white"/>
<path d="M194.32 17.6453L193.734 13.1352H195.53L196.281 17.0616C196.977 15.6969 197.937 14.6591 199.163 13.9502C200.388 13.2392 201.836 12.8848 203.508 12.8848C206.32 12.8848 208.36 13.7061 209.627 15.3489C210.894 16.9916 211.526 19.4281 211.526 22.6584V34.0599H209.355V22.7836C209.355 20.0542 208.854 18.0295 207.853 16.7072C206.851 15.3849 205.291 14.7228 203.175 14.7228C198.72 14.7228 196.493 17.5349 196.493 23.1593V34.0599H194.322V17.6453H194.32Z" fill="white"/>
<path d="M219.63 32.9522C218.042 32.048 216.824 30.781 215.975 29.151C215.126 27.5231 214.701 25.6639 214.701 23.5754C214.701 21.487 215.126 19.6363 215.975 18.0211C216.824 16.406 218.027 15.1474 219.587 14.2411C221.147 13.337 222.943 12.8828 224.974 12.8828C228.064 12.8828 230.507 13.7806 232.305 15.5761C234.1 17.3717 235.04 19.7594 235.123 22.7392V23.4078C235.123 23.6858 235.108 23.9087 235.081 24.0763H216.913C217.023 26.5277 217.811 28.5376 219.273 30.1124C220.735 31.6851 222.705 32.4725 225.182 32.4725C227.103 32.4725 228.739 32.0332 230.089 31.1566C231.439 30.2801 232.336 29.1595 232.782 27.7948H234.953C234.257 29.828 233.054 31.4219 231.341 32.5765C229.628 33.7332 227.576 34.3105 225.18 34.3105C223.068 34.3105 221.215 33.8585 219.63 32.9522ZM232.827 22.198C232.744 19.9419 231.997 18.1336 230.592 16.7689C229.185 15.4042 227.3 14.7229 224.934 14.7229C222.65 14.7229 220.82 15.4191 219.441 16.8114C218.063 18.2037 217.248 19.9992 216.998 22.198H232.827Z" fill="white"/>
<path d="M238.464 17.6454L238.171 15.0985L237.878 13.1353H239.633L240.385 16.5184C240.886 15.2937 241.658 14.396 242.702 13.8251C243.747 13.2541 245.145 12.9697 246.9 12.9697H248.278V15.1834H246.858C245.188 15.1834 243.906 15.4062 243.016 15.8519C242.125 16.2976 241.499 17.049 241.136 18.108C240.773 19.1671 240.593 20.6698 240.593 22.6181V34.0621H238.462V17.6454H238.464Z" fill="white"/>
</svg>
