<svg width="214" height="43" viewBox="0 0 214 43" fill="none" xmlns="http://www.w3.org/2000/svg">
<path d="M139.111 22.2783V33.6056H136.955V22.4025C136.955 17.0069 135.002 14.3938 130.814 14.3938C126.039 14.3938 124.171 17.6334 124.171 22.775V33.6056H122.015V17.2552L121.434 12.774H123.218L123.963 16.7191C125.334 13.9818 127.823 12.5708 131.142 12.5708C136.87 12.5652 139.111 16.0531 139.111 22.2783Z" fill="black"/>
<path d="M164.181 23.6895H146.126C146.335 28.4191 149.281 32.0312 154.343 32.0312C158.289 32.0312 161.026 29.9543 161.895 27.3807H164.051C162.68 31.4047 159.152 33.8542 154.338 33.8542C147.949 33.8542 143.919 29.4576 143.919 23.1872C143.919 16.9225 147.988 12.5654 154.129 12.5654C160.354 12.5654 164.006 16.55 164.215 22.3576C164.22 22.8599 164.265 23.1929 164.181 23.6895ZM146.211 21.8214H161.94C161.776 17.3797 158.83 14.394 154.095 14.394C149.405 14.394 146.668 17.6732 146.211 21.8214Z" fill="black"/>
<path d="M192.779 12.7738H194.895L188.088 32.8209C187.84 33.5264 187.507 33.8594 186.802 33.8594C186.057 33.8594 185.679 33.5716 185.43 32.8209L180.368 15.5563L175.345 32.8209C175.096 33.5659 174.763 33.8594 174.018 33.8594C173.273 33.8594 172.98 33.5264 172.771 32.8209L166.049 12.7738H168.166L174.142 31.0318L179.165 13.5583C179.329 12.977 179.786 12.6045 180.492 12.6045C181.197 12.6045 181.53 13.0221 181.694 13.5583L186.757 31.0713L192.779 12.7738Z" fill="black"/>
<path d="M196.808 26.884H198.925C198.925 30.6202 201.747 32.0707 205.234 32.0707C208.677 32.0707 211.042 30.8234 211.042 28.0015C211.042 24.6829 207.763 24.1862 204.484 23.3114C200.251 22.1488 197.926 21.0708 197.926 17.7522C197.926 14.3489 200.539 12.5654 204.941 12.5654C210.128 12.5654 212.368 14.9754 212.368 18.4577H210.291C210.291 15.5962 208.051 14.3489 204.896 14.3489C202.492 14.3489 200.121 15.0544 200.121 17.5433C200.121 20.117 202.277 20.6136 205.184 21.4038C209.168 22.4422 213.237 23.4356 213.237 27.8378C213.237 31.2806 210.703 33.8542 205.144 33.8542C199.709 33.8598 196.808 31.2016 196.808 26.884Z" fill="black"/>
<path d="M67.6252 23.0009C67.6252 29.5478 64.3743 34.0065 58.6232 34.0065C55.203 34.0065 52.6181 32.381 51.2862 29.2543L50.496 33.634H45.7043V29.1301V4.79932H51.4555V16.4596C52.8721 13.6264 55.3328 12.1251 58.6232 12.1251C64.3743 12.1251 67.6252 16.5781 67.6252 23.0009ZM61.829 23.0009C61.829 19.163 59.91 16.9168 56.6196 16.9168C53.3688 16.9168 51.4498 19.1687 51.4498 23.0009C51.4498 26.9629 53.3688 29.2148 56.6196 29.2148C59.91 29.2092 61.829 26.9572 61.829 23.0009Z" fill="black"/>
<path d="M82.9766 33.6339V12.4976H88.7277V33.6339C88.7277 33.6283 82.9766 33.6283 82.9766 33.6339Z" fill="black"/>
<path d="M114.537 23.0799C114.537 29.5421 111.286 34.0008 105.535 34.0008C102.245 34.0008 99.7842 32.4995 98.3676 29.6663V40.8243H92.6165V16.9901V12.4863H97.4081L98.1983 16.8659C99.5754 13.7392 102.115 12.1138 105.535 12.1138C111.286 12.1251 114.537 16.5781 114.537 23.0799ZM108.741 23.0799C108.741 19.163 106.822 16.9111 103.532 16.9111C100.281 16.9111 98.3619 19.163 98.3619 23.0799C98.3619 26.9572 100.281 29.2091 103.532 29.2091C106.822 29.2091 108.741 26.9572 108.741 23.0799Z" fill="black"/>
<path d="M89.1734 9.42713C89.3822 8.96433 89.512 8.45638 89.512 7.91457C89.512 5.89405 87.8753 4.25732 85.8547 4.25732C83.8342 4.25732 82.1975 5.89405 82.1975 7.91457C82.1975 8.45638 82.3217 8.96433 82.5361 9.42713H89.1734Z" fill="black"/>
<path d="M75.3065 28.6335H80.4764V33.634H77.4343C71.9315 33.634 69.5554 31.1732 69.5554 24.632V4.79932H75.3065V24.7956V28.6335Z" fill="black"/>
<path d="M19.0877 0.317871C6.66544 0.317871 0 4.99102 0 17.21C0 28.1197 5.61568 36.4839 19.0877 36.4839C19.4263 36.4839 20.0753 36.4839 20.0753 36.4839C20.0753 38.0699 20.081 40.1017 20.081 41.8569C20.081 42.2915 20.4253 42.6979 20.9501 42.6979C21.3621 42.6979 21.475 42.5455 21.8024 42.2577C24.1784 40.2089 31.1825 33.8482 31.1825 33.8482C34.6761 30.524 38.1753 26.5563 38.1753 17.21C38.1753 4.99102 31.5099 0.317871 19.0877 0.317871Z" fill="#0096FA"/>
</svg>
