<svg width="297" height="43" viewBox="0 0 297 43" fill="none" xmlns="http://www.w3.org/2000/svg">
<path d="M141.064 33.6733H139.32L138.49 29.3162C136.915 32.2623 134.048 33.9216 130.312 33.9216C124.335 33.9216 120.52 29.525 120.52 23.2152C120.52 16.99 124.341 12.6329 130.312 12.6329C134.003 12.6329 136.87 14.2075 138.445 17.1141L138.902 12.8417H140.477V29.1921L141.064 33.6733ZM138.366 23.2152C138.366 17.735 135.335 14.4558 130.566 14.4558C125.797 14.4558 122.721 17.735 122.721 23.2152C122.721 28.7744 125.791 32.0987 130.566 32.0987C135.341 32.0987 138.366 28.7744 138.366 23.2152Z" fill="white"/>
<path d="M145.635 23.2152C145.635 16.99 149.704 12.6329 156.054 12.6329C161.24 12.6329 164.937 15.6636 166.055 20.2691H163.814C162.86 16.578 159.999 14.4615 156.054 14.4615C151.031 14.4615 147.836 17.7406 147.836 23.2208C147.836 28.78 151.031 32.1043 156.054 32.1043C160.078 32.1043 162.945 29.9878 163.899 26.2516H166.134C165.056 30.857 161.319 33.9273 156.048 33.9273C149.699 33.9216 145.635 29.525 145.635 23.2152Z" fill="white"/>
<path d="M189.793 33.6733H188.049L187.219 29.3162C185.645 32.2623 182.778 33.9216 179.041 33.9216C173.065 33.9216 169.249 29.525 169.249 23.2152C169.249 16.99 173.07 12.6329 179.041 12.6329C182.733 12.6329 185.6 14.2075 187.174 17.1141L187.631 12.8417H189.206V29.1921L189.793 33.6733ZM187.095 23.2152C187.095 17.735 184.064 14.4558 179.295 14.4558C174.526 14.4558 171.45 17.735 171.45 23.2152C171.45 28.7744 174.521 32.0987 179.295 32.0987C184.07 32.0987 187.095 28.7744 187.095 23.2152Z" fill="white"/>
<path d="M214.903 33.6733H213.159L212.29 29.3162C210.715 32.2623 207.848 33.9216 204.072 33.9216C198.135 33.9216 194.359 29.525 194.359 23.2151C194.359 16.9899 198.135 12.6328 204.072 12.6328C207.763 12.6328 210.585 14.168 212.205 16.9899V3.99768H214.321V29.1864L214.903 33.6733ZM212.205 23.2151C212.205 17.7349 209.135 14.4558 204.405 14.4558C199.63 14.4558 196.56 17.7349 196.56 23.2151C196.56 28.7744 199.63 32.0986 204.405 32.0986C209.135 32.0986 212.205 28.7744 212.205 23.2151Z" fill="white"/>
<path d="M239.679 23.757H221.624C221.833 28.4866 224.779 32.0987 229.842 32.0987C233.787 32.0987 236.524 30.0217 237.394 27.4481H239.549C238.178 31.4722 234.651 33.9216 229.836 33.9216C223.447 33.9216 219.418 29.5251 219.418 23.2547C219.418 16.9843 223.487 12.6329 229.628 12.6329C235.853 12.6329 239.504 16.6175 239.713 22.425C239.719 22.9273 239.764 23.2547 239.679 23.757ZM221.709 21.8889H237.439C237.275 17.4471 234.323 14.4615 229.594 14.4615C224.904 14.4615 222.166 17.7406 221.709 21.8889Z" fill="white"/>
<path d="M273.712 22.2218V33.6732H271.556V22.3459C271.556 16.5384 269.564 14.4614 266.121 14.4614C262.176 14.4614 260.268 17.1987 260.268 22.4306V33.6789H258.112V22.3516C258.112 16.544 256.12 14.467 252.677 14.467C248.732 14.467 246.824 17.2043 246.824 22.4362V33.6845H244.708V17.3341L244.127 12.8529H245.871L246.616 16.5045C247.863 13.8462 250.104 12.6441 253.05 12.6441C256.492 12.6441 258.654 14.0946 259.647 17.21C260.81 14.055 263.26 12.6441 266.454 12.6441C271.471 12.6328 273.712 15.6636 273.712 22.2218Z" fill="white"/>
<path d="M294.425 12.8416H296.541V30.8513C296.541 38.4028 293.014 41.9754 286.123 41.9754H283.51V40.1468H286.207C291.812 40.1468 294.425 37.2402 294.425 31.3931V29.4008C293.099 31.8108 290.734 33.0919 287.534 33.0919C281.929 33.0919 279.689 29.6887 279.689 23.503V12.836H281.845V23.3788C281.845 28.8139 283.797 31.2633 287.861 31.2633C292.512 31.2633 294.419 28.1535 294.419 23.2941V12.8416H294.425Z" fill="white"/>
<path d="M82.9766 33.696V12.5596H88.7277V33.696H82.9766Z" fill="white"/>
<path d="M114.537 23.1474C114.537 29.6097 111.286 34.0684 105.535 34.0684C102.245 34.0684 99.7842 32.5671 98.3676 29.7338V40.8918H92.6165V17.0577V12.5538H97.4081L98.1983 16.9335C99.5754 13.8068 102.115 12.1813 105.535 12.1813C111.286 12.187 114.537 16.6457 114.537 23.1474ZM108.741 23.1474C108.741 19.2306 106.822 16.9786 103.532 16.9786C100.281 16.9786 98.3619 19.2306 98.3619 23.1474C98.3619 27.0248 100.281 29.2767 103.532 29.2767C106.822 29.2767 108.741 27.0248 108.741 23.1474Z" fill="white"/>
<path d="M89.1734 9.49488C89.3822 9.03208 89.512 8.52413 89.512 7.98232C89.512 5.9618 87.8753 4.32507 85.8548 4.32507C83.8342 4.32507 82.1975 5.9618 82.1975 7.98232C82.1975 8.52413 82.3217 9.03208 82.5361 9.49488H89.1734Z" fill="white"/>
<path d="M75.3065 28.6954H80.4763V33.6959H77.4343C71.9315 33.6959 69.5554 31.2351 69.5554 24.6938V4.86121H75.3065V24.8575V28.6954Z" fill="white"/>
<path d="M67.6252 23.0684C67.6252 29.6153 64.3743 34.074 58.6232 34.074C55.203 34.074 52.6181 32.4486 51.2862 29.3218L50.496 33.7015H45.7043V29.1977V4.86121H51.4555V16.5215C52.8721 13.6883 55.3328 12.187 58.6232 12.187C64.3743 12.187 67.6252 16.6457 67.6252 23.0684ZM61.829 23.0684C61.829 19.2306 59.91 16.9843 56.6196 16.9843C53.3688 16.9843 51.4498 19.2362 51.4498 23.0684C51.4498 27.0304 53.3688 29.2823 56.6196 29.2823C59.91 29.2767 61.829 27.0248 61.829 23.0684Z" fill="white"/>
<path d="M19.0876 0.380005C6.66544 0.380005 0 5.05315 0 17.2722C0 28.1818 5.61567 36.5461 19.0876 36.5461C19.4263 36.5461 20.0753 36.5461 20.0753 36.5461C20.0753 38.132 20.081 40.1638 20.081 41.9191C20.081 42.3536 20.4253 42.76 20.9501 42.76C21.3621 42.76 21.475 42.6076 21.8024 42.3198C24.1784 40.2711 31.1825 33.9104 31.1825 33.9104C34.6761 30.5861 38.1753 26.6185 38.1753 17.2722C38.1753 5.05315 31.5099 0.380005 19.0876 0.380005Z" fill="#0096FA"/>
</svg>
