<svg width="201" height="43" viewBox="0 0 201 43" fill="none" xmlns="http://www.w3.org/2000/svg">
<path d="M19.3347 0.338135C14.9347 0.338135 10.3347 1.03813 7.23466 2.93813C2.13466 6.13813 0.634661 12.2381 0.834661 17.8381C0.934661 22.7381 2.23466 27.9381 5.73466 31.4381C9.03466 34.8381 15.7347 36.4381 20.4347 36.4381C20.6347 36.4381 20.8347 36.5381 20.8347 36.8381V41.7381C20.8347 42.2381 21.2347 42.6381 21.7347 42.6381H21.8347C22.0347 42.6381 22.1347 42.5381 22.3347 42.4381C24.6347 40.4381 26.9347 38.4381 29.2347 36.3381C31.3347 34.3381 33.8347 32.2381 35.5347 29.9381C39.0347 24.9381 39.6347 17.7381 38.4347 11.8381C37.1347 6.03813 33.1347 2.33813 27.4347 1.13813C25.1347 0.638135 22.2347 0.338135 19.3347 0.338135Z" fill="white"/>
<path d="M90.4346 42.0382V10.0382C90.4346 9.73823 90.6346 9.43823 91.0346 9.43823H97.5346C97.8346 9.43823 98.0346 9.63823 98.0346 9.83823L98.4346 11.8382C100.135 9.93823 102.535 8.93823 105.635 8.93823C111.635 8.93823 116.235 12.7382 116.235 21.3382C116.235 29.9382 111.735 33.8382 105.635 33.8382C102.635 33.8382 100.135 32.8382 98.4346 30.8382V41.9382C98.4346 42.2382 98.2346 42.5382 97.8346 42.5382H90.8346C90.6346 42.5382 90.4346 42.3382 90.4346 42.0382ZM98.4346 23.4382C98.4346 23.6382 98.4346 23.8382 98.5346 24.0382C99.2346 26.5382 100.935 27.6382 103.035 27.6382C105.835 27.6382 107.835 25.8382 107.835 21.4382C107.835 17.0382 105.835 15.2382 103.035 15.2382C100.735 15.2382 99.1346 16.3382 98.4346 18.8382C98.4346 19.0382 98.3346 19.2382 98.3346 19.3382V23.4382H98.4346Z" fill="white"/>
<path d="M43.1347 0.338135H50.1347C50.4347 0.338135 50.7347 0.538135 50.7347 0.938135V12.0381C52.4347 10.0381 54.9347 9.03813 57.9347 9.03813C64.0347 9.03813 68.5347 12.9381 68.5347 21.5381C68.5347 30.1381 64.0347 33.9381 57.9347 33.9381C54.8347 33.9381 52.4347 32.9381 50.7347 31.0381L50.3347 33.0381C50.2347 33.3381 50.0347 33.4381 49.8347 33.4381H43.3347C43.0347 33.4381 42.7347 33.2381 42.7347 32.8381V0.838135C42.5347 0.638135 42.8347 0.338135 43.1347 0.338135ZM50.6347 23.6381C50.6347 23.8381 50.6347 24.0381 50.7347 24.1381C51.3347 26.6381 53.0347 27.7381 55.3347 27.7381C58.1347 27.7381 60.1347 25.9381 60.1347 21.5381C60.1347 17.1381 58.1347 15.3381 55.3347 15.3381C53.2347 15.3381 51.5347 16.4381 50.8347 18.9381C50.7347 19.1381 50.7347 19.3381 50.7347 19.5381V23.6381H50.6347Z" fill="white"/>
<path d="M70.3348 0.338135H77.3348C77.6348 0.338135 77.8348 0.638135 77.8348 0.938135V32.9381C77.8348 33.2381 77.6348 33.5381 77.2348 33.5381H70.2348C69.9348 33.5381 69.6348 33.3381 69.6348 32.9381V0.938135C69.7348 0.638135 70.0348 0.338135 70.3348 0.338135Z" fill="white"/>
<path d="M80.1347 5.93813V0.938135C80.1347 0.638135 80.3347 0.338135 80.7347 0.338135H87.7347C88.0347 0.338135 88.3347 0.538135 88.3347 0.938135V5.93813C88.3347 6.23813 88.1347 6.53813 87.7347 6.53813H80.7347C80.3347 6.43813 80.1347 6.23813 80.1347 5.93813ZM80.6347 9.53813H87.6347C87.9347 9.53813 88.2347 9.73814 88.2347 10.1381V32.9381C88.2347 33.2381 88.0347 33.5381 87.6347 33.5381H80.6347C80.3347 33.5381 80.0347 33.3381 80.0347 32.9381V10.0381C80.1347 9.73813 80.3347 9.53813 80.6347 9.53813Z" fill="white"/>
<path d="M118.535 21.738C118.535 13.338 123.335 9.73804 129.835 9.73804C135.135 9.73804 138.935 12.038 140.335 17.438H137.235C136.035 13.738 133.335 12.238 129.835 12.238C125.135 12.238 121.635 14.938 121.635 21.638C121.635 28.438 125.235 31.038 129.835 31.038C133.435 31.038 136.135 29.538 137.235 25.738H140.335C139.035 31.138 135.135 33.538 129.835 33.538C123.335 33.738 118.535 30.138 118.535 21.738Z" fill="white"/>
<path d="M145.835 0.338135V14.8381C147.335 11.6381 150.035 9.73813 154.735 9.73813C160.335 9.73813 163.435 12.5381 163.435 19.1381V33.4381H160.435V19.1381C160.435 13.8381 157.635 12.2381 153.835 12.2381C148.135 12.2381 146.035 16.9381 145.935 22.9381V33.4381H142.935V0.338135H145.835Z" fill="white"/>
<path d="M166.135 27.4382C166.135 17.9382 182.135 23.0382 182.635 17.4382C182.435 13.6382 180.435 12.2382 176.235 12.2382C172.135 12.2382 170.035 13.5382 169.835 16.6382H166.835C167.035 12.0382 170.235 9.63818 176.135 9.63818C182.635 9.63818 185.435 11.9382 185.435 17.5382V27.3382C185.435 29.6382 185.935 30.5382 187.335 30.5382H188.435V33.3382H187.335C183.935 33.3382 183.035 31.6382 182.735 29.1382C181.235 31.8382 178.435 33.7382 173.835 33.7382C170.035 33.7382 166.135 32.6382 166.135 27.4382ZM174.635 31.3382C179.935 31.3382 182.635 27.8382 182.635 23.4382V21.0382C178.935 24.3382 169.135 21.5382 169.135 27.3382C169.135 30.0382 171.135 31.3382 174.635 31.3382Z" fill="white"/>
<path d="M186.535 12.4381V10.0381H190.735V3.03809H193.635V10.0381H200.335V12.4381H193.635V26.5381C193.635 30.1381 194.235 30.8381 197.235 30.8381H200.635V33.4381H196.535C192.635 33.4381 190.735 31.7381 190.735 26.8381V12.4381H186.535Z" fill="white"/>
</svg>
