<svg width="176" height="43" viewBox="0 0 176 43" fill="none" xmlns="http://www.w3.org/2000/svg">
<path d="M126.046 39.9587H131.463C137.05 39.9587 139.646 37.0807 139.646 31.2118V28.1645C138.009 31.2118 135.075 32.9048 131.238 32.9048C125.369 32.9048 121.531 28.5031 121.531 22.6342C121.531 16.8218 125.369 12.4766 131.238 12.4766C135.188 12.4766 138.122 14.1695 139.702 17.2732L140.21 12.7587H141.79V30.6475C141.79 38.2093 138.292 41.7645 131.351 41.7645H126.046V39.9587ZM131.52 31.0989C136.317 31.0989 139.307 27.7695 139.307 22.6342C139.307 17.5554 136.26 14.2824 131.52 14.2824C126.723 14.2824 123.676 17.5554 123.676 22.6342C123.676 27.7695 126.78 31.0989 131.52 31.0989Z" fill="black"/>
<path d="M146.587 23.0295C146.587 16.8221 150.65 12.4204 157.027 12.4204C163.403 12.4204 167.467 16.8221 167.467 23.0295C167.467 29.3498 163.403 33.7515 157.027 33.7515C150.65 33.7515 146.587 29.3498 146.587 23.0295ZM156.97 31.8893C162.049 31.8893 165.266 28.5598 165.266 23.0295C165.266 17.5557 162.049 14.2826 156.97 14.2826C151.948 14.2826 148.731 17.5557 148.731 23.0295C148.788 28.5598 151.948 31.8893 156.97 31.8893Z" fill="black"/>
<path d="M68.5988 22.8604C68.5988 29.4064 65.3257 33.8645 59.6262 33.8645C56.1838 33.8645 53.6444 32.228 52.2901 29.1243L51.5 33.5259H46.7034V29.0114V4.68945H52.4594V16.3708C53.8702 13.5492 56.3531 12.0255 59.6262 12.0255C65.3822 12.0255 68.5988 16.4836 68.5988 22.8604ZM62.8428 22.8604C62.8428 19.023 60.9241 16.7658 57.6511 16.7658C54.378 16.7658 52.4594 19.023 52.4594 22.8604C52.4594 26.8106 54.378 29.0678 57.6511 29.0678C60.9241 29.0678 62.8428 26.8106 62.8428 22.8604Z" fill="black"/>
<path d="M83.948 33.5257V12.4204H89.704V33.5257H83.948Z" fill="black"/>
<path d="M115.493 22.9731C115.493 29.4063 112.22 33.8644 106.464 33.8644C103.191 33.8644 100.708 32.3407 99.2975 29.5191V40.6926H93.5415V16.8785V12.364H98.3382L99.1282 16.7656C100.483 13.6619 103.022 12.0254 106.464 12.0254C112.277 12.0254 115.493 16.4835 115.493 22.9731ZM109.737 22.9731C109.737 19.0793 107.819 16.8221 104.546 16.8221C101.273 16.8221 99.3539 19.0793 99.3539 22.9731C99.3539 26.8669 101.273 29.1241 104.546 29.1241C107.819 29.0677 109.737 26.8104 109.737 22.9731Z" fill="black"/>
<path d="M90.1557 9.3167C90.3814 8.86525 90.4943 8.35736 90.4943 7.79304C90.4943 5.76151 88.8578 4.125 86.8262 4.125C84.7947 4.125 83.1582 5.76151 83.1582 7.79304C83.1582 8.35736 83.2711 8.86525 83.4968 9.3167H90.1557Z" fill="black"/>
<path d="M76.2733 28.5035H81.465V33.5259H78.4177C72.8875 33.5259 70.5173 31.0429 70.5173 24.4969V4.68945H76.2733V24.6662V28.5035Z" fill="black"/>
<path d="M20.0677 0.174805C7.6528 0.174805 0.993896 4.85863 0.993896 17.0478C0.993896 27.9391 6.63703 36.3473 20.0677 36.3473C20.4063 36.3473 21.0835 36.3473 21.0835 36.3473C21.0835 37.9274 21.0835 39.959 21.0835 41.7083C21.0835 42.1598 21.4221 42.5548 21.93 42.5548C22.325 42.5548 22.4378 42.3855 22.7764 42.1034C25.1466 40.0718 32.1441 33.6951 32.1441 33.6951C35.6428 30.3656 39.1416 26.4154 39.1416 17.0478C39.1416 4.85863 32.4826 0.174805 20.0677 0.174805Z" fill="black"/>
<path d="M175.028 3.84277L174.746 25.061H172.884L172.658 3.84277H175.028Z" fill="black"/>
<path d="M171.699 30.8737C171.699 29.5193 172.545 28.6729 173.843 28.6729C175.198 28.6729 175.988 29.5193 175.988 30.8737C175.988 32.228 175.141 33.1309 173.843 33.1309C172.545 33.1309 171.699 32.2845 171.699 30.8737Z" fill="black"/>
</svg>
