<svg width="203" height="44" viewBox="0 0 203 44" fill="none" xmlns="http://www.w3.org/2000/svg">
<path d="M139.116 22.904V34.2313H136.96V23.0281C136.96 17.6326 134.968 15.0194 130.82 15.0194C126.214 15.0194 124.177 18.0502 124.177 22.904V34.2313H122.021V4.55566H124.177V17.0456C125.503 14.5115 127.953 13.1852 131.108 13.1852C136.831 13.1908 139.116 16.6788 139.116 22.904Z" fill="white"/>
<path d="M164.181 24.315H146.126C146.335 29.0446 149.281 32.6567 154.344 32.6567C158.289 32.6567 161.026 30.5798 161.895 28.0061H164.057C162.685 32.0302 159.158 34.4797 154.344 34.4797C147.955 34.4797 143.925 30.0831 143.925 23.8127C143.925 17.5424 147.994 13.1909 154.135 13.1909C160.36 13.1909 164.012 17.1755 164.221 22.9831C164.226 23.4854 164.266 23.8127 164.181 24.315ZM146.211 22.4469H161.94C161.777 18.0052 158.825 15.0195 154.095 15.0195C149.411 15.0195 146.668 18.2986 146.211 22.4469Z" fill="white"/>
<path d="M176.428 34.2315C170.948 34.2315 168.876 31.9908 168.876 25.269V4.56152H171.032V25.6415C171.032 29.8349 171.738 32.3238 176.304 32.3238H177.63V34.2315H176.428Z" fill="white"/>
<path d="M202.119 23.8581C202.119 30.0833 198.343 34.4799 192.406 34.4799C188.754 34.4799 185.893 32.9448 184.273 30.0833V43.0756H182.157V17.8869L181.575 13.4056H183.319L184.189 17.8022C185.763 14.8166 188.67 13.1968 192.406 13.1968C198.343 13.1911 202.119 17.5482 202.119 23.8581ZM199.918 23.8581C199.918 18.2989 196.848 14.9746 192.118 14.9746C187.343 14.9746 184.273 18.2932 184.273 23.8581C184.273 29.3383 187.343 32.6569 192.118 32.6569C196.848 32.6569 199.918 29.3327 199.918 23.8581Z" fill="white"/>
<path d="M67.6252 23.6261C67.6252 30.1731 64.3743 34.6317 58.6232 34.6317C55.203 34.6317 52.6181 33.0063 51.2862 29.8796L50.496 34.2592H45.7043V29.7554V5.41895H51.4555V17.0792C52.8721 14.246 55.3328 12.7447 58.6232 12.7447C64.3687 12.7447 67.6252 17.2034 67.6252 23.6261ZM61.8289 23.6261C61.8289 19.7883 59.91 17.542 56.6196 17.542C53.3688 17.542 51.4498 19.7939 51.4498 23.6261C51.4498 27.5882 53.3688 29.8401 56.6196 29.8401C59.91 29.8344 61.8289 27.5825 61.8289 23.6261Z" fill="white"/>
<path d="M82.9766 34.2541V13.1177H88.7277V34.2541H82.9766Z" fill="white"/>
<path d="M114.537 23.7053C114.537 30.1676 111.286 34.6263 105.535 34.6263C102.245 34.6263 99.7839 33.125 98.3673 30.2918V41.4497H92.6162V17.6156V13.1118H97.4079L98.198 17.4914C99.5751 14.3647 102.115 12.7393 105.535 12.7393C111.286 12.7449 114.537 17.2036 114.537 23.7053ZM108.741 23.7053C108.741 19.7885 106.822 17.5366 103.531 17.5366C100.281 17.5366 98.3617 19.7885 98.3617 23.7053C98.3617 27.5827 100.281 29.8346 103.531 29.8346C106.822 29.8346 108.741 27.5827 108.741 23.7053Z" fill="white"/>
<path d="M89.1736 10.0526C89.3824 9.58982 89.5123 9.08187 89.5123 8.54006C89.5123 6.51954 87.8755 4.88281 85.855 4.88281C83.8345 4.88281 82.1978 6.51954 82.1978 8.54006C82.1978 9.08187 82.3219 9.58982 82.5364 10.0526H89.1736Z" fill="white"/>
<path d="M75.3063 29.2531H80.4761V34.2536H77.434C71.9313 34.2536 69.5552 31.7929 69.5552 25.2516V5.41895H75.3063V25.4153V29.2531Z" fill="white"/>
<path d="M19.0876 0.937988C6.66543 0.937988 0 5.61113 0 17.8302C0 28.7398 5.61567 37.1041 19.0876 37.1041C19.4263 37.1041 20.0753 37.1041 20.0753 37.1041C20.0753 38.69 20.081 40.7218 20.081 42.477C20.081 42.9116 20.4252 43.318 20.9501 43.318C21.3621 43.318 21.475 43.1656 21.8024 42.8778C24.1784 40.829 31.1825 34.4684 31.1825 34.4684C34.6761 31.1441 38.1753 27.1765 38.1753 17.8302C38.1753 5.61113 31.5099 0.937988 19.0876 0.937988Z" fill="#0096FA"/>
</svg>
