<svg width="336" height="43" viewBox="0 0 336 43" fill="none" xmlns="http://www.w3.org/2000/svg">
<path d="M19.3347 0.238281C14.9347 0.238281 10.3347 0.938281 7.23466 2.83828C2.13466 6.03828 0.634661 12.0383 0.834661 17.7383C0.934661 22.6383 2.23466 27.8383 5.73466 31.3383C9.03466 34.7383 15.7347 36.3383 20.4347 36.3383C20.6347 36.3383 20.8347 36.5383 20.8347 36.7383V41.6383C20.8347 42.1383 21.2347 42.5383 21.7347 42.5383H21.8347C22.0347 42.5383 22.1347 42.4383 22.3347 42.3383C24.6347 40.3383 26.9347 38.3383 29.2347 36.2383C31.3347 34.2383 33.8347 32.1383 35.5347 29.8383C39.0347 24.8383 39.6347 17.6383 38.4347 11.7383C37.1347 5.93828 33.1347 2.23828 27.4347 1.03828C25.1347 0.538281 22.2347 0.238281 19.3347 0.238281Z" fill="black"/>
<path fill-rule="evenodd" clip-rule="evenodd" d="M42.7347 0.738281C42.5347 0.438293 42.8347 0.238281 43.1347 0.238281H50.1347C50.4347 0.238281 50.7347 0.438293 50.7347 0.838257V11.9383C52.4347 9.93829 54.9347 8.93829 57.9347 8.93829C64.0347 8.93829 68.5347 12.8383 68.5347 21.4383C68.5347 30.0383 64.0347 33.8383 57.9347 33.8383C54.8347 33.8383 52.4347 32.8383 50.7347 30.9383L50.3347 32.9383C50.2347 33.2383 50.0347 33.3383 49.8347 33.3383H43.3347C43.0347 33.3383 42.7347 33.1383 42.7347 32.7383V0.738281ZM55.2836 27.6381C54.0012 27.629 52.9078 27.2744 52.0914 26.5219C51.8135 26.2629 51.5656 25.9571 51.351 25.6024C51.0867 25.1592 50.8789 24.6389 50.7347 24.0383C50.718 24.0215 50.704 24.002 50.6924 23.98C50.6743 23.9091 50.6569 23.8371 50.6404 23.7639C50.6347 23.6926 50.6347 23.6154 50.6347 23.5383H50.7347V19.4383C50.7347 19.2383 50.7347 19.0383 50.8347 18.8383C51.5292 16.3578 53.2084 15.2555 55.2857 15.2385C58.059 15.2603 60.0347 17.0651 60.0347 21.4383C60.0347 25.8126 58.0579 27.6172 55.2836 27.6381ZM90.4347 9.93829C90.4347 9.63831 90.6347 9.33826 91.0347 9.33826H97.5347C97.8347 9.33826 98.0347 9.53827 98.0347 9.73828L98.4347 11.7383C100.135 9.83826 102.535 8.83826 105.635 8.83826C111.635 8.83826 116.235 12.6383 116.235 21.2383C116.235 29.8383 111.735 33.7383 105.635 33.7383C102.635 33.7383 100.135 32.7383 98.4347 30.7383V41.8383C98.4347 42.1383 98.2347 42.4383 97.8347 42.4383H90.8347C90.6347 42.4383 90.4347 42.2383 90.4347 41.9383V9.93829ZM98.5347 23.9383C98.4347 23.7383 98.4347 23.5383 98.4347 23.3383V19.0383C99.0347 16.3383 100.735 15.1383 103.035 15.1383C105.835 15.1383 107.835 16.9383 107.835 21.3383C107.835 25.7383 105.835 27.5383 103.035 27.5383C102.526 27.5383 102.044 27.4741 101.594 27.3419C100.449 27.0049 99.5176 26.2263 98.9032 24.9443C98.8093 24.7432 98.7238 24.5295 98.6472 24.303C98.6072 24.1849 98.5697 24.0634 98.5347 23.9383ZM70.3347 0.238281C70.0347 0.238281 69.7347 0.438293 69.6347 0.838257V32.8383C69.6347 33.2383 69.9347 33.4383 70.2347 33.4383H77.2347C77.6347 33.4383 77.8347 33.1383 77.8347 32.8383V0.838257C77.8347 0.438293 77.6347 0.238281 77.3347 0.238281H70.3347ZM80.7347 6.43829C80.3347 6.33826 80.1347 6.13831 80.1347 5.83826V0.838257C80.1347 0.538269 80.3347 0.238281 80.7347 0.238281H87.7347C88.0347 0.238281 88.3347 0.438293 88.3347 0.838257V5.83826C88.3347 6.13831 88.1347 6.43829 87.7347 6.43829H80.7347ZM80.0347 9.93829C80.1347 9.63831 80.3347 9.33826 80.6347 9.33826H87.6347C87.9347 9.33826 88.2347 9.53827 88.2347 9.93829V32.7383C88.2347 33.0383 88.0347 33.3383 87.6347 33.3383H80.6347C80.3347 33.3383 80.0347 33.1383 80.0347 32.7383V9.93829ZM129.835 9.63831C123.335 9.63831 118.535 13.2383 118.535 21.6383C118.535 30.0383 123.335 33.6383 129.835 33.4383C135.135 33.4383 139.035 31.0383 140.335 25.6383H137.235C136.135 29.4383 133.435 30.9383 129.835 30.9383C125.235 30.9383 121.635 28.3383 121.635 21.5383C121.635 14.8383 125.135 12.1383 129.835 12.1383C133.335 12.1383 136.035 13.6383 137.235 17.3383H140.335C138.935 11.9383 135.135 9.63831 129.835 9.63831ZM141.135 21.6383C141.135 13.2383 145.835 9.63831 152.435 9.63831C159.035 9.63831 163.735 13.2383 163.735 21.6383C163.735 30.0383 159.035 33.6383 152.435 33.6383C145.835 33.6383 141.135 30.0383 141.135 21.6383ZM152.335 31.0383C157.035 31.0383 160.535 28.4383 160.535 21.6383C160.535 14.8383 157.035 12.2383 152.335 12.2383C147.635 12.2383 144.135 14.9383 144.135 21.6383C144.235 28.4383 147.635 31.0383 152.335 31.0383ZM168.835 9.93829H166.235H166.135V33.3383H169.135V22.8383C169.235 16.8383 171.235 12.1383 176.335 12.1383C179.735 12.1383 182.235 13.7383 182.235 19.0383V33.3383H185.235V22.8383C185.335 16.8383 187.335 12.1383 192.435 12.1383C195.935 12.1383 198.435 13.7383 198.435 19.0383V33.3383H201.335V19.0383C201.435 12.3383 198.535 9.53827 193.435 9.53827C188.835 9.53827 186.235 11.7383 184.935 15.2383C184.035 11.3383 181.435 9.53827 177.335 9.53827C173.035 9.53827 170.535 11.5383 169.135 14.6383L168.835 9.93829ZM205.735 9.93829H208.335L208.635 14.6383C210.035 11.5383 212.535 9.53827 216.835 9.53827C220.935 9.53827 223.535 11.3383 224.435 15.2383C225.735 11.7383 228.335 9.53827 232.935 9.53827C238.035 9.53827 240.935 12.3383 240.835 19.0383V33.3383H237.835V19.0383C237.835 13.7383 235.335 12.1383 231.835 12.1383C226.735 12.1383 224.735 16.8383 224.635 22.8383V33.3383H221.635V19.0383C221.635 13.7383 219.135 12.1383 215.735 12.1383C210.635 12.1383 208.635 16.8383 208.535 22.8383V33.3383H205.535V9.93829H205.735ZM245.135 9.93829V24.2383C245.135 30.9383 248.135 33.6383 253.735 33.6383C258.435 33.6383 261.135 31.6383 262.635 28.3383L262.835 33.2383H265.435V9.93829H262.535V20.4383C262.335 26.4383 260.235 31.1383 254.635 31.1383C250.835 31.1383 248.135 29.5383 248.135 24.2383V9.93829H245.135ZM269.935 9.93829H272.435L272.735 14.9383C274.135 11.6383 276.935 9.63831 281.735 9.63831C287.335 9.63831 290.435 12.4383 290.435 19.0383V33.3383H287.435V19.0383C287.435 13.7383 284.635 12.1383 280.835 12.1383C275.135 12.1383 273.035 16.8383 272.935 22.8383V33.3383H269.935V9.93829ZM294.635 0.238281V4.63831H297.635V0.238281H294.635ZM297.635 9.93829H294.635V33.2383H297.635V9.93829ZM299.735 12.3383V9.93829H303.935V2.93829H306.835V9.93829H312.835H313.535H316.035L323.835 29.7383L332.435 9.93829H335.635L324.035 36.7383C321.535 42.4383 318.835 42.8383 315.235 42.8383V40.0383C317.935 40.0383 319.735 39.3383 321.035 36.2383L322.335 33.1383L313.535 11.6478V12.3383H306.835V26.4383C306.835 30.0383 307.435 30.7383 310.435 30.7383H313.835V33.3383H309.735C305.835 33.3383 303.935 31.6383 303.935 26.7383V12.3383H299.735Z" fill="black"/>
</svg>
