<svg width="301" height="44" viewBox="0 0 301 44" fill="none" xmlns="http://www.w3.org/2000/svg">
<path d="M124.687 15.1853H120.229V13.2666H124.687C124.687 6.66414 126.944 4.97119 131.91 4.97119H132.926V6.88987H131.515C127.565 6.88987 126.888 8.86496 126.888 12.9845V13.2666H133.377V15.1853H126.888V34.0898H124.743V15.1853H124.687Z" fill="white"/>
<path d="M134.844 23.5935C134.844 17.386 138.908 12.9844 145.284 12.9844C151.661 12.9844 155.724 17.386 155.724 23.5935C155.724 29.9138 151.661 34.3154 145.284 34.3154C138.908 34.3154 134.844 29.9138 134.844 23.5935ZM145.284 32.5096C150.363 32.5096 153.58 29.1802 153.58 23.6499C153.58 18.176 150.363 14.903 145.284 14.903C140.262 14.903 137.045 18.176 137.045 23.6499C137.045 29.1802 140.262 32.5096 145.284 32.5096Z" fill="white"/>
<path d="M159.392 23.5935C159.392 17.386 163.455 12.9844 169.832 12.9844C176.209 12.9844 180.272 17.386 180.272 23.5935C180.272 29.9138 176.209 34.3154 169.832 34.3154C163.455 34.3154 159.392 29.9138 159.392 23.5935ZM169.832 32.5096C174.911 32.5096 178.127 29.1802 178.127 23.6499C178.127 18.176 174.911 14.903 169.832 14.903C164.81 14.903 161.593 18.176 161.593 23.6499C161.593 29.1802 164.81 32.5096 169.832 32.5096Z" fill="white"/>
<path d="M183.996 23.5937C183.996 17.3862 187.834 12.9846 193.703 12.9846C197.371 12.9846 200.192 14.5082 201.829 17.3298V4.35059H203.973V29.519L204.537 33.9771H202.788L201.942 29.6318C200.361 32.5663 197.483 34.2592 193.703 34.2592C187.777 34.3157 183.996 29.914 183.996 23.5937ZM194.041 32.5098C198.781 32.5098 201.829 29.1804 201.829 23.6501C201.829 18.1763 198.781 14.9032 194.041 14.9032C189.244 14.9032 186.197 18.1763 186.197 23.6501C186.197 29.1804 189.244 32.5098 194.041 32.5098Z" fill="white"/>
<path d="M208.995 27.3179H211.14C211.14 31.0424 213.961 32.5096 217.516 32.5096C220.902 32.5096 223.272 31.2681 223.272 28.4466C223.272 25.1171 219.999 24.6092 216.726 23.7628C212.438 22.6341 210.18 21.5055 210.18 18.1761C210.18 14.7902 212.776 12.9844 217.178 12.9844C222.37 12.9844 224.627 15.4109 224.627 18.6839H222.539C222.539 16.0317 220.282 14.7902 217.121 14.7902C214.695 14.7902 212.381 15.4673 212.381 18.0067C212.381 20.6026 214.526 21.0541 217.347 21.8441C221.354 22.8599 225.417 23.8756 225.417 28.2773C225.417 31.7196 222.877 34.3154 217.347 34.3154C211.93 34.3154 208.995 31.6631 208.995 27.3179Z" fill="white"/>
<path d="M68.4813 23.4808C68.4813 30.0268 65.2083 34.4849 59.5087 34.4849C56.0664 34.4849 53.527 32.8484 52.1726 29.7447L51.3826 34.1463H46.5859V29.6318V5.25342H52.2855V16.9347C53.6963 14.1132 56.1793 12.5895 59.4523 12.5895C65.2083 12.5895 68.4813 17.0476 68.4813 23.4808ZM62.6689 23.4808C62.6689 19.6434 60.7502 17.3862 57.4772 17.3862C54.2042 17.3862 52.2855 19.6434 52.2855 23.4808C52.2855 27.4309 54.2042 29.6882 57.4772 29.6882C60.7502 29.6882 62.6689 27.4309 62.6689 23.4808Z" fill="white"/>
<path d="M83.8306 34.0897V12.9844H89.5866V34.0897H83.8306Z" fill="white"/>
<path d="M115.376 23.5375C115.376 29.9707 112.103 34.4288 106.347 34.4288C103.074 34.4288 100.591 32.9051 99.1801 30.0836V41.257H93.4241V17.4429V12.9284H98.2207L99.0108 17.3301C100.365 14.2264 102.905 12.5898 106.347 12.5898C112.103 12.5898 115.376 17.0479 115.376 23.5375ZM109.563 23.5375C109.563 19.6438 107.645 17.3865 104.372 17.3865C101.099 17.3865 99.1801 19.6438 99.1801 23.5375C99.1801 27.4313 101.099 29.6885 104.372 29.6885C107.645 29.6885 109.563 27.4313 109.563 23.5375Z" fill="white"/>
<path d="M89.9814 9.88115C90.2071 9.4297 90.32 8.92181 90.32 8.35749C90.32 6.32596 88.6835 4.68945 86.6519 4.68945C84.6204 4.68945 82.9839 6.32596 82.9839 8.35749C82.9839 8.92181 83.0968 9.4297 83.3225 9.88115H89.9814Z" fill="white"/>
<path d="M76.1559 29.0675H81.3476V34.0898H78.2439C72.7136 34.0898 70.3435 31.6069 70.3435 25.0608V5.25342H76.0995V25.2301V29.0675H76.1559Z" fill="white"/>
<path d="M19.9503 0.794922C7.53537 0.794922 0.876465 5.47874 0.876465 17.6679C0.876465 28.5592 6.46318 36.9675 19.9503 36.9675C20.2889 36.9675 20.966 36.9675 20.966 36.9675C20.966 38.5475 20.966 40.5791 20.966 42.3285C20.966 42.7799 21.3046 43.1749 21.8125 43.1749C22.2075 43.1749 22.3204 43.0056 22.659 42.7235C25.0291 40.6919 32.0266 34.3152 32.0266 34.3152C35.5254 30.9857 39.0241 27.0355 39.0241 17.6679C39.0241 5.42231 32.3652 0.794922 19.9503 0.794922Z" fill="white"/>
<path d="M295.731 35.2185H238.058C235.349 35.2185 233.092 32.9612 233.092 30.2525V16.1447C233.092 13.436 235.349 11.1787 238.058 11.1787H295.787C298.496 11.1787 300.753 13.436 300.753 16.1447V30.2525C300.753 33.0177 298.496 35.2185 295.731 35.2185Z" fill="white"/>
<path d="M244.209 29.124L243.814 31.099H240.71L241.049 28.5032V13.8311H244.378V20.5464C245.224 19.2484 246.635 18.6277 248.328 18.6277C251.827 18.6277 253.746 21.2236 253.746 24.948C253.746 28.729 251.827 31.3248 248.328 31.3248C246.466 31.3248 245.055 30.5912 244.209 29.124ZM247.369 28.5596C249.288 28.5596 250.36 27.2617 250.36 24.948C250.36 22.7472 249.231 21.4493 247.369 21.4493C245.507 21.4493 244.378 22.7472 244.378 24.948C244.378 27.2617 245.507 28.5596 247.369 28.5596Z" fill="black"/>
<path d="M255.382 25.0603C255.382 21.223 257.696 18.6836 261.872 18.6836C266.048 18.6836 268.248 21.0537 268.305 24.8346C268.305 25.1168 268.305 25.3989 268.248 25.6811H258.824C259.05 27.7126 260.179 28.8412 262.041 28.8412C263.677 28.8412 264.58 28.1641 264.863 27.3176H268.192C267.628 29.9699 265.37 31.3242 261.985 31.3242C257.583 31.3242 255.382 28.6719 255.382 25.0603ZM264.693 23.706C264.524 21.9002 263.621 20.9973 261.872 20.9973C259.953 20.9973 259.163 22.2388 258.881 23.706H264.693Z" fill="black"/>
<path d="M271.634 25.9071V21.6183H268.869V18.8531H271.804L272.65 15.0723H274.964V18.8531H278.632V21.6183H274.964V25.9635C274.964 27.4872 275.359 28.1643 276.939 28.1643H279.083V31.0423H276.544C273.327 31.0988 271.634 29.8008 271.634 25.9071Z" fill="black"/>
<path d="M280.043 24.9478C280.043 21.2233 282.018 18.6274 285.516 18.6274C287.322 18.6274 288.677 19.3611 289.58 20.7154L289.918 18.8531H292.74V28.4465L293.078 31.0988H289.975L289.58 29.1801C288.677 30.5909 287.266 31.3245 285.46 31.3245C282.018 31.3245 280.043 28.7287 280.043 24.9478ZM286.419 28.5594C288.338 28.5594 289.41 27.2615 289.41 24.9478C289.41 22.7469 288.282 21.449 286.419 21.449C284.501 21.449 283.428 22.7469 283.428 24.9478C283.428 27.2615 284.557 28.5594 286.419 28.5594Z" fill="black"/>
</svg>
