<svg width="201" height="43" viewBox="0 0 201 43" fill="none" xmlns="http://www.w3.org/2000/svg">
<path d="M19.3347 0.0380859C14.9347 0.0380859 10.3347 0.738086 7.23466 2.63809C2.13466 5.83809 0.634661 11.9381 0.834661 17.5381C0.934661 22.4381 2.23466 27.6381 5.73466 31.1381C9.03466 34.5381 15.7347 36.1381 20.4347 36.1381C20.6347 36.1381 20.8347 36.2381 20.8347 36.5381V41.4381C20.8347 41.9381 21.2347 42.3381 21.7347 42.3381H21.8347C22.0347 42.3381 22.1347 42.2381 22.3347 42.1381C24.6347 40.1381 26.9347 38.1381 29.2347 36.0381C31.3347 34.0381 33.8347 31.9381 35.5347 29.6381C39.0347 24.6381 39.6347 17.4381 38.4347 11.5381C37.1347 5.73809 33.1347 2.03809 27.4347 0.838086C25.1347 0.338086 22.2347 0.0380859 19.3347 0.0380859Z" fill="black"/>
<path d="M90.4346 41.7382V9.73818C90.4346 9.43818 90.6346 9.13818 91.0346 9.13818H97.5346C97.8346 9.13818 98.0346 9.33818 98.0346 9.53818L98.4346 11.5382C100.135 9.63818 102.535 8.63818 105.635 8.63818C111.635 8.63818 116.235 12.4382 116.235 21.0382C116.235 29.6382 111.735 33.5382 105.635 33.5382C102.635 33.5382 100.135 32.5382 98.4346 30.5382V41.6382C98.4346 41.9382 98.2346 42.2382 97.8346 42.2382H90.8346C90.6346 42.2382 90.4346 42.0382 90.4346 41.7382ZM98.4346 23.1382C98.4346 23.3382 98.4346 23.5382 98.5346 23.7382C99.2346 26.2382 100.935 27.3382 103.035 27.3382C105.835 27.3382 107.835 25.5382 107.835 21.1382C107.835 16.7382 105.835 14.9382 103.035 14.9382C100.735 14.9382 99.1346 16.0382 98.4346 18.5382C98.4346 18.7382 98.3346 18.9382 98.3346 19.0382V23.1382H98.4346Z" fill="black"/>
<path d="M43.1347 0.0380859H50.1347C50.4347 0.0380859 50.7347 0.238086 50.7347 0.638086V11.7381C52.4347 9.73809 54.9347 8.73809 57.9347 8.73809C64.0347 8.73809 68.5347 12.6381 68.5347 21.2381C68.5347 29.8381 64.0347 33.6381 57.9347 33.6381C54.8347 33.6381 52.4347 32.6381 50.7347 30.7381L50.3347 32.7381C50.2347 33.0381 50.0347 33.1381 49.8347 33.1381H43.3347C43.0347 33.1381 42.7347 32.9381 42.7347 32.5381V0.538086C42.5347 0.338086 42.8347 0.0380859 43.1347 0.0380859ZM50.6347 23.3381C50.6347 23.5381 50.6347 23.7381 50.7347 23.8381C51.3347 26.3381 53.0347 27.4381 55.3347 27.4381C58.1347 27.4381 60.1347 25.6381 60.1347 21.2381C60.1347 16.8381 58.1347 15.0381 55.3347 15.0381C53.2347 15.0381 51.5347 16.1381 50.8347 18.6381C50.7347 18.8381 50.7347 19.0381 50.7347 19.2381V23.3381H50.6347Z" fill="black"/>
<path d="M70.3348 0.0380859H77.3348C77.6348 0.0380859 77.8348 0.338086 77.8348 0.638086V32.6381C77.8348 32.9381 77.6348 33.2381 77.2348 33.2381H70.2348C69.9348 33.2381 69.6348 33.0381 69.6348 32.6381V0.638086C69.7348 0.338086 70.0348 0.0380859 70.3348 0.0380859Z" fill="black"/>
<path d="M80.1347 5.63809V0.638086C80.1347 0.338086 80.3347 0.0380859 80.7347 0.0380859H87.7347C88.0347 0.0380859 88.3347 0.238086 88.3347 0.638086V5.63809C88.3347 5.93809 88.1347 6.23809 87.7347 6.23809H80.7347C80.3347 6.13809 80.1347 5.93809 80.1347 5.63809ZM80.6347 9.23809H87.6347C87.9347 9.23809 88.2347 9.43809 88.2347 9.83809V32.6381C88.2347 32.9381 88.0347 33.2381 87.6347 33.2381H80.6347C80.3347 33.2381 80.0347 33.0381 80.0347 32.6381V9.73809C80.1347 9.43809 80.3347 9.23809 80.6347 9.23809Z" fill="black"/>
<path d="M118.535 21.438C118.535 13.038 123.335 9.43799 129.835 9.43799C135.135 9.43799 138.935 11.738 140.335 17.138H137.235C136.035 13.438 133.335 11.938 129.835 11.938C125.135 11.938 121.635 14.638 121.635 21.338C121.635 28.138 125.235 30.738 129.835 30.738C133.435 30.738 136.135 29.238 137.235 25.438H140.335C139.035 30.838 135.135 33.238 129.835 33.238C123.335 33.438 118.535 29.838 118.535 21.438Z" fill="black"/>
<path d="M145.835 0.0380859V14.5381C147.335 11.3381 150.035 9.43809 154.735 9.43809C160.335 9.43809 163.435 12.2381 163.435 18.8381V33.1381H160.435V18.8381C160.435 13.5381 157.635 11.9381 153.835 11.9381C148.135 11.9381 146.035 16.6381 145.935 22.6381V33.1381H142.935V0.0380859H145.835Z" fill="black"/>
<path d="M166.135 27.1381C166.135 17.6381 182.135 22.7381 182.635 17.1381C182.435 13.3381 180.435 11.9381 176.235 11.9381C172.135 11.9381 170.035 13.2381 169.835 16.3381H166.835C167.035 11.7381 170.235 9.33813 176.135 9.33813C182.635 9.33813 185.435 11.6381 185.435 17.2381V27.0381C185.435 29.3381 185.935 30.2381 187.335 30.2381H188.435V33.0381H187.335C183.935 33.0381 183.035 31.3381 182.735 28.8381C181.235 31.5381 178.435 33.4381 173.835 33.4381C170.035 33.4381 166.135 32.3381 166.135 27.1381ZM174.635 31.0381C179.935 31.0381 182.635 27.5381 182.635 23.1381V20.7381C178.935 24.0381 169.135 21.2381 169.135 27.0381C169.135 29.7381 171.135 31.0381 174.635 31.0381Z" fill="black"/>
<path d="M186.535 12.138V9.73804H190.735V2.73804H193.635V9.73804H200.335V12.138H193.635V26.238C193.635 29.838 194.235 30.538 197.235 30.538H200.635V33.138H196.535C192.635 33.138 190.735 31.438 190.735 26.538V12.138H186.535Z" fill="black"/>
</svg>
