<svg width="231" height="66" viewBox="0 0 231 66" fill="none" xmlns="http://www.w3.org/2000/svg">
<path d="M142.023 23.7575C142.023 29.9827 138.247 34.3793 132.309 34.3793C128.658 34.3793 125.796 32.8442 124.177 29.9827V42.975H122.06V17.7863L121.479 13.305H123.223L124.092 17.7016C125.667 14.716 128.573 13.0962 132.309 13.0962C138.247 13.0906 142.023 17.4476 142.023 23.7575ZM139.827 23.7575C139.827 18.1983 136.757 14.874 132.027 14.874C127.252 14.874 124.182 18.1926 124.182 23.7575C124.182 29.2377 127.252 32.5564 132.027 32.5564C136.757 32.5564 139.827 29.2321 139.827 23.7575Z" fill="black"/>
<path d="M166.224 34.1313H164.48L163.65 29.7742C162.075 32.7203 159.208 34.3796 155.472 34.3796C149.495 34.3796 145.68 29.983 145.68 23.6731C145.68 17.4479 149.501 13.0908 155.472 13.0908C159.163 13.0908 162.03 14.6655 163.605 17.5721L164.062 13.2996H165.637V29.65L166.224 34.1313ZM163.526 23.6731C163.526 18.1929 160.495 14.9194 155.726 14.9194C150.951 14.9194 147.881 18.1985 147.881 23.6731C147.881 29.2324 150.951 32.5566 155.726 32.5566C160.495 32.5566 163.526 29.2324 163.526 23.6731Z" fill="black"/>
<path d="M128.164 60.9413C127.324 60.9413 126.575 60.7803 125.917 60.4583C125.259 60.1363 124.727 59.6743 124.321 59.0723V65.2463H122.725V52.4993L122.41 50.2313H123.838L124.216 52.1213C124.622 51.4633 125.161 50.9593 125.833 50.6093C126.505 50.2593 127.282 50.0843 128.164 50.0843C129.172 50.0843 130.047 50.3153 130.789 50.7773C131.531 51.2253 132.098 51.8623 132.49 52.6883C132.896 53.5143 133.099 54.4593 133.099 55.5233C133.099 56.5873 132.896 57.5323 132.49 58.3583C132.098 59.1703 131.531 59.8073 130.789 60.2693C130.047 60.7173 129.172 60.9413 128.164 60.9413ZM124.321 55.5233C124.321 56.7833 124.636 57.7703 125.266 58.4843C125.91 59.1983 126.785 59.5553 127.891 59.5553C128.983 59.5553 129.851 59.1983 130.495 58.4843C131.139 57.7703 131.461 56.7833 131.461 55.5233C131.461 54.2493 131.139 53.2483 130.495 52.5203C129.851 51.7923 128.983 51.4283 127.891 51.4283C126.799 51.4283 125.931 51.7923 125.287 52.5203C124.643 53.2483 124.321 54.2493 124.321 55.5233Z" fill="black"/>
<path d="M139.927 60.9413C138.919 60.9413 138.037 60.7173 137.281 60.2693C136.525 59.8073 135.944 59.1633 135.538 58.3373C135.146 57.5113 134.95 56.5593 134.95 55.4813C134.95 54.4313 135.146 53.5003 135.538 52.6883C135.944 51.8623 136.525 51.2253 137.281 50.7773C138.037 50.3153 138.919 50.0843 139.927 50.0843C140.795 50.0843 141.558 50.2453 142.216 50.5673C142.874 50.8893 143.406 51.3583 143.812 51.9743L144.043 50.2313H145.345V58.5053L145.66 60.7943H144.211L143.854 58.9673C143.448 59.6113 142.909 60.1013 142.237 60.4373C141.565 60.7733 140.795 60.9413 139.927 60.9413ZM136.609 55.4813C136.609 56.7693 136.924 57.7773 137.554 58.5053C138.198 59.2193 139.066 59.5763 140.158 59.5763C141.264 59.5763 142.132 59.2193 142.762 58.5053C143.406 57.7773 143.728 56.7693 143.728 55.4813C143.728 54.2213 143.406 53.2343 142.762 52.5203C142.132 51.8063 141.264 51.4493 140.158 51.4493C139.066 51.4493 138.198 51.8063 137.554 52.5203C136.924 53.2343 136.609 54.2213 136.609 55.4813Z" fill="black"/>
<path d="M153.328 60.9413C152.236 60.9413 151.284 60.7103 150.472 60.2483C149.66 59.7863 149.037 59.1423 148.603 58.3163C148.169 57.4903 147.952 56.5453 147.952 55.4813C147.952 54.4313 148.169 53.5003 148.603 52.6883C149.037 51.8623 149.66 51.2253 150.472 50.7773C151.284 50.3153 152.236 50.0843 153.328 50.0843C154.686 50.0843 155.82 50.4483 156.73 51.1763C157.64 51.8903 158.228 52.8563 158.494 54.0743H156.835C156.597 53.2343 156.177 52.5903 155.575 52.1423C154.973 51.6803 154.224 51.4493 153.328 51.4493C152.18 51.4493 151.27 51.8063 150.598 52.5203C149.94 53.2343 149.611 54.2213 149.611 55.4813C149.611 56.7693 149.94 57.7773 150.598 58.5053C151.27 59.2193 152.18 59.5763 153.328 59.5763C154.238 59.5763 154.994 59.3453 155.596 58.8833C156.212 58.4213 156.632 57.7703 156.856 56.9303H158.536C158.27 58.1623 157.682 59.1423 156.772 59.8703C155.862 60.5843 154.714 60.9413 153.328 60.9413Z" fill="black"/>
<path d="M160.869 45.7793H162.486V54.6203H163.767L167.736 50.2313H169.71L165.09 55.2503L169.899 60.7943H167.925L163.788 55.9643H162.486V60.7943H160.869V45.7793Z" fill="black"/>
<path d="M174.715 60.9413C173.273 60.9413 172.174 60.6263 171.418 59.9963C170.676 59.3663 170.305 58.4843 170.305 57.3503H171.922C171.936 58.8623 172.902 59.6183 174.82 59.6183C176.486 59.6183 177.319 59.0513 177.319 57.9173C177.319 57.4833 177.193 57.1403 176.941 56.8883C176.689 56.6363 176.395 56.4543 176.059 56.3423C175.737 56.2303 175.17 56.0693 174.358 55.8593C173.098 55.5233 172.188 55.1453 171.628 54.7253C171.082 54.3053 170.809 53.6823 170.809 52.8563C170.809 51.9463 171.145 51.2603 171.817 50.7983C172.489 50.3223 173.42 50.0843 174.61 50.0843C175.954 50.0843 176.948 50.3573 177.592 50.9033C178.236 51.4493 178.558 52.1843 178.558 53.1083H176.983C176.983 51.9743 176.178 51.4073 174.568 51.4073C173.938 51.4073 173.434 51.5053 173.056 51.7013C172.692 51.8973 172.51 52.2403 172.51 52.7303C172.51 53.0663 172.594 53.3323 172.762 53.5283C172.944 53.7243 173.182 53.8853 173.476 54.0113C173.784 54.1233 174.239 54.2633 174.841 54.4313C175.765 54.6693 176.5 54.9003 177.046 55.1243C177.606 55.3343 178.068 55.6563 178.432 56.0903C178.81 56.5243 178.999 57.0913 178.999 57.7913C178.999 58.7573 178.635 59.5273 177.907 60.1013C177.193 60.6613 176.129 60.9413 174.715 60.9413Z" fill="black"/>
<path d="M187.083 60.9413C186.243 60.9413 185.494 60.7803 184.836 60.4583C184.178 60.1363 183.646 59.6743 183.24 59.0723V65.2463H181.644V52.4993L181.329 50.2313H182.757L183.135 52.1213C183.541 51.4633 184.08 50.9593 184.752 50.6093C185.424 50.2593 186.201 50.0843 187.083 50.0843C188.091 50.0843 188.966 50.3153 189.708 50.7773C190.45 51.2253 191.017 51.8623 191.409 52.6883C191.815 53.5143 192.018 54.4593 192.018 55.5233C192.018 56.5873 191.815 57.5323 191.409 58.3583C191.017 59.1703 190.45 59.8073 189.708 60.2693C188.966 60.7173 188.091 60.9413 187.083 60.9413ZM183.24 55.5233C183.24 56.7833 183.555 57.7703 184.185 58.4843C184.829 59.1983 185.704 59.5553 186.81 59.5553C187.902 59.5553 188.77 59.1983 189.414 58.4843C190.058 57.7703 190.38 56.7833 190.38 55.5233C190.38 54.2493 190.058 53.2483 189.414 52.5203C188.77 51.7923 187.902 51.4283 186.81 51.4283C185.718 51.4283 184.85 51.7923 184.206 52.5203C183.562 53.2483 183.24 54.2493 183.24 55.5233Z" fill="black"/>
<path d="M198.846 60.9413C197.838 60.9413 196.956 60.7173 196.2 60.2693C195.444 59.8073 194.863 59.1633 194.457 58.3373C194.065 57.5113 193.869 56.5593 193.869 55.4813C193.869 54.4313 194.065 53.5003 194.457 52.6883C194.863 51.8623 195.444 51.2253 196.2 50.7773C196.956 50.3153 197.838 50.0843 198.846 50.0843C199.714 50.0843 200.477 50.2453 201.135 50.5673C201.793 50.8893 202.325 51.3583 202.731 51.9743L202.962 50.2313H204.264V58.5053L204.579 60.7943H203.13L202.773 58.9673C202.367 59.6113 201.828 60.1013 201.156 60.4373C200.484 60.7733 199.714 60.9413 198.846 60.9413ZM195.528 55.4813C195.528 56.7693 195.843 57.7773 196.473 58.5053C197.117 59.2193 197.985 59.5763 199.077 59.5763C200.183 59.5763 201.051 59.2193 201.681 58.5053C202.325 57.7773 202.647 56.7693 202.647 55.4813C202.647 54.2213 202.325 53.2343 201.681 52.5203C201.051 51.8063 200.183 51.4493 199.077 51.4493C197.985 51.4493 197.117 51.8063 196.473 52.5203C195.843 53.2343 195.528 54.2213 195.528 55.4813Z" fill="black"/>
<path d="M212.247 60.9413C211.155 60.9413 210.203 60.7103 209.391 60.2483C208.579 59.7863 207.956 59.1423 207.522 58.3163C207.088 57.4903 206.871 56.5453 206.871 55.4813C206.871 54.4313 207.088 53.5003 207.522 52.6883C207.956 51.8623 208.579 51.2253 209.391 50.7773C210.203 50.3153 211.155 50.0843 212.247 50.0843C213.605 50.0843 214.739 50.4483 215.649 51.1763C216.559 51.8903 217.147 52.8563 217.413 54.0743H215.754C215.516 53.2343 215.096 52.5903 214.494 52.1423C213.892 51.6803 213.143 51.4493 212.247 51.4493C211.099 51.4493 210.189 51.8063 209.517 52.5203C208.859 53.2343 208.53 54.2213 208.53 55.4813C208.53 56.7693 208.859 57.7773 209.517 58.5053C210.189 59.2193 211.099 59.5763 212.247 59.5763C213.157 59.5763 213.913 59.3453 214.515 58.8833C215.131 58.4213 215.551 57.7703 215.775 56.9303H217.455C217.189 58.1623 216.601 59.1423 215.691 59.8703C214.781 60.5843 213.633 60.9413 212.247 60.9413Z" fill="black"/>
<path d="M224.387 60.9413C223.295 60.9413 222.343 60.7173 221.531 60.2693C220.733 59.8073 220.117 59.1703 219.683 58.3583C219.249 57.5323 219.032 56.5873 219.032 55.5233C219.032 54.4453 219.242 53.5003 219.662 52.6883C220.096 51.8623 220.712 51.2253 221.51 50.7773C222.308 50.3153 223.239 50.0843 224.303 50.0843C225.899 50.0843 227.159 50.5463 228.083 51.4703C229.007 52.3803 229.49 53.6123 229.532 55.1663C229.532 55.4603 229.518 55.6983 229.49 55.8803H220.712C220.782 57.0003 221.139 57.8963 221.783 58.5683C222.441 59.2263 223.316 59.5553 224.408 59.5553C225.29 59.5553 226.032 59.3733 226.634 59.0093C227.236 58.6313 227.628 58.1483 227.81 57.5603H229.427C229.119 58.6243 228.524 59.4573 227.642 60.0593C226.76 60.6473 225.675 60.9413 224.387 60.9413ZM227.747 54.4943C227.649 53.5283 227.299 52.7793 226.697 52.2473C226.095 51.7153 225.29 51.4493 224.282 51.4493C223.288 51.4493 222.49 51.7293 221.888 52.2893C221.3 52.8493 220.929 53.5843 220.775 54.4943H227.747Z" fill="black"/>
<path d="M170.789 23.6731C170.789 17.4479 174.859 13.0908 181.208 13.0908C186.395 13.0908 190.091 16.1216 191.209 20.727H188.968C188.014 17.0359 185.153 14.9194 181.208 14.9194C176.185 14.9194 172.99 18.1985 172.99 23.6731C172.99 29.2324 176.185 32.5566 181.208 32.5566C185.232 32.5566 188.099 30.4401 189.053 26.7039H191.294C190.216 31.3093 186.479 34.3796 181.208 34.3796C174.859 34.3796 170.789 29.983 170.789 23.6731Z" fill="black"/>
<path d="M202.582 23.1764L212.831 34.1312H210.173L200.877 24.0907H198.055V34.1312H195.899V4.45557H198.055V22.2169H200.877L209.8 13.2939H212.458L202.582 23.1764Z" fill="black"/>
<path d="M213.66 27.4094H215.777C215.777 31.1456 218.599 32.5961 222.087 32.5961C225.53 32.5961 227.894 31.3488 227.894 28.5269C227.894 25.2083 224.615 24.7116 221.336 23.8368C217.103 22.6742 214.778 21.5962 214.778 18.2776C214.778 14.8743 217.391 13.0908 221.793 13.0908C226.98 13.0908 229.221 15.5008 229.221 18.983H227.144C227.144 16.1216 224.903 14.8743 221.748 14.8743C219.344 14.8743 216.973 15.5798 216.973 18.0687C216.973 20.6424 219.129 21.139 222.036 21.9292C226.021 22.9676 230.09 23.961 230.09 28.3632C230.09 31.806 227.556 34.3796 221.996 34.3796C216.567 34.3796 213.66 31.727 213.66 27.4094Z" fill="black"/>
<path d="M67.6702 23.526C67.6702 30.073 64.4193 34.5316 58.6681 34.5316C55.2479 34.5316 52.663 32.9062 51.3311 29.7795L50.5409 34.1591H45.7493V29.6553V5.31885H51.5004V16.9791C52.917 14.1459 55.3777 12.6446 58.6681 12.6446C64.4193 12.6446 67.6702 17.1033 67.6702 23.526ZM61.8739 23.526C61.8739 19.6882 59.955 17.4419 56.6646 17.4419C53.4137 17.4419 51.4948 19.6938 51.4948 23.526C51.4948 27.4881 53.4137 29.74 56.6646 29.74C59.955 29.7343 61.8739 27.4824 61.8739 23.526Z" fill="black"/>
<path d="M83.0215 34.1535V13.0171H88.7726V34.1535H83.0215Z" fill="black"/>
<path d="M114.582 23.6048C114.582 30.067 111.331 34.5257 105.58 34.5257C102.29 34.5257 99.8291 33.0244 98.4125 30.1912V41.3492H92.6614V17.515V13.0112H97.453L98.2432 17.3908C99.6203 14.2641 102.16 12.6387 105.58 12.6387C111.331 12.6443 114.582 17.103 114.582 23.6048ZM108.786 23.6048C108.786 19.6879 106.867 17.436 103.577 17.436C100.326 17.436 98.4069 19.6879 98.4069 23.6048C98.4069 27.4821 100.326 29.734 103.577 29.734C106.867 29.734 108.786 27.4821 108.786 23.6048Z" fill="black"/>
<path d="M89.2185 9.95252C89.4273 9.48972 89.5572 8.98177 89.5572 8.43996C89.5572 6.41945 87.9204 4.78271 85.8999 4.78271C83.8794 4.78271 82.2427 6.41945 82.2427 8.43996C82.2427 8.98177 82.3668 9.48972 82.5813 9.95252H89.2185Z" fill="black"/>
<path d="M75.3515 29.153H80.5213V34.1535H77.4792C71.9764 34.1535 69.6003 31.6928 69.6003 25.1515V5.31885H75.3515V25.3152V29.153Z" fill="black"/>
<path d="M19.1326 0.837402C6.71036 0.837402 0.0449219 5.51055 0.0449219 17.7296C0.0449219 28.6392 5.6606 37.0035 19.1326 37.0035C19.4712 37.0035 20.1203 37.0035 20.1203 37.0035C20.1203 38.5894 20.1259 40.6212 20.1259 42.3765C20.1259 42.811 20.4702 43.2174 20.9951 43.2174C21.4071 43.2174 21.5199 43.065 21.8473 42.7772C24.2234 40.7284 31.2274 34.3678 31.2274 34.3678C34.721 31.0435 38.2202 27.0759 38.2202 17.7296C38.2202 5.51055 31.5548 0.837402 19.1326 0.837402Z" fill="black"/>
</svg>
