<svg width="268" height="44" viewBox="0 0 268 44" fill="none" xmlns="http://www.w3.org/2000/svg">
<path d="M120.441 27.3088H122.557C122.557 31.045 125.379 32.4955 128.867 32.4955C132.31 32.4955 134.675 31.2482 134.675 28.4263C134.675 25.1077 131.395 24.611 128.116 23.7362C123.883 22.5736 121.558 21.4956 121.558 18.177C121.558 14.7737 124.171 12.9902 128.574 12.9902C133.76 12.9902 136.001 15.4002 136.001 18.8825H133.924C133.924 16.021 131.683 14.7737 128.528 14.7737C126.118 14.7737 123.754 15.4792 123.754 17.9682C123.754 20.5418 125.91 21.0384 128.816 21.8286C132.801 22.8671 136.87 23.8604 136.87 28.2626C136.87 31.7054 134.336 34.279 128.777 34.279C123.347 34.279 120.441 31.6264 120.441 27.3088Z" fill="black"/>
<path d="M141.775 24.82V13.1992H143.891V24.8595C143.891 30.5034 146.38 32.4562 150.201 32.4562C154.022 32.4562 156.466 30.5034 156.466 24.8595V13.1992H158.622V24.82C158.622 31.1299 155.715 34.2848 150.195 34.2848C144.636 34.2792 141.775 31.1242 141.775 24.82Z" fill="black"/>
<path d="M184.894 23.6564C184.894 29.8817 181.118 34.2783 175.181 34.2783C171.529 34.2783 168.668 32.7431 167.048 29.8817V42.8739H164.931V17.6852L164.35 13.204H166.094L166.963 17.6005C168.538 14.6149 171.444 12.9951 175.181 12.9951C181.118 12.9895 184.894 17.3466 184.894 23.6564ZM182.698 23.6564C182.698 18.0972 179.628 14.773 174.899 14.773C170.124 14.773 167.054 18.0916 167.054 23.6564C167.054 29.1367 170.124 32.4553 174.899 32.4553C179.622 32.4553 182.698 29.131 182.698 23.6564Z" fill="black"/>
<path d="M210.003 23.6564C210.003 29.8817 206.228 34.2783 200.29 34.2783C196.639 34.2783 193.777 32.7431 192.157 29.8817V42.8739H190.041V17.6852L189.46 13.204H191.204L192.073 17.6005C193.647 14.6149 196.554 12.9951 200.29 12.9951C206.228 12.9895 210.003 17.3466 210.003 23.6564ZM207.808 23.6564C207.808 18.0972 204.738 14.773 200.008 14.773C195.233 14.773 192.163 18.0916 192.163 23.6564C192.163 29.1367 195.233 32.4553 200.008 32.4553C204.732 32.4553 207.808 29.131 207.808 23.6564Z" fill="black"/>
<path d="M213.661 23.5725C213.661 17.3473 217.73 12.9902 224.119 12.9902C230.508 12.9902 234.577 17.3473 234.577 23.5725C234.577 29.8824 230.508 34.279 224.119 34.279C217.73 34.279 213.661 29.8824 213.661 23.5725ZM232.376 23.5725C232.376 18.0923 229.136 14.8189 224.074 14.8189C219.051 14.8189 215.856 18.098 215.856 23.5725C215.856 29.1318 219.051 32.456 224.074 32.456C229.142 32.456 232.376 29.1318 232.376 23.5725Z" fill="black"/>
<path d="M239.724 34.0308V17.6805L239.437 15.1915L239.149 13.1992H240.893L241.638 16.6025C242.637 14.3224 244.584 13.1992 248.111 13.1992H249.483V15.4003H248.072C243.218 15.4003 241.846 17.1443 241.846 22.8277V34.0308H239.724Z" fill="black"/>
<path d="M267.075 32.0834V34.0362H264.213C258.733 34.0362 256.577 31.7109 256.577 25.1978V15.1461H251.221V13.1933H256.617L257.074 6.71973H258.693V13.1933H266.33V15.1461H258.693V25.4405C258.693 29.6734 259.484 32.0777 264.05 32.0777H267.075V32.0834Z" fill="black"/>
<path d="M67.6252 23.426C67.6252 29.9729 64.3743 34.4315 58.6232 34.4315C55.203 34.4315 52.6181 32.8061 51.2862 29.6794L50.496 34.059H45.7043V29.5552V5.21875H51.4555V16.879C52.8721 14.0458 55.3328 12.5445 58.6232 12.5445C64.3743 12.5445 67.6252 17.0032 67.6252 23.426ZM61.8289 23.426C61.8289 19.5881 59.91 17.3418 56.6196 17.3418C53.3688 17.3418 51.4498 19.5937 51.4498 23.426C51.4498 27.388 53.3688 29.6399 56.6196 29.6399C59.91 29.6342 61.8289 27.3823 61.8289 23.426Z" fill="black"/>
<path d="M82.9766 34.0534V12.917H88.7277V34.0534H82.9766Z" fill="black"/>
<path d="M114.537 23.5052C114.537 29.9674 111.286 34.4261 105.535 34.4261C102.245 34.4261 99.7842 32.9248 98.3676 30.0916V41.2496H92.6165V17.4154V12.9116H97.4081L98.1983 17.2912C99.5754 14.1645 102.115 12.5391 105.535 12.5391C111.286 12.5447 114.537 17.0034 114.537 23.5052ZM108.741 23.5052C108.741 19.5883 106.822 17.3364 103.532 17.3364C100.281 17.3364 98.3619 19.5883 98.3619 23.5052C98.3619 27.3825 100.281 29.6344 103.532 29.6344C106.822 29.6344 108.741 27.3825 108.741 23.5052Z" fill="black"/>
<path d="M89.1734 9.85243C89.3822 9.38963 89.512 8.88168 89.512 8.33986C89.512 6.31935 87.8753 4.68262 85.8548 4.68262C83.8342 4.68262 82.1975 6.31935 82.1975 8.33986C82.1975 8.88168 82.3217 9.38963 82.5361 9.85243H89.1734Z" fill="black"/>
<path d="M75.3065 29.0529H80.4764V34.0534H77.4343C71.9315 34.0534 69.5554 31.5927 69.5554 25.0514V5.21875H75.3065V25.2151V29.0529Z" fill="black"/>
<path d="M19.0876 0.737305C6.66544 0.737305 0 5.41045 0 17.6295C0 28.5391 5.61567 36.9034 19.0876 36.9034C19.4263 36.9034 20.0753 36.9034 20.0753 36.9034C20.0753 38.4893 20.081 40.5211 20.081 42.2764C20.081 42.7109 20.4253 43.1173 20.9501 43.1173C21.3621 43.1173 21.475 42.9649 21.8024 42.6771C24.1784 40.6283 31.1825 34.2677 31.1825 34.2677C34.6761 30.9434 38.1753 26.9758 38.1753 17.6295C38.1753 5.41045 31.5099 0.737305 19.0876 0.737305Z" fill="#0096FA"/>
</svg>
