<svg width="216" height="43" viewBox="0 0 216 43" fill="none" xmlns="http://www.w3.org/2000/svg">
<path d="M134.883 31.3637V33.3165H132.022C126.542 33.3165 124.386 30.9912 124.386 24.4781V14.4263H119.03V12.4735H124.425L124.882 6H126.502V12.4735H134.138V14.4263H126.502V24.7208C126.502 28.9537 127.292 31.358 131.858 31.358H134.883V31.3637Z" fill="black"/>
<path d="M137 22.8528C137 16.6276 141.069 12.2705 147.458 12.2705C153.847 12.2705 157.916 16.6276 157.916 22.8528C157.916 29.1627 153.847 33.5593 147.458 33.5593C141.069 33.5593 137 29.1627 137 22.8528ZM155.715 22.8528C155.715 17.3726 152.476 14.0991 147.413 14.0991C142.39 14.0991 139.195 17.3782 139.195 22.8528C139.195 28.412 142.39 31.7363 147.413 31.7363C152.481 31.7363 155.715 28.412 155.715 22.8528Z" fill="black"/>
<path d="M161.568 22.8528C161.568 16.6276 165.637 12.2705 172.026 12.2705C178.415 12.2705 182.484 16.6276 182.484 22.8528C182.484 29.1627 178.415 33.5593 172.026 33.5593C165.637 33.5593 161.568 29.1627 161.568 22.8528ZM180.289 22.8528C180.289 17.3726 177.049 14.0991 171.986 14.0991C166.963 14.0991 163.769 17.3782 163.769 22.8528C163.769 28.412 166.963 31.7363 171.986 31.7363C177.049 31.7363 180.289 28.412 180.289 22.8528Z" fill="black"/>
<path d="M194.855 33.3106C189.375 33.3106 187.304 31.0699 187.304 24.3481V3.64062H189.46V24.7206C189.46 28.914 190.165 31.4029 194.731 31.4029H196.058V33.3106H194.855Z" fill="black"/>
<path d="M198.677 26.5891H200.793C200.793 30.3253 203.615 31.7758 207.103 31.7758C210.546 31.7758 212.91 30.5285 212.91 27.7066C212.91 24.388 209.631 23.8913 206.352 23.0165C202.119 21.8538 199.794 20.7759 199.794 17.4572C199.794 14.054 202.407 12.2705 206.809 12.2705C211.996 12.2705 214.237 14.6805 214.237 18.1627H212.16C212.16 15.3013 209.919 14.054 206.764 14.054C204.36 14.054 201.989 14.7595 201.989 17.2484C201.989 19.822 204.145 20.3187 207.052 21.1088C211.037 22.1473 215.106 23.1406 215.106 27.5429C215.106 30.9857 212.572 33.5593 207.013 33.5593C201.577 33.5593 198.677 30.9066 198.677 26.5891Z" fill="black"/>
<path d="M67.625 22.7052C67.625 29.2522 64.3741 33.7108 58.623 33.7108C55.2028 33.7108 52.6179 32.0854 51.2859 28.9587L50.4958 33.3383H45.7041V28.8345V4.49805H51.4552V16.1583C52.8718 13.3251 55.3326 11.8238 58.623 11.8238C64.3741 11.8238 67.625 16.2825 67.625 22.7052ZM61.8287 22.7052C61.8287 18.8674 59.9098 16.6211 56.6194 16.6211C53.3685 16.6211 51.4496 18.873 51.4496 22.7052C51.4496 26.6673 53.3685 28.9192 56.6194 28.9192C59.9098 28.9135 61.8287 26.6616 61.8287 22.7052Z" fill="black"/>
<path d="M82.9766 33.3327V12.1963H88.7277V33.3327H82.9766Z" fill="black"/>
<path d="M114.537 22.7835C114.537 29.2457 111.286 33.7044 105.535 33.7044C102.245 33.7044 99.784 32.2031 98.3673 29.3699V40.5279H92.6162V16.6937V12.1899H97.4079L98.198 16.5695C99.5751 13.4428 102.115 11.8174 105.535 11.8174C111.286 11.823 114.537 16.2817 114.537 22.7835ZM108.741 22.7835C108.741 18.8666 106.822 16.6147 103.531 16.6147C100.281 16.6147 98.3617 18.8666 98.3617 22.7835C98.3617 26.6608 100.281 28.9127 103.531 28.9127C106.822 28.9127 108.741 26.6608 108.741 22.7835Z" fill="black"/>
<path d="M75.3063 28.3322H80.4761V33.3327H77.434C71.9313 33.3327 69.5552 30.872 69.5552 24.3307V4.49805H75.3063V24.4944V28.3322Z" fill="black"/>
<path d="M19.0876 0.0166016C6.66543 0.0166016 0 4.68975 0 16.9088C0 27.8184 5.61567 36.1827 19.0876 36.1827C19.4263 36.1827 20.0753 36.1827 20.0753 36.1827C20.0753 37.7686 20.081 39.8004 20.081 41.5557C20.081 41.9902 20.4252 42.3966 20.9501 42.3966C21.3621 42.3966 21.475 42.2442 21.8024 41.9564C24.1784 39.9076 31.1825 33.547 31.1825 33.547C34.6761 30.2227 38.1753 26.2551 38.1753 16.9088C38.1753 4.68975 31.5099 0.0166016 19.0876 0.0166016Z" fill="#0096FA"/>
<path d="M89.1736 9.13172C89.3824 8.66892 89.5122 8.16097 89.5122 7.61916C89.5122 5.59865 87.8755 3.96191 85.855 3.96191C83.8345 3.96191 82.1978 5.59865 82.1978 7.61916C82.1978 8.16097 82.3219 8.66892 82.5364 9.13172H89.1736Z" fill="black"/>
</svg>
