<svg width="326" height="44" viewBox="0 0 326 44" fill="none" xmlns="http://www.w3.org/2000/svg">
<path d="M125.429 32.9033C123.838 32.0028 122.638 30.7422 121.797 29.1215C120.957 27.5007 120.537 25.6699 120.537 23.5689C120.537 21.4979 120.957 19.667 121.797 18.0463C122.638 16.4555 123.838 15.1949 125.399 14.2945C126.96 13.3941 128.731 12.9438 130.742 12.9438C133.803 12.9438 136.234 13.8443 138.035 15.6151C139.806 17.3859 140.766 19.7871 140.826 22.7285V23.3888C140.826 23.6589 140.826 23.899 140.796 24.0491H122.728C122.848 26.4802 123.628 28.4912 125.069 30.0519C126.51 31.6127 128.491 32.393 130.952 32.393C132.873 32.393 134.493 31.9428 135.814 31.0724C137.165 30.202 138.035 29.0915 138.485 27.7408H140.646C139.956 29.7518 138.755 31.3425 137.045 32.4831C135.334 33.6236 133.293 34.1939 130.922 34.1939C128.821 34.2539 126.99 33.8037 125.429 32.9033ZM138.515 22.2182C138.425 19.9672 137.705 18.1663 136.294 16.8157C134.884 15.465 133.023 14.7747 130.682 14.7747C128.401 14.7747 126.6 15.465 125.219 16.8457C123.838 18.2263 123.028 20.0272 122.788 22.1882H138.515V22.2182Z" fill="white"/>
<path d="M149.23 32.9033C147.64 32.0028 146.439 30.7422 145.569 29.1215C144.698 27.5007 144.278 25.6398 144.278 23.5388C144.278 21.4979 144.698 19.667 145.569 18.0463C146.439 16.4555 147.64 15.1949 149.23 14.2945C150.821 13.3941 152.622 12.9438 154.723 12.9438C157.304 12.9438 159.465 13.6342 161.206 14.9848C162.977 16.3655 164.117 18.2263 164.718 20.5674H162.467C161.986 18.7066 161.086 17.2959 159.705 16.2754C158.325 15.2549 156.674 14.7747 154.693 14.7747C152.172 14.7747 150.161 15.5551 148.69 17.1158C147.219 18.6766 146.469 20.8076 146.469 23.5388C146.469 26.3002 147.219 28.4912 148.69 30.0519C150.161 31.6427 152.172 32.423 154.693 32.423C156.704 32.423 158.415 31.9128 159.765 30.8923C161.146 29.8718 162.046 28.4312 162.527 26.5703H164.778C164.237 28.9114 163.067 30.8023 161.296 32.1829C159.525 33.5636 157.334 34.2539 154.693 34.2539C152.652 34.2539 150.821 33.8037 149.23 32.9033Z" fill="white"/>
<path d="M172.852 32.9033C171.261 32.0028 170.06 30.7422 169.19 29.1215C168.319 27.5007 167.899 25.6398 167.899 23.5388C167.899 21.4979 168.319 19.667 169.19 18.0463C170.06 16.4555 171.261 15.1949 172.852 14.2945C174.442 13.3941 176.273 12.9438 178.374 12.9438C180.475 12.9438 182.306 13.3941 183.897 14.2945C185.487 15.1949 186.688 16.4555 187.558 18.0463C188.429 19.637 188.849 21.4679 188.849 23.5388C188.849 25.6398 188.429 27.5007 187.558 29.1215C186.688 30.7422 185.487 32.0028 183.897 32.9033C182.306 33.8037 180.475 34.2539 178.374 34.2539C176.273 34.2539 174.442 33.8037 172.852 32.9033ZM172.341 30.0519C173.812 31.6427 175.823 32.423 178.344 32.423C180.895 32.423 182.906 31.6427 184.407 30.0519C185.908 28.4612 186.658 26.3002 186.658 23.5388C186.658 20.8376 185.908 18.6766 184.407 17.1158C182.906 15.5551 180.895 14.7747 178.344 14.7747C175.823 14.7747 173.812 15.5551 172.341 17.1158C170.871 18.6766 170.12 20.8076 170.12 23.5388C170.12 26.3002 170.841 28.4612 172.341 30.0519Z" fill="white"/>
<path d="M194.552 32.3928C193.111 31.1622 192.391 29.4514 192.391 27.2604H194.522C194.522 29.0312 195.092 30.3518 196.263 31.1922C197.433 32.0326 198.964 32.4528 200.855 32.4528C202.626 32.4528 204.036 32.1227 205.057 31.4323C206.107 30.742 206.618 29.7516 206.618 28.3709C206.618 27.4405 206.377 26.6901 205.867 26.1198C205.357 25.5496 204.757 25.1294 204.006 24.8592C203.286 24.5891 202.266 24.289 200.945 23.9588L200.044 23.7187C198.454 23.2985 197.223 22.8783 196.323 22.4581C195.422 22.0379 194.702 21.4676 194.222 20.8073C193.741 20.117 193.501 19.2466 193.501 18.1661C193.501 16.4853 194.132 15.1947 195.362 14.2943C196.593 13.4238 198.304 12.9736 200.525 12.9736C203.016 12.9736 204.877 13.4839 206.107 14.5344C207.338 15.5849 207.968 16.9355 207.968 18.6763H205.897C205.897 17.4157 205.417 16.4253 204.427 15.7649C203.436 15.1046 202.145 14.7745 200.495 14.7745C199.114 14.7745 197.974 15.0146 197.103 15.4948C196.203 15.975 195.782 16.8154 195.782 17.956C195.782 18.7664 195.993 19.3967 196.383 19.8769C196.773 20.3571 197.283 20.6873 197.913 20.9274C198.544 21.1675 199.474 21.4676 200.765 21.8278C202.596 22.308 204.036 22.7282 205.087 23.1484C206.137 23.5386 207.038 24.1689 207.758 25.0093C208.478 25.8497 208.869 26.9302 208.869 28.2809C208.869 30.0817 208.178 31.5224 206.828 32.6329C205.477 33.7434 203.466 34.2837 200.765 34.2837C198.064 34.2537 195.993 33.6234 194.552 32.3928Z" fill="white"/>
<path d="M217.543 40.467H220.244C223.035 40.467 225.106 39.7466 226.457 38.2759C227.808 36.8352 228.468 34.6442 228.468 31.7028V29.7219C227.808 30.9525 226.877 31.8529 225.737 32.4832C224.596 33.1135 223.185 33.4136 221.595 33.4136C218.863 33.4136 216.852 32.6032 215.622 31.0125C214.391 29.4217 213.761 26.9906 213.761 23.7791V13.1841H215.922V23.689C215.922 26.3903 216.402 28.4013 217.393 29.6619C218.383 30.9225 219.884 31.5828 221.925 31.5828C224.176 31.5828 225.827 30.8924 226.877 29.4818C227.928 28.0711 228.468 26.1202 228.468 23.599V13.1841H230.599V31.1626C230.599 34.9143 229.729 37.7057 227.988 39.5365C226.247 41.3674 223.636 42.2678 220.184 42.2678H217.573V40.467H217.543Z" fill="white"/>
<path d="M237.472 32.3928C236.031 31.1622 235.311 29.4514 235.311 27.2604H237.442C237.442 29.0312 238.012 30.3518 239.183 31.1922C240.353 32.0326 241.884 32.4528 243.775 32.4528C245.546 32.4528 246.957 32.1227 247.977 31.4323C249.028 30.742 249.538 29.7516 249.538 28.3709C249.538 27.4405 249.298 26.6901 248.787 26.1198C248.277 25.5496 247.677 25.1294 246.927 24.8592C246.206 24.5891 245.186 24.289 243.865 23.9588L242.965 23.7187C241.374 23.2985 240.143 22.8783 239.243 22.4581C238.342 22.0379 237.622 21.4676 237.142 20.8073C236.662 20.117 236.422 19.2466 236.422 18.1661C236.422 16.4853 237.052 15.1947 238.282 14.2943C239.513 13.4238 241.224 12.9736 243.445 12.9736C245.936 12.9736 247.797 13.4839 249.028 14.5344C250.258 15.5849 250.888 16.9355 250.888 18.6763H248.817C248.817 17.4157 248.337 16.4253 247.347 15.7649C246.356 15.1046 245.066 14.7745 243.415 14.7745C242.034 14.7745 240.894 15.0146 240.023 15.4948C239.123 15.975 238.703 16.8154 238.703 17.956C238.703 18.7664 238.913 19.3967 239.303 19.8769C239.693 20.3571 240.203 20.6873 240.834 20.9274C241.464 21.1675 242.394 21.4676 243.685 21.8278C245.516 22.308 246.957 22.7282 248.007 23.1484C249.058 23.5386 249.958 24.1689 250.678 25.0093C251.399 25.8497 251.789 26.9302 251.789 28.2809C251.789 30.0817 251.098 31.5224 249.748 32.6329C248.397 33.7434 246.386 34.2837 243.685 34.2837C240.984 34.2537 238.913 33.6234 237.472 32.3928Z" fill="white"/>
<path d="M261.904 33.1439C260.793 32.5736 259.983 31.6432 259.473 30.3526C258.962 29.062 258.692 27.3211 258.692 25.1301V15.0754H253.35V13.1544H258.752L259.202 6.67139H260.823V13.1544H268.447V15.0754H260.823V25.3702C260.823 26.9309 260.973 28.1615 261.243 29.092C261.513 30.0224 262.054 30.7427 262.834 31.253C263.614 31.7632 264.725 32.0033 266.196 32.0033H269.197V33.9543H266.376C264.515 33.9843 263.014 33.7142 261.904 33.1439Z" fill="white"/>
<path d="M276.28 32.9033C274.689 32.0028 273.489 30.7422 272.649 29.1215C271.808 27.5007 271.388 25.6699 271.388 23.5689C271.388 21.4979 271.808 19.667 272.649 18.0463C273.489 16.4555 274.69 15.1949 276.25 14.2945C277.811 13.3941 279.582 12.9438 281.593 12.9438C284.654 12.9438 287.085 13.8443 288.886 15.6151C290.657 17.3859 291.617 19.7871 291.678 22.7285V23.3888C291.678 23.6589 291.678 23.899 291.647 24.0491H273.579C273.699 26.4802 274.479 28.4912 275.92 30.0519C277.361 31.6127 279.342 32.393 281.803 32.393C283.724 32.393 285.345 31.9428 286.665 31.0724C288.016 30.202 288.886 29.0915 289.336 27.7408H291.497C290.807 29.7518 289.607 31.3425 287.896 32.4831C286.185 33.6236 284.144 34.1939 281.773 34.1939C279.702 34.2539 277.841 33.8037 276.28 32.9033ZM289.396 22.2182C289.306 19.9672 288.586 18.1663 287.175 16.8157C285.765 15.465 283.904 14.7747 281.563 14.7747C279.282 14.7747 277.481 15.465 276.1 16.8457C274.72 18.2263 273.909 20.0272 273.669 22.1882H289.396V22.2182Z" fill="white"/>
<path d="M296.66 17.6859L296.09 13.2137H297.83L298.581 16.8755C299.751 14.2642 301.882 12.9736 305.004 12.9736C306.745 12.9736 308.155 13.3338 309.236 14.0842C310.316 14.8345 311.097 15.975 311.607 17.5358C312.177 15.975 313.048 14.8345 314.218 14.0842C315.389 13.3338 316.769 12.9736 318.42 12.9736C320.941 12.9736 322.772 13.754 323.943 15.2847C325.113 16.8455 325.684 19.2466 325.684 22.5482V34.0136H323.523V22.6682C323.523 19.8769 323.072 17.8659 322.142 16.6354C321.241 15.4048 319.861 14.7745 318.06 14.7745C314.158 14.7745 312.207 17.4157 312.207 22.7282V33.9835H310.046V22.6382C310.046 19.8469 309.596 17.8359 308.666 16.6053C307.765 15.3748 306.384 14.7445 304.584 14.7445C300.682 14.7445 298.731 17.3857 298.731 22.6982V33.9535H296.6V17.6859H296.66Z" fill="white"/>
<path d="M67.622 23.389C67.622 29.9321 64.3805 34.4042 58.6178 34.4042C55.1961 34.4042 52.6149 32.7834 51.2943 29.662L50.5139 34.044H45.7117V29.5419V5.17041H51.4744V16.8459C52.8851 14.0246 55.3462 12.5239 58.6478 12.5239C64.3805 12.4939 67.622 16.966 67.622 23.389ZM61.8293 23.389C61.8293 19.5472 59.9084 17.2961 56.6068 17.2961C53.3653 17.2961 51.4444 19.5472 51.4444 23.389C51.4444 27.3509 53.3653 29.6019 56.6068 29.6019C59.9084 29.6019 61.8293 27.3509 61.8293 23.389Z" fill="white"/>
<path d="M82.9592 34.0143V12.8843H88.722V34.0143H82.9592Z" fill="white"/>
<path d="M114.534 23.479C114.534 29.932 111.293 34.4041 105.53 34.4041C102.228 34.4041 99.7671 32.9034 98.3565 30.0821V41.2474H92.5938V17.4161V12.914H97.396L98.1764 17.2961C99.557 14.1746 102.108 12.5538 105.5 12.5538C111.293 12.4938 114.534 16.9659 114.534 23.479ZM108.741 23.479C108.741 19.5471 106.82 17.2961 103.519 17.2961C100.277 17.2961 98.3565 19.5471 98.3565 23.479C98.3565 27.3508 100.277 29.6019 103.519 29.6019C106.82 29.6019 108.741 27.3508 108.741 23.479Z" fill="white"/>
<path d="M89.172 9.82259C89.3821 9.37238 89.5022 8.86214 89.5022 8.32189C89.5022 6.31094 87.8514 4.66016 85.8404 4.66016C83.8295 4.66016 82.1787 6.31094 82.1787 8.32189C82.1787 8.86214 82.2988 9.37238 82.5089 9.82259H89.172Z" fill="white"/>
<path d="M75.3055 29.0017H80.4679V34.014H77.4365C71.9439 34.014 69.5728 31.5529 69.5728 25.0098V5.17041H75.3355V25.1598V29.0017H75.3055Z" fill="white"/>
<path d="M19.089 0.698242C6.66314 0.698242 0 5.38045 0 17.5962C0 28.4914 5.61265 36.8653 19.089 36.8653C19.4192 36.8653 20.0795 36.8653 20.0795 36.8653C20.0795 38.4561 20.0795 40.497 20.0795 42.2378C20.0795 42.658 20.4396 43.0782 20.9499 43.0782C21.3701 43.0782 21.4601 42.9282 21.7903 42.628C24.1614 40.5871 31.1847 34.2241 31.1847 34.2241C34.6664 30.8925 38.178 26.9306 38.178 17.5962C38.178 5.38045 31.5149 0.698242 19.089 0.698242Z" fill="#0095F9"/>
</svg>
