<svg width="300" height="44" viewBox="0 0 300 44" fill="none" xmlns="http://www.w3.org/2000/svg">
<path d="M123.81 15.1853H119.352V13.2666H123.81C123.81 6.66414 126.068 4.97119 131.034 4.97119H132.049V6.88987H130.639C126.688 6.88987 126.011 8.86496 126.011 12.9845V13.2666H132.501V15.1853H126.011V34.0898H123.867V15.1853H123.81Z" fill="white"/>
<path d="M133.968 23.5935C133.968 17.386 138.031 12.9844 144.408 12.9844C150.785 12.9844 154.848 17.386 154.848 23.5935C154.848 29.9138 150.785 34.3154 144.408 34.3154C138.031 34.3154 133.968 29.9138 133.968 23.5935ZM144.408 32.5096C149.487 32.5096 152.703 29.1802 152.703 23.6499C152.703 18.176 149.487 14.903 144.408 14.903C139.385 14.903 136.169 18.176 136.169 23.6499C136.169 29.1802 139.385 32.5096 144.408 32.5096Z" fill="white"/>
<path d="M158.516 23.5935C158.516 17.386 162.579 12.9844 168.955 12.9844C175.332 12.9844 179.395 17.386 179.395 23.5935C179.395 29.9138 175.332 34.3154 168.955 34.3154C162.579 34.3154 158.516 29.9138 158.516 23.5935ZM168.955 32.5096C174.034 32.5096 177.251 29.1802 177.251 23.6499C177.251 18.176 174.034 14.903 168.955 14.903C163.933 14.903 160.716 18.176 160.716 23.6499C160.716 29.1802 163.933 32.5096 168.955 32.5096Z" fill="white"/>
<path d="M183.12 23.5937C183.12 17.3862 186.957 12.9846 192.826 12.9846C196.494 12.9846 199.316 14.5082 200.952 17.3298V4.35059H203.097V29.519L203.661 33.9771H201.912L201.065 29.6318C199.485 32.5663 196.607 34.2592 192.826 34.2592C186.901 34.3157 183.12 29.914 183.12 23.5937ZM193.165 32.5098C197.905 32.5098 200.952 29.1804 200.952 23.6501C200.952 18.1763 197.905 14.9032 193.165 14.9032C188.368 14.9032 185.321 18.1763 185.321 23.6501C185.321 29.1804 188.368 32.5098 193.165 32.5098Z" fill="white"/>
<path d="M208.119 27.3179H210.263C210.263 31.0424 213.085 32.5096 216.64 32.5096C220.026 32.5096 222.396 31.2681 222.396 28.4466C222.396 25.1171 219.123 24.6092 215.85 23.7628C211.561 22.6341 209.304 21.5055 209.304 18.1761C209.304 14.7902 211.9 12.9844 216.301 12.9844C221.493 12.9844 223.75 15.4109 223.75 18.6839H221.662C221.662 16.0317 219.405 14.7902 216.245 14.7902C213.818 14.7902 211.505 15.4673 211.505 18.0067C211.505 20.6026 213.649 21.0541 216.471 21.8441C220.477 22.8599 224.54 23.8756 224.54 28.2773C224.54 31.7196 222.001 34.3154 216.471 34.3154C211.053 34.3154 208.119 31.6631 208.119 27.3179Z" fill="white"/>
<path d="M67.6049 23.4808C67.6049 30.0268 64.3318 34.4849 58.6323 34.4849C55.1899 34.4849 52.6505 32.8484 51.2962 29.7447L50.5061 34.1463H45.7095V29.6318V5.25342H51.409V16.9347C52.8198 14.1132 55.3028 12.5895 58.5758 12.5895C64.3318 12.5895 67.6049 17.0476 67.6049 23.4808ZM61.7924 23.4808C61.7924 19.6434 59.8738 17.3862 56.6007 17.3862C53.3277 17.3862 51.409 19.6434 51.409 23.4808C51.409 27.4309 53.3277 29.6882 56.6007 29.6882C59.8738 29.6882 61.7924 27.4309 61.7924 23.4808Z" fill="white"/>
<path d="M82.9541 34.0897V12.9844H88.7101V34.0897H82.9541Z" fill="white"/>
<path d="M114.499 23.5375C114.499 29.9707 111.226 34.4288 105.47 34.4288C102.197 34.4288 99.7144 32.9051 98.3036 30.0836V41.257H92.5476V17.4429V12.9284H97.3443L98.1343 17.3301C99.4887 14.2264 102.028 12.5898 105.47 12.5898C111.226 12.5898 114.499 17.0479 114.499 23.5375ZM108.687 23.5375C108.687 19.6438 106.768 17.3865 103.495 17.3865C100.222 17.3865 98.3036 19.6438 98.3036 23.5375C98.3036 27.4313 100.222 29.6885 103.495 29.6885C106.768 29.6885 108.687 27.4313 108.687 23.5375Z" fill="white"/>
<path d="M89.1049 9.88115C89.3306 9.4297 89.4435 8.92181 89.4435 8.35749C89.4435 6.32596 87.807 4.68945 85.7755 4.68945C83.7439 4.68945 82.1074 6.32596 82.1074 8.35749C82.1074 8.92181 82.2203 9.4297 82.446 9.88115H89.1049Z" fill="white"/>
<path d="M75.2795 29.0675H80.4712V34.0898H77.3674C71.8372 34.0898 69.467 31.6069 69.467 25.0608V5.25342H75.2231V25.2301V29.0675H75.2795Z" fill="white"/>
<path d="M19.0738 0.794922C6.65891 0.794922 0 5.47874 0 17.6679C0 28.5592 5.58671 36.9675 19.0738 36.9675C19.4124 36.9675 20.0896 36.9675 20.0896 36.9675C20.0896 38.5475 20.0896 40.5791 20.0896 42.3285C20.0896 42.7799 20.4282 43.1749 20.9361 43.1749C21.3311 43.1749 21.4439 43.0056 21.7825 42.7235C24.1526 40.6919 31.1501 34.3152 31.1501 34.3152C34.6489 30.9857 38.1476 27.0355 38.1476 17.6679C38.1476 5.42231 31.4887 0.794922 19.0738 0.794922Z" fill="#0096FA"/>
<path d="M294.854 35.2185H237.181C234.473 35.2185 232.215 32.9612 232.215 30.2525V16.1447C232.215 13.436 234.473 11.1787 237.181 11.1787H294.911C297.619 11.1787 299.877 13.436 299.877 16.1447V30.2525C299.877 33.0177 297.619 35.2185 294.854 35.2185Z" fill="white"/>
<path d="M243.332 29.124L242.937 31.099H239.833L240.172 28.5032V13.8311H243.502V20.5464C244.348 19.2484 245.759 18.6277 247.452 18.6277C250.95 18.6277 252.869 21.2236 252.869 24.948C252.869 28.729 250.95 31.3248 247.452 31.3248C245.589 31.3248 244.179 30.5912 243.332 29.124ZM246.492 28.5596C248.411 28.5596 249.483 27.2617 249.483 24.948C249.483 22.7472 248.355 21.4493 246.492 21.4493C244.63 21.4493 243.502 22.7472 243.502 24.948C243.502 27.2617 244.63 28.5596 246.492 28.5596Z" fill="black"/>
<path d="M254.506 25.0603C254.506 21.223 256.819 18.6836 260.995 18.6836C265.171 18.6836 267.372 21.0537 267.428 24.8346C267.428 25.1168 267.428 25.3989 267.372 25.6811H257.948C258.174 27.7126 259.302 28.8412 261.165 28.8412C262.801 28.8412 263.704 28.1641 263.986 27.3176H267.316C266.751 29.9699 264.494 31.3242 261.108 31.3242C256.706 31.3242 254.506 28.6719 254.506 25.0603ZM263.817 23.706C263.648 21.9002 262.745 20.9973 260.995 20.9973C259.077 20.9973 258.286 22.2388 258.004 23.706H263.817Z" fill="black"/>
<path d="M270.758 25.9071V21.6183H267.993V18.8531H270.927L271.774 15.0723H274.087V18.8531H277.755V21.6183H274.087V25.9635C274.087 27.4872 274.482 28.1643 276.062 28.1643H278.207V31.0423H275.667C272.451 31.0988 270.758 29.8008 270.758 25.9071Z" fill="black"/>
<path d="M279.166 24.9478C279.166 21.2233 281.141 18.6274 284.64 18.6274C286.446 18.6274 287.8 19.3611 288.703 20.7154L289.042 18.8531H291.863V28.4465L292.202 31.0988H289.098L288.703 29.1801C287.8 30.5909 286.389 31.3245 284.583 31.3245C281.141 31.3245 279.166 28.7287 279.166 24.9478ZM285.543 28.5594C287.461 28.5594 288.534 27.2615 288.534 24.9478C288.534 22.7469 287.405 21.449 285.543 21.449C283.624 21.449 282.552 22.7469 282.552 24.9478C282.552 27.2615 283.681 28.5594 285.543 28.5594Z" fill="black"/>
</svg>
