<svg width="287" height="43" viewBox="0 0 287 43" fill="none" xmlns="http://www.w3.org/2000/svg">
<path d="M128.756 32.6972C126.072 32.6972 124.011 32.0885 122.572 30.8712C121.134 29.6263 120.414 27.911 120.414 25.7253H122.531C122.531 27.496 123.112 28.8101 124.274 29.6678C125.436 30.4977 126.971 30.9127 128.88 30.9127C130.651 30.9127 132.048 30.5807 133.072 29.9168C134.123 29.2251 134.648 28.2015 134.648 26.8458C134.648 25.9052 134.399 25.1582 133.901 24.6049C133.404 24.0239 132.781 23.5951 132.034 23.3184C131.315 23.0417 130.305 22.7374 129.005 22.4054L128.092 22.1564C126.515 21.7414 125.27 21.3264 124.357 20.9115C123.444 20.4688 122.738 19.9155 122.24 19.2515C121.77 18.5598 121.535 17.6745 121.535 16.5956C121.535 14.9079 122.143 13.6215 123.361 12.7361C124.606 11.8508 126.335 11.4082 128.548 11.4082C131.038 11.4082 132.892 11.9338 134.109 12.9851C135.354 14.0088 135.976 15.3782 135.976 17.0935H133.901C133.901 15.8209 133.404 14.8526 132.408 14.1886C131.439 13.5246 130.139 13.1926 128.507 13.1926C127.123 13.1926 125.989 13.4416 125.104 13.9396C124.218 14.4099 123.776 15.2261 123.776 16.3881C123.776 17.1904 123.969 17.8267 124.357 18.297C124.772 18.7673 125.284 19.127 125.892 19.376C126.529 19.5973 127.483 19.8878 128.756 20.2475C130.582 20.7178 132.02 21.1604 133.072 21.5754C134.123 21.9628 135.008 22.5714 135.727 23.4014C136.474 24.2314 136.848 25.3242 136.848 26.6798C136.848 28.4781 136.17 29.9306 134.814 31.0372C133.459 32.1439 131.439 32.6972 128.756 32.6972Z" fill="white"/>
<path d="M142.092 2.77637H144.25V15.2676C144.914 13.9949 145.841 13.0405 147.031 12.4041C148.22 11.7402 149.604 11.4082 151.181 11.4082C153.975 11.4082 156.008 12.2243 157.281 13.8566C158.554 15.4889 159.19 17.9097 159.19 21.1189V32.4482H157.032V21.2434C157.032 18.5322 156.534 16.5264 155.538 15.2261C154.542 13.8981 152.993 13.2341 150.89 13.2341C148.649 13.2341 146.975 13.9258 145.869 15.3091C144.79 16.6647 144.25 18.6013 144.25 21.1189V32.4482H142.092V2.77637Z" fill="white"/>
<path d="M174.48 32.6972C172.378 32.6972 170.538 32.2545 168.961 31.3692C167.384 30.4562 166.167 29.1974 165.309 27.5928C164.452 25.9605 164.023 24.0931 164.023 21.9904C164.023 19.9431 164.452 18.1172 165.309 16.5126C166.167 14.9079 167.384 13.663 168.961 12.7776C170.538 11.8647 172.378 11.4082 174.48 11.4082C176.583 11.4082 178.423 11.8647 180 12.7776C181.577 13.663 182.794 14.9079 183.652 16.5126C184.509 18.1172 184.938 19.9431 184.938 21.9904C184.938 24.0931 184.509 25.9605 183.652 27.5928C182.794 29.1974 181.577 30.4562 180 31.3692C178.423 32.2545 176.583 32.6972 174.48 32.6972ZM166.222 21.9904C166.222 24.757 166.955 26.9288 168.422 28.5058C169.916 30.0827 171.921 30.8712 174.439 30.8712C176.984 30.8712 179.004 30.0827 180.498 28.5058C181.992 26.9288 182.739 24.757 182.739 21.9904C182.739 19.2792 181.992 17.1489 180.498 15.5996C179.004 14.0226 176.984 13.2341 174.439 13.2341C171.921 13.2341 169.916 14.0226 168.422 15.5996C166.955 17.1489 166.222 19.2792 166.222 21.9904Z" fill="white"/>
<path d="M200.326 32.6972C198.5 32.6972 196.882 32.3237 195.471 31.5767C194.087 30.8021 192.994 29.7093 192.192 28.2983V41.329H190.076V16.1391L189.495 11.6572H191.238L192.109 16.0146C192.884 14.5206 193.977 13.3863 195.388 12.6116C196.799 11.8093 198.445 11.4082 200.326 11.4082C202.263 11.4082 203.964 11.8647 205.43 12.7776C206.897 13.663 208.031 14.9079 208.833 16.5126C209.636 18.1172 210.037 19.9708 210.037 22.0734C210.037 24.1484 209.636 25.9882 208.833 27.5928C208.031 29.1974 206.897 30.4562 205.43 31.3692C203.964 32.2545 202.263 32.6972 200.326 32.6972ZM192.192 22.0734C192.192 24.7847 192.898 26.9288 194.309 28.5058C195.72 30.0827 197.628 30.8712 200.035 30.8712C202.415 30.8712 204.31 30.0827 205.721 28.5058C207.132 26.9288 207.837 24.7847 207.837 22.0734C207.837 19.3068 207.132 17.135 205.721 15.5581C204.31 13.9811 202.415 13.1926 200.035 13.1926C197.628 13.1926 195.72 13.9811 194.309 15.5581C192.898 17.135 192.192 19.3068 192.192 22.0734Z" fill="white"/>
<path d="M67.6049 22.7202C67.6049 29.2663 64.3318 33.7244 58.6323 33.7244C55.1899 33.7244 52.6505 32.0879 51.2962 28.9841L50.5061 33.3858H45.7095V28.8713V4.54932H51.4655V16.2306C52.8762 13.409 55.3592 11.8854 58.6323 11.8854C64.3318 11.829 67.6049 16.2871 67.6049 22.7202ZM61.7924 22.7202C61.7924 18.8829 59.8738 16.6256 56.6007 16.6256C53.3277 16.6256 51.409 18.8829 51.409 22.7202C51.409 26.6704 53.3277 28.9277 56.6007 28.9277C59.8738 28.9277 61.7924 26.6704 61.7924 22.7202Z" fill="white"/>
<path d="M82.9541 33.329V12.2236H88.7101V33.329H82.9541Z" fill="white"/>
<path d="M114.499 22.7766C114.499 29.2097 111.226 33.6678 105.527 33.6678C102.254 33.6678 99.7708 32.1442 98.36 29.3226V40.5525H92.604V16.7384V12.2239H97.4007L98.1907 16.6255C99.5451 13.5218 102.084 11.8853 105.527 11.8853C111.283 11.8289 114.499 16.2869 114.499 22.7766ZM108.743 22.7766C108.743 18.8828 106.825 16.6255 103.552 16.6255C100.279 16.6255 98.36 18.8828 98.36 22.7766C98.36 26.6703 100.279 28.9276 103.552 28.9276C106.825 28.9276 108.743 26.6703 108.743 22.7766Z" fill="white"/>
<path d="M89.1618 9.11991C89.3875 8.66846 89.5004 8.16058 89.5004 7.59627C89.5004 5.56473 87.8639 3.92822 85.8323 3.92822C83.8008 3.92822 82.1643 5.56473 82.1643 7.59627C82.1643 8.16058 82.2772 8.66846 82.5029 9.11991H89.1618Z" fill="white"/>
<path d="M75.2797 28.3631H80.4714V33.3855H77.4241C71.8938 33.3855 69.5237 30.9025 69.5237 24.4129V4.60547H75.2797V24.5822V28.3631Z" fill="white"/>
<path d="M19.0738 0.034668C6.6589 0.034668 0 4.71848 0 16.9077C0 27.7989 5.64314 36.2072 19.0738 36.2072C19.4124 36.2072 20.0896 36.2072 20.0896 36.2072C20.0896 37.7873 20.0896 39.8188 20.0896 41.5682C20.0896 42.0196 20.4282 42.4147 20.936 42.4147C21.3311 42.4147 21.4439 42.2454 21.7825 41.9632C24.1526 39.9317 31.1501 33.5549 31.1501 33.5549C34.6489 30.2255 38.1476 26.2753 38.1476 16.9077C38.1476 4.71848 31.4887 0.034668 19.0738 0.034668Z" fill="#0096FA"/>
<path d="M281.367 34.5144H223.638C220.929 34.5144 218.672 32.2571 218.672 29.5484V15.4406C218.672 12.7319 220.929 10.4746 223.638 10.4746H281.367C284.076 10.4746 286.333 12.7319 286.333 15.4406V29.5484C286.333 32.2571 284.076 34.5144 281.367 34.5144Z" fill="white"/>
<path d="M229.789 28.3632L229.394 30.3383H226.29L226.629 27.7425V13.0703H229.958V19.7856C230.805 18.4877 232.215 17.867 233.908 17.867C237.407 17.867 239.326 20.4628 239.326 24.1873C239.326 27.9682 237.407 30.5641 233.908 30.5641C232.102 30.5641 230.692 29.8304 229.789 28.3632ZM232.949 27.7989C234.868 27.7989 235.94 26.501 235.94 24.1873C235.94 21.9865 234.811 20.6886 232.949 20.6886C231.087 20.6886 229.958 21.9865 229.958 24.1873C229.958 26.501 231.087 27.7989 232.949 27.7989Z" fill="black"/>
<path d="M240.962 24.3001C240.962 20.4628 243.276 17.9233 247.452 17.9233C251.628 17.9233 253.829 20.2935 253.885 24.0744C253.885 24.3565 253.885 24.6387 253.828 24.9208H244.404C244.63 26.9524 245.759 28.081 247.621 28.081C249.258 28.081 250.16 27.4038 250.443 26.5574H253.772C253.208 29.2096 250.95 30.564 247.565 30.564C243.219 30.564 240.962 27.9117 240.962 24.3001ZM250.273 22.9457C250.104 21.1399 249.201 20.237 247.452 20.237C245.533 20.237 244.743 21.4785 244.461 22.9457H250.273Z" fill="black"/>
<path d="M257.214 25.1464V20.8576H254.449V18.0924H257.384L258.23 14.3115H260.544V18.0924H264.212V20.8576H260.544V25.2028C260.544 26.7264 260.939 27.4036 262.519 27.4036H264.663V30.2816H262.124C258.907 30.3381 257.214 29.0401 257.214 25.1464Z" fill="black"/>
<path d="M265.679 24.187C265.679 20.4625 267.654 17.8667 271.153 17.8667C272.959 17.8667 274.313 18.6003 275.216 19.9547L275.554 18.0924H278.376V27.6858L278.715 30.338H275.611L275.216 28.4194C274.313 29.8302 272.902 30.5638 271.096 30.5638C267.598 30.5638 265.679 27.9679 265.679 24.187ZM272.056 27.7986C273.974 27.7986 275.047 26.5007 275.047 24.187C275.047 21.9862 273.918 20.6883 272.056 20.6883C270.137 20.6883 269.065 21.9862 269.065 24.187C269.065 26.5007 270.137 27.7986 272.056 27.7986Z" fill="black"/>
</svg>
