<svg width="249" height="43" viewBox="0 0 249 43" fill="none" xmlns="http://www.w3.org/2000/svg">
<path d="M65.6986 23.0049C65.6986 29.5504 62.4471 34.0117 56.6933 34.0117C53.2741 34.0117 50.689 32.3859 49.3562 29.2596L48.5645 33.6381H43.77V29.1365V4.79688H49.5238V16.4594C50.9416 13.6239 53.4015 12.1234 56.6954 12.1234C62.4471 12.1234 65.6986 16.5847 65.6986 23.0049ZM59.9045 23.0049C59.9045 19.1697 57.9858 16.9179 54.694 16.9179C51.4425 16.9179 49.5238 19.1697 49.5238 23.0049C49.5238 26.9653 51.4425 29.2172 54.694 29.2172C57.9858 29.215 59.9045 26.9653 59.9045 23.0049Z" fill="white"/>
<path d="M81.4404 33.636V12.499H87.1942V33.636H81.4404Z" fill="white"/>
<path d="M113 23.0872C113 29.5499 109.749 34.009 103.995 34.009C100.701 34.009 98.2412 32.5085 96.8234 29.673V40.8347H91.0696V17.0001V12.4985H95.8641L96.6557 16.877C98.031 13.7508 100.574 12.125 103.993 12.125C109.749 12.1229 113 16.5842 113 23.0872ZM107.206 23.0872C107.206 19.1692 105.288 16.9174 101.996 16.9174C98.7442 16.9174 96.8255 19.1692 96.8255 23.0872C96.8255 26.9648 98.7442 29.2145 101.996 29.2145C105.288 29.2145 107.206 26.9648 107.206 23.0872Z" fill="white"/>
<path d="M87.6378 9.43221C87.85 8.96953 87.9753 8.46016 87.9753 7.91682C87.9753 5.8963 86.3368 4.25781 84.3162 4.25781C82.2957 4.25781 80.6572 5.8963 80.6572 7.91682C80.6572 8.45803 80.7824 8.96953 80.9947 9.43221H87.6378Z" fill="white"/>
<path d="M73.7699 28.6335H78.9401V33.636H75.8966C70.3932 33.636 68.0161 31.1761 68.0161 24.6307V4.79688H73.7699V24.7983V28.6335Z" fill="white"/>
<path d="M19.3667 0.316406C6.9464 0.316406 0.277832 4.98992 0.277832 17.2064C0.277832 28.1177 5.89581 36.482 19.3667 36.482C19.7062 36.482 20.3536 36.482 20.3536 36.482C20.3536 38.0653 20.3578 40.1007 20.3578 41.8538C20.3578 42.2889 20.7038 42.6985 21.2259 42.6985C21.6355 42.6985 21.7501 42.5436 22.0812 42.2592C24.4583 40.209 31.4622 33.8481 31.4622 33.8481C34.9535 30.5223 38.4555 26.5577 38.4555 17.2086C38.4555 4.98992 31.7869 0.316406 19.3667 0.316406Z" fill="#0095F9"/>
<path d="M124.202 33.1621C122.795 32.396 121.689 31.3029 120.883 29.883V40.8346H118.752V17.6453L118.166 13.1352H119.921L120.798 17.5201C121.577 16.0174 122.676 14.8671 124.098 14.0754C125.518 13.2817 127.174 12.8848 129.069 12.8848C131.017 12.8848 132.73 13.3368 134.205 14.2431C135.68 15.1472 136.822 16.4079 137.631 18.0231C138.437 19.6382 138.843 21.5038 138.843 23.6198C138.843 25.7083 138.439 27.559 137.631 29.1742C136.822 30.7893 135.682 32.05 134.205 32.9541C132.728 33.8583 131.017 34.3125 129.069 34.3125C127.231 34.3104 125.61 33.9283 124.202 33.1621ZM123.014 30.091C124.434 31.6786 126.354 32.4724 128.778 32.4724C131.172 32.4724 133.08 31.6786 134.5 30.091C135.92 28.5035 136.631 26.3471 136.631 23.6177C136.631 20.8331 135.92 18.6471 134.5 17.0595C133.08 15.472 131.172 14.6782 128.778 14.6782C126.357 14.6782 124.434 15.472 123.014 17.0595C121.594 18.6471 120.883 20.8331 120.883 23.6177C120.883 26.3471 121.594 28.5056 123.014 30.091Z" fill="white"/>
<path d="M145.503 32.9522C144.013 32.048 142.865 30.781 142.058 29.151C141.249 27.5231 140.846 25.649 140.846 23.533C140.846 21.4446 141.249 19.6002 142.058 17.9999C142.865 16.3996 144.013 15.1453 145.503 14.2411C146.993 13.337 148.712 12.8828 150.66 12.8828C152.526 12.8828 154.162 13.2648 155.567 14.031C156.972 14.7972 158.08 15.9178 158.887 17.3929L159.345 13.1333H160.933V29.5479L161.518 34.058H159.765L158.929 29.6731C158.12 31.1757 157.015 32.3261 155.61 33.1177C154.202 33.9115 152.553 34.3084 150.66 34.3084C148.712 34.3105 146.993 33.8585 145.503 32.9522ZM145.191 30.0912C146.611 31.6787 148.531 32.4725 150.955 32.4725C153.379 32.4725 155.291 31.6787 156.698 30.0912C158.103 28.5036 158.808 26.3176 158.808 23.533C158.808 20.8057 158.106 18.6536 156.698 17.0809C155.291 15.5082 153.379 14.7208 150.955 14.7208C148.531 14.7208 146.611 15.5103 145.191 17.083C143.771 18.6557 143.06 20.8078 143.06 23.5351C143.06 26.3197 143.771 28.5058 145.191 30.0912Z" fill="white"/>
<path d="M165.948 17.6454L165.655 15.0985L165.362 13.1353H167.115L167.866 16.5184C168.367 15.2937 169.14 14.396 170.184 13.8251C171.228 13.2541 172.627 12.9697 174.382 12.9697H175.76V15.1834H174.34C172.669 15.1834 171.388 15.4062 170.498 15.8519C169.607 16.2976 168.981 17.049 168.618 18.108C168.255 19.1671 168.074 20.6698 168.074 22.6181V34.0621H165.944V17.6454H165.948Z" fill="white"/>
<path d="M184.444 33.207C183.33 32.6361 182.515 31.7044 182.002 30.4097C181.486 29.1151 181.229 27.3683 181.229 25.1674V15.2219L178.079 15.1836V12.9721L181.271 13.0103L181.73 6.62402H183.358V13.1398H191.043V15.0605H183.358V25.4178C183.358 26.9778 183.498 28.23 183.776 29.1766C184.054 30.1232 184.582 30.8469 185.363 31.3478C186.142 31.8487 187.269 32.0991 188.747 32.0991H191.754V34.0624H188.914C187.049 34.0624 185.559 33.778 184.444 33.207Z" fill="white"/>
<path d="M194.598 17.6453L194.012 13.1352H195.808L196.559 17.0616C197.255 15.6969 198.215 14.6591 199.441 13.9502C200.666 13.2392 202.113 12.8848 203.786 12.8848C206.598 12.8848 208.638 13.7061 209.905 15.3489C211.172 16.9916 211.804 19.4281 211.804 22.6584V34.0599H209.633V22.7836C209.633 20.0542 209.132 18.0295 208.13 16.7072C207.129 15.3849 205.569 14.7228 203.453 14.7228C198.998 14.7228 196.771 17.5349 196.771 23.1593V34.0599H194.6V17.6453H194.598Z" fill="white"/>
<path d="M219.907 32.9522C218.32 32.048 217.102 30.781 216.253 29.151C215.404 27.5231 214.979 25.6639 214.979 23.5754C214.979 21.487 215.404 19.6363 216.253 18.0211C217.102 16.406 218.305 15.1474 219.865 14.2411C221.425 13.337 223.221 12.8828 225.252 12.8828C228.342 12.8828 230.785 13.7806 232.582 15.5761C234.378 17.3717 235.318 19.7594 235.401 22.7392V23.4078C235.401 23.6858 235.386 23.9087 235.358 24.0763H217.191C217.301 26.5277 218.089 28.5376 219.551 30.1124C221.013 31.6851 222.983 32.4725 225.46 32.4725C227.38 32.4725 229.017 32.0332 230.367 31.1566C231.716 30.2801 232.614 29.1595 233.06 27.7948H235.231C234.535 29.828 233.332 31.4219 231.619 32.5765C229.906 33.7332 227.854 34.3105 225.458 34.3105C223.346 34.3105 221.493 33.8585 219.907 32.9522ZM233.105 22.198C233.022 19.9419 232.275 18.1336 230.87 16.7689C229.462 15.4042 227.578 14.7229 225.211 14.7229C222.928 14.7229 221.098 15.4191 219.719 16.8114C218.341 18.2037 217.526 19.9992 217.276 22.198H233.105Z" fill="white"/>
<path d="M238.742 17.6454L238.449 15.0985L238.156 13.1353H239.911L240.663 16.5184C241.163 15.2937 241.936 14.396 242.98 13.8251C244.024 13.2541 245.423 12.9697 247.178 12.9697H248.556V15.1834H247.136C245.466 15.1834 244.184 15.4062 243.294 15.8519C242.403 16.2976 241.777 17.049 241.414 18.108C241.051 19.1671 240.871 20.6698 240.871 22.6181V34.0621H238.74V17.6454H238.742Z" fill="white"/>
</svg>
