<svg width="208" height="44" viewBox="0 0 208 44" fill="none" xmlns="http://www.w3.org/2000/svg">
<path d="M18.9345 0.938232C14.5345 0.938232 9.93451 1.63823 6.83451 3.53823C1.73451 6.73823 0.234515 12.7382 0.434515 18.4382C0.534515 23.3382 1.83451 28.5382 5.33451 32.0382C8.63451 35.4382 15.3345 37.0382 20.0345 37.0382C20.2345 37.0382 20.4345 37.2382 20.4345 37.4382V42.3382C20.4345 42.8382 20.8345 43.2382 21.3345 43.2382H21.4345C21.6345 43.2382 21.7345 43.1382 21.9345 43.0382C24.2345 41.0382 26.5345 39.0382 28.8345 36.9382C30.9345 34.9382 33.4345 32.8382 35.1345 30.5382C38.6345 25.5382 39.2345 18.3382 38.0345 12.4382C36.7345 6.63823 32.7345 2.93823 27.0345 1.73823C24.7345 1.23823 21.8345 0.938232 18.9345 0.938232Z" fill="white"/>
<path d="M90.0344 42.6382V10.6382C90.0344 10.3382 90.2344 10.0382 90.6344 10.0382H97.1344C97.4344 10.0382 97.6344 10.2382 97.6344 10.4382L98.0344 12.4382C99.7344 10.5382 102.134 9.53821 105.234 9.53821C111.234 9.53821 115.834 13.3382 115.834 21.9382C115.834 30.5382 111.334 34.4382 105.234 34.4382C102.234 34.4382 99.7344 33.4382 98.0344 31.4382V42.5382C98.0344 42.8382 97.8344 43.1382 97.4344 43.1382H90.4344C90.2344 43.1382 90.0344 42.9382 90.0344 42.6382ZM98.0344 24.3382C98.7344 27.0382 100.434 28.2382 102.634 28.2382C105.434 28.2382 107.434 26.4382 107.434 22.0382C107.434 17.6382 105.434 15.8382 102.634 15.8382C100.334 15.8382 98.6344 17.0382 98.0344 19.7382V24.3382Z" fill="white"/>
<path d="M42.7345 0.938232H49.7345C50.0345 0.938232 50.3345 1.13823 50.3345 1.53823V12.6382C52.0345 10.6382 54.5345 9.63823 57.5345 9.63823C63.6345 9.63823 68.1345 13.5382 68.1345 22.1382C68.1345 30.7382 63.6345 34.5382 57.5345 34.5382C54.4345 34.5382 52.0345 33.5382 50.3345 31.6382L49.9345 33.6382C49.8345 33.9382 49.6345 34.0382 49.4345 34.0382H42.9345C42.6345 34.0382 42.3345 33.8382 42.3345 33.4382V1.43823C42.1345 1.13823 42.4345 0.938232 42.7345 0.938232ZM50.2345 24.4382C50.8345 27.1382 52.5345 28.3382 54.8345 28.3382C57.6345 28.3382 59.6345 26.5382 59.6345 22.1382C59.6345 17.7382 57.6345 15.9382 54.8345 15.9382C52.6345 15.9382 50.9345 17.1382 50.2345 19.8382V24.4382Z" fill="white"/>
<path d="M69.9346 0.938232H76.9346C77.2346 0.938232 77.4346 1.13823 77.4346 1.53823V33.5382C77.4346 33.8382 77.2346 34.1382 76.8346 34.1382H69.8346C69.5346 34.1382 69.2346 33.9382 69.2346 33.5382V1.53823C69.3346 1.13823 69.6346 0.938232 69.9346 0.938232Z" fill="white"/>
<path d="M79.7345 6.53823V1.53823C79.7345 1.23823 79.9345 0.938232 80.3345 0.938232H87.3345C87.6345 0.938232 87.9345 1.13823 87.9345 1.53823V6.53823C87.9345 6.83823 87.7345 7.13823 87.3345 7.13823H80.3345C79.9345 7.03823 79.7345 6.83823 79.7345 6.53823ZM80.2345 10.0382H87.2345C87.5345 10.0382 87.8345 10.2382 87.8345 10.6382V33.4382C87.8345 33.7382 87.6345 34.0382 87.2345 34.0382H80.2345C79.9345 34.0382 79.6345 33.8382 79.6345 33.4382V10.6382C79.7345 10.3382 79.9345 10.0382 80.2345 10.0382Z" fill="white"/>
<path d="M118.135 22.3382C118.135 13.9382 122.635 10.3382 128.835 10.3382C132.635 10.3382 135.635 11.7382 137.335 14.8382V0.938232H140.235V34.0382H137.635L137.335 29.8382C135.635 32.9382 132.635 34.3382 128.735 34.3382C122.635 34.3382 118.135 30.7382 118.135 22.3382ZM129.435 31.7382C133.435 31.7382 136.535 29.8382 137.335 25.1382V19.5382C136.435 14.8382 133.435 12.9382 129.435 12.9382C124.735 12.9382 121.235 15.6382 121.235 22.3382C121.235 29.1382 124.635 31.7382 129.435 31.7382Z" fill="white"/>
<path d="M154.134 10.3383C160.134 10.3383 164.834 13.6383 165.134 20.4383V23.0383H145.934C146.134 28.5383 148.934 31.8383 154.134 31.8383C157.534 31.8383 160.234 30.5383 161.434 27.2383H164.634C163.134 32.2383 159.234 34.4383 154.134 34.4383C147.534 34.4383 142.834 30.8383 142.834 22.4383C142.834 13.9383 147.634 10.3383 154.134 10.3383ZM162.034 20.4383C161.934 15.2383 158.534 12.9383 154.234 12.9383C149.434 12.9383 146.734 15.6383 146.134 20.4383H162.034Z" fill="white"/>
<path d="M166.135 27.4382H169.235C169.435 30.3382 171.135 31.8382 175.835 31.8382C180.335 31.8382 182.235 30.4382 182.235 27.8382C182.235 21.9382 166.735 26.7382 166.735 17.0382C166.735 12.3382 170.535 10.4382 175.735 10.4382C181.535 10.4382 184.335 12.9382 184.635 17.1382H181.735C181.435 14.3382 179.735 13.0382 175.735 13.0382C172.035 13.0382 169.735 14.2382 169.735 16.9382C169.735 23.9382 185.235 18.9382 185.235 27.7382C185.235 32.6382 181.835 34.4382 175.835 34.4382C169.135 34.3382 166.335 31.7382 166.135 27.4382Z" fill="white"/>
<path d="M187.935 34.0382V0.938232H190.935V22.5382L202.335 10.6382H206.335L196.635 20.4382L207.835 34.0382H204.035L194.835 22.3382L191.035 26.2382V34.0382H187.935Z" fill="white"/>
<path d="M90.0344 42.6382V10.6382C90.0344 10.3382 90.2344 10.0382 90.6344 10.0382H97.1344C97.4344 10.0382 97.6344 10.2382 97.6344 10.4382L98.0344 12.4382C99.7344 10.5382 102.134 9.53821 105.234 9.53821C111.234 9.53821 115.834 13.3382 115.834 21.9382C115.834 30.5382 111.334 34.4382 105.234 34.4382C102.234 34.4382 99.7344 33.4382 98.0344 31.4382V42.5382C98.0344 42.8382 97.8344 43.1382 97.4344 43.1382H90.4344C90.2344 43.1382 90.0344 42.9382 90.0344 42.6382ZM98.0344 24.0382C98.0344 24.2382 98.0344 24.4382 98.1344 24.6382C98.8344 27.1382 100.534 28.2382 102.634 28.2382C105.434 28.2382 107.434 26.4382 107.434 22.0382C107.434 17.6382 105.434 15.8382 102.634 15.8382C100.334 15.8382 98.7344 16.9382 98.0344 19.4382C98.0344 19.6382 97.9344 19.8382 97.9344 19.9382V24.0382H98.0344Z" fill="white"/>
<path d="M42.7345 0.938232H49.7345C50.0345 0.938232 50.3345 1.13823 50.3345 1.53823V12.6382C52.0345 10.6382 54.5345 9.63823 57.5345 9.63823C63.6345 9.63823 68.1345 13.5382 68.1345 22.1382C68.1345 30.7382 63.6345 34.5382 57.5345 34.5382C54.4345 34.5382 52.0345 33.5382 50.3345 31.6382L49.9345 33.6382C49.8345 33.9382 49.6345 34.0382 49.4345 34.0382H42.9345C42.6345 34.0382 42.3345 33.8382 42.3345 33.4382V1.43823C42.1345 1.13823 42.4345 0.938232 42.7345 0.938232ZM50.2345 24.2382C50.2345 24.4382 50.2345 24.6382 50.3345 24.7382C50.9345 27.2382 52.6345 28.3382 54.9345 28.3382C57.7345 28.3382 59.7345 26.5382 59.7345 22.1382C59.7345 17.7382 57.7345 15.9382 54.9345 15.9382C52.8345 15.9382 51.1345 17.0382 50.4345 19.5382C50.3345 19.7382 50.3345 19.9382 50.3345 20.1382V24.2382H50.2345Z" fill="white"/>
<path d="M69.9346 0.938232H76.9346C77.2346 0.938232 77.4346 1.13823 77.4346 1.53823V33.5382C77.4346 33.8382 77.2346 34.1382 76.8346 34.1382H69.8346C69.5346 34.1382 69.2346 33.9382 69.2346 33.5382V1.53823C69.3346 1.13823 69.6346 0.938232 69.9346 0.938232Z" fill="white"/>
<path d="M79.7345 6.53823V1.53823C79.7345 1.23823 79.9345 0.938232 80.3345 0.938232H87.3345C87.6345 0.938232 87.9345 1.13823 87.9345 1.53823V6.53823C87.9345 6.83823 87.7345 7.13823 87.3345 7.13823H80.3345C79.9345 7.03823 79.7345 6.83823 79.7345 6.53823ZM80.2345 10.0382H87.2345C87.5345 10.0382 87.8345 10.2382 87.8345 10.6382V33.4382C87.8345 33.7382 87.6345 34.0382 87.2345 34.0382H80.2345C79.9345 34.0382 79.6345 33.8382 79.6345 33.4382V10.6382C79.7345 10.3382 79.9345 10.0382 80.2345 10.0382Z" fill="white"/>
</svg>
