<svg width="214" height="43" viewBox="0 0 214 43" fill="none" xmlns="http://www.w3.org/2000/svg">
<path d="M139.348 22.2783V33.6056H137.192V22.4025C137.192 17.0069 135.24 14.3938 131.052 14.3938C126.277 14.3938 124.409 17.6334 124.409 22.775V33.6056H122.253V17.2552L121.672 12.774H123.455L124.2 16.7191C125.572 13.9818 128.061 12.5708 131.379 12.5708C137.108 12.5652 139.348 16.0531 139.348 22.2783Z" fill="black"/>
<path d="M164.418 23.6895H146.364C146.572 28.4191 149.518 32.0312 154.581 32.0312C158.526 32.0312 161.263 29.9543 162.133 27.3807H164.289C162.917 31.4047 159.39 33.8542 154.575 33.8542C148.186 33.8542 144.157 29.4576 144.157 23.1872C144.157 16.9225 148.226 12.5654 154.367 12.5654C160.592 12.5654 164.243 16.55 164.452 22.3576C164.458 22.8599 164.503 23.1929 164.418 23.6895ZM146.448 21.8214H162.178C162.014 17.3797 159.068 14.394 154.333 14.394C149.643 14.394 146.905 17.6732 146.448 21.8214Z" fill="black"/>
<path d="M193.016 12.7738H195.133L188.326 32.8209C188.078 33.5264 187.745 33.8594 187.039 33.8594C186.294 33.8594 185.916 33.5716 185.668 32.8209L180.605 15.5563L175.582 32.8209C175.334 33.5659 175.001 33.8594 174.256 33.8594C173.511 33.8594 173.217 33.5264 173.009 32.8209L166.287 12.7738H168.403L174.38 31.0318L179.403 13.5583C179.567 12.977 180.024 12.6045 180.729 12.6045C181.435 12.6045 181.768 13.0221 181.931 13.5583L186.994 31.0713L193.016 12.7738Z" fill="black"/>
<path d="M197.046 26.884H199.162C199.162 30.6202 201.984 32.0707 205.472 32.0707C208.915 32.0707 211.28 30.8234 211.28 28.0015C211.28 24.6829 208 24.1862 204.721 23.3114C200.488 22.1488 198.163 21.0708 198.163 17.7522C198.163 14.3489 200.776 12.5654 205.179 12.5654C210.365 12.5654 212.606 14.9754 212.606 18.4577H210.529C210.529 15.5962 208.288 14.3489 205.133 14.3489C202.729 14.3489 200.359 15.0544 200.359 17.5433C200.359 20.117 202.515 20.6136 205.421 21.4038C209.406 22.4422 213.475 23.4356 213.475 27.8378C213.475 31.2806 210.941 33.8542 205.382 33.8542C199.947 33.8598 197.046 31.2016 197.046 26.884Z" fill="black"/>
<path d="M67.8628 23.0009C67.8628 29.5478 64.6119 34.0065 58.8608 34.0065C55.4406 34.0065 52.8557 32.381 51.5237 29.2543L50.7336 33.634H45.9419V29.1301V4.79932H51.693V16.4596C53.1096 13.6264 55.5704 12.1251 58.8608 12.1251C64.6119 12.1251 67.8628 16.5781 67.8628 23.0009ZM62.0665 23.0009C62.0665 19.163 60.1476 16.9168 56.8572 16.9168C53.6063 16.9168 51.6874 19.1687 51.6874 23.0009C51.6874 26.9629 53.6063 29.2148 56.8572 29.2148C60.1476 29.2092 62.0665 26.9572 62.0665 23.0009Z" fill="black"/>
<path d="M83.2141 33.6339V12.4976H88.9652V33.6339C88.9652 33.6283 83.2141 33.6283 83.2141 33.6339Z" fill="black"/>
<path d="M114.775 23.0799C114.775 29.5421 111.524 34.0008 105.773 34.0008C102.482 34.0008 100.022 32.4995 98.6051 29.6663V40.8243H92.854V16.9901V12.4863H97.6457L98.4358 16.8659C99.8129 13.7392 102.353 12.1138 105.773 12.1138C111.524 12.1251 114.775 16.5781 114.775 23.0799ZM108.979 23.0799C108.979 19.163 107.06 16.9111 103.769 16.9111C100.518 16.9111 98.5995 19.163 98.5995 23.0799C98.5995 26.9572 100.518 29.2091 103.769 29.2091C107.06 29.2091 108.979 26.9572 108.979 23.0799Z" fill="black"/>
<path d="M89.4109 9.42713C89.6197 8.96433 89.7495 8.45638 89.7495 7.91457C89.7495 5.89405 88.1128 4.25732 86.0923 4.25732C84.0718 4.25732 82.4351 5.89405 82.4351 7.91457C82.4351 8.45638 82.5592 8.96433 82.7737 9.42713H89.4109Z" fill="black"/>
<path d="M75.5441 28.6335H80.7139V33.634H77.6719C72.1691 33.634 69.793 31.1732 69.793 24.632V4.79932H75.5441V24.7956V28.6335Z" fill="black"/>
<path d="M19.3252 0.317871C6.90299 0.317871 0.237549 4.99102 0.237549 17.21C0.237549 28.1197 5.85323 36.4839 19.3252 36.4839C19.6638 36.4839 20.3129 36.4839 20.3129 36.4839C20.3129 38.0699 20.3185 40.1017 20.3185 41.8569C20.3185 42.2915 20.6628 42.6979 21.1877 42.6979C21.5997 42.6979 21.7126 42.5455 22.0399 42.2577C24.416 40.2089 31.4201 33.8482 31.4201 33.8482C34.9136 30.524 38.4128 26.5563 38.4128 17.21C38.4128 4.99102 31.7474 0.317871 19.3252 0.317871Z" fill="black"/>
</svg>
