<svg width="215" height="44" viewBox="0 0 215 44" fill="none" xmlns="http://www.w3.org/2000/svg">
<path d="M18.7346 0.738281C14.3346 0.738281 9.73456 1.43828 6.63456 3.33828C1.53456 6.53828 0.0345634 12.5383 0.234563 18.2383C0.334563 23.1383 1.63456 28.3383 5.13456 31.8383C8.43456 35.2383 15.1346 36.8383 19.8346 36.8383C20.0346 36.8383 20.2346 37.0383 20.2346 37.2383V42.1383C20.2346 42.6383 20.6346 43.0383 21.1346 43.0383H21.2346C21.4346 43.0383 21.5346 42.9383 21.7346 42.8383C24.0346 40.8383 26.3346 38.8383 28.6346 36.7383C30.7346 34.7383 33.2346 32.6383 34.9346 30.3383C38.4346 25.3383 39.0346 18.1383 37.8346 12.2383C36.5346 6.43828 32.5346 2.73828 26.8346 1.53828C24.5346 1.03828 21.6346 0.738281 18.7346 0.738281Z" fill="white"/>
<path d="M89.8345 42.4384V10.4384C89.8345 10.1384 90.0345 9.83838 90.4345 9.83838H96.9345C97.2345 9.83838 97.4345 10.0384 97.4345 10.2384L97.8345 12.2384C99.5345 10.3384 101.934 9.33838 105.034 9.33838C111.034 9.33838 115.634 13.1384 115.634 21.7384C115.634 30.3384 111.134 34.2384 105.034 34.2384C102.034 34.2384 99.5345 33.2384 97.8345 31.2384V42.3384C97.8345 42.6384 97.6345 42.9384 97.2345 42.9384H90.2345C90.0345 42.9384 89.8345 42.7384 89.8345 42.4384ZM97.8345 24.1384C98.5345 26.8384 100.234 28.0384 102.434 28.0384C105.234 28.0384 107.234 26.2384 107.234 21.8384C107.234 17.4384 105.234 15.6384 102.434 15.6384C100.134 15.6384 98.4345 16.8384 97.8345 19.5384V24.1384Z" fill="white"/>
<path d="M42.5346 0.738281H49.5346C49.8346 0.738281 50.1346 0.938281 50.1346 1.33828V12.4383C51.8346 10.4383 54.3346 9.43828 57.3346 9.43828C63.4346 9.43828 67.9346 13.3383 67.9346 21.9383C67.9346 30.5383 63.4346 34.3383 57.3346 34.3383C54.2346 34.3383 51.8346 33.3383 50.1346 31.4383L49.7346 33.4383C49.6346 33.7383 49.4346 33.8383 49.2346 33.8383H42.7346C42.4346 33.8383 42.1346 33.6383 42.1346 33.2383V1.23828C41.9346 0.938281 42.2346 0.738281 42.5346 0.738281ZM50.0346 24.2383C50.6346 26.9383 52.3346 28.1383 54.6346 28.1383C57.4346 28.1383 59.4346 26.3383 59.4346 21.9383C59.4346 17.5383 57.4346 15.7383 54.6346 15.7383C52.4346 15.7383 50.7346 16.9383 50.0346 19.6383V24.2383Z" fill="white"/>
<path d="M69.7347 0.738281H76.7347C77.0347 0.738281 77.2347 0.938281 77.2347 1.33828V33.3383C77.2347 33.6383 77.0347 33.9383 76.6347 33.9383H69.6347C69.3347 33.9383 69.0347 33.7383 69.0347 33.3383V1.33828C69.1347 0.938281 69.4347 0.738281 69.7347 0.738281Z" fill="white"/>
<path d="M79.5346 6.33828V1.33828C79.5346 1.03828 79.7346 0.738281 80.1346 0.738281H87.1346C87.4346 0.738281 87.7346 0.938281 87.7346 1.33828V6.33828C87.7346 6.63828 87.5346 6.93828 87.1346 6.93828H80.1346C79.7346 6.83828 79.5346 6.63828 79.5346 6.33828ZM80.0346 9.83828H87.0346C87.3346 9.83828 87.6346 10.0383 87.6346 10.4383V33.2383C87.6346 33.5383 87.4346 33.8383 87.0346 33.8383H80.0346C79.7346 33.8383 79.4346 33.6383 79.4346 33.2383V10.4383C79.5346 10.1383 79.7346 9.83828 80.0346 9.83828Z" fill="white"/>
<path d="M119.735 5.13828V0.738281H122.735V5.13828H119.735ZM119.735 10.4383H122.735V33.7383H119.735V10.4383Z" fill="white"/>
<path d="M125.235 22.1383C125.235 13.7383 129.735 10.1383 135.935 10.1383C139.735 10.1383 142.735 11.5383 144.435 14.6383V0.738281H147.335V33.8383H144.735L144.435 29.6383C142.735 32.7383 139.735 34.1383 135.835 34.1383C129.735 34.1383 125.235 30.5383 125.235 22.1383ZM136.535 31.5383C140.535 31.5383 143.635 29.6383 144.435 24.9383V19.3383C143.535 14.6383 140.535 12.7383 136.535 12.7383C131.835 12.7383 128.335 15.4383 128.335 22.1383C128.335 28.9383 131.835 31.5383 136.535 31.5383Z" fill="white"/>
<path d="M161.335 10.1382C167.335 10.1382 172.035 13.4382 172.335 20.2382V22.8382H153.135C153.335 28.3382 156.135 31.6382 161.335 31.6382C164.735 31.6382 167.435 30.3382 168.635 27.0382H171.835C170.335 32.0382 166.435 34.2382 161.335 34.2382C154.735 34.2382 150.035 30.6382 150.035 22.2382C149.935 13.7382 154.735 10.1382 161.335 10.1382ZM169.135 20.2382C169.035 15.0382 165.635 12.7382 161.335 12.7382C156.535 12.7382 153.835 15.4382 153.235 20.2382H169.135Z" fill="white"/>
<path d="M173.235 27.8383C173.235 18.3383 189.235 23.4383 189.735 17.8383C189.535 14.0383 187.535 12.6383 183.335 12.6383C179.235 12.6383 177.135 13.9383 176.935 17.0383H174.035C174.235 12.4383 177.435 10.0383 183.335 10.0383C189.835 10.0383 192.635 12.3383 192.635 17.9383V27.7383C192.635 30.0383 193.135 30.9383 194.535 30.9383H195.635V33.7383H194.535C191.135 33.7383 190.235 32.0383 189.935 29.5383C188.435 32.2383 185.635 34.1383 181.035 34.1383C177.135 34.1383 173.235 33.0383 173.235 27.8383ZM181.735 31.7383C187.035 31.7383 189.735 28.2383 189.735 23.8383V21.4383C186.035 24.7383 176.235 21.9383 176.235 27.7383C176.235 30.4383 178.235 31.7383 181.735 31.7383Z" fill="white"/>
<path d="M195.335 27.2383H198.435C198.635 30.1383 200.335 31.6383 205.035 31.6383C209.535 31.6383 211.435 30.2383 211.435 27.6383C211.435 21.7383 195.935 26.5383 195.935 16.8383C195.935 12.1383 199.735 10.2383 204.935 10.2383C210.735 10.2383 213.535 12.7383 213.835 16.9383H210.935C210.635 14.1383 208.935 12.8383 204.935 12.8383C201.235 12.8383 198.935 14.0383 198.935 16.7383C198.935 23.7383 214.435 18.7383 214.435 27.5383C214.435 32.4383 211.035 34.2383 205.035 34.2383C198.335 34.1383 195.635 31.5383 195.335 27.2383Z" fill="white"/>
<path d="M89.8345 42.4384V10.4384C89.8345 10.1384 90.0345 9.83838 90.4345 9.83838H96.9345C97.2345 9.83838 97.4345 10.0384 97.4345 10.2384L97.8345 12.2384C99.5345 10.3384 101.934 9.33838 105.034 9.33838C111.034 9.33838 115.634 13.1384 115.634 21.7384C115.634 30.3384 111.134 34.2384 105.034 34.2384C102.034 34.2384 99.5345 33.2384 97.8345 31.2384V42.3384C97.8345 42.6384 97.6345 42.9384 97.2345 42.9384H90.2345C90.0345 42.9384 89.8345 42.7384 89.8345 42.4384ZM97.8345 23.8384C97.8345 24.0384 97.8345 24.2384 97.9345 24.4384C98.6345 26.9384 100.334 28.0384 102.434 28.0384C105.234 28.0384 107.234 26.2384 107.234 21.8384C107.234 17.4384 105.234 15.6384 102.434 15.6384C100.134 15.6384 98.5345 16.7384 97.8345 19.2384C97.8345 19.4384 97.7345 19.6384 97.7345 19.7384V23.8384H97.8345Z" fill="white"/>
<path d="M42.5346 0.738281H49.5346C49.8346 0.738281 50.1346 0.938281 50.1346 1.33828V12.4383C51.8346 10.4383 54.3346 9.43828 57.3346 9.43828C63.4346 9.43828 67.9346 13.3383 67.9346 21.9383C67.9346 30.5383 63.4346 34.3383 57.3346 34.3383C54.2346 34.3383 51.8346 33.3383 50.1346 31.4383L49.7346 33.4383C49.6346 33.7383 49.4346 33.8383 49.2346 33.8383H42.7346C42.4346 33.8383 42.1346 33.6383 42.1346 33.2383V1.23828C41.9346 0.938281 42.2346 0.738281 42.5346 0.738281ZM50.0346 24.0383C50.0346 24.2383 50.0346 24.4383 50.1346 24.5383C50.7346 27.0383 52.4346 28.1383 54.7346 28.1383C57.5346 28.1383 59.5346 26.3383 59.5346 21.9383C59.5346 17.5383 57.5346 15.7383 54.7346 15.7383C52.6346 15.7383 50.9346 16.8383 50.2346 19.3383C50.1346 19.5383 50.1346 19.7383 50.1346 19.9383V24.0383H50.0346Z" fill="white"/>
<path d="M69.7347 0.738281H76.7347C77.0347 0.738281 77.2347 0.938281 77.2347 1.33828V33.3383C77.2347 33.6383 77.0347 33.9383 76.6347 33.9383H69.6347C69.3347 33.9383 69.0347 33.7383 69.0347 33.3383V1.33828C69.1347 0.938281 69.4347 0.738281 69.7347 0.738281Z" fill="white"/>
<path d="M79.5346 6.33828V1.33828C79.5346 1.03828 79.7346 0.738281 80.1346 0.738281H87.1346C87.4346 0.738281 87.7346 0.938281 87.7346 1.33828V6.33828C87.7346 6.63828 87.5346 6.93828 87.1346 6.93828H80.1346C79.7346 6.83828 79.5346 6.63828 79.5346 6.33828ZM80.0346 9.83828H87.0346C87.3346 9.83828 87.6346 10.0383 87.6346 10.4383V33.2383C87.6346 33.5383 87.4346 33.8383 87.0346 33.8383H80.0346C79.7346 33.8383 79.4346 33.6383 79.4346 33.2383V10.4383C79.5346 10.1383 79.7346 9.83828 80.0346 9.83828Z" fill="white"/>
</svg>
