<svg width="215" height="43" viewBox="0 0 215 43" fill="none" xmlns="http://www.w3.org/2000/svg">
<path d="M120.441 26.923H122.557C122.557 30.6593 125.379 32.1098 128.867 32.1098C132.31 32.1098 134.675 30.8625 134.675 28.0405C134.675 24.7219 131.395 24.2253 128.116 23.3505C123.883 22.1878 121.558 21.1098 121.558 17.7912C121.558 14.388 124.171 12.6045 128.574 12.6045C133.76 12.6045 136.001 15.0144 136.001 18.4967H133.924C133.924 15.6353 131.683 14.388 128.528 14.388C126.118 14.388 123.754 15.0934 123.754 17.5824C123.754 20.156 125.91 20.6527 128.816 21.4428C132.801 22.4813 136.87 23.4746 136.87 27.8769C136.87 31.3196 134.336 33.8933 128.777 33.8933C123.347 33.8989 120.441 31.2406 120.441 26.923Z" fill="white"/>
<path d="M154.349 31.6981V33.6509H151.488C146.007 33.6509 143.851 31.3256 143.851 24.8125V14.772H138.495V12.8192H143.891L144.348 6.3457H145.968V12.8192H153.604V14.772H145.968V25.0665C145.968 29.2994 146.758 31.7037 151.324 31.7037H154.349V31.6981Z" fill="white"/>
<path d="M156.466 23.1927C156.466 16.9674 160.535 12.6104 166.924 12.6104C173.313 12.6104 177.382 16.9674 177.382 23.1927C177.382 29.5025 173.313 33.8991 166.924 33.8991C160.535 33.8991 156.466 29.4969 156.466 23.1927ZM175.186 23.1927C175.186 17.7124 171.947 14.439 166.884 14.439C161.861 14.439 158.667 17.7181 158.667 23.1927C158.667 28.7519 161.861 32.0761 166.884 32.0761C171.947 32.0705 175.186 28.7519 175.186 23.1927Z" fill="white"/>
<path d="M182.535 33.6509V17.3006L182.247 14.8116L181.959 12.8193H183.703L184.448 16.2226C185.447 13.9425 187.394 12.8193 190.921 12.8193H192.293V15.0205H190.882C186.028 15.0205 184.657 16.7644 184.657 22.4478V33.6509H182.535Z" fill="white"/>
<path d="M214.197 23.7286H196.142C196.351 28.4582 199.297 32.0703 204.36 32.0703C208.305 32.0703 211.042 29.9933 211.911 27.4197H214.067C212.696 31.4438 209.168 33.8933 204.354 33.8933C197.965 33.8933 193.935 29.4967 193.935 23.2263C193.935 16.9616 198.005 12.6045 204.145 12.6045C210.37 12.6045 214.022 16.5891 214.231 22.3966C214.242 22.8989 214.282 23.2319 214.197 23.7286ZM196.227 21.8605H211.956C211.793 17.4187 208.846 14.4331 204.111 14.4331C199.427 14.4331 196.684 17.7122 196.227 21.8605Z" fill="white"/>
<path d="M67.6252 23.0404C67.6252 29.5873 64.3743 34.046 58.6232 34.046C55.203 34.046 52.6181 32.4206 51.2862 29.2939L50.496 33.6735H45.7043V29.1697V4.83887H51.4555V16.4991C52.8721 13.6659 55.3328 12.1646 58.6232 12.1646C64.3743 12.1646 67.6252 16.6177 67.6252 23.0404ZM61.8289 23.0404C61.8289 19.2026 59.91 16.9563 56.6196 16.9563C53.3688 16.9563 51.4498 19.2082 51.4498 23.0404C51.4498 27.0024 53.3688 29.2544 56.6196 29.2544C59.91 29.2487 61.8289 26.9968 61.8289 23.0404Z" fill="white"/>
<path d="M82.9766 33.6735V12.5371H88.7277V33.6735C88.7277 33.6679 82.9766 33.6679 82.9766 33.6735Z" fill="white"/>
<path d="M114.537 23.1194C114.537 29.5817 111.286 34.0403 105.535 34.0403C102.245 34.0403 99.7842 32.5391 98.3676 29.7058V40.8638H92.6165V17.0296V12.5258H97.4081L98.1983 16.9055C99.5754 13.7788 102.115 12.1533 105.535 12.1533C111.286 12.1646 114.537 16.6176 114.537 23.1194ZM108.741 23.1194C108.741 19.2025 106.822 16.9506 103.532 16.9506C100.281 16.9506 98.3619 19.2025 98.3619 23.1194C98.3619 26.9968 100.281 29.2487 103.532 29.2487C106.822 29.2487 108.741 26.9968 108.741 23.1194Z" fill="white"/>
<path d="M89.1734 9.46668C89.3822 9.00388 89.512 8.49593 89.512 7.95412C89.512 5.9336 87.8753 4.29688 85.8548 4.29688C83.8342 4.29688 82.1975 5.9336 82.1975 7.95412C82.1975 8.49593 82.3217 9.00388 82.5361 9.46668H89.1734Z" fill="white"/>
<path d="M75.3065 28.673H80.4764V33.6735H77.4343C71.9315 33.6735 69.5554 31.2128 69.5554 24.6715V4.83887H75.3065V24.8352V28.673Z" fill="white"/>
<path d="M19.0876 0.357422C6.66543 0.357422 0 5.03057 0 17.2496C0 28.1592 5.61567 36.5235 19.0876 36.5235C19.4263 36.5235 20.0753 36.5235 20.0753 36.5235C20.0753 38.1094 20.081 40.1412 20.081 41.8965C20.081 42.3311 20.4252 42.7374 20.9501 42.7374C21.3621 42.7374 21.475 42.585 21.8024 42.2972C24.1784 40.2485 31.1825 33.8878 31.1825 33.8878C34.6761 30.5635 38.1753 26.5959 38.1753 17.2496C38.1753 5.03057 31.5099 0.357422 19.0876 0.357422Z" fill="#0096FA"/>
</svg>
