<svg width="310" height="43" viewBox="0 0 310 43" fill="none" xmlns="http://www.w3.org/2000/svg">
<path d="M142.964 22.9982C142.964 29.2234 139.188 33.62 133.251 33.62C129.599 33.62 126.738 32.0849 125.118 29.2235V42.2157H123.002V17.027L122.42 12.5457H124.164L125.034 16.9423C126.608 13.9567 129.515 12.3369 133.251 12.3369C139.188 12.3313 142.964 16.6884 142.964 22.9982ZM140.763 22.9982C140.763 17.439 137.693 14.1148 132.963 14.1148C128.188 14.1148 125.118 17.4334 125.118 22.9982C125.118 28.4785 128.188 31.7971 132.963 31.7971C137.693 31.7971 140.763 28.4728 140.763 22.9982Z" fill="white"/>
<path d="M167.159 33.3715H165.416L164.586 29.0144C163.011 31.9605 160.144 33.6198 156.408 33.6198C150.431 33.6198 146.616 29.2232 146.616 22.9134C146.616 16.6881 150.437 12.3311 156.408 12.3311C160.099 12.3311 162.966 13.9057 164.541 16.8123L164.998 12.5399H166.573V28.8902L167.159 33.3715ZM164.462 22.9134C164.462 17.4331 161.431 14.1597 156.662 14.1597C151.887 14.1597 148.817 17.4388 148.817 22.9134C148.817 28.4726 151.887 31.7968 156.662 31.7968C161.431 31.7968 164.462 28.4726 164.462 22.9134Z" fill="white"/>
<path d="M187.624 12.5398H189.741V30.5495C189.741 38.101 186.213 41.6736 179.322 41.6736H176.709V39.845H179.407C185.011 39.845 187.624 36.9384 187.624 31.0913V29.099C186.298 31.509 183.933 32.7901 180.733 32.7901C175.129 32.7901 172.888 29.3868 172.888 23.2011V12.5342H175.044V23.077C175.044 28.512 176.997 30.9615 181.06 30.9615C185.711 30.9615 187.619 27.8517 187.619 22.9923V12.5398H187.624Z" fill="white"/>
<path d="M225.055 21.9205V33.372H222.899V22.0447C222.899 16.2371 220.906 14.1601 217.463 14.1601C213.518 14.1601 211.611 16.8974 211.611 22.1293V33.3776H209.455V22.0503C209.455 16.2427 207.463 14.1658 204.02 14.1658C200.075 14.1658 198.167 16.9031 198.167 22.135V33.3832H196.051V17.0329L195.469 12.5516H197.213L197.958 16.2032C199.205 13.545 201.446 12.3428 204.392 12.3428C207.835 12.3428 209.997 13.7933 210.99 16.9087C212.153 13.7538 214.602 12.3428 217.796 12.3428C222.814 12.3315 225.055 15.3623 225.055 21.9205Z" fill="white"/>
<path d="M250.125 23.4552H232.07C232.279 28.1848 235.225 31.7968 240.288 31.7968C244.233 31.7968 246.97 29.7199 247.839 27.1463H249.995C248.624 31.1704 245.096 33.6198 240.282 33.6198C233.893 33.6198 229.863 29.2232 229.863 22.9529C229.863 16.6881 233.933 12.3311 240.073 12.3311C246.298 12.3311 249.95 16.3156 250.159 22.1232C250.17 22.6255 250.21 22.9529 250.125 23.4552ZM232.155 21.587H247.884C247.721 17.1453 244.774 14.1597 240.039 14.1597C235.355 14.1597 232.612 17.4388 232.155 21.587Z" fill="white"/>
<path d="M272.249 22.0444V33.3717H270.093V22.1686C270.093 16.773 268.14 14.1599 263.952 14.1599C259.177 14.1599 257.309 17.3995 257.309 22.5411V33.3717H255.153V17.0214L254.572 12.5401H256.355L257.1 16.4852C258.472 13.7479 260.961 12.3369 264.28 12.3369C270.008 12.3313 272.249 15.8192 272.249 22.0444Z" fill="white"/>
<path d="M290.676 31.4242V33.377H287.815C282.334 33.377 280.178 31.0517 280.178 24.5387V14.4869H274.822V12.5341H280.218L280.675 6.06055H282.295V12.5341H289.931V14.4869H282.295V24.7813C282.295 29.0143 283.085 31.4186 287.651 31.4186H290.676V31.4242Z" fill="white"/>
<path d="M293.543 26.6496H295.66C295.66 30.3859 298.481 31.8364 301.969 31.8364C305.412 31.8364 307.777 30.5891 307.777 27.7671C307.777 24.4485 304.498 23.9518 301.219 23.077C296.986 21.9144 294.661 20.8364 294.661 17.5178C294.661 14.1145 297.274 12.3311 301.676 12.3311C306.863 12.3311 309.103 14.741 309.103 18.2233H307.026C307.026 15.3618 304.786 14.1145 301.631 14.1145C299.227 14.1145 296.856 14.82 296.856 17.309C296.856 19.8826 299.012 20.3792 301.919 21.1694C305.903 22.2079 309.972 23.2012 309.972 27.6034C309.972 31.0462 307.438 33.6198 301.879 33.6198C296.45 33.6198 293.543 30.9672 293.543 26.6496Z" fill="white"/>
<path d="M68.6116 22.7668C68.6116 29.3137 65.3607 33.7724 59.6095 33.7724C56.1893 33.7724 53.6044 32.1469 52.2725 29.0202L51.4823 33.3999H46.6907V28.896V4.55957H52.4418V16.2199C53.8584 13.3866 56.3192 11.8853 59.6095 11.8853C65.3607 11.8853 68.6116 16.344 68.6116 22.7668ZM62.8153 22.7668C62.8153 18.9289 60.8964 16.6827 57.606 16.6827C54.3551 16.6827 52.4362 18.9346 52.4362 22.7668C52.4362 26.7288 54.3551 28.9807 57.606 28.9807C60.8964 28.9751 62.8153 26.7231 62.8153 22.7668Z" fill="white"/>
<path d="M83.9629 33.3942V12.2578H89.714V33.3942H83.9629Z" fill="white"/>
<path d="M115.524 22.846C115.524 29.3082 112.273 33.7669 106.522 33.7669C103.231 33.7669 100.771 32.2656 99.3539 29.4324V40.5904H93.6028V16.7562V12.2524H98.3945L99.1846 16.632C100.562 13.5053 103.101 11.8799 106.522 11.8799C112.273 11.8855 115.524 16.3442 115.524 22.846ZM109.727 22.846C109.727 18.9291 107.808 16.6772 104.518 16.6772C101.267 16.6772 99.3483 18.9291 99.3483 22.846C99.3483 26.7233 101.267 28.9752 104.518 28.9752C107.808 28.9752 109.727 26.7233 109.727 22.846Z" fill="white"/>
<path d="M90.1597 9.19325C90.3685 8.73045 90.4983 8.2225 90.4983 7.68068C90.4983 5.66017 88.8616 4.02344 86.8411 4.02344C84.8206 4.02344 83.1838 5.66017 83.1838 7.68068C83.1838 8.2225 83.308 8.73045 83.5225 9.19325H90.1597Z" fill="white"/>
<path d="M76.2929 28.3937H81.4627V33.3942H78.4206C72.9178 33.3942 70.5417 30.9335 70.5417 24.3922V4.55957H76.2929V24.5559V28.3937Z" fill="white"/>
<path d="M20.074 0.078125C7.65177 0.078125 0.986328 4.75127 0.986328 16.9703C0.986328 27.8799 6.602 36.2442 20.074 36.2442C20.4126 36.2442 21.0617 36.2442 21.0617 36.2442C21.0617 37.8301 21.0673 39.8619 21.0673 41.6172C21.0673 42.0518 21.4116 42.4581 21.9365 42.4581C22.3485 42.4581 22.4613 42.3057 22.7887 42.0179C25.1648 39.9692 32.1688 33.6085 32.1688 33.6085C35.6624 30.2842 39.1616 26.3166 39.1616 16.9703C39.1616 4.75127 32.4962 0.078125 20.074 0.078125Z" fill="white"/>
</svg>
