<svg width="214" height="44" viewBox="0 0 214 44" fill="none" xmlns="http://www.w3.org/2000/svg">
<path d="M139.348 22.6582V33.9855H137.192V22.7824C137.192 17.3868 135.24 14.7737 131.052 14.7737C126.277 14.7737 124.409 18.0133 124.409 23.1549V33.9855H122.253V17.6351L121.672 13.1539H123.455L124.2 17.099C125.572 14.3617 128.061 12.9507 131.379 12.9507C137.108 12.945 139.348 16.433 139.348 22.6582Z" fill="white"/>
<path d="M164.418 24.0694H146.364C146.572 28.799 149.518 32.4111 154.581 32.4111C158.526 32.4111 161.263 30.3342 162.133 27.7605H164.289C162.917 31.7846 159.39 34.2341 154.575 34.2341C148.186 34.2341 144.157 29.8375 144.157 23.5671C144.157 17.3024 148.226 12.9453 154.367 12.9453C160.592 12.9453 164.243 16.9299 164.452 22.7375C164.458 23.2398 164.503 23.5728 164.418 24.0694ZM146.448 22.2013H162.178C162.014 17.7596 159.068 14.7739 154.333 14.7739C149.643 14.7739 146.905 18.053 146.448 22.2013Z" fill="white"/>
<path d="M193.016 13.1537H195.133L188.326 33.2008C188.078 33.9063 187.745 34.2393 187.039 34.2393C186.294 34.2393 185.916 33.9514 185.668 33.2008L180.605 15.9361L175.582 33.2008C175.334 33.9458 175.001 34.2393 174.256 34.2393C173.511 34.2393 173.217 33.9063 173.009 33.2008L166.287 13.1537H168.403L174.38 31.4117L179.403 13.9382C179.567 13.3569 180.024 12.9844 180.729 12.9844C181.435 12.9844 181.768 13.402 181.931 13.9382L186.994 31.4512L193.016 13.1537Z" fill="white"/>
<path d="M197.046 27.2639H199.162C199.162 31.0001 201.984 32.4506 205.472 32.4506C208.915 32.4506 211.28 31.2033 211.28 28.3814C211.28 25.0627 208 24.5661 204.721 23.6913C200.488 22.5286 198.163 21.4507 198.163 18.1321C198.163 14.7288 200.776 12.9453 205.179 12.9453C210.365 12.9453 212.606 15.3553 212.606 18.8375H210.529C210.529 15.9761 208.288 14.7288 205.133 14.7288C202.729 14.7288 200.359 15.4343 200.359 17.9232C200.359 20.4968 202.515 20.9935 205.421 21.7837C209.406 22.8221 213.475 23.8154 213.475 28.2177C213.475 31.6605 210.941 34.2341 205.382 34.2341C199.947 34.2397 197.046 31.5814 197.046 27.2639Z" fill="white"/>
<path d="M67.8628 23.3808C67.8628 29.9277 64.6119 34.3863 58.8608 34.3863C55.4406 34.3863 52.8557 32.7609 51.5237 29.6342L50.7336 34.0139H45.9419V29.51V5.1792H51.693V16.8395C53.1096 14.0062 55.5704 12.505 58.8608 12.505C64.6119 12.505 67.8628 16.958 67.8628 23.3808ZM62.0665 23.3808C62.0665 19.5429 60.1476 17.2966 56.8572 17.2966C53.6063 17.2966 51.6874 19.5485 51.6874 23.3808C51.6874 27.3428 53.6063 29.5947 56.8572 29.5947C60.1476 29.589 62.0665 27.3371 62.0665 23.3808Z" fill="white"/>
<path d="M83.2141 34.0138V12.8774H88.9652V34.0138C88.9652 34.0082 83.2141 34.0082 83.2141 34.0138Z" fill="white"/>
<path d="M114.775 23.4597C114.775 29.922 111.524 34.3807 105.773 34.3807C102.482 34.3807 100.022 32.8794 98.6051 30.0462V41.2041H92.854V17.37V12.8662H97.6457L98.4358 17.2458C99.8129 14.1191 102.353 12.4937 105.773 12.4937C111.524 12.5049 114.775 16.958 114.775 23.4597ZM108.979 23.4597C108.979 19.5429 107.06 17.291 103.769 17.291C100.518 17.291 98.5995 19.5429 98.5995 23.4597C98.5995 27.3371 100.518 29.589 103.769 29.589C107.06 29.589 108.979 27.3371 108.979 23.4597Z" fill="white"/>
<path d="M89.4109 9.80702C89.6197 9.34422 89.7495 8.83626 89.7495 8.29445C89.7495 6.27393 88.1128 4.63721 86.0923 4.63721C84.0718 4.63721 82.4351 6.27393 82.4351 8.29445C82.4351 8.83626 82.5592 9.34422 82.7737 9.80702H89.4109Z" fill="white"/>
<path d="M75.5441 29.0134H80.7139V34.0139H77.6719C72.1691 34.0139 69.793 31.5531 69.793 25.0118V5.1792H75.5441V25.1755V29.0134Z" fill="white"/>
<path d="M19.3252 0.697754C6.90299 0.697754 0.237549 5.3709 0.237549 17.5899C0.237549 28.4996 5.85323 36.8638 19.3252 36.8638C19.6638 36.8638 20.3129 36.8638 20.3129 36.8638C20.3129 38.4498 20.3185 40.4816 20.3185 42.2368C20.3185 42.6714 20.6628 43.0778 21.1877 43.0778C21.5997 43.0778 21.7126 42.9254 22.0399 42.6375C24.416 40.5888 31.4201 34.2281 31.4201 34.2281C34.9136 30.9039 38.4128 26.9362 38.4128 17.5899C38.4128 5.3709 31.7474 0.697754 19.3252 0.697754Z" fill="white"/>
</svg>
