<svg width="330" height="43" viewBox="0 0 330 43" fill="none" xmlns="http://www.w3.org/2000/svg">
<path d="M120.52 23.115C120.52 16.8898 124.589 12.5327 130.938 12.5327C136.125 12.5327 139.822 15.5635 140.939 20.1689H138.699C137.745 16.4778 134.883 14.3613 130.938 14.3613C125.915 14.3613 122.721 17.6404 122.721 23.1207C122.721 28.6799 125.915 32.0041 130.938 32.0041C134.962 32.0041 137.829 29.8877 138.783 26.1514H141.024C139.946 30.7568 136.21 33.8271 130.938 33.8271C124.583 33.8215 120.52 29.4249 120.52 23.115Z" fill="black"/>
<path d="M144.134 23.115C144.134 16.8898 148.203 12.5327 154.592 12.5327C160.981 12.5327 165.05 16.8898 165.05 23.115C165.05 29.4249 160.981 33.8215 154.592 33.8215C148.203 33.8215 144.134 29.4249 144.134 23.115ZM162.849 23.115C162.849 17.6348 159.609 14.3557 154.547 14.3557C149.524 14.3557 146.329 17.6348 146.329 23.115C146.329 28.6742 149.524 31.9985 154.547 31.9985C159.615 31.9985 162.849 28.6742 162.849 23.115Z" fill="black"/>
<path d="M199.207 22.1217V33.5731H197.051V22.2458C197.051 16.4383 195.059 14.3613 191.616 14.3613C187.671 14.3613 185.763 17.0986 185.763 22.3305V33.5788H183.607V22.2515C183.607 16.4439 181.615 14.367 178.172 14.367C174.227 14.367 172.319 17.1042 172.319 22.3361V33.5844H170.203V17.2341L169.622 12.7528H171.366L172.111 16.4044C173.358 13.7461 175.598 12.544 178.545 12.544C181.987 12.544 184.149 13.9945 185.142 17.1099C186.305 13.9549 188.754 12.544 191.949 12.544C196.966 12.5327 199.207 15.5635 199.207 22.1217Z" fill="black"/>
<path d="M234.526 22.1217V33.5731H232.37V22.2458C232.37 16.4383 230.378 14.3613 226.935 14.3613C222.99 14.3613 221.083 17.0986 221.083 22.3305V33.5788H218.927V22.2515C218.927 16.4439 216.934 14.367 213.492 14.367C209.547 14.367 207.639 17.1042 207.639 22.3361V33.5844H205.522V17.2341L204.941 12.7528H206.685L207.43 16.4044C208.677 13.7461 210.918 12.544 213.864 12.544C217.307 12.544 219.469 13.9945 220.462 17.1099C221.625 13.9549 224.074 12.544 227.268 12.544C232.286 12.5327 234.526 15.5635 234.526 22.1217Z" fill="black"/>
<path d="M240.509 24.362V12.7412H242.625V24.4015C242.625 30.0454 245.114 31.9982 248.935 31.9982C252.756 31.9982 255.2 30.0454 255.2 24.4015V12.7412H257.356V24.362C257.356 30.6719 254.449 33.8268 248.93 33.8268C243.37 33.8212 240.509 30.6662 240.509 24.362Z" fill="black"/>
<path d="M280.767 22.2458V33.5731H278.611V22.37C278.611 16.9744 276.658 14.3613 272.47 14.3613C267.696 14.3613 265.828 17.6009 265.828 22.7425V33.5731H263.672V17.2228L263.09 12.7415H264.874L265.619 16.6866C266.99 13.9493 269.479 12.5383 272.798 12.5383C278.521 12.5327 280.767 16.0206 280.767 22.2458Z" fill="black"/>
<path d="M286.411 5.85028C286.411 4.81181 287.116 4.27563 288.155 4.27563C289.233 4.27563 289.899 4.81745 289.899 5.85028C289.899 6.84925 289.233 7.47008 288.155 7.47008C287.116 7.47008 286.411 6.84925 286.411 5.85028ZM287.077 33.5731V12.7415H289.233V33.5731H287.077Z" fill="black"/>
<path d="M308.738 31.6259V33.5787H305.876C300.396 33.5787 298.24 31.2534 298.24 24.7403V14.6885H292.884V12.7358H298.28L298.737 6.26221H300.357V12.7358H307.993V14.6885H300.357V24.983C300.357 29.2159 301.147 31.6259 305.713 31.6259H308.738Z" fill="black"/>
<path d="M327.583 12.7412H329.699V30.7509C329.699 38.3024 326.172 41.875 319.281 41.875H316.668V40.0464H319.365C324.97 40.0464 327.583 37.1398 327.583 31.2927V29.3004C326.257 31.7104 323.892 32.9915 320.692 32.9915C315.087 32.9915 312.847 29.5883 312.847 23.4026V12.7356H315.003V23.2784C315.003 28.7135 316.955 31.1629 321.019 31.1629C325.67 31.1629 327.577 28.0531 327.577 23.1937V12.7412H327.583Z" fill="black"/>
<path d="M67.6194 22.9682C67.6194 29.5151 64.3685 33.9738 58.6174 33.9738C55.1972 33.9738 52.6123 32.3483 51.2803 29.2216L50.4902 33.6013H45.6985V29.0975V4.76099H51.4496V16.4213C52.8662 13.588 55.327 12.0868 58.6174 12.0868C64.3685 12.0868 67.6194 16.5454 67.6194 22.9682ZM61.8231 22.9682C61.8231 19.1303 59.9042 16.8841 56.6138 16.8841C53.3629 16.8841 51.444 19.136 51.444 22.9682C51.444 26.9302 53.3629 29.1821 56.6138 29.1821C59.9042 29.1765 61.8231 26.9246 61.8231 22.9682Z" fill="black"/>
<path d="M82.9766 33.5956V12.4592H88.7277V33.5956H82.9766Z" fill="black"/>
<path d="M114.531 23.0471C114.531 29.5094 111.281 33.9681 105.529 33.9681C102.239 33.9681 99.7783 32.4668 98.3617 29.6336V40.7915H92.6106V16.9574V12.4536H97.4023L98.1924 16.8332C99.5695 13.7065 102.109 12.0811 105.529 12.0811C111.281 12.0867 114.531 16.5454 114.531 23.0471ZM108.735 23.0471C108.735 19.1303 106.816 16.8784 103.526 16.8784C100.275 16.8784 98.3561 19.1303 98.3561 23.0471C98.3561 26.9245 100.275 29.1764 103.526 29.1764C106.822 29.1764 108.735 26.9245 108.735 23.0471Z" fill="black"/>
<path d="M89.1734 9.39466C89.3822 8.93186 89.512 8.42391 89.512 7.8821C89.512 5.86158 87.8753 4.22485 85.8548 4.22485C83.8342 4.22485 82.1975 5.86158 82.1975 7.8821C82.1975 8.42391 82.3217 8.93186 82.5361 9.39466H89.1734Z" fill="black"/>
<path d="M75.3009 28.5952H80.4707V33.5956H77.4287C71.9259 33.5956 69.5498 31.1349 69.5498 24.5936V4.76099H75.3009V24.7573V28.5952Z" fill="black"/>
<path d="M19.0876 0.279785C6.66544 0.279785 0 4.95293 0 17.172C0 28.0816 5.61567 36.4459 19.0876 36.4459C19.4263 36.4459 20.0753 36.4459 20.0753 36.4459C20.0753 38.0318 20.081 40.0636 20.081 41.8188C20.081 42.2534 20.4252 42.6598 20.9501 42.6598C21.3621 42.6598 21.475 42.5074 21.8024 42.2196C24.1784 40.1708 31.1825 33.8102 31.1825 33.8102C34.6761 30.4859 38.1753 26.5182 38.1753 17.172C38.1697 4.95293 31.5042 0.279785 19.0876 0.279785Z" fill="#0096FA"/>
</svg>
