<svg width="203" height="43" viewBox="0 0 203 43" fill="none" xmlns="http://www.w3.org/2000/svg">
<path d="M135.127 31.6029V33.5557H132.265C126.785 33.5557 124.629 31.2304 124.629 24.7174V14.6656H119.273V12.7128H124.669L125.126 6.23926H126.745V12.7128H134.382V14.6656H126.745V24.9601C126.745 29.193 127.536 31.6029 132.102 31.6029H135.127Z" fill="black"/>
<path d="M138.908 5.82758C138.908 4.7891 139.614 4.25293 140.652 4.25293C141.73 4.25293 142.396 4.79474 142.396 5.82758C142.396 6.82655 141.73 7.44737 140.652 7.44737C139.614 7.44737 138.908 6.82655 138.908 5.82758ZM139.569 33.5504V12.7188H141.725V33.5504H139.569Z" fill="black"/>
<path d="M177.377 22.0992V33.5507H175.221V22.2234C175.221 16.4158 173.229 14.3389 169.786 14.3389C165.841 14.3389 163.933 17.0761 163.933 22.308V33.5563H161.777V22.229C161.777 16.4214 159.785 14.3445 156.342 14.3445C152.397 14.3445 150.49 17.0818 150.49 22.3137V33.562H148.373V17.2116L147.792 12.7303H149.536L150.281 16.3819C151.528 13.7237 153.769 12.5215 156.715 12.5215C160.158 12.5215 162.319 13.972 163.312 17.0874C164.475 13.9325 166.925 12.5215 170.119 12.5215C175.136 12.5102 177.377 15.541 177.377 22.0992Z" fill="black"/>
<path d="M202.447 23.6339H184.392C184.601 28.3635 187.547 31.9756 192.61 31.9756C196.555 31.9756 199.292 29.8986 200.161 27.325H202.317C200.946 31.3491 197.418 33.7985 192.604 33.7985C186.215 33.7985 182.186 29.4019 182.186 23.1316C182.186 16.8669 186.255 12.5098 192.395 12.5098C198.621 12.5098 202.272 16.4944 202.481 22.3019C202.487 22.8042 202.532 23.1316 202.447 23.6339ZM184.477 21.7657H200.206C200.043 17.324 197.091 14.3384 192.361 14.3384C187.671 14.3384 184.934 17.6175 184.477 21.7657Z" fill="black"/>
<path d="M67.8684 22.9455C67.8684 29.4924 64.6175 33.9511 58.8664 33.9511C55.4462 33.9511 52.8613 32.3256 51.5293 29.1989L50.7392 33.5786H45.9475V29.0748V4.73828H51.6986V16.3986C53.1153 13.5653 55.576 12.0641 58.8664 12.0641C64.6175 12.0641 67.8684 16.5227 67.8684 22.9455ZM62.0778 22.9455C62.0778 19.1076 60.1588 16.8614 56.8684 16.8614C53.6176 16.8614 51.6986 19.1133 51.6986 22.9455C51.6986 26.9075 53.6176 29.1594 56.8684 29.1594C60.1588 29.1538 62.0778 26.9019 62.0778 22.9455Z" fill="black"/>
<path d="M83.2256 33.5729V12.4365H88.9767V33.5729H83.2256Z" fill="black"/>
<path d="M114.781 23.0237C114.781 29.486 111.53 33.9446 105.779 33.9446C102.488 33.9446 100.028 32.4434 98.611 29.6101V40.7681H92.8599V16.9339V12.4301H97.6515L98.4417 16.8098C99.8188 13.6831 102.359 12.0576 105.779 12.0576C111.53 12.0633 114.781 16.5219 114.781 23.0237ZM108.99 23.0237C108.99 19.1068 107.071 16.8549 103.781 16.8549C100.53 16.8549 98.611 19.1068 98.611 23.0237C98.611 26.9011 100.53 29.153 103.781 29.153C107.071 29.153 108.99 26.9011 108.99 23.0237Z" fill="black"/>
<path d="M89.4224 9.37196C89.6312 8.90916 89.761 8.40121 89.761 7.85939C89.761 5.83888 88.1243 4.20215 86.1038 4.20215C84.0833 4.20215 82.4465 5.83888 82.4465 7.85939C82.4465 8.40121 82.5707 8.90916 82.7852 9.37196H89.4224Z" fill="black"/>
<path d="M75.5556 28.5724H80.7254V33.5729H77.6833C72.1805 33.5729 69.8044 31.1122 69.8044 24.5709V4.73828H75.5556V24.7346V28.5724Z" fill="black"/>
<path d="M19.3367 0.256836C6.91446 0.256836 0.249023 4.92998 0.249023 17.149C0.249023 28.0587 5.86469 36.4229 19.3367 36.4229C19.6753 36.4229 20.3243 36.4229 20.3243 36.4229C20.3243 38.0088 20.33 40.0406 20.33 41.7959C20.33 42.2305 20.6743 42.6368 21.1992 42.6368C21.6112 42.6368 21.724 42.4845 22.0514 42.1966C24.4275 40.1479 31.4315 33.7872 31.4315 33.7872C34.9195 30.4573 38.4243 26.4953 38.4243 17.149C38.4243 4.92998 31.7532 0.256836 19.3367 0.256836Z" fill="black"/>
</svg>
