<svg width="326" height="43" viewBox="0 0 326 43" fill="none" xmlns="http://www.w3.org/2000/svg">
<path d="M125.429 32.5234C123.838 31.623 122.638 30.3624 121.797 28.7416C120.957 27.1208 120.537 25.29 120.537 23.189C120.537 21.118 120.957 19.2871 121.797 17.6664C122.638 16.0756 123.838 14.815 125.399 13.9146C126.96 13.0142 128.731 12.564 130.742 12.564C133.803 12.564 136.234 13.4644 138.035 15.2352C139.806 17.0061 140.766 19.4072 140.826 22.3486V23.0089C140.826 23.279 140.826 23.5191 140.796 23.6692H122.728C122.848 26.1004 123.628 28.1113 125.069 29.672C126.51 31.2328 128.491 32.0131 130.952 32.0131C132.873 32.0131 134.493 31.5629 135.814 30.6925C137.165 29.8221 138.035 28.7116 138.485 27.3609H140.646C139.956 29.3719 138.755 30.9626 137.045 32.1032C135.334 33.2437 133.293 33.814 130.922 33.814C128.821 33.874 126.99 33.4238 125.429 32.5234ZM138.515 21.8383C138.425 19.5873 137.705 17.7864 136.294 16.4358C134.884 15.0852 133.023 14.3948 130.682 14.3948C128.401 14.3948 126.6 15.0852 125.219 16.4658C123.838 17.8465 123.028 19.6473 122.788 21.8083H138.515V21.8383Z" fill="black"/>
<path d="M149.23 32.5234C147.64 31.623 146.439 30.3624 145.569 28.7416C144.698 27.1208 144.278 25.26 144.278 23.159C144.278 21.118 144.698 19.2871 145.569 17.6664C146.439 16.0756 147.64 14.815 149.23 13.9146C150.821 13.0142 152.622 12.564 154.723 12.564C157.304 12.564 159.465 13.2543 161.206 14.6049C162.977 15.9856 164.117 17.8465 164.718 20.1876H162.467C161.986 18.3267 161.086 16.916 159.705 15.8955C158.325 14.8751 156.674 14.3948 154.693 14.3948C152.172 14.3948 150.161 15.1752 148.69 16.7359C147.219 18.2967 146.469 20.4277 146.469 23.159C146.469 25.9203 147.219 28.1113 148.69 29.672C150.161 31.2628 152.172 32.0432 154.693 32.0432C156.704 32.0432 158.415 31.5329 159.765 30.5124C161.146 29.492 162.046 28.0513 162.527 26.1904H164.778C164.237 28.5315 163.067 30.4224 161.296 31.803C159.525 33.1837 157.334 33.874 154.693 33.874C152.652 33.874 150.821 33.4238 149.23 32.5234Z" fill="black"/>
<path d="M172.852 32.5234C171.261 31.623 170.06 30.3624 169.19 28.7416C168.319 27.1208 167.899 25.26 167.899 23.159C167.899 21.118 168.319 19.2871 169.19 17.6664C170.06 16.0756 171.261 14.815 172.852 13.9146C174.442 13.0142 176.273 12.564 178.374 12.564C180.475 12.564 182.306 13.0142 183.897 13.9146C185.487 14.815 186.688 16.0756 187.558 17.6664C188.429 19.2571 188.849 21.088 188.849 23.159C188.849 25.26 188.429 27.1208 187.558 28.7416C186.688 30.3624 185.487 31.623 183.897 32.5234C182.306 33.4238 180.475 33.874 178.374 33.874C176.273 33.874 174.442 33.4238 172.852 32.5234ZM172.341 29.672C173.812 31.2628 175.823 32.0432 178.344 32.0432C180.895 32.0432 182.906 31.2628 184.407 29.672C185.908 28.0813 186.658 25.9203 186.658 23.159C186.658 20.4577 185.908 18.2967 184.407 16.7359C182.906 15.1752 180.895 14.3948 178.344 14.3948C175.823 14.3948 173.812 15.1752 172.341 16.7359C170.871 18.2967 170.12 20.4277 170.12 23.159C170.12 25.9203 170.841 28.0813 172.341 29.672Z" fill="black"/>
<path d="M194.552 32.0129C193.111 30.7823 192.391 29.0715 192.391 26.8805H194.522C194.522 28.6513 195.092 29.972 196.263 30.8124C197.433 31.6527 198.964 32.0729 200.855 32.0729C202.626 32.0729 204.036 31.7428 205.057 31.0525C206.107 30.3621 206.618 29.3717 206.618 27.991C206.618 27.0606 206.377 26.3102 205.867 25.74C205.357 25.1697 204.757 24.7495 204.006 24.4794C203.286 24.2092 202.266 23.9091 200.945 23.5789L200.044 23.3388C198.454 22.9186 197.223 22.4984 196.323 22.0782C195.422 21.658 194.702 21.0878 194.222 20.4274C193.741 19.7371 193.501 18.8667 193.501 17.7862C193.501 16.1054 194.132 14.8148 195.362 13.9144C196.593 13.044 198.304 12.5938 200.525 12.5938C203.016 12.5938 204.877 13.104 206.107 14.1545C207.338 15.205 207.968 16.5556 207.968 18.2964H205.897C205.897 17.0358 205.417 16.0454 204.427 15.3851C203.436 14.7248 202.145 14.3946 200.495 14.3946C199.114 14.3946 197.974 14.6347 197.103 15.1149C196.203 15.5952 195.782 16.4356 195.782 17.5761C195.782 18.3865 195.993 19.0168 196.383 19.497C196.773 19.9772 197.283 20.3074 197.913 20.5475C198.544 20.7876 199.474 21.0878 200.765 21.4479C202.596 21.9282 204.036 22.3484 205.087 22.7686C206.137 23.1587 207.038 23.789 207.758 24.6294C208.478 25.4698 208.869 26.5503 208.869 27.901C208.869 29.7018 208.178 31.1425 206.828 32.253C205.477 33.3636 203.466 33.9038 200.765 33.9038C198.064 33.8738 195.993 33.2435 194.552 32.0129Z" fill="black"/>
<path d="M217.543 40.0871H220.244C223.035 40.0871 225.106 39.3667 226.457 37.896C227.808 36.4554 228.468 34.2643 228.468 31.3229V29.342C227.808 30.5726 226.877 31.473 225.737 32.1033C224.596 32.7336 223.185 33.0337 221.595 33.0337C218.863 33.0337 216.852 32.2234 215.622 30.6326C214.391 29.0419 213.761 26.6107 213.761 23.3992V12.8042H215.922V23.3092C215.922 26.0104 216.402 28.0214 217.393 29.282C218.383 30.5426 219.884 31.2029 221.925 31.2029C224.176 31.2029 225.827 30.5126 226.877 29.1019C227.928 27.6912 228.468 25.7403 228.468 23.2191V12.8042H230.599V30.7827C230.599 34.5345 229.729 37.3258 227.988 39.1566C226.247 40.9875 223.636 41.8879 220.184 41.8879H217.573V40.0871H217.543Z" fill="black"/>
<path d="M237.472 32.0129C236.031 30.7823 235.311 29.0715 235.311 26.8805H237.442C237.442 28.6513 238.012 29.972 239.183 30.8124C240.353 31.6527 241.884 32.0729 243.775 32.0729C245.546 32.0729 246.957 31.7428 247.977 31.0525C249.028 30.3621 249.538 29.3717 249.538 27.991C249.538 27.0606 249.298 26.3102 248.787 25.74C248.277 25.1697 247.677 24.7495 246.927 24.4794C246.206 24.2092 245.186 23.9091 243.865 23.5789L242.965 23.3388C241.374 22.9186 240.143 22.4984 239.243 22.0782C238.342 21.658 237.622 21.0878 237.142 20.4274C236.662 19.7371 236.422 18.8667 236.422 17.7862C236.422 16.1054 237.052 14.8148 238.282 13.9144C239.513 13.044 241.224 12.5938 243.445 12.5938C245.936 12.5938 247.797 13.104 249.028 14.1545C250.258 15.205 250.888 16.5556 250.888 18.2964H248.817C248.817 17.0358 248.337 16.0454 247.347 15.3851C246.356 14.7248 245.066 14.3946 243.415 14.3946C242.034 14.3946 240.894 14.6347 240.023 15.1149C239.123 15.5952 238.703 16.4356 238.703 17.5761C238.703 18.3865 238.913 19.0168 239.303 19.497C239.693 19.9772 240.203 20.3074 240.834 20.5475C241.464 20.7876 242.394 21.0878 243.685 21.4479C245.516 21.9282 246.957 22.3484 248.007 22.7686C249.058 23.1587 249.958 23.789 250.678 24.6294C251.399 25.4698 251.789 26.5503 251.789 27.901C251.789 29.7018 251.098 31.1425 249.748 32.253C248.397 33.3636 246.386 33.9038 243.685 33.9038C240.984 33.8738 238.913 33.2435 237.472 32.0129Z" fill="black"/>
<path d="M261.904 32.764C260.793 32.1937 259.983 31.2633 259.473 29.9727C258.962 28.6821 258.692 26.9412 258.692 24.7502V14.6955H253.35V12.7746H258.752L259.202 6.2915H260.823V12.7746H268.447V14.6955H260.823V24.9903C260.823 26.5511 260.973 27.7816 261.243 28.7121C261.513 29.6425 262.054 30.3629 262.834 30.8731C263.614 31.3833 264.725 31.6235 266.196 31.6235H269.197V33.5744H266.376C264.515 33.6044 263.014 33.3343 261.904 32.764Z" fill="black"/>
<path d="M276.28 32.5234C274.689 31.623 273.489 30.3624 272.649 28.7416C271.808 27.1208 271.388 25.29 271.388 23.189C271.388 21.118 271.808 19.2871 272.649 17.6664C273.489 16.0756 274.69 14.815 276.25 13.9146C277.811 13.0142 279.582 12.564 281.593 12.564C284.654 12.564 287.085 13.4644 288.886 15.2352C290.657 17.0061 291.617 19.4072 291.678 22.3486V23.0089C291.678 23.279 291.678 23.5191 291.647 23.6692H273.579C273.699 26.1004 274.479 28.1113 275.92 29.672C277.361 31.2328 279.342 32.0131 281.803 32.0131C283.724 32.0131 285.345 31.5629 286.665 30.6925C288.016 29.8221 288.886 28.7116 289.336 27.3609H291.497C290.807 29.3719 289.607 30.9626 287.896 32.1032C286.185 33.2437 284.144 33.814 281.773 33.814C279.702 33.874 277.841 33.4238 276.28 32.5234ZM289.396 21.8383C289.306 19.5873 288.586 17.7864 287.175 16.4358C285.765 15.0852 283.904 14.3948 281.563 14.3948C279.282 14.3948 277.481 15.0852 276.1 16.4658C274.72 17.8465 273.909 19.6473 273.669 21.8083H289.396V21.8383Z" fill="black"/>
<path d="M296.66 17.306L296.09 12.8339H297.831L298.581 16.4956C299.751 13.8844 301.882 12.5938 305.004 12.5938C306.745 12.5938 308.155 12.9539 309.236 13.7043C310.316 14.4546 311.097 15.5952 311.607 17.1559C312.177 15.5952 313.048 14.4546 314.218 13.7043C315.389 12.9539 316.769 12.5938 318.42 12.5938C320.941 12.5938 322.772 13.3741 323.943 14.9048C325.113 16.4656 325.684 18.8667 325.684 22.1683V33.6337H323.523V22.2883C323.523 19.497 323.072 17.4861 322.142 16.2555C321.242 15.0249 319.861 14.3946 318.06 14.3946C314.158 14.3946 312.207 17.0358 312.207 22.3484V33.6037H310.046V22.2583C310.046 19.467 309.596 17.456 308.666 16.2255C307.765 14.9949 306.385 14.3646 304.584 14.3646C300.682 14.3646 298.731 17.0058 298.731 22.3183V33.5737H296.6V17.306H296.66Z" fill="black"/>
<path d="M67.622 23.0091C67.622 29.5522 64.3805 34.0243 58.6178 34.0243C55.1961 34.0243 52.6149 32.4036 51.2943 29.2821L50.5139 33.6642H45.7117V29.162V4.79053H51.4744V16.466C52.8851 13.6447 55.3462 12.144 58.6478 12.144C64.3805 12.114 67.622 16.5861 67.622 23.0091ZM61.8293 23.0091C61.8293 19.1673 59.9084 16.9163 56.6068 16.9163C53.3653 16.9163 51.4444 19.1673 51.4444 23.0091C51.4444 26.971 53.3653 29.2221 56.6068 29.2221C59.9084 29.2221 61.8293 26.971 61.8293 23.0091Z" fill="black"/>
<path d="M82.9592 33.6344V12.5044H88.722V33.6344H82.9592Z" fill="black"/>
<path d="M114.534 23.0991C114.534 29.5521 111.293 34.0243 105.53 34.0243C102.228 34.0243 99.7671 32.5235 98.3565 29.7022V40.8675H92.5938V17.0362V12.5341H97.396L98.1764 16.9162C99.557 13.7947 102.108 12.1739 105.5 12.1739C111.293 12.1139 114.534 16.586 114.534 23.0991ZM108.741 23.0991C108.741 19.1672 106.82 16.9162 103.519 16.9162C100.277 16.9162 98.3565 19.1672 98.3565 23.0991C98.3565 26.9709 100.277 29.222 103.519 29.222C106.82 29.222 108.741 26.9709 108.741 23.0991Z" fill="black"/>
<path d="M89.172 9.44271C89.3821 8.9925 89.5022 8.48226 89.5022 7.942C89.5022 5.93105 87.8514 4.28027 85.8404 4.28027C83.8295 4.28027 82.1787 5.93105 82.1787 7.942C82.1787 8.48226 82.2988 8.9925 82.5089 9.44271H89.172Z" fill="black"/>
<path d="M75.3055 28.6218H80.4679V33.6341H77.4365C71.9439 33.6341 69.5728 31.173 69.5728 24.6299V4.79053H75.3355V24.78V28.6218H75.3055Z" fill="black"/>
<path d="M19.089 0.318359C6.66314 0.318359 0 5.00057 0 17.2163C0 28.1115 5.61265 36.4854 19.089 36.4854C19.4192 36.4854 20.0795 36.4854 20.0795 36.4854C20.0795 38.0762 20.0795 40.1171 20.0795 41.858C20.0795 42.2782 20.4396 42.6984 20.9499 42.6984C21.3701 42.6984 21.4601 42.5483 21.7903 42.2481C24.1614 40.2072 31.1847 33.8442 31.1847 33.8442C34.6664 30.5126 38.178 26.5507 38.178 17.2163C38.178 5.00057 31.5149 0.318359 19.089 0.318359Z" fill="black"/>
</svg>
