<svg width="274" height="43" viewBox="0 0 274 43" fill="none" xmlns="http://www.w3.org/2000/svg">
<path d="M141.992 23.3781C141.992 29.6033 138.216 33.9999 132.279 33.9999C128.627 33.9999 125.766 32.4648 124.146 29.6033V42.5956H122.03V17.4069L121.448 12.9256H123.192L124.061 17.3222C125.636 14.3366 128.543 12.7168 132.279 12.7168C138.216 12.7112 141.992 17.0682 141.992 23.3781ZM139.791 23.3781C139.791 17.8189 136.721 14.4946 131.991 14.4946C127.216 14.4946 124.146 17.8132 124.146 23.3781C124.146 28.8583 127.216 32.177 131.991 32.177C136.721 32.177 139.791 28.8527 139.791 23.3781Z" fill="black"/>
<path d="M146.806 24.5407V12.9199H148.923V24.5802C148.923 30.2241 151.412 32.1769 155.232 32.1769C159.053 32.1769 161.497 30.2241 161.497 24.5802V12.9199H163.653V24.5407C163.653 30.8506 160.747 34.0055 155.227 34.0055C149.673 33.9999 146.806 30.8449 146.806 24.5407Z" fill="black"/>
<path d="M169.969 33.7515V17.4012L169.681 14.9122L169.393 12.9199H171.137L171.882 16.3232C172.881 14.0431 174.828 12.9199 178.356 12.9199H179.727V15.121H178.316C173.462 15.121 172.091 16.865 172.091 22.5484V33.7515H169.969Z" fill="black"/>
<path d="M204.413 23.3781C204.413 29.6033 200.638 33.9999 194.7 33.9999C191.049 33.9999 188.187 32.4648 186.567 29.6033V42.5956H184.451V17.4069L183.87 12.9256H185.614L186.483 17.3222C188.057 14.3366 190.964 12.7168 194.7 12.7168C200.638 12.7112 204.413 17.0682 204.413 23.3781ZM202.212 23.3781C202.212 17.8189 199.142 14.4946 194.412 14.4946C189.638 14.4946 186.567 17.8132 186.567 23.3781C186.567 28.8583 189.638 32.177 194.412 32.177C199.142 32.177 202.212 28.8527 202.212 23.3781Z" fill="black"/>
<path d="M208.065 23.2932C208.065 17.068 212.134 12.7109 218.523 12.7109C224.912 12.7109 228.981 17.068 228.981 23.2932C228.981 29.6031 224.912 33.9997 218.523 33.9997C212.134 33.9997 208.065 29.6031 208.065 23.2932ZM226.786 23.2932C226.786 17.813 223.546 14.5396 218.484 14.5396C213.461 14.5396 210.266 17.8187 210.266 23.2932C210.266 28.8525 213.461 32.1767 218.484 32.1767C223.546 32.1767 226.786 28.8525 226.786 23.2932Z" fill="black"/>
<path d="M232.554 27.0295H234.67C234.67 30.7658 237.492 32.2162 240.98 32.2162C244.423 32.2162 246.788 30.9689 246.788 28.147C246.788 24.8284 243.509 24.3317 240.23 23.4569C235.997 22.2943 233.671 21.2163 233.671 17.8977C233.671 14.4944 236.285 12.7109 240.687 12.7109C245.874 12.7109 248.114 15.1209 248.114 18.6032H246.037C246.037 15.7417 243.797 14.4944 240.642 14.4944C238.237 14.4944 235.867 15.1999 235.867 17.6889C235.867 20.2625 238.023 20.7591 240.93 21.5493C244.914 22.5878 248.983 23.5811 248.983 27.9833C248.983 31.4261 246.449 33.9997 240.89 33.9997C235.461 33.9997 232.554 31.3471 232.554 27.0295Z" fill="black"/>
<path d="M272.975 23.8351H254.921C255.129 28.5646 258.076 32.1767 263.138 32.1767C267.083 32.1767 269.821 30.0998 270.69 27.5262H272.846C271.474 31.5503 267.947 33.9997 263.133 33.9997C256.744 33.9997 252.714 29.6031 252.714 23.3328C252.714 17.068 256.783 12.7109 262.924 12.7109C269.149 12.7109 272.8 16.6955 273.009 22.5031C273.021 23.0054 273.06 23.3328 272.975 23.8351ZM255.005 21.9669H270.735C270.571 17.5252 267.625 14.5396 262.89 14.5396C258.205 14.5396 255.462 17.8187 255.005 21.9669Z" fill="black"/>
<path d="M67.6394 23.1467C67.6394 29.6936 64.3885 34.1522 58.6374 34.1522C55.2172 34.1522 52.6323 32.5268 51.3003 29.4001L50.5102 33.7797H45.7185V29.2759V4.93945H51.4696V16.5997C52.8863 13.7665 55.347 12.2652 58.6374 12.2652C64.3885 12.2652 67.6394 16.7239 67.6394 23.1467ZM61.8431 23.1467C61.8431 19.3088 59.9242 17.0625 56.6338 17.0625C53.3829 17.0625 51.464 19.3145 51.464 23.1467C51.464 27.1087 53.3829 29.3606 56.6338 29.3606C59.9242 29.3549 61.8431 27.103 61.8431 23.1467Z" fill="black"/>
<path d="M82.9907 33.7741V12.6377H88.7419V33.7741H82.9907Z" fill="black"/>
<path d="M114.551 23.2249C114.551 29.6871 111.3 34.1458 105.549 34.1458C102.259 34.1458 99.7981 32.6445 98.3815 29.8113V40.9693H92.6304V17.1351V12.6313H97.422L98.2122 17.0109C99.5893 13.8842 102.129 12.2588 105.549 12.2588C111.3 12.2644 114.551 16.7231 114.551 23.2249ZM108.755 23.2249C108.755 19.308 106.836 17.0561 103.546 17.0561C100.295 17.0561 98.3759 19.308 98.3759 23.2249C98.3759 27.1022 100.295 29.3541 103.546 29.3541C106.836 29.3541 108.755 27.1022 108.755 23.2249Z" fill="black"/>
<path d="M89.1875 9.57313C89.3963 9.11033 89.5262 8.60238 89.5262 8.06057C89.5262 6.04005 87.8894 4.40332 85.8689 4.40332C83.8484 4.40332 82.2117 6.04005 82.2117 8.06057C82.2117 8.60238 82.3358 9.11033 82.5503 9.57313H89.1875Z" fill="black"/>
<path d="M75.3207 28.7736H80.4905V33.7741H77.4485C71.9457 33.7741 69.5696 31.3134 69.5696 24.7721V4.93945H75.3207V24.9358V28.7736Z" fill="black"/>
<path d="M19.1018 0.458008C6.6796 0.458008 0.0141602 5.13115 0.0141602 17.3502C0.0141602 28.2598 5.62984 36.6241 19.1018 36.6241C19.4404 36.6241 20.0895 36.6241 20.0895 36.6241C20.0895 38.21 20.0951 40.2418 20.0951 41.9971C20.0951 42.4316 20.4394 42.838 20.9643 42.838C21.3763 42.838 21.4892 42.6856 21.8165 42.3978C24.1926 40.3491 31.1967 33.9884 31.1967 33.9884C34.6902 30.6641 38.1895 26.6965 38.1895 17.3502C38.1895 5.13115 31.524 0.458008 19.1018 0.458008Z" fill="black"/>
</svg>
