<svg width="335" height="43" viewBox="0 0 335 43" fill="none" xmlns="http://www.w3.org/2000/svg">
<path d="M18.5173 0.238281C14.1173 0.238281 9.51728 0.938281 6.41728 2.83828C1.31728 6.03828 -0.182722 12.0383 0.0172782 17.7383C0.117278 22.6383 1.41728 27.8383 4.91728 31.3383C8.21728 34.7383 14.9173 36.3383 19.6173 36.3383C19.8173 36.3383 20.0173 36.5383 20.0173 36.7383V41.6383C20.0173 42.1383 20.4173 42.5383 20.9173 42.5383H21.0173C21.2173 42.5383 21.3173 42.4383 21.5173 42.3383C23.8173 40.3383 26.1173 38.3383 28.4173 36.2383C30.5173 34.2383 33.0173 32.1383 34.7173 29.8383C38.2173 24.8383 38.8173 17.6383 37.6173 11.7383C36.3173 5.93828 32.3173 2.23828 26.6173 1.03828C24.3173 0.538281 21.4173 0.238281 18.5173 0.238281Z" fill="#00C6D7"/>
<path fill-rule="evenodd" clip-rule="evenodd" d="M41.9173 0.738281C41.7173 0.438281 42.0173 0.238281 42.3173 0.238281H49.3173C49.6173 0.238281 49.9173 0.438281 49.9173 0.838281V11.9383C51.6173 9.93828 54.1173 8.93828 57.1173 8.93828C63.2173 8.93828 67.7173 12.8383 67.7173 21.4383C67.7173 30.0383 63.2173 33.8383 57.1173 33.8383C54.0173 33.8383 51.6173 32.8383 49.9173 30.9383L49.5173 32.9383C49.4173 33.2383 49.2173 33.3383 49.0173 33.3383H42.5173C42.2173 33.3383 41.9173 33.1383 41.9173 32.7383V0.738281ZM54.4661 27.6381C53.1836 27.6289 52.0903 27.2744 51.2739 26.5218C50.9965 26.2633 50.749 25.958 50.5346 25.6041C50.2698 25.1604 50.0617 24.6399 49.9173 24.0383C49.9005 24.0215 49.8866 24.0019 49.875 23.98C49.8568 23.9091 49.8395 23.837 49.823 23.7639C49.8173 23.6925 49.8173 23.6154 49.8173 23.5383H49.9173V19.4383C49.9173 19.2383 49.9173 19.0383 50.0173 18.8383C50.7118 16.3577 52.3909 15.2555 54.4683 15.2385C57.2416 15.2603 59.2173 17.0651 59.2173 21.4383C59.2173 25.8127 57.2405 27.6173 54.4661 27.6381ZM89.6173 9.93828C89.6173 9.63828 89.8173 9.33828 90.2173 9.33828H96.7173C97.0173 9.33828 97.2173 9.53828 97.2173 9.73828L97.6173 11.7383C99.3173 9.83828 101.717 8.83828 104.817 8.83828C110.817 8.83828 115.417 12.6383 115.417 21.2383C115.417 29.8383 110.917 33.7383 104.817 33.7383C101.817 33.7383 99.3173 32.7383 97.6173 30.7383V41.8383C97.6173 42.1383 97.4173 42.4383 97.0173 42.4383H90.0173C89.8173 42.4383 89.6173 42.2383 89.6173 41.9383V9.93828ZM97.7173 23.9383C97.6173 23.7383 97.6173 23.5383 97.6173 23.3383V19.0383C98.2173 16.3383 99.9173 15.1383 102.217 15.1383C105.017 15.1383 107.017 16.9383 107.017 21.3383C107.017 25.7383 105.017 27.5383 102.217 27.5383C100.411 27.5383 98.9421 26.7295 98.0866 24.9461C97.9434 24.6395 97.8196 24.3038 97.7173 23.9383ZM69.5173 0.238281C69.2173 0.238281 68.9173 0.438281 68.8173 0.838281V32.8383C68.8173 33.2383 69.1173 33.4383 69.4173 33.4383H76.4173C76.8173 33.4383 77.0173 33.1383 77.0173 32.8383V0.838281C77.0173 0.438281 76.8173 0.238281 76.5173 0.238281H69.5173ZM79.9173 6.43828C79.5173 6.33828 79.3173 6.13828 79.3173 5.83828V0.838281C79.3173 0.538281 79.5173 0.238281 79.9173 0.238281H86.9173C87.2173 0.238281 87.5173 0.438281 87.5173 0.838281V5.83828C87.5173 6.13828 87.3173 6.43828 86.9173 6.43828H79.9173ZM79.2173 9.93828C79.3173 9.63828 79.5173 9.33828 79.8173 9.33828H86.8173C87.1173 9.33828 87.4173 9.53828 87.4173 9.93828V32.7383C87.4173 33.0383 87.2173 33.3383 86.8173 33.3383H79.8173C79.5173 33.3383 79.2173 33.1383 79.2173 32.7383V9.93828ZM129.017 9.63828C122.517 9.63828 117.717 13.2383 117.717 21.6383C117.717 30.0383 122.517 33.6383 129.017 33.4383C134.317 33.4383 138.217 31.0383 139.517 25.6383H136.417C135.317 29.4383 132.617 30.9383 129.017 30.9383C124.417 30.9383 120.817 28.3383 120.817 21.5383C120.817 14.8383 124.317 12.1383 129.017 12.1383C132.517 12.1383 135.217 13.6383 136.417 17.3383H139.517C138.117 11.9383 134.317 9.63828 129.017 9.63828ZM140.317 21.6383C140.317 13.2383 145.017 9.63828 151.617 9.63828C158.217 9.63828 162.917 13.2383 162.917 21.6383C162.917 30.0383 158.217 33.6383 151.617 33.6383C145.017 33.6383 140.317 30.0383 140.317 21.6383ZM151.517 31.0383C156.217 31.0383 159.717 28.4383 159.717 21.6383C159.717 14.8383 156.217 12.2383 151.517 12.2383C146.817 12.2383 143.317 14.9383 143.317 21.6383C143.417 28.4383 146.817 31.0383 151.517 31.0383ZM168.017 9.93828H165.417H165.317V33.3383H168.317V22.8383C168.417 16.8383 170.417 12.1383 175.517 12.1383C178.917 12.1383 181.417 13.7383 181.417 19.0383V33.3383H184.417V22.8383C184.517 16.8383 186.517 12.1383 191.617 12.1383C195.117 12.1383 197.617 13.7383 197.617 19.0383V33.3383H200.517V19.0383C200.617 12.3383 197.717 9.53828 192.617 9.53828C188.017 9.53828 185.417 11.7383 184.117 15.2383C183.217 11.3383 180.617 9.53828 176.517 9.53828C172.217 9.53828 169.717 11.5383 168.317 14.6383L168.017 9.93828ZM204.917 9.93828H207.517L207.817 14.6383C209.217 11.5383 211.717 9.53828 216.017 9.53828C220.117 9.53828 222.717 11.3383 223.617 15.2383C224.917 11.7383 227.517 9.53828 232.117 9.53828C237.217 9.53828 240.117 12.3383 240.017 19.0383V33.3383H237.017V19.0383C237.017 13.7383 234.517 12.1383 231.017 12.1383C225.917 12.1383 223.917 16.8383 223.817 22.8383V33.3383H220.817V19.0383C220.817 13.7383 218.317 12.1383 214.917 12.1383C209.817 12.1383 207.817 16.8383 207.717 22.8383V33.3383H204.717V9.93828H204.917ZM244.317 9.93828V24.2383C244.317 30.9383 247.317 33.6383 252.917 33.6383C257.617 33.6383 260.317 31.6383 261.817 28.3383L262.017 33.2383H264.617V9.93828H261.717V20.4383C261.517 26.4383 259.417 31.1383 253.817 31.1383C250.017 31.1383 247.317 29.5383 247.317 24.2383V9.93828H244.317ZM269.117 9.93828H271.617L271.917 14.9383C273.317 11.6383 276.117 9.63828 280.917 9.63828C286.517 9.63828 289.617 12.4383 289.617 19.0383V33.3383H286.617V19.0383C286.617 13.7383 283.817 12.1383 280.017 12.1383C274.317 12.1383 272.217 16.8383 272.117 22.8383V33.3383H269.117V9.93828ZM293.817 0.238281V4.63828H296.817V0.238281H293.817ZM296.817 9.93828H293.817V33.2383H296.817V9.93828ZM298.917 12.3383V9.93828H303.117V2.93828H306.017V9.93828H312.017H312.717H315.217L323.017 29.7383L331.617 9.93828H334.817L323.217 36.7383C320.717 42.4383 318.017 42.8383 314.417 42.8383V40.0383C317.117 40.0383 318.917 39.3383 320.217 36.2383L321.517 33.1383L312.717 11.6478V12.3383H306.017V26.4383C306.017 30.0383 306.617 30.7383 309.617 30.7383H313.017V33.3383H308.917C305.017 33.3383 303.117 31.6383 303.117 26.7383V12.3383H298.917Z" fill="black"/>
</svg>
