<svg width="203" height="44" viewBox="0 0 203 44" fill="none" xmlns="http://www.w3.org/2000/svg">
<path d="M134.878 31.9828V33.9356H132.016C126.536 33.9356 124.38 31.6103 124.38 25.0973V15.0455H119.024V13.0927H124.419L124.877 6.61914H126.496V13.0927H134.133V15.0455H126.496V25.3399C126.496 29.5729 127.287 31.9828 131.853 31.9828H134.878Z" fill="white"/>
<path d="M138.659 6.20746C138.659 5.16898 139.365 4.63281 140.403 4.63281C141.481 4.63281 142.147 5.17463 142.147 6.20746C142.147 7.20643 141.481 7.82725 140.403 7.82725C139.365 7.82725 138.659 7.20643 138.659 6.20746ZM139.32 33.9303V13.0986H141.475V33.9303H139.32Z" fill="white"/>
<path d="M177.128 22.4791V33.9305H174.972V22.6033C174.972 16.7957 172.98 14.7187 169.537 14.7187C165.592 14.7187 163.684 17.456 163.684 22.6879V33.9362H161.528V22.6089C161.528 16.8013 159.536 14.7244 156.093 14.7244C152.148 14.7244 150.241 17.4617 150.241 22.6935V33.9418H148.124V17.5915L147.543 13.1102H149.287L150.032 16.7618C151.279 14.1035 153.52 12.9014 156.466 12.9014C159.908 12.9014 162.07 14.3519 163.063 17.4673C164.226 14.3124 166.676 12.9014 169.87 12.9014C174.887 12.8901 177.128 15.9209 177.128 22.4791Z" fill="white"/>
<path d="M202.198 24.0138H184.143C184.352 28.7434 187.298 32.3554 192.361 32.3554C196.306 32.3554 199.043 30.2785 199.912 27.7049H202.068C200.697 31.729 197.169 34.1784 192.355 34.1784C185.966 34.1784 181.937 29.7818 181.937 23.5115C181.937 17.2467 186.006 12.8896 192.146 12.8896C198.372 12.8896 202.023 16.8742 202.232 22.6818C202.238 23.1841 202.283 23.5115 202.198 24.0138ZM184.228 22.1456H199.957C199.794 17.7039 196.842 14.7183 192.112 14.7183C187.422 14.7183 184.685 17.9974 184.228 22.1456Z" fill="white"/>
<path d="M67.6194 23.3254C67.6194 29.8723 64.3685 34.331 58.6174 34.331C55.1972 34.331 52.6123 32.7055 51.2803 29.5788L50.4902 33.9585H45.6985V29.4546V5.11816H51.4496V16.7784C52.8662 13.9452 55.327 12.4439 58.6174 12.4439C64.3685 12.4439 67.6194 16.9026 67.6194 23.3254ZM61.8287 23.3254C61.8287 19.4875 59.9098 17.2412 56.6194 17.2412C53.3685 17.2412 51.4496 19.4932 51.4496 23.3254C51.4496 27.2874 53.3685 29.5393 56.6194 29.5393C59.9098 29.5336 61.8287 27.2817 61.8287 23.3254Z" fill="white"/>
<path d="M82.9766 33.9528V12.8164H88.7277V33.9528H82.9766Z" fill="white"/>
<path d="M114.532 23.4036C114.532 29.8658 111.281 34.3245 105.53 34.3245C102.239 34.3245 99.7786 32.8232 98.362 29.99V41.148H92.6108V17.3138V12.81H97.4025L98.1926 17.1897C99.5698 14.0629 102.11 12.4375 105.53 12.4375C111.281 12.4431 114.532 16.9018 114.532 23.4036ZM108.741 23.4036C108.741 19.4867 106.822 17.2348 103.532 17.2348C100.281 17.2348 98.362 19.4867 98.362 23.4036C98.362 27.2809 100.281 29.5329 103.532 29.5329C106.822 29.5329 108.741 27.2809 108.741 23.4036Z" fill="white"/>
<path d="M89.1734 9.75184C89.3822 9.28904 89.512 8.78109 89.512 8.23928C89.512 6.21876 87.8753 4.58203 85.8548 4.58203C83.8342 4.58203 82.1975 6.21876 82.1975 8.23928C82.1975 8.78109 82.3217 9.28904 82.5361 9.75184H89.1734Z" fill="white"/>
<path d="M75.3065 28.9523H80.4764V33.9528H77.4343C71.9315 33.9528 69.5554 31.4921 69.5554 24.9508V5.11816H75.3065V25.1145V28.9523Z" fill="white"/>
<path d="M19.0876 0.636719C6.66543 0.636719 0 5.30986 0 17.5289C0 28.4385 5.61567 36.8028 19.0876 36.8028C19.4263 36.8028 20.0753 36.8028 20.0753 36.8028C20.0753 38.3887 20.081 40.4205 20.081 42.1758C20.081 42.6104 20.4252 43.0167 20.9501 43.0167C21.3621 43.0167 21.475 42.8643 21.8024 42.5765C24.1784 40.5278 31.1825 34.1671 31.1825 34.1671C34.6704 30.8372 38.1753 26.8752 38.1753 17.5289C38.1753 5.30986 31.5042 0.636719 19.0876 0.636719Z" fill="#0096FA"/>
</svg>
