<svg width="298" height="43" viewBox="0 0 298 43" fill="none" xmlns="http://www.w3.org/2000/svg">
<path d="M141.605 33.6733H139.861L139.031 29.3162C137.457 32.2623 134.59 33.9216 130.853 33.9216C124.877 33.9216 121.061 29.525 121.061 23.2152C121.061 16.99 124.882 12.6329 130.853 12.6329C134.545 12.6329 137.412 14.2075 138.986 17.1141L139.443 12.8417H141.018V29.1921L141.605 33.6733ZM138.907 23.2152C138.907 17.735 135.877 14.4558 131.107 14.4558C126.338 14.4558 123.262 17.735 123.262 23.2152C123.262 28.7744 126.333 32.0987 131.107 32.0987C135.882 32.0987 138.907 28.7744 138.907 23.2152Z" fill="white"/>
<path d="M146.177 23.2152C146.177 16.99 150.246 12.6329 156.595 12.6329C161.782 12.6329 165.479 15.6636 166.596 20.2691H164.356C163.402 16.578 160.54 14.4615 156.595 14.4615C151.572 14.4615 148.378 17.7406 148.378 23.2208C148.378 28.78 151.572 32.1043 156.595 32.1043C160.619 32.1043 163.486 29.9878 164.44 26.2516H166.675C165.597 30.857 161.861 33.9273 156.59 33.9273C150.24 33.9216 146.177 29.525 146.177 23.2152Z" fill="white"/>
<path d="M190.335 33.6733H188.591L187.761 29.3162C186.186 32.2623 183.319 33.9216 179.583 33.9216C173.606 33.9216 169.791 29.525 169.791 23.2152C169.791 16.99 173.612 12.6329 179.583 12.6329C183.274 12.6329 186.141 14.2075 187.716 17.1141L188.173 12.8417H189.748V29.1921L190.335 33.6733ZM187.637 23.2152C187.637 17.735 184.606 14.4558 179.837 14.4558C175.068 14.4558 171.992 17.735 171.992 23.2152C171.992 28.7744 175.062 32.0987 179.837 32.0987C184.612 32.0987 187.637 28.7744 187.637 23.2152Z" fill="white"/>
<path d="M215.444 33.6733H213.7L212.831 29.3162C211.256 32.2623 208.389 33.9216 204.614 33.9216C198.676 33.9216 194.9 29.525 194.9 23.2151C194.9 16.9899 198.676 12.6328 204.614 12.6328C208.305 12.6328 211.127 14.168 212.746 16.9899V3.99768H214.863V29.1864L215.444 33.6733ZM212.746 23.2151C212.746 17.7349 209.676 14.4558 204.947 14.4558C200.172 14.4558 197.102 17.7349 197.102 23.2151C197.102 28.7744 200.172 32.0986 204.947 32.0986C209.676 32.0986 212.746 28.7744 212.746 23.2151Z" fill="white"/>
<path d="M240.221 23.757H222.166C222.375 28.4866 225.321 32.0987 230.384 32.0987C234.329 32.0987 237.066 30.0217 237.935 27.4481H240.091C238.72 31.4722 235.192 33.9216 230.378 33.9216C223.989 33.9216 219.959 29.5251 219.959 23.2547C219.959 16.9843 224.028 12.6329 230.169 12.6329C236.394 12.6329 240.046 16.6175 240.255 22.425C240.26 22.9273 240.305 23.2547 240.221 23.757ZM222.251 21.8889H237.98C237.817 17.4471 234.865 14.4615 230.135 14.4615C225.445 14.4615 222.708 17.7406 222.251 21.8889Z" fill="white"/>
<path d="M274.253 22.2218V33.6732H272.098V22.3459C272.098 16.5384 270.105 14.4614 266.662 14.4614C262.717 14.4614 260.81 17.1987 260.81 22.4306V33.6789H258.654V22.3516C258.654 16.544 256.662 14.467 253.219 14.467C249.274 14.467 247.366 17.2043 247.366 22.4362V33.6845H245.25V17.3341L244.668 12.8529H246.412L247.157 16.5045C248.404 13.8462 250.645 12.6441 253.591 12.6441C257.034 12.6441 259.196 14.0946 260.189 17.21C261.352 14.055 263.801 12.6441 266.995 12.6441C272.013 12.6328 274.253 15.6636 274.253 22.2218Z" fill="white"/>
<path d="M294.967 12.8416H297.083V30.8513C297.083 38.4028 293.556 41.9754 286.664 41.9754H284.051V40.1468H286.749C292.353 40.1468 294.967 37.2402 294.967 31.3931V29.4008C293.64 31.8108 291.275 33.0919 288.075 33.0919C282.471 33.0919 280.23 29.6887 280.23 23.503V12.836H282.386V23.3788C282.386 28.8139 284.339 31.2633 288.403 31.2633C293.053 31.2633 294.961 28.1535 294.961 23.2941V12.8416H294.967Z" fill="white"/>
<path d="M68.1667 23.0684C68.1667 29.6153 64.9158 34.074 59.1647 34.074C55.7445 34.074 53.1596 32.4486 51.8277 29.3218L51.0375 33.7015H46.2458V29.1977V4.86121H51.997V16.5215C53.4136 13.6883 55.8743 12.187 59.1647 12.187C64.9158 12.187 68.1667 16.6457 68.1667 23.0684ZM62.3705 23.0684C62.3705 19.2306 60.4515 16.9843 57.1611 16.9843C53.9103 16.9843 51.9913 19.2362 51.9913 23.0684C51.9913 27.0304 53.9103 29.2823 57.1611 29.2823C60.4515 29.2767 62.3705 27.0248 62.3705 23.0684Z" fill="white"/>
<path d="M83.5181 33.696V12.5596H89.2692V33.696H83.5181Z" fill="white"/>
<path d="M115.079 23.1474C115.079 29.6097 111.828 34.0684 106.077 34.0684C102.786 34.0684 100.326 32.5671 98.9091 29.7338V40.8918H93.158V17.0577V12.5538H97.9496L98.7398 16.9335C100.117 13.8068 102.657 12.1813 106.077 12.1813C111.828 12.187 115.079 16.6457 115.079 23.1474ZM109.283 23.1474C109.283 19.2306 107.364 16.9786 104.073 16.9786C100.822 16.9786 98.9034 19.2306 98.9034 23.1474C98.9034 27.0248 100.822 29.2767 104.073 29.2767C107.364 29.2767 109.283 27.0248 109.283 23.1474Z" fill="white"/>
<path d="M89.7149 9.49488C89.9237 9.03208 90.0535 8.52413 90.0535 7.98232C90.0535 5.9618 88.4168 4.32507 86.3963 4.32507C84.3757 4.32507 82.739 5.9618 82.739 7.98232C82.739 8.52413 82.8632 9.03208 83.0777 9.49488H89.7149Z" fill="white"/>
<path d="M75.8481 28.6954H81.0179V33.6959H77.9758C72.473 33.6959 70.0969 31.2351 70.0969 24.6938V4.86121H75.8481V24.8575V28.6954Z" fill="white"/>
<path d="M19.6292 0.380005C7.20694 0.380005 0.541504 5.05315 0.541504 17.2722C0.541504 28.1818 6.15718 36.5461 19.6292 36.5461C19.9678 36.5461 20.6168 36.5461 20.6168 36.5461C20.6168 38.132 20.6225 40.1638 20.6225 41.9191C20.6225 42.3536 20.9668 42.76 21.4916 42.76C21.9036 42.76 22.0165 42.6076 22.3439 42.3198C24.7199 40.2711 31.724 33.9104 31.724 33.9104C35.2176 30.5861 38.7168 26.6185 38.7168 17.2722C38.7168 5.05315 32.0514 0.380005 19.6292 0.380005Z" fill="white"/>
</svg>
