<svg width="215" height="43" viewBox="0 0 215 43" fill="none" xmlns="http://www.w3.org/2000/svg">
<path d="M120.691 26.923H122.807C122.807 30.6593 125.629 32.1098 129.117 32.1098C132.56 32.1098 134.925 30.8625 134.925 28.0405C134.925 24.7219 131.645 24.2253 128.366 23.3505C124.133 22.1878 121.808 21.1098 121.808 17.7912C121.808 14.388 124.421 12.6045 128.824 12.6045C134.01 12.6045 136.251 15.0144 136.251 18.4967H134.174C134.174 15.6353 131.933 14.388 128.778 14.388C126.368 14.388 124.004 15.0934 124.004 17.5824C124.004 20.156 126.16 20.6527 129.066 21.4428C133.051 22.4813 137.12 23.4746 137.12 27.8769C137.12 31.3196 134.586 33.8933 129.027 33.8933C123.597 33.8989 120.691 31.2406 120.691 26.923Z" fill="white"/>
<path d="M154.599 31.6981V33.6509H151.738C146.257 33.6509 144.101 31.3256 144.101 24.8125V14.772H138.745V12.8192H144.141L144.598 6.3457H146.218V12.8192H153.854V14.772H146.218V25.0665C146.218 29.2994 147.008 31.7037 151.574 31.7037H154.599V31.6981Z" fill="white"/>
<path d="M156.716 23.1927C156.716 16.9674 160.785 12.6104 167.174 12.6104C173.563 12.6104 177.632 16.9674 177.632 23.1927C177.632 29.5025 173.563 33.8991 167.174 33.8991C160.785 33.8991 156.716 29.4969 156.716 23.1927ZM175.436 23.1927C175.436 17.7124 172.197 14.439 167.134 14.439C162.111 14.439 158.917 17.7181 158.917 23.1927C158.917 28.7519 162.111 32.0761 167.134 32.0761C172.197 32.0705 175.436 28.7519 175.436 23.1927Z" fill="white"/>
<path d="M182.785 33.6509V17.3006L182.497 14.8116L182.209 12.8193H183.953L184.698 16.2226C185.697 13.9425 187.644 12.8193 191.171 12.8193H192.543V15.0205H191.132C186.278 15.0205 184.907 16.7644 184.907 22.4478V33.6509H182.785Z" fill="white"/>
<path d="M214.447 23.7286H196.392C196.601 28.4582 199.547 32.0703 204.61 32.0703C208.555 32.0703 211.292 29.9933 212.161 27.4197H214.317C212.946 31.4438 209.418 33.8933 204.604 33.8933C198.215 33.8933 194.185 29.4967 194.185 23.2263C194.185 16.9616 198.255 12.6045 204.395 12.6045C210.62 12.6045 214.272 16.5891 214.481 22.3966C214.492 22.8989 214.532 23.2319 214.447 23.7286ZM196.477 21.8605H212.206C212.043 17.4187 209.096 14.4331 204.361 14.4331C199.677 14.4331 196.934 17.7122 196.477 21.8605Z" fill="white"/>
<path d="M67.8752 23.0404C67.8752 29.5873 64.6243 34.046 58.8732 34.046C55.453 34.046 52.8681 32.4206 51.5362 29.2939L50.746 33.6735H45.9543V29.1697V4.83887H51.7055V16.4991C53.1221 13.6659 55.5828 12.1646 58.8732 12.1646C64.6243 12.1646 67.8752 16.6177 67.8752 23.0404ZM62.0789 23.0404C62.0789 19.2026 60.16 16.9563 56.8696 16.9563C53.6188 16.9563 51.6998 19.2082 51.6998 23.0404C51.6998 27.0024 53.6188 29.2544 56.8696 29.2544C60.16 29.2487 62.0789 26.9968 62.0789 23.0404Z" fill="white"/>
<path d="M83.2266 33.6735V12.5371H88.9777V33.6735C88.9777 33.6679 83.2266 33.6679 83.2266 33.6735Z" fill="white"/>
<path d="M114.787 23.1194C114.787 29.5817 111.536 34.0403 105.785 34.0403C102.495 34.0403 100.034 32.5391 98.6176 29.7058V40.8638H92.8665V17.0296V12.5258H97.6581L98.4483 16.9055C99.8254 13.7788 102.365 12.1533 105.785 12.1533C111.536 12.1646 114.787 16.6176 114.787 23.1194ZM108.991 23.1194C108.991 19.2025 107.072 16.9506 103.782 16.9506C100.531 16.9506 98.6119 19.2025 98.6119 23.1194C98.6119 26.9968 100.531 29.2487 103.782 29.2487C107.072 29.2487 108.991 26.9968 108.991 23.1194Z" fill="white"/>
<path d="M89.4234 9.46668C89.6322 9.00388 89.762 8.49593 89.762 7.95412C89.762 5.9336 88.1253 4.29688 86.1048 4.29688C84.0842 4.29688 82.4475 5.9336 82.4475 7.95412C82.4475 8.49593 82.5717 9.00388 82.7861 9.46668H89.4234Z" fill="white"/>
<path d="M75.5565 28.673H80.7264V33.6735H77.6843C72.1815 33.6735 69.8054 31.2128 69.8054 24.6715V4.83887H75.5565V24.8352V28.673Z" fill="white"/>
<path d="M19.3376 0.357422C6.91543 0.357422 0.25 5.03057 0.25 17.2496C0.25 28.1592 5.86567 36.5235 19.3376 36.5235C19.6763 36.5235 20.3253 36.5235 20.3253 36.5235C20.3253 38.1094 20.331 40.1412 20.331 41.8965C20.331 42.3311 20.6752 42.7374 21.2001 42.7374C21.6121 42.7374 21.725 42.585 22.0524 42.2972C24.4284 40.2485 31.4325 33.8878 31.4325 33.8878C34.9261 30.5635 38.4253 26.5959 38.4253 17.2496C38.4253 5.03057 31.7599 0.357422 19.3376 0.357422Z" fill="white"/>
</svg>
