<svg width="171" height="63" viewBox="0 0 171 63" fill="none" xmlns="http://www.w3.org/2000/svg">
<path d="M132.012 62.0287V14.9287C132.012 14.4287 132.412 14.1287 132.812 14.1287H142.412C142.812 14.1287 143.112 14.4287 143.212 14.7287L143.812 17.6287C146.312 14.7287 149.912 13.3287 154.412 13.3287C163.312 13.3287 170.012 19.0287 170.012 31.6287C170.012 44.2287 163.412 50.0287 154.412 50.0287C150.012 50.0287 146.312 48.6287 143.812 45.6287V61.9287C143.812 62.4287 143.412 62.7287 143.012 62.7287H132.712C132.312 62.8287 132.012 62.5287 132.012 62.0287ZM143.912 34.7287C143.912 35.0287 143.912 35.3287 144.012 35.6287C145.112 39.3287 147.612 40.9287 150.712 40.9287C154.912 40.9287 157.812 38.2287 157.812 31.7287C157.812 25.2287 154.912 22.5287 150.712 22.5287C147.412 22.5287 144.912 24.1287 144.012 27.8287C143.912 28.1287 143.912 28.3287 143.912 28.6287V34.7287Z" fill="white"/>
<path d="M62.3124 0.628723H72.6124C73.1124 0.628723 73.4124 1.02873 73.4124 1.42873V17.7287C75.9124 14.8287 79.6124 13.3287 84.0124 13.3287C93.0124 13.3287 99.6124 19.1287 99.6124 31.7287C99.6124 44.3287 92.9124 50.0287 84.0124 50.0287C79.5124 50.0287 75.9124 48.6287 73.4124 45.7287L72.8124 48.6287C72.7124 49.0287 72.4124 49.2287 72.0124 49.2287H62.4124C61.9124 49.2287 61.6124 48.8287 61.6124 48.4287V1.42873C61.5124 0.928726 61.8124 0.628723 62.3124 0.628723ZM73.4124 34.9287C73.4124 35.2287 73.4124 35.4287 73.5124 35.7287C74.4124 39.4287 76.9124 41.0287 80.2124 41.0287C84.4124 41.0287 87.3124 38.3287 87.3124 31.8287C87.3124 25.3287 84.4124 22.6287 80.2124 22.6287C77.1124 22.6287 74.6124 24.2287 73.5124 27.9287C73.4124 28.2287 73.4124 28.5287 73.4124 28.8287V34.9287Z" fill="white"/>
<path d="M102.412 0.628723H112.712C113.212 0.628723 113.512 1.02873 113.512 1.42873V48.5287C113.512 49.0287 113.112 49.3287 112.712 49.3287H102.412C101.912 49.3287 101.612 48.9287 101.612 48.5287V1.42873C101.612 0.928726 101.912 0.628723 102.412 0.628723Z" fill="white"/>
<path d="M116.812 8.82873V1.42873C116.812 0.928726 117.212 0.628723 117.612 0.628723H127.912C128.412 0.628723 128.712 1.02873 128.712 1.42873V8.82873C128.712 9.32873 128.312 9.62872 127.912 9.62872H117.612C117.112 9.62872 116.812 9.22873 116.812 8.82873ZM117.612 14.1287H127.912C128.412 14.1287 128.712 14.5287 128.712 14.9287V48.5287C128.712 49.0287 128.312 49.3287 127.912 49.3287H117.612C117.112 49.3287 116.812 48.9287 116.812 48.5287V14.9287C116.812 14.4287 117.112 14.1287 117.612 14.1287Z" fill="white"/>
<path d="M27.2123 0.628723C20.7123 0.628723 14.0123 1.62872 9.4123 4.52872C2.0123 9.12873 -0.187695 18.1287 0.0123045 26.3287C0.212305 33.4287 2.11232 41.1287 7.21232 46.4287C12.0123 51.4287 22.0123 53.7287 28.8123 53.7287C29.1123 53.7287 29.4123 53.9287 29.4123 54.3287V61.5287C29.4123 62.2287 30.0123 62.8287 30.7123 62.8287H30.8123C31.1123 62.8287 31.3123 62.7287 31.5123 62.5287C34.9123 59.6287 38.3123 56.6287 41.7123 53.5287C44.9123 50.6287 48.5123 47.5287 50.9123 44.0287C56.1123 36.6287 56.9123 26.0287 55.2123 17.3287C53.5123 8.92873 47.6123 3.42873 39.3123 1.72873C35.8123 1.12873 31.5123 0.628723 27.2123 0.628723Z" fill="#00C6D7"/>
</svg>
