<svg width="216" height="43" viewBox="0 0 216 43" fill="none" xmlns="http://www.w3.org/2000/svg">
<path d="M134.883 31.7435V33.6963H132.022C126.542 33.6963 124.386 31.371 124.386 24.858V14.8062H119.03V12.8534H124.425L124.883 6.37988H126.502V12.8534H134.138V14.8062H126.502V25.1007C126.502 29.3336 127.292 31.7379 131.858 31.7379H134.883V31.7435Z" fill="white"/>
<path d="M137 23.2327C137 17.0075 141.069 12.6504 147.458 12.6504C153.847 12.6504 157.916 17.0075 157.916 23.2327C157.916 29.5426 153.847 33.9392 147.458 33.9392C141.069 33.9392 137 29.5426 137 23.2327ZM155.715 23.2327C155.715 17.7525 152.476 14.479 147.413 14.479C142.39 14.479 139.195 17.7581 139.195 23.2327C139.195 28.7919 142.39 32.1162 147.413 32.1162C152.481 32.1162 155.715 28.7919 155.715 23.2327Z" fill="white"/>
<path d="M161.568 23.2327C161.568 17.0075 165.637 12.6504 172.026 12.6504C178.415 12.6504 182.484 17.0075 182.484 23.2327C182.484 29.5426 178.415 33.9392 172.026 33.9392C165.637 33.9392 161.568 29.5426 161.568 23.2327ZM180.289 23.2327C180.289 17.7525 177.049 14.479 171.986 14.479C166.963 14.479 163.769 17.7581 163.769 23.2327C163.769 28.7919 166.963 32.1162 171.986 32.1162C177.049 32.1162 180.289 28.7919 180.289 23.2327Z" fill="white"/>
<path d="M194.855 33.6905C189.375 33.6905 187.304 31.4498 187.304 24.728V4.02051H189.46V25.1005C189.46 29.2939 190.165 31.7828 194.731 31.7828H196.058V33.6905H194.855Z" fill="white"/>
<path d="M198.677 26.9689H200.793C200.793 30.7052 203.615 32.1557 207.103 32.1557C210.546 32.1557 212.91 30.9084 212.91 28.0864C212.91 24.7678 209.631 24.2712 206.352 23.3964C202.119 22.2337 199.794 21.1557 199.794 17.8371C199.794 14.4339 202.407 12.6504 206.809 12.6504C211.996 12.6504 214.237 15.0603 214.237 18.5426H212.16C212.16 15.6812 209.919 14.4339 206.764 14.4339C204.36 14.4339 201.989 15.1394 201.989 17.6283C201.989 20.2019 204.145 20.6986 207.052 21.4887C211.037 22.5272 215.106 23.5205 215.106 27.9228C215.106 31.3655 212.572 33.9392 207.013 33.9392C201.577 33.9392 198.677 31.2865 198.677 26.9689Z" fill="white"/>
<path d="M67.625 23.0851C67.625 29.632 64.3741 34.0907 58.623 34.0907C55.2028 34.0907 52.6179 32.4653 51.2859 29.3386L50.4958 33.7182H45.7041V29.2144V4.87793H51.4552V16.5382C52.8718 13.705 55.3326 12.2037 58.623 12.2037C64.3741 12.2037 67.625 16.6624 67.625 23.0851ZM61.8287 23.0851C61.8287 19.2473 59.9098 17.001 56.6194 17.001C53.3685 17.001 51.4496 19.2529 51.4496 23.0851C51.4496 27.0471 53.3685 29.2991 56.6194 29.2991C59.9098 29.2934 61.8287 27.0415 61.8287 23.0851Z" fill="white"/>
<path d="M82.9766 33.7126V12.5762H88.7277V33.7126H82.9766Z" fill="white"/>
<path d="M114.537 23.1634C114.537 29.6256 111.286 34.0843 105.535 34.0843C102.245 34.0843 99.784 32.583 98.3673 29.7498V40.9078H92.6162V17.0736V12.5698H97.4079L98.198 16.9494C99.5751 13.8227 102.115 12.1973 105.535 12.1973C111.286 12.2029 114.537 16.6616 114.537 23.1634ZM108.741 23.1634C108.741 19.2465 106.822 16.9946 103.531 16.9946C100.281 16.9946 98.3617 19.2465 98.3617 23.1634C98.3617 27.0407 100.281 29.2926 103.531 29.2926C106.822 29.2926 108.741 27.0407 108.741 23.1634Z" fill="white"/>
<path d="M75.3063 28.7121H80.4761V33.7126H77.434C71.9313 33.7126 69.5552 31.2518 69.5552 24.7106V4.87793H75.3063V24.8742V28.7121Z" fill="white"/>
<path d="M19.0876 0.396484C6.66543 0.396484 0 5.06963 0 17.2887C0 28.1983 5.61567 36.5626 19.0876 36.5626C19.4263 36.5626 20.0753 36.5626 20.0753 36.5626C20.0753 38.1485 20.081 40.1803 20.081 41.9355C20.081 42.3701 20.4252 42.7765 20.9501 42.7765C21.3621 42.7765 21.475 42.6241 21.8024 42.3363C24.1784 40.2875 31.1825 33.9269 31.1825 33.9269C34.6761 30.6026 38.1753 26.6349 38.1753 17.2887C38.1753 5.06963 31.5099 0.396484 19.0876 0.396484Z" fill="#0096FA"/>
<path d="M89.1736 9.51161C89.3824 9.04881 89.5122 8.54086 89.5122 7.99904C89.5122 5.97853 87.8755 4.3418 85.855 4.3418C83.8345 4.3418 82.1978 5.97853 82.1978 7.99904C82.1978 8.54086 82.3219 9.04881 82.5364 9.51161H89.1736Z" fill="white"/>
</svg>
