<svg width="208" height="43" viewBox="0 0 208 43" fill="none" xmlns="http://www.w3.org/2000/svg">
<path d="M18.5173 0.638184C14.1173 0.638184 9.51728 1.33818 6.41728 3.23818C1.31728 6.43818 -0.182722 12.4382 0.0172782 18.1382C0.117278 23.0382 1.41728 28.2382 4.91728 31.7382C8.21728 35.1382 14.9173 36.7382 19.6173 36.7382C19.8173 36.7382 20.0173 36.9382 20.0173 37.1382V42.0382C20.0173 42.5382 20.4173 42.9382 20.9173 42.9382H21.0173C21.2173 42.9382 21.3173 42.8382 21.5173 42.7382C23.8173 40.7382 26.1173 38.7382 28.4173 36.6382C30.5173 34.6382 33.0173 32.5382 34.7173 30.2382C38.2173 25.2382 38.8173 18.0382 37.6173 12.1382C36.3173 6.33818 32.3173 2.63818 26.6173 1.43818C24.3173 0.938184 21.4173 0.638184 18.5173 0.638184Z" fill="#00C6D7"/>
<path d="M89.6172 42.3382V10.3382C89.6172 10.0382 89.8172 9.73816 90.2172 9.73816H96.7172C97.0172 9.73816 97.2172 9.93816 97.2172 10.1382L97.6172 12.1382C99.3172 10.2382 101.717 9.23816 104.817 9.23816C110.817 9.23816 115.417 13.0382 115.417 21.6382C115.417 30.2382 110.917 34.1382 104.817 34.1382C101.817 34.1382 99.3172 33.1382 97.6172 31.1382V42.2382C97.6172 42.5382 97.4172 42.8382 97.0172 42.8382H90.0172C89.8172 42.8382 89.6172 42.6382 89.6172 42.3382ZM97.6172 24.0382C98.3172 26.7382 100.017 27.9382 102.217 27.9382C105.017 27.9382 107.017 26.1382 107.017 21.7382C107.017 17.3382 105.017 15.5382 102.217 15.5382C99.9172 15.5382 98.2172 16.7382 97.6172 19.4382V24.0382Z" fill="black"/>
<path d="M42.3173 0.638184H49.3173C49.6173 0.638184 49.9173 0.838184 49.9173 1.23818V12.3382C51.6173 10.3382 54.1173 9.33818 57.1173 9.33818C63.2173 9.33818 67.7173 13.2382 67.7173 21.8382C67.7173 30.4382 63.2173 34.2382 57.1173 34.2382C54.0173 34.2382 51.6173 33.2382 49.9173 31.3382L49.5173 33.3382C49.4173 33.6382 49.2173 33.7382 49.0173 33.7382H42.5173C42.2173 33.7382 41.9173 33.5382 41.9173 33.1382V1.13818C41.7173 0.838184 42.0173 0.638184 42.3173 0.638184ZM49.8173 24.1382C50.4173 26.8382 52.1173 28.0382 54.4173 28.0382C57.2173 28.0382 59.2173 26.2382 59.2173 21.8382C59.2173 17.4382 57.2173 15.6382 54.4173 15.6382C52.2173 15.6382 50.5173 16.8382 49.8173 19.5382V24.1382Z" fill="black"/>
<path d="M69.5174 0.638184H76.5174C76.8174 0.638184 77.0174 0.838184 77.0174 1.23818V33.2382C77.0174 33.5382 76.8174 33.8382 76.4174 33.8382H69.4174C69.1174 33.8382 68.8174 33.6382 68.8174 33.2382V1.23818C68.9174 0.838184 69.2174 0.638184 69.5174 0.638184Z" fill="black"/>
<path d="M79.3173 6.23818V1.23818C79.3173 0.938184 79.5173 0.638184 79.9173 0.638184H86.9173C87.2173 0.638184 87.5173 0.838184 87.5173 1.23818V6.23818C87.5173 6.53818 87.3173 6.83818 86.9173 6.83818H79.9173C79.5173 6.73818 79.3173 6.53818 79.3173 6.23818ZM79.8173 9.73818H86.8173C87.1173 9.73818 87.4173 9.93818 87.4173 10.3382V33.1382C87.4173 33.4382 87.2173 33.7382 86.8173 33.7382H79.8173C79.5173 33.7382 79.2173 33.5382 79.2173 33.1382V10.3382C79.3173 10.0382 79.5173 9.73818 79.8173 9.73818Z" fill="black"/>
<path d="M117.717 22.0382C117.717 13.6382 122.217 10.0382 128.417 10.0382C132.217 10.0382 135.217 11.4382 136.917 14.5382V0.638184H139.817V33.7382H137.217L136.917 29.5382C135.217 32.6382 132.217 34.0382 128.317 34.0382C122.217 34.0382 117.717 30.4382 117.717 22.0382ZM129.017 31.4382C133.017 31.4382 136.117 29.5382 136.917 24.8382V19.2382C136.017 14.5382 133.017 12.6382 129.017 12.6382C124.317 12.6382 120.817 15.3382 120.817 22.0382C120.817 28.8382 124.217 31.4382 129.017 31.4382Z" fill="black"/>
<path d="M153.717 10.0382C159.717 10.0382 164.417 13.3382 164.717 20.1382V22.7382H145.517C145.717 28.2382 148.517 31.5382 153.717 31.5382C157.117 31.5382 159.817 30.2382 161.017 26.9382H164.217C162.717 31.9382 158.817 34.1382 153.717 34.1382C147.117 34.1382 142.417 30.5382 142.417 22.1382C142.417 13.6382 147.217 10.0382 153.717 10.0382ZM161.617 20.1382C161.517 14.9382 158.117 12.6382 153.817 12.6382C149.017 12.6382 146.317 15.3382 145.717 20.1382H161.617Z" fill="black"/>
<path d="M165.717 27.1382H168.817C169.017 30.0382 170.717 31.5382 175.417 31.5382C179.917 31.5382 181.817 30.1382 181.817 27.5382C181.817 21.6382 166.317 26.4382 166.317 16.7382C166.317 12.0382 170.117 10.1382 175.317 10.1382C181.117 10.1382 183.917 12.6382 184.217 16.8382H181.317C181.017 14.0382 179.317 12.7382 175.317 12.7382C171.617 12.7382 169.317 13.9382 169.317 16.6382C169.317 23.6382 184.817 18.6382 184.817 27.4382C184.817 32.3382 181.417 34.1382 175.417 34.1382C168.717 34.0382 165.917 31.4382 165.717 27.1382Z" fill="black"/>
<path d="M187.517 33.7382V0.638184H190.517V22.2382L201.917 10.3382H205.917L196.217 20.1382L207.417 33.7382H203.617L194.417 22.0382L190.617 25.9382V33.7382H187.517Z" fill="black"/>
<path d="M89.6172 42.3382V10.3382C89.6172 10.0382 89.8172 9.73816 90.2172 9.73816H96.7172C97.0172 9.73816 97.2172 9.93816 97.2172 10.1382L97.6172 12.1382C99.3172 10.2382 101.717 9.23816 104.817 9.23816C110.817 9.23816 115.417 13.0382 115.417 21.6382C115.417 30.2382 110.917 34.1382 104.817 34.1382C101.817 34.1382 99.3172 33.1382 97.6172 31.1382V42.2382C97.6172 42.5382 97.4172 42.8382 97.0172 42.8382H90.0172C89.8172 42.8382 89.6172 42.6382 89.6172 42.3382ZM97.6172 23.7382C97.6172 23.9382 97.6172 24.1382 97.7172 24.3382C98.4172 26.8382 100.117 27.9382 102.217 27.9382C105.017 27.9382 107.017 26.1382 107.017 21.7382C107.017 17.3382 105.017 15.5382 102.217 15.5382C99.9172 15.5382 98.3172 16.6382 97.6172 19.1382C97.6172 19.3382 97.5172 19.5382 97.5172 19.6382V23.7382H97.6172Z" fill="black"/>
<path d="M42.3173 0.638184H49.3173C49.6173 0.638184 49.9173 0.838184 49.9173 1.23818V12.3382C51.6173 10.3382 54.1173 9.33818 57.1173 9.33818C63.2173 9.33818 67.7173 13.2382 67.7173 21.8382C67.7173 30.4382 63.2173 34.2382 57.1173 34.2382C54.0173 34.2382 51.6173 33.2382 49.9173 31.3382L49.5173 33.3382C49.4173 33.6382 49.2173 33.7382 49.0173 33.7382H42.5173C42.2173 33.7382 41.9173 33.5382 41.9173 33.1382V1.13818C41.7173 0.838184 42.0173 0.638184 42.3173 0.638184ZM49.8173 23.9382C49.8173 24.1382 49.8173 24.3382 49.9173 24.4382C50.5173 26.9382 52.2173 28.0382 54.5173 28.0382C57.3173 28.0382 59.3173 26.2382 59.3173 21.8382C59.3173 17.4382 57.3173 15.6382 54.5173 15.6382C52.4173 15.6382 50.7173 16.7382 50.0173 19.2382C49.9173 19.4382 49.9173 19.6382 49.9173 19.8382V23.9382H49.8173Z" fill="black"/>
<path d="M69.5174 0.638184H76.5174C76.8174 0.638184 77.0174 0.838184 77.0174 1.23818V33.2382C77.0174 33.5382 76.8174 33.8382 76.4174 33.8382H69.4174C69.1174 33.8382 68.8174 33.6382 68.8174 33.2382V1.23818C68.9174 0.838184 69.2174 0.638184 69.5174 0.638184Z" fill="black"/>
<path d="M79.3173 6.23818V1.23818C79.3173 0.938184 79.5173 0.638184 79.9173 0.638184H86.9173C87.2173 0.638184 87.5173 0.838184 87.5173 1.23818V6.23818C87.5173 6.53818 87.3173 6.83818 86.9173 6.83818H79.9173C79.5173 6.73818 79.3173 6.53818 79.3173 6.23818ZM79.8173 9.73818H86.8173C87.1173 9.73818 87.4173 9.93818 87.4173 10.3382V33.1382C87.4173 33.4382 87.2173 33.7382 86.8173 33.7382H79.8173C79.5173 33.7382 79.2173 33.5382 79.2173 33.1382V10.3382C79.3173 10.0382 79.5173 9.73818 79.8173 9.73818Z" fill="black"/>
</svg>
