<svg width="216" height="43" viewBox="0 0 216 43" fill="none" xmlns="http://www.w3.org/2000/svg">
<path d="M134.989 31.7435V33.6963H132.128C126.648 33.6963 124.492 31.371 124.492 24.858V14.8062H119.135V12.8534H124.531L124.988 6.37988H126.608V12.8534H134.244V14.8062H126.608V25.1007C126.608 29.3336 127.398 31.7379 131.964 31.7379H134.989V31.7435Z" fill="white"/>
<path d="M137.106 23.2327C137.106 17.0075 141.175 12.6504 147.564 12.6504C153.953 12.6504 158.022 17.0075 158.022 23.2327C158.022 29.5426 153.953 33.9392 147.564 33.9392C141.175 33.9392 137.106 29.5426 137.106 23.2327ZM155.821 23.2327C155.821 17.7525 152.581 14.479 147.519 14.479C142.496 14.479 139.301 17.7581 139.301 23.2327C139.301 28.7919 142.496 32.1162 147.519 32.1162C152.587 32.1162 155.821 28.7919 155.821 23.2327Z" fill="white"/>
<path d="M161.674 23.2327C161.674 17.0075 165.743 12.6504 172.132 12.6504C178.521 12.6504 182.59 17.0075 182.59 23.2327C182.59 29.5426 178.521 33.9392 172.132 33.9392C165.743 33.9392 161.674 29.5426 161.674 23.2327ZM180.394 23.2327C180.394 17.7525 177.155 14.479 172.092 14.479C167.069 14.479 163.875 17.7581 163.875 23.2327C163.875 28.7919 167.069 32.1162 172.092 32.1162C177.155 32.1162 180.394 28.7919 180.394 23.2327Z" fill="white"/>
<path d="M194.961 33.6905C189.481 33.6905 187.41 31.4498 187.41 24.728V4.02051H189.566V25.1005C189.566 29.2939 190.271 31.7828 194.837 31.7828H196.163V33.6905H194.961Z" fill="white"/>
<path d="M198.782 26.9689H200.899C200.899 30.7052 203.721 32.1557 207.209 32.1557C210.651 32.1557 213.016 30.9084 213.016 28.0864C213.016 24.7678 209.737 24.2712 206.458 23.3964C202.225 22.2337 199.9 21.1557 199.9 17.8371C199.9 14.4339 202.513 12.6504 206.915 12.6504C212.102 12.6504 214.342 15.0603 214.342 18.5426H212.265C212.265 15.6812 210.025 14.4339 206.87 14.4339C204.466 14.4339 202.095 15.1394 202.095 17.6283C202.095 20.2019 204.251 20.6986 207.158 21.4887C211.142 22.5272 215.212 23.5205 215.212 27.9228C215.212 31.3655 212.678 33.9392 207.118 33.9392C201.683 33.9392 198.782 31.2865 198.782 26.9689Z" fill="white"/>
<path d="M67.7307 23.0851C67.7307 29.632 64.4798 34.0907 58.7287 34.0907C55.3085 34.0907 52.7236 32.4653 51.3916 29.3386L50.6015 33.7182H45.8098V29.2144V4.87793H51.5609V16.5382C52.9776 13.705 55.4383 12.2037 58.7287 12.2037C64.4798 12.2037 67.7307 16.6624 67.7307 23.0851ZM61.9344 23.0851C61.9344 19.2473 60.0155 17.001 56.7251 17.001C53.4742 17.001 51.5553 19.2529 51.5553 23.0851C51.5553 27.0471 53.4742 29.2991 56.7251 29.2991C60.0155 29.2934 61.9344 27.0415 61.9344 23.0851Z" fill="white"/>
<path d="M83.0823 33.7126V12.5762H88.8334V33.7126H83.0823Z" fill="white"/>
<path d="M114.643 23.1634C114.643 29.6256 111.392 34.0843 105.641 34.0843C102.35 34.0843 99.8897 32.583 98.4731 29.7498V40.9078H92.7219V17.0736V12.5698H97.5136L98.3037 16.9494C99.6809 13.8227 102.221 12.1973 105.641 12.1973C111.392 12.2029 114.643 16.6616 114.643 23.1634ZM108.847 23.1634C108.847 19.2465 106.928 16.9946 103.637 16.9946C100.386 16.9946 98.4674 19.2465 98.4674 23.1634C98.4674 27.0407 100.386 29.2926 103.637 29.2926C106.928 29.2926 108.847 27.0407 108.847 23.1634Z" fill="white"/>
<path d="M75.412 28.7121H80.5818V33.7126H77.5398C72.037 33.7126 69.6609 31.2518 69.6609 24.7106V4.87793H75.412V24.8742V28.7121Z" fill="white"/>
<path d="M19.1934 0.396484C6.77115 0.396484 0.105713 5.06963 0.105713 17.2887C0.105713 28.1983 5.72138 36.5626 19.1934 36.5626C19.532 36.5626 20.181 36.5626 20.181 36.5626C20.181 38.1485 20.1867 40.1803 20.1867 41.9355C20.1867 42.3701 20.531 42.7765 21.0558 42.7765C21.4678 42.7765 21.5807 42.6241 21.9081 42.3363C24.2841 40.2875 31.2882 33.9269 31.2882 33.9269C34.7818 30.6026 38.281 26.6349 38.281 17.2887C38.281 5.06963 31.6156 0.396484 19.1934 0.396484Z" fill="white"/>
<path d="M89.2793 9.51161C89.4881 9.04881 89.6179 8.54086 89.6179 7.99904C89.6179 5.97853 87.9812 4.3418 85.9607 4.3418C83.9402 4.3418 82.3035 5.97853 82.3035 7.99904C82.3035 8.54086 82.4276 9.04881 82.6421 9.51161H89.2793Z" fill="white"/>
</svg>
