<svg width="203" height="44" viewBox="0 0 203 44" fill="none" xmlns="http://www.w3.org/2000/svg">
<path d="M139.235 22.904V34.2313H137.08V23.0281C137.08 17.6326 135.087 15.0194 130.939 15.0194C126.334 15.0194 124.296 18.0502 124.296 22.904V34.2313H122.14V4.55566H124.296V17.0456C125.622 14.5115 128.072 13.1852 131.227 13.1852C136.95 13.1908 139.235 16.6788 139.235 22.904Z" fill="white"/>
<path d="M164.3 24.315H146.245C146.454 29.0446 149.4 32.6567 154.463 32.6567C158.408 32.6567 161.145 30.5798 162.014 28.0061H164.176C162.804 32.0302 159.277 34.4797 154.463 34.4797C148.074 34.4797 144.044 30.0831 144.044 23.8127C144.044 17.5424 148.113 13.1909 154.254 13.1909C160.479 13.1909 164.131 17.1755 164.34 22.9831C164.345 23.4854 164.385 23.8127 164.3 24.315ZM146.33 22.4469H162.06C161.896 18.0052 158.944 15.0195 154.214 15.0195C149.53 15.0195 146.787 18.2986 146.33 22.4469Z" fill="white"/>
<path d="M176.547 34.2315C171.067 34.2315 168.996 31.9908 168.996 25.269V4.56152H171.152V25.6415C171.152 29.8349 171.857 32.3238 176.423 32.3238H177.749V34.2315H176.547Z" fill="white"/>
<path d="M202.238 23.8581C202.238 30.0833 198.463 34.4799 192.525 34.4799C188.874 34.4799 186.012 32.9448 184.392 30.0833V43.0756H182.276V17.8869L181.695 13.4056H183.439L184.308 17.8022C185.882 14.8166 188.789 13.1968 192.525 13.1968C198.463 13.1911 202.238 17.5482 202.238 23.8581ZM200.037 23.8581C200.037 18.2989 196.967 14.9746 192.237 14.9746C187.463 14.9746 184.392 18.2932 184.392 23.8581C184.392 29.3383 187.463 32.6569 192.237 32.6569C196.967 32.6569 200.037 29.3327 200.037 23.8581Z" fill="white"/>
<path d="M67.7444 23.6261C67.7444 30.1731 64.4935 34.6317 58.7424 34.6317C55.3222 34.6317 52.7373 33.0063 51.4053 29.8796L50.6151 34.2592H45.8235V29.7554V5.41895H51.5746V17.0792C52.9912 14.246 55.452 12.7447 58.7424 12.7447C64.4878 12.7447 67.7444 17.2034 67.7444 23.6261ZM61.9481 23.6261C61.9481 19.7883 60.0292 17.542 56.7388 17.542C53.4879 17.542 51.569 19.7939 51.569 23.6261C51.569 27.5882 53.4879 29.8401 56.7388 29.8401C60.0292 29.8344 61.9481 27.5825 61.9481 23.6261Z" fill="white"/>
<path d="M83.0957 34.2541V13.1177H88.8468V34.2541H83.0957Z" fill="white"/>
<path d="M114.656 23.7053C114.656 30.1676 111.405 34.6263 105.654 34.6263C102.364 34.6263 99.9031 33.125 98.4865 30.2918V41.4497H92.7354V17.6156V13.1118H97.527L98.3172 17.4914C99.6943 14.3647 102.234 12.7393 105.654 12.7393C111.405 12.7449 114.656 17.2036 114.656 23.7053ZM108.86 23.7053C108.86 19.7885 106.941 17.5366 103.651 17.5366C100.4 17.5366 98.4808 19.7885 98.4808 23.7053C98.4808 27.5827 100.4 29.8346 103.651 29.8346C106.941 29.8346 108.86 27.5827 108.86 23.7053Z" fill="white"/>
<path d="M89.2928 10.0526C89.5016 9.58982 89.6314 9.08187 89.6314 8.54006C89.6314 6.51954 87.9947 4.88281 85.9741 4.88281C83.9536 4.88281 82.3169 6.51954 82.3169 8.54006C82.3169 9.08187 82.4411 9.58982 82.6555 10.0526H89.2928Z" fill="white"/>
<path d="M75.4254 29.2531H80.5953V34.2536H77.5532C72.0504 34.2536 69.6743 31.7929 69.6743 25.2516V5.41895H75.4254V25.4153V29.2531Z" fill="white"/>
<path d="M19.2068 0.937988C6.78457 0.937988 0.119141 5.61113 0.119141 17.8302C0.119141 28.7398 5.73481 37.1041 19.2068 37.1041C19.5454 37.1041 20.1945 37.1041 20.1945 37.1041C20.1945 38.69 20.2001 40.7218 20.2001 42.477C20.2001 42.9116 20.5444 43.318 21.0693 43.318C21.4813 43.318 21.5941 43.1656 21.9215 42.8778C24.2976 40.829 31.3017 34.4684 31.3017 34.4684C34.7952 31.1441 38.2944 27.1765 38.2944 17.8302C38.2944 5.61113 31.629 0.937988 19.2068 0.937988Z" fill="white"/>
</svg>
