<svg width="249" height="44" viewBox="0 0 249 44" fill="none" xmlns="http://www.w3.org/2000/svg">
<path d="M141.972 23.7352C141.972 30.045 138.236 34.4416 132.304 34.4416C128.528 34.4416 125.622 32.7823 124.047 29.7911L123.178 34.1877H121.434L122.015 29.7064V4.5177H124.132V17.5495C125.752 14.688 128.613 13.1529 132.31 13.1529C138.242 13.1529 141.972 17.5099 141.972 23.7352ZM139.777 23.7352C139.777 18.2549 136.706 14.9758 131.977 14.9758C127.202 14.9758 124.132 18.2549 124.132 23.7352C124.132 29.2944 127.202 32.6186 131.977 32.6186C136.706 32.6186 139.777 29.2944 139.777 23.7352Z" fill="white"/>
<path d="M146.792 24.9826V13.3618H148.908V25.0221C148.908 30.666 151.397 32.6188 155.218 32.6188C159.039 32.6188 161.483 30.666 161.483 25.0221V13.3618H163.639V24.9826C163.639 31.2925 160.732 34.4474 155.213 34.4474C149.653 34.4418 146.792 31.2868 146.792 24.9826Z" fill="white"/>
<path d="M169.283 6.47064C169.283 5.43217 169.988 4.896 171.027 4.896C172.105 4.896 172.771 5.43781 172.771 6.47064C172.771 7.46961 172.105 8.09044 171.027 8.09044C169.988 8.09044 169.283 7.46961 169.283 6.47064ZM169.949 34.1934V13.3618H172.105V34.1934H169.949Z" fill="white"/>
<path d="M185.972 34.1933C180.492 34.1933 178.42 31.9526 178.42 25.2308V4.52332H180.576V25.6033C180.576 29.7967 181.282 32.2856 185.848 32.2856H187.174V34.1933H185.972Z" fill="white"/>
<path d="M209.005 34.1934H207.261L206.392 29.8363C204.817 32.7824 201.95 34.4417 198.174 34.4417C192.237 34.4417 188.461 30.0452 188.461 23.7353C188.461 17.5101 192.237 13.153 198.174 13.153C201.865 13.153 204.687 14.6881 206.307 17.5101V4.51782H208.423V29.7065L209.005 34.1934ZM206.307 23.7353C206.307 18.2551 203.237 14.976 198.507 14.976C193.732 14.976 190.662 18.2551 190.662 23.7353C190.662 29.2945 193.732 32.6188 198.507 32.6188C203.237 32.6188 206.307 29.2945 206.307 23.7353Z" fill="white"/>
<path d="M233.781 24.2771H215.727C215.935 29.0067 218.881 32.6187 223.944 32.6187C227.889 32.6187 230.626 30.5418 231.496 27.9682H233.652C232.28 31.9923 228.753 34.4417 223.938 34.4417C217.55 34.4417 213.52 30.0451 213.52 23.7748C213.52 17.51 217.589 13.153 223.73 13.153C229.955 13.153 233.606 17.1375 233.815 22.9451C233.821 23.4474 233.866 23.7748 233.781 24.2771ZM215.811 22.4089H231.541C231.377 17.9672 228.425 14.9816 223.696 14.9816C219.006 14.9816 216.268 18.2607 215.811 22.4089Z" fill="white"/>
<path d="M238.804 34.1934V17.8431L238.517 15.3541L238.229 13.3618H239.973L240.718 16.7651C241.711 14.485 243.664 13.3618 247.191 13.3618H248.563V15.5629H247.152C242.298 15.5629 240.927 17.3069 240.927 22.9903V34.1934H238.804Z" fill="white"/>
<path d="M67.6194 23.5883C67.6194 30.1352 64.3685 34.5939 58.6174 34.5939C55.1972 34.5939 52.6123 32.9685 51.2803 29.8417L50.4901 34.2214H45.6985V29.7176V5.3811H51.4496V17.0414C52.8662 14.2082 55.327 12.7069 58.6174 12.7069C64.3685 12.7069 67.6194 17.1656 67.6194 23.5883ZM61.8231 23.5883C61.8231 19.7505 59.9042 17.5042 56.6138 17.5042C53.3629 17.5042 51.444 19.7561 51.444 23.5883C51.444 27.5503 53.3629 29.8022 56.6138 29.8022C59.9042 29.7966 61.8231 27.5447 61.8231 23.5883Z" fill="white"/>
<path d="M82.9766 34.2159V13.0795H88.7277V34.2159H82.9766Z" fill="white"/>
<path d="M114.531 23.6675C114.531 30.1298 111.281 34.5884 105.529 34.5884C102.239 34.5884 99.7783 33.0872 98.3617 30.2539V41.4119H92.6106V17.5777V13.0739H97.4023L98.1924 17.4536C99.5695 14.3269 102.109 12.7014 105.529 12.7014C111.281 12.7071 114.531 17.1657 114.531 23.6675ZM108.735 23.6675C108.735 19.7506 106.816 17.4987 103.526 17.4987C100.275 17.4987 98.3561 19.7506 98.3561 23.6675C98.3561 27.5449 100.275 29.7968 103.526 29.7968C106.822 29.7968 108.735 27.5449 108.735 23.6675Z" fill="white"/>
<path d="M89.1734 10.0149C89.3822 9.5521 89.512 9.04415 89.512 8.50234C89.512 6.48182 87.8753 4.84509 85.8548 4.84509C83.8342 4.84509 82.1975 6.48182 82.1975 8.50234C82.1975 9.04415 82.3217 9.5521 82.5361 10.0149H89.1734Z" fill="white"/>
<path d="M75.3009 29.2153H80.4707V34.2158H77.4287C71.9259 34.2158 69.5498 31.755 69.5498 25.2137V5.3811H75.3009V25.3774V29.2153Z" fill="white"/>
<path d="M19.0876 0.899902C6.66543 0.899902 0 5.57305 0 17.7921C0 28.7017 5.61567 37.066 19.0876 37.066C19.4263 37.066 20.0753 37.066 20.0753 37.066C20.0753 38.6519 20.081 40.6837 20.081 42.439C20.081 42.8735 20.4252 43.2799 20.9501 43.2799C21.3621 43.2799 21.475 43.1275 21.8024 42.8397C24.1784 40.7909 31.1825 34.4303 31.1825 34.4303C34.6761 31.106 38.1753 27.1384 38.1753 17.7921C38.1697 5.57305 31.5042 0.899902 19.0876 0.899902Z" fill="#0096FA"/>
</svg>
