<svg width="216" height="43" viewBox="0 0 216 43" fill="none" xmlns="http://www.w3.org/2000/svg">
<path d="M134.989 31.3637V33.3165H132.128C126.648 33.3165 124.492 30.9912 124.492 24.4781V14.4263H119.135V12.4735H124.531L124.988 6H126.608V12.4735H134.244V14.4263H126.608V24.7208C126.608 28.9537 127.398 31.358 131.964 31.358H134.989V31.3637Z" fill="black"/>
<path d="M137.106 22.8528C137.106 16.6276 141.175 12.2705 147.564 12.2705C153.953 12.2705 158.022 16.6276 158.022 22.8528C158.022 29.1627 153.953 33.5593 147.564 33.5593C141.175 33.5593 137.106 29.1627 137.106 22.8528ZM155.821 22.8528C155.821 17.3726 152.581 14.0991 147.519 14.0991C142.496 14.0991 139.301 17.3782 139.301 22.8528C139.301 28.412 142.496 31.7363 147.519 31.7363C152.587 31.7363 155.821 28.412 155.821 22.8528Z" fill="black"/>
<path d="M161.674 22.8528C161.674 16.6276 165.743 12.2705 172.132 12.2705C178.521 12.2705 182.59 16.6276 182.59 22.8528C182.59 29.1627 178.521 33.5593 172.132 33.5593C165.743 33.5593 161.674 29.1627 161.674 22.8528ZM180.394 22.8528C180.394 17.3726 177.155 14.0991 172.092 14.0991C167.069 14.0991 163.875 17.3782 163.875 22.8528C163.875 28.412 167.069 31.7363 172.092 31.7363C177.155 31.7363 180.394 28.412 180.394 22.8528Z" fill="black"/>
<path d="M194.961 33.3106C189.481 33.3106 187.41 31.0699 187.41 24.3481V3.64062H189.566V24.7206C189.566 28.914 190.271 31.4029 194.837 31.4029H196.163V33.3106H194.961Z" fill="black"/>
<path d="M198.782 26.5891H200.899C200.899 30.3253 203.721 31.7758 207.209 31.7758C210.651 31.7758 213.016 30.5285 213.016 27.7066C213.016 24.388 209.737 23.8913 206.458 23.0165C202.225 21.8538 199.9 20.7759 199.9 17.4572C199.9 14.054 202.513 12.2705 206.915 12.2705C212.102 12.2705 214.342 14.6805 214.342 18.1627H212.265C212.265 15.3013 210.025 14.054 206.87 14.054C204.466 14.054 202.095 14.7595 202.095 17.2484C202.095 19.822 204.251 20.3187 207.158 21.1088C211.142 22.1473 215.212 23.1406 215.212 27.5429C215.212 30.9857 212.678 33.5593 207.118 33.5593C201.683 33.5593 198.782 30.9066 198.782 26.5891Z" fill="black"/>
<path d="M67.7307 22.7052C67.7307 29.2522 64.4798 33.7108 58.7287 33.7108C55.3085 33.7108 52.7236 32.0854 51.3916 28.9587L50.6015 33.3383H45.8098V28.8345V4.49805H51.5609V16.1583C52.9776 13.3251 55.4383 11.8238 58.7287 11.8238C64.4798 11.8238 67.7307 16.2825 67.7307 22.7052ZM61.9344 22.7052C61.9344 18.8674 60.0155 16.6211 56.7251 16.6211C53.4742 16.6211 51.5553 18.873 51.5553 22.7052C51.5553 26.6673 53.4742 28.9192 56.7251 28.9192C60.0155 28.9135 61.9344 26.6616 61.9344 22.7052Z" fill="black"/>
<path d="M83.0823 33.3327V12.1963H88.8334V33.3327H83.0823Z" fill="black"/>
<path d="M114.643 22.7835C114.643 29.2457 111.392 33.7044 105.641 33.7044C102.35 33.7044 99.8897 32.2031 98.4731 29.3699V40.5279H92.7219V16.6937V12.1899H97.5136L98.3037 16.5695C99.6809 13.4428 102.221 11.8174 105.641 11.8174C111.392 11.823 114.643 16.2817 114.643 22.7835ZM108.847 22.7835C108.847 18.8666 106.928 16.6147 103.637 16.6147C100.386 16.6147 98.4674 18.8666 98.4674 22.7835C98.4674 26.6608 100.386 28.9127 103.637 28.9127C106.928 28.9127 108.847 26.6608 108.847 22.7835Z" fill="black"/>
<path d="M75.412 28.3322H80.5818V33.3327H77.5398C72.037 33.3327 69.6609 30.872 69.6609 24.3307V4.49805H75.412V24.4944V28.3322Z" fill="black"/>
<path d="M19.1934 0.0166016C6.77115 0.0166016 0.105713 4.68975 0.105713 16.9088C0.105713 27.8184 5.72138 36.1827 19.1934 36.1827C19.532 36.1827 20.181 36.1827 20.181 36.1827C20.181 37.7686 20.1867 39.8004 20.1867 41.5557C20.1867 41.9902 20.531 42.3966 21.0558 42.3966C21.4678 42.3966 21.5807 42.2442 21.9081 41.9564C24.2841 39.9076 31.2882 33.547 31.2882 33.547C34.7818 30.2227 38.281 26.2551 38.281 16.9088C38.281 4.68975 31.6156 0.0166016 19.1934 0.0166016Z" fill="black"/>
<path d="M89.2793 9.13172C89.4881 8.66892 89.6179 8.16097 89.6179 7.61916C89.6179 5.59865 87.9812 3.96191 85.9607 3.96191C83.9402 3.96191 82.3035 5.59865 82.3035 7.61916C82.3035 8.16097 82.4276 8.66892 82.6421 9.13172H89.2793Z" fill="black"/>
</svg>
