<svg width="268" height="43" viewBox="0 0 268 43" fill="none" xmlns="http://www.w3.org/2000/svg">
<path d="M120.441 26.6887H122.557C122.557 30.4249 125.379 31.8754 128.867 31.8754C132.31 31.8754 134.675 30.6281 134.675 27.8062C134.675 24.4876 131.395 23.9909 128.116 23.1161C123.883 21.9535 121.558 20.8755 121.558 17.5569C121.558 14.1536 124.171 12.3701 128.574 12.3701C133.76 12.3701 136.001 14.7801 136.001 18.2623H133.924C133.924 15.4009 131.683 14.1536 128.528 14.1536C126.118 14.1536 123.754 14.8591 123.754 17.348C123.754 19.9217 125.91 20.4183 128.816 21.2085C132.801 22.2469 136.87 23.2403 136.87 27.6425C136.87 31.0853 134.336 33.6589 128.777 33.6589C123.347 33.6589 120.441 31.0063 120.441 26.6887Z" fill="white"/>
<path d="M141.775 24.1999V12.5791H143.891V24.2394C143.891 29.8833 146.38 31.8361 150.201 31.8361C154.022 31.8361 156.466 29.8833 156.466 24.2394V12.5791H158.622V24.1999C158.622 30.5098 155.715 33.6647 150.195 33.6647C144.636 33.659 141.775 30.5041 141.775 24.1999Z" fill="white"/>
<path d="M184.894 23.0363C184.894 29.2615 181.118 33.6581 175.181 33.6581C171.529 33.6581 168.668 32.123 167.048 29.2615V42.2538H164.931V17.0651L164.35 12.5838H166.094L166.963 16.9804C168.538 13.9948 171.444 12.375 175.181 12.375C181.118 12.3694 184.894 16.7264 184.894 23.0363ZM182.698 23.0363C182.698 17.4771 179.628 14.1528 174.899 14.1528C170.124 14.1528 167.054 17.4714 167.054 23.0363C167.054 28.5165 170.124 31.8352 174.899 31.8352C179.622 31.8352 182.698 28.5109 182.698 23.0363Z" fill="white"/>
<path d="M210.003 23.0363C210.003 29.2615 206.228 33.6581 200.29 33.6581C196.639 33.6581 193.777 32.123 192.157 29.2615V42.2538H190.041V17.0651L189.46 12.5838H191.204L192.073 16.9804C193.647 13.9948 196.554 12.375 200.29 12.375C206.228 12.3694 210.003 16.7264 210.003 23.0363ZM207.808 23.0363C207.808 17.4771 204.738 14.1528 200.008 14.1528C195.233 14.1528 192.163 17.4714 192.163 23.0363C192.163 28.5165 195.233 31.8352 200.008 31.8352C204.732 31.8352 207.808 28.5109 207.808 23.0363Z" fill="white"/>
<path d="M213.661 22.9524C213.661 16.7272 217.73 12.3701 224.119 12.3701C230.508 12.3701 234.577 16.7272 234.577 22.9524C234.577 29.2623 230.508 33.6589 224.119 33.6589C217.73 33.6589 213.661 29.2623 213.661 22.9524ZM232.376 22.9524C232.376 17.4722 229.136 14.1987 224.074 14.1987C219.051 14.1987 215.856 17.4778 215.856 22.9524C215.856 28.5117 219.051 31.8359 224.074 31.8359C229.142 31.8359 232.376 28.5117 232.376 22.9524Z" fill="white"/>
<path d="M239.724 33.4107V17.0604L239.437 14.5714L239.149 12.5791H240.893L241.638 15.9824C242.637 13.7022 244.584 12.5791 248.111 12.5791H249.483V14.7802H248.072C243.218 14.7802 241.846 16.5242 241.846 22.2076V33.4107H239.724Z" fill="white"/>
<path d="M267.075 31.4633V33.4161H264.213C258.733 33.4161 256.577 31.0908 256.577 24.5777V14.5259H251.221V12.5732H256.617L257.074 6.09961H258.693V12.5732H266.33V14.5259H258.693V24.8204C258.693 29.0533 259.484 31.4576 264.05 31.4576H267.075V31.4633Z" fill="white"/>
<path d="M67.6252 22.8058C67.6252 29.3528 64.3743 33.8114 58.6232 33.8114C55.203 33.8114 52.6181 32.186 51.2862 29.0593L50.496 33.4389H45.7043V28.9351V4.59863H51.4555V16.2589C52.8721 13.4257 55.3328 11.9244 58.6232 11.9244C64.3743 11.9244 67.6252 16.3831 67.6252 22.8058ZM61.8289 22.8058C61.8289 18.968 59.91 16.7217 56.6196 16.7217C53.3688 16.7217 51.4498 18.9736 51.4498 22.8058C51.4498 26.7678 53.3688 29.0198 56.6196 29.0198C59.91 29.0141 61.8289 26.7622 61.8289 22.8058Z" fill="white"/>
<path d="M82.9766 33.4333V12.2969H88.7277V33.4333H82.9766Z" fill="white"/>
<path d="M114.537 22.885C114.537 29.3473 111.286 33.806 105.535 33.806C102.245 33.806 99.7842 32.3047 98.3676 29.4715V40.6294H92.6165V16.7953V12.2914H97.4081L98.1983 16.6711C99.5754 13.5444 102.115 11.9189 105.535 11.9189C111.286 11.9246 114.537 16.3833 114.537 22.885ZM108.741 22.885C108.741 18.9682 106.822 16.7163 103.532 16.7163C100.281 16.7163 98.3619 18.9682 98.3619 22.885C98.3619 26.7624 100.281 29.0143 103.532 29.0143C106.822 29.0143 108.741 26.7624 108.741 22.885Z" fill="white"/>
<path d="M89.1734 9.23231C89.3822 8.76951 89.512 8.26156 89.512 7.71975C89.512 5.69923 87.8753 4.0625 85.8548 4.0625C83.8342 4.0625 82.1975 5.69923 82.1975 7.71975C82.1975 8.26156 82.3217 8.76951 82.5361 9.23231H89.1734Z" fill="white"/>
<path d="M75.3065 28.4328H80.4764V33.4333H77.4343C71.9315 33.4333 69.5554 30.9725 69.5554 24.4313V4.59863H75.3065V24.5949V28.4328Z" fill="white"/>
<path d="M19.0876 0.117188C6.66544 0.117188 0 4.79033 0 17.0094C0 27.919 5.61567 36.2833 19.0876 36.2833C19.4263 36.2833 20.0753 36.2833 20.0753 36.2833C20.0753 37.8692 20.081 39.901 20.081 41.6562C20.081 42.0908 20.4253 42.4972 20.9501 42.4972C21.3621 42.4972 21.475 42.3448 21.8024 42.057C24.1784 40.0082 31.1825 33.6476 31.1825 33.6476C34.6761 30.3233 38.1753 26.3557 38.1753 17.0094C38.1753 4.79033 31.5099 0.117188 19.0876 0.117188Z" fill="#0096FA"/>
</svg>
