<svg width="209" height="43" viewBox="0 0 209 43" fill="none" xmlns="http://www.w3.org/2000/svg">
<path d="M141.938 33.3327H140.194L139.325 28.9757C137.75 31.9217 134.883 33.581 131.107 33.581C125.17 33.581 121.394 29.1845 121.394 22.8748C121.394 16.6497 125.17 12.2927 131.107 12.2927C134.798 12.2927 137.62 13.8278 139.24 16.6497V3.65771H141.356V28.8459L141.938 33.3327ZM139.24 22.8748C139.24 17.3947 136.17 14.1156 131.44 14.1156C126.666 14.1156 123.595 17.3947 123.595 22.8748C123.595 28.4339 126.666 31.7581 131.44 31.7581C136.164 31.7581 139.24 28.4339 139.24 22.8748Z" fill="black"/>
<path d="M166.714 23.4166H148.659C148.868 28.1461 151.814 31.7581 156.877 31.7581C160.822 31.7581 163.559 29.6812 164.428 27.1076H166.584C165.213 31.1316 161.685 33.581 156.871 33.581C150.482 33.581 146.453 29.1845 146.453 22.9143C146.453 16.6441 150.522 12.2927 156.662 12.2927C162.887 12.2927 166.539 16.2772 166.748 22.0847C166.753 22.587 166.793 22.9143 166.714 23.4166ZM148.744 21.5485H164.473C164.31 17.1069 161.358 14.1213 156.628 14.1213C151.938 14.1213 149.201 17.4003 148.744 21.5485Z" fill="black"/>
<path d="M170.156 26.611H172.273C172.273 30.3472 175.095 31.7976 178.583 31.7976C182.025 31.7976 184.39 30.5503 184.39 27.7285C184.39 24.4099 181.111 23.9076 177.832 23.0385C173.599 21.8759 171.274 20.7979 171.274 17.4794C171.274 14.0762 173.887 12.2927 178.289 12.2927C183.476 12.2927 185.716 14.697 185.716 18.1848H183.639C183.639 15.3234 181.399 14.0762 178.244 14.0762C175.834 14.0762 173.469 14.7816 173.469 17.2705C173.469 19.8441 175.625 20.3408 178.532 21.1309C182.516 22.1693 186.586 23.1626 186.586 27.5648C186.586 31.0075 184.051 33.581 178.492 33.581C173.063 33.581 170.156 30.9285 170.156 26.611Z" fill="black"/>
<path d="M198.505 22.3781L208.754 33.3327H206.096L196.801 23.2924H193.979V33.3327H191.823V3.65771H193.979V21.4187H196.801L205.724 12.4959H208.382L198.505 22.3781Z" fill="black"/>
<path d="M68.4954 22.7281C68.4954 29.2748 65.2446 33.7334 59.4936 33.7334C56.0734 33.7334 53.4886 32.108 52.1566 28.9814L51.3665 33.3609H46.575V28.8572V4.52124H52.326V16.1813C53.7425 13.3481 56.2032 11.8469 59.4936 11.8469C65.2446 11.8469 68.4954 16.3054 68.4954 22.7281ZM62.6992 22.7281C62.6992 18.8903 60.7803 16.6441 57.49 16.6441C54.2392 16.6441 52.3203 18.8959 52.3203 22.7281C52.3203 26.69 54.2392 28.9419 57.49 28.9419C60.7803 28.9362 62.6992 26.6843 62.6992 22.7281Z" fill="black"/>
<path d="M83.8521 33.3552V12.2192H89.6031V33.3552H83.8521Z" fill="black"/>
<path d="M115.407 22.8072C115.407 29.2693 112.156 33.7279 106.405 33.7279C103.114 33.7279 100.654 32.2266 99.2371 29.3935V40.5512H93.4861V16.7175V12.2138H98.2776L99.0678 16.5934C100.445 13.4667 102.985 11.8413 106.405 11.8413C112.156 11.847 115.407 16.3055 115.407 22.8072ZM109.61 22.8072C109.61 18.8904 107.691 16.6385 104.401 16.6385C101.15 16.6385 99.2314 18.8904 99.2314 22.8072C99.2314 26.6844 101.15 28.9363 104.401 28.9363C107.697 28.9363 109.61 26.6844 109.61 22.8072Z" fill="black"/>
<path d="M90.0487 9.15481C90.2575 8.69202 90.3873 8.18408 90.3873 7.64228C90.3873 5.6218 88.7506 3.98511 86.7302 3.98511C84.7097 3.98511 83.073 5.6218 83.073 7.64228C83.073 8.18408 83.1972 8.69202 83.4116 9.15481H90.0487Z" fill="black"/>
<path d="M76.1765 28.3549H81.3462V33.3553H78.3043C72.8016 33.3553 70.4255 30.8946 70.4255 24.3535V4.52124H76.1765V24.5171V28.3549Z" fill="black"/>
<path d="M19.9645 0.0400391C7.5425 0.0400391 0.877197 4.71309 0.877197 16.9319C0.877197 27.8413 6.49276 36.2053 19.9645 36.2053C20.3031 36.2053 20.9521 36.2053 20.9521 36.2053C20.9521 37.7912 20.9578 39.823 20.9578 41.5782C20.9578 42.0128 21.302 42.4192 21.8269 42.4192C22.2389 42.4192 22.3518 42.2668 22.6791 41.9789C25.0551 39.9302 32.0591 33.5697 32.0591 33.5697C35.5526 30.2455 39.0517 26.278 39.0517 16.9319C39.0461 4.71309 32.3808 0.0400391 19.9645 0.0400391Z" fill="black"/>
</svg>
