<svg width="215" height="44" viewBox="0 0 215 44" fill="none" xmlns="http://www.w3.org/2000/svg">
<path d="M18.5173 0.738281C14.1173 0.738281 9.51728 1.43828 6.41728 3.33828C1.31728 6.53828 -0.182722 12.5383 0.0172782 18.2383C0.117278 23.1383 1.41728 28.3383 4.91728 31.8383C8.21728 35.2383 14.9173 36.8383 19.6173 36.8383C19.8173 36.8383 20.0173 37.0383 20.0173 37.2383V42.1383C20.0173 42.6383 20.4173 43.0383 20.9173 43.0383H21.0173C21.2173 43.0383 21.3173 42.9383 21.5173 42.8383C23.8173 40.8383 26.1173 38.8383 28.4173 36.7383C30.5173 34.7383 33.0173 32.6383 34.7173 30.3383C38.2173 25.3383 38.8173 18.1383 37.6173 12.2383C36.3173 6.43828 32.3173 2.73828 26.6173 1.53828C24.3173 1.03828 21.4173 0.738281 18.5173 0.738281Z" fill="#00C6D7"/>
<path d="M89.6172 42.4384V10.4384C89.6172 10.1384 89.8172 9.83838 90.2172 9.83838H96.7172C97.0172 9.83838 97.2172 10.0384 97.2172 10.2384L97.6172 12.2384C99.3172 10.3384 101.717 9.33838 104.817 9.33838C110.817 9.33838 115.417 13.1384 115.417 21.7384C115.417 30.3384 110.917 34.2384 104.817 34.2384C101.817 34.2384 99.3172 33.2384 97.6172 31.2384V42.3384C97.6172 42.6384 97.4172 42.9384 97.0172 42.9384H90.0172C89.8172 42.9384 89.6172 42.7384 89.6172 42.4384ZM97.6172 24.1384C98.3172 26.8384 100.017 28.0384 102.217 28.0384C105.017 28.0384 107.017 26.2384 107.017 21.8384C107.017 17.4384 105.017 15.6384 102.217 15.6384C99.9172 15.6384 98.2172 16.8384 97.6172 19.5384V24.1384Z" fill="white"/>
<path d="M42.3173 0.738281H49.3173C49.6173 0.738281 49.9173 0.938281 49.9173 1.33828V12.4383C51.6173 10.4383 54.1173 9.43828 57.1173 9.43828C63.2173 9.43828 67.7173 13.3383 67.7173 21.9383C67.7173 30.5383 63.2173 34.3383 57.1173 34.3383C54.0173 34.3383 51.6173 33.3383 49.9173 31.4383L49.5173 33.4383C49.4173 33.7383 49.2173 33.8383 49.0173 33.8383H42.5173C42.2173 33.8383 41.9173 33.6383 41.9173 33.2383V1.23828C41.7173 0.938281 42.0173 0.738281 42.3173 0.738281ZM49.8173 24.2383C50.4173 26.9383 52.1173 28.1383 54.4173 28.1383C57.2173 28.1383 59.2173 26.3383 59.2173 21.9383C59.2173 17.5383 57.2173 15.7383 54.4173 15.7383C52.2173 15.7383 50.5173 16.9383 49.8173 19.6383V24.2383Z" fill="white"/>
<path d="M69.5174 0.738281H76.5174C76.8174 0.738281 77.0174 0.938281 77.0174 1.33828V33.3383C77.0174 33.6383 76.8174 33.9383 76.4174 33.9383H69.4174C69.1174 33.9383 68.8174 33.7383 68.8174 33.3383V1.33828C68.9174 0.938281 69.2174 0.738281 69.5174 0.738281Z" fill="white"/>
<path d="M79.3173 6.33828V1.33828C79.3173 1.03828 79.5173 0.738281 79.9173 0.738281H86.9173C87.2173 0.738281 87.5173 0.938281 87.5173 1.33828V6.33828C87.5173 6.63828 87.3173 6.93828 86.9173 6.93828H79.9173C79.5173 6.83828 79.3173 6.63828 79.3173 6.33828ZM79.8173 9.83828H86.8173C87.1173 9.83828 87.4173 10.0383 87.4173 10.4383V33.2383C87.4173 33.5383 87.2173 33.8383 86.8173 33.8383H79.8173C79.5173 33.8383 79.2173 33.6383 79.2173 33.2383V10.4383C79.3173 10.1383 79.5173 9.83828 79.8173 9.83828Z" fill="white"/>
<path d="M119.517 5.13828V0.738281H122.517V5.13828H119.517ZM119.517 10.4383H122.517V33.7383H119.517V10.4383Z" fill="white"/>
<path d="M125.017 22.1383C125.017 13.7383 129.517 10.1383 135.717 10.1383C139.517 10.1383 142.517 11.5383 144.217 14.6383V0.738281H147.117V33.8383H144.517L144.217 29.6383C142.517 32.7383 139.517 34.1383 135.617 34.1383C129.517 34.1383 125.017 30.5383 125.017 22.1383ZM136.317 31.5383C140.317 31.5383 143.417 29.6383 144.217 24.9383V19.3383C143.317 14.6383 140.317 12.7383 136.317 12.7383C131.617 12.7383 128.117 15.4383 128.117 22.1383C128.117 28.9383 131.617 31.5383 136.317 31.5383Z" fill="white"/>
<path d="M161.117 10.1382C167.117 10.1382 171.817 13.4382 172.117 20.2382V22.8382H152.917C153.117 28.3382 155.917 31.6382 161.117 31.6382C164.517 31.6382 167.217 30.3382 168.417 27.0382H171.617C170.117 32.0382 166.217 34.2382 161.117 34.2382C154.517 34.2382 149.817 30.6382 149.817 22.2382C149.717 13.7382 154.517 10.1382 161.117 10.1382ZM168.917 20.2382C168.817 15.0382 165.417 12.7382 161.117 12.7382C156.317 12.7382 153.617 15.4382 153.017 20.2382H168.917Z" fill="white"/>
<path d="M173.017 27.8383C173.017 18.3383 189.017 23.4383 189.517 17.8383C189.317 14.0383 187.317 12.6383 183.117 12.6383C179.017 12.6383 176.917 13.9383 176.717 17.0383H173.817C174.017 12.4383 177.217 10.0383 183.117 10.0383C189.617 10.0383 192.417 12.3383 192.417 17.9383V27.7383C192.417 30.0383 192.917 30.9383 194.317 30.9383H195.417V33.7383H194.317C190.917 33.7383 190.017 32.0383 189.717 29.5383C188.217 32.2383 185.417 34.1383 180.817 34.1383C176.917 34.1383 173.017 33.0383 173.017 27.8383ZM181.517 31.7383C186.817 31.7383 189.517 28.2383 189.517 23.8383V21.4383C185.817 24.7383 176.017 21.9383 176.017 27.7383C176.017 30.4383 178.017 31.7383 181.517 31.7383Z" fill="white"/>
<path d="M195.117 27.2383H198.217C198.417 30.1383 200.117 31.6383 204.817 31.6383C209.317 31.6383 211.217 30.2383 211.217 27.6383C211.217 21.7383 195.717 26.5383 195.717 16.8383C195.717 12.1383 199.517 10.2383 204.717 10.2383C210.517 10.2383 213.317 12.7383 213.617 16.9383H210.717C210.417 14.1383 208.717 12.8383 204.717 12.8383C201.017 12.8383 198.717 14.0383 198.717 16.7383C198.717 23.7383 214.217 18.7383 214.217 27.5383C214.217 32.4383 210.817 34.2383 204.817 34.2383C198.117 34.1383 195.417 31.5383 195.117 27.2383Z" fill="white"/>
<path d="M89.6172 42.4384V10.4384C89.6172 10.1384 89.8172 9.83838 90.2172 9.83838H96.7172C97.0172 9.83838 97.2172 10.0384 97.2172 10.2384L97.6172 12.2384C99.3172 10.3384 101.717 9.33838 104.817 9.33838C110.817 9.33838 115.417 13.1384 115.417 21.7384C115.417 30.3384 110.917 34.2384 104.817 34.2384C101.817 34.2384 99.3172 33.2384 97.6172 31.2384V42.3384C97.6172 42.6384 97.4172 42.9384 97.0172 42.9384H90.0172C89.8172 42.9384 89.6172 42.7384 89.6172 42.4384ZM97.6172 23.8384C97.6172 24.0384 97.6172 24.2384 97.7172 24.4384C98.4172 26.9384 100.117 28.0384 102.217 28.0384C105.017 28.0384 107.017 26.2384 107.017 21.8384C107.017 17.4384 105.017 15.6384 102.217 15.6384C99.9172 15.6384 98.3172 16.7384 97.6172 19.2384C97.6172 19.4384 97.5172 19.6384 97.5172 19.7384V23.8384H97.6172Z" fill="white"/>
<path d="M42.3173 0.738281H49.3173C49.6173 0.738281 49.9173 0.938281 49.9173 1.33828V12.4383C51.6173 10.4383 54.1173 9.43828 57.1173 9.43828C63.2173 9.43828 67.7173 13.3383 67.7173 21.9383C67.7173 30.5383 63.2173 34.3383 57.1173 34.3383C54.0173 34.3383 51.6173 33.3383 49.9173 31.4383L49.5173 33.4383C49.4173 33.7383 49.2173 33.8383 49.0173 33.8383H42.5173C42.2173 33.8383 41.9173 33.6383 41.9173 33.2383V1.23828C41.7173 0.938281 42.0173 0.738281 42.3173 0.738281ZM49.8173 24.0383C49.8173 24.2383 49.8173 24.4383 49.9173 24.5383C50.5173 27.0383 52.2173 28.1383 54.5173 28.1383C57.3173 28.1383 59.3173 26.3383 59.3173 21.9383C59.3173 17.5383 57.3173 15.7383 54.5173 15.7383C52.4173 15.7383 50.7173 16.8383 50.0173 19.3383C49.9173 19.5383 49.9173 19.7383 49.9173 19.9383V24.0383H49.8173Z" fill="white"/>
<path d="M69.5174 0.738281H76.5174C76.8174 0.738281 77.0174 0.938281 77.0174 1.33828V33.3383C77.0174 33.6383 76.8174 33.9383 76.4174 33.9383H69.4174C69.1174 33.9383 68.8174 33.7383 68.8174 33.3383V1.33828C68.9174 0.938281 69.2174 0.738281 69.5174 0.738281Z" fill="white"/>
<path d="M79.3173 6.33828V1.33828C79.3173 1.03828 79.5173 0.738281 79.9173 0.738281H86.9173C87.2173 0.738281 87.5173 0.938281 87.5173 1.33828V6.33828C87.5173 6.63828 87.3173 6.93828 86.9173 6.93828H79.9173C79.5173 6.83828 79.3173 6.63828 79.3173 6.33828ZM79.8173 9.83828H86.8173C87.1173 9.83828 87.4173 10.0383 87.4173 10.4383V33.2383C87.4173 33.5383 87.2173 33.8383 86.8173 33.8383H79.8173C79.5173 33.8383 79.2173 33.6383 79.2173 33.2383V10.4383C79.3173 10.1383 79.5173 9.83828 79.8173 9.83828Z" fill="white"/>
</svg>
