<svg width="208" height="44" viewBox="0 0 208 44" fill="none" xmlns="http://www.w3.org/2000/svg">
<path d="M18.5173 0.938232C14.1173 0.938232 9.51728 1.63823 6.41728 3.53823C1.31728 6.73823 -0.182722 12.7382 0.0172782 18.4382C0.117278 23.3382 1.41728 28.5382 4.91728 32.0382C8.21728 35.4382 14.9173 37.0382 19.6173 37.0382C19.8173 37.0382 20.0173 37.2382 20.0173 37.4382V42.3382C20.0173 42.8382 20.4173 43.2382 20.9173 43.2382H21.0173C21.2173 43.2382 21.3173 43.1382 21.5173 43.0382C23.8173 41.0382 26.1173 39.0382 28.4173 36.9382C30.5173 34.9382 33.0173 32.8382 34.7173 30.5382C38.2173 25.5382 38.8173 18.3382 37.6173 12.4382C36.3173 6.63823 32.3173 2.93823 26.6173 1.73823C24.3173 1.23823 21.4173 0.938232 18.5173 0.938232Z" fill="#00C6D7"/>
<path d="M89.6172 42.6382V10.6382C89.6172 10.3382 89.8172 10.0382 90.2172 10.0382H96.7172C97.0172 10.0382 97.2172 10.2382 97.2172 10.4382L97.6172 12.4382C99.3172 10.5382 101.717 9.53821 104.817 9.53821C110.817 9.53821 115.417 13.3382 115.417 21.9382C115.417 30.5382 110.917 34.4382 104.817 34.4382C101.817 34.4382 99.3172 33.4382 97.6172 31.4382V42.5382C97.6172 42.8382 97.4172 43.1382 97.0172 43.1382H90.0172C89.8172 43.1382 89.6172 42.9382 89.6172 42.6382ZM97.6172 24.3382C98.3172 27.0382 100.017 28.2382 102.217 28.2382C105.017 28.2382 107.017 26.4382 107.017 22.0382C107.017 17.6382 105.017 15.8382 102.217 15.8382C99.9172 15.8382 98.2172 17.0382 97.6172 19.7382V24.3382Z" fill="white"/>
<path d="M42.3173 0.938232H49.3173C49.6173 0.938232 49.9173 1.13823 49.9173 1.53823V12.6382C51.6173 10.6382 54.1173 9.63823 57.1173 9.63823C63.2173 9.63823 67.7173 13.5382 67.7173 22.1382C67.7173 30.7382 63.2173 34.5382 57.1173 34.5382C54.0173 34.5382 51.6173 33.5382 49.9173 31.6382L49.5173 33.6382C49.4173 33.9382 49.2173 34.0382 49.0173 34.0382H42.5173C42.2173 34.0382 41.9173 33.8382 41.9173 33.4382V1.43823C41.7173 1.13823 42.0173 0.938232 42.3173 0.938232ZM49.8173 24.4382C50.4173 27.1382 52.1173 28.3382 54.4173 28.3382C57.2173 28.3382 59.2173 26.5382 59.2173 22.1382C59.2173 17.7382 57.2173 15.9382 54.4173 15.9382C52.2173 15.9382 50.5173 17.1382 49.8173 19.8382V24.4382Z" fill="white"/>
<path d="M69.5174 0.938232H76.5174C76.8174 0.938232 77.0174 1.13823 77.0174 1.53823V33.5382C77.0174 33.8382 76.8174 34.1382 76.4174 34.1382H69.4174C69.1174 34.1382 68.8174 33.9382 68.8174 33.5382V1.53823C68.9174 1.13823 69.2174 0.938232 69.5174 0.938232Z" fill="white"/>
<path d="M79.3173 6.53823V1.53823C79.3173 1.23823 79.5173 0.938232 79.9173 0.938232H86.9173C87.2173 0.938232 87.5173 1.13823 87.5173 1.53823V6.53823C87.5173 6.83823 87.3173 7.13823 86.9173 7.13823H79.9173C79.5173 7.03823 79.3173 6.83823 79.3173 6.53823ZM79.8173 10.0382H86.8173C87.1173 10.0382 87.4173 10.2382 87.4173 10.6382V33.4382C87.4173 33.7382 87.2173 34.0382 86.8173 34.0382H79.8173C79.5173 34.0382 79.2173 33.8382 79.2173 33.4382V10.6382C79.3173 10.3382 79.5173 10.0382 79.8173 10.0382Z" fill="white"/>
<path d="M117.717 22.3382C117.717 13.9382 122.217 10.3382 128.417 10.3382C132.217 10.3382 135.217 11.7382 136.917 14.8382V0.938232H139.817V34.0382H137.217L136.917 29.8382C135.217 32.9382 132.217 34.3382 128.317 34.3382C122.217 34.3382 117.717 30.7382 117.717 22.3382ZM129.017 31.7382C133.017 31.7382 136.117 29.8382 136.917 25.1382V19.5382C136.017 14.8382 133.017 12.9382 129.017 12.9382C124.317 12.9382 120.817 15.6382 120.817 22.3382C120.817 29.1382 124.217 31.7382 129.017 31.7382Z" fill="white"/>
<path d="M153.717 10.3383C159.717 10.3383 164.417 13.6383 164.717 20.4383V23.0383H145.517C145.717 28.5383 148.517 31.8383 153.717 31.8383C157.117 31.8383 159.817 30.5383 161.017 27.2383H164.217C162.717 32.2383 158.817 34.4383 153.717 34.4383C147.117 34.4383 142.417 30.8383 142.417 22.4383C142.417 13.9383 147.217 10.3383 153.717 10.3383ZM161.617 20.4383C161.517 15.2383 158.117 12.9383 153.817 12.9383C149.017 12.9383 146.317 15.6383 145.717 20.4383H161.617Z" fill="white"/>
<path d="M165.717 27.4382H168.817C169.017 30.3382 170.717 31.8382 175.417 31.8382C179.917 31.8382 181.817 30.4382 181.817 27.8382C181.817 21.9382 166.317 26.7382 166.317 17.0382C166.317 12.3382 170.117 10.4382 175.317 10.4382C181.117 10.4382 183.917 12.9382 184.217 17.1382H181.317C181.017 14.3382 179.317 13.0382 175.317 13.0382C171.617 13.0382 169.317 14.2382 169.317 16.9382C169.317 23.9382 184.817 18.9382 184.817 27.7382C184.817 32.6382 181.417 34.4382 175.417 34.4382C168.717 34.3382 165.917 31.7382 165.717 27.4382Z" fill="white"/>
<path d="M187.517 34.0382V0.938232H190.517V22.5382L201.917 10.6382H205.917L196.217 20.4382L207.417 34.0382H203.617L194.417 22.3382L190.617 26.2382V34.0382H187.517Z" fill="white"/>
<path d="M89.6172 42.6382V10.6382C89.6172 10.3382 89.8172 10.0382 90.2172 10.0382H96.7172C97.0172 10.0382 97.2172 10.2382 97.2172 10.4382L97.6172 12.4382C99.3172 10.5382 101.717 9.53821 104.817 9.53821C110.817 9.53821 115.417 13.3382 115.417 21.9382C115.417 30.5382 110.917 34.4382 104.817 34.4382C101.817 34.4382 99.3172 33.4382 97.6172 31.4382V42.5382C97.6172 42.8382 97.4172 43.1382 97.0172 43.1382H90.0172C89.8172 43.1382 89.6172 42.9382 89.6172 42.6382ZM97.6172 24.0382C97.6172 24.2382 97.6172 24.4382 97.7172 24.6382C98.4172 27.1382 100.117 28.2382 102.217 28.2382C105.017 28.2382 107.017 26.4382 107.017 22.0382C107.017 17.6382 105.017 15.8382 102.217 15.8382C99.9172 15.8382 98.3172 16.9382 97.6172 19.4382C97.6172 19.6382 97.5172 19.8382 97.5172 19.9382V24.0382H97.6172Z" fill="white"/>
<path d="M42.3173 0.938232H49.3173C49.6173 0.938232 49.9173 1.13823 49.9173 1.53823V12.6382C51.6173 10.6382 54.1173 9.63823 57.1173 9.63823C63.2173 9.63823 67.7173 13.5382 67.7173 22.1382C67.7173 30.7382 63.2173 34.5382 57.1173 34.5382C54.0173 34.5382 51.6173 33.5382 49.9173 31.6382L49.5173 33.6382C49.4173 33.9382 49.2173 34.0382 49.0173 34.0382H42.5173C42.2173 34.0382 41.9173 33.8382 41.9173 33.4382V1.43823C41.7173 1.13823 42.0173 0.938232 42.3173 0.938232ZM49.8173 24.2382C49.8173 24.4382 49.8173 24.6382 49.9173 24.7382C50.5173 27.2382 52.2173 28.3382 54.5173 28.3382C57.3173 28.3382 59.3173 26.5382 59.3173 22.1382C59.3173 17.7382 57.3173 15.9382 54.5173 15.9382C52.4173 15.9382 50.7173 17.0382 50.0173 19.5382C49.9173 19.7382 49.9173 19.9382 49.9173 20.1382V24.2382H49.8173Z" fill="white"/>
<path d="M69.5174 0.938232H76.5174C76.8174 0.938232 77.0174 1.13823 77.0174 1.53823V33.5382C77.0174 33.8382 76.8174 34.1382 76.4174 34.1382H69.4174C69.1174 34.1382 68.8174 33.9382 68.8174 33.5382V1.53823C68.9174 1.13823 69.2174 0.938232 69.5174 0.938232Z" fill="white"/>
<path d="M79.3173 6.53823V1.53823C79.3173 1.23823 79.5173 0.938232 79.9173 0.938232H86.9173C87.2173 0.938232 87.5173 1.13823 87.5173 1.53823V6.53823C87.5173 6.83823 87.3173 7.13823 86.9173 7.13823H79.9173C79.5173 7.03823 79.3173 6.83823 79.3173 6.53823ZM79.8173 10.0382H86.8173C87.1173 10.0382 87.4173 10.2382 87.4173 10.6382V33.4382C87.4173 33.7382 87.2173 34.0382 86.8173 34.0382H79.8173C79.5173 34.0382 79.2173 33.8382 79.2173 33.4382V10.6382C79.3173 10.3382 79.5173 10.0382 79.8173 10.0382Z" fill="white"/>
</svg>
