<svg width="211" height="43" viewBox="0 0 211 43" fill="none" xmlns="http://www.w3.org/2000/svg">
<path d="M141.069 33.4717H139.325L138.456 29.1146C136.881 32.0608 134.014 33.7201 130.239 33.7201C124.301 33.7201 120.525 29.3235 120.525 23.0136C120.525 16.7884 124.301 12.4313 130.239 12.4313C133.93 12.4313 136.752 13.9664 138.371 16.7884V3.79614H140.488V28.9848L141.069 33.4717ZM138.371 23.0136C138.371 17.5334 135.301 14.2599 130.572 14.2599C125.797 14.2599 122.727 17.539 122.727 23.0136C122.727 28.5728 125.797 31.8971 130.572 31.8971C135.301 31.8971 138.371 28.5728 138.371 23.0136Z" fill="white"/>
<path d="M145.59 23.0137C145.59 16.7885 149.659 12.4314 156.048 12.4314C162.437 12.4314 166.506 16.7885 166.506 23.0137C166.506 29.3236 162.437 33.7202 156.048 33.7202C149.659 33.7202 145.59 29.3236 145.59 23.0137ZM164.311 23.0137C164.311 17.5335 161.071 14.26 156.008 14.26C150.985 14.26 147.791 17.5391 147.791 23.0137C147.791 28.5729 150.985 31.8972 156.008 31.8972C161.071 31.8972 164.311 28.5729 164.311 23.0137Z" fill="white"/>
<path d="M170.163 23.0137C170.163 16.7885 174.233 12.4314 180.582 12.4314C185.769 12.4314 189.465 15.4622 190.583 20.0676H188.342C187.388 16.3765 184.527 14.26 180.582 14.26C175.559 14.26 172.364 17.5391 172.364 23.0137C172.364 28.5729 175.559 31.8972 180.582 31.8972C184.606 31.8972 187.473 29.7807 188.427 26.0445H190.668C189.59 30.6499 185.853 33.7202 180.582 33.7202C174.227 33.7202 170.163 29.3236 170.163 23.0137Z" fill="white"/>
<path d="M193.693 26.75H195.809C195.809 30.4862 198.631 31.9367 202.119 31.9367C205.562 31.9367 207.927 30.6894 207.927 27.8674C207.927 24.5488 204.648 24.0522 201.369 23.1774C197.136 22.0147 194.81 20.9367 194.81 17.6181C194.81 14.2149 197.423 12.4314 201.826 12.4314C207.012 12.4314 209.253 14.8413 209.253 18.3236H207.176C207.176 15.4622 204.936 14.2149 201.781 14.2149C199.376 14.2149 197.006 14.9204 197.006 17.4093C197.006 19.9829 199.162 20.4796 202.068 21.2697C206.053 22.3082 210.122 23.3015 210.122 27.7038C210.122 31.1465 207.588 33.7202 202.029 33.7202C196.599 33.7202 193.693 31.0675 193.693 26.75Z" fill="white"/>
<path d="M67.6252 22.8666C67.6252 29.4135 64.3743 33.8722 58.6232 33.8722C55.203 33.8722 52.6181 32.2468 51.2862 29.1201L50.496 33.4997H45.7043V28.9959V4.65942H51.4555V16.3197C52.8721 13.4865 55.3328 11.9852 58.6232 11.9852C64.3743 11.9852 67.6252 16.4439 67.6252 22.8666ZM61.829 22.8666C61.829 19.0288 59.91 16.7825 56.6196 16.7825C53.3688 16.7825 51.4498 19.0344 51.4498 22.8666C51.4498 26.8286 53.3688 29.0805 56.6196 29.0805C59.91 29.0749 61.829 26.823 61.829 22.8666Z" fill="white"/>
<path d="M82.9766 33.4943V12.3579H88.7277V33.4943H82.9766Z" fill="white"/>
<path d="M114.537 22.9458C114.537 29.4081 111.286 33.8668 105.535 33.8668C102.245 33.8668 99.7842 32.3655 98.3676 29.5322V40.6902H92.6165V16.8561V12.3522H97.4081L98.1983 16.7319C99.5754 13.6052 102.115 11.9797 105.535 11.9797C111.286 11.9854 114.537 16.4441 114.537 22.9458ZM108.741 22.9458C108.741 19.029 106.822 16.777 103.532 16.777C100.281 16.777 98.3619 19.029 98.3619 22.9458C98.3619 26.8232 100.281 29.0751 103.532 29.0751C106.822 29.0751 108.741 26.8232 108.741 22.9458Z" fill="white"/>
<path d="M89.1736 9.29334C89.3824 8.83054 89.5122 8.32259 89.5122 7.78078C89.5122 5.76027 87.8755 4.12354 85.855 4.12354C83.8345 4.12354 82.1978 5.76027 82.1978 7.78078C82.1978 8.32259 82.3219 8.83054 82.5364 9.29334H89.1736Z" fill="white"/>
<path d="M75.3065 28.4936H80.4763V33.4941H77.4343C71.9315 33.4941 69.5554 31.0333 69.5554 24.4921V4.65942H75.3065V24.6557V28.4936Z" fill="white"/>
<path d="M19.0877 0.178223C6.66544 0.178223 0 4.85137 0 17.0704C0 27.98 5.61568 36.3443 19.0877 36.3443C19.4263 36.3443 20.0753 36.3443 20.0753 36.3443C20.0753 37.9302 20.081 39.962 20.081 41.7173C20.081 42.1519 20.4253 42.5582 20.9501 42.5582C21.3621 42.5582 21.475 42.4058 21.8024 42.118C24.1784 40.0693 31.1825 33.7086 31.1825 33.7086C34.6761 30.3843 38.1753 26.4167 38.1753 17.0704C38.1753 4.85137 31.5099 0.178223 19.0877 0.178223Z" fill="#0096FA"/>
</svg>
