<svg width="171" height="64" viewBox="0 0 171 64" fill="none" xmlns="http://www.w3.org/2000/svg">
<path d="M132.012 62.2096V15.1096C132.012 14.6096 132.412 14.3096 132.812 14.3096H142.412C142.812 14.3096 143.112 14.6096 143.212 14.9096L143.812 17.8096C146.312 14.9096 149.912 13.5096 154.412 13.5096C163.312 13.5096 170.012 19.2096 170.012 31.8096C170.012 44.4096 163.412 50.2096 154.412 50.2096C150.012 50.2096 146.312 48.8096 143.812 45.8096V62.1096C143.812 62.6096 143.412 62.9096 143.012 62.9096H132.712C132.312 63.0096 132.012 62.7096 132.012 62.2096ZM143.912 34.9096C143.912 35.2096 143.912 35.5096 144.012 35.8096C145.112 39.5096 147.612 41.1096 150.712 41.1096C154.912 41.1096 157.812 38.4096 157.812 31.9096C157.812 25.4096 154.912 22.7096 150.712 22.7096C147.412 22.7096 144.912 24.3096 144.012 28.0096C143.912 28.3096 143.912 28.5096 143.912 28.8096V34.9096Z" fill="black"/>
<path d="M62.3124 0.80957H72.6124C73.1124 0.80957 73.4124 1.20957 73.4124 1.60957V17.9096C75.9124 15.0096 79.6124 13.5096 84.0124 13.5096C93.0124 13.5096 99.6124 19.3096 99.6124 31.9096C99.6124 44.5096 92.9124 50.2096 84.0124 50.2096C79.5124 50.2096 75.9124 48.8096 73.4124 45.9096L72.8124 48.8096C72.7124 49.2096 72.4124 49.4096 72.0124 49.4096H62.4124C61.9124 49.4096 61.6124 49.0096 61.6124 48.6096V1.60957C61.5124 1.10957 61.8124 0.80957 62.3124 0.80957ZM73.4124 35.1096C73.4124 35.4096 73.4124 35.6096 73.5124 35.9096C74.4124 39.6096 76.9124 41.2096 80.2124 41.2096C84.4124 41.2096 87.3124 38.5096 87.3124 32.0096C87.3124 25.5096 84.4124 22.8096 80.2124 22.8096C77.1124 22.8096 74.6124 24.4096 73.5124 28.1096C73.4124 28.4096 73.4124 28.7096 73.4124 29.0096V35.1096Z" fill="black"/>
<path d="M102.412 0.80957H112.712C113.212 0.80957 113.512 1.20957 113.512 1.60957V48.7096C113.512 49.2096 113.112 49.5096 112.712 49.5096H102.412C101.912 49.5096 101.612 49.1096 101.612 48.7096V1.60957C101.612 1.10957 101.912 0.80957 102.412 0.80957Z" fill="black"/>
<path d="M116.812 9.00957V1.60957C116.812 1.10957 117.212 0.80957 117.612 0.80957H127.912C128.412 0.80957 128.712 1.20957 128.712 1.60957V9.00957C128.712 9.50957 128.312 9.80957 127.912 9.80957H117.612C117.112 9.80957 116.812 9.40957 116.812 9.00957ZM117.612 14.3096H127.912C128.412 14.3096 128.712 14.7096 128.712 15.1096V48.7096C128.712 49.2096 128.312 49.5096 127.912 49.5096H117.612C117.112 49.5096 116.812 49.1096 116.812 48.7096V15.1096C116.812 14.6096 117.112 14.3096 117.612 14.3096Z" fill="black"/>
<path d="M27.2123 0.80957C20.7123 0.80957 14.0123 1.80957 9.4123 4.70957C2.0123 9.30957 -0.187695 18.3096 0.0123045 26.5096C0.212305 33.6096 2.11232 41.3096 7.21232 46.6096C12.0123 51.6096 22.0123 53.9096 28.8123 53.9096C29.1123 53.9096 29.4123 54.1096 29.4123 54.5096V61.7096C29.4123 62.4096 30.0123 63.0096 30.7123 63.0096H30.8123C31.1123 63.0096 31.3123 62.9096 31.5123 62.7096C34.9123 59.8096 38.3123 56.8096 41.7123 53.7096C44.9123 50.8096 48.5123 47.7096 50.9123 44.2096C56.1123 36.8096 56.9123 26.2096 55.2123 17.5096C53.5123 9.10958 47.6123 3.60958 39.3123 1.90958C35.8123 1.30958 31.5123 0.80957 27.2123 0.80957Z" fill="#00C6D7"/>
</svg>
