<svg width="176" height="43" viewBox="0 0 176 43" fill="none" xmlns="http://www.w3.org/2000/svg">
<path d="M126.046 40.3386H131.463C137.05 40.3386 139.646 37.4606 139.646 31.5917V28.5444C138.009 31.5917 135.075 33.2846 131.238 33.2846C125.369 33.2846 121.531 28.883 121.531 23.0141C121.531 17.2017 125.369 12.8564 131.238 12.8564C135.188 12.8564 138.122 14.5494 139.702 17.6531L140.21 13.1386H141.79V31.0274C141.79 38.5892 138.292 42.1444 131.351 42.1444H126.046V40.3386ZM131.52 31.4788C136.317 31.4788 139.307 28.1494 139.307 23.0141C139.307 17.9353 136.26 14.6623 131.52 14.6623C126.723 14.6623 123.676 17.9353 123.676 23.0141C123.676 28.1494 126.78 31.4788 131.52 31.4788Z" fill="white"/>
<path d="M146.587 23.4089C146.587 17.2015 150.65 12.7998 157.027 12.7998C163.403 12.7998 167.467 17.2015 167.467 23.4089C167.467 29.7292 163.403 34.1309 157.027 34.1309C150.65 34.1309 146.587 29.7292 146.587 23.4089ZM156.97 32.2687C162.049 32.2687 165.266 28.9392 165.266 23.4089C165.266 17.9351 162.049 14.662 156.97 14.662C151.948 14.662 148.731 17.9351 148.731 23.4089C148.788 28.9392 151.948 32.2687 156.97 32.2687Z" fill="white"/>
<path d="M68.5988 23.2403C68.5988 29.7863 65.3257 34.2444 59.6262 34.2444C56.1838 34.2444 53.6444 32.6079 52.2901 29.5041L51.5 33.9058H46.7034V29.3913V5.06934H52.4594V16.7507C53.8702 13.9291 56.3531 12.4054 59.6262 12.4054C65.3822 12.4054 68.5988 16.8635 68.5988 23.2403ZM62.8428 23.2403C62.8428 19.4029 60.9241 17.1457 57.6511 17.1457C54.378 17.1457 52.4594 19.4029 52.4594 23.2403C52.4594 27.1905 54.378 29.4477 57.6511 29.4477C60.9241 29.4477 62.8428 27.1905 62.8428 23.2403Z" fill="white"/>
<path d="M83.948 33.9051V12.7998H89.704V33.9051H83.948Z" fill="white"/>
<path d="M115.493 23.353C115.493 29.7862 112.22 34.2443 106.464 34.2443C103.191 34.2443 100.708 32.7206 99.2975 29.899V41.0724H93.5415V17.2584V12.7438H98.3382L99.1282 17.1455C100.483 14.0418 103.022 12.4053 106.464 12.4053C112.277 12.4053 115.493 16.8634 115.493 23.353ZM109.737 23.353C109.737 19.4592 107.819 17.2019 104.546 17.2019C101.273 17.2019 99.3539 19.4592 99.3539 23.353C99.3539 27.2468 101.273 29.504 104.546 29.504C107.819 29.4476 109.737 27.1903 109.737 23.353Z" fill="white"/>
<path d="M90.1557 9.69658C90.3814 9.24513 90.4943 8.73724 90.4943 8.17293C90.4943 6.14139 88.8578 4.50488 86.8262 4.50488C84.7947 4.50488 83.1582 6.14139 83.1582 8.17293C83.1582 8.73724 83.2711 9.24513 83.4968 9.69658H90.1557Z" fill="white"/>
<path d="M76.2733 28.8834H81.465V33.9058H78.4177C72.8875 33.9058 70.5173 31.4228 70.5173 24.8768V5.06934H76.2733V25.0461V28.8834Z" fill="white"/>
<path d="M20.0677 0.554688C7.6528 0.554688 0.993896 5.23851 0.993896 17.4277C0.993896 28.319 6.63703 36.7272 20.0677 36.7272C20.4063 36.7272 21.0835 36.7272 21.0835 36.7272C21.0835 38.3073 21.0835 40.3388 21.0835 42.0882C21.0835 42.5397 21.4221 42.9347 21.93 42.9347C22.325 42.9347 22.4378 42.7654 22.7764 42.4832C25.1466 40.4517 32.1441 34.075 32.1441 34.075C35.6428 30.7455 39.1416 26.7953 39.1416 17.4277C39.1416 5.23851 32.4826 0.554688 20.0677 0.554688Z" fill="white"/>
<path d="M175.028 4.22266L174.746 25.4409H172.884L172.658 4.22266H175.028Z" fill="white"/>
<path d="M171.699 31.2536C171.699 29.8992 172.545 29.0527 173.843 29.0527C175.198 29.0527 175.988 29.8992 175.988 31.2536C175.988 32.6079 175.141 33.5108 173.843 33.5108C172.545 33.5108 171.699 32.6644 171.699 31.2536Z" fill="white"/>
</svg>
