<svg width="264" height="44" viewBox="0 0 264 44" fill="none" xmlns="http://www.w3.org/2000/svg">
<path d="M18.5173 0.338379C14.1173 0.338379 9.51728 1.03838 6.41728 2.93838C1.31728 6.13838 -0.182722 12.1384 0.0172782 17.8384C0.117278 22.7384 1.41728 27.9384 4.91728 31.4384C8.21728 34.8384 14.9173 36.4384 19.6173 36.4384C19.8173 36.4384 20.0173 36.5384 20.0173 36.8384V41.7384C20.0173 42.2384 20.4173 42.6384 20.9173 42.6384H21.0173C21.2173 42.6384 21.3173 42.5384 21.5173 42.4384C23.8173 40.4384 26.1173 38.4384 28.4173 36.3384C30.5173 34.3384 33.0173 32.2384 34.7173 29.9384C38.2173 24.9384 38.8173 17.7384 37.6173 11.8384C36.3173 6.03838 32.3173 2.33838 26.6173 1.13838C24.3173 0.638379 21.4173 0.338379 18.5173 0.338379Z" fill="#00C6D7"/>
<path d="M89.6172 42.0385V10.0385C89.6172 9.73848 89.8172 9.43848 90.2172 9.43848H96.7172C97.0172 9.43848 97.2172 9.63848 97.2172 9.83848L97.6172 11.8385C99.3172 9.93848 101.717 8.93848 104.817 8.93848C110.817 8.93848 115.417 12.7385 115.417 21.3385C115.417 29.9385 110.917 33.8385 104.817 33.8385C101.817 33.8385 99.3172 32.8385 97.6172 30.8385V41.9385C97.6172 42.2385 97.4172 42.5385 97.0172 42.5385H90.0172C89.8172 42.5385 89.6172 42.3385 89.6172 42.0385ZM97.6172 23.4385C97.6172 23.6385 97.6172 23.8385 97.7172 24.0385C98.4172 26.5385 100.117 27.6385 102.217 27.6385C105.017 27.6385 107.017 25.8385 107.017 21.4385C107.017 17.0385 105.017 15.2385 102.217 15.2385C99.9172 15.2385 98.3172 16.3385 97.6172 18.8385C97.6172 19.0385 97.5172 19.2385 97.5172 19.3385V23.4385H97.6172Z" fill="white"/>
<path d="M42.3173 0.338379H49.3173C49.6173 0.338379 49.9173 0.538379 49.9173 0.938379V12.0384C51.6173 10.0384 54.1173 9.03838 57.1173 9.03838C63.2173 9.03838 67.7173 12.9384 67.7173 21.5384C67.7173 30.1384 63.2173 33.9384 57.1173 33.9384C54.0173 33.9384 51.6173 32.9384 49.9173 31.0384L49.5173 33.0384C49.4173 33.3384 49.2173 33.4384 49.0173 33.4384H42.5173C42.2173 33.4384 41.9173 33.2384 41.9173 32.8384V0.838379C41.7173 0.538379 42.0173 0.338379 42.3173 0.338379ZM49.8173 23.6384C49.8173 23.8384 49.8173 24.0384 49.9173 24.1384C50.5173 26.6384 52.2173 27.7384 54.5173 27.7384C57.3173 27.7384 59.3173 25.9384 59.3173 21.5384C59.3173 17.1384 57.3173 15.3384 54.5173 15.3384C52.4173 15.3384 50.7173 16.4384 50.0173 18.9384C49.9173 19.1384 49.9173 19.3384 49.9173 19.5384V23.6384H49.8173Z" fill="white"/>
<path d="M69.5174 0.338379H76.5174C76.8174 0.338379 77.0174 0.538379 77.0174 0.938379V32.9384C77.0174 33.2384 76.8174 33.5384 76.4174 33.5384H69.4174C69.1174 33.5384 68.8174 33.3384 68.8174 32.9384V0.938379C68.9174 0.538379 69.2174 0.338379 69.5174 0.338379Z" fill="white"/>
<path d="M79.3173 5.93838V0.938379C79.3173 0.638379 79.5173 0.338379 79.9173 0.338379H86.9173C87.2173 0.338379 87.5173 0.538379 87.5173 0.938379V5.93838C87.5173 6.23838 87.3173 6.53838 86.9173 6.53838H79.9173C79.5173 6.43838 79.3173 6.23838 79.3173 5.93838ZM79.8173 9.43838H86.8173C87.1173 9.43838 87.4173 9.63838 87.4173 10.0384V32.8384C87.4173 33.1384 87.2173 33.4384 86.8173 33.4384H79.8173C79.5173 33.4384 79.2173 33.2384 79.2173 32.8384V10.0384C79.3173 9.73838 79.5173 9.43838 79.8173 9.43838Z" fill="white"/>
<path d="M117.917 26.7388H121.017C121.217 29.6388 122.917 31.1388 127.617 31.1388C132.117 31.1388 134.017 29.7388 134.017 27.1388C134.017 21.2388 118.517 26.0388 118.517 16.3388C118.517 11.6388 122.317 9.73877 127.517 9.73877C133.317 9.73877 136.117 12.2388 136.417 16.4388H133.517C133.217 13.6388 131.517 12.3388 127.517 12.3388C123.817 12.3388 121.517 13.5388 121.517 16.2388C121.517 23.2388 137.017 18.2388 137.017 27.0388C137.017 31.9388 133.617 33.7388 127.617 33.7388C120.917 33.7388 118.217 31.1388 117.917 26.7388Z" fill="white"/>
<path d="M139.817 24.3386V10.0386H142.817V24.3386C142.817 29.6386 145.517 31.2386 149.317 31.2386C154.917 31.2386 157.017 26.5386 157.217 20.5386V10.0386H160.117V33.3386H157.517L157.317 28.4386C155.817 31.7386 153.117 33.7386 148.417 33.7386C142.817 33.7386 139.717 30.9386 139.817 24.3386Z" fill="white"/>
<path d="M164.417 10.0387H167.017L167.317 14.1387C169.017 11.0387 172.017 9.63867 175.917 9.63867C182.117 9.63867 186.617 13.2387 186.617 21.7387C186.617 30.1387 182.117 33.8387 175.917 33.8387C172.117 33.8387 169.117 32.4387 167.417 29.3387V43.0387H164.417V10.0387ZM167.417 24.5387C168.217 29.2387 171.317 31.1387 175.317 31.1387C180.017 31.1387 183.517 28.4387 183.517 21.7387C183.517 14.9387 180.017 12.3387 175.317 12.3387C171.317 12.3387 168.217 14.2387 167.417 18.9387V24.5387Z" fill="white"/>
<path d="M189.117 10.0387H191.717L192.017 14.1387C193.717 11.0387 196.717 9.63867 200.617 9.63867C206.817 9.63867 211.317 13.2387 211.317 21.7387C211.317 30.1387 206.817 33.8387 200.617 33.8387C196.817 33.8387 193.817 32.4387 192.117 29.3387V43.0387H189.117V10.0387ZM192.117 24.5387C192.917 29.2387 196.017 31.1387 200.017 31.1387C204.717 31.1387 208.217 28.4387 208.217 21.7387C208.217 14.9387 204.717 12.3387 200.017 12.3387C196.017 12.3387 192.917 14.2387 192.117 18.9387V24.5387Z" fill="white"/>
<path d="M212.117 21.7388C212.117 13.3388 216.817 9.73877 223.417 9.73877C230.017 9.73877 234.717 13.3388 234.717 21.7388C234.717 30.1388 230.017 33.7388 223.417 33.7388C216.817 33.7388 212.117 30.1388 212.117 21.7388ZM223.317 31.1388C228.017 31.1388 231.517 28.5388 231.517 21.7388C231.517 14.9388 228.017 12.3388 223.317 12.3388C218.617 12.3388 215.117 15.0388 215.117 21.7388C215.217 28.5388 218.617 31.1388 223.317 31.1388Z" fill="white"/>
<path d="M239.817 10.0388L240.117 15.4388C242.017 11.6388 245.317 9.73877 249.617 9.73877V12.8388H249.017C243.817 12.8388 240.117 16.8388 240.117 21.5388V33.4388H237.117V10.0388H239.817Z" fill="white"/>
<path d="M249.617 12.4386V10.0386H253.817V3.03857H256.717V10.0386H263.417V12.4386H256.717V26.5386C256.717 30.1386 257.317 30.8386 260.317 30.8386H263.717V33.4386H259.617C255.717 33.4386 253.817 31.7386 253.817 26.8386V12.4386H249.617Z" fill="white"/>
</svg>
