<svg width="274" height="44" viewBox="0 0 274 44" fill="none" xmlns="http://www.w3.org/2000/svg">
<path d="M141.978 23.758C141.978 29.9832 138.202 34.3798 132.265 34.3798C128.613 34.3798 125.752 32.8447 124.132 29.9832V42.9755H122.015V17.7868L121.434 13.3055H123.178L124.047 17.7021C125.622 14.7165 128.528 13.0967 132.265 13.0967C138.202 13.091 141.978 17.4481 141.978 23.758ZM139.777 23.758C139.777 18.1988 136.706 14.8745 131.977 14.8745C127.202 14.8745 124.132 18.1931 124.132 23.758C124.132 29.2382 127.202 32.5568 131.977 32.5568C136.706 32.5568 139.777 29.2326 139.777 23.758Z" fill="white"/>
<path d="M146.792 24.9206V13.2998H148.908V24.9601C148.908 30.604 151.397 32.5568 155.218 32.5568C159.039 32.5568 161.483 30.604 161.483 24.9601V13.2998H163.639V24.9206C163.639 31.2305 160.732 34.3854 155.213 34.3854C149.659 34.3797 146.792 31.2248 146.792 24.9206Z" fill="white"/>
<path d="M169.955 34.1314V17.7811L169.667 15.2921L169.379 13.2998H171.123L171.868 16.7031C172.867 14.4229 174.814 13.2998 178.341 13.2998H179.713V15.5009H178.302C173.448 15.5009 172.077 17.2449 172.077 22.9283V34.1314H169.955Z" fill="white"/>
<path d="M204.399 23.758C204.399 29.9832 200.623 34.3798 194.686 34.3798C191.035 34.3798 188.173 32.8447 186.553 29.9832V42.9755H184.437V17.7868L183.855 13.3055H185.599L186.469 17.7021C188.043 14.7165 190.95 13.0967 194.686 13.0967C200.623 13.091 204.399 17.4481 204.399 23.758ZM202.198 23.758C202.198 18.1988 199.128 14.8745 194.398 14.8745C189.624 14.8745 186.553 18.1931 186.553 23.758C186.553 29.2382 189.624 32.5568 194.398 32.5568C199.128 32.5568 202.198 29.2326 202.198 23.758Z" fill="white"/>
<path d="M208.051 23.6731C208.051 17.4479 212.12 13.0908 218.509 13.0908C224.898 13.0908 228.967 17.4479 228.967 23.6731C228.967 29.983 224.898 34.3796 218.509 34.3796C212.12 34.3796 208.051 29.983 208.051 23.6731ZM226.772 23.6731C226.772 18.1929 223.532 14.9194 218.469 14.9194C213.446 14.9194 210.252 18.1985 210.252 23.6731C210.252 29.2324 213.446 32.5566 218.469 32.5566C223.532 32.5566 226.772 29.2324 226.772 23.6731Z" fill="white"/>
<path d="M232.54 27.4094H234.656C234.656 31.1456 237.478 32.5961 240.966 32.5961C244.409 32.5961 246.774 31.3488 246.774 28.5269C246.774 25.2083 243.495 24.7116 240.215 23.8368C235.983 22.6742 233.657 21.5962 233.657 18.2776C233.657 14.8743 236.27 13.0908 240.673 13.0908C245.859 13.0908 248.1 15.5008 248.1 18.983H246.023C246.023 16.1216 243.782 14.8743 240.628 14.8743C238.223 14.8743 235.853 15.5798 235.853 18.0687C235.853 20.6424 238.009 21.139 240.915 21.9292C244.9 22.9676 248.969 23.961 248.969 28.3632C248.969 31.806 246.435 34.3796 240.876 34.3796C235.446 34.3796 232.54 31.727 232.54 27.4094Z" fill="white"/>
<path d="M272.961 24.2149H254.906C255.115 28.9445 258.061 32.5566 263.124 32.5566C267.069 32.5566 269.806 30.4797 270.676 27.906H272.831C271.46 31.9301 267.933 34.3796 263.118 34.3796C256.729 34.3796 252.7 29.983 252.7 23.7126C252.7 17.4479 256.769 13.0908 262.91 13.0908C269.135 13.0908 272.786 17.0754 272.995 22.883C273.006 23.3853 273.046 23.7126 272.961 24.2149ZM254.991 22.3468H270.721C270.557 17.9051 267.611 14.9194 262.876 14.9194C258.191 14.9194 255.448 18.1985 254.991 22.3468Z" fill="white"/>
<path d="M67.6252 23.5265C67.6252 30.0735 64.3743 34.5321 58.6232 34.5321C55.203 34.5321 52.6181 32.9067 51.2862 29.78L50.496 34.1596H45.7043V29.6558V5.31934H51.4555V16.9796C52.8721 14.1464 55.3328 12.6451 58.6232 12.6451C64.3743 12.6451 67.6252 17.1038 67.6252 23.5265ZM61.829 23.5265C61.829 19.6887 59.91 17.4424 56.6196 17.4424C53.3688 17.4424 51.4498 19.6943 51.4498 23.5265C51.4498 27.4886 53.3688 29.7405 56.6196 29.7405C59.91 29.7348 61.829 27.4829 61.829 23.5265Z" fill="white"/>
<path d="M82.9766 34.154V13.0176H88.7277V34.154H82.9766Z" fill="white"/>
<path d="M114.537 23.6048C114.537 30.067 111.286 34.5257 105.535 34.5257C102.245 34.5257 99.784 33.0244 98.3673 30.1912V41.3492H92.6162V17.515V13.0112H97.4079L98.198 17.3908C99.5751 14.2641 102.115 12.6387 105.535 12.6387C111.286 12.6443 114.537 17.103 114.537 23.6048ZM108.741 23.6048C108.741 19.6879 106.822 17.436 103.531 17.436C100.281 17.436 98.3617 19.6879 98.3617 23.6048C98.3617 27.4821 100.281 29.734 103.531 29.734C106.822 29.734 108.741 27.4821 108.741 23.6048Z" fill="white"/>
<path d="M89.1734 9.95301C89.3822 9.49021 89.512 8.98226 89.512 8.44045C89.512 6.41993 87.8753 4.7832 85.8548 4.7832C83.8342 4.7832 82.1975 6.41993 82.1975 8.44045C82.1975 8.98226 82.3217 9.49021 82.5361 9.95301H89.1734Z" fill="white"/>
<path d="M75.3065 29.1535H80.4763V34.154H77.4343C71.9315 34.154 69.5554 31.6932 69.5554 25.152V5.31934H75.3065V25.3157V29.1535Z" fill="white"/>
<path d="M19.0877 0.837891C6.66544 0.837891 0 5.51104 0 17.7301C0 28.6397 5.61568 37.004 19.0877 37.004C19.4263 37.004 20.0753 37.004 20.0753 37.004C20.0753 38.5899 20.081 40.6217 20.081 42.3769C20.081 42.8115 20.4252 43.2179 20.9501 43.2179C21.3621 43.2179 21.475 43.0655 21.8024 42.7777C24.1784 40.7289 31.1825 34.3683 31.1825 34.3683C34.6761 31.044 38.1753 27.0764 38.1753 17.7301C38.1753 5.51104 31.5099 0.837891 19.0877 0.837891Z" fill="#0096FA"/>
</svg>
