<svg width="328" height="44" viewBox="0 0 328 44" fill="none" xmlns="http://www.w3.org/2000/svg">
<path d="M19.4091 0.396484C15.0091 0.396484 10.4091 1.09648 7.30912 2.99648C2.20912 6.19648 0.709124 12.1965 0.909124 17.8965C1.00912 22.7965 2.30912 27.9965 5.80912 31.4965C9.10912 34.8965 15.8091 36.4965 20.5091 36.4965C20.7091 36.4965 20.9091 36.5965 20.9091 36.8965V41.7965C20.9091 42.2965 21.3091 42.6965 21.8091 42.6965H21.9091C22.1091 42.6965 22.2091 42.5965 22.4091 42.4965C24.7091 40.4965 27.0091 38.4965 29.3091 36.3965C31.4091 34.3965 33.9091 32.2965 35.6091 29.9965C39.1091 24.9965 39.7091 17.7965 38.5091 11.8965C37.2091 6.09648 33.2091 2.39648 27.5091 1.19648C25.2091 0.696484 22.3091 0.396484 19.4091 0.396484Z" fill="black"/>
<path d="M90.509 42.0966V10.0966C90.509 9.79658 90.709 9.49658 91.109 9.49658H97.609C97.909 9.49658 98.109 9.69658 98.109 9.89658L98.509 11.8966C100.209 9.99658 102.609 8.99658 105.709 8.99658C111.709 8.99658 116.309 12.7966 116.309 21.3966C116.309 29.9966 111.809 33.8966 105.709 33.8966C102.709 33.8966 100.209 32.8966 98.509 30.8966V41.9966C98.509 42.2966 98.309 42.5966 97.909 42.5966H90.909C90.709 42.5966 90.509 42.3966 90.509 42.0966ZM98.509 23.4966C98.509 23.6966 98.509 23.8966 98.609 24.0966C99.309 26.5966 101.009 27.6966 103.109 27.6966C105.909 27.6966 107.909 25.8966 107.909 21.4966C107.909 17.0966 105.909 15.2966 103.109 15.2966C100.809 15.2966 99.209 16.3966 98.509 18.8966C98.509 19.0966 98.409 19.2966 98.409 19.3966V23.4966H98.509Z" fill="black"/>
<path d="M43.2091 0.396484H50.2091C50.5091 0.396484 50.8091 0.596484 50.8091 0.996484V12.0965C52.5091 10.0965 55.0091 9.09648 58.0091 9.09648C64.1091 9.09648 68.6091 12.9965 68.6091 21.5965C68.6091 30.1965 64.1091 33.9965 58.0091 33.9965C54.9091 33.9965 52.5091 32.9965 50.8091 31.0965L50.4091 33.0965C50.3091 33.3965 50.1091 33.4965 49.9091 33.4965H43.4091C43.1091 33.4965 42.8091 33.2965 42.8091 32.8965V0.896484C42.6091 0.596484 42.9091 0.396484 43.2091 0.396484ZM50.7091 23.6965C50.7091 23.8965 50.7091 24.0965 50.8091 24.1965C51.4091 26.6965 53.1091 27.7965 55.4091 27.7965C58.2091 27.7965 60.2091 25.9965 60.2091 21.5965C60.2091 17.1965 58.2091 15.3965 55.4091 15.3965C53.3091 15.3965 51.6091 16.4965 50.9091 18.9965C50.8091 19.1965 50.8091 19.3965 50.8091 19.5965V23.6965H50.7091Z" fill="black"/>
<path d="M70.4092 0.396484H77.4092C77.7092 0.396484 77.9092 0.596484 77.9092 0.996484V32.9965C77.9092 33.2965 77.7092 33.5965 77.3092 33.5965H70.3092C70.0092 33.5965 69.7092 33.3965 69.7092 32.9965V0.996484C69.8092 0.596484 70.1092 0.396484 70.4092 0.396484Z" fill="black"/>
<path d="M80.2091 5.99648V0.996484C80.2091 0.696484 80.4091 0.396484 80.8091 0.396484H87.8091C88.1091 0.396484 88.4091 0.596484 88.4091 0.996484V5.99648C88.4091 6.29648 88.2091 6.59648 87.8091 6.59648H80.8091C80.4091 6.49648 80.2091 6.29648 80.2091 5.99648ZM80.7091 9.49648H87.7091C88.0091 9.49648 88.3091 9.69648 88.3091 10.0965V32.8965C88.3091 33.1965 88.1091 33.4965 87.7091 33.4965H80.7091C80.4091 33.4965 80.1091 33.2965 80.1091 32.8965V10.0965C80.2091 9.79648 80.4091 9.49648 80.7091 9.49648Z" fill="black"/>
<path d="M214.26 33.7012C219.601 33.7012 223.521 31.2512 224.844 25.8122H221.757C220.581 29.5852 217.837 31.1042 214.26 31.1042C209.605 31.1042 206.028 28.4582 206.028 21.5982C206.028 14.7872 209.556 12.0922 214.26 12.0922C217.788 12.0922 220.532 13.5622 221.708 17.2862H224.844C223.472 11.8472 219.601 9.49523 214.26 9.49523C207.743 9.49523 202.892 13.1212 202.892 21.5982C202.892 30.0752 207.743 33.7012 214.26 33.7012Z" fill="black"/>
<path d="M226.138 21.5982C226.138 30.0752 230.94 33.7012 237.555 33.7012C242.749 33.7012 246.669 31.4962 248.139 26.4492H244.954C243.68 29.7812 240.936 31.1042 237.555 31.1042C232.312 31.1042 229.519 27.8212 229.274 22.2842H248.629V19.6872C248.335 12.7782 243.582 9.49523 237.555 9.49523C230.94 9.49523 226.138 13.1212 226.138 21.5982ZM229.421 19.6872C229.96 14.8362 232.704 12.0922 237.555 12.0922C241.965 12.0922 245.346 14.4932 245.444 19.6872H229.421Z" fill="black"/>
<path d="M251.676 33.3582H254.665V22.8232C254.763 16.8452 256.919 12.0922 262.652 12.0922C266.523 12.0922 269.316 13.7092 269.316 19.0012V33.3582H272.305V19.0012C272.354 12.2882 269.218 9.49523 263.583 9.49523C258.781 9.49523 255.988 11.5042 254.567 14.8362L254.273 9.83823H251.676V33.3582Z" fill="black"/>
<path d="M279.13 12.2392V26.7432C279.13 31.6432 280.992 33.3582 284.961 33.3582H289.077V30.7612H285.696C282.707 30.7612 282.07 30.0262 282.07 26.4492V12.2392H288.783V9.83823H282.07V2.78223H279.13V9.83823H274.916V12.2392H279.13Z" fill="black"/>
<path d="M289.8 21.5982C289.8 30.0752 294.602 33.7012 301.217 33.7012C306.411 33.7012 310.331 31.4962 311.801 26.4492H308.616C307.342 29.7812 304.598 31.1042 301.217 31.1042C295.974 31.1042 293.181 27.8212 292.936 22.2842H312.291V19.6872C311.997 12.7782 307.244 9.49523 301.217 9.49523C294.602 9.49523 289.8 13.1212 289.8 21.5982ZM293.083 19.6872C293.622 14.8362 296.366 12.0922 301.217 12.0922C305.627 12.0922 309.008 14.4932 309.106 19.6872H293.083Z" fill="black"/>
<path d="M315.338 9.83823V33.3582H318.327V21.4022C318.327 16.6492 322.051 12.6312 327.245 12.6312H327.784V9.49523C323.472 9.49523 320.189 11.4062 318.229 15.2772L317.935 9.83823H315.338Z" fill="black"/>
<path d="M119.892 0.0380859V33.3581H122.881V22.8231C122.979 16.8451 125.135 12.0921 130.868 12.0921C134.739 12.0921 137.532 13.7091 137.532 19.0011V33.3581H140.521V19.0011C140.521 12.2881 137.434 9.49509 131.799 9.49509C127.095 9.49509 124.351 11.4551 122.881 14.6401V0.0380859H119.892Z" fill="black"/>
<path d="M143.622 21.5981C143.622 30.0751 148.424 33.7011 155.039 33.7011C160.233 33.7011 164.153 31.4961 165.623 26.4491H162.438C161.164 29.7811 158.42 31.1041 155.039 31.1041C149.796 31.1041 147.003 27.8211 146.758 22.2841H166.113V19.6871C165.819 12.7781 161.066 9.49509 155.039 9.49509C148.424 9.49509 143.622 13.1211 143.622 21.5981ZM146.905 19.6871C147.444 14.8361 150.188 12.0921 155.039 12.0921C159.449 12.0921 162.83 14.4931 162.928 19.6871H146.905Z" fill="black"/>
<path d="M169.16 33.3581H172.149V0.0380859H169.16V33.3581Z" fill="black"/>
<path d="M177.046 43.0601H180.035V29.2421C181.75 32.3291 184.739 33.7501 188.61 33.7501C194.882 33.7501 199.39 30.0751 199.39 21.5981C199.39 13.1211 194.882 9.44608 188.61 9.44608C184.69 9.44608 181.701 10.8671 179.986 14.0031L179.643 9.83809H177.046V43.0601ZM180.035 18.7071C180.868 14.0031 183.955 12.0921 188.022 12.0921C192.726 12.0921 196.254 14.7381 196.254 21.5981C196.254 28.4091 192.775 31.1041 188.022 31.1041C183.955 31.1041 180.868 29.1931 180.035 24.4401V18.7071Z" fill="black"/>
</svg>
