<svg width="203" height="43" viewBox="0 0 203 43" fill="none" xmlns="http://www.w3.org/2000/svg">
<path d="M139.235 22.5241V33.8514H137.08V22.6482C137.08 17.2527 135.087 14.6396 130.939 14.6396C126.334 14.6396 124.296 17.6703 124.296 22.5241V33.8514H122.14V4.17578H124.296V16.6657C125.622 14.1316 128.072 12.8053 131.227 12.8053C136.95 12.8109 139.235 16.2989 139.235 22.5241Z" fill="black"/>
<path d="M164.3 23.9352H146.245C146.454 28.6647 149.4 32.2768 154.463 32.2768C158.408 32.2768 161.145 30.1999 162.014 27.6263H164.176C162.804 31.6504 159.277 34.0998 154.463 34.0998C148.074 34.0998 144.044 29.7032 144.044 23.4328C144.044 17.1625 148.113 12.811 154.254 12.811C160.479 12.811 164.131 16.7956 164.34 22.6032C164.345 23.1055 164.385 23.4328 164.3 23.9352ZM146.33 22.067H162.06C161.896 17.6253 158.944 14.6397 154.214 14.6397C149.53 14.6397 146.787 17.9188 146.33 22.067Z" fill="black"/>
<path d="M176.547 33.8516C171.067 33.8516 168.996 31.611 168.996 24.8891V4.18164H171.152V25.2616C171.152 29.455 171.857 31.944 176.423 31.944H177.749V33.8516H176.547Z" fill="black"/>
<path d="M202.238 23.4782C202.238 29.7034 198.463 34.1 192.525 34.1C188.874 34.1 186.012 32.5649 184.392 29.7034V42.6957H182.276V17.507L181.695 13.0257H183.439L184.308 17.4223C185.882 14.4367 188.789 12.8169 192.525 12.8169C198.463 12.8113 202.238 17.1683 202.238 23.4782ZM200.037 23.4782C200.037 17.919 196.967 14.5947 192.237 14.5947C187.463 14.5947 184.392 17.9133 184.392 23.4782C184.392 28.9584 187.463 32.2771 192.237 32.2771C196.967 32.2771 200.037 28.9528 200.037 23.4782Z" fill="black"/>
<path d="M67.7444 23.2463C67.7444 29.7932 64.4935 34.2519 58.7424 34.2519C55.3222 34.2519 52.7373 32.6264 51.4053 29.4997L50.6151 33.8794H45.8235V29.3755V5.03906H51.5746V16.6993C52.9912 13.8661 55.452 12.3648 58.7424 12.3648C64.4878 12.3648 67.7444 16.8235 67.7444 23.2463ZM61.9481 23.2463C61.9481 19.4084 60.0292 17.1621 56.7388 17.1621C53.4879 17.1621 51.569 19.4141 51.569 23.2463C51.569 27.2083 53.4879 29.4602 56.7388 29.4602C60.0292 29.4545 61.9481 27.2026 61.9481 23.2463Z" fill="black"/>
<path d="M83.0957 33.8742V12.7378H88.8468V33.8742H83.0957Z" fill="black"/>
<path d="M114.656 23.3255C114.656 29.7877 111.405 34.2464 105.654 34.2464C102.364 34.2464 99.9031 32.7451 98.4865 29.9119V41.0699H92.7354V17.2357V12.7319H97.527L98.3172 17.1115C99.6943 13.9848 102.234 12.3594 105.654 12.3594C111.405 12.365 114.656 16.8237 114.656 23.3255ZM108.86 23.3255C108.86 19.4086 106.941 17.1567 103.651 17.1567C100.4 17.1567 98.4808 19.4086 98.4808 23.3255C98.4808 27.2028 100.4 29.4547 103.651 29.4547C106.941 29.4547 108.86 27.2028 108.86 23.3255Z" fill="black"/>
<path d="M89.2928 9.67274C89.5016 9.20994 89.6314 8.70199 89.6314 8.16017C89.6314 6.13966 87.9947 4.50293 85.9741 4.50293C83.9536 4.50293 82.3169 6.13966 82.3169 8.16017C82.3169 8.70199 82.4411 9.20994 82.6555 9.67274H89.2928Z" fill="black"/>
<path d="M75.4254 28.8732H80.5953V33.8737H77.5532C72.0504 33.8737 69.6743 31.413 69.6743 24.8717V5.03906H75.4254V25.0354V28.8732Z" fill="black"/>
<path d="M19.2068 0.558105C6.78457 0.558105 0.119141 5.23125 0.119141 17.4503C0.119141 28.3599 5.73481 36.7242 19.2068 36.7242C19.5454 36.7242 20.1945 36.7242 20.1945 36.7242C20.1945 38.3101 20.2001 40.3419 20.2001 42.0972C20.2001 42.5317 20.5444 42.9381 21.0693 42.9381C21.4813 42.9381 21.5941 42.7857 21.9215 42.4979C24.2976 40.4492 31.3017 34.0885 31.3017 34.0885C34.7952 30.7642 38.2944 26.7966 38.2944 17.4503C38.2944 5.23125 31.629 0.558105 19.2068 0.558105Z" fill="black"/>
</svg>
