<svg width="309" height="43" viewBox="0 0 309 43" fill="none" xmlns="http://www.w3.org/2000/svg">
<path d="M141.978 22.9982C141.978 29.2234 138.202 33.62 132.265 33.62C128.613 33.62 125.752 32.0849 124.132 29.2235V42.2157H122.015V17.027L121.434 12.5457H123.178L124.047 16.9423C125.622 13.9567 128.528 12.3369 132.265 12.3369C138.202 12.3313 141.978 16.6884 141.978 22.9982ZM139.777 22.9982C139.777 17.439 136.706 14.1148 131.977 14.1148C127.202 14.1148 124.132 17.4334 124.132 22.9982C124.132 28.4785 127.202 31.7971 131.977 31.7971C136.706 31.7971 139.777 28.4728 139.777 22.9982Z" fill="white"/>
<path d="M166.173 33.3715H164.429L163.6 29.0144C162.025 31.9605 159.158 33.6198 155.422 33.6198C149.445 33.6198 145.629 29.2232 145.629 22.9134C145.629 16.6881 149.45 12.3311 155.422 12.3311C159.113 12.3311 161.98 13.9057 163.554 16.8123L164.012 12.5399H165.586V28.8902L166.173 33.3715ZM163.475 22.9134C163.475 17.4331 160.445 14.1597 155.676 14.1597C150.901 14.1597 147.831 17.4388 147.831 22.9134C147.831 28.4726 150.901 31.7968 155.676 31.7968C160.445 31.7968 163.475 28.4726 163.475 22.9134Z" fill="white"/>
<path d="M186.638 12.5398H188.754V30.5495C188.754 38.101 185.227 41.6736 178.336 41.6736H175.723V39.845H178.42C184.025 39.845 186.638 36.9384 186.638 31.0913V29.099C185.312 31.509 182.947 32.7901 179.747 32.7901C174.142 32.7901 171.902 29.3868 171.902 23.2011V12.5342H174.058V23.077C174.058 28.512 176.01 30.9615 180.074 30.9615C184.725 30.9615 186.632 27.8517 186.632 22.9923V12.5398H186.638Z" fill="white"/>
<path d="M224.068 21.9205V33.372H221.912V22.0447C221.912 16.2371 219.92 14.1601 216.477 14.1601C212.532 14.1601 210.624 16.8974 210.624 22.1293V33.3776H208.468V22.0503C208.468 16.2427 206.476 14.1658 203.033 14.1658C199.088 14.1658 197.181 16.9031 197.181 22.135V33.3832H195.064V17.0329L194.483 12.5516H196.227L196.972 16.2032C198.219 13.545 200.46 12.3428 203.406 12.3428C206.849 12.3428 209.01 13.7933 210.004 16.9087C211.166 13.7538 213.616 12.3428 216.81 12.3428C221.828 12.3315 224.068 15.3623 224.068 21.9205Z" fill="white"/>
<path d="M249.139 23.4552H231.084C231.293 28.1848 234.239 31.7968 239.301 31.7968C243.246 31.7968 245.984 29.7199 246.853 27.1463H249.009C247.637 31.1704 244.11 33.6198 239.296 33.6198C232.907 33.6198 228.877 29.2232 228.877 22.9529C228.877 16.6881 232.946 12.3311 239.087 12.3311C245.312 12.3311 248.964 16.3156 249.172 22.1232C249.184 22.6255 249.223 22.9529 249.139 23.4552ZM231.168 21.587H246.898C246.734 17.1453 243.788 14.1597 239.053 14.1597C234.368 14.1597 231.626 17.4388 231.168 21.587Z" fill="white"/>
<path d="M271.262 22.0444V33.3717H269.106V22.1686C269.106 16.773 267.154 14.1599 262.966 14.1599C258.191 14.1599 256.323 17.3995 256.323 22.5411V33.3717H254.167V17.0214L253.586 12.5401H255.369L256.114 16.4852C257.486 13.7479 259.975 12.3369 263.293 12.3369C269.022 12.3313 271.262 15.8192 271.262 22.0444Z" fill="white"/>
<path d="M289.69 31.4242V33.377H286.828C281.348 33.377 279.192 31.0517 279.192 24.5387V14.4869H273.836V12.5341H279.231L279.689 6.06055H281.308V12.5341H288.945V14.4869H281.308V24.7813C281.308 29.0143 282.099 31.4186 286.664 31.4186H289.69V31.4242Z" fill="white"/>
<path d="M292.557 26.6496H294.673C294.673 30.3859 297.495 31.8364 300.983 31.8364C304.426 31.8364 306.791 30.5891 306.791 27.7671C306.791 24.4485 303.512 23.9518 300.233 23.077C296 21.9144 293.674 20.8364 293.674 17.5178C293.674 14.1145 296.288 12.3311 300.69 12.3311C305.876 12.3311 308.117 14.741 308.117 18.2233H306.04C306.04 15.3618 303.8 14.1145 300.645 14.1145C298.24 14.1145 295.87 14.82 295.87 17.309C295.87 19.8826 298.026 20.3792 300.932 21.1694C304.917 22.2079 308.986 23.2012 308.986 27.6034C308.986 31.0462 306.452 33.6198 300.893 33.6198C295.464 33.6198 292.557 30.9672 292.557 26.6496Z" fill="white"/>
<path d="M67.6252 22.7668C67.6252 29.3137 64.3743 33.7724 58.6232 33.7724C55.203 33.7724 52.6181 32.1469 51.2862 29.0202L50.496 33.3999H45.7043V28.896V4.55957H51.4555V16.2199C52.8721 13.3866 55.3328 11.8853 58.6232 11.8853C64.3743 11.8853 67.6252 16.344 67.6252 22.7668ZM61.8289 22.7668C61.8289 18.9289 59.91 16.6827 56.6196 16.6827C53.3688 16.6827 51.4498 18.9346 51.4498 22.7668C51.4498 26.7288 53.3688 28.9807 56.6196 28.9807C59.91 28.9751 61.8289 26.7231 61.8289 22.7668Z" fill="white"/>
<path d="M82.9766 33.3942V12.2578H88.7277V33.3942H82.9766Z" fill="white"/>
<path d="M114.537 22.846C114.537 29.3082 111.286 33.7669 105.535 33.7669C102.245 33.7669 99.7842 32.2656 98.3676 29.4324V40.5904H92.6165V16.7562V12.2524H97.4081L98.1983 16.632C99.5754 13.5053 102.115 11.8799 105.535 11.8799C111.286 11.8855 114.537 16.3442 114.537 22.846ZM108.741 22.846C108.741 18.9291 106.822 16.6772 103.532 16.6772C100.281 16.6772 98.3619 18.9291 98.3619 22.846C98.3619 26.7233 100.281 28.9752 103.532 28.9752C106.822 28.9752 108.741 26.7233 108.741 22.846Z" fill="white"/>
<path d="M89.1734 9.19325C89.3822 8.73045 89.512 8.2225 89.512 7.68068C89.512 5.66017 87.8753 4.02344 85.8548 4.02344C83.8342 4.02344 82.1975 5.66017 82.1975 7.68068C82.1975 8.2225 82.3217 8.73045 82.5361 9.19325H89.1734Z" fill="white"/>
<path d="M75.3065 28.3937H80.4764V33.3942H77.4343C71.9315 33.3942 69.5554 30.9335 69.5554 24.3922V4.55957H75.3065V24.5559V28.3937Z" fill="white"/>
<path d="M19.0876 0.078125C6.66544 0.078125 0 4.75127 0 16.9703C0 27.8799 5.61567 36.2442 19.0876 36.2442C19.4263 36.2442 20.0753 36.2442 20.0753 36.2442C20.0753 37.8301 20.081 39.8619 20.081 41.6172C20.081 42.0518 20.4253 42.4581 20.9501 42.4581C21.3621 42.4581 21.475 42.3057 21.8024 42.0179C24.1784 39.9692 31.1825 33.6085 31.1825 33.6085C34.6761 30.2842 38.1753 26.3166 38.1753 16.9703C38.1753 4.75127 31.5099 0.078125 19.0876 0.078125Z" fill="#0096FA"/>
</svg>
