<svg width="233" height="44" viewBox="0 0 233 44" fill="none" xmlns="http://www.w3.org/2000/svg">
<g clip-path="url(#clip0_18192_359)">
<path d="M20.3529 1C7.75632 1 1 5.75235 1 18.1199C1 29.1705 6.72569 37.7017 20.3529 37.7017C20.6964 37.7017 21.3835 37.7017 21.3835 37.7017C21.3835 39.3049 21.3835 41.3662 21.3835 43.1411C21.3835 43.5992 21.727 44 22.2424 44C22.6432 44 22.7577 43.8282 23.1012 43.542C25.506 41.4807 32.6059 35.0107 32.6059 35.0107C36.1558 31.6325 39.7057 27.6245 39.7057 18.1199C39.7057 5.75235 32.9494 1 20.3529 1Z" fill="black"/>
<path fill-rule="evenodd" clip-rule="evenodd" d="M91.8091 8.72756C91.8091 9.30014 91.6946 9.81545 91.4656 10.2735H84.7093C84.4802 9.81545 84.3657 9.30014 84.3657 8.72756C84.3657 6.66631 86.0262 5.00586 88.0874 5.00586C90.1487 5.00586 91.8091 6.66631 91.8091 8.72756ZM60.49 35.1839C66.273 35.1839 69.5939 30.6606 69.5939 24.0188C69.5939 17.5488 66.3302 13.0254 60.49 13.0254C57.1691 13.0254 54.6498 14.5714 53.2184 17.4342V5.58203H47.3782V30.2598V34.8403H52.245L53.0466 30.3743C54.4208 33.5234 56.9973 35.1839 60.49 35.1839ZM58.486 17.835C61.8069 17.835 63.7537 20.1253 63.7537 24.0188C63.7537 28.0268 61.8069 30.3171 58.486 30.3171C55.1651 30.3171 53.2184 28.0268 53.2184 24.0188C53.2184 20.1253 55.1651 17.835 58.486 17.835ZM85.1677 13.4258V34.8399H91.0079V13.4258H85.1677ZM117.175 24.1333C117.175 30.6606 113.854 35.1839 108.013 35.1839C104.693 35.1839 102.173 33.6379 100.742 30.7751V42.1119H94.9016V17.9495V13.3689H99.7685L100.57 17.835C101.944 14.6859 104.521 13.0254 108.013 13.0254C113.911 13.0254 117.175 17.5487 117.175 24.1333ZM111.334 24.1333C111.334 20.1825 109.388 17.8922 106.067 17.8922C102.746 17.8922 100.799 20.1825 100.799 24.1333C100.799 28.084 102.746 30.3743 106.067 30.3743C109.388 30.317 111.334 28.0267 111.334 24.1333ZM77.3805 29.7445H82.6481V34.8403H79.5563C73.9451 34.8403 71.5403 32.321 71.5403 25.6792V5.58203H77.3805V25.851V29.7445ZM192.4 35.2296V13.8798H190.184V35.2296H192.4ZM189.928 5.52735C189.588 5.83986 189.417 6.266 189.417 6.80578C189.417 7.37398 189.588 7.82853 189.928 8.16945C190.269 8.48195 190.724 8.63821 191.292 8.63821C191.86 8.63821 192.315 8.48195 192.656 8.16945C192.997 7.82853 193.167 7.37398 193.167 6.80578C193.167 6.266 192.997 5.83986 192.656 5.52735C192.315 5.21485 191.86 5.05859 191.292 5.05859C190.724 5.05859 190.269 5.21485 189.928 5.52735ZM125.963 34.1216C127.497 35.0308 129.258 35.4853 131.247 35.4853C133.179 35.4853 134.855 35.0876 136.276 34.2921C137.724 33.4682 138.861 32.2892 139.685 30.7551L140.537 35.2296H142.327L141.73 30.6273V13.8798H140.111L139.642 18.2265C138.818 16.7207 137.682 15.5844 136.233 14.8173C134.812 14.0218 133.151 13.6241 131.247 13.6241C129.258 13.6241 127.497 14.0929 125.963 15.0304C124.457 15.9395 123.292 17.2179 122.468 18.8657C121.645 20.485 121.233 22.3601 121.233 24.4908C121.233 26.6499 121.645 28.5676 122.468 30.2437C123.292 31.8915 124.457 33.1841 125.963 34.1216ZM125.665 31.1812C124.216 29.5619 123.491 27.3317 123.491 24.4908C123.491 21.7066 124.216 19.5191 125.665 17.9282C127.113 16.3088 129.074 15.4991 131.545 15.4991C134.017 15.4991 135.963 16.3088 137.384 17.9282C138.832 19.5191 139.557 21.7066 139.557 24.4908C139.557 27.3317 138.832 29.5619 137.384 31.1812C135.963 32.8006 134.017 33.6103 131.545 33.6103C129.074 33.6103 127.113 32.8006 125.665 31.1812ZM149.165 33.6103C150.642 34.8603 152.759 35.4853 155.515 35.4853C158.27 35.4853 160.344 34.9171 161.736 33.7807C163.128 32.6443 163.824 31.1528 163.824 29.3062C163.824 27.9141 163.441 26.792 162.674 25.9397C161.935 25.0874 161.026 24.4624 159.947 24.0646C158.867 23.6385 157.39 23.1839 155.515 22.701C154.208 22.3316 153.228 22.0333 152.574 21.8061C151.949 21.5504 151.424 21.1811 150.998 20.6981C150.6 20.2151 150.401 19.5617 150.401 18.7378C150.401 17.5446 150.855 16.7065 151.765 16.2236C152.674 15.7122 153.838 15.4565 155.259 15.4565C156.935 15.4565 158.27 15.7974 159.265 16.4793C160.287 17.1611 160.799 18.1554 160.799 19.4623H162.93C162.93 17.7009 162.29 16.2946 161.012 15.2434C159.762 14.1639 157.858 13.6241 155.302 13.6241C153.029 13.6241 151.253 14.0786 149.975 14.9878C148.725 15.8969 148.1 17.2179 148.1 18.9509C148.1 20.0589 148.341 20.968 148.824 21.6782C149.336 22.3601 150.06 22.9282 150.998 23.3828C151.935 23.8089 153.213 24.2351 154.833 24.6612L155.77 24.9169C157.106 25.2578 158.143 25.5703 158.881 25.8544C159.648 26.1385 160.287 26.5789 160.799 27.1755C161.31 27.7437 161.566 28.5107 161.566 29.4767C161.566 30.8687 161.026 31.9199 159.947 32.6301C158.895 33.312 157.461 33.6529 155.642 33.6529C153.682 33.6529 152.105 33.2267 150.912 32.3744C149.719 31.4938 149.122 30.1443 149.122 28.3261H146.949C146.949 30.5704 147.688 32.3318 149.165 33.6103ZM176.489 35.4853C173.733 35.4853 171.617 34.8603 170.139 33.6103C168.662 32.3318 167.923 30.5704 167.923 28.3261H170.097C170.097 30.1443 170.693 31.4938 171.887 32.3744C173.08 33.2267 174.657 33.6529 176.617 33.6529C178.435 33.6529 179.87 33.312 180.921 32.6301C182 31.9199 182.54 30.8687 182.54 29.4767C182.54 28.5107 182.285 27.7437 181.773 27.1755C181.262 26.5789 180.623 26.1385 179.855 25.8544C179.117 25.5703 178.08 25.2578 176.745 24.9169L175.807 24.6612C174.188 24.2351 172.909 23.8089 171.972 23.3828C171.034 22.9282 170.31 22.3601 169.798 21.6782C169.316 20.968 169.074 20.0589 169.074 18.9509C169.074 17.2179 169.699 15.8969 170.949 14.9878C172.228 14.0786 174.003 13.6241 176.276 13.6241C178.833 13.6241 180.736 14.1639 181.986 15.2434C183.265 16.2946 183.904 17.7009 183.904 19.4623H181.773C181.773 18.1554 181.262 17.1611 180.239 16.4793C179.245 15.7974 177.909 15.4565 176.233 15.4565C174.813 15.4565 173.648 15.7122 172.739 16.2236C171.83 16.7065 171.375 17.5446 171.375 18.7378C171.375 19.5617 171.574 20.2151 171.972 20.6981C172.398 21.1811 172.924 21.5504 173.549 21.8061C174.202 22.0333 175.182 22.3316 176.489 22.701C178.364 23.1839 179.841 23.6385 180.921 24.0646C182 24.4624 182.91 25.0874 183.648 25.9397C184.415 26.792 184.799 27.9141 184.799 29.3062C184.799 31.1528 184.103 32.6443 182.711 33.7807C181.319 34.9171 179.245 35.4853 176.489 35.4853ZM206.161 35.4853C203.405 35.4853 201.289 34.8603 199.811 33.6103C198.334 32.3318 197.595 30.5704 197.595 28.3261H199.769C199.769 30.1443 200.365 31.4938 201.559 32.3744C202.752 33.2267 204.328 33.6529 206.289 33.6529C208.107 33.6529 209.542 33.312 210.593 32.6301C211.672 31.9199 212.212 30.8687 212.212 29.4767C212.212 28.5107 211.956 27.7437 211.445 27.1755C210.934 26.5789 210.295 26.1385 209.527 25.8544C208.789 25.5703 207.752 25.2578 206.417 24.9169L205.479 24.6612C203.86 24.2351 202.581 23.8089 201.644 23.3828C200.706 22.9282 199.982 22.3601 199.47 21.6782C198.987 20.968 198.746 20.0589 198.746 18.9509C198.746 17.2179 199.371 15.8969 200.621 14.9878C201.899 14.0786 203.675 13.6241 205.948 13.6241C208.505 13.6241 210.408 14.1639 211.658 15.2434C212.937 16.2946 213.576 17.7009 213.576 19.4623H211.445C211.445 18.1554 210.934 17.1611 209.911 16.4793C208.917 15.7974 207.581 15.4565 205.905 15.4565C204.485 15.4565 203.32 15.7122 202.411 16.2236C201.502 16.7065 201.047 17.5446 201.047 18.7378C201.047 19.5617 201.246 20.2151 201.644 20.6981C202.07 21.1811 202.596 21.5504 203.221 21.8061C203.874 22.0333 204.854 22.3316 206.161 22.701C208.036 23.1839 209.513 23.6385 210.593 24.0646C211.672 24.4624 212.581 25.0874 213.32 25.9397C214.087 26.792 214.471 27.9141 214.471 29.3062C214.471 31.1528 213.775 32.6443 212.383 33.7807C210.991 34.9171 208.917 35.4853 206.161 35.4853ZM224.942 34.3773C226.079 34.9455 227.599 35.2296 229.502 35.2296H232.4V33.2267H229.332C227.826 33.2267 226.675 32.9711 225.88 32.4597C225.084 31.9483 224.544 31.2097 224.26 30.2437C223.976 29.2778 223.834 27.9994 223.834 26.4084V15.84H231.675V13.8798H223.834V7.23193H222.172L221.704 13.8798H216.164V15.84H221.661V26.1527C221.661 28.3971 221.917 30.1869 222.428 31.5222C222.968 32.829 223.806 33.7807 224.942 34.3773Z" fill="black"/>
</g>
<defs>
<clipPath id="clip0_18192_359">
<rect width="231.4" height="43" fill="white" transform="translate(1 1)"/>
</clipPath>
</defs>
</svg>
