<svg width="175" height="43" viewBox="0 0 175 43" fill="none" xmlns="http://www.w3.org/2000/svg">
<path d="M125.052 40.3386H130.47C136.056 40.3386 138.652 37.4606 138.652 31.5917V28.5444C137.016 31.5917 134.081 33.2846 130.244 33.2846C124.375 33.2846 120.538 28.883 120.538 23.0141C120.538 17.2017 124.375 12.8564 130.244 12.8564C134.194 12.8564 137.128 14.5494 138.709 17.6531L139.216 13.1386H140.796V31.0274C140.796 38.5892 137.298 42.1444 130.357 42.1444H125.052V40.3386ZM130.526 31.4788C135.323 31.4788 138.313 28.1494 138.313 23.0141C138.313 17.9353 135.266 14.6623 130.526 14.6623C125.729 14.6623 122.682 17.9353 122.682 23.0141C122.682 28.1494 125.786 31.4788 130.526 31.4788Z" fill="white"/>
<path d="M145.593 23.4089C145.593 17.2015 149.656 12.7998 156.033 12.7998C162.41 12.7998 166.473 17.2015 166.473 23.4089C166.473 29.7292 162.41 34.1309 156.033 34.1309C149.656 34.1309 145.593 29.7292 145.593 23.4089ZM155.976 32.2687C161.055 32.2687 164.272 28.9392 164.272 23.4089C164.272 17.9351 161.055 14.662 155.976 14.662C150.954 14.662 147.737 17.9351 147.737 23.4089C147.794 28.9392 150.954 32.2687 155.976 32.2687Z" fill="white"/>
<path d="M67.6049 23.2403C67.6049 29.7863 64.3318 34.2444 58.6323 34.2444C55.19 34.2444 52.6505 32.6079 51.2962 29.5041L50.5061 33.9058H45.7095V29.3913V5.06934H51.4655V16.7507C52.8763 13.9291 55.3592 12.4054 58.6323 12.4054C64.3883 12.4054 67.6049 16.8635 67.6049 23.2403ZM61.8489 23.2403C61.8489 19.4029 59.9302 17.1457 56.6572 17.1457C53.3841 17.1457 51.4655 19.4029 51.4655 23.2403C51.4655 27.1905 53.3841 29.4477 56.6572 29.4477C59.9302 29.4477 61.8489 27.1905 61.8489 23.2403Z" fill="white"/>
<path d="M82.9541 33.9051V12.7998H88.7101V33.9051H82.9541Z" fill="white"/>
<path d="M114.499 23.353C114.499 29.7862 111.226 34.2443 105.47 34.2443C102.197 34.2443 99.7144 32.7206 98.3036 29.899V41.0724H92.5476V17.2584V12.7438H97.3443L98.1343 17.1455C99.4887 14.0418 102.028 12.4053 105.47 12.4053C111.283 12.4053 114.499 16.8634 114.499 23.353ZM108.743 23.353C108.743 19.4592 106.825 17.2019 103.552 17.2019C100.279 17.2019 98.36 19.4592 98.36 23.353C98.36 27.2468 100.279 29.504 103.552 29.504C106.825 29.4476 108.743 27.1903 108.743 23.353Z" fill="white"/>
<path d="M89.1618 9.69658C89.3875 9.24513 89.5004 8.73724 89.5004 8.17293C89.5004 6.14139 87.8639 4.50488 85.8324 4.50488C83.8008 4.50488 82.1643 6.14139 82.1643 8.17293C82.1643 8.73724 82.2772 9.24513 82.5029 9.69658H89.1618Z" fill="white"/>
<path d="M75.2794 28.8834H80.4711V33.9058H77.4238C71.8936 33.9058 69.5234 31.4228 69.5234 24.8768V5.06934H75.2794V25.0461V28.8834Z" fill="white"/>
<path d="M19.0738 0.554688C6.6589 0.554688 0 5.23851 0 17.4277C0 28.319 5.64314 36.7272 19.0738 36.7272C19.4124 36.7272 20.0896 36.7272 20.0896 36.7272C20.0896 38.3073 20.0896 40.3388 20.0896 42.0882C20.0896 42.5397 20.4282 42.9347 20.9361 42.9347C21.3311 42.9347 21.444 42.7654 21.7825 42.4832C24.1527 40.4517 31.1502 34.075 31.1502 34.075C34.6489 30.7455 38.1477 26.7953 38.1477 17.4277C38.1477 5.23851 31.4887 0.554688 19.0738 0.554688Z" fill="#0096FA"/>
<path d="M174.034 4.22266L173.752 25.4409H171.89L171.664 4.22266H174.034Z" fill="white"/>
<path d="M170.705 31.2536C170.705 29.8992 171.552 29.0527 172.849 29.0527C174.204 29.0527 174.994 29.8992 174.994 31.2536C174.994 32.6079 174.147 33.5108 172.849 33.5108C171.552 33.5108 170.705 32.6644 170.705 31.2536Z" fill="white"/>
</svg>
