<svg width="208" height="43" viewBox="0 0 208 43" fill="none" xmlns="http://www.w3.org/2000/svg">
<path d="M18.9345 0.638184C14.5345 0.638184 9.93451 1.33818 6.83451 3.23818C1.73451 6.43818 0.234515 12.4382 0.434515 18.1382C0.534515 23.0382 1.83451 28.2382 5.33451 31.7382C8.63451 35.1382 15.3345 36.7382 20.0345 36.7382C20.2345 36.7382 20.4345 36.9382 20.4345 37.1382V42.0382C20.4345 42.5382 20.8345 42.9382 21.3345 42.9382H21.4345C21.6345 42.9382 21.7345 42.8382 21.9345 42.7382C24.2345 40.7382 26.5345 38.7382 28.8345 36.6382C30.9345 34.6382 33.4345 32.5382 35.1345 30.2382C38.6345 25.2382 39.2345 18.0382 38.0345 12.1382C36.7345 6.33818 32.7345 2.63818 27.0345 1.43818C24.7345 0.938184 21.8345 0.638184 18.9345 0.638184Z" fill="black"/>
<path d="M90.0344 42.3382V10.3382C90.0344 10.0382 90.2344 9.73816 90.6344 9.73816H97.1344C97.4344 9.73816 97.6344 9.93816 97.6344 10.1382L98.0344 12.1382C99.7344 10.2382 102.134 9.23816 105.234 9.23816C111.234 9.23816 115.834 13.0382 115.834 21.6382C115.834 30.2382 111.334 34.1382 105.234 34.1382C102.234 34.1382 99.7344 33.1382 98.0344 31.1382V42.2382C98.0344 42.5382 97.8344 42.8382 97.4344 42.8382H90.4344C90.2344 42.8382 90.0344 42.6382 90.0344 42.3382ZM98.0344 24.0382C98.7344 26.7382 100.434 27.9382 102.634 27.9382C105.434 27.9382 107.434 26.1382 107.434 21.7382C107.434 17.3382 105.434 15.5382 102.634 15.5382C100.334 15.5382 98.6344 16.7382 98.0344 19.4382V24.0382Z" fill="black"/>
<path d="M42.7345 0.638184H49.7345C50.0345 0.638184 50.3345 0.838184 50.3345 1.23818V12.3382C52.0345 10.3382 54.5345 9.33818 57.5345 9.33818C63.6345 9.33818 68.1345 13.2382 68.1345 21.8382C68.1345 30.4382 63.6345 34.2382 57.5345 34.2382C54.4345 34.2382 52.0345 33.2382 50.3345 31.3382L49.9345 33.3382C49.8345 33.6382 49.6345 33.7382 49.4345 33.7382H42.9345C42.6345 33.7382 42.3345 33.5382 42.3345 33.1382V1.13818C42.1345 0.838184 42.4345 0.638184 42.7345 0.638184ZM50.2345 24.1382C50.8345 26.8382 52.5345 28.0382 54.8345 28.0382C57.6345 28.0382 59.6345 26.2382 59.6345 21.8382C59.6345 17.4382 57.6345 15.6382 54.8345 15.6382C52.6345 15.6382 50.9345 16.8382 50.2345 19.5382V24.1382Z" fill="black"/>
<path d="M69.9346 0.638184H76.9346C77.2346 0.638184 77.4346 0.838184 77.4346 1.23818V33.2382C77.4346 33.5382 77.2346 33.8382 76.8346 33.8382H69.8346C69.5346 33.8382 69.2346 33.6382 69.2346 33.2382V1.23818C69.3346 0.838184 69.6346 0.638184 69.9346 0.638184Z" fill="black"/>
<path d="M79.7345 6.23818V1.23818C79.7345 0.938184 79.9345 0.638184 80.3345 0.638184H87.3345C87.6345 0.638184 87.9345 0.838184 87.9345 1.23818V6.23818C87.9345 6.53818 87.7345 6.83818 87.3345 6.83818H80.3345C79.9345 6.73818 79.7345 6.53818 79.7345 6.23818ZM80.2345 9.73818H87.2345C87.5345 9.73818 87.8345 9.93818 87.8345 10.3382V33.1382C87.8345 33.4382 87.6345 33.7382 87.2345 33.7382H80.2345C79.9345 33.7382 79.6345 33.5382 79.6345 33.1382V10.3382C79.7345 10.0382 79.9345 9.73818 80.2345 9.73818Z" fill="black"/>
<path d="M118.135 22.0382C118.135 13.6382 122.635 10.0382 128.835 10.0382C132.635 10.0382 135.635 11.4382 137.335 14.5382V0.638184H140.235V33.7382H137.635L137.335 29.5382C135.635 32.6382 132.635 34.0382 128.735 34.0382C122.635 34.0382 118.135 30.4382 118.135 22.0382ZM129.435 31.4382C133.435 31.4382 136.535 29.5382 137.335 24.8382V19.2382C136.435 14.5382 133.435 12.6382 129.435 12.6382C124.735 12.6382 121.235 15.3382 121.235 22.0382C121.235 28.8382 124.635 31.4382 129.435 31.4382Z" fill="black"/>
<path d="M154.134 10.0382C160.134 10.0382 164.834 13.3382 165.134 20.1382V22.7382H145.934C146.134 28.2382 148.934 31.5382 154.134 31.5382C157.534 31.5382 160.234 30.2382 161.434 26.9382H164.634C163.134 31.9382 159.234 34.1382 154.134 34.1382C147.534 34.1382 142.834 30.5382 142.834 22.1382C142.834 13.6382 147.634 10.0382 154.134 10.0382ZM162.034 20.1382C161.934 14.9382 158.534 12.6382 154.234 12.6382C149.434 12.6382 146.734 15.3382 146.134 20.1382H162.034Z" fill="black"/>
<path d="M166.135 27.1382H169.235C169.435 30.0382 171.135 31.5382 175.835 31.5382C180.335 31.5382 182.235 30.1382 182.235 27.5382C182.235 21.6382 166.735 26.4382 166.735 16.7382C166.735 12.0382 170.535 10.1382 175.735 10.1382C181.535 10.1382 184.335 12.6382 184.635 16.8382H181.735C181.435 14.0382 179.735 12.7382 175.735 12.7382C172.035 12.7382 169.735 13.9382 169.735 16.6382C169.735 23.6382 185.235 18.6382 185.235 27.4382C185.235 32.3382 181.835 34.1382 175.835 34.1382C169.135 34.0382 166.335 31.4382 166.135 27.1382Z" fill="black"/>
<path d="M187.935 33.7382V0.638184H190.935V22.2382L202.335 10.3382H206.335L196.635 20.1382L207.835 33.7382H204.035L194.835 22.0382L191.035 25.9382V33.7382H187.935Z" fill="black"/>
<path d="M90.0344 42.3382V10.3382C90.0344 10.0382 90.2344 9.73816 90.6344 9.73816H97.1344C97.4344 9.73816 97.6344 9.93816 97.6344 10.1382L98.0344 12.1382C99.7344 10.2382 102.134 9.23816 105.234 9.23816C111.234 9.23816 115.834 13.0382 115.834 21.6382C115.834 30.2382 111.334 34.1382 105.234 34.1382C102.234 34.1382 99.7344 33.1382 98.0344 31.1382V42.2382C98.0344 42.5382 97.8344 42.8382 97.4344 42.8382H90.4344C90.2344 42.8382 90.0344 42.6382 90.0344 42.3382ZM98.0344 23.7382C98.0344 23.9382 98.0344 24.1382 98.1344 24.3382C98.8344 26.8382 100.534 27.9382 102.634 27.9382C105.434 27.9382 107.434 26.1382 107.434 21.7382C107.434 17.3382 105.434 15.5382 102.634 15.5382C100.334 15.5382 98.7344 16.6382 98.0344 19.1382C98.0344 19.3382 97.9344 19.5382 97.9344 19.6382V23.7382H98.0344Z" fill="black"/>
<path d="M42.7345 0.638184H49.7345C50.0345 0.638184 50.3345 0.838184 50.3345 1.23818V12.3382C52.0345 10.3382 54.5345 9.33818 57.5345 9.33818C63.6345 9.33818 68.1345 13.2382 68.1345 21.8382C68.1345 30.4382 63.6345 34.2382 57.5345 34.2382C54.4345 34.2382 52.0345 33.2382 50.3345 31.3382L49.9345 33.3382C49.8345 33.6382 49.6345 33.7382 49.4345 33.7382H42.9345C42.6345 33.7382 42.3345 33.5382 42.3345 33.1382V1.13818C42.1345 0.838184 42.4345 0.638184 42.7345 0.638184ZM50.2345 23.9382C50.2345 24.1382 50.2345 24.3382 50.3345 24.4382C50.9345 26.9382 52.6345 28.0382 54.9345 28.0382C57.7345 28.0382 59.7345 26.2382 59.7345 21.8382C59.7345 17.4382 57.7345 15.6382 54.9345 15.6382C52.8345 15.6382 51.1345 16.7382 50.4345 19.2382C50.3345 19.4382 50.3345 19.6382 50.3345 19.8382V23.9382H50.2345Z" fill="black"/>
<path d="M69.9346 0.638184H76.9346C77.2346 0.638184 77.4346 0.838184 77.4346 1.23818V33.2382C77.4346 33.5382 77.2346 33.8382 76.8346 33.8382H69.8346C69.5346 33.8382 69.2346 33.6382 69.2346 33.2382V1.23818C69.3346 0.838184 69.6346 0.638184 69.9346 0.638184Z" fill="black"/>
<path d="M79.7345 6.23818V1.23818C79.7345 0.938184 79.9345 0.638184 80.3345 0.638184H87.3345C87.6345 0.638184 87.9345 0.838184 87.9345 1.23818V6.23818C87.9345 6.53818 87.7345 6.83818 87.3345 6.83818H80.3345C79.9345 6.73818 79.7345 6.53818 79.7345 6.23818ZM80.2345 9.73818H87.2345C87.5345 9.73818 87.8345 9.93818 87.8345 10.3382V33.1382C87.8345 33.4382 87.6345 33.7382 87.2345 33.7382H80.2345C79.9345 33.7382 79.6345 33.5382 79.6345 33.1382V10.3382C79.7345 10.0382 79.9345 9.73818 80.2345 9.73818Z" fill="black"/>
</svg>
