<svg width="109" height="126" viewBox="0 0 109 126" fill="none" xmlns="http://www.w3.org/2000/svg">
<path d="M67.9277 0C60.6277 0 53.1277 1.2 48.0277 4.3C39.7277 9.4 37.3277 19.5 37.5277 28.7C37.7277 36.7 39.9277 45.2 45.5277 51.1C50.9277 56.7 62.0277 59.2 69.6277 59.2C69.9277 59.2 70.3277 59.4 70.3277 59.9V68C70.3277 68.8 70.9277 69.4 71.7277 69.4H71.8277C72.1277 69.4 72.4277 69.3 72.6277 69.1C76.4277 65.8 80.2277 62.5 83.9277 59.1C87.4277 55.8 91.4277 52.4 94.2277 48.5C100.028 40.2 100.928 28.5 99.0277 18.7C97.1277 9.3 90.5277 3.2 81.2277 1.3C77.5277 0.499999 72.7277 0 67.9277 0Z" fill="#00C6D7"/>
<path d="M70.4277 125.1V78C70.4277 77.5 70.8278 77.2 71.2278 77.2H80.8278C81.2278 77.2 81.5277 77.5 81.6277 77.8L82.2278 80.7C84.7278 77.8 88.3278 76.4 92.8278 76.4C101.728 76.4 108.428 82.1 108.428 94.7C108.428 107.3 101.828 113.1 92.8278 113.1C88.4278 113.1 84.7278 111.7 82.2278 108.7V125C82.2278 125.5 81.8277 125.8 81.4277 125.8H71.1277C70.8277 125.9 70.4277 125.6 70.4277 125.1ZM82.3278 97.8C82.3278 98.1 82.3277 98.4 82.4277 98.7C83.5277 102.4 86.0277 104 89.1277 104C93.3277 104 96.2278 101.3 96.2278 94.8C96.2278 88.3 93.3277 85.6 89.1277 85.6C85.8277 85.6 83.3277 87.2 82.4277 90.9C82.3277 91.2 82.3278 91.4 82.3278 91.7V97.8Z" fill="black"/>
<path d="M0.727761 63.7H11.0277C11.5277 63.7 11.8277 64.1 11.8277 64.5V80.8C14.3277 77.9 18.0277 76.4 22.4277 76.4C31.4277 76.4 38.0277 82.2 38.0277 94.8C38.0277 107.4 31.3277 113.1 22.4277 113.1C17.9277 113.1 14.3277 111.7 11.8277 108.8L11.2278 111.7C11.1278 112.1 10.8277 112.3 10.4277 112.3H0.827736C0.327736 112.3 0.0277484 111.9 0.0277484 111.5V64.5C-0.0722516 64 0.327761 63.7 0.727761 63.7ZM11.8277 98C11.8277 98.3 11.8277 98.5 11.9277 98.8C12.8277 102.5 15.3277 104.1 18.6277 104.1C22.8277 104.1 25.7278 101.4 25.7278 94.9C25.7278 88.4 22.8277 85.7 18.6277 85.7C15.5277 85.7 13.0277 87.3 11.9277 91C11.8277 91.3 11.8277 91.6 11.8277 91.9V98Z" fill="black"/>
<path d="M40.8278 63.7H51.1278C51.6278 63.7 51.9278 64.1 51.9278 64.5V111.6C51.9278 112.1 51.5278 112.4 51.1278 112.4H40.8278C40.3278 112.4 40.0278 112 40.0278 111.6V64.5C40.0278 64 40.4278 63.7 40.8278 63.7Z" fill="black"/>
<path d="M55.2278 71.9V64.5C55.2278 64 55.6278 63.7 56.0278 63.7H66.3278C66.8278 63.7 67.1277 64.1 67.1277 64.5V71.9C67.1277 72.4 66.7278 72.7 66.3278 72.7H56.0278C55.6278 72.7 55.2278 72.3 55.2278 71.9ZM56.0278 77.2H66.3278C66.8278 77.2 67.1277 77.6 67.1277 78V111.6C67.1277 112.1 66.7278 112.4 66.3278 112.4H56.0278C55.5278 112.4 55.2278 112 55.2278 111.6V78C55.2278 77.5 55.6278 77.2 56.0278 77.2Z" fill="black"/>
</svg>
