<svg width="327" height="44" viewBox="0 0 327 44" fill="none" xmlns="http://www.w3.org/2000/svg">
<path d="M18.5173 0.396484C14.1173 0.396484 9.51728 1.09648 6.41728 2.99648C1.31728 6.19648 -0.182722 12.1965 0.0172782 17.8965C0.117278 22.7965 1.41728 27.9965 4.91728 31.4965C8.21728 34.8965 14.9173 36.4965 19.6173 36.4965C19.8173 36.4965 20.0173 36.5965 20.0173 36.8965V41.7965C20.0173 42.2965 20.4173 42.6965 20.9173 42.6965H21.0173C21.2173 42.6965 21.3173 42.5965 21.5173 42.4965C23.8173 40.4965 26.1173 38.4965 28.4173 36.3965C30.5173 34.3965 33.0173 32.2965 34.7173 29.9965C38.2173 24.9965 38.8173 17.7965 37.6173 11.8965C36.3173 6.09648 32.3173 2.39648 26.6173 1.19648C24.3173 0.696484 21.4173 0.396484 18.5173 0.396484Z" fill="#00C6D7"/>
<path d="M89.6172 42.0966V10.0966C89.6172 9.79658 89.8172 9.49658 90.2172 9.49658H96.7172C97.0172 9.49658 97.2172 9.69658 97.2172 9.89658L97.6172 11.8966C99.3172 9.99658 101.717 8.99658 104.817 8.99658C110.817 8.99658 115.417 12.7966 115.417 21.3966C115.417 29.9966 110.917 33.8966 104.817 33.8966C101.817 33.8966 99.3172 32.8966 97.6172 30.8966V41.9966C97.6172 42.2966 97.4172 42.5966 97.0172 42.5966H90.0172C89.8172 42.5966 89.6172 42.3966 89.6172 42.0966ZM97.6172 23.4966C97.6172 23.6966 97.6172 23.8966 97.7172 24.0966C98.4172 26.5966 100.117 27.6966 102.217 27.6966C105.017 27.6966 107.017 25.8966 107.017 21.4966C107.017 17.0966 105.017 15.2966 102.217 15.2966C99.9172 15.2966 98.3172 16.3966 97.6172 18.8966C97.6172 19.0966 97.5172 19.2966 97.5172 19.3966V23.4966H97.6172Z" fill="black"/>
<path d="M42.3173 0.396484H49.3173C49.6173 0.396484 49.9173 0.596484 49.9173 0.996484V12.0965C51.6173 10.0965 54.1173 9.09648 57.1173 9.09648C63.2173 9.09648 67.7173 12.9965 67.7173 21.5965C67.7173 30.1965 63.2173 33.9965 57.1173 33.9965C54.0173 33.9965 51.6173 32.9965 49.9173 31.0965L49.5173 33.0965C49.4173 33.3965 49.2173 33.4965 49.0173 33.4965H42.5173C42.2173 33.4965 41.9173 33.2965 41.9173 32.8965V0.896484C41.7173 0.596484 42.0173 0.396484 42.3173 0.396484ZM49.8173 23.6965C49.8173 23.8965 49.8173 24.0965 49.9173 24.1965C50.5173 26.6965 52.2173 27.7965 54.5173 27.7965C57.3173 27.7965 59.3173 25.9965 59.3173 21.5965C59.3173 17.1965 57.3173 15.3965 54.5173 15.3965C52.4173 15.3965 50.7173 16.4965 50.0173 18.9965C49.9173 19.1965 49.9173 19.3965 49.9173 19.5965V23.6965H49.8173Z" fill="black"/>
<path d="M69.5174 0.396484H76.5174C76.8174 0.396484 77.0174 0.596484 77.0174 0.996484V32.9965C77.0174 33.2965 76.8174 33.5965 76.4174 33.5965H69.4174C69.1174 33.5965 68.8174 33.3965 68.8174 32.9965V0.996484C68.9174 0.596484 69.2174 0.396484 69.5174 0.396484Z" fill="black"/>
<path d="M79.3173 5.99648V0.996484C79.3173 0.696484 79.5173 0.396484 79.9173 0.396484H86.9173C87.2173 0.396484 87.5173 0.596484 87.5173 0.996484V5.99648C87.5173 6.29648 87.3173 6.59648 86.9173 6.59648H79.9173C79.5173 6.49648 79.3173 6.29648 79.3173 5.99648ZM79.8173 9.49648H86.8173C87.1173 9.49648 87.4173 9.69648 87.4173 10.0965V32.8965C87.4173 33.1965 87.2173 33.4965 86.8173 33.4965H79.8173C79.5173 33.4965 79.2173 33.2965 79.2173 32.8965V10.0965C79.3173 9.79648 79.5173 9.49648 79.8173 9.49648Z" fill="black"/>
<path d="M213.368 33.7012C218.709 33.7012 222.629 31.2512 223.952 25.8122H220.865C219.689 29.5852 216.945 31.1042 213.368 31.1042C208.713 31.1042 205.136 28.4582 205.136 21.5982C205.136 14.7872 208.664 12.0922 213.368 12.0922C216.896 12.0922 219.64 13.5622 220.816 17.2862H223.952C222.58 11.8472 218.709 9.49523 213.368 9.49523C206.851 9.49523 202 13.1212 202 21.5982C202 30.0752 206.851 33.7012 213.368 33.7012Z" fill="black"/>
<path d="M225.246 21.5982C225.246 30.0752 230.048 33.7012 236.663 33.7012C241.857 33.7012 245.777 31.4962 247.247 26.4492H244.062C242.788 29.7812 240.044 31.1042 236.663 31.1042C231.42 31.1042 228.627 27.8212 228.382 22.2842H247.737V19.6872C247.443 12.7782 242.69 9.49523 236.663 9.49523C230.048 9.49523 225.246 13.1212 225.246 21.5982ZM228.529 19.6872C229.068 14.8362 231.812 12.0922 236.663 12.0922C241.073 12.0922 244.454 14.4932 244.552 19.6872H228.529Z" fill="black"/>
<path d="M250.784 33.3582H253.773V22.8232C253.871 16.8452 256.027 12.0922 261.76 12.0922C265.631 12.0922 268.424 13.7092 268.424 19.0012V33.3582H271.413V19.0012C271.462 12.2882 268.326 9.49523 262.691 9.49523C257.889 9.49523 255.096 11.5042 253.675 14.8362L253.381 9.83823H250.784V33.3582Z" fill="black"/>
<path d="M278.238 12.2392V26.7432C278.238 31.6432 280.1 33.3582 284.069 33.3582H288.185V30.7612H284.804C281.815 30.7612 281.178 30.0262 281.178 26.4492V12.2392H287.891V9.83823H281.178V2.78223H278.238V9.83823H274.024V12.2392H278.238Z" fill="black"/>
<path d="M288.908 21.5982C288.908 30.0752 293.71 33.7012 300.325 33.7012C305.519 33.7012 309.439 31.4962 310.909 26.4492H307.724C306.45 29.7812 303.706 31.1042 300.325 31.1042C295.082 31.1042 292.289 27.8212 292.044 22.2842H311.399V19.6872C311.105 12.7782 306.352 9.49523 300.325 9.49523C293.71 9.49523 288.908 13.1212 288.908 21.5982ZM292.191 19.6872C292.73 14.8362 295.474 12.0922 300.325 12.0922C304.735 12.0922 308.116 14.4932 308.214 19.6872H292.191Z" fill="black"/>
<path d="M314.446 9.83823V33.3582H317.435V21.4022C317.435 16.6492 321.159 12.6312 326.353 12.6312H326.892V9.49523C322.58 9.49523 319.297 11.4062 317.337 15.2772L317.043 9.83823H314.446Z" fill="black"/>
<path d="M119 0.0380859V33.3581H121.989V22.8231C122.087 16.8451 124.243 12.0921 129.976 12.0921C133.847 12.0921 136.64 13.7091 136.64 19.0011V33.3581H139.629V19.0011C139.629 12.2881 136.542 9.49509 130.907 9.49509C126.203 9.49509 123.459 11.4551 121.989 14.6401V0.0380859H119Z" fill="black"/>
<path d="M142.73 21.5981C142.73 30.0751 147.532 33.7011 154.147 33.7011C159.341 33.7011 163.261 31.4961 164.731 26.4491H161.546C160.272 29.7811 157.528 31.1041 154.147 31.1041C148.904 31.1041 146.111 27.8211 145.866 22.2841H165.221V19.6871C164.927 12.7781 160.174 9.49509 154.147 9.49509C147.532 9.49509 142.73 13.1211 142.73 21.5981ZM146.013 19.6871C146.552 14.8361 149.296 12.0921 154.147 12.0921C158.557 12.0921 161.938 14.4931 162.036 19.6871H146.013Z" fill="black"/>
<path d="M168.268 33.3581H171.257V0.0380859H168.268V33.3581Z" fill="black"/>
<path d="M176.154 43.0601H179.143V29.2421C180.858 32.3291 183.847 33.7501 187.718 33.7501C193.99 33.7501 198.498 30.0751 198.498 21.5981C198.498 13.1211 193.99 9.44608 187.718 9.44608C183.798 9.44608 180.809 10.8671 179.094 14.0031L178.751 9.83809H176.154V43.0601ZM179.143 18.7071C179.976 14.0031 183.063 12.0921 187.13 12.0921C191.834 12.0921 195.362 14.7381 195.362 21.5981C195.362 28.4091 191.883 31.1041 187.13 31.1041C183.063 31.1041 179.976 29.1931 179.143 24.4401V18.7071Z" fill="black"/>
</svg>
