<svg width="346" height="43" viewBox="0 0 346 43" fill="none" xmlns="http://www.w3.org/2000/svg">
<path d="M344.266 34.1248C342.39 34.1248 340.92 33.8588 339.856 33.3268C338.82 32.7668 338.078 31.8708 337.63 30.6388C337.182 29.4068 336.958 27.7128 336.958 25.5568V3.88477H339.142V25.9348C339.142 28.1188 339.492 29.7148 340.192 30.7228C340.892 31.7028 342.222 32.1928 344.182 32.1928H345.526V34.1248H344.266Z" fill="white"/>
<path d="M320.223 34.1666C318.263 34.1666 316.527 33.7186 315.015 32.8226C313.531 31.8986 312.383 30.6246 311.571 29.0006C310.759 27.3486 310.353 25.4586 310.353 23.3306C310.353 21.2306 310.759 19.3826 311.571 17.7866C312.383 16.1626 313.531 14.9026 315.015 14.0066C316.527 13.0826 318.263 12.6206 320.223 12.6206C322.099 12.6206 323.737 13.0126 325.137 13.7966C326.565 14.5526 327.685 15.6726 328.497 17.1566L328.959 12.8726H330.555V29.3786L331.143 33.9146H329.379L328.539 29.5046C327.727 31.0166 326.607 32.1786 325.179 32.9906C323.779 33.7746 322.127 34.1666 320.223 34.1666ZM312.579 23.3306C312.579 26.1306 313.293 28.3286 314.721 29.9246C316.149 31.5206 318.081 32.3186 320.517 32.3186C322.953 32.3186 324.871 31.5206 326.271 29.9246C327.699 28.3286 328.413 26.1306 328.413 23.3306C328.413 20.5866 327.699 18.4306 326.271 16.8626C324.871 15.2666 322.953 14.4686 320.517 14.4686C318.081 14.4686 316.149 15.2666 314.721 16.8626C313.293 18.4306 312.579 20.5866 312.579 23.3306Z" fill="white"/>
<path d="M288.158 17.4086L287.57 12.8726H289.376L290.132 16.8206C290.832 15.4486 291.798 14.4126 293.03 13.7126C294.262 12.9846 295.718 12.6206 297.398 12.6206C300.226 12.6206 302.27 13.4466 303.53 15.0986C304.818 16.7506 305.462 19.2006 305.462 22.4486V33.9146H303.278V22.5746C303.278 19.8306 302.774 17.8006 301.766 16.4846C300.758 15.1406 299.19 14.4686 297.062 14.4686C292.582 14.4686 290.342 17.2966 290.342 22.9526V33.9146H288.158V17.4086Z" fill="white"/>
<path d="M272.374 34.1666C270.246 34.1666 268.384 33.7186 266.788 32.8226C265.192 31.8986 263.96 30.6246 263.092 29.0006C262.224 27.3486 261.79 25.4586 261.79 23.3306C261.79 21.2586 262.224 19.4106 263.092 17.7866C263.96 16.1626 265.192 14.9026 266.788 14.0066C268.384 13.0826 270.246 12.6206 272.374 12.6206C274.502 12.6206 276.364 13.0826 277.96 14.0066C279.556 14.9026 280.788 16.1626 281.656 17.7866C282.524 19.4106 282.958 21.2586 282.958 23.3306C282.958 25.4586 282.524 27.3486 281.656 29.0006C280.788 30.6246 279.556 31.8986 277.96 32.8226C276.364 33.7186 274.502 34.1666 272.374 34.1666ZM264.016 23.3306C264.016 26.1306 264.758 28.3286 266.242 29.9246C267.754 31.5206 269.784 32.3186 272.332 32.3186C274.908 32.3186 276.952 31.5206 278.464 29.9246C279.976 28.3286 280.732 26.1306 280.732 23.3306C280.732 20.5866 279.976 18.4306 278.464 16.8626C276.952 15.2666 274.908 14.4686 272.332 14.4686C269.784 14.4686 267.754 15.2666 266.242 16.8626C264.758 18.4306 264.016 20.5866 264.016 23.3306Z" fill="white"/>
<path d="M249.804 34.1666C247.088 34.1666 245.002 33.5506 243.546 32.3186C242.09 31.0586 241.362 29.3226 241.362 27.1106H243.504C243.504 28.9026 244.092 30.2326 245.268 31.1006C246.444 31.9406 247.998 32.3606 249.93 32.3606C251.722 32.3606 253.136 32.0246 254.172 31.3526C255.236 30.6526 255.768 29.6166 255.768 28.2446C255.768 27.2926 255.516 26.5366 255.012 25.9766C254.508 25.3886 253.878 24.9546 253.122 24.6746C252.394 24.3946 251.372 24.0866 250.056 23.7506L249.132 23.4986C247.536 23.0786 246.276 22.6586 245.352 22.2386C244.428 21.7906 243.714 21.2306 243.21 20.5586C242.734 19.8586 242.496 18.9626 242.496 17.8706C242.496 16.1626 243.112 14.8606 244.344 13.9646C245.604 13.0686 247.354 12.6206 249.594 12.6206C252.114 12.6206 253.99 13.1526 255.222 14.2166C256.482 15.2526 257.112 16.6386 257.112 18.3746H255.012C255.012 17.0866 254.508 16.1066 253.5 15.4346C252.52 14.7626 251.204 14.4266 249.552 14.4266C248.152 14.4266 247.004 14.6786 246.108 15.1826C245.212 15.6586 244.764 16.4846 244.764 17.6606C244.764 18.4726 244.96 19.1166 245.352 19.5926C245.772 20.0686 246.29 20.4326 246.906 20.6846C247.55 20.9086 248.516 21.2026 249.804 21.5666C251.652 22.0426 253.108 22.4906 254.172 22.9106C255.236 23.3026 256.132 23.9186 256.86 24.7586C257.616 25.5986 257.994 26.7046 257.994 28.0766C257.994 29.8966 257.308 31.3666 255.936 32.4866C254.564 33.6066 252.52 34.1666 249.804 34.1666Z" fill="white"/>
<path d="M229.3 17.4086L229.006 14.8466L228.712 12.8726H230.476L231.232 16.2746C231.736 15.0426 232.506 14.1466 233.542 13.5866C234.606 12.9986 236.02 12.7046 237.784 12.7046H239.17V14.9306H237.742C236.062 14.9306 234.774 15.1546 233.878 15.6026C232.982 16.0506 232.352 16.8066 231.988 17.8706C231.624 18.9346 231.442 20.4466 231.442 22.4066V33.9146H229.3V17.4086Z" fill="white"/>
<path d="M214.254 34.1666C212.126 34.1666 210.264 33.7186 208.668 32.8226C207.072 31.8986 205.84 30.6246 204.972 29.0006C204.132 27.3486 203.712 25.4726 203.712 23.3726C203.712 21.2726 204.132 19.4106 204.972 17.7866C205.84 16.1626 207.058 14.9026 208.626 14.0066C210.194 13.0826 212 12.6206 214.044 12.6206C217.152 12.6206 219.602 13.5306 221.394 15.3506C223.214 17.1426 224.166 19.5366 224.25 22.5326V23.2046C224.25 23.4846 224.236 23.7086 224.208 23.8766H205.938C206.05 26.3406 206.834 28.3706 208.29 29.9666C209.774 31.5346 211.762 32.3186 214.254 32.3186C216.186 32.3186 217.824 31.8846 219.168 31.0166C220.54 30.1206 221.45 28.9866 221.898 27.6146H224.082C223.382 29.6586 222.164 31.2686 220.428 32.4446C218.72 33.5926 216.662 34.1666 214.254 34.1666ZM221.94 21.9866C221.856 19.7186 221.1 17.8986 219.672 16.5266C218.272 15.1546 216.382 14.4686 214.002 14.4686C211.706 14.4686 209.858 15.1686 208.458 16.5686C207.086 17.9686 206.274 19.7746 206.022 21.9866H221.94Z" fill="white"/>
<path d="M190.168 34.1666C188.32 34.1666 186.682 33.7886 185.254 33.0326C183.854 32.2486 182.748 31.1426 181.936 29.7146V42.9026H179.794V17.4086L179.206 12.8726H180.97L181.852 17.2826C182.636 15.7706 183.742 14.6226 185.17 13.8386C186.598 13.0266 188.264 12.6206 190.168 12.6206C192.128 12.6206 193.85 13.0826 195.334 14.0066C196.818 14.9026 197.966 16.1626 198.778 17.7866C199.59 19.4106 199.996 21.2866 199.996 23.4146C199.996 25.5146 199.59 27.3766 198.778 29.0006C197.966 30.6246 196.818 31.8986 195.334 32.8226C193.85 33.7186 192.128 34.1666 190.168 34.1666ZM181.936 23.4146C181.936 26.1586 182.65 28.3286 184.078 29.9246C185.506 31.5206 187.438 32.3186 189.874 32.3186C192.282 32.3186 194.2 31.5206 195.628 29.9246C197.056 28.3286 197.77 26.1586 197.77 23.4146C197.77 20.6146 197.056 18.4166 195.628 16.8206C194.2 15.2246 192.282 14.4266 189.874 14.4266C187.438 14.4266 185.506 15.2246 184.078 16.8206C182.65 18.4166 181.936 20.6146 181.936 23.4146Z" fill="white"/>
<path d="M158.939 34.1666C156.811 34.1666 154.949 33.7186 153.353 32.8226C151.757 31.8986 150.525 30.6246 149.657 29.0006C148.789 27.3486 148.355 25.4586 148.355 23.3306C148.355 21.2586 148.789 19.4106 149.657 17.7866C150.525 16.1626 151.757 14.9026 153.353 14.0066C154.949 13.0826 156.811 12.6206 158.939 12.6206C161.067 12.6206 162.929 13.0826 164.525 14.0066C166.121 14.9026 167.353 16.1626 168.221 17.7866C169.089 19.4106 169.523 21.2586 169.523 23.3306C169.523 25.4586 169.089 27.3486 168.221 29.0006C167.353 30.6246 166.121 31.8986 164.525 32.8226C162.929 33.7186 161.067 34.1666 158.939 34.1666ZM150.581 23.3306C150.581 26.1306 151.323 28.3286 152.807 29.9246C154.319 31.5206 156.349 32.3186 158.897 32.3186C161.473 32.3186 163.517 31.5206 165.029 29.9246C166.541 28.3286 167.297 26.1306 167.297 23.3306C167.297 20.5866 166.541 18.4306 165.029 16.8626C163.517 15.2666 161.473 14.4686 158.897 14.4686C156.349 14.4686 154.319 15.2666 152.807 16.8626C151.323 18.4306 150.581 20.5866 150.581 23.3306Z" fill="white"/>
<path d="M128.426 40.4666H133.886C136.714 40.4666 138.8 39.7246 140.144 38.2406C141.488 36.7846 142.16 34.5726 142.16 31.6046V28.5386C141.348 30.0786 140.214 31.2686 138.758 32.1086C137.302 32.9206 135.608 33.3266 133.676 33.3266C131.716 33.3266 129.994 32.8786 128.51 31.9826C127.026 31.0866 125.878 29.8546 125.066 28.2866C124.254 26.6906 123.848 24.8986 123.848 22.9106C123.848 20.9506 124.254 19.2006 125.066 17.6606C125.878 16.0926 127.026 14.8606 128.51 13.9646C129.994 13.0686 131.716 12.6206 133.676 12.6206C135.664 12.6206 137.386 13.0406 138.842 13.8806C140.298 14.6926 141.432 15.8826 142.244 17.4506L142.748 12.8726H144.344V31.0586C144.344 34.8666 143.462 37.6946 141.698 39.5426C139.962 41.3906 137.33 42.3146 133.802 42.3146H128.426V40.4666ZM126.074 22.9106C126.074 25.5146 126.788 27.6006 128.216 29.1686C129.672 30.7086 131.604 31.4786 134.012 31.4786C136.42 31.4786 138.338 30.7086 139.766 29.1686C141.194 27.6006 141.908 25.5146 141.908 22.9106C141.908 20.3346 141.194 18.2906 139.766 16.7786C138.338 15.2386 136.42 14.4686 134.012 14.4686C131.604 14.4686 129.672 15.2386 128.216 16.7786C126.788 18.2906 126.074 20.3346 126.074 22.9106Z" fill="white"/>
<path d="M67.6877 23.2398C67.6877 29.7242 64.443 34.1562 58.6747 34.1562C55.2498 34.1562 52.6661 32.55 51.3442 29.4565L50.563 33.7993H45.7561V29.3375V5.18457H51.5244V16.7554C52.9365 13.9594 55.4 12.4721 58.7048 12.4721C64.443 12.4424 67.6877 16.8744 67.6877 23.2398ZM61.8894 23.2398C61.8894 19.4324 59.9666 17.2016 56.6618 17.2016C53.4171 17.2016 51.4944 19.4324 51.4944 23.2398C51.4944 27.1662 53.4171 29.397 56.6618 29.397C59.9666 29.397 61.8894 27.1662 61.8894 23.2398Z" fill="white"/>
<path d="M83.0398 33.7696V12.8291H88.8081V33.7696H83.0398Z" fill="white"/>
<path d="M114.645 23.3288C114.645 29.7239 111.401 34.156 105.632 34.156C102.327 34.156 99.8639 32.6687 98.4519 29.8727V40.9378H92.6836V17.3203V12.8585H97.4905L98.2717 17.2013C99.6536 14.1078 102.207 12.5016 105.602 12.5016C111.401 12.4421 114.645 16.8741 114.645 23.3288ZM108.847 23.3288C108.847 19.4322 106.924 17.2013 103.619 17.2013C100.375 17.2013 98.4519 19.4322 98.4519 23.3288C98.4519 27.1659 100.375 29.3968 103.619 29.3968C106.924 29.3968 108.847 27.1659 108.847 23.3288Z" fill="white"/>
<path d="M89.2586 9.79486C89.4689 9.34868 89.5891 8.84302 89.5891 8.30761C89.5891 6.31469 87.9367 4.67871 85.9238 4.67871C83.9109 4.67871 82.2585 6.31469 82.2585 8.30761C82.2585 8.84302 82.3787 9.34868 82.589 9.79486H89.2586Z" fill="white"/>
<path d="M75.3787 28.8021H80.5461V33.7696H77.5117C72.0138 33.7696 69.6404 31.3305 69.6404 24.846V5.18457H75.4087V24.9948V28.8021H75.3787Z" fill="white"/>
<path d="M19.1075 0.752441C6.66961 0.752441 0 5.39267 0 17.4989C0 28.2964 5.6181 36.5952 19.1075 36.5952C19.438 36.5952 20.099 36.5952 20.099 36.5952C20.099 38.1717 20.099 40.1944 20.099 41.9196C20.099 42.336 20.4595 42.7524 20.9702 42.7524C21.3908 42.7524 21.481 42.6037 21.8114 42.3063C24.1849 40.2836 31.215 33.9777 31.215 33.9777C34.7 30.676 38.2151 26.7496 38.2151 17.4989C38.2151 5.39267 31.5455 0.752441 19.1075 0.752441Z" fill="#0096FA"/>
</svg>
