<svg width="200" height="200" viewBox="0 0 200 200" fill="none" xmlns="http://www.w3.org/2000/svg">
<g clip-path="url(#clip0_15569_121708)">
<path fill-rule="evenodd" clip-rule="evenodd" d="M136.597 51.193V25.3685C137.009 25.3246 137.43 25.272 137.842 25.1842C143.851 23.886 147.684 17.886 146.421 11.772C145.158 5.6667 139.254 1.75442 133.263 3.04389C128.377 4.08775 124.93 8.26319 124.491 13.0702H75.5C75.4562 12.6404 75.4035 12.2106 75.3158 11.772C74.0527 5.6667 68.1579 1.75442 62.1579 3.04389C56.1579 4.33337 52.3158 10.3334 53.579 16.4386C54.6053 21.4035 58.6842 24.9211 63.4035 25.3685V51.193C62.9913 51.2369 62.579 51.2895 62.1579 51.386C56.1579 52.6755 52.3158 58.6755 53.579 64.7807C54.8421 70.8948 60.7281 74.7983 66.7369 73.5176C67.1755 73.4211 67.5965 73.2983 68 73.1579L90.8158 121.105C87.8158 125.614 88.3421 131.781 92.3509 135.649C96.7983 139.939 103.833 139.754 108.053 135.228C111.719 131.307 112.061 125.395 109.184 121.097L132 73.1492C133.825 73.7807 135.825 73.9474 137.842 73.5176C143.851 72.2193 147.684 66.2193 146.421 60.1053C145.404 55.1579 141.316 51.6492 136.597 51.193ZM126.991 55.2632L109.772 43.6316C111.509 40.3246 111.544 36.2983 109.772 32.9386L126.991 21.3071C128.851 23.5965 131.553 25.079 134.509 25.3685V51.193C134.097 51.2369 133.675 51.2895 133.263 51.386C130.702 51.9386 128.535 53.3509 126.991 55.2632ZM124.491 61.4123H101.035V49.5439C103.272 49.3334 105.465 48.4386 107.29 46.8246C107.79 46.386 108.228 45.8948 108.632 45.3948L125.833 57.0088C125.105 58.3509 124.64 59.8421 124.491 61.4123ZM75.5 61.4123C75.4562 60.9825 75.4035 60.5527 75.3158 60.1141C75.0878 58.9913 74.693 57.9474 74.1755 56.9913L91.3685 45.3772C91.4562 45.4913 91.5351 45.6053 91.6316 45.7193C93.579 47.9913 96.2281 49.272 98.965 49.5351V61.4123H75.5ZM124.693 16.4386C124.93 17.5702 125.316 18.6228 125.842 19.579L108.64 31.193C108.553 31.079 108.474 30.9649 108.377 30.8509C104.342 26.1404 97.3334 25.6579 92.7106 29.7544C92.2106 30.2018 91.772 30.6842 91.3685 31.193L74.1579 19.579C74.8948 18.2281 75.3685 16.7281 75.5088 15.1579H124.509C124.544 15.579 124.597 16.0088 124.693 16.4386ZM66.7281 25.1842C69.2895 24.6316 71.4474 23.2193 72.9913 21.3158L90.2193 32.9562C88.4825 36.2632 88.4474 40.2895 90.2106 43.6492L73.0088 55.2632C71.1492 52.9649 68.4386 51.4737 65.4913 51.193V25.3685C65.9036 25.3246 66.3158 25.272 66.7281 25.1842ZM75.5 63.5H98.9562V74.8246C96.3772 75.0702 93.8685 76.2193 91.9474 78.2807C91.6316 78.6228 91.3421 78.9825 91.0702 79.3597L74.1579 67.9211C74.886 66.579 75.3597 65.079 75.5 63.5ZM107.64 77.8772C105.772 76.0614 103.439 75.0527 101.044 74.8246V63.5H124.5C124.535 63.9299 124.597 64.3597 124.684 64.7895C124.912 65.8772 125.281 66.886 125.772 67.8158L108.833 79.2544C108.474 78.772 108.088 78.3071 107.64 77.8772ZM73 69.6579L90.0088 81.1492C87.9562 85.465 88.7544 90.8071 92.3509 94.2807C94.2281 96.0878 96.5614 97.0878 98.9562 97.3158V116.202C96.4562 116.439 94.0264 117.535 92.1316 119.482L69.7193 72.4035C70.9913 71.7018 72.0965 70.7632 73 69.6579ZM107.868 119.5C107.79 119.421 107.719 119.333 107.64 119.254C105.772 117.439 103.439 116.43 101.044 116.202V97.3158C103.623 97.0702 106.132 95.9211 108.053 93.8597C111.36 90.3158 111.956 85.1667 109.93 81.0351L126.921 69.5614C127.851 70.7281 128.991 71.693 130.281 72.4035L107.868 119.5Z" fill="white"/>
<path d="M90.0175 170.649H84.728V196.579H90.0175V170.649Z" fill="white"/>
<path d="M57.3246 170.64H52.0439V196.561H57.3246V170.64Z" fill="white"/>
<path fill-rule="evenodd" clip-rule="evenodd" d="M67.0877 170.64H61.8772V196.588H80.4474V191.904H67.0877V170.64Z" fill="white"/>
<path fill-rule="evenodd" clip-rule="evenodd" d="M25.3333 175.36H33.7456V196.605H39.1052V175.325H47.4912V170.649H25.3333V175.36Z" fill="white"/>
<path fill-rule="evenodd" clip-rule="evenodd" d="M17.6316 182.614C16.4298 182.061 15.1404 181.711 13.8772 181.307C12.2281 180.763 10.5439 180.342 8.93861 179.684C8.35967 179.447 7.79826 178.763 7.57897 178.14C7.17546 177.044 7.87721 175.904 9.11405 175.377C10.7105 174.693 12.4035 174.597 14.0965 174.816C16.1141 175.079 18.1141 175.474 20.2281 175.833C20.4035 174.614 20.6141 173.263 20.7632 171.904C20.7807 171.754 20.4562 171.447 20.2456 171.395C18.5088 170.991 16.7807 170.491 15.0176 170.281C12.4123 169.974 9.79826 170.044 7.28949 170.991C4.23686 172.149 2.44739 174.632 2.37721 177.842C2.30704 181.044 4.00002 183.07 6.76318 184.228C8.31581 184.877 9.95616 185.272 11.5526 185.825C12.9035 186.29 14.2895 186.675 15.5526 187.325C16.9562 188.044 17.1491 189.64 16.193 190.921C15.5176 191.833 14.5351 192.219 13.4912 192.395C10.0526 192.956 6.78949 192.263 3.65791 190.798C3.42107 190.693 3.17546 190.588 2.88598 190.465C2.64914 192.044 2.43861 193.5 2.22809 194.974C2.29826 195.026 2.35967 195.079 2.42107 195.114C6.74563 197.175 11.2369 197.728 15.8509 196.456C18.386 195.763 20.3772 194.272 21.3158 191.658C22.7105 187.754 21.3334 184.325 17.6316 182.614Z" fill="white"/>
<path fill-rule="evenodd" clip-rule="evenodd" d="M145.079 182.912H140.465V183.79C140.465 186.211 140.43 188.64 140.482 191.061C140.5 191.746 140.246 191.965 139.667 192.079C137.605 192.474 135.544 192.544 133.474 192.228C130.842 191.825 129.035 190.263 128.474 187.719C127.877 185.026 127.851 182.298 128.465 179.597C128.982 177.333 130.36 175.807 132.588 175.228C133.693 174.939 134.851 174.807 136 174.754C138.728 174.623 141.386 175.105 144.044 175.983C144.219 174.588 144.377 173.298 144.544 172.009C144.605 171.579 144.5 171.369 144.053 171.237C139.772 169.939 135.447 169.684 131.096 170.702C127.202 171.614 124.447 173.947 123.228 177.904C122.184 181.325 122.167 184.833 122.921 188.316C123.544 191.202 124.974 193.57 127.518 195.123C129.395 196.263 131.456 196.781 133.623 196.983C137.289 197.333 140.868 197.035 144.377 195.868C144.93 195.684 145.114 195.412 145.105 194.816C145.079 191.114 145.096 187.412 145.088 183.711C145.105 183.456 145.088 183.211 145.079 182.912Z" fill="white"/>
<path fill-rule="evenodd" clip-rule="evenodd" d="M173.307 170.64H168.018V171.684C168 176.895 168.026 182.114 167.956 187.325C167.921 189.868 166.491 191.623 164.026 192.079C162.667 192.333 161.228 192.36 159.842 192.246C156.851 191.991 155.079 190.061 155.044 187.018C154.982 181.886 155.009 176.746 155 171.614V170.649H149.675C149.675 171.193 149.675 171.684 149.675 172.175C149.719 177.57 149.605 182.974 149.868 188.351C150.044 192.061 152.009 194.833 155.544 196.149C159.237 197.518 163.026 197.509 166.772 196.421C169.868 195.526 171.991 193.465 172.763 190.237C173.105 188.807 173.254 187.316 173.272 185.842C173.333 181.079 173.298 176.307 173.298 171.535V170.64H173.307Z" fill="white"/>
<path fill-rule="evenodd" clip-rule="evenodd" d="M183.149 192.044V185.228H195.035V181.123H183.167V175.176H197.149V170.658H177.877V196.597H197.781V192.044H183.149Z" fill="white"/>
<path fill-rule="evenodd" clip-rule="evenodd" d="M113.211 188.044C112.956 187.772 112.781 187.597 112.623 187.395C108.289 182.026 103.939 176.658 99.6228 171.272C99.2281 170.781 98.8421 170.544 98.2105 170.57C96.9912 170.614 95.7807 170.588 94.5702 170.588V196.562H99.2895V178.518C99.4386 178.623 99.4825 178.649 99.5176 178.684C104.342 184.535 109.149 190.377 113.974 196.228C114.105 196.395 114.316 196.605 114.491 196.614C115.605 196.649 116.728 196.632 117.842 196.632V170.658H113.193V188.044H113.211Z" fill="white"/>
</g>
<defs>
<clipPath id="clip0_15569_121708">
<rect width="200" height="200" fill="white"/>
</clipPath>
</defs>
</svg>
