<svg width="100" height="113" viewBox="0 0 100 113" fill="none" xmlns="http://www.w3.org/2000/svg">
<path fill-rule="evenodd" clip-rule="evenodd" d="M45.4711 3.9C50.0711 0.999998 56.871 0 63.371 0C67.671 0 71.9711 0.399999 75.4711 1.3C83.871 3 89.771 8.5 91.4711 16.9C93.1711 25.6 92.3711 36.1 87.1711 43.6C85.1598 46.4158 82.4364 48.908 79.7823 51.337C79.1374 51.9271 78.4966 52.5136 77.871 53.1C74.571 56.2 71.0711 59.2 67.6711 62.1C67.4711 62.3 67.271 62.4 66.9711 62.4H66.871C66.171 62.4 65.5711 61.8 65.5711 61.1V53.9C65.5711 53.5 65.271 53.3 64.9711 53.3C58.0711 53.3 48.171 51 43.271 46C38.171 40.7 36.2711 33 36.0711 25.8C35.8711 17.5 37.9711 8.5 45.4711 3.9ZM28.1711 39.3H24.971L20.971 43.7V35H17.971V45.7C17.971 45.3 17.871 45 17.771 44.7001L17.771 44.7C17.271 43.1 15.671 42.2 13.271 42.2C10.471 42.2 8.47103 43.5 8.27103 45.6H10.971C11.171 44.9 11.971 44.6 12.971 44.6C14.171 44.6 14.871 45.1 14.871 46.1V47L12.1711 47.2C9.37105 47.4 7.77103 48.6 7.77103 50.6C7.77103 52.7 9.27104 54 11.471 54H12.771C14.571 53.8 15.871 52.8 16.471 52.2L17.771 50.8L20.771 47.5L21.1711 47.1L24.571 50.7H28.271L22.971 45.1L28.1711 39.3ZM15.071 49.7C15.071 50.8 14.0711 51.7 12.6711 51.7C11.6711 51.7 10.871 51.2 10.871 50.3C10.871 49.5 11.471 49 12.771 48.9L15.071 48.8V49.7ZM36.471 44.8V45.7H28.971V45.8C29.071 47.4 29.971 48.4 31.471 48.4C32.571 48.4 33.3711 48 33.6711 47.3H36.371C35.871 49.3 34.271 50.6 31.571 50.6C28.271 50.6 26.1711 48.5 26.1711 45C26.1711 41.5 28.171 39.3 31.371 39.3C34.571 39.3 36.471 41.4 36.471 44.8ZM33.771 43.8C33.671 42.4 32.771 41.5 31.471 41.5C30.071 41.5 29.1711 42.4 29.1711 43.8H33.771ZM5.27103 40.6L2.57104 43.5L0.571045 45.6H2.37103V50.8C2.37103 53 3.47105 53.9 6.17105 53.9C6.5013 53.9 6.80126 53.8697 7.07092 53.8424H7.07097H7.07101H7.07105C7.29125 53.8202 7.49126 53.8 7.67105 53.8V51.7H6.77103C5.77103 51.7 5.27103 51.2 5.27103 50.3V45.7H7.57104V43.4H5.27103V40.6ZM12.271 57.1H3.07104C2.67104 57.1 2.27103 57.4 2.27103 57.8V100.1C2.27103 100.5 2.57104 100.8 2.97104 100.8H11.6711C11.9711 100.8 12.271 100.5 12.371 100.2L12.971 97.6C15.171 100.2 18.371 101.5 22.471 101.5C30.471 101.5 36.471 96.4 36.471 85.1C36.471 73.8 30.471 68.6 22.471 68.6C18.471 68.6 15.271 69.9 12.971 72.5V57.8C12.971 57.4 12.671 57.1 12.271 57.1ZM13.071 88.6C12.971 88.4 12.971 88.1 12.971 87.9V82.5C12.971 82.2 12.971 82 13.071 81.7C14.071 78.4 16.271 77 19.071 77C22.871 77 25.471 79.3 25.471 85.2C25.471 91 22.771 93.4 19.071 93.4C16.071 93.4 13.871 91.9 13.071 88.6ZM65.571 70V112.3C65.571 112.7 65.971 113 66.371 113H75.571C75.971 113 76.271 112.7 76.271 112.3V97.6C78.471 100.2 81.771 101.5 85.771 101.5C93.871 101.5 99.771 96.3 99.771 85C99.771 73.7 93.771 68.6 85.771 68.6C81.771 68.6 78.571 69.9 76.271 72.5L75.6711 69.9C75.5711 69.5 75.271 69.3 74.971 69.3H66.271C65.871 69.3 65.571 69.6 65.571 70ZM76.371 88.5C76.271 88.2 76.271 88 76.271 87.7V82.3C76.271 82.1 76.271 81.8 76.371 81.6C77.171 78.2 79.371 76.8 82.371 76.8C86.171 76.8 88.771 79.2 88.771 85C88.771 90.8 86.071 93.2 82.371 93.2C79.571 93.2 77.371 91.8 76.371 88.5ZM39.0711 57.1H48.271C48.671 57.1 48.971 57.4 48.971 57.8V100.1C48.971 100.5 48.671 100.8 48.271 100.8H39.0711C38.6711 100.8 38.371 100.5 38.371 100.1V57.8C38.271 57.4 38.6711 57.1 39.0711 57.1ZM51.971 57.9V64.5C51.971 64.9 52.271 65.2 52.6711 65.2H61.871C62.271 65.2 62.571 64.9 62.571 64.5V57.9C62.571 57.5 62.271 57.2 61.871 57.2H52.6711C52.271 57.2 51.971 57.5 51.971 57.9ZM61.871 69.2H52.6711C52.271 69.2 51.971 69.6 51.971 69.9V100.1C51.971 100.5 52.271 100.8 52.6711 100.8H61.871C62.271 100.8 62.571 100.5 62.571 100.1V69.9C62.571 69.5 62.271 69.2 61.871 69.2Z" fill="white"/>
</svg>
