<svg width="100" height="113" viewBox="0 0 100 113" fill="none" xmlns="http://www.w3.org/2000/svg">
<path fill-rule="evenodd" clip-rule="evenodd" d="M25.0355 39.3H28.2355L23.0355 45.1L28.3354 50.7H24.6355L21.2355 47.1L20.8354 47.5L17.8354 50.8L16.5355 52.2C15.9355 52.8 14.6354 53.8 12.8354 54H11.5355C9.33546 54 7.83545 52.7 7.83545 50.6C7.83545 48.6 9.43547 47.4 12.2355 47.2L14.9355 47V46.1C14.9355 45.1 14.2355 44.6 13.0355 44.6C12.0355 44.6 11.2355 44.9 11.0355 45.6H8.33545C8.53545 43.5 10.5354 42.2 13.3354 42.2C15.7354 42.2 17.3354 43.1 17.8354 44.7L17.8355 44.7001C17.9355 45 18.0355 45.3 18.0355 45.7V35H21.0355V43.7L25.0355 39.3ZM12.7355 51.7C14.1355 51.7 15.1355 50.8 15.1355 49.7V48.8L12.8354 48.9C11.5354 49 10.9355 49.5 10.9355 50.3C10.9355 51.2 11.7355 51.7 12.7355 51.7ZM36.6355 45.7V44.8C36.6355 41.4 34.7355 39.3 31.5355 39.3C28.3355 39.3 26.3354 41.5 26.3354 45C26.3354 48.5 28.4355 50.6 31.7355 50.6C34.4355 50.6 36.0355 49.3 36.5355 47.3H33.8354C33.5354 48 32.7355 48.4 31.6355 48.4C30.1355 48.4 29.2355 47.4 29.1355 45.8V45.7H36.6355ZM31.5355 41.5C32.8355 41.5 33.7355 42.4 33.8354 43.8H29.2355C29.2355 42.4 30.2355 41.5 31.5355 41.5ZM5.33545 40.7036L5.43549 40.6H5.33545V40.7036ZM5.33545 40.7036L2.6355 43.5L0.635498 45.6H2.43549V50.8C2.43549 53 3.53547 53.9 6.23547 53.9C6.56578 53.9 6.86578 53.8697 7.13547 53.8424L7.13555 53.8424C7.35572 53.8202 7.5557 53.8 7.73547 53.8V51.7H6.83545C5.83545 51.7 5.33545 51.2 5.33545 50.3V45.7H7.6355V43.4H5.33545V40.7036ZM2.33545 57.8C2.43545 57.4 2.7355 57.1 3.1355 57.1H12.3354C12.7354 57.1 13.0355 57.4 13.0355 57.8V72.5C15.3355 69.9 18.5355 68.6 22.5355 68.6C30.5355 68.6 36.5355 73.8 36.5355 85.1C36.5355 96.4 30.5355 101.5 22.5355 101.5C18.4355 101.5 15.2355 100.2 13.0355 97.6L12.4355 100.2C12.3355 100.5 12.0355 100.8 11.7355 100.8H3.03546C2.63546 100.8 2.33545 100.5 2.33545 100.1V57.8ZM13.1355 87.9V87.9002C13.1355 88.1001 13.1355 88.4 13.2355 88.6C14.0355 91.9 16.2355 93.4 19.2355 93.4C22.9355 93.4 25.6355 91 25.6355 85.2C25.6355 79.3 23.0355 77 19.2355 77C16.4355 77 14.2355 78.4 13.2355 81.7C13.1355 81.9999 13.1355 82.1999 13.1355 82.4998V82.5V87.9ZM65.7355 112.3V70C65.7355 69.6 66.0355 69.3 66.4355 69.3H75.1355C75.4355 69.3 75.7355 69.5 75.8354 69.9L76.4355 72.5C78.7355 69.9 81.9355 68.6 85.9355 68.6C93.9355 68.6 99.9355 73.7 99.9355 85C99.9355 96.3 94.0355 101.5 85.9355 101.5C81.9355 101.5 78.6355 100.2 76.4355 97.6V112.3C76.4355 112.7 76.1355 113 75.7355 113H66.5355C66.0355 113 65.7355 112.7 65.7355 112.3ZM76.4355 87.7V87.7002C76.4355 88.0001 76.4355 88.2001 76.5355 88.5C77.5355 91.8 79.7355 93.2 82.5355 93.2C86.2355 93.2 88.9355 90.8 88.9355 85C88.9355 79.2 86.3355 76.8 82.5355 76.8C79.5355 76.8 77.3355 78.2 76.5355 81.6C76.4355 81.8 76.4355 82.0999 76.4355 82.2999V82.3V87.7ZM48.3354 57.1H39.1355C38.7355 57.1 38.4355 57.4 38.4355 57.8V100.1C38.4355 100.5 38.7355 100.8 39.1355 100.8H48.3354C48.7355 100.8 49.0355 100.5 49.0355 100.1V57.8C49.0355 57.4 48.7355 57.1 48.3354 57.1ZM52.0355 64.5V57.9C52.0355 57.5 52.3355 57.2 52.7355 57.2H61.9355C62.3355 57.2 62.6355 57.5 62.6355 57.9V64.5C62.6355 64.9 62.3355 65.2 61.9355 65.2H52.7355C52.4355 65.2 52.0355 64.9 52.0355 64.5ZM52.8354 69.2H62.0355C62.4355 69.2 62.7355 69.5 62.7355 69.9V100.1C62.7355 100.5 62.4355 100.8 62.0355 100.8H52.8354C52.4354 100.8 52.1355 100.5 52.1355 100.1V69.9C52.0355 69.6 52.4354 69.2 52.8354 69.2Z" fill="black"/>
<path d="M63.4353 0C56.9353 0 50.1353 0.999998 45.5353 3.9C38.0353 8.5 35.9354 17.5 36.1354 25.8C36.3354 33 38.2353 40.7 43.3353 46C48.2353 51 58.1353 53.3 65.0353 53.3C65.3353 53.3 65.6354 53.5 65.6354 53.9V61.1C65.6354 61.8 66.2353 62.4 66.9353 62.4H67.0353C67.3353 62.4 67.5353 62.3 67.7353 62.1C71.1353 59.2 74.6353 56.2 77.9353 53.1C81.1353 50.1 84.7353 47.1 87.2353 43.6C92.4353 36.1 93.2353 25.6 91.5353 16.9C89.8353 8.5 83.9353 3 75.5353 1.3C72.0353 0.399999 67.8353 0 63.4353 0Z" fill="#00C6D7"/>
</svg>
