<svg width="180" height="89" viewBox="0 0 180 89" fill="none" xmlns="http://www.w3.org/2000/svg">
<path fill-rule="evenodd" clip-rule="evenodd" d="M113.071 6.15H117.471L110.571 14.05L117.871 21.65H112.871L108.171 16.75L107.671 17.25L103.571 21.75L101.771 23.65C100.871 24.45 99.0712 25.85 96.6712 26.05H94.8712C91.8712 26.05 89.7712 24.25 89.7712 21.45C89.7712 18.65 91.9712 17.05 95.7712 16.85L99.4712 16.65V15.35C99.4712 14.05 98.5712 13.35 96.8712 13.35C95.3712 13.35 94.3712 13.85 94.0712 14.75H90.3712C90.6712 11.95 93.2712 10.15 97.1712 10.15C100.371 10.15 102.571 11.35 103.271 13.55C103.371 13.8499 103.471 14.3497 103.571 14.8495L103.571 14.85V0.25H107.671V12.15L113.071 6.15ZM96.2712 23.15C98.1712 23.15 99.5712 21.95 99.5712 20.35V19.25L96.4712 19.45C94.7712 19.65 93.8712 20.25 93.8712 21.35C93.8712 22.45 94.8712 23.15 96.2712 23.15ZM128.871 14.75V13.65C128.871 8.95 126.271 6.15 121.971 6.15C117.571 6.15 114.871 9.15 114.871 13.95C114.871 18.75 117.771 21.55 122.271 21.55C125.871 21.55 128.171 19.85 128.771 17.05H125.071C124.671 18.05 123.571 18.55 122.071 18.55C120.071 18.55 118.771 17.15 118.671 14.95V14.75H128.871ZM121.971 9.15C123.771 9.15 124.971 10.35 125.071 12.35H118.771C118.871 10.45 120.071 9.15 121.971 9.15ZM86.1712 8.05527L86.2712 7.95H86.1712V8.05527ZM86.1712 8.05527L82.4712 11.95L79.7712 14.85H82.1712V21.95C82.1712 24.95 83.6712 26.15 87.3712 26.15C88.1712 26.15 88.8712 26.05 89.3712 25.95V23.05C89.1824 23.05 89.0158 23.0723 88.84 23.0958L88.8399 23.0958C88.6433 23.1221 88.4352 23.15 88.1712 23.15C86.7712 23.15 86.1712 22.55 86.1712 21.15V14.85H89.3712V11.65H86.1712V8.05527ZM82.8712 32.75H92.0712C92.4712 32.75 92.7712 33.05 92.7712 33.45V48.15C95.0712 45.55 98.2712 44.25 102.271 44.25C110.271 44.25 116.271 49.45 116.271 60.75C116.271 72.05 110.271 77.15 102.271 77.15C98.1712 77.15 94.9712 75.85 92.7712 73.25L92.1712 75.85C92.0712 76.15 91.7712 76.45 91.4712 76.45H82.7712C82.3712 76.45 82.0712 76.15 82.0712 75.75V33.45C82.1712 33.05 82.4712 32.75 82.8712 32.75ZM92.8712 63.55C92.8712 63.75 92.8712 64.05 92.9712 64.25C93.7712 67.55 95.9712 69.05 98.9712 69.05C102.671 69.05 105.371 66.65 105.371 60.85C105.371 54.95 102.771 52.65 98.9712 52.65C96.1712 52.65 93.9712 54.05 92.9712 57.35C92.8712 57.65 92.8712 57.85 92.8712 58.15V63.55ZM145.471 87.95V45.65C145.471 45.25 145.771 44.95 146.171 44.95H154.771C155.071 44.95 155.371 45.15 155.471 45.55L156.071 48.15C158.371 45.55 161.571 44.25 165.571 44.25C173.571 44.25 179.571 49.35 179.571 60.65C179.571 71.95 173.671 77.15 165.571 77.15C161.571 77.15 158.271 75.85 156.071 73.25V87.95C156.071 88.35 155.771 88.65 155.371 88.65H146.171C145.771 88.65 145.471 88.35 145.471 87.95ZM156.171 63.35C156.171 63.65 156.171 63.85 156.271 64.15C157.271 67.45 159.471 68.85 162.271 68.85C165.971 68.85 168.671 66.45 168.671 60.65C168.671 54.85 166.071 52.45 162.271 52.45C159.271 52.45 157.071 53.85 156.271 57.25C156.171 57.45 156.171 57.75 156.171 57.95V63.35ZM128.071 32.75H118.871C118.471 32.75 118.171 33.05 118.171 33.45V75.75C118.171 76.15 118.471 76.45 118.871 76.45H128.071C128.471 76.45 128.771 76.15 128.771 75.75V33.45C128.771 33.05 128.471 32.75 128.071 32.75ZM131.771 40.15V33.55C131.771 33.15 132.071 32.85 132.471 32.85H141.671C142.071 32.85 142.371 33.15 142.371 33.55V40.15C142.371 40.55 142.071 40.85 141.671 40.85H132.471C132.171 40.85 131.771 40.55 131.771 40.15ZM132.571 44.85H141.771C142.171 44.85 142.471 45.15 142.471 45.55V75.75C142.471 76.15 142.171 76.45 141.771 76.45H132.571C132.171 76.45 131.871 76.15 131.871 75.75V45.55C131.771 45.25 132.171 44.85 132.571 44.85Z" fill="black"/>
<path d="M36.9711 6.14999C28.3711 6.14999 19.4711 7.54999 13.3711 11.25C3.47112 17.35 0.571126 29.25 0.971126 40.25C1.27113 49.75 3.77113 59.95 10.5711 66.95C16.9711 73.65 30.1711 76.65 39.2711 76.65C39.6711 76.65 40.0711 76.95 40.0711 77.45V87.05C40.0711 87.95 40.7711 88.75 41.7711 88.75C41.8711 88.75 41.8711 88.75 41.9711 88.75C42.3711 88.75 42.6711 88.55 42.8711 88.35C47.3711 84.45 51.9711 80.45 56.3711 76.45C60.5711 72.55 65.3711 68.55 68.5711 63.85C75.4711 53.95 76.5711 40.05 74.2711 28.45C72.0711 17.35 64.1711 10.05 53.1711 7.74999C48.4711 6.74999 42.7711 6.14999 36.9711 6.14999Z" fill="black"/>
</svg>
