<svg width="24" height="24" viewBox="0 0 24 24" fill="none" xmlns="http://www.w3.org/2000/svg">
<path d="M17.7 17.7H14C15.5 17.2 17 15.8 17 12.4V4.60005C17 4.20005 16.7 3.80005 16.2 3.80005H14.5C14.1 3.80005 13.7 4.10005 13.7 4.60005V12.3C13.7 14.8 12.5 14.8 12 14.8C11.5 14.8 10.3 14.8 10.3 12.3V4.60005C10.3 4.20005 10 3.80005 9.5 3.80005H7.8C7.4 3.90005 7 4.20005 7 4.60005V12.3C7 15.7 8.5 17.1 10 17.6H6.3C5.9 17.6 5.5 17.9 5.5 18.4V19.3C5.5 19.7 5.8 20.1 6.3 20.1H17.6C18 20.1 18.4 19.8 18.4 19.3V18.4C18.4 18 18.1 17.7 17.7 17.7Z" fill="black"/>
</svg>
