<svg width="24" height="24" viewBox="0 0 24 24" fill="none" xmlns="http://www.w3.org/2000/svg">
<path fill-rule="evenodd" clip-rule="evenodd" d="M12.4368 21.936C12.5819 21.9878 12.7361 22.0096 12.8899 22.0001V21.9801C13.122 21.9616 13.3424 21.8707 13.5199 21.7201C14.3399 21.0301 15.4499 20.0301 16.5199 19.0301L16.9999 18.5901C17.8863 17.8405 18.6908 16.9992 19.3999 16.0801C20.9653 13.5442 21.4615 10.4912 20.7799 7.5901C20.5382 6.28163 19.9 5.0791 18.952 4.14539C18.004 3.21168 16.7919 2.59194 15.4799 2.3701C14.2556 2.12128 13.0092 1.99731 11.7599 2.0001C9.8039 1.9302 7.86344 2.37137 6.12991 3.2801C3.99991 4.5901 2.89991 7.1301 2.99991 10.4201C2.95635 12.7831 3.77788 15.0805 5.30991 16.8801C6.75991 18.4001 9.50992 19.1501 11.6799 19.2701V20.8801C11.6823 21.0342 11.716 21.1862 11.7788 21.3269C11.8416 21.4677 11.9323 21.5942 12.0454 21.6989C12.1585 21.8036 12.2916 21.8842 12.4368 21.936ZM6.87991 4.5101C8.39134 3.75632 10.0738 3.41155 11.7599 3.5101C12.9085 3.50762 14.0543 3.62153 15.1799 3.8501C16.1962 4.01085 17.1382 4.48124 17.8774 5.19711C18.6165 5.91297 19.1168 6.83943 19.3099 7.8501C19.9122 10.3514 19.5025 12.9893 18.1699 15.1901C17.5329 16.0154 16.8124 16.7728 16.0199 17.4501L15.5399 17.8901C14.7299 18.6501 13.8999 19.3801 13.1799 20.0001V18.7201C13.1799 18.4708 13.0809 18.2317 12.9046 18.0554C12.7283 17.8791 12.4892 17.7801 12.2399 17.7801C10.3099 17.7801 7.59991 17.1001 6.38991 15.8501C5.10976 14.3143 4.42473 12.3692 4.45991 10.3701C4.40991 8.7901 4.65991 5.9301 6.87991 4.5101ZM12.8398 6.43001C12.6214 6.25472 12.3498 6.15918 12.0698 6.15918C11.7898 6.15918 11.5181 6.25472 11.2998 6.43001C11.1904 6.52306 11.1037 6.63995 11.0465 6.77169C10.9893 6.90344 10.9631 7.04654 10.9698 7.19001L11.3998 11.65C11.4107 11.8298 11.4851 12 11.6098 12.13C11.7334 12.2482 11.8987 12.3129 12.0698 12.31C12.153 12.3112 12.2355 12.2959 12.3128 12.265C12.39 12.2341 12.4604 12.1882 12.5198 12.13C12.6513 12.0036 12.7299 11.8321 12.7398 11.65L13.1498 7.31001V7.17001C13.152 7.03195 13.1256 6.89492 13.0722 6.76756C13.0189 6.6402 12.9397 6.52527 12.8398 6.43001ZM11.2799 13.3899C11.0818 13.5966 10.9739 13.8736 10.9799 14.1599C10.9759 14.3024 11.0006 14.4443 11.0527 14.5771C11.1048 14.7098 11.1832 14.8307 11.2831 14.9325C11.383 15.0343 11.5024 15.1148 11.6341 15.1694C11.7659 15.2239 11.9073 15.2513 12.0499 15.2499C12.1926 15.2499 12.3339 15.2216 12.4655 15.1667C12.5972 15.1118 12.7167 15.0314 12.8172 14.93C12.9176 14.8287 12.9969 14.7084 13.0506 14.5763C13.1043 14.4441 13.1312 14.3025 13.1299 14.1599C13.1364 14.0168 13.1121 13.874 13.0586 13.7412C13.0051 13.6084 12.9237 13.4885 12.8199 13.3899C12.6143 13.1883 12.3378 13.0754 12.0499 13.0754C11.762 13.0754 11.4855 13.1883 11.2799 13.3899Z" fill="black"/>
</svg>
