<svg width="24" height="24" viewBox="0 0 24 24" fill="none" xmlns="http://www.w3.org/2000/svg">
<path fill-rule="evenodd" clip-rule="evenodd" d="M11.5471 21.936C11.6923 21.9878 11.8464 22.0096 12.0002 22.0001C12.2524 21.9762 12.4888 21.8668 12.6702 21.6901C13.4902 21.0101 14.6002 20.0101 15.6702 19.0101L16.1402 18.5601L16.1403 18.56C16.5503 18.1901 16.9602 17.8201 17.3502 17.4201C17.4428 17.3566 17.5199 17.2731 17.5759 17.1758C17.6319 17.0785 17.6654 16.9699 17.6738 16.8579C17.6822 16.746 17.6654 16.6336 17.6246 16.529C17.5838 16.4244 17.52 16.3304 17.438 16.2537C17.356 16.1771 17.2578 16.1198 17.1507 16.0861C17.0436 16.0525 16.9303 16.0433 16.8192 16.0593C16.7081 16.0752 16.602 16.116 16.5087 16.1784C16.4154 16.2408 16.3373 16.3234 16.2802 16.4201C15.9102 16.8001 15.5202 17.1601 15.1302 17.5101L14.6402 17.9601C13.8402 18.7101 13.0002 19.4501 12.2802 20.0701V18.7501C12.2802 18.5025 12.1826 18.2649 12.0085 18.0889C11.8343 17.9129 11.5978 17.8127 11.3502 17.8101C9.41023 17.8101 6.70023 17.1301 5.49023 15.8701C4.20997 14.3382 3.52477 12.3962 3.56023 10.4001C3.52023 8.82008 3.77023 6.00008 6.00023 4.58008C7.52061 3.80784 9.21739 3.44917 10.9202 3.54008C12.0654 3.53827 13.2079 3.65218 14.3302 3.88008C15.5217 4.09391 16.6047 4.7077 17.4002 5.62008C17.5263 5.75604 17.6983 5.84048 17.8829 5.8571C18.0676 5.87372 18.2519 5.82135 18.4002 5.71008C18.5524 5.58171 18.6482 5.39874 18.6669 5.20052C18.6856 5.0023 18.6257 4.80465 18.5002 4.65008C17.4908 3.47146 16.1131 2.66809 14.5902 2.37008C13.3658 2.12227 12.1195 1.99831 10.8702 2.00008C8.89903 1.92977 6.9439 2.37804 5.20023 3.30008C3.07023 4.61008 1.97023 7.14008 2.07023 10.4401C2.04605 12.8068 2.881 15.1021 4.42023 16.9001C5.87023 18.4101 8.63023 19.1701 10.7902 19.2801V20.8801C10.7926 21.0342 10.8263 21.1862 10.8891 21.3269C10.9519 21.4676 11.0426 21.5942 11.1557 21.6989C11.2688 21.8035 11.4019 21.8842 11.5471 21.936ZM22.0701 11.2101C22.0744 11.2666 22.0744 11.3235 22.0701 11.3801C22.0664 11.4581 22.0529 11.5353 22.0301 11.6101C22.0061 11.6666 21.9759 11.7202 21.9401 11.7701C21.9145 11.8052 21.8911 11.842 21.8701 11.8801L19.6501 14.3601C19.4909 14.5376 19.2677 14.6447 19.0296 14.6578C18.7914 14.671 18.5578 14.589 18.3801 14.4301C18.2025 14.2708 18.0954 14.0477 18.0823 13.8095C18.0692 13.5714 18.1511 13.3378 18.3101 13.1601L19.1901 12.1601H12.7301C12.4914 12.1601 12.2625 12.0652 12.0937 11.8964C11.9249 11.7277 11.8301 11.4988 11.8301 11.2601C11.8301 11.0214 11.9249 10.7924 12.0937 10.6237C12.2625 10.4549 12.4914 10.3601 12.7301 10.3601H19.1901L18.3401 9.36005C18.1809 9.18103 18.0995 8.94613 18.1135 8.70702C18.1276 8.46791 18.2361 8.24418 18.4151 8.08505C18.5941 7.92592 18.829 7.84443 19.0681 7.85849C19.3072 7.87256 19.5309 7.98103 19.6901 8.16005L21.9101 10.6101C21.9357 10.6452 21.959 10.682 21.9801 10.7201C22.0137 10.7678 22.0438 10.8179 22.0701 10.8701C22.0749 10.9266 22.0749 10.9835 22.0701 11.0401C22.0756 11.0966 22.0756 11.1535 22.0701 11.2101Z" fill="black"/>
</svg>
