<svg width="24" height="24" viewBox="0 0 24 24" fill="none" xmlns="http://www.w3.org/2000/svg">
<path fill-rule="evenodd" clip-rule="evenodd" d="M12.4368 21.936C12.5819 21.9878 12.7361 22.0096 12.8899 22.0001V21.9801C13.122 21.9616 13.3424 21.8707 13.5199 21.7201L13.6302 21.6225C14.7874 20.5993 15.6959 19.7959 16.5199 19.0301L16.9999 18.5901C17.8863 17.8405 18.6908 16.9992 19.3999 16.0801C20.9653 13.5442 21.4615 10.4912 20.7799 7.5901C20.5382 6.28163 19.9 5.0791 18.952 4.14539C18.004 3.21168 16.7919 2.59194 15.4799 2.3701C14.2556 2.12128 13.0092 1.99731 11.7599 2.0001C9.8039 1.9302 7.86344 2.37137 6.12991 3.2801C3.99991 4.5901 2.89991 7.1301 2.99991 10.4201C2.96004 12.7825 3.78112 15.0787 5.30991 16.8801C6.75991 18.4001 9.50992 19.1501 11.6799 19.2701V20.8801C11.6823 21.0342 11.716 21.1862 11.7788 21.3269C11.8416 21.4677 11.9323 21.5942 12.0454 21.6989C12.1585 21.8036 12.2916 21.8842 12.4368 21.936ZM6.87991 4.5101C8.39134 3.75632 10.0738 3.41155 11.7599 3.5101C12.9085 3.50762 14.0543 3.62153 15.1799 3.8501C16.1962 4.01085 17.1382 4.48124 17.8774 5.19711C18.6165 5.91297 19.1168 6.83943 19.3099 7.8501C19.9122 10.3514 19.5025 12.9893 18.1699 15.1901C17.5329 16.0154 16.8124 16.7728 16.0199 17.4501L15.5399 17.8901C14.8499 18.5301 14.0999 19.2001 13.1799 20.0001V18.7201C13.1813 18.5963 13.1579 18.4735 13.1111 18.3588C13.0643 18.2442 12.9951 18.14 12.9076 18.0524C12.82 17.9649 12.7159 17.8957 12.6012 17.8489C12.4866 17.8022 12.3637 17.7788 12.2399 17.7801C10.3099 17.7801 7.59991 17.1001 6.38991 15.8501C5.10976 14.3143 4.42473 12.3692 4.45991 10.3701C4.40991 8.7901 4.65991 5.9301 6.87991 4.5101ZM15.35 10.25H8C7.80109 10.25 7.61032 10.171 7.46967 10.0303C7.32902 9.88968 7.25 9.69891 7.25 9.5C7.25 9.30109 7.32902 9.11032 7.46967 8.96967C7.61032 8.82902 7.80109 8.75 8 8.75H15.35C15.5489 8.75 15.7397 8.82902 15.8803 8.96967C16.021 9.11032 16.1 9.30109 16.1 9.5C16.1 9.69891 16.021 9.88968 15.8803 10.0303C15.7397 10.171 15.5489 10.25 15.35 10.25ZM14 13.26H8C7.80109 13.26 7.61032 13.181 7.46967 13.0403C7.32902 12.8997 7.25 12.7089 7.25 12.51C7.25 12.3111 7.32902 12.1203 7.46967 11.9797C7.61032 11.839 7.80109 11.76 8 11.76H14C14.1989 11.76 14.3897 11.839 14.5303 11.9797C14.671 12.1203 14.75 12.3111 14.75 12.51C14.75 12.7089 14.671 12.8997 14.5303 13.0403C14.3897 13.181 14.1989 13.26 14 13.26Z" fill="black"/>
</svg>
