<svg width="24" height="24" viewBox="0 0 24 24" fill="none" xmlns="http://www.w3.org/2000/svg">
<path opacity="0.6" fill-rule="evenodd" clip-rule="evenodd" d="M15.7358 17.135C15.8654 17.181 16.003 17.1997 16.1401 17.1901H16.1201C16.3295 17.1752 16.5289 17.0947 16.6901 16.9601C17.3601 16.3801 18.0301 15.7801 18.6901 15.1801L19.0001 14.8901C19.5743 14.3787 20.0937 13.8089 20.5501 13.1901C21.0902 12.3348 21.4565 11.3815 21.6281 10.3846C21.7997 9.38767 21.7732 8.36673 21.5501 7.38008C21.3806 6.46733 20.9348 5.62868 20.2731 4.97763C19.6113 4.32659 18.7655 3.89458 17.8501 3.74008C17.0239 3.57273 16.183 3.48897 15.3401 3.49008C13.993 3.43724 12.6556 3.73714 11.4601 4.36008C10.9277 4.71902 10.4752 5.1841 10.131 5.72617C9.78685 6.26823 9.55842 6.87557 9.46006 7.51008C9.43964 7.60984 9.43975 7.71271 9.46038 7.81243C9.48101 7.91214 9.52173 8.00661 9.58006 8.09008C9.63591 8.17494 9.70957 8.24662 9.79591 8.30016C9.88225 8.35369 9.97921 8.38778 10.0801 8.40008C10.6533 8.47255 11.2069 8.65596 11.7101 8.94008C13.0601 9.78008 13.1801 11.5601 13.1801 12.5601C13.1716 13.1043 13.0943 13.6453 12.9501 14.1701C12.902 14.3622 12.927 14.5653 13.0201 14.7401C13.0689 14.8267 13.1348 14.9024 13.2139 14.9625C13.293 15.0227 13.3836 15.0661 13.4801 15.0901C13.9993 15.2368 14.532 15.3306 15.0701 15.3701V16.1901C15.0697 16.3275 15.0977 16.4635 15.1523 16.5897C15.2069 16.7158 15.2868 16.8293 15.3873 16.9231C15.4877 17.017 15.6063 17.0891 15.7358 17.135Z" fill="black"/>
<path d="M7.92983 20.5001H7.77983C7.60193 20.4747 7.43521 20.3982 7.29983 20.2801C6.59983 19.6901 5.92983 19.1001 5.29983 18.4901L4.99983 18.1901C4.39581 17.6886 3.84915 17.1218 3.36983 16.5001C2.28057 14.7758 1.92086 12.6895 2.36983 10.7001C2.53606 9.78491 2.98058 8.94331 3.64275 8.29009C4.30492 7.63687 5.15249 7.20384 6.06983 7.05007V7.05007C6.90908 6.88003 7.76353 6.79626 8.61983 6.80007C9.96814 6.74608 11.3067 7.04968 12.4998 7.68007C13.9798 8.59007 14.7498 10.3501 14.6798 12.6201C14.6983 14.2449 14.1222 15.8205 13.0598 17.0501C11.9069 18.0458 10.4518 18.6237 8.92983 18.6901V19.5001C8.92983 19.7653 8.82447 20.0196 8.63693 20.2072C8.4494 20.3947 8.19504 20.5001 7.92983 20.5001V20.5001ZM8.61983 8.30007C7.88095 8.29893 7.14385 8.37264 6.41983 8.52007V8.52007C5.78765 8.60938 5.20046 8.89803 4.74364 9.34406C4.28682 9.79008 3.98422 10.3702 3.87983 11.0001C3.51354 12.5839 3.7676 14.2478 4.58983 15.6501C5.00704 16.1791 5.47974 16.6618 5.99983 17.0901L6.31983 17.3801C6.68983 17.7301 7.05983 18.0701 7.44983 18.3801V18.0701C7.44983 17.8393 7.54149 17.618 7.70464 17.4549C7.8678 17.2917 8.08909 17.2001 8.31983 17.2001C9.64807 17.2357 10.9479 16.8119 11.9998 16.0001C12.8064 15.0384 13.2333 13.8148 13.1998 12.5601C13.1998 11.5601 13.0798 9.78007 11.7298 8.94007C10.7671 8.4582 9.69464 8.23751 8.61983 8.30007Z" fill="black"/>
</svg>
