<svg width="500" height="500" viewBox="0 0 500 500" fill="none" xmlns="http://www.w3.org/2000/svg">
<path d="M215 492C326.009 492 416 402.009 416 291C416 179.991 326.009 90 215 90C103.991 90 14 179.991 14 291C14 402.009 103.991 492 215 492Z" fill="#B2DFFD"/>
<path d="M204.431 250.307C201.089 231.968 184.979 218 165.612 218C152.158 218 140.246 224.77 133.133 234.968C129.449 233.511 125.421 232.739 121.222 232.739C108.539 232.739 97.5702 239.852 92 250.221H204.431V250.307Z" fill="url(#paint0_linear_223_32471)"/>
<path d="M396.431 424.307C393.089 405.968 376.979 392 357.612 392C344.158 392 332.246 398.77 325.133 408.968C321.449 407.511 317.421 406.739 313.222 406.739C300.539 406.739 289.57 413.852 284 424.221H396.431V424.307Z" fill="url(#paint1_linear_223_32471)"/>
<path d="M169.365 384.094C163.195 367.041 149.569 355.13 133.801 355.13C124.975 355.13 116.834 358.814 110.321 364.985C100.466 347.417 84.2697 335.934 65.931 335.934C41.5937 335.934 20.9413 356.158 14 384.009H169.365V384.094Z" fill="url(#paint2_linear_223_32471)"/>
<path fill-rule="evenodd" clip-rule="evenodd" d="M351.562 295.331V254H353.947V295.331H351.562Z" fill="black"/>
<path fill-rule="evenodd" clip-rule="evenodd" d="M293.539 295.331V254H295.924V295.331H293.539Z" fill="black"/>
<path d="M289.322 292.607H357.715V332.871C357.715 336.884 356.211 340.732 353.535 343.569C350.858 346.406 347.228 348 343.443 348H303.595C299.809 348 296.179 346.406 293.503 343.569C290.826 340.732 289.322 336.884 289.322 332.871V292.607Z" fill="#F06305"/>
<path d="M326 320.067C312.167 320.067 295.785 324.58 289.322 326.836V303.145H357.438V326.836C352.723 324.58 339.833 320.067 326 320.067Z" fill="#8C3A03"/>
<path d="M356.458 290.96H289.832C286.611 290.96 284 293.728 284 297.142V299.895C284 303.309 286.611 306.077 289.832 306.077H356.458C359.68 306.077 362.291 303.309 362.291 299.895V297.142C362.291 293.728 359.68 290.96 356.458 290.96Z" fill="#F06305"/>
<path d="M320 141.875C320 213.672 320 271.273 320 280C248.203 280 190 221.797 190 150C190 78.203 248.203 20 320 20C320 20 320 70.078 320 141.875Z" fill="#1967F1"/>
<path d="M319.999 141.875C319.999 213.672 319.999 271.273 319.999 280C273.796 280 236.342 221.797 236.342 150C236.342 78.203 273.796 20 319.999 20C319.999 20 319.999 70.078 319.999 141.875Z" fill="#0096FA"/>
<path d="M320 141.875C320 213.672 320 271.273 320 280C391.797 280 450 221.797 450 150C450 78.203 391.797 20 320 20C320 20 320 70.078 320 141.875Z" fill="#0096FA"/>
<path d="M320.001 141.875C320.001 213.672 320.001 271.273 320.001 280C366.204 280 403.658 221.797 403.658 150C403.658 78.203 366.204 20 320.001 20C320.001 20 320.001 70.078 320.001 141.875Z" fill="#1967F1"/>
<defs>
<linearGradient id="paint0_linear_223_32471" x1="118.361" y1="228.515" x2="186.526" y2="255.471" gradientUnits="userSpaceOnUse">
<stop stop-color="#F5F5F5"/>
<stop offset="0.8231" stop-color="#EFEFEF"/>
<stop offset="1" stop-color="#EDEDED"/>
</linearGradient>
<linearGradient id="paint1_linear_223_32471" x1="310.361" y1="402.515" x2="378.526" y2="429.471" gradientUnits="userSpaceOnUse">
<stop stop-color="#F5F5F5"/>
<stop offset="0.8231" stop-color="#EFEFEF"/>
<stop offset="1" stop-color="#EDEDED"/>
</linearGradient>
<linearGradient id="paint2_linear_223_32471" x1="111.981" y1="360.482" x2="27.3397" y2="396.75" gradientUnits="userSpaceOnUse">
<stop stop-color="#F5F5F5"/>
<stop offset="0.8202" stop-color="#EFEFEF"/>
<stop offset="0.9965" stop-color="#EDEDED"/>
</linearGradient>
</defs>
</svg>
