<svg width="503" height="500" viewBox="0 0 503 500" fill="none" xmlns="http://www.w3.org/2000/svg">
<path d="M330.623 80.3841C237.08 55.3192 140.877 111.024 115.749 204.805C90.6201 298.586 146.081 394.93 239.625 419.994C333.168 445.059 429.371 389.354 454.499 295.573C479.628 201.792 424.166 105.449 330.623 80.3841Z" fill="#B2DFFD"/>
<path d="M88.1142 295.12C56.4294 286.63 23.8619 305.433 15.3719 337.117C6.88194 368.802 25.6846 401.372 57.3694 409.861C89.0543 418.351 121.623 399.547 130.113 367.862C138.603 336.177 119.799 303.61 88.1142 295.12Z" fill="#F5F5F5"/>
<g opacity="0.2" filter="url(#filter0_f_223_32119)">
<path d="M486.441 431.041C486.441 437.753 390.067 443.193 271.184 443.193C152.301 443.193 55.9277 437.753 55.9277 431.041C55.9277 424.329 152.301 418.889 271.184 418.889C390.067 418.889 486.441 424.329 486.441 431.041Z" fill="#0A0F1A"/>
</g>
<path d="M425.257 200H100.609C95.3541 200 91.0957 204.26 91.0957 209.518V420.257H434.77V209.518C434.77 204.26 430.512 200 425.257 200Z" fill="#0096FA"/>
<path d="M439.487 434.536H85.4552C76.4784 434.536 69.2031 427.257 69.2031 418.275V412.353H455.739V418.275C455.739 427.257 448.464 434.536 439.487 434.536V434.536Z" fill="#0C4EC0"/>
<path d="M226.952 423.444H298.648C303.618 423.444 307.646 419.422 307.646 414.466V412.353H217.957V414.466C217.957 419.422 221.982 423.444 226.952 423.444V423.444Z" fill="#072F73"/>
<path d="M267.753 207.735C267.753 205.232 265.725 203.203 263.223 203.203C260.721 203.203 258.693 205.232 258.693 207.735C258.693 210.237 260.721 212.267 263.223 212.267C265.725 212.267 267.753 210.237 267.753 207.735Z" fill="#B9CBD3"/>
<path d="M415.004 214.543H109.939C108.289 214.543 106.951 215.881 106.951 217.531V394.354C106.951 396.004 108.289 397.342 109.939 397.342H415.004C416.654 397.342 417.992 396.004 417.992 394.354V217.531C417.992 215.881 416.654 214.543 415.004 214.543Z" fill="#F6F6F6"/>
<path fill-rule="evenodd" clip-rule="evenodd" d="M417.992 386.173L106.951 386.173L106.951 385.727L417.992 385.727L417.992 386.173Z" fill="#F6F6F6"/>
<g filter="url(#filter1_d_223_32119)">
<path d="M106.949 234.108H417.99V250.646H106.949V234.108Z" fill="#F6F6F6"/>
</g>
<path fill-rule="evenodd" clip-rule="evenodd" d="M112.977 243.112C112.977 242.291 113.642 241.625 114.463 241.625H159.541C160.363 241.625 161.028 242.291 161.028 243.112C161.028 243.933 160.363 244.598 159.541 244.598H114.463C113.642 244.598 112.977 243.933 112.977 243.112Z" fill="#F6F6F6"/>
<path fill-rule="evenodd" clip-rule="evenodd" d="M384.667 239.056H365.678C364.94 239.056 364.341 239.655 364.341 240.394V244.343C364.341 245.082 364.94 245.681 365.678 245.681H384.667C385.406 245.681 386.005 245.082 386.005 244.343V240.394C386.005 239.655 385.406 239.056 384.667 239.056ZM365.678 238.61C364.693 238.61 363.895 239.409 363.895 240.394V244.343C363.895 245.328 364.693 246.127 365.678 246.127H384.667C385.652 246.127 386.451 245.328 386.451 244.343V240.394C386.451 239.409 385.652 238.61 384.667 238.61H365.678Z" fill="#0096FA"/>
<path d="M389.424 240.394C389.424 239.409 390.223 238.61 391.208 238.61H410.196C411.181 238.61 411.98 239.409 411.98 240.394V244.343C411.98 245.328 411.181 246.127 410.196 246.127H391.208C390.223 246.127 389.424 245.328 389.424 244.343V240.394Z" fill="#0096FA"/>
<path d="M359.709 244.642L358.729 243.662C359.136 243.196 359.348 242.592 359.324 241.974C359.299 241.356 359.038 240.771 358.595 240.339C358.152 239.908 357.561 239.662 356.943 239.654C356.324 239.645 355.726 239.874 355.271 240.293C354.817 240.712 354.54 241.29 354.498 241.907C354.456 242.524 354.652 243.134 355.045 243.611C355.439 244.088 356.001 244.396 356.614 244.471C357.228 244.546 357.847 244.384 358.345 244.016L359.339 245.011C359.363 245.035 359.392 245.055 359.424 245.068C359.455 245.081 359.489 245.088 359.524 245.088C359.558 245.088 359.592 245.081 359.623 245.068C359.655 245.055 359.684 245.035 359.707 245.011C359.756 244.962 359.784 244.896 359.784 244.827C359.784 244.758 359.757 244.692 359.709 244.642V244.642ZM355.013 242.068C355.013 241.692 355.124 241.325 355.333 241.013C355.541 240.701 355.838 240.457 356.185 240.313C356.532 240.17 356.913 240.132 357.282 240.206C357.65 240.279 357.988 240.46 358.253 240.726C358.519 240.991 358.7 241.33 358.773 241.698C358.846 242.067 358.808 242.448 358.664 242.795C358.52 243.142 358.277 243.439 357.965 243.647C357.652 243.856 357.285 243.967 356.91 243.967C356.407 243.966 355.924 243.766 355.569 243.41C355.213 243.054 355.013 242.571 355.012 242.068H355.013Z" fill="#F6F6F6"/>
<path d="M106.949 217.531C106.949 215.881 108.287 214.543 109.937 214.543H415.002C416.652 214.543 417.99 215.881 417.99 217.531V235.29H106.949V217.531Z" fill="#141414"/>
<path d="M115.244 220.75C115.244 219.617 116.163 218.699 117.296 218.699H170.217C171.35 218.699 172.268 219.617 172.268 220.75V228.058C172.268 229.191 171.35 230.109 170.217 230.109H117.296C116.163 230.109 115.244 229.191 115.244 228.058V220.75Z" fill="#141414"/>
<path d="M165.529 225.229C165.445 225.229 165.362 225.199 165.298 225.144L163.822 223.904C163.787 223.873 163.766 223.83 163.762 223.783C163.759 223.736 163.774 223.69 163.804 223.655C163.834 223.619 163.877 223.596 163.923 223.591C163.969 223.586 164.016 223.6 164.053 223.629L165.529 224.868L167.006 223.631C167.024 223.613 167.045 223.598 167.068 223.589C167.091 223.579 167.116 223.575 167.142 223.576C167.167 223.577 167.192 223.583 167.214 223.594C167.237 223.605 167.257 223.62 167.273 223.64C167.289 223.659 167.301 223.681 167.308 223.705C167.316 223.73 167.317 223.755 167.314 223.78C167.311 223.805 167.302 223.829 167.289 223.85C167.276 223.872 167.258 223.89 167.237 223.904L165.761 225.144C165.696 225.199 165.614 225.229 165.529 225.229V225.229Z" fill="#F6F6F6"/>
<path d="M125.611 224.406C125.611 226.412 123.986 228.037 121.982 228.037C119.978 228.037 118.354 226.412 118.354 224.406C118.354 222.401 119.978 220.776 121.982 220.776C123.986 220.776 125.611 222.401 125.611 224.406Z" fill="#0096FA"/>
<path fill-rule="evenodd" clip-rule="evenodd" d="M128.207 222.854C128.207 222.57 128.437 222.341 128.72 222.341H144.79C145.074 222.341 145.303 222.57 145.303 222.854C145.303 223.137 145.074 223.367 144.79 223.367H128.72C128.437 223.367 128.207 223.137 128.207 222.854Z" fill="#F6F6F6"/>
<path fill-rule="evenodd" clip-rule="evenodd" d="M127.693 226.49C127.693 225.924 128.153 225.464 128.719 225.464H148.418C148.985 225.464 149.444 225.924 149.444 226.49C149.444 227.057 148.985 227.516 148.418 227.516H128.719C128.153 227.516 127.693 227.057 127.693 226.49Z" fill="#F6F6F6"/>
<path fill-rule="evenodd" clip-rule="evenodd" d="M176.426 224.931C176.426 224.365 176.885 223.905 177.452 223.905H186.783C187.349 223.905 187.808 224.365 187.808 224.931C187.808 225.498 187.349 225.957 186.783 225.957H177.452C176.885 225.957 176.426 225.498 176.426 224.931Z" fill="#0096FA"/>
<path fill-rule="evenodd" clip-rule="evenodd" d="M191.572 225.061C191.572 224.495 192.032 224.036 192.598 224.036H204.619C205.185 224.036 205.645 224.495 205.645 225.061C205.645 225.628 205.185 226.087 204.619 226.087H192.598C192.032 226.087 191.572 225.628 191.572 225.061Z" fill="#F6F6F6"/>
<path d="M261.296 223.82C261.175 223.203 260.736 222.772 260.093 222.638C259.806 222.581 259.515 222.553 259.223 222.554C258.839 222.554 258.3 222.604 257.913 222.843C257.265 223.244 257.191 224.04 257.205 224.477C257.218 224.915 257.324 225.53 257.744 225.964C258.091 226.326 258.769 226.498 259.28 226.511V226.96C259.28 226.986 259.284 227.011 259.294 227.035C259.304 227.059 259.318 227.08 259.336 227.098C259.354 227.116 259.376 227.131 259.399 227.141C259.423 227.15 259.448 227.155 259.474 227.155H259.492C259.532 227.152 259.57 227.136 259.6 227.109C259.8 226.941 260.062 226.71 260.317 226.472L260.43 226.368C260.635 226.194 260.819 225.998 260.981 225.784C261.327 225.292 261.445 224.558 261.296 223.82Z" fill="#0096FA"/>
<path fill-rule="evenodd" clip-rule="evenodd" d="M262.582 224.845C262.582 224.43 262.918 224.094 263.333 224.094L268.9 224.094C269.315 224.094 269.652 224.43 269.652 224.845C269.652 225.26 269.315 225.596 268.9 225.596L263.333 225.596C262.918 225.596 262.582 225.26 262.582 224.845Z" fill="#F6F6F6"/>
<path d="M369.164 226.137C369.029 225.974 368.871 225.747 368.851 225.67C368.812 225.524 368.792 224.978 368.789 224.67C368.788 224.269 368.645 223.882 368.386 223.576C368.126 223.27 367.767 223.066 367.372 223V222.931C367.372 222.84 367.335 222.752 367.27 222.687C367.206 222.622 367.118 222.585 367.026 222.585C366.934 222.585 366.846 222.622 366.782 222.687C366.717 222.752 366.68 222.84 366.68 222.931V223C366.286 223.066 365.927 223.27 365.668 223.575C365.409 223.88 365.266 224.268 365.265 224.668C365.265 224.978 365.243 225.524 365.204 225.67C365.184 225.747 365.026 225.974 364.891 226.137C364.865 226.169 364.849 226.207 364.843 226.248C364.838 226.289 364.845 226.33 364.862 226.367C364.88 226.404 364.908 226.435 364.942 226.457C364.977 226.479 365.017 226.491 365.058 226.491H366.337C366.337 226.494 366.337 226.497 366.337 226.5C366.337 226.87 366.628 227.138 367.029 227.138C367.43 227.138 367.72 226.87 367.72 226.5C367.72 226.5 367.72 226.494 367.72 226.491H368.999C369.039 226.491 369.08 226.479 369.114 226.457C369.149 226.436 369.176 226.404 369.194 226.367C369.211 226.33 369.217 226.289 369.212 226.248C369.206 226.207 369.19 226.169 369.164 226.137V226.137ZM367.288 226.5C367.288 226.697 367.072 226.706 367.029 226.706C366.985 226.706 366.769 226.697 366.769 226.5C366.769 226.5 366.769 226.495 366.769 226.492H367.288C367.288 226.492 367.288 226.498 367.288 226.5ZM365.484 226.06C365.543 225.974 365.589 225.88 365.621 225.781C365.684 225.541 365.695 224.817 365.696 224.671C365.697 224.337 365.83 224.016 366.067 223.779C366.303 223.543 366.624 223.41 366.959 223.409H367.096C367.431 223.41 367.752 223.543 367.988 223.78C368.225 224.017 368.358 224.339 368.357 224.674C368.357 224.817 368.37 225.538 368.434 225.781C368.466 225.88 368.512 225.974 368.571 226.06H365.484Z" fill="#F6F6F6"/>
<path d="M380.486 224.927C380.486 226.646 379.094 228.039 377.376 228.039C375.658 228.039 374.266 226.646 374.266 224.927C374.266 223.208 375.658 221.815 377.376 221.815C379.094 221.815 380.486 223.208 380.486 224.927Z" fill="#A85AED"/>
<path d="M408.996 225.229C408.911 225.229 408.829 225.198 408.764 225.144L407.288 223.904C407.254 223.873 407.232 223.829 407.229 223.783C407.226 223.736 407.241 223.69 407.271 223.654C407.301 223.618 407.343 223.596 407.39 223.591C407.436 223.586 407.483 223.599 407.52 223.628L408.996 224.868L410.473 223.63C410.49 223.612 410.512 223.598 410.535 223.588C410.558 223.579 410.583 223.574 410.608 223.575C410.634 223.576 410.658 223.582 410.681 223.593C410.704 223.604 410.724 223.62 410.74 223.639C410.756 223.658 410.768 223.681 410.775 223.705C410.782 223.729 410.784 223.754 410.781 223.779C410.777 223.804 410.769 223.828 410.756 223.85C410.742 223.871 410.725 223.89 410.704 223.904L409.228 225.144C409.163 225.198 409.081 225.229 408.996 225.229V225.229Z" fill="#F6F6F6"/>
<path fill-rule="evenodd" clip-rule="evenodd" d="M382.566 224.932C382.566 224.365 383.026 223.906 383.592 223.906H403.291C403.858 223.906 404.317 224.365 404.317 224.932C404.317 225.498 403.858 225.957 403.291 225.957H383.592C383.026 225.957 382.566 225.498 382.566 224.932Z" fill="#F6F6F6"/>
<g filter="url(#filter2_d_223_32119)">
<path d="M408.973 381.434C408.973 385.586 405.61 388.951 401.46 388.951C397.311 388.951 393.947 385.586 393.947 381.434C393.947 377.283 397.311 373.917 401.46 373.917C405.61 373.917 408.973 377.283 408.973 381.434Z" fill="#0096FA"/>
</g>
<path d="M404.203 379.972L404.203 379.973C404.414 381.016 404.241 382.03 403.779 382.691C403.55 382.993 403.289 383.269 403.001 383.515L403.001 383.515L402.994 383.521L402.826 383.675L402.826 383.675L402.825 383.677C402.45 384.027 402.063 384.366 401.769 384.615L401.769 384.615L401.766 384.617C401.763 384.62 401.759 384.622 401.755 384.623H401.744V384.623L401.742 384.623C401.737 384.623 401.733 384.622 401.728 384.621C401.724 384.619 401.72 384.616 401.717 384.613C401.713 384.61 401.711 384.606 401.709 384.601C401.707 384.597 401.706 384.592 401.706 384.588H401.706V384.584V383.917V383.673L401.462 383.667C401.106 383.658 400.689 383.593 400.302 383.468C399.912 383.341 399.574 383.16 399.356 382.933L399.356 382.932C398.798 382.355 398.645 381.519 398.626 380.891C398.606 380.251 398.723 379.204 399.559 378.686L399.56 378.686C400.07 378.37 400.81 378.294 401.372 378.294L401.373 378.294C401.789 378.293 402.204 378.333 402.612 378.414C403.473 378.593 404.043 379.16 404.203 379.972Z" stroke="#F8FBFB" stroke-width="0.501042"/>
<path opacity="0.3" d="M55.4629 184.894C55.4629 181.14 58.5061 178.097 62.26 178.097H168.897C172.651 178.097 175.695 181.14 175.695 184.894V255.508C175.695 259.262 172.651 262.306 168.897 262.306H62.2601C58.5061 262.306 55.4629 259.262 55.4629 255.508V184.894Z" fill="#B2DFFD"/>
<path opacity="0.3" d="M62.334 193.465C62.334 189.711 65.3772 186.667 69.1311 186.667H175.768C179.522 186.667 182.566 189.711 182.566 193.465V264.079C182.566 267.833 179.522 270.876 175.768 270.876H69.1311C65.3772 270.876 62.334 267.833 62.334 264.079V193.465Z" fill="#B2DFFD"/>
<path d="M50.3105 178.012C50.3105 174.258 53.3537 171.215 57.1077 171.215H163.745C167.499 171.215 170.542 174.258 170.542 178.012V248.626C170.542 252.38 167.499 255.423 163.745 255.423H57.1077C53.3537 255.423 50.3105 252.38 50.3105 248.626V178.012Z" fill="#F8FBFB"/>
<path d="M50.3105 178.012C50.3105 174.258 53.3537 171.215 57.1077 171.215H163.745C167.499 171.215 170.542 174.258 170.542 178.012V190.119H50.3105V178.012Z" fill="#141414"/>
<path d="M65.77 180.675C65.77 182.098 64.6165 183.252 63.1936 183.252C61.7707 183.252 60.6172 182.098 60.6172 180.675C60.6172 179.251 61.7707 178.097 63.1936 178.097C64.6165 178.097 65.77 179.251 65.77 180.675Z" fill="#E60F0F"/>
<path d="M72.6391 180.675C72.6391 182.098 71.4856 183.252 70.0627 183.252C68.6398 183.252 67.4863 182.098 67.4863 180.675C67.4863 179.251 68.6398 178.097 70.0627 178.097C71.4856 178.097 72.6391 179.251 72.6391 180.675Z" fill="#FBCF23"/>
<path d="M79.5102 180.675C79.5102 182.098 78.3567 183.252 76.9338 183.252C75.5109 183.252 74.3574 182.098 74.3574 180.675C74.3574 179.251 75.5109 178.097 76.9338 178.097C78.3567 178.097 79.5102 179.251 79.5102 180.675Z" fill="#84EBBC"/>
<path d="M122.496 344.621C122.496 358.849 110.969 370.383 96.7482 370.383C82.5279 370.383 71 358.849 71 344.621C71 330.393 82.5279 318.858 96.7482 318.858C110.969 318.858 122.496 330.393 122.496 344.621Z" fill="#FBCF23"/>
<path opacity="0.3" fill-rule="evenodd" clip-rule="evenodd" d="M117.837 359.492C113.158 364.314 106.61 367.31 99.3623 367.31C85.142 367.31 73.6141 355.776 73.6141 341.547C73.6141 336.046 75.3376 330.947 78.2739 326.762C73.7719 331.401 71 337.73 71 344.707C71 358.935 82.5279 370.47 96.7482 370.47C105.47 370.47 113.179 366.131 117.837 359.492Z" fill="#F06305"/>
<path d="M97.658 353.814C94.625 353.814 92.0305 352.761 91.2046 351.189C91.123 351.022 91.1085 350.829 91.1642 350.651C91.2199 350.473 91.3416 350.323 91.5043 350.231C91.5891 350.185 91.6822 350.157 91.7782 350.147C91.8743 350.137 91.9713 350.146 92.0637 350.174C92.1561 350.202 92.2421 350.248 92.3167 350.309C92.3912 350.371 92.4529 350.446 92.4982 350.531C92.9659 351.431 94.9392 352.381 97.658 352.381C100.377 352.381 102.474 351.394 102.862 350.436C102.898 350.347 102.952 350.266 103.02 350.197C103.087 350.129 103.168 350.074 103.257 350.037C103.346 349.999 103.441 349.98 103.538 349.98C103.634 349.979 103.73 349.998 103.819 350.034C103.908 350.071 103.989 350.124 104.058 350.192C104.126 350.26 104.181 350.341 104.218 350.43C104.256 350.519 104.275 350.614 104.275 350.711C104.276 350.807 104.257 350.903 104.221 350.992C103.527 352.644 100.83 353.814 97.658 353.814Z" fill="#454545"/>
<path d="M90.0141 344.212C89.7182 344.212 89.4344 344.096 89.2251 343.89C89.0159 343.684 88.8983 343.404 88.8983 343.112C88.8983 342.739 88.7479 342.381 88.4801 342.117C88.2122 341.853 87.849 341.704 87.4702 341.704C87.0914 341.704 86.7282 341.853 86.4603 342.117C86.1925 342.381 86.042 342.739 86.042 343.112C86.042 343.404 85.9245 343.684 85.7152 343.89C85.506 344.096 85.2222 344.212 84.9263 344.212C84.6304 344.212 84.3466 344.096 84.1373 343.89C83.9281 343.684 83.8105 343.404 83.8105 343.112C83.8105 342.155 84.1961 341.238 84.8824 340.561C85.5687 339.884 86.4996 339.504 87.4702 339.504C88.4408 339.504 89.3716 339.884 90.058 340.561C90.7443 341.238 91.1298 342.155 91.1298 343.112C91.1298 343.404 91.0123 343.684 90.803 343.89C90.5938 344.096 90.31 344.212 90.0141 344.212Z" fill="#454545"/>
<path d="M109.881 344.212C109.585 344.212 109.302 344.096 109.092 343.89C108.883 343.684 108.766 343.404 108.766 343.112C108.766 342.739 108.615 342.381 108.347 342.117C108.079 341.853 107.716 341.704 107.337 341.704C106.959 341.704 106.595 341.853 106.328 342.117C106.06 342.381 105.909 342.739 105.909 343.112C105.909 343.404 105.792 343.684 105.582 343.89C105.373 344.096 105.089 344.212 104.793 344.212C104.498 344.212 104.214 344.096 104.005 343.89C103.795 343.684 103.678 343.404 103.678 343.112C103.678 342.155 104.063 341.238 104.75 340.561C105.436 339.884 106.367 339.504 107.337 339.504C108.308 339.504 109.239 339.884 109.925 340.561C110.611 341.238 110.997 342.155 110.997 343.112C110.997 343.404 110.879 343.684 110.67 343.89C110.461 344.096 110.177 344.212 109.881 344.212Z" fill="#454545"/>
<path d="M301.539 133.955C301.539 148.183 290.012 159.717 275.791 159.717C261.571 159.717 250.043 148.183 250.043 133.955C250.043 119.727 261.571 108.192 275.791 108.192C290.012 108.192 301.539 119.727 301.539 133.955Z" fill="#FBCF23"/>
<path opacity="0.3" fill-rule="evenodd" clip-rule="evenodd" d="M296.771 148.978C292.099 153.736 285.595 156.688 278.402 156.688C264.181 156.688 252.653 145.153 252.653 130.925C252.653 125.357 254.419 120.202 257.42 115.989C252.856 120.638 250.041 127.011 250.041 134.042C250.041 148.27 261.569 159.804 275.789 159.804C284.445 159.804 292.103 155.531 296.771 148.978Z" fill="#F06305"/>
<path d="M282.664 139.141H268.975C267.872 139.141 267.471 140.443 268.252 141.233C269.964 142.949 272.281 144.894 275.815 144.894C279.349 144.894 281.665 142.933 283.377 141.233C284.169 140.443 283.768 139.141 282.664 139.141Z" fill="#454545"/>
<path d="M291.982 120.094C287.658 111.852 279.659 117.698 281.061 123.863C282.164 128.704 287.474 135.574 287.474 135.574C288.239 135.304 295.644 132.633 299.172 129.14C303.661 124.678 300.06 115.486 291.982 120.094Z" fill="#E60F0F"/>
<path d="M259.567 120.094C263.897 111.852 271.896 117.698 270.493 123.863C269.384 128.704 264.074 135.574 264.074 135.574C263.309 135.304 255.91 132.633 252.376 129.14C247.868 124.678 251.476 115.486 259.567 120.094Z" fill="#E60F0F"/>
<path d="M455.952 336.249C455.952 350.723 444.225 362.457 429.758 362.457C415.292 362.457 403.564 350.723 403.564 336.249C403.564 321.775 415.292 310.041 429.758 310.041C444.225 310.041 455.952 321.775 455.952 336.249Z" fill="#FBCF23"/>
<path opacity="0.3" fill-rule="evenodd" clip-rule="evenodd" d="M451.075 351.571C446.325 356.394 439.721 359.384 432.418 359.384C417.952 359.384 406.225 347.65 406.225 333.176C406.225 327.493 408.032 322.233 411.103 317.94C406.442 322.672 403.566 329.167 403.566 336.335C403.566 350.81 415.294 362.544 429.76 362.544C438.547 362.544 446.324 358.214 451.075 351.571Z" fill="#F06305"/>
<path d="M419.41 336.114C420.526 336.114 421.43 335.21 421.43 334.094C421.43 332.978 420.526 332.073 419.41 332.073C418.295 332.073 417.391 332.978 417.391 334.094C417.391 335.21 418.295 336.114 419.41 336.114Z" fill="#141414"/>
<path d="M440.522 336.071C441.637 336.071 442.541 335.166 442.541 334.05C442.541 332.934 441.637 332.03 440.522 332.03C439.406 332.03 438.502 332.934 438.502 334.05C438.502 335.166 439.406 336.071 440.522 336.071Z" fill="#141414"/>
<path d="M429.952 346.515C431.274 346.515 432.345 345.443 432.345 344.12C432.345 342.798 431.274 341.726 429.952 341.726C428.63 341.726 427.559 342.798 427.559 344.12C427.559 345.443 428.63 346.515 429.952 346.515Z" fill="#141414"/>
<path d="M444.973 320.537C441.646 320.542 438.436 321.763 435.945 323.97C433.454 326.177 431.853 329.218 431.443 332.522C430.838 332.46 430.23 332.436 429.622 332.448C429.312 332.431 429.001 332.431 428.691 332.448C428.259 328.935 426.484 325.726 423.74 323.495C420.996 321.263 417.495 320.182 413.971 320.478C410.448 320.774 407.176 322.424 404.842 325.083C402.507 327.741 401.292 331.201 401.451 334.737C401.61 338.273 403.131 341.609 405.694 344.047C408.258 346.485 411.664 347.835 415.2 347.813C418.736 347.791 422.126 346.399 424.659 343.93C427.192 341.46 428.671 338.105 428.786 334.567C429.065 334.551 429.344 334.551 429.622 334.567C430.199 334.556 430.775 334.581 431.348 334.642C431.437 337.32 432.313 339.914 433.865 342.098C435.417 344.282 437.577 345.96 440.076 346.923C442.574 347.886 445.301 348.092 447.916 347.514C450.53 346.936 452.917 345.601 454.778 343.674C456.64 341.747 457.893 339.314 458.382 336.679C458.871 334.044 458.574 331.323 457.529 328.855C456.483 326.388 454.735 324.283 452.502 322.804C450.269 321.325 447.651 320.536 444.973 320.537V320.537ZM415.161 345.737C412.881 345.737 410.652 345.06 408.756 343.792C406.86 342.524 405.382 340.722 404.51 338.613C403.637 336.504 403.409 334.184 403.854 331.945C404.299 329.706 405.397 327.65 407.009 326.036C408.621 324.422 410.676 323.323 412.912 322.878C415.148 322.433 417.466 322.661 419.573 323.535C421.68 324.408 423.48 325.887 424.747 327.785C426.014 329.683 426.69 331.914 426.69 334.196C426.684 337.255 425.468 340.188 423.307 342.351C421.146 344.514 418.217 345.731 415.161 345.737V345.737ZM444.973 345.737C442.694 345.731 440.468 345.048 438.577 343.777C436.685 342.505 435.212 340.7 434.344 338.591C433.477 336.482 433.253 334.162 433.701 331.926C434.15 329.689 435.25 327.636 436.864 326.025C438.477 324.414 440.532 323.318 442.767 322.876C445.003 322.433 447.319 322.663 449.424 323.538C451.529 324.412 453.327 325.891 454.593 327.788C455.858 329.685 456.534 331.915 456.534 334.196C456.532 335.714 456.232 337.217 455.65 338.619C455.068 340.02 454.216 341.293 453.143 342.365C452.069 343.437 450.795 344.286 449.393 344.865C447.991 345.443 446.489 345.74 444.973 345.737V345.737Z" fill="#141414"/>
<path fill-rule="evenodd" clip-rule="evenodd" d="M339.502 327.043C336.545 332.068 332.866 335.855 327.954 335.855C322.77 335.855 318.867 334.487 315.693 332.412C312.546 330.355 310.156 327.627 307.972 325.006C307.75 324.739 307.531 324.474 307.313 324.212C303.17 319.215 299.601 314.911 292.548 314.911C289.235 314.911 285.252 317.274 281.012 321.189C276.826 325.055 272.597 330.238 268.806 335.459C265.021 340.673 261.697 345.893 259.319 349.811C258.13 351.769 257.179 353.401 256.525 354.542C256.198 355.112 255.946 355.56 255.776 355.864C255.69 356.016 255.626 356.133 255.583 356.211L255.534 356.299L255.522 356.32L255.519 356.327C255.519 356.327 255.519 356.327 254.598 355.823C253.677 355.318 253.677 355.318 253.678 355.318L253.695 355.286L253.746 355.194C253.791 355.113 253.857 354.994 253.944 354.839C254.117 354.528 254.373 354.075 254.704 353.497C255.365 352.344 256.325 350.697 257.524 348.721C259.922 344.772 263.277 339.501 267.108 334.225C270.933 328.956 275.255 323.648 279.588 319.646C283.868 315.695 288.373 312.812 292.548 312.812C300.615 312.812 304.791 317.864 308.829 322.749C309.081 323.054 309.333 323.359 309.585 323.661C311.763 326.276 313.981 328.784 316.841 330.654C319.674 332.506 323.177 333.756 327.954 333.756C331.656 333.756 334.793 330.906 337.693 325.978C340.563 321.101 342.98 314.563 345.378 307.906C345.52 307.511 345.662 307.116 345.804 306.721C348.039 300.505 350.28 294.274 352.855 289.513C354.227 286.978 355.729 284.79 357.43 283.226C359.145 281.65 361.109 280.668 363.359 280.668C367.402 280.668 370.102 283.001 372.225 286.154C373.732 288.39 375.042 291.188 376.38 294.046C376.892 295.14 377.408 296.243 377.941 297.326C379.905 301.319 382.148 305.183 385.373 308.055C388.563 310.896 392.767 312.812 398.764 312.812V314.911C392.257 314.911 387.555 312.809 383.977 309.623C380.435 306.468 378.047 302.296 376.058 298.253C375.475 297.069 374.931 295.906 374.404 294.78C373.095 291.986 371.894 289.419 370.485 287.327C368.548 284.452 366.405 282.768 363.359 282.768C361.774 282.768 360.294 283.445 358.85 284.772C357.393 286.111 356.022 288.071 354.701 290.512C352.205 295.128 350.015 301.216 347.758 307.492C347.623 307.867 347.488 308.242 347.353 308.618C344.97 315.233 342.489 321.966 339.502 327.043Z" fill="#0096FA"/>
<path d="M191.011 298.043C190.634 297.986 190.275 297.93 189.898 297.892C188.955 297.779 188.239 296.987 188.22 296.044L188.088 274.622C188.088 273.528 188.993 272.661 190.087 272.736C192.557 272.887 195.009 273.226 197.441 273.754C198.497 273.981 199.138 275.055 198.855 276.093L193.123 296.685C192.878 297.59 191.954 298.194 191.011 298.043Z" fill="#072F73"/>
<path d="M221.579 286.653C239.455 303.926 241.85 331.854 227.16 351.918C226.519 352.786 225.275 352.936 224.445 352.239L208.058 338.435C207.322 337.813 207.19 336.757 207.7 335.965C213.866 326.479 212.791 313.92 205.097 305.623C204.456 304.925 204.418 303.851 205.022 303.134L218.844 286.785C219.542 285.955 220.805 285.898 221.579 286.653Z" fill="url(#paint0_linear_223_32119)"/>
<path d="M204.022 275.64C208.34 277.224 212.489 279.412 216.354 282.24C217.222 282.882 217.373 284.126 216.675 284.956L202.834 301.305C202.23 302.022 201.174 302.191 200.401 301.682C199.27 300.947 198.082 300.306 196.875 299.778C196.026 299.401 195.592 298.458 195.838 297.571L201.589 276.904C201.872 275.848 203.003 275.263 204.022 275.64Z" fill="url(#paint1_linear_223_32119)"/>
<path d="M203.947 340.585C197.253 346.845 187.107 349.429 176.679 345.167C171.06 342.866 166.59 338.36 164.309 332.721C157.464 315.768 168.703 299.589 184.298 297.873C185.165 297.778 185.806 297.062 185.806 296.194V274.433C185.806 273.452 184.976 272.679 183.996 272.736C158.048 274.282 137.456 295.685 137.173 321.954C136.871 349.599 158.897 372.095 186.56 372.359C200.892 372.491 213.828 366.57 223.012 357.009C223.691 356.293 223.634 355.161 222.88 354.539L206.21 340.547C205.55 339.962 204.569 340 203.947 340.585Z" fill="url(#paint2_linear_223_32119)"/>
<defs>
<filter id="filter0_f_223_32119" x="39.9277" y="402.889" width="462.514" height="56.3047" filterUnits="userSpaceOnUse" color-interpolation-filters="sRGB">
<feFlood flood-opacity="0" result="BackgroundImageFix"/>
<feBlend mode="normal" in="SourceGraphic" in2="BackgroundImageFix" result="shape"/>
<feGaussianBlur stdDeviation="8" result="effect1_foregroundBlur_223_32119"/>
</filter>
<filter id="filter1_d_223_32119" x="86.9075" y="217.407" width="351.124" height="56.621" filterUnits="userSpaceOnUse" color-interpolation-filters="sRGB">
<feFlood flood-opacity="0" result="BackgroundImageFix"/>
<feColorMatrix in="SourceAlpha" type="matrix" values="0 0 0 0 0 0 0 0 0 0 0 0 0 0 0 0 0 0 127 0" result="hardAlpha"/>
<feOffset dy="3.34028"/>
<feGaussianBlur stdDeviation="10.0208"/>
<feColorMatrix type="matrix" values="0 0 0 0 0.374547 0 0 0 0 0.481553 0 0 0 0 0.601935 0 0 0 0.15 0"/>
<feBlend mode="normal" in2="BackgroundImageFix" result="effect1_dropShadow_223_32119"/>
<feBlend mode="normal" in="SourceGraphic" in2="effect1_dropShadow_223_32119" result="shape"/>
</filter>
<filter id="filter2_d_223_32119" x="385.597" y="365.566" width="31.7268" height="31.7356" filterUnits="userSpaceOnUse" color-interpolation-filters="sRGB">
<feFlood flood-opacity="0" result="BackgroundImageFix"/>
<feColorMatrix in="SourceAlpha" type="matrix" values="0 0 0 0 0 0 0 0 0 0 0 0 0 0 0 0 0 0 127 0" result="hardAlpha"/>
<feOffset/>
<feGaussianBlur stdDeviation="4.17535"/>
<feColorMatrix type="matrix" values="0 0 0 0 0.374547 0 0 0 0 0.481553 0 0 0 0 0.601935 0 0 0 0.3 0"/>
<feBlend mode="normal" in2="BackgroundImageFix" result="effect1_dropShadow_223_32119"/>
<feBlend mode="normal" in="SourceGraphic" in2="effect1_dropShadow_223_32119" result="shape"/>
</filter>
<linearGradient id="paint0_linear_223_32119" x1="248.22" y1="360.066" x2="212.492" y2="308.382" gradientUnits="userSpaceOnUse">
<stop stop-color="#072F73"/>
<stop offset="0.0137421" stop-color="#073075"/>
<stop offset="0.2245" stop-color="#093D96"/>
<stop offset="0.4272" stop-color="#0B46AD"/>
<stop offset="0.6168" stop-color="#0C4CBB"/>
<stop offset="0.78" stop-color="#0C4EC0"/>
</linearGradient>
<linearGradient id="paint1_linear_223_32119" x1="208.389" y1="312.589" x2="205.604" y2="281.597" gradientUnits="userSpaceOnUse">
<stop stop-color="#072F73"/>
<stop offset="0.0394147" stop-color="#08337C"/>
<stop offset="0.2513" stop-color="#0E46A5"/>
<stop offset="0.4582" stop-color="#1355C6"/>
<stop offset="0.656" stop-color="#165FDD"/>
<stop offset="0.8409" stop-color="#1866EB"/>
<stop offset="1" stop-color="#1968F0"/>
</linearGradient>
<linearGradient id="paint2_linear_223_32119" x1="133.449" y1="394.525" x2="184.804" y2="325.157" gradientUnits="userSpaceOnUse">
<stop offset="0.1482" stop-color="#072F73"/>
<stop offset="0.1536" stop-color="#073175"/>
<stop offset="0.258" stop-color="#05509E"/>
<stop offset="0.3654" stop-color="#0369BF"/>
<stop offset="0.4749" stop-color="#027DD9"/>
<stop offset="0.5874" stop-color="#018BEB"/>
<stop offset="0.7045" stop-color="#0093F6"/>
<stop offset="0.834" stop-color="#0096FA"/>
</linearGradient>
</defs>
</svg>
