<svg width="500" height="502" viewBox="0 0 500 502" fill="none" xmlns="http://www.w3.org/2000/svg">
<path d="M256.957 -3.97952e-05C122.775 -2.80646e-05 13.9997 108.776 13.9997 242.957C13.9997 377.139 122.775 485.914 256.957 485.914C391.138 485.914 499.914 377.139 499.914 242.957C499.914 108.776 391.138 -5.15257e-05 256.957 -3.97952e-05Z" fill="#B2DFFD"/>
<path d="M220.913 301.481C252.961 301.481 278.941 275.501 278.941 243.453C278.941 211.406 252.961 185.426 220.913 185.426C188.866 185.426 162.886 211.406 162.886 243.453C162.886 275.501 188.866 301.481 220.913 301.481Z" fill="#072F73"/>
<path d="M278.942 303.576L220.914 301.39V185.426L278.942 183.24V303.576Z" fill="#072F73"/>
<path d="M261.817 176.954C225.105 176.954 195.408 206.651 195.408 243.362C195.408 280.074 225.105 309.771 261.817 309.771L390.352 316.056V170.577L261.817 176.954Z" fill="#0096FA"/>
<path d="M387.619 331.907C429.879 331.907 464.139 292.305 464.139 243.454C464.139 194.602 429.879 155 387.619 155C345.358 155 311.099 194.602 311.099 243.454C311.099 292.305 345.358 331.907 387.619 331.907Z" fill="#072F73"/>
<path d="M419.593 155H387.618V331.907H419.593V155Z" fill="#072F73"/>
<path d="M419.593 331.907C461.854 331.907 496.113 292.305 496.113 243.454C496.113 194.602 461.854 155 419.593 155C377.332 155 343.073 194.602 343.073 243.454C343.073 292.305 377.332 331.907 419.593 331.907Z" fill="#0096FA"/>
<path d="M419.592 314.963C453.753 314.963 481.446 282.947 481.446 243.453C481.446 203.96 453.753 171.944 419.592 171.944C385.431 171.944 357.738 203.96 357.738 243.453C357.738 282.947 385.431 314.963 419.592 314.963Z" fill="url(#paint0_linear_10272_1658)"/>
<path d="M419.593 171.944C416.678 171.944 413.854 172.217 411.121 172.672C441.274 177.409 464.503 207.289 464.503 243.453C464.503 279.618 441.274 309.497 411.121 314.234C413.854 314.69 416.678 314.963 419.593 314.963C453.754 314.963 481.447 282.989 481.447 243.453C481.447 203.918 453.754 171.944 419.593 171.944Z" fill="#072F73"/>
<path d="M58.1272 301.481C90.175 301.481 116.155 275.501 116.155 243.453C116.155 211.406 90.175 185.426 58.1272 185.426C26.0794 185.426 0.0996094 211.406 0.0996094 243.453C0.0996094 275.501 26.0794 301.481 58.1272 301.481Z" fill="#072F73"/>
<path d="M116.156 303.576L58.1279 301.39V185.426L116.156 183.24V303.576Z" fill="#072F73"/>
<path d="M99.0294 176.954C62.318 176.954 32.6211 206.651 32.6211 243.362C32.6211 280.074 62.318 309.771 99.0294 309.771L227.565 316.056V170.577L99.0294 176.954Z" fill="#0096FA"/>
<path d="M224.831 331.907C267.092 331.907 301.351 292.305 301.351 243.454C301.351 194.602 267.092 155 224.831 155C182.571 155 148.312 194.602 148.312 243.454C148.312 292.305 182.571 331.907 224.831 331.907Z" fill="#072F73"/>
<path d="M256.806 155H224.832V331.907H256.806V155Z" fill="#072F73"/>
<path d="M256.805 331.907C299.066 331.907 333.325 292.305 333.325 243.454C333.325 194.602 299.066 155 256.805 155C214.544 155 180.285 194.602 180.285 243.454C180.285 292.305 214.544 331.907 256.805 331.907Z" fill="#0096FA"/>
<path d="M256.807 314.963C290.967 314.963 318.66 282.947 318.66 243.453C318.66 203.96 290.967 171.944 256.807 171.944C222.646 171.944 194.953 203.96 194.953 243.453C194.953 282.947 222.646 314.963 256.807 314.963Z" fill="url(#paint1_linear_10272_1658)"/>
<path d="M256.806 171.944C253.891 171.944 251.067 172.217 248.334 172.672C278.486 177.409 301.716 207.289 301.716 243.453C301.716 279.618 278.486 309.497 248.334 314.234C251.067 314.69 253.891 314.963 256.806 314.963C290.966 314.963 318.659 282.989 318.659 243.453C318.659 203.918 290.966 171.944 256.806 171.944Z" fill="#072F73"/>
<defs>
<linearGradient id="paint0_linear_10272_1658" x1="357.787" y1="243.425" x2="481.465" y2="243.425" gradientUnits="userSpaceOnUse">
<stop stop-color="white"/>
<stop offset="0.2431" stop-color="#F7FAFE"/>
<stop offset="0.6155" stop-color="#E2ECFD"/>
<stop offset="1" stop-color="#C5D9FB"/>
</linearGradient>
<linearGradient id="paint1_linear_10272_1658" x1="194.993" y1="243.425" x2="318.671" y2="243.425" gradientUnits="userSpaceOnUse">
<stop stop-color="white"/>
<stop offset="0.2431" stop-color="#F7FAFE"/>
<stop offset="0.6155" stop-color="#E2ECFD"/>
<stop offset="1" stop-color="#C5D9FB"/>
</linearGradient>
</defs>
</svg>
