<svg width="540" height="500" viewBox="0 0 540 500" fill="none" xmlns="http://www.w3.org/2000/svg">
<g opacity="0.2" filter="url(#filter0_f_223_31953)">
<path d="M495.441 416.688C495.441 423.854 392.537 429.663 265.598 429.663C138.66 429.663 35.7559 423.854 35.7559 416.688C35.7559 409.522 138.66 403.713 265.598 403.713C392.537 403.713 495.441 409.522 495.441 416.688Z" fill="#141414"/>
</g>
<path d="M229 461C337.8 461 426 372.576 426 263.5C426 154.424 337.8 66 229 66C120.2 66 32 154.424 32 263.5C32 372.576 120.2 461 229 461Z" fill="#B2DFFD"/>
<path d="M429.728 157.455C466.58 157.455 496.455 127.582 496.455 90.7288C496.455 53.8761 466.58 24 429.728 24C392.875 24 363 53.8761 363 90.7288C363 127.582 392.875 157.455 429.728 157.455Z" fill="#F5F5F5"/>
<path d="M460.775 173.871H99.9317C94.0906 173.871 89.3574 178.604 89.3574 184.445V418.551H471.349V184.445C471.349 178.604 466.616 173.871 460.775 173.871Z" fill="#0096FA"/>
<path d="M478.372 417.122H84.8688C74.8911 417.122 66.8047 409.036 66.8047 399.058V392.479H496.436V399.058C496.436 409.036 488.35 417.122 478.372 417.122Z" fill="#0C4EC0"/>
<path d="M230.036 404.801H309.727C315.25 404.801 319.728 400.333 319.728 394.826V392.479H220.039V394.826C220.039 400.333 224.513 404.801 230.036 404.801Z" fill="#072F73"/>
<path d="M272.073 182.199C272.073 179.418 269.82 177.164 267.039 177.164C264.257 177.164 262.004 179.418 262.004 182.199C262.004 184.979 264.257 187.234 267.039 187.234C269.82 187.234 272.073 184.979 272.073 182.199Z" fill="#072F73"/>
<path d="M448.052 188.829H109.046C107.192 188.829 105.689 190.332 105.689 192.186V388.541C105.689 390.394 107.192 391.897 109.046 391.897H448.052C449.906 391.897 451.409 390.394 451.409 388.541V192.186C451.409 190.332 449.906 188.829 448.052 188.829Z" fill="#F5F8F9"/>
<path fill-rule="evenodd" clip-rule="evenodd" d="M451.409 365.554L105.689 365.554L105.689 365.053L451.409 365.053L451.409 365.554Z" fill="#E0E0E0"/>
<g filter="url(#filter1_d_223_31953)">
<path d="M105.689 208.951H451.409V227.323H105.689V208.951Z" fill="#F6F6F6"/>
</g>
<path fill-rule="evenodd" clip-rule="evenodd" d="M111.76 218.238C111.76 217.316 112.508 216.568 113.43 216.568H163.534C164.457 216.568 165.204 217.316 165.204 218.238C165.204 219.161 164.457 219.909 163.534 219.909H113.43C112.508 219.909 111.76 219.161 111.76 218.238Z" fill="#F5F5F5"/>
<path fill-rule="evenodd" clip-rule="evenodd" d="M393.44 214.095H372.377C371.547 214.095 370.874 214.768 370.874 215.598V219.941C370.874 220.771 371.547 221.444 372.377 221.444H393.44C394.27 221.444 394.943 220.771 394.943 219.941V215.598C394.943 214.768 394.27 214.095 393.44 214.095ZM372.377 213.594C371.27 213.594 370.373 214.492 370.373 215.598V219.941C370.373 221.048 371.27 221.945 372.377 221.945H393.44C394.547 221.945 395.444 221.048 395.444 219.941V215.598C395.444 214.492 394.547 213.594 393.44 213.594H372.377Z" fill="#0096FA"/>
<path d="M396.672 215.598C396.672 214.491 397.569 213.594 398.676 213.594H419.739C420.846 213.594 421.743 214.491 421.743 215.598V219.94C421.743 221.047 420.846 221.944 419.739 221.944H398.676C397.569 221.944 396.672 221.047 396.672 219.94V215.598Z" fill="#0096FA"/>
<path d="M366.059 219.806L365.05 218.797C365.469 218.317 365.688 217.695 365.662 217.059C365.637 216.422 365.368 215.82 364.912 215.376C364.456 214.931 363.847 214.679 363.21 214.67C362.573 214.661 361.957 214.896 361.488 215.328C361.02 215.759 360.735 216.354 360.691 216.99C360.648 217.625 360.85 218.253 361.255 218.744C361.661 219.235 362.239 219.552 362.872 219.63C363.504 219.707 364.142 219.54 364.654 219.161L365.678 220.186C365.703 220.211 365.733 220.231 365.766 220.245C365.798 220.258 365.833 220.265 365.869 220.265C365.904 220.265 365.939 220.258 365.971 220.245C366.004 220.231 366.033 220.211 366.058 220.186C366.108 220.136 366.137 220.067 366.137 219.996C366.137 219.925 366.109 219.857 366.059 219.806V219.806ZM361.222 217.156C361.222 216.769 361.337 216.391 361.552 216.069C361.766 215.748 362.072 215.497 362.429 215.349C362.787 215.201 363.18 215.162 363.559 215.238C363.938 215.314 364.287 215.5 364.56 215.773C364.834 216.047 365.02 216.395 365.095 216.775C365.17 217.154 365.131 217.547 364.983 217.905C364.835 218.262 364.584 218.567 364.263 218.782C363.941 218.997 363.563 219.111 363.176 219.111C362.658 219.11 362.161 218.904 361.794 218.537C361.428 218.171 361.222 217.674 361.221 217.156H361.222Z" fill="#E0E0E0"/>
<path d="M105.689 192.186C105.689 190.332 107.192 188.829 109.046 188.829H448.052C449.906 188.829 451.409 190.332 451.409 192.186V211.877H105.689V192.186Z" fill="#141414"/>
<path d="M114.234 195.406C114.234 194.133 115.266 193.101 116.539 193.101H175.311C176.584 193.101 177.616 194.133 177.616 195.406V203.473C177.616 204.746 176.584 205.777 175.311 205.777H116.539C115.266 205.777 114.234 204.746 114.234 203.473V195.406Z" fill="#454545"/>
<path d="M166.032 199.82C165.944 199.82 165.86 199.789 165.793 199.733L164.273 198.456C164.237 198.424 164.215 198.379 164.211 198.331C164.208 198.283 164.223 198.236 164.254 198.199C164.285 198.162 164.329 198.139 164.377 198.134C164.425 198.129 164.473 198.142 164.511 198.172L166.032 199.448L167.553 198.174C167.571 198.156 167.593 198.141 167.617 198.131C167.641 198.121 167.667 198.117 167.693 198.118C167.719 198.119 167.744 198.125 167.767 198.136C167.791 198.148 167.811 198.164 167.828 198.183C167.845 198.203 167.857 198.226 167.865 198.251C167.872 198.276 167.874 198.302 167.87 198.328C167.867 198.354 167.858 198.378 167.844 198.4C167.831 198.423 167.813 198.441 167.791 198.456L166.271 199.733C166.204 199.789 166.119 199.82 166.032 199.82V199.82Z" fill="#F5F5F5"/>
<path d="M125.504 199.271C125.504 201.498 123.698 203.304 121.471 203.304C119.243 203.304 117.438 201.498 117.438 199.271C117.438 197.043 119.243 195.237 121.471 195.237C123.698 195.237 125.504 197.043 125.504 199.271Z" fill="#0096FA"/>
<path fill-rule="evenodd" clip-rule="evenodd" d="M127.541 197.372C127.541 197.054 127.799 196.796 128.117 196.796H145.979C146.298 196.796 146.556 197.054 146.556 197.372C146.556 197.69 146.298 197.948 145.979 197.948H128.117C127.799 197.948 127.541 197.69 127.541 197.372Z" fill="#F5F5F5"/>
<path fill-rule="evenodd" clip-rule="evenodd" d="M126.965 201.111C126.965 200.475 127.481 199.959 128.117 199.959H150.013C150.649 199.959 151.165 200.475 151.165 201.111C151.165 201.748 150.649 202.264 150.013 202.264H128.117C127.481 202.264 126.965 201.748 126.965 201.111Z" fill="#F5F5F5"/>
<path fill-rule="evenodd" clip-rule="evenodd" d="M177.162 199.51C177.162 198.873 177.678 198.357 178.315 198.357H188.686C189.323 198.357 189.838 198.873 189.838 199.51C189.838 200.146 189.323 200.662 188.686 200.662H178.315C177.678 200.662 177.162 200.146 177.162 199.51Z" fill="#0096FA"/>
<path fill-rule="evenodd" clip-rule="evenodd" d="M192.764 199.665C192.764 199.028 193.28 198.512 193.916 198.512H207.277C207.914 198.512 208.43 199.028 208.43 199.665C208.43 200.301 207.914 200.817 207.277 200.817H193.916C193.28 200.817 192.764 200.301 192.764 199.665Z" fill="#F5F5F5"/>
<path fill-rule="evenodd" clip-rule="evenodd" d="M265.939 199.433C265.939 198.967 266.317 198.589 266.783 198.589L272.971 198.589C273.437 198.589 273.815 198.967 273.815 199.433C273.815 199.899 273.437 200.277 272.971 200.277L266.783 200.277C266.317 200.277 265.939 199.899 265.939 199.433Z" fill="#F5F8F9"/>
<path d="M264.687 198.369C264.562 197.734 264.11 197.289 263.447 197.152C263.152 197.093 262.852 197.064 262.552 197.065C262.156 197.065 261.601 197.116 261.202 197.363C260.535 197.776 260.458 198.595 260.472 199.046C260.486 199.496 260.596 200.13 261.028 200.577C261.385 200.949 262.084 201.126 262.61 201.139V201.602C262.61 201.628 262.615 201.654 262.625 201.679C262.634 201.703 262.649 201.725 262.668 201.744C262.686 201.763 262.709 201.778 262.733 201.788C262.757 201.798 262.784 201.803 262.81 201.802H262.828C262.869 201.799 262.908 201.783 262.94 201.756C263.146 201.582 263.416 201.344 263.679 201.099L263.795 200.992C264.006 200.813 264.196 200.611 264.363 200.391C264.718 199.885 264.84 199.128 264.687 198.369Z" fill="#0096FA"/>
<path d="M375.802 200.756C375.663 200.588 375.5 200.353 375.479 200.274C375.439 200.124 375.419 199.562 375.415 199.245C375.415 198.832 375.268 198.433 375 198.118C374.733 197.804 374.363 197.594 373.956 197.526V197.455C373.956 197.36 373.918 197.27 373.851 197.203C373.785 197.136 373.694 197.099 373.6 197.099C373.505 197.099 373.415 197.136 373.348 197.203C373.281 197.27 373.244 197.36 373.244 197.455V197.526C372.837 197.594 372.468 197.804 372.201 198.118C371.934 198.432 371.787 198.83 371.786 199.243C371.786 199.562 371.763 200.124 371.723 200.274C371.702 200.353 371.539 200.588 371.4 200.756C371.374 200.788 371.357 200.828 371.351 200.87C371.346 200.912 371.353 200.954 371.371 200.992C371.389 201.03 371.417 201.063 371.453 201.085C371.489 201.108 371.53 201.12 371.572 201.12H372.89C372.89 201.123 372.89 201.126 372.89 201.129C372.89 201.51 373.189 201.785 373.602 201.785C374.015 201.785 374.314 201.51 374.314 201.129C374.314 201.129 374.314 201.123 374.314 201.12H375.632C375.674 201.12 375.715 201.108 375.751 201.085C375.786 201.063 375.815 201.031 375.833 200.992C375.85 200.954 375.857 200.911 375.851 200.87C375.846 200.828 375.829 200.788 375.802 200.756V200.756ZM373.869 201.13C373.869 201.332 373.647 201.341 373.602 201.341C373.558 201.341 373.335 201.332 373.335 201.13C373.335 201.13 373.335 201.124 373.335 201.121H373.869C373.869 201.121 373.869 201.127 373.869 201.13ZM372.011 200.676C372.072 200.587 372.119 200.491 372.152 200.389C372.217 200.142 372.229 199.396 372.23 199.246C372.231 198.902 372.368 198.571 372.612 198.328C372.855 198.084 373.186 197.947 373.53 197.947H373.672C374.017 197.947 374.347 198.085 374.591 198.329C374.835 198.573 374.971 198.904 374.971 199.249C374.971 199.396 374.985 200.139 375.049 200.389C375.083 200.491 375.131 200.587 375.191 200.676H372.011Z" fill="#F5F5F5"/>
<path d="M387.969 199.762C387.969 201.672 386.421 203.22 384.512 203.22C382.603 203.22 381.055 201.672 381.055 199.762C381.055 197.853 382.603 196.305 384.512 196.305C386.421 196.305 387.969 197.853 387.969 199.762Z" fill="#A85AED"/>
<path d="M416.831 199.82C416.743 199.82 416.659 199.789 416.592 199.733L415.071 198.456C415.036 198.424 415.014 198.379 415.01 198.331C415.007 198.283 415.022 198.236 415.053 198.199C415.084 198.162 415.128 198.139 415.176 198.134C415.224 198.129 415.272 198.142 415.31 198.172L416.831 199.448L418.352 198.174C418.37 198.156 418.392 198.141 418.416 198.131C418.44 198.121 418.466 198.117 418.491 198.118C418.517 198.119 418.543 198.125 418.566 198.136C418.59 198.148 418.61 198.164 418.627 198.183C418.644 198.203 418.656 198.226 418.663 198.251C418.671 198.276 418.673 198.302 418.669 198.328C418.666 198.354 418.657 198.378 418.643 198.4C418.63 198.423 418.611 198.441 418.59 198.456L417.07 199.733C417.003 199.789 416.918 199.82 416.831 199.82V199.82Z" fill="#F5F5F5"/>
<path fill-rule="evenodd" clip-rule="evenodd" d="M389.514 199.509C389.514 198.872 390.03 198.356 390.666 198.356H412.562C413.198 198.356 413.714 198.872 413.714 199.509C413.714 200.145 413.198 200.661 412.562 200.661H390.666C390.03 200.661 389.514 200.145 389.514 199.509Z" fill="#F5F5F5"/>
<g filter="url(#filter2_d_223_31953)">
<path d="M247.178 242.137L247.178 278.886C247.178 282.068 249.758 284.648 252.94 284.648L282.739 284.648C285.921 284.648 288.501 282.068 288.501 278.886L288.501 242.137C288.501 238.954 285.921 236.374 282.739 236.374L252.94 236.374C249.758 236.374 247.178 238.954 247.178 242.137Z" fill="white"/>
<path d="M266.886 264.448C271.184 264.448 274.668 260.964 274.668 256.666C274.668 252.368 271.184 248.883 266.886 248.883C262.588 248.883 259.104 252.368 259.104 256.666C259.104 260.964 262.588 264.448 266.886 264.448Z" fill="#A85AED"/>
<path fill-rule="evenodd" clip-rule="evenodd" d="M256.84 269.486C256.84 268.613 257.548 267.905 258.421 267.905H275.471C276.345 267.905 277.053 268.613 277.053 269.486C277.053 270.36 276.345 271.068 275.471 271.068H258.421C257.548 271.068 256.84 270.36 256.84 269.486Z" fill="#F5F5F5"/>
<path fill-rule="evenodd" clip-rule="evenodd" d="M259.559 275.674C259.559 274.801 260.267 274.093 261.14 274.093H272.309C273.182 274.093 273.89 274.801 273.89 275.674C273.89 276.548 273.182 277.256 272.309 277.256H261.14C260.267 277.256 259.559 276.548 259.559 275.674Z" fill="#F5F5F5"/>
<path d="M198.879 242.137L198.879 278.886C198.879 282.068 201.459 284.648 204.641 284.648L234.44 284.648C237.622 284.648 240.202 282.068 240.202 278.886L240.202 242.137C240.202 238.954 237.622 236.374 234.44 236.374L204.641 236.374C201.459 236.374 198.879 238.954 198.879 242.137Z" fill="white"/>
<path d="M218.587 264.448C222.885 264.448 226.369 260.964 226.369 256.666C226.369 252.368 222.885 248.883 218.587 248.883C214.289 248.883 210.805 252.368 210.805 256.666C210.805 260.964 214.289 264.448 218.587 264.448Z" fill="#517BF2"/>
<path fill-rule="evenodd" clip-rule="evenodd" d="M208.541 269.486C208.541 268.613 209.249 267.905 210.123 267.905H227.172C228.046 267.905 228.754 268.613 228.754 269.486C228.754 270.36 228.046 271.068 227.172 271.068H210.123C209.249 271.068 208.541 270.36 208.541 269.486Z" fill="#F5F5F5"/>
<path fill-rule="evenodd" clip-rule="evenodd" d="M211.26 275.674C211.26 274.801 211.968 274.093 212.841 274.093H224.01C224.883 274.093 225.591 274.801 225.591 275.674C225.591 276.548 224.883 277.256 224.01 277.256H212.841C211.968 277.256 211.26 276.548 211.26 275.674Z" fill="#F5F5F5"/>
<path d="M150.578 242.137L150.578 278.886C150.578 282.068 153.158 284.648 156.341 284.648L186.139 284.648C189.322 284.648 191.902 282.068 191.902 278.886L191.902 242.137C191.902 238.954 189.322 236.374 186.139 236.374L156.341 236.374C153.158 236.374 150.578 238.954 150.578 242.137Z" fill="white"/>
<path d="M170.288 264.448C174.586 264.448 178.07 260.964 178.07 256.666C178.07 252.368 174.586 248.883 170.288 248.883C165.99 248.883 162.506 252.368 162.506 256.666C162.506 260.964 165.99 264.448 170.288 264.448Z" fill="#35DE90"/>
<path fill-rule="evenodd" clip-rule="evenodd" d="M160.24 269.486C160.24 268.613 160.948 267.905 161.822 267.905H178.872C179.745 267.905 180.453 268.613 180.453 269.486C180.453 270.36 179.745 271.068 178.872 271.068H161.822C160.948 271.068 160.24 270.36 160.24 269.486Z" fill="#F5F5F5"/>
<path fill-rule="evenodd" clip-rule="evenodd" d="M162.959 275.674C162.959 274.801 163.667 274.093 164.54 274.093H175.709C176.582 274.093 177.29 274.801 177.29 275.674C177.29 276.548 176.582 277.256 175.709 277.256H164.54C163.667 277.256 162.959 276.548 162.959 275.674Z" fill="#F5F5F5"/>
<path d="M343.775 242.137L343.775 278.886C343.775 282.068 346.355 284.648 349.538 284.648L379.336 284.648C382.519 284.648 385.099 282.068 385.099 278.886L385.099 242.137C385.099 238.954 382.519 236.374 379.336 236.374L349.538 236.374C346.355 236.374 343.775 238.954 343.775 242.137Z" fill="white"/>
<path d="M363.483 264.448C367.782 264.448 371.266 260.964 371.266 256.666C371.266 252.368 367.782 248.883 363.483 248.883C359.185 248.883 355.701 252.368 355.701 256.666C355.701 260.964 359.185 264.448 363.483 264.448Z" fill="#F66689"/>
<path fill-rule="evenodd" clip-rule="evenodd" d="M353.438 269.486C353.438 268.613 354.146 267.905 355.019 267.905H372.069C372.942 267.905 373.65 268.613 373.65 269.486C373.65 270.36 372.942 271.068 372.069 271.068H355.019C354.146 271.068 353.438 270.36 353.438 269.486Z" fill="#F5F5F5"/>
<path fill-rule="evenodd" clip-rule="evenodd" d="M356.156 275.674C356.156 274.801 356.864 274.093 357.738 274.093H368.906C369.78 274.093 370.488 274.801 370.488 275.674C370.488 276.548 369.78 277.256 368.906 277.256H357.738C356.864 277.256 356.156 276.548 356.156 275.674Z" fill="#F5F5F5"/>
<path d="M295.477 242.137L295.477 278.886C295.477 282.068 298.057 284.648 301.239 284.648L331.038 284.648C334.22 284.648 336.8 282.068 336.8 278.886L336.8 242.137C336.8 238.954 334.22 236.374 331.038 236.374L301.239 236.374C298.057 236.374 295.477 238.954 295.477 242.137Z" fill="white"/>
<path d="M315.187 264.448C319.485 264.448 322.969 260.964 322.969 256.666C322.969 252.368 319.485 248.883 315.187 248.883C310.889 248.883 307.404 252.368 307.404 256.666C307.404 260.964 310.889 264.448 315.187 264.448Z" fill="#F06305"/>
<path fill-rule="evenodd" clip-rule="evenodd" d="M305.139 269.486C305.139 268.613 305.847 267.905 306.72 267.905H323.77C324.643 267.905 325.351 268.613 325.351 269.486C325.351 270.36 324.643 271.068 323.77 271.068H306.72C305.847 271.068 305.139 270.36 305.139 269.486Z" fill="#F5F5F5"/>
<path fill-rule="evenodd" clip-rule="evenodd" d="M307.857 275.674C307.857 274.801 308.565 274.093 309.439 274.093H320.607C321.481 274.093 322.189 274.801 322.189 275.674C322.189 276.548 321.481 277.256 320.607 277.256H309.439C308.565 277.256 307.857 276.548 307.857 275.674Z" fill="#F5F5F5"/>
</g>
<g filter="url(#filter3_d_223_31953)">
<path d="M247.178 291.816L247.178 328.565C247.178 331.747 249.758 334.327 252.94 334.327L282.739 334.327C285.921 334.327 288.501 331.747 288.501 328.565L288.501 291.816C288.501 288.633 285.921 286.053 282.739 286.053L252.94 286.053C249.758 286.053 247.178 288.633 247.178 291.816Z" fill="white"/>
<path d="M266.886 314.127C271.184 314.127 274.668 310.643 274.668 306.345C274.668 302.047 271.184 298.562 266.886 298.562C262.588 298.562 259.104 302.047 259.104 306.345C259.104 310.643 262.588 314.127 266.886 314.127Z" fill="#F99B45"/>
<path fill-rule="evenodd" clip-rule="evenodd" d="M256.84 319.165C256.84 318.292 257.548 317.583 258.421 317.583H275.471C276.345 317.583 277.053 318.292 277.053 319.165C277.053 320.038 276.345 320.746 275.471 320.746H258.421C257.548 320.746 256.84 320.038 256.84 319.165Z" fill="#F5F5F5"/>
<path fill-rule="evenodd" clip-rule="evenodd" d="M259.559 325.353C259.559 324.48 260.267 323.771 261.14 323.771H272.309C273.182 323.771 273.89 324.48 273.89 325.353C273.89 326.226 273.182 326.934 272.309 326.934H261.14C260.267 326.934 259.559 326.226 259.559 325.353Z" fill="#F5F5F5"/>
<path d="M198.879 291.816L198.879 328.565C198.879 331.747 201.459 334.327 204.641 334.327L234.44 334.327C237.622 334.327 240.202 331.747 240.202 328.565L240.202 291.816C240.202 288.633 237.622 286.053 234.44 286.053L204.641 286.053C201.459 286.053 198.879 288.633 198.879 291.816Z" fill="white"/>
<path d="M218.587 314.127C222.885 314.127 226.369 310.643 226.369 306.345C226.369 302.047 222.885 298.562 218.587 298.562C214.289 298.562 210.805 302.047 210.805 306.345C210.805 310.643 214.289 314.127 218.587 314.127Z" fill="#0096FA"/>
<path fill-rule="evenodd" clip-rule="evenodd" d="M208.541 319.165C208.541 318.292 209.249 317.583 210.123 317.583H227.172C228.046 317.583 228.754 318.292 228.754 319.165C228.754 320.038 228.046 320.746 227.172 320.746H210.123C209.249 320.746 208.541 320.038 208.541 319.165Z" fill="#F5F5F5"/>
<path fill-rule="evenodd" clip-rule="evenodd" d="M211.26 325.353C211.26 324.48 211.968 323.771 212.841 323.771H224.01C224.883 323.771 225.591 324.48 225.591 325.353C225.591 326.226 224.883 326.934 224.01 326.934H212.841C211.968 326.934 211.26 326.226 211.26 325.353Z" fill="#F5F5F5"/>
<path d="M150.578 291.818L150.578 328.567C150.578 331.75 153.158 334.33 156.341 334.33L186.139 334.33C189.322 334.33 191.902 331.75 191.902 328.567L191.902 291.818C191.902 288.636 189.322 286.056 186.139 286.056L156.341 286.056C153.158 286.056 150.578 288.636 150.578 291.818Z" fill="white"/>
<path d="M170.288 314.129C174.586 314.129 178.07 310.645 178.07 306.347C178.07 302.049 174.586 298.564 170.288 298.564C165.99 298.564 162.506 302.049 162.506 306.347C162.506 310.645 165.99 314.129 170.288 314.129Z" fill="#AD0B0B"/>
<path fill-rule="evenodd" clip-rule="evenodd" d="M160.24 319.167C160.24 318.294 160.948 317.586 161.822 317.586H178.872C179.745 317.586 180.453 318.294 180.453 319.167C180.453 320.041 179.745 320.749 178.872 320.749H161.822C160.948 320.749 160.24 320.041 160.24 319.167Z" fill="#F5F5F5"/>
<path fill-rule="evenodd" clip-rule="evenodd" d="M162.959 325.355C162.959 324.482 163.667 323.774 164.54 323.774H175.709C176.582 323.774 177.29 324.482 177.29 325.355C177.29 326.229 176.582 326.937 175.709 326.937H164.54C163.667 326.937 162.959 326.229 162.959 325.355Z" fill="#F5F5F5"/>
<path d="M343.775 291.816L343.775 328.565C343.775 331.747 346.355 334.327 349.538 334.327L379.336 334.327C382.519 334.327 385.099 331.747 385.099 328.565L385.099 291.816C385.099 288.633 382.519 286.053 379.336 286.053L349.538 286.053C346.355 286.053 343.775 288.633 343.775 291.816Z" fill="white"/>
<path d="M363.483 314.127C367.782 314.127 371.266 310.643 371.266 306.345C371.266 302.047 367.782 298.562 363.483 298.562C359.185 298.562 355.701 302.047 355.701 306.345C355.701 310.643 359.185 314.127 363.483 314.127Z" fill="#4AA86C"/>
<path fill-rule="evenodd" clip-rule="evenodd" d="M353.438 319.165C353.438 318.292 354.146 317.583 355.019 317.583H372.069C372.942 317.583 373.65 318.292 373.65 319.165C373.65 320.038 372.942 320.746 372.069 320.746H355.019C354.146 320.746 353.438 320.038 353.438 319.165Z" fill="#F5F5F5"/>
<path fill-rule="evenodd" clip-rule="evenodd" d="M356.156 325.353C356.156 324.48 356.864 323.771 357.738 323.771H368.906C369.78 323.771 370.488 324.48 370.488 325.353C370.488 326.226 369.78 326.934 368.906 326.934H357.738C356.864 326.934 356.156 326.226 356.156 325.353Z" fill="#F5F5F5"/>
<path d="M295.477 291.817L295.477 328.566C295.477 331.748 298.057 334.328 301.239 334.328L331.038 334.328C334.22 334.328 336.8 331.748 336.8 328.566L336.8 291.817C336.8 288.634 334.22 286.054 331.038 286.054L301.239 286.054C298.057 286.054 295.477 288.634 295.477 291.817Z" fill="white"/>
<path d="M315.187 314.128C319.485 314.128 322.969 310.643 322.969 306.345C322.969 302.047 319.485 298.563 315.187 298.563C310.889 298.563 307.404 302.047 307.404 306.345C307.404 310.643 310.889 314.128 315.187 314.128Z" fill="#55CFFF"/>
<path fill-rule="evenodd" clip-rule="evenodd" d="M305.139 319.166C305.139 318.293 305.847 317.584 306.72 317.584H323.77C324.643 317.584 325.351 318.293 325.351 319.166C325.351 320.039 324.643 320.747 323.77 320.747H306.72C305.847 320.747 305.139 320.039 305.139 319.166Z" fill="#F5F5F5"/>
<path fill-rule="evenodd" clip-rule="evenodd" d="M307.857 325.354C307.857 324.481 308.565 323.772 309.439 323.772H320.607C321.481 323.772 322.189 324.481 322.189 325.354C322.189 326.227 321.481 326.935 320.607 326.935H309.439C308.565 326.935 307.857 326.227 307.857 325.354Z" fill="#F5F5F5"/>
</g>
<g filter="url(#filter4_d_223_31953)">
<path d="M418.033 361.271C418.033 365.883 414.295 369.621 409.683 369.621C405.071 369.621 401.332 365.883 401.332 361.271C401.332 356.659 405.071 352.92 409.683 352.92C414.295 352.92 418.033 356.659 418.033 361.271Z" fill="#0096FA"/>
</g>
<path d="M411.904 359.128L411.904 359.129C412.121 360.205 411.943 361.251 411.466 361.933C411.23 362.245 410.96 362.53 410.663 362.783L410.663 362.783L410.656 362.789L410.483 362.948L410.483 362.948L410.482 362.949C410.095 363.31 409.697 363.66 409.394 363.915L409.394 363.915L409.391 363.918C409.386 363.922 409.381 363.925 409.375 363.926H409.363V363.926L409.361 363.926C409.355 363.926 409.349 363.925 409.344 363.923C409.339 363.921 409.334 363.917 409.33 363.913C409.325 363.909 409.322 363.904 409.32 363.899C409.318 363.893 409.317 363.888 409.317 363.882L409.317 363.882V363.878V363.192V362.947L409.073 362.941C408.705 362.932 408.275 362.865 407.875 362.736C407.473 362.605 407.124 362.418 406.898 362.183L406.898 362.183C406.321 361.587 406.163 360.724 406.143 360.076C406.123 359.417 406.243 358.335 407.109 357.8L407.109 357.8C407.637 357.472 408.4 357.395 408.98 357.395L408.981 357.395C409.41 357.393 409.838 357.435 410.259 357.519C411.149 357.703 411.739 358.29 411.904 359.128Z" stroke="#F6F6F6" stroke-width="0.501042"/>
<path opacity="0.3" d="M52.6504 158.927C52.6504 154.71 56.0693 151.291 60.2868 151.291H178.651C182.868 151.291 186.287 154.71 186.287 158.927V237.2C186.287 241.418 182.868 244.837 178.651 244.837H60.2868C56.0693 244.837 52.6504 241.418 52.6504 237.2V158.927Z" fill="#DBDBDB"/>
<path d="M47.3418 151.85C47.3418 147.633 50.7607 144.214 54.9782 144.214H173.342C177.559 144.214 180.978 147.633 180.978 151.85V230.123C180.978 234.34 177.559 237.759 173.342 237.759H54.9782C50.7607 237.759 47.3418 234.34 47.3418 230.123V151.85Z" fill="#F6F6F6"/>
<path d="M47.3418 151.85C47.3418 147.633 50.7607 144.214 54.9782 144.214H173.342C177.559 144.214 180.978 147.633 180.978 151.85V165.214H47.3418V151.85Z" fill="#141414"/>
<path d="M63.6863 154.155C63.6863 155.736 62.4042 157.018 60.8226 157.018C59.2411 157.018 57.959 155.736 57.959 154.155C57.959 152.573 59.2411 151.291 60.8226 151.291C62.4042 151.291 63.6863 152.573 63.6863 154.155Z" fill="#E60F0F"/>
<path d="M70.7624 154.155C70.7624 155.736 69.4803 157.018 67.8988 157.018C66.3173 157.018 65.0352 155.736 65.0352 154.155C65.0352 152.573 66.3173 151.291 67.8988 151.291C69.4803 151.291 70.7624 152.573 70.7624 154.155Z" fill="#F06305"/>
<path d="M77.8406 154.155C77.8406 155.736 76.5585 157.018 74.9769 157.018C73.3954 157.018 72.1133 155.736 72.1133 154.155C72.1133 152.573 73.3954 151.291 74.9769 151.291C76.5585 151.291 77.8406 152.573 77.8406 154.155Z" fill="#35DE90"/>
<path fill-rule="evenodd" clip-rule="evenodd" d="M103.559 193.811V183.009H106.259V193.811H103.559Z" fill="#E0E0E0"/>
<path fill-rule="evenodd" clip-rule="evenodd" d="M103.559 212.782V199.278H106.259V212.782H103.559Z" fill="#E0E0E0"/>
<path d="M87.3887 174.987C87.3887 173.197 88.8396 171.746 90.6295 171.746H124.658C126.448 171.746 127.899 173.197 127.899 174.987V182.009C127.899 183.798 126.448 185.249 124.658 185.249H90.6295C88.8396 185.249 87.3887 183.798 87.3887 182.009V174.987Z" fill="#F5F5F5"/>
<path d="M87.3887 192.507C87.3887 190.718 88.8396 189.267 90.6295 189.267H124.658C126.448 189.267 127.899 190.718 127.899 192.507V199.529C127.899 201.319 126.448 202.77 124.658 202.77H90.6295C88.8396 202.77 87.3887 201.319 87.3887 199.529V192.507Z" fill="#F5F5F5"/>
<path d="M87.3887 210.028C87.3887 208.239 88.8396 206.788 90.6295 206.788H124.658C126.448 206.788 127.899 208.239 127.899 210.028V217.05C127.899 218.84 126.448 220.291 124.658 220.291H90.6295C88.8396 220.291 87.3887 218.84 87.3887 217.05V210.028Z" fill="#F5F5F5"/>
<path d="M54.8516 210.029C54.8516 208.239 56.3025 206.788 58.0924 206.788H81.3181C83.108 206.788 84.5589 208.239 84.5589 210.029V217.051C84.5589 218.84 83.108 220.291 81.3181 220.291H58.0924C56.3025 220.291 54.8516 218.84 54.8516 217.051V210.029Z" fill="#F5F5F5"/>
<path fill-rule="evenodd" clip-rule="evenodd" d="M67.2676 176.753C67.2676 176.007 67.8721 175.402 68.6179 175.402H92.9239V178.103H69.9682V187.555H67.2676V176.753Z" fill="#E0E0E0"/>
<path d="M54.8516 187.502C54.8516 185.712 56.3025 184.261 58.0924 184.261H81.3181C83.108 184.261 84.5589 185.712 84.5589 187.502V199.925C84.5589 201.715 83.108 203.166 81.3181 203.166H58.0924C56.3025 203.166 54.8516 201.715 54.8516 199.925V187.502Z" fill="#F5F5F5"/>
<path d="M162.149 176.752H135.142C133.651 176.752 132.441 177.961 132.441 179.453V217.262C132.441 218.754 133.651 219.963 135.142 219.963H162.149C163.64 219.963 164.849 218.754 164.849 217.262V179.453C164.849 177.961 163.64 176.752 162.149 176.752Z" fill="#F6F6F6"/>
<path d="M132.443 176.95C132.443 175.459 133.652 174.25 135.144 174.25H162.151C163.642 174.25 164.851 175.459 164.851 176.95V179.651H132.443V176.95Z" fill="#141414"/>
<path fill-rule="evenodd" clip-rule="evenodd" d="M164.849 209.561H132.441V209.021H164.849V209.561Z" fill="#F5F8F9"/>
<path d="M142.453 201.417C142.453 200.236 143.41 199.279 144.591 199.279H159.219C160.4 199.279 161.358 200.236 161.358 201.417V204.324C161.358 204.521 161.198 204.68 161.001 204.68H144.591C143.41 204.68 142.453 203.723 142.453 202.542V201.417Z" fill="#F5F5F5"/>
<path d="M152.465 193.908C152.465 192.727 151.507 191.77 150.326 191.77H135.699C134.518 191.77 133.56 192.727 133.56 193.908V196.815C133.56 197.012 133.72 197.171 133.917 197.171H150.326C151.507 197.171 152.465 196.214 152.465 195.033V193.908Z" fill="#0096FA"/>
<defs>
<filter id="filter0_f_223_31953" x="19.7559" y="387.713" width="491.686" height="57.9502" filterUnits="userSpaceOnUse" color-interpolation-filters="sRGB">
<feFlood flood-opacity="0" result="BackgroundImageFix"/>
<feBlend mode="normal" in="SourceGraphic" in2="BackgroundImageFix" result="shape"/>
<feGaussianBlur stdDeviation="8" result="effect1_foregroundBlur_223_31953"/>
</filter>
<filter id="filter1_d_223_31953" x="85.6478" y="192.25" width="385.802" height="58.455" filterUnits="userSpaceOnUse" color-interpolation-filters="sRGB">
<feFlood flood-opacity="0" result="BackgroundImageFix"/>
<feColorMatrix in="SourceAlpha" type="matrix" values="0 0 0 0 0 0 0 0 0 0 0 0 0 0 0 0 0 0 127 0" result="hardAlpha"/>
<feOffset dy="3.34028"/>
<feGaussianBlur stdDeviation="10.0208"/>
<feColorMatrix type="matrix" values="0 0 0 0 0.374547 0 0 0 0 0.481553 0 0 0 0 0.601935 0 0 0 0.15 0"/>
<feBlend mode="normal" in2="BackgroundImageFix" result="effect1_dropShadow_223_31953"/>
<feBlend mode="normal" in="SourceGraphic" in2="effect1_dropShadow_223_31953" result="shape"/>
</filter>
<filter id="filter2_d_223_31953" x="144.622" y="231.907" width="246.434" height="60.186" filterUnits="userSpaceOnUse" color-interpolation-filters="sRGB">
<feFlood flood-opacity="0" result="BackgroundImageFix"/>
<feColorMatrix in="SourceAlpha" type="matrix" values="0 0 0 0 0 0 0 0 0 0 0 0 0 0 0 0 0 0 127 0" result="hardAlpha"/>
<feOffset dy="1.489"/>
<feGaussianBlur stdDeviation="2.97801"/>
<feColorMatrix type="matrix" values="0 0 0 0 0.374547 0 0 0 0 0.481553 0 0 0 0 0.601935 0 0 0 0.15 0"/>
<feBlend mode="normal" in2="BackgroundImageFix" result="effect1_dropShadow_223_31953"/>
<feBlend mode="normal" in="SourceGraphic" in2="effect1_dropShadow_223_31953" result="shape"/>
</filter>
<filter id="filter3_d_223_31953" x="144.622" y="281.586" width="246.434" height="60.1884" filterUnits="userSpaceOnUse" color-interpolation-filters="sRGB">
<feFlood flood-opacity="0" result="BackgroundImageFix"/>
<feColorMatrix in="SourceAlpha" type="matrix" values="0 0 0 0 0 0 0 0 0 0 0 0 0 0 0 0 0 0 127 0" result="hardAlpha"/>
<feOffset dy="1.489"/>
<feGaussianBlur stdDeviation="2.97801"/>
<feColorMatrix type="matrix" values="0 0 0 0 0.374547 0 0 0 0 0.481553 0 0 0 0 0.601935 0 0 0 0.15 0"/>
<feBlend mode="normal" in2="BackgroundImageFix" result="effect1_dropShadow_223_31953"/>
<feBlend mode="normal" in="SourceGraphic" in2="effect1_dropShadow_223_31953" result="shape"/>
</filter>
<filter id="filter4_d_223_31953" x="392.981" y="344.569" width="33.4026" height="33.4026" filterUnits="userSpaceOnUse" color-interpolation-filters="sRGB">
<feFlood flood-opacity="0" result="BackgroundImageFix"/>
<feColorMatrix in="SourceAlpha" type="matrix" values="0 0 0 0 0 0 0 0 0 0 0 0 0 0 0 0 0 0 127 0" result="hardAlpha"/>
<feOffset/>
<feGaussianBlur stdDeviation="4.17535"/>
<feColorMatrix type="matrix" values="0 0 0 0 0.374547 0 0 0 0 0.481553 0 0 0 0 0.601935 0 0 0 0.3 0"/>
<feBlend mode="normal" in2="BackgroundImageFix" result="effect1_dropShadow_223_31953"/>
<feBlend mode="normal" in="SourceGraphic" in2="effect1_dropShadow_223_31953" result="shape"/>
</filter>
</defs>
</svg>
