<svg width="540" height="500" fill="none" xmlns="http://www.w3.org/2000/svg"><path d="M290.916 42.735c30.348-12.589 68.366-13.573 97.876.61 29.51 14.182 45.001 56.378 40.252 86.735-2.895 18.426-14.196 35.867-12.164 54.386 2.996 27.123 32.176 44.119 49.191 66.389 22.856 29.935 22.628 72.459 2.057 103.755-20.57 31.295-59.451 50.822-99.043 52.745-39.592 1.922-79.185-12.823-108.644-37.344-17.777-14.745-30.957-34.132-50.41-46.884-49.675-32.585-134.928 7.736-167.13-20.676-43.173-38.047-17.015-97.754 10.742-115.687 57.293-37.016 95.057 2.039 145.391-17.207 18.565-7.033 36.85-18.027 44.925-35.023 7.619-16.222 4.115-67.654 46.983-91.846" fill="#B9CBD3" style="mix-blend-mode:luminosity" opacity=".16"/><g opacity=".2" filter="url(#bot-list__a)"><path d="M495.44 416.689c0 7.165-102.904 12.975-229.843 12.975-126.938 0-229.842-5.81-229.842-12.975 0-7.166 102.904-12.975 229.842-12.975 126.939 0 229.843 5.809 229.843 12.975Z" fill="#0A0F1A"/></g><path d="M460.774 173.871H99.931c-5.841 0-10.575 4.733-10.575 10.574v234.106h381.992V184.445c0-5.841-4.733-10.574-10.574-10.574Z" fill="#DEE8EC"/><path d="M478.37 417.122H84.867c-9.978 0-18.064-8.086-18.064-18.064v-6.578h429.631v6.578c0 9.978-8.086 18.064-18.064 18.064Z" fill="#E7EEF1"/><path d="M230.035 404.801h79.691c5.523 0 10.001-4.468 10.001-9.974v-2.347h-99.689v2.347c0 5.506 4.474 9.974 9.997 9.974Z" fill="#D2DFE6"/><path d="M272.071 182.199a5.034 5.034 0 1 0-10.069 0 5.035 5.035 0 0 0 10.069 0Z" fill="#B9CBD3"/><path d="M448.05 188.829H109.044a3.356 3.356 0 0 0-3.356 3.356V388.54a3.356 3.356 0 0 0 3.356 3.357H448.05a3.357 3.357 0 0 0 3.357-3.357V192.185a3.357 3.357 0 0 0-3.357-3.356Z" fill="#F5F8F9"/><path fill-rule="evenodd" clip-rule="evenodd" d="M451.407 365.554h-345.72l.001-.502 345.719.001v.501Z" fill="#DEE8EC"/><g filter="url(#bot-list__b)"><path d="M105.688 208.951h345.719v18.372H105.688v-18.372Z" fill="#fff"/></g><path fill-rule="evenodd" clip-rule="evenodd" d="M111.758 218.239c0-.923.748-1.67 1.67-1.67h50.104a1.67 1.67 0 1 1 0 3.34h-50.104a1.67 1.67 0 0 1-1.67-1.67Z" fill="#8CA0B3"/><path fill-rule="evenodd" clip-rule="evenodd" d="M393.439 214.095h-21.063c-.83 0-1.503.673-1.503 1.504v4.342c0 .83.673 1.503 1.503 1.503h21.063c.83 0 1.503-.673 1.503-1.503v-4.342c0-.831-.673-1.504-1.503-1.504Zm-21.063-.501a2.005 2.005 0 0 0-2.004 2.005v4.342c0 1.107.897 2.004 2.004 2.004h21.063a2.004 2.004 0 0 0 2.004-2.004v-4.342a2.005 2.005 0 0 0-2.004-2.005h-21.063Z" fill="#2CC3D5"/><path d="M396.671 215.598c0-1.107.897-2.004 2.004-2.004h21.063c1.107 0 2.004.897 2.004 2.004v4.343a2.004 2.004 0 0 1-2.004 2.004h-21.063a2.004 2.004 0 0 1-2.004-2.004v-4.343Z" fill="#2CC3D5"/><path d="m366.056 219.807-1.009-1.01a2.49 2.49 0 1 0-.396.365l1.025 1.024a.263.263 0 0 0 .292.059.273.273 0 0 0 .166-.248.268.268 0 0 0-.078-.19Zm-4.837-2.651a1.957 1.957 0 0 1 2.337-1.918 1.956 1.956 0 1 1-2.338 1.918h.001Z" fill="#738192"/><path d="M105.688 192.185a3.356 3.356 0 0 1 3.356-3.356H448.05a3.357 3.357 0 0 1 3.357 3.356v19.692H105.688v-19.692Z" fill="#202C44"/><path d="M114.233 195.406a2.305 2.305 0 0 1 2.305-2.305h58.772a2.305 2.305 0 0 1 2.305 2.305v8.066a2.305 2.305 0 0 1-2.305 2.305h-58.772a2.305 2.305 0 0 1-2.305-2.305v-8.066Z" fill="#2D3443"/><path d="M166.032 199.82a.367.367 0 0 1-.239-.088l-1.52-1.276a.185.185 0 0 1-.019-.257.186.186 0 0 1 .257-.027l1.521 1.276 1.521-1.274a.185.185 0 0 1 .275.009.182.182 0 0 1 .042.145.174.174 0 0 1-.026.072.177.177 0 0 1-.053.056l-1.52 1.276a.37.37 0 0 1-.239.088Z" fill="#8CA0B3"/><path d="M125.503 199.27a4.034 4.034 0 1 1-8.067 0 4.034 4.034 0 0 1 8.067 0Z" fill="#2CC3D5"/><path fill-rule="evenodd" clip-rule="evenodd" d="M127.541 197.372c0-.319.258-.577.576-.577h17.862a.577.577 0 1 1 0 1.153h-17.862a.576.576 0 0 1-.576-.576Zm-.577 3.739c0-.637.516-1.153 1.152-1.153h21.896a1.153 1.153 0 0 1 0 2.305h-21.896a1.152 1.152 0 0 1-1.152-1.152Z" fill="#8CA0B3"/><path fill-rule="evenodd" clip-rule="evenodd" d="M177.16 199.51c0-.637.516-1.153 1.153-1.153h10.371a1.153 1.153 0 1 1 0 2.305h-10.371a1.153 1.153 0 0 1-1.153-1.152Z" fill="#2CC3D5"/><path fill-rule="evenodd" clip-rule="evenodd" d="M192.763 199.664c0-.636.516-1.152 1.152-1.152h13.361a1.153 1.153 0 1 1 0 2.305h-13.361a1.153 1.153 0 0 1-1.152-1.153Z" fill="#8CA0B3"/><path fill-rule="evenodd" clip-rule="evenodd" d="M265.938 199.433c0-.466.378-.844.844-.844h6.188a.844.844 0 0 1 0 1.688h-6.188a.844.844 0 0 1-.844-.844Z" fill="#F5F8F9"/><path d="M264.686 198.369c-.125-.635-.577-1.08-1.24-1.217a4.488 4.488 0 0 0-.895-.087c-.396 0-.951.051-1.35.298-.667.413-.744 1.232-.73 1.683.014.45.124 1.084.556 1.531.357.372 1.056.549 1.582.562v.463a.207.207 0 0 0 .058.142.192.192 0 0 0 .142.059h.018a.204.204 0 0 0 .112-.047c.206-.174.476-.412.739-.657l.116-.107c.211-.179.401-.381.568-.601.355-.506.477-1.263.324-2.022Z" fill="#2CC3D5"/><path d="M375.801 200.755c-.139-.168-.302-.402-.323-.481-.04-.15-.06-.712-.064-1.029 0-.413-.147-.812-.415-1.127a1.74 1.74 0 0 0-1.044-.592v-.072a.353.353 0 0 0-.105-.251.353.353 0 0 0-.503 0 .352.352 0 0 0-.104.251v.072a1.742 1.742 0 0 0-1.458 1.716c0 .32-.023.882-.063 1.032-.021.079-.184.313-.323.481a.242.242 0 0 0-.049.114.226.226 0 0 0 .102.216.211.211 0 0 0 .119.034h1.318v.009c0 .381.299.657.712.657s.712-.276.712-.657v-.009h1.318a.211.211 0 0 0 .119-.034.23.23 0 0 0 .082-.093.225.225 0 0 0-.031-.237Zm-1.933.374c0 .202-.222.212-.267.212-.044 0-.267-.01-.267-.212v-.009h.534v.009Zm-1.858-.454c.061-.088.108-.184.141-.286.065-.248.077-.993.078-1.143a1.3 1.3 0 0 1 1.3-1.299h.142a1.3 1.3 0 0 1 1.299 1.302c0 .147.014.89.079 1.14.033.101.081.198.141.286h-3.18Z" fill="#8CA0B3"/><path d="M387.968 199.762a3.457 3.457 0 1 1-6.913 0 3.457 3.457 0 0 1 6.913 0Z" fill="#B97CE8"/><path d="M416.832 199.82a.367.367 0 0 1-.239-.088l-1.521-1.276a.186.186 0 0 1 .239-.284l1.521 1.276 1.521-1.274a.185.185 0 1 1 .238.282l-1.52 1.276a.37.37 0 0 1-.239.088Z" fill="#8CA0B3"/><path fill-rule="evenodd" clip-rule="evenodd" d="M389.512 199.509c0-.637.516-1.153 1.152-1.153h21.896a1.153 1.153 0 0 1 0 2.305h-21.896a1.152 1.152 0 0 1-1.152-1.152Z" fill="#8CA0B3"/><g filter="url(#bot-list__c)"><path d="M247.177 242.137v36.749a5.763 5.763 0 0 0 5.762 5.763h29.799a5.763 5.763 0 0 0 5.762-5.763v-36.749a5.762 5.762 0 0 0-5.762-5.762h-29.799a5.762 5.762 0 0 0-5.762 5.762Z" fill="#fff"/><path d="M266.884 264.448a7.782 7.782 0 0 0 7.782-7.783 7.782 7.782 0 1 0-15.564 0 7.782 7.782 0 0 0 7.782 7.783Z" fill="#B97CE8"/><path fill-rule="evenodd" clip-rule="evenodd" d="M256.838 269.486c0-.873.708-1.581 1.581-1.581h17.05a1.581 1.581 0 1 1 0 3.163h-17.05a1.581 1.581 0 0 1-1.581-1.582Zm2.72 6.189c0-.874.708-1.582 1.581-1.582h11.169a1.581 1.581 0 0 1 0 3.163h-11.169a1.581 1.581 0 0 1-1.581-1.581Z" fill="#D2DFE6"/><path d="M198.877 242.137v36.749a5.763 5.763 0 0 0 5.762 5.763h29.799a5.763 5.763 0 0 0 5.762-5.763v-36.749a5.762 5.762 0 0 0-5.762-5.762h-29.799a5.762 5.762 0 0 0-5.762 5.762Z" fill="#fff"/><path d="M218.584 264.448a7.782 7.782 0 0 0 7.782-7.783 7.782 7.782 0 1 0-15.564 0 7.782 7.782 0 0 0 7.782 7.783Z" fill="#517BF2"/><path fill-rule="evenodd" clip-rule="evenodd" d="M208.538 269.486c0-.873.708-1.581 1.582-1.581h17.049a1.581 1.581 0 1 1 0 3.163H210.12a1.582 1.582 0 0 1-1.582-1.582Zm2.72 6.189c0-.874.708-1.582 1.581-1.582h11.169a1.581 1.581 0 0 1 0 3.163h-11.169a1.581 1.581 0 0 1-1.581-1.581Z" fill="#D2DFE6"/><path d="M150.577 242.137v36.749a5.763 5.763 0 0 0 5.763 5.763h29.798a5.763 5.763 0 0 0 5.763-5.763v-36.749a5.763 5.763 0 0 0-5.763-5.762H156.34a5.763 5.763 0 0 0-5.763 5.762Z" fill="#fff"/><path d="M170.286 264.448a7.783 7.783 0 1 0 0-15.565 7.783 7.783 0 0 0 0 15.565Z" fill="#BED42B"/><path fill-rule="evenodd" clip-rule="evenodd" d="M160.238 269.486c0-.873.708-1.581 1.582-1.581h17.05a1.581 1.581 0 0 1 0 3.163h-17.05a1.582 1.582 0 0 1-1.582-1.582Zm2.72 6.189c0-.874.708-1.582 1.582-1.582h11.168a1.581 1.581 0 0 1 0 3.163H164.54a1.581 1.581 0 0 1-1.582-1.581Z" fill="#D2DFE6"/><path d="M343.774 242.137v36.749a5.763 5.763 0 0 0 5.763 5.763h29.798a5.763 5.763 0 0 0 5.763-5.763v-36.749a5.762 5.762 0 0 0-5.763-5.762h-29.798a5.762 5.762 0 0 0-5.763 5.762Z" fill="#fff"/><path d="M363.482 264.448a7.782 7.782 0 0 0 7.782-7.783 7.782 7.782 0 0 0-7.782-7.782 7.782 7.782 0 1 0 0 15.565Z" fill="#F66689"/><path fill-rule="evenodd" clip-rule="evenodd" d="M353.436 269.486c0-.873.708-1.581 1.581-1.581h17.05a1.581 1.581 0 0 1 0 3.163h-17.05a1.581 1.581 0 0 1-1.581-1.582Zm2.719 6.189c0-.874.708-1.582 1.582-1.582h11.168a1.582 1.582 0 1 1 0 3.163h-11.168a1.581 1.581 0 0 1-1.582-1.581Z" fill="#D2DFE6"/><path d="M295.477 242.137v36.749a5.763 5.763 0 0 0 5.762 5.763h29.799a5.763 5.763 0 0 0 5.762-5.763v-36.749a5.762 5.762 0 0 0-5.762-5.762h-29.799a5.762 5.762 0 0 0-5.762 5.762Z" fill="#fff"/><path d="M315.186 264.448a7.782 7.782 0 0 0 7.782-7.783 7.783 7.783 0 1 0-7.782 7.783Z" fill="#F9B42F"/><path fill-rule="evenodd" clip-rule="evenodd" d="M305.138 269.486c0-.873.708-1.581 1.581-1.581h17.05a1.581 1.581 0 0 1 0 3.163h-17.05a1.581 1.581 0 0 1-1.581-1.582Zm2.719 6.189c0-.874.708-1.582 1.582-1.582h11.168a1.582 1.582 0 1 1 0 3.163h-11.168a1.581 1.581 0 0 1-1.582-1.581Z" fill="#D2DFE6"/></g><g filter="url(#bot-list__d)"><path d="M247.176 291.816v36.749a5.762 5.762 0 0 0 5.762 5.762h29.799a5.762 5.762 0 0 0 5.762-5.762v-36.749a5.763 5.763 0 0 0-5.762-5.763h-29.799a5.763 5.763 0 0 0-5.762 5.763Z" fill="#fff"/><path d="M266.883 314.127a7.782 7.782 0 1 0 0-15.564 7.782 7.782 0 0 0 0 15.564Z" fill="#F99B45"/><path fill-rule="evenodd" clip-rule="evenodd" d="M256.837 319.165c0-.874.708-1.582 1.581-1.582h17.05a1.582 1.582 0 1 1 0 3.163h-17.05a1.581 1.581 0 0 1-1.581-1.581Zm2.72 6.188c0-.873.708-1.581 1.581-1.581h11.169a1.581 1.581 0 0 1 0 3.163h-11.169a1.581 1.581 0 0 1-1.581-1.582Z" fill="#D2DFE6"/><path d="M198.876 291.816v36.749a5.762 5.762 0 0 0 5.762 5.762h29.799a5.762 5.762 0 0 0 5.762-5.762v-36.749a5.763 5.763 0 0 0-5.762-5.763h-29.799a5.763 5.763 0 0 0-5.762 5.763Z" fill="#fff"/><path d="M218.583 314.127a7.782 7.782 0 1 0 0-15.564 7.782 7.782 0 0 0 0 15.564Z" fill="#2CC3D5"/><path fill-rule="evenodd" clip-rule="evenodd" d="M208.537 319.165c0-.874.708-1.582 1.582-1.582h17.049a1.582 1.582 0 1 1 0 3.163h-17.049a1.581 1.581 0 0 1-1.582-1.581Zm2.72 6.188c0-.873.708-1.581 1.581-1.581h11.169a1.581 1.581 0 0 1 0 3.163h-11.169a1.581 1.581 0 0 1-1.581-1.582Z" fill="#D2DFE6"/><path d="M150.576 291.818v36.749a5.763 5.763 0 0 0 5.763 5.763h29.798a5.763 5.763 0 0 0 5.763-5.763v-36.749a5.763 5.763 0 0 0-5.763-5.762h-29.798a5.763 5.763 0 0 0-5.763 5.762Z" fill="#fff"/><path d="M170.285 314.129a7.783 7.783 0 1 0 0-15.565 7.783 7.783 0 0 0 0 15.565Z" fill="#CF5358"/><path fill-rule="evenodd" clip-rule="evenodd" d="M160.237 319.167c0-.873.708-1.581 1.582-1.581h17.05a1.581 1.581 0 0 1 0 3.163h-17.05a1.582 1.582 0 0 1-1.582-1.582Zm2.72 6.189c0-.874.708-1.582 1.582-1.582h11.168a1.582 1.582 0 0 1 0 3.163h-11.168a1.581 1.581 0 0 1-1.582-1.581Z" fill="#D2DFE6"/><path d="M343.773 291.816v36.749a5.763 5.763 0 0 0 5.763 5.762h29.798a5.763 5.763 0 0 0 5.763-5.762v-36.749a5.763 5.763 0 0 0-5.763-5.763h-29.798a5.763 5.763 0 0 0-5.763 5.763Z" fill="#fff"/><path d="M363.481 314.127a7.782 7.782 0 1 0 0-15.564 7.782 7.782 0 1 0 0 15.564Z" fill="#4AA86C"/><path fill-rule="evenodd" clip-rule="evenodd" d="M353.435 319.165c0-.874.708-1.582 1.581-1.582h17.05a1.581 1.581 0 0 1 0 3.163h-17.05a1.581 1.581 0 0 1-1.581-1.581Zm2.719 6.188c0-.873.708-1.581 1.582-1.581h11.168a1.581 1.581 0 1 1 0 3.163h-11.168a1.582 1.582 0 0 1-1.582-1.582Z" fill="#D2DFE6"/><path d="M295.476 291.817v36.749a5.762 5.762 0 0 0 5.762 5.762h29.799a5.762 5.762 0 0 0 5.762-5.762v-36.749a5.763 5.763 0 0 0-5.762-5.763h-29.799a5.763 5.763 0 0 0-5.762 5.763Z" fill="#fff"/><path d="M315.185 314.128a7.783 7.783 0 1 0-.001-15.565 7.783 7.783 0 0 0 .001 15.565Z" fill="#55CFFF"/><path fill-rule="evenodd" clip-rule="evenodd" d="M305.137 319.166c0-.873.708-1.582 1.581-1.582h17.05a1.582 1.582 0 0 1 0 3.163h-17.05a1.581 1.581 0 0 1-1.581-1.581Zm2.719 6.188c0-.873.709-1.581 1.582-1.581h11.168a1.581 1.581 0 1 1 0 3.163h-11.168a1.582 1.582 0 0 1-1.582-1.582Z" fill="#D2DFE6"/></g><g filter="url(#bot-list__e)"><path d="M418.031 361.271a8.35 8.35 0 0 1-8.35 8.35 8.35 8.35 0 1 1 0-16.701 8.35 8.35 0 0 1 8.35 8.351Z" fill="#2CC3D5"/></g><path d="M411.904 359.128v.001c.217 1.076.039 2.122-.438 2.804a5.475 5.475 0 0 1-.803.85l-.007.006-.173.159-.001.001c-.387.361-.785.711-1.088.966l-.003.003a.035.035 0 0 1-.016.008h-.014a.047.047 0 0 1-.017-.003.071.071 0 0 1-.014-.01.033.033 0 0 1-.01-.014.055.055 0 0 1-.003-.017v-.935l-.244-.006a4.379 4.379 0 0 1-1.198-.205c-.402-.131-.751-.318-.977-.553-.577-.596-.735-1.459-.755-2.107-.02-.659.1-1.741.966-2.276.528-.328 1.291-.406 1.871-.406h.001a6.38 6.38 0 0 1 1.278.125c.89.184 1.48.77 1.645 1.609Z" stroke="#F8FBFB" stroke-width=".501"/><path opacity=".3" d="M52.65 158.927a7.636 7.636 0 0 1 7.636-7.636H178.65a7.636 7.636 0 0 1 7.636 7.636V237.2a7.637 7.637 0 0 1-7.636 7.637H60.286a7.637 7.637 0 0 1-7.637-7.637v-78.273Z" fill="#C3EEF4"/><path opacity=".3" d="M59.726 167.774a7.636 7.636 0 0 1 7.636-7.636h118.364a7.636 7.636 0 0 1 7.636 7.636v78.273a7.637 7.637 0 0 1-7.636 7.637H67.362a7.637 7.637 0 0 1-7.636-7.637v-78.273Z" fill="#C3EEF4"/><path d="M47.34 151.85a7.636 7.636 0 0 1 7.637-7.636h118.364a7.636 7.636 0 0 1 7.636 7.636v78.273a7.637 7.637 0 0 1-7.636 7.637H54.977a7.637 7.637 0 0 1-7.636-7.637V151.85Z" fill="#F8FBFB"/><path d="M47.34 151.85a7.636 7.636 0 0 1 7.637-7.636h118.364a7.636 7.636 0 0 1 7.636 7.636v13.364H47.341V151.85Z" fill="#202C44"/><path d="M63.684 154.155a2.863 2.863 0 1 1-5.727 0 2.863 2.863 0 0 1 5.727 0Z" fill="#FF5A60"/><path d="M70.761 154.155a2.863 2.863 0 1 1-5.726 0 2.863 2.863 0 0 1 5.727 0Z" fill="#F9B42F"/><path d="M77.839 154.155a2.863 2.863 0 1 1-5.727 0 2.863 2.863 0 0 1 5.727 0Z" fill="#4DCB7B"/><path fill-rule="evenodd" clip-rule="evenodd" d="M103.559 193.812v-10.803h2.7v10.803h-2.7Zm0 18.97v-13.503h2.7v13.503h-2.7Z" fill="#DEE8EC"/><path d="M87.388 174.987a3.24 3.24 0 0 1 3.24-3.241h34.029a3.24 3.24 0 0 1 3.241 3.241v7.022a3.24 3.24 0 0 1-3.241 3.241H90.629a3.24 3.24 0 0 1-3.241-3.241v-7.022Zm0 17.521a3.24 3.24 0 0 1 3.24-3.241h34.029a3.24 3.24 0 0 1 3.241 3.241v7.021a3.24 3.24 0 0 1-3.241 3.241H90.629a3.24 3.24 0 0 1-3.241-3.241v-7.021Zm0 17.521a3.24 3.24 0 0 1 3.24-3.241h34.029a3.24 3.24 0 0 1 3.241 3.241v7.021a3.24 3.24 0 0 1-3.241 3.241H90.629a3.24 3.24 0 0 1-3.241-3.241v-7.021Zm-32.538 0a3.24 3.24 0 0 1 3.24-3.241h23.226a3.24 3.24 0 0 1 3.241 3.241v7.022a3.24 3.24 0 0 1-3.24 3.241H58.09a3.24 3.24 0 0 1-3.24-3.241v-7.022Z" fill="#E7EEF1"/><path fill-rule="evenodd" clip-rule="evenodd" d="M67.267 176.753a1.35 1.35 0 0 1 1.35-1.351h24.306v2.701H69.967v9.452h-2.7v-10.802Z" fill="#DEE8EC"/><path d="M54.85 187.502a3.24 3.24 0 0 1 3.24-3.24h23.226a3.24 3.24 0 0 1 3.241 3.24v12.423a3.24 3.24 0 0 1-3.24 3.241H58.09a3.24 3.24 0 0 1-3.24-3.241v-12.423Z" fill="#E7EEF1"/><path d="M162.149 176.752h-27.007a2.701 2.701 0 0 0-2.701 2.7v37.81a2.702 2.702 0 0 0 2.701 2.701h27.007c1.491 0 2.7-1.21 2.7-2.701v-37.81a2.7 2.7 0 0 0-2.7-2.7Z" fill="#fff"/><path d="M132.442 176.95a2.702 2.702 0 0 1 2.701-2.701h27.007c1.491 0 2.7 1.21 2.7 2.701v2.701h-32.408v-2.701Z" fill="#202C44"/><path fill-rule="evenodd" clip-rule="evenodd" d="M164.849 209.561h-32.408v-.54h32.408v.54Z" fill="#F5F8F9"/><path d="M142.453 201.417c0-1.181.957-2.138 2.138-2.138h14.628c1.181 0 2.139.957 2.139 2.138v2.907c0 .197-.16.356-.357.356h-16.41a2.138 2.138 0 0 1-2.138-2.138v-1.125Z" fill="#E7EEF1"/><path d="M152.464 193.908a2.138 2.138 0 0 0-2.138-2.138h-14.628a2.139 2.139 0 0 0-2.139 2.138v2.907c0 .197.16.356.357.356h16.41c1.18 0 2.138-.957 2.138-2.138v-1.125Z" fill="#2CC3D5"/><path d="M447.444 433.764c15.464 0 28-12.536 28-28s-12.536-28-28-28-28 12.536-28 28 12.536 28 28 28Z" fill="#FF7B80"/><path opacity=".5" d="M445.063 402.491a5.78 5.78 0 1 0-5.779-5.779 5.787 5.787 0 0 0 5.779 5.779Zm1.875 11.043a5.973 5.973 0 0 1 5.974-5.973h.328a9.323 9.323 0 0 0-10.482-4.09 9.33 9.33 0 0 0-6.788 8.973v3.412a1.714 1.714 0 0 0 1.71 1.71h10.796a5.976 5.976 0 0 1-1.538-4.032Z" fill="#fff"/><path d="M452.129 407.215a5.975 5.975 0 0 0-5.859 7.138 5.976 5.976 0 0 0 8.145 4.354 5.973 5.973 0 0 0-2.286-11.492Zm3.053 5.152-3.561 3.352a.6.6 0 0 1-.411.165.636.636 0 0 1-.418-.157l-1.755-1.635a.609.609 0 0 1-.037-.852.616.616 0 0 1 .859-.037l1.344 1.247 3.151-2.987a.621.621 0 0 1 .429-.179.602.602 0 0 1 .429.179.599.599 0 0 1-.03.904Z" fill="#fff"/><path d="M490.588 381.033c8.836 0 16-7.163 16-16 0-8.836-7.164-16-16-16-8.837 0-16 7.164-16 16 0 8.837 7.163 16 16 16Z" fill="#517BF2"/><path opacity=".5" d="M486.325 367.741a1.898 1.898 0 1 0 0-3.797 1.898 1.898 0 0 0 0 3.797Z" fill="#fff"/><path opacity=".5" d="M486.612 367.547h-.418a2.74 2.74 0 0 0-2.74 2.733v1.13a.757.757 0 0 0 .207.568.767.767 0 0 0 .556.239h4.399a.753.753 0 0 0 .763-.762v-1.13a2.748 2.748 0 0 0-.798-1.972 2.734 2.734 0 0 0-1.969-.806Z" fill="#fff"/><path d="M495.981 359.021a3.674 3.674 0 0 0-3.033-2.937c-.701-.14-1.414-.21-2.129-.209a6.45 6.45 0 0 0-3.231.717c-1.203.746-1.829 2.186-1.773 4.061a5.547 5.547 0 0 0 1.333 3.682c.836.87 2.428 1.299 3.671 1.356v.96a.6.6 0 0 0 .599.598h.056a.604.604 0 0 0 .333-.141c.486-.418 1.13-.966 1.74-1.542l.271-.254a8.9 8.9 0 0 0 1.389-1.429 6.44 6.44 0 0 0 .774-4.862Z" fill="#fff"/><path d="M499.088 471.249c13.531 0 24.5-10.969 24.5-24.5s-10.969-24.5-24.5-24.5-24.5 10.969-24.5 24.5 10.969 24.5 24.5 24.5Z" fill="#BED42B"/><path opacity=".5" d="M511.61 439.14a6.382 6.382 0 0 0-5.227-5.142 18.875 18.875 0 0 0-3.711-.366c-1.646 0-3.959.216-5.632 1.248a6.377 6.377 0 0 0-2.73 3.881c1.306.11 2.574.5 3.717 1.143 2.091 1.307 3.182 3.803 3.084 7.063a12.132 12.132 0 0 1-.588 3.463c.718.156 1.448.255 2.182.294v1.738a1.018 1.018 0 0 0 1.019 1.019h.092a1.01 1.01 0 0 0 .561-.235c.843-.726 1.96-1.686 3.038-2.699l.471-.437a15.747 15.747 0 0 0 2.358-2.49c1.483-2.162 1.993-5.318 1.366-8.48Z" fill="#fff"/><path d="M498.835 439.537c-1.673-1.038-3.986-1.254-5.632-1.254a18.8 18.8 0 0 0-3.711.366 6.4 6.4 0 0 0-5.227 5.148c-.653 3.162-.111 6.318 1.372 8.435a15.74 15.74 0 0 0 2.359 2.495l.47.438c1.078 1 2.189 1.96 3.045 2.698a1 1 0 0 0 .542.229h.111a1.021 1.021 0 0 0 1.013-1.013v-1.718c2.169-.091 4.965-.836 6.429-2.358 1.809-1.889 2.26-4.535 2.319-6.416.091-3.247-1-5.756-3.09-7.05Z" fill="#fff"/><defs><filter id="bot-list__a" x="19.755" y="387.714" width="491.685" height="57.95" filterUnits="userSpaceOnUse" color-interpolation-filters="sRGB"><feFlood flood-opacity="0" result="BackgroundImageFix"/><feBlend in="SourceGraphic" in2="BackgroundImageFix" result="shape"/><feGaussianBlur stdDeviation="8" result="effect1_foregroundBlur_10272_1649"/></filter><filter id="bot-list__b" x="85.646" y="192.25" width="385.802" height="58.455" filterUnits="userSpaceOnUse" color-interpolation-filters="sRGB"><feFlood flood-opacity="0" result="BackgroundImageFix"/><feColorMatrix in="SourceAlpha" values="0 0 0 0 0 0 0 0 0 0 0 0 0 0 0 0 0 0 127 0" result="hardAlpha"/><feOffset dy="3.34"/><feGaussianBlur stdDeviation="10.021"/><feColorMatrix values="0 0 0 0 0.374547 0 0 0 0 0.481553 0 0 0 0 0.601935 0 0 0 0.15 0"/><feBlend in2="BackgroundImageFix" result="effect1_dropShadow_10272_1649"/><feBlend in="SourceGraphic" in2="effect1_dropShadow_10272_1649" result="shape"/></filter><filter id="bot-list__c" x="144.621" y="231.907" width="246.433" height="60.186" filterUnits="userSpaceOnUse" color-interpolation-filters="sRGB"><feFlood flood-opacity="0" result="BackgroundImageFix"/><feColorMatrix in="SourceAlpha" values="0 0 0 0 0 0 0 0 0 0 0 0 0 0 0 0 0 0 127 0" result="hardAlpha"/><feOffset dy="1.489"/><feGaussianBlur stdDeviation="2.978"/><feColorMatrix values="0 0 0 0 0.374547 0 0 0 0 0.481553 0 0 0 0 0.601935 0 0 0 0.15 0"/><feBlend in2="BackgroundImageFix" result="effect1_dropShadow_10272_1649"/><feBlend in="SourceGraphic" in2="effect1_dropShadow_10272_1649" result="shape"/></filter><filter id="bot-list__d" x="144.62" y="281.586" width="246.433" height="60.189" filterUnits="userSpaceOnUse" color-interpolation-filters="sRGB"><feFlood flood-opacity="0" result="BackgroundImageFix"/><feColorMatrix in="SourceAlpha" values="0 0 0 0 0 0 0 0 0 0 0 0 0 0 0 0 0 0 127 0" result="hardAlpha"/><feOffset dy="1.489"/><feGaussianBlur stdDeviation="2.978"/><feColorMatrix values="0 0 0 0 0.374547 0 0 0 0 0.481553 0 0 0 0 0.601935 0 0 0 0.15 0"/><feBlend in2="BackgroundImageFix" result="effect1_dropShadow_10272_1649"/><feBlend in="SourceGraphic" in2="effect1_dropShadow_10272_1649" result="shape"/></filter><filter id="bot-list__e" x="392.979" y="344.569" width="33.403" height="33.403" filterUnits="userSpaceOnUse" color-interpolation-filters="sRGB"><feFlood flood-opacity="0" result="BackgroundImageFix"/><feColorMatrix in="SourceAlpha" values="0 0 0 0 0 0 0 0 0 0 0 0 0 0 0 0 0 0 127 0" result="hardAlpha"/><feOffset/><feGaussianBlur stdDeviation="4.175"/><feColorMatrix values="0 0 0 0 0.374547 0 0 0 0 0.481553 0 0 0 0 0.601935 0 0 0 0.3 0"/><feBlend in2="BackgroundImageFix" result="effect1_dropShadow_10272_1649"/><feBlend in="SourceGraphic" in2="effect1_dropShadow_10272_1649" result="shape"/></filter></defs></svg>