<svg width="499" height="500" viewBox="0 0 499 500" fill="none" xmlns="http://www.w3.org/2000/svg">
<g clip-path="url(#clip0_222_38929)">
<path d="M249.5 500C387.295 500 499 388.071 499 250C499 111.929 387.295 0 249.5 0C111.705 0 0 111.929 0 250C0 388.071 111.705 500 249.5 500Z" fill="#C7C7C7"/>
<path d="M249.499 451.042C360.31 451.042 450.139 361.032 450.139 250C450.139 138.968 360.31 48.958 249.499 48.958C138.689 48.958 48.8594 138.968 48.8594 250C48.8594 361.032 138.689 451.042 249.499 451.042Z" fill="white"/>
<path d="M336.825 261.458H249.5C243.262 261.458 238.064 256.25 238.064 250C238.064 243.75 243.262 238.542 249.5 238.542H336.825C343.062 238.542 348.26 243.75 348.26 250C348.26 256.25 343.062 261.458 336.825 261.458Z" fill="#E0E0E0"/>
<path d="M249.5 261.458C243.262 261.458 238.064 256.25 238.064 250V120.833C238.064 114.583 243.262 109.375 249.5 109.375C255.737 109.375 260.935 114.583 260.935 120.833V250C260.935 256.25 255.737 261.458 249.5 261.458Z" fill="#E0E0E0"/>
<path d="M249.501 283.333C267.873 283.333 282.767 268.409 282.767 250C282.767 231.591 267.873 216.667 249.501 216.667C231.128 216.667 216.234 231.591 216.234 250C216.234 268.409 231.128 283.333 249.501 283.333Z" fill="#E0E0E0"/>
<path d="M249.502 268.75C259.836 268.75 268.214 260.355 268.214 250C268.214 239.645 259.836 231.25 249.502 231.25C239.167 231.25 230.789 239.645 230.789 250C230.789 260.355 239.167 268.75 249.502 268.75Z" fill="#C7C7C7"/>
<path d="M249.503 94.792C256.967 94.792 263.018 88.729 263.018 81.25C263.018 73.771 256.967 67.708 249.503 67.708C242.039 67.708 235.988 73.771 235.988 81.25C235.988 88.729 242.039 94.792 249.503 94.792Z" fill="#C7C7C7"/>
<path d="M130.988 144.792C138.452 144.792 144.502 138.729 144.502 131.25C144.502 123.771 138.452 117.708 130.988 117.708C123.523 117.708 117.473 123.771 117.473 131.25C117.473 138.729 123.523 144.792 130.988 144.792Z" fill="#C7C7C7"/>
<path d="M81.0891 263.542C88.5532 263.542 94.604 257.479 94.604 250C94.604 242.521 88.5532 236.458 81.0891 236.458C73.625 236.458 67.5742 242.521 67.5742 250C67.5742 257.479 73.625 263.542 81.0891 263.542Z" fill="#C7C7C7"/>
<path d="M130.988 382.292C138.452 382.292 144.502 376.229 144.502 368.75C144.502 361.271 138.452 355.208 130.988 355.208C123.523 355.208 117.473 361.271 117.473 368.75C117.473 376.229 123.523 382.292 130.988 382.292Z" fill="#C7C7C7"/>
<path d="M249.503 432.292C256.967 432.292 263.018 426.229 263.018 418.75C263.018 411.271 256.967 405.208 249.503 405.208C242.039 405.208 235.988 411.271 235.988 418.75C235.988 426.229 242.039 432.292 249.503 432.292Z" fill="#C7C7C7"/>
<path d="M368.015 382.292C375.479 382.292 381.53 376.229 381.53 368.75C381.53 361.271 375.479 355.208 368.015 355.208C360.551 355.208 354.5 361.271 354.5 368.75C354.5 376.229 360.551 382.292 368.015 382.292Z" fill="#C7C7C7"/>
<path d="M417.913 263.542C425.377 263.542 431.428 257.479 431.428 250C431.428 242.521 425.377 236.458 417.913 236.458C410.449 236.458 404.398 242.521 404.398 250C404.398 257.479 410.449 263.542 417.913 263.542Z" fill="#C7C7C7"/>
<path d="M368.015 144.792C375.479 144.792 381.53 138.729 381.53 131.25C381.53 123.771 375.479 117.708 368.015 117.708C360.551 117.708 354.5 123.771 354.5 131.25C354.5 138.729 360.551 144.792 368.015 144.792Z" fill="#C7C7C7"/>
</g>
<defs>
<clipPath id="clip0_222_38929">
<rect width="499" height="500" fill="white"/>
</clipPath>
</defs>
</svg>
