<svg width="500" height="500" viewBox="0 0 500 500" fill="none" xmlns="http://www.w3.org/2000/svg">
<g opacity="0.1" filter="url(#filter0_f_222_39111)">
<path d="M426.774 471.211C426.774 478.162 361.461 483.797 280.893 483.797C200.325 483.797 135.012 478.162 135.012 471.211C135.012 464.26 200.325 458.625 280.893 458.625C361.461 458.625 426.774 464.26 426.774 471.211Z" fill="#0A0F1A"/>
</g>
<path d="M266.018 458.626C382.605 458.626 477.117 364.114 477.117 247.527C477.117 130.941 382.605 36.4287 266.018 36.4287C149.432 36.4287 54.9199 130.941 54.9199 247.527C54.9199 364.114 149.432 458.626 266.018 458.626Z" fill="#0096FA"/>
<path d="M266.018 417.286C359.773 417.286 435.777 341.282 435.777 247.527C435.777 153.772 359.773 77.7686 266.018 77.7686C172.263 77.7686 96.2598 153.772 96.2598 247.527C96.2598 341.282 172.263 417.286 266.018 417.286Z" fill="white"/>
<path d="M339.903 257.202H266.019C260.741 257.202 256.344 252.804 256.344 247.527C256.344 242.249 260.741 237.852 266.019 237.852H339.903C345.181 237.852 349.578 242.249 349.578 247.527C349.578 252.804 345.181 257.202 339.903 257.202Z" fill="#0096FA"/>
<path d="M266.019 257.202C260.741 257.202 256.344 252.804 256.344 247.527V138.459C256.344 133.182 260.741 128.784 266.019 128.784C271.296 128.784 275.694 133.182 275.694 138.459V247.527C275.694 252.804 271.296 257.202 266.019 257.202Z" fill="#0096FA"/>
<path d="M266.019 275.673C281.564 275.673 294.165 263.072 294.165 247.527C294.165 231.982 281.564 219.381 266.019 219.381C250.475 219.381 237.873 231.982 237.873 247.527C237.873 263.072 250.475 275.673 266.019 275.673Z" fill="#0096FA"/>
<path d="M266.02 263.36C274.764 263.36 281.852 256.272 281.852 247.528C281.852 238.784 274.764 231.695 266.02 231.695C257.276 231.695 250.188 238.784 250.188 247.528C250.188 256.272 257.276 263.36 266.02 263.36Z" fill="#DDE3EC"/>
<path d="M266.021 116.471C272.336 116.471 277.455 111.352 277.455 105.036C277.455 98.7211 272.336 93.6016 266.021 93.6016C259.705 93.6016 254.586 98.7211 254.586 105.036C254.586 111.352 259.705 116.471 266.021 116.471Z" fill="#0096FA"/>
<path d="M165.747 158.691C172.063 158.691 177.182 153.571 177.182 147.256C177.182 140.941 172.063 135.821 165.747 135.821C159.432 135.821 154.312 140.941 154.312 147.256C154.312 153.571 159.432 158.691 165.747 158.691Z" fill="#0096FA"/>
<path d="M123.529 258.962C129.844 258.962 134.963 253.843 134.963 247.528C134.963 241.212 129.844 236.093 123.529 236.093C117.213 236.093 112.094 241.212 112.094 247.528C112.094 253.843 117.213 258.962 123.529 258.962Z" fill="#0096FA"/>
<path d="M165.747 359.234C172.063 359.234 177.182 354.114 177.182 347.799C177.182 341.484 172.063 336.364 165.747 336.364C159.432 336.364 154.312 341.484 154.312 347.799C154.312 354.114 159.432 359.234 165.747 359.234Z" fill="#0096FA"/>
<path d="M266.021 401.454C272.336 401.454 277.455 396.335 277.455 390.02C277.455 383.704 272.336 378.585 266.021 378.585C259.705 378.585 254.586 383.704 254.586 390.02C254.586 396.335 259.705 401.454 266.021 401.454Z" fill="#0096FA"/>
<path d="M366.292 359.234C372.607 359.234 377.727 354.114 377.727 347.799C377.727 341.484 372.607 336.364 366.292 336.364C359.977 336.364 354.857 341.484 354.857 347.799C354.857 354.114 359.977 359.234 366.292 359.234Z" fill="#0096FA"/>
<path d="M408.511 258.962C414.826 258.962 419.946 253.843 419.946 247.528C419.946 241.212 414.826 236.093 408.511 236.093C402.196 236.093 397.076 241.212 397.076 247.528C397.076 253.843 402.196 258.962 408.511 258.962Z" fill="#0096FA"/>
<path d="M366.292 158.691C372.607 158.691 377.727 153.571 377.727 147.256C377.727 140.941 372.607 135.821 366.292 135.821C359.977 135.821 354.857 140.941 354.857 147.256C354.857 153.571 359.977 158.691 366.292 158.691Z" fill="#0096FA"/>
<defs>
<filter id="filter0_f_222_39111" x="119.012" y="442.625" width="323.762" height="57.1719" filterUnits="userSpaceOnUse" color-interpolation-filters="sRGB">
<feFlood flood-opacity="0" result="BackgroundImageFix"/>
<feBlend mode="normal" in="SourceGraphic" in2="BackgroundImageFix" result="shape"/>
<feGaussianBlur stdDeviation="8" result="effect1_foregroundBlur_222_39111"/>
</filter>
</defs>
</svg>
