<svg width="500" height="500" viewBox="0 0 500 500" fill="none" xmlns="http://www.w3.org/2000/svg">
<g clip-path="url(#clip0_222_39213)">
<path d="M484.791 273.353C484.791 295.306 481.309 316.426 474.799 336.184C470.257 349.961 464.352 363.058 457.084 375.321C455.343 378.273 453.603 381.15 451.71 383.951C448.379 389.023 444.821 393.867 441.036 398.637C404.094 445.041 347.168 474.791 283.277 474.791C266.093 474.791 249.439 472.672 233.542 468.584C231.498 468.054 229.53 467.524 227.486 466.918C220.824 465.026 214.39 462.755 208.031 460.257C204.397 458.818 200.915 457.229 197.357 455.639C129 423.391 81.6875 353.822 81.6875 273.277C81.6875 261.695 82.6715 250.34 84.564 239.288C84.7911 238.076 85.0177 236.865 85.2448 235.578C88.1214 220.287 92.7391 205.677 98.8709 191.824C105.381 177.138 113.557 163.436 123.171 150.946C143.459 124.375 170.257 103.103 201.142 89.2499C210.832 84.935 220.9 81.3013 231.346 78.5761C247.925 74.1855 265.26 71.8389 283.201 71.8389C339.068 71.8389 389.56 94.5489 426.047 131.264C427.41 132.626 428.772 134.064 430.059 135.427C434.374 139.969 438.387 144.738 442.248 149.659C448.152 157.153 453.451 165.101 458.22 173.428C461.475 179.03 464.428 184.859 467.077 190.839C469.651 196.593 471.998 202.498 474.042 208.554C476.086 214.61 477.827 220.741 479.341 227.024C479.492 227.706 479.643 228.462 479.795 229.144C480.854 233.989 481.839 238.985 482.52 243.981C484.11 253.595 484.791 263.36 484.791 273.353Z" fill="#0096FA"/>
<path d="M227.41 466.994L315.524 334.14V318.698L230.286 272.445H151.179L115.222 236.487V200.529H149.135L244.669 104.996V91.6723L231.422 78.4248C220.975 81.2257 210.907 84.7837 201.217 89.0986C170.331 102.876 143.533 124.224 123.246 150.794C113.632 163.361 105.457 177.062 98.9463 191.672C92.8146 205.526 88.1969 220.212 85.3203 235.427C85.0932 236.639 84.8658 237.85 84.6387 239.137L165.941 307.04L157.009 321.726L180.626 359.424L197.432 359.046L197.508 455.639C197.508 455.639 203.791 458.667 212.194 461.846C220.445 465.102 227.41 466.994 227.41 466.994Z" fill="#35DE90"/>
<path d="M474.722 336.033V320.287H460.112V290.84H406.441L375.176 259.576V234.897L436.796 173.277H458.219C461.474 178.879 464.427 184.708 467.076 190.688C469.65 196.442 471.997 202.346 474.041 208.402C476.085 214.458 477.826 220.59 479.34 226.873C479.491 227.554 479.642 228.311 479.794 228.993C480.853 233.838 481.838 238.834 482.519 243.83C483.882 253.444 484.639 263.209 484.639 273.126C484.79 295.155 481.232 316.275 474.722 336.033Z" fill="#35DE90"/>
<path d="M442.324 149.583H427.714V169.19H394.859V140.424H426.124V131.112C427.487 132.475 428.849 133.913 430.136 135.276C434.451 139.894 438.539 144.663 442.324 149.583Z" fill="#35DE90"/>
<path fill-rule="evenodd" clip-rule="evenodd" d="M351.783 71.3813L349.891 62.0703L357.309 60.5625L359.201 69.8735L351.783 71.3813Z" fill="url(#paint0_linear_222_39213)"/>
<path fill-rule="evenodd" clip-rule="evenodd" d="M357.023 95.9593L355.047 86.6272L362.453 85.0586L364.429 94.3907L357.023 95.9593ZM364.139 129.555L360.186 110.891L367.592 109.322L371.545 127.986L364.139 129.555ZM371.255 163.151L367.302 144.487L374.708 142.918L378.661 161.582L371.255 163.151ZM378.371 196.747L374.418 178.082L381.823 176.514L385.777 195.178L378.371 196.747ZM385.487 230.342L381.534 211.678L388.939 210.109L392.893 228.774L385.487 230.342ZM392.603 263.938L388.649 245.274L396.055 243.705L400.008 262.37L392.603 263.938ZM399.718 297.534L395.765 278.87L403.171 277.301L407.124 295.965L399.718 297.534ZM406.834 331.13L402.881 312.465L410.287 310.897L414.24 329.561L406.834 331.13ZM413.95 364.725L409.997 346.061L417.403 344.492L421.356 363.157L413.95 364.725ZM421.066 398.321L417.113 379.657L424.518 378.088L428.472 396.752L421.066 398.321ZM426.205 422.585L424.228 413.253L431.634 411.684L433.611 421.016L426.205 422.585Z" fill="url(#paint1_linear_222_39213)"/>
<path fill-rule="evenodd" clip-rule="evenodd" d="M429.84 439.472L427.871 430.236L435.275 428.658L437.243 437.894L429.84 439.472Z" fill="url(#paint2_linear_222_39213)"/>
<path fill-rule="evenodd" clip-rule="evenodd" d="M74.1766 327.981L65.168 325.104L67.4708 317.893L76.4794 320.769L74.1766 327.981Z" fill="url(#paint3_linear_222_39213)"/>
<path fill-rule="evenodd" clip-rule="evenodd" d="M98.0935 335.646L89.0137 332.749L91.3151 325.537L100.395 328.435L98.0935 335.646ZM130.781 346.078L112.621 340.283L114.923 333.071L133.082 338.866L130.781 346.078ZM163.468 356.509L145.309 350.714L147.61 343.502L165.77 349.298L163.468 356.509ZM196.156 366.941L177.996 361.146L180.298 353.934L198.457 359.729L196.156 366.941ZM228.843 377.372L210.684 371.577L212.985 364.365L231.145 370.161L228.843 377.372ZM261.531 387.804L243.371 382.009L245.672 374.797L263.832 380.592L261.531 387.804ZM294.218 398.235L276.058 392.44L278.36 385.228L296.52 391.024L294.218 398.235ZM326.905 408.667L308.746 402.871L311.047 395.66L329.207 401.455L326.905 408.667ZM359.593 419.098L341.433 413.303L343.735 406.091L361.894 411.887L359.593 419.098ZM392.28 429.53L374.121 423.734L376.422 416.523L394.582 422.318L392.28 429.53ZM415.888 437.064L406.808 434.166L409.109 426.954L418.189 429.852L415.888 437.064Z" fill="url(#paint4_linear_222_39213)"/>
<path fill-rule="evenodd" clip-rule="evenodd" d="M432.389 442.287L423.381 439.41L425.684 432.199L434.692 435.076L432.389 442.287Z" fill="url(#paint5_linear_222_39213)"/>
<path fill-rule="evenodd" clip-rule="evenodd" d="M75.8343 317.934L68.8698 324.293L63.7656 318.702L70.7302 312.344L75.8343 317.934Z" fill="url(#paint6_linear_222_39213)"/>
<path fill-rule="evenodd" clip-rule="evenodd" d="M343.27 75.7801L336.165 82.2146L331.084 76.6035L338.189 70.1689L343.27 75.7801ZM324.797 92.5098L310.586 105.379L305.505 99.7678L319.715 86.8987L324.797 92.5098ZM299.218 115.674L285.007 128.543L279.926 122.932L294.136 110.063L299.218 115.674ZM273.639 138.838L259.428 151.707L254.347 146.096L268.557 133.227L273.639 138.838ZM248.059 162.003L233.849 174.872L228.767 169.261L242.978 156.392L248.059 162.003ZM222.48 185.167L208.27 198.036L203.188 192.425L217.399 179.556L222.48 185.167ZM196.901 208.331L182.691 221.2L177.609 215.589L191.82 202.72L196.901 208.331ZM171.322 231.495L157.112 244.364L152.03 238.753L166.241 225.884L171.322 231.495ZM145.743 254.66L131.533 267.529L126.451 261.918L140.662 249.049L145.743 254.66ZM120.164 277.824L105.954 290.693L100.872 285.082L115.083 272.213L120.164 277.824ZM94.5851 300.988L87.4798 307.423L82.3984 301.812L89.5037 295.377L94.5851 300.988Z" fill="url(#paint7_linear_222_39213)"/>
<path fill-rule="evenodd" clip-rule="evenodd" d="M356.138 64.1255L349.098 70.4843L344.023 64.8666L351.063 58.5078L356.138 64.1255Z" fill="url(#paint8_linear_222_39213)"/>
<path d="M414.918 61.3172C414.918 78.4254 407.878 93.9438 396.599 105.072C385.546 115.973 370.33 122.634 353.6 122.634C336.871 122.634 321.655 115.897 310.603 105.072C299.248 93.9438 292.283 78.4254 292.283 61.3172C292.283 27.4035 319.762 0 353.6 0C387.438 0 414.918 27.4792 414.918 61.3172Z" fill="#0C4EC0"/>
<path d="M353.6 73.6558C365.473 73.6558 375.099 64.0305 375.099 52.157C375.099 40.2835 365.473 30.6582 353.6 30.6582C341.726 30.6582 332.102 40.2835 332.102 52.157C332.102 64.0305 341.726 73.6558 353.6 73.6558Z" fill="#C5D9FB"/>
<path d="M396.523 105.071C385.47 115.972 370.255 122.633 353.525 122.633C336.795 122.633 321.58 115.896 310.527 105.071C320.066 91.5962 335.735 82.7393 353.525 82.7393C371.314 82.815 387.06 91.5962 396.523 105.071Z" fill="#C5D9FB"/>
<path d="M494.857 438.682C494.857 455.791 487.817 471.309 476.537 482.437C465.485 493.338 450.27 500 433.54 500C416.81 500 401.594 493.262 390.542 482.437C379.187 471.309 372.223 455.791 372.223 438.682C372.223 404.769 399.702 377.365 433.54 377.365C467.378 377.365 494.857 404.769 494.857 438.682Z" fill="#0C4EC0"/>
<path d="M433.54 450.946C445.414 450.946 455.039 441.321 455.039 429.447C455.039 417.574 445.414 407.948 433.54 407.948C421.667 407.948 412.041 417.574 412.041 429.447C412.041 441.321 421.667 450.946 433.54 450.946Z" fill="#C5D9FB"/>
<path d="M476.538 482.437C465.486 493.338 450.27 500 433.541 500C416.811 500 401.595 493.262 390.543 482.437C400.081 468.962 415.751 460.105 433.541 460.105C451.33 460.105 467 468.962 476.538 482.437Z" fill="#C5D9FB"/>
<path d="M127.634 321.499C127.634 338.607 120.595 354.126 109.315 365.254C98.2633 376.155 83.0469 382.816 66.3172 382.816C49.5874 382.816 34.3718 376.079 23.3196 365.254C11.9646 354.126 5 338.607 5 321.499C5 287.585 32.4792 260.182 66.3172 260.182C100.155 260.182 127.634 287.661 127.634 321.499Z" fill="#0C4EC0"/>
<path d="M66.3187 333.838C78.1922 333.838 87.8179 324.212 87.8179 312.339C87.8179 300.465 78.1922 290.84 66.3187 290.84C54.4452 290.84 44.8203 300.465 44.8203 312.339C44.8203 324.212 54.4452 333.838 66.3187 333.838Z" fill="#C5D9FB"/>
<path d="M109.316 365.253C98.264 376.154 83.0476 382.816 66.3179 382.816C49.5881 382.816 34.3725 376.079 23.3203 365.253C32.8585 351.779 48.5283 342.922 66.3179 342.922C84.1074 342.998 99.778 351.779 109.316 365.253Z" fill="#C5D9FB"/>
</g>
<defs>
<linearGradient id="paint0_linear_222_39213" x1="483.769" y1="420.943" x2="352.766" y2="61.0764" gradientUnits="userSpaceOnUse">
<stop stop-color="#35DE90"/>
<stop offset="0.0143073" stop-color="#40E096"/>
<stop offset="0.0835316" stop-color="#72E8B2"/>
<stop offset="0.1543" stop-color="#9EEFC9"/>
<stop offset="0.2254" stop-color="#C1F5DD"/>
<stop offset="0.2969" stop-color="#DCF9EC"/>
<stop offset="0.369" stop-color="#F0FCF6"/>
<stop offset="0.4422" stop-color="#FBFEFD"/>
<stop offset="0.518" stop-color="white"/>
<stop offset="0.6333" stop-color="#FFFAFD"/>
<stop offset="0.7699" stop-color="#FFECF8"/>
<stop offset="0.9167" stop-color="#FED4F0"/>
<stop offset="1" stop-color="#FEC3EA"/>
</linearGradient>
<linearGradient id="paint1_linear_222_39213" x1="458.535" y1="430.135" x2="327.527" y2="70.2645" gradientUnits="userSpaceOnUse">
<stop stop-color="#35DE90"/>
<stop offset="0.0143073" stop-color="#40E096"/>
<stop offset="0.0835316" stop-color="#72E8B2"/>
<stop offset="0.1543" stop-color="#9EEFC9"/>
<stop offset="0.2254" stop-color="#C1F5DD"/>
<stop offset="0.2969" stop-color="#DCF9EC"/>
<stop offset="0.369" stop-color="#F0FCF6"/>
<stop offset="0.4422" stop-color="#FBFEFD"/>
<stop offset="0.518" stop-color="white"/>
<stop offset="0.6333" stop-color="#FFFAFD"/>
<stop offset="0.7699" stop-color="#FFECF8"/>
<stop offset="0.9167" stop-color="#FED4F0"/>
<stop offset="1" stop-color="#FEC3EA"/>
</linearGradient>
<linearGradient id="paint2_linear_222_39213" x1="434.323" y1="438.951" x2="303.334" y2="79.0566" gradientUnits="userSpaceOnUse">
<stop stop-color="#35DE90"/>
<stop offset="0.0143073" stop-color="#40E096"/>
<stop offset="0.0835316" stop-color="#72E8B2"/>
<stop offset="0.1543" stop-color="#9EEFC9"/>
<stop offset="0.2254" stop-color="#C1F5DD"/>
<stop offset="0.2969" stop-color="#DCF9EC"/>
<stop offset="0.369" stop-color="#F0FCF6"/>
<stop offset="0.4422" stop-color="#FBFEFD"/>
<stop offset="0.518" stop-color="white"/>
<stop offset="0.6333" stop-color="#FFFAFD"/>
<stop offset="0.7699" stop-color="#FFECF8"/>
<stop offset="0.9167" stop-color="#FED4F0"/>
<stop offset="1" stop-color="#FEC3EA"/>
</linearGradient>
<linearGradient id="paint3_linear_222_39213" x1="151.472" y1="544.561" x2="68.7848" y2="317.433" gradientUnits="userSpaceOnUse">
<stop stop-color="#35DE90"/>
<stop offset="0.0143073" stop-color="#40E096"/>
<stop offset="0.0835316" stop-color="#72E8B2"/>
<stop offset="0.1543" stop-color="#9EEFC9"/>
<stop offset="0.2254" stop-color="#C1F5DD"/>
<stop offset="0.2969" stop-color="#DCF9EC"/>
<stop offset="0.369" stop-color="#F0FCF6"/>
<stop offset="0.4422" stop-color="#FBFEFD"/>
<stop offset="0.518" stop-color="white"/>
<stop offset="0.5826" stop-color="#FCFAFE"/>
<stop offset="0.659" stop-color="#F5ECFD"/>
<stop offset="0.7416" stop-color="#E8D4FA"/>
<stop offset="0.8284" stop-color="#D7B2F7"/>
<stop offset="0.9177" stop-color="#C088F2"/>
<stop offset="1" stop-color="#A85AED"/>
</linearGradient>
<linearGradient id="paint4_linear_222_39213" x1="294.147" y1="492.602" x2="211.469" y2="265.49" gradientUnits="userSpaceOnUse">
<stop stop-color="#35DE90"/>
<stop offset="0.0143073" stop-color="#40E096"/>
<stop offset="0.0835316" stop-color="#72E8B2"/>
<stop offset="0.1543" stop-color="#9EEFC9"/>
<stop offset="0.2254" stop-color="#C1F5DD"/>
<stop offset="0.2969" stop-color="#DCF9EC"/>
<stop offset="0.369" stop-color="#F0FCF6"/>
<stop offset="0.4422" stop-color="#FBFEFD"/>
<stop offset="0.518" stop-color="white"/>
<stop offset="0.5826" stop-color="#FCFAFE"/>
<stop offset="0.659" stop-color="#F5ECFD"/>
<stop offset="0.7416" stop-color="#E8D4FA"/>
<stop offset="0.8284" stop-color="#D7B2F7"/>
<stop offset="0.9177" stop-color="#C088F2"/>
<stop offset="1" stop-color="#A85AED"/>
</linearGradient>
<linearGradient id="paint5_linear_222_39213" x1="431.026" y1="442.774" x2="348.339" y2="215.646" gradientUnits="userSpaceOnUse">
<stop stop-color="#35DE90"/>
<stop offset="0.0143073" stop-color="#40E096"/>
<stop offset="0.0835316" stop-color="#72E8B2"/>
<stop offset="0.1543" stop-color="#9EEFC9"/>
<stop offset="0.2254" stop-color="#C1F5DD"/>
<stop offset="0.2969" stop-color="#DCF9EC"/>
<stop offset="0.369" stop-color="#F0FCF6"/>
<stop offset="0.4422" stop-color="#FBFEFD"/>
<stop offset="0.518" stop-color="white"/>
<stop offset="0.5826" stop-color="#FCFAFE"/>
<stop offset="0.659" stop-color="#F5ECFD"/>
<stop offset="0.7416" stop-color="#E8D4FA"/>
<stop offset="0.8284" stop-color="#D7B2F7"/>
<stop offset="0.9177" stop-color="#C088F2"/>
<stop offset="1" stop-color="#A85AED"/>
</linearGradient>
<linearGradient id="paint6_linear_222_39213" x1="71.6128" y1="323.321" x2="19.1997" y2="179.342" gradientUnits="userSpaceOnUse">
<stop stop-color="#A85AED"/>
<stop offset="0.039938" stop-color="#B573F0"/>
<stop offset="0.1169" stop-color="#CC9EF4"/>
<stop offset="0.1952" stop-color="#DEC1F8"/>
<stop offset="0.2741" stop-color="#EDDCFB"/>
<stop offset="0.3536" stop-color="#F7F0FD"/>
<stop offset="0.4344" stop-color="#FDFBFF"/>
<stop offset="0.518" stop-color="white"/>
<stop offset="0.652" stop-color="#FFF3FB"/>
<stop offset="0.8939" stop-color="#FED3F0"/>
<stop offset="1" stop-color="#FEC3EA"/>
</linearGradient>
<linearGradient id="paint7_linear_222_39213" x1="239.549" y1="262.185" x2="187.135" y2="118.206" gradientUnits="userSpaceOnUse">
<stop stop-color="#A85AED"/>
<stop offset="0.039938" stop-color="#B573F0"/>
<stop offset="0.1169" stop-color="#CC9EF4"/>
<stop offset="0.1952" stop-color="#DEC1F8"/>
<stop offset="0.2741" stop-color="#EDDCFB"/>
<stop offset="0.3536" stop-color="#F7F0FD"/>
<stop offset="0.4344" stop-color="#FDFBFF"/>
<stop offset="0.518" stop-color="white"/>
<stop offset="0.652" stop-color="#FFF3FB"/>
<stop offset="0.8939" stop-color="#FED3F0"/>
<stop offset="1" stop-color="#FEC3EA"/>
</linearGradient>
<linearGradient id="paint8_linear_222_39213" x1="400.662" y1="203.532" x2="348.248" y2="59.5544" gradientUnits="userSpaceOnUse">
<stop stop-color="#A85AED"/>
<stop offset="0.039938" stop-color="#B573F0"/>
<stop offset="0.1169" stop-color="#CC9EF4"/>
<stop offset="0.1952" stop-color="#DEC1F8"/>
<stop offset="0.2741" stop-color="#EDDCFB"/>
<stop offset="0.3536" stop-color="#F7F0FD"/>
<stop offset="0.4344" stop-color="#FDFBFF"/>
<stop offset="0.518" stop-color="white"/>
<stop offset="0.652" stop-color="#FFF3FB"/>
<stop offset="0.8939" stop-color="#FED3F0"/>
<stop offset="1" stop-color="#FEC3EA"/>
</linearGradient>
<clipPath id="clip0_222_39213">
<rect width="489.856" height="500" fill="white" transform="translate(5)"/>
</clipPath>
</defs>
</svg>
