<svg width="500" height="516" viewBox="0 0 500 516" fill="none" xmlns="http://www.w3.org/2000/svg"><g opacity=".1" filter="url(#empty__a)"><path d="M447.555 463.643c0 20.079-87.218 36.357-194.806 36.357-107.589 0-194.807-16.278-194.807-36.357s87.218-36.356 194.807-36.356c107.588 0 194.806 16.277 194.806 36.356Z" fill="#0A0F1A"/></g><path d="M236.386 282.824v-93.153l193.038 20.202-172.837 74.073-20.201-1.122Z" fill="#DDE3EC"/><path d="m237.509 189.671-179.57 37.037 51.626 44.892 125.699 23.569 2.245-105.498Z" fill="#E4EBF3"/><path d="M254.343 488.207V249.154L57.938 226.708l1.122 222.218 195.283 39.281Z" fill="#E4EBF3"/><path d="m254.343 249.154-44.893 90.907-195.283-35.914 43.77-77.439 196.406 22.446Z" fill="#F3F6FA"/><path d="M254.343 488.207V249.154l172.836-38.159v226.708l-172.836 50.504Z" fill="#F3F6FA"/><path d="m254.343 249.154 58.36 95.397 172.837-50.505-56.116-83.051-175.081 38.159Z" fill="#F8FBFB"/><path fill-rule="evenodd" clip-rule="evenodd" d="M248.656 77.356a296.904 296.904 0 0 0-5.5-1.805l.938-2.957c1.823.579 3.68 1.187 5.558 1.823l-.996 2.939Zm21.569 8.444a201.18 201.18 0 0 0-10.667-4.489l1.125-2.89a203.91 203.91 0 0 1 10.832 4.557l-1.29 2.822Zm19.781 11.518c-2.696-2.166-5.915-4.277-9.499-6.31l1.531-2.699c3.684 2.09 7.05 4.292 9.911 6.59l-1.943 2.419Zm7.241 17.859c1.813-3.288 1.671-6.479.016-9.696l2.759-1.42c2.074 4.032 2.308 8.323-.058 12.614l-2.717-1.498ZM279.6 128.234c4.035-1.827 7.338-3.647 9.992-5.448l1.742 2.567c-2.834 1.923-6.3 3.826-10.454 5.707l-1.28-2.826Zm-16.243 6.088a192.39 192.39 0 0 0 5.528-1.842l1.027 2.927c-1.785.626-3.657 1.25-5.617 1.872-2.193.695-4.345 1.381-6.457 2.058l-.947-2.955c2.115-.677 4.27-1.364 6.466-2.06Zm-32.091 10.525c4.046-1.389 8.305-2.819 12.777-4.293l.971 2.946a1085.328 1085.328 0 0 0-12.74 4.281l-1.008-2.934Zm-25.403 9.354c3.88-1.567 8.103-3.18 12.668-4.849l1.065 2.913a406.653 406.653 0 0 0-12.572 4.813l-1.161-2.877Zm-24.413 12.132c3.191-2.194 7.197-4.421 12.005-6.721l1.338 2.799c-4.721 2.258-8.572 4.407-11.586 6.478l-1.757-2.556Zm-3.16 23.941c-4.709-4.116-7.124-8.421-6.06-13.028l3.023.698c-.673 2.911.662 6.133 5.079 9.994l-2.042 2.336Zm17.503 10.886a154.944 154.944 0 0 1-6.068-3.194l1.511-2.71a150.507 150.507 0 0 0 5.923 3.118l4.841 2.234-1.3 2.817-4.885-2.255-.022-.01Zm24.361 11.244-9.727-4.49 1.3-2.816 9.727 4.489-1.3 2.817Zm19.454 8.978-9.727-4.489 1.3-2.817 9.727 4.489-1.3 2.817Zm14.59 6.734-4.863-2.244 1.3-2.817 4.863 2.244-1.3 2.817Z" fill="#B9CBD3"/><path d="M174.429.342a1.823 1.823 0 0 1 1.776-.197l99.953 40.336 11.841 4.914-35.778 14.485h-.039v.02l-9.571 33.41a1.975 1.975 0 0 1-3.296.848l-19.932-20.386-26.897 10.578a3.895 3.895 0 0 1-5.328-3.039L173.58 2.395a1.944 1.944 0 0 1 .849-2.053Zm57.959 68.142-.039-.138-.059.02.098.118Z" fill="#F3F6FA"/><path d="m219.383 73.773 19.931 20.385a2.176 2.176 0 0 1-.493-.888l-6.433-24.786-.099-.118-8.564 3.591-3.829 1.619-.513.197Z" fill="#DDE3EC"/><path d="m174.283.448 58.006 67.917.06-.02.039.139 6.433 24.785c.092.331.261.635.494.888a1.973 1.973 0 0 0 3.295-.848l9.572-33.41v-.02h.019v-.02L174.283.45Z" fill="#E4EBF3"/><defs><filter id="empty__a" x="41.942" y="411.287" width="421.612" height="104.713" filterUnits="userSpaceOnUse" color-interpolation-filters="sRGB"><feFlood flood-opacity="0" result="BackgroundImageFix"/><feBlend in="SourceGraphic" in2="BackgroundImageFix" result="shape"/><feGaussianBlur stdDeviation="8" result="effect1_foregroundBlur_10272_1680"/></filter></defs></svg>