<svg width="504" height="517" viewBox="0 0 504 517" fill="none" xmlns="http://www.w3.org/2000/svg">
<path d="M263.154 2.90161C137.592 -15.2694 21.0725 71.7886 2.90147 197.351C-15.2696 322.914 71.7885 439.433 197.351 457.604C322.914 475.775 439.433 388.717 457.604 263.154C475.775 137.592 388.717 21.0726 263.154 2.90161Z" fill="#B2DFFD" fill-opacity="0.5"/>
<g opacity="0.1" filter="url(#filter0_f_10272_1669)">
<path d="M447.251 485.92C447.251 493.544 353.519 499.724 237.895 499.724C122.271 499.724 28.5391 493.544 28.5391 485.92C28.5391 478.297 122.271 472.116 237.895 472.116C353.519 472.116 447.251 478.297 447.251 485.92Z" fill="#0A0F1A"/>
</g>
<path d="M341.074 73.0316H322.058C316.807 73.0316 312.55 77.2887 312.55 82.5397V163.926C312.493 167.969 309.953 171.559 306.16 172.958L274.804 183.321C263.297 187.32 255.563 198.141 255.504 210.323V443.833C255.504 449.084 259.761 453.341 265.012 453.341H341.074C367.329 453.341 388.612 432.058 388.612 405.803V120.57C388.612 94.3153 367.329 73.0316 341.074 73.0316Z" fill="#0D4FC1"/>
<g filter="url(#filter1_d_10272_1669)">
<path d="M230.248 140.225C230.248 133.466 235.728 127.986 242.487 127.986H367.295L442.747 202.669V386.76C442.747 393.52 437.268 399 430.508 399H242.487C235.728 399 230.248 393.52 230.248 386.76V140.225Z" fill="#FF5A60"/>
</g>
<path d="M367.296 127.215V196.605C367.296 199.985 370.036 202.725 373.416 202.725H442.805L367.296 127.215Z" fill="#CF5358"/>
<path d="M350.051 277.96C343.864 269.682 339.159 255.479 333.713 239.01C332.537 235.524 331.36 231.908 330.097 228.205C329.59 226.613 328.492 225.275 327.03 224.468C325.567 223.66 323.851 223.443 322.233 223.861C320.616 224.279 319.22 225.301 318.333 226.717C317.445 228.132 317.133 229.834 317.462 231.472C319.777 246.208 319.63 261.225 317.026 275.913C315.764 281.667 313.758 287.233 311.057 292.469C291.625 298.22 280.907 305.539 278.468 314.689C277.758 316.947 277.675 319.356 278.227 321.658C278.78 323.96 279.947 326.069 281.605 327.76C283.773 329.661 286.563 330.7 289.447 330.679C291.065 330.673 292.671 330.393 294.196 329.851C302.561 327.106 312.408 316.475 319.814 303.709C323.474 302.751 327.613 301.792 332.319 300.834C338.342 299.647 344.483 299.164 350.618 299.396C370.267 321.181 382.467 321.878 389.525 317.869C391.98 316.653 393.912 314.588 394.962 312.056C396.011 309.525 396.107 306.699 395.232 304.102C391.79 295.736 376.062 288.504 357.109 286.674C354.931 283.929 352.622 281.054 350.051 277.96ZM291.974 316.432C293.477 314.662 295.294 313.185 297.333 312.075C295.743 313.753 293.942 315.218 291.974 316.432ZM329.879 287.763L327.09 288.33C328.278 285.089 329.238 281.77 329.966 278.396C330.489 275.695 330.925 273.037 331.273 270.379C333.49 275.773 336.327 280.89 339.725 285.628C339.901 285.871 340.09 286.104 340.292 286.325C336.797 286.609 333.32 287.089 329.879 287.763Z" fill="#F8FBFB"/>
<path opacity="0.15" d="M287.445 225.191V399.277H263.229V167.971V128.592H344.491V178.793C344.433 190.976 336.698 201.797 325.191 205.795L293.834 216.159C290.041 217.558 287.502 221.149 287.445 225.191Z" fill="#1A2437"/>
<path d="M303.044 35.0001C276.876 34.9752 250.843 38.7607 225.765 46.2383L99.2738 84.2696C79.1176 90.2943 65.3186 108.85 65.3498 129.888V398.387C65.2928 418.274 77.6211 436.094 96.2503 443.054L205.818 484.128C218.674 488.913 232.281 491.367 245.998 491.373C261.75 491.373 274.521 478.602 274.521 462.849V210.324C274.578 206.282 277.117 202.691 280.91 201.292L312.267 190.928C323.774 186.929 331.509 176.108 331.567 163.926V63.5234C331.567 47.7705 318.797 35.0001 303.044 35.0001Z" fill="#0096FA"/>
<defs>
<filter id="filter0_f_10272_1669" x="12.5391" y="456.116" width="450.712" height="59.6074" filterUnits="userSpaceOnUse" color-interpolation-filters="sRGB">
<feFlood flood-opacity="0" result="BackgroundImageFix"/>
<feBlend mode="normal" in="SourceGraphic" in2="BackgroundImageFix" result="shape"/>
<feGaussianBlur stdDeviation="8" result="effect1_foregroundBlur_10272_1669"/>
</filter>
<filter id="filter1_d_10272_1669" x="220.837" y="113.869" width="231.322" height="289.836" filterUnits="userSpaceOnUse" color-interpolation-filters="sRGB">
<feFlood flood-opacity="0" result="BackgroundImageFix"/>
<feColorMatrix in="SourceAlpha" type="matrix" values="0 0 0 0 0 0 0 0 0 0 0 0 0 0 0 0 0 0 127 0" result="hardAlpha"/>
<feOffset dy="-4.70565"/>
<feGaussianBlur stdDeviation="4.70565"/>
<feColorMatrix type="matrix" values="0 0 0 0 0.374547 0 0 0 0 0.481553 0 0 0 0 0.601935 0 0 0 0.15 0"/>
<feBlend mode="normal" in2="BackgroundImageFix" result="effect1_dropShadow_10272_1669"/>
<feBlend mode="normal" in="SourceGraphic" in2="effect1_dropShadow_10272_1669" result="shape"/>
</filter>
</defs>
</svg>
