<svg width="500" height="500" viewBox="0 0 500 500" fill="none" xmlns="http://www.w3.org/2000/svg"><path d="M116.233 410.277H95.301c-5.706 0-10.332 4.626-10.332 10.332s4.626 10.332 10.332 10.332h20.932c5.706 0 10.332-4.626 10.332-10.332s-4.626-10.332-10.332-10.332Zm-64.573 0a30.601 30.601 0 0 1-13.845-3.244c-5.106-2.55-11.314-.478-13.865 4.629-2.55 5.107-.479 11.315 4.629 13.866a51.906 51.906 0 0 0 23.08 5.413h1.798c5.306-.076 9.546-4.439 9.47-9.745a11.14 11.14 0 0 0-11.268-10.919Zm83.521-329.645a51.908 51.908 0 0 0-9.98-.972h-12.894c-5.706 0-10.332 4.627-10.332 10.333s4.626 10.332 10.332 10.332h12.894a30.288 30.288 0 0 1 5.992.578c.681.13 1.374.192 2.067.186 5.706.066 10.384-4.507 10.449-10.213a10.334 10.334 0 0 0-8.383-10.265l-.145.02Zm-64.738-.972H48.932a8.514 8.514 0 0 0-6.799 3.926c0-.434 0-.867.166-1.301 1.432-5.53-1.889-11.173-7.419-12.605-5.53-1.431-11.172 1.889-12.604 7.419a51.415 51.415 0 0 0-1.612 12.894c0 5.706 4.626 10.332 10.332 10.332a10.188 10.188 0 0 0 9.837-7.893 11.55 11.55 0 0 0 10.828 7.893h18.783c5.706 0 10.332-4.626 10.332-10.332-.001-5.706-4.627-10.332-10.333-10.332ZM179.03 410.277h-20.932c-5.706 0-10.332 4.626-10.332 10.332s4.626 10.332 10.332 10.332h20.932c5.706 0 10.332-4.626 10.332-10.332s-4.626-10.332-10.332-10.332Zm61.328-258.294c0-5.706-4.626-10.332-10.332-10.332h-20.932c-5.706 0-10.332 4.626-10.332 10.332s4.626 10.332 10.332 10.332h20.932c5.707-.001 10.332-4.626 10.332-10.332ZM10.332 267.968c5.706 0 10.332-4.626 10.332-10.332v-20.933c0-5.706-4.626-10.332-10.332-10.332S0 230.997 0 236.703v20.933c0 5.706 4.626 10.332 10.332 10.332Zm0-125.945c5.78-.168 10.368-4.921 10.332-10.704a30.999 30.999 0 0 1 3.864-15.043c2.816-4.963 1.076-11.269-3.887-14.084-4.963-2.816-11.269-1.077-14.085 3.887l-.109.196A51.951 51.951 0 0 0 0 131.319v.744c.032 5.535 4.544 9.996 10.08 9.964.084 0 .168-.001.252-.004Zm0 63.169c5.706 0 10.332-4.626 10.332-10.332v-20.932c0-5.706-4.626-10.333-10.332-10.333S0 168.222 0 173.929v20.932c0 5.705 4.626 10.331 10.332 10.331Zm10.331 157.105c0-5.706-4.626-10.332-10.332-10.332S0 356.591 0 362.297v16.985c0 1.653 0 3.286.228 4.897a10.333 10.333 0 0 0 10.332 9.361h.992c5.68-.534 9.853-5.571 9.32-11.253l-.002-.009a28.668 28.668 0 0 1-.206-2.996v-16.985Zm-10.331-31.533c5.706 0 10.332-4.626 10.332-10.332v-20.933c0-5.706-4.626-10.332-10.332-10.332S0 293.793 0 299.499v20.933c0 5.706 4.626 10.332 10.332 10.332Zm231.431 79.513h-20.891c-5.706 0-10.332 4.626-10.332 10.332s4.626 10.332 10.332 10.332h20.891c5.706 0 10.332-4.626 10.332-10.332s-4.626-10.332-10.332-10.332ZM156.402 127a52.366 52.366 0 0 0 7.769 14.754c3.424 4.565 9.901 5.49 14.465 2.066 4.565-3.424 5.49-9.9 2.066-14.464a31.707 31.707 0 0 1-4.67-8.885l-1.798-5.414-.744-2.066c-1.957-4.944-7.553-7.366-12.497-5.408a11.118 11.118 0 0 0-6.389 13.943l1.798 5.474Zm320.078 50.71a10.332 10.332 0 0 0 6.467-2.294c4.406-3.573 5.107-10.029 1.57-14.464a51.843 51.843 0 0 0-9.256-8.968v-10.332a10.208 10.208 0 0 0-8.947-10.063 10.208 10.208 0 0 0 8.947-10.043v-10.332c0-5.706-4.626-10.332-10.333-10.332-5.706 0-10.332 4.626-10.332 10.332v10.332a10.208 10.208 0 0 0 8.947 10.063 10.208 10.208 0 0 0-8.947 10.043v4.691a10.06 10.06 0 0 0-4.297 4.773c-2.145 5.278.388 11.296 5.661 13.452a30.985 30.985 0 0 1 12.398 9.278 10.341 10.341 0 0 0 8.122 3.864Zm9.917 207.771c-5.272-2.178-11.313.329-13.493 5.6a31.215 31.215 0 0 1-9.341 12.398c-4.594 3.384-5.575 9.852-2.191 14.446 3.385 4.594 9.852 5.575 14.446 2.191.198-.146.39-.299.577-.459a51.65 51.65 0 0 0 15.602-20.663c2.189-5.269-.308-11.316-5.579-13.505l-.021-.008Zm-56.223 24.796h-20.911c-5.706 0-10.332 4.626-10.332 10.332s4.626 10.332 10.332 10.332h20.932c5.706 0 10.332-4.626 10.332-10.332s-4.626-10.332-10.332-10.332h-.021Zm55.419-213.474c-5.706 0-10.332 4.627-10.332 10.333v20.932c0 5.706 4.626 10.332 10.332 10.332s10.332-4.627 10.332-10.333v-20.932c0-5.706-4.626-10.332-10.332-10.332Zm0 125.592c-5.706 0-10.332 4.626-10.332 10.332v20.932c0 5.706 4.626 10.332 10.332 10.332s10.332-4.627 10.332-10.333v-20.932c0-5.706-4.626-10.331-10.332-10.331Zm0-62.796c-5.706 0-10.332 4.626-10.332 10.332v20.932c0 5.706 4.626 10.333 10.332 10.333s10.332-4.627 10.332-10.334V269.93c0-5.706-4.626-10.331-10.332-10.331ZM365.929 151.983c0-5.706-4.626-10.332-10.332-10.332h-20.849c-5.706 0-10.332 4.626-10.332 10.332s4.626 10.332 10.332 10.332h20.933c5.673-.046 10.248-4.658 10.248-10.332Zm-62.794 0c0-5.706-4.626-10.332-10.332-10.332H271.87c-5.706 0-10.332 4.626-10.332 10.332s4.626 10.332 10.332 10.332h20.933c5.706-.001 10.332-4.626 10.332-10.332Zm1.466 258.294h-20.912c-5.706 0-10.332 4.626-10.332 10.332s4.626 10.332 10.332 10.332h20.933c5.706 0 10.332-4.626 10.332-10.332s-4.626-10.332-10.332-10.332h-.021Zm62.796 0h-20.932c-5.706 0-10.332 4.626-10.332 10.332s4.626 10.332 10.332 10.332h20.932c5.706 0 10.332-4.626 10.332-10.332-.001-5.706-4.626-10.332-10.332-10.332Zm61.331-258.294c0-5.706-4.626-10.332-10.332-10.332h-20.953c-5.706 0-10.332 4.626-10.332 10.332s4.626 10.332 10.332 10.332h20.953c5.706-.001 10.332-4.626 10.332-10.332ZM58.251 61.456c1.19.003 2.371-.2 3.492-.6a30.97 30.97 0 0 1 7.48-1.694c5.707-.57 9.87-5.658 9.3-11.364-.571-5.706-5.66-9.87-11.365-9.299a52.054 52.054 0 0 0-12.398 2.81c-5.375 1.915-8.18 7.825-6.265 13.2a10.331 10.331 0 0 0 9.757 6.865v.082Zm252.713-2.459h22.048c5.706 0 10.332-4.626 10.332-10.332s-4.626-10.332-10.332-10.332h-22.048c-5.706 0-10.332 4.626-10.332 10.332s4.626 10.332 10.332 10.332Zm-66.205 0h22.068c5.707 0 10.333-4.626 10.333-10.332s-4.626-10.332-10.333-10.332h-22.068c-5.706 0-10.332 4.626-10.332 10.332s4.626 10.332 10.332 10.332Zm132.392 0h22.069c5.706 0 10.332-4.626 10.332-10.332s-4.626-10.332-10.332-10.332h-22.069c-5.706 0-10.332 4.626-10.332 10.332s4.626 10.332 10.332 10.332ZM134.438 38.333h-22.089c-5.706 0-10.332 4.626-10.332 10.332s4.626 10.332 10.332 10.332h22.089c5.706 0 10.332-4.626 10.332-10.332s-4.626-10.332-10.332-10.332Zm44.134 20.664h22.049c5.706 0 10.332-4.626 10.332-10.332s-4.626-10.332-10.332-10.332h-22.049c-5.706 0-10.332 4.626-10.332 10.332s4.626 10.332 10.332 10.332ZM458.731 78.4c5.706 0 10.332-4.626 10.332-10.332 0-1.936-.544-3.833-1.57-5.475a51.656 51.656 0 0 0-20.023-18.494c-5.066-2.63-11.307-.655-13.937 4.412-2.631 5.067-.656 11.308 4.412 13.938a31.002 31.002 0 0 1 12.026 11.076 10.33 10.33 0 0 0 8.76 4.875Z" fill="#B9CBD3"/></svg>