<svg width="500" height="516" viewBox="0 0 500 516" fill="none" xmlns="http://www.w3.org/2000/svg"><path d="M291.912 11.42c32.514-14.767 73.244-15.922 104.859.714 31.616 16.636 48.212 66.133 43.124 101.743-3.101 21.614-15.209 42.073-13.032 63.796 3.21 31.816 34.472 51.752 52.701 77.875 24.487 35.115 24.242 84.997 2.204 121.707-22.038 36.71-63.693 59.616-106.11 61.871-42.417 2.255-84.834-15.042-116.395-43.805-19.045-17.296-33.166-40.037-54.007-54.996-53.219-38.223-144.555 9.074-179.054-24.254-46.254-44.629-18.23-114.667 11.509-135.703 61.38-43.42 101.838 2.392 155.764-20.184 19.889-8.249 39.478-21.146 48.13-41.082 8.163-19.029 4.408-79.36 50.335-107.738" fill="#B9CBD3" style="mix-blend-mode:luminosity" opacity=".16"/><g opacity=".1" filter="url(#folder-6__a)"><path d="M430.745 486.998c0 7.181-71.708 13.002-160.165 13.002s-160.166-5.821-160.166-13.002c0-7.181 71.709-13.002 160.166-13.002s160.165 5.821 160.165 13.002Z" fill="#0A0F1A"/></g><path d="M388.851 94.563H198.336c-12.141 0-21.982 9.842-21.982 21.982V131.2a7.327 7.327 0 0 0 7.327 7.328h77.379a7.445 7.445 0 0 1 6.976 4.924l7.972 24.181a22.173 22.173 0 0 0 20.81 14.86h106.688a7.328 7.328 0 0 0 7.328-7.328v-58.62c0-12.14-9.842-21.982-21.983-21.982Z" fill="#FFCD6B"/><path d="M403.508 167.838H296.819a7.561 7.561 0 0 1-6.976-4.924l-7.972-24.166a22.16 22.16 0 0 0-20.81-14.875h-77.378c-12.141 0-21.983 9.842-21.983 21.983V277.75c0 12.141 9.842 21.983 21.983 21.983h219.825c12.14 0 21.982-9.842 21.982-21.983v-87.93c0-12.14-9.842-21.982-21.982-21.982Z" fill="#FCDA97"/><path d="M300.924 241.113H110.408c-12.14 0-21.982 9.842-21.982 21.983v14.654a7.328 7.328 0 0 0 7.328 7.328h77.378a7.445 7.445 0 0 1 6.976 4.924l7.972 24.181a22.173 22.173 0 0 0 20.81 14.86h106.688a7.328 7.328 0 0 0 7.328-7.328v-58.619c0-12.141-9.842-21.983-21.982-21.983Z" fill="#B9CBD3"/><path d="M146.489 128.401a7.334 7.334 0 0 0-1.598-2.389l-29.31-29.31a7.327 7.327 0 0 0-10.361 10.361l16.809 16.809h-11.621c-20.234 0-36.638 16.403-36.638 36.638v58.619a7.328 7.328 0 0 0 14.656 0V160.51c0-12.141 9.842-21.983 21.982-21.983h11.622l-16.81 16.795a7.327 7.327 0 0 0-.18 10.361 7.327 7.327 0 0 0 10.541 0l29.31-29.31a7.328 7.328 0 0 0 1.598-7.987v.015Zm271.676 185.986a7.327 7.327 0 0 0-7.327 7.328v58.619c0 12.141-9.842 21.983-21.983 21.983h-11.621l16.795-16.795a7.328 7.328 0 0 0-10.361-10.361l-29.31 29.31a7.327 7.327 0 0 0 0 10.376l29.31 29.31a7.328 7.328 0 0 0 10.361-10.36l-16.794-16.825h11.621c20.234 0 36.637-16.403 36.637-36.638v-58.619a7.328 7.328 0 0 0-7.328-7.328Z" fill="#607B99"/><path d="M315.578 314.387H208.889a7.562 7.562 0 0 1-6.976-4.924l-7.972-24.166a22.158 22.158 0 0 0-20.81-14.875H95.753c-12.14 0-21.983 9.842-21.983 21.983V424.3c0 12.14 9.843 21.982 21.983 21.982h219.825c12.14 0 21.982-9.842 21.982-21.982v-87.93c0-12.141-9.842-21.983-21.982-21.983Z" fill="#D2DFE6"/><defs><filter id="folder-6__a" x="94.414" y="457.996" width="352.331" height="58.005" filterUnits="userSpaceOnUse" color-interpolation-filters="sRGB"><feFlood flood-opacity="0" result="BackgroundImageFix"/><feBlend in="SourceGraphic" in2="BackgroundImageFix" result="shape"/><feGaussianBlur stdDeviation="8" result="effect1_foregroundBlur_10272_1671"/></filter></defs></svg>