<svg width="500" height="500" viewBox="0 0 500 500" fill="none" xmlns="http://www.w3.org/2000/svg">
<g opacity="0.1" filter="url(#filter0_f_10272_1666)">
<path d="M458.763 464.01C458.763 471.839 365.008 478.185 249.355 478.185C133.703 478.185 39.9482 471.839 39.9482 464.01C39.9482 456.181 133.703 449.834 249.355 449.834C365.008 449.834 458.763 456.181 458.763 464.01Z" fill="#0A0F1A"/>
</g>
<path d="M282.154 11.9016C156.592 -6.26942 40.0725 80.7886 21.9015 206.351C3.73044 331.914 90.7885 448.433 216.351 466.604C341.914 484.775 458.433 397.717 476.604 272.154C494.775 146.592 407.717 30.0726 282.154 11.9016Z" fill="#B2DFFD" fill-opacity="0.5"/>
<path d="M385.516 159.887H113.909C91.9023 159.851 74.0331 177.662 73.9971 199.669C73.9941 201.459 74.1117 203.248 74.3499 205.022C74.9161 209.397 78.922 212.485 83.298 211.919C84.3637 211.781 85.3904 211.43 86.3169 210.885C89.8413 208.835 93.8547 207.775 97.9319 207.818H154.81C165.075 207.846 174.194 214.374 177.529 224.082L178.887 228.459C184.384 244.731 199.625 255.701 216.8 255.748H401.494C405.683 255.751 409.798 256.853 413.429 258.943C414.655 259.659 416.051 260.033 417.471 260.03C421.882 260.03 425.459 256.453 425.459 252.041V199.829C425.459 177.769 407.577 159.887 385.516 159.887Z" fill="#0D4FC1"/>
<path d="M421.513 245.172C415.436 241.63 408.527 239.767 401.493 239.771H216.8C206.535 239.743 197.416 233.214 194.081 223.507L192.723 219.13C187.226 202.858 171.985 191.888 154.81 191.841H97.9314C91.0675 191.775 84.313 193.557 78.3756 197.002C65.784 204.049 57.9855 217.353 57.9893 231.783V423.507C57.9893 445.566 75.872 463.449 97.9314 463.449H401.493C423.553 463.449 441.435 445.566 441.435 423.507V279.714C441.485 265.456 433.879 252.269 421.513 245.172Z" fill="#0096FA"/>
<defs>
<filter id="filter0_f_10272_1666" x="23.9482" y="433.834" width="450.814" height="60.3506" filterUnits="userSpaceOnUse" color-interpolation-filters="sRGB">
<feFlood flood-opacity="0" result="BackgroundImageFix"/>
<feBlend mode="normal" in="SourceGraphic" in2="BackgroundImageFix" result="shape"/>
<feGaussianBlur stdDeviation="8" result="effect1_foregroundBlur_10272_1666"/>
</filter>
</defs>
</svg>
