<svg width="500" height="504" fill="none" xmlns="http://www.w3.org/2000/svg"><path d="M292.319 23.169c32.745-14.874 73.766-16.037 105.607.72 31.842 16.756 48.557 66.611 43.433 102.479-3.124 21.77-15.318 42.376-13.126 64.257 3.233 32.046 34.718 52.126 53.078 78.438 24.662 35.369 24.415 85.612 2.219 122.587-22.195 36.976-64.148 60.048-106.868 62.319-42.72 2.271-85.439-15.151-117.226-44.122-19.181-17.421-33.403-40.327-54.393-55.394-53.598-38.499-145.587 9.14-180.333-24.429-46.584-44.952-18.36-115.496 11.59-136.685 61.82-43.733 102.566 2.41 156.877-20.329 20.031-8.309 39.76-21.299 48.474-41.38 8.221-19.166 4.439-79.933 50.694-108.517" fill="#B9CBD3" style="mix-blend-mode:luminosity" opacity=".16"/><g opacity=".1" filter="url(#folder-7__a)"><path d="M421.25 474.792c0 7.249-72.194 13.125-161.25 13.125s-161.25-5.876-161.25-13.125 72.194-13.125 161.25-13.125 161.25 5.876 161.25 13.125Z" fill="#0A0F1A"/></g><path d="M391.451 166.667h-263.46c-21.346-.035-38.679 17.241-38.714 38.588a38.536 38.536 0 0 0 .343 5.193 7.749 7.749 0 0 0 11.608 5.687 21.937 21.937 0 0 1 11.266-2.975h55.172a23.37 23.37 0 0 1 22.038 15.776l1.317 4.246a38.928 38.928 0 0 0 36.776 26.47h179.152a23.243 23.243 0 0 1 11.577 3.1 7.747 7.747 0 0 0 3.921 1.054 7.75 7.75 0 0 0 7.749-7.749v-50.646c0-21.398-17.347-38.744-38.745-38.744Z" fill="#409BBF"/><path d="M426.368 249.393a38.515 38.515 0 0 0-19.419-5.239H227.796a23.37 23.37 0 0 1-22.037-15.776l-1.317-4.246a38.93 38.93 0 0 0-36.776-26.47h-55.172a37.072 37.072 0 0 0-18.97 5.006 38.65 38.65 0 0 0-19.774 33.738v185.972c0 21.397 17.346 38.744 38.744 38.744h294.455c21.398 0 38.744-17.347 38.744-38.744V282.899a38.478 38.478 0 0 0-19.325-33.506Z" fill="#2CC3D5"/><path d="M259.671 293.068c-20.634 0-37.454 16.82-37.454 37.454v20.883a3.372 3.372 0 0 0 3.405 3.405h13.619a3.372 3.372 0 0 0 3.405-3.405v-20.883c0-9.397 7.627-17.024 17.024-17.024 9.398 0 17.025 7.627 17.025 17.024v6.81a3.372 3.372 0 0 0 3.405 3.405h13.619a3.372 3.372 0 0 0 3.405-3.405v-6.81c0-20.634-16.82-37.454-37.453-37.454Z" fill="#D2DFE6"/><path d="M259.677 293.068c20.634 0 37.454 16.82 37.454 37.454v20.883a3.372 3.372 0 0 1-3.405 3.405h-13.62a3.37 3.37 0 0 1-3.404-3.405v-20.883c0-9.397-7.627-17.024-17.025-17.024-9.397 0-17.024 7.627-17.024 17.024v6.81a3.372 3.372 0 0 1-3.405 3.405h-13.619a3.372 3.372 0 0 1-3.405-3.405v-6.81c-.001-20.634 16.819-37.454 37.453-37.454Z" fill="#D2DFE6"/><path d="M293.717 348.003H225.62a10.202 10.202 0 0 0-10.215 10.215v40.858a10.201 10.201 0 0 0 10.215 10.215h68.098a10.2 10.2 0 0 0 10.214-10.215v-40.858a10.201 10.201 0 0 0-10.215-10.215Z" fill="#F9B42F"/><path d="M269.884 371.838c0 4.427-2.86 8.172-6.81 9.602v10.827c0 2.248-1.702 3.405-3.404 3.405-1.703 0-3.405-1.157-3.405-3.405V381.44c-3.95-1.43-6.81-5.175-6.81-9.602a10.201 10.201 0 0 1 10.215-10.215 10.2 10.2 0 0 1 10.214 10.215Z" fill="#CB9733"/><defs><filter id="folder-7__a" x="82.75" y="445.667" width="354.5" height="58.25" filterUnits="userSpaceOnUse" color-interpolation-filters="sRGB"><feFlood flood-opacity="0" result="BackgroundImageFix"/><feBlend in="SourceGraphic" in2="BackgroundImageFix" result="shape"/><feGaussianBlur stdDeviation="8" result="effect1_foregroundBlur_10272_1672"/></filter></defs></svg>