<svg width="501" height="500" fill="none" xmlns="http://www.w3.org/2000/svg"><path d="M293.319 27.95c32.745-15.716 73.766-16.946 105.607.761 31.842 17.707 48.557 70.389 43.433 108.291-3.124 23.004-15.318 44.779-13.126 67.901 3.233 33.862 34.718 55.081 53.078 82.886 24.662 37.374 24.415 90.466 2.219 129.538-22.195 39.073-64.148 63.453-106.868 65.853-42.72 2.4-85.439-16.01-117.226-46.624-19.181-18.409-33.403-42.614-54.393-58.535-53.598-40.682-145.587 9.658-180.333-25.814-46.584-47.502-18.36-122.046 11.59-144.436 61.82-46.214 102.566 2.546 156.877-21.483 20.031-8.78 39.76-22.506 48.474-43.726 8.221-20.253 4.439-84.466 50.694-114.67" fill="#B9CBD3" style="mix-blend-mode:luminosity" opacity=".16"/><path d="M414.13 272.658c0 72.247-58.499 130.814-130.661 130.814s-130.66-58.567-130.66-130.814c0-72.247 58.498-130.815 130.66-130.815S414.13 200.411 414.13 272.658Z" fill="#F9B42F"/><path fill-rule="evenodd" clip-rule="evenodd" d="M332.295 264.981h-3.604 3.604-3.604 3.604a14.479 14.479 0 0 1 0-2.124c.141-1.08.402-2.142.778-3.166.285-.811.655-1.59 1.106-2.325a6.869 6.869 0 0 1 2.457-2.485 8.828 8.828 0 0 1 4.627-1.083 10.825 10.825 0 0 1 3.112.401 6.412 6.412 0 0 1 3.072 1.964 8.774 8.774 0 0 1 1.515 2.365c.57 1.278.956 2.627 1.146 4.008.059.734.059 1.471 0 2.205a5.27 5.27 0 0 0 .272 2.193 5.353 5.353 0 0 0 1.151 1.901 5.471 5.471 0 0 0 1.835 1.286 5.589 5.589 0 0 0 4.418 0 5.471 5.471 0 0 0 1.835-1.286 5.353 5.353 0 0 0 1.151-1.901 5.254 5.254 0 0 0 .272-2.193 29.713 29.713 0 0 0-.327-4.008 28.447 28.447 0 0 0-1.311-5.131 23.109 23.109 0 0 0-2.17-4.409 17.836 17.836 0 0 0-6.184-5.972 19.892 19.892 0 0 0-9.582-2.445 21.986 21.986 0 0 0-6.429.922 17.918 17.918 0 0 0-8.19 5.331 20.24 20.24 0 0 0-3.276 5.25 27.612 27.612 0 0 0-2.007 6.975 24.607 24.607 0 0 0-.287 3.687 5.284 5.284 0 0 0 .318 2.185 5.345 5.345 0 0 0 1.188 1.876 5.499 5.499 0 0 0 1.858 1.249 5.592 5.592 0 0 0 4.412-.081 5.46 5.46 0 0 0 1.809-1.317 5.352 5.352 0 0 0 1.116-1.917 5.27 5.27 0 0 0 .233-2.195m-110.124.299h-3.573 3.573-3.573 3.573a18.458 18.458 0 0 1 0-2.13 22.26 22.26 0 0 1 .772-3.175c.299-.805.666-1.585 1.096-2.33a7.306 7.306 0 0 1 2.64-2.572 8.587 8.587 0 0 1 4.588-1.085c1.043-.016 2.083.12 3.086.402a6.338 6.338 0 0 1 3.046 1.969 8.76 8.76 0 0 1 1.461 2.732c.53 1.294.911 2.642 1.137 4.019 0 1.205.204 2.13.204 2.21a5.366 5.366 0 0 0 1.477 3.896 5.455 5.455 0 0 0 3.842 1.69 5.566 5.566 0 0 0 3.934-1.629 5.42 5.42 0 0 0 1.588-3.917 26.141 26.141 0 0 0-.365-4.018 25.655 25.655 0 0 0-1.299-5.144 20.847 20.847 0 0 0-2.112-4.421 17.91 17.91 0 0 0-6.172-5.987 19.276 19.276 0 0 0-9.827-2.773c-2.16-.015-4.31.296-6.375.924a17.558 17.558 0 0 0-8.121 5.345 20.532 20.532 0 0 0-3.29 5.264 27.446 27.446 0 0 0-1.949 6.993 24.994 24.994 0 0 0-.284 3.697 5.367 5.367 0 0 0 1.622 3.836 5.458 5.458 0 0 0 3.901 1.549 5.495 5.495 0 0 0 3.829-1.702 5.405 5.405 0 0 0 1.49-3.884m89.666 26.207a30.62 30.62 0 0 1-5.785 10.136 26.231 26.231 0 0 1-7.974 6.35 29.124 29.124 0 0 1-25.479 0 23.877 23.877 0 0 1-6.305-4.753 31.413 31.413 0 0 1-5.451-7.835c-.52-1.114-.89-2.042-1.15-2.673l-.037-.854-1.854.52 1.854-.483-1.854.52 1.854-.483a4.317 4.317 0 0 0-1.944-2.863 4.3 4.3 0 0 0-6.109 1.673 4.323 4.323 0 0 0-.218 3.455 36.732 36.732 0 0 0 6.899 12.736 34.203 34.203 0 0 0 10.569 8.763 37.827 37.827 0 0 0 33.824 0 34.721 34.721 0 0 0 8.567-6.424 39.269 39.269 0 0 0 7.084-10.099 38.056 38.056 0 0 0 2.076-5.05 4.323 4.323 0 0 0-.377-3.289 4.324 4.324 0 0 0-2.59-2.058 4.308 4.308 0 0 0-3.284.378 4.327 4.327 0 0 0-2.056 2.593" fill="#2C2A46"/><g filter="url(#glad__a)"><path fill-rule="evenodd" clip-rule="evenodd" d="M217.814 314.516a13.268 13.268 0 0 1-12.266-8.206 13.309 13.309 0 0 1 2.878-14.486 13.261 13.261 0 0 1 14.469-2.882 13.282 13.282 0 0 1 5.959 4.896 13.303 13.303 0 0 1 2.237 7.385 13.3 13.3 0 0 1-3.888 9.4 13.269 13.269 0 0 1-9.389 3.893Z" fill="#F66689"/></g><g filter="url(#glad__b)"><path fill-rule="evenodd" clip-rule="evenodd" d="M354.447 314.516a13.268 13.268 0 0 1-12.266-8.206 13.309 13.309 0 0 1 2.878-14.486 13.272 13.272 0 0 1 14.469-2.882 13.282 13.282 0 0 1 5.959 4.896 13.303 13.303 0 0 1-1.652 16.785 13.268 13.268 0 0 1-9.388 3.893Z" fill="#F66689"/></g><path opacity=".3" fill-rule="evenodd" clip-rule="evenodd" d="M390.214 345.607c-23.726 24.322-56.843 39.42-93.482 39.42-72.162 0-130.661-58.567-130.661-130.814 0-28.103 8.852-54.137 23.916-75.458-23.003 23.58-37.178 55.83-37.178 91.394 0 72.247 58.498 130.815 130.66 130.815 44.092 0 83.083-21.865 106.745-55.357Z" fill="#BC8417"/><path d="M338.936 71.998a18.924 18.924 0 0 0-10.552 3.14 18.957 18.957 0 0 0-7.025 8.485 18.977 18.977 0 0 0 4.032 20.701 18.932 18.932 0 0 0 9.695 5.221 18.934 18.934 0 0 0 19.474-8.042 18.974 18.974 0 0 0-2.306-23.911 18.928 18.928 0 0 0-13.318-5.594Zm0 25.242a6.336 6.336 0 0 1-6.269-7.562 6.338 6.338 0 0 1 4.991-4.997 6.326 6.326 0 0 1 6.51 2.734 6.35 6.35 0 0 1-.811 7.968 6.33 6.33 0 0 1-4.421 1.857Z" fill="#10E5E5"/><path d="M100.702 326.79a4.975 4.975 0 0 0-1.369 3.484 4.916 4.916 0 0 0 1.369 3.541l.342.342 5.134 5.711a15.543 15.543 0 0 1 0 21.073 4.573 4.573 0 0 1-3.308 1.485 3.815 3.815 0 0 1-1.883-.457 4.105 4.105 0 0 1-1.426-1.028 5.2 5.2 0 0 1 0-7.024 5.202 5.202 0 0 0 0-7.025l-5.704-5.71a15.546 15.546 0 0 1 0-21.073l5.704-5.711a5.2 5.2 0 0 0 0-7.024l-5.704-5.711a15.542 15.542 0 0 1 0-21.073l5.704-5.711a5.198 5.198 0 0 0 0-7.024l-5.704-5.711a15.658 15.658 0 0 1 0-21.13l7.187-8.109.343-.4a5.256 5.256 0 0 0 .912-5.711 5.14 5.14 0 0 1 2.111-6.681 4.448 4.448 0 0 1 3.603-.269 4.445 4.445 0 0 1 2.614 2.496 15.484 15.484 0 0 1-2.624 17.132l-7.301 7.71a5.03 5.03 0 0 0-1.369 3.541 4.86 4.86 0 0 0 1.369 3.483l.342.343 5.134 5.711.97 1.142a15.718 15.718 0 0 1-.97 20.045l-5.704 5.711a4.97 4.97 0 0 0-1.37 3.483 4.914 4.914 0 0 0 1.37 3.541l.342.342 5.134 5.711a15.545 15.545 0 0 1 0 21.073l-5.134 5.711-.342.343.228-.572Z" fill="#F76556"/><path d="m472.105 314.288-8.385-5.711a19.09 19.09 0 0 1-5.019-25.984l5.704-8.509a6.285 6.285 0 0 0-1.654-8.624l-8.385-5.711a19.092 19.092 0 0 1-5.077-25.984l7.529-11.421a6.458 6.458 0 0 0-.285-7.31 6.279 6.279 0 0 1-1.668-4.79 6.29 6.29 0 0 1 2.41-4.462 6.05 6.05 0 0 1 4.529-1.2 6.028 6.028 0 0 1 4.027 2.4 19.03 19.03 0 0 1 .57 21.986l-7.472 11.422a6.346 6.346 0 0 0 1.768 8.68l8.385 5.711a19.09 19.09 0 0 1 5.077 25.984l-5.704 8.509a6.404 6.404 0 0 0 1.711 8.681l8.385 5.711a6.345 6.345 0 0 1 1.654 8.68 5.705 5.705 0 0 1-8.1 1.942Z" fill="#F9B42F"/><path d="M394.248 145.6c1.77 0 3.468-.704 4.719-1.957a6.683 6.683 0 0 0-4.719-11.406 6.67 6.67 0 0 0-4.719 1.957 6.683 6.683 0 0 0 4.719 11.406Z" fill="#21CC79"/><path d="M131.014 189.273a6.672 6.672 0 0 0 6.166-4.125 6.683 6.683 0 0 0-1.447-7.281 6.67 6.67 0 0 0-10.268 1.012 6.684 6.684 0 0 0-1.125 3.713c-.008.879.16 1.751.493 2.565a6.61 6.61 0 0 0 3.618 3.623 6.603 6.603 0 0 0 2.563.493Z" fill="#15AFB2"/><path d="M228.164 113.467a6.67 6.67 0 0 0 6.166-4.125 6.686 6.686 0 0 0-1.447-7.282 6.664 6.664 0 0 0-7.273-1.448 6.682 6.682 0 0 0-4.12 6.173 6.64 6.64 0 0 0 1.938 4.742 6.61 6.61 0 0 0 4.736 1.94Z" fill="#167491"/><path d="M434.861 159.154a6.672 6.672 0 0 0 6.166-4.125 6.693 6.693 0 0 0-1.447-7.282 6.672 6.672 0 0 0-11.392 4.725 6.735 6.735 0 0 0 6.673 6.682Z" fill="#15AFB2"/><path d="M284.385 80.843a6.67 6.67 0 0 0 4.719-1.957 6.688 6.688 0 0 0 0-9.449 6.67 6.67 0 0 0-4.719-1.957 6.612 6.612 0 0 0-6.13 4.129 6.625 6.625 0 0 0-.487 2.553 6.626 6.626 0 0 0 4.071 6.172c.807.336 1.672.51 2.546.51Z" fill="#F66689"/><path d="m168.617 126.431-6.959-3.598-6.959 3.598a3.71 3.71 0 0 1-5.362-3.826l1.369-7.596-5.704-5.368a3.601 3.601 0 0 1 .214-5.382 3.6 3.6 0 0 1 1.84-.786l7.757-1.085 3.48-6.91a3.706 3.706 0 0 1 6.617 0l3.479 6.91 7.929 1.085a3.593 3.593 0 0 1 2.974 2.434 3.596 3.596 0 0 1-.921 3.734l-5.704 5.368 1.312 7.596a3.709 3.709 0 0 1-1.519 3.545 3.706 3.706 0 0 1-3.843.281Z" fill="#FFCF33"/><defs><filter id="glad__a" x="200.312" y="283.705" width="35.006" height="35.036" filterUnits="userSpaceOnUse" color-interpolation-filters="sRGB"><feFlood flood-opacity="0" result="BackgroundImageFix"/><feBlend in="SourceGraphic" in2="BackgroundImageFix" result="shape"/><feGaussianBlur stdDeviation="2.113" result="effect1_foregroundBlur_10272_1653"/></filter><filter id="glad__b" x="336.944" y="283.705" width="35.006" height="35.036" filterUnits="userSpaceOnUse" color-interpolation-filters="sRGB"><feFlood flood-opacity="0" result="BackgroundImageFix"/><feBlend in="SourceGraphic" in2="BackgroundImageFix" result="shape"/><feGaussianBlur stdDeviation="2.113" result="effect1_foregroundBlur_10272_1653"/></filter></defs></svg>