<svg width="506" height="506" viewBox="0 0 506 506" fill="none" xmlns="http://www.w3.org/2000/svg">
<path d="M210.5 -1.29893e-05C99.7669 -3.30872e-06 10 89.7669 10 200.5C10 311.233 99.767 401 210.5 401C321.233 401 411 311.233 411 200.5C411 89.7669 321.233 -2.26699e-05 210.5 -1.29893e-05Z" fill="#B2DFFD"/>
<path d="M79.365 242.825L62.196 205.986L92.4509 180.302L120.636 240.779L79.365 242.825Z" fill="#8C3A03"/>
<path d="M103.831 295.321L86.6619 258.482L116.917 232.798L145.102 293.275L103.831 295.321Z" fill="#8C3A03"/>
<path d="M127.581 346.282L110.412 309.443L140.667 283.758L168.853 344.236L127.581 346.282Z" fill="#8C3A03"/>
<path d="M153.569 389.214L138.753 357.424L165.011 335.19L189.333 387.379L153.569 389.214Z" fill="#8C3A03"/>
<path d="M93.2602 174.925L82.5971 179.894C80.4645 180.888 78.0079 179.994 77.014 177.861L69.2402 161.181C68.2463 159.048 69.141 156.592 71.2736 155.598L81.9367 150.628C84.0693 149.634 86.5258 150.529 87.5197 152.661L95.2936 169.342C96.2875 171.474 95.3928 173.931 93.2602 174.925Z" fill="#0096FA"/>
<path d="M117.398 226.717L106.735 231.686C104.602 232.68 102.146 231.785 101.152 229.653L85.2846 195.607C84.2907 193.475 85.1854 191.018 87.318 190.024L97.9811 185.055C100.114 184.061 102.57 184.955 103.564 187.088L119.431 221.134C120.425 223.266 119.53 225.723 117.398 226.717Z" fill="#0096FA"/>
<path d="M315.682 162.026L305.019 166.995C302.887 167.989 300.43 167.094 299.436 164.962L283.569 130.916C282.575 128.783 283.47 126.327 285.603 125.333L296.266 120.363C298.398 119.369 300.855 120.264 301.849 122.397L317.716 156.442C318.71 158.575 317.739 161.067 315.682 162.026Z" fill="#0096FA"/>
<path d="M397.803 423.572L264.514 485.691C247.682 493.536 227.694 486.256 219.85 469.424L57.9487 122.036C50.1039 105.203 57.3835 85.2158 74.216 77.371L207.505 15.2516C224.337 7.40682 244.324 14.6864 252.169 31.5189L414.07 378.907C421.991 395.704 414.711 415.691 397.803 423.572Z" fill="url(#paint0_linear_10272_1662)"/>
<path d="M393.081 416.224L262.077 477.278C247.987 483.845 231.238 477.745 224.671 463.654L65.432 121.978C58.865 107.888 64.9653 91.1387 79.0558 84.5718L210.059 23.5174C224.15 16.9505 240.899 23.0507 247.466 37.1412L406.705 378.817C413.195 392.943 407.171 409.657 393.081 416.224Z" fill="url(#paint1_linear_10272_1662)"/>
<path d="M174.162 125.789C172.339 121.876 174.033 117.226 177.945 115.403L242.765 85.1937C246.677 83.3703 251.327 85.0638 253.15 88.9762L257.605 98.5354C258.213 99.8395 257.649 101.389 256.345 101.997L186.802 134.408C182.89 136.231 178.24 134.538 176.416 130.625L174.162 125.789Z" fill="white"/>
<path d="M198.829 146.048C197.006 142.136 192.356 140.442 188.443 142.266L116.497 175.796C112.584 177.62 110.891 182.27 112.714 186.182L117.169 195.741C117.777 197.045 119.327 197.61 120.631 197.002L197.3 161.27C201.213 159.447 202.906 154.797 201.083 150.885L198.829 146.048Z" fill="#B2DFFD"/>
<path d="M228.405 209.51C226.582 205.598 221.932 203.904 218.019 205.727L146.073 239.258C142.161 241.082 140.467 245.731 142.29 249.644L146.746 259.203C147.353 260.507 148.903 261.072 150.207 260.464L226.877 224.732C230.789 222.909 232.482 218.259 230.659 214.346L228.405 209.51Z" fill="#B2DFFD"/>
<path d="M169.973 191.251C168.15 187.339 169.843 182.689 173.755 180.866L267.082 137.371C270.995 135.547 275.644 137.241 277.468 141.153L287.182 161.996C287.79 163.301 287.225 164.851 285.921 165.458L187.872 211.154C183.959 212.978 179.309 211.284 177.486 207.372L169.973 191.251Z" fill="white"/>
<path d="M173.038 69.6028L137.622 86.1088C132.975 88.2741 127.504 86.2814 125.339 81.6353C123.173 76.9893 125.166 71.5179 129.812 69.3526L165.229 52.8466C169.875 50.6812 175.346 52.674 177.512 57.32C179.677 61.9661 177.684 67.4375 173.038 69.6028Z" fill="url(#paint2_linear_10272_1662)"/>
<path d="M170.605 63.7841C172.077 63.098 172.715 61.3482 172.029 59.8759C171.342 58.4037 169.593 57.7664 168.12 58.4526C166.648 59.1387 166.011 60.8885 166.697 62.3607C167.383 63.833 169.133 64.4703 170.605 63.7841Z" fill="#F5F5F5"/>
<path d="M340.574 220.015L338.552 219.002L395.744 341.718L404.422 343.544L405.93 327.186L366.695 246.447C361.134 235.002 351.952 225.711 340.574 220.015Z" fill="url(#paint3_linear_10272_1662)" fill-opacity="0.7"/>
<path d="M394.261 189.5L505.5 199.5L505.5 381.5L394.261 338.804L358.063 261.135L256.737 155.386L293.918 107.47L394.261 189.5Z" fill="#8C3A03"/>
<path fill-rule="evenodd" clip-rule="evenodd" d="M334.55 105.368C334.727 106.439 335.527 107.957 336.774 108.851C338.645 110.193 341.41 110.288 344.623 109.758C348.73 107.982 350.79 103.793 349.013 99.686L338.122 72.2052C346.854 75.9772 359.066 82.3403 373.739 92.8626C404.92 115.224 418.086 135.054 418.086 135.054C418.262 136.125 419.51 137.019 420.133 137.466C422.628 139.255 426.017 139.797 429.053 138.197C432.536 135.973 433.349 130.89 431.125 127.406C430.949 126.336 416.983 104.988 383.307 80.8373C368.914 70.5155 356.617 63.7665 347.169 59.4354L368.552 51.3708C372.659 49.5944 374.719 45.4054 372.943 41.2983C371.166 37.1913 366.977 35.1315 362.87 36.9079L322.518 52.3543C322.429 52.4189 322.34 52.4822 322.253 52.5445C319.929 53.4438 318.062 55.5498 317.423 58.1424C316.884 60.3297 317.485 62.4927 318.793 64.1681L334.55 105.368Z" fill="#1764E8"/>
<defs>
<linearGradient id="paint0_linear_10272_1662" x1="54.7016" y1="189.852" x2="481.19" y2="332.323" gradientUnits="userSpaceOnUse">
<stop stop-color="#1968F0"/>
<stop offset="0.2912" stop-color="#125BD8"/>
<stop offset="0.5885" stop-color="#0E51C6"/>
<stop offset="0.8048" stop-color="#0C4EC0"/>
</linearGradient>
<linearGradient id="paint1_linear_10272_1662" x1="-68.4785" y1="7.81613" x2="447.469" y2="441.247" gradientUnits="userSpaceOnUse">
<stop stop-color="white"/>
<stop offset="0.147721" stop-color="#F7FAFE"/>
<stop offset="0.304044" stop-color="#E2ECFD"/>
<stop offset="0.677979" stop-color="#FAFCFF"/>
<stop offset="0.967346" stop-color="#C5D9FB"/>
</linearGradient>
<linearGradient id="paint2_linear_10272_1662" x1="125.364" y1="72.8956" x2="193.632" y2="63.9377" gradientUnits="userSpaceOnUse">
<stop stop-color="#1968F0"/>
<stop offset="0.2106" stop-color="#1765EA"/>
<stop offset="0.4888" stop-color="#135CD9"/>
<stop offset="0.7855" stop-color="#0C4EC0"/>
</linearGradient>
<linearGradient id="paint3_linear_10272_1662" x1="309.988" y1="199.701" x2="382.969" y2="307.5" gradientUnits="userSpaceOnUse">
<stop stop-color="#98646D" stop-opacity="0.8"/>
<stop offset="1" stop-color="#98646D" stop-opacity="0"/>
</linearGradient>
</defs>
</svg>
