<svg width="500" height="500" viewBox="0 0 500 500" fill="none" xmlns="http://www.w3.org/2000/svg"><path d="M426.841 348.129s-95.835 127.864-204.102 145.263c-108.267 17.399-158.033-29.379-154.3-79.421 3.734-50.043 19.9-85.95-12.432-125.122-32.33-39.172-77.168-70.738-44.8-167.591C43.575 24.406 133.14-6.05 190.408 3.743c57.27 9.793 62.198 64.209 129.398 78.343 67.201 14.135 151.836-11.947 174.236 58.758 22.4 70.706-22.4 154.338-67.201 207.285Z" fill="#B9CBD3" style="mix-blend-mode:luminosity" opacity=".16"/><path d="M351.26 154.89c-6.081-15.962 2.28-34.205 18.243-39.526 15.962-6.081 34.205 2.281 39.525 18.243l53.208 146.701 30.405 16.722-76.772 144.421-41.045-25.083c-13.682 4.56-29.645 3.8-43.327-4.561l-25.844-15.962-65.382-39.29L351.26 154.89Z" fill="#CB8591"/><path d="M31.644 357.734c-13.997 0-25.344-11.347-25.344-25.344V185.174c0-13.997 11.347-25.344 25.344-25.344h347.428c13.997 0 25.344 11.347 25.344 25.344V332.39c0 13.997-11.347 25.344-25.344 25.344H31.644Z" fill="#1A2437"/><path d="M31.586 345.507c-7.635 0-13.824-6.189-13.824-13.824V185.556c0-7.635 6.189-13.824 13.824-13.824h346.597c7.634 0 13.824 6.189 13.824 13.824v146.127c0 7.635-6.19 13.824-13.824 13.824H31.586Z" fill="#2A6880"/><path opacity=".5" d="M17.267 210.124v-24.421c0-7.635 6.189-13.824 13.824-13.824h347.146c7.634 0 13.824 6.189 13.824 13.824v24.421H17.267Z" fill="#202C44"/><path d="M17.643 307.289v-96.77h3.739c6.015 0 10.892 4.876 10.892 10.891v74.987c0 6.015-4.877 10.892-10.892 10.892h-3.74Z" fill="#1A2437"/><path d="M23.017 250.474v29.257a1.29 1.29 0 0 0 2.581 0v-29.257a1.29 1.29 0 1 0-2.581 0Zm1.823-13.967a1.831 1.831 0 0 1 1.707 1.127 1.837 1.837 0 1 1-3.531.696 1.824 1.824 0 0 1 1.823-1.823Z" opacity=".2" fill="#F8FBFB"/><path fill-rule="evenodd" clip-rule="evenodd" d="M42.602 327.042c0-.493.399-.892.891-.892h329.994a.891.891 0 0 1 0 1.783H43.493a.891.891 0 0 1-.891-.891Z" fill="#D2DFE6" fill-opacity=".2"/><path fill-rule="evenodd" clip-rule="evenodd" d="M42.602 327.042c0-.493.399-.892.891-.892H66.44a.892.892 0 1 1 0 1.783H43.493a.891.891 0 0 1-.891-.891Z" fill="#fff"/><g filter="url(#hand-5__a)"><path fill-rule="evenodd" clip-rule="evenodd" d="M63.162 333.598a6.556 6.556 0 1 0 0-13.112 6.556 6.556 0 0 0 0 13.112Z" fill="#fff"/></g><path opacity=".3" d="M236.899 259.295c0 17.501-14.188 31.688-31.688 31.688-17.501 0-31.689-14.187-31.689-31.688 0-17.501 14.188-31.688 31.689-31.688 17.5 0 31.688 14.187 31.688 31.688Z" fill="#F8FBFB"/><path d="M220.019 258.297c1.189.686 1.189 2.402 0 3.089l-20.055 11.578c-1.189.687-2.675-.171-2.675-1.544v-23.158c0-1.373 1.486-2.23 2.675-1.544l20.055 11.579Z" fill="#F8FBFB"/><path d="M48.956 190.455c0 6.035-4.892 10.927-10.927 10.927-6.034 0-10.927-4.892-10.927-10.927 0-6.035 4.893-10.927 10.927-10.927 6.035 0 10.927 4.892 10.927 10.927Z" fill="#F99B45"/><path fill-rule="evenodd" clip-rule="evenodd" d="M57.01 186.084c0-.985.8-1.783 1.784-1.783h77.581a1.783 1.783 0 1 1 0 3.566H58.794a1.783 1.783 0 0 1-1.783-1.783Zm-.001 8.741c0-.985.798-1.783 1.783-1.783h33.874a1.783 1.783 0 1 1 0 3.567H58.792a1.784 1.784 0 0 1-1.783-1.784Zm315.472-.415a4.757 4.757 0 0 0 2.643.802 4.764 4.764 0 0 0 4.757-4.757 4.754 4.754 0 0 0-2.937-4.395 4.76 4.76 0 0 0-5.184 1.031 4.757 4.757 0 0 0 .721 7.319Zm.405-7.305a4.032 4.032 0 0 1 2.238-.679 4.032 4.032 0 0 1 3.35 6.267 4.032 4.032 0 0 1-6.198.61 4.02 4.02 0 0 1-.874-4.39 4.035 4.035 0 0 1 1.484-1.808Zm3.021 5.208a.462.462 0 0 0 .172.034h-.001a.46.46 0 0 0 .252-.076.461.461 0 0 0 .194-.468.451.451 0 0 0-.125-.233l-1.02-1.024v-1.912a.456.456 0 1 0-.911 0v2.1a.452.452 0 0 0 .135.322l1.157 1.158a.443.443 0 0 0 .147.099Z" fill="#8CA0B3"/><path d="M357.914 194.653a.91.91 0 0 1-.868-.697.897.897 0 0 1-.001-.396l.401-1.73a.457.457 0 0 1 .201-.289.46.46 0 0 1 .51.015.466.466 0 0 1 .184.3.474.474 0 0 1-.008.18l-.388 1.697 6.498-3.118-6.517-3.121.569 2.731 3.061-.069a.453.453 0 0 1 .341.77.459.459 0 0 1-.319.141l-3.087.076a.906.906 0 0 1-.883-.708l-.579-2.787a.89.89 0 0 1 .776-1.074.89.89 0 0 1 .484.084l6.578 3.15a.896.896 0 0 1 .371 1.284.896.896 0 0 1-.371.33l-6.556 3.141a.897.897 0 0 1-.397.09Zm-13.12.472a1.206 1.206 0 0 1-1.025-.575 1.119 1.119 0 0 1-.152-.558v-6.556a1.687 1.687 0 0 1 1.718-1.639h3.844a1.685 1.685 0 0 1 1.723 1.637v6.556a1.11 1.11 0 0 1-.557.965 1.205 1.205 0 0 1-1.191.02l-.039-.023-1.855-1.268-1.851 1.275-.038.023a1.212 1.212 0 0 1-.577.143Zm.546-8.454a.798.798 0 0 0-.832.763v6.556a.248.248 0 0 0 .034.119.245.245 0 0 0 .09.085.317.317 0 0 0 .298.013l1.896-1.302.038-.024a.832.832 0 0 1 .791 0l.038.024 1.896 1.302a.327.327 0 0 0 .298-.013.245.245 0 0 0 .09-.085.248.248 0 0 0 .034-.119v-6.556a.8.8 0 0 0-.832-.763h-3.839Z" fill="#8CA0B3"/><path d="m402.192 297.03-50.927-142.14c-6.081-15.962 2.28-34.205 18.242-39.526 15.963-6.081 34.205 2.281 39.526 18.243l53.208 146.701 30.404 16.722-76.771 144.421-13.682-144.421Z" fill="#CB8591"/><path d="m373.973 356.556-133.114 1.178c24.346 14.724 72.565 42.407 87.172 51.831 21.204 13.68 39.267 9.424 46.531 6.479l41.23 25.327 45.352-84.815-57.721-57.722v34.162c-3.299 18.376-21.008 23.363-29.45 23.56Z" fill="url(#hand-5__b)"/><defs><linearGradient id="hand-5__b" x1="338.633" y1="342.42" x2="397.533" y2="382.471" gradientUnits="userSpaceOnUse"><stop stop-color="#A8747D" stop-opacity=".5"/><stop offset="1" stop-color="#A8747D" stop-opacity="0"/></linearGradient><filter id="hand-5__a" x="51.256" y="315.136" width="23.812" height="23.812" filterUnits="userSpaceOnUse" color-interpolation-filters="sRGB"><feFlood flood-opacity="0" result="BackgroundImageFix"/><feColorMatrix in="SourceAlpha" values="0 0 0 0 0 0 0 0 0 0 0 0 0 0 0 0 0 0 127 0" result="hardAlpha"/><feOffset/><feGaussianBlur stdDeviation="2.675"/><feColorMatrix values="0 0 0 0 0.374547 0 0 0 0 0.481553 0 0 0 0 0.601935 0 0 0 0.3 0"/><feBlend in2="BackgroundImageFix" result="effect1_dropShadow_10272_1664"/><feBlend in="SourceGraphic" in2="effect1_dropShadow_10272_1664" result="shape"/></filter></defs></svg>