<svg width="500" height="500" fill="none" xmlns="http://www.w3.org/2000/svg"><path d="M419.629 371.156c20.797 5.631 61.086-19.997 60.419-51.105-.827-32.112-30.432-56.249-34.153-88.27-4.134-35.429 35.711-61.515 44.106-96.244 8.872-36.526-9.54-80.113-38.159-105.68-24.39-21.794-64.743-34.091-97.56-28.521-39.908 6.757-63.948 49.4-103.157 59.202-31.799 7.974-64.361-.761-95.397-11.232-23.532-7.975-43.661-8.005-65.475-9.131C66.245 38.896-7.56 73.656 9.547 142.903c5.47 22.25 27.633 36.83 48.748 47.452 21.115 10.623 51.26 35.947 66.778 53.236 25.249 27.973 16.758 52.597 15.9 89.549-.859 36.951-17.967 75.577 11.766 109.059 12.051 13.666 43.882 28.702 63.884 30.255 13.992 1.096 34.566-3.592 43.788-10.167 55.521-39.63 43.278-122.421 159.218-91.131Z" fill="#B9CBD3" style="mix-blend-mode:luminosity" opacity=".16"/><path d="m255.857 429.941 17.635 8.139 40.695 18.313 25.095 11.53c12.887 6.104 27.13 4.748 38.66-.678l39.339 18.991 56.294-134.294-33.234-14.921-63.755-123.441c-6.783-13.565-23.739-18.991-37.304-12.209-13.565 6.783-18.991 23.739-12.208 37.304l20.347 114.624-91.564 76.642Z" fill="#F3C29F"/><path d="m389.668 376.81-8.42-34.735-2.105 125.784 38.945 18.947-28.42-109.996Z" fill="url(#hand-2__a)"/><path d="M223.2 500c-22.637 0-41.962-16.564-45.275-39.753l-1.104-9.386c-.552-2.761 1.656-5.522 4.969-6.074 2.761-.552 5.521 1.657 6.074 4.969l1.104 9.387c2.208 18.772 19.876 32.023 38.649 29.815l9.386-1.105c2.761-.552 5.521 1.657 6.074 4.97.552 2.76-1.657 5.521-4.97 6.073L228.721 500H223.2Zm139.898-396.715c-2.761.133-5.076-1.971-5.761-4.706l-1.553-9.337c-1.554-9.337-6.894-16.832-14.339-22.012-7.444-5.18-16.965-7.492-25.75-5.965l-9.336 1.554c-2.736.684-5.603-1.393-6.314-4.68-.684-2.736 1.393-5.603 4.681-6.314l9.337-1.554c12.072-2.238 23.829.521 34.14 7.778 9.733 6.732 16.889 17.461 18.574 29.56l1.554 9.337c.684 2.735-1.393 5.602-4.68 6.313l-.553.026Z" fill="#8CA0B3"/><path d="M152.749 128.152c-2.568-15.487 7.905-30.123 23.392-32.69l131.99-21.885c15.486-2.568 30.122 7.905 32.69 23.392l53.431 322.257c2.568 15.487-7.905 30.123-23.392 32.691l-131.99 21.884c-15.486 2.568-30.122-7.905-32.69-23.392l-53.431-322.257Z" fill="#1A2437"/><path d="M164.059 124.372c-1.4-8.447 4.312-16.43 12.76-17.831l134.552-22.309c8.447-1.4 16.43 4.312 17.831 12.76l53.896 325.063c1.401 8.447-4.312 16.431-12.759 17.831l-134.552 22.309c-8.447 1.401-16.431-4.312-17.831-12.759l-53.897-325.064Z" fill="#F5F8F9"/><g opacity=".6"><mask id="hand-2__b" style="mask-type:alpha" maskUnits="userSpaceOnUse" x="163" y="84" width="221" height="379"><path d="M164.059 124.372c-1.4-8.447 4.312-16.43 12.76-17.831l134.552-22.31c8.447-1.4 16.43 4.313 17.831 12.76l53.896 325.064c1.401 8.447-4.312 16.43-12.759 17.831l-134.552 22.309c-8.447 1.401-16.431-4.312-17.831-12.759l-53.897-325.064Z" fill="#F5F8F9"/></mask><g mask="url(#hand-2__b)"><path d="M343.731 185.117a250.638 250.638 0 0 0-49.643 3.319c-29.443 4.881-53.169 14.142-66.981 26.131-27.915 24.338-24.743 65.2-20.359 87.395 4.532 22.959 15.2 54.205 40.025 72.679 19.915 14.833 59.864 17.991 87.42 13.464a15.817 15.817 0 0 1 11.849 2.674 15.847 15.847 0 0 1 6.472 10.288l1.749 10.55a1.835 1.835 0 0 0 1.335 1.476 1.836 1.836 0 0 0 1.895-.603c7.603-9.219 15.643-19.173 23.526-29.33 1.943-2.395 3.909-5.021 5.892-7.547 9.493-11.936 19.278-24.481 25.392-37.184 7.15-14.822 10.474-32.368 9.987-52.163a170.295 170.295 0 0 0-11.082-54.348c-10.891-28.847-34.848-45.455-67.477-46.801Z" fill="#E7EEF1"/></g></g><path d="M251.018 154.689a6.555 6.555 0 0 1 5.395-7.54l62.974-10.441a6.557 6.557 0 0 1 7.541 5.395l1.598 9.64a2.187 2.187 0 0 1-1.799 2.514l-67.286 11.156a6.556 6.556 0 0 1-7.54-5.395l-.883-5.329Z" fill="#DEE8EC"/><path d="M267.197 177.769a6.556 6.556 0 0 0-7.54-5.396l-69.823 11.577a6.555 6.555 0 0 0-5.395 7.54l1.598 9.64a2.186 2.186 0 0 0 2.513 1.799l74.135-12.292a6.556 6.556 0 0 0 5.396-7.54l-.884-5.328Zm10.11 60.988a6.557 6.557 0 0 0-7.541-5.396l-69.823 11.577a6.557 6.557 0 0 0-5.395 7.541l1.598 9.64a2.186 2.186 0 0 0 2.514 1.798l74.135-12.292a6.556 6.556 0 0 0 5.395-7.54l-.883-5.328Z" fill="#D2DFE6"/><path d="M231.938 209.376a6.555 6.555 0 0 1 5.395-7.54l90.37-14.984a6.556 6.556 0 0 1 7.54 5.396l3.397 20.484a2.187 2.187 0 0 1-1.799 2.514l-94.682 15.698a6.556 6.556 0 0 1-7.54-5.395l-2.681-16.173Z" fill="#DEE8EC"/><path d="M383.027 422.971c1.311 7.908-4.037 15.381-11.944 16.692l-136.561 22.642c-7.907 1.311-15.38-4.037-16.691-11.944l-1.663-10.027 165.196-27.39 1.663 10.027Z" fill="#F8FBFB"/><path fill-rule="evenodd" clip-rule="evenodd" d="m381.404 413.182-165.196 27.39-.079-.477 165.196-27.39.079.477Z" fill="#D2DFE6"/><path fill-rule="evenodd" clip-rule="evenodd" d="M231.626 445.507a5.012 5.012 0 0 0-4.06 3.795c-.225.962-.16 1.97.187 2.896a4.993 4.993 0 0 0 4.513 3.239 5 5 0 0 0 4.722-2.929 5.003 5.003 0 0 0-1.635-6.129 5.002 5.002 0 0 0-3.727-.872Zm1.529 9.324a4.415 4.415 0 0 1-3.295-.776 4.319 4.319 0 0 1-.971-.942 4.45 4.45 0 0 1 .023-5.389 4.459 4.459 0 0 1 7.362.418 4.455 4.455 0 0 1-3.107 6.687l-.012.002Z" fill="#2CC3D5"/><path fill-rule="evenodd" clip-rule="evenodd" d="M230.736 450.141a.54.54 0 0 0 .446-.409.54.54 0 0 0-.813-.591.542.542 0 0 0 .367 1Zm3.295-.546a.542.542 0 0 0 .421-.728.534.534 0 0 0-.192-.25.548.548 0 0 0-.812.216.544.544 0 0 0 .583.762Zm-1.526 3.068a2.58 2.58 0 0 1-2.035-.84l-.396.364a3.117 3.117 0 0 0 2.444 1.02c.116-.013.231-.032.345-.057a3.118 3.118 0 0 0 2.354-1.828l-.497-.216c-.19.439-.497.818-.888 1.093s-.85.436-1.327.464Z" fill="#2CC3D5"/><path d="M163.891 123.279c-1.311-7.907 4.037-15.38 11.944-16.691l136.508-22.633c7.908-1.311 15.381 4.036 16.692 11.943l.99 5.97-165.144 27.381-.99-5.97Z" fill="#2498A8"/><path d="m329.975 101.747-165.061 26.805 3.849 23.701 165.061-26.804-3.849-23.702Z" fill="#2CC3D5"/><path d="m321.914 114.388 2.091-2.98a.422.422 0 0 0-.121-.543.402.402 0 0 0-.541.06l-2.093 2.973-2.926-2.158a.404.404 0 0 0-.672.219.428.428 0 0 0 .197.449l2.925 2.16-2.09 2.98a.43.43 0 0 0-.013.462c.043.07.104.125.178.16a.4.4 0 0 0 .497-.133l2.093-2.975 2.927 2.16a.406.406 0 0 0 .302.074.406.406 0 0 0 .33-.314.417.417 0 0 0-.159-.433l-2.925-2.161ZM176.7 140.619a.275.275 0 0 1-.228-.069l-2.322-2.047a.595.595 0 0 1-.121-.742l1.555-2.676a.281.281 0 0 1 .386-.092.293.293 0 0 1 .105.391l-1.554 2.678 2.318 2.049a.292.292 0 0 1-.139.508Z" fill="#fff"/><path fill-rule="evenodd" clip-rule="evenodd" d="M190.296 143.895a7.22 7.22 0 0 0 3.818-1.904 7.473 7.473 0 0 0 2.125-3.757 7.662 7.662 0 0 0-.284-4.346 7.564 7.564 0 0 0-2.597-3.47 7.29 7.29 0 0 0-4.036-1.425 7.181 7.181 0 0 0-4.114 1.099 7.371 7.371 0 0 0-2.807 3.254 7.63 7.63 0 0 0-.554 4.312 7.613 7.613 0 0 0 2.977 4.892 7.274 7.274 0 0 0 5.472 1.345Z" fill="#2C2A46"/><path d="M190.361 131.658c-.729-.029-1.46.016-2.18.134-1.293.21-2.335.618-2.941 1.151-1.226 1.083-1.086 2.916-.893 3.913.199 1.031.667 2.435 1.758 3.271.875.671 2.629.824 3.839.63a.692.692 0 0 1 .708.326c.048.08.081.168.097.261l.077.473a.08.08 0 0 0 .104.066.08.08 0 0 0 .037-.026c.334-.411.687-.855 1.033-1.308.086-.107.172-.224.259-.336.417-.533.846-1.092 1.115-1.66.314-.662.46-1.448.438-2.336a7.804 7.804 0 0 0-.487-2.44c-.479-1.297-1.531-2.049-2.964-2.119Z" fill="#00C6D7"/><path opacity=".25" d="M193.728 135.749a4.042 4.042 0 0 1-.487 2.038c-.282.5-.72.99-1.146 1.465l-.265.298c-.355.402-.484.531-.826.896a.081.081 0 0 1-.076.024.093.093 0 0 1-.037-.019.086.086 0 0 1-.023-.035l-.121-.373c-.054-.335-.585-.323-.964-.263-1.21.197-2.956.099-3.813-.464-1.071-.706-1.506-1.916-1.683-2.806l-.008-.05.061.375c.199 1.031.668 2.435 1.759 3.271.874.671 2.629.825 3.839.63a.693.693 0 0 1 .707.327.712.712 0 0 1 .097.26l.077.474c.003.015.01.03.02.042a.08.08 0 0 0 .039.024.077.077 0 0 0 .083-.026c.334-.411.687-.855 1.033-1.308.085-.107.172-.224.259-.337.417-.532.846-1.091 1.115-1.659.314-.663.459-1.448.438-2.336a7.365 7.365 0 0 0-.125-1.137c.03.229.045.459.047.689Z" fill="#2D91AF"/><path opacity=".2" d="M188.899 132.943c.62.109 1.551-.015 2.343.338.293.127.689.161.766-.026.076-.187.012-.452-.392-.672-.463-.25-.906-.43-2.409-.352-.642.032-.776.629-.308.712Zm3.42 1.237a.323.323 0 0 0 .264-.374.323.323 0 0 0-.369-.272.323.323 0 0 0-.263.374c.029.179.194.3.368.272Z" fill="#fff"/><path d="M187.136 136.485a.368.368 0 0 0 .3-.427.37.37 0 0 0-.42-.31.37.37 0 0 0-.3.427.369.369 0 0 0 .42.31Zm3.793-.616a.37.37 0 0 0 .3-.427.369.369 0 0 0-.42-.31.369.369 0 0 0-.3.427.37.37 0 0 0 .42.31Zm-1.594 2.044c-.551.089-1.053-.03-1.25-.297a.141.141 0 0 1-.027-.097.144.144 0 0 1 .045-.089.119.119 0 0 1 .048-.023.131.131 0 0 1 .052-.004.143.143 0 0 1 .09.054c.112.153.498.271.992.191.493-.08.844-.325.885-.514a.135.135 0 0 1 .162-.103c.035.008.065.03.084.062a.14.14 0 0 1 .018.104c-.074.326-.531.623-1.099.716Z" fill="#167491"/><path d="M195.544 132.746c1.12-.182 1.877-1.258 1.691-2.403-.186-1.146-1.245-1.927-2.364-1.745-1.12.182-1.876 1.258-1.69 2.403.186 1.145 1.244 1.927 2.363 1.745Z" fill="#90E6BC"/><path fill-rule="evenodd" clip-rule="evenodd" d="M194.912 128.866c-.975.158-1.634 1.095-1.472 2.093.162.998 1.084 1.678 2.059 1.52.975-.159 1.634-1.096 1.472-2.094-.162-.997-1.084-1.678-2.059-1.519Zm-1.995 2.178c-.21-1.293.645-2.508 1.908-2.713 1.264-.205 2.459.677 2.669 1.97.21 1.292-.645 2.507-1.908 2.712-1.264.205-2.459-.676-2.669-1.969Z" fill="#2CC3D5"/><rect x="198.861" y="133.563" width="38.874" height="2.91" rx="1.455" transform="rotate(-9.224 198.861 133.563)" fill="#fff"/><path d="m197.826 102.942 91.963-15.248.307 1.853c1.104 6.656-3.397 12.946-10.053 14.049l-67.861 11.252c-6.655 1.103-12.945-3.397-14.049-10.053l-.307-1.853Z" fill="#1A2437"/><path d="m252.665 99.096-27.804 4.609a1.244 1.244 0 0 0 .407 2.454l27.804-4.61a1.244 1.244 0 0 0-.407-2.454Zm13.56-.468a1.767 1.767 0 0 1-2.773 1.74 1.767 1.767 0 0 1-.692-1.845 1.773 1.773 0 0 1 2.754-1.036c.379.27.635.681.711 1.14Z" opacity=".2" fill="#F8FBFB"/><path d="m381.33 343.126-54.26-104.45c-6.783-13.565-2.035-30.521 12.208-37.304 13.565-6.782 30.521-2.034 37.304 12.209l59.347 114.906a27.504 27.504 0 0 0 13.172 12.47c13.613 6.112 19.869 21.963 14.1 35.725l-45.924 109.555m-226.24-215.262-28.442 2.463c-12.088 1.046-22.13-7.401-23.175-19.493-1.045-12.092 7.4-22.139 19.488-23.186l28.442-2.462c12.088-1.047 22.131 7.4 23.176 19.493 1.044 12.092-7.401 22.139-19.489 23.185Z" fill="#F3C29F"/><path d="m191.037 270.975-28.442 2.463c-12.088 1.046-22.13-7.401-23.175-19.493-1.045-12.092 7.4-22.139 19.488-23.186l28.442-2.462c12.088-1.047 22.131 7.4 23.176 19.493 1.044 12.092-7.401 22.139-19.489 23.185Z" fill="url(#hand-2__c)"/><path d="m203.014 311.237-28.442 2.462c-12.088 1.047-22.131-7.4-23.176-19.492-1.044-12.093 7.4-22.14 19.488-23.186l28.443-2.462c12.088-1.047 22.13 7.4 23.175 19.492 1.045 12.093-7.4 22.14-19.488 23.186Z" fill="#F3C29F"/><path d="m203.014 311.237-28.442 2.462c-12.088 1.047-22.131-7.4-23.176-19.492-1.044-12.093 7.4-22.14 19.488-23.186l28.443-2.462c12.088-1.047 22.13 7.4 23.175 19.492 1.045 12.093-7.4 22.14-19.488 23.186Z" fill="url(#hand-2__d)"/><path d="m213.844 351.411-28.442 2.462c-12.088 1.047-22.131-7.4-23.176-19.492-1.044-12.092 7.401-22.14 19.489-23.186l28.442-2.462c12.088-1.047 22.131 7.4 23.175 19.492 1.045 12.093-7.4 22.14-19.488 23.186Z" fill="#F3C29F"/><path d="m213.844 351.412-28.442 2.462c-12.088 1.046-22.131-7.4-23.176-19.493-1.044-12.092 7.401-22.139 19.489-23.186l28.442-2.462c12.088-1.046 22.13 7.401 23.175 19.493 1.045 12.092-7.4 22.139-19.488 23.186Z" fill="url(#hand-2__e)"/><path d="m224.586 392.736-28.442 2.462c-12.088 1.047-22.131-7.4-23.175-19.492-1.045-12.093 7.4-22.14 19.488-23.186l28.442-2.463c12.088-1.046 22.131 7.401 23.175 19.493 1.045 12.092-7.4 22.14-19.488 23.186Z" fill="#F3C29F"/><path d="m224.586 392.736-28.442 2.462c-12.088 1.047-22.131-7.4-23.175-19.492-1.045-12.093 7.4-22.14 19.488-23.186l28.442-2.463c12.088-1.046 22.131 7.401 23.175 19.493 1.045 12.092-7.4 22.14-19.488 23.186Z" fill="url(#hand-2__f)"/><defs><linearGradient id="hand-2__a" x1="383.115" y1="346.705" x2="401.702" y2="472.287" gradientUnits="userSpaceOnUse"><stop stop-color="#E8AA7D"/><stop offset="1" stop-color="#E8AA7D" stop-opacity="0"/></linearGradient><linearGradient id="hand-2__c" x1="177.958" y1="289.98" x2="175.142" y2="257.451" gradientUnits="userSpaceOnUse"><stop stop-color="#E8AA7D"/><stop offset="1" stop-color="#E8AA7D" stop-opacity="0"/></linearGradient><linearGradient id="hand-2__d" x1="189.935" y1="330.242" x2="187.119" y2="297.713" gradientUnits="userSpaceOnUse"><stop stop-color="#E8AA7D"/><stop offset="1" stop-color="#E8AA7D" stop-opacity="0"/></linearGradient><linearGradient id="hand-2__e" x1="200.765" y1="370.417" x2="197.949" y2="337.888" gradientUnits="userSpaceOnUse"><stop stop-color="#E8AA7D"/><stop offset="1" stop-color="#E8AA7D" stop-opacity="0"/></linearGradient><linearGradient id="hand-2__f" x1="211.507" y1="411.741" x2="208.691" y2="379.212" gradientUnits="userSpaceOnUse"><stop stop-color="#E8AA7D"/><stop offset="1" stop-color="#E8AA7D" stop-opacity="0"/></linearGradient></defs></svg>