<svg width="500" height="500" fill="none" xmlns="http://www.w3.org/2000/svg"><path d="M426.841 348.283S331.006 475.834 222.739 493.19c-108.267 17.357-158.033-29.307-154.3-79.227 3.734-49.919 19.9-85.739-12.432-124.815-32.33-39.077-77.168-70.565-44.8-167.181C43.575 25.351 133.14-5.031 190.408 4.738c57.27 9.77 62.198 64.053 129.398 78.153 67.201 14.1 151.836-11.919 174.236 58.614 22.4 70.532-22.4 153.96-67.201 206.778Z" fill="#B9CBD3" style="mix-blend-mode:luminosity" opacity=".16"/><path fill-rule="evenodd" clip-rule="evenodd" d="M333.262 107.656c.519.519 1.558 1.038 2.597 1.038 1.558 0 3.116-1.038 4.674-2.597 1.559-2.596 1.039-5.713-1.558-7.271l-16.829-10.819c6.291-1.369 15.517-2.686 27.737-2.686 25.969 0 41.032 5.713 41.032 5.713.519.52 1.558.52 2.077.52 2.078 0 4.155-1.04 5.194-3.117 1.039-2.597-.519-5.713-3.116-6.752-.52-.52-16.621-6.752-44.668-6.752-11.987 0-21.412 1.138-28.317 2.483l8.58-12.87c1.558-2.597 1.039-5.713-1.558-7.271-2.597-1.558-5.713-1.039-7.272 1.558l-16.101 24.411-.07.21c-.924 1.41-1.12 3.305-.449 4.983.567 1.416 1.75 2.368 3.131 2.774l24.916 16.445Z" fill="#8CA0B3"/><path d="m208.495 415.125 18.638 8.602 43.01 19.354 26.523 12.187c13.619 6.451 28.673 5.017 40.859-.717l41.576 20.071 59.497-141.933-35.124-15.77-67.383-130.464c-7.168-14.336-25.089-20.071-39.425-12.903-14.337 7.169-20.072 25.09-12.903 39.426l21.505 121.145-96.773 81.002Z" fill="#F3C29F"/><path d="m349.92 358.972-8.9-36.712-2.225 132.94 41.161 20.025-30.036-116.253Z" fill="url(#hand-3__a)"/><path d="M70.071 111.017c-4.292-15.1 4.47-30.82 19.57-35.113l139.125-39.546c15.1-4.292 30.821 4.47 35.113 19.57l95.278 335.195c4.292 15.1-4.47 30.82-19.57 35.112l-139.125 39.546c-15.1 4.292-30.821-4.469-35.113-19.569L70.071 111.017Z" fill="#1A2437"/><path d="M81.703 106.411c-2.341-8.237 2.438-16.812 10.674-19.153L232.73 47.364c8.237-2.341 16.811 2.438 19.152 10.674l95.698 336.673c2.342 8.237-2.437 16.811-10.674 19.152l-140.352 39.895c-8.236 2.341-16.811-2.438-19.152-10.674L81.703 106.411Z" fill="#F5F8F9"/><g opacity=".6"><mask id="hand-3__b" style="mask-type:alpha" maskUnits="userSpaceOnUse" x="81" y="46" width="268" height="409"><path d="M81.703 106.411c-2.341-8.237 2.438-16.812 10.674-19.153L232.73 47.364c8.237-2.341 16.811 2.438 19.152 10.674l95.699 336.673c2.341 8.237-2.438 16.811-10.675 19.152l-140.352 39.895c-8.236 2.341-16.811-2.438-19.152-10.674L81.703 106.411Z" fill="#F5F8F9"/></mask><g mask="url(#hand-3__b)"><path d="M277.85 149.709a264.883 264.883 0 0 0-51.739 9.383c-30.341 8.624-54.159 21.167-67.239 35.399-26.425 28.876-18.24 71.412-10.999 94.2 7.486 23.573 22.401 55.12 50.667 71.572 22.677 13.212 65.006 11.783 93.407 3.756a16.716 16.716 0 0 1 12.761 1.4 16.752 16.752 0 0 1 8.019 10.036l3.09 10.871c.102.359.305.681.584.928a1.947 1.947 0 0 0 2.912-.394c6.89-10.585 14.151-21.995 21.222-33.597 1.756-2.746 3.509-5.738 5.292-8.626 8.551-13.663 17.337-28 22.249-42.066 5.749-16.416 7.155-35.237 4.292-55.968a180.003 180.003 0 0 0-18.094-55.76c-14.864-29.001-41.997-43.596-76.424-41.134Z" fill="#E7EEF1"/></g></g><path d="M176.765 128.409a6.556 6.556 0 0 1 4.514-8.099l65.612-18.649a6.556 6.556 0 0 1 8.099 4.513l2.96 10.413a2.185 2.185 0 0 1-1.505 2.699l-69.816 19.845a6.556 6.556 0 0 1-8.099-4.513l-1.765-6.209Z" fill="#DEE8EC"/><path d="M196.497 150.725a6.556 6.556 0 0 0-8.099-4.513l-72.67 20.656a6.556 6.556 0 0 0-4.514 8.099l2.96 10.412a2.185 2.185 0 0 0 2.699 1.505l76.875-21.852a6.556 6.556 0 0 0 4.513-8.098l-1.764-6.209Zm17.864 62.848a6.556 6.556 0 0 0-8.099-4.514l-72.67 20.657a6.556 6.556 0 0 0-4.514 8.098l2.96 10.413a2.186 2.186 0 0 0 2.7 1.505l76.874-21.852a6.556 6.556 0 0 0 4.514-8.099l-1.765-6.208Z" fill="#D2DFE6"/><path d="M163.222 188.108a6.556 6.556 0 0 1 4.514-8.099l93.843-26.675a6.556 6.556 0 0 1 8.099 4.514l6.137 21.587a2.186 2.186 0 0 1-1.505 2.7l-98.048 27.87a6.556 6.556 0 0 1-8.099-4.514l-4.941-17.383Z" fill="#DEE8EC"/><path d="M347.595 395.628c2.192 7.71-2.282 15.736-9.992 17.928L195.29 454.008c-7.71 2.191-15.737-2.282-17.928-9.992l-3.163-11.127 170.234-48.388 3.162 11.127Z" fill="#F8FBFB"/><path fill-rule="evenodd" clip-rule="evenodd" d="m344.498 384.733-170.233 48.388-.132-.465 170.233-48.388.132.465Z" fill="#D2DFE6"/><path fill-rule="evenodd" clip-rule="evenodd" d="M191.056 436.475a5.286 5.286 0 0 0-3.287 7.487 5.29 5.29 0 0 0 7.983 1.772 5.285 5.285 0 0 0 1.824-5.588 5.296 5.296 0 0 0-6.52-3.671Zm2.699 9.631a4.676 4.676 0 0 1-3.554-.435 4.553 4.553 0 0 1-1.131-.878 4.716 4.716 0 0 1 1.686-7.617 4.721 4.721 0 0 1 5.499 7.236 4.708 4.708 0 0 1-2.487 1.69l-.013.004Z" fill="#2CC3D5"/><path fill-rule="evenodd" clip-rule="evenodd" d="M190.661 441.459a.576.576 0 1 0-.297-1.113.576.576 0 0 0 .297 1.113Zm3.396-.965a.58.58 0 0 0 .416-.485.576.576 0 1 0-1.024.286.585.585 0 0 0 .384.216.584.584 0 0 0 .224-.017Zm-1.237 3.404a2.73 2.73 0 0 1-2.235-.65l-.374.429a3.292 3.292 0 0 0 2.686.793c.12-.027.239-.06.356-.1a3.282 3.282 0 0 0 1.407-.812c.394-.384.687-.862.852-1.39l-.547-.17a2.721 2.721 0 0 1-2.145 1.9Z" fill="#2CC3D5"/><path d="M81.411 105.337c-2.191-7.71 2.282-15.736 9.992-17.928l142.26-40.437c7.71-2.191 15.736 2.282 17.928 9.992l1.974 6.946-170.18 48.373-1.974-6.946Z" fill="#2498A8"/><path d="m114.859 80.742 94.767-26.938.733 2.579c1.845 6.49-1.92 13.245-8.41 15.09L130.682 91.73c-6.489 1.845-13.245-1.92-15.09-8.41l-.733-2.578Z" fill="#1A2437"/><path d="M253.413 63 83 112.339l7.085 24.469L260.497 87.47 253.413 63Z" fill="#2CC3D5"/><path d="m246.537 77.345 1.821-3.406a.451.451 0 0 0-.197-.557.426.426 0 0 0-.562.132l-1.824 3.4-3.358-1.9a.432.432 0 0 0-.347-.072.428.428 0 0 0-.333.39.453.453 0 0 0 .266.447l3.357 1.901-1.821 3.406a.45.45 0 0 0 .253.633.426.426 0 0 0 .507-.203l1.824-3.401 3.358 1.9a.43.43 0 0 0 .329.04.426.426 0 0 0 .306-.373.449.449 0 0 0-.222-.436l-3.357-1.901ZM96.954 123.54a.295.295 0 0 1-.249-.043l-2.707-1.859a.625.625 0 0 1-.222-.766l1.296-3.018a.299.299 0 0 1 .395-.146.313.313 0 0 1 .16.399l-1.294 3.019 2.704 1.862a.315.315 0 0 1 .061.461.298.298 0 0 1-.144.091Z" fill="#fff"/><path fill-rule="evenodd" clip-rule="evenodd" d="M111.694 125.252a7.663 7.663 0 0 0 3.777-2.493 7.923 7.923 0 0 0 1.757-4.229 8.132 8.132 0 0 0-.855-4.541 8.023 8.023 0 0 0-3.179-3.322 7.72 7.72 0 0 0-4.432-.985 7.612 7.612 0 0 0-4.192 1.684 7.822 7.822 0 0 0-2.541 3.786 8.09 8.09 0 0 0 3.729 9.384 7.719 7.719 0 0 0 5.936.716Z" fill="#2C2A46"/><path d="M110.197 112.356c-.772.063-1.536.203-2.279.42-1.335.387-2.38.95-2.95 1.589-1.153 1.297-.771 3.21-.441 4.235.342 1.06 1.015 2.479 2.27 3.22 1.007.594 2.875.532 4.124.172a.736.736 0 0 1 .787.254.758.758 0 0 1 .136.261l.141.489a.09.09 0 0 0 .071.063c.016.002.033 0 .047-.007a.088.088 0 0 0 .037-.032c.299-.475.614-.988.92-1.509.077-.124.153-.258.23-.388.371-.614.752-1.258.962-1.89.246-.738.299-1.584.163-2.516a8.283 8.283 0 0 0-.826-2.508c-.669-1.305-1.874-1.962-3.392-1.853Z" fill="#00C6D7"/><path opacity=".25" d="M114.265 116.234a4.275 4.275 0 0 1-.252 2.209c-.233.563-.631 1.135-1.019 1.69-.081.117-.163.232-.241.347-.322.469-.442.621-.755 1.05a.089.089 0 0 1-.034.027.093.093 0 0 1-.043.007.093.093 0 0 1-.042-.015.092.092 0 0 1-.029-.033l-.175-.378c-.1-.346-.657-.266-1.049-.153-1.249.361-3.1.482-4.075-.002-1.218-.607-1.831-1.825-2.131-2.74l-.015-.052.113.388c.341 1.06 1.014 2.479 2.27 3.22 1.007.595 2.874.533 4.124.173a.713.713 0 0 1 .564.063.78.78 0 0 1 .223.19.787.787 0 0 1 .135.262l.142.489c.004.016.013.03.026.041a.076.076 0 0 0 .044.021.08.08 0 0 0 .048-.006.086.086 0 0 0 .036-.032c.299-.476.614-.988.921-1.51.076-.123.152-.258.229-.387.371-.614.752-1.259.962-1.891.246-.738.299-1.584.163-2.516a7.849 7.849 0 0 0-.277-1.181c.06.237.106.477.137.719Z" fill="#2D91AF"/><path opacity=".2" d="M108.823 113.896c.666.036 1.631-.214 2.51.057.325.096.746.081.803-.126.057-.207-.044-.477-.498-.657-.52-.204-1.01-.337-2.582-.063-.673.116-.737.762-.233.789Zm3.759.866a.343.343 0 0 0 .229-.428.341.341 0 0 0-.422-.239.344.344 0 0 0-.23.428.344.344 0 0 0 .423.239Z" fill="#fff"/><path d="M107.416 117.853a.391.391 0 0 0 .262-.488.39.39 0 0 0-.482-.273.393.393 0 0 0-.262.488c.061.21.277.332.482.273Zm3.918-1.135a.39.39 0 0 0 .262-.488.391.391 0 0 0-.482-.272.393.393 0 0 0-.262.488c.061.21.277.332.482.272Zm-1.419 2.357c-.568.165-1.112.104-1.354-.153a.149.149 0 0 1-.04-.098.142.142 0 0 1 .036-.099.125.125 0 0 1 .047-.031.129.129 0 0 1 .055-.011.175.175 0 0 1 .055.012.15.15 0 0 1 .046.033c.137.147.56.222 1.069.075.509-.148.848-.451.867-.655a.142.142 0 0 1 .254-.075c.024.03.035.069.031.108-.035.353-.478.724-1.066.894Z" fill="#167491"/><path d="M115.795 112.839c1.155-.335 1.815-1.564 1.472-2.747-.342-1.182-1.556-1.87-2.712-1.535-1.156.335-1.816 1.564-1.473 2.747.342 1.182 1.557 1.87 2.713 1.535Z" fill="#90E6BC"/><path fill-rule="evenodd" clip-rule="evenodd" d="M114.633 108.833c-1.007.292-1.582 1.363-1.284 2.393.299 1.03 1.357 1.629 2.364 1.338 1.006-.292 1.581-1.363 1.283-2.394-.299-1.03-1.357-1.628-2.363-1.337Zm-1.823 2.549c-.386-1.335.358-2.723 1.663-3.101 1.305-.377 2.676.398 3.062 1.733.387 1.335-.358 2.724-1.663 3.101-1.304.378-2.675-.398-3.062-1.733Z" fill="#2CC3D5"/><rect x="119.393" y="113.275" width="41.242" height="3.087" rx="1.544" transform="rotate(-16.147 119.393 113.275)" fill="#fff"/><path d="m171.993 70.188-28.651 8.144a1.315 1.315 0 0 0 .719 2.528l28.651-8.144a1.315 1.315 0 0 0-.719-2.528Zm14.187-2.102a1.87 1.87 0 1 1-2.294-1.278 1.857 1.857 0 0 1 2.294 1.278Z" opacity=".2" fill="#F8FBFB"/><path d="m341.106 323.371-57.347-110.392c-7.168-14.337-2.15-32.257 12.903-39.426 14.337-7.168 32.258-2.15 39.426 12.903l62.723 121.443a29.069 29.069 0 0 0 13.922 13.179c14.387 6.46 20.999 23.213 14.902 37.757l-48.537 115.788M127.662 258.107l-29.603 5.911c-12.58 2.512-24.124-5.211-26.638-17.822-2.513-12.611 5.185-24.176 17.766-26.689l29.603-5.911c12.581-2.512 24.124 5.211 26.638 17.823 2.514 12.611-5.185 24.176-17.766 26.688Z" fill="#F3C29F"/><path d="m127.662 258.107-29.603 5.911c-12.58 2.512-24.124-5.211-26.638-17.822-2.513-12.611 5.185-24.176 17.766-26.689l29.603-5.911c12.581-2.512 24.124 5.211 26.638 17.823 2.514 12.611-5.185 24.176-17.766 26.688Z" fill="url(#hand-3__c)"/><path d="m145.026 298.966-29.602 5.911c-12.582 2.513-24.125-5.21-26.638-17.822-2.514-12.611 5.184-24.176 17.766-26.688l29.602-5.911c12.581-2.512 24.124 5.211 26.638 17.822 2.514 12.611-5.185 24.176-17.766 26.688Z" fill="#F3C29F"/><path d="m145.026 298.966-29.602 5.911c-12.582 2.513-24.125-5.21-26.638-17.822-2.514-12.611 5.184-24.176 17.766-26.688l29.602-5.911c12.581-2.512 24.124 5.211 26.638 17.822 2.514 12.611-5.185 24.176-17.766 26.688Z" fill="url(#hand-3__d)"/><path d="m161.172 339.871-29.603 5.911c-12.581 2.512-24.124-5.211-26.638-17.823-2.514-12.611 5.185-24.176 17.766-26.688l29.603-5.911c12.581-2.512 24.124 5.211 26.638 17.822 2.513 12.611-5.185 24.176-17.766 26.689Z" fill="#F3C29F"/><path d="m161.172 339.871-29.603 5.911c-12.581 2.512-24.124-5.211-26.638-17.822-2.514-12.611 5.185-24.176 17.766-26.689l29.603-5.911c12.581-2.512 24.124 5.211 26.638 17.822 2.513 12.612-5.185 24.177-17.766 26.689Z" fill="url(#hand-3__e)"/><path d="m177.362 381.993-29.603 5.911c-12.581 2.512-24.124-5.21-26.637-17.822-2.514-12.611 5.184-24.176 17.766-26.688l29.602-5.911c12.581-2.513 24.124 5.21 26.638 17.822 2.514 12.611-5.185 24.176-17.766 26.688Z" fill="#F3C29F"/><path d="m177.362 381.993-29.603 5.911c-12.581 2.512-24.124-5.21-26.637-17.822-2.514-12.611 5.184-24.176 17.766-26.688l29.602-5.911c12.581-2.513 24.124 5.21 26.638 17.822 2.514 12.611-5.185 24.176-17.766 26.688Z" fill="url(#hand-3__f)"/><defs><linearGradient id="hand-3__a" x1="342.993" y1="327.153" x2="362.637" y2="459.88" gradientUnits="userSpaceOnUse"><stop stop-color="#E8AA7D"/><stop offset="1" stop-color="#E8AA7D" stop-opacity="0"/></linearGradient><linearGradient id="hand-3__c" x1="116.142" y1="279.645" x2="109.368" y2="245.722" gradientUnits="userSpaceOnUse"><stop stop-color="#E8AA7D"/><stop offset="1" stop-color="#E8AA7D" stop-opacity="0"/></linearGradient><linearGradient id="hand-3__d" x1="133.506" y1="320.505" x2="126.732" y2="286.581" gradientUnits="userSpaceOnUse"><stop stop-color="#E8AA7D"/><stop offset="1" stop-color="#E8AA7D" stop-opacity="0"/></linearGradient><linearGradient id="hand-3__e" x1="149.651" y1="361.409" x2="142.878" y2="327.486" gradientUnits="userSpaceOnUse"><stop stop-color="#E8AA7D"/><stop offset="1" stop-color="#E8AA7D" stop-opacity="0"/></linearGradient><linearGradient id="hand-3__f" x1="165.842" y1="403.531" x2="159.068" y2="369.608" gradientUnits="userSpaceOnUse"><stop stop-color="#E8AA7D"/><stop offset="1" stop-color="#E8AA7D" stop-opacity="0"/></linearGradient></defs></svg>