<svg width="500" height="502" viewBox="0 0 500 502" fill="none" xmlns="http://www.w3.org/2000/svg">
<path d="M218.5 -4.29824e-05C104.453 -3.30121e-05 12 92.4532 12 206.5C12 320.547 104.453 413 218.5 413C332.547 413 425 320.547 425 206.5C425 92.4532 332.547 -5.29526e-05 218.5 -4.29824e-05Z" fill="#B2DFFD"/>
<path d="M134.111 136.294L148.02 98.1042L187.575 101.336L164.741 164.03L134.111 136.294Z" fill="#8C3A03"/>
<path d="M114.291 190.713L128.2 152.524L167.755 155.756L144.921 218.45L114.291 190.713Z" fill="#8C3A03"/>
<path d="M95.0507 243.542L108.96 205.353L148.514 208.585L125.681 271.279L95.0507 243.542Z" fill="#8C3A03"/>
<path d="M83.0686 292.276L95.0712 259.32L129.36 262.166L109.656 316.267L83.0686 292.276Z" fill="#8C3A03"/>
<path d="M191.949 98.1063L180.896 94.0804C178.685 93.2752 177.58 90.9055 178.385 88.6947L184.683 71.403C185.488 69.1922 187.858 68.0878 190.069 68.893L201.123 72.919C203.334 73.7242 204.438 76.0939 203.633 78.3046L197.335 95.5963C196.53 97.8071 194.16 98.9115 191.949 98.1063Z" fill="#0096FA"/>
<path d="M172.395 151.797L161.341 147.771C159.13 146.966 158.026 144.596 158.831 142.385L171.685 107.091C172.49 104.881 174.86 103.776 177.071 104.581L188.125 108.607C190.336 109.413 191.44 111.782 190.635 113.993L177.781 149.287C176.975 151.497 174.606 152.602 172.395 151.797Z" fill="#0096FA"/>
<path d="M358.347 246.261L347.293 242.236C345.082 241.43 343.977 239.061 344.783 236.85L357.637 201.556C358.442 199.345 360.812 198.241 363.023 199.046L374.076 203.072C376.287 203.877 377.392 206.247 376.586 208.458L363.732 243.751C362.927 245.962 360.478 247.038 358.347 246.261Z" fill="#0096FA"/>
<path d="M231.474 489.27L93.2994 438.946C75.8499 432.591 66.8641 413.31 73.2194 395.861L204.379 35.7392C210.734 18.2897 230.015 9.30394 247.464 15.6592L385.638 65.9834C403.088 72.3386 412.074 91.6193 405.718 109.069L274.559 469.19C268.283 486.669 249.002 495.654 231.474 489.27Z" fill="url(#paint0_linear_10272_1663)"/>
<path d="M233.33 480.736L97.5247 431.274C82.9177 425.954 75.3877 409.797 80.7077 395.19L209.71 40.9902C215.03 26.3832 231.187 18.8532 245.794 24.1732L381.6 73.6347C396.207 78.9547 403.737 95.1117 398.417 109.719L269.414 463.919C264.015 478.497 247.937 486.056 233.33 480.736Z" fill="url(#paint1_linear_10272_1663)"/>
<path d="M283.9 120.568C285.377 116.513 289.863 114.422 293.918 115.899L361.114 140.372C365.17 141.85 367.26 146.335 365.783 150.391L362.174 160.3C361.682 161.652 360.187 162.349 358.835 161.857L286.743 135.6C282.687 134.123 280.597 129.638 282.074 125.582L283.9 120.568Z" fill="white"/>
<path d="M287.016 152.336C288.493 148.28 286.403 143.795 282.347 142.318L207.764 115.154C203.708 113.676 199.222 115.767 197.745 119.823L194.136 129.732C193.644 131.084 194.34 132.579 195.692 133.072L275.172 162.019C279.228 163.496 283.713 161.405 285.19 157.35L287.016 152.336Z" fill="#B2DFFD"/>
<path d="M263.056 218.124C264.533 214.068 262.443 209.583 258.387 208.105L183.803 180.942C179.747 179.464 175.262 181.555 173.785 185.611L170.176 195.52C169.683 196.872 170.38 198.367 171.732 198.86L251.211 227.807C255.267 229.284 259.753 227.193 261.23 223.138L263.056 218.124Z" fill="#B2DFFD"/>
<path d="M234.649 163.895C236.126 159.839 240.611 157.749 244.667 159.226L341.414 194.462C345.47 195.939 347.561 200.425 346.084 204.481L338.214 226.088C337.722 227.44 336.227 228.137 334.875 227.644L233.231 190.625C229.175 189.148 227.085 184.662 228.562 180.606L234.649 163.895Z" fill="white"/>
<path d="M322.835 80.044L286.12 66.6721C281.304 64.918 278.844 59.64 280.598 54.8237C282.352 50.0073 287.63 47.5475 292.446 49.3017L329.161 62.6735C333.978 64.4277 336.438 69.7056 334.683 74.522C332.929 79.3384 327.651 81.7982 322.835 80.044Z" fill="url(#paint2_linear_10272_1663)"/>
<path d="M325.229 74.2091C326.755 74.765 328.443 73.9783 328.999 72.4521C329.554 70.9259 328.768 69.238 327.242 68.6821C325.715 68.1263 324.027 68.9129 323.472 70.4391C322.916 71.9654 323.702 73.6532 325.229 74.2091Z" fill="#F5F5F5"/>
<path d="M334.943 304.867L334.229 302.721L287.897 429.935L292.742 437.362L305.375 426.863L334.723 342.028C338.884 330.003 338.961 316.941 334.943 304.867Z" fill="url(#paint3_linear_10272_1663)" fill-opacity="0.7"/>
<path d="M358.241 276.739L486.5 367L377.962 497.758L295.171 412.068L295.171 326.378L248 187.724L301.942 160L358.241 276.739Z" fill="#8C3A03"/>
<path fill-rule="evenodd" clip-rule="evenodd" d="M108.111 124.475C108.36 125.531 108.205 127.24 107.398 128.545C106.187 130.503 103.67 131.653 100.501 132.4C96.0265 132.339 92.5146 129.264 92.5756 124.789L92.0647 95.2337C85.454 102.073 76.6265 112.642 67.1268 127.996C46.9385 160.627 42.408 183.994 42.408 183.994C42.6568 185.05 41.8493 186.355 41.4455 187.008C39.8305 189.618 36.9102 191.421 33.4922 191.111C29.4216 190.398 26.7172 186.017 27.4308 181.947C27.182 180.89 31.8674 155.814 53.6708 120.573C62.9894 105.512 71.7472 94.5536 78.8038 86.9233L55.9636 87.699C51.4892 87.638 47.9773 84.5628 48.0383 80.0884C48.0993 75.6141 51.1745 72.1022 55.6489 72.1632L98.8384 70.9093C98.9456 70.9346 99.0514 70.9592 99.156 70.9831C101.647 70.9199 104.18 72.1464 105.766 74.2941C107.105 76.1061 107.382 78.3338 106.818 80.3834L108.111 124.475Z" fill="#1764E8"/>
<defs>
<linearGradient id="paint0_linear_10272_1663" x1="154.129" y1="81.3966" x2="354.959" y2="483.712" gradientUnits="userSpaceOnUse">
<stop stop-color="#1968F0"/>
<stop offset="0.2912" stop-color="#125BD8"/>
<stop offset="0.5885" stop-color="#0E51C6"/>
<stop offset="0.8048" stop-color="#0C4EC0"/>
</linearGradient>
<linearGradient id="paint1_linear_10272_1663" x1="195.746" y1="-134.424" x2="254.095" y2="536.888" gradientUnits="userSpaceOnUse">
<stop stop-color="white"/>
<stop offset="0.147721" stop-color="#F7FAFE"/>
<stop offset="0.304044" stop-color="#E2ECFD"/>
<stop offset="0.677979" stop-color="#FAFCFF"/>
<stop offset="0.967346" stop-color="#C5D9FB"/>
</linearGradient>
<linearGradient id="paint2_linear_10272_1663" x1="286.796" y1="48.6618" x2="341.403" y2="90.6005" gradientUnits="userSpaceOnUse">
<stop stop-color="#1968F0"/>
<stop offset="0.2106" stop-color="#1765EA"/>
<stop offset="0.4888" stop-color="#135CD9"/>
<stop offset="0.7855" stop-color="#0C4EC0"/>
</linearGradient>
<linearGradient id="paint3_linear_10272_1663" x1="327.68" y1="268.876" x2="303.06" y2="396.706" gradientUnits="userSpaceOnUse">
<stop stop-color="#98646D" stop-opacity="0.8"/>
<stop offset="1" stop-color="#98646D" stop-opacity="0"/>
</linearGradient>
</defs>
</svg>
