<svg width="500" height="500" viewBox="0 0 500 500" fill="none" xmlns="http://www.w3.org/2000/svg"><path d="M426.841 347.129s-95.835 127.864-204.102 145.263c-108.267 17.399-158.033-29.379-154.3-79.421 3.734-50.043 19.9-85.95-12.432-125.122-32.33-39.172-77.168-70.738-44.8-167.591C43.575 23.406 133.14-7.05 190.408 2.743c57.27 9.793 62.198 64.209 129.398 78.343 67.201 14.135 151.836-11.947 174.236 58.758 22.4 70.706-22.4 154.338-67.201 207.285Z" fill="#B9CBD3" style="mix-blend-mode:luminosity" opacity=".16"/><path d="m101.938 133.951-4.39-2.634c-12.294-7.025-28.978-3.513-36.002 9.659-7.025 13.171-3.513 28.977 9.659 36.001l29.855 17.562h.878v-60.588Z" fill="#CB9685"/><path d="m101.938 133.951-4.39-2.634c-12.294-7.025-28.978-3.513-36.002 9.659-7.025 13.171-3.513 28.977 9.659 36.001l29.855 17.562h.878v-60.588Z" fill="url(#hand-6__a)"/><path d="M101.96 184.164c-13.172-7.903-29.855-3.513-36.88 8.781-7.025 12.293-3.513 28.977 9.659 36.001l27.221 15.806v-60.588Z" fill="#CB9685"/><path d="M101.96 184.164c-13.172-7.903-29.855-3.513-36.88 8.781-7.025 12.293-3.513 28.977 9.659 36.001l27.221 15.806v-60.588Z" fill="url(#hand-6__b)"/><path d="M101.981 234.238c-12.293-5.268-26.342-.878-33.367 10.537-7.025 12.293-3.512 28.977 9.659 36.002l23.708 14.049v-60.588Z" fill="#CB9685"/><path d="M101.981 234.238c-12.293-5.268-26.342-.878-33.367 10.537-7.025 12.293-3.512 28.977 9.659 36.002l23.708 14.049v-60.588Z" fill="url(#hand-6__c)"/><path d="M102.003 276.107c-11.415-3.512-23.708 1.757-29.855 12.294-7.025 12.293-3.512 28.977 9.66 36.001l20.195 12.294v-60.589Zm136.935-64.242c-15.806-11.415-19.318-34.246-7.903-50.051 11.415-15.806 34.246-19.318 50.051-7.903l103.615 64.1c17.562 11.416 28.977 30.734 28.977 51.808v43.026l43.904 27.221L359.236 499l-47.417-28.977c-15.805 5.269-34.245 4.391-50.051-5.268l-29.855-18.44-49.173-29.855-21.074-14.05 77.272-190.545Z" fill="#CB9685"/><path d="m358.672 497.329-21.006-190.112c-1.836-16.618-19.94-10.128-20.399 6.584l-4.244 154.666 45.649 28.862Z" fill="url(#hand-6__d)"/><path d="M90.984 33.092c0-15.698 12.726-28.424 28.424-28.424h178.76c15.698 0 28.424 12.726 28.424 28.424V450.21c0 15.698-12.726 28.424-28.424 28.424h-178.76c-15.698 0-28.424-12.726-28.424-28.424V33.092Z" fill="#1A2437"/><path d="M105.539 33.818c0-8.563 6.941-15.504 15.504-15.504h175.875c8.562 0 15.504 6.941 15.504 15.504v414.538c0 8.563-6.942 15.504-15.504 15.504H121.043c-8.563 0-15.504-6.941-15.504-15.504V33.818Z" fill="#F5F8F9"/><g opacity=".6"><mask id="hand-6__e" style="mask-type:alpha" maskUnits="userSpaceOnUse" x="105" y="18" width="208" height="446"><path d="M105.539 33.818c0-8.563 6.941-15.504 15.504-15.504h175.875c8.562 0 15.504 6.941 15.504 15.504v414.538c0 8.563-6.942 15.504-15.504 15.504H121.043c-8.563 0-15.504-6.941-15.504-15.504V33.818Z" fill="#F5F8F9"/></mask><g mask="url(#hand-6__e)"><path d="M312.323 147.858a309.789 309.789 0 0 0-61.197-5.989c-36.885 0-67.685 6.494-86.948 18.32-38.955 24.031-43.348 74.493-42.489 102.44.883 28.907 7.574 69.161 34.107 96.704 21.283 22.11 69.352 34.037 103.863 34.087a19.559 19.559 0 0 1 18.192 12.002 19.604 19.604 0 0 1 1.526 7.506v13.215a2.275 2.275 0 0 0 2.597 2.252 2.266 2.266 0 0 0 1.164-.533c11.134-9.703 22.949-20.215 34.613-31.005 2.853-2.527 5.781-5.332 8.71-8.01 13.986-12.635 28.452-25.951 38.475-40.203 11.714-16.627 19.313-37.347 22.722-61.58a210.505 210.505 0 0 0-2.525-68.504c-7.448-37.373-33.3-62.464-72.81-70.702Z" fill="#E7EEF1"/></g></g><path d="M205.432 90.471a6.556 6.556 0 0 1 6.556-6.556h81.984a6.557 6.557 0 0 1 6.556 6.556v14.139a2.186 2.186 0 0 1-2.186 2.185h-86.354a6.556 6.556 0 0 1-6.556-6.556v-9.768Z" fill="#DEE8EC"/><path d="M220.49 121.88a6.556 6.556 0 0 0-6.556-6.556H123.37a6.556 6.556 0 0 0-6.556 6.556v14.139c0 1.207.978 2.185 2.185 2.185h94.935a6.556 6.556 0 0 0 6.556-6.556v-9.768Zm0 76.403a6.556 6.556 0 0 0-6.556-6.556H123.37a6.556 6.556 0 0 0-6.556 6.556v14.139c0 1.207.978 2.185 2.185 2.185h94.935a6.556 6.556 0 0 0 6.556-6.556v-9.768Z" fill="#D2DFE6"/><path d="M171.112 153.289a6.557 6.557 0 0 1 6.557-6.556h116.304a6.556 6.556 0 0 1 6.556 6.556v27.724a2.186 2.186 0 0 1-2.186 2.186H177.669a6.557 6.557 0 0 1-6.557-6.557v-23.353Z" fill="#DEE8EC"/><path d="M312.148 449.225c0 8.015-6.497 14.513-14.513 14.513H119.712c-8.015 0-14.513-6.498-14.513-14.513V433.24h206.949v15.985Z" fill="#F8FBFB"/><path fill-rule="evenodd" clip-rule="evenodd" d="M312.148 433.481H105.199v-.483h206.949v.483Z" fill="#D2DFE6"/><path fill-rule="evenodd" clip-rule="evenodd" d="M122.991 442.679a6.176 6.176 0 0 0-5.703 3.81 6.177 6.177 0 0 0 1.338 6.727 6.172 6.172 0 1 0 4.365-10.537Zm0 11.666a5.448 5.448 0 0 1-3.858-1.605 5.33 5.33 0 0 1-.995-1.343 5.5 5.5 0 1 1 4.868 2.948h-.015Z" fill="#2CC3D5"/><path fill-rule="evenodd" clip-rule="evenodd" d="M120.978 448.141a.665.665 0 0 0 .626-.409.67.67 0 0 0-.485-.919.67.67 0 0 0-.611 1.129.671.671 0 0 0 .47.199Zm4.128.001a.671.671 0 1 0-.003-1.343.671.671 0 0 0 .003 1.343Zm-2.478 3.433a3.203 3.203 0 0 1-2.315-1.428l-.555.363a3.858 3.858 0 0 0 2.777 1.728c.144.008.288.008.432 0a3.861 3.861 0 0 0 3.233-1.751l-.563-.363a3.182 3.182 0 0 1-3.009 1.451Z" fill="#2CC3D5"/><path d="M105.555 32.685c0-8.015 6.497-14.513 14.513-14.513h177.857c8.015 0 14.513 6.498 14.513 14.513v10.902H105.555V32.685Z" fill="#2498A8"/><path d="M151.042 18.172h115.206v5.203c0 6.746-5.469 12.215-12.215 12.215h-90.776c-6.746 0-12.215-5.469-12.215-12.215v-5.203Z" fill="#1A2437"/><path d="M312.5 43h-207v29h207V43Z" fill="#2CC3D5"/><path d="m300.227 56.509 3.155-3.148a.506.506 0 0 0-.04-.671.505.505 0 0 0-.675-.034l-3.157 3.14-3.156-3.14a.514.514 0 0 0-.367-.188.51.51 0 0 0-.501.32.504.504 0 0 0 .153.573l3.155 3.142-3.155 3.148a.503.503 0 1 0 .715.71l3.156-3.141 3.157 3.141a.502.502 0 0 0 .823-.163.505.505 0 0 0-.108-.547l-3.155-3.142Zm-183.185 3.158a.355.355 0 0 1-.266-.125l-2.438-2.89a.705.705 0 0 1 0-.908l2.438-2.89a.354.354 0 0 1 .543.452l-2.438 2.892 2.433 2.891a.348.348 0 0 1-.081.524.353.353 0 0 1-.191.054Z" fill="#fff"/><path fill-rule="evenodd" clip-rule="evenodd" d="M133.056 66.205a9.134 9.134 0 0 0 5.057-1.53 9.069 9.069 0 0 0 3.352-4.069 9.017 9.017 0 0 0 .517-5.235 9.056 9.056 0 0 0-2.492-4.64 9.125 9.125 0 0 0-4.662-2.48 9.15 9.15 0 0 0-5.261.514 9.097 9.097 0 0 0-4.088 3.336 9.042 9.042 0 0 0-1.538 5.033 9.068 9.068 0 0 0 2.675 6.408 9.158 9.158 0 0 0 6.44 2.663Z" fill="#2C2A46"/><path d="M135.57 51.63a13.732 13.732 0 0 0-2.698-.262c-1.627 0-2.985.284-3.834.803-1.718 1.053-1.912 3.266-1.874 4.491.039 1.267.334 3.032 1.504 4.24.939.969 3.058 1.492 4.58 1.494a.864.864 0 0 1 .869.855v.58a.101.101 0 0 0 .166.075 68.492 68.492 0 0 0 1.526-1.36c.126-.11.255-.233.384-.35.617-.554 1.255-1.138 1.697-1.763.516-.729.851-1.637 1.002-2.7a9.18 9.18 0 0 0-.112-3.003c-.328-1.638-1.468-2.739-3.21-3.1Z" fill="#00C6D7"/><path opacity=".25" d="M138.881 57.158a4.804 4.804 0 0 1-1.002 2.336c-.445.541-1.08 1.041-1.696 1.525-.13.102-.259.203-.384.304-.515.41-.698.54-1.19.908a.107.107 0 0 1-.048.02.104.104 0 0 1-.092-.035.1.1 0 0 1-.022-.047l-.073-.469c0-.41-.653-.498-1.13-.5-1.522 0-3.641-.453-4.58-1.291-1.172-1.05-1.465-2.576-1.504-3.671v-.061.46c.039 1.267.334 3.032 1.504 4.24.939.968 3.058 1.491 4.58 1.494a.866.866 0 0 1 .802.526.846.846 0 0 1 .067.329v.58c0 .018.006.037.016.053s.025.03.043.037a.1.1 0 0 0 .107-.015 68.492 68.492 0 0 0 1.526-1.36c.126-.11.255-.233.384-.35.617-.555 1.255-1.139 1.697-1.763.516-.73.851-1.638 1.002-2.7a8.72 8.72 0 0 0 .073-1.38 6.596 6.596 0 0 1-.08.83Z" fill="#2D91AF"/><path opacity=".2" d="M133.523 52.879c.737.25 1.904.282 2.803.856.334.208.813.326.944.118.132-.209.106-.537-.346-.877-.517-.387-1.025-.689-2.882-.886-.794-.086-1.076.6-.519.789Zm3.945 2.137a.396.396 0 1 0 0-.791.397.397 0 0 0-.398.395c0 .219.178.396.398.396Z" fill="#fff"/><path d="M130.655 56.76c.25 0 .453-.202.453-.45a.452.452 0 0 0-.906 0c0 .248.203.45.453.45Zm4.774 0c.25 0 .453-.202.453-.45a.452.452 0 0 0-.906 0c0 .248.202.45.453.45Zm-2.362 2.128c-.692 0-1.285-.24-1.473-.596a.165.165 0 0 1 .06-.218.17.17 0 0 1 .128-.012c.021.006.04.016.057.03a.178.178 0 0 1 .042.05c.107.205.557.42 1.177.42.621 0 1.1-.223 1.188-.441a.168.168 0 0 1 .31.126c-.155.375-.774.64-1.489.64Z" fill="#167491"/><path d="M141.704 53.93a2.544 2.544 0 0 0 2.55-2.538 2.544 2.544 0 0 0-2.55-2.537 2.544 2.544 0 0 0-2.55 2.537 2.544 2.544 0 0 0 2.55 2.538Z" fill="#90E6BC"/><path fill-rule="evenodd" clip-rule="evenodd" d="M141.704 49.182c-1.227 0-2.222.99-2.222 2.21 0 1.221.995 2.21 2.222 2.21a2.216 2.216 0 0 0 2.221-2.21c0-1.22-.995-2.21-2.221-2.21Zm-2.879 2.21a2.872 2.872 0 0 1 2.879-2.864 2.872 2.872 0 0 1 2.878 2.864 2.872 2.872 0 0 1-2.878 2.865 2.872 2.872 0 0 1-2.879-2.865Z" fill="#2CC3D5"/><rect x="145.608" y="55.546" width="48.266" height="3.515" rx="1.757" fill="#fff"/><path d="M218.68 24.568h-34.831a1.537 1.537 0 1 0 0 3.074h34.831a1.537 1.537 0 1 0 0-3.074Zm16.628 2.172a2.187 2.187 0 0 1-3.732 1.56 2.185 2.185 0 0 1 1.561-3.732 2.171 2.171 0 0 1 2.171 2.171Z" opacity=".2" fill="#F8FBFB"/><path d="m334.65 288.259-95.712-76.394c-15.806-11.415-19.318-34.246-7.903-50.051 11.415-15.806 34.246-19.318 50.051-7.903l103.615 64.1c17.562 11.416 28.977 30.734 28.977 51.808v43.026l43.904 27.221L359.236 499" fill="#CB9685"/><path d="M240.116 137.938c-3.058 0-6.116-1.529-6.88-4.587l-6.116-13.761c-1.529-3.822 0-8.409 3.822-9.938 3.823-1.529 8.41 0 9.939 3.822l6.116 13.761c1.529 3.822 0 8.409-3.823 9.938-.764 0-1.529.765-3.058.765Zm-30.579 30.58c-.764 0-2.293 0-3.057-.765l-13.761-6.116c-3.823-1.529-6.116-6.115-3.823-9.938 1.529-3.822 6.116-6.116 9.939-3.822l13.76 6.116c3.823 1.529 6.116 6.115 3.823 9.938-.765 3.058-3.823 4.587-6.881 4.587Zm-14.526 49.69c-3.058 0-6.116-1.529-6.88-4.587-1.529-3.822 0-8.409 3.822-9.938l13.761-6.116c3.822-1.529 8.409 0 9.938 3.823 1.529 3.822 0 8.409-3.822 9.938l-13.761 6.116c-.764 0-1.529.764-3.058.764ZM234 257.198c-.764 0-2.293 0-3.057-.764-3.823-1.529-6.116-6.116-3.823-9.938l6.116-13.761c1.529-3.822 6.116-6.116 9.938-3.822 3.823 1.529 6.116 6.115 3.823 9.938l-6.116 13.76c-.765 3.058-3.823 4.587-6.881 4.587Zm50.455-119.259c-.765 0-2.294 0-3.058-.765-3.823-1.529-6.116-6.116-3.823-9.938l6.116-13.761c1.529-3.822 6.116-6.116 9.938-3.822 3.823 1.529 6.116 6.116 3.823 9.938l-6.116 13.761c-1.529 2.293-4.587 4.587-6.88 4.587Z" fill="#2CC3D5"/><defs><linearGradient id="hand-6__a" x1="95.697" y1="188.439" x2="74.787" y2="150.154" gradientUnits="userSpaceOnUse"><stop stop-color="#BF7D68"/><stop offset="1" stop-color="#BF7D68" stop-opacity="0"/></linearGradient><linearGradient id="hand-6__b" x1="93.93" y1="232.91" x2="75.671" y2="192.268" gradientUnits="userSpaceOnUse"><stop stop-color="#BF7D68"/><stop offset="1" stop-color="#BF7D68" stop-opacity="0"/></linearGradient><linearGradient id="hand-6__c" x1="92.163" y1="280.62" x2="85.389" y2="241.745" gradientUnits="userSpaceOnUse"><stop stop-color="#BF7D68"/><stop offset="1" stop-color="#BF7D68" stop-opacity="0"/></linearGradient><linearGradient id="hand-6__d" x1="312.729" y1="248.472" x2="335.7" y2="403.676" gradientUnits="userSpaceOnUse"><stop stop-color="#BF7D68"/><stop offset="1" stop-color="#BF7D68" stop-opacity="0"/></linearGradient></defs></svg>