<svg width="500" height="506" viewBox="0 0 500 506" fill="none" xmlns="http://www.w3.org/2000/svg">
<path d="M244.957 -3.97952e-05C110.775 -2.80646e-05 1.99966 108.776 1.99967 242.957C1.99969 377.139 110.775 485.914 244.957 485.914C379.138 485.914 487.914 377.139 487.914 242.957C487.914 108.776 379.138 -5.15257e-05 244.957 -3.97952e-05Z" fill="#B2DFFD"/>
<path d="M33 169.251V125.639L74.0671 114.373V185.968L33 169.251Z" fill="#FCAA73"/>
<path d="M33 231.397V187.786L74.0671 176.519V248.114L33 231.397Z" fill="#FCAA73"/>
<path d="M33 291.725V248.114L74.0671 236.848V308.443L33 291.725Z" fill="#FCAA73"/>
<path d="M38.8145 345.259V307.625L74.4302 297.903V359.686L38.8145 345.259Z" fill="#FCAA73"/>
<path d="M77.2917 109.511H64.6685C62.1438 109.511 60.1602 107.527 60.1602 105.002V85.2559C60.1602 82.7313 62.1438 80.7476 64.6685 80.7476H77.2917C79.8164 80.7476 81.8 82.7313 81.8 85.2559V105.002C81.8 107.527 79.8164 109.511 77.2917 109.511Z" fill="#0096FA"/>
<path d="M77.2917 170.823H64.6685C62.1438 170.823 60.1602 168.84 60.1602 166.315V126.011C60.1602 123.486 62.1438 121.503 64.6685 121.503H77.2917C79.8164 121.503 81.8 123.486 81.8 126.011V166.315C81.8 168.84 79.8164 170.823 77.2917 170.823Z" fill="#0096FA"/>
<path d="M299.462 197.783H286.838C284.314 197.783 282.33 195.8 282.33 193.275V152.971C282.33 150.446 284.314 148.463 286.838 148.463H299.462C301.986 148.463 303.97 150.446 303.97 152.971V193.275C303.97 195.8 301.896 197.783 299.462 197.783Z" fill="#0096FA"/>
<path d="M260.78 489.38H102.989C83.0626 489.38 66.9229 473.241 66.9229 453.314V42.0664C66.9229 22.1397 83.0626 6 102.989 6H260.78C280.707 6 296.846 22.1397 296.846 42.0664V453.314C296.936 473.241 280.797 489.38 260.78 489.38Z" fill="url(#paint0_linear_10272_1660)"/>
<path d="M259.518 480.094H104.432C87.7515 480.094 74.2266 466.569 74.2266 449.888V45.403C74.2266 28.7222 87.7515 15.1973 104.432 15.1973H259.518C276.199 15.1973 289.723 28.7222 289.723 45.403V449.888C289.633 466.569 276.199 480.094 259.518 480.094Z" fill="url(#paint1_linear_10272_1660)"/>
<path d="M178.259 98.3926C178.259 93.761 182.013 90.0063 186.645 90.0063H263.38C268.012 90.0063 271.767 93.761 271.767 98.3926V109.709C271.767 111.253 270.515 112.504 268.971 112.504H186.645C182.013 112.504 178.259 108.75 178.259 104.118V98.3926Z" fill="white"/>
<path d="M193.066 137.557C193.066 132.926 189.312 129.171 184.68 129.171H99.508C94.8763 129.171 91.1216 132.926 91.1216 137.557V148.874C91.1216 150.418 92.3732 151.669 93.9171 151.669H184.68C189.312 151.669 193.066 147.915 193.066 143.283V137.557Z" fill="#B2DFFD"/>
<path d="M193.066 229.245C193.066 224.614 189.312 220.859 184.68 220.859H99.508C94.8763 220.859 91.1216 224.614 91.1216 229.245V240.562C91.1216 242.106 92.3732 243.357 93.9171 243.357H184.68C189.312 243.357 193.066 239.603 193.066 234.971V229.245Z" fill="#B2DFFD"/>
<path d="M144.513 176.722C144.513 172.091 148.267 168.336 152.899 168.336H263.382C268.013 168.336 271.768 172.091 271.768 176.722V201.397C271.768 202.941 270.516 204.192 268.972 204.192H152.899C148.267 204.192 144.513 200.438 144.513 195.806V176.722Z" fill="white"/>
<path d="M202.622 43.2385H160.695C155.195 43.2385 150.776 38.8204 150.776 33.3202C150.776 27.8201 155.195 23.402 160.695 23.402H202.622C208.122 23.402 212.54 27.8201 212.54 33.3202C212.54 38.8204 208.122 43.2385 202.622 43.2385Z" fill="url(#paint2_linear_10272_1660)"/>
<path d="M202.893 36.4761C204.636 36.4761 206.049 35.0631 206.049 33.3202C206.049 31.5773 204.636 30.1644 202.893 30.1644C201.15 30.1644 199.737 31.5773 199.737 33.3202C199.737 35.0631 201.15 36.4761 202.893 36.4761Z" fill="#F5F5F5"/>
<path d="M297.386 265.465L295.878 263.564V408.838L303.491 414.547L312.372 399.322L310.81 303.012C310.589 289.36 305.87 276.163 297.386 265.465Z" fill="url(#paint3_linear_10272_1660)" fill-opacity="0.7"/>
<path d="M361.174 254.146L448.396 303.936L466.931 506L295.757 405.331V313.385L245.143 164.607L303.022 134.858L361.174 254.146Z" fill="#FCAA73"/>
<defs>
<linearGradient id="paint0_linear_10272_1660" x1="33.0255" y1="106.551" x2="383.24" y2="438.431" gradientUnits="userSpaceOnUse">
<stop stop-color="#1968F0"/>
<stop offset="0.2912" stop-color="#125BD8"/>
<stop offset="0.5885" stop-color="#0E51C6"/>
<stop offset="0.8048" stop-color="#0C4EC0"/>
</linearGradient>
<linearGradient id="paint1_linear_10272_1660" x1="-4.26526" y1="-126.327" x2="301.072" y2="529.083" gradientUnits="userSpaceOnUse">
<stop stop-color="white"/>
<stop offset="0.147721" stop-color="#F7FAFE"/>
<stop offset="0.304044" stop-color="#E2ECFD"/>
<stop offset="0.677979" stop-color="#FAFCFF"/>
<stop offset="0.967346" stop-color="#C5D9FB"/>
</linearGradient>
<linearGradient id="paint2_linear_10272_1660" x1="154.763" y1="24.8317" x2="225.219" y2="47.0635" gradientUnits="userSpaceOnUse">
<stop stop-color="#1968F0"/>
<stop offset="0.2106" stop-color="#1765EA"/>
<stop offset="0.4888" stop-color="#135CD9"/>
<stop offset="0.7855" stop-color="#0C4EC0"/>
</linearGradient>
<linearGradient id="paint3_linear_10272_1660" x1="276.846" y1="231.845" x2="298.964" y2="369.768" gradientUnits="userSpaceOnUse">
<stop stop-color="#98646D" stop-opacity="0.8"/>
<stop offset="1" stop-color="#98646D" stop-opacity="0"/>
</linearGradient>
</defs>
</svg>
