<svg width="500" height="516" fill="none" xmlns="http://www.w3.org/2000/svg"><path d="M422.919 331.661c29.656-3.988 47.824-36.878 50.05-44.74 6.546-23.641-9.559-50.924-29.461-68.236-12.733-11.07-29.198-18.179-42.554-28.642-11.935-9.423-21.08-21.281-26.637-34.54-5.557-13.258-7.358-27.515-5.246-41.529 2.881-17.34 11.916-33.67 13.814-51.185 1.899-17.514-6.547-38.352-25.991-43.352-8.211-1.626-16.766-1.287-24.779.983-19.574 4.596-37.484 13.552-52.014 26.011-9.493 8.122-18.364 18.15-31.392 20.52-16.04 2.89-31.686-7.225-41.801-18.728-10.115-11.503-17.12-25.491-30.083-34.48-42.554-29.45-108.61-4.364-122.915 8.671C8.312 63.744 27.723 120.361 38.165 142.5c10.442 22.139 23.503 43.844 27.267 67.514 9.558 60.694-43.896 117.138-37.415 178.005.267 8.265 2.974 16.325 7.855 23.382 4.88 7.056 11.764 12.865 19.97 16.849 22.34 12.733 49.106 17.982 75.451 14.798 58.004-7.283 97.841-52.89 148.382-78.468 45.009-22.832 92.015-26.011 143.244-32.919Z" fill="#B9CBD3" style="mix-blend-mode:luminosity" opacity=".16"/><g opacity=".1" filter="url(#idea__a)"><path d="M300.824 480.22c0 10.924-35.424 19.78-79.121 19.78-43.697 0-79.121-8.856-79.121-19.78 0-10.925 35.424-19.781 79.121-19.781 43.697 0 79.121 8.856 79.121 19.781Z" fill="#0A0F1A"/></g><g filter="url(#idea__b)"><path d="M226.104 119.066a118.642 118.642 0 0 0-118.642 118.643c0 27.641 11.809 50.874 25.743 73.463 12.582 20.562 26.901 30.73 35.396 53.062l58.34 14.191 56.505-14.191c8.656-22.332 22.943-32.5 35.557-53.062 13.837-22.525 25.743-45.822 25.743-73.463a118.647 118.647 0 0 0-73.24-109.612 118.646 118.646 0 0 0-45.402-9.031Z" fill="#F9B42F"/></g><path d="M188.328 364.234c-8.624-22.332-22.943-32.5-35.396-53.062-13.869-22.525-25.743-45.822-25.743-73.464a118.643 118.643 0 0 1 108.409-118.191 120.707 120.707 0 0 0-9.653-.386 118.642 118.642 0 0 0-118.642 118.642c0 27.641 11.809 50.874 25.743 73.463 12.581 20.562 26.901 30.731 35.396 53.063l58.339 14.19 9.654-2.413-48.107-11.842Z" fill="#F7AC1B"/><path d="M313.022 224.257a77.23 77.23 0 0 0-75.651-68.958 5.438 5.438 0 1 1 0-10.876 88.426 88.426 0 0 1 86.463 78.901 5.396 5.396 0 0 1-1.235 3.97 5.398 5.398 0 0 1-3.688 1.919h-.611a5.435 5.435 0 0 1-5.278-4.956Z" fill="#fff"/><g opacity=".5" fill="#F5F8F9"><path d="M210.92 371.699a5.6 5.6 0 0 1-5.084-5.631v-92.095h-15.832a21.719 21.719 0 0 1-15.429-6.191 21.72 21.72 0 0 1 14.946-37.25h5.406a21.753 21.753 0 0 1 21.753 21.753v10.78h10.651a5.597 5.597 0 0 1 5.631 5.084 5.47 5.47 0 0 1-5.438 5.792H216.68v92.32a5.443 5.443 0 0 1-1.705 3.964 5.427 5.427 0 0 1-4.055 1.474Zm-21.334-130.355a10.878 10.878 0 0 0-10.812 9.976 11.001 11.001 0 0 0 11.166 11.745h16.089v-10.78a10.907 10.907 0 0 0-11.102-10.941h-5.341Z"/><path d="M243.482 371.7a5.6 5.6 0 0 1-5.085-5.631v-92.095h-10.651a5.6 5.6 0 0 1-5.631-5.116 5.429 5.429 0 0 1 1.463-4.044 5.438 5.438 0 0 1 3.943-1.716h10.876v-10.812a21.754 21.754 0 0 1 21.753-21.753h4.923a21.724 21.724 0 0 1 21.962 21.479 21.724 21.724 0 0 1-21.479 21.962h-16.315v92.288a5.43 5.43 0 0 1-1.704 3.964 5.442 5.442 0 0 1-4.055 1.474Zm5.792-108.602h15.928a10.998 10.998 0 0 0 10.626-7.245 10.99 10.99 0 0 0 .636-4.5 10.872 10.872 0 0 0-10.811-9.976h-5.406a10.912 10.912 0 0 0-10.909 10.909v10.78l-.064.032Z"/></g><path d="M202.456 409.542v18.824a15.843 15.843 0 0 0 4.648 11.206 15.833 15.833 0 0 0 11.216 4.626h15.735a15.862 15.862 0 0 0 15.864-15.832v-18.824h-47.463Z" fill="#41B2C0"/><path d="m272.735 392.584-45.693-14.158-47.528 14.158a14.187 14.187 0 0 0-14.19 14.673 14.447 14.447 0 0 0 14.609 13.676h92.481a14.418 14.418 0 0 0 14.544-13.676 14.186 14.186 0 0 0-8.624-13.539 14.186 14.186 0 0 0-5.534-1.134h-.065Z" fill="#23BCCE"/><path opacity=".4" d="M184.953 406.743a14.147 14.147 0 0 1 4.192-10.058 14.157 14.157 0 0 1 10.095-4.101l37.423-11.166-9.653-2.96-47.496 14.126a14.187 14.187 0 0 0-14.19 14.674 14.446 14.446 0 0 0 14.609 13.675h19.307a14.153 14.153 0 0 1-13.207-8.732 14.158 14.158 0 0 1-1.08-5.458Z" fill="#2498A8"/><path d="M283.548 364.234H170.923a14.416 14.416 0 0 0-14.545 13.676 14.205 14.205 0 0 0 3.971 10.336 14.188 14.188 0 0 0 10.188 4.337h112.625a14.382 14.382 0 0 0 14.512-13.676 14.19 14.19 0 0 0-14.126-14.673Z" fill="#2CC3D5"/><path opacity=".4" d="M176.003 378.425a14.154 14.154 0 0 1 4.136-10.033 14.147 14.147 0 0 1 10.023-4.158h-19.307a14.416 14.416 0 0 0-14.545 13.676 14.185 14.185 0 0 0 14.158 14.673h19.629a14.16 14.16 0 0 1-14.094-14.158Z" fill="#2498A8"/><path d="M408.077 249.84a9.654 9.654 0 0 1-9.814 9.106H379.76a9.654 9.654 0 0 1-9.975-9.106 9.642 9.642 0 0 1 .631-3.803 9.663 9.663 0 0 1 5.244-5.438 9.654 9.654 0 0 1 3.778-.767h19.082a9.649 9.649 0 0 1 6.892 2.986 9.67 9.67 0 0 1 2.665 7.022Zm-335.301 9.106H53.984a9.653 9.653 0 0 1-9.847-9.106 9.652 9.652 0 0 1 9.654-10.008h18.824a9.653 9.653 0 0 1 9.654 9.107 9.655 9.655 0 0 1-9.493 10.007Zm279.729-71.886a9.653 9.653 0 0 1 3.894-12.871l16.282-9.397a9.664 9.664 0 0 1 7.404-.828 9.652 9.652 0 0 1 5.789 4.69 9.655 9.655 0 0 1-3.958 12.871l-16.282 9.396a9.652 9.652 0 0 1-13.129-3.861ZM66.342 330.222a9.655 9.655 0 0 1 3.926-12.872l16.346-9.428a9.67 9.67 0 0 1 3.632-1.164 9.676 9.676 0 0 1 3.799.333 9.665 9.665 0 0 1 5.795 4.725 9.654 9.654 0 0 1-3.958 12.871l-16.347 9.332a9.659 9.659 0 0 1-10.757-.889 9.657 9.657 0 0 1-2.436-2.908Zm306.338 3.797-16.54-9.653a9.653 9.653 0 0 1 9.654-16.54l16.282 9.396a9.655 9.655 0 0 1 3.926 12.872 9.652 9.652 0 0 1-13.322 3.925ZM86.61 190.857l-16.54-9.654a9.652 9.652 0 0 1 9.655-16.539l16.282 9.396a9.654 9.654 0 0 1 3.958 12.871 9.656 9.656 0 0 1-13.354 3.926Z" fill="#FCDA97"/><defs><filter id="idea__a" x="126.582" y="444.439" width="190.242" height="71.561" filterUnits="userSpaceOnUse" color-interpolation-filters="sRGB"><feFlood flood-opacity="0" result="BackgroundImageFix"/><feBlend in="SourceGraphic" in2="BackgroundImageFix" result="shape"/><feGaussianBlur stdDeviation="8" result="effect1_foregroundBlur_10272_1655"/></filter><filter id="idea__b" x="57.681" y="69.285" width="336.846" height="358.921" filterUnits="userSpaceOnUse" color-interpolation-filters="sRGB"><feFlood flood-opacity="0" result="BackgroundImageFix"/><feColorMatrix in="SourceAlpha" values="0 0 0 0 0 0 0 0 0 0 0 0 0 0 0 0 0 0 127 0" result="hardAlpha"/><feOffset/><feGaussianBlur stdDeviation="24.89"/><feColorMatrix values="0 0 0 0 0.988235 0 0 0 0 0.854902 0 0 0 0 0.592157 0 0 0 1 0"/><feBlend in2="BackgroundImageFix" result="effect1_dropShadow_10272_1655"/><feBlend in="SourceGraphic" in2="effect1_dropShadow_10272_1655" result="shape"/></filter></defs></svg>