<svg width="500" height="500" viewBox="0 0 500 500" fill="none" xmlns="http://www.w3.org/2000/svg">
<g clip-path="url(#clip0_223_30434)">
<path d="M113.084 429.718C190.551 483.445 296.906 464.201 350.634 386.733C404.361 309.266 385.117 202.912 307.65 149.184C230.182 95.4563 123.828 114.701 70.1001 192.168C16.3724 269.635 35.6171 375.99 113.084 429.718Z" fill="#F5F5F5"/>
<path d="M345.306 182.176C388.4 212.064 447.564 201.359 477.453 158.264C507.341 115.17 496.635 56.0058 453.541 26.1175C410.447 -3.77077 351.282 6.93486 321.394 50.0292C291.506 93.1235 302.212 152.288 345.306 182.176Z" fill="#B2DFFD"/>
<g filter="url(#filter0_d_223_30434)">
<rect x="161.049" y="348.935" width="184.623" height="129.236" rx="10.1201" fill="#F6F6F6"/>
</g>
<path d="M161.049 359.055C161.049 353.465 165.58 348.935 171.169 348.935H335.552C341.141 348.935 345.672 353.465 345.672 359.055V377.947H161.049V359.055Z" fill="#454545"/>
<path d="M287.492 404.797L287.492 441.485C287.492 444.662 290.068 447.237 293.245 447.237L322.993 447.237C326.17 447.237 328.746 444.662 328.746 441.485L328.746 404.797C328.746 401.62 326.17 399.045 322.993 399.045L293.245 399.045C290.068 399.045 287.492 401.62 287.492 404.797Z" fill="#F6F6F6"/>
<path d="M308.109 424.25C312.4 424.25 315.878 420.772 315.878 416.481C315.878 412.19 312.4 408.712 308.109 408.712C303.818 408.712 300.34 412.19 300.34 416.481C300.34 420.772 303.818 424.25 308.109 424.25Z" fill="#F06305"/>
<path d="M299.604 430.905H316.625" stroke="#F5F5F5" stroke-width="3.02901" stroke-linecap="round" stroke-linejoin="round"/>
<path d="M302.531 437.571H313.681" stroke="#F5F5F5" stroke-width="3.02901" stroke-linecap="round" stroke-linejoin="round"/>
<path d="M233.051 404.797L233.051 441.485C233.051 444.662 235.626 447.237 238.804 447.237L268.552 447.237C271.729 447.237 274.305 444.662 274.305 441.485L274.305 404.797C274.305 401.62 271.729 399.045 268.552 399.045L238.804 399.045C235.626 399.045 233.051 401.62 233.051 404.797Z" fill="#F6F6F6"/>
<path d="M253.668 424.25C257.958 424.25 261.437 420.772 261.437 416.481C261.437 412.19 257.958 408.712 253.668 408.712C249.377 408.712 245.898 412.19 245.898 416.481C245.898 420.772 249.377 424.25 253.668 424.25Z" fill="#0096FA"/>
<path d="M245.164 430.905H262.185" stroke="#F5F5F5" stroke-width="3.02901" stroke-linecap="round" stroke-linejoin="round"/>
<path d="M248.09 437.571H259.24" stroke="#F5F5F5" stroke-width="3.02901" stroke-linecap="round" stroke-linejoin="round"/>
<path d="M178.611 404.797L178.611 441.485C178.611 444.662 181.187 447.237 184.364 447.237L214.112 447.237C217.289 447.237 219.865 444.662 219.865 441.485L219.865 404.797C219.865 401.62 217.289 399.045 214.112 399.045L184.364 399.045C181.187 399.045 178.611 401.62 178.611 404.797Z" fill="#F6F6F6"/>
<path d="M199.228 424.251C203.519 424.251 206.997 420.773 206.997 416.482C206.997 412.191 203.519 408.713 199.228 408.713C194.937 408.713 191.459 412.191 191.459 416.482C191.459 420.773 194.937 424.251 199.228 424.251Z" fill="#35DE90"/>
<path d="M190.723 430.905H207.744" stroke="#F5F5F5" stroke-width="3.02901" stroke-linecap="round" stroke-linejoin="round"/>
<path d="M193.65 437.571H204.8" stroke="#F5F5F5" stroke-width="3.02901" stroke-linecap="round" stroke-linejoin="round"/>
<ellipse cx="253.4" cy="363.441" rx="3.95621" ry="3.95622" fill="#E60F0F"/>
<ellipse cx="253.4" cy="363.441" rx="3.95621" ry="3.95622" fill="#FBCF23"/>
<ellipse cx="253.4" cy="363.441" rx="3.95621" ry="3.95622" fill="#35DE90"/>
<g filter="url(#filter1_d_223_30434)">
<path d="M149.342 41.6161C149.342 36.6354 153.38 32.5977 158.36 32.5977H348.838C353.818 32.5977 357.856 36.6354 357.856 41.6161V287.51C357.856 292.49 353.818 296.528 348.838 296.528H158.36C153.38 296.528 149.342 292.49 149.342 287.51V41.6161Z" fill="#F6F6F6"/>
<path d="M149.342 42.7177C149.342 37.1286 153.873 32.5977 159.462 32.5977H347.736C353.325 32.5977 357.856 37.1286 357.856 42.7177V61.7145H149.342V42.7177Z" fill="#454545"/>
<ellipse cx="169.12" cy="47.1037" rx="3.95621" ry="3.95622" fill="#E60F0F"/>
<ellipse cx="179.673" cy="47.1037" rx="3.95621" ry="3.95622" fill="#FBCF23"/>
<ellipse cx="190.22" cy="47.1037" rx="3.95622" ry="3.95622" fill="#35DE90"/>
<rect x="210.359" y="225.513" width="37.5212" height="12.0085" rx="2.56678" stroke="#1E6BF1" stroke-width="0.733366"/>
<rect x="253.287" y="225.146" width="38.2546" height="12.7419" rx="2.93346" fill="#1E6BF1"/>
<rect x="188.789" y="198.846" width="128.678" height="18.7851" rx="3.60395" fill="#DBDBDB"/>
<ellipse cx="198.651" cy="207.771" rx="2.34814" ry="2.34813" fill="#1E6BF1"/>
<ellipse cx="224.95" cy="207.77" rx="2.34813" ry="2.34813" fill="#1E6BF1"/>
<ellipse cx="211.799" cy="207.77" rx="2.34813" ry="2.34813" fill="#1E6BF1"/>
<ellipse cx="238.098" cy="207.77" rx="2.34813" ry="2.34813" fill="#1E6BF1"/>
<ellipse cx="205.223" cy="207.77" rx="2.34814" ry="2.34813" fill="#1E6BF1"/>
<circle cx="231.524" cy="207.77" r="2.34813" fill="#1E6BF1"/>
<ellipse cx="218.377" cy="207.77" rx="2.34813" ry="2.34813" fill="#1E6BF1"/>
<circle cx="244.674" cy="207.77" r="2.34813" fill="#1E6BF1"/>
<rect x="188.789" y="176.305" width="128.678" height="18.7851" rx="3.60395" fill="#DBDBDB"/>
<path d="M198.654 185.696H248.904" stroke="#8CA0B3" stroke-width="3.60395" stroke-linecap="round"/>
</g>
<path d="M253.642 367.479C282.595 367.479 306.066 344.416 306.066 315.967C306.066 287.518 282.595 264.455 253.642 264.455C224.69 264.455 201.219 287.518 201.219 315.967C201.219 344.416 224.69 367.479 253.642 367.479Z" fill="#C5D9FB"/>
<path d="M267.936 316.687H261.079V301.51C261.079 297.533 257.806 294.296 253.781 294.296C249.757 294.296 246.484 297.531 246.484 301.51V316.687H239.627V301.51C239.627 293.795 245.977 287.519 253.781 287.519C261.586 287.519 267.936 293.795 267.936 301.51V316.687Z" fill="white"/>
<path d="M271.689 311.967H235.877C233.425 311.967 231.438 313.932 231.438 316.355V336.504C231.438 338.928 233.425 340.893 235.877 340.893H271.689C274.141 340.893 276.129 338.928 276.129 336.504V316.355C276.129 313.932 274.141 311.967 271.689 311.967Z" fill="url(#paint0_linear_223_30434)"/>
<path d="M256.097 327.633C257.214 326.895 257.951 325.636 257.951 324.207C257.951 321.931 256.085 320.088 253.784 320.088C251.483 320.088 249.617 321.932 249.617 324.207C249.617 325.635 250.353 326.893 251.471 327.633L249.785 330.952C249.361 331.787 249.975 332.771 250.92 332.771H256.649C257.594 332.771 258.209 331.787 257.784 330.952L256.098 327.633H256.097Z" fill="#072F73"/>
<path d="M253.535 153.791C234.833 153.791 219.671 138.629 219.671 119.927C219.671 101.225 234.833 86.0635 253.535 86.0635C272.237 86.0635 287.398 101.225 287.398 119.927C287.398 138.629 272.237 153.791 253.535 153.791Z" fill="#35DE90"/>
<path d="M253.545 153.754C234.864 153.754 219.719 138.609 219.719 119.928C219.719 101.246 234.864 86.1016 253.545 86.1016C272.227 86.1016 287.371 101.246 287.371 119.928C287.371 138.609 272.227 153.754 253.545 153.754Z" fill="#35DE90"/>
<path d="M236.061 112.522L235.986 133.795L253.312 139.696V115.68L236.061 112.522Z" fill="black"/>
<path d="M236.08 114.39C234.921 106.86 241.515 99.5964 250.809 98.1652C260.103 96.7341 268.577 101.678 269.737 109.207C270.896 116.737 264.302 124.001 255.008 125.432C245.714 126.863 237.24 121.919 236.08 114.39Z" fill="black"/>
<path d="M266.654 107.637L270.112 113.312L269.585 118.687L271.953 128.008L269.247 128.947L266.729 138.118L261.279 136.877L260.114 144.281L244.667 142.327L247.11 128.045L244.892 125.001L247.335 118.799L250.192 122.37L254.326 112.786L266.654 107.637Z" fill="#8C3A03"/>
<path d="M260.34 142.889L253.011 134.959L261.279 136.876L260.34 142.889Z" fill="url(#paint1_linear_223_30434)"/>
<path d="M266.653 107.637L270.111 113.312L249.891 123.159L254.326 112.786L266.653 107.637Z" fill="url(#paint2_linear_223_30434)"/>
<path d="M249.52 132.217L246.024 136.351L247.114 128.045L249.52 132.217Z" fill="url(#paint3_linear_223_30434)"/>
<path d="M268.042 133.306L267.178 129.36L269.207 128.946L268.042 133.306Z" fill="url(#paint4_linear_223_30434)"/>
<path d="M260.442 133.174C260.385 132.617 260.925 132.105 261.648 132.031C262.37 131.958 263.002 132.35 263.059 132.907C263.116 133.465 262.576 133.977 261.853 134.05C261.131 134.124 260.499 133.732 260.442 133.174Z" fill="#A3A3A3"/>
<path d="M260.859 133.084C260.859 133.084 248.081 134.587 245.112 123.913" stroke="url(#paint5_linear_223_30434)" stroke-width="2" stroke-miterlimit="10"/>
<mask id="mask0_223_30434" style="mask-type:luminance" maskUnits="userSpaceOnUse" x="235" y="87" width="24" height="33">
<path d="M258.145 98.4307L253.935 98.0173L247.02 119.365L235.97 119.102L250.853 87.5312L258.145 98.4307Z" fill="white"/>
</mask>
<g mask="url(#mask0_223_30434)">
<path d="M257.615 99.7833C255.962 97.6034 254.12 96.3631 252.203 96.4758C246.904 96.8141 243.258 107.263 244.047 119.853" stroke="#0C4EC0" stroke-width="6.3029" stroke-miterlimit="10"/>
</g>
<path d="M240.191 123.725C240.867 127.296 243.649 129.777 246.355 129.25C249.061 128.724 250.715 125.417 250.038 121.846C249.361 118.276 246.58 115.795 243.874 116.321C241.168 116.848 239.514 120.155 240.191 123.725Z" fill="url(#paint6_linear_223_30434)"/>
</g>
<defs>
<filter id="filter0_d_223_30434" x="153.049" y="342.935" width="200.623" height="145.236" filterUnits="userSpaceOnUse" color-interpolation-filters="sRGB">
<feFlood flood-opacity="0" result="BackgroundImageFix"/>
<feColorMatrix in="SourceAlpha" type="matrix" values="0 0 0 0 0 0 0 0 0 0 0 0 0 0 0 0 0 0 127 0" result="hardAlpha"/>
<feOffset dy="2"/>
<feGaussianBlur stdDeviation="4"/>
<feColorMatrix type="matrix" values="0 0 0 0 0.027451 0 0 0 0 0.278431 0 0 0 0 0.65098 0 0 0 0.15 0"/>
<feBlend mode="normal" in2="BackgroundImageFix" result="effect1_dropShadow_223_30434"/>
<feBlend mode="normal" in="SourceGraphic" in2="effect1_dropShadow_223_30434" result="shape"/>
</filter>
<filter id="filter1_d_223_30434" x="141.342" y="26.5977" width="224.514" height="279.931" filterUnits="userSpaceOnUse" color-interpolation-filters="sRGB">
<feFlood flood-opacity="0" result="BackgroundImageFix"/>
<feColorMatrix in="SourceAlpha" type="matrix" values="0 0 0 0 0 0 0 0 0 0 0 0 0 0 0 0 0 0 127 0" result="hardAlpha"/>
<feOffset dy="2"/>
<feGaussianBlur stdDeviation="4"/>
<feColorMatrix type="matrix" values="0 0 0 0 0.027451 0 0 0 0 0.278431 0 0 0 0 0.65098 0 0 0 0.15 0"/>
<feBlend mode="normal" in2="BackgroundImageFix" result="effect1_dropShadow_223_30434"/>
<feBlend mode="normal" in="SourceGraphic" in2="effect1_dropShadow_223_30434" result="shape"/>
</filter>
<linearGradient id="paint0_linear_223_30434" x1="239.688" y1="304.563" x2="271.17" y2="354.548" gradientUnits="userSpaceOnUse">
<stop stop-color="#0096FA"/>
<stop offset="0.28" stop-color="#0390F8"/>
<stop offset="0.63" stop-color="#0B80F5"/>
<stop offset="1" stop-color="#1968F0"/>
</linearGradient>
<linearGradient id="paint1_linear_223_30434" x1="253.443" y1="142.598" x2="261.677" y2="133.256" gradientUnits="userSpaceOnUse">
<stop offset="0.4289" stop-opacity="0"/>
<stop offset="1" stop-opacity="0.5"/>
</linearGradient>
<linearGradient id="paint2_linear_223_30434" x1="268.415" y1="133.226" x2="252.234" y2="103.617" gradientUnits="userSpaceOnUse">
<stop offset="0.5074" stop-opacity="0"/>
<stop offset="0.8834" stop-opacity="0.5"/>
</linearGradient>
<linearGradient id="paint3_linear_223_30434" x1="252.423" y1="137.026" x2="242.959" y2="129.066" gradientUnits="userSpaceOnUse">
<stop offset="0.3675" stop-opacity="0"/>
<stop offset="0.8842" stop-opacity="0.5"/>
</linearGradient>
<linearGradient id="paint4_linear_223_30434" x1="264.853" y1="133.783" x2="271.421" y2="128.567" gradientUnits="userSpaceOnUse">
<stop offset="0.3675" stop-opacity="0"/>
<stop offset="0.9278" stop-opacity="0.5"/>
</linearGradient>
<linearGradient id="paint5_linear_223_30434" x1="244.777" y1="128.667" x2="260.92" y2="128.667" gradientUnits="userSpaceOnUse">
<stop stop-color="#E0E0E0"/>
<stop offset="0.233" stop-color="#D9D9D9"/>
<stop offset="0.5821" stop-color="#C4C4C4"/>
<stop offset="1" stop-color="#A3A3A3"/>
</linearGradient>
<linearGradient id="paint6_linear_223_30434" x1="241.375" y1="117.173" x2="250.923" y2="131.397" gradientUnits="userSpaceOnUse">
<stop stop-color="#E0E0E0"/>
<stop offset="0.233" stop-color="#D9D9D9"/>
<stop offset="0.5821" stop-color="#C4C4C4"/>
<stop offset="1" stop-color="#A3A3A3"/>
</linearGradient>
<clipPath id="clip0_223_30434">
<rect width="500" height="500" fill="white"/>
</clipPath>
</defs>
</svg>
