<svg width="522" height="506" viewBox="0 0 522 506" fill="none" xmlns="http://www.w3.org/2000/svg"><path d="M468.097 145.764c-26.182-22.316-61.92-34.433-97.631-42.399a727.875 727.875 0 0 0-19.734-4.062c-23.184-4.42-44.561-14.132-61.893-28.117l-.337-.246c-18.672-15.152-34.65-33.093-56.196-45.344-15.287-8.569-32.773-13.788-50.935-15.204-18.162-1.416-36.451 1.015-53.274 7.08-33.355 12.587-58.164 41.061-61.686 72.28-4.247 37.401 20.018 74.734 11.627 111.577C67.68 246.852 7.625 287.934 7.003 334.328c-.284 22.873 17.274 56.078 39.105 69.178 21.83 13.099 49.696 17.45 76.007 14.527 40.14-4.463 75.101-44.631 111.615-59.783 39.225-16.328 81.163-27.29 124.305-32.491 29.212-3.504 59.563-4.463 86.159-15.621 33.666-14.103 57.102-44.296 61.142-76.385 4.04-32.09-10.617-65.339-37.239-87.989Z" fill="#B9CBD3" style="mix-blend-mode:luminosity" opacity=".16"/><g opacity=".1" filter="url(#letter/error-empty__a)"><ellipse cx="261.497" cy="461.145" rx="244.502" ry="27.978" fill="#0A0F1A"/></g><g filter="url(#letter/error-empty__b)"><path fill-rule="evenodd" clip-rule="evenodd" d="M392.003 31.937c3.382 0 6.124 2.841 6.125 6.345l-.001 147.99v72.087l-24.505 18.02v.001l-81.846 60.163-.001-.001-.001.001-34.532-25.383-34.437 25.383h-.121l-81.845-60.162-24.506-18.022V38.282c0-3.504 2.743-6.345 6.127-6.345h269.543Z" fill="#fff"/></g><path d="M303.067 247.966h-92.379c-2.847 0-5.133 2.525-5.133 5.669 0 3.121 2.286 5.667 5.133 5.667h92.38c2.847 0 5.133-2.546 5.133-5.667-.001-3.143-2.287-5.669-5.134-5.669Zm-20.509 22.671h-51.334c-2.847 0-5.133 2.524-5.133 5.667 0 3.122 2.286 5.668 5.133 5.668h51.334c2.828 0 5.133-2.546 5.133-5.668 0-3.143-2.307-5.667-5.133-5.667Z" fill="#D2DFE6"/><path d="m397.777 253.266-24.506 19.207-81.821 64.122h-69.116l-81.845-64.122-24.506-19.207-49.012-38.417v216.438c0 8.137 3.326 15.35 8.471 20.291h-.023c.023.027.048.027.072.054 3.996 3.805 9.022 6.288 14.622 6.578h333.774c2.824-.131 5.385-.951 7.85-2.034h.12c8.806-4.042 14.932-13.66 14.932-24.889V214.85l-49.012 38.416Z" fill="#FFD27A"/><path fill-rule="evenodd" clip-rule="evenodd" d="M115.985 167.365v-.001s-12.253 7.865-24.506 17.728v.001c-12.253 9.862-24.505 21.72-24.505 29.705l41.608 32.614 7.403 5.803v-.001l.001.001v-85.851l-.001.001Z" fill="#F5BD4D"/><path d="m446.793 214.91-49.012 38.417v-85.851s49.012 31.463 49.012 47.434Z" fill="#F5BD4D"/><path d="m291.426 336.543-29.953-23.219c-1.122-1.406-2.762-2.297-4.593-2.297s-3.469.892-4.592 2.297h-.007l-29.826 23.219h-.119L75.419 451.526c3.925 3.778 9.07 6.21 14.694 6.632h333.774c2.824-.132 5.385-.951 7.85-2.034h.12c2.321-1.216 4.523-2.721 6.485-4.598L291.426 336.543Z" fill="#FFD686"/><path fill-rule="evenodd" clip-rule="evenodd" d="M220.888 90.954A64.999 64.999 0 0 1 257 80a65.073 65.073 0 0 1 65 65 65 65 0 1 1-101.112-54.046Zm5.53 99.815A55.042 55.042 0 0 0 257 200.046 55.096 55.096 0 0 0 312.046 145a55.042 55.042 0 0 0-33.981-50.856 55.046 55.046 0 0 0-51.647 96.625Zm51.142-69.69a6.212 6.212 0 0 1 2.014 1.351 6.202 6.202 0 0 1 0 8.785l-13.762 13.786 13.762 13.786a6.203 6.203 0 0 1 0 8.785 6.13 6.13 0 0 1-4.38 1.841 6.208 6.208 0 0 1-4.405-1.841l-13.786-13.762-13.786 13.762a6.221 6.221 0 0 1-4.405 1.841 6.115 6.115 0 0 1-4.38-1.841 6.185 6.185 0 0 1-1.826-4.392 6.204 6.204 0 0 1 1.826-4.393l13.762-13.786-13.762-13.786a6.224 6.224 0 0 1 4.464-10.365 6.224 6.224 0 0 1 4.321 1.58l13.786 13.762 13.786-13.762a6.201 6.201 0 0 1 6.771-1.351Z" fill="#D2DFE6"/><defs><filter id="letter/error-empty__a" x=".995" y="417.168" width="521.005" height="87.955" filterUnits="userSpaceOnUse" color-interpolation-filters="sRGB"><feFlood flood-opacity="0" result="BackgroundImageFix"/><feBlend in="SourceGraphic" in2="BackgroundImageFix" result="shape"/><feGaussianBlur stdDeviation="8" result="effect1_foregroundBlur_10272_1643"/></filter><filter id="letter/error-empty__b" x="104.333" y="21.937" width="305.795" height="328.606" filterUnits="userSpaceOnUse" color-interpolation-filters="sRGB"><feFlood flood-opacity="0" result="BackgroundImageFix"/><feColorMatrix in="SourceAlpha" values="0 0 0 0 0 0 0 0 0 0 0 0 0 0 0 0 0 0 127 0" result="hardAlpha"/><feOffset dy="2"/><feGaussianBlur stdDeviation="6"/><feColorMatrix values="0 0 0 0 0.374547 0 0 0 0 0.481553 0 0 0 0 0.601935 0 0 0 0.15 0"/><feBlend in2="BackgroundImageFix" result="effect1_dropShadow_10272_1643"/><feBlend in="SourceGraphic" in2="effect1_dropShadow_10272_1643" result="shape"/></filter></defs></svg>