<svg width="522" height="500" viewBox="0 0 522 500" fill="none" xmlns="http://www.w3.org/2000/svg">
<path d="M289.033 16.2689C165.52 -1.60549 50.9026 84.0314 33.0282 207.544C15.1538 331.057 100.791 445.674 224.304 463.548C347.816 481.423 462.433 395.786 480.308 272.273C498.182 148.76 412.545 34.1433 289.033 16.2689Z" fill="#B2DFFD" fill-opacity="0.5"/>
<g opacity="0.1" filter="url(#filter0_f_10272_1639)">
<ellipse cx="261.008" cy="451.881" rx="244.992" ry="26.783" fill="#0A0F1A"/>
</g>
<g filter="url(#filter1_d_10272_1639)">
<path fill-rule="evenodd" clip-rule="evenodd" d="M391.003 75C394.385 75 397.127 77.5423 397.128 80.6773L397.127 213.09V277.589L372.622 293.712V293.713L290.776 347.543L290.775 347.542L290.774 347.543L256.242 324.832L221.805 347.543H221.804L221.804 347.543H221.684L139.839 293.713L115.333 277.589V213.09V80.678C115.333 77.5423 118.076 75 121.46 75H391.003Z" fill="white"/>
</g>
<path d="M396.777 264.266L372.271 283.473L290.45 347.595H221.453H221.334L139.489 283.473L114.983 264.266L65.9707 225.849V442.287C65.9707 450.424 69.2973 457.637 74.4423 462.578H74.4186C74.4423 462.605 74.4668 462.605 74.4905 462.632C78.4875 466.437 83.5125 468.92 89.1131 469.211H422.887C425.711 469.079 428.272 468.259 430.737 467.176H430.857C439.663 463.134 445.789 453.516 445.789 442.287V225.85L396.777 264.266Z" fill="#0096FA"/>
<path fill-rule="evenodd" clip-rule="evenodd" d="M114.985 178.365V178.364C114.985 178.364 102.732 186.229 90.4793 196.092V196.093C78.2264 205.955 65.9736 217.813 65.9736 225.798L107.582 258.412L114.985 264.215V264.214L114.986 264.215V178.364C114.986 178.364 114.985 178.365 114.985 178.365Z" fill="#0D4FC1"/>
<path d="M445.793 225.91L396.781 264.327V178.476C396.781 178.476 445.793 209.939 445.793 225.91Z" fill="#0D4FC1"/>
<path d="M290.426 347.544L260.473 324.324C259.351 322.918 257.711 322.027 255.88 322.027C254.049 322.027 252.41 322.919 251.288 324.324H251.28L221.455 347.544H221.336L74.4185 462.526C78.3436 466.304 83.4886 468.736 89.1129 469.158H422.887C425.71 469.026 428.272 468.207 430.736 467.124H430.856C433.178 465.908 435.379 464.403 437.341 462.526L290.426 347.544Z" fill="#18A0FB"/>
<defs>
<filter id="filter0_f_10272_1639" x="0.015625" y="409.098" width="521.985" height="85.5661" filterUnits="userSpaceOnUse" color-interpolation-filters="sRGB">
<feFlood flood-opacity="0" result="BackgroundImageFix"/>
<feBlend mode="normal" in="SourceGraphic" in2="BackgroundImageFix" result="shape"/>
<feGaussianBlur stdDeviation="8" result="effect1_foregroundBlur_10272_1639"/>
</filter>
<filter id="filter1_d_10272_1639" x="103.333" y="65" width="305.795" height="296.543" filterUnits="userSpaceOnUse" color-interpolation-filters="sRGB">
<feFlood flood-opacity="0" result="BackgroundImageFix"/>
<feColorMatrix in="SourceAlpha" type="matrix" values="0 0 0 0 0 0 0 0 0 0 0 0 0 0 0 0 0 0 127 0" result="hardAlpha"/>
<feOffset dy="2"/>
<feGaussianBlur stdDeviation="6"/>
<feColorMatrix type="matrix" values="0 0 0 0 0.374547 0 0 0 0 0.481553 0 0 0 0 0.601935 0 0 0 0.15 0"/>
<feBlend mode="normal" in2="BackgroundImageFix" result="effect1_dropShadow_10272_1639"/>
<feBlend mode="normal" in="SourceGraphic" in2="effect1_dropShadow_10272_1639" result="shape"/>
</filter>
</defs>
</svg>
