<svg width="522" height="500" viewBox="0 0 522 500" fill="none" xmlns="http://www.w3.org/2000/svg"><path d="M468.021 155.172c-26.234-22.053-62.043-34.029-97.827-41.902a746.236 746.236 0 0 0-19.773-4.014c-23.23-4.369-44.65-13.966-62.017-27.787l-.338-.243c-18.709-14.974-34.719-32.706-56.308-44.813-15.318-8.468-32.839-13.626-51.037-15.025-18.199-1.4-36.524 1.003-53.381 6.997-33.422 12.439-58.281 40.58-61.81 71.432-4.256 36.963 20.058 73.858 11.65 110.269-10.379 44.99-70.554 85.591-71.177 131.441-.285 22.605 17.308 55.421 39.183 68.366 21.875 12.946 49.796 17.246 76.16 14.357 40.22-4.41 75.251-44.107 111.839-59.082 39.304-16.136 81.325-26.969 124.554-32.11 29.27-3.462 59.682-4.411 86.331-15.438 33.734-13.938 57.217-43.776 61.265-75.49 4.048-31.713-10.639-64.573-37.314-86.958Z" fill="#B9CBD3" style="mix-blend-mode:luminosity" opacity=".16"/><g opacity=".1" filter="url(#letter/check-okay__a)"><ellipse cx="261.008" cy="452.881" rx="244.992" ry="26.783" fill="#0A0F1A"/></g><g filter="url(#letter/check-okay__b)"><path fill-rule="evenodd" clip-rule="evenodd" d="M391.003 42.937c3.382 0 6.124 2.841 6.125 6.345l-.001 147.99v72.087l-24.505 18.02v.001l-81.846 60.163-.001-.001-.001.001-34.532-25.383-34.437 25.383h-.121l-81.845-60.162-24.506-18.022V49.282c0-3.504 2.743-6.345 6.127-6.345h269.543Z" fill="#fff"/></g><path d="M302.067 258.966h-92.379c-2.847 0-5.133 2.525-5.133 5.669 0 3.121 2.286 5.667 5.133 5.667h92.38c2.847 0 5.133-2.546 5.133-5.667-.001-3.143-2.287-5.669-5.134-5.669Zm-20.509 22.671h-51.334c-2.847 0-5.133 2.524-5.133 5.667 0 3.122 2.286 5.668 5.133 5.668h51.334c2.828 0 5.133-2.546 5.133-5.668 0-3.143-2.307-5.667-5.133-5.667Z" fill="#D2DFE6"/><path d="m396.777 264.266-24.506 19.207-81.821 64.122h-69.116l-81.845-64.122-24.506-19.207-49.012-38.417v216.438c0 8.137 3.326 15.35 8.471 20.291h-.023c.023.027.048.027.072.054 3.996 3.805 9.022 6.288 14.622 6.578h333.774c2.824-.131 5.385-.951 7.85-2.034h.12c8.806-4.042 14.932-13.66 14.932-24.889V225.85l-49.012 38.416Z" fill="#FFD27A"/><path fill-rule="evenodd" clip-rule="evenodd" d="M114.985 178.365v-.001s-12.253 7.865-24.506 17.728v.001c-12.253 9.862-24.505 21.72-24.505 29.705l41.608 32.614 7.403 5.803v-.001l.001.001v-85.851l-.001.001Z" fill="#F5BD4D"/><path d="m445.793 225.91-49.012 38.417v-85.851s49.012 31.463 49.012 47.434Z" fill="#F5BD4D"/><path d="m290.426 347.543-29.953-23.219c-1.122-1.406-2.762-2.297-4.593-2.297s-3.469.892-4.592 2.297h-.007l-29.826 23.219h-.119L74.419 462.526c3.925 3.778 9.07 6.21 14.694 6.632h333.774c2.824-.132 5.385-.951 7.85-2.034h.12c2.321-1.216 4.523-2.721 6.485-4.598L290.426 347.543Z" fill="#FFD686"/><path d="M256.051 90.7a65.36 65.36 0 0 0-36.312 10.981 65.308 65.308 0 0 0-24.086 29.295 65.269 65.269 0 0 0 14.131 71.18 65.345 65.345 0 0 0 33.452 17.886 65.377 65.377 0 0 0 37.757-3.708 65.326 65.326 0 0 0 29.33-24.05A65.28 65.28 0 0 0 321.338 156a65.359 65.359 0 0 0-19.141-46.135A65.432 65.432 0 0 0 256.051 90.7Zm34.094 55.625L253.55 180.85a11.609 11.609 0 0 1-15.734 0l-16.284-15a6.25 6.25 0 0 1-.337-8.838 6.263 6.263 0 0 1 8.842-.337L245.571 171l36.02-33.875a6.256 6.256 0 0 1 8.623.469 6.248 6.248 0 0 1-.069 8.631v.1Z" fill="#4DCB7B"/><defs><filter id="letter/check-okay__a" x=".016" y="410.098" width="521.984" height="85.566" filterUnits="userSpaceOnUse" color-interpolation-filters="sRGB"><feFlood flood-opacity="0" result="BackgroundImageFix"/><feBlend in="SourceGraphic" in2="BackgroundImageFix" result="shape"/><feGaussianBlur stdDeviation="8" result="effect1_foregroundBlur_10272_1641"/></filter><filter id="letter/check-okay__b" x="103.333" y="32.937" width="305.795" height="328.606" filterUnits="userSpaceOnUse" color-interpolation-filters="sRGB"><feFlood flood-opacity="0" result="BackgroundImageFix"/><feColorMatrix in="SourceAlpha" values="0 0 0 0 0 0 0 0 0 0 0 0 0 0 0 0 0 0 127 0" result="hardAlpha"/><feOffset dy="2"/><feGaussianBlur stdDeviation="6"/><feColorMatrix values="0 0 0 0 0.374547 0 0 0 0 0.481553 0 0 0 0 0.601935 0 0 0 0.15 0"/><feBlend in2="BackgroundImageFix" result="effect1_dropShadow_10272_1641"/><feBlend in="SourceGraphic" in2="effect1_dropShadow_10272_1641" result="shape"/></filter></defs></svg>