<svg width="522" height="500" fill="none" xmlns="http://www.w3.org/2000/svg"><path d="M468.021 155.221c-26.234-22.062-62.043-34.042-97.827-41.918a742.247 742.247 0 0 0-19.773-4.015c-23.23-4.37-44.65-13.971-62.017-27.797l-.338-.243c-18.709-14.98-34.719-32.718-56.308-44.83-15.318-8.47-32.839-13.63-51.037-15.03-18.199-1.4-36.524 1.003-53.381 7-33.422 12.443-58.281 40.593-61.81 71.458-4.256 36.975 20.058 73.884 11.65 110.308C66.802 255.16 6.627 295.776 6.004 341.642c-.285 22.613 17.308 55.441 39.183 68.391 21.875 12.951 49.796 17.253 76.16 14.363 40.22-4.413 75.251-44.124 111.839-59.104 39.304-16.142 81.325-26.979 124.554-32.122 29.27-3.463 59.682-4.412 86.331-15.443 33.734-13.943 57.217-43.792 61.265-75.517 4.048-31.725-10.639-64.597-37.314-86.989Z" fill="#B9CBD3" style="mix-blend-mode:luminosity" opacity=".16"/><g opacity=".1" filter="url(#letter/empty__a)"><ellipse cx="261.008" cy="451.881" rx="244.992" ry="26.783" fill="#0A0F1A"/></g><g filter="url(#letter/empty__b)"><path fill-rule="evenodd" clip-rule="evenodd" d="M391.003 42.937c3.382 0 6.124 2.841 6.125 6.345l-.001 147.99v72.087l-24.505 18.02v.001l-81.846 60.163-.001-.001-.001.001-34.532-25.383-34.437 25.383h-.121l-81.845-60.162-24.506-18.022V49.282c0-3.504 2.743-6.345 6.127-6.345h269.543Z" fill="#fff"/></g><path d="m396.777 264.266-24.506 19.207-81.821 64.122h-69.116l-81.845-64.122-24.506-19.207-49.012-38.417v216.438c0 8.137 3.326 15.35 8.471 20.291h-.023c.023.027.048.027.072.054 3.996 3.805 9.022 6.288 14.622 6.578h333.774c2.824-.131 5.385-.951 7.85-2.034h.12c8.806-4.042 14.932-13.66 14.932-24.889V225.85l-49.012 38.416Z" fill="#FFD27A"/><path fill-rule="evenodd" clip-rule="evenodd" d="M114.985 178.365v-.001s-12.253 7.865-24.506 17.728v.001c-12.253 9.862-24.505 21.72-24.505 29.705l41.608 32.614 7.403 5.803v-.001l.001.001v-85.851l-.001.001Z" fill="#F5BD4D"/><path d="m445.793 225.91-49.012 38.417v-85.851s49.012 31.463 49.012 47.434Z" fill="#F5BD4D"/><path d="m290.426 347.543-29.953-23.219c-1.122-1.406-2.762-2.297-4.593-2.297s-3.469.892-4.592 2.297h-.007l-29.826 23.219h-.119L74.419 462.526c3.925 3.778 9.07 6.21 14.694 6.632h333.774c2.824-.132 5.385-.951 7.85-2.034h.12c2.321-1.216 4.523-2.721 6.485-4.598L290.426 347.543Z" fill="#FFD686"/><defs><filter id="letter/empty__a" x=".016" y="409.098" width="521.984" height="85.566" filterUnits="userSpaceOnUse" color-interpolation-filters="sRGB"><feFlood flood-opacity="0" result="BackgroundImageFix"/><feBlend in="SourceGraphic" in2="BackgroundImageFix" result="shape"/><feGaussianBlur stdDeviation="8" result="effect1_foregroundBlur_10272_1639"/></filter><filter id="letter/empty__b" x="103.333" y="32.937" width="305.795" height="328.606" filterUnits="userSpaceOnUse" color-interpolation-filters="sRGB"><feFlood flood-opacity="0" result="BackgroundImageFix"/><feColorMatrix in="SourceAlpha" values="0 0 0 0 0 0 0 0 0 0 0 0 0 0 0 0 0 0 127 0" result="hardAlpha"/><feOffset dy="2"/><feGaussianBlur stdDeviation="6"/><feColorMatrix values="0 0 0 0 0.374547 0 0 0 0 0.481553 0 0 0 0 0.601935 0 0 0 0.15 0"/><feBlend in2="BackgroundImageFix" result="effect1_dropShadow_10272_1639"/><feBlend in="SourceGraphic" in2="effect1_dropShadow_10272_1639" result="shape"/></filter></defs></svg>