<svg width="522" height="500" fill="none" xmlns="http://www.w3.org/2000/svg"><path d="M468.021 156.136c-26.234-22.048-62.043-34.02-97.827-41.891a738.256 738.256 0 0 0-19.773-4.012c-23.23-4.368-44.65-13.963-62.017-27.78l-.338-.243c-18.709-14.97-34.719-32.697-56.308-44.801-15.318-8.466-32.839-13.623-51.037-15.022-18.199-1.398-36.524 1.003-53.381 6.996-33.422 12.435-58.281 40.568-61.81 71.413-4.256 36.952 20.058 73.838 11.65 110.239C66.802 256.012 6.627 296.602 6.004 342.44c-.285 22.599 17.308 55.406 39.183 68.348s49.796 17.241 76.16 14.353c40.22-4.41 75.251-44.096 111.839-59.066 39.304-16.132 81.325-26.962 124.554-32.102 29.27-3.461 59.682-4.409 86.331-15.433 33.734-13.934 57.217-43.765 61.265-75.47 4.048-31.704-10.639-64.556-37.314-86.934Z" fill="#B9CBD3" style="mix-blend-mode:luminosity" opacity=".16"/><g opacity=".1" filter="url(#letter/cancel-error__a)"><ellipse cx="261.008" cy="452.881" rx="244.992" ry="26.783" fill="#0A0F1A"/></g><g filter="url(#letter/cancel-error__b)"><path fill-rule="evenodd" clip-rule="evenodd" d="M391.003 43.937c3.382 0 6.124 2.841 6.125 6.345l-.001 147.99v72.087l-24.505 18.02v.001l-81.846 60.163-.001-.001-.001.001-34.532-25.383-34.437 25.383h-.121l-81.845-60.162-24.506-18.022V50.282c0-3.504 2.743-6.345 6.127-6.345h269.543Z" fill="#fff"/></g><path d="M302.067 259.966h-92.379c-2.847 0-5.133 2.525-5.133 5.669 0 3.121 2.286 5.667 5.133 5.667h92.38c2.847 0 5.133-2.546 5.133-5.667-.001-3.143-2.287-5.669-5.134-5.669Zm-20.509 22.671h-51.334c-2.847 0-5.133 2.524-5.133 5.667 0 3.122 2.286 5.668 5.133 5.668h51.334c2.828 0 5.133-2.546 5.133-5.668 0-3.143-2.307-5.667-5.133-5.667Z" fill="#D2DFE6"/><path d="m396.777 265.266-24.506 19.207-81.821 64.122h-69.116l-81.845-64.122-24.506-19.207-49.012-38.417v216.438c0 8.137 3.326 15.35 8.471 20.291h-.023c.023.027.048.027.072.054 3.996 3.805 9.022 6.288 14.622 6.578h333.774c2.824-.131 5.385-.951 7.85-2.034h.12c8.806-4.042 14.932-13.66 14.932-24.889V226.85l-49.012 38.416Z" fill="#FFD27A"/><path fill-rule="evenodd" clip-rule="evenodd" d="M114.985 179.365v-.001s-12.253 7.865-24.506 17.728v.001c-12.253 9.862-24.505 21.72-24.505 29.705l41.608 32.614 7.403 5.803v-.001l.001.001v-85.851l-.001.001Z" fill="#F5BD4D"/><path d="m445.793 226.91-49.012 38.417v-85.851s49.012 31.463 49.012 47.434Z" fill="#F5BD4D"/><path d="m290.426 348.543-29.953-23.219c-1.122-1.406-2.762-2.297-4.593-2.297s-3.469.892-4.592 2.297h-.007l-29.826 23.219h-.119L74.419 463.526c3.925 3.778 9.07 6.21 14.694 6.632h333.774c2.824-.132 5.385-.951 7.85-2.034h.12c2.321-1.216 4.523-2.721 6.485-4.598L290.426 348.543Z" fill="#FFD686"/><path d="M255.999 91.7a65.297 65.297 0 0 0-60.329 40.311 65.298 65.298 0 0 0 85.318 85.318A65.299 65.299 0 0 0 321.299 157a65.374 65.374 0 0 0-65.3-65.3Zm22.675 79.15a6.216 6.216 0 0 1 1.834 4.412 6.216 6.216 0 0 1-1.834 4.413 6.154 6.154 0 0 1-4.4 1.85 6.247 6.247 0 0 1-4.425-1.85l-13.85-13.85-13.85 13.85a6.243 6.243 0 0 1-4.425 1.85 6.157 6.157 0 0 1-4.4-1.85 6.23 6.23 0 0 1-1.357-6.802 6.23 6.23 0 0 1 1.357-2.023L247.149 157l-13.825-13.85a6.25 6.25 0 0 1 8.825-8.85l13.85 13.85 13.85-13.85a6.249 6.249 0 0 1 8.762.088 6.252 6.252 0 0 1 .063 8.762L264.849 157l13.825 13.85Z" fill="#FF5A60"/><defs><filter id="letter/cancel-error__a" x=".016" y="410.098" width="521.984" height="85.566" filterUnits="userSpaceOnUse" color-interpolation-filters="sRGB"><feFlood flood-opacity="0" result="BackgroundImageFix"/><feBlend in="SourceGraphic" in2="BackgroundImageFix" result="shape"/><feGaussianBlur stdDeviation="8" result="effect1_foregroundBlur_10272_1640"/></filter><filter id="letter/cancel-error__b" x="103.333" y="33.937" width="305.795" height="328.606" filterUnits="userSpaceOnUse" color-interpolation-filters="sRGB"><feFlood flood-opacity="0" result="BackgroundImageFix"/><feColorMatrix in="SourceAlpha" values="0 0 0 0 0 0 0 0 0 0 0 0 0 0 0 0 0 0 127 0" result="hardAlpha"/><feOffset dy="2"/><feGaussianBlur stdDeviation="6"/><feColorMatrix values="0 0 0 0 0.374547 0 0 0 0 0.481553 0 0 0 0 0.601935 0 0 0 0.15 0"/><feBlend in2="BackgroundImageFix" result="effect1_dropShadow_10272_1640"/><feBlend in="SourceGraphic" in2="effect1_dropShadow_10272_1640" result="shape"/></filter></defs></svg>