<svg width="522" height="518" viewBox="0 0 522 518" fill="none" xmlns="http://www.w3.org/2000/svg">
<g opacity="0.1" filter="url(#filter0_f_10272_1638)">
<path d="M506 474.881C506 489.673 396.313 501.664 261.007 501.664C125.702 501.664 16.0151 489.673 16.0151 474.881C16.0151 460.09 125.702 448.098 261.007 448.098C396.313 448.098 506 460.09 506 474.881Z" fill="#0A0F1A"/>
</g>
<path d="M222 59.9999C102.706 59.9999 5.99951 156.706 5.99952 276C5.99953 395.293 102.706 492 222 492C341.293 492 438 395.293 437.999 276C437.999 156.706 341.293 59.9999 222 59.9999Z" fill="#B2DFFD"/>
<path d="M443.526 9.38936C404.389 3.72558 368.07 30.8609 362.407 69.9979C356.743 109.135 383.878 145.453 423.015 151.117C462.152 156.781 498.47 129.645 504.134 90.5082C509.798 51.3713 482.662 15.0531 443.526 9.38936Z" fill="#1E6BF1"/>
<path d="M396.777 287.265L372.271 306.473L290.449 370.594H221.453H221.334L139.488 306.473L114.982 287.265L65.9702 248.849V465.287C65.9702 473.424 69.2968 480.636 74.4418 485.578H74.4182C74.4418 485.604 74.4663 485.604 74.49 485.631C78.487 489.436 83.512 491.92 89.1126 492.21H422.887C425.71 492.078 428.272 491.259 430.736 490.176H430.856C439.662 486.133 445.789 476.516 445.789 465.287V248.849L396.777 287.265Z" fill="#0096FA"/>
<path d="M290.425 370.543L260.472 347.324C259.35 345.918 257.71 345.027 255.879 345.027C254.048 345.027 252.41 345.919 251.287 347.324H251.28L221.454 370.543H221.335L74.418 485.526C78.3431 489.304 83.4881 491.735 89.1124 492.158H422.886C425.71 492.026 428.271 491.207 430.736 490.123H430.856C433.177 488.907 435.379 487.403 437.341 485.526L290.425 370.543Z" fill="#18A0FB"/>
<path fill-rule="evenodd" clip-rule="evenodd" d="M68.1115 255.423L65.9995 253.845V241.669C65.9995 230.963 72.1267 221.794 80.934 217.94H81.054C83.5186 216.906 86.0804 216.125 88.9043 216L422.713 216C428.314 216.276 433.34 218.644 437.337 222.272C437.349 222.285 437.361 222.292 437.374 222.298C437.386 222.304 437.397 222.311 437.409 222.323H437.385C442.531 227.035 445.858 233.912 445.858 241.669L445.858 257.116V253.846L443.768 255.408C444.496 255.94 445.193 256.511 445.858 257.116C445.872 257.129 445.887 257.142 445.901 257.155L445.858 257.188L292.111 371.602H291.986L260.765 394.713H260.758C259.582 396.112 257.867 397 255.95 397C254.034 397 252.318 396.113 251.143 394.713H251.142L219.788 371.602L65.9999 257.155C66.678 256.539 67.3833 255.962 68.1115 255.423Z" fill="#3AB1FF"/>
<defs>
<filter id="filter0_f_10272_1638" x="0.0151367" y="432.098" width="521.985" height="85.566" filterUnits="userSpaceOnUse" color-interpolation-filters="sRGB">
<feFlood flood-opacity="0" result="BackgroundImageFix"/>
<feBlend mode="normal" in="SourceGraphic" in2="BackgroundImageFix" result="shape"/>
<feGaussianBlur stdDeviation="8" result="effect1_foregroundBlur_10272_1638"/>
</filter>
</defs>
</svg>
