<svg width="522" height="501" viewBox="0 0 522 501" fill="none" xmlns="http://www.w3.org/2000/svg">
<g opacity="0.1" filter="url(#filter0_f_10272_1640)">
<ellipse cx="261.008" cy="453.881" rx="244.992" ry="26.783" fill="#0A0F1A"/>
</g>
<path d="M284.154 2.9017C156.801 -15.5285 38.6198 72.7711 20.1896 200.124C1.75945 327.478 90.0591 445.659 217.412 464.089C344.766 482.519 462.946 394.219 481.377 266.866C499.807 139.513 411.507 21.3319 284.154 2.9017Z" fill="#B2DFFD" fill-opacity="0.5"/>
<g filter="url(#filter1_d_10272_1640)">
<path fill-rule="evenodd" clip-rule="evenodd" d="M391.003 44.9367C394.385 44.9367 397.127 47.7781 397.128 51.2819L397.127 199.272V271.359L372.622 289.379V289.38L290.776 349.543L290.775 349.542L290.774 349.543L256.242 324.16L221.805 349.543H221.804L221.804 349.543H221.684L139.839 289.381L115.333 271.359V199.272V51.2827C115.333 47.7781 118.076 44.9367 121.46 44.9367H391.003Z" fill="#F6F6F6"/>
</g>
<path d="M302.067 260.966H209.688C206.841 260.966 204.555 263.491 204.555 266.635C204.555 269.756 206.841 272.302 209.688 272.302H302.068C304.915 272.302 307.201 269.756 307.201 266.635C307.2 263.492 304.914 260.966 302.067 260.966Z" fill="#B2DFFD" fill-opacity="0.5"/>
<path d="M281.558 283.637H230.224C227.377 283.637 225.091 286.161 225.091 289.304C225.091 292.426 227.377 294.972 230.224 294.972H281.558C284.386 294.972 286.691 292.426 286.691 289.304C286.691 286.161 284.384 283.637 281.558 283.637Z" fill="#B2DFFD" fill-opacity="0.5"/>
<path d="M396.777 266.266L372.271 285.473L290.45 349.595H221.453H221.334L139.489 285.473L114.983 266.266L65.9707 227.849V444.287C65.9707 452.424 69.2973 459.637 74.4423 464.578H74.4186C74.4423 464.605 74.4668 464.605 74.4905 464.632C78.4875 468.437 83.5125 470.92 89.1131 471.21H422.887C425.711 471.079 428.272 470.259 430.737 469.176H430.857C439.663 465.134 445.789 455.516 445.789 444.287V227.85L396.777 266.266Z" fill="#0096FA"/>
<path fill-rule="evenodd" clip-rule="evenodd" d="M114.985 180.365V180.364C114.985 180.364 102.732 188.229 90.4793 198.092V198.093C78.2264 207.955 65.9736 219.813 65.9736 227.798L107.582 260.412L114.985 266.215V266.214L114.986 266.215V180.364C114.986 180.364 114.985 180.365 114.985 180.365Z" fill="#0D4FC1"/>
<path d="M445.793 227.91L396.781 266.327V180.476C396.781 180.476 445.793 211.939 445.793 227.91Z" fill="#0D4FC1"/>
<path d="M290.426 349.543L260.473 326.324C259.351 324.918 257.711 324.027 255.88 324.027C254.049 324.027 252.41 324.919 251.288 326.324H251.28L221.455 349.543H221.336L74.4185 464.526C78.3436 468.304 83.4886 470.736 89.1129 471.158H422.887C425.71 471.026 428.272 470.207 430.736 469.124H430.856C433.178 467.908 435.379 466.403 437.341 464.526L290.426 349.543Z" fill="#18A0FB"/>
<path d="M255.999 92.7C243.084 92.7 230.459 96.5298 219.721 103.705C208.982 110.88 200.612 121.079 195.67 133.011C190.728 144.943 189.434 158.072 191.954 170.739C194.474 183.406 200.693 195.042 209.825 204.174C218.958 213.306 230.593 219.526 243.26 222.045C255.927 224.565 269.056 223.272 280.988 218.329C292.92 213.387 303.119 205.017 310.294 194.279C317.469 183.54 321.299 170.915 321.299 158C321.279 140.687 314.393 124.09 302.151 111.848C289.91 99.606 273.312 92.7199 255.999 92.7ZM278.674 171.85C279.256 172.428 279.717 173.116 280.032 173.873C280.346 174.631 280.508 175.442 280.508 176.263C280.508 177.083 280.346 177.895 280.032 178.652C279.717 179.409 279.256 180.097 278.674 180.675C278.101 181.261 277.417 181.727 276.661 182.044C275.905 182.362 275.094 182.525 274.274 182.525C273.451 182.523 272.637 182.359 271.877 182.041C271.118 181.724 270.429 181.26 269.849 180.675L255.999 166.825L242.149 180.675C241.57 181.26 240.881 181.724 240.121 182.041C239.362 182.359 238.547 182.523 237.724 182.525C236.905 182.525 236.093 182.362 235.337 182.044C234.582 181.727 233.897 181.261 233.324 180.675C232.743 180.097 232.282 179.409 231.967 178.652C231.652 177.895 231.49 177.083 231.49 176.263C231.49 175.442 231.652 174.631 231.967 173.873C232.282 173.116 232.743 172.428 233.324 171.85L247.149 158L233.324 144.15C232.184 142.973 231.552 141.395 231.564 139.756C231.575 138.117 232.231 136.549 233.388 135.388C234.545 134.228 236.112 133.568 237.75 133.552C239.389 133.535 240.969 134.163 242.149 135.3L255.999 149.15L269.849 135.3C271.03 134.163 272.609 133.535 274.248 133.552C275.887 133.568 277.454 134.228 278.611 135.388C279.768 136.549 280.423 138.117 280.435 139.756C280.447 141.395 279.815 142.973 278.674 144.15L264.849 158L278.674 171.85Z" fill="#E60F0F"/>
<defs>
<filter id="filter0_f_10272_1640" x="0.0151367" y="411.098" width="521.985" height="85.5661" filterUnits="userSpaceOnUse" color-interpolation-filters="sRGB">
<feFlood flood-opacity="0" result="BackgroundImageFix"/>
<feBlend mode="normal" in="SourceGraphic" in2="BackgroundImageFix" result="shape"/>
<feGaussianBlur stdDeviation="8" result="effect1_foregroundBlur_10272_1640"/>
</filter>
<filter id="filter1_d_10272_1640" x="103.333" y="34.9367" width="305.795" height="328.606" filterUnits="userSpaceOnUse" color-interpolation-filters="sRGB">
<feFlood flood-opacity="0" result="BackgroundImageFix"/>
<feColorMatrix in="SourceAlpha" type="matrix" values="0 0 0 0 0 0 0 0 0 0 0 0 0 0 0 0 0 0 127 0" result="hardAlpha"/>
<feOffset dy="2"/>
<feGaussianBlur stdDeviation="6"/>
<feColorMatrix type="matrix" values="0 0 0 0 0.374547 0 0 0 0 0.481553 0 0 0 0 0.601935 0 0 0 0.15 0"/>
<feBlend mode="normal" in2="BackgroundImageFix" result="effect1_dropShadow_10272_1640"/>
<feBlend mode="normal" in="SourceGraphic" in2="effect1_dropShadow_10272_1640" result="shape"/>
</filter>
</defs>
</svg>
