<svg width="500" height="500" viewBox="0 0 500 500" fill="none" xmlns="http://www.w3.org/2000/svg">
<path d="M341.28 464.94C393.57 464.94 435.96 422.55 435.96 370.26C435.96 317.97 393.57 275.58 341.28 275.58C288.989 275.58 246.6 317.97 246.6 370.26C246.6 422.55 288.989 464.94 341.28 464.94Z" fill="#0096FA"/>
<path d="M375.59 138.42V401.26C375.59 414.99 364.46 426.11 350.74 426.11H88.85C75.12 426.11 64 414.98 64 401.26V59.85C64 46.13 75.13 35 88.85 35H272.2L375.59 138.42Z" fill="url(#paint0_linear_18735_3616)"/>
<path d="M375.59 138.42H292.08C281.1 138.42 272.2 129.52 272.2 118.54V35L375.59 138.42Z" fill="#0096FA"/>
<path d="M252.73 195.48H127.26C122.289 195.48 118.26 199.51 118.26 204.48V215.06C118.26 220.031 122.289 224.06 127.26 224.06H252.73C257.7 224.06 261.73 220.031 261.73 215.06V204.48C261.73 199.51 257.7 195.48 252.73 195.48Z" fill="#1968F0"/>
<path d="M213.55 313.541H127.26C122.289 313.541 118.26 317.57 118.26 322.541V333.121C118.26 338.092 122.289 342.121 127.26 342.121H213.55C218.52 342.121 222.55 338.092 222.55 333.121V322.541C222.55 317.57 218.52 313.541 213.55 313.541Z" fill="#1968F0"/>
<path d="M312.34 254.51H127.26C122.289 254.51 118.26 258.539 118.26 263.51V274.09C118.26 279.06 122.289 283.09 127.26 283.09H312.34C317.31 283.09 321.34 279.06 321.34 274.09V263.51C321.34 258.539 317.31 254.51 312.34 254.51Z" fill="#1968F0"/>
<path d="M393.84 287.329C411.966 287.329 426.66 272.635 426.66 254.509C426.66 236.383 411.966 221.689 393.84 221.689C375.714 221.689 361.02 236.383 361.02 254.509C361.02 272.635 375.714 287.329 393.84 287.329Z" fill="#0C4EC0"/>
<defs>
<linearGradient id="paint0_linear_18735_3616" x1="357.47" y1="464.51" x2="-61.07" y2="-115.07" gradientUnits="userSpaceOnUse">
<stop stop-color="#C5D9FB"/>
<stop offset="0.3" stop-color="#C2D7FA"/>
<stop offset="0.45" stop-color="#BAD2FA"/>
<stop offset="0.57" stop-color="#ADC9F9"/>
<stop offset="0.68" stop-color="#9ABDF8"/>
<stop offset="0.77" stop-color="#82ADF6"/>
<stop offset="0.85" stop-color="#6499F4"/>
<stop offset="0.93" stop-color="#4082F2"/>
<stop offset="1" stop-color="#1968F0"/>
</linearGradient>
</defs>
</svg>
