<svg width="500" height="505" viewBox="0 0 500 505" fill="none" xmlns="http://www.w3.org/2000/svg"><g opacity=".1" filter="url(#lock-1__a)"><path d="M420.779 475.303c0 7.172-72.099 12.987-161.039 12.987-88.939 0-161.039-5.815-161.039-12.987 0-7.173 72.1-12.987 161.039-12.987 88.94 0 161.039 5.814 161.039 12.987Z" fill="#0A0F1A"/></g><path d="M292.319 23.169c32.745-14.874 73.766-16.037 105.607.72 31.842 16.756 48.557 66.611 43.433 102.479-3.124 21.77-15.318 42.376-13.126 64.257 3.233 32.046 34.718 52.126 53.078 78.438 24.662 35.369 24.415 85.612 2.219 122.587-22.195 36.976-64.148 60.048-106.868 62.319-42.72 2.271-85.439-15.151-117.226-44.122-19.181-17.421-33.403-40.327-54.393-55.394-53.598-38.499-145.587 9.14-180.333-24.429-46.584-44.952-18.36-115.496 11.59-136.685 61.82-43.733 102.566 2.41 156.877-20.329 20.031-8.309 39.76-21.299 48.474-41.38 8.221-19.166 4.439-79.933 50.694-108.517" fill="#B9CBD3" style="mix-blend-mode:luminosity" opacity=".16"/><path d="M266.846 111.667c-63.247 0-114.804 51.556-114.804 114.804v64.011c0 5.846 4.592 10.437 10.437 10.437h41.746c5.846 0 10.437-4.592 10.437-10.437v-64.011c0-28.806 23.378-52.184 52.183-52.184 28.806 0 52.184 23.378 52.184 52.184v20.873c0 5.845 4.591 10.436 10.436 10.436h41.747c5.846 0 10.437-4.591 10.437-10.436v-20.873c.001-63.248-51.556-114.804-114.803-114.804Z" fill="#D2DFE6"/><path d="M371.213 280.044H162.479c-17.326 0-31.31 13.986-31.31 31.311v125.24c0 17.326 13.984 31.311 31.31 31.311h208.734c17.326 0 31.311-13.985 31.311-31.311v-125.24c-.001-17.325-13.985-31.311-31.311-31.311Z" fill="#F9B42F"/><path d="m430.556 218.526 41.747-20.873c12.385-6.169 21.61 12.534 9.336 18.672l-41.747 20.873c-12.398 6.157-21.616-12.532-9.336-18.672Zm41.748 123.038-41.747-20.874c-12.284-6.142-3.063-24.835 9.336-18.672l41.747 20.873c12.194 6.098 3.189 24.894-9.336 18.673Zm4.669-61.518h-41.747c-13.758 0-13.814-20.873 0-20.873h41.747c13.758-.001 13.814 20.873 0 20.873Z" fill="#2CC3D5"/><path d="M298.161 353.104c0 13.569-8.766 25.048-20.873 29.431v33.19c0 6.889-5.219 10.436-10.436 10.436-5.218 0-10.437-3.548-10.437-10.436v-33.19c-12.107-4.383-20.873-15.862-20.873-29.431 0-17.326 13.984-31.31 31.31-31.31s31.309 13.985 31.309 31.31Z" fill="#CB9733"/><defs><filter id="lock-1__a" x="82.701" y="446.316" width="354.078" height="57.974" filterUnits="userSpaceOnUse" color-interpolation-filters="sRGB"><feFlood flood-opacity="0" result="BackgroundImageFix"/><feBlend in="SourceGraphic" in2="BackgroundImageFix" result="shape"/><feGaussianBlur stdDeviation="8" result="effect1_foregroundBlur_10272_1674"/></filter></defs></svg>