<svg width="500" height="500" viewBox="0 0 500 500" fill="none" xmlns="http://www.w3.org/2000/svg">
<g clip-path="url(#clip0_223_30773)">
<g opacity="0.1" filter="url(#filter0_f_223_30773)">
<path d="M441 483.833C441 490.737 365.56 496.333 272.5 496.333C179.44 496.333 104 490.737 104 483.833C104 476.929 179.44 471.333 272.5 471.333C365.56 471.333 441 476.929 441 483.833Z" fill="#0A0F1A"/>
</g>
<path d="M63.9273 132.114L152.309 104.734C155.881 103.651 159.717 103.835 163.169 105.255L258.119 144.99C261.933 146.548 266.206 146.548 270.02 144.99L375.18 105.125C378.745 103.793 382.671 103.793 386.236 105.125L462.326 131.788C465.415 132.936 468.076 135.005 469.949 137.715C471.822 140.426 472.816 143.647 472.796 146.941V391.274C472.807 393.805 472.217 396.301 471.076 398.56C469.934 400.818 468.273 402.773 466.229 404.265C464.186 405.756 461.817 406.742 459.318 407.14C456.82 407.539 454.262 407.339 451.855 406.557L384.285 384.966C381.011 383.894 377.479 383.894 374.205 384.966L269.5 420.93C266.013 422.197 262.191 422.197 258.704 420.93L163.169 384.901C159.943 383.669 156.401 383.531 153.089 384.511L73.0971 407.403C70.7085 408.087 68.1937 408.208 65.7506 407.755C63.3075 407.303 61.0026 406.29 59.0172 404.796C57.0317 403.302 55.4199 401.368 54.3083 399.146C53.1968 396.924 52.6159 394.474 52.6114 391.99V147.397C52.6042 143.971 53.7011 140.635 55.7394 137.882C57.7777 135.129 60.6489 133.106 63.9273 132.114V132.114Z" fill="#F5F5F5"/>
<path d="M207.917 123.451L206.096 133.272H111.146C110.284 133.272 109.457 132.929 108.847 132.319C108.237 131.709 107.895 130.882 107.895 130.02V129.5C108.031 128.736 108.432 128.044 109.026 127.545C109.62 127.046 110.37 126.771 111.146 126.768H200.633L201.674 120.915L207.917 123.451Z" fill="#E0E0E0"/>
<path d="M467.601 189.656L461.097 187.9L429.816 179.38L444.969 125.272L438.791 122.996L423.312 177.689L357.238 159.675L350.734 157.919L327.517 151.416L338.183 118.443L330.379 121.435L321.274 149.725L297.732 143.221L301.178 132.426L293.569 136.003L291.618 142.051L283.424 139.84L273.149 143.807L289.602 148.294L257.085 249.682L233.348 243.179L263.003 147.188V146.668L257.085 144.132C256.895 144.483 256.742 144.854 256.63 145.237L226.844 241.163L107.962 255.275L104.125 255.73C103.343 255.825 102.622 256.2 102.096 256.786C101.569 257.372 101.274 258.129 101.264 258.917V259.567C101.419 260.336 101.847 261.022 102.468 261.5C103.09 261.978 103.863 262.216 104.645 262.169H107.442L224.503 248.316L207.074 304.441L206.164 307.367L212.342 309.318L213.382 306.067L231.267 248.837L284.66 264.055L266.775 319.399L265.865 322.26L272.368 324.276L273.409 320.959L290.903 266.071L317.957 273.81L324.461 275.566L384.877 292.8C386.043 293.117 387.246 293.27 388.454 293.255C390.729 293.309 392.976 292.748 394.958 291.629C397.97 289.95 400.193 287.143 401.136 283.825L428.58 185.884L459.471 194.533L465.975 196.224L472.998 198.11V191.607L467.601 189.656ZM286.741 257.876L263.329 251.373L295.846 149.92L319.388 156.423L286.741 257.876ZM394.437 281.809C393.973 283.462 392.875 284.865 391.381 285.711C390.649 286.134 389.837 286.398 388.997 286.488C388.157 286.577 387.307 286.49 386.503 286.231L325.761 269.062L319.258 267.306L293.244 259.567L325.761 157.854L349.174 164.357L355.677 166.048L422.012 184.063L394.437 281.809Z" fill="#F5F5F5"/>
<path d="M298.639 365.052L292.136 363.166L179.757 329.609L185.545 305.806L186.325 302.619L179.822 301.059L179.041 304.18L168.506 347.623C165.96 347.096 163.367 346.835 160.767 346.843C153.08 346.851 145.573 349.168 139.219 353.493C132.864 357.818 127.955 363.952 125.128 371.1L92.8713 363.621L86.3679 362.191L52.6152 354.582V361.085L85.4574 368.564L91.6357 370.125L123.177 377.279C122.654 379.869 122.392 382.505 122.397 385.148C122.403 387.593 122.643 390.032 123.112 392.431L129.616 390.611C129.243 388.814 129.069 386.982 129.095 385.148C129.466 376.937 132.989 369.185 138.931 363.505C144.872 357.826 152.775 354.657 160.994 354.657C169.214 354.657 177.117 357.826 183.058 363.505C189 369.185 192.523 376.937 192.894 385.148C192.91 388.505 192.383 391.843 191.333 395.033L197.381 397.244C198.719 393.351 199.4 389.264 199.397 385.148C199.386 377.427 197.047 369.889 192.684 363.52C188.322 357.15 182.139 352.244 174.944 349.444L178.261 335.917L290.64 369.409L296.818 371.295L358.926 389.635L369.526 385.993L298.639 365.052Z" fill="#F5F5F5"/>
<path d="M249.997 141.14L221.121 233.553C220.835 234.445 220.295 235.233 219.567 235.822C218.84 236.412 217.956 236.776 217.024 236.87L122.335 246.56C121.643 246.627 120.945 246.543 120.289 246.315C119.633 246.086 119.034 245.718 118.533 245.236C118.032 244.754 117.642 244.17 117.389 243.523C117.136 242.875 117.026 242.181 117.067 241.487L123.18 144.326C123.264 143.061 123.844 141.88 124.793 141.039C125.743 140.199 126.987 139.768 128.253 139.839L204.928 143.871C206.113 143.935 207.28 143.558 208.204 142.814C209.128 142.07 209.745 141.01 209.936 139.839L212.147 125.271L249.997 141.14Z" fill="#C5D9FB"/>
<path d="M183.145 385.213C183.166 387.419 182.837 389.614 182.17 391.717L157.847 382.612L138.987 388.01C138.924 387.1 138.924 386.188 138.987 385.278C138.987 382.366 139.561 379.482 140.675 376.792C141.79 374.101 143.423 371.656 145.483 369.597C147.542 367.538 149.987 365.904 152.677 364.79C155.368 363.675 158.252 363.102 161.164 363.102C164.076 363.102 166.96 363.675 169.651 364.79C172.341 365.904 174.786 367.538 176.845 369.597C178.904 371.656 180.538 374.101 181.652 376.792C182.767 379.482 183.341 382.366 183.341 385.278L183.145 385.213Z" fill="#C5D9FB"/>
<path d="M472.672 389.636V392.627C472.428 394.972 471.669 397.234 470.449 399.252C469.229 401.269 467.578 402.992 465.614 404.297C463.651 405.602 461.423 406.457 459.09 406.801C456.758 407.144 454.378 406.968 452.121 406.284L420.19 396.139C419.516 395.973 418.885 395.666 418.34 395.237C417.794 394.808 417.347 394.268 417.027 393.653C416.707 393.037 416.522 392.36 416.484 391.668C416.446 390.975 416.557 390.282 416.808 389.636L420.97 376.629C421.346 375.445 422.165 374.452 423.256 373.858C424.347 373.264 425.625 373.115 426.823 373.442L469.616 385.213C470.14 385.224 470.655 385.36 471.117 385.608C471.579 385.857 471.975 386.212 472.274 386.643C472.572 387.075 472.764 387.571 472.833 388.092C472.902 388.612 472.847 389.141 472.672 389.636V389.636Z" fill="#C5D9FB"/>
<path fill-rule="evenodd" clip-rule="evenodd" d="M428.708 136.458L432.22 120.784L384.29 103.811C383.585 104.092 382.955 104.531 382.447 105.095C381.94 105.659 381.569 106.332 381.363 107.062L376.746 122.996C376.569 123.619 376.518 124.272 376.596 124.915C376.674 125.558 376.879 126.18 377.2 126.743C377.521 127.306 377.951 127.799 378.465 128.195C378.979 128.59 379.566 128.878 380.193 129.044L422.725 140.1C423.357 140.264 424.016 140.299 424.663 140.204C425.309 140.109 425.93 139.885 426.488 139.545C427.046 139.205 427.53 138.757 427.911 138.227C428.293 137.696 428.564 137.095 428.708 136.458ZM360.944 109.988L349.043 148.619C348.892 149.271 348.609 149.886 348.21 150.424C347.811 150.963 347.306 151.413 346.726 151.747C346.145 152.082 345.502 152.293 344.836 152.368C344.171 152.443 343.497 152.38 342.856 152.183C342.216 151.986 341.623 151.659 341.115 151.223C340.606 150.787 340.193 150.25 339.901 149.648C339.609 149.045 339.444 148.388 339.417 147.719C339.39 147.049 339.501 146.382 339.743 145.757L349.368 114.476L360.944 109.988ZM319.581 140.229L324.588 123.906L312.752 128.328L310.216 137.368C309.836 138.61 309.966 139.951 310.575 141.098C311.185 142.244 312.225 143.102 313.467 143.481C314.709 143.86 316.051 143.731 317.197 143.121C318.344 142.511 319.201 141.471 319.581 140.229ZM242.43 231.716L266.031 154.809C266.821 152.234 269.55 150.787 272.125 151.577L275.233 152.531C277.809 153.321 279.256 156.05 278.465 158.625L254.864 235.532C254.074 238.108 251.346 239.555 248.771 238.764L245.662 237.81C243.087 237.02 241.64 234.292 242.43 231.716ZM274.878 240.99L298.506 164.091C299.297 161.516 302.026 160.07 304.601 160.861C307.176 161.653 308.622 164.381 307.831 166.956L284.203 243.856C283.412 246.431 280.683 247.877 278.108 247.085C275.533 246.294 274.087 243.565 274.878 240.99ZM328.006 172.559L304.378 249.458C303.587 252.033 305.033 254.762 307.608 255.553C310.183 256.344 312.912 254.898 313.703 252.323L337.331 175.424C338.122 172.849 336.676 170.12 334.101 169.329C331.526 168.538 328.797 169.984 328.006 172.559ZM286.278 309.164L295.141 280.319C295.932 277.744 298.661 276.298 301.236 277.089C303.811 277.881 305.257 280.609 304.466 283.184L295.603 312.029C294.812 314.604 292.083 316.05 289.508 315.259C286.933 314.468 285.487 311.739 286.278 309.164ZM222.225 292.409L232.37 259.892C232.747 258.677 233.583 257.657 234.701 257.049C235.818 256.442 237.129 256.295 238.354 256.64L271.846 266.07C272.464 266.235 273.044 266.522 273.55 266.914C274.056 267.306 274.479 267.794 274.794 268.351C275.108 268.909 275.309 269.523 275.384 270.159C275.458 270.794 275.405 271.438 275.228 272.053L266.578 304.57C266.412 305.19 266.126 305.77 265.735 306.279C265.345 306.788 264.857 307.214 264.302 307.535C263.746 307.855 263.133 308.062 262.497 308.145C261.861 308.228 261.214 308.184 260.595 308.017L225.607 298.587C224.976 298.408 224.388 298.105 223.876 297.696C223.363 297.288 222.937 296.781 222.623 296.206C222.308 295.631 222.111 294.999 222.042 294.347C221.974 293.695 222.036 293.037 222.225 292.409ZM199.074 293.71L138.333 278.232C137.21 277.992 136.211 277.36 135.514 276.449C134.816 275.538 134.468 274.407 134.531 273.262C134.593 272.116 135.063 271.03 135.856 270.201C136.648 269.371 137.711 268.852 138.853 268.737L206.553 259.047C207.358 258.914 208.182 258.988 208.95 259.261C209.718 259.535 210.404 259.999 210.944 260.61C211.483 261.221 211.859 261.959 212.035 262.755C212.211 263.55 212.182 264.378 211.951 265.16L204.993 290.263C204.657 291.5 203.848 292.555 202.74 293.2C201.633 293.845 200.316 294.028 199.074 293.71ZM328.165 287.076L319.256 318.488C319.077 319.107 319.024 319.755 319.098 320.395C319.171 321.035 319.371 321.655 319.686 322.217C320 322.779 320.423 323.274 320.93 323.672C321.436 324.07 322.017 324.364 322.637 324.536L402.434 346.257C403.676 346.597 405.002 346.433 406.122 345.799C407.243 345.166 408.068 344.115 408.417 342.876L436.512 242.983C436.689 242.368 436.742 241.724 436.668 241.089C436.593 240.453 436.392 239.839 436.078 239.282C435.763 238.724 435.34 238.236 434.834 237.844C434.328 237.452 433.748 237.165 433.13 237L424.416 234.464C423.191 234.119 421.88 234.265 420.763 234.873C419.645 235.48 418.809 236.5 418.432 237.716L399.898 297.287C399.521 298.502 398.685 299.522 397.568 300.13C396.45 300.737 395.139 300.884 393.915 300.538L334.213 283.76C333.598 283.58 332.954 283.524 332.318 283.593C331.681 283.663 331.064 283.857 330.502 284.165C329.941 284.473 329.445 284.889 329.044 285.388C328.643 285.888 328.345 286.462 328.165 287.076ZM436.647 193.948L445.362 196.419C446.604 196.781 447.651 197.622 448.273 198.756C448.895 199.89 449.041 201.225 448.679 202.467L440.549 230.432C440.187 231.659 439.356 232.695 438.237 233.315C437.118 233.935 435.799 234.091 434.566 233.749L425.592 231.342C424.956 231.171 424.362 230.873 423.845 230.466C423.328 230.059 422.898 229.552 422.582 228.975C422.266 228.398 422.071 227.762 422.007 227.108C421.943 226.453 422.012 225.792 422.21 225.164L430.664 197.199C431.041 195.984 431.877 194.964 432.994 194.357C434.112 193.749 435.423 193.602 436.647 193.948ZM348.979 220.026L337.013 260.868C336.826 261.495 336.767 262.154 336.84 262.805C336.913 263.456 337.117 264.085 337.438 264.656C337.76 265.226 338.193 265.726 338.712 266.126C339.231 266.525 339.826 266.816 340.459 266.981L383.187 278.102C384.437 278.418 385.762 278.225 386.871 277.567C387.98 276.909 388.783 275.839 389.105 274.59L399.705 233.553C400.021 232.303 399.829 230.978 399.171 229.869C398.513 228.76 397.442 227.957 396.194 227.635L354.897 216.644C353.664 216.324 352.355 216.498 351.249 217.13C350.143 217.762 349.329 218.801 348.979 220.026ZM352.166 207.54L360.555 178.405C360.721 177.786 361.007 177.207 361.399 176.701C361.791 176.195 362.28 175.772 362.837 175.457C363.394 175.142 364.008 174.942 364.644 174.867C365.28 174.793 365.924 174.846 366.539 175.023L407.835 185.884C408.451 186.036 409.031 186.308 409.541 186.685C410.051 187.062 410.482 187.536 410.808 188.08C411.135 188.624 411.35 189.227 411.443 189.855C411.535 190.482 411.503 191.122 411.347 191.737L404.323 221.132C404.001 222.398 403.191 223.485 402.07 224.155C400.949 224.825 399.608 225.024 398.34 224.709L355.678 213.588C355.05 213.422 354.461 213.134 353.945 212.74C353.428 212.346 352.994 211.854 352.668 211.292C352.342 210.73 352.13 210.11 352.044 209.466C351.958 208.822 351.999 208.168 352.166 207.54ZM372.649 136.392L367.967 152.261C367.78 152.888 367.721 153.547 367.794 154.198C367.867 154.849 368.071 155.478 368.392 156.049C368.714 156.619 369.147 157.119 369.666 157.519C370.185 157.918 370.78 158.209 371.414 158.374L414.011 169.43C414.643 169.594 415.302 169.629 415.948 169.534C416.595 169.439 417.215 169.215 417.773 168.875C418.331 168.535 418.815 168.087 419.197 167.557C419.578 167.026 419.849 166.425 419.994 165.788L423.311 149.854C423.575 148.633 423.366 147.356 422.726 146.282C422.087 145.208 421.064 144.416 419.864 144.066L378.567 133.076C377.343 132.735 376.033 132.892 374.924 133.514C373.816 134.135 372.998 135.17 372.649 136.392ZM436.772 168.845L441.455 152.976C441.633 152.355 441.934 151.776 442.34 151.274C442.747 150.772 443.251 150.356 443.821 150.053C444.392 149.749 445.017 149.564 445.661 149.508C446.305 149.451 446.953 149.525 447.568 149.725L460.054 153.562C461.229 153.924 462.226 154.712 462.851 155.77C463.476 156.828 463.685 158.081 463.436 159.285L459.859 175.218C459.716 175.869 459.441 176.485 459.051 177.026C458.661 177.566 458.164 178.022 457.591 178.363C457.019 178.704 456.382 178.924 455.72 179.01C455.059 179.095 454.387 179.044 453.746 178.86L440.089 174.893C439.474 174.714 438.901 174.415 438.401 174.014C437.902 173.613 437.486 173.117 437.178 172.556C436.87 171.994 436.676 171.377 436.606 170.741C436.536 170.104 436.593 169.46 436.772 168.845ZM469.878 137.238L467.406 148.294C467.254 148.979 466.957 149.624 466.536 150.186C466.115 150.748 465.579 151.214 464.963 151.552C464.348 151.891 463.667 152.094 462.967 152.149C462.267 152.204 461.563 152.109 460.903 151.87L447.311 147.903C446.696 147.724 446.122 147.425 445.623 147.024C445.123 146.623 444.708 146.128 444.4 145.566C444.092 145.005 443.897 144.388 443.828 143.751C443.758 143.114 443.815 142.47 443.994 141.855L448.481 126.637L462.334 131.45C465.373 132.577 468.002 134.594 469.878 137.238ZM161.029 341.835C162.638 341.846 164.246 341.955 165.842 342.16L171.89 313.935C172.144 312.695 171.906 311.405 171.227 310.337C170.547 309.269 169.479 308.507 168.248 308.212L117.651 296.051C117.015 295.907 116.356 295.891 115.714 296.003C115.071 296.115 114.457 296.354 113.907 296.704C113.357 297.055 112.881 297.511 112.508 298.046C112.135 298.582 111.872 299.185 111.733 299.823L100.678 354.321C100.423 355.562 100.661 356.852 101.341 357.92C102.02 358.988 103.088 359.75 104.319 360.044L119.277 363.621C120.286 363.839 121.336 363.743 122.289 363.348C123.242 362.953 124.051 362.277 124.61 361.41C128.568 355.37 133.972 350.415 140.333 346.996C146.694 343.578 153.808 341.803 161.029 341.835ZM182.359 347.493L183.205 344.566L276.984 373.637C277.59 373.816 278.156 374.113 278.648 374.51C279.139 374.908 279.548 375.399 279.85 375.954C280.152 376.51 280.341 377.12 280.408 377.749C280.474 378.378 280.415 379.013 280.236 379.62L273.147 404.138C272.975 404.757 272.681 405.336 272.282 405.84C271.883 406.345 271.387 406.764 270.823 407.073C270.259 407.382 269.639 407.575 268.999 407.641C268.36 407.706 267.714 407.643 267.099 407.454L204.341 389.635C204.44 388.163 204.44 386.685 204.341 385.213C204.345 377.542 202.312 370.008 198.45 363.381C194.588 356.753 189.035 351.271 182.359 347.493ZM118.563 393.862L95.3457 400.365L98.9226 382.481C99.2175 381.25 99.9794 380.182 101.047 379.502C102.115 378.823 103.406 378.585 104.646 378.839L117.652 381.636C117.586 382.827 117.586 384.021 117.652 385.212C117.659 388.119 117.964 391.018 118.563 393.862ZM188.867 322.975L189.973 318.878C190.282 317.659 191.05 316.607 192.116 315.94C193.182 315.274 194.465 315.045 195.696 315.301L286.093 336.307C286.744 336.449 287.358 336.724 287.896 337.115C288.435 337.506 288.887 338.005 289.223 338.579C289.559 339.154 289.772 339.792 289.849 340.453C289.926 341.114 289.865 341.784 289.67 342.421L286.939 351.655C286.753 352.272 286.447 352.845 286.039 353.343C285.63 353.84 285.127 354.252 284.559 354.554C283.991 354.856 283.368 355.043 282.728 355.104C282.087 355.164 281.44 355.097 280.826 354.907L192.249 328.893C191.033 328.53 190.004 327.712 189.375 326.611C188.745 325.509 188.564 324.207 188.867 322.975ZM311.192 348.143L308.851 356.533C308.526 357.765 308.689 359.076 309.307 360.191C309.925 361.306 310.95 362.139 312.168 362.516L390.209 386.383C391.417 386.757 392.722 386.647 393.85 386.077C394.979 385.507 395.842 384.521 396.257 383.327L400.029 372.271C400.292 371.63 400.414 370.939 400.385 370.246C400.357 369.554 400.179 368.875 399.864 368.258C399.549 367.64 399.104 367.098 398.56 366.668C398.016 366.238 397.386 365.931 396.712 365.768L317.176 344.762C315.934 344.422 314.608 344.586 313.487 345.22C312.366 345.853 311.542 346.904 311.192 348.143ZM318.283 403.683L350.8 392.562L305.341 380.465C304.731 380.298 304.093 380.253 303.465 380.332C302.836 380.411 302.23 380.614 301.68 380.928C301.131 381.242 300.648 381.662 300.261 382.163C299.874 382.664 299.589 383.236 299.423 383.847L297.082 392.237C296.754 393.461 296.908 394.764 297.513 395.877C298.118 396.991 299.128 397.829 300.334 398.22L318.283 403.683ZM75.8984 377.344L72.1264 404.333C72.0327 404.959 71.8111 405.559 71.4755 406.096C71.1398 406.634 70.6973 407.096 70.1754 407.454C67.9491 407.663 65.7039 407.404 63.5834 406.694C61.463 405.985 59.5139 404.841 57.8611 403.335C56.2083 401.829 54.888 399.995 53.9849 397.949C53.0817 395.904 52.6156 393.692 52.6162 391.456V373.182C52.6143 372.44 52.7814 371.708 53.1047 371.041C53.428 370.374 53.8991 369.79 54.4821 369.332C55.0652 368.875 55.7449 368.556 56.4695 368.4C57.1942 368.245 57.9448 368.256 58.6644 368.434L72.1264 371.881C73.3364 372.133 74.4029 372.841 75.1051 373.858C75.8074 374.875 76.0914 376.123 75.8984 377.344ZM82.9221 313.22L58.5343 307.952C57.8237 307.797 57.0873 307.803 56.3792 307.969C55.671 308.135 55.009 308.458 54.4417 308.913C53.8743 309.368 53.4159 309.944 53.1 310.599C52.7842 311.255 52.6189 311.972 52.6162 312.7V344.111C52.6385 345.236 53.0438 346.319 53.7651 347.182C54.4864 348.045 55.4805 348.637 56.5833 348.859L75.4432 352.37C76.0754 352.493 76.7256 352.489 77.3562 352.358C77.9869 352.228 78.5855 351.974 79.1176 351.612C79.6496 351.249 80.1046 350.784 80.4562 350.245C80.8078 349.705 81.0491 349.102 81.1662 348.468L86.6941 318.878C86.9088 317.631 86.6374 316.35 85.9357 315.297C85.234 314.245 84.1554 313.501 82.9221 313.22ZM58.473 234.139C57.7709 234.015 57.0503 234.047 56.3619 234.232C55.6735 234.417 55.034 234.751 54.4884 235.209C53.9428 235.668 53.5044 236.241 53.204 236.888C52.9037 237.534 52.7487 238.238 52.75 238.951V284.475C52.7541 285.585 53.1365 286.66 53.8341 287.523C54.5317 288.386 55.5028 288.986 56.587 289.223L85.5922 295.401C86.247 295.573 86.9305 295.607 87.5991 295.5C88.2677 295.394 88.9068 295.149 89.4757 294.782C90.0446 294.415 90.5309 293.933 90.9036 293.368C91.2763 292.803 91.5272 292.166 91.6404 291.499L94.697 278.492C94.7327 278.124 94.7327 277.754 94.697 277.386V244.869C94.7057 243.688 94.2798 242.545 93.5003 241.658C92.7208 240.77 91.6422 240.201 90.4698 240.057L58.473 234.139ZM52.6181 203.638V175.023C52.572 174.253 52.7091 173.483 53.0182 172.776C53.3273 172.07 53.7995 171.447 54.3961 170.958C54.9927 170.469 55.6967 170.129 56.4503 169.965C57.2039 169.801 57.9856 169.818 58.7313 170.015L96.0609 179.51C97.1423 179.792 98.0941 180.437 98.757 181.336C99.4199 182.236 99.7538 183.336 99.7028 184.452L98.4671 212.482C98.4308 213.201 98.2358 213.903 97.896 214.538C97.5563 215.173 97.0802 215.724 96.5021 216.153C95.9239 216.582 95.2579 216.878 94.552 217.019C93.846 217.16 93.1176 217.143 92.4189 216.97L56.325 208.385C55.2758 208.103 54.3467 207.487 53.678 206.631C53.0093 205.775 52.6373 204.724 52.6181 203.638ZM101.327 130.539L100.091 170.405C100.084 171.182 99.8912 171.945 99.5294 172.632C99.1675 173.319 98.647 173.91 98.0109 174.355C97.3748 174.8 96.6416 175.087 95.8723 175.192C95.103 175.297 94.3197 175.216 93.5877 174.958L56.2581 164.617C55.2262 164.336 54.3133 163.727 53.6566 162.883C52.9999 162.039 52.6349 161.004 52.6162 159.935V146.928C52.6104 143.721 53.5683 140.587 55.3658 137.931C57.1632 135.275 59.7173 133.221 62.6965 132.035L89.1654 124.101C90.0573 123.841 91.0049 123.841 91.8968 124.101L97.7499 125.727C98.7968 126.016 99.7172 126.647 100.365 127.518C101.013 128.39 101.352 129.453 101.327 130.539ZM52.6162 294.165L99.5708 305.156L98.075 311.529L52.6162 300.864V294.165ZM469.227 246.56L465.325 245.455C464.083 245.093 462.749 245.239 461.614 245.861C460.48 246.483 459.639 247.53 459.277 248.772L445.035 297.742C444.699 298.932 444.828 300.206 445.395 301.304C445.963 302.403 446.927 303.245 448.091 303.66L466.236 310.164C466.973 310.424 467.762 310.504 468.536 310.396C469.311 310.288 470.048 309.995 470.685 309.542C471.323 309.09 471.842 308.49 472.2 307.795C472.557 307.099 472.742 306.328 472.739 305.546V251.048C472.688 250.029 472.324 249.051 471.695 248.247C471.066 247.444 470.204 246.855 469.227 246.56ZM430.274 346.192L440.484 311.594C440.874 310.405 441.705 309.411 442.806 308.818C443.908 308.225 445.195 308.078 446.402 308.407L469.164 314.325C470.195 314.576 471.111 315.169 471.761 316.008C472.41 316.847 472.756 317.882 472.741 318.943V358.223C472.829 358.925 472.727 359.637 472.447 360.286C472.167 360.936 471.719 361.498 471.149 361.916C470.578 362.334 469.907 362.592 469.203 362.663C468.5 362.734 467.79 362.616 467.148 362.32L433.525 352.24C432.295 351.864 431.264 351.018 430.655 349.885C430.046 348.753 429.909 347.425 430.274 346.192Z" fill="white"/>
<path d="M465.714 195.899L418.564 357.248L472.737 370.71V377.474L416.743 363.492L408.354 392.107L402.175 390.155L410.435 361.866L306.9 336.112L298.641 365.052L296.82 371.296L284.269 415.324L276.79 417.86L290.642 369.41L292.398 363.166L300.592 334.486L185.547 305.806L179.239 304.18L105.88 285.906L92.8733 363.687V363.752L91.8327 370.19L86.3048 403.032L79.4112 405.048L85.4594 368.629L86.565 362.191L95.1495 310.814L96.19 304.441L100.027 281.288L101.263 259.242V258.917L102.498 235.504L52.6172 220.547V213.718L102.823 228.806L108.156 130.019L108.221 129.369L108.807 117.663L115.44 115.582L114.855 126.768L114.53 133.271L107.961 255.275L107.636 261.778L106.661 279.402L207.073 304.441L213.381 306.066L266.774 319.398L273.083 320.959H273.148L302.348 328.178L317.956 273.549L319.777 267.241L349.173 164.227L350.928 157.919L365.106 108.428L372.65 105.566L357.237 159.675L355.416 165.918L326.02 268.997L324.199 275.305L308.656 329.804L412.256 355.622L459.47 194.208L461.291 187.835L472.737 148.749V171.966L467.6 189.59L465.714 195.899Z" fill="#F6F6F6"/>
<path d="M248.306 234.66C244.047 230.232 238.596 227.204 232.649 225.963C226.703 224.722 220.53 225.324 214.919 227.692C209.307 230.06 204.512 234.087 201.145 239.259C197.778 244.431 195.991 250.513 196.013 256.729C195.871 261.478 196.877 266.189 198.942 270.442C204.314 278.498 210.796 285.715 218.185 291.869L220.382 294.011L222.055 295.511C223.263 296.699 224.878 297.354 226.552 297.333C228.253 297.327 229.892 296.678 231.154 295.511C231.677 294.869 232.409 294.226 233.141 293.476L234.815 291.869C242.231 285.744 248.717 278.523 254.058 270.442C256.123 266.189 257.129 261.478 256.987 256.729C256.956 248.506 253.849 240.608 248.306 234.66ZM236.802 264.764C235.478 266.796 233.581 268.366 231.363 269.264C229.184 270.203 226.783 270.464 224.461 270.014C222.122 269.575 219.969 268.418 218.287 266.696C216.606 264.973 215.476 262.768 215.048 260.372C214.513 257.971 214.733 255.459 215.675 253.194C216.597 250.978 218.122 249.082 220.068 247.73C222.379 246.1 225.177 245.357 227.969 245.631C230.762 245.905 233.371 247.18 235.338 249.23C237.531 251.563 238.766 254.669 238.789 257.908C238.822 260.347 238.129 262.739 236.802 264.764V264.764Z" fill="#E60F0F"/>
<path d="M412.153 171.073C409.73 168.694 406.438 167.349 402.999 167.333C399.565 167.367 396.281 168.712 393.852 171.08C391.424 173.447 390.044 176.648 390.009 179.996C389.934 181.924 390.35 183.84 391.22 185.573C393.535 188.776 396.299 191.647 399.432 194.102L400.374 194.955L401.047 195.546C401.586 196.018 402.275 196.296 402.999 196.333C403.726 196.307 404.419 196.028 404.951 195.546L405.826 194.758L406.567 194.037C409.716 191.543 412.461 188.601 414.711 185.31C415.633 183.593 416.074 181.67 415.99 179.733C415.903 176.473 414.529 173.37 412.153 171.073ZM407.24 183.276C406.674 184.09 405.879 184.728 404.951 185.114C403.987 185.406 402.954 185.406 401.99 185.114C400.992 184.922 400.077 184.442 399.365 183.736C398.626 183.052 398.13 182.155 397.951 181.177C397.685 180.232 397.685 179.235 397.951 178.29C398.346 177.385 399.001 176.611 399.836 176.059C400.702 175.521 401.703 175.226 402.73 175.206C403.408 175.21 404.079 175.346 404.703 175.605C405.327 175.864 405.892 176.242 406.365 176.715C407.267 177.55 407.826 178.677 407.937 179.885C408.049 181.092 407.974 182.298 407.24 183.276Z" fill="#517BF2"/>
<g opacity="0.2">
<path d="M157.901 104.054C156.031 103.967 154.16 104.21 152.374 104.77L63.8622 132.149C60.6014 133.162 57.7503 135.192 55.726 137.942C53.7016 140.692 52.6102 144.017 52.6113 147.432V392.025C52.6159 394.51 53.1968 396.959 54.3083 399.182C55.4198 401.404 57.0317 403.338 59.0171 404.832C61.0026 406.325 63.3075 407.338 65.7506 407.791C68.1937 408.243 70.7084 408.122 73.0971 407.438L152.764 384.546L157.836 383.05L157.901 104.054Z" fill="#10603B"/>
<path d="M380.709 383.7V104.054C378.817 104.046 376.941 104.4 375.181 105.094L264.038 147.497L262.672 146.976V421.68C264.973 421.963 267.308 421.718 269.5 420.965L374.27 385.066L379.213 383.375L380.709 383.7Z" fill="#10603B"/>
</g>
</g>
<defs>
<filter id="filter0_f_223_30773" x="88" y="455.333" width="369" height="57" filterUnits="userSpaceOnUse" color-interpolation-filters="sRGB">
<feFlood flood-opacity="0" result="BackgroundImageFix"/>
<feBlend mode="normal" in="SourceGraphic" in2="BackgroundImageFix" result="shape"/>
<feGaussianBlur stdDeviation="8" result="effect1_foregroundBlur_223_30773"/>
</filter>
<clipPath id="clip0_223_30773">
<rect width="500" height="500" fill="white"/>
</clipPath>
</defs>
</svg>
