<svg width="500" height="504" viewBox="0 0 500 504" fill="none" xmlns="http://www.w3.org/2000/svg">
<path d="M250.5 -1.01044e-05C121.542 1.16955e-06 17 104.542 17 233.5C17 362.459 121.542 467 250.5 467C379.459 467 484 362.458 484 233.5C484 104.541 379.458 -2.13783e-05 250.5 -1.01044e-05Z" fill="#B2DFFD"/>
<g opacity="0.1" filter="url(#filter0_f_10272_1648)">
<path d="M436.999 459.77C436.999 472.196 367.827 482.27 282.499 482.27C197.171 482.27 127.999 472.196 127.999 459.77C127.999 447.343 197.171 437.27 282.499 437.27C367.827 437.27 436.999 447.343 436.999 459.77Z" fill="#0A0F1A"/>
</g>
<path d="M143.486 102.737H131.089C128.61 102.737 126.662 100.788 126.662 98.3064V78.8982C126.662 76.4168 128.61 74.4671 131.089 74.4671H143.486C145.965 74.4671 147.913 76.4168 147.913 78.8982V98.3064C147.913 100.788 145.965 102.737 143.486 102.737Z" fill="#0096FA"/>
<path d="M143.486 163H131.089C128.61 163 126.662 161.05 126.662 158.569V118.955C126.662 116.474 128.61 114.524 131.089 114.524H143.486C145.965 114.524 147.913 116.474 147.913 118.955V158.569C147.913 161.05 145.965 163 143.486 163Z" fill="#0096FA"/>
<path d="M361.669 189.498H349.272C346.793 189.498 344.845 187.548 344.845 185.067V145.453C344.845 142.972 346.793 141.022 349.272 141.022H361.669C364.148 141.022 366.096 142.972 366.096 145.453V185.067C366.096 187.548 364.06 189.498 361.669 189.498Z" fill="#0096FA"/>
<path d="M322.442 466.971H170.14C153.758 466.971 140.476 453.678 140.476 437.283V39.7277C140.476 23.3327 153.758 10.0395 170.14 10.0395H322.442C338.824 10.0395 352.106 23.3327 352.106 39.7277V437.283C352.017 453.678 338.824 466.971 322.442 466.971Z" fill="url(#paint0_linear_10272_1648)"/>
<path d="M137.797 31.5429C137.797 19.6451 146.827 10 157.965 10H338.63C349.768 10 358.797 19.6451 358.797 31.5429V39H137.797V31.5429Z" fill="url(#paint1_linear_10272_1648)"/>
<path d="M340.236 50.8646L343.456 47.6341C343.535 47.5345 343.575 47.409 343.567 47.2818C343.56 47.1546 343.506 47.0346 343.415 46.9449C343.325 46.8552 343.205 46.8021 343.078 46.7958C342.95 46.7894 342.825 46.8304 342.727 46.9107L339.505 50.133L336.283 46.9107C336.238 46.854 336.181 46.8074 336.117 46.7741C336.053 46.7407 335.982 46.7213 335.91 46.7171C335.837 46.7129 335.765 46.7239 335.697 46.7496C335.629 46.7753 335.568 46.8149 335.516 46.866C335.465 46.9171 335.424 46.9784 335.398 47.0461C335.372 47.1137 335.36 47.1861 335.364 47.2585C335.368 47.331 335.386 47.4019 335.419 47.4666C335.452 47.5313 335.498 47.5884 335.554 47.6341L338.774 50.8584L335.554 54.089C335.482 54.1614 335.434 54.2533 335.414 54.3533C335.395 54.4533 335.405 54.5569 335.444 54.651C335.483 54.7451 335.549 54.8256 335.634 54.8822C335.718 54.9389 335.818 54.9693 335.92 54.9695C335.987 54.9699 336.054 54.9568 336.117 54.9309C336.179 54.9049 336.236 54.8668 336.283 54.8186L339.505 51.5943L342.727 54.8186C342.774 54.8668 342.831 54.9049 342.893 54.9309C342.955 54.9568 343.022 54.9699 343.09 54.9695C343.192 54.9693 343.291 54.9389 343.376 54.8822C343.461 54.8256 343.527 54.7451 343.566 54.651C343.605 54.5569 343.615 54.4533 343.596 54.3533C343.576 54.2533 343.527 54.1614 343.456 54.089L340.236 50.8646Z" fill="white"/>
<path d="M153.292 54.1058C153.24 54.1054 153.189 54.0937 153.142 54.0715C153.095 54.0492 153.054 54.017 153.021 53.9771L150.533 51.0111C150.423 50.8807 150.363 50.7157 150.363 50.5452C150.363 50.3747 150.423 50.2097 150.533 50.0793L153.021 47.1133C153.083 47.0434 153.17 47.0006 153.264 46.9939C153.358 46.9872 153.45 47.0171 153.522 47.0774C153.594 47.1377 153.639 47.2237 153.649 47.317C153.659 47.4104 153.632 47.5039 153.574 47.5778L151.086 50.5452L153.57 53.5126C153.614 53.5653 153.643 53.6296 153.652 53.698C153.661 53.7663 153.651 53.8359 153.621 53.8984C153.592 53.9608 153.546 54.0136 153.487 54.0504C153.429 54.0872 153.361 54.1064 153.292 54.1058Z" fill="white"/>
<path d="M352.888 37H141V66.7632H352.888V37Z" fill="#0096FA"/>
<path fill-rule="evenodd" clip-rule="evenodd" d="M169.633 60.8164C171.471 60.8152 173.267 60.2687 174.795 59.246C176.323 58.2233 177.513 56.7704 178.216 55.0708C178.918 53.3712 179.102 51.5013 178.743 49.6973C178.384 47.8934 177.499 46.2364 176.2 44.9358C174.9 43.6352 173.244 42.7493 171.442 42.3902C169.639 42.031 167.771 42.2147 166.073 42.918C164.375 43.6213 162.923 44.8127 161.901 46.3415C160.879 47.8703 160.333 49.668 160.332 51.5073C160.337 53.9747 161.319 56.3395 163.062 58.0842C164.805 59.8289 167.168 60.8113 169.633 60.8164Z" fill="#2C2A46"/>
<path fill-rule="evenodd" clip-rule="evenodd" d="M172.191 55.8874C171.471 55.9738 170.657 56.002 169.748 56.002C168.839 56.002 168.025 55.9738 167.305 55.8872L167.304 55.8883L166.068 57.6791C165.996 57.7779 165.889 57.8288 165.782 57.8288C165.674 57.8288 165.567 57.7809 165.499 57.6851C164.837 56.7687 164.167 55.5828 163.729 54.1514C163.562 53.6096 163.43 53.0338 163.344 52.425C163.269 51.959 163.231 51.4339 163.231 50.8423C163.231 46.1886 165.883 44.6973 169.748 44.6973C173.608 44.6973 176.258 46.1847 176.265 50.8237C176.265 50.8299 176.265 50.8361 176.265 50.8423C176.265 50.8582 176.265 50.8741 176.265 50.89C176.263 51.4293 176.23 51.9128 176.165 52.3462C175.862 54.5998 174.921 56.4067 173.997 57.685C173.857 57.8797 173.565 57.8767 173.428 57.679L172.192 55.8882C172.191 55.888 172.191 55.8877 172.191 55.8874Z" fill="#0096FA"/>
<path d="M163.824 54.4508C164.283 55.8313 164.965 56.9453 165.498 57.685C165.638 57.8796 165.931 57.8766 166.068 57.679L167.304 55.8882C165.609 55.7385 164.342 55.2444 163.824 54.4508Z" fill="url(#paint2_linear_10272_1648)"/>
<path d="M175.663 54.4508C175.204 55.8313 174.522 56.9453 173.988 57.685C173.848 57.8796 173.556 57.8766 173.419 57.679L172.183 55.8882C173.878 55.7385 175.145 55.2444 175.663 54.4508Z" fill="url(#paint3_linear_10272_1648)"/>
<path fill-rule="evenodd" clip-rule="evenodd" d="M171.324 53.1491L171.988 53.1491C171.985 53.3614 171.837 53.5323 171.656 53.5323C171.475 53.5323 171.327 53.3614 171.324 53.1491Z" fill="black"/>
<path fill-rule="evenodd" clip-rule="evenodd" d="M168.222 53.1491L167.559 53.1491C167.562 53.3614 167.709 53.5323 167.89 53.5323C168.072 53.5323 168.219 53.3614 168.222 53.1491Z" fill="black"/>
<path fill-rule="evenodd" clip-rule="evenodd" d="M165.743 52.0828C165.624 52.0828 165.528 52.1796 165.528 52.299C165.528 52.4184 165.624 52.5152 165.743 52.5152H166.082L166.227 53.6445C166.29 54.1305 166.692 54.4998 167.178 54.5179L168.087 54.5519C168.567 54.5698 169.002 54.2692 169.158 53.8117L169.601 52.5152H169.777L170.22 53.8117C170.376 54.2692 170.811 54.5698 171.291 54.5519L172.2 54.5179C172.686 54.4998 173.088 54.1305 173.15 53.6445L173.295 52.5152H173.664C173.783 52.5152 173.879 52.4184 173.879 52.299C173.879 52.1796 173.783 52.0828 173.664 52.0828H165.743Z" fill="#0035B5"/>
<path fill-rule="evenodd" clip-rule="evenodd" d="M172.299 53.4331L172.362 52.4989L172.879 52.5343L172.817 53.4685L172.299 53.4331Z" fill="#0065FF"/>
<path d="M178.46 48.2187C179.897 48.2187 181.062 47.0527 181.062 45.6144C181.062 44.1761 179.897 43.0101 178.46 43.0101C177.022 43.0101 175.857 44.1761 175.857 45.6144C175.857 47.0527 177.022 48.2187 178.46 48.2187Z" fill="#90E6BC"/>
<path fill-rule="evenodd" clip-rule="evenodd" d="M178.459 43.3457C177.207 43.3457 176.192 44.3614 176.192 45.6144C176.192 46.8673 177.207 47.8831 178.459 47.8831C179.711 47.8831 180.726 46.8673 180.726 45.6144C180.726 44.3614 179.711 43.3457 178.459 43.3457ZM175.521 45.6144C175.521 43.9907 176.837 42.6745 178.459 42.6745C180.081 42.6745 181.396 43.9907 181.396 45.6144C181.396 47.238 180.081 48.5542 178.459 48.5542C176.837 48.5542 175.521 47.238 175.521 45.6144Z" fill="#2CC3D5"/>
<rect x="186.633" y="51.5053" width="50.9103" height="3.72515" rx="1.86257" fill="white"/>
<path d="M244.231 28.1131H219.273C215.999 28.1131 213.369 25.9564 213.369 23.2715C213.369 20.5866 215.999 18.4298 219.273 18.4298H244.231C247.505 18.4298 250.135 20.5866 250.135 23.2715C250.135 25.9564 247.505 28.1131 244.231 28.1131Z" fill="#0096FA"/>
<path d="M261.626 26.4386C263.337 26.4386 264.725 25.0499 264.725 23.3368C264.725 21.6238 263.337 20.2351 261.626 20.2351C259.914 20.2351 258.526 21.6238 258.526 23.3368C258.526 25.0499 259.914 26.4386 261.626 26.4386Z" fill="#F5F5F5"/>
<path fill-rule="evenodd" clip-rule="evenodd" d="M168.854 476.099H323.813C343.471 476.099 359.321 460.236 359.232 440.651V36.4485C359.232 16.8632 343.382 1 323.813 1H168.854C149.285 1 133.435 16.8632 133.435 36.4485V440.651C133.435 460.236 149.285 476.099 168.854 476.099ZM170.272 466.971H322.575C338.956 466.971 352.15 453.678 352.239 437.283V39.7277C352.239 23.3327 338.956 10.0395 322.575 10.0395H170.272C153.891 10.0395 140.609 23.3327 140.609 39.7277V437.283C140.609 453.678 153.891 466.971 170.272 466.971Z" fill="url(#paint4_linear_10272_1648)"/>
<path d="M257.193 287.152C257.193 282.599 253.506 278.909 248.957 278.909H173.599C169.051 278.909 165.363 282.599 165.363 287.152V298.274C165.363 299.792 166.592 301.022 168.109 301.022H248.957C253.506 301.022 257.193 297.331 257.193 292.779V287.152Z" fill="white"/>
<path d="M242.651 317.507C242.651 312.954 246.339 309.264 250.887 309.264H334.531C339.079 309.264 342.767 312.955 342.767 317.507V328.629C342.767 330.147 341.538 331.377 340.022 331.377H250.887C246.339 331.377 242.651 327.686 242.651 323.134V317.507Z" fill="#B2DFFD"/>
<path d="M242.651 391.348C242.651 386.795 246.339 383.105 250.887 383.105H334.531C339.079 383.105 342.767 386.795 342.767 391.348V402.47C342.767 403.988 341.538 405.218 340.022 405.218H250.887C246.339 405.218 242.651 401.527 242.651 396.975V391.348Z" fill="#B2DFFD"/>
<path d="M290.334 347.862C290.334 343.31 286.647 339.62 282.098 339.62H173.598C169.05 339.62 165.362 343.31 165.362 347.862V372.114C165.362 373.632 166.591 374.862 168.108 374.862H282.098C286.647 374.862 290.334 371.171 290.334 366.619V347.862Z" fill="white"/>
<g filter="url(#filter1_d_10272_1648)">
<path d="M275.146 114.544C275.146 109.41 270.984 105.248 265.85 105.248H66.296C61.162 105.248 57 109.41 57 114.544V155.446C57 156.473 57.8324 157.306 58.8592 157.306H265.85C270.984 157.306 275.146 153.144 275.146 148.01V114.544Z" fill="white"/>
</g>
<path d="M66.9672 116.198C66.9672 131.771 79.5918 144.395 95.165 144.395C110.738 144.395 123.363 131.771 123.363 116.198C123.363 100.624 110.738 87.9999 95.165 87.9999C79.5918 87.9999 66.9672 100.624 66.9672 116.198Z" fill="#FCCCCC"/>
<path fill-rule="evenodd" clip-rule="evenodd" d="M147.069 124.828C147.069 123.222 148.37 121.921 149.976 121.921H254.401C256.006 121.921 257.308 123.222 257.308 124.828C257.308 126.433 256.006 127.735 254.401 127.735H149.976C148.37 127.735 147.069 126.433 147.069 124.828Z" fill="#D2DFE6"/>
<path fill-rule="evenodd" clip-rule="evenodd" d="M147.069 137.842C147.069 136.237 148.37 134.935 149.976 134.935H220.463C222.068 134.935 223.37 136.237 223.37 137.842C223.37 139.448 222.068 140.749 220.463 140.749H149.976C148.37 140.749 147.069 139.448 147.069 137.842Z" fill="#D2DFE6"/>
<path d="M94.685 140.667C110.154 140.667 122.695 128.116 122.695 112.634C122.695 97.1513 110.154 84.6005 94.685 84.6005C79.2156 84.6005 66.6753 97.1513 66.6753 112.634C66.6753 128.116 79.2156 140.667 94.685 140.667Z" fill="#C5D9FB"/>
<path d="M67.2495 118.089C69.5448 129.647 78.977 138.907 91.2784 140.415C103.472 141.923 114.805 135.282 119.862 124.801L67.2495 118.089Z" fill="url(#paint5_linear_10272_1648)"/>
<path d="M110.035 115.146V112.562L106.377 102.332L107.417 101.399L110.645 105.562L111.506 105.024L114.16 95.5122L115.307 95.6558L114.877 102.296L117.459 94.1123L118.929 94.3277L117.603 102.619L120.723 96.4813L121.978 97.1992L120.185 103.84L123.269 99.3887L124.166 99.8194L120.077 112.633V114.967L110.035 115.146Z" fill="url(#paint6_linear_10272_1648)"/>
<path d="M107.345 137.58C114.697 133.847 120.185 126.955 122.014 118.664V116.079C122.014 115.254 121.332 114.572 120.507 114.572H108.887C108.062 114.572 107.381 115.254 107.381 116.079V137.58H107.345Z" fill="url(#paint7_linear_10272_1648)"/>
<path d="M86.2212 119.023C96.6992 119.023 105.193 110.811 105.193 100.681C105.193 90.5511 96.6992 82.3392 86.2212 82.3392C75.7432 82.3392 67.249 90.5511 67.249 100.681C67.249 110.811 75.7432 119.023 86.2212 119.023Z" fill="black"/>
<path d="M84.3921 108.972L84.4281 101.542L94.6851 98.1324L101.248 108.254L98.917 109.906L98.7738 117.264L94.972 117.048V121.643L84.3921 120.279V114.392H83.065C82.2043 114.392 81.5229 113.71 81.5229 112.849V108.936H84.3921V108.972Z" fill="#6E3A0C"/>
<path d="M95.0076 117.048L90.2017 116.654L94.9715 120.602L95.0076 117.048Z" fill="url(#paint8_linear_10272_1648)"/>
<g filter="url(#filter2_d_10272_1648)">
<path d="M226 205.196C226 200.062 230.162 195.9 235.296 195.9H434.85C439.984 195.9 444.145 200.062 444.145 205.196V246.098C444.145 247.125 443.313 247.957 442.286 247.957H235.296C230.162 247.957 226 243.795 226 238.661V205.196Z" fill="#F6F6F6"/>
</g>
<path fill-rule="evenodd" clip-rule="evenodd" d="M354.076 215.48C354.076 213.874 352.775 212.573 351.169 212.573H246.744C245.139 212.573 243.837 213.874 243.837 215.48C243.837 217.085 245.139 218.387 246.744 218.387H351.169C352.775 218.387 354.076 217.085 354.076 215.48Z" fill="#1968F0"/>
<path fill-rule="evenodd" clip-rule="evenodd" d="M354.076 228.494C354.076 226.888 352.775 225.587 351.169 225.587H280.682C279.077 225.587 277.775 226.888 277.775 228.494C277.775 230.1 279.077 231.401 280.682 231.401H351.169C352.775 231.401 354.076 230.1 354.076 228.494Z" fill="#1968F0"/>
<mask id="mask0_10272_1648" style="mask-type:alpha" maskUnits="userSpaceOnUse" x="367" y="183" width="57" height="57">
<path d="M395.585 239.111C411.054 239.111 423.595 226.56 423.595 211.078C423.595 195.596 411.054 183.045 395.585 183.045C380.115 183.045 367.575 195.596 367.575 211.078C367.575 226.56 380.115 239.111 395.585 239.111Z" fill="#FDE99B"/>
</mask>
<g mask="url(#mask0_10272_1648)">
<path d="M391.381 245.576C410.685 248.167 428.434 234.606 431.023 215.286C433.612 195.966 420.062 178.203 400.758 175.611C381.454 173.02 363.706 186.581 361.116 205.901C358.527 225.222 372.077 242.985 391.381 245.576Z" fill="#1156CF"/>
<path d="M402.609 224.246L414.259 210.989L412.786 196.813L383.742 190.682L381.009 197.605L387.194 201.328L402.609 224.246Z" fill="#F06305"/>
<path d="M387.839 197.861L384.025 203.856L383.754 207.676L380.18 215.028L382.289 215.914L382.354 225.322L388.455 225.178L389.321 232.645L404.382 233.041L402.101 218.154L405.124 215.366L402.299 210.829L400.33 212.493L398.999 203.999L387.839 197.861Z" fill="#FCAA73"/>
<path d="M389.054 230.139L395.406 224.967L388.454 225.178L389.054 230.139Z" fill="url(#paint9_linear_10272_1648)"/>
<path d="M398.956 222.732L403.477 227.195L402.099 218.153L398.956 222.732Z" fill="url(#paint10_linear_10272_1648)"/>
<path d="M382.283 220.011L384.628 216.892L382.29 215.915L382.283 220.011Z" fill="url(#paint11_linear_10272_1648)"/>
</g>
<g filter="url(#filter3_d_10272_1648)">
<path d="M304.467 273.073C304.467 268.281 308.351 264.396 313.143 264.396H343.51C348.302 264.396 352.186 268.281 352.186 273.073V284.848C352.186 286.388 350.938 287.636 349.397 287.636H313.143C308.351 287.636 304.467 283.752 304.467 278.96V273.073Z" fill="white"/>
</g>
<path d="M335.205 277.97C336.198 274.171 333.923 270.286 330.125 269.293C326.326 268.3 322.441 270.575 321.448 274.374C320.455 278.172 322.73 282.057 326.529 283.05C330.327 284.043 334.212 281.768 335.205 277.97Z" fill="#F6A721"/>
<path d="M326.023 274.871C326.023 275.352 325.694 275.743 325.292 275.743C324.889 275.743 324.562 275.352 324.562 274.871C324.562 274.39 324.891 273.999 325.292 273.999C325.693 273.999 326.023 274.39 326.023 274.871Z" fill="#2C2A46"/>
<path d="M331.851 275.75C331.791 275.752 331.732 275.73 331.687 275.689C331.211 275.25 330.509 275.594 330.501 275.599C330.456 275.62 330.406 275.626 330.357 275.616C330.308 275.606 330.264 275.581 330.231 275.544C330.197 275.508 330.177 275.461 330.172 275.412C330.167 275.362 330.178 275.313 330.204 275.27C330.384 274.996 330.633 274.775 330.926 274.628C331.219 274.482 331.546 274.415 331.873 274.436C331.903 274.438 331.933 274.446 331.96 274.459C331.987 274.473 332.012 274.492 332.032 274.515C332.052 274.538 332.067 274.565 332.077 274.594C332.086 274.623 332.09 274.653 332.088 274.684C332.086 274.714 332.078 274.744 332.064 274.771C332.05 274.798 332.031 274.823 332.008 274.843C331.985 274.862 331.959 274.878 331.93 274.887C331.901 274.897 331.87 274.901 331.84 274.899C331.623 274.885 331.406 274.924 331.207 275.01C331.503 275.03 331.783 275.151 332.001 275.352C332.023 275.373 332.042 275.398 332.054 275.425C332.067 275.453 332.075 275.483 332.076 275.514C332.077 275.544 332.072 275.575 332.062 275.603C332.051 275.632 332.035 275.658 332.014 275.681C331.993 275.702 331.968 275.72 331.94 275.732C331.912 275.743 331.882 275.75 331.851 275.75Z" fill="#2C2A46"/>
<path d="M328.817 280.799C328.044 280.799 327.293 280.542 326.682 280.068C326.614 280.01 326.571 279.928 326.562 279.839C326.553 279.75 326.579 279.661 326.633 279.591C326.688 279.52 326.768 279.473 326.856 279.46C326.944 279.446 327.034 279.467 327.107 279.518C327.526 279.84 328.027 280.037 328.553 280.086C329.079 280.135 329.608 280.034 330.079 279.794C330.549 279.555 330.942 279.187 331.212 278.733C331.482 278.279 331.618 277.758 331.603 277.23C331.6 277.137 331.634 277.048 331.698 276.98C331.761 276.913 331.849 276.873 331.941 276.871C332.033 276.868 332.123 276.902 332.19 276.965C332.258 277.028 332.297 277.116 332.3 277.208C332.326 278.132 331.986 279.028 331.353 279.701C330.72 280.373 329.846 280.768 328.923 280.797L328.817 280.799Z" fill="#2C2A46"/>
<g filter="url(#filter4_d_10272_1648)">
<path d="M208.72 172.676C208.72 167.884 204.835 164 200.043 164H169.677C164.885 164 161 167.884 161 172.676V184.451C161 185.991 162.249 187.24 163.789 187.24H200.043C204.835 187.24 208.72 183.355 208.72 178.564V172.676Z" fill="white"/>
</g>
<path d="M186.056 183.255C190.186 182.594 192.999 178.709 192.338 174.578C191.677 170.447 187.793 167.635 183.662 168.295C179.531 168.956 176.718 172.841 177.379 176.972C178.04 181.103 181.925 183.915 186.056 183.255Z" fill="#F6A721"/>
<path d="M189.247 174.795C189.265 174.804 189.285 174.809 189.305 174.809C189.325 174.808 189.345 174.803 189.362 174.793C189.38 174.783 189.394 174.769 189.405 174.752C189.415 174.735 189.421 174.715 189.422 174.695C189.422 174.429 189.317 174.175 189.129 173.987C188.941 173.799 188.687 173.694 188.421 173.694C188.156 173.694 187.901 173.799 187.713 173.987C187.525 174.175 187.42 174.429 187.42 174.695C187.42 174.716 187.427 174.737 187.438 174.755C187.449 174.773 187.464 174.788 187.483 174.798C187.502 174.808 187.523 174.813 187.544 174.812C187.565 174.812 187.586 174.806 187.604 174.795C187.849 174.643 188.133 174.562 188.422 174.562C188.711 174.562 188.994 174.643 189.24 174.795H189.247Z" fill="#2C2A46"/>
<path d="M182.105 174.795C182.123 174.804 182.143 174.809 182.163 174.809C182.183 174.808 182.203 174.803 182.221 174.793C182.238 174.783 182.253 174.769 182.263 174.752C182.274 174.735 182.28 174.715 182.28 174.695C182.28 174.429 182.175 174.175 181.987 173.987C181.8 173.799 181.545 173.694 181.279 173.694C181.014 173.694 180.759 173.799 180.572 173.987C180.384 174.175 180.278 174.429 180.278 174.695C180.279 174.715 180.285 174.735 180.296 174.752C180.306 174.769 180.321 174.783 180.338 174.793C180.356 174.803 180.375 174.808 180.396 174.809C180.416 174.809 180.436 174.804 180.453 174.795C180.699 174.643 180.983 174.562 181.272 174.562C181.562 174.562 181.845 174.643 182.091 174.795H182.105Z" fill="#2C2A46"/>
<path d="M184.898 179.222C183.622 179.22 182.392 178.74 181.452 177.876C181.387 177.808 181.351 177.717 181.351 177.623C181.35 177.529 181.386 177.438 181.45 177.369C181.514 177.3 181.602 177.258 181.696 177.251C181.79 177.245 181.883 177.274 181.956 177.334C182.744 178.059 183.771 178.467 184.841 178.479C185.912 178.492 186.949 178.108 187.753 177.402C187.789 177.37 187.832 177.345 187.878 177.329C187.924 177.314 187.972 177.307 188.021 177.31C188.069 177.313 188.117 177.326 188.16 177.347C188.204 177.368 188.243 177.398 188.275 177.435C188.307 177.471 188.332 177.513 188.348 177.559C188.364 177.605 188.37 177.654 188.367 177.702C188.364 177.751 188.352 177.798 188.33 177.842C188.309 177.886 188.279 177.925 188.243 177.957C187.32 178.773 186.13 179.223 184.898 179.222Z" fill="#2C2A46"/>
<path d="M342.584 366.749C344.068 366.849 345.595 366.634 347.072 366.062C349.732 365.032 351.836 363.013 352.996 360.377C354.156 357.741 354.233 354.803 353.214 352.104C352.195 349.406 350.2 347.269 347.599 346.089C344.997 344.909 342.099 344.826 339.439 345.856C333.948 347.982 331.192 354.243 333.297 359.814C334.835 363.886 338.551 366.479 342.584 366.749ZM343.634 349.979C344.325 350.026 345.01 350.197 345.662 350.492C347.103 351.146 348.207 352.329 348.772 353.823C349.336 355.318 349.293 356.946 348.651 358.406C348.008 359.866 346.843 360.984 345.37 361.554C342.329 362.732 338.905 361.179 337.74 358.094C336.574 355.008 338.1 351.54 341.142 350.363C341.949 350.051 342.796 349.923 343.634 349.979ZM335.518 358.954L335.515 358.954L335.518 358.954Z" fill="#FFCF33"/>
<path d="M368.864 473.499C369.657 475.597 370.81 477.454 372.222 479.018C376.828 484.111 384.198 486.126 390.945 483.514C397.692 480.902 401.854 474.424 401.927 467.52C401.948 465.401 401.583 463.24 400.791 461.14L368.864 473.499Z" fill="#FBCF23"/>
<path d="M368.75 471.971C369.626 473.909 370.858 475.66 372.345 477.169L402.148 469.265C402.1 467.374 401.658 465.414 400.783 463.476L368.75 471.971Z" fill="#FFCF33"/>
<path d="M391.632 464.774L400.732 462.267C404.576 471.136 400.297 480.365 391.176 482.878C389.598 483.313 387.977 483.513 386.356 483.509C392.431 479.684 394.81 472.108 391.632 464.774Z" fill="#FFCF33"/>
<path d="M348.99 364.647C370.102 356.475 393.491 366.46 404.585 395.826L409.197 408.034C412.616 417.084 423.386 424.73 433.249 430.095C439.805 433.66 439.23 443.364 432.287 446.051L386.446 463.796L340.604 481.541C333.662 484.228 326.837 477.388 329.37 470.305C333.18 459.647 336.163 446.678 332.743 437.628L328.132 425.42C317.038 396.054 327.878 372.819 348.99 364.647Z" fill="#FBCF23"/>
<path opacity="0.3" d="M418.589 435.769C408.726 430.405 397.956 422.759 394.537 413.709L389.925 401.501C380.149 375.622 360.824 364.798 341.924 368.183C344.122 366.803 346.483 365.617 348.99 364.647C370.102 356.474 393.491 366.459 404.585 395.826L409.197 408.034C412.616 417.084 423.386 424.729 433.249 430.094C439.805 433.66 439.23 443.364 432.287 446.051C432.287 446.051 425.757 448.579 417.627 451.726C424.57 449.039 425.145 439.335 418.589 435.769Z" fill="#F06305"/>
<path d="M354.498 365.532C354.498 354.486 363.452 345.532 374.498 345.532L403.498 345.532C414.544 345.532 423.498 354.486 423.498 365.532C423.498 376.578 414.544 385.532 403.498 385.532L374.498 385.532C363.452 385.532 354.498 376.578 354.498 365.532Z" fill="#E60F0F"/>
<path d="M370.046 371.736L370.046 370.06L373.39 370.06L373.39 360.469L370.777 361.972L369.899 360.489L374.017 358.158L375.543 358.158L375.543 370.06L378.678 370.06L378.678 371.736L370.046 371.736Z" fill="white"/>
<path d="M386.403 371.909C384.689 371.909 383.379 371.312 382.474 370.118C381.582 368.911 381.136 367.184 381.136 364.937C381.136 362.652 381.582 360.925 382.474 359.757C383.379 358.576 384.689 357.985 386.403 357.985C388.131 357.985 389.441 358.576 390.332 359.757C391.224 360.925 391.67 362.646 391.67 364.918C391.67 367.178 391.217 368.911 390.311 370.118C389.42 371.312 388.117 371.909 386.403 371.909ZM386.403 370.253C387.462 370.253 388.249 369.823 388.765 368.963C389.28 368.102 389.538 366.754 389.538 364.918C389.538 363.082 389.28 361.747 388.765 360.912C388.263 360.065 387.476 359.641 386.403 359.641C385.344 359.641 384.557 360.065 384.041 360.912C383.526 361.76 383.268 363.095 383.268 364.918C383.268 366.754 383.526 368.102 384.041 368.963C384.557 369.823 385.344 370.253 386.403 370.253Z" fill="white"/>
<path d="M398.141 370.965L398.141 366.921L393.835 366.921L393.835 365.496L398.141 365.496L398.141 361.567L399.73 361.567L399.73 365.496L404.035 365.496L404.035 366.921L399.73 366.921L399.73 370.965L398.141 370.965Z" fill="white"/>
<defs>
<filter id="filter0_f_10272_1648" x="111.999" y="421.27" width="341" height="77" filterUnits="userSpaceOnUse" color-interpolation-filters="sRGB">
<feFlood flood-opacity="0" result="BackgroundImageFix"/>
<feBlend mode="normal" in="SourceGraphic" in2="BackgroundImageFix" result="shape"/>
<feGaussianBlur stdDeviation="8" result="effect1_foregroundBlur_10272_1648"/>
</filter>
<filter id="filter1_d_10272_1648" x="48.8548" y="98.4606" width="234.436" height="68.3478" filterUnits="userSpaceOnUse" color-interpolation-filters="sRGB">
<feFlood flood-opacity="0" result="BackgroundImageFix"/>
<feColorMatrix in="SourceAlpha" type="matrix" values="0 0 0 0 0 0 0 0 0 0 0 0 0 0 0 0 0 0 127 0" result="hardAlpha"/>
<feOffset dy="1.35753"/>
<feGaussianBlur stdDeviation="4.07258"/>
<feColorMatrix type="matrix" values="0 0 0 0 0.374547 0 0 0 0 0.481553 0 0 0 0 0.601935 0 0 0 0.15 0"/>
<feBlend mode="normal" in2="BackgroundImageFix" result="effect1_dropShadow_10272_1648"/>
<feBlend mode="normal" in="SourceGraphic" in2="effect1_dropShadow_10272_1648" result="shape"/>
</filter>
<filter id="filter2_d_10272_1648" x="217.855" y="189.112" width="234.436" height="68.3478" filterUnits="userSpaceOnUse" color-interpolation-filters="sRGB">
<feFlood flood-opacity="0" result="BackgroundImageFix"/>
<feColorMatrix in="SourceAlpha" type="matrix" values="0 0 0 0 0 0 0 0 0 0 0 0 0 0 0 0 0 0 127 0" result="hardAlpha"/>
<feOffset dy="1.35753"/>
<feGaussianBlur stdDeviation="4.07258"/>
<feColorMatrix type="matrix" values="0 0 0 0 0.374547 0 0 0 0 0.481553 0 0 0 0 0.601935 0 0 0 0.15 0"/>
<feBlend mode="normal" in2="BackgroundImageFix" result="effect1_dropShadow_10272_1648"/>
<feBlend mode="normal" in="SourceGraphic" in2="effect1_dropShadow_10272_1648" result="shape"/>
</filter>
<filter id="filter3_d_10272_1648" x="300.748" y="261.298" width="55.1565" height="30.6767" filterUnits="userSpaceOnUse" color-interpolation-filters="sRGB">
<feFlood flood-opacity="0" result="BackgroundImageFix"/>
<feColorMatrix in="SourceAlpha" type="matrix" values="0 0 0 0 0 0 0 0 0 0 0 0 0 0 0 0 0 0 127 0" result="hardAlpha"/>
<feOffset dy="0.619731"/>
<feGaussianBlur stdDeviation="1.85919"/>
<feColorMatrix type="matrix" values="0 0 0 0 0.374547 0 0 0 0 0.481553 0 0 0 0 0.601935 0 0 0 0.15 0"/>
<feBlend mode="normal" in2="BackgroundImageFix" result="effect1_dropShadow_10272_1648"/>
<feBlend mode="normal" in="SourceGraphic" in2="effect1_dropShadow_10272_1648" result="shape"/>
</filter>
<filter id="filter4_d_10272_1648" x="157.282" y="160.901" width="55.156" height="30.6767" filterUnits="userSpaceOnUse" color-interpolation-filters="sRGB">
<feFlood flood-opacity="0" result="BackgroundImageFix"/>
<feColorMatrix in="SourceAlpha" type="matrix" values="0 0 0 0 0 0 0 0 0 0 0 0 0 0 0 0 0 0 127 0" result="hardAlpha"/>
<feOffset dy="0.619731"/>
<feGaussianBlur stdDeviation="1.85919"/>
<feColorMatrix type="matrix" values="0 0 0 0 0.374547 0 0 0 0 0.481553 0 0 0 0 0.601935 0 0 0 0.15 0"/>
<feBlend mode="normal" in2="BackgroundImageFix" result="effect1_dropShadow_10272_1648"/>
<feBlend mode="normal" in="SourceGraphic" in2="effect1_dropShadow_10272_1648" result="shape"/>
</filter>
<linearGradient id="paint0_linear_10272_1648" x1="63.3927" y1="-129.06" x2="363.659" y2="514.932" gradientUnits="userSpaceOnUse">
<stop stop-color="white"/>
<stop offset="0.147721" stop-color="#F7FAFE"/>
<stop offset="0.304044" stop-color="#E2ECFD"/>
<stop offset="0.516199" stop-color="#FAFCFF"/>
<stop offset="0.970404" stop-color="#C5D9FB"/>
</linearGradient>
<linearGradient id="paint1_linear_10272_1648" x1="267.797" y1="43" x2="248.797" y2="-4" gradientUnits="userSpaceOnUse">
<stop stop-color="#0D4FC1"/>
<stop offset="0.482673" stop-color="#135CD8"/>
<stop offset="1" stop-color="#1A69F1"/>
</linearGradient>
<linearGradient id="paint2_linear_10272_1648" x1="167.377" y1="55.5632" x2="163.98" y2="56.3211" gradientUnits="userSpaceOnUse">
<stop offset="0.0105566" stop-color="#0012FF" stop-opacity="0.2"/>
<stop offset="0.5203" stop-color="#0012FF" stop-opacity="0"/>
</linearGradient>
<linearGradient id="paint3_linear_10272_1648" x1="172.109" y1="55.5632" x2="175.507" y2="56.3211" gradientUnits="userSpaceOnUse">
<stop offset="0.0105566" stop-color="#0012FF" stop-opacity="0.2"/>
<stop offset="0.5203" stop-color="#0012FF" stop-opacity="0"/>
</linearGradient>
<linearGradient id="paint4_linear_10272_1648" x1="100.145" y1="99.8289" x2="444.345" y2="425.738" gradientUnits="userSpaceOnUse">
<stop stop-color="#1968F0"/>
<stop offset="0.2912" stop-color="#125BD8"/>
<stop offset="0.5885" stop-color="#0E51C6"/>
<stop offset="0.8048" stop-color="#0C4EC0"/>
</linearGradient>
<linearGradient id="paint5_linear_10272_1648" x1="75.1224" y1="134.443" x2="111.957" y2="114.56" gradientUnits="userSpaceOnUse">
<stop offset="0.0650309" stop-color="#0096FA"/>
<stop offset="0.2889" stop-color="#0093FA"/>
<stop offset="0.4695" stop-color="#0089FB"/>
<stop offset="0.6351" stop-color="#0078FC"/>
<stop offset="0.7917" stop-color="#0060FD"/>
<stop offset="0.9406" stop-color="#0041FE"/>
<stop offset="1" stop-color="#0033FF"/>
</linearGradient>
<linearGradient id="paint6_linear_10272_1648" x1="115.273" y1="102.99" x2="115.273" y2="120.825" gradientUnits="userSpaceOnUse">
<stop offset="0.375" stop-color="#6E3A0C"/>
<stop offset="0.5005" stop-color="#6A380C"/>
<stop offset="0.6185" stop-color="#5F320A"/>
<stop offset="0.7335" stop-color="#4C2808"/>
<stop offset="0.8467" stop-color="#311A05"/>
<stop offset="0.9576" stop-color="#0F0802"/>
<stop offset="1"/>
</linearGradient>
<linearGradient id="paint7_linear_10272_1648" x1="103.729" y1="116.515" x2="127.905" y2="138.536" gradientUnits="userSpaceOnUse">
<stop offset="0.2046" stop-color="#0096FA"/>
<stop offset="0.3622" stop-color="#0092FA"/>
<stop offset="0.5231" stop-color="#0086FB"/>
<stop offset="0.6855" stop-color="#0071FC"/>
<stop offset="0.8479" stop-color="#0055FD"/>
<stop offset="1" stop-color="#0033FF"/>
</linearGradient>
<linearGradient id="paint8_linear_10272_1648" x1="91.6653" y1="119.643" x2="96.2337" y2="114.608" gradientUnits="userSpaceOnUse">
<stop offset="0.2107" stop-color="#6E3A0C"/>
<stop offset="0.3223" stop-color="#65350B"/>
<stop offset="0.5021" stop-color="#4E2908"/>
<stop offset="0.7264" stop-color="#271504"/>
<stop offset="0.9218"/>
</linearGradient>
<linearGradient id="paint9_linear_10272_1648" x1="394.237" y1="229.237" x2="388.68" y2="223.495" gradientUnits="userSpaceOnUse">
<stop offset="0.2944" stop-opacity="0"/>
<stop offset="1" stop-opacity="0.5"/>
</linearGradient>
<linearGradient id="paint10_linear_10272_1648" x1="399.391" y1="228.98" x2="406.148" y2="216.996" gradientUnits="userSpaceOnUse">
<stop offset="0.3675" stop-opacity="0"/>
<stop offset="0.8842" stop-opacity="0.5"/>
</linearGradient>
<linearGradient id="paint11_linear_10272_1648" x1="384.947" y1="221.544" x2="382.553" y2="214.606" gradientUnits="userSpaceOnUse">
<stop offset="0.3675" stop-opacity="0"/>
<stop offset="0.9278" stop-opacity="0.5"/>
</linearGradient>
</defs>
</svg>
