<svg width="500" height="500" fill="none" xmlns="http://www.w3.org/2000/svg"><path d="M413.126 324.232s-88.212 96.113-187.867 109.192c-99.655 13.078-145.462-22.084-142.025-59.7 3.436-37.616 18.316-64.607-11.443-94.052C42.03 250.227.76 226.499 30.554 153.696S142.786 57.999 195.5 65.361c52.714 7.361 57.25 48.265 119.105 58.89 61.855 10.625 139.758-8.981 160.376 44.167 20.619 53.149-20.618 116.014-61.855 155.814Z" fill="#B9CBD3" style="mix-blend-mode:luminosity" opacity=".16"/><path d="M126.506 176.492s1.616 2.575 3.854 5.895c10.757 15.971 41.02 37.385 122.896 49.217 109.985 15.887 129.792 11.348 134.011 8.983.913-.525 2.785-1.387 2.785-1.387l.237-3.288.548-23.737-23.806-58.841-125.957-37.921-60.416 1.124-39.075 31.764s-10.648 11.726-12.849 16.686c-1.169 2.627-2.228 11.505-2.228 11.505Z" fill="#D2DFE6"/><path d="M288.141 65.377c29.295 7.996 53.76 32.804 64.28 61.237 11.917 32.236 7.844 67.962 7.844 67.962s32.409 6.367 29.815 44.624c0 0 11.123-67.047-17.104-112.429-28.226-45.381-85.428-61.552-84.835-61.394Z" fill="#F5F8F9"/><path d="M286.241 65.303c8.121 10.61 13.573 23.569 15.771 37.48a171.696 171.696 0 0 1-1.087 56.435s58.91-2.585 59.293 35.357c.064 0 15.954-106.85-73.977-129.272Z" fill="#2CC3D5"/><path d="M274.515 64.851c-28.381 11.064-52.124 82.714-52.124 82.714s41.531-14.384 78.534 11.653c0 0 5.808-24.871 2.666-50.887-2.255-18.609-8.775-38.878-17.442-43.028l-11.634-.452Z" fill="#F5F8F9"/><path d="M252.298 64s-79.027 32.773-93.09 86.57c0 0 15.917-21.76 63.156-3.005 0 0 23.743-71.65 52.134-82.714l-22.2-.851Z" fill="#2CC3D5"/><path d="M252.298 64s-79.028 32.773-93.091 86.571c0 0-29.852-5.254-32.701 25.921 0 0 8.785-101.648 125.792-112.492Z" fill="#F5F8F9"/><path d="M222.391 147.513c.229 14.385.293 28.769.439 43.154l.155 43.154c.073 14.384 0 28.769 0 43.143l-.146 43.154-2.658-.82 19.917-40.19c6.703-13.366 13.342-26.763 20.09-40.086l20.236-39.991 10.228-19.964 5.114-9.961 5.16-9.888-4.767 10.182-4.813 10.182-9.652 20.3-19.524 40.453c-6.502 13.46-13.114 26.878-19.688 40.328l-19.817 40.253-2.739 5.506v-6.304l.329-43.143c.146-14.385.273-28.77.502-43.154l.639-43.144c.374-14.405.594-28.779.995-43.164Zm137.892 47.062a1927.99 1927.99 0 0 1-33.633 33.162c-5.644 5.474-11.342 10.864-17.022 16.286l-17.159 16.15-17.213 16.013c-5.772 5.254-11.516 10.623-17.351 15.866-5.835 5.243-11.597 10.508-17.423 15.761a913.145 913.145 0 0 1-17.616 15.457c5.479-5.653 11.15-11.138 16.721-16.707 5.57-5.569 11.25-11.012 16.912-16.455 5.662-5.442 11.369-10.917 17.031-16.349l17.122-16.139 17.223-16.045c5.771-5.254 11.515-10.623 17.35-15.866a1762.796 1762.796 0 0 1 35.058-31.134Zm29.768 44.625a1767.976 1767.976 0 0 1-40.683 22.203c-6.803 3.646-13.697 7.176-20.482 10.77l-20.538 10.591-20.601 10.434c-6.886 3.425-13.753 6.903-20.666 10.266-6.913 3.362-13.816 6.745-20.738 10.076-6.922 3.331-13.872 6.609-20.858 9.772 6.721-3.846 13.525-7.492 20.282-11.253 6.758-3.762 13.588-7.355 20.401-10.949 6.812-3.594 13.652-7.177 20.474-10.77l20.546-10.592 20.602-10.423c6.885-3.425 13.762-6.903 20.665-10.266a1793.299 1793.299 0 0 1 41.596-19.859Z" fill="#8CA0B3"/><path d="M220.674 320.506a1611.043 1611.043 0 0 1-24.437-35.231c-4.027-5.916-7.972-11.894-11.963-17.862l-11.871-17.947-11.671-18.031c-3.863-6.052-7.762-12.073-11.579-18.167-3.817-6.094-7.653-12.168-11.442-18.293-3.79-6.126-7.552-12.242-11.205-18.483 4.182 5.779 8.219 11.674 12.337 17.516 4.119 5.842 8.1 11.779 12.1 17.715 4 5.937 7.972 11.884 11.963 17.863l11.871 17.947 11.707 18.062c3.863 6.052 7.762 12.073 11.579 18.167a1480.834 1480.834 0 0 1 22.611 36.744Zm-61.466-169.935a1858.642 1858.642 0 0 1 16.949 42.029c2.739 7.03 5.479 14.101 8.218 21.141l8.027 21.215 7.89 21.288c2.585 7.124 5.215 14.216 7.744 21.361 2.53 7.145 5.078 14.28 7.58 21.446 2.502 7.166 4.958 14.342 7.305 21.571-2.949-6.935-5.735-13.953-8.602-20.93s-5.625-14.059-8.365-21.099c-2.739-7.04-5.479-14.091-8.219-21.141l-8.026-21.215-7.863-21.288c-2.584-7.124-5.205-14.216-7.735-21.361a1788.119 1788.119 0 0 1-14.903-43.017Z" fill="#8CA0B3"/><path d="m158.925 310.808-17.351 83.009 116.888 4.203 17.351-84.06-116.888-3.152Z" fill="#EDB58D"/><path d="m206.584 423.237-65.01-29.42 116.888 4.203 38.354 25.217h-90.232Z" fill="#D99564"/><path d="m312.34 342.33-36.528-28.37-17.35 84.059 38.354 25.218 15.524-80.907Z" fill="#F3C29F"/><path opacity=".2" d="m152.395 342.026 116.779 4.098 37.523 25.606-2.639 13.786-38.528-21.751-116.696-4.675 3.561-17.064Z" fill="#000"/><path d="M205.158 366.15c-.846-.283-1.572-.536-2.304-.766-9.85-2.981-13.693-10.805-10.809-22.024 3.203-12.483 9.217-16.407 20.719-15.196 14.119 1.479 15.87 10.705 12.927 22.537-1.166 4.698-3.164 8.706-6.507 11.694a181.797 181.797 0 0 1-9.943 8.33c-1.073.828-2.571.927-3.87 1.356-.073-1.44-.146-2.881-.213-4.322-.02-.375 0-.758 0-1.609Z" fill="#2CC3D5"/><path fill-rule="evenodd" clip-rule="evenodd" d="M199.874 331.44c-3.064 2.192-5.284 6.025-6.861 12.169-1.404 5.462-1.135 9.961.559 13.411 1.684 3.431 4.852 5.978 9.571 7.407l.01.003c.537.168 1.076.35 1.646.543l.677.229a1 1 0 0 1 .682.948c0 .38-.003.654-.006.868-.004.303-.006.488.005.688v.007c.047 1.026.098 2.052.15 3.078l.163-.039c.242-.058.469-.113.659-.165.632-.171 1.121-.361 1.498-.652a180.78 180.78 0 0 0 9.887-8.282l.003-.003c3.15-2.816 5.069-6.62 6.203-11.19 1.458-5.862 1.684-10.842-.002-14.49-1.638-3.545-5.215-6.095-12.059-6.811-5.639-.594-9.729.095-12.785 2.281Zm12.994-4.27c-5.862-.618-10.531.049-14.157 2.643-3.619 2.589-6.008 6.958-7.635 13.298-1.48 5.757-1.269 10.779.7 14.791 1.979 4.03 5.655 6.884 10.783 8.437a70.306 70.306 0 0 1 1.594.527v.031c-.004.372-.007.654.006.912.067 1.442.14 2.883.213 4.322v.001a1 1 0 0 0 1.313.899c.377-.125.724-.207 1.11-.299.261-.062.539-.128.858-.214.708-.192 1.504-.466 2.199-1.001l.004-.003a183.148 183.148 0 0 0 9.996-8.375c3.536-3.161 5.612-7.372 6.809-12.197 1.485-5.97 1.856-11.519-.128-15.811-2.031-4.396-6.389-7.199-13.665-7.961" fill="#fff"/><path d="M377.013 293.766c3.823-.36 18.115-25.782 34.549-25.782 13.79 0 20.479 11.576 21.435 19.143 0 0 6.828-8.491 20.077-4.786 10.704 2.995 12.897 11.411 13.655 16.211v.511s7.054-5.454 17.977-4.738c10.294.668 13.798 7.217 15.294 10.297H361.446s1.316-9.515 15.567-10.856ZM.014 370.794H114.42s-.56-29.033-39.252-26.458c0 0-13.46-19.527-36.445-17.824-22.986 1.703-39.26 30.726-38.71 44.282Zm16.338-247.381h95.524s-4.352-12.313-14.568-11.977c-10.216.337-15.49 4.22-21.627 1.854-6.136-2.366-17.122-12.478-33.512-8.937-16.39 3.542-25.817 19.06-25.817 19.06Z" fill="#87DDE8"/></svg>