<svg width="501" height="500" viewBox="0 0 501 500" fill="none" xmlns="http://www.w3.org/2000/svg">
<path d="M237.232 482.751C357.966 482.751 455.84 384.877 455.84 264.143C455.84 143.41 357.966 45.5361 237.232 45.5361C116.499 45.5361 18.625 143.41 18.625 264.143C18.625 384.877 116.499 482.751 237.232 482.751Z" fill="url(#paint0_linear_223_31607)"/>
<path d="M501.002 250.347C497.66 232.008 481.549 218.04 462.182 218.04C448.728 218.04 436.816 224.81 429.704 235.008C426.019 233.551 421.991 232.779 417.792 232.779C405.109 232.779 394.14 239.892 388.57 250.261H501.002V250.347Z" fill="url(#paint1_linear_223_31607)"/>
<path d="M156.165 381.631C149.995 364.578 136.37 352.666 120.602 352.666C111.775 352.666 103.634 356.351 97.1217 362.521C87.2668 344.954 71.0705 333.471 52.7318 333.471C28.3945 333.471 7.74206 353.695 0.800781 381.546H156.165V381.631Z" fill="url(#paint2_linear_223_31607)"/>
<path fill-rule="evenodd" clip-rule="evenodd" d="M238.991 153.88L210.026 265.027L203.252 263.261L232.217 152.115L238.991 153.88Z" fill="#072F73"/>
<path fill-rule="evenodd" clip-rule="evenodd" d="M106.421 152.112L135.471 263.259L128.699 265.029L99.6484 153.882L106.421 152.112Z" fill="#072F73"/>
<path fill-rule="evenodd" clip-rule="evenodd" d="M374.817 153.88L345.852 265.027L339.078 263.261L368.043 152.115L374.817 153.88Z" fill="#072F73"/>
<path fill-rule="evenodd" clip-rule="evenodd" d="M249.53 152.112L278.581 263.259L271.808 265.029L242.758 153.882L249.53 152.112Z" fill="#072F73"/>
<path d="M343.41 412.138H132.001C124.888 412.138 119.146 406.397 119.146 399.284V266.543C119.146 259.43 124.888 253.688 132.001 253.688H343.495C350.608 253.688 356.35 259.43 356.35 266.543V399.284C356.264 406.397 350.522 412.138 343.41 412.138Z" fill="#FCAA73"/>
<path d="M215.381 253.774H131.057C123.945 253.774 118.203 259.516 118.203 266.629V399.37C118.203 406.482 123.945 412.224 131.057 412.224H215.381V253.774Z" fill="#F06305"/>
<path d="M302.704 253.774H267.912V293.794H302.704V253.774Z" fill="#F5F5F5"/>
<path d="M180.417 253.774H152.395V293.794H180.417V253.774Z" fill="#F5F5F5"/>
<path fill-rule="evenodd" clip-rule="evenodd" d="M245.117 17.5081C240.347 17.1694 235.576 17 230.721 17C137.827 17 58.6455 75.5295 27.9668 157.711H245.203L245.203 157.625H447.442C416.764 75.6153 337.839 17.1714 245.117 17V17.5081Z" fill="#35DE90"/>
<path d="M371.43 158.139C351.206 75.7009 298.932 17 237.66 17C176.388 17 124.115 75.7009 103.891 158.139H371.43Z" fill="#84EBBC"/>
<path d="M285.736 158.139C278.452 75.7009 259.685 17 237.747 17C215.723 17 196.956 75.7009 189.758 158.139H285.736Z" fill="#35DE90"/>
<defs>
<linearGradient id="paint0_linear_223_31607" x1="237.262" y1="70.5847" x2="237.262" y2="507.737" gradientUnits="userSpaceOnUse">
<stop stop-color="#0096FA"/>
<stop offset="0.2753" stop-color="#0390F9"/>
<stop offset="0.6383" stop-color="#0C80F5"/>
<stop offset="1" stop-color="#1968F0"/>
</linearGradient>
<linearGradient id="paint1_linear_223_31607" x1="414.932" y1="228.555" x2="483.096" y2="255.511" gradientUnits="userSpaceOnUse">
<stop stop-color="#F5F5F5"/>
<stop offset="0.8231" stop-color="#EFEFEF"/>
<stop offset="1" stop-color="#EDEDED"/>
</linearGradient>
<linearGradient id="paint2_linear_223_31607" x1="98.7814" y1="358.018" x2="14.1405" y2="394.287" gradientUnits="userSpaceOnUse">
<stop stop-color="#F5F5F5"/>
<stop offset="0.8202" stop-color="#EFEFEF"/>
<stop offset="0.9965" stop-color="#EDEDED"/>
</linearGradient>
</defs>
</svg>
