<svg width="500" height="500" viewBox="0 0 500 500" fill="none" xmlns="http://www.w3.org/2000/svg">
<path d="M272.164 340.674C363.753 340.674 438.001 266.427 438.001 174.837C438.001 83.248 363.753 9 272.164 9C180.575 9 106.326 83.248 106.326 174.837C106.326 266.427 180.575 340.674 272.164 340.674Z" fill="#072F73"/>
<path d="M322.198 491.671L130.855 491.759C120.368 491.759 110.591 483.494 109.169 473.274L61.1777 143.288C60.1112 135.734 65.4436 129.69 73.1756 129.69L269.585 129.602C277.317 129.602 284.427 135.645 285.494 143.199L334.196 478.073C335.351 485.538 329.93 491.671 322.198 491.671Z" fill="#0C4EC0"/>
<path d="M83.6626 162.663C96.1789 162.663 106.325 152.517 106.325 140.001C106.325 127.484 96.1789 117.338 83.6626 117.338C71.1464 117.338 61 127.484 61 140.001C61 152.517 71.1464 162.663 83.6626 162.663Z" fill="#0C4EC0"/>
<path d="M321.753 491.761C334.27 491.761 344.416 481.614 344.416 469.098C344.416 456.582 334.27 446.436 321.753 446.436C309.237 446.436 299.091 456.582 299.091 469.098C299.091 481.614 309.237 491.761 321.753 491.761Z" fill="#0C4EC0"/>
<path d="M344.239 466.519L299.89 161.24H75.1309L119.567 466.697C120.634 474.251 127.833 480.295 135.565 480.295L332.329 480.206C339.972 480.117 345.394 473.985 344.239 466.519Z" fill="url(#paint0_linear_18735_3588)"/>
<path d="M294.382 351.427L135.832 351.605C128.1 351.605 120.99 345.561 119.835 338.007L112.547 287.705C111.48 280.151 116.813 274.107 124.545 274.107L283.095 273.93C290.827 273.93 297.937 279.973 299.092 287.527L306.38 337.829C307.446 345.295 302.114 351.338 294.382 351.427Z" fill="#C5D9FB"/>
<path d="M280.06 255.849L124.046 256C116.438 256 109.442 250.865 108.305 244.446L101.134 201.705C100.084 195.286 105.331 190.151 112.94 190.151L268.954 190C276.562 190 283.558 195.135 284.695 201.554L291.866 244.295C292.916 250.638 287.669 255.773 280.06 255.849Z" fill="#C5D9FB"/>
<path d="M300.159 163.018L75.4869 163.284L70.8662 131.201C69.7997 123.647 75.1321 117.604 82.8641 117.604L279.629 117.426C287.361 117.426 294.47 123.469 295.626 131.023L300.159 163.018Z" fill="#35DE90"/>
<path d="M222.395 140.266C222.04 137.866 219.818 136 217.33 136C214.841 136 213.153 137.955 213.508 140.266C213.864 142.666 216.085 144.532 218.573 144.532C221.062 144.532 222.751 142.666 222.395 140.266Z" fill="#072F73"/>
<path d="M202.754 136L164.894 136.089C162.494 136.089 160.717 138.044 161.073 140.355C161.428 142.754 163.649 144.621 166.138 144.621L203.998 144.532C206.398 144.532 208.175 142.577 207.82 140.266C207.464 137.955 205.242 136 202.754 136Z" fill="#072F73"/>
<path d="M358.28 382.092C375.214 382.092 388.942 368.364 388.942 351.431C388.942 334.497 375.214 320.77 358.28 320.77C341.347 320.77 327.619 334.497 327.619 351.431C327.619 368.364 341.347 382.092 358.28 382.092Z" fill="#0C4EC0"/>
<path fill-rule="evenodd" clip-rule="evenodd" d="M240.346 404.396L240.702 406.618C241.768 406.707 242.746 407.151 243.546 407.951C244.346 408.662 244.879 409.639 244.967 410.706L246.923 424.304C247.189 426.348 246.656 428.214 245.412 429.636C244.168 431.058 242.301 431.858 240.257 431.858H221.416C219.372 431.858 217.239 431.058 215.639 429.636C213.951 428.214 212.885 426.259 212.618 424.304L210.663 410.706C210.485 409.639 210.751 408.573 211.462 407.862C212.173 407.062 213.151 406.707 214.218 406.707H237.591L237.235 404.574C236.88 402.352 235.813 400.219 234.125 398.441C232.436 396.664 230.304 395.42 227.993 394.886C225.682 394.353 223.371 394.531 221.416 395.42C219.461 396.308 217.951 397.819 217.062 399.774C216.884 400.13 216.617 400.397 216.262 400.485C215.906 400.574 215.462 400.574 215.106 400.397C214.751 400.219 214.395 399.864 214.218 399.508C214.04 399.153 214.039 398.708 214.128 398.353C215.195 395.775 217.151 393.731 219.728 392.576C222.305 391.421 225.326 391.154 228.348 391.865C231.37 392.576 234.125 394.175 236.347 396.486C238.568 398.619 239.901 401.463 240.346 404.396ZM243.724 425.992C243.901 425.459 243.901 424.837 243.812 424.215L241.857 410.617C241.857 410.351 241.679 410.084 241.413 409.817C241.146 409.639 240.88 409.462 240.613 409.462H214.662C214.395 409.462 214.129 409.551 213.951 409.728C213.773 409.906 213.684 410.173 213.684 410.439L215.639 424.037C215.817 425.281 216.44 426.437 217.506 427.236C218.484 428.125 219.727 428.569 220.972 428.569H239.813C240.435 428.569 241.057 428.48 241.59 428.214C242.124 427.947 242.568 427.681 242.924 427.236C243.279 427.059 243.546 426.525 243.724 425.992ZM232.081 419.149C232.347 420.749 231.193 422.082 229.504 422.082C227.815 422.082 226.304 420.749 226.038 419.149C225.771 417.549 226.927 416.216 228.615 416.216C230.304 416.216 231.814 417.549 232.081 419.149Z" fill="#C5D9FB"/>
<path d="M134.34 208.213C125.922 208.807 121.626 212.294 122.211 220.574C122.733 227.969 126.94 233.369 136.07 232.724C136.3 232.708 136.74 232.677 136.74 232.677C136.815 233.75 136.916 235.13 136.999 236.317C137.02 236.612 137.274 236.872 137.628 236.847C137.906 236.828 137.977 236.717 138.187 236.509C139.7 235.006 144.142 230.359 144.142 230.359C146.35 227.938 148.534 225.083 148.086 218.747C147.501 210.467 142.758 207.618 134.34 208.213Z" fill="#0096FA"/>
<defs>
<linearGradient id="paint0_linear_18735_3588" x1="346.77" y1="171.106" x2="77.3891" y2="458.24" gradientUnits="userSpaceOnUse">
<stop stop-color="#C5D9FB"/>
<stop offset="0.0250163" stop-color="#C8DBFB"/>
<stop offset="0.2371" stop-color="#E0EBFD"/>
<stop offset="0.4615" stop-color="#F2F6FE"/>
<stop offset="0.7045" stop-color="#FCFDFF"/>
<stop offset="1" stop-color="white"/>
</linearGradient>
</defs>
</svg>
