<svg width="503" height="500" viewBox="0 0 503 500" fill="none" xmlns="http://www.w3.org/2000/svg">
<path d="M191.399 458.864L431.722 222.84L160.678 330.902L191.399 458.864Z" fill="#1968F0"/>
<path d="M27.1262 288.787L401.348 449.723C432.533 463.144 467.66 442.203 470.79 408.535L502.786 94.7617C506.264 56.4656 466.733 28.8137 431.838 45.2428L25.8508 209.303C-8.23258 225.269 -7.42096 273.978 27.1262 288.787Z" fill="url(#paint0_linear_223_31683)"/>
<path d="M105.494 322.57L163.227 452.268C170.299 468.119 193.601 465.92 197.426 448.912L215.512 369.891L342.455 200.972C349.642 190.906 337.354 178.41 327.152 185.468L105.494 322.57Z" fill="#0C4EC0"/>
<defs>
<linearGradient id="paint0_linear_223_31683" x1="111.761" y1="370.07" x2="764.764" y2="122.299" gradientUnits="userSpaceOnUse">
<stop offset="0.2903" stop-color="#0096FA"/>
<stop offset="0.4734" stop-color="#0093FA"/>
<stop offset="0.6087" stop-color="#008AFB"/>
<stop offset="0.7286" stop-color="#007AFB"/>
<stop offset="0.8397" stop-color="#0063FD"/>
<stop offset="0.9437" stop-color="#0046FE"/>
<stop offset="1" stop-color="#0033FF"/>
</linearGradient>
</defs>
</svg>
