<svg width="500" height="500" fill="none" xmlns="http://www.w3.org/2000/svg"><path d="M421.19 392.664c20.892 5.958 61.367-21.156 60.696-54.066-.83-33.973-30.571-59.509-34.309-93.385-4.153-37.483 35.874-65.08 44.308-101.822 8.913-38.642-9.584-84.755-38.334-111.805C429.049 8.53 388.51-4.48 355.543 1.413c-40.091 7.15-64.242 52.264-103.63 62.633-31.945 8.436-64.657-.805-95.836-11.883-23.639-8.436-43.86-8.469-65.775-9.66C66.184 41.15-7.96 77.925 9.225 151.184c5.495 23.539 27.76 38.964 48.972 50.202s51.496 38.03 67.085 56.321c25.365 29.593 16.835 55.644 15.973 94.737-.863 39.093-18.049 79.957 11.82 115.379 12.107 14.459 44.084 30.366 64.177 32.009 14.056 1.159 34.725-3.8 43.989-10.756 55.776-41.926 43.477-129.515 159.949-96.412Z" fill="#B9CBD3" style="mix-blend-mode:luminosity" opacity=".16"/><path opacity=".3" d="M78.093 41.365a8.663 8.663 0 0 1 8.663-8.663H264.44a8.663 8.663 0 0 1 8.663 8.663v229.512a8.664 8.664 0 0 1-8.663 8.663H86.756a8.663 8.663 0 0 1-8.663-8.663V41.365Z" fill="#C3EEF4"/><path opacity=".3" d="M85.12 50.15a8.663 8.663 0 0 1 8.663-8.663h177.685a8.663 8.663 0 0 1 8.663 8.663v229.512a8.664 8.664 0 0 1-8.663 8.663H93.783a8.663 8.663 0 0 1-8.663-8.663V50.15Z" fill="#C3EEF4"/><path d="M69.31 32.58a8.663 8.663 0 0 1 8.662-8.662h177.685a8.663 8.663 0 0 1 8.663 8.663v229.512a8.663 8.663 0 0 1-8.663 8.663H77.972a8.663 8.663 0 0 1-8.662-8.663V32.581Z" fill="#F8FBFB"/><path d="M69.31 32.58a8.663 8.663 0 0 1 8.662-8.662h177.685a8.663 8.663 0 0 1 8.663 8.663v18.568H69.31V32.581Z" fill="#202C44"/><path d="M91.508 37.485a3.7 3.7 0 1 1-7.4 0 3.7 3.7 0 0 1 7.4 0Z" fill="#FF5A60"/><path d="M101.377 37.485a3.7 3.7 0 1 1-7.4-.001 3.7 3.7 0 0 1 7.4 0Z" fill="#F9B42F"/><path d="M111.242 37.485a3.7 3.7 0 1 1-7.4 0 3.7 3.7 0 0 1 7.4 0Z" fill="#4DCB7B"/><path d="M198.437 105.612c0 17.465-14.158 31.623-31.623 31.623-17.465 0-31.624-14.158-31.624-31.623 0-17.465 14.159-31.623 31.624-31.623 17.465 0 31.623 14.158 31.623 31.623Z" fill="#2CC3D5"/><mask id="password__a" style="mask-type:alpha" maskUnits="userSpaceOnUse" x="135" y="73" width="64" height="65"><path d="M166.814 137.235c17.465 0 31.623-14.158 31.623-31.623 0-17.465-14.158-31.623-31.623-31.623-17.465 0-31.624 14.158-31.624 31.623 0 17.465 14.159 31.623 31.624 31.623Z" fill="#FF5A60"/></mask><g mask="url(#password__a)"><path fill-rule="evenodd" clip-rule="evenodd" d="M157.449 130.21a3.655 3.655 0 0 0-4.528-5.735l2.243 2.884c-2.243-2.884-2.245-2.882-2.246-2.881l-.003.002-.006.005-.013.01-.031.025a7.43 7.43 0 0 0-.293.248c-.169.151-.388.355-.645.617a19.218 19.218 0 0 0-1.901 2.291c-1.448 2.033-3.108 5.078-4.249 9.338a3.655 3.655 0 0 0 7.059 1.889c.902-3.371 2.17-5.625 3.14-6.985.487-.683.904-1.148 1.169-1.419a5.128 5.128 0 0 1 .304-.289Zm21.736-5.087a3.653 3.653 0 0 1 5.164-.168l-2.497 2.666a547.541 547.541 0 0 1 2.499-2.665l.007.006.009.009.024.023.063.061a15.96 15.96 0 0 1 .772.828c.473.542 1.096 1.32 1.772 2.329 1.35 2.017 2.923 4.979 3.891 8.839a3.654 3.654 0 0 1-7.087 1.779c-.728-2.902-1.903-5.1-2.875-6.553a16.178 16.178 0 0 0-1.21-1.595 8.712 8.712 0 0 0-.382-.413l-.003-.003.002.002.007.007.006.005.003.003.002.002a3.654 3.654 0 0 1-.167-5.162Z" fill="#F9B42F"/><path d="M153.515 126.364s-3.481 13.376-4.233 14.361l-.382.472c.478.04.958.006 1.425-.101l1.017-1.25 2.66-9.085-.487-4.397Zm29.232 1.592s3.143 11.595 3.91 12.58l.447.679a4.503 4.503 0 0 1-1.374-.309l-1.014-1.25-2.663-9.084.694-2.616Z" fill="#CB9733"/><path d="M186.159 142.352c-1.294-5.548-4.452-18.532-4.452-18.532 0-.636-3.866-.861-12.543-1.032v-.043l-1.258.018-1.261-.018v.043c-8.673.171-12.543.396-12.543 1.032 0 0-3.158 12.995-4.452 18.532-1.243 5.346 2.435 10.066 5.927 10.066h24.655c3.492 0 7.173-4.72 5.927-10.066Z" fill="#F9B42F"/><path d="M167.46 85.043c.56-.102 6.675-4.953 12.092 1.21 3.834 4.36.327 7.241 3.608 10.246 2.907 2.667 6.948 9.698 1.428 15.519-2.587 2.728 4.168 13.323-9.563 8.466-8.72-3.093-9.447-1.145-9.447-1.145l1.882-34.296Z" fill="#2C2A46"/><path d="M171.721 86.663s.294-2.576-3.765-4.171c-4.058-1.595-13.836.505-13.647 8.898.189 8.393-8.756 8.775-6.344 15.086 2.413 6.311-4.28 7.133 1.962 12.245 6.243 5.112 17.005 3.764 16.856-5.007-.149-8.771 4.938-27.051 4.938-27.051Z" fill="#2C2A46"/><path d="M167.857 127.717c2.016 0 3.651-1.347 3.651-3.008 0-1.662-1.635-3.009-3.651-3.009-2.017 0-3.652 1.347-3.652 3.009 0 1.661 1.635 3.008 3.652 3.008Z" fill="#EFB8C2"/><path d="M167.857 127.717c2.016 0 3.651-1.347 3.651-3.008 0-1.662-1.635-3.009-3.651-3.009-2.017 0-3.652 1.347-3.652 3.009 0 1.661 1.635 3.008 3.652 3.008Z" fill="#CB9685"/><path fill-rule="evenodd" clip-rule="evenodd" d="M167.857 121.883c-1.951 0-3.469 1.297-3.469 2.826 0 1.529 1.518 2.826 3.469 2.826 1.95 0 3.469-1.297 3.469-2.826 0-1.529-1.519-2.826-3.469-2.826Zm-3.835 2.826c0-1.794 1.752-3.191 3.835-3.191s3.834 1.397 3.834 3.191c0 1.794-1.751 3.191-3.834 3.191s-3.835-1.397-3.835-3.191Z" fill="#CB9685"/><path d="M168.158 116.066h-.592a11.01 11.01 0 0 1-2.387-.258v6.904a2.408 2.408 0 0 0 2.405 2.409h.556a2.396 2.396 0 0 0 1.709-.713c.223-.225.4-.493.52-.787.119-.295.179-.61.176-.928v-6.903c-.783.177-1.584.27-2.387.276Z" fill="#CB9685"/><path d="M165.186 117.686v1.987s.57-.977 2.674-.977 2.685 1.09 2.685 1.09v-2.405l-5.366-.099.007.404Z" fill="#BF7D68"/><path d="M179.321 94.58v11.911a11.162 11.162 0 0 1-3.265 7.901 11.159 11.159 0 0 1-7.901 3.265h-.592a11.171 11.171 0 0 1-11.166-11.159V94.58a11.166 11.166 0 0 1 11.166-11.165h.592a11.166 11.166 0 0 1 11.166 11.165Z" fill="#CB9685"/><path d="M156.674 103.384v5.108a1.735 1.735 0 0 1-1.708-1.74v-1.628a1.74 1.74 0 0 1 1.708-1.74Zm23.635 1.74v1.628a1.735 1.735 0 0 1-1.707 1.74v-5.108a1.736 1.736 0 0 1 1.707 1.74Z" fill="#CB9685"/><path d="M179.048 98.12s.211 3.658 0 5.064c-.21 1.407.843-5.065.843-5.065h-.843Z" fill="#160566"/><path d="M168.365 85.064a19.826 19.826 0 0 1 4.611-1.864 8.65 8.65 0 0 1 2.507-.221c.861.05 1.698.306 2.438.748a5.315 5.315 0 0 1 1.784 1.835l.342.527c.105.181.207.363.309.549.218.363.385.748.574 1.122.338.767.628 1.555.868 2.358.244.796.451 1.595.727 2.351a7.178 7.178 0 0 0 1.152 2.079c.542.605 1.129 1.17 1.755 1.69a16.844 16.844 0 0 1 1.707 1.849 11.21 11.21 0 0 1 1.337 2.143 7.74 7.74 0 0 1 .615 4.949 10.1 10.1 0 0 1-2.457 4.298 10.336 10.336 0 0 0 2.18-4.36 7.343 7.343 0 0 0-.726-4.694 9.8 9.8 0 0 0-.618-1.043c-.211-.363-.472-.658-.727-.981a16.339 16.339 0 0 0-1.682-1.762 16.339 16.339 0 0 1-1.817-1.737 7.654 7.654 0 0 1-1.25-2.231c-.29-.796-.494-1.602-.726-2.387a21.287 21.287 0 0 0-.825-2.3c-.175-.364-.334-.727-.538-1.09-.098-.178-.189-.364-.291-.534l-.323-.52a5.157 5.157 0 0 0-1.595-1.733 5.014 5.014 0 0 0-2.242-.767 8.622 8.622 0 0 0-2.42.138 14.34 14.34 0 0 0-2.369.654c-.781.273-1.526.633-2.3.934Z" fill="#2C2A46"/><path d="M171.822 87.938a3.492 3.492 0 0 0-1.199-2.594 7.635 7.635 0 0 0-2.503-1.53 8.653 8.653 0 0 0-2.86-.534 12.84 12.84 0 0 0-2.907.244 13.03 13.03 0 0 0-2.79.872 9.577 9.577 0 0 0-2.442 1.551 7.634 7.634 0 0 0-2.58 5c-.054.476-.065.952-.101 1.471a10.658 10.658 0 0 1-.226 1.508 8.877 8.877 0 0 1-1.202 2.802c-1.112 1.722-2.744 2.96-4.153 4.305a5.965 5.965 0 0 0-1.621 2.351 4.148 4.148 0 0 0-.171 1.414c.033.482.125.959.273 1.42.327.954.458 1.963.385 2.969a6.456 6.456 0 0 1-.316 1.453 13 13 0 0 1-.596 1.377 8.144 8.144 0 0 0 .77-2.841 7.273 7.273 0 0 0-.494-2.874 6.268 6.268 0 0 1-.338-1.486 4.46 4.46 0 0 1 .149-1.53 6.331 6.331 0 0 1 1.653-2.543c.702-.727 1.454-1.37 2.159-2.057a12.58 12.58 0 0 0 1.889-2.227 8.378 8.378 0 0 0 1.112-2.649c.101-.472.169-.95.203-1.432.03-.472.033-.988.091-1.497.119-1.014.42-2 .891-2.906a7.966 7.966 0 0 1 1.903-2.384 9.871 9.871 0 0 1 2.573-1.606 12.124 12.124 0 0 1 2.907-.861c.99-.177 1.997-.24 3.001-.185a8.671 8.671 0 0 1 2.943.632 7.785 7.785 0 0 1 2.485 1.671c.353.36.639.78.847 1.24.213.454.304.956.265 1.456Z" fill="#2C2A46"/><path d="M166.736 82.837c-8.721-1.421-12.499 9.912-11.991 12.517.269 1.355.727 3.579 1.09 5.399 0 0 1.054 6.468.843 5.062a9.846 9.846 0 0 1-.08-1.014 6.417 6.417 0 0 1 .465-2.616c.64-1.584 1.505-3.528 1.505-3.528s5.73.897 10.798-1.4c5.069-2.296 7.086-9.646 7.086-9.646s-.996-3.35-9.716-4.774Z" fill="#2C2A46"/><path d="M167.128 82.466c12.114-2.039 13.942 9.832 13.415 12.437-.527 2.605-1.537 10.148-1.537 10.148 0-1.031-1.13-8.357-1.959-9.61-4.204-6.402-9.919-12.975-9.919-12.975Z" fill="#2C2A46"/><path d="M176.374 87.608a16.93 16.93 0 0 1-.662 2.856 17.064 17.064 0 0 1-1.119 2.732c-.444.891-.986 1.73-1.617 2.5-.319.385-.662.749-1.028 1.09-.193.164-.389.323-.585.483-.098.08-.193.164-.298.236l-.32.204a15.666 15.666 0 0 1-5.57 2.038 19.92 19.92 0 0 1-2.932.302 17.17 17.17 0 0 1-2.929-.15 28.57 28.57 0 0 0 5.741-.726 20.86 20.86 0 0 0 2.736-.825c.226-.08.44-.178.662-.272.221-.094.439-.178.646-.29l.636-.32c.207-.113.393-.248.592-.364l.298-.181c.095-.066.182-.142.273-.215l.559-.461c.331-.335.68-.647.978-1.014a14.59 14.59 0 0 0 1.635-2.333 21.6 21.6 0 0 0 1.293-2.576 27.99 27.99 0 0 0 1.011-2.714Z" fill="#2C2A46"/></g><path fill-rule="evenodd" clip-rule="evenodd" d="M159.3 204.623h-30.755c-1.04 0-1.883.843-1.883 1.883v6.895c0 1.04.843 1.883 1.883 1.883H159.3c1.04 0 1.884-.843 1.884-1.883v-6.895c0-1.04-.844-1.883-1.884-1.883Zm-30.755-.628a2.51 2.51 0 0 0-2.511 2.511v6.895a2.51 2.51 0 0 0 2.511 2.511H159.3a2.51 2.51 0 0 0 2.511-2.511v-6.895a2.51 2.51 0 0 0-2.511-2.511h-30.755Z" fill="#2CC3D5"/><path d="M166.523 206.506a2.512 2.512 0 0 1 2.512-2.511h30.755a2.511 2.511 0 0 1 2.511 2.511v6.895a2.511 2.511 0 0 1-2.511 2.511h-30.755a2.512 2.512 0 0 1-2.512-2.511v-6.895Z" fill="#2CC3D5"/><path fill-rule="evenodd" clip-rule="evenodd" d="M225.884 187.305c0-.852.69-1.542 1.542-1.542h3.159a1.542 1.542 0 1 1 0 3.085h-3.159a1.542 1.542 0 0 1-1.542-1.543Zm9.477 0c0-.852.69-1.542 1.542-1.542h6.318a1.542 1.542 0 1 1 0 3.085h-6.318a1.542 1.542 0 0 1-1.542-1.543Zm12.635 0c0-.852.691-1.542 1.543-1.542h6.318a1.542 1.542 0 1 1 0 3.085h-6.318a1.543 1.543 0 0 1-1.543-1.543Zm12.636 0c0-.852.691-1.542 1.543-1.542h6.318a1.542 1.542 0 1 1 0 3.085h-6.318a1.543 1.543 0 0 1-1.543-1.543Zm12.636 0c0-.852.691-1.542 1.543-1.542h6.318a1.542 1.542 0 1 1 0 3.085h-6.318a1.543 1.543 0 0 1-1.543-1.543Zm12.636 0c0-.852.691-1.542 1.543-1.542h6.317a1.542 1.542 0 1 1 0 3.085h-6.317a1.543 1.543 0 0 1-1.543-1.543Zm12.636 0c0-.852.69-1.542 1.542-1.542h6.318a1.542 1.542 0 1 1 0 3.085h-6.318a1.542 1.542 0 0 1-1.542-1.543Zm12.636 0c0-.852.69-1.542 1.542-1.542h6.318a1.542 1.542 0 1 1 0 3.085h-6.318a1.542 1.542 0 0 1-1.542-1.543Zm12.636 0c0-.852.69-1.542 1.542-1.542h6.318a1.542 1.542 0 1 1 0 3.085h-6.318a1.542 1.542 0 0 1-1.542-1.543Zm12.635 0c0-.852.691-1.542 1.543-1.542h6.318a1.542 1.542 0 1 1 0 3.085h-6.318a1.543 1.543 0 0 1-1.543-1.543Zm12.636 0c0-.852.691-1.542 1.543-1.542h6.318a1.542 1.542 0 1 1 0 3.085h-6.318a1.543 1.543 0 0 1-1.543-1.543Zm12.636 0c0-.852.691-1.542 1.543-1.542h6.317a1.542 1.542 0 1 1 0 3.085h-6.317a1.543 1.543 0 0 1-1.543-1.543Zm12.636 0c0-.852.69-1.542 1.542-1.542h6.318a1.542 1.542 0 1 1 0 3.085h-6.318a1.542 1.542 0 0 1-1.542-1.543Zm12.636 0c0-.852.69-1.542 1.542-1.542h4.702v4.617a1.542 1.542 0 0 1-3.085 0v-1.532h-1.617a1.542 1.542 0 0 1-1.542-1.543Zm4.701 7.681c.852 0 1.543.691 1.543 1.543v6.149a1.542 1.542 0 0 1-3.085 0v-6.149c0-.852.69-1.543 1.542-1.543Zm0 12.298c.852 0 1.543.691 1.543 1.543v6.149a1.542 1.542 0 0 1-3.085 0v-6.149c0-.852.69-1.543 1.542-1.543Zm0 12.298c.852 0 1.543.691 1.543 1.543v6.149a1.542 1.542 0 0 1-3.085 0v-6.149c0-.852.69-1.543 1.542-1.543Zm0 12.298c.852 0 1.543.691 1.543 1.543v6.149a1.542 1.542 0 0 1-3.085 0v-6.149c0-.852.69-1.543 1.542-1.543Zm0 12.298c.852 0 1.543.691 1.543 1.543v6.149a1.542 1.542 0 0 1-3.085 0v-6.149c0-.852.69-1.543 1.542-1.543Zm0 12.298c.852 0 1.543.691 1.543 1.543v6.149a1.543 1.543 0 0 1-3.085 0v-6.149c0-.852.69-1.543 1.542-1.543Zm0 12.298c.852 0 1.543.691 1.543 1.543v6.149a1.543 1.543 0 0 1-3.085 0v-6.149c0-.852.69-1.543 1.542-1.543Zm0 12.298c.852 0 1.543.691 1.543 1.543v6.149a1.543 1.543 0 0 1-3.085 0v-6.149c0-.852.69-1.543 1.542-1.543Zm0 12.298c.852 0 1.543.691 1.543 1.543v6.148a1.543 1.543 0 0 1-3.085 0v-6.148c0-.852.69-1.543 1.542-1.543Zm0 12.298c.852 0 1.543.691 1.543 1.542v6.149a1.543 1.543 0 0 1-3.085 0v-6.149c0-.851.69-1.542 1.542-1.542Zm0 12.298c.852 0 1.543.691 1.543 1.542v6.149a1.543 1.543 0 0 1-3.085 0v-6.149c0-.851.69-1.542 1.542-1.542Zm0 12.298c.852 0 1.543.691 1.543 1.542v6.149a1.543 1.543 0 0 1-3.085 0v-6.149c0-.851.69-1.542 1.542-1.542Zm0 12.298c.852 0 1.543.69 1.543 1.542v6.149a1.543 1.543 0 0 1-3.085 0v-6.149c0-.852.69-1.542 1.542-1.542Zm0 12.298c.852 0 1.543.69 1.543 1.542v3.075a1.542 1.542 0 0 1-3.085 0v-3.075c0-.852.69-1.542 1.542-1.542Z" fill="#8CA0B3"/><path d="M440.884 185.548c0 27.653-22.417 50.071-50.07 50.071-27.654 0-50.071-22.418-50.071-50.071s22.417-50.07 50.071-50.07c27.653 0 50.07 22.417 50.07 50.07Z" fill="#2CC3D5"/><path opacity=".3" d="M311.249 352.533a8.663 8.663 0 0 1 8.663-8.663h155.341a8.662 8.662 0 0 1 8.663 8.663v103.541a8.663 8.663 0 0 1-8.663 8.663H319.912a8.664 8.664 0 0 1-8.663-8.663V352.533Z" fill="#C3EEF4"/><path opacity=".3" d="M321.116 364.866a8.663 8.663 0 0 1 8.663-8.663H485.12a8.662 8.662 0 0 1 8.663 8.663v103.541a8.663 8.663 0 0 1-8.663 8.663H329.779a8.664 8.664 0 0 1-8.663-8.663V364.866Z" fill="#C3EEF4"/><path d="M303.85 342.666a8.662 8.662 0 0 1 8.663-8.663h155.341a8.663 8.663 0 0 1 8.663 8.663v103.541a8.664 8.664 0 0 1-8.663 8.663H312.513a8.663 8.663 0 0 1-8.663-8.663V342.666Z" fill="#F8FBFB"/><path d="M303.85 342.666a8.662 8.662 0 0 1 8.663-8.663h155.341a8.663 8.663 0 0 1 8.663 8.663v18.47H303.85v-18.47Z" fill="#202C44"/><path d="M422.946 386.248v34.311a5.38 5.38 0 0 0 5.38 5.38h27.822a5.38 5.38 0 0 0 5.38-5.38v-34.311a5.38 5.38 0 0 0-5.38-5.38h-27.822a5.38 5.38 0 0 0-5.38 5.38Z" fill="#fff"/><path d="M442.226 404.442a7.266 7.266 0 1 0 0-14.532 7.266 7.266 0 0 0 0 14.532Z" fill="#F99B45"/><path fill-rule="evenodd" clip-rule="evenodd" d="M432.978 410.665c0-.716.58-1.297 1.296-1.297h15.919a1.297 1.297 0 0 1 0 2.593h-15.919c-.716 0-1.296-.58-1.296-1.296Zm2.739 6.235c0-.716.58-1.296 1.296-1.296h10.428a1.296 1.296 0 1 1 0 2.593h-10.428a1.297 1.297 0 0 1-1.296-1.297Z" fill="#D2DFE6"/><path d="M372.031 386.248v34.311a5.38 5.38 0 0 0 5.38 5.38h27.822a5.38 5.38 0 0 0 5.38-5.38v-34.311a5.38 5.38 0 0 0-5.38-5.38h-27.822a5.38 5.38 0 0 0-5.38 5.38Z" fill="#fff"/><path d="M391.311 404.442a7.266 7.266 0 1 0 0-14.532 7.266 7.266 0 0 0 0 14.532Z" fill="#2CC3D5"/><path fill-rule="evenodd" clip-rule="evenodd" d="M382.062 410.665c0-.716.581-1.297 1.297-1.297h15.919a1.297 1.297 0 0 1 0 2.593h-15.919c-.716 0-1.297-.58-1.297-1.296Zm2.74 6.235c0-.716.58-1.296 1.296-1.296h10.428a1.296 1.296 0 1 1 0 2.593h-10.428a1.297 1.297 0 0 1-1.296-1.297Z" fill="#D2DFE6"/><path d="M321.115 386.248v34.311a5.38 5.38 0 0 0 5.38 5.38h27.822a5.38 5.38 0 0 0 5.38-5.38v-34.311a5.38 5.38 0 0 0-5.38-5.38h-27.822a5.38 5.38 0 0 0-5.38 5.38Z" fill="#fff"/><path d="M340.396 404.442a7.266 7.266 0 1 0 0-14.532 7.266 7.266 0 0 0 0 14.532Z" fill="#BED42B"/><path fill-rule="evenodd" clip-rule="evenodd" d="M331.146 410.665c0-.716.581-1.297 1.297-1.297h15.919a1.297 1.297 0 0 1 0 2.593h-15.919c-.716 0-1.297-.58-1.297-1.296Zm2.74 6.235c0-.716.58-1.296 1.296-1.296h10.428a1.296 1.296 0 1 1 0 2.593h-10.428a1.297 1.297 0 0 1-1.296-1.297Z" fill="#D2DFE6"/><path d="M326.049 347.57a3.7 3.7 0 1 1-7.4 0 3.7 3.7 0 0 1 7.4 0Z" fill="#FF5A60"/><path d="M335.918 347.57a3.7 3.7 0 1 1-7.401-.001 3.7 3.7 0 0 1 7.401.001Z" fill="#F9B42F"/><path d="M345.783 347.57a3.7 3.7 0 1 1-7.401-.001 3.7 3.7 0 0 1 7.401.001Z" fill="#4DCB7B"/><path d="M389.697 159.195c-8.489 0-15.408 6.92-15.408 15.408v8.591c0 .784.616 1.401 1.401 1.401h5.603c.784 0 1.4-.617 1.4-1.401v-8.591a7.006 7.006 0 0 1 7.004-7.003 7.005 7.005 0 0 1 7.003 7.003v2.801c0 .785.616 1.401 1.401 1.401h5.603c.784 0 1.4-.616 1.4-1.401v-2.801c0-8.488-6.919-15.408-15.407-15.408Z" fill="#D2DFE6"/><path d="M389.699 159.195c8.488 0 15.407 6.92 15.407 15.408v8.591c0 .784-.616 1.401-1.4 1.401h-5.603a1.387 1.387 0 0 1-1.401-1.401v-8.591a7.005 7.005 0 0 0-7.003-7.003 7.006 7.006 0 0 0-7.004 7.003v2.801c0 .785-.616 1.401-1.4 1.401h-5.603a1.387 1.387 0 0 1-1.401-1.401v-2.801c0-8.488 6.92-15.408 15.408-15.408Z" fill="#D2DFE6"/><path d="M403.703 181.794h-28.014a4.197 4.197 0 0 0-4.202 4.203v16.808a4.197 4.197 0 0 0 4.202 4.202h28.014a4.196 4.196 0 0 0 4.202-4.202v-16.808a4.197 4.197 0 0 0-4.202-4.203Z" fill="#FFBE3F"/><path d="M393.899 191.599c0 1.821-1.176 3.361-2.801 3.95v4.454c0 .925-.701 1.401-1.401 1.401-.7 0-1.401-.476-1.401-1.401v-4.454c-1.624-.589-2.801-2.129-2.801-3.95a4.197 4.197 0 0 1 4.202-4.202 4.196 4.196 0 0 1 4.202 4.202Z" fill="#CB9733"/><path d="M413.585 205.083a7.231 7.231 0 0 1-7.232 7.231 7.231 7.231 0 1 1 0-14.463 7.232 7.232 0 0 1 7.232 7.232Z" fill="#fff"/><path d="M406.384 196.293a8.813 8.813 0 0 0-8.653 10.524 8.806 8.806 0 0 0 6.924 6.925 8.809 8.809 0 0 0 5.093-.5 8.809 8.809 0 0 0 5.443-8.139 8.813 8.813 0 0 0-2.582-6.224 8.827 8.827 0 0 0-6.225-2.586Zm4.599 7.504-4.937 4.658a1.563 1.563 0 0 1-2.122 0l-2.197-2.023a.842.842 0 0 1 .541-1.462.842.842 0 0 1 .606.224l2.096 1.932 4.859-4.57a.843.843 0 0 1 1.154 1.228v.013Z" fill="#BED42B"/><path d="M106.203 182.484a3.085 3.085 0 0 1 3.085-3.085h114.175a3.086 3.086 0 0 1 3.085 3.085v11.399a3.085 3.085 0 0 1-3.085 3.085H109.288a3.085 3.085 0 0 1-3.085-3.085v-11.399Z" fill="#E7EEF1"/><path d="M117.623 187.745a2.196 2.196 0 1 1-4.393 0 2.196 2.196 0 0 1 4.393 0Zm24.596 0a2.196 2.196 0 1 1-4.392 0 2.196 2.196 0 0 1 4.392 0Zm-12.299 0a2.196 2.196 0 1 1-4.392 0 2.196 2.196 0 0 1 4.392 0Zm24.596 0a2.196 2.196 0 1 1-4.392 0 2.196 2.196 0 0 1 4.392 0Zm-30.745 0a2.196 2.196 0 1 1-4.392 0 2.196 2.196 0 0 1 4.392 0Zm24.597 0a2.196 2.196 0 1 1-4.392 0 2.196 2.196 0 0 1 4.392 0Zm-12.298 0a2.196 2.196 0 1 1-4.392 0 2.196 2.196 0 0 1 4.392 0Zm24.596 0a2.196 2.196 0 1 1-4.393 0 2.196 2.196 0 0 1 4.393 0Z" fill="#2CC3D5"/><path d="M106.203 161.402a3.085 3.085 0 0 1 3.085-3.085h114.175a3.085 3.085 0 0 1 3.085 3.085v11.399a3.086 3.086 0 0 1-3.085 3.085H109.288a3.085 3.085 0 0 1-3.085-3.085v-11.399Z" fill="#E7EEF1"/><path fill-rule="evenodd" clip-rule="evenodd" d="M113.884 167.102c0-.852.69-1.543 1.542-1.543h46.996a1.543 1.543 0 0 1 0 3.085h-46.996c-.852 0-1.542-.69-1.542-1.542Z" fill="#8CA0B3"/></svg>