<svg width="500" height="501" viewBox="0 0 500 501" fill="none" xmlns="http://www.w3.org/2000/svg">
<path d="M270.521 127.323C268.629 127.039 266.833 126.755 264.941 126.566C260.212 125.999 256.618 122.026 256.524 117.297L255.861 9.8558C255.861 4.37024 260.401 0.0196196 265.887 0.397934C278.277 1.15456 290.572 2.85712 302.772 5.50532C308.069 6.64027 311.285 12.0312 309.866 17.233L281.114 120.513C279.885 125.053 275.25 128.079 270.521 127.323Z" fill="#072F73"/>
<path d="M423.833 70.1978C513.494 156.832 525.506 296.903 451.829 397.535C448.613 401.885 442.371 402.642 438.209 399.142L356.02 329.911C352.332 326.79 351.67 321.493 354.223 317.521C385.151 269.948 379.76 206.959 341.172 165.344C337.956 161.845 337.767 156.454 340.793 152.86L410.119 70.8598C413.619 66.6984 419.956 66.4147 423.833 70.1978Z" fill="url(#paint0_linear_223_31820)"/>
<path d="M335.781 14.9632C357.439 22.9078 378.247 33.8789 397.635 48.0657C401.986 51.2814 402.743 57.5235 399.243 61.6849L329.823 143.685C326.796 147.279 321.499 148.13 317.622 145.576C311.947 141.888 305.989 138.672 299.936 136.024C295.68 134.132 293.504 129.403 294.734 124.958L323.58 21.2999C324.999 16.0035 330.674 13.0716 335.781 14.9632Z" fill="url(#paint1_linear_223_31820)"/>
<path d="M335.403 340.692C301.827 372.092 250.944 385.049 198.642 363.674C170.458 352.136 148.042 329.531 136.598 301.252C102.266 216.226 158.635 135.078 236.852 126.471C241.202 125.998 244.418 122.404 244.418 118.053V8.90953C244.418 3.99144 240.257 0.113712 235.338 0.397448C105.198 8.1529 1.91842 115.5 0.499738 247.248C-1.01352 385.9 109.454 498.733 248.201 500.057C320.081 500.719 384.962 471.021 431.022 423.07C434.427 419.476 434.143 413.801 430.36 410.68L346.752 340.502C343.442 337.571 338.524 337.76 335.403 340.692Z" fill="url(#paint2_linear_223_31820)"/>
<defs>
<linearGradient id="paint0_linear_223_31820" x1="557.451" y1="438.403" x2="378.262" y2="179.178" gradientUnits="userSpaceOnUse">
<stop stop-color="#072F73"/>
<stop offset="0.0137421" stop-color="#073075"/>
<stop offset="0.2245" stop-color="#093D96"/>
<stop offset="0.4272" stop-color="#0B46AD"/>
<stop offset="0.6168" stop-color="#0C4CBB"/>
<stop offset="0.78" stop-color="#0C4EC0"/>
</linearGradient>
<linearGradient id="paint1_linear_223_31820" x1="357.686" y1="200.28" x2="343.715" y2="44.8395" gradientUnits="userSpaceOnUse">
<stop stop-color="#072F73"/>
<stop offset="0.0394147" stop-color="#08337C"/>
<stop offset="0.2513" stop-color="#0E46A5"/>
<stop offset="0.4582" stop-color="#1355C6"/>
<stop offset="0.656" stop-color="#165FDD"/>
<stop offset="0.8409" stop-color="#1866EB"/>
<stop offset="1" stop-color="#1968F0"/>
</linearGradient>
<linearGradient id="paint2_linear_223_31820" x1="-18.1759" y1="611.226" x2="239.393" y2="263.316" gradientUnits="userSpaceOnUse">
<stop offset="0.1482" stop-color="#072F73"/>
<stop offset="0.1536" stop-color="#073175"/>
<stop offset="0.258" stop-color="#05509E"/>
<stop offset="0.3654" stop-color="#0369BF"/>
<stop offset="0.4749" stop-color="#027DD9"/>
<stop offset="0.5874" stop-color="#018BEB"/>
<stop offset="0.7045" stop-color="#0093F6"/>
<stop offset="0.834" stop-color="#0096FA"/>
</linearGradient>
</defs>
</svg>
