<svg width="500" height="506" viewBox="0 0 500 506" fill="none" xmlns="http://www.w3.org/2000/svg"><g opacity=".1" filter="url(#send-ticket__a)"><path d="M433.908 474.799c0 8.331-82.339 15.086-183.908 15.086-101.57 0-183.908-6.755-183.908-15.086 0-8.332 82.338-15.087 183.908-15.087 101.569 0 183.908 6.755 183.908 15.087Z" fill="#0A0F1A"/></g><path d="M442.672 341.668c32.993-3.988 53.203-36.879 55.679-44.74 7.284-23.642-10.633-50.926-32.773-68.239-14.166-11.069-32.483-18.179-47.34-28.642-13.278-9.424-23.451-21.281-29.633-34.54-6.182-13.259-8.186-27.516-5.836-41.53 3.205-17.342 13.255-33.671 15.367-51.186s-7.283-38.353-28.914-43.353c-9.135-1.626-18.651-1.287-27.566.982-21.776 4.596-41.7 13.553-57.864 26.012-10.561 8.122-20.429 18.15-34.923 20.52-17.843 2.891-35.25-7.225-46.502-18.728-11.252-11.503-19.045-25.492-33.466-34.48-47.34-29.452-120.826-4.364-136.74 8.67-50.726 41.33-29.132 97.95-17.516 120.089 11.617 22.139 26.147 43.845 30.335 67.516 10.633 60.694-48.834 117.14-41.623 178.009.296 8.265 3.308 16.325 8.738 23.381 5.429 7.057 13.087 12.866 22.215 16.85 24.853 12.733 54.63 17.983 83.937 14.798 64.528-7.283 108.846-52.891 165.071-78.469 50.072-22.833 102.364-26.012 159.354-32.92Z" fill="#B9CBD3" style="mix-blend-mode:luminosity" opacity=".16"/><path fill-rule="evenodd" clip-rule="evenodd" d="m83.118 289.644-22.774-16.113c0-13.229 44.973-39.29 44.973-39.289l1.722 72.453-23.921-17.051Z" fill="#F5BD4D"/><path d="m408.862 273.624-61.88 43.847v-85.488s61.88 28.412 61.88 41.641Z" fill="#F5BD4D"/><path d="M221.012 425.796a15.233 15.233 0 0 1 18.034 11.776l44.41-9.338a27.492 27.492 0 0 0 21.236-32.6l-11.275-53.618a8.004 8.004 0 0 1-2.602 1.043 8.255 8.255 0 0 1-8.973-4.365 8.267 8.267 0 0 1-.258-6.918 8.262 8.262 0 0 1 8.624-5.02l-42.522-202.21a27.488 27.488 0 0 0-32.558-21.245l-44.41 9.339a15.224 15.224 0 0 1-11.766 18.032 15.228 15.228 0 0 1-18.033-11.766l-43.616 9.172a27.488 27.488 0 0 0-21.244 32.558l42.422 201.736a8.261 8.261 0 0 1 3.399 16.168l11.184 53.185a27.494 27.494 0 0 0 32.559 21.244l43.616-9.172a15.233 15.233 0 0 1 11.773-18.001Z" fill="#2CC3D5"/><path d="M280.952 336.196a8.263 8.263 0 0 1 6.455-9.346 8.237 8.237 0 0 1 2.801-.094l-42.522-202.21a27.488 27.488 0 0 0-32.558-21.245l-44.41 9.339a15.224 15.224 0 0 1-11.766 18.032 15.228 15.228 0 0 1-18.033-11.766l-43.616 9.172a27.488 27.488 0 0 0-21.244 32.558l42.422 201.736a8.261 8.261 0 0 1 9.672 5.955l152.799-32.131Z" fill="#F5F8F9"/><path opacity=".5" d="M241.541 363.744a1.48 1.48 0 0 1 1.752 1.142l6.84 32.532a1.478 1.478 0 1 1-2.894.608l-6.84-32.531a1.477 1.477 0 0 1 1.142-1.751Zm-9.009 1.893c.8-.168 1.584.343 1.752 1.143l6.841 32.531a1.479 1.479 0 0 1-2.894.608l-6.841-32.531a1.478 1.478 0 0 1 1.142-1.751Zm-9.009 1.895a1.478 1.478 0 0 1 1.751 1.143l6.841 32.531a1.479 1.479 0 0 1-2.894.609l-6.841-32.532a1.479 1.479 0 0 1 1.143-1.751Zm-9.009 1.894a1.478 1.478 0 0 1 1.751 1.143l6.841 32.531a1.478 1.478 0 1 1-2.894.609l-6.841-32.532a1.479 1.479 0 0 1 1.143-1.751Zm-9.01 1.895a1.478 1.478 0 0 1 1.751 1.143l6.841 32.531a1.478 1.478 0 1 1-2.894.609l-6.841-32.532a1.479 1.479 0 0 1 1.143-1.751Zm-9.008 1.894c.8-.168 1.584.343 1.752 1.143l6.84 32.531a1.48 1.48 0 0 1-2.894.609l-6.84-32.532a1.478 1.478 0 0 1 1.142-1.751Zm-9.009 1.895a1.479 1.479 0 0 1 1.751 1.143l6.841 32.531a1.479 1.479 0 0 1-2.894.609l-6.841-32.532a1.478 1.478 0 0 1 1.143-1.751Zm-9.009 1.894a1.479 1.479 0 0 1 1.751 1.143l6.841 32.531a1.479 1.479 0 0 1-2.894.609l-6.841-32.532a1.479 1.479 0 0 1 1.143-1.751Z" fill-rule="evenodd" clip-rule="evenodd" fill="#fff"/><path fill-rule="evenodd" clip-rule="evenodd" d="M227.642 159.126a2.2 2.2 0 0 1 2.606 1.7l7.335 34.883a2.2 2.2 0 1 1-4.306.905l-7.335-34.882a2.2 2.2 0 0 1 1.7-2.606Zm-13.384 2.815a2.2 2.2 0 0 1 2.606 1.7l13.521 64.3a2.2 2.2 0 0 1-4.306.906l-13.521-64.3a2.2 2.2 0 0 1 1.7-2.606Z" fill="#B9CBD3"/><path d="m223.439 148.767-.102-.485a11.586 11.586 0 0 0 6.214-12.779 11.589 11.589 0 0 0-10.834-9.194l-.1-.474a2.168 2.168 0 0 0-2.571-1.677l-3.98.837a2.17 2.17 0 0 0-1.677 2.57l.015.072-4.661.98a4.774 4.774 0 0 0-3.144 2.085 4.758 4.758 0 0 0-.642 3.718l.638 3.032a2.33 2.33 0 0 0-.628 2.134l.65 3.094a2.34 2.34 0 0 0 4.568-.961l-.65-3.093a2.342 2.342 0 0 0-1.816-1.772l-.607-2.887a2.582 2.582 0 0 1 2.101-3.219l5.692-1.197 4.238-.892a9.482 9.482 0 0 1 11.231 7.329 9.486 9.486 0 0 1-7.329 11.231l-4.227.889a1.057 1.057 0 0 0-.814 1.248l.24 1.145a2.178 2.178 0 0 0 2.571 1.677l3.949-.83a2.176 2.176 0 0 0 1.675-2.581Z" fill="#2CC3D5"/><path d="M224.813 136.505a8.067 8.067 0 0 0-6.404-6.28 8.071 8.071 0 1 0 .165 15.829 8.085 8.085 0 0 0 6.239-9.549Zm-9.268 7.128a4.88 4.88 0 0 1-2.707-1.369 4.883 4.883 0 0 1-1.379-2.703l-.059-.278a4.894 4.894 0 0 1 2.101-5.373c.676-.368.99-.413 1.031-.217.096 1.63.314 3.25.653 4.848l.037.175c.332 1.599.785 3.17 1.354 4.7.116.191-.22.284-.989.208l-.042.009Z" fill="#F9B42F"/><path fill-rule="evenodd" clip-rule="evenodd" d="M117.031 193.937a5.081 5.081 0 0 0 2.894-1.599 4.9 4.9 0 0 0 1.269-2.98 4.591 4.591 0 0 0 2.171 1.879 4.74 4.74 0 0 0 2.881.234 5.052 5.052 0 0 0 2.687-1.458 5.61 5.61 0 0 0 1.391-2.855 9.425 9.425 0 0 0-.091-3.814 11.37 11.37 0 0 0-1.206-3.224 9.45 9.45 0 0 0-2.013-2.559 2.169 2.169 0 0 0-.893-.512 2.239 2.239 0 0 0-1.073.021 2.346 2.346 0 0 0-1.375.784 1.494 1.494 0 0 0-.359 1.314c.051.24.146.468.282.673.126.188.318.439.58.761l.412.527c.359.444.691.91.993 1.395.271.437.464.917.568 1.42a2.474 2.474 0 0 1-.217 1.833 2.172 2.172 0 0 1-1.489.959 1.615 1.615 0 0 1-1.581-.399 4.436 4.436 0 0 1-.978-2.142l-.26-1.237a1.624 1.624 0 0 0-.865-1.197 2.337 2.337 0 0 0-2.815.592 1.628 1.628 0 0 0-.31 1.444l.366 1.742a4.276 4.276 0 0 1-.001 2.402 1.768 1.768 0 0 1-1.417 1.041c-.311.096-.64.116-.96.058a2.024 2.024 0 0 1-.877-.394 3.994 3.994 0 0 1-.982-2.162 5.372 5.372 0 0 1-.103-1.668c.08-.592.197-1.178.352-1.754.019-.13.046-.258.081-.383.008-.054.025-.103.04-.148.019-.057.036-.106.028-.146l.015-.055c.102-.373.182-.664.219-.878a1.913 1.913 0 0 0-.023-.727 1.472 1.472 0 0 0-.858-1.058 2.326 2.326 0 0 0-1.574-.164 2.02 2.02 0 0 0-1.561 1.233 9.32 9.32 0 0 0-.807 3.227c-.083 1.212.003 2.43.255 3.618a10.682 10.682 0 0 0 1.528 3.835 5.964 5.964 0 0 0 2.501 2.219c.997.444 2.112.55 3.175.302Zm-9.227-28.983c1.469-1.665 3.851-2.834 7.15-3.527 3.3-.694 5.93-.58 7.945.353a6.717 6.717 0 0 1 3.801 5.069 6.73 6.73 0 0 1-1.439 6.16c-1.463 1.678-3.838 2.86-7.126 3.544-3.287.684-5.942.568-7.965-.349a6.72 6.72 0 0 1-3.803-5.079 6.69 6.69 0 0 1-.06-3.267 6.692 6.692 0 0 1 1.497-2.904Zm4.342 6.979c1.655.156 3.325.017 4.931-.412a13.95 13.95 0 0 0 4.659-1.604 2.108 2.108 0 0 0-.816-3.877 14.181 14.181 0 0 0-4.918.421 14.324 14.324 0 0 0-4.681 1.598 2.11 2.11 0 0 0-.951 2.224 2.11 2.11 0 0 0 1.766 1.653l.01-.003Zm4.546-15.394-5.31.04.266 1.268a1.473 1.473 0 0 1-.226 1.178 1.54 1.54 0 0 1-1.002.663 1.432 1.432 0 0 1-1.122-.216 1.547 1.547 0 0 1-.65-.994l-.39-1.856-3.606.058a1.524 1.524 0 0 1-.937-.309 1.471 1.471 0 0 1-.523-.902c-.106-.43-.04-.885.185-1.266a1.455 1.455 0 0 1 .934-.681c.127-.041.259-.068.392-.082l2.814-.032-.514-2.444-3.601.025c-.338.017-.67-.09-.935-.299a1.42 1.42 0 0 1-.511-.84 1.634 1.634 0 0 1 .19-1.246 1.484 1.484 0 0 1 .938-.66c.128-.041.259-.068.392-.082l2.812-.042-.082-.392a1.495 1.495 0 0 1 .216-1.122c.218-.33.555-.562.94-.65a1.467 1.467 0 0 1 1.122.216c.326.221.555.558.64.942l.217 1.031 5.299-.091-.297-1.413a1.475 1.475 0 0 1 .216-1.176 1.571 1.571 0 0 1 1.01-.675c.193-.041.392-.041.585-.002.194.038.377.116.539.228a1.527 1.527 0 0 1 .64.996l.419 1.99 3.457-.048c.34-.005.672.108.939.319.274.216.458.527.517.871a1.593 1.593 0 0 1-.209 1.261 1.525 1.525 0 0 1-1.026.7c-.128.04-.259.067-.392.082l-2.41-.042.514 2.444 3.457-.049c.338-.021.672.085.935.299.279.231.466.555.525.912.106.43.039.885-.186 1.267a1.455 1.455 0 0 1-.933.681 1.938 1.938 0 0 1-.392.082l-2.732.014.046.217a1.5 1.5 0 0 1-.216 1.122 1.471 1.471 0 0 1-1.524.666 1.423 1.423 0 0 1-.539-.232 1.494 1.494 0 0 1-.639-.942l-.252-.787Zm-5.976-3.126 5.311-.04-.525-2.495-5.311.04.525 2.495Zm10.132 58.779c-1.33.28-2.172-.394-2.515-2.023l-.13-.619-.959.202a2.491 2.491 0 0 1-2.057-.31 2.63 2.63 0 0 1-1.033-1.689 2.59 2.59 0 0 1 .268-1.951 2.55 2.55 0 0 1 1.762-1.092l.959-.202-1.318-6.269a2.098 2.098 0 0 1 .282-1.728 2.208 2.208 0 0 1 1.421-.924c.67-.14 1.366-.06 1.986.229l13.168 5.629c.424.188.793.481 1.072.851.277.35.47.759.564 1.195.156.67.049 1.374-.297 1.968a2.42 2.42 0 0 1-1.726 1.16l-10.105 2.125.13.619c.336 1.598-.183 2.558-1.472 2.829Zm-.434-11.893.709 3.372 4.867-1.023-5.576-2.349Zm8.204 26.162a5.82 5.82 0 0 0 1.779-2.7 6.567 6.567 0 0 0 .142-3.421 7.38 7.38 0 0 0-1.09-2.678l3.433-.722 1.277 6.073c.345 1.639 1.187 2.313 2.486 2.04 1.299-.273 1.767-1.222 1.422-2.862l-1.832-8.713a2.444 2.444 0 0 0-.992-1.643 2.479 2.479 0 0 0-1.924-.241l-7.62 1.602a1.576 1.576 0 0 0-1.114.794 1.969 1.969 0 0 0-.186 1.417c.09.443.287.856.576 1.204.327.477.61.984.845 1.512.205.482.361.983.466 1.496a3.278 3.278 0 0 1-.24 2.344 2.561 2.561 0 0 1-1.804 1.197 2.497 2.497 0 0 1-2.149-.334 3.689 3.689 0 0 1-1.121-2.208 4.86 4.86 0 0 1-.08-1.609c.076-.511.19-1.095.347-1.731l.159-.626c.1-.303.183-.611.247-.924a2.113 2.113 0 0 0-.036-.735 1.469 1.469 0 0 0-.856-1.048 2.339 2.339 0 0 0-1.576-.174 2.1 2.1 0 0 0-.924.42c-.263.231-.478.51-.634.823a9.274 9.274 0 0 0-.796 3.182 11.848 11.848 0 0 0 .213 3.519 9.408 9.408 0 0 0 1.681 3.845 6.5 6.5 0 0 0 2.96 2.199 6.805 6.805 0 0 0 3.78.206 6.922 6.922 0 0 0 3.161-1.504Z" fill="#2CC3D5"/><path fill-rule="evenodd" clip-rule="evenodd" d="M149.773 305.911a2.2 2.2 0 0 1 2.606 1.7l7.335 34.882a2.2 2.2 0 0 1-4.306.906l-7.335-34.883a2.2 2.2 0 0 1 1.7-2.605Zm-19.57-26.603a2.2 2.2 0 0 1 2.605 1.7l13.521 64.3a2.199 2.199 0 1 1-4.305.905l-13.522-64.3a2.2 2.2 0 0 1 1.701-2.605Z" fill="#B9CBD3"/><g filter="url(#send-ticket__b)"><path d="M258.122 390.883a15.236 15.236 0 0 1 11.977 17.903l44.517 8.812a27.48 27.48 0 0 0 20.65-4.135 27.5 27.5 0 0 0 11.663-17.535l10.64-53.747a8.018 8.018 0 0 1-2.802-.06 8.263 8.263 0 0 1-1.063-15.871 8.27 8.27 0 0 1 6.893.634l40.125-202.7a27.487 27.487 0 0 0-21.628-32.304l-44.517-8.813a15.226 15.226 0 0 1-29.871-5.913L260.984 68.5a27.49 27.49 0 0 0-32.305 21.629l-40.031 202.224a8.258 8.258 0 0 1 6.5 9.707 8.263 8.263 0 0 1-9.708 6.5l-10.553 53.313a27.49 27.49 0 0 0 21.628 32.305l43.721 8.654a15.238 15.238 0 0 1 17.886-11.948Z" fill="#2CC3D5"/><path d="M348.382 331.942a8.261 8.261 0 0 1 9.601-6.07 8.25 8.25 0 0 1 2.614 1.012l40.125-202.7a27.487 27.487 0 0 0-21.628-32.304l-44.517-8.813a15.226 15.226 0 0 1-29.871-5.913L260.984 68.5a27.487 27.487 0 0 0-32.304 21.629l-40.032 202.224a8.26 8.26 0 0 1 6.565 9.269l153.169 30.321Z" fill="#F5F8F9"/><path opacity=".5" d="M301.328 341.841a1.477 1.477 0 0 1 1.163 1.737l-6.455 32.611a1.479 1.479 0 0 1-2.901-.575l6.455-32.61a1.479 1.479 0 0 1 1.738-1.163Zm-9.03-1.789a1.48 1.48 0 0 1 1.163 1.738l-6.455 32.61a1.479 1.479 0 0 1-2.901-.574l6.455-32.61a1.48 1.48 0 0 1 1.738-1.164Zm-9.033-1.787a1.479 1.479 0 0 1 1.164 1.737l-6.456 32.61a1.479 1.479 0 1 1-2.901-.574l6.456-32.61a1.477 1.477 0 0 1 1.737-1.163Zm-9.03-1.789a1.479 1.479 0 0 1 1.163 1.738l-6.455 32.61a1.478 1.478 0 1 1-2.901-.575l6.455-32.61a1.479 1.479 0 0 1 1.738-1.163Zm-9.032-1.788a1.479 1.479 0 0 1 1.163 1.738l-6.455 32.61a1.479 1.479 0 1 1-2.901-.574l6.455-32.61a1.48 1.48 0 0 1 1.738-1.164Zm-9.03-1.787a1.478 1.478 0 0 1 1.163 1.737l-6.455 32.611a1.479 1.479 0 0 1-2.901-.575l6.455-32.61a1.478 1.478 0 0 1 1.738-1.163Zm-9.031-1.788a1.48 1.48 0 0 1 1.164 1.738l-6.456 32.61a1.479 1.479 0 0 1-2.901-.574l6.456-32.61a1.479 1.479 0 0 1 1.737-1.164Zm-9.032-1.787a1.479 1.479 0 0 1 1.163 1.738l-6.455 32.61a1.478 1.478 0 1 1-2.901-.574l6.455-32.61a1.48 1.48 0 0 1 1.738-1.164Z" fill-rule="evenodd" clip-rule="evenodd" fill="#fff"/><path fill-rule="evenodd" clip-rule="evenodd" d="M368.729 148.144a2.2 2.2 0 0 1 1.73 2.585l-6.921 34.967a2.2 2.2 0 0 1-4.317-.855l6.922-34.966a2.2 2.2 0 0 1 2.586-1.731Zm-13.415-2.656a2.2 2.2 0 0 1 1.73 2.585l-12.759 64.456a2.2 2.2 0 0 1-4.316-.855l12.759-64.455a2.2 2.2 0 0 1 2.586-1.731Z" fill="#B9CBD3"/><path d="m368.923 136.966.096-.486a11.594 11.594 0 0 0 6.959-2.824 11.596 11.596 0 0 0-2.599-19.202l.095-.475a2.175 2.175 0 0 0-1.708-2.551l-3.99-.79a2.175 2.175 0 0 0-2.551 1.708l-.014.072-4.672-.924a4.752 4.752 0 0 0-3.71.685 4.764 4.764 0 0 0-2.047 3.169l-.602 3.039a2.335 2.335 0 0 0-1.414 1.718l-.614 3.101a2.341 2.341 0 0 0 1.866 2.594 2.337 2.337 0 0 0 2.713-1.688l.614-3.1a2.344 2.344 0 0 0-.976-2.342l.573-2.894a2.589 2.589 0 0 1 1.119-1.783 2.607 2.607 0 0 1 1-.399 2.598 2.598 0 0 1 1.075.043l5.706 1.13 4.248.841a9.479 9.479 0 0 1 7.461 11.143 9.484 9.484 0 0 1-11.144 7.461l-4.238-.838a1.05 1.05 0 0 0-1.238.829l-.227 1.147a2.178 2.178 0 0 0 1.708 2.551l3.958.783a2.171 2.171 0 0 0 2.553-1.718Z" fill="#2CC3D5"/><path d="M374.992 126.224a8.071 8.071 0 1 0-9.482 6.34 8.079 8.079 0 0 0 9.482-6.34Zm-11.32 2.926a4.895 4.895 0 0 1-2.164-5.348l.056-.279a4.889 4.889 0 0 1 1.348-2.717 4.891 4.891 0 0 1 2.689-1.403c.767-.074 1.073.008 1.034.204a32.665 32.665 0 0 0-1.299 4.716l-.034.176a32.358 32.358 0 0 0-.596 4.855c.031.221-.314.174-.993-.196l-.041-.008Z" fill="#F9B42F"/><path fill-rule="evenodd" clip-rule="evenodd" d="M253.325 136.821a5.077 5.077 0 0 0 3.289-.337 4.893 4.893 0 0 0 2.334-2.244 4.59 4.59 0 0 0 1.262 2.58 4.753 4.753 0 0 0 2.559 1.345c1.02.22 2.083.119 3.043-.289a5.606 5.606 0 0 0 2.399-2.082 9.43 9.43 0 0 0 1.411-3.544c.225-1.132.277-2.292.154-3.439a9.497 9.497 0 0 0-.849-3.144 2.184 2.184 0 0 0-.622-.821 2.249 2.249 0 0 0-.995-.401 2.353 2.353 0 0 0-1.572.183 1.495 1.495 0 0 0-.845 1.068 1.943 1.943 0 0 0-.005.729c.042.224.121.529.236.928l.172.646a14.1 14.1 0 0 1 .367 1.673 4.364 4.364 0 0 1-.034 1.529 2.476 2.476 0 0 1-.918 1.602 2.174 2.174 0 0 1-1.746.299 1.608 1.608 0 0 1-1.297-.988 4.414 4.414 0 0 1-.061-2.353l.246-1.24a1.627 1.627 0 0 0-.327-1.44 2.34 2.34 0 0 0-2.822-.559 1.629 1.629 0 0 0-.851 1.207l-.346 1.747a4.281 4.281 0 0 1-.942 2.208 1.76 1.76 0 0 1-1.712.402 2.006 2.006 0 0 1-1.558-1.028 3.997 3.997 0 0 1-.057-2.374 5.414 5.414 0 0 1 .559-1.575c.306-.513.644-1.006 1.012-1.476a2.98 2.98 0 0 1 .225-.321.781.781 0 0 1 .094-.12c.04-.044.075-.083.083-.124l.035-.044c.241-.303.428-.54.546-.721.13-.208.219-.438.263-.679a1.46 1.46 0 0 0-.374-1.309 2.325 2.325 0 0 0-1.384-.768 2.023 2.023 0 0 0-1.919.522 9.315 9.315 0 0 0-2.007 2.653 13.112 13.112 0 0 0-1.184 3.429 10.695 10.695 0 0 0-.097 4.127 5.971 5.971 0 0 0 1.432 3.022 4.996 4.996 0 0 0 2.803 1.521Zm2.869-30.28c2.004-.957 4.653-1.098 7.961-.443 3.307.654 5.682 1.79 7.171 3.438a6.706 6.706 0 0 1 1.51 6.153 6.738 6.738 0 0 1-3.739 5.103c-2.003.971-4.652 1.127-7.944.468-3.292-.658-5.689-1.806-7.192-3.442a6.715 6.715 0 0 1-1.508-6.164 6.687 6.687 0 0 1 3.741-5.113Zm1.26 8.123a14.037 14.037 0 0 0 4.698 1.553 13.95 13.95 0 0 0 4.914.349 2.1 2.1 0 0 0 1.747-1.673 2.108 2.108 0 0 0-.978-2.213 14.187 14.187 0 0 0-4.689-1.541 14.352 14.352 0 0 0-4.933-.364 2.112 2.112 0 0 0-1.607 2.934c.174.396.467.729.837.953l.011.002Zm10.215-12.381-4.901-2.045-.252 1.272a1.469 1.469 0 0 1-.669.995 1.55 1.55 0 0 1-1.182.217 1.423 1.423 0 0 1-.948-.639 1.527 1.527 0 0 1-.208-1.169l.368-1.86-3.34-1.36a1.529 1.529 0 0 1-.741-.651 1.476 1.476 0 0 1-.128-1.035c.071-.437.311-.83.667-1.092a1.452 1.452 0 0 1 1.126-.26c.133.012.265.038.393.077l2.601 1.073.485-2.45-3.323-1.388a1.4 1.4 0 0 1-.884-1.614 1.648 1.648 0 0 1 .664-1.071 1.466 1.466 0 0 1 1.121-.24c.133.012.265.038.393.078l2.604 1.063.077-.393c.079-.388.309-.729.639-.948.33-.217.731-.3 1.12-.23a1.468 1.468 0 0 1 .947.64c.214.33.292.73.219 1.117l-.204 1.033 4.911 1.993.281-1.416a1.465 1.465 0 0 1 .659-.997 1.583 1.583 0 0 1 1.194-.226 1.45 1.45 0 0 1 .946.65 1.526 1.526 0 0 1 .198 1.166l-.395 1.995 3.2 1.31a1.5 1.5 0 0 1 .739.662c.167.307.215.664.134 1.004a1.598 1.598 0 0 1-.686 1.078 1.53 1.53 0 0 1-1.219.242 2.103 2.103 0 0 1-.393-.078l-2.2-.983-.485 2.45 3.199 1.31c.32.113.585.341.743.641.167.322.211.693.126 1.045-.071.438-.311.83-.667 1.093a1.457 1.457 0 0 1-1.126.26 1.887 1.887 0 0 1-.393-.078l-2.518-1.057-.043.217a1.5 1.5 0 0 1-.639.948 1.472 1.472 0 0 1-1.663.016 1.412 1.412 0 0 1-.404-.425 1.496 1.496 0 0 1-.22-1.118l.077-.822Zm-4.273-5.218 4.901 2.044.496-2.5-4.902-2.045-.495 2.501Zm-13.714 58.047c-1.333-.264-1.843-1.213-1.52-2.846l.123-.62-.961-.191a2.503 2.503 0 0 1-1.771-1.091 2.622 2.622 0 0 1-.289-1.959 2.59 2.59 0 0 1 1.011-1.69 2.564 2.564 0 0 1 2.049-.314l.961.19 1.244-6.284a2.11 2.11 0 0 1 .938-1.479 2.21 2.21 0 0 1 1.669-.293c.671.133 1.28.48 1.737.988l9.909 10.34c.316.339.541.753.653 1.203.117.431.134.882.05 1.321a2.697 2.697 0 0 1-1.044 1.694 2.431 2.431 0 0 1-2.043.39l-10.13-2.005-.122.62c-.317 1.603-1.172 2.282-2.464 2.026Zm4.262-11.111-.669 3.38 4.879.966-4.21-4.346Zm-2.704 27.284a5.816 5.816 0 0 0 2.695-1.787 6.571 6.571 0 0 0 1.471-3.092 7.365 7.365 0 0 0 .046-2.891l3.442.682-1.205 6.088c-.325 1.643.185 2.593 1.487 2.85 1.302.258 2.105-.432 2.43-2.075l1.729-8.734a2.434 2.434 0 0 0-.268-1.9 2.492 2.492 0 0 0-1.676-.977l-7.638-1.512a1.57 1.57 0 0 0-1.336.294 1.967 1.967 0 0 0-.727 1.231c-.091.443-.071.9.058 1.333.114.568.176 1.144.185 1.723a7.77 7.77 0 0 1-.158 1.558 3.276 3.276 0 0 1-1.139 2.063 2.557 2.557 0 0 1-1.021.432 2.558 2.558 0 0 1-1.108-.037 2.505 2.505 0 0 1-1.846-1.15 3.692 3.692 0 0 1-.166-2.471c.1-.531.289-1.042.557-1.512.27-.44.604-.933.998-1.456l.391-.514c.211-.239.408-.49.59-.753a2.1 2.1 0 0 0 .254-.691 1.471 1.471 0 0 0-.376-1.299 2.344 2.344 0 0 0-1.382-.778 2.113 2.113 0 0 0-1.015.025 2.695 2.695 0 0 0-.906.508 9.275 9.275 0 0 0-1.978 2.616 11.846 11.846 0 0 0-1.184 3.321 9.42 9.42 0 0 0 .039 4.196 6.502 6.502 0 0 0 1.862 3.183 6.8 6.8 0 0 0 3.396 1.671 6.931 6.931 0 0 0 3.499-.145Z" fill="#2CC3D5"/><path fill-rule="evenodd" clip-rule="evenodd" d="M239.564 252.67a2.2 2.2 0 0 1 1.731 2.585l-6.921 34.967a2.2 2.2 0 0 1-4.317-.854l6.922-34.967a2.2 2.2 0 0 1 2.585-1.731Zm-7.58-32.145a2.2 2.2 0 0 1 1.731 2.586l-12.759 64.455a2.2 2.2 0 1 1-4.316-.854l12.759-64.456a2.2 2.2 0 0 1 2.585-1.731Z" fill="#B9CBD3"/></g><path d="m363.888 305.394-22.486 15.91-75.079 53.111h-63.419l-75.101-53.111-22.486-15.91-44.973-31.82v179.274c0 6.739 3.052 12.714 7.773 16.807h-.022c.022.022.045.022.066.044 3.668 3.152 8.279 5.209 13.418 5.449h306.267c2.591-.109 4.942-.788 7.203-1.685h.11c8.081-3.348 13.702-11.314 13.702-20.615V273.574l-44.973 31.82Z" fill="#FFD27A"/><path d="m266.303 374.372-27.485-19.232a5.609 5.609 0 0 0-4.214-1.903c-1.68 0-3.184.739-4.214 1.903h-.007l-27.367 19.232h-.11l-134.81 95.24c3.602 3.129 8.323 5.143 13.484 5.493h306.268c2.591-.11 4.941-.788 7.202-1.685h.11c2.13-1.008 4.15-2.254 5.951-3.808l-134.808-95.24Z" fill="#FFD686"/><defs><filter id="send-ticket__a" x="50.092" y="443.712" width="399.816" height="62.172" filterUnits="userSpaceOnUse" color-interpolation-filters="sRGB"><feFlood flood-opacity="0" result="BackgroundImageFix"/><feBlend in="SourceGraphic" in2="BackgroundImageFix" result="shape"/><feGaussianBlur stdDeviation="8" result="effect1_foregroundBlur_10272_1678"/></filter><filter id="send-ticket__b" x="166.363" y="61.976" width="242.883" height="366.146" filterUnits="userSpaceOnUse" color-interpolation-filters="sRGB"><feFlood flood-opacity="0" result="BackgroundImageFix"/><feColorMatrix in="SourceAlpha" values="0 0 0 0 0 0 0 0 0 0 0 0 0 0 0 0 0 0 127 0" result="hardAlpha"/><feOffset dy="2"/><feGaussianBlur stdDeviation="4"/><feColorMatrix values="0 0 0 0 0.027451 0 0 0 0 0.278431 0 0 0 0 0.65098 0 0 0 0.15 0"/><feBlend in2="BackgroundImageFix" result="effect1_dropShadow_10272_1678"/><feBlend in="SourceGraphic" in2="effect1_dropShadow_10272_1678" result="shape"/></filter></defs></svg>