<svg width="500" height="508" viewBox="0 0 500 508" fill="none" xmlns="http://www.w3.org/2000/svg">
<g opacity="0.1" filter="url(#filter0_f_10272_1678)">
<path d="M433.908 476.798C433.908 485.13 351.569 491.884 250 491.884C148.43 491.884 66.0918 485.13 66.0918 476.798C66.0918 468.466 148.43 461.712 250 461.712C351.569 461.712 433.908 468.466 433.908 476.798Z" fill="#0A0F1A"/>
</g>
<path d="M265.154 2.90161C139.592 -15.2694 23.0725 71.7886 4.90147 197.351C-13.2696 322.914 73.7885 439.433 199.351 457.604C324.914 475.775 441.433 388.717 459.604 263.154C477.775 137.592 390.717 21.0726 265.154 2.90161Z" fill="#B2DFFD" fill-opacity="0.5"/>
<path fill-rule="evenodd" clip-rule="evenodd" d="M83.1181 291.644L60.3442 275.531C60.3442 262.302 105.317 236.241 105.317 236.241V236.242C105.318 236.242 105.318 236.241 105.318 236.241L107.04 308.695L83.1181 291.644Z" fill="#0D4FC1"/>
<path d="M408.863 275.623L346.983 319.471V233.983C346.983 233.983 408.863 262.395 408.863 275.623Z" fill="#0D4FC1"/>
<path d="M221.013 427.795C224.966 426.967 229.086 427.742 232.468 429.95C235.85 432.159 238.216 435.62 239.047 439.572L283.457 430.233C286.993 429.49 290.348 428.056 293.33 426.015C296.312 423.973 298.862 421.364 300.834 418.336C302.806 415.309 304.162 411.922 304.825 408.369C305.487 404.817 305.442 401.169 304.693 397.634L293.418 344.016C292.619 344.514 291.738 344.867 290.816 345.058C289.644 345.291 288.435 345.266 287.273 344.986C286.111 344.706 285.024 344.177 284.087 343.436C283.149 342.695 282.383 341.759 281.843 340.694C281.302 339.628 280.999 338.457 280.954 337.263C280.91 336.069 281.125 334.879 281.585 333.776C282.045 332.673 282.739 331.683 283.619 330.874C284.499 330.065 285.543 329.457 286.681 329.091C287.819 328.725 289.023 328.611 290.209 328.756L247.687 126.545C246.187 119.411 241.914 113.164 235.808 109.18C229.702 105.196 222.263 103.8 215.129 105.301L170.719 114.639C171.55 118.591 170.777 122.711 168.57 126.093C166.364 129.474 162.904 131.841 158.953 132.672C155.001 133.503 150.881 132.73 147.499 130.524C144.118 128.317 141.751 124.857 140.92 120.906L97.3041 130.078C90.1694 131.578 83.9229 135.851 79.9388 141.957C75.9546 148.063 74.5593 155.501 76.0596 162.636L118.482 364.372C120.626 363.921 122.861 364.341 124.696 365.538C126.53 366.735 127.815 368.612 128.265 370.756C128.716 372.9 128.297 375.135 127.1 376.97C125.902 378.805 124.025 380.089 121.881 380.54L133.065 433.724C134.566 440.859 138.839 447.106 144.945 451.09C151.051 455.074 158.489 456.469 165.624 454.969L209.24 445.797C208.421 441.849 209.2 437.738 211.407 434.364C213.614 430.99 217.068 428.628 221.013 427.795Z" fill="#072F73"/>
<path d="M280.953 338.196C280.63 336.108 281.119 333.976 282.319 332.237C283.52 330.499 285.341 329.286 287.408 328.849C288.329 328.659 289.277 328.627 290.209 328.756L247.687 126.545C246.187 119.411 241.914 113.164 235.808 109.18C229.702 105.196 222.263 103.8 215.129 105.301L170.719 114.639C171.55 118.591 170.777 122.711 168.57 126.093C166.364 129.474 162.904 131.841 158.953 132.672C155.001 133.503 150.881 132.73 147.499 130.524C144.118 128.317 141.751 124.857 140.92 120.906L97.3042 130.078C90.1694 131.578 83.9229 135.851 79.9388 141.957C75.9546 148.063 74.5593 155.501 76.0596 162.636L118.482 364.372C120.55 363.94 122.705 364.316 124.504 365.424C126.303 366.531 127.609 368.286 128.154 370.327L280.953 338.196Z" fill="#F5F8F9"/>
<g opacity="0.5">
<path opacity="0.5" fill-rule="evenodd" clip-rule="evenodd" d="M241.542 365.744C242.341 365.576 243.125 366.088 243.294 366.887L250.134 399.418C250.302 400.217 249.791 401.001 248.992 401.169C248.193 401.337 247.408 400.826 247.24 400.027L240.4 367.495C240.231 366.696 240.743 365.912 241.542 365.744Z" fill="white"/>
<path opacity="0.5" fill-rule="evenodd" clip-rule="evenodd" d="M232.532 367.637C233.332 367.469 234.116 367.98 234.284 368.78L241.125 401.311C241.293 402.11 240.781 402.894 239.982 403.062C239.183 403.23 238.399 402.719 238.231 401.919L231.39 369.388C231.222 368.589 231.733 367.805 232.532 367.637Z" fill="white"/>
<path opacity="0.5" fill-rule="evenodd" clip-rule="evenodd" d="M223.523 369.532C224.322 369.364 225.106 369.875 225.274 370.674L232.115 403.206C232.283 404.005 231.772 404.789 230.973 404.957C230.173 405.125 229.389 404.613 229.221 403.814L222.38 371.283C222.212 370.484 222.724 369.7 223.523 369.532Z" fill="white"/>
<path opacity="0.5" fill-rule="evenodd" clip-rule="evenodd" d="M214.514 371.426C215.313 371.258 216.097 371.769 216.265 372.569L223.106 405.1C223.274 405.899 222.763 406.683 221.963 406.851C221.164 407.019 220.38 406.508 220.212 405.709L213.371 373.177C213.203 372.378 213.715 371.594 214.514 371.426Z" fill="white"/>
<path opacity="0.5" fill-rule="evenodd" clip-rule="evenodd" d="M205.505 373.321C206.304 373.153 207.088 373.664 207.256 374.463L214.097 406.995C214.265 407.794 213.753 408.578 212.954 408.746C212.155 408.914 211.371 408.403 211.203 407.603L204.362 375.072C204.194 374.273 204.705 373.489 205.505 373.321Z" fill="white"/>
<path opacity="0.5" fill-rule="evenodd" clip-rule="evenodd" d="M196.497 375.215C197.296 375.047 198.08 375.558 198.248 376.358L205.089 408.889C205.257 409.688 204.745 410.472 203.946 410.64C203.147 410.808 202.363 410.297 202.195 409.498L195.354 376.966C195.186 376.167 195.698 375.383 196.497 375.215Z" fill="white"/>
<path opacity="0.5" fill-rule="evenodd" clip-rule="evenodd" d="M187.488 377.11C188.287 376.942 189.071 377.453 189.239 378.252L196.08 410.784C196.248 411.583 195.736 412.367 194.937 412.535C194.138 412.703 193.354 412.192 193.186 411.392L186.345 378.861C186.177 378.062 186.688 377.278 187.488 377.11Z" fill="white"/>
<path opacity="0.5" fill-rule="evenodd" clip-rule="evenodd" d="M178.478 379.004C179.277 378.836 180.062 379.348 180.23 380.147L187.07 412.678C187.238 413.477 186.727 414.261 185.928 414.429C185.129 414.597 184.344 414.086 184.176 413.287L177.336 380.755C177.168 379.956 177.679 379.172 178.478 379.004Z" fill="white"/>
</g>
<path fill-rule="evenodd" clip-rule="evenodd" d="M227.643 161.126C228.832 160.876 229.999 161.637 230.249 162.826L237.584 197.709C237.834 198.898 237.073 200.064 235.884 200.314C234.695 200.564 233.528 199.803 233.278 198.614L225.943 163.732C225.693 162.543 226.454 161.376 227.643 161.126Z" fill="#B9CBD3"/>
<path fill-rule="evenodd" clip-rule="evenodd" d="M214.259 163.941C215.448 163.69 216.615 164.452 216.865 165.641L230.386 229.941C230.636 231.13 229.875 232.296 228.686 232.546C227.497 232.796 226.33 232.035 226.08 230.846L212.559 166.546C212.309 165.357 213.07 164.191 214.259 163.941Z" fill="#B9CBD3"/>
<path d="M223.44 150.767L223.338 150.282C225.645 149.144 227.508 147.27 228.633 144.956C229.758 142.643 230.081 140.021 229.552 137.503C229.023 134.985 227.671 132.716 225.709 131.051C223.748 129.386 221.288 128.422 218.718 128.309L218.618 127.835C218.5 127.271 218.162 126.778 217.68 126.464C217.198 126.149 216.611 126.039 216.047 126.157L212.067 126.994C211.504 127.113 211.011 127.45 210.696 127.932C210.382 128.414 210.271 129.002 210.39 129.565L210.405 129.637L205.744 130.617C205.106 130.732 204.498 130.976 203.957 131.335C203.416 131.693 202.954 132.159 202.6 132.702C202.245 133.245 202.005 133.855 201.895 134.495C201.785 135.134 201.806 135.789 201.958 136.42L202.596 139.452C202.322 139.727 202.121 140.067 202.012 140.439C201.902 140.812 201.887 141.206 201.968 141.586L202.618 144.68C202.779 145.251 203.151 145.739 203.658 146.047C204.165 146.354 204.771 146.457 205.351 146.335C205.932 146.213 206.444 145.875 206.785 145.389C207.125 144.903 207.269 144.306 207.186 143.719L206.536 140.626C206.435 140.187 206.211 139.787 205.889 139.472C205.567 139.158 205.161 138.943 204.72 138.854L204.113 135.967C204.019 135.617 204 135.25 204.057 134.892C204.114 134.534 204.246 134.192 204.445 133.888C204.643 133.584 204.903 133.326 205.208 133.129C205.513 132.933 205.855 132.802 206.214 132.747L211.906 131.55L216.143 130.659C218.605 130.142 221.171 130.623 223.277 131.997C225.383 133.372 226.857 135.527 227.375 137.988C227.892 140.449 227.411 143.015 226.037 145.121C224.662 147.228 222.508 148.702 220.046 149.219L215.819 150.108C215.545 150.166 215.306 150.329 215.153 150.563C215.001 150.798 214.947 151.083 215.005 151.356L215.245 152.501C215.366 153.063 215.704 153.554 216.186 153.868C216.667 154.182 217.253 154.294 217.816 154.178L221.765 153.348C222.045 153.289 222.31 153.175 222.546 153.013C222.782 152.852 222.983 152.645 223.139 152.405C223.295 152.165 223.402 151.897 223.453 151.616C223.505 151.335 223.501 151.046 223.44 150.767Z" fill="#0096FA"/>
<path d="M224.814 138.505C224.487 136.942 223.705 135.511 222.565 134.393C221.424 133.275 219.978 132.52 218.409 132.224C216.84 131.928 215.219 132.104 213.75 132.73C212.281 133.356 211.03 134.404 210.157 135.74C209.284 137.077 208.826 138.643 208.843 140.24C208.86 141.836 209.349 143.392 210.251 144.71C211.152 146.028 212.424 147.05 213.905 147.645C215.387 148.24 217.012 148.382 218.574 148.054C220.666 147.611 222.497 146.358 223.666 144.568C224.836 142.778 225.248 140.598 224.814 138.505ZM215.546 145.633C214.521 145.475 213.573 144.996 212.838 144.264C212.103 143.532 211.621 142.585 211.459 141.561L211.401 141.282C211.138 140.28 211.199 139.219 211.576 138.254C211.954 137.288 212.628 136.468 213.501 135.909C214.177 135.541 214.491 135.497 214.532 135.693C214.628 137.323 214.847 138.943 215.186 140.54L215.222 140.716C215.555 142.314 216.007 143.885 216.577 145.416C216.692 145.607 216.357 145.699 215.587 145.624L215.546 145.633Z" fill="#F9B42F"/>
<path fill-rule="evenodd" clip-rule="evenodd" d="M117.033 195.937C118.149 195.741 119.167 195.178 119.927 194.337C120.675 193.517 121.122 192.466 121.195 191.357C121.699 192.2 122.461 192.859 123.367 193.237C124.28 193.612 125.286 193.694 126.248 193.471C127.272 193.274 128.211 192.764 128.934 192.013C129.664 191.215 130.147 190.223 130.326 189.157C130.556 187.893 130.525 186.595 130.234 185.344C129.998 184.214 129.592 183.127 129.029 182.119C128.51 181.157 127.829 180.291 127.016 179.56C126.763 179.321 126.456 179.145 126.122 179.048C125.768 178.969 125.4 178.976 125.05 179.069C124.514 179.164 124.029 179.441 123.675 179.854C123.515 180.029 123.4 180.239 123.337 180.467C123.275 180.696 123.268 180.936 123.316 181.167C123.366 181.408 123.462 181.636 123.597 181.84C123.723 182.029 123.916 182.279 124.177 182.601L124.59 183.128C124.948 183.573 125.28 184.039 125.583 184.524C125.854 184.96 126.046 185.441 126.151 185.944C126.317 186.56 126.239 187.217 125.933 187.777C125.766 188.033 125.548 188.25 125.291 188.415C125.035 188.581 124.746 188.69 124.445 188.736C124.169 188.816 123.878 188.821 123.6 188.751C123.322 188.681 123.068 188.537 122.864 188.336C122.35 187.724 122.012 186.984 121.886 186.195L121.626 184.957C121.586 184.704 121.487 184.463 121.337 184.255C121.187 184.047 120.989 183.878 120.76 183.761C120.292 183.532 119.761 183.466 119.251 183.573C118.741 183.681 118.282 183.955 117.946 184.353C117.783 184.552 117.671 184.787 117.617 185.038C117.563 185.288 117.569 185.549 117.635 185.797L118.002 187.539C118.231 188.323 118.23 189.156 118.001 189.94C117.876 190.222 117.679 190.467 117.43 190.649C117.182 190.832 116.89 190.947 116.583 190.981C116.273 191.078 115.943 191.098 115.624 191.04C115.304 190.981 115.003 190.846 114.747 190.646C114.208 190.042 113.865 189.288 113.764 188.484C113.644 187.936 113.609 187.374 113.661 186.815C113.741 186.224 113.859 185.638 114.014 185.062C114.032 184.932 114.059 184.804 114.095 184.678C114.102 184.625 114.119 184.576 114.134 184.531C114.154 184.474 114.171 184.425 114.162 184.384L114.177 184.33C114.28 183.956 114.359 183.665 114.397 183.452C114.435 183.21 114.427 182.964 114.373 182.725C114.326 182.492 114.224 182.274 114.075 182.09C113.925 181.906 113.733 181.761 113.515 181.667C113.026 181.43 112.469 181.372 111.941 181.503C111.597 181.556 111.272 181.698 110.999 181.914C110.726 182.13 110.513 182.413 110.381 182.735C109.92 183.754 109.647 184.847 109.574 185.963C109.49 187.175 109.576 188.393 109.828 189.581C110.084 190.946 110.603 192.249 111.356 193.416C111.962 194.379 112.83 195.149 113.858 195.635C114.855 196.079 115.97 196.185 117.033 195.937ZM107.806 166.954C109.275 165.288 111.656 164.12 114.956 163.426C118.255 162.732 120.885 162.847 122.901 163.78C123.903 164.246 124.774 164.953 125.437 165.838C126.1 166.722 126.534 167.756 126.702 168.849C126.985 169.915 127.001 171.034 126.75 172.108C126.499 173.182 125.988 174.178 125.262 175.009C123.799 176.687 121.424 177.869 118.137 178.553C114.849 179.237 112.194 179.12 110.171 178.203C109.168 177.736 108.295 177.028 107.632 176.142C106.968 175.256 106.534 174.219 106.368 173.124C106.078 172.057 106.058 170.935 106.309 169.858C106.56 168.781 107.074 167.783 107.806 166.954ZM112.148 173.933C113.803 174.089 115.472 173.949 117.079 173.521C118.714 173.267 120.292 172.723 121.737 171.917C122.105 171.689 122.393 171.353 122.564 170.955C122.734 170.557 122.777 170.116 122.688 169.693C122.599 169.269 122.382 168.883 122.066 168.587C121.75 168.292 121.35 168.101 120.922 168.04C119.271 167.891 117.606 168.034 116.004 168.46C114.362 168.718 112.778 169.259 111.322 170.058C110.955 170.287 110.666 170.623 110.496 171.02C110.326 171.418 110.282 171.859 110.371 172.283C110.46 172.706 110.678 173.092 110.994 173.388C111.31 173.683 111.709 173.875 112.138 173.935L112.148 173.933ZM116.694 158.538L111.383 158.578L111.65 159.847C111.697 160.048 111.701 160.257 111.662 160.46C111.623 160.663 111.542 160.855 111.424 161.025C111.31 161.197 111.162 161.344 110.99 161.458C110.818 161.572 110.625 161.65 110.422 161.688C110.23 161.731 110.031 161.734 109.838 161.697C109.645 161.66 109.462 161.583 109.3 161.471C109.131 161.357 108.986 161.211 108.875 161.04C108.763 160.869 108.687 160.678 108.649 160.478L108.259 158.622L104.654 158.68C104.316 158.684 103.986 158.575 103.717 158.371C103.438 158.144 103.252 157.823 103.193 157.469C103.087 157.039 103.154 156.584 103.379 156.203C103.48 156.031 103.615 155.882 103.775 155.765C103.936 155.648 104.119 155.565 104.312 155.522C104.44 155.481 104.571 155.453 104.704 155.439L107.519 155.407L107.005 152.964L103.403 152.989C103.066 153.005 102.734 152.899 102.468 152.69C102.203 152.48 102.023 152.182 101.958 151.85C101.906 151.64 101.896 151.422 101.929 151.208C101.961 150.994 102.036 150.789 102.148 150.604C102.252 150.437 102.389 150.293 102.55 150.179C102.711 150.066 102.893 149.986 103.086 149.944C103.213 149.903 103.344 149.876 103.478 149.862L106.29 149.819L106.207 149.427C106.128 149.04 106.206 148.636 106.423 148.305C106.642 147.976 106.978 147.743 107.364 147.655C107.556 147.614 107.754 147.612 107.947 147.65C108.139 147.687 108.323 147.762 108.486 147.872C108.812 148.092 109.04 148.43 109.125 148.814L109.342 149.845L114.642 149.753L114.345 148.341C114.297 148.141 114.291 147.933 114.328 147.73C114.365 147.528 114.444 147.335 114.56 147.165C114.676 146.991 114.825 146.842 114.998 146.726C115.171 146.61 115.366 146.53 115.57 146.49C115.763 146.449 115.963 146.448 116.156 146.487C116.349 146.526 116.533 146.604 116.695 146.716C116.862 146.831 117.005 146.979 117.115 147.15C117.225 147.321 117.3 147.512 117.335 147.712L117.753 149.702L121.21 149.653C121.551 149.649 121.882 149.762 122.149 149.973C122.424 150.189 122.608 150.5 122.666 150.844C122.721 151.057 122.73 151.279 122.694 151.496C122.658 151.713 122.578 151.92 122.458 152.104C122.345 152.287 122.196 152.443 122.019 152.564C121.842 152.684 121.642 152.766 121.431 152.805C121.304 152.845 121.172 152.872 121.04 152.887L118.63 152.845L119.143 155.289L122.6 155.24C122.938 155.219 123.272 155.325 123.535 155.539C123.814 155.77 124.001 156.094 124.061 156.451C124.167 156.881 124.1 157.336 123.875 157.717C123.774 157.889 123.639 158.037 123.479 158.155C123.318 158.272 123.135 158.355 122.941 158.398C122.814 158.439 122.683 158.467 122.55 158.481L119.818 158.495L119.863 158.712C119.943 159.1 119.865 159.503 119.647 159.834C119.543 160.001 119.406 160.146 119.245 160.259C119.084 160.372 118.902 160.452 118.709 160.494C118.516 160.537 118.317 160.539 118.123 160.5C117.929 160.461 117.746 160.382 117.585 160.268C117.256 160.05 117.026 159.711 116.945 159.325L116.694 158.538ZM110.718 155.413L116.028 155.373L115.503 152.878L110.193 152.918L110.718 155.413ZM120.849 214.192C119.519 214.471 118.678 213.798 118.335 212.169L118.205 211.55L117.246 211.752C116.901 211.851 116.538 211.874 116.183 211.821C115.828 211.767 115.489 211.638 115.189 211.441C114.637 211.035 114.266 210.429 114.155 209.753C113.984 209.092 114.081 208.391 114.423 207.801C114.625 207.507 114.886 207.257 115.189 207.069C115.493 206.881 115.832 206.759 116.186 206.709L117.145 206.508L115.826 200.239C115.747 199.947 115.731 199.642 115.78 199.344C115.828 199.046 115.941 198.761 116.109 198.51C116.273 198.271 116.484 198.066 116.727 197.907C116.971 197.749 117.244 197.64 117.53 197.587C118.199 197.446 118.896 197.527 119.516 197.816L132.683 203.445C133.108 203.632 133.477 203.925 133.756 204.296C134.033 204.646 134.225 205.055 134.319 205.491C134.475 206.161 134.369 206.865 134.023 207.459C133.839 207.768 133.588 208.032 133.29 208.233C132.991 208.433 132.652 208.565 132.296 208.619L122.191 210.744L122.322 211.363C122.658 212.961 122.138 213.921 120.849 214.192ZM120.416 202.299L121.125 205.671L125.991 204.647L120.416 202.299ZM128.619 228.461C129.456 227.747 130.073 226.811 130.399 225.761C130.748 224.653 130.797 223.472 130.541 222.339C130.357 221.383 129.987 220.473 129.45 219.662L132.884 218.94L134.161 225.013C134.506 226.652 135.347 227.326 136.646 227.053C137.945 226.779 138.413 225.83 138.069 224.191L136.237 215.478C136.191 215.151 136.079 214.837 135.909 214.555C135.738 214.273 135.513 214.028 135.245 213.835C134.957 213.668 134.638 213.56 134.307 213.519C133.977 213.477 133.641 213.503 133.321 213.593L125.701 215.196C125.467 215.235 125.246 215.327 125.053 215.465C124.86 215.603 124.7 215.782 124.587 215.99C124.349 216.422 124.283 216.928 124.4 217.407C124.49 217.85 124.688 218.263 124.976 218.61C125.303 219.088 125.586 219.594 125.822 220.123C126.026 220.605 126.182 221.106 126.287 221.619C126.501 222.403 126.415 223.238 126.048 223.962C125.852 224.281 125.589 224.554 125.278 224.761C124.966 224.968 124.613 225.104 124.243 225.16C123.883 225.27 123.503 225.297 123.131 225.239C122.759 225.181 122.404 225.04 122.095 224.826C121.478 224.241 121.082 223.461 120.974 222.618C120.857 222.089 120.83 221.546 120.894 221.009C120.969 220.497 121.083 219.914 121.24 219.278L121.399 218.652C121.5 218.349 121.582 218.041 121.647 217.728C121.678 217.483 121.665 217.234 121.61 216.993C121.562 216.762 121.46 216.546 121.311 216.364C121.162 216.182 120.971 216.038 120.755 215.945C120.266 215.705 119.708 215.643 119.178 215.77C118.841 215.833 118.524 215.978 118.255 216.191C117.992 216.421 117.776 216.701 117.62 217.013C117.168 218.018 116.899 219.096 116.825 220.195C116.72 221.372 116.791 222.559 117.037 223.715C117.301 225.107 117.876 226.421 118.718 227.56C119.472 228.563 120.5 229.327 121.678 229.759C122.893 230.183 124.204 230.255 125.458 229.965C126.623 229.743 127.712 229.225 128.619 228.461Z" fill="#0096FA"/>
<path fill-rule="evenodd" clip-rule="evenodd" d="M149.774 307.91C150.963 307.66 152.129 308.422 152.379 309.611L159.715 344.493C159.965 345.682 159.204 346.849 158.014 347.099C156.825 347.349 155.659 346.588 155.409 345.399L148.074 310.516C147.824 309.327 148.585 308.161 149.774 307.91Z" fill="#B9CBD3"/>
<path fill-rule="evenodd" clip-rule="evenodd" d="M130.203 281.308C131.392 281.058 132.559 281.819 132.809 283.008L146.33 347.308C146.58 348.497 145.819 349.663 144.63 349.913C143.441 350.163 142.274 349.402 142.024 348.213L128.503 283.913C128.253 282.724 129.014 281.558 130.203 281.308Z" fill="#B9CBD3"/>
<g filter="url(#filter1_d_10272_1678)">
<path d="M258.122 392.883C262.084 393.67 265.571 395.998 267.817 399.355C270.062 402.712 270.883 406.824 270.099 410.786L314.616 419.598C318.161 420.3 321.81 420.296 325.353 419.586C328.896 418.877 332.265 417.475 335.266 415.463C338.267 413.45 340.842 410.865 342.843 407.857C344.845 404.848 346.233 401.474 346.929 397.928L357.569 344.181C356.639 344.326 355.69 344.305 354.767 344.121C353.597 343.875 352.495 343.379 351.535 342.666C350.576 341.953 349.783 341.04 349.211 339.991C348.639 338.941 348.301 337.781 348.221 336.588C348.142 335.396 348.321 334.2 348.749 333.084C349.176 331.968 349.84 330.957 350.695 330.123C351.551 329.288 352.577 328.649 353.704 328.25C354.83 327.851 356.03 327.701 357.22 327.81C358.41 327.919 359.562 328.286 360.597 328.884L400.722 126.184C402.138 119.032 400.655 111.611 396.599 105.553C392.543 99.4943 386.246 95.2954 379.094 93.8796L334.577 85.0672C333.793 89.0284 331.467 92.5158 328.112 94.7623C324.756 97.0088 320.646 97.8303 316.685 97.0462C312.723 96.2621 309.236 93.9365 306.99 90.5811C304.743 87.2257 303.921 83.1153 304.706 79.1541L260.984 70.4993C253.832 69.0835 246.411 70.5668 240.352 74.623C234.294 78.6791 230.095 84.9757 228.679 92.1277L188.648 294.352C190.797 294.777 192.69 296.039 193.908 297.859C195.127 299.68 195.573 301.91 195.148 304.059C194.722 306.208 193.46 308.101 191.64 309.319C189.819 310.538 187.589 310.984 185.44 310.559L174.887 363.872C173.471 371.024 174.954 378.445 179.01 384.504C183.066 390.562 189.363 394.761 196.515 396.177L240.236 404.831C241.03 400.879 243.358 397.402 246.711 395.162C250.063 392.923 254.167 392.103 258.122 392.883Z" fill="#072F73"/>
<path d="M348.382 333.942C348.903 331.894 350.188 330.124 351.974 328.995C353.76 327.866 355.91 327.464 357.983 327.872C358.906 328.058 359.79 328.4 360.597 328.884L400.722 126.184C402.138 119.032 400.655 111.611 396.599 105.553C392.543 99.4943 386.246 95.2954 379.094 93.8796L334.577 85.0672C333.793 89.0284 331.467 92.5158 328.112 94.7623C324.756 97.0088 320.646 97.8303 316.685 97.0462C312.723 96.2621 309.236 93.9365 306.99 90.5811C304.743 87.2257 303.922 83.1153 304.706 79.1541L260.984 70.4993C253.832 69.0835 246.411 70.5668 240.353 74.623C234.294 78.6791 230.095 84.9758 228.68 92.1278L188.648 294.352C190.72 294.764 192.556 295.955 193.777 297.679C194.998 299.403 195.512 301.53 195.213 303.621L348.382 333.942Z" fill="#F5F8F9"/>
<g opacity="0.5">
<path opacity="0.5" fill-rule="evenodd" clip-rule="evenodd" d="M301.328 343.841C302.129 343.999 302.65 344.777 302.491 345.578L296.036 378.189C295.877 378.99 295.099 379.511 294.298 379.352C293.497 379.193 292.976 378.415 293.135 377.614L299.59 345.004C299.749 344.203 300.527 343.682 301.328 343.841Z" fill="white"/>
<path opacity="0.5" fill-rule="evenodd" clip-rule="evenodd" d="M292.298 342.052C293.099 342.21 293.619 342.988 293.461 343.789L287.006 376.399C286.847 377.201 286.069 377.721 285.268 377.563C284.467 377.404 283.946 376.626 284.105 375.825L290.56 343.215C290.718 342.414 291.496 341.893 292.298 342.052Z" fill="white"/>
<path opacity="0.5" fill-rule="evenodd" clip-rule="evenodd" d="M283.266 340.264C284.067 340.423 284.588 341.201 284.429 342.002L277.974 374.612C277.815 375.413 277.037 375.934 276.236 375.775C275.435 375.617 274.914 374.839 275.073 374.038L281.528 341.428C281.687 340.626 282.465 340.106 283.266 340.264Z" fill="white"/>
<path opacity="0.5" fill-rule="evenodd" clip-rule="evenodd" d="M274.236 338.476C275.037 338.634 275.557 339.412 275.399 340.213L268.944 372.824C268.785 373.625 268.007 374.145 267.206 373.987C266.405 373.828 265.884 373.05 266.043 372.249L272.498 339.639C272.656 338.838 273.434 338.317 274.236 338.476Z" fill="white"/>
<path opacity="0.5" fill-rule="evenodd" clip-rule="evenodd" d="M265.204 336.688C266.005 336.847 266.526 337.625 266.367 338.426L259.912 371.036C259.753 371.837 258.975 372.358 258.174 372.2C257.373 372.041 256.852 371.263 257.011 370.462L263.466 337.852C263.625 337.051 264.403 336.53 265.204 336.688Z" fill="white"/>
<path opacity="0.5" fill-rule="evenodd" clip-rule="evenodd" d="M256.173 334.901C256.974 335.059 257.495 335.837 257.336 336.638L250.881 369.249C250.723 370.05 249.945 370.571 249.143 370.412C248.342 370.253 247.821 369.475 247.98 368.674L254.435 336.064C254.594 335.263 255.372 334.742 256.173 334.901Z" fill="white"/>
<path opacity="0.5" fill-rule="evenodd" clip-rule="evenodd" d="M247.143 333.113C247.944 333.272 248.465 334.05 248.306 334.851L241.851 367.461C241.692 368.262 240.914 368.783 240.113 368.624C239.312 368.466 238.791 367.688 238.95 366.887L245.405 334.277C245.564 333.476 246.342 332.955 247.143 333.113Z" fill="white"/>
<path opacity="0.5" fill-rule="evenodd" clip-rule="evenodd" d="M238.111 331.326C238.912 331.484 239.433 332.262 239.274 333.063L232.819 365.673C232.661 366.474 231.883 366.995 231.081 366.837C230.28 366.678 229.759 365.9 229.918 365.099L236.373 332.489C236.532 331.688 237.31 331.167 238.111 331.326Z" fill="white"/>
</g>
<path fill-rule="evenodd" clip-rule="evenodd" d="M368.729 150.143C369.92 150.379 370.695 151.537 370.459 152.729L363.538 187.695C363.302 188.887 362.144 189.662 360.952 189.426C359.76 189.19 358.985 188.033 359.221 186.841L366.143 151.874C366.379 150.682 367.537 149.907 368.729 150.143Z" fill="#B9CBD3"/>
<path fill-rule="evenodd" clip-rule="evenodd" d="M355.314 147.488C356.505 147.724 357.28 148.882 357.044 150.073L344.285 214.529C344.049 215.721 342.892 216.496 341.7 216.26C340.508 216.024 339.733 214.866 339.969 213.674L352.728 149.219C352.964 148.027 354.122 147.252 355.314 147.488Z" fill="#B9CBD3"/>
<path d="M368.923 138.966L369.019 138.48C371.588 138.337 374.036 137.343 375.978 135.655C377.919 133.968 379.244 131.682 379.744 129.158C380.243 126.635 379.889 124.017 378.737 121.717C377.585 119.416 375.7 117.565 373.379 116.454L373.474 115.979C373.585 115.414 373.468 114.828 373.148 114.35C372.828 113.871 372.33 113.54 371.766 113.428L367.776 112.638C367.211 112.526 366.625 112.643 366.147 112.964C365.669 113.284 365.337 113.781 365.225 114.346L365.211 114.418L360.539 113.493C359.907 113.349 359.251 113.335 358.613 113.453C357.975 113.571 357.368 113.818 356.829 114.179C356.29 114.54 355.83 115.007 355.478 115.552C355.126 116.097 354.889 116.708 354.782 117.348L354.18 120.387C353.82 120.533 353.502 120.767 353.256 121.067C353.009 121.367 352.84 121.724 352.766 122.105L352.152 125.206C352.076 125.794 352.227 126.389 352.573 126.871C352.919 127.352 353.436 127.684 354.018 127.8C354.6 127.915 355.204 127.805 355.707 127.491C356.211 127.178 356.577 126.685 356.731 126.112L357.345 123.011C357.424 122.568 357.375 122.112 357.202 121.697C357.029 121.282 356.739 120.925 356.369 120.67L356.942 117.776C356.993 117.417 357.119 117.072 357.312 116.765C357.505 116.458 357.76 116.195 358.061 115.993C358.363 115.791 358.703 115.655 359.061 115.594C359.418 115.533 359.785 115.547 360.136 115.637L365.842 116.766L370.09 117.607C372.557 118.096 374.729 119.544 376.128 121.634C377.528 123.724 378.039 126.284 377.551 128.751C377.062 131.218 375.614 133.39 373.524 134.79C371.434 136.189 368.874 136.701 366.407 136.212L362.169 135.373C361.895 135.319 361.611 135.376 361.378 135.531C361.146 135.687 360.985 135.928 360.931 136.202L360.704 137.35C360.595 137.914 360.713 138.499 361.033 138.976C361.353 139.454 361.848 139.786 362.412 139.9L366.37 140.684C366.651 140.739 366.939 140.739 367.22 140.683C367.5 140.626 367.767 140.515 368.004 140.355C368.241 140.196 368.444 139.991 368.602 139.752C368.76 139.514 368.869 139.247 368.923 138.966Z" fill="#0096FA"/>
<path d="M374.993 128.224C375.305 126.658 375.145 125.034 374.535 123.559C373.924 122.084 372.889 120.823 371.562 119.935C370.234 119.048 368.673 118.575 367.076 118.575C365.48 118.575 363.919 119.049 362.592 119.936C361.264 120.824 360.23 122.085 359.619 123.561C359.009 125.036 358.85 126.659 359.162 128.225C359.475 129.791 360.245 131.229 361.375 132.357C362.505 133.486 363.944 134.253 365.51 134.563C367.608 134.976 369.783 134.54 371.561 133.352C373.338 132.164 374.572 130.32 374.993 128.224ZM363.673 131.149C362.791 130.602 362.107 129.79 361.718 128.828C361.329 127.867 361.256 126.807 361.509 125.801L361.564 125.522C361.715 124.497 362.187 123.545 362.912 122.805C363.638 122.065 364.58 121.574 365.602 121.402C366.368 121.328 366.674 121.411 366.636 121.607C366.085 123.144 365.651 124.721 365.337 126.323L365.302 126.499C364.981 128.1 364.782 129.723 364.706 131.354C364.738 131.575 364.392 131.528 363.714 131.157L363.673 131.149Z" fill="#F9B42F"/>
<path fill-rule="evenodd" clip-rule="evenodd" d="M253.324 138.821C254.427 139.079 255.585 138.96 256.613 138.484C257.623 138.023 258.447 137.231 258.948 136.24C259.082 137.213 259.524 138.117 260.209 138.82C260.902 139.523 261.796 139.993 262.768 140.165C263.788 140.385 264.851 140.284 265.811 139.876C266.795 139.428 267.628 138.705 268.21 137.794C268.917 136.721 269.398 135.515 269.621 134.25C269.846 133.118 269.898 131.958 269.775 130.811C269.676 129.722 269.388 128.658 268.926 127.667C268.788 127.348 268.574 127.066 268.305 126.846C268.01 126.634 267.669 126.497 267.31 126.445C266.78 126.323 266.225 126.387 265.738 126.628C265.522 126.727 265.334 126.875 265.187 127.06C265.04 127.246 264.939 127.464 264.893 127.696C264.845 127.937 264.843 128.184 264.888 128.425C264.93 128.649 265.009 128.954 265.123 129.353L265.296 129.999C265.452 130.549 265.574 131.108 265.663 131.672C265.741 132.18 265.729 132.698 265.629 133.201C265.54 133.834 265.211 134.407 264.71 134.803C264.457 134.972 264.17 135.087 263.869 135.138C263.569 135.19 263.26 135.177 262.965 135.102C262.68 135.067 262.41 134.958 262.182 134.784C261.954 134.611 261.776 134.379 261.667 134.114C261.434 133.35 261.414 132.536 261.607 131.761L261.852 130.521C261.916 130.272 261.919 130.012 261.862 129.761C261.805 129.511 261.69 129.278 261.525 129.081C261.184 128.687 260.721 128.418 260.21 128.317C259.699 128.215 259.169 128.288 258.703 128.522C258.476 128.642 258.281 128.813 258.133 129.023C257.985 129.233 257.889 129.475 257.852 129.729L257.507 131.476C257.41 132.287 257.083 133.053 256.564 133.684C256.339 133.895 256.062 134.043 255.762 134.113C255.461 134.184 255.148 134.174 254.852 134.086C254.529 134.054 254.218 133.943 253.947 133.764C253.675 133.585 253.452 133.343 253.294 133.058C253.035 132.291 253.015 131.463 253.238 130.684C253.341 130.133 253.53 129.602 253.797 129.109C254.102 128.596 254.44 128.103 254.809 127.633C254.876 127.521 254.951 127.414 255.033 127.312C255.061 127.266 255.096 127.227 255.127 127.192C255.168 127.148 255.202 127.109 255.21 127.068L255.245 127.024C255.486 126.721 255.674 126.484 255.792 126.303C255.922 126.095 256.011 125.865 256.055 125.624C256.103 125.392 256.094 125.151 256.029 124.923C255.964 124.695 255.844 124.487 255.68 124.315C255.323 123.905 254.833 123.633 254.296 123.547C253.959 123.461 253.604 123.465 253.268 123.556C252.932 123.648 252.625 123.824 252.378 124.069C251.555 124.826 250.875 125.725 250.37 126.722C249.819 127.805 249.42 128.959 249.187 130.151C248.887 131.507 248.854 132.909 249.089 134.278C249.269 135.401 249.766 136.449 250.521 137.3C251.265 138.099 252.249 138.634 253.324 138.821ZM256.193 108.541C258.198 107.584 260.847 107.443 264.154 108.098C267.462 108.752 269.836 109.888 271.325 111.536C272.064 112.358 272.588 113.35 272.852 114.423C273.115 115.497 273.11 116.619 272.835 117.689C272.678 118.781 272.255 119.817 271.603 120.707C270.951 121.597 270.09 122.313 269.097 122.792C267.093 123.763 264.445 123.919 261.153 123.26C257.86 122.602 255.463 121.454 253.961 119.818C253.221 118.994 252.696 118.001 252.433 116.925C252.169 115.85 252.176 114.726 252.453 113.654C252.604 112.559 253.025 111.519 253.678 110.626C254.331 109.734 255.195 109.017 256.193 108.541ZM257.453 116.664C258.915 117.456 260.505 117.981 262.151 118.217C263.756 118.624 265.42 118.742 267.066 118.566C267.493 118.501 267.891 118.305 268.203 118.005C268.516 117.706 268.728 117.317 268.812 116.893C268.896 116.468 268.848 116.028 268.673 115.632C268.498 115.236 268.205 114.904 267.835 114.68C266.374 113.896 264.787 113.375 263.145 113.139C261.534 112.733 259.865 112.61 258.212 112.775C257.784 112.841 257.387 113.037 257.075 113.336C256.762 113.636 256.55 114.024 256.466 114.449C256.382 114.873 256.43 115.313 256.605 115.709C256.78 116.105 257.072 116.438 257.443 116.662L257.453 116.664ZM267.669 104.283L262.767 102.238L262.516 103.51C262.48 103.713 262.402 103.907 262.287 104.078C262.171 104.25 262.021 104.395 261.846 104.505C261.674 104.619 261.48 104.696 261.277 104.734C261.075 104.771 260.866 104.767 260.665 104.722C260.471 104.687 260.287 104.612 260.124 104.502C259.961 104.392 259.822 104.25 259.717 104.083C259.606 103.912 259.531 103.721 259.495 103.52C259.459 103.319 259.464 103.113 259.508 102.914L259.876 101.054L256.536 99.6945C256.224 99.5652 255.964 99.3361 255.795 99.043C255.628 98.7251 255.583 98.357 255.667 98.0079C255.739 97.5706 255.978 97.1786 256.335 96.9156C256.495 96.7975 256.677 96.7135 256.87 96.6687C257.064 96.6239 257.265 96.6193 257.46 96.6551C257.594 96.6676 257.725 96.6936 257.853 96.7328L260.455 97.8063L260.94 95.3567L257.616 93.9684C257.299 93.8513 257.035 93.6236 256.873 93.3272C256.712 93.0299 256.662 92.685 256.733 92.3543C256.767 92.1408 256.844 91.9362 256.958 91.7523C257.071 91.5684 257.22 91.4088 257.396 91.2826C257.558 91.1697 257.74 91.0904 257.933 91.0492C258.125 91.008 258.324 91.0058 258.518 91.0427C258.651 91.0552 258.782 91.0813 258.91 91.1205L261.514 92.1837L261.592 91.7909C261.671 91.4029 261.901 91.0622 262.231 90.8432C262.56 90.6258 262.961 90.5436 263.35 90.6137C263.543 90.6512 263.726 90.7271 263.889 90.8368C264.052 90.9466 264.191 91.0879 264.298 91.2524C264.511 91.5832 264.589 91.9831 264.517 92.3699L264.312 93.4035L269.224 95.3962L269.504 93.9802C269.538 93.7771 269.615 93.5835 269.728 93.4117C269.842 93.24 269.99 93.0939 270.164 92.9829C270.338 92.8684 270.533 92.7895 270.738 92.7508C270.943 92.7121 271.153 92.7143 271.357 92.7574C271.551 92.7958 271.734 92.8731 271.897 92.9847C272.06 93.0963 272.198 93.2398 272.303 93.4064C272.412 93.578 272.486 93.7695 272.52 93.97C272.554 94.1704 272.548 94.3756 272.502 94.5735L272.107 96.5684L275.306 97.8784C275.621 98.0078 275.882 98.2415 276.045 98.5402C276.212 98.8468 276.26 99.2045 276.179 99.5442C276.146 99.7616 276.067 99.9696 275.949 100.155C275.831 100.341 275.676 100.5 275.493 100.622C275.318 100.746 275.12 100.831 274.91 100.873C274.7 100.914 274.483 100.912 274.275 100.864C274.142 100.851 274.01 100.825 273.882 100.787L271.681 99.8031L271.196 102.253L274.396 103.563C274.715 103.676 274.98 103.904 275.139 104.204C275.305 104.526 275.35 104.897 275.265 105.249C275.194 105.687 274.954 106.079 274.597 106.342C274.438 106.46 274.255 106.544 274.062 106.589C273.868 106.633 273.667 106.638 273.472 106.602C273.338 106.59 273.207 106.564 273.079 106.524L270.56 105.467L270.517 105.684C270.438 106.072 270.208 106.413 269.878 106.632C269.717 106.745 269.534 106.824 269.342 106.865C269.149 106.907 268.95 106.909 268.757 106.872C268.562 106.836 268.378 106.759 268.215 106.648C268.052 106.536 267.915 106.391 267.811 106.223C267.594 105.894 267.515 105.492 267.592 105.105L267.669 104.283ZM263.396 99.0652L268.297 101.11L268.792 98.6082L263.891 96.5639L263.396 99.0652ZM249.682 157.112C248.349 156.848 247.838 155.899 248.162 154.266L248.284 153.646L247.323 153.455C246.967 153.411 246.624 153.291 246.319 153.103C246.013 152.914 245.751 152.662 245.552 152.364C245.204 151.774 245.1 151.071 245.263 150.405C245.365 149.731 245.728 149.123 246.274 148.715C246.575 148.523 246.913 148.395 247.266 148.341C247.619 148.287 247.979 148.308 248.324 148.401L249.285 148.591L250.529 142.307C250.57 142.008 250.675 141.721 250.837 141.465C250.998 141.21 251.213 140.993 251.466 140.828C251.712 140.672 251.985 140.565 252.272 140.515C252.558 140.465 252.851 140.472 253.135 140.535C253.806 140.668 254.416 141.015 254.873 141.523L264.781 151.863C265.098 152.202 265.323 152.616 265.434 153.066C265.552 153.497 265.569 153.948 265.484 154.387C265.365 155.064 264.992 155.67 264.44 156.081C264.15 156.293 263.816 156.438 263.462 156.505C263.109 156.573 262.745 156.561 262.397 156.471L252.268 154.466L252.145 155.086C251.828 156.689 250.974 157.368 249.682 157.112ZM253.944 146.001L253.275 149.381L258.153 150.347L253.944 146.001ZM251.239 173.285C252.288 172.956 253.223 172.337 253.934 171.498C254.689 170.616 255.197 169.549 255.406 168.406C255.612 167.455 255.627 166.473 255.452 165.515L258.894 166.197L257.688 172.285C257.363 173.928 257.873 174.878 259.176 175.135C260.478 175.393 261.28 174.703 261.606 173.06L263.335 164.326C263.421 164.008 263.441 163.675 263.395 163.348C263.349 163.022 263.237 162.708 263.066 162.426C262.867 162.159 262.616 161.935 262.328 161.767C262.04 161.6 261.721 161.492 261.391 161.449L253.752 159.937C253.522 159.882 253.282 159.88 253.051 159.931C252.819 159.982 252.602 160.085 252.416 160.231C252.028 160.536 251.769 160.975 251.689 161.462C251.598 161.905 251.618 162.362 251.747 162.795C251.861 163.363 251.923 163.939 251.933 164.518C251.932 165.041 251.879 165.563 251.775 166.076C251.664 166.881 251.258 167.616 250.636 168.139C250.331 168.356 249.983 168.503 249.615 168.571C249.247 168.64 248.869 168.627 248.506 168.534C248.132 168.493 247.771 168.369 247.452 168.17C247.132 167.971 246.862 167.702 246.661 167.384C246.322 166.604 246.264 165.731 246.495 164.913C246.595 164.382 246.783 163.871 247.052 163.401C247.322 162.961 247.655 162.468 248.049 161.945L248.441 161.431C248.652 161.192 248.849 160.941 249.03 160.678C249.155 160.465 249.241 160.231 249.285 159.987C249.331 159.757 249.321 159.518 249.256 159.292C249.19 159.066 249.071 158.859 248.908 158.688C248.552 158.276 248.064 158.001 247.527 157.91C247.191 157.836 246.843 157.844 246.512 157.935C246.18 158.044 245.872 158.216 245.606 158.443C244.796 159.19 244.126 160.076 243.627 161.059C243.069 162.1 242.67 163.22 242.444 164.38C242.141 165.764 242.154 167.198 242.483 168.576C242.783 169.795 243.43 170.9 244.345 171.759C245.296 172.626 246.474 173.206 247.741 173.43C248.9 173.682 250.105 173.632 251.239 173.285Z" fill="#0096FA"/>
<path fill-rule="evenodd" clip-rule="evenodd" d="M239.564 254.67C240.756 254.906 241.531 256.063 241.295 257.255L234.374 292.222C234.138 293.414 232.98 294.189 231.788 293.953C230.596 293.717 229.821 292.56 230.057 291.368L236.979 256.401C237.215 255.209 238.373 254.434 239.564 254.67Z" fill="#B9CBD3"/>
<path fill-rule="evenodd" clip-rule="evenodd" d="M231.985 222.525C233.177 222.761 233.952 223.919 233.716 225.111L220.957 289.566C220.721 290.758 219.563 291.533 218.371 291.297C217.179 291.061 216.404 289.904 216.64 288.712L229.4 224.256C229.635 223.064 230.793 222.289 231.985 222.525Z" fill="#B9CBD3"/>
</g>
<path d="M363.889 307.394L341.403 323.304L266.324 376.415H203.014H202.905L127.804 323.304L105.318 307.394L60.3447 275.574V454.848C60.3447 461.587 63.3972 467.562 68.1182 471.655H68.0965C68.1182 471.677 68.1407 471.677 68.1624 471.699C71.83 474.851 76.4409 476.908 81.58 477.148H387.847C390.438 477.039 392.789 476.36 395.05 475.463H395.16C403.241 472.115 408.862 464.149 408.862 454.848V275.574L363.889 307.394Z" fill="#0096FA"/>
<path d="M266.303 376.372L238.818 357.14H238.818C237.788 355.975 236.284 355.237 234.604 355.237C232.924 355.237 231.42 355.976 230.39 357.14H230.383L203.016 376.372H202.906L68.0967 471.612C71.6983 474.741 76.4194 476.755 81.5802 477.105H387.848C390.439 476.995 392.789 476.317 395.05 475.42H395.16C397.29 474.412 399.31 473.166 401.111 471.612L266.303 376.372Z" fill="#18A0FB"/>
<defs>
<filter id="filter0_f_10272_1678" x="50.0918" y="445.712" width="399.816" height="62.1724" filterUnits="userSpaceOnUse" color-interpolation-filters="sRGB">
<feFlood flood-opacity="0" result="BackgroundImageFix"/>
<feBlend mode="normal" in="SourceGraphic" in2="BackgroundImageFix" result="shape"/>
<feGaussianBlur stdDeviation="8" result="effect1_foregroundBlur_10272_1678"/>
</filter>
<filter id="filter1_d_10272_1678" x="166.363" y="63.9758" width="242.882" height="366.146" filterUnits="userSpaceOnUse" color-interpolation-filters="sRGB">
<feFlood flood-opacity="0" result="BackgroundImageFix"/>
<feColorMatrix in="SourceAlpha" type="matrix" values="0 0 0 0 0 0 0 0 0 0 0 0 0 0 0 0 0 0 127 0" result="hardAlpha"/>
<feOffset dy="2"/>
<feGaussianBlur stdDeviation="4"/>
<feColorMatrix type="matrix" values="0 0 0 0 0.027451 0 0 0 0 0.278431 0 0 0 0 0.65098 0 0 0 0.15 0"/>
<feBlend mode="normal" in2="BackgroundImageFix" result="effect1_dropShadow_10272_1678"/>
<feBlend mode="normal" in="SourceGraphic" in2="effect1_dropShadow_10272_1678" result="shape"/>
</filter>
</defs>
</svg>
