<svg width="499" height="500" viewBox="0 0 499 500" fill="none" xmlns="http://www.w3.org/2000/svg"><g opacity=".1" filter="url(#speak-bubble__a)"><path d="M195.869 472.274c0 6.452-26.36 11.682-58.877 11.682s-58.878-5.23-58.878-11.682 26.361-11.682 58.878-11.682c32.517 0 58.877 5.23 58.877 11.682Z" fill="#0A0F1A"/></g><path d="M477.571 32.746c11.246 6.22 54.432 61.816-27.497 181.889-23.73 34.77-20.637 72.914-11.753 113.351 8.885 40.437 11.247 55.015-7.816 92.263-13.72 26.967-37.253 36.246-68.911 39.805-15.901 1.565-31.973-.295-46.99-5.439-15.018-5.145-28.583-13.436-39.663-24.244-35.173-34.269-43.523-90.523-86.54-115.855-43.017-25.333-103.803-8.488-147.55-33.268-40.038-22.696-51.537-77.052-30.534-116.277 21.002-39.225 67.814-62.58 114.487-65.585 30.196-1.951 60.364 3.506 90.616 3.4 25.151-.11 50.116-4.055 73.916-11.678 24.264-7.75 34.302-17.45 51.396-33.162 58.649-53.96 98.573-46.632 136.839-25.2Z" fill="#B9CBD3" style="mix-blend-mode:luminosity" opacity=".16"/><path d="M243.385 238.532H143.314c-45.668 0-82.688 37.095-82.688 82.854 0 33.102 19.375 61.668 47.378 74.939 11.246 5.331 18.459 16.633 18.459 29.099v17.774c0 6.758 8.716 9.452 12.512 3.869l19.589-28.787a32.072 32.072 0 0 1 26.511-14.039h58.31c45.668 0 82.688-37.095 82.688-82.855-.003-45.759-37.023-82.854-82.688-82.854Z" fill="#3A4A65"/><path d="M152.642 322.97c0 8.447-6.831 15.295-15.262 15.295-8.43 0-15.265-6.848-15.265-15.295 0-8.448 6.835-15.296 15.265-15.296 8.431 0 15.262 6.848 15.262 15.296Zm55.973-.001c0 8.448-6.835 15.296-15.265 15.296s-15.265-6.848-15.265-15.296c0-8.447 6.835-15.295 15.265-15.295s15.265 6.848 15.265 15.295Zm55.97 0c0 8.448-6.835 15.296-15.265 15.296s-15.265-6.848-15.265-15.296c0-8.447 6.835-15.295 15.265-15.295s15.265 6.848 15.265 15.295Z" fill="#80E3EB"/><path d="M288.664 99.61h105.502c48.148 0 87.179 39.11 87.179 87.354 0 34.899-20.423 65.014-49.948 79.009-11.859 5.62-19.461 17.536-19.461 30.679v18.739c0 7.122-9.189 9.965-13.195 4.079l-20.652-30.354a33.804 33.804 0 0 0-27.951-14.798h-61.474c-48.148 0-87.179-39.109-87.179-87.354 0-48.244 39.031-87.354 87.179-87.354Z" fill="#00C6D7"/><path d="M416.521 188.633c0 8.906-7.206 16.127-16.094 16.127-8.888 0-16.094-7.221-16.094-16.127 0-8.906 7.206-16.126 16.094-16.126 8.888 0 16.094 7.22 16.094 16.126Zm-59.013 0c0 8.906-7.203 16.127-16.091 16.127-8.888 0-16.094-7.221-16.094-16.127 0-8.906 7.206-16.126 16.094-16.126 8.888 0 16.091 7.22 16.091 16.126Zm-59.009 0c0 8.906-7.206 16.127-16.094 16.127-8.888 0-16.094-7.221-16.094-16.127 0-8.906 7.206-16.126 16.094-16.126 8.888 0 16.094 7.22 16.094 16.126Z" fill="#F8FAFD"/><defs><filter id="speak-bubble__a" x="62.114" y="444.592" width="149.755" height="55.364" filterUnits="userSpaceOnUse" color-interpolation-filters="sRGB"><feFlood flood-opacity="0" result="BackgroundImageFix"/><feBlend in="SourceGraphic" in2="BackgroundImageFix" result="shape"/><feGaussianBlur stdDeviation="8" result="effect1_foregroundBlur_10272_1679"/></filter></defs></svg>