<svg width="500" height="500" viewBox="0 0 500 500" fill="none" xmlns="http://www.w3.org/2000/svg">
<path d="M205.258 331.937C205.258 253.86 268.552 190.566 346.629 190.566V190.566C424.706 190.566 488 253.86 488 331.937V331.937C488 410.014 424.706 473.308 346.629 473.308V473.308C268.552 473.308 205.258 410.014 205.258 331.937V331.937Z" fill="#1E6BF1"/>
<path d="M346.629 80.7054C346.629 57.544 365.405 38.7679 388.566 38.7679V38.7679C411.728 38.7679 430.504 57.544 430.504 80.7054V80.7054C430.504 103.867 411.728 122.643 388.566 122.643V122.643C365.405 122.643 346.629 103.867 346.629 80.7054V80.7054Z" fill="#84EBBC"/>
<path fill-rule="evenodd" clip-rule="evenodd" d="M118.022 56.2198C117.366 56.2198 116.712 56.2259 116.06 56.2379C115.231 56.2531 114.548 55.594 114.532 54.7658C114.517 53.9375 115.176 53.2536 116.004 53.2384C116.676 53.2261 117.348 53.2198 118.022 53.2198C118.696 53.2198 119.368 53.2261 120.04 53.2384C120.868 53.2536 121.527 53.9375 121.512 54.7658C121.496 55.594 120.813 56.2531 119.984 56.2379C119.332 56.2259 118.678 56.2198 118.022 56.2198ZM109.611 55.038C109.688 55.8629 109.081 56.5935 108.256 56.67C106.953 56.7907 105.657 56.9353 104.369 57.1034C103.547 57.2105 102.794 56.6315 102.687 55.81C102.58 54.9885 103.159 54.2357 103.981 54.1286C105.306 53.9557 106.639 53.8069 107.979 53.6828C108.804 53.6063 109.535 54.2131 109.611 55.038ZM126.433 55.038C126.509 54.2131 127.24 53.6063 128.065 53.6828C129.405 53.8069 130.738 53.9557 132.063 54.1286C132.885 54.2357 133.464 54.9885 133.357 55.81C133.25 56.6315 132.497 57.2105 131.675 57.1034C130.387 56.9353 129.091 56.7907 127.788 56.67C126.963 56.5935 126.356 55.8629 126.433 55.038ZM138.215 56.6297C138.384 55.8185 139.178 55.2975 139.989 55.4659C141.306 55.7393 142.614 56.0368 143.912 56.3578C144.717 56.5567 145.207 57.3698 145.009 58.174C144.81 58.9782 143.997 59.469 143.192 59.2702C141.93 58.9581 140.659 58.669 139.379 58.4033C138.568 58.2349 138.047 57.4408 138.215 56.6297ZM97.8288 56.6297C97.9972 57.4408 97.4762 58.2349 96.6651 58.4033C95.3851 58.669 94.1138 58.9581 92.8515 59.2702C92.0473 59.469 91.2342 58.9782 91.0354 58.174C90.8365 57.3698 91.3273 56.5567 92.1315 56.3579C93.4303 56.0368 94.7384 55.7393 96.0553 55.4659C96.8664 55.2975 97.6604 55.8185 97.8288 56.6297ZM149.749 59.5372C150.007 58.7503 150.855 58.3222 151.642 58.581C152.918 59.0005 154.183 59.4432 155.436 59.9087C156.213 60.197 156.609 61.0603 156.321 61.8369C156.032 62.6136 155.169 63.0095 154.393 62.7212C153.174 62.2688 151.944 61.8385 150.705 61.4308C149.918 61.172 149.49 60.3242 149.749 59.5372ZM86.2955 59.5372C86.5543 60.3242 86.1262 61.172 85.3392 61.4308C84.0996 61.8385 82.8701 62.2688 81.6515 62.7212C80.8748 63.0095 80.0115 62.6136 79.7232 61.8369C79.4349 61.0603 79.8308 60.197 80.6075 59.9087C81.8614 59.4432 83.1264 59.0005 84.4019 58.581C85.1889 58.3222 86.0366 58.7503 86.2955 59.5372ZM160.878 63.7266C161.223 62.9738 162.114 62.644 162.867 62.9899C164.087 63.5504 165.294 64.1331 166.489 64.7374C167.228 65.1113 167.524 66.0137 167.15 66.7529C166.776 67.4922 165.874 67.7883 165.135 67.4144C163.974 66.827 162.8 66.2607 161.614 65.7159C160.861 65.37 160.532 64.4793 160.878 63.7266ZM75.1664 63.7266C75.5123 64.4793 75.1825 65.37 74.4297 65.7159C73.2441 66.2607 72.0704 66.827 70.9092 67.4144C70.1699 67.7883 69.2675 67.4922 68.8936 66.7529C68.5197 66.0137 68.8158 65.1113 69.5551 64.7374C70.7498 64.1331 71.9573 63.5504 73.1771 62.9899C73.9299 62.644 74.8205 62.9738 75.1664 63.7266ZM171.463 69.1416C171.891 68.4325 172.813 68.2047 173.523 68.6329C174.671 69.3266 175.806 70.0412 176.926 70.7761C177.619 71.2305 177.812 72.1604 177.358 72.8531C176.903 73.5457 175.973 73.7389 175.281 73.2844C174.192 72.57 173.089 71.8754 171.972 71.201C171.263 70.7728 171.035 69.8508 171.463 69.1416ZM64.5808 69.1416C65.009 69.8508 64.7812 70.7728 64.0721 71.2011C62.9553 71.8754 61.8522 72.57 60.7632 73.2845C60.0705 73.7389 59.1406 73.5458 58.6862 72.8531C58.2318 72.1604 58.4249 71.2305 59.1176 70.7761C60.2378 70.0412 61.3725 69.3266 62.5214 68.6329C63.2305 68.2047 64.1526 68.4325 64.5808 69.1416ZM181.377 75.7101C181.882 75.0532 182.824 74.9299 183.48 75.4347C184.544 76.2517 185.591 77.0882 186.623 77.9436C187.26 78.4725 187.348 79.4181 186.819 80.0558C186.291 80.6934 185.345 80.7816 184.707 80.2527C183.705 79.4211 182.686 78.6078 181.652 77.8134C180.996 77.3086 180.872 76.3669 181.377 75.7101ZM54.6669 75.7101C55.1716 76.367 55.0483 77.3087 54.3915 77.8134C53.3578 78.6078 52.3393 79.4211 51.3367 80.2527C50.699 80.7816 49.7534 80.6934 49.2245 80.0558C48.6956 79.4182 48.7838 78.4725 49.4214 77.9436C50.4527 77.0883 51.5002 76.2518 52.5635 75.4347C53.2204 74.9299 54.1621 75.0532 54.6669 75.7101ZM190.496 83.3433C191.07 82.7467 192.02 82.7291 192.617 83.3039C193.582 84.2339 194.53 85.1819 195.46 86.1472C196.035 86.7437 196.017 87.6933 195.421 88.2681C194.824 88.8429 193.874 88.8253 193.3 88.2287C192.395 87.2902 191.474 86.3685 190.535 85.4642C189.939 84.8894 189.921 83.9399 190.496 83.3433ZM45.5483 83.3433C46.1231 83.9399 46.1054 84.8895 45.5089 85.4643C44.5703 86.3685 43.6487 87.2902 42.7444 88.2287C42.1696 88.8253 41.22 88.8429 40.6234 88.2681C40.0269 87.6933 40.0092 86.7438 40.584 86.1472C41.5141 85.1819 42.462 84.2339 43.4273 83.3039C44.0239 82.7291 44.9735 82.7467 45.5483 83.3433ZM198.708 91.9444C199.346 91.4155 200.291 91.5036 200.82 92.1413C201.676 93.1726 202.512 94.2201 203.329 95.2833C203.834 95.9402 203.711 96.8819 203.054 97.3867C202.397 97.8915 201.455 97.7682 200.95 97.1113C200.156 96.0776 199.343 95.0592 198.511 94.0565C197.982 93.4189 198.07 92.4732 198.708 91.9444ZM37.3359 91.9444C37.9736 92.4732 38.0617 93.4189 37.5329 94.0565C36.7012 95.0592 35.8879 96.0776 35.0936 97.1113C34.5888 97.7682 33.6471 97.8915 32.9902 97.3867C32.3333 96.8819 32.21 95.9402 32.7148 95.2834C33.5319 94.2201 34.3684 93.1726 35.2238 92.1413C35.7527 91.5037 36.6983 91.4155 37.3359 91.9444ZM205.911 101.406C206.603 100.952 207.533 101.145 207.988 101.837C208.723 102.958 209.437 104.092 210.131 105.241C210.559 105.95 210.331 106.872 209.622 107.301C208.913 107.729 207.991 107.501 207.563 106.792C206.888 105.675 206.194 104.572 205.479 103.483C205.025 102.79 205.218 101.86 205.911 101.406ZM30.1332 101.406C30.8259 101.861 31.019 102.79 30.5646 103.483C29.8502 104.572 29.1555 105.675 28.4812 106.792C28.053 107.501 27.1309 107.729 26.4218 107.301C25.7126 106.872 25.4849 105.95 25.9131 105.241C26.6068 104.092 27.3213 102.958 28.0562 101.837C28.5107 101.145 29.4406 100.952 30.1332 101.406ZM212.011 111.613C212.75 111.24 213.653 111.536 214.026 112.275C214.631 113.47 215.213 114.677 215.774 115.897C216.12 116.65 215.79 117.54 215.037 117.886C214.285 118.232 213.394 117.902 213.048 117.15C212.503 115.964 211.937 114.79 211.349 113.629C210.976 112.89 211.272 111.987 212.011 111.613ZM24.0331 111.613C24.7723 111.987 25.0685 112.89 24.6945 113.629C24.1072 114.79 23.5408 115.964 22.996 117.15C22.6501 117.902 21.7595 118.232 21.0067 117.886C20.254 117.54 19.9241 116.65 20.27 115.897C20.8306 114.677 21.4132 113.47 22.0175 112.275C22.3915 111.536 23.2938 111.24 24.0331 111.613ZM216.927 122.443C217.704 122.155 218.567 122.551 218.855 123.327C219.321 124.581 219.763 125.846 220.183 127.122C220.442 127.909 220.014 128.756 219.227 129.015C218.44 129.274 217.592 128.846 217.333 128.059C216.925 126.819 216.495 125.59 216.043 124.371C215.754 123.595 216.15 122.731 216.927 122.443ZM19.1171 122.443C19.8937 122.731 20.2896 123.595 20.0013 124.371C19.549 125.59 19.1187 126.819 18.711 128.059C18.4521 128.846 17.6043 129.274 16.8174 129.015C16.0304 128.756 15.6023 127.909 15.8611 127.122C16.2807 125.846 16.7234 124.581 17.1888 123.327C17.4771 122.551 18.3404 122.155 19.1171 122.443ZM220.59 133.755C221.394 133.556 222.207 134.047 222.406 134.851C222.727 136.15 223.025 137.458 223.298 138.775C223.466 139.586 222.945 140.38 222.134 140.549C221.323 140.717 220.529 140.196 220.361 139.385C220.095 138.105 219.806 136.834 219.494 135.571C219.295 134.767 219.786 133.954 220.59 133.755ZM15.4542 133.755C16.2584 133.954 16.7491 134.767 16.5503 135.571C16.2383 136.834 15.9491 138.105 15.6834 139.385C15.515 140.196 14.721 140.717 13.9098 140.549C13.0987 140.38 12.5777 139.586 12.746 138.775C13.0194 137.458 13.3169 136.15 13.638 134.851C13.8368 134.047 14.6499 133.556 15.4542 133.755ZM13.0901 145.407C13.9116 145.514 14.4907 146.267 14.3835 147.088C14.2154 148.377 14.0708 149.673 13.9501 150.976C13.8737 151.801 13.143 152.408 12.3181 152.331C11.4933 152.255 10.8865 151.524 10.9629 150.699C11.0871 149.359 11.2358 148.026 11.4087 146.7C11.5159 145.879 12.2687 145.3 13.0901 145.407ZM222.954 145.407C223.775 145.3 224.528 145.879 224.635 146.7C224.808 148.026 224.957 149.359 225.081 150.699C225.158 151.524 224.551 152.255 223.726 152.331C222.901 152.408 222.17 151.801 222.094 150.976C221.973 149.673 221.829 148.377 221.66 147.088C221.553 146.267 222.132 145.514 222.954 145.407ZM12.0459 157.252C12.8742 157.267 13.5333 157.951 13.518 158.78C13.506 159.432 13.5 160.086 13.5 160.742C13.5 161.397 13.506 162.052 13.518 162.704C13.5333 163.532 12.8742 164.216 12.0459 164.231C11.2176 164.247 10.5338 163.588 10.5186 162.759C10.5062 162.088 10.5 161.416 10.5 160.742C10.5 160.068 10.5062 159.395 10.5186 158.724C10.5338 157.896 11.2176 157.237 12.0459 157.252ZM223.998 157.252C224.826 157.237 225.51 157.896 225.525 158.724C225.538 159.395 225.544 160.068 225.544 160.742C225.544 161.416 225.538 162.088 225.525 162.759C225.51 163.588 224.826 164.247 223.998 164.232C223.17 164.216 222.511 163.532 222.526 162.704C222.538 162.052 222.544 161.397 222.544 160.742C222.544 160.086 222.538 159.432 222.526 158.78C222.511 157.951 223.17 157.267 223.998 157.252ZM12.3181 169.153C13.143 169.076 13.8737 169.683 13.9501 170.508C14.0708 171.811 14.2154 173.107 14.3835 174.395C14.4907 175.217 13.9116 175.97 13.0901 176.077C12.2687 176.184 11.5159 175.605 11.4087 174.783C11.2358 173.458 11.0871 172.125 10.9629 170.785C10.8865 169.96 11.4932 169.229 12.3181 169.153ZM223.726 169.153C224.551 169.229 225.158 169.96 225.081 170.785C224.957 172.125 224.808 173.458 224.635 174.783C224.528 175.605 223.775 176.184 222.954 176.077C222.132 175.97 221.553 175.217 221.66 174.395C221.829 173.107 221.973 171.811 222.094 170.508C222.17 169.683 222.901 169.076 223.726 169.153ZM222.134 180.935C222.945 181.103 223.466 181.897 223.298 182.709C223.025 184.025 222.727 185.334 222.406 186.632C222.207 187.437 221.394 187.927 220.59 187.728C219.786 187.53 219.295 186.717 219.494 185.912C219.806 184.65 220.095 183.379 220.361 182.099C220.529 181.288 221.323 180.767 222.134 180.935ZM13.9098 180.935C14.721 180.767 15.515 181.288 15.6834 182.099C15.9491 183.379 16.2383 184.65 16.5503 185.912C16.7491 186.717 16.2584 187.53 15.4542 187.728C14.6499 187.927 13.8368 187.437 13.638 186.632C13.3169 185.334 13.0194 184.025 12.7461 182.709C12.5777 181.897 13.0987 181.103 13.9098 180.935ZM16.8174 192.468C17.6044 192.21 18.4521 192.638 18.711 193.425C19.1187 194.664 19.549 195.894 20.0013 197.112C20.2896 197.889 19.8937 198.752 19.1171 199.041C18.3404 199.329 17.4771 198.933 17.1888 198.156C16.7234 196.902 16.2807 195.637 15.8611 194.362C15.6023 193.575 16.0304 192.727 16.8174 192.468ZM219.227 192.468C220.014 192.727 220.442 193.575 220.183 194.362C219.763 195.637 219.321 196.902 218.855 198.156C218.567 198.933 217.704 199.329 216.927 199.041C216.15 198.752 215.754 197.889 216.043 197.112C216.495 195.894 216.925 194.664 217.333 193.425C217.592 192.638 218.44 192.21 219.227 192.468ZM215.037 203.597C215.79 203.943 216.12 204.834 215.774 205.587C215.213 206.807 214.631 208.014 214.026 209.209C213.653 209.948 212.75 210.244 212.011 209.87C211.272 209.496 210.976 208.594 211.349 207.855C211.937 206.693 212.503 205.52 213.048 204.334C213.394 203.581 214.285 203.252 215.037 203.597ZM21.0067 203.597C21.7595 203.252 22.6501 203.581 22.996 204.334C23.5408 205.52 24.1072 206.693 24.6946 207.855C25.0685 208.594 24.7723 209.496 24.0331 209.87C23.2939 210.244 22.3915 209.948 22.0175 209.209C21.4132 208.014 20.8306 206.807 20.27 205.587C19.9242 204.834 20.254 203.943 21.0067 203.597ZM209.622 214.183C210.331 214.611 210.559 215.533 210.131 216.242C209.437 217.391 208.723 218.526 207.988 219.646C207.533 220.339 206.603 220.532 205.911 220.078C205.218 219.623 205.025 218.693 205.479 218.001C206.194 216.912 206.888 215.809 207.563 214.692C207.991 213.983 208.913 213.755 209.622 214.183ZM26.4218 214.183C27.131 213.755 28.053 213.983 28.4812 214.692C29.1555 215.809 29.8502 216.912 30.5646 218.001C31.019 218.693 30.8259 219.623 30.1332 220.078C29.4406 220.532 28.5107 220.339 28.0562 219.646C27.3213 218.526 26.6068 217.391 25.9131 216.242C25.4849 215.533 25.7126 214.611 26.4218 214.183ZM203.054 224.097C203.711 224.602 203.834 225.543 203.329 226.2C202.512 227.264 201.676 228.311 200.82 229.342C200.291 229.98 199.346 230.068 198.708 229.539C198.07 229.01 197.982 228.065 198.511 227.427C199.343 226.424 200.156 225.406 200.95 224.372C201.455 223.715 202.397 223.592 203.054 224.097ZM32.9902 224.097C33.6471 223.592 34.5888 223.715 35.0936 224.372C35.888 225.406 36.7012 226.425 37.5329 227.427C38.0617 228.065 37.9736 229.01 37.336 229.539C36.6983 230.068 35.7527 229.98 35.2238 229.342C34.3684 228.311 33.5319 227.264 32.7148 226.2C32.2101 225.543 32.3334 224.602 32.9902 224.097ZM195.421 233.216C196.017 233.79 196.035 234.74 195.46 235.337C194.53 236.302 193.582 237.25 192.617 238.18C192.02 238.755 191.071 238.737 190.496 238.14C189.921 237.544 189.939 236.594 190.535 236.019C191.474 235.115 192.395 234.193 193.3 233.255C193.874 232.658 194.824 232.641 195.421 233.216ZM40.6235 233.216C41.22 232.641 42.1696 232.658 42.7444 233.255C43.6487 234.194 44.5703 235.115 45.5089 236.019C46.1054 236.594 46.1231 237.544 45.5483 238.14C44.9735 238.737 44.0239 238.755 43.4273 238.18C42.462 237.25 41.5141 236.302 40.584 235.337C40.0092 234.74 40.0269 233.79 40.6235 233.216ZM186.819 241.428C187.348 242.066 187.26 243.011 186.623 243.54C185.591 244.395 184.544 245.232 183.48 246.049C182.824 246.554 181.882 246.43 181.377 245.774C180.872 245.117 180.996 244.175 181.653 243.67C182.686 242.876 183.705 242.063 184.707 241.231C185.345 240.702 186.291 240.79 186.819 241.428ZM49.2245 241.428C49.7534 240.79 50.699 240.702 51.3367 241.231C52.3393 242.063 53.3578 242.876 54.3915 243.67C55.0484 244.175 55.1717 245.117 54.6669 245.774C54.1621 246.43 53.2204 246.554 52.5635 246.049C51.5003 245.232 50.4527 244.395 49.4214 243.54C48.7838 243.011 48.6956 242.066 49.2245 241.428ZM58.6862 248.631C59.1407 247.938 60.0706 247.745 60.7632 248.199C61.8522 248.914 62.9553 249.608 64.0721 250.283C64.7813 250.711 65.009 251.633 64.5808 252.342C64.1526 253.051 63.2305 253.279 62.5214 252.851C61.3726 252.157 60.2378 251.443 59.1176 250.708C58.4249 250.253 58.2318 249.323 58.6862 248.631ZM177.358 248.631C177.812 249.323 177.619 250.253 176.926 250.708C175.806 251.443 174.671 252.157 173.523 252.851C172.813 253.279 171.891 253.051 171.463 252.342C171.035 251.633 171.263 250.711 171.972 250.283C173.089 249.608 174.192 248.914 175.281 248.199C175.973 247.745 176.903 247.938 177.358 248.631ZM167.15 254.731C167.524 255.47 167.228 256.372 166.489 256.746C165.294 257.351 164.087 257.933 162.867 258.494C162.114 258.84 161.223 258.51 160.878 257.757C160.532 257.004 160.862 256.114 161.614 255.768C162.8 255.223 163.974 254.657 165.135 254.069C165.874 253.695 166.776 253.992 167.15 254.731ZM68.8936 254.731C69.2676 253.992 70.17 253.695 70.9092 254.069C72.0704 254.657 73.2441 255.223 74.4297 255.768C75.1825 256.114 75.5123 257.004 75.1664 257.757C74.8205 258.51 73.9299 258.84 73.1771 258.494C71.9573 257.933 70.7498 257.351 69.5551 256.746C68.8159 256.372 68.5197 255.47 68.8936 254.731ZM79.7232 259.647C80.0115 258.87 80.8748 258.474 81.6515 258.763C82.8702 259.215 84.0996 259.645 85.3392 260.053C86.1262 260.312 86.5543 261.159 86.2955 261.946C86.0366 262.733 85.1889 263.162 84.4019 262.903C83.1264 262.483 81.8614 262.04 80.6075 261.575C79.8308 261.287 79.435 260.423 79.7232 259.647ZM156.321 259.647C156.609 260.423 156.213 261.287 155.437 261.575C154.183 262.04 152.918 262.483 151.642 262.903C150.855 263.162 150.007 262.733 149.749 261.946C149.49 261.159 149.918 260.312 150.705 260.053C151.944 259.645 153.174 259.215 154.393 258.763C155.169 258.474 156.032 258.87 156.321 259.647ZM91.0354 263.31C91.2342 262.505 92.0473 262.015 92.8515 262.214C94.1138 262.526 95.3851 262.815 96.6651 263.08C97.4762 263.249 97.9972 264.043 97.8288 264.854C97.6605 265.665 96.8664 266.186 96.0553 266.018C94.7384 265.744 93.4303 265.447 92.1315 265.126C91.3273 264.927 90.8366 264.114 91.0354 263.31ZM145.009 263.31C145.207 264.114 144.717 264.927 143.912 265.126C142.614 265.447 141.306 265.744 139.989 266.018C139.178 266.186 138.384 265.665 138.215 264.854C138.047 264.043 138.568 263.249 139.379 263.08C140.659 262.815 141.93 262.526 143.192 262.214C143.997 262.015 144.81 262.505 145.009 263.31ZM102.687 265.674C102.794 264.852 103.547 264.273 104.369 264.38C105.657 264.548 106.953 264.693 108.256 264.814C109.081 264.89 109.688 265.621 109.611 266.446C109.535 267.271 108.804 267.877 107.979 267.801C106.639 267.677 105.306 267.528 103.981 267.355C103.159 267.248 102.58 266.495 102.687 265.674ZM133.357 265.674C133.464 266.495 132.885 267.248 132.063 267.355C130.738 267.528 129.405 267.677 128.065 267.801C127.24 267.877 126.509 267.271 126.433 266.446C126.356 265.621 126.963 264.89 127.788 264.814C129.091 264.693 130.387 264.548 131.675 264.38C132.497 264.273 133.25 264.852 133.357 265.674ZM114.532 266.718C114.548 265.89 115.231 265.231 116.06 265.246C116.712 265.258 117.366 265.264 118.022 265.264C118.678 265.264 119.332 265.258 119.984 265.246C120.813 265.231 121.496 265.89 121.512 266.718C121.527 267.546 120.868 268.23 120.04 268.245C119.368 268.258 118.696 268.264 118.022 268.264C117.348 268.264 116.676 268.258 116.004 268.245C115.176 268.23 114.517 267.546 114.532 266.718Z" fill="#1E6BF1"/>
<path d="M239.103 35.624C243.392 26.3255 256.608 26.3255 260.897 35.624L314.335 151.478C316.083 155.268 319.675 157.877 323.819 158.369L450.516 173.391C460.685 174.596 464.769 187.165 457.251 194.118L363.58 280.742C360.516 283.575 359.144 287.797 359.958 291.89L384.823 417.029C386.818 427.073 376.127 434.84 367.191 429.839L255.861 367.521C252.22 365.482 247.78 365.482 244.139 367.521L132.809 429.839C123.873 434.84 113.182 427.073 115.177 417.029L140.042 291.89C140.856 287.797 139.484 283.575 136.42 280.742L42.749 194.118C35.231 187.165 39.3148 174.596 49.4835 173.391L176.181 158.369C180.325 157.877 183.917 155.268 185.665 151.478L239.103 35.624Z" fill="url(#paint0_radial_20086_244)"/>
<path fill-rule="evenodd" clip-rule="evenodd" d="M248.462 50.1092C251.008 49.0408 253.939 50.2388 255.007 52.7852L301.294 163.095C303.692 168.809 309.009 172.766 315.171 173.422L429.558 185.594C432.304 185.886 434.293 188.349 434.001 191.095C433.709 193.841 431.246 195.83 428.5 195.538L314.113 183.366C304.326 182.324 295.881 176.04 292.073 166.964L245.786 56.6544C244.718 54.1081 245.916 51.1777 248.462 50.1092Z" fill="white"/>
<defs>
<radialGradient id="paint0_radial_20086_244" cx="0" cy="0" r="1" gradientUnits="userSpaceOnUse" gradientTransform="translate(273.165 122.166) rotate(112.797) scale(352.6 352.6)">
<stop stop-color="#FBCF23"/>
<stop offset="1" stop-color="#FBB223"/>
</radialGradient>
</defs>
</svg>
