<svg width="500" height="500" viewBox="0 0 500 500" fill="none" xmlns="http://www.w3.org/2000/svg"><path d="M55.515 128.474C33.873 124.977-3.938 154.535.333 185.439c4.43 31.949 37.02 52.96 44.298 84.401 8.1 34.878-29.173 64.885-33.825 100.331-4.84 37.269 18.479 78.812 50.215 101.407 27.053 19.247 69.135 27.436 101.662 18.59 39.551-10.819 59.074-55.65 97.549-69.398 31.135-11.118 65.054-5.709 97.423 1.614 24.616 5.589 44.93 3.586 67.079 2.54 24.395-1.136 94.923-43.187 70.021-110.582-8.005-21.579-31.989-33.862-54.486-42.35-22.497-8.488-55.751-30.635-73.407-46.266-28.477-25.314-22.781-50.808-26.04-87.599-3.259-36.791 9.777-77.049-23.858-107.414-13.7-12.373-47.461-24.149-67.838-23.7-14.238.328-34.52 7.083-43.063 14.525-51.638 45.189-30.027 126.422-150.548 106.936Z" fill="#B9CBD3" style="mix-blend-mode:luminosity" opacity=".16"/><path d="M439.733 178.381 28.896 162.302l290.96-43.278 12.998-1.916 95.647-14.238 11.232 75.511Z" fill="#2498A8"/><path d="M435.263 254.568a36.292 36.292 0 0 0-7.87 39.548 36.281 36.281 0 0 0 33.528 22.401v81.634H28.896v-81.634a36.273 36.273 0 0 0 0-72.543V162.34H460.92v81.634a36.255 36.255 0 0 0-25.658 10.594Z" fill="#FBDD6B"/><path d="M435.263 254.455a36.292 36.292 0 0 0-7.87 39.548 36.289 36.289 0 0 0 33.528 22.401v81.634H28.896v-81.634a36.268 36.268 0 0 0 36.27-36.271 36.271 36.271 0 0 0-36.27-36.272v-81.634H460.92v81.634a36.255 36.255 0 0 0-25.658 10.594Z" fill="#2CC3D5"/><path d="M107.787 224.733c0-13.254 10.745-24 24-24H357.09c13.255 0 24 10.746 24 24v110.723c0 13.255-10.745 24-24 24H131.787c-13.255 0-24-10.745-24-24V224.733Z" fill="#28ADBF"/><path fill-rule="evenodd" clip-rule="evenodd" d="M243.833 238.301c-8.716 0-17.748 1.417-23.903 5.269-9.984 6.243-12.905 18.435-12.564 29.661.293 9.708 2.858 20.133 9.671 27.306 6.499 6.839 19.864 9.914 28.976 9.914.412 0 .848.302.848.861v9.797c0 .966.741 1.719 1.692 1.719.055 0 .107-.012.159-.016.36-.032.677-.169.931-.383 4.593-3.984 9.183-8.042 13.614-12.212 4.249-4.001 9.06-8.11 12.381-12.9 7.008-10.103 8.046-24.388 5.723-36.23-2.235-11.395-10.205-18.813-21.378-21.176-4.597-.97-10.3-1.61-16.15-1.61Zm0 4.102c5.235 0 10.677.539 15.33 1.521 9.9 2.093 16.376 8.473 18.239 17.964 1.138 5.8 1.344 11.822.599 17.413-.825 6.162-2.731 11.427-5.664 15.653-2.513 3.627-6.135 6.98-9.639 10.224-.737.68-1.47 1.36-2.188 2.033a376.272 376.272 0 0 1-9.615 8.718v-4.617c0-2.737-2.187-4.959-4.882-4.959-8.648 0-20.725-3.039-26.071-8.662-6.655-7.007-8.319-17.239-8.541-24.585-.214-7.108.884-19.94 10.649-26.046 4.8-3.003 12.536-4.657 21.783-4.657Z" fill="#fff"/></svg>