<svg width="500" height="507" viewBox="0 0 500 507" fill="none" xmlns="http://www.w3.org/2000/svg">
<g opacity="0.1" filter="url(#filter0_f_16039_100692)">
<path d="M426.796 477.186C426.796 484.815 355.113 491 266.687 491C178.262 491 106.579 484.815 106.579 477.186C106.579 469.557 178.262 463.373 266.687 463.373C355.113 463.373 426.796 469.557 426.796 477.186Z" fill="#0A0F1A"/>
</g>
<path d="M250.362 463.373C378.319 463.373 482.049 359.644 482.049 231.687C482.049 103.73 378.319 0 250.362 0C122.405 0 18.6758 103.73 18.6758 231.687C18.6758 359.644 122.405 463.373 250.362 463.373Z" fill="#8C8C8C"/>
<path d="M250.362 418.001C353.261 418.001 436.677 334.585 436.677 231.686C436.677 128.787 353.261 45.3711 250.362 45.3711C147.463 45.3711 64.0469 128.787 64.0469 231.686C64.0469 334.585 147.463 418.001 250.362 418.001Z" fill="white"/>
<path d="M331.453 242.304H250.363C244.571 242.304 239.744 237.477 239.744 231.685C239.744 225.893 244.571 221.066 250.363 221.066H331.453C337.245 221.066 342.072 225.893 342.072 231.685C342.072 237.477 337.245 242.304 331.453 242.304Z" fill="#8C8C8C"/>
<path d="M250.363 242.306C244.571 242.306 239.744 237.479 239.744 231.687V111.982C239.744 106.19 244.571 101.363 250.363 101.363C256.155 101.363 260.981 106.19 260.981 111.982V231.687C260.981 237.479 256.155 242.306 250.363 242.306Z" fill="#8C8C8C"/>
<path d="M250.362 262.577C267.423 262.577 281.254 248.747 281.254 231.686C281.254 214.625 267.423 200.795 250.362 200.795C233.302 200.795 219.471 214.625 219.471 231.686C219.471 248.747 233.302 262.577 250.362 262.577Z" fill="#8C8C8C"/>
<path d="M250.363 249.064C259.96 249.064 267.74 241.284 267.74 231.687C267.74 222.09 259.96 214.311 250.363 214.311C240.767 214.311 232.987 222.09 232.987 231.687C232.987 241.284 240.767 249.064 250.363 249.064Z" fill="#DDE3EC"/>
<path d="M250.365 87.85C257.296 87.85 262.915 82.2312 262.915 75.3C262.915 68.3688 257.296 62.75 250.365 62.75C243.434 62.75 237.815 68.3688 237.815 75.3C237.815 82.2312 243.434 87.85 250.365 87.85Z" fill="#8C8C8C"/>
<path d="M140.312 134.186C147.243 134.186 152.862 128.567 152.862 121.636C152.862 114.705 147.243 109.086 140.312 109.086C133.381 109.086 127.762 114.705 127.762 121.636C127.762 128.567 133.381 134.186 140.312 134.186Z" fill="#8C8C8C"/>
<path d="M93.9758 244.239C100.907 244.239 106.526 238.62 106.526 231.689C106.526 224.757 100.907 219.139 93.9758 219.139C87.0446 219.139 81.4258 224.757 81.4258 231.689C81.4258 238.62 87.0446 244.239 93.9758 244.239Z" fill="#8C8C8C"/>
<path d="M140.312 354.289C147.243 354.289 152.862 348.671 152.862 341.739C152.862 334.808 147.243 329.189 140.312 329.189C133.381 329.189 127.762 334.808 127.762 341.739C127.762 348.671 133.381 354.289 140.312 354.289Z" fill="#8C8C8C"/>
<path d="M250.365 400.627C257.296 400.627 262.915 395.009 262.915 388.077C262.915 381.146 257.296 375.527 250.365 375.527C243.434 375.527 237.815 381.146 237.815 388.077C237.815 395.009 243.434 400.627 250.365 400.627Z" fill="#8C8C8C"/>
<path d="M360.416 354.289C367.347 354.289 372.966 348.671 372.966 341.739C372.966 334.808 367.347 329.189 360.416 329.189C353.485 329.189 347.866 334.808 347.866 341.739C347.866 348.671 353.485 354.289 360.416 354.289Z" fill="#8C8C8C"/>
<path d="M406.752 244.239C413.683 244.239 419.302 238.62 419.302 231.689C419.302 224.757 413.683 219.139 406.752 219.139C399.821 219.139 394.202 224.757 394.202 231.689C394.202 238.62 399.821 244.239 406.752 244.239Z" fill="#8C8C8C"/>
<path d="M360.416 134.186C367.347 134.186 372.966 128.567 372.966 121.636C372.966 114.705 367.347 109.086 360.416 109.086C353.485 109.086 347.866 114.705 347.866 121.636C347.866 128.567 353.485 134.186 360.416 134.186Z" fill="#8C8C8C"/>
<defs>
<filter id="filter0_f_16039_100692" x="90.5786" y="447.373" width="352.217" height="59.627" filterUnits="userSpaceOnUse" color-interpolation-filters="sRGB">
<feFlood flood-opacity="0" result="BackgroundImageFix"/>
<feBlend mode="normal" in="SourceGraphic" in2="BackgroundImageFix" result="shape"/>
<feGaussianBlur stdDeviation="8" result="effect1_foregroundBlur_16039_100692"/>
</filter>
</defs>
</svg>
