<svg width="500" height="500" viewBox="0 0 500 500" fill="none" xmlns="http://www.w3.org/2000/svg">
<path d="M108.965 378.886C156.733 380.587 181.113 374.492 182.813 324.882C184.656 273.854 156.024 256.419 113.359 254.86C70.8356 253.301 40.9278 268.609 39.0851 319.637C37.3842 369.389 61.1971 377.185 108.965 378.886Z" fill="#949494"/>
<path d="M391.035 378.746C343.268 380.447 318.887 374.351 317.187 324.741C315.344 273.713 343.976 256.279 386.641 254.72C429.164 253.16 459.072 268.469 460.915 319.497C462.616 369.107 438.803 377.045 391.035 378.746Z" fill="#949494"/>
<path fill-rule="evenodd" clip-rule="evenodd" d="M248.583 64.2227C252.337 64.2227 255.381 67.2661 255.381 71.0204V226.939C255.381 230.693 252.337 233.737 248.583 233.737C244.829 233.737 241.785 230.693 241.785 226.939V71.0204C241.785 67.2661 244.829 64.2227 248.583 64.2227Z" fill="#949494"/>
<path d="M249.999 233.174C284.301 233.174 301.594 228.072 301.594 192.494C301.594 155.782 280.616 144.018 249.999 144.018C219.382 144.018 198.404 155.782 198.404 192.494C198.404 228.214 215.697 233.174 249.999 233.174Z" fill="url(#paint0_linear_16039_100686)"/>
<path d="M248.63 114.378C269.998 114.378 287.319 97.0562 287.319 75.689C287.319 54.3218 269.998 37 248.63 37C227.263 37 209.941 54.3218 209.941 75.689C209.941 97.0562 227.263 114.378 248.63 114.378Z" fill="#E0E0E0"/>
<path d="M249.999 463.366C362.827 463.366 419.95 446.782 419.95 329.56C419.95 208.794 350.779 170.098 249.999 170.098C149.219 170.098 80.0479 208.794 80.0479 329.56C80.0479 446.782 137.171 463.366 249.999 463.366Z" fill="white"/>
<path d="M320.587 224.811C273.387 220.842 226.611 220.842 179.41 224.811C160.7 226.37 144.116 243.379 139.155 260.672C131.501 297.667 128.241 332.961 130.367 370.807C133.202 388.383 149.644 405.676 167.929 407.519C222.926 412.905 277.072 412.905 332.21 407.519C349.361 404.4 368.214 389.234 369.773 370.807C371.899 332.961 368.639 297.667 360.984 260.672C356.874 242.387 338.447 227.645 320.587 224.811Z" fill="#E0E0E0"/>
<path d="M191.438 334.376C201.715 334.376 210.046 326.046 210.046 315.769C210.046 305.493 201.715 297.162 191.438 297.162C181.162 297.162 172.831 305.493 172.831 315.769C172.831 326.046 181.162 334.376 191.438 334.376Z" fill="#949494"/>
<path d="M308.189 334.376C318.466 334.376 326.797 326.046 326.797 315.769C326.797 305.493 318.466 297.162 308.189 297.162C297.913 297.162 289.582 305.493 289.582 315.769C289.582 326.046 297.913 334.376 308.189 334.376Z" fill="#949494"/>
<path fill-rule="evenodd" clip-rule="evenodd" d="M234.418 316.111C237.034 316.111 239.155 318.232 239.155 320.849C239.155 326.879 244.122 331.845 250.152 331.845C256.182 331.845 261.148 326.879 261.148 320.849C261.148 318.232 263.269 316.111 265.885 316.111C268.502 316.111 270.623 318.232 270.623 320.849C270.623 332.111 261.414 341.32 250.152 341.32C238.889 341.32 229.681 332.111 229.681 320.849C229.681 318.232 231.802 316.111 234.418 316.111Z" fill="#949494"/>
<defs>
<linearGradient id="paint0_linear_16039_100686" x1="236.75" y1="236.996" x2="266.229" y2="138.023" gradientUnits="userSpaceOnUse">
<stop stop-color="#C5D9FB"/>
<stop offset="0.0468921" stop-color="#CEDEFA"/>
<stop offset="0.1687" stop-color="#E0E8F8"/>
<stop offset="0.317" stop-color="#ECF0F6"/>
<stop offset="0.5176" stop-color="#F3F4F5"/>
<stop offset="1" stop-color="#F5F5F5"/>
</linearGradient>
</defs>
</svg>
