<svg width="533" height="500" viewBox="0 0 533 500" fill="none" xmlns="http://www.w3.org/2000/svg">
<g opacity="0.1" filter="url(#filter0_f_16039_100693)">
<path d="M516.461 443.296C516.461 454.65 430.928 463.855 325.418 463.855C219.908 463.855 134.375 454.65 134.375 443.296C134.375 431.941 219.908 422.736 325.418 422.736C430.928 422.736 516.461 431.941 516.461 443.296Z" fill="#0A0F1A"/>
</g>
<g opacity="0.1" filter="url(#filter1_f_16039_100693)">
<path d="M192.198 464.411C192.198 469.628 152.858 473.857 104.329 473.857C55.801 473.857 16.4609 469.628 16.4609 464.411C16.4609 459.194 55.801 454.965 104.329 454.965C152.858 454.965 192.198 459.194 192.198 464.411Z" fill="#0A0F1A"/>
</g>
<g filter="url(#filter2_d_16039_100693)">
<path d="M162.177 54.4133C162.177 39.3521 174.387 27.1426 189.448 27.1426H369.405L483.497 137.831V401.546C483.497 416.608 471.287 428.817 456.226 428.817H189.448C174.387 428.817 162.177 416.608 162.177 401.546V54.4133Z" fill="#F6F6F6"/>
</g>
<path d="M369.404 26V124.279C369.404 131.809 375.509 137.914 383.039 137.914H483.581L369.404 26Z" fill="#EEF6F9"/>
<path fill-rule="evenodd" clip-rule="evenodd" d="M215.487 213.144C215.487 209.151 218.724 205.914 222.717 205.914H425.288C429.281 205.914 432.519 209.151 432.519 213.144C432.519 217.137 429.281 220.374 425.288 220.374H222.717C218.724 220.374 215.487 217.137 215.487 213.144Z" fill="#8C8C8C"/>
<path fill-rule="evenodd" clip-rule="evenodd" d="M215.485 274.765C215.485 270.772 218.722 267.535 222.715 267.535H425.286C429.279 267.535 432.516 270.772 432.516 274.765C432.516 278.758 429.279 281.995 425.286 281.995H222.715C218.722 281.995 215.485 278.758 215.485 274.765Z" fill="#8C8C8C"/>
<path fill-rule="evenodd" clip-rule="evenodd" d="M215.485 336.386C215.485 332.393 218.722 329.156 222.715 329.156H341.463C345.457 329.156 348.694 332.393 348.694 336.386C348.694 340.38 345.457 343.617 341.463 343.617H222.715C218.722 343.617 215.485 340.38 215.485 336.386Z" fill="#8C8C8C"/>
<path fill-rule="evenodd" clip-rule="evenodd" d="M235.999 153.733C256.241 153.733 272.65 137.649 272.65 117.808C272.65 97.967 256.241 81.8828 235.999 81.8828C215.757 81.8828 199.347 97.967 199.347 117.808C199.347 137.649 215.757 153.733 235.999 153.733ZM232.997 120.683C232.956 121.493 233.202 122.292 233.694 122.944C233.942 123.22 234.252 123.435 234.6 123.572C234.948 123.709 235.323 123.764 235.697 123.733C236.34 123.748 236.97 123.551 237.485 123.172C237.988 122.774 238.32 122.204 238.415 121.577C238.604 120.863 238.972 120.206 239.487 119.667C240.242 118.891 241.048 118.165 241.901 117.494C243.027 116.53 243.939 115.689 244.636 115.005C245.361 114.273 245.964 113.433 246.424 112.517C246.904 111.521 247.142 110.429 247.122 109.328C247.132 107.815 246.643 106.339 245.727 105.122C244.739 103.835 243.418 102.83 241.901 102.213C240.143 101.485 238.249 101.127 236.341 101.161C234.465 101.164 232.601 101.453 230.816 102.02C229.059 102.558 227.404 103.375 225.917 104.438C225.435 104.777 225.032 105.213 224.737 105.718C224.486 106.225 224.363 106.784 224.38 107.347C224.353 108.242 224.65 109.118 225.22 109.818C225.456 110.131 225.763 110.386 226.117 110.562C226.47 110.739 226.861 110.832 227.258 110.835C228.194 110.747 229.096 110.441 229.886 109.941L231.031 109.38C231.801 108.93 232.609 108.544 233.444 108.224C234.141 107.963 234.88 107.827 235.625 107.82C236.38 107.779 237.126 107.995 237.735 108.434C237.988 108.629 238.189 108.88 238.323 109.166C238.457 109.453 238.519 109.766 238.504 110.081C238.513 110.746 238.32 111.399 237.95 111.956C237.461 112.673 236.911 113.347 236.305 113.972C235.378 114.878 234.573 115.897 233.909 117.003C233.281 118.13 232.967 119.4 232.997 120.683ZM231.12 130.401C231.12 131.605 231.594 132.763 232.443 133.634C232.864 134.061 233.37 134.398 233.93 134.624C234.49 134.85 235.091 134.961 235.697 134.948C236.33 134.987 236.965 134.898 237.562 134.687C238.159 134.476 238.706 134.147 239.169 133.721C239.631 133.295 240 132.78 240.252 132.209C240.504 131.638 240.634 131.023 240.634 130.401C240.634 129.778 240.504 129.163 240.252 128.592C240 128.021 239.631 127.507 239.169 127.08C238.706 126.654 238.159 126.326 237.562 126.115C236.965 125.904 236.33 125.814 235.697 125.853C235.091 125.841 234.49 125.951 233.93 126.177C233.37 126.403 232.864 126.741 232.443 127.167C231.594 128.038 231.12 129.196 231.12 130.401Z" fill="#8C8C8C"/>
<path d="M90.8867 403.752L145.456 357.957L146.353 358.823L146.582 358.594L152.088 364.326L157.823 369.834L157.594 370.063L158.459 370.965L112.676 425.549L107.399 420.275L90.8867 403.752Z" fill="#8C8C8C"/>
<path d="M129.787 366.09L140.014 376.407L150.328 386.638L91.4649 455.381L81.5737 445.487L70.9592 434.874L61.068 424.979L129.787 366.09Z" fill="#C7C7C7"/>
<path fill-rule="evenodd" clip-rule="evenodd" d="M109.764 280.206C109.764 345.49 163.352 398.413 229.456 398.413C295.561 398.413 349.149 345.49 349.149 280.206C349.149 214.923 295.561 162 229.456 162C163.352 162 109.764 214.923 109.764 280.206ZM140.617 280.206C140.617 327.638 180.202 366.089 229.033 366.089C277.863 366.089 317.448 327.638 317.448 280.206C317.448 232.774 277.863 194.323 229.033 194.323C180.202 194.323 140.617 232.774 140.617 280.206Z" fill="#8C8C8C"/>
<circle cx="229.457" cy="280.206" r="96.9736" fill="#F6F6F6" fill-opacity="0.6"/>
<defs>
<filter id="filter0_f_16039_100693" x="118.375" y="406.736" width="414.086" height="73.1191" filterUnits="userSpaceOnUse" color-interpolation-filters="sRGB">
<feFlood flood-opacity="0" result="BackgroundImageFix"/>
<feBlend mode="normal" in="SourceGraphic" in2="BackgroundImageFix" result="shape"/>
<feGaussianBlur stdDeviation="8" result="effect1_foregroundBlur_16039_100693"/>
</filter>
<filter id="filter1_f_16039_100693" x="0.460938" y="438.965" width="207.737" height="50.8926" filterUnits="userSpaceOnUse" color-interpolation-filters="sRGB">
<feFlood flood-opacity="0" result="BackgroundImageFix"/>
<feBlend mode="normal" in="SourceGraphic" in2="BackgroundImageFix" result="shape"/>
<feGaussianBlur stdDeviation="8" result="effect1_foregroundBlur_16039_100693"/>
</filter>
<filter id="filter2_d_16039_100693" x="150.177" y="9.14258" width="345.319" height="425.674" filterUnits="userSpaceOnUse" color-interpolation-filters="sRGB">
<feFlood flood-opacity="0" result="BackgroundImageFix"/>
<feColorMatrix in="SourceAlpha" type="matrix" values="0 0 0 0 0 0 0 0 0 0 0 0 0 0 0 0 0 0 127 0" result="hardAlpha"/>
<feOffset dy="-6"/>
<feGaussianBlur stdDeviation="6"/>
<feColorMatrix type="matrix" values="0 0 0 0 0.374547 0 0 0 0 0.481553 0 0 0 0 0.601935 0 0 0 0.15 0"/>
<feBlend mode="normal" in2="BackgroundImageFix" result="effect1_dropShadow_16039_100693"/>
<feBlend mode="normal" in="SourceGraphic" in2="effect1_dropShadow_16039_100693" result="shape"/>
</filter>
</defs>
</svg>
