<svg width="500" height="500" viewBox="0 0 500 500" fill="none" xmlns="http://www.w3.org/2000/svg">
<path fill-rule="evenodd" clip-rule="evenodd" d="M150.11 338.455C111.712 353.48 81.4327 335.778 70.5273 324.12L84.0513 311.469C91.0479 318.948 113.61 332.851 143.362 321.209L150.11 338.455Z" fill="#949494"/>
<path fill-rule="evenodd" clip-rule="evenodd" d="M361.132 332.401C402.339 330.898 423.067 302.604 428.43 287.569L410.987 281.347C407.547 290.993 392.384 312.729 360.457 313.894L361.132 332.401Z" fill="#949494"/>
<path d="M180.071 327.979C180.071 340.764 169.707 351.128 156.922 351.128C144.138 351.128 133.773 340.764 133.773 327.979C133.773 315.194 144.138 304.83 156.922 304.83C169.707 304.83 180.071 315.194 180.071 327.979Z" fill="#E0E0E0"/>
<path d="M328.223 327.981C328.223 340.766 338.587 351.13 351.372 351.13C364.156 351.13 374.521 340.766 374.521 327.981C374.521 315.196 364.156 304.832 351.372 304.832C338.587 304.832 328.223 315.196 328.223 327.981Z" fill="#E0E0E0"/>
<path fill-rule="evenodd" clip-rule="evenodd" d="M215.257 427.056C222.416 427.056 228.22 421.252 228.22 414.092C228.22 406.933 222.416 401.129 215.257 401.129C208.097 401.129 202.293 406.933 202.293 414.092C202.293 421.252 208.097 427.056 215.257 427.056ZM215.257 438.167C228.553 438.167 239.331 427.389 239.331 414.092C239.331 400.796 228.553 390.018 215.257 390.018C201.96 390.018 191.182 400.796 191.182 414.092C191.182 427.389 201.96 438.167 215.257 438.167Z" fill="#E0E0E0"/>
<path fill-rule="evenodd" clip-rule="evenodd" d="M294.889 427.056C302.049 427.056 307.853 421.252 307.853 414.092C307.853 406.933 302.049 401.129 294.889 401.129C287.73 401.129 281.926 406.933 281.926 414.092C281.926 421.252 287.73 427.056 294.889 427.056ZM294.889 438.167C308.186 438.167 318.964 427.389 318.964 414.092C318.964 400.796 308.186 390.018 294.889 390.018C281.593 390.018 270.814 400.796 270.814 414.092C270.814 427.389 281.593 438.167 294.889 438.167Z" fill="#E0E0E0"/>
<path d="M213.405 393.721H294.89V443.722C294.89 466.224 276.649 484.465 254.147 484.465C231.646 484.465 213.405 466.224 213.405 443.722V393.721Z" fill="#949494"/>
<path fill-rule="evenodd" clip-rule="evenodd" d="M230.999 430.76C230.999 428.715 232.657 427.057 234.703 427.057H276.371C278.417 427.057 280.075 428.715 280.075 430.76C280.075 432.806 278.417 434.464 276.371 434.464H234.703C232.657 434.464 230.999 432.806 230.999 430.76Z" fill="#F4F5F6"/>
<path fill-rule="evenodd" clip-rule="evenodd" d="M230.999 449.278C230.999 447.232 232.657 445.574 234.703 445.574H276.371C278.417 445.574 280.075 447.232 280.075 449.278C280.075 451.324 278.417 452.982 276.371 452.982H234.703C232.657 452.982 230.999 451.324 230.999 449.278Z" fill="#F4F5F6"/>
<path fill-rule="evenodd" clip-rule="evenodd" d="M53.2144 280.755C53.2144 276.664 56.5309 273.348 60.622 273.348C77.498 273.348 91.1786 287.028 91.1786 303.904C91.1786 320.78 77.498 334.461 60.622 334.461C43.7461 334.461 30.0654 320.78 30.0654 303.904C30.0654 299.813 33.382 296.497 37.4731 296.497C41.5642 296.497 44.8807 299.813 44.8807 303.904C44.8807 312.598 51.9284 319.646 60.622 319.646C69.3157 319.646 76.3633 312.598 76.3633 303.904C76.3633 295.211 69.3157 288.163 60.622 288.163C56.5309 288.163 53.2144 284.846 53.2144 280.755Z" fill="#949494"/>
<path fill-rule="evenodd" clip-rule="evenodd" d="M419.645 238.241C417.234 234.936 412.6 234.211 409.295 236.621C395.66 246.566 392.668 265.68 402.613 279.315C412.557 292.95 431.672 295.941 445.307 285.997C458.941 276.052 461.933 256.938 451.989 243.303C449.578 239.998 444.944 239.272 441.638 241.683C438.333 244.094 437.608 248.728 440.019 252.033C445.142 259.057 443.601 268.904 436.577 274.027C429.553 279.15 419.706 277.609 414.583 270.585C409.46 263.561 411.001 253.714 418.025 248.591C421.33 246.18 422.055 241.546 419.645 238.241Z" fill="#949494"/>
<path d="M250.437 419.03C308.308 419.03 337.608 410.53 337.608 350.45C337.608 288.554 302.129 268.721 250.437 268.721C198.745 268.721 163.266 288.554 163.266 350.45C163.266 410.53 192.565 419.03 250.437 419.03Z" fill="white"/>
<path d="M230.071 345.571C230.071 353.753 223.438 360.386 215.256 360.386C207.073 360.386 200.44 353.753 200.44 345.571C200.44 337.389 207.073 330.756 215.256 330.756C223.438 330.756 230.071 337.389 230.071 345.571Z" fill="#8C8C8C"/>
<path d="M268.963 345.573C268.963 353.755 262.33 360.388 254.147 360.388C245.965 360.388 239.332 353.755 239.332 345.573C239.332 337.391 245.965 330.758 254.147 330.758C262.33 330.758 268.963 337.391 268.963 345.573Z" fill="#8C8C8C"/>
<path d="M307.853 345.573C307.853 353.755 301.22 360.388 293.038 360.388C284.856 360.388 278.223 353.755 278.223 345.573C278.223 337.391 284.856 330.758 293.038 330.758C301.22 330.758 307.853 337.391 307.853 345.573Z" fill="#8C8C8C"/>
<path d="M170.688 205.792C197.978 206.764 211.907 203.282 212.879 174.938C213.931 145.785 197.573 135.825 173.198 134.934C148.904 134.043 131.817 142.789 130.764 171.942C129.793 200.366 143.397 204.82 170.688 205.792Z" fill="#949494"/>
<path d="M331.84 205.71C304.549 206.682 290.62 203.199 289.649 174.856C288.596 145.703 304.954 135.743 329.329 134.852C353.623 133.961 370.71 142.707 371.763 171.86C372.735 200.203 359.13 204.738 331.84 205.71Z" fill="#949494"/>
<path fill-rule="evenodd" clip-rule="evenodd" d="M250.454 26.0176C252.599 26.0176 254.338 27.7563 254.338 29.9012V118.98C254.338 121.125 252.599 122.864 250.454 122.864C248.309 122.864 246.57 121.125 246.57 118.98V29.9012C246.57 27.7563 248.309 26.0176 250.454 26.0176Z" fill="#949494"/>
<path d="M251.264 122.54C270.861 122.54 280.741 119.625 280.741 99.2989C280.741 78.3249 268.756 71.6035 251.264 71.6035C233.772 71.6035 221.787 78.3249 221.787 99.2989C221.787 119.706 231.667 122.54 251.264 122.54Z" fill="url(#paint0_linear_16039_100687)"/>
<path d="M250.481 54.672C262.688 54.672 272.584 44.7759 272.584 32.5685C272.584 20.3611 262.688 10.4648 250.481 10.4648C238.273 10.4648 228.377 20.3611 228.377 32.5685C228.377 44.7759 238.273 54.672 250.481 54.672Z" fill="#E0E0E0"/>
<path d="M251.263 254.055C315.723 254.055 348.359 244.58 348.359 177.609C348.359 108.614 308.84 86.5059 251.263 86.5059C193.686 86.5059 154.167 108.614 154.167 177.609C154.167 244.58 186.802 254.055 251.263 254.055Z" fill="white"/>
<path d="M291.592 117.763C264.625 115.496 237.902 115.496 210.935 117.763C200.246 118.654 190.771 128.372 187.937 138.251C183.564 159.387 181.701 179.551 182.916 201.173C184.535 211.215 193.929 221.094 204.376 222.147C235.796 225.224 266.731 225.224 298.232 222.147C308.031 220.365 318.801 211.701 319.692 201.173C320.907 179.551 319.044 159.387 314.671 138.251C312.323 127.805 301.795 119.383 291.592 117.763Z" fill="#E0E0E0"/>
<path d="M217.806 180.361C223.678 180.361 228.437 175.601 228.437 169.73C228.437 163.859 223.678 159.1 217.806 159.1C211.935 159.1 207.176 163.859 207.176 169.73C207.176 175.601 211.935 180.361 217.806 180.361Z" fill="#949494"/>
<path d="M284.509 180.361C290.38 180.361 295.139 175.601 295.139 169.73C295.139 163.859 290.38 159.1 284.509 159.1C278.637 159.1 273.878 163.859 273.878 169.73C273.878 175.601 278.637 180.361 284.509 180.361Z" fill="#949494"/>
<path fill-rule="evenodd" clip-rule="evenodd" d="M242.361 169.926C243.856 169.926 245.067 171.138 245.067 172.632C245.067 176.077 247.905 178.915 251.35 178.915C254.795 178.915 257.632 176.077 257.632 172.632C257.632 171.138 258.844 169.926 260.339 169.926C261.833 169.926 263.045 171.138 263.045 172.632C263.045 179.067 257.784 184.328 251.35 184.328C244.915 184.328 239.654 179.067 239.654 172.632C239.654 171.138 240.866 169.926 242.361 169.926Z" fill="#949494"/>
<path fill-rule="evenodd" clip-rule="evenodd" d="M224.368 261.183C224.368 259.271 226.026 257.721 228.071 257.721H271.583C273.628 257.721 275.286 259.271 275.286 261.183C275.286 263.095 273.628 264.646 271.583 264.646H228.071C226.026 264.646 224.368 263.095 224.368 261.183Z" fill="#8C8C8C"/>
<defs>
<linearGradient id="paint0_linear_16039_100687" x1="243.694" y1="124.723" x2="260.536" y2="68.179" gradientUnits="userSpaceOnUse">
<stop stop-color="#C5D9FB"/>
<stop offset="0.0468921" stop-color="#CEDEFA"/>
<stop offset="0.1687" stop-color="#E0E8F8"/>
<stop offset="0.317" stop-color="#ECF0F6"/>
<stop offset="0.5176" stop-color="#F3F4F5"/>
<stop offset="1" stop-color="#F5F5F5"/>
</linearGradient>
</defs>
</svg>
