<svg width="150" height="150" viewBox="0 0 150 150" fill="none" xmlns="http://www.w3.org/2000/svg">
<g clip-path="url(#clip0_21984_3963)">
<rect width="150" height="56" rx="16" fill="#E0E0E0"/>
<rect y="94" width="150" height="56" rx="16" fill="#E0E0E0"/>
<circle cx="74" cy="67" r="2" fill="#D9D9D9"/>
<circle cx="74" cy="75" r="2" fill="#D9D9D9"/>
<circle cx="74" cy="83" r="2" fill="#D9D9D9"/>
<path d="M40.3527 18.9457C40.3574 18.8828 40.3147 18.8199 40.2341 18.8064C39.0527 18.6627 36.6521 18.3034 35.9784 17.6745C35.3854 17.122 34.9868 15.3209 34.7733 14.1081C34.7591 14.0138 34.6642 13.9823 34.5883 14.0093C34.5171 13.9823 34.4223 14.0138 34.4033 14.1081C34.1945 15.3209 33.7913 17.1175 33.1982 17.6745C32.5245 18.3034 30.1239 18.6627 28.9426 18.8064C28.8619 18.8154 28.8192 18.8783 28.824 18.9412C28.8192 19.0041 28.8619 19.0669 28.9426 19.0759C30.1239 19.2197 32.5245 19.579 33.1982 20.2078C33.7913 20.7603 34.1898 22.5615 34.4033 23.7743C34.4175 23.8686 34.5124 23.9 34.5883 23.8731C34.6595 23.9 34.7544 23.8686 34.7733 23.7743C34.9821 22.5615 35.3854 20.7648 35.9784 20.2078C36.6521 19.579 39.0527 19.2197 40.2341 19.0759C40.31 19.0759 40.3527 19.0086 40.3527 18.9457Z" fill="#8C8C8C"/>
<path d="M42.0001 36.2417C42.0001 36.1667 41.9548 36.0917 41.8643 36.0792C40.5131 35.9168 37.7719 35.4919 36.9961 34.761C36.3172 34.1112 35.8582 32.012 35.619 30.6C35.5996 30.4938 35.4962 30.4563 35.4121 30.4813C35.3281 30.45 35.2182 30.4875 35.2052 30.6C34.966 32.012 34.507 34.1112 33.8282 34.761C33.0588 35.4919 30.3111 35.9168 28.9599 36.0792C28.8694 36.0917 28.8177 36.1667 28.8242 36.2354C28.8242 36.3104 28.8694 36.3791 28.9599 36.3916C30.3111 36.554 33.0523 36.9789 33.8282 37.7099C34.507 38.3596 34.966 40.4589 35.2052 41.8708C35.2246 41.977 35.3281 42.0145 35.4121 41.9895C35.4962 42.0208 35.6061 41.9833 35.619 41.8708C35.8582 40.4589 36.3172 38.3596 36.9961 37.7099C37.7654 36.9789 40.5131 36.554 41.8643 36.3916C41.9548 36.3916 42.0001 36.3166 42.0001 36.2417C42.0001 36.2479 42.0001 36.2479 42.0001 36.2417Z" fill="#8C8C8C"/>
<path d="M37.0586 28.0008C37.0634 27.8623 36.9814 27.7238 36.8174 27.7041C34.4537 27.3974 29.6539 26.616 28.3032 25.2558C27.1165 24.054 26.3157 20.1566 25.896 17.5304C25.8671 17.3276 25.6741 17.2584 25.5294 17.3128C25.3847 17.2584 25.1917 17.3276 25.1628 17.5304C24.7431 20.1566 23.9423 24.054 22.7556 25.2558C21.4049 26.616 16.6051 27.3974 14.2414 27.7041C14.0774 27.7238 13.9954 27.8623 14.0002 27.9959V28.0008V28.0057C13.9954 28.1393 14.0774 28.2778 14.2414 28.2976C16.6051 28.6042 21.4049 29.3856 22.7556 30.7458C23.9423 31.9476 24.7431 35.845 25.1628 38.4712C25.1917 38.674 25.3847 38.7432 25.5294 38.6888C25.6741 38.7432 25.8671 38.674 25.896 38.4712C26.3157 35.845 27.1165 31.9476 28.3032 30.7458C29.6539 29.3856 34.4537 28.6042 36.8174 28.2976C36.9814 28.2778 37.0634 28.1393 37.0586 28.0008C37.0586 28.0058 37.0586 28.0058 37.0586 28.0008Z" fill="#8C8C8C"/>
<path d="M40.3527 112.946C40.3574 112.883 40.3147 112.82 40.2341 112.806C39.0527 112.663 36.6521 112.303 35.9784 111.675C35.3854 111.122 34.9868 109.321 34.7733 108.108C34.7591 108.014 34.6642 107.982 34.5883 108.009C34.5171 107.982 34.4223 108.014 34.4033 108.108C34.1945 109.321 33.7913 111.118 33.1982 111.675C32.5245 112.303 30.1239 112.663 28.9426 112.806C28.8619 112.815 28.8192 112.878 28.824 112.941C28.8192 113.004 28.8619 113.067 28.9426 113.076C30.1239 113.22 32.5245 113.579 33.1982 114.208C33.7913 114.76 34.1898 116.561 34.4033 117.774C34.4175 117.869 34.5124 117.9 34.5883 117.873C34.6595 117.9 34.7544 117.869 34.7733 117.774C34.9821 116.561 35.3854 114.765 35.9784 114.208C36.6521 113.579 39.0527 113.22 40.2341 113.076C40.31 113.076 40.3527 113.009 40.3527 112.946Z" fill="#8C8C8C"/>
<path d="M42.0001 130.242C42.0001 130.167 41.9548 130.092 41.8643 130.079C40.5131 129.917 37.7719 129.492 36.9961 128.761C36.3172 128.111 35.8582 126.012 35.619 124.6C35.5996 124.494 35.4962 124.456 35.4121 124.481C35.3281 124.45 35.2182 124.488 35.2052 124.6C34.966 126.012 34.507 128.111 33.8282 128.761C33.0588 129.492 30.3111 129.917 28.9599 130.079C28.8694 130.092 28.8177 130.167 28.8242 130.235C28.8242 130.31 28.8694 130.379 28.9599 130.392C30.3111 130.554 33.0523 130.979 33.8282 131.71C34.507 132.36 34.966 134.459 35.2052 135.871C35.2246 135.977 35.3281 136.015 35.4121 135.99C35.4962 136.021 35.6061 135.983 35.619 135.871C35.8582 134.459 36.3172 132.36 36.9961 131.71C37.7654 130.979 40.5131 130.554 41.8643 130.392C41.9548 130.392 42.0001 130.317 42.0001 130.242C42.0001 130.248 42.0001 130.248 42.0001 130.242Z" fill="#8C8C8C"/>
<path d="M37.0586 122.001C37.0634 121.862 36.9814 121.724 36.8174 121.704C34.4537 121.397 29.6539 120.616 28.3032 119.256C27.1165 118.054 26.3157 114.157 25.896 111.53C25.8671 111.328 25.6741 111.258 25.5294 111.313C25.3847 111.258 25.1917 111.328 25.1628 111.53C24.7431 114.157 23.9423 118.054 22.7556 119.256C21.4049 120.616 16.6051 121.397 14.2414 121.704C14.0774 121.724 13.9954 121.862 14.0002 121.996V122.001V122.006C13.9954 122.139 14.0774 122.278 14.2414 122.298C16.6051 122.604 21.4049 123.386 22.7556 124.746C23.9423 125.948 24.7431 129.845 25.1628 132.471C25.1917 132.674 25.3847 132.743 25.5294 132.689C25.6741 132.743 25.8671 132.674 25.896 132.471C26.3157 129.845 27.1165 125.948 28.3032 124.746C29.6539 123.386 34.4537 122.604 36.8174 122.298C36.9814 122.278 37.0634 122.139 37.0586 122.001C37.0586 122.006 37.0586 122.006 37.0586 122.001Z" fill="#8C8C8C"/>
<rect x="49" y="18" width="87" height="8" rx="4" fill="#D9D9D9"/>
<rect x="49" y="18" width="87" height="8" rx="4" fill="#8C8C8C"/>
<rect x="49" y="18" width="87" height="8" rx="4" fill="white" fill-opacity="0.4"/>
<rect x="49" y="112" width="87" height="8" rx="4" fill="#D9D9D9"/>
<rect x="49" y="112" width="87" height="8" rx="4" fill="#8C8C8C"/>
<rect x="49" y="112" width="87" height="8" rx="4" fill="white" fill-opacity="0.4"/>
<rect x="49" y="30" width="49" height="8" rx="4" fill="#D9D9D9"/>
<rect x="49" y="30" width="49" height="8" rx="4" fill="#8C8C8C"/>
<rect x="49" y="30" width="49" height="8" rx="4" fill="white" fill-opacity="0.4"/>
<rect x="49" y="124" width="49" height="8" rx="4" fill="#D9D9D9"/>
<rect x="49" y="124" width="49" height="8" rx="4" fill="#8C8C8C"/>
<rect x="49" y="124" width="49" height="8" rx="4" fill="white" fill-opacity="0.4"/>
</g>
<defs>
<clipPath id="clip0_21984_3963">
<rect width="150" height="150" fill="white"/>
</clipPath>
</defs>
</svg>
