<svg width="256" height="275" viewBox="0 0 256 275" fill="none" xmlns="http://www.w3.org/2000/svg">
<path fill-rule="evenodd" clip-rule="evenodd" d="M150.857 272.043C150.857 272.459 150.976 272.867 151.202 273.218C151.427 273.569 151.748 273.847 152.127 274.02C152.507 274.193 152.927 274.253 153.34 274.194C153.752 274.134 154.139 273.957 154.454 273.684C155.078 273.14 155.705 272.594 156.334 272.045C156.334 272.044 156.335 272.044 156.336 272.043C156.64 271.777 156.945 271.511 157.25 271.244C157.275 271.223 157.3 271.201 157.325 271.179C167.118 262.617 177.393 253.452 187.547 244.066C189.242 242.566 190.965 240.964 192.699 239.351C193.755 238.369 194.815 237.383 195.875 236.415C209.248 224.345 223.079 211.625 232.662 198.011C243.862 182.128 251.128 162.334 254.386 139.185C257.166 117.387 256.35 95.2806 251.972 73.7464C244.852 38.0458 220.134 14.0765 182.357 6.20738C163.091 2.36625 143.491 0.449895 123.846 0.486601C88.5801 0.486601 59.1313 6.69015 40.7138 17.9869C3.46834 40.9424 -0.731732 89.1467 0.0889709 115.844C0.933812 143.458 7.33047 181.91 32.6999 208.221C53.0485 229.342 99.0078 240.735 132.005 240.784C134.468 240.765 136.91 241.232 139.192 242.159C141.473 243.086 143.549 244.454 145.301 246.186C147.053 247.917 148.445 249.977 149.398 252.248C150.352 254.519 150.848 256.956 150.857 259.418V272.043ZM157.325 262.575V259.406L157.325 259.394C157.312 256.079 156.645 252.8 155.362 249.744C154.079 246.688 152.205 243.916 149.848 241.586C147.491 239.256 144.697 237.414 141.626 236.167C138.566 234.923 135.291 234.294 131.988 234.316C116.151 234.289 97.0502 231.53 79.4825 226.214C61.7591 220.851 46.4129 213.132 37.3579 203.733L37.356 203.731C13.7015 179.199 7.38491 142.803 6.55405 115.646C6.15538 102.677 6.9938 84.7327 12.31 67.4099C17.6123 50.1325 27.2222 33.9024 44.1019 23.4966C61.0485 13.1048 89.1006 6.9547 123.846 6.95471L123.858 6.95469C143.065 6.9188 162.228 8.79149 181.065 12.5451C216.487 19.9324 239.056 42.0571 245.629 75.0116L245.632 75.0233L245.634 75.0351C249.868 95.8621 250.659 117.242 247.975 138.325C244.826 160.657 237.862 179.413 227.376 194.283L227.373 194.287C218.275 207.211 205.002 219.465 191.541 231.613L191.526 231.626L191.512 231.64C190.355 232.697 189.259 233.716 188.193 234.708C186.516 236.269 184.912 237.761 183.261 239.223L183.208 239.269L183.157 239.316C174.515 247.303 165.78 255.136 157.325 262.575Z" fill="#B9CBD3"/>
<path d="M75.7989 117.982C81.2247 117.982 85.6232 113.583 85.6232 108.157C85.6232 102.732 81.2247 98.3331 75.7989 98.3331C70.3731 98.3331 65.9746 102.732 65.9746 108.157C65.9746 113.583 70.3731 117.982 75.7989 117.982Z" fill="#B9CBD3"/>
<path d="M179.289 117.982C184.714 117.982 189.113 113.583 189.113 108.157C189.113 102.732 184.714 98.3331 179.289 98.3331C173.863 98.3331 169.464 102.732 169.464 108.157C169.464 113.583 173.863 117.982 179.289 117.982Z" fill="#B9CBD3"/>
<path d="M158.813 150.546H98.0509C97.0916 150.546 96.1717 150.927 95.4934 151.605C94.8151 152.284 94.4341 153.204 94.4341 154.163C94.4341 155.122 94.8151 156.042 95.4934 156.72C96.1717 157.399 97.0916 157.78 98.0509 157.78H158.813C159.772 157.78 160.692 157.399 161.37 156.72C162.048 156.042 162.429 155.122 162.429 154.163C162.429 153.204 162.048 152.284 161.37 151.605C160.692 150.927 159.772 150.546 158.813 150.546Z" fill="#B9CBD3"/>
</svg>
