<svg width="256" height="245" viewBox="0 0 256 245" fill="none" xmlns="http://www.w3.org/2000/svg">
<path fill-rule="evenodd" clip-rule="evenodd" d="M134.476 242.8C134.476 243.171 134.583 243.535 134.784 243.847C134.984 244.16 135.271 244.408 135.609 244.562C135.947 244.717 136.322 244.77 136.69 244.717C137.057 244.664 137.402 244.507 137.682 244.263C138.239 243.778 138.798 243.291 139.358 242.802C139.359 242.801 139.36 242.801 139.36 242.8C139.632 242.563 139.903 242.326 140.175 242.088C140.197 242.069 140.22 242.049 140.242 242.03C148.972 234.397 158.131 226.227 167.183 217.861C168.694 216.524 170.229 215.096 171.775 213.658C172.716 212.783 173.661 211.904 174.606 211.04C186.527 200.282 198.856 188.942 207.398 176.806C217.382 162.648 223.859 145.004 226.764 124.369C229.242 104.937 228.515 85.2313 224.612 66.0354C218.265 34.2113 196.231 12.8447 162.556 5.83004C145.382 2.40599 127.91 0.697721 110.398 0.730442C78.9617 0.730442 52.7106 6.26038 36.2929 16.3305C3.09173 36.7934 -0.652277 79.7634 0.0793101 103.562C0.832415 128.177 6.53449 162.454 29.1492 185.908C47.2882 204.736 88.2571 214.892 117.671 214.935C119.867 214.918 122.044 215.335 124.078 216.161C126.112 216.987 127.962 218.207 129.524 219.751C131.085 221.294 132.326 223.13 133.176 225.155C134.026 227.179 134.468 229.351 134.476 231.546V242.8ZM140.242 234.36V231.535L140.242 231.524C140.231 228.57 139.636 225.647 138.492 222.923C137.348 220.198 135.678 217.727 133.577 215.65C131.476 213.573 128.985 211.931 126.248 210.819C123.52 209.711 120.601 209.15 117.657 209.169C103.539 209.146 86.5121 206.686 70.852 201.947C55.053 197.166 41.3732 190.286 33.3014 181.908L33.2997 181.906C12.2137 160.038 6.58302 127.594 5.84238 103.385C5.487 91.825 6.23438 75.8288 10.9734 60.3869C15.6999 44.9856 24.2663 30.5178 39.3131 21.2419C54.4196 11.9785 79.4256 6.49621 110.398 6.49622L110.409 6.4962C127.531 6.46421 144.613 8.13354 161.404 11.4796C192.98 18.0648 213.098 37.787 218.958 67.1632L218.96 67.1737L218.962 67.1841C222.736 85.7497 223.441 104.808 221.049 123.602C218.242 143.509 212.034 160.228 202.686 173.484L202.683 173.488C194.574 185.008 182.742 195.931 170.743 206.76L170.73 206.772L170.717 206.784C169.686 207.726 168.709 208.635 167.759 209.519C166.263 210.91 164.834 212.24 163.361 213.544L163.315 213.585L163.269 213.627C155.566 220.747 147.779 227.729 140.242 234.36Z" fill="#B9CBD3"/>
<path d="M80.4113 104.514C79.1059 104.514 77.854 104.003 76.931 103.093C76.0079 102.184 75.4893 100.95 75.4893 99.6641C75.4893 98.0178 74.8256 96.4388 73.6441 95.2747C72.4626 94.1105 70.8601 93.4565 69.1892 93.4565C67.5183 93.4565 65.9158 94.1105 64.7343 95.2747C63.5528 96.4388 62.889 98.0178 62.889 99.6641C62.889 100.95 62.3705 102.184 61.4474 103.093C60.5244 104.003 59.2724 104.514 57.967 104.514C56.6616 104.514 55.4097 104.003 54.4867 103.093C53.5636 102.184 53.045 100.95 53.045 99.6641C53.045 95.4453 54.7459 91.3993 57.7736 88.4162C60.8012 85.433 64.9075 83.7571 69.1892 83.7571C73.4709 83.7571 77.5772 85.433 80.6048 88.4162C83.6324 91.3993 85.3333 95.4453 85.3333 99.6641C85.3333 100.95 84.8148 102.184 83.8917 103.093C82.9687 104.003 81.7167 104.514 80.4113 104.514Z" fill="#B9CBD3"/>
<path d="M168.051 104.514C166.746 104.514 165.494 104.003 164.571 103.093C163.648 102.184 163.129 100.95 163.129 99.6641C163.129 98.0178 162.465 96.4388 161.284 95.2747C160.102 94.1105 158.5 93.4565 156.829 93.4565C155.158 93.4565 153.555 94.1105 152.374 95.2747C151.192 96.4388 150.529 98.0178 150.529 99.6641C150.529 100.95 150.01 102.184 149.087 103.093C148.164 104.003 146.912 104.514 145.607 104.514C144.301 104.514 143.049 104.003 142.126 103.093C141.203 102.184 140.685 100.95 140.685 99.6641C140.685 95.4453 142.386 91.3993 145.413 88.4162C148.441 85.433 152.547 83.7571 156.829 83.7571C161.111 83.7571 165.217 85.433 168.244 88.4162C171.272 91.3993 172.973 95.4453 172.973 99.6641C172.973 100.95 172.454 102.184 171.531 103.093C170.608 104.003 169.356 104.514 168.051 104.514Z" fill="#B9CBD3"/>
<path d="M231.535 46.4827L212.947 77.935C210.93 81.3331 209.87 85.1858 209.874 89.1064C209.878 93.0269 210.947 96.8774 212.972 100.271C214.997 103.665 217.908 106.483 221.413 108.442C224.917 110.401 228.891 111.433 232.937 111.433C236.983 111.433 240.957 110.401 244.461 108.442C247.966 106.483 250.877 103.665 252.902 100.271C254.927 96.8774 255.996 93.0269 256 89.1064C256.004 85.1858 254.944 81.3331 252.927 77.935L234.338 46.4827C234.196 46.2454 233.991 46.0485 233.745 45.9117C233.499 45.7749 233.221 45.7029 232.937 45.7029C232.653 45.7029 232.375 45.7749 232.129 45.9117C231.883 46.0485 231.678 46.2454 231.535 46.4827Z" fill="#D2DFE6"/>
<path d="M143.907 129.883H83.5198C78.6521 129.883 76.8841 135.626 80.3282 139.108C87.8824 146.673 98.1 155.253 113.691 155.253C129.281 155.253 139.499 146.604 147.053 139.108C150.543 135.626 148.775 129.883 143.907 129.883Z" fill="#B9CBD3"/>
</svg>
