<svg width="256" height="275" viewBox="0 0 256 275" fill="none" xmlns="http://www.w3.org/2000/svg">
<path fill-rule="evenodd" clip-rule="evenodd" d="M150.857 272.287C150.857 272.703 150.976 273.111 151.202 273.462C151.427 273.812 151.748 274.091 152.127 274.264C152.507 274.437 152.927 274.497 153.34 274.438C153.752 274.378 154.139 274.201 154.454 273.928C155.078 273.384 155.705 272.838 156.334 272.289C156.334 272.288 156.335 272.287 156.336 272.287C156.64 272.021 156.945 271.755 157.25 271.488C157.275 271.466 157.3 271.445 157.325 271.423C167.118 262.861 177.393 253.696 187.547 244.31C189.242 242.81 190.965 241.208 192.699 239.595C193.755 238.613 194.815 237.627 195.875 236.658C209.248 224.589 223.079 211.868 232.662 198.254C243.862 182.371 251.128 162.578 254.386 139.429C257.166 117.631 256.35 95.5245 251.972 73.9903C244.852 38.2897 220.134 14.3204 182.357 6.45128C163.091 2.61014 143.491 0.693792 123.846 0.730498C88.5801 0.730498 59.1313 6.93405 40.7138 18.2308C3.46834 41.1863 -0.731732 89.3906 0.0889709 116.088C0.933812 143.702 7.33047 182.154 32.6999 208.465C53.0485 229.586 99.0078 240.979 132.005 241.028C134.468 241.008 136.91 241.476 139.192 242.403C141.473 243.33 143.549 244.698 145.301 246.43C147.053 248.161 148.445 250.221 149.398 252.492C150.352 254.763 150.848 257.199 150.857 259.662V272.287ZM157.325 262.819V259.65L157.325 259.637C157.312 256.323 156.645 253.044 155.362 249.988C154.079 246.932 152.205 244.16 149.848 241.83C147.491 239.5 144.697 237.658 141.626 236.411C138.566 235.167 135.291 234.538 131.988 234.559C116.151 234.533 97.0502 231.773 79.4825 226.458C61.7591 221.095 46.4129 213.376 37.3579 203.977L37.356 203.975C13.7015 179.443 7.38491 143.047 6.55405 115.89C6.15538 102.921 6.9938 84.9766 12.31 67.6538C17.6123 50.3764 27.2222 34.1463 44.1019 23.7405C61.0485 13.3487 89.1006 7.1986 123.846 7.19861L123.858 7.19859C143.065 7.1627 162.228 9.03538 181.065 12.789C216.487 20.1763 239.056 42.301 245.629 75.2555L245.632 75.2672L245.634 75.279C249.868 96.106 250.659 117.486 247.975 138.569C244.826 160.901 237.862 179.657 227.376 194.527L227.373 194.531C218.275 207.455 205.002 219.708 191.541 231.857L191.526 231.87L191.512 231.884C190.355 232.941 189.259 233.96 188.193 234.952C186.516 236.513 184.912 238.005 183.261 239.467L183.208 239.513L183.157 239.56C174.515 247.547 165.78 255.38 157.325 262.819Z" fill="#B9CBD3"/>
<path d="M90.2062 117.156C88.7418 117.156 87.3373 116.583 86.3018 115.562C85.2663 114.542 84.6846 113.158 84.6846 111.715C84.6846 109.868 83.94 108.097 82.6146 106.791C81.2891 105.485 79.4915 104.752 77.617 104.752C75.7426 104.752 73.9449 105.485 72.6195 106.791C71.2941 108.097 70.5494 109.868 70.5494 111.715C70.5494 113.158 69.9677 114.542 68.9322 115.562C67.8967 116.583 66.4923 117.156 65.0279 117.156C63.5635 117.156 62.1591 116.583 61.1236 115.562C60.0881 114.542 59.5063 113.158 59.5063 111.715C59.5063 106.983 61.4144 102.444 64.8108 99.0972C68.2073 95.7507 72.8138 93.8706 77.617 93.8706C82.4203 93.8706 87.0268 95.7507 90.4232 99.0972C93.8196 102.444 95.7277 106.983 95.7277 111.715C95.7277 113.158 95.146 114.542 94.1105 115.562C93.075 116.583 91.6706 117.156 90.2062 117.156Z" fill="#B9CBD3"/>
<path d="M188.522 117.156C187.057 117.156 185.653 116.583 184.617 115.562C183.582 114.542 183 113.158 183 111.715C183 109.868 182.255 108.097 180.93 106.791C179.605 105.485 177.807 104.752 175.932 104.752C174.058 104.752 172.26 105.485 170.935 106.791C169.609 108.097 168.865 109.868 168.865 111.715C168.865 113.158 168.283 114.542 167.248 115.562C166.212 116.583 164.808 117.156 163.343 117.156C161.879 117.156 160.474 116.583 159.439 115.562C158.404 114.542 157.822 113.158 157.822 111.715C157.822 106.983 159.73 102.444 163.126 99.0972C166.523 95.7507 171.129 93.8706 175.932 93.8706C180.736 93.8706 185.342 95.7507 188.739 99.0972C192.135 102.444 194.043 106.983 194.043 111.715C194.043 113.158 193.461 114.542 192.426 115.562C191.39 116.583 189.986 117.156 188.522 117.156Z" fill="#B9CBD3"/>
<path opacity="0.5" d="M191.604 116.491L190.23 138.192C190.049 139.987 190.232 141.799 190.767 143.522C191.303 145.245 192.181 146.841 193.347 148.217C194.514 149.593 195.947 150.719 197.559 151.529C199.171 152.338 200.929 152.814 202.73 152.929C204.53 153.043 206.335 152.793 208.037 152.194C209.738 151.595 211.301 150.659 212.633 149.442C213.964 148.225 215.037 146.752 215.786 145.111C216.535 143.47 216.946 141.695 216.994 139.892C217.111 137.544 216.616 135.206 215.557 133.107C214.498 131.009 212.912 129.221 210.954 127.92L192.87 115.768C192.74 115.718 192.6 115.697 192.461 115.708C192.322 115.718 192.186 115.759 192.065 115.829C191.944 115.898 191.84 115.993 191.76 116.108C191.68 116.223 191.627 116.353 191.604 116.491Z" fill="#D2DFE6"/>
<path opacity="0.5" d="M63.7096 116.491L65.0839 138.192C65.2649 139.987 65.082 141.799 64.5464 143.522C64.0107 145.245 63.1332 146.841 61.9663 148.217C60.7995 149.593 59.3672 150.719 57.7551 151.529C56.143 152.338 54.3842 152.814 52.5839 152.929C50.7836 153.043 48.9787 152.793 47.2772 152.194C45.5756 151.595 44.0124 150.659 42.6808 149.442C41.3493 148.225 40.2768 146.752 39.5275 145.111C38.7782 143.47 38.3675 141.695 38.3199 139.892C38.2029 137.544 38.6981 135.206 39.757 133.107C40.8158 131.009 42.402 129.221 44.3599 127.92L62.4437 115.768C62.574 115.718 62.7138 115.697 62.853 115.708C62.9922 115.718 63.1273 115.759 63.2485 115.829C63.3697 115.898 63.4739 115.993 63.5537 116.108C63.6334 116.223 63.6867 116.353 63.7096 116.491Z" fill="#D2DFE6"/>
<path d="M161.437 145.615H93.6936C88.2329 145.615 86.2496 152.058 90.1133 155.964C98.5876 164.451 110.05 174.075 127.54 174.075C145.029 174.075 156.491 164.373 164.966 155.964C168.881 152.058 166.898 145.615 161.437 145.615Z" fill="#B9CBD3"/>
</svg>
