<svg width="256" height="275" viewBox="0 0 256 275" fill="none" xmlns="http://www.w3.org/2000/svg">
<path fill-rule="evenodd" clip-rule="evenodd" d="M150.857 271.993C150.857 272.41 150.976 272.818 151.202 273.168C151.427 273.519 151.748 273.797 152.127 273.97C152.507 274.143 152.927 274.204 153.34 274.144C153.752 274.085 154.139 273.908 154.454 273.635C155.078 273.091 155.705 272.544 156.334 271.995C156.334 271.995 156.335 271.994 156.336 271.993C156.64 271.728 156.945 271.461 157.25 271.195C157.275 271.173 157.3 271.151 157.325 271.129C167.118 262.567 177.393 253.402 187.547 244.017C189.242 242.517 190.965 240.914 192.699 239.302C193.755 238.319 194.815 237.333 195.875 236.365C209.248 224.296 223.079 211.575 232.662 197.961C243.862 182.078 251.128 162.284 254.386 139.136C257.166 117.338 256.35 95.2309 251.972 73.6967C244.852 37.9962 220.134 14.0268 182.357 6.1577C163.091 2.31656 143.491 0.400213 123.846 0.436919C88.5801 0.436919 59.1313 6.64047 40.7138 17.9372C3.46834 40.8928 -0.731732 89.097 0.0889709 115.794C0.933812 143.408 7.33047 181.861 32.6998 208.171C53.0485 229.292 99.0078 240.686 132.005 240.734C134.468 240.715 136.91 241.182 139.192 242.109C141.473 243.036 143.549 244.405 145.301 246.136C147.053 247.868 148.445 249.928 149.398 252.199C150.352 254.469 150.847 256.906 150.857 259.369V271.993ZM157.325 262.525C165.78 255.086 174.515 247.254 183.157 239.267L183.208 239.219L183.261 239.173C184.912 237.711 186.516 236.219 188.194 234.658C189.26 233.666 190.355 232.647 191.512 231.59L191.526 231.577L191.541 231.563C205.002 219.415 218.275 207.162 227.372 194.238L227.376 194.233C237.861 179.363 244.826 160.608 247.975 138.277C250.659 117.194 249.868 95.8129 245.634 74.9854L245.631 74.9737L245.629 74.962C239.056 42.0075 216.487 19.8829 181.065 12.4956C162.228 8.74192 143.065 6.86923 123.858 6.90512L123.846 6.90514C89.1001 6.90513 61.0477 13.0555 44.1012 23.4475C27.2219 33.8533 17.6123 50.0832 12.3101 67.3602C6.9939 84.6831 6.15546 102.627 6.55412 115.595C7.38499 142.753 13.7016 179.149 37.3561 203.682L37.3579 203.684C46.4129 213.082 61.7591 220.801 79.4825 226.164C97.0502 231.48 116.151 234.24 131.988 234.266C135.291 234.245 138.566 234.873 141.626 236.117C144.697 237.364 147.491 239.206 149.848 241.536C152.205 243.866 154.079 246.639 155.362 249.694C156.645 252.75 157.312 256.03 157.325 259.344L157.325 259.356V262.525Z" fill="#B9CBD3"/>
<path d="M87.2747 105.374L73.8167 109.404C71.7094 110.035 70.5112 112.249 71.1403 114.35C71.7693 116.451 73.9875 117.643 76.0947 117.012L89.5528 112.982C91.66 112.351 92.8583 110.136 92.2292 108.035C91.6002 105.934 89.382 104.743 87.2747 105.374Z" fill="#B9CBD3"/>
<path d="M167.899 112.988L181.38 117.025C183.487 117.656 185.706 116.464 186.335 114.363C186.964 112.263 185.765 110.048 183.658 109.417L170.177 105.38C168.07 104.749 165.852 105.941 165.223 108.041C164.593 110.142 165.792 112.357 167.899 112.988Z" fill="#B9CBD3"/>
<path d="M161.439 131.094H93.6949C88.2342 131.094 86.2508 137.537 90.1145 141.443C98.589 149.93 110.051 159.554 127.541 159.554C145.031 159.554 156.494 149.852 164.968 141.443C168.884 137.537 166.9 131.094 161.439 131.094Z" fill="#B9CBD3"/>
</svg>
