<svg width="256" height="274" viewBox="0 0 256 274" fill="none" xmlns="http://www.w3.org/2000/svg">
<path fill-rule="evenodd" clip-rule="evenodd" d="M150.857 271.557C150.857 271.973 150.976 272.381 151.202 272.732C151.427 273.083 151.748 273.361 152.127 273.534C152.507 273.707 152.927 273.767 153.34 273.708C153.752 273.648 154.139 273.471 154.454 273.198C155.078 272.654 155.705 272.108 156.334 271.559C156.334 271.558 156.335 271.557 156.336 271.557C156.64 271.291 156.945 271.025 157.25 270.758C157.275 270.736 157.3 270.715 157.325 270.693C167.118 262.131 177.393 252.966 187.547 243.58C189.242 242.08 190.966 240.477 192.699 238.865C193.755 237.883 194.815 236.897 195.875 235.929C209.248 223.859 223.079 211.138 232.662 197.524C243.862 181.641 251.128 161.848 254.386 138.699C257.166 116.901 256.35 94.7945 251.972 73.2603C244.852 37.5598 220.134 13.5904 182.357 5.7213C163.091 1.88016 143.491 -0.0361886 123.846 0.000517417C88.5801 0.000517417 59.1313 6.20407 40.7138 17.5008C3.46834 40.4564 -0.731732 88.6606 0.0889709 115.358C0.933812 142.972 7.33047 181.424 32.6999 207.735C53.0485 228.856 99.0078 240.249 132.005 240.298C134.468 240.278 136.91 240.746 139.192 241.673C141.473 242.6 143.549 243.968 145.301 245.7C147.053 247.431 148.445 249.491 149.398 251.762C150.352 254.033 150.848 256.47 150.857 258.932V271.557ZM157.325 262.089C165.78 254.65 174.515 246.817 183.157 238.83L183.208 238.783L183.261 238.737C184.913 237.275 186.516 235.782 188.194 234.222C189.26 233.23 190.355 232.21 191.512 231.154L191.526 231.14L191.541 231.127C205.002 218.979 218.275 206.725 227.373 193.801L227.376 193.797C237.862 178.927 244.826 160.172 247.975 137.841C250.659 116.757 249.868 95.3765 245.634 74.549L245.632 74.5373L245.629 74.5255C239.056 41.571 216.487 19.4464 181.065 12.059C162.228 8.3054 143.065 6.43272 123.858 6.46861L123.846 6.46863C89.1012 6.46862 61.0495 12.6185 44.1029 23.0099C27.2225 33.4157 17.6124 49.6461 12.31 66.9238C6.9938 84.2467 6.15535 102.19 6.55402 115.159C7.38488 142.316 13.7015 178.713 37.356 203.245L37.3579 203.247C46.4129 212.646 61.7591 220.365 79.4825 225.728C97.0502 231.044 116.151 233.803 131.988 233.829C135.291 233.808 138.566 234.437 141.626 235.681C144.697 236.928 147.491 238.77 149.848 241.1C152.205 243.43 154.079 246.202 155.362 249.258C156.645 252.314 157.312 255.593 157.325 258.908L157.325 258.92V262.089Z" fill="#B9CBD3"/>
<path d="M75.7989 117.496C81.2247 117.496 85.6232 113.097 85.6232 107.671C85.6232 102.246 81.2247 97.8472 75.7989 97.8472C70.3731 97.8472 65.9746 102.246 65.9746 107.671C65.9746 113.097 70.3731 117.496 75.7989 117.496Z" fill="#B9CBD3"/>
<path d="M179.289 117.496C184.714 117.496 189.113 113.097 189.113 107.671C189.113 102.246 184.714 97.8472 179.289 97.8472C173.863 97.8472 169.464 102.246 169.464 107.671C169.464 113.097 173.863 117.496 179.289 117.496Z" fill="#B9CBD3"/>
<path d="M128.028 163.855C123.982 163.848 119.948 163.436 115.984 162.625V169.859C115.955 171.482 116.25 173.095 116.852 174.604C117.453 176.112 118.349 177.485 119.487 178.644C120.625 179.802 121.982 180.722 123.48 181.35C124.977 181.978 126.585 182.301 128.209 182.301C129.814 182.301 131.404 181.984 132.887 181.37C134.37 180.756 135.718 179.855 136.853 178.72C137.988 177.585 138.889 176.237 139.503 174.754C140.117 173.271 140.433 171.681 140.433 170.076L140.358 162.349C136.27 163.125 132.187 163.957 128.028 163.855Z" fill="#D2DFE6"/>
<path d="M128.027 163.854H126.4V170.364C126.4 170.844 126.59 171.304 126.93 171.643C127.269 171.982 127.729 172.173 128.208 172.173C128.688 172.173 129.148 171.982 129.487 171.643C129.826 171.304 130.017 170.844 130.017 170.364V163.818L128.027 163.854Z" fill="#B9CBD3"/>
<path d="M128.029 163.854C113.019 163.854 100.18 158.646 96.093 150.87C95.689 150.04 95.6175 149.087 95.8931 148.206C96.1688 147.325 96.7708 146.583 97.5759 146.132C97.9957 145.904 98.4566 145.762 98.9317 145.713C99.4069 145.664 99.887 145.71 100.344 145.848C100.802 145.986 101.227 146.213 101.596 146.516C101.965 146.819 102.271 147.193 102.495 147.615C104.809 152.063 114.575 156.765 128.029 156.765C141.483 156.765 151.864 151.882 153.78 147.144C153.961 146.703 154.227 146.301 154.562 145.962C154.898 145.623 155.298 145.353 155.737 145.169C156.177 144.984 156.649 144.888 157.127 144.885C157.604 144.883 158.077 144.975 158.518 145.155C158.96 145.336 159.362 145.601 159.701 145.937C160.04 146.273 160.31 146.672 160.494 147.112C160.679 147.552 160.775 148.024 160.778 148.501C160.78 148.979 160.688 149.451 160.508 149.893C157.072 158.067 143.726 163.854 128.029 163.854Z" fill="#B9CBD3"/>
</svg>
