<svg width="256" height="275" viewBox="0 0 256 275" fill="none" xmlns="http://www.w3.org/2000/svg">
<path d="M75.1522 117.932C80.578 117.932 84.9765 113.534 84.9765 108.108C84.9765 102.682 80.578 98.2834 75.1522 98.2834C69.7264 98.2834 65.3279 102.682 65.3279 108.108C65.3279 113.534 69.7264 117.932 75.1522 117.932Z" fill="#B9CBD3"/>
<path d="M178.642 117.932C184.067 117.932 188.466 113.534 188.466 108.108C188.466 102.682 184.067 98.2834 178.642 98.2834C173.216 98.2834 168.817 102.682 168.817 108.108C168.817 113.534 173.216 117.932 178.642 117.932Z" fill="#B9CBD3"/>
<path d="M158.166 150.496H97.4041C96.4449 150.496 95.525 150.877 94.8467 151.556C94.1684 152.234 93.7874 153.154 93.7874 154.113C93.7874 155.072 94.1684 155.992 94.8467 156.671C95.525 157.349 96.4449 157.73 97.4041 157.73H158.166C159.125 157.73 160.045 157.349 160.723 156.671C161.402 155.992 161.783 155.072 161.783 154.113C161.783 153.154 161.402 152.234 160.723 151.556C160.045 150.877 159.125 150.496 158.166 150.496Z" fill="#B9CBD3"/>
<path fill-rule="evenodd" clip-rule="evenodd" d="M196.073 91.8478C188.019 79.7921 173.329 78.6603 164.112 89.3853L162.972 90.7127C161.902 91.9574 160.213 91.9014 159.2 90.5875C158.186 89.2736 158.232 87.1994 159.302 85.9547L160.442 84.6273C171.907 71.2865 190.18 72.6943 200.198 87.6903L200.552 88.2212C201.487 89.6204 201.321 91.6853 200.182 92.8334C199.043 93.9814 197.362 93.7778 196.427 92.3786L196.073 91.8478Z" fill="#B9CBD3"/>
<path fill-rule="evenodd" clip-rule="evenodd" d="M123.857 6.15119L123.846 6.15122C89.0399 6.1512 60.825 12.3076 43.7071 22.8048C26.6242 33.3355 16.9267 49.7474 11.5894 67.1391C6.23972 84.5709 5.40053 102.606 5.80056 115.618C6.63305 142.829 12.959 179.465 36.8134 204.205L36.815 204.207C46.0005 213.741 61.4901 221.507 79.2642 226.886C96.8998 232.222 116.074 234.993 131.988 235.02C135.194 234.998 138.372 235.609 141.343 236.815C144.321 238.026 147.032 239.812 149.318 242.072C151.605 244.332 153.422 247.022 154.667 249.986C155.912 252.951 156.559 256.132 156.571 259.347L156.571 259.358V264.192C165.418 256.423 174.594 248.207 183.669 239.82L183.714 239.778L183.76 239.738C185.417 238.271 187.035 236.766 188.719 235.199C189.784 234.208 190.875 233.193 192.02 232.147L192.033 232.135L192.046 232.123C205.496 219.984 218.835 207.676 227.989 194.672L227.992 194.668C238.561 179.679 245.561 160.803 248.723 138.376C251.417 117.21 250.624 95.7447 246.373 74.8352L246.371 74.8249L246.368 74.8145C239.732 41.5399 216.912 19.2003 181.216 11.7568C162.329 7.99298 143.115 6.11521 123.857 6.15119ZM182.357 6.1577C163.091 2.31656 143.491 0.400213 123.846 0.436919C88.5801 0.436919 59.1313 6.64047 40.7138 17.9372C3.46834 40.8928 -0.731732 89.097 0.0889709 115.794C0.933812 143.408 7.33047 181.861 32.6999 208.171C53.0485 229.292 99.0078 240.686 132.005 240.734C134.468 240.715 136.91 241.182 139.192 242.109C141.473 243.036 143.549 244.405 145.301 246.136C147.053 247.868 148.445 249.928 149.398 252.199C150.352 254.469 150.848 256.906 150.857 259.369V271.993C150.857 272.41 150.976 272.818 151.202 273.168C151.427 273.519 151.748 273.797 152.127 273.97C152.507 274.143 152.927 274.204 153.34 274.144C153.752 274.085 154.139 273.908 154.454 273.635C155.078 273.091 155.705 272.544 156.334 271.995C156.334 271.995 156.335 271.994 156.336 271.993C156.413 271.926 156.489 271.86 156.566 271.793C156.567 271.791 156.569 271.789 156.571 271.788C166.59 263.038 177.132 253.643 187.547 244.017C189.242 242.517 190.965 240.914 192.699 239.302C193.755 238.319 194.815 237.334 195.875 236.365C209.248 224.296 223.079 211.575 232.662 197.961C243.862 182.078 251.128 162.284 254.386 139.136C257.166 117.338 256.35 95.2309 251.972 73.6967C244.852 37.9962 220.134 14.0268 182.357 6.1577Z" fill="#B9CBD3"/>
<path fill-rule="evenodd" clip-rule="evenodd" d="M53.0385 91.6366C53.0385 89.8505 54.4864 88.4026 56.2725 88.4026H95.0811C96.8672 88.4026 98.3152 89.8505 98.3152 91.6366C98.3152 93.4228 96.8672 94.8707 95.0811 94.8707H56.2725C54.4864 94.8707 53.0385 93.4228 53.0385 91.6366Z" fill="#B9CBD3"/>
</svg>
