<svg width="256" height="275" viewBox="0 0 256 275" fill="none" xmlns="http://www.w3.org/2000/svg">
<path fill-rule="evenodd" clip-rule="evenodd" d="M150.857 272.287C150.857 272.703 150.976 273.111 151.202 273.462C151.427 273.813 151.748 274.091 152.127 274.264C152.507 274.437 152.927 274.497 153.34 274.438C153.752 274.378 154.139 274.201 154.454 273.928C155.078 273.384 155.705 272.838 156.334 272.289C156.334 272.288 156.335 272.287 156.336 272.287C156.64 272.021 156.945 271.755 157.25 271.488C157.275 271.466 157.3 271.445 157.325 271.423C167.118 262.861 177.393 253.696 187.547 244.31C189.242 242.81 190.966 241.207 192.699 239.595C193.755 238.613 194.815 237.627 195.875 236.659C209.248 224.589 223.079 211.868 232.662 198.254C243.862 182.371 251.128 162.578 254.386 139.429C257.166 117.631 256.35 95.5245 251.972 73.9903C244.852 38.2897 220.134 14.3204 182.357 6.45128C163.091 2.61014 143.491 0.693792 123.846 0.730498C88.5801 0.730498 59.1313 6.93405 40.7138 18.2308C3.46834 41.1863 -0.731732 89.3906 0.0889709 116.088C0.933812 143.702 7.33047 182.154 32.6999 208.465C53.0485 229.586 99.0078 240.979 132.005 241.028C134.468 241.008 136.91 241.476 139.192 242.403C141.473 243.33 143.549 244.698 145.301 246.43C147.053 248.161 148.445 250.221 149.398 252.492C150.352 254.763 150.848 257.2 150.857 259.662V272.287ZM157.325 262.819C165.78 255.38 174.515 247.547 183.157 239.56L183.208 239.513L183.261 239.467C184.913 238.005 186.516 236.512 188.194 234.952C189.26 233.96 190.355 232.94 191.512 231.884L191.526 231.87L191.541 231.857C205.002 219.709 218.275 207.455 227.373 194.531L227.376 194.527C237.862 179.657 244.826 160.902 247.975 138.571C250.659 117.487 249.868 96.1065 245.634 75.279L245.632 75.2673L245.629 75.2555C239.056 42.301 216.487 20.1763 181.065 12.789C162.228 9.03538 143.065 7.1627 123.858 7.19859L123.846 7.19861C89.1012 7.1986 61.0495 13.3485 44.1029 23.7399C27.2225 34.1457 17.6124 50.3761 12.31 67.6538C6.9938 84.9767 6.15535 102.92 6.55402 115.889C7.38488 143.046 13.7015 179.443 37.356 203.975L37.3579 203.977C46.4129 213.376 61.7591 221.095 79.4825 226.458C97.0502 231.774 116.151 234.533 131.988 234.559C135.291 234.538 138.566 235.167 141.626 236.411C144.697 237.658 147.491 239.5 149.848 241.83C152.205 244.16 154.079 246.932 155.362 249.988C156.645 253.044 157.312 256.323 157.325 259.637L157.325 259.65V262.819Z" fill="#B9CBD3"/>
<path d="M128.07 165.878C113.061 165.878 100.221 160.67 96.1344 152.894C95.7149 152.085 95.6159 151.148 95.8573 150.27C96.0987 149.391 96.6626 148.636 97.4364 148.156C97.8563 147.928 98.3171 147.786 98.7923 147.737C99.2675 147.688 99.7476 147.734 100.205 147.872C100.662 148.01 101.088 148.237 101.457 148.54C101.826 148.843 102.131 149.217 102.355 149.639C104.67 154.087 114.435 158.789 127.89 158.789C141.344 158.789 151.724 153.906 153.641 149.168C154.006 148.276 154.709 147.566 155.598 147.192C156.487 146.819 157.487 146.815 158.379 147.179C159.271 147.544 159.982 148.248 160.355 149.136C160.728 150.025 160.733 151.025 160.368 151.917C157.005 160.091 143.586 165.878 128.07 165.878Z" fill="#B9CBD3"/>
<path fill-rule="evenodd" clip-rule="evenodd" d="M165.934 106.808H192.879C193.976 106.818 195.025 107.26 195.797 108.039C196.569 108.818 197.002 109.871 197.002 110.967C197.002 112.064 196.569 113.117 195.797 113.896C195.025 114.675 193.976 115.117 192.879 115.127H165.934C165.382 115.136 164.833 115.036 164.32 114.831C163.807 114.626 163.34 114.322 162.946 113.934C162.552 113.547 162.24 113.085 162.026 112.576C161.812 112.067 161.703 111.52 161.703 110.967C161.703 109.864 162.141 108.806 162.921 108.026C163.701 107.246 164.759 106.808 165.862 106.808H165.934Z" fill="#B9CBD3"/>
<path fill-rule="evenodd" clip-rule="evenodd" d="M62.336 106.808H89.2809C89.8332 106.798 90.3818 106.898 90.8949 107.103C91.4079 107.308 91.875 107.613 92.2689 108C92.6628 108.387 92.9757 108.849 93.1892 109.358C93.4027 109.868 93.5126 110.414 93.5126 110.967C93.5126 112.07 93.0744 113.128 92.2943 113.908C91.5143 114.688 90.4564 115.126 89.3533 115.126H62.336C61.2392 115.117 60.1905 114.674 59.4183 113.895C58.6461 113.116 58.2128 112.064 58.2129 110.967C58.2128 109.87 58.6461 108.817 59.4183 108.038C60.1905 107.259 61.2392 106.817 62.336 106.808Z" fill="#B9CBD3"/>
</svg>
