<svg width="256" height="253" viewBox="0 0 256 253" fill="none" xmlns="http://www.w3.org/2000/svg">
<path fill-rule="evenodd" clip-rule="evenodd" d="M124.055 6.34118L124.043 6.3412C91.9833 6.34119 66.1167 12.0049 50.5025 21.56C34.957 31.1236 26.1042 46.04 21.2177 61.9292C16.3176 77.8625 15.544 94.3709 15.9116 106.306C16.6781 131.306 22.5054 164.783 44.3015 187.34L44.3032 187.342C52.639 195.976 66.7798 203.077 83.1304 208.014C99.3332 212.907 116.95 215.447 131.555 215.471C134.618 215.452 137.655 216.033 140.494 217.184C143.341 218.339 145.933 220.043 148.121 222.201C150.308 224.358 152.047 226.926 153.239 229.758C154.43 232.589 155.05 235.628 155.061 238.7L155.061 238.711V241.356C162.804 234.556 170.797 227.402 178.706 220.108L178.754 220.063L178.803 220.02C180.327 218.674 181.805 217.302 183.352 215.866C184.336 214.952 185.348 214.013 186.417 213.037L186.431 213.025L186.445 213.012C198.87 201.822 211.109 190.546 219.495 178.658L219.498 178.653C229.161 164.979 235.582 147.728 238.486 127.18C240.961 107.779 240.232 88.1042 236.327 68.9384L236.325 68.9273L236.322 68.9162C230.268 38.6278 209.484 18.2838 176.831 11.4878C159.453 8.03216 141.774 6.30814 124.055 6.34118ZM244.521 127.991C241.514 149.31 234.808 167.54 224.471 182.168C215.627 194.706 202.862 206.422 190.52 217.537C189.542 218.429 188.564 219.337 187.589 220.242C185.989 221.727 184.399 223.203 182.834 224.584C173.504 233.19 164.064 241.594 155.061 249.45C155.033 249.474 155.005 249.499 154.977 249.523C154.66 249.799 154.344 250.075 154.029 250.35C154.028 250.351 154.027 250.351 154.027 250.352C153.446 250.858 152.868 251.361 152.291 251.862C152.001 252.113 151.644 252.276 151.264 252.331C150.883 252.386 150.495 252.33 150.145 252.171C149.795 252.012 149.498 251.755 149.29 251.432C149.082 251.109 148.972 250.734 148.972 250.35V238.723C148.963 236.455 148.506 234.211 147.626 232.119C146.746 230.028 145.461 228.131 143.844 226.536C142.228 224.942 140.312 223.681 138.206 222.827C136.1 221.974 133.846 221.543 131.573 221.561C101.119 221.516 58.7026 211.023 39.9224 191.571C16.5085 167.34 10.6049 131.926 9.82516 106.493C9.06771 81.9061 12.944 37.5109 47.3186 16.3692C64.3166 5.96517 91.4954 0.251819 124.043 0.251819C142.174 0.218014 160.264 1.98294 178.045 5.52055C212.909 12.7678 235.722 34.8432 242.294 67.7227C246.334 87.5553 247.087 107.915 244.521 127.991Z" fill="#B9CBD3"/>
<path d="M75.613 111.974C80.6071 111.974 84.6556 107.926 84.6556 102.932C84.6556 97.9375 80.6071 93.8889 75.613 93.8889C70.6188 93.8889 66.5703 97.9375 66.5703 102.932C66.5703 107.926 70.6188 111.974 75.613 111.974Z" fill="#B9CBD3"/>
<path d="M169.894 125.692C181.664 125.692 191.206 116.15 191.206 104.38C191.206 92.6088 181.664 83.0668 169.894 83.0668C158.123 83.0668 148.581 92.6088 148.581 104.38C148.581 116.15 158.123 125.692 169.894 125.692Z" fill="#B9CBD3"/>
<path d="M125.344 165.882C112.389 165.882 101.308 161.201 97.7807 154.211C97.4186 153.485 97.3332 152.642 97.5415 151.853C97.7499 151.063 98.2366 150.385 98.9044 149.953C99.2668 149.748 99.6645 149.62 100.075 149.576C100.485 149.532 100.899 149.574 101.294 149.698C101.688 149.822 102.056 150.026 102.374 150.298C102.693 150.571 102.956 150.906 103.15 151.285C105.147 155.284 113.576 159.51 125.188 159.51C136.8 159.51 145.759 155.122 147.413 150.863C147.728 150.061 148.335 149.422 149.102 149.087C149.869 148.751 150.732 148.747 151.502 149.075C152.272 149.402 152.886 150.035 153.208 150.834C153.53 151.633 153.534 152.532 153.219 153.334C150.316 160.681 138.735 165.882 125.344 165.882Z" fill="#B9CBD3"/>
<path d="M210.483 145.77C208.581 143.867 208.581 140.783 210.483 138.88C212.386 136.978 215.47 136.978 217.373 138.88L245.618 167.126C247.52 169.028 247.52 172.112 245.618 174.015C243.715 175.917 240.631 175.917 238.729 174.015L210.483 145.77Z" fill="#8CA0B3"/>
<path fill-rule="evenodd" clip-rule="evenodd" d="M118.751 100.726C118.751 129.643 142.194 153.086 171.111 153.086C200.029 153.086 223.471 129.643 223.471 100.726C223.471 71.8084 200.029 48.3661 171.111 48.3661C142.194 48.3661 118.751 71.8084 118.751 100.726ZM171.111 39.2233C137.144 39.2233 109.609 66.759 109.609 100.726C109.609 134.693 137.144 162.229 171.111 162.229C205.078 162.229 232.614 134.693 232.614 100.726C232.614 66.759 205.078 39.2233 171.111 39.2233Z" fill="#8CA0B3"/>
</svg>
