<svg width="256" height="335" viewBox="0 0 256 335" fill="none" xmlns="http://www.w3.org/2000/svg">
<path fill-rule="evenodd" clip-rule="evenodd" d="M150.695 332.216C150.695 332.632 150.814 333.039 151.039 333.39C151.264 333.74 151.585 334.018 151.964 334.191C152.343 334.364 152.763 334.424 153.175 334.364C153.587 334.305 153.973 334.128 154.287 333.855C154.911 333.312 155.537 332.766 156.165 332.218C156.166 332.217 156.167 332.216 156.168 332.216C156.472 331.95 156.776 331.684 157.081 331.418C157.106 331.396 157.131 331.374 157.156 331.353C166.939 322.8 177.202 313.644 187.346 304.269C189.039 302.771 190.76 301.17 192.492 299.559C193.547 298.578 194.606 297.593 195.664 296.626C209.023 284.57 222.839 271.862 232.412 258.263C243.6 242.397 250.857 222.625 254.113 199.501C256.889 177.726 256.075 155.644 251.701 134.132C244.588 98.4703 219.897 74.5267 182.161 66.6661C162.916 62.8291 143.337 60.9148 123.713 60.9514C88.4848 60.9514 59.0677 67.1483 40.67 78.4329C3.46461 101.364 -0.730945 149.516 0.0888752 176.184C0.932808 203.769 7.32259 242.18 32.6647 268.462C52.9914 289.561 98.9014 300.942 131.863 300.99C134.323 300.971 136.763 301.438 139.042 302.364C141.321 303.29 143.395 304.657 145.145 306.386C146.894 308.116 148.285 310.174 149.238 312.442C150.19 314.711 150.685 317.145 150.695 319.605V332.216ZM157.156 322.758C165.602 315.327 174.328 307.503 182.96 299.524L183.011 299.477L183.064 299.431C184.714 297.971 186.316 296.48 187.991 294.921C189.056 293.93 190.151 292.912 191.306 291.856L191.321 291.843L191.335 291.829C204.781 279.694 218.041 267.454 227.128 254.544L227.131 254.539C237.606 239.685 244.563 220.95 247.709 198.643C250.39 177.583 249.6 156.225 245.37 135.42L245.367 135.408L245.365 135.396C238.799 102.477 216.254 80.3764 180.87 72.997C162.054 69.2474 142.911 67.3767 123.725 67.4126L123.713 67.4126C89.0054 67.4126 60.9839 73.5559 44.0554 83.9361C27.1932 94.3307 17.5935 110.544 12.2968 127.803C6.98628 145.107 6.14873 163.031 6.54697 175.986C7.37694 203.114 13.6868 239.472 37.3159 263.978L37.3177 263.98C46.363 273.368 61.6927 281.079 79.397 286.436C96.9459 291.746 116.026 294.503 131.846 294.529C135.146 294.508 138.417 295.136 141.474 296.378C144.541 297.624 147.332 299.464 149.687 301.791C152.042 304.119 153.913 306.888 155.195 309.941C156.477 312.994 157.143 316.269 157.156 319.58L157.156 319.592V322.758Z" fill="#B9CBD3"/>
<path opacity="0.2" d="M137.839 93.8412C153.801 99.2906 179.071 99.9899 198.553 112.48C205.787 117.013 216.156 119.569 219.001 115.036C221.846 110.503 221.291 103.366 211.502 95.9631C200.29 87.5238 189.294 80.9652 149.075 76.6732C131.883 74.7924 125.758 89.718 137.839 93.8412Z" fill="white"/>
<path opacity="0.2" d="M223.269 140.353C228.023 140.353 231.877 136.499 231.877 131.745C231.877 126.991 228.023 123.137 223.269 123.137C218.514 123.137 214.66 126.991 214.66 131.745C214.66 136.499 218.514 140.353 223.269 140.353Z" fill="white"/>
<path opacity="0.6" d="M128.021 143.98C128.021 143.98 33.4203 145.125 3.87672 124.27C3.87672 124.27 -2.8839 163.809 43.6212 168.859C74.7927 173.719 129.289 173.369 129.289 173.369C129.289 173.369 183.772 173.719 214.944 168.859C262.643 163.809 251.985 124.27 251.985 124.27C222.454 145.125 128.021 143.98 128.021 143.98Z" fill="#D2DFE6"/>
<path d="M213.188 43.9046C198.828 36.2584 163.696 32.8069 143.453 31.4213C154.79 27.806 173.194 21.3439 176.116 18.4215C180.273 14.2646 165.145 5.92561 157.473 3.73378C150.205 1.66793 132.947 27.8186 131.083 30.6907L129.521 30.6277C129.521 30.6277 108.535 -2.08588 100.007 0.345278C91.4792 2.77644 74.6248 12.0476 79.273 16.6832C82.5482 19.9583 103.345 27.2392 115.955 31.2449C96.2785 32.5046 58.6145 35.9183 43.5992 43.9046C28.584 51.8909 1.224 95.2015 0.304443 121.478L29.2768 149.691H227.473L255.427 121.478C254.533 95.2015 228.04 51.8657 213.188 43.9046Z" fill="#D2DFE6"/>
<path d="M128.39 137.572C128.39 137.572 29.5686 139.852 0.3065 120.34C0.3065 120.34 -1.26834 156.125 44.7936 160.849C75.6681 165.396 129.645 165.069 129.645 165.069C129.645 165.069 183.609 165.396 214.483 160.849C261.728 156.125 255.757 120.616 255.757 120.616C226.507 140.128 128.39 137.572 128.39 137.572Z" fill="#B9CBD3"/>
<path d="M17.856 139.642L12.9055 138.735C21.1689 95.7676 40.0387 68.0171 54.0085 53.6065C69.263 37.8355 79.353 35.8326 79.9072 35.6185L91.647 33.2878L84.8955 36.8655C84.3916 37.0671 33.1484 60.0938 17.856 139.642Z" fill="#B9CBD3"/>
<path d="M239.041 138.798L243.991 137.853C235.728 94.8857 217.337 68.6846 203.367 54.337C188.113 38.6164 178.174 36.8276 177.67 36.6009L164.089 33.2878L172.493 37.5834C172.984 37.785 223.749 59.2623 239.041 138.798Z" fill="#B9CBD3"/>
<path d="M75.7175 196.411C81.1375 196.411 85.5313 192.018 85.5313 186.598C85.5313 181.178 81.1375 176.784 75.7175 176.784C70.2976 176.784 65.9038 181.178 65.9038 186.598C65.9038 192.018 70.2976 196.411 75.7175 196.411Z" fill="#B9CBD3"/>
<path d="M178.316 196.411C183.736 196.411 188.129 192.018 188.129 186.598C188.129 181.178 183.736 176.784 178.316 176.784C172.896 176.784 168.502 181.178 168.502 186.598C168.502 192.018 172.896 196.411 178.316 196.411Z" fill="#B9CBD3"/>
<path d="M126.944 234.11C133.367 234.11 138.574 228.903 138.574 222.48C138.574 216.057 133.367 210.85 126.944 210.85C120.521 210.85 115.314 216.057 115.314 222.48C115.314 228.903 120.521 234.11 126.944 234.11Z" fill="#B9CBD3"/>
<path opacity="0.5" d="M38.3097 226.861C37.9813 224.616 36.9849 222.51 35.4174 220.76C34.7048 219.975 33.9214 219.297 33.0923 218.749C32.1127 218.099 31.1762 217.656 30.2282 217.395C29.3871 217.162 28.4881 217.421 27.8995 218.064C27.3108 218.707 27.1324 219.626 27.4379 220.442C28.0102 221.973 28.3574 223.172 28.5329 224.233C28.743 225.447 28.6517 226.292 28.5395 226.778C28.3905 227.414 28.1341 227.962 27.6908 228.597C27.4474 228.942 27.1782 229.274 26.8751 229.603C26.7071 229.789 26.5511 229.95 26.3894 230.107L25.7966 230.67C24.14 232.185 22.8664 233.882 22.0167 235.704C21.5058 236.786 21.1472 237.931 20.9498 239.118C20.7489 240.363 20.7397 241.598 20.9213 242.77C21.2494 245.011 22.2444 247.116 23.8092 248.865C24.5203 249.65 25.3022 250.328 26.1314 250.878C27.1093 251.528 28.0431 251.971 28.9867 252.235C29.1926 252.292 29.4022 252.32 29.6104 252.32C29.6189 252.32 29.6279 252.32 29.6371 252.32C30.9091 252.309 31.9362 251.275 31.9362 250C31.9362 249.652 31.859 249.32 31.7207 249.024C31.182 247.575 30.8507 246.424 30.6795 245.399C30.4682 244.186 30.5598 243.34 30.672 242.851C30.8198 242.219 31.0773 241.671 31.5211 241.035C31.7658 240.69 32.0362 240.357 32.3225 240.047C32.4829 239.874 32.649 239.695 32.824 239.527L33.4195 238.964C35.0782 237.456 36.3551 235.759 37.2108 233.928C37.7266 232.833 38.0855 231.686 38.2778 230.52C38.4813 229.28 38.4913 228.044 38.3097 226.861Z" fill="#B9CBD3"/>
<path d="M50.0696 266.659V257.988C50.0696 256.192 48.6138 254.736 46.818 254.736H6.35587C4.55977 254.736 3.10425 256.192 3.10425 257.988V266.659" fill="#A3B6BF"/>
<path d="M35.1409 266.116H3.10425V288.162C3.10425 301.131 13.6184 311.643 26.5867 311.643C26.796 311.643 27.0051 311.641 27.2133 311.635C65.815 311.275 75.8851 277.162 90.4423 252.026C102.365 231.44 119.809 228.583 125.707 228.221C125.763 228.215 125.82 228.211 125.88 228.211H125.88C125.993 228.204 126.101 228.199 126.204 228.195C127.542 228.067 127.745 227.166 127.745 227.166V223.643C127.745 221.855 125.907 221.982 125.882 221.978C119.332 221.399 96.7199 221.731 77.707 250.129C64.2029 270.3 55.0143 274.779 50.0693 276.413V266.116H42.1858" fill="#B9CBD3"/>
<path d="M125.882 221.979C119.332 221.4 96.7203 221.731 77.7074 250.13C64.2394 270.247 55.0639 274.756 50.1096 276.4L50.0325 276.478C50.0325 276.478 50.5099 287.114 60.3516 279.199C60.3521 279.199 60.3526 279.198 60.3533 279.198C65.3171 275.019 71.5121 268.095 78.8835 256.297C96.9649 227.358 119.235 224.539 127.745 224.623V223.644C127.745 221.856 125.907 221.983 125.882 221.979Z" fill="#A3B6BF"/>
</svg>
