<svg width="256" height="274" viewBox="0 0 256 274" fill="none" xmlns="http://www.w3.org/2000/svg">
<path fill-rule="evenodd" clip-rule="evenodd" d="M150.857 271.557C150.857 271.973 150.976 272.381 151.202 272.732C151.427 273.083 151.748 273.361 152.127 273.534C152.507 273.707 152.927 273.767 153.34 273.708C153.752 273.648 154.139 273.471 154.454 273.198C155.078 272.654 155.705 272.108 156.334 271.559C156.334 271.558 156.335 271.557 156.336 271.557C156.64 271.291 156.945 271.025 157.25 270.758C157.275 270.736 157.3 270.715 157.325 270.693C167.118 262.131 177.393 252.966 187.547 243.58C189.242 242.08 190.966 240.477 192.699 238.865C193.755 237.883 194.815 236.897 195.875 235.929C209.248 223.859 223.079 211.138 232.662 197.524C243.862 181.641 251.128 161.848 254.386 138.699C257.166 116.901 256.35 94.7945 251.972 73.2603C244.852 37.5598 220.134 13.5904 182.357 5.7213C163.091 1.88016 143.491 -0.0361886 123.846 0.000517417C88.5801 0.000517417 59.1313 6.20407 40.7138 17.5008C3.46834 40.4564 -0.731732 88.6606 0.0889709 115.358C0.933812 142.972 7.33047 181.424 32.6999 207.735C53.0485 228.856 99.0078 240.249 132.005 240.298C134.468 240.278 136.91 240.746 139.192 241.673C141.473 242.6 143.549 243.968 145.301 245.7C147.053 247.431 148.445 249.491 149.398 251.762C150.352 254.033 150.848 256.47 150.857 258.932V271.557ZM157.325 262.089C165.78 254.65 174.515 246.817 183.157 238.83L183.208 238.783L183.261 238.737C184.913 237.275 186.516 235.782 188.194 234.222C189.26 233.23 190.355 232.21 191.512 231.154L191.526 231.14L191.541 231.127C205.002 218.979 218.275 206.725 227.373 193.801L227.376 193.797C237.862 178.927 244.826 160.172 247.975 137.841C250.659 116.757 249.868 95.3765 245.634 74.549L245.632 74.5373L245.629 74.5255C239.056 41.571 216.487 19.4464 181.065 12.059C162.228 8.3054 143.065 6.43272 123.858 6.46861L123.846 6.46863C89.1012 6.46862 61.0495 12.6185 44.1029 23.0099C27.2225 33.4157 17.6124 49.6461 12.31 66.9238C6.9938 84.2467 6.15535 102.19 6.55402 115.159C7.38488 142.316 13.7015 178.713 37.356 203.245L37.3579 203.247C46.4129 212.646 61.7591 220.365 79.4825 225.728C97.0502 231.044 116.151 233.803 131.988 233.829C135.291 233.808 138.566 234.437 141.626 235.681C144.697 236.928 147.491 238.77 149.848 241.1C152.205 243.43 154.079 246.202 155.362 249.258C156.645 252.314 157.312 255.593 157.325 258.908L157.325 258.92V262.089Z" fill="#B9CBD3"/>
<path fill-rule="evenodd" clip-rule="evenodd" d="M172.457 110.89H168.942H172.457H168.942H172.457C172.406 110.201 172.406 109.509 172.457 108.821C172.595 107.769 172.849 106.734 173.215 105.736C173.493 104.947 173.854 104.188 174.294 103.472C174.866 102.477 175.691 101.643 176.69 101.051C178.064 100.296 179.627 99.9306 181.202 99.9969C182.228 99.9792 183.251 100.111 184.238 100.387C185.406 100.725 186.447 101.39 187.233 102.3C187.848 102.986 188.347 103.764 188.71 104.604C189.266 105.848 189.643 107.162 189.828 108.508C189.885 109.223 189.885 109.941 189.828 110.656C189.764 111.378 189.855 112.106 190.094 112.792C190.332 113.479 190.715 114.109 191.216 114.643C191.717 115.178 192.327 115.604 193.006 115.896C193.685 116.188 194.418 116.339 195.16 116.339C195.901 116.339 196.635 116.188 197.314 115.896C197.993 115.604 198.602 115.178 199.104 114.643C199.605 114.109 199.987 113.479 200.226 112.792C200.465 112.106 200.555 111.378 200.491 110.656C200.473 109.349 200.366 108.044 200.172 106.751C199.903 105.051 199.475 103.378 198.894 101.754C198.344 100.254 197.635 98.814 196.777 97.4591C195.282 95.0682 193.212 93.071 190.747 91.6417C187.892 90.0779 184.674 89.2578 181.402 89.2601C179.278 89.2483 177.164 89.5511 175.132 90.1581C172.026 91.1257 169.259 92.9245 167.145 95.3508C165.821 96.8873 164.744 98.6119 163.95 100.465C163.001 102.638 162.343 104.921 161.994 107.259C161.81 108.448 161.717 109.648 161.714 110.851C161.665 111.573 161.771 112.298 162.024 112.979C162.276 113.66 162.671 114.282 163.182 114.806C163.694 115.33 164.311 115.744 164.994 116.023C165.678 116.302 166.413 116.438 167.154 116.425C167.895 116.411 168.624 116.248 169.297 115.944C169.969 115.64 170.57 115.204 171.061 114.661C171.552 114.119 171.922 113.483 172.149 112.794C172.375 112.104 172.453 111.376 172.377 110.656" fill="#B9CBD3"/>
<path fill-rule="evenodd" clip-rule="evenodd" d="M64.9844 110.946H61.4996H64.9844H61.4996H64.9844C64.944 110.255 64.944 109.562 64.9844 108.871C65.1592 107.824 65.4106 106.79 65.7368 105.779C66.0286 104.994 66.3862 104.234 66.806 103.508C67.4336 102.47 68.3197 101.607 69.38 101.003C70.7414 100.242 72.2924 99.8757 73.8548 99.9464C74.872 99.9315 75.8858 100.063 76.8644 100.338C78.0229 100.676 79.0555 101.343 79.8344 102.256C80.4648 103.053 80.9475 103.954 81.26 104.918C81.776 106.177 82.1479 107.49 82.3689 108.832C82.3689 110.006 82.5668 110.907 82.5668 110.985C82.5404 111.68 82.6542 112.374 82.9016 113.025C83.149 113.677 83.525 114.273 84.0078 114.779C84.4906 115.286 85.0705 115.692 85.7138 115.975C86.357 116.257 87.0507 116.411 87.7544 116.426C88.4684 116.426 89.1753 116.286 89.8339 116.013C90.4925 115.741 91.0898 115.342 91.5909 114.839C92.0921 114.336 92.4871 113.74 92.7531 113.085C93.019 112.43 93.1506 111.73 93.1401 111.024C93.1224 109.712 93.0033 108.404 92.7837 107.11C92.5359 105.401 92.1113 103.722 91.5165 102.099C91.0029 100.589 90.3117 99.1442 89.4573 97.7935C87.9602 95.3948 85.8941 93.3929 83.438 91.9612C80.5506 90.2184 77.2379 89.2848 73.8548 89.2603C71.7481 89.2455 69.6515 89.5491 67.6376 90.1606C64.5529 91.121 61.8067 92.9262 59.7176 95.3666C58.393 96.9063 57.3115 98.6351 56.51 100.494C55.5766 102.672 54.9375 104.962 54.6092 107.305C54.4273 108.497 54.3347 109.701 54.332 110.907C54.332 111.602 54.4718 112.291 54.7434 112.932C55.015 113.574 55.413 114.155 55.9141 114.643C56.4153 115.132 57.0097 115.516 57.6626 115.775C58.3156 116.034 59.0141 116.162 59.7176 116.152C60.4198 116.132 61.111 115.975 61.7518 115.69C62.3926 115.406 62.9704 114.999 63.4521 114.494C63.9339 113.989 64.3102 113.394 64.5595 112.745C64.8089 112.096 64.9264 111.405 64.9052 110.711" fill="#B9CBD3"/>
<path fill-rule="evenodd" clip-rule="evenodd" d="M152.349 136.238C151.119 139.861 149.203 143.213 146.707 146.112C144.544 148.662 141.902 150.763 138.931 152.297C135.059 154.178 130.811 155.155 126.507 155.155C122.203 155.155 117.955 154.178 114.084 152.297C111.791 151.106 109.713 149.541 107.935 147.667C105.784 145.409 103.991 142.836 102.618 140.036C102.112 138.951 101.75 138.047 101.497 137.432L101.461 136.6L99.6527 137.106L101.461 136.636L99.6527 137.143L101.461 136.672C101.355 136.102 101.132 135.559 100.806 135.079C100.479 134.599 100.057 134.192 99.5651 133.884C99.0733 133.575 98.5229 133.372 97.9487 133.288C97.3745 133.203 96.789 133.238 96.2291 133.391C95.6692 133.544 95.1473 133.812 94.6961 134.177C94.245 134.543 93.8746 134.997 93.6083 135.513C93.342 136.029 93.1856 136.594 93.149 137.174C93.1124 137.753 93.1964 138.333 93.3957 138.879C94.792 143.419 97.0789 147.637 100.123 151.284C102.947 154.797 106.453 157.7 110.431 159.82C115.552 162.376 121.199 163.707 126.923 163.707C132.648 163.707 138.294 162.376 143.416 159.82C146.507 158.178 149.326 156.068 151.77 153.563C154.577 150.668 156.909 147.348 158.678 143.725C159.471 142.136 160.147 140.492 160.704 138.806C160.856 138.274 160.901 137.718 160.838 137.168C160.775 136.618 160.604 136.087 160.336 135.603C160.067 135.119 159.706 134.693 159.272 134.349C158.839 134.005 158.342 133.75 157.81 133.598C157.278 133.446 156.722 133.4 156.172 133.464C155.622 133.527 155.091 133.697 154.607 133.966C154.123 134.235 153.697 134.596 153.353 135.029C153.009 135.463 152.754 135.96 152.602 136.492" fill="#B9CBD3"/>
<g filter="url(#filter0_f_10339_5616)">
<path fill-rule="evenodd" clip-rule="evenodd" d="M60.8121 159.139C58.2512 159.139 55.7478 158.379 53.6185 156.957C51.4892 155.534 49.8296 153.512 48.8496 151.146C47.8696 148.78 47.6132 146.176 48.1128 143.665C48.6124 141.153 49.8456 138.846 51.6564 137.035C53.4672 135.224 55.7743 133.991 58.286 133.491C60.7977 132.992 63.4011 133.248 65.7671 134.228C68.133 135.208 70.1552 136.868 71.578 138.997C73.0007 141.126 73.7601 143.63 73.7601 146.191C73.7601 149.625 72.3959 152.918 69.9677 155.346C67.5395 157.775 64.2461 159.139 60.8121 159.139Z" fill="#B9CBD3"/>
</g>
<g filter="url(#filter1_f_10339_5616)">
<path fill-rule="evenodd" clip-rule="evenodd" d="M194.055 159.139C191.494 159.139 188.991 158.379 186.861 156.957C184.732 155.534 183.072 153.512 182.092 151.146C181.112 148.78 180.856 146.176 181.356 143.665C181.855 141.153 183.088 138.846 184.899 137.035C186.71 135.224 189.017 133.991 191.529 133.491C194.04 132.992 196.644 133.248 199.01 134.228C201.376 135.208 203.398 136.868 204.821 138.997C206.243 141.126 207.003 143.63 207.003 146.191C207.003 149.625 205.639 152.918 203.21 155.346C200.782 157.775 197.489 159.139 194.055 159.139Z" fill="#B9CBD3"/>
</g>
<defs>
<filter id="filter0_f_10339_5616" x="31.0889" y="116.468" width="59.4463" height="59.4462" filterUnits="userSpaceOnUse" color-interpolation-filters="sRGB">
<feFlood flood-opacity="0" result="BackgroundImageFix"/>
<feBlend mode="normal" in="SourceGraphic" in2="BackgroundImageFix" result="shape"/>
<feGaussianBlur stdDeviation="8.38755" result="effect1_foregroundBlur_10339_5616"/>
</filter>
<filter id="filter1_f_10339_5616" x="164.332" y="116.468" width="59.4463" height="59.4462" filterUnits="userSpaceOnUse" color-interpolation-filters="sRGB">
<feFlood flood-opacity="0" result="BackgroundImageFix"/>
<feBlend mode="normal" in="SourceGraphic" in2="BackgroundImageFix" result="shape"/>
<feGaussianBlur stdDeviation="8.38755" result="effect1_foregroundBlur_10339_5616"/>
</filter>
</defs>
</svg>
