<svg width="256" height="275" viewBox="0 0 256 275" fill="none" xmlns="http://www.w3.org/2000/svg">
<path fill-rule="evenodd" clip-rule="evenodd" d="M150.857 271.993C150.857 272.41 150.976 272.818 151.202 273.168C151.427 273.519 151.748 273.797 152.127 273.97C152.507 274.143 152.927 274.204 153.34 274.144C153.752 274.085 154.139 273.908 154.454 273.635C155.078 273.091 155.705 272.544 156.334 271.995C156.334 271.995 156.335 271.994 156.336 271.993C156.64 271.728 156.945 271.461 157.25 271.195C157.275 271.173 157.3 271.151 157.325 271.129C167.118 262.567 177.393 253.402 187.547 244.017C189.242 242.517 190.966 240.914 192.699 239.301C193.755 238.319 194.815 237.333 195.875 236.365C209.248 224.296 223.079 211.575 232.662 197.961C243.862 182.078 251.128 162.284 254.386 139.136C257.166 117.338 256.35 95.2309 251.972 73.6967C244.852 37.9962 220.134 14.0268 182.357 6.1577C163.091 2.31656 143.491 0.400213 123.846 0.436919C88.5801 0.436919 59.1313 6.64047 40.7138 17.9372C3.46834 40.8928 -0.731732 89.097 0.0889709 115.794C0.933812 143.408 7.33047 181.861 32.6999 208.171C53.0485 229.292 99.0078 240.686 132.005 240.734C134.468 240.715 136.91 241.182 139.192 242.109C141.473 243.036 143.549 244.405 145.301 246.136C147.053 247.868 148.445 249.928 149.398 252.199C150.352 254.469 150.848 256.906 150.857 259.369V271.993ZM157.325 262.526C165.78 255.086 174.515 247.254 183.157 239.267L183.208 239.219L183.261 239.173C184.913 237.711 186.516 236.219 188.194 234.658C189.26 233.666 190.355 232.647 191.512 231.59L191.526 231.577L191.541 231.563C205.002 219.415 218.275 207.162 227.373 194.238L227.376 194.233C237.862 179.363 244.826 160.608 247.975 138.277C250.659 117.194 249.868 95.8129 245.634 74.9854L245.632 74.9737L245.629 74.9619C239.056 42.0074 216.487 19.8828 181.065 12.4954C162.228 8.7418 143.065 6.86912 123.858 6.90501L123.846 6.90503C89.1012 6.90502 61.0495 13.0549 44.1029 23.4463C27.2225 33.8521 17.6124 50.0825 12.31 67.3602C6.9938 84.6831 6.15535 102.627 6.55402 115.595C7.38488 142.753 13.7015 179.149 37.356 203.682L37.3579 203.684C46.4129 213.082 61.7591 220.801 79.4825 226.164C97.0502 231.48 116.151 234.24 131.988 234.266C135.291 234.245 138.566 234.874 141.626 236.117C144.697 237.365 147.491 239.206 149.848 241.536C152.205 243.866 154.079 246.639 155.362 249.694C156.645 252.75 157.312 256.03 157.325 259.344L157.325 259.356V262.526Z" fill="#B9CBD3"/>
<path d="M128.07 165.584C113.061 165.584 100.221 160.376 96.1344 152.6C95.7149 151.791 95.6159 150.854 95.8573 149.976C96.0987 149.098 96.6626 148.343 97.4364 147.862C97.8563 147.634 98.3171 147.492 98.7923 147.443C99.2675 147.395 99.7476 147.44 100.205 147.578C100.662 147.716 101.088 147.943 101.457 148.246C101.826 148.55 102.131 148.923 102.355 149.345C104.67 153.793 114.435 158.495 127.89 158.495C141.344 158.495 151.724 153.613 153.641 148.875C154.006 147.983 154.709 147.272 155.598 146.899C156.487 146.526 157.487 146.521 158.379 146.885C159.271 147.25 159.982 147.954 160.355 148.842C160.728 149.731 160.733 150.731 160.368 151.623C157.005 159.797 143.586 165.584 128.07 165.584Z" fill="#B9CBD3"/>
<path fill-rule="evenodd" clip-rule="evenodd" d="M165.934 106.515H192.879C193.976 106.524 195.025 106.966 195.797 107.745C196.569 108.524 197.002 109.577 197.002 110.674C197.002 111.771 196.569 112.823 195.797 113.602C195.025 114.381 193.976 114.824 192.879 114.833H165.934C165.382 114.843 164.833 114.742 164.32 114.538C163.807 114.333 163.34 114.028 162.946 113.641C162.552 113.254 162.24 112.792 162.026 112.282C161.812 111.773 161.703 111.226 161.703 110.674C161.703 109.571 162.141 108.513 162.921 107.733C163.701 106.953 164.759 106.515 165.862 106.515H165.934Z" fill="#B9CBD3"/>
<path fill-rule="evenodd" clip-rule="evenodd" d="M62.336 106.514H89.2809C89.8332 106.504 90.3818 106.605 90.8949 106.81C91.4079 107.014 91.875 107.319 92.2689 107.706C92.6628 108.093 92.9757 108.555 93.1892 109.065C93.4027 109.574 93.5126 110.121 93.5126 110.673C93.5126 111.776 93.0744 112.834 92.2943 113.614C91.5143 114.394 90.4564 114.832 89.3533 114.832H62.336C61.2392 114.823 60.1905 114.381 59.4183 113.602C58.6461 112.823 58.2128 111.77 58.2129 110.673C58.2128 109.576 58.6461 108.524 59.4183 107.745C60.1905 106.966 61.2392 106.523 62.336 106.514Z" fill="#B9CBD3"/>
<path d="M116.625 76.4741C64.8849 57.4558 10.3491 71.2346 10.3491 71.2346V87.8095C13.3971 87.9858 15.3871 92.6459 15.3871 92.6459C22.944 121.161 22.0372 145.544 63.9781 146.426C108.614 147.459 112.897 108.641 119.169 97.1045L119.521 96.6007C128.691 86.9278 137.154 96.6007 137.154 96.6007C143.275 108.087 147.079 146.98 191.74 146.577C233.656 146.25 233.052 121.942 240.961 93.5275C240.961 93.5275 243.077 88.8926 245.999 88.7667L246.201 72.1918C246.201 72.1918 191.766 57.7329 139.875 76.1214C132.235 77.8683 124.314 77.9884 116.625 76.4741Z" fill="#E7EDF4"/>
<path d="M163.553 78.7903C140.882 84.055 150.379 106.499 153.15 114.056C155.921 121.613 163.226 139.724 191.086 140.833C218.945 141.941 228.165 125.064 228.87 98.0101C229.5 69.2182 186.249 73.4249 163.553 78.7903Z" fill="#B9CBD3"/>
<path d="M27.9567 97.8596C28.2842 124.888 37.4532 141.891 65.1871 141.11C92.921 140.33 100.453 122.42 103.425 114.787C106.398 107.155 116.02 85.0129 93.3493 79.5215C70.6785 74.0302 27.6292 69.2441 27.9567 97.8596Z" fill="#B9CBD3"/>
<path opacity="0.2" d="M193.353 74.913L209.021 138.038C204.673 139.684 200.066 140.537 195.418 140.557L179.347 75.8198C183.995 75.2503 188.671 74.9475 193.353 74.913Z" fill="#8CA0B3"/>
<path opacity="0.2" d="M173.201 76.7759L189.02 140.506C186.539 140.344 184.073 140.007 181.639 139.498L166.526 78.0354C168.642 77.582 170.909 77.1537 173.201 76.7759Z" fill="#8CA0B3"/>
<path opacity="0.2" d="M67.8323 75.5413L83.198 137.407C78.9721 139.211 74.4954 140.357 69.923 140.808L53.6252 75.7177C58.3486 75.2796 63.0995 75.2206 67.8323 75.5413Z" fill="#8CA0B3"/>
<path opacity="0.2" d="M47.6051 76.6504L63.6258 141.136C61.2086 141.146 58.7934 140.995 56.3963 140.683L40.9802 78.6404C43.1239 77.7784 45.3413 77.1123 47.6051 76.6504Z" fill="#8CA0B3"/>
</svg>
