<svg width="256" height="275" viewBox="0 0 256 275" fill="none" xmlns="http://www.w3.org/2000/svg">
<path fill-rule="evenodd" clip-rule="evenodd" d="M150.857 272.287C150.857 272.703 150.976 273.111 151.202 273.462C151.427 273.813 151.748 274.091 152.127 274.264C152.507 274.437 152.927 274.497 153.34 274.438C153.752 274.378 154.139 274.201 154.454 273.928C155.078 273.384 155.705 272.838 156.334 272.289C156.334 272.288 156.335 272.287 156.336 272.287C156.64 272.021 156.945 271.755 157.25 271.488C157.275 271.466 157.3 271.445 157.325 271.423C167.118 262.861 177.393 253.696 187.547 244.31C189.242 242.81 190.966 241.207 192.699 239.595C193.755 238.613 194.815 237.627 195.875 236.659C209.248 224.589 223.079 211.868 232.662 198.254C243.862 182.371 251.128 162.578 254.386 139.429C257.166 117.631 256.35 95.5245 251.972 73.9903C244.852 38.2897 220.134 14.3204 182.357 6.45128C163.091 2.61014 143.491 0.693792 123.846 0.730498C88.5801 0.730498 59.1313 6.93405 40.7138 18.2308C3.46834 41.1863 -0.731732 89.3906 0.0889709 116.088C0.933812 143.702 7.33047 182.154 32.6999 208.465C53.0485 229.586 99.0078 240.979 132.005 241.028C134.468 241.008 136.91 241.476 139.192 242.403C141.473 243.33 143.549 244.698 145.301 246.43C147.053 248.161 148.445 250.221 149.398 252.492C150.352 254.763 150.848 257.2 150.857 259.662V272.287ZM157.325 262.819C165.78 255.38 174.515 247.547 183.157 239.56L183.208 239.513L183.261 239.467C184.913 238.005 186.516 236.512 188.194 234.952C189.26 233.96 190.355 232.94 191.512 231.884L191.526 231.87L191.541 231.857C205.002 219.709 218.275 207.455 227.373 194.531L227.376 194.527C237.862 179.657 244.826 160.902 247.975 138.571C250.659 117.487 249.868 96.1065 245.634 75.279L245.632 75.2673L245.629 75.2555C239.056 42.301 216.487 20.1763 181.065 12.789C162.228 9.03538 143.065 7.1627 123.858 7.19859L123.846 7.19861C89.1012 7.1986 61.0495 13.3485 44.1029 23.7399C27.2225 34.1457 17.6124 50.3761 12.31 67.6538C6.9938 84.9767 6.15535 102.92 6.55402 115.889C7.38488 143.046 13.7015 179.443 37.356 203.975L37.3579 203.977C46.4129 213.376 61.7591 221.095 79.4825 226.458C97.0502 231.774 116.151 234.533 131.988 234.559C135.291 234.538 138.566 235.167 141.626 236.411C144.697 237.658 147.491 239.5 149.848 241.83C152.205 244.16 154.079 246.932 155.362 249.988C156.645 253.044 157.312 256.323 157.325 259.637L157.325 259.65V262.819Z" fill="#B9CBD3"/>
<path d="M78.0799 116.932C83.5057 116.932 87.9042 112.534 87.9042 107.108C87.9042 101.682 83.5057 97.2834 78.0799 97.2834C72.6541 97.2834 68.2556 101.682 68.2556 107.108C68.2556 112.534 72.6541 116.932 78.0799 116.932Z" fill="#B9CBD3"/>
<path d="M180.788 116.932C186.214 116.932 190.612 112.534 190.612 107.108C190.612 101.682 186.214 97.2834 180.788 97.2834C175.362 97.2834 170.964 101.682 170.964 107.108C170.964 112.534 175.362 116.932 180.788 116.932Z" fill="#B9CBD3"/>
<path d="M129.446 166.826C138.338 166.826 145.546 155.997 145.546 142.639C145.546 129.281 138.338 118.453 129.446 118.453C120.554 118.453 113.346 129.281 113.346 142.639C113.346 155.997 120.554 166.826 129.446 166.826Z" fill="#B9CBD3"/>
</svg>
