<svg width="406" height="499" viewBox="0 0 406 499" fill="none" xmlns="http://www.w3.org/2000/svg">
<path d="M0 79.5H406V498.5H0V79.5Z" fill="#ECE2DB"/>
<path fill-rule="evenodd" clip-rule="evenodd" d="M404 81.5H2V496.5H404V81.5ZM0 79.5V498.5H406V79.5H0Z" fill="#D2C1B4"/>
<path d="M0 32.5C0 14.8269 14.3269 0.5 32 0.5H374C391.673 0.5 406 14.8269 406 32.5V79.5H0V32.5Z" fill="#0A6045"/>
<rect x="43" y="33.5" width="172" height="18" rx="9" fill="#008767"/>
<path fill-rule="evenodd" clip-rule="evenodd" d="M339.734 34.8738C339.586 33.2426 340.87 31.8362 342.508 31.8362H367.213C369.111 31.8362 370.453 33.6935 369.858 35.4959L365.122 49.8209C364.745 50.9617 363.679 51.7321 362.477 51.7321H343.811C342.37 51.7321 341.167 50.6335 341.037 49.1988L339.734 34.8738ZM342.508 34.2237C342.274 34.2237 342.091 34.4246 342.112 34.6576L343.414 48.9827C343.433 49.1876 343.605 49.3446 343.811 49.3446H362.477C362.649 49.3446 362.801 49.2345 362.855 49.0716L367.591 34.7465C367.676 34.489 367.484 34.2237 367.213 34.2237H342.508Z" fill="#F5F8F9"/>
<path fill-rule="evenodd" clip-rule="evenodd" d="M340.237 30.5286C341.454 31.5939 342.037 33.2656 341.979 34.4657C341.971 34.631 341.971 34.6774 341.975 34.7117L343.544 49.6176C343.613 50.2733 343.137 50.8607 342.481 50.9297C341.826 50.9988 341.238 50.5232 341.169 49.8675L339.6 34.9617C339.576 34.7284 339.587 34.5056 339.593 34.3779C339.594 34.3681 339.594 34.3588 339.595 34.3502C339.619 33.8477 339.311 32.8912 338.665 32.3256C338.373 32.0707 338.033 31.9123 337.623 31.8902C337.205 31.8677 336.608 31.982 335.808 32.462C335.243 32.8012 334.51 32.6178 334.17 32.0525C333.831 31.4872 334.014 30.7539 334.58 30.4147C335.685 29.7513 336.751 29.4523 337.751 29.5062C338.761 29.5605 339.596 29.9682 340.237 30.5286Z" fill="#F5F8F9"/>
<path d="M339.173 56.905C339.173 55.1469 340.598 53.7217 342.356 53.7217C344.114 53.7217 345.54 55.1469 345.54 56.905C345.54 58.6631 344.114 60.0884 342.356 60.0884C340.598 60.0884 339.173 58.6631 339.173 56.905Z" fill="#F5F8F9"/>
<path d="M358.273 56.905C358.273 55.1469 359.699 53.7217 361.457 53.7217C363.215 53.7217 364.64 55.1469 364.64 56.905C364.64 58.6631 363.215 60.0884 361.457 60.0884C359.699 60.0884 358.273 58.6631 358.273 56.905Z" fill="#F5F8F9"/>
<path fill-rule="evenodd" clip-rule="evenodd" d="M359.467 33.0299V51.3341H357.079V33.0299H359.467Z" fill="#F5F8F9"/>
<path fill-rule="evenodd" clip-rule="evenodd" d="M351.509 33.0299V51.3341H349.121V33.0299H351.509Z" fill="#F5F8F9"/>
<path fill-rule="evenodd" clip-rule="evenodd" d="M366.231 43.7737H342.356V41.3862H366.231V43.7737Z" fill="#F5F8F9"/>
<path d="M9 120.5C9 102.827 23.3269 88.5 41 88.5H364C381.673 88.5 396 102.827 396 120.5V498.5H9V120.5Z" fill="white"/>
<path d="M9 120.5C9 102.827 23.3269 88.5 41 88.5H364C381.673 88.5 396 102.827 396 120.5V498.5H9V120.5Z" fill="white"/>
<path d="M46 131C46 126.306 49.8056 122.5 54.5 122.5H144.5C149.194 122.5 153 126.306 153 131C153 135.694 149.194 139.5 144.5 139.5H54.5C49.8056 139.5 46 135.694 46 131Z" fill="#B9CBD3"/>
<path d="M135 181.5C135 177.634 138.134 174.5 142 174.5H262C265.866 174.5 269 177.634 269 181.5C269 185.366 265.866 188.5 262 188.5H142C138.134 188.5 135 185.366 135 181.5Z" fill="#B9CBD3"/>
<path d="M135 204.5C135 200.634 138.134 197.5 142 197.5H213C216.866 197.5 220 200.634 220 204.5C220 208.366 216.866 211.5 213 211.5H142C138.134 211.5 135 208.366 135 204.5Z" fill="#B9CBD3"/>
<path d="M344 174.5C345.381 174.5 346.5 175.619 346.5 177L346.5 204C346.5 205.381 345.381 206.5 344 206.5C342.619 206.5 341.5 205.381 341.5 204L341.5 177C341.5 175.619 342.619 174.5 344 174.5Z" fill="#B9CBD3"/>
<path d="M328 190.5C328 189.119 329.119 188 330.5 188L357.5 188C358.881 188 360 189.119 360 190.5C360 191.881 358.881 193 357.5 193L330.5 193C329.119 193 328 191.881 328 190.5Z" fill="#B9CBD3"/>
<path d="M99.024 161.5H56.976C55.5335 161.496 54.1043 161.777 52.7707 162.327C51.4371 162.877 50.2255 163.685 49.2054 164.705C48.1854 165.725 47.377 166.937 46.8269 168.271C46.2768 169.604 45.9958 171.033 46 172.476V214.524C45.9958 215.967 46.2768 217.396 46.8269 218.729C47.377 220.063 48.1854 221.275 49.2054 222.295C50.2255 223.315 51.4371 224.123 52.7707 224.673C54.1043 225.223 55.5335 225.504 56.976 225.5H99.024C100.467 225.504 101.896 225.223 103.229 224.673C104.563 224.123 105.775 223.315 106.795 222.295C107.815 221.275 108.623 220.063 109.173 218.729C109.723 217.396 110.004 215.967 110 214.524V172.476C110.004 171.033 109.723 169.604 109.173 168.271C108.623 166.937 107.815 165.725 106.795 164.705C105.775 163.685 104.563 162.877 103.229 162.327C101.896 161.777 100.467 161.496 99.024 161.5ZM56.976 166.3H99.024C99.8362 166.296 100.641 166.453 101.392 166.762C102.144 167.07 102.826 167.525 103.401 168.099C103.975 168.674 104.43 169.356 104.738 170.108C105.047 170.859 105.204 171.664 105.2 172.476V200.956L94.224 189.724C93.0337 188.589 91.4524 187.956 89.808 187.956C88.1636 187.956 86.5822 188.589 85.392 189.724L71.024 203.836L66.32 200.06C65.1828 198.916 63.6451 198.26 62.0324 198.23C60.4198 198.2 58.8588 198.799 57.68 199.9L50.8 205.212V172.476C50.7958 171.664 50.9527 170.859 51.2615 170.108C51.5704 169.356 52.0251 168.674 52.5995 168.099C53.1738 167.525 53.8564 167.07 54.6076 166.762C55.3588 166.453 56.1638 166.296 56.976 166.3ZM99.024 220.7H56.976C56.1638 220.704 55.3588 220.547 54.6076 220.238C53.8564 219.93 53.1738 219.475 52.5995 218.901C52.0251 218.326 51.5704 217.644 51.2615 216.892C50.9527 216.141 50.7958 215.336 50.8 214.524V211.324L60.848 203.484C60.9968 203.334 61.1737 203.215 61.3687 203.134C61.5637 203.053 61.7728 203.011 61.984 203.011C62.1952 203.011 62.4044 203.053 62.5993 203.134C62.7943 203.215 62.9713 203.334 63.12 203.484L79.12 216.284C79.5403 216.639 80.0738 216.832 80.624 216.828C81.0807 216.781 81.5145 216.604 81.8738 216.319C82.233 216.033 82.5028 215.65 82.651 215.215C82.7992 214.781 82.8197 214.313 82.71 213.867C82.6003 213.421 82.365 213.016 82.032 212.7L74.8 206.876L88.784 193.116C89.0639 192.848 89.4365 192.698 89.824 192.698C90.2115 192.698 90.584 192.848 90.864 193.116L105.104 207.74V214.46C105.117 215.269 104.969 216.074 104.67 216.826C104.371 217.578 103.926 218.264 103.361 218.844C102.796 219.424 102.122 219.886 101.378 220.205C100.634 220.523 99.8336 220.692 99.024 220.7Z" fill="#9DADBC"/>
<path d="M58.1904 179.786C58.1904 175.858 61.3742 172.675 65.3015 172.675H66.3174C70.2448 172.675 73.4285 175.858 73.4285 179.786C73.4285 183.713 70.2448 186.897 66.3174 186.897H65.3015C61.3742 186.897 58.1904 183.713 58.1904 179.786Z" fill="#9DADBC"/>
<path d="M135 267.5C135 263.634 138.134 260.5 142 260.5H262C265.866 260.5 269 263.634 269 267.5C269 271.366 265.866 274.5 262 274.5H142C138.134 274.5 135 271.366 135 267.5Z" fill="#B9CBD3"/>
<path d="M135 290.5C135 286.634 138.134 283.5 142 283.5H213C216.866 283.5 220 286.634 220 290.5C220 294.366 216.866 297.5 213 297.5H142C138.134 297.5 135 294.366 135 290.5Z" fill="#B9CBD3"/>
<path d="M344 260.5C345.381 260.5 346.5 261.619 346.5 263L346.5 290C346.5 291.381 345.381 292.5 344 292.5C342.619 292.5 341.5 291.381 341.5 290L341.5 263C341.5 261.619 342.619 260.5 344 260.5Z" fill="#B9CBD3"/>
<path d="M328 276.5C328 275.119 329.119 274 330.5 274L357.5 274C358.881 274 360 275.119 360 276.5C360 277.881 358.881 279 357.5 279L330.5 279C329.119 279 328 277.881 328 276.5Z" fill="#B9CBD3"/>
<path d="M99.024 247.5H56.976C55.5335 247.496 54.1043 247.777 52.7707 248.327C51.4371 248.877 50.2255 249.685 49.2054 250.705C48.1854 251.725 47.377 252.937 46.8269 254.271C46.2768 255.604 45.9958 257.033 46 258.476V300.524C45.9958 301.967 46.2768 303.396 46.8269 304.729C47.377 306.063 48.1854 307.275 49.2054 308.295C50.2255 309.315 51.4371 310.123 52.7707 310.673C54.1043 311.223 55.5335 311.504 56.976 311.5H99.024C100.467 311.504 101.896 311.223 103.229 310.673C104.563 310.123 105.775 309.315 106.795 308.295C107.815 307.275 108.623 306.063 109.173 304.729C109.723 303.396 110.004 301.967 110 300.524V258.476C110.004 257.033 109.723 255.604 109.173 254.271C108.623 252.937 107.815 251.725 106.795 250.705C105.775 249.685 104.563 248.877 103.229 248.327C101.896 247.777 100.467 247.496 99.024 247.5ZM56.976 252.3H99.024C99.8362 252.296 100.641 252.453 101.392 252.762C102.144 253.07 102.826 253.525 103.401 254.099C103.975 254.674 104.43 255.356 104.738 256.108C105.047 256.859 105.204 257.664 105.2 258.476V286.956L94.224 275.724C93.0337 274.589 91.4524 273.956 89.808 273.956C88.1636 273.956 86.5822 274.589 85.392 275.724L71.024 289.836L66.32 286.06C65.1828 284.916 63.6451 284.26 62.0324 284.23C60.4198 284.2 58.8588 284.799 57.68 285.9L50.8 291.212V258.476C50.7958 257.664 50.9527 256.859 51.2615 256.108C51.5704 255.356 52.0251 254.674 52.5995 254.099C53.1738 253.525 53.8564 253.07 54.6076 252.762C55.3588 252.453 56.1638 252.296 56.976 252.3ZM99.024 306.7H56.976C56.1638 306.704 55.3588 306.547 54.6076 306.238C53.8564 305.93 53.1738 305.475 52.5995 304.901C52.0251 304.326 51.5704 303.644 51.2615 302.892C50.9527 302.141 50.7958 301.336 50.8 300.524V297.324L60.848 289.484C60.9968 289.334 61.1737 289.215 61.3687 289.134C61.5637 289.053 61.7728 289.011 61.984 289.011C62.1952 289.011 62.4044 289.053 62.5993 289.134C62.7943 289.215 62.9713 289.334 63.12 289.484L79.12 302.284C79.5403 302.639 80.0738 302.832 80.624 302.828C81.0807 302.781 81.5145 302.604 81.8738 302.319C82.233 302.033 82.5028 301.65 82.651 301.215C82.7992 300.781 82.8197 300.313 82.71 299.867C82.6003 299.421 82.365 299.016 82.032 298.7L74.8 292.876L88.784 279.116C89.0639 278.848 89.4365 278.698 89.824 278.698C90.2115 278.698 90.584 278.848 90.864 279.116L105.104 293.74V300.46C105.117 301.269 104.969 302.074 104.67 302.826C104.371 303.578 103.926 304.264 103.361 304.844C102.796 305.424 102.122 305.886 101.378 306.205C100.634 306.523 99.8336 306.692 99.024 306.7Z" fill="#9DADBC"/>
<path d="M58.1904 265.786C58.1904 261.858 61.3742 258.675 65.3015 258.675H66.3174C70.2448 258.675 73.4285 261.858 73.4285 265.786C73.4285 269.713 70.2448 272.897 66.3174 272.897H65.3015C61.3742 272.897 58.1904 269.713 58.1904 265.786Z" fill="#9DADBC"/>
<path d="M135 353.5C135 349.634 138.134 346.5 142 346.5H262C265.866 346.5 269 349.634 269 353.5C269 357.366 265.866 360.5 262 360.5H142C138.134 360.5 135 357.366 135 353.5Z" fill="#B9CBD3"/>
<path d="M135 376.5C135 372.634 138.134 369.5 142 369.5H213C216.866 369.5 220 372.634 220 376.5C220 380.366 216.866 383.5 213 383.5H142C138.134 383.5 135 380.366 135 376.5Z" fill="#B9CBD3"/>
<path d="M344 346.5C345.381 346.5 346.5 347.619 346.5 349L346.5 376C346.5 377.381 345.381 378.5 344 378.5C342.619 378.5 341.5 377.381 341.5 376L341.5 349C341.5 347.619 342.619 346.5 344 346.5Z" fill="#B9CBD3"/>
<path d="M328 362.5C328 361.119 329.119 360 330.5 360L357.5 360C358.881 360 360 361.119 360 362.5C360 363.881 358.881 365 357.5 365L330.5 365C329.119 365 328 363.881 328 362.5Z" fill="#B9CBD3"/>
<path d="M99.024 333.5H56.976C55.5335 333.496 54.1043 333.777 52.7707 334.327C51.4371 334.877 50.2255 335.685 49.2054 336.705C48.1854 337.725 47.377 338.937 46.8269 340.271C46.2768 341.604 45.9958 343.033 46 344.476V386.524C45.9958 387.967 46.2768 389.396 46.8269 390.729C47.377 392.063 48.1854 393.275 49.2054 394.295C50.2255 395.315 51.4371 396.123 52.7707 396.673C54.1043 397.223 55.5335 397.504 56.976 397.5H99.024C100.467 397.504 101.896 397.223 103.229 396.673C104.563 396.123 105.775 395.315 106.795 394.295C107.815 393.275 108.623 392.063 109.173 390.729C109.723 389.396 110.004 387.967 110 386.524V344.476C110.004 343.033 109.723 341.604 109.173 340.271C108.623 338.937 107.815 337.725 106.795 336.705C105.775 335.685 104.563 334.877 103.229 334.327C101.896 333.777 100.467 333.496 99.024 333.5ZM56.976 338.3H99.024C99.8362 338.296 100.641 338.453 101.392 338.762C102.144 339.07 102.826 339.525 103.401 340.099C103.975 340.674 104.43 341.356 104.738 342.108C105.047 342.859 105.204 343.664 105.2 344.476V372.956L94.224 361.724C93.0337 360.589 91.4524 359.956 89.808 359.956C88.1636 359.956 86.5822 360.589 85.392 361.724L71.024 375.836L66.32 372.06C65.1828 370.916 63.6451 370.26 62.0324 370.23C60.4198 370.2 58.8588 370.799 57.68 371.9L50.8 377.212V344.476C50.7958 343.664 50.9527 342.859 51.2615 342.108C51.5704 341.356 52.0251 340.674 52.5995 340.099C53.1738 339.525 53.8564 339.07 54.6076 338.762C55.3588 338.453 56.1638 338.296 56.976 338.3ZM99.024 392.7H56.976C56.1638 392.704 55.3588 392.547 54.6076 392.238C53.8564 391.93 53.1738 391.475 52.5995 390.901C52.0251 390.326 51.5704 389.644 51.2615 388.892C50.9527 388.141 50.7958 387.336 50.8 386.524V383.324L60.848 375.484C60.9968 375.334 61.1737 375.215 61.3687 375.134C61.5637 375.053 61.7728 375.011 61.984 375.011C62.1952 375.011 62.4044 375.053 62.5993 375.134C62.7943 375.215 62.9713 375.334 63.12 375.484L79.12 388.284C79.5403 388.639 80.0738 388.832 80.624 388.828C81.0807 388.781 81.5145 388.604 81.8738 388.319C82.233 388.033 82.5028 387.65 82.651 387.215C82.7992 386.781 82.8197 386.313 82.71 385.867C82.6003 385.421 82.365 385.016 82.032 384.7L74.8 378.876L88.784 365.116C89.0639 364.848 89.4365 364.698 89.824 364.698C90.2115 364.698 90.584 364.848 90.864 365.116L105.104 379.74V386.46C105.117 387.269 104.969 388.074 104.67 388.826C104.371 389.578 103.926 390.264 103.361 390.844C102.796 391.424 102.122 391.886 101.378 392.205C100.634 392.523 99.8336 392.692 99.024 392.7Z" fill="#9DADBC"/>
<path d="M58.1904 351.786C58.1904 347.858 61.3742 344.675 65.3015 344.675H66.3174C70.2448 344.675 73.4285 347.858 73.4285 351.786C73.4285 355.713 70.2448 358.897 66.3174 358.897H65.3015C61.3742 358.897 58.1904 355.713 58.1904 351.786Z" fill="#9DADBC"/>
<path opacity="0.22" d="M218.139 197C218.139 175.261 235.761 157.639 257.5 157.639C279.238 157.639 296.861 175.261 296.861 197C296.861 218.739 279.238 236.361 257.5 236.361C235.761 236.361 218.139 218.739 218.139 197Z" fill="#FF6E1D"/>
<path opacity="0.1" d="M203 197C203 166.9 227.4 142.5 257.5 142.5C287.6 142.5 312 166.9 312 197C312 227.1 287.6 251.5 257.5 251.5C227.4 251.5 203 227.1 203 197Z" fill="#FF6E1D"/>
<path fill-rule="evenodd" clip-rule="evenodd" d="M239.007 197C239.007 207.213 247.286 215.493 257.5 215.493C267.713 215.493 275.993 207.213 275.993 197C275.993 186.787 267.713 178.507 257.5 178.507C247.286 178.507 239.007 186.787 239.007 197ZM257.5 170.507C242.868 170.507 231.007 182.368 231.007 197C231.007 211.632 242.868 223.493 257.5 223.493C272.132 223.493 283.993 211.632 283.993 197C283.993 182.368 272.132 170.507 257.5 170.507Z" fill="#FF6E1D"/>
</svg>
