<svg width="406" height="499" viewBox="0 0 406 499" fill="none" xmlns="http://www.w3.org/2000/svg">
<path d="M0 79H406V498H0V79Z" fill="white"/>
<path d="M56 309C56 305.134 60.9583 302 67.0746 302H256.925C263.042 302 268 305.134 268 309C268 312.866 263.042 316 256.925 316H67.0746C60.9583 316 56 312.866 56 309Z" fill="#B9CBD3"/>
<path d="M56 336C56 332.134 60.3139 329 65.6353 329H163.365C168.686 329 173 332.134 173 336C173 339.866 168.686 343 163.365 343H65.6353C60.3139 343 56 339.866 56 336Z" fill="#B9CBD3"/>
<path d="M0 32C0 14.3269 14.3269 0 32 0H374C391.673 0 406 14.3269 406 32V280H0V32Z" fill="#505F79"/>
<path d="M258.673 54.0001H146.327C142.472 53.9888 138.654 54.7397 135.09 56.2095C131.527 57.6793 128.29 59.839 125.564 62.5645C122.839 65.2899 120.679 68.5274 119.209 72.0905C117.74 75.6536 116.989 79.4722 117 83.3266V195.673C116.989 199.528 117.74 203.346 119.209 206.91C120.679 210.473 122.839 213.71 125.564 216.436C128.29 219.161 131.527 221.321 135.09 222.791C138.654 224.26 142.472 225.011 146.327 225H258.673C262.528 225.011 266.346 224.26 269.91 222.791C273.473 221.321 276.71 219.161 279.436 216.436C282.161 213.71 284.321 210.473 285.791 206.91C287.26 203.346 288.011 199.528 288 195.673V83.3266C288.011 79.4722 287.26 75.6536 285.791 72.0905C284.321 68.5274 282.161 65.2899 279.436 62.5645C276.71 59.839 273.473 57.6793 269.91 56.2095C266.346 54.7397 262.528 53.9888 258.673 54.0001ZM146.327 66.8251H258.673C260.844 66.8138 262.994 67.2329 265.002 68.0581C267.009 68.8834 268.832 70.0984 270.367 71.633C271.902 73.1676 273.117 74.9912 273.942 76.9984C274.767 79.0055 275.186 81.1564 275.175 83.3266V159.421L245.848 129.411C242.668 126.379 238.443 124.688 234.049 124.688C229.656 124.688 225.431 126.379 222.25 129.411L183.861 167.116L171.293 157.027C168.254 153.971 164.146 152.218 159.837 152.138C155.528 152.058 151.357 153.658 148.208 156.6L129.825 170.793V83.3266C129.814 81.1564 130.233 79.0055 131.058 76.9984C131.883 74.9912 133.098 73.1676 134.633 71.633C136.168 70.0984 137.991 68.8834 139.998 68.0581C142.006 67.2329 144.156 66.8138 146.327 66.8251ZM258.673 212.175H146.327C144.156 212.186 142.006 211.767 139.998 210.942C137.991 210.117 136.168 208.902 134.633 207.367C133.098 205.832 131.883 204.009 131.058 202.002C130.233 199.994 129.814 197.844 129.825 195.673V187.123L156.672 166.176C157.069 165.775 157.542 165.457 158.063 165.24C158.584 165.023 159.143 164.911 159.707 164.911C160.272 164.911 160.83 165.023 161.351 165.24C161.872 165.457 162.345 165.775 162.743 166.176L205.493 200.376C206.615 201.325 208.041 201.84 209.511 201.829C210.731 201.704 211.89 201.232 212.85 200.468C213.81 199.705 214.531 198.681 214.927 197.52C215.323 196.359 215.378 195.109 215.084 193.918C214.791 192.727 214.163 191.645 213.273 190.8L193.95 175.239L231.313 138.474C232.061 137.758 233.057 137.358 234.092 137.358C235.128 137.358 236.123 137.758 236.871 138.474L274.918 177.547V195.502C274.952 197.665 274.558 199.814 273.759 201.824C272.96 203.834 271.772 205.667 270.262 207.216C268.752 208.765 266.951 210.001 264.963 210.852C262.974 211.703 260.837 212.153 258.673 212.175Z" fill="#9DADBC"/>
<path d="M149.571 102.857C149.571 92.3636 158.078 83.8571 168.571 83.8571H171.286C181.779 83.8571 190.286 92.3636 190.286 102.857C190.286 113.35 181.779 121.857 171.286 121.857H168.571C158.078 121.857 149.571 113.35 149.571 102.857Z" fill="#9DADBC"/>
<rect y="280" width="5" height="218" fill="#D1E3FA"/>
<rect x="401" y="280" width="5" height="218" fill="#D1E3FA"/>
<rect x="37" y="366" width="332" height="47" rx="7" fill="white" stroke="#0A6045" stroke-width="2"/>
<rect x="37" y="421" width="332" height="47" rx="7" fill="white" stroke="#0A6045" stroke-width="2"/>
<path fill-rule="evenodd" clip-rule="evenodd" d="M194.141 438.129C194.034 436.951 194.962 435.936 196.145 435.936H213.987C215.358 435.936 216.327 437.277 215.897 438.579L212.477 448.925C212.204 449.749 211.434 450.305 210.567 450.305H197.085C196.045 450.305 195.176 449.512 195.082 448.475L194.141 438.129ZM196.145 437.66C195.976 437.66 195.843 437.805 195.858 437.973L196.799 448.319C196.812 448.467 196.937 448.581 197.085 448.581H210.567C210.691 448.581 210.801 448.501 210.84 448.383L214.26 438.038C214.321 437.852 214.183 437.66 213.987 437.66H196.145Z" fill="#0A6045"/>
<path fill-rule="evenodd" clip-rule="evenodd" d="M194.504 434.991C195.384 435.761 195.805 436.968 195.763 437.835C195.757 437.954 195.757 437.988 195.759 438.012L196.893 448.778C196.942 449.251 196.599 449.676 196.125 449.725C195.652 449.775 195.228 449.432 195.178 448.958L194.045 438.193C194.027 438.024 194.035 437.864 194.04 437.771C194.04 437.764 194.04 437.758 194.041 437.751C194.058 437.388 193.836 436.698 193.369 436.289C193.158 436.105 192.913 435.991 192.617 435.975C192.315 435.958 191.884 436.041 191.306 436.388C190.898 436.633 190.368 436.5 190.123 436.092C189.878 435.684 190.01 435.154 190.419 434.909C191.217 434.43 191.987 434.214 192.709 434.253C193.438 434.292 194.041 434.587 194.504 434.991Z" fill="#0A6045"/>
<path d="M193.736 454.041C193.736 452.771 194.766 451.742 196.035 451.742C197.305 451.742 198.334 452.771 198.334 454.041C198.334 455.311 197.305 456.34 196.035 456.34C194.766 456.34 193.736 455.311 193.736 454.041Z" fill="#0A6045"/>
<path d="M207.53 454.041C207.53 452.771 208.56 451.742 209.829 451.742C211.099 451.742 212.128 452.771 212.128 454.041C212.128 455.311 211.099 456.34 209.829 456.34C208.56 456.34 207.53 455.311 207.53 454.041Z" fill="#0A6045"/>
<path fill-rule="evenodd" clip-rule="evenodd" d="M208.392 436.798V450.018H206.668V436.798H208.392Z" fill="#0A6045"/>
<path fill-rule="evenodd" clip-rule="evenodd" d="M202.645 436.798V450.018H200.921V436.798H202.645Z" fill="#0A6045"/>
<path fill-rule="evenodd" clip-rule="evenodd" d="M213.278 444.557H196.035V442.833H213.278V444.557Z" fill="#0A6045"/>
<path opacity="0.22" d="M238.139 444.5C238.139 422.761 255.761 405.139 277.5 405.139C299.238 405.139 316.861 422.761 316.861 444.5C316.861 466.239 299.238 483.861 277.5 483.861C255.761 483.861 238.139 466.239 238.139 444.5Z" fill="#FF6E1D"/>
<path opacity="0.1" d="M223 444.5C223 414.4 247.4 390 277.5 390C307.6 390 332 414.4 332 444.5C332 474.6 307.6 499 277.5 499C247.4 499 223 474.6 223 444.5Z" fill="#FF6E1D"/>
<path fill-rule="evenodd" clip-rule="evenodd" d="M259.007 444.5C259.007 454.713 267.286 462.993 277.5 462.993C287.713 462.993 295.993 454.713 295.993 444.5C295.993 434.287 287.713 426.007 277.5 426.007C267.286 426.007 259.007 434.287 259.007 444.5ZM277.5 418.007C262.868 418.007 251.007 429.868 251.007 444.5C251.007 459.132 262.868 470.993 277.5 470.993C292.132 470.993 303.993 459.132 303.993 444.5C303.993 429.868 292.132 418.007 277.5 418.007Z" fill="#FF6E1D"/>
</svg>
