<svg width="80" height="80" viewBox="0 0 80 80" fill="none" xmlns="http://www.w3.org/2000/svg">
<path d="M9.97032 39.8036C9.44776 39.8036 8.9466 40.0112 8.57709 40.3807C8.20759 40.7502 8 41.2513 8 41.7739V65.3048C8 65.8274 8.20759 66.3285 8.57709 66.698C8.9466 67.0675 9.44776 67.2751 9.97032 67.2751C10.4929 67.2751 10.994 67.0675 11.3635 66.698C11.7331 66.3285 11.9406 65.8274 11.9406 65.3048V41.7739C11.9406 41.2513 11.7331 40.7502 11.3635 40.3807C10.994 40.0112 10.4929 39.8036 9.97032 39.8036Z" fill="#0496FF"/>
<path d="M17.4778 32.8156C16.9552 32.8156 16.454 33.0231 16.0845 33.3926C15.715 33.7622 15.5074 34.2633 15.5074 34.7859V69.1562C15.5074 69.6787 15.715 70.1799 16.0845 70.5494C16.454 70.9189 16.9552 71.1265 17.4778 71.1265C18.0003 71.1265 18.5015 70.9189 18.871 70.5494C19.2405 70.1799 19.4481 69.6787 19.4481 69.1562V34.7859C19.4481 34.2633 19.2405 33.7622 18.871 33.3926C18.5015 33.0231 18.0003 32.8156 17.4778 32.8156Z" fill="#03A4EA"/>
<path d="M24.9852 25.6842C24.4627 25.6842 23.9615 25.8918 23.592 26.2613C23.2225 26.6308 23.0149 27.132 23.0149 27.6545V65.3047C23.0149 65.8273 23.2225 66.3285 23.592 66.698C23.9615 67.0675 24.4627 67.2751 24.9852 67.2751C25.5078 67.2751 26.0089 67.0675 26.3784 66.698C26.7479 66.3285 26.9555 65.8273 26.9555 65.3047V27.6545C26.9555 27.132 26.7479 26.6308 26.3784 26.2613C26.0089 25.8918 25.5078 25.6842 24.9852 25.6842Z" fill="#01B7CA"/>
<path d="M32.4925 15.1312C31.97 15.1312 31.4688 15.3388 31.0993 15.7083C30.7298 16.0778 30.5222 16.579 30.5222 17.1015V58.4599C30.5222 58.9825 30.7298 59.4836 31.0993 59.8531C31.4688 60.2226 31.97 60.4302 32.4925 60.4302C33.0151 60.4302 33.5163 60.2226 33.8858 59.8531C34.2553 59.4836 34.4629 58.9825 34.4629 58.4599V17.1015C34.4629 16.579 34.2553 16.0778 33.8858 15.7083C33.5163 15.3388 33.0151 15.1312 32.4925 15.1312Z" fill="#00BFB5"/>
<path d="M70.0298 39.8036C69.5072 39.8036 69.006 40.0112 68.6365 40.3807C68.267 40.7502 68.0594 41.2513 68.0594 41.7739V65.3048C68.0594 65.8274 68.267 66.3285 68.6365 66.698C69.006 67.0675 69.5072 67.2751 70.0298 67.2751C70.5523 67.2751 71.0535 67.0675 71.423 66.698C71.7925 66.3285 72.0001 65.8274 72.0001 65.3048V41.7739C72.0001 41.2513 71.7925 40.7502 71.423 40.3807C71.0535 40.0112 70.5523 39.8036 70.0298 39.8036Z" fill="#FFD800"/>
<path d="M62.5228 32.8156C62.0003 32.8156 61.4991 33.0231 61.1296 33.3926C60.7601 33.7622 60.5525 34.2633 60.5525 34.7859V69.1562C60.5525 69.6787 60.7601 70.1799 61.1296 70.5494C61.4991 70.9189 62.0003 71.1265 62.5228 71.1265C63.0454 71.1265 63.5465 70.9189 63.916 70.5494C64.2856 70.1799 64.4931 69.6787 64.4931 69.1562V34.7859C64.4931 34.2633 64.2856 33.7622 63.916 33.3926C63.5465 33.0231 63.0454 32.8156 62.5228 32.8156Z" fill="#D8D805"/>
<path d="M55.0148 25.6842C54.4922 25.6842 53.991 25.8918 53.6215 26.2613C53.252 26.6308 53.0444 27.132 53.0444 27.6545V65.3047C53.0444 65.8273 53.252 66.3285 53.6215 66.698C53.991 67.0675 54.4922 67.2751 55.0148 67.2751C55.5373 67.2751 56.0385 67.0675 56.408 66.698C56.7775 66.3285 56.9851 65.8273 56.9851 65.3047V27.6545C56.9851 27.132 56.7775 26.6308 56.408 26.2613C56.0385 25.8918 55.5373 25.6842 55.0148 25.6842Z" fill="#87D34E"/>
<path d="M47.508 15.1312C46.9855 15.1312 46.4843 15.3388 46.1148 15.7083C45.7453 16.0778 45.5377 16.579 45.5377 17.1015V58.4599C45.5377 58.9825 45.7453 59.4836 46.1148 59.8531C46.4843 60.2226 46.9855 60.4302 47.508 60.4302C48.0306 60.4302 48.5318 60.2226 48.9013 59.8531C49.2708 59.4836 49.4784 58.9825 49.4784 58.4599V17.1015C49.4784 16.579 49.2708 16.0778 48.9013 15.7083C48.5318 15.3388 48.0306 15.1312 47.508 15.1312Z" fill="#00D273"/>
<path d="M40.0005 8C39.4779 8 38.9768 8.20759 38.6072 8.57709C38.2377 8.9466 38.0302 9.44776 38.0302 9.97032V51.3287C38.0302 51.8512 38.2377 52.3524 38.6072 52.7219C38.9768 53.0914 39.4779 53.299 40.0005 53.299C40.523 53.299 41.0242 53.0914 41.3937 52.7219C41.7632 52.3524 41.9708 51.8512 41.9708 51.3287V9.97032C41.9708 9.44776 41.7632 8.9466 41.3937 8.57709C41.0242 8.20759 40.523 8 40.0005 8V8Z" fill="#00CF96"/>
</svg>
