<svg xmlns="http://www.w3.org/2000/svg" width="80" height="80" fill="none" viewBox="0 0 80 80"><path fill="#000" d="M57.365 42.001c.09 9.685 8.448 12.908 8.54 12.95-.07.227-1.335 4.593-4.403 9.102-2.652 3.899-5.405 7.783-9.74 7.864-4.26.079-5.63-2.541-10.502-2.541-4.87 0-6.391 2.46-10.424 2.62-4.186.16-7.373-4.216-10.047-8.1-5.464-7.946-9.64-22.453-4.033-32.246 2.786-4.863 7.764-7.942 13.166-8.021 4.11-.08 7.99 2.78 10.502 2.78 2.51 0 7.225-3.439 12.18-2.934 2.075.087 7.898.843 11.638 6.349-.302.188-6.949 4.08-6.877 12.177M49.358 18.22c2.222-2.706 3.718-6.472 3.31-10.219-3.203.13-7.076 2.147-9.373 4.85-2.059 2.395-3.862 6.227-3.376 9.9 3.57.278 7.217-1.824 9.44-4.531"/></svg>