<svg width="80" height="80" viewBox="0 0 80 80" fill="none" xmlns="http://www.w3.org/2000/svg">
<path d="M38.9887 4.00003C31.5932 4.00003 23.9396 5.2176 18.6939 8.43547C10.1805 13.7406 7.68662 24.09 8.0306 33.6566C8.28858 41.9187 10.4385 50.7896 16.2861 56.8774C21.7898 62.7044 33.1411 65.3135 40.9666 65.3135C41.3106 65.3135 41.6545 65.5744 41.6545 66.0092V74.3583C41.6545 75.141 42.2565 75.8368 43.1165 75.8368C43.2025 75.8368 43.2024 75.8368 43.2884 75.8368C43.6324 75.8368 43.8904 75.6628 44.0624 75.4889C47.9322 72.0971 51.8879 68.6183 55.6717 65.1395C59.2835 61.7477 63.4112 58.269 66.1631 54.1814C72.0967 45.5714 73.0426 33.4827 71.0648 23.3942C69.1729 13.7406 62.3793 7.39184 52.9199 5.39154C48.8781 4.52185 43.9764 4.00003 38.9887 4.00003Z" fill="#00C6D7"/>
</svg>
