<svg width="80" height="80" viewBox="0 0 80 80" fill="none" xmlns="http://www.w3.org/2000/svg">
<path d="M36.9519 66.9037C53.4938 66.9037 66.9037 53.4938 66.9037 36.9519C66.9037 20.4099 53.4938 7 36.9519 7C20.4099 7 7 20.4099 7 36.9519C7 53.4938 20.4099 66.9037 36.9519 66.9037Z" fill="url(#paint0_linear_9912_1304)"/>
<path fill-rule="evenodd" clip-rule="evenodd" d="M34.1197 51.1321C32.4909 51.9714 29.9051 52.8514 26.3623 53.7722C28.0011 52.3612 29.1462 50.9661 29.7978 49.587C25.2042 47.2482 22.1517 43.1104 22.1517 38.3959C22.1517 31.0979 29.4662 25.1818 38.4891 25.1818C47.512 25.1818 54.8265 31.0979 54.8265 38.3959C54.8265 45.6938 47.512 51.61 38.4891 51.61C36.9758 51.61 35.5105 51.4436 34.1197 51.1321Z" fill="white"/>
<defs>
<linearGradient id="paint0_linear_9912_1304" x1="40.3333" y1="7" x2="40.3333" y2="73.6667" gradientUnits="userSpaceOnUse">
<stop stop-color="#5CFF78"/>
<stop offset="1" stop-color="#00B705"/>
</linearGradient>
</defs>
</svg>
