<svg width="80" height="80" viewBox="0 0 80 80" fill="none" xmlns="http://www.w3.org/2000/svg">
<path d="M47.3768 18H28.5325C23.087 18 17.8644 20.1632 14.0138 24.0138C10.1632 27.8644 8 33.087 8 38.5325H8C8 38.8177 8.00792 39.0983 8.01924 39.3834V56.3867C8.01924 58.9598 11.3006 60.0472 12.8361 57.9822L15.502 54.3998C19.1712 57.422 23.7789 59.0712 28.5325 59.0639H47.3768C52.8213 59.0627 58.0424 56.8991 61.8918 53.0488C65.7412 49.1986 67.9037 43.977 67.9037 38.5325C67.9037 33.0879 65.7412 27.8663 61.8919 24.0158C58.0425 20.1654 52.8214 18.0015 47.3768 18Z" fill="#FFC200"/>
<g filter="url(#filter0_d_9912_1321)">
<path d="M47.5775 24.0251H28.818C24.7942 24.0251 20.9352 25.6235 18.0898 28.4686C15.2445 31.3138 13.6458 35.1727 13.6455 39.1965C13.6458 43.2203 15.2445 47.0792 18.0898 49.9244C20.9352 52.7695 24.7942 54.3679 28.818 54.3679H47.5775C49.5698 54.3679 51.5426 53.9755 53.3833 53.213C55.224 52.4506 56.8965 51.3331 58.3053 49.9243C59.7141 48.5155 60.8316 46.843 61.594 45.0023C62.3564 43.1617 62.7489 41.1888 62.7489 39.1965C62.7489 37.2042 62.3564 35.2313 61.594 33.3907C60.8316 31.55 59.7141 29.8775 58.3053 28.4687C56.8965 27.0599 55.224 25.9424 53.3833 25.18C51.5426 24.4175 49.5698 24.0251 47.5775 24.0251ZM25.9892 42.3025C25.324 42.3027 24.6737 42.1057 24.1205 41.7362C23.5673 41.3668 23.1361 40.8416 22.8814 40.2271C22.6268 39.6125 22.5601 38.9363 22.6898 38.2839C22.8195 37.6314 23.1398 37.0321 23.6102 36.5617C24.0806 36.0914 24.6799 35.771 25.3323 35.6413C25.9848 35.5116 26.661 35.5783 27.2755 35.833C27.8901 36.0876 28.4153 36.5188 28.7847 37.072C29.1541 37.6252 29.3512 38.2756 29.351 38.9408C29.3507 39.8323 28.9964 40.6872 28.366 41.3175C27.7356 41.9479 26.8807 42.3022 25.9892 42.3025ZM50.5126 42.3025C49.8475 42.3025 49.1972 42.1053 48.6442 41.7357C48.0911 41.3661 47.6601 40.8408 47.4056 40.2263C47.1511 39.6117 47.0846 38.9355 47.2145 38.2832C47.3443 37.6308 47.6647 37.0316 48.1351 36.5613C48.6055 36.0911 49.2048 35.7709 49.8573 35.6412C50.5097 35.5116 51.1859 35.5784 51.8003 35.8331C52.4148 36.0878 52.9399 36.519 53.3093 37.0721C53.6787 37.6253 53.8757 38.2756 53.8755 38.9408C53.8755 39.3823 53.7885 39.8196 53.6195 40.2275C53.4505 40.6355 53.2028 41.0061 52.8905 41.3183C52.5782 41.6305 52.2075 41.8781 51.7995 42.0469C51.3915 42.2158 50.9542 42.3027 50.5126 42.3025Z" fill="white"/>
</g>
<defs>
<filter id="filter0_d_9912_1321" x="9.64551" y="21.0251" width="57.1034" height="38.3428" filterUnits="userSpaceOnUse" color-interpolation-filters="sRGB">
<feFlood flood-opacity="0" result="BackgroundImageFix"/>
<feColorMatrix in="SourceAlpha" type="matrix" values="0 0 0 0 0 0 0 0 0 0 0 0 0 0 0 0 0 0 127 0" result="hardAlpha"/>
<feOffset dy="1"/>
<feGaussianBlur stdDeviation="2"/>
<feColorMatrix type="matrix" values="0 0 0 0 0.804167 0 0 0 0 0.611797 0 0 0 0 0 0 0 0 0.5 0"/>
<feBlend mode="normal" in2="BackgroundImageFix" result="effect1_dropShadow_9912_1321"/>
<feBlend mode="normal" in="SourceGraphic" in2="effect1_dropShadow_9912_1321" result="shape"/>
</filter>
</defs>
</svg>
