<svg xmlns="http://www.w3.org/2000/svg" width="80" height="80" fill="none" viewBox="0 0 80 80"><path fill="#ffc200" d="M50.07 18H29.937A21.937 21.937 0 0 0 8 39.937c0 .304.008.604.02.909v18.166c0 2.749 3.506 3.91 5.147 1.704l2.848-3.827a21.85 21.85 0 0 0 13.922 4.983h20.132a21.935 21.935 0 0 0 0-43.872"/><g filter="url(#a)"><path fill="#fff" d="M49.898 24.025H29.855a16.21 16.21 0 0 0-11.461 27.67 16.2 16.2 0 0 0 11.462 4.748h20.042a16.208 16.208 0 1 0 0-32.418M26.833 43.552a3.593 3.593 0 1 1-.002-7.186 3.593 3.593 0 0 1 .002 7.186m26.2 0a3.593 3.593 0 1 1 0-7.185 3.593 3.593 0 0 1 0 7.185"/></g><defs><filter id="a" width="60.461" height="40.418" x="9.646" y="21.025" color-interpolation-filters="sRGB" filterUnits="userSpaceOnUse"><feFlood flood-opacity="0" result="BackgroundImageFix"/><feColorMatrix in="SourceAlpha" result="hardAlpha" values="0 0 0 0 0 0 0 0 0 0 0 0 0 0 0 0 0 0 127 0"/><feOffset dy="1"/><feGaussianBlur stdDeviation="2"/><feColorMatrix values="0 0 0 0 0.804167 0 0 0 0 0.611797 0 0 0 0 0 0 0 0 0.5 0"/><feBlend in2="BackgroundImageFix" result="effect1_dropShadow_9912_1321"/><feBlend in="SourceGraphic" in2="effect1_dropShadow_9912_1321" result="shape"/></filter></defs></svg>