<svg xmlns="http://www.w3.org/2000/svg" width="80" height="80" fill="none" viewBox="0 0 80 80"><path fill="#59636e" d="M51.19 29.207c-.837 0-1.516.679-1.516 1.517v18.324a1.517 1.517 0 1 0 3.034 0V30.726c0-.838-.68-1.517-1.517-1.517m-24.643 4.94c-.838 0-1.517.679-1.517 1.517v13.382a1.517 1.517 0 1 0 3.034 0v-13.38c0-.838-.68-1.517-1.517-1.517"/><path fill="#00adf0" d="M28.493 30.728c0 1.074-.872 1.905-1.946 1.905s-1.945-.831-1.945-1.905a1.946 1.946 0 0 1 3.89 0"/><path fill="#59636e" d="M38.981 36.731a5.64 5.64 0 0 1 5.237 3.55.588.588 0 0 1-.546.807h-9.38c-.416 0-.7-.42-.546-.806a5.64 5.64 0 0 1 5.237-3.55m7.95 2.258c-1.46-3.297-4.91-5.619-8.846-5.224a8.65 8.65 0 0 0 .896 17.25 8.6 8.6 0 0 0 5.245-1.763c.765-.581.79-1.722.06-2.345a1.51 1.51 0 0 0-1.888-.059c-.763.58-2.015 1.238-3.682 1.152a5.68 5.68 0 0 1-4.967-3.538.59.59 0 0 1 .543-.813H44.83a2.56 2.56 0 0 0 2.57-2.557c0-.757-.248-1.597-.47-2.099m16.696 9.011a5.636 5.636 0 0 1-4.252-9.332l-2.288-1.958a8.648 8.648 0 1 0 13.144 11.24l-2.288-1.956a5.62 5.62 0 0 1-4.314 2.008"/><path fill="#00adf0" d="M63.627 33.722a8.63 8.63 0 0 0-6.543 2.993l2.288 1.958a5.636 5.636 0 0 1 8.563 7.324l2.288 1.956a8.648 8.648 0 0 0-6.601-14.233"/><path fill="#59636e" d="M22.235 46.916a1.52 1.52 0 0 0-1.902-.069 5.635 5.635 0 0 1-9.05-4.7 5.597 5.597 0 0 1 5.105-5.393 5.62 5.62 0 0 1 3.93 1.123 1.51 1.51 0 0 0 1.9-.047 1.503 1.503 0 0 0-.055-2.331 8.62 8.62 0 0 0-5.84-1.758c-4.349.29-7.832 3.84-8.043 8.196a8.646 8.646 0 0 0 8.636 9.077 8.6 8.6 0 0 0 5.273-1.795c.744-.572.758-1.693.046-2.303"/></svg>