<svg width="80" height="80" viewBox="0 0 80 80" fill="none" xmlns="http://www.w3.org/2000/svg">
<path d="M39.5321 51.8047H48.8566C49.1863 51.8047 49.587 51.7351 49.7276 52.1158C49.8134 52.3267 49.8553 52.5529 49.8506 52.7806C49.8459 53.0082 49.7947 53.2325 49.7002 53.4397C49.5322 53.7794 49.1676 53.6885 48.8628 53.696C47.7293 53.7035 47.7703 53.7047 47.6633 54.8245C47.5538 55.9829 47.5949 57.1414 47.5389 58.2985C47.5302 58.4665 47.6633 58.7838 47.3025 58.7377C47.0536 58.7054 46.7911 58.6444 46.8148 58.2463C46.872 57.2508 46.7973 56.2617 46.923 55.27C47.1233 53.6985 47.1072 53.6972 45.5145 53.6972C41.2044 53.6972 36.8943 53.7047 32.5842 53.6873C32.0479 53.6873 31.7953 53.7619 31.7132 54.3891C31.544 55.6632 31.5489 56.946 31.4171 58.2201C31.3922 58.469 31.376 58.7178 31.0861 58.7178C30.7315 58.7178 30.9268 58.413 30.9069 58.2512C30.7413 56.9153 30.7791 55.5619 31.0189 54.2373C31.0886 53.8466 30.9753 53.635 30.5386 53.696C30.4558 53.7017 30.3726 53.7017 30.2898 53.696C29.3528 53.696 28.941 53.0614 29.3055 52.1768C29.4636 51.7935 29.8033 51.8035 30.1467 51.8035C33.2747 51.806 36.4032 51.8064 39.5321 51.8047Z" fill="#80B8C3"/>
<path d="M30.0235 60.3676C30.4158 60.0111 30.8777 59.7397 31.3801 59.5703C31.8824 59.4009 32.4144 59.3373 32.9425 59.3834C33.8135 59.4357 34.4592 59.8687 34.5239 60.7285C34.6397 62.2751 34.682 63.8292 34.7193 65.3807C34.7292 65.764 34.5787 66.1422 34.0723 66.1273C33.5659 66.1124 33.5024 65.7341 33.49 65.3359C33.4477 64.0743 33.4062 62.8118 33.3655 61.5484C33.3344 60.5991 32.7235 60.2096 31.8625 60.6451C31.2914 60.9338 30.77 61.317 30.2201 61.6492C29.9961 61.7848 30.0247 61.9914 30.0247 62.1967C30.0247 63.2336 30.0247 64.2704 30.0247 65.3073C30.0247 65.7391 29.9438 66.1211 29.4026 66.1248C28.8613 66.1285 28.7742 65.7515 28.7805 65.3173C28.7805 62.7458 28.7805 60.1744 28.7805 57.6029C28.7805 57.1724 28.8452 56.7929 29.3914 56.7854C29.9376 56.7779 30.0297 57.1388 30.0272 57.5805C30.0235 58.4465 30.0235 59.3162 30.0235 60.3676Z" fill="#FE6A51"/>
<path d="M24.7403 66.2567C24.3471 66.2567 23.9527 66.2567 23.5595 66.2567C22.915 66.2505 22.4098 65.9506 21.993 65.4853C21.7566 65.2215 21.7193 64.9167 21.9731 64.6479C22.2269 64.3791 22.4994 64.3455 22.8055 64.5683C23.8606 65.3347 25.0165 65.0075 26.1488 64.8582C26.3977 64.8258 26.5059 64.5844 26.5221 64.3431C26.5482 64.0793 26.379 63.9076 26.17 63.8055C25.5391 63.4957 24.8996 63.2046 24.2625 62.9084C23.7748 62.682 23.2758 62.4792 22.798 62.2315C22.1187 61.8794 21.8412 61.276 21.9992 60.5829C22.0646 60.2522 22.243 59.9546 22.5039 59.7412C22.7648 59.5278 23.0918 59.4118 23.4289 59.4133C24.3807 59.3884 25.3338 59.4133 26.2907 59.4058C26.7647 59.4058 27.1032 59.6771 27.4279 59.972C27.7029 60.2208 27.7278 60.5132 27.4889 60.7957C27.25 61.0781 26.9414 61.1329 26.6577 60.9201C25.6847 60.1872 24.5798 60.6526 23.5396 60.5468C23.5024 60.5446 23.4652 60.5501 23.4302 60.5628C23.3953 60.5756 23.3633 60.5955 23.3364 60.6212C23.3094 60.6468 23.288 60.6778 23.2735 60.7121C23.259 60.7464 23.2518 60.7833 23.2522 60.8206C23.2522 61.0371 23.4351 61.1204 23.6105 61.2013C24.6059 61.6559 25.6013 62.1121 26.5968 62.57C27.2649 62.8761 27.7029 63.3626 27.7776 64.1166C27.902 65.3795 27.1368 66.2318 25.8602 66.2468C25.4856 66.2567 25.1124 66.2567 24.7403 66.2567Z" fill="#FE6A51"/>
<path d="M50.5537 62.748C50.5537 62.1669 50.5301 61.5859 50.5612 61.006C50.5823 60.6228 50.4641 60.4735 50.0772 60.522C49.8283 60.5519 49.5708 60.5357 49.3966 60.3117C49.3343 60.2275 49.2958 60.1281 49.2851 60.0239C49.2743 59.9198 49.2918 59.8146 49.3356 59.7195C49.3752 59.609 49.4539 59.5169 49.5569 59.4605C49.6598 59.4041 49.7798 59.3873 49.8943 59.4134C50.5326 59.5254 50.6097 59.1795 50.5612 58.6755C50.5444 58.4066 50.5444 58.1369 50.5612 57.868C50.5736 57.4537 50.7727 57.1837 51.2045 57.1949C51.6026 57.2048 51.788 57.4698 51.7992 57.8531C51.8249 58.1844 51.8249 58.5172 51.7992 58.8485C51.7358 59.3462 51.9498 59.4482 52.394 59.4159C52.9091 59.3798 53.4292 59.4159 53.9468 59.4059C54.3325 59.3972 54.6237 59.5303 54.6336 59.9434C54.6461 60.3976 54.3313 60.5307 53.9269 60.5282C53.367 60.5282 52.8071 60.5382 52.2484 60.5282C51.9548 60.5208 51.793 60.5668 51.7992 60.9239C51.8216 62.0226 51.8129 63.1213 51.8104 64.2199C51.8104 64.7687 52.0916 65.0001 52.6217 65.0088C53.2538 65.0188 53.8834 65.0922 54.0887 64.2411C54.1621 63.9375 54.4831 63.8019 54.8016 63.9064C54.9554 63.9457 55.0884 64.0423 55.1733 64.1765C55.2582 64.3107 55.2886 64.4722 55.2583 64.6281C55.2271 64.8862 55.1416 65.1347 55.0073 65.3574C54.873 65.58 54.6931 65.7716 54.4794 65.9196C53.7527 66.4173 52.0518 66.4074 51.3314 65.9047C51.0914 65.7547 50.8939 65.5456 50.7577 65.2975C50.6216 65.0494 50.5513 64.7705 50.5537 64.4875C50.5537 63.9076 50.5537 63.3278 50.5537 62.748Z" fill="#FE6A51"/>
<path d="M63.2451 62.31C63.2451 63.0565 63.26 63.8031 63.2451 64.5496C63.2352 64.8868 63.3173 65.0548 63.6881 65.0125C63.9152 64.9895 64.144 64.9895 64.3712 65.0125C64.7444 65.0473 64.9933 65.2302 64.9933 65.6433C64.999 65.7223 64.9876 65.8016 64.9601 65.8758C64.9326 65.95 64.8896 66.0175 64.8338 66.0737C64.7781 66.13 64.7109 66.1736 64.6369 66.2017C64.5629 66.2299 64.4838 66.2418 64.4048 66.2368C63.2041 66.2592 62.0009 66.2555 60.7964 66.2368C60.7175 66.2405 60.6386 66.2275 60.5651 66.1986C60.4915 66.1697 60.4248 66.1257 60.3694 66.0694C60.314 66.013 60.2711 65.9456 60.2435 65.8716C60.2158 65.7975 60.2041 65.7185 60.2091 65.6396C60.2017 65.2464 60.4331 65.0461 60.825 65.0025C61.217 64.959 61.7408 65.1966 61.9362 64.8868C62.1315 64.577 62.0046 64.0868 62.0071 63.6749C62.0071 62.7629 61.9959 61.8508 62.0145 60.9375C62.022 60.6091 61.9175 60.4908 61.5915 60.5157C61.3015 60.5374 61.0102 60.5353 60.7205 60.5095C60.3796 60.4809 60.2004 60.2719 60.2129 59.9272C60.2253 59.6074 60.4095 59.4183 60.7218 59.4108C61.4049 59.3959 62.0904 59.3934 62.7723 59.4108C63.1381 59.4195 63.2538 59.6696 63.2526 60.0043C63.2451 60.782 63.2451 61.5435 63.2451 62.31Z" fill="#FE6A51"/>
<path d="M57.6684 62.2578C57.8551 62.2578 58.0417 62.2677 58.2271 62.2578C58.7061 62.2279 58.8965 62.4606 58.9077 62.9247C58.9438 64.4551 58.3652 64.908 56.8821 64.4937C56.7999 64.4794 56.7227 64.4446 56.6574 64.3927C56.5922 64.3407 56.5411 64.2732 56.5088 64.1963C56.3457 63.6616 56.3384 63.0914 56.4876 62.5526C56.5399 62.3386 56.7614 62.2565 56.9853 62.2565C57.2093 62.2565 57.4407 62.2565 57.6697 62.2565L57.6684 62.2578Z" fill="#FE6A51"/>
<path d="M62.2833 56.3026C63.2215 56.3026 63.2476 56.3263 63.2476 57.15C63.2476 57.9737 63.1717 58.0458 62.3057 58.0446C61.4397 58.0433 61.38 57.9973 61.3812 57.0728C61.3787 56.3225 61.4098 56.3026 62.2833 56.3026Z" fill="#FE6A51"/>
<path d="M62.2685 54.8357C61.6998 52.9967 61.0677 51.1776 60.356 49.3883C60.284 49.2456 60.2558 49.0846 60.2751 48.9259C60.2944 48.7671 60.3602 48.6176 60.4643 48.4962C60.9474 47.8391 61.1892 47.0355 61.1489 46.2209C61.1086 45.4063 60.7885 44.6305 60.2428 44.0243C59.0906 42.7452 57.3138 42.4703 55.7635 43.2778C55.1911 43.5764 54.6013 43.0986 54.0066 43.1795C53.9879 43.1795 53.9394 43.0451 53.9232 42.9705C53.6283 41.5246 53.5275 41.4238 52.0183 41.3753C51.6587 41.3641 51.5865 41.2322 51.5504 40.9037C51.0714 36.565 48.8852 33.361 45.0554 31.2918C43.7052 30.5533 42.2072 30.1252 40.6706 30.0389C40.1269 30.009 39.9004 29.8174 39.9601 29.245C40.0124 28.7324 39.9116 28.2011 39.9838 27.6922C40.1194 26.7242 39.7897 26.0523 38.9038 25.6429C38.8412 25.6211 38.7861 25.5821 38.7447 25.5304C38.7033 25.4787 38.6774 25.4163 38.6698 25.3505L41.0837 24.0876C41.3189 23.9632 41.615 23.8773 41.5814 23.5302C41.5478 23.183 41.2343 23.1494 40.973 23.081L37.8822 22.2784C38.5131 22.0619 38.9747 21.8828 39.4475 21.7471C39.8332 21.6364 39.9751 21.405 39.9689 21.018C39.9552 20.1893 39.9801 19.3594 39.9577 18.5295C39.9465 18.1562 40.0398 17.9447 40.4218 17.7829C40.8019 17.612 41.1144 17.3194 41.3099 16.9513C41.5055 16.5832 41.573 16.1605 41.5018 15.7498C41.3301 14.7942 40.6308 14.1024 39.7374 14.0078C39.3114 13.9703 38.8844 14.0678 38.5168 14.2864C38.1493 14.505 37.8598 14.8337 37.6894 15.226C37.3447 16.0509 37.5239 17.177 38.3115 17.5403C39.1999 17.9521 39.1377 18.5805 39.1153 19.2984C39.1029 19.7128 39.0954 20.1284 39.1153 20.5427C39.1327 20.8674 39.0108 21.0217 38.6947 21.1138C37.9793 21.3204 37.2775 21.5704 36.5683 21.7994C36.2933 21.889 35.9462 21.9338 35.9462 22.2971C35.9387 22.7015 36.3107 22.7463 36.6069 22.8247C37.662 23.1059 38.7221 23.3808 39.9539 23.7044C39.2882 24.0478 38.7731 24.3103 38.2605 24.5753C36.9553 25.251 36.9254 25.3816 38.1784 26.163C38.8851 26.6047 39.2547 27.0987 39.1277 27.956C39.0674 28.4298 39.0674 28.9093 39.1277 29.3831C39.18 29.8734 38.9287 30.0127 38.5305 30.0202C37.9075 30.0451 37.2892 30.1381 36.6865 30.2977C34.2922 30.871 32.1319 32.1665 30.4985 34.0087C28.8651 35.8509 27.8375 38.1506 27.5549 40.5964C27.4877 41.2036 27.3284 41.4126 26.7013 41.379C25.7134 41.3268 25.2281 41.8295 25.1597 42.8236C25.1497 42.9742 25.2256 43.2392 24.983 43.2056C24.3609 43.1198 23.7748 43.4856 23.1166 43.1521C21.6434 42.4056 19.9749 42.8336 18.8501 44.1338C17.8795 45.2537 17.7414 47.1001 18.6336 48.3568C18.9434 48.7948 18.8936 49.1034 18.7306 49.5339C17.6581 52.3833 16.6315 55.2475 15.9634 58.2226C15.936 58.347 15.7618 58.4951 15.9323 58.6108C16.1027 58.7265 16.2943 58.6668 16.4648 58.5809C16.6564 58.4839 16.6726 58.2923 16.7137 58.1081C17.3856 55.2824 18.3772 52.56 19.3789 49.8412C19.5132 49.4779 19.675 49.4008 20.0159 49.6048C20.4051 49.8467 20.8556 49.9715 21.3137 49.9644C21.743 49.952 21.7965 50.1237 21.6608 50.5119C20.8015 52.973 20.023 55.4616 19.3254 57.9775C19.2644 58.2002 19.0118 58.4938 19.4498 58.6369C19.8741 58.775 19.9176 58.4839 20.001 58.1902C20.7376 55.5773 21.5837 53.0054 22.4124 50.4248C22.5766 49.9147 22.8852 49.6994 23.4215 49.6198V50.3228C23.4215 52.8942 23.4215 55.4657 23.4215 58.0372C23.4215 58.4851 23.6703 58.6854 24.01 58.5162C24.285 58.3793 24.1606 58.1131 24.1606 57.909C24.168 53.4919 24.178 49.0748 24.1543 44.6577C24.1543 44.048 24.2887 43.8402 24.9407 43.8414C34.6675 43.8638 44.3934 43.8638 54.1186 43.8414C54.7631 43.8414 54.9161 44.0368 54.9136 44.6539C54.8888 49.2166 54.9049 53.7781 54.8925 58.3408C54.8925 58.8186 55.0443 59.1433 55.5569 59.4245V49.524C56.3844 49.616 56.6568 50.1461 56.836 50.8068C57.0289 51.526 57.2939 52.2252 57.5266 52.9332C58.2076 55.0111 58.8364 57.1069 59.4129 59.2205C60.035 58.9405 59.989 58.5 59.8372 57.9762C59.1143 55.4877 58.3441 53.0228 57.493 50.5791C57.3176 50.0814 57.4669 49.957 57.921 49.957C58.3185 49.9724 58.7115 49.8675 59.0483 49.6558C59.5174 49.3473 59.6704 49.5563 59.8222 49.9843C60.3996 51.6678 61.0155 53.3438 61.5717 55.0286C61.6961 55.413 61.9026 55.4964 62.1938 55.4018C62.5521 55.2874 62.3257 55.0236 62.2685 54.8357ZM38.2418 15.98C38.253 15.3243 38.864 14.7357 39.5321 14.7357C40.2003 14.7357 40.8162 15.3181 40.8336 15.98C40.8365 16.1504 40.8049 16.3197 40.7407 16.4776C40.6765 16.6355 40.5811 16.7788 40.4601 16.8989C40.3391 17.0189 40.195 17.1133 40.0366 17.1763C39.8782 17.2392 39.7087 17.2695 39.5383 17.2653C38.7856 17.2566 38.2281 16.7079 38.2418 15.98ZM23.0283 48.9242C21.7915 49.5986 20.322 49.3187 19.3938 48.2125C18.5763 47.2358 18.5801 45.5709 19.4038 44.5905C19.8319 44.0653 20.4314 43.7078 21.0969 43.5806C21.7625 43.4534 22.4516 43.5647 23.0432 43.8949C23.1742 43.952 23.2833 44.0497 23.3543 44.1737C23.4254 44.2976 23.4546 44.4412 23.4376 44.583C23.4152 45.2051 23.4376 45.8273 23.4376 46.4494C23.4376 47.0491 23.419 47.6501 23.4451 48.2486C23.4526 48.5883 23.3157 48.7675 23.0283 48.9242ZM28.2405 40.7955C28.9198 35.6044 32.5742 31.6813 37.723 30.8315C41.2069 30.2554 44.33 31.1923 47.0089 33.5104C49.0942 35.3158 50.3124 37.6164 50.7728 40.3239C50.8039 40.5068 50.7927 40.6972 50.8238 40.8801C50.8897 41.2758 50.7105 41.3778 50.3397 41.3716C49.0121 41.3554 47.6857 41.3654 46.3581 41.3654H39.455C35.8889 41.3654 32.3229 41.3654 28.7544 41.3741C28.3039 41.3716 28.1733 41.3119 28.2405 40.7955ZM52.4824 43.238H39.5421C35.2286 43.238 30.9152 43.238 26.6018 43.238C26.2982 43.238 25.8888 43.3761 25.8876 42.8236C25.8876 42.3334 26.1364 42.1007 26.613 42.0945H26.9863H52.0581C52.2036 42.0945 52.3492 42.0945 52.4936 42.0945C52.9427 42.1107 53.1841 42.3433 53.1866 42.7938C53.1903 43.3101 52.8084 43.238 52.4824 43.238ZM57.5652 49.3062C56.9386 49.3048 56.33 49.0961 55.8344 48.7127C55.7321 48.6432 55.6499 48.5479 55.5961 48.4365C55.5424 48.3251 55.519 48.2015 55.5283 48.0781C55.5457 47.5207 55.5283 46.9583 55.5283 46.4034C55.5283 45.9057 55.5631 45.408 55.5184 44.9102C55.4736 44.4125 55.7087 44.1463 56.1019 43.926C56.6146 43.6292 57.2059 43.4968 57.7962 43.5467C58.3865 43.5965 58.9473 43.8262 59.4029 44.2048C60.254 44.8953 60.6472 46.2789 60.2739 47.303C59.8558 48.4937 58.797 49.3012 57.5652 49.3V49.3062Z" fill="#80B8C3"/>
<path d="M41.5951 61.4278C41.5876 60.6103 40.6507 59.4557 39.8444 59.437C38.849 59.4121 37.7367 59.0749 36.8657 60.0591C36.8657 59.172 36.8657 58.2836 36.8657 57.3964C36.8657 57.053 36.6815 56.8402 36.3406 56.8265C35.9673 56.8128 35.767 57.0194 35.7521 57.3964C35.7521 57.4375 35.7521 57.4798 35.7521 57.5208C35.7521 60.1711 35.7521 62.8222 35.7521 65.4741C35.7521 65.8126 35.813 66.1124 36.21 66.1672C36.6069 66.2219 36.8246 66.0017 36.8744 65.6098C36.8937 65.5271 36.9191 65.446 36.9503 65.3671C37.5724 66.3103 38.4845 66.2904 39.4152 66.2568C40.4392 66.2194 41.5876 65.117 41.5988 64.0992C41.6051 63.2096 41.6038 62.3187 41.5951 61.4278ZM40.4753 62.6484C40.4753 63.0752 40.4604 63.3863 40.4753 63.6961C40.535 64.7002 39.1141 65.3995 38.2667 64.8781C37.3485 64.3132 36.6119 63.5692 36.8632 62.3025C36.9627 61.8048 37.8188 60.7733 38.4185 60.5742C39.0183 60.3752 39.8507 60.6165 40.2687 61.1379C40.6607 61.6256 40.3969 62.2192 40.4753 62.6484Z" fill="#FE6A51"/>
<path d="M13.8481 57.6042C13.8481 57.1861 13.8369 56.7718 13.2658 56.7855C12.7345 56.7967 12.7246 57.1924 12.7258 57.5855C12.7258 58.403 12.7258 59.2193 12.7258 60.2507C11.8548 59.1147 10.7786 59.4109 9.79435 59.4283C8.96692 59.442 8.01008 60.5332 8.00013 61.3606C8.00013 62.2727 8.00013 63.1847 8.00013 64.098C7.99601 64.409 8.0891 64.7135 8.2664 64.969C9.30785 66.5193 11.4044 66.7881 12.6873 65.3609C12.7582 65.8126 12.8677 66.1821 13.3728 66.1137C13.878 66.0453 13.8481 65.6346 13.8481 65.2539C13.8481 62.7048 13.8481 60.1549 13.8481 57.6042ZM12.7283 62.7131C12.7283 63.9823 11.6744 65.0411 10.4886 65.0063C10.1468 65.0003 9.81956 64.8666 9.57132 64.6315C9.32309 64.3964 9.17184 64.0769 9.14734 63.7359C9.11872 63.1138 9.17471 62.4917 9.13241 61.8695C9.05526 60.7783 10.5658 60.1412 11.4206 60.7111C11.8056 60.9919 12.1699 61.3 12.5106 61.6331C12.8527 61.9492 12.691 62.3747 12.7283 62.7131Z" fill="#FE6A51"/>
<path d="M20.6915 61.0073C20.6666 60.2047 20.042 59.4768 19.2867 59.4296C18.3996 59.3736 17.5062 59.4047 16.6153 59.4159C16.2794 59.4159 16.0728 59.6087 16.0741 59.9634C16.0753 60.318 16.2781 60.4959 16.6141 60.5195C16.8629 60.537 17.1118 60.5195 17.3606 60.5282C17.8587 60.5166 18.3571 60.5307 18.8537 60.5705C19.4896 60.6477 19.4435 61.1777 19.4361 61.6294C19.4273 62.1109 19.0342 61.8783 18.8239 61.8845C18.101 61.9156 17.3743 61.9032 16.6502 61.8944C16.0728 61.887 15.6212 62.1184 15.2242 62.5303C14.7054 63.069 14.851 63.7297 14.851 64.3568C14.851 65.2987 15.4445 66.0988 16.3677 66.1996C17.3121 66.2966 18.3137 66.482 19.1785 65.8188C19.3826 65.6621 19.5791 65.5513 19.7745 65.8823C19.925 66.1311 20.2112 66.1971 20.4912 66.0826C20.7525 65.9756 20.7214 65.7404 20.7214 65.4742C20.7226 64.9143 20.7239 61.9367 20.6915 61.0073ZM19.1586 64.4837C18.4531 64.9727 17.6904 65.0897 16.8679 64.9951C16.2358 64.9217 16.1039 64.7127 16.0815 63.9823C16.0629 63.3838 16.3528 63.1599 16.8978 63.1524C17.2076 63.1524 17.5199 63.1524 17.8272 63.1524V63.1611C18.1781 63.1611 18.529 63.1524 18.8799 63.1611C19.2606 63.1735 19.4771 63.3739 19.5543 63.7559C19.6314 64.1378 19.4473 64.2859 19.1586 64.4837Z" fill="#FE6A51"/>
<path d="M48.563 61.556C48.563 60.4971 47.5676 59.4581 46.49 59.4133C45.8903 59.3885 45.2868 59.386 44.6871 59.4133C43.5673 59.4656 42.5868 60.5008 42.5868 61.602C42.5868 62.4108 42.593 63.2195 42.5868 64.0271C42.5897 64.4651 42.7546 64.8866 43.0497 65.2103C43.78 66.09 44.7095 66.3128 45.8206 66.2692C47.5626 66.2008 48.558 65.2738 48.558 63.5468V62.738C48.563 62.3436 48.563 61.9504 48.563 61.556ZM47.3187 61.8956C47.2976 62.1831 47.3187 62.473 47.3187 62.7666V63.1996C47.3187 64.7226 46.2449 65.4704 44.7879 64.9304C44.2143 64.7176 43.8087 64.3282 43.8311 63.6351C43.8497 63.0578 43.8534 62.478 43.8311 61.9006C43.8099 61.4116 44.0289 61.0732 44.4022 60.8032C44.8837 60.4548 46.164 60.405 46.658 60.7273C47.0786 60.996 47.366 61.3482 47.3249 61.9019L47.3187 61.8956Z" fill="#FE6A51"/>
<path d="M71.9551 63.1597C71.9439 63.0152 71.9439 62.87 71.9551 62.7255V61.5459C71.9551 60.4734 70.9734 59.4506 69.8896 59.412C69.311 59.3909 68.73 59.3896 68.1477 59.412C67.0515 59.4543 66.1021 60.4584 66.0996 61.5559C66.0996 62.3833 66.112 63.2107 66.0996 64.0382C66.0909 64.5969 66.3186 65.0336 66.7068 65.4069C67.3115 65.9979 68.0058 66.2094 68.8706 66.2778C70.6822 66.4396 72.2923 65.1779 71.9551 63.1597ZM70.8352 63.5193C70.829 64.3741 70.2865 64.9465 69.4292 64.9963C69.1611 65.0112 68.8923 65.0112 68.6242 64.9963C67.7532 64.949 67.2369 64.4003 67.2281 63.5193C67.2281 63.2506 67.2281 62.9818 67.2281 62.7143C67.2281 62.4468 67.2281 62.1768 67.2281 61.9093C67.2235 61.7844 67.231 61.6594 67.2505 61.536C67.4086 60.7994 68.2932 60.4161 69.5226 60.5331C70.2691 60.6078 70.8166 61.1428 70.8328 61.8458C70.8477 62.4082 70.8415 62.9656 70.8352 63.5193Z" fill="#FE6A51"/>
<path d="M39.5446 40.5006C38.0764 40.5006 36.6078 40.5006 35.1387 40.5006C34.8202 40.5006 34.4494 40.5155 34.4469 40.085C34.4469 39.6756 34.7791 39.637 35.12 39.6383C38.0573 39.6433 40.9946 39.6433 43.9319 39.6383C44.2566 39.6383 44.6187 39.6383 44.6237 40.0576C44.6287 40.4769 44.2877 40.503 43.9518 40.5018C42.4823 40.4919 41.0141 40.5006 39.5446 40.5006Z" fill="#81B9C4"/>
<path d="M43.4416 36.6496C43.2597 36.6564 43.0783 36.6269 42.9079 36.5627C42.7376 36.4986 42.5817 36.4011 42.4495 36.2759C42.3173 36.1508 42.2114 36.0005 42.138 35.834C42.0646 35.6674 42.0251 35.4878 42.0219 35.3058C42.0157 34.9356 42.1567 34.578 42.4141 34.3117C42.6715 34.0455 43.0241 33.8924 43.3943 33.8861C43.7646 33.8799 44.1222 34.0209 44.3884 34.2783C44.6547 34.5357 44.8078 34.8883 44.814 35.2586C44.8154 35.6247 44.6718 35.9764 44.4147 36.2371C44.1575 36.4977 43.8077 36.646 43.4416 36.6496Z" fill="#80B9C3"/>
<path d="M36.0656 36.6496C35.884 36.6498 35.7042 36.6141 35.5364 36.5447C35.3686 36.4753 35.2161 36.3735 35.0878 36.2451C34.9594 36.1167 34.8575 35.9643 34.7881 35.7965C34.7187 35.6287 34.6831 35.4488 34.6832 35.2673C34.6932 34.5468 35.3775 33.8874 36.1004 33.8986C36.4657 33.9104 36.8125 34.0623 37.0687 34.323C37.325 34.5836 37.471 34.9329 37.4766 35.2984C37.4744 35.4802 37.4359 35.6599 37.3635 35.8267C37.291 35.9936 37.186 36.1443 37.0547 36.2701C36.9233 36.3959 36.7682 36.4943 36.5983 36.5594C36.4285 36.6246 36.2474 36.6553 36.0656 36.6496Z" fill="#80B8C3"/>
</svg>
