<svg xmlns="http://www.w3.org/2000/svg" width="80" height="80" fill="none" viewBox="0 0 80 80"><path fill="#80b8c3" d="M39.532 51.805h9.325c.33 0 .73-.07.87.31a1.67 1.67 0 0 1-.027 1.325c-.168.34-.532.248-.837.256-1.134.007-1.093.009-1.2 1.129-.11 1.158-.068 2.316-.124 3.473-.009.168.124.486-.236.44-.25-.033-.512-.094-.488-.492.057-.995-.018-1.984.108-2.976.2-1.572.184-1.573-1.409-1.573-4.31 0-8.62.008-12.93-.01-.536 0-.789.075-.87.702-.17 1.274-.165 2.557-.297 3.831-.025.249-.041.498-.33.498-.355 0-.16-.305-.18-.467a13.3 13.3 0 0 1 .112-4.014c.07-.39-.044-.602-.48-.541a2 2 0 0 1-.25 0c-.936 0-1.348-.635-.984-1.52.159-.383.498-.373.842-.373q4.692.004 9.385.002"/><path fill="#fe6a51" d="M30.024 60.368a3.84 3.84 0 0 1 2.919-.985c.87.053 1.516.486 1.58 1.345.117 1.547.159 3.101.196 4.653.01.383-.14.761-.647.746-.506-.015-.57-.393-.582-.791l-.125-3.788c-.03-.949-.642-1.338-1.503-.903-.57.289-1.092.672-1.642 1.004-.224.136-.195.342-.195.548v3.11c0 .432-.081.814-.622.818-.542.004-.629-.374-.622-.808v-7.714c0-.43.064-.81.61-.818.547-.007.639.354.636.796-.004.865-.004 1.735-.004 2.787m-5.283 5.889h-1.18c-.645-.007-1.15-.306-1.567-.772-.236-.263-.274-.568-.02-.837s.526-.302.832-.08c1.056.767 2.212.44 3.344.29.249-.032.357-.273.373-.515.026-.264-.143-.435-.352-.537-.63-.31-1.27-.601-1.908-.898-.487-.226-.986-.429-1.464-.676-.68-.352-.957-.956-.799-1.65a1.45 1.45 0 0 1 1.43-1.169c.952-.024 1.905 0 2.862-.007.474 0 .812.271 1.137.566.275.249.3.541.06.824-.238.282-.547.337-.83.124-.973-.733-2.078-.267-3.118-.373a.27.27 0 0 0-.288.274c0 .216.183.3.358.38q1.493.682 2.987 1.369c.668.306 1.106.793 1.18 1.547.125 1.262-.64 2.115-1.917 2.13-.374.01-.748.01-1.12.01m25.814-3.509c0-.581-.024-1.162.007-1.742.021-.383-.097-.532-.484-.484-.249.03-.506.014-.68-.21a.58.58 0 0 1-.061-.593.48.48 0 0 1 .558-.306c.639.112.716-.233.667-.737a7 7 0 0 1 0-.808c.013-.414.212-.684.644-.673.398.01.583.275.594.658q.039.498 0 .995c-.063.498.15.6.595.568.515-.036 1.035 0 1.553-.01.386-.009.677.124.687.538.012.454-.303.587-.707.584-.56 0-1.12.01-1.679 0-.293-.007-.455.039-.449.396.023 1.099.014 2.197.011 3.296 0 .549.282.78.812.789.632.01 1.261.083 1.467-.768.073-.303.394-.44.713-.335a.62.62 0 0 1 .456.722 1.84 1.84 0 0 1-.779 1.292c-.726.497-2.427.487-3.148-.015a1.66 1.66 0 0 1-.777-1.418zm12.691-.438c0 .746.015 1.493 0 2.24-.01.337.072.505.443.463a3.4 3.4 0 0 1 .683 0c.373.034.622.217.622.63a.554.554 0 0 1-.588.594 106 106 0 0 1-3.609 0 .56.56 0 0 1-.587-.597c-.007-.394.224-.594.616-.638.392-.043.916.195 1.111-.115.196-.31.069-.8.071-1.212 0-.912-.011-1.824.008-2.737.007-.329-.098-.447-.423-.422q-.436.032-.871-.006c-.341-.03-.52-.238-.508-.583.012-.32.197-.509.509-.516a43 43 0 0 1 2.05 0c.366.008.482.259.48.593-.007.778-.007 1.54-.007 2.306m-5.577-.052c.187 0 .374.01.56 0 .478-.03.669.203.68.667.036 1.53-.543 1.983-2.026 1.569a.5.5 0 0 1-.373-.298 2.94 2.94 0 0 1-.021-1.643c.052-.214.273-.296.497-.296h.685zm4.615-5.955c.938 0 .965.023.965.847s-.076.896-.942.895-.926-.048-.925-.972c-.002-.75.029-.77.902-.77"/><path fill="#80b8c3" d="M62.269 54.836a73 73 0 0 0-1.913-5.448.81.81 0 0 1 .108-.892 3.545 3.545 0 0 0-.221-4.472c-1.152-1.279-2.93-1.554-4.48-.746-.572.298-1.162-.18-1.756-.099-.02 0-.068-.134-.084-.209-.295-1.445-.395-1.546-1.905-1.595-.36-.01-.431-.143-.468-.471-.479-4.339-2.665-7.543-6.495-9.612a10.35 10.35 0 0 0-4.384-1.253c-.544-.03-.77-.222-.71-.794.051-.513-.05-1.044.023-1.553.135-.968-.194-1.64-1.08-2.05a.35.35 0 0 1-.234-.291l2.414-1.263c.235-.125.531-.21.497-.558-.033-.347-.347-.38-.608-.449l-3.09-.803c.63-.216 1.092-.395 1.564-.53.386-.112.528-.343.522-.73-.014-.829.011-1.659-.011-2.489-.011-.373.082-.584.464-.746a1.88 1.88 0 0 0 1.08-2.033c-.172-.956-.871-1.648-1.765-1.742a2.04 2.04 0 0 0-2.048 1.218c-.344.825-.165 1.951.623 2.314.888.412.826 1.04.803 1.758-.012.415-.02.83 0 1.245.018.325-.104.479-.42.57-.716.207-1.417.457-2.127.686-.275.09-.622.135-.622.498-.007.404.365.45.66.528 1.056.28 2.116.556 3.348.88l-1.694.87c-1.305.676-1.335.807-.082 1.588.707.442 1.077.936.95 1.793-.06.474-.06.953 0 1.427.052.49-.2.63-.597.637a8.5 8.5 0 0 0-1.844.278 12.01 12.01 0 0 0-9.132 10.298c-.067.608-.227.817-.854.783-.988-.052-1.473.45-1.541 1.445-.01.15.066.415-.177.382-.622-.086-1.208.28-1.866-.054-1.474-.746-3.142-.318-4.267.982-.97 1.12-1.109 2.966-.216 4.223.31.438.26.746.097 1.177-1.073 2.85-2.1 5.714-2.768 8.689-.027.124-.201.272-.03.388.17.116.361.056.532-.03.191-.097.208-.289.249-.473.672-2.826 1.663-5.548 2.665-8.267.134-.363.296-.44.637-.236.39.242.84.367 1.298.36.429-.013.483.159.347.547q-1.29 3.692-2.336 7.465c-.06.223-.313.517.125.66.424.138.468-.153.551-.447.737-2.613 1.583-5.185 2.411-7.765.165-.51.473-.726 1.01-.805v8.417c0 .448.248.648.588.48.275-.138.15-.404.15-.608.008-4.417.018-8.834-.006-13.251 0-.61.135-.818.787-.817q14.589.035 29.178 0c.644 0 .797.196.795.813-.025 4.563-.01 9.124-.022 13.687 0 .478.152.802.665 1.084v-9.901c.827.092 1.1.622 1.279 1.283.193.719.458 1.418.69 2.126q1.022 3.117 1.887 6.288c.622-.28.576-.721.424-1.245a148 148 0 0 0-2.344-7.397c-.175-.498-.026-.622.428-.622.398.015.79-.09 1.127-.301.47-.309.622-.1.774.328.578 1.684 1.194 3.36 1.75 5.045.124.384.33.467.622.373.358-.115.132-.378.075-.566M38.242 15.98c.011-.656.622-1.244 1.29-1.244s1.284.582 1.302 1.244a1.264 1.264 0 0 1-1.296 1.285c-.752-.008-1.31-.557-1.296-1.285M23.028 48.924c-1.236.675-2.706.395-3.634-.712-.818-.976-.814-2.641.01-3.622a2.88 2.88 0 0 1 3.64-.695.66.66 0 0 1 .394.688c-.023.622 0 1.244 0 1.866 0 .6-.019 1.201.007 1.8.008.34-.13.518-.417.675m5.213-8.129c.679-5.19 4.333-9.114 9.482-9.964 3.484-.576 6.607.361 9.286 2.68 2.085 1.805 3.303 4.105 3.764 6.813.03.183.02.373.05.556.067.396-.112.498-.483.492-1.328-.017-2.654-.007-3.982-.007h-6.903c-3.566 0-7.132 0-10.7.01-.451-.003-.582-.063-.514-.58m24.241 2.443h-25.88c-.304 0-.713.138-.714-.414 0-.49.248-.723.725-.73h25.881c.449.017.69.25.693.7.003.516-.379.444-.705.444m5.083 6.068a2.84 2.84 0 0 1-1.73-.593.7.7 0 0 1-.307-.635c.018-.557 0-1.12 0-1.675 0-.497.035-.995-.01-1.493-.044-.497.19-.764.584-.984a2.895 2.895 0 0 1 3.3.279c.852.69 1.245 2.074.872 3.098-.418 1.19-1.477 1.998-2.709 1.997z"/><path fill="#fe6a51" d="M41.595 61.428c-.007-.818-.944-1.972-1.75-1.991-.996-.025-2.108-.362-2.98.622v-2.663c0-.343-.184-.556-.524-.57-.374-.013-.574.193-.589.57v8.078c0 .339.061.638.458.693s.615-.165.664-.557a2 2 0 0 1 .076-.243c.622.943 1.534.923 2.465.89 1.024-.038 2.173-1.14 2.184-2.158q.01-1.335-.004-2.671m-1.12 1.22c0 .427-.015.738 0 1.048.06 1.004-1.36 1.704-2.208 1.182-.919-.565-1.655-1.309-1.404-2.575.1-.498.956-1.53 1.556-1.729s1.432.043 1.85.564c.392.488.128 1.081.206 1.51m-26.627-5.044c0-.418-.011-.832-.582-.819-.531.012-.541.407-.54.8v2.666c-.871-1.136-1.947-.84-2.932-.823-.827.014-1.784 1.105-1.794 1.933v2.737c-.004.311.09.615.266.871 1.042 1.55 3.138 1.82 4.421.392.071.452.18.821.686.753.505-.069.475-.48.475-.86zm-1.12 5.11c0 1.268-1.054 2.327-2.24 2.292a1.37 1.37 0 0 1-1.34-1.27c-.03-.622.027-1.244-.016-1.866-.077-1.092 1.434-1.729 2.289-1.159q.578.421 1.09.922c.342.316.18.742.217 1.08m7.964-1.706c-.025-.802-.65-1.53-1.405-1.578-.887-.056-1.78-.024-2.672-.013-.336 0-.542.193-.54.547 0 .355.203.533.54.556.248.018.497 0 .746.01q.747-.018 1.493.041c.636.078.59.608.582 1.06-.009.48-.402.248-.612.255-.723.03-1.45.018-2.174.01-.577-.008-1.029.223-1.426.635-.519.539-.373 1.2-.373 1.827 0 .942.593 1.742 1.517 1.843.944.097 1.946.282 2.81-.381.205-.157.401-.268.596.063.151.25.437.315.717.2.262-.106.23-.342.23-.608.002-.56.003-3.537-.03-4.467m-1.533 3.477c-.706.489-1.469.606-2.291.511-.632-.073-.764-.282-.787-1.013-.018-.598.272-.822.817-.83h.93v.01c.35 0 .701-.01 1.052 0 .38.011.597.212.674.594s-.107.53-.395.728m29.405-2.928c0-1.059-.995-2.098-2.073-2.143-.6-.024-1.203-.027-1.803 0-1.12.053-2.1 1.088-2.1 2.19 0 .808.006 1.617 0 2.424.003.438.168.86.463 1.183.73.88 1.66 1.103 2.77 1.06 1.743-.07 2.738-.996 2.738-2.723v-.809q.006-.591.005-1.182m-1.244.34c-.021.287 0 .577 0 .87v.434c0 1.523-1.074 2.27-2.531 1.73-.574-.212-.98-.602-.957-1.295.019-.577.022-1.157 0-1.734-.021-.49.198-.828.571-1.098.482-.348 1.762-.398 2.256-.076.42.27.708.621.667 1.175zm24.636 1.264a3 3 0 0 1 0-.434v-1.18c0-1.073-.982-2.095-2.065-2.134a23 23 0 0 0-1.742 0c-1.096.042-2.046 1.047-2.048 2.144 0 .827.012 1.655 0 2.482-.01.559.219.996.607 1.369.605.59 1.299.803 2.164.87 1.811.163 3.421-1.099 3.084-3.117m-1.12.36c-.006.854-.548 1.426-1.406 1.476a7 7 0 0 1-.805 0c-.87-.047-1.387-.596-1.396-1.477v-1.61q-.007-.187.023-.373c.158-.737 1.042-1.12 2.272-1.003.746.075 1.294.61 1.31 1.313.015.562.008 1.12.002 1.673"/><path fill="#81b9c4" d="M39.545 40.5h-4.406c-.319 0-.69.016-.692-.415 0-.41.332-.448.673-.447q4.406.008 8.812 0c.325 0 .687 0 .692.42.005.419-.336.445-.672.444-1.47-.01-2.938-.001-4.407-.001"/><path fill="#80b9c3" d="M43.442 36.65a1.37 1.37 0 0 1-1.42-1.344 1.396 1.396 0 0 1 2.792-.047 1.386 1.386 0 0 1-1.372 1.39"/><path fill="#80b8c3" d="M36.066 36.65a1.38 1.38 0 0 1-1.383-1.383c.01-.72.694-1.38 1.417-1.368a1.42 1.42 0 0 1 1.377 1.4 1.37 1.37 0 0 1-1.411 1.35"/></svg>