<svg xmlns="http://www.w3.org/2000/svg" width="80" height="80" fill="none" viewBox="0 0 80 80"><path fill="#f16c00" d="M8.024 19.804c.098-.602.245-1.156.562-1.685 1.855.626 3.441 1.757 5.126 2.72 8.494 4.765 16.94 9.603 25.385 14.441.586.337.976.337 1.538.024 1.952-1.131 3.954-2.19 5.907-3.321 8.25-4.694 16.475-9.411 24.701-14.105.562.794.757 1.66.757 2.624v30.206c0 1.998-.903 3.562-2.66 4.573L26.721 79.543c-.269.168-.562.313-.83.457h-.488c-1.099-.481-1.44-1.324-1.44-2.479.048-4.525 0-9.05.048-13.575 0-.77-.22-1.203-.927-1.612-4.028-2.239-8.006-4.55-12.034-6.812-1.782-.987-2.807-2.407-3.051-4.38 0-10.446 0-20.892.024-31.338"/><path fill="#f90" d="M71.243 17.902c-8.226 4.694-16.476 9.411-24.701 14.105-1.953 1.107-3.955 2.19-5.907 3.321-.538.313-.952.313-1.538-.024-8.446-4.838-16.891-9.676-25.385-14.441-1.685-.963-3.271-2.094-5.126-2.72.439-1.083 1.293-1.83 2.294-2.383A5641 5641 0 0 1 37.144.813C38.974-.222 40.88-.294 42.71.741c8.91 5.03 17.794 10.109 26.68 15.188.805.457 1.537 1.034 1.854 1.973"/></svg>