<svg width="80" height="80" viewBox="0 0 80 80" fill="none" xmlns="http://www.w3.org/2000/svg">
<path d="M8.01828 19.32C8.09139 18.8694 8.20105 18.4549 8.43865 18.0584C9.82772 18.527 11.0157 19.374 12.2769 20.0949C18.6374 23.6634 24.9613 27.286 31.2852 30.9086C31.7239 31.1609 32.0163 31.1609 32.4367 30.9266C33.8989 30.0795 35.3976 29.2865 36.8598 28.4395C43.0375 24.925 49.1969 21.3926 55.3564 17.8781C55.7767 18.4729 55.9229 19.1217 55.9229 19.8426C55.9229 27.3761 55.9229 34.9096 55.9229 42.4611C55.9229 43.957 55.2467 45.1285 53.9307 45.8854C43.2934 51.9411 32.656 57.9967 22.0186 64.0523C21.8176 64.1785 21.5983 64.2866 21.3972 64.3948C21.2693 64.3948 21.1596 64.3948 21.0317 64.3948C20.2092 64.0343 19.9533 63.4035 19.9533 62.5384C19.9899 59.1502 19.9533 55.7619 19.9899 52.3736C19.9899 51.7969 19.8254 51.4725 19.2953 51.1661C16.2796 49.49 13.3004 47.7598 10.2847 46.0657C8.95042 45.3267 8.18277 44.2634 8 42.7855C8 34.9637 8 27.1418 8.01828 19.32Z" fill="#F16C00"/>
<path d="M55.5035 13.4051C49.3441 16.9195 43.1664 20.452 37.0069 23.9664C35.5448 24.7955 34.046 25.6065 32.5838 26.4535C32.1817 26.6878 31.871 26.6878 31.4324 26.4355C25.1085 22.813 18.7845 19.1904 12.424 15.6219C11.1629 14.901 9.97489 14.0539 8.58582 13.5853C8.91481 12.7743 9.55451 12.2156 10.3039 11.8011C16.8471 8.05235 23.4087 4.32165 29.9702 0.608973C31.341 -0.166003 32.7666 -0.220072 34.1374 0.554905C40.8086 4.32165 47.4615 8.12444 54.1145 11.9272C54.7176 12.2697 55.2659 12.7022 55.5035 13.4051Z" fill="#FF9900"/>
</svg>
