<svg width="80" height="80" viewBox="0 0 80 80" fill="none" xmlns="http://www.w3.org/2000/svg">
<g clip-path="url(#clip0_12135_1962)">
<path d="M40.5 66.0035C54.5833 66.0035 66 54.5868 66 40.5035C66 26.4202 54.5833 15.0035 40.5 15.0035C26.4167 15.0035 15 26.4202 15 40.5035C15 54.5868 26.4167 66.0035 40.5 66.0035Z" fill="#1977F3"/>
<path d="M50.4259 47.8764L51.5555 40.5036H44.4839V35.7199C44.4839 33.7045 45.4701 31.7358 48.6401 31.7358H51.8567V25.4603C51.8567 25.4603 48.9377 24.9619 46.1478 24.9619C40.3242 24.9619 36.5159 28.4905 36.5159 34.8843V40.5036H30.0396V47.8764H36.5159V65.6952C37.814 65.8996 39.1444 66.0036 40.4999 66.0036C41.8554 66.0036 43.1858 65.896 44.4839 65.6952V47.8764H50.4259Z" fill="white"/>
</g>
<defs>
<clipPath id="clip0_12135_1962">
<rect width="51" height="51" fill="white" transform="translate(15 15)"/>
</clipPath>
</defs>
</svg>
