<svg xmlns="http://www.w3.org/2000/svg" width="80" height="80" fill="none" viewBox="0 0 80 80"><path fill="#33f" d="M71.977 8H8.023v64h63.954z"/><path fill="#fff" d="M24.07 19.565h12.029v1.974H26.067v5.526h8.917v1.974h-8.917v7.989H24.07zm-.349 34.531 1.95-.441c.35 2.415 2.021 3.855 4.738 3.855 2.439 0 4.366-1.138 4.366-2.996 0-1.324-.975-2.438-4.784-3.576-4.32-1.231-5.759-2.81-5.759-5.132 0-2.996 2.415-4.598 5.922-4.598 3.924 0 5.666 1.997 6.27 4.737l-1.95.441c-.489-2.252-2.021-3.204-4.39-3.204-2.23 0-3.808.836-3.808 2.438 0 1.3 1.021 2.299 4.551 3.414 4.203 1.3 6.015 2.717 6.015 5.41 0 3.344-2.81 5.086-6.386 5.086-3.74-.023-6.293-1.95-6.735-5.434m15.513-3.692c0-5.179 3.39-9.22 8.592-9.22 5.178 0 8.522 4.064 8.522 9.22 0 2.577-.859 4.807-2.299 6.432a60 60 0 0 1 2.044 2.137l-1.44 1.393a96 96 0 0 0-2.136-2.206c-1.324.859-2.903 1.347-4.691 1.347-5.016 0-8.592-3.832-8.592-9.103m11.773 6.27a52 52 0 0 0-2.043-1.881l1.393-1.417c.743.65 1.486 1.324 2.183 1.997 1.045-1.254 1.672-2.972 1.672-4.993 0-4.087-2.485-7.198-6.386-7.198s-6.41 3.111-6.41 7.198c0 4.204 2.718 7.153 6.41 7.153 1.184 0 2.252-.279 3.181-.86"/></svg>