<svg width="80" height="80" viewBox="0 0 80 80" fill="none" xmlns="http://www.w3.org/2000/svg">
<path d="M40 8.00002C22.3269 8.00002 8 22.3269 8 40C8 57.6731 22.3269 72 40 72C57.6731 72 72 57.6731 72 40C72 22.3269 57.6731 8.00002 40 8.00002ZM59.0034 59.0034C56.5334 61.4733 53.6589 63.4118 50.4591 64.7651C49.6464 65.1089 48.821 65.4106 47.984 65.6709V60.875C47.984 58.3541 47.1195 56.5 45.3903 55.3125C46.4738 55.2084 47.4684 55.0625 48.3746 54.875C49.2809 54.6875 50.2394 54.4166 51.2496 54.0625C52.2601 53.7084 53.1664 53.2865 53.9684 52.7969C54.7706 52.3073 55.5414 51.6719 56.2809 50.8906C57.0206 50.1094 57.6403 49.224 58.1403 48.2344C58.6403 47.2448 59.0363 46.0573 59.3278 44.6719C59.6195 43.2865 59.7653 41.7604 59.7653 40.0938C59.7653 36.8646 58.7132 34.1146 56.609 31.8438C57.5675 29.3438 57.4632 26.625 56.2965 23.6875L55.5153 23.5938C54.9738 23.5313 53.9996 23.7604 52.5934 24.2813C51.1871 24.8021 49.609 25.6563 47.859 26.8438C45.38 26.1563 42.807 25.8125 40.1404 25.8125C37.4529 25.8125 34.8904 26.1563 32.4529 26.8438C31.3488 26.0938 30.3019 25.474 29.3123 24.9844C28.3226 24.4948 27.531 24.1615 26.9373 23.9844C26.3435 23.8073 25.7914 23.6979 25.281 23.6563C24.7706 23.6146 24.4425 23.6041 24.2966 23.625C24.1507 23.6459 24.0466 23.6666 23.9841 23.6875C22.8175 26.6459 22.7133 29.3646 23.6716 31.8438C21.5675 34.1146 20.5154 36.8646 20.5154 40.0938C20.5154 41.7604 20.6613 43.2865 20.9529 44.6719C21.2445 46.0573 21.6404 47.2448 22.1404 48.2344C22.6404 49.224 23.2601 50.1094 23.9998 50.8906C24.7394 51.6719 25.5101 52.3073 26.3123 52.7969C27.1144 53.2865 28.0206 53.7084 29.031 54.0625C30.0414 54.4166 30.9998 54.6875 31.906 54.875C32.8123 55.0625 33.807 55.2084 34.8904 55.3125C33.182 56.4791 32.3279 58.3334 32.3279 60.875V65.7644C31.3843 65.4835 30.4541 65.1516 29.5404 64.7651C26.3407 63.4118 23.4661 61.4733 20.9963 59.0034C18.5265 56.5336 16.5879 53.6589 15.2346 50.4591C13.8349 47.1494 13.125 43.6304 13.125 40C13.125 36.3696 13.8349 32.8506 15.2349 29.5406C16.5883 26.341 18.5268 23.4664 20.9965 20.9965C23.4662 18.5266 26.341 16.5881 29.5406 15.2349C32.8506 13.8349 36.3696 13.125 40 13.125C43.6304 13.125 47.1494 13.8349 50.4595 15.2349C53.6592 16.5883 56.5337 18.5268 59.0037 20.9965C61.4735 23.4663 63.412 26.341 64.7653 29.5406C66.165 32.8506 66.875 36.3696 66.875 40C66.875 43.6304 66.165 47.1494 64.7651 50.4594C63.4119 53.6589 61.4731 56.5338 59.0034 59.0034Z" fill="black"/>
</svg>
