<svg xmlns="http://www.w3.org/2000/svg" width="80" height="80" fill="none" viewBox="0 0 80 80"><path fill="url(#a)" d="M47.642 27.5 13.816 8.174c-.414-.244-.96-.225-1.374.02a1.38 1.38 0 0 0-.677 1.185s.018 1.787.018 4.723l24.64 24.614z"/><path fill="url(#b)" d="M11.784 14.085c.056 10.595.169 36.262.225 49.058l24.433-24.425z"/><path fill="url(#c)" d="M66.993 38.565 47.643 27.5l-11.22 11.216 12.67 12.664L67.03 40.936c.433-.244.677-.696.677-1.185a1.42 1.42 0 0 0-.715-1.186"/><path fill="url(#d)" d="M11.99 63.142c.02 4.572.038 7.489.038 7.489 0 .49.263.94.678 1.186.433.244.94.244 1.374 0L49.092 51.38l-12.65-12.662z"/><defs><linearGradient id="a" x1="11.741" x2="67.682" y1="39.958" y2="39.958" gradientUnits="userSpaceOnUse"><stop stop-color="#63be6b"/><stop offset=".506" stop-color="#5bbc6a"/><stop offset="1" stop-color="#4ab96a"/></linearGradient><linearGradient id="b" x1="11.751" x2="67.671" y1="39.972" y2="39.972" gradientUnits="userSpaceOnUse"><stop stop-color="#3ec6f2"/><stop offset="1" stop-color="#45afe3"/></linearGradient><linearGradient id="c" x1="11.72" x2="67.661" y1="39.946" y2="39.946" gradientUnits="userSpaceOnUse"><stop stop-color="#faa51a"/><stop offset=".387" stop-color="#fab716"/><stop offset=".741" stop-color="#fac412"/><stop offset="1" stop-color="#fac80f"/></linearGradient><linearGradient id="d" x1="11.983" x2="49.079" y1="55.335" y2="55.335" gradientUnits="userSpaceOnUse"><stop stop-color="#ec3b50"/><stop offset="1" stop-color="#e7515b"/></linearGradient></defs></svg>