<svg width="80" height="80" viewBox="0 0 80 80" fill="none" xmlns="http://www.w3.org/2000/svg">
<path d="M13.44 25.7505H64.9977C66.2212 25.7505 67.2189 26.7482 67.2189 27.9717V65.4117C67.2189 66.6353 66.2212 67.6329 64.9977 67.6329H13.44C12.2165 67.6329 11.2189 66.6353 11.2189 65.4117V27.9717C11.2189 26.7482 12.2165 25.7505 13.44 25.7505Z" fill="#4989F5"/>
<path d="M64.3576 25.4306H14.0235C12.4612 25.4306 11.2565 37.4965 11.2565 39.0588L38.8141 67.6141H64.3576C65.92 67.6141 67.1812 66.3341 67.2 64.7718V28.273C67.1812 26.7106 65.92 25.4494 64.3576 25.4306Z" fill="url(#paint0_linear_18008_2690)"/>
<path d="M63.9999 54.4188C63.9623 54.0423 63.9247 53.6847 63.8494 53.2517H55.1341C55.1341 54.4753 55.1341 55.8117 55.1341 57.0164H60.1788C59.9529 58.1647 59.2941 59.1811 58.3341 59.84V59.8211C57.7129 60.2353 57.0164 60.4988 56.2823 60.6117C55.5482 60.7435 54.7952 60.7435 54.0611 60.5929C53.327 60.4423 52.6117 60.1411 51.9905 59.6894C51.0682 59.0494 50.3717 58.1459 49.9576 57.0917C49.9199 57.0164 49.9011 56.9223 49.8635 56.847C49.4682 55.68 49.4682 54.4188 49.8635 53.2517C50.1458 52.4235 50.5976 51.6894 51.1999 51.0682C52.6117 49.6 54.7388 49.0541 56.6964 49.6376C57.4494 49.8635 58.127 50.2776 58.6917 50.8235L60.4047 49.1106C60.7058 48.8094 61.0258 48.5082 61.3082 48.207C60.4423 47.3976 59.4258 46.7764 58.3152 46.3623C56.3011 45.6282 54.0988 45.6094 52.0658 46.3058C51.9905 46.3247 51.9341 46.3623 51.8588 46.3811C49.6752 47.2094 47.8682 48.8094 46.8141 50.8988C46.4376 51.6329 46.1741 52.4235 46.0047 53.2329C45.0447 58.0329 47.9623 62.7576 52.687 64.0188C54.2305 64.4329 55.8682 64.4141 57.4305 64.0753C58.8423 63.7553 60.1599 63.0776 61.2329 62.0988C62.3623 61.0635 63.1529 59.6894 63.5858 58.24C63.9811 56.9976 64.1129 55.6988 63.9999 54.4188Z" fill="white"/>
<path d="M24 32.7718H40V11.7647H26.3906L24 32.7718Z" fill="#3C4BA6"/>
<path d="M56 32.7718H40V11.7647H53.6094L56 32.7718ZM67.2188 15.7553L67.2376 15.8306C67.2376 15.7929 67.2188 15.7741 67.2188 15.7553Z" fill="#7BABF7"/>
<path d="M67.2376 15.8118L67.2188 15.7365C66.7106 13.4212 64.6588 11.7647 62.2682 11.7647H53.5906L55.9812 32.7718H72L67.2376 15.8118Z" fill="#3F51B5"/>
<path d="M12.7624 15.8118L12.7812 15.7365C13.2894 13.4212 15.36 11.7647 17.7318 11.7647H26.4094L24 32.7718H8L12.7624 15.8118Z" fill="#7BABF7"/>
<path fill-rule="evenodd" clip-rule="evenodd" d="M24.0376 32.753C24.0376 37.1765 20.4611 40.753 16.0376 40.753C11.6141 40.753 8.0376 37.1765 8.0376 32.753H24.0376Z" fill="#709BE0"/>
<path fill-rule="evenodd" clip-rule="evenodd" d="M40.0188 32.753C40.0188 37.1765 36.4423 40.753 32.0188 40.753C27.5953 40.753 24.0188 37.1765 24.0188 32.753H40.0188Z" fill="#3C4BA6"/>
<path fill-rule="evenodd" clip-rule="evenodd" d="M56.0188 32.753C56.0188 37.1765 52.4423 40.753 48.0188 40.753C43.5953 40.753 40.0188 37.1765 40.0188 32.753H56.0188Z" fill="#709BE0"/>
<path fill-rule="evenodd" clip-rule="evenodd" d="M72 32.753C72 37.1765 68.4235 40.753 64 40.753C59.5765 40.753 56 37.1765 56 32.753H72Z" fill="#3C4BA6"/>
<defs>
<linearGradient id="paint0_linear_18008_2690" x1="10.851" y1="46.259" x2="67.2004" y2="46.259" gradientUnits="userSpaceOnUse">
<stop offset="0.03" stop-color="#4079D8"/>
<stop offset="1" stop-color="#4989F5"/>
</linearGradient>
</defs>
</svg>
