<svg width="80" height="80" viewBox="0 0 80 80" fill="none" xmlns="http://www.w3.org/2000/svg">
<path d="M23.0011 39.9523C23.0011 36.687 23.8748 33.6282 25.3926 31.0091V19.8993H14.6034C10.3212 25.6259 8 32.6051 8 39.9523C8 47.2995 10.3212 54.2787 14.6034 60.0053H25.3926V48.8955C23.8748 46.2764 23.0011 43.2176 23.0011 39.9523Z" fill="#FBBD00"/>
<path d="M40.0052 57.459L32.5046 65.1824L40.0052 72.9057C47.1406 72.9057 53.9183 70.5156 59.4797 66.1062V55.0083H48.702C46.1361 56.5769 43.153 57.459 40.0052 57.459Z" fill="#0F9D58"/>
<path d="M25.3948 48.8958L14.6055 60.0055C15.4533 61.1393 16.3765 62.2251 17.3754 63.2538C23.4199 69.4777 31.4563 72.9054 40.0044 72.9054V57.4587C33.801 57.4587 28.364 54.0193 25.3948 48.8958Z" fill="#31AA52"/>
<path d="M72.0003 39.9535C72.0003 37.9487 71.824 35.9401 71.4762 33.9838L71.1948 32.4006H39.9979V47.8473H55.1805C53.7062 50.8673 51.4393 53.3311 48.6946 55.0092L59.4723 66.1071C60.5734 65.2341 61.6279 64.2835 62.627 63.2549C68.6714 57.0308 72.0003 48.7556 72.0003 39.9535Z" fill="#3C79E6"/>
<path d="M52.0269 27.5741L53.3528 28.9393L63.9602 18.017L62.6344 16.6517C56.5899 10.4277 48.5534 7 40.0052 7L32.5046 14.7233L40.0052 22.4467C44.5463 22.4467 48.8157 24.2676 52.0269 27.5741Z" fill="#CF2D48"/>
<path d="M40.0046 22.4467V7C31.4564 7 23.42 10.4277 17.3754 16.6516C16.3765 17.6802 15.4533 18.766 14.6055 19.8999L25.3948 31.0097C28.3641 25.8861 33.8011 22.4467 40.0046 22.4467Z" fill="#EB4132"/>
</svg>
