<svg width="80" height="80" viewBox="0 0 80 80" fill="none" xmlns="http://www.w3.org/2000/svg">
<path d="M34.2024 3C19.7287 3.00257 7.99743 14.7378 8 29.2116C8.00246 43.1966 18.9854 54.7156 32.9544 55.384V61.6537C32.9534 62.3429 33.5112 62.9025 34.2004 62.9037C34.3246 62.9039 34.4481 62.8856 34.5669 62.8493C49.0556 58.4515 60.4094 43.6832 60.4094 29.207C60.3943 14.7396 48.6699 3.01509 34.2024 3Z" fill="#4CAF50"/>
<path d="M34.4656 24.3352H24.482C23.7928 24.3352 23.234 24.894 23.234 25.5832V35.5668C23.234 36.256 23.7928 36.8148 24.482 36.8148H30.7217V40.5587C30.721 41.0555 31.0151 41.5055 31.4705 41.7043C31.6283 41.7718 31.7981 41.8065 31.9697 41.8066C32.2868 41.8068 32.5919 41.6864 32.8233 41.4697C34.4958 39.9363 35.528 37.8283 35.7136 35.5669V25.5832C35.7134 24.894 35.1548 24.3352 34.4656 24.3352Z" fill="#FAFAFA"/>
<path d="M52.7528 24.3352H42.7692C42.08 24.3352 41.5212 24.894 41.5212 25.5832V35.5668C41.5212 36.256 42.08 36.8148 42.7692 36.8148H49.009V40.5587C49.0083 41.0555 49.3024 41.5055 49.7577 41.7043C49.9156 41.7718 50.0853 41.8065 50.2569 41.8066C50.574 41.8068 50.8791 41.6864 51.1105 41.4697C52.783 39.9363 53.8152 37.8283 54.0008 35.5669V25.5832C54.0007 24.894 53.442 24.3352 52.7528 24.3352Z" fill="#FAFAFA"/>
</svg>
