<svg xmlns="http://www.w3.org/2000/svg" width="80" height="80" fill="none" viewBox="0 0 80 80"><path fill="#4caf50" d="M39.997 3C22.323 3.003 7.997 17.334 8 35.008c.003 17.078 13.415 31.145 30.473 31.961v7.656a1.524 1.524 0 0 0 1.97 1.46C58.134 70.715 72 52.681 72 35.003 71.982 17.336 57.664 3.018 39.997 3"/><path fill="#fafafa" d="M36.95 24.335H24.758c-.842 0-1.524.683-1.524 1.524v12.192c0 .841.682 1.524 1.524 1.524h7.62v4.572a1.524 1.524 0 0 0 2.566 1.112 11 11 0 0 0 3.53-7.208V25.859c0-.841-.683-1.524-1.524-1.524m18.287 0H43.045c-.841 0-1.524.683-1.524 1.524v12.192c0 .841.683 1.524 1.524 1.524h7.62v4.572a1.524 1.524 0 0 0 2.566 1.112 11 11 0 0 0 3.53-7.208V25.859c0-.841-.683-1.524-1.524-1.524"/></svg>