<svg xmlns="http://www.w3.org/2000/svg" width="80" height="80" fill="none" viewBox="0 0 80 80"><path fill="#f8761f" d="M66.342 38.425c-1.397-2.402-3.362-4.328-5.82-5.778-1.836-1.069-3.74-1.746-5.885-2.038v-7.633c2.145-.91 3.477-2.925 3.477-5.276 0-3.205-2.571-5.801-5.775-5.801-3.206 0-5.823 2.596-5.823 5.8 0 2.352 1.255 4.367 3.4 5.277v7.637a16.8 16.8 0 0 0-5.121 1.604c-3.32-2.52-14.207-10.786-20.575-15.615.151-.544.267-1.105.267-1.697A6.425 6.425 0 0 0 18.06 8.48a6.424 6.424 0 0 0-6.427 6.425 6.43 6.43 0 0 0 6.43 6.426 6.37 6.37 0 0 0 3.3-.936l1.344 1.019L41.173 34.71c-.977.896-1.886 1.915-2.613 3.058-1.474 2.33-2.375 4.895-2.375 7.693v.583c0 1.964.373 3.818 1.01 5.56.56 1.52 1.378 2.903 2.392 4.153l-6.129 6.14a4.94 4.94 0 0 0-5.22 1.144 4.93 4.93 0 0 0-1.454 3.512c0 1.326.517 2.573 1.456 3.51a4.93 4.93 0 0 0 3.514 1.456 4.94 4.94 0 0 0 3.515-1.455 4.94 4.94 0 0 0 1.454-3.511c0-.513-.08-1.014-.228-1.49l6.335-6.332c.868.6 1.806 1.104 2.814 1.54 1.99.859 4.185 1.383 6.587 1.383h.44a15.54 15.54 0 0 0 7.518-1.9 15.56 15.56 0 0 0 5.892-5.543c1.475-2.36 2.287-4.967 2.287-7.835v-.143c0-2.821-.653-5.424-2.026-7.81m-7.74 13.282c-1.72 1.91-3.696 3.086-5.93 3.086h-.369c-1.276 0-2.524-.352-3.746-.993-1.378-.706-2.425-1.713-3.282-2.988-.885-1.252-1.366-2.618-1.366-4.066v-.44c0-1.425.273-2.775.963-4.05a8.8 8.8 0 0 1 3.055-3.34c1.3-.856 2.687-1.276 4.233-1.276h.143c1.402 0 2.729.276 3.98.916a8.4 8.4 0 0 1 3.127 2.842 9.04 9.04 0 0 1 1.402 3.994c.023.3.035.606.035.9 0 1.957-.748 3.77-2.245 5.415"/></svg>