<svg xmlns="http://www.w3.org/2000/svg" width="80" height="80" fill="none" viewBox="0 0 80 80"><circle cx="40.383" cy="39.583" r="29.984" fill="#fff"/><path fill="#e9530e" d="M30.693 49.131c.519.519 2.076 2.076 9.236 2.076s8.718-1.557 9.237-2.076 2.075-2.075 2.075-9.236-1.556-8.718-2.075-9.237c-.52-.518-2.076-2.075-9.237-2.075s-8.717 1.557-9.236 2.075c-.519.52-2.076 2.076-2.076 9.237s1.557 8.717 2.076 9.236m-5.708-24.146c2.49-2.49 8.372-4.082 15.014-4.082s12.522 1.592 15.013 4.082S59.094 33.357 59.094 40s-1.591 12.522-4.082 15.013-8.372 4.082-15.013 4.082c-6.642 0-12.523-1.626-15.014-4.082S20.903 46.641 20.903 40c0-6.642 1.592-12.523 4.082-15.014M21.7 58.402c3.494 3.494 10.343 5.604 18.3 5.604 7.956 0 14.805-2.075 18.3-5.604 3.493-3.494 5.603-10.343 5.603-18.3 0-7.956-2.075-14.805-5.604-18.3-3.494-3.493-10.343-5.603-18.3-5.603-7.956 0-14.805 2.075-18.3 5.604-3.493 3.528-5.603 10.343-5.603 18.3.034 7.956 2.11 14.805 5.604 18.299M8 39.999C8 22.32 22.322 8 39.999 8c17.504 0 31.756 14.08 31.998 31.549.242 17.884-14.529 32.656-32.414 32.414C22.08 71.72 8 57.503 8 39.999m27.605-6.193h8.752c1.004 0 1.8.796 1.8 1.8v8.751a1.786 1.786 0 0 1-1.8 1.8h-8.752a1.786 1.786 0 0 1-1.799-1.8v-8.752c0-1.003.796-1.799 1.8-1.799"/></svg>