<svg xmlns="http://www.w3.org/2000/svg" width="80" height="80" fill="none" viewBox="0 0 80 80"><path fill="url(#a)" d="M24.229 71.774c-3.806-.173-5.874-.807-7.25-1.343-1.821-.71-3.12-1.554-4.488-2.92s-2.214-2.665-2.92-4.487c-.536-1.375-1.17-3.443-1.343-7.249C8.038 51.661 8 50.426 8 40.003s.042-11.656.226-15.774c.173-3.806.81-5.87 1.343-7.25.71-1.821 1.556-3.12 2.92-4.49 1.366-1.366 2.665-2.214 4.489-2.92 1.375-.536 3.443-1.17 7.249-1.343C28.343 8.038 29.579 8 39.999 8c10.424 0 11.656.042 15.774.226 3.806.173 5.87.81 7.25 1.343 1.821.706 3.12 1.554 4.488 2.92s2.21 2.667 2.92 4.489c.536 1.375 1.17 3.443 1.343 7.249.188 4.118.226 5.35.226 15.774 0 10.42-.038 11.656-.226 15.774-.173 3.806-.81 5.874-1.343 7.249-.71 1.822-1.554 3.121-2.92 4.487s-2.667 2.21-4.489 2.92c-1.375.536-3.443 1.17-7.249 1.343C51.66 71.962 50.423 72 40 72c-10.42 0-11.656-.036-15.77-.226"/><path fill="url(#b)" d="M24.229 71.774c-3.806-.173-5.874-.807-7.25-1.343-1.821-.71-3.12-1.554-4.488-2.92s-2.214-2.665-2.92-4.487c-.536-1.375-1.17-3.443-1.343-7.249C8.038 51.661 8 50.426 8 40.003s.042-11.656.226-15.774c.173-3.806.81-5.87 1.343-7.25.71-1.821 1.556-3.12 2.92-4.49 1.366-1.366 2.665-2.214 4.489-2.92 1.375-.536 3.443-1.17 7.249-1.343C28.343 8.038 29.579 8 39.999 8c10.424 0 11.656.042 15.774.226 3.806.173 5.87.81 7.25 1.343 1.821.706 3.12 1.554 4.488 2.92s2.21 2.667 2.92 4.489c.536 1.375 1.17 3.443 1.343 7.249.188 4.118.226 5.35.226 15.774 0 10.42-.038 11.656-.226 15.774-.173 3.806-.81 5.874-1.343 7.249-.71 1.822-1.554 3.121-2.92 4.487s-2.667 2.21-4.489 2.92c-1.375.536-3.443 1.17-7.249 1.343C51.66 71.962 50.423 72 40 72c-10.42 0-11.656-.036-15.77-.226"/><path fill="#fff" d="M32.143 40.136a7.925 7.925 0 1 1 15.85 0 7.925 7.925 0 1 1-15.85 0m-4.285 0c0 6.743 5.466 12.21 12.209 12.21s12.209-5.467 12.209-12.21-5.466-12.209-12.21-12.209c-6.742 0-12.208 5.466-12.208 12.21m22.048-12.693a2.852 2.852 0 1 0 2.854-2.852h-.001a2.855 2.855 0 0 0-2.853 2.852M30.46 59.49c-2.318-.106-3.578-.492-4.415-.818-1.11-.432-1.902-.947-2.735-1.778s-1.348-1.623-1.779-2.733c-.326-.837-.712-2.098-.817-4.416-.116-2.506-.139-3.259-.139-9.608s.025-7.1.139-9.609c.105-2.318.494-3.576.817-4.415.433-1.11.947-1.902 1.779-2.735.831-.833 1.623-1.348 2.735-1.778.837-.327 2.097-.713 4.415-.818 2.506-.116 3.26-.139 9.606-.139s7.1.025 9.608.14c2.318.105 3.576.494 4.416.817 1.11.43 1.902.947 2.734 1.778s1.347 1.625 1.779 2.735c.326.837.712 2.098.818 4.416.115 2.508.138 3.259.138 9.608s-.023 7.1-.138 9.609c-.106 2.318-.494 3.578-.818 4.415-.432 1.11-.947 1.902-1.779 2.733-.831.83-1.625 1.346-2.735 1.778-.836.327-2.097.713-4.415.818-2.506.115-3.259.139-9.608.139s-7.1-.023-9.606-.139m-.197-42.986c-2.53.115-4.26.517-5.771 1.104-1.563.607-2.888 1.422-4.212 2.743s-2.135 2.646-2.742 4.212c-.588 1.511-.99 3.24-1.105 5.77-.117 2.536-.144 3.346-.144 9.803s.027 7.268.144 9.803c.116 2.531.517 4.26 1.105 5.771.607 1.563 1.42 2.891 2.742 4.212s2.647 2.134 4.212 2.742c1.513.588 3.24.99 5.771 1.105 2.537.115 3.346.144 9.803.144 6.456 0 7.267-.027 9.802-.144 2.532-.116 4.26-.517 5.771-1.105 1.564-.608 2.889-1.421 4.212-2.742s2.134-2.649 2.743-4.212c.587-1.511.99-3.24 1.104-5.771.115-2.537.142-3.346.142-9.803s-.027-7.267-.142-9.802c-.115-2.531-.517-4.26-1.104-5.771-.61-1.564-1.422-2.889-2.743-4.212s-2.648-2.136-4.21-2.742c-1.513-.588-3.242-.992-5.77-1.105-2.536-.116-3.347-.144-9.803-.144-6.455 0-7.267.027-9.804.144"/><defs><radialGradient id="a" cx="0" cy="0" r="1" gradientTransform="translate(12.142 70.598)scale(81.2562)" gradientUnits="userSpaceOnUse"><stop offset=".09" stop-color="#fa8f21"/><stop offset=".78" stop-color="#d82d7e"/></radialGradient><radialGradient id="b" cx="0" cy="0" r="1" gradientTransform="translate(52.33 68.543)scale(71.5063)" gradientUnits="userSpaceOnUse"><stop offset=".64" stop-color="#8c3aaa" stop-opacity="0"/><stop offset="1" stop-color="#8c3aaa"/></radialGradient></defs></svg>