<svg xmlns="http://www.w3.org/2000/svg" width="80" height="80" fill="none" viewBox="0 0 80 80">
  <mask id="a" width="64" height="64" x="8" y="8" maskUnits="userSpaceOnUse" style="mask-type:luminance">
    <path fill="#fff" d="M40 13.765c8.544 0 9.557.032 12.931.186 3.12.142 4.815.663 5.942 1.102 1.495.58 2.56 1.273 3.68 2.393 1.12 1.12 1.814 2.186 2.393 3.68.439 1.127.96 2.822 1.102 5.942.154 3.374.186 4.386.186 12.931 0 8.545-.032 9.556-.186 12.93-.142 3.121-.663 4.816-1.102 5.943-.58 1.494-1.273 2.56-2.393 3.68-1.12 1.12-2.186 1.813-3.68 2.393-1.127.439-2.822.96-5.942 1.102-3.374.154-4.386.186-12.931.186-8.545 0-9.556-.032-12.93-.186-3.121-.143-4.816-.663-5.943-1.102-1.494-.581-2.56-1.274-3.68-2.393-1.12-1.12-1.813-2.186-2.393-3.68-.439-1.127-.96-2.822-1.102-5.942-.153-3.374-.186-4.386-.186-12.931 0-8.545.032-9.556.186-12.931.143-3.12.664-4.815 1.102-5.942.58-1.495 1.273-2.56 2.393-3.68 1.12-1.12 2.186-1.814 3.68-2.393 1.128-.439 2.822-.96 5.942-1.102 3.374-.152 4.387-.186 12.931-.186ZM40 8c-8.69 0-9.78.037-13.194.192-3.406.155-5.732.697-7.767 1.488-2.105.818-3.889 1.912-5.668 3.691-1.779 1.78-2.874 3.563-3.691 5.668-.791 2.035-1.333 4.362-1.488 7.767C8.037 30.22 8 31.31 8 40c0 8.69.037 9.78.192 13.194.155 3.406.697 5.732 1.488 7.767.818 2.105 1.912 3.889 3.691 5.668 1.78 1.779 3.565 2.873 5.668 3.691 2.035.791 4.362 1.333 7.767 1.488C30.22 71.963 31.31 72 40 72c8.69 0 9.78-.037 13.194-.192 3.406-.155 5.732-.697 7.767-1.488 2.105-.819 3.889-1.912 5.668-3.691 1.779-1.78 2.873-3.565 3.691-5.668.791-2.035 1.333-4.362 1.488-7.767C71.963 49.78 72 48.69 72 40c0-8.69-.037-9.78-.192-13.194-.155-3.406-.697-5.732-1.488-7.767-.819-2.105-1.912-3.889-3.691-5.668-1.78-1.779-3.565-2.873-5.668-3.691-2.035-.791-4.362-1.333-7.767-1.488C49.78 8.037 48.69 8 40 8Zm0 15.568c-9.076 0-16.432 7.356-16.432 16.432 0 9.075 7.356 16.432 16.432 16.432 9.075 0 16.432-7.357 16.432-16.432 0-9.076-7.357-16.432-16.432-16.432Zm0 27.1c-5.89 0-10.667-4.776-10.667-10.668 0-5.892 4.776-10.667 10.667-10.667 5.89 0 10.667 4.775 10.667 10.667 0 5.892-4.776 10.667-10.667 10.667Zm17.081-31.59a3.84 3.84 0 1 0 0 7.681 3.84 3.84 0 1 0 0-7.68Z"/>
  </mask>
  <g mask="url(#a)">
    <path fill="url(#b)" d="M24.147 71.692c-3.806-.173-5.873-.806-7.248-1.342-1.823-.71-3.122-1.554-4.49-2.92-1.367-1.366-2.214-2.665-2.92-4.487-.536-1.375-1.169-3.443-1.342-7.25-.19-4.113-.228-5.348-.228-15.771 0-10.424.042-11.656.226-15.775.173-3.806.81-5.87 1.343-7.248.71-1.823 1.556-3.122 2.92-4.491 1.365-1.366 2.665-2.214 4.489-2.92 1.375-.536 3.442-1.17 7.248-1.343 4.117-.188 5.353-.226 15.773-.226 10.423 0 11.656.042 15.774.226 3.806.173 5.87.81 7.249 1.343 1.822.706 3.121 1.554 4.489 2.92 1.367 1.365 2.21 2.666 2.92 4.489.536 1.375 1.17 3.442 1.342 7.248.189 4.119.227 5.351.227 15.775 0 10.42-.038 11.656-.227 15.774-.173 3.806-.81 5.873-1.342 7.249-.71 1.822-1.554 3.121-2.92 4.487-1.366 1.365-2.667 2.21-4.49 2.92-1.374.536-3.442 1.17-7.248 1.342-4.114.189-5.35.227-15.774.227-10.42 0-11.656-.036-15.77-.227"/>
  </g>
  <defs>
    <radialGradient id="b" cx="0" cy="0" r="1" gradientTransform="translate(12.06 70.517) scale(81.2562)" gradientUnits="userSpaceOnUse">
      <stop offset=".09" stop-color="#FA8F21"/>
      <stop offset=".78" stop-color="#D82D7E"/>
    </radialGradient>
  </defs>
</svg>
