<svg xmlns="http://www.w3.org/2000/svg" width="80" height="80" fill="none" viewBox="0 0 80 80">
  <mask id="a" width="64" height="64" x="8" y="8" maskUnits="userSpaceOnUse" style="mask-type:luminance">
    <path fill="#fff" fill-rule="evenodd" d="M40 8a1.957 1.957 0 0 0 0 3.914c15.511 0 28.086 12.575 28.086 28.086 0 7.825-3.198 14.9-8.363 19.996a1.957 1.957 0 0 0 2.749 2.786C68.352 56.982 72 48.915 72 40 72 22.327 57.673 8 40 8ZM22.076 18.376a1.957 1.957 0 0 0-2.5-3.012 32.168 32.168 0 0 0-5.855 6.371 1.957 1.957 0 1 0 3.212 2.237 28.252 28.252 0 0 1 5.143-5.596Zm-8.395 11.795a1.957 1.957 0 0 0-3.666-1.37A31.935 31.935 0 0 0 8 40a32.394 32.394 0 0 0 .225 3.812 1.957 1.957 0 1 0 3.887-.462 28.432 28.432 0 0 1-.198-3.35c0-3.461.625-6.772 1.767-9.829Zm.406 20.682a1.957 1.957 0 0 0-3.61 1.514 32.106 32.106 0 0 0 10.997 13.728 1.957 1.957 0 1 0 2.269-3.19 28.191 28.191 0 0 1-9.656-12.052Zm41.888 16.88a1.957 1.957 0 1 0-1.956-3.39A27.948 27.948 0 0 1 40 68.086c-3.792 0-7.404-.75-10.699-2.11a1.957 1.957 0 0 0-1.492 3.62A31.91 31.91 0 0 0 40 72a31.862 31.862 0 0 0 15.975-4.267ZM40.157 55.239a1.957 1.957 0 0 1-1.957-1.957v-11.17H26.957a1.957 1.957 0 1 1 0-3.913h11.245V27.03a1.957 1.957 0 0 1 3.914 0V38.2h11.093a1.957 1.957 0 1 1 0 3.914H42.115v11.169c0 1.08-.877 1.957-1.958 1.957Z" clip-rule="evenodd"/>
  </mask>
  <g mask="url(#a)">
    <path fill="url(#b)" d="M23.514 71.533c-3.806-.173-5.874-.807-7.249-1.343-1.822-.71-3.121-1.554-4.489-2.92-1.367-1.365-2.214-2.664-2.92-4.487-.536-1.375-1.17-3.443-1.342-7.249-.19-4.114-.229-5.348-.229-15.772 0-10.423.042-11.656.227-15.774.173-3.806.81-5.87 1.343-7.249.709-1.822 1.555-3.121 2.92-4.49 1.365-1.367 2.664-2.215 4.488-2.92 1.375-.537 3.443-1.17 7.25-1.343 4.115-.189 5.352-.227 15.771-.227 10.424 0 11.656.042 15.775.227 3.806.173 5.87.81 7.248 1.343 1.823.705 3.122 1.553 4.49 2.92 1.367 1.365 2.21 2.666 2.919 4.488.536 1.375 1.17 3.443 1.343 7.25.188 4.117.226 5.35.226 15.773 0 10.42-.038 11.656-.226 15.774-.173 3.806-.81 5.874-1.343 7.25-.71 1.822-1.554 3.12-2.92 4.486-1.365 1.366-2.666 2.21-4.489 2.92-1.375.536-3.442 1.17-7.248 1.343-4.115.188-5.351.226-15.775.226-10.42 0-11.656-.036-15.77-.226"/>
  </g>
  <defs>
    <radialGradient id="b" cx="0" cy="0" r="1" gradientTransform="translate(11.427 70.357) scale(81.2562)" gradientUnits="userSpaceOnUse">
      <stop offset=".09" stop-color="#FA8F21"/>
      <stop offset=".78" stop-color="#D82D7E"/>
    </radialGradient>
  </defs>
</svg>
