<svg xmlns="http://www.w3.org/2000/svg" width="80" height="80" fill="none" viewBox="0 0 80 80"><path fill="#007ebb" fill-rule="evenodd" d="M15.111 72H64.89A7.11 7.11 0 0 0 72 64.889V15.11A7.11 7.11 0 0 0 64.889 8H15.11A7.11 7.11 0 0 0 8 15.111V64.89A7.11 7.11 0 0 0 15.111 72" clip-rule="evenodd"/><path fill="#fff" fill-rule="evenodd" d="M63.111 63.111h-9.497V46.935c0-4.435-1.685-6.913-5.196-6.913-3.818 0-5.813 2.579-5.813 6.913v16.176h-9.153V32.296h9.153v4.151s2.752-5.092 9.29-5.092S63.112 35.346 63.112 43.6zm-40.578-34.85c-3.118 0-5.644-2.546-5.644-5.686s2.526-5.686 5.644-5.686c3.117 0 5.642 2.546 5.642 5.686s-2.525 5.686-5.642 5.686m-4.726 34.85h9.544V32.296h-9.544z" clip-rule="evenodd"/></svg>