<svg xmlns="http://www.w3.org/2000/svg" width="80" height="80" fill="none" viewBox="0 0 80 80"><path fill="#c12126" d="M40.333 73.667c18.41 0 33.334-14.924 33.334-33.334S58.743 7 40.333 7 7 21.924 7 40.333c0 18.41 14.924 33.334 33.333 33.334"/><path fill="#fff" d="M40.333 34.03a6.304 6.304 0 1 0 0 12.608 6.304 6.304 0 0 0 0-12.609m-9.829 6.303a9.83 9.83 0 1 1 19.657 0q0 .533-.055 1.063a1.53 1.53 0 0 0 1.58 1.689c1.615 0 1.788-2.084 1.788-2.752a13.138 13.138 0 1 0-3.418 8.84l2.704 2.271A16.667 16.667 0 1 1 57 40.335c0 3.7-1.762 6.703-5.3 6.703-1.557 0-2.5-.713-3.02-1.51a9.83 9.83 0 0 1-18.176-5.194m9.83-2.884a2.885 2.885 0 1 1 0 5.769 2.885 2.885 0 0 1 0-5.77"/></svg>