<svg width="80" height="80" viewBox="0 0 80 80" fill="none" xmlns="http://www.w3.org/2000/svg">
<path d="M37 67C53.5685 67 67 53.5685 67 37C67 20.4315 53.5685 7 37 7C20.4315 7 7 20.4315 7 37C7 53.5685 20.4315 67 37 67Z" fill="#C12126"/>
<path d="M38.6667 32.9934C37.5446 32.9934 36.4476 33.3262 35.5146 33.9496C34.5815 34.5731 33.8543 35.4592 33.4249 36.4959C32.9955 37.5327 32.8831 38.6735 33.102 39.7741C33.3209 40.8747 33.8613 41.8856 34.6548 42.6791C35.4483 43.4726 36.4593 44.013 37.5599 44.2319C38.6605 44.4508 39.8013 44.3385 40.838 43.909C41.8747 43.4796 42.7609 42.7524 43.3843 41.8193C44.0077 40.8863 44.3405 39.7893 44.3405 38.6672C44.3405 37.1624 43.7427 35.7193 42.6787 34.6552C41.6147 33.5912 40.1715 32.9934 38.6667 32.9934ZM29.8205 38.6672C29.8066 37.4967 30.0251 36.3351 30.4634 35.2497C30.9017 34.1643 31.551 33.1767 32.3738 32.3441C33.1966 31.5115 34.1764 30.8504 35.2565 30.3992C36.3367 29.9481 37.4956 29.7158 38.6661 29.7158C39.8367 29.7158 40.9956 29.9481 42.0757 30.3992C43.1558 30.8504 44.1357 31.5115 44.9584 32.3441C45.7812 33.1767 46.4306 34.1643 46.8688 35.2497C47.3071 36.3351 47.5257 37.4967 47.5117 38.6672C47.5122 38.9866 47.4955 39.3058 47.4617 39.6234C47.4408 39.8199 47.4623 40.0185 47.525 40.2059C47.5877 40.3932 47.69 40.5648 47.825 40.7091C47.96 40.8533 48.1245 40.9668 48.3073 41.0417C48.4901 41.1167 48.6869 41.1514 48.8842 41.1434C50.338 41.1434 50.493 39.2684 50.493 38.6672C50.493 35.9076 49.5278 33.235 47.7645 31.1122C46.0013 28.9895 43.5511 27.5503 40.8383 27.0441C38.1256 26.5378 35.3213 26.9964 32.9111 28.3403C30.5009 29.6842 28.6367 31.8288 27.6413 34.4026C26.646 36.9764 26.5823 39.8173 27.4613 42.4331C28.3402 45.049 30.1064 47.275 32.454 48.7256C34.8015 50.1761 37.5825 50.7599 40.3152 50.3758C43.0479 49.9916 45.5601 48.6638 47.4167 46.6222L49.8505 48.6672C47.5139 51.2814 44.3353 52.9944 40.867 53.5087C37.3987 54.023 33.8598 53.3061 30.8651 51.4825C27.8705 49.6589 25.6092 46.8438 24.4743 43.5263C23.3394 40.2089 23.4024 36.5986 24.6526 33.3228C25.9027 30.047 28.2609 27.3127 31.3174 25.5948C34.374 23.8769 37.9358 23.284 41.384 23.9192C44.8322 24.5543 47.949 26.3774 50.1929 29.0716C52.4367 31.7658 53.6659 35.1609 53.6667 38.6672C53.6667 41.9972 52.0805 44.7009 48.8967 44.7009C47.4955 44.7009 46.6467 44.0584 46.178 43.3422C45.1618 44.9737 43.642 46.23 41.8483 46.9209C40.0547 47.6118 38.0848 47.6998 36.2367 47.1716C34.3886 46.6435 32.7628 45.5278 31.6051 43.9934C30.4475 42.459 29.821 40.5893 29.8205 38.6672ZM38.6667 36.0709C39.1802 36.0709 39.6822 36.2232 40.1091 36.5085C40.5361 36.7938 40.8689 37.1992 41.0654 37.6736C41.2619 38.148 41.3133 38.6701 41.2131 39.1737C41.1129 39.6773 40.8657 40.1399 40.5026 40.503C40.1395 40.8661 39.6769 41.1134 39.1733 41.2135C38.6696 41.3137 38.1476 41.2623 37.6732 41.0658C37.1988 40.8693 36.7933 40.5365 36.508 40.1096C36.2228 39.6826 36.0705 39.1807 36.0705 38.6672C36.0705 37.9786 36.344 37.3182 36.8309 36.8313C37.3178 36.3445 37.9782 36.0709 38.6667 36.0709Z" fill="white"/>
</svg>
