<svg width="80" height="80" viewBox="0 0 80 80" fill="none" xmlns="http://www.w3.org/2000/svg">
<path d="M8.00988 39.5604C7.84658 34.9006 9.71708 31.0807 12.863 27.8062C16.0466 24.4932 19.9452 22.2989 24.2109 20.708C27.5142 19.4642 30.9671 18.6614 34.4803 18.3204C36.4606 18.1327 38.456 17.9844 40.4428 18.0013C46.8314 18.0557 52.992 19.2421 58.8043 21.9835C61.7513 23.3735 64.4562 25.1314 66.7716 27.4411C69.1733 29.8381 70.9499 32.603 71.6792 35.9724C72.0255 37.5679 72.0349 39.1859 71.9664 40.803C71.8526 43.6731 71.0304 46.4705 69.5731 48.9457C67.7692 52.0429 65.2615 54.4484 62.2788 56.3855C58.8278 58.6249 55.0418 60.0458 51.0464 60.9524C47.7615 61.6939 44.441 62.0421 41.0792 62.1059C35.7455 62.2063 30.5084 61.6207 25.416 59.9745C21.5773 58.7328 18.0278 56.9439 14.9513 54.2982C11.7781 51.569 9.50122 48.2616 8.48572 44.1517C8.12186 42.6496 7.96181 41.1053 8.00988 39.5604ZM9.32383 37.5895C9.30788 37.6833 9.29474 37.7368 9.28911 37.7941C9.09202 40.0663 9.50403 42.2324 10.4473 44.2991C11.7293 47.1072 13.7321 49.3305 16.1367 51.2123C19.1193 53.5446 22.4727 55.1654 26.0607 56.3198C32.3086 58.3283 38.7047 58.8482 45.2068 58.1603C49.7897 57.676 54.2008 56.5441 58.3745 54.5629C61.4097 53.1222 64.1765 51.2949 66.4769 48.8209C68.6355 46.5018 70.1634 43.8467 70.6139 40.6716C70.7425 39.7622 70.7322 38.833 70.7904 37.8363C66.3464 38.8593 62.107 40.131 57.9719 41.8241C58.5988 43.0442 58.5828 44.1846 57.7044 45.1897C56.8672 46.148 55.7532 46.4755 54.5021 46.3263C54.4807 46.3799 54.4638 46.4351 54.4514 46.4915C54.3951 47.0612 54.2553 47.6036 53.8883 48.0579C53.0277 49.1278 51.9174 49.6534 50.5358 49.5595C50.3481 49.5464 50.2487 49.5595 50.1745 49.7726C49.7259 51.0584 48.2974 52.0589 46.9159 51.9378C46.3237 51.8852 45.9577 52.0035 45.5081 52.4005C44.7723 53.049 43.8122 53.1513 42.8492 53.0453C42.044 52.9444 41.2649 52.6928 40.5526 52.3038C40.3312 52.1874 40.1951 52.21 40.0036 52.3705C39.2528 53.0171 38.3696 53.3296 37.3757 53.2471C36.0205 53.1354 35.0294 52.4568 34.3621 51.2761C34.3058 51.1757 34.1331 51.0603 34.0345 51.0753C32.3705 51.3334 31.142 50.7665 30.2259 49.3137C30.1897 49.2691 30.1439 49.2333 30.0919 49.209C30.0399 49.1846 29.983 49.1723 29.9256 49.1729C28.1696 49.3409 26.6107 48.3282 26.0898 46.6388C26.0035 46.3573 25.8721 46.316 25.614 46.331C25.1179 46.3645 24.6211 46.2775 24.1659 46.0774C23.7107 45.8774 23.3107 45.5701 22.9999 45.182C22.6892 44.7938 22.477 44.3362 22.3814 43.8482C22.2859 43.3603 22.3098 42.8565 22.4511 42.3798C22.5271 42.1142 22.4896 41.9574 22.2503 41.8382C21.3089 41.3699 20.3882 40.8377 19.4197 40.4314C16.2587 39.1174 12.9231 38.3732 9.59507 37.6073C9.50459 37.5949 9.41327 37.5895 9.32196 37.5914L9.32383 37.5895ZM32.1912 28.5711C32.083 28.5777 31.9752 28.5903 31.8684 28.6086C31.3991 28.726 30.9298 28.8236 30.4756 28.9718C28.7457 29.5524 26.8934 29.6667 25.1053 29.3032C22.102 28.694 19.1925 27.7771 16.3422 26.6593C16.101 26.5654 15.9368 26.573 15.75 26.7532C15.0189 27.4467 14.2399 28.0934 13.5491 28.8245C11.6598 30.8217 10.2624 33.1108 9.59507 35.8119C9.56316 35.9423 9.54908 36.0766 9.51999 36.2511C10.6932 36.543 11.8278 36.8246 12.9616 37.108C15.7143 37.7941 18.4333 38.5862 21.0105 39.7922C21.781 40.1536 22.5121 40.59 23.2752 40.9973C24.8772 39.7772 26.0401 39.842 27.8505 41.2685C27.8833 41.2612 27.9149 41.2492 27.9444 41.2329C29.5342 40.1329 32.0964 40.7129 32.9111 42.2493C32.943 42.3103 33.0988 42.3338 33.1927 42.33C33.6685 42.3103 34.1547 42.1977 34.6173 42.2606C36.1406 42.468 37.2218 43.3737 37.4395 44.9025C37.4883 45.247 37.5005 45.5952 37.5334 45.9584C38.8755 45.9772 39.952 46.5037 40.6906 47.6271C41.4292 48.7505 41.4508 49.949 40.9159 51.2686C41.6667 51.4807 42.3668 51.7257 43.0829 51.8618C43.6573 51.9593 44.2474 51.837 44.7357 51.5192C45.0783 51.309 45.0801 51.1945 44.8127 50.9007C44.0549 50.0692 43.2966 49.2386 42.5376 48.4089C42.4378 48.3106 42.3578 48.194 42.3021 48.0654C42.2803 48.0091 42.2705 47.9489 42.2734 47.8886C42.2763 47.8283 42.2918 47.7693 42.319 47.7153C42.3609 47.6711 42.413 47.6377 42.4707 47.6181C42.5284 47.5984 42.5901 47.5932 42.6503 47.6027C42.8479 47.6697 43.0302 47.7756 43.1862 47.9143C44.0825 48.7402 44.9647 49.5821 45.8563 50.4127C45.9661 50.5335 46.1005 50.6295 46.2505 50.6942C47.0276 50.9373 47.7653 50.8378 48.3997 50.3113C49.0839 49.7416 49.1149 49.1278 48.5227 48.4596C47.5964 47.4159 46.6634 46.3789 45.7343 45.3371C45.6564 45.2498 45.5522 45.1653 45.5231 45.0611C45.4828 44.9185 45.4396 44.6857 45.5109 44.6229C45.5804 44.58 45.6583 44.5528 45.7394 44.5431C45.8204 44.5334 45.9026 44.5414 45.9802 44.5665C46.1626 44.646 46.3273 44.7612 46.4645 44.9054C47.4903 45.8683 48.5471 46.8021 49.5213 47.8148C50.748 49.0912 52.8709 47.9978 53.1872 46.8566C53.3862 46.1376 53.0783 45.6046 52.6006 45.1259C51.3248 43.8464 50.0481 42.5684 48.7705 41.292C48.6644 41.185 48.5339 41.0743 48.4889 40.941C48.4438 40.8077 48.4316 40.5843 48.5114 40.4989C48.5912 40.4135 48.8193 40.4051 48.9478 40.4501C49.1281 40.5346 49.2921 40.6502 49.4321 40.7918C50.8512 42.0541 52.2721 43.3145 53.679 44.5909C54.046 44.9419 54.5287 45.1465 55.0361 45.1663C55.9061 45.2019 56.8193 44.6717 57.0962 43.9612C57.3731 43.2507 57.1272 42.5093 56.3951 41.8823C52.8597 38.8537 49.3326 35.8147 45.7765 32.8105C44.929 32.1072 44.0351 31.4619 43.1008 30.879C42.4682 30.48 41.7095 30.3314 40.9731 30.4622C40.0411 30.6105 39.2425 31.0498 38.4944 31.5753C37.4621 32.3027 36.4531 33.077 35.4442 33.8382C34.1941 34.7861 32.8097 35.1849 31.2499 34.909C30.4822 34.7739 29.7304 34.5937 29.1166 34.0747C28.408 33.474 28.3658 32.6978 28.988 32.0165C29.3766 31.5932 29.7708 31.1718 30.1612 30.7541L32.1912 28.5711ZM70.5567 36.5205C70.4872 36.2117 70.4328 35.9273 70.3586 35.6476C69.4342 32.1479 67.3553 29.4177 64.6524 27.107C64.598 27.0742 64.5372 27.0537 64.4742 27.0469C64.4111 27.0401 64.3473 27.0471 64.2873 27.0676C63.8809 27.2168 63.4895 27.4045 63.0859 27.5631C60.6101 28.5373 58.0554 29.1164 55.3806 29.0854C52.6034 29.0535 49.9943 28.3505 47.4865 27.1821C45.7221 26.3599 43.8647 25.8315 41.9079 25.7499C38.9759 25.6278 36.318 26.3768 34.1584 28.4359C32.7074 29.8175 31.3559 31.3013 29.9613 32.7354C29.7285 32.9747 29.7736 33.1652 30.0364 33.3304C30.1614 33.4175 30.2958 33.4903 30.4371 33.5472C31.6291 33.9545 32.8229 33.9836 33.9379 33.3501C34.6371 32.9522 35.2687 32.435 35.9247 31.9639C36.8858 31.2741 37.8018 30.5045 38.8098 29.8991C40.593 28.8311 42.4128 28.8301 44.1594 30.0512C44.7836 30.4876 45.4143 30.9212 45.9943 31.412C49.6133 34.4842 53.2247 37.567 56.8287 40.6604C57.0239 40.8274 57.1703 40.8725 57.4134 40.7664C60.886 39.2507 64.4731 38.0653 68.139 37.1155C68.9283 36.9109 69.7242 36.726 70.5548 36.5224L70.5567 36.5205ZM63.33 26.1178C63.3121 26.0755 63.3084 26.0474 63.2934 26.0352C63.2126 25.9676 63.13 25.9019 63.0446 25.84C61.1046 24.4558 59.0101 23.3021 56.8034 22.4021C51.9802 20.4049 46.9366 19.4476 41.739 19.2514C37.6683 19.0865 33.5937 19.4614 29.6215 20.3664C25.3127 21.3556 21.2432 22.9277 17.5585 25.4148C17.4375 25.4965 17.3192 25.5847 17.1409 25.7114C17.3614 25.7949 17.5079 25.8615 17.6608 25.9066C19.9133 26.5776 22.1705 27.2618 24.4342 27.9104C26.2672 28.4359 28.102 28.4679 29.9416 27.8728C31.1241 27.4899 32.3348 27.2065 33.5887 27.1548C33.7398 27.1364 33.8819 27.0734 33.997 26.9737C36.1387 25.2534 38.6249 24.5429 41.326 24.5241C43.6385 24.5082 45.8357 25.0873 47.9201 26.0521C50.1923 27.1051 52.5452 27.7902 55.0577 27.8728C57.8649 27.9667 60.5219 27.3153 63.0944 26.2501C63.1737 26.2109 63.2508 26.1674 63.3253 26.1196L63.33 26.1178ZM27.461 43.3868C27.4376 43.3615 27.4235 43.3549 27.4225 43.3455C27.4066 43.2413 27.3953 43.1372 27.3775 43.0339C27.2358 42.1977 26.7872 41.6073 25.9594 41.3699C25.1926 41.1503 24.5121 41.353 23.9791 41.9433C23.446 42.5337 23.3221 43.2573 23.6346 44.0081C24.1283 45.2047 25.644 45.5689 26.667 44.7589C26.7669 44.696 26.8737 44.6447 26.9852 44.606C27.0295 44.7303 27.0637 44.8581 27.0875 44.9879C27.0891 45.1168 27.0829 45.2456 27.0687 45.3737C27.0565 46.3441 27.3981 47.1353 28.2419 47.6675C29.0612 48.1837 29.8637 48.1818 30.6699 47.6196C30.9618 47.4159 31.1326 47.5257 31.1063 47.8918C31.0378 48.8434 31.5587 49.3934 32.348 49.7773C33.1373 50.1611 33.859 50.1189 34.5273 49.5089C34.6333 49.415 34.8445 49.3212 34.9449 49.3634C35.0453 49.4056 35.0998 49.6252 35.1138 49.7726C35.2405 51.0509 36.2401 52.0589 37.4367 52.1058C38.7929 52.1593 39.9276 51.2789 40.12 50.0241C40.3161 48.7449 39.5456 47.568 38.287 47.1916C37.6882 47.0133 37.1336 47.1485 36.5714 47.3437C36.4447 47.3878 36.2316 47.3953 36.1584 47.3211C36.0852 47.247 36.1059 47.0396 36.134 46.9035C36.196 46.5957 36.3114 46.2972 36.3649 45.9875C36.5395 44.9711 36.1547 44.0785 35.3625 43.6684C34.4756 43.2104 33.4536 43.1907 32.6877 43.9274C32.4428 44.163 32.2917 44.0954 32.226 43.7528C32.2081 43.659 32.1941 43.5651 32.1753 43.476C32.0082 42.6979 31.5568 42.1761 30.7853 41.9527C29.7736 41.6599 28.8829 41.8974 28.1255 42.6097C27.8768 42.8415 27.6816 43.124 27.4563 43.3924L27.461 43.3868Z" fill="#0B2A7D"/>
<path d="M9.32193 37.5913C9.41418 37.5894 9.50644 37.5947 9.59786 37.6073C12.9231 38.3731 16.2586 39.1174 19.4196 40.4313C20.3882 40.8377 21.3089 41.3698 22.2521 41.8391C22.4915 41.9583 22.529 42.115 22.453 42.3806C22.3116 42.8574 22.2877 43.3612 22.3833 43.8491C22.4789 44.3371 22.6911 44.7947 23.0018 45.1828C23.3125 45.571 23.7125 45.8783 24.1677 46.0783C24.6229 46.2784 25.1197 46.3654 25.6158 46.3319C25.8739 46.3169 26.0053 46.36 26.0917 46.6397C26.6126 48.3291 28.1715 49.338 29.9275 49.1738C29.9849 49.1731 30.0417 49.1855 30.0937 49.2099C30.1457 49.2342 30.1915 49.27 30.2278 49.3145C31.1438 50.7674 32.3724 51.3343 34.0364 51.0762C34.1349 51.0612 34.3076 51.1766 34.3639 51.277C35.0284 52.4605 36.0223 53.1391 37.3776 53.2479C38.3724 53.3305 39.2546 53.018 40.0055 52.3714C40.1932 52.2071 40.333 52.1883 40.5545 52.3047C41.2668 52.6937 42.0458 52.9453 42.8511 53.0462C43.814 53.1513 44.7742 53.0462 45.51 52.4014C45.9595 52.0044 46.3256 51.8861 46.9178 51.9387C48.2965 52.0598 49.7277 51.0593 50.1764 49.7735C50.2505 49.5633 50.3528 49.5473 50.5377 49.5604C51.9202 49.6543 53.0295 49.1334 53.8901 48.0588C54.2562 47.6045 54.396 47.0621 54.4533 46.4924C54.4656 46.436 54.4826 46.3808 54.5039 46.3272C55.755 46.4764 56.8691 46.1489 57.7062 45.1906C58.5847 44.1855 58.6007 43.047 57.9737 41.825C62.1089 40.1357 66.3483 38.8602 70.7922 37.8372C70.734 38.8339 70.7444 39.7631 70.6158 40.6725C70.1653 43.8523 68.6355 46.5027 66.4787 48.8218C64.1784 51.2958 61.4106 53.1231 58.3763 54.5638C54.2027 56.545 49.7916 57.6769 45.2087 58.1612C38.7028 58.8491 32.3067 58.3292 26.0626 56.3207C22.4746 55.1663 19.1174 53.5455 16.1385 51.2132C13.7321 49.3314 11.7274 47.108 10.4491 44.3C9.51057 42.2352 9.09386 40.0672 9.29096 37.795C9.29283 37.7387 9.30597 37.6833 9.32193 37.5913Z" fill="#FFE800"/>
<path d="M32.1894 28.573L30.1631 30.7541C29.7726 31.1746 29.3784 31.5932 28.9899 32.0165C28.3648 32.6978 28.4099 33.474 29.1185 34.0747C29.7323 34.5937 30.484 34.7739 31.2518 34.909C32.8116 35.1849 34.196 34.7861 35.4461 33.8382C36.455 33.0732 37.4602 32.3027 38.4963 31.5753C39.2471 31.0498 40.043 30.6105 40.975 30.4622C41.7108 30.3319 42.4687 30.4804 43.1008 30.879C44.0349 31.4604 44.9289 32.1041 45.7765 32.8058C49.3326 35.8091 52.8597 38.849 56.3951 41.8776C57.1272 42.5046 57.3731 43.2545 57.0962 43.9565C56.8193 44.6585 55.9061 45.1972 55.0361 45.1616C54.5287 45.1418 54.046 44.9372 53.679 44.5863C52.2712 43.3098 50.8512 42.0522 49.4321 40.7871C49.2921 40.6455 49.1281 40.5299 48.9478 40.4454C48.8193 40.3966 48.5893 40.4098 48.5114 40.4942C48.4335 40.5787 48.4429 40.7993 48.4889 40.9363C48.5349 41.0733 48.6635 41.1803 48.7705 41.2873C50.0462 42.5668 51.3233 43.8457 52.6016 45.124C53.0793 45.6027 53.3871 46.1358 53.1881 46.8547C52.8719 47.996 50.748 49.0893 49.5222 47.8129C48.548 46.7993 47.4912 45.8655 46.4654 44.9035C46.3282 44.7593 46.1636 44.6441 45.9811 44.5647C45.9035 44.5395 45.8213 44.5315 45.7403 44.5412C45.6593 44.5509 45.5813 44.5782 45.5119 44.621C45.4405 44.681 45.4837 44.9166 45.5241 45.0593C45.5532 45.1635 45.6573 45.247 45.7352 45.3352C46.6644 46.377 47.5973 47.4141 48.5236 48.4577C49.1158 49.1259 49.0867 49.7397 48.4007 50.3094C47.7662 50.836 47.0285 50.9354 46.2514 50.6924C46.1015 50.6277 45.9671 50.5317 45.8572 50.4108C44.9656 49.5802 44.0834 48.7383 43.1871 47.9124C43.0311 47.7738 42.8489 47.6678 42.6512 47.6008C42.591 47.5913 42.5294 47.5966 42.4716 47.6162C42.4139 47.6358 42.3618 47.6692 42.3199 47.7135C42.2928 47.7674 42.2772 47.8264 42.2743 47.8867C42.2714 47.947 42.2812 48.0072 42.303 48.0635C42.3583 48.1927 42.4379 48.31 42.5377 48.4089C43.2935 49.243 44.0512 50.0751 44.8108 50.9054C45.0783 51.1992 45.0764 51.3137 44.7338 51.5239C44.2455 51.8417 43.6555 51.964 43.0811 51.8665C42.365 51.7304 41.6686 51.4854 40.914 51.2733C41.4489 49.9537 41.4264 48.7543 40.6887 47.6318C39.951 46.5093 38.8774 45.9772 37.5343 45.9584C37.5033 45.5952 37.4911 45.247 37.4405 44.9025C37.2227 43.3737 36.1415 42.468 34.6183 42.2606C34.1556 42.1977 33.6694 42.3103 33.1936 42.33C33.0997 42.33 32.9458 42.3103 32.912 42.2493C32.0974 40.7129 29.5333 40.1329 27.9453 41.2329C27.9159 41.2492 27.8843 41.2612 27.8515 41.2685C26.0438 39.842 24.881 39.7744 23.2789 40.9945C22.5187 40.5872 21.7848 40.1498 21.0142 39.7894C18.437 38.5834 15.7181 37.7913 12.9654 37.1052C11.8316 36.8236 10.6969 36.5421 9.52374 36.2483C9.55284 36.0737 9.56692 35.9395 9.59883 35.8091C10.2624 33.1108 11.6598 30.8217 13.5472 28.8236C14.238 28.0924 15.017 27.4458 15.7481 26.7522C15.9358 26.5748 16.0991 26.5645 16.3403 26.6584C19.1897 27.7762 22.1001 28.6931 25.1034 29.3022C26.8915 29.6657 28.7439 29.5515 30.4737 28.9709C30.9289 28.8226 31.401 28.725 31.8665 28.6077C31.9734 28.5903 32.0812 28.5787 32.1894 28.573Z" fill="white"/>
<path d="M70.5548 36.5223C69.7242 36.726 68.9283 36.9109 68.139 37.1155C64.4731 38.0652 60.886 39.2506 57.4134 40.7664C57.1704 40.8724 57.024 40.8274 56.8287 40.6603C53.2223 37.5713 49.6092 34.4894 45.9896 31.4148C45.4096 30.9239 44.7789 30.4903 44.1548 30.0539C42.4091 28.8338 40.5883 28.8338 38.8051 29.9019C37.7934 30.5063 36.8811 31.2759 35.9201 31.9666C35.2631 32.4359 34.6324 32.9549 33.9332 33.3529C32.8182 33.9864 31.6244 33.9573 30.4324 33.55C30.2911 33.493 30.1567 33.4203 30.0317 33.3332C29.7708 33.168 29.7239 32.9775 29.9566 32.7381C31.355 31.3022 32.7065 29.8183 34.1556 28.4359C36.3142 26.3767 38.9731 25.6278 41.9051 25.7498C43.8619 25.8314 45.7193 26.3598 47.4837 27.182C49.9915 28.3505 52.6006 29.0534 55.3778 29.0853C58.0526 29.1163 60.6073 28.5372 63.0831 27.563C63.4867 27.4044 63.8781 27.2167 64.2845 27.0675C64.3445 27.0471 64.4083 27.04 64.4714 27.0468C64.5344 27.0537 64.5952 27.0742 64.6495 27.1069C67.3488 29.4204 69.4314 32.1506 70.3558 35.6476C70.4309 35.9263 70.4854 36.2135 70.5548 36.5223Z" fill="white"/>
<path d="M63.3253 26.1196C63.2499 26.1675 63.1719 26.211 63.0916 26.2501C60.5191 27.3153 57.8621 27.9648 55.0549 27.8728C52.5425 27.7902 50.1896 27.1051 47.9174 26.0521C45.8329 25.0854 43.6358 24.5082 41.3232 24.5241C38.6221 24.5429 36.1359 25.2534 33.9942 26.9737C33.8802 27.0727 33.7394 27.1357 33.5897 27.1548C32.3358 27.2065 31.1251 27.4899 29.9425 27.8728C28.103 28.4679 26.2682 28.4359 24.4352 27.9104C22.1715 27.2618 19.919 26.5776 17.6609 25.9066C17.5079 25.8615 17.3615 25.7949 17.1409 25.7114C17.3193 25.5847 17.4375 25.4965 17.5586 25.4148C21.2433 22.9277 25.3128 21.3556 29.6216 20.3664C33.5938 19.4614 37.6683 19.0865 41.739 19.2514C46.9366 19.4476 51.9803 20.4049 56.8034 22.4021C59.0086 23.303 61.1015 24.4573 63.04 25.8418C63.1254 25.9038 63.208 25.9695 63.2887 26.037C63.3037 26.0492 63.3074 26.0774 63.3253 26.1196Z" fill="#FFE800"/>
<path d="M27.4563 43.3924C27.6816 43.124 27.8768 42.8415 28.1208 42.6116C28.8782 41.8964 29.7689 41.659 30.7806 41.9546C31.5521 42.178 32.0007 42.6998 32.1706 43.4778C32.1894 43.5717 32.2034 43.6656 32.2213 43.7547C32.287 44.0973 32.4381 44.1649 32.683 43.9293C33.4489 43.1925 34.4709 43.2122 35.3579 43.6702C36.15 44.0804 36.5348 44.9729 36.3602 45.9894C36.3067 46.2991 36.1913 46.5975 36.1293 46.9054C36.1012 47.0433 36.0796 47.2461 36.1537 47.323C36.2279 47.4 36.4353 47.3897 36.5667 47.3456C37.1298 47.1503 37.6835 47.0152 38.2823 47.1935C39.5409 47.5689 40.3114 48.7468 40.1153 50.026C39.9229 51.2808 38.7882 52.1612 37.432 52.1077C36.2326 52.0608 35.2358 51.0528 35.1091 49.7745C35.0951 49.6271 35.0397 49.4094 34.9402 49.3653C34.8407 49.3212 34.6286 49.415 34.5226 49.5108C33.8543 50.1208 33.1241 50.1537 32.3433 49.7792C31.5624 49.4047 31.0293 48.8453 31.1016 47.8937C31.1279 47.5295 30.9571 47.4178 30.6652 47.6215C29.859 48.1846 29.0565 48.1846 28.2372 47.6693C27.3925 47.1372 27.0518 46.346 27.064 45.3756C27.0782 45.2475 27.0844 45.1187 27.0828 44.9898C27.0591 44.86 27.0248 44.7322 26.9805 44.6078C26.869 44.6466 26.7622 44.6979 26.6623 44.7608C25.6393 45.5745 24.1283 45.2104 23.6299 44.01C23.3211 43.2592 23.43 42.5515 23.9744 41.9452C24.5187 41.3389 25.1879 41.1522 25.9547 41.3718C26.7825 41.6092 27.2311 42.1996 27.3728 43.0358C27.3906 43.139 27.4019 43.2432 27.4178 43.3474C27.4188 43.3605 27.4329 43.3671 27.4563 43.3924Z" fill="white"/>
</svg>
