<svg xmlns="http://www.w3.org/2000/svg" width="80" height="80" fill="none" viewBox="0 0 80 80"><path fill="#0b2a7d" d="M8.01 39.56c-.163-4.66 1.707-8.48 4.853-11.754 3.184-3.313 7.082-5.507 11.348-7.098a40.2 40.2 0 0 1 10.27-2.388c1.98-.187 3.975-.336 5.962-.319 6.388.055 12.549 1.241 18.361 3.982 2.947 1.39 5.652 3.148 7.968 5.458 2.401 2.397 4.178 5.162 4.907 8.531.346 1.596.356 3.214.287 4.831a17.4 17.4 0 0 1-2.393 8.143c-1.804 3.097-4.311 5.502-7.294 7.44-3.451 2.239-7.237 3.66-11.233 4.566-3.285.742-6.605 1.09-9.967 1.154-5.334.1-10.57-.485-15.663-2.132-3.839-1.241-7.388-3.03-10.465-5.676-3.173-2.729-5.45-6.036-6.465-10.146a17.2 17.2 0 0 1-.476-4.592m1.314-1.97c-.016.093-.03.147-.035.204-.197 2.272.215 4.438 1.158 6.505 1.282 2.808 3.285 5.032 5.69 6.913 2.982 2.333 6.336 3.953 9.924 5.108 6.248 2.008 12.644 2.528 19.146 1.84 4.583-.484 8.994-1.616 13.167-3.597 3.036-1.44 5.803-3.268 8.103-5.742 2.158-2.32 3.686-4.974 4.137-8.15.129-.909.118-1.838.176-2.835-4.444 1.023-8.683 2.295-12.818 3.988.627 1.22.61 2.36-.268 3.366-.837.958-1.95 1.285-3.202 1.136a1 1 0 0 0-.05.166c-.057.57-.197 1.112-.564 1.566-.86 1.07-1.97 1.595-3.352 1.502-.188-.014-.287 0-.361.213-.45 1.285-1.878 2.286-3.26 2.165-.591-.053-.957.066-1.407.462-.736.649-1.696.751-2.659.645a6.5 6.5 0 0 1-2.296-.741c-.222-.117-.358-.094-.55.066-.75.647-1.633.96-2.627.877-1.355-.112-2.347-.79-3.014-1.97-.056-.101-.229-.217-.328-.202-1.663.258-2.892-.309-3.808-1.761a.38.38 0 0 0-.3-.141c-1.756.168-3.315-.845-3.836-2.534-.087-.282-.218-.323-.476-.308a3.082 3.082 0 0 1-3.163-3.951c.076-.266.039-.423-.2-.542-.942-.468-1.863-1-2.831-1.407-3.161-1.314-6.497-2.058-9.825-2.824a2 2 0 0 0-.273-.016zm22.866-9.02a3 3 0 0 0-.323.038c-.469.117-.938.215-1.392.363a10.4 10.4 0 0 1-5.37.331c-3.004-.609-5.914-1.526-8.764-2.644-.241-.094-.405-.086-.592.094-.731.694-1.51 1.34-2.2 2.072-1.89 1.997-3.288 4.286-3.955 6.987-.032.13-.046.265-.075.44l3.442.856c2.752.686 5.471 1.478 8.049 2.684.77.362 1.501.798 2.264 1.205 1.602-1.22 2.765-1.155 4.576.272a.4.4 0 0 0 .093-.036c1.59-1.1 4.152-.52 4.967 1.016.032.061.188.085.282.081.476-.02.962-.132 1.424-.07 1.524.208 2.605 1.114 2.823 2.643.048.344.06.692.093 1.055 1.343.02 2.419.546 3.158 1.67s.76 2.321.225 3.64c.75.213 1.45.458 2.167.594a2.32 2.32 0 0 0 1.653-.343c.342-.21.344-.325.077-.618q-1.137-1.248-2.275-2.492a1.1 1.1 0 0 1-.236-.344.43.43 0 0 1 .017-.35.38.38 0 0 1 .331-.112c.198.067.38.173.536.311.897.826 1.779 1.668 2.67 2.499.11.12.244.217.395.281.777.243 1.514.144 2.149-.383.684-.57.715-1.183.123-1.851-.927-1.044-1.86-2.081-2.789-3.123-.078-.087-.182-.172-.21-.276-.041-.142-.084-.375-.013-.438a.56.56 0 0 1 .47-.056c.182.079.346.194.483.338 1.026.963 2.083 1.897 3.057 2.91 1.227 1.276 3.35.183 3.666-.958.2-.72-.109-1.252-.586-1.731q-1.914-1.92-3.83-3.834c-.107-.107-.237-.218-.282-.351s-.057-.357.022-.442c.08-.086.308-.094.437-.049q.272.128.484.342c1.42 1.262 2.84 2.523 4.247 3.799.367.35.85.556 1.357.575.87.036 1.783-.494 2.06-1.205.277-.71.031-1.452-.7-2.079-3.536-3.028-7.063-6.067-10.62-9.071a24.5 24.5 0 0 0-2.675-1.932 3 3 0 0 0-2.128-.417c-.932.148-1.73.588-2.479 1.113-1.032.728-2.04 1.502-3.05 2.263-1.25.948-2.634 1.347-4.194 1.071-.768-.135-1.52-.315-2.133-.834-.709-.601-.751-1.377-.129-2.059.389-.423.783-.844 1.173-1.262zm38.366 7.95c-.07-.31-.124-.594-.198-.873-.925-3.5-3.004-6.23-5.707-8.541a.44.44 0 0 0-.365-.04c-.406.15-.798.337-1.201.496-2.476.974-5.03 1.553-7.705 1.522-2.778-.032-5.387-.735-7.895-1.903-1.764-.822-3.621-1.35-5.578-1.432-2.932-.122-5.59.627-7.75 2.686-1.45 1.381-2.802 2.865-4.197 4.3-.232.239-.187.43.075.594q.189.131.401.217c1.192.408 2.386.437 3.5-.197.7-.398 1.332-.915 1.988-1.386.96-.69 1.877-1.46 2.885-2.065 1.783-1.068 3.603-1.069 5.35.152.624.437 1.254.87 1.834 1.361A2615 2615 0 0 1 56.83 40.66c.195.167.341.213.584.106 3.473-1.515 7.06-2.7 10.726-3.65.79-.205 1.585-.39 2.416-.594zM63.33 26.118c-.018-.042-.022-.07-.037-.083a5 5 0 0 0-.248-.195 30.7 30.7 0 0 0-6.242-3.438c-4.823-1.997-9.866-2.954-15.064-3.15-4.07-.165-8.145.21-12.117 1.114-4.31.99-8.379 2.562-12.064 5.049-.12.082-.239.17-.417.296.22.084.367.15.52.196 2.252.67 4.51 1.355 6.773 2.003 1.833.526 3.668.558 5.508-.037 1.182-.383 2.393-.667 3.647-.718a.77.77 0 0 0 .408-.181c2.142-1.72 4.628-2.431 7.329-2.45 2.313-.016 4.51.563 6.594 1.528 2.272 1.053 4.625 1.738 7.138 1.82 2.807.095 5.464-.557 8.036-1.622q.12-.06.231-.13zM27.461 43.387c-.023-.026-.037-.032-.038-.041-.016-.105-.028-.209-.045-.312-.142-.836-.59-1.427-1.419-1.664-.766-.22-1.447-.017-1.98.573s-.657 1.314-.344 2.065c.493 1.197 2.009 1.56 3.032.75q.15-.093.318-.152.067.187.102.382.003.194-.018.386c-.012.97.33 1.761 1.173 2.293.82.517 1.622.515 2.428-.047.292-.204.463-.094.436.272-.068.951.453 1.501 1.242 1.885.79.384 1.511.342 2.18-.268.105-.094.316-.188.417-.146s.155.262.169.41c.127 1.278 1.126 2.286 2.323 2.333 1.356.053 2.49-.827 2.683-2.082.196-1.28-.574-2.456-1.833-2.832-.599-.179-1.153-.044-1.716.152-.126.044-.34.051-.413-.023s-.052-.281-.024-.417c.062-.308.177-.607.23-.917.175-1.016-.21-1.909-1.001-2.319-.887-.458-1.91-.477-2.675.26-.245.235-.396.167-.462-.175-.018-.094-.032-.188-.05-.277-.168-.778-.62-1.3-1.39-1.523-1.012-.293-1.903-.056-2.66.657-.25.232-.444.514-.67.782z"/><path fill="#ffe800" d="M9.322 37.591q.139-.003.276.016c3.325.766 6.66 1.51 9.822 2.824.968.407 1.889.939 2.832 1.408.24.12.277.276.201.542a3.082 3.082 0 0 0 3.163 3.95c.258-.014.39.03.476.309.52 1.69 2.08 2.698 3.835 2.534a.38.38 0 0 1 .3.14c.917 1.453 2.145 2.02 3.81 1.762.098-.015.27.1.327.201.665 1.184 1.658 1.862 3.014 1.971.995.083 1.877-.23 2.627-.877.188-.164.328-.183.55-.066.712.389 1.49.64 2.296.741.963.105 1.923 0 2.659-.645.45-.397.816-.515 1.408-.462 1.379.12 2.81-.88 3.258-2.166.075-.21.177-.226.362-.213 1.382.094 2.492-.427 3.352-1.501.366-.454.506-.997.563-1.567q.02-.084.051-.165c1.251.15 2.365-.178 3.202-1.136.879-1.006.895-2.144.268-3.366 4.135-1.69 8.374-2.965 12.818-3.988-.058.997-.048 1.926-.176 2.835-.45 3.18-1.98 5.83-4.137 8.15-2.3 2.474-5.068 4.301-8.103 5.742-4.173 1.981-8.584 3.113-13.167 3.597-6.506.688-12.902.168-19.146-1.84-3.588-1.155-6.945-2.776-9.924-5.108-2.407-1.882-4.411-4.105-5.69-6.913-.938-2.065-1.355-4.233-1.158-6.505.002-.056.015-.112.031-.204"/><path fill="#fff" d="m32.19 28.573-2.027 2.181c-.39.42-.785.84-1.173 1.262-.625.682-.58 1.458.128 2.059.614.519 1.366.699 2.134.834 1.56.276 2.944-.123 4.194-1.07 1.009-.766 2.014-1.536 3.05-2.264.751-.525 1.547-.965 2.479-1.113a3 3 0 0 1 2.126.417 24.5 24.5 0 0 1 2.675 1.927c3.557 3.003 7.084 6.043 10.62 9.072.731.627.977 1.376.7 2.078s-1.19 1.241-2.06 1.205a2.08 2.08 0 0 1-1.357-.575c-1.408-1.276-2.828-2.534-4.247-3.799a1.7 1.7 0 0 0-.484-.342c-.129-.048-.359-.035-.437.05-.078.084-.068.304-.022.441s.174.244.281.351q1.914 1.92 3.831 3.837c.478.479.786 1.012.587 1.73-.316 1.142-2.44 2.235-3.666.959-.974-1.014-2.03-1.948-3.057-2.91a1.5 1.5 0 0 0-.484-.338.56.56 0 0 0-.47.056c-.07.06-.027.296.013.438.03.104.133.188.211.276.93 1.042 1.862 2.079 2.789 3.123.592.668.563 1.282-.123 1.851-.635.527-1.373.626-2.15.383a1.15 1.15 0 0 1-.394-.281c-.891-.83-1.774-1.673-2.67-2.499a1.6 1.6 0 0 0-.536-.311.38.38 0 0 0-.331.112.43.43 0 0 0-.017.35q.084.196.235.346 1.133 1.251 2.273 2.496c.267.294.265.409-.077.619a2.32 2.32 0 0 1-1.653.342c-.716-.136-1.413-.38-2.167-.593.535-1.32.512-2.519-.225-3.641-.738-1.123-1.812-1.655-3.155-1.674-.03-.363-.043-.711-.094-1.055-.217-1.53-1.298-2.435-2.822-2.642-.462-.063-.949.05-1.425.069-.093 0-.247-.02-.281-.08-.815-1.537-3.379-2.117-4.967-1.017a.4.4 0 0 1-.094.036c-1.807-1.427-2.97-1.495-4.572-.275-.76-.407-1.494-.844-2.265-1.205-2.577-1.206-5.296-1.998-8.049-2.684-1.133-.281-2.268-.563-3.441-.857.029-.174.043-.308.075-.439.663-2.698 2.06-4.987 3.948-6.985.69-.732 1.47-1.378 2.201-2.072.188-.177.351-.187.592-.094 2.85 1.118 5.76 2.035 8.763 2.644 1.788.364 3.64.25 5.37-.331.456-.148.928-.246 1.393-.363q.16-.027.323-.035"/><path fill="#fff" d="M70.555 36.522c-.83.204-1.627.389-2.416.593-3.666.95-7.253 2.136-10.726 3.651-.243.107-.39.061-.584-.106q-5.41-4.633-10.84-9.245c-.58-.491-1.21-.925-1.834-1.361-1.746-1.22-3.567-1.22-5.35-.152-1.012.604-1.924 1.374-2.885 2.065-.657.469-1.288.988-1.987 1.386-1.115.633-2.309.604-3.5.197a2 2 0 0 1-.401-.217c-.261-.165-.308-.355-.076-.595 1.399-1.436 2.75-2.92 4.2-4.302 2.158-2.06 4.817-2.808 7.749-2.686 1.957.081 3.814.61 5.579 1.432 2.508 1.169 5.117 1.872 7.894 1.903 2.675.031 5.23-.548 7.705-1.522.404-.159.795-.346 1.201-.495a.43.43 0 0 1 .365.039c2.7 2.314 4.782 5.044 5.707 8.54.075.28.13.567.199.875"/><path fill="#ffe800" d="M63.325 26.12a2 2 0 0 1-.233.13c-2.573 1.065-5.23 1.715-8.037 1.623-2.513-.083-4.865-.768-7.138-1.82-2.084-.968-4.281-1.545-6.594-1.529-2.7.019-5.187.73-7.329 2.45a.77.77 0 0 1-.404.18c-1.254.052-2.465.336-3.648.719-1.839.595-3.674.563-5.507.037-2.264-.648-4.516-1.332-6.774-2.003-.153-.045-.3-.112-.52-.196.178-.126.296-.214.418-.296 3.684-2.487 7.754-4.06 12.063-5.049a46 46 0 0 1 12.117-1.114c5.198.196 10.241 1.153 15.064 3.15a30.7 30.7 0 0 1 6.237 3.44q.127.094.249.195c.015.012.018.04.036.083"/><path fill="#fff" d="M27.456 43.392c.226-.268.42-.55.665-.78.757-.716 1.648-.953 2.66-.657.771.223 1.22.745 1.39 1.523l.05.277c.066.342.217.41.462.174.766-.736 1.788-.717 2.675-.259.792.41 1.177 1.303 1.002 2.32-.053.309-.169.607-.23.915-.029.138-.05.341.024.418s.281.067.413.023c.563-.196 1.117-.33 1.715-.153 1.259.376 2.03 1.554 1.833 2.833-.192 1.255-1.327 2.135-2.683 2.082-1.2-.047-2.196-1.055-2.323-2.334-.014-.147-.07-.365-.169-.409-.1-.044-.311.05-.417.146-.669.61-1.399.643-2.18.268-.78-.374-1.314-.934-1.241-1.885.026-.365-.145-.476-.437-.273-.806.563-1.608.563-2.428.048-.844-.532-1.185-1.323-1.173-2.293q.02-.193.019-.386a2.5 2.5 0 0 0-.102-.382q-.169.059-.319.153c-1.023.813-2.534.45-3.032-.751-.309-.75-.2-1.459.344-2.065.545-.606 1.214-.793 1.98-.573.828.237 1.277.828 1.419 1.664.018.103.029.207.045.311 0 .014.015.02.038.045"/></svg>