<svg width="80" height="80" viewBox="0 0 80 80" fill="none" xmlns="http://www.w3.org/2000/svg">
<path d="M8.00988 39.5604C7.84658 34.9006 9.71708 31.0807 12.863 27.8062C16.0466 24.4932 19.9452 22.2989 24.2109 20.708C27.5142 19.4642 30.9671 18.6614 34.4803 18.3204C36.4606 18.1327 38.456 17.9844 40.4428 18.0013C46.8314 18.0557 52.992 19.2421 58.8043 21.9835C61.7513 23.3735 64.4562 25.1314 66.7716 27.4411C69.1733 29.8381 70.9499 32.603 71.6792 35.9724C72.0255 37.5679 72.0349 39.1859 71.9664 40.803C71.8526 43.6731 71.0304 46.4705 69.5731 48.9457C67.7692 52.0429 65.2615 54.4484 62.2788 56.3855C58.8278 58.6249 55.0418 60.0458 51.0464 60.9524C47.7615 61.6939 44.441 62.0421 41.0792 62.1059C35.7455 62.2063 30.5084 61.6207 25.416 59.9745C21.5773 58.7328 18.0278 56.9439 14.9513 54.2982C11.7781 51.569 9.50122 48.2616 8.48572 44.1517C8.12186 42.6496 7.96181 41.1053 8.00988 39.5604ZM9.32383 37.5895C9.30788 37.6833 9.29474 37.7368 9.28911 37.7941C9.09202 40.0663 9.50403 42.2324 10.4473 44.2991C11.7293 47.1072 13.7321 49.3305 16.1367 51.2123C19.1193 53.5446 22.4727 55.1654 26.0607 56.3198C32.3086 58.3283 38.7047 58.8482 45.2068 58.1603C49.7897 57.676 54.2008 56.5441 58.3745 54.5629C61.4097 53.1222 64.1765 51.2949 66.4769 48.8209C68.6355 46.5018 70.1634 43.8467 70.6139 40.6716C70.7425 39.7622 70.7322 38.833 70.7904 37.8363C66.3464 38.8593 62.107 40.131 57.9719 41.8241C58.5988 43.0442 58.5828 44.1846 57.7044 45.1897C56.8672 46.148 55.7532 46.4755 54.5021 46.3263C54.4807 46.3799 54.4638 46.4351 54.4514 46.4915C54.3951 47.0612 54.2553 47.6036 53.8883 48.0579C53.0277 49.1278 51.9174 49.6534 50.5358 49.5595C50.3481 49.5464 50.2487 49.5595 50.1745 49.7726C49.7259 51.0584 48.2974 52.0589 46.9159 51.9378C46.3237 51.8852 45.9577 52.0035 45.5081 52.4005C44.7723 53.049 43.8122 53.1513 42.8492 53.0453C42.044 52.9444 41.2649 52.6928 40.5526 52.3038C40.3312 52.1874 40.1951 52.21 40.0036 52.3705C39.2528 53.0171 38.3696 53.3296 37.3757 53.2471C36.0205 53.1354 35.0294 52.4568 34.3621 51.2761C34.3058 51.1757 34.1331 51.0603 34.0345 51.0753C32.3705 51.3334 31.142 50.7665 30.2259 49.3137C30.1897 49.2691 30.1439 49.2333 30.0919 49.209C30.0399 49.1846 29.983 49.1723 29.9256 49.1729C28.1696 49.3409 26.6107 48.3282 26.0898 46.6388C26.0035 46.3573 25.8721 46.316 25.614 46.331C25.1179 46.3645 24.6211 46.2775 24.1659 46.0774C23.7107 45.8774 23.3107 45.5701 22.9999 45.182C22.6892 44.7938 22.477 44.3362 22.3814 43.8482C22.2859 43.3603 22.3098 42.8565 22.4511 42.3798C22.5271 42.1142 22.4896 41.9574 22.2503 41.8382C21.3089 41.3699 20.3882 40.8377 19.4197 40.4314C16.2587 39.1174 12.9231 38.3732 9.59507 37.6073C9.50459 37.5949 9.41327 37.5895 9.32196 37.5914L9.32383 37.5895ZM32.1912 28.5711C32.083 28.5777 31.9752 28.5903 31.8684 28.6086C31.3991 28.726 30.9298 28.8236 30.4756 28.9718C28.7457 29.5524 26.8934 29.6667 25.1053 29.3032C22.102 28.694 19.1925 27.7771 16.3422 26.6593C16.101 26.5654 15.9368 26.573 15.75 26.7532C15.0189 27.4467 14.2399 28.0934 13.5491 28.8245C11.6598 30.8217 10.2624 33.1108 9.59507 35.8119C9.56316 35.9423 9.54908 36.0766 9.51999 36.2511C10.6932 36.543 11.8278 36.8246 12.9616 37.108C15.7143 37.7941 18.4333 38.5862 21.0105 39.7922C21.781 40.1536 22.5121 40.59 23.2752 40.9973C24.8772 39.7772 26.0401 39.842 27.8505 41.2685C27.8833 41.2612 27.9149 41.2492 27.9444 41.2329C29.5342 40.1329 32.0964 40.7129 32.9111 42.2493C32.943 42.3103 33.0988 42.3338 33.1927 42.33C33.6685 42.3103 34.1547 42.1977 34.6173 42.2606C36.1406 42.468 37.2218 43.3737 37.4395 44.9025C37.4883 45.247 37.5005 45.5952 37.5334 45.9584C38.8755 45.9772 39.952 46.5037 40.6906 47.6271C41.4292 48.7505 41.4508 49.949 40.9159 51.2686C41.6667 51.4807 42.3668 51.7257 43.0829 51.8618C43.6573 51.9593 44.2474 51.837 44.7357 51.5192C45.0783 51.309 45.0801 51.1945 44.8127 50.9007C44.0549 50.0692 43.2966 49.2386 42.5376 48.4089C42.4378 48.3106 42.3578 48.194 42.3021 48.0654C42.2803 48.0091 42.2705 47.9489 42.2734 47.8886C42.2763 47.8283 42.2918 47.7693 42.319 47.7153C42.3609 47.6711 42.413 47.6377 42.4707 47.6181C42.5284 47.5984 42.5901 47.5932 42.6503 47.6027C42.8479 47.6697 43.0302 47.7756 43.1862 47.9143C44.0825 48.7402 44.9647 49.5821 45.8563 50.4127C45.9661 50.5335 46.1005 50.6295 46.2505 50.6942C47.0276 50.9373 47.7653 50.8378 48.3997 50.3113C49.0839 49.7416 49.1149 49.1278 48.5227 48.4596C47.5964 47.4159 46.6634 46.3789 45.7343 45.3371C45.6564 45.2498 45.5522 45.1653 45.5231 45.0611C45.4828 44.9185 45.4396 44.6857 45.5109 44.6229C45.5804 44.58 45.6583 44.5528 45.7394 44.5431C45.8204 44.5334 45.9026 44.5414 45.9802 44.5665C46.1626 44.646 46.3273 44.7612 46.4645 44.9054C47.4903 45.8683 48.5471 46.8021 49.5213 47.8148C50.748 49.0912 52.8709 47.9978 53.1872 46.8566C53.3862 46.1376 53.0783 45.6046 52.6006 45.1259C51.3248 43.8464 50.0481 42.5684 48.7705 41.292C48.6644 41.185 48.5339 41.0743 48.4889 40.941C48.4438 40.8077 48.4316 40.5843 48.5114 40.4989C48.5912 40.4135 48.8193 40.4051 48.9478 40.4501C49.1281 40.5346 49.2921 40.6502 49.4321 40.7918C50.8512 42.0541 52.2721 43.3145 53.679 44.5909C54.046 44.9419 54.5287 45.1465 55.0361 45.1663C55.9061 45.2019 56.8193 44.6717 57.0962 43.9612C57.3731 43.2507 57.1272 42.5093 56.3951 41.8823C52.8597 38.8537 49.3326 35.8147 45.7765 32.8105C44.929 32.1072 44.0351 31.4619 43.1008 30.879C42.4682 30.48 41.7095 30.3314 40.9731 30.4622C40.0411 30.6105 39.2425 31.0498 38.4944 31.5753C37.4621 32.3027 36.4531 33.077 35.4442 33.8382C34.1941 34.7861 32.8097 35.1849 31.2499 34.909C30.4822 34.7739 29.7304 34.5937 29.1166 34.0747C28.408 33.474 28.3658 32.6978 28.988 32.0165C29.3766 31.5932 29.7708 31.1718 30.1612 30.7541L32.1912 28.5711ZM70.5567 36.5205C70.4872 36.2117 70.4328 35.9273 70.3586 35.6476C69.4342 32.1479 67.3553 29.4177 64.6524 27.107C64.598 27.0742 64.5372 27.0537 64.4742 27.0469C64.4111 27.0401 64.3473 27.0471 64.2873 27.0676C63.8809 27.2168 63.4895 27.4045 63.0859 27.5631C60.6101 28.5373 58.0554 29.1164 55.3806 29.0854C52.6034 29.0535 49.9943 28.3505 47.4865 27.1821C45.7221 26.3599 43.8647 25.8315 41.9079 25.7499C38.9759 25.6278 36.318 26.3768 34.1584 28.4359C32.7074 29.8175 31.3559 31.3013 29.9613 32.7354C29.7285 32.9747 29.7736 33.1652 30.0364 33.3304C30.1614 33.4175 30.2958 33.4903 30.4371 33.5472C31.6291 33.9545 32.8229 33.9836 33.9379 33.3501C34.6371 32.9522 35.2687 32.435 35.9247 31.9639C36.8858 31.2741 37.8018 30.5045 38.8098 29.8991C40.593 28.8311 42.4128 28.8301 44.1594 30.0512C44.7836 30.4876 45.4143 30.9212 45.9943 31.412C49.6133 34.4842 53.2247 37.567 56.8287 40.6604C57.0239 40.8274 57.1703 40.8725 57.4134 40.7664C60.886 39.2507 64.4731 38.0653 68.139 37.1155C68.9283 36.9109 69.7242 36.726 70.5548 36.5224L70.5567 36.5205ZM63.33 26.1178C63.3121 26.0755 63.3084 26.0474 63.2934 26.0352C63.2126 25.9676 63.13 25.9019 63.0446 25.84C61.1046 24.4558 59.0101 23.3021 56.8034 22.4021C51.9802 20.4049 46.9366 19.4476 41.739 19.2514C37.6683 19.0865 33.5937 19.4614 29.6215 20.3664C25.3127 21.3556 21.2432 22.9277 17.5585 25.4148C17.4375 25.4965 17.3192 25.5847 17.1409 25.7114C17.3614 25.7949 17.5079 25.8615 17.6608 25.9066C19.9133 26.5776 22.1705 27.2618 24.4342 27.9104C26.2672 28.4359 28.102 28.4679 29.9416 27.8728C31.1241 27.4899 32.3348 27.2065 33.5887 27.1548C33.7398 27.1364 33.8819 27.0734 33.997 26.9737C36.1387 25.2534 38.6249 24.5429 41.326 24.5241C43.6385 24.5082 45.8357 25.0873 47.9201 26.0521C50.1923 27.1051 52.5452 27.7902 55.0577 27.8728C57.8649 27.9667 60.5219 27.3153 63.0944 26.2501C63.1737 26.2109 63.2508 26.1674 63.3253 26.1196L63.33 26.1178ZM27.461 43.3868C27.4376 43.3615 27.4235 43.3549 27.4225 43.3455C27.4066 43.2413 27.3953 43.1372 27.3775 43.0339C27.2358 42.1977 26.7872 41.6073 25.9594 41.3699C25.1926 41.1503 24.5121 41.353 23.9791 41.9433C23.446 42.5337 23.3221 43.2573 23.6346 44.0081C24.1283 45.2047 25.644 45.5689 26.667 44.7589C26.7669 44.696 26.8737 44.6447 26.9852 44.606C27.0295 44.7303 27.0637 44.8581 27.0875 44.9879C27.0891 45.1168 27.0829 45.2456 27.0687 45.3737C27.0565 46.3441 27.3981 47.1353 28.2419 47.6675C29.0612 48.1837 29.8637 48.1818 30.6699 47.6196C30.9618 47.4159 31.1326 47.5257 31.1063 47.8918C31.0378 48.8434 31.5587 49.3934 32.348 49.7773C33.1373 50.1611 33.859 50.1189 34.5273 49.5089C34.6333 49.415 34.8445 49.3212 34.9449 49.3634C35.0453 49.4056 35.0998 49.6252 35.1138 49.7726C35.2405 51.0509 36.2401 52.0589 37.4367 52.1058C38.7929 52.1593 39.9276 51.2789 40.12 50.0241C40.3161 48.7449 39.5456 47.568 38.287 47.1916C37.6882 47.0133 37.1336 47.1485 36.5714 47.3437C36.4447 47.3878 36.2316 47.3953 36.1584 47.3211C36.0852 47.247 36.1059 47.0396 36.134 46.9035C36.196 46.5957 36.3114 46.2972 36.3649 45.9875C36.5395 44.9711 36.1547 44.0785 35.3625 43.6684C34.4756 43.2104 33.4536 43.1907 32.6877 43.9274C32.4428 44.163 32.2917 44.0954 32.226 43.7528C32.2081 43.659 32.1941 43.5651 32.1753 43.476C32.0082 42.6979 31.5568 42.1761 30.7853 41.9527C29.7736 41.6599 28.8829 41.8974 28.1255 42.6097C27.8768 42.8415 27.6816 43.124 27.4563 43.3924L27.461 43.3868Z" fill="#0B2A7D"/>
<path d="M9.32199 37.5913C9.41424 37.5894 9.5065 37.5947 9.59792 37.6073C12.9231 38.3731 16.2587 39.1174 19.4197 40.4313C20.3883 40.8377 21.309 41.3699 22.2522 41.8391C22.4915 41.9583 22.5291 42.1151 22.453 42.3807C22.3117 42.8574 22.2878 43.3612 22.3834 43.8492C22.4789 44.3371 22.6911 44.7947 23.0018 45.1829C23.3126 45.5711 23.7126 45.8783 24.1678 46.0784C24.623 46.2785 25.1198 46.3654 25.6159 46.3319C25.874 46.3169 26.0054 46.3601 26.0917 46.6397C26.6126 48.3291 28.1715 49.338 29.9275 49.1738C29.9849 49.1732 30.0418 49.1855 30.0938 49.2099C30.1458 49.2343 30.1916 49.27 30.2279 49.3146C31.1439 50.7674 32.3724 51.3343 34.0364 51.0762C34.135 51.0612 34.3077 51.1766 34.364 51.2771C35.0285 52.4605 36.0224 53.1391 37.3776 53.248C38.3725 53.3306 39.2547 53.018 40.0055 52.3714C40.1932 52.2071 40.3331 52.1884 40.5546 52.3047C41.2668 52.6938 42.0459 52.9453 42.8512 53.0462C43.8141 53.1513 44.7742 53.0462 45.51 52.4014C45.9596 52.0044 46.3256 51.8862 46.9178 51.9387C48.2965 52.0598 49.7278 51.0593 50.1764 49.7735C50.2506 49.5633 50.3529 49.5473 50.5378 49.5605C51.9202 49.6543 53.0296 49.1334 53.8902 48.0588C54.2562 47.6046 54.3961 47.0621 54.4533 46.4924C54.4657 46.436 54.4826 46.3808 54.504 46.3272C55.7551 46.4764 56.8691 46.1489 57.7063 45.1907C58.5848 44.1855 58.6007 43.047 57.9738 41.8251C62.109 40.1357 66.3483 38.8602 70.7923 37.8372C70.7341 38.834 70.7444 39.7631 70.6158 40.6725C70.1653 43.8523 68.6355 46.5027 66.4788 48.8218C64.1784 51.2958 61.4107 53.1231 58.3764 54.5638C54.2027 56.545 49.7916 57.6769 45.2088 58.1612C38.7028 58.8492 32.3067 58.3292 26.0626 56.3207C22.4746 55.1663 19.1175 53.5455 16.1386 51.2132C13.7322 49.3315 11.7275 47.1081 10.4492 44.3C9.51063 42.2352 9.09392 40.0672 9.29102 37.795C9.29289 37.7387 9.30603 37.6833 9.32199 37.5913Z" fill="#FFE800"/>
<path d="M32.1893 28.5729L30.163 30.7541C29.7726 31.1746 29.3784 31.5931 28.9898 32.0164C28.3648 32.6978 28.4098 33.474 29.1184 34.0746C29.7322 34.5936 30.484 34.7738 31.2517 34.909C32.8115 35.1849 34.1959 34.786 35.446 33.8381C36.4549 33.0732 37.4601 32.3027 38.4963 31.5753C39.2471 31.0497 40.043 30.6105 40.9749 30.4622C41.7107 30.3318 42.4686 30.4804 43.1007 30.8789C44.0349 31.4604 44.9288 32.1041 45.7765 32.8057C49.3326 35.809 52.8596 38.849 56.3951 41.8776C57.1271 42.5046 57.373 43.2544 57.0961 43.9565C56.8193 44.6585 55.9061 45.1972 55.0361 45.1615C54.5286 45.1418 54.0459 44.9372 53.6789 44.5862C52.2711 43.3098 50.8511 42.0522 49.4321 40.787C49.292 40.6455 49.1281 40.5299 48.9478 40.4454C48.8192 40.3966 48.5893 40.4097 48.5114 40.4942C48.4335 40.5787 48.4429 40.7992 48.4888 40.9363C48.5348 41.0733 48.6634 41.1803 48.7704 41.2873C50.0462 42.5668 51.3232 43.8457 52.6015 45.124C53.0792 45.6027 53.3871 46.1357 53.1881 46.8547C52.8718 47.9959 50.7479 49.0893 49.5222 47.8129C48.548 46.7993 47.4912 45.8654 46.4654 44.9034C46.3282 44.7593 46.1635 44.6441 45.9811 44.5646C45.9034 44.5395 45.8213 44.5315 45.7402 44.5412C45.6592 44.5509 45.5813 44.5781 45.5118 44.621C45.4405 44.681 45.4837 44.9166 45.524 45.0592C45.5531 45.1634 45.6573 45.247 45.7352 45.3352C46.6643 46.3769 47.5972 47.414 48.5236 48.4577C49.1158 49.1259 49.0867 49.7397 48.4006 50.3094C47.7662 50.8359 47.0285 50.9354 46.2514 50.6923C46.1014 50.6276 45.967 50.5316 45.8572 50.4108C44.9656 49.5802 44.0834 48.7383 43.1871 47.9124C43.0311 47.7737 42.8488 47.6678 42.6511 47.6008C42.5909 47.5913 42.5293 47.5965 42.4716 47.6161C42.4138 47.6358 42.3618 47.6692 42.3198 47.7134C42.2927 47.7673 42.2772 47.8264 42.2743 47.8867C42.2714 47.947 42.2811 48.0072 42.303 48.0635C42.3582 48.1927 42.4379 48.3099 42.5376 48.4089C43.2934 49.2429 44.0511 50.0751 44.8107 50.9054C45.0782 51.1991 45.0763 51.3136 44.7338 51.5239C44.2455 51.8417 43.6554 51.964 43.081 51.8664C42.3649 51.7304 41.6685 51.4854 40.9139 51.2733C41.4489 49.9537 41.4264 48.7543 40.6887 47.6318C39.951 46.5093 38.8773 45.9771 37.5343 45.9584C37.5033 45.5951 37.4911 45.247 37.4404 44.9025C37.2227 43.3736 36.1415 42.4679 34.6182 42.2605C34.1555 42.1977 33.6694 42.3103 33.1935 42.33C33.0997 42.33 32.9458 42.3103 32.912 42.2493C32.0973 40.7129 29.5332 40.1329 27.9452 41.2328C27.9158 41.2491 27.8842 41.2612 27.8514 41.2685C26.0438 39.8419 24.8809 39.7744 23.2788 40.9944C22.5186 40.5871 21.7847 40.1498 21.0142 39.7894C18.4369 38.5834 15.718 37.7912 12.9653 37.1052C11.8315 36.8236 10.6969 36.542 9.52368 36.2483C9.55278 36.0737 9.56685 35.9395 9.59876 35.809C10.2623 33.1108 11.6598 30.8217 13.5472 28.8235C14.2379 28.0924 15.0169 27.4458 15.748 26.7522C15.9358 26.5748 16.0991 26.5645 16.3403 26.6583C19.1897 27.7761 22.1 28.6931 25.1034 29.3022C26.8915 29.6657 28.7438 29.5514 30.4737 28.9709C30.9288 28.8226 31.4009 28.725 31.8664 28.6077C31.9734 28.5902 32.0811 28.5786 32.1893 28.5729Z" fill="white"/>
<path d="M70.5548 36.5224C69.7241 36.726 68.9283 36.9109 68.139 37.1155C64.473 38.0653 60.886 39.2507 57.4134 40.7664C57.1703 40.8725 57.0239 40.8274 56.8287 40.6604C53.2222 37.5713 49.6092 34.4895 45.9895 31.4149C45.4095 30.924 44.7788 30.4904 44.1547 30.054C42.409 28.8339 40.5883 28.8339 38.8051 29.9019C37.7933 30.5063 36.8811 31.2759 35.92 31.9667C35.263 32.436 34.6323 32.955 33.9331 33.3529C32.8181 33.9864 31.6243 33.9573 30.4324 33.55C30.2911 33.4931 30.1566 33.4203 30.0316 33.3332C29.7707 33.168 29.7238 32.9775 29.9565 32.7382C31.355 31.3022 32.7065 29.8184 34.1556 28.4359C36.3142 26.3768 38.9731 25.6278 41.905 25.7499C43.8619 25.8315 45.7192 26.3599 47.4837 27.1821C49.9915 28.3505 52.6006 29.0535 55.3777 29.0854C58.0525 29.1164 60.6072 28.5373 63.0831 27.5631C63.4866 27.4045 63.878 27.2168 64.2844 27.0676C64.3445 27.0471 64.4082 27.0401 64.4713 27.0469C64.5344 27.0537 64.5952 27.0742 64.6495 27.107C67.3487 29.4205 69.4313 32.1507 70.3558 35.6476C70.4309 35.9264 70.4853 36.2136 70.5548 36.5224Z" fill="white"/>
<path d="M63.3252 26.1197C63.2498 26.1675 63.1718 26.2111 63.0915 26.2501C60.519 27.3154 57.862 27.9648 55.0549 27.8729C52.5424 27.7903 50.1895 27.1051 47.9173 26.0521C45.8328 25.0854 43.6357 24.5082 41.3232 24.5242C38.6221 24.5429 36.1359 25.2534 33.9941 26.9737C33.8801 27.0727 33.7394 27.1357 33.5896 27.1549C32.3357 27.2065 31.125 27.4899 29.9425 27.8729C28.103 28.4679 26.2681 28.436 24.4352 27.9104C22.1714 27.2619 19.9189 26.5777 17.6608 25.9066C17.5078 25.8616 17.3614 25.7949 17.1409 25.7114C17.3192 25.5847 17.4374 25.4965 17.5585 25.4148C21.2432 22.9277 25.3127 21.3557 29.6215 20.3664C33.5937 19.4614 37.6683 19.0865 41.7389 19.2515C46.9365 19.4476 51.9802 20.4049 56.8033 22.4021C59.0085 23.303 61.1015 24.4573 63.0399 25.8419C63.1253 25.9038 63.2079 25.9695 63.2886 26.0371C63.3036 26.0493 63.3074 26.0774 63.3252 26.1197Z" fill="#FFE800"/>
<path d="M27.4563 43.3924C27.6816 43.124 27.8768 42.8415 28.1208 42.6115C28.8782 41.8964 29.7689 41.6589 30.7806 41.9545C31.5521 42.1779 32.0007 42.6997 32.1706 43.4778C32.1894 43.5716 32.2034 43.6655 32.2213 43.7547C32.287 44.0972 32.4381 44.1648 32.683 43.9292C33.4489 43.1925 34.4709 43.2122 35.3579 43.6702C36.15 44.0803 36.5348 44.9729 36.3602 45.9893C36.3067 46.299 36.1913 46.5975 36.1293 46.9053C36.1012 47.0433 36.0796 47.246 36.1537 47.323C36.2279 47.3999 36.4353 47.3896 36.5667 47.3455C37.1298 47.1503 37.6835 47.0151 38.2823 47.1934C39.5409 47.5689 40.3114 48.7467 40.1153 50.0259C39.9229 51.2808 38.7882 52.1611 37.432 52.1076C36.2326 52.0607 35.2358 51.0527 35.1091 49.7744C35.0951 49.6271 35.0397 49.4093 34.9402 49.3652C34.8407 49.3211 34.6286 49.415 34.5226 49.5107C33.8543 50.1207 33.1241 50.1536 32.3433 49.7791C31.5624 49.4046 31.0293 48.8453 31.1016 47.8936C31.1279 47.5294 30.9571 47.4178 30.6652 47.6214C29.859 48.1845 29.0565 48.1845 28.2372 47.6693C27.3925 47.1371 27.0518 46.346 27.064 45.3755C27.0782 45.2474 27.0844 45.1186 27.0828 44.9898C27.0591 44.8599 27.0248 44.7321 26.9805 44.6078C26.869 44.6465 26.7622 44.6979 26.6623 44.7608C25.6393 45.5745 24.1283 45.2103 23.6299 44.0099C23.3211 43.2591 23.43 42.5515 23.9744 41.9452C24.5187 41.3389 25.1879 41.1521 25.9547 41.3717C26.7825 41.6092 27.2311 42.1995 27.3728 43.0357C27.3906 43.139 27.4019 43.2432 27.4178 43.3473C27.4188 43.3605 27.4329 43.367 27.4563 43.3924Z" fill="white"/>
</svg>
