<svg width="80" height="80" viewBox="0 0 80 80" fill="none" xmlns="http://www.w3.org/2000/svg">
<path fill-rule="evenodd" clip-rule="evenodd" d="M37.9501 8C21.0783 8 8 20.3586 8 37.0516C8 45.7831 11.5784 53.3281 17.406 58.5395C17.8952 58.9774 18.1905 59.5908 18.2106 60.2473L18.3737 65.5748C18.4258 67.2742 20.1811 68.3799 21.7361 67.6935L27.6808 65.0692C28.1847 64.847 28.7494 64.8057 29.2804 64.9518C32.0122 65.703 34.9196 66.1031 37.9501 66.1031C54.8218 66.1031 67.9001 53.7445 67.9001 37.0516C67.9001 20.3586 54.8218 8 37.9501 8Z" fill="url(#paint0_radial_9912_1278)"/>
<path fill-rule="evenodd" clip-rule="evenodd" d="M20.7684 46.9273L29.5663 32.9694C30.9657 30.7489 33.9625 30.196 36.0623 31.7708L43.0597 37.0188C43.7017 37.5004 44.585 37.4978 45.2243 37.0126L54.6746 29.8405C55.936 28.8833 57.5825 30.3928 56.7383 31.7323L47.9405 45.6904C46.541 47.9107 43.5441 48.4637 41.4445 46.8888L34.4469 41.6407C33.805 41.1592 32.9216 41.1618 32.2823 41.647L22.832 48.8191C21.5707 49.7763 19.9242 48.2668 20.7684 46.9273Z" fill="white"/>
<defs>
<radialGradient id="paint0_radial_9912_1278" cx="0" cy="0" r="1" gradientUnits="userSpaceOnUse" gradientTransform="translate(20.3184 71.6576) scale(69.7341 69.734)">
<stop stop-color="#0099FF"/>
<stop offset="0.609754" stop-color="#A033FF"/>
<stop offset="0.934823" stop-color="#FF5280"/>
<stop offset="1" stop-color="#FF7061"/>
</radialGradient>
</defs>
</svg>
