<svg xmlns="http://www.w3.org/2000/svg" width="80" height="80" fill="none" viewBox="0 0 80 80"><path fill="#0081fb" d="M21.882 44.784c0 1.725.379 3.049.874 3.85.649 1.05 1.617 1.494 2.604 1.494 1.273 0 2.438-.316 4.682-3.418 1.798-2.486 3.917-5.977 5.343-8.165l2.414-3.706c1.677-2.575 3.618-5.436 5.843-7.376C45.46 25.88 47.42 25 49.392 25c3.311 0 6.466 1.918 8.88 5.515 2.642 3.939 3.925 8.9 3.925 14.021 0 3.044-.6 5.28-1.622 7.048C59.588 53.293 57.664 55 54.428 55v-4.872c2.77 0 3.462-2.545 3.462-5.457 0-4.15-.968-8.755-3.1-12.045-1.514-2.334-3.476-3.76-5.634-3.76-2.334 0-4.212 1.759-6.323 4.895-1.122 1.667-2.274 3.698-3.568 5.99l-1.424 2.52c-2.86 5.069-3.585 6.223-5.015 8.129-2.507 3.336-4.648 4.6-7.466 4.6-3.343 0-5.457-1.447-6.766-3.627C17.525 49.597 17 47.266 17 44.61z"/><path fill="url(#a)" d="M20.85 30.859C23.086 27.41 26.316 25 30.021 25c2.145 0 4.278.635 6.505 2.452 2.436 1.987 5.033 5.259 8.272 10.65l1.162 1.936c2.804 4.668 4.399 7.07 5.333 8.202 1.2 1.454 2.041 1.888 3.134 1.888 2.77 0 3.462-2.545 3.462-5.457l4.307-.135c0 3.044-.6 5.28-1.622 7.048-.987 1.709-2.91 3.416-6.146 3.416-2.012 0-3.795-.437-5.765-2.295-1.516-1.426-3.287-3.96-4.65-6.237l-4.053-6.766c-2.034-3.396-3.9-5.928-4.98-7.075-1.161-1.233-2.654-2.722-5.037-2.722-1.928 0-3.566 1.353-4.937 3.421z"/><path fill="url(#b)" d="M29.943 29.905c-1.928 0-3.566 1.353-4.937 3.421-1.938 2.923-3.124 7.277-3.124 11.458 0 1.725.379 3.049.874 3.85l-4.162 2.74C17.525 49.596 17 47.265 17 44.61c0-4.83 1.326-9.864 3.85-13.751C23.086 27.41 26.316 25 30.021 25z"/><defs><linearGradient id="a" x1="26.587" x2="57.708" y1="43.377" y2="44.95" gradientUnits="userSpaceOnUse"><stop stop-color="#0064e1"/><stop offset=".4" stop-color="#0064e1"/><stop offset=".83" stop-color="#0073ee"/><stop offset="1" stop-color="#0082fb"/></linearGradient><linearGradient id="b" x1="24.073" x2="24.073" y1="46.833" y2="35.367" gradientUnits="userSpaceOnUse"><stop stop-color="#0082fb"/><stop offset="1" stop-color="#0064e0"/></linearGradient></defs></svg>