<svg width="80" height="80" viewBox="0 0 80 80" fill="none" xmlns="http://www.w3.org/2000/svg">
<path d="M70.6869 40.5381C70.6869 41.3319 70.8579 41.9397 71.2022 42.3626C71.5454 42.7855 72.047 42.997 72.7079 42.997C73.0766 42.997 73.388 42.9385 73.6409 42.8227C73.8938 42.7069 74.1541 42.5156 74.4197 42.25L74.9085 42.6357C74.7545 42.7898 74.5972 42.9268 74.4389 43.0448C74.2795 43.1638 74.1127 43.2626 73.9373 43.3423C73.7609 43.422 73.5707 43.4805 73.3646 43.5187C73.1585 43.5559 72.9268 43.575 72.6697 43.575C71.8111 43.575 71.1576 43.3051 70.7071 42.7643C70.2565 42.2234 70.0312 41.4339 70.0312 40.3958C70.0312 39.3916 70.2501 38.6106 70.6879 38.0527C71.1257 37.4949 71.7346 37.2165 72.5156 37.2165C73.2966 37.2165 73.9055 37.4821 74.3432 38.0145C74.781 38.5469 74.9999 39.2885 74.9999 40.2417V40.5381H70.6869ZM74.3167 39.6307C74.3082 39.5234 74.2954 39.4288 74.2784 39.347C74.2614 39.2652 74.2402 39.1844 74.2136 39.1026C74.1881 39.0208 74.1573 38.9336 74.1233 38.8391C73.9862 38.5128 73.7737 38.2578 73.4857 38.0729C73.1978 37.888 72.8747 37.7967 72.5135 37.7967C72.1532 37.7967 71.8292 37.8891 71.5412 38.0729C71.2532 38.2578 71.0407 38.5128 70.9036 38.8391C70.8601 38.9336 70.8282 39.0218 70.8069 39.1026C70.7857 39.1844 70.7666 39.2662 70.7485 39.347C70.7315 39.4288 70.7187 39.5234 70.7102 39.6307C70.7017 39.738 70.6932 39.8645 70.6847 40.01H74.3411C74.3337 39.8645 74.3252 39.738 74.3167 39.6307Z" fill="#3F3F3F"/>
<path d="M42.1043 37.8738V43.5757H41.4498V37.8738H40.6018V37.3861H41.4498V36.0504C41.4498 35.5797 41.5762 35.1918 41.8291 34.8879C42.082 34.584 42.4518 34.4321 42.9395 34.4321H44.5004V35.0101H43.0553C42.7302 35.0101 42.49 35.1004 42.336 35.28C42.1819 35.4596 42.1043 35.7125 42.1043 36.0376V37.3861H42.9863V37.8738H42.1043Z" fill="#3F3F3F"/>
<path d="M45.1731 37.386H44.5186V43.5756H45.1731V37.386Z" fill="#3F3F3F"/>
<path d="M56.8776 42.9549C56.562 43.2429 56.2592 43.3438 55.9394 43.4501C55.6025 43.5457 55.2455 43.5638 54.8088 43.5638C54.3465 43.5638 53.9757 43.5213 53.6984 43.4352C53.42 43.3502 53.183 43.2035 52.9854 42.9985C52.8398 42.8529 52.7282 42.6733 52.6517 42.4587C52.5741 42.2451 52.5359 42.0219 52.5359 41.7903C52.5359 41.225 52.7261 40.7872 53.1076 40.4738C53.488 40.1614 54.0171 40.0052 54.694 40.0052H56.697V39.3113C56.697 38.8151 56.5642 38.4378 56.2985 38.1807C56.0329 37.9235 55.5834 37.795 54.9501 37.795C54.5134 37.795 54.1691 37.8545 53.9162 37.9745C53.6633 38.0946 53.4391 38.2954 53.2425 38.5781L52.7675 38.1669C53.0332 37.7992 53.3371 37.5484 53.6792 37.4156C54.0214 37.2828 54.4454 37.2169 54.9501 37.2169C55.7715 37.2169 56.3772 37.3922 56.7671 37.744C57.156 38.0946 57.3515 38.5962 57.3515 39.2465V41.7829C57.325 42.1824 57.2687 42.5352 56.8776 42.9549ZM56.6959 40.5333H54.7695C53.7164 40.5333 53.1894 40.9487 53.1894 41.7786C53.1894 42.1898 53.318 42.4937 53.5751 42.6903C53.8323 42.8869 54.2424 42.9857 54.8077 42.9857C55.0904 42.9857 55.3613 42.9602 55.6227 42.9092C55.8841 42.8582 56.1253 42.7254 56.3485 42.5107C56.5801 42.2972 56.6949 41.9029 56.6949 41.3291V40.5333H56.6959Z" fill="#3F3F3F"/>
<path d="M68.8221 43.0688C68.668 43.1931 68.5118 43.2919 68.3535 43.3642C68.1952 43.4375 68.0283 43.4885 67.853 43.5183C67.6777 43.548 67.4822 43.5629 67.2686 43.5629C66.8489 43.5629 66.4706 43.4896 66.1316 43.3451C65.7937 43.1995 65.5068 42.9902 65.2709 42.716C65.035 42.4419 64.8554 42.1082 64.7311 41.714C64.6068 41.3198 64.5452 40.8788 64.5452 40.3911C64.5452 39.9033 64.6068 39.4624 64.7311 39.0681C64.8554 38.675 65.035 38.3403 65.2709 38.0661C65.5068 37.792 65.7926 37.5826 66.1316 37.4371C66.4695 37.2915 66.8489 37.2192 67.2686 37.2192C67.4822 37.2192 67.6777 37.2341 67.853 37.2639C68.0283 37.2936 68.1952 37.3457 68.3535 37.4179C68.5118 37.4902 68.668 37.589 68.8221 37.7133C68.9762 37.8377 69.1387 37.9896 69.3098 38.1692L68.8603 38.5804C68.5947 38.2893 68.345 38.0863 68.1091 37.9705C67.8732 37.8547 67.5937 37.7973 67.2675 37.7973C66.9158 37.7973 66.6013 37.8664 66.3239 38.0024C66.0455 38.1394 65.8128 38.3445 65.6237 38.6187C65.4696 38.8418 65.3602 39.0873 65.2964 39.3572C65.2327 39.6271 65.1997 39.9713 65.1997 40.3911C65.1997 40.8108 65.2316 41.1551 65.2964 41.425C65.3612 41.6949 65.4696 41.9403 65.6237 42.1635C65.8118 42.4376 66.0455 42.6427 66.3239 42.7798C66.6023 42.9168 66.9169 42.9849 67.2675 42.9849C67.4301 42.9849 67.5799 42.9721 67.717 42.9466C67.8541 42.9211 67.9848 42.8786 68.1091 42.818C68.2334 42.7585 68.3577 42.6767 68.481 42.5736C68.6053 42.4706 68.7318 42.3473 68.8593 42.2007L69.3088 42.6119C69.1387 42.7936 68.9762 42.9455 68.8221 43.0688Z" fill="#3F3F3F"/>
<path d="M62.675 37.8993C62.2638 37.5051 61.7165 37.3085 61.0312 37.3085C60.9993 37.3085 60.9685 37.3117 60.9366 37.3127C60.9047 37.3117 60.8739 37.3085 60.842 37.3085C60.1577 37.3085 59.6094 37.5051 59.1982 37.8993C58.77 38.3105 58.5564 38.8843 58.5564 39.6196V43.5746H59.2109V39.7354C59.2109 39.1361 59.3565 38.6782 59.6477 38.3615C59.9388 38.0448 60.3628 37.8865 60.9185 37.8865C60.9249 37.8865 60.9302 37.8876 60.9355 37.8876C60.9419 37.8876 60.9472 37.8865 60.9525 37.8865C61.5093 37.8865 61.9322 38.0448 62.2234 38.3615C62.5145 38.6782 62.6601 39.1361 62.6601 39.7354V43.5746H63.3147V39.6196C63.3168 38.8843 63.1022 38.3105 62.675 37.8993Z" fill="#3F3F3F"/>
<path d="M50.6474 37.8993C50.2362 37.5051 49.6889 37.3085 49.0036 37.3085C48.9717 37.3085 48.9409 37.3117 48.909 37.3127C48.8771 37.3117 48.8463 37.3085 48.8144 37.3085C48.1301 37.3085 47.5818 37.5051 47.1706 37.8993C46.7424 38.3105 46.5288 38.8843 46.5288 39.6196V43.5746H47.1834V39.7354C47.1834 39.1361 47.3289 38.6782 47.6201 38.3615C47.9112 38.0448 48.3352 37.8865 48.8909 37.8865C48.8973 37.8865 48.9026 37.8876 48.9079 37.8876C48.9143 37.8876 48.9196 37.8865 48.9249 37.8865C49.4817 37.8865 49.9047 38.0448 50.1958 38.3615C50.487 38.6782 50.6325 39.1361 50.6325 39.7354V43.5746H51.2871V39.6196C51.2892 38.8843 51.0756 38.3105 50.6474 37.8993Z" fill="#3F3F3F"/>
<path d="M32.5974 36.6456H34.559V36.6434C35.0042 36.2683 35.4069 36.008 35.7682 35.8614C36.1295 35.7147 36.4992 35.6414 36.8775 35.6414C37.6522 35.6414 38.3099 35.9124 38.8508 36.4532C39.3055 36.9133 39.5319 37.5934 39.5319 38.4945V43.6618H37.5916V40.2382C37.5916 39.3052 37.5501 38.6857 37.4662 38.3787C37.3823 38.0726 37.2367 37.8389 37.0284 37.6784C36.8201 37.518 36.5641 37.4383 36.258 37.4383C35.8617 37.4383 35.5206 37.5711 35.2369 37.8367C34.9521 38.1024 34.7555 38.47 34.645 38.9386C34.5876 39.183 34.559 39.7111 34.559 40.5251V43.6618H32.5974V36.6456Z" fill="#3F3F3F"/>
<path d="M16.584 36.7271V36.7037C16.9389 36.3488 17.3214 36.0832 17.7337 35.9057C18.146 35.7283 18.5859 35.6401 19.0555 35.6401C20.0756 35.6401 20.9427 36.0258 21.6568 36.7972C22.3708 37.5687 22.7279 38.5579 22.7279 39.765C22.7279 40.9296 22.3591 41.903 21.6217 42.6861C20.8843 43.4692 20.0097 43.8613 18.9992 43.8613C18.5487 43.8613 18.13 43.7816 17.7411 43.6201C17.3533 43.4597 16.9676 43.1972 16.584 42.8327V45.5679H14.6362V36.726H16.584V36.7271ZM18.6464 37.4518C18.028 37.4518 17.5158 37.6622 17.1089 38.084C16.7019 38.5059 16.4979 39.0563 16.4979 39.7374C16.4979 40.4324 16.7019 40.9934 17.1089 41.4227C17.5042 41.8392 17.9983 42.0528 18.5923 42.0656C19.131 42.0772 19.6633 41.8849 20.0554 41.5162C20.5347 41.0657 20.7737 40.4749 20.7737 39.7449C20.7737 39.0744 20.5729 38.525 20.1702 38.0957C19.7675 37.6664 19.2596 37.4518 18.6464 37.4518Z" fill="#3F3F3F"/>
<path d="M9.46288 34.4669C8.24269 34.5345 7.14588 35.0647 6.34494 35.885L8.36939 37.9095C8.68177 37.6723 9.05564 37.5119 9.46288 37.4564V34.4669Z" fill="#4A7E94"/>
<path d="M5.92995 36.3716C5.34567 37.1584 5 38.1329 5 39.1881C5 39.2773 5.00247 39.3658 5.00734 39.4538H7.46551C7.52104 39.0465 7.68143 38.6727 7.9186 38.3603L5.92995 36.3716Z" fill="#4A7E94"/>
<path d="M5.08616 40.0913C5.27736 41.0798 5.77645 41.9586 6.47966 42.6238L7.91863 41.1848C7.68145 40.8724 7.52104 40.4986 7.46551 40.0913H5.08616Z" fill="#4A7E94"/>
<path d="M6.97348 43.0316C7.74925 43.5886 8.70058 43.9166 9.72852 43.9166C9.73767 43.9166 9.74681 43.9166 9.75594 43.9166C9.76451 43.9166 9.77308 43.9166 9.78165 43.9166C12.0704 43.9166 13.9258 42.0613 13.9258 39.7725C13.9258 37.5911 12.2402 35.8033 10.1004 35.6405V37.4564C11.2407 37.6119 12.1194 38.5896 12.1194 39.7725C12.1194 41.0636 11.0727 42.1102 9.78165 42.1102C9.25107 42.1102 8.76177 41.9335 8.36944 41.6356L6.97348 43.0316Z" fill="#3F3F3F"/>
<path fill-rule="evenodd" clip-rule="evenodd" d="M31.4246 40.3114C31.4469 40.1375 31.4584 39.9601 31.4584 39.7801C31.4584 37.4914 29.603 35.636 27.3143 35.636C25.0255 35.636 23.1702 37.4914 23.1702 39.7801C23.1702 42.0688 25.0255 43.9242 27.3143 43.9242C28.6891 43.9242 29.9075 43.2548 30.6614 42.224L29.0752 41.3176C28.6467 41.808 28.0166 42.1178 27.3143 42.1178C26.2059 42.1178 25.2778 41.3465 25.0372 40.3114H31.4246ZM27.3143 37.4424C26.4058 37.4424 25.6184 37.9606 25.2315 38.7175H29.3971C29.0101 37.9606 28.2227 37.4424 27.3143 37.4424Z" fill="#3F3F3F"/>
</svg>
