<svg xmlns="http://www.w3.org/2000/svg" width="80" height="80" fill="none" viewBox="0 0 80 80"><path fill="#26292c" d="M34.42 36.059c0 4.888 2.48 10.162 7.937 10.162 4.047 0 8.14-3.16 8.14-10.234 0-6.202-3.218-10.365-8.005-10.365-3.901 0-8.072 2.74-8.072 10.437m9.994-19.493c9.785 0 16.364 7.75 16.364 19.285 0 11.355-6.93 19.282-16.839 19.282-4.724 0-7.75-2.023-9.332-3.488.011.347.019.736.019 1.152v15.397H24.489V27.17c0-.596-.19-.785-.781-.785h-3.486V17.4h8.505c3.916 0 4.919 1.993 5.11 3.53 1.59-1.782 4.884-4.364 10.577-4.364"/></svg>