<svg xmlns="http://www.w3.org/2000/svg" width="80" height="80" fill="none" viewBox="0 0 80 80"><path fill="#939598" fill-rule="evenodd" d="M38.544 32.23a4.3 4.3 0 0 0-4.302 4.303V50.76a.438.438 0 0 1-.876 0V36.533a5.18 5.18 0 0 1 5.178-5.179l4.202.007a5.17 5.17 0 0 1 5.161 5.171v3.029a5.18 5.18 0 0 1-5.178 5.178h-5.937a.438.438 0 1 1 0-.876h5.937a4.3 4.3 0 0 0 4.302-4.302v-3.029a4.295 4.295 0 0 0-4.286-4.295zm9.661-.44c0-.241.196-.437.438-.437h1.822a2.383 2.383 0 0 1 2.383 2.383v10.629a.438.438 0 0 1-.876 0V33.736c0-.832-.675-1.507-1.507-1.507h-1.822a.44.44 0 0 1-.438-.438" clip-rule="evenodd"/><path fill="#32bcad" d="m52.02 30.144-.827-.826a.525.525 0 0 1 0-.743l.826-.826a.526.526 0 0 1 .744 0l.826.826a.525.525 0 0 1 0 .742l-.827.827a.525.525 0 0 1-.742 0"/><path fill="#939598" fill-rule="evenodd" d="M55.468 31.781c0-.242.196-.438.438-.438h1.807c1.046 0 2.05.416 2.789 1.155l4.227 4.227a.964.964 0 0 0 1.363 0l4.212-4.212a3.94 3.94 0 0 1 2.788-1.154h1.47a.438.438 0 0 1 0 .876h-1.47c-.813 0-1.593.323-2.168.898l-4.212 4.212a1.84 1.84 0 0 1-2.603 0l-4.227-4.227a3.07 3.07 0 0 0-2.169-.899h-1.807a.44.44 0 0 1-.438-.438" clip-rule="evenodd"/><path fill="#939598" fill-rule="evenodd" d="M66.092 39.328a.964.964 0 0 0-1.363 0l-4.227 4.227a3.94 3.94 0 0 1-2.789 1.155h-1.807a.438.438 0 1 1 0-.877h1.807a3.07 3.07 0 0 0 2.17-.898l4.226-4.227a1.84 1.84 0 0 1 2.603 0l4.212 4.212a3.07 3.07 0 0 0 2.168.898h1.47a.438.438 0 0 1 0 .876h-1.47a3.94 3.94 0 0 1-2.788-1.155z" clip-rule="evenodd"/><path fill="#32bcad" d="M23.03 46.972c-.908 0-1.76-.353-2.402-.994L17.16 42.51a.66.66 0 0 0-.91 0l-3.481 3.48a3.38 3.38 0 0 1-2.402.995h-.683l4.392 4.391a3.51 3.51 0 0 0 4.967 0l4.404-4.404zM10.367 34.707c.907 0 1.76.353 2.402.994l3.48 3.48c.25.252.66.253.911 0l3.468-3.467a3.38 3.38 0 0 1 2.401-.995h.418l-4.404-4.404a3.51 3.51 0 0 0-4.967 0l-4.392 4.392z"/><path fill="#32bcad" d="M27.09 38.363 24.428 35.7a.5.5 0 0 1-.189.038h-1.21c-.625 0-1.238.254-1.68.696l-3.467 3.468a1.66 1.66 0 0 1-1.177.487 1.66 1.66 0 0 1-1.177-.487l-3.48-3.48a2.4 2.4 0 0 0-1.68-.697H8.88a.5.5 0 0 1-.18-.036l-2.67 2.673a3.51 3.51 0 0 0 0 4.967l2.67 2.672a.5.5 0 0 1 .179-.036h1.487c.626 0 1.238-.253 1.68-.696l3.48-3.48c.63-.629 1.726-.629 2.355 0l3.467 3.468a2.4 2.4 0 0 0 1.68.696h1.21q.1.001.19.038l2.66-2.662a3.51 3.51 0 0 0 0-4.967"/><path fill="#939598" d="M37.417 49.552c-.197 0-.425.047-.652.1v.866c.157.057.336.085.507.085.435 0 .641-.147.641-.53 0-.36-.169-.521-.496-.521m-.798 1.61v-1.715h.119l.013.075c.2-.047.479-.11.678-.11.161 0 .315.025.444.13.15.122.197.318.197.531 0 .224-.075.435-.279.552-.141.08-.332.112-.504.112-.176 0-.345-.028-.522-.08v.505zm2.543-1.615c-.435 0-.63.136-.63.519 0 .37.192.537.63.537.432 0 .626-.135.626-.517 0-.37-.191-.54-.626-.54m.559 1.056c-.145.104-.338.134-.56.134-.226 0-.42-.032-.561-.134-.16-.112-.224-.296-.224-.527 0-.229.065-.415.224-.53.142-.101.335-.133.562-.133.223 0 .414.032.559.134.161.114.223.3.223.526 0 .232-.064.418-.223.53m2.058.1-.485-1.04h-.01l-.477 1.04h-.131l-.517-1.255h.161l.43 1.054h.01l.467-1.054h.134l.48 1.054h.01l.42-1.054h.156l-.516 1.255zm1.586-1.158c-.403 0-.54.179-.564.438h1.128c-.013-.286-.16-.438-.564-.438m-.005 1.193c-.241 0-.398-.035-.522-.14-.147-.126-.196-.31-.196-.521 0-.201.067-.415.233-.537.14-.097.31-.127.49-.127.161 0 .348.018.502.122.181.122.216.336.216.58h-1.287c.005.258.09.486.576.486.231 0 .447-.037.649-.072v.132c-.209.037-.44.077-.661.077m1.144-.035v-1.255h.119l.013.075c.265-.067.39-.11.623-.11h.018v.14h-.035c-.197 0-.316.027-.592.1v1.05zm1.624-1.158c-.402 0-.539.179-.564.438h1.128c-.012-.286-.159-.438-.564-.438m-.005 1.193c-.24 0-.397-.035-.521-.14-.147-.126-.197-.31-.197-.521 0-.201.067-.415.234-.537.139-.097.31-.127.49-.127.16 0 .347.018.501.122.181.122.216.336.216.58H45.56c.005.258.09.486.577.486.23 0 .447-.037.648-.072v.132c-.209.037-.44.077-.66.077m2.327-1.106a1.5 1.5 0 0 0-.507-.084c-.434 0-.64.147-.64.529 0 .363.168.522.496.522.197 0 .425-.048.651-.097zm.028 1.071-.013-.075c-.201.048-.48.11-.678.11-.162 0-.316-.022-.445-.13-.149-.121-.196-.317-.196-.531 0-.224.074-.435.278-.55a1.05 1.05 0 0 1 .507-.114c.174 0 .343.03.52.08v-.574h.146v1.784zm2.269-1.15c-.197 0-.425.047-.651.1v.864c.159.06.335.087.507.087.434 0 .64-.147.64-.53 0-.36-.168-.521-.496-.521m.375 1.073a1.1 1.1 0 0 1-.505.112q-.278 0-.561-.095l-.008.06h-.1v-1.784h.148v.599c.2-.045.472-.105.663-.105.162 0 .316.025.445.13.149.121.196.318.196.531 0 .224-.075.435-.278.552m.473.559v-.136c.072.007.14.012.186.012.182 0 .29-.052.393-.259l.047-.099-.656-1.255h.17l.56 1.084h.01l.535-1.084h.166l-.705 1.41c-.13.255-.269.34-.525.34q-.087 0-.181-.013m3.433-1.197h-.488v.44h.49c.335 0 .462-.038.462-.222 0-.196-.174-.218-.465-.218m-.09-.714h-.398v.447h.4c.33 0 .462-.04.462-.226 0-.198-.166-.22-.464-.22m.755 1.31c-.179.114-.395.12-.79.12h-.743V49h.726c.34 0 .549.005.723.11.124.074.173.188.173.337 0 .179-.074.298-.268.378v.01c.219.05.36.161.36.402 0 .164-.06.271-.18.346m1.668-.408a5 5 0 0 0-.453-.02c-.255 0-.345.053-.345.17 0 .109.075.168.27.168.165 0 .361-.037.528-.074zm.074.527-.01-.074c-.213.052-.462.109-.68.109-.135 0-.279-.018-.38-.092-.095-.067-.14-.177-.14-.303 0-.142.062-.274.211-.34.132-.063.308-.068.47-.068.132 0 .308.008.455.018v-.023c0-.196-.13-.26-.482-.26-.137 0-.304.007-.463.022v-.254c.177-.014.376-.024.54-.024.218 0 .445.017.584.116.144.102.171.244.171.43v.743zm1.915 0v-.693c0-.229-.117-.31-.326-.31a2.4 2.4 0 0 0-.512.079v.924h-.35v-1.255h.286l.012.08c.221-.057.467-.114.671-.114.154 0 .31.022.43.129.1.09.136.213.136.392v.768zm1.338.035c-.162 0-.339-.022-.468-.132-.154-.124-.199-.32-.199-.532 0-.198.065-.415.256-.536.157-.102.35-.124.552-.124.144 0 .286.01.442.024v.269a5 5 0 0 0-.4-.023c-.333 0-.49.105-.49.393 0 .271.117.388.39.388.16 0 .346-.03.528-.065v.258c-.197.04-.41.08-.611.08m1.645-1.061c-.333 0-.48.104-.48.39s.145.408.48.408c.33 0 .475-.102.475-.388s-.142-.41-.475-.41m.602.93c-.154.103-.356.13-.602.13-.25 0-.452-.029-.603-.13-.174-.115-.237-.304-.237-.53s.063-.418.237-.532c.151-.102.352-.131.603-.131.249 0 .448.03.602.131.174.114.233.306.233.53 0 .226-.062.417-.233.531m2.256.132c-.21 0-.44-.035-.611-.177-.204-.169-.266-.43-.266-.71 0-.251.08-.55.346-.723.206-.134.462-.162.72-.162.19 0 .383.013.594.03v.306a8 8 0 0 0-.579-.028c-.485 0-.69.184-.69.577 0 .4.19.579.549.579.233 0 .494-.047.757-.102v.303c-.263.052-.539.107-.82.107m1.85-1.101c-.291 0-.403.105-.425.296h.845c-.01-.204-.13-.296-.42-.296m-.053 1.1c-.206 0-.392-.024-.531-.138-.15-.124-.202-.31-.202-.525 0-.191.063-.405.236-.529.154-.11.35-.131.55-.131.178 0 .39.02.544.126.201.142.218.36.22.619h-1.192c.008.191.11.316.462.316.219 0 .463-.033.669-.065v.246c-.241.04-.505.082-.756.082m2.377-.035v-.693c0-.229-.117-.31-.326-.31-.154 0-.347.039-.511.079v.924h-.35v-1.255h.285l.012.08c.221-.057.468-.114.671-.114.154 0 .311.022.43.129.1.09.137.213.137.392v.768zm1.345.035c-.169 0-.323-.047-.407-.179-.062-.09-.092-.211-.092-.38v-.47h-.254v-.26h.254l.037-.381h.31v.38h.495v.261h-.494v.403a.6.6 0 0 0 .034.238c.038.085.12.117.229.117.082 0 .181-.012.25-.025v.251a2 2 0 0 1-.362.045m.685-.035v-1.255h.286l.012.08c.231-.065.403-.114.622-.114l.044.002v.298c-.04-.002-.087-.002-.122-.002-.171 0-.3.02-.492.064v.927zm2.238-.527a5 5 0 0 0-.453-.02c-.255 0-.345.053-.345.17 0 .109.075.168.27.168.165 0 .361-.037.528-.074zm.074.527-.01-.074c-.213.052-.462.109-.68.109-.135 0-.279-.018-.38-.092-.095-.067-.14-.177-.14-.303 0-.142.062-.274.211-.34.132-.063.308-.068.47-.068.132 0 .308.008.455.018v-.023c0-.196-.13-.26-.482-.26a5 5 0 0 0-.463.022v-.254c.177-.014.376-.024.54-.024.218 0 .444.017.584.116.144.102.171.244.171.43v.743zm.727-1.784h.35v1.784h-.35z"/></svg>