<svg width="80" height="80" viewBox="0 0 80 80" fill="none" xmlns="http://www.w3.org/2000/svg">
<path d="M8 21.7753C11.7092 21.2341 15.4542 20.9758 19.2026 21.0027C24.7213 21.0027 28.5843 21.8304 31.2329 23.9273C33.4402 25.6931 34.6549 28.2869 34.6549 31.7084C34.6549 36.4542 31.2885 39.7104 28.0891 40.8692V41.0361C30.6831 42.0847 32.1179 44.5681 33.0558 47.9895C34.2148 52.1834 35.3736 57.0399 36.0911 58.4746H27.4801C26.8733 57.426 25.9902 54.391 24.8865 49.8107C23.893 45.1754 22.293 43.9062 18.8715 43.8508H16.3331V58.4749H8V21.7753ZM16.3331 37.7791H19.6438C23.8379 37.7791 26.321 35.6819 26.321 32.4259C26.321 29.0039 24.0035 27.2937 20.1405 27.2386C18.8654 27.2147 17.5908 27.3071 16.3325 27.5146L16.3331 37.7791Z" fill="#415B9C"/>
<path d="M39.1099 21.775C42.8743 21.2299 46.6747 20.9716 50.4783 21.0024C57.5419 21.0024 62.1219 22.2717 65.7092 24.9756C69.5722 27.8454 71.9999 32.4257 71.9999 38.9926C71.9999 46.1113 69.4064 51.0229 65.8193 54.058C61.9012 57.3131 55.9413 58.8591 48.6568 58.8591C45.4658 58.8846 42.2767 58.7003 39.1099 58.3074V21.775ZM47.5531 52.1266C48.2706 52.2935 49.4297 52.2935 50.4783 52.2935C58.0936 52.3492 63.0603 48.1548 63.0603 39.27C63.1159 31.5443 58.5902 27.4604 51.3611 27.4604C50.0835 27.4313 48.8065 27.5423 47.5531 27.7914V52.1266Z" fill="#415B9C"/>
</svg>
