<svg xmlns="http://www.w3.org/2000/svg" width="80" height="80" fill="none" viewBox="0 0 80 80"><path fill="#00a1e0" d="M34.633 22.898c2.064-2.156 4.938-3.493 8.116-3.493 4.224 0 7.91 2.361 9.873 5.867a13.6 13.6 0 0 1 5.58-1.189C65.823 24.083 72 30.33 72 38.036s-6.178 13.953-13.797 13.953a13.7 13.7 0 0 1-2.718-.271c-1.729 3.09-5.023 5.18-8.803 5.18-1.583 0-3.08-.367-4.413-1.019-1.752 4.132-5.834 7.03-10.593 7.03-4.955 0-9.177-3.144-10.798-7.552q-1.065.228-2.196.23C12.782 55.587 8 50.743 8 44.767a10.84 10.84 0 0 1 5.342-9.373 12.4 12.4 0 0 1-1.023-4.95c0-6.872 5.565-12.444 12.43-12.444 4.03 0 7.613 1.921 9.884 4.898"/><path fill="#fff" d="M17.27 41.288c-.04.105.015.127.027.145.12.088.243.15.366.221.653.347 1.27.449 1.914.449 1.313 0 2.127-.7 2.127-1.827v-.022c0-1.042-.92-1.42-1.783-1.694l-.112-.036c-.65-.212-1.212-.395-1.212-.825v-.023c0-.367.328-.638.837-.638.565 0 1.236.189 1.668.428 0 0 .127.082.173-.04.026-.067.245-.657.267-.721.025-.07-.019-.12-.064-.148a3.7 3.7 0 0 0-1.88-.507l-.132.001c-1.201 0-2.04.728-2.04 1.77v.023c0 1.1.926 1.456 1.793 1.704l.139.043c.632.195 1.176.362 1.176.808v.022c0 .408-.354.711-.924.711-.222 0-.928-.005-1.691-.488-.093-.054-.146-.093-.218-.136-.037-.024-.13-.065-.172.06zm19.22 0c-.04.105.014.127.026.145.12.088.243.15.366.221.653.347 1.27.449 1.914.449 1.313 0 2.128-.7 2.128-1.827v-.022c0-1.042-.92-1.42-1.784-1.694l-.112-.036c-.65-.212-1.212-.395-1.212-.825v-.023c0-.367.328-.638.837-.638.565 0 1.236.189 1.668.428 0 0 .127.082.173-.04.026-.067.245-.657.267-.721.025-.07-.019-.12-.064-.148a3.7 3.7 0 0 0-1.88-.507l-.132.001c-1.201 0-2.04.728-2.04 1.77v.023c0 1.1.925 1.456 1.792 1.704l.14.043c.632.195 1.177.362 1.177.808v.022c0 .408-.355.711-.925.711-.222 0-.928-.005-1.692-.488-.092-.054-.146-.091-.216-.136-.023-.016-.135-.059-.173.06zm13.12-2.208c0 .637-.119 1.139-.352 1.494-.231.35-.58.521-1.067.521-.488 0-.835-.17-1.062-.521-.23-.354-.346-.857-.346-1.494 0-.636.116-1.137.346-1.488.227-.347.574-.516 1.062-.516.487 0 .836.169 1.068.516.232.351.35.852.35 1.488m1.096-1.18a2.65 2.65 0 0 0-.5-.955 2.4 2.4 0 0 0-.84-.642 2.8 2.8 0 0 0-1.175-.235c-.445 0-.84.08-1.175.236a2.4 2.4 0 0 0-.843.641 2.7 2.7 0 0 0-.498.954c-.107.363-.16.76-.16 1.181s.053.82.16 1.181c.108.364.275.685.5.954.223.269.506.484.84.636.336.153.731.23 1.176.23a2.8 2.8 0 0 0 1.174-.23c.335-.152.618-.367.842-.636.223-.268.39-.59.498-.954a4.1 4.1 0 0 0 .162-1.18c0-.421-.054-.819-.161-1.182m8.998 3.025c-.036-.107-.14-.066-.14-.066-.159.06-.328.117-.509.146a4 4 0 0 1-.6.043c-.531 0-.952-.158-1.254-.47-.303-.314-.472-.819-.47-1.503.001-.622.15-1.09.42-1.446.267-.355.673-.537 1.216-.537.452 0 .797.052 1.158.166 0 0 .086.038.127-.075.096-.267.167-.458.27-.752.029-.083-.043-.118-.068-.129a4.3 4.3 0 0 0-.731-.184 5.5 5.5 0 0 0-.823-.056c-.46 0-.87.079-1.221.236a2.5 2.5 0 0 0-.883.64q-.353.407-.533.955a3.8 3.8 0 0 0-.179 1.182c0 .912.245 1.648.73 2.188s1.213.816 2.163.816a4.5 4.5 0 0 0 1.552-.278s.079-.038.044-.13zm1.918-2.455q.076-.532.3-.877c.227-.349.573-.54 1.06-.54s.809.192 1.04.54c.152.229.219.536.245.877zm3.69-.778a2.3 2.3 0 0 0-.476-.87q-.357-.388-.704-.538a2.7 2.7 0 0 0-1.063-.216c-.463 0-.883.078-1.224.239q-.515.242-.854.653a2.7 2.7 0 0 0-.502.965 4.2 4.2 0 0 0-.164 1.187c0 .429.057.828.169 1.188.113.361.294.68.538.945.243.266.557.474.933.62.372.144.826.219 1.346.218 1.071-.004 1.636-.243 1.868-.372.041-.023.08-.063.031-.178l-.242-.681c-.037-.102-.14-.064-.14-.064-.265.098-.643.276-1.522.274-.576-.001-1.002-.171-1.27-.437-.274-.272-.408-.673-.432-1.238l3.71.004s.098-.002.108-.097c.003-.04.127-.764-.11-1.602m-33.4.778c.054-.354.15-.648.3-.877.228-.349.574-.54 1.061-.54s.809.192 1.04.54c.153.229.22.536.246.877zm3.69-.778a2.3 2.3 0 0 0-.474-.87q-.359-.388-.704-.538a2.7 2.7 0 0 0-1.063-.216c-.462 0-.884.078-1.225.239q-.515.242-.854.653a2.7 2.7 0 0 0-.502.965 4.2 4.2 0 0 0-.163 1.187c0 .429.056.828.168 1.188.113.361.294.68.538.945q.367.4.933.62c.373.144.826.219 1.346.218 1.072-.004 1.636-.243 1.868-.372.041-.023.08-.063.031-.178l-.241-.681c-.038-.102-.14-.064-.14-.064-.266.098-.642.276-1.524.274-.574-.001-1.001-.171-1.268-.437-.275-.272-.409-.673-.432-1.238l3.71.004s.097-.002.107-.097c.003-.04.127-.764-.111-1.602m-11.707 3.213c-.145-.116-.165-.145-.215-.22q-.11-.173-.11-.484c0-.327.108-.562.331-.72-.003 0 .32-.279 1.076-.269a8 8 0 0 1 1.006.086v1.691h.001s-.471.101-1.002.133c-.755.046-1.09-.218-1.087-.217m1.476-2.613a8 8 0 0 0-.58-.017c-.317 0-.625.04-.913.117q-.436.119-.775.36c-.224.16-.408.37-.538.614a1.8 1.8 0 0 0-.198.857q0 .496.17.85.17.353.484.58.31.228.756.328c.29.067.62.101.982.101.38 0 .76-.031 1.127-.094.363-.062.81-.153.934-.181q.13-.031.26-.067c.092-.023.085-.121.085-.121l-.002-3.401c0-.746-.199-1.299-.59-1.642s-.963-.514-1.704-.514c-.278 0-.726.038-.994.092 0 0-.81.157-1.144.419 0 0-.073.045-.033.148l.263.707c.033.092.121.06.121.06s.028-.01.061-.03c.714-.389 1.617-.377 1.617-.377.401 0 .71.08.917.24.202.156.305.39.305.886v.157c-.319-.046-.611-.072-.611-.072m29.92-1.916a.1.1 0 0 0-.056-.134 3.2 3.2 0 0 0-.622-.107c-.466-.028-.725.05-.956.155-.23.104-.485.272-.628.463V36.3c0-.063-.044-.114-.106-.114h-.951c-.062 0-.107.05-.107.114v5.547c0 .062.051.113.113.113h.975a.11.11 0 0 0 .112-.113v-2.771c0-.372.041-.743.123-.977.08-.23.19-.415.325-.547q.204-.198.458-.276c.173-.053.363-.07.498-.07.194 0 .407.05.407.05.072.008.112-.036.135-.1.064-.17.245-.68.28-.781"/><path fill="#fff" d="M46.142 33.805a3 3 0 0 0-.367-.088 3 3 0 0 0-.504-.038c-.67 0-1.2.19-1.57.565-.37.373-.62.94-.746 1.687l-.046.251h-.842s-.102-.004-.124.108l-.138.774c-.01.073.022.12.12.12h.82l-.831 4.654c-.065.374-.14.683-.223.916-.081.23-.16.404-.259.53-.095.12-.184.21-.339.262a1.4 1.4 0 0 1-.437.063c-.089 0-.208-.015-.297-.033a1 1 0 0 1-.2-.065s-.096-.036-.134.06c-.03.08-.25.681-.276.756-.025.074.011.131.058.148a2.3 2.3 0 0 0 .882.151c.341 0 .653-.048.91-.141a1.7 1.7 0 0 0 .686-.48c.217-.239.352-.49.482-.832.128-.338.239-.759.326-1.248l.836-4.741h1.222s.103.004.124-.109l.138-.773c.01-.074-.021-.12-.12-.12h-1.187c.006-.026.06-.445.196-.839.059-.167.168-.303.26-.396a.8.8 0 0 1 .31-.194q.178-.058.4-.057c.11 0 .22.013.304.03.115.025.16.038.19.047.12.036.137 0 .16-.058l.284-.78c.03-.084-.043-.12-.068-.13M29.57 41.848c0 .062-.045.112-.107.112h-.983c-.062 0-.106-.05-.106-.112V33.91c0-.062.044-.112.106-.112h.983c.062 0 .107.05.107.112z"/></svg>