<svg xmlns="http://www.w3.org/2000/svg" width="80" height="80" fill="none" viewBox="0 0 80 80"><path fill="#fff" d="M22.844 21.351h35.623v41.532H22.844z"/><path fill="#00aff0" fill-rule="evenodd" d="M52.466 52.5c-1.123 1.596-2.768 2.85-4.934 3.75q-3.246 1.361-7.7 1.36-5.337 0-8.808-1.854-2.456-1.335-3.997-3.563-1.535-2.224-1.536-4.332 0-1.22.922-2.087.922-.875 2.349-.874c.77 0 1.425.225 1.956.68.535.453.99 1.12 1.365 2.012q.689 1.583 1.49 2.644c.531.71 1.283 1.295 2.248 1.754.969.457 2.241.69 3.815.69q3.247.002 5.277-1.391c1.352-.924 2.032-2.084 2.032-3.471q-.001-1.652-1.096-2.677-1.096-1.031-2.83-1.573-1.735-.545-4.639-1.154c-2.591-.554-4.76-1.21-6.505-1.955q-2.62-1.121-4.157-3.052-1.538-1.937-1.538-4.805-.001-2.739 1.624-4.862 1.622-2.126 4.7-3.27 3.075-1.14 7.232-1.14 3.32.002 5.743.756 2.421.76 4.02 2.014 1.601 1.255 2.337 2.635c.493.916.74 1.818.74 2.687 0 .798-.307 1.523-.923 2.162q-.921.962-2.298.963-1.259 0-1.909-.579-.652-.576-1.414-1.888c-.657-1.25-1.441-2.227-2.363-2.926-.92-.703-2.393-1.052-4.428-1.052-1.883 0-3.405.377-4.562 1.14q-1.735 1.142-1.735 2.748c0 .66.2 1.237.592 1.719.39.484.934.894 1.624 1.242q1.03.518 2.089.816 1.057.293 3.496.858 3.046.657 5.52 1.447 2.472.795 4.207 1.92 1.736 1.134 2.706 2.865.972 1.726.973 4.239c0 2.003-.565 3.805-1.685 5.404m15.218-12.424c0-15.756-12.774-28.529-28.53-28.529-1.474 0-2.91.142-4.323.36A16.2 16.2 0 0 0 24.269 8C15.287 8 8 15.283 8 24.272c0 3.665 1.23 7.038 3.278 9.759a28.8 28.8 0 0 0-.654 6.045c0 15.76 12.77 28.533 28.53 28.533 2.024 0 3.998-.22 5.903-.622A16.17 16.17 0 0 0 55.73 72C64.717 72 72 64.717 72 55.733c0-4.444-1.782-8.465-4.671-11.399.21-1.396.355-2.809.355-4.258" clip-rule="evenodd"/></svg>