<svg width="80" height="80" viewBox="0 0 80 80" fill="none" xmlns="http://www.w3.org/2000/svg">
<path fill-rule="evenodd" clip-rule="evenodd" d="M31.4651 7.99999C27.9273 8.00261 25.0641 10.8736 25.0667 14.4115C25.0641 17.9493 27.9299 20.8203 31.4677 20.8229H37.8687V14.4141C37.8714 10.8763 35.0056 8.00522 31.4651 7.99999C31.4677 7.99999 31.4677 7.99999 31.4651 7.99999V7.99999ZM31.4651 25.1007H14.401C10.8632 25.1033 7.99739 27.9744 8.00001 31.5122C7.99478 35.05 10.8606 37.921 14.3984 37.9263H31.4651C35.0029 37.9236 37.8687 35.0526 37.8661 31.5148C37.8687 27.9744 35.0029 25.1033 31.4651 25.1007Z" fill="#36C5F0"/>
<path fill-rule="evenodd" clip-rule="evenodd" d="M72.0001 31.5122C72.0027 27.9744 69.1369 25.1033 65.599 25.1007C62.0612 25.1033 59.1954 27.9744 59.198 31.5122V37.9263H65.599C69.1369 37.9236 72.0027 35.0526 72.0001 31.5122ZM54.9332 31.5122V14.4115C54.9359 10.8763 52.0727 8.00522 48.5348 7.99999C44.997 8.00261 42.1312 10.8736 42.1338 14.4115V31.5122C42.1286 35.05 44.9944 37.921 48.5322 37.9263C52.07 37.9236 54.9359 35.0526 54.9332 31.5122Z" fill="#2EB67D"/>
<path fill-rule="evenodd" clip-rule="evenodd" d="M48.5321 72.1277C52.0699 72.1251 54.9357 69.2541 54.9331 65.7163C54.9357 62.1784 52.0699 59.3074 48.5321 59.3048H42.1311V65.7163C42.1285 69.2514 44.9943 72.1225 48.5321 72.1277ZM48.5321 55.0244H65.5988C69.1367 55.0218 72.0025 52.1507 71.9999 48.6129C72.0051 45.0751 69.1393 42.2041 65.6015 42.1988H48.5347C44.9969 42.2015 42.1311 45.0725 42.1337 48.6103C42.1311 52.1507 44.9943 55.0218 48.5321 55.0244Z" fill="#ECB22E"/>
<path fill-rule="evenodd" clip-rule="evenodd" d="M8.00025 48.6128C7.99763 52.1506 10.8634 55.0217 14.4013 55.0243C17.9391 55.0217 20.8049 52.1506 20.8023 48.6128V42.2013H14.4013C10.8634 42.2039 7.99763 45.075 8.00025 48.6128ZM25.067 48.6128V65.7136C25.0618 69.2515 27.9276 72.1225 31.4654 72.1277C35.0032 72.1251 37.869 69.2541 37.8664 65.7162V48.6181C37.8716 45.0802 35.0058 42.2092 31.468 42.2039C27.9276 42.2039 25.0644 45.075 25.067 48.6128C25.067 48.6128 25.067 48.6154 25.067 48.6128Z" fill="#E01E5A"/>
</svg>
