<svg xmlns="http://www.w3.org/2000/svg" width="80" height="80" fill="none" viewBox="0 0 80 80"><path fill="#36c5f0" fill-rule="evenodd" d="M31.465 8a6.404 6.404 0 0 0-6.398 6.412 6.407 6.407 0 0 0 6.4 6.41h6.402v-6.408A6.41 6.41 0 0 0 31.465 8q.004 0 0 0m0 17.1H14.401A6.407 6.407 0 0 0 8 31.513a6.407 6.407 0 0 0 6.398 6.414h17.067a6.407 6.407 0 0 0 6.401-6.411 6.407 6.407 0 0 0-6.401-6.414" clip-rule="evenodd"/><path fill="#2eb67d" fill-rule="evenodd" d="M72 31.512a6.407 6.407 0 0 0-6.401-6.411 6.407 6.407 0 0 0-6.401 6.411v6.414h6.4A6.407 6.407 0 0 0 72 31.512m-17.067 0v-17.1A6.41 6.41 0 0 0 48.535 8a6.407 6.407 0 0 0-6.401 6.412v17.1a6.407 6.407 0 0 0 6.398 6.414 6.407 6.407 0 0 0 6.401-6.414" clip-rule="evenodd"/><path fill="#ecb22e" fill-rule="evenodd" d="M48.532 72.128a6.407 6.407 0 0 0 6.401-6.412 6.407 6.407 0 0 0-6.401-6.411h-6.401v6.411a6.41 6.41 0 0 0 6.401 6.412m0-17.104h17.067a6.407 6.407 0 0 0 6.4-6.411 6.406 6.406 0 0 0-6.398-6.414H48.535a6.407 6.407 0 0 0-6.401 6.411 6.405 6.405 0 0 0 6.398 6.414" clip-rule="evenodd"/><path fill="#e01e5a" fill-rule="evenodd" d="M8 48.613a6.407 6.407 0 0 0 6.401 6.411 6.407 6.407 0 0 0 6.401-6.411V42.2h-6.4A6.407 6.407 0 0 0 8 48.613m17.067 0v17.1a6.406 6.406 0 0 0 6.398 6.415 6.407 6.407 0 0 0 6.401-6.412V48.618a6.407 6.407 0 0 0-6.398-6.414 6.4 6.4 0 0 0-6.401 6.409q0 .002 0 0" clip-rule="evenodd"/></svg>