<svg width="80" height="80" viewBox="0 0 80 80" fill="none" xmlns="http://www.w3.org/2000/svg">
<path fill-rule="evenodd" clip-rule="evenodd" d="M66.0385 39.8189C66.0385 36.022 64.2103 33.0261 60.716 33.0261C57.2071 33.0261 55.084 36.022 55.084 39.7892C55.084 44.2535 57.5904 46.5079 61.1878 46.5079C62.9423 46.5079 64.2692 46.1074 65.2718 45.5438V42.5775C64.2692 43.0818 63.1192 43.3933 61.6596 43.3933C60.2295 43.3933 58.9615 42.889 58.7994 41.1389H66.009C66.009 40.9461 66.0385 40.1748 66.0385 39.8189ZM58.7551 38.4099C58.7551 36.7339 59.7724 36.0368 60.7013 36.0368C61.6006 36.0368 62.559 36.7339 62.559 38.4099H58.7551Z" fill="#635BFF"/>
<path fill-rule="evenodd" clip-rule="evenodd" d="M49.3929 33.0261C47.948 33.0261 47.0192 33.7083 46.5031 34.1829L46.3115 33.2634H43.0679V50.5568L46.7538 49.7708L46.7685 45.5735C47.2993 45.9591 48.0807 46.5079 49.3781 46.5079C52.0172 46.5079 54.4204 44.3721 54.4204 39.6706C54.4057 35.3694 51.973 33.0261 49.3929 33.0261ZM48.5083 43.2449C47.6384 43.2449 47.1224 42.9335 46.7685 42.5479L46.7538 37.0454C47.1371 36.6153 47.6679 36.3186 48.5083 36.3186C49.8499 36.3186 50.7788 37.8315 50.7788 39.7744C50.7788 41.7618 49.8647 43.2449 48.5083 43.2449Z" fill="#635BFF"/>
<path fill-rule="evenodd" clip-rule="evenodd" d="M37.9961 32.151L41.6967 31.3501V28.3393L37.9961 29.1254V32.151Z" fill="#635BFF"/>
<path d="M41.6967 33.2782H37.9961V46.2557H41.6967V33.2782Z" fill="#635BFF"/>
<path fill-rule="evenodd" clip-rule="evenodd" d="M34.0301 34.3757L33.7942 33.2782H30.6096V46.2557H34.2955V37.4607C35.1654 36.3187 36.6397 36.5263 37.0968 36.6895V33.2782C36.625 33.1002 34.9 32.7739 34.0301 34.3757Z" fill="#635BFF"/>
<path fill-rule="evenodd" clip-rule="evenodd" d="M26.6583 30.0598L23.0609 30.831L23.0461 42.711C23.0461 44.9061 24.6827 46.5227 26.8647 46.5227C28.0737 46.5227 28.9583 46.3002 29.4449 46.0333V43.0225C28.9731 43.2153 26.6436 43.8975 26.6436 41.7025V36.4373H29.4449V33.2782H26.6436L26.6583 30.0598Z" fill="#635BFF"/>
<path fill-rule="evenodd" clip-rule="evenodd" d="M16.6916 37.0454C16.6916 36.467 17.1633 36.2445 17.9448 36.2445C19.0653 36.2445 20.4807 36.5856 21.6012 37.1937V33.7083C20.3775 33.2189 19.1685 33.0261 17.9448 33.0261C14.9518 33.0261 12.9614 34.5982 12.9614 37.2234C12.9614 41.3168 18.564 40.6643 18.564 42.4292C18.564 43.1115 17.9742 43.3339 17.1486 43.3339C15.9249 43.3339 14.3621 42.8297 13.1236 42.1474V45.6773C14.4948 46.2706 15.8807 46.5227 17.1486 46.5227C20.2153 46.5227 22.3236 44.9951 22.3236 42.3402C22.3089 37.9204 16.6916 38.7065 16.6916 37.0454Z" fill="#635BFF"/>
</svg>
