<svg xmlns="http://www.w3.org/2000/svg" width="80" height="80" fill="none" viewBox="0 0 80 80"><path fill="#fff" d="m46.91 41.727.022.037.003.006zm-5.316-.968.013.029.015.041zm11.724-8.441.006.035v.008zm-35.055-3.72a2.7 2.7 0 0 1-.33-.663 2.3 2.3 0 0 1-.116-.76.3.3 0 0 1 .033-.16 1 1 0 0 1 .267-.291 2 2 0 0 1 1.161-.38c.274-.002.528.034.778.11q.364.112.631.298.204.141.315.32a4 4 0 0 0-.61-.055c-.796.008-1.482.464-1.836 1.22a3 3 0 0 0-.179.51c-.037-.05-.079-.099-.114-.15m-2.293-6.984c-1.038.408-1.91.972-2.591 1.676a6.6 6.6 0 0 0-1.516 2.494 8.5 8.5 0 0 0-.436 2.805c.01.954.196 1.825.556 2.59a7.8 7.8 0 0 0 1.245 1.884c.47.522.992.993 1.55 1.4.485.352.954.68 1.397.973l.026.017q.462.296.874.611.305.233.534.522c.14.177.25.371.34.595q.106.269.11.687c.003.327-.048.653-.157.996a2.5 2.5 0 0 1-.453.837c-.195.24-.44.433-.747.593-.27.14-.611.214-1.012.217-.633.006-.991-.055-1.18-.107-.347-.095-.49-.182-.526-.206a1 1 0 0 1-.128-.1c-.069-.106-.093-.153-.095-.155l.006.01-.027-.058-.043-.08c-.268-.479-.549-.836-.858-1.093a2.33 2.33 0 0 0-1.526-.561c-.285.003-.58.065-.96.2a6 6 0 0 0-.79.35c-.273.145-.525.31-.747.489-.718.576-.82 1.255-.816 1.608.005.446.158.89.469 1.355l.33.492.037.045c.664.835 1.598 1.493 2.774 1.957 1.106.435 2.335.65 3.651.637a11.6 11.6 0 0 0 3.78-.654 11.1 11.1 0 0 0 3.166-1.712l.043-.036c.3.433 1.023 1.151 2.487 1.1.814-.028 1.629-.264 2.422-.701.1-.055.2-.12.3-.181.421.4 1.098.749 2.173.711a4.3 4.3 0 0 0 1.088-.173c.35-.099.791-.287 1.387-.594a9 9 0 0 0 .652-.375q.403.369.902.609l.022.01a4 4 0 0 0 1.195.325q-.511.636-1.028 1.315a34 34 0 0 0-2.12 3.133 20.5 20.5 0 0 0-1.598 3.29c-.453 1.205-.662 2.37-.624 3.462a7.5 7.5 0 0 0 .145 1.176c.098.5.264.976.493 1.415.262.503.615.934 1.05 1.283.562.45 1.263.675 2.028.648a4.2 4.2 0 0 0 1.926-.543 5.6 5.6 0 0 0 1.456-1.2c.39-.446.758-.978 1.097-1.582.31-.557.61-1.175.892-1.839l.008-.017.497-1.227a25 25 0 0 0 .877-2.593l.454-1.683.577-2.24.66-2.572 1.21-1.241c.6.51 1.319.768 2.092.74a5.66 5.66 0 0 0 2.475-.649c.077-.04.149-.087.223-.131.453.328 1.104.585 2.026.553 1.02-.036 2.032-.388 3.004-1.048.765-.519 1.553-1.242 2.342-2.146.053.688.238 1.288.566 1.777.294.441 1.01 1.175 2.491 1.123.486-.017 1.01-.123 1.603-.324a8 8 0 0 0 1.687-.82 9.8 9.8 0 0 0 1.585-1.254 7.8 7.8 0 0 0 1.373-1.8l.01-.017.01-.019c.137-.26.255-.524.35-.782q.215-.59.196-1.136c-.039-1.115-.891-1.927-1.983-1.89a1.9 1.9 0 0 0-.678.16l.037-.08q.175-.344.265-.671.094-.352.083-.688a2 2 0 0 0-.068-.464c-.094-.35-.333-.842-.946-1.22l-.116-.071-1.742-.706c-.121-.048-.243-.102-.364-.152l.112-.242.17-.358-.013-.396c-.012-.348-.129-.865-.617-1.356a3.6 3.6 0 0 0-.586-.475 3.3 3.3 0 0 0-.764-.37 2.6 2.6 0 0 0-.895-.143c-.531.019-.944.272-1.208.462a5.6 5.6 0 0 0-.676.582 8 8 0 0 0-.639.711 6 6 0 0 0-.585.866l-.016.03-.015.03q-.031.065-.06.134c-.395-.226-.924-.378-1.636-.353a11.7 11.7 0 0 0-4.06.875 12.5 12.5 0 0 0-2.89 1.67c-.103-.589-.34-1.082-.72-1.463-.52-.523-1.247-.77-2.162-.739-1.409.05-2.777.348-4.067.889a12.6 12.6 0 0 0-3.116 1.862c0-.02.004-.038.003-.057-.022-.642-.367-1.207-.946-1.552a2.3 2.3 0 0 0-1.268-.309c-.869.03-1.565.147-2.13.358a4.3 4.3 0 0 0-.991.524 2 2 0 0 0-.484-.403 2.3 2.3 0 0 0-1.29-.308c-.235.008-.52.04-.87.095a9 9 0 0 0-1.027.228 7 7 0 0 0-1.01.363c-.557.253-.945.58-1.187.998l-.084.138a10 10 0 0 0-.692-.69 18 18 0 0 0-.794-.668c.402-.13.776-.29 1.111-.483a4.9 4.9 0 0 0 1.378-1.162 4.6 4.6 0 0 0 .806-1.494 5 5 0 0 0 .231-1.689 5.5 5.5 0 0 0-.52-2.11 6.8 6.8 0 0 0-1.304-1.911 7.1 7.1 0 0 0-1.867-1.385 5.3 5.3 0 0 0-2.5-.592c-1.35.013-2.546.22-3.55.614"/><path fill="#b10053" d="M49.133 35.48a10 10 0 0 0-.369.876q-.172.47-.376.98a5.7 5.7 0 0 1-.542 1.03 2.9 2.9 0 0 1-.629.674q-.348.264-.853.281-.38-.049-.502-.245a.85.85 0 0 1-.13-.426q-.034-.945.458-1.92a6.5 6.5 0 0 1 1.337-1.782 7.3 7.3 0 0 1 1.962-1.33q.557-.262 1.137-.403-.076.053-.144.11c-.231.198-1.218 1.885-1.349 2.156M35.617 50.173a32 32 0 0 1-.85 2.764q-.421 1.213-.805 1.963t-.74.762q-.085-.019-.164-.141-.077-.125-.096-.65-.027-.776.234-1.743.26-.965.73-1.992a20 20 0 0 1 1.115-2.09q.646-1.063 1.41-2.078a587 587 0 0 1-.834 3.205m20.617-19.135a1 1 0 0 1 .026.136q0 .02-.035.19-.009-.231-.085-.323-.078-.092-.098-.091.168-.006.192.088m-2.351 7.752.166-.178q.495-.543.986-1.264.49-.722.933-1.58.444-.855.747-1.792a.8.8 0 0 1 .213.045q.149.048.34.125l.384.155q.192.077.3.137-.295.62-.533 1.312-.24.691-.425 1.372-.187.679-.28 1.334a7 7 0 0 0-.074 1.202q.025.714.314 1.146.288.432 1.087.403.483-.015 1.138-.24a6.4 6.4 0 0 0 1.344-.656q.69-.435 1.32-1.045t1.086-1.426q.157-.3.264-.588.105-.287.097-.519-.011-.336-.306-.326-.105.005-.34.18a7 7 0 0 0-.531.45q-.297.275-.632.59-.337.318-.652.59a6 6 0 0 1-.584.453q-.267.178-.435.183-.315.01-.33-.388a3.3 3.3 0 0 1 .097-.855q.11-.477.28-.999.172-.521.384-1.054.213-.534.427-1.046.077-.192.176-.385.097-.192.145-.362a.6.6 0 0 0 .01-.306q-.035-.135-.23-.255-.79-.33-1.6-.648-.81-.32-1.623-.711-.129-.06-.066-.366.063-.307.188-.648t.38-.876q-.004-.126-.147-.268a2 2 0 0 0-.324-.262 1.7 1.7 0 0 0-.385-.186 1 1 0 0 0-.329-.063q-.105.003-.32.159a4 4 0 0 0-.48.416 7 7 0 0 0-.516.575 4.5 4.5 0 0 0-.43.636 2 2 0 0 0-.168.605q-.05.37-.023.537.027.21.08.502.052.294.49.761-.146.68-.334 1.306a7.6 7.6 0 0 1-1.086 2.205l-.014.01q-.225.176-.51.45-.286.273-.621.589-.336.317-.642.59a4.6 4.6 0 0 1-.584.452q-.277.178-.466.184-.315.01-.33-.388a4.3 4.3 0 0 1 .112-1.014q.127-.593.337-1.2.21-.606.465-1.141c.167-.351 1.12-2.038 1.315-2.28q.158-.091.15-.337a1.3 1.3 0 0 0-.054-.324 3 3 0 0 0-.093-.26q-.168-.605-1.113-.572a10 10 0 0 0-3.497.754 10.6 10.6 0 0 0-2.925 1.774 8.6 8.6 0 0 0-1.986 2.446 6 6 0 0 0-.482 1.173q-.3.277-.624.6-.518.524-1.004 1.046-.487.522-.751.783l.262-1.229.163-.763q.062-.296.12-.488l.112-.383q.23-.617.44-1.277a3.1 3.1 0 0 1 .653-1.158q.12-.13.118-.236-.004-.105-.133-.184a.65.65 0 0 0-.36-.072q-.798.028-1.35.194-.552.167-.939.517-.388.35-.663.886a8.4 8.4 0 0 0-.522 1.322q-.195.428-.38.844a4 4 0 0 1-.427.74 2.1 2.1 0 0 1-.55.525q-.308.2-.77.216-.381-.05-.503-.245a.85.85 0 0 1-.13-.427q-.034-.945.459-1.92a6.5 6.5 0 0 1 1.336-1.782 7.3 7.3 0 0 1 1.962-1.33 5.9 5.9 0 0 1 2.315-.565q.294-.01.602.074.307.083.54.076a.33.33 0 0 0 .247-.125q.101-.119.096-.287-.022-.609-.305-.894-.285-.285-.956-.261a9.9 9.9 0 0 0-3.497.764 10.8 10.8 0 0 0-2.924 1.785 8.6 8.6 0 0 0-1.986 2.446 6 6 0 0 0-.508 1.26 64 64 0 0 1-1.054.982 4.6 4.6 0 0 1-.584.451q-.278.179-.467.185-.335.012-.35-.387-.024-.694.289-1.662.314-.968.723-1.887.41-.918.816-1.637.405-.72.567-.914.12-.15.118-.257-.005-.125-.155-.215a.7.7 0 0 0-.382-.081q-1.03.036-1.62.256a2.46 2.46 0 0 0-.958.612q-.365.39-.619.958l-.585 1.314q-.233.534-.494 1.216-.26.683-.585 1.304t-.751 1.067-.993.487q-.233-.034-.245-.391-.024-.693.289-1.661.314-.968.723-1.887.41-.92.816-1.638.406-.72.567-.914.12-.15.117-.256-.004-.126-.154-.216a.74.74 0 0 0-.403-.08 6 6 0 0 0-.67.076q-.419.067-.846.187-.426.12-.779.28t-.45.331a8 8 0 0 0-.748 1.488 19 19 0 0 0-.756 2.39q.057-.383.054-.778a3.24 3.24 0 0 0-.524-1.767 7.4 7.4 0 0 0-1.29-1.488 18 18 0 0 0-1.648-1.304 73 73 0 0 1-1.625-1.17 10 10 0 0 1-.932-.803 6 6 0 0 1-.765-.907 4.4 4.4 0 0 1-.53-1.055 4 4 0 0 1-.203-1.274q-.005-.541.25-.983.255-.444.692-.775.438-.33.988-.517a3.7 3.7 0 0 1 1.138-.191q.655-.006 1.266.18.61.185 1.088.52.476.333.764.794.285.459.29.979.003.226-.073.508-.077.283-.221.51-.145.226-.369.387a.9.9 0 0 1-.517.163q-.135 0-.283-.02l-.282-.042a2.4 2.4 0 0 0-.52-.064q-.248.003-.38.286a1.4 1.4 0 0 0-.13.622 1.5 1.5 0 0 0 .153.676q.15.29.465.289a3 3 0 0 0 .609-.074 4.6 4.6 0 0 0 1.36-.498q.573-.332.93-.776.357-.443.52-.964.165-.52.16-1.062-.007-.767-.376-1.576a5.2 5.2 0 0 0-.996-1.457 5.5 5.5 0 0 0-1.442-1.07 3.7 3.7 0 0 0-1.742-.412q-1.738.016-2.974.502t-2.019 1.294a4.94 4.94 0 0 0-1.144 1.884 6.9 6.9 0 0 0-.351 2.271q.01 1.083.402 1.915.391.83.984 1.49.594.662 1.297 1.173.705.512 1.34.935.524.335.99.69.465.357.82.805.352.448.573.999t.226 1.272a4.8 4.8 0 0 1-.234 1.504 4.1 4.1 0 0 1-.743 1.372q-.502.614-1.254 1.005t-1.745.4-1.627-.165q-.632-.175-1.008-.43-.375-.256-.546-.514a3 3 0 0 1-.241-.416q-.252-.449-.48-.638a.72.72 0 0 0-.476-.187q-.134 0-.428.105-.291.105-.572.254t-.494.32-.211.33q.002.18.196.472l.286.426q.732.918 2.101 1.458 1.371.54 3.04.524a10 10 0 0 0 3.256-.561q1.541-.546 2.706-1.459a7.1 7.1 0 0 0 1.841-2.127q.294-.53.456-1.084-.072.353-.125.705a9.3 9.3 0 0 0-.12 1.677q.025.713.324 1.145.3.431 1.097.403.84-.03 1.697-.5.855-.472 1.772-1.367l.005.148q.026.735.314 1.156.287.421 1.107.392.379-.014.69-.108.355-.096 1.099-.48a8.8 8.8 0 0 0 1.82-1.27 2.12 2.12 0 0 0 1.173 1.481q.514.235 1.144.213t1.25-.307q.623-.284 1.089-.785l-.256 1.103-.254 1.165a54 54 0 0 0-2.188 2.707 32 32 0 0 0-2.02 2.983 19 19 0 0 0-1.472 3.028q-.567 1.513-.522 2.837.015.399.117.921t.34.977q.236.455.625.767.39.312.957.292.63-.022 1.187-.335.558-.315 1.032-.857.476-.542.901-1.304t.815-1.68q.27-.66.494-1.216.222-.555.423-1.14t.397-1.286.446-1.656q.25-.956.575-2.23.323-1.272.768-2.992l1.716-1.763q.63-.65 1.13-1.239.03.085.063.166.232.624.711 1.09.479.468 1.088.446a4 4 0 0 0 1.772-.462q.805-.428 1.393-1.079.057.44.235.729.358.617 1.325.584 1.07-.038 2.15-.77 1.015-.689 2.095-1.94"/><path fill="#b10053" d="M65.626 37.295h-.002a4 4 0 0 0-.598.142 2.7 2.7 0 0 0-.653.3 1.64 1.64 0 0 0-.735 1.036q-.12.572-.43 1.435l-.702 1.937a4.4 4.4 0 0 0-1.317.448 6 6 0 0 0-.574.354c-.257-.516-.812-.974-1.748-.94a6.7 6.7 0 0 0-2.325.5 7 7 0 0 0-1.922 1.17 5.9 5.9 0 0 0-1.36 1.679 4.17 4.17 0 0 0-.517 2.136q.017.457.185.862c.149.389.375.735.675 1.027.422.413.946.62 1.516.6a3.4 3.4 0 0 0 1.43-.362c.322.17.702.254 1.118.24.561-.02 1.112-.202 1.643-.525q.175.134.375.236c.28.14.592.215.927.225q.418.026.861-.103.337-.1.66-.251l.005-.003q.026.017.053.032.436.214 1.015.195a3.2 3.2 0 0 0 1.26-.317q.282-.13.671-.4c.186.138.386.26.607.347.232.092.482.16.74.202q.356.059.726.061l-.052-.002.323.01.315-.005a3.9 3.9 0 0 0 1.561-.4c.454-.217.87-.486 1.239-.8.368-.315.677-.65.918-.999.339-.488.502-.976.485-1.45a1.6 1.6 0 0 0-.193-.73 1.37 1.37 0 0 0-1.111-.72l-.01-.043a9 9 0 0 0-.27-.725l-.273-.632a2 2 0 0 1-.077-.208l.022-.182.055-.452v-.122c-.008-.24-.103-.84-.793-1.233a1.96 1.96 0 0 0-1.048-.243q-.41.015-.787.163a2 2 0 0 0-.28.139l.228-.564c.151-.368.266-.662.343-.873l.018-.05.02-.078.025-.09q.079-.272.069-.565c-.025-.707-.486-1.276-1.147-1.417a2.5 2.5 0 0 0-.615-.05 4 4 0 0 0-.55.058m-4.223 11.413.009.014.01.02zm-5.592.203.01.014.01.019z"/><path fill="#fff" d="m62.82 44.313-.078.24q-.186.62-.307 1.132-.12.513-.197 1.001a1 1 0 0 1-.226.14 3 3 0 0 1-.308.122q-.16.051-.31.063-.15.01-.231-.021a.4.4 0 0 1-.233-.2.6.6 0 0 1-.073-.264q-.02-.242.068-.534a4.2 4.2 0 0 1 .49-1.063q.142-.219.243-.304.157-.144.275-.24.118-.097.22-.153a1.2 1.2 0 0 1 .205-.088 3 3 0 0 1 .23-.06.7.7 0 0 1 .311-.01zm7.852 1.2q-.036-.067-.094-.066-.082.002-.232.147-.15.144-.37.348a5 5 0 0 1-.511.417 3.2 3.2 0 0 1-.658.364q.326-.265.495-.55.17-.283.228-.586a2.5 2.5 0 0 0-.095-1.071 8 8 0 0 0-.236-.634 45 45 0 0 0-.27-.626 3.2 3.2 0 0 1-.208-.646q.028-.21.05-.412.02-.204.049-.401-.004-.091-.157-.18a.7.7 0 0 0-.384-.079 1.1 1.1 0 0 0-.684.267.9.9 0 0 0-.216.285.75.75 0 0 0-.074.36.8.8 0 0 0 .056.276q-.35.591-.656 1.076t-.588.881a12 12 0 0 1-.941 1.175l-.029.027-.34.324q-.186.174-.354.325-.168.15-.32.248a.55.55 0 0 1-.257.102q-.174.005-.18-.214-.007-.15.059-.436.065-.285.179-.676.112-.392.27-.86t.336-.983q.263-.737.565-1.517a150 150 0 0 1 1.08-2.708q.223-.545.328-.839l.041-.15q.021-.072.018-.163-.007-.197-.147-.227a1.3 1.3 0 0 0-.313-.023 3.3 3.3 0 0 0-.827.144 1.5 1.5 0 0 0-.359.163.38.38 0 0 0-.182.238q-.14.663-.487 1.63-.348.966-.812 2.242l-.231.655a1 1 0 0 0-.57-.107q-.554.078-1.052.343a4.3 4.3 0 0 0-.925.663q-.313.3-.573.65a4.4 4.4 0 0 0-.437.72 3.8 3.8 0 0 0-.269.75l-.002.013a28 28 0 0 1-.58.539q-.168.15-.32.248a.54.54 0 0 1-.257.102q-.173.005-.18-.214-.009-.231.06-.557.07-.325.186-.66.115-.333.255-.627t.285-.461q.066-.07.065-.13-.003-.057-.073-.101a.36.36 0 0 0-.198-.04 2.7 2.7 0 0 0-.77.12q-.299.103-.489.266a1.2 1.2 0 0 0-.298.386q-.108.225-.203.481-.095.258-.207.54a3 3 0 0 1-.298.564 1.6 1.6 0 0 1-.345.371.8.8 0 0 1-.469.155q-.21-.027-.276-.135a.46.46 0 0 1-.072-.234 2.16 2.16 0 0 1 .252-1.056q.27-.534.734-.979.465-.444 1.08-.732.613-.285 1.272-.31.162-.005.319.035.157.042.296.036.208-.006.2-.215a.7.7 0 0 0-.029-.178 1 1 0 0 0-.05-.142q-.094-.333-.613-.315-1.005.036-1.922.415a5.9 5.9 0 0 0-1.608.974q-.69.597-1.092 1.345a2.96 2.96 0 0 0-.374 1.522q.008.243.096.448.127.342.391.599a.8.8 0 0 0 .598.245q.532-.018.974-.254.442-.235.766-.593.03.243.13.4.195.34.727.321.59-.02 1.182-.422.4-.273.821-.706l.019.087q.053.171.133.342.081.17.213.31t.315.232a1 1 0 0 0 .425.096q.209.014.455-.057a3.4 3.4 0 0 0 .938-.444q.215-.146.383-.278.02.196.105.342a.54.54 0 0 0 .24.235.9.9 0 0 0 .418.067q.381-.014.779-.201.215-.1.56-.343t.67-.562a4 4 0 0 0 .254-.274q.202-.198.397-.407.418-.45.79-.912.37-.464.678-.909.309-.444.538-.834.03.22.112.396l.162.346q.081.171.152.36t.078.419q.013.334-.15.687-.161.352-.631.774-.057.059-.172.064a.73.73 0 0 1-.397-.12.85.85 0 0 1-.324-.33q-.013-.045-.082-.043a.35.35 0 0 0-.195.053 4.3 4.3 0 0 0-.627.594q-.177.21-.174.301 0 .024.013.023a.96.96 0 0 0 .267.384q.18.156.408.246t.49.133q.261.043.54.044a6 6 0 0 0 .543.005 2.7 2.7 0 0 0 1.077-.28q.546-.262.983-.636.439-.374.714-.77.275-.398.264-.698a.4.4 0 0 0-.04-.172"/></svg>