<svg width="80" height="80" viewBox="0 0 80 80" fill="none" xmlns="http://www.w3.org/2000/svg">
<rect x="8" y="8" width="64" height="64" rx="32" fill="#30A3E6"/>
<path d="M46.8145 28.6615C47.2873 28.4659 47.7587 28.2629 48.2527 28.1293C48.9773 27.9333 50.0923 27.7474 50.8874 28.1487C52.6815 29.0548 51.9546 31.7486 51.6031 33.7276L48.6977 50.0863C48.3908 51.814 48.3763 54.0407 46.7775 54.764C46.7689 54.7679 46.7602 54.7717 46.7515 54.7755C45.1936 55.4511 43.5344 54.3143 42.1137 53.3842C39.0764 51.3958 33.8289 47.9123 33.3902 47.2961C32.7364 46.3619 33.7202 45.2933 34.5363 44.497C37.2872 41.8126 43.7271 35.5246 43.8003 35.4164C43.8934 35.2941 44.064 34.9883 43.7537 34.6825C43.1142 34.0523 42.138 35.2359 41.3889 35.7309L29.3254 43.7032C28.4893 44.2597 27.6392 44.3789 26.9754 44.3498C26.1235 44.3125 25.3216 43.9646 24.5134 43.6928L22.2342 42.9263C21.0814 42.5387 19.5393 41.9731 19.7515 40.7755C19.9711 39.5356 21.4985 39.1356 22.662 38.6542L46.8145 28.6615Z" fill="white"/>
</svg>
