<svg xmlns="http://www.w3.org/2000/svg" width="80" height="80" fill="none" viewBox="0 0 80 80"><path fill="#00f2ea" d="M33.745 33.2v-2.495a19 19 0 0 0-2.615-.19c-10.7 0-19.405 8.706-19.405 19.406 0 6.563 3.28 12.373 8.284 15.887a19.33 19.33 0 0 1-5.21-13.212c0-10.548 8.457-19.15 18.946-19.395"/><path fill="#00f2ea" d="M34.202 61.457c4.775 0 8.669-3.798 8.846-8.53l.017-42.252h7.719A14.6 14.6 0 0 1 50.534 8H39.993l-.018 42.253c-.175 4.731-4.071 8.528-8.844 8.528a8.8 8.8 0 0 1-4.112-1.018 8.85 8.85 0 0 0 7.184 3.694m31-36.44V22.67a14.6 14.6 0 0 1-7.987-2.374 14.67 14.67 0 0 0 7.987 4.722"/><path fill="#ff004f" d="M57.215 20.293a14.6 14.6 0 0 1-3.608-9.616h-2.824a14.7 14.7 0 0 0 6.432 9.616M31.13 41.057a8.87 8.87 0 0 0-8.863 8.862 8.87 8.87 0 0 0 4.751 7.844 8.8 8.8 0 0 1-1.678-5.167 8.873 8.873 0 0 1 8.862-8.864 8.7 8.7 0 0 1 2.615.41V33.38a19 19 0 0 0-2.615-.19c-.153 0-.305.009-.457.012v8.266a8.7 8.7 0 0 0-2.615-.41"/><path fill="#ff004f" d="M65.202 25.017v8.194a25.07 25.07 0 0 1-14.668-4.716V49.92c0 10.7-8.704 19.405-19.404 19.405-4.135 0-7.97-1.304-11.121-3.517A19.35 19.35 0 0 0 34.202 72c10.7 0 19.406-8.705 19.406-19.404V31.171a25.07 25.07 0 0 0 14.667 4.717V25.342a14.7 14.7 0 0 1-3.074-.327"/><path fill="#000" d="M50.534 49.92V28.494a25.07 25.07 0 0 0 14.668 4.717v-8.194a14.67 14.67 0 0 1-7.987-4.724 14.7 14.7 0 0 1-6.432-9.616h-7.719l-.016 42.251c-.177 4.732-4.071 8.53-8.846 8.53a8.85 8.85 0 0 1-7.184-3.695 8.87 8.87 0 0 1-4.75-7.844 8.87 8.87 0 0 1 8.862-8.862c.911 0 1.787.149 2.615.41v-8.266c-10.49.246-18.947 8.847-18.947 19.395 0 5.1 1.982 9.744 5.211 13.212a19.3 19.3 0 0 0 11.121 3.517c10.7 0 19.404-8.705 19.404-19.405"/></svg>