<svg width="80" height="80" viewBox="0 0 80 80" fill="none" xmlns="http://www.w3.org/2000/svg">
<path d="M40.0461 8C22.3308 8 8 22.3432 8 39.977C8 57.6109 22.3308 72 40.0461 72C57.6672 72 72 57.6109 72 39.977C72 22.2488 57.6672 8 40.0461 8Z" fill="#001935"/>
<path d="M42.5264 47.1918C42.5264 50.0773 43.982 51.0747 46.2985 51.0747H49.5868V58.4096H43.362C37.7577 58.4096 33.5803 55.524 33.5803 48.6208V37.5652H28.4873V31.5787C34.0922 30.1222 36.4367 25.2959 36.7064 21.116H42.5264V30.6078H49.3166V37.5652H42.5264V47.1918Z" fill="white"/>
</svg>
