<svg width="80" height="80" viewBox="0 0 80 80" fill="none" xmlns="http://www.w3.org/2000/svg">
<path fill-rule="evenodd" clip-rule="evenodd" d="M72 40C72 57.6731 57.6731 72 40 72C22.3269 72 8 57.6731 8 40C8 22.3269 22.3269 8 40 8C57.6731 8 72 22.3269 72 40ZM55.6828 28.5971C57.3873 28.3935 59.0085 27.9408 60.5179 27.271C59.386 28.9636 57.9618 30.4412 56.312 31.6345C56.3296 31.9957 56.3377 32.3582 56.3377 32.7234C56.3377 43.8474 47.8697 56.6748 32.3862 56.6748C27.6321 56.6748 23.208 55.28 19.482 52.8909C20.1409 52.9703 20.8121 53.0108 21.4912 53.0108C25.4341 53.0108 29.0644 51.6645 31.9455 49.4061C28.2628 49.3373 25.1539 46.9037 24.0826 43.5603C24.5974 43.6571 25.1242 43.7085 25.6673 43.7085C26.4354 43.7085 27.1779 43.6073 27.8854 43.4134C24.0341 42.6399 21.1328 39.2387 21.1328 35.1596V35.0532C22.3018 35.7034 23.6094 36.0643 24.9464 36.1057C22.6879 34.5964 21.2016 32.0199 21.2016 29.0997C21.2016 27.5569 21.6165 26.1108 22.3415 24.8671C26.4933 29.9595 32.6961 33.3109 39.6925 33.6625C39.5499 33.0453 39.4757 32.4025 39.4757 31.7436C39.4757 27.0932 43.2449 23.3255 47.8926 23.3255C50.3139 23.3255 52.5025 24.3469 54.0373 25.9828C55.9233 25.6124 57.7318 24.9214 59.3843 23.9399C58.7551 25.9046 57.4224 27.5553 55.6828 28.5971Z" fill="#2DAAE1"/>
</svg>
