<svg width="80" height="80" viewBox="0 0 80 80" fill="none" xmlns="http://www.w3.org/2000/svg">
<path d="M40 8C33.671 8 27.4841 9.87677 22.2218 13.393C16.9594 16.9092 12.8579 21.9069 10.4359 27.7541C8.01387 33.6014 7.38016 40.0355 8.61489 46.2429C9.84961 52.4503 12.8973 58.1521 17.3726 62.6274C21.8479 67.1027 27.5497 70.1504 33.7571 71.3851C39.9645 72.6198 46.3986 71.9861 52.2459 69.5641C58.0931 67.1421 63.0908 63.0406 66.607 57.7782C70.1232 52.5159 72 46.329 72 40C72 31.5131 68.6286 23.3737 62.6274 17.3726C56.6263 11.3714 48.4869 8 40 8ZM40.4267 35.9573C41.6318 35.9573 42.7876 36.4361 43.6398 37.2882C44.4919 38.1404 44.9707 39.2962 44.9707 40.5013C44.9707 40.9257 44.8021 41.3326 44.502 41.6327C44.202 41.9328 43.795 42.1013 43.3707 42.1013C42.9463 42.1013 42.5394 41.9328 42.2393 41.6327C41.9392 41.3326 41.7707 40.9257 41.7707 40.5013C41.7679 40.1457 41.6254 39.8055 41.3739 39.5541C41.1225 39.3026 40.7823 39.1601 40.4267 39.1573C40.0023 39.1573 39.5954 38.9888 39.2953 38.6887C38.9952 38.3886 38.8267 37.9817 38.8267 37.5573C38.8267 37.133 38.9952 36.726 39.2953 36.426C39.5954 36.1259 40.0023 35.9573 40.4267 35.9573ZM40.2453 32.4587C40.2453 32.0343 40.4139 31.6273 40.714 31.3273C41.014 31.0272 41.421 30.8587 41.8453 30.8587C44.0303 30.8615 46.1248 31.7314 47.6688 33.2774C49.2128 34.8234 50.08 36.919 50.08 39.104C50.08 39.5283 49.9114 39.9353 49.6114 40.2354C49.3113 40.5354 48.9044 40.704 48.48 40.704C48.0557 40.704 47.6487 40.5354 47.3486 40.2354C47.0486 39.9353 46.88 39.5283 46.88 39.104C46.8871 38.4375 46.7617 37.7762 46.5112 37.1585C46.2607 36.5407 45.89 35.9789 45.4206 35.5056C44.9513 35.0323 44.3926 34.6569 43.777 34.4012C43.1615 34.1455 42.5012 34.0145 41.8347 34.016C41.4195 34.0134 41.0215 33.8494 40.725 33.5588C40.4284 33.2682 40.2564 32.8737 40.2453 32.4587ZM52.1387 55.7653L50.72 57.184C49.7735 58.1367 48.5087 58.7064 47.168 58.784C44.2133 58.9227 38.784 57.7173 31.168 50.1227C23.1573 42.112 22.0587 36.256 22.1973 33.344C22.2733 32.1358 22.7894 30.9974 23.648 30.144L25.056 28.736C25.9064 27.8552 27.0716 27.3481 28.2957 27.3261C29.5198 27.3041 30.7025 27.769 31.584 28.6187L34.4747 31.5093C34.7778 31.8072 35.0186 32.1624 35.183 32.5543C35.3474 32.9463 35.432 33.367 35.432 33.792C35.432 34.217 35.3474 34.6377 35.183 35.0296C35.0186 35.4216 34.7778 35.7768 34.4747 36.0747L32.4267 38.1227C32.1205 38.4322 31.9488 38.85 31.9488 39.2853C31.9488 39.7207 32.1205 40.1385 32.4267 40.448L40.4267 48.4373C40.5783 48.5899 40.7587 48.7109 40.9573 48.7935C41.1559 48.8761 41.3689 48.9187 41.584 48.9187C41.7991 48.9187 42.0121 48.8761 42.2107 48.7935C42.4093 48.7109 42.5897 48.5899 42.7413 48.4373L44.8 46.3253C45.0979 46.0222 45.4531 45.7814 45.845 45.617C46.2369 45.4526 46.6577 45.368 47.0827 45.368C47.5077 45.368 47.9284 45.4526 48.3203 45.617C48.7122 45.7814 49.0675 46.0222 49.3653 46.3253L52.256 49.2053C52.6815 49.6424 53.0163 50.1595 53.2409 50.7266C53.4655 51.2938 53.5755 51.8999 53.5646 52.5098C53.5537 53.1197 53.4221 53.7214 53.1773 54.2802C52.9326 54.839 52.5796 55.3437 52.1387 55.7653ZM55.072 40.6293C54.6477 40.6293 54.2407 40.4608 53.9406 40.1607C53.6406 39.8606 53.472 39.4537 53.472 39.0293C53.4664 35.9616 52.2452 33.0212 50.076 30.852C47.9068 28.6828 44.9664 27.4616 41.8987 27.456C41.4743 27.456 41.0674 27.2874 40.7673 26.9874C40.4672 26.6873 40.2987 26.2803 40.2987 25.856C40.2987 25.4316 40.4672 25.0247 40.7673 24.7246C41.0674 24.4246 41.4743 24.256 41.8987 24.256C45.8159 24.2588 49.5719 25.8162 52.3419 28.5861C55.1118 31.356 56.6692 35.1121 56.672 39.0293C56.672 39.4537 56.5034 39.8606 56.2034 40.1607C55.9033 40.4608 55.4964 40.6293 55.072 40.6293Z" fill="#1E6BF1"/>
</svg>
