<svg xmlns="http://www.w3.org/2000/svg" width="80" height="80" fill="none" viewBox="0 0 80 80"><path fill="#1e6bf1" d="M40 8a32 32 0 1 0 0 63.999A32 32 0 0 0 40 8m.427 27.957a4.544 4.544 0 0 1 4.544 4.544 1.6 1.6 0 0 1-3.2 0 1.354 1.354 0 0 0-1.344-1.344 1.6 1.6 0 1 1 0-3.2m-.182-3.498a1.6 1.6 0 0 1 1.6-1.6 8.245 8.245 0 0 1 8.235 8.245 1.6 1.6 0 0 1-3.2 0 5.034 5.034 0 0 0-5.045-5.088 1.6 1.6 0 0 1-1.59-1.557M52.14 55.765l-1.419 1.419a5.45 5.45 0 0 1-3.552 1.6c-2.955.139-8.384-1.067-16-8.661-8.01-8.011-9.11-13.867-8.97-16.779a4.95 4.95 0 0 1 1.45-3.2l1.408-1.408a4.62 4.62 0 0 1 6.528-.117l2.89 2.89a3.2 3.2 0 0 1 0 4.566l-2.047 2.048a1.653 1.653 0 0 0 0 2.325l8 7.99a1.63 1.63 0 0 0 2.314 0l2.059-2.113a3.2 3.2 0 0 1 4.565 0l2.891 2.88a4.62 4.62 0 0 1-.117 6.56m2.933-15.136a1.6 1.6 0 0 1-1.6-1.6A11.594 11.594 0 0 0 41.9 27.456a1.6 1.6 0 0 1 0-3.2 14.784 14.784 0 0 1 14.773 14.773 1.6 1.6 0 0 1-1.6 1.6"/></svg>