<svg width="80" height="80" viewBox="0 0 80 80" fill="none" xmlns="http://www.w3.org/2000/svg">
<circle cx="40" cy="40" r="32" fill="url(#paint0_linear_9912_888)"/>
<path fill-rule="evenodd" clip-rule="evenodd" d="M34.5332 21.8667C41.5943 21.8667 47.6997 25.758 49.7252 31.5534C49.823 31.8335 49.7777 32.1437 49.6038 32.384C49.4246 32.6181 49.1478 32.7565 48.8531 32.7594L48.5865 32.7467C40.0875 32.7467 33.1733 38.4424 33.1733 45.44C33.1794 46.2453 33.2779 47.0472 33.467 47.83C33.4909 47.9318 33.497 48.037 33.485 48.141C33.4277 48.6384 32.9779 48.9952 32.4805 48.9379C31.1084 48.7855 29.7584 48.4765 28.4567 48.0167L23.6586 50.7603C23.3908 50.919 23.0602 50.9292 22.7831 50.7874C22.3374 50.5592 22.1611 50.0129 22.3893 49.5671L24.2625 45.8208C20.8267 43.4827 18.7401 39.6219 18.6665 35.4667C18.6665 27.9667 25.7838 21.8667 34.5332 21.8667ZM25.9197 30.0268C25.9197 28.5246 27.1375 27.3068 28.6397 27.3068C30.1419 27.3068 31.3597 28.5246 31.3597 30.0268C31.3597 31.529 30.1419 32.7468 28.6397 32.7468C27.1375 32.7468 25.9197 31.529 25.9197 30.0268ZM39.5195 27.3067C38.0173 27.3067 36.7995 28.5245 36.7995 30.0267C36.7995 31.5289 38.0173 32.7467 39.5195 32.7467C41.0217 32.7467 42.2395 31.5289 42.2395 30.0267C42.2395 28.5245 41.0217 27.3067 39.5195 27.3067ZM48.5866 34.5599C56.0866 34.5599 62.1866 39.4396 62.1866 45.4399C62.0595 48.8786 60.2114 52.0228 57.2688 53.8066L58.5001 56.8893C58.5964 57.1299 58.5852 57.4004 58.4691 57.6323C58.245 58.0801 57.7003 58.2613 57.2525 58.0371L52.7573 55.7904C51.3948 56.1415 49.9935 56.3194 48.5866 56.3199C41.0866 56.3199 34.9866 51.4402 34.9866 45.4399C34.9866 39.4396 41.0866 34.5599 48.5866 34.5599ZM42.2401 41.8133C42.2401 40.8118 43.0519 40 44.0534 40C45.0549 40 45.8667 40.8118 45.8667 41.8133C45.8667 42.8148 45.0549 43.6266 44.0534 43.6266C43.0519 43.6266 42.2401 42.8148 42.2401 41.8133ZM53.12 40C52.1186 40 51.3067 40.8118 51.3067 41.8133C51.3067 42.8147 52.1186 43.6266 53.12 43.6266C54.1215 43.6266 54.9333 42.8147 54.9333 41.8133C54.9334 40.8118 54.1215 40 53.12 40Z" fill="white"/>
<defs>
<linearGradient id="paint0_linear_9912_888" x1="40" y1="7.99999" x2="40" y2="72" gradientUnits="userSpaceOnUse">
<stop stop-color="#02E16E"/>
<stop offset="1" stop-color="#07C361"/>
</linearGradient>
</defs>
</svg>
