<svg width="80" height="80" viewBox="0 0 80 80" fill="none" xmlns="http://www.w3.org/2000/svg">
<path d="M37.9937 34.9721C35.3315 39.4472 32.781 43.7807 30.1773 48.0816C29.5086 49.1858 29.1777 50.0853 29.7119 51.4889C31.1867 55.3663 29.1062 59.1396 25.1959 60.1637C21.5083 61.1299 17.9155 58.7065 17.1838 54.7586C16.5355 51.2643 19.2473 47.8388 23.1003 47.2926C23.423 47.2464 23.7527 47.2411 24.2952 47.2005L30.156 37.3732C26.4698 33.7081 24.2758 29.424 24.7614 24.1149C25.1046 20.3622 26.5805 17.1191 29.2778 14.461C34.4441 9.37077 42.3257 8.54656 48.4088 12.4536C54.2511 16.2065 56.9268 23.5168 54.646 29.7735C52.9262 29.3073 51.1944 28.8371 49.2908 28.3207C50.0069 24.842 49.4772 21.7183 47.1309 19.0422C45.5808 17.2754 43.5916 16.3493 41.3298 16.0081C36.7954 15.3231 32.3434 18.2361 31.0224 22.6865C29.5229 27.7372 31.7924 31.8632 37.9937 34.9724V34.9721Z" fill="#C73A63"/>
<path d="M45.5967 29.6799C47.4722 32.9885 49.3767 36.3471 51.264 39.6748C60.8037 36.7234 67.9963 42.0041 70.5767 47.6576C73.6935 54.4869 71.5628 62.5754 65.4418 66.7888C59.159 71.1138 51.2133 70.3749 45.6468 64.819C47.0655 63.6314 48.4912 62.4387 50.0145 61.1643C55.5125 64.7251 60.3212 64.5575 63.8912 60.3409C66.9355 56.7437 66.8695 51.3802 63.7369 47.8586C60.1217 43.7948 55.2794 43.6708 49.4261 47.5718C46.998 43.2644 44.5278 38.9913 42.1765 34.6527C41.3836 33.1905 40.5084 32.3419 38.7214 32.0326C35.7373 31.5152 33.8108 28.9528 33.6951 26.082C33.5815 23.2428 35.2543 20.6763 37.8688 19.6765C40.4587 18.6857 43.498 19.4853 45.2401 21.6872C46.6638 23.4862 47.1162 25.5109 46.367 27.7297C46.1587 28.3484 45.889 28.947 45.5967 29.6801V29.6799Z" fill="#4B4B4B"/>
<path d="M50.0795 56.7269H38.5952C37.4945 61.2541 35.1168 64.9092 31.0202 67.2336C27.8354 69.04 24.4029 69.6525 20.7496 69.0626C14.0231 67.978 8.52314 61.923 8.03888 55.105C7.49089 47.3813 12.7999 40.516 19.8764 38.9739C20.3649 40.7481 20.8587 42.5392 21.3473 44.3091C14.8547 47.6215 12.6075 51.7949 14.4246 57.0136C16.0242 61.6061 20.5679 64.1234 25.5016 63.1499C30.5399 62.1558 33.0802 57.9688 32.77 51.2492C37.5464 51.2492 42.3268 51.1998 47.1037 51.2736C48.9689 51.3029 50.4089 51.1095 51.814 49.4651C54.1274 46.7594 58.3857 47.0035 60.8772 49.5589C63.4235 52.1705 63.3016 56.3726 60.607 58.8741C58.0073 61.2877 53.9001 61.1588 51.4678 58.5579C50.968 58.022 50.574 57.3855 50.0795 56.7269Z" fill="#4A4A4A"/>
</svg>
