<svg xmlns="http://www.w3.org/2000/svg" width="80" height="80" fill="none" viewBox="0 0 80 80"><path fill="#25d366" fill-rule="evenodd" d="M62.675 17.3c-6.016-5.994-14.016-9.297-22.54-9.3C22.568 8 8.273 22.225 8.266 39.711a31.53 31.53 0 0 0 4.254 15.854L8 72l16.893-4.41a31.95 31.95 0 0 0 15.228 3.86h.013c17.563 0 31.86-14.227 31.866-31.713.003-8.474-3.308-16.441-9.325-22.435zm-22.54 48.794h-.011a26.55 26.55 0 0 1-13.481-3.674l-.968-.572-10.025 2.617 2.676-9.727-.63-.998a26.2 26.2 0 0 1-4.049-14.027c.006-14.533 11.888-26.357 26.498-26.357 7.075.003 13.724 2.747 18.725 7.73 5.001 4.982 7.753 11.606 7.75 18.648-.006 14.534-11.887 26.359-26.486 26.359m14.527-19.74c-.796-.398-4.71-2.314-5.44-2.578-.731-.265-1.261-.397-1.792.397-.53.794-2.056 2.579-2.52 3.106-.465.53-.93.595-1.726.198s-3.361-1.233-6.403-3.932c-2.367-2.102-3.965-4.696-4.43-5.49s-.049-1.222.348-1.616c.358-.356.797-.926 1.195-1.389.4-.462.53-.793.796-1.321.266-.53.133-.991-.065-1.388-.199-.397-1.791-4.298-2.456-5.884-.646-1.545-1.303-1.335-1.79-1.36a32 32 0 0 0-1.527-.028c-.532 0-1.393.198-2.124.992-.73.793-2.787 2.71-2.787 6.61 0 3.898 2.853 7.668 3.252 8.197.398.53 5.615 8.532 13.601 11.966 1.9.817 3.383 1.305 4.54 1.67 1.907.603 3.643.518 5.015.315 1.53-.229 4.71-1.918 5.374-3.769.663-1.85.663-3.438.464-3.768-.198-.33-.73-.529-1.526-.926z" clip-rule="evenodd"/></svg>