<svg width="80" height="80" viewBox="0 0 80 80" fill="none" xmlns="http://www.w3.org/2000/svg">
<path d="M58.5327 16.7052C52.9718 11.0949 45.5775 8.00342 37.6993 8C21.4651 8 8.25377 21.3155 8.24727 37.6821C8.24537 42.9137 9.60121 48.0206 12.1783 52.5222L8 67.9037L23.6129 63.7762C27.9145 66.1414 32.7579 67.3878 37.6866 67.3898H37.6991H37.6993C53.9308 67.3898 67.1442 54.072 67.1511 37.7061C67.1538 29.7741 64.0929 22.316 58.5327 16.7052ZM37.6993 62.3764H37.6897C33.2965 62.374 28.9883 61.1849 25.2305 58.9368L24.3362 58.4023L15.0712 60.8514L17.5449 51.7473L16.9622 50.8139C14.5116 46.8855 13.2179 42.3456 13.2197 37.684C13.2251 24.0806 24.2059 13.0136 37.7086 13.0136C44.2473 13.0163 50.3929 15.586 55.0149 20.2491C59.6367 24.9123 62.1801 31.1113 62.1782 37.704C62.1724 51.3079 51.1913 62.3764 37.6993 62.3764Z" fill="#E0E0E0"/>
<path d="M9.4613 66.2815L13.4487 51.6026C10.9887 47.3066 9.69509 42.4326 9.69664 37.4409C9.70309 21.8223 22.3111 9.1154 37.8023 9.1154C45.321 9.11883 52.3777 12.0689 57.6834 17.4231C62.9903 22.7773 65.911 29.8942 65.908 37.4631C65.9015 53.0822 53.2928 65.7901 37.8034 65.7901C37.8023 65.7901 37.8042 65.7901 37.8034 65.7901H37.7909C33.0873 65.7886 28.4655 64.5982 24.3607 62.3427L9.4613 66.2815Z" fill="url(#paint0_linear_9912_1365)"/>
<path fill-rule="evenodd" clip-rule="evenodd" d="M31.6415 26.3755C31.0967 25.1541 30.523 25.1296 30.0046 25.1083C29.5806 25.0899 29.0952 25.0911 28.6105 25.0911C28.1255 25.0911 27.3373 25.2748 26.6708 26.0087C26.0039 26.7426 24.1245 28.5168 24.1245 32.1251C24.1245 35.7338 26.7315 39.2206 27.0948 39.7104C27.4586 40.1994 32.1273 47.8408 39.5213 50.7806C45.6663 53.2237 46.9168 52.7377 48.2506 52.6155C49.5844 52.4932 52.5544 50.8417 53.1607 49.129C53.767 47.4167 53.767 45.949 53.5851 45.6422C53.4032 45.3365 52.9182 45.1532 52.1906 44.7864C51.4631 44.4197 47.8868 42.6451 47.2199 42.4006C46.553 42.1561 46.068 42.0339 45.583 42.7681C45.0979 43.5017 43.7046 45.1532 43.2802 45.6422C42.8558 46.1323 42.4314 46.1934 41.7039 45.8267C40.9763 45.4588 38.6334 44.6851 35.8541 42.1866C33.6915 40.2428 32.2315 37.8421 31.8071 37.1079C31.3827 36.3744 31.7616 35.9771 32.1266 35.6114C32.4532 35.2829 32.8541 34.7553 33.2179 34.327C33.5809 33.8987 33.7021 33.5931 33.9446 33.1041C34.1871 32.6143 34.0659 32.1861 33.884 31.8194C33.7021 31.4526 32.2884 27.8257 31.6415 26.3755Z" fill="white"/>
<path d="M58.3189 16.6114C52.8218 11.0654 45.5123 8.0095 37.7247 8.00603C21.6769 8.00603 8.61719 21.1686 8.61074 37.3474C8.60885 42.519 9.94911 47.5672 12.4966 52.0171L8.36633 67.2221L23.7999 63.1419C28.0523 65.4799 32.84 66.712 37.7122 66.7139H37.7246H37.7247C53.7699 66.7139 66.8314 53.549 66.8383 37.371C66.8409 29.5302 63.8152 22.1577 58.3189 16.6114ZM37.7247 61.7582H37.7152C33.3724 61.7559 29.1136 60.5804 25.399 58.3581L24.515 57.8298L15.3564 60.2507L17.8016 51.2512L17.2256 50.3285C14.8031 46.4452 13.5243 41.9574 13.5262 37.3493C13.5315 23.9021 24.3861 12.9622 37.7338 12.9622C44.1975 12.9649 50.2725 15.505 54.8415 20.1146C59.4102 24.7243 61.9244 30.8521 61.9225 37.3692C61.9168 50.8168 51.0617 61.7582 37.7247 61.7582Z" fill="white"/>
<defs>
<linearGradient id="paint0_linear_9912_1365" x1="39.9983" y1="70.9677" x2="39.9983" y2="9.11551" gradientUnits="userSpaceOnUse">
<stop stop-color="#20B038"/>
<stop offset="1" stop-color="#60D66A"/>
</linearGradient>
</defs>
</svg>
