<svg xmlns="http://www.w3.org/2000/svg" width="80" height="80" fill="none" viewBox="0 0 80 80"><path fill="#191919" fill-rule="evenodd" d="M22.682 66.913 9.488 70.512l2.875-14.372A31.85 31.85 0 0 1 8 40C8 22.327 22.327 8 40 8s32 14.327 32 32-14.327 32-32 32a31.85 31.85 0 0 1-17.318-5.087" clip-rule="evenodd"/><path fill="#fff" fill-rule="evenodd" d="M39.247 15.442h3.592c6.588.614 12.831 4.28 16.337 9.921 5.066 7.706 4.365 18.714-1.786 25.615-1.707 1.989-5.2 1.485-6.244-.927-1.726-3.764-3.088-7.687-4.71-11.494-1.534 3.678-2.897 7.436-4.488 11.094-.693 1.953-3.045 3.212-4.997 2.309-1.48-.553-2.173-2.07-2.732-3.426-2.186-5.507-4.426-10.996-6.643-16.497 1.793-.006 3.585 0 5.384-.006 1.793 4.427 3.574 8.866 5.379 13.286 1.35-3.322 2.67-6.655 3.99-9.99.596-1.497 1.376-3.18 3.052-3.689 1.847-.694 3.85.62 4.55 2.327 1.774 4.015 3.253 8.16 4.978 12.193 1.744-2.972 2.843-6.367 2.653-9.848-.185-7.65-6.385-14.624-13.968-15.68-9.019-1.363-18.204 4.82-20.8 13.476-2.549 7.662.35 16.639 6.796 21.464 4.66 3.751 11.063 4.961 16.798 3.297-.006 1.713-.013 3.426-.006 5.133-1.075.19-2.143.392-3.218.558h-3.671c-6.183-.589-12.162-3.408-16.276-8.104-3.66-3.996-5.716-9.246-6.287-14.6v-3.518c.504-5.427 2.597-10.75 6.293-14.802 4.058-4.636 9.946-7.41 16.024-8.092" clip-rule="evenodd"/></svg>