<svg xmlns="http://www.w3.org/2000/svg" width="80" height="80" fill="none" viewBox="0 0 80 80"><path fill="#fff" d="M40 63.09c-.2 0-20.07-.016-25.005-1.346a8.04 8.04 0 0 1-5.657-5.696C8.015 51.088 8 40.65 8 40.546s.016-10.54 1.338-15.504a8.04 8.04 0 0 1 5.657-5.696C19.93 18.016 39.795 18 40 18s20.07.016 25.006 1.346a8.05 8.05 0 0 1 5.658 5.696C71.986 30.002 72 40.442 72 40.546s-.016 10.537-1.336 15.502a8.05 8.05 0 0 1-5.658 5.696C60.07 63.074 40.2 63.09 40 63.09"/><path fill="red" d="M40 63.09c-.2 0-20.07-.016-25.005-1.346a8.04 8.04 0 0 1-5.657-5.696C8.015 51.088 8 40.65 8 40.546s.016-10.54 1.338-15.504a8.04 8.04 0 0 1 5.657-5.696C19.93 18.016 39.795 18 40 18s20.07.016 25.006 1.346a8.05 8.05 0 0 1 5.658 5.696C71.986 30.002 72 40.442 72 40.546s-.016 10.537-1.336 15.502a8.05 8.05 0 0 1-5.658 5.696C60.07 63.074 40.2 63.09 40 63.09m-6.544-32.063v19.04l16.726-9.515-16.726-9.517z"/></svg>