<svg width="275" height="275" viewBox="0 0 275 275" fill="none" xmlns="http://www.w3.org/2000/svg">
<path fill-rule="evenodd" clip-rule="evenodd" d="M22.8759 150.71C23.2951 150.31 23.9597 150.325 24.3603 150.744C25.0229 151.438 25.6898 152.124 26.3609 152.803C26.7683 153.216 26.7642 153.881 26.3517 154.288C25.9392 154.696 25.2744 154.692 24.8669 154.279C24.1877 153.591 23.5127 152.897 22.8421 152.195C22.4415 151.775 22.4566 151.111 22.8759 150.71ZM32.1101 159.792C32.4986 159.361 33.1625 159.327 33.593 159.716C35.011 160.995 36.4449 162.247 37.8937 163.472C38.3365 163.846 38.3921 164.509 38.0178 164.951C37.6434 165.394 36.981 165.45 36.5381 165.076C35.0722 163.836 33.6213 162.57 32.1862 161.275C31.7557 160.886 31.7216 160.222 32.1101 159.792ZM44.2453 169.923C44.5943 169.46 45.2527 169.368 45.7157 169.717C47.2407 170.867 48.7795 171.989 50.3312 173.085C50.8049 173.419 50.9177 174.075 50.5832 174.548C50.2487 175.022 49.5936 175.135 49.1199 174.8C47.5506 173.692 45.9942 172.557 44.4516 171.394C43.9886 171.045 43.8962 170.386 44.2453 169.923ZM57.2115 178.968C57.5204 178.477 58.1686 178.33 58.6593 178.639C60.2773 179.657 61.9069 180.649 63.547 181.615C64.0466 181.909 64.2132 182.552 63.9189 183.052C63.6247 183.552 62.9811 183.718 62.4815 183.424C60.8238 182.448 59.1766 181.445 57.5409 180.416C57.0501 180.107 56.9027 179.459 57.2115 178.968ZM70.8789 186.918C71.1478 186.404 71.7823 186.206 72.296 186.474C73.991 187.362 75.6951 188.223 77.4071 189.06C77.9281 189.314 78.1441 189.943 77.8895 190.464C77.6349 190.985 77.0062 191.201 76.4852 190.946C74.756 190.101 73.0347 189.231 71.3223 188.335C70.8085 188.066 70.61 187.431 70.8789 186.918ZM85.1241 193.791C85.3541 193.259 85.972 193.014 86.5043 193.244C88.2607 194.003 90.0235 194.737 91.7915 195.448C92.3296 195.664 92.5904 196.275 92.3741 196.814C92.1579 197.352 91.5464 197.612 91.0084 197.396C89.2239 196.679 87.4445 195.937 85.6713 195.171C85.1391 194.941 84.894 194.323 85.1241 193.791ZM99.8266 199.621C100.019 199.075 100.619 198.787 101.166 198.98C102.971 199.617 104.78 200.23 106.592 200.82C107.143 201 107.444 201.592 107.265 202.144C107.085 202.695 106.492 202.996 105.941 202.817C104.114 202.221 102.289 201.603 100.468 200.961C99.9208 200.768 99.6338 200.168 99.8266 199.621ZM114.886 204.458C115.043 203.899 115.623 203.575 116.181 203.732C118.025 204.252 119.87 204.75 121.714 205.226C122.275 205.371 122.613 205.944 122.468 206.505C122.323 207.067 121.75 207.404 121.189 207.259C119.33 206.779 117.471 206.277 115.611 205.753C115.053 205.596 114.728 205.016 114.886 204.458ZM130.216 208.351C130.34 207.785 130.9 207.426 131.466 207.55C133.34 207.96 135.212 208.348 137.079 208.717C137.648 208.829 138.018 209.381 137.906 209.95C137.794 210.519 137.241 210.889 136.673 210.777C134.791 210.406 132.906 210.014 131.018 209.601C130.451 209.477 130.093 208.918 130.216 208.351ZM245.132 211.097C245.242 211.666 244.869 212.217 244.299 212.326C243.388 212.501 242.452 212.673 241.493 212.84C240.922 212.94 240.378 212.558 240.278 211.987C240.178 211.416 240.56 210.872 241.131 210.772C242.079 210.606 243.003 210.436 243.903 210.264C244.473 210.154 245.023 210.527 245.132 211.097ZM145.746 211.352C145.838 210.78 146.377 210.39 146.95 210.483C148.847 210.788 150.737 211.073 152.62 211.339C153.194 211.42 153.594 211.951 153.513 212.525C153.432 213.099 152.901 213.499 152.327 213.418C150.431 213.151 148.527 212.863 146.616 212.556C146.043 212.464 145.654 211.925 145.746 211.352ZM232.393 213.161C232.466 213.737 232.058 214.262 231.483 214.334C229.626 214.568 227.709 214.786 225.738 214.987C225.161 215.046 224.646 214.626 224.587 214.049C224.528 213.472 224.948 212.957 225.525 212.898C227.48 212.699 229.38 212.482 231.221 212.251C231.796 212.178 232.321 212.586 232.393 213.161ZM161.415 213.505C161.477 212.929 161.994 212.512 162.571 212.574C164.486 212.779 166.39 212.965 168.282 213.133C168.859 213.184 169.286 213.693 169.235 214.271C169.184 214.849 168.674 215.275 168.097 215.224C166.192 215.056 164.275 214.868 162.347 214.661C161.77 214.6 161.353 214.082 161.415 213.505ZM216.652 214.708C216.69 215.287 216.251 215.786 215.673 215.824C213.788 215.946 211.865 216.053 209.906 216.141C209.327 216.168 208.836 215.719 208.81 215.14C208.784 214.561 209.232 214.07 209.811 214.044C211.756 213.956 213.665 213.85 215.537 213.729C216.115 213.691 216.615 214.13 216.652 214.708ZM177.168 214.845C177.2 214.266 177.696 213.823 178.275 213.856C180.205 213.964 182.118 214.054 184.012 214.126C184.592 214.148 185.044 214.636 185.022 215.215C185 215.795 184.512 216.247 183.933 216.224C182.025 216.152 180.099 216.061 178.157 215.952C177.578 215.92 177.135 215.424 177.168 214.845ZM200.823 215.368C200.83 215.948 200.366 216.424 199.786 216.431C197.892 216.454 195.971 216.46 194.027 216.448C193.447 216.444 192.98 215.971 192.983 215.391C192.987 214.811 193.46 214.344 194.04 214.348C195.971 214.36 197.879 214.354 199.761 214.331C200.341 214.324 200.816 214.788 200.823 215.368Z" fill="#80E3EB"/>
<path fill-rule="evenodd" clip-rule="evenodd" d="M244.464 148.193C244.387 147.826 244.205 147.489 243.939 147.224C243.674 146.959 243.337 146.776 242.97 146.699C240.737 146.209 238.423 146.221 236.195 146.734C233.967 147.246 231.881 148.248 230.087 149.665C228.905 149.397 227.675 149.431 226.511 149.766C225.346 150.1 224.285 150.723 223.425 151.576L221.931 153.071C221.768 153.234 221.677 153.455 221.677 153.685C221.677 153.915 221.768 154.136 221.931 154.299L225.279 157.635C225.279 157.707 225.246 157.773 225.211 157.844C225.195 157.877 225.178 157.912 225.163 157.948C224.719 158.978 224.407 160.06 224.236 161.169C224.225 161.295 224.242 161.421 224.286 161.54C224.33 161.658 224.4 161.765 224.491 161.852L229.322 166.684C229.485 166.847 229.706 166.938 229.936 166.938H230.006C231.111 166.763 232.189 166.448 233.215 166L233.516 165.884L236.853 169.232C237.016 169.395 237.237 169.486 237.467 169.486C237.697 169.486 237.918 169.395 238.081 169.232L239.575 167.738C240.43 166.876 241.053 165.813 241.388 164.647C241.722 163.48 241.756 162.248 241.487 161.065C242.904 159.273 243.907 157.189 244.421 154.963C244.936 152.738 244.951 150.425 244.464 148.193ZM242.599 148.39C242.642 148.399 242.682 148.42 242.712 148.451C242.743 148.482 242.764 148.521 242.773 148.564C243.261 150.823 243.171 153.168 242.513 155.383C241.855 157.599 240.65 159.612 239.008 161.238C237.712 162.538 236.167 163.562 234.466 164.251C234.434 164.268 234.398 164.277 234.362 164.277C234.326 164.277 234.29 164.268 234.258 164.251L226.959 156.871C226.938 156.838 226.927 156.8 226.927 156.761C226.927 156.722 226.938 156.684 226.959 156.651C228.18 153.656 230.416 151.186 233.276 149.676C236.136 148.165 239.437 147.71 242.599 148.39ZM224.653 152.804C225.65 151.814 226.991 151.246 228.395 151.217C227.222 152.469 226.263 153.905 225.557 155.469L223.773 153.685L224.653 152.804ZM230.249 165.154L226.02 160.926C226.175 160.286 226.377 159.659 226.623 159.049L232.184 164.61C231.553 164.839 230.907 165.021 230.249 165.154ZM238.359 166.521L237.478 167.402L235.694 165.618C237.264 164.917 238.702 163.953 239.946 162.768C239.918 164.176 239.35 165.52 238.359 166.521ZM236.691 158.168C237.429 158.166 238.151 157.946 238.765 157.535C239.379 157.123 239.857 156.54 240.139 155.857C240.422 155.174 240.496 154.423 240.352 153.699C240.209 152.974 239.854 152.308 239.332 151.785C238.621 151.105 237.675 150.725 236.691 150.725C235.707 150.725 234.761 151.105 234.049 151.785C233.528 152.308 233.173 152.974 233.029 153.699C232.886 154.423 232.96 155.174 233.242 155.857C233.525 156.54 234.003 157.123 234.616 157.535C235.23 157.946 235.952 158.166 236.691 158.168ZM235.324 153.013C235.603 152.731 235.961 152.539 236.35 152.461C236.739 152.383 237.142 152.422 237.509 152.573C237.876 152.725 238.19 152.982 238.41 153.311C238.631 153.641 238.749 154.029 238.749 154.426C238.749 154.823 238.631 155.211 238.41 155.541C238.19 155.871 237.876 156.127 237.509 156.279C237.142 156.43 236.739 156.469 236.35 156.391C235.961 156.313 235.603 156.121 235.324 155.84C234.953 155.463 234.745 154.955 234.745 154.426C234.745 153.897 234.953 153.39 235.324 153.013ZM224.491 165.536C224.654 165.373 224.875 165.282 225.105 165.281C225.306 165.304 225.495 165.384 225.65 165.513C225.812 165.683 225.903 165.909 225.903 166.145C225.903 166.38 225.812 166.606 225.65 166.776L223.333 169.093C223.175 169.238 222.968 169.318 222.754 169.318C222.539 169.318 222.332 169.238 222.174 169.093C222.011 168.93 221.92 168.709 221.919 168.479C221.922 168.246 222.013 168.022 222.174 167.853L224.491 165.536Z" fill="#80E3EB"/>
<path fill-rule="evenodd" clip-rule="evenodd" d="M23.2845 112.649C23.5129 113.182 23.266 113.799 22.733 114.027C22.3113 114.208 21.7862 114.501 21.1854 114.888C20.6977 115.201 20.0481 115.06 19.7345 114.572C19.4209 114.085 19.562 113.435 20.0498 113.121C20.6965 112.706 21.3321 112.343 21.9059 112.097C22.4389 111.869 23.0561 112.116 23.2845 112.649ZM16.0189 117.488C16.3988 117.926 16.3516 118.589 15.9135 118.969C15.3552 119.453 14.8655 119.892 14.4847 120.244C14.0586 120.637 13.3944 120.61 13.0011 120.184C12.6078 119.758 12.6344 119.094 13.0605 118.701C13.4587 118.333 13.9647 117.879 14.5379 117.382C14.976 117.003 15.6391 117.05 16.0189 117.488Z" fill="#80E3EB"/>
<path fill-rule="evenodd" clip-rule="evenodd" d="M40.2587 116.088H27.036C26.9085 116.092 26.7816 116.069 26.6632 116.022C26.5447 115.975 26.4371 115.904 26.3469 115.814C26.2567 115.723 26.1858 115.616 26.1386 115.497C26.0913 115.379 26.0687 115.252 26.0721 115.124V103.731C26.0721 100.453 27.3741 97.3099 29.6916 94.9924C32.0091 92.6749 35.1523 91.373 38.4298 91.373C41.7072 91.373 44.8505 92.6749 47.168 94.9924C49.4855 97.3099 50.7874 100.453 50.7874 103.731C50.7905 106.683 49.7507 109.542 47.8516 111.803C45.9524 114.064 43.3159 115.582 40.407 116.088H40.2587ZM27.901 114.235H40.1228C42.5919 113.799 44.8285 112.507 46.4398 110.586C48.0512 108.665 48.9342 106.238 48.9338 103.731C48.9338 100.945 47.8271 98.273 45.8572 96.3032C43.8874 94.3333 41.2156 93.2266 38.4298 93.2266C35.6439 93.2266 32.9722 94.3333 31.0023 96.3032C29.0324 98.273 27.9258 100.945 27.9258 103.731L27.901 114.235ZM43.3729 103.409H32.8565C32.5616 103.409 32.2787 103.292 32.0701 103.083C31.8615 102.875 31.7444 102.592 31.7444 102.297C31.7444 102.002 31.8615 101.719 32.0701 101.511C32.2787 101.302 32.5616 101.185 32.8565 101.185H43.3729C43.6679 101.185 43.9508 101.302 44.1594 101.511C44.3679 101.719 44.4851 102.002 44.4851 102.297C44.4851 102.592 44.3679 102.875 44.1594 103.083C43.9508 103.292 43.6679 103.409 43.3729 103.409ZM32.8568 108.389H40.3826C40.6589 108.36 40.9147 108.23 41.1006 108.023C41.2865 107.817 41.3894 107.549 41.3894 107.271C41.3894 106.993 41.2865 106.725 41.1006 106.519C40.9147 106.312 40.6589 106.182 40.3826 106.153H32.8568C32.5804 106.182 32.3247 106.312 32.1387 106.519C31.9528 106.725 31.85 106.993 31.85 107.271C31.85 107.549 31.9528 107.817 32.1387 108.023C32.3247 108.23 32.5804 108.36 32.8568 108.389Z" fill="#80E3EB"/>
<path fill-rule="evenodd" clip-rule="evenodd" d="M21.0338 135.922H19.8938V132.679H21.0338C21.2182 132.679 21.395 132.6 21.5254 132.459C21.6557 132.317 21.729 132.126 21.729 131.926C21.729 131.726 21.6557 131.535 21.5254 131.394C21.395 131.253 21.2182 131.173 21.0338 131.173H19.8938V129.296C19.8938 128.497 19.6009 127.731 19.0795 127.166C18.558 126.601 17.8508 126.283 17.1134 126.283H15.3802V125.048C15.3802 124.849 15.307 124.657 15.1766 124.516C15.0462 124.375 14.8694 124.295 14.6851 124.295C14.5007 124.295 14.3239 124.375 14.1936 124.516C14.0632 124.657 13.99 124.849 13.99 125.048V126.283H11.0056V125.048C11.0056 124.849 10.9324 124.657 10.802 124.516C10.6716 124.375 10.4948 124.295 10.3105 124.295C10.1261 124.295 9.94931 124.375 9.81895 124.516C9.68859 124.657 9.61535 124.849 9.61535 125.048V126.283H7.84512C7.10769 126.283 6.40046 126.601 5.87902 127.166C5.35758 127.731 5.06464 128.497 5.06464 129.296V131.173H3.96172C3.77736 131.173 3.60056 131.253 3.4702 131.394C3.33984 131.535 3.2666 131.726 3.2666 131.926C3.2666 132.126 3.33984 132.317 3.4702 132.459C3.60056 132.6 3.77736 132.679 3.96172 132.679H5.06464V135.922H3.96172C3.77736 135.922 3.60056 136.002 3.4702 136.143C3.33984 136.284 3.2666 136.476 3.2666 136.675C3.2666 136.875 3.33984 137.067 3.4702 137.208C3.60056 137.349 3.77736 137.428 3.96172 137.428H5.06464V139.336C5.06464 140.135 5.35758 140.901 5.87902 141.466C6.40046 142.031 7.10769 142.348 7.84512 142.348H9.61535V143.573C9.61535 143.773 9.68859 143.965 9.81895 144.106C9.94931 144.247 10.1261 144.326 10.3105 144.326C10.4948 144.326 10.6716 144.247 10.802 144.106C10.9324 143.965 11.0056 143.773 11.0056 143.573V142.348H13.99V143.573C13.99 143.773 14.0632 143.965 14.1936 144.106C14.3239 144.247 14.5007 144.326 14.6851 144.326C14.8694 144.326 15.0462 144.247 15.1766 144.106C15.307 143.965 15.3802 143.773 15.3802 143.573V142.348H17.1134C17.8508 142.348 18.558 142.031 19.0795 141.466C19.6009 140.901 19.8938 140.135 19.8938 139.336V137.428H21.0338C21.2182 137.428 21.395 137.349 21.5254 137.208C21.6557 137.067 21.729 136.875 21.729 136.675C21.729 136.476 21.6557 136.284 21.5254 136.143C21.395 136.002 21.2182 135.922 21.0338 135.922ZM18.5036 139.336C18.5036 139.736 18.3571 140.119 18.0964 140.401C17.8357 140.684 17.4821 140.842 17.1134 140.842H7.84512C7.48201 140.832 7.13686 140.669 6.88262 140.388C6.62838 140.107 6.48496 139.73 6.48268 139.336V129.296C6.48261 128.901 6.62526 128.523 6.88 128.241C7.13473 127.96 7.48124 127.797 7.84512 127.789H17.1134C17.4821 127.789 17.8357 127.948 18.0964 128.231C18.3571 128.513 18.5036 128.896 18.5036 129.296V139.336ZM15.2595 129.848H9.74487C9.37616 129.848 9.02255 130.006 8.76183 130.289C8.50111 130.571 8.35463 130.954 8.35463 131.354V137.328C8.35463 137.727 8.50111 138.111 8.76183 138.393C9.02255 138.675 9.37616 138.834 9.74487 138.834H15.2595C15.6282 138.834 15.9818 138.675 16.2425 138.393C16.5032 138.111 16.6497 137.727 16.6497 137.328V131.354C16.6497 130.954 16.5032 130.571 16.2425 130.289C15.9818 130.006 15.6282 129.848 15.2595 129.848ZM15.2595 137.328H9.74487V131.354H15.2595V137.328ZM13.1434 135.393C12.9468 135.535 12.7156 135.611 12.4792 135.611C12.1621 135.611 11.858 135.475 11.6337 135.232C11.4095 134.989 11.2835 134.659 11.2835 134.316C11.2835 134.06 11.3537 133.809 11.485 133.596C11.6164 133.383 11.8031 133.217 12.0216 133.119C12.2401 133.021 12.4805 132.996 12.7124 133.046C12.9443 133.096 13.1574 133.219 13.3246 133.4C13.4918 133.581 13.6056 133.812 13.6518 134.063C13.6979 134.314 13.6742 134.575 13.5837 134.812C13.4933 135.048 13.34 135.251 13.1434 135.393Z" fill="#80E3EB"/>
<path fill-rule="evenodd" clip-rule="evenodd" d="M249.478 205.355C248.543 205.139 247.77 204.584 247.128 203.979C246.486 203.374 245.887 202.632 245.335 201.944C245.051 201.591 244.751 201.226 244.442 200.849C243.073 199.183 241.516 197.288 240.372 195.19C238.941 192.567 238.087 189.521 238.906 185.973C239.74 182.358 242.511 179.691 245.783 179.021C248.866 178.39 252.208 179.561 254.645 182.972C258.331 180.975 261.847 181.387 264.342 183.306C266.989 185.342 268.31 188.953 267.476 192.568C266.657 196.116 264.553 198.48 262.118 200.21C260.17 201.594 257.94 202.615 255.979 203.512C255.536 203.715 255.106 203.912 254.697 204.105C253.898 204.482 253.035 204.886 252.193 205.148C251.351 205.41 250.412 205.571 249.478 205.355ZM241.068 186.472C241.716 183.666 243.843 181.683 246.228 181.195C248.536 180.723 251.297 181.617 253.344 185.033C253.348 185.04 253.352 185.047 253.356 185.054C253.518 185.315 253.771 185.486 254.05 185.55C254.208 185.587 254.375 185.589 254.538 185.553C254.66 185.526 254.779 185.478 254.89 185.408C254.897 185.404 254.904 185.399 254.91 185.395C258.248 183.222 261.122 183.629 262.989 185.065C264.918 186.549 265.961 189.263 265.314 192.069C264.65 194.942 262.964 196.887 260.833 198.401C259.073 199.652 257.083 200.564 255.132 201.458C254.668 201.671 254.206 201.883 253.75 202.098C252.928 202.486 252.203 202.82 251.533 203.029C250.862 203.238 250.363 203.282 249.977 203.193C249.591 203.104 249.161 202.846 248.65 202.364C248.139 201.882 247.634 201.264 247.065 200.555C246.75 200.162 246.427 199.769 246.103 199.374C244.742 197.715 243.353 196.023 242.32 194.128C241.068 191.832 240.405 189.345 241.068 186.472Z" fill="#80E3EB"/>
<path fill-rule="evenodd" clip-rule="evenodd" d="M162.725 211.097C153.705 212.183 143.497 212.538 132.106 212.538C120.715 212.538 110.508 212.183 101.489 211.095L101.481 211.109L85.9815 233.606C85.0852 234.848 83.7407 235.488 82.3961 235.488C81.0516 235.488 79.7071 234.886 78.8481 233.682C70.5569 222.17 62.1536 207.271 56.6635 189.288C54.5812 182.482 52.923 175.248 51.8474 167.6C50.9053 161.746 50.4312 155.149 50.4263 147.716C50.4263 89.2525 83.6658 70.517 132.106 70.517C180.482 70.517 213.697 89.2026 213.785 147.483C213.786 147.56 213.786 147.638 213.786 147.716C213.786 147.916 213.785 148.116 213.785 148.316C213.761 155.091 213.343 161.165 212.53 166.609C208.736 194.921 196.936 217.622 185.364 233.681C183.609 236.126 179.949 236.089 178.231 233.606L162.731 211.108C162.729 211.105 162.727 211.101 162.725 211.097Z" fill="#0096FA"/>
<path d="M57.8584 193.05C63.61 210.393 72.1626 224.388 78.8479 233.681C80.6032 236.126 84.2633 236.088 85.9813 233.605L101.481 211.108C80.2297 209.227 64.3569 203.019 57.8584 193.05Z" fill="url(#paint0_linear_19604_9888)"/>
<path d="M206.232 193.05C200.48 210.393 191.928 224.388 185.242 233.681C183.487 236.126 179.827 236.088 178.109 233.605L162.61 211.108C183.861 209.227 199.733 203.019 206.232 193.05Z" fill="url(#paint1_linear_19604_9888)"/>
<path d="M112.402 181.5C112.402 183.819 110.522 185.699 108.202 185.699C105.883 185.699 104.003 183.819 104.003 181.5C104.003 179.181 105.883 177.301 108.202 177.301C110.522 177.301 112.402 179.181 112.402 181.5Z" fill="black"/>
<path d="M160.094 182.4H151.695C151.695 180.081 153.575 178.201 155.895 178.201C158.214 178.201 160.094 180.081 160.094 182.4Z" fill="black"/>
<g filter="url(#filter0_d_19604_9888)">
<path d="M202.603 78.9611C202.847 77.9366 204.305 77.9366 204.549 78.9611L208.243 94.4726C208.33 94.8397 208.617 95.1263 208.984 95.2137L224.495 98.9075C225.52 99.1515 225.52 100.609 224.495 100.853L208.984 104.547C208.617 104.634 208.33 104.921 208.243 105.288L204.549 120.8C204.305 121.824 202.847 121.824 202.603 120.8L198.91 105.288C198.822 104.921 198.535 104.634 198.168 104.547L182.657 100.853C181.632 100.609 181.632 99.1515 182.657 98.9075L198.168 95.2137C198.535 95.1263 198.822 94.8397 198.91 94.4726L202.603 78.9611Z" fill="#80E3EB"/>
</g>
<g filter="url(#filter1_d_19604_9888)">
<path d="M172.038 46.836C172.282 45.8115 173.74 45.8115 173.984 46.836L177.678 62.3475C177.765 62.7146 178.052 63.0012 178.419 63.0886L193.93 66.7824C194.955 67.0264 194.955 68.4841 193.93 68.728L178.419 72.4218C178.052 72.5093 177.765 72.7959 177.678 73.163L173.984 88.6745C173.74 89.699 172.282 89.699 172.038 88.6745L168.345 73.163C168.257 72.7959 167.971 72.5093 167.603 72.4218L152.092 68.728C151.067 68.4841 151.067 67.0264 152.092 66.7824L167.603 63.0886C167.971 63.0012 168.257 62.7146 168.345 62.3475L172.038 46.836Z" fill="#80E3EB"/>
</g>
<g filter="url(#filter2_d_19604_9888)">
<path d="M211.461 43.5933C211.705 42.5688 213.163 42.5688 213.407 43.5933L215.871 53.9412C215.958 54.3083 216.245 54.5949 216.612 54.6824L226.96 57.1466C227.984 57.3905 227.984 58.8482 226.96 59.0921L216.612 61.5563C216.245 61.6438 215.958 61.9304 215.871 62.2975L213.407 72.6454C213.163 73.6699 211.705 73.6699 211.461 72.6454L208.997 62.2975C208.91 61.9304 208.623 61.6438 208.256 61.5563L197.908 59.0921C196.883 58.8482 196.883 57.3905 197.908 57.1466L208.256 54.6824C208.623 54.5949 208.91 54.3083 208.997 53.9412L211.461 43.5933Z" fill="#80E3EB"/>
</g>
<path fill-rule="evenodd" clip-rule="evenodd" d="M53.3212 105.67C53.3631 105.091 53.8659 104.656 54.4442 104.698C55.3316 104.763 56.2586 104.835 57.2235 104.916C57.8013 104.964 58.2305 105.472 58.1821 106.05C58.1338 106.627 57.6261 107.057 57.0483 107.008C56.0908 106.928 55.1717 106.856 54.2924 106.793C53.7141 106.751 53.2792 106.248 53.3212 105.67ZM65.7691 106.803C65.8339 106.227 66.3536 105.813 66.9298 105.877C68.6999 106.077 70.5451 106.296 72.46 106.536C73.0353 106.608 73.4432 107.133 73.3711 107.709C73.2989 108.284 72.774 108.692 72.1987 108.62C70.2924 108.381 68.456 108.162 66.695 107.964C66.1187 107.899 65.7042 107.38 65.7691 106.803ZM80.9343 108.734C81.0176 108.16 81.5503 107.762 82.1241 107.846C83.921 108.106 85.7618 108.383 87.6432 108.675C88.2162 108.765 88.6085 109.301 88.5194 109.874C88.4303 110.447 87.8936 110.839 87.3206 110.75C85.4462 110.459 83.6124 110.183 81.8225 109.924C81.2487 109.84 80.851 109.308 80.9343 108.734ZM96.0545 111.112C96.1532 110.54 96.6964 110.157 97.2678 110.256C99.0706 110.567 100.902 110.892 102.759 111.231C103.33 111.335 103.708 111.882 103.604 112.452C103.5 113.023 102.953 113.401 102.383 113.297C100.532 112.959 98.7067 112.635 96.9103 112.325C96.3389 112.226 95.9557 111.683 96.0545 111.112ZM111.097 113.882C111.211 113.313 111.763 112.944 112.332 113.057C114.134 113.416 115.955 113.787 117.793 114.171C118.361 114.29 118.725 114.846 118.606 115.414C118.488 115.981 117.931 116.345 117.364 116.227C115.532 115.844 113.717 115.474 111.922 115.117C111.353 115.003 110.984 114.451 111.097 113.882ZM126.065 117.035C126.193 116.469 126.755 116.114 127.32 116.242C129.118 116.648 130.929 117.066 132.751 117.496C133.315 117.629 133.665 118.195 133.532 118.759C133.398 119.324 132.833 119.673 132.269 119.54C130.453 119.111 128.649 118.695 126.858 118.29C126.292 118.162 125.937 117.6 126.065 117.035ZM140.954 120.578C141.096 120.016 141.668 119.676 142.23 119.819C144.021 120.275 145.82 120.742 147.626 121.221C148.186 121.369 148.52 121.944 148.372 122.504C148.223 123.065 147.648 123.399 147.088 123.25C145.289 122.773 143.497 122.308 141.712 121.854C141.15 121.712 140.811 121.14 140.954 120.578ZM155.728 124.527C155.887 123.969 156.468 123.646 157.026 123.805C158.807 124.312 160.591 124.832 162.378 125.362C162.934 125.527 163.251 126.112 163.086 126.668C162.921 127.223 162.336 127.54 161.78 127.375C160.001 126.847 158.224 126.33 156.45 125.824C155.892 125.665 155.569 125.085 155.728 124.527ZM170.385 128.915C170.562 128.362 171.152 128.058 171.705 128.234C173.472 128.798 175.24 129.374 177.006 129.962C177.557 130.145 177.854 130.739 177.671 131.289C177.488 131.839 176.894 132.137 176.344 131.954C174.586 131.369 172.826 130.796 171.066 130.234C170.514 130.058 170.209 129.467 170.385 128.915ZM184.887 133.78C185.083 133.234 185.684 132.95 186.23 133.145C187.98 133.772 189.726 134.41 191.468 135.061C192.011 135.264 192.287 135.869 192.084 136.412C191.881 136.955 191.276 137.231 190.733 137.028C189.001 136.381 187.263 135.745 185.522 135.122C184.976 134.927 184.692 134.326 184.887 133.78ZM199.201 139.174C199.418 138.636 200.03 138.376 200.567 138.593C202.294 139.289 204.013 139.998 205.725 140.72C206.259 140.945 206.509 141.561 206.284 142.095C206.059 142.63 205.443 142.88 204.909 142.655C203.208 141.938 201.499 141.233 199.782 140.541C199.244 140.324 198.984 139.712 199.201 139.174ZM213.278 145.166C213.519 144.638 214.142 144.406 214.669 144.647C215.515 145.034 216.358 145.424 217.198 145.817C217.723 146.063 217.949 146.688 217.704 147.213C217.458 147.739 216.833 147.965 216.308 147.719C215.473 147.328 214.636 146.941 213.796 146.557C213.268 146.316 213.036 145.693 213.278 145.166Z" fill="#80E3EB"/>
<path fill-rule="evenodd" clip-rule="evenodd" d="M243.295 164.899C243.666 164.453 244.328 164.393 244.773 164.764C245.191 165.113 245.732 165.583 246.341 166.138C246.769 166.529 246.8 167.193 246.409 167.621C246.018 168.05 245.354 168.08 244.926 167.689C244.337 167.152 243.82 166.703 243.429 166.377C242.984 166.006 242.923 165.344 243.295 164.899ZM249.916 171.239C250.367 170.873 251.028 170.942 251.393 171.393C251.856 171.964 252.288 172.54 252.666 173.107C252.988 173.59 252.858 174.242 252.375 174.563C251.893 174.885 251.241 174.754 250.919 174.272C250.586 173.772 250.194 173.248 249.762 172.715C249.397 172.265 249.466 171.604 249.916 171.239Z" fill="#80E3EB"/>
<defs>
<filter id="filter0_d_19604_9888" x="176.889" y="74.1927" width="53.375" height="53.3752" filterUnits="userSpaceOnUse" color-interpolation-filters="sRGB">
<feFlood flood-opacity="0" result="BackgroundImageFix"/>
<feColorMatrix in="SourceAlpha" type="matrix" values="0 0 0 0 0 0 0 0 0 0 0 0 0 0 0 0 0 0 127 0" result="hardAlpha"/>
<feOffset dy="1"/>
<feGaussianBlur stdDeviation="2.5"/>
<feComposite in2="hardAlpha" operator="out"/>
<feColorMatrix type="matrix" values="0 0 0 0 0.501961 0 0 0 0 0.890196 0 0 0 0 0.921569 0 0 0 0.4 0"/>
<feBlend mode="normal" in2="BackgroundImageFix" result="effect1_dropShadow_19604_9888"/>
<feBlend mode="normal" in="SourceGraphic" in2="effect1_dropShadow_19604_9888" result="shape"/>
</filter>
<filter id="filter1_d_19604_9888" x="146.324" y="42.0676" width="53.375" height="53.3752" filterUnits="userSpaceOnUse" color-interpolation-filters="sRGB">
<feFlood flood-opacity="0" result="BackgroundImageFix"/>
<feColorMatrix in="SourceAlpha" type="matrix" values="0 0 0 0 0 0 0 0 0 0 0 0 0 0 0 0 0 0 127 0" result="hardAlpha"/>
<feOffset dy="1"/>
<feGaussianBlur stdDeviation="2.5"/>
<feComposite in2="hardAlpha" operator="out"/>
<feColorMatrix type="matrix" values="0 0 0 0 0.501961 0 0 0 0 0.890196 0 0 0 0 0.921569 0 0 0 0.4 0"/>
<feBlend mode="normal" in2="BackgroundImageFix" result="effect1_dropShadow_19604_9888"/>
<feBlend mode="normal" in="SourceGraphic" in2="effect1_dropShadow_19604_9888" result="shape"/>
</filter>
<filter id="filter2_d_19604_9888" x="192.14" y="38.8249" width="40.5889" height="40.5889" filterUnits="userSpaceOnUse" color-interpolation-filters="sRGB">
<feFlood flood-opacity="0" result="BackgroundImageFix"/>
<feColorMatrix in="SourceAlpha" type="matrix" values="0 0 0 0 0 0 0 0 0 0 0 0 0 0 0 0 0 0 127 0" result="hardAlpha"/>
<feOffset dy="1"/>
<feGaussianBlur stdDeviation="2.5"/>
<feComposite in2="hardAlpha" operator="out"/>
<feColorMatrix type="matrix" values="0 0 0 0 0.501961 0 0 0 0 0.890196 0 0 0 0 0.921569 0 0 0 0.4 0"/>
<feBlend mode="normal" in2="BackgroundImageFix" result="effect1_dropShadow_19604_9888"/>
<feBlend mode="normal" in="SourceGraphic" in2="effect1_dropShadow_19604_9888" result="shape"/>
</filter>
<linearGradient id="paint0_linear_19604_9888" x1="102.398" y1="207.025" x2="59.8083" y2="216.503" gradientUnits="userSpaceOnUse">
<stop offset="0.0105566" stop-color="#0012FF" stop-opacity="0.2"/>
<stop offset="0.5203" stop-color="#0012FF" stop-opacity="0"/>
</linearGradient>
<linearGradient id="paint1_linear_19604_9888" x1="161.692" y1="207.025" x2="204.282" y2="216.503" gradientUnits="userSpaceOnUse">
<stop offset="0.0105566" stop-color="#0012FF" stop-opacity="0.2"/>
<stop offset="0.5203" stop-color="#0012FF" stop-opacity="0"/>
</linearGradient>
</defs>
</svg>
