<svg width="256" height="275" viewBox="0 0 256 275" fill="none" xmlns="http://www.w3.org/2000/svg">
<path d="M182.355 6.08337C163.086 2.2608 143.485 0.363776 123.841 0.420294C88.5887 0.420294 59.1407 6.62136 40.7216 17.9192C3.47268 40.883 -0.732155 89.0758 0.0889906 115.777C0.938452 143.385 7.33773 181.837 32.6517 208.156C52.9963 229.265 98.9521 240.719 131.954 240.719C134.417 240.706 136.858 241.187 139.132 242.135C141.415 243.06 143.493 244.426 145.248 246.155C146.998 247.888 148.39 249.949 149.342 252.221C150.294 254.492 150.789 256.93 150.798 259.393V272.007C150.796 272.32 150.862 272.63 150.992 272.914C151.121 273.199 151.311 273.453 151.548 273.657C151.785 273.862 152.063 274.012 152.364 274.099C152.664 274.186 152.98 274.206 153.289 274.159C153.701 274.106 154.086 273.928 154.394 273.65C165.04 264.39 176.338 254.338 187.494 244.046C190.213 241.625 193.016 238.949 195.819 236.387C209.184 224.324 223.016 211.596 232.629 197.977C243.828 182.106 251.034 162.313 254.361 139.166C257.162 117.353 256.368 95.2282 252.011 73.6722C244.847 37.9806 220.128 14.0117 182.355 6.08337Z" fill="#00C6D7"/>
<path opacity="0.1" d="M134.909 32.1661C152.393 38.1407 180.072 38.9052 201.45 52.5957C209.378 57.5509 220.732 60.3541 223.847 55.4272C226.962 50.5004 226.367 42.6853 215.636 34.5305C203.347 25.2855 191.299 18.1076 147.24 13.4072C128.382 11.2977 121.671 27.6498 134.909 32.1661Z" fill="white"/>
<path opacity="0.1" d="M228.504 83.1337C230.371 83.1337 232.197 82.5798 233.75 81.5422C235.303 80.5046 236.513 79.0298 237.228 77.3042C237.943 75.5787 238.13 73.68 237.765 71.8482C237.401 70.0164 236.502 68.3338 235.181 67.0132C233.86 65.6925 232.178 64.7931 230.346 64.4288C228.514 64.0644 226.615 64.2514 224.89 64.9661C223.164 65.6809 221.69 66.8912 220.652 68.4441C219.614 69.9971 219.061 71.8228 219.061 73.6905C219.061 76.195 220.055 78.5969 221.826 80.3678C223.597 82.1388 225.999 83.1337 228.504 83.1337Z" fill="white"/>
<path opacity="0.25" d="M254.149 126.594C251.581 145.189 244.082 162.758 232.431 177.477C222.775 189.27 209.014 200.129 195.621 210.705C192.789 212.927 189.958 215.122 187.296 217.316C176.154 226.278 172.161 229.081 161.501 237.137C161.196 237.362 160.841 237.508 160.467 237.562C160.099 237.605 159.725 237.562 159.377 237.434C159.024 237.299 158.712 237.075 158.471 236.783C158.233 236.496 158.068 236.156 157.99 235.792L156.418 225.528C156.418 216.594 142.26 214.669 131.911 214.64C98.9237 214.64 52.9678 204.73 32.6091 186.495C7.19601 163.659 0.853368 130.402 0.00390625 106.603V115.296C0.853368 142.903 7.23849 181.356 32.5666 207.661C52.9254 228.784 98.8812 240.223 131.869 240.223C134.332 240.205 136.776 240.673 139.058 241.601C141.341 242.528 143.418 243.898 145.17 245.63C146.922 247.362 148.315 249.424 149.268 251.696C150.222 253.967 150.717 256.405 150.727 258.869V271.484C150.725 271.902 150.845 272.311 151.071 272.663C151.297 273.015 151.62 273.294 152.001 273.466C152.38 273.636 152.8 273.695 153.211 273.635C153.623 273.575 154.008 273.398 154.323 273.126C164.969 263.853 176.267 253.815 187.409 243.508C190.142 241.101 192.945 238.411 195.748 235.863C209.113 223.786 222.945 211.073 232.558 197.453C243.757 181.568 250.963 161.776 254.276 138.628C255.608 128.672 256.143 118.626 255.876 108.585C255.679 114.618 255.102 120.633 254.149 126.594Z" fill="#2D91AF"/>
<path d="M75.804 117.929C77.7472 117.929 79.6469 117.353 81.2627 116.273C82.8785 115.194 84.1378 113.659 84.8815 111.864C85.6251 110.068 85.8197 108.093 85.4406 106.187C85.0615 104.281 84.1257 102.53 82.7516 101.156C81.3775 99.7819 79.6268 98.8461 77.7208 98.467C75.8149 98.0879 73.8393 98.2825 72.0439 99.0261C70.2486 99.7698 68.714 101.029 67.6344 102.645C66.5548 104.261 65.9785 106.16 65.9785 108.104C65.9785 110.71 67.0137 113.209 68.8563 115.051C70.6989 116.894 73.1981 117.929 75.804 117.929Z" fill="#167491"/>
<path d="M179.282 117.929C181.226 117.932 183.127 117.358 184.745 116.28C186.362 115.202 187.624 113.669 188.37 111.873C189.115 110.078 189.312 108.102 188.935 106.195C188.557 104.289 187.622 102.537 186.249 101.161C184.875 99.7855 183.125 98.8483 181.218 98.468C179.312 98.0878 177.336 98.2815 175.539 99.0248C173.743 99.768 172.208 101.027 171.128 102.643C170.047 104.26 169.471 106.16 169.471 108.104C169.471 110.707 170.504 113.204 172.344 115.046C174.183 116.888 176.679 117.925 179.282 117.929Z" fill="#167491"/>
<path d="M144.158 136.334H144.073C142.406 136.365 140.759 136.706 139.217 137.34C137.748 138.006 136.328 138.777 134.969 139.647C133.725 140.433 132.435 141.142 131.104 141.771C130.394 142.06 129.66 142.287 128.91 142.45C128.308 142.296 127.717 142.102 127.14 141.87C125.778 141.258 124.454 140.563 123.176 139.789C121.823 138.91 120.402 138.139 118.929 137.481C117.386 136.834 115.732 136.493 114.059 136.476C112.188 136.495 110.341 136.885 108.622 137.623C105.473 138.909 102.884 141.272 101.317 144.291C99.7938 147.27 99.0579 150.589 99.1789 153.932C99.2808 157.483 100.227 160.958 101.94 164.069C103.642 167.091 106.076 169.637 109.018 171.474C111.924 173.267 115.127 174.528 118.476 175.197C121.576 175.851 124.737 176.169 127.905 176.146H129.066C129.23 176.142 129.392 176.113 129.547 176.061H130.397C133.54 176.08 136.677 175.767 139.755 175.126C143.102 174.454 146.304 173.193 149.212 171.403C152.153 169.565 154.587 167.019 156.291 163.998C157.989 160.884 158.916 157.408 158.995 153.862C159.125 150.514 158.394 147.19 156.871 144.206C156.109 142.773 155.119 141.472 153.941 140.355C152.664 139.157 151.182 138.198 149.566 137.524C147.873 136.781 146.049 136.386 144.2 136.363" fill="#6E73C9"/>
<path d="M147.908 137.75C148.739 138.335 149.503 139.009 150.188 139.76C151.158 140.863 151.99 142.08 152.665 143.385C153.351 144.742 153.896 146.165 154.293 147.632C155.091 150.521 155.265 153.547 154.803 156.509C154.512 158.291 153.978 160.025 153.217 161.662C152.462 163.274 151.511 164.786 150.386 166.164C148.081 168.951 145.177 171.181 141.891 172.691C140.256 173.449 138.542 174.024 136.78 174.404C135.888 174.588 134.982 174.73 134.076 174.829C133.17 174.928 132.335 175.027 131.457 175.084C127.718 175.305 123.966 175.062 120.287 174.362C118.414 174.025 116.569 173.552 114.765 172.946C113.019 172.358 111.32 171.639 109.683 170.794C108.072 169.956 106.537 168.98 105.095 167.878C104.6 167.495 104.119 167.099 103.68 166.702C104.378 167.6 105.155 168.434 106.002 169.194C106.071 169.318 106.162 169.428 106.271 169.52C107.782 170.83 109.424 171.983 111.169 172.96C112.973 173.936 114.87 174.728 116.832 175.325C118.851 175.941 120.922 176.373 123.019 176.613C125.09 177.018 127.195 177.218 129.305 177.207C131.923 177.19 134.533 176.939 137.106 176.457C139.464 176.02 141.774 175.352 144.001 174.461C146.2 173.616 148.265 172.458 150.131 171.021L150.287 170.879C150.867 170.468 151.49 169.973 152.113 169.463C152.224 169.357 152.315 169.233 152.382 169.095C153.98 167.651 155.329 165.953 156.375 164.069C158.071 160.943 159.002 157.459 159.093 153.904C159.214 150.554 158.473 147.229 156.941 144.248C156.186 142.81 155.201 141.504 154.024 140.383C152.744 139.183 151.257 138.224 149.636 137.552C148.317 136.975 146.918 136.603 145.487 136.448C146.384 136.811 147.231 137.286 148.007 137.863" fill="#6568B9"/>
<path d="M126.8 160.303C124.954 160.298 123.12 160.585 121.364 161.152H121.194H121.038C118.267 162.092 115.815 163.789 113.959 166.051C112.634 167.711 111.696 169.646 111.212 171.714C110.665 174.093 110.758 176.575 111.481 178.906C112.119 180.886 113.15 182.717 114.512 184.288C115.875 185.86 117.541 187.14 119.41 188.052C123.394 190.064 127.991 190.494 132.279 189.256C134.391 188.663 136.353 187.627 138.033 186.215C139.712 184.804 141.072 183.051 142.02 181.072C143.035 178.859 143.446 176.417 143.209 173.994C142.941 171.438 142.009 168.998 140.505 166.915C138.906 164.788 136.831 163.066 134.446 161.889C132.061 160.711 129.432 160.109 126.772 160.133L126.8 160.303ZM127.196 184.329C126.071 184.328 124.951 184.171 123.869 183.861C122.873 183.578 121.92 183.158 121.038 182.616C120.156 182.069 119.356 181.402 118.659 180.633C117.988 179.876 117.435 179.021 117.017 178.099C116.918 177.859 116.819 177.632 116.734 177.391V177.221C116.734 176.995 116.607 176.768 116.55 176.556C116.507 176.374 116.474 176.19 116.451 176.004C116.38 175.64 116.338 175.27 116.323 174.9C116.267 173.946 116.368 172.989 116.621 172.068C116.734 171.686 116.819 171.431 116.918 171.176C117.038 170.876 117.175 170.583 117.329 170.298C117.361 170.225 117.399 170.154 117.442 170.086L117.711 169.633C117.863 169.397 118.029 169.171 118.206 168.953C118.393 168.696 118.602 168.454 118.829 168.231L118.999 168.061C119.282 167.757 119.59 167.478 119.919 167.226C120.317 166.904 120.744 166.62 121.194 166.377C121.854 165.993 122.557 165.689 123.289 165.471C123.56 165.366 123.839 165.286 124.124 165.23L124.676 165.117H125.214C125.721 165.043 126.232 165.005 126.743 165.003H126.97C127.544 165.019 128.116 165.071 128.683 165.159C129.929 165.353 131.134 165.75 132.251 166.334C132.867 166.671 133.455 167.06 134.006 167.495C134.458 167.862 134.88 168.264 135.266 168.699C136.108 169.642 136.762 170.738 137.192 171.926C137.319 172.323 137.404 172.606 137.475 172.889C137.546 173.172 137.574 173.47 137.602 173.767C137.657 174.266 137.657 174.769 137.602 175.268C137.566 176.238 137.365 177.196 137.008 178.099C136.872 178.466 136.706 178.821 136.512 179.161C136.371 179.43 136.201 179.671 136.045 179.911C135.779 180.308 135.481 180.683 135.153 181.03C134.482 181.747 133.709 182.363 132.86 182.856C131.187 183.857 129.286 184.413 127.338 184.47L127.196 184.329Z" fill="#FEFEFE"/>
<path d="M127.72 152.389C125.517 152.391 123.397 153.237 121.796 154.751C120.195 156.266 119.233 158.335 119.109 160.536C118.984 162.736 119.705 164.901 121.124 166.587C122.544 168.273 124.554 169.353 126.744 169.605C127.069 169.605 127.409 169.605 127.735 169.605C129.961 169.643 132.116 168.819 133.748 167.304C135.381 165.79 136.364 163.703 136.492 161.48C136.62 159.257 135.883 157.07 134.435 155.378C132.988 153.687 130.942 152.62 128.726 152.403C128.391 152.382 128.055 152.382 127.72 152.403" fill="#F6A721"/>
<g opacity="0.3" filter="url(#filter0_f_10339_5011)">
<path d="M84.1992 156.792C84.1992 165.683 71.6555 172.875 56.167 172.875C40.6785 172.875 28.1348 165.683 28.1348 156.792C28.1348 147.901 40.6926 140.695 56.167 140.695C71.6413 140.695 84.1992 147.901 84.1992 156.792Z" fill="#167491"/>
</g>
<g opacity="0.3" filter="url(#filter1_f_10339_5011)">
<path d="M236.749 156.792C236.749 165.683 224.191 172.875 208.717 172.875C193.242 172.875 180.685 165.683 180.685 156.792C180.685 147.901 193.228 140.695 208.717 140.695C224.205 140.695 236.749 147.901 236.749 156.792Z" fill="#167491"/>
</g>
<path d="M132.776 1.04346C143.144 3.66497 152.103 10.1805 157.792 19.2361C160.706 23.8798 162.74 29.0195 163.795 34.399C164.871 39.8585 164.871 45.4756 163.795 50.9352C163.55 52.311 163.228 53.6723 162.832 55.0126C162.487 56.3881 162.042 57.7366 161.502 59.0475L161.119 60.0527L160.638 61.0154L159.675 62.9409C158.996 64.2151 158.16 65.4043 157.396 66.6219C154.007 71.3335 149.586 75.2077 144.47 77.948C139.33 80.7711 133.597 82.3426 127.736 82.5351H125.541C124.819 82.5351 124.125 82.436 123.361 82.3936C122.596 82.3511 121.945 82.2944 121.166 82.167L119.014 81.7706C116.087 81.2036 113.236 80.2961 110.52 79.0665C107.828 77.7242 105.325 76.0344 103.073 74.0405C100.843 71.9997 98.8997 69.666 97.2965 67.1032C94.1575 61.9486 92.5517 56.0065 92.6669 49.9724C92.7296 46.9744 93.2353 44.0022 94.1677 41.1522C95.0512 38.1978 96.4666 35.4294 98.3442 32.9832C102.096 28.0985 107.495 24.7428 113.535 23.54C116.483 22.9413 119.514 22.879 122.483 23.356C125.453 23.8078 128.305 24.8371 130.879 26.3857C133.42 27.9567 135.58 30.0742 137.202 32.5844C138.823 35.0945 139.864 37.9343 140.251 40.8974C140.598 43.761 140.288 46.6659 139.345 49.392C138.48 52.1527 136.844 54.6088 134.63 56.4708C133.561 57.3675 132.369 58.1065 131.091 58.6653C129.266 59.5043 127.281 59.9387 125.272 59.9387C123.263 59.9387 121.278 59.5043 119.453 58.6653C121.829 59.2445 124.317 59.1686 126.654 58.4456C128.99 57.7226 131.086 56.3796 132.719 54.5595C134.224 52.8424 135.232 50.7474 135.636 48.5C136.281 45.281 135.853 41.9392 134.419 38.9861C132.984 36.033 130.622 33.6311 127.693 32.1479C125.76 31.2706 123.692 30.7296 121.577 30.5481C119.461 30.3705 117.331 30.5816 115.291 31.171C111.28 32.3376 107.785 34.834 105.381 38.2499C104.226 39.9489 103.378 41.8367 102.875 43.828C102.31 45.8264 102.038 47.8961 102.068 49.9724C102.109 54.183 103.323 58.2986 105.574 61.8572C107.825 65.4159 111.023 68.2768 114.81 70.1188C116.764 71.0226 118.816 71.6972 120.926 72.1292L122.526 72.4407C123.063 72.5398 123.616 72.5398 124.154 72.6106C124.692 72.6814 125.244 72.7239 125.782 72.738H127.424C129.613 72.7025 131.791 72.4319 133.922 71.931C134.97 71.6054 136.046 71.3506 137.065 70.9541C138.123 70.5854 139.158 70.1552 140.166 69.6658C144.145 67.6904 147.647 64.8741 150.43 61.4119C153.175 57.7871 155.172 53.6533 156.306 49.2504C156.546 48.1036 156.872 46.9852 157.056 45.8384L157.495 42.3556L157.594 38.8445L157.424 35.3051C156.952 30.5632 155.643 25.9425 153.559 21.6571C149.214 12.5957 141.872 5.31364 132.776 1.04346Z" fill="#40D4E1"/>
<defs>
<filter id="filter0_f_10339_5011" x="16.1348" y="128.695" width="80.0645" height="56.1804" filterUnits="userSpaceOnUse" color-interpolation-filters="sRGB">
<feFlood flood-opacity="0" result="BackgroundImageFix"/>
<feBlend mode="normal" in="SourceGraphic" in2="BackgroundImageFix" result="shape"/>
<feGaussianBlur stdDeviation="6" result="effect1_foregroundBlur_10339_5011"/>
</filter>
<filter id="filter1_f_10339_5011" x="168.685" y="128.695" width="80.0645" height="56.1804" filterUnits="userSpaceOnUse" color-interpolation-filters="sRGB">
<feFlood flood-opacity="0" result="BackgroundImageFix"/>
<feBlend mode="normal" in="SourceGraphic" in2="BackgroundImageFix" result="shape"/>
<feGaussianBlur stdDeviation="6" result="effect1_foregroundBlur_10339_5011"/>
</filter>
</defs>
</svg>
