<svg width="302" height="274" viewBox="0 0 302 274" fill="none" xmlns="http://www.w3.org/2000/svg">
<g clip-path="url(#clip0_16654_102255)">
<path d="M255.124 123.355H282.479C286.611 123.355 290.03 119.934 290.03 115.799V84.4352C290.03 80.3008 286.611 76.8794 282.479 76.8794H255.124C250.993 76.8794 247.573 80.3008 247.573 84.4352V115.799C247.573 120.076 250.993 123.355 255.124 123.355Z" fill="#0066FF"/>
<path d="M75.1821 233.273H241.874C260.111 233.273 274.785 218.446 274.785 200.34V77.1643C274.785 58.916 259.968 44.2318 241.874 44.2318H108.236C89.9992 44.2318 75.3246 59.0585 75.3246 77.1643V233.273H75.1821Z" fill="#0035B5"/>
<path d="M261.963 213.029H292.167C297.011 213.029 301 209.037 301 204.19V165.27C301 160.423 297.011 156.431 292.167 156.431H261.963C257.119 156.431 253.129 160.423 253.129 165.27V204.19C253.129 209.037 256.976 213.029 261.963 213.029Z" fill="#0066FF"/>
<path fill-rule="evenodd" clip-rule="evenodd" d="M301 182.557H253.129V169.367H301V182.557Z" fill="#0035B5"/>
<path fill-rule="evenodd" clip-rule="evenodd" d="M243.441 65.2818H215.659V53.9764H243.441C254.539 53.9764 263.622 63.0651 263.622 74.1707V102.113H252.324V74.1707C252.324 69.309 248.299 65.2818 243.441 65.2818Z" fill="#0066FF"/>
<path d="M129.321 18C199.559 18 247.715 44.9448 247.715 129.201C247.715 163.844 240.449 180.952 231.473 206.328C226.344 220.727 214.519 240.972 207.823 252.947C205.971 256.369 201.269 257.081 198.42 254.23C187.877 243.965 178.331 233.843 166.221 220.3C138.296 223.008 124.477 223.864 96.2672 221.725L87.8614 251.379C86.7216 255.513 81.5926 257.081 78.3158 254.373C40.8456 223.008 10.6416 184.088 10.6416 129.201C10.9265 44.9448 59.0821 18 129.321 18Z" fill="#0096FA"/>
<path d="M69.0553 183.518C71.8879 183.518 74.1843 180.901 74.1843 177.673C74.1843 174.444 71.8879 171.827 69.0553 171.827C66.2226 171.827 63.9263 174.444 63.9263 177.673C63.9263 180.901 66.2226 183.518 69.0553 183.518Z" fill="black"/>
<path d="M131.459 183.518C134.291 183.518 136.588 180.901 136.588 177.673C136.588 174.444 134.291 171.827 131.459 171.827C128.626 171.827 126.33 174.444 126.33 177.673C126.33 180.901 128.626 183.518 131.459 183.518Z" fill="black"/>
<path fill-rule="evenodd" clip-rule="evenodd" d="M184.324 172.698C174.237 183.01 167.541 198.966 167.541 221.44H154.36C154.36 196.297 161.911 176.755 174.904 163.472C187.886 150.202 205.649 143.848 224.778 143.848H250.85V157.037H224.778C208.573 157.037 194.423 162.374 184.324 172.698Z" fill="#0035B5"/>
<path fill-rule="evenodd" clip-rule="evenodd" d="M13.6021 149.222C13.6025 149.225 13.6031 149.228 13.6035 149.231L13.6021 149.222ZM1.12746 151.088C0.170958 144.687 4.70421 138.821 11.1543 138.176L12.4093 150.735C13.1588 150.66 13.702 149.929 13.6035 149.231C18.6097 182.994 30.8755 199.571 46.7357 208.573C63.2709 217.958 84.7428 219.827 110.195 221.414L109.41 234.011C84.5696 232.462 60.023 230.625 40.5128 219.552C20.3285 208.096 6.52221 187.465 1.12746 151.088Z" fill="#0035B5"/>
</g>
<defs>
<clipPath id="clip0_16654_102255">
<rect width="300" height="238" fill="white" transform="translate(1 18)"/>
</clipPath>
</defs>
</svg>
