<svg width="275" height="275" viewBox="0 0 275 275" fill="none" xmlns="http://www.w3.org/2000/svg">
<g clip-path="url(#clip0_286_17518)">
<path d="M232.975 111.554H258.015C261.797 111.554 264.927 108.454 264.927 104.709V76.2932C264.927 72.5475 261.797 69.4478 258.015 69.4478H232.975C229.193 69.4478 226.062 72.5475 226.062 76.2932V104.709C226.062 108.583 229.193 111.554 232.975 111.554Z" fill="#0066FF"/>
<path d="M68.2539 211.137H220.846C237.54 211.137 250.974 197.705 250.974 181.301V69.7058C250.974 53.1732 237.41 39.8696 220.846 39.8696H98.5115C81.8177 39.8696 68.3843 53.3024 68.3843 69.7058V211.137H68.2539Z" fill="#0035B5"/>
<path d="M239.234 192.797H266.883C271.318 192.797 274.969 189.18 274.969 184.789V149.528C274.969 145.136 271.318 141.52 266.883 141.52H239.234C234.8 141.52 231.148 145.136 231.148 149.528V184.789C231.148 189.18 234.67 192.797 239.234 192.797Z" fill="#0066FF"/>
<path fill-rule="evenodd" clip-rule="evenodd" d="M274.969 165.189H231.148V153.24H274.969V165.189Z" fill="#0035B5"/>
<path fill-rule="evenodd" clip-rule="evenodd" d="M222.279 58.9402H196.848V48.6978H222.279C232.439 48.6978 240.753 56.9319 240.753 66.9934V92.3089H230.411V66.9934C230.411 62.5888 226.727 58.9402 222.279 58.9402Z" fill="#0066FF"/>
<path d="M117.813 16.104C182.11 16.104 226.192 40.5155 226.192 116.85C226.192 148.236 219.541 163.735 211.324 186.726C206.629 199.771 195.804 218.112 189.674 228.962C187.979 232.061 183.675 232.707 181.067 230.124C171.416 220.825 162.677 211.654 151.592 199.384C126.029 201.838 113.378 202.613 87.5549 200.675L79.8601 227.541C78.8167 231.287 74.1215 232.707 71.1218 230.253C36.8211 201.838 9.17188 166.577 9.17188 116.85C9.43272 40.5155 53.515 16.104 117.813 16.104Z" fill="#0096FA"/>
<path d="M62.6443 166.06C65.2373 166.06 67.3394 163.689 67.3394 160.764C67.3394 157.84 65.2373 155.469 62.6443 155.469C60.0513 155.469 57.9492 157.84 57.9492 160.764C57.9492 163.689 60.0513 166.06 62.6443 166.06Z" fill="black"/>
<path d="M119.769 166.06C122.362 166.06 124.464 163.689 124.464 160.764C124.464 157.84 122.362 155.469 119.769 155.469C117.176 155.469 115.074 157.84 115.074 160.764C115.074 163.689 117.176 166.06 119.769 166.06Z" fill="black"/>
<path fill-rule="evenodd" clip-rule="evenodd" d="M168.164 156.258C158.93 165.6 152.8 180.056 152.8 200.417H140.734C140.734 177.638 147.647 159.933 159.541 147.899C171.425 135.876 187.685 130.12 205.196 130.12H229.063V142.07H205.196C190.362 142.07 177.409 146.905 168.164 156.258Z" fill="#0035B5"/>
<path fill-rule="evenodd" clip-rule="evenodd" d="M11.8818 134.988C11.8823 134.991 11.8827 134.994 11.8832 134.997L11.8818 134.988ZM0.462382 136.68C-0.413215 130.88 3.7366 125.566 9.64107 124.981L10.79 136.359C11.476 136.291 11.9733 135.629 11.8832 134.997C16.4659 165.585 27.6942 180.604 42.2129 188.76C57.3495 197.262 77.0051 198.956 100.304 200.394L99.586 211.806C76.8466 210.403 54.3762 208.738 36.5163 198.706C18.0393 188.327 5.40082 169.636 0.462382 136.68Z" fill="#0035B5"/>
</g>
<defs>
<clipPath id="clip0_286_17518">
<rect width="274.625" height="215.624" fill="white" transform="translate(0.345703 16.104)"/>
</clipPath>
</defs>
</svg>
