<svg width="275" height="275" viewBox="0 0 275 275" fill="none" xmlns="http://www.w3.org/2000/svg">
<g clip-path="url(#clip0_16654_102255)">
<path d="M232.974 111.554H258.015C261.797 111.554 264.927 108.454 264.927 104.708V76.293C264.927 72.5473 261.797 69.4476 258.015 69.4476H232.974C229.192 69.4476 226.062 72.5473 226.062 76.293V104.708C226.062 108.583 229.192 111.554 232.974 111.554Z" fill="#0066FF"/>
<path d="M68.2524 211.137H220.845C237.539 211.137 250.972 197.704 250.972 181.301V69.7057C250.972 53.173 237.408 39.8695 220.845 39.8695H98.5101C81.8162 39.8695 68.3828 53.3022 68.3828 69.7057V211.137H68.2524Z" fill="#0035B5"/>
<path d="M239.234 192.797H266.883C271.318 192.797 274.969 189.18 274.969 184.789V149.528C274.969 145.136 271.318 141.52 266.883 141.52H239.234C234.8 141.52 231.148 145.136 231.148 149.528V184.789C231.148 189.18 234.67 192.797 239.234 192.797Z" fill="#0066FF"/>
<path fill-rule="evenodd" clip-rule="evenodd" d="M274.969 165.189H231.148V153.24H274.969V165.189Z" fill="#0035B5"/>
<path fill-rule="evenodd" clip-rule="evenodd" d="M222.279 58.9404H196.847V48.6979H222.279C232.438 48.6979 240.753 56.9321 240.753 66.9935V92.3091H230.411V66.9935C230.411 62.5889 226.726 58.9404 222.279 58.9404Z" fill="#0066FF"/>
<path d="M117.812 16.1039C182.11 16.1039 226.192 40.5154 226.192 116.85C226.192 148.236 219.54 163.735 211.324 186.726C206.629 199.771 195.804 218.112 189.674 228.962C187.979 232.061 183.675 232.707 181.066 230.124C171.415 220.824 162.677 211.654 151.591 199.384C126.029 201.838 113.378 202.613 87.5544 200.675L79.8596 227.541C78.8162 231.286 74.121 232.707 71.1213 230.253C36.8206 201.838 9.17139 166.577 9.17139 116.85C9.43223 40.5154 53.5145 16.1039 117.812 16.1039Z" fill="#0096FA"/>
<path d="M62.6438 166.06C65.2369 166.06 67.3389 163.689 67.3389 160.764C67.3389 157.84 65.2369 155.469 62.6438 155.469C60.0508 155.469 57.9487 157.84 57.9487 160.764C57.9487 163.689 60.0508 166.06 62.6438 166.06Z" fill="black"/>
<path d="M119.769 166.06C122.362 166.06 124.464 163.689 124.464 160.764C124.464 157.84 122.362 155.469 119.769 155.469C117.176 155.469 115.074 157.84 115.074 160.764C115.074 163.689 117.176 166.06 119.769 166.06Z" fill="black"/>
<path fill-rule="evenodd" clip-rule="evenodd" d="M168.162 156.258C158.929 165.6 152.799 180.056 152.799 200.417H140.733C140.733 177.638 147.645 159.933 159.54 147.899C171.423 135.876 187.684 130.12 205.195 130.12H229.062V142.069H205.195C190.361 142.069 177.407 146.904 168.162 156.258Z" fill="#0035B5"/>
<path fill-rule="evenodd" clip-rule="evenodd" d="M11.8813 134.988C11.8818 134.991 11.8822 134.994 11.8827 134.997L11.8813 134.988ZM0.461894 136.68C-0.413703 130.88 3.73611 125.566 9.64058 124.981L10.7895 136.359C11.4755 136.291 11.9728 135.629 11.8827 134.997C16.4654 165.585 27.6937 180.604 42.2124 188.76C57.349 197.262 77.0046 198.955 100.304 200.394L99.5855 211.806C76.8461 210.403 54.3758 208.738 36.5158 198.706C18.0388 188.327 5.40033 169.636 0.461894 136.68Z" fill="#0035B5"/>
</g>
<defs>
<clipPath id="clip0_16654_102255">
<rect width="274.625" height="215.624" fill="white" transform="translate(0.345215 16.1039)"/>
</clipPath>
</defs>
</svg>
