<svg width="275" height="276" viewBox="0 0 275 276" fill="none" xmlns="http://www.w3.org/2000/svg">
<path d="M168.701 243.187C238.222 243.187 273.287 232.02 273.287 153.185C273.287 71.9573 230.673 46.0334 168.701 46.0334C106.729 46.0334 64.1157 72.0902 64.1157 153.185C64.1157 232.02 99.1805 243.187 168.701 243.187Z" fill="#0096FA"/>
<path d="M64.1157 153.185C64.1157 174.323 67.1595 193.599 72.0296 210.882C79.0913 235.875 89.8056 256.614 100.52 272.567C101.616 274.295 103.32 275.093 105.025 275.093C106.729 275.093 108.434 274.163 109.651 272.434L129.497 241.193C141.429 219.523 132.541 187.085 117.93 162.092C96.8672 126.198 64.1157 105.459 64.1157 153.185Z" fill="#0096FA"/>
<path d="M273.409 153.185C273.409 174.323 270.365 193.599 265.495 210.882C258.433 235.875 247.719 256.614 237.005 272.567C235.909 274.295 234.204 275.093 232.5 275.093C230.795 275.093 229.091 274.163 227.873 272.434L208.028 241.193C196.096 219.523 204.984 187.085 219.594 162.092C240.536 126.198 273.409 105.459 273.409 153.185Z" fill="#0096FA"/>
<path d="M168.701 45.9005C230.673 45.9005 273.287 71.9571 273.287 153.052C273.287 204.767 254.902 245.447 236.883 272.434C234.569 275.891 229.943 275.758 227.751 272.301L208.027 241.193C181.851 243.852 155.674 243.852 129.497 241.193L109.651 272.434C107.46 275.891 102.833 275.891 100.52 272.567C82.5004 245.58 64.1157 204.9 64.1157 153.185C64.1157 71.9573 106.729 45.9005 168.701 45.9005Z" fill="#0096FA"/>
<path d="M263.912 216.067C256.485 240.129 245.649 259.539 237.005 272.434C234.692 275.891 230.065 275.758 227.874 272.301L208.028 241.193C235.179 238.534 255.633 230.026 263.912 216.067Z" fill="url(#paint0_linear_16654_102259)" stroke="url(#paint1_linear_16654_102259)" stroke-width="0.4117" stroke-miterlimit="10"/>
<path d="M73.6123 216.067C81.0392 240.129 91.8752 259.539 100.52 272.434C102.833 275.891 107.46 275.758 109.651 272.301L129.497 241.06C102.224 238.534 81.8915 230.026 73.6123 216.067Z" fill="url(#paint2_linear_16654_102259)"/>
<path fill-rule="evenodd" clip-rule="evenodd" d="M143.499 199.981C143.499 203.138 141.155 205.697 138.263 205.697C135.372 205.697 133.028 203.138 133.028 199.981C133.028 196.824 135.372 194.264 138.263 194.264C141.155 194.264 143.499 196.824 143.499 199.981ZM204.131 199.981C204.131 203.138 201.787 205.697 198.896 205.697C196.005 205.697 193.661 203.138 193.661 199.981C193.661 196.824 196.005 194.264 198.896 194.264C201.787 194.264 204.131 196.824 204.131 199.981Z" fill="black"/>
<path d="M180.511 98.8116H245.892V69.2983H180.511V98.8116Z" fill="url(#paint3_linear_16654_102259)"/>
<path fill-rule="evenodd" clip-rule="evenodd" d="M168.198 29.9474C161.387 29.9379 155.917 23.9591 155.917 16.5203C155.917 9.07551 161.396 3.09314 168.214 3.09314C175.032 3.09314 180.511 9.07551 180.511 16.5203C180.511 23.9591 175.041 29.9379 168.231 29.9474H185.99C232.743 29.9474 270.608 71.2925 270.73 122.342L174.667 122.342H3.36133V104.661H67.488C75.038 62.0771 109.346 29.9474 150.56 29.9474H168.198ZM209.732 73.4197H219.472C235.3 73.4197 248.084 87.3786 248.084 104.794H180.998C180.998 87.5115 193.904 73.4197 209.732 73.4197Z" fill="#0035B5"/>
<defs>
<linearGradient id="paint0_linear_16654_102259" x1="206.819" y1="235.534" x2="261.772" y2="246.816" gradientUnits="userSpaceOnUse">
<stop offset="0.0105566" stop-color="#0035B5" stop-opacity="0.2"/>
<stop offset="0.5203" stop-color="#0035B5" stop-opacity="0"/>
</linearGradient>
<linearGradient id="paint1_linear_16654_102259" x1="207.545" y1="244.752" x2="264.734" y2="244.752" gradientUnits="userSpaceOnUse">
<stop offset="0.0119827" stop-color="#0035B5" stop-opacity="0.2"/>
<stop offset="0.2284" stop-color="#001D62" stop-opacity="0.1149"/>
<stop offset="0.4279" stop-color="#00081C" stop-opacity="0.0363521"/>
<stop offset="0.5203" stop-opacity="0"/>
</linearGradient>
<linearGradient id="paint2_linear_16654_102259" x1="130.663" y1="235.534" x2="75.7103" y2="246.816" gradientUnits="userSpaceOnUse">
<stop offset="0.0105566" stop-color="#0035B5" stop-opacity="0.2"/>
<stop offset="0.5203" stop-color="#0035B5" stop-opacity="0"/>
</linearGradient>
<linearGradient id="paint3_linear_16654_102259" x1="213.188" y1="91.0806" x2="213.188" y2="69.2757" gradientUnits="userSpaceOnUse">
<stop stop-color="#0035B5" stop-opacity="0"/>
<stop offset="1" stop-color="#0035B5" stop-opacity="0.5"/>
</linearGradient>
</defs>
</svg>
