<svg width="256" height="398" viewBox="0 0 256 398" fill="none" xmlns="http://www.w3.org/2000/svg">
<path d="M132.132 230.864C111.908 235.523 106.201 284.202 110.797 304.317C113.057 313.927 119.085 322.256 127.554 327.47C136.023 332.685 146.239 334.358 155.956 332.123C165.673 329.888 174.093 323.926 179.366 315.55C184.638 307.174 186.331 297.07 184.07 287.46C179.321 267.344 152.356 226.204 132.132 230.864Z" fill="#D4642C"/>
<path d="M114.097 254.469L158.202 243.963C156.945 242.645 155.688 241.405 154.393 240.087L115.849 249.391C115.202 251.019 114.63 252.724 114.097 254.469Z" fill="white"/>
<path d="M169.708 257.279C168.793 255.96 167.878 254.679 166.924 253.51L156.095 270.019L133.941 256.978L119.947 278.349L110.758 272.809C110.567 274.429 110.377 276.05 110.262 277.671L121.358 284.192L135.352 262.82L157.506 275.862L169.708 257.279Z" fill="white"/>
<path d="M109.532 296.656L181.213 279.766C180.679 278.416 180.068 276.989 179.458 275.562L109.303 292.067C109.341 293.494 109.418 295.191 109.532 296.656Z" fill="white"/>
<path d="M178.983 287.068L164.701 308.444L142.395 295.468L128.306 316.581L111.221 306.681C111.925 309.004 112.864 311.252 114.024 313.394L129.688 322.544L143.816 301.281L166.122 314.256L180.212 292.993L185.049 295.806C185.01 293.998 184.856 292.195 184.588 290.406L178.983 287.068Z" fill="white"/>
<path d="M229.486 111.973C211.975 167.856 183.514 208.695 165.812 203.148C148.11 197.602 147.996 147.911 165.469 92.0659C182.942 36.2209 211.25 -4.65611 229.143 0.8904C247.035 6.43691 246.959 56.0896 229.486 111.973Z" fill="#00C6D7"/>
<path d="M218.992 111.837C204.844 157.488 183.204 190.927 170.653 187.047C158.102 183.166 159.433 143.108 173.543 97.6855C187.653 52.2632 212.793 20.6882 221.883 22.5142C230.972 24.3402 233.14 66.4148 218.992 111.837Z" fill="#E9BFD7"/>
<path d="M220.871 22.4599C218.824 22.3132 216.797 22.9382 215.189 24.2114C222.091 32.8164 222.472 70.9676 209.736 111.784C197.762 150.164 180.45 180.319 167.79 186.221C168.339 186.569 168.928 186.85 169.544 187.059C182.128 190.866 203.864 157.284 218.011 111.784C232.158 66.2843 230.061 24.3256 220.871 22.4599Z" fill="#E4ACCB"/>
<path d="M106.799 87.4135C103.398 76.4084 99.3882 65.6001 94.789 55.0381C93.4968 57.1636 92.2045 59.2511 90.7603 61.2627C88.7332 64.0207 86.6049 66.7155 84.3751 69.3471C79.782 74.7598 74.8028 79.8337 69.4764 84.5289C61.0688 91.9864 51.9257 98.5736 42.1875 104.189C42.4916 105.214 42.7956 106.239 43.1377 107.264C60.5448 163.057 88.9359 203.896 106.533 198.355C124.13 192.814 124.358 143.245 106.799 87.4135Z" fill="#00C6D7"/>
<path opacity="0.2" d="M106.799 87.4135C103.398 76.4084 99.3882 65.6001 94.789 55.0381C93.4968 57.1636 92.2045 59.2511 90.7603 61.2627C88.7332 64.0207 86.6049 66.7155 84.3751 69.3471C79.782 74.7598 74.8028 79.8337 69.4764 84.5289C61.0688 91.9864 51.9257 98.5736 42.1875 104.189C42.4916 105.214 42.7956 106.239 43.1377 107.264C60.5448 163.057 88.9359 203.896 106.533 198.355C124.13 192.814 124.358 143.245 106.799 87.4135Z" fill="#233049"/>
<path d="M98.9245 93.0545C95.8487 83.3431 92.142 73.8465 87.8285 64.6262C86.6885 66.1204 85.4725 67.5763 84.2565 69.0322C79.6642 74.4961 74.6858 79.6178 69.3605 84.3574C63.5086 89.5757 57.3131 94.3887 50.8164 98.7631C51.6144 101.637 52.4504 104.587 53.3244 107.499C67.4984 153.244 89.0825 187.151 101.623 183.205C114.163 179.259 112.871 138.8 98.9245 93.0545Z" fill="url(#paint0_linear_10339_5086)"/>
<path d="M98.7725 92.9694C95.7606 83.2927 92.1145 73.8245 87.8578 64.6262C86.7169 66.1079 85.4999 67.5897 84.283 69.0334C79.6771 74.4427 74.6955 79.5211 69.3751 84.2309C63.5277 89.405 57.3264 94.1657 50.8164 98.4785C51.615 101.366 52.4517 104.254 53.3644 107.179C67.5117 152.543 89.1508 186.13 101.663 182.254C114.175 178.379 112.882 138.334 98.7725 92.9694Z" fill="#E9BFD7"/>
<path d="M100.468 96.8134C97.4061 87.133 93.6987 77.6618 89.3705 68.4614C88.2104 69.9075 87.0117 71.3917 85.7356 72.8379C84.4596 74.284 84.1889 74.5884 83.4155 75.4637C86.6979 82.9241 89.589 90.5454 92.0772 98.2976C105.147 139.627 107.545 176.427 98.1482 185.827C99.8249 186.477 101.671 186.571 103.407 186.094C116.168 182.25 114.853 142.253 100.468 96.8134Z" fill="#E4ACCB"/>
<path d="M97.4726 62.6787C98.0003 70.5345 97.8859 78.4204 97.1303 86.2576C93.9737 133.796 76.8976 171.393 59.0989 170.06C41.3002 168.727 28.978 129.34 32.1346 81.9532C32.6777 73.9232 33.6297 65.9262 34.9869 57.9934C36.8505 45.3087 99.3742 38.2617 97.4726 62.6787Z" fill="#00C6D7"/>
<path d="M171.813 174.878C155.793 171.673 139.493 170.071 123.154 170.095C93.8065 170.095 69.2488 175.258 54.0048 184.635C22.9846 203.692 19.5253 243.667 20.2095 265.952C20.8938 288.73 26.1779 320.809 47.3142 342.676C64.2689 360.215 102.588 369.705 129.921 369.743C131.966 369.728 133.994 370.116 135.888 370.885C137.783 371.654 139.507 372.789 140.962 374.224C142.417 375.659 143.574 377.367 144.367 379.249C145.16 381.132 145.573 383.152 145.583 385.194V395.52C145.578 395.866 145.673 396.205 145.858 396.497C146.042 396.789 146.307 397.021 146.621 397.166C146.935 397.311 147.284 397.361 147.626 397.312C147.968 397.262 148.288 397.115 148.548 396.887C157.444 389.294 166.833 380.867 176.109 372.249L183.028 365.909C194.318 356.378 204.574 345.69 213.63 334.02C223.426 319.49 229.592 302.827 231.611 285.427C233.95 267.324 233.308 248.96 229.71 231.064C223.818 201.3 203.252 181.408 171.813 174.878Z" fill="#00C6D7"/>
<path opacity="0.25" d="M231.827 275.642C229.72 291.122 223.507 305.756 213.832 318.023C204.617 328.287 194.353 337.557 183.207 345.682L176.283 351.198C167 358.807 163.652 360.975 154.788 367.671C154.532 367.875 154.227 368.008 153.903 368.057C153.58 368.106 153.249 368.069 152.945 367.949C152.64 367.829 152.372 367.632 152.168 367.376C151.964 367.12 151.831 366.815 151.782 366.492L150.489 357.932C150.489 350.323 138.695 348.877 130.059 348.839C102.591 348.839 64.3565 340.622 47.3888 325.404C26.2362 306.382 20.7578 278.762 20.2633 258.865C20.2443 258.51 20.2443 258.154 20.2633 257.799C20.2633 260.767 20.2633 263.582 20.2633 266.131C20.9481 288.958 26.2362 321.105 47.3888 343.019C64.3565 360.595 102.705 370.106 130.059 370.144C132.106 370.129 134.135 370.518 136.031 371.288C137.927 372.059 139.653 373.196 141.109 374.634C142.565 376.072 143.722 377.784 144.516 379.67C145.31 381.557 145.723 383.581 145.733 385.628V395.976C145.728 396.322 145.824 396.662 146.008 396.955C146.192 397.247 146.458 397.48 146.772 397.625C147.086 397.77 147.435 397.821 147.778 397.771C148.12 397.722 148.441 397.574 148.701 397.346C157.603 389.737 167 381.291 176.283 372.655L183.207 366.302C194.505 356.75 204.77 346.039 213.832 334.344C223.636 319.783 229.807 303.085 231.827 285.648C232.926 277.364 233.371 269.006 233.159 260.653C233.02 265.672 232.575 270.677 231.827 275.642Z" fill="#2D91AF"/>
<path opacity="0.2" d="M137.554 197.199C150.809 201.778 171.639 202.355 187.924 212.897C193.832 216.745 202.504 218.899 204.89 215.052C207.276 211.204 206.784 205.241 198.679 199.008C189.363 191.851 180.236 186.35 146.871 182.695C132.593 181.117 127.518 193.737 137.554 197.199Z" fill="white"/>
<path opacity="0.2" d="M208.539 236.252C212.511 236.252 215.73 233.032 215.73 229.061C215.73 225.089 212.511 221.87 208.539 221.87C204.568 221.87 201.348 225.089 201.348 229.061C201.348 233.032 204.568 236.252 208.539 236.252Z" fill="white"/>
<path d="M129.146 278.671C128.8 277.994 128.227 277.575 127.555 277.467C126.926 277.365 126.32 277.551 125.854 277.844C124.978 278.393 124.116 279.71 124.907 281.087L124.949 281.159C126.3 284.196 128.407 286.849 131.076 288.874C133.807 290.947 137.034 292.293 140.446 292.784L140.467 292.787L140.489 292.789C147.724 293.515 153.865 288.759 157.767 283.551C158.217 282.956 158.355 282.263 158.153 281.609C157.963 280.996 157.514 280.544 157.031 280.27C156.083 279.735 154.583 279.692 153.651 280.921L153.631 280.948L153.612 280.977C152.209 283.117 150.283 284.883 148.008 286.113C145.742 287.339 143.2 287.994 140.611 288.02C135.387 287.734 131.511 283.276 129.146 278.671Z" fill="#167491" stroke="#167491" stroke-width="2" stroke-linecap="round"/>
<path d="M124.934 278.708L124.956 278.721C124.007 281.125 122.443 283.251 120.411 284.894C118.39 286.527 115.976 287.628 113.397 288.09C110.823 288.077 108.294 287.432 106.04 286.215C103.762 284.984 101.841 283.209 100.455 281.056L100.434 281.024L100.411 280.993C99.4742 279.758 97.9671 279.82 97.028 280.361C96.5488 280.637 96.1019 281.093 95.9203 281.71C95.7305 282.355 95.8747 283.03 96.3173 283.604C98.1601 286.427 100.692 288.751 103.681 290.367C106.684 291.99 110.053 292.848 113.48 292.862L113.546 292.862L113.612 292.854C117.047 292.408 120.301 291.078 123.045 288.998C125.779 286.926 127.909 284.181 129.218 281.039C129.904 279.645 129.153 278.353 128.204 277.795C127.72 277.51 127.107 277.357 126.485 277.484C125.831 277.618 125.274 278.042 124.934 278.708Z" fill="#167491" stroke="#167491" stroke-width="2" stroke-linecap="round"/>
<path d="M88.6893 264.057C94.7789 264.057 99.7155 258.906 99.7155 252.551C99.7155 246.197 94.7789 241.046 88.6893 241.046C82.5997 241.046 77.6631 246.197 77.6631 252.551C77.6631 258.906 82.5997 264.057 88.6893 264.057Z" fill="#167491"/>
<path d="M90.6068 251.592C92.4601 251.592 93.9626 250.09 93.9626 248.237C93.9626 246.383 92.4601 244.881 90.6068 244.881C88.7534 244.881 87.251 246.383 87.251 248.237C87.251 250.09 88.7534 251.592 90.6068 251.592Z" fill="white"/>
<path d="M94.4421 255.428C95.2364 255.428 95.8803 254.784 95.8803 253.989C95.8803 253.195 95.2364 252.551 94.4421 252.551C93.6478 252.551 93.0039 253.195 93.0039 253.989C93.0039 254.784 93.6478 255.428 94.4421 255.428Z" fill="white"/>
<path d="M164.434 264.057C170.524 264.057 175.461 258.906 175.461 252.551C175.461 246.197 170.524 241.046 164.434 241.046C158.345 241.046 153.408 246.197 153.408 252.551C153.408 258.906 158.345 264.057 164.434 264.057Z" fill="#167491"/>
<path d="M166.352 251.592C168.205 251.592 169.708 250.09 169.708 248.237C169.708 246.383 168.205 244.881 166.352 244.881C164.499 244.881 162.996 246.383 162.996 248.237C162.996 250.09 164.499 251.592 166.352 251.592Z" fill="white"/>
<path d="M170.667 255.428C171.726 255.428 172.584 254.784 172.584 253.989C172.584 253.195 171.726 252.551 170.667 252.551C169.608 252.551 168.749 253.195 168.749 253.989C168.749 254.784 169.608 255.428 170.667 255.428Z" fill="white"/>
<g filter="url(#filter0_f_10339_5086)">
<path fill-rule="evenodd" clip-rule="evenodd" d="M187.934 289.003C186.036 289.003 184.18 288.44 182.602 287.386C181.024 286.331 179.794 284.833 179.067 283.079C178.341 281.325 178.151 279.396 178.521 277.534C178.892 275.673 179.806 273.963 181.148 272.621C182.49 271.278 184.2 270.364 186.061 269.994C187.923 269.624 189.853 269.814 191.606 270.54C193.36 271.267 194.859 272.497 195.913 274.075C196.968 275.653 197.53 277.508 197.53 279.406C197.53 281.952 196.519 284.393 194.72 286.192C192.92 287.992 190.479 289.003 187.934 289.003Z" fill="#FB5A8B"/>
</g>
<g filter="url(#filter1_f_10339_5086)">
<path fill-rule="evenodd" clip-rule="evenodd" d="M56.5782 289.962C54.6802 289.962 52.8247 289.399 51.2465 288.345C49.6684 287.29 48.4383 285.791 47.712 284.038C46.9856 282.284 46.7956 280.355 47.1659 278.493C47.5361 276.631 48.4501 274.921 49.7923 273.579C51.1344 272.237 52.8444 271.323 54.706 270.953C56.5676 270.583 58.4972 270.773 60.2508 271.499C62.0043 272.225 63.5032 273.455 64.5577 275.034C65.6122 276.612 66.175 278.467 66.175 280.365C66.175 282.91 65.1639 285.351 63.3642 287.151C61.5644 288.951 59.1235 289.962 56.5782 289.962Z" fill="#FB5A8B"/>
</g>
<path d="M191.001 272.44C197.206 261.85 206.879 253.599 218.47 249.011C230.34 244.973 242.841 242.981 255.413 243.126C256.177 243.126 256.215 241.971 255.413 242.008C242.648 241.902 229.958 243.93 217.896 248.005C206.09 252.64 196.235 261.027 189.931 271.807C189.549 272.44 190.504 273.036 190.886 272.44H191.001Z" fill="#F8FBFB"/>
<path d="M192.785 277.317C207.641 263.607 228.062 265.001 246.795 265.698C246.871 265.698 246.945 265.683 247.015 265.654C247.085 265.625 247.149 265.582 247.202 265.528C247.256 265.474 247.298 265.41 247.327 265.34C247.356 265.269 247.371 265.193 247.371 265.117C247.371 265.041 247.356 264.965 247.327 264.895C247.298 264.824 247.256 264.76 247.202 264.706C247.149 264.652 247.085 264.61 247.015 264.58C246.945 264.551 246.871 264.536 246.795 264.536C237.092 263.806 227.345 263.91 217.66 264.846C208.108 265.966 199.13 270.022 191.941 276.465C191.829 276.573 191.764 276.721 191.76 276.877C191.757 277.034 191.815 277.185 191.922 277.298C192.029 277.411 192.176 277.476 192.33 277.48C192.485 277.484 192.635 277.425 192.747 277.317H192.785Z" fill="#F8FBFB"/>
<path d="M194.244 283.436C208.389 283.915 222.874 283.675 236.114 288.938C236.793 289.212 237.133 288.221 236.454 287.947C223.138 282.65 208.54 282.889 194.244 282.274C194.093 282.274 193.95 282.328 193.843 282.424C193.737 282.52 193.678 282.651 193.678 282.787C193.678 282.923 193.737 283.053 193.843 283.149C193.95 283.245 194.093 283.299 194.244 283.299V283.436Z" fill="#F8FBFB"/>
<path d="M63.2235 274.736C57.7897 263.217 48.6801 253.865 37.3501 248.174C25.7065 243.01 13.2525 239.948 0.55656 239.128C-0.166374 239.128 -0.204423 240.201 0.55656 240.278C13.031 241.13 25.269 244.124 36.7413 249.132C47.9033 254.714 56.8713 263.923 62.1962 275.273C62.5386 275.963 63.5279 275.273 63.2235 274.736Z" fill="#F8FBFB"/>
<path d="M61.1601 278.452C54.5585 271.832 46.0391 267.337 36.7439 265.571C27.299 263.918 17.7217 263.09 8.12585 263.098C7.99557 263.131 7.88009 263.205 7.79763 263.308C7.71517 263.412 7.67041 263.539 7.67041 263.67C7.67041 263.801 7.71517 263.929 7.79763 264.032C7.88009 264.136 7.99557 264.21 8.12585 264.242C26.561 264.907 46.7754 265.091 60.3651 279.227C60.8572 279.744 61.7279 278.969 61.1979 278.452H61.1601Z" fill="#F8FBFB"/>
<path d="M58.9479 283.867C44.4734 283.284 29.6926 281.885 15.7542 286.859C15.065 287.092 15.2947 288.258 16.0223 287.986C29.8841 283.089 44.5117 284.488 58.8713 285.032C59.0236 285.032 59.1697 284.971 59.2775 284.862C59.3852 284.752 59.4457 284.604 59.4457 284.45C59.4457 284.295 59.3852 284.147 59.2775 284.037C59.1697 283.928 59.0236 283.867 58.8713 283.867H58.9479Z" fill="#F8FBFB"/>
<g filter="url(#filter2_f_10339_5086)">
<path d="M92.9078 305.448C99.9553 305.448 114.051 309.713 126.706 309.713C145.158 309.713 153.229 306.552 162.095 305.448C176.721 303.62 188.884 317.52 188.884 332.333C188.884 347.109 166.718 362.798 129.548 363.75C98.0987 364.474 66.1572 347.109 66.1572 332.333C66.1772 325.209 69.002 318.382 74.0144 313.344C79.0267 308.307 85.8192 305.468 92.9078 305.448Z" fill="#77D6E1" fill-opacity="0.9"/>
</g>
<defs>
<filter id="filter0_f_10339_5086" x="161.562" y="253.035" width="52.7436" height="52.7438" filterUnits="userSpaceOnUse" color-interpolation-filters="sRGB">
<feFlood flood-opacity="0" result="BackgroundImageFix"/>
<feBlend mode="normal" in="SourceGraphic" in2="BackgroundImageFix" result="shape"/>
<feGaussianBlur stdDeviation="8.38755" result="effect1_foregroundBlur_10339_5086"/>
</filter>
<filter id="filter1_f_10339_5086" x="30.2063" y="253.993" width="52.7436" height="52.7438" filterUnits="userSpaceOnUse" color-interpolation-filters="sRGB">
<feFlood flood-opacity="0" result="BackgroundImageFix"/>
<feBlend mode="normal" in="SourceGraphic" in2="BackgroundImageFix" result="shape"/>
<feGaussianBlur stdDeviation="8.38755" result="effect1_foregroundBlur_10339_5086"/>
</filter>
<filter id="filter2_f_10339_5086" x="56.1572" y="295.285" width="142.727" height="78.4869" filterUnits="userSpaceOnUse" color-interpolation-filters="sRGB">
<feFlood flood-opacity="0" result="BackgroundImageFix"/>
<feBlend mode="normal" in="SourceGraphic" in2="BackgroundImageFix" result="shape"/>
<feGaussianBlur stdDeviation="5" result="effect1_foregroundBlur_10339_5086"/>
</filter>
<linearGradient id="paint0_linear_10339_5086" x1="114.049" y1="119.038" x2="65.9614" y2="135.223" gradientUnits="userSpaceOnUse">
<stop stop-color="#F6E4EB"/>
<stop offset="0.55" stop-color="#E9BDCE"/>
<stop offset="1" stop-color="#EBCBD8"/>
</linearGradient>
</defs>
</svg>
