<svg width="275" height="275" viewBox="0 0 275 275" fill="none" xmlns="http://www.w3.org/2000/svg">
<path d="M135.435 12.0864C208.991 12.0864 259.474 40.6737 259.474 129.972C259.474 186.721 237.659 231.441 216.263 261.16C213.606 264.84 208.013 264.84 205.496 261.019L182.002 226.771C150.958 229.743 119.913 229.743 88.8685 226.771L65.3752 261.019C62.7182 264.84 57.2645 264.84 54.6076 261.16C33.3518 231.441 11.3968 186.721 11.3968 129.972C11.2569 40.6737 61.8792 12.0864 135.435 12.0864Z" fill="#0096FA"/>
<path d="M247.573 199.097C239.053 225.593 226.274 246.988 216.243 261.157C213.633 264.841 208.136 264.841 205.663 261.015L182.578 226.726C214.182 223.892 237.954 214.399 247.573 199.097Z" fill="url(#paint0_linear_289_17411)" stroke="url(#paint1_linear_289_17411)" stroke-width="0.425" stroke-miterlimit="10"/>
<path d="M22.3809 199.097C31.0202 225.593 43.9793 246.988 54.1514 261.157C56.799 264.841 62.3727 264.841 64.8809 261.015L88.2908 226.726C56.2416 223.892 32.135 214.399 22.3809 199.097Z" fill="url(#paint2_linear_289_17411)"/>
<path d="M102.023 188.913C105.562 188.913 108.431 186.426 108.431 183.358C108.431 180.291 105.562 177.804 102.023 177.804C98.4842 177.804 95.6152 180.291 95.6152 183.358C95.6152 186.426 98.4842 188.913 102.023 188.913Z" fill="black"/>
<path d="M173.882 188.913C177.168 188.913 179.832 186.426 179.832 183.358C179.832 180.291 177.168 177.804 173.882 177.804C170.596 177.804 167.932 180.291 167.932 183.358C167.932 186.426 170.596 188.913 173.882 188.913Z" fill="black"/>
<path d="M161.073 12H113.063C59.7804 12 16.627 52.0727 16.627 101.552V104.516H257.509V101.552C257.509 52.0727 214.217 12 161.073 12Z" fill="#0C4EC0"/>
<path d="M259.453 84.5444H14.6853C10.245 84.5444 6.49866 87.7653 6.08239 91.8886L3.02964 129.126C2.61336 133.765 6.63742 137.76 11.6327 137.76H262.367C267.362 137.76 271.247 133.765 270.97 129.126L267.917 91.8886C267.639 87.7653 263.893 84.5444 259.453 84.5444Z" fill="#1968F0"/>
<path fill-rule="evenodd" clip-rule="evenodd" d="M215.258 84.3574L218.172 137.573L210.262 137.946L207.348 84.7309L215.258 84.3574Z" fill="#0C4EC0"/>
<path fill-rule="evenodd" clip-rule="evenodd" d="M66.6499 84.7792L63.7361 137.995L55.8262 137.621L58.74 84.4058L66.6499 84.7792Z" fill="#0C4EC0"/>
<path fill-rule="evenodd" clip-rule="evenodd" d="M141.029 84.5444V137.76H133.109V84.5444H141.029Z" fill="#0C4EC0"/>
<defs>
<linearGradient id="paint0_linear_289_17411" x1="181.151" y1="220.501" x2="244.866" y2="234.353" gradientUnits="userSpaceOnUse">
<stop offset="0.0105566" stop-color="#0035B5" stop-opacity="0.2"/>
<stop offset="0.5203" stop-color="#0035B5" stop-opacity="0"/>
</linearGradient>
<linearGradient id="paint1_linear_289_17411" x1="181.997" y1="230.644" x2="248.63" y2="230.644" gradientUnits="userSpaceOnUse">
<stop offset="0.0119827" stop-color="#0035B5" stop-opacity="0.2"/>
<stop offset="0.2284" stop-color="#001D62" stop-opacity="0.1149"/>
<stop offset="0.4279" stop-color="#00081C" stop-opacity="0.0363521"/>
<stop offset="0.5203" stop-opacity="0"/>
</linearGradient>
<linearGradient id="paint2_linear_289_17411" x1="89.8038" y1="220.501" x2="25.2747" y2="234.728" gradientUnits="userSpaceOnUse">
<stop offset="0.0105566" stop-color="#0035B5" stop-opacity="0.2"/>
<stop offset="0.5203" stop-color="#0035B5" stop-opacity="0"/>
</linearGradient>
</defs>
</svg>
