<svg width="302" height="273" viewBox="0 0 302 273" fill="none" xmlns="http://www.w3.org/2000/svg">
<g clip-path="url(#clip0_16654_102262)">
<path d="M145.5 1C225.853 1 281 31.8786 281 128.335C281 189.633 257.169 237.937 233.797 270.038C230.894 274.012 224.784 274.013 222.034 269.885L196.37 232.892C162.457 236.103 128.544 236.103 94.6305 232.892L68.9664 269.885C66.0639 274.013 60.1063 274.012 57.2038 270.038C33.984 237.937 10.0003 189.633 10.0003 128.335C9.84755 31.8786 65.1473 1 145.5 1Z" fill="#0096FA"/>
<path d="M268 203C258.693 231.62 244.734 254.73 233.776 270.035C230.924 274.014 224.92 274.014 222.218 269.881L197 232.844C231.524 229.783 257.493 219.529 268 203Z" fill="url(#paint0_linear_16654_102262)" stroke="url(#paint1_linear_16654_102262)" stroke-width="0.425" stroke-miterlimit="10"/>
<path d="M22 203C31.4376 231.62 45.5941 254.73 56.7062 270.035C59.5983 274.014 65.6871 274.014 68.427 269.881L94 232.844C58.9895 229.783 32.6554 219.529 22 203Z" fill="url(#paint2_linear_16654_102262)"/>
<path d="M109 192C112.866 192 116 189.314 116 186C116 182.686 112.866 180 109 180C105.134 180 102 182.686 102 186C102 189.314 105.134 192 109 192Z" fill="black"/>
<path d="M187.5 192C191.09 192 194 189.314 194 186C194 182.686 191.09 180 187.5 180C183.91 180 181 182.686 181 186C181 189.314 183.91 192 187.5 192Z" fill="black"/>
<path d="M173.508 0.906738H121.062C62.8562 0.906738 15.7153 44.1914 15.7153 97.6361V100.838H278.855V97.6361C278.855 44.1914 231.563 0.906738 173.508 0.906738Z" fill="#0C4EC0"/>
<path d="M280.977 79.266H13.5931C8.74261 79.266 4.65007 82.745 4.19533 87.1988L0.860499 127.421C0.405764 132.432 4.80165 136.747 10.2585 136.747H284.16C289.617 136.747 293.861 132.432 293.558 127.421L290.223 87.1988C289.92 82.745 285.828 79.266 280.977 79.266Z" fill="#1968F0"/>
<path fill-rule="evenodd" clip-rule="evenodd" d="M232.7 79.0639L235.883 136.545L227.242 136.948L224.059 79.4673L232.7 79.0639Z" fill="#0C4EC0"/>
<path fill-rule="evenodd" clip-rule="evenodd" d="M70.36 79.5194L67.1769 137L58.5361 136.597L61.7192 79.116L70.36 79.5194Z" fill="#0C4EC0"/>
<path fill-rule="evenodd" clip-rule="evenodd" d="M151.611 79.2657V136.746H142.959V79.2657H151.611Z" fill="#0C4EC0"/>
</g>
<defs>
<linearGradient id="paint0_linear_16654_102262" x1="195.441" y1="226.12" x2="264.971" y2="241.408" gradientUnits="userSpaceOnUse">
<stop offset="0.0105566" stop-color="#0035B5" stop-opacity="0.2"/>
<stop offset="0.5203" stop-color="#0035B5" stop-opacity="0"/>
</linearGradient>
<linearGradient id="paint1_linear_16654_102262" x1="196.365" y1="237.076" x2="269.155" y2="237.076" gradientUnits="userSpaceOnUse">
<stop offset="0.0119827" stop-color="#0035B5" stop-opacity="0.2"/>
<stop offset="0.2284" stop-color="#001D62" stop-opacity="0.1149"/>
<stop offset="0.4279" stop-color="#00081C" stop-opacity="0.0363521"/>
<stop offset="0.5203" stop-opacity="0"/>
</linearGradient>
<linearGradient id="paint2_linear_16654_102262" x1="95.6528" y1="226.12" x2="25.2357" y2="241.821" gradientUnits="userSpaceOnUse">
<stop offset="0.0105566" stop-color="#0035B5" stop-opacity="0.2"/>
<stop offset="0.5203" stop-color="#0035B5" stop-opacity="0"/>
</linearGradient>
<clipPath id="clip0_16654_102262">
<rect width="300.41" height="271.917" fill="white" transform="translate(0.828125 0.906738)"/>
</clipPath>
</defs>
</svg>
