<svg width="275" height="275" viewBox="0 0 275 275" fill="none" xmlns="http://www.w3.org/2000/svg">
<g clip-path="url(#clip0_16654_102262)">
<path d="M132.435 0.0863342C205.991 0.0863342 256.474 28.6736 256.474 117.972C256.474 174.721 234.658 219.441 213.263 249.16C210.606 252.84 205.012 252.84 202.495 249.019L179.002 214.771C147.957 217.743 116.913 217.743 85.868 214.771L62.3747 249.019C59.7178 252.84 54.264 252.84 51.6071 249.16C30.3513 219.441 8.39629 174.721 8.39629 117.972C8.25644 28.6736 58.8787 0.0863342 132.435 0.0863342Z" fill="#0096FA"/>
<path d="M244.573 187.097C236.054 213.593 223.275 234.988 213.244 249.157C210.633 252.841 205.137 252.841 202.663 249.015L179.579 214.726C211.183 211.892 234.954 202.399 244.573 187.097Z" fill="url(#paint0_linear_16654_102262)" stroke="url(#paint1_linear_16654_102262)" stroke-width="0.425" stroke-miterlimit="10"/>
<path d="M19.3809 187.097C28.0202 213.593 40.9793 234.988 51.1514 249.157C53.799 252.841 59.3727 252.841 61.8809 249.015L85.2908 214.726C53.2416 211.892 29.135 202.399 19.3809 187.097Z" fill="url(#paint2_linear_16654_102262)"/>
<path d="M99.0222 176.913C102.561 176.913 105.43 174.426 105.43 171.358C105.43 168.29 102.561 165.804 99.0222 165.804C95.4832 165.804 92.6143 168.29 92.6143 171.358C92.6143 174.426 95.4832 176.913 99.0222 176.913Z" fill="black"/>
<path d="M170.882 176.913C174.168 176.913 176.833 174.426 176.833 171.358C176.833 168.29 174.168 165.804 170.882 165.804C167.596 165.804 164.932 168.29 164.932 171.358C164.932 174.426 167.596 176.913 170.882 176.913Z" fill="black"/>
<path d="M158.074 0H110.064C56.7814 0 13.6279 40.0727 13.6279 89.5516V92.5155H254.51V89.5516C254.51 40.0727 211.218 0 158.074 0Z" fill="#0C4EC0"/>
<path d="M256.453 72.5446H11.6853C7.24504 72.5446 3.49866 75.7655 3.08239 79.8887L0.0296359 117.127C-0.386635 121.765 3.63742 125.76 8.63268 125.76H259.367C264.362 125.76 268.247 121.765 267.97 117.127L264.917 79.8887C264.639 75.7655 260.893 72.5446 256.453 72.5446Z" fill="#1968F0"/>
<path fill-rule="evenodd" clip-rule="evenodd" d="M212.259 72.3575L215.173 125.573L207.263 125.946L204.349 72.731L212.259 72.3575Z" fill="#0C4EC0"/>
<path fill-rule="evenodd" clip-rule="evenodd" d="M63.6504 72.7792L60.7366 125.994L52.8267 125.621L55.7405 72.4057L63.6504 72.7792Z" fill="#0C4EC0"/>
<path fill-rule="evenodd" clip-rule="evenodd" d="M138.029 72.5443V125.76H130.109V72.5443H138.029Z" fill="#0C4EC0"/>
</g>
<defs>
<linearGradient id="paint0_linear_16654_102262" x1="178.152" y1="208.502" x2="241.866" y2="222.354" gradientUnits="userSpaceOnUse">
<stop offset="0.0105566" stop-color="#0035B5" stop-opacity="0.2"/>
<stop offset="0.5203" stop-color="#0035B5" stop-opacity="0"/>
</linearGradient>
<linearGradient id="paint1_linear_16654_102262" x1="178.997" y1="218.644" x2="245.631" y2="218.644" gradientUnits="userSpaceOnUse">
<stop offset="0.0119827" stop-color="#0035B5" stop-opacity="0.2"/>
<stop offset="0.2284" stop-color="#001D62" stop-opacity="0.1149"/>
<stop offset="0.4279" stop-color="#00081C" stop-opacity="0.0363521"/>
<stop offset="0.5203" stop-opacity="0"/>
</linearGradient>
<linearGradient id="paint2_linear_16654_102262" x1="86.8038" y1="208.502" x2="22.2747" y2="222.728" gradientUnits="userSpaceOnUse">
<stop offset="0.0105566" stop-color="#0035B5" stop-opacity="0.2"/>
<stop offset="0.5203" stop-color="#0035B5" stop-opacity="0"/>
</linearGradient>
<clipPath id="clip0_16654_102262">
<rect width="275" height="251.739" fill="white"/>
</clipPath>
</defs>
</svg>
