<svg width="301" height="274" viewBox="0 0 301 274" fill="none" xmlns="http://www.w3.org/2000/svg">
<g clip-path="url(#clip0_16654_102257)">
<path d="M150 259C249.663 259 300 244.405 300 141.239C300 35.0527 238.889 1 150 1C61.1113 1 0 35.0527 0 141.239C0 244.405 50.3368 259 150 259Z" fill="#0096FA"/>
<path d="M107.155 176.974C111.251 176.974 114.572 173.939 114.572 170.194C114.572 166.449 111.251 163.414 107.155 163.414C103.058 163.414 99.7373 166.449 99.7373 170.194C99.7373 173.939 103.058 176.974 107.155 176.974Z" fill="black"/>
<path d="M193.973 176.974C198.069 176.974 201.39 173.939 201.39 170.194C201.39 166.449 198.069 163.414 193.973 163.414C189.876 163.414 186.555 166.449 186.555 170.194C186.555 173.939 189.876 176.974 193.973 176.974Z" fill="black"/>
<path d="M201.391 172.816H99.9058V201.171H201.391V172.816Z" fill="#0096FA"/>
<path d="M143.062 199.167C151.721 199.167 158.74 192.751 158.74 184.836C158.74 176.921 151.721 170.505 143.062 170.505C134.403 170.505 127.384 176.921 127.384 184.836C127.384 192.751 134.403 199.167 143.062 199.167Z" fill="#C5D9FB"/>
<path d="M167.507 195.935C173.279 195.935 177.959 191.657 177.959 186.38C177.959 181.103 173.279 176.826 167.507 176.826C161.734 176.826 157.055 181.103 157.055 186.38C157.055 191.657 161.734 195.935 167.507 195.935Z" fill="#C5D9FB"/>
<path d="M159.583 165.728C165.821 165.728 170.878 161.105 170.878 155.403C170.878 149.701 165.821 145.079 159.583 145.079C153.345 145.079 148.288 149.701 148.288 155.403C148.288 161.105 153.345 165.728 159.583 165.728Z" fill="#C5D9FB"/>
<path d="M149.131 156.019C156.3 156.019 162.112 150.706 162.112 144.153C162.112 137.6 156.3 132.287 149.131 132.287C141.962 132.287 136.15 137.6 136.15 144.153C136.15 150.706 141.962 156.019 149.131 156.019Z" fill="#C5D9FB"/>
<path d="M170.878 125.969C175.719 125.969 179.644 122.382 179.644 117.956C179.644 113.531 175.719 109.943 170.878 109.943C166.036 109.943 162.111 113.531 162.111 117.956C162.111 122.382 166.036 125.969 170.878 125.969Z" fill="#C5D9FB"/>
<path d="M96.5341 230.914L58.6035 185.917L87.768 137.067L146.434 224.288L96.5341 230.914Z" fill="url(#paint0_linear_16654_102257)"/>
<path d="M205.775 230.914L243.705 185.917L214.372 137.067L155.875 224.288L205.775 230.914Z" fill="url(#paint1_linear_16654_102257)"/>
<path d="M188.916 273.908H116.426C110.863 273.908 106.312 269.747 106.312 264.662V194.084C106.312 188.998 110.863 184.838 116.426 184.838H188.916C194.479 184.838 199.031 188.998 199.031 194.084V264.508C199.031 269.748 194.479 273.908 188.916 273.908Z" fill="#0066FF"/>
<path d="M184.027 242.624C198.862 205.024 230.049 172.046 252.639 146.62C290.233 168.502 296.47 188.997 275.06 209.493C259.214 224.903 217.406 244.011 194.816 251.254C189.084 253.103 182.004 247.71 184.027 242.624Z" fill="#0096FA"/>
<path d="M118.281 242.624C103.446 205.024 72.2588 172.046 49.669 146.62C12.0756 168.502 5.83807 188.997 27.2478 209.493C43.0943 224.903 84.9022 244.011 107.492 251.254C113.224 253.103 120.135 247.71 118.281 242.624Z" fill="#0096FA"/>
<path d="M196.165 262.35V250.485C207.966 250.485 217.575 241.701 217.575 230.913C217.575 220.126 207.966 211.343 196.165 211.343V199.477C215.046 199.477 230.555 213.5 230.555 230.913C230.555 248.327 215.046 262.35 196.165 262.35Z" fill="#0066FF"/>
</g>
<defs>
<linearGradient id="paint0_linear_16654_102257" x1="85.1447" y1="209.536" x2="130.85" y2="143.513" gradientUnits="userSpaceOnUse">
<stop offset="0.0783812" stop-color="#0035B5" stop-opacity="0.2"/>
<stop offset="0.4002" stop-color="#0035B5" stop-opacity="0"/>
</linearGradient>
<linearGradient id="paint1_linear_16654_102257" x1="217.092" y1="209.417" x2="171.388" y2="143.395" gradientUnits="userSpaceOnUse">
<stop offset="0.0783812" stop-color="#0035B5" stop-opacity="0.2"/>
<stop offset="0.4002" stop-color="#0035B5" stop-opacity="0"/>
</linearGradient>
<clipPath id="clip0_16654_102257">
<rect width="300.41" height="273.682" fill="white" transform="translate(0.443359 0.224854)"/>
</clipPath>
</defs>
</svg>
