<svg width="277" height="275" viewBox="0 0 277 275" fill="none" xmlns="http://www.w3.org/2000/svg">
<g clip-path="url(#clip0_287_18585)">
<path d="M138.432 238.146C230.099 238.146 276.397 224.676 276.397 129.449C276.397 31.4338 220.189 0 138.432 0C56.6757 0 0.46875 31.4338 0.46875 129.449C0.46875 224.676 46.7659 238.146 138.432 238.146Z" fill="#0096FA"/>
<path d="M98.4836 177.604C102.246 177.604 105.297 174.553 105.297 170.79C105.297 167.027 102.246 163.978 98.4836 163.978C94.7208 163.978 91.6699 167.027 91.6699 170.79C91.6699 174.553 94.7208 177.604 98.4836 177.604Z" fill="black"/>
<path d="M178.38 177.604C182.143 177.604 185.194 174.553 185.194 170.79C185.194 167.027 182.143 163.978 178.38 163.978C174.618 163.978 171.568 167.027 171.568 170.79C171.568 174.553 174.618 177.604 178.38 177.604Z" fill="black"/>
<path d="M185.196 173.423H91.9805V201.914H185.196V173.423Z" fill="#0096FA"/>
<path d="M131.464 199.902C139.418 199.902 145.864 193.453 145.864 185.5C145.864 177.547 139.418 171.1 131.464 171.1C123.511 171.1 117.064 177.547 117.064 185.5C117.064 193.453 123.511 199.902 131.464 199.902Z" fill="#C5D9FB"/>
<path d="M153.917 196.649C159.219 196.649 163.517 192.351 163.517 187.049C163.517 181.747 159.219 177.45 153.917 177.45C148.615 177.45 144.316 181.747 144.316 187.049C144.316 192.351 148.615 196.649 153.917 196.649Z" fill="#C5D9FB"/>
<path d="M146.639 166.301C152.368 166.301 157.014 161.656 157.014 155.926C157.014 150.196 152.368 145.551 146.639 145.551C140.909 145.551 136.266 150.196 136.266 155.926C136.266 161.656 140.909 166.301 146.639 166.301Z" fill="#C5D9FB"/>
<path d="M137.195 156.546C143.779 156.546 149.118 151.208 149.118 144.623C149.118 138.038 143.779 132.7 137.195 132.7C130.61 132.7 125.271 138.038 125.271 144.623C125.271 151.208 130.61 156.546 137.195 156.546Z" fill="#C5D9FB"/>
<path d="M157.169 126.352C161.616 126.352 165.22 122.747 165.22 118.3C165.22 113.853 161.616 110.248 157.169 110.248C152.722 110.248 149.117 113.853 149.117 118.3C149.117 122.747 152.722 126.352 157.169 126.352Z" fill="#C5D9FB"/>
<path d="M88.7281 231.798L53.8887 186.584L80.8302 137.499L134.561 225.14L88.7281 231.798Z" fill="url(#paint0_linear_287_18585)"/>
<path d="M189.065 231.798L223.904 186.584L197.117 137.499L143.232 225.14L189.065 231.798Z" fill="url(#paint1_linear_287_18585)"/>
<path d="M173.581 275H106.999C101.89 275 97.709 270.819 97.709 265.709V194.946C97.709 189.836 101.89 185.656 106.999 185.656H173.581C178.691 185.656 182.872 189.836 182.872 194.946V265.709C182.872 270.819 178.691 275 173.581 275Z" fill="#0066FF"/>
<path d="M169.091 243.566C182.717 205.784 211.363 172.649 232.112 147.1C266.641 169.087 272.37 189.681 252.705 210.275C238.15 225.759 199.75 244.96 179.001 252.238C173.737 254.096 167.387 248.521 169.091 243.566Z" fill="#0096FA"/>
<path d="M108.702 243.566C95.0764 205.784 66.4318 172.649 45.683 147.1C11.1533 169.087 5.42294 189.681 25.0879 210.275C39.643 225.759 78.0447 244.96 98.7935 252.238C104.058 254.096 110.561 248.521 108.702 243.566Z" fill="#0096FA"/>
<path d="M180.24 263.387V251.464C191.079 251.464 199.905 242.637 199.905 231.798C199.905 220.959 191.079 212.133 180.24 212.133V200.21C197.583 200.21 211.829 214.301 211.829 231.798C211.829 249.295 197.737 263.387 180.24 263.387Z" fill="#0066FF"/>
</g>
<defs>
<linearGradient id="paint0_linear_287_18585" x1="78.3587" y1="210.394" x2="125.589" y2="148.03" gradientUnits="userSpaceOnUse">
<stop offset="0.0783812" stop-color="#0035B5" stop-opacity="0.2"/>
<stop offset="0.4002" stop-color="#0035B5" stop-opacity="0"/>
</linearGradient>
<linearGradient id="paint1_linear_287_18585" x1="199.494" y1="210.594" x2="152.265" y2="148.229" gradientUnits="userSpaceOnUse">
<stop offset="0.0783812" stop-color="#0035B5" stop-opacity="0.2"/>
<stop offset="0.4002" stop-color="#0035B5" stop-opacity="0"/>
</linearGradient>
<clipPath id="clip0_287_18585">
<rect width="275.928" height="275" fill="white" transform="translate(0.46875)"/>
</clipPath>
</defs>
</svg>
