<svg width="273" height="275" viewBox="0 0 273 275" fill="none" xmlns="http://www.w3.org/2000/svg">
<g clip-path="url(#clip0_10339_4717)">
<path d="M255.865 215.736L268.813 265.549C269.967 270.232 266.762 274.774 262.403 274.348C247.147 273.071 214.712 268.529 183.431 250.506L255.865 215.736Z" fill="#0096FA"/>
<path d="M255.865 215.736L268.813 265.549C269.967 270.232 266.762 274.774 262.403 274.348C247.147 273.071 214.712 268.529 183.431 250.506L255.865 215.736Z" fill="url(#paint0_linear_10339_4717)"/>
<path d="M10.7425 207.366L0.999014 266.261C0.229801 270.945 3.94779 275.202 8.17846 274.351C23.1781 271.512 55.1006 263.281 84.5871 241.993L10.7425 207.366Z" fill="#0096FA"/>
<path d="M136.509 0.72998C55.8698 0.72998 0.486328 35.074 0.486328 141.938C0.486328 167.199 3.30678 185.081 7.53745 201.827C7.53745 201.827 15.2293 228.933 34.8443 242.699C47.6645 251.64 67.664 254.621 93.8172 257.743C93.8172 257.743 93.8174 257.601 93.9456 257.601C124.458 261.007 140.226 262 169.457 259.729C186.892 258.168 237.147 251.215 254.07 223.824C265.48 199.84 272.403 172.876 272.403 141.796C272.531 35.0741 217.148 0.72998 136.509 0.72998Z" fill="#0096FA"/>
<path d="M206.8 211.655C209.991 210.935 211.982 207.113 211.246 203.12C210.51 199.126 207.326 196.474 204.135 197.194C200.944 197.915 198.953 201.736 199.689 205.73C200.425 209.723 203.609 212.376 206.8 211.655Z" fill="black"/>
<path d="M139.873 204.773C140.324 200.728 138.069 197.091 134.837 196.65C131.604 196.208 128.618 199.129 128.167 203.174C127.716 207.219 129.971 210.857 133.204 211.298C136.436 211.74 139.422 208.819 139.873 204.773Z" fill="black"/>
<path d="M146.204 210.347L110.577 205.479L109.21 217.733L144.838 222.601L146.204 210.347Z" fill="#0096FA"/>
<path d="M150.308 189.905L114.681 185.037L113.314 197.291L148.942 202.159L150.308 189.905Z" fill="#0096FA"/>
<path d="M222.195 183.961L187.024 191.904L189.254 204.002L224.425 196.058L222.195 183.961Z" fill="#0096FA"/>
<path d="M225.65 204.418L190.479 212.362L192.708 224.459L227.88 216.516L225.65 204.418Z" fill="#0096FA"/>
<path d="M95.3557 167.626C94.0737 178.838 84.9713 186.785 74.8433 185.366C64.7154 183.947 57.5361 173.871 58.8181 162.659C60.1001 151.448 80.9968 129.734 80.9968 129.734C80.9968 129.734 96.5095 156.415 95.3557 167.626Z" fill="#0065FF"/>
</g>
<defs>
<linearGradient id="paint0_linear_10339_4717" x1="183.494" y1="245.086" x2="269.122" y2="245.086" gradientUnits="userSpaceOnUse">
<stop offset="0.108" stop-color="#0012FF" stop-opacity="0.2"/>
<stop offset="0.6097" stop-color="#0012FF" stop-opacity="0"/>
</linearGradient>
<clipPath id="clip0_10339_4717">
<rect width="271.917" height="273.73" fill="white" transform="translate(0.486328 0.72998)"/>
</clipPath>
</defs>
</svg>
