<svg width="280" height="276" viewBox="0 0 280 276" fill="none" xmlns="http://www.w3.org/2000/svg">
<path fill-rule="evenodd" clip-rule="evenodd" d="M192.139 234.649C176.728 236.459 159.286 237.05 139.822 237.05C120.36 237.05 102.919 236.458 87.5087 234.645L87.4949 234.668L61.012 272.176C59.4805 274.246 57.1832 275.312 54.8859 275.312C52.5886 275.312 50.2913 274.309 48.8236 272.302C34.6568 253.109 20.2986 228.27 10.9179 198.289C7.36011 186.941 4.52679 174.88 2.68891 162.129C1.0792 152.369 0.269097 141.37 0.260742 128.979C0.260742 31.5073 57.0553 0.271301 139.822 0.271301C222.479 0.271301 279.233 31.4242 279.384 128.59C279.384 128.719 279.384 128.849 279.384 128.979C279.384 129.313 279.383 129.646 279.382 129.979C279.342 141.273 278.628 151.401 277.239 160.478C270.756 207.68 250.594 245.527 230.822 272.301C227.822 276.378 221.569 276.315 218.633 272.175L192.15 234.667C192.147 234.661 192.143 234.655 192.139 234.649Z" fill="#0096FA"/>
<path d="M12.9595 204.559C22.7869 233.475 37.4003 256.807 48.823 272.3C51.8223 276.377 58.0761 276.314 61.0115 272.175L87.4944 234.666C51.1841 231.53 24.0631 221.181 12.9595 204.559Z" fill="url(#paint0_linear_10339_4629)"/>
<path d="M266.477 204.559C256.65 233.475 242.036 256.807 230.613 272.3C227.614 276.377 221.36 276.314 218.425 272.175L191.942 234.666C228.252 231.53 255.373 221.181 266.477 204.559Z" fill="url(#paint1_linear_10339_4629)"/>
<path fill-rule="evenodd" clip-rule="evenodd" d="M91.335 184.811C91.335 181.07 94.3452 178.038 98.0586 178.038C101.772 178.038 104.782 181.07 104.782 184.811H91.335ZM170.143 184.811C170.143 181.07 173.153 178.038 176.867 178.038C180.58 178.038 183.59 181.07 183.59 184.811H170.143Z" fill="black"/>
<path d="M62.1872 156.269C60.7551 167.553 50.5874 175.553 39.274 174.124C27.9606 172.696 19.941 162.554 21.373 151.269C22.8051 139.984 46.1477 118.129 46.1477 118.129C46.1477 118.129 63.4761 144.984 62.1872 156.269Z" fill="#0065FF"/>
<defs>
<linearGradient id="paint0_linear_10339_4629" x1="89.0619" y1="227.86" x2="16.4635" y2="244.418" gradientUnits="userSpaceOnUse">
<stop offset="0.0105566" stop-color="#0012FF" stop-opacity="0.2"/>
<stop offset="0.5203" stop-color="#0012FF" stop-opacity="0"/>
</linearGradient>
<linearGradient id="paint1_linear_10339_4629" x1="190.375" y1="227.86" x2="262.973" y2="244.418" gradientUnits="userSpaceOnUse">
<stop offset="0.0105566" stop-color="#0012FF" stop-opacity="0.2"/>
<stop offset="0.5203" stop-color="#0012FF" stop-opacity="0"/>
</linearGradient>
</defs>
</svg>
