<svg width="256" height="245" viewBox="0 0 256 245" fill="none" xmlns="http://www.w3.org/2000/svg">
<path d="M162.556 5.83004C145.382 2.40599 127.91 0.697721 110.398 0.730442C78.9617 0.730442 52.7106 6.26038 36.2929 16.3305C3.09173 36.7934 -0.652278 79.7634 0.07931 103.562C0.832415 128.177 6.53449 162.454 29.1492 185.908C47.2882 204.736 88.2571 214.892 117.671 214.935C119.867 214.918 122.044 215.335 124.078 216.161C126.112 216.987 127.962 218.207 129.524 219.751C131.085 221.294 132.326 223.13 133.176 225.155C134.026 227.179 134.468 229.351 134.476 231.546V242.8C134.476 243.171 134.583 243.535 134.784 243.847C134.984 244.16 135.271 244.408 135.609 244.562C135.947 244.717 136.322 244.77 136.69 244.717C137.057 244.664 137.402 244.507 137.682 244.263C147.171 236 157.242 227.049 167.183 217.861C169.614 215.71 172.11 213.321 174.606 211.04C186.527 200.282 198.856 188.942 207.398 176.806C217.382 162.648 223.859 145.004 226.764 124.369C229.242 104.937 228.515 85.2313 224.612 66.0354C218.265 34.2113 196.231 12.8447 162.556 5.83004Z" fill="#00C6D7"/>
<path opacity="0.25" d="M226.555 113.2C224.269 129.778 217.582 145.441 207.19 158.558C198.583 169.08 186.318 178.784 174.398 188.187C171.902 190.167 169.406 192.125 166.974 194.083C157.033 202.066 153.483 204.562 143.972 211.727C143.704 211.926 143.39 212.054 143.059 212.098C142.729 212.143 142.392 212.104 142.081 211.983C141.769 211.863 141.493 211.666 141.279 211.411C141.064 211.155 140.917 210.85 140.852 210.522L139.432 201.421C139.432 193.459 126.823 191.738 117.592 191.716C88.1778 191.716 47.2089 182.894 29.0698 166.627C6.41215 146.25 0.753105 116.599 0 95.3188C0 94.9315 0 94.5442 0 94.1354C0 97.3199 0 100.332 0 103.065C0.753105 127.681 6.45518 161.958 29.0698 185.412C47.2089 204.239 88.1778 214.395 117.592 214.439C119.787 214.421 121.964 214.838 123.998 215.665C126.032 216.491 127.883 217.711 129.444 219.254C131.006 220.797 132.247 222.634 133.097 224.658C133.947 226.682 134.389 228.854 134.397 231.05V242.303C134.397 242.675 134.503 243.039 134.704 243.351C134.905 243.664 135.192 243.912 135.529 244.066C135.867 244.22 136.243 244.274 136.61 244.221C136.978 244.168 137.322 244.01 137.603 243.767C147.092 235.504 157.162 226.553 167.103 217.365C169.535 215.213 172.031 212.825 174.527 210.544C186.447 199.785 198.777 188.446 207.319 176.31C217.303 162.152 223.78 144.507 226.685 123.872C227.865 114.994 228.34 106.036 228.105 97.0832C227.924 102.482 227.407 107.865 226.555 113.2Z" fill="#2D91AF"/>
<path opacity="0.2" d="M123.003 30.0803C137.248 34.9432 159.798 35.5672 177.184 46.7132C183.639 50.7584 192.891 53.0393 195.43 48.994C197.97 44.9488 197.475 38.5796 188.739 31.9738C178.733 24.4428 168.921 18.5901 133.03 14.76C117.689 13.0817 112.223 26.4009 123.003 30.0803Z" fill="white"/>
<path opacity="0.2" d="M199.239 71.5866C203.482 71.5866 206.921 68.1474 206.921 63.9049C206.921 59.6625 203.482 56.2233 199.239 56.2233C194.997 56.2233 191.558 59.6625 191.558 63.9049C191.558 68.1474 194.997 71.5866 199.239 71.5866Z" fill="white"/>
<path d="M80.4112 104.514C79.1058 104.514 77.8539 104.003 76.9308 103.093C76.0078 102.184 75.4892 100.95 75.4892 99.664C75.4892 98.0176 74.8255 96.4387 73.6439 95.2746C72.4624 94.1104 70.86 93.4564 69.1891 93.4564C67.5182 93.4564 65.9157 94.1104 64.7342 95.2746C63.5527 96.4387 62.8889 98.0176 62.8889 99.664C62.8889 100.95 62.3703 102.184 61.4473 103.093C60.5242 104.003 59.2723 104.514 57.9669 104.514C56.6615 104.514 55.4096 104.003 54.4865 103.093C53.5635 102.184 53.0449 100.95 53.0449 99.664C53.0449 95.4452 54.7458 91.3992 57.7734 88.416C60.801 85.4329 64.9074 83.757 69.1891 83.757C73.4708 83.757 77.5771 85.4329 80.6047 88.416C83.6323 91.3992 85.3332 95.4452 85.3332 99.664C85.3332 100.95 84.8146 102.184 83.8916 103.093C82.9685 104.003 81.7166 104.514 80.4112 104.514Z" fill="#167491"/>
<path d="M168.051 104.514C166.745 104.514 165.494 104.003 164.57 103.093C163.647 102.184 163.129 100.95 163.129 99.664C163.129 98.0176 162.465 96.4387 161.284 95.2746C160.102 94.1104 158.5 93.4564 156.829 93.4564C155.158 93.4564 153.555 94.1104 152.374 95.2746C151.192 96.4387 150.529 98.0176 150.529 99.664C150.529 100.95 150.01 102.184 149.087 103.093C148.164 104.003 146.912 104.514 145.607 104.514C144.301 104.514 143.049 104.003 142.126 103.093C141.203 102.184 140.685 100.95 140.685 99.664C140.685 95.4452 142.385 91.3992 145.413 88.416C148.441 85.4329 152.547 83.757 156.829 83.757C161.11 83.757 165.217 85.4329 168.244 88.416C171.272 91.3992 172.973 95.4452 172.973 99.664C172.973 100.95 172.454 102.184 171.531 103.093C170.608 104.003 169.356 104.514 168.051 104.514Z" fill="#167491"/>
<path d="M214.237 78.701L214.239 78.6983L232.821 47.2568C232.821 47.2562 232.821 47.2556 232.822 47.255C232.828 47.2459 232.839 47.2334 232.858 47.2226C232.879 47.2109 232.907 47.203 232.937 47.203C232.967 47.203 232.995 47.2108 233.016 47.2226C233.035 47.2334 233.047 47.2459 233.053 47.255C233.053 47.2556 233.053 47.2562 233.054 47.2568L251.635 78.6983L251.637 78.701C253.518 81.8688 254.504 85.4566 254.5 89.1048C254.496 92.753 253.502 96.3388 251.614 99.5028C249.726 102.667 247.008 105.3 243.73 107.133C240.451 108.966 236.729 109.933 232.937 109.933C229.146 109.933 225.423 108.966 222.145 107.133C218.866 105.3 216.149 102.667 214.26 99.5028C212.372 96.3388 211.378 92.753 211.374 89.1048C211.37 85.4566 212.356 81.8688 214.237 78.701Z" fill="#57EBFF" stroke="white" stroke-width="3"/>
<path d="M143.908 129.883H83.5202C78.6524 129.883 76.8844 135.626 80.3286 139.108C87.8828 146.673 98.1004 155.253 113.691 155.253C129.281 155.253 139.499 146.604 147.053 139.108C150.543 135.626 148.775 129.883 143.908 129.883Z" fill="#167491"/>
</svg>
