<svg width="256" height="313" viewBox="0 0 256 313" fill="none" xmlns="http://www.w3.org/2000/svg">
<path fill-rule="evenodd" clip-rule="evenodd" d="M182.337 7.39184C163.074 3.54591 143.464 -0.00576834 123.822 0.0309834C88.5631 0.0309834 59.12 6.24226 40.706 17.5531C3.46767 40.5372 -0.731592 88.8016 0.0889538 115.532C0.933633 143.18 7.32906 181.681 32.6936 208.024C53.0383 229.172 98.9888 240.579 131.98 240.628C134.442 240.608 136.884 241.076 139.165 242.005C141.446 242.933 143.522 244.303 145.273 246.036C146.282 247.035 147.171 248.142 147.926 249.337V243.706C147.918 241.55 147.484 239.417 146.649 237.429C145.815 235.441 144.596 233.637 143.062 232.121C141.529 230.606 139.711 229.407 137.714 228.596C135.716 227.784 133.578 227.375 131.422 227.392C102.534 227.35 62.2978 217.375 44.4832 198.884C22.2731 175.85 16.673 142.186 15.9334 118.011C15.2149 94.6382 18.8919 52.4368 51.4992 32.3399C67.6232 22.45 93.4047 17.0189 124.279 17.0189C141.478 16.9868 158.637 18.6645 175.504 22.0273C208.576 28.9165 230.216 49.9009 236.45 81.1557C240.283 100.008 240.997 119.362 238.563 138.446C235.71 158.712 229.349 176.04 219.544 189.945C211.154 201.864 199.045 213.001 187.338 223.567C186.41 224.415 185.482 225.278 184.558 226.137C183.04 227.549 181.532 228.952 180.047 230.266C170.284 239.289 160.394 248.08 151.075 256.195C150.934 256.318 150.777 256.418 150.608 256.494C150.751 257.415 150.824 258.349 150.828 259.286V271.926C150.828 272.343 150.947 272.751 151.173 273.102C151.398 273.453 151.719 273.732 152.098 273.905C152.477 274.079 152.898 274.139 153.31 274.079C153.723 274.02 154.109 273.843 154.424 273.569C165.067 264.288 176.361 254.234 187.511 243.914C189.206 242.412 190.929 240.808 192.662 239.193L192.664 239.192C193.719 238.209 194.778 237.222 195.837 236.253C209.207 224.169 223.036 211.432 232.617 197.801C243.815 181.898 251.079 162.08 254.337 138.903C257.116 117.077 256.301 94.9431 251.924 73.3821C244.805 37.637 220.106 15.2707 182.337 7.39184Z" fill="#4F0E87"/>
<path d="M44.6964 208.083C25.9587 193.868 16.2669 149.429 14.9746 133.348C84.5408 141.388 242.842 122.967 241.98 129.686C240.903 138.086 245.211 155.316 214.843 208.083C209.052 218.146 171.33 236.166 168.968 227.898C168.106 224.882 151.092 233.928 141.831 227.898C135.8 225.528 123.739 227.467 115.77 225.959C107.801 224.452 63.434 222.298 44.6964 208.083Z" fill="#341D46"/>
<path d="M175.504 22.0272C158.637 18.6644 141.478 16.9867 124.279 17.0188C93.4047 17.0188 67.6232 22.4498 51.4992 32.3398C18.8919 52.4367 15.2149 94.6381 15.9334 118.01C16.673 142.186 22.2731 175.85 44.4832 198.884C62.2978 217.375 102.534 227.349 131.422 227.392C133.578 227.375 135.716 227.784 137.714 228.596C139.711 229.407 141.529 230.605 143.062 232.121C144.596 233.637 145.815 235.441 146.649 237.429C147.484 239.417 147.918 241.55 147.926 243.706V254.758C147.926 255.123 148.031 255.48 148.228 255.787C148.425 256.094 148.707 256.338 149.038 256.489C149.37 256.641 149.739 256.693 150.1 256.641C150.461 256.589 150.799 256.434 151.075 256.195C160.394 248.08 170.284 239.289 180.047 230.266C182.435 228.152 184.887 225.807 187.338 223.567C199.045 213.001 211.154 201.864 219.544 189.945C229.349 176.04 235.71 158.711 238.563 138.445C240.996 119.362 240.283 100.008 236.45 81.1556C230.216 49.9008 208.576 28.9164 175.504 22.0272Z" fill="#00C6D7"/>
<path opacity="0.25" d="M238.358 127.476C236.113 143.758 229.546 159.141 219.339 172.023C210.886 182.357 198.841 191.888 187.133 201.123C184.682 203.067 182.231 204.99 179.843 206.913C170.08 214.753 166.593 217.204 157.252 224.241C156.989 224.437 156.68 224.562 156.356 224.606C156.031 224.65 155.7 224.611 155.395 224.493C155.089 224.375 154.818 224.181 154.607 223.93C154.396 223.68 154.252 223.379 154.188 223.058L152.793 214.119C152.793 206.3 140.41 204.609 131.344 204.588C102.456 204.588 62.2199 195.924 44.4053 179.948C22.1529 159.936 16.5951 130.815 15.8555 109.915C15.8555 109.535 15.8555 109.154 15.8555 108.753C15.8555 111.881 15.8555 114.839 15.8555 117.523C16.5951 141.698 22.1952 175.362 44.4053 198.396C62.2199 216.887 102.456 226.862 131.344 226.904C133.5 226.887 135.638 227.297 137.636 228.108C139.633 228.92 141.451 230.118 142.984 231.634C144.518 233.149 145.737 234.953 146.571 236.941C147.406 238.929 147.84 241.062 147.848 243.218V254.271C147.848 254.635 147.953 254.993 148.15 255.299C148.347 255.606 148.629 255.85 148.961 256.002C149.292 256.153 149.661 256.206 150.022 256.154C150.383 256.102 150.722 255.947 150.997 255.708C160.316 247.593 170.206 238.802 179.97 229.778C182.357 227.665 184.809 225.319 187.26 223.079C198.968 212.513 211.076 201.376 219.466 189.458C229.271 175.552 235.632 158.224 238.485 137.958C239.644 129.239 240.111 120.441 239.88 111.648C239.702 116.951 239.194 122.237 238.358 127.476Z" fill="#2D91AF"/>
<path opacity="0.2" d="M136.659 45.8437C150.648 50.6196 172.795 51.2325 189.87 62.179C196.21 66.1519 205.297 68.392 207.79 64.4191C210.284 60.4462 209.798 54.191 201.218 47.7034C191.391 40.307 181.755 34.559 146.506 30.7974C131.439 29.1491 126.071 42.2301 136.659 45.8437Z" fill="white"/>
<path opacity="0.2" d="M211.531 86.6074C215.697 86.6074 219.075 83.2298 219.075 79.0632C219.075 74.8966 215.697 71.5189 211.531 71.5189C207.364 71.5189 203.986 74.8966 203.986 79.0632C203.986 83.2298 207.364 86.6074 211.531 86.6074Z" fill="white"/>
<path d="M175.504 22.0272C158.637 18.6644 141.478 16.9867 124.279 17.0188C93.4047 17.0188 67.6232 22.4498 51.4992 32.3398C18.8919 52.4367 15.2149 94.6381 15.9334 118.01C16.673 142.186 22.2731 175.85 44.4832 198.884C62.2978 217.375 102.534 227.349 131.422 227.392C133.578 227.375 135.716 227.784 137.714 228.596C139.711 229.407 141.529 230.605 143.062 232.121C144.596 233.637 145.815 235.441 146.649 237.428C147.484 239.417 147.918 241.55 147.926 243.706V254.758C147.926 255.123 148.031 255.48 148.228 255.787C148.425 256.094 148.707 256.338 149.038 256.489C149.37 256.641 149.739 256.693 150.1 256.641C150.461 256.589 150.799 256.434 151.075 256.195C160.394 248.08 170.284 239.289 180.047 230.266C182.435 228.152 184.887 225.807 187.338 223.567C199.045 213.001 211.154 201.864 219.544 189.945C229.349 176.04 235.71 158.711 238.563 138.445C240.996 119.362 240.283 100.008 236.45 81.1556C230.216 49.9008 208.576 28.9164 175.504 22.0272Z" fill="url(#paint0_linear_10339_5219)" fill-opacity="0.7"/>
<path d="M141.791 163.91H115.54C113.424 163.91 112.655 166.473 114.153 168.028C117.436 171.405 121.878 175.235 128.655 175.235C135.433 175.235 139.874 171.374 143.158 168.028C144.675 166.473 143.907 163.91 141.791 163.91Z" fill="#167491"/>
<path d="M181.891 7.99939L183.829 9.50702L186.629 14.2453V20.2758V21.7834L183.829 24.5833H172.63V16.399L179.091 7.99939H181.891Z" fill="#4F0E87"/>
<path d="M84.4371 152.744C88.6737 152.744 92.1081 149.309 92.1081 145.073C92.1081 140.836 88.6737 137.402 84.4371 137.402C80.2005 137.402 76.7661 140.836 76.7661 145.073C76.7661 149.309 80.2005 152.744 84.4371 152.744Z" fill="#0D4C55"/>
<path d="M170.4 152.744C174.637 152.744 178.071 149.309 178.071 145.073C178.071 140.836 174.637 137.402 170.4 137.402C166.164 137.402 162.729 140.836 162.729 145.073C162.729 149.309 166.164 152.744 170.4 152.744Z" fill="#0D4C55"/>
<path d="M128.785 120.23C131.854 120.23 134.341 115.934 134.341 110.635C134.341 105.335 131.854 101.039 128.785 101.039C125.717 101.039 123.23 105.335 123.23 110.635C123.23 115.934 125.717 120.23 128.785 120.23Z" fill="#896829"/>
<path d="M248.787 135.377C159.317 84.4135 98.6365 98.5132 13.1308 135.887L10.1006 105.584L16.0526 69.1244L40.4019 28.3535L107.221 10.7993L206.317 20.992L239.726 55.5341L248.787 135.377Z" fill="#4F0E87"/>
<path d="M183.916 40.1047C179.644 20.0605 176.629 12.5224 171.029 5.41498C171.029 5.41498 228.093 12.0916 245.334 53.8744C262.574 95.6572 253.733 140.24 253.733 140.24C234.565 124.518 207.212 109.657 144.753 101.042C122.473 97.9684 205.283 84.0498 191.788 60.387C180.992 41.4568 132.17 53.6262 105.555 60.387C128.946 41.4568 171.675 40.1047 183.916 40.1047Z" fill="#470C79"/>
<path d="M85.3857 309.795C85.3857 296.812 95.9103 286.288 108.893 286.288H148.072C161.055 286.288 171.579 296.812 171.579 309.795C171.579 311.093 170.527 312.146 169.229 312.146H87.7365C86.4382 312.146 85.3857 311.093 85.3857 309.795Z" fill="#CB9685"/>
<circle cx="128.482" cy="242.329" r="54.3019" fill="#F5F8F9"/>
<g filter="url(#filter0_f_10339_5219)">
<circle cx="128.482" cy="242.329" r="59.4735" fill="url(#paint1_radial_10339_5219)"/>
</g>
<defs>
<filter id="filter0_f_10339_5219" x="61.0088" y="174.855" width="134.947" height="134.947" filterUnits="userSpaceOnUse" color-interpolation-filters="sRGB">
<feFlood flood-opacity="0" result="BackgroundImageFix"/>
<feBlend mode="normal" in="SourceGraphic" in2="BackgroundImageFix" result="shape"/>
<feGaussianBlur stdDeviation="4" result="effect1_foregroundBlur_10339_5219"/>
</filter>
<linearGradient id="paint0_linear_10339_5219" x1="127.976" y1="91.7651" x2="127.976" y2="231.632" gradientUnits="userSpaceOnUse">
<stop offset="0.132326" stop-color="#1A2437"/>
<stop offset="0.872234" stop-color="#202C44" stop-opacity="0"/>
</linearGradient>
<radialGradient id="paint1_radial_10339_5219" cx="0" cy="0" r="1" gradientUnits="userSpaceOnUse" gradientTransform="translate(128.482 242.329) rotate(90) scale(59.4735)">
<stop offset="0.515625" stop-color="#F5F8F9"/>
<stop offset="1" stop-color="#F5F8F9" stop-opacity="0.4"/>
</radialGradient>
</defs>
</svg>
