<svg width="277" height="274" viewBox="0 0 277 274" fill="none" xmlns="http://www.w3.org/2000/svg">
<g clip-path="url(#clip0_10339_4382)">
<path fill-rule="evenodd" clip-rule="evenodd" d="M187.632 233.254C172.597 235.056 155.581 235.644 136.592 235.644C117.606 235.644 100.591 235.055 85.5564 233.251L85.5429 233.273L59.7068 270.602C58.2126 272.662 55.9714 273.723 53.7302 273.723C51.489 273.723 49.2478 272.724 47.8159 270.727C33.9951 251.625 19.9875 226.906 10.8359 197.068C7.36497 185.775 4.60084 173.772 2.80784 161.082C1.23744 151.369 0.447115 140.423 0.438965 128.091C0.438965 31.0863 55.8467 0 136.592 0C217.231 0 272.598 31.0036 272.746 127.704C272.746 127.832 272.746 127.961 272.746 128.091C272.746 128.423 272.746 128.754 272.744 129.086C272.706 140.326 272.008 150.405 270.654 159.439C264.329 206.414 244.659 244.08 225.37 270.726C222.444 274.783 216.343 274.721 213.479 270.601L187.643 233.272C187.639 233.266 187.635 233.26 187.632 233.254Z" fill="#0096FA"/>
<path d="M12.8276 203.309C22.415 232.086 36.6716 255.307 47.8154 270.725C50.7415 274.782 56.8425 274.72 59.7063 270.6L85.5424 233.272C50.1189 230.15 23.6602 219.851 12.8276 203.309Z" fill="url(#paint0_linear_10339_4382)"/>
<path d="M260.154 203.309C250.567 232.086 236.31 255.307 225.167 270.725C222.24 274.782 216.139 274.72 213.276 270.6L187.439 233.272C222.863 230.15 249.322 219.851 260.154 203.309Z" fill="url(#paint1_linear_10339_4382)"/>
<path fill-rule="evenodd" clip-rule="evenodd" d="M101.236 185.013C100.13 184.539 98.7725 183.957 97.3047 183.957C95.8369 183.957 94.4789 184.539 93.3733 185.013C91.6819 185.737 90.5811 186.209 90.5811 183.957C90.5811 180.234 93.5913 177.216 97.3047 177.216C101.018 177.216 104.028 180.234 104.028 183.957C104.028 186.209 102.927 185.737 101.236 185.013ZM180.044 185.013C178.939 184.539 177.581 183.957 176.113 183.957C174.645 183.957 173.287 184.539 172.181 185.013C170.49 185.737 169.389 186.209 169.389 183.957C169.389 180.234 172.399 177.216 176.113 177.216C179.826 177.216 182.836 180.234 182.836 183.957C182.836 186.209 181.736 185.737 180.044 185.013Z" fill="black"/>
</g>
<defs>
<linearGradient id="paint0_linear_10339_4382" x1="87.0716" y1="226.498" x2="16.1091" y2="242.363" gradientUnits="userSpaceOnUse">
<stop offset="0.0105566" stop-color="#0012FF" stop-opacity="0.2"/>
<stop offset="0.5203" stop-color="#0012FF" stop-opacity="0"/>
</linearGradient>
<linearGradient id="paint1_linear_10339_4382" x1="185.91" y1="226.498" x2="256.873" y2="242.363" gradientUnits="userSpaceOnUse">
<stop offset="0.0105566" stop-color="#0012FF" stop-opacity="0.2"/>
<stop offset="0.5203" stop-color="#0012FF" stop-opacity="0"/>
</linearGradient>
<clipPath id="clip0_10339_4382">
<rect width="272.307" height="273.73" fill="white" transform="translate(0.746094)"/>
</clipPath>
</defs>
</svg>
