<svg width="256" height="274" viewBox="0 0 256 274" fill="none" xmlns="http://www.w3.org/2000/svg">
<path d="M182.357 5.7213C163.091 1.88016 143.491 -0.0361886 123.846 0.000517417C88.5801 0.000517417 59.1313 6.20407 40.7138 17.5008C3.46834 40.4564 -0.731732 88.6606 0.0889709 115.358C0.933812 142.972 7.33047 181.424 32.6999 207.735C53.0485 228.856 99.0078 240.249 132.005 240.298C134.468 240.279 136.91 240.746 139.192 241.673C141.473 242.6 143.549 243.968 145.301 245.7C147.053 247.431 148.445 249.491 149.398 251.762C150.352 254.033 150.848 256.47 150.857 258.932V271.557C150.857 271.973 150.976 272.381 151.202 272.732C151.427 273.083 151.748 273.361 152.127 273.534C152.507 273.707 152.927 273.767 153.34 273.708C153.752 273.648 154.139 273.471 154.454 273.198C165.099 263.929 176.395 253.887 187.547 243.58C190.275 241.167 193.075 238.487 195.875 235.929C209.248 223.859 223.079 211.138 232.662 197.524C243.862 181.641 251.128 161.848 254.386 138.699C257.166 116.901 256.35 94.7945 251.972 73.2603C244.852 37.5598 220.134 13.5904 182.357 5.7213Z" fill="#00C6D7"/>
<path opacity="0.25" d="M254.152 126.17C251.588 144.767 244.086 162.338 232.428 177.053C222.773 188.857 209.014 199.743 195.641 210.292C192.841 212.513 190.041 214.709 187.313 216.906C176.161 225.861 172.179 228.661 161.51 236.699C161.209 236.922 160.856 237.065 160.485 237.115C160.114 237.166 159.737 237.121 159.388 236.986C159.038 236.851 158.729 236.63 158.488 236.344C158.247 236.057 158.082 235.715 158.009 235.347L156.416 225.137C156.416 216.206 142.271 214.275 131.916 214.251C98.9189 214.251 52.9595 204.354 32.6109 186.105C7.19322 163.246 0.844841 129.984 0 106.111C0 105.676 0 105.242 0 104.783C0 108.356 0 111.735 0 114.801C0.844841 142.415 7.2415 180.867 32.6109 207.178C52.9595 228.299 98.9189 239.692 131.916 239.741C134.379 239.722 136.821 240.189 139.103 241.116C141.384 242.043 143.46 243.411 145.212 245.143C146.964 246.874 148.356 248.934 149.309 251.205C150.263 253.476 150.759 255.913 150.768 258.375V271C150.768 271.416 150.888 271.824 151.113 272.175C151.338 272.526 151.659 272.804 152.038 272.977C152.418 273.15 152.838 273.21 153.251 273.151C153.663 273.091 154.05 272.914 154.365 272.641C165.01 263.372 176.306 253.33 187.458 243.023C190.186 240.61 192.986 237.93 195.786 235.372C209.159 223.302 222.99 210.581 232.573 196.967C243.773 181.084 251.039 161.291 254.297 138.142C255.621 128.183 256.154 118.134 255.89 108.09C255.688 114.147 255.107 120.185 254.152 126.17Z" fill="#2D91AF"/>
<path opacity="0.2" d="M137.987 32.9256C153.966 38.3809 179.263 39.0809 198.767 51.5846C206.008 56.1226 216.388 58.6812 219.236 54.1432C222.085 49.6052 221.529 42.4603 211.729 35.0498C200.505 26.6014 189.498 20.0358 149.235 15.7392C132.025 13.8564 125.893 28.798 137.987 32.9256Z" fill="white"/>
<path opacity="0.2" d="M223.509 79.4877C228.269 79.4877 232.127 75.6296 232.127 70.8703C232.127 66.1111 228.269 62.2529 223.509 62.2529C218.75 62.2529 214.892 66.1111 214.892 70.8703C214.892 75.6296 218.75 79.4877 223.509 79.4877Z" fill="white"/>
<path d="M128.029 163.854C113.019 163.854 100.18 158.646 96.093 150.87C95.689 150.04 95.6175 149.087 95.8931 148.206C96.1688 147.326 96.7708 146.583 97.5759 146.132C97.9957 145.904 98.4566 145.762 98.9317 145.713C99.4069 145.665 99.887 145.71 100.344 145.848C100.802 145.986 101.227 146.213 101.596 146.516C101.965 146.82 102.271 147.193 102.495 147.615C104.809 152.063 114.575 156.765 128.029 156.765C141.483 156.765 151.864 151.883 153.78 147.145C153.961 146.703 154.227 146.301 154.562 145.962C154.898 145.623 155.298 145.354 155.737 145.169C156.177 144.984 156.649 144.888 157.127 144.886C157.604 144.883 158.077 144.975 158.518 145.155C158.96 145.336 159.362 145.602 159.701 145.937C160.04 146.273 160.31 146.672 160.494 147.112C160.679 147.552 160.775 148.024 160.778 148.502C160.78 148.979 160.688 149.452 160.508 149.893C157.072 158.067 143.726 163.854 128.029 163.854Z" fill="#167491"/>
<path d="M90.2062 116.426C88.7418 116.426 87.3373 115.853 86.3018 114.832C85.2663 113.812 84.6846 112.428 84.6846 110.985C84.6846 109.138 83.94 107.367 82.6146 106.061C81.2891 104.755 79.4915 104.022 77.617 104.022C75.7426 104.022 73.9449 104.755 72.6195 106.061C71.2941 107.367 70.5494 109.138 70.5494 110.985C70.5494 112.428 69.9677 113.812 68.9322 114.832C67.8967 115.853 66.4923 116.426 65.0279 116.426C63.5635 116.426 62.1591 115.853 61.1236 114.832C60.0881 113.812 59.5063 112.428 59.5063 110.985C59.5063 106.253 61.4144 101.714 64.8108 98.3672C68.2073 95.0207 72.8138 93.1406 77.617 93.1406C82.4203 93.1406 87.0268 95.0207 90.4232 98.3672C93.8196 101.714 95.7277 106.253 95.7277 110.985C95.7277 112.428 95.146 113.812 94.1105 114.832C93.075 115.853 91.6706 116.426 90.2062 116.426Z" fill="#167491"/>
<path d="M188.522 116.426C187.057 116.426 185.653 115.853 184.617 114.832C183.582 113.812 183 112.428 183 110.985C183 109.138 182.255 107.367 180.93 106.061C179.605 104.755 177.807 104.022 175.932 104.022C174.058 104.022 172.26 104.755 170.935 106.061C169.609 107.367 168.865 109.138 168.865 110.985C168.865 112.428 168.283 113.812 167.248 114.832C166.212 115.853 164.808 116.426 163.343 116.426C161.879 116.426 160.474 115.853 159.439 114.832C158.404 113.812 157.822 112.428 157.822 110.985C157.822 106.253 159.73 101.714 163.126 98.3672C166.523 95.0207 171.129 93.1406 175.932 93.1406C180.736 93.1406 185.342 95.0207 188.739 98.3672C192.135 101.714 194.043 106.253 194.043 110.985C194.043 112.428 193.461 113.812 192.426 114.832C191.39 115.853 189.986 116.426 188.522 116.426Z" fill="#167491"/>
</svg>
