<svg width="256" height="275" viewBox="0 0 256 275" fill="none" xmlns="http://www.w3.org/2000/svg">
<path d="M182.357 6.45128C163.091 2.61014 143.491 0.693792 123.846 0.730498C88.5801 0.730498 59.1313 6.93405 40.7138 18.2308C3.46834 41.1863 -0.731732 89.3906 0.0889709 116.088C0.933812 143.702 7.33047 182.154 32.6999 208.465C53.0485 229.586 99.0078 240.979 132.005 241.028C134.468 241.008 136.91 241.476 139.192 242.403C141.473 243.33 143.549 244.698 145.301 246.43C147.053 248.161 148.445 250.221 149.398 252.492C150.352 254.763 150.848 257.2 150.857 259.662V272.287C150.857 272.703 150.976 273.111 151.202 273.462C151.427 273.813 151.748 274.091 152.127 274.264C152.507 274.437 152.927 274.497 153.34 274.438C153.752 274.378 154.139 274.201 154.454 273.928C165.099 264.659 176.395 254.617 187.547 244.31C190.275 241.897 193.075 239.217 195.875 236.659C209.248 224.589 223.079 211.868 232.662 198.254C243.862 182.371 251.128 162.578 254.386 139.429C257.166 117.631 256.35 95.5245 251.972 73.9903C244.852 38.2897 220.134 14.3204 182.357 6.45128Z" fill="#00C6D7"/>
<path opacity="0.25" d="M254.152 126.9C251.588 145.497 244.086 163.068 232.428 177.783C222.773 189.587 209.014 200.473 195.641 211.022C192.841 213.243 190.041 215.439 187.313 217.636C176.161 226.591 172.179 229.391 161.51 237.429C161.209 237.652 160.856 237.795 160.485 237.845C160.114 237.896 159.737 237.851 159.388 237.716C159.038 237.581 158.729 237.36 158.488 237.074C158.247 236.787 158.082 236.445 158.009 236.077L156.416 225.867C156.416 216.936 142.271 215.005 131.916 214.98C98.9189 214.98 52.9595 205.084 32.6109 186.835C7.19322 163.976 0.844841 130.714 0 106.841C0 106.406 0 105.972 0 105.513C0 109.086 0 112.465 0 115.531C0.844841 143.145 7.2415 181.597 32.6109 207.908C52.9595 229.029 98.9189 240.422 131.916 240.471C134.379 240.451 136.821 240.919 139.103 241.846C141.384 242.773 143.46 244.141 145.212 245.873C146.964 247.604 148.356 249.664 149.309 251.935C150.263 254.206 150.759 256.643 150.768 259.105V271.73C150.768 272.146 150.888 272.554 151.113 272.905C151.338 273.256 151.659 273.534 152.038 273.707C152.418 273.88 152.838 273.94 153.251 273.881C153.663 273.821 154.05 273.644 154.365 273.371C165.01 264.102 176.306 254.06 187.458 243.753C190.186 241.34 192.986 238.66 195.786 236.102C209.159 224.032 222.99 211.311 232.573 197.697C243.773 181.814 251.039 162.021 254.297 138.872C255.621 128.913 256.154 118.864 255.89 108.82C255.688 114.877 255.107 120.915 254.152 126.9Z" fill="#2D91AF"/>
<path opacity="0.2" d="M137.987 33.6556C153.966 39.1109 179.263 39.8109 198.767 52.3146C206.008 56.8526 216.388 59.4112 219.236 54.8732C222.085 50.3352 221.529 43.1903 211.729 35.7798C200.505 27.3314 189.498 20.7658 149.235 16.4691C132.025 14.5864 125.893 29.528 137.987 33.6556Z" fill="white"/>
<path opacity="0.2" d="M223.508 80.2177C228.268 80.2177 232.126 76.3595 232.126 71.6003C232.126 66.841 228.268 62.9829 223.508 62.9829C218.749 62.9829 214.891 66.841 214.891 71.6003C214.891 76.3595 218.749 80.2177 223.508 80.2177Z" fill="white"/>
<path d="M75.7989 118.226C81.2247 118.226 85.6232 113.827 85.6232 108.401C85.6232 102.976 81.2247 98.577 75.7989 98.577C70.3731 98.577 65.9746 102.976 65.9746 108.401C65.9746 113.827 70.3731 118.226 75.7989 118.226Z" fill="#167491"/>
<path d="M179.425 118.226C184.851 118.226 189.25 113.827 189.25 108.401C189.25 102.976 184.851 98.577 179.425 98.577C174 98.577 169.601 102.976 169.601 108.401C169.601 113.827 174 118.226 179.425 118.226Z" fill="#167491"/>
<path d="M161.437 144.322H93.6936C88.2329 144.322 86.2496 150.764 90.1133 154.671C98.5876 163.157 110.05 172.781 127.54 172.781C145.029 172.781 156.491 163.079 164.966 154.671C168.881 150.764 166.898 144.322 161.437 144.322Z" fill="#167491"/>
</svg>
