<svg width="275" height="275" viewBox="0 0 275 275" fill="none" xmlns="http://www.w3.org/2000/svg">
<g clip-path="url(#clip0_10339_4516)">
<path fill-rule="evenodd" clip-rule="evenodd" d="M188.734 234.336C173.55 236.146 156.366 236.737 137.19 236.737C118.015 236.737 100.832 236.145 85.6491 234.333L85.6355 234.356L59.5438 271.857C58.0349 273.927 55.7715 274.993 53.5082 274.993C51.2448 274.993 48.9814 273.989 47.5354 271.983C33.5779 252.793 19.4318 227.959 10.1897 197.983C6.68443 186.637 3.89297 174.579 2.08224 161.829C0.496311 152.071 -0.301827 141.074 -0.310059 128.685C-0.310059 31.2305 55.6455 0 137.19 0C218.626 0 274.541 31.1475 274.689 128.296C274.69 128.425 274.69 128.555 274.69 128.685C274.69 129.019 274.689 129.352 274.688 129.685C274.649 140.977 273.945 151.103 272.577 160.179C266.189 207.372 246.325 245.213 226.845 271.982C223.89 276.058 217.729 275.995 214.836 271.856L188.745 234.354C188.741 234.348 188.738 234.342 188.734 234.336Z" fill="#0096FA"/>
<path d="M12.2012 204.252C21.8834 233.162 36.2809 256.491 47.5349 271.981C50.4899 276.057 56.6513 275.995 59.5434 271.856L85.635 234.354C49.8612 231.218 23.1408 220.871 12.2012 204.252Z" fill="url(#paint0_linear_10339_4516)"/>
<path d="M261.973 204.252C252.291 233.162 237.893 256.491 226.639 271.981C223.684 276.057 217.523 275.995 214.631 271.856L188.539 234.354C224.313 231.218 251.034 220.871 261.973 204.252Z" fill="url(#paint1_linear_10339_4516)"/>
<path fill-rule="evenodd" clip-rule="evenodd" d="M89.8799 183C89.8799 179.134 92.9445 178 96.7248 178C100.505 178 103.57 179.134 103.57 183H89.8799ZM170.11 183C170.11 179.134 173.174 178 176.955 178C180.735 178 183.8 179.134 183.8 183H170.11Z" fill="black"/>
</g>
<defs>
<linearGradient id="paint0_linear_10339_4516" x1="87.1793" y1="227.548" x2="15.5508" y2="243.647" gradientUnits="userSpaceOnUse">
<stop offset="0.0105566" stop-color="#0012FF" stop-opacity="0.2"/>
<stop offset="0.5203" stop-color="#0012FF" stop-opacity="0"/>
</linearGradient>
<linearGradient id="paint1_linear_10339_4516" x1="186.995" y1="227.548" x2="258.623" y2="243.647" gradientUnits="userSpaceOnUse">
<stop offset="0.0105566" stop-color="#0012FF" stop-opacity="0.2"/>
<stop offset="0.5203" stop-color="#0012FF" stop-opacity="0"/>
</linearGradient>
<clipPath id="clip0_10339_4516">
<rect width="275" height="275" fill="white"/>
</clipPath>
</defs>
</svg>
