<svg width="276" height="275" viewBox="0 0 276 275" fill="none" xmlns="http://www.w3.org/2000/svg">
<path fill-rule="evenodd" clip-rule="evenodd" d="M59.4016 41.8751C79.5418 27.1658 107.22 22 138.109 22C168.999 22 196.677 27.1658 216.817 41.8751C237.606 57.0584 248.994 81.3639 248.994 115.845H231.689C231.689 86.2438 222.245 68.2549 207.06 57.1645C191.225 45.6 167.787 40.5127 138.109 40.5127C108.431 40.5127 84.9929 45.6 69.1587 57.1645C53.9735 68.2549 44.5291 86.2438 44.5291 115.845H27.2241C27.2241 81.3639 38.6123 57.0584 59.4016 41.8751Z" fill="#0065FF"/>
<path d="M264.436 155.434L256.45 156.146L252.589 109.152L260.576 108.44C267.232 107.87 273.089 113.139 273.621 120.26L275.352 141.478C275.885 148.598 270.959 154.864 264.436 155.434Z" fill="#0065FF"/>
<path d="M264.835 141.905L263.504 124.674C261.64 102.032 243.004 85.2277 221.839 87.2214L229.826 186.478C250.991 184.627 266.566 164.548 264.835 141.905Z" fill="#0035B5"/>
<path d="M11.6496 155.434L19.6366 156.146L23.4968 109.152L15.5099 108.44C8.8541 107.87 2.99712 113.139 2.46466 120.26L0.734094 141.478C0.0685174 148.598 4.99388 154.864 11.6496 155.434Z" fill="#0065FF"/>
<path d="M138.11 225.783C202.138 225.783 234.485 215.672 234.485 144.469C234.485 71.1304 195.216 47.7757 138.11 47.7757C81.0034 47.7757 41.7344 71.2728 41.7344 144.469C41.7344 215.814 74.0814 225.783 138.11 225.783Z" fill="#0096FA"/>
<path d="M41.7344 144.611C41.7344 163.693 44.5298 181.067 49.0557 196.731C55.5784 219.231 65.4288 237.886 75.2794 252.412C76.3443 253.978 77.9416 254.69 79.4059 254.69C81.0033 254.69 82.6008 253.836 83.6657 252.269L102.036 224.073C113.084 204.563 104.831 175.228 91.3863 152.728C71.9515 120.259 41.7344 101.604 41.7344 144.611Z" fill="#0096FA"/>
<path d="M234.486 144.611C234.486 163.693 231.69 181.067 227.164 196.731C220.642 219.231 210.791 237.886 200.941 252.412C199.876 253.978 198.278 254.69 196.814 254.69C195.217 254.69 193.619 253.836 192.554 252.269L174.184 224.073C163.136 204.563 171.389 175.228 184.834 152.728C204.269 120.259 234.486 101.604 234.486 144.611Z" fill="#0096FA"/>
<path d="M225.699 201.432C218.91 223.22 208.794 240.735 200.94 252.413C198.81 255.546 194.55 255.403 192.553 252.27L174.184 224.074C199.342 221.653 218.112 213.963 225.699 201.432Z" fill="url(#paint0_linear_16670_98500)"/>
<path d="M50.5195 201.432C57.3084 223.22 67.4251 240.735 75.2789 252.413C77.4088 255.546 81.6685 255.403 83.6653 252.27L102.035 224.074C76.8763 221.653 58.1071 213.963 50.5195 201.432Z" fill="url(#paint1_linear_16670_98500)"/>
<path fill-rule="evenodd" clip-rule="evenodd" d="M114.625 177.365C114.833 176.79 114.947 176.166 114.947 175.513C114.947 172.682 112.801 170.387 110.155 170.387C107.508 170.387 105.362 172.682 105.362 175.513C105.362 176.166 105.476 176.79 105.684 177.365H114.625ZM170.533 177.365H161.593C161.385 176.79 161.271 176.166 161.271 175.513C161.271 172.682 163.416 170.387 166.063 170.387C168.71 170.387 170.855 172.682 170.855 175.513C170.855 176.166 170.741 176.79 170.533 177.365Z" fill="black"/>
<path d="M11.2492 141.905L12.5804 124.674C14.444 102.032 33.0802 85.2277 54.2455 87.2214C43.8798 109.617 39.9601 134.458 42.9265 158.958L46.2586 186.478C25.0933 184.627 9.38561 164.548 11.2492 141.905Z" fill="#0035B5"/>
<defs>
<linearGradient id="paint0_linear_16670_98500" x1="173.183" y1="218.944" x2="223.721" y2="229.534" gradientUnits="userSpaceOnUse">
<stop offset="0.0105566" stop-color="#0065FF" stop-opacity="0.2"/>
<stop offset="0.5203" stop-color="#0065FF" stop-opacity="0"/>
</linearGradient>
<linearGradient id="paint1_linear_16670_98500" x1="103.025" y1="218.944" x2="52.4853" y2="229.534" gradientUnits="userSpaceOnUse">
<stop offset="0.0105566" stop-color="#0065FF" stop-opacity="0.2"/>
<stop offset="0.5203" stop-color="#0065FF" stop-opacity="0"/>
</linearGradient>
</defs>
</svg>
