<svg width="288" height="276" viewBox="0 0 288 276" fill="none" xmlns="http://www.w3.org/2000/svg">
<path fill-rule="evenodd" clip-rule="evenodd" d="M62.1396 43.3889C83.1069 29.0394 111.922 24 144.08 24C176.238 24 205.053 29.0394 226.02 43.3889C247.663 58.2008 259.519 81.9116 259.519 115.549H241.503C241.503 86.6722 231.671 69.1233 215.862 58.3043C199.377 47.0227 174.977 42.0598 144.08 42.0598C113.183 42.0598 88.782 47.0227 72.2974 58.3043C56.4886 69.1233 46.6563 86.6722 46.6563 115.549H28.6406C28.6406 81.9116 40.4965 58.2008 62.1396 43.3889Z" fill="#0065FF"/>
<path d="M275.595 154.17L267.28 154.864L263.261 109.02L271.576 108.325C278.505 107.77 284.603 112.91 285.157 119.856L286.959 140.555C287.513 147.501 282.385 153.614 275.595 154.17Z" fill="#0065FF"/>
<path d="M276.011 140.972L274.625 124.162C272.685 102.074 253.283 85.6809 231.249 87.6258L239.563 184.455C261.598 182.649 277.812 163.061 276.011 140.972Z" fill="#0035B5"/>
<path d="M12.4266 154.17L20.7415 154.864L24.7603 109.02L16.4453 108.325C9.51623 107.77 3.41871 112.91 2.86438 119.856L1.06274 140.555C0.369829 147.501 5.49748 153.614 12.4266 154.17Z" fill="#0065FF"/>
<path d="M144.08 222.797C210.738 222.797 244.414 212.934 244.414 143.473C244.414 71.9285 203.532 49.1451 144.08 49.1451C84.6284 49.1451 43.7466 72.0674 43.7466 143.473C43.7466 213.073 77.4221 222.797 144.08 222.797Z" fill="#0096FA"/>
<path d="M43.7466 143.611C43.7466 162.227 46.6568 179.175 51.3686 194.457C58.1591 216.406 68.4142 234.605 78.6693 248.775C79.7779 250.303 81.4409 250.998 82.9653 250.998C84.6283 250.998 86.2914 250.164 87.4 248.636L106.524 221.13C118.027 202.097 109.434 173.479 95.4377 151.53C75.2047 119.856 43.7466 101.657 43.7466 143.611Z" fill="#0096FA"/>
<path d="M244.414 143.611C244.414 162.227 241.504 179.175 236.792 194.457C230.001 216.406 219.746 234.605 209.491 248.775C208.383 250.303 206.72 250.998 205.195 250.998C203.532 250.998 201.869 250.164 200.761 248.636L181.636 221.13C170.134 202.097 178.726 173.479 192.723 151.53C212.956 119.856 244.414 101.657 244.414 143.611Z" fill="#0096FA"/>
<path d="M235.267 199.042C228.199 220.297 217.667 237.384 209.491 248.776C207.273 251.832 202.839 251.694 200.76 248.637L181.636 221.131C207.828 218.769 227.368 211.267 235.267 199.042Z" fill="url(#paint0_linear_16670_98500)"/>
<path d="M52.8926 199.042C59.9603 220.297 70.4925 237.384 78.6688 248.776C80.8862 251.832 85.3209 251.694 87.3996 248.637L106.524 221.131C80.3318 218.769 60.7918 211.267 52.8926 199.042Z" fill="url(#paint1_linear_16670_98500)"/>
<path fill-rule="evenodd" clip-rule="evenodd" d="M119.631 175.564C119.848 175.004 119.966 174.395 119.966 173.758C119.966 170.996 117.733 168.757 114.977 168.757C112.222 168.757 109.988 170.996 109.988 173.758C109.988 174.395 110.107 175.004 110.324 175.564H119.631ZM177.836 175.564H168.528C168.311 175.004 168.193 174.395 168.193 173.758C168.193 170.996 170.426 168.757 173.182 168.757C175.937 168.757 178.171 170.996 178.171 173.758C178.171 174.395 178.052 175.004 177.836 175.564Z" fill="black"/>
<path d="M12.0098 140.972L13.3956 124.162C15.3358 102.074 34.7373 85.6809 56.7719 87.6259C46.0073 109.419 41.9259 133.909 45.0407 158.015L48.457 184.455C26.4224 182.649 10.0696 163.061 12.0098 140.972Z" fill="#0035B5"/>
<defs>
<linearGradient id="paint0_linear_16670_98500" x1="180.594" y1="216.126" x2="232.903" y2="227.823" gradientUnits="userSpaceOnUse">
<stop offset="0.0105566" stop-color="#0065FF" stop-opacity="0.2"/>
<stop offset="0.5203" stop-color="#0065FF" stop-opacity="0"/>
</linearGradient>
<linearGradient id="paint1_linear_16670_98500" x1="107.554" y1="216.126" x2="55.2446" y2="227.823" gradientUnits="userSpaceOnUse">
<stop offset="0.0105566" stop-color="#0065FF" stop-opacity="0.2"/>
<stop offset="0.5203" stop-color="#0065FF" stop-opacity="0"/>
</linearGradient>
</defs>
</svg>
