<svg width="301" height="273" viewBox="0 0 301 273" fill="none" xmlns="http://www.w3.org/2000/svg">
<g clip-path="url(#clip0_16670_98257)">
<path d="M140.831 244.236C234.287 244.236 281.424 230.453 281.424 133.154C281.424 32.9021 224.14 0.906738 140.831 0.906738C57.523 0.906738 0.238281 33.0662 0.238281 133.154C0.238281 230.453 47.3754 244.236 140.831 244.236Z" fill="#0096FA"/>
<path d="M64.07 126.758C67.9569 126.758 71.1079 123.599 71.1079 119.703C71.1079 115.806 67.9569 112.647 64.07 112.647C60.1832 112.647 57.0322 115.806 57.0322 119.703C57.0322 123.599 60.1832 126.758 64.07 126.758Z" fill="black"/>
<path d="M120.699 126.758C124.586 126.758 127.737 123.599 127.737 119.703C127.737 115.806 124.586 112.647 120.699 112.647C116.813 112.647 113.662 115.806 113.662 119.703C113.662 123.599 116.813 126.758 120.699 126.758Z" fill="black"/>
<path d="M134.519 107.412L114.636 131.382L127.724 142.293L147.607 118.323L134.519 107.412Z" fill="#0096FA"/>
<path d="M208.264 163.018L190.096 25.5194L244.107 30.2777C262.275 47.9983 275.86 71.2975 279.788 105.754L208.264 163.018Z" fill="url(#paint0_linear_16670_98257)"/>
<path d="M119.881 221.097L62.1055 183.359L94.5122 133.643L152.288 171.381L119.881 221.097Z" fill="url(#paint1_linear_16670_98257)"/>
<path d="M261.456 117.731C256.218 104.112 245.744 92.6264 231.177 86.2273C205.317 74.9058 174.383 84.9146 159.98 109.362C152.288 122.489 150.487 137.256 153.597 150.874C154.906 156.453 151.96 162.196 146.723 164.329C133.957 169.908 123.154 180.081 117.262 194.191C106.133 220.444 116.608 251.291 141.322 265.402C157.198 274.426 175.365 274.918 190.914 268.519L294.026 234.719C299.264 233.078 301.883 227.335 300.082 222.249L261.62 118.059C261.456 118.059 261.456 117.895 261.456 117.731Z" fill="#0035B5"/>
<path d="M187.477 172.698C211.7 146.282 239.688 115.107 274.222 79.0092C286.17 115.435 278.969 165.151 278.969 165.151C257.692 183.528 214.646 188.45 192.878 184.184C187.313 183.035 183.713 176.8 187.477 172.698Z" fill="#0096FA"/>
<path d="M165.054 226.351C123.973 196.816 73.8897 170.236 29.2076 139.553C12.0222 177.947 25.1159 225.859 59.323 236.031C84.8556 243.579 136.084 242.923 161.781 239.641C168.328 238.821 170.455 230.289 165.054 226.351Z" fill="#0096FA"/>
</g>
<defs>
<linearGradient id="paint0_linear_16670_98257" x1="243.107" y1="124.295" x2="182.509" y2="-10.3835" gradientUnits="userSpaceOnUse">
<stop offset="0.0783812" stop-color="#0035B5" stop-opacity="0.2"/>
<stop offset="0.4002" stop-color="#0035B5" stop-opacity="0"/>
</linearGradient>
<linearGradient id="paint1_linear_16670_98257" x1="100.391" y1="206.214" x2="107.312" y2="111.452" gradientUnits="userSpaceOnUse">
<stop offset="0.0783812" stop-color="#0035B5" stop-opacity="0.2"/>
<stop offset="0.4002" stop-color="#0035B5" stop-opacity="0"/>
</linearGradient>
<clipPath id="clip0_16670_98257">
<rect width="300.41" height="271.917" fill="white" transform="translate(0.238281 0.906738)"/>
</clipPath>
</defs>
</svg>
