<svg width="275" height="275" viewBox="0 0 275 275" fill="none" xmlns="http://www.w3.org/2000/svg">
<g clip-path="url(#clip0_288_18711)">
<path d="M128.701 236.611C214.252 236.611 257.402 223.889 257.402 134.075C257.402 41.5342 204.963 12 128.701 12C52.4393 12 0 41.6856 0 134.075C0 223.889 43.15 236.611 128.701 236.611Z" fill="#0096FA"/>
<path d="M58.4328 128.17C61.9909 128.17 64.8754 125.254 64.8754 121.657C64.8754 118.06 61.9909 115.145 58.4328 115.145C54.8746 115.145 51.9902 118.06 51.9902 121.657C51.9902 125.254 54.8746 128.17 58.4328 128.17Z" fill="black"/>
<path d="M110.273 128.17C113.831 128.17 116.715 125.254 116.715 121.657C116.715 118.06 113.831 115.145 110.273 115.145C106.714 115.145 103.83 118.06 103.83 121.657C103.83 125.254 106.714 128.17 110.273 128.17Z" fill="black"/>
<path d="M122.923 110.312L104.721 132.438L116.702 142.51L134.904 120.383L122.923 110.312Z" fill="#0096FA"/>
<path d="M190.43 161.641L173.799 34.7197L223.242 39.112C239.872 55.4694 252.308 76.9764 255.904 108.782L190.43 161.641Z" fill="url(#paint0_linear_288_18711)"/>
<path d="M109.523 215.253L56.6348 180.418L86.3004 134.526L139.189 169.362L109.523 215.253Z" fill="url(#paint1_linear_288_18711)"/>
<path d="M239.123 119.837C234.329 107.266 224.74 96.664 211.406 90.7571C187.733 80.3066 159.416 89.5454 146.231 112.113C139.189 124.229 137.541 137.86 140.388 150.431C141.586 155.581 138.89 160.882 134.095 162.851C122.409 168 112.52 177.391 107.126 190.416C96.9381 214.649 106.527 243.123 129.151 256.149C143.684 264.479 160.315 264.933 174.548 259.026L268.939 227.826C273.733 226.311 276.131 221.011 274.482 216.315L239.273 120.14C239.123 120.14 239.123 119.989 239.123 119.837Z" fill="#0035B5"/>
<path d="M171.402 170.577C193.577 146.192 219.197 117.415 250.81 84.0947C261.748 117.718 255.155 163.61 255.155 163.61C235.678 180.573 196.273 185.117 176.347 181.179C171.252 180.119 167.956 174.363 171.402 170.577Z" fill="#0096FA"/>
<path d="M150.875 220.101C113.269 192.839 67.4217 168.303 26.5191 139.98C10.7873 175.421 22.7735 219.647 54.0872 229.037C77.4601 236.005 124.356 235.399 147.879 232.369C153.872 231.612 155.819 223.736 150.875 220.101Z" fill="#0096FA"/>
</g>
<defs>
<linearGradient id="paint0_linear_288_18711" x1="222.326" y1="125.897" x2="166.08" y2="1.92942" gradientUnits="userSpaceOnUse">
<stop offset="0.0783812" stop-color="#0035B5" stop-opacity="0.2"/>
<stop offset="0.4002" stop-color="#0035B5" stop-opacity="0"/>
</linearGradient>
<linearGradient id="paint1_linear_288_18711" x1="91.6823" y1="201.515" x2="98.1236" y2="114.05" gradientUnits="userSpaceOnUse">
<stop offset="0.0783812" stop-color="#0035B5" stop-opacity="0.2"/>
<stop offset="0.4002" stop-color="#0035B5" stop-opacity="0"/>
</linearGradient>
<clipPath id="clip0_288_18711">
<rect width="275" height="251" fill="white" transform="translate(0 12)"/>
</clipPath>
</defs>
</svg>
