<svg width="302" height="276" viewBox="0 0 302 276" fill="none" xmlns="http://www.w3.org/2000/svg">
<path d="M187.8 237.485C263.224 237.485 301.328 224.047 301.328 129.416C301.328 31.9457 255.07 0.90686 187.8 0.90686C120.529 0.90686 74.2715 32.135 74.2715 129.416C74.1147 224.236 112.375 237.485 187.8 237.485Z" fill="#0096FA"/>
<path d="M150.637 235.972C129.625 234.079 110.808 228.402 94.0293 220.642C69.881 209.286 38.9901 191.684 23.9366 176.543C22.3685 174.84 21.5846 172.568 21.7414 170.297C21.8982 168.026 22.839 165.755 24.7206 164.619L77.5646 139.069C99.988 125.252 122.255 143.611 145.932 164.998C179.96 195.469 197.992 240.136 150.637 235.972Z" fill="#0096FA"/>
<path d="M301.328 129.605C301.328 154.966 298.035 178.057 292.704 198.875C285.02 228.779 273.417 253.572 261.813 272.877C260.558 274.959 258.677 275.905 256.952 275.905C255.07 275.905 253.188 274.77 251.934 272.688L230.295 235.214C217.28 209.285 227.002 170.296 242.839 140.393C265.733 97.2412 301.328 72.4479 301.328 129.605Z" fill="#0096FA"/>
<path d="M290.979 205.121C282.982 234.078 271.065 257.358 261.813 272.878C259.304 277.041 254.286 276.852 251.934 272.689L230.295 235.214C259.931 231.997 282.041 221.776 290.979 205.121Z" fill="url(#paint0_linear_16654_102258)"/>
<path d="M154.713 192.44C157.831 192.44 160.358 189.39 160.358 185.627C160.358 181.864 157.831 178.814 154.713 178.814C151.596 178.814 149.068 181.864 149.068 185.627C149.068 189.39 151.596 192.44 154.713 192.44Z" fill="black"/>
<path d="M220.416 192.44C223.534 192.44 226.061 189.39 226.061 185.627C226.061 181.864 223.534 178.814 220.416 178.814C217.298 178.814 214.771 181.864 214.771 185.627C214.771 189.39 217.298 192.44 220.416 192.44Z" fill="black"/>
<path fill-rule="evenodd" clip-rule="evenodd" d="M25.5362 205.763L8.44434 192.326L14.6529 180.821L31.7447 194.259L25.5362 205.763Z" fill="#0065FF"/>
<path fill-rule="evenodd" clip-rule="evenodd" d="M18.0099 219.958L0.917969 206.52L7.12649 195.016L24.2184 208.454L18.0099 219.958Z" fill="#0065FF"/>
<defs>
<linearGradient id="paint0_linear_16654_102258" x1="229.06" y1="228.402" x2="289.136" y2="239.56" gradientUnits="userSpaceOnUse">
<stop offset="0.0105566" stop-color="#0065FF" stop-opacity="0.2"/>
<stop offset="0.5203" stop-color="#0065FF" stop-opacity="0"/>
</linearGradient>
</defs>
</svg>
