<svg width="275" height="275" viewBox="0 0 275 275" fill="none" xmlns="http://www.w3.org/2000/svg">
<path d="M171.074 216.108C240.119 216.108 275 205.537 275 131.094C275 54.4172 232.654 30 171.074 30C109.494 30 67.1489 54.5661 67.1489 131.094C67.0053 205.686 102.03 216.108 171.074 216.108Z" fill="#0096FA"/>
<path d="M137.055 214.918C117.82 213.429 100.595 208.962 85.2359 202.858C63.1303 193.925 34.8522 180.078 21.072 168.167C19.6366 166.827 18.9189 165.04 19.0625 163.254C19.206 161.467 20.0672 159.68 21.7897 158.787L70.1639 138.687C90.6906 127.818 111.074 142.26 132.749 159.085C163.898 183.056 180.405 218.193 137.055 214.918Z" fill="#0096FA"/>
<path d="M275 131.243C275 151.193 271.986 169.358 267.105 185.735C260.072 209.259 249.449 228.763 238.827 243.95C237.679 245.587 235.956 246.332 234.377 246.332C232.655 246.332 230.932 245.439 229.784 243.801L209.975 214.321C198.061 193.924 206.96 163.253 221.458 139.729C242.416 105.783 275 86.2789 275 131.243Z" fill="#0096FA"/>
<path d="M265.526 190.648C258.206 213.428 247.296 231.741 238.827 243.95C236.531 247.226 231.937 247.077 229.784 243.802L209.975 214.322C237.105 211.791 257.344 203.751 265.526 190.648Z" fill="url(#paint0_linear_16654_102258)"/>
<path d="M140.787 180.673C143.641 180.673 145.954 178.274 145.954 175.313C145.954 172.353 143.641 169.953 140.787 169.953C137.933 169.953 135.619 172.353 135.619 175.313C135.619 178.274 137.933 180.673 140.787 180.673Z" fill="black"/>
<path d="M200.932 180.673C203.786 180.673 206.1 178.274 206.1 175.313C206.1 172.353 203.786 169.953 200.932 169.953C198.078 169.953 195.765 172.353 195.765 175.313C195.765 178.274 198.078 180.673 200.932 180.673Z" fill="black"/>
<path fill-rule="evenodd" clip-rule="evenodd" d="M22.5358 191.154L6.88965 180.583L12.573 171.533L28.2192 182.104L22.5358 191.154Z" fill="#0065FF"/>
<path fill-rule="evenodd" clip-rule="evenodd" d="M15.6462 202.32L0 191.749L5.68337 182.699L21.3296 193.27L15.6462 202.32Z" fill="#0065FF"/>
<defs>
<linearGradient id="paint0_linear_16654_102258" x1="208.845" y1="208.963" x2="263.197" y2="220.71" gradientUnits="userSpaceOnUse">
<stop offset="0.0105566" stop-color="#0065FF" stop-opacity="0.2"/>
<stop offset="0.5203" stop-color="#0065FF" stop-opacity="0"/>
</linearGradient>
</defs>
</svg>
