<svg width="256" height="275" viewBox="0 0 256 275" fill="none" xmlns="http://www.w3.org/2000/svg">
<path d="M182.325 6.18075C163.063 2.34028 143.466 0.424267 123.824 0.460967C88.5645 0.460967 59.1209 6.66343 40.7066 17.9582C3.46773 40.9097 -0.731604 89.1055 0.0889553 115.798C0.933648 143.407 7.32918 181.853 32.6941 208.159C53.0392 229.276 98.9905 240.668 131.982 240.716C134.444 240.697 136.886 241.164 139.167 242.091C141.448 243.018 143.524 244.386 145.275 246.117C147.027 247.848 148.419 249.908 149.372 252.178C150.325 254.449 150.821 256.885 150.83 259.347V271.969C150.83 272.386 150.95 272.794 151.175 273.145C151.4 273.495 151.722 273.773 152.101 273.946C152.48 274.119 152.901 274.18 153.313 274.12C153.725 274.061 154.112 273.884 154.426 273.611C165.07 264.343 176.364 254.303 187.514 243.998C190.241 241.585 193.041 238.906 195.841 236.348C209.211 224.281 223.04 211.562 232.621 197.95C243.819 182.07 251.083 162.28 254.342 139.135C257.121 117.341 256.305 95.2383 251.928 73.7079C244.809 38.0136 220.095 14.0485 182.325 6.18075Z" fill="#00C6D7"/>
<path opacity="0.25" d="M254.197 127.165C251.633 145.759 244.132 163.327 232.476 178.039C222.822 189.841 209.066 200.725 195.696 211.272C192.896 213.492 190.097 215.688 187.369 217.885C176.219 226.838 172.237 229.638 161.57 237.675C161.269 237.897 160.917 238.041 160.546 238.091C160.175 238.141 159.798 238.097 159.448 237.962C159.099 237.827 158.79 237.606 158.549 237.319C158.308 237.033 158.144 236.69 158.071 236.323L156.478 226.114C156.478 217.185 142.335 215.254 131.982 215.23C98.9904 215.23 53.0391 205.335 32.694 187.09C7.28083 164.235 0.93356 130.978 0.0888672 107.109C0.0888672 106.675 0.0888672 106.24 0.0888672 105.782C0.0888672 109.354 0.0888672 112.732 0.0888672 115.798C0.93356 143.407 7.32909 181.853 32.694 208.159C53.0391 229.276 98.9904 240.667 131.982 240.716C134.444 240.696 136.886 241.164 139.167 242.091C141.448 243.018 143.524 244.386 145.275 246.117C147.027 247.848 148.419 249.908 149.372 252.178C150.325 254.448 150.821 256.885 150.83 259.347V271.969C150.83 272.386 150.95 272.794 151.175 273.144C151.4 273.495 151.722 273.773 152.101 273.946C152.48 274.119 152.9 274.179 153.313 274.12C153.725 274.06 154.112 273.883 154.426 273.61C165.07 264.343 176.364 254.303 187.514 243.998C190.241 241.584 193.041 238.905 195.84 236.347C209.211 224.28 223.04 211.562 232.621 197.95C243.819 182.07 251.083 162.28 254.342 139.135C255.665 129.177 256.198 119.13 255.934 109.088C255.732 115.144 255.151 121.181 254.197 127.165Z" fill="#2D91AF"/>
<path opacity="0.2" d="M140.55 33.3799C156.526 38.8342 181.819 39.5341 201.319 52.0355C208.559 56.5727 218.937 59.131 221.785 54.5937C224.633 50.0565 224.078 42.9128 214.279 35.5037C203.057 27.0568 192.052 20.4923 151.796 16.1964C134.588 14.314 128.458 29.253 140.55 33.3799Z" fill="white"/>
<path opacity="0.2" d="M226.057 79.934C230.815 79.934 234.673 76.0766 234.673 71.3181C234.673 66.5597 230.815 62.7023 226.057 62.7023C221.298 62.7023 217.441 66.5597 217.441 71.3181C217.441 76.0766 221.298 79.934 226.057 79.934Z" fill="white"/>
<path d="M87.2593 105.379L73.8035 109.409C71.6967 110.04 70.4986 112.254 71.1276 114.354C71.7566 116.455 73.9744 117.646 76.0812 117.015L89.5369 112.986C91.6438 112.355 92.8418 110.141 92.2129 108.04C91.5839 105.94 89.3661 104.749 87.2593 105.379Z" fill="#167491"/>
<path d="M167.869 112.992L181.348 117.028C183.455 117.659 185.673 116.468 186.302 114.367C186.931 112.267 185.733 110.053 183.626 109.422L170.147 105.386C168.04 104.755 165.823 105.946 165.194 108.047C164.565 110.147 165.763 112.361 167.869 112.992Z" fill="#167491"/>
<path d="M161.412 131.095H93.6791C88.2192 131.095 86.2362 137.537 90.0993 141.443C98.5723 149.927 110.033 159.55 127.52 159.55C145.006 159.55 156.467 149.85 164.94 141.443C168.854 137.537 166.871 131.095 161.412 131.095Z" fill="#167491"/>
</svg>
