<svg width="275" height="275" viewBox="0 0 275 275" fill="none" xmlns="http://www.w3.org/2000/svg">
<g clip-path="url(#clip0_10339_4533)">
<path fill-rule="evenodd" clip-rule="evenodd" d="M189.044 234.336C173.86 236.146 156.676 236.737 137.5 236.737C118.325 236.737 101.142 236.145 85.9591 234.333L85.9455 234.356L59.8539 271.857C58.3449 273.927 56.0816 274.993 53.8182 274.993C51.5548 274.993 49.2915 273.989 47.8454 271.983C33.888 252.793 19.7419 227.959 10.4998 197.983C6.99449 186.637 4.20303 174.579 2.3923 161.829C0.806369 152.072 0.00823119 141.074 0 128.685C0 31.2305 55.9556 0 137.5 0C218.936 0 274.851 31.1475 274.999 128.296C275 128.425 275 128.555 275 128.685C275 129.019 274.999 129.352 274.998 129.685C274.959 140.977 274.255 151.103 272.887 160.179C266.499 207.372 246.635 245.213 227.155 271.982C224.2 276.058 218.039 275.995 215.147 271.856L189.055 234.354C189.051 234.348 189.048 234.342 189.044 234.336Z" fill="#0096FA"/>
<path d="M12.5107 204.252C22.1929 233.162 36.5905 256.491 47.8445 271.981C50.7995 276.057 56.9609 275.994 59.8529 271.855L85.9446 234.354C50.1707 231.218 23.4504 220.871 12.5107 204.252Z" fill="url(#paint0_linear_10339_4533)"/>
<path d="M262.283 204.252C252.601 233.162 238.203 256.491 226.949 271.981C223.994 276.057 217.833 275.994 214.941 271.855L188.849 234.354C224.623 231.218 251.344 220.871 262.283 204.252Z" fill="url(#paint1_linear_10339_4533)"/>
<path fill-rule="evenodd" clip-rule="evenodd" d="M170.749 176.993L184.747 176.994C184.682 181.438 181.573 185.018 177.748 185.018C173.923 185.018 170.814 181.438 170.749 176.993Z" fill="black"/>
<path fill-rule="evenodd" clip-rule="evenodd" d="M105.308 176.993L91.3099 176.994C91.375 181.438 94.4836 185.018 98.3088 185.018C102.134 185.018 105.243 181.438 105.308 176.993Z" fill="black"/>
<path d="M126.46 177.955C129.878 173.777 131.778 168.27 131.208 162.193C130.258 151.557 121.333 143.202 110.697 143.012C105 142.822 99.8706 144.91 95.8823 148.518C94.363 149.848 91.8941 150.039 90.1849 148.709C86.0067 145.481 80.6891 143.961 74.9916 144.531C64.3563 145.67 56.1899 154.786 56 165.422C56 172.259 59.039 178.335 63.9768 182.323L93.9832 210.052C95.5025 211.381 97.7819 211.381 99.1113 209.672L126.46 177.955Z" fill="#0035B5"/>
<path d="M146.78 177.954L173.938 209.671C175.267 211.19 177.737 211.38 179.066 210.051L209.072 182.322C214.01 178.334 217.239 172.258 217.049 165.421C216.859 154.785 208.693 145.669 198.058 144.53C192.36 143.96 187.043 145.67 182.864 148.708C181.155 150.038 178.686 149.847 177.167 148.517C173.369 145.099 168.049 143.011 162.352 143.011C151.717 143.201 142.791 151.556 141.841 162.192C141.272 168.269 143.172 173.776 146.78 177.954Z" fill="#0035B5"/>
<path fill-rule="evenodd" clip-rule="evenodd" d="M114.82 151.83L124.505 167.593L110.56 176.161L100.875 160.398L114.82 151.83Z" fill="#0065FF"/>
<path fill-rule="evenodd" clip-rule="evenodd" d="M202.219 153.411L211.715 169.175L197.695 177.62L188.199 161.856L202.219 153.411Z" fill="#0065FF"/>
</g>
<defs>
<linearGradient id="paint0_linear_10339_4533" x1="87.4889" y1="227.548" x2="15.8604" y2="243.646" gradientUnits="userSpaceOnUse">
<stop offset="0.0105566" stop-color="#0012FF" stop-opacity="0.2"/>
<stop offset="0.5203" stop-color="#0012FF" stop-opacity="0"/>
</linearGradient>
<linearGradient id="paint1_linear_10339_4533" x1="187.305" y1="227.548" x2="258.934" y2="243.646" gradientUnits="userSpaceOnUse">
<stop offset="0.0105566" stop-color="#0012FF" stop-opacity="0.2"/>
<stop offset="0.5203" stop-color="#0012FF" stop-opacity="0"/>
</linearGradient>
<clipPath id="clip0_10339_4533">
<rect width="275" height="275" fill="white"/>
</clipPath>
</defs>
</svg>
