<svg width="256" height="258" viewBox="0 0 256 258" fill="none" xmlns="http://www.w3.org/2000/svg">
<path d="M162.943 3.60191C160.491 3.58714 158.09 4.3008 156.044 5.65244C153.997 7.00408 152.399 8.93282 151.45 11.1942C150.501 13.4555 150.245 15.9476 150.715 18.3545C151.184 20.7615 152.358 22.9749 154.086 24.7141C155.815 26.4534 158.021 27.6401 160.425 28.124C162.829 28.6079 165.323 28.3671 167.59 27.4321C169.857 26.4971 171.795 24.91 173.159 22.8721C174.523 20.8341 175.252 18.4371 175.252 15.9848C175.252 12.7135 173.957 9.57515 171.651 7.25504C169.345 4.93493 166.215 3.62162 162.943 3.60191ZM162.943 20.0876C162.121 20.0949 161.316 19.8575 160.629 19.4054C159.943 18.9533 159.406 18.3071 159.088 17.5491C158.77 16.7911 158.685 15.9556 158.844 15.1491C159.002 14.3425 159.398 13.6014 159.979 13.0202C160.56 12.439 161.301 12.0439 162.108 11.8854C162.914 11.7268 163.75 11.8119 164.508 12.1299C165.266 12.4479 165.912 12.9843 166.364 13.6708C166.816 14.3573 167.053 15.1628 167.046 15.9848C167.036 17.0699 166.601 18.1078 165.834 18.8751C165.066 19.6425 164.028 20.0778 162.943 20.0876Z" fill="#10E5E5"/>
<path d="M7.16644 170.009C6.58283 170.622 6.26162 171.439 6.27129 172.285C6.25957 172.71 6.33268 173.134 6.48637 173.531C6.64005 173.928 6.87124 174.29 7.16644 174.597L7.39022 174.821L10.747 178.551C12.4771 180.425 13.4377 182.882 13.4377 185.432C13.4377 187.983 12.4771 190.44 10.747 192.314C10.4718 192.614 10.1379 192.856 9.76584 193.023C9.39377 193.189 8.99146 193.278 8.58376 193.283C8.15466 193.291 7.73077 193.188 7.35293 192.985C6.99732 192.831 6.67922 192.602 6.42048 192.314C5.84648 191.688 5.52804 190.869 5.52804 190.02C5.52804 189.17 5.84648 188.352 6.42048 187.726C6.99448 187.1 7.31292 186.282 7.31292 185.432C7.31292 184.583 6.99448 183.764 6.42048 183.138L2.69069 179.409C0.960671 177.535 0 175.078 0 172.527C0 169.977 0.960671 167.52 2.69069 165.646L6.42048 161.916C6.99448 161.29 7.31292 160.471 7.31292 159.622C7.31292 158.773 6.99448 157.954 6.42048 157.328L2.69069 153.598C0.960671 151.724 0 149.267 0 146.717C0 144.166 0.960671 141.71 2.69069 139.836L6.42048 136.106C6.99448 135.48 7.31292 134.661 7.31292 133.812C7.31292 132.963 6.99448 132.144 6.42048 131.518L2.69069 127.788C0.966095 125.904 0.00958472 123.442 0.00958472 120.888C0.00958472 118.334 0.966095 115.872 2.69069 113.988L7.39022 108.692L7.61401 108.431C8.06747 107.936 8.3657 107.318 8.47178 106.655C8.57786 105.992 8.48711 105.313 8.21078 104.701C7.84608 103.934 7.78568 103.057 8.04177 102.247C8.29786 101.438 8.85139 100.755 9.5908 100.337C9.94935 100.145 10.3443 100.03 10.7501 99.9993C11.1559 99.969 11.5635 100.024 11.9467 100.161C12.3298 100.298 12.6799 100.514 12.9744 100.795C13.2689 101.076 13.5012 101.415 13.6563 101.792C14.5196 103.615 14.8175 105.655 14.5118 107.649C14.206 109.643 13.3105 111.5 11.9406 112.981L7.16644 118.016C6.57716 118.64 6.25582 119.471 6.27129 120.329C6.26247 120.748 6.33705 121.166 6.49072 121.556C6.64438 121.947 6.87406 122.303 7.16644 122.604L7.39022 122.828L10.747 126.557L11.3811 127.303C12.8196 129.217 13.5437 131.573 13.4279 133.964C13.3121 136.355 12.3637 138.63 10.747 140.395L7.01725 144.125C6.43364 144.737 6.11243 145.554 6.1221 146.4C6.11038 146.826 6.18349 147.249 6.33718 147.646C6.49086 148.043 6.72205 148.406 7.01725 148.712L7.24103 148.936L10.5978 152.666C12.3279 154.54 13.2885 156.997 13.2885 159.547C13.2885 162.098 12.3279 164.555 10.5978 166.429L7.24103 170.159L7.01725 170.382L7.16644 170.009Z" fill="#F76556"/>
<path d="M250.021 161.844L244.538 158.114C241.902 156.26 240.087 153.455 239.475 150.291C238.863 147.126 239.501 143.847 241.256 141.144L244.985 135.586C245.576 134.692 245.794 133.602 245.592 132.55C245.39 131.497 244.784 130.566 243.904 129.954L238.421 126.224C235.779 124.375 233.956 121.574 233.337 118.409C232.718 115.244 233.351 111.962 235.102 109.254L240.025 101.794C240.481 101.073 240.707 100.231 240.673 99.3783C240.64 98.5258 240.349 97.7036 239.838 97.0202C239.449 96.6032 239.151 96.1097 238.963 95.5711C238.775 95.0325 238.702 94.4606 238.748 93.892C238.793 93.3235 238.957 92.7706 239.228 92.2689C239.499 91.7671 239.872 91.3274 240.323 90.9779C240.74 90.6567 241.217 90.4219 241.725 90.2872C242.234 90.1525 242.764 90.1208 243.285 90.1937C243.806 90.2666 244.307 90.4429 244.76 90.712C245.212 90.9812 245.605 91.3379 245.918 91.7612C247.46 93.8212 248.324 96.3093 248.391 98.8816C248.458 101.454 247.724 103.984 246.291 106.121L241.405 113.58C240.819 114.489 240.612 115.591 240.828 116.651C241.044 117.71 241.666 118.643 242.561 119.25L248.044 122.979C250.686 124.828 252.509 127.63 253.128 130.795C253.747 133.96 253.114 137.242 251.363 139.95L247.634 145.507C247.054 146.414 246.846 147.51 247.055 148.567C247.263 149.623 247.871 150.558 248.753 151.177L254.235 154.906C255.118 155.525 255.725 156.463 255.927 157.522C256.129 158.58 255.91 159.676 255.317 160.576C255.064 161.019 254.724 161.407 254.315 161.713C253.907 162.02 253.44 162.239 252.944 162.358C252.447 162.477 251.932 162.493 251.429 162.404C250.926 162.316 250.447 162.125 250.021 161.844Z" fill="#F9B42F"/>
<path d="M199.11 51.672C200.267 51.672 201.377 51.2123 202.196 50.3939C203.014 49.5755 203.474 48.4656 203.474 47.3082C203.474 46.1508 203.014 45.0409 202.196 44.2225C201.377 43.4041 200.267 42.9443 199.11 42.9443C197.953 42.9443 196.843 43.4041 196.024 44.2225C195.206 45.0409 194.746 46.1508 194.746 47.3082C194.746 48.4656 195.206 49.5755 196.024 50.3939C196.843 51.2123 197.953 51.672 199.11 51.672Z" fill="#21CC79"/>
<path d="M26.9861 80.1955C27.8492 80.1955 28.6929 79.9395 29.4105 79.46C30.1281 78.9805 30.6875 78.299 31.0178 77.5016C31.348 76.7042 31.4345 75.8268 31.2661 74.9803C31.0977 74.1338 30.6821 73.3562 30.0718 72.7459C29.4615 72.1356 28.6839 71.72 27.8374 71.5516C26.9909 71.3832 26.1135 71.4697 25.3161 71.8C24.5187 72.1302 23.8372 72.6896 23.3577 73.4072C22.8782 74.1248 22.6222 74.9685 22.6222 75.8316C22.6173 76.4061 22.7267 76.9758 22.9443 77.5075C23.1618 78.0392 23.4831 78.5222 23.8893 78.9284C24.2955 79.3346 24.7785 79.6559 25.3102 79.8734C25.8419 80.091 26.4116 80.2004 26.9861 80.1955Z" fill="#15AFB2"/>
<path d="M90.5125 30.6853C91.3755 30.6853 92.2192 30.4294 92.9369 29.9499C93.6545 29.4704 94.2138 28.7889 94.5441 27.9915C94.8744 27.1941 94.9608 26.3167 94.7924 25.4701C94.6241 24.6236 94.2085 23.8461 93.5982 23.2358C92.9879 22.6255 92.2103 22.2099 91.3638 22.0415C90.5173 21.8731 89.6399 21.9595 88.8425 22.2898C88.0451 22.6201 87.3635 23.1794 86.884 23.8971C86.4045 24.6147 86.1486 25.4584 86.1486 26.3215C86.1436 26.8959 86.2531 27.4656 86.4706 27.9973C86.6882 28.529 87.0094 29.0121 87.4157 29.4183C87.8219 29.8245 88.3049 30.1458 88.8366 30.3633C89.3683 30.5808 89.938 30.6903 90.5125 30.6853Z" fill="#167491"/>
<path d="M225.666 60.5242C226.529 60.5242 227.373 60.2683 228.091 59.7888C228.808 59.3093 229.367 58.6277 229.698 57.8303C230.028 57.0329 230.114 56.1555 229.946 55.309C229.778 54.4625 229.362 53.6849 228.752 53.0747C228.142 52.4644 227.364 52.0487 226.517 51.8804C225.671 51.712 224.794 51.7984 223.996 52.1287C223.199 52.459 222.517 53.0183 222.038 53.7359C221.558 54.4536 221.302 55.2973 221.302 56.1604C221.312 57.3147 221.775 58.419 222.591 59.2353C223.407 60.0516 224.512 60.5145 225.666 60.5242Z" fill="#15AFB2"/>
<path d="M127.273 9.3787C128.43 9.3787 129.54 8.91894 130.358 8.10056C131.177 7.28218 131.636 6.17222 131.636 5.01485C131.636 3.85749 131.177 2.74752 130.358 1.92914C129.54 1.11076 128.43 0.651001 127.273 0.651001C126.701 0.65098 126.136 0.764113 125.608 0.983871C125.081 1.20363 124.602 1.52566 124.2 1.93138C123.798 2.33709 123.48 2.81846 123.265 3.3477C123.049 3.87693 122.941 4.44355 122.946 5.01485C122.941 5.58615 123.049 6.15277 123.265 6.68201C123.48 7.21124 123.798 7.69261 124.2 8.09833C124.602 8.50404 125.081 8.82607 125.608 9.04583C126.136 9.26559 126.701 9.37872 127.273 9.3787Z" fill="#F66689"/>
<path d="M51.5726 39.1523L47.0222 36.8026L42.4719 39.1523C42.0764 39.355 41.6329 39.4451 41.1897 39.4128C40.7465 39.3805 40.3208 39.227 39.9589 38.969C39.5971 38.7111 39.3131 38.3587 39.1379 37.9503C38.9628 37.542 38.9033 37.0933 38.9659 36.6534L39.861 31.6927L36.1312 28.1867C35.8104 27.8789 35.5834 27.4863 35.4768 27.0547C35.3701 26.623 35.3882 26.1699 35.5288 25.7481C35.6694 25.3262 35.9268 24.9529 36.2711 24.6716C36.6155 24.3902 37.0326 24.2123 37.474 24.1586L42.5465 23.4499L44.8216 18.9369C45.024 18.5369 45.3333 18.2008 45.7152 17.966C46.0971 17.7312 46.5366 17.6069 46.9849 17.6069C47.4332 17.6069 47.8727 17.7312 48.2546 17.966C48.6365 18.2008 48.9458 18.5369 49.1482 18.9369L51.4234 23.4499L56.6078 24.1586C57.0492 24.2123 57.4663 24.3902 57.8106 24.6716C58.1549 24.9529 58.4123 25.3262 58.553 25.7481C58.6936 26.1699 58.7116 26.623 58.605 27.0547C58.4983 27.4863 58.2714 27.8789 57.9505 28.1867L54.2207 31.6927L55.0786 36.6534C55.1411 37.0933 55.0816 37.542 54.9065 37.9503C54.7314 38.3587 54.4474 38.7111 54.0855 38.969C53.7237 39.227 53.2979 39.3805 52.8547 39.4128C52.4115 39.4451 51.968 39.355 51.5726 39.1523Z" fill="#FFCF33"/>
<path d="M165.206 54.1794C150.558 51.2589 135.656 49.8018 120.719 49.8297C93.9054 49.8297 71.5149 54.5464 57.5117 63.1356C29.1932 80.5892 25.9998 117.24 26.6238 137.538C27.2661 158.534 32.1297 187.77 51.4185 207.775C66.89 223.833 101.834 232.496 126.922 232.533C128.795 232.518 130.652 232.873 132.386 233.578C134.121 234.283 135.7 235.324 137.032 236.64C138.363 237.956 139.422 239.523 140.147 241.249C140.872 242.976 141.249 244.828 141.256 246.701V256.3C141.256 256.616 141.347 256.927 141.518 257.193C141.689 257.46 141.934 257.671 142.222 257.803C142.51 257.934 142.83 257.98 143.144 257.935C143.457 257.89 143.751 257.755 143.99 257.548C152.084 250.5 160.673 242.865 169.152 235.029C171.226 233.193 173.355 231.156 175.484 229.211C185.651 220.034 196.168 210.362 203.454 200.011C211.969 187.935 217.494 172.886 219.971 155.285C222.085 138.712 221.465 121.904 218.136 105.531C212.722 78.3868 193.929 60.1624 165.206 54.1794Z" fill="#00C6D7"/>
<path opacity="0.25" d="M219.794 145.759C217.844 159.899 212.14 173.258 203.276 184.447C195.935 193.421 185.474 201.698 175.306 209.719C173.177 211.407 171.048 213.077 168.974 214.747C160.495 221.556 157.467 223.685 149.355 229.797C149.126 229.966 148.859 230.075 148.577 230.113C148.295 230.151 148.007 230.118 147.742 230.015C147.476 229.912 147.241 229.744 147.058 229.527C146.875 229.309 146.75 229.048 146.694 228.769L145.483 221.006C145.483 214.215 134.728 212.747 126.855 212.728C101.766 212.728 66.8224 205.204 51.3509 191.329C32.0253 173.949 27.1985 148.659 26.5562 130.508C26.5562 130.177 26.5562 129.847 26.5562 129.498C26.5562 132.214 26.5562 134.784 26.5562 137.115C27.1985 158.11 32.062 187.346 51.3509 207.351C66.8224 223.41 101.766 232.072 126.855 232.109C128.727 232.095 130.584 232.45 132.319 233.155C134.054 233.86 135.632 234.9 136.964 236.217C138.296 237.533 139.354 239.099 140.079 240.826C140.804 242.552 141.181 244.405 141.188 246.277V255.876C141.188 256.193 141.279 256.503 141.45 256.77C141.622 257.036 141.866 257.248 142.154 257.379C142.442 257.511 142.762 257.557 143.076 257.512C143.39 257.466 143.684 257.332 143.923 257.124C152.016 250.077 160.606 242.442 169.085 234.605C171.158 232.77 173.287 230.733 175.416 228.787C185.584 219.611 196.1 209.939 203.386 199.588C211.902 187.512 217.426 172.462 219.904 154.862C220.91 147.289 221.315 139.649 221.115 132.013C220.961 136.618 220.519 141.209 219.794 145.759Z" fill="#2D91AF"/>
<path opacity="0.2" d="M131.47 74.8634C143.62 79.0111 162.854 79.5433 177.683 89.0501C183.189 92.5005 191.08 94.4459 193.246 90.9955C195.412 87.5452 194.989 82.1127 187.538 76.4784C179.004 70.0549 170.635 65.0629 140.023 61.7961C126.937 60.3646 122.275 71.725 131.47 74.8634Z" fill="white"/>
<path opacity="0.2" d="M196.494 110.265C200.113 110.265 203.046 107.332 203.046 103.713C203.046 100.095 200.113 97.1615 196.494 97.1615C192.876 97.1615 189.942 100.095 189.942 103.713C189.942 107.332 192.876 110.265 196.494 110.265Z" fill="white"/>
<path d="M84.1879 139.164C88.3132 139.164 91.6575 135.819 91.6575 131.694C91.6575 127.569 88.3132 124.224 84.1879 124.224C80.0625 124.224 76.7183 127.569 76.7183 131.694C76.7183 135.819 80.0625 139.164 84.1879 139.164Z" fill="#167491"/>
<path d="M162.873 139.164C166.998 139.164 170.343 135.819 170.343 131.694C170.343 127.569 166.998 124.224 162.873 124.224C158.748 124.224 155.403 127.569 155.403 131.694C155.403 135.819 158.748 139.164 162.873 139.164Z" fill="#167491"/>
<path d="M149.3 158.022H97.7936C93.6417 158.022 92.1338 162.92 95.0714 165.89C101.515 172.342 110.23 179.66 123.527 179.66C136.825 179.66 145.54 172.283 151.983 165.89C154.96 162.92 153.452 158.022 149.3 158.022Z" fill="#167491"/>
</svg>
