<svg width="275" height="275" viewBox="0 0 275 275" fill="none" xmlns="http://www.w3.org/2000/svg">
<path d="M138.358 225.16C220.323 225.16 261.76 213.08 261.76 127.868C261.76 40.1876 211.49 12 138.358 12C65.2267 12 14.9568 40.0577 14.9568 127.868C14.827 213.08 56.2639 225.16 138.358 225.16Z" fill="#0096FA"/>
<mask id="mask0_16654_102260" style="mask-type:luminance" maskUnits="userSpaceOnUse" x="14" y="12" width="248" height="230">
<path d="M261.76 128.127C261.76 127.997 261.76 127.998 261.76 127.868C261.76 127.868 261.76 127.868 261.76 127.738C261.76 127.608 261.76 127.608 261.76 127.478C261.63 40.0576 211.36 12 138.359 12C65.2269 12 15.0869 40.0576 14.957 127.478C14.957 127.608 14.957 127.608 14.957 127.738C14.957 127.738 14.957 127.738 14.957 127.868C14.957 127.998 14.957 127.997 14.957 128.127C14.957 129.296 14.957 130.465 14.957 131.635C14.957 131.764 14.957 132.024 14.957 132.154C15.6065 170.733 24.0497 220.224 50.2888 231.525C70.6825 240.228 99.1299 241.267 120.693 241.007C126.278 240.877 128.876 234.123 124.719 230.356C122.771 228.667 120.823 226.849 118.874 224.9C125.109 225.16 131.604 225.16 138.229 225.16C144.983 225.16 151.478 225.03 157.583 224.9C155.635 226.719 153.556 228.537 151.738 230.356C147.581 234.123 150.179 241.007 155.765 241.007C177.328 241.267 205.775 240.358 226.168 231.525C252.537 220.224 260.981 170.733 261.5 132.154C261.5 132.024 261.5 131.764 261.5 131.635C261.76 130.465 261.76 129.296 261.76 128.127Z" fill="white"/>
</mask>
<g mask="url(#mask0_16654_102260)">
<path d="M278.906 93.1852H-2.31982V299.72H278.906V93.1852Z" fill="url(#paint0_radial_16654_102260)"/>
</g>
<path d="M113.419 147.742C116.79 147.742 119.524 145.008 119.524 141.637C119.524 138.265 116.79 135.531 113.419 135.531C110.047 135.531 107.313 138.265 107.313 141.637C107.313 145.008 110.047 147.742 113.419 147.742Z" fill="black"/>
<path d="M163.169 147.742C166.54 147.742 169.274 145.008 169.274 141.637C169.274 138.265 166.54 135.531 163.169 135.531C159.797 135.531 157.063 138.265 157.063 141.637C157.063 145.008 159.797 147.742 163.169 147.742Z" fill="black"/>
<path d="M167.715 263.739H109.002C103.027 263.739 98.0908 258.803 98.0908 252.828V157.094C98.0908 151.119 103.027 146.183 109.002 146.183H167.715C173.69 146.183 178.627 151.119 178.627 157.094V252.828C178.627 258.803 173.69 263.739 167.715 263.739Z" fill="#0066FF"/>
<path d="M168.105 263.739H108.483C102.767 263.739 98.0908 259.063 98.0908 253.348V166.577C98.0908 160.861 102.767 156.185 108.483 156.185H168.105C173.82 156.185 178.497 160.861 178.497 166.577V253.348C178.627 259.063 173.95 263.739 168.105 263.739Z" fill="#0035B5"/>
<path d="M111.6 177.228C114.613 177.228 117.055 174.786 117.055 171.773C117.055 168.759 114.613 166.317 111.6 166.317C108.587 166.317 106.144 168.759 106.144 171.773C106.144 174.786 108.587 177.228 111.6 177.228Z" fill="#0066FF"/>
<path d="M125.238 177.228C128.252 177.228 130.694 174.786 130.694 171.773C130.694 168.759 128.252 166.317 125.238 166.317C122.225 166.317 119.783 168.759 119.783 171.773C119.783 174.786 122.225 177.228 125.238 177.228Z" fill="#0066FF"/>
<path d="M111.6 190.088C114.613 190.088 117.055 187.645 117.055 184.632C117.055 181.619 114.613 179.177 111.6 179.177C108.587 179.177 106.144 181.619 106.144 184.632C106.144 187.645 108.587 190.088 111.6 190.088Z" fill="#0066FF"/>
<path d="M122.982 218.522C92.0049 193.269 47.9171 153.834 14.2407 127.428C14.2407 162.136 22.2098 209.297 49.3309 219.675C69.511 227.401 97.6605 228.324 118.997 228.093C124.524 227.978 127.095 221.866 122.982 218.522Z" fill="#0096FA"/>
<path d="M156.256 216.038C186.209 191.474 228.84 153.113 261.403 127.428C261.403 161.189 253.697 207.065 227.473 217.159C207.96 224.674 180.741 225.572 160.109 225.348C154.765 225.235 152.279 219.291 156.256 216.038Z" fill="#0096FA"/>
<defs>
<radialGradient id="paint0_radial_16654_102260" cx="0" cy="0" r="1" gradientUnits="userSpaceOnUse" gradientTransform="translate(138.23 196.523) scale(182.409 87.0869)">
<stop offset="0.000289352" stop-color="white"/>
<stop offset="0.9942" stop-color="white" stop-opacity="0"/>
</radialGradient>
</defs>
</svg>
