<svg width="256" height="274" viewBox="0 0 256 274" fill="none" xmlns="http://www.w3.org/2000/svg">
<path d="M182.357 5.7213C163.091 1.88016 143.491 -0.0361886 123.846 0.000517417C88.5801 0.000517417 59.1313 6.20407 40.7138 17.5008C3.46834 40.4564 -0.731732 88.6606 0.0889709 115.358C0.933812 142.972 7.33047 181.424 32.6999 207.735C53.0485 228.856 99.0078 240.249 132.005 240.298C134.468 240.279 136.91 240.746 139.192 241.673C141.473 242.6 143.549 243.968 145.301 245.7C147.053 247.431 148.445 249.491 149.398 251.762C150.352 254.033 150.848 256.47 150.857 258.932V271.557C150.857 271.973 150.976 272.381 151.202 272.732C151.427 273.083 151.748 273.361 152.127 273.534C152.507 273.707 152.927 273.767 153.34 273.708C153.752 273.648 154.139 273.471 154.454 273.198C165.099 263.929 176.395 253.887 187.547 243.58C190.275 241.167 193.075 238.487 195.875 235.929C209.248 223.859 223.079 211.138 232.662 197.524C243.862 181.641 251.128 161.848 254.386 138.699C257.166 116.901 256.35 94.7945 251.972 73.2603C244.852 37.5598 220.134 13.5904 182.357 5.7213Z" fill="#00C6D7"/>
<path opacity="0.25" d="M254.152 126.17C251.588 144.767 244.086 162.338 232.428 177.053C222.773 188.857 209.014 199.743 195.641 210.292C192.841 212.513 190.041 214.709 187.313 216.906C176.161 225.861 172.179 228.661 161.51 236.699C161.209 236.922 160.856 237.065 160.485 237.115C160.114 237.166 159.737 237.121 159.388 236.986C159.038 236.851 158.729 236.63 158.488 236.344C158.247 236.057 158.082 235.715 158.009 235.347L156.416 225.137C156.416 216.206 142.271 214.275 131.916 214.251C98.9189 214.251 52.9595 204.354 32.6109 186.105C7.19322 163.246 0.844841 129.984 0 106.111C0 105.676 0 105.242 0 104.783C0 108.356 0 111.735 0 114.801C0.844841 142.415 7.2415 180.867 32.6109 207.178C52.9595 228.299 98.9189 239.692 131.916 239.741C134.379 239.722 136.821 240.189 139.103 241.116C141.384 242.043 143.46 243.411 145.212 245.143C146.964 246.874 148.356 248.934 149.309 251.205C150.263 253.476 150.759 255.913 150.768 258.375V271C150.768 271.416 150.888 271.824 151.113 272.175C151.338 272.526 151.659 272.804 152.038 272.977C152.418 273.15 152.838 273.21 153.251 273.151C153.663 273.091 154.05 272.914 154.365 272.641C165.01 263.372 176.306 253.33 187.458 243.023C190.186 240.61 192.986 237.93 195.786 235.372C209.159 223.302 222.99 210.581 232.573 196.967C243.773 181.084 251.039 161.291 254.297 138.142C255.621 128.183 256.154 118.134 255.89 108.09C255.688 114.147 255.107 120.185 254.152 126.17Z" fill="#2D91AF"/>
<path opacity="0.2" d="M137.987 32.9256C153.966 38.3809 179.263 39.0809 198.767 51.5846C206.008 56.1226 216.388 58.6812 219.236 54.1432C222.085 49.6052 221.529 42.4603 211.729 35.0498C200.505 26.6014 189.498 20.0358 149.235 15.7392C132.025 13.8564 125.893 28.798 137.987 32.9256Z" fill="white"/>
<path opacity="0.2" d="M223.509 79.4877C228.269 79.4877 232.127 75.6296 232.127 70.8703C232.127 66.1111 228.269 62.2529 223.509 62.2529C218.75 62.2529 214.892 66.1111 214.892 70.8703C214.892 75.6296 218.75 79.4877 223.509 79.4877Z" fill="white"/>
<path d="M75.7989 117.496C81.2247 117.496 85.6232 113.097 85.6232 107.671C85.6232 102.246 81.2247 97.8472 75.7989 97.8472C70.3731 97.8472 65.9746 102.246 65.9746 107.671C65.9746 113.097 70.3731 117.496 75.7989 117.496Z" fill="#167491"/>
<path d="M128.028 163.855C123.982 163.848 119.947 163.436 115.984 162.625V169.859C115.955 171.483 116.25 173.096 116.851 174.604C117.453 176.112 118.349 177.486 119.487 178.644C120.625 179.802 121.982 180.722 123.48 181.35C124.977 181.978 126.585 182.301 128.209 182.301C129.814 182.301 131.404 181.985 132.887 181.37C134.37 180.756 135.718 179.855 136.853 178.72C137.988 177.585 138.888 176.237 139.503 174.754C140.117 173.271 140.433 171.681 140.433 170.076V161.703C136.346 162.478 132.187 163.957 128.028 163.855Z" fill="#FF4C4C"/>
<path d="M128.027 163.854H126.399V170.364C126.399 170.844 126.59 171.304 126.929 171.643C127.268 171.982 127.728 172.173 128.208 172.173C128.687 172.173 129.147 171.982 129.487 171.643C129.826 171.304 130.016 170.844 130.016 170.364V163.818L128.027 163.854Z" fill="#E93A40"/>
<path d="M128.029 163.854C113.019 163.854 100.18 158.646 96.093 150.87C95.689 150.04 95.6175 149.087 95.8931 148.206C96.1688 147.326 96.7708 146.583 97.5759 146.132C97.9957 145.904 98.4566 145.762 98.9317 145.713C99.4069 145.665 99.887 145.71 100.344 145.848C100.802 145.986 101.227 146.213 101.596 146.516C101.965 146.82 102.271 147.193 102.495 147.615C104.809 152.063 114.575 156.765 128.029 156.765C141.483 156.765 151.864 151.883 153.78 147.145C153.961 146.703 154.227 146.301 154.562 145.962C154.898 145.623 155.298 145.354 155.737 145.169C156.177 144.984 156.649 144.888 157.127 144.886C157.604 144.883 158.077 144.975 158.518 145.155C158.96 145.336 159.362 145.602 159.701 145.937C160.04 146.273 160.31 146.672 160.494 147.112C160.679 147.552 160.775 148.024 160.778 148.502C160.78 148.979 160.688 149.452 160.508 149.893C157.072 158.067 143.726 163.854 128.029 163.854Z" fill="#167491"/>
<path d="M186.968 113.156C186.009 113.156 185.089 112.775 184.411 112.097C183.732 111.418 183.351 110.498 183.351 109.539C183.408 108.899 183.331 108.255 183.125 107.646C182.919 107.038 182.589 106.479 182.155 106.005C181.721 105.531 181.194 105.153 180.606 104.894C180.018 104.635 179.382 104.501 178.74 104.501C178.098 104.501 177.462 104.635 176.874 104.894C176.286 105.153 175.759 105.531 175.325 106.005C174.891 106.479 174.561 107.038 174.355 107.646C174.149 108.255 174.072 108.899 174.129 109.539C174.129 110.498 173.748 111.418 173.069 112.097C172.391 112.775 171.471 113.156 170.512 113.156C169.553 113.156 168.633 112.775 167.954 112.097C167.276 111.418 166.895 110.498 166.895 109.539C166.806 107.929 167.046 106.317 167.601 104.802C168.156 103.288 169.015 101.902 170.123 100.731C171.232 99.5592 172.568 98.626 174.049 97.9882C175.531 97.3504 177.127 97.0215 178.74 97.0215C180.353 97.0215 181.949 97.3504 183.431 97.9882C184.912 98.626 186.248 99.5592 187.357 100.731C188.465 101.902 189.323 103.288 189.879 104.802C190.434 106.317 190.674 107.929 190.585 109.539C190.585 110.498 190.204 111.418 189.526 112.097C188.847 112.775 187.927 113.156 186.968 113.156Z" fill="#167491"/>
</svg>
