<svg width="275" height="275" viewBox="0 0 275 275" fill="none" xmlns="http://www.w3.org/2000/svg">
<g clip-path="url(#clip0_288_19028)">
<path d="M136.748 222.494C222.231 222.494 265.498 209.874 265.498 121.087C265.498 29.5953 213.066 0.300781 136.748 0.300781C60.43 0.300781 8 29.5953 8 121.087C8 209.874 51.2658 222.494 136.748 222.494Z" fill="#0096FA"/>
<path d="M99.4898 165.857C102.975 165.857 105.8 163.032 105.8 159.547C105.8 156.063 102.975 153.237 99.4898 153.237C96.005 153.237 93.1797 156.063 93.1797 159.547C93.1797 163.032 96.005 165.857 99.4898 165.857Z" fill="black"/>
<path d="M174.007 165.857C177.492 165.857 180.316 163.032 180.316 159.547C180.316 156.063 177.492 153.237 174.007 153.237C170.523 153.237 167.697 156.063 167.697 159.547C167.697 163.032 170.523 165.857 174.007 165.857Z" fill="black"/>
<path d="M187.827 161.95H85.8203V188.542H187.827V161.95Z" fill="#0096FA"/>
<mask id="mask0_288_19028" style="mask-type:luminance" maskUnits="userSpaceOnUse" x="8" y="0" width="258" height="239">
<path d="M265.498 121.238C265.498 121.088 265.498 121.088 265.498 120.937C265.498 120.937 265.498 120.938 265.498 120.788C265.498 120.637 265.498 120.637 265.498 120.487C265.348 29.2957 212.916 0 136.748 0C60.5802 0 8.15023 29.2957 8 120.487C8 120.637 8 120.637 8 120.788C8 120.788 8 120.787 8 120.937V121.087C8 122.289 8 123.491 8 124.693C8 124.843 8 125.144 8 125.295C8.60093 165.557 17.4641 217.087 44.9566 228.955C66.2897 238.119 95.8861 239.17 118.421 238.87C124.28 238.87 126.984 231.658 122.627 227.752C120.674 225.949 118.57 223.997 116.467 222.195C122.927 222.345 129.687 222.494 136.748 222.494C143.809 222.494 150.57 222.345 157.03 222.195C154.926 224.148 152.824 225.949 150.871 227.752C146.514 231.658 149.368 238.87 155.077 238.87C177.612 239.17 207.208 238.119 228.541 228.955C256.034 217.237 264.747 165.557 265.498 125.295C265.498 125.144 265.498 124.843 265.498 124.693C265.498 123.641 265.498 122.44 265.498 121.238Z" fill="white"/>
</mask>
<g mask="url(#mask0_288_19028)">
<path d="M283.525 84.8818H-9.87891V300.316H283.525V84.8818Z" fill="url(#paint0_radial_288_19028)"/>
</g>
<path d="M199.246 194.551L89.7262 172.767C84.0174 171.565 78.4591 175.321 77.2572 181.03L65.3883 240.521C64.1864 246.23 67.9422 251.79 73.651 252.992L183.171 274.776C188.88 275.978 194.438 272.222 195.64 266.513L207.509 207.02C208.711 201.311 205.105 195.753 199.246 194.551Z" fill="url(#paint1_linear_288_19028)"/>
<path d="M110.16 246.381C124.846 246.381 136.75 234.476 136.75 219.79C136.75 205.104 124.846 193.198 110.16 193.198C95.4739 193.198 83.5684 205.104 83.5684 219.79C83.5684 234.476 95.4739 246.381 110.16 246.381Z" fill="#C5D9FB"/>
<path d="M120.525 213.455C121.45 208.817 118.043 204.229 112.917 203.207C107.79 202.184 102.885 205.114 101.96 209.752C101.035 214.39 104.441 218.979 109.567 220.002C114.693 221.024 119.6 218.093 120.525 213.455Z" fill="#1968F0"/>
<path d="M105.051 245.931C112.262 247.433 119.474 245.63 125.183 241.574C123.981 233.461 117.82 226.55 109.257 224.747C100.694 223.095 92.4311 227.002 88.2246 234.213C91.8302 240.072 97.6896 244.429 105.051 245.931Z" fill="#1968F0"/>
<path d="M183.623 249.386L147.718 242.175C145.014 241.574 143.21 239.02 143.811 236.315L145.465 228.053C146.065 225.348 148.619 223.546 151.323 224.147L187.229 231.358C189.933 231.959 191.735 234.513 191.134 237.218L189.482 245.48C188.881 248.185 186.327 249.987 183.623 249.386Z" fill="#1968F0"/>
<path d="M171.755 223.697L149.82 219.34C148.318 219.039 147.417 217.688 147.718 216.185L148.017 214.982C148.318 213.48 149.67 212.579 151.173 212.88L173.106 217.236C174.609 217.536 175.511 218.889 175.21 220.392L174.909 221.593C174.609 223.095 173.107 223.997 171.755 223.697Z" fill="#C5D9FB"/>
<path d="M169.652 179.078L123.079 169.763C120.676 169.312 118.272 170.815 117.821 173.369L116.169 181.331C115.719 183.735 117.22 186.139 119.774 186.589L166.497 195.904C168.901 196.355 171.305 194.852 171.755 192.298L173.407 184.336C173.708 181.932 172.206 179.679 169.652 179.078Z" fill="#A3A3A3"/>
<path d="M122.627 227.752C90.0267 198.006 43.4549 151.735 8 120.637C8 161.5 16.4124 216.786 44.9566 228.955C66.2897 238.12 95.8861 239.171 118.421 238.87C124.13 238.87 126.984 231.658 122.627 227.752Z" fill="#0096FA"/>
<path d="M150.869 227.752C183.47 198.006 230.042 151.735 265.497 120.637C265.497 161.5 257.084 216.786 228.54 228.955C207.207 238.12 177.611 239.171 155.076 238.87C149.217 238.87 146.513 231.658 150.869 227.752Z" fill="#0096FA"/>
</g>
<defs>
<radialGradient id="paint0_radial_288_19028" cx="0" cy="0" r="1" gradientUnits="userSpaceOnUse" gradientTransform="translate(143.275 213.128) scale(158.254 70.5499)">
<stop stop-color="#0035B5"/>
<stop offset="0.047236" stop-color="#0035B5" stop-opacity="0.9528"/>
<stop offset="1" stop-color="#0035B5" stop-opacity="0"/>
</radialGradient>
<linearGradient id="paint1_linear_288_19028" x1="190.484" y1="280.934" x2="89.3044" y2="170.87" gradientUnits="userSpaceOnUse">
<stop stop-color="#C5D9FB"/>
<stop offset="0.1836" stop-color="#D9E4F9"/>
<stop offset="0.4073" stop-color="#E9EEF7"/>
<stop offset="0.66" stop-color="#F2F3F5"/>
<stop offset="1" stop-color="#F5F5F5"/>
</linearGradient>
<clipPath id="clip0_288_19028">
<rect width="257.498" height="275" fill="white" transform="translate(8)"/>
</clipPath>
</defs>
</svg>
