<svg width="275" height="275" viewBox="0 0 275 275" fill="none" xmlns="http://www.w3.org/2000/svg">
<g clip-path="url(#clip0_10339_4423)">
<path d="M136.748 222.494C222.231 222.494 265.498 209.874 265.498 121.087C265.498 29.5952 213.066 0.300766 136.748 0.300766C60.43 0.300766 8 29.5952 8 121.087C8 209.874 51.2658 222.494 136.748 222.494Z" fill="#0096FA"/>
<path d="M99.4907 165.857C102.976 165.857 105.801 163.032 105.801 159.547C105.801 156.063 102.976 153.237 99.4907 153.237C96.0059 153.237 93.1807 156.063 93.1807 159.547C93.1807 163.032 96.0059 165.857 99.4907 165.857Z" fill="black"/>
<path d="M174.007 165.857C177.492 165.857 180.315 163.032 180.315 159.547C180.315 156.063 177.492 153.237 174.007 153.237C170.522 153.237 167.697 156.063 167.697 159.547C167.697 163.032 170.522 165.857 174.007 165.857Z" fill="black"/>
<path d="M187.827 161.951H85.8203V188.542H187.827V161.951Z" fill="#0096FA"/>
<mask id="mask0_10339_4423" style="mask-type:luminance" maskUnits="userSpaceOnUse" x="8" y="0" width="258" height="239">
<path d="M265.498 121.238C265.498 121.088 265.498 121.088 265.498 120.937C265.498 120.937 265.498 120.938 265.498 120.788C265.498 120.637 265.498 120.637 265.498 120.487C265.348 29.2957 212.916 0 136.748 0C60.5802 0 8.15023 29.2957 8 120.487C8 120.637 8 120.637 8 120.788C8 120.788 8 120.787 8 120.937V121.087C8 122.289 8 123.491 8 124.693C8 124.843 8 125.144 8 125.295C8.60093 165.557 17.4641 217.087 44.9566 228.955C66.2897 238.119 95.8861 239.17 118.421 238.87C124.28 238.87 126.984 231.658 122.627 227.752C120.674 225.949 118.57 223.997 116.467 222.195C122.927 222.345 129.687 222.494 136.748 222.494C143.809 222.494 150.57 222.345 157.03 222.195C154.926 224.148 152.824 225.949 150.871 227.752C146.514 231.658 149.368 238.87 155.077 238.87C177.612 239.17 207.208 238.119 228.541 228.955C256.034 217.237 264.747 165.557 265.498 125.295C265.498 125.144 265.498 124.843 265.498 124.693C265.498 123.641 265.498 122.44 265.498 121.238Z" fill="white"/>
</mask>
<g mask="url(#mask0_10339_4423)">
<path d="M283.526 84.8814H-9.87842V300.316H283.526V84.8814Z" fill="url(#paint0_radial_10339_4423)"/>
</g>
<path d="M199.245 194.551L89.7253 172.767C84.0164 171.565 78.4581 175.321 77.2562 181.03L65.3873 240.522C64.1854 246.23 67.9412 251.79 73.6501 252.992L183.17 274.776C188.879 275.978 194.437 272.222 195.639 266.513L207.508 207.02C208.71 201.311 205.105 195.753 199.245 194.551Z" fill="url(#paint1_linear_10339_4423)"/>
<path d="M110.158 246.382C124.844 246.382 136.748 234.476 136.748 219.79C136.748 205.104 124.844 193.199 110.158 193.199C95.4725 193.199 83.5669 205.104 83.5669 219.79C83.5669 234.476 95.4725 246.382 110.158 246.382Z" fill="#C5D9FB"/>
<path d="M120.523 213.456C121.448 208.818 118.041 204.23 112.915 203.207C107.788 202.185 102.883 205.115 101.958 209.753C101.033 214.391 104.439 218.98 109.565 220.002C114.691 221.025 119.598 218.094 120.523 213.456Z" fill="#1968F0"/>
<path d="M105.049 245.932C112.261 247.434 119.472 245.631 125.181 241.574C123.979 233.462 117.819 226.551 109.256 224.748C100.692 223.095 92.4297 227.003 88.2231 234.214C91.8287 240.073 97.6881 244.429 105.049 245.932Z" fill="#1968F0"/>
<path d="M183.621 249.386L147.716 242.175C145.012 241.574 143.208 239.02 143.809 236.316L145.463 228.053C146.063 225.349 148.617 223.547 151.321 224.147L187.227 231.358C189.931 231.959 191.733 234.514 191.132 237.218L189.48 245.481C188.879 248.185 186.325 249.987 183.621 249.386Z" fill="#1968F0"/>
<path d="M171.754 223.697L149.819 219.34C148.317 219.04 147.416 217.688 147.717 216.186L148.016 214.983C148.317 213.481 149.67 212.58 151.172 212.88L173.105 217.236C174.608 217.537 175.51 218.89 175.209 220.392L174.908 221.594C174.608 223.096 173.106 223.998 171.754 223.697Z" fill="#C5D9FB"/>
<path d="M169.65 179.078L123.078 169.763C120.674 169.312 118.271 170.815 117.82 173.369L116.168 181.331C115.717 183.735 117.219 186.139 119.773 186.589L166.496 195.904C168.9 196.355 171.303 194.852 171.754 192.298L173.406 184.336C173.706 181.932 172.204 179.679 169.65 179.078Z" fill="#A3A3A3"/>
<path d="M122.627 227.752C90.0267 198.006 43.4549 151.735 8 120.637C8 161.5 16.4124 216.786 44.9566 228.955C66.2897 238.119 95.8861 239.17 118.421 238.87C124.13 238.87 126.984 231.658 122.627 227.752Z" fill="#0096FA"/>
<path d="M150.87 227.752C183.47 198.006 230.042 151.735 265.497 120.637C265.497 161.5 257.085 216.786 228.541 228.955C207.207 238.119 177.611 239.17 155.076 238.87C149.217 238.87 146.513 231.658 150.87 227.752Z" fill="#0096FA"/>
</g>
<defs>
<radialGradient id="paint0_radial_10339_4423" cx="0" cy="0" r="1" gradientUnits="userSpaceOnUse" gradientTransform="translate(143.275 213.127) scale(158.254 70.5499)">
<stop stop-color="#0035B5"/>
<stop offset="0.047236" stop-color="#0035B5" stop-opacity="0.9528"/>
<stop offset="1" stop-color="#0035B5" stop-opacity="0"/>
</radialGradient>
<linearGradient id="paint1_linear_10339_4423" x1="190.483" y1="280.934" x2="89.3034" y2="170.87" gradientUnits="userSpaceOnUse">
<stop stop-color="#C5D9FB"/>
<stop offset="0.1836" stop-color="#D9E4F9"/>
<stop offset="0.4073" stop-color="#E9EEF7"/>
<stop offset="0.66" stop-color="#F2F3F5"/>
<stop offset="1" stop-color="#F5F5F5"/>
</linearGradient>
<clipPath id="clip0_10339_4423">
<rect width="257.498" height="275" fill="white" transform="translate(8)"/>
</clipPath>
</defs>
</svg>
