<svg width="256" height="275" viewBox="0 0 256 275" fill="none" xmlns="http://www.w3.org/2000/svg">
<path d="M182.357 6.20775C163.091 2.36661 143.491 0.450262 123.846 0.486968C88.5801 0.486968 59.1313 6.69052 40.7138 17.9873C3.46834 40.9428 -0.731732 89.147 0.0889709 115.844C0.933812 143.458 7.33047 181.911 32.6999 208.221C53.0485 229.342 99.0078 240.736 132.005 240.784C134.468 240.765 136.91 241.232 139.192 242.159C141.473 243.086 143.549 244.455 145.301 246.186C147.053 247.918 148.445 249.978 149.398 252.249C150.352 254.519 150.848 256.956 150.857 259.419V272.043C150.857 272.46 150.976 272.868 151.202 273.218C151.427 273.569 151.748 273.847 152.127 274.02C152.507 274.193 152.927 274.254 153.34 274.194C153.752 274.135 154.139 273.958 154.454 273.685C165.099 264.415 176.395 254.374 187.547 244.067C190.275 241.653 193.075 238.974 195.875 236.415C209.248 224.346 223.079 211.625 232.662 198.011C243.862 182.128 251.128 162.334 254.386 139.186C257.166 117.388 256.35 95.281 251.972 73.7468C244.852 38.0462 220.134 14.0768 182.357 6.20775Z" fill="#00C6D7"/>
<path opacity="0.25" d="M254.152 126.656C251.588 145.254 244.086 162.825 232.428 177.54C222.773 189.343 209.014 200.23 195.641 210.778C192.841 212.999 190.041 215.196 187.313 217.392C176.161 226.347 172.179 229.148 161.51 237.186C161.209 237.408 160.856 237.552 160.485 237.602C160.114 237.652 159.737 237.608 159.388 237.473C159.038 237.338 158.729 237.117 158.488 236.83C158.247 236.544 158.082 236.201 158.009 235.834L156.416 225.623C156.416 216.692 142.271 214.761 131.916 214.737C98.9189 214.737 52.9595 204.84 32.6109 186.592C7.19322 163.733 0.844841 130.47 0 106.597C0 106.163 0 105.728 0 105.27C0 108.842 0 112.221 0 115.287C0.844841 142.901 7.2415 181.354 32.6109 207.664C52.9595 228.785 98.9189 240.179 131.916 240.227C134.379 240.208 136.821 240.675 139.103 241.602C141.384 242.529 143.46 243.898 145.212 245.629C146.964 247.361 148.356 249.421 149.309 251.692C150.263 253.962 150.759 256.399 150.768 258.862V271.486C150.768 271.903 150.888 272.311 151.113 272.661C151.338 273.012 151.659 273.29 152.038 273.463C152.418 273.636 152.838 273.697 153.251 273.637C153.663 273.578 154.05 273.401 154.365 273.128C165.01 263.858 176.306 253.817 187.458 243.51C190.186 241.096 192.986 238.417 195.786 235.858C209.159 223.789 222.99 211.068 232.573 197.454C243.773 181.571 251.039 161.777 254.297 138.629C255.621 128.669 256.154 118.62 255.89 108.577C255.688 114.633 255.107 120.672 254.152 126.656Z" fill="#2D91AF"/>
<path opacity="0.2" d="M137.987 33.4121C153.966 38.8674 179.263 39.5674 198.767 52.071C206.008 56.609 216.388 59.1677 219.236 54.6297C222.085 50.0917 221.529 42.9467 211.729 35.5363C200.505 27.0879 189.498 20.5222 149.235 16.2256C132.025 14.3428 125.893 29.2844 137.987 33.4121Z" fill="white"/>
<path opacity="0.2" d="M223.508 79.9741C228.268 79.9741 232.126 76.116 232.126 71.3568C232.126 66.5975 228.268 62.7394 223.508 62.7394C218.749 62.7394 214.891 66.5975 214.891 71.3568C214.891 76.116 218.749 79.9741 223.508 79.9741Z" fill="white"/>
<path fill-rule="evenodd" clip-rule="evenodd" d="M165.934 106.565H192.879C193.976 106.574 195.025 107.017 195.797 107.796C196.569 108.574 197.002 109.627 197.002 110.724C197.002 111.821 196.569 112.873 195.797 113.652C195.025 114.431 193.976 114.874 192.879 114.883H165.934C165.382 114.893 164.833 114.792 164.32 114.588C163.807 114.383 163.34 114.078 162.946 113.691C162.552 113.304 162.24 112.842 162.026 112.332C161.812 111.823 161.703 111.276 161.703 110.724C161.703 109.621 162.141 108.563 162.921 107.783C163.701 107.003 164.759 106.565 165.862 106.565H165.934Z" fill="#167491"/>
<path fill-rule="evenodd" clip-rule="evenodd" d="M62.336 106.564H89.2809C89.8332 106.554 90.3818 106.655 90.8948 106.86C91.4079 107.064 91.875 107.369 92.2689 107.756C92.6628 108.144 92.9756 108.605 93.1892 109.115C93.4027 109.624 93.5126 110.171 93.5126 110.723C93.5126 111.826 93.0744 112.884 92.2943 113.664C91.5143 114.444 90.4564 114.883 89.3533 114.883H62.336C61.2392 114.873 60.1905 114.431 59.4183 113.652C58.6461 112.873 58.2128 111.82 58.2129 110.723C58.2128 109.626 58.6461 108.574 59.4183 107.795C60.1905 107.016 61.2392 106.574 62.336 106.564Z" fill="#167491"/>
<path d="M158.813 150.546H98.0509C97.0916 150.546 96.1717 150.927 95.4934 151.606C94.8151 152.284 94.4341 153.204 94.4341 154.163C94.4341 155.122 94.8151 156.042 95.4934 156.721C96.1717 157.399 97.0916 157.78 98.0509 157.78H158.813C159.772 157.78 160.692 157.399 161.37 156.721C162.048 156.042 162.429 155.122 162.429 154.163C162.429 153.204 162.048 152.284 161.37 151.606C160.692 150.927 159.772 150.546 158.813 150.546Z" fill="#167491"/>
</svg>
