<svg width="297" height="275" viewBox="0 0 297 275" fill="none" xmlns="http://www.w3.org/2000/svg">
<path fill-rule="evenodd" clip-rule="evenodd" d="M199.74 234.155C184.705 235.956 167.689 236.545 148.7 236.545C129.713 236.545 112.699 235.956 97.6643 234.151L97.6508 234.174L71.8147 271.509C70.3205 273.57 68.0793 274.631 65.8381 274.631C63.5969 274.631 61.3557 273.632 59.9238 271.634C46.103 252.529 32.0954 227.806 22.9438 197.962C19.4729 186.667 16.7087 174.662 14.9157 161.969C13.3453 152.255 12.555 141.306 12.5469 128.972C12.5469 31.9499 67.9546 0.85791 148.7 0.85791C229.339 0.85791 284.706 31.8672 284.854 128.585C284.854 128.714 284.854 128.842 284.854 128.972C284.854 129.304 284.854 129.636 284.852 129.967C284.813 141.21 284.116 151.29 282.762 160.326C276.437 207.31 256.767 244.983 237.478 271.633C234.552 275.691 228.451 275.629 225.587 271.508L199.751 234.173C199.747 234.167 199.743 234.161 199.74 234.155Z" fill="#0096FA"/>
<path d="M24.9355 204.204C34.5229 232.986 48.7795 256.211 59.9233 271.632C62.8494 275.691 68.9504 275.628 71.8142 271.508L97.6504 234.172C62.2268 231.051 35.7681 220.749 24.9355 204.204Z" fill="url(#paint0_linear_10339_5346)"/>
<path d="M272.262 204.204C262.675 232.986 248.418 256.211 237.274 271.632C234.348 275.691 228.247 275.628 225.384 271.508L199.547 234.172C234.971 231.051 261.43 220.749 272.262 204.204Z" fill="url(#paint1_linear_10339_5346)"/>
<path fill-rule="evenodd" clip-rule="evenodd" d="M199.079 181.22C199.404 183.406 197.897 185.441 195.712 185.767L184.582 187.425C182.397 187.75 180.362 186.242 180.036 184.057C179.711 181.871 181.219 179.836 183.404 179.51L194.534 177.853C196.719 177.527 198.754 179.035 199.079 181.22Z" fill="black"/>
<path fill-rule="evenodd" clip-rule="evenodd" d="M97.166 181.22C96.8408 183.406 98.3484 185.441 100.533 185.767L111.663 187.425C113.849 187.75 115.884 186.242 116.209 184.057C116.534 181.871 115.026 179.836 112.841 179.51L101.711 177.853C99.5264 177.527 97.4913 179.035 97.166 181.22Z" fill="black"/>
<defs>
<linearGradient id="paint0_linear_10339_5346" x1="99.1796" y1="227.397" x2="28.2158" y2="243.26" gradientUnits="userSpaceOnUse">
<stop offset="0.0105566" stop-color="#0012FF" stop-opacity="0.2"/>
<stop offset="0.5203" stop-color="#0012FF" stop-opacity="0"/>
</linearGradient>
<linearGradient id="paint1_linear_10339_5346" x1="198.018" y1="227.397" x2="268.982" y2="243.26" gradientUnits="userSpaceOnUse">
<stop offset="0.0105566" stop-color="#0012FF" stop-opacity="0.2"/>
<stop offset="0.5203" stop-color="#0012FF" stop-opacity="0"/>
</linearGradient>
</defs>
</svg>
