<svg width="256" height="274" viewBox="0 0 256 274" fill="none" xmlns="http://www.w3.org/2000/svg">
<path d="M182.357 5.94445C163.091 2.10331 143.491 0.186956 123.846 0.223662C88.5801 0.223662 59.1313 6.42721 40.7138 17.724C3.46834 40.6795 -0.731732 88.8837 0.0889709 115.581C0.933812 143.195 7.33047 181.647 32.6999 207.958C53.0485 229.079 99.0078 240.472 132.005 240.521C134.468 240.502 136.91 240.969 139.192 241.896C141.473 242.823 143.549 244.192 145.301 245.923C147.053 247.654 148.445 249.714 149.398 251.985C150.352 254.256 150.848 256.693 150.857 259.156V271.78C150.857 272.197 150.976 272.605 151.202 272.955C151.427 273.306 151.748 273.584 152.127 273.757C152.507 273.93 152.927 273.99 153.34 273.931C153.752 273.871 154.139 273.694 154.454 273.421C165.099 264.152 176.395 254.111 187.547 243.804C190.275 241.39 193.075 238.71 195.875 236.152C209.248 224.083 223.079 211.362 232.662 197.748C243.862 181.865 251.128 162.071 254.386 138.923C257.166 117.124 256.35 95.0177 251.972 73.4835C244.852 37.7829 220.134 13.8135 182.357 5.94445Z" fill="#00C6D7"/>
<path opacity="0.25" d="M254.152 126.393C251.588 144.991 244.086 162.561 232.428 177.276C222.773 189.08 209.014 199.967 195.641 210.515C192.841 212.736 190.041 214.932 187.313 217.129C176.161 226.084 172.179 228.884 161.51 236.922C161.209 237.145 160.856 237.288 160.485 237.339C160.114 237.389 159.737 237.344 159.388 237.209C159.038 237.075 158.729 236.854 158.488 236.567C158.247 236.281 158.082 235.938 158.009 235.571L156.416 225.36C156.416 216.429 142.271 214.498 131.916 214.474C98.9189 214.474 52.9595 204.577 32.6109 186.328C7.19322 163.469 0.844841 130.207 0 106.334C0 105.899 0 105.465 0 105.006C0 108.579 0 111.958 0 115.024C0.844841 142.638 7.2415 181.09 32.6109 207.401C52.9595 228.522 98.9189 239.915 131.916 239.964C134.379 239.945 136.821 240.412 139.103 241.339C141.384 242.266 143.46 243.635 145.212 245.366C146.964 247.097 148.356 249.157 149.309 251.428C150.263 253.699 150.759 256.136 150.768 258.598V271.223C150.768 271.64 150.888 272.048 151.113 272.398C151.338 272.749 151.659 273.027 152.038 273.2C152.418 273.373 152.838 273.433 153.251 273.374C153.663 273.314 154.05 273.137 154.365 272.864C165.01 263.595 176.306 253.554 187.458 243.247C190.186 240.833 192.986 238.153 195.786 235.595C209.159 223.526 222.99 210.805 232.573 197.191C243.773 181.308 251.039 161.514 254.297 138.366C255.621 128.406 256.154 118.357 255.89 108.313C255.688 114.37 255.107 120.408 254.152 126.393Z" fill="#2D91AF"/>
<path opacity="0.2" d="M137.987 33.1487C153.966 38.604 179.263 39.304 198.767 51.8077C206.008 56.3457 216.388 58.9043 219.236 54.3663C222.085 49.8283 221.529 42.6834 211.729 35.2729C200.505 26.8245 189.498 20.2589 149.235 15.9622C132.025 14.0795 125.893 29.0211 137.987 33.1487Z" fill="white"/>
<path opacity="0.2" d="M223.508 79.7108C228.268 79.7108 232.126 75.8527 232.126 71.0935C232.126 66.3342 228.268 62.4761 223.508 62.4761C218.749 62.4761 214.891 66.3342 214.891 71.0935C214.891 75.8527 218.749 79.7108 223.508 79.7108Z" fill="white"/>
<path d="M75.7994 117.719C81.2252 117.719 85.6237 113.32 85.6237 107.895C85.6237 102.469 81.2252 98.0703 75.7994 98.0703C70.3736 98.0703 65.9751 102.469 65.9751 107.895C65.9751 113.32 70.3736 117.719 75.7994 117.719Z" fill="#167491"/>
<path d="M179.289 117.719C184.714 117.719 189.113 113.32 189.113 107.895C189.113 102.469 184.714 98.0703 179.289 98.0703C173.863 98.0703 169.464 102.469 169.464 107.895C169.464 113.32 173.863 117.719 179.289 117.719Z" fill="#167491"/>
<path d="M158.813 150.283H98.0513C97.0921 150.283 96.1722 150.664 95.4939 151.343C94.8156 152.021 94.4346 152.941 94.4346 153.9C94.4346 154.859 94.8156 155.779 95.4939 156.457C96.1722 157.136 97.0921 157.517 98.0513 157.517H158.813C159.772 157.517 160.692 157.136 161.371 156.457C162.049 155.779 162.43 154.859 162.43 153.9C162.43 152.941 162.049 152.021 161.371 151.343C160.692 150.664 159.772 150.283 158.813 150.283Z" fill="#167491"/>
<path fill-rule="evenodd" clip-rule="evenodd" d="M196.72 91.6346C188.667 79.579 173.977 78.4472 164.76 89.1722L163.619 90.4996C162.55 91.7443 160.861 91.6882 159.847 90.3743C158.834 89.0605 158.88 86.9863 159.949 85.7415L161.09 84.4142C172.555 71.0733 190.828 72.4812 200.845 87.4772L201.2 88.0081C202.135 89.4073 201.969 91.4722 200.83 92.6202C199.691 93.7683 198.01 93.5647 197.075 92.1655L196.72 91.6346Z" fill="#167491"/>
<path fill-rule="evenodd" clip-rule="evenodd" d="M51.7451 91.4233C51.7451 89.6372 53.1931 88.1893 54.9792 88.1893H93.7878C95.5739 88.1893 97.0218 89.6372 97.0218 91.4233C97.0218 93.2094 95.5739 94.6574 93.7878 94.6574H54.9792C53.1931 94.6574 51.7451 93.2094 51.7451 91.4233Z" fill="#167491"/>
</svg>
