<svg width="275" height="275" viewBox="0 0 275 275" fill="none" xmlns="http://www.w3.org/2000/svg">
<g clip-path="url(#clip0_19280_68)">
<path fill-rule="evenodd" clip-rule="evenodd" d="M189.044 234.336C173.86 236.146 156.676 236.737 137.5 236.737C118.325 236.737 101.142 236.145 85.9591 234.333L85.9455 234.356L59.8539 271.857C58.3449 273.927 56.0816 274.993 53.8182 274.993C51.5548 274.993 49.2915 273.989 47.8454 271.983C33.888 252.793 19.7419 227.959 10.4998 197.983C6.99449 186.637 4.20303 174.579 2.3923 161.829C0.806369 152.071 0.00823119 141.074 0 128.685C0 31.2305 55.9556 0 137.5 0C218.936 0 274.851 31.1475 274.999 128.296C275 128.425 275 128.555 275 128.685C275 129.019 274.999 129.352 274.998 129.685C274.959 140.977 274.255 151.103 272.887 160.179C266.499 207.372 246.635 245.213 227.155 271.982C224.2 276.058 218.039 275.995 215.146 271.856L189.055 234.354C189.051 234.348 189.048 234.342 189.044 234.336Z" fill="#0096FA"/>
<path d="M12.5112 204.252C22.1934 233.162 36.591 256.491 47.845 271.981C50.8 276.057 56.9613 275.994 59.8534 271.855L85.9451 234.354C50.1712 231.218 23.4509 220.871 12.5112 204.252Z" fill="url(#paint0_linear_19280_68)"/>
<path d="M262.284 204.252C252.601 233.162 238.204 256.491 226.95 271.981C223.995 276.057 217.834 275.994 214.941 271.855L188.85 234.354C224.624 231.218 251.344 220.871 262.284 204.252Z" fill="url(#paint1_linear_19280_68)"/>
</g>
<path fill-rule="evenodd" clip-rule="evenodd" d="M89 187C89 184.239 92.0672 182 95.8508 182C99.6344 182 102.702 184.239 102.702 187H89ZM169.298 187C169.298 184.239 172.366 182 176.149 182C179.933 182 183 184.239 183 187H169.298Z" fill="black"/>
<defs>
<linearGradient id="paint0_linear_19280_68" x1="87.4894" y1="227.548" x2="15.8609" y2="243.646" gradientUnits="userSpaceOnUse">
<stop offset="0.0105566" stop-color="#0012FF" stop-opacity="0.2"/>
<stop offset="0.5203" stop-color="#0012FF" stop-opacity="0"/>
</linearGradient>
<linearGradient id="paint1_linear_19280_68" x1="187.306" y1="227.548" x2="258.934" y2="243.646" gradientUnits="userSpaceOnUse">
<stop offset="0.0105566" stop-color="#0012FF" stop-opacity="0.2"/>
<stop offset="0.5203" stop-color="#0012FF" stop-opacity="0"/>
</linearGradient>
<clipPath id="clip0_19280_68">
<rect width="275" height="275" fill="white"/>
</clipPath>
</defs>
</svg>
