<svg width="275" height="275" viewBox="0 0 275 275" fill="none" xmlns="http://www.w3.org/2000/svg">
<g opacity="0.3">
<g clip-path="url(#clip0_10339_4980)">
<path fill-rule="evenodd" clip-rule="evenodd" d="M225.615 175.637C216.923 176.677 207.086 177.016 196.108 177.016C185.131 177.016 175.295 176.676 166.603 175.635L166.595 175.648L151.659 197.194C150.795 198.383 149.499 198.996 148.204 198.996C146.908 198.996 145.612 198.419 144.784 197.266C136.794 186.241 128.696 171.973 123.405 154.75C121.399 148.231 119.801 141.303 118.764 133.978C117.856 128.372 117.399 122.054 117.395 114.935C117.395 58.9434 149.427 41 196.108 41C242.727 41 274.737 58.8956 274.822 114.712C274.822 114.786 274.822 114.861 274.822 114.935C274.822 115.127 274.822 115.319 274.821 115.51C274.799 121.998 274.395 127.815 273.612 133.03C269.956 160.145 258.584 181.886 247.433 197.266C245.741 199.608 242.214 199.572 240.558 197.194L225.622 175.647C225.619 175.644 225.617 175.64 225.615 175.637Z" fill="#0096FA"/>
<path d="M124.557 158.352C130.1 174.962 138.342 188.366 144.784 197.265C146.476 199.607 150.003 199.571 151.659 197.193L166.595 175.647C146.116 173.845 130.82 167.9 124.557 158.352Z" fill="url(#paint0_linear_10339_4980)"/>
<path d="M267.542 158.352C262 174.962 253.758 188.366 247.315 197.265C245.624 199.607 242.096 199.571 240.441 197.193L225.504 175.647C245.983 173.845 261.28 167.9 267.542 158.352Z" fill="url(#paint1_linear_10339_4980)"/>
<path fill-rule="evenodd" clip-rule="evenodd" d="M169.025 147.291C169.025 145.07 170.78 143.269 172.944 143.269C175.108 143.269 176.862 145.07 176.862 147.291H169.025ZM214.954 147.291C214.954 145.07 216.708 143.269 218.873 143.269C221.037 143.269 222.791 145.07 222.791 147.291H214.954Z" fill="black"/>
</g>
</g>
<g clip-path="url(#clip1_10339_4980)">
<path fill-rule="evenodd" clip-rule="evenodd" d="M108.043 209.637C99.351 210.677 89.5136 211.016 78.536 211.016C67.5591 211.016 57.7224 210.676 49.0308 209.635L49.023 209.648L34.0864 231.194C33.2226 232.383 31.9269 232.996 30.6312 232.996C29.3355 232.996 28.0398 232.419 27.212 231.266C19.2219 220.241 11.1238 205.973 5.833 188.75C3.82636 182.231 2.22835 175.303 1.19177 167.978C0.283883 162.372 -0.173022 156.054 -0.177734 148.935C-0.177734 92.9434 31.8548 75 78.536 75C125.155 75 157.164 92.8956 157.249 148.712C157.25 148.786 157.25 148.861 157.25 148.935C157.25 149.127 157.249 149.319 157.249 149.51C157.226 155.998 156.823 161.815 156.04 167.03C152.384 194.145 141.012 215.886 129.86 231.266C128.169 233.608 124.641 233.572 122.986 231.194L108.049 209.647C108.047 209.644 108.045 209.64 108.043 209.637Z" fill="#0096FA"/>
<path d="M6.98486 192.352C12.5276 208.962 20.7697 222.366 27.2122 231.265C28.9038 233.607 32.4309 233.571 34.0866 231.193L49.0231 209.647C28.5438 207.845 13.2474 201.9 6.98486 192.352Z" fill="url(#paint2_linear_10339_4980)"/>
<path d="M149.97 192.352C144.428 208.962 136.185 222.366 129.743 231.265C128.051 233.607 124.524 233.571 122.869 231.193L107.932 209.647C128.411 207.845 143.708 201.9 149.97 192.352Z" fill="url(#paint3_linear_10339_4980)"/>
<path fill-rule="evenodd" clip-rule="evenodd" d="M51.4531 181.291C51.4531 179.07 53.2075 177.269 55.3716 177.269C57.5357 177.269 59.2901 179.07 59.2901 181.291H51.4531ZM97.3818 181.291C97.3818 179.07 99.1361 177.269 101.3 177.269C103.464 177.269 105.219 179.07 105.219 181.291H97.3818Z" fill="black"/>
</g>
<defs>
<linearGradient id="paint0_linear_10339_4980" x1="167.479" y1="171.737" x2="126.46" y2="180.922" gradientUnits="userSpaceOnUse">
<stop offset="0.0105566" stop-color="#0012FF" stop-opacity="0.2"/>
<stop offset="0.5203" stop-color="#0012FF" stop-opacity="0"/>
</linearGradient>
<linearGradient id="paint1_linear_10339_4980" x1="224.62" y1="171.737" x2="265.639" y2="180.922" gradientUnits="userSpaceOnUse">
<stop offset="0.0105566" stop-color="#0012FF" stop-opacity="0.2"/>
<stop offset="0.5203" stop-color="#0012FF" stop-opacity="0"/>
</linearGradient>
<linearGradient id="paint2_linear_10339_4980" x1="49.9071" y1="205.737" x2="8.88815" y2="214.922" gradientUnits="userSpaceOnUse">
<stop offset="0.0105566" stop-color="#0012FF" stop-opacity="0.2"/>
<stop offset="0.5203" stop-color="#0012FF" stop-opacity="0"/>
</linearGradient>
<linearGradient id="paint3_linear_10339_4980" x1="107.048" y1="205.737" x2="148.067" y2="214.922" gradientUnits="userSpaceOnUse">
<stop offset="0.0105566" stop-color="#0012FF" stop-opacity="0.2"/>
<stop offset="0.5203" stop-color="#0012FF" stop-opacity="0"/>
</linearGradient>
<clipPath id="clip0_10339_4980">
<rect width="157.428" height="158" fill="white" transform="translate(117.572 41)"/>
</clipPath>
<clipPath id="clip1_10339_4980">
<rect width="157.428" height="158" fill="white" transform="translate(0 75)"/>
</clipPath>
</defs>
</svg>
