<svg width="275" height="275" viewBox="0 0 275 275" fill="none" xmlns="http://www.w3.org/2000/svg">
<g clip-path="url(#clip0_10339_4877)">
<path d="M176.98 206.872C241.672 206.872 274.354 197.223 274.354 129.274C274.354 59.2871 234.678 37 176.98 37C119.281 37 79.6055 59.423 79.6055 129.274C79.6055 197.359 112.288 206.872 176.98 206.872Z" fill="#0096FA"/>
<path d="M61.1255 190.749L86.8882 155.114C100.843 138.522 121.641 147.77 146.196 154.027C181.352 162.867 227.241 208.293 186.719 208.293C166.323 208.293 138.682 208.293 120.568 208.293C103.661 208.293 88.7667 207.477 70.7865 207.341" fill="#0096FA"/>
<path d="M271.511 130.677C271.511 148.937 268.657 165.562 264.036 180.552C257.377 202.082 247.32 219.933 237.263 233.833C236.176 235.332 234.545 236.013 233.051 236.013C231.42 236.013 229.789 235.196 228.702 233.697L209.947 206.715C198.667 188.046 207.093 159.975 220.819 138.444C240.661 107.375 271.511 89.5236 271.511 130.677Z" fill="#0096FA"/>
<path d="M262.982 184.838C256.05 205.773 245.721 222.603 237.703 233.823C235.528 236.833 231.179 236.696 229.141 233.686L210.385 206.594C236.072 204.268 255.235 196.879 262.982 184.838Z" fill="url(#paint0_linear_10339_4877)"/>
<path d="M144.996 176.309C147.351 176.309 149.26 174.082 149.26 171.334C149.26 168.586 147.351 166.359 144.996 166.359C142.64 166.359 140.731 168.586 140.731 171.334C140.731 174.082 142.64 176.309 144.996 176.309Z" fill="black"/>
<path d="M202.212 176.309C205.156 176.309 207.542 174.082 207.542 171.334C207.542 168.586 205.156 166.359 202.212 166.359C199.267 166.359 196.881 168.586 196.881 171.334C196.881 174.082 199.267 176.309 202.212 176.309Z" fill="black"/>
<path d="M35.0601 178.103C54.4232 178.103 70.12 162.228 70.12 142.644C70.12 123.061 54.4232 107.186 35.0601 107.186C15.697 107.186 0 123.061 0 142.644C0 162.228 15.697 178.103 35.0601 178.103Z" fill="#0065FF"/>
<path d="M35.0601 166.691C48.1914 166.691 58.8363 155.925 58.8363 142.644C58.8363 129.364 48.1914 118.598 35.0601 118.598C21.9288 118.598 11.2837 129.364 11.2837 142.644C11.2837 155.925 21.9288 166.691 35.0601 166.691Z" fill="white"/>
<path d="M24.8511 124.576C34.7914 118.87 47.2841 122.402 52.9259 132.455L35.0602 142.645L24.8511 124.576Z" fill="#0065FF"/>
<path d="M35.0601 156.774C42.7757 156.774 49.0302 150.448 49.0302 142.644C49.0302 134.841 42.7757 128.515 35.0601 128.515C27.3446 128.515 21.0898 134.841 21.0898 142.644C21.0898 150.448 27.3446 156.774 35.0601 156.774Z" fill="white"/>
<path d="M67.2281 214.533L79.2749 207.651L54.5673 163.411L42.5205 170.293L67.2281 214.533Z" fill="#0065FF"/>
<path d="M63.1909 207.583L68.8325 199.74C71.0891 196.603 68.4094 192.29 64.3193 192.682L54.7285 193.597L63.1909 207.583Z" fill="#0096FA"/>
</g>
<defs>
<linearGradient id="paint0_linear_10339_4877" x1="209.366" y1="201.669" x2="260.687" y2="213.097" gradientUnits="userSpaceOnUse">
<stop offset="0.0488344" stop-color="#0065FF" stop-opacity="0.41"/>
<stop offset="0.5557" stop-color="#0065FF" stop-opacity="0"/>
</linearGradient>
<clipPath id="clip0_10339_4877">
<rect width="274.354" height="199.013" fill="white" transform="translate(0 37)"/>
</clipPath>
</defs>
</svg>
