<svg width="256" height="274" viewBox="0 0 256 274" fill="none" xmlns="http://www.w3.org/2000/svg">
<path d="M182.357 5.7213C163.091 1.88016 143.491 -0.0361886 123.846 0.000517417C88.5801 0.000517417 59.1313 6.20407 40.7138 17.5008C3.46834 40.4564 -0.731732 88.6606 0.0889709 115.358C0.933812 142.972 7.33047 181.424 32.6999 207.735C53.0485 228.856 99.0078 240.249 132.005 240.298C134.468 240.279 136.91 240.746 139.192 241.673C141.473 242.6 143.549 243.968 145.301 245.7C147.053 247.431 148.445 249.491 149.398 251.762C150.352 254.033 150.848 256.47 150.857 258.932V271.557C150.857 271.973 150.976 272.381 151.202 272.732C151.427 273.083 151.748 273.361 152.127 273.534C152.507 273.707 152.927 273.767 153.34 273.708C153.752 273.648 154.139 273.471 154.454 273.198C165.099 263.929 176.395 253.887 187.547 243.58C190.275 241.167 193.075 238.487 195.875 235.929C209.248 223.859 223.079 211.138 232.662 197.524C243.862 181.641 251.128 161.848 254.386 138.699C257.166 116.901 256.35 94.7945 251.972 73.2603C244.852 37.5598 220.134 13.5904 182.357 5.7213Z" fill="#00C6D7"/>
<path opacity="0.25" d="M254.152 126.17C251.588 144.767 244.086 162.338 232.428 177.053C222.773 188.857 209.014 199.743 195.641 210.292C192.841 212.513 190.041 214.709 187.313 216.906C176.161 225.861 172.179 228.661 161.51 236.699C161.209 236.922 160.856 237.065 160.485 237.115C160.114 237.166 159.737 237.121 159.388 236.986C159.038 236.851 158.729 236.63 158.488 236.344C158.247 236.057 158.082 235.715 158.009 235.347L156.416 225.137C156.416 216.206 142.271 214.275 131.916 214.251C98.9189 214.251 52.9595 204.354 32.6109 186.105C7.19322 163.246 0.844841 129.984 0 106.111C0 105.676 0 105.242 0 104.783C0 108.356 0 111.735 0 114.801C0.844841 142.415 7.2415 180.867 32.6109 207.178C52.9595 228.299 98.9189 239.692 131.916 239.741C134.379 239.722 136.821 240.189 139.103 241.116C141.384 242.043 143.46 243.411 145.212 245.143C146.964 246.874 148.356 248.934 149.309 251.205C150.263 253.476 150.759 255.913 150.768 258.375V271C150.768 271.416 150.888 271.824 151.113 272.175C151.338 272.526 151.659 272.804 152.038 272.977C152.418 273.15 152.838 273.21 153.251 273.151C153.663 273.091 154.05 272.914 154.365 272.641C165.01 263.372 176.306 253.33 187.458 243.023C190.186 240.61 192.986 237.93 195.786 235.372C209.159 223.302 222.99 210.581 232.573 196.967C243.773 181.084 251.039 161.291 254.297 138.142C255.621 128.183 256.154 118.134 255.89 108.09C255.688 114.147 255.107 120.185 254.152 126.17Z" fill="#2D91AF"/>
<path opacity="0.2" d="M137.987 32.9256C153.966 38.3809 179.263 39.0809 198.767 51.5846C206.008 56.1226 216.388 58.6812 219.236 54.1432C222.085 49.6052 221.529 42.4603 211.729 35.0498C200.505 26.6014 189.498 20.0358 149.235 15.7392C132.025 13.8564 125.893 28.798 137.987 32.9256Z" fill="white"/>
<path opacity="0.2" d="M223.508 79.4877C228.268 79.4877 232.126 75.6296 232.126 70.8703C232.126 66.1111 228.268 62.2529 223.508 62.2529C218.749 62.2529 214.891 66.1111 214.891 70.8703C214.891 75.6296 218.749 79.4877 223.508 79.4877Z" fill="white"/>
<path fill-rule="evenodd" clip-rule="evenodd" d="M172.457 110.89H168.942H172.457H168.942H172.457C172.406 110.201 172.406 109.509 172.457 108.821C172.595 107.769 172.849 106.734 173.216 105.736C173.493 104.947 173.854 104.188 174.294 103.472C174.866 102.477 175.692 101.643 176.69 101.051C178.064 100.296 179.627 99.9306 181.203 99.9969C182.228 99.9792 183.251 100.111 184.238 100.387C185.406 100.725 186.447 101.39 187.233 102.3C187.848 102.986 188.347 103.764 188.71 104.604C189.267 105.848 189.643 107.162 189.829 108.508C189.885 109.223 189.885 109.941 189.829 110.656C189.765 111.378 189.855 112.106 190.094 112.792C190.333 113.479 190.715 114.109 191.216 114.643C191.717 115.178 192.327 115.604 193.006 115.896C193.685 116.188 194.418 116.339 195.16 116.339C195.902 116.339 196.635 116.188 197.314 115.896C197.993 115.604 198.602 115.178 199.104 114.643C199.605 114.109 199.987 113.479 200.226 112.792C200.465 112.106 200.555 111.378 200.491 110.656C200.473 109.349 200.366 108.044 200.172 106.751C199.903 105.051 199.475 103.378 198.894 101.754C198.345 100.254 197.635 98.814 196.777 97.4591C195.283 95.0682 193.212 93.071 190.747 91.6417C187.892 90.0779 184.674 89.2578 181.402 89.2601C179.278 89.2483 177.164 89.5511 175.132 90.1581C172.026 91.1257 169.259 92.9245 167.145 95.3508C165.821 96.8873 164.744 98.6119 163.951 100.465C163.001 102.638 162.343 104.921 161.994 107.259C161.81 108.448 161.717 109.648 161.714 110.851C161.666 111.574 161.771 112.298 162.024 112.979C162.276 113.66 162.671 114.282 163.182 114.806C163.694 115.33 164.311 115.744 164.994 116.023C165.678 116.302 166.414 116.438 167.154 116.425C167.895 116.411 168.624 116.248 169.297 115.944C169.97 115.64 170.57 115.204 171.061 114.661C171.552 114.119 171.923 113.483 172.149 112.794C172.376 112.104 172.453 111.376 172.377 110.656" fill="#167491"/>
<path fill-rule="evenodd" clip-rule="evenodd" d="M64.9844 110.946H61.4996H64.9844H61.4996H64.9844C64.944 110.255 64.944 109.562 64.9844 108.871C65.1592 107.824 65.4106 106.79 65.7368 105.779C66.0286 104.994 66.3862 104.234 66.806 103.508C67.4336 102.47 68.3197 101.607 69.38 101.003C70.7414 100.242 72.2924 99.8757 73.8548 99.9464C74.872 99.9315 75.8858 100.063 76.8644 100.338C78.0229 100.676 79.0555 101.343 79.8344 102.256C80.4648 103.053 80.9475 103.954 81.26 104.918C81.776 106.178 82.1479 107.49 82.3689 108.832C82.3689 110.006 82.5668 110.907 82.5668 110.985C82.5404 111.68 82.6542 112.374 82.9016 113.025C83.149 113.677 83.525 114.273 84.0078 114.779C84.4906 115.286 85.0705 115.692 85.7138 115.975C86.357 116.257 87.0507 116.411 87.7544 116.426C88.4684 116.426 89.1753 116.286 89.8339 116.013C90.4925 115.741 91.0898 115.342 91.5909 114.839C92.0921 114.336 92.4871 113.74 92.7531 113.085C93.019 112.43 93.1506 111.73 93.1401 111.024C93.1224 109.712 93.0033 108.404 92.7837 107.11C92.5359 105.401 92.1113 103.722 91.5165 102.099C91.0029 100.589 90.3117 99.1442 89.4573 97.7935C87.9602 95.3948 85.8941 93.3929 83.438 91.9612C80.5506 90.2184 77.2379 89.2848 73.8548 89.2603C71.7481 89.2455 69.6515 89.5491 67.6376 90.1606C64.5529 91.121 61.8067 92.9262 59.7176 95.3666C58.393 96.9063 57.3115 98.6351 56.51 100.494C55.5766 102.672 54.9375 104.962 54.6092 107.305C54.4273 108.497 54.3347 109.701 54.332 110.907C54.332 111.602 54.4718 112.291 54.7434 112.932C55.015 113.574 55.413 114.155 55.9141 114.643C56.4153 115.132 57.0097 115.516 57.6626 115.775C58.3156 116.034 59.0141 116.162 59.7176 116.152C60.4198 116.132 61.111 115.975 61.7518 115.69C62.3926 115.406 62.9704 114.999 63.4521 114.494C63.9339 113.989 64.3102 113.394 64.5595 112.745C64.8089 112.096 64.9264 111.405 64.9052 110.711" fill="#167491"/>
<path fill-rule="evenodd" clip-rule="evenodd" d="M152.349 136.239C151.119 139.861 149.203 143.213 146.707 146.112C144.544 148.663 141.902 150.764 138.931 152.297C135.059 154.178 130.811 155.155 126.507 155.155C122.203 155.155 117.955 154.178 114.084 152.297C111.791 151.106 109.713 149.542 107.935 147.668C105.784 145.41 103.991 142.836 102.618 140.036C102.112 138.951 101.75 138.047 101.497 137.432L101.461 136.6L99.6527 137.107L101.461 136.636L99.6527 137.143L101.461 136.673C101.355 136.102 101.132 135.559 100.806 135.079C100.479 134.599 100.057 134.192 99.5651 133.884C99.0733 133.576 98.5229 133.373 97.9487 133.288C97.3745 133.203 96.789 133.238 96.2291 133.392C95.6692 133.545 95.1473 133.812 94.6961 134.178C94.245 134.543 93.8746 134.998 93.6083 135.513C93.342 136.029 93.1856 136.595 93.149 137.174C93.1124 137.753 93.1964 138.334 93.3957 138.879C94.792 143.42 97.0789 147.637 100.123 151.284C102.947 154.797 106.453 157.701 110.431 159.82C115.552 162.377 121.199 163.707 126.923 163.707C132.648 163.707 138.294 162.377 143.416 159.82C146.507 158.179 149.326 156.068 151.77 153.563C154.577 150.669 156.909 147.348 158.678 143.725C159.471 142.136 160.147 140.493 160.704 138.806C160.856 138.275 160.901 137.718 160.838 137.168C160.775 136.619 160.604 136.087 160.336 135.603C160.067 135.12 159.706 134.694 159.272 134.35C158.839 134.006 158.342 133.75 157.81 133.598C157.278 133.446 156.722 133.401 156.172 133.464C155.622 133.527 155.091 133.698 154.607 133.966C154.123 134.235 153.697 134.596 153.353 135.03C153.009 135.463 152.754 135.96 152.602 136.492" fill="#167491"/>
<g filter="url(#filter0_f_10339_4499)">
<path fill-rule="evenodd" clip-rule="evenodd" d="M60.8118 159.139C58.2509 159.139 55.7476 158.38 53.6183 156.957C51.489 155.534 49.8294 153.512 48.8494 151.146C47.8694 148.78 47.613 146.177 48.1126 143.665C48.6122 141.153 49.8454 138.846 51.6562 137.035C53.467 135.224 55.7741 133.991 58.2858 133.492C60.7974 132.992 63.4009 133.249 65.7668 134.229C68.1328 135.209 70.155 136.868 71.5777 138.997C73.0004 141.127 73.7598 143.63 73.7598 146.191C73.7598 149.625 72.3957 152.918 69.9674 155.347C67.5392 157.775 64.2458 159.139 60.8118 159.139Z" fill="#FB5A8B"/>
</g>
<g filter="url(#filter1_f_10339_4499)">
<path fill-rule="evenodd" clip-rule="evenodd" d="M194.055 159.139C191.494 159.139 188.991 158.38 186.861 156.957C184.732 155.534 183.073 153.512 182.093 151.146C181.113 148.78 180.856 146.177 181.356 143.665C181.855 141.153 183.089 138.846 184.899 137.035C186.71 135.224 189.017 133.991 191.529 133.492C194.041 132.992 196.644 133.249 199.01 134.229C201.376 135.209 203.398 136.868 204.821 138.997C206.244 141.127 207.003 143.63 207.003 146.191C207.003 149.625 205.639 152.918 203.211 155.347C200.782 157.775 197.489 159.139 194.055 159.139Z" fill="#FB5A8B"/>
</g>
<defs>
<filter id="filter0_f_10339_4499" x="31.0887" y="116.468" width="59.4462" height="59.4462" filterUnits="userSpaceOnUse" color-interpolation-filters="sRGB">
<feFlood flood-opacity="0" result="BackgroundImageFix"/>
<feBlend mode="normal" in="SourceGraphic" in2="BackgroundImageFix" result="shape"/>
<feGaussianBlur stdDeviation="8.38755" result="effect1_foregroundBlur_10339_4499"/>
</filter>
<filter id="filter1_f_10339_4499" x="164.332" y="116.468" width="59.4462" height="59.4462" filterUnits="userSpaceOnUse" color-interpolation-filters="sRGB">
<feFlood flood-opacity="0" result="BackgroundImageFix"/>
<feBlend mode="normal" in="SourceGraphic" in2="BackgroundImageFix" result="shape"/>
<feGaussianBlur stdDeviation="8.38755" result="effect1_foregroundBlur_10339_4499"/>
</filter>
</defs>
</svg>
