<svg width="275" height="275" viewBox="0 0 275 275" fill="none" xmlns="http://www.w3.org/2000/svg">
<g clip-path="url(#clip0_288_19137)">
<path fill-rule="evenodd" clip-rule="evenodd" d="M188.733 234.336C173.55 236.146 156.365 236.737 137.189 236.737C118.015 236.737 100.831 236.145 85.6486 234.333L85.635 234.356L59.5433 271.857C58.0344 273.927 55.771 274.993 53.5077 274.993C51.2443 274.993 48.9809 273.989 47.5349 271.983C33.5774 252.793 19.4313 227.959 10.1892 197.983C6.68394 186.637 3.89248 174.579 2.08175 161.829C0.495822 152.071 -0.302316 141.074 -0.310547 128.685C-0.310547 31.2305 55.6451 0 137.189 0C218.625 0 274.54 31.1475 274.689 128.296C274.689 128.425 274.69 128.555 274.69 128.685C274.69 129.019 274.689 129.352 274.687 129.685C274.648 140.977 273.944 151.103 272.576 160.179C266.189 207.372 246.325 245.213 226.844 271.982C223.889 276.058 217.728 275.995 214.836 271.856L188.744 234.354C188.741 234.348 188.737 234.342 188.733 234.336Z" fill="#0096FA"/>
<path d="M12.2012 204.252C21.8834 233.162 36.2809 256.491 47.5349 271.981C50.4899 276.057 56.6513 275.994 59.5434 271.855L85.635 234.354C49.8612 231.218 23.1408 220.871 12.2012 204.252Z" fill="url(#paint0_linear_288_19137)"/>
<path d="M261.973 204.252C252.29 233.162 237.893 256.491 226.639 271.981C223.684 276.057 217.523 275.994 214.63 271.855L188.539 234.354C224.313 231.218 251.033 220.871 261.973 204.252Z" fill="url(#paint1_linear_288_19137)"/>
<path fill-rule="evenodd" clip-rule="evenodd" d="M89.8809 185C89.8809 181.134 92.9454 178 96.7258 178C100.506 178 103.571 181.134 103.571 185H89.8809ZM170.111 185C170.111 181.134 173.175 178 176.956 178C180.736 178 183.8 181.134 183.8 185H170.111Z" fill="black"/>
<circle cx="205.693" cy="203" r="9" fill="#FB4BC1"/>
<circle cx="72.6934" cy="203" r="9" fill="#FB4BC1"/>
</g>
<defs>
<linearGradient id="paint0_linear_288_19137" x1="87.1793" y1="227.548" x2="15.5508" y2="243.646" gradientUnits="userSpaceOnUse">
<stop offset="0.0105566" stop-color="#0012FF" stop-opacity="0.2"/>
<stop offset="0.5203" stop-color="#0012FF" stop-opacity="0"/>
</linearGradient>
<linearGradient id="paint1_linear_288_19137" x1="186.994" y1="227.548" x2="258.623" y2="243.646" gradientUnits="userSpaceOnUse">
<stop offset="0.0105566" stop-color="#0012FF" stop-opacity="0.2"/>
<stop offset="0.5203" stop-color="#0012FF" stop-opacity="0"/>
</linearGradient>
<clipPath id="clip0_288_19137">
<rect width="275" height="275" fill="white"/>
</clipPath>
</defs>
</svg>
