<svg width="286" height="275" viewBox="0 0 286 275" fill="none" xmlns="http://www.w3.org/2000/svg">
<path d="M190.932 194.045L201.681 217.381C203.159 220.733 207.594 221.765 210.55 219.444C226.137 207.196 237.693 196.753 249.517 181.668L190.932 194.045Z" fill="#0096FA"/>
<path d="M190.932 194.045L201.681 217.381C203.159 220.733 207.594 221.765 210.55 219.444C226.137 207.196 237.693 196.753 249.517 181.668L190.932 194.045Z" fill="url(#paint0_linear_288_18907)"/>
<path d="M183.661 205.041C202.325 203.759 237.908 198.631 251.604 178.502C261.272 161.834 266.911 142.602 266.911 119.14C266.911 40.9303 219.915 15.8008 151.569 15.8008C83.2229 15.8008 36.2266 40.9303 36.2266 119.14C36.2266 135.935 38.2408 148.372 41.3291 159.783C52.2054 190.682 84.5656 199.913 109.407 203.118C109.541 202.99 156.269 207.093 183.661 205.041Z" fill="#0096FA"/>
<path d="M157.534 160.813L144.559 159.288L143.488 167.544L156.464 169.069L157.534 160.813Z" fill="black"/>
<path d="M200.354 160.813L213.33 159.288L214.4 167.544L201.425 169.069L200.354 160.813Z" fill="black"/>
<path fill-rule="evenodd" clip-rule="evenodd" d="M261.075 208.277L225.666 220.44H51.6382L16.429 208.346L10.5938 223.478L48.9729 236.661L49.0183 236.543H228.512L228.531 236.593L266.91 223.41L261.075 208.277Z" fill="#0066FF"/>
<path fill-rule="evenodd" clip-rule="evenodd" d="M77.3019 247.632C77.3019 253.775 72.073 258.754 65.6227 258.754C59.1724 258.754 53.9434 253.775 53.9434 247.632C53.9434 241.49 59.1724 236.511 65.6227 236.511C72.073 236.511 77.3019 241.49 77.3019 247.632ZM219.468 247.632C219.468 253.775 214.239 258.754 207.789 258.754C201.339 258.754 196.11 253.775 196.11 247.632C196.11 241.49 201.339 236.511 207.789 236.511C214.239 236.511 219.468 241.49 219.468 247.632Z" fill="#0035B5"/>
<path d="M58.1953 181.668L59.5515 219.126C59.6871 222.153 62.9419 224.171 65.9255 223.036C76.5034 219.126 98.4731 209.415 116.781 192.01L58.1953 181.668Z" fill="#0096FA"/>
<defs>
<linearGradient id="paint0_linear_288_18907" x1="191.791" y1="186.488" x2="230.877" y2="203.897" gradientUnits="userSpaceOnUse">
<stop offset="0.108" stop-color="#0012FF" stop-opacity="0.2"/>
<stop offset="0.6097" stop-color="#0012FF" stop-opacity="0"/>
</linearGradient>
</defs>
</svg>
