<svg width="275" height="275" viewBox="0 0 275 275" fill="none" xmlns="http://www.w3.org/2000/svg">
<g clip-path="url(#clip0_10339_4776)">
<path fill-rule="evenodd" clip-rule="evenodd" d="M189.044 234.336C173.86 236.146 156.676 236.737 137.5 236.737C118.325 236.737 101.142 236.145 85.9591 234.333L85.9455 234.356L59.8539 271.857C58.3449 273.927 56.0816 274.993 53.8182 274.993C51.5548 274.993 49.2915 273.989 47.8454 271.983C33.888 252.793 19.7419 227.959 10.4998 197.983C6.99449 186.637 4.20303 174.579 2.3923 161.829C0.806369 152.072 0.00823119 141.074 0 128.685C0 31.2305 55.9556 0 137.5 0C218.936 0 274.851 31.1475 274.999 128.296C275 128.425 275 128.555 275 128.685C275 129.019 274.999 129.352 274.998 129.685C274.959 140.977 274.255 151.103 272.887 160.179C266.499 207.372 246.635 245.213 227.155 271.982C224.2 276.058 218.039 275.995 215.147 271.856L189.055 234.354C189.051 234.348 189.048 234.342 189.044 234.336Z" fill="#0096FA"/>
<path d="M12.5107 204.252C22.1929 233.162 36.5905 256.491 47.8445 271.981C50.7995 276.057 56.9609 275.994 59.8529 271.855L85.9446 234.354C50.1707 231.218 23.4504 220.871 12.5107 204.252Z" fill="url(#paint0_linear_10339_4776)"/>
<path d="M262.283 204.252C252.601 233.162 238.203 256.491 226.949 271.981C223.994 276.057 217.833 275.994 214.941 271.855L188.849 234.354C224.623 231.218 251.344 220.871 262.283 204.252Z" fill="url(#paint1_linear_10339_4776)"/>
<path fill-rule="evenodd" clip-rule="evenodd" d="M170.749 176.993C170.784 179.388 171.703 181.532 173.141 183L182.355 183C183.793 181.532 184.712 179.389 184.747 176.994L170.749 176.993Z" fill="black"/>
<path fill-rule="evenodd" clip-rule="evenodd" d="M105.308 176.993C105.273 179.388 104.354 181.532 102.916 183L93.7019 183C92.2636 181.532 91.345 179.389 91.3099 176.994L105.308 176.993Z" fill="black"/>
<path d="M117.776 113.826C116.132 113.732 115.354 112.992 115.441 111.607C115.465 111.217 115.577 110.865 115.775 110.551C115.974 110.215 116.302 109.788 116.758 109.271L117.193 108.743L122.621 102.18L116.557 101.831L116.851 97.1562L128.878 97.8489C129.9 97.9077 130.599 98.1326 130.976 98.5236C131.376 98.8942 131.557 99.3933 131.517 100.021C131.493 100.411 131.392 100.763 131.216 101.079C131.042 101.373 130.714 101.799 130.233 102.358L124.133 109.501L130.63 109.875L130.336 114.55L117.776 113.826Z" fill="#072F73"/>
<path d="M231.213 62.7624C228.044 62.1778 226.728 60.5517 227.265 57.8842C227.416 57.1339 227.726 56.4778 228.195 55.9158C228.672 55.3121 229.422 54.5643 230.446 53.6724L231.431 52.7518L243.724 41.3374L232.033 39.1807L233.847 30.1778L257.036 34.4557C259.006 34.8191 260.305 35.4262 260.933 36.2769C261.613 37.0939 261.83 38.1068 261.587 39.3155C261.436 40.0657 261.147 40.7258 260.722 41.2957C260.304 41.824 259.554 42.5718 258.471 43.5391L244.718 55.9162L257.244 58.227L255.43 67.2299L231.213 62.7624Z" fill="#072F73"/>
<path d="M165.45 86.6045C163.031 86.8068 161.729 85.8888 161.542 83.8507C161.49 83.2774 161.573 82.741 161.791 82.2415C162.006 81.71 162.387 81.0203 162.936 80.1722L163.45 79.3109L169.884 68.6164L160.96 69.3627L160.332 62.4838L178.032 61.0037C179.536 60.8779 180.606 61.0611 181.244 61.5533C181.912 62.0109 182.288 62.7015 182.372 63.6251C182.424 64.1983 182.358 64.7334 182.173 65.2302C181.985 65.6952 181.603 66.3849 181.028 67.2995L173.745 78.9794L183.306 78.1799L183.934 85.0588L165.45 86.6045Z" fill="#072F73"/>
</g>
<defs>
<linearGradient id="paint0_linear_10339_4776" x1="87.4889" y1="227.548" x2="15.8604" y2="243.646" gradientUnits="userSpaceOnUse">
<stop offset="0.0105566" stop-color="#0012FF" stop-opacity="0.2"/>
<stop offset="0.5203" stop-color="#0012FF" stop-opacity="0"/>
</linearGradient>
<linearGradient id="paint1_linear_10339_4776" x1="187.305" y1="227.548" x2="258.934" y2="243.646" gradientUnits="userSpaceOnUse">
<stop offset="0.0105566" stop-color="#0012FF" stop-opacity="0.2"/>
<stop offset="0.5203" stop-color="#0012FF" stop-opacity="0"/>
</linearGradient>
<clipPath id="clip0_10339_4776">
<rect width="275" height="275" fill="white"/>
</clipPath>
</defs>
</svg>
