<svg width="275" height="275" viewBox="0 0 275 275" fill="none" xmlns="http://www.w3.org/2000/svg">
<g clip-path="url(#clip0_10339_4736)">
<path fill-rule="evenodd" clip-rule="evenodd" d="M189.044 234.336C173.86 236.146 156.676 236.737 137.5 236.737C118.325 236.737 101.142 236.145 85.9591 234.333L85.9455 234.356L59.8539 271.857C58.3449 273.927 56.0816 274.993 53.8182 274.993C51.5548 274.993 49.2915 273.989 47.8454 271.983C33.888 252.793 19.7419 227.959 10.4998 197.983C6.99449 186.637 4.20303 174.579 2.3923 161.829C0.806369 152.071 0.00823119 141.074 0 128.685C0 31.2305 55.9556 0 137.5 0C218.936 0 274.851 31.1475 274.999 128.296C275 128.425 275 128.555 275 128.685C275 129.019 274.999 129.352 274.998 129.685C274.959 140.977 274.255 151.103 272.887 160.179C266.499 207.372 246.635 245.213 227.155 271.982C224.2 276.058 218.039 275.995 215.147 271.856L189.055 234.354C189.051 234.348 189.048 234.342 189.044 234.336Z" fill="#0096FA"/>
<path d="M12.5112 204.252C22.1934 233.162 36.591 256.491 47.845 271.981C50.8 276.057 56.9613 275.995 59.8534 271.856L85.9451 234.354C50.1712 231.218 23.4509 220.871 12.5112 204.252Z" fill="url(#paint0_linear_10339_4736)"/>
<path d="M262.284 204.252C252.601 233.162 238.204 256.491 226.95 271.981C223.995 276.057 217.834 275.995 214.941 271.856L188.85 234.354C224.624 231.218 251.344 220.871 262.284 204.252Z" fill="url(#paint1_linear_10339_4736)"/>
<path fill-rule="evenodd" clip-rule="evenodd" d="M91.0337 184.811C91.0337 181.07 94.0737 178.038 97.8238 178.038C101.574 178.038 104.614 181.07 104.614 184.811H91.0337ZM170.621 184.811C170.621 181.07 173.661 178.038 177.411 178.038C181.161 178.038 184.201 181.07 184.201 184.811H170.621Z" fill="black"/>
<path fill-rule="evenodd" clip-rule="evenodd" d="M59.3768 173.014H7.86818C3.69394 173.014 0.310059 176.397 0.310059 180.572C0.310059 184.746 3.69394 188.13 7.86818 188.13H59.3768C62.8899 205.814 78.4924 219.143 97.2081 219.143C115.924 219.143 131.526 205.814 135.039 188.13H135.676C139.19 205.814 154.792 219.143 173.508 219.143C192.223 219.143 207.826 205.814 211.339 188.13H264.786C268.961 188.13 272.345 184.746 272.345 180.572C272.345 176.397 268.961 173.014 264.786 173.014H211.339C207.826 155.33 192.223 142 173.508 142C154.792 142 139.19 155.33 135.676 173.014H135.039C131.526 155.33 115.924 142 97.2081 142C78.4923 142 62.89 155.33 59.3768 173.014ZM73.7952 179.149C74.5305 166.858 84.7318 157.116 97.2081 157.116C110.133 157.116 120.617 167.571 120.663 180.485C120.663 180.514 120.663 180.543 120.663 180.572C120.663 180.601 120.663 180.629 120.663 180.658C120.617 193.572 110.133 204.027 97.2081 204.027C84.7316 204.027 74.5305 194.286 73.7952 181.994C73.883 181.533 73.9289 181.058 73.9289 180.572C73.9289 180.085 73.883 179.61 73.7952 179.149ZM150.052 180.558V180.572V180.585C150.06 193.533 160.558 204.027 173.508 204.027C186.462 204.027 196.963 193.526 196.963 180.572C196.963 167.618 186.462 157.116 173.508 157.116C160.558 157.116 150.06 167.61 150.052 180.558Z" fill="#0065FF"/>
</g>
<defs>
<linearGradient id="paint0_linear_10339_4736" x1="87.4894" y1="227.548" x2="15.8609" y2="243.647" gradientUnits="userSpaceOnUse">
<stop offset="0.0105566" stop-color="#0012FF" stop-opacity="0.2"/>
<stop offset="0.5203" stop-color="#0012FF" stop-opacity="0"/>
</linearGradient>
<linearGradient id="paint1_linear_10339_4736" x1="187.306" y1="227.548" x2="258.934" y2="243.647" gradientUnits="userSpaceOnUse">
<stop offset="0.0105566" stop-color="#0012FF" stop-opacity="0.2"/>
<stop offset="0.5203" stop-color="#0012FF" stop-opacity="0"/>
</linearGradient>
<clipPath id="clip0_10339_4736">
<rect width="275" height="275" fill="white"/>
</clipPath>
</defs>
</svg>
