<svg width="256" height="253" viewBox="0 0 256 253" fill="none" xmlns="http://www.w3.org/2000/svg">
<path d="M178.565 5.531C160.832 1.99547 142.791 0.231583 124.709 0.265369C92.2488 0.265369 65.143 5.97536 48.1908 16.3733C13.9087 37.5025 10.0428 81.8715 10.7982 106.444C11.5758 131.862 17.4636 167.255 40.8145 191.472C59.5442 210.913 101.847 221.4 132.219 221.444C134.486 221.426 136.733 221.857 138.834 222.71C140.934 223.563 142.845 224.823 144.457 226.416C146.069 228.01 147.351 229.906 148.228 231.996C149.106 234.086 149.562 236.329 149.571 238.596V250.216C149.571 250.6 149.681 250.975 149.888 251.298C150.096 251.621 150.391 251.877 150.74 252.036C151.089 252.195 151.477 252.251 151.856 252.196C152.236 252.141 152.592 251.978 152.881 251.727C162.679 243.195 173.077 233.953 183.342 224.466C185.853 222.244 188.43 219.778 191.007 217.423C203.316 206.314 216.047 194.605 224.867 182.074C235.176 167.455 241.864 149.236 244.863 127.929C247.422 107.865 246.671 87.5174 242.641 67.6965C236.087 34.8363 213.336 12.774 178.565 5.531Z" fill="#00C6D7"/>
<path opacity="0.25" d="M243.457 116.396C241.096 133.514 234.192 149.687 223.461 163.232C214.574 174.096 201.91 184.116 189.601 193.826C187.024 195.87 184.446 197.891 181.936 199.913C171.671 208.156 168.005 210.733 158.185 218.132C157.908 218.337 157.584 218.469 157.242 218.515C156.901 218.561 156.553 218.52 156.232 218.396C155.91 218.272 155.626 218.069 155.404 217.805C155.182 217.541 155.031 217.226 154.963 216.888L153.497 207.49C153.497 199.269 140.477 197.492 130.946 197.469C100.574 197.469 58.2713 188.36 39.5417 171.563C16.1463 150.523 10.303 119.907 9.52539 97.9334C9.52539 97.5335 9.52539 97.1336 9.52539 96.7114C9.52539 99.9997 9.52539 103.11 9.52539 105.932C10.303 131.349 16.1907 166.742 39.5417 190.96C58.2713 210.4 100.574 220.887 130.946 220.931C133.213 220.914 135.461 221.344 137.561 222.197C139.661 223.051 141.572 224.31 143.184 225.904C144.796 227.497 146.078 229.394 146.956 231.484C147.833 233.574 148.289 235.817 148.298 238.084V249.703C148.298 250.087 148.408 250.463 148.615 250.785C148.823 251.108 149.119 251.364 149.467 251.523C149.816 251.683 150.204 251.738 150.583 251.683C150.963 251.629 151.319 251.466 151.608 251.214C161.407 242.683 171.805 233.44 182.069 223.953C184.58 221.731 187.157 219.265 189.734 216.91C202.043 205.801 214.774 194.092 223.594 181.561C233.903 166.942 240.591 148.723 243.59 127.416C244.809 118.249 245.299 109 245.057 99.7553C244.87 105.33 244.336 110.888 243.457 116.396Z" fill="#2D91AF"/>
<path opacity="0.2" d="M136.534 30.5709C151.242 35.5921 174.526 36.2365 192.478 47.7453C199.143 51.9223 208.697 54.2774 211.319 50.1004C213.941 45.9234 213.43 39.347 204.409 32.5261C194.078 24.7498 183.946 18.7066 146.887 14.7518C131.046 13.0188 125.402 26.7717 136.534 30.5709Z" fill="white"/>
<path opacity="0.2" d="M215.252 73.4285C219.632 73.4285 223.183 69.8773 223.183 65.4967C223.183 61.1161 219.632 57.5649 215.252 57.5649C210.871 57.5649 207.32 61.1161 207.32 65.4967C207.32 69.8773 210.871 73.4285 215.252 73.4285Z" fill="white"/>
<path d="M79.2936 108.412C84.2878 108.412 88.3363 104.364 88.3363 99.3698C88.3363 94.3757 84.2878 90.3271 79.2936 90.3271C74.2995 90.3271 70.251 94.3757 70.251 99.3698C70.251 104.364 74.2995 108.412 79.2936 108.412Z" fill="#167491"/>
<path d="M174.549 108.412C179.544 108.412 183.592 104.364 183.592 99.3698C183.592 94.3757 179.544 90.3271 174.549 90.3271C169.555 90.3271 165.507 94.3757 165.507 99.3698C165.507 104.364 169.555 108.412 174.549 108.412Z" fill="#167491"/>
<path d="M194.933 38.846C180.038 38.871 165.664 44.334 154.51 54.2096C143.356 64.0852 136.189 77.6942 134.353 92.482C131.644 92.2058 128.921 92.0949 126.2 92.1501C124.81 92.0735 123.418 92.0735 122.028 92.1501C120.093 76.4299 112.149 62.0702 99.8608 52.083C87.573 42.0958 71.8969 37.2572 56.1206 38.5821C40.3444 39.907 25.6939 47.2925 15.2424 59.1894C4.79081 71.0863 -0.649736 86.5701 0.0619717 102.393C0.773679 118.216 7.58233 133.148 19.0597 144.058C30.5371 154.967 45.7914 161.007 61.6229 160.909C77.4543 160.811 92.6327 154.583 103.974 143.532C115.316 132.481 121.939 117.465 122.455 101.635C123.702 101.56 124.952 101.56 126.2 101.635C128.779 101.585 131.36 101.696 133.926 101.967C134.326 113.955 138.246 125.559 145.195 135.333C152.144 145.107 161.816 152.618 173.005 156.928C184.193 161.239 196.402 162.159 208.109 159.573C219.816 156.987 230.503 151.009 238.837 142.387C247.171 133.764 252.783 122.877 254.973 111.085C257.163 99.2919 255.834 87.1151 251.152 76.0731C246.469 65.0311 238.641 55.6126 228.644 48.9924C218.646 42.3722 206.922 38.8434 194.933 38.846ZM61.4481 151.619C51.2385 151.619 41.2581 148.59 32.7691 142.916C24.2801 137.241 17.6637 129.175 13.7566 119.738C9.84954 110.302 8.82727 99.9176 10.8191 89.8996C12.8109 79.8816 17.7273 70.6795 24.9466 63.4569C32.1659 56.2344 41.3639 51.3157 51.3774 49.323C61.3909 47.3303 71.7701 48.353 81.2026 52.2619C90.6351 56.1707 98.6972 62.7901 104.369 71.2829C110.042 79.7758 113.069 89.7607 113.069 99.9749C113.044 113.664 107.597 126.785 97.922 136.465C88.2466 146.145 75.1312 151.594 61.4481 151.619ZM194.933 151.619C184.729 151.591 174.763 148.538 166.292 142.846C157.822 137.155 151.228 129.079 147.343 119.64C143.457 110.201 142.455 99.8213 144.463 89.8127C146.471 79.8041 151.399 70.6153 158.624 63.4069C165.848 56.1986 175.047 51.2941 185.056 49.3129C195.066 47.3317 205.438 48.3627 214.862 52.2756C224.286 56.1886 232.34 62.808 238.006 71.2978C243.672 79.7875 246.696 89.7667 246.696 99.9749C246.69 106.767 245.345 113.492 242.74 119.764C240.135 126.036 236.319 131.733 231.512 136.529C226.705 141.326 221 145.127 214.723 147.716C208.447 150.305 201.722 151.632 194.933 151.619Z" fill="#505F79"/>
<path d="M141.929 140.767H114.329C112.105 140.767 111.297 143.463 112.871 145.097C116.323 148.647 120.993 152.674 128.118 152.674C135.244 152.674 139.914 148.615 143.366 145.097C144.961 143.463 144.153 140.767 141.929 140.767Z" fill="#167491"/>
</svg>
