<svg width="275" height="275" viewBox="0 0 275 275" fill="none" xmlns="http://www.w3.org/2000/svg">
<g clip-path="url(#clip0_10339_4363)">
<path fill-rule="evenodd" clip-rule="evenodd" d="M189.044 234.336C173.86 236.146 156.676 236.737 137.5 236.737C118.325 236.737 101.142 236.145 85.9591 234.333L85.9455 234.356L59.8539 271.857C58.3449 273.927 56.0816 274.993 53.8182 274.993C51.5548 274.993 49.2915 273.989 47.8454 271.983C33.888 252.793 19.7419 227.959 10.4998 197.983C6.99449 186.637 4.20303 174.579 2.3923 161.829C0.806369 152.071 0.00823119 141.074 0 128.685C0 31.2305 55.9556 0 137.5 0C218.936 0 274.851 31.1475 274.999 128.296C275 128.425 275 128.555 275 128.685C275 129.019 274.999 129.352 274.998 129.685C274.959 140.977 274.255 151.103 272.887 160.179C266.499 207.372 246.635 245.213 227.155 271.982C224.2 276.058 218.039 275.995 215.146 271.856L189.055 234.354C189.051 234.348 189.048 234.342 189.044 234.336Z" fill="#0096FA"/>
<path d="M12.5112 204.252C22.1934 233.162 36.591 256.491 47.845 271.981C50.8 276.057 56.9613 275.995 59.8534 271.856L85.9451 234.354C50.1712 231.218 23.4509 220.871 12.5112 204.252Z" fill="url(#paint0_linear_10339_4363)"/>
<path d="M262.284 204.252C252.601 233.162 238.204 256.491 226.95 271.981C223.995 276.057 217.834 275.995 214.941 271.856L188.85 234.354C224.624 231.218 251.344 220.871 262.284 204.252Z" fill="url(#paint1_linear_10339_4363)"/>
<path fill-rule="evenodd" clip-rule="evenodd" d="M103.58 184.811C103.58 188.552 100.54 191.584 96.7901 191.584C93.04 191.584 90 188.552 90 184.811C90 181.07 93.04 178.038 96.7901 178.038C100.54 178.038 103.58 181.07 103.58 184.811ZM183.176 184.811C183.176 188.552 180.136 191.584 176.385 191.584C172.635 191.584 169.595 188.552 169.595 184.811C169.595 181.07 172.635 178.038 176.385 178.038C180.136 178.038 183.176 181.07 183.176 184.811Z" fill="black"/>
</g>
<defs>
<linearGradient id="paint0_linear_10339_4363" x1="87.4894" y1="227.548" x2="15.8609" y2="243.647" gradientUnits="userSpaceOnUse">
<stop offset="0.0105566" stop-color="#0012FF" stop-opacity="0.2"/>
<stop offset="0.5203" stop-color="#0012FF" stop-opacity="0"/>
</linearGradient>
<linearGradient id="paint1_linear_10339_4363" x1="187.306" y1="227.548" x2="258.934" y2="243.647" gradientUnits="userSpaceOnUse">
<stop offset="0.0105566" stop-color="#0012FF" stop-opacity="0.2"/>
<stop offset="0.5203" stop-color="#0012FF" stop-opacity="0"/>
</linearGradient>
<clipPath id="clip0_10339_4363">
<rect width="275" height="275" fill="white"/>
</clipPath>
</defs>
</svg>
