<svg width="276" height="274" viewBox="0 0 276 274" fill="none" xmlns="http://www.w3.org/2000/svg">
<g clip-path="url(#clip0_10339_4363)">
<path fill-rule="evenodd" clip-rule="evenodd" d="M187.193 233.254C172.158 235.056 155.142 235.644 136.154 235.644C117.167 235.644 100.152 235.055 85.1174 233.251L85.104 233.273L59.2678 270.602C57.7736 272.662 55.5325 273.723 53.2912 273.723C51.05 273.723 48.8088 272.724 47.3769 270.727C33.5561 251.625 19.5486 226.906 10.397 197.068C6.926 185.775 4.16187 173.772 2.36887 161.082C0.798473 151.369 0.00815059 140.423 0 128.091C0 31.0863 55.4077 0 136.154 0C216.792 0 272.159 31.0036 272.307 127.704C272.307 127.832 272.307 127.961 272.307 128.091C272.307 128.423 272.307 128.754 272.305 129.086C272.267 140.326 271.569 150.405 270.215 159.439C263.89 206.414 244.22 244.08 224.931 270.726C222.005 274.783 215.904 274.721 213.04 270.601L187.204 233.272C187.2 233.266 187.196 233.26 187.193 233.254Z" fill="#0096FA"/>
<path d="M12.3887 203.309C21.9761 232.086 36.2327 255.307 47.3765 270.725C50.3025 274.782 56.4035 274.72 59.2673 270.6L85.1035 233.272C49.6799 230.15 23.2212 219.851 12.3887 203.309Z" fill="url(#paint0_linear_10339_4363)"/>
<path d="M259.715 203.309C250.128 232.086 235.871 255.307 224.728 270.725C221.802 274.782 215.7 274.72 212.837 270.6L187.001 233.272C222.424 230.15 248.883 219.851 259.715 203.309Z" fill="url(#paint1_linear_10339_4363)"/>
<path fill-rule="evenodd" clip-rule="evenodd" d="M103.282 183.957C103.282 187.681 100.272 190.699 96.5586 190.699C92.8452 190.699 89.835 187.681 89.835 183.957C89.835 180.234 92.8452 177.216 96.5586 177.216C100.272 177.216 103.282 180.234 103.282 183.957ZM182.098 183.957C182.098 187.681 179.088 190.699 175.375 190.699C171.661 190.699 168.651 187.681 168.651 183.957C168.651 180.234 171.661 177.216 175.375 177.216C179.088 177.216 182.098 180.234 182.098 183.957Z" fill="black"/>
</g>
<defs>
<linearGradient id="paint0_linear_10339_4363" x1="86.6327" y1="226.498" x2="15.6701" y2="242.363" gradientUnits="userSpaceOnUse">
<stop offset="0.0105566" stop-color="#0012FF" stop-opacity="0.2"/>
<stop offset="0.5203" stop-color="#0012FF" stop-opacity="0"/>
</linearGradient>
<linearGradient id="paint1_linear_10339_4363" x1="185.471" y1="226.498" x2="256.434" y2="242.363" gradientUnits="userSpaceOnUse">
<stop offset="0.0105566" stop-color="#0012FF" stop-opacity="0.2"/>
<stop offset="0.5203" stop-color="#0012FF" stop-opacity="0"/>
</linearGradient>
<clipPath id="clip0_10339_4363">
<rect width="272.307" height="273.73" fill="white"/>
</clipPath>
</defs>
</svg>
