<svg width="256" height="274" viewBox="0 0 256 274" fill="none" xmlns="http://www.w3.org/2000/svg">
<path d="M182.357 5.7213C163.091 1.88016 143.491 -0.0361886 123.846 0.000517417C88.5801 0.000517417 59.1313 6.20407 40.7138 17.5008C3.46834 40.4564 -0.731732 88.6606 0.0889709 115.358C0.933812 142.972 7.33047 181.424 32.6999 207.735C53.0485 228.856 99.0078 240.249 132.005 240.298C134.468 240.279 136.91 240.746 139.192 241.673C141.473 242.6 143.549 243.968 145.301 245.7C147.053 247.431 148.445 249.491 149.398 251.762C150.352 254.033 150.848 256.47 150.857 258.932V271.557C150.857 271.973 150.976 272.381 151.202 272.732C151.427 273.083 151.748 273.361 152.127 273.534C152.507 273.707 152.927 273.767 153.34 273.708C153.752 273.648 154.139 273.471 154.454 273.198C165.099 263.929 176.395 253.887 187.547 243.58C190.275 241.167 193.075 238.487 195.875 235.929C209.248 223.859 223.079 211.138 232.662 197.524C243.862 181.641 251.128 161.848 254.386 138.699C257.166 116.901 256.35 94.7945 251.972 73.2603C244.852 37.5598 220.134 13.5904 182.357 5.7213Z" fill="#00C6D7"/>
<path opacity="0.25" d="M254.152 126.17C251.588 144.767 244.086 162.338 232.428 177.053C222.773 188.857 209.014 199.743 195.641 210.292C192.841 212.513 190.041 214.709 187.313 216.906C176.161 225.861 172.179 228.661 161.51 236.699C161.209 236.922 160.856 237.065 160.485 237.115C160.114 237.166 159.737 237.121 159.388 236.986C159.038 236.851 158.729 236.63 158.488 236.344C158.247 236.057 158.082 235.715 158.009 235.347L156.416 225.137C156.416 216.206 142.271 214.275 131.916 214.251C98.9189 214.251 52.9595 204.354 32.6109 186.105C7.19322 163.246 0.844841 129.984 0 106.111C0 105.676 0 105.242 0 104.783C0 108.356 0 111.735 0 114.801C0.844841 142.415 7.2415 180.867 32.6109 207.178C52.9595 228.299 98.9189 239.692 131.916 239.741C134.379 239.722 136.821 240.189 139.103 241.116C141.384 242.043 143.46 243.411 145.212 245.143C146.964 246.874 148.356 248.934 149.309 251.205C150.263 253.476 150.759 255.913 150.768 258.375V271C150.768 271.416 150.888 271.824 151.113 272.175C151.338 272.526 151.659 272.804 152.038 272.977C152.418 273.15 152.838 273.21 153.251 273.151C153.663 273.091 154.05 272.914 154.365 272.641C165.01 263.372 176.306 253.33 187.458 243.023C190.186 240.61 192.986 237.93 195.786 235.372C209.159 223.302 222.99 210.581 232.573 196.967C243.773 181.084 251.039 161.291 254.297 138.142C255.621 128.183 256.154 118.134 255.89 108.09C255.688 114.147 255.107 120.185 254.152 126.17Z" fill="#2D91AF"/>
<path opacity="0.2" d="M137.987 32.9257C153.966 38.3809 179.263 39.0809 198.767 51.5846C206.008 56.1226 216.388 58.6813 219.236 54.1432C222.085 49.6052 221.529 42.4603 211.729 35.0498C200.505 26.6014 189.498 20.0358 149.235 15.7392C132.025 13.8564 125.893 28.798 137.987 32.9257Z" fill="white"/>
<path opacity="0.2" d="M223.508 79.4877C228.268 79.4877 232.126 75.6296 232.126 70.8703C232.126 66.1111 228.268 62.2529 223.508 62.2529C218.749 62.2529 214.891 66.1111 214.891 70.8703C214.891 75.6296 218.749 79.4877 223.508 79.4877Z" fill="white"/>
<path d="M75.7989 117.496C81.2247 117.496 85.6232 113.097 85.6232 107.671C85.6232 102.246 81.2247 97.8472 75.7989 97.8472C70.3731 97.8472 65.9746 102.246 65.9746 107.671C65.9746 113.097 70.3731 117.496 75.7989 117.496Z" fill="#167491"/>
<path d="M179.289 117.496C184.714 117.496 189.113 113.097 189.113 107.671C189.113 102.246 184.714 97.8472 179.289 97.8472C173.863 97.8472 169.464 102.246 169.464 107.671C169.464 113.097 173.863 117.496 179.289 117.496Z" fill="#167491"/>
<path d="M128.07 163.854C113.061 163.854 100.221 158.646 96.1344 150.87C95.7149 150.061 95.6159 149.124 95.8573 148.246C96.0987 147.368 96.6626 146.613 97.4364 146.132C97.8563 145.904 98.3171 145.762 98.7923 145.713C99.2675 145.665 99.7476 145.71 100.205 145.848C100.662 145.986 101.088 146.213 101.457 146.516C101.826 146.82 102.131 147.193 102.355 147.615C104.67 152.063 114.435 156.765 127.89 156.765C141.344 156.765 151.724 151.883 153.641 147.145C154.006 146.253 154.709 145.542 155.598 145.169C156.487 144.796 157.487 144.791 158.379 145.155C159.271 145.52 159.982 146.224 160.355 147.112C160.728 148.001 160.733 149.001 160.368 149.893C157.005 158.067 143.586 163.854 128.07 163.854Z" fill="#167491"/>
</svg>
