<svg width="275" height="275" viewBox="0 0 275 275" fill="none" xmlns="http://www.w3.org/2000/svg">
<g clip-path="url(#clip0_288_18941)">
<path d="M137.811 7C60.5577 7 7.40039 36.6244 7.40039 129.292C7.40039 167.38 15.4323 186.205 25.3628 214.078C31.0583 229.985 43.9096 252.167 51.3574 265.301C53.402 269.095 58.5133 269.824 61.58 266.76C73.1169 255.377 83.6317 244.432 97.0671 229.547C127.881 232.612 143.069 233.487 174.028 231.006L183.229 263.695C184.543 268.219 190.092 269.97 193.743 266.906C234.926 232.466 268.222 189.708 268.222 129.292C268.222 36.6244 215.065 7 137.811 7Z" fill="#0096FA"/>
<path d="M174.029 230.861L183.23 263.404C184.544 268.074 190.239 269.825 193.89 266.614C211.707 251.729 227.187 235.677 240.038 216.268L174.029 230.861Z" fill="url(#paint0_linear_288_18941)"/>
<path fill-rule="evenodd" clip-rule="evenodd" d="M140.343 186.148H130.899C130.285 185.123 129.926 183.887 129.926 182.557C129.926 179.011 132.476 176.136 135.621 176.136C138.767 176.136 141.317 179.011 141.317 182.557C141.317 183.887 140.958 185.123 140.343 186.148Z" fill="black"/>
<path fill-rule="evenodd" clip-rule="evenodd" d="M208.997 186.148H199.553C198.939 185.123 198.58 183.887 198.58 182.557C198.58 179.011 201.13 176.136 204.275 176.136C207.421 176.136 209.971 179.011 209.971 182.557C209.971 183.887 209.612 185.123 208.997 186.148Z" fill="black"/>
<path d="M272.75 99.959H3.01953V146.365H272.75V99.959Z" fill="#0035B5"/>
<path d="M272.75 115.428H3.01953V131.188H272.75V115.428Z" fill="white"/>
</g>
<defs>
<linearGradient id="paint0_linear_288_18941" x1="173.821" y1="225.02" x2="218.575" y2="244.159" gradientUnits="userSpaceOnUse">
<stop offset="0.108" stop-color="#0012FF" stop-opacity="0.2"/>
<stop offset="0.6097" stop-color="#0012FF" stop-opacity="0"/>
</linearGradient>
<clipPath id="clip0_288_18941">
<rect width="269.73" height="261.667" fill="white" transform="translate(3.01953 7)"/>
</clipPath>
</defs>
</svg>
