<svg width="273" height="275" viewBox="0 0 273 275" fill="none" xmlns="http://www.w3.org/2000/svg">
<g clip-path="url(#clip0_10339_4815)">
<path d="M136.113 236.217C226.439 236.217 272.071 222.842 272.071 128.647C272.071 31.6262 216.674 0.72998 136.113 0.72998C55.5521 0.72998 0.154785 31.8145 0.154785 128.647C0.154785 222.842 45.7871 236.217 136.113 236.217Z" fill="#0096FA"/>
<path d="M0.154785 128.835C0.154785 154.079 4.09832 177.063 10.4831 197.786C19.6847 227.551 33.581 252.23 47.4773 271.446C48.9796 273.518 51.233 274.46 53.2987 274.46C55.5521 274.46 57.8056 273.33 59.3079 271.257L85.2226 233.956C100.809 208.147 89.1661 169.339 70.1995 139.573C42.7826 96.6205 0.154785 71.7527 0.154785 128.835Z" fill="#0096FA"/>
<path d="M272.072 128.835C272.072 154.079 268.128 177.063 261.744 197.786C252.542 227.551 238.646 252.23 224.749 271.446C223.247 273.518 220.994 274.46 218.928 274.46C216.675 274.46 214.421 273.33 212.919 271.257L187.004 233.956C171.418 208.147 183.061 169.339 202.027 139.573C229.444 96.6205 272.072 71.7527 272.072 128.835Z" fill="#0096FA"/>
<path fill-rule="evenodd" clip-rule="evenodd" d="M50.5894 156.328C50.5894 154.667 51.9318 153.32 53.5878 153.32H218.841C220.497 153.32 221.839 154.667 221.839 156.328C221.839 157.99 220.497 159.337 218.841 159.337H53.5878C51.9318 159.337 50.5894 157.99 50.5894 156.328Z" fill="#0035B5"/>
<path d="M130.956 156.328L120.252 186.847C117.623 194.382 110.487 199.28 102.6 198.904L84.9483 198.15C75.9345 197.773 68.6107 190.991 67.6718 181.949L64.855 156.139H207.01L204.193 181.949C203.254 190.803 195.931 197.773 186.917 198.15L169.265 198.904C161.378 199.28 154.242 194.382 151.613 186.847L140.909 156.328" fill="#0035B5"/>
<path fill-rule="evenodd" clip-rule="evenodd" d="M192.125 180.004L193.44 160.789L200.673 161.287L199.358 180.502L192.125 180.004Z" fill="#0065FF"/>
</g>
<defs>
<clipPath id="clip0_10339_4815">
<rect width="271.917" height="273.73" fill="white" transform="translate(0.154785 0.72998)"/>
</clipPath>
</defs>
</svg>
