<svg width="256" height="274" viewBox="0 0 256 274" fill="none" xmlns="http://www.w3.org/2000/svg">
<path d="M182.357 5.76696C163.091 1.92582 143.491 0.00946569 123.846 0.0461717C88.5801 0.0461717 59.1313 6.24972 40.7138 17.5465C3.46834 40.502 -0.731732 88.7063 0.0889709 115.403C0.933812 143.017 7.33047 181.47 32.6999 207.781C53.0485 228.902 99.0078 240.295 132.005 240.343C134.468 240.324 136.91 240.792 139.192 241.719C141.473 242.646 143.549 244.014 145.301 245.745C147.053 247.477 148.445 249.537 149.398 251.808C150.352 254.079 150.848 256.515 150.857 258.978V271.602C150.857 272.019 150.976 272.427 151.202 272.778C151.427 273.128 151.748 273.407 152.127 273.58C152.507 273.753 152.927 273.813 153.34 273.753C153.752 273.694 154.139 273.517 154.454 273.244C165.099 263.975 176.395 253.933 187.547 243.626C190.275 241.212 193.075 238.533 195.875 235.974C209.248 223.905 223.079 211.184 232.662 197.57C243.862 181.687 251.128 161.894 254.386 138.745C257.166 116.947 256.35 94.8402 251.972 73.306C244.852 37.6054 220.134 13.6361 182.357 5.76696Z" fill="#00C6D7"/>
<path opacity="0.25" d="M254.152 126.215C251.588 144.813 244.086 162.384 232.428 177.099C222.773 188.903 209.014 199.789 195.641 210.337C192.841 212.558 190.041 214.755 187.313 216.951C176.161 225.907 172.179 228.707 161.51 236.745C161.209 236.968 160.856 237.111 160.485 237.161C160.114 237.211 159.737 237.167 159.388 237.032C159.038 236.897 158.729 236.676 158.488 236.39C158.247 236.103 158.082 235.76 158.009 235.393L156.416 225.183C156.416 216.251 142.271 214.32 131.916 214.296C98.9189 214.296 52.9595 204.399 32.6109 186.151C7.19322 163.292 0.844841 130.029 0 106.156C0 105.722 0 105.287 0 104.829C0 108.401 0 111.781 0 114.846C0.844841 142.461 7.2415 180.913 32.6109 207.224C52.9595 228.345 98.9189 239.738 131.916 239.786C134.379 239.767 136.821 240.235 139.103 241.162C141.384 242.089 143.46 243.457 145.212 245.188C146.964 246.92 148.356 248.98 149.309 251.251C150.263 253.522 150.759 255.958 150.768 258.421V271.045C150.768 271.462 150.888 271.87 151.113 272.221C151.338 272.571 151.659 272.85 152.038 273.023C152.418 273.196 152.838 273.256 153.251 273.196C153.663 273.137 154.05 272.96 154.365 272.687C165.01 263.418 176.306 253.376 187.458 243.069C190.186 240.655 192.986 237.976 195.786 235.417C209.159 223.348 222.99 210.627 232.573 197.013C243.773 181.13 251.039 161.337 254.297 138.188C255.621 128.228 256.154 118.18 255.89 108.136C255.688 114.193 255.107 120.231 254.152 126.215Z" fill="#2D91AF"/>
<path opacity="0.2" d="M137.987 32.9713C153.966 38.4266 179.263 39.1266 198.767 51.6302C206.008 56.1682 216.388 58.7269 219.236 54.1889C222.085 49.6509 221.529 42.5059 211.729 35.0955C200.505 26.6471 189.498 20.0814 149.235 15.7848C132.025 13.902 125.893 28.8437 137.987 32.9713Z" fill="white"/>
<path opacity="0.2" d="M223.508 79.5333C228.268 79.5333 232.126 75.6752 232.126 70.916C232.126 66.1567 228.268 62.2986 223.508 62.2986C218.749 62.2986 214.891 66.1567 214.891 70.916C214.891 75.6752 218.749 79.5333 223.508 79.5333Z" fill="white"/>
<path d="M128.07 165.193C113.061 165.193 100.221 159.985 96.1344 152.209C95.7149 151.401 95.6159 150.464 95.8573 149.585C96.0987 148.707 96.6626 147.952 97.4364 147.471C97.8563 147.243 98.3171 147.101 98.7923 147.052C99.2675 147.004 99.7476 147.05 100.205 147.188C100.662 147.325 101.088 147.553 101.457 147.856C101.826 148.159 102.131 148.532 102.355 148.954C104.67 153.403 114.435 158.105 127.89 158.105C141.344 158.105 151.724 153.222 153.641 148.484C154.006 147.592 154.709 146.881 155.598 146.508C156.487 146.135 157.487 146.13 158.379 146.495C159.271 146.859 159.982 147.563 160.355 148.452C160.728 149.34 160.733 150.341 160.368 151.233C157.005 159.407 143.586 165.193 128.07 165.193Z" fill="#167491"/>
<path fill-rule="evenodd" clip-rule="evenodd" d="M165.934 106.124H192.879C193.976 106.133 195.025 106.576 195.797 107.355C196.569 108.134 197.002 109.186 197.002 110.283C197.002 111.38 196.569 112.432 195.797 113.211C195.025 113.99 193.976 114.433 192.879 114.442H165.934C165.382 114.452 164.833 114.351 164.32 114.147C163.807 113.942 163.34 113.637 162.946 113.25C162.552 112.863 162.24 112.401 162.026 111.892C161.812 111.382 161.703 110.835 161.703 110.283C161.703 109.18 162.141 108.122 162.921 107.342C163.701 106.562 164.759 106.124 165.862 106.124H165.934Z" fill="#167491"/>
<path fill-rule="evenodd" clip-rule="evenodd" d="M62.336 106.123H89.2809C89.8332 106.114 90.3818 106.214 90.8948 106.419C91.4079 106.624 91.875 106.928 92.2689 107.316C92.6628 107.703 92.9756 108.164 93.1892 108.674C93.4027 109.183 93.5126 109.73 93.5126 110.282C93.5126 111.386 93.0744 112.444 92.2943 113.224C91.5143 114.004 90.4564 114.442 89.3533 114.442H62.336C61.2392 114.432 60.1905 113.99 59.4183 113.211C58.6461 112.432 58.2128 111.379 58.2129 110.282C58.2128 109.186 58.6461 108.133 59.4183 107.354C60.1905 106.575 61.2392 106.133 62.336 106.123Z" fill="#167491"/>
<path d="M116.625 76.0833C64.8849 57.0651 10.3491 70.8439 10.3491 70.8439V87.4187C13.3971 87.595 15.3871 92.2551 15.3871 92.2551C22.944 120.77 22.0372 145.154 63.9781 146.035C108.614 147.068 112.897 108.251 119.169 96.7137L119.521 96.2099C128.691 86.5371 137.154 96.2099 137.154 96.2099C143.275 107.696 147.079 146.589 191.74 146.186C233.656 145.859 233.052 121.551 240.961 93.1368C240.961 93.1368 243.077 88.5019 245.999 88.3759L246.201 71.8011C246.201 71.8011 191.766 57.3422 139.875 75.7307C132.235 77.4775 124.314 77.5977 116.625 76.0833Z" fill="#167491"/>
<path d="M163.553 78.3997C140.883 83.6644 150.379 106.108 153.15 113.665C155.921 121.222 163.226 139.334 191.086 140.442C218.946 141.55 228.165 124.673 228.87 97.6195C229.5 68.8276 186.249 73.0343 163.553 78.3997Z" fill="#233049"/>
<path d="M27.9569 97.4688C28.2844 124.497 37.4535 141.5 65.1874 140.72C92.9213 139.939 100.453 122.029 103.425 114.396C106.398 106.764 116.02 84.622 93.3495 79.1306C70.6787 73.6393 27.6295 68.8532 27.9569 97.4688Z" fill="#233049"/>
<path opacity="0.1" d="M193.353 74.5223L209.021 137.648C204.673 139.293 200.066 140.146 195.418 140.167L179.347 75.4292C183.995 74.8596 188.671 74.5569 193.353 74.5223Z" fill="white"/>
<path opacity="0.1" d="M173.201 76.385L189.02 140.115C186.539 139.953 184.073 139.616 181.64 139.107L166.526 77.6445C168.642 77.1911 170.909 76.7629 173.201 76.385Z" fill="white"/>
<path opacity="0.1" d="M67.832 75.1506L83.1978 137.017C78.9719 138.82 74.4952 139.967 69.9228 140.417L53.625 75.3269C58.3484 74.8889 63.0992 74.8299 67.832 75.1506Z" fill="white"/>
<path opacity="0.1" d="M47.6049 76.2596L63.6256 140.745C61.2083 140.755 58.7931 140.604 56.3961 140.292L40.98 78.2496C43.1237 77.3876 45.341 76.7216 47.6049 76.2596Z" fill="white"/>
</svg>
