<svg width="277" height="274" viewBox="0 0 277 274" fill="none" xmlns="http://www.w3.org/2000/svg">
<path fill-rule="evenodd" clip-rule="evenodd" d="M188.07 233.254C173.035 235.056 156.019 235.644 137.031 235.644C118.044 235.644 101.029 235.055 85.9949 233.251L85.9814 233.273L60.1452 270.602C58.6511 272.662 56.4099 273.723 54.1687 273.723C51.9275 273.723 49.6863 272.724 48.2544 270.727C34.4336 251.625 20.426 226.906 11.2744 197.068C7.80344 185.775 5.03931 173.772 3.24631 161.082C1.67591 151.369 0.885592 140.423 0.877441 128.091C0.877441 31.0863 56.2851 0 137.031 0C217.669 0 273.037 31.0036 273.184 127.704C273.185 127.832 273.185 127.961 273.185 128.091C273.185 128.423 273.184 128.754 273.183 129.086C273.144 140.326 272.447 150.405 271.092 159.439C264.767 206.414 245.098 244.08 225.808 270.726C222.882 274.783 216.781 274.721 213.917 270.601L188.081 233.272C188.078 233.266 188.074 233.26 188.07 233.254Z" fill="#0096FA"/>
<path d="M13.2661 203.309C22.8535 232.086 37.1101 255.307 48.2539 270.725C51.1799 274.782 57.281 274.72 60.1448 270.6L85.9809 233.272C50.5574 230.15 24.0986 219.851 13.2661 203.309Z" fill="url(#paint0_linear_10648_1652)"/>
<path d="M260.593 203.309C251.005 232.086 236.749 255.307 225.605 270.725C222.679 274.782 216.578 274.72 213.714 270.6L187.878 233.272C223.302 230.15 249.76 219.851 260.593 203.309Z" fill="url(#paint1_linear_10648_1652)"/>
<path fill-rule="evenodd" clip-rule="evenodd" d="M103.774 183.565C103.774 187.332 100.764 190.193 97.0508 190.193C93.3374 190.193 90.3271 187.332 90.3271 183.565C90.3271 179.797 93.3374 176.743 97.0508 176.743C100.764 176.743 103.774 179.797 103.774 183.565ZM179.79 184.519C178.685 184.047 177.327 183.467 175.859 183.467C174.391 183.467 173.033 184.047 171.928 184.519C170.236 185.242 169.135 185.712 169.135 183.467C169.135 179.754 172.146 176.743 175.859 176.743C179.572 176.743 182.582 179.754 182.582 183.467C182.582 185.712 181.482 185.242 179.79 184.519Z" fill="black"/>
<defs>
<linearGradient id="paint0_linear_10648_1652" x1="87.5101" y1="226.498" x2="16.5476" y2="242.363" gradientUnits="userSpaceOnUse">
<stop offset="0.0105566" stop-color="#0012FF" stop-opacity="0.2"/>
<stop offset="0.5203" stop-color="#0012FF" stop-opacity="0"/>
</linearGradient>
<linearGradient id="paint1_linear_10648_1652" x1="186.349" y1="226.498" x2="257.311" y2="242.363" gradientUnits="userSpaceOnUse">
<stop offset="0.0105566" stop-color="#0012FF" stop-opacity="0.2"/>
<stop offset="0.5203" stop-color="#0012FF" stop-opacity="0"/>
</linearGradient>
</defs>
</svg>
