<svg width="358" height="275" viewBox="0 0 358 275" fill="none" xmlns="http://www.w3.org/2000/svg">
<g clip-path="url(#clip0_10339_4935)">
<path d="M61.9624 211.797L98.1984 162.416C117.821 139.354 147.255 152.253 181.921 160.852C231.501 173.1 296.256 236.162 239.089 236.162C210.309 236.162 171.195 236.162 145.685 236.162C121.746 236.162 100.946 234.99 75.5673 234.859" fill="#0096FA"/>
<path fill-rule="evenodd" clip-rule="evenodd" d="M53.8973 175.325C58.7497 169.93 61.7007 162.803 61.7007 154.989C61.7007 138.151 47.9957 124.5 31.0896 124.5C29.7489 124.5 28.4284 124.586 27.1332 124.753L43.513 153.266L22.8421 164.768L6.96535 136.237C6.96535 136.237 6.96871 136.226 6.97631 136.205C2.90534 141.382 0.478516 147.903 0.478516 154.989C0.478516 171.828 14.1835 185.478 31.0896 185.478C33.0944 185.478 35.0541 185.286 36.9514 184.92L70.3389 244.446L87.3556 234.977L53.8973 175.325Z" fill="#0065FF"/>
<path d="M220.382 236.162C311.431 236.162 357.479 222.872 357.479 128.539C357.479 31.4702 301.62 0.460083 220.382 0.460083C139.145 0.460083 83.2856 31.6005 83.2856 128.539C83.2856 222.742 129.334 236.162 220.382 236.162Z" fill="#0096FA"/>
<path d="M357.479 128.539C357.479 153.817 353.423 176.879 347.013 197.465C337.856 227.302 323.728 252.058 309.73 271.081C308.291 273.036 306.067 274.078 303.713 274.078C301.489 274.078 299.134 273.036 297.695 270.951L271.662 233.687C255.964 207.758 267.607 169.061 286.837 139.223C314.571 96.3567 357.479 71.4705 357.479 128.539Z" fill="#0096FA"/>
<path d="M345.051 203.719C335.371 232.514 321.112 255.707 309.861 271.212C306.853 275.251 300.835 275.251 297.957 271.081L271.924 233.817C307.507 230.56 334.193 220.397 345.051 203.719Z" fill="url(#paint0_linear_10339_4935)"/>
<path d="M180.614 191.211C184.371 191.211 187.416 188.178 187.416 184.436C187.416 180.694 184.371 177.66 180.614 177.66C176.857 177.66 173.812 180.694 173.812 184.436C173.812 188.178 176.857 191.211 180.614 191.211Z" fill="black"/>
<path d="M259.889 191.211C263.645 191.211 266.691 188.178 266.691 184.436C266.691 180.694 263.645 177.66 259.889 177.66C256.132 177.66 253.086 180.694 253.086 184.436C253.086 188.178 256.132 191.211 259.889 191.211Z" fill="black"/>
<path d="M65.233 235.511L72.8201 224.175C75.8289 219.615 72.1664 213.491 66.6721 214.012L53.7207 215.315L65.233 235.511Z" fill="#0096FA"/>
</g>
<defs>
<linearGradient id="paint0_linear_10339_4935" x1="270.309" y1="226.956" x2="341.723" y2="243.03" gradientUnits="userSpaceOnUse">
<stop offset="0.0488344" stop-color="#0065FF" stop-opacity="0.41"/>
<stop offset="0.5557" stop-color="#0065FF" stop-opacity="0"/>
</linearGradient>
<clipPath id="clip0_10339_4935">
<rect width="357" height="273.765" fill="white" transform="translate(0.478516 0.460083)"/>
</clipPath>
</defs>
</svg>
