<svg width="256" height="275" viewBox="0 0 256 275" fill="none" xmlns="http://www.w3.org/2000/svg">
<path d="M182.325 6.45028C163.063 2.60981 143.466 0.693798 123.824 0.730498C88.5645 0.730498 59.1209 6.93296 40.7066 18.2277C3.46773 41.1792 -0.731604 89.375 0.0889553 116.067C0.933648 143.677 7.32918 182.122 32.6941 208.428C53.0392 229.546 98.9905 240.937 131.982 240.985C134.444 240.966 136.886 241.434 139.167 242.36C141.448 243.287 143.524 244.656 145.275 246.387C147.027 248.118 148.419 250.177 149.372 252.448C150.325 254.718 150.821 257.155 150.83 259.617V272.239C150.83 272.656 150.95 273.064 151.175 273.414C151.4 273.765 151.722 274.043 152.101 274.216C152.48 274.389 152.901 274.449 153.313 274.39C153.725 274.33 154.112 274.153 154.426 273.88C165.07 264.613 176.364 254.573 187.514 244.268C190.241 241.854 193.041 239.175 195.841 236.617C209.211 224.55 223.04 211.831 232.621 198.22C243.819 182.34 251.083 162.55 254.342 139.405C257.121 117.611 256.305 95.5079 251.928 73.9775C244.809 38.2831 220.095 14.318 182.325 6.45028Z" fill="#00C6D7"/>
<path opacity="0.25" d="M254.197 127.434C251.633 146.029 244.132 163.596 232.476 178.309C222.822 190.111 209.066 200.995 195.696 211.542C192.896 213.762 190.097 215.958 187.369 218.154C176.219 227.108 172.237 229.908 161.57 237.944C161.269 238.167 160.917 238.31 160.546 238.36C160.175 238.411 159.798 238.366 159.448 238.231C159.099 238.097 158.79 237.876 158.549 237.589C158.308 237.303 158.144 236.96 158.071 236.593L156.478 226.384C156.478 217.454 142.335 215.524 131.982 215.5C98.9904 215.5 53.0391 205.605 32.694 187.359C7.28083 164.504 0.93356 131.248 0.0888672 107.379C0.0888672 106.944 0.0888672 106.51 0.0888672 106.052C0.0888672 109.623 0.0888672 113.002 0.0888672 116.067C0.93356 143.677 7.32909 182.122 32.694 208.428C53.0391 229.546 98.9904 240.937 131.982 240.985C134.444 240.966 136.886 241.433 139.167 242.36C141.448 243.287 143.524 244.655 145.275 246.386C147.027 248.118 148.419 250.177 149.372 252.448C150.325 254.718 150.821 257.154 150.83 259.617V272.239C150.83 272.656 150.95 273.063 151.175 273.414C151.4 273.764 151.722 274.043 152.101 274.216C152.48 274.389 152.9 274.449 153.313 274.39C153.725 274.33 154.112 274.153 154.426 273.88C165.07 264.612 176.364 254.573 187.514 244.267C190.241 241.854 193.041 239.175 195.84 236.617C209.211 224.55 223.04 211.831 232.621 198.22C243.819 182.339 251.083 162.549 254.342 139.405C255.665 129.447 256.198 119.4 255.934 109.358C255.732 115.414 255.151 121.451 254.197 127.434Z" fill="#2D91AF"/>
<path opacity="0.2" d="M140.549 33.6495C156.526 39.1038 181.818 39.8037 201.319 52.3052C208.559 56.8424 218.937 59.4006 221.784 54.8634C224.632 50.3262 224.077 43.1825 214.279 35.7733C203.056 27.3264 192.051 20.7619 151.796 16.4661C134.588 14.5836 128.458 29.5226 140.549 33.6495Z" fill="white"/>
<path opacity="0.2" d="M226.056 80.2038C230.815 80.2038 234.672 76.3463 234.672 71.5879C234.672 66.8295 230.815 62.972 226.056 62.972C221.298 62.972 217.44 66.8295 217.44 71.5879C217.44 76.3463 221.298 80.2038 226.056 80.2038Z" fill="white"/>
<path d="M78.0662 116.912C83.4911 116.912 87.8888 112.514 87.8888 107.089C87.8888 101.664 83.4911 97.2664 78.0662 97.2664C72.6414 97.2664 68.2437 101.664 68.2437 107.089C68.2437 112.514 72.6414 116.912 78.0662 116.912Z" fill="#167491"/>
<path d="M180.756 116.912C186.181 116.912 190.579 112.514 190.579 107.089C190.579 101.664 186.181 97.2664 180.756 97.2664C175.331 97.2664 170.934 101.664 170.934 107.089C170.934 112.514 175.331 116.912 180.756 116.912Z" fill="#167491"/>
<path d="M129.424 166.797C138.314 166.797 145.521 155.97 145.521 142.614C145.521 129.259 138.314 118.432 129.424 118.432C120.533 118.432 113.326 129.259 113.326 142.614C113.326 155.97 120.533 166.797 129.424 166.797Z" fill="#167491"/>
</svg>
