<svg width="1080" height="1081" viewBox="0 0 1080 1081" fill="none" xmlns="http://www.w3.org/2000/svg">
<path d="M727.083 846.128C915.858 846.128 1068.89 693.096 1068.89 504.321C1068.89 315.546 915.858 162.514 727.083 162.514C538.308 162.514 385.276 315.546 385.276 504.321C385.276 693.096 538.308 846.128 727.083 846.128Z" fill="#F5F5F5"/>
<path d="M214.968 837.994C319.599 837.994 404.42 753.173 404.42 648.542C404.42 543.91 319.599 459.09 214.968 459.09C110.336 459.09 25.5156 543.91 25.5156 648.542C25.5156 753.173 110.336 837.994 214.968 837.994Z" fill="#C5D9FB"/>
<path d="M184.417 577.126L182.632 588.334L192.055 614.719L189.178 617.992L185.31 602.618L181.541 605.594L184.021 628.109L212.984 626.721L226.276 614.719L213.778 590.12L214.571 580.994L184.417 577.126Z" fill="#FCAA73"/>
<path d="M518.487 468.911C558.368 468.911 590.697 442.665 590.697 410.29C590.697 377.914 558.368 351.669 518.487 351.669C478.607 351.669 446.277 377.914 446.277 410.29C446.277 442.665 478.607 468.911 518.487 468.911Z" fill="#FCE173"/>
<path d="M446.377 411.38L584.647 410.983L572.943 551.535H458.775L446.377 411.38Z" fill="#0096FA"/>
<path d="M580.282 771.24C593.429 771.24 604.088 760.582 604.088 747.434C604.088 734.287 593.429 723.629 580.282 723.629C567.135 723.629 556.477 734.287 556.477 747.434C556.477 760.582 567.135 771.24 580.282 771.24Z" fill="#072F73"/>
<path d="M535.646 636.541L589.606 627.713L599.822 689.905C600.616 692.98 600.814 696.253 600.517 699.625C598.831 714.603 585.341 725.414 570.264 723.728C557.965 722.339 548.542 713.016 546.36 701.411H546.26L535.646 636.541Z" fill="#C5D9FB"/>
<path d="M580.084 857.236L566.991 795.938H567.19C565.404 785.423 571.653 774.909 582.167 771.735C593.574 768.363 605.476 774.81 608.948 786.118C609.246 787.209 609.543 788.3 609.643 789.391C609.742 790.184 609.841 791.077 609.841 791.871L614.502 852.972C614.502 853.071 614.502 853.17 614.502 853.269V853.864C614.899 861.601 609.94 868.941 602.203 871.222C593.078 874 583.358 868.742 580.58 859.617C580.382 858.923 580.184 858.129 580.084 857.236Z" fill="#C5D9FB"/>
<path d="M514.024 884.713H565.702L523.943 622.754H462.545L514.024 884.713Z" fill="#FCAA73"/>
<path d="M458.775 551.535L433.185 697.244H627.1L572.943 551.535H458.775Z" fill="#0C4EC0"/>
<path d="M553.601 312.191L502.915 311.596L499.047 315.464L497.955 410.686L535.35 411.083L535.548 395.808L552.609 396.006C554.097 394.518 554.989 393.725 556.477 392.138L557.271 316.059L553.601 312.191Z" fill="#FCAA73"/>
<path d="M550.427 374.879L541.004 374.78C540.408 374.78 540.012 374.284 540.012 373.788C540.012 373.292 540.508 372.796 541.004 372.796L548.84 372.895L541.102 354.743C540.904 354.247 541.102 353.652 541.598 353.454C542.094 353.256 542.69 353.454 542.889 353.95L551.22 373.589C551.319 373.887 551.32 374.284 551.121 374.482C551.121 374.78 550.724 374.879 550.427 374.879Z" fill="#F06305"/>
<path d="M535.548 395.907H519.579L535.449 404.934L535.548 395.907Z" fill="url(#paint0_linear_18735_2213)"/>
<path d="M514.223 373.887H496.964C494.781 373.887 493.096 372.102 493.096 370.019V354.347H514.223V373.887Z" fill="#FCAA73"/>
<path d="M508.37 354.347L541.004 318.639L556.973 354.347L557.469 316.159L553.601 312.191L503.014 311.695L499.047 315.465L498.649 354.347H508.37Z" fill="#FCE173"/>
<path d="M449.452 467.521C465.064 467.521 477.721 454.865 477.721 439.252C477.721 423.64 465.064 410.983 449.452 410.983C433.839 410.983 421.183 423.64 421.183 439.252C421.183 454.865 433.839 467.521 449.452 467.521Z" fill="#0096FA"/>
<path d="M385.971 527.332C401.638 527.332 414.339 514.631 414.339 498.964C414.339 483.297 401.638 470.596 385.971 470.596C370.304 470.596 357.603 483.297 357.603 498.964C357.603 514.631 370.304 527.332 385.971 527.332Z" fill="#0096FA"/>
<path d="M401.524 522.46L468.697 459.234L430.014 418.136L362.841 481.361L401.524 522.46Z" fill="#0096FA"/>
<path d="M413.502 493.749L397.585 400.974L341.959 410.517L357.876 503.293L413.502 493.749Z" fill="#0096FA"/>
<path d="M564.016 873.901L511.941 874.199C511.247 877.373 509.064 888.78 496.666 889.573C473.257 891.16 482.68 902.368 482.68 902.368H568.479L564.016 873.901Z" fill="#072F73"/>
<path d="M575.224 873.901L627.299 874.199C627.993 877.373 630.176 888.78 642.574 889.573C665.983 891.16 656.56 902.368 656.56 902.368H570.761L575.224 873.901Z" fill="#072F73"/>
<path d="M576.712 613.132L583.457 593.195L565.008 613.43L560.544 611.148L574.728 589.327L548.146 608.371L544.377 604.404L567.488 580.995L542.988 593.195L539.913 588.633L574.53 561.554L573.24 552.528L588.615 550.445L596.847 543.799L626.307 564.629L593.971 594.485L581.374 614.918L576.712 613.132Z" fill="#FCAA73"/>
<path d="M582.366 467.521C597.978 467.521 610.635 454.865 610.635 439.252C610.635 423.64 597.978 410.983 582.366 410.983C566.753 410.983 554.097 423.64 554.097 439.252C554.097 454.865 566.753 467.521 582.366 467.521Z" fill="#0096FA"/>
<path d="M655.468 531.797C671.081 531.797 683.737 519.14 683.737 503.528C683.737 487.915 671.081 475.259 655.468 475.259C639.856 475.259 627.199 487.915 627.199 503.528C627.199 519.14 639.856 531.797 655.468 531.797Z" fill="#0096FA"/>
<path d="M671.545 480.005L600.994 417.69L563.632 459.991L634.183 522.306L671.545 480.005Z" fill="#0096FA"/>
<path d="M633.547 485.574L586.036 541.814L625.612 582.482L676.695 521.976L633.547 485.574Z" fill="#0096FA"/>
<path d="M404.42 521.182C420.307 521.182 433.185 508.304 433.185 492.417C433.185 476.531 420.307 463.652 404.42 463.652C388.534 463.652 375.655 476.531 375.655 492.417C375.655 508.304 388.534 521.182 404.42 521.182Z" fill="#35DE90"/>
<path d="M235.104 429.035C250.99 429.035 263.869 416.156 263.869 400.27C263.869 384.383 250.99 371.505 235.104 371.505C219.217 371.505 206.339 384.383 206.339 400.27C206.339 416.156 219.217 429.035 235.104 429.035Z" fill="#35DE90"/>
<path d="M202.272 519.595C218.158 519.595 231.037 506.717 231.037 490.83C231.037 474.944 218.158 462.065 202.272 462.065C186.385 462.065 173.507 474.944 173.507 490.83C173.507 506.717 186.385 519.595 202.272 519.595Z" fill="#35DE90"/>
<path d="M488.498 599.858L475.661 598.641L447.322 897.536L460.159 898.753L488.498 599.858Z" fill="#C5D9FB"/>
<path d="M349.668 279.854L298.982 279.259L295.114 283.127L294.022 378.349L331.417 378.746L331.615 363.471L348.676 363.669C350.164 362.181 351.056 361.387 352.544 359.8L353.338 283.722L349.668 279.854Z" fill="#FCAA73"/>
<path d="M346.494 342.541L337.071 342.442C336.476 342.442 336.079 341.946 336.079 341.45C336.079 340.954 336.575 340.458 337.071 340.458L344.907 340.557L337.17 322.406C336.972 321.91 337.17 321.314 337.666 321.116C338.162 320.918 338.757 321.116 338.956 321.612L347.288 341.252C347.387 341.549 347.387 341.946 347.189 342.144C347.089 342.442 346.792 342.541 346.494 342.541Z" fill="#F06305"/>
<path d="M331.615 363.57H315.547L331.516 372.596L331.615 363.57Z" fill="url(#paint1_linear_18735_2213)"/>
<path d="M471.274 601.228L488.632 611.941L484.565 617.198L450.345 604.402L435.169 578.216L458.776 566.016L463.141 573.058L505.991 585.953L515.314 618.09L509.561 617.693L495.675 593.095L481.689 590.119L471.274 601.228Z" fill="#FCAA73"/>
<path d="M392.716 436.277C408.603 436.277 421.481 423.398 421.481 407.512C421.481 391.626 408.603 378.747 392.716 378.747C376.83 378.747 363.951 391.626 363.951 407.512C363.951 423.398 376.83 436.277 392.716 436.277Z" fill="#35DE90"/>
<path d="M421.291 403.09L364.499 410.927L376.214 495.821L433.007 487.984L421.291 403.09Z" fill="#35DE90"/>
<path d="M430.979 482.358L378.199 504.746L414.221 589.668L467.001 567.28L430.979 482.358Z" fill="#35DE90"/>
<path d="M229.251 500.254L175.292 480.812L208.025 390.55L262.083 409.991L229.251 500.254Z" fill="#35DE90"/>
<path d="M230.118 493.775L173.131 487.525L163.422 576.063L220.409 582.312L230.118 493.775Z" fill="#35DE90"/>
<path d="M392.716 378.845L234.905 371.505L244.626 548.459H367.819L392.716 378.845Z" fill="#35DE90"/>
<path d="M375.755 494.5L386.368 422.19L393.907 541.218L378.037 503.923C378.037 503.824 376.35 500.749 375.755 494.5Z" fill="url(#paint2_linear_18735_2213)"/>
<path d="M239.865 471.885L257.719 422.092L244.031 535.862L239.865 471.885Z" fill="url(#paint3_linear_18735_2213)"/>
<path d="M365.935 600.137H242.741L244.626 548.459H367.919L365.935 600.137Z" fill="#0096FA"/>
<path d="M395.692 873.8L379.524 724.818C379.524 722.338 379.226 719.958 378.73 717.676L365.935 600.137H299.081L312.571 724.818C312.571 727.198 312.769 729.479 313.265 731.662L328.739 873.8H395.692Z" fill="url(#paint4_linear_18735_2213)"/>
<path d="M322.589 724.818H255.735L242.741 600.137H309.496L322.589 724.818Z" fill="#0096FA"/>
<path d="M286.087 873.8H219.333L255.735 724.817H322.589L286.087 873.8Z" fill="#0096FA"/>
<path d="M289.162 758.245C307.624 758.245 322.589 743.279 322.589 724.818C322.589 706.357 307.624 691.392 289.162 691.392C270.701 691.392 255.735 706.357 255.735 724.818C255.735 743.279 270.701 758.245 289.162 758.245Z" fill="#0096FA"/>
<mask id="mask0_18735_2213" style="mask-type:luminance" maskUnits="userSpaceOnUse" x="471" y="583" width="61" height="46">
<path d="M482.085 607.873L471.274 601.227L481.689 590.118L522.654 583.274L531.68 606.187L520.273 628.108L482.085 607.873Z" fill="white"/>
</mask>
<g mask="url(#mask0_18735_2213)">
<path d="M503.065 605.969L504.395 591.947L464.798 588.193L463.469 602.215L503.065 605.969Z" fill="#C5D9FB"/>
<path d="M503.411 606.286C507.301 606.286 510.454 603.133 510.454 599.243C510.454 595.354 507.301 592.201 503.411 592.201C499.522 592.201 496.369 595.354 496.369 599.243C496.369 603.133 499.522 606.286 503.411 606.286Z" fill="#072F73"/>
</g>
<path d="M354.032 275.192H293.427C291.344 275.192 289.757 276.878 289.757 278.862V286.203C289.757 288.285 288.071 289.872 286.087 289.872C284.004 289.872 282.417 291.559 282.417 293.542V347.601C282.417 349.684 284.103 351.27 286.087 351.27H298.089C300.172 351.27 301.759 349.585 301.759 347.601V299.89C301.759 297.807 303.445 296.22 305.429 296.22H354.131C356.214 296.22 357.801 294.534 357.801 292.551V279.061C357.801 276.879 356.115 275.192 354.032 275.192Z" fill="#A3A3A3"/>
<path d="M310.289 341.549H293.03C290.848 341.549 289.162 339.764 289.162 337.681V322.009H310.289V341.549Z" fill="#FCAA73"/>
<path d="M336.377 873.899L388.451 874.197C389.145 877.371 391.328 888.778 403.726 889.571C427.135 891.158 417.712 902.367 417.712 902.367H331.913L336.377 873.899Z" fill="#072F73"/>
<path d="M225.78 873.899L277.854 874.197C278.549 877.371 280.731 888.778 293.13 889.571C316.538 891.158 307.115 902.367 307.115 902.367H221.316L225.78 873.899Z" fill="#072F73"/>
<path d="M368.514 366.745L379.127 367.043L374.961 384.798L369.01 384.103L368.514 366.745Z" fill="#FCAA73"/>
<path d="M368.215 363.571H357.007L360.181 387.972L368.612 387.575L368.215 363.571Z" fill="#FCAA73"/>
<path d="M357.801 367.438L348.18 368.43L351.949 384.697L358.495 383.805L357.801 367.438Z" fill="#FCAA73"/>
<path d="M348.775 371.01L340.542 372.2L344.708 383.805L349.965 382.515L348.775 371.01Z" fill="#FCAA73"/>
<path d="M207.925 642.889H202.966V763.305H207.925V642.889Z" fill="white"/>
<path d="M89.3937 790.681L85.2275 913.279H99.4114L128.871 814.883L89.3937 790.681Z" fill="#F06305"/>
<path d="M272.2 795.541L276.267 918.139H262.182L232.723 819.743L272.2 795.541Z" fill="#F06305"/>
<path d="M336.078 754.378C336.078 754.874 336.078 755.468 335.979 755.964C335.285 760.428 331.912 763.9 327.548 764.693C326.953 764.793 326.258 764.891 325.564 764.891L294.716 766.479C292.534 766.578 290.55 767.371 288.963 768.562C286.483 770.446 284.896 773.422 284.896 776.794V812.304C284.896 812.503 284.896 812.8 284.896 812.998C284.797 825 280.731 836.11 273.887 844.938C272.399 846.921 270.712 848.905 268.828 850.69C262.579 856.939 254.743 861.601 246.014 864.081C245.518 864.279 245.022 864.379 244.427 864.478C240.162 865.569 235.599 866.164 230.937 866.164C226.871 866.164 223.002 865.668 219.233 864.875C218.539 864.776 217.944 864.577 217.249 864.379C214.174 863.585 211.199 862.494 208.322 861.205L169.44 844.243L148.015 834.919L125.697 825.199L110.918 818.752L86.9144 861.403L57.7523 913.279H43.5684L65.1915 797.128C62.5134 797.525 59.7363 797.723 56.959 797.723C27.2021 797.723 3 773.62 3 743.764C3 732.655 6.37254 722.339 12.0263 713.809C29.9796 746.045 60.9268 770.149 97.8253 778.877C107.744 781.258 118.159 782.548 128.871 782.548C135.418 782.548 141.865 782.052 148.213 781.159C154.462 780.266 160.513 778.977 166.464 777.191C179.557 773.323 191.758 767.669 202.867 760.23C207.132 757.353 211.298 754.279 215.166 750.906C217.448 749.022 219.63 747.038 221.713 744.955C222.804 743.864 223.994 742.772 225.085 741.582L225.383 741.681L235.5 731.266L247.998 718.471C252.561 713.016 259.504 709.544 267.241 709.544C280.135 709.544 290.749 719.264 292.237 731.762H292.435C292.435 737.218 296.7 741.78 302.156 742.078L325.564 743.566C325.862 743.566 326.258 743.566 326.556 743.566C330.226 743.963 333.4 746.145 334.987 749.319C335.681 751.005 336.078 752.592 336.078 754.378Z" fill="url(#paint5_linear_18735_2213)"/>
<path d="M247.006 811.015L244.626 859.717L244.427 864.577L244.229 867.652L243.435 883.522L241.749 919.131H230.739L222.705 886.697L219.035 871.719L217.249 864.478L204.156 811.511L247.006 811.015Z" fill="#FCAA73"/>
<path d="M256.627 772.926C261.941 772.926 266.249 768.619 266.249 763.305C266.249 757.991 261.941 753.684 256.627 753.684C251.313 753.684 247.006 757.991 247.006 763.305C247.006 768.619 251.313 772.926 256.627 772.926Z" fill="#F06305"/>
<path d="M247.006 733.35L266.249 737.912V763.305H247.006V733.35Z" fill="#F06305"/>
<path d="M333.301 756.362C337.738 756.362 341.335 752.765 341.335 748.327C341.335 743.89 337.738 740.293 333.301 740.293C328.864 740.293 325.267 743.89 325.267 748.327C325.267 752.765 328.864 756.362 333.301 756.362Z" fill="#8C3A03"/>
<path d="M278.449 738.706C280.421 738.706 282.02 737.107 282.02 735.135C282.02 733.163 280.421 731.564 278.449 731.564C276.477 731.564 274.879 733.163 274.879 735.135C274.879 737.107 276.477 738.706 278.449 738.706Z" fill="#8C3A03"/>
<path d="M274.879 792.963C260.298 792.963 246.907 788.003 236.195 779.77C236.195 779.77 236.195 779.77 236.095 779.77C226.672 772.43 219.332 762.511 215.266 751.104C213.381 752.692 211.397 754.279 209.413 755.767C186.401 773.026 161.009 778.977 151.884 780.663C150.693 780.862 149.503 781.06 148.313 781.258C143.155 794.649 143.452 806.551 143.452 806.551C143.452 807.246 143.452 807.841 143.452 808.535C143.452 817.859 145.039 826.786 148.015 835.019L169.44 844.343C162.397 834.126 158.331 821.827 158.331 808.535C158.331 807.543 158.33 806.551 158.43 805.559C186.302 802.485 208.719 793.855 222.209 787.408C231.83 796.236 243.634 802.584 256.727 805.758V832.043H284.896V807.345V801.394V792.268C281.623 792.665 278.251 792.963 274.879 792.963Z" fill="#072F73"/>
<mask id="mask1_18735_2213" style="mask-type:luminance" maskUnits="userSpaceOnUse" x="165" y="598" width="73" height="51">
<path d="M189.08 606.385L191.956 614.32L220.622 619.776L226.276 614.717L221.316 604.996L237.088 598.648L232.425 639.812L206.438 648.541L175.887 641.002L165.869 603.905L189.08 606.385Z" fill="white"/>
</mask>
<g mask="url(#mask1_18735_2213)">
<path d="M205.445 646.359C192.154 646.359 181.441 636.242 181.441 623.744C181.441 611.246 192.253 601.129 205.445 601.129C218.737 601.129 229.449 611.246 229.449 623.744C229.449 636.242 218.638 646.359 205.445 646.359ZM205.445 608.171C196.022 608.171 188.385 615.214 188.385 623.843C188.385 632.473 196.022 639.515 205.445 639.515C214.868 639.515 222.506 632.473 222.506 623.843C222.506 615.214 214.868 608.171 205.445 608.171Z" fill="#0C4EC0"/>
</g>
<path d="M859.104 580.398C874.717 580.398 887.373 567.742 887.373 552.129C887.373 536.517 874.717 523.86 859.104 523.86C843.491 523.86 830.835 536.517 830.835 552.129C830.835 567.742 843.491 580.398 859.104 580.398Z" fill="#F67979"/>
<path d="M794.128 647.286L878.122 572.62L840.624 530.438L756.63 605.104L794.128 647.286Z" fill="#F67979"/>
<path d="M855.533 593.194L862.873 556.791L811.989 631.778L855.533 593.194Z" fill="url(#paint6_linear_18735_2213)"/>
<path d="M784.415 581.49L791.06 605.891L806.038 562.347L784.415 581.49Z" fill="url(#paint7_linear_18735_2213)"/>
<path d="M801.673 697.244H796.714V886.894H801.673V697.244Z" fill="#C5D9FB"/>
<path d="M894.02 789.589H704.369V794.548H894.02V789.589Z" fill="#C5D9FB"/>
<path d="M864.364 723.302L730.262 857.404L733.769 860.911L867.87 726.809L864.364 723.302Z" fill="#C5D9FB"/>
<path d="M733.769 723.303L730.262 726.81L864.363 860.911L867.87 857.404L733.769 723.303Z" fill="#C5D9FB"/>
<path d="M799.194 896.813C741.466 896.813 694.45 849.798 694.45 792.069C694.45 734.341 741.466 687.325 799.194 687.325C856.922 687.325 903.939 734.341 903.939 792.069C903.939 849.798 857.021 896.813 799.194 896.813ZM799.194 707.163C752.376 707.163 714.288 745.252 714.288 792.069C714.288 838.887 752.376 876.975 799.194 876.975C846.011 876.975 884.101 838.887 884.101 792.069C884.101 745.252 846.011 707.163 799.194 707.163Z" fill="#072F73"/>
<path d="M859.774 746.652L829.729 879.172L839.401 881.365L869.447 748.845L859.774 746.652Z" fill="#072F73"/>
<path d="M1056.99 611.445C1061.92 611.445 1065.91 607.448 1065.91 602.518C1065.91 597.588 1061.92 593.591 1056.99 593.591C1052.06 593.591 1048.06 597.588 1048.06 602.518C1048.06 607.448 1052.06 611.445 1056.99 611.445Z" fill="#C5D9FB"/>
<path d="M1056.99 593.492H1009.87V611.446H1056.99V593.492Z" fill="#C5D9FB"/>
<path d="M903.144 593.988H1042.41L1003.52 750.608H864.263L903.144 593.988Z" fill="#0C4EC0"/>
<path d="M857.517 535.566H932.208C934.985 535.566 937.167 533.383 937.167 530.606L937.365 475.06C937.365 472.283 935.182 470.101 932.405 470.101H857.716C854.938 470.101 852.756 472.283 852.756 475.06L852.558 530.606C852.558 533.383 854.74 535.566 857.517 535.566Z" fill="#8C3A03"/>
<path d="M867.536 474.365H896.301V439.946H867.536C864.758 439.946 862.576 442.128 862.576 444.906V469.405C862.576 472.183 864.858 474.365 867.536 474.365Z" fill="#8C3A03"/>
<path d="M884.298 427.052L934.885 426.457L938.754 430.325L939.844 525.547L902.451 525.944L902.252 510.669L885.191 510.867C883.704 509.38 882.81 508.586 881.323 506.999L880.529 430.921L884.298 427.052Z" fill="#FCAA73"/>
<path d="M887.472 489.739C887.175 489.739 886.877 489.541 886.679 489.343C886.48 489.045 886.481 488.748 886.58 488.45L894.911 468.81C895.11 468.314 895.705 468.116 896.201 468.314C896.697 468.513 896.895 469.108 896.697 469.604L888.96 487.756L896.796 487.656C897.292 487.656 897.788 488.053 897.788 488.648C897.788 489.243 897.391 489.64 896.796 489.64L887.472 489.739Z" fill="#F06305"/>
<path d="M929.528 469.207L896.895 433.499L880.727 456.511L880.43 431.019L884.297 427.052L934.884 426.556L938.852 430.325L939.249 469.207H929.528Z" fill="#8C3A03"/>
<path d="M899.971 671.554H771.123C752.674 671.554 737.696 686.531 737.696 704.98C737.696 705.079 737.696 705.179 737.696 705.278L713.296 849.4H780.149L799.491 735.035H885.588C889.953 737.118 894.912 738.308 900.07 738.308C918.519 738.308 933.497 723.33 933.497 704.881C933.397 686.531 918.42 671.554 899.971 671.554Z" fill="url(#paint8_linear_18735_2213)"/>
<path d="M1003.52 750.608H844.921V735.035H1007.39L1003.52 750.608Z" fill="#0C4EC0"/>
<path d="M775.587 849.401H723.512C722.818 852.575 712.899 862.792 700.6 863.585C677.191 865.172 686.613 876.381 686.613 876.381H772.412L775.587 849.401Z" fill="url(#paint9_linear_18735_2213)"/>
<path d="M825.776 849.401H773.702C773.007 852.575 763.089 862.792 750.691 863.585C727.282 865.172 736.704 876.381 736.704 876.381H822.503L825.776 849.401Z" fill="#072F73"/>
<path d="M764.18 849.4H831.034L854.641 705.278H787.787L764.18 849.4Z" fill="#0096FA"/>
<path d="M821.214 738.407C839.675 738.407 854.641 723.441 854.641 704.98C854.641 686.519 839.675 671.554 821.214 671.554C802.753 671.554 787.787 686.519 787.787 704.98C787.787 723.441 802.753 738.407 821.214 738.407Z" fill="#0096FA"/>
<path d="M950.061 735.135C968.522 735.135 983.487 720.169 983.487 701.708C983.487 683.247 968.522 668.281 950.061 668.281C931.6 668.281 916.634 683.247 916.634 701.708C916.634 720.169 931.6 735.135 950.061 735.135Z" fill="#0096FA"/>
<path d="M950.061 671.554H821.214V735.035H950.061V671.554Z" fill="#0096FA"/>
<path d="M983.091 707.163L985.77 666.099H939.646L983.091 707.163Z" fill="#0096FA"/>
<path d="M875.073 671.554H982.991L990.729 542.012L981.206 522.77L869.618 523.464L854.045 600.633L875.073 671.554Z" fill="url(#paint10_linear_18735_2213)"/>
<path d="M930.62 697.244H925.66V886.894H930.62V697.244Z" fill="#C5D9FB"/>
<path d="M1022.97 789.589H833.315V794.548H1022.97V789.589Z" fill="#C5D9FB"/>
<path d="M993.299 723.279L859.197 857.381L862.704 860.888L996.806 726.786L993.299 723.279Z" fill="#C5D9FB"/>
<path d="M862.702 723.259L859.195 726.766L993.297 860.867L996.804 857.36L862.702 723.259Z" fill="#C5D9FB"/>
<path d="M928.14 896.813C870.412 896.813 823.396 849.798 823.396 792.069C823.396 734.341 870.412 687.325 928.14 687.325C985.869 687.325 1032.88 734.341 1032.88 792.069C1032.88 849.798 985.869 896.813 928.14 896.813ZM928.14 707.163C881.323 707.163 843.234 745.252 843.234 792.069C843.234 838.887 881.323 876.975 928.14 876.975C974.958 876.975 1013.05 838.887 1013.05 792.069C1013.05 745.252 974.958 707.163 928.14 707.163Z" fill="#072F73"/>
<path d="M1015.13 676.612H864.263V692.185H1015.13V676.612Z" fill="#C5D9FB"/>
<path d="M1051.23 639.615C1067.12 639.615 1080 626.736 1080 610.85C1080 594.963 1067.12 582.085 1051.23 582.085C1035.35 582.085 1022.47 594.963 1022.47 610.85C1022.47 626.736 1035.35 639.615 1051.23 639.615Z" fill="#F67979"/>
<path d="M980.412 580.299C996.299 580.299 1009.18 567.421 1009.18 551.534C1009.18 535.648 996.299 522.77 980.412 522.77C964.526 522.77 951.647 535.648 951.647 551.534C951.647 567.421 964.526 580.299 980.412 580.299Z" fill="#F67979"/>
<path d="M1030.13 631.14L1066.99 587.229L998.545 529.765L961.68 573.676L1030.13 631.14Z" fill="#F67979"/>
<path d="M985.931 683.465L1037.85 707.785L1077.87 622.361L1025.95 598.04L985.931 683.465Z" fill="#F67979"/>
<path d="M902.252 510.769H918.321L902.351 519.795L902.252 510.769Z" fill="url(#paint11_linear_18735_2213)"/>
<path d="M975.751 535.565H937.167C934.389 535.565 932.207 533.383 932.207 530.606V474.068C932.207 471.291 934.389 469.108 937.167 469.108H975.751C978.528 469.108 980.71 471.291 980.71 474.068V530.606C980.71 533.383 978.528 535.565 975.751 535.565Z" fill="#8C3A03"/>
<path d="M957.996 474.365H936.67C933.893 474.365 931.711 472.183 931.711 469.405V444.906C931.711 442.128 933.893 439.946 936.67 439.946H957.996C960.773 439.946 962.956 442.128 962.956 444.906V469.405C962.956 472.183 960.674 474.365 957.996 474.365Z" fill="#8C3A03"/>
<path d="M923.577 488.747H940.836C943.018 488.747 944.704 486.962 944.704 484.879V469.207H923.577V488.747Z" fill="#FCAA73"/>
<path d="M897.293 535.367L857.517 535.566C854.74 535.566 852.558 533.383 852.558 530.606V515.827C852.558 513.05 854.74 510.868 857.517 510.868L902.252 510.669V530.408C902.252 533.185 900.07 535.367 897.293 535.367Z" fill="#8C3A03"/>
<path d="M850.475 876.38H673.719V891.952H850.475V876.38Z" fill="#0C4EC0"/>
<path d="M984.083 752.592L990.034 732.457L972.379 753.484L967.815 751.303L981.206 728.886L955.318 749.021L951.449 745.153L973.568 720.851L949.664 734.044L946.291 729.679L979.917 701.212L971.684 696.153L989.737 690.698L993.803 687.821L1024.55 702.204L1000.65 733.349L988.745 754.278L984.083 752.592Z" fill="#FCAA73"/>
<path d="M579.191 473.87L582.366 442.229L602.204 494.402L579.191 473.87Z" fill="url(#paint12_linear_18735_2213)"/>
<path d="M706.253 496.584L722.322 510.173L710.22 485.574L713.99 482.202L729.166 503.429L721.032 471.787L726.19 469.704L739.581 499.758L737.101 472.481L742.457 471.291L755.054 513.645L763.783 498.469L767.949 499.362L760.212 530.606L763.386 540.723L729.861 551.734L717.263 519.497L702.881 500.254L706.253 496.584Z" fill="#FCAA73"/>
<path d="M777.669 652.907C793.282 652.907 805.938 640.251 805.938 624.638C805.938 609.026 793.282 596.369 777.669 596.369C762.057 596.369 749.4 609.026 749.4 624.638C749.4 640.251 762.057 652.907 777.669 652.907Z" fill="#F67979"/>
<path d="M805.897 618.27L767.002 532.545L715.603 555.865L754.498 641.591L805.897 618.27Z" fill="#F67979"/>
<defs>
<linearGradient id="paint0_linear_18735_2213" x1="527.519" y1="400.441" x2="531.874" y2="385.006" gradientUnits="userSpaceOnUse">
<stop stop-color="#FCAA73"/>
<stop offset="0.1097" stop-color="#FBA66C"/>
<stop offset="0.2687" stop-color="#F99959"/>
<stop offset="0.4576" stop-color="#F68539"/>
<stop offset="0.6679" stop-color="#F1690E"/>
<stop offset="0.7058" stop-color="#F06305"/>
</linearGradient>
<linearGradient id="paint1_linear_18735_2213" x1="323.552" y1="368.109" x2="327.906" y2="352.675" gradientUnits="userSpaceOnUse">
<stop stop-color="#FCAA73"/>
<stop offset="0.1097" stop-color="#FBA66C"/>
<stop offset="0.2687" stop-color="#F99959"/>
<stop offset="0.4576" stop-color="#F68539"/>
<stop offset="0.6679" stop-color="#F1690E"/>
<stop offset="0.7058" stop-color="#F06305"/>
</linearGradient>
<linearGradient id="paint2_linear_18735_2213" x1="394.177" y1="481.751" x2="373.004" y2="481.088" gradientUnits="userSpaceOnUse">
<stop offset="0.1881" stop-color="#35DE90"/>
<stop offset="0.4004" stop-color="#33DA8D"/>
<stop offset="0.6271" stop-color="#2DCD83"/>
<stop offset="0.8596" stop-color="#23B873"/>
<stop offset="1" stop-color="#1BA766"/>
</linearGradient>
<linearGradient id="paint3_linear_18735_2213" x1="255.368" y1="479.966" x2="237.158" y2="475.949" gradientUnits="userSpaceOnUse">
<stop offset="0.2273" stop-color="#35DE90"/>
<stop offset="0.4294" stop-color="#33DA8D"/>
<stop offset="0.6451" stop-color="#2DCD83"/>
<stop offset="0.8664" stop-color="#23B873"/>
<stop offset="1" stop-color="#1BA766"/>
</linearGradient>
<linearGradient id="paint4_linear_18735_2213" x1="376.106" y1="734.156" x2="279.784" y2="743.634" gradientUnits="userSpaceOnUse">
<stop offset="0.1004" stop-color="#0096FA"/>
<stop offset="0.3413" stop-color="#058DF8"/>
<stop offset="0.7352" stop-color="#1274F3"/>
<stop offset="0.9014" stop-color="#1968F0"/>
</linearGradient>
<linearGradient id="paint5_linear_18735_2213" x1="166.102" y1="735.795" x2="210.988" y2="935.28" gradientUnits="userSpaceOnUse">
<stop offset="0.4415" stop-color="#FCAA73"/>
<stop offset="0.4966" stop-color="#FBA56B"/>
<stop offset="0.5833" stop-color="#F99654"/>
<stop offset="0.6902" stop-color="#F57E30"/>
<stop offset="0.7949" stop-color="#F06305"/>
</linearGradient>
<linearGradient id="paint6_linear_18735_2213" x1="838.158" y1="595.146" x2="856.072" y2="605.341" gradientUnits="userSpaceOnUse">
<stop offset="0.0610308" stop-color="#F67979"/>
<stop offset="0.259" stop-color="#F36868"/>
<stop offset="0.6494" stop-color="#ED3C3C"/>
<stop offset="1" stop-color="#E60F0F"/>
</linearGradient>
<linearGradient id="paint7_linear_18735_2213" x1="803.787" y1="583.328" x2="770.242" y2="586.086" gradientUnits="userSpaceOnUse">
<stop offset="0.1329" stop-color="#F67979"/>
<stop offset="0.2849" stop-color="#F57474"/>
<stop offset="0.4605" stop-color="#F36666"/>
<stop offset="0.6478" stop-color="#F04F4F"/>
<stop offset="0.842" stop-color="#EB2F2F"/>
<stop offset="1" stop-color="#E60F0F"/>
</linearGradient>
<linearGradient id="paint8_linear_18735_2213" x1="721.821" y1="696.911" x2="902.715" y2="824.56" gradientUnits="userSpaceOnUse">
<stop offset="0.0262009" stop-color="#0096FA"/>
<stop offset="0.641" stop-color="#1968F0"/>
</linearGradient>
<linearGradient id="paint9_linear_18735_2213" x1="707.023" y1="839.669" x2="766.015" y2="896.636" gradientUnits="userSpaceOnUse">
<stop offset="0.2603" stop-color="#072F73"/>
<stop offset="0.3664" stop-color="#072C6D"/>
<stop offset="0.5132" stop-color="#06255B"/>
<stop offset="0.6836" stop-color="#04193D"/>
<stop offset="0.8706" stop-color="#010915"/>
<stop offset="0.9558"/>
</linearGradient>
<linearGradient id="paint10_linear_18735_2213" x1="895.022" y1="567.612" x2="1061.35" y2="716.242" gradientUnits="userSpaceOnUse">
<stop offset="0.1611" stop-color="#F67979"/>
<stop offset="0.2975" stop-color="#F57373"/>
<stop offset="0.4798" stop-color="#F36262"/>
<stop offset="0.6882" stop-color="#EE4646"/>
<stop offset="0.9143" stop-color="#E92020"/>
<stop offset="1" stop-color="#E60F0F"/>
</linearGradient>
<linearGradient id="paint11_linear_18735_2213" x1="910.361" y1="515.3" x2="906.007" y2="499.865" gradientUnits="userSpaceOnUse">
<stop stop-color="#FCAA73"/>
<stop offset="0.1097" stop-color="#FBA66C"/>
<stop offset="0.2687" stop-color="#F99959"/>
<stop offset="0.4576" stop-color="#F68539"/>
<stop offset="0.6679" stop-color="#F1690E"/>
<stop offset="0.7058" stop-color="#F06305"/>
</linearGradient>
<linearGradient id="paint12_linear_18735_2213" x1="594.733" y1="467.809" x2="576.016" y2="471.94" gradientUnits="userSpaceOnUse">
<stop offset="0.1329" stop-color="#0096FA"/>
<stop offset="0.3718" stop-color="#0390F9"/>
<stop offset="0.6781" stop-color="#0C80F5"/>
<stop offset="1" stop-color="#1968F0"/>
</linearGradient>
</defs>
</svg>
