<svg xmlns="http://www.w3.org/2000/svg" width="1080" height="1081" viewBox="0 0 1080 1081" fill="none"><g clip-path="url(#a)"><path fill="#F5F5F5" d="M890 432.514c110.46 0 200-89.543 200-200s-89.54-200-200-200c-110.457 0-200 89.543-200 200s89.543 200 200 200"/><path fill="#C5D9FB" d="M376.5 956.514c204.622 0 370.5-165.879 370.5-370.5 0-204.622-165.878-370.5-370.5-370.5S6 381.392 6 586.014c0 204.621 165.878 370.5 370.5 370.5"/><path fill="#C5D9FB" d="M469.613 614.279h-10.877v415.911h10.877z"/><path fill="#C5D9FB" d="M672.135 816.797H256.219v10.876h415.916z"/><path fill="#C5D9FB" d="M607.097 671.426 313.002 965.521l7.691 7.69 294.094-294.094z"/><path fill="#C5D9FB" d="m320.693 671.427-7.691 7.691 294.094 294.094 7.691-7.691z"/><path fill="#072F73" d="M464.176 1051.95c-126.602 0-229.71-103.111-229.71-229.713s103.108-229.711 229.71-229.711c126.601 0 229.711 103.109 229.711 229.711S590.995 1051.95 464.176 1051.95m0-415.918c-102.674 0-186.204 83.532-186.204 186.205s83.53 186.203 186.204 186.203c102.673 0 186.206-83.529 186.206-186.203 0-102.673-83.533-186.205-186.206-186.205"/><path fill="#072F73" d="m597.03 722.635-65.891 290.625 21.213 4.81 65.891-290.626z"/><path fill="#C5D9FB" d="M1029.53 426.116c10.81 0 19.58-8.765 19.58-19.577s-8.77-19.578-19.58-19.578-19.58 8.765-19.58 19.578 8.77 19.577 19.58 19.577"/><path fill="#C5D9FB" d="M1029.53 386.745H926.205v39.373h103.325z"/><path fill="#0C4EC0" d="M692.145 387.833h305.411l-85.272 343.478H606.875z"/><path fill="url(#b)" d="M685.186 557.938H402.615c-40.461 0-73.308 32.847-73.308 73.307v.653l-53.511 316.07h146.613l42.418-250.811h188.817a73.9 73.9 0 0 0 31.758 7.178c40.461 0 73.308-32.847 73.308-73.308-.217-40.242-33.064-73.089-73.524-73.089"/><path fill="#0C4EC0" d="M912.285 731.31H564.458v-34.152H920.77z"/><path fill="url(#c)" d="M412.403 947.97H298.2c-1.522 6.961-23.274 29.366-50.248 31.106-51.337 3.48-30.673 28.064-30.673 28.064h188.163z"/><path fill="#072F73" d="M522.472 947.97H408.269c-1.523 6.961-23.274 29.366-50.465 31.106-51.337 3.48-30.673 28.064-30.673 28.064h188.163z"/><path fill="#0096FA" d="M387.387 947.968h146.615l51.772-316.07H439.158z"/><path fill="#0096FA" d="M512.467 704.553c40.486 0 73.308-32.821 73.308-73.308 0-40.486-32.822-73.307-73.308-73.307s-73.308 32.821-73.308 73.307 32.821 73.308 73.308 73.308M795.036 697.376c40.486 0 73.305-32.82 73.305-73.307 0-40.486-32.819-73.307-73.305-73.307s-73.308 32.821-73.308 73.307 32.821 73.307 73.308 73.307"/><path fill="#0096FA" d="M795.037 557.938H512.466v139.219h282.571z"/><path fill="#0096FA" d="m867.475 636.032 5.873-90.056H772.197z"/><path fill="#C5D9FB" d="M752.4 614.279h-10.877v415.911H752.4z"/><path fill="#C5D9FB" d="M954.922 816.797H539.006v10.876h415.916z"/><path fill="#C5D9FB" d="M889.861 671.376 595.767 965.47l7.69 7.69 294.094-294.094z"/><path fill="#C5D9FB" d="m603.453 671.332-7.691 7.69 294.094 294.094 7.69-7.691z"/><path fill="#072F73" d="M746.963 1051.95c-126.602 0-229.71-103.111-229.71-229.713s103.108-229.711 229.71-229.711 229.712 103.109 229.712 229.711-103.11 229.713-229.712 229.713m0-415.918c-102.674 0-186.204 83.532-186.204 186.205s83.53 186.203 186.204 186.203c102.673 0 186.206-83.529 186.206-186.203 0-102.673-83.533-186.205-186.206-186.205"/><path fill="#C5D9FB" d="M937.736 569.032H606.875v34.153h330.861z"/><path fill="#0C4EC0" d="M576.637 1007.14H189v34.15h387.637z"/><path fill="url(#d)" d="m809.7 395.514 29.3 161H699z"/><path fill="url(#e)" d="m380.222 511.065 4.666-54.774 35.704 12.498-12.371-11.085 159.961-180.19L655 354.893 522.386 504.327l-27.348 30.756-.108-.109-16.495 18.476c-36.03 40.537-102.771 11.737-98.213-42.385"/><path fill="#35DE90" d="M617.669 256.514H858.26c32.881 0 61.097 23.672 66.74 56.14l-41.767 187.37c-4.015 11.294-31.573 39.613-39.169 54.49H593.5l-42.463-218.622c-7.271-41.481 24.634-79.378 66.632-79.378"/><path fill="url(#f)" d="m493 375.349 11.357 102.165 21.643-140z"/><path fill="url(#g)" d="m809 462.514-25.927-151-161.073 151z"/><path fill="#FCAA73" d="m515.424 504.383 46.033-8.434-59.259-13.991-.388-11.14 57.735 3.987-65.735-31.083 3.638-11.612 70.465 19.621-50.183-34.432 5.545-10.905 90.03 38.016 11.188-27.962 15.913 7.661 2.14 31.981 29.379 12.508-8.649 79.76-92.963-30.582-53.322-2.403z"/><path fill="#35DE90" d="m874.365 559.697 46.974-214.019-128.32-28.165-46.974 214.019z"/><path fill="#35DE90" d="m824.738 472.948-160.636-31.566-36.272 120.856 172.785 33.898z"/><path fill="#0096FA" d="m419.128 298.499 82.929-7.594c3.056-.325 5.238-2.928 4.911-5.857l-13.204-143.622c-.327-2.929-2.946-5.207-5.892-4.881l-82.929 7.593c-3.056.325-5.238 2.929-4.911 5.858l13.204 143.621c.218 2.929 2.946 5.099 5.892 4.882"/><path fill="#0C4EC0" d="m409.949 299.499 82.154-7.593c3.027-.326 5.189-2.929 4.865-5.858l-13.08-143.621c-.324-3.037-2.919-5.206-5.837-4.881l-82.154 7.593c-3.027.326-5.189 2.929-4.865 5.858l13.08 143.62c.216 2.929 2.919 5.099 5.837 4.882"/><path fill="#FCAA73" d="M390.162 326.514 368 229.635l27.892-50.121 56.973.325-.216 11.717-31.892 7.594 53.297 6.292-2.487 10.849-33.729 2.821L476 232.238l-4.324 11.066-30.379-.434 25.514 12.802-3.784 7.377-20.54-3.472-12.865 11.066 22.702 24.192-3.675 27.664"/><path fill="#F06305" d="M610.294 138.921h25.104c3.749 0 6.816-3.067 6.816-6.815v-80.31c0-3.748-3.067-6.815-6.816-6.815h-25.104c-3.748 0-6.815 3.066-6.815 6.815v80.31c0 3.748 3.067 6.815 6.815 6.815M744.561 206.509h25.104c3.748 0 6.815-3.067 6.815-6.815v-64.748c0-3.748-3.067-6.815-6.815-6.815h-25.104c-3.749 0-6.816 3.067-6.816 6.815v64.634c0 3.863 3.067 6.929 6.816 6.929"/><path fill="#FCAA73" d="M632.559 28.85h119.158l9.088 9.087v224.117h-88.034v-35.895h-40.212l-9.087-9.087V37.937z"/><path fill="url(#h)" d="M750.581 172.204h10.224v37.486h-10.224z"/><path fill="url(#i)" d="m703.896 238.656-31.125 23.4v-35.895h31.125z"/><path fill="#F06305" fill-rule="evenodd" d="M659.199 126.696a1.565 1.565 0 0 0-2.06.805l-20.106 45.891a1.565 1.565 0 0 0 1.433 2.192h22.037a1.563 1.563 0 0 0 0-3.128h-19.645l19.146-43.7a1.564 1.564 0 0 0-.805-2.06" clip-rule="evenodd"/><path fill="#FCAA73" d="M771.596 172.205h-24.99v-39.076h33.851v30.215c0 4.885-3.976 8.861-8.861 8.861"/><path fill="#F06305" d="M764.554 18.514H627.789c-3.749 0-6.816 3.067-6.816 6.815v36.123c0 3.748 3.067 6.815 6.816 6.815h136.765c3.748 0 6.815-3.067 6.815-6.815V25.329c0-3.748-3.067-6.815-6.815-6.815"/><path fill="#F06305" d="M756.83 138.921h25.104c3.749 0 6.816-3.067 6.816-6.815V50.319c0-3.748-3.067-6.815-6.816-6.815H756.83c-3.749 0-6.816 3.067-6.816 6.815v81.787c0 3.748 3.067 6.815 6.816 6.815"/><path fill="#F06305" d="M734.111 96.325h25.104c3.749 0 6.816-3.067 6.816-6.816V64.405c0-3.748-3.067-6.815-6.816-6.815h-25.104c-3.748 0-6.815 3.067-6.815 6.815V89.51c0 3.749 3.067 6.816 6.815 6.816M613.249 90.644h15.222c3.748 0 6.815-3.067 6.815-6.815V68.608c0-3.749-3.067-6.816-6.815-6.816h-15.222c-3.748 0-6.815 3.067-6.815 6.816v15.22c0 3.75 3.067 6.816 6.815 6.816"/><path fill="url(#j)" d="m483 374.497 7.576 72.017 35.424-121z"/><path fill="#35DE90" d="M381.189 520.514 493 471.793l-17.277-161.279L360 322.912z"/><circle cx="807" cy="526.514" r="69" fill="#35DE90"/></g><defs><linearGradient id="b" x1="294.492" x2="691.204" y1="613.549" y2="893.492" gradientUnits="userSpaceOnUse"><stop offset=".026" stop-color="#0096FA"/><stop offset=".641" stop-color="#1968F0"/></linearGradient><linearGradient id="c" x1="262.039" x2="391.412" y1="926.626" y2="1051.56" gradientUnits="userSpaceOnUse"><stop offset=".26" stop-color="#072F73"/><stop offset=".366" stop-color="#072C6D"/><stop offset=".513" stop-color="#06255B"/><stop offset=".684" stop-color="#04193D"/><stop offset=".871" stop-color="#010915"/><stop offset=".956"/></linearGradient><linearGradient id="d" x1="731.083" x2="859.479" y1="455.391" y2="565.97" gradientUnits="userSpaceOnUse"><stop offset=".145" stop-color="#F06305"/><stop offset=".311" stop-color="#E15D05"/><stop offset=".631" stop-color="#B94C04"/><stop offset=".942" stop-color="#8C3A03"/></linearGradient><linearGradient id="e" x1="468.027" x2="633.137" y1="406.22" y2="531.088" gradientUnits="userSpaceOnUse"><stop offset=".247" stop-color="#35DE90"/><stop offset=".443" stop-color="#2FD287"/><stop offset=".802" stop-color="#20B16E"/><stop offset=".897" stop-color="#1BA766"/></linearGradient><linearGradient id="f" x1="524.233" x2="464.163" y1="409.232" y2="398.316" gradientUnits="userSpaceOnUse"><stop offset=".247" stop-color="#35DE90"/><stop offset=".443" stop-color="#2FD287"/><stop offset=".802" stop-color="#20B16E"/><stop offset=".897" stop-color="#1BA766"/></linearGradient><linearGradient id="g" x1="689.061" x2="823.001" y1="375.14" y2="490.74" gradientUnits="userSpaceOnUse"><stop offset=".053" stop-color="#35DE90"/><stop offset=".308" stop-color="#2FD287"/><stop offset=".773" stop-color="#20B16E"/><stop offset=".897" stop-color="#1BA766"/></linearGradient><linearGradient id="h" x1="740.526" x2="774.992" y1="197.212" y2="182.96" gradientUnits="userSpaceOnUse"><stop offset=".297" stop-color="#FCAA73"/><stop offset=".43" stop-color="#FCA76F"/><stop offset=".564" stop-color="#FAA063"/><stop offset=".7" stop-color="#F8924E"/><stop offset=".836" stop-color="#F58032"/><stop offset=".971" stop-color="#F1690E"/><stop offset="1" stop-color="#F06305"/></linearGradient><linearGradient id="i" x1="699.527" x2="663.014" y1="254.851" y2="219.813" gradientUnits="userSpaceOnUse"><stop offset=".297" stop-color="#FCAA73"/><stop offset=".43" stop-color="#FCA76F"/><stop offset=".564" stop-color="#FAA063"/><stop offset=".7" stop-color="#F8924E"/><stop offset=".836" stop-color="#F58032"/><stop offset=".971" stop-color="#F1690E"/><stop offset="1" stop-color="#F06305"/></linearGradient><linearGradient id="j" x1="520.615" x2="472.049" y1="388.877" y2="377.753" gradientUnits="userSpaceOnUse"><stop offset=".269" stop-color="#35DE90"/><stop offset=".467" stop-color="#2FD287"/><stop offset=".828" stop-color="#20B16E"/><stop offset=".923" stop-color="#1BA766"/></linearGradient><clipPath id="a"><path fill="#fff" d="M0 .514h1080v1080H0z"/></clipPath></defs></svg>