<svg xmlns="http://www.w3.org/2000/svg" width="1080" height="1081" fill="none"><path fill="#C5D9FB" d="M397 878.514c214.287 0 388-173.714 388-388 0-214.287-173.713-388-388-388-214.286 0-388 173.713-388 388 0 214.286 173.714 388 388 388"/><path fill="#1968F0" d="M878.5 996.514c104.106 0 188.5-84.395 188.5-188.5s-84.394-188.5-188.5-188.5S690 703.908 690 808.014s84.394 188.5 188.5 188.5"/><path fill="#F06305" d="M765.58 415.316c26.143 0 47.336-21.193 47.336-47.336s-21.193-47.335-47.336-47.335-47.336 21.193-47.336 47.335c0 26.143 21.193 47.336 47.336 47.336M486.953 263.678c26.142 0 47.335-21.193 47.335-47.336s-21.193-47.336-47.335-47.336c-26.143 0-47.336 21.193-47.336 47.336s21.193 47.336 47.336 47.336"/><path fill="#C5D9FB" d="m903.941 544.785-21.124-2.003-46.635 491.868 21.124 2z"/><path fill="#8C3A03" d="m875.593 547.039 28.565 17.629-6.693 8.651-56.313-21.056-24.974-43.092 38.848-20.077 7.183 11.589 70.514 21.22 15.342 52.885-9.467-.653-22.851-40.48-23.015-4.897z"/><path fill="#F06305" d="M746.321 275.595c26.142 0 47.335-21.193 47.335-47.336s-21.193-47.336-47.335-47.336c-26.143 0-47.336 21.193-47.336 47.336s21.193 47.336 47.336 47.336"/><path fill="#F06305" d="m793.341 220.981-93.458 12.897 19.279 139.702 93.458-12.897z"/><path fill="#F06305" d="m809.286 351.427-86.854 36.842 59.278 139.748 86.855-36.842zM746.321 181.084l-259.694-12.078 15.997 291.197h202.727z"/><path fill="url(#a)" d="m718.406 371.408 17.466-118.993 12.405 195.872-26.116-61.372c0-.163-2.776-5.224-3.755-15.507"/><path fill="#F06305" d="m494.788 334.192 29.38-81.939-22.525 187.221z"/><path fill="#0096FA" d="M702.248 545.244H499.52l3.102-85.042h202.891z"/><path fill="url(#b)" d="M751.218 995.587 724.612 750.42c0-4.081-.49-7.998-1.306-11.752L702.25 545.244H592.235l22.199 205.176c0 3.917.326 7.671 1.142 11.262l25.464 233.905z"/><path fill="#0096FA" d="M630.921 750.42H520.906l-21.383-205.176h109.853zM570.854 995.587H461.003l59.903-245.167h110.015z"/><path fill="#0096FA" d="M575.912 805.429c30.38 0 55.007-24.628 55.007-55.008s-24.627-55.007-55.007-55.007-55.008 24.627-55.008 55.007 24.628 55.008 55.008 55.008"/><mask id="c" width="101" height="75" x="875" y="517" maskUnits="userSpaceOnUse" style="mask-type:luminance"><path fill="#fff" d="m893.388 557.976-17.79-10.936 17.138-18.281 67.413-11.263 14.853 37.705-18.771 36.073z"/></mask><g mask="url(#c)"><path fill="#C5D9FB" d="m927.91 554.843 2.188-23.074-65.16-6.178-2.188 23.074z"/><path fill="#072F73" d="M928.48 555.365c6.401 0 11.59-5.189 11.59-11.589s-5.189-11.588-11.59-11.588-11.588 5.187-11.588 11.588 5.188 11.589 11.588 11.589"/></g><path fill="#8C3A03" d="M699.685 24.985 616.692 16.6l-6.906 5.775-15.707 155.919 61.236 6.116 2.557-25.008 27.936 2.818c2.656-2.221 4.235-3.391 6.905-5.775l12.421-124.584z"/><path fill="#070308" d="m685.32 127.271-15.431-1.54c-.976-.087-1.554-.958-1.481-1.771s.958-1.554 1.771-1.481l12.829 1.308-10.028-30.883c-.253-.842.16-1.789 1.002-2.041.841-.253 1.788.159 2.04 1l10.787 33.41c.119.503.061 1.153-.293 1.449-.206.473-.709.592-1.196.549"/><path fill="#000" d="m707.522 17.982-99.338-8.859c-3.414-.304-6.262 2.227-6.552 5.479l-1.072 12.031c-.305 3.415-3.301 5.769-6.553 5.479-3.414-.305-6.262 2.228-6.552 5.48l-7.902 88.606c-.304 3.415 2.228 6.262 5.48 6.552l19.672 1.754c3.414.305 6.262-2.227 6.552-5.478l6.974-78.202c.304-3.415 3.3-5.77 6.552-5.48l79.828 7.119c3.414.304 6.261-2.227 6.551-5.479l1.972-22.11c.319-3.578-2.198-6.588-5.612-6.892"/><path fill="#8C3A03" d="m626.121 120.354-28.289-2.522c-3.577-.319-6.08-3.492-5.775-6.906l2.291-25.689 34.629 3.089z"/><path fill="url(#d)" d="m657.569 159.103-26.338-2.349 24.856 17.128z"/><path fill="#072F73" d="m653.606 995.75 85.694.489c1.143 5.221 4.734 23.991 25.137 25.301 38.522 2.61 23.015 21.06 23.015 21.06H646.261zM471.611 995.75l85.694.489c1.143 5.221 4.733 23.991 25.137 25.301 38.521 2.61 23.015 21.06 23.015 21.06H464.266z"/><path fill="url(#e)" d="m585.724 345.95-48.06-121.65 167.858 108.063-100.53 15.931c-.118-.113-9.748 2.594-19.268-2.344"/><path fill="#141414" fill-rule="evenodd" d="M643.5 92.014H604v-7h39.5zM663.258 94.307q-.029.056-.026.053l-6.462-2.693c1.543-3.703 7.033-8.098 16.89-7.65 9.519.433 17.326 4.114 20.282 6.084l-3.883 5.825c-2.044-1.363-8.637-4.549-16.717-4.916-3.851-.175-6.372.597-7.913 1.431-.779.422-1.325.868-1.684 1.241-.18.187-.308.35-.394.476a2 2 0 0 0-.093.15" clip-rule="evenodd"/><path fill="#141414" d="M663 90.514c0 8.836-7.163 16-16 16s-16-7.164-16-16 7.164-16 16-16 16 7.163 16 16M714 92.514c0 8.836-7.163 16-16 16s-16-7.164-16-16 7.164-16 16-16 16 7.163 16 16"/><path fill="#F06305" d="m604.215 414.371 11.447-42.375-30.104-.321 12.273-4.958-70.469-178.691-86.017 34.485 58.408 148.178 12.061 30.512.111-.052 7.296 18.347c15.885 40.212 73.643 36.731 84.994-5.125"/><path fill="#0096FA" d="m829.048 319.754-62.064-32.48c-2.272-1.232-3.132-3.966-1.935-6.152l56.484-108.097c1.197-2.186 3.967-3.129 6.154-1.932l62.064 32.479c2.272 1.233 3.132 3.967 1.935 6.153l-56.484 108.097c-1.112 2.22-3.932 3.044-6.154 1.932"/><path fill="#0C4EC0" d="m836.065 323.723-62.063-32.479c-2.272-1.232-3.132-3.966-1.935-6.152l56.484-108.096c1.231-2.271 3.967-3.129 6.154-1.932l62.063 32.479c2.272 1.232 3.132 3.967 1.935 6.153L842.22 321.792c-1.113 2.22-3.933 3.044-6.155 1.931"/><path fill="#8C3A03" d="m710.31 271.716 63.327-54.924 12.797-5.778 17.784-3.437 17.783 10.063 22.342 42.49-8.807 4.489-18.294-20.699 16.443 42.125-9.061 2.456-15.47-23.959 5.357 33.584-9.951 1.176-11.719-22.759.584 24.05-6.991.114-5.558-16.65-12.875 14.069-9.47 7.238-22.049 8.245"/><path fill="#F06305" d="m621.032 432.805-38.531-88.601 128.85-83.181 51.834 83.181z"/><defs><linearGradient id="a" x1="748.721" x2="713.88" y1="350.428" y2="349.338" gradientUnits="userSpaceOnUse"><stop offset=".082" stop-color="#F06305"/><stop offset=".92" stop-color="#B24800"/></linearGradient><linearGradient id="b" x1="718.988" x2="560.48" y1="765.787" y2="781.385" gradientUnits="userSpaceOnUse"><stop offset=".1" stop-color="#0096FA"/><stop offset=".341" stop-color="#058DF8"/><stop offset=".735" stop-color="#1274F3"/><stop offset=".901" stop-color="#1968F0"/></linearGradient><linearGradient id="d" x1="643.688" x2="653.081" y1="165.364" y2="140.702" gradientUnits="userSpaceOnUse"><stop stop-color="#8C3A03"/><stop offset=".706" stop-color="#642A04"/></linearGradient><linearGradient id="e" x1="635.982" x2="553.951" y1="263.496" y2="333.632" gradientUnits="userSpaceOnUse"><stop offset=".082" stop-color="#F06305"/><stop offset=".92" stop-color="#B24800"/></linearGradient></defs></svg>