<svg xmlns="http://www.w3.org/2000/svg" width="1080" height="1081" viewBox="0 0 1080 1081" fill="none"><g clip-path="url(#a)"><path fill="#0C4EC0" d="M756.658 935.579c178.577 0 323.342-144.765 323.342-323.342S935.235 288.895 756.658 288.895 433.316 433.66 433.316 612.237s144.765 323.342 323.342 323.342"/><path fill="url(#b)" d="M756.658 935.579c178.577 0 323.342-144.765 323.342-323.342S935.235 288.895 756.658 288.895 433.316 433.66 433.316 612.237s144.765 323.342 323.342 323.342"/><path fill="url(#c)" d="M814.211 842.453h-17.785l-346.667-600.54c-18.961-32.888-66.279-32.888-85.24 0L17.855 842.453H.067v43.627c0 25.84 20.472 49.499 49.333 49.499h715.648c28.86 0 49.332-23.659 49.332-49.499v-43.627z"/><path fill="#0096FA" d="M807.836 821.646 449.928 201.809c-18.961-32.887-66.279-32.887-85.24 0L6.779 821.646c-18.96 32.888 4.7 73.83 42.621 73.83h715.648c38.089 0 61.749-41.11 42.788-73.83"/><path fill="url(#d)" d="M807.836 821.646 449.928 201.809c-18.961-32.887-66.279-32.887-85.24 0L6.779 821.646c-18.96 32.888 4.7 73.83 42.621 73.83h715.648c38.089 0 61.749-41.11 42.788-73.83"/><path fill="#072F73" d="M577.788 330.842c50.877 0 92.119-41.243 92.119-92.119 0-50.877-41.242-92.12-92.119-92.12-50.876 0-92.12 41.243-92.12 92.12 0 50.876 41.244 92.119 92.12 92.119"/><path fill="#1968F0" d="M434.49 765.603 125.411 895.477H49.064c-37.754 0-61.245-40.942-42.452-73.495l179.374-310.086 174.507-82.387 93.966.167" opacity=".5"/><path fill="#C5D9FB" d="M407.899 759.105q-27.377 0-41.785-14.889-14.409-14.889-14.409-40.825 0-26.416 14.409-40.345 14.408-14.409 41.785-14.409t41.306 14.409q13.928 13.929 13.928 40.345t-13.928 41.305q-13.93 14.409-41.306 14.409m46.589-341.009L442 615.017h-69.162L360.35 418.096z"/><path fill="#fff" d="M407.899 735.975q-27.377 0-41.785-14.889-14.409-14.889-14.409-40.825 0-26.416 14.409-40.345 14.408-14.409 41.785-14.409t41.306 14.409q13.928 13.929 13.928 40.345t-13.928 41.305q-13.93 14.409-41.306 14.409m46.589-341.009L442 591.887h-69.162L360.35 394.966z"/></g><defs><linearGradient id="b" x1="985.366" x2="497.468" y1="413.226" y2="837.736" gradientUnits="userSpaceOnUse"><stop offset=".163" stop-color="#03F" stop-opacity="0"/><stop offset=".485" stop-color="#0331C4" stop-opacity=".385"/><stop offset=".833" stop-color="#06308A" stop-opacity=".8"/><stop offset="1" stop-color="#072F73"/></linearGradient><linearGradient id="c" x1="679.846" x2="-95.489" y1="576.417" y2="576.732" gradientUnits="userSpaceOnUse"><stop offset=".324" stop-color="#0C4EC0"/><stop offset=".465" stop-color="#0B4AB6"/><stop offset=".702" stop-color="#0A409C"/><stop offset="1" stop-color="#072F73"/></linearGradient><linearGradient id="d" x1="148.859" x2="670.149" y1="333.728" y2="1367.01" gradientUnits="userSpaceOnUse"><stop offset=".232" stop-color="#03F" stop-opacity="0"/><stop offset=".693" stop-color="#03F" stop-opacity=".5"/></linearGradient><clipPath id="a"><path fill="#fff" d="M0 146.603h1080V935.58H0z"/></clipPath></defs></svg>