<svg width="1080" height="1080" viewBox="0 0 1080 1080" fill="none" xmlns="http://www.w3.org/2000/svg">
<g clip-path="url(#clip0_14294_10864)">
<path d="M756.658 935.065C935.235 935.065 1080 790.3 1080 611.723C1080 433.146 935.235 288.381 756.658 288.381C578.081 288.381 433.316 433.146 433.316 611.723C433.316 790.3 578.081 935.065 756.658 935.065Z" fill="#0C4EC0"/>
<path d="M756.658 935.065C935.235 935.065 1080 790.3 1080 611.723C1080 433.146 935.235 288.381 756.658 288.381C578.081 288.381 433.316 433.146 433.316 611.723C433.316 790.3 578.081 935.065 756.658 935.065Z" fill="url(#paint0_linear_14294_10864)"/>
<path d="M814.211 841.939H796.426L449.759 241.399C430.798 208.511 383.48 208.511 364.519 241.399L17.8545 841.939H0.0671997V885.566C0.0671997 911.407 20.5389 935.066 49.3997 935.066H765.048C793.908 935.066 814.38 911.407 814.38 885.566V841.939H814.211Z" fill="url(#paint1_linear_14294_10864)"/>
<path d="M807.836 821.132L449.928 201.296C430.967 168.408 383.649 168.408 364.688 201.296L6.77932 821.132C-12.1816 854.02 11.4782 894.962 49.4 894.962H765.048C803.137 894.962 826.797 853.852 807.836 821.132Z" fill="#0096FA"/>
<path d="M807.836 821.132L449.928 201.296C430.967 168.408 383.649 168.408 364.688 201.296L6.77932 821.132C-12.1816 854.02 11.4782 894.962 49.4 894.962H765.048C803.137 894.962 826.797 853.852 807.836 821.132Z" fill="url(#paint2_linear_14294_10864)"/>
<path d="M577.788 330.328C628.665 330.328 669.907 289.085 669.907 238.209C669.907 187.333 628.665 146.089 577.788 146.089C526.912 146.089 485.668 187.333 485.668 238.209C485.668 289.085 526.912 330.328 577.788 330.328Z" fill="#072F73"/>
<path opacity="0.5" d="M434.49 765.09L125.411 894.963H49.0639C11.3099 894.963 -12.1811 854.021 6.61195 821.469L185.986 511.382L360.493 428.995L454.459 429.163" fill="#1968F0"/>
<path d="M407.899 758.591C389.648 758.591 375.719 753.628 366.113 743.702C356.508 733.776 351.705 720.168 351.705 702.877C351.705 685.266 356.508 671.818 366.113 662.532C375.719 652.927 389.648 648.124 407.899 648.124C426.15 648.124 439.919 652.927 449.204 662.532C458.49 671.818 463.133 685.266 463.133 702.877C463.133 720.488 458.49 734.257 449.204 744.183C439.919 753.789 426.15 758.591 407.899 758.591ZM454.488 417.582L442 614.503H372.838L360.35 417.582H454.488Z" fill="#C5D9FB"/>
<path d="M407.899 735.462C389.648 735.462 375.719 730.499 366.113 720.573C356.508 710.646 351.705 697.038 351.705 679.747C351.705 662.137 356.508 648.688 366.113 639.403C375.719 629.797 389.648 624.994 407.899 624.994C426.15 624.994 439.919 629.797 449.204 639.403C458.49 648.688 463.133 662.137 463.133 679.747C463.133 697.358 458.49 711.127 449.204 721.053C439.919 730.659 426.15 735.462 407.899 735.462ZM454.488 394.452L442 591.373H372.838L360.35 394.452H454.488Z" fill="white"/>
</g>
<defs>
<linearGradient id="paint0_linear_14294_10864" x1="985.366" y1="412.712" x2="497.468" y2="837.222" gradientUnits="userSpaceOnUse">
<stop offset="0.1629" stop-color="#0033FF" stop-opacity="0"/>
<stop offset="0.4851" stop-color="#0331C4" stop-opacity="0.3849"/>
<stop offset="0.8329" stop-color="#06308A" stop-opacity="0.8004"/>
<stop offset="1" stop-color="#072F73"/>
</linearGradient>
<linearGradient id="paint1_linear_14294_10864" x1="679.846" y1="575.903" x2="-95.4886" y2="576.218" gradientUnits="userSpaceOnUse">
<stop offset="0.3242" stop-color="#0C4EC0"/>
<stop offset="0.4654" stop-color="#0B4AB6"/>
<stop offset="0.7018" stop-color="#0A409C"/>
<stop offset="1" stop-color="#072F73"/>
</linearGradient>
<linearGradient id="paint2_linear_14294_10864" x1="148.859" y1="333.215" x2="670.149" y2="1366.49" gradientUnits="userSpaceOnUse">
<stop offset="0.2319" stop-color="#0033FF" stop-opacity="0"/>
<stop offset="0.6933" stop-color="#0033FF" stop-opacity="0.5"/>
</linearGradient>
<clipPath id="clip0_14294_10864">
<rect width="1080" height="788.977" fill="white" transform="translate(0 146.089)"/>
</clipPath>
</defs>
</svg>
