<svg width="1080" height="1080" viewBox="0 0 1080 1080" fill="none" xmlns="http://www.w3.org/2000/svg"><g style="mix-blend-mode:luminosity" opacity="0.15"><path d="M117.18 901.44C140.22 918 169.74 924.12 198.72 925.02C324.9 929.16 445.14 841.86 570.24 860.04C627.66 868.5 682.2 887.22 738.9 899.64C925.92 940.5 1009.44 713.52 932.4 626.4C860.4 545.04 828.18 586.8 801.54 493.92C781.38 422.82 836.1 400.14 841.68 326.52C849.24 231.12 774.36 125.46 678.96 99.9001C583.56 74.5201 469.98 128.52 437.4 219.24C427.14 247.86 423.9 279.72 404.82 303.84C370.98 346.14 306.9 345.6 252.18 352.98C213.84 358.2 176.4 369.54 141.66 386.28C104.58 403.92 68.04 432.36 61.92 471.42C56.7 504.9 75.06 537.66 96.48 564.3C117.54 590.76 143.1 615.96 154.62 648C178.02 711 128.88 724.86 98.1 765.54C66.78 806.22 76.5 871.92 117.18 901.44Z" fill="#B9CBD3"/></g><path d="M310.86 812.34C268.38 812.34 230.4 791.1 209.7 755.28C188.82 719.1 189.18 675.54 211.32 638.82C258.3 560.16 305.1 479.7 350.64 401.94C376.56 357.3 403.74 311.04 430.38 265.68C452.16 228.6 489.96 206.28 531 206.28C571.86 206.28 609.3 228.42 631.26 265.5C706.14 392.94 780.48 519.48 851.4 641.52C872.46 678.06 873 720.9 852.48 755.64C831.78 790.74 793.8 811.8 751.14 811.8C722.34 811.8 693.72 811.8 664.92 811.8C642.6 811.8 553.14 811.8 530.82 811.8C508.5 811.8 485.82 811.8 463.86 811.62C442.08 811.62 419.22 811.44 397.26 811.44C364.86 811.44 338.22 811.62 313.2 812.16C312.48 812.34 311.58 812.34 310.86 812.34ZM531 765.72C553.32 765.72 575.64 765.72 597.96 765.72C620.28 765.72 642.6 765.72 664.92 765.72C698.76 765.72 726.3 765.72 752.22 765.54C777.42 765.36 800.1 752.58 812.16 731.7C823.86 711.54 823.86 687.6 812.16 667.26C741.06 544.86 666.18 416.7 588.96 285.84C576.72 264.96 555.12 252.72 531.54 252.72C507.42 252.72 485.64 265.14 472.68 286.2C468 293.94 463.5 301.86 459.18 309.6C456.66 313.74 454.32 318.06 451.8 322.02L415.44 384.12C360.72 477.72 305.82 571.32 250.92 664.92C241.74 680.58 239.22 695.88 242.82 712.26C250.2 745.2 276.3 765.36 311.04 765.54C340.92 765.54 370.8 765.54 400.86 765.54C423.36 765.54 445.86 765.54 468.36 765.54C489.24 765.72 510.12 765.72 531 765.72Z" fill="#152758"/><path d="M530.82 219.06C565.02 219.06 599.4 236.7 619.92 271.8C693.54 396.9 766.98 522.18 840.06 647.82C880.56 717.3 831.96 799.2 750.96 799.38C722.52 799.38 693.9 799.38 665.46 799.38C620.64 799.38 576 799.38 531.18 799.38C531 799.38 531 799.38 530.64 799.38C486 799.38 441.72 798.84 397.08 798.84C369 798.84 340.74 799.02 312.66 799.56C311.94 799.56 311.22 799.56 310.68 799.56C229.32 799.56 180.72 714.6 222.12 645.3C296.1 521.64 368.1 396.54 441.18 272.34C462.06 236.88 496.62 219.06 530.82 219.06ZM400.5 778.32C443.88 778.32 487.44 778.32 530.82 778.32C575.46 778.32 619.92 778.5 664.56 778.5C693.72 778.5 722.7 778.5 751.86 778.32C814.14 777.78 853.38 713.7 822.96 661.14C748.98 533.7 674.46 406.62 599.76 279.72C584.1 253.44 557.64 240.3 531.18 240.3C504.36 240.3 477.36 253.62 461.34 279.9C454.14 291.6 447.3 303.84 440.46 315.9C373.32 430.02 306.36 544.32 239.58 658.44C229.32 676.08 225.54 695.16 230.22 715.14C239.04 753.66 270.18 778.14 311.22 778.32C340.74 778.32 370.62 778.32 400.5 778.32ZM530.82 193.68V219.06V193.68C485.1 193.68 443.16 218.16 419.04 259.38C392.4 304.74 365.4 351 339.3 395.64C293.94 473.4 247.14 553.86 200.16 632.52C175.86 673.38 175.14 721.62 198.54 761.76C221.58 801.36 263.52 825.12 310.86 825.12C311.76 825.12 312.66 825.12 313.38 825.12C338.22 824.58 364.86 824.4 397.26 824.4C419.58 824.4 442.08 824.4 463.86 824.58C485.64 824.58 508.5 824.76 530.82 824.76H531.36C553.68 824.76 576 824.76 598.5 824.76C620.82 824.76 643.32 824.76 665.64 824.76C694.08 824.76 722.7 824.76 751.14 824.76C798.66 824.76 840.6 801.36 863.46 762.3C886.5 723.24 885.96 675.72 862.38 635.4C791.28 513.18 717.3 386.82 642.24 259.38C618.12 218.16 576.54 193.68 530.82 193.68ZM400.5 753.3C365.76 753.3 337.5 753.3 310.86 753.3C282.06 753.3 261.18 736.92 255.06 710.1C252 696.96 254.16 684.54 261.72 671.76C317.16 577.26 372.24 482.94 427.68 388.44L462.6 328.86C465.12 324.54 467.46 320.4 469.98 316.26C474.3 308.52 478.98 300.78 483.48 293.4C493.74 276.12 511.74 266.04 531.36 266.04C550.62 266.04 567.72 275.76 577.8 293.04C655.02 423.72 730.26 552.06 801 674.1C810.72 690.66 810.72 709.38 801 725.76C791.1 742.68 772.74 753.12 752.04 753.12C726.3 753.3 698.4 753.3 664.92 753.3C642.6 753.3 620.28 753.3 597.96 753.3C575.64 753.3 553.32 753.3 531 753.3C510.12 753.3 489.24 753.3 468.18 753.3C445.68 753.3 423 753.3 400.5 753.3Z" fill="#F9B42F"/><path d="M531 778.32C457.74 778.32 384.3 778.5 311.04 778.32C270.36 778.32 239.04 753.84 230.04 715.14C225.36 695.16 229.14 676.44 239.4 658.44C306.36 544.32 373.14 430.02 440.28 315.54C447.48 303.48 454.14 291.6 461.16 279.54C493.2 226.98 568.26 226.26 599.58 279.36C674.46 406.26 748.98 533.34 822.78 660.78C853.38 713.34 813.96 777.42 751.68 777.96C678.42 778.86 604.62 778.32 531 778.32ZM573.12 389.52C572.58 385.2 572.58 379.08 571.14 373.5C565.2 353.16 545.22 341.46 523.08 344.88C502.92 348.12 487.44 366.12 489.06 387.72C494.82 458.82 501.48 530.28 507.96 601.38C509.04 614.52 518.76 623.16 530.46 623.34C542.7 623.52 552.6 614.52 553.86 600.84C556.38 575.28 558.54 549.9 560.7 524.16C564.84 479.88 568.8 435.78 573.12 389.52ZM531 718.56C548.64 718.38 563.58 703.62 563.58 686.16C563.58 668.7 548.64 654.12 531 653.94C512.82 653.76 497.52 669.06 497.7 686.52C498.24 704.34 513.36 718.74 531 718.56Z" fill="#F7AC1B"/><path d="M543.6 778.32C473.22 778.32 403.2 778.32 332.82 778.32C293.76 778.32 263.88 754.74 255.42 717.84C251.1 698.76 491.76 265.5 537.3 262.98C564.84 261.54 593.46 272.88 609.66 300.6C681.3 422.1 752.58 543.96 823.5 665.82C852.66 716.4 815.22 777.78 755.46 777.96C684.9 778.86 614.34 778.32 543.6 778.32Z" fill="#F9B42F"/><path d="M573.12 389.52C568.98 435.78 564.84 480.24 560.7 524.34C558.36 549.9 556.38 575.28 553.86 601.02C552.42 614.7 542.52 623.7 530.46 623.52C518.58 623.34 509.04 614.52 507.96 601.56C501.48 530.46 495 459.18 489.06 387.9C487.26 366.3 502.92 347.94 523.08 345.06C545.22 341.64 565.2 353.16 571.14 373.68C572.58 379.08 572.4 385.2 573.12 389.52Z" fill="#152758"/><path d="M531 718.56C513.36 718.74 498.06 704.34 497.7 686.88C497.16 669.24 512.82 653.94 531 654.3C548.64 654.48 563.58 669.06 563.58 686.52C563.76 703.62 548.82 718.38 531 718.56Z" fill="#152758"/><path d="M574.56 389.521C570.42 435.781 566.46 480.241 562.68 524.341C560.34 549.901 558.36 575.281 556.02 601.021C554.58 614.701 545.22 623.701 533.52 623.521C522 623.341 495.54 368.281 500.94 360.901C506.88 352.441 516.06 346.321 526.5 344.881C547.92 341.461 567.18 352.981 572.94 373.501C574.2 379.081 574.02 385.201 574.56 389.521Z" fill="#1E326A"/><path d="M534.42 715.14C518.58 715.32 511.02 701.82 510.66 686.34C510.12 670.68 518.04 657.36 534.42 657.54C550.26 657.72 563.58 670.68 563.58 686.34C563.76 701.82 550.26 714.96 534.42 715.14Z" fill="#1E326A"/><g opacity="0.6"><path d="M530.82 993.42C664.031 993.42 772.02 986.731 772.02 978.48C772.02 970.229 664.031 963.54 530.82 963.54C397.609 963.54 289.62 970.229 289.62 978.48C289.62 986.731 397.609 993.42 530.82 993.42Z" fill="#D2DFE6"/></g></svg>