<svg xmlns="http://www.w3.org/2000/svg" width="1080" height="1081" fill="none"><path fill="url(#a)" d="m922.456 906.467-7.473-87.589-57.175 19.986 19.811-17.726L621.459 533 482.43 656.736l212.366 238.956 43.794 49.181.174-.173 26.416 29.543c57.697 64.827 164.575 18.769 157.276-67.776"/><path fill="#35DE90" d="M543.082 499.458H157.798c-52.657 0-97.842 37.885-106.879 89.847L0 882.483c6.43 18.073 16.857 44.489 29.022 68.298H593.48l56.307-324.286c11.644-66.386-39.45-127.037-106.705-127.037"/><path fill="url(#b)" d="M1056.62 210.8H651.525c-9.558 0-17.378 7.82-17.378 17.378v29.718h-29.718c-14.25 0-21.549 17.379-11.296 27.458l41.014 41.014v153.8c0 9.559 7.82 17.379 17.378 17.379h405.095c9.56 0 17.38-7.82 17.38-17.379v-251.99c0-9.558-7.65-17.378-17.38-17.378"/><path fill="url(#c)" d="m742.415 689.929-18.421 162.837-35.105-223.141z"/><path fill="url(#d)" d="m174.307 950.782 41.709-240.52 259.115 240.52z"/><path fill="#0096FA" d="m860.589 567.062-132.078-12.165c-4.866-.521-8.341-4.692-7.82-9.384l21.028-230.093c.522-4.692 4.692-8.342 9.384-7.821l132.078 12.166c4.866.521 8.342 4.692 7.82 9.384l-21.027 230.093c-.348 4.692-4.693 8.168-9.385 7.82"/><path fill="#0C4EC0" d="m875.883 568.278-132.077-12.165c-4.866-.521-8.342-4.692-7.821-9.384l21.029-230.093c.521-4.866 4.692-8.342 9.384-7.821l132.077 12.165c4.866.522 8.342 4.693 7.821 9.385l-21.028 230.093c-.348 4.692-4.693 8.168-9.385 7.82"/><path fill="#FCAA73" d="m906.99 610.682 35.627-155.191-44.837-80.29-91.586.522.348 18.768 51.267 12.165-85.677 10.08 3.997 17.379 54.222 4.518-61.347 21.028 6.951 17.726 48.834-.695-41.013 20.507 6.082 11.818 33.02-5.562 20.68 17.727-36.495 38.754 5.909 44.315"/><path fill="#F06305" d="M531.96 310.727h-38.407c-5.735 0-10.428-4.692-10.428-10.427V177.433c0-5.735 4.693-10.427 10.428-10.427h38.407c5.735 0 10.427 4.692 10.427 10.427V300.3c0 5.735-4.692 10.427-10.427 10.427M326.544 414.13h-38.407c-5.735 0-10.427-4.692-10.427-10.427v-99.058c0-5.735 4.692-10.427 10.427-10.427h38.407c5.735 0 10.427 4.692 10.427 10.427v98.884c0 5.909-4.692 10.601-10.427 10.601"/><path fill="#FCAA73" d="M497.897 142.327H315.595l-13.903 13.903v342.88h134.685v-54.916h61.52l13.903-13.903V156.23z"/><path fill="url(#e)" d="M317.333 361.646h-15.641v57.35h15.641z"/><path fill="url(#f)" d="m388.758 463.311 47.618 35.8v-54.917h-47.618z"/><path fill="#F06305" fill-rule="evenodd" d="M457.141 292.024a2.39 2.39 0 0 1 3.151 1.231l30.76 70.21a2.395 2.395 0 0 1-2.191 3.353h-33.714a2.393 2.393 0 1 1 0-4.785H485.2l-29.291-66.857a2.393 2.393 0 0 1 1.232-3.152" clip-rule="evenodd"/><path fill="#FCAA73" d="M285.183 361.646h38.233v-59.783h-51.789v46.227c0 7.473 6.083 13.556 13.556 13.556"/><path fill="#F06305" d="M295.957 126.514h209.239c5.735 0 10.427 4.692 10.427 10.427v55.264c0 5.735-4.692 10.427-10.427 10.427H295.957c-5.734 0-10.427-4.692-10.427-10.427v-55.264c0-5.735 4.693-10.427 10.427-10.427"/><path fill="#F06305" d="M307.775 310.727h-38.406c-5.735 0-10.428-4.692-10.428-10.427V175.174c0-5.735 4.693-10.427 10.428-10.427h38.406c5.735 0 10.428 4.692 10.428 10.427V300.3c0 5.735-4.693 10.427-10.428 10.427"/><path fill="#F06305" d="M342.533 245.558h-38.407c-5.735 0-10.427-4.692-10.427-10.427v-38.407c0-5.735 4.692-10.427 10.427-10.427h38.407c5.735 0 10.427 4.692 10.427 10.427v38.407c0 5.735-4.692 10.427-10.427 10.427M527.44 236.867h-23.287c-5.735 0-10.427-4.692-10.427-10.427v-23.287c0-5.735 4.692-10.427 10.427-10.427h23.287c5.735 0 10.428 4.692 10.428 10.427v23.287c0 5.735-4.693 10.427-10.428 10.427"/><path fill="url(#g)" d="M758.925 687.668 746.586 803.41l-57.697-194.467z"/><path fill="#35DE90" d="M921.066 921.586 742.24 843.73l27.632-257.725 185.082 19.812z"/><defs><linearGradient id="a" x1="781.846" x2="517.719" y1="738.811" y2="938.852" gradientUnits="userSpaceOnUse"><stop offset=".247" stop-color="#35DE90"/><stop offset=".443" stop-color="#2FD287"/><stop offset=".802" stop-color="#20B16E"/><stop offset=".897" stop-color="#1BA766"/></linearGradient><linearGradient id="b" x1="1070.88" x2="636.74" y1="191.979" y2="516.792" gradientUnits="userSpaceOnUse"><stop stop-color="#C5D9FB"/><stop offset=".184" stop-color="#DAE5F8"/><stop offset=".393" stop-color="#E9EEF6"/><stop offset=".636" stop-color="#F2F3F5"/><stop offset=".984" stop-color="#F5F5F5"/></linearGradient><linearGradient id="c" x1="691.755" x2="789.078" y1="743.934" y2="725.936" gradientUnits="userSpaceOnUse"><stop offset=".247" stop-color="#35DE90"/><stop offset=".443" stop-color="#2FD287"/><stop offset=".802" stop-color="#20B16E"/><stop offset=".897" stop-color="#1BA766"/></linearGradient><linearGradient id="d" x1="367.251" x2="153.606" y1="811.608" y2="997.833" gradientUnits="userSpaceOnUse"><stop offset=".053" stop-color="#35DE90"/><stop offset=".308" stop-color="#2FD287"/><stop offset=".773" stop-color="#20B16E"/><stop offset=".897" stop-color="#1BA766"/></linearGradient><linearGradient id="e" x1="332.717" x2="279.986" y1="399.906" y2="378.103" gradientUnits="userSpaceOnUse"><stop offset=".297" stop-color="#FCAA73"/><stop offset=".43" stop-color="#FCA76F"/><stop offset=".564" stop-color="#FAA063"/><stop offset=".7" stop-color="#F8924E"/><stop offset=".836" stop-color="#F58032"/><stop offset=".971" stop-color="#F1690E"/><stop offset="1" stop-color="#F06305"/></linearGradient><linearGradient id="f" x1="395.442" x2="451.303" y1="488.087" y2="434.482" gradientUnits="userSpaceOnUse"><stop offset=".297" stop-color="#FCAA73"/><stop offset=".43" stop-color="#FCA76F"/><stop offset=".564" stop-color="#FAA063"/><stop offset=".7" stop-color="#F8924E"/><stop offset=".836" stop-color="#F58032"/><stop offset=".971" stop-color="#F1690E"/><stop offset="1" stop-color="#F06305"/></linearGradient><linearGradient id="g" x1="697.659" x2="776.654" y1="710.778" y2="692.442" gradientUnits="userSpaceOnUse"><stop offset=".269" stop-color="#35DE90"/><stop offset=".467" stop-color="#2FD287"/><stop offset=".828" stop-color="#20B16E"/><stop offset=".923" stop-color="#1BA766"/></linearGradient></defs></svg>