<svg xmlns="http://www.w3.org/2000/svg" width="1080" height="1081" fill="none"><path fill="#C5D9FB" d="M522.348 1002.68c265.841 0 481.352-215.512 481.352-481.353S788.189 39.979 522.348 39.979 41 255.486 41 521.327s215.507 481.353 481.348 481.353"/><path fill="#0C4EC0" d="M346.119 802.514 283 940.148s57.178 30.448 113.614 46.786C544.881 1030.01 683 975.547 683 975.547l-72.773-145.804z"/><path fill="#35DE90" d="M806.5 292.167c0-75.56 61.19-136.75 136.749-136.75 75.561 0 136.751 61.19 136.751 136.75 0 75.559-61.19 136.749-136.751 136.749-75.559 0-136.749-61.19-136.749-136.749"/><path fill="#35DE90" d="M1079.75 292.166c0 75.559-61.19 136.502-136.502 136.502-75.559 0-136.501-61.191-136.501-136.502 0-75.559 61.19-136.502 136.501-136.502s136.502 61.191 136.502 136.502"/><path fill="#fff" fill-rule="evenodd" d="M984.161 230.08a73.26 73.26 0 0 0-41.156-12.659c-19.469 0-38.446 7.943-52.247 21.843a74.66 74.66 0 0 0-21.687 52.621c0 14.645 4.435 29.041 12.568 41.452 8.133 12.162 19.716 21.842 33.27 27.303 13.555 5.709 28.342 7.198 42.636 4.22s27.602-9.929 37.706-20.354c10.349-10.425 17.249-23.58 20.209-37.977s1.48-29.289-4.19-42.94c-5.42-13.652-14.787-25.318-27.109-33.509m-89.213-10.922c14.294-9.68 31.051-14.644 48.302-14.644 23.166 0 45.101 9.184 61.37 25.566 16.26 16.382 25.38 38.721 25.38 61.805 0 17.375-5.18 34.253-14.54 48.65a88.34 88.34 0 0 1-38.939 32.268c-15.773 6.701-33.27 8.439-50.275 4.964-16.758-3.475-32.285-11.666-44.607-24.077-12.076-12.162-20.454-27.8-23.905-44.927-3.45-16.878-1.725-34.501 4.929-50.635 6.901-15.638 17.991-29.289 32.285-38.97m43.62 102.016c1.232 1.241 2.957 1.986 4.682 1.986s3.452-.745 4.684-1.986l34.009-34.253c1.232-1.241 1.971-2.979 1.971-4.716s-.739-3.475-1.971-4.717q-.74-.744-2.218-1.489c-.739-.248-1.725-.496-2.464-.496-.74 0-1.725.248-2.465.496q-1.109.373-2.217 1.489l-29.329 29.29-29.326-29.29q-.74-.744-2.218-1.489c-.74-.248-1.725-.496-2.465-.496s-1.725.248-2.464.496q-1.109.373-2.218 1.489c-1.232 1.242-1.972 2.979-1.972 4.717s.74 3.475 1.972 4.716z" clip-rule="evenodd"/><path fill="#000" d="M403.428 697.709 272.129 537.425l13.873-222.466 437.5-127.583 64.906 62.925-104.049 131.051z"/><path fill="#F67979" d="m681.139 327.593 46.079 98.35-4.46 58.713 40.133 118.665-34.187 8.919-20.066 142.447-92.901-14.616-27.747 111.481-229.154-24.278 64.907-221.475-40.876-48.556 52.519-62.429 26.508 28.985 37.16-126.345z"/><path fill="url(#a)" d="m597.158 814.641-86.459-92.158 105.039 17.59z"/><path fill="url(#b)" d="m462.391 681.608-78.037 58.465 39.39-134.272z"/><path fill="url(#c)" d="m720.527 674.175-29.48-51.529 37.656-10.405z"/><path fill="#0C4EC0" d="M654.123 702.043c10.208-1.041 17.842-8.173 17.051-15.932-.791-7.758-9.707-13.204-19.915-12.163s-17.843 8.173-17.052 15.932c.791 7.758 9.707 13.203 19.916 12.163"/><path fill="#0C4EC0" fill-rule="evenodd" d="M642.169 684.117s-.002 0 .572 4.921c.575 4.922.572 4.922.569 4.922l-.011.002-.032.003-.114.013-.417.044c-.362.037-.889.089-1.572.149a186 186 0 0 1-5.889.419c-5.067.285-12.324.522-21.151.335-17.635-.374-41.633-2.44-66.992-9.246-50.779-13.627-107.473-46.454-128.658-122.901l9.549-2.646c19.938 71.946 72.991 102.911 121.678 115.977 24.374 6.541 47.538 8.547 64.633 8.909 8.538.18 15.537-.049 20.384-.322 2.423-.137 4.307-.284 5.575-.396.633-.056 1.113-.103 1.429-.135l.236-.025.113-.012.08-.009.016-.002z" clip-rule="evenodd"/><mask id="d" width="294" height="413" x="296" y="86" maskUnits="userSpaceOnUse" style="mask-type:luminance"><path fill="#fff" d="m589.971 223.544-54.255 15.36-96.12 259.626-142.944-2.973L489.391 86.052z"/></mask><g mask="url(#d)"><path fill="#0C4EC0" fill-rule="evenodd" d="M506.222 186.917c32.545-2.247 60.961 18.713 83.413 48.736l-24.593 18.392c-20.144-26.936-39.766-37.677-56.741-36.489l-.066.005-.066.004c-11.863.728-24.16 7.158-36.307 20.997-12.203 13.902-23.401 34.401-32.569 60.676-18.315 52.485-27.504 125.053-22.521 205.025l-30.65 1.91c-5.174-83.037 4.216-159.853 24.176-217.053 9.968-28.567 22.832-52.985 38.484-70.817 15.692-17.876 35.02-29.989 57.44-31.386" clip-rule="evenodd"/></g><path fill="url(#e)" d="M354.627 558.731c9.662 49.794 48.06 84.229 85.963 77.045 37.904-7.184 60.943-53.51 51.282-103.305s-48.061-84.23-85.965-77.046c-37.903 7.185-60.942 53.511-51.28 103.306"/><defs><linearGradient id="a" x1="525.454" x2="621.4" y1="790.982" y2="715.155" gradientUnits="userSpaceOnUse"><stop offset=".294" stop-opacity="0"/><stop offset="1" stop-opacity=".5"/></linearGradient><linearGradient id="b" x1="448.275" x2="370.23" y1="775.284" y2="579.734" gradientUnits="userSpaceOnUse"><stop offset=".367" stop-opacity="0"/><stop offset=".884" stop-opacity=".5"/></linearGradient><linearGradient id="c" x1="682.629" x2="733.023" y1="691.925" y2="591.568" gradientUnits="userSpaceOnUse"><stop offset=".367" stop-opacity="0"/><stop offset=".928" stop-opacity=".5"/></linearGradient><linearGradient id="e" x1="370.779" x2="503.896" y1="467.501" y2="665.798" gradientUnits="userSpaceOnUse"><stop stop-color="#E0E0E0"/><stop offset=".233" stop-color="#D9D9D9"/><stop offset=".582" stop-color="#C4C4C4"/><stop offset="1" stop-color="#A3A3A3"/></linearGradient></defs></svg>