<svg width="1080" height="1081" viewBox="0 0 1080 1081" fill="none" xmlns="http://www.w3.org/2000/svg">
<path d="M158 341.514C241.947 341.514 310 273.461 310 189.514C310 105.566 241.947 37.5137 158 37.5137C74.0527 37.5137 6 105.566 6 189.514C6 273.461 74.0527 341.514 158 341.514Z" fill="#B2DFFD"/>
<path d="M105.026 1055.51H998.14C1020.11 1055.51 1038.05 1037.74 1038.05 1015.6V863.25C1038.05 841.278 1020.11 823.345 998.14 823.345H105.026C83.0533 823.345 65.1196 841.116 65.1196 863.25V1015.6C65.1196 1037.74 83.0533 1055.51 105.026 1055.51Z" fill="#E0E0E0"/>
<path d="M188.39 1006.88C225.598 1006.88 255.762 976.717 255.762 939.509C255.762 902.301 225.598 872.138 188.39 872.138C151.182 872.138 121.019 902.301 121.019 939.509C121.019 976.717 151.182 1006.88 188.39 1006.88Z" fill="#F5F5F5"/>
<path d="M255.626 908.389C264.775 899.241 264.775 884.408 255.626 875.259C246.478 866.111 231.645 866.111 222.497 875.259C213.348 884.408 213.348 899.241 222.497 908.389C231.645 917.538 246.478 917.538 255.626 908.389Z" fill="#35DE90"/>
<path d="M942.885 900.895H870.182C865.982 900.895 862.104 902.51 859.196 905.418C856.288 908.326 854.673 912.365 854.673 916.404V962.449C854.673 966.65 856.288 970.528 859.196 973.436C862.104 976.344 866.143 977.96 870.182 977.96H942.885C947.086 977.96 950.964 976.344 953.872 973.436C956.78 970.528 958.395 966.488 958.395 962.449V916.404C958.395 912.204 956.78 908.326 953.872 905.418C951.125 902.51 947.086 900.895 942.885 900.895ZM870.182 908.649H942.885C944.016 908.649 945.147 908.972 946.278 909.457C947.247 909.942 948.217 910.75 948.863 911.557L923.337 937.569C921.075 939.831 918.489 941.608 915.581 942.901C912.673 944.193 909.604 944.678 906.373 944.678C903.303 944.678 900.071 944.032 897.163 942.901C894.255 941.608 891.671 939.831 889.409 937.569L863.881 911.557C864.528 910.75 865.497 909.942 866.628 909.457C867.921 908.972 869.051 908.649 870.182 908.649ZM942.885 970.366H870.182C868.082 970.366 866.143 969.558 864.689 968.104C863.235 966.65 862.428 964.711 862.428 962.611V920.928L884.238 943.062C887.147 945.97 890.701 948.394 894.578 950.009C898.456 951.625 902.656 952.433 906.695 952.433C910.896 952.433 915.097 951.625 918.813 950.009C922.69 948.394 926.244 945.97 929.152 943.062L950.802 920.928V962.449C950.802 963.419 950.64 964.55 950.317 965.519C949.994 966.489 949.348 967.296 948.701 968.104C948.055 968.912 947.086 969.397 946.116 969.881C944.985 970.205 944.016 970.366 942.885 970.366Z" fill="#072F73"/>
<path d="M683.49 965.947C698.064 951.373 698.064 927.742 683.49 913.168C668.915 898.593 645.285 898.593 630.71 913.168C616.136 927.742 616.136 951.373 630.71 965.947C645.285 980.522 668.915 980.522 683.49 965.947Z" fill="#0096FA"/>
<path fill-rule="evenodd" clip-rule="evenodd" d="M656.921 951.947C656.437 952.432 655.629 952.755 654.983 952.755C654.175 952.755 653.529 952.432 653.044 951.947L643.189 941.93C642.704 941.446 642.381 940.638 642.381 939.992C642.381 939.184 642.704 938.538 643.189 938.053C643.512 937.73 643.674 937.568 644.158 937.407C644.481 937.245 644.805 937.245 645.289 937.245C645.613 937.245 646.097 937.245 646.42 937.407C646.743 937.568 647.066 937.73 647.389 938.053L655.306 946.131L667.908 933.691C668.231 933.367 668.393 933.206 668.878 933.045C669.201 932.883 669.523 932.883 670.008 932.883C670.331 932.883 670.816 932.883 671.139 933.045C671.462 933.206 671.786 933.367 672.109 933.691C672.594 934.175 672.917 934.983 672.917 935.63C672.917 936.437 672.594 937.084 672.109 937.568L656.921 951.947Z" fill="white"/>
<path d="M292.597 940.477H298.899C298.899 945.647 302.776 947.586 307.785 947.586C312.47 947.586 315.378 946.132 315.378 942.416C315.378 938.377 311.823 937.407 305.846 935.953C298.575 934.176 293.89 932.076 293.89 925.613C293.89 919.151 299.383 916.081 306.977 916.081C316.509 916.081 320.386 920.605 320.386 926.583H314.247C314.247 923.19 311.5 921.251 306.653 921.251C303.261 921.251 300.353 922.22 300.353 925.29C300.353 928.683 303.422 929.491 308.269 930.783C315.862 932.561 321.84 934.176 321.84 941.608C321.84 948.232 316.994 952.594 307.623 952.594C297.445 952.917 292.597 948.07 292.597 940.477Z" fill="#292929"/>
<path d="M326.525 940.8V926.582H332.503V940.961C332.503 946.454 334.926 947.747 337.996 947.747C341.227 947.747 343.489 946.454 343.489 940.961V926.582H349.467V940.8C349.467 948.878 345.428 952.755 337.996 952.755C330.564 952.755 326.525 948.878 326.525 940.8Z" fill="#292929"/>
<path d="M381.619 952.27H376.126L375.318 948.231C373.38 951.139 370.31 952.593 366.432 952.593C359.001 952.593 354.639 947.1 354.639 939.184C354.639 931.429 359.001 925.936 366.432 925.936C370.31 925.936 373.38 927.39 375.318 930.298L375.964 926.42H380.973V946.615L381.619 952.27ZM374.834 939.345C374.834 934.175 372.248 931.105 367.725 931.105C363.201 931.105 360.616 934.175 360.616 939.345C360.616 944.676 363.201 947.746 367.725 947.746C372.248 947.746 374.834 944.676 374.834 939.345Z" fill="#292929"/>
<path d="M413.771 922.22H395.03V931.752H411.671V936.922H395.03V946.939H413.771V952.432H392.767C390.506 952.432 388.89 950.816 388.89 948.555V916.727H413.771V922.22Z" fill="#292929"/>
<path d="M457.553 937.891V952.432H451.575V938.376C451.575 933.206 449.798 931.267 446.728 931.267C443.336 931.267 441.558 933.529 441.558 938.376V952.432H435.58V938.376C435.58 933.206 433.803 931.267 430.733 931.267C427.34 931.267 425.564 933.529 425.564 938.376V952.432H419.747V932.236L418.939 926.743H424.432L425.24 930.136C426.856 927.551 429.441 926.259 432.672 926.259C436.55 926.259 439.134 927.713 440.427 930.782C442.043 927.713 444.789 926.259 448.505 926.259C454.806 926.097 457.553 930.136 457.553 937.891Z" fill="#292929"/>
<path d="M490.511 939.507C490.511 947.262 486.311 952.755 478.879 952.755C475.163 952.755 472.093 951.301 470.154 948.716V963.096H464.338V932.237L463.53 926.744H469.023L469.831 930.945C471.77 927.875 474.839 926.421 478.717 926.421C486.149 926.098 490.511 931.591 490.511 939.507ZM484.533 939.507C484.533 934.176 481.787 931.106 477.425 931.106C472.901 931.106 470.315 934.176 470.315 939.507C470.315 944.677 473.063 947.747 477.425 947.747C481.787 947.747 484.533 944.677 484.533 939.507Z" fill="#292929"/>
<path d="M496.004 952.271V932.56L495.842 930.945L495.196 926.421H500.689L501.659 930.621C502.951 927.713 505.213 926.098 509.09 926.098H510.383V932.237H508.767C503.113 932.237 501.82 933.853 501.82 940.315V952.109H496.004V952.271Z" fill="#292929"/>
<path d="M539.304 940.638H518.947C519.431 945.324 522.178 948.07 526.54 948.07C530.418 948.07 532.679 946.455 533.325 944.354H539.304C538.011 949.847 533.164 952.755 526.54 952.755C517.816 952.755 512.969 947.262 512.969 939.507C512.969 931.429 517.816 926.098 526.379 926.098C534.78 926.098 539.465 931.106 539.627 938.861C539.304 939.508 539.304 939.992 539.304 940.638ZM519.108 936.599H532.841C532.356 932.56 530.094 930.46 526.055 930.46C521.855 930.621 519.755 933.206 519.108 936.599Z" fill="#292929"/>
<path d="M542.856 944.031H548.672C548.834 947.262 551.096 948.393 554.488 948.393C557.558 948.393 559.335 947.423 559.335 945.323C559.335 942.738 557.074 942.254 553.358 941.284C547.542 939.83 543.987 938.214 543.987 933.367C543.987 928.359 547.865 926.259 554.004 926.259C561.113 926.259 564.182 929.329 564.182 934.014H558.527C558.527 931.752 557.074 930.621 553.842 930.621C551.58 930.621 549.803 931.106 549.803 933.044C549.803 934.983 551.258 935.468 554.812 936.437C560.305 937.891 565.152 939.184 565.152 944.838C565.152 949.685 561.598 952.755 554.166 952.755C546.572 952.755 543.018 949.524 542.856 944.031Z" fill="#292929"/>
<path d="M596.173 952.27H590.679L589.872 948.231C587.933 951.139 584.863 952.593 580.986 952.593C573.554 952.593 569.192 947.1 569.192 939.184C569.192 931.429 573.554 925.936 580.986 925.936C584.863 925.936 587.933 927.39 589.872 930.298L590.518 926.42H595.526V946.615L596.173 952.27ZM589.387 939.345C589.387 934.175 586.802 931.105 582.279 931.105C577.755 931.105 575.17 934.175 575.17 939.345C575.17 944.676 577.755 947.746 582.279 947.746C586.802 947.746 589.387 944.676 589.387 939.345Z" fill="#292929"/>
<path d="M925.599 823.506C1005.99 823.506 1071.17 758.333 1071.17 677.939C1071.17 597.544 1005.99 532.371 925.599 532.371C845.205 532.371 780.032 597.544 780.032 677.939C780.032 758.333 845.205 823.506 925.599 823.506Z" fill="#35DE90"/>
<path d="M925.598 823.345C1005.9 823.345 1071 758.245 1071 677.939C1071 597.634 1005.9 532.533 925.598 532.533C845.293 532.533 780.192 597.634 780.192 677.939C780.192 758.245 845.293 823.345 925.598 823.345Z" fill="#35DE90"/>
<path d="M896.68 532.371C949.414 532.371 992.163 489.621 992.163 436.887C992.163 384.154 949.414 341.404 896.68 341.404C843.946 341.404 801.197 384.154 801.197 436.887C801.197 489.621 843.946 532.371 896.68 532.371Z" fill="#0096FA"/>
<path d="M896.68 532.371C949.414 532.371 992.162 489.621 992.162 436.887C992.162 384.154 949.414 341.404 896.68 341.404C843.946 341.404 801.196 384.154 801.196 436.887C801.196 489.621 843.946 532.371 896.68 532.371Z" fill="#0096FA"/>
<path d="M121.991 617.837C156.433 617.837 184.353 589.917 184.353 555.474C184.353 521.032 156.433 493.111 121.991 493.111C87.5489 493.111 59.6279 521.032 59.6279 555.474C59.6279 589.917 87.5489 617.837 121.991 617.837Z" fill="#072F73"/>
<path d="M121.99 617.836C156.343 617.836 184.191 589.988 184.191 555.635C184.191 521.282 156.343 493.434 121.99 493.434C87.6371 493.434 59.7886 521.282 59.7886 555.635C59.7886 589.988 87.6371 617.836 121.99 617.836Z" fill="#072F73"/>
<path d="M135.238 823.505C192.255 823.505 238.476 777.284 238.476 720.267C238.476 663.25 192.255 617.028 135.238 617.028C78.2211 617.028 32 663.25 32 720.267C32 777.284 78.2211 823.505 135.238 823.505Z" fill="#1968F0"/>
<path d="M135.236 823.343C192.164 823.343 238.313 777.194 238.313 720.266C238.313 663.338 192.164 617.189 135.236 617.189C78.3088 617.189 32.1602 663.338 32.1602 720.266C32.1602 777.194 78.3088 823.343 135.236 823.343Z" fill="#1968F0"/>
<path d="M495.36 823.344C668.731 823.344 809.276 682.799 809.276 509.429C809.276 336.058 668.731 195.514 495.36 195.514C321.99 195.514 181.445 336.058 181.445 509.429C181.445 682.799 321.99 823.344 495.36 823.344Z" fill="#C5D9FB"/>
<path d="M1000.72 646.11L1001.05 737.555L926.568 762.92V659.682L1000.72 646.11Z" fill="black"/>
<path d="M1000.62 654.143C1005.61 621.776 977.259 590.551 937.307 584.399C897.355 578.247 860.928 599.498 855.944 631.865C850.96 664.232 879.307 695.458 919.258 701.61C959.21 707.762 995.637 686.51 1000.62 654.143Z" fill="black"/>
<path d="M869.214 625.107L854.35 649.503L856.612 672.607L846.434 712.674L858.066 716.713L868.891 756.134L892.317 750.803L897.326 782.63L963.728 774.229L953.226 712.836L962.758 699.749L952.257 673.092L939.978 688.44L922.206 647.242L869.214 625.107Z" fill="#8C3A03"/>
<path d="M896.357 776.653L927.862 742.563L892.318 750.803L896.357 776.653Z" fill="url(#paint0_linear_18735_2702)"/>
<path d="M869.214 625.107L854.35 649.503L941.27 691.833L922.206 647.242L869.214 625.107Z" fill="url(#paint1_linear_18735_2702)"/>
<path d="M942.885 730.769L957.911 748.54L953.225 712.835L942.885 730.769Z" fill="url(#paint2_linear_18735_2702)"/>
<path d="M863.236 735.455L866.952 718.491L858.228 716.714L863.236 735.455Z" fill="url(#paint3_linear_18735_2702)"/>
<path d="M895.897 734.881C896.141 732.485 893.821 730.285 890.714 729.968C887.607 729.651 884.891 731.338 884.646 733.734C884.402 736.131 886.723 738.331 889.829 738.648C892.936 738.964 895.653 737.278 895.897 734.881Z" fill="#A3A3A3"/>
<path d="M894.094 734.485C894.094 734.485 949.025 740.947 961.789 695.063" stroke="url(#paint4_linear_18735_2702)" stroke-width="2" stroke-miterlimit="10"/>
<mask id="mask0_18735_2702" style="mask-type:luminance" maskUnits="userSpaceOnUse" x="905" y="538" width="97" height="138">
<path d="M905.726 585.525L923.821 583.748L953.549 675.515L1001.05 674.384L937.07 538.672L905.726 585.525Z" fill="white"/>
</mask>
<g mask="url(#mask0_18735_2702)">
<path d="M907.989 591.341C915.097 581.97 923.014 576.639 931.253 577.123C954.034 578.577 969.705 623.491 966.312 677.615" stroke="#0C4EC0" stroke-width="6.3029" stroke-miterlimit="10"/>
</g>
<path d="M982.954 694.257C980.046 709.606 968.091 720.269 956.458 718.007C944.826 715.745 937.717 701.528 940.625 686.179C943.533 670.831 955.488 660.168 967.121 662.43C978.753 664.691 985.862 678.909 982.954 694.257Z" fill="url(#paint5_linear_18735_2702)"/>
<path d="M117.952 687.793H99.6952L76.1069 739.816L85.6397 742.724V764.858C87.4169 766.635 88.5477 767.767 90.3249 769.544H111.328V788.285H157.373V687.632H117.952V687.793Z" fill="#F06305"/>
<path d="M100.019 687.793H157.535V769.705H98.8873L85.6397 742.886L76.1069 739.816L100.019 687.793Z" fill="#F06305"/>
<path d="M163.673 663.074H96.1403C89.5163 663.074 84.6689 669.214 85.9614 675.676L92.2622 704.434L99.5325 687.632H172.235V671.637C172.397 666.952 168.52 663.074 163.673 663.074Z" fill="black"/>
<path d="M185.808 679.877H172.398L172.075 681.654H96.1411L117.952 720.106H134.269V734.646C134.269 737.07 132.331 738.847 130.069 738.847H118.113V774.552C118.113 779.56 122.152 783.6 127.161 783.6H164.32C168.682 783.6 172.398 780.045 172.398 775.522L172.721 728.669H186.292C190.978 728.669 194.694 724.953 194.694 720.267V688.278C194.532 683.754 190.655 679.877 185.808 679.877Z" fill="black"/>
<path d="M418.94 623.974L333.312 519.444L342.36 374.361L627.679 291.156L670.008 332.193L602.152 417.659L418.94 623.974Z" fill="black"/>
<path d="M600.051 382.6L630.102 446.74L627.193 485.03L653.367 562.418L631.071 568.234L617.985 661.132L557.399 651.6L539.304 724.303L389.859 708.47L432.188 564.034L405.531 532.368L439.781 491.654L457.069 510.557L481.303 428.16L600.051 382.6Z" fill="#F67979"/>
<path d="M545.282 700.232L488.896 640.131L557.399 651.602L545.282 700.232Z" fill="url(#paint6_linear_18735_2702)"/>
<path d="M457.392 613.473L406.5 651.602L432.189 564.035L457.392 613.473Z" fill="url(#paint7_linear_18735_2702)"/>
<path d="M625.577 608.625L606.513 575.02L631.07 568.234L625.577 608.625Z" fill="url(#paint8_linear_18735_2702)"/>
<path d="M582.36 626.711C589.018 626.032 593.996 621.381 593.481 616.321C592.965 611.262 587.15 607.71 580.493 608.389C573.835 609.067 568.857 613.719 569.372 618.779C569.888 623.838 575.703 627.39 582.36 626.711Z" fill="#0C4EC0"/>
<path fill-rule="evenodd" clip-rule="evenodd" d="M574.637 615.111C574.637 615.111 574.636 615.111 575.01 618.32C575.385 621.53 575.383 621.53 575.381 621.53L575.374 621.531L575.353 621.533L575.279 621.542C575.216 621.549 575.125 621.558 575.007 621.571C574.771 621.595 574.427 621.629 573.982 621.668C573.091 621.746 571.794 621.847 570.141 621.941C566.837 622.127 562.104 622.281 556.347 622.159C544.847 621.916 529.196 620.568 512.658 616.13C479.542 607.242 442.569 585.834 428.752 535.979L434.98 534.253C447.983 581.173 482.582 601.367 514.333 609.888C530.229 614.154 545.335 615.462 556.484 615.698C562.052 615.816 566.617 615.666 569.778 615.488C571.358 615.399 572.587 615.303 573.413 615.23C573.827 615.194 574.139 615.163 574.345 615.142C574.406 615.136 574.457 615.13 574.499 615.126C574.529 615.123 574.553 615.12 574.573 615.118L574.626 615.112L574.636 615.111L574.637 615.111Z" fill="#0C4EC0"/>
<path fill-rule="evenodd" clip-rule="evenodd" d="M485.98 290.857C505.176 289.532 522.17 301.203 536.075 317.813L515.072 323.885C505.232 314.185 495.782 310.248 487.336 310.839L487.293 310.842L487.25 310.845C479.514 311.319 471.494 315.513 463.572 324.538C455.614 333.604 448.311 346.973 442.332 364.109C430.388 398.337 424.395 445.663 427.645 497.817L407.656 499.063C404.282 444.91 410.406 394.814 423.423 357.51C429.924 338.88 438.313 322.956 448.52 311.326C458.754 299.668 471.359 291.769 485.98 290.857Z" fill="#0C4EC0"/>
<path d="M387.113 533.339C393.414 565.813 418.457 588.27 443.176 583.585C467.895 578.899 482.92 548.687 476.619 516.213C470.319 483.739 445.276 461.282 420.557 465.968C395.838 470.653 380.813 500.865 387.113 533.339Z" fill="url(#paint9_linear_18735_2702)"/>
<path d="M919.137 471.139L945.633 431.395L936.585 393.912L856.45 387.935L851.604 407.322L869.537 415.239L919.137 471.139Z" fill="#F06305"/>
<path d="M870.022 405.706L861.944 423.155L862.59 433.495L855.643 454.498L861.621 456.114L865.175 481.317L881.654 478.732L886.501 498.443L927.053 494.081L915.582 454.982L922.691 446.42L913.482 435.272L908.797 440.442L902.173 418.146L870.022 405.706Z" fill="#FCAA73"/>
<path d="M884.886 491.818L900.073 475.662L881.655 478.732L884.886 491.818Z" fill="url(#paint10_linear_18735_2702)"/>
<path d="M908.798 468.393L922.531 478.733L915.583 454.983L908.798 468.393Z" fill="url(#paint11_linear_18735_2702)"/>
<path d="M863.075 467.1L868.245 457.891L861.621 456.114L863.075 467.1Z" fill="url(#paint12_linear_18735_2702)"/>
<defs>
<linearGradient id="paint0_linear_18735_2702" x1="926.004" y1="775.402" x2="890.607" y2="735.243" gradientUnits="userSpaceOnUse">
<stop offset="0.4289" stop-opacity="0"/>
<stop offset="1" stop-opacity="0.5"/>
</linearGradient>
<linearGradient id="paint1_linear_18735_2702" x1="861.643" y1="735.107" x2="931.2" y2="607.83" gradientUnits="userSpaceOnUse">
<stop offset="0.5074" stop-opacity="0"/>
<stop offset="0.8834" stop-opacity="0.5"/>
</linearGradient>
<linearGradient id="paint2_linear_18735_2702" x1="930.402" y1="751.44" x2="971.088" y2="717.225" gradientUnits="userSpaceOnUse">
<stop offset="0.3675" stop-opacity="0"/>
<stop offset="0.8842" stop-opacity="0.5"/>
</linearGradient>
<linearGradient id="paint3_linear_18735_2702" x1="876.945" y1="737.504" x2="848.711" y2="715.086" gradientUnits="userSpaceOnUse">
<stop offset="0.3675" stop-opacity="0"/>
<stop offset="0.9278" stop-opacity="0.5"/>
</linearGradient>
<linearGradient id="paint4_linear_18735_2702" x1="963.227" y1="715.5" x2="893.835" y2="715.5" gradientUnits="userSpaceOnUse">
<stop stop-color="#E0E0E0"/>
<stop offset="0.233" stop-color="#D9D9D9"/>
<stop offset="0.5821" stop-color="#C4C4C4"/>
<stop offset="1" stop-color="#A3A3A3"/>
</linearGradient>
<linearGradient id="paint5_linear_18735_2702" x1="977.865" y1="666.09" x2="936.82" y2="727.232" gradientUnits="userSpaceOnUse">
<stop stop-color="#E0E0E0"/>
<stop offset="0.233" stop-color="#D9D9D9"/>
<stop offset="0.5821" stop-color="#C4C4C4"/>
<stop offset="1" stop-color="#A3A3A3"/>
</linearGradient>
<linearGradient id="paint6_linear_18735_2702" x1="498.517" y1="684.708" x2="561.089" y2="635.256" gradientUnits="userSpaceOnUse">
<stop offset="0.2944" stop-opacity="0"/>
<stop offset="1" stop-opacity="0.5"/>
</linearGradient>
<linearGradient id="paint7_linear_18735_2702" x1="448.146" y1="674.494" x2="397.247" y2="546.965" gradientUnits="userSpaceOnUse">
<stop offset="0.3675" stop-opacity="0"/>
<stop offset="0.8842" stop-opacity="0.5"/>
</linearGradient>
<linearGradient id="paint8_linear_18735_2702" x1="600.983" y1="620.131" x2="633.848" y2="554.683" gradientUnits="userSpaceOnUse">
<stop offset="0.3675" stop-opacity="0"/>
<stop offset="0.9278" stop-opacity="0.5"/>
</linearGradient>
<linearGradient id="paint9_linear_18735_2702" x1="397.636" y1="473.845" x2="484.45" y2="603.167" gradientUnits="userSpaceOnUse">
<stop stop-color="#E0E0E0"/>
<stop offset="0.233" stop-color="#D9D9D9"/>
<stop offset="0.5821" stop-color="#C4C4C4"/>
<stop offset="1" stop-color="#A3A3A3"/>
</linearGradient>
<linearGradient id="paint10_linear_18735_2702" x1="898.098" y1="487.517" x2="881.134" y2="474.11" gradientUnits="userSpaceOnUse">
<stop offset="0.2944" stop-opacity="0"/>
<stop offset="1" stop-opacity="0.5"/>
</linearGradient>
<linearGradient id="paint11_linear_18735_2702" x1="912.06" y1="484.82" x2="925.862" y2="450.242" gradientUnits="userSpaceOnUse">
<stop offset="0.3675" stop-opacity="0"/>
<stop offset="0.8842" stop-opacity="0.5"/>
</linearGradient>
<linearGradient id="paint12_linear_18735_2702" x1="870.622" y1="470.08" x2="861.711" y2="452.336" gradientUnits="userSpaceOnUse">
<stop offset="0.3675" stop-opacity="0"/>
<stop offset="0.9278" stop-opacity="0.5"/>
</linearGradient>
</defs>
</svg>
