<svg width="1080" height="1081" viewBox="0 0 1080 1081" fill="none" xmlns="http://www.w3.org/2000/svg">
<g clip-path="url(#clip0_23393_4078)">
<path d="M540 950.913C766.658 950.913 950.4 767.171 950.4 540.513C950.4 313.856 766.658 130.113 540 130.113C313.342 130.113 129.6 313.856 129.6 540.513C129.6 767.171 313.342 950.913 540 950.913Z" fill="#1968F0"/>
<path d="M464.4 302.914C455.09 253.87 410.21 216.514 356.26 216.514C318.781 216.514 285.599 234.619 265.785 261.891C255.52 257.995 244.301 255.932 232.603 255.932C197.273 255.932 166.717 274.954 151.2 302.684H464.4V302.914Z" fill="#B2DFFD"/>
<path d="M1004.4 886.114C996.695 843.2 959.554 810.514 914.905 810.514C883.888 810.514 856.427 826.356 840.029 850.219C831.534 846.81 822.249 845.005 812.568 845.005C783.329 845.005 758.041 861.849 745.2 886.114H1004.4Z" fill="#B2DFFD"/>
<path d="M378 788.913C362.988 746.847 329.838 717.464 291.475 717.464C270 717.464 250.193 726.554 234.348 741.774C210.371 698.439 170.965 670.113 126.348 670.113C67.1352 670.113 16.888 720.001 0 788.702H378V788.913Z" fill="#B2DFFD"/>
<path d="M738.451 50.1173C743.181 32.4723 735.153 13.8782 719.058 5.21922C702.964 -3.43977 683.026 0.103983 670.9 13.7727L203.177 541.233C194.116 551.452 190.992 565.627 194.921 578.716C198.849 591.794 209.271 601.909 222.464 605.442L436.238 662.721C437.305 663.007 437.938 664.104 437.652 665.171L339.572 1031.21C334.842 1048.86 342.871 1067.46 358.967 1076.12C375.061 1084.78 394.999 1081.23 407.124 1067.55L874.846 540.104C883.908 529.884 887.033 515.699 883.104 502.62C879.175 489.542 868.753 479.428 855.56 475.895L641.785 418.605C640.719 418.319 640.085 417.222 640.371 416.155L738.451 50.1173Z" fill="url(#paint0_radial_23393_4078)"/>
<path fill-rule="evenodd" clip-rule="evenodd" d="M688.728 60.3185C694.47 61.9357 697.813 67.9009 696.196 73.6422L602.74 405.41C596.301 428.267 609.518 452.035 632.332 458.626L823.798 513.938C829.528 515.594 832.831 521.581 831.176 527.311C829.52 533.042 823.533 536.345 817.803 534.69L626.337 479.377C592.117 469.491 572.291 433.839 581.949 399.553L675.405 67.7856C677.022 62.0444 682.987 58.7012 688.728 60.3185Z" fill="white"/>
<path d="M820.8 263.898C820.8 213.87 861.356 173.313 911.385 173.313V173.313C961.414 173.313 1001.97 213.87 1001.97 263.898V263.898C1001.97 313.927 961.414 354.483 911.385 354.483V354.483C861.356 354.483 820.8 313.927 820.8 263.898V263.898Z" fill="#84EBBC"/>
</g>
<defs>
<radialGradient id="paint0_radial_23393_4078" cx="0" cy="0" r="1" gradientUnits="userSpaceOnUse" gradientTransform="translate(576.952 251.356) rotate(104.392) scale(900.165 606.741)">
<stop stop-color="#FBCF23"/>
<stop offset="1" stop-color="#FBB223"/>
</radialGradient>
<clipPath id="clip0_23393_4078">
<rect width="1080" height="1080" fill="white" transform="translate(0 0.513672)"/>
</clipPath>
</defs>
</svg>
