<svg xmlns="http://www.w3.org/2000/svg" width="1079" height="1080" fill="none"><path fill="#F5F5F5" d="M94.002 489.091c0 239.742 194.35 434.092 434.092 434.092s434.091-194.35 434.091-434.092S767.836 55 528.094 55 94.002 249.349 94.002 489.091"/><path fill="#0096FA" d="M571.66 203.778h-17.895c-3.58 0-6.392-2.811-6.392-6.389v-27.987c0-3.578 2.812-6.39 6.392-6.39h17.895c3.579 0 6.391 2.812 6.391 6.39v27.987c0 3.578-2.812 6.389-6.391 6.389M571.66 290.677h-17.895c-3.58 0-6.392-2.811-6.392-6.39v-57.123c0-3.578 2.812-6.39 6.392-6.39h17.895c3.579 0 6.391 2.812 6.391 6.39v57.123c0 3.579-2.812 6.39-6.391 6.39"/><g filter="url(#a)" opacity=".1"><path fill="#0A0F1A" d="M593.554 1028.09c0 18.6-80.784 33.68-180.436 33.68s-180.436-15.08-180.436-33.68c0-18.59 80.784-33.671 180.436-33.671s180.436 15.081 180.436 33.671"/></g><path fill="url(#b)" d="M829.988 729.007H610.133c-23.647 0-42.82-19.169-42.82-42.81V112.918c0-23.642 19.173-42.811 42.82-42.811h219.855c23.647 0 42.821 19.169 42.821 42.811v573.279c-.128 23.641-19.174 42.81-42.821 42.81"/><g filter="url(#c)"><path fill="#fff" d="M804.367 255.865v124.19c0 8.364-6.777 15.147-15.133 15.147H622.779c-8.356 0-15.132-6.783-15.132-15.147 0-117.406-.01-95.412.033-124.19z"/></g><path fill="#D2DFE6" fill-opacity=".4" d="M804.8 255.865v28.683c0 6.207-4.971 11.349-11.172 11.374H619.247c-6.199-.027-11.167-5.169-11.167-11.374 0-8.276-.006-2.471.033-28.683z"/><path fill="#0096FA" d="M815.932 255.865c0 15.155-12.277 27.453-27.427 27.453-15.146 0-27.427-12.292-27.427-27.453 0 15.161-12.281 27.453-27.427 27.453-15.147 0-27.428-12.292-27.428-27.453 0 15.161-12.281 27.453-27.427 27.453s-27.427-12.292-27.427-27.453c-.024 15.062-12.409 27.453-27.428 27.453-15 0-27.403-12.376-27.427-27.453 0-23.859-.065-22.391.166-23.486.227-1.075-1.347 2.731 22.448-52.236a7.57 7.57 0 0 1 6.941-4.562h160.308a7.57 7.57 0 0 1 6.942 4.562c23.812 55.008 22.22 51.16 22.448 52.236.23 1.094.165-.398.165 23.486"/><path fill="#1967F1" d="M815.924 255.866c0 15.154-12.278 27.452-27.427 27.452-15.147 0-27.428-12.292-27.428-27.452 0 15.16-12.281 27.452-27.427 27.452s-27.427-12.292-27.427-27.452c0 15.16-12.281 27.452-27.428 27.452s-27.427-12.292-27.427-27.452c-.023 15.061-12.408 27.452-27.427 27.452-15 0-27.404-12.376-27.427-27.452v-21.915a7.6 7.6 0 0 1 .165-1.572h219.087c.231 1.094.166-.398.166 23.487"/><path fill="#454545" fill-rule="evenodd" d="M672.405 314.772c-.905-.069-2.072-.07-3.824-.07h-.762a2.646 2.646 0 0 1 0-5.291h.859c1.629 0 2.998 0 4.128.086 1.185.09 2.3.284 3.384.774a9.7 9.7 0 0 1 4.116 3.517c.652.994 1.018 2.065 1.292 3.222.261 1.102.475 2.454.729 4.063l.035.224h45.448c2.307 0 4.211 0 5.741.134 1.578.139 3.057.439 4.389 1.233a9.7 9.7 0 0 1 4.252 5.309c.483 1.474.452 2.983.243 4.553-.203 1.522-.62 3.38-1.124 5.631l-3.287 14.67c-.335 1.496-.617 2.756-.928 3.783-.326 1.08-.732 2.074-1.394 2.991a9.7 9.7 0 0 1-4.04 3.235c-1.04.446-2.099.624-3.224.707-1.07.079-2.362.078-3.895.078h-29.047c-1.63 0-2.999.001-4.128-.085-1.186-.09-2.301-.285-3.385-.774a9.7 9.7 0 0 1-4.115-3.518c-.653-.994-1.019-2.065-1.293-3.222-.261-1.102-.474-2.455-.728-4.064l-4.358-27.603-.373-2.36c-.273-1.73-.457-2.883-.666-3.767-.202-.851-.386-1.261-.567-1.537a4.4 4.4 0 0 0-1.871-1.598c-.301-.136-.734-.254-1.607-.321m10.793 11.815 3.859 24.45c.274 1.731.457 2.883.667 3.767.201.852.385 1.261.566 1.537a4.4 4.4 0 0 0 1.871 1.599c.301.136.735.254 1.607.32.906.069 2.073.071 3.825.071h28.857c1.651 0 2.747-.002 3.601-.064.82-.061 1.234-.168 1.526-.293a4.4 4.4 0 0 0 1.836-1.47c.186-.258.381-.638.619-1.425.248-.819.489-1.889.85-3.5l3.24-14.461c.537-2.398.9-4.028 1.069-5.292.166-1.243.096-1.832-.026-2.204a4.4 4.4 0 0 0-1.933-2.413c-.336-.201-.895-.398-2.144-.507-1.271-.112-2.941-.115-5.398-.115zm6.351 50.261a6.172 6.172 0 1 1 12.345 0 6.172 6.172 0 0 1-12.345 0m28.217 0a6.172 6.172 0 1 1 12.344 0 6.172 6.172 0 1 1-12.344 0" clip-rule="evenodd"/><path fill="#0096FA" d="M886.615 328.888H868.72c-3.579 0-6.391-2.812-6.391-6.39v-57.123c0-3.579 2.812-6.39 6.391-6.39h17.895c3.579 0 6.391 2.811 6.391 6.39v57.123c0 3.578-2.94 6.39-6.391 6.39"/><path fill="url(#d)" d="M567.12 99.72c0-16.614 12.611-30.081 28.168-30.081h252.326c15.557 0 28.168 13.467 28.168 30.08v10.413H567.12z"/><path fill="#0096FA" d="M872.987 110.3H567.119v42.919h305.868z"/><path fill="#fff" d="m854.725 130.292 4.647-4.658a.743.743 0 0 0-.545-1.209.75.75 0 0 0-.507.165l-4.65 4.647-4.651-4.647a.746.746 0 1 0-1.052 1.044l4.647 4.649-4.647 4.659a.75.75 0 0 0-.159.81.743.743 0 0 0 1.211.242l4.651-4.65 4.65 4.65q.104.104.24.162a.75.75 0 0 0 .698-.07.74.74 0 0 0 .317-.763.75.75 0 0 0-.203-.381zM584.86 134.966a.51.51 0 0 1-.392-.185l-3.592-4.277a1.045 1.045 0 0 1 0-1.344l3.592-4.277a.518.518 0 0 1 .907.294.53.53 0 0 1-.108.376l-3.592 4.279 3.586 4.279a.522.522 0 0 1-.12.775.5.5 0 0 1-.281.08"/><path fill="#2C2A46" fill-rule="evenodd" d="M608.449 144.643a13.42 13.42 0 0 0 13.15-16.034 13.414 13.414 0 0 0-18.29-9.776 13.415 13.415 0 0 0-8.287 12.386 13.457 13.457 0 0 0 13.427 13.424" clip-rule="evenodd"/><g clip-path="url(#e)"><path fill="#0096FA" fill-rule="evenodd" d="M611.372 137.338c-.993.119-2.118.158-3.373.158s-2.38-.039-3.374-.158l-.001.002-1.708 2.454a.487.487 0 0 1-.786.009 16.6 16.6 0 0 1-2.444-4.844 15 15 0 0 1-.531-2.367 13.6 13.6 0 0 1-.156-2.169c0-6.379 3.662-8.423 9-8.423 5.33 0 8.99 2.039 9 8.398v.025l-.001.065c-.002.74-.048 1.402-.138 1.996-.418 3.089-1.718 5.566-2.993 7.318a.484.484 0 0 1-.786-.008l-1.708-2.454z" clip-rule="evenodd"/><path fill="url(#f)" d="M599.818 135.369c.633 1.892 1.576 3.419 2.312 4.433a.484.484 0 0 0 .786-.008l1.708-2.455c-2.341-.205-4.09-.882-4.806-1.97"/><path fill="url(#g)" d="M616.166 135.369c-.633 1.892-1.576 3.419-2.312 4.433a.484.484 0 0 1-.786-.008l-1.708-2.455c2.341-.205 4.09-.882 4.806-1.97"/><path fill="#000" fill-rule="evenodd" d="M610.175 133.585h.916c-.004.291-.208.525-.458.525s-.454-.234-.458-.525M605.892 133.585h-.917c.005.291.208.525.458.525.251 0 .454-.234.459-.525" clip-rule="evenodd"/><path fill="#0035B5" fill-rule="evenodd" d="M602.468 132.124a.296.296 0 1 0 0 .592h.468l.201 1.548a1.374 1.374 0 0 0 1.312 1.197l1.256.047a1.51 1.51 0 0 0 1.479-1.015l.611-1.777h.243l.612 1.777a1.51 1.51 0 0 0 1.479 1.015l1.256-.047a1.374 1.374 0 0 0 1.312-1.197l.2-1.548h.51a.295.295 0 1 0 0-.592z" clip-rule="evenodd"/><path fill="#0065FF" fill-rule="evenodd" d="m611.52 133.974.087-1.28.715.048-.087 1.281z" clip-rule="evenodd"/></g><path fill="#90E6BC" d="M621.193 126.477a3.756 3.756 0 1 0 0-7.512 3.756 3.756 0 0 0 0 7.512"/><path fill="#2CC3D5" fill-rule="evenodd" d="M621.189 119.45a3.272 3.272 0 1 0-.002 6.544 3.272 3.272 0 0 0 .002-6.544m-4.241 3.271a4.24 4.24 0 1 1 8.48.002 4.24 4.24 0 0 1-8.48-.002" clip-rule="evenodd"/><rect width="71.104" height="5.202" x="626.943" y="128.868" fill="#fff" rx="2.601"/><path fill="#0096FA" d="M724.797 96.169H688.77c-4.726 0-8.523-3.11-8.523-6.982 0-3.871 3.797-6.981 8.523-6.981h36.027c4.727 0 8.523 3.11 8.523 6.981s-3.796 6.982-8.523 6.982"/><path fill="#F5F5F5" d="M749.912 93.755a4.473 4.473 0 1 0 .001-8.947 4.473 4.473 0 0 0-.001 8.947"/><path fill="url(#h)" fill-rule="evenodd" d="M608.279 742.17h223.689c28.377 0 51.257-22.875 51.13-51.117V108.189c0-28.242-22.881-51.117-51.13-51.117H608.279c-28.249 0-51.129 22.875-51.129 51.117v582.864c0 28.242 22.88 51.117 51.129 51.117m2.046-13.163H830.18c23.647 0 42.693-19.169 42.821-42.81V112.918c0-23.642-19.174-42.811-42.821-42.811H610.325c-23.647 0-42.82 19.169-42.82 42.811v573.279c0 23.641 19.173 42.81 42.82 42.81" clip-rule="evenodd"/><path fill="#fff" d="M729.045 544.776c0-6.565 5.323-11.886 11.889-11.886h108.783c6.566 0 11.888 5.321 11.888 11.886v16.038a3.96 3.96 0 0 1-3.963 3.962H740.934c-6.566 0-11.889-5.321-11.889-11.886z"/><path fill="#B2DFFD" d="M749.94 665.958c0-6.565-5.323-11.886-11.889-11.886H617.308c-6.566 0-11.889 5.321-11.889 11.886v16.039a3.96 3.96 0 0 0 3.963 3.962h128.669c6.566 0 11.889-5.322 11.889-11.886z"/><path fill="#fff" d="M681.17 596.456c0-6.564 5.323-11.886 11.889-11.886h156.624c6.566 0 11.889 5.322 11.889 11.886v34.972a3.96 3.96 0 0 1-3.963 3.962h-164.55c-6.566 0-11.889-5.322-11.889-11.886z"/><g filter="url(#i)"><path fill="#fff" d="M681.155 453.228c0-7.169 5.813-12.98 12.983-12.98h278.708c7.171 0 12.984 5.811 12.984 12.98v57.113a2.597 2.597 0 0 1-2.597 2.596H694.138c-7.17 0-12.983-5.811-12.983-12.98z"/></g><path fill="#FCCCCC" d="M971.912 455.537c0 21.745-17.632 39.373-39.383 39.373-21.75 0-39.382-17.628-39.382-39.373 0-21.746 17.632-39.374 39.382-39.374 21.751 0 39.383 17.628 39.383 39.374"/><path fill="#D2DFE6" fill-rule="evenodd" d="M860.037 467.587a4.06 4.06 0 0 0-4.061-4.059H710.131a4.06 4.06 0 1 0 0 8.118h145.845a4.06 4.06 0 0 0 4.061-4.059M860.037 485.76a4.06 4.06 0 0 0-4.061-4.06h-98.445a4.06 4.06 0 1 0 0 8.119h98.445a4.06 4.06 0 0 0 4.061-4.059" clip-rule="evenodd"/><path fill="#35DE90" d="M931.479 503.186c23.621 0 42.77-19.149 42.77-42.77s-19.149-42.77-42.77-42.77-42.771 19.149-42.771 42.77 19.149 42.77 42.771 42.77"/><path fill="#35DE90" d="M931.475 503.139c23.595 0 42.723-19.128 42.723-42.723s-19.128-42.723-42.723-42.723-42.722 19.128-42.722 42.723 19.127 42.723 42.722 42.723"/><path fill="#000" d="m953.553 451.065.095 26.868-21.884 7.453v-30.334z"/><path fill="#000" d="M953.523 453.425c1.464-9.51-6.865-18.684-18.603-20.492s-22.441 4.436-23.906 13.946 6.864 18.685 18.603 20.493c11.738 1.807 22.441-4.437 23.906-13.947"/><path fill="#F67979" d="m914.915 444.894-4.368 7.168.665 6.788-2.991 11.773 3.418 1.186 3.181 11.583 6.883-1.567 1.471 9.352 19.51-2.468-3.085-18.039 2.801-3.845-3.086-7.832-3.608 4.509-5.221-12.105z"/><path fill="url(#j)" d="m922.889 489.421 9.257-10.016-10.444 2.421z"/><path fill="url(#k)" d="m914.915 444.894-4.367 7.168 25.538 12.437-5.601-13.102z"/><path fill="url(#l)" d="m936.562 475.939 4.415 5.222-1.377-10.491z"/><path fill="url(#m)" d="m913.156 477.315 1.091-4.984-2.563-.522z"/><path fill="#A3A3A3" d="M922.749 477.147c.072-.704-.61-1.351-1.522-1.444-.913-.093-1.711.403-1.783 1.107s.61 1.35 1.523 1.443 1.711-.402 1.782-1.106"/><path stroke="url(#n)" stroke-miterlimit="10" stroke-width="2" d="M922.219 477.031s16.14 1.899 19.89-11.583"/><mask id="o" width="29" height="41" x="925" y="419" maskUnits="userSpaceOnUse" style="mask-type:luminance"><path fill="#fff" d="m925.637 433.263 5.317-.522 8.734 26.963 13.956-.332-18.797-39.875z"/></mask><g mask="url(#o)"><path stroke="#0C4EC0" stroke-miterlimit="10" stroke-width="6.303" d="M926.299 434.972c2.088-2.753 4.414-4.32 6.835-4.177 6.693.427 11.298 13.623 10.301 29.526"/></g><path fill="url(#p)" d="M948.329 465.211c-.855 4.51-4.367 7.643-7.785 6.978-3.418-.664-5.507-4.841-4.652-9.351s4.367-7.643 7.785-6.978c3.417.664 5.506 4.842 4.652 9.351"/><path fill="#8C3A03" d="m467.536 1001.87-54.882 4.64 20.838-281.952 65.204-5.511zM371.555 1006.8l-54.957 3.65 25.88-281.527 65.292-4.343z"/><path fill="#0C4EC0" d="m488.076 653.852 27.274 155.294H308.679l57.719-155.294z"/><path fill="url(#q)" d="m488.076 653.852 27.274 155.294H308.679l57.719-155.294z"/><path fill="url(#r)" d="m549.093 622.864-71.592-67.385 41.228-43.802 71.592 67.385z"/><path fill="#072F73" d="m316.405 997.424 55.5.317c.74 3.379 3.066 15.539 16.28 16.389 24.949 1.69 14.906 13.63 14.906 13.63h-91.443z"/><path fill="#0096FA" fill-rule="evenodd" d="M496.004 564.246q.998.066 2.011.066c16.64 0 30.129-13.489 30.129-30.129 0-16.639-13.489-30.128-30.129-30.128-1.675 0-3.318.136-4.918.399l-139.171-.399L366.4 653.852h121.678z" clip-rule="evenodd"/><path fill="#0096FA" d="m534.443 609.074 18.85-115.687 59.285 10.171-16.964 98.878-46.469 20.449z"/><path fill="#072F73" d="m412.313 997.424 55.501.317c.74 3.379 3.066 15.539 16.28 16.389 24.949 1.69 14.905 13.63 14.905 13.63h-91.443z"/><path fill="#8C3A03" d="m468.857 675.937-18.126-13.214 28.5 6.28 2.484-4.73-25.762-10.283 34.851.245.844-5.771-34.511-6.179 28.831-4.434-.127-5.863-46.784-2.302.982-14.402h-8.465L424 628.65l-15.288-.707-12.848 36.243 46.504 6.122 23.527 10.049z"/><path fill="#0096FA" d="M351.136 651.766c-13.594 9.596-32.393 6.355-41.989-7.239s-6.354-32.393 7.24-41.989 32.393-6.354 41.989 7.24 6.354 32.393-7.24 41.988"/><path fill="#0096FA" fill-rule="evenodd" d="M327.176 526.668c3.339-13.003 15.139-22.613 29.184-22.613 16.639 0 30.128 13.489 30.128 30.129 0 3.558-.617 6.971-1.749 10.14l-22.229 93.817-58.531-13.868 23.131-97.62z" clip-rule="evenodd"/><path fill="#0096FA" d="m341.816 598.048 75.935 19.768-9.465 59.734-81.666-21.287z"/><path fill="#141414" d="M424.113 494.986c40.934-8.296 67.392-48.204 59.096-89.137s-48.204-67.392-89.137-59.096-67.392 48.204-59.096 89.137 48.204 67.392 89.137 59.096"/><path fill="#0096FA" d="M565.669 628.058c-16.698 0-30.234-13.536-30.234-30.234s13.536-30.234 30.234-30.234 30.235 13.536 30.235 30.234-13.537 30.234-30.235 30.234"/><path fill="#8C3A03" fill-rule="evenodd" d="m587.677 431.327 32.737-11.988-1.209 9.309 16.523 4.473-1.507 8.731-16.561-1.303-.095.731 16.518 2.801-.933 11.363-17.306-.915-.041.314-17.06 46.57-28.127-5.072 6.917-14.294z" clip-rule="evenodd"/><path fill="#8C3A03" d="m608.494 455.37-.101 13.838 23.761-4.58-.643-7.785z"/><path fill="#072F73" d="m605.008 430.67 8.436-20.804.369.113.033-.109 2.381.79 2.4.689-.019.101.369.113-4.684 21.956-2.242-.699z"/><path fill="#1968F0" d="m610.279 414.45 4.368 1.352 4.375 1.33-6.229 27.808-4.223-1.284-4.513-1.384-4.216-1.306z"/><path fill="#072F73" d="M642.79 408.722c-18.398 9.759-41.123 2.946-50.758-15.218-9.634-18.163-2.53-40.799 15.868-50.558 18.399-9.759 41.124-2.946 50.758 15.218 9.635 18.163 2.53 40.799-15.868 50.558"/><path fill="url(#s)" d="M640.458 404.328c-16.206 8.596-36.11 2.808-44.457-12.929s-1.976-35.462 14.23-44.058 36.11-2.808 44.457 12.928 1.977 35.462-14.23 44.059"/><path fill="#8C3A03" d="m616.797 429.049 1.947-11.218 14.841 6.245-1.93 7.138zM587.19 437.387l-3.274-11.137 25.982-8.425 1.035 7.721zM449.366 408.243l-47.173 9.561-3.181 4.392 10.739 90.294 34.884-7.069-1.702-14.453 15.952-3.233c1.263-1.742 1.919-2.651 3.181-4.393l-8.544-72.128z"/><path fill="#8C3A03" d="m402.349 478.837 9.869-2.001-3.145-15.517-13.407 2.717 2.428 11.98c.465 1.973 2.331 3.211 4.255 2.821"/><path fill="url(#t)" d="m417.236 506.061-8.132 1.648-3.466-29.539 9.186-1.862z"/><path fill="url(#u)" d="m431.138 498.462 12.29-2.491-.572-5.053-12.351 2.503z"/><path fill="#141414" fill-rule="evenodd" d="M442.703 449.669a.955.955 0 0 1 1.33.234l11.631 16.576a.955.955 0 0 1-.592 1.484l-8.752 1.774a.955.955 0 0 1-.379-1.872l7.322-1.484-10.793-15.382a.954.954 0 0 1 .233-1.33" clip-rule="evenodd"/><defs><linearGradient id="b" x1="456.04" x2="888.732" y1="-130.476" y2="798.518" gradientUnits="userSpaceOnUse"><stop stop-color="#fff"/><stop offset=".148" stop-color="#F7FAFE"/><stop offset=".304" stop-color="#E2ECFD"/><stop offset=".516" stop-color="#FAFCFF"/><stop offset=".97" stop-color="#C5D9FB"/></linearGradient><linearGradient id="d" x1="748.686" x2="722.16" y1="115.718" y2="50.086" gradientUnits="userSpaceOnUse"><stop stop-color="#0D4FC1"/><stop offset=".483" stop-color="#135CD8"/><stop offset="1" stop-color="#1A69F1"/></linearGradient><linearGradient id="f" x1="604.725" x2="600.037" y1="136.894" y2="137.948" gradientUnits="userSpaceOnUse"><stop offset=".011" stop-color="#0012FF" stop-opacity=".2"/><stop offset=".52" stop-color="#0012FF" stop-opacity="0"/></linearGradient><linearGradient id="g" x1="611.259" x2="615.947" y1="136.894" y2="137.948" gradientUnits="userSpaceOnUse"><stop offset=".011" stop-color="#0012FF" stop-opacity=".2"/><stop offset=".52" stop-color="#0012FF" stop-opacity="0"/></linearGradient><linearGradient id="h" x1="509.096" x2="1005.46" y1="199.584" y2="670.074" gradientUnits="userSpaceOnUse"><stop stop-color="#1968F0"/><stop offset=".291" stop-color="#125BD8"/><stop offset=".589" stop-color="#0E51C6"/><stop offset=".805" stop-color="#0C4EC0"/></linearGradient><linearGradient id="j" x1="931.6" x2="921.2" y1="489.053" y2="477.254" gradientUnits="userSpaceOnUse"><stop offset=".429" stop-opacity="0"/><stop offset="1" stop-opacity=".5"/></linearGradient><linearGradient id="k" x1="912.691" x2="933.128" y1="477.214" y2="439.818" gradientUnits="userSpaceOnUse"><stop offset=".507" stop-opacity="0"/><stop offset=".883" stop-opacity=".5"/></linearGradient><linearGradient id="l" x1="932.894" x2="944.849" y1="482.013" y2="471.96" gradientUnits="userSpaceOnUse"><stop offset=".367" stop-opacity="0"/><stop offset=".884" stop-opacity=".5"/></linearGradient><linearGradient id="m" x1="917.184" x2="908.888" y1="477.918" y2="471.331" gradientUnits="userSpaceOnUse"><stop offset=".367" stop-opacity="0"/><stop offset=".928" stop-opacity=".5"/></linearGradient><linearGradient id="n" x1="942.532" x2="922.143" y1="471.453" y2="471.453" gradientUnits="userSpaceOnUse"><stop stop-color="#E0E0E0"/><stop offset=".233" stop-color="#D9D9D9"/><stop offset=".582" stop-color="#C4C4C4"/><stop offset="1" stop-color="#A3A3A3"/></linearGradient><linearGradient id="p" x1="946.833" x2="934.774" y1="456.935" y2="474.9" gradientUnits="userSpaceOnUse"><stop stop-color="#E0E0E0"/><stop offset=".233" stop-color="#D9D9D9"/><stop offset=".582" stop-color="#C4C4C4"/><stop offset="1" stop-color="#A3A3A3"/></linearGradient><linearGradient id="q" x1="412.368" x2="398.112" y1="639.369" y2="754.76" gradientUnits="userSpaceOnUse"><stop offset=".068" stop-color="#072F73"/><stop offset=".705" stop-color="#0C4EC0" stop-opacity="0"/></linearGradient><linearGradient id="r" x1="491.671" x2="613.298" y1="534.672" y2="562.739" gradientUnits="userSpaceOnUse"><stop offset=".295" stop-color="#0096FA"/><stop offset=".753" stop-color="#072F73"/><stop offset="1" stop-color="#0096FA"/></linearGradient><linearGradient id="s" x1="595.877" x2="655.673" y1="347.268" y2="405.24" gradientUnits="userSpaceOnUse"><stop stop-color="#fff"/><stop offset=".315" stop-color="#FCFDFF"/><stop offset=".55" stop-color="#F2F7FE"/><stop offset=".759" stop-color="#E2ECFD"/><stop offset=".952" stop-color="#CCDDFB"/><stop offset="1" stop-color="#C5D9FB"/></linearGradient><linearGradient id="t" x1="421.064" x2="392.822" y1="493.052" y2="487.97" gradientUnits="userSpaceOnUse"><stop offset=".184" stop-color="#8C3A03" stop-opacity="0"/><stop offset=".281" stop-color="#7F3605" stop-opacity=".164"/><stop offset=".459" stop-color="#5E2B0A" stop-opacity=".465"/><stop offset=".697" stop-color="#271A11" stop-opacity=".867"/><stop offset=".776" stop-color="#141414"/></linearGradient><linearGradient id="u" x1="432.72" x2="441.001" y1="503.438" y2="485.255" gradientUnits="userSpaceOnUse"><stop stop-color="#8C3A03" stop-opacity="0"/><stop offset=".181" stop-color="#883904" stop-opacity=".181"/><stop offset=".364" stop-color="#7C3505" stop-opacity=".364"/><stop offset=".548" stop-color="#672E08" stop-opacity=".548"/><stop offset=".734" stop-color="#4B250C" stop-opacity=".734"/><stop offset=".918" stop-color="#271A11" stop-opacity=".918"/><stop offset="1" stop-color="#141414"/></linearGradient><filter id="a" width="392.872" height="99.349" x="216.682" y="978.419" color-interpolation-filters="sRGB" filterUnits="userSpaceOnUse"><feFlood flood-opacity="0" result="BackgroundImageFix"/><feBlend in="SourceGraphic" in2="BackgroundImageFix" result="shape"/><feGaussianBlur result="effect1_foregroundBlur_10272_1624" stdDeviation="8"/></filter><filter id="c" width="218.387" height="161.003" x="596.813" y="246.838" color-interpolation-filters="sRGB" filterUnits="userSpaceOnUse"><feFlood flood-opacity="0" result="BackgroundImageFix"/><feColorMatrix in="SourceAlpha" result="hardAlpha" values="0 0 0 0 0 0 0 0 0 0 0 0 0 0 0 0 0 0 127 0"/><feOffset dy="1.806"/><feGaussianBlur stdDeviation="5.417"/><feColorMatrix values="0 0 0 0 0.374547 0 0 0 0 0.481553 0 0 0 0 0.601935 0 0 0 0.15 0"/><feBlend in2="BackgroundImageFix" result="effect1_dropShadow_10272_1624"/><feBlend in="SourceGraphic" in2="effect1_dropShadow_10272_1624" result="shape"/></filter><filter id="i" width="320.965" height="88.98" x="673.01" y="433.46" color-interpolation-filters="sRGB" filterUnits="userSpaceOnUse"><feFlood flood-opacity="0" result="BackgroundImageFix"/><feColorMatrix in="SourceAlpha" result="hardAlpha" values="0 0 0 0 0 0 0 0 0 0 0 0 0 0 0 0 0 0 127 0"/><feOffset dy="1.358"/><feGaussianBlur stdDeviation="4.073"/><feColorMatrix values="0 0 0 0 0.374547 0 0 0 0 0.481553 0 0 0 0 0.601935 0 0 0 0.15 0"/><feBlend in2="BackgroundImageFix" result="effect1_dropShadow_10272_1624"/><feBlend in="SourceGraphic" in2="effect1_dropShadow_10272_1624" result="shape"/></filter><clipPath id="e"><path fill="#fff" d="M598.999 122h18v18h-18z"/></clipPath></defs></svg>