<svg xmlns="http://www.w3.org/2000/svg" width="1080" height="1080" fill="none"><g clip-path="url(#a)"><path fill="#35DE90" d="M606.5 952c243.834 0 441.5-197.666 441.5-441.5S850.334 69 606.5 69 165 266.666 165 510.5 362.666 952 606.5 952"/><path fill="#F5F5F5" d="M950.5 186c53.85 0 97.5-43.652 97.5-97.5S1004.35-9 950.5-9C896.652-9 853 34.652 853 88.5s43.652 97.5 97.5 97.5"/><path stroke="#A3A3A3" stroke-dasharray="12 12" stroke-width="2" d="M95.5 45.5H252V210h87.5v112h-36v174h-223v278h105"/><g filter="url(#b)" opacity=".1"><path fill="#0A0F1A" d="M985.612 1005.36c0 20.08-87.217 36.35-194.806 36.35-107.588 0-194.806-16.27-194.806-36.35 0-20.083 87.218-36.36 194.806-36.36s194.806 16.277 194.806 36.36"/></g><path fill="#0096FA" d="M605.547 347.634h-21.772c-4.354 0-7.775-3.421-7.775-7.776v-34.057c0-4.354 3.421-7.776 7.775-7.776h21.772c4.354 0 7.776 3.422 7.776 7.776v34.057c0 4.355-3.422 7.776-7.776 7.776M605.547 453.382h-21.772c-4.354 0-7.775-3.421-7.775-7.775v-69.514c0-4.355 3.421-7.776 7.775-7.776h21.772c4.354 0 7.776 3.421 7.776 7.776v69.514c0 4.354-3.422 7.775-7.776 7.775M988.731 499.881h-21.772c-4.354 0-7.775-3.421-7.775-7.775v-69.514c0-4.355 3.421-7.776 7.775-7.776h21.772c4.355 0 7.776 3.421 7.776 7.776v69.514c0 4.354-3.577 7.775-7.776 7.775"/><path fill="url(#c)" d="M919.839 1004.91H652.358c-28.77 0-52.097-23.324-52.097-52.094V255.187c0-28.77 23.327-52.097 52.097-52.097h267.481c28.77 0 52.097 23.327 52.097 52.097v697.629c-.155 28.77-23.327 52.094-52.097 52.094"/><path fill="#fff" d="M790.656 410.57c0-7.989-6.476-14.465-14.465-14.465H643.843c-7.988 0-14.464 6.476-14.464 14.465v19.517a4.82 4.82 0 0 0 4.822 4.822h141.99c7.989 0 14.465-6.476 14.465-14.464z"/><path fill="#B2DFFD" d="M765.117 463.837c0-7.989 6.476-14.464 14.464-14.464h146.9c7.988 0 14.464 6.475 14.464 14.464v19.517a4.82 4.82 0 0 1-4.822 4.822H779.581c-7.988 0-14.464-6.476-14.464-14.464zM765.116 593.412c0-7.988 6.475-14.464 14.464-14.464h146.899c7.988 0 14.464 6.476 14.464 14.464v19.518a4.82 4.82 0 0 1-4.821 4.822H779.58c-7.989 0-14.464-6.476-14.464-14.465z"/><path fill="#fff" d="M848.859 517.104c0-7.988-6.476-14.464-14.464-14.464H643.842c-7.989 0-14.464 6.476-14.464 14.464v42.558a4.82 4.82 0 0 0 4.821 4.821h200.196c7.988 0 14.464-6.476 14.464-14.464z"/><path fill="url(#d)" d="M599.789 232.899c0-20.217 15.343-36.606 34.269-36.606h306.987c18.927 0 34.27 16.389 34.27 36.606v12.671H599.789z"/><path fill="url(#e)" d="M975.314 962.777c0 20.217-15.342 36.606-34.269 36.606H634.058c-18.927 0-34.27-16.389-34.27-36.606v-12.671h375.526z"/><path fill="#0096FA" d="M971.916 245.774H599.789v52.229h372.127z"/><path fill="#fff" d="m949.698 270.104 5.654-5.669a.903.903 0 0 0-.07-1.209.91.91 0 0 0-1.21-.06l-5.658 5.654-5.658-5.654a.92.92 0 0 0-.656-.34.91.91 0 0 0-.692.262.9.9 0 0 0-.267.688.92.92 0 0 0 .334.659l5.655 5.658-5.655 5.669a.9.9 0 0 0-.193.987.91.91 0 0 0 1.181.491.9.9 0 0 0 .293-.197l5.658-5.658 5.658 5.658a.9.9 0 0 0 .292.197q.167.068.346.068a.905.905 0 0 0 .836-.559.905.905 0 0 0-.194-.987zM621.378 275.791a.61.61 0 0 1-.477-.226l-4.369-5.204a1.27 1.27 0 0 1 0-1.635l4.369-5.205a.635.635 0 0 1 .972.815l-4.369 5.207 4.362 5.207a.64.64 0 0 1 .09.677.63.63 0 0 1-.578.364"/><path fill="#2C2A46" fill-rule="evenodd" d="M650.076 287.567a16.32 16.32 0 0 0 15.072-10.082 16.33 16.33 0 0 0 .927-9.43 16.32 16.32 0 0 0-22.252-11.896 16.33 16.33 0 0 0-10.083 15.072 16.37 16.37 0 0 0 16.336 16.336" clip-rule="evenodd"/><g clip-path="url(#f)"><path fill="#0096FA" fill-rule="evenodd" d="M654.471 278.798c-1.257.151-2.678.2-4.265.2s-3.008-.049-4.264-.2l-.001.002-2.159 3.123a.61.61 0 0 1-.499.261.6.6 0 0 1-.494-.25c-1.155-1.599-2.326-3.667-3.09-6.164a19.6 19.6 0 0 1-.671-3.011 17.5 17.5 0 0 1-.198-2.76c0-8.117 4.63-10.718 11.376-10.718 6.738 0 11.364 2.594 11.376 10.686v.115a18 18 0 0 1-.175 2.54c-.528 3.93-2.172 7.082-3.783 9.312a.61.61 0 0 1-.994-.011l-2.159-3.123z" clip-rule="evenodd"/><path fill="url(#g)" d="M639.865 276.292c.801 2.408 1.992 4.351 2.923 5.641a.61.61 0 0 0 .994-.01l2.159-3.123c-2.96-.262-5.171-1.123-6.076-2.508"/><path fill="url(#h)" d="M660.53 276.292c-.801 2.408-1.992 4.351-2.923 5.641a.61.61 0 0 1-.994-.01l-2.159-3.123c2.96-.262 5.171-1.123 6.076-2.508"/><path fill="#000" fill-rule="evenodd" d="M652.957 274.022h1.158c-.005.37-.263.668-.579.668-.317 0-.574-.298-.579-.668M647.543 274.022h-1.158c.005.37.262.668.579.668s.573-.298.579-.668" clip-rule="evenodd"/><path fill="#0035B5" fill-rule="evenodd" d="m641.288 266.566-.125-.967 2.936-.078-.407 1.181a.89.89 0 0 1-.878.603l-.746-.028a.815.815 0 0 1-.78-.711m5.679 0 .125-.967-2.935-.078.406 1.181a.89.89 0 0 0 .879.603l.746-.028a.815.815 0 0 0 .779-.711m-3.752 5.596a.376.376 0 0 0-.375.377c0 .209.168.378.375.378h13.827a.376.376 0 0 0 .375-.378.376.376 0 0 0-.375-.377z" clip-rule="evenodd"/><path fill="#0065FF" fill-rule="evenodd" d="m654.658 274.518.11-1.63.903.062-.11 1.629z" clip-rule="evenodd"/></g><path fill="#90E6BC" d="M665.578 265.46a4.57 4.57 0 1 0 0-9.14 4.57 4.57 0 0 0 0 9.14"/><path fill="#2CC3D5" fill-rule="evenodd" d="M665.575 256.909a3.981 3.981 0 1 0 0 7.962 3.981 3.981 0 0 0 0-7.962m-5.159 3.981a5.16 5.16 0 1 1 10.319 0 5.16 5.16 0 0 1-10.319 0" clip-rule="evenodd"/><path fill="#fff" d="M672.575 271.534a3.165 3.165 0 0 1 3.165-3.165h80.178a3.165 3.165 0 1 1 0 6.33H675.74a3.165 3.165 0 0 1-3.165-3.165"/><path fill="#0096FA" d="M791.627 228.578h-43.833c-5.75 0-10.369-3.785-10.369-8.496s4.619-8.496 10.369-8.496h43.833c5.75 0 10.369 3.785 10.369 8.496s-4.619 8.496-10.369 8.496"/><path fill="#F5F5F5" d="M822.175 225.64a5.443 5.443 0 1 0 0-10.886 5.443 5.443 0 0 0 0 10.886"/><path fill="url(#i)" fill-rule="evenodd" d="M649.867 1014.7h272.146c34.524 0 62.361-27.834 62.205-62.202V243.205c0-34.368-27.836-62.205-62.205-62.205H649.867c-34.369 0-62.206 27.837-62.206 62.205v709.293c0 34.368 27.837 62.202 62.206 62.202m2.491-16.015h267.481c28.77 0 51.942-23.326 52.097-52.096v-697.63c0-28.77-23.327-52.096-52.097-52.096H652.358c-28.77 0-52.097 23.326-52.097 52.096v697.63c0 28.77 23.327 52.096 52.097 52.096" clip-rule="evenodd"/><path fill="url(#j)" d="M971.523 962.671c0 20.217-15.343 36.606-34.269 36.606H630.267c-18.927 0-34.27-16.389-34.27-36.606V950h375.526z"/><path fill="#C5D9FB" d="M183 834c35.346 0 64-28.654 64-64s-28.654-64-64-64-64 28.654-64 64 28.654 64 64 64"/><path fill="#072F73" d="M227.845 744.657H182.76v62.045h45.085z"/><path fill="#0065FF" d="M211.581 744.657H200.01v62.045h11.571z"/><path fill="#0C4EC0" d="M182.763 744.657h-45.085v62.045h45.085z"/><path fill="#0065FF" d="M165.515 744.657h-11.571v62.045h11.571zM188.874 744.764c-3.384 0-6.441-.108-8.078-.108-1.419 0-2.729-.865-3.275-2.27a3.65 3.65 0 0 1 .655-3.891c3.166-3.567 13.864-15.241 18.449-17.187 2.947-1.297 6.222-1.297 9.17-.108s5.349 3.459 6.55 6.378c1.31 2.918 1.31 6.161.109 9.079s-3.494 5.297-6.441 6.486c-2.947 1.297-10.807 1.621-17.139 1.621m12.445-17.078c-.655 0-1.201.108-1.856.324-1.419.648-5.786 4.648-10.261 9.296 6.549 0 12.335-.324 13.864-.973 1.091-.432 1.964-1.405 2.401-2.486a4.73 4.73 0 0 0 0-3.459c-.437-1.081-1.419-1.946-2.511-2.378a4.4 4.4 0 0 0-1.637-.324"/><path fill="#0065FF" d="M175.666 744.764c-6.441 0-14.191-.325-17.248-1.514-2.947-1.297-5.24-3.567-6.441-6.485s-1.201-6.162.109-9.08 3.603-5.189 6.55-6.378c2.948-1.189 6.223-1.189 9.17.109 4.585 1.945 15.283 13.619 18.449 17.186a3.65 3.65 0 0 1 .655 3.892c-.546 1.297-1.856 2.162-3.275 2.27-1.528-.108-4.476 0-7.969 0m-12.445-17.079c-.546 0-1.201.108-1.746.324-1.092.433-2.075 1.297-2.511 2.378-.437 1.081-.546 2.378 0 3.459.436 1.081 1.31 2.054 2.401 2.486 1.42.649 7.314.973 13.864.973-4.475-4.648-8.733-8.647-10.261-9.296-.546-.108-1.092-.324-1.747-.324"/><path fill="#C5D9FB" d="M303.5 553c32.309 0 58.5-26.191 58.5-58.5S335.809 436 303.5 436 245 462.191 245 494.5s26.191 58.5 58.5 58.5"/><path fill="#06F" d="M339.407 511.238h-71.486c-2.579 0-4.688-2.12-4.688-4.71V471.38c0-2.591 2.109-4.71 4.688-4.71h71.486c2.578 0 4.687 2.119 4.687 4.71v35.148c.059 2.59-2.051 4.71-4.687 4.71"/><path fill="#0035B5" d="M339.407 516.183h-71.486c-2.579 0-4.688-2.12-4.688-4.71v-36.208c0-2.59 2.109-4.71 4.688-4.71h71.486c2.578 0 4.687 2.12 4.687 4.71v36.208c.059 2.59-2.051 4.71-4.687 4.71"/><path fill="#06F" d="M340.226 524.602H267.1c-2.168 0-3.926-1.766-3.926-3.945v-.765c0-2.179 1.758-3.945 3.926-3.945h73.126c2.168 0 3.926 1.766 3.926 3.945v.765c0 2.179-1.758 3.945-3.926 3.945"/><path fill="#0096FA" d="M303.664 487.982c.938 0 1.875.059 2.812.295 1.993.53 3.223 1.766 3.575 3.827.293 1.648.176 3.238-.41 4.827-.352.942-.996 1.708-1.7 2.414-.937.883-1.933 1.766-2.871 2.649-.117.118-.293.236-.468.413-.118.117-.235.176-.352.117-.176-.059-.234-.176-.234-.353v-1.413c0-.353 0-.353-.352-.353-.996 0-1.934-.118-2.871-.471-1.699-.648-2.754-1.884-3.281-3.65-.411-1.472-.469-2.944-.118-4.475.41-1.766 1.524-2.885 3.282-3.414.937-.295 1.992-.413 2.988-.413"/><path fill="#C5D9FB" d="M85.5 568c36.175 0 65.5-29.325 65.5-65.5S121.675 437 85.5 437 20 466.325 20 502.5 49.325 568 85.5 568"/><path fill="#0035B5" fill-rule="evenodd" d="M32.011 490.677a2.934 2.934 0 0 0 0 5.867h4.635l1.983 15.321a13.605 13.605 0 0 0 12.988 11.849l12.428.461a14.9 14.9 0 0 0 14.641-10.043l6.052-17.588h2.407l6.052 17.588a14.9 14.9 0 0 0 14.641 10.043l12.428-.461a13.605 13.605 0 0 0 12.989-11.849l1.983-15.321h5.046a2.934 2.934 0 0 0 0-5.867z" clip-rule="evenodd"/><path fill="#0065FF" fill-rule="evenodd" d="m121.614 508.996.86-12.673 7.077.48-.86 12.674z" clip-rule="evenodd"/><g filter="url(#k)"><path fill="#fff" d="M393.333 191.729c0-6.146-4.986-11.128-11.137-11.128h-239.06c-6.15 0-11.136 4.982-11.136 11.128v48.965c0 1.23.997 2.226 2.227 2.226h247.969c6.151 0 11.137-4.982 11.137-11.128z"/></g><path fill="#0096FA" d="M180.496 229.131c9.059 0 16.403-7.503 16.403-16.759s-7.344-16.76-16.403-16.76-16.403 7.503-16.403 16.76c0 9.256 7.344 16.759 16.403 16.759"/><path fill="#E0E0E0" fill-rule="evenodd" d="M214.728 204.04c0-1.922 1.857-3.48 4.147-3.48h148.941c2.29 0 4.146 1.558 4.146 3.48s-1.856 3.48-4.146 3.48H218.875c-2.29 0-4.147-1.558-4.147-3.48M214.728 219.62c0-1.922 1.857-3.48 4.147-3.48H319.41c2.29 0 4.147 1.558 4.147 3.48s-1.857 3.48-4.147 3.48H218.875c-2.29 0-4.147-1.558-4.147-3.48" clip-rule="evenodd"/><g filter="url(#l)"><path fill="#fff" d="M478.333 304.128c0-6.146-4.986-11.128-11.137-11.128h-239.06c-6.15 0-11.136 4.982-11.136 11.128v48.965c0 1.23.997 2.226 2.227 2.226h247.969c6.151 0 11.137-4.982 11.137-11.128z"/></g><path fill="#0096FA" d="M265.496 341.53c9.059 0 16.403-7.503 16.403-16.76 0-9.256-7.344-16.759-16.403-16.759s-16.403 7.503-16.403 16.759 7.344 16.76 16.403 16.76"/><path fill="#E0E0E0" fill-rule="evenodd" d="M299.729 316.439c0-1.922 1.857-3.48 4.147-3.48h148.941c2.29 0 4.146 1.558 4.146 3.48s-1.856 3.48-4.146 3.48H303.876c-2.29 0-4.147-1.558-4.147-3.48M299.729 332.019c0-1.922 1.857-3.48 4.147-3.48h100.535c2.29 0 4.146 1.558 4.146 3.48s-1.856 3.48-4.146 3.48H303.876c-2.29 0-4.147-1.558-4.147-3.48" clip-rule="evenodd"/><path fill="#0096FA" d="M80 89c28.166 0 51-22.833 51-51s-22.834-51-51-51S29 9.833 29 38s22.834 51 51 51"/><path fill="url(#m)" d="M80 39.338c10.339 0 18.72-7.66 18.72-17.108S90.34 5.123 80 5.123c-10.34 0-18.722 7.659-18.722 17.107s8.382 17.108 18.721 17.108"/><path fill="url(#n)" d="M80 89.416c14.756 0 27.99-6.225 37.397-16.14C111.956 57.875 97.292 46.808 80 46.808S48.09 57.875 42.603 73.276C52.01 83.191 65.29 89.416 80 89.416"/><path fill="#C9C9C9" d="M275.922 20.627a6.23 6.23 0 0 0-4.356-1.827h-30.133c-1.636.013-3.2.67-4.356 1.827a6.01 6.01 0 0 0-1.764 4.25 8.8 8.8 0 0 0 2.338 5.887l12.75 13.685a2.9 2.9 0 0 1 .743 1.955l.404 6.226a3.486 3.486 0 0 0 3.464 3.57c.276-.005.546-.078.786-.213l3.825-2.125a5.91 5.91 0 0 0 3.251-5.376v-2.125c0-.706.275-1.384.765-1.891l11.667-13.664a8.77 8.77 0 0 0 2.443-5.907 6 6 0 0 0-1.827-4.272m-14.599 21.675a5.87 5.87 0 0 0-1.572 4.017v2.125a2.81 2.81 0 0 1-1.615 2.486l-3.4 1.955a.8.8 0 0 1 0-.383l-.425-6.226a5.87 5.87 0 0 0-1.573-4.016l-11.666-12.453h13.94a1.593 1.593 0 1 0 0-3.187h-16.193a6.2 6.2 0 0 1-.318-1.743c0-.75.298-1.468.828-1.997a2.96 2.96 0 0 1 2.125-.893h30.112a2.95 2.95 0 0 1 2.125.893c.53.53.828 1.248.828 1.997a6.1 6.1 0 0 1-.318 1.743h-7.077a1.59 1.59 0 0 0-1.593 1.594 1.594 1.594 0 0 0 1.593 1.593h4.888z"/><path fill="#FCAA73" d="M691.56 539.04h-93.208l-7.112 7.112v175.415h68.892v-28.119h31.511l7.112-7.113V546.152z"/><path fill="url(#o)" d="M607.202 677.9h-16.045v37.217h16.045z"/><path fill="url(#p)" d="M635.735 703.29h24.315v-9.842h-24.315z"/><path fill="#F06305" fill-rule="evenodd" d="M670.706 615.619a1.27 1.27 0 0 1 1.672.654l15.713 35.893a1.27 1.27 0 0 1-1.162 1.779h-17.286a1.27 1.27 0 0 1 0-2.539h15.344l-14.935-34.115a1.27 1.27 0 0 1 .654-1.672" clip-rule="evenodd"/><path fill="#0096FA" d="M450.974 786.408c4.714-26.383 23.571-48.052 49.043-56.487l90.809-14.804h68.975l86.674 18.939a72.87 72.87 0 0 1 49.044 56.487l27.788 160.528H424.012z"/><path fill="#0096FA" d="m527.723 951.071-107.019 19.435 16.375-93.207h103.38z"/><path fill="url(#q)" d="m543.272 839.918-16.293 111.154h225.203z"/><path fill="url(#r)" d="m769.301 827.677-22.743 123.394h76.749z"/><path fill="#0096FA" d="m510.025 916.418 22.826-20.51 56.983-40.277 48.961 71.622-141.755 98.257z"/><path fill="#FCAA73" d="m594.631 862.578 87.832-16.127 41.848 13.067 25.142 18.774-7.195 7.03-15.962-6.865 17.616 17.037-9.346 6.368-39.284-24.976 24.645 28.036-7.443 5.459-29.856-19.601 18.195 20.097-6.451 5.293-29.277-19.022-25.308 10.586-16.789-3.39z"/><path fill="#666" d="M694.041 928.741h232.646c4.797 0 8.353 4.384 7.444 9.098l-1.489 7.526c-.662 3.556-3.805 6.202-7.444 6.202H692.552c-4.797 0-8.353-4.383-7.443-9.097l1.488-7.526a7.54 7.54 0 0 1 7.444-6.203"/><path fill="url(#s)" d="M1046.69 780.453H824.713c-6.368 0-11.826 4.548-13.067 10.751l-28.037 144.484c-1.571 8.188 4.714 15.797 13.068 15.797h221.973c6.37 0 11.83-4.549 13.07-10.752l28.04-144.484c1.57-8.188-4.72-15.796-13.07-15.796"/><path fill="#0096FA" d="M470.409 1032.95c28.183 0 51.029-22.85 51.029-51.029 0-28.183-22.846-51.029-51.029-51.029-28.182 0-51.028 22.846-51.028 51.029 0 28.179 22.846 51.029 51.028 51.029"/><path fill="#000" d="M590.165 568.482h108.507l15.549-35.728-124.553 4.88z"/><path fill="#000" d="M600.006 681.952h-8.849l-.992-117.687h22.33z"/><path fill="#FCAA73" d="M592.563 654.991h21.421l3.06-30.6h-31.428v23.653c0 3.887 3.06 6.947 6.947 6.947"/></g><defs><linearGradient id="c" x1="464.884" x2="991.51" y1="-41.002" y2="1089.41" gradientUnits="userSpaceOnUse"><stop stop-color="#fff"/><stop offset=".148" stop-color="#F7FAFE"/><stop offset=".304" stop-color="#E2ECFD"/><stop offset=".678" stop-color="#FAFCFF"/><stop offset=".967" stop-color="#C5D9FB"/></linearGradient><linearGradient id="d" x1="820.687" x2="788.401" y1="252.367" y2="172.504" gradientUnits="userSpaceOnUse"><stop stop-color="#0D4FC1"/><stop offset=".483" stop-color="#135CD8"/><stop offset="1" stop-color="#1A69F1"/></linearGradient><linearGradient id="e" x1="754.417" x2="786.702" y1="943.309" y2="1023.17" gradientUnits="userSpaceOnUse"><stop stop-color="#0D4FC1"/><stop offset=".483" stop-color="#135CD8"/><stop offset="1" stop-color="#1A69F1"/></linearGradient><linearGradient id="g" x1="646.068" x2="640.138" y1="278.233" y2="279.557" gradientUnits="userSpaceOnUse"><stop offset=".011" stop-color="#0012FF" stop-opacity=".2"/><stop offset=".52" stop-color="#0012FF" stop-opacity="0"/></linearGradient><linearGradient id="h" x1="654.327" x2="660.257" y1="278.233" y2="279.557" gradientUnits="userSpaceOnUse"><stop offset=".011" stop-color="#0012FF" stop-opacity=".2"/><stop offset=".52" stop-color="#0012FF" stop-opacity="0"/></linearGradient><linearGradient id="i" x1="529.197" x2="1133.23" y1="354.425" y2="926.829" gradientUnits="userSpaceOnUse"><stop stop-color="#1968F0"/><stop offset=".291" stop-color="#125BD8"/><stop offset=".589" stop-color="#0E51C6"/><stop offset=".805" stop-color="#0C4EC0"/></linearGradient><linearGradient id="j" x1="750.626" x2="782.911" y1="943.203" y2="1023.07" gradientUnits="userSpaceOnUse"><stop stop-color="#0D4FC1"/><stop offset=".483" stop-color="#135CD8"/><stop offset="1" stop-color="#1A69F1"/></linearGradient><linearGradient id="m" x1="61.277" x2="98.734" y1="22.209" y2="22.209" gradientUnits="userSpaceOnUse"><stop stop-color="#C5D9FB"/><stop offset=".134" stop-color="#D6E3F9"/><stop offset=".321" stop-color="#E8EDF7"/><stop offset=".525" stop-color="#F2F3F5"/><stop offset=".772" stop-color="#F5F5F5"/></linearGradient><linearGradient id="n" x1="42.631" x2="117.382" y1="68.101" y2="68.101" gradientUnits="userSpaceOnUse"><stop stop-color="#C5D9FB"/><stop offset=".134" stop-color="#D6E3F9"/><stop offset=".321" stop-color="#E8EDF7"/><stop offset=".525" stop-color="#F2F3F5"/><stop offset=".772" stop-color="#F5F5F5"/></linearGradient><linearGradient id="o" x1="614.154" x2="571.236" y1="700.172" y2="689.694" gradientUnits="userSpaceOnUse"><stop stop-color="#F8BC9A" stop-opacity="0"/><stop offset=".107" stop-color="#F7B48D" stop-opacity=".138"/><stop offset=".303" stop-color="#F6A06C" stop-opacity=".391"/><stop offset=".565" stop-color="#F38035" stop-opacity=".729"/><stop offset=".776" stop-color="#F06305"/></linearGradient><linearGradient id="p" x1="637.645" x2="658.664" y1="713.319" y2="682.606" gradientUnits="userSpaceOnUse"><stop stop-color="#F8BC9A" stop-opacity="0"/><stop offset=".162" stop-color="#F8BA96" stop-opacity=".162"/><stop offset=".326" stop-color="#F7B28A" stop-opacity=".326"/><stop offset=".492" stop-color="#F6A675" stop-opacity=".492"/><stop offset=".658" stop-color="#F59559" stop-opacity=".658"/><stop offset=".825" stop-color="#F37F34" stop-opacity=".825"/><stop offset=".99" stop-color="#F06508" stop-opacity=".99"/><stop offset="1" stop-color="#F06305"/></linearGradient><linearGradient id="q" x1="672.641" x2="582.664" y1="857.567" y2="994.696" gradientUnits="userSpaceOnUse"><stop offset=".276" stop-color="#0096FA"/><stop offset=".387" stop-color="#0093F6"/><stop offset=".502" stop-color="#0189E9"/><stop offset=".62" stop-color="#0279D5"/><stop offset=".738" stop-color="#0363B8"/><stop offset=".856" stop-color="#054793"/><stop offset=".942" stop-color="#072F73"/></linearGradient><linearGradient id="r" x1="867.834" x2="713.323" y1="842.005" y2="944.316" gradientUnits="userSpaceOnUse"><stop offset=".46" stop-color="#0096FA"/><stop offset=".551" stop-color="#0189EA"/><stop offset=".729" stop-color="#0369BF"/><stop offset=".976" stop-color="#07347A"/><stop offset="1" stop-color="#072F73"/></linearGradient><linearGradient id="s" x1="789.935" x2="1068.01" y1="942.644" y2="780.782" gradientUnits="userSpaceOnUse"><stop stop-color="#A3A3A3"/><stop offset=".23" stop-color="#BCBCBC"/><stop offset=".488" stop-color="#D0D0D0"/><stop offset=".745" stop-color="#DCDCDC"/><stop offset="1" stop-color="#E0E0E0"/></linearGradient><filter id="b" width="421.612" height="104.713" x="580" y="953" color-interpolation-filters="sRGB" filterUnits="userSpaceOnUse"><feFlood flood-opacity="0" result="BackgroundImageFix"/><feBlend in="SourceGraphic" in2="BackgroundImageFix" result="shape"/><feGaussianBlur result="effect1_foregroundBlur_10272_1625" stdDeviation="8"/></filter><filter id="k" width="277.623" height="78.609" x="123.855" y="173.813" color-interpolation-filters="sRGB" filterUnits="userSpaceOnUse"><feFlood flood-opacity="0" result="BackgroundImageFix"/><feColorMatrix in="SourceAlpha" result="hardAlpha" values="0 0 0 0 0 0 0 0 0 0 0 0 0 0 0 0 0 0 127 0"/><feOffset dy="1.358"/><feGaussianBlur stdDeviation="4.073"/><feColorMatrix values="0 0 0 0 0.374547 0 0 0 0 0.481553 0 0 0 0 0.601935 0 0 0 0.15 0"/><feBlend in2="BackgroundImageFix" result="effect1_dropShadow_10272_1625"/><feBlend in="SourceGraphic" in2="effect1_dropShadow_10272_1625" result="shape"/></filter><filter id="l" width="277.623" height="78.609" x="208.855" y="286.212" color-interpolation-filters="sRGB" filterUnits="userSpaceOnUse"><feFlood flood-opacity="0" result="BackgroundImageFix"/><feColorMatrix in="SourceAlpha" result="hardAlpha" values="0 0 0 0 0 0 0 0 0 0 0 0 0 0 0 0 0 0 127 0"/><feOffset dy="1.358"/><feGaussianBlur stdDeviation="4.073"/><feColorMatrix values="0 0 0 0 0.374547 0 0 0 0 0.481553 0 0 0 0 0.601935 0 0 0 0.15 0"/><feBlend in2="BackgroundImageFix" result="effect1_dropShadow_10272_1625"/><feBlend in="SourceGraphic" in2="effect1_dropShadow_10272_1625" result="shape"/></filter><clipPath id="a"><path fill="#fff" d="M0 0h1080v1080H0z"/></clipPath><clipPath id="f"><path fill="#fff" d="M638.83 259.281h22.752v22.904H638.83z"/></clipPath></defs></svg>