<svg width="1080" height="1080" fill="none" xmlns="http://www.w3.org/2000/svg"><path fill-rule="evenodd" clip-rule="evenodd" d="M685.742 336.108c6.291-5.389 15.761-4.658 21.15 1.634 44.969 52.498 57.248 98.799 51.366 136.472-5.804 37.171-28.853 62.924-48.758 75.474-7.007 4.419-16.27 2.32-20.688-4.687-4.419-7.008-2.32-16.271 4.687-20.689 13.93-8.783 30.88-27.581 35.118-54.726 4.16-26.644-3.478-64.426-44.509-112.328-5.389-6.291-4.658-15.761 1.634-21.15Zm-294.858 0c-6.292-5.389-15.761-4.658-21.151 1.634-44.968 52.498-57.247 98.799-51.365 136.472 5.803 37.171 28.853 62.924 48.757 75.474 7.008 4.419 16.27 2.32 20.689-4.687 4.418-7.008 2.319-16.271-4.688-20.689-13.929-8.783-30.879-27.581-35.118-54.726-4.16-26.644 3.478-64.426 44.51-112.328 5.389-6.291 4.657-15.761-1.634-21.15Z" fill="#CB9685"/><path d="M443.953 126.629a1.305 1.305 0 1 0 0-2.61 1.305 1.305 0 0 0 0 2.61Z" fill="#E7EEF1"/><path fill-rule="evenodd" clip-rule="evenodd" d="M442.648 108.618a2.35 2.35 0 1 0 0 4.699 2.35 2.35 0 0 0 0-4.699Zm-2.871 2.349a2.871 2.871 0 1 1 5.742 0 2.871 2.871 0 0 1-5.742 0Z" fill="#E7EEF1"/><path d="m434.94 112.726-2.06-2.266a1.08 1.08 0 0 0-1.525-.072l-2.265 2.06a1.08 1.08 0 0 0-.073 1.525l2.061 2.266c.4.44 1.083.473 1.524.072l2.266-2.06a1.08 1.08 0 0 0 .072-1.525Z" fill="#E7EEF1"/><g opacity=".2" filter="url(#blip-ideas-1__a)"><path d="M858.563 965.31c0 11.666-145.305 21.124-324.548 21.124s-324.548-9.458-324.548-21.124c0-11.667 145.305-21.125 324.548-21.125s324.548 9.458 324.548 21.125Z" fill="#0A0F1A"/></g><path d="M811.33 773.991c36.773 10.096 108.012-35.854 106.832-91.627-1.462-57.575-53.81-100.851-60.388-158.261-7.31-63.523 63.143-110.292 77.987-172.559 15.687-65.488-16.868-143.636-67.473-189.477-43.126-39.074-114.478-61.121-172.504-51.135-70.565 12.116-113.072 88.572-182.4 106.144-56.227 14.298-113.804-1.364-168.681-20.137-41.608-14.298-77.2-14.353-115.772-16.372-42.451-2.292-172.954 60.03-142.704 184.183 9.671 39.893 48.862 66.033 86.196 85.079 37.335 19.046 90.638 64.451 118.077 95.448 44.644 50.152 29.632 94.302 28.113 160.553-1.518 66.251-31.768 135.504 20.804 195.534 21.31 24.503 77.594 51.462 112.96 54.246 24.74 1.964 61.119-6.44 77.425-18.228 98.172-71.054 76.525-219.491 281.528-163.391Z" fill="#B9CBD3" style="mix-blend-mode:luminosity" opacity=".16"/><path d="M647.836 856.927c.07-.6.026-1.207-.131-1.789l-2.134-5.729c-5.006-13.656-17.136-48.14-17.513-63.126-.64-25.555 3.086-69.346 5.269-84.02-4.104 2.183-8.109 5.203-12.393 5.203H465.959c-4.284 0-8.715-2.527-12.819-4.71 2.183 14.673 4.744 57.972 4.104 83.527-.378 14.986-12.507 49.47-17.513 63.126l-2.134 5.729a4.733 4.733 0 0 0-.131 1.789v.082c0 7.616 46.975 13.787 105.193 13.885 58.218.099 105.21-6.269 105.21-13.885-.017-.033-.033-.05-.033-.082Z" fill="#2CC3D5"/><path opacity=".5" d="m545.252 706.777-92.111-4.021 4.201 75.239c2.003-46.877 87.91-71.218 87.91-71.218Zm69.462 3.069s-17.234.575-35.223.575c0 0 39.786.312 44.726 20.024.378 1.871.755 3.808 1.116 5.778 1.642 9.06 3.119 18.662 3.02 24.62l4.924-58.826c-5.301 4.202-12.507 7.829-18.563 7.829Z" fill="#409BBF"/><g filter="url(#blip-ideas-1__b)"><path d="M545.01 94a60.518 60.518 0 0 0-60.517 60.516c0 14.099 6.024 25.95 13.131 37.472 6.418 10.488 13.722 15.675 18.055 27.065l29.757 7.239 28.822-7.239c4.415-11.39 11.703-16.577 18.137-27.065 7.058-11.49 13.131-23.373 13.131-37.472A60.518 60.518 0 0 0 545.01 94Z" fill="#F9B42F"/></g><path d="M525.74 219.054c-4.399-11.391-11.703-16.578-18.055-27.066-7.074-11.49-13.131-23.373-13.131-37.472a60.52 60.52 0 0 1 55.297-60.286 61.726 61.726 0 0 0-4.924-.197 60.515 60.515 0 0 0-60.516 60.516c0 14.099 6.024 25.949 13.131 37.472 6.417 10.488 13.721 15.674 18.054 27.065l29.758 7.239 4.924-1.231-24.538-6.04Z" fill="#F7AC1B"/><path d="M589.342 147.655a39.391 39.391 0 0 0-38.588-35.174 2.774 2.774 0 0 1 0-5.547 45.1 45.1 0 0 1 44.103 40.245 2.759 2.759 0 0 1-1.473 2.703c-.322.167-.675.27-1.038.301h-.312a2.779 2.779 0 0 1-1.828-.751 2.78 2.78 0 0 1-.864-1.777Z" fill="#fff"/><g opacity=".5" fill="#F5F8F9"><path d="M537.263 222.861a2.86 2.86 0 0 1-2.594-2.872v-46.975h-8.075a11.078 11.078 0 0 1-7.87-3.158 11.077 11.077 0 0 1-.174-15.668 11.074 11.074 0 0 1 7.798-3.332h2.757a11.099 11.099 0 0 1 11.096 11.095v5.499h5.432a2.855 2.855 0 0 1 2.873 2.593 2.797 2.797 0 0 1-.751 2.074 2.794 2.794 0 0 1-2.023.88h-5.531v47.09a2.783 2.783 0 0 1-1.826 2.612 2.79 2.79 0 0 1-1.112.162Zm-10.882-66.491a5.546 5.546 0 0 0-5.515 5.089 5.593 5.593 0 0 0 .32 2.283 5.61 5.61 0 0 0 5.375 3.708h8.207v-5.499a5.564 5.564 0 0 0-5.663-5.581h-2.724Z"/><path d="M553.873 222.862a2.86 2.86 0 0 1-2.594-2.873v-46.975h-5.433a2.853 2.853 0 0 1-2.872-2.61 2.77 2.77 0 0 1 1.662-2.707 2.772 2.772 0 0 1 1.095-.231h5.548v-5.515a11.095 11.095 0 0 1 11.096-11.095h2.511a11.077 11.077 0 0 1 10.406 15.205 11.09 11.09 0 0 1-5.93 6.063 11.083 11.083 0 0 1-4.23.89h-8.321v47.074a2.79 2.79 0 0 1-.87 2.021 2.77 2.77 0 0 1-2.068.753Zm2.954-55.396h8.125a5.62 5.62 0 0 0 4.195-1.726 5.61 5.61 0 0 0 1.549-4.265 5.545 5.545 0 0 0-5.515-5.088h-2.757a5.567 5.567 0 0 0-5.564 5.564v5.499l-.033.016Z"/></g><path d="M532.946 242.164v9.601a8.077 8.077 0 0 0 8.092 8.076h8.026a8.092 8.092 0 0 0 8.091-8.076v-9.601h-24.209Z" fill="#A8BFC9"/><path d="m568.793 233.514-23.307-7.222-24.243 7.222a7.23 7.23 0 0 0-5.207 2.206 7.239 7.239 0 0 0-2.031 5.278 7.37 7.37 0 0 0 7.451 6.976h47.173a7.357 7.357 0 0 0 7.418-6.976 7.233 7.233 0 0 0-2.025-5.272 7.243 7.243 0 0 0-5.197-2.212h-.032Z" fill="#B9CBD3"/><path d="M524.017 240.736a7.221 7.221 0 0 1 7.287-7.222l19.089-5.696-4.924-1.51-24.226 7.206a7.23 7.23 0 0 0-5.207 2.206 7.239 7.239 0 0 0-2.031 5.278 7.37 7.37 0 0 0 7.451 6.976h9.848a7.215 7.215 0 0 1-5.154-2.098 7.219 7.219 0 0 1-2.133-5.14Z" fill="#A8BFC9"/><path d="M574.308 219.053h-57.447a7.353 7.353 0 0 0-7.419 6.976 7.238 7.238 0 0 0 7.222 7.485h57.447a7.34 7.34 0 0 0 7.402-6.976 7.234 7.234 0 0 0-7.205-7.485Z" fill="#D2DFE6"/><path d="M519.454 226.292a7.228 7.228 0 0 1 4.454-6.687 7.221 7.221 0 0 1 2.767-.552h-9.848a7.357 7.357 0 0 0-7.418 6.976 7.238 7.238 0 0 0 7.221 7.485h10.013a7.225 7.225 0 0 1-7.189-7.222Z" fill="#B9CBD3"/><path d="M637.827 160.704a4.921 4.921 0 0 1-5.006 4.645h-9.437a4.924 4.924 0 0 1-5.089-4.645 4.939 4.939 0 0 1 2.997-4.713 4.929 4.929 0 0 1 1.927-.392h9.734a4.936 4.936 0 0 1 4.557 3.177c.234.615.341 1.271.317 1.928ZM466.8 165.349h-9.586a4.923 4.923 0 0 1-5.022-4.645 4.922 4.922 0 0 1 4.924-5.105h9.602a4.923 4.923 0 0 1 4.924 4.645 4.918 4.918 0 0 1-1.349 3.57 4.923 4.923 0 0 1-3.493 1.535Zm142.681-36.667a4.928 4.928 0 0 1 1.986-6.566l8.305-4.792a4.925 4.925 0 0 1 6.73 1.969 4.925 4.925 0 0 1-2.019 6.565l-8.305 4.793a4.925 4.925 0 0 1-6.697-1.969Zm-145.964 73.023a4.925 4.925 0 0 1 2.003-6.566l8.338-4.809a4.92 4.92 0 0 1 6.745 1.986 4.92 4.92 0 0 1-2.018 6.566l-8.338 4.759a4.92 4.92 0 0 1-5.487-.453 4.917 4.917 0 0 1-1.243-1.483Zm156.255 1.936-8.436-4.924a4.92 4.92 0 0 1 1.449-8.576 4.931 4.931 0 0 1 3.475.14l8.305 4.793a4.921 4.921 0 0 1 2.002 6.565 4.932 4.932 0 0 1-2.972 2.443 4.918 4.918 0 0 1-3.823-.441Zm-145.914-73.023-8.437-4.924a4.923 4.923 0 0 1 4.924-8.436l8.305 4.793a4.92 4.92 0 0 1 2.019 6.565 4.928 4.928 0 0 1-6.811 2.002Z" fill="#FCDA97"/><path d="M648.69 651.398c-7.534-32.285-25.901-107.918-25.901-107.918 0-3.693-22.519-5.006-72.99-6.007v-.312l-7.337.099-7.337-.099v.246c-50.487 1.002-72.99 2.315-72.99 6.008 0 0-18.383 75.632-25.9 107.918-7.255 31.103 14.165 58.579 34.468 58.579h143.486c20.336.066 41.755-27.41 34.501-58.514Z" fill="#2CC3D5"/><path fill-rule="evenodd" clip-rule="evenodd" d="M344.193 521.724c6.876-10.123 20.657-12.756 30.78-5.88 18.235 12.387 39.753 18.809 57.502 22.025 8.742 1.584 16.246 2.332 21.495 2.683 2.618.175 4.653.25 5.976.281a71.043 71.043 0 0 0 1.708.022h.02c12.215-.128 22.233 9.657 22.388 21.877.154 12.237-9.64 22.282-21.877 22.436l-.28-22.156c.28 22.156.274 22.157.268 22.157h-.045l-.078.001-.216.001h-.675c-.554-.003-1.315-.012-2.267-.034a187.261 187.261 0 0 1-7.876-.367c-6.588-.441-15.775-1.362-26.442-3.295-21.069-3.817-49.242-11.814-74.502-28.972-10.123-6.876-12.755-20.656-5.879-30.779Zm389.987-.004c6.878 10.122 4.248 23.903-5.873 30.781-25.253 17.16-53.424 25.157-74.491 28.974-10.666 1.933-19.852 2.854-26.441 3.295-3.301.22-5.972.321-7.875.367a129.229 129.229 0 0 1-2.942.034l-.217-.001-.077-.001h-.045c-.006 0-.012-.001.268-22.157l-.28 22.156c-12.237-.154-22.031-10.199-21.877-22.436.155-12.22 10.173-22.005 22.388-21.877m.037.001-.025-.001h-.017.304c.286-.001.767-.006 1.428-.022 1.324-.031 3.359-.106 5.976-.281 5.25-.351 12.752-1.099 21.493-2.683 17.747-3.216 39.259-9.638 57.486-22.022 10.122-6.878 23.903-4.248 30.78 5.873m-117.425 19.136c.006 0 .011.02-.268 22.098l.279-22.098h-.011Z" fill="#2CC3D5"/><path d="M539.321 315.374c3.326-.605 39.683-29.444 71.891 7.193 22.791 25.923 1.945 43.053 21.451 60.918 17.282 15.856 41.303 57.656 8.49 92.263-15.381 16.223 24.777 79.214-56.857 50.332-51.845-18.383-56.165-6.804-56.165-6.804l11.19-203.902Z" fill="#2C2A46"/><path d="M564.639 325.008s1.75-15.316-22.38-24.799c-24.129-9.484-82.26 3.002-81.137 52.903 1.123 49.901-52.061 52.169-37.717 89.692 14.344 37.523-25.448 42.405 11.665 72.799 37.112 30.394 101.098 22.38 100.212-29.768-.886-52.147 29.357-160.827 29.357-160.827Z" fill="#2C2A46"/><path d="M541.675 569.09c11.99 0 21.71-8.008 21.71-17.887 0-9.878-9.72-17.886-21.71-17.886s-21.71 8.008-21.71 17.886c0 9.879 9.72 17.887 21.71 17.887Z" fill="#EFB8C2"/><path d="M541.675 569.09c11.99 0 21.71-8.008 21.71-17.887 0-9.878-9.72-17.886-21.71-17.886s-21.71 8.008-21.71 17.886c0 9.879 9.72 17.887 21.71 17.887Z" fill="#CB9685"/><path fill-rule="evenodd" clip-rule="evenodd" d="M541.675 534.613c-11.521 0-20.414 7.651-20.414 16.59s8.893 16.591 20.414 16.591 20.414-7.652 20.414-16.591-8.893-16.59-20.414-16.59Zm-23.006 16.59c0-10.817 10.546-19.182 23.006-19.182s23.006 8.365 23.006 19.182c0 10.818-10.546 19.183-23.006 19.183s-23.006-8.365-23.006-19.183Z" fill="#CB9685"/><path d="M543.447 499.812h-3.522a65.507 65.507 0 0 1-14.192-1.533v41.044a14.308 14.308 0 0 0 4.181 10.126 14.294 14.294 0 0 0 10.12 4.196h3.305a14.292 14.292 0 0 0 10.158-4.234 14.315 14.315 0 0 0 4.142-10.196v-41.044a66.773 66.773 0 0 1-14.192 1.641Z" fill="#CB9685"/><path d="M525.776 509.446v11.817s3.392-5.811 15.899-5.811c12.508 0 15.964 6.48 15.964 6.48v-14.3l-31.906-.583.043 2.397Z" fill="#BF7D68"/><path d="M609.83 372.079v70.812a66.278 66.278 0 0 1-66.383 66.383h-3.521a65.51 65.51 0 0 1-14.193-1.534 66.401 66.401 0 0 1-52.19-64.806v-70.855a66.384 66.384 0 0 1 66.383-66.383h3.521a66.384 66.384 0 0 1 66.383 66.383Z" fill="#CB9685"/><path d="M475.184 424.421v30.373a10.33 10.33 0 0 1-10.152-10.348v-9.677a10.343 10.343 0 0 1 10.152-10.348Zm140.522 10.348v9.677a10.325 10.325 0 0 1-10.153 10.348v-30.373a10.349 10.349 0 0 1 10.153 10.348Z" fill="#CB9685"/><path d="M608.21 393.119s1.253 21.754 0 30.114 5.012-30.114 5.012-30.114h-5.012Z" fill="#160566"/><path d="M544.7 315.503a117.846 117.846 0 0 1 27.413-11.082 51.481 51.481 0 0 1 14.906-1.318 31.85 31.85 0 0 1 14.495 4.451 31.626 31.626 0 0 1 10.607 10.909l2.03 3.132c.627 1.08 1.231 2.16 1.836 3.262 1.296 2.16 2.29 4.45 3.413 6.675a118.654 118.654 0 0 1 5.163 14.02c1.448 4.73 2.679 9.483 4.321 13.976a42.634 42.634 0 0 0 6.848 12.356 98.207 98.207 0 0 0 10.433 10.045 99.858 99.858 0 0 1 10.153 10.996 66.974 66.974 0 0 1 7.95 12.745 46.015 46.015 0 0 1 3.651 29.422 60.03 60.03 0 0 1-14.603 25.555 61.512 61.512 0 0 0 12.961-25.922 43.675 43.675 0 0 0-4.321-27.91 57.593 57.593 0 0 0-3.672-6.2c-1.253-2.16-2.808-3.91-4.32-5.832a97.459 97.459 0 0 0-10.002-10.477 96.866 96.866 0 0 1-10.801-10.326 45.35 45.35 0 0 1-7.431-13.264c-1.728-4.731-2.938-9.526-4.321-14.192a125.455 125.455 0 0 0-4.903-13.674c-1.037-2.161-1.988-4.321-3.197-6.481-.584-1.059-1.124-2.16-1.729-3.176l-1.922-3.089a30.63 30.63 0 0 0-9.483-10.304 29.82 29.82 0 0 0-13.329-4.558 51.257 51.257 0 0 0-14.387.821 85.148 85.148 0 0 0-14.084 3.888c-4.645 1.62-9.073 3.759-13.675 5.552Z" fill="#2C2A46"/><path d="M565.244 332.59a20.856 20.856 0 0 0-7.129-15.424 45.352 45.352 0 0 0-14.884-9.094 51.412 51.412 0 0 0-17.001-3.176 76.322 76.322 0 0 0-17.281 1.447 77.515 77.515 0 0 0-16.591 5.185 56.868 56.868 0 0 0-14.516 9.224 45.365 45.365 0 0 0-15.338 29.724c-.324 2.83-.389 5.66-.605 8.749a63.203 63.203 0 0 1-1.339 8.965 52.77 52.77 0 0 1-7.15 16.655c-6.611 10.24-16.31 17.606-24.692 25.599a35.505 35.505 0 0 0-9.634 13.976 24.456 24.456 0 0 0-1.015 8.404 35.54 35.54 0 0 0 1.62 8.446 44.533 44.533 0 0 1 2.29 17.649 38.438 38.438 0 0 1-1.88 8.641 77.675 77.675 0 0 1-3.543 8.187 48.545 48.545 0 0 0 4.58-16.893 43.317 43.317 0 0 0-2.938-17.087 37.098 37.098 0 0 1-2.009-8.835c-.234-3.06.066-6.138.886-9.095a37.647 37.647 0 0 1 9.829-15.121c4.169-4.321 8.641-8.144 12.831-12.227a74.82 74.82 0 0 0 11.234-13.242 49.851 49.851 0 0 0 6.61-15.748 62.149 62.149 0 0 0 1.209-8.511c.173-2.809.195-5.876.541-8.9a50.2 50.2 0 0 1 5.292-17.282 47.393 47.393 0 0 1 11.32-14.171 58.626 58.626 0 0 1 15.294-9.548 72.074 72.074 0 0 1 17.281-5.12 77.54 77.54 0 0 1 17.844-1.102 51.529 51.529 0 0 1 17.497 3.759 46.36 46.36 0 0 1 14.776 9.937 25.657 25.657 0 0 1 5.034 7.366 17.293 17.293 0 0 1 1.577 8.663Z" fill="#2C2A46"/><path d="M535.001 302.261c-51.845-8.447-74.312 58.93-71.287 74.419 1.598 8.057 4.32 21.278 6.48 32.101 0 0 6.265 38.451 5.012 30.091a57.867 57.867 0 0 1-.475-6.027 37.997 37.997 0 0 1 2.765-15.553c3.802-9.419 8.943-20.976 8.943-20.976s34.067 5.336 64.201-8.317c30.135-13.652 42.125-57.353 42.125-57.353s-5.919-19.917-57.764-28.385Z" fill="#2C2A46"/><path d="M537.334 300.058c72.021-12.119 82.887 58.455 79.755 73.944-3.133 15.489-9.138 60.335-9.138 60.335 0-6.135-6.718-49.685-11.644-57.138-24.993-38.063-58.973-77.141-58.973-77.141Z" fill="#2C2A46"/><path d="M592.311 330.625a100.31 100.31 0 0 1-3.932 16.979 101.815 101.815 0 0 1-6.653 16.245 79.046 79.046 0 0 1-9.613 14.862 69.732 69.732 0 0 1-6.114 6.481 219.024 219.024 0 0 1-3.478 2.873c-.583.475-1.145.972-1.771 1.404l-1.901 1.21a93.172 93.172 0 0 1-33.116 12.119 118.72 118.72 0 0 1-17.433 1.793 101.877 101.877 0 0 1-17.411-.886 169.943 169.943 0 0 0 34.131-4.32 124.29 124.29 0 0 0 16.267-4.904c1.339-.475 2.613-1.059 3.931-1.62 1.318-.562 2.614-1.059 3.845-1.728l3.781-1.901c1.231-.67 2.333-1.469 3.521-2.161l1.771-1.08c.562-.388 1.08-.842 1.62-1.274l3.327-2.744c1.966-1.987 4.04-3.845 5.811-6.027a86.558 86.558 0 0 0 9.721-13.868 128.243 128.243 0 0 0 7.69-15.316 166.948 166.948 0 0 0 6.006-16.137Z" fill="#2C2A46"/><path opacity=".3" d="M929.901 447.361a8.569 8.569 0 0 1 8.569-8.569h99.71c4.73 0 8.57 3.837 8.57 8.569v64.656c0 4.732-3.84 8.569-8.57 8.569h-99.71a8.569 8.569 0 0 1-8.569-8.569v-64.656Z" fill="#C3EEF4"/><path opacity=".3" d="M936.578 455.709a8.569 8.569 0 0 1 8.569-8.569h99.713c4.73 0 8.57 3.836 8.57 8.569v64.655a8.571 8.571 0 0 1-8.57 8.569h-99.713a8.569 8.569 0 0 1-8.569-8.569v-64.655Z" fill="#C3EEF4"/><path d="M924.894 440.684a8.569 8.569 0 0 1 8.569-8.569h99.707c4.74 0 8.57 3.837 8.57 8.569v64.656a8.565 8.565 0 0 1-8.57 8.569h-99.707a8.568 8.568 0 0 1-8.569-8.569v-64.656Z" fill="#F8FBFB"/><path d="M924.894 440.684a8.569 8.569 0 0 1 8.569-8.569h99.707c4.74 0 8.57 3.837 8.57 8.569v9.793H924.894v-9.793Z" fill="#202C44"/><path d="M939.917 441.296a2.504 2.504 0 1 1-5.008 0 2.504 2.504 0 0 1 5.008 0Z" fill="#FF5A60"/><path d="M946.594 441.296a2.504 2.504 0 1 1-5.008 0 2.504 2.504 0 0 1 5.008 0Z" fill="#F9B42F"/><path d="M953.271 441.296a2.504 2.504 0 1 1-5.008 0 2.504 2.504 0 0 1 5.008 0Z" fill="#4DCB7B"/><path d="M973.382 464.27a3.777 3.777 0 0 1 3.777-3.777h52.411c2.09 0 3.78 1.691 3.78 3.777v33.067a3.777 3.777 0 0 1-3.78 3.777h-52.411a3.777 3.777 0 0 1-3.777-3.777V464.27Z" fill="#fff"/><path d="M1028.2 470.738h-12.57c-.19.054-.39.064-.58.027a1.262 1.262 0 0 1-.91-.686 1.26 1.26 0 0 1-.14-.57c0-.198.05-.393.14-.57a1.256 1.256 0 0 1 .91-.687c.19-.036.39-.027.58.027h12.57c.26.077.5.238.67.46.16.222.25.492.25.77 0 .277-.09.548-.25.77-.17.221-.41.383-.67.459Zm0 3.869h-12.57a1.275 1.275 0 0 1-1.12-.208c-.16-.12-.28-.274-.37-.451a1.26 1.26 0 0 1-.14-.57c0-.198.05-.393.14-.57.09-.177.21-.331.37-.451a1.275 1.275 0 0 1 1.12-.208h12.57c.26.076.5.237.67.459.16.222.25.492.25.77s-.09.548-.25.77c-.17.222-.41.383-.67.459Zm-23.19 18.503h-20.701a.861.861 0 0 1-.608-.251.861.861 0 0 1-.251-.608v-20.96a.86.86 0 1 1 1.719 0v20.1h19.841a.86.86 0 1 1 0 1.719Z" fill="#D2DFE6"/><path opacity=".7" d="M993.371 487.54a2.468 2.468 0 0 1-1.458-.43c-3.971-3.121-6.357-.297-6.447-.172a1.075 1.075 0 0 1-1.66-1.363c.039-.047 3.817-4.535 9.388-.202.284.133 1.238 0 2.524-2.235 2.39-4.144 6.852-6.8 7.042-6.912.24-.145.54-.186.81-.115.28.071.52.25.66.495.15.246.19.539.12.815-.08.276-.25.513-.5.657-.04.022-4.169 2.494-6.271 6.134-1.109 1.922-2.326 3.009-3.62 3.289a3.212 3.212 0 0 1-.588.039Zm-.181-2.176.034.026-.034-.026Z" fill="#2CC3D5"/><path opacity=".8" d="M984.602 487.312a1.083 1.083 0 0 1-.552-.154 1.074 1.074 0 0 1-.338-1.518c.468-.697 4.681-6.727 8.799-6.727h.047c1.036 0 2.523.429 3.74 2.304.993 1.538 2.05 2.36 3.142 2.428 1.63.099 3.01-1.444 3.01-1.457.09-.115.2-.211.33-.281a1.088 1.088 0 0 1 .84-.089c.13.043.26.114.37.208.12.093.21.209.27.339.07.13.1.271.11.416.01.145-.01.29-.06.427-.05.137-.12.262-.22.369-.08.098-2.06 2.389-4.787 2.213-1.806-.12-3.439-1.264-4.806-3.408-.568-.86-1.208-1.29-1.956-1.32h-.03c-2.253 0-5.502 3.538-7.024 5.781a1.07 1.07 0 0 1-.885.469Z" fill="#F9B42F"/><path d="M933.24 465.28v30.53a4.788 4.788 0 0 0 4.787 4.788h24.756a4.788 4.788 0 0 0 4.788-4.788v-30.53a4.788 4.788 0 0 0-4.788-4.788h-24.756a4.788 4.788 0 0 0-4.787 4.788Z" fill="#fff"/><path d="M950.395 481.468a6.465 6.465 0 0 0 0-12.93 6.465 6.465 0 1 0 0 12.93Z" fill="#F99B45"/><path fill-rule="evenodd" clip-rule="evenodd" d="M941.901 487.006c0-.782.634-1.416 1.417-1.416h14.164a1.416 1.416 0 1 1 0 2.832h-14.164a1.416 1.416 0 0 1-1.417-1.416Zm2.438 5.547c0-.782.634-1.417 1.417-1.417h9.278a1.417 1.417 0 0 1 0 2.833h-9.278a1.416 1.416 0 0 1-1.417-1.416Z" fill="#D2DFE6"/><path opacity=".3" d="M796.731 600.256a8.569 8.569 0 0 1 8.568-8.569h132.818a8.57 8.57 0 0 1 8.569 8.569v87.831a8.57 8.57 0 0 1-8.569 8.569H805.299a8.569 8.569 0 0 1-8.568-8.569v-87.831Z" fill="#C3EEF4"/><path opacity=".3" d="M805.3 610.967a8.569 8.569 0 0 1 8.568-8.569h132.818a8.57 8.57 0 0 1 8.569 8.569v87.831a8.569 8.569 0 0 1-8.569 8.569H813.868a8.568 8.568 0 0 1-8.568-8.569v-87.831Z" fill="#C3EEF4"/><path d="M790.304 591.688a8.568 8.568 0 0 1 8.569-8.569H931.69a8.568 8.568 0 0 1 8.569 8.569v87.83a8.568 8.568 0 0 1-8.569 8.569H798.873a8.568 8.568 0 0 1-8.569-8.569v-87.83Z" fill="#F8FBFB"/><path d="M790.304 591.688a8.568 8.568 0 0 1 8.569-8.569H931.69a8.568 8.568 0 0 1 8.569 8.569v14.995H790.304v-14.995Z" fill="#202C44"/><path d="M893.736 628.493v29.798a4.673 4.673 0 0 0 4.673 4.673h24.162a4.673 4.673 0 0 0 4.673-4.673v-29.798a4.673 4.673 0 0 0-4.673-4.672h-24.162a4.673 4.673 0 0 0-4.673 4.672Z" fill="#fff"/><path d="M910.481 644.293a6.31 6.31 0 1 0 0-12.62 6.31 6.31 0 1 0 0 12.62Z" fill="#F99B45"/><path fill-rule="evenodd" clip-rule="evenodd" d="M902.291 649.698c0-.708.574-1.282 1.282-1.282h13.825a1.282 1.282 0 0 1 0 2.565h-13.825a1.282 1.282 0 0 1-1.282-1.283Zm2.379 5.414c0-.708.575-1.282 1.283-1.282h9.056a1.282 1.282 0 0 1 0 2.565h-9.056a1.283 1.283 0 0 1-1.283-1.283Z" fill="#D2DFE6"/><path d="M849.518 628.493v29.798a4.673 4.673 0 0 0 4.672 4.673h24.162a4.673 4.673 0 0 0 4.673-4.673v-29.798a4.673 4.673 0 0 0-4.673-4.672H854.19a4.672 4.672 0 0 0-4.672 4.672Z" fill="#fff"/><path d="M866.262 644.293a6.31 6.31 0 1 0 0-12.62 6.31 6.31 0 0 0 0 12.62Z" fill="#2CC3D5"/><path fill-rule="evenodd" clip-rule="evenodd" d="M858.072 649.698c0-.708.574-1.282 1.283-1.282h13.824a1.282 1.282 0 1 1 0 2.564h-13.824a1.282 1.282 0 0 1-1.283-1.282Zm2.38 5.414c0-.708.574-1.282 1.282-1.282h9.056a1.282 1.282 0 0 1 0 2.565h-9.056a1.282 1.282 0 0 1-1.282-1.283Z" fill="#D2DFE6"/><path d="M805.3 628.493v29.798a4.672 4.672 0 0 0 4.672 4.672h24.162a4.673 4.673 0 0 0 4.673-4.672v-29.798a4.673 4.673 0 0 0-4.673-4.673h-24.162a4.673 4.673 0 0 0-4.672 4.673Z" fill="#fff"/><path d="M822.044 644.293a6.31 6.31 0 1 0-.001-12.621 6.31 6.31 0 0 0 .001 12.621Z" fill="#BED42B"/><path fill-rule="evenodd" clip-rule="evenodd" d="M813.855 649.698c0-.708.574-1.282 1.282-1.282h13.825a1.283 1.283 0 1 1 0 2.564h-13.825a1.282 1.282 0 0 1-1.282-1.282Zm2.379 5.414c0-.708.575-1.282 1.283-1.282h9.056a1.282 1.282 0 0 1 0 2.565h-9.056a1.284 1.284 0 0 1-1.283-1.283Z" fill="#D2DFE6"/><path d="M809.584 594.901a3.214 3.214 0 1 1-6.427-.001 3.214 3.214 0 0 1 6.427.001Z" fill="#FF5A60"/><path d="M818.153 594.901a3.214 3.214 0 1 1-6.427-.001 3.214 3.214 0 0 1 6.427.001Z" fill="#F9B42F"/><path d="M826.722 594.901a3.214 3.214 0 1 1-6.428-.002 3.214 3.214 0 0 1 6.428.002Z" fill="#4DCB7B"/><path opacity=".3" d="M192.69 571.182a6.342 6.342 0 0 1 6.342-6.342h98.299a6.342 6.342 0 0 1 6.342 6.342v65.005a6.341 6.341 0 0 1-6.342 6.341h-98.299a6.341 6.341 0 0 1-6.342-6.341v-65.005Z" fill="#C3EEF4"/><path opacity=".3" d="M199.032 579.11a6.341 6.341 0 0 1 6.342-6.342h98.299a6.342 6.342 0 0 1 6.342 6.342v65.004a6.342 6.342 0 0 1-6.342 6.342h-98.299a6.341 6.341 0 0 1-6.342-6.342V579.11Z" fill="#C3EEF4"/><path d="M187.933 564.84a6.341 6.341 0 0 1 6.342-6.341h98.299a6.341 6.341 0 0 1 6.342 6.341v65.005a6.342 6.342 0 0 1-6.342 6.342h-98.299a6.342 6.342 0 0 1-6.342-6.342V564.84Z" fill="#F8FBFB"/><path d="M187.933 564.84a6.341 6.341 0 0 1 6.342-6.341h98.299a6.341 6.341 0 0 1 6.342 6.341v11.099H187.933V564.84Z" fill="#202C44"/><path d="M202.203 567.219a2.378 2.378 0 1 1-4.757 0 2.378 2.378 0 0 1 4.757 0Z" fill="#FF5A60"/><path d="M208.545 567.219a2.379 2.379 0 1 1-4.757-.001 2.379 2.379 0 0 1 4.757.001Z" fill="#F9B42F"/><path d="M214.886 567.219a2.378 2.378 0 1 1-4.756 0 2.378 2.378 0 0 1 4.756 0Z" fill="#4DCB7B"/><path d="M291.438 585.413h-31.197a1.91 1.91 0 0 0-1.911 1.91v34.381a1.91 1.91 0 0 0 1.911 1.91h31.197a1.91 1.91 0 0 0 1.91-1.91v-34.381a1.91 1.91 0 0 0-1.91-1.91Z" fill="#fff"/><path fill-rule="evenodd" clip-rule="evenodd" d="M261.912 591.78c0-.659.534-1.194 1.193-1.194h24.672a1.195 1.195 0 0 1 0 2.388h-24.672a1.193 1.193 0 0 1-1.193-1.194Zm0 4.776c0-.659.534-1.194 1.193-1.194h24.672a1.195 1.195 0 0 1 0 2.388h-24.672a1.194 1.194 0 0 1-1.193-1.194Zm0 4.774c0-.659.534-1.194 1.193-1.194h24.672a1.195 1.195 0 0 1 0 2.388h-24.672a1.193 1.193 0 0 1-1.193-1.194Zm0 11.143c0-.66.534-1.194 1.193-1.194h24.672a1.194 1.194 0 1 1 0 2.387h-24.672a1.193 1.193 0 0 1-1.193-1.193Zm0 4.775c0-.659.534-1.194 1.193-1.194h24.672a1.195 1.195 0 0 1 0 2.388h-24.672a1.193 1.193 0 0 1-1.193-1.194Zm0-11.142c0-.66.534-1.194 1.193-1.194h14.326a1.194 1.194 0 1 1 0 2.387h-14.326a1.193 1.193 0 0 1-1.193-1.193Z" fill="#D2DFE6"/><path d="M252.441 585.414h-55.869a1.91 1.91 0 0 0-1.91 1.91v35.122a1.91 1.91 0 0 0 1.91 1.91h55.869a1.91 1.91 0 0 0 1.91-1.91v-35.122a1.91 1.91 0 0 0-1.91-1.91Z" fill="#E7EEF1"/><path fill-rule="evenodd" clip-rule="evenodd" d="M198.243 598.147c0-.659.535-1.194 1.194-1.194h3.183a1.194 1.194 0 1 1 0 2.388h-3.183a1.195 1.195 0 0 1-1.194-1.194Zm6.368 0c0-.659.534-1.194 1.193-1.194h15.918a1.194 1.194 0 0 1 0 2.388h-15.918a1.194 1.194 0 0 1-1.193-1.194Z" fill="#FF7B80"/><path fill-rule="evenodd" clip-rule="evenodd" d="M198.243 610.881c0-.66.535-1.194 1.194-1.194h3.183a1.193 1.193 0 1 1 0 2.388h-3.183a1.195 1.195 0 0 1-1.194-1.194Zm6.368 0c0-.66.534-1.194 1.193-1.194h15.918a1.193 1.193 0 0 1 0 2.388h-15.918a1.194 1.194 0 0 1-1.193-1.194Z" fill="#BED42B"/><path fill-rule="evenodd" clip-rule="evenodd" d="M198.243 617.247c0-.659.535-1.194 1.194-1.194h3.183a1.194 1.194 0 1 1 0 2.388h-3.183a1.195 1.195 0 0 1-1.194-1.194Zm6.368 0c0-.659.534-1.194 1.193-1.194h30.243a1.195 1.195 0 0 1 0 2.388h-30.243a1.194 1.194 0 0 1-1.193-1.194Z" fill="#607B99"/><path fill-rule="evenodd" clip-rule="evenodd" d="M198.243 604.514c0-.659.535-1.194 1.194-1.194h6.367a1.195 1.195 0 0 1 0 2.388h-6.367a1.195 1.195 0 0 1-1.194-1.194Zm11.142 0c0-.659.534-1.194 1.194-1.194h14.325a1.195 1.195 0 0 1 0 2.388h-14.325c-.66 0-1.194-.535-1.194-1.194Z" fill="#B97CE8"/><path d="M199.972 592.748a.297.297 0 0 1 .107.261.321.321 0 0 1-.107.268.358.358 0 0 1-.24.09h-.449a.731.731 0 0 1-.791-.785v-.807a.554.554 0 0 0-.064-.304.324.324 0 0 0-.235-.107.348.348 0 0 1-.142-.027.346.346 0 0 1-.12-.08.406.406 0 0 1-.085-.262.365.365 0 0 1 .085-.251c.07-.07.164-.11.262-.112a.337.337 0 0 0 .129-.029.339.339 0 0 0 .106-.078.53.53 0 0 0 .064-.305v-.828a.778.778 0 0 1 .214-.577.805.805 0 0 1 .577-.203h.449a.355.355 0 0 1 .24.085.392.392 0 0 1 0 .535.388.388 0 0 1-.24.085h-.085a.25.25 0 0 0-.161.048.24.24 0 0 0-.053.182v.791a.687.687 0 0 1-.144.433.606.606 0 0 1-.326.229.572.572 0 0 1 .326.225.683.683 0 0 1 .144.433v.785a.24.24 0 0 0 .053.182.244.244 0 0 0 .161.048h.085a.357.357 0 0 1 .24.075Zm4.077-.74a.415.415 0 0 1-.128.299.422.422 0 0 1-.62 0l-.636-.657-.625.663a.426.426 0 0 1-.62 0 .407.407 0 0 1-.128-.3.432.432 0 0 1 .133-.304l.673-.668-.619-.604a.443.443 0 0 1-.134-.31.417.417 0 0 1 .128-.299.39.39 0 0 1 .3-.134.407.407 0 0 1 .315.155l.577.588.582-.588a.448.448 0 0 1 .321-.149.436.436 0 0 1 .427.422.439.439 0 0 1-.139.315l-.614.604.673.668c.082.078.13.186.134.299Zm2.923-1.299a.337.337 0 0 1 .09.251.389.389 0 0 1-.09.262.36.36 0 0 1-.257.107.325.325 0 0 0-.24.107.554.554 0 0 0-.064.304v.823a.735.735 0 0 1-.209.578.717.717 0 0 1-.577.208h-.443a.381.381 0 0 1-.252-.091.348.348 0 0 1-.081-.122.34.34 0 0 1-.02-.145.315.315 0 0 1 .101-.262c.07-.06.16-.092.252-.091h.08a.237.237 0 0 0 .16-.048.244.244 0 0 0 .053-.182v-.785a.715.715 0 0 1 .139-.433.563.563 0 0 1 .326-.224.613.613 0 0 1-.326-.23.715.715 0 0 1-.139-.433v-.769a.245.245 0 0 0-.053-.182.237.237 0 0 0-.16-.048h-.08a.41.41 0 0 1-.252-.086.402.402 0 0 1 0-.534.378.378 0 0 1 .252-.085h.443a.795.795 0 0 1 .577.203.777.777 0 0 1 .209.577v.828a.518.518 0 0 0 .064.304.325.325 0 0 0 .24.107.389.389 0 0 1 .257.091Z" fill="#B9CBD3"/><path opacity=".3" d="M45.448 372.519a8.376 8.376 0 0 1 8.377-8.377h143.7a8.376 8.376 0 0 1 8.377 8.377v95.564a8.376 8.376 0 0 1-8.377 8.376h-143.7a8.376 8.376 0 0 1-8.377-8.376v-95.564Z" fill="#C3EEF4"/><path opacity=".3" d="M54.617 383.98a8.376 8.376 0 0 1 8.376-8.376h143.701a8.376 8.376 0 0 1 8.376 8.376v95.565a8.376 8.376 0 0 1-8.376 8.376h-143.7a8.376 8.376 0 0 1-8.377-8.376V383.98Z" fill="#C3EEF4"/><path d="M38.571 363.349a8.376 8.376 0 0 1 8.377-8.376h143.7a8.376 8.376 0 0 1 8.377 8.376v95.565a8.376 8.376 0 0 1-8.377 8.376h-143.7a8.376 8.376 0 0 1-8.377-8.376v-95.565Z" fill="#F8FBFB"/><path d="M38.571 363.349a8.376 8.376 0 0 1 8.377-8.376h143.7a8.376 8.376 0 0 1 8.377 8.376v16.838H38.571v-16.838Z" fill="#202C44"/><path d="M59.201 367.58a3.439 3.439 0 1 1-6.878 0 3.439 3.439 0 0 1 6.878 0Z" fill="#FF5A60"/><path d="M68.37 367.58a3.439 3.439 0 1 1-6.877 0 3.439 3.439 0 0 1 6.877 0Z" fill="#F9B42F"/><path d="M77.538 367.58a3.439 3.439 0 1 1-6.878 0 3.439 3.439 0 0 1 6.878 0Z" fill="#4DCB7B"/><path fill-rule="evenodd" clip-rule="evenodd" d="M111.67 418.204v-12.97h2.962v12.97h-2.962Zm0 24.319V426.31h2.962v16.213h-2.962Z" fill="#DEE8EC"/><path d="M90.453 394.197a3.555 3.555 0 0 1 3.555-3.555h41.529a3.554 3.554 0 0 1 3.555 3.555v9.103a3.555 3.555 0 0 1-3.555 3.555h-41.53a3.555 3.555 0 0 1-3.554-3.555v-9.103Zm0 22.698a3.555 3.555 0 0 1 3.555-3.555h41.529a3.554 3.554 0 0 1 3.555 3.555v9.103a3.555 3.555 0 0 1-3.555 3.555h-41.53a3.555 3.555 0 0 1-3.554-3.555v-9.103Zm0 22.698a3.554 3.554 0 0 1 3.555-3.554h41.529a3.554 3.554 0 0 1 3.555 3.554v9.104a3.555 3.555 0 0 1-3.555 3.555h-41.53a3.555 3.555 0 0 1-3.554-3.555v-9.104Zm-42.154 0a3.555 3.555 0 0 1 3.555-3.555h28.559a3.555 3.555 0 0 1 3.555 3.555v9.104a3.554 3.554 0 0 1-3.555 3.554h-28.56a3.554 3.554 0 0 1-3.554-3.554v-9.104Z" fill="#E7EEF1"/><path fill-rule="evenodd" clip-rule="evenodd" d="M64.652 397.127a1.48 1.48 0 0 1 1.481-1.481h29.184v2.962H67.614v11.489h-2.962v-12.97Z" fill="#DEE8EC"/><path d="M48.299 410.409a3.555 3.555 0 0 1 3.555-3.555h28.559a3.555 3.555 0 0 1 3.555 3.555v15.588a3.554 3.554 0 0 1-3.555 3.555h-28.56a3.555 3.555 0 0 1-3.554-3.555v-15.588Z" fill="#E7EEF1"/><path d="M184.769 397.127h-32.987a2.962 2.962 0 0 0-2.962 2.962v45.957a2.963 2.963 0 0 0 2.962 2.963h32.987a2.963 2.963 0 0 0 2.962-2.963v-45.957a2.962 2.962 0 0 0-2.962-2.962Z" fill="#fff"/><path d="M148.82 396.847a2.962 2.962 0 0 1 2.962-2.962h32.987a2.962 2.962 0 0 1 2.962 2.962v3.523H148.82v-3.523Z" fill="#202C44"/><path fill-rule="evenodd" clip-rule="evenodd" d="M187.731 439.577H148.82v-.593h38.911v.593Z" fill="#F5F8F9"/><path d="M161.791 428.656a2.345 2.345 0 0 1 2.345-2.346h18.007a2.346 2.346 0 0 1 2.346 2.346v3.748a.39.39 0 0 1-.391.391h-19.962a2.345 2.345 0 0 1-2.345-2.345v-1.794Z" fill="#E7EEF1"/><path d="M174.76 418.928a2.345 2.345 0 0 0-2.345-2.346h-18.007a2.346 2.346 0 0 0-2.346 2.346v3.749c0 .215.175.391.391.391h19.962a2.346 2.346 0 0 0 2.345-2.346v-1.794Z" fill="#2CC3D5"/><path fill-rule="evenodd" clip-rule="evenodd" d="M882.064 384.502a5.53 5.53 0 0 0-1.621-.574l-.678-3.769a1.917 1.917 0 0 0-2.224-1.546l-6.229 1.121c.471-1.639.71-3.336.709-5.041l5.503-.99a1.91 1.91 0 0 0 1.545-2.223 1.916 1.916 0 0 0-2.223-1.546l-5.183.933a24.913 24.913 0 0 0-1.371-5.134c-.111-.291-.24-.579-.368-.857l4.985-.897a1.917 1.917 0 0 0 1.545-2.224l-.686-3.816c.495-.299.94-.674 1.317-1.113a5.369 5.369 0 0 0-1.464-8.171 5.37 5.37 0 0 0-3.045-.668 5.378 5.378 0 0 0-4.928 5.751 5.371 5.371 0 0 0 4.35 4.879l.339 1.884-4.824.868a12.27 12.27 0 0 0-7.276-3.506l-.561-3.119a1.916 1.916 0 1 0-3.769.678l.431 2.393c-.841.035-1.694.101-2.551.206l-.91-5.06a1.917 1.917 0 0 0-2.224-1.546 1.915 1.915 0 0 0-1.546 2.224l.907 5.041c-.737.133-1.494.385-2.262.64l-.198.066-.429-2.384a1.917 1.917 0 0 0-2.224-1.546 1.914 1.914 0 0 0-1.546 2.224l.597 3.317a12.41 12.41 0 0 0-2.156 1.535 11.42 11.42 0 0 0-3.184 5.009l-4.948.89-.339-1.884a5.284 5.284 0 0 0 1.924-1.961 5.376 5.376 0 0 0-.48-5.948 5.365 5.365 0 0 0-5.678-1.834 5.375 5.375 0 0 0-3.869 4.542 5.38 5.38 0 0 0 2.715 5.314 5.747 5.747 0 0 0 1.622.584l.679 3.769a1.91 1.91 0 0 0 2.223 1.545l5.437-.978a20.894 20.894 0 0 0 .441 5.262c.054.301.109.603.217.934l-5.805 1.044a1.914 1.914 0 1 0 .678 3.769l6.361-1.144a17.557 17.557 0 0 0 2.732 4.373l-7.435 1.337a1.915 1.915 0 0 0-1.546 2.224l.679 3.769a5.377 5.377 0 0 0-2.317 6.244 5.375 5.375 0 0 0 5.528 3.714l.528-.095a5.368 5.368 0 0 0 4.222-3.891 5.374 5.374 0 0 0-1.706-5.483 5.285 5.285 0 0 0-2.486-1.167l-.339-1.885 8.584-1.544c.125-.008.248-.03.368-.066a20.933 20.933 0 0 0 10.237 1.369l.42 2.336a2.597 2.597 0 0 0 3.004 2.096l.235-.042a2.62 2.62 0 0 0 1.317-.85c1.275-1.562 2.945-3.633 4.561-5.791l.692-.913c.79-1.017 1.574-2.063 2.255-3.149l7.02-1.263.339 1.885a5.374 5.374 0 0 0-2.432 6.002 5.382 5.382 0 0 0 6.118 3.832c.174-.022.347-.053.518-.093a5.37 5.37 0 0 0 3.864-4.546 5.378 5.378 0 0 0-2.719-5.311l.033-.035Zm-9.192-32.657a1.521 1.521 0 0 1 1.125.361 1.526 1.526 0 0 1 .546 1.089 1.52 1.52 0 0 1-1.186 1.624l-.227.041a1.547 1.547 0 0 1-1.664-1.413 1.54 1.54 0 0 1 1.412-1.665l-.006-.037Zm-43.666 9.324a1.529 1.529 0 0 1 .929-.732l.151-.027c.345-.057.7.007 1.005.179.36.195.629.524.748.916.11.394.06.816-.139 1.173a1.492 1.492 0 0 1-.929.732l-.057.01-.169.03a1.483 1.483 0 0 1-.947-.18 1.54 1.54 0 0 1-.73-.919 1.59 1.59 0 0 1 .138-1.182Zm9.329 36.446a1.536 1.536 0 0 1-.785 1.463 1.539 1.539 0 0 1-2.264-1.643 1.535 1.535 0 0 1 1.147-1.2l.236-.042a1.558 1.558 0 0 1 1.666 1.422Zm25.475-12.832-.717.936a159.504 159.504 0 0 1-2.754 3.56l-.209-1.159a2.259 2.259 0 0 0-2.624-1.824c-3.345.602-8.216.292-10.644-1.47-3.043-2.206-4.391-6.02-4.984-8.832-.594-2.812-1.026-7.647 2.33-10.624 1.678-1.489 4.515-2.641 8.106-3.287a30.663 30.663 0 0 1 6.079-.49 8.499 8.499 0 0 1 8.183 5.522c1.413 3.637 2.236 8.917.331 13.035a26.714 26.714 0 0 1-3.097 4.633Zm16.776 5.163a1.536 1.536 0 0 1-1.512.79 1.543 1.543 0 0 1-1.314-1.089 1.54 1.54 0 0 1 1.068-1.904l.226-.041c.327-.041.658.022.947.18a1.537 1.537 0 0 1 .731.929c.102.383.05.791-.146 1.135Zm-24.024-21.604-5.295.953a3.468 3.468 0 0 0-2.798 4.025l.953 5.296a3.462 3.462 0 0 0 4.018 2.759l5.296-.952a3.468 3.468 0 0 0 2.797-4.025l-.946-5.258a3.464 3.464 0 0 0-4.025-2.798Zm1.68 8.687a.119.119 0 0 1-.019.086.112.112 0 0 1-.074.047l-5.296.953a.114.114 0 0 1-.133-.093l-.953-5.296a.112.112 0 0 1 .019-.085.113.113 0 0 1 .074-.048l5.296-.953a.119.119 0 0 1 .086.019.112.112 0 0 1 .047.074l.953 5.296Zm-4.102-3.482a1.51 1.51 0 0 1 2.229 1.051 1.515 1.515 0 0 1-1.722 1.763 1.514 1.514 0 0 1-.507-2.814Z" fill="#F66689"/><path fill-rule="evenodd" clip-rule="evenodd" d="M277.376 284.251a24.788 24.788 0 0 1 3.786 9.92 4.128 4.128 0 0 1-1.142 3.552 4.038 4.038 0 0 1-3.529 1.186l-6.859-1.02c.435.951.585 2.008.431 3.042a5.101 5.101 0 0 1-.901 2.32 14.428 14.428 0 0 1-3.349 2.775l-.581.388a2.142 2.142 0 0 1-2.937-.437 11.72 11.72 0 0 0-.435-.539 14.405 14.405 0 0 1-2.398-3.628 5.1 5.1 0 0 1-.187-2.482 5.324 5.324 0 0 1 1.305-2.783l-6.835-1.016a4.046 4.046 0 0 1-3.033-2.16 4.126 4.126 0 0 1-.059-3.731 24.775 24.775 0 0 1 6.47-8.364c1.682-10.605 7.307-15.929 10.534-18.157a3.599 3.599 0 0 1 4.914.73c2.472 3.075 6.269 9.783 4.805 20.404Zm-13.15 18.97a11.421 11.421 0 0 0 2.343-1.893c.174-.259.281-.559.309-.87a2.219 2.219 0 0 0-3.513-2.107c-.473.35-.787.874-.873 1.455-.068.304-.059.621.027.92.456.904 1.03 1.743 1.707 2.495Zm5.407-37.515a.369.369 0 0 0-.137.065l-.001.008c-2.279 1.575-7.734 6.303-9.196 16.36l-.031.208c-.012.145-.019.294-.027.444-.012.249-.024.503-.061.753a71.635 71.635 0 0 0-.176 7.958c.004.071.014.141.023.209.017.122.033.24.016.353l-.016.112.019.2.027.257a.52.52 0 0 1 .029.078c.01.051.018.102.026.151.021.121.04.237.064.345l10.781 1.602c1.229-2.272 2.684-8.428 3.161-10.705 1.474-9.973-2.371-16.082-4.094-18.252a.391.391 0 0 0-.407-.146Zm-15.789 26.467a.864.864 0 0 0 .377.155l2.595.369.01-.064-.027-.315a5.6 5.6 0 0 1-.023-.266l-.019-.223-.02-.363-.026-.486-.013-.403c-.001-.056-.006-.114-.01-.171-.009-.1-.017-.2-.003-.297l-.006-.451a2.762 2.762 0 0 0-.006-.13c-.005-.102-.01-.202.005-.304l.001-.506c-.025-.102-.011-.198.003-.295.01-.783.035-1.557.063-2.297a23.163 23.163 0 0 0-3.184 4.918.89.89 0 0 0 .017.82.87.87 0 0 0 .266.309Zm23.528 3.496a.89.89 0 0 0 .344-.218.883.883 0 0 0 .234-.751 23.146 23.146 0 0 0-1.617-5.631 49.165 49.165 0 0 1-1.992 6.248l2.625.39c.137.02.276.006.406-.038Zm-7.631-11.487a4.792 4.792 0 0 1-2.748.416 4.786 4.786 0 0 1-1.763-.629 4.787 4.787 0 0 1-2.192-2.946 4.81 4.81 0 0 1-.095-1.87 4.791 4.791 0 1 1 6.798 5.029Zm-.735-5.757a1.955 1.955 0 0 0-3 .424 1.962 1.962 0 0 0 .658 2.69 1.954 1.954 0 0 0 2.172-.094 1.959 1.959 0 0 0 .17-3.02Z" fill="#4AA86C"/><path d="m139.483 566.774-28.532 5.29a4.75 4.75 0 0 1-5.527-3.798l-4.085-22.034a6.206 6.206 0 0 1 4.966-7.227l10.486-1.944a4.068 4.068 0 0 1 4.743 3.253l.302 1.628 12.61-2.338a4.75 4.75 0 0 1 5.526 3.798l3.309 17.845a4.75 4.75 0 0 1-3.798 5.527Zm-32.513-24.183a2.558 2.558 0 0 0-2.045 2.976l4.086 22.034a1.096 1.096 0 0 0 1.275.877l28.533-5.291a1.094 1.094 0 0 0 .876-1.275l-3.309-17.845a1.096 1.096 0 0 0-1.275-.877l-14.403 2.671a1.826 1.826 0 0 1-1.863-.799 1.785 1.785 0 0 1-.262-.662l-.635-3.421a.423.423 0 0 0-.492-.332l-10.486 1.944Z" fill="#F9B42F"/><path d="M378.543 640.388c-.546-.934-1.157-2.208-1.194-2.612-.077-.768.269-3.532.503-5.085a8.646 8.646 0 0 0-1.135-5.843 8.65 8.65 0 0 0-4.64-3.729l.056-.348a1.76 1.76 0 0 0-1.459-2.024 1.76 1.76 0 0 0-2.024 1.459l-.057.348a8.658 8.658 0 0 0-8.496 7.242c-.254 1.563-.813 4.292-1.128 4.997-.163.371-1.146 1.387-1.959 2.099a1.106 1.106 0 0 0-.332 1.134 1.1 1.1 0 0 0 .883.784l6.449 1.047a.203.203 0 0 0-.007.043c-.302 1.864.942 3.451 2.962 3.779 2.021.328 3.703-.784 4.005-2.648l.007-.044 6.445 1.046a1.1 1.1 0 0 0 1.274-1.049 1.113 1.113 0 0 0-.153-.596Zm-9.751.294c-.16.988-1.256.86-1.474.824-.218-.035-1.299-.26-1.138-1.248l.007-.044 2.613.424-.008.044Zm-8.731-3.697c.366-.383.676-.818.92-1.289.514-1.159 1.163-4.799 1.286-5.53a6.454 6.454 0 0 1 7.394-5.325l.692.113a6.446 6.446 0 0 1 5.324 7.402c-.117.718-.642 4.365-.522 5.64.083.524.239 1.034.464 1.515l-15.558-2.526Z" fill="#B97CE8"/><path fill-rule="evenodd" clip-rule="evenodd" d="M183.82 645.846a1.679 1.679 0 0 0-2.371-.113l-4.648 4.228a1.677 1.677 0 0 0-.113 2.37l4.227 4.649a1.678 1.678 0 0 0 2.371.113l4.649-4.227a1.678 1.678 0 0 0 .112-2.371l-4.227-4.649Zm-3.091-.905a2.75 2.75 0 0 1 3.884.184l4.227 4.649a2.75 2.75 0 0 1-.185 3.884l-4.649 4.227a2.748 2.748 0 0 1-3.883-.184l-4.228-4.649a2.75 2.75 0 0 1 .185-3.884l4.649-4.227Zm172.149-383.168a1.679 1.679 0 0 0-2.371-.112l-4.649 4.227a1.678 1.678 0 0 0-.112 2.371l4.227 4.649a1.679 1.679 0 0 0 2.371.112l4.649-4.227a1.679 1.679 0 0 0 .112-2.371l-4.227-4.649Zm-3.091-.905a2.748 2.748 0 0 1 3.883.185l4.228 4.649a2.748 2.748 0 0 1-.185 3.883l-4.649 4.228a2.75 2.75 0 0 1-3.884-.185l-4.227-4.649a2.75 2.75 0 0 1 .185-3.884l4.649-4.227Z" fill="#D2DFE6"/><path d="m182.432 637.388-3.381-3.719a1.771 1.771 0 0 0-2.502-.119l-3.719 3.382a1.771 1.771 0 0 0-.119 2.502l3.382 3.719a1.77 1.77 0 0 0 2.501.119l3.72-3.382a1.772 1.772 0 0 0 .118-2.502ZM23.223 478.178l-3.381-3.719a1.772 1.772 0 0 0-2.502-.119l-3.72 3.382a1.771 1.771 0 0 0-.118 2.502l3.382 3.719a1.77 1.77 0 0 0 2.501.119l3.72-3.382a1.771 1.771 0 0 0 .118-2.502ZM326.87 696.476l-3.382-3.719a1.771 1.771 0 0 0-2.502-.119l-3.719 3.382a1.772 1.772 0 0 0-.119 2.502l3.382 3.719a1.771 1.771 0 0 0 2.502.119l3.719-3.382a1.771 1.771 0 0 0 .119-2.502Zm57.447-318.419-3.382-3.719a1.771 1.771 0 0 0-2.502-.119l-3.719 3.382a1.77 1.77 0 0 0-.119 2.501l3.382 3.72a1.772 1.772 0 0 0 2.502.118l3.719-3.381a1.771 1.771 0 0 0 .119-2.502Zm504.418 148.591-5.071-5.577a2.655 2.655 0 0 0-3.751-.178l-5.577 5.071a2.655 2.655 0 0 0-.178 3.751l5.071 5.577a2.655 2.655 0 0 0 3.751.178l5.577-5.07a2.656 2.656 0 0 0 .178-3.752ZM783.689 324.764l-5.071-5.577a2.655 2.655 0 0 0-3.751-.178l-5.577 5.07a2.656 2.656 0 0 0-.178 3.752l5.071 5.577a2.655 2.655 0 0 0 3.751.178l5.577-5.071a2.655 2.655 0 0 0 .178-3.751Z" fill="#D2DFE6"/><path opacity=".5" d="M351.036 705.555a7.054 7.054 0 0 1 7.054-7.054h72.301a7.054 7.054 0 0 1 7.054 7.054v47.613a7.054 7.054 0 0 1-7.054 7.053H358.09a7.054 7.054 0 0 1-7.054-7.053v-47.613Z" fill="#87DDE8"/><path opacity=".5" d="M342.219 698.501a7.054 7.054 0 0 1 7.054-7.054h75.828a7.054 7.054 0 0 1 7.054 7.054v49.376a7.054 7.054 0 0 1-7.054 7.054h-75.828a7.054 7.054 0 0 1-7.054-7.054v-49.376Z" fill="#C3EEF4"/><path d="M405.348 731.055h-1.078v-1.11a2.085 2.085 0 0 0-2.085-2.085h-7.894v-1.04h.964a2.093 2.093 0 0 0 2.086-2.085v-4.085a2.094 2.094 0 0 0-2.086-2.085h-4.084a2.092 2.092 0 0 0-2.085 2.085v4.085a2.093 2.093 0 0 0 2.085 2.085h.964v1.04h-7.581a2.085 2.085 0 0 0-2.085 2.085v1.11h-1.078a2.085 2.085 0 0 0-2.085 2.085v4.085a2.085 2.085 0 0 0 2.085 2.085h4.085a2.08 2.08 0 0 0 2.079-2.085v-4.085a2.087 2.087 0 0 0-2.079-2.085h-.852v-1.04h7.511v1.04h-.964a2.092 2.092 0 0 0-2.085 2.085v4.085a2.084 2.084 0 0 0 2.085 2.085h4.084a2.087 2.087 0 0 0 2.086-2.085v-4.085a2.094 2.094 0 0 0-2.086-2.085h-.964v-1.04h7.802v1.04h-.83a2.084 2.084 0 0 0-2.08 2.085v4.085a2.097 2.097 0 0 0 .608 1.474 2.07 2.07 0 0 0 1.472.611h4.085a2.085 2.085 0 0 0 2.085-2.085v-4.085a2.085 2.085 0 0 0-2.085-2.085Zm-14.107-10.335h3.944v3.945h-3.944v-3.945Zm-5.862 16.435h-3.939v-3.945h3.939v3.945Zm9.806 0h-3.944v-3.945h3.944v3.945Zm10.093 0h-3.939v-3.945h3.939v3.945Z" fill="#fff"/><path opacity=".5" d="M634.377 672.113a8.569 8.569 0 0 1 8.569-8.569h92.115a8.57 8.57 0 0 1 8.569 8.569v59.982a8.569 8.569 0 0 1-8.569 8.569h-92.115a8.568 8.568 0 0 1-8.569-8.569v-59.982Z" fill="#C3EEF4"/><path opacity=".5" d="M642.946 680.682a8.568 8.568 0 0 1 8.569-8.569h92.115a8.569 8.569 0 0 1 8.569 8.569v59.982a8.57 8.57 0 0 1-8.569 8.569h-92.115a8.569 8.569 0 0 1-8.569-8.569v-59.982Z" fill="#87DDE8"/><path fill-rule="evenodd" clip-rule="evenodd" d="M712.283 704.603v-.655a8.167 8.167 0 0 0-8.156-8.195h-2.677v-.125a4.642 4.642 0 0 0-9.282 0v.125h-3.272a8.169 8.169 0 0 0-8.163 8.156v.654a3.678 3.678 0 0 0-2.886 3.6v5.492a3.67 3.67 0 0 0 2.886 3.587v.655a8.172 8.172 0 0 0 8.163 8.169h15.231a8.163 8.163 0 0 0 8.156-8.156v-.655a3.665 3.665 0 0 0 2.874-3.58v-5.512a3.673 3.673 0 0 0-2.874-3.56Zm-8.156 18.844h-15.231a5.543 5.543 0 0 1-5.545-5.537v-14.001a5.542 5.542 0 0 1 5.545-5.538h15.231a5.547 5.547 0 0 1 5.538 5.538v14.001a5.541 5.541 0 0 1-5.538 5.537Zm-9.334-27.819a2.022 2.022 0 0 1 4.045 0v.125h-4.051l.003-.058c.001-.021.003-.043.003-.067Zm-14.983 18.027v-5.492a1.722 1.722 0 0 1 .923-1.512v8.51a1.721 1.721 0 0 1-.923-1.506Zm33.383 0a1.701 1.701 0 0 1-.91 1.499v-8.509a1.698 1.698 0 0 1 .91 1.499v5.511Zm-16.377-9.19a6.443 6.443 0 0 0-5.957 3.98 6.445 6.445 0 0 0 4.699 8.791 6.445 6.445 0 0 0 6.619-2.742 6.448 6.448 0 0 0-5.361-10.029Zm0 10.931a4.487 4.487 0 0 1-4.143-2.768 4.485 4.485 0 1 1 8.627-1.716 4.49 4.49 0 0 1-4.484 4.484Zm-1.042-6.042a1.876 1.876 0 0 1 2.927 1.559 1.88 1.88 0 0 1-2.243 1.843 1.882 1.882 0 0 1-1.373-2.558c.141-.343.381-.637.689-.844Zm1.281 1.254a.52.52 0 0 0 .661-.065.524.524 0 1 0-.661.065Z" fill="#fff"/><path d="M563.275 816.944a18.798 18.798 0 0 1-11.613 17.351 18.802 18.802 0 0 1-20.475-4.085 18.79 18.79 0 0 1-4.067-20.479 18.793 18.793 0 0 1 17.361-11.597 18.773 18.773 0 0 1 13.3 5.505 18.774 18.774 0 0 1 5.494 13.305Z" fill="#BAE6F0"/><path d="M662.837 736.124H426.14a18.363 18.363 0 0 0-13.923 6.311 18.347 18.347 0 0 0-4.312 14.665l16.889 116.109a10.656 10.656 0 0 0 10.554 9.142h218.216a10.652 10.652 0 0 0 10.554-9.142L681.007 757.1a18.34 18.34 0 0 0-10.541-19.319 18.352 18.352 0 0 0-7.629-1.657Z" fill="#fff"/><path opacity=".8" d="M562.962 809.475a13.595 13.595 0 0 0-11.112-10.914 39.236 39.236 0 0 0-7.862-.788c-3.496 0-8.42.459-11.949 2.659-4.448 2.757-6.779 8.075-6.565 15.002.131 3.988 1.083 9.601 4.924 13.606 3.102 3.283 9.027 4.809 13.623 5.023v3.578a2.17 2.17 0 0 0 1.345 2.021c.266.109.551.164.838.162h.18a2.152 2.152 0 0 0 1.231-.493c1.789-1.542 4.137-3.578 6.434-5.711l1.002-.936a33.138 33.138 0 0 0 4.924-5.285c3.233-4.514 4.316-11.21 2.987-17.924Z" fill="#D2DFE6"/><path d="m544.497 876.524-1.133.443-1.641-1.51 2.774 1.067Z" fill="#564B5E"/><path opacity=".5" d="M412.829 790.288s25.047 31.432 63.7 49.536c20.222 9.47 44.317 12.063 70.168 11.587 23.602-.443 54.065-9.404 77.389-20.336 31.185-14.608 52.047-32.104 50.733-31.185l-86.711 76.65-112.219 3.907-57.299-50.553-5.761-39.606Z" fill="#D2DFE6"/><path d="M770.641 962.169a108.732 108.732 0 0 1-29.101 4.185 176.615 176.615 0 0 1-26.147-1.756 346.62 346.62 0 0 1-47.599-10.504 16.02 16.02 0 0 1 5.45-31.399h.213a313.616 313.616 0 0 0 43.61.525 132.768 132.768 0 0 0 19.696-2.79 57.873 57.873 0 0 0 15.609-5.811 25.703 25.703 0 0 1 30.148 3.522 25.715 25.715 0 0 1 8.218 19.339 25.718 25.718 0 0 1-2.447 10.461 25.711 25.711 0 0 1-15.943 13.686l-1.707.542Z" fill="#FF7B80"/><path d="M718.857 942.867c0 12.228-3.66 22.125-8.207 22.125l-15.198-2.068a792.541 792.541 0 0 1-85.662-4.054 830.613 830.613 0 0 1-86.482-13.131 664.73 664.73 0 0 1-66.014-17.119l107.934-44.168c17.71 6.565 35.748 12.343 53.983 17.579a759.95 759.95 0 0 0 80.048 18.498h.148c.296 0 .591.147.887.213H710.7c4.497.016 8.157 9.914 8.157 22.125Z" fill="#1E326A"/><path d="M336.589 914.669a57.883 57.883 0 0 0 15.609 5.81 132.787 132.787 0 0 0 19.696 2.79c14.532.837 29.104.662 43.611-.525h.197a16.023 16.023 0 0 1 16.587 13.229 16.022 16.022 0 0 1-11.089 18.088 346.62 346.62 0 0 1-47.599 10.504 176.687 176.687 0 0 1-26.163 1.757 108.94 108.94 0 0 1-29.101-4.186l-1.641-.476a25.702 25.702 0 1 1 14.313-49.371 27.488 27.488 0 0 1 5.58 2.38Z" fill="#FF7B80"/><path d="m740.243 876.212-1.378 1.001a297.902 297.902 0 0 1-43.283 25.966 417.84 417.84 0 0 1-43.331 18.432 629.587 629.587 0 0 1-86.498 24.062 829.78 829.78 0 0 1-86.466 13.131 792.956 792.956 0 0 1-85.809 4.054l-15.117 2.134c-4.514 0-8.207-9.848-8.207-22.125 0-12.278 3.644-22.109 8.207-22.109h10.341c.295 0 .574-.164.886-.214h.148a671.03 671.03 0 0 0 24.62-4.71c1.378-.279 2.757-.558 4.119-.87 155.566-6.303 254.687-113.384 256.23-115.058a172.328 172.328 0 0 0 3.43-3.496 53.272 53.272 0 0 1 6.746-5.942c22.256-16.232 52.687-10.192 67.951 13.492 15.265 23.685 9.684 56.003-12.589 72.252Z" fill="#283D79"/><path d="M499.689 856.729c13.672 6.714 30.48 14.001 44.808 19.795a498.322 498.322 0 0 1-56.56 10.029c-48.239 5.58-113.154 7.369-122.509 1.017a40.318 40.318 0 0 1-1.527-.968l-.279-.164a279.233 279.233 0 0 1-13.492-9.225l-1.378-1.001c-22.273-16.249-27.903-48.616-12.688-72.301 15.215-23.684 45.678-29.724 67.951-13.492a53.272 53.272 0 0 1 6.746 5.942 208.856 208.856 0 0 0 26.688 23.323 348.026 348.026 0 0 0 32.105 20.993 492.284 492.284 0 0 0 30.135 16.052Z" fill="#1E326A"/><path d="M544.497 876.524c-23.947 9.536-49.716 18.317-74.713 25.506-15.921 4.58-33.467 8.978-49.815 12.639l-.624.311-.279-.114-.508.114.361-.18a410.787 410.787 0 0 1-25.507-11.489 316.94 316.94 0 0 1-27.984-15.642c15.297 10.258 179.069-11.145 179.069-11.145Z" fill="#152758"/><path d="M674.787 799.874c-1.543 1.641-100.663 108.755-256.229 115.058l1.362-.296a798.089 798.089 0 0 0 49.831-12.605 789.561 789.561 0 0 0 74.714-25.507l2.708-1.067a568.61 568.61 0 0 0 72.219-34.78 347.866 347.866 0 0 0 32.104-20.992 220.59 220.59 0 0 0 23.291-19.811Z" fill="#1E326A"/><path fill-rule="evenodd" clip-rule="evenodd" d="M753.153 652.603a1.393 1.393 0 0 0-1.968-.093l-4.649 4.227a1.393 1.393 0 0 0-.093 1.968l4.227 4.649a1.394 1.394 0 0 0 1.968.094l4.649-4.228a1.394 1.394 0 0 0 .094-1.968l-4.228-4.649Zm-3.072-1.307a3.034 3.034 0 0 1 4.287.203l4.227 4.649a3.035 3.035 0 0 1-.204 4.287l-4.649 4.227a3.034 3.034 0 0 1-4.286-.204l-4.227-4.649a3.033 3.033 0 0 1 .203-4.286l4.649-4.227Zm-56.016-179.24a1.393 1.393 0 0 0-1.968-.093l-4.649 4.227a1.393 1.393 0 0 0-.093 1.968l4.227 4.649a1.393 1.393 0 0 0 1.968.093l4.649-4.227a1.393 1.393 0 0 0 .093-1.968l-4.227-4.649Zm-3.072-1.308a3.035 3.035 0 0 1 4.287.204l4.227 4.649a3.035 3.035 0 0 1-.204 4.287l-4.649 4.227a3.034 3.034 0 0 1-4.286-.204l-4.228-4.649a3.034 3.034 0 0 1 .204-4.286l4.649-4.228ZM191.365 328.554a2.586 2.586 0 0 0-3.653-.173l-7.154 6.505a2.586 2.586 0 0 0-.174 3.653l6.505 7.154a2.587 2.587 0 0 0 3.654.174l7.154-6.505a2.586 2.586 0 0 0 .173-3.653l-6.505-7.155Zm-4.757-1.387a4.227 4.227 0 0 1 5.971.283l6.506 7.154a4.229 4.229 0 0 1-.284 5.972l-7.154 6.505a4.228 4.228 0 0 1-5.972-.283l-6.505-7.155a4.226 4.226 0 0 1 .284-5.971l7.154-6.505Z" fill="#D2DFE6"/><path d="M760.899 678.593a3.42 3.42 0 1 0 0-6.842 3.42 3.42 0 0 0 0 6.842ZM307.89 547.287a3.422 3.422 0 1 0-.001-6.843 3.422 3.422 0 0 0 .001 6.843Zm748.81-119.094a2.142 2.142 0 0 0 0-4.284 2.142 2.142 0 0 0 0 4.284Zm-285.591-80.425a2.142 2.142 0 1 0 0-4.284 2.142 2.142 0 0 0 0 4.284Z" fill="#D2DFE6"/><path d="M206.489 543.087a2.142 2.142 0 1 0 0-4.284 2.142 2.142 0 0 0 0 4.284Zm155.927-295.441a2.142 2.142 0 1 0 0-4.284 2.142 2.142 0 0 0 0 4.284Z" fill="#B9CBD3"/><path d="M214.695 337.92a2.142 2.142 0 1 0 .001-4.285 2.142 2.142 0 0 0-.001 4.285Z" fill="#D2DFE6"/><path fill-rule="evenodd" clip-rule="evenodd" d="M1070.15 429.654c-4.53 0-8.2 3.674-8.2 8.206 0 4.533 3.67 8.207 8.2 8.207 4.53 0 8.21-3.674 8.21-8.207 0-4.532-3.68-8.206-8.21-8.206Zm-9.85 8.206c0-5.439 4.41-9.848 9.85-9.848 5.44 0 9.85 4.409 9.85 9.848 0 5.439-4.41 9.848-9.85 9.848-5.44 0-9.85-4.409-9.85-9.848ZM324.985 666.006a8.206 8.206 0 1 0-.001 16.413 8.206 8.206 0 0 0 .001-16.413Zm-9.848 8.207c0-5.439 4.409-9.848 9.848-9.848 5.439 0 9.848 4.409 9.848 9.848 0 5.439-4.409 9.848-9.848 9.848-5.439 0-9.848-4.409-9.848-9.848ZM895.35 505.155a4.103 4.103 0 1 0-.002 8.206 4.103 4.103 0 0 0 .002-8.206Zm-5.745 4.103a5.745 5.745 0 1 1 11.49.001 5.745 5.745 0 0 1-11.49-.001ZM365.198 391.903a4.103 4.103 0 1 0-.002 8.206 4.103 4.103 0 0 0 .002-8.206Zm-5.745 4.103a5.745 5.745 0 1 1 11.49 0 5.745 5.745 0 0 1-11.49 0Z" fill="#D2DFE6"/><path fill-rule="evenodd" clip-rule="evenodd" d="M180.547 526.492a8.208 8.208 0 1 0 .002 16.416 8.208 8.208 0 0 0-.002-16.416Zm-9.848 8.207c0-5.439 4.409-9.848 9.848-9.848 5.439 0 9.848 4.409 9.848 9.848 0 5.439-4.409 9.848-9.848 9.848-5.439 0-9.848-4.409-9.848-9.848ZM7.386 496.948a5.745 5.745 0 1 0 0 11.49 5.745 5.745 0 0 0 0-11.49ZM0 502.693a7.386 7.386 0 1 1 14.772 0 7.386 7.386 0 0 1-14.772 0Z" fill="#B9CBD3"/><defs><filter id="blip-ideas-1__a" x="195.467" y="930.185" width="677.096" height="70.249" filterUnits="userSpaceOnUse" color-interpolation-filters="sRGB"><feFlood flood-opacity="0" result="BackgroundImageFix"/><feBlend in="SourceGraphic" in2="BackgroundImageFix" result="shape"/><feGaussianBlur stdDeviation="7" result="effect1_foregroundBlur_10272_1592"/></filter><filter id="blip-ideas-1__b" x="453.656" y="63.163" width="182.707" height="193.966" filterUnits="userSpaceOnUse" color-interpolation-filters="sRGB"><feFlood flood-opacity="0" result="BackgroundImageFix"/><feColorMatrix in="SourceAlpha" values="0 0 0 0 0 0 0 0 0 0 0 0 0 0 0 0 0 0 127 0" result="hardAlpha"/><feOffset/><feGaussianBlur stdDeviation="15.419"/><feColorMatrix values="0 0 0 0 0.988235 0 0 0 0 0.854902 0 0 0 0 0.592157 0 0 0 1 0"/><feBlend in2="BackgroundImageFix" result="effect1_dropShadow_10272_1592"/><feBlend in="SourceGraphic" in2="effect1_dropShadow_10272_1592" result="shape"/></filter></defs></svg>