<svg width="1080" height="1080" viewBox="0 0 1080 1080" fill="none" xmlns="http://www.w3.org/2000/svg"><g clip-path="url(#blip-health__a)"><path d="M966.93 330.221c-52.86-54.278-125.012-83.751-197.112-103.128-13.228-3.528-26.508-6.785-39.841-9.879-46.807-10.753-89.967-34.374-124.96-68.39l-.679-.597c-37.697-36.855-69.957-80.495-113.457-110.293C460.017 17.092 424.715 4.397 388.046.954c-36.669-3.444-73.592 2.469-107.557 17.223-67.343 30.612-117.431 99.871-124.542 175.806-8.574 90.97 40.416 181.778 23.476 271.391C158.509 576.101 37.262 676.027 36.007 788.871c-.575 55.635 34.874 136.401 78.949 168.262 44.076 31.861 100.334 42.446 153.455 35.335 81.041-10.855 151.624-108.556 225.345-145.411 79.194-39.714 163.864-66.377 250.965-79.029 58.977-8.521 120.254-10.855 173.95-37.994 67.97-34.304 115.289-107.742 123.439-185.794 8.16-78.052-21.43-158.927-75.18-214.019Z" fill="#B9CBD3" style="mix-blend-mode:luminosity" opacity=".16"/><g opacity=".1" filter="url(#blip-health__b)"><path fill-rule="evenodd" clip-rule="evenodd" d="M668.438 1020.32c174.158 0 315.341-18.59 315.341-41.533 0-22.942-141.183-41.539-315.341-41.539-174.158 0-315.341 18.597-315.341 41.539 0 .095.002.19.007.285-22.423-2.077-46.667-3.211-71.968-3.211-114.706 0-207.693 23.312-207.693 52.069 0 28.76 92.987 52.07 207.693 52.07 114.705 0 207.692-23.31 207.692-52.07 0-5.56-3.477-10.92-9.915-15.94 52.758 5.23 118.391 8.33 189.525 8.33Z" fill="#0A0F1A"/></g><path d="M439.651 131.525c0-39.036 31.645-70.68 70.68-70.68h317.098c39.035 0 70.68 31.644 70.68 70.68v780.906c0 39.035-31.645 70.68-70.68 70.68H510.331c-39.035 0-70.68-31.645-70.68-70.68V131.525Z" fill="#1A2437"/><path d="M467.972 125.949c0-21.292 17.26-38.552 38.552-38.552h325.457c21.292 0 38.553 17.26 38.553 38.552v789.86c0 21.292-17.261 38.553-38.553 38.553H506.524c-21.292 0-38.552-17.261-38.552-38.553v-789.86Z" fill="#F5F8F9"/><path d="M870.003 918.037c0 19.931-16.157 36.088-36.088 36.088H503.399c-19.931 0-36.088-16.157-36.088-36.088v-23.256h402.692v23.256Z" fill="#F8FBFB"/><path fill-rule="evenodd" clip-rule="evenodd" d="M870.003 895.382H467.311v-1.202h402.692v1.202Z" fill="#D2DFE6"/><path fill-rule="evenodd" clip-rule="evenodd" d="M501.929 913.149a12.009 12.009 0 0 0-11.096 7.414 12.015 12.015 0 0 0 8.753 16.376 12.014 12.014 0 0 0 12.329-5.107 12.015 12.015 0 0 0-1.494-15.165 12.01 12.01 0 0 0-8.492-3.518Zm0 22.7a10.617 10.617 0 0 1-7.507-3.123 10.355 10.355 0 0 1-1.936-2.612 10.701 10.701 0 0 1 2.148-12.768 10.703 10.703 0 1 1 7.325 18.503h-.03Z" fill="#2CC3D5"/><path fill-rule="evenodd" clip-rule="evenodd" d="M498.008 923.778a1.305 1.305 0 1 0 .03-2.61 1.305 1.305 0 0 0-.03 2.61Zm8.033 0a1.302 1.302 0 0 0 1.207-.806 1.3 1.3 0 0 0-.283-1.423 1.301 1.301 0 0 0-1.423-.284 1.315 1.315 0 0 0-.587.481 1.313 1.313 0 0 0-.12 1.226 1.314 1.314 0 0 0 .707.707c.158.065.328.099.499.099Zm-4.819 6.681a6.23 6.23 0 0 1-4.503-2.778l-1.081.706a7.5 7.5 0 0 0 5.404 3.363c.28.015.561.015.841 0a7.51 7.51 0 0 0 6.29-3.408l-1.096-.706a6.197 6.197 0 0 1-5.855 2.823Z" fill="#2CC3D5"/><g opacity=".7"><mask id="blip-health__c" style="mask-type:alpha" maskUnits="userSpaceOnUse" x="467" y="87" width="404" height="868"><path d="M467.972 125.949c0-21.292 17.26-38.552 38.552-38.552h325.457c21.292 0 38.553 17.26 38.553 38.552v789.86c0 21.292-17.261 38.553-38.553 38.553H506.524c-21.292 0-38.552-17.261-38.552-38.553v-789.86Z" fill="#F5F8F9"/></mask><g mask="url(#blip-health__c)"><path d="M870.342 339.469a602.751 602.751 0 0 0-119.08-11.653c-71.772 0-131.705 12.637-169.188 35.648-75.8 46.76-84.348 144.951-82.678 199.332 1.72 56.25 14.738 134.577 66.369 188.171 41.412 43.023 134.947 66.231 202.101 66.33a38.044 38.044 0 0 1 27.06 11.004 38.135 38.135 0 0 1 11.307 26.954v25.716c0 .849.244 1.68.702 2.394a4.414 4.414 0 0 0 4.351 1.987 4.41 4.41 0 0 0 2.267-1.038c21.664-18.881 44.655-39.335 67.351-60.33 5.551-4.917 11.25-10.375 16.948-15.587 27.216-24.585 55.364-50.497 74.867-78.228 22.794-32.354 37.581-72.673 44.211-119.826 5.66-44.403 4-89.433-4.91-133.298-14.493-72.722-64.797-121.547-141.678-137.576Z" fill="#E7EEF1"/></g></g><path d="M468.002 123.21c0-19.931 16.157-36.088 36.088-36.088h330.388c19.931 0 36.088 16.157 36.088 36.089v13.364H468.002V123.21Z" fill="#2498A8"/><path d="M870.694 136.109H468.002v56.519h402.692v-56.519Z" fill="#2CC3D5"/><path d="M846.651 164.135 852.77 158a.978.978 0 0 0-.718-1.592.981.981 0 0 0-.668.219l-6.122 6.118-6.123-6.118a.993.993 0 0 0-.71-.368.976.976 0 0 0-.748.283.977.977 0 0 0-.184 1.14.975.975 0 0 0 .256.318l6.119 6.123-6.119 6.135a.987.987 0 0 0-.209 1.067.98.98 0 0 0 1.595.318l6.123-6.123 6.122 6.123a.957.957 0 0 0 .691.287.984.984 0 0 0 .961-1.17.98.98 0 0 0-.266-.502l-6.119-6.123Zm-355.289 7.347a.668.668 0 0 1-.516-.244l-4.729-5.632a1.377 1.377 0 0 1 0-1.77l4.729-5.632a.684.684 0 0 1 .952-.068.685.685 0 0 1 .1.95l-4.729 5.635 4.721 5.635a.68.68 0 0 1-.158 1.021.672.672 0 0 1-.37.105Z" fill="#fff"/><path d="M556.512 87.122h224.174v3.519c0 16.775-13.599 30.375-30.374 30.375H586.887c-16.776 0-30.375-13.6-30.375-30.375v-3.519Z" fill="#1A2437"/><path d="M688.128 99.568h-67.775a2.99 2.99 0 0 0 0 5.981h67.775a2.99 2.99 0 1 0 0-5.98Zm32.357 4.225a4.255 4.255 0 1 1-4.225-4.225 4.226 4.226 0 0 1 4.225 4.225Z" opacity=".2" fill="#F8FBFB"/><g filter="url(#blip-health__d)"><path d="M811.917 327.44c0-11.405-9.245-20.65-20.65-20.65H405.339c-11.405 0-20.65 9.245-20.65 20.65v77.172a4.13 4.13 0 0 0 4.13 4.13h402.448c11.405 0 20.65-9.246 20.65-20.65V327.44Z" fill="#fff"/></g><path d="M404.212 328.235c0 30.499 24.724 55.224 55.224 55.224 30.499 0 55.224-24.725 55.224-55.224 0-30.5-24.725-55.224-55.224-55.224-30.5 0-55.224 24.724-55.224 55.224Z" fill="#FB5A8B"/><path fill-rule="evenodd" clip-rule="evenodd" d="M560.32 345.136a6.458 6.458 0 0 1 6.458-6.458h204.511a6.458 6.458 0 0 1 0 12.916H566.778a6.458 6.458 0 0 1-6.458-6.458Zm0 25.487a6.457 6.457 0 0 1 6.458-6.457h138.045a6.458 6.458 0 1 1 0 12.915H566.778a6.458 6.458 0 0 1-6.458-6.458Z" fill="#D2DFE6"/><g filter="url(#blip-health__e)"><path d="M760.532 566.213c0-8.963 7.266-16.229 16.229-16.229h58.407c8.963 0 16.229 7.266 16.229 16.229v22.807a5.216 5.216 0 0 1-5.216 5.217h-69.42c-8.963 0-16.229-7.267-16.229-16.23v-11.794Z" fill="#fff"/></g><path d="M819.063 575.829c1.89-7.233-2.441-14.63-9.674-16.521-7.233-1.89-14.63 2.441-16.521 9.674s2.44 14.63 9.674 16.521c7.233 1.891 14.63-2.44 16.521-9.674Z" fill="#F9B42F"/><path d="M801.579 569.928c0 .916-.626 1.661-1.392 1.661-.766 0-1.389-.745-1.389-1.661s.626-1.661 1.389-1.661 1.392.745 1.392 1.661Zm11.097 1.674a.44.44 0 0 1-.312-.116c-.907-.835-2.243-.181-2.259-.172a.438.438 0 0 1-.514-.103.436.436 0 0 1-.052-.522 3.537 3.537 0 0 1 3.178-1.589.432.432 0 0 1 .303.151.438.438 0 0 1 .061.487.438.438 0 0 1-.427.244 2.607 2.607 0 0 0-1.204.212 2.466 2.466 0 0 1 1.511.651.435.435 0 0 1 .143.307.448.448 0 0 1-.118.318.431.431 0 0 1-.31.132Zm-5.777 9.615a6.645 6.645 0 0 1-4.067-1.392.662.662 0 0 1-.092-.909.665.665 0 0 1 .902-.139 5.322 5.322 0 0 0 7.817-1.495 5.31 5.31 0 0 0 .744-2.862.663.663 0 1 1 1.327-.041 6.646 6.646 0 0 1-6.431 6.835l-.2.003Z" fill="#2C2A46"/><path d="M689.137 648.302c0-9.004-7.299-16.303-16.303-16.303H503.701c-9.004 0-16.303 7.299-16.303 16.303v22.784a5.435 5.435 0 0 0 5.435 5.435h180.001c9.004 0 16.303-7.299 16.303-16.303v-11.916Zm0-394.091c0-9.004-7.299-16.303-16.303-16.303H503.701c-9.004 0-16.303 7.299-16.303 16.303v22.784a5.434 5.434 0 0 0 5.435 5.434h180.001c9.004 0 16.303-7.299 16.303-16.303v-11.915Zm0 556.772c0-9.004-7.299-16.303-16.303-16.303H503.701c-9.004 0-16.303 7.299-16.303 16.303v22.784a5.434 5.434 0 0 0 5.435 5.434h180.001c9.004 0 16.303-7.299 16.303-16.303v-11.915Z" fill="#D2DFE6"/><path d="M599.452 716.425c0-9.003 7.299-16.302 16.303-16.302h219.219c9.004 0 16.303 7.299 16.303 16.302v49.22a5.434 5.434 0 0 1-5.434 5.434H615.755c-9.004 0-16.303-7.299-16.303-16.303v-38.351Z" fill="#DEE8EC"/><path d="M653.855 949.276a.716.716 0 0 0 0-1.429.713.713 0 0 0-.505 1.219c.134.134.315.21.505.21Z" fill="#DF638D"/><rect x="550" y="159" width="82" height="9" rx="4.5" fill="#fff"/><g filter="url(#blip-health__f)"><path d="M686.574 463.908c0-7.594 6.157-13.751 13.751-13.751h318.695c7.6 0 13.75 6.157 13.75 13.751v66.115a2.75 2.75 0 0 1-2.75 2.75H700.325c-7.594 0-13.751-6.157-13.751-13.751v-55.114Z" fill="#fff"/></g><path fill-rule="evenodd" clip-rule="evenodd" d="M889.52 481.232a4.3 4.3 0 0 0-4.301-4.3H719.496a4.3 4.3 0 0 0 0 8.601h165.723a4.301 4.301 0 0 0 4.301-4.301Zm0 20.654a4.301 4.301 0 0 0-4.301-4.301H773.356a4.3 4.3 0 0 0 0 8.601h111.863a4.3 4.3 0 0 0 4.301-4.3Z" fill="#D2DFE6"/><path d="M1017.04 467.534c0 24.715-20.039 44.75-44.754 44.75-24.715 0-44.75-20.035-44.75-44.75s20.035-44.75 44.75-44.75 44.754 20.035 44.754 44.75Z" fill="#DFEA95"/><mask id="blip-health__g" style="mask-type:alpha" maskUnits="userSpaceOnUse" x="927" y="422" width="91" height="91"><path d="M972.286 512.284c24.715 0 44.754-20.035 44.754-44.75s-20.039-44.75-44.754-44.75c-24.715 0-44.75 20.035-44.75 44.75s20.035 44.75 44.75 44.75Z" fill="#FF5A60"/></mask><g mask="url(#blip-health__g)"><path d="M972.784 494.019c-15.629 0-28.297 1.356-28.297 3.026v78.283c0 1.67 12.668 3.021 28.297 3.021 15.63 0 28.306-1.351 28.306-3.021v-78.283c0-1.67-12.676-3.026-28.306-3.026Z" fill="#E7EEF1"/><path d="M992.37 459.792v2.421a2.58 2.58 0 0 1-2.54 2.589v-7.599a2.59 2.59 0 0 1 2.54 2.589Z" fill="#CB8591"/><path fill-rule="evenodd" clip-rule="evenodd" d="M948.964 504.881c0 .001 0 0 0 0l-1.748-.819-1.748-.819a1.93 1.93 0 1 1 3.496 1.638Zm0 0-.007.014-.025.055-.105.232c-.094.21-.234.528-.414.952-.361.849-.883 2.122-1.518 3.798-1.271 3.353-2.996 8.319-4.792 14.734a1.932 1.932 0 0 1-3.718-1.042c1.83-6.534 3.591-11.609 4.9-15.06a107.69 107.69 0 0 1 1.575-3.94 54.657 54.657 0 0 1 .562-1.283l.032-.07.01-.019.004-.009 1.748.819m49.57-1.709a1.93 1.93 0 0 1 2.647.67l-1.659.988 1.659-.988.002.005.004.006.012.02.04.069.14.249c.12.216.292.532.509.949a66.16 66.16 0 0 1 1.75 3.711c1.44 3.284 3.32 8.192 5.17 14.756a1.933 1.933 0 0 1-3.72 1.045c-1.79-6.386-3.621-11.127-4.988-14.255a60.34 60.34 0 0 0-1.645-3.487 29.618 29.618 0 0 0-.451-.844l-.111-.198-.026-.043-.003-.007a1.93 1.93 0 0 1 .67-2.646Z" fill="#E7EEF1"/><path d="M973.05 501.329c3 0 5.432-2.004 5.432-4.475 0-2.472-2.432-4.475-5.432-4.475-3 0-5.431 2.003-5.431 4.475 0 2.471 2.431 4.475 5.431 4.475Z" fill="#CB9685"/><path fill-rule="evenodd" clip-rule="evenodd" d="M973.05 501.2c2.953 0 5.303-1.968 5.303-4.346s-2.35-4.346-5.303-4.346-5.303 1.968-5.303 4.346 2.35 4.346 5.303 4.346Zm5.432-4.346c0 2.471-2.432 4.475-5.432 4.475-3 0-5.431-2.004-5.431-4.475 0-2.472 2.431-4.475 5.431-4.475s5.432 2.003 5.432 4.475Z" fill="#CB9685"/><path fill-rule="evenodd" clip-rule="evenodd" d="M973.05 501.2c2.953 0 5.303-1.968 5.303-4.346s-2.35-4.346-5.303-4.346-5.303 1.968-5.303 4.346 2.35 4.346 5.303 4.346Zm5.432-4.346c0 2.471-2.432 4.475-5.432 4.475-3 0-5.431-2.004-5.431-4.475 0-2.472 2.431-4.475 5.431-4.475s5.432 2.003 5.432 4.475Z" fill="#fff"/><path d="M990.103 450.285v17.716a16.58 16.58 0 0 1-16.608 16.608h-.854a16.607 16.607 0 0 1-16.607-16.597v-17.727a16.606 16.606 0 0 1 16.607-16.607h.881a16.605 16.605 0 0 1 16.581 16.607Z" fill="#CB9685"/><path fill-rule="evenodd" clip-rule="evenodd" d="M989.974 468.001v-17.716a16.48 16.48 0 0 0-16.452-16.479h-.881a16.48 16.48 0 0 0-16.479 16.479v17.727a16.486 16.486 0 0 0 16.479 16.468h.854a16.445 16.445 0 0 0 11.661-4.818 16.452 16.452 0 0 0 4.818-11.661Zm.129 0v-17.716a16.605 16.605 0 0 0-16.581-16.607h-.881a16.606 16.606 0 0 0-16.607 16.607v17.727a16.607 16.607 0 0 0 16.607 16.597h.854a16.597 16.597 0 0 0 11.752-4.856 16.58 16.58 0 0 0 4.856-11.752Z" fill="#CB9685"/><path d="M956.006 457.204v7.598a2.582 2.582 0 0 1-2.54-2.588v-2.422a2.588 2.588 0 0 1 2.54-2.588Z" fill="#CB9685"/><path fill-rule="evenodd" clip-rule="evenodd" d="M955.878 457.209c.042-.003.085-.005.128-.005v7.598a2.584 2.584 0 0 1-2.54-2.588v-2.422a2.588 2.588 0 0 1 2.412-2.583Zm0 .129a2.46 2.46 0 0 0-2.283 2.454v2.422a2.455 2.455 0 0 0 2.283 2.454v-7.33Z" fill="#CB9685"/><path d="M992.636 459.792v2.422a2.584 2.584 0 0 1-2.54 2.588v-7.598a2.586 2.586 0 0 1 2.54 2.588Z" fill="#CB9685"/><path fill-rule="evenodd" clip-rule="evenodd" d="M992.508 462.214v-2.422h.128v2.422a2.584 2.584 0 0 1-2.411 2.583c-.043.003-.086.004-.129.005v-7.598a2.588 2.588 0 0 1 2.54 2.588h-.128a2.459 2.459 0 0 0-2.283-2.454v7.33a2.457 2.457 0 0 0 2.283-2.454Z" fill="#CB9685"/><path opacity=".2" fill-rule="evenodd" clip-rule="evenodd" d="M970.643 439.295a9.586 9.586 0 0 0-9.585 9.585.386.386 0 0 1-.772 0 10.355 10.355 0 0 1 10.357-10.358.386.386 0 1 1 0 .773Z" fill="#fff"/><path d="M973.493 484.61h-.854a16.372 16.372 0 0 1-3.551-.384v10.268a3.582 3.582 0 0 0 3.551 3.562h.827a3.578 3.578 0 0 0 3.578-3.583v-10.242a16.69 16.69 0 0 1-3.551.379Z" fill="#CB9685"/><path fill-rule="evenodd" clip-rule="evenodd" d="M976.915 494.473V484.39a16.74 16.74 0 0 1-3.422.348v-.128c1.15.001 2.297-.117 3.422-.351m.129-.028v10.242c0 .47-.092.936-.271 1.371a3.577 3.577 0 0 1-3.307 2.212h-.827a3.578 3.578 0 0 1-3.551-3.562v-10.268l.129.028c1.125.238 2.272.358 3.422.356h.854v.128m-4.276-.353v10.109a3.445 3.445 0 0 0 1.007 2.419 3.445 3.445 0 0 0 2.416 1.014h.826a3.444 3.444 0 0 0 3.188-2.132 3.45 3.45 0 0 0 .261-1.322" fill="#CB9685"/><path d="M969.072 488.063v2.956s.859-1.465 3.988-1.481c3.129-.016 3.994 1.622 3.994 1.622v-3.551l-7.982-.146v.6Z" fill="#BF7D68"/><path d="M989.456 467.525a7.266 7.266 0 0 1-7.329 6.907h-.335a3.078 3.078 0 0 1-2.291-1.081 8.78 8.78 0 0 0-10.203-2.312 8.788 8.788 0 0 0-3 2.177 3.089 3.089 0 0 1-2.302 1.043 7.272 7.272 0 0 1-7.188-6.831l-.8-13.035v20.358c0 7.723 4.069 13.987 13.981 13.987h6.557c10.419 0 13.558-6.264 13.558-13.987v-20.358l-.648 13.132Z" fill="#2C2A46"/></g><path fill-rule="evenodd" clip-rule="evenodd" d="M522.886 181.97a17.662 17.662 0 0 0 17.313-21.114 17.663 17.663 0 0 0-24.079-12.874 17.668 17.668 0 0 0-10.911 16.311 17.716 17.716 0 0 0 17.677 17.677Z" fill="#FB5A8B"/><path d="M539.142 158.341a5.85 5.85 0 1 0 0-11.702 5.85 5.85 0 0 0 0 11.702Z" fill="#BED42B"/><path fill-rule="evenodd" clip-rule="evenodd" d="M539.142 147.334a5.156 5.156 0 1 0-.001 10.313 5.156 5.156 0 0 0 .001-10.313Zm-6.545 5.156a6.544 6.544 0 1 1 13.089 0 6.544 6.544 0 0 1-13.089 0Z" fill="#2CC3D5"/><mask id="blip-health__h" maskUnits="userSpaceOnUse" x="510.06" y="151.491" width="25" height="25" fill="#000"><path fill="#fff" d="M510.06 151.491h25v25h-25z"/><path fill-rule="evenodd" clip-rule="evenodd" d="M516.26 173.921a11.703 11.703 0 1 0 10.979-20.54 11.703 11.703 0 0 0-15.288 15.288 11.696 11.696 0 0 0 4.309 5.252Zm.977-18.013a9.932 9.932 0 0 1 5.524-1.662 9.943 9.943 0 0 1 9.911 9.946 9.94 9.94 0 0 1-6.146 9.172 9.934 9.934 0 0 1-9.289-17.456Zm6.39 7.394h3.814a.881.881 0 0 1 .878.878.877.877 0 0 1-.878.878h-3.814v3.814a.881.881 0 0 1-.878.878.879.879 0 0 1-.877-.878v-3.814h-3.791a.881.881 0 0 1-.878-.878.881.881 0 0 1 .878-.878h3.791v-3.791a.875.875 0 0 1 .877-.877.877.877 0 0 1 .878.877v3.791Z"/></mask><path fill-rule="evenodd" clip-rule="evenodd" d="M516.26 173.921a11.703 11.703 0 1 0 10.979-20.54 11.703 11.703 0 0 0-15.288 15.288 11.696 11.696 0 0 0 4.309 5.252Zm.977-18.013a9.932 9.932 0 0 1 5.524-1.662 9.943 9.943 0 0 1 9.911 9.946 9.94 9.94 0 0 1-6.146 9.172 9.934 9.934 0 0 1-9.289-17.456Zm6.39 7.394h3.814a.881.881 0 0 1 .878.878.877.877 0 0 1-.878.878h-3.814v3.814a.881.881 0 0 1-.878.878.879.879 0 0 1-.877-.878v-3.814h-3.791a.881.881 0 0 1-.878-.878.881.881 0 0 1 .878-.878h3.791v-3.791a.875.875 0 0 1 .877-.877.877.877 0 0 1 .878.877v3.791Z" fill="#fff"/><path d="m516.26 173.921.278-.416-.278.416Zm14.775-1.455-.354-.354.354.354Zm1.455-14.775-.416.278.416-.278Zm-5.251-4.31.191-.462-.191.462Zm-6.761-.665.098.49-.098-.49Zm-9.193 9.193.49.098-.49-.098Zm.666 6.76-.462.192.462-.192Zm10.81-14.423.002-.5h-.001l-.001.5Zm-5.524 1.662-.277-.416.277.416Zm12.534 1.263.354-.353-.354.353Zm2.901 7.021h.5-.5Zm-1.682 5.518-.415-.278.415.278Zm-4.464 3.654.19.462-.19-.462Zm-5.742.556.098-.49-.098.49Zm-5.083-2.728.354-.353-.354.353Zm-2.71-5.093.49-.096-.49.096Zm.577-5.74-.462-.192.462.192Zm10.059 2.943h-.5v.5h.5v-.5Zm4.435.257-.354.354.354-.354Zm0 1.242-.354-.354.354.354Zm-4.435.257v-.5h-.5v.5h.5Zm-.257 4.435-.354-.354.354.354Zm-1.241 0 .353-.354-.353.354Zm-.257-4.435h.5v-.5h-.5v.5Zm-4.412-.257-.353.353.353-.353Zm0-1.242-.353-.353.353.353Zm4.412-.257v.5h.5v-.5h-.5Zm.257-4.411-.354-.354.354.354Zm1.241 0 .353-.354-.353.354Zm-.609 16.502a11.2 11.2 0 0 1-6.223-1.888l-.555.831a12.197 12.197 0 0 0 6.778 2.057v-1Zm7.92-3.281a11.197 11.197 0 0 1-7.92 3.281v1a12.2 12.2 0 0 0 8.627-3.574l-.707-.707Zm3.281-7.92a11.2 11.2 0 0 1-3.281 7.92l.707.707a12.196 12.196 0 0 0 3.574-8.627h-1Zm-1.888-6.223a11.198 11.198 0 0 1 1.888 6.223h1a12.21 12.21 0 0 0-2.056-6.779l-.832.556Zm-5.027-4.126a11.198 11.198 0 0 1 5.027 4.126l.832-.556a12.208 12.208 0 0 0-5.476-4.494l-.383.924Zm-6.471-.637a11.206 11.206 0 0 1 6.471.637l.383-.924a12.201 12.201 0 0 0-7.049-.694l.195.981Zm-5.735 3.065a11.2 11.2 0 0 1 5.735-3.065l-.195-.981a12.202 12.202 0 0 0-6.247 3.339l.707.707Zm-3.066 5.736a11.2 11.2 0 0 1 3.066-5.736l-.707-.707a12.195 12.195 0 0 0-3.339 6.247l.98.196Zm.638 6.471a11.2 11.2 0 0 1-.638-6.471l-.98-.196c-.471 2.367-.23 4.82.694 7.05l.924-.383Zm4.125 5.027a11.195 11.195 0 0 1-4.125-5.027l-.924.383a12.192 12.192 0 0 0 4.494 5.475l.555-.831Zm6.224-19.759a10.433 10.433 0 0 0-5.802 1.746l.554.832a9.433 9.433 0 0 1 5.246-1.578l.002-1Zm7.363 3.072a10.445 10.445 0 0 0-7.362-3.072l-.004 1a9.448 9.448 0 0 1 6.658 2.778l.708-.706Zm3.047 7.374c0-2.764-1.096-5.416-3.047-7.374l-.708.706a9.448 9.448 0 0 1 2.755 6.668h1Zm-1.766 5.796a10.437 10.437 0 0 0 1.766-5.796l-1-.001a9.436 9.436 0 0 1-1.597 5.241l.831.556Zm-4.69 3.838a10.431 10.431 0 0 0 4.69-3.838l-.831-.556a9.434 9.434 0 0 1-4.24 3.469l.381.925Zm-6.031.584c2.024.406 4.123.203 6.031-.584l-.381-.925a9.432 9.432 0 0 1-5.453.529l-.197.98Zm-5.338-2.865a10.436 10.436 0 0 0 5.338 2.865l.197-.98a9.432 9.432 0 0 1-4.827-2.591l-.708.706Zm-2.847-5.349a10.437 10.437 0 0 0 2.847 5.349l.708-.706a9.44 9.44 0 0 1-2.574-4.836l-.981.193Zm.606-6.029a10.433 10.433 0 0 0-.606 6.029l.981-.193a9.438 9.438 0 0 1 .548-5.451l-.923-.385Zm3.854-4.675a10.435 10.435 0 0 0-3.854 4.675l.923.385a9.44 9.44 0 0 1 3.485-4.228l-.554-.832Zm10.481 7.31h-3.814v1h3.814v-1Zm.975.404a1.382 1.382 0 0 0-.975-.404v1c.101 0 .197.04.267.111l.708-.707Zm.403.974c0-.365-.145-.716-.403-.974l-.708.707a.378.378 0 0 1 .111.267h1Zm-.403.974c.258-.258.403-.609.403-.974h-1c0 .1-.04.196-.111.267l.708.707Zm-.975.404c.366 0 .716-.146.975-.404l-.708-.707a.374.374 0 0 1-.267.111v1Zm-3.814 0h3.814v-1h-3.814v1Zm.5 3.314v-3.814h-1v3.814h1Zm-.404.974c.259-.258.404-.609.404-.974h-1c0 .1-.04.196-.111.267l.707.707Zm-.974.404c.366 0 .716-.145.974-.404l-.707-.707a.376.376 0 0 1-.267.111v1Zm-.974-.404c.259.259.609.404.974.404v-1c-.1 0-.196-.04-.267-.111l-.707.707Zm-.403-.974c0 .365.145.716.403.974l.707-.707a.381.381 0 0 1-.11-.267h-1Zm0-3.814v3.814h1v-3.814h-1Zm-3.291.5h3.791v-1h-3.791v1Zm-.974-.404c.258.258.608.404.974.404v-1c-.1 0-.197-.04-.267-.111l-.707.707Zm-.404-.974c0 .365.145.716.404.974l.707-.707a.378.378 0 0 1-.111-.267h-1Zm.404-.974a1.375 1.375 0 0 0-.404.974h1c0-.1.04-.196.111-.267l-.707-.707Zm.974-.404c-.366 0-.716.146-.974.404l.707.707a.376.376 0 0 1 .267-.111v-1Zm3.791 0h-3.791v1h3.791v-1Zm-.5-3.291v3.791h1v-3.791h-1Zm.403-.974a1.38 1.38 0 0 0-.403.974h1c0-.1.04-.196.11-.267l-.707-.707Zm.974-.403a1.38 1.38 0 0 0-.974.403l.707.707a.381.381 0 0 1 .267-.11v-1Zm.974.403a1.377 1.377 0 0 0-.974-.403v1c.1 0 .197.04.267.11l.707-.707Zm.404.974c0-.365-.145-.715-.404-.974l-.707.707a.378.378 0 0 1 .111.267h1Zm0 3.791v-3.791h-1v3.791h1Z" fill="#fff" mask="url(#blip-health__h)"/><mask id="blip-health__i" maskUnits="userSpaceOnUse" x="424.422" y="292.853" width="70" height="70" fill="#000"><path fill="#fff" d="M424.422 292.853h70v70h-70z"/><path fill-rule="evenodd" clip-rule="evenodd" d="M441.156 355.571a33.153 33.153 0 1 0 36.837-55.131 33.153 33.153 0 0 0-36.837 55.131Zm2.767-51.037a28.152 28.152 0 0 1 15.652-4.709 28.181 28.181 0 0 1 28.081 28.18 28.15 28.15 0 0 1-33.683 27.564 28.144 28.144 0 0 1-20.446-38.422 28.146 28.146 0 0 1 10.396-12.613Zm18.106 20.952h10.807a2.49 2.49 0 0 1 2.487 2.486 2.486 2.486 0 0 1-2.487 2.487h-10.807v10.808a2.486 2.486 0 0 1-4.973 0v-10.808h-10.742a2.484 2.484 0 0 1-2.486-2.487 2.487 2.487 0 0 1 2.486-2.486h10.742v-10.742a2.487 2.487 0 0 1 4.973 0v10.742Z"/></mask><path fill-rule="evenodd" clip-rule="evenodd" d="M441.156 355.571a33.153 33.153 0 1 0 36.837-55.131 33.153 33.153 0 0 0-36.837 55.131Zm2.767-51.037a28.152 28.152 0 0 1 15.652-4.709 28.181 28.181 0 0 1 28.081 28.18 28.15 28.15 0 0 1-33.683 27.564 28.144 28.144 0 0 1-20.446-38.422 28.146 28.146 0 0 1 10.396-12.613Zm18.106 20.952h10.807a2.49 2.49 0 0 1 2.487 2.486 2.486 2.486 0 0 1-2.487 2.487h-10.807v10.808a2.486 2.486 0 0 1-4.973 0v-10.808h-10.742a2.484 2.484 0 0 1-2.486-2.487 2.487 2.487 0 0 1 2.486-2.486h10.742v-10.742a2.487 2.487 0 0 1 4.973 0v10.742Z" fill="#fff"/><path d="m472.262 297.376-.542 1.309.542-1.309Zm-19.155-1.886-.276-1.39.276 1.39Zm-16.974 9.073-1.002-1.002 1.002 1.002Zm-9.074 16.975-1.389-.277 1.389.277Zm1.887 19.154 1.309-.542-1.309.542Zm30.629-40.867.005-1.416h-.002l-.003 1.416Zm-15.652 4.709-.784-1.179.784 1.179Zm35.514 3.58 1.004-1-1.004 1Zm8.219 19.891 1.416.002v-.002h-1.416Zm-4.765 15.636 1.177.788-1.177-.788Zm-12.649 10.351.54 1.31-.54-1.31Zm-30.671-6.152-1.004 1 1.004-1Zm-7.678-14.43 1.389-.273-1.389.273Zm1.634-16.263-1.308-.545 1.308.545Zm28.502 8.339h-1.417v1.417h1.417v-1.417Zm12.566.728-1.002 1.002 1.002-1.002Zm-12.566 4.245v-1.417h-1.417v1.417h1.417Zm-4.245 12.566 1.002-1.002-1.002 1.002Zm-.728-12.566h1.416v-1.417h-1.416v1.417Zm-12.5-4.245 1.002 1.002-1.002-1.002Zm12.5-.728v1.417h1.416v-1.417h-1.416Zm.728-12.5 1.002 1.002-1.002-1.002Zm1.791 46.755a31.732 31.732 0 0 1-17.631-5.348l-1.575 2.356a34.575 34.575 0 0 0 19.206 5.826v-2.834Zm22.441-9.295a31.735 31.735 0 0 1-22.441 9.295v2.834a34.568 34.568 0 0 0 24.444-10.125l-2.003-2.004Zm9.295-22.441a31.735 31.735 0 0 1-9.295 22.441l2.003 2.004a34.57 34.57 0 0 0 10.126-24.445h-2.834Zm-5.348-17.631a31.737 31.737 0 0 1 5.348 17.631h2.834a34.57 34.57 0 0 0-5.826-19.205l-2.356 1.574Zm-14.243-11.689a31.736 31.736 0 0 1 14.243 11.689l2.356-1.574a34.577 34.577 0 0 0-15.515-12.733l-1.084 2.618Zm-18.336-1.806a31.732 31.732 0 0 1 18.336 1.806l1.084-2.618a34.57 34.57 0 0 0-19.973-1.967l.553 2.779Zm-16.25 8.686a31.74 31.74 0 0 1 16.25-8.686l-.553-2.779a34.564 34.564 0 0 0-17.7 9.461l2.003 2.004Zm-8.685 16.249a31.732 31.732 0 0 1 8.685-16.249l-2.003-2.004a34.568 34.568 0 0 0-9.461 17.7l2.779.553Zm1.806 18.336a31.732 31.732 0 0 1-1.806-18.336l-2.779-.553a34.57 34.57 0 0 0 1.967 19.973l2.618-1.084Zm11.689 14.243a31.736 31.736 0 0 1-11.689-14.243l-2.618 1.084a34.575 34.575 0 0 0 12.732 15.515l1.575-2.356Zm17.634-55.984a29.556 29.556 0 0 0-16.439 4.946l1.569 2.359a26.733 26.733 0 0 1 14.864-4.472l.006-2.833Zm20.863 8.705a29.596 29.596 0 0 0-20.861-8.705l-.01 2.833a26.766 26.766 0 0 1 18.864 7.872l2.007-2Zm8.631 20.891a29.601 29.601 0 0 0-8.631-20.891l-2.007 2a26.768 26.768 0 0 1 7.805 18.891h2.833Zm-5.004 16.424a29.559 29.559 0 0 0 5.004-16.422l-2.833-.003a26.725 26.725 0 0 1-4.525 14.848l2.354 1.577Zm-13.286 10.873a29.56 29.56 0 0 0 13.286-10.873l-2.354-1.577a26.723 26.723 0 0 1-12.012 9.83l1.08 2.62Zm-17.088 1.656a29.568 29.568 0 0 0 17.088-1.656l-1.08-2.62a26.727 26.727 0 0 1-15.45 1.498l-.558 2.778Zm-15.127-8.118a29.571 29.571 0 0 0 15.127 8.118l.558-2.778a26.738 26.738 0 0 1-13.678-7.34l-2.007 2Zm-8.064-15.156a29.567 29.567 0 0 0 8.064 15.156l2.007-2a26.739 26.739 0 0 1-7.292-13.703l-2.779.547Zm1.716-17.082a29.567 29.567 0 0 0-1.716 17.082l2.779-.547a26.734 26.734 0 0 1 1.553-15.445l-2.616-1.09Zm10.92-13.247a29.57 29.57 0 0 0-10.92 13.247l2.616 1.09a26.722 26.722 0 0 1 9.873-11.978l-1.569-2.359Zm29.697 20.714h-10.807v2.834h10.807v-2.834Zm2.76 1.143a3.902 3.902 0 0 0-2.76-1.143v2.834c.284 0 .556.112.757.313l2.003-2.004Zm1.144 2.76a3.904 3.904 0 0 0-1.144-2.76l-2.003 2.004c.2.2.313.473.313.756h2.834Zm-1.144 2.76a3.904 3.904 0 0 0 1.144-2.76h-2.834c0 .284-.113.556-.313.757l2.003 2.003Zm-2.76 1.143a3.902 3.902 0 0 0 2.76-1.143l-2.003-2.003c-.201.2-.473.313-.757.313v2.833Zm-10.807 0h10.807v-2.833h-10.807v2.833Zm1.416 9.392v-10.808h-2.833v10.808h2.833Zm-1.143 2.759a3.9 3.9 0 0 0 1.143-2.759h-2.833c0 .283-.113.555-.313.756l2.003 2.003Zm-2.76 1.144a3.904 3.904 0 0 0 2.76-1.144l-2.003-2.003a1.07 1.07 0 0 1-.757.313v2.834Zm-2.76-1.144a3.904 3.904 0 0 0 2.76 1.144v-2.834c-.284 0-.556-.112-.756-.313l-2.004 2.003Zm-1.143-2.759a3.9 3.9 0 0 0 1.143 2.759l2.004-2.003a1.07 1.07 0 0 1-.314-.756h-2.833Zm0-10.808v10.808h2.833v-10.808h-2.833Zm-9.325 1.416h10.742v-2.833h-10.742v2.833Zm-2.76-1.143a3.903 3.903 0 0 0 2.76 1.143v-2.833a1.07 1.07 0 0 1-.756-.313l-2.004 2.003Zm-1.143-2.76c0 1.035.411 2.028 1.143 2.76l2.004-2.003a1.07 1.07 0 0 1-.314-.757h-2.833Zm1.143-2.76a3.903 3.903 0 0 0-1.143 2.76h2.833c0-.283.113-.556.314-.756l-2.004-2.004Zm2.76-1.143a3.903 3.903 0 0 0-2.76 1.143l2.004 2.004c.2-.201.472-.313.756-.313v-2.834Zm10.742 0h-10.742v2.834h10.742v-2.834Zm-1.417-9.325v10.742h2.833v-10.742h-2.833Zm1.143-2.76a3.903 3.903 0 0 0-1.143 2.76h2.833c0-.283.113-.555.314-.756l-2.004-2.004Zm2.76-1.143a3.903 3.903 0 0 0-2.76 1.143l2.004 2.004c.2-.201.472-.313.756-.313v-2.834Zm2.76 1.143a3.903 3.903 0 0 0-2.76-1.143v2.834c.284 0 .556.112.757.313l2.003-2.004Zm1.143 2.76a3.903 3.903 0 0 0-1.143-2.76l-2.003 2.004c.2.201.313.473.313.756h2.833Zm0 10.742v-10.742h-2.833v10.742h2.833Z" fill="#fff" mask="url(#blip-health__i)"/><path fill-rule="evenodd" clip-rule="evenodd" d="M310.177 266.806c10.45-2.327 20.809 4.257 23.136 14.707 2.305 10.347 9.125 38.729 19.006 66.947 4.948 14.13 10.498 27.738 16.411 38.854 5.779 10.864 10.898 17.389 14.653 20.414.195.044.448.095.765.149 1.713.288 4.292.471 7.798.409 7.008-.122 15.687-1.167 24.557-2.659 8.751-1.472 17.127-3.28 23.355-4.734a391.272 391.272 0 0 0 9.369-2.306l.492-.13.111-.03.017-.004.003-.001c10.335-2.786 20.974 3.333 23.761 13.669 2.789 10.337-3.331 20.976-13.668 23.765l-5.048-18.717c5.048 18.717 5.046 18.717 5.044 18.718l-.023.006-.052.014-.175.047-.35.092-.277.073c-.537.141-1.309.341-2.286.589a433.591 433.591 0 0 1-8.107 1.972c-6.723 1.568-15.936 3.562-25.736 5.211-9.682 1.628-20.517 3.019-30.311 3.19-4.894.085-10.038-.122-14.911-.942-4.597-.774-10.598-2.353-15.933-6.134-11.459-8.116-20.378-21.482-27.277-34.453-7.193-13.521-13.488-29.152-18.774-44.249-10.587-30.235-17.79-60.255-20.257-71.33-2.327-10.45 4.257-20.809 14.707-23.137Z" fill="#CB9685"/><path fill-rule="evenodd" clip-rule="evenodd" d="M297.915 274.87c7.099-9.17 20.287-10.849 29.457-3.751 8.372 6.48 14.053 15.49 18.127 24.036 4.173 8.754 7.438 18.705 10.161 28.726 3.845 14.152 7.09 30.42 10.143 45.73 1.188 5.956 2.347 11.766 3.501 17.251 2.388 11.348-4.875 22.483-16.223 24.871-11.348 2.388-22.484-4.876-24.872-16.224-1.372-6.523-2.655-12.955-3.91-19.254-2.932-14.706-5.718-28.679-9.165-41.363-2.408-8.865-4.901-16.123-7.544-21.667-2.742-5.753-4.934-8.132-5.924-8.898-9.17-7.098-10.849-20.287-3.751-29.457Z" fill="#EBEEF5"/><path d="M317.297 400.891c-.431-4.629 1.756-9.034 5.762-12.642a449.414 449.414 0 0 1 1.596 9.354v.415a11.626 11.626 0 0 0 8.731 9.13 44.835 44.835 0 0 0 14.365.862 55.735 55.735 0 0 0 12.387-2.49 13.854 13.854 0 0 0 9.321-15.084v-.096c-.351-2.107-.718-4.246-1.085-6.384 4.645 2.825 7.629 6.767 7.981 11.396.973 10.407-11.269 19.761-27.853 21.309-16.584 1.548-30.327-5.395-31.317-15.786l.112.016Z" fill="#D2DFE6"/><path opacity=".1" d="M349.704 333.23s13.249 75.717 9.243 96.195c-4.006 20.479-9.243 10.531-9.243 10.531v-29.252l-17.669-128.711 17.669 51.237Z" fill="#000"/><path d="M215.223 733.035s41.627-13.647 73.072 0V529.829l-70.902-1.597-2.17 204.803Z" fill="#DCDFE5"/><path d="M159.916 1023.15c2.155-13.66 4.086-26.113 6.081-38.547.751-4.788 1.597-9.449 2.395-14.189.574-3.624 2.25-5.028 6.161-3.193a32.69 32.69 0 0 0 20.287 2.347c4.325-.878 5.427 1.596 5.124 4.788-.623 6.895-1.597 13.743-2.155 20.638-.894 11.306-.942 22.686-2.602 33.866a28.183 28.183 0 0 1-7.087 14.47c-6.991 7.64-20.319 2.69-24.293-6.6a71.685 71.685 0 0 1-3.911-13.58Z" fill="#D2DFE6"/><path fill-rule="evenodd" clip-rule="evenodd" d="M302.588 936.272c7.361-.506 13.739 5.05 14.246 12.411l1.245 18.084c.507 7.361-5.05 13.74-12.411 14.246-7.361.507-13.739-5.049-14.245-12.41l-1.245-18.085c-.507-7.361 5.049-13.739 12.41-14.246Z" fill="#CB9685"/><path d="M360.01 1002.24a14.03 14.03 0 0 1 1.692 10.28c-1.022 4.26-3.975 6.24-10.04 7.55-7.598 1.6-14.637-.3-21.676-2.81-8.507-3.03-16.871-7.1-25.666-8.6-10.519-1.79-13.855-8.53-15.068-17.209-.798-5.586-.159-11.38 0-17.063 0-2.41 1.197-3.607 3.959-3.064a32.817 32.817 0 0 0 23.016-3.017 3.61 3.61 0 0 1 3.32.606c4.789 10.439 15.212 13.711 24.102 18.915 3.911 2.282 8.157 4.309 11.349 7.374a31.814 31.814 0 0 1 5.012 7.038Z" fill="#D2DFE6"/><path d="M305.089 972.796c7.335-.502 13.217-1.844 13.138-2.996-.079-1.152-6.089-1.678-13.424-1.176-7.335.503-13.217 1.844-13.138 2.996.079 1.152 6.089 1.679 13.424 1.176Z" fill="#CB9685"/><path d="m317.935 964.843.335 4.948-26.544 1.82-.495-5.762 26.704-1.006Z" fill="#CB9685"/><path fill-rule="evenodd" clip-rule="evenodd" d="M185.282 941.319c7.377.143 13.241 6.239 13.098 13.616l-.351 18.132c-.143 7.377-6.239 13.242-13.616 13.099-7.377-.143-13.241-6.239-13.098-13.616l.351-18.132c.143-7.377 6.239-13.242 13.616-13.099Z" fill="#CB9685"/><path d="M197.518 976.064c.023-1.155-5.717-2.205-12.821-2.347-7.104-.141-12.881.68-12.904 1.835-.023 1.155 5.717 2.205 12.821 2.347 7.104.141 12.881-.68 12.904-1.835Z" fill="#CB9685"/><path d="m197.616 971.132-.095 4.948-25.73-.51.015-5.778 25.81 1.34Z" fill="#CB9685"/><path d="M240.649 475.176h-.718c-47.086 0-74.828 7.326-74.844 14.684l.08 467.833c0 2.091 1.086 3.703 5.683 4.422 2.553.415 14.892-.511 18.307-1.054 6.178-.989 10.264-2.697 10.264-4.645L215.558 750.8l10.726-188.346a131.124 131.124 0 0 0 27.597 2.075c12.562.127 11.461-1.341 16.904-2.586l5.283 189.559 5.012 204.882c0 3.033 9.896 5.491 22.107 5.491h.718c12.211 0 22.123-2.458 22.123-5.491l.143-467.832c0-7.407-38.451-13.36-85.522-13.376Z" fill="#0747A6"/><path opacity=".5" fill-rule="evenodd" clip-rule="evenodd" d="M322.934 523.363a.702.702 0 0 1 .699.706l-.009 1.774a.702.702 0 1 1-1.404-.007l.009-1.774a.701.701 0 0 1 .705-.699Zm-.044 8.872a.702.702 0 0 1 .699.705l-.018 3.549a.702.702 0 1 1-1.404-.007l.018-3.549a.701.701 0 0 1 .705-.698Zm-.053 10.646a.702.702 0 0 1 .699.705l-.018 3.549a.702.702 0 1 1-1.404-.007l.018-3.549a.702.702 0 0 1 .705-.698Zm-.052 10.646c.388.002.7.318.698.705l-.017 3.549a.702.702 0 0 1-1.404-.007l.017-3.549a.702.702 0 0 1 .706-.698Zm-.053 10.646a.702.702 0 0 1 .699.705l-.018 3.549a.701.701 0 1 1-1.404-.007l.018-3.549a.701.701 0 0 1 .705-.698Zm-.053 10.646a.702.702 0 0 1 .699.705l-.018 3.549a.702.702 0 0 1-1.404-.007l.018-3.549a.701.701 0 0 1 .705-.698Zm-.052 10.646a.7.7 0 0 1 .698.705l-.017 3.549a.702.702 0 0 1-1.404-.007l.017-3.549a.702.702 0 0 1 .706-.698Zm-.053 10.646a.701.701 0 0 1 .699.705l-.018 3.549a.702.702 0 0 1-1.404-.007l.018-3.549a.7.7 0 0 1 .705-.698Zm-.053 10.645a.702.702 0 0 1 .699.706l-.018 3.549a.7.7 0 1 1-1.404-.007l.018-3.549a.703.703 0 0 1 .705-.699Zm-.052 10.646c.387.002.7.318.698.706l-.017 3.549a.702.702 0 0 1-1.404-.007l.017-3.549a.702.702 0 0 1 .706-.699Zm-.053 10.646a.702.702 0 0 1 .699.706l-.018 3.549a.702.702 0 0 1-1.404-.007l.018-3.549a.701.701 0 0 1 .705-.699Zm-.053 10.646a.702.702 0 0 1 .699.706l-.018 3.548a.701.701 0 1 1-1.404-.006l.018-3.549a.702.702 0 0 1 .705-.699Zm-.052 10.646c.387.002.7.318.698.706l-.017 3.548a.702.702 0 1 1-1.404-.007l.017-3.548a.702.702 0 0 1 .706-.699Zm-.053 10.646a.702.702 0 0 1 .699.706l-.018 3.548a.702.702 0 1 1-1.404-.007l.018-3.548a.701.701 0 0 1 .705-.699Zm-.053 10.646a.702.702 0 0 1 .699.706l-.018 3.548a.702.702 0 1 1-1.404-.007l.018-3.548a.702.702 0 0 1 .705-.699Zm-.052 10.646c.387.002.7.318.698.706l-.017 3.548a.702.702 0 1 1-1.404-.007l.017-3.548a.702.702 0 0 1 .706-.699Zm-.053 10.646a.702.702 0 0 1 .699.706l-.018 3.548a.702.702 0 1 1-1.404-.007l.018-3.548a.701.701 0 0 1 .705-.699Zm-.053 10.646a.702.702 0 0 1 .699.706l-.018 3.548a.702.702 0 1 1-1.404-.007l.018-3.548a.702.702 0 0 1 .705-.699Zm-.052 10.646c.387.002.7.318.698.706l-.017 3.548a.702.702 0 1 1-1.404-.007l.017-3.548a.702.702 0 0 1 .706-.699Zm-.053 10.646a.702.702 0 0 1 .699.705l-.018 3.549a.702.702 0 1 1-1.404-.007l.017-3.548a.702.702 0 0 1 .706-.699Zm-.053 10.646a.702.702 0 0 1 .699.705l-.018 3.549a.702.702 0 1 1-1.404-.007l.018-3.549a.702.702 0 0 1 .705-.698Zm-.052 10.646c.387.002.7.318.698.705l-.017 3.549a.702.702 0 1 1-1.404-.007l.017-3.549a.702.702 0 0 1 .706-.698Zm-.053 10.646c.388.002.7.318.699.705l-.018 3.549a.702.702 0 1 1-1.404-.007l.017-3.549a.702.702 0 0 1 .706-.698Zm-.053 10.646a.702.702 0 0 1 .699.705l-.018 3.549a.702.702 0 1 1-1.404-.007l.018-3.549a.702.702 0 0 1 .705-.698Zm-.052 10.646c.387.002.7.318.698.705l-.017 3.549a.703.703 0 0 1-1.404-.007l.017-3.549a.702.702 0 0 1 .706-.698Zm-.053 10.646c.388.002.7.318.699.705l-.018 3.549a.702.702 0 0 1-1.404-.007l.017-3.549a.702.702 0 0 1 .706-.698Zm-.053 10.646a.702.702 0 0 1 .699.705l-.018 3.549a.7.7 0 1 1-1.404-.007l.018-3.549a.702.702 0 0 1 .705-.698Zm-.052 10.646c.387.002.7.317.698.705l-.017 3.549a.702.702 0 0 1-1.404-.007l.017-3.549a.702.702 0 0 1 .706-.698Zm-.053 10.646c.388.001.7.317.699.705l-.018 3.549a.702.702 0 0 1-1.404-.007l.017-3.549a.702.702 0 0 1 .706-.698Zm-.053 10.646a.701.701 0 0 1 .699.705l-.018 3.549a.701.701 0 1 1-1.404-.007l.018-3.549a.701.701 0 0 1 .705-.698Zm-.052 10.645c.387.002.7.318.698.706l-.017 3.549a.702.702 0 0 1-1.404-.007l.017-3.549a.703.703 0 0 1 .706-.699Zm-.053 10.646c.388.002.7.318.699.706l-.018 3.549a.702.702 0 0 1-1.404-.007l.017-3.549a.703.703 0 0 1 .706-.699Zm-.053 10.646a.702.702 0 0 1 .699.706l-.018 3.549a.701.701 0 1 1-1.404-.007l.018-3.549a.702.702 0 0 1 .705-.699Zm-.052 10.646c.387.002.7.318.698.706l-.017 3.549a.702.702 0 0 1-1.404-.007l.017-3.549a.702.702 0 0 1 .706-.699Zm-.053 10.646c.388.002.7.318.699.706l-.018 3.548a.702.702 0 0 1-1.404-.006l.017-3.549a.702.702 0 0 1 .706-.699Zm-.053 10.646a.702.702 0 0 1 .699.706l-.018 3.548a.702.702 0 1 1-1.404-.007l.018-3.548a.702.702 0 0 1 .705-.699Zm-.052 10.646c.387.002.7.318.698.706l-.017 3.548a.702.702 0 1 1-1.404-.007l.017-3.548a.702.702 0 0 1 .706-.699Zm-.053 10.646c.388.002.7.318.698.706l-.017 3.548a.702.702 0 1 1-1.404-.007l.017-3.548a.702.702 0 0 1 .706-.699Zm-.053 10.646a.702.702 0 0 1 .699.706l-.018 3.548a.702.702 0 1 1-1.404-.007l.018-3.548a.702.702 0 0 1 .705-.699Zm-.052 10.646c.387.002.7.318.698.706l-.017 3.548a.702.702 0 1 1-1.405-.007l.018-3.548a.702.702 0 0 1 .706-.699Zm-.053 10.646c.388.002.7.318.698.706l-.008 1.774a.702.702 0 0 1-1.404-.007l.008-1.774a.702.702 0 0 1 .706-.699Z" fill="#C2CFEF"/><path d="M197.266 503.731a25.41 25.41 0 0 1-28.476 21.915 27.144 27.144 0 0 1-3.479-.718v-36.711a.536.536 0 0 1 0-.16c.175-2.219 3.926-4.294 10.375-6.129 3.064-.862 6.719-1.676 10.917-2.41a25.317 25.317 0 0 1 10.663 24.213Z" fill="#95A2CE"/><path opacity=".5" fill-rule="evenodd" clip-rule="evenodd" d="M170.403 524.944a.702.702 0 0 1 .717.686l.039 1.72a.702.702 0 0 1-1.404.032l-.038-1.72a.702.702 0 0 1 .686-.718Zm.193 8.599a.703.703 0 0 1 .717.686l.077 3.44a.702.702 0 1 1-1.403.032l-.078-3.44a.703.703 0 0 1 .687-.718Zm.231 10.319a.703.703 0 0 1 .718.687l.077 3.439a.703.703 0 0 1-1.404.032l-.077-3.44a.702.702 0 0 1 .686-.718Zm.231 10.32a.702.702 0 0 1 .718.686l.077 3.439a.702.702 0 1 1-1.404.032l-.077-3.44a.702.702 0 0 1 .686-.717Zm.232 10.319a.7.7 0 0 1 .717.686l.078 3.44a.702.702 0 0 1-1.404.031l-.077-3.44a.7.7 0 0 1 .686-.717Zm.231 10.319a.702.702 0 0 1 .718.686l.077 3.44a.7.7 0 1 1-1.404.031l-.077-3.44a.702.702 0 0 1 .686-.717Zm.232 10.319a.702.702 0 0 1 .717.686l.078 3.44a.702.702 0 0 1-1.404.031l-.077-3.439a.702.702 0 0 1 .686-.718Zm.231 10.319a.702.702 0 0 1 .718.686l.077 3.44a.702.702 0 1 1-1.404.031l-.077-3.439a.702.702 0 0 1 .686-.718Zm.232 10.319a.702.702 0 0 1 .717.686l.077 3.44a.702.702 0 1 1-1.403.032l-.078-3.44a.703.703 0 0 1 .687-.718Zm.231 10.319a.703.703 0 0 1 .718.687l.077 3.439a.702.702 0 0 1-1.404.032l-.077-3.44a.702.702 0 0 1 .686-.718Zm.232 10.32a.702.702 0 0 1 .717.686l.077 3.439a.702.702 0 1 1-1.403.032l-.078-3.44a.702.702 0 0 1 .687-.717Zm.231 10.319a.702.702 0 0 1 .718.686l.077 3.44a.703.703 0 0 1-1.404.031l-.077-3.44a.7.7 0 0 1 .686-.717Zm.231 10.319a.702.702 0 0 1 .718.686l.077 3.44a.7.7 0 1 1-1.404.031l-.077-3.44a.703.703 0 0 1 .686-.717Zm.232 10.319a.7.7 0 0 1 .717.686l.078 3.44a.702.702 0 0 1-1.404.031l-.077-3.439a.702.702 0 0 1 .686-.718Zm.231 10.319a.702.702 0 0 1 .718.686l.077 3.44a.702.702 0 1 1-1.404.031l-.077-3.439a.702.702 0 0 1 .686-.718Zm.232 10.319a.702.702 0 0 1 .717.686l.077 3.44a.702.702 0 1 1-1.403.032l-.077-3.44a.702.702 0 0 1 .686-.718Zm.231 10.319a.703.703 0 0 1 .718.687l.077 3.439a.702.702 0 0 1-1.404.032l-.077-3.44a.702.702 0 0 1 .686-.718Zm.232 10.32a.7.7 0 0 1 .717.686l.077 3.439a.702.702 0 1 1-1.403.032l-.078-3.44a.702.702 0 0 1 .687-.717Zm.231 10.319a.702.702 0 0 1 .718.686l.077 3.44a.702.702 0 0 1-1.404.031l-.077-3.44a.7.7 0 0 1 .686-.717Zm.231 10.319a.702.702 0 0 1 .718.686l.077 3.44a.7.7 0 1 1-1.404.031l-.077-3.44a.702.702 0 0 1 .686-.717Zm.232 10.319a.702.702 0 0 1 .718.686l.038 1.72v.036l-.05 1.729a.703.703 0 1 1-1.404-.041l.05-1.711-.038-1.701a.702.702 0 0 1 .686-.718Zm-.176 10.366a.702.702 0 0 1 .681.722l-.1 3.458a.703.703 0 1 1-1.404-.041l.101-3.458a.701.701 0 0 1 .722-.681Zm-.301 10.375a.702.702 0 0 1 .681.722l-.1 3.458a.703.703 0 1 1-1.404-.041l.101-3.458a.701.701 0 0 1 .722-.681Zm-.301 10.375a.702.702 0 0 1 .681.722l-.1 3.458a.703.703 0 1 1-1.404-.041l.101-3.458a.701.701 0 0 1 .722-.681Zm-.301 10.375a.702.702 0 0 1 .681.722l-.1 3.458a.703.703 0 1 1-1.404-.041l.101-3.458a.701.701 0 0 1 .722-.681Zm-.301 10.375a.702.702 0 0 1 .681.722l-.1 3.458a.703.703 0 1 1-1.404-.041l.101-3.458a.701.701 0 0 1 .722-.681Zm-.301 10.375a.702.702 0 0 1 .681.722l-.1 3.458a.703.703 0 1 1-1.404-.041l.101-3.458a.701.701 0 0 1 .722-.681Zm-.301 10.375a.702.702 0 0 1 .681.722l-.1 3.458a.703.703 0 1 1-1.404-.041l.101-3.458a.701.701 0 0 1 .722-.681Zm-.301 10.375a.701.701 0 0 1 .681.722l-.1 3.458a.703.703 0 1 1-1.404-.041l.101-3.458a.701.701 0 0 1 .722-.681Zm-.301 10.375a.701.701 0 0 1 .681.722l-.1 3.458a.703.703 0 1 1-1.404-.041l.101-3.458a.702.702 0 0 1 .722-.681Zm-.301 10.375a.701.701 0 0 1 .681.722l-.1 3.458a.703.703 0 1 1-1.404-.041l.101-3.458a.702.702 0 0 1 .722-.681Zm-.301 10.375a.701.701 0 0 1 .681.722l-.1 3.458a.703.703 0 0 1-1.404-.04l.101-3.459a.702.702 0 0 1 .722-.681Zm-.301 10.375a.701.701 0 0 1 .681.722l-.1 3.458a.703.703 0 0 1-1.404-.04l.101-3.459a.702.702 0 0 1 .722-.681Zm-.301 10.375a.701.701 0 0 1 .681.722l-.1 3.458a.703.703 0 0 1-1.404-.04l.101-3.459a.702.702 0 0 1 .722-.681Zm-.301 10.375a.701.701 0 0 1 .681.722l-.1 3.458a.703.703 0 0 1-1.404-.04l.101-3.459a.702.702 0 0 1 .722-.681Zm-.301 10.375a.7.7 0 0 1 .681.722l-.1 3.458a.703.703 0 0 1-1.404-.04l.101-3.459a.702.702 0 0 1 .722-.681Zm-.301 10.375a.7.7 0 0 1 .681.722l-.1 3.458a.703.703 0 0 1-1.404-.04l.101-3.459a.702.702 0 0 1 .722-.681Zm-.301 10.375a.7.7 0 0 1 .681.722l-.1 3.458a.703.703 0 0 1-1.403-.04l.1-3.459a.702.702 0 0 1 .722-.681Zm-.301 10.375a.7.7 0 0 1 .681.722l-.1 3.458a.703.703 0 0 1-1.403-.04l.1-3.459a.702.702 0 0 1 .722-.681Zm-.301 10.375a.7.7 0 0 1 .681.722l-.1 3.458a.702.702 0 1 1-1.403-.04l.1-3.459a.702.702 0 0 1 .722-.681Zm-.301 10.375a.7.7 0 0 1 .681.722l-.1 3.458a.702.702 0 1 1-1.403-.04l.1-3.459a.702.702 0 0 1 .722-.681Zm-.301 10.375a.7.7 0 0 1 .681.722l-.05 1.729a.702.702 0 1 1-1.403-.041l.05-1.729a.702.702 0 0 1 .722-.681Z" fill="#C2CFEF"/><path d="M199.692 504.035a27.84 27.84 0 0 1-27.55 24.261 25.528 25.528 0 0 1-3.655-.239c-.798-.112-2.059-.383-3.193-.655v-5.043c1.309.335 3.049.766 3.799.861a22.933 22.933 0 0 0 25.746-19.728 32.2 32.2 0 0 0-.894-9.577c1.597.144 3.32.303 5.076.431.68 3.182.906 6.444.671 9.689Z" fill="#ADB9E0"/><path opacity=".5" fill-rule="evenodd" clip-rule="evenodd" d="M250.665 491.433h.886c1.576 0 3.152.019 4.746.039l.079.001c1.623.02 3.266.039 4.959.039 1.692 0 2.751-.019 3.762-.039l.099-.002c.979-.02 1.933-.038 3.386-.038h.886v27.286c0 2.801-.616 5.76-1.964 8.053-1.362 2.316-3.518 4.006-6.52 4.006-5.843 0-10.319-5.523-10.319-12.059v-27.286Zm1.772 1.773v25.513c0 5.85 3.951 10.287 8.547 10.287 2.218 0 3.861-1.207 4.993-3.132 1.146-1.95 1.719-4.577 1.719-7.155v-25.512c-.967.006-1.705.02-2.466.035l-.098.002c-1.016.02-2.088.04-3.797.04-1.706 0-3.359-.02-4.981-.04l-.074-.001a504.49 504.49 0 0 0-3.843-.037Z" fill="#C2CFEF"/><path d="M326.187 488.567v32.945a22.983 22.983 0 0 1-17.063-19.282 32.2 32.2 0 0 1 .894-9.577l-2.713.224a25.284 25.284 0 0 1 6.384-11.253c7.901 2.027 12.498 4.389 12.498 6.943Z" fill="#95A2CE"/><path d="M326.172 521.512v5.012a27.992 27.992 0 0 1-21.916-23.671 35.435 35.435 0 0 1 .671-9.768l2.362-.224 2.714-.223a32.165 32.165 0 0 0-.894 9.577 22.982 22.982 0 0 0 17.063 19.281v.016Z" fill="#ADB9E0"/><path d="M319.387 268.601c-10.439-3.048-40.191-4.517-75.195-3.368-20.462.687-39.073 2.139-53.056 3.975-15.961 1.596-26.033 3.831-26.033 6.384v222.872c0 4.788 36.073 8.619 80.59 8.619s80.574-3.863 80.574-8.619V275.465c-.016-.224-.016-5.236-6.88-6.864Z" fill="#3F7DE8"/><path d="m275.717 264.898-13.424 33.088a5.188 5.188 0 0 1-9.002 0l-22.682-32.146a133.629 133.629 0 0 1 20.846-1.357c8.508 0 16.648.143 24.262.415Z" fill="#B3D4FF"/><path d="M298.031 145.155v60.366c0 21.708-15.243 27.821-35.626 32.258a46.057 46.057 0 0 1-9.688 1.022h-2.411a45.26 45.26 0 0 1-32.005-13.287 45.27 45.27 0 0 1-13.23-32.028v-48.331a45.329 45.329 0 0 1 45.235-45.331h2.411a45.294 45.294 0 0 1 17.344 3.451 45.305 45.305 0 0 1 24.526 24.533 45.325 45.325 0 0 1 3.444 17.347Z" fill="#CB9685"/><path d="M252.716 238.801h-2.41a45.218 45.218 0 0 1-9.689-1.038v27.901a9.765 9.765 0 0 0 2.861 6.907 9.773 9.773 0 0 0 6.908 2.861h2.25a9.77 9.77 0 0 0 9.769-9.768v-27.885a46.133 46.133 0 0 1-9.689 1.022Z" fill="#CB9685"/><path d="M240.649 248.235v12.945s2.346-8.875 10.902-8.923c8.555-.048 10.886 1.788 10.886 1.788v-7.055l-21.82-5.267.032 6.512Z" fill="#BF7D68"/><path d="m211.088 169.783 3.001 20.511a7.056 7.056 0 0 1-7.869-6.034l-.958-6.544a7.04 7.04 0 0 1 5.826-7.933Z" fill="#E2AAB7"/><path d="M306.538 102.091c-5.459-3.033-15.961-.463-19.856-5.906-3.895-5.443-15.77-9.705-24.708-1.517-8.939 8.189-16.824 2.57-16.824 2.57-20.925-10.151-29.561 4.39-31.923 7.981-2.362 3.591 2.729 8.348-17.733 15.02-20.463 6.672-13.184 25.123-10.12 28.731 3.065 3.607 2.73 3.527.798 16.36-1.436 9.577 18.627 42.905 29.481 57.669 8.572 19.457 37.653 26.704 52.003 27.023 13.232.255 21.819-2.745 26.48-5.14a7.984 7.984 0 0 0 4.374-7.102l.175-19.537v-2.746c-.431-15.562-3.192-23-15.004-23-10.71 0-19.441 10.087-19.441 22.49a44.28 44.28 0 0 0 1.165 8.156c-10.869.447-22.793 0-28.427-.958a22.602 22.602 0 0 1-15.291-10.79c-3.193-13.487 5.985-25.123-3.001-34.253-5.124-5.22 7.645-15.435 12.657-17.702 5.012-2.266 6.098-8.555 4.948-10.662-4.405-8.077 2.554-10.79 3.799-11.412 1.82-.91 4.98-9.577 30.455 6.384 18.42 11.636 44.182 2.65 47.885-13.12a25.844 25.844 0 0 0-11.892-28.539Zm-36.025 112.848c0-8.923 5.89-16.201 13.136-16.201 5.332 0 8.54 0 8.763 19.569h.24a72.623 72.623 0 0 1-9.801 2.952 80.37 80.37 0 0 1-11.077 1.469 41.823 41.823 0 0 1-1.261-7.789Z" fill="#2C2A46"/><path d="M221.607 206.192s3.863-18.612-6.193-22.49c-10.056-3.879-12.434 10.135-7.63 16.52 4.805 6.385 13.823 5.97 13.823 5.97Z" fill="#CB9685"/><path d="M142.47 296.805s14.86-32.848 48.06-31.843c33.2 1.006 40.143.878 40.143.878l2.666 76.44 2.666 54.445-30.615 101.483V764.67s-48.794 13.168-59.377 2.187c-25.794-26.959-17.557-154.62-13.806-245.281a678.183 678.183 0 0 0-2.379-93.615l12.642-131.156Z" fill="#F3F6FA"/><path fill-rule="evenodd" clip-rule="evenodd" d="m233.339 342.28-2.666-76.44s-6.943.128-40.143-.878c-33.2-1.005-48.06 31.843-48.06 31.843l-12.642 131.156a678.183 678.183 0 0 1 2.379 93.615c-.33 7.971-.695 16.229-1.068 24.679-3.869 87.653-8.652 196.013 14.874 220.602 10.583 10.981 59.377-2.187 59.377-2.187V498.208l30.615-101.483-2.666-54.445Zm1.058 54.247-2.653-54.18-2.612-74.906-.067-.001a469.307 469.307 0 0 1-6.039-.066c-5.896-.094-15.939-.314-32.544-.816-16.009-.485-27.618 7.176-35.288 15.062-3.835 3.942-6.662 7.921-8.529 10.913a56.655 56.655 0 0 0-2.079 3.606 36.846 36.846 0 0 0-.554 1.095l-12.6 130.729a679.606 679.606 0 0 1 2.369 93.681c-.33 7.981-.695 16.245-1.068 24.699-1.748 39.602-3.679 83.37-3.106 121.738.347 23.279 1.617 44.507 4.395 61.57 1.389 8.531 3.149 15.981 5.341 22.107 2.198 6.141 4.796 10.852 7.804 13.995 1.061 1.1 2.692 1.986 4.887 2.632 2.186.643 4.826 1.018 7.783 1.169 5.915.302 12.891-.299 19.609-1.253 6.705-.952 13.091-2.245 17.806-3.302a244.105 244.105 0 0 0 6.542-1.562V497.973l30.603-101.446Z" fill="#F3F6FA"/><path d="M344.591 296.821s-5.156-31.748-38.308-31.924H279.5l-3.113 76.121 2.666 69.369 16.839 81.931v266.414s31.333 10.55 41.963-.431c38.308-39.601 19.361-330.404 19.361-330.404l-12.625-131.076Z" fill="#F3F6FA"/><path fill-rule="evenodd" clip-rule="evenodd" d="M295.892 758.732s31.333 10.55 41.963-.431c38.308-39.601 19.361-330.404 19.361-330.404l-12.625-131.076s-5.156-31.748-38.308-31.924H279.5l-3.113 76.121 2.666 69.369 16.839 81.931v266.414Zm-15.249-348.538 16.845 81.961v265.41l.236.072c.861.262 2.107.625 3.637 1.028 3.063.807 7.246 1.767 11.745 2.388 4.51.623 9.27.895 13.509.364 4.262-.534 7.795-1.853 10.093-4.226 4.489-4.641 8.3-13.175 11.436-24.87 3.118-11.632 5.51-26.151 7.311-42.527 3.601-32.746 4.824-72.742 4.85-111.547.026-38.795-1.144-76.358-2.321-104.226a2619.992 2619.992 0 0 0-1.622-33.463 1766.24 1766.24 0 0 0-.535-9.289l-.15-2.437-.04-.622-.012-.185-12.617-130.992-.004-.022a25.352 25.352 0 0 0-.253-1.187 39.321 39.321 0 0 0-.997-3.458c-.968-2.88-2.59-6.713-5.203-10.541-5.192-7.606-14.314-15.246-30.272-15.331h-25.247l-3.047 74.526 2.658 69.174Z" fill="#F3F6FA"/><g filter="url(#blip-health__j)"><path d="m209.125 331.106-11.045 12.259a12.485 12.485 0 0 0-2.39 8.336 12.486 12.486 0 0 0 3.619 7.881l36.711 37.078v-11.604l-1.692-28.73-21.165-30.519-4.038 5.299Z" fill="#FAFCFF"/></g><g filter="url(#blip-health__k)"><path d="m230.609 265.84-33.519 22.65a14.511 14.511 0 0 0-3.639 18.228l36.121 56.647 5.666 8.731-4.629-106.256Z" fill="#FAFCFF"/></g><g filter="url(#blip-health__l)"><path d="m300.84 330.117 11.045 12.259a12.479 12.479 0 0 1-1.229 16.217l-36.712 37.078v-11.62l1.692-28.731 21.117-30.598 4.087 5.395Z" fill="#FAFCFF"/></g><g filter="url(#blip-health__m)"><path d="m279.244 264.835 33.519 22.633a14.511 14.511 0 0 1 3.656 18.229l-36.121 56.647-5.667 8.747 4.613-106.256Z" fill="#FAFCFF"/></g><path opacity=".05" d="M181.368 307.5s-21.085 66.528-15.961 94.476c2.905 16.09-8.827 4.039-8.827 4.039l-8.699-27.135 33.487-71.38Z" fill="#000"/><path d="M312.013 461.433h-69.608a11.168 11.168 0 0 1-11.355-8.683 11.185 11.185 0 0 1 .038-5.124l17.255-97.844a17.125 17.125 0 0 1 16.169-13.743H334.2a11.173 11.173 0 0 1 11.332 13.743l-17.286 97.844a17.096 17.096 0 0 1-16.233 13.807Z" fill="#fff"/><path opacity=".5" d="M308.965 392.542a7.178 7.178 0 0 0-6.097-7.262 25.07 25.07 0 0 0-5.14-.527 17.56 17.56 0 0 0-8.268 1.772 13.06 13.06 0 0 0-6.177 10.024c-.383 2.649-.415 6.384 1.596 9.05 1.692 2.139 5.443 3.192 8.476 3.336l-.431 2.378a1.187 1.187 0 0 0 .238 1.024c.116.14.263.252.429.327.167.074.348.109.53.102h.335c.32-.034.624-.156.878-.351 1.373-1.022 3.193-2.363 4.948-3.783l.782-.623a31.59 31.59 0 0 0 3.943-3.511 17.89 17.89 0 0 0 3.958-11.956Z" fill="#87DDE8"/><path fill-rule="evenodd" clip-rule="evenodd" d="m174.42 320.098-.002.003-.006.015-.054.115-.241.526c-.218.478-.546 1.205-.965 2.153a343.37 343.37 0 0 0-3.453 8.088c-2.835 6.869-6.457 16.217-9.684 26.27-3.26 10.154-5.94 20.484-7.137 29.442-1.214 9.088-.502 14.027.203 15.926.502.412 3.098 2.209 11.885 2.692 10.782.593 25.039-1.278 40.173-4.529 14.862-3.193 29.396-7.452 40.305-10.953a480.86 480.86 0 0 0 12.997-4.372c1.547-.546 2.747-.981 3.547-1.273l.892-.329.208-.078.042-.016c9.698-3.663 20.53 1.229 24.193 10.927 3.663 9.698-1.229 20.529-10.927 24.192l-6.279-16.622c6.279 16.622 6.276 16.624 6.273 16.625l-.036.013-.085.032-.296.111a377.697 377.697 0 0 1-5.032 1.818 520.715 520.715 0 0 1-14.023 4.717c-11.593 3.721-27.4 8.369-43.894 11.912-16.223 3.485-34.338 6.178-50.119 5.31-14.314-.787-34.852-5.044-43.694-23.944l-.009-.019c-5.481-11.75-5.047-25.792-3.535-37.11 1.611-12.059 5.008-24.75 8.603-35.948 3.628-11.3 7.64-21.637 10.725-29.114a389.634 389.634 0 0 1 3.83-8.969c.476-1.075.859-1.923 1.128-2.514.134-.295.241-.527.316-.69l.09-.195.04-.085c.001-.003.003-.005 17.011 7.936l-17.008-7.941c4.385-9.394 15.555-13.453 24.949-9.068 9.392 4.385 13.452 15.553 9.069 24.946Z" fill="#CB9685"/><path d="M172.413 292.576c-17.781 12.274-49.847 91.204-37.397 117.86l37.397-117.86Z" fill="#F3F6FA"/><path fill-rule="evenodd" clip-rule="evenodd" d="M184.439 309.788c9.463-6.609 11.82-19.63 5.255-29.141-6.588-9.544-19.665-11.94-29.209-5.352-4.915 3.393-8.948 8.01-12.055 12.128-3.298 4.37-6.479 9.434-9.458 14.785-5.962 10.709-11.715 23.658-16.394 36.915-4.664 13.212-8.5 27.403-10.28 40.564-1.656 12.25-2.082 27.27 3.693 39.634 4.907 10.507 17.403 15.047 27.91 10.139 10.507-4.907 15.047-17.403 10.139-27.91.003.006-.037-.079-.101-.276a9.248 9.248 0 0 1-.232-.881c-.175-.805-.34-1.928-.427-3.411-.179-3.015-.007-6.922.634-11.668 1.287-9.518 4.245-20.826 8.264-32.212 4.003-11.342 8.823-22.092 13.486-30.468 2.333-4.191 4.477-7.516 6.288-9.916 1.652-2.189 2.525-2.935 2.515-2.947a.12.12 0 0 0-.028.017Z" fill="#F3F6FA"/><path d="m152.909 397.284.335.127 3.958 4.996 1.389 8.955-7.63 12.705-23.878 6.576-7.869-5.091-4.916-3.336-1.293-4.533 1.117-3.241 3.145-7.486 17.398-6.4h7.31l10.934-3.272Z" fill="#F3F6FA"/><path d="M164.146 405.631c-1.597-4.086-5.906-6.847-10.838-8.204.846 2.889 2.282 5.73 3.192 8.588 0 .127.08.255.112.383a10.999 10.999 0 0 1-3.48 11.46 42.69 42.69 0 0 1-11.748 6.863 52.036 52.036 0 0 1-11.54 3.193 13.12 13.12 0 0 1-14.365-8.763v-.096a311.4 311.4 0 0 1-1.804-5.842c-2.777 4.358-3.575 8.971-1.963 13.073 3.639 9.225 17.989 11.891 32.689 6.113 14.701-5.778 23.368-17.558 19.745-26.768Z" fill="#D2DFE6"/></g><defs><filter id="blip-health__b" x="59.443" y="923.248" width="938.336" height="170.752" filterUnits="userSpaceOnUse" color-interpolation-filters="sRGB"><feFlood flood-opacity="0" result="BackgroundImageFix"/><feBlend in="SourceGraphic" in2="BackgroundImageFix" result="shape"/><feGaussianBlur stdDeviation="7" result="effect1_foregroundBlur_10272_1622"/></filter><filter id="blip-health__d" x="369.226" y="293.903" width="458.155" height="132.879" filterUnits="userSpaceOnUse" color-interpolation-filters="sRGB"><feFlood flood-opacity="0" result="BackgroundImageFix"/><feColorMatrix in="SourceAlpha" values="0 0 0 0 0 0 0 0 0 0 0 0 0 0 0 0 0 0 127 0" result="hardAlpha"/><feOffset dy="2.577"/><feGaussianBlur stdDeviation="7.732"/><feColorMatrix values="0 0 0 0 0.374547 0 0 0 0 0.481553 0 0 0 0 0.601935 0 0 0 0.15 0"/><feBlend in2="BackgroundImageFix" result="effect1_dropShadow_10272_1622"/><feBlend in="SourceGraphic" in2="effect1_dropShadow_10272_1622" result="shape"/></filter><filter id="blip-health__e" x="754.587" y="545.03" width="102.754" height="56.141" filterUnits="userSpaceOnUse" color-interpolation-filters="sRGB"><feFlood flood-opacity="0" result="BackgroundImageFix"/><feColorMatrix in="SourceAlpha" values="0 0 0 0 0 0 0 0 0 0 0 0 0 0 0 0 0 0 127 0" result="hardAlpha"/><feOffset dy=".991"/><feGaussianBlur stdDeviation="2.972"/><feColorMatrix values="0 0 0 0 0.374547 0 0 0 0 0.481553 0 0 0 0 0.601935 0 0 0 0.15 0"/><feBlend in2="BackgroundImageFix" result="effect1_dropShadow_10272_1622"/><feBlend in="SourceGraphic" in2="effect1_dropShadow_10272_1622" result="shape"/></filter><filter id="blip-health__f" x="676.277" y="441.577" width="366.792" height="103.209" filterUnits="userSpaceOnUse" color-interpolation-filters="sRGB"><feFlood flood-opacity="0" result="BackgroundImageFix"/><feColorMatrix in="SourceAlpha" values="0 0 0 0 0 0 0 0 0 0 0 0 0 0 0 0 0 0 127 0" result="hardAlpha"/><feOffset dy="1.716"/><feGaussianBlur stdDeviation="5.148"/><feColorMatrix values="0 0 0 0 0.374547 0 0 0 0 0.481553 0 0 0 0 0.601935 0 0 0 0.15 0"/><feBlend in2="BackgroundImageFix" result="effect1_dropShadow_10272_1622"/><feBlend in="SourceGraphic" in2="effect1_dropShadow_10272_1622" result="shape"/></filter><filter id="blip-health__j" x="195.655" y="325.807" width="40.365" height="74.853" filterUnits="userSpaceOnUse" color-interpolation-filters="sRGB"><feFlood flood-opacity="0" result="BackgroundImageFix"/><feColorMatrix in="SourceAlpha" values="0 0 0 0 0 0 0 0 0 0 0 0 0 0 0 0 0 0 127 0" result="hardAlpha"/><feOffset dy="4"/><feColorMatrix values="0 0 0 0 0.313726 0 0 0 0 0.372549 0 0 0 0 0.47451 0 0 0 0.08 0"/><feBlend in2="BackgroundImageFix" result="effect1_dropShadow_10272_1622"/><feBlend in="SourceGraphic" in2="effect1_dropShadow_10272_1622" result="shape"/></filter><filter id="blip-health__k" x="191.688" y="265.84" width="43.551" height="110.256" filterUnits="userSpaceOnUse" color-interpolation-filters="sRGB"><feFlood flood-opacity="0" result="BackgroundImageFix"/><feColorMatrix in="SourceAlpha" values="0 0 0 0 0 0 0 0 0 0 0 0 0 0 0 0 0 0 127 0" result="hardAlpha"/><feOffset dy="4"/><feColorMatrix values="0 0 0 0 0.313726 0 0 0 0 0.372549 0 0 0 0 0.47451 0 0 0 0.08 0"/><feBlend in2="BackgroundImageFix" result="effect1_dropShadow_10272_1622"/><feBlend in="SourceGraphic" in2="effect1_dropShadow_10272_1622" result="shape"/></filter><filter id="blip-health__l" x="269.944" y="324.722" width="48.365" height="78.949" filterUnits="userSpaceOnUse" color-interpolation-filters="sRGB"><feFlood flood-opacity="0" result="BackgroundImageFix"/><feColorMatrix in="SourceAlpha" values="0 0 0 0 0 0 0 0 0 0 0 0 0 0 0 0 0 0 127 0" result="hardAlpha"/><feOffset dy="4"/><feGaussianBlur stdDeviation="2"/><feColorMatrix values="0 0 0 0 0.313726 0 0 0 0 0.372549 0 0 0 0 0.47451 0 0 0 0.12 0"/><feBlend in2="BackgroundImageFix" result="effect1_dropShadow_10272_1622"/><feBlend in="SourceGraphic" in2="effect1_dropShadow_10272_1622" result="shape"/></filter><filter id="blip-health__m" x="274.631" y="264.835" width="43.546" height="110.256" filterUnits="userSpaceOnUse" color-interpolation-filters="sRGB"><feFlood flood-opacity="0" result="BackgroundImageFix"/><feColorMatrix in="SourceAlpha" values="0 0 0 0 0 0 0 0 0 0 0 0 0 0 0 0 0 0 127 0" result="hardAlpha"/><feOffset dy="4"/><feColorMatrix values="0 0 0 0 0.313726 0 0 0 0 0.372549 0 0 0 0 0.47451 0 0 0 0.08 0"/><feBlend in2="BackgroundImageFix" result="effect1_dropShadow_10272_1622"/><feBlend in="SourceGraphic" in2="effect1_dropShadow_10272_1622" result="shape"/></filter><clipPath id="blip-health__a"><path fill="#fff" d="M0 0h1080v1080H0z"/></clipPath></defs></svg>