<svg xmlns="http://www.w3.org/2000/svg" width="1080" height="1080" fill="none"><g clip-path="url(#a)"><circle cx="361" cy="887" r="450" fill="#B2DFFD"/><circle cx="709" cy="443" r="119" fill="#F5F5F5"/><path fill="#ECECEC" d="M101.1 164.842a4.705 4.705 0 0 1 4.7-4.71h244.4c2.595 0 4.7 2.109 4.7 4.71v141.316a4.706 4.706 0 0 1-4.7 4.71H105.8a4.705 4.705 0 0 1-4.7-4.71z"/><path fill="#141414" d="M101.1 164.842a4.705 4.705 0 0 1 4.7-4.71h244.4c2.595 0 4.7 2.109 4.7 4.71v14.132H101.1z"/><path fill="#ECECEC" d="M110.5 169.553a3.53 3.53 0 0 1 3.525-3.533h25.85a3.53 3.53 0 0 1 3.525 3.533 3.53 3.53 0 0 1-3.525 3.533h-25.85a3.53 3.53 0 0 1-3.525-3.533M148.1 169.553c0-.976.789-1.767 1.762-1.767h10.575c.974 0 1.763.791 1.763 1.767s-.789 1.766-1.763 1.766h-10.575a1.764 1.764 0 0 1-1.762-1.766M166.899 169.553c0-.976.79-1.767 1.763-1.767h15.275c.973 0 1.762.791 1.762 1.767s-.789 1.766-1.762 1.766h-15.275a1.765 1.765 0 0 1-1.763-1.766"/><path fill="#fff" d="M229.915 169.922c0 1.496-.715 2.515-1.98 2.515-.751 0-1.319-.372-1.612-1.086l-.174 1h-1.054v-6.588h1.264v2.664c.312-.647.852-.99 1.576-.99 1.265-.001 1.98 1.019 1.98 2.485m-1.274 0c0-.876-.421-1.39-1.145-1.39-.715 0-1.136.514-1.136 1.39 0 .905.421 1.419 1.136 1.419.724 0 1.145-.514 1.145-1.419M233.375 172.351v-4.829h1.265v4.829zM240.312 169.941c0 1.477-.715 2.496-1.98 2.496-.724 0-1.264-.343-1.576-.991v2.55h-1.264v-6.474h1.054l.174 1c.302-.714.861-1.086 1.612-1.086 1.265 0 1.98 1.02 1.98 2.505m-1.274 0c0-.895-.421-1.409-1.145-1.409-.715 0-1.136.514-1.136 1.409 0 .886.421 1.4 1.136 1.4.724 0 1.145-.514 1.145-1.4M234.737 166.822a.85.85 0 0 0 .074-.346c0-.462-.359-.836-.803-.836s-.804.374-.804.836q.002.186.074.346zM231.688 171.208h1.137v1.143h-.669c-1.21 0-1.732-.562-1.732-2.057v-4.531h1.264v5.445"/><path fill="#0096FA" d="M219.732 164.739c-2.73 0-4.196 1.068-4.196 3.859 0 2.492 1.235 4.403 4.196 4.403h.217l.001 1.227a.19.19 0 0 0 .19.193c.091 0 .116-.036.188-.101.523-.468 2.062-1.921 2.062-1.921.768-.76 1.537-1.666 1.537-3.801 0-2.791-1.466-3.859-4.195-3.859"/><path fill="#F6F6F6" d="M101.1 178.974h51.7v131.894h-48.254c-1.903 0-3.446-2.109-3.446-4.71z"/><path fill="#ECECEC" d="M110.5 193.105c0-.975.789-1.766 1.762-1.766h19.975c.973 0 1.763.791 1.763 1.766 0 .976-.79 1.767-1.763 1.767h-19.975a1.765 1.765 0 0 1-1.762-1.767M110.5 198.405c0-.651.526-1.178 1.175-1.178h30.55a1.177 1.177 0 0 1 0 2.355h-30.55a1.176 1.176 0 0 1-1.175-1.177"/><path fill="#ECECEC" fill-rule="evenodd" d="M143.4 211.947h-32.9v-.588h32.9z" clip-rule="evenodd"/><path fill="#ECECEC" d="M110.5 226.079c0-.976.789-1.767 1.762-1.767h29.375c.973 0 1.763.791 1.763 1.767s-.79 1.766-1.763 1.766h-29.375c-.973 0-1.762-.79-1.762-1.766M110.5 231.378c0-.65.526-1.177 1.175-1.177h16.45a1.177 1.177 0 0 1 0 2.355h-16.45a1.176 1.176 0 0 1-1.175-1.178"/><path fill="#ECECEC" fill-rule="evenodd" d="M143.4 244.921h-32.9v-.589h32.9z" clip-rule="evenodd"/><path fill="#ECECEC" d="M110.5 259.053c0-.976.789-1.767 1.762-1.767h19.975c.973 0 1.763.791 1.763 1.767s-.79 1.766-1.763 1.766h-19.975a1.764 1.764 0 0 1-1.762-1.766M110.5 264.352c0-.65.526-1.178 1.175-1.178h30.55a1.177 1.177 0 0 1 0 2.356h-30.55a1.177 1.177 0 0 1-1.175-1.178"/><path fill="#ECECEC" fill-rule="evenodd" d="M143.4 277.895h-32.9v-.589h32.9z" clip-rule="evenodd"/><path fill="#ECECEC" d="M110.5 292.026c0-.975.789-1.766 1.762-1.766h29.375c.973 0 1.763.791 1.763 1.766 0 .976-.79 1.767-1.763 1.767h-29.375a1.765 1.765 0 0 1-1.762-1.767M110.5 297.326c0-.651.526-1.178 1.175-1.178h16.45a1.177 1.177 0 0 1 0 2.355h-16.45a1.176 1.176 0 0 1-1.175-1.177M162.2 193.694a2.35 2.35 0 0 1 2.35-2.355h47a2.35 2.35 0 0 1 2.35 2.355 2.35 2.35 0 0 1-2.35 2.355h-47a2.35 2.35 0 0 1-2.35-2.355"/><path fill="#F6F6F6" d="M213.899 207.237a4.706 4.706 0 0 1 4.7-4.711h75.2c2.596 0 4.7 2.109 4.7 4.711v27.085a4.705 4.705 0 0 1-4.7 4.711h-75.2a4.706 4.706 0 0 1-4.7-4.711z"/><path fill="#ECECEC" d="M220.95 211.359c0-.976.789-1.767 1.762-1.767h48.175c.974 0 1.763.791 1.763 1.767s-.789 1.766-1.763 1.766h-48.175a1.764 1.764 0 0 1-1.762-1.766M220.95 220.191a2.35 2.35 0 0 1 2.35-2.355h9.4a2.35 2.35 0 0 1 2.35 2.355v9.421a2.35 2.35 0 0 1-2.35 2.355h-9.4a2.35 2.35 0 0 1-2.35-2.355zM258.549 220.191a2.35 2.35 0 0 1 2.35-2.355h9.4a2.35 2.35 0 0 1 2.35 2.355v9.421a2.35 2.35 0 0 1-2.35 2.355h-9.4a2.35 2.35 0 0 1-2.35-2.355zM239.75 220.191a2.35 2.35 0 0 1 2.35-2.355h9.4a2.353 2.353 0 0 1 2.35 2.355v9.421a2.353 2.353 0 0 1-2.35 2.355h-9.4a2.35 2.35 0 0 1-2.35-2.355zM277.35 220.191a2.35 2.35 0 0 1 2.35-2.355h9.4a2.353 2.353 0 0 1 2.35 2.355v9.421a2.353 2.353 0 0 1-2.35 2.355h-9.4a2.35 2.35 0 0 1-2.35-2.355z"/><path fill="#F6F6F6" d="M162.2 207.237a4.705 4.705 0 0 1 4.7-4.711h37.6c2.595 0 4.7 2.109 4.7 4.711v27.085a4.706 4.706 0 0 1-4.7 4.711h-37.6a4.705 4.705 0 0 1-4.7-4.711z"/><path fill="#ECECEC" d="M169.25 211.359c0-.976.789-1.767 1.762-1.767h19.975c.973 0 1.763.791 1.763 1.767s-.79 1.766-1.763 1.766h-19.975a1.764 1.764 0 0 1-1.762-1.766M169.25 220.191a2.35 2.35 0 0 1 2.35-2.355h9.4a2.353 2.353 0 0 1 2.35 2.355v9.421a2.353 2.353 0 0 1-2.35 2.355h-9.4a2.35 2.35 0 0 1-2.35-2.355zM188.05 220.191a2.35 2.35 0 0 1 2.35-2.355h9.4a2.35 2.35 0 0 1 2.35 2.355v9.421a2.35 2.35 0 0 1-2.35 2.355h-9.4a2.35 2.35 0 0 1-2.35-2.355z"/><g filter="url(#b)"><path fill="#F6F6F6" d="M162.2 249.632a4.705 4.705 0 0 1 4.7-4.711h197.4c2.595 0 4.7 2.109 4.7 4.711v70.657a4.706 4.706 0 0 1-4.7 4.711H166.9a4.705 4.705 0 0 1-4.7-4.711z"/><path fill="#ECECEC" fill-rule="evenodd" d="M185.406 296.737c0-.163.131-.295.294-.295h159.8a.294.294 0 0 1 0 .589H185.7a.294.294 0 0 1-.294-.294M185.406 273.184c0-.162.131-.294.294-.294h159.8a.294.294 0 0 1 0 .589H185.7a.294.294 0 0 1-.294-.295M185.406 261.408c0-.163.131-.295.294-.295h159.8a.294.294 0 0 1 0 .589H185.7a.294.294 0 0 1-.294-.294M185.406 284.96c0-.162.131-.294.294-.294h159.8a.294.294 0 0 1 0 .589H185.7a.294.294 0 0 1-.294-.295" clip-rule="evenodd" opacity=".25"/><path fill="#0096FA" fill-rule="evenodd" d="M346.086 276.681a.59.59 0 0 1-.551.624l-38.711 2.351-41.184 11.793-41.12-5.887-38.65 11.738a.587.587 0 0 1-.733-.392.59.59 0 0 1 .392-.735l38.9-11.814 41.13 5.889 41.066-11.76 38.839-2.359a.59.59 0 0 1 .622.552" clip-rule="evenodd"/><path fill="#0096FA" d="M309.075 279.072a2.354 2.354 0 0 1-2.35 2.356 2.353 2.353 0 0 1-2.35-2.356c0-1.3 1.052-2.355 2.35-2.355a2.353 2.353 0 0 1 2.35 2.355M267.95 290.849c0 1.3-1.053 2.355-2.35 2.355a2.353 2.353 0 0 1-2.35-2.355 2.353 2.353 0 0 1 2.35-2.356 2.354 2.354 0 0 1 2.35 2.356M226.825 284.96a2.354 2.354 0 0 1-2.35 2.356 2.353 2.353 0 0 1-2.35-2.356c0-1.3 1.052-2.355 2.35-2.355a2.353 2.353 0 0 1 2.35 2.355"/><path fill="#84EBBC" fill-rule="evenodd" d="m306.672 260.795 38.949 8.28a.589.589 0 0 1-.243 1.152l-38.601-8.206-41.097 16.476-41.095-4.708-38.617 19.938a.586.586 0 0 1-.791-.253.59.59 0 0 1 .253-.794l38.934-20.101 41.155 4.714z" clip-rule="evenodd"/><path fill="#84EBBC" d="M309.075 261.408a2.353 2.353 0 0 1-2.35 2.355 2.35 2.35 0 0 1-2.35-2.355 2.35 2.35 0 0 1 2.35-2.355 2.353 2.353 0 0 1 2.35 2.355M267.95 277.895c0 1.3-1.053 2.355-2.35 2.355a2.353 2.353 0 0 1-2.35-2.355 2.353 2.353 0 0 1 2.35-2.356 2.354 2.354 0 0 1 2.35 2.356M226.825 273.184a2.353 2.353 0 0 1-2.35 2.355 2.35 2.35 0 0 1-2.35-2.355 2.35 2.35 0 0 1 2.35-2.355 2.353 2.353 0 0 1 2.35 2.355"/><path fill="#0096FA" fill-rule="evenodd" d="M243.862 308.513c0-.325.263-.589.588-.589h14.1a.588.588 0 0 1 0 1.178h-14.1a.59.59 0 0 1-.588-.589" clip-rule="evenodd"/><path fill="#0096FA" d="M253.85 308.513a2.35 2.35 0 0 1-2.35 2.355 2.35 2.35 0 0 1-2.35-2.355 2.35 2.35 0 0 1 2.35-2.355 2.35 2.35 0 0 1 2.35 2.355"/><path fill="#84EBBC" fill-rule="evenodd" d="M272.062 308.513a.59.59 0 0 1 .588-.589h14.1a.59.59 0 0 1 0 1.178h-14.1a.59.59 0 0 1-.588-.589" clip-rule="evenodd"/><path fill="#84EBBC" d="M282.05 308.513a2.353 2.353 0 0 1-2.35 2.355 2.35 2.35 0 0 1-2.35-2.355 2.35 2.35 0 0 1 2.35-2.355 2.353 2.353 0 0 1 2.35 2.355"/></g><path fill="#ECECEC" d="M810.85 883.316c0-1.977 1.619-3.579 3.616-3.579h188.064c2 0 3.62 1.602 3.62 3.579v107.368c0 1.977-1.62 3.579-3.62 3.579H814.466c-1.997 0-3.616-1.602-3.616-3.579z"/><path fill="#F6F6F6" d="M810.85 894.053h195.3v9.842h-195.3z"/><path fill="#B2DFFD" d="M988.518 897.632c0-.742.523-1.343 1.168-1.343h11.674c.65 0 1.17.601 1.17 1.343v2.684c0 .741-.52 1.342-1.17 1.342h-11.674c-.645 0-1.168-.601-1.168-1.342z"/><path fill="#ECECEC" d="M818.083 898.974c0-.742.607-1.342 1.356-1.342h29.838c.749 0 1.356.6 1.356 1.342a1.35 1.35 0 0 1-1.356 1.342h-29.838a1.35 1.35 0 0 1-1.356-1.342"/><path fill="#141414" d="M810.85 883.316c0-1.977 1.619-3.579 3.616-3.579h188.064c2 0 3.62 1.602 3.62 3.579v10.737h-195.3z"/><path fill="#ECECEC" d="M818.083 886.895c0-1.483 1.214-2.685 2.713-2.685h19.891c1.498 0 2.713 1.202 2.713 2.685 0 1.482-1.215 2.684-2.713 2.684h-19.891c-1.499 0-2.713-1.202-2.713-2.684M847.016 886.895a1.35 1.35 0 0 1 1.356-1.343h8.138a1.35 1.35 0 0 1 1.356 1.343 1.35 1.35 0 0 1-1.356 1.342h-8.138a1.35 1.35 0 0 1-1.356-1.342M861.483 886.895a1.35 1.35 0 0 1 1.356-1.343h11.754a1.35 1.35 0 0 1 1.357 1.343 1.35 1.35 0 0 1-1.357 1.342h-11.754a1.35 1.35 0 0 1-1.356-1.342"/><path fill="#fff" d="M909.974 887.176c0 1.136-.55 1.91-1.523 1.91-.578 0-1.015-.282-1.241-.825l-.134.76h-.811v-5.005h.973v2.024c.24-.492.656-.753 1.213-.753.973 0 1.523.774 1.523 1.889m-.98 0c0-.666-.324-1.057-.881-1.057-.55 0-.875.391-.875 1.057 0 .687.325 1.078.875 1.078.557 0 .881-.391.881-1.078M912.637 889.021v-3.669h.973v3.669zM917.974 887.19c0 1.122-.55 1.896-1.523 1.896-.557 0-.973-.26-1.213-.752v1.937h-.973v-4.919h.811l.134.76c.233-.543.663-.825 1.241-.825.973 0 1.523.774 1.523 1.903m-.98 0c0-.68-.324-1.071-.881-1.071-.55 0-.875.391-.875 1.071 0 .673.325 1.064.875 1.064.557 0 .881-.391.881-1.064M913.685 884.82a.6.6 0 0 0 .057-.263.627.627 0 0 0-.618-.635.627.627 0 0 0-.619.635.6.6 0 0 0 .057.263zM911.339 888.152h.874v.869h-.515c-.93 0-1.332-.427-1.332-1.563v-3.442h.973v4.136"/><path fill="#0096FA" d="M902.138 883.238c-2.101 0-3.229.811-3.229 2.931 0 1.894.95 3.346 3.229 3.346h.167v.932c0 .075.059.146.147.146.07 0 .089-.027.145-.076.402-.356 1.586-1.46 1.586-1.46.591-.577 1.183-1.265 1.183-2.888 0-2.12-1.128-2.931-3.228-2.931"/><path fill="#84EBBC" d="M1001.63 886.895c0 1.976-1.62 3.579-3.618 3.579s-3.616-1.603-3.616-3.579 1.619-3.579 3.616-3.579 3.618 1.602 3.618 3.579"/><path fill="#F6F6F6" d="M819.892 918.658c0-1.977 1.619-3.579 3.616-3.579h25.317c1.997 0 3.617 1.602 3.617 3.579v25.052c0 1.977-1.62 3.579-3.617 3.579h-25.317c-1.997 0-3.616-1.602-3.616-3.579z"/><rect width="10.85" height="10.737" x="830.742" y="920.447" fill="#80E3EB" rx="5.368"/><path fill="#ECECEC" fill-rule="evenodd" d="M836.468 923.131a.3.3 0 0 1-.301.299.3.3 0 0 1-.301-.299.3.3 0 0 1 .301-.298.3.3 0 0 1 .301.298m-.165.582a.6.6 0 0 0 .467-.582.6.6 0 0 0-.603-.596.6.6 0 0 0-.603.596c0 .273.185.503.438.574v.247c-.704.02-1.37.171-1.875.581a2.15 2.15 0 0 0-.706 1.086c-.343.094-.549.351-.568.868-.018.524.119.706.48.775.092.568.327 1.005.768 1.291.533.346 1.274.394 2.066.394s1.532-.048 2.066-.394c.44-.286.676-.722.767-1.291.362-.069.499-.251.481-.775-.019-.517-.225-.774-.568-.868a2.15 2.15 0 0 0-.706-1.086c-.512-.416-1.19-.566-1.904-.582zm2.291 2.915c0 1.64-.816 1.872-2.427 1.872s-2.428-.232-2.428-1.872c0-1.69.988-2.231 2.428-2.231s2.427.541 2.427 2.231m-5.314.311a.2.2 0 0 1-.051-.028c-.023-.018-.086-.081-.075-.413.011-.29.087-.427.165-.498a2.5 2.5 0 0 0-.061.476v.001c-.007.181.003.333.022.462m5.774 0a.2.2 0 0 0 .051-.028c.023-.018.086-.081.075-.413-.011-.29-.087-.427-.165-.498q.05.2.061.476v.001q.01.27-.022.462" clip-rule="evenodd"/><path fill="#ECECEC" fill-rule="evenodd" d="M834.457 927.205a5.7 5.7 0 0 1 .126-1.54c.08-.756 3.07-.743 3.168 0a5.7 5.7 0 0 1 .126 1.54c-.023.258-.292.47-.537.514-.788.075-1.561.075-2.346 0-.262-.026-.497-.268-.537-.514m3.591-1.592c.113.536.161 1.054.13 1.609l-.001.005v.004a.82.82 0 0 1-.282.532c-.14.126-.319.217-.502.25l-.012.002-.012.001c-.807.077-1.6.077-2.405 0a.9.9 0 0 1-.534-.259.93.93 0 0 1-.27-.504l-.003-.015-.001-.016a6 6 0 0 1 .129-1.606.67.67 0 0 1 .265-.432c.129-.101.29-.174.455-.226.333-.106.751-.154 1.156-.153s.823.05 1.157.156c.166.053.327.125.457.224a.67.67 0 0 1 .273.428" clip-rule="evenodd"/><path fill="#ECECEC" d="M835.262 926.71a.3.3 0 0 0 .302-.298.3.3 0 0 0-.302-.298.3.3 0 0 0-.301.298.3.3 0 0 0 .301.298M837.071 926.71a.3.3 0 0 0 .301-.298.3.3 0 0 0-.301-.298.3.3 0 0 0-.301.298c0 .165.134.298.301.298"/><path fill="#ECECEC" fill-rule="evenodd" d="M836.461 926.597a.15.15 0 0 1 .151.149c0 .142-.112.21-.186.237a.8.8 0 0 1-.24.04 2 2 0 0 1-.21-.006c-.155-.013-.243-.046-.225-.178 0-.119.148-.128.249-.119.05.004.114.007.176.005a.5.5 0 0 0 .14-.019.15.15 0 0 1 .145-.109" clip-rule="evenodd"/><path fill="#ECECEC" d="M825.316 936.105a1.35 1.35 0 0 1 1.357-1.342h18.987a1.35 1.35 0 0 1 1.356 1.342 1.35 1.35 0 0 1-1.356 1.342h-18.987a1.35 1.35 0 0 1-1.357-1.342M832.55 940.579a1.35 1.35 0 0 1 1.356-1.342h4.521a1.35 1.35 0 0 1 1.356 1.342 1.35 1.35 0 0 1-1.356 1.342h-4.521a1.35 1.35 0 0 1-1.356-1.342"/><path fill="#F6F6F6" d="M819.892 954.447c0-1.976 1.619-3.579 3.616-3.579h25.317c1.997 0 3.617 1.603 3.617 3.579V979.5c0 1.977-1.62 3.579-3.617 3.579h-25.317c-1.997 0-3.616-1.602-3.616-3.579z"/><rect width="10.85" height="10.737" x="830.742" y="956.237" fill="#FDE99B" rx="5.368"/><path fill="#ECECEC" fill-rule="evenodd" d="M836.468 958.921a.3.3 0 0 1-.301.298.3.3 0 0 1-.301-.298c0-.165.134-.298.301-.298a.3.3 0 0 1 .301.298m-.165.581a.6.6 0 0 0 .467-.581.6.6 0 0 0-.603-.596.6.6 0 0 0-.603.596c0 .273.185.503.438.574v.247c-.704.019-1.37.17-1.875.581a2.14 2.14 0 0 0-.706 1.086c-.343.094-.549.351-.568.868-.018.523.119.706.48.774.092.569.327 1.006.768 1.292.533.346 1.274.394 2.066.394s1.532-.048 2.066-.394c.44-.286.676-.723.767-1.292.362-.068.499-.251.481-.774-.019-.517-.225-.774-.568-.869a2.15 2.15 0 0 0-.706-1.085c-.512-.416-1.19-.566-1.904-.582zm2.291 2.916c0 1.639-.816 1.872-2.427 1.872s-2.428-.233-2.428-1.872c0-1.69.988-2.231 2.428-2.231s2.427.541 2.427 2.231m-5.314.311a.2.2 0 0 1-.051-.028c-.023-.018-.086-.081-.075-.414.011-.29.087-.427.165-.498a2.5 2.5 0 0 0-.061.477c-.007.182.003.334.022.463m5.774 0a.2.2 0 0 0 .051-.028c.023-.018.086-.081.075-.414-.011-.29-.087-.427-.165-.498q.05.201.061.477.01.271-.022.463" clip-rule="evenodd"/><path fill="#ECECEC" fill-rule="evenodd" d="M834.457 962.995a5.7 5.7 0 0 1 .126-1.541c.08-.755 3.07-.742 3.168 0 .109.518.156 1.012.126 1.541-.023.258-.292.47-.537.514-.788.075-1.561.075-2.346 0-.262-.026-.497-.268-.537-.514m3.591-1.592c.113.536.161 1.053.13 1.609l-.001.004v.005a.82.82 0 0 1-.282.532c-.14.125-.319.217-.502.249l-.012.002-.012.002c-.807.077-1.6.077-2.405 0a.9.9 0 0 1-.534-.26.93.93 0 0 1-.27-.503l-.003-.015-.001-.016a6 6 0 0 1 .129-1.606.67.67 0 0 1 .265-.432 1.5 1.5 0 0 1 .455-.227c.333-.106.751-.153 1.156-.153.405.001.823.051 1.157.157.166.053.327.124.457.223a.68.68 0 0 1 .273.429" clip-rule="evenodd"/><path fill="#ECECEC" d="M835.262 962.5a.3.3 0 0 0 .302-.298.3.3 0 0 0-.302-.298.3.3 0 0 0-.301.298.3.3 0 0 0 .301.298M837.071 962.5a.3.3 0 0 0 .301-.298.3.3 0 0 0-.301-.298.3.3 0 0 0-.301.298c0 .165.134.298.301.298"/><path fill="#ECECEC" fill-rule="evenodd" d="M836.461 962.387a.15.15 0 0 1 .151.149c0 .142-.112.21-.186.237a.8.8 0 0 1-.24.04 2 2 0 0 1-.21-.006c-.155-.013-.243-.047-.225-.178 0-.12.148-.128.249-.12.05.004.114.008.176.005a.6.6 0 0 0 .14-.018.15.15 0 0 1 .145-.109" clip-rule="evenodd"/><path fill="#ECECEC" d="M825.316 971.895a1.35 1.35 0 0 1 1.357-1.342h18.987c.749 0 1.356.6 1.356 1.342a1.35 1.35 0 0 1-1.356 1.342h-18.987a1.35 1.35 0 0 1-1.357-1.342M832.55 976.368a1.35 1.35 0 0 1 1.356-1.342h4.521a1.35 1.35 0 0 1 1.356 1.342 1.35 1.35 0 0 1-1.356 1.343h-4.521a1.35 1.35 0 0 1-1.356-1.343"/><path fill="#F6F6F6" d="M856.058 918.658c0-1.977 1.619-3.579 3.617-3.579h25.316c1.998 0 3.617 1.602 3.617 3.579v25.052c0 1.977-1.619 3.579-3.617 3.579h-25.316c-1.998 0-3.617-1.602-3.617-3.579z"/><rect width="10.85" height="10.737" x="866.908" y="920.447" fill="#B2DFFD" rx="5.368"/><path fill="#ECECEC" fill-rule="evenodd" d="M872.635 923.131a.3.3 0 0 1-.302.299.3.3 0 0 1-.301-.299.3.3 0 0 1 .301-.298.3.3 0 0 1 .302.298m-.166.582a.6.6 0 0 0 .467-.582.6.6 0 0 0-.603-.596.6.6 0 0 0-.602.596c0 .273.185.503.437.574v.247c-.703.02-1.37.171-1.875.581a2.15 2.15 0 0 0-.706 1.086c-.342.094-.548.351-.567.868-.019.524.119.706.48.775.092.568.327 1.005.767 1.291.534.346 1.275.394 2.066.394.792 0 1.533-.048 2.066-.394.441-.286.676-.722.768-1.291.361-.069.499-.251.48-.775-.019-.517-.225-.774-.567-.868a2.16 2.16 0 0 0-.706-1.086c-.513-.416-1.191-.566-1.905-.582zm2.292 2.915c0 1.64-.816 1.872-2.428 1.872-1.611 0-2.427-.232-2.427-1.872 0-1.69.988-2.231 2.427-2.231s2.428.541 2.428 2.231m-5.314.311a.2.2 0 0 1-.051-.028c-.024-.018-.087-.081-.075-.413.011-.29.087-.427.165-.498a2.5 2.5 0 0 0-.062.476v.001q-.008.27.023.462m5.773 0a.2.2 0 0 0 .052-.028c.023-.018.086-.081.074-.413-.01-.29-.086-.427-.165-.498q.05.2.062.476v.001q.008.27-.023.462" clip-rule="evenodd"/><path fill="#ECECEC" fill-rule="evenodd" d="M870.623 927.205a5.7 5.7 0 0 1 .126-1.54c.081-.756 3.07-.743 3.169 0a5.7 5.7 0 0 1 .125 1.54c-.022.258-.291.47-.536.514-.788.075-1.561.075-2.347 0-.261-.026-.496-.268-.537-.514m3.592-1.592c.112.536.161 1.054.129 1.609v.005l-.001.004a.82.82 0 0 1-.282.532 1.04 1.04 0 0 1-.501.25l-.012.002-.012.001c-.807.077-1.6.077-2.405 0h-.001a.9.9 0 0 1-.533-.259.93.93 0 0 1-.271-.504l-.003-.015v-.016a6 6 0 0 1 .128-1.606.67.67 0 0 1 .266-.432c.128-.101.289-.174.455-.226a4 4 0 0 1 1.155-.153c.405.001.824.05 1.158.156.166.053.327.125.456.224a.68.68 0 0 1 .274.428" clip-rule="evenodd"/><path fill="#ECECEC" d="M871.429 926.71a.3.3 0 0 0 .301-.298.3.3 0 0 0-.301-.298.3.3 0 0 0-.302.298.3.3 0 0 0 .302.298M873.237 926.71a.3.3 0 0 0 .302-.298.3.3 0 0 0-.302-.298.3.3 0 0 0-.301.298.3.3 0 0 0 .301.298"/><path fill="#ECECEC" fill-rule="evenodd" d="M872.627 926.597a.15.15 0 0 1 .151.149c0 .142-.112.21-.185.237a.8.8 0 0 1-.241.04 2 2 0 0 1-.209-.006c-.156-.013-.243-.046-.225-.178 0-.119.147-.128.249-.119a2 2 0 0 0 .175.005.5.5 0 0 0 .14-.019.15.15 0 0 1 .145-.109" clip-rule="evenodd"/><path fill="#ECECEC" d="M861.483 936.105a1.35 1.35 0 0 1 1.357-1.342h18.987a1.35 1.35 0 0 1 1.356 1.342 1.35 1.35 0 0 1-1.356 1.342H862.84a1.35 1.35 0 0 1-1.357-1.342M868.716 940.579a1.35 1.35 0 0 1 1.357-1.342h4.52a1.35 1.35 0 0 1 1.357 1.342 1.35 1.35 0 0 1-1.357 1.342h-4.52a1.35 1.35 0 0 1-1.357-1.342"/><path fill="#F6F6F6" d="M856.058 954.447c0-1.976 1.619-3.579 3.617-3.579h25.316c1.998 0 3.617 1.603 3.617 3.579V979.5c0 1.977-1.619 3.579-3.617 3.579h-25.316c-1.998 0-3.617-1.602-3.617-3.579z"/><rect width="10.85" height="10.737" x="866.908" y="956.237" fill="#F99F9F" rx="5.368"/><path fill="#ECECEC" fill-rule="evenodd" d="M872.635 958.921a.3.3 0 0 1-.302.298.3.3 0 0 1-.301-.298.3.3 0 0 1 .301-.298.3.3 0 0 1 .302.298m-.166.581a.6.6 0 0 0 .467-.581.6.6 0 0 0-.603-.596.6.6 0 0 0-.602.596c0 .273.185.503.437.574v.247c-.703.019-1.37.17-1.875.581a2.15 2.15 0 0 0-.706 1.086c-.342.094-.548.351-.567.868-.019.523.119.706.48.774.092.569.327 1.006.767 1.292.534.346 1.275.394 2.066.394.792 0 1.533-.048 2.066-.394.441-.286.676-.723.768-1.292.361-.068.499-.251.48-.774-.019-.517-.225-.774-.567-.869a2.16 2.16 0 0 0-.706-1.085c-.513-.416-1.191-.566-1.905-.582zm2.292 2.916c0 1.639-.816 1.872-2.428 1.872-1.611 0-2.427-.233-2.427-1.872 0-1.69.988-2.231 2.427-2.231s2.428.541 2.428 2.231m-5.314.311a.2.2 0 0 1-.051-.028c-.024-.018-.087-.081-.075-.414.011-.29.087-.427.165-.498a2.5 2.5 0 0 0-.062.477q-.008.271.023.463m5.773 0a.2.2 0 0 0 .052-.028c.023-.018.086-.081.074-.414-.01-.29-.086-.427-.165-.498q.05.201.062.477.008.271-.023.463" clip-rule="evenodd"/><path fill="#ECECEC" fill-rule="evenodd" d="M870.623 962.995a5.7 5.7 0 0 1 .126-1.541c.081-.755 3.07-.742 3.169 0a5.7 5.7 0 0 1 .125 1.541c-.022.258-.291.47-.536.514-.788.075-1.561.075-2.347 0-.261-.026-.496-.268-.537-.514m3.592-1.592c.112.536.161 1.053.129 1.609v.004l-.001.005a.82.82 0 0 1-.282.532 1.04 1.04 0 0 1-.501.249l-.012.002-.012.002c-.807.077-1.6.077-2.405 0h-.001a.9.9 0 0 1-.533-.26.93.93 0 0 1-.271-.503l-.003-.015v-.016a6 6 0 0 1 .128-1.606.67.67 0 0 1 .266-.432 1.5 1.5 0 0 1 .455-.227c.333-.106.751-.153 1.155-.153.405.001.824.051 1.158.157.166.053.327.124.456.223a.68.68 0 0 1 .274.429" clip-rule="evenodd"/><path fill="#ECECEC" d="M871.429 962.5a.3.3 0 0 0 .301-.298.3.3 0 0 0-.301-.298.3.3 0 0 0-.302.298.3.3 0 0 0 .302.298M873.237 962.5a.3.3 0 0 0 .302-.298.3.3 0 0 0-.302-.298.3.3 0 0 0-.301.298.3.3 0 0 0 .301.298"/><path fill="#ECECEC" fill-rule="evenodd" d="M872.627 962.387a.15.15 0 0 1 .151.149c0 .142-.112.21-.185.237a.8.8 0 0 1-.241.04 2 2 0 0 1-.209-.006c-.156-.013-.243-.047-.225-.178 0-.12.147-.128.249-.12.049.004.113.008.175.005a.6.6 0 0 0 .14-.018.15.15 0 0 1 .145-.109" clip-rule="evenodd"/><path fill="#ECECEC" d="M861.483 971.895a1.35 1.35 0 0 1 1.357-1.342h18.987c.749 0 1.356.6 1.356 1.342a1.35 1.35 0 0 1-1.356 1.342H862.84a1.35 1.35 0 0 1-1.357-1.342M868.716 976.368a1.35 1.35 0 0 1 1.357-1.342h4.52a1.35 1.35 0 0 1 1.357 1.342 1.35 1.35 0 0 1-1.357 1.343h-4.52a1.35 1.35 0 0 1-1.357-1.343"/><path fill="#F6F6F6" d="M892.225 918.658c0-1.977 1.619-3.579 3.617-3.579h25.316c1.998 0 3.617 1.602 3.617 3.579v25.052c0 1.977-1.619 3.579-3.617 3.579h-25.316c-1.998 0-3.617-1.602-3.617-3.579z"/><rect width="10.85" height="10.737" x="903.075" y="920.447" fill="#FDE99B" rx="5.368"/><path fill="#ECECEC" fill-rule="evenodd" d="M908.801 923.131a.3.3 0 0 1-.301.299.3.3 0 0 1-.301-.299.3.3 0 0 1 .301-.298.3.3 0 0 1 .301.298m-.165.582a.6.6 0 0 0 .467-.582.6.6 0 0 0-.603-.596.6.6 0 0 0-.603.596c0 .273.185.503.438.574v.247c-.704.02-1.37.171-1.875.581a2.15 2.15 0 0 0-.706 1.086c-.343.094-.549.351-.568.868-.018.524.119.706.48.775.092.568.327 1.005.768 1.291.533.346 1.274.394 2.066.394s1.532-.048 2.066-.394c.44-.286.676-.722.767-1.291.362-.069.499-.251.481-.775-.019-.517-.225-.774-.568-.868a2.15 2.15 0 0 0-.706-1.086c-.512-.416-1.19-.566-1.904-.582zm2.291 2.915c0 1.64-.816 1.872-2.427 1.872s-2.428-.232-2.428-1.872c0-1.69.988-2.231 2.428-2.231s2.427.541 2.427 2.231m-5.314.311a.2.2 0 0 1-.051-.028c-.023-.018-.086-.081-.075-.413.011-.29.087-.427.165-.498a2.5 2.5 0 0 0-.061.476v.001q-.008.27.022.462m5.774 0a.2.2 0 0 0 .051-.028c.023-.018.086-.081.075-.413-.011-.29-.087-.427-.165-.498q.05.2.061.476v.001q.01.27-.022.462" clip-rule="evenodd"/><path fill="#ECECEC" fill-rule="evenodd" d="M906.79 927.205a5.7 5.7 0 0 1 .126-1.54c.081-.756 3.07-.743 3.169 0a5.7 5.7 0 0 1 .125 1.54c-.022.258-.291.47-.536.514-.788.075-1.561.075-2.347 0-.261-.026-.496-.268-.537-.514m3.592-1.592c.112.536.161 1.054.129 1.609v.005l-.001.004a.82.82 0 0 1-.282.532 1.04 1.04 0 0 1-.501.25l-.012.002-.012.001c-.807.077-1.6.077-2.405 0h-.001a.9.9 0 0 1-.533-.259.93.93 0 0 1-.271-.504l-.003-.015v-.016a6 6 0 0 1 .128-1.606.67.67 0 0 1 .266-.432c.128-.101.289-.174.455-.226a4 4 0 0 1 1.155-.153c.405.001.824.05 1.158.156.166.053.327.125.456.224a.68.68 0 0 1 .274.428" clip-rule="evenodd"/><path fill="#ECECEC" d="M907.596 926.71a.3.3 0 0 0 .301-.298.3.3 0 0 0-.301-.298.3.3 0 0 0-.302.298.3.3 0 0 0 .302.298M909.404 926.71a.3.3 0 0 0 .302-.298.3.3 0 0 0-.302-.298.3.3 0 0 0-.301.298.3.3 0 0 0 .301.298"/><path fill="#ECECEC" fill-rule="evenodd" d="M908.794 926.597a.15.15 0 0 1 .151.149c0 .142-.112.21-.185.237a.8.8 0 0 1-.241.04 2 2 0 0 1-.209-.006c-.156-.013-.243-.046-.225-.178 0-.119.147-.128.249-.119a2 2 0 0 0 .175.005.5.5 0 0 0 .14-.019.15.15 0 0 1 .145-.109" clip-rule="evenodd"/><path fill="#ECECEC" d="M897.65 936.105a1.35 1.35 0 0 1 1.356-1.342h18.988a1.35 1.35 0 0 1 1.356 1.342 1.35 1.35 0 0 1-1.356 1.342h-18.988a1.35 1.35 0 0 1-1.356-1.342M904.883 940.579a1.35 1.35 0 0 1 1.357-1.342h4.52a1.35 1.35 0 0 1 1.357 1.342 1.35 1.35 0 0 1-1.357 1.342h-4.52a1.35 1.35 0 0 1-1.357-1.342"/><path fill="#F6F6F6" d="M892.225 954.447c0-1.976 1.619-3.579 3.617-3.579h25.316c1.998 0 3.617 1.603 3.617 3.579V979.5c0 1.977-1.619 3.579-3.617 3.579h-25.316c-1.998 0-3.617-1.602-3.617-3.579z"/><rect width="10.85" height="10.737" x="903.075" y="956.237" fill="#84EBBC" rx="5.368"/><path fill="#ECECEC" fill-rule="evenodd" d="M908.801 958.921a.3.3 0 0 1-.301.298.3.3 0 0 1-.301-.298c0-.165.134-.298.301-.298a.3.3 0 0 1 .301.298m-.165.581a.6.6 0 0 0 .467-.581.6.6 0 0 0-.603-.596.6.6 0 0 0-.603.596c0 .273.185.503.438.574v.247c-.704.019-1.37.17-1.875.581a2.14 2.14 0 0 0-.706 1.086c-.343.094-.549.351-.568.868-.018.523.119.706.48.774.092.569.327 1.006.768 1.292.533.346 1.274.394 2.066.394s1.532-.048 2.066-.394c.44-.286.676-.723.767-1.292.362-.068.499-.251.481-.774-.019-.517-.225-.774-.568-.869a2.15 2.15 0 0 0-.706-1.085c-.512-.416-1.19-.566-1.904-.582zm2.291 2.916c0 1.639-.816 1.872-2.427 1.872s-2.428-.233-2.428-1.872c0-1.69.988-2.231 2.428-2.231s2.427.541 2.427 2.231m-5.314.311a.2.2 0 0 1-.051-.028c-.023-.018-.086-.081-.075-.414.011-.29.087-.427.165-.498a2.5 2.5 0 0 0-.061.477q-.008.271.022.463m5.774 0a.2.2 0 0 0 .051-.028c.023-.018.086-.081.075-.414-.011-.29-.087-.427-.165-.498q.05.201.061.477.01.271-.022.463" clip-rule="evenodd"/><path fill="#ECECEC" fill-rule="evenodd" d="M906.79 962.995a5.7 5.7 0 0 1 .126-1.541c.081-.755 3.07-.742 3.169 0a5.7 5.7 0 0 1 .125 1.541c-.022.258-.291.47-.536.514-.788.075-1.561.075-2.347 0-.261-.026-.496-.268-.537-.514m3.592-1.592c.112.536.161 1.053.129 1.609v.004l-.001.005a.82.82 0 0 1-.282.532 1.04 1.04 0 0 1-.501.249l-.012.002-.012.002c-.807.077-1.6.077-2.405 0h-.001a.9.9 0 0 1-.533-.26.93.93 0 0 1-.271-.503l-.003-.015v-.016a6 6 0 0 1 .128-1.606.67.67 0 0 1 .266-.432 1.5 1.5 0 0 1 .455-.227c.333-.106.751-.153 1.155-.153.405.001.824.051 1.158.157.166.053.327.124.456.223a.68.68 0 0 1 .274.429" clip-rule="evenodd"/><path fill="#ECECEC" d="M907.596 962.5a.3.3 0 0 0 .301-.298.3.3 0 0 0-.301-.298.3.3 0 0 0-.302.298.3.3 0 0 0 .302.298M909.404 962.5a.3.3 0 0 0 .302-.298.3.3 0 0 0-.302-.298.3.3 0 0 0-.301.298.3.3 0 0 0 .301.298"/><path fill="#ECECEC" fill-rule="evenodd" d="M908.794 962.387a.15.15 0 0 1 .151.149c0 .142-.112.21-.185.237a.8.8 0 0 1-.241.04 2 2 0 0 1-.209-.006c-.156-.013-.243-.047-.225-.178 0-.12.147-.128.249-.12.049.004.113.008.175.005a.6.6 0 0 0 .14-.018.15.15 0 0 1 .145-.109" clip-rule="evenodd"/><path fill="#ECECEC" d="M897.65 971.895c0-.742.607-1.342 1.356-1.342h18.988c.749 0 1.356.6 1.356 1.342a1.35 1.35 0 0 1-1.356 1.342h-18.988a1.35 1.35 0 0 1-1.356-1.342M904.883 976.368a1.35 1.35 0 0 1 1.357-1.342h4.52a1.35 1.35 0 0 1 1.357 1.342 1.35 1.35 0 0 1-1.357 1.343h-4.52a1.35 1.35 0 0 1-1.357-1.343"/><path fill="#F6F6F6" d="M928.392 918.658c0-1.977 1.619-3.579 3.616-3.579h25.317c1.997 0 3.617 1.602 3.617 3.579v25.052c0 1.977-1.62 3.579-3.617 3.579h-25.317c-1.997 0-3.616-1.602-3.616-3.579z"/><rect width="10.85" height="10.737" x="939.242" y="920.447" fill="#F99F9F" rx="5.368"/><path fill="#ECECEC" fill-rule="evenodd" d="M944.968 923.131a.3.3 0 0 1-.301.299.3.3 0 0 1-.301-.299.3.3 0 0 1 .301-.298.3.3 0 0 1 .301.298m-.165.582a.6.6 0 0 0 .467-.582.6.6 0 0 0-.603-.596.6.6 0 0 0-.603.596c0 .273.185.503.438.574v.247c-.704.02-1.37.171-1.875.581a2.15 2.15 0 0 0-.706 1.086c-.343.094-.549.351-.568.868-.018.524.119.706.48.775.092.568.327 1.005.768 1.291.533.346 1.274.394 2.066.394s1.532-.048 2.066-.394c.44-.286.676-.722.767-1.291.362-.069.499-.251.481-.775-.019-.517-.225-.774-.568-.868a2.15 2.15 0 0 0-.706-1.086c-.512-.416-1.19-.566-1.904-.582zm2.291 2.915c0 1.64-.816 1.872-2.427 1.872s-2.428-.232-2.428-1.872c0-1.69.988-2.231 2.428-2.231s2.427.541 2.427 2.231m-5.314.311a.2.2 0 0 1-.051-.028c-.023-.018-.086-.081-.075-.413.011-.29.087-.427.165-.498a2.5 2.5 0 0 0-.061.476v.001c-.007.181.003.333.022.462m5.774 0a.2.2 0 0 0 .051-.028c.023-.018.086-.081.075-.413-.011-.29-.087-.427-.165-.498q.05.2.061.476v.001q.01.27-.022.462" clip-rule="evenodd"/><path fill="#ECECEC" fill-rule="evenodd" d="M942.957 927.205a5.7 5.7 0 0 1 .126-1.54c.08-.756 3.07-.743 3.168 0a5.7 5.7 0 0 1 .126 1.54c-.023.258-.292.47-.537.514-.788.075-1.561.075-2.346 0-.262-.026-.497-.268-.537-.514m3.591-1.592c.113.536.161 1.054.13 1.609l-.001.005v.004a.82.82 0 0 1-.282.532c-.14.126-.319.217-.502.25l-.012.002-.012.001c-.807.077-1.6.077-2.405 0a.9.9 0 0 1-.534-.259.93.93 0 0 1-.27-.504l-.003-.015-.001-.016a6 6 0 0 1 .129-1.606.67.67 0 0 1 .265-.432c.129-.101.29-.174.455-.226.333-.106.751-.154 1.156-.153s.823.05 1.157.156c.166.053.327.125.457.224a.67.67 0 0 1 .273.428" clip-rule="evenodd"/><path fill="#ECECEC" d="M943.762 926.71a.3.3 0 0 0 .302-.298.3.3 0 0 0-.302-.298.3.3 0 0 0-.301.298.3.3 0 0 0 .301.298M945.571 926.71a.3.3 0 0 0 .301-.298.3.3 0 0 0-.301-.298.3.3 0 0 0-.301.298c0 .165.134.298.301.298"/><path fill="#ECECEC" fill-rule="evenodd" d="M944.961 926.597a.15.15 0 0 1 .151.149c0 .142-.112.21-.186.237a.8.8 0 0 1-.24.04 2 2 0 0 1-.21-.006c-.155-.013-.243-.046-.225-.178 0-.119.148-.128.249-.119.05.004.114.007.176.005a.5.5 0 0 0 .14-.019.15.15 0 0 1 .145-.109" clip-rule="evenodd"/><path fill="#ECECEC" d="M933.816 936.105a1.35 1.35 0 0 1 1.357-1.342h18.987a1.35 1.35 0 0 1 1.356 1.342 1.35 1.35 0 0 1-1.356 1.342h-18.987a1.35 1.35 0 0 1-1.357-1.342M941.05 940.579a1.35 1.35 0 0 1 1.356-1.342h4.521a1.35 1.35 0 0 1 1.356 1.342 1.35 1.35 0 0 1-1.356 1.342h-4.521a1.35 1.35 0 0 1-1.356-1.342"/><path fill="#F6F6F6" d="M928.392 954.447c0-1.976 1.619-3.579 3.616-3.579h25.317c1.997 0 3.617 1.603 3.617 3.579V979.5c0 1.977-1.62 3.579-3.617 3.579h-25.317c-1.997 0-3.616-1.602-3.616-3.579z"/><rect width="10.85" height="10.737" x="939.242" y="956.237" fill="#ECECEC" rx="5.368"/><path fill="#ECECEC" fill-rule="evenodd" d="M944.968 958.921a.3.3 0 0 1-.301.298.3.3 0 0 1-.301-.298c0-.165.134-.298.301-.298a.3.3 0 0 1 .301.298m-.165.581a.6.6 0 0 0 .467-.581.6.6 0 0 0-.603-.596.6.6 0 0 0-.603.596c0 .273.185.503.438.574v.247c-.704.019-1.37.17-1.875.581a2.14 2.14 0 0 0-.706 1.086c-.343.094-.549.351-.568.868-.018.523.119.706.48.774.092.569.327 1.006.768 1.292.533.346 1.274.394 2.066.394s1.532-.048 2.066-.394c.44-.286.676-.723.767-1.292.362-.068.499-.251.481-.774-.019-.517-.225-.774-.568-.869a2.15 2.15 0 0 0-.706-1.085c-.512-.416-1.19-.566-1.904-.582zm2.291 2.916c0 1.639-.816 1.872-2.427 1.872s-2.428-.233-2.428-1.872c0-1.69.988-2.231 2.428-2.231s2.427.541 2.427 2.231m-5.314.311a.2.2 0 0 1-.051-.028c-.023-.018-.086-.081-.075-.414.011-.29.087-.427.165-.498a2.5 2.5 0 0 0-.061.477c-.007.182.003.334.022.463m5.774 0a.2.2 0 0 0 .051-.028c.023-.018.086-.081.075-.414-.011-.29-.087-.427-.165-.498q.05.201.061.477.01.271-.022.463" clip-rule="evenodd"/><path fill="#ECECEC" fill-rule="evenodd" d="M942.957 962.995a5.7 5.7 0 0 1 .126-1.541c.08-.755 3.07-.742 3.168 0 .109.518.156 1.012.126 1.541-.023.258-.292.47-.537.514-.788.075-1.561.075-2.346 0-.262-.026-.497-.268-.537-.514m3.591-1.592c.113.536.161 1.053.13 1.609l-.001.004v.005a.82.82 0 0 1-.282.532c-.14.125-.319.217-.502.249l-.012.002-.012.002c-.807.077-1.6.077-2.405 0a.9.9 0 0 1-.534-.26.93.93 0 0 1-.27-.503l-.003-.015-.001-.016a6 6 0 0 1 .129-1.606.67.67 0 0 1 .265-.432 1.5 1.5 0 0 1 .455-.227c.333-.106.751-.153 1.156-.153.405.001.823.051 1.157.157.166.053.327.124.457.223a.68.68 0 0 1 .273.429" clip-rule="evenodd"/><path fill="#ECECEC" d="M943.762 962.5a.3.3 0 0 0 .302-.298.3.3 0 0 0-.302-.298.3.3 0 0 0-.301.298.3.3 0 0 0 .301.298M945.571 962.5a.3.3 0 0 0 .301-.298.3.3 0 0 0-.301-.298.3.3 0 0 0-.301.298c0 .165.134.298.301.298"/><path fill="#ECECEC" fill-rule="evenodd" d="M944.961 962.387a.15.15 0 0 1 .151.149c0 .142-.112.21-.186.237a.8.8 0 0 1-.24.04 2 2 0 0 1-.21-.006c-.155-.013-.243-.047-.225-.178 0-.12.148-.128.249-.12.05.004.114.008.176.005a.6.6 0 0 0 .14-.018.15.15 0 0 1 .145-.109" clip-rule="evenodd"/><path fill="#ECECEC" d="M933.816 971.895a1.35 1.35 0 0 1 1.357-1.342h18.987c.749 0 1.356.6 1.356 1.342a1.35 1.35 0 0 1-1.356 1.342h-18.987a1.35 1.35 0 0 1-1.357-1.342M941.05 976.368a1.35 1.35 0 0 1 1.356-1.342h4.521a1.35 1.35 0 0 1 1.356 1.342 1.35 1.35 0 0 1-1.356 1.343h-4.521a1.35 1.35 0 0 1-1.356-1.343"/><path fill="#F6F6F6" d="M964.558 918.658c0-1.977 1.619-3.579 3.617-3.579h25.316c1.998 0 3.617 1.602 3.617 3.579v25.052c0 1.977-1.619 3.579-3.617 3.579h-25.316c-1.998 0-3.617-1.602-3.617-3.579z"/><rect width="10.85" height="10.737" x="975.408" y="920.447" fill="#ECECEC" rx="5.368"/><path fill="#ECECEC" fill-rule="evenodd" d="M981.135 923.131a.3.3 0 0 1-.302.299.3.3 0 0 1-.301-.299.3.3 0 0 1 .301-.298.3.3 0 0 1 .302.298m-.166.582a.6.6 0 0 0 .467-.582.6.6 0 0 0-.603-.596.6.6 0 0 0-.602.596c0 .273.185.503.437.574v.247c-.703.02-1.37.171-1.875.581a2.15 2.15 0 0 0-.706 1.086c-.342.094-.548.351-.567.868-.019.524.119.706.48.775.092.568.327 1.005.767 1.291.534.346 1.275.394 2.066.394.792 0 1.533-.048 2.066-.394.441-.286.676-.722.768-1.291.361-.069.499-.251.48-.775-.019-.517-.225-.774-.567-.868a2.16 2.16 0 0 0-.706-1.086c-.513-.416-1.191-.566-1.905-.582zm2.292 2.915c0 1.64-.816 1.872-2.428 1.872-1.611 0-2.427-.232-2.427-1.872 0-1.69.988-2.231 2.427-2.231s2.428.541 2.428 2.231m-5.314.311a.2.2 0 0 1-.051-.028c-.024-.018-.087-.081-.075-.413.011-.29.087-.427.165-.498a2.5 2.5 0 0 0-.062.476v.001q-.008.27.023.462m5.773 0a.2.2 0 0 0 .052-.028c.023-.018.086-.081.074-.413-.01-.29-.086-.427-.165-.498q.05.2.062.476v.001q.008.27-.023.462" clip-rule="evenodd"/><path fill="#ECECEC" fill-rule="evenodd" d="M979.123 927.205a5.7 5.7 0 0 1 .126-1.54c.081-.756 3.07-.743 3.169 0a5.7 5.7 0 0 1 .125 1.54c-.022.258-.291.47-.536.514-.788.075-1.561.075-2.347 0-.261-.026-.496-.268-.537-.514m3.592-1.592c.112.536.161 1.054.129 1.609v.005l-.001.004a.82.82 0 0 1-.282.532 1.04 1.04 0 0 1-.501.25l-.012.002-.012.001c-.807.077-1.6.077-2.405 0h-.001a.9.9 0 0 1-.533-.259.93.93 0 0 1-.271-.504l-.003-.015v-.016a6 6 0 0 1 .128-1.606.67.67 0 0 1 .266-.432c.128-.101.289-.174.455-.226a4 4 0 0 1 1.155-.153c.405.001.824.05 1.158.156.166.053.327.125.456.224a.68.68 0 0 1 .274.428" clip-rule="evenodd"/><path fill="#ECECEC" d="M979.929 926.71a.3.3 0 0 0 .301-.298.3.3 0 0 0-.301-.298.3.3 0 0 0-.302.298.3.3 0 0 0 .302.298M981.737 926.71a.3.3 0 0 0 .302-.298.3.3 0 0 0-.302-.298.3.3 0 0 0-.301.298.3.3 0 0 0 .301.298"/><path fill="#ECECEC" fill-rule="evenodd" d="M981.127 926.597a.15.15 0 0 1 .151.149c0 .142-.112.21-.185.237a.8.8 0 0 1-.241.04 2 2 0 0 1-.209-.006c-.156-.013-.243-.046-.225-.178 0-.119.147-.128.249-.119a2 2 0 0 0 .175.005.5.5 0 0 0 .14-.019.15.15 0 0 1 .145-.109" clip-rule="evenodd"/><path fill="#ECECEC" d="M969.983 936.105a1.35 1.35 0 0 1 1.357-1.342h18.987a1.35 1.35 0 0 1 1.356 1.342 1.35 1.35 0 0 1-1.356 1.342H971.34a1.35 1.35 0 0 1-1.357-1.342M977.216 940.579a1.35 1.35 0 0 1 1.357-1.342h4.52a1.35 1.35 0 0 1 1.357 1.342 1.35 1.35 0 0 1-1.357 1.342h-4.52a1.35 1.35 0 0 1-1.357-1.342M854.35 541.421a3.11 3.11 0 0 1 3.116-3.105h162.064c1.72 0 3.12 1.39 3.12 3.105v93.158c0 1.715-1.4 3.105-3.12 3.105H857.466a3.11 3.11 0 0 1-3.116-3.105z"/><path fill="#141414" d="M854.35 541.421a3.11 3.11 0 0 1 3.116-3.105h162.064c1.72 0 3.12 1.39 3.12 3.105v9.316h-168.3z"/><path fill="#ECECEC" d="M860.583 544.526a2.334 2.334 0 0 1 2.338-2.329h17.141a2.334 2.334 0 0 1 2.338 2.329 2.333 2.333 0 0 1-2.338 2.329h-17.141a2.333 2.333 0 0 1-2.338-2.329M885.516 544.526c0-.643.523-1.164 1.169-1.164h7.012c.646 0 1.169.521 1.169 1.164s-.523 1.165-1.169 1.165h-7.012a1.167 1.167 0 0 1-1.169-1.165M897.983 544.526c0-.643.523-1.164 1.169-1.164h10.129c.645 0 1.169.521 1.169 1.164s-.524 1.165-1.169 1.165h-10.129a1.167 1.167 0 0 1-1.169-1.165"/><path fill="#fff" d="M939.769 544.77c0 .986-.473 1.657-1.312 1.657-.498 0-.875-.244-1.069-.715l-.116.659h-.699v-4.343h.839v1.756c.206-.426.565-.652 1.045-.652.839-.001 1.312.671 1.312 1.638m-.844 0c0-.578-.28-.917-.759-.917-.474 0-.754.339-.754.917 0 .596.28.935.754.935.479.001.759-.338.759-.935M942.064 546.371v-3.183h.839v3.183zM946.664 544.783c0 .973-.474 1.645-1.313 1.645-.48 0-.839-.226-1.045-.653v1.681h-.839v-4.268h.699l.116.659c.2-.471.571-.716 1.069-.716.839 0 1.313.672 1.313 1.652m-.845 0c0-.591-.28-.93-.759-.93-.474 0-.754.339-.754.93 0 .584.28.923.754.923.479 0 .759-.339.759-.923M942.967 542.726a.6.6 0 0 0 .049-.228.54.54 0 0 0-.533-.551.543.543 0 0 0-.533.551q.001.124.049.228zM940.946 545.618h.754v.753h-.444c-.802 0-1.149-.37-1.149-1.356v-2.987h.839v3.59"/><path fill="#0096FA" d="M933.017 541.353c-1.81 0-2.782.704-2.782 2.544 0 1.643.818 2.903 2.782 2.903h.144v.808c0 .066.051.127.127.127.06 0 .077-.023.125-.066.346-.308 1.367-1.266 1.367-1.266.509-.501 1.019-1.098 1.019-2.506 0-1.84-.972-2.544-2.782-2.544"/><path fill="#F6F6F6" d="M901.1 550.737h121.55v21.737H901.1z"/><g clip-path="url(#c)"><rect width="9.35" height="9.316" x="907.333" y="556.947" fill="#FDE99B" rx="4.658"/><path fill="#ECECEC" d="M914.699 566.757c-.192-.799-.656-2.668-.656-2.668 0-.094-.57-.124-1.849-.149v-.006h-.371v.004c-1.279.025-1.849.057-1.849.149 0 0-.466 1.87-.656 2.668-.184.769.359 1.449.873 1.449h3.635c.514.001 1.055-.678.873-1.447"/><path fill="#ECECEC" fill-rule="evenodd" d="M913.618 564.241c.295-.216.678-.104.867.187.584.903.976 1.955 1.375 2.945a.606.606 0 0 1-.327.786.593.593 0 0 1-.776-.33c-.368-.913-.718-1.927-1.275-2.751a.607.607 0 0 1 .136-.837M910.399 564.241c-.295-.216-.679-.104-.867.187-.585.903-.976 1.955-1.375 2.945a.606.606 0 0 0 .326.786.594.594 0 0 0 .777-.33c.368-.913.717-1.927 1.275-2.751a.607.607 0 0 0-.136-.837" clip-rule="evenodd"/><path fill="#CB8591" d="M911.93 564.71c.276 0 .5-.195.5-.436 0-.24-.224-.435-.5-.435-.275 0-.499.195-.499.435 0 .241.224.436.499.436"/><path fill="#F6F6F6" d="M911.93 563.891c.249 0 .448.172.448.383s-.202.384-.448.384c-.245 0-.45-.172-.45-.384 0-.211.202-.383.45-.383m0-.052c-.276 0-.499.195-.499.435 0 .241.223.437.499.437.277 0 .497-.196.497-.437s-.223-.435-.497-.435"/><path fill="#CB8591" d="M911.971 563.306h-.081q-.165 0-.327-.037v1q0 .069.025.133a.35.35 0 0 0 .178.189q.06.026.126.026h.076a.32.32 0 0 0 .234-.101.35.35 0 0 0 .097-.247v-1a1.5 1.5 0 0 1-.328.037"/><path fill="#A8747D" d="M911.564 563.637v.288s.079-.142.368-.144c.288-.001.366.158.366.158v-.346l-.734-.014z"/><path fill="#CB8591" d="M910.362 561.019v.74a.23.23 0 0 1-.166-.075.26.26 0 0 1-.068-.177v-.238a.27.27 0 0 1 .069-.175.24.24 0 0 1 .165-.075M913.731 561.269v.236c0 .066-.025.13-.068.177a.23.23 0 0 1-.166.075v-.738a.24.24 0 0 1 .165.075c.043.047.068.11.069.175"/><path fill="#CB8591" d="M913.497 560.281v1.725c.001.212-.039.423-.115.619a1.6 1.6 0 0 1-.331.525q-.215.227-.496.351a1.5 1.5 0 0 1-.584.122h-.081q-.165 0-.327-.037a1.52 1.52 0 0 1-.863-.566 1.67 1.67 0 0 1-.338-1.014v-1.725c0-.213.039-.423.116-.619.077-.197.19-.375.331-.525s.311-.269.496-.351a1.5 1.5 0 0 1 .585-.122h.081c.405 0 .793.17 1.079.473.287.304.447.715.447 1.144"/><path fill="#ECECEC" d="M911.951 560.604c-.079.052-.27.065-.5.082s-.32-.07-.492.009c-.173.08-.53.077-.74-.105a1.3 1.3 0 0 1-.321-.47c-.186-.603.489-.949.489-.949s.027-.537.645-.485c0 0 .09.016.156-.19.067-.205 1.078-.752 1.672.002 0 0 .193.388.334.365s1.272.267.872 1.396c-.069.195-.41.833-1.328.307 0 0-.454-.191-.787.038"/><path fill="#ECECEC" d="M910.908 560.643c.046-.005-.452.258-.546.848v-.993h.234z" opacity=".2"/><path fill="#ECECEC" fill-rule="evenodd" d="M910.316 560.796c0-.027.021-.049.047-.049h.148c.025 0 .046.022.046.049s-.021.049-.046.049h-.148a.05.05 0 0 1-.047-.049M910.316 560.969c0-.027.021-.049.047-.049h.148c.025 0 .046.022.046.049s-.021.049-.046.049h-.148a.05.05 0 0 1-.047-.049" clip-rule="evenodd"/><path fill="#ECECEC" d="M912.948 560.643c-.044-.007.455.26.546.848v-.993h-.234z" opacity=".2"/><path fill="#ECECEC" fill-rule="evenodd" d="M913.302 560.796c0-.027.021-.049.046-.049h.148c.026 0 .047.022.047.049a.05.05 0 0 1-.047.049h-.148c-.025 0-.046-.022-.046-.049M913.302 560.969c0-.027.021-.049.046-.049h.148c.026 0 .047.022.047.049a.05.05 0 0 1-.047.049h-.148c-.025 0-.046-.022-.046-.049" clip-rule="evenodd"/><path fill="#ECECEC" fill-rule="evenodd" d="M910.975 562.56a.82.82 0 0 1-.475-.152.9.9 0 0 1-.315-.407.95.95 0 0 1 .185-.986.84.84 0 0 1 .438-.248.8.8 0 0 1 .494.052.86.86 0 0 1 .383.333.94.94 0 0 1 .144.503l-.002.069h.207a.922.922 0 0 1 .248-.709.84.84 0 0 1 .437-.248.8.8 0 0 1 .494.052c.156.068.29.184.384.333a.95.95 0 0 1 .144.503c0 .24-.09.47-.251.64a.83.83 0 0 1-.604.265.83.83 0 0 1-.475-.152.935.935 0 0 1-.365-.588h-.231a.92.92 0 0 1-.236.475.83.83 0 0 1-.604.265m0-1.714a.73.73 0 0 0-.425.136.8.8 0 0 0-.281.364.85.85 0 0 0 .166.882.73.73 0 0 0 .833.175.8.8 0 0 0 .343-.298.84.84 0 0 0 .128-.45.83.83 0 0 0-.224-.573.75.75 0 0 0-.54-.238zm1.911 0a.74.74 0 0 0-.425.136.8.8 0 0 0-.281.363.86.86 0 0 0-.044.468c.03.157.103.301.21.414a.73.73 0 0 0 .833.176.8.8 0 0 0 .343-.298.85.85 0 0 0-.095-1.023.744.744 0 0 0-.541-.238z" clip-rule="evenodd"/></g><path fill="#ECECEC" d="M919.8 560.053c0-.643.524-1.165 1.169-1.165h19.479c.646 0 1.169.522 1.169 1.165s-.523 1.164-1.169 1.164h-19.479a1.167 1.167 0 0 1-1.169-1.164M919.8 563.546c0-.429.349-.776.779-.776h10.909c.43 0 .779.347.779.776a.777.777 0 0 1-.779.776h-10.909a.777.777 0 0 1-.779-.776"/><path fill="#B2DFFD" d="M999.275 560.053c0-.858.698-1.553 1.555-1.553h15.59c.86 0 1.55.695 1.55 1.553v3.105a1.55 1.55 0 0 1-1.55 1.553h-15.59a1.556 1.556 0 0 1-1.555-1.553z"/><path fill="#ECECEC" d="M854.35 550.737h46.75v86.947h-43.634a3.11 3.11 0 0 1-3.116-3.105z"/><path fill="#ECECEC" fill-rule="evenodd" d="M894.866 572.474h-34.283v-.388h34.283z" clip-rule="evenodd"/><g clip-path="url(#d)"><rect width="9.35" height="9.316" x="860.583" y="578.684" fill="#FDE99B" rx="4.658"/><path fill="#ECECEC" d="M867.949 588.494c-.193-.799-.656-2.668-.656-2.668 0-.094-.571-.124-1.849-.149v-.006h-.372v.004c-1.278.025-1.848.057-1.848.149 0 0-.466 1.87-.657 2.668-.183.769.359 1.449.874 1.449h3.635c.514.001 1.055-.678.873-1.447"/><path fill="#ECECEC" fill-rule="evenodd" d="M866.868 585.978c.295-.216.678-.104.867.187.584.903.976 1.955 1.375 2.945a.606.606 0 0 1-.327.786.593.593 0 0 1-.776-.33c-.368-.913-.718-1.927-1.275-2.751a.607.607 0 0 1 .136-.837M863.648 585.978c-.294-.216-.678-.104-.867.187-.584.903-.975 1.955-1.374 2.945a.604.604 0 0 0 .326.786.593.593 0 0 0 .776-.33c.368-.913.718-1.927 1.275-2.751a.606.606 0 0 0-.136-.837" clip-rule="evenodd"/><path fill="#CB8591" d="M865.18 586.447c.276 0 .5-.195.5-.436 0-.24-.224-.435-.5-.435-.275 0-.499.195-.499.435 0 .241.224.436.499.436"/><path fill="#F6F6F6" d="M865.18 585.628c.248 0 .447.172.447.383s-.202.384-.447.384-.45-.172-.45-.384c0-.211.202-.383.45-.383m0-.052c-.276 0-.5.195-.5.435 0 .241.224.436.5.436s.497-.195.497-.436-.224-.435-.497-.435"/><path fill="#CB8591" d="M865.22 585.043h-.081q-.165 0-.326-.037v.999a.36.36 0 0 0 .096.247.323.323 0 0 0 .233.102h.076a.323.323 0 0 0 .234-.101.36.36 0 0 0 .097-.248v-.999a1.5 1.5 0 0 1-.329.037"/><path fill="#A8747D" d="M864.814 585.374v.288s.079-.142.368-.144c.288-.001.366.158.366.158v-.346l-.734-.014z"/><path fill="#CB8591" d="M863.611 582.756v.74a.23.23 0 0 1-.165-.075.26.26 0 0 1-.068-.177v-.238c0-.065.025-.128.069-.175a.23.23 0 0 1 .164-.075M866.981 583.006v.236a.27.27 0 0 1-.068.177.23.23 0 0 1-.166.075v-.738a.24.24 0 0 1 .165.075c.043.047.068.11.069.175"/><path fill="#CB8591" d="M866.747 582.017v1.726c0 .212-.039.423-.116.619a1.6 1.6 0 0 1-.33.525c-.142.15-.311.269-.496.35a1.5 1.5 0 0 1-.585.123h-.081q-.165 0-.326-.038a1.52 1.52 0 0 1-.864-.565 1.68 1.68 0 0 1-.338-1.014v-1.726c0-.212.04-.422.117-.619.076-.196.189-.374.331-.524s.31-.27.496-.351a1.4 1.4 0 0 1 .584-.122h.081c.405 0 .794.17 1.08.473s.447.715.447 1.143"/><path fill="#ECECEC" d="M865.201 582.341c-.079.052-.271.065-.5.082-.23.018-.32-.07-.493.009-.172.08-.53.077-.74-.105a1.3 1.3 0 0 1-.32-.47c-.187-.603.488-.949.488-.949s.027-.537.646-.485c0 0 .089.016.156-.19.066-.205 1.078-.752 1.672.002 0 0 .192.388.334.365.141-.024 1.271.267.872 1.395-.069.196-.41.833-1.329.308 0 0-.453-.191-.786.038"/><path fill="#ECECEC" d="M864.158 582.38c.046-.005-.453.258-.547.848v-.993h.234z" opacity=".2"/><path fill="#ECECEC" fill-rule="evenodd" d="M863.566 582.533c0-.028.021-.05.047-.05h.148c.025 0 .046.022.046.05 0 .027-.021.049-.046.049h-.148a.05.05 0 0 1-.047-.049M863.566 582.706c0-.028.021-.05.047-.05h.148c.025 0 .046.022.046.05 0 .027-.021.049-.046.049h-.148a.05.05 0 0 1-.047-.049" clip-rule="evenodd"/><path fill="#ECECEC" d="M866.198 582.38c-.044-.007.455.26.546.848v-.993h-.234z" opacity=".2"/><path fill="#ECECEC" fill-rule="evenodd" d="M866.552 582.533c0-.028.021-.05.046-.05h.148c.026 0 .047.022.047.05a.05.05 0 0 1-.047.049h-.148c-.025 0-.046-.022-.046-.049M866.552 582.706c0-.028.021-.05.046-.05h.148c.026 0 .047.022.047.05a.05.05 0 0 1-.047.049h-.148c-.025 0-.046-.022-.046-.049" clip-rule="evenodd"/><path fill="#ECECEC" fill-rule="evenodd" d="M864.225 584.297a.8.8 0 0 1-.475-.153.9.9 0 0 1-.315-.406.95.95 0 0 1 .185-.986.84.84 0 0 1 .438-.248.8.8 0 0 1 .494.052.86.86 0 0 1 .383.333.94.94 0 0 1 .144.503l-.002.069h.207a.918.918 0 0 1 .248-.709.84.84 0 0 1 .437-.248.8.8 0 0 1 .494.052c.156.068.29.184.384.333a.95.95 0 0 1 .144.503c0 .24-.09.47-.251.64a.82.82 0 0 1-1.079.112.9.9 0 0 1-.314-.406 1 1 0 0 1-.051-.182h-.231a.93.93 0 0 1-.236.476.83.83 0 0 1-.604.265m0-1.715a.73.73 0 0 0-.425.137.8.8 0 0 0-.281.363.85.85 0 0 0 .166.882.73.73 0 0 0 .833.176.8.8 0 0 0 .343-.298.846.846 0 0 0-.096-1.023.74.74 0 0 0-.54-.238zm1.911 0a.74.74 0 0 0-.425.137.8.8 0 0 0-.281.363.86.86 0 0 0-.044.468c.03.157.103.301.21.414a.73.73 0 0 0 .833.176.8.8 0 0 0 .343-.298.855.855 0 0 0-.095-1.023.8.8 0 0 0-.248-.176.7.7 0 0 0-.293-.062z" clip-rule="evenodd"/></g><path fill="#ECECEC" d="M873.049 581.789c0-.643.524-1.164 1.169-1.164h19.479c.646 0 1.169.521 1.169 1.164 0 .644-.523 1.165-1.169 1.165h-19.479a1.167 1.167 0 0 1-1.169-1.165M873.049 585.283c0-.429.349-.776.779-.776h10.909c.43 0 .779.347.779.776a.777.777 0 0 1-.779.776h-10.909a.777.777 0 0 1-.779-.776"/><path fill="#ECECEC" fill-rule="evenodd" d="M894.866 594.21h-34.283v-.388h34.283z" clip-rule="evenodd"/><g clip-path="url(#e)"><rect width="9.35" height="9.316" x="860.583" y="600.421" fill="#84EBBC" rx="4.658"/><path fill="#FDE99B" d="M867.949 609.842c-.193-.798-.656-2.668-.656-2.668 0-.094-.571-.124-1.849-.148v-.006h-.372v.004c-1.278.024-1.848.057-1.848.148 0 0-.466 1.87-.657 2.668-.183.77.359 1.449.874 1.449h3.635c.514.002 1.055-.678.873-1.447"/><path fill="#FDE99B" fill-rule="evenodd" d="M866.868 607.327c.295-.217.678-.104.867.187.584.902.976 1.955 1.375 2.945a.606.606 0 0 1-.327.786.593.593 0 0 1-.776-.331c-.368-.912-.718-1.927-1.275-2.75a.607.607 0 0 1 .136-.837M863.648 607.327c-.294-.217-.678-.104-.867.187-.584.902-.975 1.955-1.374 2.945a.604.604 0 0 0 .326.786.593.593 0 0 0 .776-.331c.368-.912.718-1.927 1.275-2.75a.606.606 0 0 0-.136-.837" clip-rule="evenodd"/><path fill="#ECECEC" d="M865.19 602.18c.071-.013.856-.652 1.551.159.492.574.042.953.463 1.349.373.351.891 1.276.183 2.042-.332.359.535 1.753-1.227 1.114-1.119-.407-1.212-.151-1.212-.151z"/><path fill="#ECECEC" d="M865.736 602.393s.037-.339-.483-.549c-.521-.209-1.775.067-1.751 1.171s-1.123 1.155-.814 1.986c.31.83-.549.938.252 1.611s2.181.496 2.162-.659c-.019-1.154.634-3.56.634-3.56"/><path fill="#CB9685" d="M865.24 607.796c.259 0 .468-.177.468-.396s-.209-.396-.468-.396-.469.177-.469.396.21.396.469.396"/><path fill="#F6F6F6" fill-rule="evenodd" d="M865.24 607.033c-.249 0-.44.169-.44.367s.191.367.44.367.441-.169.441-.367-.192-.367-.441-.367m-.496.367c0-.239.227-.424.496-.424s.497.185.497.424c0 .24-.228.425-.497.425s-.496-.185-.496-.425" clip-rule="evenodd"/><path fill="#CB9685" d="M865.278 606.263h-.076q-.154 0-.306-.034v.908a.33.33 0 0 0 .09.224.3.3 0 0 0 .219.093h.071a.305.305 0 0 0 .286-.197.3.3 0 0 0 .022-.122v-.909a1.4 1.4 0 0 1-.306.037"/><path fill="#BF7D68" d="M864.897 606.476v.261s.073-.128.343-.128.344.143.344.143v-.316l-.688-.013z"/><path fill="#CB9685" d="M866.711 603.435v1.568a1.5 1.5 0 0 1-.419 1.039 1.4 1.4 0 0 1-1.014.43h-.076q-.154 0-.306-.034a1.43 1.43 0 0 1-.809-.514 1.5 1.5 0 0 1-.317-.92v-1.569c0-.389.151-.763.42-1.039.268-.275.633-.43 1.012-.43h.076c.38 0 .745.155 1.013.43.269.276.42.65.42 1.039"/><path fill="#CB9685" d="M863.806 604.594v.672a.22.22 0 0 1-.156-.068.23.23 0 0 1-.064-.161v-.214a.224.224 0 0 1 .22-.229M866.838 604.823v.214c0 .06-.023.118-.064.161a.22.22 0 0 1-.155.068v-.672a.22.22 0 0 1 .155.068.23.23 0 0 1 .064.161"/><path fill="#ECECEC" d="M865.305 602.183q.281-.16.592-.245.158-.039.321-.03a.7.7 0 0 1 .313.099c.094.06.173.143.229.241l.044.07.039.072c.028.048.05.098.074.148q.065.151.111.31c.032.105.058.21.094.309a1 1 0 0 0 .147.274q.105.12.226.222.118.114.219.244t.171.282c.096.202.123.431.079.651a1.35 1.35 0 0 1-.315.566c.136-.166.232-.363.28-.574a1 1 0 0 0-.094-.618 1 1 0 0 0-.079-.137c-.027-.048-.061-.087-.093-.129a2 2 0 0 0-.216-.232 2 2 0 0 1-.233-.229 1 1 0 0 1-.16-.293c-.038-.105-.064-.211-.094-.314a3 3 0 0 0-.105-.303c-.023-.048-.043-.096-.069-.144l-.038-.07-.041-.068a.62.62 0 0 0-.492-.329 1 1 0 0 0-.311.018 2 2 0 0 0-.304.086c-.1.036-.196.083-.295.123"/><path fill="#ECECEC" d="M865.749 602.561a.46.46 0 0 0-.154-.341 1 1 0 0 0-.321-.201 1.1 1.1 0 0 0-.367-.071 1.68 1.68 0 0 0-.731.147q-.172.077-.313.204a1 1 0 0 0-.331.658q-.009.093-.013.194a1.199 1.199 0 0 1-.183.567c-.143.227-.352.39-.533.567a.8.8 0 0 0-.208.309.6.6 0 0 0-.022.186.8.8 0 0 0 .035.187.886.886 0 0 1 .009.582 2 2 0 0 1-.077.181q.083-.177.099-.374a1 1 0 0 0-.063-.378 1 1 0 0 1-.044-.196.6.6 0 0 1 .02-.201.84.84 0 0 1 .212-.335c.09-.095.186-.18.277-.27q.137-.132.242-.293a1.1 1.1 0 0 0 .169-.537c.003-.063.004-.131.011-.197q.023-.203.114-.383.092-.181.245-.314a1.3 1.3 0 0 1 .33-.211q.179-.081.373-.113.191-.036.385-.025.195.007.377.084a1 1 0 0 1 .319.219.6.6 0 0 1 .109.164.4.4 0 0 1 .034.191"/><path fill="#ECECEC" d="M865.096 601.89c-1.118-.187-1.603 1.304-1.538 1.647l.14.711s.135.851.108.666a1 1 0 0 1-.01-.134.9.9 0 0 1 .059-.344c.082-.208.193-.464.193-.464s.735.118 1.386-.184c.65-.303.909-1.27.909-1.27s-.128-.441-1.247-.628"/><path fill="#ECECEC" d="M865.146 601.841c1.555-.268 1.789 1.294 1.721 1.637a36 36 0 0 0-.197 1.335c0-.135-.145-1.099-.251-1.264-.539-.843-1.273-1.708-1.273-1.708"/><path fill="#ECECEC" d="M866.333 602.518a2.419 2.419 0 0 1-.228.735 1.8 1.8 0 0 1-.34.473l-.075.063q-.017.017-.038.031l-.041.027a2 2 0 0 1-.715.268q-.187.034-.376.04a2 2 0 0 1-.375-.02q.373-.01.736-.095a3 3 0 0 0 .351-.109q.043-.016.085-.036.042-.017.083-.038l.081-.042q.04-.024.076-.048l.039-.024q.017-.013.035-.028l.071-.061c.043-.044.087-.085.126-.133q.12-.143.209-.307.095-.163.166-.339.075-.176.13-.357"/></g><path fill="#ECECEC" d="M873.049 603.526c0-.643.524-1.164 1.169-1.164h13.246c.645 0 1.169.521 1.169 1.164s-.524 1.165-1.169 1.165h-13.246a1.17 1.17 0 0 1-1.169-1.165M873.049 607.02c0-.429.349-.777.779-.777h20.259c.43 0 .779.348.779.777a.78.78 0 0 1-.779.776h-20.259a.78.78 0 0 1-.779-.776"/><path fill="#ECECEC" fill-rule="evenodd" d="M894.866 615.947h-34.283v-.388h34.283z" clip-rule="evenodd"/><path fill="#ECECEC" d="M873.049 625.263c0-.643.524-1.164 1.169-1.164h19.479c.646 0 1.169.521 1.169 1.164s-.523 1.165-1.169 1.165h-19.479a1.17 1.17 0 0 1-1.169-1.165M873.049 628.757c0-.429.349-.777.779-.777h10.909c.43 0 .779.348.779.777a.78.78 0 0 1-.779.776h-10.909a.78.78 0 0 1-.779-.776"/><g clip-path="url(#f)"><rect width="9.35" height="9.316" x="860.583" y="622.158" fill="#80E3EB" rx="4.658"/><path fill="#0096FA" d="M867.595 630.024c0 1.445-1.046 3.973-2.337 3.973s-2.338-2.528-2.338-3.973 1.047-1.26 2.338-1.26 2.337-.185 2.337 1.26"/><path fill="#0096FA" fill-rule="evenodd" d="M867.062 629.258c.295-.217.679-.104.868.187.584.902.975 1.955 1.374 2.945a.604.604 0 0 1-.326.786.594.594 0 0 1-.776-.331c-.368-.912-.718-1.927-1.275-2.75a.607.607 0 0 1 .135-.837M863.454 629.258c-.295-.217-.679-.104-.868.187-.584.902-.975 1.955-1.374 2.945a.605.605 0 0 0 .326.786.594.594 0 0 0 .776-.331c.368-.912.718-1.927 1.276-2.75a.61.61 0 0 0-.136-.837" clip-rule="evenodd"/><path fill="#F99F9F" d="M865.258 629.533c.269 0 .486-.178.486-.398s-.217-.398-.486-.398c-.268 0-.486.178-.486.398s.218.398.486.398"/><path fill="#F6F6F6" fill-rule="evenodd" d="M865.258 629.485c.251 0 .438-.165.438-.35s-.187-.35-.438-.35-.438.165-.438.35.187.35.438.35m.486-.35c0 .22-.217.398-.486.398-.268 0-.486-.178-.486-.398s.218-.398.486-.398c.269 0 .486.178.486.398" clip-rule="evenodd"/><path fill="#F99F9F" d="M866.784 624.993v1.576a1.474 1.474 0 0 1-.917 1.365c-.18.074-.374.112-.569.112h-.077q-.16 0-.317-.034a1.5 1.5 0 0 1-.84-.517 1.47 1.47 0 0 1-.329-.925v-1.577c0-.391.156-.767.435-1.044a1.5 1.5 0 0 1 1.051-.433h.079c.394.001.772.157 1.05.434s.434.652.434 1.043M863.732 625.609v.675a.23.23 0 0 1-.161-.068.24.24 0 0 1-.066-.162v-.215a.23.23 0 0 1 .227-.23"/><path fill="#F99F9F" d="M867.011 625.839v.215c0 .06-.024.118-.066.162a.23.23 0 0 1-.161.068v-.675a.23.23 0 0 1 .227.23"/><path fill="#F6F6F6" fill-rule="evenodd" d="M865.043 624.126a.744.744 0 0 0-.748.742.145.145 0 0 1-.29 0c0-.273.109-.535.304-.729a1.04 1.04 0 0 1 .734-.301.144.144 0 1 1 0 .288" clip-rule="evenodd" opacity=".2"/><path fill="#F99F9F" d="M865.298 628.046h-.077q-.16 0-.318-.034v.913a.323.323 0 0 0 .318.317h.074a.33.33 0 0 0 .296-.197.3.3 0 0 0 .024-.122v-.911a1.5 1.5 0 0 1-.317.034"/><path fill="#F99F9F" d="M864.902 628.353v.263s.077-.13.357-.132c.28-.001.357.144.357.144v-.315l-.714-.013z"/><path fill="#ECECEC" d="M866.726 626.527a.645.645 0 0 1-.656.614h-.03a.3.3 0 0 1-.113-.026.3.3 0 0 1-.092-.07.78.78 0 0 0-.588-.272.79.79 0 0 0-.594.26.273.273 0 0 1-.206.092.649.649 0 0 1-.643-.607l-.072-1.159v1.81c0 .687.365 1.244 1.252 1.244h.587c.932 0 1.213-.557 1.213-1.244v-1.81z"/></g><path fill="#F6F6F6" d="M854.35 550.737h46.75v21.737h-46.75z"/><path fill="#ECECEC" d="M866.816 556.947c0-.643.524-1.164 1.169-1.164h19.479c.646 0 1.169.521 1.169 1.164s-.523 1.165-1.169 1.165h-19.479a1.17 1.17 0 0 1-1.169-1.165"/><path fill="#B2DFFD" d="M868.375 562.77c0-.858.697-1.553 1.558-1.553h15.583c.861 0 1.559.695 1.559 1.553v3.105c0 .857-.698 1.553-1.559 1.553h-15.583a1.556 1.556 0 0 1-1.558-1.553z"/><path fill="#ECECEC" fill-rule="evenodd" d="M900.905 550.737v86.947h.389v-86.947z" clip-rule="evenodd"/><path fill="#F6F6F6" d="M907.333 575.579h37.4a3.11 3.11 0 0 1 3.117 3.105v13.974a3.11 3.11 0 0 1-3.117 3.105H910.45a3.11 3.11 0 0 1-3.117-3.105z"/><path fill="#ECECEC" d="M912.008 581.401c0-.643.523-1.164 1.169-1.164h28.829c.645 0 1.168.521 1.168 1.164s-.523 1.165-1.168 1.165h-28.829a1.167 1.167 0 0 1-1.169-1.165M912.008 585.283c0-.643.523-1.165 1.169-1.165h18.7c.645 0 1.168.522 1.168 1.165s-.523 1.164-1.168 1.164h-18.7a1.166 1.166 0 0 1-1.169-1.164"/><path fill="#0096FA" d="m943.127 588.152-.163-.126a.126.126 0 0 0-.174.021l-1.827 2.336a.1.1 0 0 1-.035.03.1.1 0 0 1-.045.013.1.1 0 0 1-.046-.007.1.1 0 0 1-.039-.025l-.122-.11a.106.106 0 0 0-.085-.033.1.1 0 0 0-.045.013.1.1 0 0 0-.035.03l-.129.165a.14.14 0 0 0-.028.094.14.14 0 0 0 .04.089l.45.431a.11.11 0 0 0 .165-.012l2.14-2.735a.125.125 0 0 0-.022-.174m-1.399 0-.163-.126a.12.12 0 0 0-.091-.025.13.13 0 0 0-.083.046l-1.827 2.336a.1.1 0 0 1-.035.03.108.108 0 0 1-.091.006.1.1 0 0 1-.039-.025l-.747-.728a.12.12 0 0 0-.088-.035.12.12 0 0 0-.088.037l-.144.147a.125.125 0 0 0 .002.175l1.111 1.082a.11.11 0 0 0 .166-.011l2.139-2.735a.125.125 0 0 0-.022-.174"/><path fill="#ECECEC" d="M662.899 137.895a3.97 3.97 0 0 1 3.967-3.974h206.267a3.97 3.97 0 0 1 3.966 3.974v119.21a3.97 3.97 0 0 1-3.966 3.974H666.866a3.97 3.97 0 0 1-3.967-3.974z"/><path fill="#141414" d="M662.899 137.895a3.97 3.97 0 0 1 3.967-3.974h206.267a3.97 3.97 0 0 1 3.966 3.974v11.921h-214.2z"/><path fill="#ECECEC" d="M670.833 141.868a2.977 2.977 0 0 1 2.975-2.98h21.816a2.977 2.977 0 0 1 2.975 2.98 2.98 2.98 0 0 1-2.975 2.981h-21.816a2.98 2.98 0 0 1-2.975-2.981M702.566 141.868c0-.823.666-1.49 1.487-1.49h8.925a1.49 1.49 0 0 1 0 2.981h-8.925a1.49 1.49 0 0 1-1.487-1.491M718.433 141.868c0-.823.666-1.49 1.487-1.49h12.892c.821 0 1.487.667 1.487 1.49a1.49 1.49 0 0 1-1.487 1.491H719.92a1.49 1.49 0 0 1-1.487-1.491"/><path fill="#fff" d="M771.616 142.18c0 1.262-.603 2.121-1.67 2.121-.634 0-1.114-.313-1.361-.916l-.147.844h-.89v-5.557h1.068v2.247c.263-.546.719-.835 1.33-.835 1.067-.001 1.67.859 1.67 2.096m-1.074 0c0-.739-.356-1.173-.967-1.173-.603 0-.959.434-.959 1.173 0 .763.356 1.197.959 1.197.611 0 .967-.433.967-1.197M774.536 144.229v-4.073h1.067v4.073zM780.391 142.196c0 1.246-.604 2.106-1.671 2.106-.611 0-1.067-.29-1.33-.836v2.151h-1.067v-5.461h.889l.147.843c.255-.602.727-.916 1.361-.916 1.067 0 1.671.86 1.671 2.113m-1.075 0c0-.755-.356-1.189-.967-1.189-.603 0-.959.434-.959 1.189 0 .748.356 1.181.959 1.181.611 0 .967-.433.967-1.181M775.686 139.565a.7.7 0 0 0 .063-.292.69.69 0 0 0-.679-.705.69.69 0 0 0-.678.705q.002.157.062.292zM773.113 143.265h.959v.964h-.564c-1.021 0-1.462-.474-1.462-1.735v-3.822h1.067v4.593"/><path fill="#0096FA" d="M763.022 137.808c-2.304 0-3.541.901-3.541 3.255 0 2.103 1.042 3.714 3.541 3.714h.183l.001 1.035a.16.16 0 0 0 .161.163c.076 0 .097-.03.158-.085.442-.395 1.741-1.62 1.741-1.62.647-.641 1.297-1.405 1.297-3.207 0-2.354-1.237-3.255-3.541-3.255"/><path fill="#F6F6F6" d="M722.399 149.816h154.7v27.816h-154.7z"/><g clip-path="url(#g)"><rect width="11.9" height="11.921" x="730.333" y="157.763" fill="#FDE99B" rx="5.95"/><path fill="#ECECEC" d="M739.708 170.316c-.245-1.022-.835-3.414-.835-3.414 0-.121-.726-.159-2.353-.19v-.008h-.473v.005c-1.628.032-2.353.073-2.353.19 0 0-.593 2.393-.836 3.414-.233.985.457 1.855 1.112 1.855h4.626c.655.002 1.343-.868 1.112-1.852"/><path fill="#ECECEC" fill-rule="evenodd" d="M738.331 167.097c.376-.277.864-.133 1.104.239.744 1.155 1.242 2.502 1.75 3.769a.776.776 0 0 1-.416 1.005.753.753 0 0 1-.988-.422c-.468-1.168-.913-2.466-1.623-3.52a.78.78 0 0 1 .173-1.071M734.235 167.097c-.376-.277-.864-.133-1.104.239-.744 1.155-1.242 2.502-1.75 3.769a.776.776 0 0 0 .416 1.005.754.754 0 0 0 .988-.422c.468-1.168.913-2.466 1.623-3.52a.78.78 0 0 0-.173-1.071" clip-rule="evenodd"/><path fill="#CB8591" d="M736.184 167.697c.351 0 .635-.25.635-.558s-.284-.557-.635-.557-.636.249-.636.557.285.558.636.558"/><path fill="#F6F6F6" d="M736.184 166.649c.316 0 .569.22.569.49s-.257.491-.569.491-.573-.22-.573-.491.257-.49.573-.49m0-.067c-.352 0-.636.249-.636.557s.284.558.636.558c.351 0 .632-.249.632-.558 0-.308-.284-.557-.632-.557"/><path fill="#CB8591" d="M736.235 165.9h-.103q-.21 0-.415-.048v1.28q0 .088.031.171a.44.44 0 0 0 .227.241.4.4 0 0 0 .16.034h.097a.408.408 0 0 0 .298-.13.472.472 0 0 0 .123-.316v-1.28a2 2 0 0 1-.418.048"/><path fill="#A8747D" d="M735.718 166.324v.369s.1-.183.467-.185.467.202.467.202v-.443l-.934-.018z"/><path fill="#CB8591" d="M734.187 162.974v.947a.3.3 0 0 1-.21-.097.33.33 0 0 1-.087-.226v-.304a.33.33 0 0 1 .088-.224.3.3 0 0 1 .209-.096M738.475 163.294v.301a.34.34 0 0 1-.087.227.3.3 0 0 1-.21.096v-.944a.3.3 0 0 1 .209.096c.056.059.087.14.088.224"/><path fill="#CB8591" d="M738.178 162.029v2.207c.001.272-.049.542-.147.793s-.24.479-.421.672c-.18.192-.395.344-.631.448a1.8 1.8 0 0 1-.744.157h-.103q-.21 0-.415-.048a1.93 1.93 0 0 1-1.099-.724 2.15 2.15 0 0 1-.43-1.298v-2.207c-.001-.272.05-.541.148-.793.097-.251.241-.479.421-.671a2 2 0 0 1 .631-.449c.236-.103.489-.157.744-.156h.103c.516 0 1.01.218 1.374.606s.569.914.569 1.463"/><path fill="#ECECEC" d="M736.21 162.442c-.1.067-.344.084-.637.106-.292.022-.407-.09-.626.011-.219.102-.675.099-.942-.134a1.7 1.7 0 0 1-.408-.602c-.237-.771.622-1.214.622-1.214s.034-.688.821-.621c0 0 .114.021.199-.243.085-.263 1.372-.962 2.128.002 0 0 .245.497.425.467s1.618.342 1.11 1.786c-.088.25-.522 1.066-1.691.394 0 0-.577-.245-1.001.048"/><path fill="#ECECEC" d="M734.883 162.493c.059-.007-.576.329-.695 1.084v-1.27h.297z" opacity=".2"/><path fill="#ECECEC" fill-rule="evenodd" d="M734.13 162.688c0-.035.026-.063.059-.063h.188c.033 0 .059.028.059.063s-.026.063-.059.063h-.188c-.033 0-.059-.028-.059-.063M734.13 162.909c0-.035.026-.063.059-.063h.188c.033 0 .059.028.059.063s-.026.064-.059.064h-.188c-.033 0-.059-.029-.059-.064" clip-rule="evenodd"/><path fill="#ECECEC" d="M737.479 162.493c-.056-.01.579.332.696 1.084v-1.27h-.298z" opacity=".2"/><path fill="#ECECEC" fill-rule="evenodd" d="M737.929 162.688c0-.035.027-.063.06-.063h.187c.033 0 .06.028.06.063a.06.06 0 0 1-.06.063h-.187a.06.06 0 0 1-.06-.063M737.929 162.909c0-.035.027-.063.06-.063h.187c.033 0 .06.028.06.063s-.027.064-.06.064h-.187c-.033 0-.06-.029-.06-.064" clip-rule="evenodd"/><path fill="#ECECEC" fill-rule="evenodd" d="M734.967 164.946c-.215 0-.425-.068-.604-.196a1.14 1.14 0 0 1-.401-.519 1.23 1.23 0 0 1-.062-.67c.042-.224.146-.431.298-.593a1.035 1.035 0 0 1 1.185-.251 1.1 1.1 0 0 1 .488.427c.12.19.184.414.184.643q0 .044-.004.089h.264a1.188 1.188 0 0 1 .316-.908 1.036 1.036 0 0 1 1.185-.251c.199.088.368.236.488.427.119.19.183.414.183.643 0 .308-.114.602-.318.819-.204.218-.481.34-.769.34a1.04 1.04 0 0 1-.605-.196 1.15 1.15 0 0 1-.4-.519 1.3 1.3 0 0 1-.065-.233h-.294a1.18 1.18 0 0 1-.3.608c-.204.218-.481.34-.769.34m0-2.194a.94.94 0 0 0-.54.174c-.16.114-.285.276-.358.465a1.09 1.09 0 0 0 .211 1.129.95.95 0 0 0 .498.283c.189.04.384.02.562-.059a1 1 0 0 0 .436-.381 1.086 1.086 0 0 0-.121-1.309.95.95 0 0 0-.688-.304zm2.433 0a.93.93 0 0 0-.541.174 1.03 1.03 0 0 0-.358.465 1.09 1.09 0 0 0 .211 1.129.95.95 0 0 0 .498.283c.189.04.384.02.562-.059a1 1 0 0 0 .436-.381 1.108 1.108 0 0 0 .091-.972 1.1 1.1 0 0 0-.211-.337 1 1 0 0 0-.316-.225.9.9 0 0 0-.372-.079z" clip-rule="evenodd"/></g><path fill="#ECECEC" d="M746.2 161.737c0-.823.666-1.49 1.487-1.49h24.792c.821 0 1.487.667 1.487 1.49s-.666 1.49-1.487 1.49h-24.792a1.49 1.49 0 0 1-1.487-1.49M746.2 166.207c0-.548.444-.993.991-.993h13.884a.992.992 0 0 1 0 1.987h-13.884a.993.993 0 0 1-.991-.994"/><path fill="#B2DFFD" d="M847.35 161.737c0-1.097.888-1.987 1.983-1.987h19.833c1.096 0 1.984.89 1.984 1.987v3.974a1.985 1.985 0 0 1-1.984 1.986h-19.833a1.985 1.985 0 0 1-1.983-1.986z"/><path fill="#ECECEC" d="M662.899 149.816h59.5v111.263h-55.533a3.97 3.97 0 0 1-3.967-3.974z"/><path fill="#ECECEC" fill-rule="evenodd" d="M714.466 177.632h-43.633v-.497h43.633z" clip-rule="evenodd"/><g clip-path="url(#h)"><rect width="11.9" height="11.921" x="670.833" y="185.579" fill="#FDE99B" rx="5.95"/><path fill="#ECECEC" d="M680.208 198.132c-.245-1.022-.835-3.415-.835-3.415 0-.12-.726-.158-2.353-.189v-.008h-.473v.005c-1.628.031-2.353.073-2.353.19 0 0-.593 2.393-.836 3.414-.233.985.457 1.855 1.112 1.855h4.626c.655.001 1.343-.868 1.112-1.852"/><path fill="#ECECEC" fill-rule="evenodd" d="M678.831 194.912c.376-.276.864-.133 1.104.24.744 1.155 1.242 2.502 1.75 3.768a.776.776 0 0 1-.416 1.006.753.753 0 0 1-.988-.423c-.468-1.167-.913-2.465-1.623-3.519a.78.78 0 0 1 .173-1.072M674.734 194.912c-.375-.276-.863-.133-1.104.24-.744 1.155-1.241 2.502-1.749 3.768a.777.777 0 0 0 .415 1.006.753.753 0 0 0 .988-.423c.468-1.167.914-2.465 1.623-3.519a.78.78 0 0 0-.173-1.072" clip-rule="evenodd"/><path fill="#CB8591" d="M676.683 195.512c.351 0 .636-.249.636-.557s-.285-.558-.636-.558-.635.25-.635.558.284.557.635.557"/><path fill="#F6F6F6" d="M676.683 194.465c.317 0 .569.22.569.49s-.256.491-.569.491-.572-.22-.572-.491.256-.49.572-.49m0-.068c-.351 0-.636.25-.636.558s.285.558.636.558.633-.25.633-.558-.285-.558-.633-.558"/><path fill="#CB8591" d="M676.735 193.715h-.103a1.8 1.8 0 0 1-.416-.047v1.28a.47.47 0 0 0 .123.315.42.42 0 0 0 .296.131h.097a.4.4 0 0 0 .297-.13.4.4 0 0 0 .092-.145.5.5 0 0 0 .032-.171v-1.28a1.8 1.8 0 0 1-.418.047"/><path fill="#A8747D" d="M676.218 194.14v.369s.1-.183.467-.185.467.202.467.202v-.443l-.934-.018z"/><path fill="#CB8591" d="M674.687 190.79v.946a.3.3 0 0 1-.211-.096.33.33 0 0 1-.086-.226v-.304c0-.084.032-.165.087-.225a.3.3 0 0 1 .21-.095M678.975 191.11v.301a.33.33 0 0 1-.087.226.3.3 0 0 1-.21.097v-.944a.3.3 0 0 1 .209.095c.056.06.087.141.088.225"/><path fill="#CB8591" d="M678.678 189.844v2.208c0 .272-.05.541-.147.793a2.1 2.1 0 0 1-.421.671 1.9 1.9 0 0 1-.631.449 1.8 1.8 0 0 1-.744.156h-.103a1.8 1.8 0 0 1-.416-.047 1.93 1.93 0 0 1-1.099-.724 2.16 2.16 0 0 1-.43-1.298v-2.208c0-.271.05-.541.148-.792s.241-.479.422-.671c.18-.193.395-.345.631-.449s.489-.157.744-.157h.103c.515 0 1.009.218 1.374.606.364.388.569.915.569 1.463"/><path fill="#ECECEC" d="M676.71 190.258c-.1.067-.344.083-.637.106-.292.022-.407-.091-.626.011s-.675.098-.942-.135a1.7 1.7 0 0 1-.408-.601c-.237-.772.622-1.215.622-1.215s.034-.687.821-.62c0 0 .114.02.199-.243s1.372-.963 2.128.002c0 0 .245.497.425.467s1.618.342 1.11 1.786c-.088.25-.522 1.066-1.691.394 0 0-.577-.245-1.001.048"/><path fill="#ECECEC" d="M675.382 190.308c.059-.006-.575.33-.695 1.085v-1.271h.298z" opacity=".2"/><path fill="#ECECEC" fill-rule="evenodd" d="M674.629 190.504c0-.035.027-.064.06-.064h.187c.033 0 .06.029.06.064 0 .034-.027.063-.06.063h-.187c-.033 0-.06-.029-.06-.063M674.629 190.725c0-.035.027-.063.06-.063h.187c.033 0 .06.028.06.063a.06.06 0 0 1-.06.063h-.187a.06.06 0 0 1-.06-.063" clip-rule="evenodd"/><path fill="#ECECEC" d="M677.979 190.308c-.056-.009.579.333.696 1.085v-1.271h-.298z" opacity=".2"/><path fill="#ECECEC" fill-rule="evenodd" d="M678.429 190.504c0-.035.026-.064.059-.064h.188c.033 0 .059.029.059.064 0 .034-.026.063-.059.063h-.188c-.033 0-.059-.029-.059-.063M678.429 190.725c0-.035.026-.063.059-.063h.188c.033 0 .059.028.059.063s-.026.063-.059.063h-.188c-.033 0-.059-.028-.059-.063" clip-rule="evenodd"/><path fill="#ECECEC" fill-rule="evenodd" d="M675.467 192.761c-.215 0-.425-.068-.604-.195a1.14 1.14 0 0 1-.401-.52 1.23 1.23 0 0 1-.062-.669c.042-.224.146-.431.298-.593a1.07 1.07 0 0 1 .557-.317c.211-.044.429-.022.628.066a1.1 1.1 0 0 1 .488.427c.12.19.184.414.184.643q0 .045-.004.088h.264a1.188 1.188 0 0 1 .316-.907 1.07 1.07 0 0 1 .557-.317c.21-.044.429-.022.628.066s.368.236.488.427c.119.19.183.414.183.643 0 .307-.114.602-.318.819a1.06 1.06 0 0 1-.769.339c-.215 0-.426-.068-.605-.195a1.15 1.15 0 0 1-.4-.52 1.3 1.3 0 0 1-.065-.232h-.294a1.18 1.18 0 0 1-.3.608 1.06 1.06 0 0 1-.769.339m0-2.194a.93.93 0 0 0-.54.175c-.16.114-.285.276-.358.465a1.09 1.09 0 0 0 .211 1.129.95.95 0 0 0 .498.283c.189.04.384.02.562-.059a1 1 0 0 0 .436-.381 1.086 1.086 0 0 0-.121-1.309.94.94 0 0 0-.688-.304zm2.433 0a.93.93 0 0 0-.541.175c-.16.114-.284.275-.358.465a1.09 1.09 0 0 0 .211 1.129.96.96 0 0 0 .498.283c.189.04.384.02.562-.059a1 1 0 0 0 .436-.381c.107-.171.164-.371.164-.576q0-.206-.073-.397a1.1 1.1 0 0 0-.211-.336 1 1 0 0 0-.316-.225.9.9 0 0 0-.372-.079z" clip-rule="evenodd"/></g><path fill="#ECECEC" d="M686.699 189.553a1.49 1.49 0 0 1 1.488-1.491h24.791a1.49 1.49 0 0 1 0 2.981h-24.791a1.49 1.49 0 0 1-1.488-1.49M686.699 194.023c0-.549.444-.993.992-.993h13.883a.992.992 0 0 1 0 1.986h-13.883a.99.99 0 0 1-.992-.993"/><path fill="#ECECEC" fill-rule="evenodd" d="M714.466 205.447h-43.633v-.496h43.633z" clip-rule="evenodd"/><g clip-path="url(#i)"><rect width="11.9" height="11.921" x="670.833" y="213.395" fill="#84EBBC" rx="5.95"/><path fill="#FDE99B" d="M680.208 225.451c-.245-1.022-.835-3.414-.835-3.414 0-.121-.726-.159-2.353-.19v-.008h-.473v.005c-1.628.031-2.353.073-2.353.19 0 0-.593 2.393-.836 3.414-.233.985.457 1.855 1.112 1.855h4.626c.655.001 1.343-.868 1.112-1.852"/><path fill="#FDE99B" fill-rule="evenodd" d="M678.831 222.232c.376-.277.864-.133 1.104.239.744 1.155 1.242 2.502 1.75 3.769a.776.776 0 0 1-.416 1.005.753.753 0 0 1-.988-.422c-.468-1.168-.913-2.466-1.623-3.52a.78.78 0 0 1 .173-1.071M674.734 222.232c-.375-.277-.863-.133-1.104.239-.744 1.155-1.241 2.502-1.749 3.769a.776.776 0 0 0 .415 1.005.753.753 0 0 0 .988-.422c.468-1.168.914-2.466 1.623-3.52a.78.78 0 0 0-.173-1.071" clip-rule="evenodd"/><path fill="#ECECEC" d="M676.695 215.646c.092-.017 1.09-.834 1.975.204.626.734.053 1.219.589 1.725.475.449 1.134 1.633.233 2.613-.422.46.681 2.244-1.561 1.426-1.424-.521-1.543-.193-1.543-.193z"/><path fill="#ECECEC" d="M677.391 215.919s.048-.434-.615-.703-2.259.085-2.228 1.499c.031 1.413-1.43 1.477-1.036 2.54s-.699 1.201.32 2.062c1.02.861 2.777.634 2.752-.843-.024-1.477.807-4.555.807-4.555"/><path fill="#CB9685" d="M676.76 222.832c.33 0 .597-.227.597-.506 0-.28-.267-.507-.597-.507s-.596.227-.596.507c0 .279.267.506.596.506"/><path fill="#F6F6F6" fill-rule="evenodd" d="M676.76 221.856c-.316 0-.56.216-.56.47 0 .253.244.47.56.47s.561-.217.561-.47c0-.254-.244-.47-.561-.47m-.632.47c0-.307.29-.544.632-.544s.632.237.632.544c0 .306-.29.543-.632.543s-.632-.237-.632-.543" clip-rule="evenodd"/><path fill="#CB9685" d="M676.809 220.87h-.097q-.197 0-.39-.043v1.162a.41.41 0 0 0 .243.375q.071.03.15.031h.091a.39.39 0 0 0 .364-.253.4.4 0 0 0 .029-.156v-1.163a1.8 1.8 0 0 1-.39.047"/><path fill="#BF7D68" d="M676.323 221.143v.335s.094-.165.437-.165c.344 0 .439.184.439.184v-.406l-.877-.016z"/><path fill="#CB9685" d="M678.632 217.252v2.006c0 .247-.046.491-.138.72a1.9 1.9 0 0 1-.395.61 1.785 1.785 0 0 1-1.29.55h-.097q-.197 0-.39-.044a1.8 1.8 0 0 1-1.03-.657 1.93 1.93 0 0 1-.403-1.178v-2.007c0-.499.192-.977.534-1.33.342-.352.806-.55 1.289-.55h.097c.483 0 .947.198 1.289.55s.534.831.534 1.33"/><path fill="#CB9685" d="M674.934 218.734v.861a.28.28 0 0 1-.198-.088.3.3 0 0 1-.081-.205v-.274c0-.077.029-.151.082-.206a.28.28 0 0 1 .197-.088M678.793 219.028v.274a.3.3 0 0 1-.081.205.28.28 0 0 1-.197.088v-.861a.28.28 0 0 1 .197.088.3.3 0 0 1 .081.206"/><path fill="#ECECEC" d="M676.843 215.649a3.2 3.2 0 0 1 .753-.313q.202-.05.409-.038a.9.9 0 0 1 .399.126.9.9 0 0 1 .291.309l.056.089.05.092c.036.062.063.126.094.189q.082.195.142.398c.039.134.073.268.118.395q.066.192.188.35.134.153.287.285.15.144.279.311.128.169.218.361c.122.259.157.552.1.834-.073.272-.211.52-.401.724.174-.212.296-.464.356-.735a1.26 1.26 0 0 0-.119-.79 2 2 0 0 0-.1-.176c-.035-.061-.078-.111-.119-.165a3 3 0 0 0-.275-.297 2.6 2.6 0 0 1-.296-.292 1.3 1.3 0 0 1-.204-.376c-.048-.134-.081-.27-.119-.402a4 4 0 0 0-.135-.387c-.028-.061-.054-.123-.088-.184q-.023-.046-.047-.09l-.053-.087a.86.86 0 0 0-.26-.292.8.8 0 0 0-.366-.129 1.3 1.3 0 0 0-.395.023 2.3 2.3 0 0 0-.387.11c-.128.046-.249.107-.376.157"/><path fill="#ECECEC" d="M677.408 216.133a.6.6 0 0 0-.196-.436 1.2 1.2 0 0 0-.409-.258 1.4 1.4 0 0 0-.467-.09 2 2 0 0 0-.474.041 2 2 0 0 0-.456.147 1.6 1.6 0 0 0-.399.261c-.239.215-.39.516-.421.842-.009.08-.011.16-.017.248q-.009.128-.036.254a1.5 1.5 0 0 1-.197.472c-.181.29-.448.498-.678.725a1 1 0 0 0-.264.396.7.7 0 0 0-.028.238q.008.122.044.239a1.127 1.127 0 0 1 .012.744q-.043.12-.098.232.106-.227.126-.478a1.3 1.3 0 0 0-.081-.484 1 1 0 0 1-.055-.25.8.8 0 0 1 .024-.258c.055-.163.148-.31.27-.428.115-.123.238-.231.353-.347a2 2 0 0 0 .308-.375 1.4 1.4 0 0 0 .215-.687c.005-.079.005-.166.015-.252.019-.171.068-.337.145-.489q.118-.233.311-.402.19-.169.42-.27a2 2 0 0 1 .475-.145q.243-.045.49-.032.249.01.48.107.23.1.406.281a.7.7 0 0 1 .138.209q.053.117.044.245"/><path fill="#ECECEC" d="M676.577 215.274c-1.424-.239-2.041 1.67-1.958 2.108l.178.909s.172 1.09.138.853a2 2 0 0 1-.013-.171 1.1 1.1 0 0 1 .076-.44c.104-.267.245-.595.245-.595s.936.152 1.763-.235c.828-.387 1.157-1.625 1.157-1.625s-.162-.564-1.586-.804"/><path fill="#ECECEC" d="M676.641 215.212c1.978-.343 2.276 1.656 2.19 2.094-.086.439-.251 1.709-.251 1.709 0-.173-.184-1.407-.319-1.618-.687-1.078-1.62-2.185-1.62-2.185"/><path fill="#ECECEC" d="M678.151 216.078a3 3 0 0 1-.108.481 3 3 0 0 1-.183.46q-.109.226-.264.421a2 2 0 0 1-.168.183l-.095.082q-.023.02-.049.04l-.052.034a2.5 2.5 0 0 1-.909.343 3 3 0 0 1-.479.051q-.24.008-.478-.025a4.5 4.5 0 0 0 .937-.123 3 3 0 0 0 .447-.139q.055-.021.108-.045.055-.022.105-.049l.104-.054q.05-.03.097-.061l.049-.031.044-.036.091-.078c.054-.056.111-.109.16-.171a2.4 2.4 0 0 0 .267-.392q.12-.21.211-.434.095-.225.165-.457"/></g><path fill="#ECECEC" d="M686.699 217.368c0-.823.666-1.49 1.488-1.49h16.858a1.49 1.49 0 0 1 0 2.981h-16.858a1.49 1.49 0 0 1-1.488-1.491M686.699 221.839c0-.549.444-.994.992-.994h25.783a.993.993 0 0 1 0 1.987h-25.783a.993.993 0 0 1-.992-.993"/><path fill="#ECECEC" fill-rule="evenodd" d="M714.466 233.263h-43.633v-.497h43.633z" clip-rule="evenodd"/><path fill="#ECECEC" d="M686.699 245.184c0-.823.666-1.49 1.488-1.49h24.791c.822 0 1.488.667 1.488 1.49s-.666 1.49-1.488 1.49h-24.791a1.49 1.49 0 0 1-1.488-1.49M686.699 249.655c0-.549.444-.994.992-.994h13.883a.993.993 0 0 1 0 1.987h-13.883a.993.993 0 0 1-.992-.993"/><g clip-path="url(#j)"><rect width="11.9" height="11.921" x="670.833" y="241.211" fill="#80E3EB" rx="5.95"/><path fill="#0096FA" d="M679.758 251.276c0 1.849-1.332 5.084-2.975 5.084s-2.975-3.235-2.975-5.084 1.332-1.612 2.975-1.612 2.975-.237 2.975 1.612"/><path fill="#0096FA" fill-rule="evenodd" d="M679.079 250.296c.376-.277.864-.133 1.104.239.744 1.155 1.242 2.502 1.75 3.769a.776.776 0 0 1-.416 1.005.753.753 0 0 1-.988-.422c-.468-1.168-.913-2.466-1.623-3.52a.78.78 0 0 1 .173-1.071M674.486 250.296c-.375-.277-.864-.133-1.104.239-.744 1.155-1.241 2.502-1.749 3.769a.776.776 0 0 0 .415 1.005.753.753 0 0 0 .988-.422c.468-1.168.913-2.466 1.623-3.52a.78.78 0 0 0-.173-1.071" clip-rule="evenodd"/><path fill="#F99F9F" d="M676.782 250.648c.342 0 .619-.228.619-.509s-.277-.509-.619-.509-.618.228-.618.509.277.509.618.509"/><path fill="#F6F6F6" fill-rule="evenodd" d="M676.782 250.587c.32 0 .558-.212.558-.448s-.238-.448-.558-.448c-.319 0-.557.211-.557.448 0 .236.238.448.557.448m.619-.448c0 .281-.277.509-.619.509s-.618-.228-.618-.509.277-.509.618-.509c.342 0 .619.228.619.509" clip-rule="evenodd"/><path fill="#F99F9F" d="M678.725 244.839v2.016a1.9 1.9 0 0 1-.553 1.337 1.9 1.9 0 0 1-1.339.553h-.097a1.896 1.896 0 0 1-1.474-.704 1.9 1.9 0 0 1-.418-1.185v-2.017a1.891 1.891 0 0 1 1.892-1.89h.1a1.89 1.89 0 0 1 1.889 1.89M674.841 245.626v.865a.3.3 0 0 1-.205-.088.3.3 0 0 1-.085-.207v-.275a.296.296 0 0 1 .29-.295"/><path fill="#F99F9F" d="M679.014 245.921v.275a.294.294 0 0 1-.289.295v-.865a.3.3 0 0 1 .205.088c.054.056.084.13.084.207"/><path fill="#F6F6F6" fill-rule="evenodd" d="M676.508 243.729a.95.95 0 0 0-.951.95.184.184 0 1 1-.369 0 1.32 1.32 0 0 1 1.32-1.319c.102 0 .185.083.185.184a.185.185 0 0 1-.185.185" clip-rule="evenodd" opacity=".2"/><path fill="#F99F9F" d="M676.833 248.745h-.097q-.205 0-.404-.044v1.169a.405.405 0 0 0 .404.405h.094q.082 0 .156-.031a.4.4 0 0 0 .221-.22.4.4 0 0 0 .031-.156v-1.166a2 2 0 0 1-.405.043"/><path fill="#F99F9F" d="M676.329 249.138v.337s.098-.167.454-.169c.357-.002.455.185.455.185v-.405l-.909-.016z"/><path fill="#ECECEC" d="M678.651 246.801a.824.824 0 0 1-.835.786h-.038a.4.4 0 0 1-.144-.033.4.4 0 0 1-.117-.09 1 1 0 0 0-1.504-.015.35.35 0 0 1-.262.118.83.83 0 0 1-.819-.777l-.091-1.484v2.317c0 .879.463 1.592 1.593 1.592h.747c1.187 0 1.544-.713 1.544-1.592v-2.317z"/></g><path fill="#F6F6F6" d="M662.899 149.816h59.5v27.816h-59.5z"/><path fill="#ECECEC" d="M678.766 157.763c0-.823.666-1.49 1.488-1.49h24.791c.822 0 1.488.667 1.488 1.49s-.666 1.49-1.488 1.49h-24.791a1.49 1.49 0 0 1-1.488-1.49"/><path fill="#B2DFFD" d="M680.75 165.214c0-1.098.887-1.987 1.983-1.987h19.833c1.096 0 1.984.889 1.984 1.987v3.973a1.985 1.985 0 0 1-1.984 1.987h-19.833a1.984 1.984 0 0 1-1.983-1.987z"/><path fill="#ECECEC" fill-rule="evenodd" d="M722.152 149.816v111.263h.496V149.816z" clip-rule="evenodd"/><g filter="url(#k)"><path fill="#ECECEC" d="M805.7 215.878a3.97 3.97 0 0 1 3.967-3.973H853.3a3.97 3.97 0 0 1 3.967 3.973v15.895h-47.6a3.97 3.97 0 0 1-3.967-3.974z"/><path fill="#F6F6F6" d="M811.65 219.355c0-.823.666-1.49 1.488-1.49h36.692c.821 0 1.487.667 1.487 1.49s-.666 1.49-1.487 1.49h-36.692a1.49 1.49 0 0 1-1.488-1.49"/><path fill="#0096FA" d="m851.256 223.524-.208-.162a.157.157 0 0 0-.221.027l-2.325 2.989a.2.2 0 0 1-.045.039.14.14 0 0 1-.116.008.13.13 0 0 1-.049-.033l-.156-.141a.2.2 0 0 0-.049-.033.2.2 0 0 0-.059-.009.14.14 0 0 0-.102.056l-.164.21a.178.178 0 0 0 .016.235l.573.551a.138.138 0 0 0 .21-.014l2.722-3.5a.16.16 0 0 0 .032-.118.16.16 0 0 0-.059-.105m-1.78 0-.208-.162a.157.157 0 0 0-.221.027l-2.325 2.989a.2.2 0 0 1-.045.039.14.14 0 0 1-.116.008.13.13 0 0 1-.049-.033l-.952-.932a.16.16 0 0 0-.112-.044.15.15 0 0 0-.111.047l-.184.188a.16.16 0 0 0 .003.224l1.414 1.385a.138.138 0 0 0 .21-.014l2.723-3.5a.16.16 0 0 0-.027-.222"/><path fill="#ECECEC" d="M766.033 237.734A3.97 3.97 0 0 1 770 233.76h87.267v26.822a3.97 3.97 0 0 1-3.967 3.974H770a3.97 3.97 0 0 1-3.967-3.974z"/><path fill="#F6F6F6" d="M771.983 241.21c0-.823.666-1.49 1.488-1.49h56.525c.821 0 1.487.667 1.487 1.49a1.49 1.49 0 0 1-1.487 1.491h-56.525a1.49 1.49 0 0 1-1.488-1.491M771.983 246.178a1.49 1.49 0 0 1 1.488-1.491h76.358a1.49 1.49 0 0 1 1.488 1.491c0 .823-.666 1.49-1.488 1.49h-76.358a1.49 1.49 0 0 1-1.488-1.49M771.983 251.145c0-.823.666-1.49 1.488-1.49h48.592c.821 0 1.487.667 1.487 1.49s-.666 1.49-1.487 1.49h-48.592a1.49 1.49 0 0 1-1.488-1.49"/><path fill="#0096FA" d="m851.256 255.313-.208-.162a.16.16 0 0 0-.116-.031.16.16 0 0 0-.105.059l-2.325 2.988a.13.13 0 0 1-.045.039.13.13 0 0 1-.057.017.143.143 0 0 1-.108-.041l-.156-.142a.14.14 0 0 0-.108-.041.14.14 0 0 0-.102.055l-.164.21a.18.18 0 0 0 .016.236l.573.55a.138.138 0 0 0 .21-.014l2.722-3.5a.15.15 0 0 0 .032-.117.16.16 0 0 0-.059-.106m-1.78 0-.208-.162a.16.16 0 0 0-.116-.031.16.16 0 0 0-.105.059l-2.325 2.988a.13.13 0 0 1-.045.039.13.13 0 0 1-.057.017.143.143 0 0 1-.108-.041l-.952-.932a.16.16 0 0 0-.112-.045.16.16 0 0 0-.111.047l-.184.189a.16.16 0 0 0-.045.112.16.16 0 0 0 .048.111l1.414 1.385a.138.138 0 0 0 .21-.014l2.723-3.5a.158.158 0 0 0-.027-.222"/><g clip-path="url(#l)"><rect width="23.8" height="23.842" x="865.2" y="211.905" fill="#84EBBC" rx="11.9"/><path fill="#F99F9F" d="M883.95 237.01c-.49-2.044-1.671-6.828-1.671-6.828 0-.241-1.451-.318-4.706-.38v-.016h-.945v.011c-3.255.062-4.706.145-4.706.38 0 0-1.186 4.786-1.671 6.828-.467 1.969.914 3.709 2.223 3.709h9.253c1.309.003 2.686-1.736 2.223-3.704"/><path fill="#F99F9F" fill-rule="evenodd" d="M881.197 230.572c.751-.554 1.727-.266 2.208.479 1.488 2.309 2.483 5.004 3.499 7.537a1.55 1.55 0 0 1-.831 2.011 1.507 1.507 0 0 1-1.976-.845c-.936-2.336-1.827-4.932-3.246-7.039a1.56 1.56 0 0 1 .346-2.143M873.003 230.572c-.751-.554-1.727-.266-2.207.479-1.488 2.309-2.484 5.004-3.5 7.537a1.55 1.55 0 0 0 .831 2.011 1.507 1.507 0 0 0 1.976-.845c.936-2.336 1.827-4.932 3.246-7.039a1.56 1.56 0 0 0-.346-2.143" clip-rule="evenodd"/><path fill="#ECECEC" d="M878.95 215.544c-.172-.212-.416-.298-.618-.483l-.066.015q.298.264.553.569c.084.105.17.2.239.317q.113.163.204.338c.248.465.332.999.239 1.517a3.3 3.3 0 0 1-.718 1.409c.383-.39.661-.867.809-1.389a2.47 2.47 0 0 0-.202-1.6 3.7 3.7 0 0 0-.44-.693M876.82 218.303a1.17 1.17 0 0 0-.871-.348 2.6 2.6 0 0 0-.946.192 2.8 2.8 0 0 0-.807.505 4.2 4.2 0 0 0-.644.699q-.286.385-.475.822a3 3 0 0 0-.239.905 2.44 2.44 0 0 0 .504 1.75c.094.125.198.239.306.37q.158.192.285.406c.167.287.282.601.34.927.12.652.006 1.305-.031 1.933-.029.311.018.624.139.913q.106.21.277.371.174.161.385.276c.292.153.551.362.759.616q.15.191.251.413.096.223.166.456a2.6 2.6 0 0 0-.453-.841 2.4 2.4 0 0 0-.765-.569 2 2 0 0 1-.415-.277 1.4 1.4 0 0 1-.308-.394 2 2 0 0 1-.174-.965c.005-.326.041-.644.056-.962a4 4 0 0 0-.046-.943 2.7 2.7 0 0 0-.328-.871 3 3 0 0 0-.273-.383c-.099-.118-.214-.24-.314-.373a2.7 2.7 0 0 1-.439-.883 2.5 2.5 0 0 1-.078-.983c.035-.327.122-.647.257-.947q.2-.454.505-.845.299-.393.68-.706c.251-.215.539-.384.85-.501.311-.112.641-.165.973-.154.165.008.329.043.482.106.153.06.288.159.391.285"/><path fill="#ECECEC" d="M876.219 218.64a1.15 1.15 0 0 1 .664-.654c.301-.121.622-.184.947-.185.321-.001.641.052.944.156q.459.15.871.397.414.245.763.575c.23.217.425.468.579.743.308.55.39 1.195.231 1.804-.038.15-.088.296-.136.458a2.831 2.831 0 0 0-.047 1.466c.149.647.513 1.204.796 1.769.151.275.231.582.234.894a1.3 1.3 0 0 1-.107.448 2 2 0 0 1-.245.401 2.4 2.4 0 0 0-.455.858 2 2 0 0 0-.067.476q0 .243.028.484a2.6 2.6 0 0 1 .084-.948c.101-.301.264-.579.478-.817q.162-.19.273-.414c.07-.151.113-.314.127-.48a2 2 0 0 0-.223-.956c-.134-.299-.294-.578-.434-.864a4 4 0 0 1-.331-.887 2.65 2.65 0 0 1 .055-1.384c.045-.147.102-.304.142-.465.078-.321.097-.653.054-.981a2.6 2.6 0 0 0-.318-.935 3.2 3.2 0 0 0-.613-.774 4 4 0 0 0-.801-.584 4.3 4.3 0 0 0-.906-.39 2.9 2.9 0 0 0-.981-.136 2.6 2.6 0 0 0-.957.231q-.226.106-.402.282a.94.94 0 0 0-.247.412"/><path fill="#ECECEC" d="M881.471 221.932v3.983c0 1.79-1.37 3.285-3.198 3.651a4.5 4.5 0 0 1-.871.084h-.213a4.4 4.4 0 0 1-.872-.085c-1.828-.367-3.196-1.861-3.196-3.65v-3.983c0-2.063 1.821-3.735 4.065-3.735h.217c2.248 0 4.068 1.672 4.068 3.735"/><path fill="#F3C29F" d="M877.346 231.773c.691 0 1.251-.454 1.251-1.013s-.56-1.013-1.251-1.013c-.692 0-1.252.454-1.252 1.013s.56 1.013 1.252 1.013"/><path fill="#F6F6F6" fill-rule="evenodd" d="M877.345 229.844c-.655 0-1.153.427-1.153.916s.498.916 1.153.916c.656 0 1.153-.427 1.153-.916s-.497-.916-1.153-.916m-1.35.916c0-.63.623-1.11 1.35-1.11s1.351.48 1.351 1.11-.624 1.11-1.351 1.11-1.35-.48-1.35-1.11" clip-rule="evenodd"/><path fill="#F3C29F" d="M877.446 228.405h-.203a4 4 0 0 1-.818-.087v2.325a.81.81 0 0 0 .509.749.8.8 0 0 0 .315.062h.191a.84.84 0 0 0 .583-.238.8.8 0 0 0 .241-.573v-2.326a4 4 0 0 1-.818.088"/><path fill="#E8AA7D" d="M876.427 228.948v.669s.198-.331.921-.335c.722-.004.919.367.919.367v-.804l-1.84-.033z"/><path fill="#F3C29F" d="M881.274 221.373v3.905c0 1.753-1.288 3.219-3.01 3.577a4 4 0 0 1-.818.083h-.203a4 4 0 0 1-.818-.084c-1.72-.357-3.009-1.824-3.009-3.576v-3.905c0-2.022 1.713-3.662 3.827-3.662h.203c2.115 0 3.828 1.641 3.828 3.662M873.416 223.493v1.72a.6.6 0 0 1-.415-.175.57.57 0 0 1-.17-.411v-.548c0-.154.061-.301.17-.411a.6.6 0 0 1 .415-.175M881.859 224.079v.548a.58.58 0 0 1-.17.411.6.6 0 0 1-.415.175v-1.72a.6.6 0 0 1 .415.175c.109.11.17.257.17.411"/><path fill="#ECECEC" d="M881.182 222.36s.072 1.232 0 1.706c-.072.473.289-1.706.289-1.706zM873.555 223.022s-.066 1.232 0 1.713c.066.48-.289-1.713-.289-1.713zM875.656 216.971a1.82 1.82 0 0 1 .206-1.111c.186-.34.475-.615.827-.785a1.91 1.91 0 0 1 2.16.351 1.821 1.821 0 0 1 .357 2.121c-.174.346-.453.63-.8.812a1.9 1.9 0 0 1-1.131.202 1.9 1.9 0 0 1-1.084-.525 1.83 1.83 0 0 1-.535-1.065"/><path fill="#F99F9F" fill-rule="evenodd" d="M878.881 214.708a.19.19 0 0 1 .105.254l-1.284 2.965a.2.2 0 0 1-.179.118.2.2 0 0 1-.182-.113l-.725-1.531a.193.193 0 0 1 .096-.258.2.2 0 0 1 .262.094l.538 1.136 1.11-2.563a.2.2 0 0 1 .259-.102" clip-rule="evenodd"/><path fill="#ECECEC" d="M873.519 223.674a.6.6 0 0 1-.419-.113.57.57 0 0 1-.221-.368 11 11 0 0 1-.098-.783c-.151-2.104 1.58-4.561 3.513-4.561h2.682c2.313.284 3.197 3.008 2.683 5.163a.31.31 0 0 1-.302.234.3.3 0 0 1-.134-.03 25 25 0 0 0-.715-.305c-.882-.367-1.47-1.647-1.47-1.647s0 .691-2.092 1.647c-.939.429-2.574.664-3.427.763"/><path fill="#ECECEC" d="M879.342 220.053a5.3 5.3 0 0 1-.218.923q-.145.457-.368.883a4.3 4.3 0 0 1-.532.808 4 4 0 0 1-.339.352l-.192.157q-.047.039-.098.076l-.105.066a5.2 5.2 0 0 1-1.833.659 7 7 0 0 1-.965.097 6 6 0 0 1-.964-.048 9.5 9.5 0 0 0 1.889-.235q.46-.103.901-.267.11-.04.217-.088c.073-.03.145-.057.213-.094l.209-.103c.068-.036.129-.08.195-.117l.098-.059q.046-.033.09-.069l.184-.15c.109-.108.224-.209.322-.327q.306-.351.538-.754a7 7 0 0 0 .425-.833q.189-.43.333-.877"/></g></g><path fill="#F6F6F6" d="M730.333 181.605h47.6a3.97 3.97 0 0 1 3.967 3.974v17.882a3.97 3.97 0 0 1-3.967 3.973H734.3a3.97 3.97 0 0 1-3.967-3.973z"/><path fill="#ECECEC" d="M736.283 189.056c0-.823.666-1.49 1.487-1.49h36.692c.821 0 1.487.667 1.487 1.49s-.666 1.49-1.487 1.49H737.77a1.49 1.49 0 0 1-1.487-1.49M736.283 194.023c0-.823.666-1.49 1.487-1.49h23.8c.822 0 1.488.667 1.488 1.49s-.666 1.49-1.488 1.49h-23.8a1.49 1.49 0 0 1-1.487-1.49"/><path fill="#0096FA" d="m775.889 197.695-.208-.162a.16.16 0 0 0-.116-.032.16.16 0 0 0-.105.06l-2.326 2.988a.2.2 0 0 1-.044.039.14.14 0 0 1-.057.017.2.2 0 0 1-.059-.009.13.13 0 0 1-.05-.033l-.155-.141a.2.2 0 0 0-.05-.033.1.1 0 0 0-.058-.008.14.14 0 0 0-.102.055l-.164.21a.18.18 0 0 0 .015.235l.573.551a.138.138 0 0 0 .21-.014l2.723-3.5a.16.16 0 0 0-.027-.223m-1.78 0-.208-.162a.157.157 0 0 0-.221.028l-2.325 2.988a.145.145 0 0 1-.102.056.2.2 0 0 1-.059-.009.13.13 0 0 1-.05-.033l-.951-.932a.16.16 0 0 0-.112-.044.15.15 0 0 0-.111.047l-.184.188a.16.16 0 0 0 .003.224l1.414 1.385a.138.138 0 0 0 .21-.014l2.723-3.5a.16.16 0 0 0-.027-.222"/><path fill="#141414" d="M317.689 794.862H150.725c-10.244 0-18.636-8.392-18.636-18.636V650.022c0-10.244 8.392-18.636 18.636-18.636h166.964c10.244 0 18.636 8.392 18.636 18.636v126.204c0 10.244-8.392 18.636-18.636 18.636"/><path fill="#141414" d="M350.384 828.865H226.796c-10.244 0-18.636-8.392-18.636-18.636v-91.438c0-10.244 8.392-18.636 18.636-18.636h123.588c10.245 0 18.637 8.392 18.637 18.636v91.438a18.56 18.56 0 0 1-18.637 18.636"/><path fill="#141414" d="M228.976 840.417H105.388c-10.245 0-18.636-8.392-18.636-18.636v-91.437c0-10.245 8.391-18.637 18.636-18.637h123.588c10.244 0 18.636 8.392 18.636 18.637v91.437a18.56 18.56 0 0 1-18.636 18.636"/><path fill="#FCAA73" d="M296.436 598.255H192.357l-7.956 7.956v195.844h76.942v-31.387h35.093l7.956-7.956V606.211z"/><path fill="#141414" d="m192.357 598.255-7.956 7.956-.545 89.694.654.435 79.34-79.776 40.542 48.825v-59.178l-7.956-7.956z"/><path fill="#FCAA73" d="M174.92 727.619h21.797v-34.112h-29.534v26.483c0 4.25 3.487 7.629 7.737 7.629"/><path fill="url(#m)" d="M202.275 769.251h-17.874v-41.632h17.874z"/><path fill="url(#n)" d="M234.206 770.558h27.137v10.899h-27.137z"/><path stroke="#FB4BC1" stroke-linecap="round" stroke-linejoin="round" stroke-miterlimit="10" stroke-width="2.601" d="m273.767 685.006 17.547 40.106h-19.29"/><path fill="#F06305" d="M31.932 901.884c5.232-29.535 26.266-53.729 54.71-62.993l97.65-32.15v-25.066h76.834v25.066l12.424 4.141 85.225 28.009c28.445 9.373 49.479 33.567 54.71 62.993l31.932 178.406H0z"/><path fill="#FCAA73" d="M115.741 1080.29H.109l14.494-82.391h115.415z"/><path fill="url(#o)" d="M348.748 949.51v130.45l-114.869.44z"/><path fill="url(#p)" d="m142.005 933.707-27.028 146.583h129.146z"/><path fill="#072F73" d="M306.571 1054.79H566.28c5.34 0 9.373 4.9 8.392 10.13l-1.635 8.4c-.763 4.03-4.25 6.86-8.392 6.86H304.936c-5.34 0-9.372-4.9-8.391-10.13l1.634-8.4c.763-4.03 4.251-6.86 8.392-6.86"/><path fill="#0C4EC0" d="M733.462 889.242H447.27c-4.033 0-7.52 2.833-8.392 6.866l-33.785 173.942c-.981 5.23 3.051 10.13 8.392 10.13h286.192c4.032 0 7.519-2.83 8.391-6.86l33.785-173.943c.981-5.231-3.051-10.135-8.391-10.135"/><path fill="#FCAA73" d="m40.542 1080.29 77.923-53.29 77.379-52.859 54.71 79.989-38.145 26.16z"/><path fill="url(#q)" d="m128.819 1004.77-3.16 17.32-85.117 58.2H.11l4.687-27.14z"/><path fill="#FCAA73" d="m195.844 974.14 120.864-13.513 55.146 17.328 33.131 24.635-9.482 9.26-21.034-9.05 23.214 22.45-12.424 8.4-51.659-32.92 32.477 36.95-9.808 7.19-39.234-25.83 23.976 26.38-8.5 6.97-38.581-24.96-43.702 26.7z"/><rect width="41.577" height="19.056" x="612.054" y="666.061" fill="url(#r)" rx="8"/><path fill="#FBCF23" d="M632.531 405a104.837 104.837 0 0 0-104.837 104.837c0 24.425 10.435 44.955 22.747 64.916 11.118 18.169 23.771 27.154 31.278 46.888l51.551 12.539 49.931-12.539c7.649-19.734 20.274-28.719 31.42-46.888 12.227-19.904 22.747-40.491 22.747-64.916a104.83 104.83 0 0 0-30.706-74.131A104.85 104.85 0 0 0 632.531 405"/><path fill="#fff" d="M709.337 497.951a68.246 68.246 0 0 0-66.849-60.935 4.806 4.806 0 0 1-3.398-8.203 4.8 4.8 0 0 1 3.398-1.407 78.137 78.137 0 0 1 76.403 69.721 4.78 4.78 0 0 1-4.35 5.203H714a4.8 4.8 0 0 1-4.663-4.379"/><g fill="#F5F8F9" opacity=".5"><path d="M619.114 628.237a4.946 4.946 0 0 1-4.493-4.976v-81.379h-13.99a19.2 19.2 0 0 1-13.634-5.47 19.195 19.195 0 0 1 13.208-32.916h4.777a19.222 19.222 0 0 1 19.221 19.222v9.525h9.412a4.95 4.95 0 0 1 4.976 4.493 4.831 4.831 0 0 1-4.805 5.118h-9.583v81.578a4.807 4.807 0 0 1-5.089 4.805M600.262 513.05a9.614 9.614 0 0 0-9.554 8.815 9.72 9.72 0 0 0 2.654 7.355 9.725 9.725 0 0 0 7.212 3.023h14.217v-9.525a9.65 9.65 0 0 0-2.873-6.896 9.63 9.63 0 0 0-6.936-2.772z"/><path d="M647.888 628.239a4.947 4.947 0 0 1-4.493-4.976v-81.379h-9.412a4.95 4.95 0 0 1-4.976-4.521 4.804 4.804 0 0 1 4.777-5.09h9.611v-9.554a19.22 19.22 0 0 1 19.222-19.222h4.35a19.18 19.18 0 0 1 13.634 5.471 19.196 19.196 0 0 1 .302 27.143 19.2 19.2 0 0 1-13.509 5.773h-14.416v81.549a4.807 4.807 0 0 1-5.09 4.806m5.118-95.966h14.075a9.72 9.72 0 0 0 9.952-10.379 9.61 9.61 0 0 0-9.554-8.814h-4.777a9.64 9.64 0 0 0-9.639 9.639v9.525z"/></g><rect width="104.68" height="25.344" x="581.291" y="644.022" fill="url(#s)" rx="8"/><rect width="124.514" height="25.344" x="571.373" y="618.679" fill="url(#t)" rx="8"/><rect width="34.648" height="15.591" fill="#FCE173" rx="2.387" transform="matrix(-1 0 0 1 504.647 512.408)"/><rect width="34.648" height="15.591" fill="#FCE173" rx="2.387" transform="scale(-1 1)rotate(-30 596.996 1203.595)"/><rect width="34.648" height="15.591" x="521.815" y="581.346" fill="#FCE173" rx="2.387" transform="rotate(150 521.815 581.346)"/><rect width="34.648" height="15.591" x="759.309" y="512.408" fill="#FCE173" rx="2.387"/><rect width="34.648" height="15.591" x="742.141" y="459.749" fill="#FCE173" rx="2.387" transform="rotate(-30 742.141 459.749)"/><rect width="34.648" height="15.591" fill="#FCE173" rx="2.387" transform="scale(1 -1)rotate(-30 -713.738 -1675.527)"/></g><defs><clipPath id="a"><path fill="#fff" d="M0 0h1080v1080H0z"/></clipPath><clipPath id="c"><rect width="9.35" height="9.316" x="907.333" y="556.947" fill="#fff" rx="4.658"/></clipPath><clipPath id="d"><rect width="9.35" height="9.316" x="860.583" y="578.684" fill="#fff" rx="4.658"/></clipPath><clipPath id="e"><rect width="9.35" height="9.316" x="860.583" y="600.421" fill="#fff" rx="4.658"/></clipPath><clipPath id="f"><rect width="9.35" height="9.316" x="860.583" y="622.158" fill="#fff" rx="4.658"/></clipPath><clipPath id="g"><rect width="11.9" height="11.921" x="730.333" y="157.763" fill="#fff" rx="5.95"/></clipPath><clipPath id="h"><rect width="11.9" height="11.921" x="670.833" y="185.579" fill="#fff" rx="5.95"/></clipPath><clipPath id="i"><rect width="11.9" height="11.921" x="670.833" y="213.395" fill="#fff" rx="5.95"/></clipPath><clipPath id="j"><rect width="11.9" height="11.921" x="670.833" y="241.211" fill="#fff" rx="5.95"/></clipPath><clipPath id="l"><rect width="23.8" height="23.842" x="865.2" y="211.905" fill="#fff" rx="11.9"/></clipPath><linearGradient id="m" x1="210.079" x2="162.162" y1="752.537" y2="740.839" gradientUnits="userSpaceOnUse"><stop stop-color="#F8BC9A" stop-opacity="0"/><stop offset=".107" stop-color="#F7B48D" stop-opacity=".138"/><stop offset=".303" stop-color="#F6A06C" stop-opacity=".391"/><stop offset=".565" stop-color="#F38035" stop-opacity=".729"/><stop offset=".776" stop-color="#F06305"/></linearGradient><linearGradient id="n" x1="236.303" x2="259.771" y1="792.776" y2="758.486" gradientUnits="userSpaceOnUse"><stop stop-color="#F8BC9A" stop-opacity="0"/><stop offset=".162" stop-color="#F8BA96" stop-opacity=".162"/><stop offset=".326" stop-color="#F7B28A" stop-opacity=".326"/><stop offset=".492" stop-color="#F6A675" stop-opacity=".492"/><stop offset=".658" stop-color="#F59559" stop-opacity=".658"/><stop offset=".825" stop-color="#F37F34" stop-opacity=".825"/><stop offset=".99" stop-color="#F06508" stop-opacity=".99"/><stop offset="1" stop-color="#F06305"/></linearGradient><linearGradient id="o" x1="280.653" x2="367.192" y1="1005.69" y2="1081.2" gradientUnits="userSpaceOnUse"><stop offset=".145" stop-color="#F06305"/><stop offset=".311" stop-color="#E15D05"/><stop offset=".631" stop-color="#B94C04"/><stop offset=".942" stop-color="#8C3A03"/></linearGradient><linearGradient id="p" x1="214.527" x2="97.411" y1="988.223" y2="1090.42" gradientUnits="userSpaceOnUse"><stop offset=".145" stop-color="#F06305"/><stop offset=".311" stop-color="#E15D05"/><stop offset=".631" stop-color="#B94C04"/><stop offset=".942" stop-color="#8C3A03"/></linearGradient><linearGradient id="q" x1="44.041" x2="96.124" y1="996.353" y2="1114.11" gradientUnits="userSpaceOnUse"><stop offset=".281" stop-color="#F8BC9A" stop-opacity="0"/><stop offset=".297" stop-color="#F8B995" stop-opacity=".031"/><stop offset=".536" stop-color="#F48B48" stop-opacity=".5"/><stop offset=".706" stop-color="#F16E18" stop-opacity=".834"/><stop offset=".79" stop-color="#F06305"/></linearGradient><linearGradient id="r" x1="629.378" x2="629.938" y1="652.287" y2="691.172" gradientUnits="userSpaceOnUse"><stop offset=".266" stop-color="#072F73"/><stop offset=".59" stop-color="#0096FA"/></linearGradient><linearGradient id="s" x1="624.907" x2="622.075" y1="599.396" y2="677.327" gradientUnits="userSpaceOnUse"><stop offset=".402" stop-color="#072F73"/><stop offset=".674" stop-color="#0096FA"/></linearGradient><linearGradient id="t" x1="619.856" x2="619.325" y1="576.256" y2="652.059" gradientUnits="userSpaceOnUse"><stop offset=".402" stop-color="#072F73"/><stop offset=".674" stop-color="#0096FA"/></linearGradient><filter id="b" width="226.966" height="100.245" x="157.158" y="239.88" color-interpolation-filters="sRGB" filterUnits="userSpaceOnUse"><feFlood flood-opacity="0" result="BackgroundImageFix"/><feColorMatrix in="SourceAlpha" result="hardAlpha" values="0 0 0 0 0 0 0 0 0 0 0 0 0 0 0 0 0 0 127 0"/><feOffset dx="5.041" dy="5.041"/><feGaussianBlur stdDeviation="5.041"/><feComposite in2="hardAlpha" operator="out"/><feColorMatrix values="0 0 0 0 0.160784 0 0 0 0 0.160784 0 0 0 0 0.160784 0 0 0 0.1 0"/><feBlend in2="BackgroundImageFix" result="effect1_dropShadow_10272_1593"/><feBlend in="SourceGraphic" in2="effect1_dropShadow_10272_1593" result="shape"/></filter><filter id="k" width="143.132" height="72.817" x="760.992" y="206.863" color-interpolation-filters="sRGB" filterUnits="userSpaceOnUse"><feFlood flood-opacity="0" result="BackgroundImageFix"/><feColorMatrix in="SourceAlpha" result="hardAlpha" values="0 0 0 0 0 0 0 0 0 0 0 0 0 0 0 0 0 0 127 0"/><feOffset dx="5.041" dy="5.041"/><feGaussianBlur stdDeviation="5.041"/><feComposite in2="hardAlpha" operator="out"/><feColorMatrix values="0 0 0 0 0.160784 0 0 0 0 0.160784 0 0 0 0 0.160784 0 0 0 0.1 0"/><feBlend in2="BackgroundImageFix" result="effect1_dropShadow_10272_1593"/><feBlend in="SourceGraphic" in2="effect1_dropShadow_10272_1593" result="shape"/></filter></defs></svg>