<svg width="1080" height="1080" viewBox="0 0 1080 1080" fill="none" xmlns="http://www.w3.org/2000/svg">
<g clip-path="url(#clip0_204_32774)">
<path d="M280 684C280 902.704 457.295 1080 676 1080C894.705 1080 1072 902.705 1072 684C1072 465.295 894.705 288 676 288C457.295 288 280 465.295 280 684Z" fill="#FBCF23"/>
<path d="M435.919 75H85.0807C75.6863 75 68 80.4941 68 87.209V298.791C68 305.506 75.6863 311 85.0807 311H435.919C445.314 311 453 305.506 453 298.791V87.209C453 80.372 445.314 75 435.919 75Z" fill="url(#paint0_linear_204_32774)"/>
<path d="M436.04 331H85.0863C75.6889 331 68 338.689 68 348.086V381.747C68 391.144 75.6889 398.833 85.0863 398.833H436.04C445.437 398.833 453.126 391.144 453.126 381.747V348.086C453.126 338.689 445.437 331 436.04 331Z" fill="url(#paint1_linear_204_32774)"/>
<path d="M420.834 106.949H100.465V264.658H420.834V106.949Z" fill="#0096FA"/>
<path d="M300.885 155.477C316.549 155.477 329.248 142.779 329.248 127.114C329.248 111.45 316.549 98.75 300.885 98.75C285.22 98.75 272.521 111.45 272.521 127.114C272.521 142.779 285.22 155.477 300.885 155.477Z" fill="#FCE173"/>
<path d="M86.7949 154.277C91.0665 143.684 100.977 135.482 113.108 133.774C125.41 132.065 137.029 137.19 144.205 146.246L86.7949 154.277Z" fill="#35DE90"/>
<path d="M90.7266 107.29C102.687 101.993 117.21 103.019 128.487 111.391C139.764 119.763 145.403 133.09 144.036 146.076L90.7266 107.29Z" fill="#35DE90"/>
<path d="M144.034 146.248C139.421 135.654 140.275 123.01 147.622 112.929C154.969 102.848 166.588 98.0641 178.036 99.2602L144.034 146.248Z" fill="#35DE90"/>
<path d="M143.863 146.079C147.451 137.023 155.653 129.846 165.905 128.308C176.327 126.599 186.237 130.872 192.388 138.39L143.863 146.079Z" fill="#35DE90"/>
<path d="M114.988 185.718C111.058 176.662 111.913 165.898 118.064 157.526C124.215 148.982 134.296 145.052 144.035 146.077L114.988 185.718Z" fill="#35DE90"/>
<path d="M138.908 139.755L147.11 138.389L182.308 243.64L168.297 245.862L138.908 139.755Z" fill="#35DE90"/>
<path d="M232.883 176.663L209.646 138.559L186.238 100.457L163 138.559L139.592 176.663V264.828H232.883V176.663Z" fill="#072F73"/>
<path d="M236.643 100.457H186.238V264.828H236.643V100.457Z" fill="#072F73"/>
<path d="M283.459 176.663L260.051 138.559L236.814 100.457L213.405 138.559L190.168 176.663V264.828H283.459V176.663Z" fill="white"/>
<path d="M249.286 193.92H224.34V244.837H249.286V193.92Z" fill="#072F73"/>
<path d="M365.127 191.7L349.75 169.658H300.883V265H303.446H334.201H380.676V213.913L365.127 191.7Z" fill="#072F73"/>
<path d="M269.957 213.913L285.335 191.7L300.883 169.658L316.261 191.7L331.639 213.913V265H269.957V213.913Z" fill="#35DE90"/>
<path d="M292.532 253.326L309.105 253.326L309.105 223.767L292.532 223.767L292.532 253.326Z" fill="#072F73"/>
<path d="M438.091 149.325C432.282 139.756 421.859 133.604 409.899 133.775C397.938 133.946 387.686 140.61 382.219 150.179L438.091 149.325Z" fill="#35DE90"/>
<path d="M427.157 105.241C414.855 101.995 401.357 105.242 391.789 114.811C382.22 124.379 378.974 137.878 382.22 150.18L427.157 105.241Z" fill="#35DE90"/>
<path d="M382.39 150.351C385.294 139.586 382.39 127.626 374.017 119.253C365.645 110.881 353.684 107.977 342.92 110.882L382.39 150.351Z" fill="#35DE90"/>
<path d="M382.561 150.179C377.776 141.977 368.892 136.51 358.811 136.51C348.73 136.51 339.845 141.977 335.061 150.179H382.561Z" fill="#35DE90"/>
<path d="M415.879 183.499C418.271 174.443 415.879 164.19 408.703 157.185C401.526 150.009 391.445 147.788 382.219 150.18L415.879 183.499Z" fill="#35DE90"/>
<path d="M386.32 143.346H378.289L358.811 264.829H372.48L386.32 143.346Z" fill="#35DE90"/>
<path d="M108.838 219.037C112.768 212.545 119.944 208.102 128.145 208.102C136.347 208.102 143.523 212.544 147.282 219.208L108.838 219.037Z" fill="#35DE90"/>
<path d="M116.014 188.623C124.386 186.402 133.783 188.451 140.447 194.944C147.111 201.437 149.332 210.835 147.282 219.207L116.014 188.623Z" fill="#35DE90"/>
<path d="M147.11 219.38C145.06 212.033 146.939 203.831 152.578 198.022C158.216 192.213 166.418 190.162 173.936 192.042L147.11 219.38Z" fill="#35DE90"/>
<path d="M147.111 219.208C150.358 213.57 156.338 209.811 163.343 209.641C170.349 209.641 176.329 213.228 179.746 218.866L147.111 219.208Z" fill="#35DE90"/>
<path d="M124.386 242.446C122.678 236.125 124.215 229.289 129.17 224.334C134.125 219.379 140.96 217.671 147.282 219.38L124.386 242.446Z" fill="#35DE90"/>
<path d="M158.902 264.999L150.017 214.424L144.379 214.594L150.701 264.999H158.902Z" fill="#35DE90"/>
<path d="M59.0002 719.898V598.421C59.0002 587.733 67.7331 579 78.4211 579H207.458C218.146 579 226.879 587.733 226.879 598.421V619.927H253.729C257.9 619.927 259.985 625.01 256.987 627.878L226.879 657.986V719.768C226.879 730.455 218.146 739.188 207.458 739.188H78.4211C67.7331 739.319 59.0002 730.586 59.0002 719.898Z" fill="#1968F0"/>
<path d="M163.533 640.65H187.516V699.825H163.533V640.65Z" fill="#C5D9FB"/>
<path d="M129.254 655.248H153.236V699.824H129.254V655.248Z" fill="#0096FA"/>
<path d="M94.9745 623.055H118.957V699.955H94.9745V623.055Z" fill="#35DE90"/>
<path d="M514.402 587.898V466.421C514.402 455.733 505.669 447 494.981 447H365.944C355.256 447 346.524 455.733 346.524 466.421V487.927H319.674C315.503 487.927 313.417 493.01 316.415 495.878L346.524 525.986V587.768C346.524 598.455 355.256 607.188 365.944 607.188H494.981C505.669 607.318 514.402 598.586 514.402 587.898Z" fill="#35DE90"/>
<path d="M426.837 558.496C420.528 557.7 415.75 555.617 412.504 552.249C409.319 548.819 407.727 544.286 407.727 538.651H420.038C420.038 542.204 421.171 544.837 423.437 546.552C425.765 548.267 428.858 549.125 432.717 549.125C440.373 549.125 444.201 546.706 444.201 541.867C444.201 540.213 443.711 538.896 442.731 537.916C441.751 536.875 440.342 536.017 438.505 535.344C436.667 534.67 433.972 533.904 430.42 533.047C425.459 531.944 421.539 530.78 418.66 529.555C415.842 528.269 413.668 526.524 412.137 524.319C410.605 522.052 409.84 519.082 409.84 515.407C409.84 510.935 411.34 507.383 414.342 504.749C417.404 502.115 421.569 500.492 426.837 499.88L426.377 489.865H437.494L436.943 499.88C442.762 500.615 447.111 502.575 449.989 505.76C452.929 508.883 454.43 512.926 454.491 517.887H442.364C442.302 515.07 441.353 512.895 439.515 511.364C437.739 509.833 435.136 509.067 431.706 509.067C428.827 509.067 426.53 509.557 424.815 510.537C423.1 511.517 422.243 513.079 422.243 515.223C422.243 516.754 422.641 517.979 423.437 518.898C424.234 519.817 425.428 520.582 427.02 521.195C428.674 521.746 431.124 522.45 434.37 523.308C439.577 524.533 443.681 525.727 446.682 526.891C449.683 528.055 452.072 529.739 453.848 531.944C455.624 534.088 456.512 536.997 456.512 540.672C456.512 545.756 454.828 549.86 451.459 552.984C448.091 556.107 443.252 557.976 436.943 558.588L437.494 568.511H426.377L426.837 558.496Z" fill="#1968F0"/>
<path fill-rule="evenodd" clip-rule="evenodd" d="M714.842 874.687C700.584 865.114 696.786 845.795 706.359 831.537C715.932 817.279 735.251 813.481 749.51 823.054C763.768 832.627 767.566 851.946 757.993 866.204C748.42 880.462 729.101 884.26 714.842 874.687ZM698.128 899.582C670.121 880.778 662.66 842.83 681.464 814.822C700.269 786.815 738.217 779.355 766.224 798.159C794.231 816.963 801.692 854.911 782.887 882.919C764.083 910.926 726.135 918.386 698.128 899.582Z" fill="#072F73"/>
<path d="M669.227 983.179L714.034 1013.26C717.102 1015.32 721.66 1013.96 724.164 1010.23L831.491 843.79C833.994 840.061 833.533 835.325 830.465 833.266L785.658 803.182C782.59 801.122 778.032 802.488 775.529 806.216L668.201 972.655C665.698 976.384 666.16 981.12 669.227 983.179Z" fill="url(#paint2_linear_204_32774)"/>
<path d="M473.687 783.001L676.738 480.576L809.848 695.784L985.318 815.167C989.724 818.165 990.948 824.124 988.078 828.616L915.686 941.942L731.972 827.251L473.687 783.001Z" fill="#1967F1"/>
<path d="M915.68 941.944L873.663 915.276L965.11 806.404L975.296 849.06L915.68 941.944Z" fill="url(#paint3_linear_204_32774)"/>
<path d="M741.862 848.019L871.897 935.325C874.957 937.38 879.133 936.572 881.176 933.529L968.208 797.333C970.251 794.29 969.418 790.119 966.357 788.064L836.323 700.758C833.262 698.703 829.086 699.511 827.044 702.554L740.011 838.75C737.969 841.793 738.801 845.964 741.862 848.019Z" fill="url(#paint4_linear_204_32774)"/>
<path d="M439.026 767.087L483.468 796.926C486.51 798.969 490.671 798.15 492.714 795.108L690.986 486.799C693.029 483.757 692.211 479.596 689.168 477.553L644.726 447.714C641.684 445.671 637.523 446.489 635.48 449.532L437.208 757.841C435.165 760.883 435.983 765.044 439.026 767.087Z" fill="url(#paint5_linear_204_32774)"/>
<path d="M804.215 1019.07L787.718 950.913L747.057 909.749L740.486 916.676L760.287 954.049L720.522 1011.6L735.488 1022.81L740.569 1042.79L747.057 1102.05L811.336 1097.73L804.215 1019.07Z" fill="#8C3A03"/>
<path d="M684.711 897.232L695.367 883.232L715.042 907.454L707.458 916.691L684.711 897.232Z" fill="#8C3A03"/>
<path d="M688.268 900.357L676.679 919.501L713.206 947.772L719.908 937.277L688.268 900.357Z" fill="#8C3A03"/>
<path d="M680.097 922.118L713.787 954.004L708.19 962.028L671.12 939.34L680.097 922.118Z" fill="#8C3A03"/>
<path d="M674.853 941.602L670.877 955.172L697.053 970.178L702.861 961.418L674.853 941.602Z" fill="#8C3A03"/>
<path d="M344.525 1003.05C390.103 1003.05 427.051 966.103 427.051 920.525C427.051 874.948 390.103 838 344.525 838C298.948 838 262 874.948 262 920.525C262 966.103 298.948 1003.05 344.525 1003.05Z" fill="#C5D9FB"/>
<path d="M402.354 887.846H344.219V967.851H402.354V887.846Z" fill="#072F73"/>
<path d="M381.384 887.846H366.463V967.851H381.384V887.846Z" fill="#0065FF"/>
<path d="M344.223 887.846H286.088V967.851H344.223V887.846Z" fill="#0C4EC0"/>
<path d="M321.984 887.846H307.062V967.851H321.984V887.846Z" fill="#0065FF"/>
<path d="M352.104 887.985C347.741 887.985 343.799 887.846 341.688 887.846C339.858 887.846 338.169 886.731 337.465 884.919C336.761 883.246 337.043 881.295 338.309 879.901C342.392 875.301 356.187 860.248 362.099 857.739C365.899 856.067 370.122 856.067 373.923 857.6C377.723 859.133 380.82 862.06 382.369 865.823C384.058 869.587 384.058 873.768 382.509 877.531C380.961 881.295 378.005 884.361 374.204 885.894C370.404 887.567 360.269 887.985 352.104 887.985ZM368.151 865.963C367.307 865.963 366.603 866.102 365.758 866.381C363.928 867.217 358.298 872.374 352.527 878.368C360.973 878.368 368.433 877.95 370.404 877.113C371.811 876.556 372.937 875.301 373.5 873.908C374.063 872.514 374.063 870.841 373.5 869.447C372.937 868.053 371.671 866.938 370.263 866.381C369.559 866.102 368.855 865.963 368.151 865.963Z" fill="#0065FF"/>
<path d="M335.075 887.984C326.77 887.984 316.775 887.566 312.834 886.033C309.033 884.36 306.077 881.433 304.529 877.67C302.981 873.907 302.981 869.725 304.67 865.962C306.359 862.199 309.315 859.272 313.116 857.738C316.916 856.205 321.139 856.205 324.94 857.878C330.852 860.387 344.647 875.44 348.729 880.04C349.996 881.433 350.277 883.385 349.573 885.057C348.87 886.73 347.18 887.845 345.35 887.984C343.38 887.845 339.579 887.984 335.075 887.984ZM319.028 865.962C318.324 865.962 317.479 866.101 316.775 866.38C315.368 866.938 314.101 868.053 313.538 869.447C312.975 870.84 312.834 872.513 313.538 873.907C314.101 875.301 315.227 876.555 316.635 877.113C318.465 877.949 326.066 878.367 334.512 878.367C328.74 872.374 323.251 867.216 321.28 866.38C320.576 866.241 319.872 865.962 319.028 865.962Z" fill="#0065FF"/>
<path d="M929.433 660.867C971.094 660.867 1004.87 627.094 1004.87 585.433C1004.87 543.773 971.094 510 929.433 510C887.773 510 854 543.773 854 585.433C854 627.094 887.773 660.867 929.433 660.867Z" fill="#C5D9FB"/>
<path d="M975.733 607.015H883.554C880.23 607.015 877.51 604.282 877.51 600.942V555.62C877.51 552.28 880.23 549.547 883.554 549.547H975.733C979.057 549.547 981.777 552.28 981.777 555.62V600.942C981.853 604.282 979.133 607.015 975.733 607.015Z" fill="#0066FF"/>
<path d="M975.733 613.392H883.554C880.23 613.392 877.51 610.659 877.51 607.318V560.63C877.51 557.29 880.23 554.557 883.554 554.557H975.733C979.057 554.557 981.777 557.29 981.777 560.63V607.318C981.853 610.659 979.133 613.392 975.733 613.392Z" fill="#0035B5"/>
<path d="M976.79 624.248H882.496C879.7 624.248 877.434 621.97 877.434 619.161V618.174C877.434 615.365 879.7 613.088 882.496 613.088H976.79C979.585 613.088 981.852 615.365 981.852 618.174V619.161C981.852 621.97 979.585 624.248 976.79 624.248Z" fill="#0066FF"/>
<path d="M929.642 577.029C930.851 577.029 932.06 577.105 933.269 577.409C935.837 578.092 937.424 579.686 937.878 582.343C938.255 584.469 938.104 586.519 937.349 588.568C936.896 589.783 936.064 590.77 935.157 591.681C933.949 592.82 932.664 593.959 931.455 595.097C931.304 595.249 931.078 595.401 930.851 595.629C930.7 595.781 930.549 595.856 930.398 595.781C930.171 595.705 930.095 595.553 930.095 595.325C930.095 594.718 930.095 594.11 930.095 593.503C930.095 593.048 930.095 593.048 929.642 593.048C928.358 593.048 927.149 592.896 925.94 592.44C923.749 591.605 922.389 590.011 921.709 587.733C921.18 585.836 921.104 583.938 921.557 581.964C922.086 579.686 923.522 578.244 925.789 577.561C926.997 577.181 928.358 577.029 929.642 577.029Z" fill="#0096FA"/>
<path d="M962 181C995.689 181 1023 153.689 1023 120C1023 86.3106 995.689 59 962 59C928.311 59 901 86.3106 901 120C901 153.689 928.311 181 962 181Z" fill="#C5D9FB"/>
<path fill-rule="evenodd" clip-rule="evenodd" d="M912.189 108.99C910.68 108.99 909.457 110.213 909.457 111.722C909.457 113.231 910.68 114.454 912.189 114.454H916.504L918.35 128.722C919.145 134.862 924.26 139.529 930.447 139.758L942.021 140.186C948.13 140.413 953.667 136.615 955.656 130.834L961.292 114.454H963.533L969.17 130.834C971.159 136.615 976.696 140.413 982.805 140.186L994.379 139.758C1000.57 139.529 1005.68 134.862 1006.48 128.722L1008.32 114.454H1013.02C1014.53 114.454 1015.75 113.231 1015.75 111.722C1015.75 110.213 1014.53 108.99 1013.02 108.99H912.189Z" fill="#0035B5"/>
<path fill-rule="evenodd" clip-rule="evenodd" d="M995.633 126.051L996.434 114.248L1003.02 114.695L1002.22 126.498L995.633 126.051Z" fill="#0065FF"/>
<g filter="url(#filter0_d_204_32774)">
<path d="M1018.98 320.35C1018.98 312.425 1012.55 306 1004.62 306H696.361C688.43 306 682.001 312.425 682.001 320.35V383.488C682.001 385.073 683.287 386.358 684.873 386.358H1004.62C1012.55 386.358 1018.98 379.933 1018.98 372.008V320.35Z" fill="white"/>
</g>
<path d="M744.536 368.577C756.217 368.577 765.687 358.902 765.687 346.966C765.687 335.031 756.217 325.355 744.536 325.355C732.854 325.355 723.385 335.031 723.385 346.966C723.385 358.902 732.854 368.577 744.536 368.577Z" fill="#0096FA"/>
<path fill-rule="evenodd" clip-rule="evenodd" d="M788.674 336.224C788.674 333.745 791.068 331.736 794.02 331.736H986.074C989.027 331.736 991.42 333.745 991.42 336.224C991.42 338.702 989.027 340.711 986.074 340.711H794.02C791.068 340.711 788.674 338.702 788.674 336.224Z" fill="#E0E0E0"/>
<path fill-rule="evenodd" clip-rule="evenodd" d="M788.674 356.314C788.674 353.835 791.068 351.826 794.02 351.826H923.656C926.609 351.826 929.003 353.835 929.003 356.314C929.003 358.792 926.609 360.801 923.656 360.801H794.02C791.068 360.801 788.674 358.792 788.674 356.314Z" fill="#E0E0E0"/>
<g filter="url(#filter1_d_204_32774)">
<path d="M873.979 176.35C873.979 168.425 867.549 162 859.619 162H551.361C543.43 162 537.001 168.425 537.001 176.35V239.488C537.001 241.073 538.287 242.358 539.873 242.358H859.619C867.549 242.358 873.979 235.933 873.979 228.008V176.35Z" fill="white"/>
</g>
<path d="M599.536 224.577C611.217 224.577 620.687 214.902 620.687 202.966C620.687 191.031 611.217 181.355 599.536 181.355C587.854 181.355 578.385 191.031 578.385 202.966C578.385 214.902 587.854 224.577 599.536 224.577Z" fill="#0096FA"/>
<path fill-rule="evenodd" clip-rule="evenodd" d="M643.678 192.224C643.678 189.745 646.072 187.736 649.024 187.736H841.078C844.031 187.736 846.424 189.745 846.424 192.224C846.424 194.702 844.031 196.711 841.078 196.711H649.024C646.072 196.711 643.678 194.702 643.678 192.224Z" fill="#E0E0E0"/>
<path fill-rule="evenodd" clip-rule="evenodd" d="M643.678 212.314C643.678 209.835 646.072 207.826 649.024 207.826H778.66C781.613 207.826 784.007 209.835 784.007 212.314C784.007 214.792 781.613 216.801 778.66 216.801H649.024C646.072 216.801 643.678 214.792 643.678 212.314Z" fill="#E0E0E0"/>
</g>
<defs>
<filter id="filter0_d_204_32774" x="671.497" y="297.248" width="357.984" height="101.363" filterUnits="userSpaceOnUse" color-interpolation-filters="sRGB">
<feFlood flood-opacity="0" result="BackgroundImageFix"/>
<feColorMatrix in="SourceAlpha" type="matrix" values="0 0 0 0 0 0 0 0 0 0 0 0 0 0 0 0 0 0 127 0" result="hardAlpha"/>
<feOffset dy="1.75048"/>
<feGaussianBlur stdDeviation="5.25143"/>
<feColorMatrix type="matrix" values="0 0 0 0 0.374547 0 0 0 0 0.481553 0 0 0 0 0.601935 0 0 0 0.15 0"/>
<feBlend mode="normal" in2="BackgroundImageFix" result="effect1_dropShadow_204_32774"/>
<feBlend mode="normal" in="SourceGraphic" in2="effect1_dropShadow_204_32774" result="shape"/>
</filter>
<filter id="filter1_d_204_32774" x="526.497" y="153.248" width="357.984" height="101.363" filterUnits="userSpaceOnUse" color-interpolation-filters="sRGB">
<feFlood flood-opacity="0" result="BackgroundImageFix"/>
<feColorMatrix in="SourceAlpha" type="matrix" values="0 0 0 0 0 0 0 0 0 0 0 0 0 0 0 0 0 0 127 0" result="hardAlpha"/>
<feOffset dy="1.75048"/>
<feGaussianBlur stdDeviation="5.25143"/>
<feColorMatrix type="matrix" values="0 0 0 0 0.374547 0 0 0 0 0.481553 0 0 0 0 0.601935 0 0 0 0.15 0"/>
<feBlend mode="normal" in2="BackgroundImageFix" result="effect1_dropShadow_204_32774"/>
<feBlend mode="normal" in="SourceGraphic" in2="effect1_dropShadow_204_32774" result="shape"/>
</filter>
<linearGradient id="paint0_linear_204_32774" x1="493.655" y1="355.595" x2="207.638" y2="-34.9004" gradientUnits="userSpaceOnUse">
<stop stop-color="white"/>
<stop offset="0.2431" stop-color="#F7FAFE"/>
<stop offset="0.6155" stop-color="#E2ECFD"/>
<stop offset="1" stop-color="#C5D9FB"/>
</linearGradient>
<linearGradient id="paint1_linear_204_32774" x1="214.22" y1="267.687" x2="306.895" y2="462.186" gradientUnits="userSpaceOnUse">
<stop offset="0.2356" stop-color="#1968F0"/>
<stop offset="0.7158" stop-color="#1056CE"/>
<stop offset="0.9878" stop-color="#0C4EC0"/>
</linearGradient>
<linearGradient id="paint2_linear_204_32774" x1="809.585" y1="819.247" x2="690.107" y2="997.198" gradientUnits="userSpaceOnUse">
<stop offset="0.261684" stop-color="#0C4EC0"/>
<stop offset="0.541291" stop-color="#0096FA"/>
</linearGradient>
<linearGradient id="paint3_linear_204_32774" x1="909.555" y1="819.671" x2="921.593" y2="944.729" gradientUnits="userSpaceOnUse">
<stop offset="0.213542" stop-color="#1967F1" stop-opacity="0.46"/>
<stop offset="1" stop-color="#072F73"/>
</linearGradient>
<linearGradient id="paint4_linear_204_32774" x1="902.86" y1="745.432" x2="805.359" y2="890.651" gradientUnits="userSpaceOnUse">
<stop stop-color="#0C4EC0"/>
<stop offset="0.345507" stop-color="#072F73"/>
</linearGradient>
<linearGradient id="paint5_linear_204_32774" x1="669.955" y1="464.653" x2="629.602" y2="670.506" gradientUnits="userSpaceOnUse">
<stop stop-color="#0C4EC0"/>
<stop offset="1" stop-color="#072F73"/>
</linearGradient>
<clipPath id="clip0_204_32774">
<rect width="1080" height="1080" fill="white"/>
</clipPath>
</defs>
</svg>
