<svg width="1079" height="1080" viewBox="0 0 1079 1080" fill="none" xmlns="http://www.w3.org/2000/svg">
<path d="M94.0024 489.091C94.0024 728.833 288.352 923.183 528.094 923.183C767.836 923.183 962.186 728.833 962.186 489.091C962.186 249.349 767.836 55 528.094 55C288.352 55 94.0024 249.349 94.0024 489.091Z" fill="#F5F5F5"/>
<path d="M571.659 203.78H553.764C550.185 203.78 547.373 200.968 547.373 197.39V169.403C547.373 165.825 550.185 163.014 553.764 163.014H571.659C575.238 163.014 578.05 165.825 578.05 169.403V197.39C578.05 200.968 575.238 203.78 571.659 203.78Z" fill="#0096FA"/>
<path d="M571.659 290.678H553.764C550.185 290.678 547.373 287.867 547.373 284.288V227.165C547.373 223.587 550.185 220.775 553.764 220.775H571.659C575.238 220.775 578.05 223.587 578.05 227.165V284.288C578.05 287.867 575.238 290.678 571.659 290.678Z" fill="#0096FA"/>
<g opacity="0.1" filter="url(#filter0_f_204_33115)">
<path d="M593.553 1028.09C593.553 1046.69 512.769 1061.77 413.117 1061.77C313.466 1061.77 232.682 1046.69 232.682 1028.09C232.682 1009.5 313.466 994.42 413.117 994.42C512.769 994.42 593.553 1009.5 593.553 1028.09Z" fill="#0A0F1A"/>
</g>
<path d="M829.988 729.008H610.133C586.486 729.008 567.312 709.839 567.312 686.197V112.918C567.312 89.2764 586.486 70.1074 610.133 70.1074H829.988C853.635 70.1074 872.809 89.2764 872.809 112.918V686.197C872.681 709.839 853.635 729.008 829.988 729.008Z" fill="url(#paint0_linear_204_33115)"/>
<g filter="url(#filter1_d_204_33115)">
<path d="M804.367 255.867V380.057C804.367 388.421 797.591 395.204 789.235 395.204H622.78C614.424 395.204 607.647 388.421 607.647 380.057C607.647 262.651 607.638 284.645 607.681 255.867H804.367Z" fill="white"/>
</g>
<path d="M804.8 255.867V284.55C804.8 290.757 799.829 295.899 793.628 295.924C793.559 295.924 619.373 295.924 619.248 295.924C613.048 295.897 608.08 290.755 608.08 284.55C608.08 276.274 608.074 282.079 608.114 255.867H804.8Z" fill="#D2DFE6" fill-opacity="0.4"/>
<path d="M815.932 255.867C815.932 271.021 803.655 283.32 788.505 283.32C773.359 283.32 761.078 271.027 761.078 255.867C761.078 271.027 748.797 283.32 733.651 283.32C718.504 283.32 706.223 271.027 706.223 255.867C706.223 271.027 693.943 283.32 678.796 283.32C663.65 283.32 651.369 271.027 651.369 255.867C651.345 270.928 638.96 283.32 623.942 283.32C608.941 283.32 596.538 270.944 596.514 255.867C596.514 232.008 596.449 233.476 596.68 232.381C596.907 231.306 595.334 235.112 619.128 180.145C620.329 177.376 623.057 175.582 626.07 175.582H786.377C789.39 175.582 792.118 177.376 793.319 180.145C817.131 235.152 815.54 231.305 815.767 232.381C815.997 233.474 815.932 231.982 815.932 255.867Z" fill="#0096FA"/>
<path d="M815.924 255.867C815.924 271.021 803.646 283.32 788.497 283.32C773.35 283.32 761.069 271.028 761.069 255.867C761.069 271.028 748.789 283.32 733.642 283.32C718.496 283.32 706.215 271.028 706.215 255.867C706.215 271.028 693.934 283.32 678.788 283.32C663.641 283.32 651.36 271.028 651.36 255.867C651.337 270.928 638.952 283.32 623.933 283.32C608.933 283.32 596.53 270.944 596.506 255.867V233.952C596.506 233.422 596.563 232.897 596.671 232.381H815.758C815.989 233.474 815.924 231.982 815.924 255.867Z" fill="#1967F1"/>
<path fill-rule="evenodd" clip-rule="evenodd" d="M672.406 314.773C671.5 314.704 670.333 314.703 668.581 314.703H667.819C666.358 314.703 665.174 313.518 665.174 312.057C665.174 310.596 666.358 309.412 667.819 309.412H668.581C668.614 309.412 668.646 309.412 668.679 309.412C670.308 309.412 671.677 309.412 672.806 309.498C673.992 309.588 675.107 309.782 676.19 310.272C677.868 311.03 679.296 312.25 680.306 313.789C680.959 314.783 681.325 315.854 681.599 317.011C681.86 318.113 682.073 319.465 682.327 321.074L682.363 321.298L727.811 321.298C730.118 321.298 732.022 321.298 733.552 321.432C735.129 321.571 736.609 321.871 737.941 322.665C739.952 323.863 741.462 325.749 742.192 327.974C742.676 329.448 742.645 330.957 742.435 332.527C742.232 334.049 741.816 335.907 741.311 338.158L738.025 352.828C737.69 354.324 737.407 355.584 737.097 356.611C736.77 357.691 736.365 358.685 735.702 359.602C734.673 361.027 733.277 362.145 731.662 362.837C730.622 363.283 729.564 363.461 728.439 363.544C727.368 363.622 726.077 363.622 724.544 363.622H695.496C693.867 363.622 692.498 363.622 691.368 363.537C690.182 363.447 689.068 363.252 687.984 362.762C686.306 362.005 684.878 360.785 683.868 359.245C683.215 358.251 682.849 357.18 682.576 356.023C682.315 354.921 682.101 353.568 681.847 351.959L677.489 324.356L677.117 321.996C676.843 320.266 676.66 319.113 676.45 318.229C676.249 317.378 676.065 316.968 675.883 316.692C675.424 315.992 674.775 315.438 674.013 315.094C673.712 314.958 673.278 314.84 672.406 314.773ZM683.198 326.588L687.058 351.038C687.331 352.769 687.515 353.921 687.724 354.805C687.926 355.657 688.11 356.066 688.291 356.342C688.75 357.042 689.399 357.596 690.162 357.941C690.463 358.077 690.896 358.195 691.769 358.261C692.674 358.33 693.841 358.332 695.593 358.332H724.45C726.101 358.332 727.198 358.33 728.052 358.268C728.872 358.207 729.285 358.1 729.577 357.975C730.311 357.66 730.946 357.152 731.413 356.505C731.599 356.247 731.794 355.867 732.032 355.08C732.28 354.261 732.522 353.191 732.883 351.58L736.123 337.119C736.66 334.721 737.023 333.091 737.191 331.827C737.357 330.584 737.287 329.995 737.165 329.623C736.834 328.612 736.147 327.755 735.233 327.21C734.896 327.009 734.337 326.812 733.088 326.702C731.818 326.591 730.148 326.588 727.69 326.588H683.198ZM689.55 376.849C689.55 373.44 692.313 370.677 695.722 370.677C699.131 370.677 701.894 373.44 701.894 376.849C701.894 380.258 699.131 383.021 695.722 383.021C692.313 383.021 689.55 380.258 689.55 376.849ZM717.766 376.849C717.766 373.44 720.53 370.677 723.939 370.677C727.347 370.677 730.111 373.44 730.111 376.849C730.111 380.258 727.347 383.021 723.939 383.021C720.53 383.021 717.766 380.258 717.766 376.849Z" fill="#454545"/>
<path d="M886.614 328.889H868.719C865.14 328.889 862.328 326.078 862.328 322.499V265.376C862.328 261.798 865.14 258.986 868.719 258.986H886.614C890.193 258.986 893.006 261.798 893.006 265.376V322.499C893.006 326.078 890.066 328.889 886.614 328.889Z" fill="#0096FA"/>
<path d="M567.119 99.7197C567.119 83.1064 579.73 69.6387 595.287 69.6387H847.613C863.17 69.6387 875.781 83.1064 875.781 99.7197V110.132H567.119V99.7197Z" fill="url(#paint1_linear_204_33115)"/>
<path d="M872.987 110.301H567.119V153.22H872.987V110.301Z" fill="#0096FA"/>
<path d="M854.725 130.293L859.373 125.634C859.488 125.491 859.545 125.31 859.534 125.126C859.524 124.943 859.446 124.77 859.315 124.64C859.185 124.511 859.011 124.434 858.827 124.425C858.644 124.416 858.463 124.475 858.321 124.591L853.67 129.238L849.019 124.591C848.954 124.509 848.872 124.442 848.779 124.394C848.686 124.346 848.584 124.318 848.48 124.312C848.376 124.306 848.271 124.322 848.173 124.359C848.075 124.396 847.986 124.453 847.912 124.527C847.838 124.6 847.78 124.689 847.742 124.786C847.704 124.884 847.687 124.988 847.692 125.093C847.698 125.197 847.725 125.299 847.772 125.393C847.819 125.486 847.886 125.568 847.967 125.634L852.615 130.284L847.967 134.942C847.863 135.047 847.793 135.179 847.765 135.323C847.737 135.468 847.752 135.617 847.808 135.753C847.864 135.888 847.96 136.004 848.082 136.086C848.204 136.168 848.348 136.212 848.495 136.212C848.592 136.212 848.689 136.194 848.779 136.156C848.869 136.119 848.951 136.064 849.019 135.994L853.67 131.345L858.321 135.994C858.389 136.064 858.471 136.119 858.561 136.156C858.651 136.194 858.748 136.212 858.845 136.212C858.992 136.212 859.136 136.168 859.258 136.086C859.38 136.004 859.475 135.888 859.532 135.753C859.588 135.617 859.603 135.468 859.575 135.323C859.547 135.179 859.476 135.047 859.373 134.942L854.725 130.293Z" fill="white"/>
<path d="M584.86 134.968C584.785 134.967 584.711 134.95 584.643 134.918C584.575 134.886 584.515 134.84 584.467 134.782L580.876 130.505C580.718 130.317 580.631 130.079 580.631 129.833C580.631 129.587 580.718 129.35 580.876 129.162L584.467 124.885C584.558 124.784 584.684 124.722 584.819 124.712C584.954 124.703 585.087 124.746 585.191 124.833C585.295 124.92 585.361 125.044 585.375 125.178C585.389 125.313 585.35 125.448 585.267 125.554L581.675 129.833L585.26 134.112C585.325 134.188 585.366 134.281 585.379 134.38C585.392 134.478 585.377 134.579 585.335 134.669C585.292 134.759 585.225 134.835 585.141 134.888C585.057 134.941 584.959 134.969 584.86 134.968V134.968Z" fill="white"/>
<path fill-rule="evenodd" clip-rule="evenodd" d="M608.448 144.644C611.101 144.642 613.694 143.854 615.899 142.379C618.104 140.904 619.823 138.809 620.837 136.358C621.852 133.907 622.117 131.211 621.599 128.61C621.08 126.008 619.803 123.619 617.927 121.743C616.051 119.868 613.661 118.591 611.059 118.073C608.457 117.555 605.76 117.82 603.309 118.834C600.857 119.848 598.762 121.566 597.287 123.77C595.812 125.975 595.023 128.567 595.021 131.22C595.029 134.778 596.446 138.188 598.962 140.704C601.479 143.219 604.89 144.636 608.448 144.644V144.644Z" fill="#2C2A46"/>
<g clip-path="url(#clip0_204_33115)">
<path fill-rule="evenodd" clip-rule="evenodd" d="M611.372 137.338C610.378 137.457 609.253 137.496 607.998 137.496C606.743 137.496 605.618 137.457 604.624 137.338L604.624 137.34L602.916 139.794C602.817 139.93 602.669 140 602.521 140C602.373 140 602.224 139.934 602.13 139.803C601.216 138.546 600.29 136.921 599.685 134.959C599.456 134.216 599.273 133.427 599.155 132.592C599.051 131.954 598.999 131.234 598.998 130.423C598.998 124.044 602.661 122 607.998 122C613.328 122 616.988 124.039 616.998 130.398C616.998 130.406 616.998 130.414 616.998 130.423C616.998 130.445 616.998 130.467 616.998 130.488C616.995 131.228 616.949 131.89 616.86 132.484C616.442 135.573 615.141 138.05 613.866 139.802C613.673 140.069 613.27 140.065 613.08 139.794L611.373 137.34C611.372 137.339 611.372 137.339 611.372 137.338Z" fill="#0096FA"/>
<path d="M599.816 135.369C600.45 137.261 601.393 138.788 602.129 139.802C602.323 140.069 602.726 140.065 602.915 139.794L604.623 137.339C602.281 137.134 600.532 136.457 599.816 135.369Z" fill="url(#paint2_linear_204_33115)"/>
<path d="M616.166 135.369C615.532 137.261 614.59 138.788 613.853 139.802C613.66 140.069 613.257 140.065 613.067 139.794L611.359 137.339C613.701 137.134 615.45 136.457 616.166 135.369Z" fill="url(#paint3_linear_204_33115)"/>
<path fill-rule="evenodd" clip-rule="evenodd" d="M610.174 133.586L611.09 133.586C611.086 133.877 610.882 134.111 610.632 134.111C610.382 134.111 610.178 133.877 610.174 133.586Z" fill="black"/>
<path fill-rule="evenodd" clip-rule="evenodd" d="M605.891 133.586L604.974 133.586C604.979 133.877 605.182 134.111 605.433 134.111C605.683 134.111 605.886 133.877 605.891 133.586Z" fill="black"/>
<path fill-rule="evenodd" clip-rule="evenodd" d="M602.468 132.125C602.305 132.125 602.172 132.258 602.172 132.421C602.172 132.585 602.305 132.718 602.468 132.718H602.937L603.137 134.266C603.223 134.932 603.778 135.438 604.449 135.463L605.705 135.509C606.368 135.534 606.968 135.122 607.184 134.495L607.796 132.718H608.039L608.65 134.495C608.866 135.122 609.467 135.534 610.13 135.509L611.385 135.463C612.056 135.438 612.611 134.932 612.698 134.266L612.898 132.718H613.407C613.571 132.718 613.704 132.585 613.704 132.421C613.704 132.258 613.571 132.125 613.407 132.125H602.468Z" fill="#0035B5"/>
<path fill-rule="evenodd" clip-rule="evenodd" d="M611.52 133.976L611.606 132.695L612.321 132.744L612.235 134.024L611.52 133.976Z" fill="#0065FF"/>
</g>
<path d="M621.192 126.478C623.266 126.478 624.948 124.796 624.948 122.722C624.948 120.648 623.266 118.967 621.192 118.967C619.117 118.967 617.436 120.648 617.436 122.722C617.436 124.796 619.117 126.478 621.192 126.478Z" fill="#90E6BC"/>
<path fill-rule="evenodd" clip-rule="evenodd" d="M621.188 119.45C619.38 119.45 617.915 120.915 617.915 122.722C617.915 124.529 619.38 125.993 621.188 125.993C622.995 125.993 624.46 124.529 624.46 122.722C624.46 120.915 622.995 119.45 621.188 119.45ZM616.947 122.722C616.947 120.38 618.846 118.482 621.188 118.482C623.529 118.482 625.428 120.38 625.428 122.722C625.428 125.063 623.529 126.961 621.188 126.961C618.846 126.961 616.947 125.063 616.947 122.722Z" fill="#2CC3D5"/>
<rect x="626.943" y="128.869" width="71.1043" height="5.20155" rx="2.60077" fill="white"/>
<path d="M724.796 96.1684H688.769C684.043 96.1684 680.246 93.0584 680.246 89.1867C680.246 85.3151 684.043 82.2051 688.769 82.2051H724.796C729.523 82.2051 733.319 85.3151 733.319 89.1867C733.319 93.0584 729.523 96.1684 724.796 96.1684Z" fill="#0096FA"/>
<path d="M749.911 93.7541C752.382 93.7541 754.385 91.7516 754.385 89.2813C754.385 86.8111 752.382 84.8086 749.911 84.8086C747.44 84.8086 745.438 86.8111 745.438 89.2813C745.438 91.7516 747.44 93.7541 749.911 93.7541Z" fill="#F5F5F5"/>
<path fill-rule="evenodd" clip-rule="evenodd" d="M608.277 742.17H831.967C860.344 742.17 883.224 719.295 883.096 691.053V108.189C883.096 79.9472 860.216 57.0723 831.967 57.0723H608.277C580.029 57.0723 557.148 79.9472 557.148 108.189V691.053C557.148 719.295 580.029 742.17 608.277 742.17ZM610.324 729.008H830.179C853.826 729.008 872.872 709.839 873 686.197V112.918C873 89.2763 853.826 70.1074 830.179 70.1074H610.324C586.677 70.1074 567.503 89.2763 567.503 112.918V686.197C567.503 709.839 586.677 729.008 610.324 729.008Z" fill="url(#paint4_linear_204_33115)"/>
<path d="M729.045 544.777C729.045 538.212 734.368 532.891 740.934 532.891H849.716C856.282 532.891 861.605 538.212 861.605 544.777V560.815C861.605 563.004 859.831 564.777 857.642 564.777H740.934C734.368 564.777 729.045 559.456 729.045 552.891V544.777Z" fill="white"/>
<path d="M749.939 665.958C749.939 659.394 744.617 654.072 738.051 654.072H617.308C610.742 654.072 605.419 659.394 605.419 665.958V681.997C605.419 684.185 607.193 685.959 609.382 685.959H738.051C744.617 685.959 749.939 680.637 749.939 674.073V665.958Z" fill="#B2DFFD"/>
<path d="M681.17 596.456C681.17 589.892 686.493 584.57 693.059 584.57H849.683C856.249 584.57 861.571 589.892 861.571 596.456V631.428C861.571 633.616 859.797 635.39 857.609 635.39H693.059C686.493 635.39 681.17 630.068 681.17 623.504V596.456Z" fill="white"/>
<g filter="url(#filter2_d_204_33115)">
<path d="M681.154 453.228C681.154 446.06 686.967 440.248 694.138 440.248H972.846C980.016 440.248 985.829 446.06 985.829 453.228V510.342C985.829 511.775 984.666 512.938 983.232 512.938H694.138C686.967 512.938 681.154 507.126 681.154 499.957V453.228Z" fill="white"/>
</g>
<path d="M971.91 455.538C971.91 477.283 954.278 494.911 932.527 494.911C910.777 494.911 893.145 477.283 893.145 455.538C893.145 433.792 910.777 416.164 932.527 416.164C954.278 416.164 971.91 433.792 971.91 455.538Z" fill="#FCCCCC"/>
<path fill-rule="evenodd" clip-rule="evenodd" d="M860.035 467.589C860.035 465.347 858.217 463.529 855.975 463.529H710.129C707.887 463.529 706.069 465.347 706.069 467.589C706.069 469.831 707.887 471.648 710.129 471.648H855.975C858.217 471.648 860.035 469.831 860.035 467.589Z" fill="#D2DFE6"/>
<path fill-rule="evenodd" clip-rule="evenodd" d="M860.035 485.76C860.035 483.519 858.217 481.701 855.975 481.701H757.529C755.287 481.701 753.469 483.519 753.469 485.76C753.469 488.002 755.287 489.82 757.529 489.82H855.975C858.217 489.82 860.035 488.002 860.035 485.76Z" fill="#D2DFE6"/>
<path d="M931.477 503.187C955.099 503.187 974.247 484.038 974.247 460.417C974.247 436.795 955.099 417.646 931.477 417.646C907.856 417.646 888.707 436.795 888.707 460.417C888.707 484.038 907.856 503.187 931.477 503.187Z" fill="#35DE90"/>
<path d="M931.475 503.139C955.07 503.139 974.197 484.011 974.197 460.416C974.197 436.821 955.07 417.693 931.475 417.693C907.88 417.693 888.752 436.821 888.752 460.416C888.752 484.011 907.88 503.139 931.475 503.139Z" fill="#35DE90"/>
<path d="M953.552 451.064L953.647 477.932L931.764 485.385V455.052L953.552 451.064Z" fill="black"/>
<path d="M953.522 453.426C954.986 443.916 946.657 434.742 934.919 432.934C923.18 431.126 912.477 437.37 911.013 446.88C909.548 456.39 917.877 465.565 929.616 467.372C941.354 469.18 952.057 462.936 953.522 453.426Z" fill="black"/>
<path d="M914.914 444.895L910.547 452.062L911.211 458.851L908.221 470.623L911.638 471.81L914.819 483.392L921.702 481.826L923.174 491.177L942.684 488.709L939.598 470.671L942.399 466.826L939.313 458.993L935.706 463.503L930.484 451.398L914.914 444.895Z" fill="#F67979"/>
<path d="M922.888 489.42L932.144 479.404L921.701 481.825L922.888 489.42Z" fill="url(#paint5_linear_204_33115)"/>
<path d="M914.914 444.895L910.547 452.062L936.085 464.5L930.484 451.398L914.914 444.895Z" fill="url(#paint6_linear_204_33115)"/>
<path d="M936.561 475.939L940.975 481.161L939.599 470.67L936.561 475.939Z" fill="url(#paint7_linear_204_33115)"/>
<path d="M913.155 477.315L914.247 472.331L911.684 471.809L913.155 477.315Z" fill="url(#paint8_linear_204_33115)"/>
<path d="M922.748 477.148C922.82 476.444 922.138 475.797 921.225 475.704C920.312 475.611 919.514 476.107 919.442 476.811C919.371 477.515 920.052 478.161 920.965 478.254C921.878 478.347 922.676 477.852 922.748 477.148Z" fill="#A3A3A3"/>
<path d="M922.219 477.032C922.219 477.032 938.358 478.931 942.108 465.449" stroke="url(#paint9_linear_204_33115)" stroke-width="2" stroke-miterlimit="10"/>
<mask id="mask0_204_33115" style="mask-type:luminance" maskUnits="userSpaceOnUse" x="925" y="419" width="29" height="41">
<path d="M925.637 433.264L930.953 432.742L939.688 459.705L953.644 459.373L934.846 419.498L925.637 433.264Z" fill="white"/>
</mask>
<g mask="url(#mask0_204_33115)">
<path d="M926.299 434.973C928.387 432.22 930.713 430.654 933.134 430.796C939.828 431.223 944.432 444.42 943.435 460.322" stroke="#0C4EC0" stroke-width="6.3029" stroke-miterlimit="10"/>
</g>
<path d="M948.328 465.212C947.473 469.722 943.96 472.854 940.543 472.19C937.125 471.525 935.036 467.348 935.891 462.838C936.745 458.329 940.258 455.196 943.675 455.86C947.093 456.525 949.182 460.702 948.328 465.212Z" fill="url(#paint10_linear_204_33115)"/>
<path d="M467.535 1001.87L412.653 1006.51L433.491 724.559L498.695 719.049L467.535 1001.87Z" fill="#8C3A03"/>
<path d="M371.554 1006.8L316.598 1010.45L342.477 728.925L407.77 724.582L371.554 1006.8Z" fill="#8C3A03"/>
<path d="M488.076 653.854L515.35 809.148H308.678L366.398 653.854H488.076Z" fill="#0C4EC0"/>
<path d="M488.076 653.854L515.35 809.148H308.678L366.398 653.854H488.076Z" fill="url(#paint11_linear_204_33115)"/>
<path d="M549.092 622.865L477.5 555.48L518.728 511.678L590.32 579.063L549.092 622.865Z" fill="url(#paint12_linear_204_33115)"/>
<path d="M316.404 997.426L371.904 997.743C372.644 1001.13 374.97 1013.28 388.184 1014.13C413.133 1015.82 403.089 1027.77 403.089 1027.77H311.646L316.404 997.426Z" fill="#072F73"/>
<path fill-rule="evenodd" clip-rule="evenodd" d="M496.003 564.248C496.668 564.292 497.338 564.314 498.014 564.314C514.654 564.314 528.143 550.825 528.143 534.185C528.143 517.546 514.654 504.057 498.014 504.057C496.339 504.057 494.696 504.193 493.096 504.456L353.925 504.057L366.399 653.854H488.077L496.003 564.248Z" fill="#0096FA"/>
<path d="M534.443 609.076L553.293 493.389L612.578 503.56L595.614 602.438L549.145 622.887L534.443 609.076Z" fill="#0096FA"/>
<path d="M412.314 997.426L467.814 997.743C468.554 1001.13 470.88 1013.28 484.094 1014.13C509.043 1015.82 499 1027.77 499 1027.77H407.557L412.314 997.426Z" fill="#072F73"/>
<path d="M468.857 675.94L450.731 662.726L479.231 669.006L481.715 664.276L455.953 653.993L490.804 654.237L491.647 648.466L457.137 642.288L485.968 637.853L485.841 631.991L439.056 629.688L440.039 615.287L431.574 615.287L424 628.652L408.712 627.945L395.863 664.188L442.368 670.311L465.895 680.36L468.857 675.94Z" fill="#8C3A03"/>
<path d="M351.137 651.769C337.542 661.365 318.744 658.123 309.148 644.529C299.552 630.935 302.794 612.136 316.388 602.54C329.982 592.945 348.781 596.186 358.376 609.78C367.972 623.374 364.731 642.173 351.137 651.769Z" fill="#0096FA"/>
<path fill-rule="evenodd" clip-rule="evenodd" d="M327.176 526.67C330.515 513.667 342.315 504.057 356.36 504.057C372.999 504.057 386.488 517.546 386.488 534.185C386.488 537.743 385.872 541.157 384.739 544.325L362.51 638.143L303.979 624.274L327.11 526.654L327.176 526.67Z" fill="#0096FA"/>
<path d="M341.815 598.049L417.749 617.817L408.285 677.551L326.619 656.263L341.815 598.049Z" fill="#0096FA"/>
<path d="M424.113 494.988C465.047 486.692 491.505 446.784 483.209 405.851C474.913 364.917 435.005 338.459 394.072 346.755C353.138 355.05 326.68 394.959 334.976 435.892C343.272 476.826 383.18 503.284 424.113 494.988Z" fill="#141414"/>
<path d="M565.668 628.058C548.97 628.058 535.434 614.522 535.434 597.824C535.434 581.126 548.97 567.59 565.668 567.59C582.366 567.59 595.902 581.126 595.902 597.824C595.902 614.522 582.366 628.058 565.668 628.058Z" fill="#0096FA"/>
<path fill-rule="evenodd" clip-rule="evenodd" d="M587.675 431.328L620.413 419.34L619.204 428.649L635.727 433.122L634.22 441.853L617.658 440.55L617.563 441.281L634.081 444.082L633.148 455.445L615.843 454.53L615.802 454.844L598.742 501.414L570.615 496.342L577.531 482.048L587.675 431.328Z" fill="#8C3A03"/>
<path d="M608.492 455.371L608.391 469.209L632.152 464.63L631.508 456.845L608.492 455.371Z" fill="#8C3A03"/>
<path d="M605.007 430.671L613.444 409.867L613.813 409.98L613.846 409.871L616.227 410.661L618.626 411.35L618.607 411.451L618.976 411.564L614.293 433.52L612.051 432.821L605.007 430.671Z" fill="#072F73"/>
<path d="M610.277 414.452L614.646 415.804L619.021 417.135L612.791 444.943L608.568 443.659L604.055 442.274L599.839 440.969L610.277 414.452Z" fill="#1968F0"/>
<path d="M642.789 408.723C624.391 418.482 601.666 411.669 592.031 393.506C582.397 375.342 589.501 352.707 607.9 342.948C626.298 333.189 649.023 340.002 658.658 358.165C668.292 376.329 661.188 398.964 642.789 408.723Z" fill="#072F73"/>
<path d="M640.458 404.329C624.252 412.925 604.347 407.137 596 391.401C587.653 375.664 594.024 355.939 610.23 347.342C626.437 338.746 646.341 344.534 654.688 360.271C663.035 376.007 656.664 395.733 640.458 404.329Z" fill="url(#paint13_linear_204_33115)"/>
<path d="M616.796 429.05L618.744 417.833L633.585 424.078L631.654 431.215L616.796 429.05Z" fill="#8C3A03"/>
<path d="M587.19 437.389L583.916 426.252L609.898 417.827L610.932 425.548L587.19 437.389Z" fill="#8C3A03"/>
<path d="M449.367 408.246L402.194 417.806L399.013 422.199L409.752 512.493L444.636 505.423L442.934 490.97L458.886 487.737C460.149 485.995 460.805 485.087 462.067 483.345L453.523 411.216L449.367 408.246Z" fill="#8C3A03"/>
<path d="M402.349 478.84L412.218 476.839L409.073 461.322L395.666 464.039L398.094 476.019C398.558 477.992 400.425 479.229 402.349 478.84Z" fill="#8C3A03"/>
<path d="M417.235 506.063L409.104 507.711L405.637 478.172L414.824 476.31L417.235 506.063Z" fill="url(#paint14_linear_204_33115)"/>
<path d="M431.139 498.464L443.429 495.973L442.857 490.919L430.505 493.423L431.139 498.464Z" fill="url(#paint15_linear_204_33115)"/>
<path fill-rule="evenodd" clip-rule="evenodd" d="M442.704 449.672C443.136 449.37 443.731 449.474 444.034 449.906L455.665 466.482C455.85 466.745 455.889 467.085 455.77 467.384C455.651 467.683 455.389 467.902 455.073 467.966L446.321 469.739C445.804 469.844 445.3 469.51 445.196 468.993C445.091 468.477 445.425 467.973 445.942 467.868L453.264 466.384L442.471 451.002C442.168 450.571 442.272 449.975 442.704 449.672Z" fill="#141414"/>
<defs>
<filter id="filter0_f_204_33115" x="216.682" y="978.42" width="392.871" height="99.3496" filterUnits="userSpaceOnUse" color-interpolation-filters="sRGB">
<feFlood flood-opacity="0" result="BackgroundImageFix"/>
<feBlend mode="normal" in="SourceGraphic" in2="BackgroundImageFix" result="shape"/>
<feGaussianBlur stdDeviation="8" result="effect1_foregroundBlur_204_33115"/>
</filter>
<filter id="filter1_d_204_33115" x="596.813" y="246.84" width="218.387" height="161.002" filterUnits="userSpaceOnUse" color-interpolation-filters="sRGB">
<feFlood flood-opacity="0" result="BackgroundImageFix"/>
<feColorMatrix in="SourceAlpha" type="matrix" values="0 0 0 0 0 0 0 0 0 0 0 0 0 0 0 0 0 0 127 0" result="hardAlpha"/>
<feOffset dy="1.80551"/>
<feGaussianBlur stdDeviation="5.41654"/>
<feColorMatrix type="matrix" values="0 0 0 0 0.374547 0 0 0 0 0.481553 0 0 0 0 0.601935 0 0 0 0.15 0"/>
<feBlend mode="normal" in2="BackgroundImageFix" result="effect1_dropShadow_204_33115"/>
<feBlend mode="normal" in="SourceGraphic" in2="effect1_dropShadow_204_33115" result="shape"/>
</filter>
<filter id="filter2_d_204_33115" x="673.009" y="433.46" width="320.964" height="88.9798" filterUnits="userSpaceOnUse" color-interpolation-filters="sRGB">
<feFlood flood-opacity="0" result="BackgroundImageFix"/>
<feColorMatrix in="SourceAlpha" type="matrix" values="0 0 0 0 0 0 0 0 0 0 0 0 0 0 0 0 0 0 127 0" result="hardAlpha"/>
<feOffset dy="1.35753"/>
<feGaussianBlur stdDeviation="4.07258"/>
<feColorMatrix type="matrix" values="0 0 0 0 0.374547 0 0 0 0 0.481553 0 0 0 0 0.601935 0 0 0 0.15 0"/>
<feBlend mode="normal" in2="BackgroundImageFix" result="effect1_dropShadow_204_33115"/>
<feBlend mode="normal" in="SourceGraphic" in2="effect1_dropShadow_204_33115" result="shape"/>
</filter>
<linearGradient id="paint0_linear_204_33115" x1="456.04" y1="-130.476" x2="888.732" y2="798.518" gradientUnits="userSpaceOnUse">
<stop stop-color="white"/>
<stop offset="0.147721" stop-color="#F7FAFE"/>
<stop offset="0.304044" stop-color="#E2ECFD"/>
<stop offset="0.516199" stop-color="#FAFCFF"/>
<stop offset="0.970404" stop-color="#C5D9FB"/>
</linearGradient>
<linearGradient id="paint1_linear_204_33115" x1="748.685" y1="115.718" x2="722.159" y2="50.0857" gradientUnits="userSpaceOnUse">
<stop stop-color="#0D4FC1"/>
<stop offset="0.482673" stop-color="#135CD8"/>
<stop offset="1" stop-color="#1A69F1"/>
</linearGradient>
<linearGradient id="paint2_linear_204_33115" x1="604.724" y1="136.894" x2="600.036" y2="137.948" gradientUnits="userSpaceOnUse">
<stop offset="0.0105566" stop-color="#0012FF" stop-opacity="0.2"/>
<stop offset="0.5203" stop-color="#0012FF" stop-opacity="0"/>
</linearGradient>
<linearGradient id="paint3_linear_204_33115" x1="611.258" y1="136.894" x2="615.947" y2="137.948" gradientUnits="userSpaceOnUse">
<stop offset="0.0105566" stop-color="#0012FF" stop-opacity="0.2"/>
<stop offset="0.5203" stop-color="#0012FF" stop-opacity="0"/>
</linearGradient>
<linearGradient id="paint4_linear_204_33115" x1="509.094" y1="199.585" x2="1005.46" y2="670.075" gradientUnits="userSpaceOnUse">
<stop stop-color="#1968F0"/>
<stop offset="0.2912" stop-color="#125BD8"/>
<stop offset="0.5885" stop-color="#0E51C6"/>
<stop offset="0.8048" stop-color="#0C4EC0"/>
</linearGradient>
<linearGradient id="paint5_linear_204_33115" x1="931.599" y1="489.053" x2="921.199" y2="477.253" gradientUnits="userSpaceOnUse">
<stop offset="0.4289" stop-opacity="0"/>
<stop offset="1" stop-opacity="0.5"/>
</linearGradient>
<linearGradient id="paint6_linear_204_33115" x1="912.69" y1="477.214" x2="933.127" y2="439.818" gradientUnits="userSpaceOnUse">
<stop offset="0.5074" stop-opacity="0"/>
<stop offset="0.8834" stop-opacity="0.5"/>
</linearGradient>
<linearGradient id="paint7_linear_204_33115" x1="932.893" y1="482.013" x2="944.847" y2="471.96" gradientUnits="userSpaceOnUse">
<stop offset="0.3675" stop-opacity="0"/>
<stop offset="0.8842" stop-opacity="0.5"/>
</linearGradient>
<linearGradient id="paint8_linear_204_33115" x1="917.183" y1="477.917" x2="908.888" y2="471.33" gradientUnits="userSpaceOnUse">
<stop offset="0.3675" stop-opacity="0"/>
<stop offset="0.9278" stop-opacity="0.5"/>
</linearGradient>
<linearGradient id="paint9_linear_204_33115" x1="942.531" y1="471.454" x2="922.143" y2="471.454" gradientUnits="userSpaceOnUse">
<stop stop-color="#E0E0E0"/>
<stop offset="0.233" stop-color="#D9D9D9"/>
<stop offset="0.5821" stop-color="#C4C4C4"/>
<stop offset="1" stop-color="#A3A3A3"/>
</linearGradient>
<linearGradient id="paint10_linear_204_33115" x1="946.832" y1="456.936" x2="934.773" y2="474.901" gradientUnits="userSpaceOnUse">
<stop stop-color="#E0E0E0"/>
<stop offset="0.233" stop-color="#D9D9D9"/>
<stop offset="0.5821" stop-color="#C4C4C4"/>
<stop offset="1" stop-color="#A3A3A3"/>
</linearGradient>
<linearGradient id="paint11_linear_204_33115" x1="412.368" y1="639.371" x2="398.111" y2="754.762" gradientUnits="userSpaceOnUse">
<stop offset="0.0681134" stop-color="#072F73"/>
<stop offset="0.705195" stop-color="#0C4EC0" stop-opacity="0"/>
</linearGradient>
<linearGradient id="paint12_linear_204_33115" x1="491.669" y1="534.673" x2="613.297" y2="562.74" gradientUnits="userSpaceOnUse">
<stop offset="0.295065" stop-color="#0096FA"/>
<stop offset="0.752889" stop-color="#072F73"/>
<stop offset="1" stop-color="#0096FA"/>
</linearGradient>
<linearGradient id="paint13_linear_204_33115" x1="595.876" y1="347.269" x2="655.672" y2="405.242" gradientUnits="userSpaceOnUse">
<stop stop-color="white"/>
<stop offset="0.315" stop-color="#FCFDFF"/>
<stop offset="0.5502" stop-color="#F2F7FE"/>
<stop offset="0.7594" stop-color="#E2ECFD"/>
<stop offset="0.9524" stop-color="#CCDDFB"/>
<stop offset="1" stop-color="#C5D9FB"/>
</linearGradient>
<linearGradient id="paint14_linear_204_33115" x1="421.064" y1="493.054" x2="392.822" y2="487.972" gradientUnits="userSpaceOnUse">
<stop offset="0.1839" stop-color="#8C3A03" stop-opacity="0"/>
<stop offset="0.2807" stop-color="#7F3605" stop-opacity="0.1636"/>
<stop offset="0.459" stop-color="#5E2B0A" stop-opacity="0.4648"/>
<stop offset="0.6973" stop-color="#271A11" stop-opacity="0.8673"/>
<stop offset="0.7758" stop-color="#141414"/>
</linearGradient>
<linearGradient id="paint15_linear_204_33115" x1="432.721" y1="503.439" x2="441.002" y2="485.256" gradientUnits="userSpaceOnUse">
<stop stop-color="#8C3A03" stop-opacity="0"/>
<stop offset="0.1808" stop-color="#883904" stop-opacity="0.1808"/>
<stop offset="0.364" stop-color="#7C3505" stop-opacity="0.364"/>
<stop offset="0.5483" stop-color="#672E08" stop-opacity="0.5483"/>
<stop offset="0.7336" stop-color="#4B250C" stop-opacity="0.7336"/>
<stop offset="0.9178" stop-color="#271A11" stop-opacity="0.9178"/>
<stop offset="1" stop-color="#141414"/>
</linearGradient>
<clipPath id="clip0_204_33115">
<rect width="18" height="18" fill="white" transform="translate(598.998 122)"/>
</clipPath>
</defs>
</svg>
