<svg width="1080" height="1080" viewBox="0 0 1080 1080" fill="none" xmlns="http://www.w3.org/2000/svg"><g clip-path="url(#blip-marketing__a)"><path d="M966.13 373.734c-52.7-54.017-124.636-83.348-196.519-102.632-13.188-3.512-26.428-6.753-39.721-9.831-46.666-10.702-89.696-34.21-124.584-68.062l-.677-.594c-37.584-36.677-69.746-80.107-113.116-109.762-30.771-20.741-65.967-33.375-102.526-36.802-36.558-3.427-73.371 2.457-107.234 17.14-67.139 30.465-117.077 99.391-124.166 174.96-8.549 90.533 40.294 180.903 23.405 270.085C160.141 618.43 39.258 717.875 38.007 830.176c-.573 55.368 34.769 135.745 78.712 167.453 43.943 31.711 100.032 42.241 152.993 35.161 80.797-10.8 151.169-108.03 224.668-144.707 78.955-39.524 163.371-66.058 250.21-78.649 58.799-8.481 119.892-10.803 173.427-37.812 67.765-34.139 114.943-107.223 123.073-184.9 8.13-77.676-21.37-158.161-74.96-212.988Z" fill="#B9CBD3" style="mix-blend-mode:luminosity" opacity=".16"/><g opacity=".06" filter="url(#blip-marketing__b)"><path d="M528.023 1053.79c0 14.48-99.054 26.21-221.242 26.21-122.188 0-221.242-11.73-221.242-26.21 0-14.47 99.054-26.21 221.242-26.21 122.188 0 221.242 11.74 221.242 26.21Z" fill="#0A0F1A"/></g><path opacity=".3" d="M547.694 144.496a4.513 4.513 0 1 1 4.513-4.514 4.525 4.525 0 0 1-4.513 4.514Z" fill="url(#blip-marketing__c)"/><path d="M547.693 135.468a4.513 4.513 0 0 1 .881 8.941 4.52 4.52 0 0 1-4.634-1.92 4.513 4.513 0 0 1 3.753-7.021Zm0-.111a4.632 4.632 0 0 0-4.286 2.867 4.634 4.634 0 0 0 1.011 5.056 4.636 4.636 0 0 0 5.06.997 4.644 4.644 0 0 0 2.854-4.296 4.636 4.636 0 0 0-4.639-4.624Z" fill="url(#blip-marketing__d)"/><path d="M543.526 139.982a4.156 4.156 0 0 1 4.964-4.074 4.159 4.159 0 0 1 3.264 3.264 4.16 4.16 0 0 1-1.766 4.264 4.152 4.152 0 0 1-6.462-3.454Z" fill="url(#blip-marketing__e)"/><g opacity=".06" filter="url(#blip-marketing__f)"><path d="M887.616 991.017c0 16.153-125.249 29.253-279.751 29.253-154.503 0-279.752-13.1-279.752-29.253 0-16.157 125.249-29.255 279.752-29.255 154.502 0 279.751 13.098 279.751 29.255Z" fill="#0A0F1A"/></g><path d="M392.174 192.755c0-36.711 29.76-66.471 66.471-66.471h298.217c36.711 0 66.471 29.76 66.471 66.471v734.409c0 36.711-29.76 66.471-66.471 66.471H458.645c-36.711 0-66.471-29.76-66.471-66.471V192.755Z" fill="#1A2437"/><path d="M418.808 187.512c0-20.025 16.233-36.258 36.257-36.258h306.079c20.024 0 36.257 16.233 36.257 36.258v742.829c0 20.024-16.233 36.257-36.257 36.257H455.065c-20.024 0-36.257-16.233-36.257-36.257V187.512Z" fill="#F5F8F9"/><path d="M418.836 184.936c0-18.745 15.195-33.94 33.94-33.94h310.715c18.744 0 33.939 15.195 33.939 33.94v12.569H418.836v-12.569Z" fill="#2498A8"/><path d="M797.551 197.067H418.836v53.153h378.715v-53.153Z" fill="#2CC3D5"/><path d="m774.939 223.424 5.755-5.77a.924.924 0 0 0-1.303-1.292l-5.759 5.755-5.758-5.755a.92.92 0 0 0-1.371-.079.93.93 0 0 0-.173 1.072.91.91 0 0 0 .241.299l5.755 5.759-5.755 5.769a.92.92 0 0 0 .143 1.417.92.92 0 0 0 1.16-.114l5.758-5.758 5.759 5.758a.905.905 0 0 0 .649.269.92.92 0 0 0 .904-1.1.92.92 0 0 0-.25-.472l-5.755-5.758Zm-334.134 6.91a.649.649 0 0 1-.486-.23l-4.447-5.297a1.29 1.29 0 0 1 0-1.664l4.447-5.297a.646.646 0 0 1 .99.83l-4.447 5.299 4.439 5.3a.635.635 0 0 1 .092.688.645.645 0 0 1-.588.371Z" fill="#fff"/><path d="M502.077 150.996h210.826v3.309c0 15.777-12.79 28.567-28.566 28.567H530.643c-15.777 0-28.566-12.79-28.566-28.567v-3.309Z" fill="#1A2437"/><path d="M625.855 162.701h-63.739a2.812 2.812 0 0 0 0 5.624h63.739a2.812 2.812 0 1 0 0-5.624Zm30.43 3.974a4 4 0 1 1-3.973-3.974 3.976 3.976 0 0 1 3.973 3.974Z" opacity=".2" fill="#F8FBFB"/><path d="M593.623 961.815a.672.672 0 1 0 0-1.344.672.672 0 0 0 0 1.344Z" fill="#DF638D"/><rect x="497" y="219" width="87" height="9" rx="4.5" fill="#fff"/><path fill-rule="evenodd" clip-rule="evenodd" d="M470.453 240.197a16.622 16.622 0 0 0 15.339-10.261 16.61 16.61 0 0 0-12.107-22.646 16.615 16.615 0 0 0-19.857 16.282 16.656 16.656 0 0 0 16.625 16.625Z" fill="#FB5A8B"/><path d="M478.589 220.491a.645.645 0 0 0-.138-.543.674.674 0 0 0-.516-.239h-15.046l-.023-.104c-.238-1.1-1.245-1.899-2.394-1.899h-1.138a.66.66 0 0 0-.668.653.66.66 0 0 0 .668.653h1.138c.522 0 .98.363 1.088.863l1.984 9.167c.187.866.852 1.543 1.686 1.793-.1.233-.156.49-.156.759 0 1.08.898 1.959 2.003 1.959 1.104 0 2.002-.879 2.002-1.959 0-.229-.041-.449-.115-.654h2.989a1.922 1.922 0 0 0-.115.654c0 1.08.898 1.959 2.003 1.959 1.104 0 2.002-.879 2.002-1.959 0-.229-.041-.449-.115-.654h.16a.66.66 0 0 0 .667-.653.66.66 0 0 0-.667-.653h-9.95c-.522 0-.98-.362-1.088-.862l-.171-.792h11.819a.665.665 0 0 0 .655-.524l.701-3.401a.638.638 0 0 0 .034-.164l.701-3.4Zm-10.845 11.103a.66.66 0 0 1-.667.653.661.661 0 0 1-.668-.653c0-.361.299-.654.668-.654.368 0 .667.293.667.654Zm6.764 0a.66.66 0 0 1-.667.653.661.661 0 0 1-.668-.653c0-.361.299-.654.668-.654.368 0 .667.293.667.654Zm2.162-8.403h-3.141l.278-2.176h3.312l-.449 2.176Zm-8.025 3.483-.278-2.177h3.65l-.279 2.177h-3.093Zm-.445-3.483-.278-2.176h4.54l-.279 2.176H468.2Zm-1.624-2.176.278 2.176h-3.212l-.471-2.176h3.405Zm-2.651 3.482h3.096l.278 2.177h-2.903l-.471-2.177Zm9.159 2.177.278-2.177h3.039l-.449 2.177h-2.868Z" fill="#fff"/><path d="M485.741 217.974a5.502 5.502 0 1 0 0-11.004 5.502 5.502 0 0 0 0 11.004Z" fill="#BED42B"/><path fill-rule="evenodd" clip-rule="evenodd" d="M485.741 207.623a4.85 4.85 0 1 0-.001 9.699 4.85 4.85 0 0 0 .001-9.699Zm-6.155 4.849a6.155 6.155 0 1 1 12.31 0 6.155 6.155 0 0 1-12.31 0Z" fill="#2CC3D5"/><path d="M624.053 518.32c0-8.638-7.002-15.641-15.641-15.641H446.147c-8.639 0-15.641 7.003-15.641 15.641v21.859a5.213 5.213 0 0 0 5.213 5.214h172.693c8.639 0 15.641-7.003 15.641-15.641V518.32Zm0-222.318c0-8.638-7.002-15.641-15.641-15.641H446.147c-8.639 0-15.641 7.003-15.641 15.641v21.86a5.213 5.213 0 0 0 5.213 5.213h172.693c8.639 0 15.641-7.002 15.641-15.641v-11.432Zm0 378.394c0-8.638-7.002-15.641-15.641-15.641H446.147c-8.639 0-15.641 7.003-15.641 15.641v21.86a5.213 5.213 0 0 0 5.213 5.213h172.693c8.639 0 15.641-7.002 15.641-15.641v-11.432Zm0 57.995c0-8.638-7.002-15.641-15.641-15.641H446.147c-8.639 0-15.641 7.003-15.641 15.641v21.859a5.213 5.213 0 0 0 5.213 5.214h172.693c8.639 0 15.641-7.003 15.641-15.641v-11.432Z" fill="#D2DFE6"/><path d="M538.011 583.678c0-8.639 7.002-15.641 15.64-15.641H763.97c8.639 0 15.641 7.002 15.641 15.641v47.22a5.213 5.213 0 0 1-5.213 5.214H553.651c-8.638 0-15.64-7.003-15.64-15.641v-36.793Zm0-182.845c0-8.638 7.002-15.641 15.64-15.641H763.97c8.639 0 15.641 7.003 15.641 15.641v47.221a5.213 5.213 0 0 1-5.213 5.214H553.651c-8.638 0-15.64-7.003-15.64-15.641v-36.794Zm0 392.506c0-8.638 7.002-15.641 15.64-15.641H763.97c8.639 0 15.641 7.003 15.641 15.641v47.221a5.214 5.214 0 0 1-5.213 5.214H553.651c-8.638 0-15.64-7.003-15.64-15.641v-36.794Z" fill="#DEE8EC"/><path d="m785.122 867.622 6.609-22.471c1.133-4.909 2.643-10.574 4.721-17.183 1.888-5.854 6.609-12.085 11.14-16.617 6.798-6.987 10.008-6.987 14.729-10.575a5.733 5.733 0 0 0 1.322-.944c.944-.566 1.699-1.133 2.266-1.888 3.965-4.343.189-10.952-7.931-10.197-6.042.566-15.862 2.266-31.912 18.694a2.617 2.617 0 0 0-.567.755c-8.497 10.953-16.239-20.204-17.75-31.912-.944-7.553-9.063-12.085-16.428-9.441l-39.088 18.316c-3.21-1.133-6.986-.944-11.329.378-5.665 2.077-8.875 8.12-7.365 13.784l15.862 63.258-30.836 96.525h100.079l6.478-90.482Z" fill="#C18775"/><path d="m862.164 725.623-30.968 60.615-15.484-4.344-77.798 63.447c-6.609 5.476-16.239 4.532-21.904-1.888l-29.646-34.367s59.67-25.681 70.811-47.019c11.141-21.337-1.7-26.058-1.7-26.058l28.136-31.912 78.553 21.526Zm-40.22-123.872s-45.319-10.008-109.144-71.378c-63.635-61.37-93.659-142.755-101.401-142.377-7.931.377-41.92-15.484-106.878 125.571-64.768 141.056-39.276 173.724-26.436 173.535 12.84-.189 100.457-24.737 155.218-18.506 54.761 6.232 125.005 34.745 125.005 34.745l63.636-101.59Z" fill="#F6A721"/><path d="m917.569 682.29-15.484 29.457-6.987 13.218c-9.441 18.128-31.534 25.492-50.04 16.995L748 708.159 804.649 579l97.058 51.739c18.506 9.819 25.681 32.857 15.862 51.551Z" fill="#CB840C"/><path d="M509.808 516.211c-34.556 76.476-48.907 144.454-32.101 152.008 16.806 7.553 58.348-48.152 92.904-124.628s48.907-144.455 32.101-152.008c-16.806-7.553-58.348 48.152-92.904 124.628Z" fill="#F6A721"/><path opacity=".5" d="M509.808 516.211c-34.556 76.476-48.907 144.454-32.101 152.008 16.806 7.553 58.348-48.152 92.904-124.628s48.907-144.455 32.101-152.008c-16.806-7.553-58.348 48.152-92.904 124.628Z" fill="#000"/><path d="m926.555 721.091-26.247-8.308 16.239-30.969 19.827 12.274-9.819 27.003Z" fill="#52371D"/><path opacity=".6" d="m916.547 681.814-16.239 30.968 5.287 1.7 13.407-31.157-2.455-1.511Z" fill="#000"/><path d="M587.142 503.431s-41.135-24.893-62.661 28.357c-21.527 53.25 19.997 63.065 19.997 63.065 16.995-26.436 32.279-57.244 42.664-91.422Z" fill="#52371D"/><g opacity=".1"><path opacity=".4" d="M695.805 804.743c3.588 6.609 7.176 13.218 12.652 18.317 5.287 5.287 12.651 8.875 20.016 8.119 7.364-.755 14.351-6.986 14.54-14.351 3.587 2.644 9.064 1.133 11.896-2.077 2.832-3.21 3.965-7.931 4.343-12.463 4.91 2.833 11.519.567 14.729-3.965 3.21-4.532 3.399-10.763 1.888-16.24-1.511-5.476-4.721-10.196-7.742-14.917 3.777.378 7.742.566 10.952-1.133 3.399-1.7 5.665-6.043 3.588-9.253-1.133-1.888-3.399-2.832-5.476-3.399-5.854-1.888-10.008-3.21-16.051-2.643-1.321 0 2.455 16.05-35.688 37.955-22.471 13.029-29.647 16.05-29.647 16.05Z" fill="#000"/></g><path d="M781.534 827.78c0 .189-2.644-.378-6.609-.189-4.154 0-9.819.944-15.484 3.777-5.665 2.643-10.008 6.609-12.463 9.819-2.643 3.21-3.776 5.476-3.965 5.287 0 0 .189-.566.755-1.699.567-.944 1.511-2.455 2.644-4.155 2.454-3.21 6.798-7.364 12.651-10.196 5.854-2.833 11.708-3.588 15.862-3.588 2.077 0 3.777.189 4.91.378l1.699.566Z" fill="#BF7D68"/><path d="M698.26 794.545c6.043 5.854 10.386 12.463 16.806 18.317 2.833 2.643 7.553 7.742 11.33 8.497 3.965.755 6.42.189 7.931-3.588 1.322-3.021-.944-6.986-2.644-9.441-4.154-6.42-7.931-11.519-11.141-16.428-1.51-2.266.378-2.833 1.133-1.7 3.022 3.021 7.365 5.665 10.008 9.064 3.588 4.532 4.343 10.574 13.785 8.686 1.322-.189 2.455-.755 3.588-1.51 3.587-2.644 3.776-7.554 2.266-11.33-1.133-3.022-3.211-5.476-5.288-7.931 3.966 4.532 8.498 9.441 14.918 9.819 3.776.378 7.553-1.511 9.064-4.91 1.888-4.343-.756-8.497-3.588-11.896-4.91-6.042-10.197-11.518-16.051-16.428-2.266-1.888-4.909-2.832-7.742-2.832-3.399 0-7.553.566-9.441 3.399-3.777 5.287-2.644 9.819-2.644 9.819s-8.308-4.155-14.917.189c-6.609 4.343-8.309 12.085-8.309 12.085l-9.064 8.119Z" fill="#C18775"/><path d="M742.446 759.235c-2.643-2.643-3.21-7.364-1.133-11.33 1.322-2.832 3.21-5.476 5.099-6.042 7.931-2.644 42.486 3.399 42.109 10.952-.378 7.931-2.833 11.33-21.527 8.686-3.21-.566-8.497-1.133-8.497-1.133l-4.532 6.798-11.519-7.931Z" fill="#C18775"/><path d="M796.901 932.435c0 18.745-15.195 33.94-33.94 33.94H452.126c-18.744 0-33.94-15.195-33.94-33.94v-21.871h378.715v21.871Z" fill="#F8FBFB"/><path fill-rule="evenodd" clip-rule="evenodd" d="M796.901 911.13H418.186v-1.131h378.715v1.131Z" fill="#D2DFE6"/><path fill-rule="evenodd" clip-rule="evenodd" d="M450.743 927.84a11.3 11.3 0 0 0-10.436 6.972 11.293 11.293 0 0 0 2.449 12.31 11.298 11.298 0 0 0 17.378-1.712 11.295 11.295 0 0 0-9.391-17.57Zm0 21.347a9.967 9.967 0 0 1-7.06-2.936 9.73 9.73 0 0 1-1.821-2.457 10.064 10.064 0 0 1 7.86-14.684 10.062 10.062 0 0 1 10.416 6.305 10.07 10.07 0 0 1-3.278 11.727 10.06 10.06 0 0 1-6.089 2.045h-.028Z" fill="#2CC3D5"/><path fill-rule="evenodd" clip-rule="evenodd" d="M447.055 937.835a1.226 1.226 0 0 0 1.145-.749 1.228 1.228 0 1 0-1.145.749Zm7.556 0a1.229 1.229 0 1 0-.001-2.458 1.229 1.229 0 0 0 .001 2.458Zm-4.533 6.282a5.856 5.856 0 0 1-4.235-2.612l-1.017.664a7.066 7.066 0 0 0 5.083 3.162c.263.015.527.015.79 0a7.049 7.049 0 0 0 5.916-3.205l-1.031-.663a5.82 5.82 0 0 1-2.377 2.106 5.822 5.822 0 0 1-3.129.548Z" fill="#2CC3D5"/><path d="M312.997 953.288a13.009 13.009 0 0 1-15.548 12.76 13.01 13.01 0 1 1 15.548-12.76Z" fill="#BAE6F0"/><path fill-rule="evenodd" clip-rule="evenodd" d="M347.771 766.622c6.056-4.034 14.235-2.393 18.268 3.663 24.943 37.454 47.045 80.37 53.224 117.024 3.101 18.394 2.461 36.773-5.481 52.243-8.235 16.042-23.212 26.828-44.193 31.685-7.089 1.64-14.166-2.776-15.807-9.865s2.776-14.166 9.865-15.807c14.952-3.461 22.659-10.187 26.694-18.047 4.329-8.433 5.549-20.346 2.939-35.828-5.243-31.099-24.847-70.272-49.173-106.8-4.033-6.056-2.393-14.235 3.664-18.268Z" fill="#F3C29F"/><path fill-rule="evenodd" clip-rule="evenodd" d="M346.912 765.433c6.712-4.508 15.808-2.72 20.316 3.993a551.482 551.482 0 0 1 35.951 61.864c3.601 7.24.651 16.028-6.589 19.628-7.24 3.601-16.028.651-19.629-6.589a522.452 522.452 0 0 0-34.042-58.58c-4.508-6.713-2.72-15.809 3.993-20.316Z" fill="#2CC3D5"/><path d="M371.504 980.967c.043-.42.009-.844-.103-1.25l-1.477-3.966c-3.408-9.442-11.862-33.315-12.124-43.689-.443-17.692 2.137-48.007 3.659-58.166-2.852 1.512-5.624 3.602-8.59 3.602h-107.24c-2.977 0-6.034-1.749-8.886-3.261 1.523 10.159 3.295 40.133 2.852 57.825-.261 10.374-8.658 34.247-12.124 43.689l-1.477 3.966c-.111.406-.146.83-.102 1.25a.523.523 0 0 0 0 .056c0 5.261 32.52 9.545 72.834 9.613 40.315.068 72.835-4.352 72.835-9.613a.602.602 0 0 0-.057-.056Z" fill="#2CC3D5"/><path d="M248.924 879.147a20.15 20.15 0 0 1-12.09-4.545l2.647 39.894c-.17-9.772 5.545-33.315 5.545-33.315a9.48 9.48 0 0 0 1.887.181c6.817-.318 26.395-1.806 26.395-1.806-12.442-.012-24.384-.409-24.384-.409Z" fill="#C64A79"/><path d="m300.521 876.999-63.779-2.761 2.954 52.087c1.353-32.452 60.825-49.326 60.825-49.326Z" fill="#2AB6C8"/><path d="M372.117 838.673c-5.204-22.351-17.931-74.698-17.931-74.698 0-2.568-15.578-3.477-50.529-4.159v-.17l-5.079.068-5.068-.068v.17c-34.951.682-50.53 1.591-50.53 4.159 0 0-12.726 52.347-17.93 74.698-5.022 21.589 9.795 40.564 23.862 40.564h99.343c14.056.034 28.929-19.021 23.862-40.564Z" fill="#2CC3D5"/><path d="M348.653 879.146s-11.942.398-24.384.398c0 0 27.531.216 30.963 13.862.261 1.296.523 2.636.773 4 1.136 6.261 2.159 12.919 2.09 17.044l3.409-40.735c-3.727 2.909-8.715 5.431-12.851 5.431Z" fill="#2AB6C8"/><path fill-rule="evenodd" clip-rule="evenodd" d="M252.203 766.86c6.057 4.033 7.697 12.212 3.664 18.268-23.995 36.032-41.25 75.802-45.36 107.292-2.056 15.755-.65 28.111 3.495 36.763 3.833 8 10.498 13.948 22.27 16.619 7.096 1.61 11.543 8.668 9.933 15.764-1.611 7.096-8.668 11.543-15.764 9.933-19.175-4.351-32.699-15.269-40.202-30.931-7.191-15.01-8.268-33.11-5.86-51.558 4.818-36.916 24.282-80.536 49.556-118.487 4.033-6.056 12.212-7.696 18.268-3.663Z" fill="#F3C29F"/><path fill-rule="evenodd" clip-rule="evenodd" d="M253.062 765.67c6.713 4.507 8.502 13.603 3.995 20.316a523.546 523.546 0 0 0-34.044 58.583c-3.602 7.24-12.39 10.189-19.63 6.587-7.239-3.602-10.188-12.39-6.586-19.63a552.54 552.54 0 0 1 35.949-61.86c4.507-6.714 13.603-8.503 20.316-3.996Z" fill="#2CC3D5"/><path d="M381.911 897.327H218.108a12.713 12.713 0 0 0-9.618 4.394 12.714 12.714 0 0 0-2.587 4.752 12.725 12.725 0 0 0-.374 5.398l11.681 80.379a7.395 7.395 0 0 0 7.272 6.329h151.009a7.393 7.393 0 0 0 7.318-6.329l11.681-80.379a12.71 12.71 0 0 0-2.961-10.15 12.703 12.703 0 0 0-9.618-4.394Z" fill="url(#blip-marketing__g)"/><path opacity=".8" d="M312.77 948.116a9.396 9.396 0 0 0-7.693-7.567 27.852 27.852 0 0 0-5.442-.534c-2.421 0-5.818.318-8.272 1.84-3.068 1.898-4.682 5.591-4.545 10.386.079 2.761.738 6.647 3.408 9.419 2.137 2.273 6.238 3.33 9.42 3.466v2.488a1.524 1.524 0 0 0 1.511 1.512h.137c.31-.025.605-.149.84-.353 1.239-1.056 2.875-2.465 4.455-3.954l.704-.636a23.352 23.352 0 0 0 3.409-3.659c2.238-3.125 2.988-7.76 2.068-12.408Z" fill="#DAE5EA"/><path d="m299.987 994.533-.784.307-1.136-1.045 1.92.738Z" fill="#564B5E"/><path d="M475.039 926.245a.568.568 0 1 0 0-1.135.568.568 0 0 0 0 1.135Z" fill="#DF638D"/><path opacity=".6" d="M208.813 934.823s17.34 21.714 44.11 34.304c13.999 6.556 30.679 8.352 48.575 8.011 16.34-.307 37.429-6.5 53.575-14.067 21.589-10.124 36.02-22.237 35.111-21.589l-60.029 53.063-77.675 2.704-39.678-35.03-3.989-27.396Z" fill="#DEE8EC"/><path d="M456.507 1053.82a74.638 74.638 0 0 1-20.146 2.89c-6.06.05-12.115-.35-18.112-1.22a239.492 239.492 0 0 1-32.952-7.26 11.071 11.071 0 0 1-6.376-4.76 11.102 11.102 0 0 1-1.54-7.81c.47-2.71 1.927-5.14 4.088-6.83a11.012 11.012 0 0 1 7.612-2.33h.148c10.038.83 20.123.95 30.179.36 4.588-.29 9.146-.94 13.635-1.93a40.077 40.077 0 0 0 10.806-4.01 17.815 17.815 0 0 1 13.363-1.45 17.798 17.798 0 0 1 4.203 32.39 18.214 18.214 0 0 1-3.749 1.6l-1.159.36Z" fill="#FF6E1D"/><path d="M420.692 1040.46c0 8.47-2.534 15.32-5.681 15.32l-10.522-1.43c-19.834.14-39.66-.8-59.393-2.81a575.848 575.848 0 0 1-59.869-9.09 460.2 460.2 0 0 1-45.644-11.83l74.721-30.58c12.26 4.55 24.748 8.55 37.371 12.17a525.78 525.78 0 0 0 55.416 12.81h.102c.205 0 .409.1.614.15h7.204c3.147-.01 5.681 6.84 5.681 15.29Z" fill="#121927"/><path d="M156.057 1020.93a39.739 39.739 0 0 0 10.805 4.01 89.56 89.56 0 0 0 13.636 1.93c10.055.59 20.14.47 30.179-.36h.147c2.737-.19 5.447.64 7.605 2.34a11.082 11.082 0 0 1-3.832 19.39 240.936 240.936 0 0 1-32.952 7.27c-5.987.85-12.03 1.26-18.078 1.2a74.638 74.638 0 0 1-20.146-2.89l-1.136-.33a17.628 17.628 0 0 1-6.573-3.52 17.808 17.808 0 0 1-4.553-5.9 17.814 17.814 0 0 1-1.732-7.26c-.059-2.51.416-5.01 1.392-7.32a17.85 17.85 0 0 1 4.272-6.12 17.848 17.848 0 0 1 6.402-3.82c2.38-.81 4.905-1.1 7.407-.87 2.502.24 4.926 1.01 7.111 2.25h.046Z" fill="#FF6E1D"/><path d="m435.498 994.317-.955.693a205.85 205.85 0 0 1-29.963 18 290.92 290.92 0 0 1-29.997 12.76 435.987 435.987 0 0 1-59.893 16.66 575.601 575.601 0 0 1-59.858 9.09c-19.736 2-39.566 2.94-59.404 2.8l-10.51 1.43c-3.125 0-5.681-6.81-5.681-15.31s2.522-15.31 5.681-15.31h7.204c.204 0 .398-.11.613-.15h.103c5.681-.97 11.362-2.06 17.044-3.26.954-.19 1.909-.38 2.852-.6 107.695-4.36 176.314-78.491 177.382-79.65.818-.807 1.602-1.614 2.374-2.421a36.943 36.943 0 0 1 4.67-4.113c15.408-11.238 36.474-7.056 47.042 9.34 10.567 16.396 6.715 38.792-8.704 50.041Z" fill="#1A2437"/><path d="M268.967 980.83c9.465 4.647 21.1 9.692 31.02 13.703a345.368 345.368 0 0 1-39.144 6.947c-33.395 3.92-78.334 5.05-84.777.7-.352-.22-.704-.43-1.056-.67l-.194-.11a195.756 195.756 0 0 1-9.34-6.39l-.954-.693c-15.419-11.249-19.317-33.656-8.783-50.052 10.533-16.396 31.576-20.578 46.995-9.317a36.873 36.873 0 0 1 4.67 4.113 144.675 144.675 0 0 0 18.521 16.146 241.022 241.022 0 0 0 22.226 14.533 339.285 339.285 0 0 0 20.816 11.09Z" fill="#1A2437"/><path d="M299.987 994.533c-16.578 6.597-34.417 12.677-51.722 17.657-11.079 3.17-23.169 6.22-34.486 8.72l-.432.21-.193-.08-.352.08.25-.12a282.926 282.926 0 0 1-17.658-7.96 216.884 216.884 0 0 1-19.316-10.83c10.533 7.14 123.909-7.677 123.909-7.677Z" fill="#121927"/><path d="M390.184 941.471c-1.068 1.136-69.687 75.289-177.382 79.649l.943-.2a554.035 554.035 0 0 0 34.497-8.73 546.293 546.293 0 0 0 51.723-17.656l1.875-.738a393.717 393.717 0 0 0 49.995-24.078 240.666 240.666 0 0 0 22.225-14.533 152.636 152.636 0 0 0 16.124-13.714Z" fill="#141E30"/><path d="M288.217 630.224c2.184-.352 26.054-17.143 47.201 4.186 14.963 15.082 1.276 25.049 14.084 35.443 11.346 9.213 21.927 30.026 5.574 53.68-27.941 40.395-25.374 29.989-44.904 35.091-34.678 9.087-29.331-9.765-29.331-9.765l7.376-118.635Z" fill="#211F36"/><path d="M288.499 627.848c7.785-3.189 15.93-6.236 24.674-6.477a26.89 26.89 0 0 1 12.756 2.523c3.943 2.021 7.12 5.157 9.089 8.97a59.408 59.408 0 0 1 5.03 11.338 104.52 104.52 0 0 1 2.995 11.875c.823 3.968 1.497 7.936 2.65 11.763a33.556 33.556 0 0 0 4.836 10.742 29.034 29.034 0 0 0 4.027 4.435 28.685 28.685 0 0 1 4.058 4.96 30.209 30.209 0 0 1 4.491 11.706c1.288 8.276-.778 16.609-4.132 24.092a90.896 90.896 0 0 1-13.475 20.733 169.573 169.573 0 0 1-17.443 17.728 189.104 189.104 0 0 0 16.679-18.295 95.33 95.33 0 0 0 12.697-20.747c3.129-7.384 4.836-15.433 3.563-23.199a27.983 27.983 0 0 0-8.07-15.461 31.195 31.195 0 0 1-4.312-4.719 35.67 35.67 0 0 1-5.225-11.338c-1.108-3.968-1.812-7.978-2.62-11.932-1.497-7.879-3.593-15.674-7.576-22.675-1.729-3.544-4.554-6.509-8.1-8.502a25.205 25.205 0 0 0-11.978-2.707 55.067 55.067 0 0 0-12.502 1.573c-4.072.907-8.055 2.381-12.112 3.614Zm19.174 77.163a13.907 13.907 0 0 0-6.438-9.225 30.172 30.172 0 0 0-10.734-4.311 33.99 33.99 0 0 0-11.568 0 52.173 52.173 0 0 0-21.397 8.349 37.81 37.81 0 0 0-8.42 7.731 30.173 30.173 0 0 0-6.495 21.281c.129 1.911.416 3.765.632 5.748.208 2.005.266 4.022.172 6.035a35.119 35.119 0 0 1-2.716 11.741c-3.132 7.486-8.621 13.435-13.177 19.658a23.695 23.695 0 0 0-4.641 10.274 16.071 16.071 0 0 0 .316 5.619 24.436 24.436 0 0 0 2.055 5.345 29.561 29.561 0 0 1 3.578 11.28 24.704 24.704 0 0 1-.201 5.921 48.389 48.389 0 0 1-1.437 5.748 32.362 32.362 0 0 0 1.02-11.597 28.948 28.948 0 0 0-3.894-10.863 23.774 23.774 0 0 1-2.299-5.547 17.238 17.238 0 0 1-.489-6.064 25.058 25.058 0 0 1 4.642-11.051c2.227-3.305 4.713-6.351 6.969-9.512a49.169 49.169 0 0 0 5.748-9.973 32.48 32.48 0 0 0 2.471-11.093 38.05 38.05 0 0 0-.201-5.748c-.215-1.854-.546-3.866-.69-5.878a33.602 33.602 0 0 1 1.437-11.998 31.626 31.626 0 0 1 5.748-10.605 39.237 39.237 0 0 1 8.91-8.048 47.27 47.27 0 0 1 10.662-5.316 51.958 51.958 0 0 1 11.582-2.774 34.584 34.584 0 0 1 11.913.403 30.677 30.677 0 0 1 10.835 4.785 16.746 16.746 0 0 1 4.152 4.21 11.583 11.583 0 0 1 1.955 5.475Z" fill="#2C2A46"/><path d="M310.546 633.003a11.235 11.235 0 0 0-2.241-5.188 16.345 16.345 0 0 0-4.038-3.88 29.572 29.572 0 0 0-10.39-4.311c-3.592-.948-7.185.604-10.461 2.429a94.164 94.164 0 0 0-9.311 6.495c-3.047 2.299-6.093 4.627-9.398 6.653-3.305 2.026-6.97 3.478-10.304 5.145a18.872 18.872 0 0 0-4.483 3.032 12.317 12.317 0 0 0-2.874 4.311 28.739 28.739 0 0 0-1.351 10.863c.431 7.559.561 15.477-1.609 22.992a30.567 30.567 0 0 1-5.274 10.461c-2.385 3.133-5.345 5.633-7.716 8.493a20.354 20.354 0 0 0-4.627 9.901 36.192 36.192 0 0 0 0 11.208c.586 3.758 1.377 7.48 2.371 11.151.459 1.854.919 3.707 1.221 5.604a14.124 14.124 0 0 1 0 5.748 14.13 14.13 0 0 0-.287-5.647c-.388-1.854-.92-3.693-1.437-5.518a107.09 107.09 0 0 1-2.874-11.137 36.389 36.389 0 0 1-.273-11.582 21.66 21.66 0 0 1 4.67-10.705c2.443-3.061 5.274-5.619 7.515-8.622a28.645 28.645 0 0 0 4.872-9.887 47.735 47.735 0 0 0 1.609-11.079v-5.647l-.287-5.748a29.733 29.733 0 0 1 1.566-11.697 14.356 14.356 0 0 1 3.42-5.058 20.782 20.782 0 0 1 4.986-3.32c3.507-1.71 7.042-3.032 10.217-4.986 3.176-1.954 6.265-4.038 9.427-6.237a95.379 95.379 0 0 1 9.642-6.337 23.637 23.637 0 0 1 5.417-2.227 10.906 10.906 0 0 1 5.921 0 30.166 30.166 0 0 1 10.475 4.8 13.726 13.726 0 0 1 5.906 9.527Z" fill="#2C2A46"/><path d="M305.833 780.572c7.976 0 14.442-5.327 14.442-11.898 0-6.572-6.466-11.899-14.442-11.899s-14.442 5.327-14.442 11.899c0 6.571 6.466 11.898 14.442 11.898Z" fill="#EFB8C2"/><path d="M305.833 780.572c7.976 0 14.442-5.327 14.442-11.898 0-6.572-6.466-11.899-14.442-11.899s-14.442 5.327-14.442 11.899c0 6.571 6.466 11.898 14.442 11.898Z" fill="#F3C29F"/><path fill-rule="evenodd" clip-rule="evenodd" d="M305.833 757.627c-7.667 0-13.589 5.093-13.589 11.046 0 5.954 5.922 11.046 13.589 11.046 7.667 0 13.59-5.092 13.59-11.046 0-5.953-5.923-11.046-13.59-11.046Zm-15.294 11.046c0-7.189 7.009-12.75 15.294-12.75s15.294 5.561 15.294 12.75-7.009 12.751-15.294 12.751-15.294-5.562-15.294-12.751Z" fill="#F3C29F"/><path d="M306.997 734.487h-2.342a43.624 43.624 0 0 1-9.441-1.021v27.303a9.502 9.502 0 0 0 2.827 6.724 9.507 9.507 0 0 0 6.757 2.746h2.199a9.512 9.512 0 0 0 9.513-9.528v-27.23a44.415 44.415 0 0 1-9.513 1.006Z" fill="#F3C29F"/><path d="M295.243 753.394v7.861s2.284-3.894 10.619-3.923c8.334-.029 10.605 4.311 10.605 4.311v-9.456l-21.253-.359.029 1.566Z" fill="#E8AA7D"/><path d="M351.156 667.045v44.546c0 19.988-14.859 36.686-34.718 40.767a46.344 46.344 0 0 1-9.441.963h-2.342a45.451 45.451 0 0 1-9.441-.977c-19.845-4.096-34.717-20.808-34.717-40.753v-44.546c0-22.992 19.772-41.673 44.158-41.673h2.342c24.4 0 44.159 18.681 44.159 41.673Z" fill="#F3C29F"/><path d="M261.588 684.337v20.204a6.865 6.865 0 0 1-6.753-6.883v-6.437a6.879 6.879 0 0 1 1.97-4.822 6.88 6.88 0 0 1 4.783-2.062Z" fill="#EFB8C2"/><path d="M355.093 703.72v6.437a6.867 6.867 0 0 1-6.754 6.883v-20.204a6.882 6.882 0 0 1 6.754 6.884Z" fill="#F3C29F"/><path d="M284.379 674.231c-6.438 9.7 8.464 19.73-4.311 41.974-6.222 10.85-5.26 16.942-2.113 21.253 3.334 4.441 13.422 7.961 17.905 15.06 6.61 10.519 9.959 27.173-7.285 49.72-21.325 27.863-28.424 28.093-36.198 46.385a3.11 3.11 0 0 1-4.038 2.098 44.237 44.237 0 0 1-13.277-34.861c1.595-21.914-14.14-25.377-13.221-34.588 1.437-14.585 7.731-9.384 19.831-27.906 2.414-3.708 3.333-9.139-6.122-16.827-9.455-7.688-12.085-27.188-3.535-33.87 8.55-6.682 11.755-17.359 6.869-25.233-1.811-2.874-13.35-20.348 11.395-34.129 4.383-2.428 13.709-10.475 19.126-17.933 4.987-6.883 29.2-13.307 40.509-3.736 11.309 9.57 48.053 22.417 33.812 50.007-8.148 15.821-48.757-13.321-59.347 2.586Z" fill="#2C2A46"/><path d="M339.704 630.159c-5.576-4.009-5.662-14.37-29.789-8.622-14.126 3.492 41.557 57.005 41.241 75.973 0 0 17.661-14.37 10.979-33.237-4.024-11.41-4.397-21.138-22.431-34.114Z" fill="#2C2A46"/><path d="M362.934 665.334a25.27 25.27 0 0 0-.823-7.517 28.754 28.754 0 0 0-2.719-6.871 41.092 41.092 0 0 0-9.639-11.329 115.153 115.153 0 0 1-5.888-4.968c-1.932-1.742-3.678-3.511-6.108-4.167a65.528 65.528 0 0 0-7.478-1.549l-7.693-1.329 7.683.75c2.582.23 5.146.631 7.675 1.201 1.312.31 2.551.873 3.647 1.659 1.097.772 2.06 1.622 3.051 2.468a120.18 120.18 0 0 0 6.016 4.747 30.294 30.294 0 0 1 10.614 11.553 20.548 20.548 0 0 1 1.662 15.352Z" fill="#2C2A46"/><path fill-rule="evenodd" clip-rule="evenodd" d="M380.584 73.478a4.322 4.322 0 0 0-4.322-4.323h-2.267a4.323 4.323 0 1 0 0 8.645h2.267a4.322 4.322 0 0 0 4.322-4.322Zm-20.403 0a4.322 4.322 0 0 0-4.322-4.323h-4.534a4.322 4.322 0 0 0 0 8.645h4.534a4.322 4.322 0 0 0 4.322-4.322Zm-22.67 0a4.322 4.322 0 0 0-4.322-4.323h-4.534a4.322 4.322 0 0 0 0 8.645h4.534a4.322 4.322 0 0 0 4.322-4.322Zm-22.67 0a4.322 4.322 0 0 0-4.322-4.323h-4.534a4.322 4.322 0 0 0 0 8.645h4.534a4.322 4.322 0 0 0 4.322-4.322Zm-22.669 0a4.322 4.322 0 0 0-4.323-4.323h-4.534a4.322 4.322 0 0 0 0 8.645h4.534a4.322 4.322 0 0 0 4.323-4.322Zm-22.67 0a4.322 4.322 0 0 0-4.322-4.323h-4.534a4.323 4.323 0 1 0 0 8.645h4.534a4.322 4.322 0 0 0 4.322-4.322Zm-22.67 0a4.322 4.322 0 0 0-4.322-4.323h-4.534a4.322 4.322 0 0 0 0 8.645h4.534a4.322 4.322 0 0 0 4.322-4.322Zm-22.67 0a4.322 4.322 0 0 0-4.322-4.323h-2.267c-.947 0-1.881.074-2.793.218a4.323 4.323 0 0 0 1.342 8.54c.47-.075.955-.113 1.451-.113h2.267a4.322 4.322 0 0 0 4.322-4.322Zm-19.314 7.169a4.323 4.323 0 0 0-4.941 3.599 17.914 17.914 0 0 0-.218 2.793v2.084a4.323 4.323 0 0 0 8.645 0V87.04c0-.497.039-.981.113-1.451a4.323 4.323 0 0 0-3.599-4.941Zm-.836 20.829a4.323 4.323 0 0 0-4.323 4.322v4.169a4.323 4.323 0 0 0 8.645 0v-4.169a4.322 4.322 0 0 0-4.322-4.322Zm0 20.844a4.323 4.323 0 0 0-4.323 4.322v4.169a4.323 4.323 0 0 0 8.645 0v-4.169a4.322 4.322 0 0 0-4.322-4.322Zm0 20.843a4.324 4.324 0 0 0-4.323 4.323v4.168a4.323 4.323 0 0 0 8.645 0v-4.168a4.323 4.323 0 0 0-4.322-4.323Zm0 20.844a4.323 4.323 0 0 0-4.323 4.322v4.169a4.323 4.323 0 0 0 8.645 0v-4.169a4.322 4.322 0 0 0-4.322-4.322Zm0 20.844a4.323 4.323 0 0 0-4.323 4.322v2.085a4.323 4.323 0 0 0 8.645 0v-2.085a4.322 4.322 0 0 0-4.322-4.322Zm-.233 42.429a4.322 4.322 0 0 1 4.322 4.322v1.856a4.322 4.322 0 1 1-8.644 0v-1.856a4.322 4.322 0 0 1 4.322-4.322Zm0 16.7a4.322 4.322 0 0 1 4.322 4.322v3.711a4.323 4.323 0 1 1-8.644 0v-3.711a4.322 4.322 0 0 1 4.322-4.322Zm0 18.555a4.322 4.322 0 0 1 4.322 4.323v3.711a4.322 4.322 0 1 1-8.644 0v-3.711a4.322 4.322 0 0 1 4.322-4.323Zm0 18.556a4.322 4.322 0 0 1 4.322 4.322v3.711a4.322 4.322 0 1 1-8.644 0v-3.711a4.322 4.322 0 0 1 4.322-4.322Zm0 18.555a4.322 4.322 0 0 1 4.322 4.322v3.711a4.322 4.322 0 1 1-8.644 0v-3.711a4.322 4.322 0 0 1 4.322-4.322Zm0 18.555a4.322 4.322 0 0 1 4.322 4.322v3.712a4.322 4.322 0 1 1-8.644 0v-3.712a4.322 4.322 0 0 1 4.322-4.322Zm0 18.556a4.322 4.322 0 0 1 4.322 4.322v3.711a4.322 4.322 0 1 1-8.644 0v-3.711a4.322 4.322 0 0 1 4.322-4.322Zm0 18.555a4.322 4.322 0 0 1 4.322 4.322v3.711a4.322 4.322 0 1 1-8.644 0v-3.711a4.322 4.322 0 0 1 4.322-4.322Zm0 18.555a4.322 4.322 0 0 1 4.322 4.322v3.711a4.322 4.322 0 1 1-8.644 0v-3.711a4.322 4.322 0 0 1 4.322-4.322Zm0 18.555a4.323 4.323 0 0 1 4.322 4.323v1.855a4.322 4.322 0 1 1-8.644 0v-1.855a4.323 4.323 0 0 1 4.322-4.323Z" fill="#D2DFE6"/><path d="M371.995 58.89c0 32.524 26.366 58.89 58.89 58.89s58.89-26.366 58.89-58.89S463.409 0 430.885 0s-58.89 26.366-58.89 58.89Z" fill="#4C9AFF"/><path fill-rule="evenodd" clip-rule="evenodd" d="M424.923 37.026a8.786 8.786 0 0 1 11.097 1.093 8.79 8.79 0 1 1-11.097-1.093Zm12.054-3.425a12.911 12.911 0 0 0-16.299 1.605 12.907 12.907 0 1 0 16.299-1.605Zm5.571 52.944h-25.487a7.61 7.61 0 0 1-7.635-7.635 18.321 18.321 0 0 1 18.291-18.29h4.175a18.32 18.32 0 0 1 18.291 18.29 7.612 7.612 0 0 1-4.709 7.061 7.607 7.607 0 0 1-2.926.574Zm-.643-17.647a14.201 14.201 0 0 0-10.013-4.159h-4.175a14.197 14.197 0 0 0-14.171 14.171 3.513 3.513 0 0 0 3.515 3.516h25.487a3.518 3.518 0 0 0 3.515-3.516 14.197 14.197 0 0 0-4.158-10.012Z" fill="#fff"/><g filter="url(#blip-marketing__h)"><path d="M347.725 389.823c0-5.923-4.803-10.726-10.727-10.726H102.36c-5.924 0-10.726 4.802-10.726 10.726v77.766c0 5.924 4.802 10.727 10.726 10.727h234.638c5.924 0 10.727-4.803 10.727-10.727v-77.766Z" fill="#F8FBFB"/></g><path d="M139.888 429.044c0 6.056-4.909 10.964-10.964 10.964-6.055 0-10.964-4.908-10.964-10.964 0-6.055 4.909-10.963 10.964-10.963 6.055 0 10.964 4.908 10.964 10.963Z" fill="#3F7DE8"/><path fill-rule="evenodd" clip-rule="evenodd" d="M151.334 429.044a8.045 8.045 0 0 1 8.045-8.045h163.239a8.044 8.044 0 0 1 8.044 8.045 8.043 8.043 0 0 1-8.044 8.044H159.379a8.044 8.044 0 0 1-8.045-8.044Z" fill="#8CA0B3"/><g filter="url(#blip-marketing__i)"><path d="M347.725 503.79c0-5.924-4.803-10.727-10.727-10.727H102.36c-5.924 0-10.726 4.803-10.726 10.727v77.766c0 5.923 4.802 10.726 10.726 10.726h234.638c5.924 0 10.727-4.803 10.727-10.726V503.79Z" fill="#F8FBFB"/></g><path d="M139.888 543.555c0 6.055-4.909 10.963-10.964 10.963-6.055 0-10.964-4.908-10.964-10.963 0-6.056 4.909-10.964 10.964-10.964 6.055 0 10.964 4.908 10.964 10.964Z" fill="#3F7DE8"/><path fill-rule="evenodd" clip-rule="evenodd" d="M151.334 543.554a8.045 8.045 0 0 1 8.045-8.045h163.239a8.045 8.045 0 0 1 0 16.09H159.379a8.045 8.045 0 0 1-8.045-8.045Z" fill="#8CA0B3"/><path d="M169.434 221.513c0 19.096 15.481 34.577 34.578 34.577 19.096 0 34.577-15.481 34.577-34.577 0-19.097-15.481-34.578-34.577-34.578-19.097 0-34.578 15.481-34.578 34.578Z" fill="#FB5A8B"/><path d="M188.962 210.909a4.823 4.823 0 0 1 3.375-1.416h23.348c1.268.01 2.48.519 3.376 1.416a4.661 4.661 0 0 1 1.367 3.293 6.817 6.817 0 0 1-1.812 4.561l-9.879 10.604a2.24 2.24 0 0 0-.576 1.515l-.313 4.824a2.691 2.691 0 0 1-.762 1.947 2.7 2.7 0 0 1-1.922.82 1.31 1.31 0 0 1-.609-.165l-2.964-1.647a4.572 4.572 0 0 1-2.519-4.165v-1.647c0-.547-.213-1.072-.593-1.465l-9.04-10.588a6.799 6.799 0 0 1-1.893-4.577 4.664 4.664 0 0 1 1.416-3.31Zm11.312 16.795a4.548 4.548 0 0 1 1.218 3.112v1.647a2.17 2.17 0 0 0 1.252 1.926l2.634 1.515a.617.617 0 0 0 0-.296l.329-4.825a4.544 4.544 0 0 1 1.219-3.112l9.039-9.649h-10.801a1.234 1.234 0 1 1 0-2.47h12.547c.147-.435.23-.89.247-1.35a2.194 2.194 0 0 0-.642-1.547 2.29 2.29 0 0 0-1.647-.692h-23.332a2.286 2.286 0 0 0-1.646.692c-.411.41-.642.967-.642 1.547.016.46.099.915.247 1.35h5.483a1.239 1.239 0 0 1 1.235 1.235 1.238 1.238 0 0 1-1.235 1.235h-3.787l8.282 9.682Z" fill="#fff"/><g filter="url(#blip-marketing__j)"><path d="M657.914 292.502c0-8.674-7.032-15.706-15.706-15.706H348.694c-8.674 0-15.705 7.032-15.705 15.706v58.692a3.14 3.14 0 0 0 3.141 3.141h306.078c8.674 0 15.706-7.031 15.706-15.705v-46.128Z" fill="#fff"/></g><path d="M347.836 293.106c0 23.196 18.804 42 42 42 23.197 0 42.001-18.804 42.001-42s-18.804-42-42.001-42c-23.196 0-42 18.804-42 42Z" fill="#4C9AFF"/><path fill-rule="evenodd" clip-rule="evenodd" d="M466.564 305.961a4.912 4.912 0 0 1 4.911-4.912h155.54a4.912 4.912 0 0 1 0 9.823h-155.54a4.911 4.911 0 0 1-4.911-4.911Zm0 19.384a4.911 4.911 0 0 1 4.911-4.911h104.989a4.912 4.912 0 1 1 0 9.823H471.475a4.912 4.912 0 0 1-4.911-4.912Z" fill="#D2DFE6"/><path fill-rule="evenodd" clip-rule="evenodd" d="M386.887 277.202a6.189 6.189 0 1 1 6.877 10.292 6.189 6.189 0 0 1-6.877-10.292Zm8.488-2.412a9.088 9.088 0 1 0-10.1 15.112 9.088 9.088 0 0 0 10.1-15.112Zm3.922 37.278h-17.945a5.359 5.359 0 0 1-4.972-3.315 5.371 5.371 0 0 1-.404-2.06 12.898 12.898 0 0 1 12.879-12.879h2.939a12.898 12.898 0 0 1 12.879 12.879 5.353 5.353 0 0 1-5.376 5.375Zm-.453-12.425a9.998 9.998 0 0 0-7.05-2.929h-2.939a9.998 9.998 0 0 0-9.978 9.979 2.476 2.476 0 0 0 2.475 2.475h17.945a2.474 2.474 0 0 0 2.475-2.475 9.997 9.997 0 0 0-2.928-7.05Z" fill="#fff"/></g><defs><filter id="blip-marketing__b" x="71.54" y="1013.58" width="470.483" height="80.415" filterUnits="userSpaceOnUse" color-interpolation-filters="sRGB"><feFlood flood-opacity="0" result="BackgroundImageFix"/><feBlend in="SourceGraphic" in2="BackgroundImageFix" result="shape"/><feGaussianBlur stdDeviation="7" result="effect1_foregroundBlur_10272_1625"/></filter><filter id="blip-marketing__f" x="314.113" y="947.762" width="587.503" height="86.51" filterUnits="userSpaceOnUse" color-interpolation-filters="sRGB"><feFlood flood-opacity="0" result="BackgroundImageFix"/><feBlend in="SourceGraphic" in2="BackgroundImageFix" result="shape"/><feGaussianBlur stdDeviation="7" result="effect1_foregroundBlur_10272_1625"/></filter><filter id="blip-marketing__h" x="78.435" y="374.697" width="282.489" height="125.617" filterUnits="userSpaceOnUse" color-interpolation-filters="sRGB"><feFlood flood-opacity="0" result="BackgroundImageFix"/><feColorMatrix in="SourceAlpha" values="0 0 0 0 0 0 0 0 0 0 0 0 0 0 0 0 0 0 127 0" result="hardAlpha"/><feOffset dy="8.8"/><feGaussianBlur stdDeviation="6.6"/><feColorMatrix values="0 0 0 0 0.374547 0 0 0 0 0.481553 0 0 0 0 0.601935 0 0 0 0.2 0"/><feBlend in2="BackgroundImageFix" result="effect1_dropShadow_10272_1625"/><feBlend in="SourceGraphic" in2="effect1_dropShadow_10272_1625" result="shape"/></filter><filter id="blip-marketing__i" x="78.435" y="488.664" width="282.489" height="125.617" filterUnits="userSpaceOnUse" color-interpolation-filters="sRGB"><feFlood flood-opacity="0" result="BackgroundImageFix"/><feColorMatrix in="SourceAlpha" values="0 0 0 0 0 0 0 0 0 0 0 0 0 0 0 0 0 0 127 0" result="hardAlpha"/><feOffset dy="8.8"/><feGaussianBlur stdDeviation="6.6"/><feColorMatrix values="0 0 0 0 0.374547 0 0 0 0 0.481553 0 0 0 0 0.601935 0 0 0 0.2 0"/><feBlend in2="BackgroundImageFix" result="effect1_dropShadow_10272_1625"/><feBlend in="SourceGraphic" in2="effect1_dropShadow_10272_1625" result="shape"/></filter><filter id="blip-marketing__j" x="321.7" y="267.389" width="347.503" height="100.117" filterUnits="userSpaceOnUse" color-interpolation-filters="sRGB"><feFlood flood-opacity="0" result="BackgroundImageFix"/><feColorMatrix in="SourceAlpha" values="0 0 0 0 0 0 0 0 0 0 0 0 0 0 0 0 0 0 127 0" result="hardAlpha"/><feOffset dy="1.882"/><feGaussianBlur stdDeviation="5.645"/><feColorMatrix values="0 0 0 0 0.374547 0 0 0 0 0.481553 0 0 0 0 0.601935 0 0 0 0.15 0"/><feBlend in2="BackgroundImageFix" result="effect1_dropShadow_10272_1625"/><feBlend in="SourceGraphic" in2="effect1_dropShadow_10272_1625" result="shape"/></filter><radialGradient id="blip-marketing__c" cx="0" cy="0" r="1" gradientUnits="userSpaceOnUse" gradientTransform="translate(547.694 139.982) scale(4.51378)"><stop stop-color="#24292D"/><stop offset="1"/></radialGradient><radialGradient id="blip-marketing__e" cx="0" cy="0" r="1" gradientUnits="userSpaceOnUse" gradientTransform="translate(547.694 139.982) scale(4.16763)"><stop/><stop offset=".18" stop-color="#1A2330"/><stop offset=".49" stop-color="#1A2330"/><stop offset=".56" stop-color="#24292D"/><stop offset=".62" stop-color="#1A2330"/><stop offset=".75" stop-color="#1A2330"/><stop offset=".77" stop-color="#1A2330"/><stop offset=".87" stop-color="#0E131A"/><stop offset=".99"/></radialGradient><linearGradient id="blip-marketing__d" x1="543.069" y1="139.981" x2="552.332" y2="139.981" gradientUnits="userSpaceOnUse"><stop stop-color="#59595C"/><stop offset=".24" stop-color="#59595C"/><stop offset=".6" stop-color="#494C4F"/><stop offset="1" stop-color="#24292D"/></linearGradient><linearGradient id="blip-marketing__g" x1="299.987" y1="998.579" x2="299.987" y2="897.327" gradientUnits="userSpaceOnUse"><stop offset=".21" stop-color="#F5F8F9"/><stop offset="1" stop-color="#fff"/></linearGradient><clipPath id="blip-marketing__a"><path fill="#fff" d="M0 0h1080v1080H0z"/></clipPath></defs></svg>