<svg width="1080" height="1080" viewBox="0 0 1080 1080" fill="none" xmlns="http://www.w3.org/2000/svg">
<g clip-path="url(#clip0_196_27131)">
<path d="M470 991C636.238 991 771 856.014 771 689.5C771 522.986 636.238 388 470 388C303.762 388 169 522.986 169 689.5C169 856.014 303.762 991 470 991Z" fill="#C5D9FB"/>
<path d="M273.5 439C328.452 439 373 394.452 373 339.5C373 284.548 328.452 240 273.5 240C218.548 240 174 284.548 174 339.5C174 394.452 218.548 439 273.5 439Z" fill="#84EBBC"/>
<path d="M591.547 236.634H569.776C565.421 236.634 562 233.213 562 228.858V194.801C562 190.447 565.421 187.025 569.776 187.025H591.547C595.902 187.025 599.323 190.447 599.323 194.801V228.858C599.323 233.213 595.902 236.634 591.547 236.634Z" fill="#0096FA"/>
<path d="M591.547 342.382H569.776C565.421 342.382 562 338.96 562 334.606V265.092C562 260.738 565.421 257.316 569.776 257.316H591.547C595.902 257.316 599.323 260.738 599.323 265.092V334.606C599.323 338.96 595.902 342.382 591.547 342.382Z" fill="#0096FA"/>
<path d="M974.731 388.881H952.959C948.605 388.881 945.184 385.459 945.184 381.105V311.591C945.184 307.237 948.605 303.815 952.959 303.815H974.731C979.085 303.815 982.507 307.237 982.507 311.591V381.105C982.507 385.459 978.93 388.881 974.731 388.881Z" fill="#0096FA"/>
<path d="M905.84 893.913H638.358C609.589 893.913 586.262 870.586 586.262 841.816V144.187C586.262 115.417 609.589 92.0898 638.358 92.0898H905.84C934.61 92.0898 957.937 115.417 957.937 144.187V841.816C957.781 870.586 934.61 893.913 905.84 893.913Z" fill="url(#paint0_linear_196_27131)"/>
<path d="M776.656 299.57C776.656 291.581 770.18 285.105 762.192 285.105H629.844C621.856 285.105 615.38 291.581 615.38 299.57V319.087C615.38 321.75 617.538 323.909 620.201 323.909H762.192C770.18 323.909 776.656 317.433 776.656 309.445V299.57Z" fill="white"/>
<path d="M751.117 352.837C751.117 344.849 757.593 338.373 765.581 338.373H912.481C920.469 338.373 926.945 344.849 926.945 352.837V372.355C926.945 375.018 924.786 377.176 922.123 377.176H765.581C757.593 377.176 751.117 370.701 751.117 362.712V352.837Z" fill="#B2DFFD"/>
<path d="M751.115 482.412C751.115 474.424 757.591 467.948 765.579 467.948H912.479C920.467 467.948 926.943 474.424 926.943 482.412V501.93C926.943 504.593 924.784 506.752 922.122 506.752H765.579C757.591 506.752 751.115 500.276 751.115 492.287V482.412Z" fill="#B2DFFD"/>
<path d="M834.859 406.105C834.859 398.116 828.384 391.641 820.395 391.641H629.842C621.854 391.641 615.378 398.116 615.378 406.105V448.662C615.378 451.325 617.536 453.483 620.199 453.483H820.395C828.384 453.483 834.859 447.008 834.859 439.019V406.105Z" fill="white"/>
<path d="M585.789 121.899C585.789 101.682 601.132 85.293 620.058 85.293H927.046C945.972 85.293 961.315 101.682 961.315 121.899V134.57H585.789V121.899Z" fill="url(#paint1_linear_196_27131)"/>
<path d="M961.314 851.777C961.314 871.994 945.972 888.383 927.045 888.383L620.058 888.383C601.131 888.383 585.788 871.994 585.788 851.777L585.788 839.106L961.314 839.106L961.314 851.777Z" fill="url(#paint2_linear_196_27131)"/>
<path d="M957.917 134.774H585.789V187.003H957.917V134.774Z" fill="#0096FA"/>
<path d="M935.698 159.104L941.353 153.435C941.492 153.26 941.562 153.04 941.549 152.817C941.536 152.594 941.441 152.383 941.282 152.226C941.123 152.068 940.912 151.975 940.689 151.964C940.465 151.953 940.246 152.025 940.072 152.165L934.414 157.82L928.756 152.165C928.677 152.066 928.577 151.984 928.464 151.926C928.351 151.867 928.227 151.833 928.1 151.826C927.973 151.818 927.846 151.838 927.727 151.883C927.608 151.928 927.499 151.997 927.409 152.087C927.319 152.177 927.248 152.284 927.202 152.403C927.156 152.522 927.135 152.649 927.142 152.776C927.148 152.903 927.181 153.027 927.239 153.141C927.296 153.255 927.377 153.355 927.476 153.435L933.13 159.093L927.476 164.762C927.35 164.889 927.264 165.05 927.23 165.226C927.196 165.401 927.214 165.583 927.282 165.748C927.351 165.913 927.467 166.055 927.616 166.154C927.764 166.253 927.939 166.307 928.118 166.307C928.237 166.308 928.354 166.285 928.464 166.239C928.573 166.194 928.673 166.127 928.756 166.042L934.414 160.384L940.072 166.042C940.156 166.127 940.255 166.194 940.365 166.239C940.474 166.285 940.592 166.308 940.711 166.307C940.89 166.307 941.064 166.253 941.213 166.154C941.362 166.055 941.477 165.913 941.546 165.748C941.615 165.583 941.633 165.401 941.599 165.226C941.564 165.05 941.479 164.889 941.353 164.762L935.698 159.104Z" fill="white"/>
<path d="M607.379 164.79C607.288 164.79 607.198 164.769 607.116 164.73C607.033 164.691 606.96 164.634 606.902 164.564L602.533 159.36C602.34 159.131 602.234 158.841 602.234 158.542C602.234 158.243 602.34 157.953 602.533 157.725L606.902 152.52C607.012 152.397 607.165 152.322 607.33 152.31C607.494 152.298 607.656 152.351 607.783 152.457C607.909 152.563 607.989 152.713 608.006 152.877C608.023 153.041 607.976 153.205 607.874 153.335L603.505 158.542L607.867 163.749C607.945 163.842 607.995 163.955 608.011 164.075C608.027 164.195 608.008 164.317 607.957 164.426C607.906 164.536 607.824 164.628 607.722 164.693C607.619 164.757 607.5 164.791 607.379 164.79V164.79Z" fill="white"/>
<path fill-rule="evenodd" clip-rule="evenodd" d="M636.076 176.567C639.304 176.564 642.458 175.605 645.141 173.811C647.824 172.016 649.914 169.466 651.148 166.484C652.382 163.502 652.705 160.22 652.075 157.055C651.444 153.889 649.89 150.982 647.608 148.699C645.325 146.417 642.418 144.862 639.252 144.232C636.086 143.602 632.805 143.924 629.823 145.158C626.84 146.393 624.291 148.483 622.496 151.166C620.701 153.849 619.742 157.003 619.74 160.231C619.749 164.561 621.473 168.71 624.535 171.772C627.596 174.834 631.746 176.558 636.076 176.567V176.567Z" fill="#2C2A46"/>
<g clip-path="url(#clip1_196_27131)">
<path fill-rule="evenodd" clip-rule="evenodd" d="M640.471 167.797C639.214 167.948 637.793 167.997 636.206 167.997C634.62 167.997 633.198 167.948 631.942 167.797L631.941 167.799L629.782 170.922C629.657 171.095 629.47 171.183 629.283 171.183C629.095 171.183 628.908 171.1 628.789 170.933C627.634 169.334 626.463 167.266 625.699 164.77C625.409 163.825 625.178 162.82 625.028 161.758C624.897 160.946 624.831 160.03 624.83 158.998C624.83 150.881 629.46 148.28 636.206 148.28C642.944 148.28 647.57 150.874 647.582 158.966C647.582 158.976 647.582 158.987 647.582 158.998C647.582 159.026 647.582 159.054 647.582 159.081C647.579 160.022 647.52 160.865 647.407 161.621C646.879 165.552 645.235 168.703 643.624 170.933C643.379 171.272 642.869 171.267 642.63 170.922L640.471 167.799C640.471 167.798 640.471 167.798 640.471 167.797Z" fill="#0096FA"/>
<path d="M625.865 165.292C626.666 167.7 627.857 169.643 628.789 170.933C629.033 171.272 629.543 171.267 629.782 170.922L631.941 167.799C628.981 167.538 626.77 166.676 625.865 165.292Z" fill="url(#paint3_linear_196_27131)"/>
<path d="M646.529 165.292C645.728 167.7 644.537 169.643 643.606 170.933C643.361 171.272 642.852 171.267 642.612 170.922L640.454 167.799C643.414 167.538 645.624 166.676 646.529 165.292Z" fill="url(#paint4_linear_196_27131)"/>
<path fill-rule="evenodd" clip-rule="evenodd" d="M638.957 163.022L640.115 163.022C640.11 163.392 639.853 163.69 639.536 163.69C639.22 163.69 638.962 163.392 638.957 163.022Z" fill="black"/>
<path fill-rule="evenodd" clip-rule="evenodd" d="M633.543 163.022L632.385 163.022C632.39 163.392 632.647 163.69 632.964 163.69C633.28 163.69 633.538 163.392 633.543 163.022Z" fill="black"/>
<path fill-rule="evenodd" clip-rule="evenodd" d="M627.287 155.565L627.162 154.598L630.098 154.521L629.691 155.701C629.563 156.074 629.206 156.319 628.813 156.304L628.067 156.276C627.668 156.262 627.338 155.961 627.287 155.565ZM632.966 155.565L633.092 154.598L630.156 154.521L630.562 155.701C630.69 156.074 631.047 156.319 631.441 156.304L632.187 156.276C632.586 156.262 632.915 155.961 632.966 155.565ZM629.214 161.161C629.007 161.161 628.84 161.33 628.84 161.538C628.84 161.747 629.007 161.916 629.214 161.916H643.041C643.248 161.916 643.416 161.747 643.416 161.538C643.416 161.33 643.248 161.161 643.041 161.161H629.214Z" fill="#0035B5"/>
<path fill-rule="evenodd" clip-rule="evenodd" d="M640.656 163.516L640.766 161.887L641.67 161.948L641.56 163.578L640.656 163.516Z" fill="#0065FF"/>
</g>
<path d="M651.578 154.46C654.102 154.46 656.148 152.414 656.148 149.89C656.148 147.366 654.102 145.32 651.578 145.32C649.054 145.32 647.008 147.366 647.008 149.89C647.008 152.414 649.054 154.46 651.578 154.46Z" fill="#90E6BC"/>
<path fill-rule="evenodd" clip-rule="evenodd" d="M651.575 145.909C649.376 145.909 647.594 147.692 647.594 149.89C647.594 152.089 649.376 153.871 651.575 153.871C653.774 153.871 655.556 152.089 655.556 149.89C655.556 147.692 653.774 145.909 651.575 145.909ZM646.416 149.89C646.416 147.041 648.726 144.731 651.575 144.731C654.424 144.731 656.734 147.041 656.734 149.89C656.734 152.739 654.424 155.049 651.575 155.049C648.726 155.049 646.416 152.739 646.416 149.89Z" fill="#2CC3D5"/>
<path d="M658.576 160.534C658.576 158.786 659.993 157.369 661.741 157.369H741.919C743.667 157.369 745.084 158.786 745.084 160.534V160.534C745.084 162.282 743.667 163.699 741.919 163.699H661.741C659.993 163.699 658.576 162.282 658.576 160.534V160.534Z" fill="white"/>
<path d="M777.627 117.578H733.795C728.045 117.578 723.426 113.793 723.426 109.082C723.426 104.371 728.045 100.586 733.795 100.586H777.627C783.377 100.586 787.996 104.371 787.996 109.082C787.996 113.793 783.377 117.578 777.627 117.578Z" fill="#0096FA"/>
<path d="M808.175 114.64C811.181 114.64 813.618 112.203 813.618 109.197C813.618 106.191 811.181 103.754 808.175 103.754C805.169 103.754 802.732 106.191 802.732 109.197C802.732 112.203 805.169 114.64 808.175 114.64Z" fill="#F5F5F5"/>
<path fill-rule="evenodd" clip-rule="evenodd" d="M635.867 903.703H908.014C942.538 903.703 970.375 875.866 970.219 841.498V132.205C970.219 97.8367 942.382 70 908.014 70H635.867C601.499 70 573.662 97.8367 573.662 132.205V841.498C573.662 875.866 601.499 903.703 635.867 903.703ZM638.359 887.685H905.84C934.61 887.685 957.781 864.359 957.937 835.589V137.959C957.937 109.189 934.61 85.8626 905.84 85.8626H638.359C609.589 85.8626 586.262 109.189 586.262 137.959V835.589C586.262 864.359 609.589 887.685 638.359 887.685Z" fill="url(#paint5_linear_196_27131)"/>
<g opacity="0.1" filter="url(#filter0_f_196_27131)">
<path d="M763 1055C763 1060.52 739.047 1065 709.5 1065C679.953 1065 656 1060.52 656 1055C656 1049.48 679.953 1045 709.5 1045C739.047 1045 763 1049.48 763 1055Z" fill="#0A0F1A"/>
</g>
<path d="M706.322 1001.58L706.322 954.993L678.686 954.993L678.686 1001.58L706.322 1001.58Z" fill="#8C3A03"/>
<path d="M713.278 955.089L676.225 1001.34C678.55 1004.21 680.566 1020.29 672.519 1031.78C657.272 1053.7 673.932 1053.31 673.932 1053.31L734.981 977.105L713.278 955.089Z" fill="url(#paint6_linear_196_27131)"/>
<path d="M873.357 767.858H727.002C706.045 767.858 689.032 784.881 689.032 805.85C689.032 805.963 689.032 806.076 689.032 806.189L661.316 969.995H737.254L759.224 840.01H857.021C861.978 842.377 938.845 843.73 944.703 843.73C965.66 843.73 911.439 826.707 911.439 805.738C911.326 784.881 894.314 767.858 873.357 767.858Z" fill="url(#paint7_linear_196_27131)"/>
<path d="M744.932 919.793L688.48 901.766C686.628 904.966 672.34 912.608 658.624 909.176C632.698 902.793 639.032 918.206 639.032 918.206L732.044 947.908L744.932 919.793Z" fill="#072F73"/>
<path d="M678.16 898.469L750.634 921.612L826.117 773.546L753.642 750.403L678.16 898.469Z" fill="#0096FA"/>
<path d="M778.411 797.888C798.424 804.279 819.829 793.236 826.22 773.223C832.611 753.209 821.567 731.805 801.554 725.414C781.541 719.024 760.136 730.066 753.745 750.08C747.354 770.093 758.398 791.498 778.411 797.888Z" fill="#0096FA"/>
<path d="M923.934 840.391C953.76 849.915 985.657 833.458 995.181 803.633C1004.71 773.807 988.249 741.908 958.424 732.384C928.598 722.86 896.699 739.318 887.175 769.144C877.651 798.969 894.109 830.867 923.934 840.391Z" fill="#0096FA"/>
<path d="M946.522 767.647L801.557 725.414L779.581 794.232L919.261 838.835L946.522 767.647Z" fill="#0096FA"/>
<path d="M995.871 801.206L1004.53 721.471H927.148L995.871 801.206Z" fill="#0096FA"/>
<path d="M879.286 593.434H960.332C965.304 593.434 969.378 589.361 969.378 584.388V523.128C969.378 518.155 965.304 514.082 960.332 514.082H879.286C874.314 514.082 870.24 518.155 870.24 523.128V584.388C870.24 589.361 874.314 593.434 879.286 593.434Z" fill="#141414"/>
<path d="M863.415 609.94H923.406C928.378 609.94 932.452 605.866 932.452 600.894V556.509C932.452 551.536 928.378 547.463 923.406 547.463H863.415C858.443 547.463 854.369 551.536 854.369 556.509V600.894C854.369 605.919 858.39 609.94 863.415 609.94Z" fill="#141414"/>
<path d="M922.349 615.547H982.339C987.312 615.547 991.385 611.474 991.385 606.501V562.117C991.385 557.144 987.312 553.07 982.339 553.07H922.349C917.376 553.07 913.303 557.144 913.303 562.117V606.501C913.303 611.527 917.323 615.547 922.349 615.547Z" fill="#141414"/>
<path d="M889.602 498H940.123L943.985 501.862V596.926H906.636V581.69H889.602C888.121 580.209 887.274 579.363 885.74 577.828V501.862L889.602 498Z" fill="#8C3A03"/>
<path d="M940.123 498L943.985 501.862L944.249 545.4L943.932 545.611L905.42 506.887L885.74 530.587V501.862L889.602 498H940.123Z" fill="#141414"/>
<path d="M948.586 560.795H938.006V544.236H952.342V557.091C952.342 559.155 950.649 560.795 948.586 560.795Z" fill="#8C3A03"/>
<path d="M935.309 581.002H943.985V560.794H935.309V581.002Z" fill="url(#paint8_linear_196_27131)"/>
<path d="M919.809 581.638H906.637V586.928H919.809V581.638Z" fill="url(#paint9_linear_196_27131)"/>
<path fill-rule="evenodd" clip-rule="evenodd" d="M901.018 539.169C901.537 539.397 901.774 540.002 901.547 540.522L893.659 558.551H901.453C902.02 558.551 902.479 559.011 902.479 559.578C902.479 560.145 902.02 560.604 901.453 560.604H892.089C891.743 560.604 891.42 560.43 891.23 560.14C891.04 559.85 891.01 559.484 891.149 559.166L899.666 539.698C899.893 539.179 900.498 538.942 901.018 539.169Z" fill="#141414"/>
<path d="M1017.65 645.392C1015.12 631.101 1004.94 619.393 991.176 614.911L943.918 599.354V587.225H906.734V599.354L900.722 601.358L859.477 614.911C845.711 619.446 835.532 631.154 833 645.392L839.531 727.378V738.827L999.03 782.255L1027.06 696.979L1017.65 645.392Z" fill="#35DE90"/>
<path d="M977.584 731.721H1033.11L1026.15 692.241H970.729L977.584 731.721Z" fill="#8C3A03"/>
<path d="M1001.4 768.042C1019.06 768.042 1033.38 753.548 1033.38 735.668C1033.38 717.789 1019.06 703.295 1001.4 703.295C983.737 703.295 969.42 717.789 969.42 735.668C969.42 753.548 983.737 768.042 1001.4 768.042Z" fill="#8C3A03"/>
<path d="M964.614 660.657L977.834 731.721H914.666L964.614 660.657Z" fill="url(#paint10_linear_196_27131)"/>
<path d="M1014.16 731.72L976.069 705.953L938.248 680.396L911.508 719.074L987.975 765.673L1014.16 731.72Z" fill="#8C3A03"/>
<path d="M970.729 695.399L972.26 703.733L1013.51 731.721H1033.11L1030.84 718.67L970.729 695.399Z" fill="url(#paint11_linear_196_27131)"/>
<path d="M938.356 680.585L879.948 674.08L853.298 682.421L837.287 694.276L841.869 698.734L852.034 694.38L840.816 705.186L846.82 709.226L871.784 693.384L856.089 711.166L860.829 714.628L879.79 702.196L868.203 714.891L872.311 718.248L890.955 706.235L912.075 719.087L938.356 680.585Z" fill="#8C3A03"/>
<path d="M906.79 726.012H780.725C778.133 726.012 776.176 728.392 776.652 730.932L777.445 735.005C777.816 736.962 779.508 738.338 781.519 738.338H907.583C910.175 738.338 912.133 735.957 911.657 733.418L910.863 729.345C910.493 727.387 908.8 726.012 906.79 726.012Z" fill="#072F73"/>
<path d="M699.575 645.654H838.494C840.452 645.654 842.144 647.03 842.568 648.987L858.967 733.418C859.443 735.957 857.486 738.338 854.894 738.338H715.974C714.017 738.338 712.324 736.962 711.901 735.005L695.501 650.574C695.025 648.035 696.983 645.654 699.575 645.654Z" fill="#0C4EC0"/>
<g filter="url(#filter1_d_196_27131)">
<path d="M802 275.075C802 259.017 788.99 246 772.942 246H507.058C491.01 246 478 259.017 478 275.075V314.308C478 319.661 482.337 324 487.686 324H772.942C788.99 324 802 310.983 802 294.925V275.075Z" fill="white"/>
</g>
<rect x="517" y="274" width="193" height="16" rx="4" fill="#B2DFFD"/>
</g>
<defs>
<filter id="filter0_f_196_27131" x="640" y="1029" width="139" height="52" filterUnits="userSpaceOnUse" color-interpolation-filters="sRGB">
<feFlood flood-opacity="0" result="BackgroundImageFix"/>
<feBlend mode="normal" in="SourceGraphic" in2="BackgroundImageFix" result="shape"/>
<feGaussianBlur stdDeviation="8" result="effect1_foregroundBlur_196_27131"/>
</filter>
<filter id="filter1_d_196_27131" x="470" y="240" width="340" height="94" filterUnits="userSpaceOnUse" color-interpolation-filters="sRGB">
<feFlood flood-opacity="0" result="BackgroundImageFix"/>
<feColorMatrix in="SourceAlpha" type="matrix" values="0 0 0 0 0 0 0 0 0 0 0 0 0 0 0 0 0 0 127 0" result="hardAlpha"/>
<feOffset dy="2"/>
<feGaussianBlur stdDeviation="4"/>
<feColorMatrix type="matrix" values="0 0 0 0 0 0 0 0 0 0 0 0 0 0 0 0 0 0 0.15 0"/>
<feBlend mode="normal" in2="BackgroundImageFix" result="effect1_dropShadow_196_27131"/>
<feBlend mode="normal" in="SourceGraphic" in2="effect1_dropShadow_196_27131" result="shape"/>
</filter>
<linearGradient id="paint0_linear_196_27131" x1="450.884" y1="-152.002" x2="977.511" y2="978.407" gradientUnits="userSpaceOnUse">
<stop stop-color="white"/>
<stop offset="0.147721" stop-color="#F7FAFE"/>
<stop offset="0.304044" stop-color="#E2ECFD"/>
<stop offset="0.677979" stop-color="#FAFCFF"/>
<stop offset="0.967346" stop-color="#C5D9FB"/>
</linearGradient>
<linearGradient id="paint1_linear_196_27131" x1="806.687" y1="141.367" x2="774.402" y2="61.504" gradientUnits="userSpaceOnUse">
<stop stop-color="#0D4FC1"/>
<stop offset="0.482673" stop-color="#135CD8"/>
<stop offset="1" stop-color="#1A69F1"/>
</linearGradient>
<linearGradient id="paint2_linear_196_27131" x1="740.417" y1="832.309" x2="772.702" y2="912.172" gradientUnits="userSpaceOnUse">
<stop stop-color="#0D4FC1"/>
<stop offset="0.482673" stop-color="#135CD8"/>
<stop offset="1" stop-color="#1A69F1"/>
</linearGradient>
<linearGradient id="paint3_linear_196_27131" x1="632.069" y1="167.232" x2="626.139" y2="168.556" gradientUnits="userSpaceOnUse">
<stop offset="0.0105566" stop-color="#0012FF" stop-opacity="0.2"/>
<stop offset="0.5203" stop-color="#0012FF" stop-opacity="0"/>
</linearGradient>
<linearGradient id="paint4_linear_196_27131" x1="640.326" y1="167.232" x2="646.256" y2="168.556" gradientUnits="userSpaceOnUse">
<stop offset="0.0105566" stop-color="#0012FF" stop-opacity="0.2"/>
<stop offset="0.5203" stop-color="#0012FF" stop-opacity="0"/>
</linearGradient>
<linearGradient id="paint5_linear_196_27131" x1="515.198" y1="243.425" x2="1119.23" y2="815.829" gradientUnits="userSpaceOnUse">
<stop stop-color="#1968F0"/>
<stop offset="0.2912" stop-color="#125BD8"/>
<stop offset="0.5885" stop-color="#0E51C6"/>
<stop offset="0.8048" stop-color="#0C4EC0"/>
</linearGradient>
<linearGradient id="paint6_linear_196_27131" x1="655.849" y1="1009.06" x2="748.418" y2="997.199" gradientUnits="userSpaceOnUse">
<stop offset="0.2603" stop-color="#072F73"/>
<stop offset="0.3664" stop-color="#072C6D"/>
<stop offset="0.5132" stop-color="#06255B"/>
<stop offset="0.6836" stop-color="#04193D"/>
<stop offset="0.8706" stop-color="#010915"/>
<stop offset="0.9558"/>
</linearGradient>
<linearGradient id="paint7_linear_196_27131" x1="671" y1="796.679" x2="876.558" y2="941.644" gradientUnits="userSpaceOnUse">
<stop offset="0.0262009" stop-color="#0096FA"/>
<stop offset="0.641" stop-color="#1968F0"/>
</linearGradient>
<linearGradient id="paint8_linear_196_27131" x1="931.52" y1="572.89" x2="954.78" y2="567.211" gradientUnits="userSpaceOnUse">
<stop stop-color="#8C3A03" stop-opacity="0.2"/>
<stop offset="0.9375" stop-color="#763103"/>
</linearGradient>
<linearGradient id="paint9_linear_196_27131" x1="918.792" y1="592.422" x2="907.4" y2="575.778" gradientUnits="userSpaceOnUse">
<stop stop-color="#8C3A03" stop-opacity="0.13"/>
<stop offset="1" stop-color="#642901"/>
</linearGradient>
<linearGradient id="paint10_linear_196_27131" x1="929.142" y1="687.087" x2="985.986" y2="737.13" gradientUnits="userSpaceOnUse">
<stop offset="0.1453" stop-color="#35DE90"/>
<stop offset="0.652544" stop-color="#1BA766"/>
</linearGradient>
<linearGradient id="paint11_linear_196_27131" x1="1011.82" y1="691.354" x2="986.898" y2="748.129" gradientUnits="userSpaceOnUse">
<stop offset="0.2814" stop-color="#F8BC9A" stop-opacity="0"/>
<stop offset="0.297" stop-color="#8C3A03"/>
<stop offset="0.7905" stop-color="#732F02"/>
</linearGradient>
<clipPath id="clip0_196_27131">
<rect width="1080" height="1080" fill="white"/>
</clipPath>
<clipPath id="clip1_196_27131">
<rect width="22.7521" height="22.9037" fill="white" transform="translate(624.83 148.28)"/>
</clipPath>
</defs>
</svg>
