<svg width="1079" height="1094" fill="none" xmlns="http://www.w3.org/2000/svg"><g opacity=".06" filter="url(#blip-sales-1__a)"><path d="M458.179 1047.4c0 18.01-72.353 32.6-161.604 32.6-89.252 0-161.604-14.59-161.604-32.6 0-18 72.352-32.59 161.604-32.59 89.251 0 161.604 14.59 161.604 32.59Z" fill="#0A0F1A"/></g><path d="M898.49 700.004S704.162 958.593 484.625 993.78c-219.537 35.19-320.449-59.415-312.878-160.62 7.57-101.204 40.349-173.822-25.209-253.043-65.559-79.22-156.477-143.059-90.843-338.931C121.329 45.313 302.939-16.281 419.067 3.524 535.194 23.33 545.187 133.38 681.451 161.965c136.265 28.585 307.883-24.162 353.299 118.831 45.43 142.993-45.417 312.128-136.26 419.208Z" fill="#B9CBD3" style="mix-blend-mode:luminosity" opacity=".16"/><g opacity=".06" filter="url(#blip-sales-1__b)"><path d="M871.1 932.392c0 16.304-126.273 29.521-282.039 29.521s-282.04-13.217-282.04-29.521c0-16.305 126.274-29.522 282.04-29.522 155.766 0 282.039 13.217 282.039 29.522Z" fill="#0A0F1A"/></g><path d="M371.604 126.857c0-37.045 30.004-67.077 67.015-67.077h300.655c37.012 0 67.015 30.032 67.015 67.077v741.101c0 37.045-30.003 67.077-67.015 67.077H438.62c-37.012 0-67.016-30.032-67.016-67.077V126.857Z" fill="#0A0F1A"/><path d="M398.457 121.566c0-20.207 16.366-36.588 36.554-36.588h308.581c20.188 0 36.553 16.381 36.553 36.588v749.598c0 20.206-16.365 36.587-36.553 36.587H435.011c-20.188 0-36.554-16.38-36.554-36.587V121.566Z" fill="#F5F8F9"/><path d="M779.643 873.278c0 18.915-15.32 34.249-34.218 34.249H432.048c-18.897 0-34.217-15.334-34.217-34.249v-22.07h381.812v22.07Z" fill="#F8FBFB"/><path fill-rule="evenodd" clip-rule="evenodd" d="M779.642 851.778H397.831v-1.141h381.811v1.141Z" fill="#D2DFE6"/><path fill-rule="evenodd" clip-rule="evenodd" d="M430.655 868.641c-2.252 0-4.454.668-6.327 1.921a11.396 11.396 0 0 0-4.842 11.7 11.403 11.403 0 0 0 3.117 5.836 11.375 11.375 0 0 0 17.52-1.727 11.406 11.406 0 0 0-1.416-14.392 11.38 11.38 0 0 0-8.052-3.338Zm0 21.542a10.05 10.05 0 0 1-7.117-2.964 9.791 9.791 0 0 1-1.836-2.479 10.166 10.166 0 0 1 2.037-12.117 10.149 10.149 0 0 1 12.208-1.289 10.166 10.166 0 0 1 .876 16.785 10.153 10.153 0 0 1-6.14 2.064h-.028Z" fill="#2CC3D5"/><path fill-rule="evenodd" clip-rule="evenodd" d="M426.937 878.727a1.243 1.243 0 0 0 .895-2.111 1.238 1.238 0 1 0-1.761 1.742c.229.232.54.365.866.369Zm7.618 0a1.24 1.24 0 1 0-.002-2.48 1.24 1.24 0 0 0 .002 2.48Zm-4.57 6.34a5.9 5.9 0 0 1-4.271-2.636l-1.025.67a7.131 7.131 0 0 0 5.125 3.191c.265.014.531.014.797 0 1.184 0 2.35-.296 3.392-.86a7.129 7.129 0 0 0 2.572-2.374l-1.039-.67a5.882 5.882 0 0 1-5.551 2.679Z" fill="#2CC3D5"/><path d="M398.486 118.967c0-18.915 15.32-34.249 34.217-34.249h313.256c18.898 0 34.217 15.334 34.217 34.249v12.684h-381.69v-12.684Z" fill="#2498A8"/><path d="M780.298 131.208H398.486v53.637h381.812v-53.637Z" fill="#2CC3D5"/><path d="m757.5 157.805 5.802-5.822a.932.932 0 0 0-1.314-1.303l-5.805 5.807-5.806-5.807a.915.915 0 0 0-.673-.349.926.926 0 0 0-.983.975.92.92 0 0 0 .343.677l5.801 5.811-5.801 5.822a.937.937 0 0 0-.253.476.94.94 0 0 0 .054.537.94.94 0 0 0 .857.574.917.917 0 0 0 .655-.272l5.806-5.811 5.805 5.811a.918.918 0 0 0 1.17.114.926.926 0 0 0 .396-.953.928.928 0 0 0-.252-.476l-5.802-5.811Zm-336.867 6.974a.65.65 0 0 1-.489-.232l-4.483-5.345a1.305 1.305 0 0 1 0-1.68l4.483-5.345a.649.649 0 0 1 .903-.064c.13.108.212.263.229.431a.646.646 0 0 1-.135.47l-4.483 5.348 4.476 5.348a.651.651 0 0 1-.501 1.069Z" fill="#fff"/><path d="M482.407 84.718h212.55v3.34c0 15.92-12.894 28.826-28.799 28.826H511.207c-15.906 0-28.8-12.906-28.8-28.826v-3.34Z" fill="#1A2437"/><path d="M607.199 96.53h-64.261a2.836 2.836 0 0 0-2.835 2.837 2.837 2.837 0 0 0 2.835 2.838h64.261a2.837 2.837 0 0 0 0-5.676Zm30.678 4.009a4.04 4.04 0 0 1-2.477 3.753 4.03 4.03 0 0 1-4.409-.87 4.038 4.038 0 0 1 2.881-6.893 4.003 4.003 0 0 1 4.005 4.01Z" opacity=".2" fill="#F8FBFB"/><g filter="url(#blip-sales-1__c)"><path d="M675.825 647.164c0-8.507 6.89-15.402 15.388-15.402h55.378c8.499 0 15.388 6.895 15.388 15.402v21.644a4.948 4.948 0 0 1-4.946 4.951h-65.82c-8.498 0-15.388-6.896-15.388-15.403v-11.192Z" fill="#fff"/></g><path d="M731.321 656.29c1.793-6.865-2.314-13.885-9.172-15.679-6.858-1.795-13.872 2.315-15.664 9.18-1.793 6.865 2.313 13.884 9.171 15.679 6.859 1.794 13.872-2.316 15.665-9.18Z" fill="#F9B42F"/><path d="M714.744 650.689c0 .87-.593 1.576-1.32 1.576-.726 0-1.317-.706-1.317-1.576 0-.87.594-1.576 1.317-1.576.724 0 1.32.706 1.32 1.576Zm10.521 1.589a.415.415 0 0 1-.296-.11c-.86-.793-2.127-.172-2.141-.163a.42.42 0 0 1-.537-.594 3.36 3.36 0 0 1 3.013-1.508.422.422 0 0 1 .245.735.422.422 0 0 1-.304.102 2.471 2.471 0 0 0-1.142.202 2.331 2.331 0 0 1 1.432.617.422.422 0 0 1 .024.594.411.411 0 0 1-.294.125Zm-5.477 9.124a6.297 6.297 0 0 1-3.855-1.32.633.633 0 0 1-.088-.863.631.631 0 0 1 .856-.132 5.032 5.032 0 0 0 5.364.5 5.043 5.043 0 0 0 2.753-4.635.63.63 0 1 1 1.258-.038 6.3 6.3 0 0 1-6.098 6.485l-.19.003Z" fill="#2C2A46"/><path d="M608.154 803.859c0-8.545-6.92-15.472-15.457-15.472H432.334c-8.537 0-15.457 6.927-15.457 15.472v21.623a5.155 5.155 0 0 0 5.152 5.157h170.668c8.537 0 15.457-6.927 15.457-15.472v-11.308Z" fill="#D2DFE6"/><path d="M523.121 714.121c0-8.545 6.921-15.472 15.458-15.472h207.852c8.537 0 15.457 6.927 15.457 15.472v46.71a5.155 5.155 0 0 1-5.152 5.158H538.579c-8.537 0-15.458-6.927-15.458-15.472v-36.396Z" fill="#DEE8EC"/><path d="M574.703 902.924a.676.676 0 0 0 .478-1.157.677.677 0 1 0-.478 1.157Z" fill="#DF638D"/><rect x="478" y="155" width="58" height="9" rx="4.5" fill="#fff"/><g filter="url(#blip-sales-1__d)"><path d="M579.099 538.907c0-7.207 5.837-13.05 13.037-13.05h302.172c7.201 0 13.038 5.843 13.038 13.05v62.745a2.61 2.61 0 0 1-2.608 2.61H592.136c-7.2 0-13.037-5.843-13.037-13.05v-52.305Z" fill="#fff"/></g><path fill-rule="evenodd" clip-rule="evenodd" d="M771.521 555.347a4.08 4.08 0 0 0-4.078-4.081H610.314a4.08 4.08 0 0 0-4.078 4.081 4.08 4.08 0 0 0 4.078 4.081h157.129a4.08 4.08 0 0 0 4.078-4.081Zm0 19.6a4.08 4.08 0 0 0-4.078-4.081H661.381a4.079 4.079 0 0 0-4.077 4.081 4.079 4.079 0 0 0 4.077 4.081h106.062a4.08 4.08 0 0 0 4.078-4.081Z" fill="#D2DFE6"/><path fill-rule="evenodd" clip-rule="evenodd" d="M450.524 174.731a16.734 16.734 0 0 0 9.301-2.83 16.775 16.775 0 0 0 2.531-25.789 16.73 16.73 0 0 0-18.247-3.636 16.75 16.75 0 0 0-7.518 6.169 16.776 16.776 0 0 0-2.827 9.31 16.819 16.819 0 0 0 4.919 11.852 16.787 16.787 0 0 0 11.841 4.924Z" fill="#F6A721"/><path d="M458.726 154.846a.649.649 0 0 0-.139-.548.677.677 0 0 0-.52-.242h-15.169l-.023-.104c-.24-1.111-1.255-1.916-2.414-1.916h-1.147a.666.666 0 0 0-.673.659c0 .364.301.659.673.659h1.147c.527 0 .988.366 1.098.87l1.999 9.251c.189.874.859 1.557 1.701 1.809a1.922 1.922 0 0 0-.158.766c0 1.09.906 1.977 2.019 1.977s2.019-.887 2.019-1.977c0-.231-.041-.453-.116-.659h3.013a1.923 1.923 0 0 0-.116.659c0 1.09.906 1.977 2.019 1.977s2.019-.887 2.019-1.977c0-.231-.041-.453-.116-.659h.161a.666.666 0 0 0 .673-.659.666.666 0 0 0-.673-.659h-10.031a1.12 1.12 0 0 1-1.097-.871l-.173-.799h11.916a.67.67 0 0 0 .66-.528l.707-3.432a.613.613 0 0 0 .034-.166l.707-3.431Zm-10.933 11.204a.667.667 0 0 1-.673.659.667.667 0 0 1-.673-.659c0-.364.302-.659.673-.659.371 0 .673.295.673.659Zm6.819 0a.667.667 0 0 1-.673.659.667.667 0 0 1-.673-.659c0-.364.302-.659.673-.659.371 0 .673.295.673.659Zm2.18-8.479h-3.167l.28-2.197h3.339l-.452 2.197Zm-8.091 3.514-.28-2.196h3.679l-.28 2.196h-3.119Zm-.449-3.514-.28-2.197h4.577l-.281 2.197h-4.016Zm-1.637-2.197.281 2.197h-3.238l-.475-2.197h3.432Zm-2.672 3.515h3.121l.281 2.196h-2.928l-.474-2.196Zm9.233 2.196.28-2.196h3.064l-.452 2.196h-2.892Z" fill="#fff"/><path d="M465.938 152.306a5.55 5.55 0 0 0 5.547-5.552 5.55 5.55 0 0 0-5.547-5.552 5.549 5.549 0 0 0-5.547 5.552 5.55 5.55 0 0 0 5.547 5.552Z" fill="#90E6BC"/><path fill-rule="evenodd" clip-rule="evenodd" d="M465.938 141.86a4.892 4.892 0 0 0-4.89 4.894 4.892 4.892 0 0 0 4.89 4.894c2.7 0 4.889-2.191 4.889-4.894a4.892 4.892 0 0 0-4.889-4.894Zm-6.206 4.894a6.209 6.209 0 0 1 6.206-6.211 6.208 6.208 0 0 1 6.205 6.211 6.208 6.208 0 0 1-6.205 6.211 6.209 6.209 0 0 1-6.206-6.211Z" fill="#2CC3D5"/><g filter="url(#blip-sales-1__e)"><path d="M683.686 322.362v139.376c0 9.386-7.605 16.998-16.983 16.998H479.894c-9.378 0-16.983-7.612-16.983-16.998 0-131.762-.011-107.08.037-139.376h220.738Z" fill="#fff"/></g><path d="M684.166 322.362v32.189c0 6.967-5.579 12.738-12.538 12.766H475.925c-6.958-.031-12.533-5.802-12.533-12.766 0-9.287-.007-2.772.037-32.189h220.737Z" fill="#D2DFE6" fill-opacity=".4"/><path d="M696.662 322.362c0 17.008-13.779 30.81-30.781 30.81-16.999 0-30.781-13.795-30.781-30.81 0 17.015-13.782 30.81-30.781 30.81s-30.781-13.795-30.781-30.81c0 17.015-13.783 30.81-30.781 30.81-16.999 0-30.781-13.795-30.781-30.81-.027 16.903-13.926 30.81-30.781 30.81-16.835 0-30.755-13.889-30.781-30.81 0-26.776-.073-25.129.186-26.358.254-1.206-1.511 3.065 25.192-58.623a8.498 8.498 0 0 1 7.791-5.121h179.91a8.5 8.5 0 0 1 7.791 5.121c26.723 61.734 24.937 57.416 25.192 58.623.259 1.227.186-.447.186 26.358Z" fill="#2D91AF"/><path d="M696.652 322.362c0 17.007-13.778 30.81-30.781 30.81-16.998 0-30.781-13.796-30.781-30.81 0 17.014-13.782 30.81-30.781 30.81-16.998 0-30.781-13.796-30.781-30.81 0 17.014-13.782 30.81-30.781 30.81-16.998 0-30.781-13.796-30.781-30.81-.026 16.903-13.925 30.81-30.781 30.81-16.834 0-30.754-13.89-30.781-30.81v-24.595c0-.594.064-1.184.186-1.763h245.877c.258 1.227.185-.447.185 26.358Z" fill="#247D99"/><path d="M629.144 385.803a3.719 3.719 0 0 0-3.643-4.455h-83.767l-.125-.592c-1.325-6.267-6.932-10.815-13.331-10.815h-6.338a3.718 3.718 0 0 0-3.716 3.72 3.718 3.718 0 0 0 3.716 3.719h6.338c2.909 0 5.457 2.068 6.06 4.916l11.042 52.217c1.043 4.932 4.744 8.789 9.391 10.213a11.09 11.09 0 0 0-.871 4.322c0 6.153 5.001 11.159 11.149 11.159 6.148 0 11.149-5.006 11.149-11.159 0-1.304-.227-2.556-.639-3.72h16.639a11.104 11.104 0 0 0-.639 3.72c0 6.153 5.001 11.159 11.149 11.159 6.147 0 11.149-5.006 11.149-11.159 0-1.304-.227-2.556-.64-3.72h.887a3.718 3.718 0 0 0 3.717-3.72 3.718 3.718 0 0 0-3.717-3.72h-55.393c-2.909 0-5.457-2.067-6.059-4.915l-.953-4.508h18.786l.01.001.008-.001h23.778l.008.001.01-.001h23.205a3.717 3.717 0 0 0 3.643-2.984l3.905-19.373a3.67 3.67 0 0 0 .188-.935l3.904-19.37Zm-60.379 63.245a3.72 3.72 0 0 1-3.716 3.719 3.722 3.722 0 0 1-3.716-3.719 3.722 3.722 0 0 1 3.716-3.72 3.721 3.721 0 0 1 3.716 3.72Zm37.659 0a3.722 3.722 0 0 1-3.716 3.719 3.722 3.722 0 0 1-3.717-3.719 3.722 3.722 0 0 1 3.717-3.72 3.722 3.722 0 0 1 3.716 3.72Zm12.037-47.861h-17.49l1.549-12.399h18.44l-2.499 12.399Zm-44.681 19.839-1.548-12.4h20.32l-1.548 12.4H573.78Zm-2.477-19.839-1.549-12.399h25.276l-1.549 12.399h-22.178Zm-9.039-12.399 1.548 12.399h-17.883l-2.622-12.399h18.957Zm-14.761 19.838h17.238l1.549 12.4h-16.165l-2.622-12.4Zm50.991 12.4 1.548-12.4h16.919l-2.499 12.4h-15.968Z" fill="#6E7B91"/><path d="M892.18 542.614c0 23.455-18.997 42.469-42.43 42.469s-42.43-19.014-42.43-42.469c0-23.455 18.997-42.469 42.43-42.469s42.43 19.014 42.43 42.469Z" fill="#F6A721"/><path d="M871.193 532.677a1.543 1.543 0 0 0-.331-1.306 1.617 1.617 0 0 0-1.242-.577h-36.171l-.054-.25c-.572-2.647-2.993-4.568-5.757-4.568h-2.736c-.887 0-1.605.703-1.605 1.571s.718 1.571 1.605 1.571h2.736c1.256 0 2.357.874 2.617 2.077l4.768 22.058c.451 2.084 2.049 3.714 4.055 4.315a4.605 4.605 0 0 0-.376 1.826c0 2.599 2.16 4.714 4.815 4.714 2.654 0 4.814-2.115 4.814-4.714 0-.551-.098-1.08-.276-1.572h7.185a4.587 4.587 0 0 0-.276 1.572c0 2.599 2.159 4.714 4.814 4.714 2.655 0 4.814-2.115 4.814-4.714 0-.551-.098-1.08-.276-1.572h.383c.886 0 1.605-.703 1.605-1.571s-.719-1.572-1.605-1.572H840.78c-1.256 0-2.357-.873-2.617-2.076l-.411-1.904h28.415c.764 0 1.422-.528 1.573-1.261l1.686-8.184c.044-.125.072-.257.082-.395l1.685-8.182Zm-26.072 26.717c0 .866-.719 1.571-1.604 1.571-.885 0-1.605-.705-1.605-1.571 0-.867.72-1.572 1.605-1.572s1.604.705 1.604 1.572Zm16.262 0c0 .866-.72 1.571-1.605 1.571s-1.605-.705-1.605-1.571c0-.867.72-1.572 1.605-1.572s1.605.705 1.605 1.572Zm5.197-20.219h-7.552l.669-5.238h7.963l-1.08 5.238Zm-19.293 8.381-.669-5.238h8.775l-.669 5.238h-7.437Zm-1.07-8.381-.669-5.238h10.915l-.669 5.238h-9.577Zm-3.903-5.238.669 5.238h-7.722l-1.133-5.238h8.186Zm-6.374 8.381h7.444l.668 5.238h-6.98l-1.132-5.238Zm22.018 5.238.669-5.238h7.306l-1.079 5.238h-6.896Z" fill="#fff"/><path fill-rule="evenodd" clip-rule="evenodd" d="M870.862 531.371c.304.365.426.844.331 1.306l-1.686 8.182c-.01.138-.037.27-.081.395l-1.686 8.184a1.597 1.597 0 0 1-1.573 1.261h-28.416l.412 1.904c.26 1.204 1.36 2.077 2.616 2.077h23.92c.886 0 1.604.703 1.604 1.571 0 .822-.644 1.497-1.466 1.566a1.575 1.575 0 0 1-.138.006h-.383a4.592 4.592 0 0 1 .276 1.571c0 2.599-2.16 4.714-4.815 4.714-2.654 0-4.814-2.115-4.814-4.714a4.591 4.591 0 0 1 .276-1.571h-7.185a4.579 4.579 0 0 1 .276 1.571c0 2.599-2.159 4.714-4.814 4.714-2.655 0-4.814-2.115-4.814-4.714a4.606 4.606 0 0 1 .376-1.826 5.92 5.92 0 0 1-.47-.162c-1.783-.701-3.17-2.234-3.585-4.152l-4.769-22.059c-.26-1.203-1.36-2.076-2.616-2.076h-2.737c-.886 0-1.605-.704-1.605-1.572 0-.868.719-1.571 1.605-1.571h2.737c2.763 0 5.184 1.921 5.756 4.569l.054.25h36.172c.481 0 .937.211 1.242.576Zm-37.016-1.072c-.677-2.809-3.268-4.819-6.208-4.819h-2.737c-1.15 0-2.1.915-2.1 2.067 0 1.153.95 2.068 2.1 2.068h2.737c1.03 0 1.923.717 2.132 1.685l4.769 22.059c.452 2.094 1.965 3.757 3.899 4.513a5.082 5.082 0 0 0-.232 1.522c0 2.883 2.392 5.21 5.31 5.21 2.918 0 5.31-2.327 5.31-5.21 0-.369-.04-.728-.115-1.075h5.871a5.08 5.08 0 0 0-.114 1.075c0 2.883 2.391 5.21 5.309 5.21s5.31-2.327 5.31-5.21c0-.375-.041-.74-.118-1.093 1.024-.13 1.83-.989 1.83-2.05 0-1.152-.951-2.067-2.1-2.067h-23.92c-1.03 0-1.923-.718-2.132-1.686l-.282-1.303h27.802c.991 0 1.858-.686 2.058-1.657l1.68-8.154c.048-.145.08-.297.094-.454l1.679-8.153a2.045 2.045 0 0 0-.436-1.724 2.114 2.114 0 0 0-1.622-.754h-35.774Zm9.67 30.17c.622 0 1.109-.493 1.109-1.075s-.487-1.075-1.109-1.075-1.109.493-1.109 1.075.487 1.075 1.109 1.075Zm16.261 0c.622 0 1.11-.493 1.11-1.075s-.488-1.075-1.11-1.075c-.621 0-1.109.493-1.109 1.075s.488 1.075 1.109 1.075Zm6.803-21.293 1.079-5.238h-7.963l-.668 5.238h7.552Zm-6.99-.496h6.586l.875-4.246h-6.919l-.542 4.246Zm-11.868 8.38h6.565l.542-4.246h-7.649l.542 4.246Zm-.436.496h7.437l.669-5.238h-8.774l.668 5.238Zm-.633-8.876h8.704l.542-4.246h-9.788l.542 4.246Zm-1.105-4.742.668 5.238h9.577l.669-5.238h-10.914Zm-3.671.496h-7.135l.918 4.246h6.759l-.542-4.246Zm1.105 4.742h-7.722l-1.132-5.238h8.185l.669 5.238Zm-7.043 3.142 1.133 5.238h6.98l-.669-5.238h-7.444Zm.614.496.918 4.246h6.018l-.542-4.246h-6.394Zm21.405 4.742h6.895l1.079-5.238h-7.306l-.668 5.238Zm.563-.496h5.928l.875-4.246h-6.261l-.542 4.246Zm-15.005 13.905c.885 0 1.605-.704 1.605-1.571s-.72-1.571-1.605-1.571-1.605.704-1.605 1.571.72 1.571 1.605 1.571Zm16.261 0c.885 0 1.605-.704 1.605-1.571s-.72-1.571-1.605-1.571-1.604.704-1.604 1.571.719 1.571 1.604 1.571ZM278.539 396.422c-6.048 0-10.657 4.023-10.657 8.634 0 1.162.284 1.96.727 2.536.448.582 1.126 1.021 2.064 1.34 1.923.654 4.648.718 7.866.718 3.217 0 5.942-.064 7.865-.718.938-.319 1.616-.758 2.065-1.34.443-.576.726-1.374.726-2.536 0-4.577-4.611-8.634-10.656-8.634Zm-12.371 8.634c0-5.854 5.701-10.35 12.371-10.35 6.672 0 12.371 4.534 12.371 10.35 0 1.454-.361 2.646-1.084 3.583-.716.931-1.724 1.528-2.87 1.918-2.244.763-5.276.809-8.417.809s-6.173-.046-8.417-.809c-1.146-.39-2.154-.987-2.871-1.918-.722-.937-1.083-2.129-1.083-3.583Z" fill="#fff"/><path d="M288.909 400.967v-27.162c-3.024.658-6.11.988-9.204.986h-2.286a42.508 42.508 0 0 1-9.203-.998v27.174a8.022 8.022 0 0 0-1.216 4.089c0 5.233 5.155 5.452 11.514 5.452 6.358 0 11.513-.219 11.513-5.452a8.023 8.023 0 0 0-1.118-4.089Z" fill="#FDC2BF"/><path d="M322.78 291.844v45.952a43.08 43.08 0 0 1-26.584 39.847 43.008 43.008 0 0 1-16.492 3.269h-2.285a42.586 42.586 0 0 1-9.204-.998 43.07 43.07 0 0 1-24.351-15.085 43.135 43.135 0 0 1-9.521-27.033v-45.952a43.136 43.136 0 0 1 12.616-30.487 43.056 43.056 0 0 1 30.46-12.628h2.285a43.056 43.056 0 0 1 30.46 12.628 43.136 43.136 0 0 1 12.616 30.487Z" fill="#FDC2BF"/><path d="m268.168 379.95.28 25.641s8.51-12.254 22.115-14.128l-4.158-14.141-9.884-.463-8.353 3.091Z" fill="#F4B1AF"/><path d="M338.854 238.494c-5.191-2.92-15.149-.486-18.894-5.634-3.744-5.148-15.003-9.249-23.513-1.448-8.511 7.8-16.025 2.434-16.025 2.434-19.902-9.65-28.133 4.162-30.297 7.679-2.164 3.517 6.152 1.472-13.374 7.825-19.526 6.352-19.186 23.547-16.268 27.015 2.918 3.469 1.216 6.596-.62 18.838a13.215 13.215 0 0 0 .888 5.623 236.364 236.364 0 0 0 .79 33.319s-3.331 33.794 17.787 42.727c21.119 8.932 25.982-2.081 29.52 9.029 3.538 11.111 44.061 9.298 51.064-.426 7.003-9.723 13.374-8.713 12.547-17.791-.827-9.078-1.131-22.014-6.189-26.164-5.057-4.15-8.911 7.752-15.55 9.662-11.465 3.237-14.37-48.348-25.118-45.939-4.134.925-11.392-9.102-11.866-9.857-2.432-3.906-.791-10.721-1.678-12.364-4.195-7.703 2.431-10.283 3.647-10.879 1.727-.864 4.742-9.14 28.973 6.169 17.544 11.075 42.054 2.507 45.519-12.51a24.626 24.626 0 0 0-1.115-15.55 24.608 24.608 0 0 0-10.228-11.758Z" fill="#2C2A46"/><path d="M277.432 319.652c-2.189 1.618-5.52 6.705 2.103 21.54a4.808 4.808 0 0 0 1.52 1.752c.374.257.783.458 1.216.596.165.042.339.044.505.007a1.096 1.096 0 0 0 .768-.618 1.1 1.1 0 0 0 .1-.496c0-3.651-.328-18.254-2.601-22.599-.608-1.143-2.87-.73-3.611-.182Z" fill="#FDC2BF"/><path d="M209.955 1011.39s-.255 29.21-.426 32.1c-.17 2.9 19.648 7.83 64.949 2.69 2.577-.29 6.188-1.04 8.012-3.18 3.112-3.66 2.529-10.31-.985-13.29-3.757-3.19-24.705-11.76-29.459-13.04-3.246-.86-5.629-12.17-7.295-13.76-6.833-6.243-33.969-2.74-33.969-2.74l-.827 11.22Zm104.619 6.05s.183 29.21 0 32.1c-.182 2.9 19.769 7.53 64.997 1.74 2.578-.33 6.164-1.14 7.952-3.31 3.064-3.65 2.431-10.34-1.216-13.26-3.806-3.14-24.888-11.4-29.654-12.61-3.258-.82-5.799-12.17-7.538-13.65-6.905-6.15-34.042-2.24-34.042-2.24l-.499 11.23Z" fill="#1A2437"/><path d="M227.547 1008.89c8.924 0 16.158-1.66 16.158-3.7 0-2.05-7.234-3.7-16.158-3.7-8.924 0-16.158 1.65-16.158 3.7 0 2.04 7.234 3.7 16.158 3.7Z" fill="#FDC2BF"/><path d="M211.389 989.949v15.241h32.304v-15.241s-32.304-.353-32.304 0Zm120.037 24.751c8.923 0 16.158-1.65 16.158-3.7 0-2.04-7.235-3.7-16.158-3.7-8.924 0-16.158 1.66-16.158 3.7 0 2.05 7.234 3.7 16.158 3.7Z" fill="#FDC2BF"/><path d="M315.268 995.767V1011h32.291v-15.233s-32.291-.353-32.291 0Z" fill="#FDC2BF"/><path fill-rule="evenodd" clip-rule="evenodd" d="M331.438 969.876c8.913 0 16.139 7.233 16.139 16.155v12.084c0 8.925-7.226 16.155-16.139 16.155-8.914 0-16.14-7.23-16.14-16.155v-12.084c0-8.922 7.226-16.155 16.14-16.155Z" fill="#FDC2BF"/><path d="M279.109 593.583h-.584c-38.59 0-70.103 4.953-70.128 10.952l.122 383.845c0 2.433 8.134 4.502 18.14 4.502h.583c10.006 0 18.128-2.02 18.128-4.502l4.097-168.107 4.329-155.524c4.474 1.022 14.711 1.424 25.009 1.327 10.285.097 20.535-.305 24.997-1.327l4.34 155.524 4.097 168.107c0 2.433 8.11 4.502 18.116 4.502h.595c10.007 0 18.128-2.02 18.128-4.502l.122-383.845c-.049-5.999-31.563-10.94-70.091-10.952Z" fill="#1A2437"/><path d="M279.254 399.556c-39.343 0-71.233 3.419-71.233 7.63v197.301c0 4.21 31.89 7.63 71.233 7.63 39.344 0 71.234-3.42 71.234-7.63V407.161c0-4.186-31.89-7.605-71.234-7.605Z" fill="#C9F"/><path opacity=".3" d="m207.596 487.479.498-30.168 3.161-9.845 9.459-7.545a129.115 129.115 0 0 0-2.054 14.835c-4.462 44.442-13.301 96.405-10.566 149.682" fill="#B97CE8"/><path fill-rule="evenodd" clip-rule="evenodd" d="M223.92 431.143c4.744-6.321 3.471-15.296-2.844-20.045Zm-11.436-8.599c-11.436-8.601-11.437-8.6-11.438-8.598l-.049.065-.13.174-.487.654c-.422.568-1.034 1.396-1.808 2.452a762.377 762.377 0 0 0-6.374 8.831c-5.243 7.373-12.234 17.464-19.16 28.257-6.885 10.729-13.901 22.453-19.066 33.029-2.576 5.277-4.848 10.584-6.394 15.543-1.436 4.609-2.755 10.466-1.973 16.215.953 6.997 3.634 14.927 6.705 22.477 3.156 7.761 7.111 16.045 11.163 24.001 5.771 11.331 12.091 22.657 16.799 31.096a952.445 952.445 0 0 1 4.631 8.358c3.366 6.192 4.668 12.768 5.061 18.034.194 2.589.157 4.733.08 6.165a30.263 30.263 0 0 1-.117 1.537c-.015.15-.027.243-.031.276l.008-.059.004-.024c.001-.004.001-.009 14.15 2.094l-14.149-2.103-.013.092c-1.105 7.786 4.278 15.016 12.061 16.173 7.814 1.162 15.089-4.237 16.25-12.059l-13.09-1.945c13.09 1.945 13.091 1.941 13.091 1.936l.002-.009.003-.021.006-.046.016-.112.04-.304c.03-.237.067-.544.105-.916.078-.742.165-1.746.231-2.975.132-2.449.18-5.834-.119-9.836-.591-7.917-2.584-18.773-8.459-29.582-1.444-2.656-3.19-5.785-5.134-9.27-4.647-8.326-10.429-18.687-15.939-29.505-3.864-7.586-7.422-15.074-10.153-21.791-2.778-6.831-4.353-12.035-4.835-15.404.001.005.002.007.003.007.022 0 .038-1.164.913-3.974.952-3.052 2.555-6.924 4.787-11.496 4.453-9.12 10.79-19.774 17.433-30.127 6.603-10.288 13.317-19.984 18.397-27.127a731.132 731.132 0 0 1 6.129-8.493 589.514 589.514 0 0 1 1.707-2.315l.441-.591.108-.145.03-.04m-11.436-8.599-11.436-8.601c4.746-6.321 13.713-7.595 20.028-2.845" fill="#FDC2BF"/><path fill-rule="evenodd" clip-rule="evenodd" d="M231.174 412.312c4.611 7.987 1.881 18.203-6.099 22.819-1.623.938-4.282 3.585-9.269 11.497-1.389 2.205-3.042 4.962-4.9 8.063-3.683 6.143-8.174 13.637-13.031 20.857-5.148 7.651-15.518 9.677-23.162 4.525-7.645-5.153-9.668-15.532-4.521-23.184 4.518-6.715 7.897-12.376 11.193-17.899 2.015-3.377 4-6.702 6.195-10.185 4.94-7.838 11.332-17.123 20.797-22.598 7.98-4.615 18.186-1.881 22.797 6.105Z" fill="#C9F"/><path opacity=".3" d="m350.489 601.87-.109-123.202-.462-25.434-14.128-9.735s15.271 136.467 14.699 158.371Z" fill="#B97CE8"/><path fill-rule="evenodd" clip-rule="evenodd" d="M486.315 420.243c6.493 5.144 7.587 14.579 2.442 21.072-6.251 7.89-17.086 19.948-29.806 31.182-12.425 10.973-28.099 22.473-43.968 27.476-20.23 6.377-37.291-3.21-48.399-13.581-11.165-10.425-19.174-24.008-23.315-33.423-3.335-7.583.109-16.435 7.692-19.77 7.583-3.335 16.434.109 19.77 7.692 3.017 6.86 8.944 16.68 16.327 23.573 7.439 6.946 13.536 8.59 18.906 6.897 9.731-3.068 21.566-11.138 33.127-21.349 11.266-9.95 20.894-20.691 26.152-27.327 5.144-6.493 14.578-7.587 21.072-2.442Z" fill="#FDC2BF"/><path fill-rule="evenodd" clip-rule="evenodd" d="M331.6 406.709c7.441-5.442 17.881-3.815 23.318 3.633 5.89 8.07 10.705 16.505 15.022 24.068.949 1.662 1.873 3.282 2.78 4.846 5.219 9.006 10.368 17.192 17.492 25.114 6.165 6.857 5.61 17.417-1.24 23.588-6.85 6.171-17.401 5.615-23.566-1.241-9.467-10.529-15.992-21.101-21.555-30.7a1136.233 1136.233 0 0 1-3.24-5.639c-4.256-7.442-7.955-13.91-12.641-20.33-5.437-7.448-3.812-17.897 3.63-23.339Z" fill="#C9F"/><defs><filter id="blip-sales-1__a" x="120.971" y="1000.81" width="351.208" height="93.194" filterUnits="userSpaceOnUse" color-interpolation-filters="sRGB"><feFlood flood-opacity="0" result="BackgroundImageFix"/><feBlend in="SourceGraphic" in2="BackgroundImageFix" result="shape"/><feGaussianBlur stdDeviation="7" result="effect1_foregroundBlur_10272_1624"/></filter><filter id="blip-sales-1__b" x="293.021" y="888.87" width="592.078" height="87.043" filterUnits="userSpaceOnUse" color-interpolation-filters="sRGB"><feFlood flood-opacity="0" result="BackgroundImageFix"/><feBlend in="SourceGraphic" in2="BackgroundImageFix" result="shape"/><feGaussianBlur stdDeviation="7" result="effect1_foregroundBlur_10272_1624"/></filter><filter id="blip-sales-1__c" x="670.459" y="627.29" width="96.886" height="52.73" filterUnits="userSpaceOnUse" color-interpolation-filters="sRGB"><feFlood flood-opacity="0" result="BackgroundImageFix"/><feColorMatrix in="SourceAlpha" values="0 0 0 0 0 0 0 0 0 0 0 0 0 0 0 0 0 0 127 0" result="hardAlpha"/><feOffset dy=".894"/><feGaussianBlur stdDeviation="2.683"/><feColorMatrix values="0 0 0 0 0.374547 0 0 0 0 0.481553 0 0 0 0 0.601935 0 0 0 0.15 0"/><feBlend in2="BackgroundImageFix" result="effect1_dropShadow_10272_1624"/><feBlend in="SourceGraphic" in2="effect1_dropShadow_10272_1624" result="shape"/></filter><filter id="blip-sales-1__d" x="569.803" y="518.111" width="346.838" height="96.995" filterUnits="userSpaceOnUse" color-interpolation-filters="sRGB"><feFlood flood-opacity="0" result="BackgroundImageFix"/><feColorMatrix in="SourceAlpha" values="0 0 0 0 0 0 0 0 0 0 0 0 0 0 0 0 0 0 127 0" result="hardAlpha"/><feOffset dy="1.549"/><feGaussianBlur stdDeviation="4.648"/><feColorMatrix values="0 0 0 0 0.374547 0 0 0 0 0.481553 0 0 0 0 0.601935 0 0 0 0.15 0"/><feBlend in2="BackgroundImageFix" result="effect1_dropShadow_10272_1624"/><feBlend in="SourceGraphic" in2="effect1_dropShadow_10272_1624" result="shape"/></filter><filter id="blip-sales-1__e" x="452.077" y="313.334" width="242.442" height="178.041" filterUnits="userSpaceOnUse" color-interpolation-filters="sRGB"><feFlood flood-opacity="0" result="BackgroundImageFix"/><feColorMatrix in="SourceAlpha" values="0 0 0 0 0 0 0 0 0 0 0 0 0 0 0 0 0 0 127 0" result="hardAlpha"/><feOffset dy="1.806"/><feGaussianBlur stdDeviation="5.417"/><feColorMatrix values="0 0 0 0 0.374547 0 0 0 0 0.481553 0 0 0 0 0.601935 0 0 0 0.15 0"/><feBlend in2="BackgroundImageFix" result="effect1_dropShadow_10272_1624"/><feBlend in="SourceGraphic" in2="effect1_dropShadow_10272_1624" result="shape"/></filter></defs></svg>