<svg width="1080" height="1080" viewBox="0 0 1080 1080" fill="none" xmlns="http://www.w3.org/2000/svg">
<g clip-path="url(#clip0_204_33409)">
<g opacity="0.1" filter="url(#filter0_f_204_33409)">
<path d="M918 1046.5C918 1056.72 865.393 1065 800.5 1065C735.607 1065 683 1056.72 683 1046.5C683 1036.28 735.607 1028 800.5 1028C865.393 1028 918 1036.28 918 1046.5Z" fill="#0A0F1A"/>
</g>
<path d="M199 564C199 805.9 395.099 1002 637 1002C878.901 1002 1075 805.9 1075 564C1075 322.099 878.901 126 637 126C395.099 126 199 322.099 199 564Z" fill="#F5F5F5"/>
<path d="M76 259C76 319.751 125.249 369 186 369C246.751 369 296 319.751 296 259C296 198.249 246.751 149 186 149C125.249 149 76 198.249 76 259Z" fill="#0096FA"/>
<path d="M757.98 461.965H1030.2L954.193 768.18H681.979L757.98 461.965Z" fill="#0C4EC0"/>
<path d="M438.916 1006.27L468.543 932.02L388.782 900.193L359.155 974.441L438.916 1006.27Z" fill="#8C3A03"/>
<path d="M602.14 990.789L605.801 910.932L520.015 906.999L516.354 986.857L602.14 990.789Z" fill="#8C3A03"/>
<path d="M459.353 977.916L361.128 951.597C358.214 957.233 334.341 971.49 310.74 966.771C265.783 957.933 277.891 983.838 277.891 983.838L439.729 1027.2L459.353 977.916Z" fill="url(#paint0_linear_204_33409)"/>
<path d="M910.963 1013.42H684.689V1044.59H910.963V1013.42Z" fill="#0C4EC0"/>
<path d="M813.404 1028.33L813.404 802.053L782.241 802.053L782.241 1028.33L813.404 1028.33Z" fill="#0C4EC0"/>
<path d="M799.181 830.507C829.488 830.507 854.056 805.635 854.056 774.955C854.056 744.274 829.488 719.402 799.181 719.402C768.875 719.402 744.307 744.274 744.307 774.955C744.307 805.635 768.875 830.507 799.181 830.507Z" fill="#072F73"/>
<path d="M782.356 601.659L509.089 601.659C473.405 597.208 440.82 622.582 436.367 658.288C436.343 658.48 436.319 658.672 436.295 658.864L354.315 931.907L483.621 948.032L548.635 731.36L715.162 752.128C723.101 757.212 824.379 740.755 834.355 742C870.039 746.45 810.65 741.031 815.103 705.326C819.34 669.788 818.04 606.109 782.356 601.659Z" fill="url(#paint1_linear_204_33409)"/>
<path d="M953.546 768.179H644.041V737.016H961.095L953.546 768.179Z" fill="#0C4EC0"/>
<path d="M610.951 967L509.262 967.628C507.945 973.834 488.7 993.903 464.498 995.602C418.806 998.983 437.34 1020.76 437.34 1020.76L604.884 1019.72L610.951 967Z" fill="#072F73"/>
<path d="M483.091 948.525L613.641 947.719L658.003 666L527.454 666.806L483.091 948.525Z" fill="#0096FA"/>
<path d="M587.709 748.244C623.759 748.021 652.803 718.616 652.581 682.566C652.359 646.516 622.954 617.473 586.904 617.695C550.854 617.917 521.809 647.321 522.031 683.371C522.254 719.421 551.659 748.466 587.709 748.244Z" fill="#0096FA"/>
<path d="M847.728 740.153C901.452 739.822 944.734 696.002 944.403 642.277C944.071 588.552 900.253 545.268 846.528 545.599C792.803 545.931 749.519 589.752 749.85 643.477C750.181 697.202 794.003 740.485 847.728 740.153Z" fill="#0096FA"/>
<path d="M845.877 609.461L586.908 617.692L587.673 741.655L839.28 740.103L845.877 609.461Z" fill="#0096FA"/>
<path d="M939.011 672.294L953.867 535.471H821.084L939.011 672.294Z" fill="#0096FA"/>
<path d="M756.652 152H843.345L849.972 158.627V321.755H785.883V295.611H756.652C754.11 293.069 752.658 291.617 750.025 288.984V158.627L756.652 152Z" fill="#8C3A03"/>
<path d="M843.345 152L849.972 158.627L850.426 233.337L849.881 233.7L783.795 167.251L750.025 207.919V158.627L756.652 152H843.345Z" fill="#141414"/>
<path d="M857.87 259.753H839.715V231.34H864.316V253.399C864.316 256.939 861.411 259.753 857.87 259.753Z" fill="#8C3A03"/>
<path d="M835.084 294.431H849.972V259.754H835.084V294.431Z" fill="url(#paint2_linear_204_33409)"/>
<path d="M808.487 295.52H785.883V304.597H808.487V295.52Z" fill="url(#paint3_linear_204_33409)"/>
<path fill-rule="evenodd" clip-rule="evenodd" d="M776.24 222.644C777.131 223.034 777.538 224.073 777.148 224.965L763.612 255.903H776.986C777.959 255.903 778.748 256.692 778.748 257.665C778.748 258.638 777.959 259.427 776.986 259.427H760.918C760.324 259.427 759.769 259.127 759.444 258.629C759.118 258.131 759.066 257.503 759.304 256.959L773.919 223.552C774.309 222.661 775.348 222.254 776.24 222.644Z" fill="#141414"/>
<path d="M976.388 404.922C972.043 380.398 954.576 360.309 930.954 352.617L849.861 325.921V305.107H786.054V325.921L775.737 329.36L704.961 352.617C681.339 360.399 663.872 380.489 659.527 404.922L670.735 545.608L681.355 619L944.431 639.776L992.531 493.443L976.388 404.922Z" fill="#FD9BDC"/>
<path d="M907.627 553.059H1002.9L990.96 485.312H895.863L907.627 553.059Z" fill="#8C3A03"/>
<path d="M948.494 615.388C978.8 615.388 1003.37 590.516 1003.37 559.835C1003.37 529.155 978.8 504.283 948.494 504.283C918.187 504.283 893.619 529.155 893.619 559.835C893.619 590.516 918.187 615.388 948.494 615.388Z" fill="#8C3A03"/>
<path d="M888.065 440L910.75 561.944H802.355L888.065 440Z" fill="url(#paint4_linear_204_33409)"/>
<path d="M970.385 553.061L905.029 508.845L840.13 464.99L794.244 531.36L925.461 611.323L970.385 553.061Z" fill="#8C3A03"/>
<path d="M895.863 490.732L898.492 505.032L969.278 553.059H1002.9L999.006 530.665L895.863 490.732Z" fill="url(#paint5_linear_204_33409)"/>
<path d="M840.316 465.312L740.089 454.15L694.359 468.462L666.885 488.805L674.748 496.457L692.19 488.985L672.94 507.528L683.243 514.459L726.081 487.275L699.149 517.79L707.283 523.73L739.818 502.397L719.936 524.181L726.985 529.941L758.978 509.328L795.218 531.382L840.316 465.312Z" fill="#8C3A03"/>
<path d="M786.154 543.266H569.83C565.381 543.266 562.023 547.351 562.84 551.708L564.201 558.698C564.837 562.057 567.742 564.417 571.191 564.417H787.515C791.964 564.417 795.322 560.332 794.505 555.975L793.144 548.985C792.508 545.626 789.603 543.266 786.154 543.266Z" fill="#072F73"/>
<path d="M430.574 405.373H668.957C672.316 405.373 675.221 407.733 675.947 411.092L704.088 555.974C704.905 560.331 701.546 564.416 697.098 564.416H458.715C455.356 564.416 452.451 562.056 451.725 558.697L423.584 413.815C422.767 409.458 426.126 405.373 430.574 405.373Z" fill="#0C4EC0"/>
<path fill-rule="evenodd" clip-rule="evenodd" d="M488.549 1019.81V572.287H509.592V1019.81H488.549Z" fill="#A3A3A3"/>
<path fill-rule="evenodd" clip-rule="evenodd" d="M655.752 1040H342.383V1018.96H655.752V1040Z" fill="#A3A3A3"/>
<path d="M841.737 562H156.396C150.715 562 151.002 566.605 151.002 572.286C151.002 577.967 150.715 582.573 156.396 582.573H841.737C847.418 582.573 847.13 577.967 847.13 572.286C847.13 566.605 847.418 562 841.737 562Z" fill="#0096FA"/>
<path d="M502.557 261.817C562.249 261.817 610.639 213.427 610.639 153.735C610.639 94.0425 562.249 45.6523 502.557 45.6523C442.865 45.6523 394.475 94.0425 394.475 153.735C394.475 213.427 442.865 261.817 502.557 261.817Z" fill="#0096FA"/>
<path d="M502.557 240.651C550.56 240.651 589.473 201.737 589.473 153.735C589.473 105.732 550.56 66.8184 502.557 66.8184C454.554 66.8184 415.641 105.732 415.641 153.735C415.641 201.737 454.554 240.651 502.557 240.651Z" fill="white"/>
<path d="M540.386 158.689H502.557C499.855 158.689 497.604 156.437 497.604 153.735C497.604 151.033 499.855 148.781 502.557 148.781H540.386C543.088 148.781 545.34 151.033 545.34 153.735C545.34 156.437 543.088 158.689 540.386 158.689Z" fill="#0096FA"/>
<path d="M502.557 158.687C499.855 158.687 497.604 156.436 497.604 153.734V97.8911C497.604 95.1891 499.855 92.9375 502.557 92.9375C505.259 92.9375 507.511 95.1891 507.511 97.8911V153.734C507.511 156.436 505.259 158.687 502.557 158.687Z" fill="#0096FA"/>
<path d="M502.557 168.146C510.516 168.146 516.968 161.694 516.968 153.735C516.968 145.776 510.516 139.324 502.557 139.324C494.598 139.324 488.146 145.776 488.146 153.735C488.146 161.694 494.598 168.146 502.557 168.146Z" fill="#0096FA"/>
<path d="M502.557 161.841C507.034 161.841 510.664 158.212 510.664 153.735C510.664 149.258 507.034 145.629 502.557 145.629C498.08 145.629 494.451 149.258 494.451 153.735C494.451 158.212 498.08 161.841 502.557 161.841Z" fill="#DDE3EC"/>
<path d="M502.556 86.633C505.789 86.633 508.41 84.0118 508.41 80.7784C508.41 77.545 505.789 74.9238 502.556 74.9238C499.322 74.9238 496.701 77.545 496.701 80.7784C496.701 84.0118 499.322 86.633 502.556 86.633Z" fill="#0096FA"/>
<path d="M451.216 108.248C454.449 108.248 457.071 105.627 457.071 102.394C457.071 99.1603 454.449 96.5391 451.216 96.5391C447.983 96.5391 445.361 99.1603 445.361 102.394C445.361 105.627 447.983 108.248 451.216 108.248Z" fill="#0096FA"/>
<path d="M429.601 159.588C432.834 159.588 435.455 156.967 435.455 153.734C435.455 150.5 432.834 147.879 429.601 147.879C426.367 147.879 423.746 150.5 423.746 153.734C423.746 156.967 426.367 159.588 429.601 159.588Z" fill="#0096FA"/>
<path d="M451.216 210.928C454.449 210.928 457.071 208.307 457.071 205.073C457.071 201.84 454.449 199.219 451.216 199.219C447.983 199.219 445.361 201.84 445.361 205.073C445.361 208.307 447.983 210.928 451.216 210.928Z" fill="#0096FA"/>
<path d="M502.556 232.543C505.789 232.543 508.41 229.922 508.41 226.689C508.41 223.455 505.789 220.834 502.556 220.834C499.322 220.834 496.701 223.455 496.701 226.689C496.701 229.922 499.322 232.543 502.556 232.543Z" fill="#0096FA"/>
<path d="M553.896 210.928C557.129 210.928 559.75 208.307 559.75 205.073C559.75 201.84 557.129 199.219 553.896 199.219C550.662 199.219 548.041 201.84 548.041 205.073C548.041 208.307 550.662 210.928 553.896 210.928Z" fill="#0096FA"/>
<path d="M575.511 159.588C578.744 159.588 581.365 156.967 581.365 153.734C581.365 150.5 578.744 147.879 575.511 147.879C572.277 147.879 569.656 150.5 569.656 153.734C569.656 156.967 572.277 159.588 575.511 159.588Z" fill="#0096FA"/>
<path d="M553.896 108.248C557.129 108.248 559.75 105.627 559.75 102.394C559.75 99.1603 557.129 96.5391 553.896 96.5391C550.662 96.5391 548.041 99.1603 548.041 102.394C548.041 105.627 550.662 108.248 553.896 108.248Z" fill="#0096FA"/>
<path opacity="0.6" d="M297.398 413.166C298.798 412.903 300.239 412.953 301.618 413.311C302.997 413.669 304.279 414.328 305.374 415.239C307.665 417.199 309.273 419.837 309.964 422.771C310.312 424.179 310.523 425.617 310.593 427.065C310.74 428.524 310.74 429.993 310.593 431.451C310.159 434.303 309.265 437.066 307.947 439.632C305.596 444.481 302.913 448.478 301.58 452.846L301.136 454.493L300.822 456.177C300.667 457.218 300.705 458.278 300.933 459.305C301.457 461.738 302.464 464.041 303.894 466.079C301.363 464.887 299.257 462.95 297.86 460.526C297.073 459.19 296.581 457.701 296.417 456.159C296.417 455.455 296.324 454.734 296.287 454.012C296.25 453.29 296.287 452.568 296.398 451.846C297.046 446.035 299.841 441.075 301.951 436.726C303.009 434.723 303.834 432.606 304.412 430.415C304.83 428.202 304.985 425.947 304.875 423.697C304.798 421.494 304.161 419.348 303.024 417.46C301.693 415.429 299.708 413.914 297.398 413.166Z" fill="#1967F1"/>
<path opacity="0.6" d="M281.835 429.212C282.81 429.034 283.812 429.071 284.771 429.321C285.73 429.57 286.623 430.026 287.387 430.656C288.974 432.03 290.088 433.869 290.571 435.912C290.83 436.88 290.991 437.872 291.052 438.873C291.153 439.888 291.153 440.911 291.052 441.927C290.745 443.914 290.12 445.838 289.201 447.627C287.492 450.596 286.007 453.69 284.759 456.88L284.445 458.028C284.445 458.417 284.334 458.805 284.223 459.194C284.078 459.915 284.078 460.657 284.223 461.378C284.585 463.072 285.283 464.677 286.277 466.097C284.509 465.276 283.04 463.924 282.076 462.229C281.538 461.297 281.197 460.264 281.076 459.194C280.975 458.191 280.975 457.18 281.076 456.177C281.73 452.471 283.04 448.911 284.944 445.665C285.687 444.269 286.265 442.79 286.666 441.26C286.817 440.502 286.922 439.736 286.98 438.965C287.026 438.17 287.026 437.373 286.98 436.578C286.937 435.048 286.497 433.556 285.703 432.247C284.797 430.824 283.433 429.754 281.835 429.212Z" fill="#1967F1"/>
<path d="M328.872 562.301H262.291C257.181 562.301 253 558.12 253 553.011V482.248C253 477.138 257.181 472.957 262.291 472.957H328.872C333.982 472.957 338.163 477.138 338.163 482.248V553.011C338.163 558.12 333.982 562.301 328.872 562.301Z" fill="#35DE90"/>
<path d="M335.527 550.688V538.765C346.366 538.765 355.193 529.939 355.193 519.1C355.193 508.261 346.366 499.435 335.527 499.435V487.512C352.87 487.512 367.116 501.603 367.116 519.1C367.116 536.597 353.024 550.688 335.527 550.688Z" fill="#35DE90"/>
</g>
<defs>
<filter id="filter0_f_204_33409" x="667" y="1012" width="267" height="69" filterUnits="userSpaceOnUse" color-interpolation-filters="sRGB">
<feFlood flood-opacity="0" result="BackgroundImageFix"/>
<feBlend mode="normal" in="SourceGraphic" in2="BackgroundImageFix" result="shape"/>
<feGaussianBlur stdDeviation="8" result="effect1_foregroundBlur_204_33409"/>
</filter>
<linearGradient id="paint0_linear_204_33409" x1="334.944" y1="924.905" x2="417.425" y2="1062.17" gradientUnits="userSpaceOnUse">
<stop offset="0.2603" stop-color="#072F73"/>
<stop offset="0.3664" stop-color="#072C6D"/>
<stop offset="0.5132" stop-color="#06255B"/>
<stop offset="0.6836" stop-color="#04193D"/>
<stop offset="0.8706" stop-color="#010915"/>
<stop offset="0.9558"/>
</linearGradient>
<linearGradient id="paint1_linear_204_33409" x1="407.611" y1="638.842" x2="726.849" y2="929.339" gradientUnits="userSpaceOnUse">
<stop offset="0.0262009" stop-color="#0096FA"/>
<stop offset="0.641" stop-color="#1968F0"/>
</linearGradient>
<linearGradient id="paint2_linear_204_33409" x1="828.583" y1="280.51" x2="868.496" y2="270.765" gradientUnits="userSpaceOnUse">
<stop stop-color="#8C3A03" stop-opacity="0.2"/>
<stop offset="0.9375" stop-color="#763103"/>
</linearGradient>
<linearGradient id="paint3_linear_204_33409" x1="806.74" y1="314.025" x2="787.193" y2="285.464" gradientUnits="userSpaceOnUse">
<stop stop-color="#8C3A03" stop-opacity="0.13"/>
<stop offset="1" stop-color="#642901"/>
</linearGradient>
<linearGradient id="paint4_linear_204_33409" x1="827.196" y1="485.352" x2="924.739" y2="571.227" gradientUnits="userSpaceOnUse">
<stop offset="0.1453" stop-color="#FD9BDC"/>
<stop offset="0.652544" stop-color="#A0036C"/>
</linearGradient>
<linearGradient id="paint5_linear_204_33409" x1="966.368" y1="483.791" x2="923.61" y2="581.216" gradientUnits="userSpaceOnUse">
<stop offset="0.2814" stop-color="#F8BC9A" stop-opacity="0"/>
<stop offset="0.297" stop-color="#8C3A03"/>
<stop offset="0.7905" stop-color="#732F02"/>
</linearGradient>
<clipPath id="clip0_204_33409">
<rect width="1080" height="1080" fill="white"/>
</clipPath>
</defs>
</svg>
