<svg xmlns="http://www.w3.org/2000/svg" width="1080" height="1080" viewBox="0 0 1080 1080" fill="none"><g clip-path="url(#a)"><g filter="url(#b)" opacity=".1"><path fill="#0A0F1A" d="M918 1046.5c0 10.22-52.607 18.5-117.5 18.5s-117.5-8.28-117.5-18.5 52.607-18.5 117.5-18.5 117.5 8.28 117.5 18.5"/></g><path fill="#F5F5F5" d="M199 564c0 241.9 196.099 438 438 438s438-196.1 438-438c0-241.901-196.099-438-438-438S199 322.099 199 564"/><path fill="#0096FA" d="M76 259c0 60.751 49.249 110 110 110s110-49.249 110-110-49.249-110-110-110S76 198.249 76 259"/><path fill="#0C4EC0" d="M757.981 461.964H1030.2l-76.006 306.215H681.979z"/><path fill="#8C3A03" d="m438.916 1006.27 29.627-74.251-79.761-31.827-29.627 74.248zM602.14 990.789l3.661-79.857L520.015 907l-3.661 79.857z"/><path fill="url(#c)" d="m459.352 977.916-98.225-26.319c-2.914 5.636-26.786 19.893-50.387 15.174-44.957-8.838-32.849 17.067-32.849 17.067l161.838 43.362z"/><path fill="#0C4EC0" d="M910.963 1013.42H684.689v31.17h226.274z"/><path fill="#0C4EC0" d="M813.404 1028.33V802.052H782.24v226.278z"/><path fill="#072F73" d="M799.181 830.506c30.307 0 54.875-24.871 54.875-55.552s-24.568-55.552-54.875-55.552-54.875 24.871-54.875 55.552 24.569 55.552 54.875 55.552"/><path fill="url(#d)" d="M782.355 601.659H509.088c-35.684-4.45-68.268 20.924-72.721 56.629l-.072.577-81.98 273.042 129.306 16.126 65.014-216.672 166.527 20.768c7.938 5.084 109.217-11.373 119.193-10.129 35.684 4.45-23.705-.968-19.252-36.674 4.237-35.538 2.936-99.217-32.748-103.667"/><path fill="#0C4EC0" d="M953.546 768.179H644.041v-31.163h317.055z"/><path fill="#072F73" d="m610.951 967-101.689.627c-1.317 6.207-20.562 26.276-44.764 27.975-45.692 3.381-27.158 25.158-27.158 25.158l167.544-1.04z"/><path fill="#0096FA" d="m483.091 948.524 130.55-.805L658.003 666l-130.549.805z"/><path fill="#0096FA" d="M587.709 748.243c36.05-.223 65.094-29.628 64.872-65.678s-29.627-65.093-65.677-64.871-65.095 29.627-64.873 65.677c.223 36.05 29.628 65.094 65.678 64.872M847.728 740.154c53.724-.331 97.006-44.151 96.675-97.876s-44.15-97.009-97.875-96.678-97.009 44.153-96.678 97.878c.331 53.724 44.153 97.007 97.878 96.676"/><path fill="#0096FA" d="m845.877 609.461-258.969 8.23.765 123.963 251.607-1.551zM939.01 672.294l14.857-136.823H821.084z"/><path fill="#8C3A03" d="M756.653 152h86.693l6.627 6.627v163.128h-64.09v-26.144h-29.23l-6.627-6.627V158.627z"/><path fill="#141414" d="m843.346 152 6.627 6.627.454 74.71-.545.363-66.087-66.449-33.769 40.668v-49.292l6.627-6.627z"/><path fill="#8C3A03" d="M857.872 259.754h-18.156V231.34h24.601v22.059c0 3.541-2.905 6.355-6.445 6.355"/><path fill="url(#e)" d="M835.085 294.431h14.888v-34.677h-14.888z"/><path fill="url(#f)" d="M808.488 295.52h-22.604v9.078h22.604z"/><path fill="#141414" fill-rule="evenodd" d="M776.239 222.645a1.76 1.76 0 0 1 .908 2.321l-13.535 30.938h13.373a1.762 1.762 0 0 1 0 3.524h-16.067a1.762 1.762 0 0 1-1.614-2.468l14.615-33.407a1.76 1.76 0 0 1 2.32-.908" clip-rule="evenodd"/><path fill="#FD9BDC" d="M976.388 404.922c-4.344-24.524-21.812-44.613-45.434-52.305l-81.093-26.696v-20.814h-63.807v20.814l-10.317 3.439-70.775 23.257c-23.622 7.782-41.09 27.872-45.434 52.305l11.207 140.686L681.356 619l263.075 20.776 48.101-146.333z"/><path fill="#8C3A03" d="M907.628 553.06h95.272l-11.939-67.747h-95.097z"/><path fill="#8C3A03" d="M948.495 615.387c30.306 0 54.875-24.872 54.875-55.552 0-30.681-24.569-55.552-54.875-55.552s-54.875 24.871-54.875 55.552c0 30.68 24.568 55.552 54.875 55.552"/><path fill="url(#g)" d="m888.065 440 22.685 121.944H802.355z"/><path fill="#8C3A03" d="m970.386 553.06-65.356-44.216-64.899-43.854-45.887 66.369 131.217 79.963z"/><path fill="url(#h)" d="m895.864 490.733 2.628 14.3 70.786 48.027h33.622l-3.893-22.394z"/><path fill="#8C3A03" d="M840.316 465.312 740.089 454.15l-45.73 14.312-27.474 20.343 7.862 7.651 17.443-7.471-19.25 18.543 10.303 6.931 42.838-27.184-26.932 30.514 8.134 5.941 32.535-21.333-19.883 21.783 7.05 5.761 31.993-20.613 36.24 22.053z"/><path fill="#072F73" d="M786.153 543.264H569.829c-4.448 0-7.807 4.085-6.99 8.443l1.362 6.989c.635 3.359 3.54 5.719 6.99 5.719h216.324c4.448 0 7.807-4.085 6.99-8.442l-1.362-6.99c-.635-3.359-3.54-5.719-6.99-5.719"/><path fill="#0C4EC0" d="M430.573 405.372h238.383c3.359 0 6.264 2.36 6.99 5.719l28.141 144.882c.817 4.357-2.542 8.443-6.99 8.443H458.714c-3.359 0-6.264-2.361-6.99-5.72l-28.141-144.881c-.817-4.358 2.542-8.443 6.99-8.443"/><path fill="#A3A3A3" fill-rule="evenodd" d="M488.548 1019.81V572.287h21.043v447.523z" clip-rule="evenodd"/><path fill="#A3A3A3" fill-rule="evenodd" d="M655.752 1040H342.383v-21.04h313.369z" clip-rule="evenodd"/><path fill="#0096FA" d="M841.737 562H156.396c-5.681 0-5.394 4.605-5.394 10.286s-.287 10.287 5.394 10.287h685.341c5.681 0 5.393-4.606 5.393-10.287S847.418 562 841.737 562M502.557 261.816c59.692 0 108.082-48.39 108.082-108.082 0-59.693-48.39-108.083-108.082-108.083-59.693 0-108.083 48.39-108.083 108.083s48.39 108.082 108.083 108.082"/><path fill="#fff" d="M502.557 240.65c48.002 0 86.916-38.914 86.916-86.916 0-48.003-38.914-86.917-86.916-86.917-48.003 0-86.917 38.914-86.917 86.917s38.914 86.916 86.917 86.916"/><path fill="#0096FA" d="M540.386 158.687h-37.829c-2.702 0-4.954-2.251-4.954-4.953s2.252-4.954 4.954-4.954h37.829c2.702 0 4.953 2.252 4.953 4.954s-2.251 4.953-4.953 4.953"/><path fill="#0096FA" d="M502.557 158.687c-2.702 0-4.954-2.251-4.954-4.953V97.891c0-2.702 2.252-4.954 4.954-4.954s4.953 2.252 4.953 4.954v55.843c0 2.702-2.251 4.953-4.953 4.953"/><path fill="#0096FA" d="M502.557 168.145c7.959 0 14.411-6.452 14.411-14.411s-6.452-14.411-14.411-14.411-14.411 6.452-14.411 14.411 6.452 14.411 14.411 14.411"/><path fill="#DDE3EC" d="M502.557 161.84a8.106 8.106 0 0 0 8.106-8.106 8.106 8.106 0 0 0-8.106-8.106 8.106 8.106 0 0 0-8.106 8.106 8.106 8.106 0 0 0 8.106 8.106"/><path fill="#0096FA" d="M502.558 86.633a5.855 5.855 0 1 0 0-11.71 5.855 5.855 0 0 0 0 11.71M451.218 108.249a5.854 5.854 0 1 0 .001-11.709 5.854 5.854 0 0 0-.001 11.709M429.602 159.589a5.856 5.856 0 1 0-.002-11.712 5.856 5.856 0 0 0 .002 11.712M451.218 210.927a5.854 5.854 0 1 0 .001-11.709 5.854 5.854 0 0 0-.001 11.709M502.558 232.544a5.855 5.855 0 1 0 0-11.71 5.855 5.855 0 0 0 0 11.71M553.897 210.927a5.854 5.854 0 1 0 .001-11.709 5.854 5.854 0 0 0-.001 11.709M575.513 159.589a5.855 5.855 0 1 0-.002-11.71 5.855 5.855 0 0 0 .002 11.71M553.897 108.249a5.854 5.854 0 1 0 .001-11.709 5.854 5.854 0 0 0-.001 11.709"/><path fill="#1967F1" d="M297.398 413.166a9.68 9.68 0 0 1 7.976 2.073 14.2 14.2 0 0 1 4.59 7.532c.348 1.408.559 2.846.629 4.294a22 22 0 0 1 0 4.386 26.7 26.7 0 0 1-2.646 8.181c-2.351 4.849-5.034 8.846-6.367 13.214l-.444 1.647-.314 1.684a8.6 8.6 0 0 0 .111 3.128 18.6 18.6 0 0 0 2.961 6.774 13.7 13.7 0 0 1-6.034-5.553 10.9 10.9 0 0 1-1.443-4.367c0-.704-.093-1.425-.13-2.147q-.055-1.083.111-2.166c.648-5.811 3.443-10.771 5.553-15.12a29.8 29.8 0 0 0 2.461-6.311c.418-2.213.573-4.468.463-6.718a12.97 12.97 0 0 0-1.851-6.237 10.65 10.65 0 0 0-5.626-4.294M281.835 429.211a6.798 6.798 0 0 1 5.552 1.444 10 10 0 0 1 3.184 5.256c.259.969.42 1.961.481 2.961a15.4 15.4 0 0 1 0 3.054 18.7 18.7 0 0 1-1.851 5.7 69 69 0 0 0-4.442 9.254l-.314 1.147c0 .389-.111.778-.222 1.166a5.5 5.5 0 0 0 0 2.184c.362 1.695 1.06 3.3 2.054 4.72a9.4 9.4 0 0 1-4.201-3.868 7.8 7.8 0 0 1-1-3.036 15 15 0 0 1 0-3.016 31.7 31.7 0 0 1 3.868-10.513 20.4 20.4 0 0 0 1.722-4.404q.227-1.138.314-2.295.069-1.193 0-2.388a8.8 8.8 0 0 0-1.277-4.33 7.4 7.4 0 0 0-3.868-3.036" opacity=".6"/><path fill="#35DE90" d="M328.872 562.3h-66.581c-5.11 0-9.291-4.181-9.291-9.29v-70.763c0-5.11 4.181-9.291 9.291-9.291h66.581c5.11 0 9.291 4.181 9.291 9.291v70.763c0 5.109-4.181 9.29-9.291 9.29"/><path fill="#35DE90" d="M335.527 550.687v-11.923c10.839 0 19.666-8.826 19.666-19.665s-8.827-19.666-19.666-19.666V487.51c17.343 0 31.589 14.092 31.589 31.589s-14.092 31.588-31.589 31.588"/></g><defs><linearGradient id="c" x1="334.943" x2="417.424" y1="924.905" y2="1062.17" gradientUnits="userSpaceOnUse"><stop offset=".26" stop-color="#072F73"/><stop offset=".366" stop-color="#072C6D"/><stop offset=".513" stop-color="#06255B"/><stop offset=".684" stop-color="#04193D"/><stop offset=".871" stop-color="#010915"/><stop offset=".956"/></linearGradient><linearGradient id="d" x1="407.611" x2="726.849" y1="638.843" y2="929.34" gradientUnits="userSpaceOnUse"><stop offset=".026" stop-color="#0096FA"/><stop offset=".641" stop-color="#1968F0"/></linearGradient><linearGradient id="e" x1="828.584" x2="868.497" y1="280.509" y2="270.765" gradientUnits="userSpaceOnUse"><stop stop-color="#8C3A03" stop-opacity=".2"/><stop offset=".938" stop-color="#763103"/></linearGradient><linearGradient id="f" x1="806.741" x2="787.194" y1="314.026" y2="285.464" gradientUnits="userSpaceOnUse"><stop stop-color="#8C3A03" stop-opacity=".13"/><stop offset="1" stop-color="#642901"/></linearGradient><linearGradient id="g" x1="827.196" x2="924.739" y1="485.352" y2="571.227" gradientUnits="userSpaceOnUse"><stop offset=".145" stop-color="#FD9BDC"/><stop offset=".653" stop-color="#A0036C"/></linearGradient><linearGradient id="h" x1="966.369" x2="923.611" y1="483.791" y2="581.216" gradientUnits="userSpaceOnUse"><stop offset=".281" stop-color="#F8BC9A" stop-opacity="0"/><stop offset=".297" stop-color="#8C3A03"/><stop offset=".79" stop-color="#732F02"/></linearGradient><clipPath id="a"><path fill="#fff" d="M0 0h1080v1080H0z"/></clipPath><filter id="b" width="267" height="69" x="667" y="1012" color-interpolation-filters="sRGB" filterUnits="userSpaceOnUse"><feFlood flood-opacity="0" result="BackgroundImageFix"/><feBlend in="SourceGraphic" in2="BackgroundImageFix" result="shape"/><feGaussianBlur result="effect1_foregroundBlur_10272_1590" stdDeviation="8"/></filter></defs></svg>