<svg width="1080" height="1080" viewBox="0 0 1080 1080" fill="none" xmlns="http://www.w3.org/2000/svg">
<path d="M70 585C70 834.632 272.367 1037 522 1037C771.633 1037 974 834.632 974 585C974 335.367 771.633 133 522 133C272.367 133 70.0001 335.367 70 585Z" fill="#C5D9FB"/>
<path d="M581.68 228.534H557.679C552.879 228.534 549.107 224.767 549.107 219.974V182.482C549.107 177.688 552.879 173.922 557.679 173.922H581.68C586.48 173.922 590.252 177.688 590.252 182.482V219.974C590.252 224.767 586.48 228.534 581.68 228.534Z" fill="#0096FA"/>
<path d="M581.68 344.945H557.679C552.879 344.945 549.107 341.179 549.107 336.385V259.861C549.107 255.067 552.879 251.301 557.679 251.301H581.68C586.48 251.301 590.252 255.067 590.252 259.861V336.385C590.252 341.179 586.48 344.945 581.68 344.945Z" fill="#0096FA"/>
<path d="M1004.1 396.134H980.097C975.297 396.134 971.525 392.368 971.525 387.575V311.05C971.525 306.257 975.297 302.49 980.097 302.49H1004.1C1008.9 302.49 1012.67 306.257 1012.67 311.05V387.575C1012.67 392.368 1008.73 396.134 1004.1 396.134Z" fill="#0096FA"/>
<path d="M928.152 961.687H633.284C601.569 961.687 575.854 936.008 575.854 904.336V136.351C575.854 104.679 601.569 79 633.284 79H928.152C959.868 79 985.583 104.679 985.583 136.351V904.336C985.412 936.008 959.868 961.687 928.152 961.687Z" fill="url(#paint0_linear_196_26712)"/>
<path d="M785.74 266.78C785.74 257.986 778.601 250.857 769.795 250.857H623.896C615.09 250.857 607.951 257.986 607.951 266.78V288.266C607.951 291.198 610.331 293.574 613.266 293.574H769.795C778.601 293.574 785.74 286.445 785.74 277.651V266.78Z" fill="white"/>
<path d="M757.586 325.419C757.586 316.625 764.725 309.496 773.531 309.496H935.471C944.277 309.496 951.416 316.625 951.416 325.419V346.905C951.416 349.836 949.037 352.213 946.101 352.213H773.531C764.725 352.213 757.586 345.084 757.586 336.29V325.419Z" fill="#B2DFFD"/>
<path d="M757.586 468.064C757.586 459.27 764.725 452.141 773.531 452.141H935.471C944.277 452.141 951.416 459.27 951.416 468.064V489.55C951.416 492.481 949.037 494.857 946.101 494.857H773.531C764.725 494.857 757.586 487.728 757.586 478.934V468.064Z" fill="#B2DFFD"/>
<path d="M849.902 384.06C849.902 375.266 842.763 368.137 833.957 368.137H623.894C615.088 368.137 607.949 375.266 607.949 384.06V430.909C607.949 433.84 610.328 436.216 613.264 436.216H833.957C842.763 436.216 849.902 429.088 849.902 420.294V384.06Z" fill="white"/>
<path d="M575.332 102.227C575.332 79.9716 592.246 61.9297 613.11 61.9297H951.529C972.393 61.9297 989.307 79.9716 989.307 102.227V116.176H575.332V102.227Z" fill="url(#paint1_linear_196_26712)"/>
<path d="M985.561 116.4H575.332V173.896H985.561V116.4Z" fill="#0096FA"/>
<path d="M961.067 143.184L967.3 136.943C967.454 136.751 967.531 136.508 967.516 136.263C967.502 136.017 967.397 135.785 967.222 135.612C967.047 135.438 966.814 135.336 966.568 135.324C966.322 135.311 966.08 135.39 965.889 135.546L959.651 141.77L953.414 135.546C953.326 135.436 953.217 135.346 953.092 135.282C952.967 135.217 952.831 135.18 952.69 135.172C952.55 135.163 952.41 135.185 952.279 135.234C952.148 135.284 952.028 135.361 951.929 135.459C951.829 135.558 951.751 135.676 951.7 135.807C951.65 135.938 951.627 136.078 951.634 136.218C951.641 136.358 951.677 136.495 951.741 136.62C951.804 136.744 951.893 136.855 952.002 136.943L958.236 143.172L952.002 149.412C951.864 149.552 951.769 149.73 951.731 149.923C951.693 150.116 951.714 150.316 951.789 150.498C951.865 150.68 951.993 150.835 952.156 150.945C952.32 151.054 952.513 151.113 952.71 151.113C952.841 151.114 952.971 151.089 953.091 151.039C953.212 150.989 953.322 150.915 953.414 150.822L959.651 144.593L965.889 150.822C965.98 150.915 966.09 150.989 966.211 151.039C966.332 151.089 966.461 151.114 966.592 151.113C966.789 151.113 966.982 151.054 967.146 150.945C967.31 150.835 967.438 150.68 967.513 150.498C967.589 150.316 967.609 150.116 967.571 149.923C967.533 149.73 967.439 149.552 967.3 149.412L961.067 143.184Z" fill="white"/>
<path d="M599.131 149.444C599.03 149.443 598.931 149.42 598.84 149.377C598.749 149.334 598.669 149.272 598.605 149.195L593.788 143.465C593.575 143.213 593.459 142.895 593.459 142.565C593.459 142.236 593.575 141.917 593.788 141.665L598.605 135.936C598.726 135.801 598.895 135.718 599.076 135.705C599.257 135.692 599.436 135.75 599.575 135.866C599.714 135.983 599.803 136.149 599.822 136.329C599.841 136.509 599.789 136.69 599.677 136.833L594.86 142.565L599.668 148.298C599.754 148.399 599.81 148.524 599.827 148.656C599.845 148.788 599.824 148.922 599.768 149.043C599.711 149.163 599.621 149.265 599.508 149.336C599.395 149.407 599.264 149.445 599.131 149.444V149.444Z" fill="white"/>
<path fill-rule="evenodd" clip-rule="evenodd" d="M630.77 162.408C634.328 162.406 637.806 161.35 640.763 159.374C643.721 157.399 646.025 154.592 647.386 151.309C648.746 148.026 649.101 144.413 648.407 140.928C647.712 137.444 645.998 134.243 643.482 131.73C640.966 129.218 637.761 127.507 634.271 126.813C630.782 126.119 627.164 126.474 623.877 127.832C620.589 129.191 617.778 131.492 615.8 134.446C613.821 137.399 612.764 140.872 612.762 144.425C612.772 149.191 614.672 153.76 618.047 157.13C621.422 160.5 625.997 162.398 630.77 162.408V162.408Z" fill="#2C2A46"/>
<g clip-path="url(#clip0_196_26712)">
<path fill-rule="evenodd" clip-rule="evenodd" d="M635.774 152.928C634.365 153.096 632.771 153.15 630.991 153.15C629.211 153.15 627.617 153.096 626.208 152.928L626.207 152.93L623.785 156.405C623.645 156.597 623.435 156.696 623.225 156.696C623.015 156.696 622.805 156.603 622.671 156.417C621.375 154.638 620.063 152.337 619.205 149.559C618.88 148.507 618.621 147.39 618.452 146.208C618.305 145.304 618.231 144.285 618.23 143.137C618.23 134.105 623.423 131.211 630.991 131.211C638.548 131.211 643.738 134.098 643.751 143.101C643.751 143.113 643.751 143.125 643.751 143.137C643.751 143.168 643.751 143.199 643.751 143.229C643.748 144.276 643.682 145.214 643.555 146.055C642.963 150.429 641.119 153.936 639.311 156.417C639.037 156.794 638.465 156.789 638.197 156.405L635.775 152.93C635.775 152.929 635.775 152.928 635.774 152.928Z" fill="#0096FA"/>
<path d="M619.391 150.141C620.289 152.82 621.625 154.982 622.67 156.417C622.944 156.795 623.516 156.789 623.784 156.406L626.206 152.93C622.886 152.64 620.406 151.681 619.391 150.141Z" fill="url(#paint2_linear_196_26712)"/>
<path d="M642.572 150.141C641.674 152.82 640.338 154.982 639.293 156.417C639.019 156.795 638.447 156.789 638.179 156.406L635.757 152.93C639.077 152.64 641.557 151.681 642.572 150.141Z" fill="url(#paint3_linear_196_26712)"/>
<path fill-rule="evenodd" clip-rule="evenodd" d="M634.076 147.614L635.375 147.614C635.369 148.026 635.081 148.357 634.726 148.357C634.371 148.357 634.082 148.026 634.076 147.614Z" fill="black"/>
<path fill-rule="evenodd" clip-rule="evenodd" d="M628.004 147.614L626.705 147.614C626.711 148.026 626.999 148.357 627.354 148.357C627.709 148.357 627.998 148.026 628.004 147.614Z" fill="black"/>
<path fill-rule="evenodd" clip-rule="evenodd" d="M621.361 140.495L621.201 139.263L624.942 139.164L624.424 140.669C624.261 141.143 623.806 141.455 623.304 141.437L622.354 141.401C621.846 141.383 621.426 140.999 621.361 140.495ZM628.597 140.495L628.756 139.263L625.016 139.164L625.534 140.669C625.697 141.143 626.152 141.455 626.653 141.437L627.604 141.401C628.112 141.383 628.532 140.999 628.597 140.495ZM623.147 145.546C622.915 145.546 622.727 145.734 622.727 145.965C622.727 146.197 622.915 146.385 623.147 146.385H638.657C638.889 146.385 639.077 146.197 639.077 145.965C639.077 145.734 638.889 145.546 638.657 145.546H623.147Z" fill="#0035B5"/>
<path fill-rule="evenodd" clip-rule="evenodd" d="M635.982 148.166L636.106 146.354L637.119 146.422L636.996 148.235L635.982 148.166Z" fill="#0065FF"/>
</g>
<path d="M647.858 138.072C650.641 138.072 652.896 135.819 652.896 133.041C652.896 130.262 650.641 128.01 647.858 128.01C645.076 128.01 642.82 130.262 642.82 133.041C642.82 135.819 645.076 138.072 647.858 138.072Z" fill="#90E6BC"/>
<path fill-rule="evenodd" clip-rule="evenodd" d="M647.855 128.658C645.431 128.658 643.466 130.62 643.466 133.04C643.466 135.461 645.431 137.423 647.855 137.423C650.279 137.423 652.244 135.461 652.244 133.04C652.244 130.62 650.279 128.658 647.855 128.658ZM642.168 133.04C642.168 129.904 644.714 127.361 647.855 127.361C650.996 127.361 653.542 129.904 653.542 133.04C653.542 136.177 650.996 138.72 647.855 138.72C644.714 138.72 642.168 136.177 642.168 133.04Z" fill="#2CC3D5"/>
<rect x="655.572" y="141.275" width="95.3647" height="6.96818" rx="3.48409" fill="white"/>
<path d="M786.811 97.4714H738.491C732.152 97.4714 727.061 93.3051 727.061 88.1185C727.061 82.9319 732.152 78.7656 738.491 78.7656H786.811C793.15 78.7656 798.242 82.9319 798.242 88.1185C798.242 93.3051 793.15 97.4714 786.811 97.4714Z" fill="#0096FA"/>
<path d="M820.489 94.2357C823.802 94.2357 826.489 91.553 826.489 88.2438C826.489 84.9346 823.802 82.252 820.489 82.252C817.175 82.252 814.488 84.9346 814.488 88.2438C814.488 91.553 817.175 94.2357 820.489 94.2357Z" fill="#F5F5F5"/>
<path fill-rule="evenodd" clip-rule="evenodd" d="M630.537 962.876H930.548C968.607 962.876 999.294 932.232 999.122 894.398V113.572C999.122 75.7378 968.435 45.0938 930.548 45.0938H630.537C592.65 45.0938 561.963 75.7378 561.963 113.572V894.398C561.963 932.232 592.65 962.876 630.537 962.876ZM633.283 945.243H928.152C959.867 945.243 985.411 919.564 985.582 887.893V119.907C985.582 88.2355 959.867 62.5561 928.152 62.5561H633.283C601.568 62.5561 575.853 88.2355 575.853 119.907V887.893C575.853 919.564 601.568 945.243 633.283 945.243Z" fill="url(#paint4_linear_196_26712)"/>
<path d="M424.919 50H74.0807C64.6863 50 57 55.4941 57 62.209V273.791C57 280.506 64.6863 286 74.0807 286H424.919C434.314 286 442 280.506 442 273.791V62.209C442 55.372 434.314 50 424.919 50Z" fill="url(#paint5_linear_196_26712)"/>
<path d="M425.04 306H74.0863C64.6889 306 57 313.689 57 323.086V356.747C57 366.144 64.6889 373.833 74.0863 373.833H425.04C434.437 373.833 442.126 366.144 442.126 356.747V323.086C442.126 313.689 434.437 306 425.04 306Z" fill="url(#paint6_linear_196_26712)"/>
<path d="M409.834 81.9492H89.4648V239.658H409.834V81.9492Z" fill="#0096FA"/>
<path d="M289.885 130.477C305.549 130.477 318.248 117.779 318.248 102.114C318.248 86.4497 305.549 73.75 289.885 73.75C274.22 73.75 261.521 86.4497 261.521 102.114C261.521 117.779 274.22 130.477 289.885 130.477Z" fill="#FCE173"/>
<path d="M75.7949 129.277C80.0665 118.684 89.9766 110.482 102.108 108.774C114.41 107.065 126.029 112.19 133.205 121.246L75.7949 129.277Z" fill="#35DE90"/>
<path d="M79.7266 82.2896C91.687 76.9928 106.21 78.0186 117.487 86.391C128.764 94.7633 134.403 108.09 133.036 121.076L79.7266 82.2896Z" fill="#35DE90"/>
<path d="M133.034 121.248C128.421 110.654 129.275 98.0102 136.622 87.9293C143.969 77.8483 155.588 73.0641 167.036 74.2602L133.034 121.248Z" fill="#35DE90"/>
<path d="M132.863 121.079C136.451 112.023 144.653 104.846 154.905 103.308C165.327 101.599 175.237 105.872 181.388 113.39L132.863 121.079Z" fill="#35DE90"/>
<path d="M103.988 160.718C100.058 151.662 100.913 140.898 107.064 132.526C113.215 123.982 123.296 120.052 133.035 121.077L103.988 160.718Z" fill="#35DE90"/>
<path d="M127.908 114.755L136.11 113.389L171.308 218.64L157.297 220.862L127.908 114.755Z" fill="#35DE90"/>
<path d="M221.883 151.663L198.646 113.559L175.238 75.457L152 113.559L128.592 151.663V239.828H221.883V151.663Z" fill="#072F73"/>
<path d="M225.643 75.457H175.238V239.828H225.643V75.457Z" fill="#072F73"/>
<path d="M272.459 151.663L249.051 113.559L225.814 75.457L202.405 113.559L179.168 151.663V239.828H272.459V151.663Z" fill="white"/>
<path d="M238.286 168.92H213.34V219.837H238.286V168.92Z" fill="#072F73"/>
<path d="M354.127 166.7L338.75 144.658H289.883V240H292.446H323.201H369.676V188.913L354.127 166.7Z" fill="#072F73"/>
<path d="M258.957 188.913L274.335 166.7L289.883 144.658L305.261 166.7L320.639 188.913V240H258.957V188.913Z" fill="#35DE90"/>
<path d="M281.532 228.326L298.105 228.326L298.105 198.767L281.532 198.767L281.532 228.326Z" fill="#072F73"/>
<path d="M427.091 124.325C421.282 114.756 410.859 108.604 398.899 108.775C386.938 108.946 376.686 115.61 371.219 125.179L427.091 124.325Z" fill="#35DE90"/>
<path d="M416.157 80.2414C403.855 76.995 390.357 80.2424 380.789 89.8108C371.22 99.3791 367.974 112.878 371.22 125.18L416.157 80.2414Z" fill="#35DE90"/>
<path d="M371.39 125.351C374.294 114.586 371.39 102.626 363.017 94.2532C354.645 85.8809 342.684 82.9772 331.92 85.8819L371.39 125.351Z" fill="#35DE90"/>
<path d="M371.561 125.179C366.776 116.977 357.892 111.51 347.811 111.51C337.73 111.51 328.845 116.977 324.061 125.179H371.561Z" fill="#35DE90"/>
<path d="M404.879 158.499C407.271 149.443 404.879 139.19 397.703 132.185C390.526 125.009 380.445 122.788 371.219 125.18L404.879 158.499Z" fill="#35DE90"/>
<path d="M375.32 118.346H367.289L347.811 239.829H361.48L375.32 118.346Z" fill="#35DE90"/>
<path d="M97.8379 194.037C101.768 187.545 108.944 183.102 117.145 183.102C125.347 183.102 132.523 187.544 136.282 194.208L97.8379 194.037Z" fill="#35DE90"/>
<path d="M105.014 163.623C113.386 161.402 122.783 163.451 129.447 169.944C136.111 176.437 138.332 185.835 136.282 194.207L105.014 163.623Z" fill="#35DE90"/>
<path d="M136.11 194.38C134.06 187.033 135.939 178.831 141.578 173.022C147.216 167.213 155.418 165.162 162.936 167.042L136.11 194.38Z" fill="#35DE90"/>
<path d="M136.111 194.208C139.358 188.57 145.338 184.811 152.343 184.641C159.349 184.641 165.329 188.228 168.746 193.866L136.111 194.208Z" fill="#35DE90"/>
<path d="M113.386 217.446C111.678 211.125 113.215 204.289 118.17 199.334C123.125 194.379 129.96 192.671 136.282 194.38L113.386 217.446Z" fill="#35DE90"/>
<path d="M147.902 239.999L139.017 189.424L133.379 189.594L139.701 239.999H147.902Z" fill="#35DE90"/>
<path d="M1053.4 758.898V637.421C1053.4 626.733 1044.67 618 1033.98 618H904.944C894.256 618 885.524 626.733 885.524 637.421V658.927H858.674C854.503 658.927 852.417 664.01 855.415 666.878L885.524 696.986V758.768C885.524 769.455 894.256 778.188 904.944 778.188H1033.98C1044.67 778.318 1053.4 769.586 1053.4 758.898Z" fill="#35DE90"/>
<path d="M965.837 729.496C959.528 728.7 954.75 726.617 951.504 723.249C948.319 719.819 946.727 715.286 946.727 709.651H959.038C959.038 713.204 960.171 715.837 962.437 717.552C964.765 719.267 967.858 720.125 971.717 720.125C979.373 720.125 983.201 717.706 983.201 712.867C983.201 711.213 982.711 709.896 981.731 708.916C980.751 707.875 979.342 707.017 977.505 706.344C975.667 705.67 972.972 704.904 969.42 704.047C964.459 702.944 960.539 701.78 957.66 700.555C954.842 699.269 952.668 697.524 951.137 695.319C949.605 693.052 948.84 690.082 948.84 686.407C948.84 681.935 950.34 678.383 953.342 675.749C956.404 673.115 960.569 671.492 965.837 670.88L965.377 660.865H976.494L975.943 670.88C981.762 671.615 986.111 673.575 988.989 676.76C991.929 679.883 993.43 683.926 993.491 688.887H981.364C981.302 686.07 980.353 683.895 978.515 682.364C976.739 680.833 974.136 680.067 970.706 680.067C967.827 680.067 965.53 680.557 963.815 681.537C962.1 682.517 961.243 684.079 961.243 686.223C961.243 687.754 961.641 688.979 962.437 689.898C963.234 690.817 964.428 691.582 966.02 692.195C967.674 692.746 970.124 693.45 973.37 694.308C978.577 695.533 982.681 696.727 985.682 697.891C988.683 699.055 991.072 700.739 992.848 702.944C994.624 705.088 995.512 707.997 995.512 711.672C995.512 716.756 993.828 720.86 990.459 723.984C987.091 727.107 982.252 728.976 975.943 729.588L976.494 739.511H965.377L965.837 729.496Z" fill="#1968F0"/>
<path d="M42.0002 848.898V727.421C42.0002 716.733 50.7332 708 61.4211 708H190.458C201.146 708 209.879 716.733 209.879 727.421V748.927H236.729C240.9 748.927 242.985 754.01 239.987 756.878L209.879 786.986V848.768C209.879 859.455 201.146 868.188 190.458 868.188H61.4211C50.7332 868.318 42.0002 859.586 42.0002 848.898Z" fill="#F5F5F5"/>
<path fill-rule="evenodd" clip-rule="evenodd" d="M155.656 782.425C155.656 763.129 140.022 747.494 120.725 747.494C101.429 747.494 85.794 763.129 85.794 782.425H91.0076C91.0076 766.008 104.308 752.708 120.725 752.708C137.142 752.708 150.443 766.008 150.443 782.425H155.656Z" fill="#072F73"/>
<path fill-rule="evenodd" clip-rule="evenodd" d="M96.5721 827.232C102.856 830.365 111.352 832.215 120.594 832.215V827.001C111.978 827.001 104.313 825.266 98.8985 822.566C93.3341 819.792 90.8761 816.426 90.8761 813.445H85.6625C85.6625 819.458 90.4384 824.174 96.5721 827.232Z" fill="#072F73"/>
<path d="M163.998 815.01H150.182V781.252H163.998C169.994 781.252 174.816 786.075 174.816 792.07V804.322C174.816 810.187 169.994 815.01 163.998 815.01Z" fill="#1968F0"/>
<path d="M77.1916 815.01H91.0078V781.252H77.1916C71.196 781.252 66.3733 786.075 66.3733 792.07V804.322C66.3733 810.187 71.196 815.01 77.1916 815.01Z" fill="#1968F0"/>
<path d="M116.946 835.603C113.634 835.603 110.95 832.918 110.95 829.607C110.95 826.296 113.634 823.611 116.946 823.611C120.257 823.611 122.941 826.296 122.941 829.607C122.941 832.918 120.257 835.603 116.946 835.603Z" fill="#072F73"/>
<g clip-path="url(#clip1_196_26712)">
<path d="M768.557 735.345C763.146 702.228 741.391 675.099 711.97 664.712L610.97 628.663V600.557H531.501V628.663L518.651 633.307L430.501 664.712C401.081 675.222 379.325 702.35 373.915 735.345L340.887 935.388H531.614H611.196H801.585L768.557 735.345Z" fill="#FBCF23"/>
<path d="M440.871 788.746V935.021L559.681 935.51L440.871 788.746Z" fill="url(#paint7_linear_196_26712)"/>
<path d="M561.337 559.864H664.233C670.547 559.864 675.719 553.277 675.719 545.236V446.18C675.719 438.139 670.547 431.553 664.233 431.553H561.337C555.023 431.553 549.852 438.139 549.852 446.18V545.236C549.852 553.277 555.023 559.864 561.337 559.864Z" fill="#141414"/>
<path d="M466.018 559.864H568.915C575.229 559.864 580.4 553.277 580.4 545.236V446.18C580.4 438.139 575.229 431.553 568.915 431.553H466.018C459.705 431.553 454.533 438.139 454.533 446.18V545.236C454.533 553.277 459.705 559.864 466.018 559.864Z" fill="#141414"/>
<path fill-rule="evenodd" clip-rule="evenodd" d="M538.292 394.893H515.155L508.268 403.813V579.294L515.155 588.215H531.486V623.409H545.533H597.308H612.139V588.215H627.329L634.135 579.294V403.813L627.329 394.893H605.252H538.292Z" fill="#FCAA73"/>
<path d="M487.087 543.977H516.858V497.541H476.531V533.448C476.531 539.253 481.268 543.977 487.087 543.977Z" fill="#FCAA73"/>
<path d="M649.275 543.977H619.504V497.541H659.83V533.448C659.83 539.253 655.094 543.977 649.275 543.977Z" fill="#FCAA73"/>
<path d="M629.849 394.893L639.609 403.813L640.277 504.385L639.475 504.874L542.147 415.422L492.414 470.168V403.813L502.174 394.893H629.849Z" fill="#141414"/>
<path d="M627.083 539.944H602.643V501.695H635.759V531.39C635.759 536.156 631.849 539.944 627.083 539.944Z" fill="#FCAA73"/>
<path d="M560.604 588.096H530.176V600.316H560.604V588.096Z" fill="url(#paint8_linear_196_26712)"/>
<path d="M517.91 612.074H621.781V652.401H517.91V612.074Z" fill="#FACF23"/>
<path d="M673.207 827.063L656.176 723.738L774.828 716.926L801.511 827.063H673.207Z" fill="#FBCF23"/>
<path d="M777.1 733.393C777.1 773.213 744.82 805.493 705 805.493C665.181 805.493 632.9 773.213 632.9 733.393C632.9 693.573 665.181 661.293 705 661.293C744.82 661.293 777.1 693.573 777.1 733.393Z" fill="#FACF23"/>
<path fill-rule="evenodd" clip-rule="evenodd" d="M794.624 825.133L809.685 910.742C810.947 916.025 811.615 921.539 811.615 927.209C811.615 966.214 779.995 997.833 740.991 997.833C738.268 997.833 735.581 997.679 732.938 997.379H501.455V881.565H684.16L674.382 825.133H794.624Z" fill="#FCAA73"/>
<path d="M672.377 743.351L604.884 746.115C600.661 746.269 597.359 749.878 597.513 754.101L598.972 789.805C599.125 794.028 602.734 797.33 606.957 797.177L674.45 794.412C678.673 794.259 681.975 790.65 681.821 786.427L680.362 750.723C680.209 746.423 676.6 743.121 672.377 743.351Z" fill="url(#paint9_linear_196_26712)"/>
<path d="M623.158 788.268C632.317 788.268 639.743 780.843 639.743 771.683C639.743 762.523 632.317 755.098 623.158 755.098C613.998 755.098 606.572 762.523 606.572 771.683C606.572 780.843 613.998 788.268 623.158 788.268Z" fill="#C5D9FB"/>
<path d="M623.169 772.586C626.432 772.452 628.978 769.94 628.857 766.973C628.736 764.007 625.993 761.711 622.73 761.844C619.467 761.978 616.921 764.49 617.042 767.456C617.163 770.423 619.906 772.719 623.169 772.586Z" fill="#1968F0"/>
<path d="M623.849 788.268C628.456 788.115 632.603 785.965 635.367 782.74C633.447 777.979 628.687 774.677 623.312 774.908C617.86 775.138 613.407 778.824 611.871 783.738C614.942 786.656 619.166 788.422 623.849 788.268Z" fill="#1968F0"/>
<path d="M672.532 778.825L648.575 779.824C647.193 779.9 645.965 778.825 645.965 777.367L645.734 770.994C645.658 769.611 646.733 768.383 648.191 768.383L672.148 767.385C673.53 767.308 674.759 768.383 674.759 769.842L674.989 776.215C675.066 777.597 673.914 778.749 672.532 778.825Z" fill="#1968F0"/>
<path d="M661.323 765.005L646.81 765.619C646.043 765.619 645.428 765.082 645.428 764.314L645.352 762.932C645.352 762.164 645.889 761.55 646.657 761.55L661.169 760.936C661.937 760.936 662.551 761.473 662.551 762.241L662.628 763.623C662.628 764.391 662.09 765.005 661.323 765.005Z" fill="#C5D9FB"/>
<path d="M653.557 738.284L622.951 739.536C621.647 739.615 620.727 740.711 620.727 741.964L620.957 748.229C621.033 749.56 622.107 750.499 623.335 750.499L653.94 749.247C655.244 749.168 656.165 748.072 656.165 746.819L655.935 740.554C655.935 739.223 654.861 738.205 653.557 738.284Z" fill="#A3A3A3"/>
<path d="M470.687 827.063L487.719 723.738L369.066 716.926L342.384 827.063H470.687Z" fill="#FACF23"/>
<path d="M366.794 733.393C366.794 773.213 399.075 805.493 438.894 805.493C478.714 805.493 510.994 773.213 510.994 733.393C510.994 693.573 478.714 661.293 438.894 661.293C399.075 661.293 366.794 693.573 366.794 733.393Z" fill="#FACF23"/>
<path fill-rule="evenodd" clip-rule="evenodd" d="M349.268 825.133L334.208 910.742C332.946 916.025 332.278 921.539 332.278 927.209C332.278 958.606 352.765 985.217 381.101 994.404V997.379H394.849C397.491 997.679 400.178 997.833 402.901 997.833C405.624 997.833 408.311 997.679 410.954 997.379H621.812V881.565H459.732L469.511 825.133H349.268Z" fill="#FCAA73"/>
<path d="M816.249 587.971L747.397 1042.56H396.113L328.666 587.971H816.249Z" fill="url(#paint10_linear_196_26712)"/>
<path fill-rule="evenodd" clip-rule="evenodd" d="M473.781 853.146H365.804C360.13 853.146 355.845 858.357 356.887 863.914L392.787 1048.71C393.713 1052.99 397.419 1056 401.704 1056H437.881H705.809H741.986C746.271 1056 749.977 1052.99 750.903 1048.71L786.803 863.914C787.845 858.357 783.56 853.146 777.886 853.146H669.909H473.781Z" fill="#0C4EC0"/>
<path d="M577.516 921.879C554.77 921.879 542.57 930.46 542.57 952.792C542.57 972.746 552.909 988.151 577.516 988.151C578.136 988.151 579.377 988.151 579.377 988.151C579.377 991.046 579.377 994.768 579.377 997.973C579.377 998.8 579.997 999.524 580.927 999.524C581.651 999.524 581.858 999.214 582.478 998.697C586.821 994.975 599.641 983.292 599.641 983.292C606.051 977.192 612.461 969.955 612.461 952.792C612.461 930.46 600.261 921.879 577.516 921.879Z" fill="#0096FA"/>
<g opacity="0.2" filter="url(#filter0_f_196_26712)">
<path d="M409.997 1058.33C409.997 1064.04 368.061 1068.67 316.331 1068.67C264.6 1068.67 222.664 1064.04 222.664 1058.33C222.664 1052.63 264.6 1048 316.331 1048C368.061 1048 409.997 1052.63 409.997 1058.33Z" fill="#0A0F1A"/>
</g>
<path d="M372.969 982.063H244.717V947.15H372.969C377.197 947.15 381.252 948.83 384.241 951.82C387.231 954.809 388.911 958.864 388.911 963.092V966.174C388.897 970.393 387.211 974.434 384.223 977.413C381.234 980.391 377.188 982.063 372.969 982.063Z" fill="#F5F8F9"/>
<path fill-rule="evenodd" clip-rule="evenodd" d="M380.482 952.876H239.645V944.666H384.808C393.912 944.666 393.018 951.351 393.018 960.435V967.822C393.018 976.997 393.925 983.591 384.808 983.591H239.645V975.381H380.482C386.085 975.381 384.808 971.506 384.808 967.822V960.435C384.808 956.819 386.045 952.876 380.482 952.876Z" fill="#1968F0"/>
<path d="M372.969 1059.24H244.717V1024.33H372.969C377.197 1024.33 381.252 1026.01 384.241 1029C387.231 1031.99 388.911 1036.04 388.911 1040.27V1043.35C388.897 1047.57 387.211 1051.61 384.223 1054.59C381.234 1057.57 377.188 1059.24 372.969 1059.24Z" fill="#F5F8F9"/>
<path fill-rule="evenodd" clip-rule="evenodd" d="M380.482 1030.06H239.645V1021.85H384.808C393.912 1021.85 393.018 1028.53 393.018 1037.61V1045C393.018 1054.18 393.925 1060.77 384.808 1060.77H239.645V1052.56H380.482C386.085 1052.56 384.808 1048.69 384.808 1045V1037.61C384.808 1034 386.045 1030.06 380.482 1030.06Z" fill="#454545"/>
<path d="M355.893 1020.28H227.641V985.363H355.893C360.121 985.363 364.176 987.043 367.165 990.033C370.155 993.022 371.834 997.077 371.834 1001.31V1004.39C371.82 1008.61 370.135 1012.65 367.146 1015.63C364.158 1018.6 360.111 1020.28 355.893 1020.28Z" fill="#F5F8F9"/>
<path fill-rule="evenodd" clip-rule="evenodd" d="M363.405 991.089H222.568V982.879H367.732C376.836 982.879 375.942 989.564 375.942 998.648V1006.03C375.942 1015.21 376.849 1021.8 367.732 1021.8H222.568V1013.59H363.405C369.008 1013.59 367.732 1009.72 367.732 1006.03V998.648C367.732 995.032 368.968 991.089 363.405 991.089Z" fill="#0096FA"/>
<g opacity="0.2" filter="url(#filter1_f_196_26712)">
<path d="M839.863 1048.71C839.863 1052.88 821.985 1056.26 799.931 1056.26C777.878 1056.26 760 1052.88 760 1048.71C760 1044.55 777.878 1041.17 799.931 1041.17C821.985 1041.17 839.863 1044.55 839.863 1048.71Z" fill="#0A0F1A"/>
</g>
<path opacity="0.08" d="M802.257 950.382C802.257 950.382 795.681 943.017 794.473 942.021C791.42 939.763 788.517 937.311 785.782 934.679C785.259 934.113 784.799 933.492 784.411 932.827C784.035 932.219 783.79 931.541 783.69 930.835C783.584 930.097 783.681 929.345 783.969 928.658C784.287 927.91 784.772 927.244 785.387 926.712C787.174 925.251 789.225 924.143 791.428 923.446C795.098 922.175 798.857 921.177 802.675 920.459C804.421 920.111 806.138 919.631 807.811 919.023C808.704 918.711 809.537 918.249 810.274 917.656C810.415 917.54 810.533 917.398 810.622 917.239C810.633 917.194 810.633 917.146 810.622 917.1C810.622 917.1 810.622 917.1 810.622 916.962C810.554 916.82 810.468 916.688 810.367 916.568C809.263 915.54 807.958 914.751 806.533 914.252C804.681 913.511 802.746 912.997 800.77 912.723C797.779 912.356 794.83 911.704 791.963 910.778C790.01 910.163 788.217 909.127 786.711 907.744C786.113 907.152 785.632 906.452 785.294 905.682C784.97 904.954 784.811 904.163 784.829 903.366C784.907 901.849 785.469 900.397 786.432 899.22C788.494 896.79 791.164 894.944 794.17 893.87C795.373 893.392 796.618 893.028 797.888 892.782L798.818 892.666C800.468 892.666 803.465 892.666 802.722 894.982C802.164 896.742 801.072 896.719 799.352 896.997L798.678 897.113C797.682 897.293 796.703 897.557 795.751 897.9C793.483 898.68 791.441 900 789.802 901.745C789.393 902.229 789.12 902.812 789.012 903.436C789.003 903.643 789.043 903.849 789.128 904.038C789.247 904.343 789.429 904.619 789.662 904.849C790.72 905.811 791.972 906.538 793.334 906.979C798.26 908.832 803.001 908.786 807.95 910.893C809.932 911.665 811.7 912.895 813.109 914.483C813.42 914.872 813.664 915.311 813.829 915.78C814.032 916.279 814.112 916.819 814.062 917.355C814.028 917.912 813.861 918.452 813.574 918.93C813.281 919.411 812.912 919.841 812.481 920.204C811.42 921.026 810.225 921.66 808.949 922.08C807.092 922.693 805.188 923.157 803.256 923.47C799.56 924.089 795.905 924.932 792.311 925.994C790.41 926.529 788.617 927.392 787.013 928.542C786.645 928.835 786.337 929.197 786.107 929.607C785.973 929.913 785.917 930.247 785.944 930.58C785.994 931.011 786.128 931.428 786.339 931.807C786.626 932.351 786.968 932.864 787.362 933.336C789.903 936.026 792.604 938.563 795.448 940.933C796.634 942.044 802.977 948.46 802.257 950.382Z" fill="black"/>
<path opacity="0.08" d="M811.262 950.139C811.262 950.139 811.262 949.767 811.379 949.721C811.489 948.752 811.336 947.771 810.936 946.881C810.519 946.054 809.941 945.319 809.236 944.717C807.45 943.35 805.522 942.18 803.485 941.226C801.338 940.25 799.333 938.99 797.523 937.479C796.703 936.757 796.058 935.857 795.637 934.849C795.217 933.751 795.128 932.554 795.381 931.405C795.504 930.763 795.803 930.167 796.242 929.683C796.693 929.184 797.22 928.76 797.803 928.426C799.19 927.684 800.67 927.128 802.204 926.774C805.743 925.913 809.19 925.424 812.892 924.703C814.338 924.435 815.756 924.038 817.13 923.516C817.591 923.334 818.028 923.1 818.434 922.817C818.688 922.655 818.896 922.43 819.04 922.166C819.146 921.983 819.187 921.77 819.156 921.561C819.08 921.16 818.922 920.78 818.69 920.444C818.178 919.69 817.585 918.996 816.921 918.372C816.199 917.674 814.755 916.511 815.593 915.487C816.432 914.463 818.155 915.882 818.877 916.557C819.711 917.344 820.439 918.235 821.042 919.21C821.451 919.849 821.706 920.574 821.787 921.328C821.857 922.022 821.71 922.721 821.368 923.329C821.02 923.904 820.551 924.396 819.994 924.772C819.4 925.155 818.768 925.474 818.108 925.727C816.595 926.267 815.036 926.672 813.451 926.937C809.888 927.565 806.325 927.961 802.786 928.729C801.436 928.983 800.128 929.422 798.897 930.032C798.48 930.236 798.101 930.512 797.779 930.846C797.54 931.096 797.364 931.399 797.267 931.731C797.034 932.568 797.034 933.453 797.267 934.291C797.57 935.098 798.047 935.829 798.664 936.432C800.315 937.9 802.146 939.151 804.113 940.156C806.191 941.224 808.124 942.554 809.865 944.112C810.601 944.835 811.173 945.708 811.542 946.672C811.867 947.678 811.867 948.761 811.542 949.767C811.542 949.767 811.262 950.186 811.262 950.139Z" fill="black"/>
<rect x="777.369" y="954.971" width="51.679" height="9.41814" rx="4.70907" fill="#141414"/>
<rect x="773.744" y="961.248" width="58.6822" height="9.41814" rx="2.66667" fill="#141414"/>
<path fill-rule="evenodd" clip-rule="evenodd" d="M772.178 969.098L780.088 1041.91C780.602 1046.65 784.602 1050.24 789.366 1050.24H801.277H804.417H816.328C821.092 1050.24 825.092 1046.65 825.606 1041.91L833.516 969.098H804.417H801.277H772.178Z" fill="#E0E0E0"/>
<path fill-rule="evenodd" clip-rule="evenodd" d="M773.75 985.883L779.063 1032.73H801.131H804.085H826.757L831.466 985.883H804.085H801.131H773.75Z" fill="#072F73"/>
<rect x="770.607" y="965.354" width="65.2025" height="5.3128" rx="2.6564" fill="#141414"/>
<path d="M382.958 773.125C384.371 771.624 385.466 769.85 386.176 767.91C386.886 765.971 387.196 763.907 387.088 761.843C386.981 759.779 386.457 757.759 385.548 755.905C384.64 754.051 383.367 752.402 381.805 751.057L381.05 750.395C377.827 747.613 373.664 746.179 369.42 746.389C365.176 746.6 361.175 748.438 358.24 751.526C356.815 753.022 355.711 754.794 354.994 756.735C354.277 758.676 353.963 760.743 354.071 762.811C354.179 764.878 354.707 766.901 355.622 768.755C356.537 770.61 357.82 772.257 359.392 773.594L360.147 774.256C363.37 777.039 367.533 778.472 371.777 778.262C376.021 778.052 380.023 776.213 382.958 773.125Z" fill="#636363"/>
<path d="M370.262 804.229L385.99 818.021L430.65 770.119L414.922 756.327C409.651 751.788 403.133 748.962 396.23 748.223C389.328 747.484 382.364 748.867 376.26 752.189C373.131 753.876 370.299 756.065 367.874 758.671C364.954 761.766 362.692 765.425 361.225 769.426C359.758 773.427 359.116 777.687 359.34 781.945C359.563 786.203 360.647 790.371 362.524 794.195C364.402 798.019 367.035 801.419 370.262 804.187V804.229Z" fill="#0096FA"/>
<path d="M385.166 817.8C389.915 822.062 403.941 814.945 416.486 801.884C429.03 788.822 435.385 774.767 430.636 770.505C426.889 767.126 417.337 770.864 407.304 779.043C404.49 781.342 401.809 783.801 399.275 786.408C396.38 789.433 393.702 792.659 391.26 796.063C384.329 805.815 381.584 814.573 385.166 817.8Z" fill="#1E6BF1"/>
<path d="M391.315 795.994C393.168 797.994 395.628 799.319 398.311 799.76C400.994 800.202 403.747 799.736 406.138 798.435C407.485 797.724 408.675 796.745 409.637 795.559C410.598 794.372 411.31 793.003 411.731 791.532C412.151 790.062 412.272 788.521 412.084 787.003C411.896 785.485 411.405 784.02 410.639 782.698C409.798 781.247 408.651 779.999 407.277 779.043C404.472 781.342 401.8 783.801 399.275 786.408C396.402 789.412 393.742 792.615 391.315 795.994Z" fill="white"/>
<path fill-rule="evenodd" clip-rule="evenodd" d="M345.636 734.836L257.541 793.803L299.288 929.226L307.752 926.616L267.948 797.496L344.987 745.929L359.77 758.55L365.521 751.814L345.636 734.836Z" fill="#636363"/>
<path d="M346.393 751.002C340.783 751.002 336.236 746.599 336.236 741.168C336.236 735.737 340.783 731.334 346.393 731.334C352.002 731.334 356.549 735.737 356.549 741.168C356.549 746.599 352.002 751.002 346.393 751.002Z" fill="#636363"/>
<path d="M341.314 741.168C341.314 742.521 341.849 743.819 342.802 744.776C343.754 745.733 345.046 746.271 346.393 746.271C347.739 746.271 349.031 745.733 349.983 744.776C350.936 743.819 351.471 742.521 351.471 741.168C351.471 739.814 350.936 738.516 349.983 737.559C349.031 736.602 347.739 736.064 346.393 736.064C345.046 736.064 343.754 736.602 342.802 737.559C341.849 738.516 341.314 739.814 341.314 741.168Z" fill="#8C8C8C"/>
<path d="M262.467 944.678H367.516C367.516 939.114 365.316 933.778 361.401 929.844C357.487 925.909 352.177 923.699 346.64 923.699H283.343C277.806 923.699 272.496 925.909 268.582 929.844C264.667 933.778 262.467 939.114 262.467 944.678Z" fill="#0096FA"/>
<path d="M326.906 918.459H345.859V924.224H326.906V918.459Z" fill="#636363"/>
<path d="M263.553 810.766C255.7 810.766 249.334 804.604 249.334 797.001C249.334 789.399 255.7 783.236 263.553 783.236C271.406 783.236 277.771 789.399 277.771 797.001C277.771 804.604 271.406 810.766 263.553 810.766Z" fill="#636363"/>
<path d="M256.442 797.001C256.393 798.424 256.767 799.829 257.518 801.036C258.269 802.243 259.361 803.197 260.655 803.776C261.949 804.355 263.386 804.532 264.78 804.285C266.175 804.038 267.465 803.378 268.484 802.39C269.503 801.401 270.205 800.129 270.5 798.737C270.795 797.345 270.67 795.896 270.14 794.576C269.61 793.256 268.699 792.125 267.525 791.328C266.352 790.532 264.968 790.105 263.551 790.105C262.634 790.088 261.722 790.254 260.868 790.591C260.014 790.929 259.235 791.432 258.575 792.073C257.915 792.713 257.387 793.478 257.021 794.324C256.655 795.169 256.458 796.079 256.442 797.001Z" fill="#8C8C8C"/>
</g>
<path d="M119 590.898V469.421C119 458.733 127.733 450 138.421 450H267.458C278.146 450 286.879 458.733 286.879 469.421V490.927H313.729C317.9 490.927 319.985 496.01 316.987 498.878L286.879 528.986V590.768C286.879 601.455 278.146 610.188 267.458 610.188H138.421C127.733 610.319 119 601.586 119 590.898Z" fill="#1968F0"/>
<path d="M223.533 511.65H247.516V570.825H223.533V511.65Z" fill="#C5D9FB"/>
<path d="M189.254 526.248H213.236V570.824H189.254V526.248Z" fill="#0096FA"/>
<path d="M154.975 494.055H178.957V570.955H154.975V494.055Z" fill="#35DE90"/>
<defs>
<filter id="filter0_f_196_26712" x="213.331" y="1038.67" width="206.001" height="39.3327" filterUnits="userSpaceOnUse" color-interpolation-filters="sRGB">
<feFlood flood-opacity="0" result="BackgroundImageFix"/>
<feBlend mode="normal" in="SourceGraphic" in2="BackgroundImageFix" result="shape"/>
<feGaussianBlur stdDeviation="4.66667" result="effect1_foregroundBlur_196_26712"/>
</filter>
<filter id="filter1_f_196_26712" x="750.667" y="1031.83" width="98.5299" height="33.7585" filterUnits="userSpaceOnUse" color-interpolation-filters="sRGB">
<feFlood flood-opacity="0" result="BackgroundImageFix"/>
<feBlend mode="normal" in="SourceGraphic" in2="BackgroundImageFix" result="shape"/>
<feGaussianBlur stdDeviation="4.66667" result="effect1_foregroundBlur_196_26712"/>
</filter>
<linearGradient id="paint0_linear_196_26712" x1="426.615" y1="-189.708" x2="1005.83" y2="1055.32" gradientUnits="userSpaceOnUse">
<stop stop-color="white"/>
<stop offset="0.147721" stop-color="#F7FAFE"/>
<stop offset="0.304044" stop-color="#E2ECFD"/>
<stop offset="0.677979" stop-color="#FAFCFF"/>
<stop offset="0.967346" stop-color="#C5D9FB"/>
</linearGradient>
<linearGradient id="paint1_linear_196_26712" x1="818.847" y1="123.659" x2="783.341" y2="35.7072" gradientUnits="userSpaceOnUse">
<stop stop-color="#0D4FC1"/>
<stop offset="0.482673" stop-color="#135CD8"/>
<stop offset="1" stop-color="#1A69F1"/>
</linearGradient>
<linearGradient id="paint2_linear_196_26712" x1="626.349" y1="152.3" x2="619.702" y2="153.795" gradientUnits="userSpaceOnUse">
<stop offset="0.0105566" stop-color="#0012FF" stop-opacity="0.2"/>
<stop offset="0.5203" stop-color="#0012FF" stop-opacity="0"/>
</linearGradient>
<linearGradient id="paint3_linear_196_26712" x1="635.614" y1="152.3" x2="642.261" y2="153.795" gradientUnits="userSpaceOnUse">
<stop offset="0.0105566" stop-color="#0012FF" stop-opacity="0.2"/>
<stop offset="0.5203" stop-color="#0012FF" stop-opacity="0"/>
</linearGradient>
<linearGradient id="paint4_linear_196_26712" x1="497.513" y1="236.008" x2="1162.51" y2="867.066" gradientUnits="userSpaceOnUse">
<stop stop-color="#1968F0"/>
<stop offset="0.2912" stop-color="#125BD8"/>
<stop offset="0.5885" stop-color="#0E51C6"/>
<stop offset="0.8048" stop-color="#0C4EC0"/>
</linearGradient>
<linearGradient id="paint5_linear_196_26712" x1="482.655" y1="330.595" x2="196.638" y2="-59.9004" gradientUnits="userSpaceOnUse">
<stop stop-color="white"/>
<stop offset="0.2431" stop-color="#F7FAFE"/>
<stop offset="0.6155" stop-color="#E2ECFD"/>
<stop offset="1" stop-color="#C5D9FB"/>
</linearGradient>
<linearGradient id="paint6_linear_196_26712" x1="203.22" y1="242.687" x2="295.895" y2="437.186" gradientUnits="userSpaceOnUse">
<stop offset="0.2356" stop-color="#1968F0"/>
<stop offset="0.7158" stop-color="#1056CE"/>
<stop offset="0.9878" stop-color="#0C4EC0"/>
</linearGradient>
<linearGradient id="paint7_linear_196_26712" x1="511.302" y1="851.739" x2="415.627" y2="928.749" gradientUnits="userSpaceOnUse">
<stop offset="0.1453" stop-color="#FACF23"/>
<stop offset="0.989583" stop-color="#93822D"/>
</linearGradient>
<linearGradient id="paint8_linear_196_26712" x1="558.253" y1="613.008" x2="531.939" y2="574.559" gradientUnits="userSpaceOnUse">
<stop offset="0.635417" stop-color="#F89A9A" stop-opacity="0"/>
<stop offset="1" stop-color="#753103"/>
</linearGradient>
<linearGradient id="paint9_linear_196_26712" x1="679.887" y1="797.166" x2="603.109" y2="745.792" gradientUnits="userSpaceOnUse">
<stop stop-color="#C5D9FB"/>
<stop offset="0.1836" stop-color="#D9E4F9"/>
<stop offset="0.4073" stop-color="#E9EEF7"/>
<stop offset="0.66" stop-color="#F2F3F5"/>
<stop offset="1" stop-color="#F5F5F5"/>
</linearGradient>
<linearGradient id="paint10_linear_196_26712" x1="571.755" y1="1145" x2="572.459" y2="704.424" gradientUnits="userSpaceOnUse">
<stop offset="0.108095" stop-color="#DAF2F4"/>
<stop offset="1" stop-color="#DAF2F4" stop-opacity="0"/>
</linearGradient>
<clipPath id="clip0_196_26712">
<rect width="25.521" height="25.4854" fill="white" transform="translate(618.23 131.211)"/>
</clipPath>
<clipPath id="clip1_196_26712">
<rect width="720" height="720" fill="white" transform="translate(180 360)"/>
</clipPath>
</defs>
</svg>
