<svg width="1080" height="1080" viewBox="0 0 1080 1080" fill="none" xmlns="http://www.w3.org/2000/svg"><g clip-path="url(#chat-bank__a)"><g opacity=".06" filter="url(#chat-bank__b)"><path fill-rule="evenodd" clip-rule="evenodd" d="M794.854 1042.45c11.772-3.04 18.253-6.37 18.253-9.86 0-14.53-112.632-26.31-251.571-26.31s-251.571 11.78-251.571 26.31c0 12.77 86.951 23.41 202.299 25.81-.4.52-.603 1.06-.603 1.6 0 11.04 85.639 20 191.281 20 105.642 0 191.282-8.96 191.282-20 0-7.57-40.146-14.15-99.37-17.55Z" fill="#0A0F1A"/></g><path d="M618.937 109.52c61.38-31.06 138.272-33.49 197.957 1.504 59.684 34.993 91.016 139.105 81.411 214.007-5.855 45.462-28.712 88.495-24.603 134.188 6.061 66.921 65.078 108.854 99.492 163.802 46.226 73.861 45.766 178.783 4.16 255.999-41.604 77.216-120.243 125.4-200.319 130.14-80.076 4.74-160.152-31.639-219.734-92.139-35.955-36.382-62.613-84.215-101.958-115.68-100.467-80.397-272.896 19.087-338.025-51.015-87.319-93.873-34.414-241.191 21.727-285.439 115.876-91.329 192.254 5.032 294.058-42.454 37.547-17.352 74.529-44.479 90.862-86.413 15.41-40.025 8.321-166.925 95.024-226.616" fill="#B9CBD3" style="mix-blend-mode:luminosity" opacity=".16"/><path d="M351.248 277.297c0-34.559 28.016-62.575 62.575-62.575H694.56c34.559 0 62.575 28.016 62.575 62.575v691.362c0 34.561-28.016 62.571-62.575 62.571H413.823c-34.559 0-62.575-28.01-62.575-62.571V277.297Z" fill="#1A2437"/><path d="M376.321 272.361c0-18.851 15.282-34.132 34.132-34.132h288.138c18.85 0 34.132 15.281 34.132 34.132V971.65c0 18.85-15.282 34.13-34.132 34.13H410.453c-18.85 0-34.132-15.28-34.132-34.13V272.361Z" fill="#F5F8F9"/><path d="M732.252 973.621c0 17.646-14.304 31.949-31.95 31.949H407.686c-17.645 0-31.95-14.303-31.95-31.949v-20.589h356.516v20.589Z" fill="#F8FBFB"/><path fill-rule="evenodd" clip-rule="evenodd" d="M732.252 953.565H375.736V952.5h356.516v1.065Z" fill="#D2DFE6"/><path d="M376.348 269.936c0-17.646 14.305-31.95 31.95-31.95h292.503c17.646 0 31.95 14.304 31.95 31.95v11.833H376.348v-11.833Z" fill="#2498A8"/><path d="M732.865 281.356H376.348v50.037h356.517v-50.037Z" fill="#2CC3D5"/><path d="m711.578 306.168 5.417-5.432a.868.868 0 0 0-1.226-1.216l-5.421 5.418-5.421-5.418a.87.87 0 0 0-1.489.228.87.87 0 0 0 .263.988l5.417 5.421-5.417 5.431a.87.87 0 0 0 .615 1.481.85.85 0 0 0 .611-.254l5.421-5.421 5.421 5.421a.86.86 0 0 0 1.412-.282.873.873 0 0 0-.186-.945l-5.417-5.42Zm-314.549 6.505a.6.6 0 0 1-.457-.217l-4.186-4.986a1.214 1.214 0 0 1 0-1.566l4.186-4.987a.61.61 0 0 1 1.057.343.601.601 0 0 1-.126.438l-4.186 4.989 4.179 4.989a.601.601 0 0 1-.139.904.612.612 0 0 1-.328.093Z" fill="#fff"/><path d="M454.709 237.986h198.469v3.115c0 14.852-12.04 26.892-26.892 26.892H481.601c-14.852 0-26.892-12.04-26.892-26.892v-3.115Z" fill="#1A2437"/><path d="M571.233 249.005h-60.004a2.648 2.648 0 0 0 0 5.295h60.004a2.647 2.647 0 1 0 0-5.295Zm28.646 3.74a3.769 3.769 0 0 1-4.495 3.722 3.764 3.764 0 0 1-2.747-5.149 3.77 3.77 0 0 1 3.501-2.313 3.741 3.741 0 0 1 3.741 3.74Z" opacity=".2" fill="#F8FBFB"/><g filter="url(#chat-bank__c)"><path d="M555.933 409.081c0-7.371-5.976-13.347-13.347-13.347H293.145c-7.371 0-13.347 5.976-13.347 13.347v49.879a2.67 2.67 0 0 0 2.669 2.67h260.119c7.371 0 13.347-5.976 13.347-13.347v-39.202Z" fill="#fff"/></g><path d="M292.321 409.246c0 19.713 15.98 35.694 35.693 35.694 19.713 0 35.694-15.981 35.694-35.694s-15.981-35.693-35.694-35.693-35.693 15.98-35.693 35.693Z" fill="#FFD6D7"/><path fill-rule="evenodd" clip-rule="evenodd" d="M393.315 420.519a4.174 4.174 0 0 1 4.174-4.174h132.184a4.174 4.174 0 1 1 0 8.348H397.489a4.174 4.174 0 0 1-4.174-4.174Zm0 16.473a4.174 4.174 0 0 1 4.174-4.174h89.224a4.174 4.174 0 1 1 0 8.348h-89.224a4.174 4.174 0 0 1-4.174-4.174Z" fill="#D2DFE6"/><g filter="url(#chat-bank__d)"><path d="M635.334 662.14c0-7.935 6.433-14.368 14.368-14.368h51.71c7.935 0 14.368 6.433 14.368 14.368v20.192a4.618 4.618 0 0 1-4.618 4.618h-61.46c-7.935 0-14.368-6.433-14.368-14.368V662.14Z" fill="#fff"/></g><path d="M687.153 670.654c1.674-6.403-2.16-12.952-8.564-14.626-6.404-1.674-12.953 2.16-14.627 8.564-1.674 6.404 2.161 12.953 8.565 14.627 6.403 1.674 12.952-2.161 14.626-8.565Z" fill="#F9B42F"/><path d="M671.674 665.429c0 .812-.554 1.471-1.232 1.471-.679 0-1.23-.659-1.23-1.471 0-.811.554-1.47 1.23-1.47.676 0 1.232.659 1.232 1.47Zm9.825 1.482a.388.388 0 0 1-.277-.102c-.803-.74-1.985-.161-1.999-.152a.391.391 0 0 1-.501-.554 3.128 3.128 0 0 1 2.813-1.407.392.392 0 1 1-.055.781 2.308 2.308 0 0 0-1.066.188c.498.033.97.237 1.337.576a.398.398 0 0 1 .127.272.414.414 0 0 1-.024.152.373.373 0 0 1-.355.246Zm-5.115 8.513a5.88 5.88 0 0 1-3.6-1.232.591.591 0 0 1-.082-.805.587.587 0 0 1 .799-.123 4.711 4.711 0 0 0 6.92-1.323 4.712 4.712 0 0 0 .66-2.534.587.587 0 1 1 1.174-.036 5.888 5.888 0 0 1-5.694 6.05l-.177.003Z" fill="#2C2A46"/><g filter="url(#chat-bank__e)"><path d="M473.919 492.891c0-7.936-6.433-14.369-14.369-14.369h-51.709c-7.935 0-14.368 6.433-14.368 14.369v20.191a4.618 4.618 0 0 0 4.618 4.619h61.459c7.936 0 14.369-6.433 14.369-14.369v-10.441Z" fill="#fff"/></g><path d="M435.714 510.982c6.964-1.115 11.706-7.663 10.592-14.627-1.115-6.964-7.663-11.706-14.627-10.592-6.964 1.115-11.706 7.663-10.592 14.627 1.115 6.964 7.663 11.706 14.627 10.592Z" fill="#F9B42F"/><path d="M441.096 496.72a.201.201 0 0 0 .194-.003.184.184 0 0 0 .072-.069.193.193 0 0 0 .029-.096 1.686 1.686 0 1 0-3.375 0 .202.202 0 0 0 .106.173.207.207 0 0 0 .204-.005 2.624 2.624 0 0 1 2.759 0h.011Zm-12.04 0c.03.016.063.024.097.024a.208.208 0 0 0 .169-.096.215.215 0 0 0 .029-.096 1.687 1.687 0 1 0-3.375 0 .193.193 0 0 0 .029.096.184.184 0 0 0 .072.069.201.201 0 0 0 .194.003 2.63 2.63 0 0 1 2.761 0h.024Zm4.707 7.464a8.603 8.603 0 0 1-5.809-2.269.623.623 0 0 1-.005-.856.63.63 0 0 1 .854-.059 7.309 7.309 0 0 0 9.772.115.637.637 0 0 1 .452-.155.617.617 0 0 1 .429.21.616.616 0 0 1 .155.452.626.626 0 0 1-.21.429 8.508 8.508 0 0 1-5.638 2.133Z" fill="#2C2A46"/><path d="M572.125 734.817c0-7.972-6.462-14.434-14.433-14.434H407.953c-7.971 0-14.433 6.462-14.433 14.434v20.172a4.811 4.811 0 0 0 4.811 4.811h159.361c7.971 0 14.433-6.462 14.433-14.434v-10.549Zm0 144.027c0-7.972-6.462-14.434-14.433-14.434H407.953c-7.971 0-14.433 6.462-14.433 14.434v20.171a4.811 4.811 0 0 0 4.811 4.812h159.361c7.971 0 14.433-6.463 14.433-14.434v-10.549Z" fill="#D2DFE6"/><path d="M492.725 795.129c0-7.972 6.462-14.434 14.433-14.434H701.24c7.972 0 14.434 6.462 14.434 14.434v43.575a4.811 4.811 0 0 1-4.811 4.811H507.158c-7.971 0-14.433-6.462-14.433-14.433v-33.953Z" fill="#DEE8EC"/><path d="M540.89 1001.28c.167 0 .328-.07.447-.19a.634.634 0 0 0 .185-.44.64.64 0 0 0-.632-.64.63.63 0 0 0-.447.19.636.636 0 0 0-.186.45c0 .16.067.32.186.44a.63.63 0 0 0 .447.19Z" fill="#DF638D"/><g filter="url(#chat-bank__f)"><path d="M468.503 549.649c0-9.72 7.879-17.599 17.599-17.599h385.221c9.72 0 17.6 7.879 17.6 17.599v79.208a3.52 3.52 0 0 1-3.52 3.52H486.102c-9.72 0-17.599-7.879-17.599-17.599v-65.129Z" fill="#fff"/></g><path fill-rule="evenodd" clip-rule="evenodd" d="M715.24 569.784a5.504 5.504 0 0 0-5.504-5.504H508.484a5.504 5.504 0 1 0 0 11.008h201.252a5.505 5.505 0 0 0 5.504-5.504Zm0 25.082a5.504 5.504 0 0 0-5.504-5.504H573.891a5.504 5.504 0 1 0 0 11.008h135.845a5.505 5.505 0 0 0 5.504-5.504Z" fill="#D2DFE6"/><path d="M869.813 553.152c0 30.014-24.331 54.344-54.344 54.344-30.014 0-54.344-24.33-54.344-54.344 0-30.013 24.33-54.344 54.344-54.344 30.013 0 54.344 24.331 54.344 54.344Z" fill="#008767"/><rect x="449" y="302" width="79" height="9" rx="4.5" fill="#fff"/><mask id="chat-bank__g" style="mask-type:alpha" maskUnits="userSpaceOnUse" x="292" y="373" width="72" height="72"><path d="M327.922 444.938c19.713 0 35.693-15.98 35.693-35.692 0-19.713-15.98-35.693-35.693-35.693-19.713 0-35.693 15.98-35.693 35.693 0 19.712 15.98 35.692 35.693 35.692Z" fill="#FF5A60"/></mask><g mask="url(#chat-bank__g)"><path fill-rule="evenodd" clip-rule="evenodd" d="m313.496 437.454.001-.001.002-.001-.003.002Zm.003-.002a1.138 1.138 0 0 0-1.402-1.794l.699.899c-.699-.899-.7-.898-.7-.898l-.001.001-.002.002-.006.004-.016.013-.051.041a11.214 11.214 0 0 0-.739.692 18.547 18.547 0 0 0-1.83 2.21c-1.427 2.001-3.125 5.087-4.304 9.491a1.139 1.139 0 0 0 2.199.589c1.105-4.128 2.681-6.967 3.958-8.759a16.375 16.375 0 0 1 1.603-1.938 9.541 9.541 0 0 1 .567-.533l.022-.018m28.306-1.382a1.139 1.139 0 0 1 1.609-.052l-.778.831.778-.83h.001l.002.002.005.004.014.014.045.044a15.065 15.065 0 0 1 .706.758 23.022 23.022 0 0 1 1.754 2.308c1.358 2.027 2.955 5.031 3.941 8.96a1.138 1.138 0 0 1-2.208.555c-.911-3.632-2.384-6.397-3.624-8.248a20.772 20.772 0 0 0-1.58-2.08c-.199-.23-.359-.4-.465-.509l-.118-.12-.027-.025-.003-.003a1.139 1.139 0 0 1-.052-1.609Zm.051 1.608.001.001v-.001h-.001Z" fill="#B97CE8"/><path d="M310.951 435.444s-3.892 14.955-4.733 16.056l-.427.528a5.17 5.17 0 0 0 1.593-.114l1.137-1.397 2.974-10.157-.544-4.916Zm32.68 1.78s3.514 12.964 4.372 14.065l.499.759a5.032 5.032 0 0 1-1.535-.345l-1.134-1.398-2.978-10.156.776-2.925Z" fill="#2498A8"/><path d="M347.446 453.32c-1.446-6.204-4.977-20.72-4.977-20.72 0-.71-4.322-.962-14.024-1.153v-.049l-1.406.02-1.409-.02v.049c-9.698.191-14.025.443-14.025 1.153 0 0-3.53 14.529-4.976 20.72-1.39 5.976 2.722 11.254 6.626 11.254h27.565c3.904 0 8.019-5.278 6.626-11.254Z" fill="#B97CE8"/><path d="M332.468 381.626c-.584-.736-1.411-1.032-2.098-1.672l-.225.051a18.32 18.32 0 0 1 1.88 1.97c.285.362.577.691.813 1.097.254.374.485.763.691 1.166a8.215 8.215 0 0 1 .812 5.248 11.575 11.575 0 0 1-2.437 4.875 11.294 11.294 0 0 0 2.746-4.806 8.653 8.653 0 0 0-.687-5.533 12.58 12.58 0 0 0-1.495-2.396Zm-7.234 9.542a3.917 3.917 0 0 0-2.96-1.203 8.505 8.505 0 0 0-3.213.662 9.667 9.667 0 0 0-2.743 1.747 14.312 14.312 0 0 0-2.188 2.418 14.504 14.504 0 0 0-1.613 2.843c-.427.996-.7 2.052-.81 3.131a8.53 8.53 0 0 0 1.71 6.053c.319.43.674.827 1.041 1.279.355.445.679.914.967 1.404a9.923 9.923 0 0 1 1.157 3.206c.407 2.256.02 4.513-.105 6.688a6.671 6.671 0 0 0 .472 3.157c.236.479.554.914.939 1.285.396.369.835.688 1.308.952a8.386 8.386 0 0 1 2.581 2.13c.337.442.623.921.851 1.429.218.515.407 1.042.565 1.579a9.13 9.13 0 0 0-1.54-2.908 8.136 8.136 0 0 0-2.598-1.97 6.966 6.966 0 0 1-1.411-.956 4.982 4.982 0 0 1-1.046-1.363 7.083 7.083 0 0 1-.592-3.34c.018-1.129.141-2.228.193-3.327.074-1.09.021-2.185-.158-3.262a9.355 9.355 0 0 0-1.114-3.012 11.693 11.693 0 0 0-.927-1.325c-.337-.408-.728-.832-1.069-1.292a9.452 9.452 0 0 1-1.492-3.053 8.932 8.932 0 0 1-.265-3.401 11.03 11.03 0 0 1 .875-3.276 13.563 13.563 0 0 1 1.716-2.922 14.605 14.605 0 0 1 2.31-2.443 9.687 9.687 0 0 1 2.887-1.731 8.717 8.717 0 0 1 3.305-.532 4.832 4.832 0 0 1 1.638.365c.521.209.979.549 1.329.988Z" fill="#2C2A46"/><path d="M323.191 392.334a3.934 3.934 0 0 1 2.257-2.261 8.517 8.517 0 0 1 3.217-.643 9.672 9.672 0 0 1 3.207.54c1.035.344 2.027.805 2.958 1.374a14.552 14.552 0 0 1 2.593 1.989 10.665 10.665 0 0 1 1.966 2.568 8.531 8.531 0 0 1 .785 6.241c-.126.521-.298 1.024-.46 1.584a11.994 11.994 0 0 0-.344 1.669 9.942 9.942 0 0 0 .185 3.404c.504 2.236 1.74 4.164 2.703 6.118a6.67 6.67 0 0 1 .796 3.091 4.595 4.595 0 0 1-.364 1.549c-.221.494-.5.96-.833 1.387a8.375 8.375 0 0 0-1.547 2.968 7.207 7.207 0 0 0-.227 1.647c0 .56.032 1.119.096 1.675a9.137 9.137 0 0 1 .284-3.279 8.147 8.147 0 0 1 1.625-2.827c.366-.437.677-.917.927-1.43a4.997 4.997 0 0 0 .432-1.663 7.087 7.087 0 0 0-.757-3.306c-.456-1.033-.999-1.997-1.474-2.989a14.147 14.147 0 0 1-1.127-3.065 9.381 9.381 0 0 1-.147-3.209c.075-.534.188-1.062.337-1.581.151-.507.346-1.05.48-1.606a9.434 9.434 0 0 0 .185-3.394 8.925 8.925 0 0 0-1.082-3.235 11.013 11.013 0 0 0-2.082-2.675 13.578 13.578 0 0 0-2.72-2.023 14.551 14.551 0 0 0-3.079-1.349 9.69 9.69 0 0 0-3.333-.469 8.7 8.7 0 0 0-3.252.798 4.835 4.835 0 0 0-1.366.975 3.252 3.252 0 0 0-.839 1.427Z" fill="#2C2A46"/><path d="M341.035 403.719v13.779c0 6.191-4.655 11.362-10.863 12.627-.975.195-1.968.293-2.962.292h-.724a14.806 14.806 0 0 1-2.962-.296c-6.208-1.27-10.859-6.437-10.859-12.623v-13.779c0-7.134 6.187-12.919 13.813-12.919h.736c7.638 0 13.821 5.785 13.821 12.919Z" fill="#2C2A46"/><path d="M327.019 437.759c2.349 0 4.253-1.569 4.253-3.504s-1.904-3.504-4.253-3.504c-2.348 0-4.252 1.569-4.252 3.504s1.904 3.504 4.252 3.504Z" fill="#F3C29F"/><path fill-rule="evenodd" clip-rule="evenodd" d="M327.019 430.833c-2.319 0-4.171 1.546-4.171 3.422 0 1.876 1.852 3.422 4.171 3.422 2.32 0 4.172-1.546 4.172-3.422 0-1.876-1.852-3.422-4.172-3.422Zm-4.334 3.422c0-1.994 1.956-3.586 4.334-3.586 2.379 0 4.335 1.592 4.335 3.586 0 1.995-1.956 3.586-4.335 3.586-2.378 0-4.334-1.591-4.334-3.586Z" fill="#fff"/><path d="M327.362 426.11h-.69a12.803 12.803 0 0 1-2.78-.301v8.041a2.808 2.808 0 0 0 1.728 2.592c.341.141.705.213 1.073.213h.648a2.802 2.802 0 0 0 2.801-2.805v-8.045a13.06 13.06 0 0 1-2.78.305Z" fill="#F3C29F"/><path d="M323.901 427.988v2.315s.672-1.147 3.127-1.159c2.454-.013 3.123 1.269 3.123 1.269v-2.78l-6.25-.114v.469Z" fill="#E8AA7D"/><path d="M340.366 401.786v13.508c0 6.064-4.376 11.133-10.224 12.373a13.32 13.32 0 0 1-2.78.288h-.69a13.118 13.118 0 0 1-2.78-.292c-5.844-1.236-10.224-6.309-10.224-12.369v-13.508c0-6.995 5.823-12.665 13.004-12.665h.69c7.185 0 13.004 5.674 13.004 12.665Z" fill="#F3C29F"/><path d="M313.669 409.118v5.95a2.025 2.025 0 0 1-1.989-2.027v-1.896a2.027 2.027 0 0 1 1.989-2.027Zm28.685 2.027v1.896a2.024 2.024 0 0 1-1.989 2.027v-5.95a2.028 2.028 0 0 1 1.989 2.027Z" fill="#F3C29F"/><path d="M340.053 405.201s.245 4.262 0 5.899c-.246 1.638.981-5.899.981-5.899h-.981Zm-25.911 2.29s-.224 4.261 0 5.924c.224 1.663-.982-5.924-.982-5.924h.982Zm7.138-20.931a6.382 6.382 0 0 1 7.372-7.131 6.39 6.39 0 0 1 5.259 5.259 6.381 6.381 0 0 1-7.13 7.373 6.385 6.385 0 0 1-5.501-5.501Z" fill="#2C2A46"/><path fill-rule="evenodd" clip-rule="evenodd" d="M332.04 379.198a.162.162 0 0 1 .086.214l-4.362 10.254a.163.163 0 0 1-.299.005l-2.463-5.298a.163.163 0 1 1 .296-.138l2.308 4.964 4.219-9.915a.164.164 0 0 1 .215-.086Z" fill="#F99B45"/><path d="M314.019 409.745a1.967 1.967 0 0 1-2.175-1.663c-.14-.939-.288-2.027-.334-2.708-.512-7.279 5.37-15.776 11.937-15.776h9.111c7.859.982 10.863 10.402 9.115 17.858a1.053 1.053 0 0 1-1.026.809c-.157 0-.313-.035-.455-.102a80.684 80.684 0 0 0-2.429-1.058c-2.996-1.27-4.993-5.696-4.993-5.696s0 2.391-7.109 5.696c-3.191 1.485-8.743 2.298-11.642 2.64Z" fill="#2C2A46"/><path d="M333.801 397.219a18.887 18.887 0 0 1-.739 3.193 19.27 19.27 0 0 1-1.251 3.055 14.884 14.884 0 0 1-1.808 2.794c-.357.431-.741.838-1.15 1.219-.215.183-.434.362-.654.54-.109.09-.215.183-.333.264l-.357.228a17.521 17.521 0 0 1-6.228 2.279 22.266 22.266 0 0 1-3.278.337 19.164 19.164 0 0 1-3.274-.166 31.971 31.971 0 0 0 6.418-.813 23.26 23.26 0 0 0 3.059-.922c.252-.089.492-.199.739-.305.248-.105.492-.199.723-.325l.711-.357c.232-.126.439-.276.662-.406l.334-.204c.105-.073.203-.158.304-.239l.626-.516c.37-.374.759-.723 1.093-1.134a16.288 16.288 0 0 0 1.828-2.608 24.292 24.292 0 0 0 1.446-2.88c.428-.991.805-2.004 1.129-3.034Z" fill="#2C2A46"/></g><path fill-rule="evenodd" clip-rule="evenodd" d="M424.939 321.958a15.641 15.641 0 0 0 15.328-18.693 15.635 15.635 0 0 0-12.285-12.285 15.637 15.637 0 0 0-18.693 15.328 15.68 15.68 0 0 0 15.65 15.65Z" fill="#008767"/><path d="M439.331 301.038a5.18 5.18 0 1 0 0-10.359 5.18 5.18 0 0 0 0 10.359Z" fill="#90E6BC"/><path fill-rule="evenodd" clip-rule="evenodd" d="M439.331 291.294a4.565 4.565 0 1 0-.001 9.13 4.565 4.565 0 0 0 .001-9.13Zm-5.794 4.565a5.794 5.794 0 1 1 11.588 0 5.794 5.794 0 0 1-11.588 0Z" fill="#2CC3D5"/><path d="M421 46.918a8.688 8.688 0 0 0-5.008-5.019 18.925 18.925 0 0 0-7.137-1.425c-2.423-.006-4.829.4-7.117 1.197a31.87 31.87 0 0 0-6.563 3.05 32.348 32.348 0 0 0-5.755 4.413 23.734 23.734 0 0 0-4.363 5.699 18.929 18.929 0 0 0-1.74 13.848c.279 1.155.66 2.273 1.019 3.514.343 1.216.598 2.454.763 3.705.3 2.522.162 5.077-.409 7.552-1.12 4.961-3.862 9.24-5.998 13.576a14.818 14.818 0 0 0-1.767 6.859 10.22 10.22 0 0 0 .809 3.438 14.854 14.854 0 0 0 1.848 3.077 18.588 18.588 0 0 1 3.431 6.585c.309 1.195.478 2.422.505 3.656a32.282 32.282 0 0 1-.212 3.716 20.248 20.248 0 0 0-.632-7.276 18.083 18.083 0 0 0-3.605-6.273 15.466 15.466 0 0 1-2.056-3.173 11.041 11.041 0 0 1-.959-3.69 15.707 15.707 0 0 1 1.679-7.336c1.013-2.291 2.216-4.432 3.272-6.633a31.27 31.27 0 0 0 2.499-6.801c.518-2.337.629-4.745.328-7.12a25.925 25.925 0 0 0-.748-3.508c-.336-1.125-.768-2.33-1.067-3.564a20.953 20.953 0 0 1-.408-7.531 19.778 19.778 0 0 1 2.399-7.178 24.472 24.472 0 0 1 4.621-5.937 30.062 30.062 0 0 1 6.036-4.488 32.336 32.336 0 0 1 6.832-2.994 21.503 21.503 0 0 1 7.395-1.04c2.498.118 4.948.72 7.216 1.77a10.683 10.683 0 0 1 3.03 2.164A7.202 7.202 0 0 1 421 46.918Z" fill="#2C2A46"/><path d="M447.401 26.45v-.213a.312.312 0 0 1 .139-.198.301.301 0 0 1 .238-.036c.11.023.207.087.27.18.107.098 1.148 1.14 1.893 1.902.332.314.602.584.718.7.153-.134.449-.448.629-.646l.152-.134 5.61-5.61a.557.557 0 0 1 .152-.144c.189-.134.332-.134.53.144v.286a1.37 1.37 0 0 1-.251.26l-.081.09-6.283 6.283a.742.742 0 0 1-.422.332.322.322 0 0 1-.224-.054l-2.361-2.36a3.183 3.183 0 0 0-.332-.332 2.861 2.861 0 0 1-.314-.332l-.063-.117Zm10.439-1.794v.206a6.796 6.796 0 0 1-.593.638 1.382 1.382 0 0 0-.197.197l-4.003 3.985c-.251.26-.413.18-.566 0l-.062-.045h-.054v-.054l-.35-.35a.385.385 0 0 1-.09-.35.435.435 0 0 1 .09-.134.319.319 0 0 1 .116-.1.387.387 0 0 1 .341.055c.089.079.173.163.252.251l.063.063c.421-.386 2.575-2.558 3.644-3.635l.547-.548.117-.116c.161-.18.323-.35.538-.315a.408.408 0 0 1 .234.171l-.027.08ZM447.401 97.85v-.217a.315.315 0 0 1 .35-.17c.11.028.205.095.269.188.108.099 1.149 1.14 1.894 1.903.332.314.602.583.718.7.221-.208.43-.427.629-.656l.152-.125 5.61-5.61a.557.557 0 0 1 .152-.143c.189-.135.332-.135.53.143v.289a1.4 1.4 0 0 1-.251.26l-.081.09-6.283 6.282a.09.09 0 0 1-.025.038.09.09 0 0 1-.038.025.734.734 0 0 1-.359.269.329.329 0 0 1-.183-.023.333.333 0 0 1-.14-.12l-2.36-2.36a3.536 3.536 0 0 0-.252-.252l-.063-.063a2.861 2.861 0 0 1-.314-.332l.045-.117Zm10.438-1.796v.216a7.833 7.833 0 0 1-.592.638.991.991 0 0 0-.197.197l-4.003 3.985c-.252.261-.413.18-.566 0l-.063-.045-.053-.044v-.054l-.35-.35a.387.387 0 0 1-.09-.35.437.437 0 0 1 .09-.135.317.317 0 0 1 .116-.099.39.39 0 0 1 .341.054l.252.251.062.063c.422-.386 2.576-2.558 3.644-3.59l.548-.547.117-.117c.161-.18.323-.35.538-.314.095.023.178.08.233.161l-.027.081Z" fill="#3D9BD6"/><path fill-rule="evenodd" clip-rule="evenodd" d="M343.153 311.91a8.078 8.078 0 0 1 8.078 8.078v10.286a8.078 8.078 0 0 1-8.078 8.077 8.077 8.077 0 0 1-8.078-8.077v-10.286a8.078 8.078 0 0 1 8.078-8.078Z" fill="#F3C29F"/><path d="M312.251 352.245c-.045 1.876 1.059 3.429 2.441 3.429l36.018.197c1.077 0 1.939-1.221 1.894-2.692l-.063-2.208a2.09 2.09 0 0 1-1.795 1.902l-36.09-.17a2.633 2.633 0 0 1-2.28-2.127c-.087.552-.129 1.11-.125 1.669Z" fill="#080B12"/><path d="M313.238 348.035a6.113 6.113 0 0 1 2.208-2.172l8.159-4.541a11.003 11.003 0 0 0 1.938-1.122l7.566-4.533a7.363 7.363 0 0 1 1.544-.646v-2.818a1.86 1.86 0 0 1 1.157-1.735c.228-.094.472-.142.719-.141h13.562a1.885 1.885 0 0 1 1.326.55c.174.174.312.381.407.608.094.228.142.472.142.718v5.242c.054.386.072.789.09 1.229l.512 13.005c.011.191-.01.382-.063.566a1.869 1.869 0 0 1-1.795 1.391l-35.901-.135a2.457 2.457 0 0 1-2.442-2.513 6.211 6.211 0 0 1 .871-2.953Z" fill="#202C44"/><path d="M343.171 333.173c4.491 0 8.132-.53 8.132-1.185 0-.654-3.641-1.184-8.132-1.184s-8.132.53-8.132 1.184c0 .655 3.641 1.185 8.132 1.185Z" fill="#F3C29F"/><path d="M335.039 329.179v2.809h16.273l-.081-3.312-16.192.503Z" fill="#F3C29F"/><path fill-rule="evenodd" clip-rule="evenodd" d="M344.499 340.25a2.894 2.894 0 1 0 0 5.789 2.894 2.894 0 0 0 0-5.789Zm-4.16 2.894a4.16 4.16 0 1 1 8.321.001 4.16 4.16 0 0 1-8.321-.001Z" fill="#F8FBFB"/><path d="m326.396 339.679 3.375 2.998c.171.156.396.24.628.233a.958.958 0 0 0 .709-.314.95.95 0 0 0-.081-1.337l-2.926-2.594-1.705 1.014Zm-3.303 1.921 3.725 3.312a.898.898 0 0 0 1.337-.081.947.947 0 0 0 .239-.683.947.947 0 0 0-.311-.654l-3.213-2.846c-.41.251-.836.476-1.274.674l-.503.278Zm-3.805 2.127 4.038 3.59a.9.9 0 0 0 1.329-.08.894.894 0 0 0 .258-.68.885.885 0 0 0-.33-.649l-3.59-3.159-1.705.978Z" fill="#F8FBFB"/><path fill-rule="evenodd" clip-rule="evenodd" d="M296.086 309.468a8.077 8.077 0 0 1 2.452 11.157l-5.547 8.67a8.079 8.079 0 0 1-13.609-8.706l5.547-8.67a8.077 8.077 0 0 1 11.157-2.451Z" fill="#EFB8C2"/><path d="M248.284 326.8c-1.041 1.562-.898 3.465.224 4.201l30.238 19.557c.898.592 2.289 0 3.043-1.239l1.139-1.894a2.098 2.098 0 0 1-2.575.62l-30.247-19.576a2.62 2.62 0 0 1-.772-3.024c-.385.424-.736.877-1.05 1.355Z" fill="#080B12"/><path d="M251.408 323.812a6.096 6.096 0 0 1 3.042-.647l9.317.566c.739.109 1.488.142 2.234.098l8.823.252a7.33 7.33 0 0 1 1.643.287l1.516-2.378a1.883 1.883 0 0 1 2.594-.575l11.435 7.306c.207.133.387.306.528.508a1.885 1.885 0 0 1 .037 2.086l-2.845 4.488c-.161.341-.359.7-.583 1.077l-6.57 11.237a1.57 1.57 0 0 1-.359.439 1.878 1.878 0 0 1-2.289.198l-30.157-19.432a2.452 2.452 0 0 1-.7-3.437 6.127 6.127 0 0 1 2.334-2.073Z" fill="#202C44"/><path d="M292.141 330.765c.352-.551-2.43-2.958-6.215-5.376-3.784-2.417-7.138-3.93-7.49-3.379-.353.552 2.43 2.959 6.215 5.376 3.784 2.418 7.138 3.931 7.49 3.379Z" fill="#F3C29F"/><path d="m279.94 319.647-1.508 2.369 13.706 8.76 1.714-2.836-13.912-8.293Z" fill="#F3C29F"/><path fill-rule="evenodd" clip-rule="evenodd" d="M281.672 332.693a2.894 2.894 0 1 0 0 5.789 2.894 2.894 0 0 0 0-5.789Zm-4.16 2.894a4.16 4.16 0 1 1 8.321.001 4.16 4.16 0 0 1-8.321-.001Z" fill="#F8FBFB"/><path d="m267.007 323.847 1.265 4.344a.9.9 0 0 0 .395.539.969.969 0 0 0 .772.116.954.954 0 0 0 .685-.805.944.944 0 0 0-.03-.37l-1.068-3.761-2.019-.063Zm-3.815-.161 1.346 4.792c.065.225.208.42.404.548a.999.999 0 0 0 .772.117.963.963 0 0 0 .655-1.176l-1.176-4.129a12.618 12.618 0 0 1-1.427-.108l-.574-.044Zm-4.363-.261 1.472 5.197a.95.95 0 0 0 1.167.655.889.889 0 0 0 .589-.437.886.886 0 0 0 .066-.73l-1.283-4.559-2.011-.126Z" fill="#F8FBFB"/><path d="m436.02 160.56.898 1.965c.287.619.565 1.221.825 1.795a182.521 182.521 0 0 1 1.517 3.68c.898 2.477 1.795 4.99 2.594 7.602a73.495 73.495 0 0 1 3.106 17.134 41.624 41.624 0 0 1-.898 10.986 30.24 30.24 0 0 1-2.405 6.83 26.091 26.091 0 0 1-5.386 7.342 25.265 25.265 0 0 1-8.472 5.304 28.322 28.322 0 0 1-8.428 1.795c-2.648.252-5.295.44-7.916.548-5.171.185-10.347.105-15.51-.243-5.062-.332-9.998-.897-14.719-1.337a424.012 424.012 0 0 0-6.839-.637c-2.181-.18-4.264-.314-6.068-.323a20.62 20.62 0 0 0-3.805.224c-.198 0-.144.081.547-.197a9.649 9.649 0 0 0 3.267-2.424 10.39 10.39 0 0 0 1.571-2.288 9.487 9.487 0 0 0 .736-2.02c.054-.305.099-.484.117-.709.018-.224 0 0 0 .09v.188l-.072.386-.314 1.553-.314 1.553a38.265 38.265 0 0 0-.305 1.606l-.566 3.33c-.395 2.199-.727 4.488-1.086 6.804-.359 2.315-.673 4.604-1.005 6.911-1.32 9.271-2.468 18.65-3.68 28.047a2990.06 2990.06 0 0 0-3.5 28.246l-3.492 28.29-24.87-1.526c0-9.613.17-19.162.305-28.721.134-9.559.484-19.144.79-28.721.305-9.577.798-19.189 1.355-28.882.143-2.424.278-4.838.467-7.288.188-2.451.323-4.874.565-7.396l.332-3.752c.054-.61.117-1.256.207-1.929l.224-1.975.242-1.984.054-.493v-.252c0-.107 0-.089.054-.35.144-.807.287-1.579.521-2.45a24.667 24.667 0 0 1 5.69-10.519 25.734 25.734 0 0 1 9.164-6.345 31.203 31.203 0 0 1 7.431-2.029 45.37 45.37 0 0 1 5.691-.485c1.705 0 3.276 0 4.756.054 5.888.297 10.771.898 15.573 1.391 4.801.494 9.289 1.006 13.723 1.41 4.434.404 8.76.78 13.032 1.032 2.127.143 4.254.26 6.355.323-.485.129-.962.288-1.428.476-.9.386-1.714.948-2.396 1.651a4.793 4.793 0 0 0-1.104 1.678c-.108.333 0 .377.126.171a9.247 9.247 0 0 0 .79-3.168c.217-1.733.304-3.479.26-5.224 0-1.903-.108-3.922-.305-5.986-.198-2.065-.386-4.183-.682-6.283-.126-1.059-.27-2.136-.422-3.195l-.225-1.58-.116-.772a6.557 6.557 0 0 1-.072-.655l23.515-8.257Z" fill="#CEDFE7"/><path d="m458.889 166.574.521 2.414c.152.745.296 1.481.413 2.217.251 1.463.493 2.935.664 4.416.373 3.008.577 6.034.61 9.065a65.214 65.214 0 0 1-.529 9.657 48.114 48.114 0 0 1-2.576 10.771 36.116 36.116 0 0 1-2.818 5.941c-1.312 2.225-2.891 5.627-4.704 7.468-4.213 4.286-4.843 5.042-10.77 6.041-.7.108-2.226.306-2.899.359l-1.732.153-2.118.188c-1.409.135-2.837.216-4.255.324-2.845.125-5.708.242-8.553.215-5.681 0-11.399-.44-16.47-.844-2.531-.197-4.873-.359-6.947-.395a43.568 43.568 0 0 0-5.573.198 28.557 28.557 0 0 0-4.973.996c-1.687.467-3.446 1.122-5.331 1.849a173.294 173.294 0 0 0-5.915 2.379l-.386.161s0-.063-.063 0c-.068.04-.14.073-.215.099-.081 0-.215.134-.323.197-.108.063-.548.359-.826.53l-.996.754a59.734 59.734 0 0 0-4.568 4.083 123.254 123.254 0 0 0-4.811 5.009c-3.213 3.518-6.409 7.306-9.55 11.183-6.283 7.79-12.395 15.985-18.462 24.233-6.067 8.249-11.955 16.757-17.798 25.284a1865.545 1865.545 0 0 0-17.305 25.687l-21.54-12.565a760.085 760.085 0 0 1 7.512-14.047c2.549-4.649 5.107-9.253 7.71-13.858a987.01 987.01 0 0 1 16.155-27.401c5.556-9.092 11.363-18.077 17.637-26.989 3.141-4.488 6.399-8.912 9.936-13.355 1.795-2.226 3.59-4.488 5.618-6.696 2.028-2.208 4.138-4.487 6.669-6.83.637-.583 1.319-1.176 2.01-1.795.691-.619 1.436-1.185 2.307-1.795.431-.314.817-.61 1.283-.898l1.436-.951c.467-.305 1.104-.655 1.652-.969l1.328-.718a78.758 78.758 0 0 1 8.383-4.012 73.21 73.21 0 0 1 9.541-3.07 71.983 71.983 0 0 1 10.447-1.732 80.345 80.345 0 0 1 10.079-.243c3.151.117 6.014.35 8.688.566 5.386.458 10.053.897 14.819 1.194 2.369.161 4.73.305 7.108.421 1.194.054 2.388.135 3.59.162l1.795.063h.225s-.099 0-.153.063a7.37 7.37 0 0 0-1.05.538c-.3.192-.552.45-.736.754-.081.171 0 .216.224.054.315-.29.585-.626.799-.996a20.836 20.836 0 0 0 1.867-4.282 59.688 59.688 0 0 0 1.472-5.878c.395-2.11.754-4.335 1.023-6.597.135-1.122.278-2.271.386-3.411l.162-1.696.08-.817v-.395c0-.099 0-.296.054-.278l20.742-2.173Z" fill="#DEE8EC"/><path d="M416.454 5.664a33.288 33.288 0 0 0-12.018 9.666c-6.65 8.796-2.782 22.798-9.343 31.98-2.54 3.59-6.354 5.896-8.921 9.432a17.946 17.946 0 0 0-2.693 14.792c.996 3.805 3.258 7.297 3.33 11.255.108 6.902-6.283 11.865-8.257 18.453-2.226 7.557 2.899 16.568 10.231 17.951 5.107.987 10.672-1.239 15.438.951 5.493 2.531 7.485 9.693 11.856 14.028a14.645 14.645 0 0 0 19.297.898c2.558-2.136 4.766-5.313 8.015-5.601 3.249-.287 5.933 2.513 8.832 4.102 6.363 3.5 14.746.898 19.342-4.936 4.595-5.834 5.699-14.19 4.11-21.613-1.14-5.34-3.59-10.573-3.015-16.02.502-4.838 3.294-9.03 4.864-13.616a24.87 24.87 0 0 0-2.046-21.092c-2.361-3.824-5.34-7.252-7.109-11.417-2.36-5.547-2.387-11.874-3.931-17.735-3.482-13.293-15.258-23.417-28.164-25.023a35.975 35.975 0 0 0-19.818 3.545Z" fill="#2C2A46"/><path fill-rule="evenodd" clip-rule="evenodd" d="M413.627 89.394a8.078 8.078 0 0 1-.601 11.408c-.89.801-2.834 3.663-5.487 9.261-2.456 5.185-5.039 11.642-7.538 18.416-3.877 10.511-7.389 21.331-9.815 28.802a925.311 925.311 0 0 1-1.824 5.583 8.078 8.078 0 1 1-15.331-5.093c.461-1.39 1.041-3.177 1.72-5.267 2.419-7.455 6.089-18.76 10.093-29.616 2.568-6.962 5.341-13.929 8.096-19.742 2.559-5.4 5.681-11.114 9.279-14.352a8.078 8.078 0 0 1 11.408.6Z" fill="#F3C29F"/><path d="M398.566 187.557a1.588 1.588 0 0 1 .045-.574l.682-1.849c1.625-4.407 5.538-15.536 5.655-20.374a217.449 217.449 0 0 0-1.696-27.123c1.319.709 2.611 1.678 4.003 1.678h50.019c1.382 0 2.01-1.427 3.339-2.127-.7 4.739-.736 19.324-.53 27.572.126 4.838-.906 13.903.709 18.31v6.731c0-.448 0-.448 0 0v.898c0 2.459-9.478 1.346-28.272 1.346-18.794 0-33.963-2.028-33.963-4.488h.009Z" fill="#FB5A8B"/><path d="M398.288 121.221c2.433-10.429 8.365-34.833 8.365-34.833 0-1.194 7.261-1.625 23.56-1.939v-.108h4.73v.081c16.3.314 23.561.745 23.561 1.939 0 0 .511 21.334 2.997 31.736.254 1.639.359 3.297.314 4.955a83.153 83.153 0 0 1-.502 9.307c-.458 4.64-1.741 7.746-5.574 7.746h-46.321c-6.516.027-13.463-8.85-11.13-18.884Z" fill="#FB5A8B"/><path opacity=".2" d="M449.69 140.132c5.556-1.427 6.722-6.004 6.83-11.039.296-13.553-3.294-32.23-3.59-32.886l7.18 13.643c.431 3.985 1.517 7.655 1.625 10.528.341 8.715-.521 12.448-1.131 17.053-.144 2.306-.898 31.212-.252 33.492.683 2.432-3.832 1.041-3.832 1.041s-8.975-27.317-29.008-31.832h22.178Z" fill="#CF5358"/><path d="M430.895 94.842c4.04 0 7.315-2.7 7.315-6.031 0-3.331-3.275-6.032-7.315-6.032-4.039 0-7.314 2.7-7.314 6.032 0 3.33 3.275 6.031 7.314 6.031Z" fill="#F3C29F"/><path fill-rule="evenodd" clip-rule="evenodd" d="M430.895 83.327c-3.841 0-6.767 2.55-6.767 5.484s2.926 5.484 6.767 5.484c3.842 0 6.768-2.55 6.768-5.484 0-2.935-2.926-5.484-6.768-5.484Zm-7.862 5.484c0-3.728 3.624-6.58 7.862-6.58 4.239 0 7.863 2.852 7.863 6.58 0 3.727-3.624 6.579-7.863 6.579-4.238 0-7.862-2.852-7.862-6.58Z" fill="#fff"/><path d="M430.303 71.489h1.194a21.6 21.6 0 0 0 4.775-.52v13.803a4.827 4.827 0 0 1-2.967 4.458 4.82 4.82 0 0 1-1.844.371h-1.122a4.824 4.824 0 0 1-4.447-2.984 4.826 4.826 0 0 1-.364-1.845V70.977c1.569.345 3.17.516 4.775.512Z" fill="#F3C29F"/><path d="M436.262 74.738v3.985s-1.148-1.975-5.385-1.992c-4.236-.018-5.385 2.19-5.385 2.19v-4.793l10.77-.198v.808Z" fill="#E8AA7D"/><path d="M407.937 28.964V52.56a22.197 22.197 0 0 0 17.591 21.621 22.54 22.54 0 0 0 4.775.503h1.194a22.348 22.348 0 0 0 22.366-22.124V28.964A22.25 22.25 0 0 0 431.497 6.84h-1.194a22.242 22.242 0 0 0-22.366 22.124Z" fill="#F3C29F"/><path opacity=".3" d="m416.302 140.652-6.884-.52c-2.522 0-2.253-1.257-3.86-3.205a8.307 8.307 0 0 1-.628-.852c-10.025-15.653 2.145-32.724 3.402-39.869.161-.897-.135-1.74-1.032-1.651l-1.939.197a1.092 1.092 0 0 0-.942.817c-1.939 8.033-4.668 19.378-6.131 25.652a16.68 16.68 0 0 0 5.098 16.478 1.075 1.075 0 0 1 .395.763l1.284 22.528a1.07 1.07 0 0 0 .655.898l.404.179a1.085 1.085 0 0 0 1.481-1.247l-.539-2.325c-.404-1.176-1.983-9.263 0-13.804 1.607-3.662 6.427-4.075 9.236-4.039Z" fill="#CF5358"/><path opacity=".6" d="M400.343 121.634c.485-.898.898-1.858 1.32-2.783l1.167-2.845c.762-1.894 1.4-3.832 2.109-5.753.709-1.921 1.238-3.895 1.795-5.87l.772-2.971c.197-1.014.457-2.001.61-3.024h-.081l-3.913 11.605-3.832 11.668.053-.027Z" fill="#C64A79"/><path fill-rule="evenodd" clip-rule="evenodd" d="M453.644 87.11a8.078 8.078 0 0 1 10.851 3.573l-6.998 3.53c6.998-3.53 6.998-3.529 6.999-3.527l.008.016.02.04.068.136.249.503c.213.433.517 1.06.897 1.858.76 1.596 1.822 3.88 3.049 6.671 2.449 5.566 5.592 13.228 8.315 21.516 2.702 8.224 5.101 17.397 5.881 25.903.747 8.15.192 17.515-5.059 24.458l-.003.004c-3.663 4.836-9.118 7.932-14.203 9.995-5.22 2.118-10.935 3.497-16.056 4.413-5.16.923-9.963 1.418-13.459 1.684-1.756.133-3.201.21-4.219.254-.51.022-.914.036-1.198.044-.142.005-.254.007-.335.009l-.096.002-.031.001h-.014c-.002 0-.003 0-.143-8.076l.14 8.076a8.078 8.078 0 0 1-.284-16.153h.004l.05-.001.233-.006c.215-.007.546-.018.978-.036.865-.038 2.132-.105 3.69-.223 3.132-.238 7.366-.678 11.839-1.478 4.513-.807 9.03-1.94 12.827-3.481 3.93-1.594 6.279-3.302 7.396-4.775 1.476-1.953 2.509-6.109 1.855-13.236-.621-6.772-2.612-14.635-5.142-22.336-2.508-7.636-5.438-14.787-7.754-20.053a231.658 231.658 0 0 0-2.848-6.232c-.35-.735-.626-1.303-.812-1.68-.092-.19-.163-.331-.208-.422l-.049-.1-.011-.02-.001-.002a8.079 8.079 0 0 1 3.574-10.849Z" fill="#F3C29F"/><path fill-rule="evenodd" clip-rule="evenodd" d="M452.87 86.512a8.976 8.976 0 0 1 12.088 3.873 220.182 220.182 0 0 1 13.576 32.542 8.975 8.975 0 1 1-17.067 5.563 202.284 202.284 0 0 0-12.47-29.89 8.976 8.976 0 0 1 3.873-12.088Z" fill="#FB5A8B"/><path d="m407.829 13.283 1.894 1.158 4.676 1.912 5.143-7.764 28.003 7.72s23.533 31.072 4.057 30.021c.466 3.375-.898 11.668-.898 11.668.225-1.795-1.247-10.33-1.795-11.667-22.034-.683-35.183-8.078-38.827-17.206-3.842 5.807-2.926 9.873-8.275 12.655l-1.068-3.913c-1.347-7.028 2.163-19.046 7.09-24.584Z" fill="#2C2A46"/><path fill-rule="evenodd" clip-rule="evenodd" d="M414.294 88.793a8.976 8.976 0 0 1-.667 12.676c-7.091 6.381-10.329 13.808-14.619 26.75a8.976 8.976 0 0 1-17.039-5.649c4.38-13.212 8.789-24.67 19.649-34.444a8.976 8.976 0 0 1 12.676.667Z" fill="#FB5A8B"/><path d="m398.184 136.919 16.353 55.279a.118.118 0 0 1 .003.059.128.128 0 0 1-.07.091.128.128 0 0 1-.058.011h-72.431a5.732 5.732 0 0 1-5.448-3.931l-15.913-48.081a5.725 5.725 0 0 1 .793-5.159 5.736 5.736 0 0 1 4.646-2.38h66.632a5.729 5.729 0 0 1 5.493 4.111Z" fill="#fff"/><path d="m451.601 39.15 4.488-6.282-2.693-10.77-.897-5.386-4.488-4.487-6.282-4.488-8.078-2.693-10.771 2.693-7.18 2.693-5.385 4.487-.898 8.976-1.229 2.09 43.413 13.168Zm-.897 9.874v.762s.207 6.166 0 8.213c-.897 8.975-3.59 11.668-3.59 11.668l10.77-11.668 1.795-9.873-1.795-7.18h-2.692l-3.59 1.795-1.795 2.693" fill="#2C2A46"/><path d="M446.181 59.946s-1.993-9.505 3.15-11.506c5.143-2.002 6.355 5.134 3.904 8.392-2.45 3.258-7.054 3.114-7.054 3.114Z" fill="#F3C29F"/><path d="M356.446 322.591c.094-1.291-5.413-2.742-12.3-3.241-6.887-.5-12.546.141-12.639 1.431-.094 1.291 5.413 2.742 12.3 3.241 6.887.5 12.546-.141 12.639-1.431Z" fill="#95A3D1"/><path d="M299.217 327.797c1.056-1.667-2.803-6.004-8.62-9.689-5.816-3.684-11.387-5.319-12.443-3.653-1.056 1.667 2.804 6.005 8.62 9.689 5.817 3.684 11.388 5.32 12.443 3.653Z" fill="#A3AEDD"/><path d="m298.689 327.635.52.188.476-.79 1.696-4.173-3.518-.871-.476 3.258 1.041 2.262.261.126Z" fill="#A3AEDD"/><path d="M277.37 308.916a4.487 4.487 0 0 1 6.198-1.365l19.663 12.567a4.487 4.487 0 0 1 1.364 6.198l-2.193 3.432a4.488 4.488 0 0 1-6.198 1.364l-19.663-12.566a4.487 4.487 0 0 1-1.365-6.198l2.194-3.432Z" fill="#E5EDF0"/><path d="M327.509 315.905a4.488 4.488 0 0 1 4.488-4.488h23.336a4.487 4.487 0 0 1 4.487 4.488v4.073a4.487 4.487 0 0 1-4.487 4.487h-23.336a4.487 4.487 0 0 1-4.488-4.487v-4.073Z" fill="#C3D9E3"/><g opacity=".9"><path opacity=".5" d="M372.247 163.891a9.584 9.584 0 0 0-6.518-4.718 18.9 18.9 0 0 0-3.512-.336c-1.513 0-3.551.208-4.738 1.147-1.483 1.187-1.651 3.492-.474 6.479a13.61 13.61 0 0 0 4.263 5.866 12.867 12.867 0 0 0 6.667 2.166l.554 1.553a1.507 1.507 0 0 0 1.285.94h.089a.611.611 0 0 0 .446-.218c.524-.663 1.226-1.543 1.879-2.463l.287-.396a8.889 8.889 0 0 0 1.325-2.285c.693-1.948.069-4.836-1.553-7.735Z" fill="#D2DFE6"/></g><path d="M440.397 12.219a8.702 8.702 0 0 0-4.166-5.738 18.934 18.934 0 0 0-6.828-2.52 21.466 21.466 0 0 0-7.217.076 31.854 31.854 0 0 0-6.957 1.99 32.376 32.376 0 0 0-6.373 3.464 23.732 23.732 0 0 0-5.196 4.95 18.934 18.934 0 0 0-3.875 13.409c.096 1.185.299 2.348.46 3.63a26.5 26.5 0 0 1 .177 3.779 22.024 22.024 0 0 1-1.58 7.396c-1.878 4.726-5.253 8.526-8.038 12.476a14.805 14.805 0 0 0-2.813 6.5 10.191 10.191 0 0 0 .264 3.523 14.8 14.8 0 0 0 1.346 3.327 18.588 18.588 0 0 1 2.365 7.04 16.031 16.031 0 0 1-.071 3.689 32.499 32.499 0 0 1-.788 3.638c.609-2.378.782-4.847.509-7.286a18.089 18.089 0 0 0-2.585-6.757 15.45 15.45 0 0 1-1.537-3.455 11.044 11.044 0 0 1-.373-3.794 15.71 15.71 0 0 1 2.801-6.986c1.357-2.105 2.878-4.032 4.264-6.043a31.237 31.237 0 0 0 3.527-6.329 20.808 20.808 0 0 0 1.433-6.981 25.836 25.836 0 0 0-.194-3.582c-.156-1.164-.395-2.421-.498-3.687-.2-2.527.061-5.07.769-7.503a19.771 19.771 0 0 1 3.487-6.717 24.478 24.478 0 0 1 5.489-5.145 30.062 30.062 0 0 1 6.661-3.494 32.341 32.341 0 0 1 7.215-1.894 21.499 21.499 0 0 1 7.467.124 19.345 19.345 0 0 1 6.852 2.873c1.031.707 1.93 1.59 2.657 2.608a7.214 7.214 0 0 1 1.346 3.419Z" fill="#2C2A46"/><path d="M410.084 22.79a32.013 32.013 0 0 0 1.26 5.44 32.595 32.595 0 0 0 2.131 5.205 25.354 25.354 0 0 0 3.08 4.762 22.415 22.415 0 0 0 1.959 2.077c.367.311.741.616 1.114.92.187.152.367.312.568.45l.609.388a29.853 29.853 0 0 0 10.61 3.883 38.2 38.2 0 0 0 5.586.574c1.864.065 3.73-.03 5.578-.284a54.445 54.445 0 0 1-10.935-1.384 39.787 39.787 0 0 1-5.212-1.571c-.429-.152-.838-.34-1.26-.52-.422-.18-.837-.338-1.232-.553l-1.211-.609c-.394-.215-.747-.47-1.128-.692l-.568-.346c-.18-.125-.346-.27-.519-.409l-1.066-.879c-.629-.636-1.294-1.231-1.861-1.93a27.705 27.705 0 0 1-3.115-4.444 41.072 41.072 0 0 1-2.464-4.907 53.441 53.441 0 0 1-1.924-5.17Z" fill="#2C2A46"/><path d="M285.688 687.415c4.074-15.205 19.703-24.228 34.908-20.154l373.136 99.982c15.205 4.074 24.228 19.703 20.154 34.908l-58.702 219.079c-4.074 15.2-19.703 24.23-34.908 20.15L247.14 941.402c-15.205-4.075-24.228-19.703-20.154-34.909l58.702-219.078Z" fill="#0052CC"/><path d="M367.681 753.962c-5.114 19.087-24.733 30.414-43.821 25.3-19.087-5.115-30.414-24.734-25.3-43.821 5.115-19.087 24.734-30.415 43.821-25.3 19.088 5.114 30.415 24.733 25.3 43.821Z" fill="#FF6E1D"/><path d="M413.372 766.204c-5.114 19.088-24.734 30.415-43.821 25.3-19.087-5.114-30.414-24.733-25.3-43.821 5.114-19.087 24.734-30.414 43.821-25.3 19.087 5.115 30.414 24.734 25.3 43.821Z" fill="#F6A721"/><path fill-rule="evenodd" clip-rule="evenodd" d="M275.095 823.014a7.278 7.278 0 0 1 8.913-5.146l146.443 39.239a7.277 7.277 0 0 1 5.145 8.913 7.275 7.275 0 0 1-8.912 5.145l-146.443-39.239a7.277 7.277 0 0 1-5.146-8.912Zm183.268 49.42a7.277 7.277 0 0 1 8.913-5.146l89.623 24.014a7.277 7.277 0 0 1 5.145 8.913 7.277 7.277 0 0 1-8.912 5.146l-89.623-24.015a7.277 7.277 0 0 1-5.146-8.912Zm-195.903-2.266a7.278 7.278 0 0 1 8.913-5.146l57.991 15.539a7.277 7.277 0 1 1-3.767 14.058l-57.991-15.538a7.278 7.278 0 0 1-5.146-8.913Zm200.334 53.679a7.276 7.276 0 0 1 8.912-5.146l57.991 15.539a7.277 7.277 0 1 1-3.766 14.058l-57.992-15.539a7.275 7.275 0 0 1-5.145-8.912Zm-115.983-31.078a7.277 7.277 0 0 1 8.913-5.145l89.623 24.014a7.278 7.278 0 0 1-3.767 14.059l-89.623-24.015a7.277 7.277 0 0 1-5.146-8.913Zm200.334 53.68a7.278 7.278 0 0 1 8.913-5.146l56.82 15.225a7.277 7.277 0 0 1-3.767 14.059l-56.82-15.225a7.278 7.278 0 0 1-5.146-8.913Z" fill="#fff"/><path d="M695.491 898.147a8.288 8.288 0 0 1 8.288-8.288h157.788a8.288 8.288 0 0 1 8.287 8.288v14.067H695.491v-14.067Z" fill="#FDBD3E"/><path d="M695.491 912.214h174.363v3.337a8.287 8.287 0 0 1-8.287 8.287H703.779a8.288 8.288 0 0 1-8.288-8.287v-3.337Z" fill="#F6A721"/><path d="M675.82 932.125a8.287 8.287 0 0 1 8.287-8.287h157.788a8.288 8.288 0 0 1 8.288 8.287v14.067H675.82v-14.067Z" fill="#FDBD3E"/><path d="M675.82 946.192h174.362v3.337a8.288 8.288 0 0 1-8.287 8.288H684.107a8.288 8.288 0 0 1-8.287-8.288v-3.337Z" fill="#F6A721"/><path d="M639.159 966.104a8.288 8.288 0 0 1 8.288-8.288h157.787a8.288 8.288 0 0 1 8.288 8.288v14.067H639.159v-14.067Z" fill="#FDBD3E"/><path d="M639.159 980.171h174.363v3.337a8.288 8.288 0 0 1-8.288 8.287H647.446a8.287 8.287 0 0 1-8.287-8.287v-3.337Z" fill="#F6A721"/><path d="M669.561 1000.08a8.286 8.286 0 0 1 8.287-8.285h157.788a8.286 8.286 0 0 1 8.287 8.285v14.07H669.561v-14.07Z" fill="#FDBD3E"/><path d="M669.56 1014.15h174.363v3.34c0 4.57-3.711 8.28-8.288 8.28H677.848c-4.577 0-8.288-3.71-8.288-8.28v-3.34Z" fill="#F6A721"/><path d="M639.159 1034.06c0-4.58 3.711-8.29 8.288-8.29h157.787a8.288 8.288 0 0 1 8.288 8.29v14.07H639.159v-14.07Z" fill="#FDBD3E"/><path d="M639.159 1048.13h174.363v3.33c0 4.58-3.711 8.29-8.288 8.29H647.446a8.287 8.287 0 0 1-8.287-8.29v-3.33Z" fill="#F6A721"/><path fill-rule="evenodd" clip-rule="evenodd" d="M432.994 303.002a.518.518 0 0 1-.518.518h-.517v7.244c.57 0 1.035.464 1.035 1.035v1.552a.518.518 0 0 1-.518.518h-15.523a.518.518 0 0 1-.518-.518v-1.552c0-.571.465-1.035 1.035-1.035v-7.244h-.517a.518.518 0 0 1-.518-.518v-1.035c0-.191.106-.366.273-.456l7.762-4.14a.52.52 0 0 1 .488 0l7.762 4.14c.168.09.274.265.274.456v1.035Zm-15.524 8.797v1.035h14.489v-1.035H417.47Zm1.035-8.279v7.244h1.035v-7.244h-1.035Zm2.07 0v7.244h8.279v-7.244h-4.135a.517.517 0 0 1 .513.517v.517h.517a.518.518 0 0 1 0 1.035h-1.035a.519.519 0 0 0 0 1.035c.856 0 1.553.697 1.553 1.553a1.55 1.55 0 0 1-1.035 1.457v.613a.518.518 0 0 1-1.035 0v-.518h-.518a.518.518 0 0 1 0-1.035h1.035a.519.519 0 0 0 0-1.035 1.553 1.553 0 0 1-1.552-1.552 1.55 1.55 0 0 1 1.035-1.457v-.613c0-.284.229-.515.512-.517h-4.134Zm9.314 0v7.244h1.035v-7.244h-1.035Zm-12.419-1.242v.207h14.489v-.207l-7.245-3.864-7.244 3.864Z" fill="#fff"/><path fill-rule="evenodd" clip-rule="evenodd" d="M432.72 301.511c.168.09.274.265.274.456v1.035a.517.517 0 0 1-.518.517h-.517v7.245c.57 0 1.035.464 1.035 1.035v1.552a.518.518 0 0 1-.518.518h-15.523a.518.518 0 0 1-.518-.518v-1.552c0-.571.465-1.035 1.035-1.035v-7.245h-.517a.517.517 0 0 1-.518-.517v-1.035c0-.191.106-.366.273-.456l7.762-4.14a.52.52 0 0 1 .488 0l7.762 4.14Zm-15.457 2.216h-.31a.725.725 0 0 1-.725-.725v-1.035c0-.268.148-.513.382-.639l7.763-4.14a.731.731 0 0 1 .682 0l7.762 4.14a.724.724 0 0 1 .384.639v1.035c0 .4-.325.725-.725.725h-.31v6.847c.586.099 1.035.61 1.035 1.225v1.552c0 .4-.325.725-.725.725h-15.523a.725.725 0 0 1-.725-.725v-1.552c0-.615.448-1.126 1.035-1.225v-6.847Zm.414 8.279v.621h14.075v-.621h-14.075Zm1.035-8.279v6.83h.621v-6.83h-.621Zm2.07 0v6.83h3.277a.734.734 0 0 1-.069-.311v-.31h-.311a.724.724 0 1 1 0-1.449h1.035c.171 0 .311-.14.311-.31a.312.312 0 0 0-.311-.311 1.754 1.754 0 0 1-.724-3.356v-.473a.73.73 0 0 1 .069-.31h-3.277Zm3.927-.208a.518.518 0 0 0-.512.518v.613a1.55 1.55 0 0 0-1.035 1.457c0 .856.696 1.552 1.552 1.552a.519.519 0 0 1 0 1.035h-1.035a.518.518 0 0 0 0 1.035h.518v.517a.516.516 0 0 0 .517.518.518.518 0 0 0 .518-.518v-.612a1.55 1.55 0 0 0 1.035-1.457c0-.856-.697-1.553-1.553-1.553a.518.518 0 0 1 0-1.035h1.035a.518.518 0 1 0 0-1.035h-.517v-.517a.515.515 0 0 0-.513-.518h4.135v7.245h-8.279v-7.245h4.134Zm.66 7.038h3.278v-6.83h-3.278c.045.094.07.199.07.31v.31h.31a.726.726 0 0 1 0 1.449h-1.035a.311.311 0 0 0 0 .621c.971 0 1.76.789 1.76 1.76 0 .713-.427 1.32-1.035 1.596v.473a.72.72 0 0 1-.07.311Zm4.727-6.83v6.83h.621v-6.83h-.621Zm-12.626-1.449v.207h14.489v-.207l-7.245-3.864-7.244 3.864Zm.441-.001 6.803-3.628 6.804 3.628h-13.607Zm-.441 9.522h14.489v1.035H417.47v-1.035Zm1.035-8.28h1.035v7.245h-1.035v-7.245Zm11.384 0h1.035v7.245h-1.035v-7.245Zm415.419 240.28a1.88 1.88 0 0 1-1.878 1.879h-1.878v26.293a3.76 3.76 0 0 1 3.756 3.756v5.635a1.878 1.878 0 0 1-1.878 1.878h-56.343a1.88 1.88 0 0 1-1.879-1.878v-5.635a3.76 3.76 0 0 1 3.757-3.756v-26.293h-1.878a1.88 1.88 0 0 1-1.879-1.879v-3.756c0-.695.384-1.329.992-1.656l28.172-15.025a1.89 1.89 0 0 1 1.769 0l28.172 15.025c.612.327.995.961.995 1.656v3.756Zm-56.343 31.928v3.757h52.587v-3.757h-52.587Zm3.756-30.049v26.293h3.756v-26.293h-3.756Zm7.512 0v26.293h14.999a1.88 1.88 0 0 1-1.852-1.878v-1.878h-1.878a1.879 1.879 0 0 1 0-3.756h3.756a1.882 1.882 0 0 0 1.879-1.878 1.882 1.882 0 0 0-1.879-1.878 5.641 5.641 0 0 1-5.634-5.635c0-2.445 1.574-4.511 3.756-5.288v-2.224a1.879 1.879 0 0 1 3.757 0v1.878h1.878a1.879 1.879 0 0 1 0 3.756h-3.757a1.881 1.881 0 0 0-1.878 1.878c0 1.033.842 1.878 1.878 1.878a5.642 5.642 0 0 1 5.635 5.635c0 2.445-1.574 4.511-3.756 5.289v2.223a1.88 1.88 0 0 1-1.852 1.878h14.998v-26.293h-30.05Zm33.807 0v26.293h3.756v-26.293h-3.756Zm-45.075-4.508v.751h52.587v-.751l-26.294-14.022-26.293 14.022Z" fill="#fff"/><path fill-rule="evenodd" clip-rule="evenodd" d="m816.141 523.362 28.172 15.025c.612.327.995.961.995 1.656v3.757a1.879 1.879 0 0 1-1.878 1.878h-1.878v26.293a3.76 3.76 0 0 1 3.756 3.756v5.635a1.878 1.878 0 0 1-1.878 1.878h-56.344a1.879 1.879 0 0 1-1.878-1.878v-5.635a3.76 3.76 0 0 1 3.757-3.756v-26.293h-1.879a1.88 1.88 0 0 1-1.878-1.878v-3.757c0-.695.383-1.329.992-1.656l28.172-15.025a1.89 1.89 0 0 1 1.769 0Zm-27.928 23.068h-1.127a2.63 2.63 0 0 1-2.63-2.63v-3.757c0-.973.537-1.862 1.388-2.319l.002-.001 28.175-15.026a2.638 2.638 0 0 1 2.472.001h.002l28.171 15.025a2.63 2.63 0 0 1 1.394 2.32v3.757a2.63 2.63 0 0 1-2.63 2.63h-1.126v24.852a4.514 4.514 0 0 1 3.756 4.445v5.635a2.63 2.63 0 0 1-2.63 2.63h-56.344a2.63 2.63 0 0 1-2.63-2.63v-5.635a4.514 4.514 0 0 1 3.757-4.445V546.43Zm1.503 30.049v2.253H840.8v-2.253h-51.084Zm3.757-30.049v24.789h2.252V546.43h-2.252Zm7.512 0v24.789h11.896a2.618 2.618 0 0 1-.253-1.126v-1.126h-1.126a2.63 2.63 0 0 1 0-5.26h3.756a1.13 1.13 0 0 0 1.126-1.126c0-.619-.505-1.126-1.126-1.126a6.394 6.394 0 0 1-6.386-6.387c0-2.587 1.551-4.794 3.756-5.795v-1.717c0-.403.091-.785.253-1.126h-11.896Zm29.298-.752v26.293h-14.999a1.876 1.876 0 0 0 1.852-1.878v-2.223c2.183-.778 3.757-2.844 3.757-5.289a5.64 5.64 0 0 0-5.635-5.634 1.882 1.882 0 0 1-1.878-1.879c0-1.033.842-1.878 1.878-1.878h3.756a1.88 1.88 0 0 0 0-3.756h-1.878v-1.878a1.875 1.875 0 0 0-1.878-1.878c-.614 0-1.16.295-1.502.752a1.864 1.864 0 0 0-.376 1.126v2.224c-2.182.777-3.756 2.843-3.756 5.288a5.641 5.641 0 0 0 5.634 5.635 1.88 1.88 0 0 1 1.878 1.878 1.88 1.88 0 0 1-1.878 1.878h-3.756a1.878 1.878 0 0 0 0 3.756h1.878v1.878a1.876 1.876 0 0 0 1.852 1.878h-14.999v-26.293h30.05Zm-12.648.752c.163.341.253.723.253 1.126v1.126h1.126a2.63 2.63 0 1 1 0 5.26h-3.756a1.13 1.13 0 0 0-1.126 1.126 1.13 1.13 0 0 0 1.126 1.127 6.393 6.393 0 0 1 6.387 6.386c0 2.587-1.551 4.794-3.757 5.795v1.717c0 .403-.09.785-.252 1.126h11.895V546.43h-11.896Zm17.156 0v24.789h2.253V546.43h-2.253Zm-45.826-5.26v.751h52.587v-.751l-26.294-14.022-26.293 14.022Zm1.599-.001L815.258 528l24.694 13.169h-49.388Zm-1.599 34.558h52.587v3.757h-52.587v-3.757Zm3.756-30.049h3.756v26.293h-3.756v-26.293Zm41.318 0h3.757v26.293h-3.757v-26.293Z" fill="#fff"/></g><defs><filter id="chat-bank__b" x="295.965" y="992.284" width="612.259" height="101.716" filterUnits="userSpaceOnUse" color-interpolation-filters="sRGB"><feFlood flood-opacity="0" result="BackgroundImageFix"/><feBlend in="SourceGraphic" in2="BackgroundImageFix" result="shape"/><feGaussianBlur stdDeviation="7" result="effect1_foregroundBlur_10272_1626"/></filter><filter id="chat-bank__c" x="269.129" y="386.843" width="297.472" height="87.233" filterUnits="userSpaceOnUse" color-interpolation-filters="sRGB"><feFlood flood-opacity="0" result="BackgroundImageFix"/><feColorMatrix in="SourceAlpha" values="0 0 0 0 0 0 0 0 0 0 0 0 0 0 0 0 0 0 127 0" result="hardAlpha"/><feOffset dy="1.778"/><feGaussianBlur stdDeviation="5.334"/><feColorMatrix values="0 0 0 0 0.374547 0 0 0 0 0.481553 0 0 0 0 0.601935 0 0 0 0.15 0"/><feBlend in2="BackgroundImageFix" result="effect1_dropShadow_10272_1626"/><feBlend in="SourceGraphic" in2="effect1_dropShadow_10272_1626" result="shape"/></filter><filter id="chat-bank__d" x="629.716" y="643.091" width="91.681" height="50.413" filterUnits="userSpaceOnUse" color-interpolation-filters="sRGB"><feFlood flood-opacity="0" result="BackgroundImageFix"/><feColorMatrix in="SourceAlpha" values="0 0 0 0 0 0 0 0 0 0 0 0 0 0 0 0 0 0 127 0" result="hardAlpha"/><feOffset dy=".936"/><feGaussianBlur stdDeviation="2.809"/><feColorMatrix values="0 0 0 0 0.374547 0 0 0 0 0.481553 0 0 0 0 0.601935 0 0 0 0.15 0"/><feBlend in2="BackgroundImageFix" result="effect1_dropShadow_10272_1626"/><feBlend in="SourceGraphic" in2="effect1_dropShadow_10272_1626" result="shape"/></filter><filter id="chat-bank__e" x="387.855" y="473.841" width="91.681" height="50.413" filterUnits="userSpaceOnUse" color-interpolation-filters="sRGB"><feFlood flood-opacity="0" result="BackgroundImageFix"/><feColorMatrix in="SourceAlpha" values="0 0 0 0 0 0 0 0 0 0 0 0 0 0 0 0 0 0 127 0" result="hardAlpha"/><feOffset dy=".936"/><feGaussianBlur stdDeviation="2.809"/><feColorMatrix values="0 0 0 0 0.374547 0 0 0 0 0.481553 0 0 0 0 0.601935 0 0 0 0.15 0"/><feBlend in2="BackgroundImageFix" result="effect1_dropShadow_10272_1626"/><feBlend in="SourceGraphic" in2="effect1_dropShadow_10272_1626" result="shape"/></filter><filter id="chat-bank__f" x="454.435" y="520.327" width="448.555" height="128.463" filterUnits="userSpaceOnUse" color-interpolation-filters="sRGB"><feFlood flood-opacity="0" result="BackgroundImageFix"/><feColorMatrix in="SourceAlpha" values="0 0 0 0 0 0 0 0 0 0 0 0 0 0 0 0 0 0 127 0" result="hardAlpha"/><feOffset dy="2.345"/><feGaussianBlur stdDeviation="7.034"/><feColorMatrix values="0 0 0 0 0.374547 0 0 0 0 0.481553 0 0 0 0 0.601935 0 0 0 0.15 0"/><feBlend in2="BackgroundImageFix" result="effect1_dropShadow_10272_1626"/><feBlend in="SourceGraphic" in2="effect1_dropShadow_10272_1626" result="shape"/></filter><clipPath id="chat-bank__a"><path fill="#fff" d="M0 0h1080v1080H0z"/></clipPath></defs></svg>