<svg width="1080" height="1080" viewBox="0 0 1080 1080" fill="none" xmlns="http://www.w3.org/2000/svg"><g clip-path="url(#blip-sales-2__a)"><g opacity=".06" filter="url(#blip-sales-2__b)"><path d="M871.373 972.579c0 18.106-140.356 32.781-313.493 32.781s-313.493-14.675-313.493-32.781c0-18.105 140.356-32.783 313.493-32.783s313.493 14.678 313.493 32.783Z" fill="#0A0F1A"/></g><path d="M908.746 719.096S708.979 984.738 483.297 1020.88c-225.682 36.15-329.418-61.031-321.636-164.996 7.782-103.964 41.479-178.564-25.914-259.945S-25.11 448.979 42.361 247.764 296.526-16.726 415.904 3.62c119.378 20.345 129.65 133.397 269.728 162.763 140.079 29.365 316.498-24.822 363.188 122.071 46.7 146.893-46.69 320.642-140.074 430.642Z" fill="#B9CBD3" style="mix-blend-mode:luminosity" opacity=".16"/><path d="M316.174 78.039c0-41.139 33.35-74.489 74.488-74.489h334.185c41.139 0 74.489 33.35 74.489 74.489v822.986c0 41.139-33.35 74.489-74.489 74.489H390.663c-41.139 0-74.489-33.35-74.489-74.489V78.039Z" fill="#1A2437"/><path d="M346.021 72.163c0-22.439 18.191-40.63 40.63-40.63h342.995c22.439 0 40.63 18.19 40.63 40.63v832.423c0 22.44-18.191 40.63-40.63 40.63H386.651c-22.439 0-40.63-18.19-40.63-40.63V72.163Z" fill="#F5F8F9"/><path d="M769.716 906.934c0 21.005-17.028 38.033-38.033 38.033H383.358c-21.006 0-38.033-17.028-38.033-38.033v-24.509h424.391v24.509Z" fill="#F8FBFB"/><path fill-rule="evenodd" clip-rule="evenodd" d="M769.716 883.058H345.324v-1.267h424.392v1.267Z" fill="#D2DFE6"/><path fill-rule="evenodd" clip-rule="evenodd" d="M381.807 901.784a12.66 12.66 0 0 0-8.95 21.608 12.66 12.66 0 0 0 21.608-8.951c0-3.356-1.334-6.576-3.707-8.95a12.663 12.663 0 0 0-8.951-3.707Zm0 23.922a11.174 11.174 0 0 1-7.91-3.29 10.93 10.93 0 0 1-2.041-2.753 11.28 11.28 0 1 1 9.983 6.043h-.032Z" fill="#2CC3D5"/><path fill-rule="evenodd" clip-rule="evenodd" d="M377.676 912.984a1.383 1.383 0 0 0 1.283-.838 1.378 1.378 0 0 0-2.411-1.305 1.379 1.379 0 0 0 1.128 2.143Zm8.466 0a1.374 1.374 0 0 0 1.35-1.645 1.368 1.368 0 0 0-.377-.704 1.382 1.382 0 0 0-1.5-.299 1.377 1.377 0 0 0 .527 2.648Zm-5.079 7.041a6.553 6.553 0 0 1-4.746-2.927l-1.14.744a7.91 7.91 0 0 0 5.696 3.544c.295.016.591.016.886 0a7.913 7.913 0 0 0 6.63-3.592l-1.155-.743a6.535 6.535 0 0 1-6.171 2.974Z" fill="#2CC3D5"/><path d="M346.052 69.277c0-21.005 17.028-38.033 38.033-38.033h348.191c21.005 0 38.033 17.028 38.033 38.033v14.085H346.052V69.277Z" fill="#2498A8"/><path d="M770.444 82.87H346.052v59.564h424.392V82.871Z" fill="#2CC3D5"/><path d="m745.106 112.407 6.448-6.466a1.032 1.032 0 0 0-.757-1.677 1.03 1.03 0 0 0-.703.23l-6.453 6.448-6.452-6.448a1.037 1.037 0 0 0-1.174-.323 1.037 1.037 0 0 0-.557 1.435c.066.13.158.244.271.335l6.448 6.453-6.448 6.465a1.031 1.031 0 0 0 .159 1.588 1.033 1.033 0 0 0 1.301-.128l6.452-6.452 6.453 6.452a1.01 1.01 0 0 0 .728.302 1.035 1.035 0 0 0 .732-1.762l-6.448-6.452Zm-374.435 7.743a.713.713 0 0 1-.545-.257l-4.983-5.936a1.446 1.446 0 0 1 0-1.865l4.983-5.936a.724.724 0 0 1 1.109.93l-4.983 5.938 4.975 5.939a.719.719 0 0 1 .102.772.718.718 0 0 1-.658.415Z" fill="#fff"/><path d="M439.333 31.244h236.254v3.708c0 17.68-14.332 32.012-32.012 32.012H471.344c-17.679 0-32.011-14.332-32.011-32.012v-3.708Z" fill="#1A2437"/><path d="M578.04 44.36h-71.427a3.151 3.151 0 0 0 0 6.303h71.427a3.152 3.152 0 1 0 0-6.303Zm34.101 4.453a4.488 4.488 0 0 1-2.754 4.168 4.482 4.482 0 0 1-6.129-3.27 4.486 4.486 0 0 1 1.927-4.608 4.485 4.485 0 0 1 2.503-.742 4.454 4.454 0 0 1 4.453 4.452Z" opacity=".2" fill="#F8FBFB"/><g filter="url(#blip-sales-2__c)"><path d="M654.321 655.836c0-9.446 7.657-17.104 17.104-17.104h61.554c9.446 0 17.104 7.658 17.104 17.104v24.035a5.498 5.498 0 0 1-5.498 5.498h-73.16c-9.447 0-17.104-7.658-17.104-17.104v-12.429Z" fill="#fff"/></g><path d="M716.005 665.97c1.993-7.623-2.571-15.418-10.194-17.411-7.624-1.993-15.419 2.572-17.412 10.195-1.993 7.623 2.572 15.418 10.195 17.411 7.623 1.993 15.418-2.572 17.411-10.195Z" fill="#F9B42F"/><path d="M697.58 659.751c0 .966-.659 1.75-1.467 1.75s-1.464-.784-1.464-1.75.66-1.751 1.464-1.751c.804 0 1.467.785 1.467 1.751Zm11.695 1.764a.467.467 0 0 1-.33-.122c-.956-.88-2.363-.191-2.38-.181a.469.469 0 0 1-.66-.375.466.466 0 0 1 .064-.285 3.731 3.731 0 0 1 3.349-1.674.46.46 0 0 1 .432.498.475.475 0 0 1-.318.409.458.458 0 0 1-.18.022 2.763 2.763 0 0 0-1.269.225 2.594 2.594 0 0 1 1.592.685.474.474 0 0 1 .122.504.444.444 0 0 1-.422.294Zm-6.089 10.133a6.99 6.99 0 0 1-4.285-1.467.696.696 0 0 1-.098-.957.7.7 0 0 1 .951-.147 5.605 5.605 0 0 0 9.023-4.592.697.697 0 0 1 .677-.72.698.698 0 0 1 .72.677 7.004 7.004 0 0 1-6.777 7.203l-.211.003Z" fill="#2C2A46"/><path d="M579.103 829.843c0-9.489-7.692-17.181-17.181-17.181H383.675c-9.489 0-17.181 7.692-17.181 17.181v24.013a5.727 5.727 0 0 0 5.727 5.727h189.701c9.489 0 17.181-7.693 17.181-17.182v-12.558Z" fill="#D2DFE6"/><path d="M484.586 730.191c0-9.489 7.693-17.181 17.182-17.181H732.8c9.489 0 17.181 7.692 17.181 17.181v51.871a5.728 5.728 0 0 1-5.727 5.728H501.768c-9.489 0-17.182-7.693-17.182-17.182v-40.417Z" fill="#DEE8EC"/><path d="M541.92 939.856a.754.754 0 0 0 .533-1.285.754.754 0 0 0-1.065 1.065c.141.141.333.22.532.22Z" fill="#DF638D"/><rect x="434" y="109" width="60" height="9" rx="4.5" fill="#fff"/><path fill-rule="evenodd" clip-rule="evenodd" d="M403.895 131.203a18.626 18.626 0 0 0 10.338-3.143 18.617 18.617 0 1 0-28.968-15.487 18.666 18.666 0 0 0 18.63 18.63Z" fill="#FB5A8B"/><path d="M421.026 106.3a6.166 6.166 0 1 0 0-12.332 6.166 6.166 0 0 0 0 12.332Z" fill="#90E6BC"/><path fill-rule="evenodd" clip-rule="evenodd" d="M421.026 94.7a5.434 5.434 0 1 0 0 10.868 5.434 5.434 0 0 0 0-10.868Zm-6.897 5.434a6.897 6.897 0 1 1 13.794 0 6.897 6.897 0 0 1-13.794 0Z" fill="#2CC3D5"/><g filter="url(#blip-sales-2__d)"><path d="M663.059 429.259v154.776c0 10.424-8.454 18.877-18.877 18.877H436.54c-10.424 0-18.877-8.453-18.877-18.877 0-146.321-.012-118.911.041-154.776h245.355Z" fill="#fff"/></g><path d="M663.593 429.259v35.747c0 7.735-6.201 14.144-13.937 14.175H432.128c-7.734-.033-13.931-6.442-13.931-14.175 0-10.314-.007-3.08.042-35.747h245.354Z" fill="#D2DFE6" fill-opacity=".4"/><path d="M677.483 429.259c0 18.887-15.316 34.214-34.214 34.214-18.894 0-34.214-15.319-34.214-34.214 0 18.895-15.319 34.214-34.213 34.214-18.895 0-34.214-15.319-34.214-34.214 0 18.895-15.32 34.214-34.214 34.214S472.2 448.154 472.2 429.259c-.029 18.771-15.479 34.214-34.214 34.214-18.712 0-34.184-15.424-34.213-34.214 0-29.735-.082-27.905.206-29.27.283-1.34-1.679 3.403 28.002-65.101a9.447 9.447 0 0 1 8.66-5.686h199.974a9.446 9.446 0 0 1 8.659 5.686c29.704 68.555 27.719 63.76 28.002 65.101.288 1.362.207-.497.207 29.27Z" fill="#4C9AFF"/><path d="M677.472 429.259c0 18.887-15.315 34.214-34.214 34.214-18.894 0-34.213-15.319-34.213-34.214 0 18.895-15.32 34.214-34.214 34.214s-34.214-15.319-34.214-34.214c0 18.895-15.319 34.214-34.214 34.214-18.894 0-34.213-15.319-34.213-34.214-.03 18.771-15.479 34.214-34.214 34.214-18.712 0-34.185-15.424-34.214-34.214v-27.312c0-.66.071-1.315.206-1.958h273.298c.287 1.362.206-.497.206 29.27Z" fill="#307DDF"/><path d="M602.435 499.711a4.132 4.132 0 0 0-4.049-4.948h-93.109l-.14-.657c-1.472-6.959-7.704-12.01-14.817-12.01h-7.045a4.13 4.13 0 1 0 0 8.261h7.045c3.233 0 6.066 2.296 6.735 5.459l12.275 57.986c1.159 5.478 5.272 9.761 10.438 11.342a12.314 12.314 0 0 0-.968 4.799c0 6.833 5.559 12.392 12.392 12.392 6.833 0 12.392-5.559 12.392-12.392 0-1.448-.252-2.838-.71-4.131h18.495a12.324 12.324 0 0 0-.711 4.131c0 6.833 5.559 12.392 12.392 12.392 6.834 0 12.393-5.559 12.393-12.392a12.35 12.35 0 0 0-.711-4.131h.986a4.13 4.13 0 1 0 0-8.261h-61.571c-3.233 0-6.065-2.296-6.735-5.459l-1.059-5.006h20.881l.012.001.008-.001h26.43l.009.001.011-.001h25.793a4.13 4.13 0 0 0 4.049-3.314l4.341-21.513c.112-.33.184-.677.209-1.038l4.339-21.51Zm-67.112 70.232a4.135 4.135 0 0 1-4.131 4.131 4.135 4.135 0 0 1-4.131-4.131 4.135 4.135 0 0 1 4.131-4.131 4.135 4.135 0 0 1 4.131 4.131Zm41.858 0a4.135 4.135 0 0 1-4.131 4.131 4.135 4.135 0 0 1-4.13-4.131 4.135 4.135 0 0 1 4.13-4.131 4.135 4.135 0 0 1 4.131 4.131Zm13.379-53.149h-19.439l1.721-13.769h20.496l-2.778 13.769Zm-49.663 22.031-1.721-13.769h22.586l-1.721 13.769h-19.144Zm-2.754-22.031-1.721-13.769h28.094l-1.721 13.769h-24.652Zm-10.047-13.769 1.721 13.769H509.94l-2.915-13.769h21.071Zm-16.407 22.031h19.161l1.721 13.769h-17.967l-2.915-13.769Zm56.678 13.769 1.721-13.769h18.806l-2.778 13.769h-17.749Z" fill="#3A4A65"/><g filter="url(#blip-sales-2__e)"><path d="M546.807 220.623c0-8.004 6.488-14.492 14.491-14.492h335.871c8.003 0 14.491 6.488 14.491 14.492V290.3a2.898 2.898 0 0 1-2.898 2.899H561.298c-8.003 0-14.491-6.488-14.491-14.492v-58.084Z" fill="#fff"/></g><path fill-rule="evenodd" clip-rule="evenodd" d="M760.688 238.88a4.532 4.532 0 0 0-4.532-4.532H581.503a4.532 4.532 0 1 0 0 9.064h174.653a4.533 4.533 0 0 0 4.532-4.532Zm0 21.766a4.532 4.532 0 0 0-4.532-4.532H638.265a4.532 4.532 0 1 0 0 9.064h117.891a4.532 4.532 0 0 0 4.532-4.532Z" fill="#D2DFE6"/><path d="M894.803 224.739c0 26.047-21.114 47.162-47.161 47.162s-47.162-21.115-47.162-47.162c0-26.046 21.115-47.161 47.162-47.161s47.161 21.115 47.161 47.161Z" fill="#FB5A8B"/><path d="M864.372 212.275h-6.147v-1.537c0-5.931-4.825-10.757-10.757-10.757-5.931 0-10.757 4.826-10.757 10.757v1.537h-6.147c-.849 0-1.537.688-1.537 1.537v30.734a4.615 4.615 0 0 0 4.611 4.61h27.661a4.615 4.615 0 0 0 4.61-4.61v-30.734c0-.849-.688-1.537-1.537-1.537Zm-24.588-1.537c0-4.237 3.447-7.684 7.684-7.684s7.684 3.447 7.684 7.684v1.537h-15.368v-1.537Zm23.051 33.808c0 .847-.689 1.537-1.536 1.537h-27.661c-.848 0-1.537-.69-1.537-1.537v-29.198h4.61v3.074a1.537 1.537 0 0 0 3.073 0v-3.074h15.368v3.074a1.536 1.536 0 0 0 3.073 0v-3.074h4.61v29.198Z" fill="#fff"/><path d="M853.79 224.124a1.536 1.536 0 0 0-2.156.27l-10.757 13.83c-.791 1.016-.05 2.48 1.212 2.48.458 0 .911-.203 1.214-.593l10.757-13.831c.521-.669.4-1.635-.27-2.156Zm-.943 16.581a3.073 3.073 0 1 0 0-6.147 3.073 3.073 0 0 0 0 6.147Zm-10.757-10.758a3.073 3.073 0 1 0 0-6.146 3.073 3.073 0 0 0 0 6.146Zm-431.679-122.49h-2.505v-.626a4.387 4.387 0 0 0-4.382-4.382 4.387 4.387 0 0 0-4.383 4.382v.626h-2.504a.626.626 0 0 0-.626.626v12.522a1.88 1.88 0 0 0 1.878 1.878h11.27a1.88 1.88 0 0 0 1.878-1.878v-12.522a.626.626 0 0 0-.626-.626Zm-10.017-.626a3.133 3.133 0 0 1 3.13-3.13 3.133 3.133 0 0 1 3.13 3.13v.626h-6.26v-.626Zm9.391 13.774a.627.627 0 0 1-.626.626h-11.27a.627.627 0 0 1-.626-.626v-11.896h1.878v1.253a.627.627 0 0 0 1.253 0v-1.253h6.26v1.253a.627.627 0 0 0 1.252 0v-1.253h1.879v11.896Z" fill="#fff"/><path d="M406.1 112.285a.626.626 0 0 0-.879.11l-4.383 5.634a.627.627 0 0 0 .989.769l4.382-5.635a.625.625 0 0 0-.109-.878Zm-.385 6.754a1.251 1.251 0 1 0 .001-2.503 1.251 1.251 0 0 0-.001 2.503Zm-4.382-4.382a1.252 1.252 0 1 0 0-2.504 1.252 1.252 0 0 0 0 2.504Z" fill="#fff"/><path fill-rule="evenodd" clip-rule="evenodd" d="M242.086 814.935c12.261 5.042 18.114 19.068 13.072 31.33l-22.201-9.129-22.201-9.129c5.042-12.261 19.069-18.114 31.33-13.072Zm-91.317 170.461c-4.661 16.254-6.264 37.224 6.476 54.574 12.91 17.58 34.702 23.57 58.029 23.57 13.257 0 24.004-10.75 24.004-24.01 0-13.25-10.747-24-24.004-24-8.143 0-13.222-1.08-16.15-2.17-1.411-.52-2.219-1.01-2.633-1.31-.393-.29-.521-.46-.548-.5-.028-.03-.111-.15-.216-.46-.112-.33-.273-.97-.343-2.01-.145-2.19.153-5.63 1.537-10.458l.002-.01c4.85-16.939 19.123-54.442 32.739-88.961a5311.365 5311.365 0 0 1 17.782-44.453 5255.041 5255.041 0 0 1 5.625-13.832c.671-1.643 1.195-2.922 1.55-3.789l.539-1.312-22.201-9.129c-22.201-9.129-22.201-9.128-22.201-9.127l-.558 1.359c-.362.884-.894 2.181-1.573 3.843a5407.618 5407.618 0 0 0-23.623 58.823c-13.316 33.758-28.596 73.681-34.23 93.353" fill="#CB8591"/><path fill-rule="evenodd" clip-rule="evenodd" d="m259.637 855.707-.003.006-.002.003-.051.1-.27.533c-.249.496-.637 1.272-1.147 2.311a460.332 460.332 0 0 0-4.4 9.243c-3.749 8.087-8.941 19.793-14.603 34.054-6.115 15.402-23.558 22.931-38.96 16.816-15.402-6.116-22.931-23.559-16.816-38.961 6.141-15.464 11.791-28.212 15.933-37.149 2.073-4.471 3.774-8 4.976-10.448a318.897 318.897 0 0 1 1.414-2.848c.168-.334.302-.597.398-.786l.117-.229.058-.113c.001-.002.002-.004 26.409 13.599l-26.407-13.603c7.589-14.732 25.683-20.523 40.415-12.934 14.726 7.586 20.518 25.67 12.942 40.399l-.003.007Z" fill="#F66689"/><path fill-rule="evenodd" clip-rule="evenodd" d="M413.595 815.084c12.399-4.693 26.255 1.554 30.947 13.953l-22.45 8.497-22.45 8.497c-4.693-12.398 1.554-26.254 13.953-30.947Zm38.462 180.747c-4.408-17.078-17.255-53.964-29.495-87.784a5121.117 5121.117 0 0 0-21.043-57.034c-.603-1.605-1.074-2.854-1.393-3.701l-.484-1.281 22.45-8.497c22.45-8.497 22.451-8.496 22.451-8.495l.502 1.329 1.414 3.756a5147.492 5147.492 0 0 1 21.247 57.585c11.987 33.122 25.743 72.384 30.839 92.136l.005.02c6.018 23.405 3.809 47.205-15.346 63.345-16.235 13.68-39.39 16.65-60.432 16.65-13.257 0-24.004-10.75-24.004-24.01 0-13.26 10.747-24 24.004-24 8.952 0 15.897-.72 21.074-1.93 5.221-1.23 7.561-2.7 8.427-3.43.471-.39.771-.69 1.026-1.93.359-1.74.577-5.65-1.242-12.729Z" fill="#CB8591"/><path fill-rule="evenodd" clip-rule="evenodd" d="M408.363 815.675c14.735-7.582 32.827-1.784 40.41 12.951l-26.681 13.73c26.681-13.73 26.682-13.728 26.683-13.726l.057.113.117.228.398.787c.336.669.813 1.625 1.413 2.849a519.912 519.912 0 0 1 4.974 10.452c4.142 8.94 9.791 21.691 15.93 37.153 6.115 15.402-1.413 32.845-16.815 38.96-15.402 6.116-32.845-1.413-38.96-16.815-5.663-14.263-10.856-25.977-14.606-34.07a461.798 461.798 0 0 0-4.402-9.253c-.51-1.04-.898-1.817-1.148-2.315-.125-.248-.215-.427-.27-.533l-.051-.101-.002-.004-.002-.004-.004-.007c-7.57-14.733-1.771-32.815 12.959-40.395Z" fill="#F66689"/><path d="M432.874 1064.02V816.171c0-6.181-46.889-11.202-104.739-11.202-57.851 0-104.76 5.001-104.76 11.202v247.849h209.499Z" fill="#F66689"/><path d="M427.413 1058h6.822V936.413a291.43 291.43 0 0 0-6.362-44.448s1.221 101.219-.46 166.035Zm-200.377-6.68c-.62-60.336 2.56-153.353 2.56-153.353-5.941 9.322-10.221 33.326-10.221 33.326l.1 120.027h7.561Z" fill="#F56D73"/><path d="M324.523 832.754c11.103 0 20.104-7.415 20.104-16.563s-9.001-16.563-20.104-16.563-20.103 7.415-20.103 16.563 9 16.563 20.103 16.563Z" fill="#CB8591"/><path d="M324.524 801.628c10.001 0 18.003 6.542 18.003 14.563s-8.122 14.583-18.003 14.583c-9.882 0-18.124-6.542-18.124-14.583 0-8.042 8.122-14.563 18.124-14.563Zm0-2c-11.122 0-20.124 7.421-20.124 16.563s9.002 16.583 20.124 16.583c11.122 0 20.003-7.421 20.003-16.583 0-9.162-9.001-16.563-20.003-16.563Z" fill="#fff"/><path d="M326.144 779.365h-3.26a60.687 60.687 0 0 1-13.143-1.4v38.007a13.242 13.242 0 0 0 13.243 13.262h3.06a13.233 13.233 0 0 0 9.423-3.857 13.249 13.249 0 0 0 3.9-9.405v-38.007a61.812 61.812 0 0 1-13.223 1.4Z" fill="#CB8591"/><path d="M309.781 791.967v10.962s3.18-5.421 14.782-5.481c11.603-.06 14.763 6.001 14.763 6.001v-13.163l-29.545-.54v2.221Z" fill="#A8747D"/><path d="M261.352 692.449v28.125a9.56 9.56 0 0 1-9.402-9.582v-9.042a9.58 9.58 0 0 1 9.402-9.501Zm135.665 9.501v8.962a9.56 9.56 0 0 1-9.402 9.582v-28.045a9.58 9.58 0 0 1 9.402 9.501Z" fill="#CB8591"/><path d="M387.615 664.362v65.592a61.37 61.37 0 0 1-61.471 61.471h-3.261a60.631 60.631 0 0 1-13.143-1.42 61.489 61.489 0 0 1-48.388-60.051v-65.592a61.47 61.47 0 0 1 61.531-61.471h3.261a61.47 61.47 0 0 1 61.471 61.471Z" fill="#CB8591"/><path d="M325.364 676.645c-3.181 2.001-10.902 2.481-20.144 3.141-9.242.66-12.882-2.68-19.824.34-6.941 3.021-21.343 2.921-29.805-4.001a50.34 50.34 0 0 1-12.902-17.863c-7.502-22.924 19.663-36.087 19.663-36.087s1.1-20.423 26.005-18.443c0 0 3.601.62 6.281-7.201 2.681-7.822 43.408-28.606 67.333.06 0 0 7.741 14.762 13.442 13.862 5.701-.9 51.19 10.162 35.107 53.07-2.781 7.421-16.504 31.666-53.49 11.702 0 0-18.264-7.281-31.666 1.42Z" fill="#2C2A46"/><path opacity=".2" d="M283.356 678.146c1.86-.201-18.224 9.801-22.004 32.225v-37.746h9.421l12.583 5.521Z" fill="#2C2A46"/><path fill-rule="evenodd" clip-rule="evenodd" d="M259.911 683.947a1.5 1.5 0 0 1 1.5-1.501h5.942a1.5 1.5 0 0 1 0 3.001h-5.942a1.5 1.5 0 0 1-1.5-1.5Zm0 6.582a1.5 1.5 0 0 1 1.5-1.501h5.942a1.5 1.5 0 0 1 0 3.001h-5.942a1.5 1.5 0 0 1-1.5-1.5Z" fill="#2C2A46"/><path opacity=".2" d="M365.511 678.146c-1.761-.281 18.303 9.881 22.004 32.225v-37.746h-9.422l-12.582 5.521Z" fill="#2C2A46"/><path fill-rule="evenodd" clip-rule="evenodd" d="M380.114 683.947a1.5 1.5 0 0 1 1.5-1.501h5.941a1.5 1.5 0 0 1 0 3.001h-5.941a1.5 1.5 0 0 1-1.5-1.5Zm0 6.582a1.5 1.5 0 0 1 1.5-1.501h5.941a1.5 1.5 0 0 1 0 3.001h-5.941a1.5 1.5 0 0 1-1.5-1.5Z" fill="#2C2A46"/><path fill-rule="evenodd" clip-rule="evenodd" d="M362.998 751.022a34.406 34.406 0 0 1-33.835-28.151h-9.298a34.409 34.409 0 1 1 .473-3.635h8.351a34.419 34.419 0 0 1 9.978-26.955 34.419 34.419 0 0 1 17.618-9.417 34.411 34.411 0 0 1 41.123 33.748 34.41 34.41 0 0 1-34.41 34.41Zm0-65.184a30.779 30.779 0 0 0-28.432 18.997 30.782 30.782 0 0 0 6.671 33.538 30.78 30.78 0 0 0 33.538 6.672 30.78 30.78 0 0 0 18.998-28.433 30.789 30.789 0 0 0-9.005-21.782 30.782 30.782 0 0 0-21.77-9.035v.043Zm-76.969 0a30.774 30.774 0 1 0 30.796 30.775 30.82 30.82 0 0 0-30.796-30.818v.043Z" fill="#F9B42F"/><path d="M486.364 1025.57v.34a2.143 2.143 0 0 1 0-.34Z" fill="#F8F7EF"/><path d="m499.426 704.312-49.15 324.058H199.509l-34.144-328.058 334.061 4Z" fill="url(#blip-sales-2__f)"/><path opacity=".5" d="M419.412 873.962a8 8 0 0 1 8.001-8.001h86.016a8 8 0 0 1 8.001 8.001v56.011a8 8 0 0 1-8.001 8.001h-86.016a8 8 0 0 1-8.001-8.001v-56.011Z" fill="#C3EEF4"/><path opacity=".5" d="M427.413 881.963a8.002 8.002 0 0 1 8.002-8.001h86.016a8 8 0 0 1 8.001 8.001v56.011a8 8 0 0 1-8.001 8.001h-86.016a8.002 8.002 0 0 1-8.002-8.001v-56.011Z" fill="#87DDE8"/><path d="M502.086 894.652a1.902 1.902 0 0 0-1.868-2.283h-42.971l-.064-.304c-.68-3.211-3.556-5.543-6.839-5.543h-3.251a1.906 1.906 0 0 0 0 3.813h3.251c1.492 0 2.8 1.06 3.109 2.519l5.664 26.762c.535 2.528 2.434 4.505 4.817 5.234a5.696 5.696 0 0 0-.446 2.215 5.725 5.725 0 0 0 5.719 5.719 5.725 5.725 0 0 0 5.719-5.719c0-.668-.116-1.31-.328-1.906h8.536a5.679 5.679 0 0 0-.328 1.906 5.725 5.725 0 0 0 5.719 5.719 5.725 5.725 0 0 0 5.719-5.719c0-.668-.116-1.31-.328-1.906h.455a1.907 1.907 0 0 0 0-3.813h-28.415c-1.492 0-2.8-1.06-3.109-2.519l-.488-2.311h9.636l.006.001.004-.001h12.197l.005.001.005-.001h11.903c.908 0 1.69-.639 1.869-1.529l2.003-9.929c.052-.152.085-.312.097-.479l2.002-9.927Zm-30.973 32.413a1.908 1.908 0 0 1-1.906 1.906 1.908 1.908 0 0 1-1.906-1.906c0-1.051.855-1.906 1.906-1.906s1.906.855 1.906 1.906Zm19.319 0a1.909 1.909 0 0 1-1.907 1.906 1.908 1.908 0 0 1-1.906-1.906c0-1.051.855-1.906 1.906-1.906s1.907.855 1.907 1.906Zm6.174-24.529h-8.972l.795-6.354h9.459l-1.282 6.354Zm-22.92 10.168-.794-6.355h10.424l-.795 6.355h-8.835Zm-1.271-10.168-.794-6.354h12.966l-.795 6.354h-11.377Zm-4.637-6.354.795 6.354h-9.174l-1.345-6.354h9.724Zm-7.572 10.167h8.843l.795 6.355h-8.293l-1.345-6.355Zm26.158 6.355.794-6.355h8.679l-1.282 6.355h-8.191Z" fill="#fff"/><path opacity=".5" d="M135.359 893.965a8 8 0 0 1 8.001-8.001h82.016a8 8 0 0 1 8.001 8.001v54.01a8.002 8.002 0 0 1-8.002 8.002H143.36a8.002 8.002 0 0 1-8.001-8.002v-54.01Z" fill="#87DDE8"/><path opacity=".5" d="M125.357 885.964a8.002 8.002 0 0 1 8.002-8.001h86.016a8 8 0 0 1 8.001 8.001v56.011a8 8 0 0 1-8.001 8.001h-86.016a8.002 8.002 0 0 1-8.002-8.001v-56.011Z" fill="#C3EEF4"/><path opacity=".5" d="M69.347 821.953a8.002 8.002 0 0 1 8.001-8.002h60.011a8.002 8.002 0 0 1 8.002 8.002v40.007a8.002 8.002 0 0 1-8.002 8.002h-60.01a8.002 8.002 0 0 1-8.002-8.002v-40.007Z" fill="#87DDE8"/><path opacity=".5" d="M61.346 815.952a8.002 8.002 0 0 1 8-8.002h64.013a8.002 8.002 0 0 1 8.001 8.002v40.007a8.002 8.002 0 0 1-8.001 8.002H69.347a8.002 8.002 0 0 1-8.001-8.002v-40.007Z" fill="#C3EEF4"/><g opacity=".06" filter="url(#blip-sales-2__g)"><path d="M324.394 1080c74.572 0 135.025-3.13 135.025-7s-60.453-7-135.025-7-135.025 3.13-135.025 7 60.453 7 135.025 7Z" fill="#0A0F1A"/></g><path d="M445.268 925.972H205.924a18.577 18.577 0 0 0-14.031 6.43 18.598 18.598 0 0 0-4.333 14.814l17.063 117.404a10.83 10.83 0 0 0 3.622 6.61 10.824 10.824 0 0 0 7.06 2.63h220.581a10.783 10.783 0 0 0 10.682-9.24l17.083-117.404a18.573 18.573 0 0 0-4.339-14.821 18.589 18.589 0 0 0-14.044-6.423Z" fill="#F5F8F9"/><path opacity=".8" d="M345.845 999.015c-.561-3-2.038-5.758-4.231-7.898a15.05 15.05 0 0 0-8.03-4.069 44.925 44.925 0 0 0-8.727-.844 26.349 26.349 0 0 0-13.091 2.9c-5.018 2.965-7.505 8.786-7.2 16.406a22.28 22.28 0 0 0 5.433 14.87c3.404 3.52 9.927 5.28 15.011 5.49v3.92a2.407 2.407 0 0 0 2.399 2.4h.219a2.41 2.41 0 0 0 1.352-.56c1.964-1.67 4.56-3.9 7.091-6.23l1.113-1.02a37.49 37.49 0 0 0 5.498-5.8 25.79 25.79 0 0 0 3.163-19.565Z" fill="#D2DFE6"/><path fill-rule="evenodd" clip-rule="evenodd" d="M113.67 840.762a15.31 15.31 0 0 1 3.216 5.721 2.549 2.549 0 0 1-.375 2.275 2.498 2.498 0 0 1-2.051 1.046h-4.285a3.34 3.34 0 0 1 .54 1.82 3.16 3.16 0 0 1-.34 1.5 8.936 8.936 0 0 1-1.796 2.001l-.32.29a1.322 1.322 0 0 1-1.835 0c-.08-.08-.19-.18-.315-.29a8.931 8.931 0 0 1-1.795-2.001 3.137 3.137 0 0 1-.34-1.5 3.29 3.29 0 0 1 .545-1.82h-4.271a2.508 2.508 0 0 1-2.05-1.046 2.546 2.546 0 0 1-.376-2.275 15.311 15.311 0 0 1 3.196-5.701c.065-6.636 3.021-10.402 4.791-12.057a2.222 2.222 0 0 1 3.07 0c1.791 1.655 4.721 5.411 4.791 12.037Zm-6.316 12.792c.479-.399.903-.86 1.26-1.37.084-.174.121-.367.11-.56a1.37 1.37 0 1 0-2.74 0c-.014.192.02.385.1.56.361.511.788.972 1.27 1.37Zm-.102-23.426a.242.242 0 0 0-.078.052v.005c-1.25 1.17-4.156 4.556-4.136 10.837v.13c.006.09.015.181.024.274.016.154.031.31.031.466a44.25 44.25 0 0 0 .615 4.881c.009.043.022.085.034.126a.792.792 0 0 1 .041.214v.07l.031.12c.013.053.025.104.04.155l.025.045.029.09c.023.073.046.141.071.205h6.736c.545-1.5.875-5.396.96-6.831-.005-6.231-2.911-9.617-4.161-10.787a.242.242 0 0 0-.262-.052Zm-7.249 17.615c.076.039.16.06.245.06l1.62-.01v-.04l-.045-.19a3.46 3.46 0 0 1-.038-.161l-.032-.134-.045-.22-.06-.295-.045-.245a.963.963 0 0 0-.022-.104.81.81 0 0 1-.028-.181l-.045-.275c-.004-.027-.01-.053-.015-.079a.904.904 0 0 1-.025-.186l-.045-.31c-.025-.06-.025-.12-.025-.18-.065-.48-.12-.955-.17-1.41a14.262 14.262 0 0 0-1.5 3.295.552.552 0 0 0 .085.5c.05.069.115.126.19.165Zm14.702 0a.542.542 0 0 0 .266-.645 14.294 14.294 0 0 0-1.501-3.295 30.222 30.222 0 0 1-.65 4h1.64a.534.534 0 0 0 .245-.06Zm-5.709-6.33a2.958 2.958 0 0 1-4.385-1.322 2.957 2.957 0 0 1 .271-2.778 2.955 2.955 0 0 1 3.036-1.261 2.96 2.96 0 0 1 1.078 5.361Zm-.972-3.453a1.214 1.214 0 0 0-1.531.14 1.222 1.222 0 0 0-.359.856 1.208 1.208 0 0 0 .741 1.121 1.209 1.209 0 0 0 1.59-1.571 1.215 1.215 0 0 0-.441-.546Z" fill="#fff"/><path d="M196.748 934.629h-26.76a1.112 1.112 0 0 1-1.112-1.111v-27.094a1.113 1.113 0 0 1 1.898-.786c.208.208.325.491.325.786v25.982h25.649c.295 0 .578.117.786.326a1.109 1.109 0 0 1 0 1.572 1.112 1.112 0 0 1-.786.325Z" fill="#fff"/><path opacity=".5" d="M181.701 927.428a3.175 3.175 0 0 1-1.883-.556c-5.135-4.034-8.218-.383-8.335-.222a1.39 1.39 0 0 1-2.145-1.762c.05-.061 4.934-5.862 12.136-.261.366.172 1.6 0 3.261-2.889 3.09-5.357 8.857-8.791 9.102-8.935a1.386 1.386 0 0 1 1.903.492 1.387 1.387 0 0 1-.492 1.903c-.055.027-5.39 3.223-8.107 7.929-1.433 2.484-3.006 3.89-4.678 4.251-.252.04-.507.057-.762.05Zm-.233-2.812.044.033-.044-.033Z" fill="#fff"/><path opacity=".8" d="M170.366 927.133a1.393 1.393 0 0 1-1.15-2.162c.605-.9 6.051-8.696 11.374-8.696h.061c1.339 0 3.262.556 4.834 2.979 1.284 1.989 2.651 3.05 4.062 3.139 2.106.128 3.89-1.867 3.89-1.883a1.378 1.378 0 0 1 .954-.532 1.382 1.382 0 0 1 1.532 1.298 1.4 1.4 0 0 1-.369 1.028c-.106.128-2.662 3.09-6.185 2.862-2.333-.156-4.445-1.634-6.212-4.406-.733-1.112-1.561-1.667-2.528-1.706h-.039c-2.912 0-7.112 4.573-9.079 7.473-.127.187-.298.34-.498.445a1.375 1.375 0 0 1-.647.161Z" fill="#fff"/></g><defs><filter id="blip-sales-2__b" x="230.387" y="925.796" width="654.986" height="93.567" filterUnits="userSpaceOnUse" color-interpolation-filters="sRGB"><feFlood flood-opacity="0" result="BackgroundImageFix"/><feBlend in="SourceGraphic" in2="BackgroundImageFix" result="shape"/><feGaussianBlur stdDeviation="7" result="effect1_foregroundBlur_10272_1627"/></filter><filter id="blip-sales-2__c" x="648.955" y="634.26" width="106.494" height="57.37" filterUnits="userSpaceOnUse" color-interpolation-filters="sRGB"><feFlood flood-opacity="0" result="BackgroundImageFix"/><feColorMatrix in="SourceAlpha" values="0 0 0 0 0 0 0 0 0 0 0 0 0 0 0 0 0 0 127 0" result="hardAlpha"/><feOffset dy=".894"/><feGaussianBlur stdDeviation="2.683"/><feColorMatrix values="0 0 0 0 0.374547 0 0 0 0 0.481553 0 0 0 0 0.601935 0 0 0 0.15 0"/><feBlend in2="BackgroundImageFix" result="effect1_dropShadow_10272_1627"/><feBlend in="SourceGraphic" in2="effect1_dropShadow_10272_1627" result="shape"/></filter><filter id="blip-sales-2__d" x="406.829" y="420.232" width="267.063" height="195.319" filterUnits="userSpaceOnUse" color-interpolation-filters="sRGB"><feFlood flood-opacity="0" result="BackgroundImageFix"/><feColorMatrix in="SourceAlpha" values="0 0 0 0 0 0 0 0 0 0 0 0 0 0 0 0 0 0 127 0" result="hardAlpha"/><feOffset dy="1.806"/><feGaussianBlur stdDeviation="5.417"/><feColorMatrix values="0 0 0 0 0.374547 0 0 0 0 0.481553 0 0 0 0 0.601935 0 0 0 0.15 0"/><feBlend in2="BackgroundImageFix" result="effect1_dropShadow_10272_1627"/><feBlend in="SourceGraphic" in2="effect1_dropShadow_10272_1627" result="shape"/></filter><filter id="blip-sales-2__e" x="537.511" y="198.385" width="383.445" height="105.658" filterUnits="userSpaceOnUse" color-interpolation-filters="sRGB"><feFlood flood-opacity="0" result="BackgroundImageFix"/><feColorMatrix in="SourceAlpha" values="0 0 0 0 0 0 0 0 0 0 0 0 0 0 0 0 0 0 127 0" result="hardAlpha"/><feOffset dy="1.549"/><feGaussianBlur stdDeviation="4.648"/><feColorMatrix values="0 0 0 0 0.374547 0 0 0 0 0.481553 0 0 0 0 0.601935 0 0 0 0.15 0"/><feBlend in2="BackgroundImageFix" result="effect1_dropShadow_10272_1627"/><feBlend in="SourceGraphic" in2="effect1_dropShadow_10272_1627" result="shape"/></filter><filter id="blip-sales-2__g" x="175.369" y="1052" width="298.05" height="42.003" filterUnits="userSpaceOnUse" color-interpolation-filters="sRGB"><feFlood flood-opacity="0" result="BackgroundImageFix"/><feBlend in="SourceGraphic" in2="BackgroundImageFix" result="shape"/><feGaussianBlur stdDeviation="7" result="effect1_foregroundBlur_10272_1627"/></filter><linearGradient id="blip-sales-2__f" x1="324.893" y1="1101.4" x2="325.394" y2="787.327" gradientUnits="userSpaceOnUse"><stop offset=".108" stop-color="#DAF2F4"/><stop offset="1" stop-color="#DAF2F4" stop-opacity="0"/></linearGradient><clipPath id="blip-sales-2__a"><path fill="#fff" d="M0 0h1080v1080H0z"/></clipPath></defs></svg>