<svg xmlns="http://www.w3.org/2000/svg" width="1080" height="1081" viewBox="0 0 1080 1081" fill="none"><g clip-path="url(#a)"><path fill="#1968F0" d="M369.611 173.819c0-65.89-53.415-119.305-119.305-119.305S131 107.929 131 173.819s53.415 119.306 119.306 119.306 119.305-53.415 119.305-119.306"/><path fill="#C5D9FB" d="M1079.18 605.893c0-249.05-202.362-450.944-451.992-450.944S175.192 356.843 175.192 605.893c0 249.049 202.366 450.947 451.996 450.947s451.992-201.898 451.992-450.947"/><path fill="#35DE90" d="M438.482 735.843c27.312 0 49.452-22.141 49.452-49.452 0-27.312-22.14-49.453-49.452-49.453s-49.452 22.141-49.452 49.453c0 27.311 22.141 49.452 49.452 49.452M244.4 720.827c27.312 0 49.452-22.141 49.452-49.452 0-27.312-22.14-49.452-49.452-49.452s-49.452 22.14-49.452 49.452 22.141 49.452 49.452 49.452"/><path fill="#35DE90" d="m377.621 472.935 12.121 217.917 98.53-5.481-12.12-217.916z"/><path fill="#35DE90" d="m444.832 636.292-198.738-14.551-7.205 98.412 198.737 14.551z"/><path fill="#8C3A03" d="M248.804 444.889h-90.323l-6.887 6.887v169.808h66.726v-27.21h30.484l6.887-6.887V451.776z"/><path fill="#000" fill-rule="evenodd" d="M228.479 518.643a1.69 1.69 0 0 1 2.231.871l16.283 37.148h-19.415a1.693 1.693 0 0 1 0-3.387h14.232l-14.202-32.401a1.69 1.69 0 0 1 .871-2.231" clip-rule="evenodd"/><path fill="#1F1F1F" d="m262.353 432.129-103.195 8.694c-4.29.339-7.564 3.952-7.564 8.242v15.694a8.335 8.335 0 0 0 8.355 8.354h95.742c3.613 0 6.888-2.37 7.904-5.87l7.451-24.388c1.807-5.645-2.822-11.177-8.693-10.726"/><path fill="#1F1F1F" d="M159.158 585.001h-7.564V463.064h29.016z"/><path fill="#8C3A03" d="M152.948 557.227h20.662l3.048-29.694h-30.484v22.92c.113 3.725 3.048 6.774 6.774 6.774"/><path fill="url(#b)" d="m313.385 725.794 1.355-36.469 55.21 40.646z"/><path fill="url(#c)" d="m52.575 630.73 99.017-10.839h67.178l98.34 7.79-8.355 220.276H69.85z"/><path fill="#35DE90" d="M116.141 914.797c27.311 0 49.452-22.14 49.452-49.452s-22.141-49.452-49.452-49.452c-27.312 0-49.452 22.14-49.452 49.452s22.14 49.452 49.452 49.452M56.302 729.52c27.311 0 49.452-22.14 49.452-49.451 0-27.312-22.14-49.453-49.452-49.453S6.85 652.757 6.85 680.069c0 27.311 22.14 49.451 49.452 49.451"/><path fill="#8C3A03" d="M999.39 638.631H888.518a14.65 14.65 0 0 1-14.677-14.677V520.082a14.65 14.65 0 0 1 14.677-14.678H999.39a14.65 14.65 0 0 1 14.68 14.678v103.872a14.65 14.65 0 0 1-14.68 14.677"/><path fill="#8C3A03" d="M859.164 659.745H748.292a14.65 14.65 0 0 1-14.678-14.678V541.195a14.65 14.65 0 0 1 14.678-14.677h110.872a14.65 14.65 0 0 1 14.677 14.677v103.872a14.65 14.65 0 0 1-14.677 14.678"/><path fill="#8C3A03" d="M948.808 547.97h-60.404a14.65 14.65 0 0 1-14.677-14.677v-55.888a14.65 14.65 0 0 1 14.677-14.677h60.404a14.65 14.65 0 0 1 14.677 14.677v55.888a14.65 14.65 0 0 1-14.677 14.677M848.551 549.549h-60.404a14.65 14.65 0 0 1-14.677-14.677v-55.888a14.65 14.65 0 0 1 14.677-14.677h60.404a14.65 14.65 0 0 1 14.678 14.677v55.888a14.65 14.65 0 0 1-14.678 14.677"/><path fill="#0096FA" d="m650.403 588.728-28.565 99.694 129.275-3.049 52.614-96.645z"/><path fill="#0096FA" d="M623.532 688.085c27.312 0 49.452-22.141 49.452-49.453 0-27.311-22.14-49.451-49.452-49.451s-49.452 22.14-49.452 49.451c0 27.312 22.141 49.453 49.452 49.453"/><path fill="#0096FA" d="m656.161 592.567-5.645-119.001-83.888 4.404 7.565 166.759z"/><path fill="#FCAA73" d="M818.969 418.58h90.324l6.887 6.887v169.808h-66.727v-27.21h-30.484l-6.887-6.887V425.467z"/><path fill="#F06305" fill-rule="evenodd" d="M839.307 492.301a1.73 1.73 0 0 1 .898 2.28l-14.075 32.35h14.067a1.732 1.732 0 0 1 0 3.466h-16.71a1.735 1.735 0 0 1-1.589-2.425l15.129-34.774a1.733 1.733 0 0 1 2.28-.897" clip-rule="evenodd"/><path fill="#0096FA" d="M1049.41 642.358c-4.63-25.516-22.81-46.517-47.54-54.646l-211.804.113c-35.452 6.548-47.42 29.129-51.936 54.645l12.871 158.179 97.888 1.129H1075.6z"/><path fill="#0096FA" d="m975.112 801.78 103.648 18.855-15.92-90.21H962.692z"/><path fill="url(#d)" d="m959.986 694.295 15.806 107.484H757.774z"/><path fill="url(#e)" d="m762.744 676.115 22.017 119.453H710.47z"/><path fill="#0096FA" d="M1030.55 881.15c27.31 0 49.45-22.14 49.45-49.452s-22.14-49.452-49.45-49.452-49.454 22.14-49.454 49.452 22.144 49.452 49.454 49.452"/><path fill="#35DE90" d="M716.338 449.403c0-13.096-10.613-23.822-23.822-23.822H518.53v72.259c4.404-2.371 9.371-3.839 14.791-3.839 16.822 0 30.484 13.661 30.484 30.484 0 16.822-13.662 30.484-30.484 30.484-5.307 0-10.387-1.355-14.791-3.839v72.259h72.259c-2.371 4.403-3.839 9.371-3.839 14.79 0 16.823 13.662 30.485 30.484 30.485s30.484-13.662 30.484-30.485c0-5.306-1.354-10.387-3.838-14.79h72.258z"/><path fill="#0C4EC0" d="M730.79 687.632c3.387 3.726 5.871 8.242 7.113 13.436 3.838 16.371-6.21 32.742-22.581 36.581s-32.742-6.21-36.581-22.581c-1.242-5.194-1.016-10.387.338-15.242l-70.339 16.71 16.71 70.339c3.726-3.387 8.242-5.871 13.436-7.113 16.371-3.839 32.742 6.21 36.581 22.581 3.838 16.371-6.21 32.742-22.581 36.581-5.194 1.241-10.387 1.016-15.242-.339l16.71 70.339 169.356-40.193c12.758-3.049 20.661-15.807 17.613-28.678l-40.194-169.357z"/><path fill="#072F73" d="M546.193 822.891c16.836 0 30.484-13.648 30.484-30.484s-13.648-30.484-30.484-30.484-30.484 13.648-30.484 30.484 13.648 30.484 30.484 30.484"/><path fill="#072F73" d="m327.16 845.811 17.5-173.082 71.92 7.226a30.6 30.6 0 0 0-5.306 14.226c-1.694 16.71 10.5 31.613 27.21 33.307 16.709 1.694 31.613-10.5 33.306-27.21.565-5.306-.338-10.5-2.258-15.016l71.92 7.226-19.871 196.792-173.082-17.501c-13.097-1.242-22.581-12.984-21.339-25.968"/><path fill="#0096FA" d="M533.323 494.115c-5.306 0-10.387 1.355-14.79 3.839v-72.259H344.547c-13.096 0-23.822 10.613-23.822 23.823v173.986h72.258c-2.371 4.403-3.838 9.371-3.838 14.79 0 16.823 13.661 30.484 30.484 30.484 16.822 0 30.484-13.661 30.484-30.484 0-5.306-1.355-10.387-3.839-14.79h72.259v-72.259c4.403 2.371 9.371 3.839 14.79 3.839 16.823 0 30.484-13.662 30.484-30.484s-13.661-30.485-30.484-30.485"/><path fill="#FCAA73" d="m911.325 754.585-75.759-41.887-42.452-.791-28.903 9.485 4.516 8.693 16.822-1.355-21.451 10.274 6.661 8.694 43.694-10.839-31.162 18.178 5.081 7.226 33.533-8.92-22.92 12.984 4.29 6.775 32.743-8.468 19.984 17.5 16.484 2.032z"/><path fill="#0096FA" d="m981.213 775.472-25.178-15.806-60.968-29.242-35.001 76.436 151.294 70.678z"/><path fill="#FCAA73" d="m613.596 411.016 18.516-.79-4.855 31.5-10.5-.452zM612.58 405.484l-19.645 1.468 8.919 42.227 14.565-1.807z"/><path fill="#FCAA73" d="m594.967 413.613-16.822 2.936 8.806 28 11.403-2.371z"/><path fill="#FCAA73" d="m579.613 421.065-14.226 3.162 8.806 19.645 9.033-2.823z"/><path fill="#8C3A03" d="m812.082 473.339 54.759-34.549 49.339 120.469V425.467l-6.887-6.887h-90.324l-6.887 6.887z"/><path fill="#FCAA73" d="M914.825 530.809h-20.661l-3.049-29.694h30.484v22.92c-.113 3.838-3.048 6.774-6.774 6.774"/><path fill="#8C3A03" d="m402.467 415.871-18.065 4.065 12.984 29.242 9.936-3.274zM402.015 410.226l19.419-3.613 2.371 43.017-14.564 2.032z"/><path fill="#8C3A03" d="m421.208 413.615 16.936-1.581-1.129 29.355-11.63.565z"/><path fill="#8C3A03" d="m437.805 416.662 14.677-.564-3.387 21.226-9.484-.339zM255.691 754.698l71.92-47.985 42.339-4.403 29.581 7-3.725 9.032h-16.823l22.129 8.468-5.871 9.258-44.484-7.113 32.629 15.468-4.516 7.677-34.097-6.096 23.935 10.952-3.725 7.225-33.307-5.758-18.403 19.194-16.372 3.387z"/><path fill="#35DE90" d="M274.693 725.161 89.922 823.522l46.369 87.104 184.77-98.362z"/><path fill="#35DE90" d="m163.018 853.158-60.52-189.87-94.02 29.969 60.52 189.87z"/></g><defs><linearGradient id="b" x1="354.32" x2="309.106" y1="701.362" y2="732.497" gradientUnits="userSpaceOnUse"><stop offset=".118" stop-color="#35DE90"/><stop offset=".415" stop-color="#34DB8E"/><stop offset=".622" stop-color="#2FD287"/><stop offset=".801" stop-color="#28C37B"/><stop offset=".963" stop-color="#1EAD6B"/><stop offset="1" stop-color="#1BA766"/></linearGradient><linearGradient id="c" x1="244.361" x2="120.927" y1="587.557" y2="881.874" gradientUnits="userSpaceOnUse"><stop offset=".118" stop-color="#35DE90"/><stop offset=".415" stop-color="#34DB8E"/><stop offset=".622" stop-color="#2FD287"/><stop offset=".801" stop-color="#28C37B"/><stop offset=".963" stop-color="#1EAD6B"/><stop offset="1" stop-color="#1BA766"/></linearGradient><linearGradient id="d" x1="851.522" x2="938.647" y1="736.824" y2="869.608" gradientUnits="userSpaceOnUse"><stop offset=".037" stop-color="#0096FA"/><stop offset=".235" stop-color="#0094F7"/><stop offset=".399" stop-color="#018CED"/><stop offset=".55" stop-color="#027FDB"/><stop offset=".694" stop-color="#036CC3"/><stop offset=".833" stop-color="#0454A4"/><stop offset=".966" stop-color="#06377E"/><stop offset="1" stop-color="#072F73"/></linearGradient><linearGradient id="e" x1="667.387" x2="817.003" y1="689.955" y2="789.024" gradientUnits="userSpaceOnUse"><stop offset=".46" stop-color="#0096FA"/><stop offset=".551" stop-color="#0189EA"/><stop offset=".729" stop-color="#0369BF"/><stop offset=".976" stop-color="#07347A"/><stop offset="1" stop-color="#072F73"/></linearGradient><clipPath id="a"><path fill="#fff" d="M0 .514h1080v1080H0z"/></clipPath></defs></svg>