<svg width="1080" height="1081" viewBox="0 0 1080 1081" fill="none" xmlns="http://www.w3.org/2000/svg">
<g clip-path="url(#clip0_18735_2141)">
<path d="M625.999 919.514C877.841 919.514 1082 715.355 1082 463.514C1082 211.672 877.841 7.51367 625.999 7.51367C374.158 7.51367 170 211.672 170 463.514C170 715.355 374.158 919.514 625.999 919.514Z" fill="#F5F5F5"/>
<path d="M221.5 1033.51C300.2 1033.51 364 969.714 364 891.014C364 812.313 300.2 748.514 221.5 748.514C142.799 748.514 79 812.313 79 891.014C79 969.714 142.799 1033.51 221.5 1033.51Z" fill="#35DE90"/>
<path d="M1058.11 757.832H720.412V1080.46H1058.11V757.832Z" fill="url(#paint0_linear_18735_2141)"/>
<path d="M833.598 757.832H720.412V1080.46H833.598V757.832Z" fill="url(#paint1_linear_18735_2141)"/>
<path d="M896.482 306.49C916.032 306.49 931.881 290.641 931.881 271.091C931.881 251.54 916.032 235.691 896.482 235.691C876.931 235.691 861.083 251.54 861.083 271.091C861.083 290.641 876.931 306.49 896.482 306.49Z" fill="white"/>
<path d="M740.598 140.826L797.89 133.995L802.703 137.877L815.435 245.472L773.203 250.441L771.185 233.207L751.932 235.536C750.069 233.983 748.983 233.207 747.12 231.654L736.873 145.64L740.598 140.826Z" fill="#8C3A03"/>
<path d="M812.951 224.046L789.195 226.375L764.51 214.575L735.321 142.534L802.083 133.062L812.951 224.046Z" fill="black"/>
<path d="M804.717 153.246L732.677 162.406C730.503 162.717 728.484 161.63 727.397 159.767L717.151 142.378C715.287 139.117 717.306 134.925 721.032 134.459L800.992 124.212L804.717 153.246Z" fill="black"/>
<path d="M745.877 210.381L761.092 208.363C764.352 207.897 766.837 204.947 766.371 201.531L764.663 188.023L743.392 190.663L745.877 210.381Z" fill="#8C3A03"/>
<path d="M1076.27 514.074L1059.04 493.113L1076.74 524.01L1072.55 528.358L1051.43 501.964L1064.16 539.847L1058.11 542.642L1039.17 507.398L1044.6 540.313L1038.08 542.332L1018.98 491.872L1009.67 511.124L1004.7 510.348L1011.06 471.688L1006.41 459.732L1046.15 443.274L1064.47 481.313L1080 509.416L1076.27 514.074Z" fill="#8C3A03"/>
<path d="M7.6081 608.162L22.5126 586.89L7.91892 617.633L12.4206 621.514L30.4318 594.809L21.1161 631.916L27.1704 634.245L42.6965 599.001L39.9021 630.83L46.1126 632.382L60.7078 582.699L70.9544 600.398L75.7669 599.311L66.762 562.98L70.3327 551.18L31.0519 538.294L16.6129 576.022L3.72656 603.969L7.6081 608.162Z" fill="#FCAA73"/>
<path d="M89.2746 849.282L139.114 870.398C137.717 873.658 126.538 894.619 138.493 903.935C158.211 919.305 142.84 923.652 142.84 923.652L68.1597 871.485L89.2746 849.282Z" fill="#072F73"/>
<path d="M593.721 448.553L571.363 458.49L549.006 457.558L529.598 467.029L514.692 502.273L507.706 510.347L515.003 515.471L516.867 514.229L524.63 519.663L526.802 518.42L535.963 523.854L540.31 521.526L548.074 525.562L613.905 489.387L593.721 448.553Z" fill="#8C3A03"/>
<path d="M493.418 470.136L519.192 469.669L541.549 460.975L558.319 461.751L569.031 483.333L562.666 483.954L551.952 474.017L539.996 473.085L512.206 505.224L483.948 504.448L493.418 470.136Z" fill="url(#paint2_linear_18735_2141)"/>
<path d="M585.958 508.639L593.41 500.565L577.418 490.629L573.537 495.598L585.958 508.639Z" fill="#FCAA73"/>
<path d="M588.129 511.124L579.901 519.353L564.375 499.324L570.741 493.425L588.129 511.124Z" fill="#FCAA73"/>
<path d="M577.729 515.938L569.966 522.303L560.65 507.708L566.084 503.517L577.729 515.938Z" fill="#FCAA73"/>
<path d="M568.566 519.974L561.579 525.098L556.145 513.763L560.958 510.813L568.566 519.974Z" fill="#FCAA73"/>
<path d="M540.31 521.526L545.59 518.731L548.073 525.563L540.31 521.526Z" fill="url(#paint3_linear_18735_2141)"/>
<path d="M526.802 518.42L534.721 513.142L535.963 523.854L526.802 518.42Z" fill="url(#paint4_linear_18735_2141)"/>
<path d="M516.866 514.229L525.871 508.64L524.629 519.663L516.866 514.229Z" fill="url(#paint5_linear_18735_2141)"/>
<path d="M507.706 510.347L507.086 505.068L514.849 505.223L507.706 510.347Z" fill="#8C3A03"/>
<path d="M404.921 675.546C427.558 675.546 445.91 657.195 445.91 634.557C445.91 611.92 427.558 593.568 404.921 593.568C382.283 593.568 363.933 611.92 363.933 634.557C363.933 657.195 382.283 675.546 404.921 675.546Z" fill="#0096FA"/>
<path d="M211.157 564.844C233.795 564.844 252.147 546.492 252.147 523.854C252.147 501.216 233.795 482.865 211.157 482.865C188.519 482.865 170.169 501.216 170.169 523.854C170.169 546.492 188.519 564.844 211.157 564.844Z" fill="#0096FA"/>
<path d="M342.66 812.02L363.931 637.817H445.909L424.638 812.02H342.66Z" fill="#0096FA"/>
<path d="M174.896 586.821L383.289 671.568L414.17 595.632L205.778 510.885L174.896 586.821Z" fill="#0096FA"/>
<path d="M179.949 755.039C202.586 755.039 220.937 736.687 220.937 714.049C220.937 691.412 202.586 673.061 179.949 673.061C157.311 673.061 138.959 691.412 138.959 714.049C138.959 736.687 157.311 755.039 179.949 755.039Z" fill="#0096FA"/>
<path d="M211.157 564.844C233.795 564.844 252.147 546.492 252.147 523.854C252.147 501.216 233.795 482.865 211.157 482.865C188.519 482.865 170.169 501.216 170.169 523.854C170.169 546.492 188.519 564.844 211.157 564.844Z" fill="#0096FA"/>
<path d="M79.3398 851.456L141.91 698.523L217.832 729.576L152.156 889.961L79.3398 851.456Z" fill="#0096FA"/>
<path d="M171.53 517.555L139.423 708.646L220.27 722.23L252.377 531.138L171.53 517.555Z" fill="#0096FA"/>
<path d="M307.264 549.472L170.169 523.854L180.57 335.678L371.542 357.259L307.264 549.472Z" fill="#A85AED"/>
<path d="M180.569 406.477C200.12 406.477 215.97 390.628 215.97 371.077C215.97 351.526 200.12 335.678 180.569 335.678C161.019 335.678 145.17 351.526 145.17 371.077C145.17 390.628 161.019 406.477 180.569 406.477Z" fill="#A85AED"/>
<path d="M86.6361 483.332C106.187 483.332 122.037 467.482 122.037 447.932C122.037 428.381 106.187 412.532 86.6361 412.532C67.0854 412.532 51.2368 428.381 51.2368 447.932C51.2368 467.482 67.0854 483.332 86.6361 483.332Z" fill="#A85AED"/>
<path d="M202.606 398.733L157.578 344.098L65.7991 419.737L110.827 474.373L202.606 398.733Z" fill="#A85AED"/>
<path d="M86.7913 564.534L19.5635 542.332L52.323 437.686L119.707 459.733L86.7913 564.534Z" fill="#A85AED"/>
<path d="M365.022 427.592C384.573 427.592 400.421 411.744 400.421 392.193C400.421 372.643 384.573 356.794 365.022 356.794C345.471 356.794 329.621 372.643 329.621 392.193C329.621 411.744 345.471 427.592 365.022 427.592Z" fill="#A85AED"/>
<path d="M386.448 545.748C405.998 545.748 421.847 529.899 421.847 510.348C421.847 490.798 405.998 474.948 386.448 474.948C366.897 474.948 351.048 490.798 351.048 510.348C351.048 529.899 366.897 545.748 386.448 545.748Z" fill="#A85AED"/>
<path d="M351.458 514.611L421.116 501.952L399.851 384.937L330.193 397.595L351.458 514.611Z" fill="#A85AED"/>
<path d="M510.861 526.183L499.76 456.263L382.305 474.911L393.407 544.831L510.861 526.183Z" fill="#A85AED"/>
<path d="M350.738 812.02L406.01 812.33C406.787 815.746 409.116 827.856 422.158 828.633C447 830.341 437.063 842.295 437.063 842.295H345.924L350.738 812.02Z" fill="#072F73"/>
<path d="M238.793 609.716L259.288 601.332L305.712 637.042L238.793 609.716Z" fill="url(#paint6_linear_18735_2141)"/>
<path d="M329.31 238.95L272.018 232.119L267.205 236.001L254.474 343.597L296.705 348.565L298.723 331.331L317.975 333.66C319.838 332.107 320.925 331.331 322.789 329.778L333.035 243.764L329.31 238.95Z" fill="#FCAA73"/>
<path d="M317.975 309.594L307.417 308.352C306.796 308.352 306.331 307.731 306.486 307.11C306.486 306.489 307.107 306.023 307.728 306.179L316.578 307.265L310.057 285.684C309.902 285.063 310.212 284.442 310.833 284.287C311.454 284.131 312.076 284.442 312.231 285.063L319.218 308.197C319.373 308.507 319.217 308.973 319.062 309.284C318.751 309.439 318.44 309.594 317.975 309.594Z" fill="#F06305"/>
<path d="M298.722 331.486L280.556 329.468L297.48 341.733L298.722 331.486Z" fill="url(#paint7_linear_18735_2141)"/>
<path d="M175.912 420.761L199.669 401.198L275.901 543.573L170.169 523.855L175.912 420.761Z" fill="url(#paint8_linear_18735_2141)"/>
<path d="M340.179 451.968L350.115 414.705L350.58 510.656L340.179 451.968Z" fill="url(#paint9_linear_18735_2141)"/>
<path d="M338.004 256.184H260.528C258.975 256.184 257.889 254.787 258.355 253.234L263.633 233.671C263.943 232.74 264.72 231.963 265.807 231.963L349.337 229.324C351.045 229.324 352.288 231.187 351.512 232.74L340.178 254.942C339.557 255.719 338.78 256.184 338.004 256.184Z" fill="#8C3A03"/>
<path d="M252.456 247.178L257.734 312.233C257.889 313.475 258.821 314.406 260.063 314.406C261.15 314.406 262.081 313.63 262.392 312.543L278.229 244.538C278.539 242.986 277.297 241.434 275.589 241.744L254.474 244.694C253.232 244.849 252.301 245.936 252.456 247.178Z" fill="#8C3A03"/>
<path d="M272.173 301.678L256.958 299.659C253.697 299.193 251.214 296.243 251.68 292.827L253.387 279.319L274.658 281.959L272.173 301.678Z" fill="#FCAA73"/>
<path d="M712.96 327.138C732.51 327.138 748.359 311.289 748.359 291.738C748.359 272.187 732.51 256.339 712.96 256.339C693.409 256.339 677.561 272.187 677.561 291.738C677.561 311.289 693.409 327.138 712.96 327.138Z" fill="white"/>
<path d="M691.067 445.136C710.617 445.136 726.466 429.287 726.466 409.736C726.466 390.186 710.617 374.337 691.067 374.337C671.516 374.337 655.666 390.186 655.666 409.736C655.666 429.287 671.516 445.136 691.067 445.136Z" fill="white"/>
<path d="M747.095 297.276L677.493 284.334L655.753 401.254L725.355 414.196L747.095 297.276Z" fill="white"/>
<path d="M712.619 436.921L670.543 379.984L577.021 449.096L619.097 506.032L712.619 436.921Z" fill="white"/>
<path d="M765.905 457.87L920.39 458.181L896.481 235.691L705.354 257.273L765.905 457.87Z" fill="white"/>
<path d="M984.355 390.018C1003.91 390.018 1019.75 374.169 1019.75 354.618C1019.75 335.067 1003.91 319.219 984.355 319.219C964.804 319.219 948.956 335.067 948.956 354.618C948.956 374.169 964.804 390.018 984.355 390.018Z" fill="white"/>
<path d="M957.616 379.281L1006.57 328.136L920.659 245.896L871.701 297.041L957.616 379.281Z" fill="white"/>
<path d="M995.381 470.755L1060.28 442.188L1017.43 341.112L952.528 369.68L995.381 470.755Z" fill="white"/>
<path d="M777.392 502.584L924.114 493.113L917.282 423.09L761.866 444.361L777.392 502.584Z" fill="#1968F0"/>
<path d="M943.679 718.088L902.069 716.38C901.448 719.796 898.964 743.396 886.232 744.172C865.117 745.414 873.657 757.835 873.657 757.835H950.822L943.679 718.088Z" fill="#072F73"/>
<path d="M775.528 727.713L722.585 716.534C721.808 719.95 719.014 743.549 703.953 744.326C679.112 745.568 689.047 757.989 689.047 757.989H780.186L775.528 727.713Z" fill="#072F73"/>
<path d="M704.729 732.06L671.503 623.844C665.448 597.604 673.055 570.433 691.687 551.181L765.901 474.793L761.711 444.517L836.236 434.425L845.241 501.032L745.563 603.814C744.786 604.746 744.321 605.988 744.632 607.075L780.186 727.869L704.729 732.06Z" fill="#1968F0"/>
<path d="M880.332 728.955L823.196 639.059C809.533 618.098 806.739 591.704 815.433 568.415L847.262 483.486L842.139 436.132L916.975 428.059L923.962 493.268L885.766 594.965C885.301 596.051 885.456 597.294 886.077 598.225L961.379 723.211L880.332 728.955Z" fill="#1968F0"/>
<path d="M837.947 508.64L872.105 500.566L815.589 568.26L837.947 508.64Z" fill="url(#paint10_linear_18735_2141)"/>
<path d="M736.097 361.296L742.928 323.257L916.666 423.245L761.87 444.361L736.097 361.296Z" fill="url(#paint11_linear_18735_2141)"/>
<path d="M911.382 335.678L903.93 293.913L945.85 369.525L911.382 335.678Z" fill="url(#paint12_linear_18735_2141)"/>
<path d="M741.836 184.299L736.247 209.606L746.961 210.227L741.836 184.299Z" fill="#8C3A03"/>
<path d="M753.173 842.295H384.116V1080.47H753.173V842.295Z" fill="url(#paint13_linear_18735_2141)"/>
<path d="M507.704 842.295H384.116V1080.47H507.704V842.295Z" fill="url(#paint14_linear_18735_2141)"/>
<path d="M401.972 954.238H0V1080.47H401.972V954.238Z" fill="url(#paint15_linear_18735_2141)"/>
<path d="M134.612 954.238H0V1080.47H134.612V954.238Z" fill="url(#paint16_linear_18735_2141)"/>
</g>
<defs>
<linearGradient id="paint0_linear_18735_2141" x1="989.846" y1="713.422" x2="786.629" y2="1129" gradientUnits="userSpaceOnUse">
<stop stop-color="#1968F0"/>
<stop offset="0.2763" stop-color="#1866EB"/>
<stop offset="0.5853" stop-color="#145EDE"/>
<stop offset="0.909" stop-color="#0E52C8"/>
<stop offset="1" stop-color="#0C4EC0"/>
</linearGradient>
<linearGradient id="paint1_linear_18735_2141" x1="827.509" y1="761.814" x2="707.828" y2="1134.29" gradientUnits="userSpaceOnUse">
<stop stop-color="#0C4EC0"/>
<stop offset="0.1959" stop-color="#0B4BB8"/>
<stop offset="0.4974" stop-color="#0A42A3"/>
<stop offset="0.8649" stop-color="#083480"/>
<stop offset="0.9819" stop-color="#072F73"/>
</linearGradient>
<linearGradient id="paint2_linear_18735_2141" x1="532.353" y1="482.605" x2="421.683" y2="495.863" gradientUnits="userSpaceOnUse">
<stop stop-color="#FCAA73"/>
<stop offset="0.1529" stop-color="#FBA66D"/>
<stop offset="0.3491" stop-color="#FA9C5D"/>
<stop offset="0.5688" stop-color="#F78B43"/>
<stop offset="0.8041" stop-color="#F3741F"/>
<stop offset="0.9458" stop-color="#F06305"/>
</linearGradient>
<linearGradient id="paint3_linear_18735_2141" x1="546.161" y1="522.383" x2="537.759" y2="522.942" gradientUnits="userSpaceOnUse">
<stop stop-color="#8C3A03"/>
<stop offset="0.1395" stop-color="#863803"/>
<stop offset="0.3185" stop-color="#763103"/>
<stop offset="0.519" stop-color="#5C2602"/>
<stop offset="0.7353" stop-color="#371701"/>
<stop offset="0.9619" stop-color="#090400"/>
<stop offset="1"/>
</linearGradient>
<linearGradient id="paint4_linear_18735_2141" x1="535.866" y1="518.975" x2="520.859" y2="515.033" gradientUnits="userSpaceOnUse">
<stop stop-color="#8C3A03"/>
<stop offset="0.1395" stop-color="#863803"/>
<stop offset="0.3185" stop-color="#763103"/>
<stop offset="0.519" stop-color="#5C2602"/>
<stop offset="0.7353" stop-color="#371701"/>
<stop offset="0.9619" stop-color="#090400"/>
<stop offset="1"/>
</linearGradient>
<linearGradient id="paint5_linear_18735_2141" x1="523.125" y1="514.222" x2="512.133" y2="512.915" gradientUnits="userSpaceOnUse">
<stop stop-color="#8C3A03"/>
<stop offset="0.1395" stop-color="#863803"/>
<stop offset="0.3185" stop-color="#763103"/>
<stop offset="0.519" stop-color="#5C2602"/>
<stop offset="0.7353" stop-color="#371701"/>
<stop offset="0.9619" stop-color="#090400"/>
<stop offset="1"/>
</linearGradient>
<linearGradient id="paint6_linear_18735_2141" x1="295.855" y1="613.615" x2="225.385" y2="640.504" gradientUnits="userSpaceOnUse">
<stop offset="0.1004" stop-color="#0096FA"/>
<stop offset="0.3413" stop-color="#058DF8"/>
<stop offset="0.7352" stop-color="#1274F3"/>
<stop offset="0.9014" stop-color="#1968F0"/>
</linearGradient>
<linearGradient id="paint7_linear_18735_2141" x1="289.858" y1="335.457" x2="296.661" y2="318.524" gradientUnits="userSpaceOnUse">
<stop stop-color="#FCAA73"/>
<stop offset="0.1097" stop-color="#FBA66C"/>
<stop offset="0.2687" stop-color="#F99959"/>
<stop offset="0.4576" stop-color="#F68539"/>
<stop offset="0.6679" stop-color="#F1690E"/>
<stop offset="0.7058" stop-color="#F06305"/>
</linearGradient>
<linearGradient id="paint8_linear_18735_2141" x1="239.523" y1="472.521" x2="135.509" y2="466.988" gradientUnits="userSpaceOnUse">
<stop offset="0.2115" stop-color="#A85AED"/>
<stop offset="0.3848" stop-color="#A557E9"/>
<stop offset="0.5488" stop-color="#9A4EDE"/>
<stop offset="0.7091" stop-color="#893ECB"/>
<stop offset="0.8661" stop-color="#7028B0"/>
<stop offset="1" stop-color="#561093"/>
</linearGradient>
<linearGradient id="paint9_linear_18735_2141" x1="355.657" y1="461.693" x2="332.681" y2="466.202" gradientUnits="userSpaceOnUse">
<stop stop-color="#A85AED"/>
<stop offset="0.1819" stop-color="#A355E7"/>
<stop offset="0.4183" stop-color="#9448D7"/>
<stop offset="0.6847" stop-color="#7C32BC"/>
<stop offset="0.9713" stop-color="#5A1397"/>
<stop offset="1" stop-color="#561093"/>
</linearGradient>
<linearGradient id="paint10_linear_18735_2141" x1="853.784" y1="541.585" x2="807.831" y2="508.512" gradientUnits="userSpaceOnUse">
<stop offset="0.2017" stop-color="#1968F0"/>
<stop offset="0.3161" stop-color="#1865E9"/>
<stop offset="0.4787" stop-color="#155CD7"/>
<stop offset="0.6701" stop-color="#114EB8"/>
<stop offset="0.8817" stop-color="#0B3B8E"/>
<stop offset="1" stop-color="#072F73"/>
</linearGradient>
<linearGradient id="paint11_linear_18735_2141" x1="860.99" y1="330.108" x2="745.286" y2="490.055" gradientUnits="userSpaceOnUse">
<stop offset="0.269" stop-color="white"/>
<stop offset="0.3874" stop-color="#FAFCFF"/>
<stop offset="0.5249" stop-color="#ECF3FE"/>
<stop offset="0.6714" stop-color="#D5E4FC"/>
<stop offset="0.7878" stop-color="#BDD4FB"/>
</linearGradient>
<linearGradient id="paint12_linear_18735_2141" x1="954.176" y1="311.526" x2="891.465" y2="354.728" gradientUnits="userSpaceOnUse">
<stop offset="0.4688" stop-color="white"/>
<stop offset="0.6094" stop-color="#E8F0FE"/>
<stop offset="0.8292" stop-color="#BDD4FB"/>
</linearGradient>
<linearGradient id="paint13_linear_18735_2141" x1="654.901" y1="784.818" x2="480.496" y2="1141.48" gradientUnits="userSpaceOnUse">
<stop stop-color="#1968F0"/>
<stop offset="0.2763" stop-color="#1866EB"/>
<stop offset="0.5853" stop-color="#145EDE"/>
<stop offset="0.909" stop-color="#0E52C8"/>
<stop offset="1" stop-color="#0C4EC0"/>
</linearGradient>
<linearGradient id="paint14_linear_18735_2141" x1="484.989" y1="839.587" x2="392.347" y2="1127.91" gradientUnits="userSpaceOnUse">
<stop stop-color="#0C4EC0"/>
<stop offset="0.1959" stop-color="#0B4BB8"/>
<stop offset="0.4974" stop-color="#0A42A3"/>
<stop offset="0.8649" stop-color="#083480"/>
<stop offset="0.9819" stop-color="#072F73"/>
</linearGradient>
<linearGradient id="paint15_linear_18735_2141" x1="267.591" y1="881.192" x2="133.105" y2="1156.22" gradientUnits="userSpaceOnUse">
<stop stop-color="#1968F0"/>
<stop offset="0.2763" stop-color="#1866EB"/>
<stop offset="0.5853" stop-color="#145EDE"/>
<stop offset="0.909" stop-color="#0E52C8"/>
<stop offset="1" stop-color="#0C4EC0"/>
</linearGradient>
<linearGradient id="paint16_linear_18735_2141" x1="91.2099" y1="943.056" x2="34.7081" y2="1118.9" gradientUnits="userSpaceOnUse">
<stop stop-color="#0C4EC0"/>
<stop offset="0.1959" stop-color="#0B4BB8"/>
<stop offset="0.4974" stop-color="#0A42A3"/>
<stop offset="0.8649" stop-color="#083480"/>
<stop offset="0.9819" stop-color="#072F73"/>
</linearGradient>
<clipPath id="clip0_18735_2141">
<rect width="1080" height="1080" fill="white" transform="translate(0 0.513672)"/>
</clipPath>
</defs>
</svg>
