<svg xmlns="http://www.w3.org/2000/svg" width="1080" height="1080" viewBox="0 0 1080 1080" fill="none"><path fill="#B2DFFD" d="M260 689.5c0 214.562 173.937 388.5 388.5 388.5S1037 904.062 1037 689.5 863.063 301 648.5 301 260 474.937 260 689.5"/><path fill="#F06305" d="M527.206 1000.45H315.797a12.837 12.837 0 0 1-12.854-12.855V854.854A12.837 12.837 0 0 1 315.797 842h211.495a12.837 12.837 0 0 1 12.854 12.854v132.741c-.086 7.113-5.828 12.855-12.94 12.855"/><path fill="#FCAA73" d="M399.178 842.086h-84.324A12.837 12.837 0 0 0 302 854.94v132.741c0 7.113 5.742 12.859 12.854 12.859h84.324z"/><path fill="#F5F5F5" d="M486.501 842.086h-34.792v40.019h34.792zM364.214 842.086h-28.022v40.019h28.022z"/><path fill="#F06305" d="M765.206 1000.45H553.797a12.837 12.837 0 0 1-12.854-12.855V854.854A12.837 12.837 0 0 1 553.797 842h211.495a12.837 12.837 0 0 1 12.854 12.854v132.741c-.086 7.113-5.828 12.855-12.94 12.855"/><path fill="#FCAA73" d="M637.178 842.086h-84.324A12.837 12.837 0 0 0 540 854.94v132.741c0 7.113 5.742 12.859 12.854 12.859h84.324z"/><path fill="#F5F5F5" d="M724.501 842.086h-34.792v40.019h34.792zM602.214 842.086h-28.022v40.019h28.022z"/><path fill="#F06305" d="M647.206 841.45H435.797a12.837 12.837 0 0 1-12.854-12.855V695.854A12.837 12.837 0 0 1 435.797 683h211.495a12.837 12.837 0 0 1 12.854 12.854v132.741c-.086 7.113-5.828 12.855-12.94 12.855"/><path fill="#FCAA73" d="M519.178 683.086h-84.324A12.837 12.837 0 0 0 422 695.94v132.741a12.837 12.837 0 0 0 12.854 12.854h84.324z"/><path fill="#F5F5F5" d="M606.501 683.086h-34.792v40.019h34.792zM484.214 683.086h-28.022v40.019h28.022z"/><path fill="url(#a)" d="M301.112 1068.2c0 4.9 3.881 8.87 8.667 8.87h24.268c4.786 0 8.667-3.97 8.667-8.87v-33.7h-41.602z"/><path fill="url(#b)" d="M514.204 1068.2c0 4.89 3.88 8.87 8.666 8.87h24.268c4.787 0 8.667-3.98 8.667-8.87v-33.7h-41.602z"/><path fill="url(#c)" d="M727.287 1034.5v33.7c0 4.89 3.881 8.87 8.667 8.87h24.268c4.786 0 8.667-3.98 8.667-8.87v-33.7z"/><path fill="url(#d)" d="M789.921 997H280.078a8.08 8.08 0 0 0-8.078 8.08v22.31c0 4.46 3.616 8.07 8.078 8.07h509.844c4.461 0 8.078-3.61 8.078-8.07v-22.31a8.08 8.08 0 0 0-8.079-8.08"/><path fill="url(#e)" d="M835.975 361H580.827c-3.864 0-7.025 3.161-7.025 7.025v12.013h-10.749c-6.252 0-9.413 7.587-4.987 12.013l15.666 15.665v62.172c0 3.863 3.161 7.025 7.025 7.025h255.218c3.864 0 7.025-3.162 7.025-7.025V368.095c0-3.934-3.091-7.095-7.025-7.095"/><path fill="#0096FA" d="M641.004 453.028c-20.175 0-36.53-16.355-36.53-36.53s16.355-36.53 36.53-36.53 36.53 16.355 36.53 36.53-16.355 36.53-36.53 36.53"/><path fill="#fff" d="M641.001 418.324c-7.178 0-12.996-5.315-12.996-11.872s5.818-11.873 12.996-11.873c7.177 0 12.996 5.316 12.996 11.873s-5.819 11.872-12.996 11.872M641.002 452.957a35.36 35.36 0 0 1-25.852-11.169c3.793-10.678 13.909-18.336 25.852-18.336s22.128 7.658 25.852 18.336a35.36 35.36 0 0 1-25.852 11.169"/><path fill="#0096FA" d="M699.567 407.646h123.834c1.686 0 3.064-1.897 3.064-4.215V389.1c0-2.318-1.378-4.215-3.064-4.215H699.567c-1.686 0-3.064 1.897-3.064 4.215v14.331c0 2.318 1.378 4.215 3.064 4.215"/><path fill="#35DE90" d="M771.008 447.689h52.393c1.686 0 3.064-1.897 3.064-4.215v-14.331c0-2.318-1.378-4.215-3.064-4.215h-52.393c-1.685 0-3.064 1.897-3.064 4.215v14.331c0 2.318 1.379 4.215 3.064 4.215"/><path fill="#1968F0" d="M738.681 447.689h18.282c1.686 0 3.064-1.897 3.064-4.215v-14.331c0-2.318-1.378-4.215-3.064-4.215h-18.282c-1.685 0-3.064 1.897-3.064 4.215v14.331c0 2.318 1.328 4.215 3.064 4.215"/><path fill="#F5F5F5" d="M83.002 640.81v-86.55c0-7.836 6.352-14.26 14.257-14.26h228.949c7.834 0 14.256 6.353 14.256 14.26v9.883h19.762c3.105 0 4.587 3.742 2.47 5.86l-22.161 22.167v48.569c0 7.836-6.352 14.26-14.256 14.26H97.329a14.13 14.13 0 0 1-14.327-14.189"/><path fill="#35DE90" d="M214.907 590.051h90.831c3.106 0 5.647-2.541 5.647-5.647v-9.601c0-3.107-2.541-5.648-5.647-5.648h-90.831c-3.106 0-5.647 2.541-5.647 5.648v9.601c0 3.106 2.541 5.647 5.647 5.647"/><path fill="url(#f)" d="M164.657 590.052h26.748c3.105 0 5.646-2.542 5.646-5.648v-9.601c0-3.106-2.541-5.648-5.646-5.648h-26.748c-3.106 0-5.646 2.542-5.646 5.648v9.601c0 3.106 2.54 5.648 5.646 5.648"/><path fill="#072F73" d="M127.535 628.173h178.276c3.105 0 5.646-2.542 5.646-5.648v-9.601c0-3.106-2.541-5.648-5.646-5.648H127.535c-3.106 0-5.646 2.542-5.646 5.648v9.601c0 3.106 2.54 5.648 5.646 5.648"/><path fill="#35DE90" d="M884.521 711.92v-69.766c0-6.139-5.016-11.154-11.154-11.154h-74.109c-6.138 0-11.153 5.015-11.153 11.154v12.351h-15.421c-2.395 0-3.593 2.92-1.871 4.566l17.292 17.292v35.483c0 6.138 5.015 11.153 11.153 11.153h74.109c6.138.075 11.154-4.94 11.154-11.079"/><path fill="#1968F0" d="M834.23 695.034q-5.435-.687-8.231-3.588-2.745-2.955-2.744-7.81h7.07q0 3.061 1.953 4.538 2.005 1.478 5.329 1.478 6.596 0 6.596-4.169 0-1.425-.844-2.269-.844-.897-2.428-1.477-1.583-.58-4.643-1.319-4.274-.95-6.754-2.005-2.427-1.109-3.746-3.008-1.32-1.953-1.32-5.118 0-3.852 2.586-6.121 2.638-2.27 7.176-2.797l-.264-5.751h6.385l-.317 5.751q5.013.633 7.493 3.377 2.533 2.691 2.586 6.965h-6.965q-.054-2.427-1.636-3.746-1.53-1.32-4.485-1.319-2.48 0-3.958.844-1.477.845-1.477 2.691 0 1.319.686 2.111.685.79 2.058 1.319 1.423.475 4.221 1.213 4.485 1.056 7.071 2.058 2.585 1.003 4.115 2.902 1.53 1.848 1.53 5.013 0 4.38-2.902 7.071-2.901 2.691-8.337 3.219l.317 5.698h-6.385z"/><path fill="#1967F1" d="M94 896.92v-69.766C94 821.015 99.014 816 105.152 816h74.108c6.139 0 11.154 5.015 11.154 11.154v12.351h15.421c2.395 0 3.593 2.92 1.871 4.566l-17.292 17.292v35.483c0 6.138-5.015 11.153-11.154 11.153h-74.108c-6.138.075-11.154-4.94-11.154-11.079"/><path fill="#FBCF23" d="M119.078 835.869a5.5 5.5 0 0 0 2.321-.596 5.61 5.61 0 0 0 2.813-3.296 5.74 5.74 0 0 0-.319-4.355 5.64 5.64 0 0 0-3.264-2.864 5.52 5.52 0 0 0-4.297.305c-2.772 1.403-3.891 4.835-2.494 7.651a5.66 5.66 0 0 0 5.24 3.155m-.327-8.861a3.126 3.126 0 0 1 2.899 1.749 3.18 3.18 0 0 1 .177 2.413 3.1 3.1 0 0 1-1.558 1.825c-1.535.778-3.414.142-4.188-1.417-.773-1.56-.154-3.461 1.382-4.238a3.1 3.1 0 0 1 1.288-.332m-3.791 5.138h-.002zM138.468 890.547a9.2 9.2 0 0 0 2.053 2.723c2.685 2.433 6.661 3.105 10.067 1.38s5.252-5.345 4.928-8.974a9.2 9.2 0 0 0-.93-3.29z"/><path fill="#FBCF23" d="M138.325 889.751a9.5 9.5 0 0 0 2.159 2.541l15.236-5.711a7.9 7.9 0 0 0-1.02-2.969z"/><path fill="#FBCF23" d="m149.963 884.773 4.648-1.793c2.483 4.455.719 9.526-3.939 11.323a9.5 9.5 0 0 1-2.498.584c2.99-2.327 3.842-6.43 1.789-10.114"/><path fill="url(#g)" d="M122.328 834.43c10.658-5.398 23.463-1.38 30.826 13.46l3.061 6.169c2.27 4.573 8.325 8.024 13.786 10.324 3.629 1.529 3.835 6.655.331 8.429l-23.143 11.719-23.142 11.719c-3.505 1.775-7.446-1.459-6.488-5.311 1.443-5.796 2.33-12.762.06-17.336l-3.061-6.169c-7.363-14.839-2.888-27.607 7.77-33.004"/><path fill="#FBCF23" d="M162.6 868.131c-5.46-2.301-11.516-5.751-13.785-10.324l-3.061-6.169c-6.49-13.077-17.204-17.749-26.951-14.981a22 22 0 0 1 3.525-2.227c10.658-5.398 23.463-1.38 30.826 13.46l3.061 6.169c2.27 4.573 8.325 8.023 13.786 10.324 3.629 1.529 3.835 6.655.331 8.429l-7.401 3.748c3.504-1.775 3.298-6.9-.331-8.429" opacity=".3"/><path fill="#E60F0F" d="M125.274 834.606c-.579-5.801 3.654-10.972 9.454-11.55l15.228-1.519c5.8-.579 10.971 3.654 11.55 9.454.578 5.801-3.654 10.972-9.455 11.55l-15.228 1.519c-5.8.579-10.971-3.654-11.549-9.454"/><path fill="#fff" d="m133.765 837.048-.088-.879 1.756-.176-.502-5.036-1.294.926-.538-.733 2.04-1.439.801-.08.623 6.25 1.647-.165.087.88zM142.363 836.283q-1.35.134-2.157-.735-.798-.881-.974-2.65-.18-1.8.431-2.791.621-1 1.971-1.136 1.36-.135 2.156.725.794.849.973 2.64.177 1.78-.441 2.801-.609 1.011-1.959 1.146m-.087-.87q.834-.084 1.173-.801.338-.718.194-2.165-.144-1.446-.616-2.063-.462-.627-1.307-.543-.834.083-1.173.791t-.196 2.144q.144 1.446.618 2.083.473.637 1.307.554M148.477 835.172l-.211-2.123-2.261.225-.075-.748 2.261-.226-.206-2.063.834-.083.206 2.063 2.261-.226.075.749-2.261.225.211 2.124z"/><path fill="#F5F5F5" d="M876.539 219.928c39.469 0 71.464-31.995 71.464-71.464S916.008 77 876.539 77s-71.464 31.996-71.464 71.464 31.996 71.464 71.464 71.464"/><path fill="#35DE90" d="M849.663 204.373c30.986 0 46.662-4.561 46.662-36.719 0-33.116-19.003-43.732-46.662-43.732-27.66 0-46.663 10.616-46.663 43.732 0 32.158 15.648 36.719 46.663 36.719"/><path fill="#35DE90" d="M803 167.654a79.7 79.7 0 0 0 3.553 23.541c3.129 10.165 7.951 18.641 12.687 25.146.508.676 1.269 1.042 2.03 1.014.762 0 1.551-.366 2.03-1.07l8.854-12.728c5.328-8.842 1.381-22.049-5.16-32.271-9.361-14.615-23.994-23.091-23.994-3.632"/><path fill="url(#h)" d="M807.229 193.335c3.299 9.828 8.177 17.769 11.983 23.006 1.015 1.38 3.102 1.352 4.06-.056l8.853-12.728c-12.123-1.07-21.202-4.562-24.896-10.222"/><path fill="#0096FA" d="M919.98 173.849c-30.986 0-46.662-4.562-46.662-36.72 0-33.116 19.003-43.732 46.662-43.732s46.663 10.616 46.663 43.732c0 32.158-15.677 36.72-46.663 36.72"/><path fill="#0096FA" d="M966.643 137.129a79.7 79.7 0 0 1-3.553 23.541c-3.129 10.166-7.951 18.642-12.688 25.146-.507.676-1.268 1.042-2.029 1.014a2.47 2.47 0 0 1-2.031-1.07l-8.853-12.728c-5.329-8.842-1.381-22.049 5.16-32.271 9.361-14.615 23.994-23.091 23.994-3.632"/><path fill="url(#i)" d="M962.414 162.81c-3.299 9.828-8.177 17.769-11.983 23.006-1.015 1.38-3.102 1.352-4.06-.056l-8.853-12.728c12.095-1.07 21.174-4.562 24.896-10.222"/><path fill="#fff" fill-rule="evenodd" d="M907.095 135.805a5.38 5.38 0 0 1-5.385 5.379 5.38 5.38 0 0 1-5.385-5.379 5.38 5.38 0 0 1 5.385-5.378 5.38 5.38 0 0 1 5.385 5.378m18.271 0a5.38 5.38 0 0 1-5.386 5.379 5.38 5.38 0 0 1-5.385-5.379 5.38 5.38 0 0 1 5.385-5.378 5.38 5.38 0 0 1 5.386 5.378m12.856 5.379a5.38 5.38 0 0 0 5.386-5.379 5.38 5.38 0 0 0-5.386-5.378 5.38 5.38 0 0 0-5.385 5.378 5.38 5.38 0 0 0 5.385 5.379m-83.174 25.146a5.38 5.38 0 0 1-5.386 5.379 5.38 5.38 0 0 1-5.385-5.379 5.38 5.38 0 0 1 5.385-5.378 5.38 5.38 0 0 1 5.386 5.378m12.856 5.379a5.38 5.38 0 0 0 5.386-5.379 5.38 5.38 0 0 0-5.386-5.378 5.38 5.38 0 0 0-5.385 5.378 5.38 5.38 0 0 0 5.385 5.379m-31.127-5.379a5.38 5.38 0 0 1-5.385 5.379 5.38 5.38 0 0 1-5.385-5.379 5.38 5.38 0 0 1 5.385-5.378 5.38 5.38 0 0 1 5.385 5.378" clip-rule="evenodd"/><path fill="url(#j)" d="M542 250.347c-3.342-18.339-19.452-32.307-38.819-32.307-13.454 0-25.366 6.77-32.479 16.968-3.684-1.457-7.712-2.229-11.911-2.229-12.683 0-23.652 7.113-29.222 17.482H542z"/><path fill="url(#k)" d="M197.165 381.631c-6.17-17.053-19.796-28.965-35.563-28.965-8.827 0-16.968 3.685-23.481 9.855-9.855-17.567-26.051-29.05-44.39-29.05-24.337 0-44.99 20.224-51.93 48.075h155.364z"/><path fill="#072F73" fill-rule="evenodd" d="m279.991 153.88-28.965 111.146-6.774-1.765 28.965-111.146zM147.42 152.113l29.051 111.146-6.773 1.77-29.05-111.146zM415.817 153.88l-28.965 111.146-6.774-1.765 28.965-111.146zM290.53 152.113l29.051 111.146-6.773 1.77-29.05-111.146z" clip-rule="evenodd"/><path fill="#FCAA73" d="M384.408 412.138H172.999a12.836 12.836 0 0 1-12.854-12.854V266.543a12.836 12.836 0 0 1 12.854-12.854h211.495a12.837 12.837 0 0 1 12.854 12.854v132.741c-.086 7.113-5.827 12.854-12.94 12.854"/><path fill="#F06305" d="M256.38 253.775h-84.324a12.837 12.837 0 0 0-12.854 12.854V399.37a12.837 12.837 0 0 0 12.854 12.854h84.324z"/><path fill="#F5F5F5" d="M343.703 253.774h-34.792v40.02h34.792zM221.416 253.774h-28.022v40.02h28.022z"/><path fill="#35DE90" fill-rule="evenodd" d="M286.116 17.508A203 203 0 0 0 271.72 17C178.826 17 99.644 75.53 68.966 157.711h217.236v-.086h202.239C457.763 75.615 378.838 17.171 286.116 17z" clip-rule="evenodd"/><path fill="#84EBBC" d="M412.43 158.139C392.206 75.701 339.932 17 278.66 17c-61.271 0-113.545 58.7-133.769 141.139z"/><path fill="#35DE90" d="M326.735 158.139C319.451 75.701 300.684 17 278.746 17c-22.023 0-40.79 58.7-47.989 141.139z"/><defs><linearGradient id="a" x1="320.349" x2="335.121" y1="1044.91" y2="1044.91" gradientUnits="userSpaceOnUse"><stop offset=".333" stop-color="#8C3A03"/><stop offset="1" stop-color="#B04600"/></linearGradient><linearGradient id="b" x1="533.44" x2="548.212" y1="1044.91" y2="1044.91" gradientUnits="userSpaceOnUse"><stop offset=".333" stop-color="#8C3A03"/><stop offset="1" stop-color="#B04600"/></linearGradient><linearGradient id="c" x1="746.524" x2="761.296" y1="1044.91" y2="1044.91" gradientUnits="userSpaceOnUse"><stop offset=".333" stop-color="#8C3A03"/><stop offset="1" stop-color="#B04600"/></linearGradient><linearGradient id="d" x1="378.603" x2="378.603" y1="986.707" y2="1016.86" gradientUnits="userSpaceOnUse"><stop offset=".219" stop-color="#F06305"/><stop offset=".862" stop-color="#8C3A03"/></linearGradient><linearGradient id="e" x1="546.807" x2="826.921" y1="382.95" y2="445.368" gradientUnits="userSpaceOnUse"><stop stop-color="#C5D9FB"/><stop offset=".134" stop-color="#D6E3F9"/><stop offset=".321" stop-color="#E8EDF7"/><stop offset=".525" stop-color="#F2F3F5"/><stop offset=".772" stop-color="#F5F5F5"/></linearGradient><linearGradient id="f" x1="197.073" x2="159.014" y1="579.605" y2="579.605" gradientUnits="userSpaceOnUse"><stop stop-color="#fff"/><stop offset=".952" stop-color="#C5D9FB"/></linearGradient><linearGradient id="g" x1="163.001" x2="86.994" y1="847" y2="849.253" gradientUnits="userSpaceOnUse"><stop offset=".37" stop-color="#FBCF23"/><stop offset=".67" stop-color="#F4E9BB"/></linearGradient><linearGradient id="h" x1="809.326" x2="833.436" y1="204.12" y2="210.425" gradientUnits="userSpaceOnUse"><stop offset=".365" stop-color="#35DE90"/><stop offset=".559" stop-color="#2FD186"/><stop offset=".914" stop-color="#1FB06D"/><stop offset="1" stop-color="#1BA766"/></linearGradient><linearGradient id="i" x1="958.888" x2="933.967" y1="174.808" y2="174.907" gradientUnits="userSpaceOnUse"><stop offset=".365" stop-color="#0096FA"/><stop offset=".589" stop-color="#0789F7"/><stop offset=".999" stop-color="#1968F0"/><stop offset="1" stop-color="#1968F0"/></linearGradient><linearGradient id="j" x1="455.93" x2="524.095" y1="228.555" y2="255.511" gradientUnits="userSpaceOnUse"><stop stop-color="#F5F5F5"/><stop offset=".823" stop-color="#EFEFEF"/><stop offset="1" stop-color="#EDEDED"/></linearGradient><linearGradient id="k" x1="139.781" x2="55.14" y1="358.018" y2="394.287" gradientUnits="userSpaceOnUse"><stop stop-color="#F5F5F5"/><stop offset=".82" stop-color="#EFEFEF"/><stop offset=".997" stop-color="#EDEDED"/></linearGradient></defs></svg>