<svg width="1080" height="1080" viewBox="0 0 1080 1080" fill="none" xmlns="http://www.w3.org/2000/svg">
<path d="M284 689.5C284 904.062 457.937 1078 672.5 1078C887.063 1078 1061 904.062 1061 689.5C1061 474.937 887.063 301 672.5 301C457.937 301 284 474.937 284 689.5Z" fill="#B2DFFD"/>
<path d="M551.206 1000.45H339.798C332.685 1000.45 326.943 994.708 326.943 987.595V854.854C326.943 847.742 332.685 842 339.798 842H551.292C558.405 842 564.146 847.742 564.146 854.854V987.595C564.061 994.708 558.319 1000.45 551.206 1000.45Z" fill="#F06305"/>
<path d="M423.178 842.086H338.854C331.742 842.086 326 847.827 326 854.94V987.681C326 994.794 331.742 1000.54 338.854 1000.54H423.178V842.086Z" fill="#FCAA73"/>
<path d="M510.501 842.086H475.709V882.105H510.501V842.086Z" fill="#F5F5F5"/>
<path d="M388.214 842.086H360.191V882.105H388.214V842.086Z" fill="#F5F5F5"/>
<path d="M789.206 1000.45H577.798C570.685 1000.45 564.943 994.708 564.943 987.595V854.854C564.943 847.742 570.685 842 577.798 842H789.292C796.405 842 802.146 847.742 802.146 854.854V987.595C802.061 994.708 796.319 1000.45 789.206 1000.45Z" fill="#F06305"/>
<path d="M661.178 842.086H576.854C569.742 842.086 564 847.827 564 854.94V987.681C564 994.794 569.742 1000.54 576.854 1000.54H661.178V842.086Z" fill="#FCAA73"/>
<path d="M748.501 842.086H713.709V882.105H748.501V842.086Z" fill="#F5F5F5"/>
<path d="M626.214 842.086H598.191V882.105H626.214V842.086Z" fill="#F5F5F5"/>
<path d="M671.206 841.45H459.798C452.685 841.45 446.943 835.708 446.943 828.595V695.854C446.943 688.742 452.685 683 459.798 683H671.292C678.405 683 684.146 688.742 684.146 695.854V828.595C684.061 835.708 678.319 841.45 671.206 841.45Z" fill="#F06305"/>
<path d="M543.178 683.086H458.854C451.742 683.086 446 688.827 446 695.94V828.681C446 835.794 451.742 841.535 458.854 841.535H543.178V683.086Z" fill="#FCAA73"/>
<path d="M630.501 683.086H595.709V723.105H630.501V683.086Z" fill="#F5F5F5"/>
<path d="M508.214 683.086H480.191V723.105H508.214V683.086Z" fill="#F5F5F5"/>
<path d="M325.111 1068.2C325.111 1073.09 328.992 1077.07 333.778 1077.07H358.046C362.832 1077.07 366.713 1073.09 366.713 1068.2V1034.5H325.111V1068.2Z" fill="url(#paint0_linear_196_25569)"/>
<path d="M538.202 1068.2C538.202 1073.09 542.082 1077.07 546.869 1077.07H571.137C575.923 1077.07 579.803 1073.09 579.803 1068.2V1034.5H538.201V1068.2H538.202Z" fill="url(#paint1_linear_196_25569)"/>
<path d="M751.287 1034.5V1068.2C751.287 1073.09 755.167 1077.07 759.954 1077.07H784.222C789.008 1077.07 792.888 1073.09 792.888 1068.2V1034.5H751.287Z" fill="url(#paint2_linear_196_25569)"/>
<path d="M813.921 997H304.078C299.617 997 296 1000.62 296 1005.08V1027.39C296 1031.85 299.616 1035.46 304.078 1035.46H813.922C818.383 1035.46 822 1031.85 822 1027.39V1005.08C821.999 1000.62 818.383 997 813.921 997Z" fill="url(#paint3_linear_196_25569)"/>
<path d="M859.975 361H604.826C600.963 361 597.801 364.161 597.801 368.025V380.038H587.053C580.801 380.038 577.64 387.625 582.065 392.051L597.731 407.716V469.888C597.731 473.751 600.893 476.913 604.756 476.913H859.975C863.839 476.913 867 473.751 867 469.888V368.095C867 364.161 863.909 361 859.975 361Z" fill="url(#paint4_linear_196_25569)"/>
<path d="M665.003 453.027C644.828 453.027 628.473 436.672 628.473 416.497C628.473 396.322 644.828 379.967 665.003 379.967C685.178 379.967 701.533 396.322 701.533 416.497C701.533 436.672 685.178 453.027 665.003 453.027Z" fill="#0096FA"/>
<path d="M665 418.323C657.822 418.323 652.004 413.008 652.004 406.451C652.004 399.894 657.822 394.578 665 394.578C672.177 394.578 677.996 399.894 677.996 406.451C677.996 413.008 672.177 418.323 665 418.323Z" fill="white"/>
<path d="M665.002 452.956C654.815 452.956 645.613 448.671 639.15 441.787C642.943 431.109 653.059 423.451 665.002 423.451C676.944 423.451 687.13 431.109 690.854 441.787C684.391 448.671 675.188 452.956 665.002 452.956Z" fill="white"/>
<path d="M723.566 407.646H847.401C849.086 407.646 850.465 405.749 850.465 403.431V389.1C850.465 386.782 849.086 384.885 847.401 384.885H723.566C721.881 384.885 720.502 386.782 720.502 389.1V403.431C720.502 405.749 721.881 407.646 723.566 407.646Z" fill="#0096FA"/>
<path d="M795.007 447.689H847.401C849.086 447.689 850.465 445.792 850.465 443.474V429.143C850.465 426.824 849.086 424.928 847.401 424.928H795.007C793.322 424.928 791.944 426.824 791.944 429.143V443.474C791.944 445.792 793.322 447.689 795.007 447.689Z" fill="#35DE90"/>
<path d="M762.681 447.689H780.963C782.649 447.689 784.027 445.792 784.027 443.474V429.143C784.027 426.824 782.649 424.928 780.963 424.928H762.681C760.996 424.928 759.617 426.824 759.617 429.143V443.474C759.617 445.792 760.945 447.689 762.681 447.689Z" fill="#1968F0"/>
<path d="M107.002 640.81V554.26C107.002 546.424 113.354 540 121.258 540H350.208C358.042 540 364.464 546.353 364.464 554.26V564.143H384.226C387.331 564.143 388.813 567.885 386.696 570.003L364.535 592.17V640.739C364.535 648.575 358.183 654.999 350.279 654.999H121.329C113.354 655.07 107.002 648.716 107.002 640.81Z" fill="#F5F5F5"/>
<path d="M238.907 590.051H329.739C332.844 590.051 335.385 587.509 335.385 584.403V574.802C335.385 571.696 332.844 569.154 329.739 569.154H238.907C235.801 569.154 233.261 571.696 233.261 574.802V584.403C233.261 587.509 235.801 590.051 238.907 590.051Z" fill="#35DE90"/>
<path d="M188.657 590.051H215.405C218.51 590.051 221.051 587.509 221.051 584.403V574.802C221.051 571.696 218.51 569.154 215.405 569.154H188.657C185.551 569.154 183.011 571.696 183.011 574.802V584.403C183.011 587.509 185.551 590.051 188.657 590.051Z" fill="url(#paint5_linear_196_25569)"/>
<path d="M151.535 628.172H329.811C332.916 628.172 335.457 625.63 335.457 622.524V612.923C335.457 609.817 332.916 607.275 329.811 607.275H151.535C148.429 607.275 145.889 609.817 145.889 612.923V622.524C145.889 625.63 148.429 628.172 151.535 628.172Z" fill="#072F73"/>
<path d="M908.521 711.92V642.154C908.521 636.015 903.505 631 897.367 631H823.258C817.12 631 812.105 636.015 812.105 642.154V654.505H796.684C794.289 654.505 793.091 657.425 794.813 659.071L812.105 676.363V711.846C812.105 717.984 817.12 722.999 823.258 722.999H897.367C903.505 723.074 908.521 718.059 908.521 711.92Z" fill="#35DE90"/>
<path d="M858.229 695.033C854.606 694.576 851.862 693.38 849.998 691.445C848.169 689.475 847.254 686.872 847.254 683.636H854.325C854.325 685.676 854.975 687.189 856.277 688.174C857.614 689.159 859.39 689.651 861.606 689.651C866.003 689.651 868.202 688.262 868.202 685.483C868.202 684.533 867.921 683.777 867.358 683.214C866.795 682.616 865.986 682.123 864.93 681.736C863.875 681.349 862.327 680.91 860.287 680.417C857.438 679.784 855.186 679.116 853.533 678.412C851.915 677.673 850.666 676.671 849.787 675.404C848.907 674.103 848.468 672.397 848.468 670.286C848.468 667.718 849.329 665.678 851.053 664.165C852.812 662.653 855.204 661.72 858.229 661.369L857.965 655.617H864.35L864.033 661.369C867.375 661.791 869.873 662.916 871.526 664.746C873.215 666.54 874.077 668.861 874.112 671.711H867.147C867.111 670.093 866.566 668.844 865.511 667.964C864.491 667.085 862.996 666.645 861.026 666.645C859.372 666.645 858.053 666.927 857.068 667.49C856.083 668.052 855.591 668.949 855.591 670.181C855.591 671.06 855.82 671.764 856.277 672.291C856.734 672.819 857.42 673.259 858.335 673.61C859.285 673.927 860.692 674.331 862.556 674.824C865.546 675.528 867.903 676.213 869.627 676.882C871.35 677.55 872.722 678.518 873.742 679.784C874.763 681.015 875.273 682.686 875.273 684.797C875.273 687.716 874.305 690.073 872.37 691.867C870.436 693.661 867.657 694.734 864.033 695.086L864.35 700.785H857.965L858.229 695.033Z" fill="#1968F0"/>
<path d="M117.999 896.92V827.154C117.999 821.015 123.014 816 129.153 816H203.261C209.399 816 214.415 821.015 214.415 827.154V839.505H229.835C232.231 839.505 233.429 842.425 231.707 844.071L214.415 861.363V896.846C214.415 902.984 209.399 907.999 203.261 907.999H129.153C123.014 908.074 117.999 903.059 117.999 896.92Z" fill="#1967F1"/>
<path d="M143.079 835.868C143.864 835.843 144.654 835.65 145.4 835.272C146.743 834.592 147.742 833.422 148.213 831.977C148.684 830.532 148.57 828.985 147.894 827.621C147.217 826.258 146.058 825.241 144.63 824.757C143.202 824.274 141.676 824.382 140.333 825.062C137.561 826.466 136.442 829.898 137.839 832.713C138.86 834.771 140.947 835.938 143.079 835.868ZM142.752 827.008C143.117 826.996 143.486 827.05 143.843 827.171C144.634 827.438 145.276 828.002 145.651 828.757C146.026 829.512 146.089 830.369 145.828 831.17C145.567 831.97 145.013 832.618 144.27 832.995C142.735 833.772 140.856 833.136 140.082 831.577C139.308 830.018 139.928 828.117 141.463 827.339C141.871 827.133 142.309 827.022 142.752 827.008ZM138.96 832.145L138.959 832.145L138.96 832.145Z" fill="#FBCF23"/>
<path d="M162.468 890.548C162.994 891.608 163.697 892.523 164.52 893.27C167.205 895.703 171.181 896.375 174.587 894.65C177.993 892.926 179.839 889.306 179.516 885.676C179.416 884.563 179.111 883.447 178.585 882.386L162.468 890.548Z" fill="#FBCF23"/>
<path d="M162.325 889.751C162.886 890.722 163.625 891.577 164.485 892.292L179.721 886.581C179.596 885.59 179.261 884.584 178.7 883.612L162.325 889.751Z" fill="#FBCF23"/>
<path d="M173.962 884.773L178.61 882.98C181.093 887.436 179.329 892.506 174.671 894.303C173.865 894.614 173.024 894.805 172.173 894.887C175.163 892.561 176.015 888.458 173.962 884.773Z" fill="#FBCF23"/>
<path d="M146.328 834.431C156.986 829.033 169.791 833.051 177.155 847.891L180.216 854.06C182.485 858.633 188.541 862.083 194.001 864.384C197.63 865.913 197.837 871.039 194.332 872.813L171.19 884.532L148.048 896.251C144.543 898.026 140.601 894.792 141.56 890.94C143.003 885.144 143.889 878.178 141.62 873.604L138.559 867.435C131.195 852.596 135.67 839.828 146.328 834.431Z" fill="url(#paint6_linear_196_25569)"/>
<path opacity="0.3" d="M186.601 868.132C181.14 865.831 175.084 862.381 172.815 857.808L169.754 851.639C163.265 838.562 152.551 833.89 142.803 836.658C143.885 835.818 145.063 835.072 146.328 834.431C156.986 829.033 169.791 833.051 177.155 847.891L180.216 854.06C182.485 858.633 188.541 862.083 194.001 864.384C197.63 865.913 197.837 871.038 194.332 872.813C194.332 872.813 191.036 874.483 186.931 876.561C190.436 874.786 190.23 869.661 186.601 868.132Z" fill="#FBCF23"/>
<path d="M149.274 834.606C148.696 828.805 152.929 823.634 158.729 823.056L173.957 821.537C179.757 820.958 184.928 825.191 185.506 830.991C186.085 836.792 181.852 841.963 176.052 842.541L160.824 844.06C155.024 844.639 149.853 840.406 149.274 834.606Z" fill="#E60F0F"/>
<path d="M157.766 837.049L157.678 836.169L159.434 835.994L158.932 830.958L157.639 831.883L157.1 831.151L159.14 829.711L159.941 829.631L160.565 835.881L162.211 835.717L162.299 836.597L157.766 837.049Z" fill="white"/>
<path d="M166.364 836.283C165.464 836.373 164.745 836.128 164.207 835.548C163.676 834.961 163.351 834.078 163.233 832.898C163.114 831.698 163.257 830.768 163.664 830.108C164.078 829.44 164.735 829.061 165.635 828.971C166.542 828.881 167.261 829.123 167.791 829.696C168.32 830.263 168.645 831.143 168.764 832.336C168.882 833.523 168.735 834.457 168.323 835.138C167.917 835.812 167.264 836.193 166.364 836.283ZM166.277 835.413C166.833 835.358 167.224 835.091 167.45 834.612C167.676 834.133 167.74 833.412 167.644 832.448C167.548 831.484 167.343 830.796 167.028 830.385C166.721 829.966 166.285 829.785 165.722 829.841C165.165 829.897 164.774 830.16 164.548 830.632C164.322 831.104 164.256 831.819 164.352 832.776C164.448 833.74 164.654 834.435 164.97 834.86C165.285 835.284 165.721 835.469 166.277 835.413Z" fill="white"/>
<path d="M172.478 835.173L172.267 833.049L170.006 833.275L169.931 832.526L172.192 832.301L171.986 830.238L172.82 830.154L173.026 832.217L175.287 831.992L175.362 832.74L173.101 832.966L173.313 835.09L172.478 835.173Z" fill="white"/>
<path d="M900.538 219.928C940.007 219.928 972.003 187.933 972.003 148.464C972.003 108.996 940.007 77 900.538 77C861.07 77 829.074 108.996 829.074 148.464C829.074 187.933 861.07 219.928 900.538 219.928Z" fill="#F5F5F5"/>
<path d="M873.662 204.373C904.649 204.373 920.325 199.812 920.325 167.654C920.325 134.538 901.322 123.922 873.662 123.922C846.003 123.922 827 134.538 827 167.654C827 199.812 842.648 204.373 873.662 204.373Z" fill="#35DE90"/>
<path d="M827 167.653C827 176.27 828.382 184.155 830.553 191.194C833.682 201.36 838.504 209.836 843.24 216.341C843.748 217.017 844.509 217.383 845.27 217.355C846.031 217.355 846.821 216.989 847.3 216.285L856.153 203.556C861.482 194.714 857.535 181.508 850.994 171.286C841.633 156.671 827 148.195 827 167.653Z" fill="#35DE90"/>
<path d="M831.229 193.336C834.527 203.164 839.405 211.105 843.211 216.342C844.226 217.722 846.313 217.694 847.271 216.286L856.124 203.558C844.001 202.488 834.922 198.996 831.229 193.336Z" fill="url(#paint7_linear_196_25569)"/>
<path d="M943.979 173.85C912.993 173.85 897.316 169.288 897.316 137.13C897.316 104.015 916.32 93.3984 943.979 93.3984C971.638 93.3984 990.641 104.015 990.641 137.13C990.641 169.288 974.965 173.85 943.979 173.85Z" fill="#0096FA"/>
<path d="M990.641 137.13C990.641 145.746 989.259 153.631 987.088 160.671C983.959 170.837 979.137 179.313 974.401 185.817C973.893 186.493 973.132 186.859 972.371 186.831C971.61 186.831 970.82 186.465 970.341 185.761L961.488 173.033C956.159 164.191 960.106 150.984 966.647 140.762C976.008 126.147 990.641 117.671 990.641 137.13Z" fill="#0096FA"/>
<path d="M986.412 162.812C983.113 172.64 978.235 180.581 974.429 185.819C973.414 187.199 971.327 187.17 970.369 185.762L961.516 173.034C973.611 171.964 982.69 168.473 986.412 162.812Z" fill="url(#paint8_linear_196_25569)"/>
<path fill-rule="evenodd" clip-rule="evenodd" d="M931.096 135.806C931.096 138.777 928.685 141.185 925.711 141.185C922.737 141.185 920.326 138.777 920.326 135.806C920.326 132.836 922.737 130.428 925.711 130.428C928.685 130.428 931.096 132.836 931.096 135.806ZM949.366 135.806C949.366 138.777 946.955 141.185 943.981 141.185C941.007 141.185 938.596 138.777 938.596 135.806C938.596 132.836 941.007 130.428 943.981 130.428C946.955 130.428 949.366 132.836 949.366 135.806ZM962.223 141.185C965.197 141.185 967.609 138.777 967.609 135.806C967.609 132.836 965.197 130.428 962.223 130.428C959.249 130.428 956.838 132.836 956.838 135.806C956.838 138.777 959.249 141.185 962.223 141.185ZM879.048 166.331C879.048 169.302 876.637 171.71 873.663 171.71C870.689 171.71 868.278 169.302 868.278 166.331C868.278 163.361 870.689 160.953 873.663 160.953C876.637 160.953 879.048 163.361 879.048 166.331ZM891.905 171.71C894.879 171.71 897.29 169.302 897.29 166.331C897.29 163.361 894.879 160.953 891.905 160.953C888.931 160.953 886.52 163.361 886.52 166.331C886.52 169.302 888.931 171.71 891.905 171.71ZM860.778 166.331C860.778 169.302 858.367 171.71 855.393 171.71C852.419 171.71 850.008 169.302 850.008 166.331C850.008 163.361 852.419 160.953 855.393 160.953C858.367 160.953 860.778 163.361 860.778 166.331Z" fill="white"/>
<path d="M566.002 250.346C562.66 232.007 546.549 218.039 527.182 218.039C513.728 218.039 501.816 224.809 494.704 235.007C491.019 233.55 486.991 232.779 482.792 232.779C470.109 232.779 459.14 239.891 453.57 250.26H566.002V250.346Z" fill="url(#paint9_linear_196_25569)"/>
<path d="M221.165 381.631C214.995 364.578 201.37 352.666 185.602 352.666C176.775 352.666 168.634 356.351 162.122 362.521C152.267 344.954 136.07 333.471 117.732 333.471C93.3945 333.471 72.7421 353.695 65.8008 381.546H221.165V381.631Z" fill="url(#paint10_linear_196_25569)"/>
<path fill-rule="evenodd" clip-rule="evenodd" d="M303.991 153.88L275.026 265.027L268.252 263.261L297.217 152.115L303.991 153.88Z" fill="#072F73"/>
<path fill-rule="evenodd" clip-rule="evenodd" d="M171.421 152.113L200.471 263.26L193.699 265.03L164.648 153.883L171.421 152.113Z" fill="#072F73"/>
<path fill-rule="evenodd" clip-rule="evenodd" d="M439.817 153.88L410.852 265.027L404.078 263.261L433.043 152.115L439.817 153.88Z" fill="#072F73"/>
<path fill-rule="evenodd" clip-rule="evenodd" d="M314.53 152.113L343.581 263.26L336.808 265.03L307.758 153.883L314.53 152.113Z" fill="#072F73"/>
<path d="M408.41 412.139H197.001C189.888 412.139 184.146 406.398 184.146 399.285V266.544C184.146 259.431 189.888 253.689 197.001 253.689H408.495C415.608 253.689 421.35 259.431 421.35 266.544V399.285C421.264 406.398 415.522 412.139 408.41 412.139Z" fill="#FCAA73"/>
<path d="M280.381 253.775H196.057C188.945 253.775 183.203 259.517 183.203 266.63V399.371C183.203 406.483 188.945 412.225 196.057 412.225H280.381V253.775Z" fill="#F06305"/>
<path d="M367.704 253.775H332.912V293.795H367.704V253.775Z" fill="#F5F5F5"/>
<path d="M245.417 253.775H217.395V293.795H245.417V253.775Z" fill="#F5F5F5"/>
<path fill-rule="evenodd" clip-rule="evenodd" d="M310.117 17.5081C305.347 17.1694 300.576 17 295.721 17C202.827 17 123.646 75.5295 92.9668 157.711H310.203L310.203 157.625H512.442C481.764 75.6153 402.839 17.1714 310.117 17V17.5081Z" fill="#35DE90"/>
<path d="M436.43 158.139C416.206 75.7009 363.932 17 302.66 17C241.388 17 189.115 75.7009 168.891 158.139H436.43Z" fill="#84EBBC"/>
<path d="M350.736 158.139C343.452 75.7009 324.685 17 302.747 17C280.723 17 261.956 75.7009 254.758 158.139H350.736Z" fill="#35DE90"/>
<defs>
<linearGradient id="paint0_linear_196_25569" x1="344.348" y1="1044.91" x2="359.12" y2="1044.91" gradientUnits="userSpaceOnUse">
<stop offset="0.333333" stop-color="#8C3A03"/>
<stop offset="1" stop-color="#B04600"/>
</linearGradient>
<linearGradient id="paint1_linear_196_25569" x1="557.438" y1="1044.91" x2="572.211" y2="1044.91" gradientUnits="userSpaceOnUse">
<stop offset="0.333333" stop-color="#8C3A03"/>
<stop offset="1" stop-color="#B04600"/>
</linearGradient>
<linearGradient id="paint2_linear_196_25569" x1="770.524" y1="1044.91" x2="785.296" y2="1044.91" gradientUnits="userSpaceOnUse">
<stop offset="0.333333" stop-color="#8C3A03"/>
<stop offset="1" stop-color="#B04600"/>
</linearGradient>
<linearGradient id="paint3_linear_196_25569" x1="402.603" y1="986.707" x2="402.603" y2="1016.86" gradientUnits="userSpaceOnUse">
<stop offset="0.21875" stop-color="#F06305"/>
<stop offset="0.862378" stop-color="#8C3A03"/>
</linearGradient>
<linearGradient id="paint4_linear_196_25569" x1="570.807" y1="382.95" x2="850.921" y2="445.368" gradientUnits="userSpaceOnUse">
<stop stop-color="#C5D9FB"/>
<stop offset="0.1344" stop-color="#D6E3F9"/>
<stop offset="0.3214" stop-color="#E8EDF7"/>
<stop offset="0.5246" stop-color="#F2F3F5"/>
<stop offset="0.7717" stop-color="#F5F5F5"/>
</linearGradient>
<linearGradient id="paint5_linear_196_25569" x1="221.073" y1="579.604" x2="183.014" y2="579.604" gradientUnits="userSpaceOnUse">
<stop stop-color="white"/>
<stop offset="0.9515" stop-color="#C5D9FB"/>
</linearGradient>
<linearGradient id="paint6_linear_196_25569" x1="187.002" y1="847.001" x2="110.995" y2="849.254" gradientUnits="userSpaceOnUse">
<stop offset="0.370105" stop-color="#FBCF23"/>
<stop offset="0.670279" stop-color="#F4E9BB"/>
</linearGradient>
<linearGradient id="paint7_linear_196_25569" x1="833.325" y1="204.121" x2="857.435" y2="210.426" gradientUnits="userSpaceOnUse">
<stop offset="0.3646" stop-color="#35DE90"/>
<stop offset="0.5586" stop-color="#2FD186"/>
<stop offset="0.9137" stop-color="#1FB06D"/>
<stop offset="1" stop-color="#1BA766"/>
</linearGradient>
<linearGradient id="paint8_linear_196_25569" x1="982.887" y1="174.81" x2="957.965" y2="174.91" gradientUnits="userSpaceOnUse">
<stop offset="0.3646" stop-color="#0096FA"/>
<stop offset="0.5886" stop-color="#0789F7"/>
<stop offset="0.9987" stop-color="#1968F0"/>
<stop offset="1" stop-color="#1968F0"/>
</linearGradient>
<linearGradient id="paint9_linear_196_25569" x1="479.932" y1="228.554" x2="548.096" y2="255.51" gradientUnits="userSpaceOnUse">
<stop stop-color="#F5F5F5"/>
<stop offset="0.8231" stop-color="#EFEFEF"/>
<stop offset="1" stop-color="#EDEDED"/>
</linearGradient>
<linearGradient id="paint10_linear_196_25569" x1="163.781" y1="358.018" x2="79.1405" y2="394.287" gradientUnits="userSpaceOnUse">
<stop stop-color="#F5F5F5"/>
<stop offset="0.8202" stop-color="#EFEFEF"/>
<stop offset="0.9965" stop-color="#EDEDED"/>
</linearGradient>
</defs>
</svg>
