<svg width="1080" height="1081" viewBox="0 0 1080 1081" fill="none" xmlns="http://www.w3.org/2000/svg">
<path d="M46 833.5C46 721.11 137.11 630 249.5 630C361.89 630 453 721.11 453 833.5C453 945.89 361.89 1037 249.5 1037C137.11 1037 46 945.89 46 833.5Z" fill="#C40C35"/>
<path d="M84.4771 544.971C84.4771 289.795 291.338 82.9346 546.514 82.9346C801.69 82.9346 1008.55 289.795 1008.55 544.971C1008.55 800.147 801.69 1007.01 546.514 1007.01C291.338 1007.01 84.4771 800.147 84.4771 544.971Z" fill="#F99F9F"/>
<path d="M317 998.485C317 971.375 338.977 949.398 366.087 949.398C393.197 949.398 415.174 971.375 415.174 998.485C415.174 1025.6 393.197 1047.57 366.087 1047.57C338.977 1047.57 317 1025.6 317 998.485Z" fill="#E9718D"/>
<path opacity="0.55" fill-rule="evenodd" clip-rule="evenodd" d="M361.5 50.7566C359.808 50.7566 358.12 50.7722 356.436 50.8032C354.298 50.8426 352.533 49.1385 352.494 46.997C352.454 44.8554 354.155 43.0874 356.293 43.048C358.025 43.016 359.761 43 361.5 43C363.239 43 364.975 43.016 366.707 43.048C368.845 43.0874 370.546 44.8554 370.506 46.997C370.467 49.1385 368.702 50.8426 366.564 50.8032C364.88 50.7722 363.192 50.7566 361.5 50.7566ZM339.793 47.7008C339.99 49.8336 338.424 51.7228 336.295 51.9203C332.933 52.2324 329.588 52.6063 326.262 53.0409C324.142 53.318 322.199 51.8208 321.923 49.6969C321.646 47.573 323.141 45.6266 325.261 45.3495C328.682 44.9025 332.122 44.5179 335.581 44.1969C337.71 43.9993 339.596 45.5681 339.793 47.7008ZM383.207 47.7008C383.404 45.5681 385.29 43.9993 387.419 44.1969C390.878 44.5179 394.318 44.9025 397.739 45.3495C399.859 45.6266 401.354 47.573 401.077 49.6969C400.801 51.8208 398.858 53.318 396.738 53.0409C393.412 52.6064 390.067 52.2324 386.705 51.9203C384.576 51.7228 383.01 49.8336 383.207 47.7008ZM413.616 51.8162C414.05 49.719 416.1 48.3718 418.193 48.8072C421.592 49.5141 424.968 50.2832 428.32 51.1133C430.395 51.6274 431.662 53.7297 431.149 55.809C430.636 57.8884 428.537 59.1573 426.462 58.6432C423.204 57.8364 419.923 57.0888 416.619 56.4018C414.526 55.9664 413.181 53.9134 413.616 51.8162ZM309.384 51.8162C309.819 53.9134 308.474 55.9664 306.381 56.4018C303.077 57.0888 299.796 57.8364 296.538 58.6432C294.463 59.1573 292.364 57.8884 291.851 55.8091C291.338 53.7297 292.605 51.6274 294.68 51.1134C298.032 50.2832 301.408 49.5141 304.807 48.8072C306.9 48.3718 308.95 49.719 309.384 51.8162ZM443.382 59.3337C444.05 57.299 446.238 56.1921 448.269 56.8613C451.561 57.946 454.826 59.0907 458.062 60.2941C460.066 61.0395 461.088 63.2716 460.344 65.2796C459.6 67.2876 457.372 68.3112 455.367 67.5659C452.222 66.3962 449.049 65.2837 445.85 64.2296C443.819 63.5604 442.714 61.3684 443.382 59.3337ZM279.618 59.3337C280.286 61.3684 279.181 63.5604 277.15 64.2296C273.951 65.2837 270.778 66.3963 267.632 67.5659C265.628 68.3112 263.4 67.2876 262.656 65.2796C261.912 63.2716 262.934 61.0395 264.938 60.2941C268.174 59.0907 271.439 57.946 274.731 56.8613C276.762 56.1921 278.95 57.299 279.618 59.3337ZM472.105 70.1653C472.997 68.2191 475.296 67.3663 477.239 68.2606C480.387 69.7098 483.503 71.2163 486.587 72.7788C488.495 73.7456 489.259 76.0787 488.294 77.99C487.329 79.9013 485 80.667 483.092 79.7002C480.095 78.1816 477.066 76.7173 474.006 75.3087C472.063 74.4144 471.212 72.1116 472.105 70.1653ZM250.895 70.1653C251.788 72.1116 250.937 74.4144 248.994 75.3087C245.934 76.7173 242.905 78.1816 239.908 79.7003C238 80.6671 235.671 79.9014 234.706 77.9901C233.741 76.0787 234.505 73.7456 236.413 72.7788C239.497 71.2164 242.613 69.7099 245.761 68.2606C247.704 67.3663 250.003 68.2191 250.895 70.1653ZM499.425 84.166C500.53 82.3325 502.909 81.7436 504.74 82.8508C507.705 84.6443 510.633 86.4918 513.524 88.3919C515.312 89.5669 515.811 91.9711 514.638 93.7621C513.465 95.553 511.065 96.0523 509.277 94.8774C506.467 93.0302 503.62 91.2342 500.738 89.4907C498.907 88.3835 498.319 85.9996 499.425 84.166ZM223.575 84.1661C224.68 85.9996 224.093 88.3836 222.262 89.4907C219.38 91.2342 216.533 93.0302 213.723 94.8774C211.935 96.0523 209.535 95.553 208.362 93.7621C207.189 91.9712 207.688 89.5669 209.476 88.392C212.367 86.4918 215.295 84.6443 218.26 82.8508C220.09 81.7436 222.47 82.3325 223.575 84.1661ZM525.011 101.149C526.314 99.4505 528.744 99.1317 530.44 100.437C533.184 102.549 535.887 104.712 538.549 106.924C540.195 108.291 540.422 110.736 539.057 112.385C537.692 114.033 535.252 114.261 533.606 112.894C531.018 110.744 528.39 108.641 525.722 106.587C524.027 105.282 523.708 102.847 525.011 101.149ZM197.989 101.149C199.292 102.847 198.973 105.282 197.278 106.587C194.61 108.641 191.982 110.744 189.394 112.894C187.748 114.261 185.308 114.033 183.943 112.385C182.578 110.736 182.805 108.291 184.451 106.924C187.113 104.712 189.816 102.549 192.56 100.437C194.256 99.1317 196.686 99.4505 197.989 101.149ZM548.545 120.885C550.028 119.342 552.479 119.297 554.019 120.783C556.51 123.187 558.957 125.638 561.357 128.134C562.841 129.677 562.795 132.132 561.255 133.618C559.716 135.104 557.265 135.058 555.781 133.516C553.448 131.089 551.069 128.706 548.647 126.368C547.107 124.882 547.062 122.427 548.545 120.885ZM174.455 120.885C175.938 122.427 175.893 124.882 174.353 126.368C171.931 128.707 169.552 131.089 167.219 133.516C165.735 135.058 163.284 135.104 161.745 133.618C160.205 132.132 160.159 129.677 161.643 128.134C164.043 125.638 166.49 123.188 168.981 120.783C170.521 119.297 172.971 119.342 174.455 120.885ZM569.74 143.123C571.386 141.755 573.826 141.983 575.191 143.632C577.399 146.298 579.558 149.007 581.666 151.756C582.969 153.454 582.651 155.889 580.956 157.194C579.26 158.499 576.83 158.181 575.527 156.482C573.477 153.809 571.378 151.176 569.232 148.584C567.867 146.935 568.094 144.49 569.74 143.123ZM153.26 143.123C154.906 144.49 155.133 146.935 153.768 148.584C151.622 151.176 149.523 153.81 147.473 156.482C146.17 158.181 143.74 158.499 142.044 157.194C140.349 155.889 140.031 153.454 141.334 151.756C143.442 149.007 145.601 146.298 147.809 143.632C149.174 141.983 151.614 141.755 153.26 143.123ZM588.329 167.586C590.117 166.411 592.517 166.911 593.69 168.702C595.586 171.598 597.431 174.532 599.221 177.502C600.326 179.336 599.738 181.72 597.908 182.827C596.078 183.934 593.698 183.345 592.593 181.512C590.853 178.624 589.06 175.772 587.216 172.956C586.043 171.165 586.542 168.761 588.329 167.586ZM134.671 167.586C136.458 168.761 136.957 171.166 135.784 172.956C133.94 175.772 132.147 178.624 130.407 181.512C129.302 183.345 126.922 183.934 125.092 182.827C123.262 181.72 122.674 179.336 123.779 177.502C125.569 174.532 127.414 171.598 129.31 168.702C130.483 166.911 132.883 166.411 134.671 167.586ZM604.073 193.978C605.981 193.011 608.31 193.777 609.275 195.688C610.834 198.777 612.338 201.899 613.785 205.053C614.678 206.999 613.826 209.302 611.883 210.196C609.941 211.09 607.642 210.238 606.749 208.291C605.343 205.226 603.882 202.191 602.366 199.189C601.401 197.278 602.165 194.945 604.073 193.978ZM118.927 193.978C120.835 194.945 121.599 197.278 120.634 199.189C119.118 202.191 117.657 205.226 116.251 208.291C115.358 210.238 113.059 211.09 111.116 210.196C109.174 209.302 108.322 206.999 109.215 205.053C110.662 201.899 112.166 198.777 113.725 195.688C114.69 193.777 117.019 193.011 118.927 193.978ZM616.76 221.978C618.765 221.232 620.993 222.256 621.737 224.264C622.938 227.506 624.081 230.777 625.164 234.075C625.832 236.109 624.727 238.301 622.696 238.97C620.665 239.64 618.477 238.533 617.809 236.498C616.756 233.293 615.646 230.114 614.478 226.963C613.734 224.955 614.756 222.723 616.76 221.978ZM106.24 221.978C108.244 222.723 109.266 224.955 108.522 226.963C107.354 230.114 106.244 233.293 105.191 236.498C104.523 238.533 102.335 239.64 100.304 238.97C98.2733 238.301 97.1684 236.109 97.8364 234.075C98.9191 230.777 100.062 227.506 101.263 224.264C102.007 222.256 104.235 221.233 106.24 221.978ZM626.214 251.226C628.29 250.712 630.388 251.98 630.901 254.06C631.73 257.418 632.498 260.8 633.203 264.205C633.638 266.302 632.293 268.355 630.2 268.79C628.106 269.226 626.057 267.878 625.622 265.781C624.936 262.472 624.19 259.185 623.385 255.921C622.872 253.842 624.138 251.74 626.214 251.226ZM96.786 251.226C98.8616 251.74 100.128 253.842 99.6151 255.921C98.8097 259.185 98.0635 262.472 97.3777 265.781C96.9431 267.878 94.8937 269.226 92.8003 268.79C90.7069 268.355 89.3622 266.302 89.7968 264.205C90.5023 260.8 91.2701 257.418 92.0988 254.06C92.6119 251.98 94.7104 250.712 96.786 251.226ZM90.6848 281.351C92.8049 281.628 94.2994 283.575 94.0229 285.699C93.5891 289.03 93.2158 292.381 92.9043 295.75C92.7071 297.883 90.8213 299.452 88.6924 299.254C86.5634 299.056 84.9975 297.167 85.1947 295.034C85.5151 291.569 85.8991 288.123 86.3453 284.696C86.6219 282.572 88.5647 281.074 90.6848 281.351ZM632.315 281.351C634.435 281.074 636.378 282.572 636.655 284.696C637.101 288.123 637.485 291.569 637.805 295.034C638.003 297.167 636.437 299.056 634.308 299.254C632.179 299.452 630.293 297.883 630.096 295.75C629.784 292.381 629.411 289.03 628.977 285.699C628.701 283.575 630.195 281.628 632.315 281.351ZM87.9898 311.977C90.1275 312.017 91.8285 313.785 91.7892 315.926C91.7582 317.614 91.7426 319.305 91.7426 321C91.7426 322.695 91.7582 324.386 91.7892 326.074C91.8285 328.215 90.1275 329.983 87.9898 330.023C85.8521 330.062 84.0872 328.358 84.0479 326.216C84.016 324.481 84 322.743 84 321C84 319.257 84.016 317.519 84.0479 315.784C84.0872 313.642 85.8521 311.938 87.9898 311.977ZM635.01 311.977C637.148 311.938 638.913 313.642 638.952 315.784C638.984 317.519 639 319.257 639 321C639 322.743 638.984 324.481 638.952 326.216C638.913 328.358 637.148 330.062 635.01 330.023C632.873 329.983 631.171 328.215 631.211 326.074C631.242 324.386 631.257 322.695 631.257 321C631.257 319.305 631.242 317.614 631.211 315.926C631.171 313.785 632.873 312.017 635.01 311.977ZM88.6924 342.746C90.8213 342.548 92.7071 344.117 92.9043 346.25C93.2158 349.619 93.5891 352.97 94.0229 356.301C94.2994 358.425 92.8049 360.371 90.6848 360.649C88.5647 360.926 86.6219 359.428 86.3453 357.304C85.8991 353.877 85.5151 350.431 85.1947 346.965C84.9975 344.833 86.5634 342.944 88.6924 342.746ZM634.308 342.746C636.437 342.944 638.003 344.833 637.805 346.966C637.485 350.431 637.101 353.877 636.655 357.304C636.378 359.428 634.435 360.926 632.315 360.649C630.195 360.371 628.701 358.425 628.977 356.301C629.411 352.97 629.784 349.619 630.096 346.25C630.293 344.117 632.179 342.548 634.308 342.746ZM630.2 373.21C632.293 373.645 633.638 375.698 633.203 377.795C632.498 381.2 631.73 384.582 630.901 387.94C630.388 390.02 628.29 391.288 626.214 390.774C624.138 390.26 622.872 388.158 623.385 386.079C624.19 382.815 624.936 379.528 625.622 376.219C626.057 374.121 628.106 372.774 630.2 373.21ZM92.8003 373.21C94.8937 372.774 96.9431 374.122 97.3777 376.219C98.0635 379.528 98.8097 382.815 99.6151 386.079C100.128 388.158 98.8616 390.26 96.786 390.774C94.7104 391.288 92.6119 390.02 92.0988 387.94C91.2701 384.582 90.5023 381.2 89.7968 377.795C89.3622 375.698 90.7069 373.645 92.8003 373.21ZM100.304 403.03C102.335 402.36 104.523 403.467 105.191 405.502C106.244 408.707 107.354 411.886 108.522 415.037C109.266 417.045 108.244 419.277 106.24 420.022C104.235 420.768 102.007 419.744 101.263 417.736C100.062 414.494 98.9191 411.223 97.8364 407.925C97.1684 405.891 98.2733 403.699 100.304 403.03ZM622.696 403.029C624.727 403.699 625.832 405.891 625.164 407.925C624.081 411.223 622.938 414.494 621.737 417.736C620.993 419.744 618.765 420.767 616.76 420.022C614.756 419.277 613.734 417.045 614.478 415.037C615.646 411.886 616.756 408.707 617.809 405.502C618.477 403.467 620.665 402.36 622.696 403.029ZM611.884 431.804C613.826 432.698 614.678 435.001 613.785 436.947C612.338 440.101 610.834 443.223 609.275 446.312C608.31 448.223 605.981 448.989 604.073 448.022C602.165 447.055 601.401 444.722 602.366 442.811C603.882 439.809 605.343 436.774 606.749 433.709C607.642 431.762 609.941 430.909 611.884 431.804ZM111.116 431.804C113.059 430.91 115.358 431.762 116.251 433.709C117.657 436.774 119.118 439.809 120.634 442.811C121.599 444.722 120.835 447.055 118.927 448.022C117.019 448.989 114.69 448.223 113.725 446.312C112.166 443.223 110.662 440.101 109.215 436.947C108.322 435.001 109.174 432.698 111.116 431.804ZM597.908 459.173C599.738 460.28 600.326 462.664 599.221 464.498C597.431 467.468 595.586 470.402 593.69 473.298C592.517 475.089 590.117 475.589 588.329 474.414C586.542 473.239 586.043 470.834 587.216 469.044C589.06 466.228 590.853 463.376 592.593 460.488C593.698 458.655 596.078 458.066 597.908 459.173ZM125.092 459.173C126.922 458.066 129.302 458.655 130.407 460.488C132.147 463.376 133.94 466.228 135.784 469.044C136.957 470.834 136.458 473.239 134.671 474.414C132.883 475.589 130.483 475.089 129.31 473.298C127.414 470.402 125.569 467.468 123.779 464.498C122.674 462.664 123.262 460.28 125.092 459.173ZM580.956 484.806C582.651 486.111 582.969 488.546 581.666 490.244C579.558 492.993 577.399 495.702 575.191 498.368C573.826 500.017 571.386 500.245 569.74 498.877C568.094 497.51 567.867 495.065 569.232 493.416C571.378 490.824 573.477 488.19 575.527 485.518C576.83 483.819 579.26 483.501 580.956 484.806ZM142.044 484.806C143.74 483.501 146.17 483.819 147.473 485.518C149.523 488.19 151.622 490.824 153.768 493.416C155.133 495.065 154.906 497.51 153.26 498.877C151.614 500.245 149.174 500.017 147.809 498.368C145.601 495.702 143.442 492.993 141.334 490.244C140.031 488.546 140.349 486.111 142.044 484.806ZM561.255 508.382C562.795 509.868 562.841 512.323 561.357 513.866C558.957 516.362 556.51 518.812 554.019 521.217C552.479 522.703 550.029 522.658 548.545 521.115C547.062 519.573 547.107 517.118 548.647 515.632C551.069 513.293 553.448 510.911 555.781 508.484C557.265 506.941 559.716 506.896 561.255 508.382ZM161.745 508.382C163.284 506.896 165.735 506.942 167.219 508.484C169.552 510.911 171.931 513.294 174.353 515.632C175.893 517.118 175.938 519.573 174.455 521.115C172.972 522.658 170.521 522.703 168.981 521.217C166.49 518.813 164.043 516.362 161.643 513.866C160.159 512.323 160.205 509.868 161.745 508.382ZM539.057 529.615C540.422 531.264 540.195 533.709 538.549 535.076C535.887 537.288 533.184 539.451 530.44 541.563C528.744 542.868 526.314 542.549 525.011 540.851C523.708 539.153 524.027 536.718 525.722 535.413C528.39 533.359 531.018 531.256 533.606 529.106C535.252 527.739 537.692 527.967 539.057 529.615ZM183.943 529.615C185.308 527.967 187.748 527.739 189.394 529.106C191.982 531.256 194.61 533.359 197.278 535.413C198.973 536.718 199.292 539.153 197.989 540.851C196.686 542.549 194.256 542.868 192.56 541.563C189.816 539.451 187.113 537.288 184.451 535.076C182.805 533.709 182.578 531.264 183.943 529.615ZM208.362 548.238C209.535 546.447 211.935 545.948 213.723 547.123C216.533 548.97 219.38 550.766 222.262 552.509C224.093 553.616 224.681 556 223.575 557.834C222.47 559.668 220.091 560.256 218.26 559.149C215.295 557.356 212.367 555.508 209.476 553.608C207.688 552.433 207.189 550.029 208.362 548.238ZM514.638 548.238C515.811 550.029 515.312 552.433 513.525 553.608C510.633 555.508 507.705 557.356 504.74 559.149C502.91 560.256 500.53 559.667 499.425 557.834C498.32 556 498.907 553.616 500.738 552.509C503.62 550.766 506.467 548.97 509.277 547.123C511.065 545.948 513.465 546.447 514.638 548.238ZM488.294 564.01C489.259 565.921 488.495 568.254 486.587 569.221C483.503 570.784 480.387 572.29 477.239 573.739C475.296 574.634 472.997 573.781 472.105 571.835C471.212 569.888 472.063 567.586 474.006 566.691C477.066 565.283 480.095 563.818 483.092 562.3C485 561.333 487.329 562.099 488.294 564.01ZM234.706 564.01C235.671 562.099 238 561.333 239.908 562.3C242.905 563.818 245.934 565.283 248.994 566.691C250.937 567.586 251.788 569.888 250.895 571.835C250.003 573.781 247.704 574.634 245.761 573.739C242.613 572.29 239.497 570.784 236.413 569.221C234.505 568.254 233.741 565.921 234.706 564.01ZM262.656 576.72C263.4 574.712 265.628 573.689 267.633 574.434C270.778 575.604 273.951 576.716 277.15 577.77C279.181 578.44 280.286 580.632 279.618 582.666C278.95 584.701 276.762 585.808 274.731 585.139C271.439 584.054 268.174 582.909 264.938 581.706C262.934 580.961 261.912 578.728 262.656 576.72ZM460.344 576.72C461.088 578.728 460.066 580.961 458.062 581.706C454.826 582.909 451.561 584.054 448.269 585.139C446.238 585.808 444.05 584.701 443.382 582.666C442.714 580.632 443.819 578.44 445.85 577.77C449.049 576.716 452.222 575.604 455.368 574.434C457.372 573.689 459.6 574.712 460.344 576.72ZM291.851 586.191C292.364 584.112 294.463 582.843 296.538 583.357C299.796 584.164 303.077 584.911 306.381 585.598C308.474 586.034 309.819 588.087 309.384 590.184C308.95 592.281 306.9 593.628 304.807 593.193C301.408 592.486 298.032 591.717 294.68 590.887C292.605 590.373 291.338 588.27 291.851 586.191ZM431.149 586.191C431.662 588.27 430.395 590.373 428.32 590.887C424.968 591.717 421.592 592.486 418.193 593.193C416.1 593.628 414.05 592.281 413.616 590.184C413.181 588.087 414.526 586.034 416.619 585.598C419.923 584.911 423.204 584.164 426.462 583.357C428.537 582.843 430.636 584.112 431.149 586.191ZM321.923 592.303C322.199 590.179 324.142 588.682 326.262 588.959C329.588 589.394 332.933 589.768 336.295 590.08C338.424 590.277 339.99 592.166 339.793 594.299C339.596 596.432 337.71 598.001 335.581 597.803C332.122 597.482 328.682 597.097 325.261 596.65C323.141 596.373 321.646 594.427 321.923 592.303ZM401.077 592.303C401.354 594.427 399.859 596.373 397.739 596.65C394.318 597.097 390.878 597.482 387.419 597.803C385.29 598.001 383.404 596.432 383.207 594.299C383.01 592.166 384.576 590.277 386.705 590.08C390.067 589.768 393.412 589.394 396.738 588.959C398.858 588.682 400.801 590.179 401.077 592.303ZM352.494 595.003C352.533 592.861 354.298 591.157 356.436 591.197C358.12 591.228 359.808 591.243 361.5 591.243C363.192 591.243 364.88 591.228 366.564 591.197C368.702 591.157 370.467 592.861 370.506 595.003C370.546 597.145 368.845 598.913 366.707 598.952C364.975 598.984 363.239 599 361.5 599C359.761 599 358.025 598.984 356.293 598.952C354.155 598.913 352.454 597.145 352.494 595.003Z" fill="#F99F9F"/>
<path opacity="0.55" fill-rule="evenodd" clip-rule="evenodd" d="M590 677.371C588.829 677.371 587.661 677.382 586.496 677.403C585.017 677.431 583.796 676.251 583.769 674.768C583.741 673.285 584.918 672.061 586.397 672.033C587.596 672.011 588.797 672 590 672C591.203 672 592.404 672.011 593.603 672.033C595.082 672.061 596.259 673.285 596.231 674.768C596.204 676.251 594.983 677.431 593.504 677.403C592.339 677.382 591.171 677.371 590 677.371ZM574.981 675.255C575.118 676.732 574.034 678.04 572.561 678.177C570.234 678.393 567.92 678.652 565.619 678.953C564.152 679.145 562.808 678.108 562.617 676.637C562.425 675.167 563.46 673.819 564.926 673.627C567.293 673.317 569.674 673.051 572.067 672.829C573.54 672.692 574.845 673.778 574.981 675.255ZM605.019 675.255C605.155 673.778 606.46 672.692 607.933 672.829C610.326 673.051 612.707 673.317 615.074 673.627C616.54 673.819 617.575 675.167 617.383 676.637C617.192 678.108 615.848 679.145 614.381 678.953C612.08 678.652 609.766 678.393 607.439 678.177C605.966 678.04 604.882 676.732 605.019 675.255ZM626.059 678.105C626.359 676.653 627.777 675.72 629.226 676.021C631.577 676.511 633.913 677.043 636.232 677.618C637.668 677.974 638.545 679.43 638.189 680.87C637.834 682.309 636.382 683.188 634.946 682.832C632.692 682.273 630.422 681.756 628.137 681.28C626.688 680.979 625.758 679.557 626.059 678.105ZM553.941 678.105C554.242 679.557 553.312 680.979 551.863 681.28C549.578 681.756 547.308 682.273 545.054 682.832C543.617 683.188 542.166 682.309 541.81 680.87C541.455 679.43 542.332 677.974 543.768 677.618C546.087 677.043 548.423 676.511 550.774 676.021C552.223 675.72 553.641 676.653 553.941 678.105ZM646.653 683.31C647.116 681.901 648.63 681.135 650.035 681.598C652.312 682.349 654.571 683.142 656.81 683.975C658.197 684.491 658.904 686.037 658.389 687.427C657.875 688.818 656.333 689.527 654.946 689.011C652.77 688.201 650.575 687.43 648.361 686.7C646.956 686.237 646.191 684.719 646.653 683.31ZM533.347 683.31C533.809 684.719 533.044 686.237 531.639 686.7C529.425 687.43 527.23 688.201 525.054 689.011C523.667 689.527 522.125 688.818 521.611 687.427C521.096 686.037 521.803 684.491 523.19 683.975C525.429 683.142 527.688 682.349 529.965 681.598C531.37 681.135 532.884 681.901 533.347 683.31ZM666.526 690.811C667.144 689.463 668.734 688.872 670.079 689.492C672.257 690.495 674.413 691.538 676.546 692.62C677.866 693.29 678.395 694.905 677.728 696.229C677.06 697.552 675.448 698.082 674.128 697.413C672.055 696.361 669.959 695.347 667.842 694.372C666.498 693.753 665.909 692.158 666.526 690.811ZM513.474 690.811C514.091 692.158 513.502 693.753 512.158 694.372C510.041 695.347 507.945 696.361 505.872 697.413C504.551 698.082 502.94 697.552 502.272 696.229C501.605 694.905 502.133 693.29 503.454 692.62C505.587 691.538 507.743 690.495 509.921 689.492C511.266 688.872 512.856 689.463 513.474 690.811ZM685.429 700.505C686.194 699.236 687.84 698.828 689.106 699.595C691.158 700.836 693.184 702.116 695.184 703.431C696.421 704.245 696.766 705.91 695.955 707.15C695.143 708.39 693.483 708.736 692.246 707.922C690.301 706.643 688.331 705.4 686.337 704.192C685.071 703.426 684.664 701.775 685.429 700.505ZM494.571 700.505C495.336 701.775 494.929 703.426 493.663 704.192C491.668 705.4 489.699 706.643 487.754 707.922C486.517 708.736 484.857 708.39 484.045 707.15C483.234 705.91 483.579 704.245 484.815 703.431C486.816 702.116 488.842 700.836 490.894 699.595C492.16 698.828 493.806 699.236 494.571 700.505ZM703.132 712.265C704.033 711.089 705.715 710.868 706.888 711.772C708.787 713.235 710.657 714.732 712.499 716.264C713.637 717.211 713.795 718.904 712.85 720.045C711.906 721.187 710.217 721.345 709.079 720.398C707.288 718.909 705.47 717.453 703.624 716.031C702.451 715.127 702.231 713.441 703.132 712.265ZM476.868 712.265C477.769 713.441 477.549 715.127 476.376 716.031C474.53 717.453 472.712 718.909 470.921 720.398C469.783 721.345 468.094 721.187 467.15 720.045C466.205 718.904 466.363 717.211 467.501 716.264C469.343 714.732 471.213 713.235 473.112 711.772C474.285 710.868 475.967 711.089 476.868 712.265ZM719.415 725.931C720.441 724.863 722.137 724.831 723.202 725.86C724.926 727.525 726.619 729.223 728.279 730.951C729.306 732.019 729.274 733.719 728.209 734.748C727.144 735.777 725.448 735.745 724.422 734.677C722.807 732.997 721.161 731.347 719.485 729.728C718.42 728.699 718.389 726.999 719.415 725.931ZM460.585 725.931C461.611 726.999 461.58 728.699 460.515 729.728C458.839 731.347 457.193 732.997 455.578 734.677C454.552 735.746 452.856 735.777 451.791 734.748C450.726 733.719 450.694 732.019 451.72 730.951C453.381 729.223 455.074 727.526 456.798 725.86C457.863 724.831 459.559 724.863 460.585 725.931ZM734.08 741.33C735.218 740.383 736.907 740.541 737.851 741.682C739.379 743.529 740.872 745.404 742.331 747.308C743.233 748.484 743.013 750.17 741.84 751.073C740.667 751.977 738.985 751.756 738.084 750.58C736.665 748.73 735.213 746.906 733.728 745.111C732.784 743.97 732.941 742.277 734.08 741.33ZM445.92 741.33C447.059 742.277 447.216 743.97 446.272 745.111C444.787 746.906 443.335 748.73 441.916 750.58C441.015 751.756 439.333 751.977 438.16 751.073C436.987 750.17 436.767 748.484 437.669 747.308C439.128 745.404 440.621 743.529 442.149 741.682C443.093 740.541 444.782 740.383 445.92 741.33ZM746.941 758.269C748.178 757.456 749.839 757.801 750.65 759.042C751.962 761.047 753.238 763.079 754.477 765.135C755.242 766.405 754.835 768.056 753.569 768.823C752.302 769.589 750.656 769.181 749.891 767.912C748.687 765.912 747.447 763.937 746.171 761.988C745.36 760.748 745.704 759.083 746.941 758.269ZM433.059 758.269C434.296 759.083 434.64 760.748 433.829 761.988C432.553 763.937 431.313 765.912 430.109 767.912C429.344 769.181 427.698 769.589 426.431 768.823C425.165 768.056 424.758 766.405 425.523 765.135C426.762 763.079 428.038 761.047 429.35 759.042C430.161 757.801 431.822 757.456 433.059 758.269ZM757.834 776.544C759.154 775.874 760.766 776.405 761.433 777.728C762.512 779.867 763.553 782.029 764.554 784.213C765.171 785.561 764.582 787.155 763.238 787.774C761.894 788.394 760.304 787.803 759.686 786.455C758.713 784.333 757.702 782.231 756.653 780.152C755.985 778.829 756.514 777.213 757.834 776.544ZM422.166 776.544C423.486 777.213 424.015 778.829 423.347 780.152C422.298 782.231 421.287 784.333 420.314 786.455C419.696 787.803 418.106 788.394 416.762 787.774C415.417 787.155 414.829 785.561 415.446 784.213C416.447 782.029 417.488 779.867 418.567 777.728C419.234 776.405 420.846 775.875 422.166 776.544ZM766.613 795.933C767.999 795.416 769.541 796.125 770.056 797.516C770.887 799.761 771.678 802.025 772.427 804.309C772.889 805.718 772.124 807.236 770.719 807.699C769.314 808.162 767.8 807.396 767.338 805.987C766.61 803.768 765.841 801.567 765.034 799.385C764.519 797.994 765.226 796.449 766.613 795.933ZM413.387 795.933C414.774 796.449 415.481 797.994 414.966 799.385C414.159 801.567 413.39 803.768 412.662 805.987C412.2 807.396 410.686 808.162 409.281 807.699C407.876 807.236 407.111 805.718 407.573 804.309C408.322 802.025 409.113 799.761 409.944 797.516C410.459 796.125 412.001 795.416 413.387 795.933ZM773.153 816.185C774.59 815.829 776.042 816.708 776.397 818.147C776.97 820.473 777.501 822.815 777.989 825.172C778.29 826.624 777.36 828.046 775.911 828.348C774.463 828.649 773.045 827.716 772.744 826.264C772.27 823.973 771.753 821.696 771.196 819.437C770.841 817.997 771.717 816.541 773.153 816.185ZM406.847 816.185C408.283 816.541 409.159 817.997 408.804 819.437C408.247 821.696 407.73 823.973 407.256 826.264C406.955 827.716 405.537 828.649 404.089 828.348C402.64 828.046 401.71 826.624 402.011 825.172C402.499 822.815 403.03 820.473 403.603 818.148C403.958 816.708 405.41 815.829 406.847 816.185ZM402.625 837.046C404.092 837.237 405.126 838.585 404.935 840.056C404.635 842.363 404.376 844.683 404.161 847.016C404.024 848.493 402.72 849.579 401.247 849.442C399.774 849.305 398.69 847.997 398.827 846.52C399.048 844.121 399.314 841.734 399.623 839.361C399.814 837.89 401.158 836.854 402.625 837.046ZM777.375 837.046C778.842 836.854 780.186 837.89 780.377 839.361C780.686 841.734 780.952 844.121 781.173 846.52C781.31 847.997 780.226 849.305 778.753 849.442C777.28 849.579 775.976 848.493 775.839 847.016C775.624 844.683 775.365 842.363 775.065 840.056C774.874 838.585 775.908 837.237 777.375 837.046ZM400.76 858.252C402.24 858.28 403.416 859.504 403.389 860.987C403.368 862.155 403.357 863.326 403.357 864.5C403.357 865.674 403.368 866.845 403.389 868.013C403.416 869.496 402.24 870.72 400.76 870.748C399.281 870.775 398.06 869.595 398.033 868.112C398.011 866.911 398 865.707 398 864.5C398 863.293 398.011 862.089 398.033 860.888C398.06 859.405 399.281 858.225 400.76 858.252ZM779.24 858.252C780.719 858.225 781.94 859.405 781.967 860.888C781.989 862.089 782 863.293 782 864.5C782 865.707 781.989 866.911 781.967 868.112C781.94 869.595 780.719 870.775 779.24 870.748C777.76 870.72 776.583 869.496 776.611 868.013C776.632 866.845 776.643 865.674 776.643 864.5C776.643 863.326 776.632 862.155 776.611 860.987C776.583 859.504 777.76 858.28 779.24 858.252ZM401.247 879.558C402.72 879.421 404.024 880.507 404.161 881.984C404.376 884.317 404.635 886.637 404.935 888.944C405.126 890.415 404.092 891.763 402.625 891.954C401.158 892.146 399.814 891.11 399.623 889.639C399.314 887.266 399.048 884.879 398.827 882.48C398.69 881.003 399.774 879.695 401.247 879.558ZM778.753 879.558C780.226 879.695 781.31 881.003 781.173 882.48C780.952 884.879 780.686 887.266 780.377 889.639C780.186 891.11 778.842 892.146 777.375 891.954C775.908 891.763 774.874 890.415 775.065 888.944C775.365 886.637 775.624 884.317 775.839 881.984C775.976 880.507 777.28 879.421 778.753 879.558ZM775.911 900.652C777.36 900.954 778.29 902.376 777.989 903.828C777.501 906.185 776.97 908.527 776.397 910.852C776.042 912.292 774.59 913.171 773.153 912.815C771.717 912.459 770.841 911.003 771.196 909.563C771.753 907.304 772.27 905.027 772.744 902.736C773.045 901.284 774.463 900.351 775.911 900.652ZM404.089 900.652C405.537 900.351 406.955 901.284 407.256 902.736C407.73 905.027 408.247 907.304 408.804 909.563C409.159 911.003 408.283 912.459 406.847 912.815C405.41 913.171 403.958 912.292 403.603 910.853C403.03 908.527 402.499 906.185 402.011 903.828C401.71 902.376 402.64 900.954 404.089 900.652ZM409.281 921.301C410.686 920.838 412.2 921.604 412.662 923.013C413.39 925.232 414.159 927.433 414.966 929.615C415.481 931.006 414.774 932.551 413.387 933.067C412.001 933.584 410.459 932.875 409.944 931.484C409.113 929.239 408.322 926.975 407.573 924.691C407.111 923.282 407.876 921.764 409.281 921.301ZM770.719 921.301C772.124 921.764 772.889 923.282 772.427 924.691C771.678 926.975 770.887 929.239 770.056 931.484C769.541 932.875 768 933.584 766.613 933.067C765.226 932.551 764.519 931.006 765.034 929.615C765.841 927.433 766.61 925.232 767.338 923.013C767.8 921.604 769.314 920.838 770.719 921.301ZM763.238 941.226C764.583 941.845 765.171 943.439 764.554 944.787C763.553 946.971 762.512 949.133 761.433 951.272C760.766 952.595 759.154 953.125 757.834 952.456C756.514 951.787 755.985 950.171 756.653 948.848C757.702 946.769 758.713 944.667 759.686 942.545C760.304 941.197 761.894 940.606 763.238 941.226ZM416.762 941.226C418.106 940.606 419.696 941.197 420.314 942.545C421.287 944.667 422.298 946.769 423.347 948.848C424.015 950.171 423.486 951.787 422.166 952.456C420.846 953.126 419.234 952.595 418.567 951.272C417.488 949.133 416.447 946.971 415.446 944.787C414.829 943.439 415.417 941.845 416.762 941.226ZM753.569 960.177C754.835 960.944 755.242 962.595 754.477 963.865C753.238 965.921 751.962 967.953 750.65 969.958C749.839 971.199 748.178 971.544 746.941 970.731C745.704 969.917 745.36 968.252 746.171 967.012C747.447 965.062 748.687 963.088 749.891 961.088C750.656 959.819 752.302 959.411 753.569 960.177ZM426.431 960.177C427.698 959.411 429.344 959.819 430.109 961.088C431.313 963.088 432.553 965.063 433.829 967.012C434.64 968.252 434.296 969.917 433.059 970.731C431.822 971.544 430.161 971.199 429.35 969.958C428.038 967.953 426.762 965.921 425.523 963.865C424.758 962.595 425.165 960.944 426.431 960.177ZM741.84 977.927C743.013 978.83 743.233 980.516 742.331 981.692C740.872 983.596 739.379 985.471 737.851 987.318C736.907 988.459 735.218 988.617 734.08 987.67C732.941 986.723 732.784 985.03 733.728 983.889C735.213 982.094 736.665 980.27 738.084 978.42C738.985 977.244 740.667 977.023 741.84 977.927ZM438.16 977.927C439.333 977.023 441.015 977.244 441.916 978.42C443.335 980.27 444.787 982.094 446.272 983.889C447.216 985.03 447.059 986.723 445.92 987.67C444.782 988.617 443.093 988.459 442.149 987.318C440.621 985.471 439.128 983.596 437.669 981.692C436.767 980.516 436.987 978.83 438.16 977.927ZM728.209 994.252C729.274 995.281 729.306 996.981 728.28 998.049C726.619 999.777 724.926 1001.47 723.202 1003.14C722.137 1004.17 720.441 1004.14 719.415 1003.07C718.389 1002 718.42 1000.3 719.485 999.272C721.161 997.653 722.807 996.003 724.422 994.323C725.448 993.254 727.144 993.223 728.209 994.252ZM451.791 994.252C452.856 993.223 454.552 993.254 455.578 994.323C457.193 996.003 458.839 997.653 460.515 999.272C461.58 1000.3 461.611 1002 460.585 1003.07C459.559 1004.14 457.863 1004.17 456.798 1003.14C455.074 1001.47 453.381 999.777 451.72 998.049C450.694 996.981 450.726 995.281 451.791 994.252ZM712.85 1008.95C713.795 1010.1 713.637 1011.79 712.499 1012.74C710.657 1014.27 708.787 1015.77 706.888 1017.23C705.715 1018.13 704.033 1017.91 703.132 1016.74C702.231 1015.56 702.451 1013.87 703.624 1012.97C705.47 1011.55 707.288 1010.09 709.079 1008.6C710.217 1007.66 711.906 1007.81 712.85 1008.95ZM467.15 1008.95C468.094 1007.81 469.783 1007.66 470.921 1008.6C472.712 1010.09 474.53 1011.55 476.376 1012.97C477.549 1013.87 477.769 1015.56 476.868 1016.74C475.967 1017.91 474.285 1018.13 473.112 1017.23C471.213 1015.77 469.343 1014.27 467.501 1012.74C466.363 1011.79 466.205 1010.1 467.15 1008.95ZM484.045 1021.85C484.857 1020.61 486.517 1020.26 487.754 1021.08C489.699 1022.36 491.669 1023.6 493.663 1024.81C494.929 1025.57 495.336 1027.23 494.571 1028.49C493.806 1029.76 492.16 1030.17 490.894 1029.41C488.842 1028.16 486.816 1026.88 484.816 1025.57C483.579 1024.75 483.234 1023.09 484.045 1021.85ZM695.955 1021.85C696.766 1023.09 696.421 1024.75 695.185 1025.57C693.184 1026.88 691.158 1028.16 689.106 1029.41C687.84 1030.17 686.194 1029.76 685.429 1028.49C684.664 1027.23 685.071 1025.57 686.337 1024.81C688.332 1023.6 690.301 1022.36 692.246 1021.08C693.483 1020.26 695.143 1020.61 695.955 1021.85ZM677.728 1032.77C678.395 1034.09 677.866 1035.71 676.546 1036.38C674.413 1037.46 672.257 1038.5 670.079 1039.51C668.734 1040.13 667.144 1039.54 666.526 1038.19C665.909 1036.84 666.498 1035.25 667.842 1034.63C669.959 1033.65 672.055 1032.64 674.128 1031.59C675.449 1030.92 677.06 1031.45 677.728 1032.77ZM502.272 1032.77C502.94 1031.45 504.552 1030.92 505.872 1031.59C507.945 1032.64 510.041 1033.65 512.158 1034.63C513.502 1035.25 514.091 1036.84 513.474 1038.19C512.856 1039.54 511.266 1040.13 509.921 1039.51C507.743 1038.5 505.587 1037.46 503.454 1036.38C502.134 1035.71 501.605 1034.09 502.272 1032.77ZM521.611 1041.57C522.125 1040.18 523.667 1039.47 525.054 1039.99C527.23 1040.8 529.425 1041.57 531.639 1042.3C533.044 1042.76 533.809 1044.28 533.347 1045.69C532.884 1047.1 531.37 1047.87 529.965 1047.4C527.688 1046.65 525.429 1045.86 523.19 1045.02C521.803 1044.51 521.096 1042.96 521.611 1041.57ZM658.389 1041.57C658.904 1042.96 658.197 1044.51 656.81 1045.02C654.571 1045.86 652.312 1046.65 650.035 1047.4C648.63 1047.87 647.116 1047.1 646.653 1045.69C646.191 1044.28 646.956 1042.76 648.361 1042.3C650.575 1041.57 652.77 1040.8 654.946 1039.99C656.333 1039.47 657.875 1040.18 658.389 1041.57ZM541.811 1048.13C542.166 1046.69 543.618 1045.81 545.054 1046.17C547.308 1046.73 549.578 1047.24 551.863 1047.72C553.312 1048.02 554.242 1049.44 553.941 1050.9C553.641 1052.35 552.223 1053.28 550.774 1052.98C548.423 1052.49 546.087 1051.96 543.768 1051.38C542.332 1051.03 541.455 1049.57 541.811 1048.13ZM638.189 1048.13C638.545 1049.57 637.668 1051.03 636.232 1051.38C633.913 1051.96 631.577 1052.49 629.226 1052.98C627.777 1053.28 626.359 1052.35 626.059 1050.9C625.758 1049.44 626.688 1048.02 628.137 1047.72C630.422 1047.24 632.692 1046.73 634.946 1046.17C636.383 1045.81 637.835 1046.69 638.189 1048.13ZM562.617 1052.36C562.808 1050.89 564.152 1049.86 565.619 1050.05C567.92 1050.35 570.234 1050.61 572.561 1050.82C574.034 1050.96 575.118 1052.27 574.981 1053.74C574.845 1055.22 573.54 1056.31 572.067 1056.17C569.674 1055.95 567.293 1055.68 564.926 1055.37C563.46 1055.18 562.425 1053.83 562.617 1052.36ZM617.383 1052.36C617.575 1053.83 616.54 1055.18 615.074 1055.37C612.707 1055.68 610.326 1055.95 607.933 1056.17C606.46 1056.31 605.155 1055.22 605.019 1053.74C604.882 1052.27 605.966 1050.96 607.439 1050.82C609.766 1050.61 612.08 1050.35 614.381 1050.05C615.848 1049.86 617.192 1050.89 617.383 1052.36ZM583.769 1054.23C583.796 1052.75 585.017 1051.57 586.496 1051.6C587.661 1051.62 588.829 1051.63 590 1051.63C591.171 1051.63 592.339 1051.62 593.504 1051.6C594.983 1051.57 596.204 1052.75 596.231 1054.23C596.259 1055.72 595.082 1056.94 593.603 1056.97C592.404 1056.99 591.203 1057 590 1057C588.797 1057 587.596 1056.99 586.397 1056.97C584.918 1056.94 583.741 1055.72 583.769 1054.23Z" fill="#F99F9F"/>
<path d="M580.198 549.513L765.321 363.885C769.951 359.067 772.483 352.602 772.359 345.912C772.236 339.222 769.467 332.855 764.662 328.212C759.857 323.57 753.41 321.031 746.738 321.155C740.066 321.279 733.717 324.055 729.087 328.873L543.964 514.502L358.841 328.873C354.158 324.497 347.964 322.115 341.564 322.228C335.163 322.341 329.057 324.941 324.53 329.48C320.004 334.019 317.411 340.142 317.298 346.56C317.185 352.978 319.561 359.189 323.925 363.885L509.048 549.513L323.925 735.142C319.299 739.787 316.7 746.083 316.7 752.648C316.7 759.213 319.299 765.509 323.925 770.154C328.557 774.793 334.836 777.399 341.383 777.399C347.93 777.399 354.209 774.793 358.841 770.154L543.964 585.846L729.087 771.475C733.719 776.114 739.998 778.72 746.545 778.72C753.092 778.72 759.371 776.114 764.003 771.475C768.63 766.83 771.228 760.534 771.228 753.969C771.228 747.404 768.63 741.108 764.003 736.463L580.198 549.513Z" fill="white"/>
<path d="M697 131C697 84.0558 735.056 46 782 46C828.944 46 867 84.0558 867 131C867 177.944 828.944 216 782 216C735.056 216 697 177.944 697 131Z" fill="#C40C35"/>
</svg>
