<svg width="1080" height="1080" viewBox="0 0 1080 1080" fill="none" xmlns="http://www.w3.org/2000/svg">
<path d="M211.615 495.437C261.546 495.437 302.023 454.709 302.023 404.468C302.023 354.228 261.546 313.5 211.615 313.5C161.684 313.5 121.208 354.228 121.208 404.468C121.208 454.709 161.684 495.437 211.615 495.437Z" fill="#072F73"/>
<path d="M974.339 244.57H220.887C213.466 244.57 207.451 250.589 207.451 258.013V738.383C207.451 745.807 213.466 751.825 220.887 751.825H974.339C981.759 751.825 987.775 745.807 987.775 738.383V258.013C987.775 250.589 981.759 244.57 974.339 244.57Z" fill="url(#paint0_linear_18020_2693)"/>
<path fill-rule="evenodd" clip-rule="evenodd" d="M744.444 315.273H239.283V312.431H744.444V315.273Z" fill="#1968F0"/>
<path fill-rule="evenodd" clip-rule="evenodd" d="M287.759 277.572C283.092 277.572 279.308 281.357 279.308 286.027C279.308 290.697 283.092 294.482 287.759 294.482C292.427 294.482 296.21 290.697 296.21 286.027C296.21 281.357 292.427 277.572 287.759 277.572ZM275.277 286.027C275.277 279.13 280.865 273.539 287.759 273.539C294.653 273.539 300.241 279.13 300.241 286.027C300.241 292.924 294.653 298.515 287.759 298.515C280.865 298.515 275.277 292.924 275.277 286.027Z" fill="#1968F0"/>
<path fill-rule="evenodd" clip-rule="evenodd" d="M323.905 277.572C319.238 277.572 315.454 281.357 315.454 286.027C315.454 290.697 319.238 294.482 323.905 294.482C328.573 294.482 332.357 290.697 332.357 286.027C332.357 281.357 328.573 277.572 323.905 277.572ZM311.423 286.027C311.423 279.13 317.012 273.539 323.905 273.539C330.799 273.539 336.387 279.13 336.387 286.027C336.387 292.924 330.799 298.515 323.905 298.515C317.012 298.515 311.423 292.924 311.423 286.027Z" fill="#1968F0"/>
<path fill-rule="evenodd" clip-rule="evenodd" d="M265.011 276.482L243.097 298.407L240.247 295.555L262.161 273.631L265.011 276.482Z" fill="#1968F0"/>
<path fill-rule="evenodd" clip-rule="evenodd" d="M262.161 298.407L240.247 276.482L243.097 273.631L265.011 295.555L262.161 298.407Z" fill="#1968F0"/>
<path d="M199.115 893.851C309.083 893.851 398.23 804.663 398.23 694.644C398.23 584.625 309.083 495.438 199.115 495.438C89.1467 495.438 -6.10352e-05 584.625 -6.10352e-05 694.644C-6.10352e-05 804.663 89.1467 893.851 199.115 893.851Z" fill="#F6F6F6"/>
<path d="M438.512 816.019C466.263 816.019 488.76 793.383 488.76 765.459C488.76 737.536 466.263 714.899 438.512 714.899C410.76 714.899 388.263 737.536 388.263 765.459C388.263 793.383 410.76 816.019 438.512 816.019Z" fill="#0195FA"/>
<path fill-rule="evenodd" clip-rule="evenodd" d="M762.74 568.282L703.883 509.426C700.988 506.531 700.988 501.836 703.883 498.941L729.602 473.222C724.664 463.899 720.672 454.206 717.628 444.285H681.245C677.151 444.285 673.831 440.965 673.831 436.871L673.831 353.635C673.831 349.541 677.151 346.221 681.245 346.221L717.627 346.221C720.672 336.299 724.664 326.605 729.603 317.281L703.885 291.563C700.99 288.668 700.99 283.974 703.885 281.078L762.742 222.222C765.637 219.327 770.331 219.327 773.226 222.222L798.944 247.94C808.267 243.001 817.961 239.009 827.882 235.965V199.581C827.882 195.486 831.201 192.167 835.296 192.167H918.532C922.626 192.167 925.945 195.486 925.945 199.581L925.945 235.964C935.867 239.008 945.561 243 954.885 247.939L980.603 222.221C983.498 219.326 988.192 219.326 991.088 222.221L1049.94 281.078C1052.84 283.973 1052.84 288.667 1049.94 291.562L1024.23 317.28C1029.17 326.604 1033.16 336.299 1036.2 346.221L1072.59 346.221C1076.68 346.221 1080 349.541 1080 353.635V436.871C1080 440.965 1076.68 444.285 1072.59 444.285L1036.2 444.285C1033.16 454.206 1029.17 463.9 1024.23 473.223L1049.95 498.942C1052.84 501.837 1052.84 506.531 1049.95 509.426L991.09 568.283C988.194 571.178 983.5 571.178 980.605 568.283L954.886 542.564C945.562 547.503 935.868 551.495 925.945 554.54V590.922C925.945 595.016 922.626 598.336 918.532 598.336H835.296C831.201 598.336 827.882 595.016 827.882 590.922V554.539C817.96 551.494 808.266 547.503 798.943 542.564L773.224 568.282C770.329 571.178 765.635 571.178 762.74 568.282ZM804.23 322.567C844.372 282.424 909.456 282.424 949.598 322.567C989.741 362.709 989.741 427.793 949.599 467.935C909.456 508.078 844.372 508.078 804.23 467.935C764.088 427.793 764.088 362.709 804.23 322.567Z" fill="#068AF7"/>
<path fill-rule="evenodd" clip-rule="evenodd" d="M446.011 611.898L422.286 561.565C421.119 559.089 422.18 556.135 424.656 554.968L446.651 544.6C445.652 537.619 445.331 530.618 445.658 523.688L422.762 515.462C420.186 514.537 418.848 511.698 419.774 509.122L438.589 456.754C439.514 454.178 442.353 452.84 444.929 453.766L467.824 461.992C471.983 456.438 476.685 451.241 481.9 446.492L471.532 424.496C470.365 422.02 471.426 419.067 473.902 417.9L524.235 394.174C526.711 393.007 529.665 394.068 530.832 396.544L541.199 418.539C548.182 417.539 555.184 417.219 562.115 417.546L570.339 394.655C571.265 392.079 574.103 390.741 576.679 391.666L629.047 410.481C631.623 411.407 632.961 414.245 632.036 416.821L623.811 439.712C629.365 443.87 634.562 448.573 639.311 453.787L661.305 443.42C663.781 442.253 666.734 443.314 667.901 445.79L691.627 496.124C692.794 498.6 691.733 501.553 689.257 502.72L667.264 513.087C668.264 520.07 668.584 527.072 668.257 534.004L691.141 542.226C693.717 543.151 695.055 545.99 694.13 548.566L675.315 600.934C674.39 603.51 671.551 604.848 668.975 603.922L646.09 595.7C641.931 601.255 637.228 606.451 632.013 611.201L642.38 633.193C643.547 635.669 642.486 638.623 640.01 639.79L589.676 663.515C587.2 664.682 584.247 663.621 583.08 661.145L572.713 639.152C565.731 640.151 558.73 640.472 551.799 640.144L543.576 663.034C542.65 665.61 539.812 666.948 537.236 666.023L484.868 647.208C482.292 646.282 480.954 643.444 481.879 640.867L490.103 617.978C484.549 613.819 479.352 609.116 474.602 603.901L452.608 614.268C450.132 615.436 447.178 614.374 446.011 611.898ZM534.124 480.409C560.874 467.8 592.781 479.264 605.39 506.014C617.999 532.764 606.535 564.67 579.785 577.279C553.035 589.888 521.129 578.425 508.52 551.675C495.911 524.925 507.374 493.018 534.124 480.409Z" fill="#F6F6F6"/>
<path fill-rule="evenodd" clip-rule="evenodd" d="M505.989 349.039L488.464 311.86C487.602 310.032 488.386 307.85 490.215 306.988L506.463 299.33C505.724 294.172 505.488 289.001 505.729 283.883L488.822 277.808C486.919 277.124 485.931 275.028 486.614 273.125L500.512 234.444C501.195 232.541 503.292 231.553 505.195 232.237L522.103 238.311C525.174 234.209 528.647 230.371 532.499 226.863L524.841 210.617C523.979 208.788 524.763 206.606 526.592 205.744L563.77 188.22C565.599 187.358 567.78 188.142 568.642 189.97L576.3 206.216C581.457 205.478 586.629 205.241 591.748 205.483L597.823 188.574C598.506 186.672 600.603 185.683 602.506 186.367L641.187 200.264C643.089 200.948 644.078 203.045 643.394 204.947L637.319 221.855C641.422 224.927 645.26 228.4 648.768 232.252L665.013 224.595C666.841 223.733 669.023 224.516 669.885 226.345L687.409 263.524C688.272 265.352 687.488 267.534 685.659 268.396L669.415 276.053C670.154 281.21 670.39 286.382 670.149 291.502L687.056 297.576C688.959 298.26 689.947 300.357 689.264 302.259L675.366 340.94C674.683 342.843 672.586 343.831 670.683 343.148L653.776 337.073C650.704 341.176 647.23 345.014 643.378 348.523L651.036 364.768C651.898 366.597 651.114 368.778 649.285 369.64L612.107 387.165C610.278 388.027 608.096 387.243 607.234 385.414L599.577 369.169C594.419 369.907 589.248 370.144 584.129 369.902L578.054 386.809C577.371 388.712 575.274 389.7 573.371 389.016L534.69 375.119C532.788 374.435 531.799 372.339 532.483 370.436L538.557 353.529C534.455 350.457 530.616 346.983 527.108 343.131L510.861 350.789C509.033 351.651 506.851 350.868 505.989 349.039ZM599.947 313.173C614.019 306.54 620.05 289.755 613.417 275.683C606.784 261.611 589.999 255.581 575.927 262.214C561.855 268.847 555.824 285.632 562.457 299.704C569.09 313.776 585.875 319.806 599.947 313.173Z" fill="#1E6BF1"/>
<path d="M400.882 647.802L104.968 568.512C97.4368 566.494 89.6948 570.967 87.6759 578.501L37.788 764.685C35.7691 772.22 40.2377 779.964 47.769 781.982L343.683 861.272C351.214 863.29 358.956 858.818 360.975 851.283L410.863 665.099C412.882 657.564 408.413 649.82 400.882 647.802Z" fill="#35DE90"/>
<path fill-rule="evenodd" clip-rule="evenodd" d="M111.685 598.913L379.862 670.771L336.96 830.883L68.783 759.026L111.685 598.913ZM113.681 602.372L72.2415 757.028L334.964 827.424L376.404 672.769L113.681 602.372Z" fill="white"/>
<path fill-rule="evenodd" clip-rule="evenodd" d="M201.872 793.224L244.043 635.84L246.771 636.571L204.6 793.955L201.872 793.224Z" fill="white"/>
<path fill-rule="evenodd" clip-rule="evenodd" d="M135.505 775.442L177.676 618.058L180.403 618.788L138.232 776.172L135.505 775.442Z" fill="white"/>
<path fill-rule="evenodd" clip-rule="evenodd" d="M268.229 811.004L310.4 653.62L313.127 654.351L270.957 811.735L268.229 811.004Z" fill="white"/>
<path fill-rule="evenodd" clip-rule="evenodd" d="M91.9631 677.971L357.413 749.098L356.682 751.826L91.232 680.699L91.9631 677.971Z" fill="white"/>
<path fill-rule="evenodd" clip-rule="evenodd" d="M102.505 638.626L367.955 709.753L367.224 712.482L101.774 641.355L102.505 638.626Z" fill="white"/>
<path fill-rule="evenodd" clip-rule="evenodd" d="M81.4211 717.316L346.871 788.443L346.14 791.172L80.69 720.045L81.4211 717.316Z" fill="white"/>
<path fill-rule="evenodd" clip-rule="evenodd" d="M239.898 746.041C231.796 754.015 222.705 759.559 213.052 756.973C203.184 754.329 196.421 749.715 191.411 744.107C186.46 738.565 183.31 732.144 180.534 726.12C180.261 725.528 179.992 724.94 179.725 724.358C174.438 712.824 170.065 703.283 157.226 699.843C151.327 698.262 142.911 700.554 133.009 705.757C123.282 710.869 112.793 718.426 103.077 726.299C93.3796 734.158 84.5403 742.26 78.1198 748.404C74.9116 751.474 72.3121 754.051 70.5167 755.857C69.6191 756.761 68.9228 757.471 68.4522 757.955C68.217 758.197 68.0381 758.382 67.9188 758.505L67.7849 758.644L67.7444 758.687L67.7427 758.688C67.7425 758.689 67.7425 758.689 66.2229 757.235L65.7019 756.737C63.6613 754.785 63.6618 754.784 63.6626 754.784L63.6751 754.77L63.7122 754.732L63.8549 754.583C63.9802 754.454 64.1651 754.262 64.4068 754.014C64.89 753.518 65.5999 752.793 66.512 751.875C68.336 750.039 70.9696 747.429 74.2167 744.322C80.7069 738.111 89.6668 729.897 99.5232 721.91C109.362 713.937 120.181 706.118 130.384 700.756C140.412 695.486 150.548 692.205 158.688 694.386C174.165 698.533 179.596 710.45 184.683 721.613C185.01 722.33 185.336 723.045 185.663 723.754C188.429 729.757 191.285 735.488 195.622 740.342C199.899 745.13 205.707 749.156 214.514 751.516C221.021 753.259 228.051 749.776 235.938 742.014C243.71 734.366 251.49 723.375 259.341 712.074C259.815 711.392 260.289 710.709 260.764 710.025C268.061 699.509 275.42 688.904 282.676 681.224C286.548 677.126 290.531 673.705 294.614 671.566C298.74 669.406 303.119 668.485 307.577 669.679C315.525 671.809 319.56 677.829 322.001 684.928C323.727 689.947 324.795 695.956 325.872 702.02C326.279 704.307 326.686 706.601 327.131 708.853C328.801 717.306 331.037 725.551 335.548 732.423C339.991 739.188 346.742 744.775 357.796 747.737L356.333 753.194C343.952 749.876 336.037 743.458 330.828 735.525C325.689 727.698 323.29 718.55 321.591 709.95C321.088 707.404 320.649 704.933 320.226 702.551C319.182 696.674 318.234 691.342 316.661 686.767C314.514 680.523 311.476 676.573 306.115 675.136C303.389 674.406 300.482 674.869 297.232 676.571C293.939 678.296 290.455 681.215 286.78 685.104C279.83 692.461 272.701 702.731 265.306 713.385C264.864 714.022 264.421 714.659 263.978 715.298C256.195 726.501 248.116 737.954 239.898 746.041Z" fill="#0096FA"/>
<defs>
<linearGradient id="paint0_linear_18020_2693" x1="126.109" y1="114.033" x2="1042.98" y2="860.389" gradientUnits="userSpaceOnUse">
<stop stop-color="white"/>
<stop offset="0.14" stop-color="#E3ECFD"/>
<stop offset="0.29" stop-color="#CDDEFB"/>
<stop offset="0.39" stop-color="#C5D9FB"/>
<stop offset="0.61" stop-color="#C3D7FA"/>
<stop offset="0.7" stop-color="#BCD3FA"/>
<stop offset="0.77" stop-color="#AFCBF9"/>
<stop offset="0.82" stop-color="#9EBFF8"/>
<stop offset="0.87" stop-color="#88B0F7"/>
<stop offset="0.91" stop-color="#6C9EF5"/>
<stop offset="0.95" stop-color="#4B88F3"/>
<stop offset="0.98" stop-color="#2570F0"/>
<stop offset="0.99" stop-color="#1968F0"/>
</linearGradient>
</defs>
</svg>
