<svg width="1079" height="1080" viewBox="0 0 1079 1080" fill="none" xmlns="http://www.w3.org/2000/svg"><path d="M720.741 550.458a3.88 3.88 0 0 0 3.878-3.882 3.88 3.88 0 0 0-3.878-3.882 3.88 3.88 0 0 0-3.879 3.882 3.88 3.88 0 0 0 3.879 3.882Z" fill="#E7EEF1"/><path d="M892.651 770.777s-199.298 265.413-424.45 301.533c-225.151 36.11-328.644-60.99-320.88-164.862 7.764-103.875 41.382-178.411-25.853-259.722-67.235-81.311-160.48-146.834-93.166-347.876C95.614 98.808 281.869 35.588 400.966 55.916c119.098 20.328 129.346 133.283 269.095 162.622 139.75 29.34 315.756-24.8 362.339 121.967 46.58 146.767-46.583 320.367-139.749 430.272Z" fill="#B9CBD3" style="mix-blend-mode:luminosity" opacity=".16"/><path d="M595.936 377.949a3.88 3.88 0 0 0 3.878-3.882 3.88 3.88 0 0 0-3.878-3.882 3.88 3.88 0 0 0-3.878 3.882 3.88 3.88 0 0 0 3.878 3.882Zm243.468-76.502a3.878 3.878 0 0 0 4.906-2.455 3.878 3.878 0 1 0-7.359-2.456 3.884 3.884 0 0 0 2.453 4.911Z" fill="#E7EEF1"/><path fill-rule="evenodd" clip-rule="evenodd" d="M862.217 263.886c-5.997 0-10.859 4.867-10.859 10.87 0 6.003 4.862 10.869 10.859 10.869 5.998 0 10.86-4.866 10.86-10.869s-4.862-10.87-10.86-10.87Zm-12.41 10.87c0-6.861 5.556-12.423 12.41-12.423 6.855 0 12.411 5.562 12.411 12.423 0 6.86-5.556 12.422-12.411 12.422-6.854 0-12.41-5.562-12.41-12.422ZM600.72 436.397c-5.997 0-10.859 4.866-10.859 10.869s4.862 10.87 10.859 10.87c5.998 0 10.86-4.867 10.86-10.87 0-6.003-4.862-10.869-10.86-10.869Zm-12.41 10.869c0-6.861 5.556-12.422 12.41-12.422 6.855 0 12.411 5.561 12.411 12.422 0 6.861-5.556 12.422-12.411 12.422-6.854 0-12.41-5.561-12.41-12.422ZM792.619 4.992a3.036 3.036 0 0 0-4.292-.204l-8.417 7.66a3.044 3.044 0 0 0-.204 4.296l7.654 8.425a3.036 3.036 0 0 0 4.292.204l8.416-7.66a3.043 3.043 0 0 0 .204-4.297l-7.653-8.424Zm-5.597-1.64a4.975 4.975 0 0 1 7.032.334l7.653 8.425a4.986 4.986 0 0 1-.334 7.037l-8.417 7.66a4.974 4.974 0 0 1-7.031-.334l-7.653-8.424a4.985 4.985 0 0 1 .334-7.038l8.416-7.66ZM670.786 555.239a3.036 3.036 0 0 0-4.292-.205l-8.417 7.661a3.044 3.044 0 0 0-.204 4.296l7.654 8.424a3.036 3.036 0 0 0 4.292.204l8.416-7.66a3.043 3.043 0 0 0 .204-4.296l-7.653-8.424Zm-5.597-1.641a4.975 4.975 0 0 1 7.032.335l7.653 8.424a4.986 4.986 0 0 1-.334 7.038l-8.417 7.66a4.974 4.974 0 0 1-7.031-.334l-7.653-8.424a4.985 4.985 0 0 1 .334-7.038l8.416-7.661Z" fill="#E7EEF1"/><path d="m1024.27 259.506-3.68-8.332a3.207 3.207 0 0 0-4.23-1.638l-8.32 3.681a3.209 3.209 0 0 0-1.64 4.233l3.68 8.332a3.204 3.204 0 0 0 4.23 1.638l8.32-3.682a3.216 3.216 0 0 0 1.64-4.232ZM772.278 46.176l-6.123-6.739a3.204 3.204 0 0 0-4.529-.215l-6.734 6.128a3.212 3.212 0 0 0-.215 4.533l6.123 6.74a3.204 3.204 0 0 0 4.529.215l6.734-6.128a3.212 3.212 0 0 0 .215-4.534Zm-65.374 585.939-6.123-6.74a3.205 3.205 0 0 0-4.529-.215l-6.734 6.128a3.212 3.212 0 0 0-.215 4.534l6.123 6.739a3.204 3.204 0 0 0 4.529.216l6.733-6.128a3.212 3.212 0 0 0 .216-4.534Zm-53.488-166.561-6.122-6.74a3.206 3.206 0 0 0-4.53-.215l-6.733 6.128a3.212 3.212 0 0 0-.215 4.534l6.122 6.739a3.205 3.205 0 0 0 4.53.216l6.733-6.128a3.212 3.212 0 0 0 .215-4.534Z" fill="#E7EEF1"/><path opacity=".3" d="M821.438 68.222c0-8.576 6.945-15.528 15.513-15.528H1027.2c8.57 0 15.51 6.952 15.51 15.528v123.981c0 8.576-6.94 15.528-15.51 15.528H836.951c-8.568 0-15.513-6.952-15.513-15.528V68.222Z" fill="#C3EEF4"/><path opacity=".3" d="M834.081 84.041c0-8.575 6.946-15.527 15.514-15.527h190.245c8.57 0 15.52 6.952 15.52 15.528v123.981c0 8.576-6.95 15.528-15.52 15.528H849.595c-8.568 0-15.514-6.952-15.514-15.528V84.042Z" fill="#C3EEF4"/><path d="M811.953 55.565c0-8.576 6.946-15.528 15.514-15.528h190.253c8.56 0 15.51 6.952 15.51 15.528v123.981c0 8.576-6.95 15.528-15.51 15.528H827.467c-8.568 0-15.514-6.952-15.514-15.528V55.565Z" fill="#F8FBFB"/><path d="M811.953 55.565c0-8.576 6.946-15.528 15.514-15.528h190.253c8.56 0 15.51 6.952 15.51 15.528V74.84H811.953V55.565Z" fill="#202C44"/><path d="M840.403 57.44a4.744 4.744 0 0 1-4.741 4.746 4.744 4.744 0 0 1-4.742-4.746 4.744 4.744 0 0 1 4.742-4.746 4.744 4.744 0 0 1 4.741 4.746Z" fill="#FF5A60"/><path d="M853.047 57.44a4.744 4.744 0 0 1-4.742 4.746 4.744 4.744 0 0 1-4.742-4.746 4.744 4.744 0 0 1 4.742-4.746 4.744 4.744 0 0 1 4.742 4.746Z" fill="#F9B42F"/><path d="M865.692 57.44a4.744 4.744 0 0 1-4.741 4.746 4.744 4.744 0 0 1-4.742-4.746 4.744 4.744 0 0 1 4.742-4.746 4.744 4.744 0 0 1 4.741 4.746Z" fill="#4DCB7B"/><path d="M1015.93 93.824h-60.234a4.656 4.656 0 0 0-4.654 4.659v66.619a4.657 4.657 0 0 0 4.654 4.659h60.234c2.57 0 4.66-2.086 4.66-4.659v-66.62a4.662 4.662 0 0 0-4.66-4.658Z" fill="#fff"/><path fill-rule="evenodd" clip-rule="evenodd" d="M957.619 106.482a2.91 2.91 0 0 1 2.909-2.912h50.582c1.6 0 2.9 1.304 2.9 2.912 0 1.608-1.3 2.911-2.9 2.911h-50.582a2.91 2.91 0 0 1-2.909-2.911Zm-.001 9.492a2.91 2.91 0 0 1 2.909-2.912h50.573a2.91 2.91 0 0 1 2.91 2.912c0 1.608-1.3 2.911-2.91 2.911h-50.573a2.91 2.91 0 0 1-2.909-2.911Zm0 9.492a2.91 2.91 0 0 1 2.909-2.911h50.573c1.61 0 2.91 1.303 2.91 2.911a2.91 2.91 0 0 1-2.91 2.912h-50.573a2.91 2.91 0 0 1-2.909-2.912Zm34.773 15.82a2.91 2.91 0 0 1 2.908-2.911h15.801a2.91 2.91 0 0 1 2.91 2.911 2.91 2.91 0 0 1-2.91 2.912h-15.801a2.91 2.91 0 0 1-2.908-2.912Zm0 9.493a2.91 2.91 0 0 1 2.908-2.912h12.641a2.91 2.91 0 0 1 2.91 2.912c0 1.608-1.3 2.911-2.91 2.911h-12.641a2.91 2.91 0 0 1-2.908-2.911Zm0 9.492a2.91 2.91 0 0 1 2.908-2.912h6.321a2.91 2.91 0 0 1 2.91 2.912c0 1.608-1.3 2.911-2.91 2.911h-6.321a2.91 2.91 0 0 1-2.908-2.911Z" fill="#D2DFE6"/><path d="M986.38 161.949h-23.259a.967.967 0 0 1-.966-.967v-23.57a.967.967 0 1 1 1.932 0v22.603h22.293a.967.967 0 0 1 0 1.934Z" fill="#B9CBD3"/><path d="M967.358 158.212a1.206 1.206 0 0 1-1.208-1.208v-9.016a1.21 1.21 0 0 1 1.208-1.208 1.206 1.206 0 0 1 1.207 1.208v9.016a1.207 1.207 0 0 1-1.207 1.208Z" fill="#C3EEF4"/><path d="M972.656 158.211a1.206 1.206 0 0 1-1.208-1.208v-13.738a1.206 1.206 0 1 1 2.415 0v13.738a1.206 1.206 0 0 1-1.207 1.208Z" fill="#87DDE8"/><path d="M983.251 158.211a1.208 1.208 0 0 1-1.207-1.209v-15.255a1.208 1.208 0 1 1 2.415 0v15.255a1.21 1.21 0 0 1-.353.856 1.187 1.187 0 0 1-.855.353Z" fill="#2CC3D5"/><path d="M977.953 158.212a1.207 1.207 0 0 1-1.207-1.209v-11.079a1.208 1.208 0 1 1 2.415 0v11.079a1.205 1.205 0 0 1-1.208 1.209Z" fill="#C3EEF4"/><path d="M938.005 93.824H829.231a4.637 4.637 0 0 0-4.634 4.639v67.806a4.636 4.636 0 0 0 4.634 4.638h108.774a4.636 4.636 0 0 0 4.634-4.638V98.463a4.637 4.637 0 0 0-4.634-4.639Z" fill="#E7EEF1"/><path fill-rule="evenodd" clip-rule="evenodd" d="M831.143 119.031c0-1.602 1.296-2.9 2.896-2.9h6.296a2.898 2.898 0 0 1 2.896 2.9 2.898 2.898 0 0 1-2.896 2.899h-6.296a2.897 2.897 0 0 1-2.896-2.899Zm12.591 0c0-1.602 1.297-2.9 2.897-2.9h31.478c1.6 0 2.896 1.298 2.896 2.9a2.897 2.897 0 0 1-2.896 2.899h-31.478a2.898 2.898 0 0 1-2.897-2.899Z" fill="#2CC3D5"/><path fill-rule="evenodd" clip-rule="evenodd" d="M831.143 144.237a2.897 2.897 0 0 1 2.896-2.899h6.296a2.898 2.898 0 0 1 2.896 2.899 2.898 2.898 0 0 1-2.896 2.899h-6.296a2.897 2.897 0 0 1-2.896-2.899Zm12.591 0a2.898 2.898 0 0 1 2.897-2.899h31.478c1.6 0 2.896 1.298 2.896 2.899a2.897 2.897 0 0 1-2.896 2.899h-31.478a2.898 2.898 0 0 1-2.897-2.899Z" fill="#F9B42F"/><path fill-rule="evenodd" clip-rule="evenodd" d="M831.143 156.838a2.897 2.897 0 0 1 2.896-2.899h6.296a2.898 2.898 0 0 1 2.896 2.899 2.898 2.898 0 0 1-2.896 2.899h-6.296a2.897 2.897 0 0 1-2.896-2.899Zm12.591 0a2.898 2.898 0 0 1 2.897-2.899h59.808c1.6 0 2.897 1.298 2.897 2.899a2.898 2.898 0 0 1-2.897 2.899h-59.808a2.898 2.898 0 0 1-2.897-2.899Z" fill="#55CFFF"/><path fill-rule="evenodd" clip-rule="evenodd" d="M831.143 131.635a2.897 2.897 0 0 1 2.896-2.899h12.591c1.6 0 2.897 1.298 2.897 2.899a2.898 2.898 0 0 1-2.897 2.899h-12.591a2.897 2.897 0 0 1-2.896-2.899Zm22.036 0a2.898 2.898 0 0 1 2.896-2.899h28.331a2.898 2.898 0 0 1 2.896 2.899 2.898 2.898 0 0 1-2.896 2.899h-28.331a2.898 2.898 0 0 1-2.896-2.899Z" fill="#B97CE8"/><path d="M835.1 108.348a.599.599 0 0 1 .211.519.622.622 0 0 1-.043.289.619.619 0 0 1-.168.239.717.717 0 0 1-.476.18h-.887a1.435 1.435 0 0 1-1.141-.416 1.441 1.441 0 0 1-.423-1.139v-1.597a1.117 1.117 0 0 0-.127-.603.64.64 0 0 0-.465-.211.707.707 0 0 1-.518-.212.806.806 0 0 1-.169-.518.721.721 0 0 1 .169-.497.76.76 0 0 1 .518-.222.633.633 0 0 0 .465-.212 1.06 1.06 0 0 0 .127-.602v-1.64a1.529 1.529 0 0 1 .423-1.142c.312-.28.722-.424 1.141-.402h.887a.707.707 0 0 1 .476.169.774.774 0 0 1 0 1.058.77.77 0 0 1-.476.169h-.169a.482.482 0 0 0-.317.095.497.497 0 0 0-.105.36v1.565c.005.31-.095.612-.286.857-.157.22-.384.381-.644.455.261.065.49.223.644.444.191.244.291.547.286.857v1.554a.488.488 0 0 0 .105.36.47.47 0 0 0 .317.095h.169a.72.72 0 0 1 .476.148Zm8.063-1.471a.824.824 0 0 1-.254.592.824.824 0 0 1-.613.269.833.833 0 0 1-.613-.269l-1.257-1.3-1.237 1.311a.828.828 0 0 1-.613.268.833.833 0 0 1-.612-.268.81.81 0 0 1-.254-.592.864.864 0 0 1 .264-.603l1.332-1.322-1.226-1.195a.874.874 0 0 1-.264-.614.81.81 0 0 1 .253-.592.776.776 0 0 1 .939-.183c.108.053.203.13.276.225l1.142 1.164 1.151-1.164a.896.896 0 0 1 .635-.296.867.867 0 0 1 .845.836.899.899 0 0 1-.275.624l-1.215 1.195 1.331 1.322a.869.869 0 0 1 .265.592Zm5.779-2.57a.673.673 0 0 1 .18.497.776.776 0 0 1-.18.518.706.706 0 0 1-.507.211.66.66 0 0 0-.476.212 1.108 1.108 0 0 0-.126.603v1.629a1.438 1.438 0 0 1-.412 1.142 1.418 1.418 0 0 1-1.142.412h-.877a.744.744 0 0 1-.496-.179.659.659 0 0 1-.201-.529.62.62 0 0 1 .201-.518.74.74 0 0 1 .496-.18h.159a.482.482 0 0 0 .317-.095.486.486 0 0 0 .105-.36v-1.555a1.412 1.412 0 0 1 .275-.857c.155-.22.383-.378.645-.444a1.19 1.19 0 0 1-.645-.455 1.407 1.407 0 0 1-.275-.856v-1.523a.493.493 0 0 0-.105-.36.476.476 0 0 0-.317-.095h-.159a.8.8 0 0 1-.496-.169.795.795 0 0 1 0-1.058.746.746 0 0 1 .496-.169h.877c.419-.023.829.122 1.141.402a1.542 1.542 0 0 1 .413 1.142v1.639c-.019.209.025.419.126.603a.66.66 0 0 0 .476.212.758.758 0 0 1 .507.18Z" fill="#B9CBD3"/><path d="M563.734 1065.11V572.738c0-11.02-84.632-20.202-189.217-20.202-104.586 0-188.897 9.182-188.897 20.202v492.372h378.114Z" fill="#517BF2"/><path d="M200.987 1065.11c-2.156-102.246 12.018-338.975 12.018-338.975-10.734 16.804-27.523 59.687-27.523 59.687v279.428l15.505-.14Z" fill="#496FDA"/><path fill-rule="evenodd" clip-rule="evenodd" d="M572.816 659.423c-35.04 42.491-35.027 42.502-35.013 42.513l.121.1.256.211.831.676c.693.562 1.664 1.344 2.899 2.325a613.42 613.42 0 0 0 10.471 8.127c8.941 6.795 21.724 16.185 37.455 26.853 31.242 21.188 75.144 48.127 124.36 69.674 48.588 21.271 106.336 39.068 164.163 37.869 60.065-1.244 120.185-23.243 165.871-79.924 19.09-23.682 15.38-58.37-8.28-77.476s-58.315-15.396-77.403 8.286c-22.112 27.433-49.462 38.262-82.466 38.946-35.243.73-76.163-10.445-117.769-28.659-40.977-17.939-78.794-40.999-106.723-59.94-13.854-9.396-25.02-17.603-32.63-23.388a503.996 503.996 0 0 1-8.59-6.663 261.731 261.731 0 0 1-2.491-2.003l-.042-.034m0 0-.006-.005-.012-.011c-23.445-19.334-58.112-16.004-77.453 7.45-19.353 23.467-16.035 58.194 7.411 77.564l35.04-42.491" fill="#FDC2BF"/><path d="M975.488 529.231a22.373 22.373 0 0 1-4.551-14.686 64.472 64.472 0 0 1 6.625-31.238 156.455 156.455 0 0 1 20.228-27.554 147.125 147.125 0 0 0 14.56-18.924 31.84 31.84 0 0 0 4.61-17.057 19.77 19.77 0 0 0-1.83-9.085 19.833 19.833 0 0 0-5.76-7.266 31.65 31.65 0 0 0-20.228-6.056 50.647 50.647 0 0 0-21.897 4.744c-6.743 3.162-15.762 8.074-27.056 14.736a39.362 39.362 0 0 1-17.65 5.854 16.109 16.109 0 0 1-13.098-6.813 25.753 25.753 0 0 1-5.36-16.351 23.821 23.821 0 0 1 2.427-11.203 26.868 26.868 0 0 1 7.535-8.63 123.462 123.462 0 0 1 37.373-20.186 132.703 132.703 0 0 1 42.531-7.166 101.026 101.026 0 0 1 41.063 8.074 67.445 67.445 0 0 1 28.32 22.256 53.209 53.209 0 0 1 10.12 31.793 57.17 57.17 0 0 1-5.37 24.778 81.348 81.348 0 0 1-12.69 19.48c-4.92 5.517-11.55 12.246-19.87 20.186a212.172 212.172 0 0 0-20.99 21.498 40.814 40.814 0 0 0-8.85 19.278 18.898 18.898 0 0 1-6.069 10.85 16.913 16.913 0 0 1-11.227 3.835 15.705 15.705 0 0 1-12.896-5.147Zm-9.002 78.826a33.316 33.316 0 0 1-8.942-22.709 33.316 33.316 0 0 1 8.942-22.709 30.355 30.355 0 0 1 10.291-6.821 30.395 30.395 0 0 1 12.163-2.162 29.667 29.667 0 0 1 12 2.169 29.659 29.659 0 0 1 10.1 6.814 33.305 33.305 0 0 1 8.94 22.709c0 8.425-3.19 16.538-8.94 22.709a29.659 29.659 0 0 1-10.1 6.814 29.65 29.65 0 0 1-12 2.169c-4.16.119-8.3-.616-12.163-2.162a30.355 30.355 0 0 1-10.291-6.821Z" fill="#2CC3D5"/><path d="M535.326 384.442c3.224-39.247-14.529-72.739-39.651-74.807-25.122-2.067-48.101 28.073-51.325 67.321-3.224 39.247 14.528 72.739 39.651 74.807 25.122 2.067 48.101-28.073 51.325-67.321Z" fill="#F66689"/><path d="M418.126 580.549c.685-17.99-16.451-33.249-38.273-34.08-21.822-.832-40.067 13.079-40.751 31.069-.684 17.991 16.451 33.249 38.273 34.081 21.822.831 40.067-13.079 40.751-31.07Z" fill="#FDC2BF"/><path fill-rule="evenodd" clip-rule="evenodd" d="M342.058 577.651c-.602 15.845 14.678 30.218 35.43 31.009 20.751.79 37.079-12.378 37.682-28.223.602-15.845-14.678-30.218-35.43-31.009-20.751-.79-37.079 12.378-37.682 28.223Zm35.205 36.927c-22.893-.872-41.883-17.016-41.118-37.152.766-20.136 20.928-34.789 43.82-33.916 22.893.872 41.883 17.016 41.118 37.152-.766 20.136-20.928 34.788-43.82 33.916Z" fill="#fff"/><path d="M379.103 485.366h6.376c8.614.37 17.242-.2 25.733-1.698l-.917 23.553-1.835 51.148a26.089 26.089 0 0 1-8.323 18.134 26.044 26.044 0 0 1-18.695 6.935h-6.009a25.998 25.998 0 0 1-18.131-8.318 26.051 26.051 0 0 1-6.915-18.726l1.927-49.953.917-24.564a121.211 121.211 0 0 0 25.872 3.489Z" fill="#FDC2BF"/><path d="m409.975 517.506-.733 21.534s-5.826-10.882-28.624-11.892c-22.798-1.01-29.449 10.744-29.449 10.744l.963-25.895 58.119 1.147-.276 4.362Z" fill="#F4B1AF"/><path d="m266.627 261.584-4.908 128.925a120.932 120.932 0 0 0 7.452 46.565 120.828 120.828 0 0 0 24.69 40.165 120.725 120.725 0 0 0 38.169 27.648 120.65 120.65 0 0 0 45.834 10.92h6.376a120.688 120.688 0 0 0 46.571-7.417 120.758 120.758 0 0 0 40.185-24.702 120.87 120.87 0 0 0 27.67-38.221 120.98 120.98 0 0 0 10.939-45.913l4.909-128.925a121.004 121.004 0 0 0-32.254-86.556 120.775 120.775 0 0 0-83.892-38.512l-6.422-.23a120.683 120.683 0 0 0-46.557 7.431 120.758 120.758 0 0 0-40.168 24.705 120.888 120.888 0 0 0-27.659 38.215 120.98 120.98 0 0 0-10.935 45.902Z" fill="#FDC2BF"/><path d="M293.555 169.711c22.935 31.176 29.357 12.305 51.283 44.307 5 116.62-39.678 130.853-39.678 130.853l-14.174 46.419-12.156-1.194-2.523 69.559s-50.137-62.351-51.559-181.818c-1.055-89.117 42.798-114.829 68.807-108.126Z" fill="#2C2A46"/><path d="m290.434 401.021 3.762-65.84s-22.523-10.835-28.394 10.193c-5.872 21.028 4.633 50.046 24.632 55.647Z" fill="#EFB8C2"/><path d="M316.535 234.77s51.605 57.025 129.723 70.982l-19.908-17.906s53.348 24.977 130.411 26.217a117.422 117.422 0 0 0-3.559-55.332 117.323 117.323 0 0 0-28.551-47.514s33.899 34.618 47.293 59.687c0 0-6.789-110.192-147.704-139.669-140.915-29.476-159.814 61.295-163.163 100.551-3.348 39.256 55.458 2.984 55.458 2.984Z" fill="#2C2A46"/><path d="M277.178 308.185a154.71 154.71 0 0 1 45.233-109.329 154.425 154.425 0 0 1 109.214-45.308c45.871 0 84.311 26.309 112.613 58.173-26.33-47.659-74.127-86.18-132.383-86.18-85.32 0-159.356 80.073-159.356 165.288l24.679 17.356Z" fill="#607B99"/><path d="m563.825 700.056-5.779-3.077c-1.56-9.55-3.441-19.696-5.826-29.66 0 0 0 9.964.275 26.63l-18.99-10.193a103.25 103.25 0 0 0 9.816 51.286 96.777 96.777 0 0 1 9.633 42.883c0 99.127-.596 234.845-6.422 274.245 10.092-2.35 16.101-4.92 17.11-7.63V747.851s-.275-5.371-1.101-13.774l1.101-1.79.183-32.231Z" fill="#496FDA"/><path fill-rule="evenodd" clip-rule="evenodd" d="M456.531 627.033c3.381-37.885 36.805-65.854 74.655-62.47 30.287 2.708 56.867 10.364 79.871 25.741 22.109 14.779 35.402 33.35 43.058 44.045l.069.097 1.367 1.911c7.513 10.504 11.183 15.636 17.052 21.164 5.442 5.126 14.546 12.036 32.17 19.294 35.143 14.472 51.911 54.718 37.453 89.894-14.458 35.175-54.667 51.959-89.81 37.487-31.825-13.105-55.467-28.795-74.121-46.366-16.195-15.254-27.317-30.951-34.022-40.414-.699-.987-1.35-1.905-1.954-2.749-5.275-7.369-7.197-9.378-7.665-9.803.167.11.263.157.269.153.007-.004-.077-.059-.271-.155-.169-.153-.146-.096-.022-.013l.018.012c-1.049-.515-5.281-2.172-15.705-3.104-37.85-3.384-65.793-36.839-62.412-74.724Zm78.117 77.828.006.003a.002.002 0 0 1-.002-.002l-.004-.001Z" fill="#517BF2"/><path fill-rule="evenodd" clip-rule="evenodd" d="m247.378 672.494-.014.015-.002.003a282.394 282.394 0 0 0-1.464 1.601 450.37 450.37 0 0 0-4.98 5.59 704.563 704.563 0 0 0-17.95 21.329c-14.797 18.282-33.459 43.082-49.878 70.015-16.763 27.497-29.34 54.246-34.559 76.79-5.248 22.675-1.337 32.462 2.029 36.911l.009.012c3.459 4.576 13.26 12.514 33.685 20.952 19.294 7.971 42.711 14.221 66.542 18.928 23.56 4.655 45.975 7.505 62.602 9.185 8.266.835 14.985 1.37 19.56 1.691a413.01 413.01 0 0 0 6.358.4 68.996 68.996 0 0 1 .259.013c30.349 1.425 53.808 27.197 52.405 57.58-1.405 30.401-27.162 53.901-57.53 52.491l2.514-54.392C324.45 1046 324.44 1046 324.43 1046h-.087l-.173-.01c-.08-.01-.175-.01-.285-.02-.079 0-.165 0-.259-.01-.448-.02-1.067-.06-1.847-.1-1.56-.09-3.765-.23-6.539-.42a766.599 766.599 0 0 1-22.899-1.98c-18.931-1.91-44.945-5.2-72.863-10.71-27.648-5.46-58.76-13.42-87.226-25.18-27.331-11.292-58.517-28.609-79.46-56.303l-.01-.012c-31.028-41.025-30.51-89.359-21.5-128.289 9.042-39.064 28.379-77.406 47.831-109.315 19.797-32.474 41.65-61.396 58.315-81.984a813.3 813.3 0 0 1 20.783-24.691 575.149 575.149 0 0 1 6.164-6.918c.741-.817 1.331-1.462 1.756-1.924l.513-.556.161-.173.078-.084c.01-.01.018-.019 39.127 36.535l-39.109-36.554c20.749-22.24 55.581-23.433 77.8-2.665 22.209 20.758 23.41 55.6 2.691 77.842l-.005.005-.009.01Z" fill="#FDC2BF"/><path fill-rule="evenodd" clip-rule="evenodd" d="m260.718 678.109-.008.01-.046.057-.39.49c-.371.467-.96 1.211-1.746 2.214a730.431 730.431 0 0 0-6.889 8.943 1003.99 1003.99 0 0 0-23.646 32.519c-19.09 27.383-41.092 61.876-56.502 94.356-16.301 34.358-57.343 48.985-91.67 32.669-34.326-16.317-48.94-57.397-32.638-91.755 20.14-42.451 47.036-84.083 67.957-114.092a1142.898 1142.898 0 0 1 26.926-37.028 881.354 881.354 0 0 1 8.185-10.623 555.379 555.379 0 0 1 2.994-3.786l.201-.252.103-.127c.004-.006.008-.011 52.219 42.1l-52.21-42.111c23.843-29.617 67.159-34.279 96.749-10.413 29.581 23.859 34.244 67.198 10.423 96.814l-.006.008-.006.007Z" fill="#517BF2"/><path d="M409.425 498.038c10.741 0 19.449-6.64 19.449-14.83 0-8.19-8.708-14.83-19.449-14.83-10.742 0-19.449 6.64-19.449 14.83 0 8.19 8.707 14.83 19.449 14.83Z" fill="#607B99"/><path fill-rule="evenodd" clip-rule="evenodd" d="M299.242 445.975c-16.426-23.338-18.853-49.336-18.853-60.472h9.174c0 10.167 2.275 34.008 17.179 55.184 14.697 20.882 42.188 39.903 94.15 39.903v9.182c-54.551 0-85.018-20.166-101.65-43.797Z" fill="#607B99"/><path d="M270.941 426.936c25.161-1.532 43.621-34.638 41.233-73.945-2.388-39.307-24.721-69.931-49.881-68.399-25.161 1.531-43.622 34.638-41.234 73.945 2.389 39.307 24.721 69.93 49.882 68.399Z" fill="#F66689"/><path opacity=".3" d="M626.212 306.681c0-5.462 4.423-9.889 9.879-9.889h153.132c5.456 0 9.879 4.427 9.879 9.889v101.358c0 5.461-4.423 9.888-9.879 9.888H636.091c-5.456 0-9.879-4.427-9.879-9.888V306.681Z" fill="#C3EEF4"/><path opacity=".3" d="M636.091 319.042c0-5.461 4.423-9.889 9.879-9.889h153.132c5.456 0 9.879 4.428 9.879 9.889V420.4c0 5.461-4.423 9.889-9.879 9.889H645.97c-5.456 0-9.879-4.428-9.879-9.889V319.042Z" fill="#C3EEF4"/><path d="M618.802 296.793c0-5.461 4.423-9.889 9.879-9.889h153.132c5.456 0 9.879 4.428 9.879 9.889v101.358c0 5.461-4.423 9.889-9.879 9.889H628.681c-5.456 0-9.879-4.428-9.879-9.889V296.793Z" fill="#F8FBFB"/><path d="M618.802 296.793c0-5.461 4.423-9.889 9.879-9.889h153.132c5.456 0 9.879 4.428 9.879 9.889v17.305h-172.89v-17.305Z" fill="#202C44"/><path d="M641.032 300.5a3.707 3.707 0 0 1-3.705 3.708 3.707 3.707 0 0 1-3.705-3.708 3.707 3.707 0 0 1 3.705-3.708 3.707 3.707 0 0 1 3.705 3.708Z" fill="#FF5A60"/><path d="M650.909 300.5a3.707 3.707 0 0 1-3.705 3.708 3.707 3.707 0 0 1-3.705-3.708 3.707 3.707 0 0 1 3.705-3.708 3.707 3.707 0 0 1 3.705 3.708Z" fill="#F9B42F"/><path d="M660.789 300.5a3.706 3.706 0 1 1-7.409 0 3.706 3.706 0 1 1 7.409 0Z" fill="#4DCB7B"/><path fill-rule="evenodd" clip-rule="evenodd" d="M697.415 355.099V341.11h3.494v13.989h-3.494Zm0 26.23v-17.486h3.494v17.486h-3.494Z" fill="#DEE8EC"/><path d="M674.705 329.569a4.194 4.194 0 0 1 4.193-4.196h44.024a4.194 4.194 0 0 1 4.192 4.196v9.093a4.195 4.195 0 0 1-4.192 4.197h-44.024a4.195 4.195 0 0 1-4.193-4.197v-9.093Zm0 24.482a4.195 4.195 0 0 1 4.193-4.197h44.024a4.195 4.195 0 0 1 4.192 4.197v9.092a4.195 4.195 0 0 1-4.192 4.197h-44.024a4.195 4.195 0 0 1-4.193-4.197v-9.092Zm0 24.48a4.195 4.195 0 0 1 4.193-4.197h44.024a4.195 4.195 0 0 1 4.192 4.197v9.092a4.195 4.195 0 0 1-4.192 4.197h-44.024a4.195 4.195 0 0 1-4.193-4.197v-9.092Zm-45.421.002a4.195 4.195 0 0 1 4.193-4.197h30.048a4.195 4.195 0 0 1 4.193 4.197v9.092a4.195 4.195 0 0 1-4.193 4.197h-30.048a4.195 4.195 0 0 1-4.193-4.197v-9.092Z" fill="#E7EEF1"/><path fill-rule="evenodd" clip-rule="evenodd" d="M646.754 332.369c0-.966.782-1.749 1.747-1.749h31.445v3.497h-29.698v12.24h-3.494v-13.988Z" fill="#DEE8EC"/><path d="M629.284 347.056a4.195 4.195 0 0 1 4.193-4.196h30.048a4.195 4.195 0 0 1 4.193 4.196v16.088a4.195 4.195 0 0 1-4.193 4.196h-30.048a4.195 4.195 0 0 1-4.193-4.196v-16.088Z" fill="#E7EEF1"/><path d="M776.029 332.367H741.09a3.496 3.496 0 0 0-3.494 3.497v48.961a3.496 3.496 0 0 0 3.494 3.497h34.939a3.496 3.496 0 0 0 3.494-3.497v-48.961a3.496 3.496 0 0 0-3.494-3.497Z" fill="#fff"/><path d="M737.596 332.367a3.495 3.495 0 0 1 3.494-3.497h34.939a3.495 3.495 0 0 1 3.494 3.497v3.497h-41.927v-3.497Z" fill="#202C44"/><path fill-rule="evenodd" clip-rule="evenodd" d="M779.523 378.18h-41.927v-.699h41.927v.699Z" fill="#F5F8F9"/><path d="M751.571 366.611a2.768 2.768 0 0 1 2.767-2.769h18.924a2.768 2.768 0 0 1 2.767 2.769v3.764a.462.462 0 0 1-.461.462h-21.23a2.768 2.768 0 0 1-2.767-2.769v-1.457Z" fill="#E7EEF1"/><path d="M765.549 356.12a2.768 2.768 0 0 0-2.767-2.769h-18.924a2.768 2.768 0 0 0-2.767 2.769v3.764c0 .255.207.461.461.461h21.23a2.768 2.768 0 0 0 2.767-2.769v-1.456Z" fill="#2CC3D5"/><path d="m161.182 514.439 255.553 529.431 386.302 2.97 86.175-260.252L728.748 498.08l-567.566 16.359Z" fill="url(#faq__a)"/><path d="M449.195 1065.16H166.997a4.95 4.95 0 0 1-4.954-4.96v-5.19a13.445 13.445 0 0 1 13.441-13.45h273.711v23.6Z" fill="#D2DFE6"/><path d="m490.203 781.505-83.576 282.785a.617.617 0 0 0 .108.57c.063.09.144.15.237.19.093.05.194.07.297.06h370.178c6.16.01 12.165-1.93 17.157-5.54a29.239 29.239 0 0 0 10.641-14.57l81.375-245.956a29.366 29.366 0 0 0-4.066-26.412 29.318 29.318 0 0 0-10.426-8.945 29.282 29.282 0 0 0-13.352-3.21h-340.5a29.289 29.289 0 0 0-17.524 5.849 29.336 29.336 0 0 0-10.549 15.179Z" fill="#F5F8F9"/><path d="M706.027 921.955a15.886 15.886 0 0 0-12.982-19.926 65.13 65.13 0 0 0-13.761-1.424 53.953 53.953 0 0 0-23.532 4.821 45.892 45.892 0 0 0-21.88 27.548c-2.431 7.301-4.587 17.493 0 24.84 3.486 5.876 13.211 8.769 21.468 9.182l-2.386 6.52a2.708 2.708 0 0 0 2.523 3.994h.367a6.18 6.18 0 0 0 2.569-.918c4.266-2.801 9.908-6.52 15.504-10.422l2.477-1.699a111.797 111.797 0 0 0 12.615-9.642 59.708 59.708 0 0 0 17.018-32.874Z" fill="#DEE8EC"/><path fill-rule="evenodd" clip-rule="evenodd" d="M135.34 452.288a15.363 15.363 0 0 0 12.389-11.738 15.363 15.363 0 0 0-14.548-18.772 15.343 15.343 0 0 0-8.598 2.355 15.37 15.37 0 0 0-6.958 15.59 15.365 15.365 0 0 0 6.257 9.955 15.337 15.337 0 0 0 11.458 2.61Zm-4.301-25.247a10.226 10.226 0 0 1 10.383 4.643 10.25 10.25 0 0 1-5.007 15.025 10.223 10.223 0 0 1-11.089-2.527 10.24 10.24 0 0 1-2.656-5.32 10.252 10.252 0 0 1 1.75-7.631 10.235 10.235 0 0 1 6.623-4.165l-.004-.025Zm33.209 42.178-5.729 7.59-2.916-1.879a2.556 2.556 0 0 0-3.545.748 2.557 2.557 0 0 0-.361 1.929 2.575 2.575 0 0 0 1.108 1.62l4.879 3.194a2.555 2.555 0 0 0 1.83.376 2.554 2.554 0 0 0 1.611-.976l7.217-9.52a2.568 2.568 0 0 0-.508-3.59 2.559 2.559 0 0 0-3.586.508Zm-12.02-11.134a17.876 17.876 0 0 1 5.065-1.657 18.093 18.093 0 0 1 20.862 14.811 18.118 18.118 0 0 1-6.28 16.975 18.075 18.075 0 0 1-17.826 3.05 18.083 18.083 0 0 1-7.642-5.412l-24.253 4.14a4.886 4.886 0 0 1-5.627-4.002l-.716-4.204a21.787 21.787 0 0 1 3.694-16.247 21.753 21.753 0 0 1 14.09-8.873l4.831-.824a21.727 21.727 0 0 1 13.802 2.243Zm-7.701 7.398c.042-.086.085-.171.132-.248.203-.333.408-.654.636-.992l.469-.677.605-.792.764-.845.325-.38a16.428 16.428 0 0 0-8.162-.673l-4.83.825a16.632 16.632 0 0 0-10.775 6.785 16.66 16.66 0 0 0-2.825 12.424l.675 3.964 21.971-3.75a16.426 16.426 0 0 1-.534-1.533l-.058-.34a19.138 19.138 0 0 1-.424-1.877 17.661 17.661 0 0 1-.228-2.026 2.815 2.815 0 0 1-.005-.284 8.392 8.392 0 0 0-.002-.443 22.438 22.438 0 0 1-.001-1.299c.008-.178.025-.33.044-.499.013-.116.027-.24.039-.385.024-.276.064-.547.102-.81l.033-.226c.036-.256.092-.531.142-.772l.042-.208c.053-.27.107-.469.195-.797l.012-.044c.095-.354.257-.927.309-1.079.033-.094.071-.184.108-.273.022-.053.045-.106.065-.159.297-.83.659-1.634 1.083-2.406.033-.06.063-.121.093-.181Zm10.739 20.766a12.982 12.982 0 0 0 7.253.854l-.149.117a12.977 12.977 0 0 0 9.079-6.332 13.016 13.016 0 0 0 .906-11.039 12.996 12.996 0 0 0-7.924-7.73 12.97 12.97 0 0 0-11.001 1.191c-.224.127-.427.27-.634.417a8.835 8.835 0 0 1-.101.072l-.163.106-.63.497-.283.243-.494.448-.727.761-.126.177c-.221.249-.428.51-.62.781l-.115.163c-.209.295-.401.614-.594.933-.409.717-.75 1.471-1.018 2.252-.118.371-.224.74-.315 1.119l.017.101a12.7 12.7 0 0 0-.319 2.393c.021.087.036.176.045.265.001.096-.003.191-.006.286-.008.214-.016.424.02.634l.056.328.202 1.187.23 1.351.02.113a13.006 13.006 0 0 0 7.391 8.312Z" fill="#4DCB7B"/><path d="M664.597 171.773h-.301a2.752 2.752 0 0 1-1.443-.611 271.741 271.741 0 0 1-6.724-5.929l-1.041-.935a35.614 35.614 0 0 1-5.269-5.543c-3.35-4.746-4.504-11.784-3.099-18.835a14.412 14.412 0 0 1 4.102-7.684 14.578 14.578 0 0 1 7.804-3.951 42.014 42.014 0 0 1 8.267-.809c3.763 0 8.894.485 12.671 2.802 4.767 2.928 7.263 8.571 7.025 15.896-.126 4.198-1.142 10.102-5.244 14.35-3.212 3.313-9.233 4.983-14.051 5.282v3.301a2.678 2.678 0 0 1-.798 1.882 2.721 2.721 0 0 1-1.899.784Zm-5.206-39.863a10.83 10.83 0 0 0-5.899 2.93 10.704 10.704 0 0 0-3.084 5.79c-1.254 6.067-.276 12.034 2.509 15.97a32.325 32.325 0 0 0 4.73 4.983l1.054.971c1.656 1.495 3.337 2.99 4.83 4.236v-2.492a2.283 2.283 0 0 1 .676-1.608 2.315 2.315 0 0 1 1.62-.671c4.252 0 10.174-1.47 12.808-4.186 3.275-3.388 4.09-8.333 4.203-11.871.113-3.538-.439-9.542-5.269-12.507-2.359-1.445-6.147-2.242-10.689-2.242a38.118 38.118 0 0 0-7.527.735l.038-.038Z" fill="#2CC3D5"/><g opacity=".6" fill="#2CC3D5"><path opacity=".6" d="M682.033 151.567v.138c.493-1.835.771-3.72.828-5.619a24.244 24.244 0 0 1-.828 5.481Zm-10.15-19.98c.565.087 1.104.199 1.619.311a19.934 19.934 0 0 0-1.669-.324l.05.013Zm9.449 6.254Zm1.517 7.535Zm-6.674-12.618Z"/><path opacity=".6" d="M709.758 128.921a14.459 14.459 0 0 0-4.11-7.677 14.632 14.632 0 0 0-7.795-3.958 42.152 42.152 0 0 0-8.28-.809c-3.764 0-8.895.485-12.671 2.815a14.25 14.25 0 0 0-6.134 8.383 21.122 21.122 0 0 1 8.781 2.604c4.767 2.927 7.264 8.57 7.026 15.895a26.007 26.007 0 0 1-1.481 8.159c1.329.273 2.674.456 4.027.548v3.189c0 .715.285 1.401.793 1.907a2.734 2.734 0 0 0 1.917.797h.238a2.726 2.726 0 0 0 1.518-.636 289.66 289.66 0 0 0 6.712-5.917l1.041-.947a35.042 35.042 0 0 0 5.257-5.543c3.4-4.721 4.566-11.759 3.161-18.81Zm-34.876 3.363Zm2.686 1.172Z"/></g><path d="M855.018 550.375a7.702 7.702 0 0 0-6.119-2.186l-7.912.722c1.295-8.025.678-13.076-1.882-15.755a6.526 6.526 0 0 0-6.098-1.84 6.47 6.47 0 0 0-4.024 2.186 6.485 6.485 0 0 0-1.573 4.305c-1.358 9.666-4.668 15.59-6.865 18.613a3.787 3.787 0 0 0-3.654-1.907l-14.082 1.285a3.8 3.8 0 0 0-3.429 4.131l2.304 25.304a3.786 3.786 0 0 0 1.348 2.569 3.782 3.782 0 0 0 2.769.863l14.071-1.283a3.802 3.802 0 0 0 3.391-3.065l.492.235a18.345 18.345 0 0 0 9.67 1.75l14.726-1.343a8.495 8.495 0 0 0 7.703-7.937l1.485-20.564a7.724 7.724 0 0 0-2.321-6.083Zm-36.194 32.622-12.762 1.164-2.187-24.026 12.751-1.162 2.198 24.024Zm32.941-26.927-1.486 20.553c-.046.7-.34 1.36-.831 1.86-.49.501-1.143.81-1.841.87l-14.693 1.34a12.95 12.95 0 0 1-6.757-1.22l-3.336-1.611-1.303-14.318c2.102-1.491 9.233-9.197 11.447-25.191.019-.164.027-.329.022-.495-.003-.895.538-.978.902-1.034.838-.132 1.048.084 1.136.188.088.104 2.157 2.67-.149 14.091a2.78 2.78 0 0 0 2.877 3.703l11.652-1.063a2.223 2.223 0 0 1 2.208 1.412c.115.291.166.603.152.915Z" fill="#FF7B80"/><defs><linearGradient id="faq__a" x1="493.996" y1="618.54" x2="681.495" y2="1046.71" gradientUnits="userSpaceOnUse"><stop stop-color="#DAF2F4" stop-opacity="0"/><stop offset="1" stop-color="#DAF2F4"/></linearGradient></defs></svg>