<svg xmlns="http://www.w3.org/2000/svg" width="1079" height="1080" viewBox="0 0 1080 1080" fill="none"><g clip-path="url(#a)"><path fill="url(#b)" d="M77.944 269.372h927.636c14.33 0 26.06 11.731 26.06 26.068v586.792c0 14.338-11.73 26.068-26.06 26.068H77.944c-14.338 0-26.068-11.73-26.068-26.068V295.44c0-14.337 11.73-26.068 26.068-26.068"/><path fill="url(#c)" d="M77.944 269.372h927.636c14.33 0 26.06 11.731 26.06 26.068v586.792c0 14.338-11.73 26.068-26.06 26.068H77.944c-14.338 0-26.068-11.73-26.068-26.068V295.44c0-14.337 11.73-26.068 26.068-26.068"/><path fill="#E0E0E0" fill-rule="evenodd" d="M980.29 369.632H102.317v-4.489H980.29z" clip-rule="evenodd"/><path fill="#666" d="M113.787 336.627c6.335 0 11.47-5.135 11.47-11.469 0-6.335-5.135-11.47-11.47-11.47s-11.47 5.135-11.47 11.47c0 6.334 5.135 11.469 11.47 11.469"/><path fill="#35DE90" d="M160.84 336.627c6.335 0 11.47-5.135 11.47-11.469 0-6.335-5.135-11.47-11.47-11.47s-11.47 5.135-11.47 11.47c0 6.334 5.135 11.469 11.47 11.469"/><path fill="#E0E0E0" d="M207.893 336.627c6.334 0 11.47-5.135 11.47-11.469 0-6.335-5.136-11.47-11.47-11.47s-11.47 5.135-11.47 11.47c0 6.334 5.135 11.469 11.47 11.469"/><path fill="#1968F0" d="M1080 449.243V327.766c0-10.688-8.73-19.421-19.42-19.421H931.542c-10.688 0-19.421 8.733-19.421 19.421v21.506h-26.85c-4.171 0-6.256 5.083-3.258 7.95l30.108 30.109v61.781c0 10.688 8.733 19.421 19.421 19.421h129.038c10.69.131 19.42-8.602 19.42-19.29"/><path fill="#35DE90" d="M1080 647.752V526.274c0-10.688-8.73-19.42-19.42-19.42H931.542c-10.688 0-19.421 8.732-19.421 19.42v21.506h-26.85c-4.171 0-6.256 5.084-3.258 7.951l30.108 30.109v61.781c0 10.688 8.733 19.421 19.421 19.421h129.038c10.69.13 19.42-8.603 19.42-19.29"/><path fill="#0096FA" d="M1080 846.257V724.78c0-10.688-8.73-19.421-19.42-19.421H931.542c-10.688 0-19.421 8.733-19.421 19.421v21.506h-26.85c-4.171 0-6.256 5.084-3.258 7.951l30.108 30.108v61.782c0 10.688 8.733 19.421 19.421 19.421h129.038c10.69.13 19.42-8.603 19.42-19.291"/><path fill="#141414" d="M654.83 618.554H531.267c-13.685 0-24.764-11.079-24.764-24.765V383.681c0-13.686 11.079-24.765 24.764-24.765H654.83c13.686 0 24.765 11.079 24.765 24.765v210.108c0 13.556-11.079 24.765-24.765 24.765"/><path fill="#FCAA73" d="m10.167 444.942 43.142 41.188-30.108-71.688 11.209-8.863 39.363 62.694-17.466-91.239 14.859-4.822 32.715 87.328-2.346-77.553 15.38-2.606 28.414 122.128 27.372-41.578 11.6 3.389-26.98 86.937 7.169 29.326-96.843 25.547-30.109-93.454L0 454.717zM600.087 287.75H456.452l-10.949 10.949v270.195H551.6v-43.273h48.487l10.948-10.948V298.829z"/><path fill="#141414" d="m456.582 287.75-11.079 10.949-.651 123.823.782.521L555.25 313.036l55.785 67.517.131-81.854-11.079-10.949z"/><path fill="url(#d)" d="M514.192 552.21H551.6v-26.59h-43.012z"/><path fill="#F06305" fill-rule="evenodd" d="M568.02 405.744a1.955 1.955 0 0 1 2.576 1.005l24.243 55.264a1.956 1.956 0 0 1-1.791 2.74h-26.719a1.955 1.955 0 1 1 0-3.91h23.727l-23.041-52.523a1.955 1.955 0 0 1 1.005-2.576" clip-rule="evenodd"/><path fill="#F06305" d="m178.045 561.725 37.277 104.924 50.312-79.247c21.245-28.154 54.482-44.707 89.674-44.707l346.705 32.454c39.233 12.904 68.298 46.272 75.598 86.938l44.055 246.082H310.471v-61.521l-34.931 49.921c-38.972 55.525-124.736 41.969-144.548-22.94l-84.07-275.54z"/><path fill="url(#e)" d="m629.022 742.506 28.936 165.663H431.557z"/><path fill="url(#f)" d="M310.34 846.649V704.578l-61.651 216.365s10.819-6.517 18.509-14.468 43.142-59.826 43.142-59.826"/><path fill="url(#g)" d="m215.192 666.649 37.016 105.054-14.989-134.25z"/><path fill="url(#h)" d="m609.732 753.977-114.048-11.47c-7.168-.782-13.555 4.562-14.337 11.6l-6.126 60.348c-.782 7.168 4.562 13.555 11.6 14.337l114.048 11.47c7.169.782 13.555-4.562 14.337-11.601l6.126-60.347c.782-7.169-4.431-13.555-11.6-14.337"/><path fill="#C5D9FB" d="M520.189 817.972c15.548 0 28.153-12.604 28.153-28.153s-12.605-28.153-28.153-28.153c-15.549 0-28.154 12.604-28.154 28.153s12.605 28.153 28.154 28.153"/><path fill="#1968F0" d="M531.2 783.275c.505-5.014-3.556-9.529-9.071-10.085s-10.395 3.058-10.901 8.072c-.505 5.013 3.556 9.529 9.071 10.084 5.515.556 10.396-3.057 10.901-8.071M517.451 817.843c7.821.782 15.25-1.825 20.724-6.517-2.085-8.473-9.254-15.12-18.377-16.032-9.124-.913-17.596 4.17-21.246 11.991 4.301 5.735 10.949 9.775 18.899 10.558M601.521 813.671l-40.406-4.04c-2.346-.261-4.171-2.346-3.91-4.693l1.043-10.818c.26-2.346 2.346-4.171 4.692-3.91l40.406 4.041c2.346.26 4.171 2.346 3.91 4.692l-1.043 10.818c-.261 2.476-2.346 4.171-4.692 3.91"/><path fill="#C5D9FB" d="m585.88 787.734-24.504-2.476c-1.304-.13-2.216-1.304-2.086-2.477l.261-2.346c.13-1.303 1.303-2.216 2.476-2.085l24.504 2.476c1.304.13 2.216 1.304 2.086 2.477l-.261 2.346c0 1.303-1.173 2.216-2.476 2.085"/><path fill="#A3A3A3" d="m579.623 741.073-51.875-5.214c-2.085-.261-4.04 1.303-4.301 3.519l-1.043 10.297c-.261 2.086 1.303 4.041 3.519 4.301l51.876 5.214c2.085.261 4.04-1.304 4.301-3.519l1.043-10.297c.13-2.216-1.434-4.171-3.52-4.301"/><path fill="#141414" d="M433.121 618.554h-63.345c-13.686 0-24.765-11.079-24.765-24.765V383.681c0-13.686 11.079-24.765 24.765-24.765h88.11v234.873c0 13.556-11.079 24.765-24.765 24.765"/><path fill="#072F73" fill-rule="evenodd" d="m445.903 464.368 4.675-6.269 30.736 22.921c6.37 4.593 14.032 7.063 21.8 7.063h37.929v7.821h-37.929c-9.428 0-18.701-2.998-26.403-8.561l-.024-.017z" clip-rule="evenodd"/><path fill="#1968F0" d="M431.296 473.225h26.59v-62.694h-26.59c-7.168 0-13.034 5.866-13.034 13.034v36.626c0 7.299 5.866 13.034 13.034 13.034"/><path fill="#072F73" d="M550.297 498.64h-12.904a3.783 3.783 0 0 1-3.78-3.779v-5.866a3.783 3.783 0 0 1 3.78-3.78h12.904a3.783 3.783 0 0 1 3.78 3.78v5.866a3.783 3.783 0 0 1-3.78 3.779"/><path fill="#C5D9FB" d="M975.467 369.995h-23.983v59.174h23.983z"/><path fill="#0096FA" d="M1009.75 384.594h-23.986v44.576h23.986z"/><path fill="#35DE90" d="M1044.03 352.399h-23.99V429.3h23.99z"/><path fill="#1968F0" d="M992.435 618.35q-9.463-1.195-14.333-6.248-4.777-5.145-4.777-13.597h12.311q0 5.328 3.399 7.901 3.492 2.572 9.28 2.572 11.484 0 11.485-7.258 0-2.48-1.47-3.95-1.47-1.563-4.23-2.573c-1.83-.674-4.53-1.439-8.082-2.297q-7.441-1.653-11.76-3.491-4.227-1.93-6.523-5.237-2.298-3.4-2.297-8.912 0-6.707 4.502-10.657 4.593-3.95 12.495-4.87l-.46-10.014h11.115l-.55 10.014q8.73 1.103 13.05 5.88 4.41 4.686 4.5 12.128h-12.13q-.09-4.227-2.85-6.523c-1.77-1.532-4.38-2.297-7.806-2.297q-4.318 0-6.89 1.47t-2.573 4.685q0 2.298 1.194 3.675 1.195 1.379 3.584 2.297 2.48.828 7.35 2.113c5.201 1.225 9.311 2.42 12.311 3.584q4.5 1.745 7.17 5.053c1.77 2.143 2.66 5.053 2.66 8.728 0 5.084-1.68 9.187-5.05 12.311q-5.055 4.686-14.52 5.605l.55 9.922h-11.115z"/><path fill="#072F73" fill-rule="evenodd" d="M966.344 779.784c0-19.296 15.634-34.931 34.926-34.931 19.3 0 34.94 15.635 34.94 34.931h-5.22c0-16.417-13.3-29.717-29.72-29.717-16.412 0-29.713 13.3-29.713 29.717zM1025.43 824.591c-6.29 3.133-14.78 4.982-24.03 4.982v-5.213c8.62 0 16.29-1.735 21.7-4.435 5.56-2.774 8.02-6.14 8.02-9.121h5.22c0 6.013-4.78 10.729-10.91 13.787" clip-rule="evenodd"/><path fill="#1968F0" d="M958.001 812.368h13.817V778.61h-13.817a10.79 10.79 0 0 0-10.818 10.819v12.252c0 5.865 4.823 10.687 10.818 10.687M1044.81 812.368h-13.82V778.61h13.82c5.99 0 10.82 4.823 10.82 10.819v12.252c0 5.865-4.83 10.687-10.82 10.687"/><path fill="#072F73" d="M1005.05 832.962c3.32 0 6-2.684 6-5.996a5.993 5.993 0 0 0-6-5.995 5.99 5.99 0 0 0-5.991 5.995 5.99 5.99 0 0 0 5.991 5.996"/></g><defs><linearGradient id="b" x1="868.552" x2="-116.798" y1="638.542" y2="488.783" gradientUnits="userSpaceOnUse"><stop stop-color="#fff"/><stop offset=".353" stop-color="#FBFBFB"/><stop offset=".715" stop-color="#EFEFEF"/><stop offset=".99" stop-color="#E0E0E0"/></linearGradient><linearGradient id="c" x1="158.752" x2="1161.62" y1="233.021" y2="1164.8" gradientUnits="userSpaceOnUse"><stop stop-color="#03F" stop-opacity="0"/><stop offset=".418" stop-color="#0033FD" stop-opacity=".418"/><stop offset=".57" stop-color="#0033F6" stop-opacity=".57"/><stop offset=".678" stop-color="#0132EA" stop-opacity=".678"/><stop offset=".766" stop-color="#0232DA" stop-opacity=".766"/><stop offset=".841" stop-color="#0331C3" stop-opacity=".841"/><stop offset=".908" stop-color="#0431A8" stop-opacity=".908"/><stop offset=".967" stop-color="#063089" stop-opacity=".967"/><stop offset="1" stop-color="#072F73"/></linearGradient><linearGradient id="d" x1="505.185" x2="549.347" y1="572.142" y2="513.26" gradientUnits="userSpaceOnUse"><stop stop-color="#F8BC9A" stop-opacity="0"/><stop offset=".162" stop-color="#F8BA96" stop-opacity=".162"/><stop offset=".326" stop-color="#F7B28A" stop-opacity=".326"/><stop offset=".492" stop-color="#F6A675" stop-opacity=".492"/><stop offset=".658" stop-color="#F59559" stop-opacity=".658"/><stop offset=".825" stop-color="#F37F34" stop-opacity=".825"/><stop offset=".99" stop-color="#F06508" stop-opacity=".99"/><stop offset="1" stop-color="#F06305"/></linearGradient><linearGradient id="e" x1="507.757" x2="663.778" y1="801.628" y2="965.557" gradientUnits="userSpaceOnUse"><stop offset=".145" stop-color="#F06305"/><stop offset=".311" stop-color="#E15D05"/><stop offset=".631" stop-color="#B94C04"/><stop offset=".942" stop-color="#8C3A03"/></linearGradient><linearGradient id="f" x1="221.658" x2="382.161" y1="800.888" y2="833.775" gradientUnits="userSpaceOnUse"><stop offset=".338" stop-color="#F06305"/><stop offset=".425" stop-color="#E15D05"/><stop offset=".591" stop-color="#B94C04"/><stop offset=".753" stop-color="#8C3A03"/></linearGradient><linearGradient id="g" x1="247.585" x2="204.893" y1="704.362" y2="707.427" gradientUnits="userSpaceOnUse"><stop offset=".069" stop-color="#F06305"/><stop offset=".257" stop-color="#E15D05"/><stop offset=".617" stop-color="#B94C04"/><stop offset=".967" stop-color="#8C3A03"/></linearGradient><linearGradient id="h" x1="609.399" x2="492.651" y1="846.462" y2="741.767" gradientUnits="userSpaceOnUse"><stop stop-color="#C5D9FB"/><stop offset=".184" stop-color="#D9E4F9"/><stop offset=".407" stop-color="#E9EEF7"/><stop offset=".66" stop-color="#F2F3F5"/><stop offset="1" stop-color="#F5F5F5"/></linearGradient><clipPath id="a"><path fill="#fff" d="M0 0h1079v1080H0z"/></clipPath></defs></svg>