<svg xmlns="http://www.w3.org/2000/svg" width="1098" height="1080" viewBox="0 0 1080 1080" fill="none"><path fill="#B2DFFD" fill-opacity=".5" d="M751.963 65.375c-189.348-27.402-365.059 103.882-392.461 293.23s103.882 365.059 293.23 392.461 365.058-103.881 392.458-293.23c27.41-189.348-103.878-365.059-293.227-392.46"/><g filter="url(#a)" opacity=".1"><ellipse cx="712.536" cy="743.944" fill="#0A0F1A" rx="369.448" ry="40.389"/></g><g filter="url(#b)"><path fill="#F6F6F6" fill-rule="evenodd" d="M908.568 125.749c5.101 0 9.237 4.284 9.238 9.568l-.003 223.17v108.707l-36.952 27.174v.002l-123.424 90.724h-.001l-.002.001-52.075-38.277-51.93 38.276h-.002l-.001.001h-.18L529.814 494.37l-36.955-27.176V135.318c0-5.285 4.136-9.569 9.238-9.569z" clip-rule="evenodd"/></g><path fill="#B2DFFD" fill-opacity=".5" d="M774.452 451.521H635.146c-4.294 0-7.741 3.808-7.741 8.548 0 4.708 3.447 8.546 7.741 8.546h139.308c4.295 0 7.741-3.838 7.741-8.546-.002-4.739-3.448-8.548-7.743-8.548M743.525 485.709h-77.411c-4.294 0-7.741 3.806-7.741 8.546 0 4.708 3.447 8.546 7.741 8.546h77.411c4.264 0 7.741-3.838 7.741-8.546 0-4.74-3.479-8.546-7.741-8.546"/><path fill="#0096FA" d="m917.276 459.513-36.955 28.965-123.387 96.695H652.708l-123.423-96.695-36.955-28.965-73.91-57.933v326.389c0 12.27 5.016 23.147 12.775 30.599h-.036c.036.04.073.04.109.081 6.027 5.738 13.605 9.483 22.051 9.92H956.65c4.258-.198 8.12-1.434 11.837-3.068h.181c13.28-6.095 22.519-20.599 22.519-37.532V401.582z"/><path fill="#0D4FC1" fill-rule="evenodd" d="M492.333 329.975v-.002s-18.478 11.861-36.954 26.734v.001c-18.478 14.872-36.955 32.754-36.955 44.796l62.556 49.032 11.353 8.9v-.001l.001.001V329.973z" clip-rule="evenodd"/><path fill="#0D4FC1" d="m991.191 401.672-73.909 57.933V330.142s73.909 47.446 73.909 71.53"/><path fill="#18A0FB" d="m756.898 585.096-45.168-35.015c-1.692-2.12-4.166-3.464-6.927-3.464s-5.232 1.345-6.925 3.464h-.011l-44.977 35.015h-.18L431.159 758.49c5.919 5.697 13.678 9.363 22.16 10.001H956.65c4.258-.2 8.12-1.434 11.837-3.068h.181c3.5-1.834 6.82-4.103 9.779-6.933z"/><path fill="#0096FA" d="M800.856 248.935c-5.78-29.855-26.649-50.724-57.231-57.177a203.6 203.6 0 0 0-41.337-4.084c-18.261 0-43.906 2.409-62.287 14.008-30.822 19.4-34.354 57.872-33.712 79.028s5.699 50.929 25.645 71.921c16.495 17.48 48.762 25.812 73.043 26.425v21.727a9.5 9.5 0 0 0 .669 3.62 9.3 9.3 0 0 0 1.996 3.073 9.15 9.15 0 0 0 3.011 2.045 9 9 0 0 0 3.555.697h.843a8.83 8.83 0 0 0 5.137-2.206c9.511-8.168 21.993-19.318 34.113-30.835l5.378-5.023a178 178 0 0 0 26.207-28.263c16.414-23.769 22.033-59.301 14.97-94.956"/><path fill="#fff" fill-rule="evenodd" d="M714.573 269.934a18.77 18.77 0 0 1-10.505 3.219 18.81 18.81 0 0 1-13.371-5.594 19.2 19.2 0 0 1-5.539-13.506c0-3.777 1.109-7.47 3.187-10.611a18.96 18.96 0 0 1 8.486-7.035 18.73 18.73 0 0 1 10.926-1.087 18.86 18.86 0 0 1 9.682 5.227 19.17 19.17 0 0 1 5.175 9.78 19.3 19.3 0 0 1-1.076 11.035 19.05 19.05 0 0 1-6.965 8.572m-13.53 8.217h6.051a26.65 26.65 0 0 1 18.926 7.925 27.2 27.2 0 0 1 7.846 19.117v5.317a6.12 6.12 0 0 1-1.767 4.294 6 6 0 0 1-4.252 1.786h-47.573a6 6 0 0 1-4.252-1.786 6.13 6.13 0 0 1-1.768-4.294v-5.301a27.2 27.2 0 0 1 7.846-19.133 26.66 26.66 0 0 1 18.943-7.925" clip-rule="evenodd"/><g filter="url(#c)" opacity=".1"><ellipse cx="353.175" cy="1030.72" fill="#0A0F1A" rx="290.176" ry="31.723"/></g><path fill="#1F1F1F" d="M250.374 592.269H42l58.179 234.4h208.372z"/><path fill="#8C3A03" d="m494.611 1008.92-22.679-56.837 61.055-24.362 22.679 56.835zM369.667 997.071l-2.802-61.129 65.667-3.01 2.802 61.129z"/><path fill="url(#d)" d="m478.967 987.217 75.189-20.147c2.23 4.314 20.504 15.228 38.57 11.615 34.413-6.765 25.145 13.065 25.145 13.065l-123.883 33.19z"/><path fill="#1F1F1F" d="M133.273 1014.4h173.206v23.85H133.273z"/><path fill="#1F1F1F" d="M207.951 1025.8V852.598h23.855V1025.8z"/><path fill="#525252" d="M218.839 874.378c-23.199 0-42.006-19.038-42.006-42.524 0-23.485 18.807-42.523 42.006-42.523 23.198 0 42.005 19.038 42.005 42.523s-18.807 42.524-42.005 42.524"/><path fill="url(#e)" d="M231.717 699.202h209.178c27.315-3.406 52.258 16.016 55.667 43.348l.055.442 62.753 209.006-98.98 12.344-49.766-165.857-127.472 15.897c-6.077 3.892-83.603-8.705-91.24-7.753-27.315 3.407 18.146-.741 14.738-28.073-3.244-27.203-2.248-75.947 25.067-79.354"/><path fill="#1F1F1F" d="M100.674 826.669h236.917v-23.855H94.895z"/><path fill="#072F73" d="m362.923 978.861 77.839.48c1.009 4.751 15.74 20.113 34.266 21.409 34.977 2.59 20.789 19.26 20.789 19.26l-128.251-.79z"/><path fill="#0096FA" d="m460.796 964.718-99.933-.616-33.958-215.649 99.932.617z"/><path fill="#0096FA" d="M380.714 811.408c-27.596-.17-49.828-22.679-49.658-50.274s22.679-49.828 50.274-49.658 49.828 22.679 49.658 50.274-22.679 49.828-50.274 49.658M181.676 805.216c-41.125-.253-74.255-33.797-74.002-74.921s33.796-74.258 74.921-74.005 74.258 33.798 74.004 74.923-33.798 74.257-74.923 74.003"/><path fill="#0096FA" d="m183.093 705.174 198.234 6.3-.586 94.891-192.598-1.188zM111.803 753.271l-11.372-104.734h101.642z"/><path fill="#000" d="m135.576 385.687 10.878 68.981 59.236 10.065-12.555-77.833z"/><path fill="#000" d="M136.638 391.73c-7.693-23.796 9.88-50.785 39.252-60.282 29.373-9.497 59.42 2.095 67.114 25.891s-9.879 50.785-39.251 60.282c-29.373 9.497-59.421-2.095-67.115-25.891"/><path fill="#8C3A03" d="m232.168 353.858 14.174 16.585 1.104 17.694 12.547 28.969-8.279 4.46-3.367 31.037-18.31-1.171.095 24.605-51.084 1.742.451-47.563-8.778-8.707 4.675-21.375 11.124 10.078 8.388-33.221z"/><path fill="url(#f)" d="m230.135 471.413-27.898-21.87 27.799 1.89z"/><path fill="url(#g)" d="m232.172 353.859 14.173 16.585-60.383 42.483 8.95-35.936z"/><path fill="url(#h)" d="m189.487 442.478-9.167 15.226-.81-27.489z"/><path fill="url(#i)" d="m250.099 436.324-4.864-12.338 6.361-2.4z"/><path fill="#F06305" d="M83.19 548.605c3.326-18.772 16.697-34.15 34.779-40.038l59.531-20.435V472.2h54v15.932l5.284 2.632 54.176 17.803c18.082 5.957 31.453 21.335 34.779 40.038l-8.579 107.691-8.13 56.18-201.378 15.903-36.819-112.014z"/><path fill="#8C3A03" d="M135.825 662.001H62.894l9.142-51.858h72.794z"/><path fill="#8C3A03" d="M104.541 709.71c-23.199 0-42.005-19.038-42.005-42.523s18.806-42.524 42.005-42.524 42.005 19.038 42.005 42.524c0 23.485-18.806 42.523-42.005 42.523"/><path fill="url(#j)" d="m150.799 575.456-17.365 93.345h82.973z"/><path fill="#8C3A03" d="m87.784 662.001 50.028-33.846 49.678-33.57 35.125 50.804-100.443 61.21z"/><path fill="url(#k)" d="m144.83 614.291-2.012 10.947-54.185 36.763h-25.74l2.984-17.143z"/><path fill="#8C3A03" d="m187.351 594.832 76.721-8.544 35.005 10.955 21.031 15.572-6.019 5.857-13.351-5.719 14.735 14.194-7.887 5.306-32.791-20.809 20.616 23.358-6.227 4.548-24.904-16.33 15.219 16.674-5.396 4.41-24.49-15.779-27.741 16.881z"/><path fill="#666" d="M228.809 654.502h165.59c3.405 0 5.976 3.127 5.351 6.463l-1.043 5.35c-.486 2.571-2.71 4.378-5.35 4.378h-165.59c-3.405 0-5.976-3.127-5.351-6.462l1.042-5.351c.487-2.571 2.71-4.378 5.351-4.378"/><path fill="#E0E0E0" d="M500.997 548.95H318.521c-2.571 0-4.794 1.806-5.35 4.377L291.63 664.231c-.626 3.335 1.945 6.462 5.35 6.462h182.476c2.571 0 4.795-1.807 5.351-4.378l21.541-110.903c.625-3.335-1.946-6.462-5.351-6.462"/><path fill="#A3A3A3" fill-rule="evenodd" d="M456.619 1019.29V676.718h-16.108v342.572z" clip-rule="evenodd"/><path fill="#A3A3A3" fill-rule="evenodd" d="M328.628 1034.74h239.876v-16.11H328.628z" clip-rule="evenodd"/><path fill="#072F73" d="M184.798 669h355.403c2.946 0 2.798 3.582 2.798 8s.148 8-2.798 8H184.798c-2.946 0-2.797-3.582-2.797-8s-.149-8 2.797-8"/><defs><linearGradient id="d" x1="574.199" x2="511.061" y1="946.638" y2="1051.71" gradientUnits="userSpaceOnUse"><stop offset=".26" stop-color="#072F73"/><stop offset=".366" stop-color="#072C6D"/><stop offset=".513" stop-color="#06255B"/><stop offset=".684" stop-color="#04193D"/><stop offset=".871" stop-color="#010915"/><stop offset=".956"/></linearGradient><linearGradient id="e" x1="518.574" x2="274.206" y1="727.665" y2="950.033" gradientUnits="userSpaceOnUse"><stop offset=".026" stop-color="#0096FA"/><stop offset=".641" stop-color="#1968F0"/></linearGradient><linearGradient id="f" x1="207.631" x2="229.433" y1="474.075" y2="439.494" gradientUnits="userSpaceOnUse"><stop offset=".429" stop-opacity="0"/><stop offset="1" stop-opacity=".5"/></linearGradient><linearGradient id="g" x1="251.258" x2="183.338" y1="435.869" y2="348.371" gradientUnits="userSpaceOnUse"><stop offset=".507" stop-opacity="0"/><stop offset=".883" stop-opacity=".5"/></linearGradient><linearGradient id="h" x1="201.412" x2="166.577" y1="456.545" y2="435.697" gradientUnits="userSpaceOnUse"><stop offset=".367" stop-opacity="0"/><stop offset=".884" stop-opacity=".5"/></linearGradient><linearGradient id="i" x1="240.013" x2="258.572" y1="439.536" y2="419.201" gradientUnits="userSpaceOnUse"><stop offset=".367" stop-opacity="0"/><stop offset=".928" stop-opacity=".5"/></linearGradient><linearGradient id="j" x1="197.393" x2="122.726" y1="610.172" y2="675.907" gradientUnits="userSpaceOnUse"><stop offset=".145" stop-color="#F06305"/><stop offset=".653" stop-color="#8C3A03"/></linearGradient><linearGradient id="k" x1="90.86" x2="123.59" y1="608.978" y2="683.554" gradientUnits="userSpaceOnUse"><stop offset=".281" stop-color="#F8BC9A" stop-opacity="0"/><stop offset=".297" stop-color="#8C3A03"/><stop offset=".79" stop-color="#732F02"/></linearGradient><filter id="a" width="770.897" height="112.778" x="327.088" y="687.555" color-interpolation-filters="sRGB" filterUnits="userSpaceOnUse"><feFlood flood-opacity="0" result="BackgroundImageFix"/><feBlend in="SourceGraphic" in2="BackgroundImageFix" result="shape"/><feGaussianBlur result="effect1_foregroundBlur_10272_1591" stdDeviation="8"/></filter><filter id="b" width="448.947" height="483.346" x="480.859" y="115.749" color-interpolation-filters="sRGB" filterUnits="userSpaceOnUse"><feFlood flood-opacity="0" result="BackgroundImageFix"/><feColorMatrix in="SourceAlpha" result="hardAlpha" values="0 0 0 0 0 0 0 0 0 0 0 0 0 0 0 0 0 0 127 0"/><feOffset dy="2"/><feGaussianBlur stdDeviation="6"/><feColorMatrix values="0 0 0 0 0.374547 0 0 0 0 0.481553 0 0 0 0 0.601935 0 0 0 0.15 0"/><feBlend in2="BackgroundImageFix" result="effect1_dropShadow_10272_1591"/><feBlend in="SourceGraphic" in2="effect1_dropShadow_10272_1591" result="shape"/></filter><filter id="c" width="605.487" height="88.579" x="50.432" y="986.433" color-interpolation-filters="sRGB" filterUnits="userSpaceOnUse"><feFlood flood-opacity="0" result="BackgroundImageFix"/><feBlend in="SourceGraphic" in2="BackgroundImageFix" result="shape"/><feGaussianBlur result="effect1_foregroundBlur_10272_1591" stdDeviation="6.283"/></filter></defs></svg>