<svg width="1080" height="1080" viewBox="0 0 1080 1080" fill="none" xmlns="http://www.w3.org/2000/svg">
<ellipse cx="590" cy="544" rx="435" ry="440" fill="#C5D9FB"/>
<ellipse cx="183.5" cy="155" rx="127.5" ry="128" fill="#35DE90"/>
<path d="M648.144 422L619.181 411.857L529.999 435L436.499 435L470.002 514L520.002 503.5L702.123 517.68L648.144 422Z" fill="#35DE90"/>
<path d="M664.916 459.587L683.355 435.057L718.501 374.774L643.5 353L557.381 482.05L664.916 459.587Z" fill="#35DE90"/>
<path d="M704.385 430.836C678.375 441.685 648.494 429.395 637.645 403.385C626.796 377.374 639.086 347.494 665.096 336.644C691.106 325.795 720.987 338.086 731.836 364.096C742.685 390.106 730.395 419.986 704.385 430.836Z" fill="#35DE90"/>
<g opacity="0.1" filter="url(#filter0_f_196_25506)">
<ellipse cx="174" cy="29.5" rx="174" ry="29.5" transform="matrix(-1 0 0 1 937 993.998)" fill="#0A0F1A"/>
</g>
<g opacity="0.1" filter="url(#filter1_f_196_25506)">
<ellipse cx="147" cy="17.5" rx="147" ry="17.5" transform="matrix(-1 0 0 1 541 1006)" fill="#0A0F1A"/>
</g>
<path d="M706.466 382H1009L924.532 722H622L706.466 382Z" fill="#0C4EC0"/>
<path d="M876 993.998H625V1029H876V993.998Z" fill="#0C4EC0"/>
<path d="M768 1011L768 759.998L733 759.998L733 1011L768 1011Z" fill="#0C4EC0"/>
<path d="M752 790.998C785.689 790.998 813 763.464 813 729.498C813 695.533 785.689 667.998 752 667.998C718.311 667.998 691 695.533 691 729.498C691 763.464 718.311 790.998 752 790.998Z" fill="#072F73"/>
<path d="M923.618 731.998H580V696.998H932L923.618 731.998Z" fill="#0C4EC0"/>
<path d="M726.822 242.287L819.442 227.482C825.125 226.574 828.832 219.901 827.675 212.663L813.423 123.5C812.266 116.262 806.663 111.077 800.98 111.986L708.36 126.791C702.677 127.699 698.969 134.372 700.126 141.61L714.379 230.773C715.536 238.011 721.139 243.196 726.822 242.287Z" fill="#F06305"/>
<path d="M660.728 124.809L752.688 107.906L760.985 113.625L792.774 286.567L724.848 299.053L719.742 271.272L688.699 276.978C685.439 274.731 683.661 273.506 680.401 271.259L655.006 133.105L660.728 124.809Z" fill="#8C3A03"/>
<path d="M752.732 107.696L761.053 113.512L776.136 192.749L775.711 193.259L692.492 135.534L664.624 185.42L654.989 133.008L660.714 124.697L752.732 107.696Z" fill="#F06305"/>
<path d="M746.989 283.886L722.886 288.316L719.729 271.141L747.443 266.047L746.989 283.886Z" fill="url(#paint0_linear_196_25506)"/>
<path fill-rule="evenodd" clip-rule="evenodd" d="M695.124 196.478C694.442 196.316 693.761 196.739 693.6 197.423L684.653 235.624C684.555 236.042 684.674 236.481 684.969 236.792C685.264 237.104 685.695 237.245 686.116 237.167L703.142 234.038C703.83 233.911 704.285 233.249 704.158 232.558C704.031 231.867 703.37 231.409 702.682 231.536L687.563 234.315L696.067 198.009C696.227 197.325 695.805 196.64 695.124 196.478Z" fill="#141414"/>
<path fill-rule="evenodd" clip-rule="evenodd" d="M789.028 212.222L783.651 207.176L759.28 233.72C754.202 239.075 747.571 242.671 740.42 243.986L705.504 250.404L706.843 257.686L741.759 251.268C750.438 249.672 758.461 245.312 764.599 238.829L764.618 238.808L789.028 212.222Z" fill="#072F73"/>
<path d="M803.99 218.285L779.611 222.767L769 165.035L793.378 160.554C799.951 159.346 806.321 163.758 807.534 170.36L813.734 204.087C814.947 210.688 810.682 217.055 803.99 218.285Z" fill="#1968F0"/>
<path d="M698.735 262.086L710.634 259.899C712.557 259.546 713.824 257.659 713.463 255.691L712.445 250.154C712.083 248.185 710.227 246.873 708.304 247.226L696.405 249.414C694.482 249.767 693.215 251.654 693.577 253.622L694.594 259.159C694.956 261.128 696.812 262.44 698.735 262.086Z" fill="#072F73"/>
<path d="M891 373C886.79 349.235 892.715 335.793 869.824 328.339L803.221 302.469L794.458 282.299L720.933 287.743L726.095 302.469L719.407 305.801L683.5 328.339C660.609 335.881 643.681 355.349 639.471 379.027L624.5 513.5L642 583L882.884 606.617V595.5L891 373Z" fill="#35DE90"/>
<path d="M387.446 906.453L423.129 837.691L349.262 799.359L313.579 868.121L387.446 906.453Z" fill="#8C3A03"/>
<path d="M409.875 881.072L317.675 846.282C314.325 851.438 289.938 862.9 267.631 856.088C225.125 843.259 234.319 869.4 234.319 869.4L386.23 926.72L409.875 881.072Z" fill="#141414"/>
<path d="M757.396 549.18L493.877 523.004C459.892 515.294 426.04 536.641 418.325 570.647C418.284 570.83 418.242 571.013 418.201 571.196L312.991 826.645L436.139 854.582L519.589 651.867L678.186 687.845C685.354 693.508 784.597 687.34 794.098 689.495C828.083 697.205 771.331 686.291 779.045 652.285C786.535 618.421 791.381 556.889 757.396 549.18Z" fill="url(#paint1_linear_196_25506)"/>
<path d="M551.175 946.776L554.723 869.389L471.589 865.578L468.042 942.966L551.175 946.776Z" fill="#8C3A03"/>
<path d="M559.714 923.722L461.171 924.33C459.894 930.344 441.244 949.793 417.791 951.439C373.511 954.716 391.473 975.817 391.473 975.817L553.835 974.815L559.714 923.722Z" fill="#141414"/>
<path d="M435.809 905.817L562.321 905.037L605.312 632.03L478.8 632.81L435.809 905.817Z" fill="#0096FA"/>
<path d="M537.189 711.73C572.124 711.515 600.27 683.019 600.055 648.084C599.839 613.149 571.344 585.004 536.408 585.219C501.473 585.435 473.327 613.929 473.542 648.864C473.758 683.8 502.254 711.946 537.189 711.73Z" fill="#0096FA"/>
<path d="M787.371 577.239L536.411 585.215L537.152 705.344L780.978 703.841L787.371 577.239Z" fill="#0096FA"/>
<path d="M789.169 703.891C841.232 703.57 883.175 661.105 882.854 609.042C882.533 556.979 838.565 585.178 786.502 585.5C734.439 585.821 693.997 558.142 694.318 610.205C694.639 662.268 737.106 704.212 789.169 703.891Z" fill="#0096FA"/>
<path d="M641.806 581.451L883.608 605.504V586.515L755.744 513.088L623.449 506.758L641.806 581.451Z" fill="#35DE90"/>
<path d="M761.216 531.583H853.546L841.972 465.932H749.816L761.216 531.583Z" fill="#8C3A03"/>
<path d="M805.106 593.729C834.388 591.471 856.273 565.609 853.988 535.966C851.702 506.322 826.111 484.121 796.829 486.379C767.547 488.637 745.661 514.498 747.947 544.142C750.233 573.786 775.824 595.986 805.106 593.729Z" fill="#8C3A03"/>
<path d="M821.616 531.877L755.175 494.024L692.498 466L590.998 480.5L782.55 591.517L821.616 531.877Z" fill="#8C3A03"/>
<path d="M442.618 394.454L505.766 545.046C506.656 547.222 508.148 549.098 510.067 550.456C511.987 551.813 514.253 552.594 516.601 552.707L609.512 556.13C610.89 556.187 612.26 555.9 613.5 555.296C614.739 554.691 615.808 553.787 616.611 552.666C617.414 551.545 617.925 550.242 618.099 548.874C618.273 547.506 618.103 546.116 617.605 544.83L559.027 392.194C558.444 390.671 557.426 389.353 556.099 388.404C554.772 387.456 553.196 386.918 551.566 386.86L450.578 383.004C449.193 382.959 447.818 383.262 446.58 383.884C445.341 384.506 444.278 385.428 443.487 386.566C442.696 387.704 442.202 389.022 442.05 390.4C441.898 391.777 442.094 393.171 442.618 394.454Z" fill="white"/>
<path opacity="0.6" d="M538.006 472.659C536.754 470.415 535.027 468.472 532.946 466.965C530.865 465.458 528.48 464.424 525.958 463.934C523.811 463.524 521.63 463.313 519.444 463.303C516.652 463.303 512.797 463.668 510.653 465.43C507.911 467.623 507.595 471.878 509.789 477.428C511.393 481.696 514.12 485.45 517.682 488.296C521.345 490.743 525.612 492.129 530.013 492.301L531.06 495.176C531.264 495.645 531.594 496.049 532.014 496.342C532.433 496.635 532.925 496.807 533.436 496.838H533.602C533.758 496.829 533.91 496.789 534.05 496.721C534.19 496.652 534.314 496.557 534.417 496.439C535.414 495.209 536.693 493.581 537.906 491.869C538.073 491.62 538.255 491.387 538.438 491.138C539.466 489.857 540.296 488.428 540.898 486.9C542.111 483.377 541.031 478.026 538.006 472.659Z" fill="#E0E0E0"/>
<path d="M694.84 467.289L607.451 423.541L561.074 421.223L529.273 430.51L533.857 440.103L552.221 439.157L528.502 449.563L535.547 459.319L583.61 448.963L548.893 467.68L554.297 475.808L591.031 467.318L565.65 480.459L570.128 488.06L606.128 480.043L656 508.5L694.84 467.289Z" fill="#8C3A03"/>
<path d="M460.5 491.5L436.805 436.357L466.294 405.138L507.655 415.869L505.345 424.328L480.763 423.962L518.355 438.344L514.553 445.755L489.513 441.588L514.845 458.14L509.667 465.37L487.661 459.46L503.858 473.445L499.751 478.099L485.455 471.797L477 476.5L477 478.099" fill="#8C3A03"/>
<defs>
<filter id="filter0_f_196_25506" x="576.433" y="981.431" width="373.134" height="84.1338" filterUnits="userSpaceOnUse" color-interpolation-filters="sRGB">
<feFlood flood-opacity="0" result="BackgroundImageFix"/>
<feBlend mode="normal" in="SourceGraphic" in2="BackgroundImageFix" result="shape"/>
<feGaussianBlur stdDeviation="6.28345" result="effect1_foregroundBlur_196_25506"/>
</filter>
<filter id="filter1_f_196_25506" x="234.433" y="993.431" width="319.134" height="60.1338" filterUnits="userSpaceOnUse" color-interpolation-filters="sRGB">
<feFlood flood-opacity="0" result="BackgroundImageFix"/>
<feBlend mode="normal" in="SourceGraphic" in2="BackgroundImageFix" result="shape"/>
<feGaussianBlur stdDeviation="6.28345" result="effect1_foregroundBlur_196_25506"/>
</filter>
<linearGradient id="paint0_linear_196_25506" x1="755.12" y1="295.574" x2="719.783" y2="262.873" gradientUnits="userSpaceOnUse">
<stop stop-color="#8C3A03"/>
<stop offset="1" stop-color="#642A02"/>
</linearGradient>
<linearGradient id="paint1_linear_196_25506" x1="392.458" y1="549.14" x2="672.481" y2="859.854" gradientUnits="userSpaceOnUse">
<stop offset="0.0262009" stop-color="#0096FA"/>
<stop offset="0.641" stop-color="#1968F0"/>
</linearGradient>
</defs>
</svg>
