<svg width="1108" height="1080" viewBox="0 0 1108 1080" fill="none" xmlns="http://www.w3.org/2000/svg"><g filter="url(#girl-email__a)"><path fill-rule="evenodd" clip-rule="evenodd" d="M992.573 132c5.542 0 10.037 4.202 10.037 9.383V466.84l-40.148 26.649v.001l-134.085 88.97-.001-.001-.002.001-56.574-37.536-56.416 37.536h-.198l-134.084-88.969-40.147-26.651V141.385c0-5.183 4.494-9.385 10.037-9.385h441.581Z" fill="#fff"/></g><path d="M846.875 451.47h-151.34a8.371 8.371 0 0 0-8.41 8.383c0 4.617 3.745 8.381 8.41 8.381h151.342c4.665 0 8.41-3.764 8.41-8.381a8.376 8.376 0 0 0-8.412-8.383Zm-33.602 33.526h-84.098a8.369 8.369 0 0 0-8.409 8.381c0 4.616 3.744 8.381 8.409 8.381h84.098c4.633 0 8.41-3.765 8.41-8.381 0-4.649-3.779-8.381-8.41-8.381Z" fill="#D2DFE6"/><g opacity=".2" filter="url(#girl-email__b)"><path d="M1094 769.599c0 10.96-136.498 19.844-304.877 19.844-168.38 0-304.878-8.884-304.878-19.844 0-10.959 136.498-19.844 304.878-19.844 168.379 0 304.877 8.885 304.877 19.844Z" fill="#0A0F1A"/></g><path d="m1002.04 459.308-40.151 28.405-134.045 94.824H714.615l-134.084-94.824-40.148-28.405-80.294-56.812v320.075c0 12.033 5.45 22.699 13.879 30.007h-.039c.039.039.079.039.118.079 6.548 5.627 14.78 9.3 23.955 9.729h546.808c4.63-.195 8.82-1.406 12.86-3.009h.2c14.42-5.977 24.46-20.2 24.46-36.806V402.497l-80.29 56.811Z" fill="#FFD27A"/><path fill-rule="evenodd" clip-rule="evenodd" d="M521.761 343.785c-23.72 15.331-61.671 42.397-61.671 58.634l68.891 48.744 11.402 8.068h.001V332.273h-.001s-6.451 3.738-15.695 9.633c-.948.604-1.925 1.231-2.927 1.879Z" fill="#F5BD4D"/><path d="m1082.33 402.585-80.29 56.812V332.438s80.29 46.529 80.29 70.147Z" fill="#F5BD4D"/><path d="m827.805 582.461-49.071-34.338h-.001a10.012 10.012 0 0 0-7.523-3.396c-3 0-5.684 1.318-7.524 3.396h-.011l-48.862 34.338h-.196l-240.688 170.04c6.43 5.587 14.859 9.182 24.073 9.807h546.808c4.63-.196 8.82-1.406 12.86-3.009h.2c3.8-1.798 7.41-4.023 10.62-6.798l-240.685-170.04Z" fill="#FFD686"/><path d="M850.018 276.631c-4.569-23.199-21.072-39.415-45.253-44.429a163.88 163.88 0 0 0-32.687-3.174c-14.439 0-34.718 1.873-49.252 10.885-24.373 15.074-27.165 44.969-26.658 61.407.508 16.439 4.507 39.573 20.279 55.885 13.043 13.582 38.558 20.056 57.757 20.532v16.883a7.227 7.227 0 0 0 2.108 5.201 7.23 7.23 0 0 0 5.191 2.13h.666a7.048 7.048 0 0 0 4.063-1.714 750.683 750.683 0 0 0 26.974-23.959l4.253-3.904a139.296 139.296 0 0 0 20.722-21.96c12.98-18.47 17.423-46.079 11.837-73.783Z" fill="#2CC3D5"/><path fill-rule="evenodd" clip-rule="evenodd" d="M782.127 297.956a15.071 15.071 0 1 1-14.14-26.454 15.07 15.07 0 0 1 14.14 26.454Zm-10.785 6.483h4.823a21.348 21.348 0 0 1 21.337 21.336v4.195a4.812 4.812 0 0 1-4.798 4.797H754.79a4.811 4.811 0 0 1-4.797-4.797v-4.182a21.348 21.348 0 0 1 21.349-21.349Z" fill="#fff" opacity=".5"/><g opacity=".2" filter="url(#girl-email__c)"><path d="M623.755 927.568c0 10.96-136.498 19.844-304.877 19.844-168.38 0-304.878-8.884-304.878-19.844s136.498-19.844 304.878-19.844c168.379 0 304.877 8.884 304.877 19.844Z" fill="#0A0F1A"/></g><path d="M330.951 789.479a18.805 18.805 0 0 1-11.611 17.377 18.811 18.811 0 0 1-25.646-13.708 18.812 18.812 0 0 1 18.448-22.478 18.807 18.807 0 0 1 18.809 18.809Z" fill="#BAE6F0"/><path fill-rule="evenodd" clip-rule="evenodd" d="M381.223 519.614c8.756-5.831 20.58-3.46 26.411 5.296 36.06 54.148 68.013 116.192 76.947 169.183 4.483 26.592 3.558 53.163-7.924 75.528-11.907 23.192-33.558 38.786-63.891 45.807-10.249 2.372-20.48-4.013-22.852-14.262-2.372-10.248 4.013-20.479 14.261-22.851 21.617-5.004 32.758-14.728 38.593-26.092 6.258-12.191 8.022-29.414 4.249-51.797-7.58-44.959-35.922-101.592-71.09-154.401-5.831-8.756-3.46-20.58 5.296-26.411Z" fill="#F3C29F"/><path fill-rule="evenodd" clip-rule="evenodd" d="M379.981 517.895c9.705-6.516 22.855-3.932 29.372 5.773a797.46 797.46 0 0 1 51.975 89.437c5.205 10.467.941 23.172-9.526 28.378-10.467 5.205-23.172.94-28.378-9.526a755.169 755.169 0 0 0-49.215-84.69c-6.517-9.705-3.933-22.855 5.772-29.372Z" fill="#FB5A8B"/><path d="M415.534 829.495a4.918 4.918 0 0 0-.148-1.807l-2.135-5.733c-4.928-13.651-17.15-48.164-17.528-63.162-.641-25.577 3.088-69.404 5.29-84.09-4.124 2.185-8.132 5.207-12.419 5.207H233.555c-4.304 0-8.723-2.529-12.846-4.714 2.201 14.686 4.764 58.02 4.123 83.597-.377 14.998-12.517 49.511-17.527 63.162l-2.136 5.733a4.961 4.961 0 0 0-.148 1.807 1.121 1.121 0 0 0 0 .082c0 7.606 47.015 13.799 105.298 13.898 58.283.098 105.297-6.292 105.297-13.898a.706.706 0 0 0-.082-.082Z" fill="#FB5A8B"/><path d="M238.319 682.293a29.128 29.128 0 0 1-17.478-6.571l3.827 57.675c-.246-14.127 8.017-48.164 8.017-48.164.898.178 1.811.267 2.727.263 9.856-.46 38.16-2.612 38.16-2.612-17.988-.016-35.253-.591-35.253-.591Z" fill="#C64A79"/><path d="m312.914 679.187-92.205-3.991 4.271 75.301c1.955-46.915 87.934-71.31 87.934-71.31Z" fill="#EA4577"/><path d="M416.421 623.778c-7.523-32.312-25.921-107.991-25.921-107.991 0-3.712-22.522-5.027-73.052-6.012v-.247l-7.342.099-7.327-.099v.247c-50.529.985-73.051 2.3-73.051 6.012 0 0-18.398 75.679-25.922 107.991-7.261 31.212 14.16 58.645 34.497 58.645h143.622c20.32.049 41.823-27.499 34.496-58.645Z" fill="#FB5A8B"/><path d="M382.5 682.292s-17.265.575-35.253.575c0 0 39.803.312 44.764 20.041.378 1.873.755 3.811 1.117 5.782 1.643 9.052 3.121 18.678 3.022 24.641l4.929-58.891c-5.389 4.205-12.6 7.852-18.579 7.852Z" fill="#EA4577"/><path fill-rule="evenodd" clip-rule="evenodd" d="M243.061 519.959c8.756 5.831 11.127 17.656 5.296 26.411-34.69 52.091-59.634 109.587-65.576 155.113-2.973 22.776-.94 40.64 5.053 53.148 5.541 11.566 15.176 20.165 32.194 24.027 10.259 2.327 16.688 12.531 14.361 22.789-2.328 10.259-12.531 16.688-22.79 14.361-27.722-6.29-47.273-22.075-58.12-44.717-10.396-21.7-11.953-47.867-8.472-74.539 6.965-53.369 35.105-116.431 71.643-171.297 5.831-8.756 17.656-11.127 26.411-5.296Z" fill="#F3C29F"/><path fill-rule="evenodd" clip-rule="evenodd" d="M244.302 518.239c9.706 6.516 12.292 19.665 5.776 29.371a756.617 756.617 0 0 0-49.218 84.694c-5.207 10.466-17.913 14.73-28.379 9.523-10.466-5.207-14.729-17.913-9.522-28.379a798.909 798.909 0 0 1 51.972-89.433c6.515-9.705 19.665-12.291 29.371-5.776Z" fill="#FB5A8B"/><path d="M430.582 708.576H193.769a18.36 18.36 0 0 0-17.644 13.223 18.376 18.376 0 0 0-.541 7.803l16.887 116.205a10.694 10.694 0 0 0 10.514 9.15H421.3a10.688 10.688 0 0 0 10.579-9.15l16.887-116.205a18.356 18.356 0 0 0-10.54-19.366 18.364 18.364 0 0 0-7.644-1.66Z" fill="url(#girl-email__d)"/><path opacity=".8" d="M330.622 782.003a13.58 13.58 0 0 0-11.121-10.941 40.372 40.372 0 0 0-7.869-.772c-3.499 0-8.411.46-11.959 2.661-4.435 2.744-6.768 8.082-6.571 15.015.115 3.991 1.068 9.609 4.928 13.618 3.089 3.285 9.019 4.813 13.619 5.01v3.597a2.201 2.201 0 0 0 2.184 2.185h.197a2.117 2.117 0 0 0 1.216-.509c1.791-1.528 4.156-3.565 6.439-5.717l1.019-.92a33.778 33.778 0 0 0 4.928-5.289c3.236-4.518 4.32-11.22 2.99-17.938Z" fill="#DAE5EA"/><path d="m312.142 849.109-1.133.443-1.643-1.511 2.776 1.068Z" fill="#564B5E"/><path d="M565.216 750.383a.822.822 0 1 0-.001-1.644.822.822 0 0 0 .001 1.644Z" fill="#DF638D"/><path opacity=".6" d="M180.331 762.784s25.068 31.392 63.77 49.593c20.238 9.479 44.353 12.074 70.226 11.582 23.622-.444 54.11-9.397 77.453-20.337 31.212-14.637 52.074-32.148 50.76-31.212l-86.784 76.715-112.296 3.909-57.363-50.644-5.766-39.606Z" fill="#DEE8EC"/><path d="M538.424 934.823a108.092 108.092 0 0 1-29.125 4.173c-8.761.08-17.514-.508-26.185-1.758a347.96 347.96 0 0 1-47.639-10.497 16.034 16.034 0 0 1 5.471-31.425h.213a308.731 308.731 0 0 0 43.63.526 129.208 129.208 0 0 0 19.713-2.793 57.38 57.38 0 0 0 15.622-5.798 25.724 25.724 0 0 1 25.396 44.73 26.05 26.05 0 0 1-5.421 2.317l-1.675.525Z" fill="#212A3C"/><path d="M486.647 915.507c0 12.238-3.663 22.143-8.213 22.143l-15.212-2.069a793.209 793.209 0 0 1-85.864-4.058 831.462 831.462 0 0 1-86.554-13.142 665.115 665.115 0 0 1-65.988-17.1l108.025-44.205c17.725 6.571 35.778 12.353 54.028 17.593a760.164 760.164 0 0 0 80.115 18.513h.148c.296 0 .591.148.887.214h10.415c4.55-.017 8.213 9.889 8.213 22.111Z" fill="#146984"/><path d="M104.06 887.269a57.4 57.4 0 0 0 15.623 5.799 128.946 128.946 0 0 0 19.712 2.793 308.73 308.73 0 0 0 43.63-.526h.214a16.033 16.033 0 0 1 5.454 31.425 347.187 347.187 0 0 1-47.639 10.497 172.466 172.466 0 0 1-26.135 1.741 108.133 108.133 0 0 1-29.126-4.172l-1.642-.477a25.717 25.717 0 0 1-16.085-13.631 25.722 25.722 0 0 1 14.94-35.444 25.72 25.72 0 0 1 20.989 1.995h.065Z" fill="#212A3C"/><path d="m508.051 848.796-1.38 1.002a298.161 298.161 0 0 1-43.318 26.021 418.33 418.33 0 0 1-43.368 18.447 630.076 630.076 0 0 1-86.587 24.082 830.588 830.588 0 0 1-86.538 13.142 793.49 793.49 0 0 1-85.88 4.057l-15.195 2.07c-4.518 0-8.214-9.856-8.214-22.143 0-12.288 3.647-22.128 8.214-22.128H156.2c.295 0 .575-.164.887-.213h.147a671.381 671.381 0 0 0 24.641-4.715c1.38-.279 2.76-.558 4.123-.87 155.696-6.308 254.899-113.478 256.443-115.154a170.013 170.013 0 0 0 3.433-3.499 53.365 53.365 0 0 1 6.752-5.947c22.275-16.246 52.731-10.201 68.008 13.503 15.277 23.705 9.708 56.082-12.583 72.345Z" fill="#167491"/><path d="M267.295 829.297c13.684 6.718 30.506 14.012 44.846 19.811a498.171 498.171 0 0 1-56.591 10.037c-48.279 5.667-113.248 7.31-122.562 1.018-.509-.312-1.019-.624-1.528-.969l-.279-.164a279.18 279.18 0 0 1-13.503-9.232l-1.38-1.002c-22.291-16.263-27.926-48.657-12.698-72.361 15.228-23.705 45.651-29.75 67.942-13.471a53.365 53.365 0 0 1 6.752 5.947 209.05 209.05 0 0 0 26.776 23.343 348.113 348.113 0 0 0 32.131 21.01 490.47 490.47 0 0 0 30.094 16.033Z" fill="#167491"/><path d="M312.142 849.108c-23.967 9.544-49.758 18.332-74.776 25.527-16.016 4.583-33.495 8.986-49.856 12.6l-.624.312-.28-.115-.509.115.362-.181a410.884 410.884 0 0 1-25.528-11.499 316.576 316.576 0 0 1-27.926-15.655c15.228 10.316 179.137-11.104 179.137-11.104Z" fill="#146984"/><path d="M442.54 772.395c-1.544 1.643-100.747 108.846-256.442 115.154l1.363-.296a798.736 798.736 0 0 0 49.873-12.616 790.206 790.206 0 0 0 74.776-25.528l2.71-1.067a569.017 569.017 0 0 0 72.279-34.809 348.33 348.33 0 0 0 32.131-21.011 220.61 220.61 0 0 0 23.31-19.827Z" fill="#146984"/><path d="M295.125 322.422c3.158-.508 37.667-24.784 68.24 6.051 21.632 21.805 1.845 36.214 20.361 51.241 16.403 13.319 31.7 43.409 8.058 77.606-40.394 58.4-36.683 43.355-64.918 50.732-50.134 13.137-42.403-14.119-42.403-14.119l10.662-171.511Z" fill="#211F36"/><path d="M295.533 318.986c11.256-4.609 23.031-9.014 35.672-9.363 6.376-.306 12.728.95 18.442 3.647 5.699 2.923 10.293 7.457 13.139 12.969a85.86 85.86 0 0 1 7.272 16.391 151.207 151.207 0 0 1 4.33 17.168c1.19 5.737 2.164 11.474 3.831 17.005a48.516 48.516 0 0 0 6.991 15.53 41.963 41.963 0 0 0 5.823 6.413 41.292 41.292 0 0 1 5.866 7.171c3.342 5.171 5.55 10.927 6.493 16.923 1.862 11.965-1.125 24.012-5.974 34.829-5.055 10.768-11.607 20.848-19.481 29.974a245.168 245.168 0 0 1-25.217 25.631 273.814 273.814 0 0 0 24.114-26.45c7.412-9.237 13.578-19.313 18.355-29.995 4.524-10.674 6.991-22.311 5.151-33.538-.918-5.588-3.024-10.94-6.19-15.735a40.889 40.889 0 0 0-5.476-6.618 45.045 45.045 0 0 1-6.234-6.822 51.561 51.561 0 0 1-7.555-16.391c-1.601-5.736-2.619-11.534-3.788-17.25-2.164-11.392-5.194-22.66-10.952-32.781-2.5-5.124-6.583-9.411-11.71-12.293-5.317-2.701-11.284-4.05-17.317-3.913a79.65 79.65 0 0 0-18.074 2.274c-5.887 1.311-11.645 3.442-17.511 5.224Zm27.72 111.557a20.105 20.105 0 0 0-9.307-13.338 43.612 43.612 0 0 0-15.518-6.232 49.17 49.17 0 0 0-16.724 0 75.429 75.429 0 0 0-30.933 12.07 54.66 54.66 0 0 0-12.174 11.177 43.62 43.62 0 0 0-9.39 30.767c.187 2.763.602 5.443.914 8.31a58.17 58.17 0 0 1 .249 8.725 50.823 50.823 0 0 1-3.926 16.973c-4.529 10.823-12.465 19.424-19.051 28.419a34.262 34.262 0 0 0-6.71 14.854 23.27 23.27 0 0 0 .457 8.123 35.296 35.296 0 0 0 2.971 7.728 42.746 42.746 0 0 1 5.173 16.308 35.692 35.692 0 0 1-.291 8.559 69.801 69.801 0 0 1-2.077 8.31 46.779 46.779 0 0 0 1.475-16.765 41.867 41.867 0 0 0-5.63-15.705 34.336 34.336 0 0 1-3.324-8.019 24.912 24.912 0 0 1-.707-8.767 36.235 36.235 0 0 1 6.711-15.976c3.22-4.778 6.814-9.182 10.075-13.753a70.949 70.949 0 0 0 8.31-14.417 46.967 46.967 0 0 0 3.573-16.038 55.048 55.048 0 0 0-.291-8.31c-.311-2.68-.789-5.588-.997-8.497a48.55 48.55 0 0 1 2.078-17.347 45.691 45.691 0 0 1 8.31-15.331 56.682 56.682 0 0 1 12.88-11.634 68.341 68.341 0 0 1 15.415-7.687 75.08 75.08 0 0 1 16.744-4.009 49.984 49.984 0 0 1 17.222.582 44.374 44.374 0 0 1 15.664 6.917 24.253 24.253 0 0 1 6.004 6.087 16.746 16.746 0 0 1 2.825 7.916Z" fill="#2C2A46"/><path d="M327.408 326.44a16.245 16.245 0 0 0-3.241-7.5 23.573 23.573 0 0 0-5.837-5.609 42.754 42.754 0 0 0-15.02-6.232c-5.194-1.371-10.388.872-15.124 3.511a136.02 136.02 0 0 0-13.462 9.39c-4.404 3.324-8.808 6.689-13.587 9.619-4.778 2.929-10.075 5.027-14.895 7.437a27.364 27.364 0 0 0-6.482 4.383 17.821 17.821 0 0 0-4.155 6.233 41.535 41.535 0 0 0-1.952 15.705c.623 10.928.81 22.374-2.327 33.24a44.21 44.21 0 0 1-7.624 15.123c-3.449 4.529-7.729 8.144-11.156 12.278a29.437 29.437 0 0 0-6.69 14.314 52.35 52.35 0 0 0 0 16.204 150.492 150.492 0 0 0 3.428 16.121c.665 2.68 1.33 5.36 1.766 8.102a20.44 20.44 0 0 1 0 8.31 20.411 20.411 0 0 0-.416-8.164c-.561-2.68-1.329-5.339-2.077-7.978a155.01 155.01 0 0 1-4.155-16.1 52.618 52.618 0 0 1-.395-16.744 31.325 31.325 0 0 1 6.752-15.477c3.532-4.425 7.624-8.123 10.865-12.465a41.445 41.445 0 0 0 7.043-14.293 68.98 68.98 0 0 0 2.326-16.017v-8.165l-.415-8.31a43.017 43.017 0 0 1 2.264-16.91 20.781 20.781 0 0 1 4.945-7.313 30.093 30.093 0 0 1 7.209-4.799c5.069-2.472 10.179-4.383 14.77-7.208 4.591-2.826 9.058-5.838 13.628-9.017a137.91 137.91 0 0 1 13.94-9.161 34.103 34.103 0 0 1 7.832-3.22 15.77 15.77 0 0 1 8.559 0 43.621 43.621 0 0 1 15.145 6.938 19.863 19.863 0 0 1 8.538 13.774Z" fill="#2C2A46"/><path d="M320.593 539.781c11.531 0 20.879-7.701 20.879-17.201s-9.348-17.202-20.879-17.202-20.878 7.702-20.878 17.202c0 9.5 9.347 17.201 20.878 17.201Z" fill="#EFB8C2"/><path d="M320.593 539.781c11.531 0 20.879-7.701 20.879-17.201s-9.348-17.202-20.879-17.202-20.878 7.702-20.878 17.202c0 9.5 9.347 17.201 20.878 17.201Z" fill="#F3C29F"/><path fill-rule="evenodd" clip-rule="evenodd" d="M320.594 506.61c-11.085 0-19.647 7.363-19.647 15.97s8.562 15.969 19.647 15.969c11.084 0 19.646-7.362 19.646-15.969s-8.562-15.97-19.646-15.97Zm-22.111 15.97c0-10.393 10.134-18.434 22.111-18.434s22.11 8.041 22.11 18.434-10.133 18.433-22.11 18.433-22.111-8.04-22.111-18.433Z" fill="#F3C29F"/><path d="M322.276 473.156h-3.386a63.027 63.027 0 0 1-13.649-1.475v39.472a13.762 13.762 0 0 0 4.087 9.721 13.748 13.748 0 0 0 9.77 3.969h3.178a13.743 13.743 0 0 0 9.732-4.035 13.752 13.752 0 0 0 4.021-9.738v-39.368a64.218 64.218 0 0 1-13.753 1.454Z" fill="#F3C29F"/><path d="M305.283 500.491v11.364s3.303-5.63 15.352-5.672c12.049-.041 15.332 6.233 15.332 6.233v-13.67l-30.726-.519.042 2.264Z" fill="#E8AA7D"/><path d="M386.117 375.654v64.401c0 28.898-21.481 53.038-50.192 58.938a67.002 67.002 0 0 1-13.649 1.392h-3.386a65.761 65.761 0 0 1-13.649-1.413c-28.689-5.921-50.191-30.082-50.191-58.917v-64.401c0-33.239 28.586-60.246 63.84-60.246h3.386c35.276 0 63.841 27.007 63.841 60.246Z" fill="#F3C29F"/><path d="M256.628 400.654v29.209a9.93 9.93 0 0 1-9.764-9.951v-9.307a9.952 9.952 0 0 1 9.764-9.951Z" fill="#EFB8C2"/><path d="M391.808 428.676v9.307a9.932 9.932 0 0 1-9.764 9.951v-29.21a9.95 9.95 0 0 1 9.764 9.952Z" fill="#F3C29F"/><path d="M289.578 386.044c-9.308 14.023 12.236 28.523-6.233 60.682-8.995 15.685-7.603 24.494-3.054 30.726 4.82 6.419 19.404 11.509 25.885 21.772 9.557 15.207 14.397 39.285-10.532 71.88-30.83 40.282-41.092 40.614-52.332 67.06a4.513 4.513 0 0 1-4.023 3.278 4.509 4.509 0 0 1-1.814-.245 63.967 63.967 0 0 1-19.196-50.399c2.306-31.681-20.442-36.688-19.113-50.004 2.078-21.086 11.177-13.566 28.669-40.345 3.491-5.359 4.82-13.212-8.85-24.327-13.669-11.114-17.471-39.305-5.11-48.965 12.361-9.66 16.994-25.096 9.93-36.48-2.617-4.155-19.299-29.417 16.474-49.34 6.337-3.511 19.819-15.145 27.651-25.927 7.209-9.951 42.214-19.237 58.564-5.401 16.35 13.836 69.47 32.408 48.883 72.295-11.78 22.873-70.489-19.258-85.799 3.74Z" fill="#2C2A46"/><path d="M369.561 322.328c-8.061-5.796-8.185-20.775-43.066-12.465-20.421 5.048 60.08 82.413 59.623 109.835 0 0 25.532-20.774 15.872-48.051-5.817-16.496-6.357-30.56-32.429-49.319Z" fill="#2C2A46"/><path d="M403.145 373.182a36.507 36.507 0 0 0-1.19-10.868 41.53 41.53 0 0 0-3.931-9.933 59.371 59.371 0 0 0-13.934-16.378 167.083 167.083 0 0 1-8.513-7.183c-2.793-2.519-5.318-5.077-8.831-6.025a94.836 94.836 0 0 0-10.81-2.239l-11.123-1.922 11.108 1.085c3.733.333 7.44.913 11.096 1.737a14.933 14.933 0 0 1 5.272 2.397c1.586 1.118 2.978 2.346 4.411 3.569a174.679 174.679 0 0 0 8.698 6.863 43.787 43.787 0 0 1 15.344 16.702 29.709 29.709 0 0 1 2.403 22.195Z" fill="#2C2A46"/><defs><filter id="girl-email__a" x="528.955" y="122" width="485.654" height="474.46" filterUnits="userSpaceOnUse" color-interpolation-filters="sRGB"><feFlood flood-opacity="0" result="BackgroundImageFix"/><feColorMatrix in="SourceAlpha" values="0 0 0 0 0 0 0 0 0 0 0 0 0 0 0 0 0 0 127 0" result="hardAlpha"/><feOffset dy="2"/><feGaussianBlur stdDeviation="6"/><feColorMatrix values="0 0 0 0 0.374547 0 0 0 0 0.481553 0 0 0 0 0.601935 0 0 0 0.15 0"/><feBlend in2="BackgroundImageFix" result="effect1_dropShadow_10272_1591"/><feBlend in="SourceGraphic" in2="effect1_dropShadow_10272_1591" result="shape"/></filter><filter id="girl-email__b" x="470.245" y="735.755" width="637.755" height="67.688" filterUnits="userSpaceOnUse" color-interpolation-filters="sRGB"><feFlood flood-opacity="0" result="BackgroundImageFix"/><feBlend in="SourceGraphic" in2="BackgroundImageFix" result="shape"/><feGaussianBlur stdDeviation="7" result="effect1_foregroundBlur_10272_1591"/></filter><filter id="girl-email__c" x="0" y="893.724" width="637.755" height="67.688" filterUnits="userSpaceOnUse" color-interpolation-filters="sRGB"><feFlood flood-opacity="0" result="BackgroundImageFix"/><feBlend in="SourceGraphic" in2="BackgroundImageFix" result="shape"/><feGaussianBlur stdDeviation="7" result="effect1_foregroundBlur_10272_1591"/></filter><linearGradient id="girl-email__d" x1="312.143" y1="854.957" x2="312.143" y2="708.576" gradientUnits="userSpaceOnUse"><stop offset=".21" stop-color="#F5F8F9"/><stop offset="1" stop-color="#fff"/></linearGradient></defs></svg>