<svg xmlns="http://www.w3.org/2000/svg" width="1080" height="1104" viewBox="0 0 1080 1104" fill="none"><g clip-path="url(#a)"><path fill="#1E6BF1" fill-rule="evenodd" d="m215.757 517.155-23.04-48.879a4.813 4.813 0 0 1 2.302-6.406l21.361-10.069a107.5 107.5 0 0 1-.964-20.309l-22.229-7.986a4.813 4.813 0 0 1-2.902-6.157l18.271-50.855a4.814 4.814 0 0 1 6.157-2.903l22.229 7.987a107.5 107.5 0 0 1 13.669-15.052l-10.068-21.359a4.813 4.813 0 0 1 2.301-6.406l48.88-23.04a4.813 4.813 0 0 1 6.406 2.301l10.068 21.359a107.5 107.5 0 0 1 20.309-.964l7.987-22.23a4.813 4.813 0 0 1 6.157-2.902l50.855 18.271a4.814 4.814 0 0 1 2.903 6.157l-7.987 22.229a107.5 107.5 0 0 1 15.052 13.669l21.357-10.067a4.813 4.813 0 0 1 6.406 2.302l23.04 48.879a4.813 4.813 0 0 1-2.301 6.406l-21.356 10.067c.971 6.781 1.282 13.58.964 20.311l22.229 7.987a4.81 4.81 0 0 1 2.902 6.157l-18.271 50.855a4.814 4.814 0 0 1-6.157 2.902l-22.229-7.986a107.5 107.5 0 0 1-13.67 15.053l10.067 21.358a4.813 4.813 0 0 1-2.301 6.406l-48.88 23.04a4.814 4.814 0 0 1-6.406-2.301l-10.067-21.359a107.5 107.5 0 0 1-20.311.964l-7.986 22.228a4.81 4.81 0 0 1-6.157 2.902l-50.855-18.271a4.813 4.813 0 0 1-2.902-6.157l7.986-22.229a107.5 107.5 0 0 1-15.053-13.67l-21.36 10.069a4.814 4.814 0 0 1-6.406-2.302m123.531-47.153c18.501-8.721 26.429-30.789 17.709-49.29-8.721-18.501-30.789-26.43-49.29-17.709s-26.43 30.789-17.709 49.29 30.789 26.429 49.29 17.709" clip-rule="evenodd"/><path fill="#0096FA" fill-rule="evenodd" d="m436.198 522.583.103 109.33c.005 5.378 4.369 9.742 9.747 9.747l47.774.045a218 218 0 0 0 15.791 38.016l-33.76 33.759c-3.799 3.8-3.793 9.965.013 13.772l77.38 77.38c3.807 3.806 9.972 3.812 13.772.013l33.759-33.759a218 218 0 0 0 38.017 15.792l.045 47.774c.005 5.378 4.369 9.742 9.747 9.747l109.33.103a9.715 9.715 0 0 0 9.728-9.729l-.044-47.774a217 217 0 0 0 37.985-15.719l33.824 33.824c3.806 3.806 9.972 3.812 13.771.012l77.236-77.235c3.799-3.799 3.793-9.965-.013-13.771l-33.824-33.824a217 217 0 0 0 15.722-37.989l47.771.045a9.716 9.716 0 0 0 9.729-9.729l-.103-109.33c-.005-5.378-4.369-9.742-9.747-9.747l-47.772-.044a218 218 0 0 0-15.792-38.016l33.76-33.76c3.799-3.8 3.794-9.965-.013-13.772l-31.532-31.533 8.4 44.464-49.144 10.253 5.304 33.587-29.66 26.985-30.798-25.924 28.991-8.485-9.899-45.255 39.951-10.253 2.829-59.397-11.822-11.822c-3.806-3.807-9.972-3.812-13.771-.013l-33.761 33.761a218 218 0 0 0-38.015-15.791l-.044-47.772c-.005-5.378-4.369-9.742-9.747-9.747l-109.33-.103a9.716 9.716 0 0 0-9.729 9.729l.045 47.773a217 217 0 0 0-37.987 15.721l-33.823-33.823c-3.806-3.806-9.972-3.812-13.771-.013l-77.236 77.235c-3.799 3.8-3.793 9.965.013 13.772l33.823 33.823a217 217 0 0 0-15.719 37.983l-47.775-.044a9.715 9.715 0 0 0-9.729 9.728m401.818 55.042c-.07-74.567-60.575-135.072-135.142-135.142s-134.958 60.322-134.888 134.889c.069 74.566 60.575 135.072 135.141 135.141 74.567.07 134.959-60.321 134.889-134.888" clip-rule="evenodd"/><path fill="#0096FA" d="m865.187 318.507-12.143-36.799a8 8 0 0 1 5.2-10.139l65.162-20.458c5.847-1.836 11.502 3.316 10.218 9.309l-12.269 57.256a8 8 0 0 1-7.822 6.324h-40.749a8 8 0 0 1-7.597-5.493M977.017 221.845l-14.609-42.095a8 8 0 0 1 3.662-9.61l21.563-12.023a8 8 0 0 1 10.528 2.514l21.829 32.37a8 8 0 0 1-1.81 10.856l-28.782 21.748c-4.333 3.274-10.6 1.371-12.381-3.76"/><path fill="#141414" fill-rule="evenodd" d="m137.628 828 15.207 32.352a6.5 6.5 0 0 0 8.661 3.121l28.879-13.651a145.5 145.5 0 0 0 20.352 18.534l-10.798 30.138c-1.215 3.392.542 7.129 3.924 8.348l68.759 24.772a6.503 6.503 0 0 0 8.325-3.935l10.798-30.137c9.1.431 18.292.009 27.459-1.307l13.612 28.958a6.5 6.5 0 0 0 8.661 3.12l66.088-31.238c3.251-1.537 4.644-5.425 3.112-8.685l-13.611-28.956a145.7 145.7 0 0 0 18.483-20.409l30.047 10.825c3.383 1.219 7.11-.543 8.325-3.935l24.704-68.949c1.215-3.392-.542-7.129-3.924-8.348l-30.047-10.825c.43-9.126.009-18.345-1.304-27.54l28.877-13.649c3.251-1.536 4.644-5.425 3.112-8.685l-31.152-66.271a6.5 6.5 0 0 0-8.661-3.121l-28.878 13.65a145.5 145.5 0 0 0-20.351-18.532l10.798-30.139c1.215-3.392-.542-7.129-3.924-8.348l-68.759-24.772c-3.382-1.218-7.109.543-8.325 3.935l-10.798 30.139a145 145 0 0 0-27.462 1.308l-13.613-28.959a6.5 6.5 0 0 0-8.661-3.121l-66.088 31.238c-3.251 1.537-4.644 5.425-3.112 8.685l13.613 28.961a145.6 145.6 0 0 0-18.48 20.407l-30.062-10.83c-3.383-1.219-7.11.543-8.325 3.934l-24.704 68.95c-1.215 3.392.542 7.129 3.924 8.348l30.063 10.831a146 146 0 0 0 1.303 27.533l-28.88 13.651c-3.251 1.536-4.644 5.425-3.112 8.685l5.368 11.419H127l10.5 22.5zm0 0H228v-28l-34-18.5-9.5 24h-57.449zm224.471-107.06c-16.555-35.22-58.449-50.313-93.572-33.712-35.122 16.602-50.174 58.611-33.618 93.831s58.449 50.314 93.571 33.712 50.175-58.611 33.619-93.831" clip-rule="evenodd"/><path fill="#141414" d="M55.442 801H99.28c1.766 0 2.665 2.122 1.436 3.391l-26.444 27.312a2 2 0 0 1-1.856.565l-24.731-5.3a2 2 0 0 1-1.478-2.588l7.337-22.012A2 2 0 0 1 55.442 801M19.426 751.691l16.25 5.834A2 2 0 0 1 37 759.407v20.619a2 2 0 0 1-2.42 1.956l-23.395-5.014a2 2 0 0 1-1.478-2.588l7.146-21.439a2 2 0 0 1 2.573-1.25"/></g><defs><clipPath id="a"><path fill="#fff" d="M0 0h1080v1103.51H0z"/></clipPath></defs></svg>