<svg width="1080" height="1080" viewBox="0 0 1080 1080" fill="none" xmlns="http://www.w3.org/2000/svg">
<path d="M867.484 798.315C984.389 798.315 1079.16 703.545 1079.16 586.64C1079.16 469.735 984.389 374.965 867.484 374.965C750.579 374.965 655.809 469.735 655.809 586.64C655.809 703.545 750.579 798.315 867.484 798.315Z" fill="#1968F0"/>
<path d="M167.072 200H943.953C951.572 200 957.806 206.234 957.806 213.853V708.962C957.806 716.582 951.572 722.816 943.953 722.816H167.072C159.453 722.816 153.219 716.582 153.219 708.962V213.853C153.219 206.234 159.453 200 167.072 200Z" fill="url(#paint0_linear_10272_1586)"/>
<path d="M186.051 271.483H924.974" stroke="#1968F0" stroke-width="3" stroke-miterlimit="10"/>
<path d="M236.06 253.612C242.028 253.612 246.866 248.774 246.866 242.806C246.866 236.839 242.028 232.001 236.06 232.001C230.093 232.001 225.255 236.839 225.255 242.806C225.255 248.774 230.093 253.612 236.06 253.612Z" stroke="#1968F0" stroke-width="3" stroke-miterlimit="10"/>
<path d="M273.325 253.612C279.293 253.612 284.131 248.774 284.131 242.806C284.131 236.839 279.293 232.001 273.325 232.001C267.357 232.001 262.52 236.839 262.52 242.806C262.52 248.774 267.357 253.612 273.325 253.612Z" stroke="#1968F0" stroke-width="3" stroke-miterlimit="10"/>
<path d="M188.544 254.027L211.125 231.447" stroke="#1968F0" stroke-width="3" stroke-miterlimit="10"/>
<path d="M188.544 231.447L211.125 254.027" stroke="#1968F0" stroke-width="3" stroke-miterlimit="10"/>
<path d="M868.315 670.451H641.679C635.583 670.451 630.596 665.464 630.596 659.369V605.895C630.596 599.8 635.583 594.813 641.679 594.813H868.315C874.41 594.813 879.397 599.8 879.397 605.895V659.369C879.397 665.464 874.41 670.451 868.315 670.451Z" fill="#072F73"/>
<path d="M660.242 632.633H850.306" stroke="white" stroke-width="3" stroke-miterlimit="10"/>
<path d="M991.33 545.081H690.718C683.099 545.081 676.865 538.847 676.865 531.228V342.133C676.865 334.514 683.099 328.28 690.718 328.28H991.33C998.949 328.28 1005.18 334.514 1005.18 342.133V531.228C1005.18 538.847 998.949 545.081 991.33 545.081Z" fill="#35DE90"/>
<path d="M439.424 604.649H415.874C411.995 604.649 408.947 607.697 408.947 611.576V670.451H446.35V611.576C446.35 607.697 443.303 604.649 439.424 604.649Z" fill="#0096FA"/>
<path d="M557.036 574.172H533.486C529.607 574.172 526.56 577.22 526.56 581.099V670.312H563.963V581.099C563.963 577.359 560.915 574.172 557.036 574.172Z" fill="#35DE90"/>
<path d="M392.601 670.451H580.171" stroke="#1968F0" stroke-width="3" stroke-miterlimit="10"/>
<path d="M498.3 527.21H474.749C470.87 527.21 467.823 530.258 467.823 534.136V670.312H505.226V534.136C505.226 530.396 502.04 527.21 498.3 527.21Z" fill="#1968F0"/>
<path d="M1039.68 445.199C1058.73 445.199 1074.17 429.757 1074.17 410.706C1074.17 391.655 1058.73 376.211 1039.68 376.211C1020.63 376.211 1005.18 391.655 1005.18 410.706C1005.18 429.757 1020.63 445.199 1039.68 445.199Z" fill="#072F73"/>
<path d="M643.895 782.384C677.941 782.384 705.541 754.784 705.541 720.738C705.541 686.691 677.941 659.091 643.895 659.091C609.849 659.091 582.249 686.691 582.249 720.738C582.249 754.784 609.849 782.384 643.895 782.384Z" fill="#0096FA"/>
<path d="M777.439 650.502C787.308 650.502 795.309 642.502 795.309 632.633C795.309 622.763 787.308 614.762 777.439 614.762C767.569 614.762 759.568 622.763 759.568 632.633C759.568 642.502 767.569 650.502 777.439 650.502Z" fill="#0096FA"/>
<path d="M975.953 356.817H706.234V516.682H975.953V356.817Z" stroke="white" stroke-width="2" stroke-miterlimit="10"/>
<path d="M841.024 356.817V516.682" stroke="white" stroke-width="2" stroke-miterlimit="10"/>
<path d="M773.698 356.817V516.682" stroke="white" stroke-width="2" stroke-miterlimit="10"/>
<path d="M908.489 356.817V516.682" stroke="white" stroke-width="2" stroke-miterlimit="10"/>
<path d="M975.815 436.75H706.234" stroke="white" stroke-width="2" stroke-miterlimit="10"/>
<path d="M975.815 396.714H706.234" stroke="white" stroke-width="2" stroke-miterlimit="10"/>
<path d="M975.815 476.646H706.234" stroke="white" stroke-width="2" stroke-miterlimit="10"/>
<path d="M701.385 516.682C701.385 516.682 745.161 436.75 773.699 436.75C804.175 436.75 803.206 476.646 841.163 476.646C873.995 476.646 879.397 375.519 908.627 375.519C935.641 375.519 928.437 436.75 976.092 436.75" stroke="#0096FA" stroke-width="4" stroke-miterlimit="10"/>
<path d="M607.184 502.69L18.1518 436.888C10.5326 436.057 5.12987 429.13 5.96106 421.65L18.1518 312.627C18.983 305.008 25.9096 299.604 33.3902 300.435L622.423 366.237C630.042 367.069 635.445 373.995 634.614 381.476L622.423 490.5C621.73 498.119 614.804 503.66 607.184 502.69Z" fill="url(#paint1_linear_10272_1586)"/>
<path d="M483.892 395.052L513.538 352.523L486.385 335.484L461.312 377.459L483.892 395.052Z" fill="#FCAA73"/>
<path d="M467.545 369.424L465.468 342.133L469.762 341.301L475.857 357.232L467.545 369.424Z" fill="#FCAA73"/>
<path d="M125.374 354.046L105.426 306.115L135.487 295.171L151.003 341.579L125.374 354.046Z" fill="#FCAA73"/>
<path d="M146.708 332.297L154.604 306.253L150.587 304.453L141.167 318.583L146.708 332.297Z" fill="#FCAA73"/>
<path d="M299.646 836.411L352.565 836.688C353.258 839.874 355.474 851.511 368.08 852.342C391.908 853.866 382.21 865.364 382.21 865.364H295.075L299.646 836.411Z" fill="#072F73"/>
<path d="M238 392.974C254.066 392.974 267.091 379.95 267.091 363.883C267.091 347.816 254.066 334.792 238 334.792C221.933 334.792 208.908 347.816 208.908 363.883C208.908 379.95 221.933 392.974 238 392.974Z" fill="#35DE90"/>
<path d="M362.4 412.091C378.467 412.091 391.492 399.067 391.492 383C391.492 366.933 378.467 353.908 362.4 353.908C346.334 353.908 333.309 366.933 333.309 383C333.309 399.067 346.334 412.091 362.4 412.091Z" fill="#35DE90"/>
<path d="M422.107 488.144C438.174 488.144 451.199 475.119 451.199 459.053C451.199 442.986 438.174 429.961 422.107 429.961C406.041 429.961 393.016 442.986 393.016 459.053C393.016 475.119 406.041 488.144 422.107 488.144Z" fill="#35DE90"/>
<path d="M399.798 476.954L445.374 441.007L384.976 364.429L339.4 400.376L399.798 476.954Z" fill="#35DE90"/>
<path d="M501.381 400.642L454.714 366.123L398.033 442.752L444.701 477.27L501.381 400.642Z" fill="#35DE90"/>
<path d="M341.067 523.193L218.329 495.348L240.494 335.207L371.128 355.016L341.067 523.193Z" fill="#35DE90"/>
<path d="M166.518 459.745C182.585 459.745 195.609 446.72 195.609 430.654C195.609 414.587 182.585 401.562 166.518 401.562C150.451 401.562 137.427 414.587 137.427 430.654C137.427 446.72 150.451 459.745 166.518 459.745Z" fill="#35DE90"/>
<path d="M258.168 385.013L218.605 342.542L147.246 409.015L186.809 451.486L258.168 385.013Z" fill="#35DE90"/>
<path d="M105.703 350.998L160.423 331.328L194.778 423.451L140.059 443.121L105.703 350.998Z" fill="#35DE90"/>
<path d="M348.409 258.322L301.447 252.781L297.43 255.967L287.178 342.411L321.673 347.675L323.196 334.237L338.989 336.177C340.513 334.93 341.482 334.236 343.006 332.989L351.318 262.478L348.409 258.322Z" fill="#FCAA73"/>
<path d="M289.118 326.48L308.512 328.418L328.876 318.721L352.703 259.708L297.984 251.811L289.118 326.48Z" fill="black"/>
<path d="M295.906 268.435L355.058 276.054C356.859 276.331 358.522 275.5 359.353 273.976L367.665 259.708C369.189 256.937 367.526 253.612 364.478 253.196L298.953 244.885L295.906 268.435Z" fill="black"/>
<path d="M344.115 315.258L332.062 313.735C329.153 313.319 326.937 310.686 327.352 307.639L328.738 296.972L346.193 299.189L344.115 315.258Z" fill="#FCAA73"/>
<path d="M347.439 293.925L352.011 314.565L343.283 315.12L347.439 293.925Z" fill="#FCAA73"/>
<path d="M297.153 687.906L285.378 543.696L210.432 549.79L221.653 687.49L175.8 817.709L246.727 842.645L295.213 704.807C297.152 699.127 297.707 693.447 297.153 687.906Z" fill="url(#paint2_linear_10272_1586)"/>
<path d="M329.846 728.911C350.579 728.911 367.388 712.103 367.388 691.369C367.388 670.635 350.579 653.828 329.846 653.828C309.112 653.828 292.304 670.635 292.304 691.369C292.304 712.103 309.112 728.911 329.846 728.911Z" fill="#1968F0"/>
<path d="M367.526 691.369H292.304V837.519H367.526V691.369Z" fill="#1968F0"/>
<path d="M366.418 682.642L292.304 691.369L249.775 543.556H329.846L366.418 682.642Z" fill="#1968F0"/>
<path d="M334.279 567.246L210.294 549.79L218.329 495.348L342.037 518.345L334.279 567.246Z" fill="#1968F0"/>
<mask id="mask0_10272_1586" style="mask-type:luminance" maskUnits="userSpaceOnUse" x="220" y="841" width="58" height="36">
<path d="M237.169 841.121L220.406 877L277.897 872.151L263.628 847.216L237.169 841.121Z" fill="white"/>
</mask>
<g mask="url(#mask0_10272_1586)">
<path d="M172.891 836.411L225.81 836.688C226.502 839.874 228.719 851.511 241.325 852.342C265.152 853.866 255.455 865.364 255.455 865.364H168.319L172.891 836.411Z" fill="#072F73"/>
</g>
<path d="M237.307 854.558C230.104 849.017 231.489 839.874 231.766 837.103L181.895 819.51L168.18 845.277L226.086 865.364L237.307 854.558Z" fill="#072F73"/>
<path d="M229.965 411.121L235.645 370.393L190.623 447.832L229.965 411.121Z" fill="url(#paint3_linear_10272_1586)"/>
<defs>
<linearGradient id="paint0_linear_10272_1586" x1="69.4237" y1="65.5095" x2="1014.41" y2="835.103" gradientUnits="userSpaceOnUse">
<stop stop-color="white"/>
<stop offset="0.1444" stop-color="#E3EDFD"/>
<stop offset="0.2921" stop-color="#CDDEFC"/>
<stop offset="0.387" stop-color="#C5D9FB"/>
<stop offset="0.6138" stop-color="#C3D8FB"/>
<stop offset="0.7029" stop-color="#BCD3FA"/>
<stop offset="0.7678" stop-color="#B0CBFA"/>
<stop offset="0.8209" stop-color="#9FC0F9"/>
<stop offset="0.8668" stop-color="#88B1F7"/>
<stop offset="0.9078" stop-color="#6C9FF5"/>
<stop offset="0.9451" stop-color="#4B89F3"/>
<stop offset="0.9784" stop-color="#2671F1"/>
<stop offset="0.9886" stop-color="#1968F0"/>
</linearGradient>
<linearGradient id="paint1_linear_10272_1586" x1="116.831" y1="193.706" x2="526.436" y2="612.157" gradientUnits="userSpaceOnUse">
<stop stop-color="#0096FA"/>
<stop offset="0.3963" stop-color="#0193F9"/>
<stop offset="0.6312" stop-color="#068BF8"/>
<stop offset="0.8235" stop-color="#0E7DF5"/>
<stop offset="0.9925" stop-color="#1869F0"/>
<stop offset="1" stop-color="#1968F0"/>
</linearGradient>
<linearGradient id="paint2_linear_10272_1586" x1="187.766" y1="702.492" x2="376.241" y2="673.242" gradientUnits="userSpaceOnUse">
<stop offset="0.307" stop-color="#1968F0"/>
<stop offset="0.6914" stop-color="#0C4EC0"/>
</linearGradient>
<linearGradient id="paint3_linear_10272_1586" x1="193.319" y1="396.678" x2="254.668" y2="435.076" gradientUnits="userSpaceOnUse">
<stop offset="0.3237" stop-color="#35DE90"/>
<stop offset="0.3845" stop-color="#32D48E"/>
<stop offset="0.4882" stop-color="#2BB98A"/>
<stop offset="0.6223" stop-color="#208D83"/>
<stop offset="0.7798" stop-color="#105078"/>
<stop offset="0.8589" stop-color="#072F73"/>
</linearGradient>
</defs>
</svg>
