<svg width="1081" height="1079" viewBox="0 0 1081 1079" fill="none" xmlns="http://www.w3.org/2000/svg"><path d="M559.446 286.865H178.889c-6.736 0-12.196 5.481-12.196 12.241v336.831c0 6.761 5.46 12.241 12.196 12.241h380.557c6.736 0 12.197-5.48 12.197-12.241V299.106c0-6.76-5.461-12.241-12.197-12.241Z" fill="#F5F8F9"/><path d="M166.693 320.902v-21.464a11.649 11.649 0 0 1 3.463-8.27 11.878 11.878 0 0 1 8.351-3.43h381.322a11.88 11.88 0 0 1 8.351 3.43 11.653 11.653 0 0 1 3.463 8.27v21.464h-404.95Z" fill="#1A272F"/><path d="M559.446 288.506a11.423 11.423 0 0 1 8.091 3.317 11.348 11.348 0 0 1 2.478 3.689c.574 1.38.868 2.859.865 4.353v21.101H167.506v-21.101a11.295 11.295 0 0 1 3.337-8.001 11.428 11.428 0 0 1 8.047-3.318h380.556v-.04Zm0-.768H178.89a12.23 12.23 0 0 0-8.625 3.552 12.091 12.091 0 0 0-3.572 8.575v21.909h404.95v-21.909c0-3.217-1.285-6.301-3.573-8.575a12.227 12.227 0 0 0-8.624-3.552Z" fill="#242B36"/><path d="M188.511 308.683a4.363 4.363 0 1 0 .001-8.727 4.363 4.363 0 0 0-.001 8.727Z" fill="#F04847"/><path d="M201.602 308.683a4.363 4.363 0 1 0 .001-8.727 4.363 4.363 0 0 0-.001 8.727Z" fill="#FFCF33"/><path d="M215.566 308.683a4.363 4.363 0 1 0 .001-8.727 4.363 4.363 0 0 0-.001 8.727Z" fill="#4DCB7B"/><path opacity=".3" d="M538.189 342.72H198.401c-1.124 0-2.035.925-2.035 2.066v42.996c0 1.141.911 2.066 2.035 2.066h339.788c1.124 0 2.035-.925 2.035-2.066v-42.996c0-1.141-.911-2.066-2.035-2.066Z" fill="#D2DFE6"/><path d="M259.733 513.777h-55.17c-4.527 0-8.197 3.642-8.197 8.136v64.02c0 4.493 3.67 8.135 8.197 8.135h55.17c4.527 0 8.197-3.642 8.197-8.135v-64.02c0-4.494-3.67-8.136-8.197-8.136Z" fill="#fff"/><path fill-rule="evenodd" clip-rule="evenodd" d="M212.075 567.886c0-.964.782-1.745 1.746-1.745h36.655a1.745 1.745 0 1 1 0 3.491h-36.655a1.746 1.746 0 0 1-1.746-1.746Zm8.291 7.855c0-.723.586-1.309 1.309-1.309h20.946a1.309 1.309 0 1 1 0 2.618h-20.946a1.309 1.309 0 0 1-1.309-1.309Z" fill="#DEE8EC"/><path d="M232.148 557.414c7.23 0 13.091-5.861 13.091-13.091 0-7.23-5.861-13.092-13.091-13.092-7.23 0-13.091 5.862-13.091 13.092s5.861 13.091 13.091 13.091Z" fill="#F66689"/><path opacity=".8" d="M237.464 540.819h-2.035v-.774a1.333 1.333 0 0 0-1.333-1.333h-3.736a1.333 1.333 0 0 0-1.333 1.333v.774h-2.035a1.078 1.078 0 0 0-1.018 1.079v4.142a.254.254 0 0 0 .204.224l5.394.549a.759.759 0 0 1 1.242-.47.77.77 0 0 1 .264.45l5.434-.55c.051 0 .163-.152.163-.203v-4.142a1.078 1.078 0 0 0-.364-.81 1.098 1.098 0 0 0-.847-.269Zm-7.246 0v-.774c0-.026.011-.052.03-.071a.098.098 0 0 1 .072-.03h3.735a.1.1 0 0 1 .042.004.103.103 0 0 1 .036.022.094.094 0 0 1 .025.034.098.098 0 0 1 .009.041v.774h-3.949Zm7.399 6.127-4.661.468a.78.78 0 0 1-.191.603.766.766 0 0 1-.578.259.764.764 0 0 1-.577-.259.764.764 0 0 1-.191-.603l-4.621-.468a.484.484 0 0 0-.488.282.492.492 0 0 0-.041.196v1.71a1.426 1.426 0 0 0 1.293 1.526h9.302a1.422 1.422 0 0 0 1.282-1.526v-1.73a.473.473 0 0 0-.334-.443.46.46 0 0 0-.195-.015Z" fill="#fff"/><path d="M441.362 513.777h-54.496c-4.473 0-8.098 3.642-8.098 8.136v64.02c0 4.493 3.625 8.135 8.098 8.135h54.496c4.472 0 8.098-3.642 8.098-8.135v-64.02c0-4.494-3.626-8.136-8.098-8.136Z" fill="#fff"/><path fill-rule="evenodd" clip-rule="evenodd" d="M394.477 567.886c0-.964.782-1.745 1.746-1.745h35.782a1.745 1.745 0 1 1 0 3.491h-35.782a1.746 1.746 0 0 1-1.746-1.746Zm7.419 7.855c0-.723.586-1.309 1.309-1.309h21.818a1.309 1.309 0 1 1 0 2.618h-21.818a1.309 1.309 0 0 1-1.309-1.309Z" fill="#DEE8EC"/><path d="M413.678 557.414c7.229 0 13.091-5.861 13.091-13.091 0-7.23-5.862-13.092-13.091-13.092-7.23 0-13.092 5.862-13.092 13.092s5.862 13.091 13.092 13.091Z" fill="#FFCF33"/><path opacity=".8" d="M419.361 540.819h-2.035v-.774a1.332 1.332 0 0 0-1.333-1.333h-3.756a1.343 1.343 0 0 0-1.343 1.333v.774h-2.035a1.078 1.078 0 0 0-1.079 1.079v4.142a.248.248 0 0 0 .065.145.25.25 0 0 0 .138.079l5.394.549a.766.766 0 0 1 .753-.639.765.765 0 0 1 .753.639l5.435-.549c.051 0 .163-.153.163-.204v-4.142a1.069 1.069 0 0 0-.323-.791 1.076 1.076 0 0 0-.797-.308Zm-7.246 0v-.774c0-.014.003-.028.009-.041a.094.094 0 0 1 .025-.034.103.103 0 0 1 .036-.022.1.1 0 0 1 .042-.004h3.725a.099.099 0 0 1 .103.06.098.098 0 0 1 .009.041v.774h-3.949Zm7.399 6.127-4.661.468a.765.765 0 0 1-1.526 0l-4.631-.468a.454.454 0 0 0-.368.121.463.463 0 0 0-.151.357v1.71a1.41 1.41 0 0 0 .327 1.027c.24.286.583.466.955.499h9.302a1.426 1.426 0 0 0 1.283-1.526v-1.73a.473.473 0 0 0-.334-.443.463.463 0 0 0-.196-.015Z" fill="#fff"/><path d="M532.127 513.777H477.63c-4.472 0-8.098 3.642-8.098 8.136v64.02c0 4.493 3.626 8.135 8.098 8.135h54.497c4.472 0 8.097-3.642 8.097-8.135v-64.02c0-4.494-3.625-8.136-8.097-8.136Z" fill="#fff"/><path fill-rule="evenodd" clip-rule="evenodd" d="M485.242 567.886c0-.964.781-1.745 1.745-1.745h35.783a1.745 1.745 0 1 1 0 3.491h-35.783a1.746 1.746 0 0 1-1.745-1.746Zm7.418 7.855a1.31 1.31 0 0 1 1.31-1.309h21.818a1.309 1.309 0 1 1 0 2.618H493.97a1.31 1.31 0 0 1-1.31-1.309Z" fill="#DEE8EC"/><path d="M505.315 557.414c7.23 0 13.091-5.861 13.091-13.091 0-7.23-5.861-13.092-13.091-13.092-7.23 0-13.091 5.862-13.091 13.092s5.861 13.091 13.091 13.091Z" fill="#4DCB7B"/><path opacity=".8" d="M510.315 540.819h-2.035v-.773a1.333 1.333 0 0 0-1.395-1.334h-3.735a1.333 1.333 0 0 0-1.333 1.334v.773h-2.035a1.089 1.089 0 0 0-1.079 1.079v4.142a.261.261 0 0 0 .214.224l5.383.55a.773.773 0 0 1 .753-.652.753.753 0 0 1 .754.631l5.434-.549c.061 0 .173-.153.173-.204v-4.142a1.084 1.084 0 0 0-.326-.767 1.105 1.105 0 0 0-.355-.233 1.109 1.109 0 0 0-.418-.079Zm-7.246 0v-.773a.094.094 0 0 1 .004-.041.099.099 0 0 1 .022-.035.099.099 0 0 1 .035-.022.094.094 0 0 1 .041-.004h3.714a.094.094 0 0 1 .041.004.099.099 0 0 1 .035.022c.01.01.017.022.022.035a.094.094 0 0 1 .004.041v.773h-3.918Zm7.399 6.127-4.661.468a.78.78 0 0 1-.191.603.766.766 0 0 1-.578.259.768.768 0 0 1-.577-.259.764.764 0 0 1-.191-.603l-4.631-.468a.462.462 0 0 0-.195.024.48.48 0 0 0-.324.454v1.71a1.427 1.427 0 0 0 1.283 1.526h9.302a1.41 1.41 0 0 0 .955-.499 1.41 1.41 0 0 0 .327-1.027v-1.73a.474.474 0 0 0-.158-.344.48.48 0 0 0-.361-.114Z" fill="#fff"/><path d="M350.598 513.777h-54.497c-4.472 0-8.098 3.642-8.098 8.136v64.02c0 4.493 3.626 8.135 8.098 8.135h54.497c4.472 0 8.097-3.642 8.097-8.135v-64.02c0-4.494-3.625-8.136-8.097-8.136Z" fill="#fff"/><path fill-rule="evenodd" clip-rule="evenodd" d="M302.84 567.886c0-.964.781-1.745 1.745-1.745h36.655a1.746 1.746 0 1 1 0 3.491h-36.655a1.746 1.746 0 0 1-1.745-1.746Zm8.291 7.855c0-.723.586-1.309 1.309-1.309h21.818a1.31 1.31 0 1 1 0 2.618H312.44a1.309 1.309 0 0 1-1.309-1.309Z" fill="#DEE8EC"/><path d="M322.913 557.414c7.23 0 13.091-5.861 13.091-13.091 0-7.23-5.861-13.092-13.091-13.092-7.23 0-13.091 5.862-13.091 13.092s5.861 13.091 13.091 13.091Z" fill="#55CFFF"/><path opacity=".8" d="M327.644 541.379h-1.771v-.631a1.141 1.141 0 0 0-.703-1.053 1.127 1.127 0 0 0-.436-.087h-3.186a1.15 1.15 0 0 0-1.15 1.14v.661h-1.791a.912.912 0 0 0-.849.573.91.91 0 0 0-.067.354v3.5a.233.233 0 0 0 .173.194l4.61.468a.65.65 0 0 1 .641-.56.666.666 0 0 1 .652.54l4.641-.468c.05 0 .142-.133.142-.174v-3.541a.924.924 0 0 0-.906-.916Zm-6.187 0v-.631c0-.024.009-.048.026-.065a.095.095 0 0 1 .065-.027h3.165a.091.091 0 0 1 .092.092v.661l-3.348-.03Zm6.309 5.231-3.979.407a.642.642 0 0 1-.427.611.66.66 0 0 1-.604-.072.644.644 0 0 1-.282-.539l-3.959-.397a.412.412 0 0 0-.413.241.416.416 0 0 0-.035.166v1.456a1.23 1.23 0 0 0 1.099 1.312h7.959a1.221 1.221 0 0 0 1.089-1.312v-1.476a.417.417 0 0 0-.037-.163.401.401 0 0 0-.411-.234Z" fill="#fff"/><path d="M259.733 411.666h-55.17c-4.527 0-8.197 3.643-8.197 8.136v64.02c0 4.494 3.67 8.136 8.197 8.136h55.17c4.527 0 8.197-3.642 8.197-8.136v-64.02c0-4.493-3.67-8.136-8.197-8.136Z" fill="#fff"/><path fill-rule="evenodd" clip-rule="evenodd" d="M212.075 465.776c0-.964.782-1.745 1.746-1.745h36.655a1.745 1.745 0 1 1 0 3.491h-36.655a1.746 1.746 0 0 1-1.746-1.746Zm8.291 7.855c0-.723.586-1.309 1.309-1.309h20.946a1.309 1.309 0 1 1 0 2.618h-20.946a1.309 1.309 0 0 1-1.309-1.309Z" fill="#DEE8EC"/><path d="M232.148 455.303c7.23 0 13.091-5.861 13.091-13.091 0-7.23-5.861-13.091-13.091-13.091-7.23 0-13.091 5.861-13.091 13.091 0 7.23 5.861 13.091 13.091 13.091Z" fill="#F66689"/><path opacity=".8" d="M237.464 438.629h-2.035v-.783a1.334 1.334 0 0 0-1.333-1.333h-3.735a1.333 1.333 0 0 0-1.334 1.333v.783h-2.035a1.028 1.028 0 0 0-.738.316 1.01 1.01 0 0 0-.28.753v4.142a.26.26 0 0 0 .065.146c.037.04.085.067.139.078l5.394.55a.755.755 0 0 1 .753-.642.761.761 0 0 1 .753.631l5.434-.549a.333.333 0 0 0 .103-.091.328.328 0 0 0 .06-.123v-4.142a1.077 1.077 0 0 0-1.211-1.069Zm-7.246 0v-.783a.116.116 0 0 1 .032-.07.116.116 0 0 1 .07-.032h3.735c.028 0 .055.01.076.029.02.019.033.045.036.073v.783h-3.949Zm7.399 6.117-4.661.468a.767.767 0 0 1-.499.723.78.78 0 0 1-.692-.104.77.77 0 0 1-.326-.619l-4.62-.478a.48.48 0 0 0-.529.478v1.71a1.434 1.434 0 0 0 1.292 1.537h9.302a1.434 1.434 0 0 0 1.282-1.537v-1.73a.477.477 0 0 0-.549-.448Z" fill="#fff"/><path d="M441.362 411.666h-54.496c-4.473 0-8.098 3.643-8.098 8.136v64.02c0 4.494 3.625 8.136 8.098 8.136h54.496c4.472 0 8.098-3.642 8.098-8.136v-64.02c0-4.493-3.626-8.136-8.098-8.136Z" fill="#fff"/><path fill-rule="evenodd" clip-rule="evenodd" d="M394.477 465.776c0-.964.782-1.745 1.746-1.745h35.782a1.745 1.745 0 1 1 0 3.491h-35.782a1.746 1.746 0 0 1-1.746-1.746Zm7.419 7.855c0-.723.586-1.309 1.309-1.309h21.818a1.309 1.309 0 1 1 0 2.618h-21.818a1.309 1.309 0 0 1-1.309-1.309Z" fill="#DEE8EC"/><path d="M413.678 455.303c7.229 0 13.091-5.861 13.091-13.091 0-7.23-5.862-13.091-13.091-13.091-7.23 0-13.092 5.861-13.092 13.091 0 7.23 5.862 13.091 13.092 13.091Z" fill="#F99B45"/><path opacity=".8" d="M419.361 438.629h-2.035v-.783a1.333 1.333 0 0 0-1.333-1.333h-3.756a1.344 1.344 0 0 0-1.343 1.333v.783h-2.035a1.071 1.071 0 0 0-1.079 1.069v4.142a.253.253 0 0 0 .203.224l5.394.55a.766.766 0 0 1 1.247-.458.76.76 0 0 1 .259.458l5.435-.55a.356.356 0 0 0 .103-.09.357.357 0 0 0 .06-.124v-4.142a1.065 1.065 0 0 0-.693-1.011 1.053 1.053 0 0 0-.427-.068Zm-7.246 0v-.783a.118.118 0 0 1 .036-.073.113.113 0 0 1 .076-.029h3.725c.028 0 .055.01.076.029a.109.109 0 0 1 .036.073v.783h-3.949Zm7.399 6.117-4.661.468a.76.76 0 0 1-.859.759.764.764 0 0 1-.657-.759l-4.631-.478a.474.474 0 0 0-.519.478v1.71a1.424 1.424 0 0 0 1.282 1.537h9.302a1.439 1.439 0 0 0 1.283-1.537v-1.73a.48.48 0 0 0-.54-.448Z" fill="#fff"/><path d="M532.127 411.666H477.63c-4.472 0-8.098 3.643-8.098 8.136v64.02c0 4.494 3.626 8.136 8.098 8.136h54.497c4.472 0 8.097-3.642 8.097-8.136v-64.02c0-4.493-3.625-8.136-8.097-8.136Z" fill="#fff"/><path fill-rule="evenodd" clip-rule="evenodd" d="M485.242 465.776c0-.964.781-1.745 1.745-1.745h35.783a1.745 1.745 0 1 1 0 3.491h-35.783a1.746 1.746 0 0 1-1.745-1.746Zm7.418 7.855a1.31 1.31 0 0 1 1.31-1.309h21.818a1.309 1.309 0 1 1 0 2.618H493.97a1.31 1.31 0 0 1-1.31-1.309Z" fill="#DEE8EC"/><path d="M505.315 455.303c7.23 0 13.091-5.861 13.091-13.091 0-7.23-5.861-13.091-13.091-13.091-7.23 0-13.091 5.861-13.091 13.091 0 7.23 5.861 13.091 13.091 13.091Z" fill="#517BF2"/><path opacity=".8" d="M510.316 438.629h-2.036v-.783a1.333 1.333 0 0 0-1.333-1.333h-3.735a1.333 1.333 0 0 0-1.333 1.333v.783h-2.036a1.08 1.08 0 0 0-1.079 1.069v4.142a.262.262 0 0 0 .214.224l5.384.55a.762.762 0 0 1 .753-.642.757.757 0 0 1 .753.631l5.435-.549a.335.335 0 0 0 .173-.214v-4.142a1.074 1.074 0 0 0-.348-.786 1.075 1.075 0 0 0-.812-.283Zm-7.247 0v-.783a.102.102 0 0 1 .102-.102h3.715a.102.102 0 0 1 .102.102v.783h-3.919Zm7.399 6.117-4.661.468a.767.767 0 0 1-.499.723.776.776 0 0 1-.929-.374.772.772 0 0 1-.088-.349l-4.631-.478a.467.467 0 0 0-.365.125.477.477 0 0 0-.154.353v1.71a1.434 1.434 0 0 0 1.282 1.537h9.302a1.424 1.424 0 0 0 1.283-1.537v-1.73a.48.48 0 0 0-.54-.448Z" fill="#fff"/><path d="M350.598 411.666h-54.497c-4.472 0-8.098 3.643-8.098 8.136v64.02c0 4.494 3.626 8.136 8.098 8.136h54.497c4.472 0 8.097-3.642 8.097-8.136v-64.02c0-4.493-3.625-8.136-8.097-8.136Z" fill="#fff"/><path fill-rule="evenodd" clip-rule="evenodd" d="M302.84 465.776c0-.964.781-1.745 1.745-1.745h36.655a1.746 1.746 0 1 1 0 3.491h-36.655a1.746 1.746 0 0 1-1.745-1.746Zm8.291 7.855c0-.723.586-1.309 1.309-1.309h21.818a1.31 1.31 0 1 1 0 2.618H312.44a1.309 1.309 0 0 1-1.309-1.309Z" fill="#DEE8EC"/><path d="M322.913 455.303c7.23 0 13.091-5.861 13.091-13.091 0-7.23-5.861-13.091-13.091-13.091-7.23 0-13.091 5.861-13.091 13.091 0 7.23 5.861 13.091 13.091 13.091Z" fill="#2CC3D5"/><path opacity=".8" d="M327.644 439.189h-1.771v-.661a1.147 1.147 0 0 0-1.139-1.15h-3.186a1.157 1.157 0 0 0-1.15 1.15v.661h-1.791a.916.916 0 0 0-.916.916v3.542a.224.224 0 0 0 .173.193l4.61.468a.65.65 0 0 1 .641-.549.662.662 0 0 1 .652.539l4.641-.478c.05 0 .142-.122.142-.173v-3.542a.914.914 0 0 0-.906-.916Zm-6.188 0v-.661a.091.091 0 0 1 .092-.092h3.165a.091.091 0 0 1 .092.092v.661h-3.349Zm6.31 5.231-3.979.397a.665.665 0 0 1-.384.685.66.66 0 0 1-.929-.685l-3.959-.407a.399.399 0 0 0-.168.019.398.398 0 0 0-.245.222.416.416 0 0 0-.035.166v1.456a1.23 1.23 0 0 0 1.099 1.312h7.959a1.221 1.221 0 0 0 1.089-1.312v-1.476a.393.393 0 0 0-.285-.364.408.408 0 0 0-.163-.013Z" fill="#fff"/><path fill-rule="evenodd" clip-rule="evenodd" d="M198.401 343.156c-.09 0-.18.008-.268.023a.435.435 0 1 1-.148-.86c.136-.023.275-.035.416-.035h2.601a.436.436 0 1 1 0 .872h-2.601Zm9.098-.436c0-.241.195-.436.436-.436h5.202a.437.437 0 1 1 0 .872h-5.202a.436.436 0 0 1-.436-.436Zm12.135 0c0-.241.195-.436.436-.436h5.203a.436.436 0 1 1 0 .872h-5.203a.436.436 0 0 1-.436-.436Zm12.135 0c0-.241.196-.436.437-.436h5.202a.436.436 0 1 1 0 .872h-5.202a.437.437 0 0 1-.437-.436Zm12.136 0c0-.241.195-.436.436-.436h5.202a.437.437 0 1 1 0 .872h-5.202a.436.436 0 0 1-.436-.436Zm12.135 0c0-.241.195-.436.436-.436h5.202a.437.437 0 1 1 0 .872h-5.202a.436.436 0 0 1-.436-.436Zm12.135 0c0-.241.196-.436.437-.436h5.202a.436.436 0 1 1 0 .872h-5.202a.437.437 0 0 1-.437-.436Zm12.136 0c0-.241.195-.436.436-.436h5.202a.436.436 0 1 1 0 .872h-5.202a.436.436 0 0 1-.436-.436Zm12.135 0c0-.241.195-.436.436-.436h5.202a.437.437 0 1 1 0 .872h-5.202a.436.436 0 0 1-.436-.436Zm12.135 0c0-.241.196-.436.437-.436h5.202a.436.436 0 1 1 0 .872h-5.202a.437.437 0 0 1-.437-.436Zm12.135 0c0-.241.196-.436.437-.436h5.202a.436.436 0 1 1 0 .872h-5.202a.437.437 0 0 1-.437-.436Zm12.136 0c0-.241.195-.436.436-.436h5.202a.437.437 0 1 1 0 .872h-5.202a.436.436 0 0 1-.436-.436Zm12.135 0c0-.241.195-.436.436-.436h5.203a.436.436 0 1 1 0 .872h-5.203a.436.436 0 0 1-.436-.436Zm12.135 0c0-.241.196-.436.437-.436h5.202a.436.436 0 1 1 0 .872h-5.202a.437.437 0 0 1-.437-.436Zm12.136 0c0-.241.195-.436.436-.436h5.202a.436.436 0 1 1 0 .872h-5.202a.436.436 0 0 1-.436-.436Zm12.135 0c0-.241.195-.436.436-.436h5.202a.437.437 0 1 1 0 .872h-5.202a.436.436 0 0 1-.436-.436Zm12.135 0c0-.241.196-.436.437-.436h5.202a.436.436 0 1 1 0 .872h-5.202a.437.437 0 0 1-.437-.436Zm12.136 0c0-.241.195-.436.436-.436h5.202a.436.436 0 1 1 0 .872H402.1a.436.436 0 0 1-.436-.436Zm12.135 0c0-.241.195-.436.436-.436h5.202a.437.437 0 1 1 0 .872h-5.202a.436.436 0 0 1-.436-.436Zm12.135 0c0-.241.196-.436.437-.436h5.202a.436.436 0 1 1 0 .872h-5.202a.437.437 0 0 1-.437-.436Zm12.135 0c0-.241.196-.436.437-.436h5.202a.436.436 0 1 1 0 .872h-5.202a.437.437 0 0 1-.437-.436Zm12.136 0c0-.241.195-.436.436-.436h5.202a.437.437 0 1 1 0 .872h-5.202a.436.436 0 0 1-.436-.436Zm12.135 0c0-.241.195-.436.436-.436h5.202a.437.437 0 1 1 0 .872h-5.202a.436.436 0 0 1-.436-.436Zm12.135 0c0-.241.196-.436.437-.436h5.202a.436.436 0 1 1 0 .872h-5.202a.437.437 0 0 1-.437-.436Zm12.136 0c0-.241.195-.436.436-.436h5.202a.436.436 0 1 1 0 .872h-5.202a.436.436 0 0 1-.436-.436Zm12.135 0c0-.241.195-.436.436-.436h5.202a.437.437 0 1 1 0 .872h-5.202a.436.436 0 0 1-.436-.436Zm12.135 0c0-.241.196-.436.437-.436h5.202a.436.436 0 1 1 0 .872h-5.202a.437.437 0 0 1-.437-.436Zm12.135 0c0-.241.196-.436.437-.436h5.202a.436.436 0 1 1 0 .872h-5.202a.437.437 0 0 1-.437-.436Zm12.136 0c0-.241.195-.436.436-.436h2.601c.141 0 .28.012.416.035a.437.437 0 0 1-.148.86 1.598 1.598 0 0 0-.268-.023h-2.601a.436.436 0 0 1-.436-.436Zm3.862.127a.436.436 0 0 1 .609-.099 2.459 2.459 0 0 1 .585.594.436.436 0 0 1-.716.499 1.651 1.651 0 0 0-.379-.385.436.436 0 0 1-.099-.609Zm-341.438 0a.436.436 0 0 1-.098.609 1.62 1.62 0 0 0-.38.385.435.435 0 1 1-.715-.499 2.459 2.459 0 0 1 .584-.594.436.436 0 0 1 .609.099Zm-1.11 1.163c.238.04.399.265.359.502a1.67 1.67 0 0 0-.023.274v2.304a.436.436 0 1 1-.873 0v-2.304c0-.141.012-.28.035-.417a.437.437 0 0 1 .502-.359Zm343.658 0a.436.436 0 0 1 .502.359c.023.137.035.276.035.417v2.304a.437.437 0 0 1-.873 0v-2.304a1.67 1.67 0 0 0-.023-.274.437.437 0 0 1 .359-.502Zm-343.758 8.785c.241 0 .436.195.436.436v4.608a.436.436 0 1 1-.873 0v-4.608c0-.241.196-.436.437-.436Zm343.858 0c.241 0 .437.195.437.436v4.608a.437.437 0 0 1-.873 0v-4.608c0-.241.195-.436.436-.436Zm-343.858 10.749c.241 0 .436.195.436.436v4.608a.436.436 0 1 1-.873 0v-4.608c0-.241.196-.436.437-.436Zm343.858 0c.241 0 .437.195.437.436v4.608a.437.437 0 0 1-.873 0v-4.608c0-.241.195-.436.436-.436Zm-343.858 10.749c.241 0 .436.195.436.436v4.608a.436.436 0 1 1-.873 0v-4.608c0-.241.196-.436.437-.436Zm343.858 0c.241 0 .437.195.437.436v4.608a.437.437 0 0 1-.873 0v-4.608c0-.241.195-.436.436-.436Zm-343.858 10.749c.241 0 .436.195.436.436v2.304c0 .093.008.184.023.274a.437.437 0 0 1-.861.143 2.514 2.514 0 0 1-.035-.417v-2.304c0-.241.196-.436.437-.436Zm343.858 0c.241 0 .437.195.437.436v2.304c0 .141-.012.28-.035.417a.436.436 0 1 1-.861-.143c.015-.09.023-.181.023-.274v-2.304c0-.241.195-.436.436-.436Zm-343.733 3.577a.435.435 0 0 1 .607.108 1.651 1.651 0 0 0 .38.385.438.438 0 0 1-.511.708 2.459 2.459 0 0 1-.584-.594.435.435 0 0 1 .108-.607Zm343.608 0c.198.138.246.41.109.607a2.438 2.438 0 0 1-.585.594.436.436 0 1 1-.51-.708 1.612 1.612 0 0 0 .379-.385.435.435 0 0 1 .607-.108Zm-342.47 1.125a.436.436 0 0 1 .504-.355c.088.015.178.023.268.023h2.601a.436.436 0 1 1 0 .872h-2.601c-.141 0-.28-.012-.416-.035a.437.437 0 0 1-.356-.505Zm341.332 0a.437.437 0 0 1-.356.505 2.494 2.494 0 0 1-.416.035h-2.601a.436.436 0 1 1 0-.872h2.601c.09 0 .18-.008.268-.023a.436.436 0 0 1 .504.355Zm-331.462.104c0-.241.195-.436.436-.436h5.202a.437.437 0 1 1 0 .872h-5.202a.436.436 0 0 1-.436-.436Zm12.135 0c0-.241.195-.436.436-.436h5.203a.436.436 0 1 1 0 .872h-5.203a.436.436 0 0 1-.436-.436Zm12.135 0c0-.241.196-.436.437-.436h5.202a.436.436 0 1 1 0 .872h-5.202a.437.437 0 0 1-.437-.436Zm12.136 0c0-.241.195-.436.436-.436h5.202a.436.436 0 1 1 0 .872h-5.202a.436.436 0 0 1-.436-.436Zm12.135 0c0-.241.195-.436.436-.436h5.202a.437.437 0 1 1 0 .872h-5.202a.436.436 0 0 1-.436-.436Zm12.135 0c0-.241.196-.436.437-.436h5.202a.436.436 0 1 1 0 .872h-5.202a.437.437 0 0 1-.437-.436Zm12.136 0c0-.241.195-.436.436-.436h5.202a.436.436 0 1 1 0 .872h-5.202a.436.436 0 0 1-.436-.436Zm12.135 0c0-.241.195-.436.436-.436h5.202a.437.437 0 1 1 0 .872h-5.202a.436.436 0 0 1-.436-.436Zm12.135 0c0-.241.196-.436.437-.436h5.202a.436.436 0 1 1 0 .872h-5.202a.437.437 0 0 1-.437-.436Zm12.135 0c0-.241.196-.436.437-.436h5.202a.436.436 0 1 1 0 .872h-5.202a.437.437 0 0 1-.437-.436Zm12.136 0c0-.241.195-.436.436-.436h5.202a.437.437 0 1 1 0 .872h-5.202a.436.436 0 0 1-.436-.436Zm12.135 0c0-.241.195-.436.436-.436h5.202a.436.436 0 1 1 0 .872h-5.202a.436.436 0 0 1-.436-.436Zm12.135 0c0-.241.196-.436.437-.436h5.202a.436.436 0 1 1 0 .872h-5.202a.437.437 0 0 1-.437-.436Zm12.136 0c0-.241.195-.436.436-.436h5.202a.436.436 0 1 1 0 .872h-5.202a.436.436 0 0 1-.436-.436Zm12.135 0c0-.241.195-.436.436-.436h5.202a.437.437 0 1 1 0 .872h-5.202a.436.436 0 0 1-.436-.436Zm12.135 0c0-.241.196-.436.437-.436h5.202a.436.436 0 1 1 0 .872h-5.202a.437.437 0 0 1-.437-.436Zm12.136 0c0-.241.195-.436.436-.436h5.202a.436.436 0 1 1 0 .872H402.1a.436.436 0 0 1-.436-.436Zm12.135 0c0-.241.195-.436.436-.436h5.202a.437.437 0 1 1 0 .872h-5.202a.436.436 0 0 1-.436-.436Zm12.135 0c0-.241.195-.436.437-.436h5.202a.436.436 0 1 1 0 .872h-5.202a.436.436 0 0 1-.437-.436Zm12.135 0c0-.241.196-.436.437-.436h5.202a.436.436 0 1 1 0 .872h-5.202a.437.437 0 0 1-.437-.436Zm12.136 0c0-.241.195-.436.436-.436h5.202a.437.437 0 1 1 0 .872h-5.202a.436.436 0 0 1-.436-.436Zm12.135 0c0-.241.195-.436.436-.436h5.202a.437.437 0 1 1 0 .872h-5.202a.436.436 0 0 1-.436-.436Zm12.135 0c0-.241.196-.436.437-.436h5.202a.436.436 0 1 1 0 .872h-5.202a.437.437 0 0 1-.437-.436Zm12.136 0c0-.241.195-.436.436-.436h5.202a.436.436 0 1 1 0 .872h-5.202a.436.436 0 0 1-.436-.436Zm12.135 0c0-.241.195-.436.436-.436h5.202a.437.437 0 1 1 0 .872h-5.202a.436.436 0 0 1-.436-.436Zm12.135 0c0-.241.196-.436.437-.436h5.202a.436.436 0 1 1 0 .872h-5.202a.437.437 0 0 1-.437-.436Zm12.135 0c0-.241.196-.436.437-.436h5.202a.436.436 0 1 1 0 .872h-5.202a.437.437 0 0 1-.437-.436Z" fill="#D2DFE6"/><path opacity=".1" d="m321.043 375.815-303.17 134.6a6.106 6.106 0 0 0-3.103 8.059l13.884 31.272a6.106 6.106 0 0 0 8.06 3.103L339.882 418.25a6.107 6.107 0 0 0 3.103-8.059l-13.884-31.272a6.107 6.107 0 0 0-8.059-3.104Z" fill="#738192"/><g filter="url(#management__a)"><path d="M798.886 273.494 516.03 364.801c-5.006 1.617-8.234 6.499-7.208 10.905l51.094 219.535c1.026 4.407 5.916 6.669 10.922 5.053l282.856-91.308c5.007-1.617 8.234-6.499 7.209-10.905l-51.095-219.535c-1.025-4.407-5.915-6.669-10.922-5.052Z" fill="#343C4C"/></g><path d="m511.149 372.487-3.175-12.089a5.616 5.616 0 0 1-.019-2.707c.214-.921.644-1.826 1.266-2.663a9.515 9.515 0 0 1 2.358-2.212 11.044 11.044 0 0 1 3.089-1.424l270.874-78.12a10.806 10.806 0 0 1 3.348-.43 8.961 8.961 0 0 1 3.103.637c.942.386 1.753.932 2.386 1.609a5.43 5.43 0 0 1 1.305 2.335l3.176 12.089-287.711 82.975Z" fill="#1A272F"/><path d="M526.457 359.338c1.803-.583 2.966-2.344 2.596-3.933-.369-1.589-2.13-2.405-3.933-1.822-1.803.582-2.965 2.344-2.596 3.933.369 1.589 2.13 2.405 3.933 1.822Z" fill="#FF5A60"/><path d="M535.962 356.75c1.803-.583 2.965-2.344 2.596-3.933-.369-1.59-2.13-2.405-3.933-1.823-1.803.583-2.966 2.344-2.596 3.934.369 1.589 2.13 2.405 3.933 1.822Z" fill="#FFCF33"/><path d="M545.46 354.164c1.803-.583 2.965-2.344 2.596-3.933-.37-1.59-2.131-2.406-3.934-1.823-1.803.583-2.965 2.344-2.596 3.934.37 1.589 2.131 2.405 3.934 1.822Z" fill="#4DCB7B"/><path fill-rule="evenodd" clip-rule="evenodd" d="M534.016 387.471a7.692 7.692 0 0 0 3.2-2.016c.872-.922 1.463-2.022 1.698-3.162.235-1.139.104-2.267-.377-3.241-.482-.974-1.291-1.749-2.326-2.229-1.035-.479-2.249-.641-3.489-.465a7.612 7.612 0 0 0-3.477 1.456c-1.027.772-1.825 1.777-2.293 2.885-.468 1.109-.585 2.272-.336 3.343.333 1.436 1.3 2.604 2.688 3.247 1.388.643 3.083.708 4.712.182Z" fill="#6A7790"/><path d="m533.775 380.827-.183-.785a1.088 1.088 0 0 0-.632-.667 1.501 1.501 0 0 0-1.028-.022 1.742 1.742 0 0 0-.876.635c-.209.294-.3.634-.253.952l.183.785.699-.225-.183-.785a.67.67 0 0 1 .135-.466.865.865 0 0 1 .432-.308.746.746 0 0 1 .505.007c.152.06.265.174.319.319l.183.785.699-.225Z" fill="#EBF2FF"/><path fill-rule="evenodd" clip-rule="evenodd" d="m530.932 384.497-.348-1.487a.6.6 0 0 1 .009-.259.72.72 0 0 1 .12-.25.85.85 0 0 1 .482-.321l2.867-.921a.833.833 0 0 1 .285-.058.71.71 0 0 1 .27.046.574.574 0 0 1 .212.144.52.52 0 0 1 .12.218l.348 1.487a.6.6 0 0 1-.009.259.712.712 0 0 1-.12.25.847.847 0 0 1-.482.321l-2.867.92a.811.811 0 0 1-.285.059.692.692 0 0 1-.27-.047.56.56 0 0 1-.212-.143.52.52 0 0 1-.12-.218Zm2.294-1.687a.292.292 0 0 0-.164-.197.398.398 0 0 0-.287-.011.463.463 0 0 0-.243.181.348.348 0 0 0-.055.267.252.252 0 0 0 .085.13.29.29 0 0 0 .153.061l.115.492a.135.135 0 0 0 .075.088c.02.008.041.012.064.013a.198.198 0 0 0 .067-.012.211.211 0 0 0 .064-.031.198.198 0 0 0 .051-.049.173.173 0 0 0 .028-.06.131.131 0 0 0 .003-.062l-.12-.511a.375.375 0 0 0 .127-.142.305.305 0 0 0 .034-.17l.003.013Z" fill="#EBF2FF"/><path opacity=".63" fill-rule="evenodd" clip-rule="evenodd" d="M541.587 415.146a6.414 6.414 0 0 0 2.673-1.679c.729-.768 1.223-1.686 1.42-2.637.197-.951.089-1.893-.312-2.706-.4-.813-1.075-1.461-1.939-1.862-.863-.401-1.876-.537-2.911-.39a6.351 6.351 0 0 0-2.903 1.213c-.857.645-1.523 1.483-1.914 2.408-.391.925-.489 1.896-.281 2.79.278 1.197 1.084 2.171 2.24 2.708 1.156.537 2.568.593 3.927.155Z" fill="#191E28"/><path fill-rule="evenodd" clip-rule="evenodd" d="M540.702 411.333a.838.838 0 0 1-.448.023.637.637 0 0 1-.349-.209.58.58 0 0 1-.133-.373.733.733 0 0 1 .128-.41.931.931 0 0 1 .793-.413.699.699 0 0 1 .398.137.579.579 0 0 1 .215.33.702.702 0 0 1-.113.545.936.936 0 0 1-.491.37Zm2.11-.898-.399-.065a1.472 1.472 0 0 0-.139-.596l.315-.296a.348.348 0 0 0 .073-.099.3.3 0 0 0 .029-.111.231.231 0 0 0-.081-.193l-.412-.37a.258.258 0 0 0-.097-.055.309.309 0 0 0-.118-.012.373.373 0 0 0-.226.102l-.315.296a1.773 1.773 0 0 0-.638-.111l-.053-.227a.242.242 0 0 0-.136-.165.332.332 0 0 0-.239-.009l-.607.196a.415.415 0 0 0-.114.06.353.353 0 0 0-.13.202.244.244 0 0 0 .004.111l.053.228a2.15 2.15 0 0 0-.501.478l-.407-.063a.353.353 0 0 0-.239.049.337.337 0 0 0-.155.187l-.195.566a.26.26 0 0 0 .02.214.261.261 0 0 0 .179.118l.399.065c.012.102.035.2.069.295.011.103.035.204.07.301l-.315.296a.333.333 0 0 0-.104.209.243.243 0 0 0 .075.196l.413.37c.027.025.06.043.097.055a.325.325 0 0 0 .239-.019.367.367 0 0 0 .105-.071l.321-.305c.196.08.413.119.639.117l.053.228a.237.237 0 0 0 .045.098.262.262 0 0 0 .2.095.352.352 0 0 0 .123-.017l.607-.196a.384.384 0 0 0 .201-.152.285.285 0 0 0 .046-.223l-.052-.228c.195-.134.365-.299.499-.485l.4.072a.357.357 0 0 0 .239-.049.342.342 0 0 0 .156-.187l.195-.566a.291.291 0 0 0 .017-.112.243.243 0 0 0-.031-.103.247.247 0 0 0-.178-.119Zm-2.373-.233a.64.64 0 0 0-.269.17.555.555 0 0 0-.143.267.401.401 0 0 0 .231.459c.088.04.19.053.295.037a.64.64 0 0 0 .483-.37.46.46 0 0 0 .024-.282.4.4 0 0 0-.226-.27.498.498 0 0 0-.19-.043.585.585 0 0 0-.205.032Z" fill="#8CA0B3"/><path fill-rule="evenodd" clip-rule="evenodd" d="M534.016 387.471a7.692 7.692 0 0 0 3.2-2.016c.872-.922 1.463-2.022 1.698-3.162.235-1.139.104-2.267-.377-3.241-.482-.974-1.291-1.749-2.326-2.229-1.035-.479-2.249-.641-3.489-.465a7.612 7.612 0 0 0-3.477 1.456c-1.027.772-1.825 1.777-2.293 2.885-.468 1.109-.585 2.272-.336 3.343.333 1.436 1.3 2.604 2.688 3.247 1.388.643 3.083.708 4.712.182Z" fill="#0CC8CC"/><path d="m534.687 379.961-4.266 1.363c-.172.055-.284.221-.248.372l.463 1.969c.036.151.205.228.377.173l4.266-1.363c.173-.055.284-.221.249-.372l-.464-1.969c-.035-.151-.204-.228-.377-.173Z" fill="#fff"/><path fill-rule="evenodd" clip-rule="evenodd" d="M530.393 381.595c-.013.019-.011.03-.011.034l.464 1.969c.001.004.004.014.024.023.021.01.054.014.092.002l4.266-1.363a.146.146 0 0 0 .079-.056c.013-.019.011-.03.011-.034l-.464-1.969c-.001-.003-.004-.014-.024-.023a.129.129 0 0 0-.092-.001l-4.266 1.362a.146.146 0 0 0-.079.056Zm-.43.168c-.071-.301.152-.573.407-.654l4.266-1.363c.256-.081.567.02.638.321l.464 1.969c.07.301-.153.573-.408.654l-4.266 1.363c-.255.081-.567-.02-.638-.321l-.463-1.969Z" fill="#fff"/><path fill-rule="evenodd" clip-rule="evenodd" d="M530.887 382.434a.145.145 0 0 1 .101-.179l3.66-.997a.147.147 0 0 1 .18.103.145.145 0 0 1-.101.179l-3.66.997a.147.147 0 0 1-.18-.103Z" fill="#0CC8CC"/><path fill-rule="evenodd" clip-rule="evenodd" d="M533.374 383.922a.813.813 0 0 0 .339-.209.693.693 0 0 0 .182-.332.498.498 0 0 0-.28-.578c-.108-.051-.236-.069-.367-.051a.798.798 0 0 0-.366.152.742.742 0 0 0-.242.303.572.572 0 0 0-.036.353.48.48 0 0 0 .097.202.51.51 0 0 0 .18.14.602.602 0 0 0 .237.056.712.712 0 0 0 .256-.036Z" fill="#fff"/><path fill-rule="evenodd" clip-rule="evenodd" d="M532.804 382.784a.942.942 0 0 1 .436-.181.777.777 0 0 1 .442.062.64.64 0 0 1 .353.739.858.858 0 0 1-.224.412.965.965 0 0 1-.709.293.77.77 0 0 1-.287-.069.627.627 0 0 1-.351-.436.728.728 0 0 1 .045-.449.912.912 0 0 1 .295-.371Zm-.34.82v-.001l.14-.043-.14.045v-.001Zm.91.318.032.144h.001l-.033-.144Z" fill="#0CC8CC"/><path opacity=".63" fill-rule="evenodd" clip-rule="evenodd" d="M537.831 401.349a6.394 6.394 0 0 0 2.666-1.679c.727-.768 1.219-1.685 1.415-2.634.195-.95.086-1.889-.315-2.7-.401-.812-1.075-1.458-1.937-1.857-.862-.4-1.874-.535-2.907-.388a6.34 6.34 0 0 0-2.897 1.213c-.856.644-1.52 1.48-1.91 2.404-.39.923-.488 1.893-.28 2.785.279 1.195 1.086 2.167 2.241 2.702 1.156.536 2.567.591 3.924.154Z" fill="#191E28"/><path fill-rule="evenodd" clip-rule="evenodd" d="M535.126 399.256c-.265.05-.527.014-.74-.101a.835.835 0 0 1-.418-.528.924.924 0 0 1 .055-.555c.076-.184.206-.353.374-.485a.564.564 0 0 1-.119-.235.683.683 0 0 1 .11-.53.926.926 0 0 1 .483-.359.92.92 0 0 1 .316-.026c.102.01.199.04.284.086.095-.304.277-.591.527-.828a2.26 2.26 0 0 1 .888-.52c.457-.156.936-.15 1.335.017.399.167.686.48.799.874.229-.008.444.05.615.166.171.116.29.284.339.48a.995.995 0 0 1-.131.702 1.338 1.338 0 0 1-.59.529l-.194.062-3.73 1.193-.203.058Zm1.697-2.711a.145.145 0 0 0-.101-.003.164.164 0 0 0-.085.063l-.629 1.047a.114.114 0 0 0-.015.064.093.093 0 0 0 .023.058.103.103 0 0 0 .054.033.143.143 0 0 0 .071-.002l.268-.086.248 1.054 1.089-.348-.248-1.054.269-.086a.163.163 0 0 0 .064-.039.135.135 0 0 0 .036-.062.103.103 0 0 0-.004-.065.096.096 0 0 0-.042-.047l-.998-.527Z" fill="#8CA0B3"/><g filter="url(#management__b)"><path d="m683.624 390.682-44.08 13.988c-.466.148-.767.595-.671.998l4.377 18.466c.095.404.551.611 1.018.463l44.079-13.988c.467-.148.767-.595.672-.999l-4.377-18.466c-.096-.403-.552-.61-1.018-.462Z" fill="#fff"/></g><path fill-rule="evenodd" clip-rule="evenodd" d="M653.955 408.398a1.121 1.121 0 0 1 .784-1.386l16.81-4.577a1.137 1.137 0 0 1 1.392.793 1.12 1.12 0 0 1-.783 1.386l-16.81 4.577a1.139 1.139 0 0 1-1.393-.793Zm4.697 2.644a.84.84 0 0 1 .587-1.038l9.958-2.711a.852.852 0 0 1 1.043.594.84.84 0 0 1-.587 1.038l-9.957 2.711a.853.853 0 0 1-1.044-.594Z" fill="#B9CBD3"/><g filter="url(#management__c)"><path d="m705.117 469.619-44.08 13.987c-.466.148-.767.596-.671.999l4.377 18.466c.095.403.551.61 1.018.462l44.079-13.988c.467-.148.768-.595.672-.998l-4.377-18.466c-.096-.403-.552-.61-1.018-.462Z" fill="#fff"/></g><path fill-rule="evenodd" clip-rule="evenodd" d="M675.447 487.327a1.122 1.122 0 0 1 .783-1.386l16.81-4.577a1.14 1.14 0 0 1 1.393.794 1.121 1.121 0 0 1-.784 1.386l-16.81 4.577a1.139 1.139 0 0 1-1.392-.794Zm4.699 2.652a.839.839 0 0 1 .587-1.038l9.958-2.712a.854.854 0 0 1 1.043.594.84.84 0 0 1-.587 1.039l-9.958 2.711a.853.853 0 0 1-1.043-.594Z" fill="#B9CBD3"/><g filter="url(#management__d)"><path d="m756.483 452.296-44.079 13.988c-.467.148-.767.595-.672.998l4.377 18.466c.096.404.552.611 1.018.463l44.08-13.988c.466-.148.767-.595.671-.999l-4.377-18.466c-.095-.403-.551-.61-1.018-.462Z" fill="#fff"/></g><path fill-rule="evenodd" clip-rule="evenodd" d="M726.815 470.012a1.121 1.121 0 0 1 .784-1.386l16.81-4.577a1.137 1.137 0 0 1 1.392.793 1.12 1.12 0 0 1-.783 1.386l-16.81 4.577a1.138 1.138 0 0 1-1.393-.793Zm4.697 2.644a.84.84 0 0 1 .588-1.038l9.957-2.711a.853.853 0 0 1 1.044.594.84.84 0 0 1-.587 1.038l-9.958 2.711a.853.853 0 0 1-1.044-.594Z" fill="#B9CBD3"/><g filter="url(#management__e)"><path d="m694.516 430.686-44.079 13.988c-.467.148-.768.595-.672.998l4.377 18.466c.096.404.551.611 1.018.463l44.079-13.988c.467-.148.768-.595.672-.999l-4.377-18.466c-.096-.403-.551-.61-1.018-.462Z" fill="#fff"/></g><path fill-rule="evenodd" clip-rule="evenodd" d="M664.846 448.395a1.12 1.12 0 0 1 .783-1.386l16.81-4.577a1.138 1.138 0 0 1 1.393.793 1.121 1.121 0 0 1-.784 1.386l-16.81 4.577a1.138 1.138 0 0 1-1.392-.793Zm4.699 2.651a.839.839 0 0 1 .587-1.038l9.958-2.711a.852.852 0 0 1 1.043.594.84.84 0 0 1-.587 1.038l-9.958 2.711a.852.852 0 0 1-1.043-.594Zm-12.493-6.722a.31.31 0 0 0 .124.18.412.412 0 0 0 .23.075.548.548 0 0 0 .458-.226.387.387 0 0 0 .074-.223.312.312 0 0 0-.077-.203.371.371 0 0 0-.202-.115.544.544 0 0 0-.542.215.368.368 0 0 0-.065.297Zm-.526.161a.317.317 0 0 0-.124-.18.419.419 0 0 0-.229-.074.552.552 0 0 0-.459.225.4.4 0 0 0-.074.224.314.314 0 0 0 .077.203c.05.056.12.096.202.114a.537.537 0 0 0 .542-.214.366.366 0 0 0 .065-.298Zm-1.227.376a.314.314 0 0 0-.124-.18.412.412 0 0 0-.23-.074.535.535 0 0 0-.458.225.396.396 0 0 0-.074.223.312.312 0 0 0 .077.203c.05.057.12.097.202.115a.539.539 0 0 0 .542-.215.363.363 0 0 0 .065-.297Z" fill="#B9CBD3"/><path d="m693.105 450.53.41-.132a.3.3 0 0 0 .153-.114l.475-.693.323-.471c.083-.134.169-.256.243-.359a.246.246 0 0 0 .035-.084.203.203 0 0 0 0-.085.181.181 0 0 0-.104-.125l-.575-.267a.232.232 0 0 0-.181-.006.268.268 0 0 0-.146.112l-1.034 1.585a.246.246 0 0 0-.039.095.176.176 0 0 0 .01.094l.12.342a.159.159 0 0 0 .042.076.19.19 0 0 0 .075.048.251.251 0 0 0 .193-.016Zm.854-2.152.053-.017.568.269-.2.295-.623-.294c.083-.063.148-.17.202-.253Zm-1.027 1.583.727-1.119.614.29-.273.405-.481.701-.418.099-.122-.348s-.053-.019-.047-.028Zm2.201.247-2.104.607a.118.118 0 0 0-.06.041c-.014.019-.019.041-.014.06.001.011.006.02.012.029a.086.086 0 0 0 .063.028.105.105 0 0 0 .039-.005l2.104-.607a.115.115 0 0 0 .063-.044.065.065 0 0 0 .013-.031.07.07 0 0 0-.044-.076.117.117 0 0 0-.072-.002Z" fill="#B9CBD3"/><path fill-rule="evenodd" clip-rule="evenodd" d="m671.163 435.899-.737-.824a.243.243 0 0 1-.062-.131.294.294 0 0 1 .019-.151.37.37 0 0 1 .095-.135.412.412 0 0 1 .149-.086l1.265-.409a.36.36 0 0 1 .165-.015.28.28 0 0 1 .14.059.242.242 0 0 1 .082.118.272.272 0 0 1 .004.15l-.286 1.155a.505.505 0 0 1-.131.224.592.592 0 0 1-.232.142.519.519 0 0 1-.261.017.398.398 0 0 1-.21-.114Z" fill="#8CA0B3"/><path fill-rule="evenodd" clip-rule="evenodd" d="m671.223 435.346-4.458-16.371.496-.139 4.458 16.372-.496.138Z" fill="#8CA0B3"/><path fill-rule="evenodd" clip-rule="evenodd" d="M667.356 420.312c.225-.073.432-.203.594-.374.161-.17.271-.374.314-.586a.919.919 0 0 0-.07-.601.893.893 0 0 0-.431-.413 1.15 1.15 0 0 0-.647-.086 1.39 1.39 0 0 0-.644.27 1.315 1.315 0 0 0-.426.535 1.011 1.011 0 0 0-.062.619.881.881 0 0 0 .498.603c.258.119.572.131.874.033Zm14.516 54.915-.738-.824a.242.242 0 0 1-.061-.131.284.284 0 0 1 .019-.151.37.37 0 0 1 .095-.135.417.417 0 0 1 .148-.086l1.266-.409a.363.363 0 0 1 .163-.011c.052.008.1.028.138.059a.253.253 0 0 1 .082.117.28.28 0 0 1 .008.147l-.286 1.155a.514.514 0 0 1-.131.224.592.592 0 0 1-.232.142.519.519 0 0 1-.261.017.398.398 0 0 1-.21-.114Z" fill="#8CA0B3"/><path fill-rule="evenodd" clip-rule="evenodd" d="m681.925 474.653-4.452-16.35.497-.139 4.451 16.35-.496.139Z" fill="#8CA0B3"/><path fill-rule="evenodd" clip-rule="evenodd" d="M678.065 459.64c.225-.073.431-.203.593-.373.162-.171.271-.375.315-.587a.932.932 0 0 0-.07-.601.893.893 0 0 0-.431-.413 1.15 1.15 0 0 0-.647-.086c-.23.033-.455.127-.645.27a1.32 1.32 0 0 0-.425.535 1.007 1.007 0 0 0-.063.62.883.883 0 0 0 .499.602c.257.119.572.131.874.033Zm55.248-1.663-.747-.829a.245.245 0 0 1-.058-.13.296.296 0 0 1 .021-.148.36.36 0 0 1 .094-.133.417.417 0 0 1 .145-.085l1.266-.409a.36.36 0 0 1 .162-.014c.052.007.1.027.138.057.039.03.067.07.082.116a.267.267 0 0 1 .007.146l-.276 1.159a.511.511 0 0 1-.132.224.568.568 0 0 1-.493.159.39.39 0 0 1-.209-.113Zm-44.886 4.936-1.035-4.224.494-.152 1.036 4.224c.081.333.32.616.685.776.367.161.824.181 1.271.043l39.669-12.201c.549-.169 1.128-.152 1.61.059.484.211.838.604.963 1.104l.001.002.634 2.589-.494.152-.635-2.588c-.083-.331-.322-.613-.686-.772-.366-.16-.823-.179-1.269-.042l-39.669 12.202c-.55.169-1.13.151-1.613-.061-.485-.213-.839-.609-.962-1.111Zm-.576-5.111c.225-.073.432-.203.593-.374.162-.171.272-.375.315-.586a.925.925 0 0 0-.07-.601.888.888 0 0 0-.431-.413 1.15 1.15 0 0 0-.647-.086c-.23.032-.454.126-.645.269-.19.144-.338.33-.425.535a1.008 1.008 0 0 0-.062.62.88.88 0 0 0 .498.602c.258.119.572.132.874.034Z" fill="#8CA0B3"/><g opacity=".2" filter="url(#management__f)"><path d="M552.82 717.197c0 6.671-83.015 12.079-185.419 12.079-102.404 0-185.419-5.408-185.419-12.079 0-6.672 83.015-12.08 185.419-12.08 102.404 0 185.419 5.408 185.419 12.08Z" fill="#0A0F1A"/></g><g opacity=".2" filter="url(#management__g)"><path d="M206.141 760.682c0 6.671-33.53 12.079-74.892 12.079-41.362 0-74.893-5.408-74.893-12.079s33.53-12.079 74.893-12.079c41.362 0 74.892 5.408 74.892 12.079Z" fill="#0A0F1A"/></g><g filter="url(#management__h)"><path d="M999.039 217.578 787.666 318.327c-4.509 2.149-6.897 7.068-5.332 10.986l64.56 161.689c1.564 3.919 6.488 5.353 10.998 3.203l211.378-100.749c4.5-2.15 6.89-7.069 5.33-10.987l-64.56-161.689c-1.57-3.918-6.49-5.352-11.001-3.202Z" fill="#F5F8F9"/></g><path d="M782.4 316.355a5.615 5.615 0 0 1-.421-2.607c.064-.915.336-1.839.799-2.722a8.806 8.806 0 0 1 1.897-2.42c.79-.715 1.71-1.31 2.706-1.75l201.054-89.513a9.99 9.99 0 0 1 3.103-.816 8.504 8.504 0 0 1 3.027.244c.947.26 1.793.691 2.491 1.269a5.505 5.505 0 0 1 1.574 2.098l3.58 8.383-216.212 96.208-3.598-8.374Z" fill="#1A272F"/><path d="M988.527 217.492a9.667 9.667 0 0 1 3.012-.798 8.237 8.237 0 0 1 2.941.236 6.42 6.42 0 0 1 2.417 1.234 5.337 5.337 0 0 1 1.523 2.043l3.5 8.214-215.798 96.077-3.504-8.214a5.456 5.456 0 0 1-.413-2.531 6.732 6.732 0 0 1 .772-2.643 8.537 8.537 0 0 1 1.838-2.352 9.824 9.824 0 0 1 2.625-1.702l201.087-89.564Zm-.152-.356-201.084 89.572c-2.067.917-3.767 2.461-4.727 4.294-.96 1.832-1.102 3.803-.395 5.481l3.656 8.57 216.705-96.531-3.641-8.523c-.716-1.679-2.226-2.924-4.198-3.461-1.972-.537-4.244-.322-6.316.598Z" fill="#242B36"/><path d="M795.949 313.04c1.368-.65 2.094-2.141 1.622-3.331-.472-1.189-1.963-1.627-3.331-.977-1.368.651-2.094 2.142-1.622 3.332.472 1.189 1.964 1.627 3.331.976Z" fill="#FF5A60"/><path d="M803.092 309.949c1.368-.65 2.094-2.141 1.622-3.331-.472-1.189-1.964-1.627-3.331-.977-1.368.651-2.094 2.142-1.622 3.332.472 1.189 1.964 1.627 3.331.976Z" fill="#FFCF33"/><path d="M810.225 306.862c1.368-.65 2.094-2.141 1.622-3.331-.472-1.189-1.963-1.627-3.331-.977-1.368.651-2.094 2.142-1.622 3.332.472 1.189 1.964 1.627 3.331.976Z" fill="#4DCB7B"/><path d="m1015.85 306.57-184.437 84.324c-1.213.555-1.855 1.823-1.433 2.833l11.964 28.678c.421 1.01 1.746 1.379 2.96.824l184.436-84.324c1.21-.555 1.85-1.823 1.43-2.833l-11.96-28.678c-.42-1.01-1.75-1.379-2.96-.824Zm-17.869-45.665-137.19 63.367c-1.22.563-1.865 1.851-1.442 2.876l12.023 29.129c.423 1.025 1.755 1.4 2.974.837l137.194-63.366c1.22-.564 1.86-1.852 1.44-2.877l-12.02-29.129c-.43-1.025-1.759-1.4-2.979-.837Z" fill="#fff"/><path fill-rule="evenodd" clip-rule="evenodd" d="M892.035 334.526a.622.622 0 0 1-.32.822l-8.434 3.647a.63.63 0 0 1-.826-.326.62.62 0 0 1 .32-.822l8.434-3.647a.631.631 0 0 1 .826.326Zm3.94 1.476a.465.465 0 0 1-.24.617l-14.279 6.178a.473.473 0 0 1-.619-.245.465.465 0 0 1 .24-.616l14.279-6.178a.473.473 0 0 1 .619.244Z" fill="#B9CBD3"/><path d="M885.525 333.013c3.014-1.433 4.614-4.721 3.574-7.343s-4.328-3.586-7.342-2.153c-3.015 1.434-4.615 4.721-3.574 7.343 1.04 2.622 4.327 3.586 7.342 2.153Z" fill="#2CC3D5"/><path opacity=".5" d="M885.857 325.846a.991.991 0 0 0-.585-.408 1.448 1.448 0 0 0-.813.039 4.276 4.276 0 0 0-.752.294 3.076 3.076 0 0 0-1.036.758 1.389 1.389 0 0 0-.305.864c.294-.132.604-.2.902-.199.276.023.524.117.719.272.194.154.328.364.387.608.079.223.113.466.103.717.087-.033.172-.074.253-.124l.079.204a.19.19 0 0 0 .057.08.225.225 0 0 0 .092.048.33.33 0 0 0 .228-.029.616.616 0 0 0 .148-.135l.413-.717.057-.111c.125-.208.227-.424.303-.643.145-.56.055-1.104-.25-1.518Z" fill="#fff"/><path d="M883.404 330.878a.29.29 0 0 1-.166.015l-.756-.166-.111-.032a2.665 2.665 0 0 1-.621-.198 1.78 1.78 0 0 1-.852-1.31 1.287 1.287 0 0 1 .125-.761c.121-.248.314-.469.554-.634a4.11 4.11 0 0 1 .69-.404 2.663 2.663 0 0 1 1.184-.306c.274.031.522.132.718.293.196.161.333.377.397.624.095.187.143.397.141.616-.002.22-.054.445-.152.66-.098.216-.24.417-.417.59a2.122 2.122 0 0 1-.612.419l.082.208c.012.034.016.07.012.108a.309.309 0 0 1-.034.112.372.372 0 0 1-.182.166Zm-1.581-2.775c-.168.109-.304.26-.389.431a.846.846 0 0 0-.083.523c.043.435.263.812.617 1.057.171.072.351.13.537.174l.122.027.421.1-.032-.081a.23.23 0 0 1 .012-.188.326.326 0 0 1 .151-.147c.374-.175.697-.453.918-.79.131-.349.128-.71-.008-1.015a.89.89 0 0 0-.269-.464 1.012 1.012 0 0 0-.503-.241 2.12 2.12 0 0 0-.946.257 4.09 4.09 0 0 0-.61.355l.062.002Z" fill="#fff"/><path d="M919.286 318.388c3.014-1.433 4.614-4.721 3.574-7.343s-4.328-3.586-7.342-2.153c-3.015 1.433-4.615 4.721-3.574 7.343 1.04 2.622 4.327 3.586 7.342 2.153Z" fill="#4DCB7B"/><path d="M919.443 311.372a1.515 1.515 0 0 0-.856-.61 2.03 2.03 0 0 0-1.163.034c-.365.105-.725.24-1.075.403a4.143 4.143 0 0 0-1.485 1.083 1.873 1.873 0 0 0-.393.94.163.163 0 0 0 .044.144.165.165 0 0 0 .065.043.22.22 0 0 0 .082.012.278.278 0 0 0 .258-.22c.023-.245.123-.491.288-.706a3.716 3.716 0 0 1 1.288-.925 7.71 7.71 0 0 1 1.009-.383c.307-.097.623-.107.905-.027.282.079.515.245.667.472.415.535.557 1.24.395 1.962a4.352 4.352 0 0 1-.391.852l-.092.173c-.153.299-.32.593-.456.841l-.126-.316a.207.207 0 0 0-.056-.081.232.232 0 0 0-.089-.048.313.313 0 0 0-.218.022c-.608.304-1.275.416-1.887.317a.245.245 0 0 0-.086-.009.254.254 0 0 0-.087.025.271.271 0 0 0-.077.053.273.273 0 0 0-.052.075.206.206 0 0 0-.008.159c.019.049.06.086.112.103.655.127 1.375.031 2.041-.272l.158.398a.237.237 0 0 0 .063.096.264.264 0 0 0 .103.06c.039.012.082.016.126.012a.406.406 0 0 0 .131-.036.384.384 0 0 0 .151-.148c.178-.299.396-.683.597-1.079l.092-.173c.175-.303.32-.616.432-.936a2.95 2.95 0 0 0 .052-1.233 2.518 2.518 0 0 0-.462-1.077Z" fill="#fff"/><path d="M916.718 314.499a.252.252 0 0 0-.01.199.222.222 0 0 0 .14.129.253.253 0 0 0 .103.003.321.321 0 0 0 .102-.037.328.328 0 0 0 .166-.163l.556-1.315-1.271-.45a.257.257 0 0 0-.104-.01.316.316 0 0 0-.2.094.345.345 0 0 0-.064.09.256.256 0 0 0-.009.199.222.222 0 0 0 .14.129l.697.227-1.817.861a.343.343 0 0 0-.161.156.251.251 0 0 0-.013.2.214.214 0 0 0 .143.125c.067.02.144.012.214-.021l1.817-.861-.429.445Z" fill="#fff"/><path fill-rule="evenodd" clip-rule="evenodd" d="M925.805 319.897a.619.619 0 0 1-.32.821l-8.434 3.648a.631.631 0 0 1-.825-.327.62.62 0 0 1 .319-.821l8.435-3.648a.631.631 0 0 1 .825.327Zm3.941 1.476a.465.465 0 0 1-.239.616l-14.287 6.192a.472.472 0 0 1-.619-.244.466.466 0 0 1 .239-.617l14.287-6.192a.473.473 0 0 1 .619.245Z" fill="#B9CBD3"/><path d="M953.25 303.675c3.014-1.433 4.615-4.721 3.574-7.343-1.04-2.622-4.327-3.586-7.342-2.153-3.014 1.433-4.615 4.721-3.574 7.343 1.04 2.622 4.328 3.586 7.342 2.153Z" fill="#517BF2"/><path d="m952.803 299.703-.053.025-.082.169-.436.781-.115-.291a.217.217 0 0 0-.052-.081.224.224 0 0 0-.087-.048.267.267 0 0 0-.106-.008.304.304 0 0 0-.107.034c-.57.283-1.195.389-1.77.301a1.792 1.792 0 0 1-1.036-1.044 1.451 1.451 0 0 1-.179-.813c.019-.293.117-.589.286-.861a3.403 3.403 0 0 1 1.231-.878c.307-.151.625-.273.949-.365.14-.036.28-.059.42-.069a.277.277 0 0 0 .198-.054.267.267 0 0 0 .106-.172.189.189 0 0 0-.01-.092.169.169 0 0 0-.053-.073.194.194 0 0 0-.085-.038.23.23 0 0 0-.101.002 2.129 2.129 0 0 0-.525.088 6.768 6.768 0 0 0-1.082.406 3.975 3.975 0 0 0-1.425 1.046c-.23.336-.369.709-.401 1.08-.032.372.043.727.218 1.03.086.29.241.548.455.758.214.209.482.365.786.456.303.092.636.117.975.074.339-.044.676-.154.989-.324l.148.374a.259.259 0 0 0 .175.146.364.364 0 0 0 .257-.028.492.492 0 0 0 .153-.148c.161-.282.374-.654.573-1.03l.082-.169.053-.025a.26.26 0 0 0 .047-.092.192.192 0 0 0 .003-.095.165.165 0 0 0-.041-.081.198.198 0 0 0-.078-.05.234.234 0 0 0-.099-.009.296.296 0 0 0-.185.102.288.288 0 0 0-.049.091l.053-.025Z" fill="#fff"/><path d="m953.882 297.554-.021-.054-1.199-.406a.296.296 0 0 0-.211.02.323.323 0 0 0-.158.156.255.255 0 0 0-.01.2.225.225 0 0 0 .141.13l.632.209-1.714.814a.331.331 0 0 0-.123.153.243.243 0 0 0-.002.176.211.211 0 0 0 .119.119.287.287 0 0 0 .186.007l1.715-.814-.289.656a.269.269 0 0 0-.028.101.21.21 0 0 0 .014.097.209.209 0 0 0 .142.123.311.311 0 0 0 .21-.025.339.339 0 0 0 .163-.173l.536-1.23-.103-.259Z" fill="#fff"/><path fill-rule="evenodd" clip-rule="evenodd" d="M959.76 305.187a.62.62 0 0 1-.319.822l-8.431 3.657a.63.63 0 0 1-.826-.325.62.62 0 0 1 .319-.822l8.431-3.657a.63.63 0 0 1 .826.325Zm3.941 1.477a.465.465 0 0 1-.24.616l-14.276 6.188a.473.473 0 0 1-.62-.244.466.466 0 0 1 .24-.617l14.277-6.188a.473.473 0 0 1 .619.245Z" fill="#B9CBD3"/><path d="M988.029 288.61c3.015-1.433 4.615-4.72 3.574-7.342-1.04-2.622-4.327-3.586-7.342-2.153-3.014 1.433-4.615 4.72-3.574 7.342 1.04 2.623 4.328 3.587 7.342 2.153Z" fill="#FFCF33"/><path d="M988.199 281.588a1.53 1.53 0 0 0-.856-.598 2.045 2.045 0 0 0-1.155.032 7.35 7.35 0 0 0-1.072.403 4.113 4.113 0 0 0-1.481 1.08c-.237.347-.38.732-.412 1.115-.032.384.047.751.228 1.063.22.591.682 1.047 1.297 1.281.652.132 1.372.036 2.036-.271l.157.396a.237.237 0 0 0 .063.096.262.262 0 0 0 .102.057.329.329 0 0 0 .126.01.375.375 0 0 0 .279-.187c.167-.294.385-.676.595-1.077l.092-.172c.178-.301.323-.614.431-.934.192-.839.038-1.661-.43-2.294Zm.033 2.225a5.005 5.005 0 0 1-.39.851l-.092.172c-.153.298-.319.592-.456.839l-.128-.325a.22.22 0 0 0-.145-.128.31.31 0 0 0-.218.022c-.593.298-1.244.411-1.844.32a1.831 1.831 0 0 1-1.086-1.092 1.512 1.512 0 0 1-.191-.856 1.95 1.95 0 0 1 .306-.904 3.51 3.51 0 0 1 1.275-.918 6.13 6.13 0 0 1 .996-.377c.308-.1.625-.111.908-.032.283.078.518.243.671.471.411.535.553 1.238.394 1.957Z" fill="#fff"/><path d="M985.53 282.366a.522.522 0 0 0-.184.165.247.247 0 0 0-.037.102.18.18 0 0 0 .014.1l.664 1.217a.152.152 0 0 0 .038.094.168.168 0 0 0 .1-.046l.1-.047a.154.154 0 0 0-.042-.103l-.373-1.343a.179.179 0 0 0-.053-.08.206.206 0 0 0-.09-.044.385.385 0 0 0-.137-.015Zm.807 1.923a.359.359 0 0 0-.168.165.283.283 0 0 0-.008.196.221.221 0 0 0 .15.131c.033.01.068.013.105.009a.32.32 0 0 0 .106-.034.349.349 0 0 0 .171-.157.272.272 0 0 0 .005-.204.202.202 0 0 0-.057-.078.238.238 0 0 0-.09-.045.244.244 0 0 0-.105-.014.289.289 0 0 0-.109.031Z" fill="#fff"/><path fill-rule="evenodd" clip-rule="evenodd" d="M994.54 290.123a.621.621 0 0 1-.32.822l-8.431 3.657a.632.632 0 0 1-.826-.325.622.622 0 0 1 .319-.823l8.432-3.657a.631.631 0 0 1 .826.326Zm3.953 1.482a.464.464 0 0 1-.24.616l-14.289 6.183a.473.473 0 0 1-.619-.245.465.465 0 0 1 .24-.616l14.289-6.182a.472.472 0 0 1 .619.244Z" fill="#B9CBD3"/><path opacity=".7" fill-rule="evenodd" clip-rule="evenodd" d="m906.105 337.45-11.26-25.971.216-.096 11.26 25.972-.216.095Z" fill="#DEE8EC"/><path d="m855.119 322.063-41.466 19.393c-1.229.575-1.88 1.89-1.453 2.937l4.788 11.754c.426 1.047 1.769 1.43 2.998.855l41.466-19.392c1.229-.575 1.88-1.89 1.453-2.938l-4.787-11.753c-.427-1.048-1.77-1.431-2.999-.856Z" fill="#fff"/><path d="M827.678 348.501c2.541-1.208 3.89-3.98 3.013-6.19-.877-2.211-3.648-3.024-6.19-1.816-2.542 1.209-3.891 3.98-3.013 6.191.877 2.211 3.648 3.024 6.19 1.815Z" fill="#F66689"/><path fill-rule="evenodd" clip-rule="evenodd" d="M846.347 333.348a1.17 1.17 0 0 1-.602 1.549l-11.487 4.974a1.19 1.19 0 0 1-1.557-.615 1.17 1.17 0 0 1 .603-1.549l11.486-4.974a1.19 1.19 0 0 1 1.557.615Z" fill="#738192"/><path fill-rule="evenodd" clip-rule="evenodd" d="M854.636 334.514a.466.466 0 0 1-.239.617l-19.433 8.422a.474.474 0 0 1-.62-.245.465.465 0 0 1 .24-.616l19.433-8.422a.472.472 0 0 1 .619.244Z" fill="#B9CBD3"/><path d="m863.994 342.587-41.465 19.392c-1.229.575-1.88 1.89-1.453 2.938l4.787 11.753c.427 1.048 1.769 1.431 2.999.856l41.465-19.393c1.23-.575 1.88-1.89 1.454-2.937l-4.788-11.754c-.427-1.047-1.769-1.43-2.999-.855Z" fill="#fff"/><path fill-rule="evenodd" clip-rule="evenodd" d="M855.225 353.858a1.17 1.17 0 0 1-.603 1.55l-11.476 4.97a1.189 1.189 0 0 1-1.557-.615 1.17 1.17 0 0 1 .602-1.549l11.477-4.97a1.19 1.19 0 0 1 1.557.614Z" fill="#738192"/><path fill-rule="evenodd" clip-rule="evenodd" d="M863.527 355.031a.465.465 0 0 1-.239.616l-19.446 8.417a.473.473 0 0 1-.619-.245.464.464 0 0 1 .239-.616l19.446-8.417a.473.473 0 0 1 .619.245Z" fill="#B9CBD3"/><path d="M836.56 369.022c2.541-1.208 3.89-3.98 3.013-6.191-.877-2.21-3.648-3.023-6.19-1.815-2.541 1.208-3.891 3.98-3.013 6.191.877 2.21 3.648 3.023 6.19 1.815Z" fill="#55CFFF"/><path fill-rule="evenodd" clip-rule="evenodd" d="m1009.66 321.968-139.14 60.249-.089-.202 139.139-60.249.09.202Zm3.01 6.97-139.137 60.239-.089-.202 139.136-60.239.09.202Zm3.02 6.969-139.14 60.239-.089-.201 139.139-60.239.09.201Z" fill="#B9CBD3"/><path fill-rule="evenodd" clip-rule="evenodd" d="m962.404 349.845 47.926-28.543.11.184-47.993 28.58-12.321-1.554-11.987 19.546-23.693-3.583-39.072 31.654-.13-.167 39.144-31.712 23.647 3.576 11.984-19.543 12.385 1.562Z" fill="#FFCF33"/><path fill-rule="evenodd" clip-rule="evenodd" d="m1009.34 319.25-17.466 16.752-8.503-.009-17.303 19.287-42.119 11.806-48.483 28.926-.105-.184 48.508-28.941 42.086-11.797 17.325-19.312 8.513.01 17.407-16.694.14.156Z" fill="#2CC3D5"/><path fill-rule="evenodd" clip-rule="evenodd" d="M874.799 401.114a.43.43 0 0 1 .223-.571l2.327-1.004a.44.44 0 0 1 .574.228.43.43 0 0 1-.223.572l-2.327 1.003a.439.439 0 0 1-.574-.228Zm72.731-31.498a.432.432 0 0 1-.221.573l-2.325 1.013a.438.438 0 0 1-.575-.226.43.43 0 0 1 .221-.572l2.325-1.014a.44.44 0 0 1 .575.226Zm66.49-28.791c-.1-.221 0-.476.22-.571l2.33-1.004c.22-.095.47.007.57.228.1.22 0 .476-.22.571l-2.33 1.004a.432.432 0 0 1-.57-.228Zm-148.981 56.353a.7.7 0 0 1-.361.928l-14.289 6.182a.71.71 0 0 1-.931-.368.699.699 0 0 1 .36-.927l14.289-6.183a.713.713 0 0 1 .932.368Zm-1.861 5.047a.7.7 0 0 1-.36.927l-10.875 4.711a.712.712 0 0 1-.932-.368.699.699 0 0 1 .36-.927l10.876-4.711a.71.71 0 0 1 .931.368Z" fill="#B9CBD3"/><path d="m849.277 391.96-3.413 1.628c-.478.229-.731.751-.565 1.167l1.183 2.969c.166.416.689.568 1.167.34l3.413-1.629c.478-.228.732-.75.566-1.166l-1.184-2.969c-.166-.416-.689-.569-1.167-.34Z" fill="#FFCF33"/><path d="m855.968 389.074-3.413 1.629c-.479.228-.732.75-.566 1.166l1.184 2.969c.166.416.688.568 1.167.34l3.412-1.628c.479-.229.732-.751.566-1.167l-1.184-2.969c-.166-.416-.688-.568-1.166-.34Z" fill="#2CC3D5"/><path d="m1061.01 403.954-190.376 88.48-21.135-51.527a1.783 1.783 0 0 1-.127-.795c.017-.279.095-.561.229-.83.134-.27.322-.521.552-.74.23-.219.498-.401.788-.536l185.979-86.443c.59-.273 1.23-.336 1.79-.177.56.16.99.529 1.19 1.027l21.11 51.541Z" fill="#fff"/><path fill-rule="evenodd" clip-rule="evenodd" d="M1042.77 392.023c.16.357 0 .773-.36.927l-5.79 2.506a.713.713 0 0 1-.93-.368.695.695 0 0 1 .36-.927l5.79-2.506c.36-.155.77.01.93.368Z" fill="#B9CBD3"/><path d="m1040.79 376.286-177.156 78.21 3.322 7.673 177.154-78.21-3.32-7.673Z" fill="#F4F8F9"/><path fill-rule="evenodd" clip-rule="evenodd" d="M885.873 448.675a.7.7 0 0 1-.361.927l-8.434 3.647a.713.713 0 0 1-.932-.368.7.7 0 0 1 .361-.927l8.434-3.648a.713.713 0 0 1 .932.369Zm50.35-21.813a.7.7 0 0 1-.361.927l-5.777 2.502a.712.712 0 0 1-.932-.368.7.7 0 0 1 .361-.927l5.777-2.502a.712.712 0 0 1 .932.368Zm21.196-9.173a.7.7 0 0 1-.361.927l-5.787 2.506a.711.711 0 0 1-.931-.368.699.699 0 0 1 .36-.927l5.787-2.506a.711.711 0 0 1 .932.368Zm27.025-11.71a.7.7 0 0 1-.361.927l-5.777 2.502a.712.712 0 0 1-.932-.368.7.7 0 0 1 .361-.927l5.777-2.502a.712.712 0 0 1 .932.368Zm27.036-11.704c.16.357 0 .773-.36.927l-5.78 2.506a.721.721 0 0 1-.94-.368.712.712 0 0 1 .36-.927l5.79-2.506c.36-.155.77.01.93.368Z" fill="#B9CBD3"/><path d="M873.333 456.532c1.317-.626 2.016-2.061 1.561-3.206-.454-1.145-1.89-1.566-3.206-.94-1.316.626-2.015 2.061-1.561 3.206.455 1.145 1.89 1.566 3.206.94Z" fill="#2CC3D5"/><path fill-rule="evenodd" clip-rule="evenodd" d="M880.851 425.259a.7.7 0 0 1-.36.928l-19.269 8.35a.71.71 0 0 1-.931-.367.7.7 0 0 1 .36-.928l19.268-8.35a.711.711 0 0 1 .932.367Zm46.051-19.936a.7.7 0 0 1-.361.927l-5.787 2.506a.712.712 0 0 1-.932-.368.7.7 0 0 1 .361-.927l5.787-2.506a.711.711 0 0 1 .932.368Zm21.181-9.179a.699.699 0 0 1-.36.927l-5.777 2.502a.712.712 0 0 1-.932-.368.7.7 0 0 1 .36-.927l5.778-2.502a.711.711 0 0 1 .931.368Zm27.039-11.704a.7.7 0 0 1-.36.927l-5.787 2.506a.712.712 0 0 1-.932-.368.7.7 0 0 1 .361-.927l5.787-2.506a.71.71 0 0 1 .931.368Zm27.028-11.71a.703.703 0 0 1-.36.927l-5.79 2.506a.71.71 0 0 1-.931-.368.7.7 0 0 1 .36-.927l5.791-2.506c.35-.154.77.01.93.368Z" fill="#B9CBD3"/><path d="m1044.91 385.804-177.154 78.21 3.322 7.673 177.152-78.21-3.32-7.673Z" fill="#fff"/><path fill-rule="evenodd" clip-rule="evenodd" d="M889.995 458.18a.7.7 0 0 1-.36.928l-8.432 3.657a.712.712 0 0 1-.932-.367.702.702 0 0 1 .361-.928l8.431-3.657a.712.712 0 0 1 .932.367Zm50.354-21.802a.7.7 0 0 1-.361.927l-5.786 2.506a.711.711 0 0 1-.932-.368.7.7 0 0 1 .36-.927l5.787-2.506a.712.712 0 0 1 .932.368Zm21.192-9.183a.702.702 0 0 1-.361.928l-5.787 2.505a.712.712 0 0 1-.932-.367.702.702 0 0 1 .361-.928l5.787-2.506a.713.713 0 0 1 .932.368Zm27.029-11.7a.699.699 0 0 1-.36.927l-5.787 2.506a.712.712 0 0 1-.932-.367.701.701 0 0 1 .36-.928l5.787-2.506a.713.713 0 0 1 .932.368Zm27.03-11.71a.709.709 0 0 1-.37.928l-5.77 2.501a.706.706 0 0 1-.93-.367.696.696 0 0 1 .36-.928l5.77-2.501a.72.72 0 0 1 .94.367Z" fill="#B9CBD3"/><path d="M877.46 466.049c1.316-.626 2.015-2.062 1.56-3.207-.454-1.145-1.889-1.566-3.206-.94-1.316.626-2.015 2.061-1.56 3.206.454 1.145 1.889 1.566 3.206.941Z" fill="#2CC3D5"/><path d="m1049.03 395.322-177.153 78.211 3.322 7.673 177.151-78.211-3.32-7.673Z" fill="#F4F8F9"/><path fill-rule="evenodd" clip-rule="evenodd" d="M894.12 467.697a.699.699 0 0 1-.36.927l-8.444 3.652a.713.713 0 0 1-.932-.368.7.7 0 0 1 .361-.927l8.444-3.652a.712.712 0 0 1 .931.368Zm50.345-21.799a.701.701 0 0 1-.36.928l-5.777 2.501a.712.712 0 0 1-.932-.367.7.7 0 0 1 .36-.928l5.777-2.501a.712.712 0 0 1 .932.367Zm21.192-9.183a.7.7 0 0 1-.361.928l-5.777 2.501a.712.712 0 0 1-.932-.367.702.702 0 0 1 .361-.928l5.777-2.501a.712.712 0 0 1 .932.367Zm27.035-11.713a.7.7 0 0 1-.361.927l-5.786 2.506a.712.712 0 0 1-.932-.368.699.699 0 0 1 .36-.927l5.787-2.506a.711.711 0 0 1 .932.368Zm27.028-11.7c.16.357 0 .773-.36.927l-5.79 2.506a.713.713 0 0 1-.93-.368.703.703 0 0 1 .36-.927l5.79-2.506c.36-.155.77.01.93.368Z" fill="#B9CBD3"/><path d="M881.572 475.559c1.316-.625 2.015-2.061 1.561-3.206-.455-1.145-1.89-1.566-3.207-.94-1.316.626-2.015 2.061-1.56 3.206.454 1.145 1.889 1.566 3.206.94Z" fill="#2CC3D5"/><path d="m1053.14 404.826-177.136 78.163 3.227 7.45 177.129-78.163-3.22-7.45Z" fill="#fff"/><path fill-rule="evenodd" clip-rule="evenodd" d="M898.237 477.218a.7.7 0 0 1-.361.927l-8.434 3.647a.711.711 0 0 1-.932-.368.7.7 0 0 1 .361-.927l8.434-3.647a.711.711 0 0 1 .932.368Zm50.35-21.813a.7.7 0 0 1-.361.928l-5.786 2.505a.712.712 0 0 1-.932-.367.7.7 0 0 1 .36-.928l5.787-2.506a.713.713 0 0 1 .932.368Zm21.196-9.173a.7.7 0 0 1-.36.927l-5.787 2.506a.711.711 0 0 1-.932-.368.7.7 0 0 1 .36-.927l5.787-2.506a.712.712 0 0 1 .932.368Zm27.025-11.71a.7.7 0 0 1-.36.928l-5.777 2.501a.712.712 0 0 1-.932-.367.7.7 0 0 1 .36-.928l5.777-2.501a.712.712 0 0 1 .932.367Zm19.952-8.649a.708.708 0 0 1 .37-.927l5.78-2.492c.35-.154.77.012.93.369a.712.712 0 0 1-.36.927l-5.78 2.492a.721.721 0 0 1-.94-.369Z" fill="#B9CBD3"/><path d="M885.698 485.076c1.316-.626 2.015-2.062 1.561-3.207-.455-1.145-1.89-1.566-3.207-.94-1.316.626-2.015 2.062-1.56 3.207.454 1.145 1.889 1.566 3.206.94Z" fill="#2CC3D5"/><path d="m1036.67 366.777-177.153 78.211 3.322 7.673 177.151-78.211-3.32-7.673Z" fill="#fff"/><path fill-rule="evenodd" clip-rule="evenodd" d="M881.757 439.153a.7.7 0 0 1-.36.928l-8.432 3.657a.712.712 0 0 1-.932-.367.7.7 0 0 1 .36-.928l8.432-3.657a.712.712 0 0 1 .932.367Zm50.354-21.802a.7.7 0 0 1-.361.927l-5.786 2.506a.711.711 0 0 1-.932-.368.7.7 0 0 1 .36-.927l5.787-2.506a.712.712 0 0 1 .932.368Zm21.191-9.183a.699.699 0 0 1-.36.927l-5.787 2.506a.711.711 0 0 1-.932-.368.7.7 0 0 1 .361-.927l5.786-2.506a.712.712 0 0 1 .932.368Zm27.03-11.7a.7.7 0 0 1-.361.927l-5.787 2.506a.71.71 0 0 1-.931-.367.7.7 0 0 1 .36-.928l5.787-2.506a.712.712 0 0 1 .932.368Zm27.028-11.71a.713.713 0 0 1-.36.928l-5.79 2.506a.71.71 0 0 1-.93-.368.696.696 0 0 1 .36-.928l5.79-2.505c.35-.155.77.01.93.367Z" fill="#B9CBD3"/><path d="M869.208 447.016c1.316-.626 2.015-2.061 1.561-3.206-.455-1.145-1.89-1.566-3.207-.94-1.316.625-2.015 2.061-1.56 3.206.454 1.145 1.889 1.566 3.206.94Z" fill="#2CC3D5"/><path fill-rule="evenodd" clip-rule="evenodd" d="M1035.49 365.66c.01.03-.01.065-.04.078l-176.396 76.369a.06.06 0 0 1-.078-.031.058.058 0 0 1 .03-.077l176.404-76.37c.03-.013.06.001.08.031Z" fill="#B9CBD3"/><path fill-rule="evenodd" clip-rule="evenodd" d="M825.413 344.386c.204-.097.382-.244.513-.423.13-.179.206-.382.219-.582a.85.85 0 0 0-.146-.546.857.857 0 0 0-.464-.325 1.136 1.136 0 0 0-.625.006c-.214.06-.414.177-.575.334a1.224 1.224 0 0 0-.332.55.922.922 0 0 0 .024.58.834.834 0 0 0 .553.49c.26.076.56.046.833-.084Zm-.592-1.493a.816.816 0 0 1 .421-.081.618.618 0 0 1 .359.148.532.532 0 0 1 .176.327.67.67 0 0 1-.066.395.872.872 0 0 1-.287.33.868.868 0 0 1-.41.155.682.682 0 0 1-.396-.073.546.546 0 0 1-.247-.277.643.643 0 0 1 .034-.518.898.898 0 0 1 .416-.405v-.001Zm2.812 1.931-.314.601-.226-.055a.197.197 0 0 0-.069-.003.22.22 0 0 0-.17.127.177.177 0 0 0-.016.066c0 .023.004.044.013.063a.144.144 0 0 0 .096.078l.379.095c.042.01.089.005.132-.016a.226.226 0 0 0 .102-.096l.395-.755a.16.16 0 0 0 .013-.129.139.139 0 0 0-.09-.085.196.196 0 0 0-.138.01.224.224 0 0 0-.107.099Zm-.97-.439c.102-.085.215-.157.335-.214a1.48 1.48 0 0 1 .663-.147c.221.005.427.066.598.176.17.11.298.265.371.45.074.185.09.394.047.605a1.39 1.39 0 0 1-.291.598 1.61 1.61 0 0 1-.55.43 1.48 1.48 0 0 1-.663.147 1.148 1.148 0 0 1-.598-.175l-1.651.785a.378.378 0 0 1-.264.027.268.268 0 0 1-.176-.156l-.099-.249c-.133-.337-.108-.733.072-1.101.179-.368.497-.678.884-.862l.329-.157c.322-.152.671-.207.993-.157Zm-.454.631.006-.018c.01-.026.021-.05.033-.076l.025-.053.033-.063.044-.069.018-.031a1.332 1.332 0 0 0-.579.134l-.329.156a1.443 1.443 0 0 0-.676.66 1.045 1.045 0 0 0-.055.842l.093.234 1.496-.711a.824.824 0 0 1-.055-.085l-.008-.02a.987.987 0 0 1-.091-.231l-.003-.018-.006-.028a1.713 1.713 0 0 1-.015-.081l-.002-.032-.002-.026c-.002-.017-.002-.035-.002-.053l-.001-.015.001-.051.001-.014.004-.054.001-.003.009-.075.004-.019.003-.012c.011-.058.027-.117.048-.174l.005-.014Zm.991 1.073a1.06 1.06 0 0 0 .518-.104l-.009.011c.129-.061.246-.146.343-.249a1.05 1.05 0 0 0 .22-.345.844.844 0 0 0 .056-.377.696.696 0 0 0-.392-.568.85.85 0 0 0-.372-.083c-.134 0-.271.028-.402.082a1.156 1.156 0 0 0-.401.278l-.01.01-.038.045-.017.021-.03.039-.042.063-.007.014c-.012.021-.024.042-.034.063l-.006.013-.031.071a.817.817 0 0 0-.055.241l.003.006a.746.746 0 0 0 .005.157c.003.005.005.01.006.016l.003.018c.002.013.004.027.009.039l.008.02.027.07.032.08.003.006c.042.074.097.14.164.194a.803.803 0 0 0 .449.169Zm9.64 16.251a.711.711 0 0 0-.402-.284.966.966 0 0 0-.545.014 3.178 3.178 0 0 0-.484.182c-.212.101-.501.268-.674.492-.224.284-.254.646-.094 1.015.091.21.269.48.596.584.263.082.612.001.858-.09l.041.104a.178.178 0 0 0 .117.103.258.258 0 0 0 .175-.018l.023-.011a.267.267 0 0 0 .1-.1c.074-.123.167-.291.258-.462l.038-.073c.079-.135.142-.275.19-.418.098-.334.024-.722-.197-1.038Zm-.153 1a2.129 2.129 0 0 1-.16.343l-.041.075c-.034.065-.07.13-.104.192a.159.159 0 0 0-.106-.08.218.218 0 0 0-.149.018c-.222.105-.554.181-.726.127a.733.733 0 0 1-.42-.425c-.065-.147-.149-.437.038-.675.141-.156.317-.28.512-.362.133-.063.271-.115.41-.155a.588.588 0 0 1 .339-.012.435.435 0 0 1 .25.176c.132.186.242.492.157.778Zm-2.356 2.504c.188-.09.353-.226.473-.392s.191-.353.203-.539a.786.786 0 0 0-.137-.504.793.793 0 0 0-.429-.3 1.053 1.053 0 0 0-.578.006 1.257 1.257 0 0 0-.532.309 1.135 1.135 0 0 0-.306.508.853.853 0 0 0 .022.537.751.751 0 0 0 .199.283.832.832 0 0 0 .314.17c.119.035.249.046.381.033.132-.014.265-.052.39-.111Zm-.539-1.358a.731.731 0 0 1 .374-.071.547.547 0 0 1 .318.132.476.476 0 0 1 .156.29.602.602 0 0 1-.06.351.785.785 0 0 1-.62.429.603.603 0 0 1-.35-.065.477.477 0 0 1-.219-.246.519.519 0 0 1-.034-.226.635.635 0 0 1 .064-.235.818.818 0 0 1 .371-.359Zm.463 1.616.3-.143a1.541 1.541 0 0 1 1.086-.108c.338.099.598.329.721.638l.089.224a.295.295 0 0 1-.015.237.41.41 0 0 1-.191.186l-2.359 1.121a.352.352 0 0 1-.253.025.255.255 0 0 1-.169-.149l-.089-.224c-.122-.31-.098-.674.067-1.013a1.74 1.74 0 0 1 .813-.794Zm-.456 1.845 2.3-1.094-.08-.201a.81.81 0 0 0-.537-.475 1.15 1.15 0 0 0-.809.081l-.299.142a1.299 1.299 0 0 0-.606.592.936.936 0 0 0-.049.754l.08.201Z" fill="#fff"/><path opacity=".1" d="M335.398 393.002 12.327 516.953a6.37 6.37 0 0 0-3.666 8.229l12.786 33.326a6.37 6.37 0 0 0 8.229 3.665l323.072-123.951a6.37 6.37 0 0 0 3.665-8.229l-12.785-33.325a6.371 6.371 0 0 0-8.23-3.666Z" fill="#738192"/><path d="M329.019 393.095 5.947 517.045a6.371 6.371 0 0 0-3.665 8.23L15.067 558.6a6.37 6.37 0 0 0 8.23 3.665l323.071-123.95a6.371 6.371 0 0 0 3.666-8.23l-12.786-33.325a6.37 6.37 0 0 0-8.229-3.665Z" fill="#343C4C"/><path opacity=".6" d="m83.537 500.331-67.72 25.982a3.462 3.462 0 0 0-1.992 4.472l4.054 10.566a3.462 3.462 0 0 0 4.47 1.992l67.722-25.982a3.461 3.461 0 0 0 1.991-4.471l-4.054-10.567a3.462 3.462 0 0 0-4.47-1.992Z" fill="#242B36"/><path fill-rule="evenodd" clip-rule="evenodd" d="M83.833 508.632c.222.12.305.398.185.621l-1.412 2.612a.458.458 0 0 1-.578.205l-2.601-1.072a.458.458 0 1 1 .35-.847l2.219.915 1.216-2.249a.459.459 0 0 1 .62-.185Zm-16.137 5.371a.655.655 0 0 1-.377.846l-32.297 12.379a.655.655 0 0 1-.468-1.223l32.296-12.379a.655.655 0 0 1 .846.377Zm5.48 2.257a.873.873 0 0 1-.502 1.128l-36.108 13.855a.872.872 0 1 1-.625-1.63l36.107-13.855a.873.873 0 0 1 1.128.502Z" fill="#8CA0B3"/><path fill-rule="evenodd" clip-rule="evenodd" d="M111.574 499.74a1.2 1.2 0 0 1-.691 1.55l-13.005 4.99a1.2 1.2 0 1 1-.86-2.24l13.006-4.99a1.2 1.2 0 0 1 1.55.69Z" fill="#2CC3D5"/><path fill-rule="evenodd" clip-rule="evenodd" d="M135.388 490.599a1.2 1.2 0 0 1-.691 1.55l-15.553 5.967a1.201 1.201 0 0 1-.86-2.241l15.554-5.966a1.2 1.2 0 0 1 1.55.69Zm191.951-73.734a1.2 1.2 0 0 1-.69 1.551l-26.531 10.181a1.2 1.2 0 1 1-.86-2.24l26.531-10.182a1.2 1.2 0 0 1 1.55.69Z" fill="#8CA0B3"/><path d="M272.933 436.905a1.18 1.18 0 1 0 0-2.358 1.18 1.18 0 0 0 0 2.358Z" fill="#F66689"/><path d="M274.77 438.518a11.02 11.02 0 0 1-.712-1.55v-.074c-.15.14-.327.248-.52.319h-.127c.219.581.481 1.145.785 1.688.113.138.246.259.393.361l-4.916 1.889c.042-.173.06-.352.054-.531a13.703 13.703 0 0 0-.563-1.804 2.125 2.125 0 0 1 1.242-2.782l.223-.085c.237-.092.489-.138.743-.138-.021-.25.019-.501.117-.732a2.834 2.834 0 0 0-.669.053v-.117a.596.596 0 0 0-1.091-.023.59.59 0 0 0-.013.447v.117a2.876 2.876 0 0 0-1.242 3.514c.211.533.384 1.079.52 1.635a3.999 3.999 0 0 1-.212.935.352.352 0 0 0 .095.382.36.36 0 0 0 .382.074l2.039-.775a1.19 1.19 0 0 0 2.208-.849l2.039-.786a.355.355 0 0 0 .233-.308.371.371 0 0 0-.191-.35 3.925 3.925 0 0 1-.817-.51Zm-1.986 2.272c.117.308-.223.457-.286.489-.064.032-.425.138-.542-.17l.839-.319h-.011Z" fill="#8CA0B3"/><path d="M290.664 436.692a5.743 5.743 0 0 0 5.743-5.743 5.743 5.743 0 1 0-11.487 0 5.743 5.743 0 0 0 5.744 5.743Z" fill="#517BF2"/><path d="M290.632 430.779a1.354 1.354 0 0 0 .775-1.72 1.339 1.339 0 0 0-.701-.74 1.324 1.324 0 0 0-1.019-.025 1.327 1.327 0 0 0-.739.696c-.071.159-.11.33-.115.504a1.352 1.352 0 0 0 .363.95 1.326 1.326 0 0 0 1.436.335Zm.286.244-.404.149a1.902 1.902 0 0 0-1.061 2.441l.138.34c.019.052.048.1.085.141a.42.42 0 0 0 .456.103l3.132-1.199a.425.425 0 0 0 .244-.542l-.138-.35a1.883 1.883 0 0 0-1.723-1.212 1.874 1.874 0 0 0-.729.129Z" fill="#fff"/><path fill-rule="evenodd" clip-rule="evenodd" d="M334.369 412.807a.482.482 0 0 1 .192.652l-1.423 2.611a.478.478 0 0 1-.604.214l-2.602-1.072a.48.48 0 0 1 .366-.887l2.203.908 1.217-2.234a.481.481 0 0 1 .651-.192Z" fill="#8CA0B3"/><path d="M178.656 482.419a.88.88 0 0 1-1.146-.51l-.478-1.178a8.022 8.022 0 0 1-5.383 0 7.644 7.644 0 0 1-3.567-4.109c-1.009-2.4-.903-4.587.287-6.158a9.058 9.058 0 0 1 3.832-2.537 14.76 14.76 0 0 1 2.846-.775 5.115 5.115 0 0 1 5.393 2.346 8.89 8.89 0 0 1 1.38 6.657c-.26.875-.616 1.719-1.062 2.516l-.233.456c-.51 1.062-1.062 2.071-1.476 2.846a.809.809 0 0 1-.382.371l-.011.075Zm-5.998-13.346a7.66 7.66 0 0 0-3.323 2.124c-1.242 1.645-.616 3.832-.128 4.99a6.545 6.545 0 0 0 2.973 3.493 7.124 7.124 0 0 0 4.873-.234.753.753 0 0 1 .956.425l.371.987c.361-.658.765-1.444 1.157-2.23l.223-.467c.397-.726.717-1.491.956-2.282a7.76 7.76 0 0 0-1.242-5.744 3.948 3.948 0 0 0-4.247-1.815c-.879.168-1.739.42-2.569.753ZM26.761 537.902a6.02 6.02 0 1 0 0-12.039 6.02 6.02 0 0 0 0 12.039Z" fill="#2CC3D5"/><path opacity=".8" d="m28.397 529.356-.892.34-.127-.34a.626.626 0 0 0-.797-.351l-1.603.616a.613.613 0 0 0-.344.324.603.603 0 0 0-.006.472l.127.33-.892.339a.51.51 0 0 0-.286.648l.68 1.773c.012.022.03.04.053.051a.125.125 0 0 0 .074.013l2.41-.648a.35.35 0 0 1 .456-.407.36.36 0 0 1 .191.152l2.24-1.104a.154.154 0 0 0 0-.117l-.679-1.783a.478.478 0 0 0-.605-.308Zm-3.11 1.146-.139-.329a.06.06 0 0 1-.008-.032.06.06 0 0 1 .008-.031l1.603-.616h.064l.127.34-1.656.668Zm4.172 1.455-1.922.966a.339.339 0 0 1-.096.393.353.353 0 0 1-.467.001.353.353 0 0 1-.095-.139l-2.07.552a.221.221 0 0 0-.139.297l.276.733a.66.66 0 0 0 .807.446l4.003-1.519a.657.657 0 0 0 .297-.87l-.287-.743a.197.197 0 0 0-.045-.084.197.197 0 0 0-.078-.054c-.03-.012-.063-.016-.095-.012a.205.205 0 0 0-.09.033Z" fill="#fff"/><path d="M155.692 742.498s-1.954 12.295-2.123 13.579c-.17 1.285-1.933 5.309 28.304 4.481 1.157 0 2.877.138 3.939-.531.446-.298 1.062-5.256.053-7.029a7.846 7.846 0 0 0-5.011-3.8s-7.623-3.079-11.679-5.107c-1.348-.669-.934-3.748-1.645-4.502-2.835-3.004-11.031-2.664-11.031-2.664l-.807 5.573ZM78.38 730.162s-7.77 9.725-8.556 10.755c-.786 1.03-4.247 3.652 22.4 17.857 1.063.552 2.443 1.54 3.696 1.476.53 0 3.535-4.024 3.514-6.084a7.878 7.878 0 0 0-2.485-5.775s-5.106-6.434-7.612-10.182c-.828-1.252 1.062-3.715.796-4.724-.987-4.013-8.28-7.761-8.28-7.761l-3.472 4.438Z" fill="#2CC3D5"/><path fill-rule="evenodd" clip-rule="evenodd" d="M164.604 723.513a5.237 5.237 0 0 1 4.447 5.922l-1.635 11.487a5.236 5.236 0 0 1-10.369-1.476l1.635-11.487a5.236 5.236 0 0 1 5.922-4.446ZM96.886 712.59a5.237 5.237 0 0 1 2.602 6.934c-1.59 3.499-4.268 7.369-6.355 10.167a115.836 115.836 0 0 1-3.643 4.631l-.243.291-.068.08-.02.022-.008.011s-.001.001-3.986-3.396l3.986 3.396a5.237 5.237 0 0 1-7.972-6.792c0-.001 0 0 0 0l.001-.002.01-.012.049-.057.202-.242a106.133 106.133 0 0 0 3.296-4.189c2.02-2.709 4.119-5.826 5.215-8.24a5.236 5.236 0 0 1 6.934-2.602Z" fill="#FDC2BF"/><path d="M180.716 580.401v-26.542c0-2.718-14.205-4.937-31.585-4.947h-.265c-17.38 0-31.585 2.229-31.585 4.947 0 0-4.417 11.827.552 28.835l-.935 67.46-34.908 68.86a9.556 9.556 0 0 0 4.247 12.847 9.46 9.46 0 0 0 4.321 1.061 9.557 9.557 0 0 0 8.494-5.234l35.927-70.846a9.482 9.482 0 0 0 1.062-4.193l.966-69.817a49.872 49.872 0 0 0 13.133 1.561 51.782 51.782 0 0 0 12.336-1.348l1.943 69.009-9.778 73.351a9.556 9.556 0 0 0 15.768 8.449 9.56 9.56 0 0 0 3.173-5.922l9.873-74.116a9.185 9.185 0 0 0 .085-1.528l-2.824-71.887Z" fill="#202C44"/><path d="M136.975 582.875s-2.293-1.179-4.746-2.124c0 0 2.835 56.333 3.578 73.755l1.168-71.631Zm-14.248 98.121s-28.803 50.96-32.222 51.905c0 0 4.512.181 7.05-3.1 2.537-3.281 25.172-48.805 25.172-48.805Zm48.667-127.838c11.137 14.068 10.5 64.869 12.029 100.658l-2.665-101.56s-10.16-.106-9.364.902Z" fill="#1F1D37"/><path d="M149.025 462.258c-17.518 0-31.723 1.518-31.723 3.397v87.748c0 1.879 14.205 3.397 31.723 3.397s31.734-1.518 31.734-3.397v-87.769c0-1.858-14.206-3.376-31.734-3.376Z" fill="#F9B42F"/><path fill-rule="evenodd" clip-rule="evenodd" d="M191.77 480.671c-4.687-.031-9.365-1.456-13.931-4.373a5.236 5.236 0 1 1 5.636-8.826c3.085 1.97 5.856 2.71 8.365 2.727 2.541.017 5.151-.708 7.872-2.175 5.59-3.014 11.072-8.845 16.19-15.883 4.844-6.658 9.01-13.889 12.431-19.828l.452-.783c1.709-2.965 3.298-5.703 4.643-7.697.663-.981 1.405-1.995 2.195-2.814.394-.41.937-.915 1.619-1.348.642-.408 1.811-1.009 3.353-1.009a5.237 5.237 0 0 1 2.297 9.944c-.186.235-.445.585-.783 1.085-1.095 1.624-2.487 4.009-4.251 7.07l-.509.883c-3.382 5.871-7.796 13.535-12.977 20.658-5.384 7.402-11.991 14.789-19.689 18.94-3.923 2.115-8.257 3.46-12.913 3.429Zm51.419-52.41a.063.063 0 0 1-.013.013l.013-.013Z" fill="#FDC2BF"/><path fill-rule="evenodd" clip-rule="evenodd" d="M177.336 476.808c-1.4-.47-2.312-.597-2.917-.567a6.109 6.109 0 1 1-.616-12.203c2.756-.139 5.315.48 7.424 1.188 1.907.641 3.803 1.486 5.375 2.186.149.067.296.133.44.196 1.793.797 3.163 1.379 4.379 1.73 1.203.348 1.767.316 1.971.277a6.11 6.11 0 0 1 2.315 11.997c-2.848.55-5.525.086-7.677-.535-2.138-.618-4.237-1.542-5.95-2.303l-.344-.153c-1.695-.754-3.07-1.366-4.4-1.813Z" fill="#F9B42F"/><path d="m117.111 501.359.223-13.42 1.412-4.384 4.246-3.355a59.988 59.988 0 0 0-.913 6.593c-1.985 19.779-5.924 42.902-4.703 66.61" fill="#F4AA1A"/><path fill-rule="evenodd" clip-rule="evenodd" d="M118.386 469.333a5.236 5.236 0 0 1 4.038 6.208l-5.122-1.085-5.123-1.084a5.236 5.236 0 0 1 6.207-4.039Zm-17.952 78.183c1.164-.897 1.998-2.084 2.564-3.004.622-1.01 1.208-2.18 1.759-3.412 1.103-2.469 2.233-5.573 3.351-8.995 2.243-6.865 4.581-15.457 6.69-23.795 2.114-8.358 4.02-16.547 5.396-22.64a1014.642 1014.642 0 0 0 2.19-9.939l.04-.19c.001-.001 0 0-5.122-1.085l-5.123-1.084-.038.176-.113.528a956.242 956.242 0 0 1-2.05 9.287 922.49 922.49 0 0 1-5.333 22.379c-2.09 8.261-4.36 16.583-6.492 23.111-1.07 3.275-2.07 5.987-2.958 7.975-.445.996-.82 1.715-1.115 2.193a5.656 5.656 0 0 1-.226.341c-1.878 1.374-3.65 1.445-5.028 1.1-.76-.191-1.357-.504-1.721-.771a3.124 3.124 0 0 1-.127-.098 5.236 5.236 0 0 0-6.387-2.78 5.235 5.235 0 0 0-3.343 6.607c.704 2.146 2.302 3.715 3.654 4.71 1.488 1.093 3.332 1.977 5.376 2.49 4.186 1.05 9.403.57 14.156-3.104Zm-13.587-8.047c.001 0 .013.012.033.037a.178.178 0 0 1-.033-.037Z" fill="#FDC2BF"/><path fill-rule="evenodd" clip-rule="evenodd" d="M123.525 475.85a6.111 6.111 0 0 0-4.187-11.283c-1.863.341-3.179 1.336-3.92 2.013-.8.731-1.44 1.559-1.941 2.309-1.007 1.507-1.896 3.362-2.665 5.324-1.558 3.97-2.945 9.19-3.808 14.931a6.11 6.11 0 0 0 12.082 1.817c.751-4.993 1.93-9.304 3.099-12.285.534-1.36 1.004-2.285 1.34-2.826Z" fill="#F9B42F"/><path d="M170.662 472.269a22.226 22.226 0 0 0 5.043 6.264 10.047 10.047 0 0 1 3.121 5.531 90.226 90.226 0 0 1 1.89 14.715v-18.558a36.626 36.626 0 0 1-10.054-7.952Z" fill="#F4AA1A"/><path fill-rule="evenodd" clip-rule="evenodd" d="M148.717 460.746c-2.708 0-4.813 1.823-4.813 3.932 0 .531.129.903.337 1.174.21.274.525.475.951.62.868.296 2.094.323 3.525.323 1.432 0 2.657-.027 3.526-.323.426-.145.74-.346.95-.62.209-.271.338-.643.338-1.174 0-2.079-2.107-3.932-4.814-3.932Zm-5.442 3.932c0-2.562 2.503-4.561 5.442-4.561 2.942 0 5.442 2.032 5.442 4.561 0 .637-.157 1.153-.467 1.557-.309.401-.744.661-1.247.832-.986.336-2.325.357-3.728.357s-2.741-.021-3.728-.357c-.502-.171-.938-.431-1.246-.832-.31-.404-.468-.92-.468-1.557Z" fill="#fff"/><path d="M153.335 462.884v-12.082c-1.35.291-2.727.437-4.108.435h-1.062a18.702 18.702 0 0 1-4.098-.446v12.093a3.643 3.643 0 0 0-.478 1.794c0 2.336 2.304 2.431 5.128 2.431 2.824 0 5.128-.095 5.128-2.431a3.624 3.624 0 0 0-.51-1.794Z" fill="#FDC2BF"/><path d="M153.335 453.541c-1.486.956-.116 3.525-1.943 6.657-1.401 2.42-4.246 2.123-6.624 6.455a1.938 1.938 0 0 1-1.179-1.975c.011-.64.19-1.267.52-1.815v-9.333l.977-2.548.595-1.539 8.578-1.423s2.07 3.599-.924 5.521Z" fill="#F4B1AF"/><path d="M168.411 414.323v20.469a19.185 19.185 0 0 1-15.076 18.749 19.37 19.37 0 0 1-4.109.435h-1.062a18.728 18.728 0 0 1-4.045-.445 19.19 19.19 0 0 1-15.086-18.739v-20.469a19.185 19.185 0 0 1 19.174-19.185h1.062a19.188 19.188 0 0 1 19.142 19.185Z" fill="#FDC2BF"/><path d="M157.486 427.795c1.625-.721 2.888-.637 3.185-5.255.308-4.247-3.079-6.051-1.667-7.771 1.413-1.72 12.082 1.709 13.94-2.315 1.858-4.024.531-10.925-.743-12.199-5.659-5.658-11.572-2.388-12.74-2.962-1.539-.796-1.709-2.569-4.512-3.981-1.996-.998-3.079-1.539-7.549 1.062-4.469 2.601-7.124.998-7.124.998a15.464 15.464 0 0 0-10.022 2.93c-4.639 3.514-2.888 7.612-6.115 10.734-4.247 4.119-4.109 14.863-.956 23.293 1.88 5 7.368 11.031 8.494 14.8 1.125 3.769 12.432 6.37 12.432 6.37s-2.59-18.548 13.377-25.704Z" fill="#2C2A46"/><path d="M151.287 439.334c2.942-.211 5.13-3.136 4.887-6.534-.243-3.398-2.825-5.982-5.767-5.772-2.941.211-5.129 3.136-4.886 6.534.243 3.398 2.825 5.982 5.766 5.772Z" fill="#FDC2BF"/><defs><filter id="management__a" x="497.072" y="270.081" width="369.801" height="345.184" filterUnits="userSpaceOnUse" color-interpolation-filters="sRGB"><feFlood flood-opacity="0" result="BackgroundImageFix"/><feColorMatrix in="SourceAlpha" values="0 0 0 0 0 0 0 0 0 0 0 0 0 0 0 0 0 0 127 0" result="hardAlpha"/><feOffset dx="-2.89" dy="5.78"/><feGaussianBlur stdDeviation="4.335"/><feColorMatrix values="0 0 0 0 0.2 0 0 0 0 0.2 0 0 0 0 0.2 0 0 0 0.15 0"/><feBlend in2="BackgroundImageFix" result="effect1_dropShadow_10272_1586"/><feBlend in="SourceGraphic" in2="effect1_dropShadow_10272_1586" result="shape"/></filter><filter id="management__b" x="635.965" y="389.189" width="55.962" height="39.79" filterUnits="userSpaceOnUse" color-interpolation-filters="sRGB"><feFlood flood-opacity="0" result="BackgroundImageFix"/><feColorMatrix in="SourceAlpha" values="0 0 0 0 0 0 0 0 0 0 0 0 0 0 0 0 0 0 127 0" result="hardAlpha"/><feOffset dy="1.445"/><feGaussianBlur stdDeviation="1.445"/><feColorMatrix values="0 0 0 0 0.2 0 0 0 0 0.2 0 0 0 0 0.2 0 0 0 0.8 0"/><feBlend in2="BackgroundImageFix" result="effect1_dropShadow_10272_1586"/><feBlend in="SourceGraphic" in2="effect1_dropShadow_10272_1586" result="shape"/></filter><filter id="management__c" x="657.458" y="468.126" width="55.962" height="39.79" filterUnits="userSpaceOnUse" color-interpolation-filters="sRGB"><feFlood flood-opacity="0" result="BackgroundImageFix"/><feColorMatrix in="SourceAlpha" values="0 0 0 0 0 0 0 0 0 0 0 0 0 0 0 0 0 0 127 0" result="hardAlpha"/><feOffset dy="1.445"/><feGaussianBlur stdDeviation="1.445"/><feColorMatrix values="0 0 0 0 0.2 0 0 0 0 0.2 0 0 0 0 0.2 0 0 0 0.8 0"/><feBlend in2="BackgroundImageFix" result="effect1_dropShadow_10272_1586"/><feBlend in="SourceGraphic" in2="effect1_dropShadow_10272_1586" result="shape"/></filter><filter id="management__d" x="708.825" y="450.803" width="55.962" height="39.79" filterUnits="userSpaceOnUse" color-interpolation-filters="sRGB"><feFlood flood-opacity="0" result="BackgroundImageFix"/><feColorMatrix in="SourceAlpha" values="0 0 0 0 0 0 0 0 0 0 0 0 0 0 0 0 0 0 127 0" result="hardAlpha"/><feOffset dy="1.445"/><feGaussianBlur stdDeviation="1.445"/><feColorMatrix values="0 0 0 0 0.2 0 0 0 0 0.2 0 0 0 0 0.2 0 0 0 0.8 0"/><feBlend in2="BackgroundImageFix" result="effect1_dropShadow_10272_1586"/><feBlend in="SourceGraphic" in2="effect1_dropShadow_10272_1586" result="shape"/></filter><filter id="management__e" x="646.857" y="429.193" width="55.962" height="39.79" filterUnits="userSpaceOnUse" color-interpolation-filters="sRGB"><feFlood flood-opacity="0" result="BackgroundImageFix"/><feColorMatrix in="SourceAlpha" values="0 0 0 0 0 0 0 0 0 0 0 0 0 0 0 0 0 0 127 0" result="hardAlpha"/><feOffset dy="1.445"/><feGaussianBlur stdDeviation="1.445"/><feColorMatrix values="0 0 0 0 0.2 0 0 0 0 0.2 0 0 0 0 0.2 0 0 0 0.8 0"/><feBlend in2="BackgroundImageFix" result="effect1_dropShadow_10272_1586"/><feBlend in="SourceGraphic" in2="effect1_dropShadow_10272_1586" result="shape"/></filter><filter id="management__f" x="167.982" y="691.117" width="398.837" height="52.159" filterUnits="userSpaceOnUse" color-interpolation-filters="sRGB"><feFlood flood-opacity="0" result="BackgroundImageFix"/><feBlend in="SourceGraphic" in2="BackgroundImageFix" result="shape"/><feGaussianBlur stdDeviation="7" result="effect1_foregroundBlur_10272_1586"/></filter><filter id="management__g" x="42.356" y="734.603" width="177.784" height="52.159" filterUnits="userSpaceOnUse" color-interpolation-filters="sRGB"><feFlood flood-opacity="0" result="BackgroundImageFix"/><feBlend in="SourceGraphic" in2="BackgroundImageFix" result="shape"/><feGaussianBlur stdDeviation="7" result="effect1_foregroundBlur_10272_1586"/></filter><filter id="management__h" x="770.294" y="213.689" width="310.564" height="295.965" filterUnits="userSpaceOnUse" color-interpolation-filters="sRGB"><feFlood flood-opacity="0" result="BackgroundImageFix"/><feColorMatrix in="SourceAlpha" values="0 0 0 0 0 0 0 0 0 0 0 0 0 0 0 0 0 0 127 0" result="hardAlpha"/><feOffset dx="-2.89" dy="5.78"/><feGaussianBlur stdDeviation="4.335"/><feColorMatrix values="0 0 0 0 0.2 0 0 0 0 0.2 0 0 0 0 0.2 0 0 0 0.15 0"/><feBlend in2="BackgroundImageFix" result="effect1_dropShadow_10272_1586"/><feBlend in="SourceGraphic" in2="effect1_dropShadow_10272_1586" result="shape"/></filter></defs></svg>