<svg width="1082" height="1080" fill="none" xmlns="http://www.w3.org/2000/svg"><path d="M922.548 751.139S715.544 1026.77 481.687 1064.28c-233.858 37.5-341.352-63.33-333.287-171.208 8.064-107.875 42.981-185.279-26.854-269.721-69.834-84.442-166.683-152.488-96.768-361.27C94.693 53.299 288.15-12.354 411.852 8.756c123.702 21.11 134.347 138.414 279.5 168.884 145.152 30.469 327.968-25.755 376.348 126.662 48.39 152.417-48.38 332.7-145.152 446.837Z" fill="#B9CBD3" style="mix-blend-mode:luminosity" opacity=".16"/><path d="M663.111 360.32c-12.874-33.636 6.053-68.89 41.286-76.358 35.256-9.009 75.082 11.743 86.285 45.22l112.429 308.569 66.292 40.239-173.078 276.894-89.417-59.409c-30.2 6.401-65.247 1.537-95.053-18.266l-56.294-37.748-142.453-93.282L663.111 360.32Zm-344.078 26.16-8.766-5.259c-24.543-14.025-57.852-7.013-71.877 19.284-14.025 26.297-7.013 57.853 19.284 71.877l59.606 35.063h1.753V386.48Z" fill="#EDB58D"/><path d="M319.077 486.73c-26.297-15.778-59.606-7.012-73.631 17.532-14.025 24.543-7.012 57.852 19.284 71.877l54.347 31.556V486.73Z" fill="#EDB58D"/><path d="M319.12 586.703c-24.544-10.519-52.593-1.753-66.618 21.037-14.025 24.544-7.013 57.853 19.284 71.878l47.334 28.05V586.703Z" fill="#EDB58D"/><path d="M319.164 670.297c-22.79-7.013-47.334 3.506-59.606 24.544-14.025 24.543-7.012 57.852 19.285 71.877l40.321 24.544V670.297Z" fill="#EDB58D"/><path d="m319.033 386.48-8.766-5.259c-24.543-14.025-57.852-7.013-71.877 19.284-14.025 26.297-7.013 57.853 19.284 71.877l59.606 35.063h1.753V386.48Z" fill="url(#message-template-1__a)"/><path d="M319.813 486.73c-26.297-15.778-59.606-7.012-73.631 17.532-14.025 24.543-7.013 57.852 19.284 71.877l54.347 31.556V486.73Z" fill="url(#message-template-1__b)"/><path d="M320.592 586.703c-24.544-10.519-52.594-1.753-66.619 21.037-14.025 24.544-7.012 57.853 19.285 71.878l47.334 28.05V586.703Z" fill="url(#message-template-1__c)"/><path d="M296.242 202.189c0-40.771 33.051-73.823 73.823-73.823h322.746c40.771 0 73.823 33.052 73.823 73.823v798.631c0 40.77-33.052 73.82-73.823 73.82H370.065c-40.772 0-73.823-33.05-73.823-73.82V202.189Z" fill="#1A2437"/><path d="M327.901 195.464c0-22.239 18.028-40.268 40.267-40.268h332.508c22.239 0 40.267 18.029 40.267 40.268v809.006c0 22.23-18.028 40.26-40.267 40.26H368.168c-22.239 0-40.267-18.03-40.267-40.26V195.464Z" fill="#E7DCD4"/><path d="M524.739 303.612c0-9.404 7.623-17.028 17.028-17.028h155.804c9.404 0 17.028 7.624 17.028 17.028v22.977a5.676 5.676 0 0 1-5.676 5.676H541.767c-9.405 0-17.028-7.624-17.028-17.028v-11.625Z" fill="#fff"/><path d="M554.802 366.32c0-9.404-7.623-17.028-17.028-17.028H364.84c-9.404 0-17.028 7.624-17.028 17.028v22.977a5.676 5.676 0 0 0 5.676 5.676h184.286c9.405 0 17.028-7.624 17.028-17.028V366.32Zm0 152.54c0-9.404-7.623-17.028-17.028-17.028H364.84c-9.404 0-17.028 7.624-17.028 17.028v22.977a5.676 5.676 0 0 0 5.676 5.676h184.286c9.405 0 17.028-7.624 17.028-17.028V518.86Z" fill="#E5FECE"/><path d="M456.218 429.028c0-9.404 7.623-17.028 17.028-17.028h224.325c9.404 0 17.028 7.624 17.028 17.028v50.1a5.676 5.676 0 0 1-5.676 5.676H473.246c-9.405 0-17.028-7.624-17.028-17.028v-38.748Z" fill="#fff"/><path d="M327.901 192.89c0-20.818 16.876-37.694 37.693-37.694h337.802c20.817 0 37.693 16.876 37.693 37.694v10.601H327.901V192.89Z" fill="#0C4E44"/><path d="M741.088 203.491H327.9v59.027h413.188v-59.027Z" fill="#0F5D54"/><path d="m721.252 232.209 6.448-6.425a1.026 1.026 0 0 0-.081-1.37 1.041 1.041 0 0 0-1.379-.068l-6.452 6.408-6.452-6.408a1.044 1.044 0 0 0-.748-.385 1.032 1.032 0 0 0-.983 1.49c.066.129.158.242.271.333l6.448 6.412-6.448 6.424a1.02 1.02 0 0 0-.221 1.118 1.034 1.034 0 0 0 1.681.333l6.452-6.411 6.452 6.411a1.018 1.018 0 0 0 .728.3 1.028 1.028 0 0 0 .732-1.751l-6.448-6.411Zm-374.386 6.447a.72.72 0 0 1-.544-.256l-4.982-5.898a1.434 1.434 0 0 1 0-1.853l4.982-5.898a.724.724 0 0 1 1.259.405.713.713 0 0 1-.15.518l-4.983 5.901 4.974 5.901a.71.71 0 0 1 .103.767.718.718 0 0 1-.659.413Z" fill="#fff"/><path fill-rule="evenodd" clip-rule="evenodd" d="M379.591 251.998a18.7 18.7 0 0 0 10.337-3.123 18.524 18.524 0 0 0 6.85-8.303 18.39 18.39 0 0 0 1.056-10.685 18.466 18.466 0 0 0-5.093-9.469 18.657 18.657 0 0 0-9.528-5.062 18.723 18.723 0 0 0-10.753 1.05 18.587 18.587 0 0 0-8.354 6.807 18.419 18.419 0 0 0-3.143 10.273 18.494 18.494 0 0 0 5.468 13.079 18.726 18.726 0 0 0 13.16 5.433Z" fill="#202C44"/><path d="M384.73 222.253a28.124 28.124 0 0 0-5.515-.536c-3.324 0-6.099.581-7.835 1.639-3.511 2.151-3.906 6.666-3.829 9.166.079 2.587.682 6.189 3.074 8.653 1.917 1.979 6.249 3.046 9.359 3.05a1.77 1.77 0 0 1 1.64 1.074c.09.213.136.441.137.672v1.182c0 .039.011.077.033.11a.198.198 0 0 0 .087.075.204.204 0 0 0 .219-.031 140.77 140.77 0 0 0 3.119-2.774c.257-.226.521-.477.785-.717 1.261-1.131 2.564-2.322 3.468-3.597 1.055-1.488 1.74-3.342 2.047-5.51a18.723 18.723 0 0 0-.227-6.13c-.671-3.344-3.001-5.589-6.562-6.326Z" fill="#00C6D7"/><path opacity=".25" d="M391.497 233.534a9.816 9.816 0 0 1-2.047 4.766c-.91 1.106-2.207 2.126-3.468 3.114-.264.208-.528.414-.785.619-1.051.839-1.426 1.101-2.432 1.854a.198.198 0 0 1-.096.039.205.205 0 0 1-.104-.012.204.204 0 0 1-.13-.153l-.15-.957c0-.836-1.333-1.017-2.309-1.019-3.11 0-7.442-.927-9.36-2.637-2.396-2.141-2.994-5.256-3.074-7.493v-.124.938c.08 2.587.683 6.189 3.074 8.653 1.918 1.978 6.25 3.046 9.36 3.05a1.764 1.764 0 0 1 1.777 1.746v1.182c0 .039.011.077.032.11a.207.207 0 0 0 .307.044 143.075 143.075 0 0 0 3.119-2.774c.257-.226.521-.477.785-.717 1.26-1.131 2.564-2.322 3.467-3.597 1.056-1.488 1.741-3.342 2.048-5.51.125-.933.175-1.874.15-2.815a13.53 13.53 0 0 1-.164 1.693Z" fill="#00C6D7"/><path d="M374.687 232.723a.924.924 0 0 0 .926-.921.923.923 0 0 0-.926-.92.923.923 0 0 0-.926.92c0 .509.414.921.926.921Zm9.754 0a.924.924 0 0 0 .926-.921.923.923 0 0 0-.926-.92.923.923 0 0 0-.926.92c0 .509.414.921.926.921Zm-4.828 4.342c-1.414 0-2.625-.488-3.01-1.217a.336.336 0 0 1 .123-.443.342.342 0 0 1 .464.138c.218.417 1.138.858 2.406.858 1.268 0 2.247-.458 2.427-.902a.346.346 0 0 1 .447-.186.34.34 0 0 1 .187.444c-.317.766-1.581 1.308-3.044 1.308Z" fill="#167491"/><path d="M397.266 226.946c2.878 0 5.211-2.319 5.211-5.179 0-2.86-2.333-5.179-5.211-5.179s-5.211 2.319-5.211 5.179c0 2.86 2.333 5.179 5.211 5.179Z" fill="#21CC79"/><rect x="408.832" y="228.877" width="141.332" height="9.918" rx="4.959" fill="#fff"/><path d="M416.146 155.327h230.011v3.051c0 17.522-14.204 31.726-31.726 31.726H447.872c-17.521 0-31.726-14.204-31.726-31.726v-3.051Z" fill="#1A2437"/><path d="M551.186 168.098h-69.54a3.069 3.069 0 0 0 0 6.136h69.54a3.068 3.068 0 1 0 0-6.136Zm33.198 4.335a4.357 4.357 0 0 1-.723 2.436 4.357 4.357 0 0 1-4.486 1.877 4.366 4.366 0 0 1-1.562-7.925 4.368 4.368 0 0 1 2.437-.723 4.336 4.336 0 0 1 4.334 4.335Z" opacity=".2" fill="#F8FBFB"/><path d="M347.044 989.485c0-9.405 7.624-17.028 17.028-17.028h277.609c9.404 0 17.027 7.623 17.027 17.028v24.045c0 3.14-2.541 5.68-5.675 5.68H364.072c-9.404 0-17.028-7.63-17.028-17.03v-12.695Z" fill="#fff"/><path fill-rule="evenodd" clip-rule="evenodd" d="M372.353 982.846a12.325 12.325 0 0 0-11.385 7.607 12.317 12.317 0 0 0 2.671 13.427 12.228 12.228 0 0 0 6.31 3.37c2.39.48 4.868.24 7.119-.7a12.329 12.329 0 0 0 5.531-4.53 12.35 12.35 0 0 0 2.076-6.851 12.324 12.324 0 0 0-12.322-12.323Zm0 23.294a11.044 11.044 0 0 1-4.17-.84 10.796 10.796 0 0 1-3.532-2.37c-.799-.78-1.47-1.69-1.987-2.68a10.984 10.984 0 1 1 19.939-9.139 10.988 10.988 0 0 1 .366 6.999 10.935 10.935 0 0 1-3.942 5.79 10.998 10.998 0 0 1-6.644 2.24h-.03Z" fill="#0F5D54"/><path fill-rule="evenodd" clip-rule="evenodd" d="M368.335 993.751a1.345 1.345 0 0 0 1.249-.816 1.34 1.34 0 1 0-1.249.816Zm8.241 0c.265 0 .524-.078.744-.226a1.331 1.331 0 0 0 .57-1.375 1.341 1.341 0 0 0-1.053-1.053 1.34 1.34 0 1 0-.261 2.654Zm-4.946 6.859a6.426 6.426 0 0 1-4.622-2.853l-1.109.724a7.63 7.63 0 0 0 2.389 2.339c.958.6 2.036.98 3.157 1.11.287.02.575.02.862 0a7.693 7.693 0 0 0 6.454-3.496l-1.124-.724a6.37 6.37 0 0 1-6.007 2.9Z" fill="#0F5D54"/><path d="M714.782 995.299c0 12.611-10.226 22.841-22.842 22.841-12.615 0-22.842-10.23-22.842-22.841 0-12.615 10.227-22.842 22.842-22.842 12.616 0 22.842 10.227 22.842 22.842Z" fill="#13897B"/><path fill-rule="evenodd" clip-rule="evenodd" d="M692.731 1002.33h-.167a6.202 6.202 0 0 1-6.193-6.199v-7.803a6.202 6.202 0 0 1 3.817-5.75 6.191 6.191 0 0 1 2.376-.477h.167a6.196 6.196 0 0 1 5.729 3.848 6.2 6.2 0 0 1 .464 2.379v7.803a6.198 6.198 0 0 1-1.815 4.379 6.2 6.2 0 0 1-4.378 1.82Zm-2.867-16.702a3.829 3.829 0 0 0-1.121 2.7v7.803a3.829 3.829 0 0 0 3.821 3.821h.167a3.825 3.825 0 0 0 3.821-3.821v-7.803a3.829 3.829 0 0 0-3.821-3.821h-.167a3.829 3.829 0 0 0-2.7 1.121Zm11.197 7.96a1.19 1.19 0 0 1 1.678-.002c.222.222.346.523.346.837v3.463c0 4.974-4.126 9.024-9.28 9.234v3.1c0 .31-.122.6-.339.82a1.173 1.173 0 0 1-1.632 0 1.16 1.16 0 0 1-.338-.82v-3.09c-5.16-.22-9.287-4.27-9.287-9.238v-3.463a1.187 1.187 0 0 1 .317-.894 1.196 1.196 0 0 1 .869-.378 1.192 1.192 0 0 1 .87.378 1.18 1.18 0 0 1 .317.894v3.463c0 3.788 3.301 6.878 7.341 6.878h1.449c4.051 0 7.341-3.09 7.341-6.878v-3.463c0-.316.125-.618.348-.841Z" fill="#fff"/><path d="M554.82 576.53c0-9.404-7.623-17.028-17.027-17.028H364.072c-9.404 0-17.028 7.624-17.028 17.028v182.475a5.676 5.676 0 0 0 5.676 5.676h185.073c9.404 0 17.027-7.623 17.027-17.027V576.53Z" fill="#E5FECE"/><path d="M354.836 584.41c0-9.453 7.663-17.115 17.116-17.115h157.961c9.453 0 17.116 7.662 17.116 17.115v121.601c0 9.453-7.663 17.116-17.116 17.116H371.952c-9.453 0-17.116-7.663-17.116-17.116V584.41Z" fill="#00C6D7"/><path opacity=".25" d="M435.602 614.809s-4.076 11.408-13.435 15.172c-9.358 3.764-20.129 3.715-27.209 18.602-7.079 14.887 4.872 30.812 17.854 29.425 12.982-1.387 14.381-7.504 28.555.229 14.175 7.734 41.547 10.29 55.284-6.074 13.736-16.364 16.844-47.25 7.21-67.057-9.517-19.548-35.737-21.166-49.415-13.42-12.598 7.131-18.844 23.123-18.844 23.123Z" fill="#E7EEF1"/><g opacity=".5" filter="url(#message-template-1__d)"><path d="M485.886 706.395c0 2.069-16.212 3.746-36.211 3.746-19.998 0-36.211-1.677-36.211-3.746s16.213-3.746 36.211-3.746c19.999 0 36.211 1.677 36.211 3.746Z" fill="#125AD5"/></g><path d="M499.355 595.461a1.723 1.723 0 0 0-1.681-.187l-94.631 38.189-11.21 4.652 33.872 13.713h.038v.019l9.061 31.631a1.87 1.87 0 0 0 3.12.803l18.871-19.3 25.465 10.014a3.688 3.688 0 0 0 5.045-2.877l12.854-74.714a1.838 1.838 0 0 0-.804-1.943Zm-54.873 64.513.038-.131.056.019-.094.112Z" fill="#FCDA97"/><path d="m456.793 664.981-18.871 19.3c.22-.239.38-.527.467-.84l6.091-23.467.094-.112 8.108 3.401 3.625 1.532.486.186Z" fill="#FFC34E"/><path d="m499.491 595.561-54.918 64.301-.056-.019-.037.131-6.091 23.466a2.062 2.062 0 0 1-.467.841 1.87 1.87 0 0 1-3.12-.804l-9.062-31.631v-.018h-.018v-.019l73.769-56.248Z" fill="#FFCD6B"/><path opacity=".5" d="M354.836 584.41c0-9.453 7.663-17.115 17.116-17.115h157.961c9.453 0 17.116 7.662 17.116 17.115v121.601c0 9.453-7.663 17.116-17.116 17.116H371.952c-9.453 0-17.116-7.663-17.116-17.116V584.41Z" fill="#0A0F1A"/><path opacity=".5" d="M486.553 644.841c0 19.877-16.113 35.991-35.99 35.991-19.878 0-35.991-16.114-35.991-35.991s16.113-35.991 35.991-35.991c19.877 0 35.99 16.114 35.99 35.991Z" fill="#F8FBFB"/><path d="M463.473 641.45c3.088 1.782 3.088 6.239 0 8.022l-14.96 8.637c-3.087 1.783-6.947-.446-6.947-4.011v-17.274c0-3.566 3.86-5.794 6.947-4.011l14.96 8.637Z" fill="#F8FBFB"/><path d="M607.907 553.155c0-9.404-7.624-17.027-17.028-17.027H274.312c-9.404 0-17.028 7.623-17.028 17.027v323.537a5.675 5.675 0 0 0 5.676 5.675h327.919c9.404 0 17.028-7.623 17.028-17.027V553.155Z" fill="#E5FECE"/><path d="M274.24 564.036c0-9.453 7.663-17.116 17.116-17.116h290.095c9.452 0 17.115 7.663 17.115 17.116v228.735c0 9.453-7.663 17.116-17.115 17.116H291.356c-9.453 0-17.116-7.663-17.116-17.116V564.036Z" fill="#00C6D7"/><path opacity=".5" d="M387.51 624.106c-10.643 9.131-23.986 2.523-31.423 5.238-10.173 3.724-15.669 17.576-15.067 25.444.615 7.208 9.402 12.518 15.441 16.579 6.039 4.06 12.8 7.76 16.368 14.091 4.93 8.77 2.266 19.594.711 29.529-1.868 11.869-1.783 24.603 3.894 35.211a36.461 36.461 0 0 0 12.472 13.483 36.614 36.614 0 0 0 17.485 5.713c6.222.387 12.44-.82 18.061-3.505a36.503 36.503 0 0 0 14.057-11.835c3.061-4.325 5.182-9.322 8.714-13.287a32.898 32.898 0 0 1 14.561-8.853c19.466-6.392 42.572 4.865 76.864-19.162 11.487-8.049 18.948-23.498 18.08-37.469-.651-10.812-7.823-20.519-17.164-25.997-9.341-5.478-20.563-7.076-31.339-6.367-10.378.673-20.816 3.352-31.085 1.622-10.27-1.73-20.612-9.959-19.84-20.302 1.205-16.11-2.29-35.92-15.67-45.038-13.379-9.118-33.978-6.68-43.392 6.439-10.317 14.128-.373 25.084-11.728 38.466Z" fill="#E7EEF1"/><path d="m502.178 660.237-12.589 56.889c-12.43 15.776-31.898 26.321-53.57 26.321-37.368 0-67.991-30.623-67.991-67.992 0-9.561 2.257-18.645 5.923-26.931l12.509-7.968-3.984-6.453c12.43-16.016 31.792-26.639 53.543-26.639 32.111 0 59.227 22.734 66.159 52.773Z" fill="#283D79"/><path d="M502.216 660.207c-2.103.623-3.845 1.441-5.068 2.613-1.964 1.883-2.47 4.077-2.622 6.065-1.327-.338-2.856-1.105-4.454-1.902-2.743-1.37-5.852-2.926-9.299-2.926-4.894 0-14.009 0-14.009 8.995 0 1.042 0 1.042-1.078 1.735-1.642 1.054-5.058 3.248-3.856 9.092.852 4.155 2.529 6.948 5.128 8.539 3.758 2.292 7.944 1.133 11.006.281 1.051-.292 2.237-.623 2.809-.623.696 0 1.334 2.12 1.751 3.898 1.801 7.715.603 11.594-.043 13.679-.44 1.432-1.109 3.595.432 5.572 1.527 1.962 3.782 2.017 6.674 1.869 9.003-11.5 14.424-25.934 14.424-41.638 0-5.249-.66-10.339-1.795-15.249Zm-35.335-24.271c-7.569 5.019-11.739 5.816-13.492 5.975l-7.968 3.028c-.717 0-.956.08-.956.08-.239 1.115.558 4.94-3.028 7.569.16 4.542-2.071 6.932-5.418 8.127-2.629 1.036-6.055 1.275-9.561 1.275-.638.956-1.594 2.151-3.267 3.824-4.541 4.542-9.481 2.072-12.111.797-.876-.398-2.231-1.035-2.63-1.035-1.593 1.513-1.035 3.266-.716 3.983.796 2.072 3.346 4.542 7.569 4.542 4.462 0 5.976-1.116 7.649-2.311 1.673-1.194 3.745-2.708 7.41-2.708 2.629 0 4.382 1.274 5.657 2.708.718.877 1.275 1.833 1.753 2.63 2.39 3.904 4.063 4.78 8.605 5.816 2.789.558 8.048 1.753 8.048 7.888 0 9.004-6.295 15.458-10.916 20.239-1.594 1.593-3.904 3.984-4.144 4.94v4.78c.08 2.789-1.274 5.577-3.346 7.33-2.151 1.833-5.02 2.55-7.728 1.036-3.188-1.832-6.933-6.693-6.933-28.365-4.94-2.47-10.039-5.259-10.039-9.96v-5.02c-.876-.876-9.481-4.94-12.748-6.454-3.187-1.513-9.562-1.593-11.713-7.011-1.593-3.984-.079-9.163 5.02-17.37.877-1.514.797-2.151.797-2.151s-2.072-2.311-14.183-1.593h-4.541c2.23-5.18 5.178-10.04 8.525-14.422 1.593-.08 3.267-.16 4.86-.16 5.02 0 14.342 0 28.764-4.78 9.083-3.028 14.82-4.303 19.919-4.781 3.745-.398 7.172-.398 11.474-.398h16.44c2.709.239 5.02 2.231 5.657 4.94.717 2.63-.398 5.498-2.709 7.012Z" fill="#2CC3D5"/><path fill-rule="evenodd" clip-rule="evenodd" d="M358.889 691.755c-.37-.104-.731-.202-1.083-.294l.579-2.217c.367.095.742.197 1.126.306l-.622 2.205Zm4.374 1.391a82.14 82.14 0 0 0-2.178-.73l.696-2.183c.723.231 1.471.481 2.241.751l-.759 2.162Zm4.298 1.628c-.729-.295-1.443-.575-2.139-.839l.812-2.143c.714.27 1.443.556 2.188.859l-.861 2.123Zm4.228 1.818c-.714-.323-1.416-.634-2.106-.931l.906-2.105c.704.303 1.42.619 2.147.949l-.947 2.087Zm4.169 1.988a126.26 126.26 0 0 0-2.078-1.014l.986-2.069c.697.332 1.402.676 2.116 1.032l-1.024 2.051Zm4.087 2.13c-.683-.371-1.359-.731-2.029-1.08l1.059-2.032c.682.355 1.37.721 2.064 1.098l-1.094 2.014Zm4.024 2.273c-.673-.395-1.342-.78-2.006-1.155l1.127-1.996c.675.381 1.355.772 2.039 1.174l-1.16 1.977Zm3.938 2.395c-.656-.413-1.309-.817-1.958-1.213l1.191-1.957c.66.401 1.323.812 1.99 1.232l-1.223 1.938Zm3.872 2.527c-.644-.435-1.285-.86-1.924-1.277l1.253-1.919c.648.423 1.3.855 1.953 1.296l-1.282 1.9Zm3.787 2.644c-.63-.455-1.26-.902-1.888-1.34l1.312-1.879c.638.445 1.277.898 1.917 1.36l-1.341 1.859Zm3.699 2.756c-.614-.472-1.227-.937-1.84-1.393l1.37-1.838c.622.464 1.244.935 1.868 1.415l-1.398 1.816Zm3.615 2.872c-.596-.489-1.193-.971-1.79-1.444l1.426-1.795c.606.481 1.212.97 1.817 1.467l-1.453 1.772Zm3.527 2.985c-.583-.509-1.166-1.01-1.749-1.504l1.48-1.75c.593.502 1.185 1.011 1.776 1.527l-1.507 1.727Zm3.433 3.093a143.728 143.728 0 0 0-1.707-1.562l1.534-1.703c.579.522 1.157 1.05 1.734 1.587l-1.561 1.678Zm3.333 3.198a139.575 139.575 0 0 0-1.659-1.617l1.587-1.654c.563.54 1.125 1.088 1.685 1.642l-1.613 1.629Zm3.227 3.297a150.055 150.055 0 0 0-1.604-1.665l1.638-1.604a146.04 146.04 0 0 1 1.629 1.692l-1.663 1.577Zm3.122 3.399c-.514-.578-1.03-1.149-1.549-1.714l1.688-1.55c.527.573 1.051 1.153 1.574 1.74l-1.713 1.524Zm3.012 3.496a145.16 145.16 0 0 0-1.491-1.76l1.736-1.495c.508.589 1.013 1.185 1.515 1.788l-1.76 1.467Zm2.898 3.592c-.474-.608-.952-1.21-1.432-1.805l1.783-1.439a143 143 0 0 1 1.456 1.834l-1.807 1.41Zm2.781 3.684a147.81 147.81 0 0 0-1.373-1.85l1.829-1.38c.469.62.934 1.246 1.395 1.879l-1.851 1.351Zm2.659 3.773a150.23 150.23 0 0 0-1.311-1.893l1.873-1.321a138.8 138.8 0 0 1 1.333 1.924l-1.895 1.29Zm2.535 3.857c-.413-.651-.829-1.296-1.249-1.935l1.916-1.258c.426.649.849 1.304 1.268 1.966l-1.935 1.227Zm2.407 3.938c-.391-.664-.786-1.322-1.185-1.975l1.956-1.195c.405.663.806 1.332 1.203 2.007l-1.974 1.163Zm2.276 4.015c-.369-.677-.742-1.348-1.119-2.013l1.993-1.131c.384.676.763 1.358 1.138 2.046l-2.012 1.098Zm2.145 4.087c-.348-.689-.699-1.372-1.054-2.05l2.029-1.064c.361.689.718 1.383 1.071 2.083l-2.046 1.031Zm1.523 3.119c-.166-.351-.333-.7-.501-1.048l2.063-.998c.171.354.341.708.51 1.065l-2.072.981Zm-4.994-154.393a63.816 63.816 0 0 0-2.285-.034l-.005-1.528c.789-.002 1.57.009 2.341.035l-.051 1.527Zm-4.567.012c-.751.028-1.51.069-2.274.122l-.106-1.524a71.409 71.409 0 0 1 2.323-.125l.057 1.527Zm9.101.315a55.2 55.2 0 0 0-2.259-.208l.109-1.524c.786.056 1.56.128 2.322.214l-.172 1.518Zm-13.653.001a77.07 77.07 0 0 0-2.275.264l-.199-1.515a76.473 76.473 0 0 1 2.321-.269l.153 1.52Zm18.142.721a44.861 44.861 0 0 0-2.237-.415l.241-1.508c.787.125 1.558.268 2.313.428l-.317 1.495Zm-22.672-.127c-.747.12-1.499.252-2.253.395l-.285-1.501c.768-.146 1.533-.28 2.296-.403l.242 1.509Zm25.949.966a36.34 36.34 0 0 0-1.072-.308l.4-1.475c.377.102.749.209 1.117.321l-.445 1.462Zm-30.446-.111a84.54 84.54 0 0 0-2.221.519l-.368-1.483a86.74 86.74 0 0 1 2.262-.529l.327 1.493Zm-4.435 1.101c-.732.203-1.464.417-2.196.641l-.448-1.461a86.702 86.702 0 0 1 2.235-.652l.409 1.472Zm-4.371 1.34c-.721.243-1.441.496-2.161.76l-.526-1.434a84.658 84.658 0 0 1 2.2-.774l.487 1.448Zm-4.295 1.576c-.706.28-1.41.572-2.113.873l-.603-1.403a84.113 84.113 0 0 1 2.151-.89l.565 1.42Zm-4.204 1.806c-.689.319-1.375.648-2.059.987l-.679-1.368a83.758 83.758 0 0 1 2.097-1.006l.641 1.387Zm-4.094 2.033a79.9 79.9 0 0 0-2.001 1.102l-.756-1.328a81.226 81.226 0 0 1 2.04-1.123l.717 1.349Zm-3.971 2.261c-.65.395-1.296.8-1.936 1.216l-.832-1.282a78.47 78.47 0 0 1 1.975-1.24l.793 1.306Zm-3.832 2.487c-.626.432-1.246.875-1.86 1.328l-.907-1.229a75.327 75.327 0 0 1 1.897-1.356l.87 1.257Zm-3.676 2.712c-.598.469-1.189.949-1.773 1.439l-.982-1.171c.597-.5 1.201-.99 1.81-1.469l.945 1.201Zm-3.5 2.934a73.883 73.883 0 0 0-1.675 1.547l-1.055-1.105a72.79 72.79 0 0 1 1.712-1.581l1.018 1.139Zm-3.302 3.152a68.24 68.24 0 0 0-1.569 1.653l-1.125-1.033a69.404 69.404 0 0 1 1.603-1.69l1.091 1.07Zm-3.083 3.361a67.03 67.03 0 0 0-1.454 1.756l-1.194-.953a66.62 66.62 0 0 1 1.488-1.798l1.16.995Zm-2.846 3.561a65.587 65.587 0 0 0-1.331 1.856l-1.257-.868c.444-.644.898-1.277 1.362-1.9l1.226.912Zm-2.592 3.751a64.57 64.57 0 0 0-1.199 1.947l-1.315-.777c.399-.675.808-1.339 1.227-1.994l1.287.824Zm-2.321 3.924c-.363.665-.715 1.34-1.058 2.025l-1.366-.683c.35-.701.711-1.392 1.082-2.073l1.342.731Zm-2.038 4.078a63.496 63.496 0 0 0-.911 2.093l-1.412-.585c.3-.723.611-1.437.933-2.142l1.39.634Zm-1.747 4.213a67.16 67.16 0 0 0-.763 2.149l-1.448-.486c.249-.742.509-1.475.78-2.199l1.431.536Zm-1.451 4.324a67.275 67.275 0 0 0-.615 2.196l-1.478-.388c.198-.756.408-1.505.628-2.244l1.465.436Zm-1.157 4.414a69.227 69.227 0 0 0-.469 2.231l-1.5-.29c.148-.768.308-1.528.479-2.28l1.49.339Zm-.868 4.48c-.061.379-.119.76-.174 1.142l-1.512-.219c.056-.39.116-.779.178-1.166l1.508.243Z" fill="#E7EEF1"/><mask id="message-template-1__e" style="mask-type:alpha" maskUnits="userSpaceOnUse" x="333" y="657" width="45" height="44"><path d="M355.135 700.857c12.077 0 21.868-9.791 21.868-21.868 0-12.077-9.791-21.868-21.868-21.868-12.077 0-21.868 9.791-21.868 21.868 0 12.077 9.791 21.868 21.868 21.868Z" fill="#FF5A60"/></mask><g mask="url(#message-template-1__e)"><path fill-rule="evenodd" clip-rule="evenodd" d="M348.753 696.113a2.674 2.674 0 0 0-3.316-4.195l1.642 2.11c-1.642-2.11-1.643-2.109-1.644-2.109l-.002.002-.004.003-.01.008-.022.018a4.915 4.915 0 0 0-.208.176c-.12.106-.274.25-.454.434-.36.367-.825.895-1.329 1.602-1.011 1.419-2.167 3.541-2.96 6.505a2.674 2.674 0 1 0 5.165 1.382c.619-2.313 1.489-3.856 2.15-4.783.332-.465.615-.781.793-.963a4.42 4.42 0 0 1 .183-.176l.016-.014Zm14.829-3.732a2.673 2.673 0 0 1 3.779-.123l-1.828 1.951a293.437 293.437 0 0 1 1.83-1.95l.001.001.003.003.007.007.017.016.045.043.132.133c.105.109.245.258.41.448.33.379.766.922 1.237 1.626a19.722 19.722 0 0 1 2.711 6.158 2.674 2.674 0 1 1-5.187 1.302 14.332 14.332 0 0 0-1.968-4.485c-.332-.496-.627-.86-.825-1.089a7.227 7.227 0 0 0-.217-.237l-.039-.039-.001-.002.002.002.005.005.004.004.003.003.001.001" fill="#F99B45"/><path d="M345.938 693.339s-2.407 9.25-2.927 9.931l-.264.326c.33.028.662.004.985-.07l.704-.865 1.839-6.282-.337-3.04Zm20.215 1.1s2.173 8.019 2.704 8.7l.309.47a3.13 3.13 0 0 1-.95-.214l-.701-.864-1.842-6.282.48-1.81Z" fill="#FA7E25"/><path d="M368.513 704.396c-.895-3.837-3.079-12.816-3.079-12.816 0-.439-2.673-.595-8.674-.713v-.03l-.869.012-.872-.012v.03c-5.998.118-8.674.274-8.674.713 0 0-2.184 8.986-3.079 12.816-.859 3.696 1.684 6.96 4.099 6.96h17.049c2.415 0 4.96-3.264 4.099-6.96Z" fill="#F99B45"/><path d="M355.582 664.764c.387-.071 4.616-3.425 8.362.836 2.651 3.015.226 5.008 2.495 7.086 2.01 1.844 4.804 6.706.988 10.731-1.789 1.887 2.882 9.214-6.613 5.854-6.031-2.138-6.533-.791-6.533-.791l1.301-23.716Z" fill="#2C2A46"/><path d="M358.528 665.885s.204-1.782-2.603-2.885c-2.807-1.103-9.568.35-9.437 6.154.13 5.804-6.056 6.068-4.387 10.432 1.668 4.364-2.96 4.932 1.357 8.467 4.316 3.536 11.759 2.603 11.655-3.462-.103-6.065 3.415-18.706 3.415-18.706Z" fill="#2C2A46"/><path d="M355.856 694.274c1.395 0 2.525-.931 2.525-2.08s-1.13-2.08-2.525-2.08c-1.394 0-2.525.931-2.525 2.08s1.131 2.08 2.525 2.08Z" fill="#EFB8C2"/><path d="M355.856 694.274c1.395 0 2.525-.931 2.525-2.08s-1.13-2.08-2.525-2.08c-1.394 0-2.525.931-2.525 2.08s1.131 2.08 2.525 2.08Z" fill="#CB8591"/><path fill-rule="evenodd" clip-rule="evenodd" d="M355.856 690.422c-1.283 0-2.217.847-2.217 1.772s.934 1.772 2.217 1.772 2.216-.847 2.216-1.772-.933-1.772-2.216-1.772Zm-2.834 1.772c0-1.373 1.327-2.389 2.834-2.389 1.506 0 2.834 1.016 2.834 2.389 0 1.373-1.328 2.389-2.834 2.389-1.507 0-2.834-1.016-2.834-2.389Z" fill="#CB8591"/><path d="M356.063 686.217h-.409a7.638 7.638 0 0 1-1.651-.178v4.774a1.66 1.66 0 0 0 1.026 1.539c.202.083.419.126.637.126h.385a1.658 1.658 0 0 0 1.541-1.037c.082-.203.124-.421.122-.641v-4.774a7.707 7.707 0 0 1-1.651.191Z" fill="#CB8591"/><path d="M354.008 687.337v1.375s.394-.676 1.849-.676 1.857.754 1.857.754v-1.664l-3.711-.068.005.279Z" fill="#A8747D"/><path d="M363.784 671.361v8.236a7.715 7.715 0 0 1-2.258 5.463 7.708 7.708 0 0 1-5.463 2.258h-.41a7.729 7.729 0 0 1-6.013-2.878 7.727 7.727 0 0 1-1.708-4.838v-8.241a7.722 7.722 0 0 1 7.721-7.722h.41a7.722 7.722 0 0 1 7.721 7.722Z" fill="#CB8591"/><path d="M348.122 677.448v3.532a1.2 1.2 0 0 1-1.181-1.203v-1.126a1.204 1.204 0 0 1 1.181-1.203Zm16.345 1.203v1.126a1.203 1.203 0 0 1-1.181 1.203v-3.532a1.206 1.206 0 0 1 1.181 1.203Z" fill="#CB8591"/><path d="M363.595 673.808s.146 2.53 0 3.503c-.146.972.583-3.503.583-3.503h-.583Z" fill="#160566"/><path d="M356.208 664.78a13.678 13.678 0 0 1 3.188-1.289 5.982 5.982 0 0 1 1.734-.153 3.699 3.699 0 0 1 1.686.517 3.68 3.68 0 0 1 1.233 1.269l.237.364c.072.126.143.252.213.38.151.251.266.517.397.776.234.531.435 1.075.601 1.631.168.55.311 1.103.502 1.626.184.52.453 1.005.797 1.437.375.418.78.809 1.213 1.168.425.396.82.824 1.181 1.279.363.458.673.955.925 1.482a5.355 5.355 0 0 1 .424 3.423 6.978 6.978 0 0 1-1.698 2.972 7.157 7.157 0 0 0 1.507-3.015 5.078 5.078 0 0 0-.502-3.246 6.81 6.81 0 0 0-.427-.722c-.146-.251-.327-.454-.503-.678a11.449 11.449 0 0 0-1.163-1.219 11.134 11.134 0 0 1-1.256-1.201 5.29 5.29 0 0 1-.865-1.542c-.201-.551-.341-1.108-.502-1.651a14.7 14.7 0 0 0-.571-1.591c-.12-.251-.231-.502-.371-.753-.068-.123-.131-.252-.201-.37l-.224-.359a3.556 3.556 0 0 0-1.103-1.198 3.479 3.479 0 0 0-1.55-.531 5.951 5.951 0 0 0-1.674.096 9.887 9.887 0 0 0-1.638.452c-.54.189-1.055.437-1.59.646Z" fill="#2C2A46"/><path d="M358.598 666.767a2.432 2.432 0 0 0-.829-1.794 5.262 5.262 0 0 0-1.732-1.058 5.959 5.959 0 0 0-1.977-.369 8.86 8.86 0 0 0-2.01.168 9.005 9.005 0 0 0-1.93.603 6.614 6.614 0 0 0-1.688 1.073 5.28 5.28 0 0 0-1.784 3.457c-.038.329-.045.658-.07 1.018a7.318 7.318 0 0 1-.156 1.042 6.153 6.153 0 0 1-.832 1.938c-.769 1.191-1.897 2.047-2.872 2.977a4.123 4.123 0 0 0-1.12 1.626 2.832 2.832 0 0 0-.118.977c.022.334.086.664.188.983.226.659.317 1.357.266 2.052-.034.343-.107.68-.218 1.005a9.221 9.221 0 0 1-.412.953 5.651 5.651 0 0 0 .532-1.965 5.038 5.038 0 0 0-.341-1.988 4.31 4.31 0 0 1-.234-1.027 3.096 3.096 0 0 1 .103-1.058 4.38 4.38 0 0 1 1.143-1.759c.485-.502 1.005-.947 1.493-1.422a8.737 8.737 0 0 0 1.306-1.54c.36-.562.62-1.182.769-1.832.07-.326.117-.657.141-.99.02-.327.022-.683.063-1.035.082-.702.29-1.383.615-2.01a5.51 5.51 0 0 1 1.317-1.648 6.799 6.799 0 0 1 1.779-1.111 8.33 8.33 0 0 1 2.01-.595 9.017 9.017 0 0 1 2.075-.129 5.975 5.975 0 0 1 2.035.438c.643.27 1.226.663 1.719 1.155.244.25.442.54.585.857.148.315.211.662.184 1.008Z" fill="#2C2A46"/><path d="M355.081 663.24c-6.03-.983-8.643 6.854-8.291 8.655.185.938.502 2.475.753 3.734 0 0 .729 4.473.583 3.5a6.826 6.826 0 0 1-.055-.701 4.411 4.411 0 0 1 .322-1.809c.442-1.095 1.04-2.44 1.04-2.44s3.962.621 7.467-.967c3.505-1.588 4.9-6.671 4.9-6.671s-.689-2.316-6.719-3.301Z" fill="#2C2A46"/><path d="M355.352 662.984c8.377-1.41 9.641 6.799 9.277 8.6-.365 1.802-1.063 7.018-1.063 7.018 0-.713-.782-5.779-1.355-6.646-2.907-4.427-6.859-8.972-6.859-8.972Z" fill="#2C2A46"/><path d="M361.745 666.54c-.095.67-.248 1.331-.457 1.975a11.895 11.895 0 0 1-.774 1.889 9.209 9.209 0 0 1-1.118 1.729 8.308 8.308 0 0 1-.711.754c-.134.113-.269.223-.405.334-.068.055-.133.113-.206.163l-.221.141a10.85 10.85 0 0 1-3.852 1.41c-.67.119-1.348.189-2.028.208a11.825 11.825 0 0 1-2.025-.103 19.809 19.809 0 0 0 3.97-.502 14.507 14.507 0 0 0 1.892-.571c.156-.055.304-.123.457-.188.154-.066.304-.123.448-.201l.439-.221c.144-.078.272-.171.41-.252l.206-.125c.065-.045.126-.098.188-.148l.387-.32c.229-.231.47-.447.676-.701a9.987 9.987 0 0 0 1.131-1.613c.337-.573.636-1.168.894-1.781.265-.613.498-1.24.699-1.877Z" fill="#2C2A46"/></g><path fill-rule="evenodd" clip-rule="evenodd" d="m464.278 617.9-.121 1.123-2.279-.245.121-1.124 2.279.246Zm-.364 3.371-.242 2.248-2.279-.246.243-2.248 2.278.246Zm-.485 4.496-.242 2.248-2.279-.246.243-2.248 2.278.246Zm-.484 4.495-.243 2.248-2.278-.246.242-2.247 2.279.245Zm-.485 4.496-.243 2.248-2.278-.246.242-2.248 2.279.246Zm-.485 4.495-.242 2.248-2.279-.246.242-2.247 2.279.245Zm-.485 4.496-.242 2.248-2.279-.246.243-2.248 2.278.246Zm-.485 4.495-.242 2.248-2.279-.245.243-2.248 2.278.245Zm-.484 4.496-.243 2.248-2.279-.246.243-2.248 2.279.246Zm-.485 4.496-.243 2.247-2.278-.245.242-2.248 2.279.246Zm-.485 4.495-.243 2.248-2.278-.246.242-2.248 2.279.246Zm-.485 4.496-.242 2.247-2.279-.245.242-2.248 2.279.246Zm-.485 4.495-.242 2.248-2.279-.246.243-2.248 2.278.246Zm-.485 4.496-.242 2.247-2.279-.245.243-2.248 2.278.246Zm-.484 4.495-.243 2.248-2.278-.246.242-2.247 2.279.245Zm-.485 4.496-.243 2.248-2.278-.246.242-2.248 2.279.246Zm-.485 4.495-.242 2.248-2.279-.246.242-2.247 2.279.245Zm-.485 4.496-.242 2.248-2.279-.246.243-2.248 2.278.246Zm-.485 4.495-.242 2.248-2.279-.246.243-2.247 2.278.245Zm-.484 4.496-.243 2.248-2.278-.246.242-2.248 2.279.246Zm-.485 4.496-.243 2.247-2.278-.245.242-2.248 2.279.246Zm-.485 4.495-.242 2.248-2.279-.246.242-2.248 2.279.246Zm-.485 4.496-.242 2.247-2.279-.245.242-2.248 2.279.246Zm-.485 4.495-.242 2.248-2.279-.246.243-2.248 2.278.246Zm-.484 4.496-.243 2.247-2.279-.245.243-2.248 2.279.246Zm-.485 4.495-.243 2.248-2.278-.246.242-2.248 2.279.246Zm-.485 4.496-.121 1.124-2.279-.246.121-1.124 2.279.246Z" fill="#E7EEF1"/><mask id="message-template-1__f" style="mask-type:alpha" maskUnits="userSpaceOnUse" x="436" y="574" width="44" height="44"><path d="M457.885 617.968c12.078 0 21.868-9.791 21.868-21.868 0-12.077-9.79-21.868-21.868-21.868-12.077 0-21.867 9.791-21.867 21.868 0 12.077 9.79 21.868 21.867 21.868Z" fill="#FF5A60"/></mask><g mask="url(#message-template-1__f)"><path fill-rule="evenodd" clip-rule="evenodd" d="M450.294 614.917a2.674 2.674 0 0 0-3.316-4.195l1.623 2.086a241.763 241.763 0 0 0-1.625-2.084l-.002.002-.005.003-.009.008-.022.017-.055.045a9.006 9.006 0 0 0-.603.562 13.24 13.24 0 0 0-1.319 1.59c-1.003 1.407-2.15 3.512-2.936 6.451a2.673 2.673 0 1 0 5.166 1.382c.612-2.287 1.472-3.813 2.125-4.729.328-.46.607-.772.783-.951.088-.09.151-.147.18-.173l.015-.014Zm14.653-3.732a2.675 2.675 0 0 1 3.779-.123l-1.828 1.951c1.828-1.951 1.829-1.95 1.83-1.95l.001.002.004.003.006.006.017.016.045.044a11.274 11.274 0 0 1 .538.576c.328.377.76.915 1.227 1.613a19.537 19.537 0 0 1 2.689 6.109 2.673 2.673 0 1 1-5.187 1.301 14.185 14.185 0 0 0-1.946-4.435 10.77 10.77 0 0 0-.815-1.075 5.413 5.413 0 0 0-.252-.272 2.675 2.675 0 0 1-.108-3.766Z" fill="#F66689"/><path d="M447.49 612.151s-2.385 9.163-2.9 9.837l-.261.324c.326.027.656.003.975-.07l.697-.856 1.822-6.223-.333-3.012Zm20.022 1.09s2.153 7.943 2.678 8.617l.306.466a3.077 3.077 0 0 1-.941-.212l-.694-.856-1.825-6.222.476-1.793Z" fill="#2498A8"/><path d="M469.849 623.104c-.886-3.801-3.049-12.695-3.049-12.695 0-.435-2.648-.589-8.592-.706v-.03l-.861.012-.864-.012v.03c-5.941.117-8.592.271-8.592.706 0 0-2.163 8.901-3.049 12.695-.851 3.661 1.668 6.894 4.06 6.894h16.888c2.392 0 4.913-3.233 4.059-6.894Z" fill="#F66689"/><path d="M460.673 579.179c-.358-.451-.865-.632-1.286-1.024l-.138.031c.414.373.799.777 1.152 1.207.175.222.354.423.498.672.156.229.297.468.423.715.518.987.693 2.118.498 3.215a7.102 7.102 0 0 1-1.493 2.987 6.926 6.926 0 0 0 1.682-2.945 5.298 5.298 0 0 0-.42-3.389 7.768 7.768 0 0 0-.916-1.469Zm-4.432 5.846a2.412 2.412 0 0 0-1.814-.737 5.24 5.24 0 0 0-1.968.406 5.918 5.918 0 0 0-1.681 1.07 8.851 8.851 0 0 0-1.34 1.482 8.962 8.962 0 0 0-.989 1.741 6.606 6.606 0 0 0-.496 1.919 5.229 5.229 0 0 0 1.048 3.708c.196.264.413.507.638.784a6.075 6.075 0 0 1 1.301 2.824c.249 1.382.012 2.765-.064 4.098a4.076 4.076 0 0 0 .289 1.934c.144.294.339.56.575.787.243.226.512.422.801.583.61.325 1.148.769 1.582 1.306.207.27.382.564.521.875.134.315.25.639.346.968a5.588 5.588 0 0 0-.943-1.783 4.99 4.99 0 0 0-1.592-1.206 4.296 4.296 0 0 1-.864-.586 3.031 3.031 0 0 1-.641-.835 4.346 4.346 0 0 1-.363-2.046c.011-.692.087-1.365.118-2.039a8.625 8.625 0 0 0-.096-1.998 5.76 5.76 0 0 0-.683-1.846 7.106 7.106 0 0 0-.568-.811c-.206-.25-.446-.51-.655-.792a5.793 5.793 0 0 1-.914-1.87 5.448 5.448 0 0 1-.162-2.084 6.764 6.764 0 0 1 .536-2.007 8.291 8.291 0 0 1 1.051-1.79 8.962 8.962 0 0 1 1.416-1.497 5.915 5.915 0 0 1 1.768-1.06 5.318 5.318 0 0 1 2.025-.326c.345.015.685.091 1.004.224.319.127.599.336.814.604Z" fill="#2C2A46"/><path d="M454.987 585.74a2.419 2.419 0 0 1 1.383-1.386 5.226 5.226 0 0 1 1.971-.393 5.922 5.922 0 0 1 1.965.33 8.777 8.777 0 0 1 1.812.842 8.87 8.87 0 0 1 1.589 1.219c.479.46.885.991 1.204 1.573a5.223 5.223 0 0 1 .481 3.824c-.077.319-.182.627-.282.97a7.424 7.424 0 0 0-.21 1.023 6.067 6.067 0 0 0 .113 2.085c.309 1.37 1.066 2.551 1.656 3.748.313.583.481 1.233.488 1.894a2.825 2.825 0 0 1-.224.949 4.096 4.096 0 0 1-.51.85 5.127 5.127 0 0 0-.947 1.818 4.47 4.47 0 0 0-.14 1.01c0 .342.02.685.059 1.026a5.601 5.601 0 0 1 .174-2.009 4.992 4.992 0 0 1 .996-1.732c.224-.268.415-.562.567-.876.147-.322.237-.667.265-1.019a4.342 4.342 0 0 0-.463-2.026c-.28-.632-.612-1.223-.904-1.831a8.653 8.653 0 0 1-.69-1.878 5.748 5.748 0 0 1-.09-1.966c.046-.327.115-.651.206-.968.093-.311.212-.644.295-.984a5.802 5.802 0 0 0 .113-2.08 5.486 5.486 0 0 0-.663-1.982 6.785 6.785 0 0 0-1.276-1.639 8.31 8.31 0 0 0-1.666-1.239 8.957 8.957 0 0 0-1.887-.827 5.937 5.937 0 0 0-2.042-.287 5.35 5.35 0 0 0-1.992.489 2.95 2.95 0 0 0-.836.597 1.999 1.999 0 0 0-.515.875Z" fill="#2C2A46"/><path d="M465.921 592.715v8.441c0 3.793-2.851 6.962-6.655 7.737a9.285 9.285 0 0 1-1.815.179h-.443a9.07 9.07 0 0 1-1.815-.182c-3.803-.778-6.652-3.943-6.652-7.734v-8.441c0-4.371 3.79-7.916 8.462-7.916h.451c4.68 0 8.467 3.545 8.467 7.916Z" fill="#2C2A46"/><path d="M457.334 613.57c1.439 0 2.606-.961 2.606-2.146 0-1.186-1.167-2.147-2.606-2.147-1.439 0-2.605.961-2.605 2.147 0 1.185 1.166 2.146 2.605 2.146Z" fill="#F3C29F"/><path fill-rule="evenodd" clip-rule="evenodd" d="M457.334 609.483c-1.365 0-2.4.904-2.4 1.941 0 1.036 1.035 1.941 2.4 1.941 1.364 0 2.4-.905 2.4-1.941 0-1.037-1.036-1.941-2.4-1.941Zm-2.812 1.941c0-1.335 1.298-2.353 2.812-2.353 1.513 0 2.811 1.018 2.811 2.353 0 1.334-1.298 2.352-2.811 2.352-1.514 0-2.812-1.018-2.812-2.352Z" fill="#fff"/><path d="M457.544 606.432h-.422a7.877 7.877 0 0 1-1.704-.184v4.926a1.727 1.727 0 0 0 .502 1.215 1.715 1.715 0 0 0 1.215.504h.396a1.728 1.728 0 0 0 1.215-.504 1.717 1.717 0 0 0 .502-1.215v-4.929a8.007 8.007 0 0 1-1.704.187Z" fill="#F3C29F"/><path d="M455.422 607.584v1.418s.413-.703 1.916-.71c1.504-.008 1.914.777 1.914.777v-1.703l-3.83-.07v.288Z" fill="#E8AA7D"/><path d="M465.512 591.529v8.276c0 3.715-2.681 6.821-6.264 7.581a8.192 8.192 0 0 1-1.703.176h-.423a7.996 7.996 0 0 1-1.703-.179c-3.58-.757-6.264-3.865-6.264-7.578v-8.276c0-4.285 3.568-7.759 7.967-7.759h.423c4.402 0 7.967 3.476 7.967 7.759Zm-16.357 4.493v3.645a1.238 1.238 0 0 1-1.218-1.242v-1.161a1.239 1.239 0 0 1 1.218-1.242Zm17.576 1.242v1.161a1.238 1.238 0 0 1-1.218 1.242v-3.645a1.239 1.239 0 0 1 1.218 1.242Z" fill="#F3C29F"/><path d="M465.32 593.622s.151 2.61 0 3.614c-.15 1.003.602-3.614.602-3.614h-.602Zm-15.874 1.401s-.137 2.611 0 3.63c.138 1.019-.601-3.63-.601-3.63h.601Zm4.373-12.822a3.917 3.917 0 0 1 2.149-4.018 3.919 3.919 0 0 1 2.368-.351 3.917 3.917 0 0 1 3.222 3.223 3.916 3.916 0 0 1-2.015 4.087 3.912 3.912 0 0 1-5.724-2.941Z" fill="#2C2A46"/><path fill-rule="evenodd" clip-rule="evenodd" d="M460.532 577.404a.412.412 0 0 1 .217.54l-2.673 6.282a.411.411 0 0 1-.751.012l-1.509-3.246a.411.411 0 0 1 .746-.347l1.119 2.408 2.311-5.431a.412.412 0 0 1 .54-.218Z" fill="#F99B45"/><path d="M449.37 596.407a1.21 1.21 0 0 1-1.333-1.019 24.926 24.926 0 0 1-.204-1.659c-.314-4.46 3.29-9.666 7.313-9.666h5.582c4.815.602 6.656 6.373 5.585 10.941a.649.649 0 0 1-.908.433 51.52 51.52 0 0 0-1.488-.648c-1.835-.778-3.059-3.49-3.059-3.49s0 1.465-4.356 3.49c-1.955.91-5.356 1.408-7.132 1.618Z" fill="#2C2A46"/><path d="M461.491 588.732a11.525 11.525 0 0 1-.453 1.957 11.705 11.705 0 0 1-.766 1.871 9.083 9.083 0 0 1-1.108 1.712 7.892 7.892 0 0 1-.704.747 21.34 21.34 0 0 1-.401.331c-.067.055-.132.112-.204.162l-.219.139a10.747 10.747 0 0 1-3.815 1.397c-.664.118-1.335.187-2.009.206-.67.024-1.341-.011-2.006-.102a19.523 19.523 0 0 0 3.933-.498 14.276 14.276 0 0 0 1.874-.565c.154-.054.301-.122.453-.186.151-.065.301-.122.443-.199l.435-.219c.142-.078.269-.17.406-.249l.204-.125c.065-.045.124-.097.187-.147l.383-.316c.226-.229.465-.443.669-.694a9.95 9.95 0 0 0 1.12-1.598c.335-.568.631-1.157.886-1.764a18.96 18.96 0 0 0 .692-1.86Z" fill="#2C2A46"/></g><mask id="message-template-1__g" style="mask-type:alpha" maskUnits="userSpaceOnUse" x="427" y="725" width="45" height="45"><path d="M449.483 769.612c12.078 0 21.868-9.79 21.868-21.868 0-12.077-9.79-21.868-21.868-21.868-12.077 0-21.868 9.791-21.868 21.868 0 12.078 9.791 21.868 21.868 21.868Z" fill="#FF5A60"/></mask><g mask="url(#message-template-1__g)"><path d="M449.727 760.688c-7.638 0-13.829.663-13.829 1.479v38.254c0 .817 6.191 1.477 13.829 1.477 7.637 0 13.83-.66 13.83-1.477v-38.254c0-.816-6.193-1.479-13.83-1.479Z" fill="#BED42B"/><path d="M459.296 743.963v1.183a1.262 1.262 0 0 1-1.241 1.265v-3.713a1.265 1.265 0 0 1 1.241 1.265Z" fill="#CB8591"/><path fill-rule="evenodd" clip-rule="evenodd" d="m440.865 767.293-.006.014-.04.088c-.038.086-.099.224-.179.413-.161.379-.401.963-.697 1.743a82.485 82.485 0 0 0-2.256 6.94 4.011 4.011 0 0 1-7.724-2.163 90.232 90.232 0 0 1 2.479-7.62c.335-.883.615-1.565.815-2.038a39.419 39.419 0 0 1 .31-.704l.021-.047.007-.016.004-.008c.001-.001.001-.002 3.578 1.675l-3.577-1.677a4.011 4.011 0 0 1 7.265 3.4Zm19.02-5.169a4.01 4.01 0 0 1 5.498 1.393l-3.445 2.052c3.445-2.052 3.446-2.052 3.446-2.051l.003.006.005.008.012.019.031.054.091.162c.074.132.173.315.292.547.24.464.564 1.128.942 1.992.755 1.729 1.725 4.26 2.667 7.608a4.01 4.01 0 1 1-7.722 2.172c-.838-2.979-1.682-5.163-2.296-6.568a26.115 26.115 0 0 0-.719-1.526c-.081-.158-.141-.267-.175-.329l-.032-.056c-.002-.003-.002-.004-.001-.001l.004.006.003.004.002.004" fill="#BED42B"/><path d="M449.856 764.26c1.466 0 2.654-.979 2.654-2.187 0-1.208-1.188-2.187-2.654-2.187s-2.654.979-2.654 2.187c0 1.208 1.188 2.187 2.654 2.187Z" fill="#FDC2BF"/><path fill-rule="evenodd" clip-rule="evenodd" d="M449.856 763.866c1.323 0 2.261-.87 2.261-1.793 0-.923-.938-1.793-2.261-1.793-1.324 0-2.261.87-2.261 1.793 0 .923.937 1.793 2.261 1.793Zm2.654-1.793c0 1.208-1.188 2.187-2.654 2.187s-2.654-.979-2.654-2.187c0-1.208 1.188-2.187 2.654-2.187s2.654.979 2.654 2.187Z" fill="#fff"/><path d="M458.189 739.317v8.657a8.098 8.098 0 0 1-2.373 5.742 8.104 8.104 0 0 1-5.743 2.373h-.417a8.121 8.121 0 0 1-8.116-8.11v-8.662a8.115 8.115 0 0 1 8.116-8.116h.43a8.114 8.114 0 0 1 8.103 8.116Zm-16.663 3.381v3.713a1.258 1.258 0 0 1-1.241-1.265v-1.183a1.265 1.265 0 0 1 1.241-1.265Z" fill="#FDC2BF"/><path d="M459.427 743.963v1.183c.001.332-.129.65-.362.887a1.257 1.257 0 0 1-.879.378v-3.713a1.262 1.262 0 0 1 1.241 1.265Z" fill="#FDC2BF"/><path opacity=".2" fill-rule="evenodd" clip-rule="evenodd" d="M448.676 734.938a3.694 3.694 0 0 0-3.693 3.693 1.18 1.18 0 0 1-2.359 0 6.051 6.051 0 0 1 6.052-6.053 1.18 1.18 0 0 1 0 2.36Z" fill="#fff"/><path d="M450.072 756.089h-.417a8.038 8.038 0 0 1-1.735-.188v5.018a1.744 1.744 0 0 0 1.735 1.74h.404a1.752 1.752 0 0 0 1.237-.513 1.73 1.73 0 0 0 .511-1.238v-5.004a8.221 8.221 0 0 1-1.735.185Z" fill="#FDC2BF"/><path d="M447.912 757.777v1.444s.42-.715 1.949-.723c1.529-.008 1.952.792 1.952.792v-1.735l-3.901-.071v.293Z" fill="#F4B1AF"/><path d="M457.871 747.743a3.554 3.554 0 0 1-1.11 2.409 3.553 3.553 0 0 1-2.471.966h-.164a1.511 1.511 0 0 1-1.119-.528 4.304 4.304 0 0 0-3.211-1.495 4.286 4.286 0 0 0-3.241 1.429 1.517 1.517 0 0 1-1.125.509 3.553 3.553 0 0 1-3.513-3.338l-.391-6.37v9.949c0 3.774 1.989 6.834 6.833 6.834h3.204c5.091 0 6.625-3.06 6.625-6.834v-9.949l-.317 6.418Z" fill="#2C2A46"/></g><path opacity=".5" d="M274.24 564.036c0-9.453 7.663-17.116 17.116-17.116h290.095c9.452 0 17.115 7.663 17.115 17.116v228.735c0 9.453-7.663 17.116-17.115 17.116H291.356c-9.453 0-17.116-7.663-17.116-17.116V564.036Z" fill="#0A0F1A"/><path d="m766.824 653.529-111.228-304.33c-13.31-34.252 6.126-70.203 42.397-77.868 36.293-9.236 77.338 11.846 88.928 45.939L903.18 631.499 975.5 681.5 793.706 954.804l-26.882-301.275Z" fill="#EDB58D"/><path d="m769.422 659.491-3.087-3.892v297.38l15.584 11.687 18.18-31.166-3.197-197.149a126.999 126.999 0 0 0-27.48-76.86Z" fill="url(#message-template-1__h)" fill-opacity=".7"/><path d="M903.821 144.464a3.46 3.46 0 0 1-1.598-.388 3.53 3.53 0 0 1-1.782-2.035l-3.554-10.796a3.554 3.554 0 0 1 .198-2.723 3.554 3.554 0 0 1 2.064-1.782l10.784-3.561a3.546 3.546 0 0 1 2.712.202 3.561 3.561 0 0 1 1.775 2.064l3.564 10.768a3.54 3.54 0 0 1-.191 2.726 3.555 3.555 0 0 1-2.071 1.779l-10.775 3.561a3.595 3.595 0 0 1-1.126.185Zm7.22-19.648c-.183 0-.364.031-.536.093l-10.775 3.561a1.718 1.718 0 0 0-1.089 2.165l3.555 10.795a1.72 1.72 0 0 0 2.16 1.092l10.784-3.562a1.72 1.72 0 0 0 1.09-2.164L912.666 126a1.709 1.709 0 0 0-1.625-1.184ZM13.022 745.465a6.032 6.032 0 0 1-2.796-.68 6.151 6.151 0 0 1-3.118-3.561l-6.22-18.893a6.243 6.243 0 0 1 1.842-6.684 6.199 6.199 0 0 1 2.116-1.199l18.872-6.233a6.207 6.207 0 0 1 4.746.355 6.225 6.225 0 0 1 3.107 3.611l6.236 18.844a6.21 6.21 0 0 1-1.835 6.691 6.182 6.182 0 0 1-2.123 1.193l-18.856 6.232a6.321 6.321 0 0 1-1.971.324Zm12.635-34.385c-.32 0-.637.055-.937.162l-18.856 6.233a3.006 3.006 0 0 0-1.733 1.5 3.017 3.017 0 0 0-.174 2.288l6.22 18.892a3.003 3.003 0 0 0 3.78 1.91l18.874-6.232a3.014 3.014 0 0 0 1.907-3.788L28.5 713.153a2.996 2.996 0 0 0-2.843-2.073Zm959.588 243.662a8.05 8.05 0 1 0 0-16.1 8.05 8.05 0 0 0 0 16.1ZM148.137 777.661a8.049 8.049 0 1 0 0-16.098 8.05 8.05 0 0 0 0 16.098Zm716.372-482.947a5.366 5.366 0 1 0 0-10.732 5.366 5.366 0 0 0 0 10.732Zm-21.464-85.857c8.89 0 16.098-7.207 16.098-16.098 0-8.891-7.208-16.098-16.098-16.098-8.891 0-16.099 7.207-16.099 16.098 0 8.891 7.208 16.098 16.099 16.098ZM106.194 687.1a3.205 3.205 0 0 1-2.256-.995 3.203 3.203 0 0 1-.887-2.299l.177-5.506c-6.912-.517-15.804-3.203-20.31-8.206-5.588-6.218-6.748-14.682-6.717-20.645.017-10.425 3.765-18.32 10.568-22.22 5.43-3.133 12.847-3.583 18.107-3.405 3.974.123 7.926.646 11.796 1.56 8.854 2.145 14.737 8.326 16.156 16.938 1.663 10.148-.302 20.178-5.231 26.777a51.268 51.268 0 0 1-7.771 7.745l-1.573 1.342c-3.559 3.114-7.203 6.072-9.985 8.282a3.267 3.267 0 0 1-1.804.683l-.27-.051Zm-1.41-59.35c-6.699-.216-12.373.796-15.983 2.878-7.428 4.274-8.558 13.586-8.568 18.77-.01 5.184.967 12.742 5.704 18.018 3.865 4.291 12.42 6.743 18.872 6.96a2.577 2.577 0 0 1 2.515 2.685l-.178 5.119c2.507-2.038 5.54-4.52 8.501-7.102l1.591-1.37a48.283 48.283 0 0 0 7.182-7.075c4.329-5.738 6.007-14.632 4.503-23.739-1.163-7.068-5.825-11.94-13.149-13.717a55.492 55.492 0 0 0-10.987-1.416l-.003-.011Zm907.296 300.162a18.782 18.782 0 1 1 7.18-36.133 18.715 18.715 0 0 1 8.43 6.917 18.737 18.737 0 0 1 3.17 10.434 18.831 18.831 0 0 1-5.51 13.276 18.786 18.786 0 0 1-13.27 5.506Zm0-34.297c-3.07 0-6.07.91-8.62 2.615a15.538 15.538 0 0 0-5.718 6.963 15.523 15.523 0 0 0-.883 8.964 15.494 15.494 0 0 0 4.251 7.944 15.496 15.496 0 0 0 16.9 3.363 15.535 15.535 0 0 0 6.97-5.714 15.51 15.51 0 0 0-1.94-19.586 15.532 15.532 0 0 0-10.96-4.549Zm-75.129-631.097a18.789 18.789 0 0 1-10.435-3.165 18.789 18.789 0 0 1-7.986-19.28 18.792 18.792 0 0 1 5.14-9.617 18.789 18.789 0 0 1 20.468-4.071 18.789 18.789 0 0 1 8.429 6.917 18.789 18.789 0 0 1 3.165 10.435 18.791 18.791 0 0 1-5.506 13.275 18.793 18.793 0 0 1-13.275 5.506Zm0-34.296a15.513 15.513 0 0 0-15.217 18.542 15.52 15.52 0 0 0 12.19 12.19 15.519 15.519 0 0 0 18.542-15.217 15.535 15.535 0 0 0-15.515-15.515ZM105.209 890.349a8.053 8.053 0 0 1-7.437-4.969 8.049 8.049 0 1 1 7.437 4.969Zm0-14.698a6.652 6.652 0 0 0-6.143 4.104 6.65 6.65 0 1 0 12.792 2.545 6.657 6.657 0 0 0-6.649-6.649Z" fill="#D2DFE6"/><path opacity=".5" d="M497.664 677.414c0 33.542-27.192 60.734-60.734 60.734-33.543 0-60.735-27.192-60.735-60.734 0-33.543 27.192-60.735 60.735-60.735 33.542 0 60.734 27.192 60.734 60.735Z" fill="#F8FBFB"/><path d="M463.491 674.449c3.088 1.783 3.088 6.239 0 8.022l-34.798 20.09c-3.087 1.783-6.947-.445-6.947-4.011v-40.181c0-3.565 3.86-5.793 6.947-4.011l34.798 20.091Z" fill="#F8FBFB"/><defs><linearGradient id="message-template-1__a" x1="306.573" y1="495.266" x2="264.826" y2="418.829" gradientUnits="userSpaceOnUse"><stop stop-color="#E29E6C"/><stop offset="1" stop-color="#E29E6C" stop-opacity="0"/></linearGradient><linearGradient id="message-template-1__b" x1="303.781" y1="584.052" x2="267.326" y2="502.911" gradientUnits="userSpaceOnUse"><stop stop-color="#E29E6C"/><stop offset="1" stop-color="#E29E6C" stop-opacity="0"/></linearGradient><linearGradient id="message-template-1__c" x1="300.989" y1="679.304" x2="287.465" y2="601.69" gradientUnits="userSpaceOnUse"><stop stop-color="#E29E6C"/><stop offset="1" stop-color="#E29E6C" stop-opacity="0"/></linearGradient><linearGradient id="message-template-1__h" x1="727.377" y1="590.669" x2="772.652" y2="873.001" gradientUnits="userSpaceOnUse"><stop stop-color="#E29E6C"/><stop offset="1" stop-color="#E29E6C" stop-opacity="0"/></linearGradient><filter id="message-template-1__d" x="409.848" y="699.033" width="79.655" height="14.725" filterUnits="userSpaceOnUse" color-interpolation-filters="sRGB"><feFlood flood-opacity="0" result="BackgroundImageFix"/><feBlend in="SourceGraphic" in2="BackgroundImageFix" result="shape"/><feGaussianBlur stdDeviation="1.808" result="effect1_foregroundBlur_10272_1587"/></filter></defs></svg>