<svg width="1080" height="1080" viewBox="0 0 1080 1080" fill="none" xmlns="http://www.w3.org/2000/svg"><g opacity=".2" filter="url(#newsletter__a)"><path d="M909.963 984.418c0-10.877-199.541-19.695-445.687-19.695-246.146 0-445.687 8.818-445.687 19.695s199.541 19.692 445.687 19.692c246.146 0 445.687-8.815 445.687-19.692Z" fill="#0A0F1A"/></g><g opacity=".2" filter="url(#newsletter__b)"><path d="M1057.31 925.334c0 8.862-49.97 16.047-111.604 16.047-61.638 0-111.604-7.185-111.604-16.047 0-8.863 49.966-16.048 111.604-16.048 61.634 0 111.604 7.185 111.604 16.048Z" fill="#0A0F1A"/></g><path fill-rule="evenodd" clip-rule="evenodd" d="m254.312 642.305-64.357-45.546c0-15.512 32.344-39.935 56.767-56.437.66-.66 1.65-.99 2.31-1.65 13.531-8.911 23.763-14.852 23.763-14.852v132.017l-18.483-13.532Zm497.372 13.532 83.17-59.078c0-12.211-20.792-30.363-41.585-45.545-20.793-15.182-41.585-27.394-41.585-27.394" fill="#F5BD4D"/><path fill-rule="evenodd" clip-rule="evenodd" d="M683.695 324.806c5.611-.66 10.892 2.97 11.552 8.251l29.043 225.748 14.192 109.903-37.625 32.674-126.075 109.574-63.038-31.354-53.136 46.205h-.33l-149.509-73.929-44.885-22.112-14.192-109.904-29.043-225.748c-.661-5.28 3.3-10.231 8.911-10.891l454.135-58.417Z" fill="#F5F8F9"/><g filter="url(#newsletter__c)"><path fill-rule="evenodd" clip-rule="evenodd" d="M741.783 362.761c5.611 0 10.561 4.29 10.561 9.901v338.622l-41.585 27.723-138.947 92.411-58.747-38.945-58.417 38.615h-.33l-138.947-92.411-41.585-27.724V372.332c0-5.281 4.62-9.901 10.561-9.901h457.436v.33Z" fill="#FBFBFB"/></g><path d="M688.39 486.532H348.118c-8.49 0-15.621-5.987-15.621-13.115v-41.626c0-7.128 7.131-13.115 15.621-13.115H688.39c8.49 0 15.622 5.987 15.622 13.115v41.626c0 7.128-6.792 13.115-15.622 13.115Z" fill="#BED42B"/><path opacity=".8" d="M490.003 778.316H354.81c-12.141 0-22.313-11.177-22.313-25.335V549.188c0-13.785 9.844-25.334 22.313-25.334h135.193c12.141 0 22.314 11.176 22.314 25.334v203.793c0 14.158-9.844 25.335-22.314 25.335Z" fill="#D2DFE6"/><path d="M557.29 544.283h136.306c5.941 0 10.562-4.62 10.562-10.561s-4.621-10.561-10.562-10.561H557.29c-5.941 0-10.562 4.62-10.562 10.561s4.621 10.561 10.562 10.561Zm136.306 20.463H557.29c-5.941 0-10.562 4.621-10.562 10.561 0 5.941 4.621 10.562 10.562 10.562h136.306c5.941 0 10.562-4.621 10.562-10.562 0-5.94-4.621-10.561-10.562-10.561Zm0 41.915H557.29c-5.941 0-10.562 4.621-10.562 10.561 0 5.941 4.621 10.562 10.562 10.562h136.306c5.941 0 10.562-4.621 10.562-10.562 0-5.94-4.621-10.561-10.562-10.561Zm0 125.415H557.29c-5.941 0-10.562 4.621-10.562 10.562 0 5.94 4.621 10.561 10.562 10.561h136.306c5.941 0 10.562-4.621 10.562-10.561 0-5.941-4.621-10.562-10.562-10.562Zm-.001 41.585H332.531c-5.941 0-10.561 4.621-10.561 10.561 0 5.941 4.62 10.562 10.561 10.562h361.064c5.941 0 10.562-4.621 10.562-10.562 0-5.94-4.621-10.561-10.562-10.561Zm-.659 41.916H331.872c-5.941 0-10.561 4.621-10.561 10.561 0 5.941 4.62 10.562 10.561 10.562h361.064c5.941 0 10.561-4.621 10.561-10.562 0-5.94-4.62-10.561-10.561-10.561Zm.66-125.415H557.29c-5.941 0-10.562 4.62-10.562 10.561s4.621 10.561 10.562 10.561h136.306c5.941 0 10.562-4.62 10.562-10.561s-4.621-10.561-10.562-10.561Zm0-41.916H557.29c-5.941 0-10.562 4.62-10.562 10.561s4.621 10.561 10.562 10.561h136.306c5.941 0 10.562-4.62 10.562-10.561s-4.621-10.561-10.562-10.561Z" opacity=".8" fill="#D2DFE6"/><path d="m751.683 655.837-41.585 29.703-138.947 98.683H453.657L314.71 685.54l-41.585-29.703-83.17-59.077v333.01c0 12.542 5.61 23.763 14.521 31.354 6.931 5.941 15.182 9.571 24.753 10.231h566.68c4.951-.33 9.241-1.32 13.202-2.97h.33c14.851-6.271 25.413-21.122 25.413-38.285V596.76l-83.171 59.077Z" fill="#FFD278"/><path d="m571.151 783.893-50.826-35.645c-1.98-2.31-4.621-3.63-7.921-3.63-2.97 0-5.941 1.32-7.921 3.63l-50.496 35.645h-.33L204.146 960.794c6.601 5.941 15.512 9.571 25.083 10.231h566.68c4.95-.33 9.241-1.32 13.201-2.97h.33c3.961-1.98 7.591-4.29 10.892-6.931L571.151 783.893Z" fill="#FCDA97"/><path d="M159.394 907.628a11.3 11.3 0 0 1-6.974 10.437 11.295 11.295 0 0 1-15.402-8.233 11.296 11.296 0 1 1 22.376-2.204Z" fill="#BAE6F0"/><path fill-rule="evenodd" clip-rule="evenodd" d="M189.587 745.551c5.258-3.502 12.36-2.078 15.862 3.18 21.657 32.521 40.848 69.784 46.213 101.61 2.692 15.971 2.137 31.929-4.759 45.361-7.151 13.929-20.155 23.294-38.372 27.511-6.155 1.425-12.3-2.41-13.725-8.565-1.424-6.156 2.41-12.3 8.565-13.725 12.983-3.005 19.674-8.845 23.178-15.67 3.759-7.322 4.819-17.666 2.552-31.109-4.552-27.002-21.574-61.015-42.695-92.731-3.502-5.259-2.078-12.36 3.181-15.862Z" fill="#F3C29F"/><path fill-rule="evenodd" clip-rule="evenodd" d="M188.841 744.519c5.829-3.914 13.726-2.362 17.64 3.467a478.948 478.948 0 0 1 31.216 53.714c3.126 6.287.565 13.917-5.721 17.044-6.287 3.126-13.917.565-17.044-5.722a453.482 453.482 0 0 0-29.558-50.863c-3.914-5.829-2.362-13.727 3.467-17.64Z" fill="#2CC3D5"/><path d="M210.194 931.661a2.963 2.963 0 0 0-.089-1.085l-1.283-3.443c-2.959-8.199-10.3-28.927-10.526-37.934-.385-15.362 1.854-41.684 3.176-50.504-2.476 1.312-4.883 3.128-7.458 3.128h-93.115c-2.584 0-5.238-1.52-7.715-2.832 1.322 8.82 2.861 34.846 2.477 50.208-.227 9.007-7.518 29.735-10.527 37.934l-1.283 3.443a2.957 2.957 0 0 0-.089 1.085.417.417 0 0 0 0 .05c0 4.568 28.237 8.287 63.241 8.346 35.004.059 63.24-3.778 63.24-8.346a.386.386 0 0 0-.049-.05Z" fill="#2CC3D5"/><path d="M103.76 843.253a17.493 17.493 0 0 1-10.497-3.946l2.299 34.639c-.148-8.485 4.814-28.927 4.814-28.927.54.107 1.088.16 1.638.158 5.92-.276 22.918-1.569 22.918-1.569-10.803-.01-21.172-.355-21.172-.355Z" fill="#C64A79"/><path d="m148.561 841.389-55.377-2.397 2.565 45.225c1.174-28.177 52.812-42.828 52.812-42.828Z" fill="#2AB6C8"/><path d="M210.726 808.111c-4.519-19.406-15.569-64.858-15.569-64.858 0-2.23-13.526-3.019-43.873-3.611v-.148l-4.41.059-4.4-.059v.148c-30.348.592-43.874 1.381-43.874 3.611 0 0-11.05 45.452-15.568 64.858-4.361 18.745 8.504 35.221 20.718 35.221h86.257c12.205.03 25.119-16.515 20.719-35.221Z" fill="#2CC3D5"/><path d="M190.353 843.253s-10.369.345-21.172.345c0 0 23.905.188 26.884 12.037.227 1.124.454 2.289.671 3.472.987 5.437 1.875 11.218 1.816 14.799l2.959-35.369c-3.236 2.526-7.567 4.716-11.158 4.716Z" fill="#2AB6C8"/><path fill-rule="evenodd" clip-rule="evenodd" d="M106.608 745.758c5.259 3.502 6.683 10.604 3.181 15.862-20.835 31.285-35.816 65.816-39.385 93.159-1.785 13.679-.564 24.408 3.035 31.92 3.328 6.946 9.115 12.111 19.336 14.43 6.161 1.398 10.022 7.526 8.624 13.687-1.398 6.162-7.526 10.023-13.687 8.625-16.649-3.778-28.391-13.258-34.906-26.856-6.244-13.033-7.18-28.749-5.088-44.767 4.183-32.053 21.084-69.927 43.028-102.879 3.502-5.259 10.603-6.683 15.862-3.181Z" fill="#F3C29F"/><path fill-rule="evenodd" clip-rule="evenodd" d="M107.353 744.725c5.829 3.913 7.382 11.81 3.469 17.64a454.453 454.453 0 0 0-29.56 50.866c-3.127 6.286-10.758 8.846-17.044 5.719-6.285-3.127-8.846-10.758-5.719-17.044a479.882 479.882 0 0 1 31.214-53.712c3.913-5.829 11.811-7.382 17.64-3.469Z" fill="#2CC3D5"/><path d="M219.23 859.039H77.003a11.02 11.02 0 0 0-8.35 3.814 11.036 11.036 0 0 0-2.571 8.814l10.142 69.791a6.422 6.422 0 0 0 6.314 5.496h131.118a6.423 6.423 0 0 0 6.353-5.496l10.142-69.791a11.033 11.033 0 0 0-2.57-8.814 11.036 11.036 0 0 0-8.351-3.814Z" fill="url(#newsletter__d)"/><path opacity=".8" d="M159.196 903.139a8.157 8.157 0 0 0-6.679-6.571 24.263 24.263 0 0 0-4.726-.464c-2.101 0-5.051.276-7.182 1.599-2.664 1.647-4.065 4.854-3.946 9.017.069 2.397.641 5.772 2.959 8.179 1.855 1.973 5.417 2.89 8.179 3.009v2.161a1.323 1.323 0 0 0 1.312 1.312h.119c.27-.022.525-.129.73-.306 1.075-.918 2.496-2.141 3.867-3.433l.612-.553a20.293 20.293 0 0 0 2.96-3.177c1.943-2.713 2.595-6.738 1.795-10.773Z" fill="#DAE5EA"/><path d="m148.098 943.442-.681.266-.987-.907 1.668.641Z" fill="#564B5E"/><path d="M300.091 884.148a.493.493 0 1 0 0-.985.493.493 0 0 0 0 .985Z" fill="#DF638D"/><path opacity=".6" d="M68.933 891.596s15.056 18.854 38.3 29.785c12.155 5.693 26.638 7.252 42.176 6.956 14.188-.267 32.499-5.644 46.518-12.214 18.745-8.791 31.275-19.308 30.486-18.745l-52.122 46.073-67.443 2.348-34.452-30.416-3.463-23.787Z" fill="#DEE8EC"/><path d="M284.001 994.921a64.909 64.909 0 0 1-17.493 2.506 103.56 103.56 0 0 1-15.726-1.055 208.93 208.93 0 0 1-28.611-6.305 9.626 9.626 0 0 1-6.874-10.919 9.628 9.628 0 0 1 10.159-7.954h.129c8.716.723 17.472.829 26.204.316a77.745 77.745 0 0 0 11.839-1.677 34.494 34.494 0 0 0 9.382-3.483 15.45 15.45 0 0 1 15.253 26.865 15.674 15.674 0 0 1-3.256 1.391l-1.006.315Z" fill="#FF7B80"/><path d="M252.903 983.32c0 7.35-2.201 13.299-4.933 13.299l-9.136-1.243a476.447 476.447 0 0 1-51.569-2.437 499.585 499.585 0 0 1-51.984-7.893 399.677 399.677 0 0 1-39.63-10.27l64.877-26.549c10.646 3.946 21.488 7.419 32.449 10.566a456.903 456.903 0 0 0 48.116 11.119h.089c.178 0 .355.089.533.128h6.255c2.732-.01 4.933 5.939 4.933 13.28Z" fill="#121927"/><path d="M23.126 966.36a34.5 34.5 0 0 0 9.382 3.483 77.473 77.473 0 0 0 11.84 1.677c8.73.513 17.487.407 26.203-.316h.129a9.631 9.631 0 0 1 8.808 14.737 9.628 9.628 0 0 1-5.533 4.137 208.611 208.611 0 0 1-28.61 6.304 103.556 103.556 0 0 1-15.698 1.046 64.94 64.94 0 0 1-17.492-2.506l-.986-.286A15.453 15.453 0 0 1 .004 980.151a15.448 15.448 0 0 1 23.083-13.791h.04Z" fill="#FF7B80"/><path d="m265.758 943.255-.829.601a179.077 179.077 0 0 1-26.016 15.628 251.032 251.032 0 0 1-26.046 11.079 378.54 378.54 0 0 1-52.003 14.464 498.82 498.82 0 0 1-51.974 7.892 476.614 476.614 0 0 1-51.578 2.437l-9.126 1.243c-2.714 0-4.933-5.919-4.933-13.299 0-7.379 2.19-13.289 4.933-13.289h6.255c.177 0 .345-.099.532-.128h.09a405.55 405.55 0 0 0 14.798-2.832c.829-.168 1.657-.335 2.476-.523 93.509-3.788 153.089-68.153 154.017-69.16.71-.7 1.391-1.401 2.062-2.101a31.935 31.935 0 0 1 4.055-3.572c13.378-9.757 31.669-6.126 40.844 8.11 9.176 14.237 5.831 33.682-7.557 43.45Z" fill="#1A2437"/><path d="M121.164 931.543c8.218 4.035 18.321 8.416 26.933 11.899a299.193 299.193 0 0 1-33.988 6.028c-28.995 3.403-68.015 4.39-73.609.611a23.302 23.302 0 0 1-.917-.582l-.168-.098a168.042 168.042 0 0 1-8.11-5.545l-.829-.602c-13.388-9.767-16.772-29.223-7.626-43.459 9.146-14.237 27.417-17.867 40.805-8.09a32.06 32.06 0 0 1 4.055 3.571 125.585 125.585 0 0 0 16.082 14.02 209.313 209.313 0 0 0 19.297 12.618 293.95 293.95 0 0 0 18.075 9.629Z" fill="#1A2437"/><path d="M148.098 943.441c-14.395 5.732-29.884 11.011-44.91 15.332-9.619 2.752-20.116 5.396-29.943 7.567l-.375.187-.167-.069-.306.069.217-.108a247.085 247.085 0 0 1-15.332-6.906 190.609 190.609 0 0 1-16.772-9.402c9.146 6.195 107.588-6.67 107.588-6.67Z" fill="#121927"/><path d="M226.413 897.368c-.927.987-60.507 65.372-154.016 69.16l.819-.177a479.93 479.93 0 0 0 29.952-7.577 474.756 474.756 0 0 0 44.91-15.332l1.628-.641a341.812 341.812 0 0 0 43.41-20.906 209.28 209.28 0 0 0 19.297-12.618 132.447 132.447 0 0 0 14-11.909Z" fill="#141E30"/><path d="M137.878 627.121c1.897-.306 22.623-14.886 40.984 3.634 12.992 13.095 1.108 21.749 12.229 30.774 9.852 7.999 19.038 26.071 4.839 46.609-24.26 35.075-22.031 26.039-38.988 30.469-30.11 7.89-25.468-8.479-25.468-8.479l6.404-103.007Z" fill="#211F36"/><path d="M138.123 625.057c6.76-2.769 13.832-5.414 21.424-5.624a23.35 23.35 0 0 1 11.076 2.191c3.423 1.755 6.182 4.478 7.891 7.789a51.593 51.593 0 0 1 4.368 9.843 90.717 90.717 0 0 1 2.6 10.312c.715 3.445 1.3 6.891 2.301 10.213a29.155 29.155 0 0 0 4.199 9.327 25.181 25.181 0 0 0 3.497 3.851 24.851 24.851 0 0 1 3.523 4.307 26.23 26.23 0 0 1 3.9 10.164c1.118 7.186-.676 14.421-3.588 20.918a78.887 78.887 0 0 1-11.7 18.002 147.265 147.265 0 0 1-15.145 15.393 164.346 164.346 0 0 0 14.482-15.885 82.808 82.808 0 0 0 11.024-18.014c2.717-6.411 4.199-13.4 3.094-20.143a24.302 24.302 0 0 0-7.007-13.425 27.074 27.074 0 0 1-3.744-4.098 30.96 30.96 0 0 1-4.537-9.843c-.962-3.446-1.573-6.928-2.275-10.361-1.3-6.842-3.12-13.609-6.578-19.688-1.501-3.077-3.954-5.652-7.033-7.383a21.898 21.898 0 0 0-10.4-2.35 47.826 47.826 0 0 0-10.855 1.366c-3.536.788-6.994 2.067-10.517 3.138Zm16.648 66.999a12.071 12.071 0 0 0-5.589-8.01 26.211 26.211 0 0 0-9.321-3.743 29.558 29.558 0 0 0-10.044 0 45.305 45.305 0 0 0-18.578 7.249 32.84 32.84 0 0 0-7.311 6.713 26.2 26.2 0 0 0-5.64 18.478c.112 1.66.362 3.269.55 4.991.18 1.74.23 3.492.149 5.24a30.518 30.518 0 0 1-2.358 10.194c-2.72 6.5-7.487 11.666-11.442 17.068a20.582 20.582 0 0 0-4.03 8.921 13.976 13.976 0 0 0 .275 4.879c.41 1.612 1.01 3.17 1.784 4.641a25.668 25.668 0 0 1 3.107 9.795 21.45 21.45 0 0 1-.175 5.14 41.83 41.83 0 0 1-1.248 4.991 28.085 28.085 0 0 0 .886-10.069 25.136 25.136 0 0 0-3.381-9.432 20.658 20.658 0 0 1-1.996-4.816 14.975 14.975 0 0 1-.425-5.266 21.765 21.765 0 0 1 4.03-9.595c1.934-2.869 4.093-5.514 6.052-8.259a42.646 42.646 0 0 0 4.99-8.659 28.215 28.215 0 0 0 2.147-9.633 33.134 33.134 0 0 0-.175-4.99c-.187-1.61-.474-3.357-.599-5.103-.218-3.52.205-7.05 1.248-10.419a27.458 27.458 0 0 1 4.99-9.208 34.058 34.058 0 0 1 7.736-6.987 41.048 41.048 0 0 1 9.258-4.616 45.053 45.053 0 0 1 10.057-2.408 30.032 30.032 0 0 1 10.343.349 26.65 26.65 0 0 1 9.408 4.155 14.53 14.53 0 0 1 3.605 3.656 10.044 10.044 0 0 1 1.697 4.753Z" fill="#2C2A46"/><path d="M157.266 629.534a9.751 9.751 0 0 0-1.946-4.505 14.17 14.17 0 0 0-3.506-3.368 25.666 25.666 0 0 0-9.021-3.744c-3.119-.823-6.238.525-9.083 2.109a81.785 81.785 0 0 0-8.085 5.64c-2.645 1.996-5.29 4.017-8.16 5.777-2.87 1.759-6.051 3.019-8.946 4.466a16.44 16.44 0 0 0-3.893 2.633 10.689 10.689 0 0 0-2.495 3.743 24.949 24.949 0 0 0-1.173 9.433c.374 6.562.487 13.437-1.397 19.963a26.553 26.553 0 0 1-4.58 9.083c-2.07 2.72-4.641 4.891-6.7 7.374a17.679 17.679 0 0 0-4.017 8.596 31.435 31.435 0 0 0 0 9.733 90.424 90.424 0 0 0 2.058 9.682c.4 1.609.799 3.219 1.061 4.866a12.263 12.263 0 0 1 0 4.99 12.265 12.265 0 0 0-.25-4.903c-.337-1.61-.798-3.207-1.247-4.791a92.957 92.957 0 0 1-2.496-9.67 31.601 31.601 0 0 1-.237-10.056 18.818 18.818 0 0 1 4.055-9.296c2.121-2.657 4.58-4.878 6.526-7.486a24.873 24.873 0 0 0 4.23-8.584 41.46 41.46 0 0 0 1.397-9.62v-4.903l-.25-4.991a25.831 25.831 0 0 1 1.36-10.156 12.477 12.477 0 0 1 2.97-4.392 18.053 18.053 0 0 1 4.329-2.882c3.045-1.485 6.114-2.633 8.871-4.33 2.758-1.697 5.44-3.506 8.185-5.415a82.804 82.804 0 0 1 8.372-5.502 20.534 20.534 0 0 1 4.704-1.934 9.471 9.471 0 0 1 5.141 0 26.209 26.209 0 0 1 9.095 4.167 11.923 11.923 0 0 1 5.128 8.273Z" fill="#2C2A46"/><path d="M153.174 757.663c6.925 0 12.539-4.625 12.539-10.331 0-5.705-5.614-10.331-12.539-10.331s-12.539 4.626-12.539 10.331c0 5.706 5.614 10.331 12.539 10.331Z" fill="#EFB8C2"/><path d="M153.174 757.663c6.925 0 12.539-4.625 12.539-10.331 0-5.705-5.614-10.331-12.539-10.331s-12.539 4.626-12.539 10.331c0 5.706 5.614 10.331 12.539 10.331Z" fill="#F3C29F"/><path fill-rule="evenodd" clip-rule="evenodd" d="M153.174 737.741c-6.657 0-11.799 4.422-11.799 9.591 0 5.17 5.142 9.591 11.799 9.591 6.657 0 11.799-4.421 11.799-9.591 0-5.169-5.142-9.591-11.799-9.591Zm-13.279 9.591c0-6.242 6.086-11.071 13.279-11.071s13.279 4.829 13.279 11.071-6.086 11.071-13.279 11.071-13.279-4.829-13.279-11.071Z" fill="#F3C29F"/><path d="M154.185 717.648h-2.034a37.844 37.844 0 0 1-8.197-.886v23.707a8.27 8.27 0 0 0 2.454 5.838 8.254 8.254 0 0 0 5.868 2.384h1.909a8.253 8.253 0 0 0 5.845-2.424 8.247 8.247 0 0 0 2.414-5.848v-23.644c-2.713.588-5.483.88-8.259.873Z" fill="#F3C29F"/><path d="M143.979 734.066v6.825s1.983-3.381 9.22-3.406c7.237-.025 9.208 3.743 9.208 3.743v-8.21l-18.453-.312.025 1.36Z" fill="#E8AA7D"/><path d="M192.526 659.091v38.678c0 17.356-12.901 31.854-30.144 35.397a40.174 40.174 0 0 1-8.197.836h-2.034a39.483 39.483 0 0 1-8.198-.848c-17.23-3.556-30.144-18.067-30.144-35.385v-38.678c0-19.963 17.168-36.184 38.342-36.184h2.034c21.185 0 38.341 16.221 38.341 36.184Z" fill="#F3C29F"/><path d="M114.758 674.105v17.543a5.968 5.968 0 0 1-5.865-5.977v-5.59a5.975 5.975 0 0 1 5.865-5.976Z" fill="#EFB8C2"/><path d="M195.946 690.934v5.59a5.968 5.968 0 0 1-5.864 5.976v-17.542a5.975 5.975 0 0 1 5.864 5.976Z" fill="#F3C29F"/><path d="M134.546 665.33c-5.59 8.422 7.349 17.131-3.743 36.446-5.403 9.42-4.567 14.71-1.835 18.453 2.895 3.855 11.654 6.912 15.547 13.076 5.739 9.133 8.646 23.594-6.326 43.17-18.516 24.193-24.68 24.393-31.43 40.276a2.701 2.701 0 0 1-1.358 1.67 2.707 2.707 0 0 1-2.148.152 38.422 38.422 0 0 1-11.528-30.27c1.385-19.027-12.278-22.034-11.48-30.032 1.249-12.664 6.713-8.147 17.22-24.23 2.095-3.219 2.894-7.935-5.316-14.61-8.21-6.676-10.493-23.607-3.07-29.409 7.424-5.801 10.207-15.072 5.965-21.909-1.572-2.496-11.591-17.668 9.894-29.633 3.805-2.109 11.903-9.096 16.607-15.571 4.329-5.977 25.353-11.554 35.172-3.244 9.82 8.309 41.723 19.464 29.359 43.42-7.075 13.737-42.335-11.567-51.53 2.245Z" fill="#2C2A46"/><path d="M182.583 627.063c-4.841-3.481-4.916-12.477-25.865-7.486-12.265 3.032 36.084 49.496 35.809 65.966 0 0 15.334-12.477 9.532-28.859-3.493-9.907-3.818-18.354-19.476-29.621Z" fill="#2C2A46"/><path d="M202.753 657.606c.091-2.2-.15-4.4-.714-6.528a24.986 24.986 0 0 0-2.361-5.965 35.68 35.68 0 0 0-8.369-9.837 100.799 100.799 0 0 1-5.113-4.313c-1.677-1.514-3.193-3.05-5.303-3.619a57.052 57.052 0 0 0-6.493-1.345l-6.68-1.154 6.671.651c2.242.2 4.469.549 6.664 1.044a8.974 8.974 0 0 1 3.167 1.439c.952.672 1.788 1.41 2.649 2.144a104.9 104.9 0 0 0 5.224 4.122 26.305 26.305 0 0 1 9.216 10.031 17.842 17.842 0 0 1 1.442 13.33Z" fill="#2C2A46"/><path opacity=".5" d="M735.983 387.66c-12.756-5.825-12.756-17.754-13.31-24.966h29.687v44.107c-.555-5.826-3.889-13.438-16.377-19.141Z" fill="#D2DFE6"/><path fill-rule="evenodd" clip-rule="evenodd" d="M902.339 262.538c2.376 9.27-3.2 18.71-12.458 21.109l-.045.012-4.309-16.812c4.309 16.812 4.315 16.81 4.321 16.809l.026-.007-.051.014a78.097 78.097 0 0 0-2.531.749 150.856 150.856 0 0 0-8.524 2.978c-7.432 2.827-18.067 7.421-30.451 14.37-24.78 13.904-56.357 37.119-83.418 74.325-5.638 7.751-16.493 9.465-24.244 3.827-7.752-5.638-9.465-16.493-3.827-24.244 30.616-42.093 66.371-68.394 94.503-84.179 14.073-7.896 26.289-13.191 35.094-16.541a185.536 185.536 0 0 1 10.496-3.661 112.428 112.428 0 0 1 3.865-1.138l.272-.073.095-.024.036-.01.016-.004c.007-.001.013-.003 4.122 16.029l-4.109-16.032c9.285-2.38 18.741 3.218 21.121 12.503Z" fill="#BC7785"/><path d="M923.304 915.169v.174c-.275 12.741-5.062 13.971-30.748 13.971-24.948 0-30.372-2.097-30.69-14.058v-.087c.024-.455.073-.909.145-1.359 1.012 9.892 7.318 11.715 30.545 11.715 24.008 0 29.75-1.071 30.617-11.571.058.377.102.781.131 1.215Z" fill="#CB9733"/><path fill-rule="evenodd" clip-rule="evenodd" d="M1004.68 856.119c9.59 0 17.36 7.77 17.36 17.355v22.027c0 9.585-7.77 17.355-17.36 17.355-9.58 0-17.351-7.77-17.351-17.355v-22.027c0-9.585 7.771-17.355 17.351-17.355Zm-112.096-2.431c9.585 0 17.355 7.77 17.355 17.355v22.027c0 9.585-7.77 17.355-17.355 17.355s-17.355-7.77-17.355-17.355v-22.027c0-9.585 7.77-17.355 17.355-17.355Z" fill="#BC7785"/><path d="M923.304 911.379v.173c0 .839 0 1.62-.131 2.358-.867 10.543-6.609 11.57-30.617 11.57-23.227 0-29.533-1.822-30.545-11.715 0-.737-.116-1.446-.145-2.343v-.086c.217-4.166 2.039-6.827 5.785-10.226 3.891-3.586 1.736-14.896 11.932-15.2h26.148c10.197.304 8.042 11.57 11.932 15.2 3.601 3.443 5.424 6.104 5.641 10.269Z" fill="#F9B42F"/><path d="M1035.4 915.169v.174c-.27 12.741-5.06 13.971-30.75 13.971-24.943 0-30.367-2.097-30.685-14.058v-.087c.024-.455.073-.909.145-1.359 1.012 9.892 7.318 11.715 30.54 11.715 24.01 0 29.75-1.071 30.62-11.571.03.377.07.781.13 1.215Z" fill="#CB9733"/><path d="M1035.4 911.379v.173c0 .839 0 1.62-.13 2.358-.87 10.543-6.61 11.57-30.62 11.57-23.222 0-29.528-1.822-30.54-11.715a34.068 34.068 0 0 1-.145-2.343v-.086c.217-4.166 2.039-6.827 5.713-10.226 3.89-3.586 1.735-14.896 11.932-15.2h26.15c10.12.304 8.04 11.57 11.93 15.2 3.67 3.443 5.5 6.104 5.71 10.269Z" fill="#F9B42F"/><path d="M948.353 444.452h-.636c-41.494 0-75.38 5.322-75.394 11.816l.13 412.288c0 2.675 8.678 4.845 19.496 4.845h.636c10.76 0 19.481-2.17 19.481-4.845l4.411-180.581 4.657-167.074c4.816 1.085 15.823 1.447 26.886 1.447 11.064 0 22.085-.333 26.887-1.447l4.657 167.074 4.338 180.581c0 2.675 8.678 4.845 19.478 4.845h.64c10.76 0 19.5-2.17 19.5-4.845l.23-412.288c0-6.494-33.903-11.802-75.397-11.816Z" fill="#202C44"/><path d="M995.299 469.964a22.578 22.578 0 0 0 8.631 14.986 22.524 22.524 0 0 0 7.9 3.909c2.86.771 5.85.971 8.79.587 1.05-.137 2.08-.35 3.1-.637v-32.584a.354.354 0 0 0 0-.145c-.16-1.967-3.49-3.818-9.23-5.452-3.2-.876-6.44-1.59-9.7-2.141a22.525 22.525 0 0 0-9.491 21.477Z" fill="#1A2437"/><path opacity=".5" fill-rule="evenodd" clip-rule="evenodd" d="M938.583 462.334h.788c1.451 0 2.902.018 4.346.036h.003c1.447.018 2.888.036 4.329.036 2.759 0 5.459-.014 8.1-.058l.801-.013v24.289c0 5.775-3.996 10.695-9.191 10.695-5.196 0-9.176-4.922-9.176-10.695v-24.29Zm1.576 1.578v22.712c0 5.16 3.512 9.119 7.6 9.119 4.091 0 7.615-3.961 7.615-9.119v-22.687c-2.396.034-4.838.045-7.325.045-1.452 0-2.902-.018-4.347-.036h-.002a420.032 420.032 0 0 0-3.541-.034Z" fill="#3D4657"/><path d="M900.814 469.964a22.596 22.596 0 0 1-25.324 19.482 21.73 21.73 0 0 1-3.095-.637v-32.584a.441.441 0 0 1 0-.145c.159-1.967 3.485-3.818 9.227-5.452a99.012 99.012 0 0 1 9.704-2.141 22.53 22.53 0 0 1 9.488 21.477Z" fill="#1A2437"/><path opacity=".5" fill-rule="evenodd" clip-rule="evenodd" d="M876.866 488.721c.4.002.722.327.721.726l-1.505 377.303a.723.723 0 1 1-1.446-.006l1.504-377.302a.724.724 0 0 1 .726-.721Z" fill="#3D4657"/><path d="M902.896 470.238a24.804 24.804 0 0 1-27.754 21.361c-.709-.101-1.823-.347-2.806-.593v-4.483c1.157.303 2.704.679 3.37.766a20.397 20.397 0 0 0 20.334-10.052 20.408 20.408 0 0 0 2.546-7.549 29.066 29.066 0 0 0-.796-8.547c1.447.13 2.893.274 4.513.39.612 2.859.812 5.791.593 8.707Z" fill="#3C4557"/><path opacity=".5" fill-rule="evenodd" clip-rule="evenodd" d="M1019.17 488.721c.4-.001.73.321.73.721l1.5 377.302c.01.4-.32.725-.72.726a.716.716 0 0 1-.72-.72l-1.51-377.303c0-.399.32-.724.72-.726Z" fill="#3D4657"/><path d="M1023.75 486.509v4.484c-1 .246-2.12.506-2.9.607a25.14 25.14 0 0 1-3.28.203c-6-.019-11.79-2.216-16.3-6.181a24.793 24.793 0 0 1-8.199-15.383 31.565 31.565 0 0 1 .593-8.678l4.512-.39a29.005 29.005 0 0 0-.795 8.533 20.39 20.39 0 0 0 7.799 13.546 20.42 20.42 0 0 0 7.14 3.53c2.59.696 5.3.874 7.96.525.7-.101 2.29-.478 3.47-.796Z" fill="#3C4557"/><path d="M948.092 237.476c-41.84 0-75.741 3.63-75.741 8.099v209.492c0 4.469 33.901 8.085 75.741 8.085 41.841 0 75.728-3.616 75.728-8.085V245.575c0-4.469-33.902-8.099-75.728-8.099Z" fill="#517BF2"/><path d="M993.708 120.444v47.409a44.373 44.373 0 0 1-44.444 44.443h-2.358a43.88 43.88 0 0 1-9.502-1.026 44.457 44.457 0 0 1-34.942-43.388v-47.438A44.445 44.445 0 0 1 946.906 76h2.358a44.443 44.443 0 0 1 44.444 44.444Z" fill="#CB8591"/><path d="M902.463 138.956v20.335a6.918 6.918 0 0 1-6.798-6.928v-6.479a6.929 6.929 0 0 1 6.798-6.928Zm98.047 6.928v6.479a6.918 6.918 0 0 1-6.802 6.928v-20.335a6.925 6.925 0 0 1 4.814 2.075 6.93 6.93 0 0 1 1.988 4.853Z" fill="#CB8591"/><path opacity=".2" fill-rule="evenodd" clip-rule="evenodd" d="M941.627 94.338a22.346 22.346 0 0 0-22.345 22.345 4.338 4.338 0 1 1-8.677 0 31.021 31.021 0 0 1 31.022-31.023 4.34 4.34 0 0 1 0 8.678Z" fill="#fff"/><path d="M949.264 212.296h-2.357a43.867 43.867 0 0 1-9.502-1.027v27.479a9.582 9.582 0 0 0 2.799 6.78 9.575 9.575 0 0 0 6.775 2.809h2.213a9.578 9.578 0 0 0 8.849-5.92 9.564 9.564 0 0 0 .725-3.669v-27.464a44.705 44.705 0 0 1-9.502 1.012Z" fill="#CB8591"/><path d="M937.433 221.537v7.911s2.299-3.919 10.688-3.962c8.388-.044 10.673 4.338 10.673 4.338v-9.502l-21.361-.39v1.605Z" fill="#A8747D"/><path d="M991.929 166.579a19.437 19.437 0 0 1-19.612 18.483h-.882a8.29 8.29 0 0 1-6.147-2.892 23.498 23.498 0 0 0-27.302-6.189 23.506 23.506 0 0 0-8.03 5.827 8.232 8.232 0 0 1-6.205 2.734 19.45 19.45 0 0 1-19.177-18.223l-2.112-34.884v54.481c0 20.667 10.905 37.429 37.415 37.429h16.416c27.884 0 37.415-16.762 37.415-37.429v-54.481l-1.779 35.144Z" fill="#2C2A46"/><path d="M948.093 257.044c8.027 0 14.535-5.361 14.535-11.975s-6.508-11.975-14.535-11.975c-8.028 0-14.535 5.361-14.535 11.975s6.507 11.975 14.535 11.975Z" fill="#CB8591"/><path fill-rule="evenodd" clip-rule="evenodd" d="M937.592 238.257a9.693 9.693 0 0 0-2.965 6.82c.006 5.834 5.835 10.896 13.465 10.896s13.446-5.062 13.45-10.898a9.599 9.599 0 0 0-2.78-6.633l1.541-1.527a11.77 11.77 0 0 1 3.409 8.14v.014c0 7.409-7.199 13.074-15.62 13.074-8.419 0-15.634-5.664-15.634-13.074v-.017a11.845 11.845 0 0 1 3.63-8.358l1.504 1.563Z" fill="#fff"/><path d="M774.815 370.734c0 13.928-11.296 16.705-25.223 16.705-13.928 0-25.223-2.777-25.223-16.705a25.223 25.223 0 1 1 50.446 0Z" fill="#BC7785"/><path fill-rule="evenodd" clip-rule="evenodd" d="M902.282 249.358c.043.045.085.09-15.67 15.003l15.755-14.913c8.237 8.701 7.859 22.432-.842 30.668-4.905 4.642-11.407 6.548-17.622 5.769-4.685 1.792-15.873 7.522-37.574 24.219-9.496 7.306-23.117 5.531-30.423-3.965-7.306-9.496-5.531-23.117 3.965-30.423 23.868-18.364 39.427-27.181 50.264-30.991 5.496-1.933 11.084-3.052 16.623-2.551 2.874.26 5.79.964 8.582 2.257a23.548 23.548 0 0 1 3.876 2.263 22.383 22.383 0 0 1 2.98 2.575l.086.089Zm-16.648 35.961-.058.013c.039-.01.059-.013.058-.013Z" fill="#517BF2"/><path opacity=".2" d="M925.722 357.625c-16.781-.224-42.214 0-46.381-9.983-.713-1.712-6.117-68.681-6.196-69.768l-1.188 47.386v132.433c.459-11.054-.84-67.48 5.815-89.91 1.981-6.703 32.975-7.999 53.559-10.094l-5.609-.064Z" fill="#3D5CB6"/><path opacity=".4" d="M970.021 357.625c16.78-.224 42.209 0 46.379-9.983.71-1.712 6.12-68.681 6.2-69.768l1.19 47.386v132.433c-.46-11.054.84-67.48-5.82-89.91-1.98-6.703-32.975-7.999-53.559-10.094l5.61-.064Z" fill="#3D5CB6"/><path fill-rule="evenodd" clip-rule="evenodd" d="M1002.02 249.145c6.39-7.143 17.36-7.753 24.5-1.362l-11.57 12.934c11.57-12.934 11.58-12.928 11.59-12.923l.01.014.04.033.1.091c.08.071.18.164.3.277.25.227.58.539 1 .932.82.787 1.97 1.903 3.36 3.328 2.78 2.846 6.58 6.948 10.84 12.144 8.45 10.324 19 25.322 26.8 43.668 7.82 18.389 13.09 40.636 10.22 65.029-2.9 24.6-13.92 50.057-36.55 74.811-6.47 7.074-17.45 7.565-24.52 1.097-7.08-6.468-7.57-17.445-1.1-24.519 18.2-19.9 25.73-38.731 27.69-55.446 2-16.922-1.57-33.016-7.68-47.388-6.13-14.414-14.62-26.593-21.71-35.258a150.845 150.845 0 0 0-8.81-9.869 86.908 86.908 0 0 0-2.48-2.461c-.28-.262-.47-.446-.59-.551-.06-.053-.09-.086-.11-.098v-.003c-7.114-6.394-7.714-17.346-1.33-24.48Z" fill="#BC7785"/><path fill-rule="evenodd" clip-rule="evenodd" d="M996.166 252.284c6.674-9.953 20.144-12.614 30.094-5.944l-12.07 18.022c12.07-18.022 12.08-18.018 12.09-18.015l.03.024.05.036.13.086c.09.065.21.143.34.234a90.525 90.525 0 0 1 4.13 3.109c2.54 2.035 5.97 4.965 9.85 8.802a145.582 145.582 0 0 1 25.75 34.431c5.67 10.553 1.71 23.707-8.84 29.379-10.55 5.672-23.71 1.714-29.38-8.839a102.102 102.102 0 0 0-18.02-24.104c-2.68-2.648-4.95-4.573-6.45-5.772-.75-.598-1.3-1.01-1.61-1.236-.14-.105-.23-.17-.27-.193-9.854-6.698-12.468-20.106-5.824-30.02Z" fill="#517BF2"/><defs><filter id="newsletter__a" x="4.589" y="950.723" width="919.374" height="67.39" filterUnits="userSpaceOnUse" color-interpolation-filters="sRGB"><feFlood flood-opacity="0" result="BackgroundImageFix"/><feBlend in="SourceGraphic" in2="BackgroundImageFix" result="shape"/><feGaussianBlur stdDeviation="7" result="effect1_foregroundBlur_10272_1603"/></filter><filter id="newsletter__b" x="820.102" y="895.286" width="251.208" height="60.095" filterUnits="userSpaceOnUse" color-interpolation-filters="sRGB"><feFlood flood-opacity="0" result="BackgroundImageFix"/><feBlend in="SourceGraphic" in2="BackgroundImageFix" result="shape"/><feGaussianBlur stdDeviation="7" result="effect1_foregroundBlur_10272_1603"/></filter><filter id="newsletter__c" x="257.506" y="350.802" width="511.118" height="501.547" filterUnits="userSpaceOnUse" color-interpolation-filters="sRGB"><feFlood flood-opacity="0" result="BackgroundImageFix"/><feColorMatrix in="SourceAlpha" values="0 0 0 0 0 0 0 0 0 0 0 0 0 0 0 0 0 0 127 0" result="hardAlpha"/><feOffset dy="4.651"/><feGaussianBlur stdDeviation="8.14"/><feColorMatrix values="0 0 0 0 0.374547 0 0 0 0 0.481553 0 0 0 0 0.601935 0 0 0 0.2 0"/><feBlend in2="BackgroundImageFix" result="effect1_dropShadow_10272_1603"/><feBlend in="SourceGraphic" in2="effect1_dropShadow_10272_1603" result="shape"/></filter><linearGradient id="newsletter__d" x1="148.097" y1="946.954" x2="148.097" y2="859.039" gradientUnits="userSpaceOnUse"><stop offset=".21" stop-color="#F5F8F9"/><stop offset="1" stop-color="#fff"/></linearGradient></defs></svg>