<svg width="1080" height="1080" viewBox="0 0 1080 1080" fill="none" xmlns="http://www.w3.org/2000/svg">
<g filter="url(#filter0_d_10272_1585)">
<path d="M1059.52 262.803H854.397C850.707 262.803 847.716 265.781 847.716 269.456V403.197C847.716 406.871 850.707 409.85 854.397 409.85H1059.52C1063.21 409.85 1066.2 406.871 1066.2 403.197V269.456C1066.2 265.781 1063.21 262.803 1059.52 262.803Z" fill="#F5F8F9"/>
</g>
<path fill-rule="evenodd" clip-rule="evenodd" d="M1066.2 279.117H847.716V269.757C847.716 267.98 848.422 266.276 849.678 265.019C850.934 263.762 852.638 263.055 854.415 263.054H1059.5C1061.28 263.054 1062.98 263.76 1064.24 265.017C1065.5 266.275 1066.2 267.98 1066.2 269.757V279.117Z" fill="#343C4C"/>
<path d="M861.708 268.644C862.108 268.645 862.506 268.685 862.898 268.762C863.247 268.815 863.572 268.975 863.826 269.22C864.08 269.466 864.253 269.784 864.319 270.131C864.406 270.567 864.42 271.014 864.36 271.454C864.311 271.882 864.16 272.292 863.919 272.649C863.699 272.935 863.447 273.194 863.17 273.424L863.001 273.578C862.754 273.814 862.488 274.039 862.252 274.244V273.896C862.252 273.795 862.212 273.698 862.141 273.627C862.069 273.556 861.973 273.516 861.872 273.516C861.133 273.536 860.409 273.303 859.821 272.854C859.381 272.331 859.146 271.666 859.159 270.982C859.159 270.439 859.236 269.444 859.99 268.998C860.522 268.731 861.114 268.609 861.708 268.644ZM861.708 268.331C861.065 268.301 860.425 268.439 859.851 268.731C859.504 268.989 859.231 269.334 859.059 269.731C858.887 270.128 858.822 270.563 858.872 270.993C858.855 271.756 859.121 272.498 859.621 273.075C860.26 273.582 861.057 273.848 861.872 273.829C861.89 273.829 861.907 273.836 861.919 273.848C861.932 273.861 861.939 273.878 861.939 273.896V274.644C861.939 274.678 861.952 274.711 861.976 274.735C862 274.759 862.033 274.773 862.067 274.773C862.094 274.771 862.119 274.76 862.139 274.742C862.503 274.444 862.852 274.132 863.201 273.814C863.552 273.518 863.875 273.19 864.165 272.834C864.668 272.008 864.828 271.017 864.611 270.075C864.535 269.667 864.334 269.293 864.036 269.003C863.739 268.714 863.359 268.524 862.949 268.459C862.541 268.374 862.125 268.331 861.708 268.331Z" fill="#2CC3D5"/>
<path opacity="0.5" fill-rule="evenodd" clip-rule="evenodd" d="M1054.06 274.268C1054.6 274.268 1055.12 274.109 1055.57 273.811C1056.02 273.513 1056.36 273.089 1056.57 272.594C1056.77 272.098 1056.83 271.552 1056.72 271.026C1056.62 270.5 1056.36 270.016 1055.98 269.637C1055.6 269.257 1055.12 268.999 1054.59 268.894C1054.06 268.79 1053.52 268.843 1053.02 269.049C1052.53 269.254 1052.1 269.602 1051.81 270.048C1051.51 270.494 1051.35 271.019 1051.35 271.555C1051.35 272.275 1051.63 272.965 1052.14 273.474C1052.65 273.983 1053.34 274.268 1054.06 274.268Z" fill="#8CA0B3"/>
<path fill-rule="evenodd" clip-rule="evenodd" d="M1048.43 274.945V268.165H1049.02V274.945H1048.43Z" fill="#738192"/>
<path d="M1044.57 271.986C1044.52 271.986 1044.48 271.971 1044.45 271.945L1043.68 271.294C1043.67 271.287 1043.66 271.278 1043.65 271.267C1043.65 271.256 1043.64 271.244 1043.65 271.232C1043.64 271.222 1043.64 271.21 1043.64 271.199C1043.64 271.187 1043.64 271.176 1043.65 271.165C1043.66 271.146 1043.68 271.133 1043.71 271.129C1043.73 271.122 1043.75 271.122 1043.77 271.129L1044.55 271.781L1045.32 271.129C1045.32 271.129 1045.32 271.129 1045.35 271.129H1045.39C1045.41 271.126 1045.42 271.126 1045.43 271.129H1045.46C1045.46 271.141 1045.46 271.154 1045.46 271.165C1045.46 271.177 1045.46 271.189 1045.46 271.201C1045.46 271.215 1045.46 271.229 1045.46 271.242C1045.45 271.253 1045.45 271.262 1045.44 271.268L1044.67 271.919C1044.63 271.945 1044.59 271.959 1044.54 271.96L1044.57 271.986Z" fill="#8CA0B3"/>
<path opacity="0.3" fill-rule="evenodd" clip-rule="evenodd" d="M869.378 271.555C869.378 270.571 870.176 269.773 871.16 269.773H881.218C882.202 269.773 882.999 270.571 882.999 271.555C882.999 272.539 882.202 273.337 881.218 273.337H871.16C870.176 273.337 869.378 272.539 869.378 271.555Z" fill="#8CA0B3"/>
<path opacity="0.3" fill-rule="evenodd" clip-rule="evenodd" d="M1028.03 271.555C1028.03 270.571 1028.82 269.773 1029.81 269.773H1039.87C1040.85 269.773 1041.65 270.571 1041.65 271.555C1041.65 272.539 1040.85 273.337 1039.87 273.337H1029.81C1028.82 273.337 1028.03 272.539 1028.03 271.555Z" fill="#8CA0B3"/>
<path opacity="0.3" fill-rule="evenodd" clip-rule="evenodd" d="M886.134 271.555C886.134 270.571 886.931 269.773 887.915 269.773H900.65C901.634 269.773 902.432 270.571 902.432 271.555C902.432 272.539 901.634 273.337 900.65 273.337H887.915C886.931 273.337 886.134 272.539 886.134 271.555Z" fill="#8CA0B3"/>
<path d="M998.979 323.682L998.979 365.085C998.979 368.671 1001.89 371.577 1005.47 371.577L1039.04 371.577C1042.63 371.577 1045.54 368.671 1045.54 365.085L1045.54 323.682C1045.54 320.096 1042.63 317.189 1039.04 317.189L1005.47 317.189C1001.89 317.189 998.979 320.096 998.979 323.682Z" fill="white"/>
<path d="M1022.24 345.635C1027.09 345.635 1031.01 341.709 1031.01 336.867C1031.01 332.025 1027.09 328.099 1022.24 328.099C1017.4 328.099 1013.48 332.025 1013.48 336.867C1013.48 341.709 1017.4 345.635 1022.24 345.635Z" fill="#4DCB7B"/>
<path fill-rule="evenodd" clip-rule="evenodd" d="M1010.39 353.144C1010.39 351.901 1011.4 350.893 1012.65 350.893H1031.85C1033.1 350.893 1034.11 351.901 1034.11 353.144C1034.11 354.388 1033.1 355.396 1031.85 355.396H1012.65C1011.4 355.396 1010.39 354.388 1010.39 353.144Z" fill="#D2DFE6"/>
<path fill-rule="evenodd" clip-rule="evenodd" d="M1014.54 360.667C1014.54 359.89 1015.17 359.26 1015.95 359.26H1028.53C1029.31 359.26 1029.94 359.89 1029.94 360.667C1029.94 361.445 1029.31 362.075 1028.53 362.075H1015.95C1015.17 362.075 1014.54 361.445 1014.54 360.667Z" fill="#D2DFE6"/>
<path d="M933.143 323.682L933.143 365.085C933.143 368.671 936.05 371.577 939.635 371.577L973.208 371.577C976.793 371.577 979.7 368.671 979.7 365.085L979.7 323.682C979.7 320.096 976.793 317.189 973.208 317.189L939.635 317.189C936.05 317.189 933.143 320.096 933.143 323.682Z" fill="white"/>
<path d="M956.408 345.635C961.25 345.635 965.176 341.709 965.176 336.867C965.176 332.025 961.25 328.099 956.408 328.099C951.566 328.099 947.64 332.025 947.64 336.867C947.64 341.709 951.566 345.635 956.408 345.635Z" fill="#517BF2"/>
<path fill-rule="evenodd" clip-rule="evenodd" d="M944.559 353.144C944.559 351.901 945.567 350.893 946.81 350.893H966.019C967.263 350.893 968.271 351.901 968.271 353.144C968.271 354.388 967.263 355.396 966.019 355.396H946.81C945.567 355.396 944.559 354.388 944.559 353.144Z" fill="#D2DFE6"/>
<path fill-rule="evenodd" clip-rule="evenodd" d="M948.709 360.667C948.709 359.89 949.339 359.26 950.116 359.26H962.699C963.476 359.26 964.106 359.89 964.106 360.667C964.106 361.445 963.476 362.075 962.699 362.075H950.116C949.339 362.075 948.709 361.445 948.709 360.667Z" fill="#D2DFE6"/>
<path d="M868.361 323.682L868.361 365.085C868.361 368.671 871.268 371.577 874.853 371.577L908.426 371.577C912.011 371.577 914.918 368.671 914.918 365.085L914.918 323.682C914.918 320.096 912.011 317.189 908.426 317.189L874.853 317.189C871.268 317.189 868.361 320.096 868.361 323.682Z" fill="white"/>
<path d="M891.626 345.635C896.468 345.635 900.394 341.709 900.394 336.867C900.394 332.025 896.468 328.099 891.626 328.099C886.784 328.099 882.858 332.025 882.858 336.867C882.858 341.709 886.784 345.635 891.626 345.635Z" fill="#F99B45"/>
<path fill-rule="evenodd" clip-rule="evenodd" d="M879.777 353.144C879.777 351.901 880.785 350.893 882.028 350.893H901.237C902.481 350.893 903.489 351.901 903.489 353.144C903.489 354.388 902.481 355.396 901.237 355.396H882.028C880.785 355.396 879.777 354.388 879.777 353.144Z" fill="#D2DFE6"/>
<path fill-rule="evenodd" clip-rule="evenodd" d="M883.927 360.667C883.927 359.89 884.557 359.26 885.334 359.26H897.917C898.694 359.26 899.324 359.89 899.324 360.667C899.324 361.445 898.694 362.075 897.917 362.075H885.334C884.557 362.075 883.927 361.445 883.927 360.667Z" fill="#D2DFE6"/>
<path fill-rule="evenodd" clip-rule="evenodd" d="M955.674 409.622V413.044H951.219V409.622H955.674ZM955.674 419.889V426.734H951.219V419.889H955.674ZM955.674 433.579V440.424H951.219V433.579H955.674ZM955.674 447.268V454.113H951.219V447.268H955.674ZM955.674 460.958V467.803H951.219V460.958H955.674ZM955.674 474.648V481.492H951.219V474.648H955.674ZM955.674 488.337V495.182H951.219V488.337H955.674ZM955.674 502.027V508.871H951.219V502.027H955.674ZM955.674 515.716V522.561H951.219V515.716H955.674ZM955.674 529.406V536.251H951.219V529.406H955.674ZM955.674 543.095V549.94H951.219V543.095H955.674ZM955.674 556.785V563.63H951.219V556.785H955.674ZM955.674 570.475V576.124H949.908V571.67H951.219V570.475H955.674ZM730.531 576.124H726.993V571.67H730.531V576.124ZM744.685 576.124H737.608V571.67H744.685V576.124ZM758.838 576.124H751.761V571.67H758.838V576.124ZM772.991 576.124H765.915V571.67H772.991V576.124ZM787.145 576.124H780.068V571.67H787.145V576.124ZM801.298 576.124H794.221V571.67H801.298V576.124ZM815.451 576.124H808.375V571.67H815.451V576.124ZM829.605 576.124H822.528V571.67H829.605V576.124ZM843.758 576.124H836.681V571.67H843.758V576.124ZM857.912 576.124H850.835V571.67H857.912V576.124ZM872.065 576.124H864.988V571.67H872.065V576.124ZM886.218 576.124H879.142V571.67H886.218V576.124ZM900.372 576.124H893.295V571.67H900.372V576.124ZM914.525 576.124H907.448V571.67H914.525V576.124ZM928.678 576.124H921.602V571.67H928.678V576.124ZM942.832 576.124H935.755V571.67H942.832V576.124Z" fill="#D2DFE6"/>
<path fill-rule="evenodd" clip-rule="evenodd" d="M637.97 406.481V402.875H642.425V406.481H637.97ZM637.97 420.903V413.692H642.425V420.903H637.97ZM637.97 435.324V428.113H642.425V435.324H637.97ZM637.97 449.746V442.535H642.425V449.746H637.97ZM637.97 464.168V456.957H642.425V464.168H637.97ZM637.97 478.59V471.379H642.425V478.59H637.97ZM637.97 493.011V485.8H642.425V493.011H637.97ZM637.97 507.433V500.222H642.425V507.433H637.97ZM637.97 521.855V514.644H642.425V521.855H637.97ZM637.97 536.277V529.066H642.425V536.277H637.97ZM637.97 550.698V543.487H642.425V550.698H637.97ZM637.97 561.515V557.909H642.425V561.515H637.97Z" fill="#D2DFE6"/>
<path fill-rule="evenodd" clip-rule="evenodd" d="M353.74 406.481V402.875H358.194V406.481H353.74ZM353.74 420.903V413.692H358.194V420.903H353.74ZM353.74 435.324V428.113H358.194V435.324H353.74ZM353.74 449.746V442.535H358.194V449.746H353.74ZM353.74 464.168V456.957H358.194V464.168H353.74ZM353.74 478.59V471.379H358.194V478.59H353.74ZM353.74 493.011V485.8H358.194V493.011H353.74ZM353.74 507.433V500.222H358.194V507.433H353.74ZM353.74 521.855V514.644H358.194V521.855H353.74ZM353.74 536.277V529.066H358.194V536.277H353.74ZM353.74 550.698V543.487H358.194V550.698H353.74ZM353.74 561.515V557.909H358.194V561.515H353.74Z" fill="#D2DFE6"/>
<path d="M846.96 224.826C864.851 224.826 879.354 210.323 879.354 192.432C879.354 174.541 864.851 160.037 846.96 160.037C829.069 160.037 814.565 174.541 814.565 192.432C814.565 210.323 829.069 224.826 846.96 224.826Z" fill="#517BF2"/>
<path d="M59.7996 346.359C80.1303 346.359 96.6115 329.878 96.6115 309.547C96.6115 289.216 80.1303 272.735 59.7996 272.735C39.4689 272.735 22.9877 289.216 22.9877 309.547C22.9877 329.878 39.4689 346.359 59.7996 346.359Z" fill="#4DCB7B"/>
<path d="M166.567 416.502C170.33 416.502 173.381 413.452 173.381 409.689C173.381 405.926 170.33 402.875 166.567 402.875C162.804 402.875 159.754 405.926 159.754 409.689C159.754 413.452 162.804 416.502 166.567 416.502Z" fill="#E7EEF1"/>
<path d="M526.053 457.223C529.816 457.223 532.866 454.173 532.866 450.41C532.866 446.647 529.816 443.596 526.053 443.596C522.29 443.596 519.239 446.647 519.239 450.41C519.239 454.173 522.29 457.223 526.053 457.223Z" fill="#E7EEF1"/>
<path fill-rule="evenodd" clip-rule="evenodd" d="M192.75 212.419C189.609 212.419 187.063 214.965 187.063 218.106C187.063 221.247 189.609 223.794 192.75 223.794C195.892 223.794 198.438 221.247 198.438 218.106C198.438 214.965 195.892 212.419 192.75 212.419ZM184.811 218.106C184.811 213.721 188.366 210.167 192.75 210.167C197.135 210.167 200.69 213.721 200.69 218.106C200.69 222.491 197.135 226.046 192.75 226.046C188.365 226.046 184.811 222.491 184.811 218.106Z" fill="#DEE8EC"/>
<path fill-rule="evenodd" clip-rule="evenodd" d="M916.38 656.41C912.928 656.41 910.129 659.209 910.129 662.661C910.129 666.113 912.928 668.911 916.38 668.911C919.832 668.911 922.631 666.113 922.631 662.661C922.631 659.209 919.832 656.41 916.38 656.41ZM909.003 662.661C909.003 658.587 912.306 655.284 916.38 655.284C920.454 655.284 923.756 658.587 923.756 662.661C923.756 666.735 920.454 670.037 916.38 670.037C912.306 670.037 909.003 666.735 909.003 662.661Z" fill="#E7EEF1"/>
<path fill-rule="evenodd" clip-rule="evenodd" d="M614.087 132.126C610.635 132.126 607.837 134.924 607.837 138.376C607.837 141.829 610.635 144.627 614.087 144.627C617.54 144.627 620.338 141.829 620.338 138.376C620.338 134.924 617.54 132.126 614.087 132.126ZM606.711 138.376C606.711 134.303 610.013 131 614.087 131C618.161 131 621.464 134.303 621.464 138.376C621.464 142.45 618.161 145.753 614.087 145.753C610.013 145.753 606.711 142.45 606.711 138.376Z" fill="#E7EEF1"/>
<path fill-rule="evenodd" clip-rule="evenodd" d="M1072.62 506.793C1069.17 506.793 1066.37 509.592 1066.37 513.044C1066.37 516.496 1069.17 519.295 1072.62 519.295C1076.08 519.295 1078.87 516.496 1078.87 513.044C1078.87 509.592 1076.08 506.793 1072.62 506.793ZM1065.25 513.044C1065.25 508.97 1068.55 505.667 1072.62 505.667C1076.7 505.667 1080 508.97 1080 513.044C1080 517.118 1076.7 520.42 1072.62 520.42C1068.55 520.42 1065.25 517.118 1065.25 513.044Z" fill="#E7EEF1"/>
<path fill-rule="evenodd" clip-rule="evenodd" d="M411.732 484.494C410.399 483.161 408.238 483.161 406.905 484.494L399.579 491.82C398.246 493.153 398.246 495.313 399.579 496.646L406.905 503.972C408.238 505.305 410.399 505.305 411.732 503.972L419.058 496.646C420.391 495.313 420.391 493.153 419.058 491.82L411.732 484.494ZM406.109 483.697C407.882 481.925 410.755 481.925 412.528 483.697L419.854 491.024C421.626 492.796 421.626 495.67 419.854 497.442L412.528 504.769C410.755 506.541 407.881 506.541 406.109 504.769L398.783 497.442C397.01 495.67 397.01 492.796 398.783 491.024L406.109 483.697Z" fill="#E7EEF1"/>
<path d="M753.657 230.745L749.502 226.589C748.623 225.711 747.199 225.711 746.321 226.589L742.166 230.745C741.288 231.623 741.288 233.047 742.166 233.925L746.321 238.08C747.199 238.959 748.623 238.959 749.502 238.08L753.657 233.925C754.535 233.047 754.535 231.623 753.657 230.745Z" fill="#E7EEF1"/>
<path d="M495.613 212.385C514.147 212.385 529.172 197.36 529.172 178.826C529.172 160.292 514.147 145.267 495.613 145.267C477.079 145.267 462.054 160.292 462.054 178.826C462.054 197.36 477.079 212.385 495.613 212.385Z" fill="#F66689"/>
<path d="M487.83 194.715H487.674C487.373 194.678 487.087 194.558 486.85 194.368C485.774 193.435 484.375 192.228 483.012 190.961L482.414 190.411C481.3 189.464 480.294 188.398 479.413 187.231C477.414 184 476.778 180.109 477.644 176.411C477.964 174.741 478.785 173.207 479.998 172.016C481.211 170.824 482.759 170.03 484.435 169.74V169.74C485.985 169.429 487.563 169.273 489.145 169.273C491.656 169.169 494.15 169.725 496.378 170.887C499.092 172.561 500.515 175.801 500.383 180.009C500.418 183.027 499.356 185.954 497.394 188.247C495.553 190.148 492.122 191.116 489.384 191.283V193.16C489.384 193.365 489.344 193.567 489.266 193.755C489.188 193.944 489.073 194.115 488.929 194.259C488.785 194.404 488.613 194.518 488.425 194.596C488.236 194.675 488.034 194.715 487.83 194.715V194.715ZM484.925 171.82C483.653 172.006 482.471 172.584 481.543 173.473C480.616 174.363 479.988 175.519 479.748 176.781C478.995 179.906 479.507 183.202 481.171 185.951C481.969 186.985 482.87 187.934 483.861 188.785L484.47 189.335C485.415 190.219 486.383 191.068 487.232 191.821V190.459C487.232 190.286 487.266 190.116 487.332 189.957C487.399 189.798 487.496 189.654 487.618 189.533C487.74 189.412 487.885 189.316 488.045 189.251C488.204 189.186 488.375 189.154 488.547 189.155C490.938 189.155 494.346 188.307 495.84 186.764C497.432 184.85 498.281 182.427 498.231 179.938C498.291 177.965 497.992 174.402 495.242 172.705C493.357 171.751 491.255 171.306 489.145 171.413C487.712 171.415 486.283 171.555 484.877 171.832L484.925 171.82Z" fill="white"/>
<g opacity="0.6">
<path opacity="0.6" d="M497.778 183.094C497.778 183.094 497.778 183.094 497.778 183.178C498.061 182.12 498.218 181.032 498.244 179.938C498.214 181.004 498.057 182.064 497.778 183.094V183.094Z" fill="white"/>
<path opacity="0.6" d="M492.002 171.617L492.924 171.796C492.613 171.725 492.301 171.665 491.966 171.617H492.002Z" fill="white"/>
<path opacity="0.6" d="M497.408 175.216C497.264 174.885 497.087 174.568 496.882 174.271C497.087 174.568 497.264 174.885 497.408 175.216V175.216Z" fill="white"/>
<path opacity="0.6" d="M498.243 179.543C498.275 178.057 497.989 176.582 497.406 175.215C497.989 176.582 498.275 178.057 498.243 179.543V179.543Z" fill="white"/>
<path opacity="0.6" d="M494.49 172.286C494.31 172.214 494.143 172.143 493.951 172.083C494.095 172.143 494.263 172.214 494.49 172.286Z" fill="white"/>
<path opacity="0.6" d="M513.618 170.098C513.3 168.426 512.48 166.89 511.267 165.696C510.053 164.502 508.505 163.706 506.827 163.415C505.277 163.104 503.699 162.948 502.117 162.949C499.626 162.855 497.154 163.411 494.944 164.563C493.22 165.664 491.97 167.37 491.441 169.345C493.205 169.47 494.92 169.984 496.462 170.852C499.176 172.525 500.599 175.765 500.467 179.974C500.426 181.556 500.148 183.124 499.642 184.624C500.399 184.78 501.166 184.884 501.938 184.935V186.824C501.938 187.234 502.1 187.628 502.389 187.919C502.677 188.21 503.07 188.375 503.48 188.378H503.623C503.938 188.341 504.236 188.217 504.484 188.02C505.548 187.099 506.947 185.892 508.31 184.624L508.896 184.074C510.007 183.125 511.013 182.059 511.897 180.894C513.873 177.664 514.492 173.783 513.618 170.098V170.098Z" fill="white"/>
<path opacity="0.6" d="M493.701 171.999L493.019 171.796L493.701 171.999Z" fill="white"/>
<path opacity="0.6" d="M495.243 172.693L494.632 172.37L495.243 172.693Z" fill="white"/>
</g>
<path d="M74.029 306.441L48.5953 294.26C47.9625 293.963 47.2559 293.861 46.5649 293.966C45.874 294.07 45.2296 294.378 44.7133 294.849C44.2304 295.268 43.8843 295.823 43.7197 296.441C43.5551 297.059 43.5794 297.712 43.7896 298.316C45.0716 301.391 46.5287 304.39 48.1535 307.298C48.2677 307.532 48.4476 307.727 48.6711 307.86C48.8945 307.993 49.1519 308.058 49.4118 308.048L61.1916 307.927C61.5299 307.919 61.863 308.011 62.1489 308.193C62.4347 308.374 62.6606 308.635 62.798 308.944C62.9209 309.213 62.9747 309.507 62.9546 309.802C62.9344 310.096 62.8408 310.381 62.6824 310.629C62.5241 310.878 62.3059 311.084 62.0478 311.226C61.7898 311.369 61.5 311.445 61.205 311.448L49.1575 311.568C48.9035 311.561 48.6528 311.627 48.4347 311.757C48.2167 311.888 48.0402 312.077 47.926 312.304C46.4012 315.032 45.0205 317.838 43.7896 320.711C43.5671 321.319 43.535 321.98 43.6976 322.606C43.8602 323.233 44.2098 323.795 44.6999 324.218C45.3525 324.82 46.2079 325.155 47.096 325.155C47.6144 325.156 48.1265 325.042 48.5953 324.82L73.9487 312.679C74.5341 312.395 75.0278 311.952 75.3731 311.4C75.7185 310.849 75.9017 310.211 75.9017 309.56C75.9017 308.909 75.7185 308.272 75.3731 307.72C75.0278 307.169 74.5341 306.725 73.9487 306.441H74.029Z" fill="white"/>
<path d="M96.1351 534.496C122.084 534.496 143.121 513.459 143.121 487.51C143.121 461.561 122.084 440.525 96.1351 440.525C70.1857 440.525 49.1497 461.561 49.1497 487.51C49.1497 513.459 70.1857 534.496 96.1351 534.496Z" fill="#F9B42F"/>
<path opacity="0.7" d="M117.741 477.805H116.844C115.638 473.233 112.952 469.189 109.206 466.304C105.46 463.418 100.864 461.854 96.1361 461.854C91.4077 461.854 86.8123 463.418 83.0664 466.304C79.3204 469.189 76.6346 473.233 75.4277 477.805H74.4773C73.4122 477.805 72.3908 478.228 71.6376 478.981C70.8845 479.734 70.4614 480.755 70.4614 481.821V489.303C70.4614 490.368 70.8845 491.39 71.6376 492.143C72.3908 492.896 73.4122 493.319 74.4773 493.319H74.6111V502.101C74.576 503.297 74.7856 504.487 75.2273 505.6C75.6689 506.712 76.3332 507.722 77.1793 508.568C78.0255 509.414 79.0357 510.078 80.1478 510.52C81.26 510.962 82.4507 511.171 83.6468 511.136H89.3627C89.7502 511.745 90.2841 512.246 90.9155 512.594C91.547 512.943 92.2557 513.127 92.9769 513.131H98.8133C99.3987 513.163 99.9845 513.076 100.535 512.875C101.086 512.673 101.589 512.362 102.015 511.959C102.441 511.556 102.78 511.07 103.012 510.532C103.244 509.993 103.364 509.413 103.364 508.827C103.364 508.241 103.244 507.661 103.012 507.122C102.78 506.584 102.441 506.098 102.015 505.696C101.589 505.293 101.086 504.981 100.535 504.779C99.9845 504.578 99.3987 504.491 98.8133 504.523H93.0305C92.1776 504.511 91.3403 504.752 90.6251 505.217C89.91 505.682 89.3494 506.349 89.0146 507.134H83.6602C82.9912 507.166 82.3227 507.059 81.698 506.817C81.0733 506.575 80.5061 506.206 80.0331 505.731C79.5601 505.257 79.1918 504.689 78.9519 504.064C78.712 503.438 78.6059 502.769 78.6404 502.101V483.36C78.6404 478.732 80.4787 474.294 83.751 471.022C87.0233 467.749 91.4615 465.911 96.0892 465.911C100.717 465.911 105.155 467.749 108.427 471.022C111.7 474.294 113.538 478.732 113.538 483.36V491.325C113.538 491.857 113.75 492.368 114.126 492.745C114.503 493.121 115.013 493.333 115.546 493.333H117.701C118.766 493.333 119.788 492.91 120.541 492.156C121.294 491.403 121.717 490.382 121.717 489.317V481.834C121.721 480.773 121.305 479.755 120.56 479C119.815 478.245 118.802 477.815 117.741 477.805V477.805Z" fill="white"/>
<path d="M96.1345 470.683C93.1899 470.681 90.3106 471.551 87.861 473.185C85.4113 474.82 83.5013 477.143 82.3727 479.863C81.244 482.583 80.9473 485.576 81.5201 488.465C82.093 491.353 83.5096 494.007 85.5908 496.09C87.6721 498.173 90.3244 499.592 93.2122 500.167C96.1001 500.743 99.0937 500.449 101.814 499.322C104.535 498.196 106.861 496.288 108.497 493.84C110.133 491.392 111.007 488.513 111.007 485.569C111.003 481.624 109.435 477.842 106.648 475.052C103.86 472.261 100.079 470.69 96.1345 470.683ZM105.505 490.04C104.823 491.826 103.593 493.35 101.991 494.393C100.39 495.437 98.4988 495.947 96.5897 495.849H96.081C94.1732 495.948 92.2834 495.439 90.6837 494.395C89.0839 493.351 87.8568 491.826 87.1792 490.04C86.7508 488.701 86.791 488.032 87.1792 488.032C90.1566 488.479 93.1638 488.699 96.1747 488.688H96.5093C99.5202 488.699 102.527 488.479 105.505 488.032C105.866 488.032 105.906 488.674 105.491 490.04H105.505Z" fill="white"/>
<g opacity="0.2" filter="url(#filter1_f_10272_1585)">
<path d="M721.286 926.537C721.286 935.694 600.529 943.118 451.568 943.118C302.606 943.118 181.849 935.694 181.849 926.537C181.849 917.38 302.606 909.956 451.568 909.956C600.529 909.956 721.286 917.38 721.286 926.537Z" fill="#0A0F1A"/>
</g>
<g opacity="0.2" filter="url(#filter2_f_10272_1585)">
<path d="M906.994 939.802C906.994 945.296 869.629 949.751 823.536 949.751C777.444 949.751 740.078 945.296 740.078 939.802C740.078 934.307 777.444 929.853 823.536 929.853C869.629 929.853 906.994 934.307 906.994 939.802Z" fill="#0A0F1A"/>
</g>
<path d="M719.065 535.859H183.725C174.077 535.859 166.256 543.68 166.256 553.328V904.996C166.256 914.644 174.077 922.465 183.725 922.465H719.065C728.712 922.465 736.534 914.644 736.534 904.996V553.328C736.534 543.68 728.712 535.859 719.065 535.859Z" fill="#F5F8F9"/>
<path fill-rule="evenodd" clip-rule="evenodd" d="M736.532 577.142H166.282V552.713C166.282 548.075 168.123 543.627 171.401 540.346C174.68 537.065 179.126 535.22 183.764 535.217H719.037C723.677 535.217 728.127 537.06 731.408 540.341C734.689 543.622 736.532 548.072 736.532 552.713V577.142Z" fill="#343C4C"/>
<path d="M202.802 549.807C203.844 549.811 204.884 549.914 205.907 550.115C206.819 550.254 207.666 550.673 208.33 551.313C208.994 551.953 209.443 552.783 209.615 553.689C209.844 554.827 209.88 555.994 209.722 557.143C209.596 558.26 209.201 559.331 208.571 560.262C207.997 561.007 207.342 561.685 206.617 562.283L206.175 562.685C205.533 563.301 204.837 563.89 204.221 564.425V563.515C204.221 563.252 204.116 563 203.931 562.814C203.745 562.629 203.493 562.524 203.23 562.524C201.3 562.577 199.411 561.968 197.876 560.797C196.728 559.431 196.115 557.695 196.149 555.912C196.149 554.493 196.35 551.896 198.317 550.731C199.705 550.035 201.252 549.717 202.802 549.807ZM202.802 548.991C201.123 548.914 199.454 549.273 197.956 550.035C197.05 550.708 196.336 551.608 195.888 552.644C195.439 553.681 195.27 554.817 195.399 555.938C195.354 557.93 196.051 559.867 197.354 561.373C199.023 562.695 201.102 563.391 203.23 563.341C203.276 563.341 203.321 563.359 203.353 563.392C203.386 563.424 203.404 563.469 203.404 563.515V565.469C203.404 565.558 203.439 565.643 203.502 565.706C203.565 565.769 203.65 565.804 203.739 565.804C203.809 565.8 203.875 565.772 203.926 565.724C204.877 564.947 205.787 564.131 206.697 563.301C207.615 562.53 208.458 561.674 209.214 560.744C210.527 558.587 210.944 556.003 210.378 553.542C210.179 552.478 209.655 551.501 208.879 550.746C208.102 549.991 207.111 549.495 206.041 549.326C204.976 549.105 203.89 548.992 202.802 548.991Z" fill="#2CC3D5"/>
<path opacity="0.5" fill-rule="evenodd" clip-rule="evenodd" d="M684.003 564.479C685.403 564.479 686.773 564.063 687.937 563.285C689.102 562.507 690.009 561.401 690.545 560.107C691.081 558.813 691.221 557.39 690.948 556.016C690.675 554.642 690 553.381 689.01 552.39C688.02 551.4 686.758 550.725 685.384 550.452C684.011 550.179 682.587 550.319 681.293 550.855C679.999 551.391 678.893 552.299 678.115 553.463C677.337 554.628 676.922 555.997 676.922 557.397C676.922 559.276 677.668 561.077 678.996 562.405C680.324 563.733 682.125 564.479 684.003 564.479Z" fill="#8CA0B3"/>
<path fill-rule="evenodd" clip-rule="evenodd" d="M669.773 566.246V548.549H670.361V566.246H669.773Z" fill="#738192"/>
<path d="M659.224 558.522C659.109 558.521 658.996 558.483 658.903 558.415L656.895 556.715C656.869 556.697 656.848 556.673 656.834 556.645C656.82 556.617 656.814 556.585 656.815 556.554C656.802 556.527 656.795 556.497 656.795 556.467C656.795 556.437 656.802 556.407 656.815 556.38C656.855 556.33 656.912 556.296 656.975 556.286C657.032 556.267 657.093 556.267 657.149 556.286L659.171 557.986L661.192 556.286C661.192 556.286 661.192 556.286 661.272 556.286H661.379C661.41 556.276 661.443 556.276 661.473 556.286H661.553C661.561 556.317 661.561 556.349 661.553 556.38C661.56 556.411 661.56 556.443 661.553 556.474C661.565 556.509 661.565 556.546 661.553 556.581C661.538 556.609 661.515 556.633 661.487 556.648L659.479 558.348C659.385 558.415 659.273 558.452 659.157 558.455L659.224 558.522Z" fill="#8CA0B3"/>
<path opacity="0.3" fill-rule="evenodd" clip-rule="evenodd" d="M222.811 557.397C222.811 554.824 224.897 552.738 227.471 552.738H253.721C256.294 552.738 258.38 554.824 258.38 557.397C258.38 559.97 256.294 562.056 253.721 562.056H227.471C224.897 562.056 222.811 559.97 222.811 557.397Z" fill="#8CA0B3"/>
<path opacity="0.3" fill-rule="evenodd" clip-rule="evenodd" d="M266.544 557.397C266.544 554.824 268.63 552.738 271.203 552.738H304.441C307.014 552.738 309.1 554.824 309.1 557.397C309.1 559.97 307.014 562.056 304.441 562.056H271.203C268.63 562.056 266.544 559.97 266.544 557.397Z" fill="#8CA0B3"/>
<path d="M674.422 643.444H377.048C367.386 643.444 359.553 651.277 359.553 660.94V824.492C359.553 834.154 367.386 841.987 377.048 841.987H674.422C684.085 841.987 691.918 834.154 691.918 824.492V660.94C691.918 651.277 684.085 643.444 674.422 643.444Z" fill="white"/>
<path fill-rule="evenodd" clip-rule="evenodd" d="M435.652 706.114C411.335 706.114 391.621 725.827 391.621 750.145C391.621 774.462 411.335 794.176 435.652 794.176C459.97 794.176 479.684 774.462 479.684 750.145C479.684 725.827 459.97 706.114 435.652 706.114ZM386.971 750.145C386.971 723.259 408.766 701.463 435.652 701.463C462.538 701.463 484.334 723.259 484.334 750.145C484.334 777.031 462.538 798.826 435.652 798.826C408.766 798.826 386.971 777.031 386.971 750.145Z" fill="#D2DFE6"/>
<path fill-rule="evenodd" clip-rule="evenodd" d="M430.993 703.787C430.994 701.214 433.081 699.128 435.654 699.129C445.743 699.132 455.605 702.127 463.993 707.734C472.38 713.341 478.917 721.31 482.776 730.632C486.635 739.954 487.643 750.211 485.673 760.106C483.703 770.001 478.843 779.09 471.708 786.223C464.572 793.356 455.482 798.214 445.587 800.181C435.691 802.148 425.434 801.137 416.113 797.275C406.792 793.414 398.825 786.875 393.22 778.486C387.615 770.097 384.624 760.234 384.624 750.145C384.624 747.571 386.71 745.485 389.283 745.485C391.856 745.485 393.942 747.571 393.942 750.145C393.942 758.391 396.387 766.452 400.969 773.309C405.55 780.166 412.061 785.51 419.68 788.667C427.298 791.823 435.681 792.649 443.77 791.041C451.858 789.433 459.287 785.463 465.119 779.633C470.951 773.803 474.923 766.374 476.534 758.287C478.144 750.199 477.32 741.816 474.166 734.196C471.012 726.577 465.669 720.064 458.814 715.481C451.958 710.898 443.898 708.45 435.651 708.448C433.078 708.447 430.993 706.36 430.993 703.787Z" fill="#2CC3D5"/>
<path opacity="0.5" d="M418.089 751.349C416.565 749.522 415.803 747.178 415.961 744.803C415.803 742.008 416.601 739.242 418.223 736.959C418.967 736.022 419.923 735.275 421.012 734.78C422.101 734.284 423.292 734.054 424.488 734.108C425.598 734.038 426.71 734.208 427.75 734.605C428.789 735.002 429.731 735.618 430.512 736.41C432.032 738.25 432.794 740.601 432.64 742.983C432.818 745.783 432.023 748.558 430.391 750.841C429.64 751.766 428.681 752.502 427.593 752.988C426.504 753.474 425.317 753.697 424.126 753.638C423.015 753.708 421.902 753.54 420.861 753.145C419.82 752.75 418.875 752.138 418.089 751.349ZM427.018 742.354C427.093 741.317 426.88 740.279 426.402 739.355C426.196 739.041 425.91 738.787 425.574 738.62C425.237 738.453 424.863 738.379 424.488 738.405C423.98 738.42 423.49 738.599 423.092 738.915C422.694 739.231 422.409 739.667 422.279 740.158C421.737 741.843 421.501 743.611 421.583 745.379C421.512 746.422 421.715 747.465 422.172 748.404C422.372 748.721 422.654 748.978 422.989 749.145C423.325 749.313 423.699 749.385 424.073 749.355C426.041 749.395 427.018 747.039 427.018 742.354V742.354ZM425.8 767.64C425.481 767.646 425.165 767.588 424.868 767.471C424.572 767.354 424.302 767.179 424.073 766.957C423.844 766.752 423.661 766.5 423.537 766.218C423.412 765.937 423.348 765.632 423.35 765.324C423.352 764.772 423.525 764.235 423.845 763.785L442.88 734.924C443.099 734.524 443.42 734.189 443.81 733.954C444.201 733.719 444.647 733.592 445.102 733.586C445.749 733.58 446.373 733.825 446.843 734.268C447.078 734.471 447.266 734.721 447.396 735.003C447.525 735.285 447.592 735.591 447.592 735.902C447.583 736.452 447.411 736.988 447.097 737.441L428.022 766.315C427.801 766.712 427.479 767.043 427.089 767.276C426.698 767.508 426.254 767.634 425.8 767.64V767.64ZM440.324 764.628C438.806 762.778 438.054 760.416 438.222 758.029C438.063 755.245 438.851 752.49 440.457 750.211C441.199 749.28 442.151 748.538 443.236 748.047C444.32 747.556 445.506 747.33 446.695 747.387C447.806 747.318 448.918 747.487 449.957 747.884C450.996 748.282 451.938 748.897 452.719 749.689C454.24 751.529 455.001 753.88 454.848 756.262C455.026 759.058 454.242 761.831 452.626 764.12C451.879 765.046 450.922 765.781 449.835 766.265C448.749 766.749 447.562 766.968 446.374 766.904C445.262 766.975 444.147 766.809 443.104 766.417C442.061 766.025 441.113 765.415 440.324 764.628V764.628ZM449.279 755.633C449.345 754.588 449.133 753.544 448.663 752.608C448.458 752.289 448.17 752.031 447.831 751.862C447.492 751.692 447.114 751.617 446.736 751.644C446.219 751.653 445.72 751.831 445.314 752.15C444.909 752.469 444.618 752.911 444.487 753.411C443.945 755.105 443.709 756.882 443.791 758.658C443.711 759.708 443.924 760.76 444.406 761.697C444.611 762.015 444.899 762.272 445.239 762.439C445.578 762.606 445.957 762.678 446.334 762.647C448.355 762.647 449.319 760.305 449.319 755.633H449.279Z" fill="#607B99"/>
<path fill-rule="evenodd" clip-rule="evenodd" d="M502.295 709.92C502.295 707.122 504.564 704.853 507.362 704.853H659.562C662.36 704.853 664.629 707.122 664.629 709.92C664.629 712.718 662.36 714.986 659.562 714.986H507.362C504.564 714.986 502.295 712.718 502.295 709.92Z" fill="#D2DFE6"/>
<path fill-rule="evenodd" clip-rule="evenodd" d="M503.179 730.026C503.179 727.228 505.447 724.96 508.245 724.96H607.959C610.757 724.96 613.025 727.228 613.025 730.026C613.025 732.824 610.757 735.092 607.959 735.092H508.245C505.447 735.092 503.179 732.824 503.179 730.026Z" fill="#D2DFE6"/>
<path fill-rule="evenodd" clip-rule="evenodd" d="M504.995 756.276C504.995 754.48 506.451 753.024 508.247 753.024H547.602C549.398 753.024 550.854 754.48 550.854 756.276C550.854 758.071 549.398 759.527 547.602 759.527H508.247C506.451 759.527 504.995 758.071 504.995 756.276Z" fill="#D2DFE6"/>
<path fill-rule="evenodd" clip-rule="evenodd" d="M504.995 772.018C504.995 770.222 506.451 768.766 508.247 768.766H547.602C549.398 768.766 550.854 770.222 550.854 772.018C550.854 773.814 549.398 775.27 547.602 775.27H508.247C506.451 775.27 504.995 773.814 504.995 772.018Z" fill="#D2DFE6"/>
<path fill-rule="evenodd" clip-rule="evenodd" d="M504.995 787.76C504.995 785.964 506.451 784.508 508.247 784.508H547.602C549.398 784.508 550.854 785.964 550.854 787.76C550.854 789.556 549.398 791.011 547.602 791.011H508.247C506.451 791.011 504.995 789.556 504.995 787.76Z" fill="#D2DFE6"/>
<path fill-rule="evenodd" clip-rule="evenodd" d="M560.977 756.276C560.977 754.48 562.433 753.024 564.229 753.024H603.584C605.38 753.024 606.836 754.48 606.836 756.276C606.836 758.071 605.38 759.527 603.584 759.527H564.229C562.433 759.527 560.977 758.071 560.977 756.276Z" fill="#D2DFE6"/>
<path fill-rule="evenodd" clip-rule="evenodd" d="M560.977 772.018C560.977 770.222 562.433 768.766 564.229 768.766H603.584C605.38 768.766 606.836 770.222 606.836 772.018C606.836 773.814 605.38 775.27 603.584 775.27H564.229C562.433 775.27 560.977 773.814 560.977 772.018Z" fill="#D2DFE6"/>
<path fill-rule="evenodd" clip-rule="evenodd" d="M560.977 787.76C560.977 785.964 562.433 784.508 564.229 784.508H603.584C605.38 784.508 606.836 785.964 606.836 787.76C606.836 789.556 605.38 791.011 603.584 791.011H564.229C562.433 791.011 560.977 789.556 560.977 787.76Z" fill="#D2DFE6"/>
<path fill-rule="evenodd" clip-rule="evenodd" d="M616.944 756.276C616.944 754.48 618.4 753.024 620.196 753.024H659.564C661.36 753.024 662.816 754.48 662.816 756.276C662.816 758.071 661.36 759.527 659.564 759.527H620.196C618.4 759.527 616.944 758.071 616.944 756.276Z" fill="#D2DFE6"/>
<path fill-rule="evenodd" clip-rule="evenodd" d="M616.944 772.018C616.944 770.222 618.4 768.766 620.196 768.766H659.564C661.36 768.766 662.816 770.222 662.816 772.018C662.816 773.814 661.36 775.27 659.564 775.27H620.196C618.4 775.27 616.944 773.814 616.944 772.018Z" fill="#D2DFE6"/>
<path fill-rule="evenodd" clip-rule="evenodd" d="M616.944 787.76C616.944 785.964 618.4 784.508 620.196 784.508H659.564C661.36 784.508 662.816 785.964 662.816 787.76C662.816 789.556 661.36 791.011 659.564 791.011H620.196C618.4 791.011 616.944 789.556 616.944 787.76Z" fill="#D2DFE6"/>
<path d="M315.418 757.146H213.014C205.547 757.146 199.494 763.199 199.494 770.666V828.468C199.494 835.934 205.547 841.988 213.014 841.988H315.418C322.885 841.988 328.938 835.934 328.938 828.468V770.666C328.938 763.199 322.885 757.146 315.418 757.146Z" fill="white"/>
<path d="M235.356 817.932C245.499 817.932 253.722 809.709 253.722 799.566C253.722 789.423 245.499 781.2 235.356 781.2C225.213 781.2 216.99 789.423 216.99 799.566C216.99 809.709 225.213 817.932 235.356 817.932Z" fill="#55CFFF"/>
<path fill-rule="evenodd" clip-rule="evenodd" d="M267.826 791.695C267.826 789.83 269.338 788.318 271.203 788.318H311.442C313.307 788.318 314.82 789.83 314.82 791.695C314.82 793.561 313.307 795.073 311.442 795.073H271.203C269.338 795.073 267.826 793.561 267.826 791.695Z" fill="#D2DFE6"/>
<path fill-rule="evenodd" clip-rule="evenodd" d="M267.826 807.438C267.826 805.572 269.338 804.06 271.203 804.06H297.574C299.439 804.06 300.951 805.572 300.951 807.438C300.951 809.303 299.439 810.815 297.574 810.815H271.203C269.338 810.815 267.826 809.303 267.826 807.438Z" fill="#D2DFE6"/>
<path d="M238.567 806.019L238.393 806.179L237.925 806.621C237.148 807.331 236.359 808.04 235.662 808.629V807.424C235.662 807.169 235.561 806.924 235.38 806.743C235.199 806.562 234.954 806.461 234.699 806.461C232.627 806.508 230.602 805.836 228.969 804.56C227.716 803.061 227.046 801.159 227.082 799.205C227.082 797.652 227.283 794.855 229.451 793.516C230.928 792.765 232.576 792.414 234.23 792.499C235.354 792.498 236.475 792.61 237.577 792.833C238.041 792.927 238.491 793.08 238.915 793.289C239.104 793.372 239.318 793.38 239.513 793.31C239.707 793.241 239.867 793.099 239.959 792.914C240.046 792.727 240.055 792.514 239.985 792.321C239.915 792.128 239.771 791.97 239.585 791.883C239.041 791.618 238.465 791.424 237.871 791.307C236.657 791.042 235.419 790.903 234.177 790.892C232.235 790.812 230.306 791.241 228.581 792.137C226.48 793.476 225.382 795.939 225.476 799.205C225.446 801.544 226.269 803.814 227.791 805.59C229.549 807.068 231.76 807.9 234.056 807.946V809.472C234.056 809.778 234.177 810.071 234.393 810.286C234.609 810.502 234.902 810.624 235.207 810.624H235.301C235.539 810.609 235.766 810.515 235.944 810.356C236.774 809.646 237.871 808.696 238.929 807.679L239.397 807.237L239.571 807.09C239.718 806.942 239.8 806.742 239.8 806.534C239.8 806.326 239.718 806.127 239.571 805.979C239.426 805.865 239.246 805.807 239.062 805.814C238.878 805.822 238.703 805.894 238.567 806.019Z" fill="white"/>
<path d="M245.02 800.008V799.941C245.026 799.915 245.026 799.887 245.02 799.861V799.794C245.02 799.794 245.02 799.794 245.02 799.714V799.62V799.553C245.02 799.553 245.02 799.553 245.02 799.473C245.026 799.446 245.026 799.419 245.02 799.393L241.807 795.912C241.722 795.81 241.616 795.726 241.497 795.666C241.378 795.606 241.248 795.57 241.115 795.562C240.982 795.554 240.849 795.574 240.723 795.619C240.598 795.665 240.483 795.736 240.386 795.827C240.289 795.919 240.212 796.029 240.159 796.151C240.106 796.274 240.079 796.406 240.079 796.539C240.08 796.673 240.107 796.805 240.16 796.927C240.213 797.049 240.291 797.159 240.388 797.251L242.088 799.098H235.797C235.66 799.082 235.521 799.095 235.389 799.136C235.258 799.178 235.136 799.247 235.033 799.338C234.93 799.43 234.848 799.542 234.791 799.668C234.735 799.794 234.705 799.931 234.705 800.069C234.705 800.206 234.735 800.343 234.791 800.469C234.848 800.595 234.93 800.707 235.033 800.799C235.136 800.89 235.258 800.959 235.389 801.001C235.521 801.042 235.66 801.055 235.797 801.039H242.088L240.388 802.886C240.215 803.066 240.118 803.306 240.118 803.556C240.118 803.805 240.215 804.045 240.388 804.225C240.569 804.386 240.802 804.476 241.044 804.479C241.179 804.481 241.312 804.453 241.434 804.397C241.557 804.342 241.666 804.26 241.754 804.158L244.966 800.691L245.02 800.008Z" fill="white"/>
<path d="M315.418 647.151H213.014C205.547 647.151 199.494 653.204 199.494 660.671V718.473C199.494 725.94 205.547 731.993 213.014 731.993H315.418C322.885 731.993 328.938 725.94 328.938 718.473V660.671C328.938 653.204 322.885 647.151 315.418 647.151Z" fill="white"/>
<path d="M235.356 707.938C245.499 707.938 253.722 699.715 253.722 689.572C253.722 679.429 245.499 671.206 235.356 671.206C225.213 671.206 216.99 679.429 216.99 689.572C216.99 699.715 225.213 707.938 235.356 707.938Z" fill="#F66689"/>
<path fill-rule="evenodd" clip-rule="evenodd" d="M267.826 681.701C267.826 679.836 269.338 678.324 271.203 678.324H311.442C313.307 678.324 314.82 679.836 314.82 681.701C314.82 683.567 313.307 685.079 311.442 685.079H271.203C269.338 685.079 267.826 683.567 267.826 681.701Z" fill="#D2DFE6"/>
<path fill-rule="evenodd" clip-rule="evenodd" d="M267.826 697.457C267.826 695.591 269.338 694.079 271.203 694.079H297.574C299.439 694.079 300.952 695.591 300.952 697.457C300.952 699.322 299.439 700.834 297.574 700.834H271.203C269.338 700.834 267.826 699.322 267.826 697.457Z" fill="#D2DFE6"/>
<path d="M244.391 686.132C244.135 684.785 243.471 683.549 242.489 682.591C241.508 681.633 240.256 681 238.903 680.777C237.633 680.527 236.342 680.401 235.047 680.403C233.006 680.332 230.981 680.794 229.171 681.741C228.146 682.39 227.328 683.319 226.815 684.418C226.724 684.605 226.712 684.82 226.779 685.015C226.847 685.211 226.99 685.372 227.176 685.463C227.363 685.553 227.577 685.566 227.773 685.498C227.969 685.43 228.13 685.288 228.22 685.101C228.607 684.281 229.22 683.589 229.987 683.107C231.551 682.313 233.296 681.944 235.047 682.036C236.234 682.032 237.418 682.149 238.581 682.384C239.644 682.545 240.63 683.036 241.399 683.788C242.168 684.54 242.68 685.514 242.865 686.574C243.49 689.164 243.067 691.897 241.687 694.177C241.042 694.982 240.32 695.721 239.532 696.386L239.023 696.841C238.193 697.617 237.323 698.38 236.587 699.023V697.684C236.587 697.425 236.484 697.176 236.301 696.993C236.117 696.81 235.869 696.707 235.61 696.707C233.419 696.762 231.276 696.057 229.546 694.712C229.404 694.563 229.208 694.477 229.002 694.472C228.796 694.467 228.597 694.544 228.448 694.686C228.299 694.828 228.212 695.023 228.207 695.229C228.202 695.435 228.279 695.634 228.421 695.783C230.277 697.342 232.611 698.216 235.034 698.26V699.866C235.034 700.175 235.157 700.471 235.375 700.69C235.593 700.908 235.89 701.031 236.199 701.031H236.292C236.534 701.005 236.763 700.907 236.948 700.75C237.832 700 238.969 699.009 240.094 697.965L240.576 697.51C241.483 696.739 242.304 695.873 243.025 694.927C244.623 692.29 245.114 689.129 244.391 686.132V686.132Z" fill="white"/>
<path d="M231.875 692.825C231.707 693.008 231.615 693.246 231.615 693.494C231.615 693.742 231.707 693.981 231.875 694.164C232.054 694.328 232.288 694.419 232.531 694.418C232.666 694.419 232.8 694.392 232.924 694.339C233.048 694.286 233.161 694.208 233.254 694.11L236.627 690.442V690.362C236.627 690.362 236.627 690.362 236.627 690.282C236.627 690.201 236.627 690.282 236.627 690.215C236.633 690.188 236.633 690.161 236.627 690.134C236.621 690.108 236.621 690.08 236.627 690.054C236.621 690.032 236.621 690.009 236.627 689.987C236.633 689.961 236.633 689.933 236.627 689.907V689.907C236.627 689.907 236.627 689.907 236.627 689.826V689.76L233.254 686.105C233.166 686.011 233.06 685.935 232.943 685.882C232.826 685.829 232.699 685.799 232.571 685.795C232.442 685.79 232.314 685.811 232.193 685.857C232.073 685.902 231.962 685.97 231.868 686.058C231.774 686.146 231.698 686.252 231.645 686.369C231.592 686.486 231.562 686.613 231.558 686.741C231.553 686.87 231.575 686.998 231.62 687.119C231.665 687.239 231.733 687.35 231.821 687.444L233.695 689.478H227.002C226.874 689.478 226.747 689.504 226.628 689.553C226.51 689.602 226.402 689.674 226.311 689.765C226.221 689.855 226.149 689.963 226.1 690.082C226.05 690.2 226.025 690.327 226.025 690.456C226.029 690.712 226.133 690.958 226.316 691.138C226.499 691.318 226.745 691.419 227.002 691.419H233.695L231.875 692.825Z" fill="white"/>
<path d="M1032.68 640.078C1050.95 640.078 1065.77 625.263 1065.77 606.988C1065.77 588.712 1050.95 573.897 1032.68 573.897C1014.4 573.897 999.588 588.712 999.588 606.988C999.588 625.263 1014.4 640.078 1032.68 640.078Z" fill="#FA7E25"/>
<path opacity="0.7" d="M1049.69 593.009C1049.47 591.828 1048.9 590.742 1048.05 589.9C1047.19 589.057 1046.1 588.498 1044.91 588.3C1043.87 588.083 1042.82 587.973 1041.75 587.974C1040.05 587.917 1038.37 588.305 1036.87 589.098C1035.87 589.804 1035.08 590.765 1034.59 591.88C1034.09 592.996 1033.9 594.224 1034.05 595.436C1033.96 596.425 1034.08 597.422 1034.4 598.361C1034.72 599.301 1035.24 600.164 1035.91 600.893C1036.58 601.623 1037.4 602.205 1038.31 602.6C1039.22 602.996 1040.21 603.197 1041.2 603.191V603.99C1041.2 604.379 1041.35 604.752 1041.63 605.027C1041.9 605.302 1042.28 605.456 1042.67 605.456V605.456C1042.97 605.422 1043.26 605.304 1043.5 605.114C1044.23 604.462 1045.13 603.697 1045.99 602.882L1046.38 602.523C1047.12 601.88 1047.8 601.165 1048.4 600.389C1049.09 599.304 1049.56 598.094 1049.78 596.827C1050 595.561 1049.97 594.263 1049.69 593.009V593.009Z" fill="white"/>
<path d="M1027.53 608.095C1028.8 608.079 1030.04 607.688 1031.08 606.971C1032.13 606.254 1032.94 605.244 1033.42 604.066C1033.89 602.889 1034.01 601.598 1033.75 600.355C1033.49 599.112 1032.87 597.973 1031.97 597.081C1031.07 596.189 1029.92 595.584 1028.67 595.342C1027.43 595.101 1026.14 595.233 1024.97 595.722C1023.8 596.211 1022.8 597.036 1022.09 598.093C1021.39 599.149 1021.01 600.39 1021.01 601.66C1021.03 603.374 1021.73 605.011 1022.95 606.215C1024.17 607.42 1025.82 608.095 1027.53 608.095Z" fill="white"/>
<path d="M1028.54 609.545H1026.52C1024.11 609.545 1021.8 610.501 1020.1 612.203C1018.4 613.905 1017.44 616.213 1017.44 618.62V620.38C1017.44 620.942 1017.67 621.48 1018.07 621.878C1018.46 622.275 1019 622.498 1019.56 622.498H1035.5C1036.06 622.498 1036.6 622.275 1036.99 621.878C1037.39 621.48 1037.62 620.942 1037.62 620.38V618.62C1037.61 616.215 1036.65 613.909 1034.95 612.208C1033.25 610.507 1030.95 609.549 1028.54 609.545Z" fill="white"/>
<path d="M859.623 189.259V188.724C859.623 186.983 858.932 185.313 857.703 184.081C856.473 182.849 854.805 182.155 853.064 182.151H850.909C850.909 182.151 850.909 182.084 850.909 182.058C850.909 181.067 850.515 180.117 849.815 179.417C849.114 178.716 848.164 178.323 847.174 178.323C846.183 178.323 845.233 178.716 844.533 179.417C843.833 180.117 843.439 181.067 843.439 182.058V182.151H840.762C839.021 182.155 837.353 182.849 836.123 184.081C834.893 185.313 834.203 186.983 834.203 188.724V189.259C833.562 189.415 832.991 189.779 832.581 190.296C832.171 190.813 831.946 191.451 831.94 192.111V196.528C831.943 197.203 832.175 197.857 832.598 198.382C833.021 198.908 833.611 199.274 834.27 199.419V199.955C834.273 201.693 834.965 203.36 836.195 204.589C837.424 205.818 839.09 206.511 840.829 206.514H853.091C854.829 206.511 856.495 205.818 857.725 204.589C858.954 203.36 859.646 201.693 859.65 199.955V199.419C860.307 199.273 860.895 198.907 861.316 198.381C861.737 197.855 861.966 197.202 861.966 196.528V192.111C861.956 191.44 861.719 190.793 861.293 190.275C860.868 189.757 860.279 189.399 859.623 189.259V189.259ZM853.064 204.439H840.882C839.701 204.436 838.569 203.965 837.734 203.13C836.899 202.295 836.428 201.163 836.425 199.982V188.724C836.428 187.543 836.899 186.411 837.734 185.576C838.569 184.741 839.701 184.27 840.882 184.266H853.144C854.325 184.27 855.457 184.741 856.292 185.576C857.127 186.411 857.598 187.543 857.602 188.724V199.982C857.6 200.571 857.482 201.154 857.254 201.698C857.026 202.241 856.693 202.734 856.273 203.149C855.854 203.563 855.357 203.89 854.811 204.112C854.265 204.333 853.68 204.445 853.091 204.439H853.064ZM845.554 182.058C845.534 181.832 845.56 181.604 845.633 181.389C845.705 181.174 845.822 180.976 845.975 180.809C846.128 180.641 846.314 180.507 846.522 180.416C846.729 180.324 846.954 180.277 847.181 180.277C847.408 180.277 847.632 180.324 847.84 180.416C848.047 180.507 848.233 180.641 848.386 180.809C848.539 180.976 848.656 181.174 848.728 181.389C848.801 181.604 848.827 181.832 848.807 182.058C848.807 182.058 848.807 182.058 848.807 182.151H845.568C845.579 182.121 845.583 182.089 845.581 182.058H845.554ZM833.507 196.555V192.111C833.504 191.857 833.572 191.609 833.705 191.393C833.838 191.177 834.029 191.004 834.256 190.892V197.746C834.035 197.635 833.85 197.465 833.72 197.254C833.59 197.044 833.521 196.802 833.52 196.555H833.507ZM860.373 196.555C860.377 196.807 860.31 197.054 860.18 197.27C860.05 197.485 859.861 197.66 859.636 197.773V190.933C859.859 191.045 860.046 191.217 860.176 191.43C860.306 191.643 860.374 191.888 860.373 192.137V196.555Z" fill="white"/>
<path d="M847.214 189.165C846.186 189.163 845.18 189.465 844.323 190.035C843.467 190.605 842.8 191.416 842.405 192.365C842.01 193.315 841.906 194.36 842.106 195.369C842.306 196.378 842.801 197.305 843.528 198.032C844.255 198.759 845.182 199.254 846.191 199.454C847.199 199.654 848.245 199.55 849.194 199.155C850.144 198.76 850.955 198.093 851.525 197.236C852.094 196.38 852.397 195.374 852.394 194.346C852.391 192.973 851.844 191.657 850.873 190.687C849.902 189.716 848.587 189.169 847.214 189.165V189.165ZM847.214 197.96C846.499 197.963 845.799 197.753 845.202 197.357C844.606 196.962 844.141 196.398 843.865 195.738C843.59 195.078 843.516 194.351 843.654 193.649C843.792 192.947 844.135 192.302 844.64 191.795C845.145 191.288 845.789 190.943 846.491 190.802C847.192 190.661 847.919 190.732 848.581 191.005C849.242 191.279 849.807 191.742 850.205 192.336C850.603 192.931 850.815 193.63 850.815 194.346C850.815 195.302 850.436 196.219 849.761 196.897C849.086 197.574 848.17 197.957 847.214 197.96Z" fill="white"/>
<path d="M847.214 192.833C846.915 192.833 846.622 192.922 846.374 193.088C846.125 193.254 845.931 193.49 845.817 193.767C845.702 194.043 845.672 194.347 845.73 194.641C845.789 194.934 845.933 195.204 846.144 195.415C846.356 195.627 846.625 195.771 846.919 195.829C847.212 195.887 847.516 195.857 847.793 195.743C848.069 195.628 848.306 195.435 848.472 195.186C848.638 194.937 848.727 194.645 848.727 194.345C848.727 193.944 848.567 193.56 848.284 193.276C848 192.992 847.615 192.833 847.214 192.833ZM847.629 194.171C847.544 194.171 847.462 194.146 847.391 194.099C847.321 194.052 847.266 193.985 847.233 193.907C847.201 193.829 847.192 193.743 847.209 193.66C847.225 193.576 847.266 193.5 847.326 193.44C847.386 193.38 847.462 193.339 847.545 193.323C847.629 193.306 847.715 193.315 847.793 193.347C847.871 193.38 847.938 193.435 847.985 193.505C848.032 193.576 848.057 193.658 848.057 193.743C848.06 193.805 848.049 193.867 848.025 193.925C848.001 193.982 847.965 194.034 847.919 194.076C847.873 194.118 847.818 194.149 847.759 194.168C847.7 194.187 847.637 194.193 847.575 194.185L847.629 194.171Z" fill="white"/>
<path fill-rule="evenodd" clip-rule="evenodd" d="M7.37648 549.473C3.92435 549.473 1.12585 552.272 1.12585 555.724C1.12585 559.176 3.92435 561.975 7.37648 561.975C10.8286 561.975 13.6271 559.176 13.6271 555.724C13.6271 552.272 10.8286 549.473 7.37648 549.473ZM0 555.724C0 551.65 3.30256 548.347 7.37648 548.347C11.4504 548.347 14.753 551.65 14.753 555.724C14.753 559.798 11.4504 563.1 7.37648 563.1C3.30256 563.1 0 559.798 0 555.724Z" fill="#E7EEF1"/>
<g filter="url(#filter3_d_10272_1585)">
<path d="M461.533 262.803H256.407C252.717 262.803 249.726 265.781 249.726 269.456V403.197C249.726 406.871 252.717 409.85 256.407 409.85H461.533C465.223 409.85 468.215 406.871 468.215 403.197V269.456C468.215 265.781 465.223 262.803 461.533 262.803Z" fill="#F5F8F9"/>
</g>
<path fill-rule="evenodd" clip-rule="evenodd" d="M468.213 279.117H249.726V269.757C249.726 267.98 250.432 266.276 251.688 265.019C252.944 263.762 254.648 263.055 256.425 263.054H461.51C463.288 263.054 464.993 263.76 466.25 265.017C467.507 266.275 468.213 267.98 468.213 269.757V279.117Z" fill="#343C4C"/>
<path d="M263.718 268.644C264.118 268.645 264.516 268.685 264.908 268.762C265.258 268.815 265.582 268.975 265.836 269.22C266.091 269.466 266.263 269.784 266.329 270.131C266.417 270.567 266.43 271.014 266.37 271.454C266.322 271.882 266.17 272.292 265.929 272.649C265.709 272.935 265.458 273.194 265.18 273.424L265.011 273.578C264.765 273.814 264.498 274.039 264.262 274.244V273.896C264.262 273.795 264.222 273.698 264.151 273.627C264.08 273.556 263.983 273.516 263.883 273.516C263.143 273.536 262.419 273.303 261.831 272.854C261.391 272.331 261.156 271.666 261.169 270.982C261.169 270.439 261.246 269.444 262 268.998C262.532 268.731 263.125 268.609 263.718 268.644ZM263.718 268.331C263.075 268.301 262.436 268.439 261.862 268.731C261.515 268.989 261.241 269.334 261.069 269.731C260.897 270.128 260.833 270.563 260.882 270.993C260.865 271.756 261.132 272.498 261.631 273.075C262.27 273.582 263.067 273.848 263.883 273.829C263.9 273.829 263.917 273.836 263.93 273.848C263.942 273.861 263.949 273.878 263.949 273.896V274.644C263.949 274.678 263.963 274.711 263.987 274.735C264.011 274.759 264.043 274.773 264.077 274.773C264.104 274.771 264.13 274.76 264.149 274.742C264.513 274.444 264.862 274.132 265.211 273.814C265.563 273.518 265.885 273.19 266.175 272.834C266.678 272.008 266.838 271.017 266.621 270.075C266.545 269.667 266.344 269.293 266.047 269.003C265.749 268.714 265.369 268.524 264.96 268.459C264.551 268.374 264.135 268.331 263.718 268.331Z" fill="#2CC3D5"/>
<path opacity="0.5" fill-rule="evenodd" clip-rule="evenodd" d="M456.072 274.268C456.608 274.268 457.133 274.109 457.579 273.811C458.025 273.513 458.373 273.089 458.578 272.594C458.783 272.098 458.837 271.552 458.733 271.026C458.628 270.5 458.369 270.016 457.99 269.637C457.611 269.257 457.127 268.999 456.601 268.894C456.075 268.79 455.529 268.843 455.033 269.049C454.537 269.254 454.114 269.602 453.816 270.048C453.518 270.494 453.358 271.019 453.358 271.555C453.358 272.275 453.644 272.965 454.153 273.474C454.662 273.983 455.352 274.268 456.072 274.268Z" fill="#8CA0B3"/>
<path fill-rule="evenodd" clip-rule="evenodd" d="M450.438 274.945V268.165H451.026V274.945H450.438Z" fill="#738192"/>
<path d="M446.579 271.986C446.534 271.986 446.491 271.971 446.456 271.945L445.686 271.294C445.676 271.287 445.668 271.278 445.663 271.267C445.658 271.256 445.655 271.244 445.656 271.232C445.651 271.222 445.648 271.21 445.648 271.199C445.648 271.187 445.651 271.176 445.656 271.165C445.671 271.146 445.693 271.133 445.717 271.129C445.739 271.122 445.762 271.122 445.784 271.129L446.558 271.781L447.333 271.129C447.333 271.129 447.333 271.129 447.363 271.129H447.404C447.416 271.126 447.429 271.126 447.44 271.129H447.471C447.474 271.141 447.474 271.154 447.471 271.165C447.474 271.177 447.474 271.189 447.471 271.201C447.475 271.215 447.475 271.229 447.471 271.242C447.465 271.253 447.456 271.262 447.446 271.268L446.676 271.919C446.64 271.945 446.597 271.959 446.553 271.96L446.579 271.986Z" fill="#8CA0B3"/>
<path opacity="0.3" fill-rule="evenodd" clip-rule="evenodd" d="M271.389 271.555C271.389 270.571 272.186 269.773 273.17 269.773H283.228C284.212 269.773 285.01 270.571 285.01 271.555C285.01 272.539 284.212 273.337 283.228 273.337H273.17C272.186 273.337 271.389 272.539 271.389 271.555Z" fill="#8CA0B3"/>
<path opacity="0.3" fill-rule="evenodd" clip-rule="evenodd" d="M430.037 271.555C430.037 270.571 430.834 269.773 431.818 269.773H441.876C442.86 269.773 443.658 270.571 443.658 271.555C443.658 272.539 442.86 273.337 441.876 273.337H431.818C430.834 273.337 430.037 272.539 430.037 271.555Z" fill="#8CA0B3"/>
<path opacity="0.3" fill-rule="evenodd" clip-rule="evenodd" d="M288.144 271.555C288.144 270.571 288.942 269.773 289.926 269.773H302.661C303.645 269.773 304.442 270.571 304.442 271.555C304.442 272.539 303.645 273.337 302.661 273.337H289.926C288.942 273.337 288.144 272.539 288.144 271.555Z" fill="#8CA0B3"/>
<path d="M400.987 323.682L400.987 365.085C400.987 368.671 403.894 371.577 407.48 371.577L441.052 371.577C444.638 371.577 447.544 368.671 447.544 365.085L447.544 323.682C447.544 320.096 444.638 317.189 441.052 317.189L407.48 317.189C403.894 317.189 400.987 320.096 400.987 323.682Z" fill="white"/>
<path d="M424.253 345.635C429.095 345.635 433.02 341.709 433.02 336.867C433.02 332.025 429.095 328.099 424.253 328.099C419.41 328.099 415.485 332.025 415.485 336.867C415.485 341.709 419.41 345.635 424.253 345.635Z" fill="#B97CE8"/>
<path fill-rule="evenodd" clip-rule="evenodd" d="M412.403 353.144C412.403 351.901 413.411 350.893 414.655 350.893H433.864C435.107 350.893 436.116 351.901 436.116 353.144C436.116 354.388 435.107 355.396 433.864 355.396H414.655C413.411 355.396 412.403 354.388 412.403 353.144Z" fill="#D2DFE6"/>
<path fill-rule="evenodd" clip-rule="evenodd" d="M416.553 360.667C416.553 359.89 417.183 359.26 417.961 359.26H430.544C431.321 359.26 431.951 359.89 431.951 360.667C431.951 361.445 431.321 362.075 430.544 362.075H417.961C417.183 362.075 416.553 361.445 416.553 360.667Z" fill="#D2DFE6"/>
<path d="M335.153 323.682L335.153 365.085C335.153 368.671 338.06 371.577 341.645 371.577L375.218 371.577C378.803 371.577 381.71 368.671 381.71 365.085L381.71 323.682C381.71 320.096 378.803 317.189 375.218 317.189L341.645 317.189C338.06 317.189 335.153 320.096 335.153 323.682Z" fill="white"/>
<path d="M358.418 345.635C363.26 345.635 367.186 341.709 367.186 336.867C367.186 332.025 363.26 328.099 358.418 328.099C353.576 328.099 349.65 332.025 349.65 336.867C349.65 341.709 353.576 345.635 358.418 345.635Z" fill="#BED42B"/>
<path fill-rule="evenodd" clip-rule="evenodd" d="M346.569 353.144C346.569 351.901 347.577 350.893 348.82 350.893H368.029C369.273 350.893 370.281 351.901 370.281 353.144C370.281 354.388 369.273 355.396 368.029 355.396H348.82C347.577 355.396 346.569 354.388 346.569 353.144Z" fill="#D2DFE6"/>
<path fill-rule="evenodd" clip-rule="evenodd" d="M350.719 360.667C350.719 359.89 351.349 359.26 352.126 359.26H364.709C365.486 359.26 366.116 359.89 366.116 360.667C366.116 361.445 365.486 362.075 364.709 362.075H352.126C351.349 362.075 350.719 361.445 350.719 360.667Z" fill="#D2DFE6"/>
<path d="M270.371 323.682L270.371 365.085C270.371 368.671 273.277 371.577 276.863 371.577L310.435 371.577C314.021 371.577 316.928 368.671 316.928 365.085L316.928 323.682C316.928 320.096 314.021 317.189 310.435 317.189L276.863 317.189C273.277 317.189 270.371 320.096 270.371 323.682Z" fill="white"/>
<path d="M293.636 345.635C298.478 345.635 302.404 341.709 302.404 336.867C302.404 332.025 298.478 328.099 293.636 328.099C288.793 328.099 284.868 332.025 284.868 336.867C284.868 341.709 288.793 345.635 293.636 345.635Z" fill="#2CC3D5"/>
<path fill-rule="evenodd" clip-rule="evenodd" d="M281.786 353.144C281.786 351.901 282.794 350.893 284.038 350.893H303.247C304.49 350.893 305.499 351.901 305.499 353.144C305.499 354.388 304.49 355.396 303.247 355.396H284.038C282.794 355.396 281.786 354.388 281.786 353.144Z" fill="#D2DFE6"/>
<path fill-rule="evenodd" clip-rule="evenodd" d="M285.936 360.667C285.936 359.89 286.566 359.26 287.344 359.26H299.927C300.704 359.26 301.334 359.89 301.334 360.667C301.334 361.445 300.704 362.075 299.927 362.075H287.344C286.566 362.075 285.936 361.445 285.936 360.667Z" fill="#D2DFE6"/>
<g filter="url(#filter4_d_10272_1585)">
<path d="M739.35 262.803H534.223C530.533 262.803 527.542 265.781 527.542 269.456V403.197C527.542 406.871 530.533 409.85 534.223 409.85H739.35C743.04 409.85 746.031 406.871 746.031 403.197V269.456C746.031 265.781 743.04 262.803 739.35 262.803Z" fill="#F5F8F9"/>
</g>
<path fill-rule="evenodd" clip-rule="evenodd" d="M746.029 279.117H527.543V269.757C527.543 267.98 528.248 266.276 529.504 265.019C530.76 263.762 532.464 263.055 534.241 263.054H739.326C741.104 263.054 742.809 263.76 744.066 265.017C745.323 266.275 746.029 267.98 746.029 269.757V279.117Z" fill="#343C4C"/>
<path d="M541.535 268.644C541.934 268.645 542.333 268.685 542.725 268.762C543.074 268.815 543.398 268.975 543.653 269.22C543.907 269.466 544.079 269.784 544.145 270.131C544.233 270.567 544.247 271.014 544.186 271.454C544.138 271.882 543.987 272.292 543.745 272.649C543.525 272.935 543.274 273.194 542.996 273.424L542.827 273.578C542.581 273.814 542.314 274.039 542.078 274.244V273.896C542.078 273.795 542.038 273.698 541.967 273.627C541.896 273.556 541.799 273.516 541.699 273.516C540.959 273.536 540.235 273.303 539.647 272.854C539.208 272.331 538.973 271.666 538.986 270.982C538.986 270.439 539.063 269.444 539.817 268.998C540.348 268.731 540.941 268.609 541.535 268.644ZM541.535 268.331C540.892 268.301 540.252 268.439 539.678 268.731C539.331 268.989 539.058 269.334 538.886 269.731C538.714 270.128 538.649 270.563 538.698 270.993C538.681 271.756 538.948 272.498 539.447 273.075C540.087 273.582 540.883 273.848 541.699 273.829C541.717 273.829 541.733 273.836 541.746 273.848C541.758 273.861 541.766 273.878 541.766 273.896V274.644C541.766 274.678 541.779 274.711 541.803 274.735C541.827 274.759 541.86 274.773 541.894 274.773C541.921 274.771 541.946 274.76 541.966 274.742C542.33 274.444 542.678 274.132 543.027 273.814C543.379 273.518 543.702 273.19 543.991 272.834C544.494 272.008 544.654 271.017 544.438 270.075C544.361 269.667 544.16 269.293 543.863 269.003C543.565 268.714 543.186 268.524 542.776 268.459C542.368 268.374 541.952 268.331 541.535 268.331Z" fill="#2CC3D5"/>
<path opacity="0.5" fill-rule="evenodd" clip-rule="evenodd" d="M733.888 274.268C734.425 274.268 734.949 274.109 735.395 273.811C735.841 273.513 736.189 273.089 736.395 272.594C736.6 272.098 736.654 271.552 736.549 271.026C736.444 270.5 736.186 270.016 735.806 269.637C735.427 269.257 734.944 268.999 734.417 268.894C733.891 268.79 733.345 268.843 732.85 269.049C732.354 269.254 731.93 269.602 731.632 270.048C731.334 270.494 731.175 271.019 731.175 271.555C731.175 272.275 731.461 272.965 731.969 273.474C732.478 273.983 733.168 274.268 733.888 274.268Z" fill="#8CA0B3"/>
<path fill-rule="evenodd" clip-rule="evenodd" d="M728.255 274.945V268.165H728.843V274.945H728.255Z" fill="#738192"/>
<path d="M724.395 271.986C724.351 271.986 724.307 271.971 724.272 271.945L723.502 271.294C723.493 271.287 723.485 271.278 723.479 271.267C723.474 271.256 723.471 271.244 723.472 271.232C723.467 271.222 723.464 271.21 723.464 271.199C723.464 271.187 723.467 271.176 723.472 271.165C723.487 271.146 723.509 271.133 723.533 271.129C723.555 271.122 723.578 271.122 723.6 271.129L724.374 271.781L725.149 271.129C725.149 271.129 725.149 271.129 725.18 271.129H725.221C725.232 271.126 725.245 271.126 725.257 271.129H725.287C725.29 271.141 725.29 271.154 725.287 271.165C725.29 271.177 725.29 271.189 725.287 271.201C725.292 271.215 725.292 271.229 725.287 271.242C725.282 271.253 725.273 271.262 725.262 271.268L724.492 271.919C724.456 271.945 724.413 271.959 724.369 271.96L724.395 271.986Z" fill="#8CA0B3"/>
<path opacity="0.3" fill-rule="evenodd" clip-rule="evenodd" d="M549.205 271.555C549.205 270.571 550.003 269.773 550.987 269.773H561.044C562.028 269.773 562.826 270.571 562.826 271.555C562.826 272.539 562.028 273.337 561.044 273.337H550.987C550.003 273.337 549.205 272.539 549.205 271.555Z" fill="#8CA0B3"/>
<path opacity="0.3" fill-rule="evenodd" clip-rule="evenodd" d="M707.853 271.555C707.853 270.571 708.651 269.773 709.635 269.773H719.693C720.677 269.773 721.474 270.571 721.474 271.555C721.474 272.539 720.677 273.337 719.693 273.337H709.635C708.651 273.337 707.853 272.539 707.853 271.555Z" fill="#8CA0B3"/>
<path opacity="0.3" fill-rule="evenodd" clip-rule="evenodd" d="M565.96 271.555C565.96 270.571 566.758 269.773 567.742 269.773H580.477C581.461 269.773 582.258 270.571 582.258 271.555C582.258 272.539 581.461 273.337 580.477 273.337H567.742C566.758 273.337 565.96 272.539 565.96 271.555Z" fill="#8CA0B3"/>
<path d="M678.804 323.682L678.804 365.085C678.804 368.671 681.711 371.577 685.297 371.577L718.869 371.577C722.455 371.577 725.362 368.671 725.362 365.085L725.362 323.682C725.362 320.096 722.455 317.189 718.869 317.189L685.297 317.189C681.711 317.189 678.804 320.096 678.804 323.682Z" fill="white"/>
<path d="M702.069 345.635C706.912 345.635 710.837 341.709 710.837 336.867C710.837 332.025 706.912 328.099 702.069 328.099C697.227 328.099 693.302 332.025 693.302 336.867C693.302 341.709 697.227 345.635 702.069 345.635Z" fill="#F1E733"/>
<path fill-rule="evenodd" clip-rule="evenodd" d="M690.22 353.144C690.22 351.901 691.228 350.893 692.472 350.893H711.681C712.924 350.893 713.933 351.901 713.933 353.144C713.933 354.388 712.924 355.396 711.681 355.396H692.472C691.228 355.396 690.22 354.388 690.22 353.144Z" fill="#D2DFE6"/>
<path fill-rule="evenodd" clip-rule="evenodd" d="M694.37 360.667C694.37 359.89 695 359.26 695.777 359.26H708.36C709.138 359.26 709.768 359.89 709.768 360.667C709.768 361.445 709.138 362.075 708.36 362.075H695.777C695 362.075 694.37 361.445 694.37 360.667Z" fill="#D2DFE6"/>
<path d="M612.969 323.682L612.969 365.085C612.969 368.671 615.876 371.577 619.462 371.577L653.034 371.577C656.62 371.577 659.526 368.671 659.526 365.085L659.526 323.682C659.526 320.096 656.62 317.189 653.034 317.189L619.462 317.189C615.876 317.189 612.969 320.096 612.969 323.682Z" fill="white"/>
<path d="M636.234 345.635C641.077 345.635 645.002 341.709 645.002 336.867C645.002 332.025 641.077 328.099 636.234 328.099C631.392 328.099 627.466 332.025 627.466 336.867C627.466 341.709 631.392 345.635 636.234 345.635Z" fill="#FF7B80"/>
<path fill-rule="evenodd" clip-rule="evenodd" d="M624.385 353.144C624.385 351.901 625.393 350.893 626.636 350.893H645.846C647.089 350.893 648.097 351.901 648.097 353.144C648.097 354.388 647.089 355.396 645.846 355.396H626.636C625.393 355.396 624.385 354.388 624.385 353.144Z" fill="#D2DFE6"/>
<path fill-rule="evenodd" clip-rule="evenodd" d="M628.535 360.667C628.535 359.89 629.165 359.26 629.942 359.26H642.525C643.303 359.26 643.933 359.89 643.933 360.667C643.933 361.445 643.303 362.075 642.525 362.075H629.942C629.165 362.075 628.535 361.445 628.535 360.667Z" fill="#D2DFE6"/>
<path d="M548.187 323.682L548.187 365.085C548.187 368.671 551.094 371.577 554.679 371.577L588.252 371.577C591.837 371.577 594.744 368.671 594.744 365.085L594.744 323.682C594.744 320.096 591.837 317.189 588.252 317.189L554.679 317.189C551.094 317.189 548.187 320.096 548.187 323.682Z" fill="white"/>
<path d="M571.452 345.635C576.295 345.635 580.22 341.709 580.22 336.867C580.22 332.025 576.295 328.099 571.452 328.099C566.61 328.099 562.684 332.025 562.684 336.867C562.684 341.709 566.61 345.635 571.452 345.635Z" fill="#55CFFF"/>
<path fill-rule="evenodd" clip-rule="evenodd" d="M559.603 353.144C559.603 351.901 560.611 350.893 561.854 350.893H581.063C582.307 350.893 583.315 351.901 583.315 353.144C583.315 354.388 582.307 355.396 581.063 355.396H561.854C560.611 355.396 559.603 354.388 559.603 353.144Z" fill="#D2DFE6"/>
<path fill-rule="evenodd" clip-rule="evenodd" d="M563.753 360.667C563.753 359.89 564.383 359.26 565.16 359.26H577.743C578.52 359.26 579.151 359.89 579.151 360.667C579.151 361.445 578.52 362.075 577.743 362.075H565.16C564.383 362.075 563.753 361.445 563.753 360.667Z" fill="#D2DFE6"/>
<path fill-rule="evenodd" clip-rule="evenodd" d="M779.103 476.859C781.874 480.374 781.272 485.47 777.757 488.241L725.938 529.098C725.782 529.222 725.621 529.339 725.456 529.45L720.92 522.734C725.456 529.45 725.458 529.449 725.461 529.447L725.465 529.445L725.472 529.44L725.484 529.432L725.495 529.424C725.497 529.423 725.488 529.429 725.47 529.442C725.433 529.468 725.358 529.522 725.251 529.602C725.036 529.763 724.703 530.022 724.304 530.363C723.479 531.069 722.506 532.012 721.698 533.066C719.893 535.421 720.275 536.255 720.495 536.664L720.626 536.908C723.228 541.747 730.148 554.618 736.12 567.952C739.151 574.718 742.028 581.799 743.97 588.124C744.941 591.285 745.729 594.419 746.164 597.333C746.58 600.128 746.769 603.322 746.079 606.329C745.079 610.692 740.731 613.418 736.368 612.418C732.005 611.417 729.279 607.07 730.279 602.707C730.279 602.707 730.293 602.643 730.306 602.504C730.319 602.362 730.329 602.161 730.327 601.895C730.322 601.353 730.267 600.635 730.131 599.724C729.857 597.885 729.305 595.588 728.474 592.882C726.813 587.473 724.239 581.08 721.327 574.578C715.596 561.784 708.901 549.332 706.322 544.533L706.217 544.339C701.445 535.461 705.609 527.411 708.833 523.204C710.541 520.977 712.395 519.219 713.768 518.045C714.468 517.446 715.077 516.97 715.529 516.631C715.753 516.463 715.94 516.328 716.084 516.226L767.72 475.512C771.235 472.741 776.331 473.344 779.103 476.859Z" fill="#CB9685"/>
<path fill-rule="evenodd" clip-rule="evenodd" d="M853.095 637.462C857.569 637.34 861.296 640.868 861.418 645.343L868.792 915.457C868.914 919.932 865.386 923.658 860.911 923.78C856.437 923.902 852.71 920.374 852.588 915.899L845.214 645.785C845.092 641.311 848.62 637.584 853.095 637.462Z" fill="#CB9685"/>
<path fill-rule="evenodd" clip-rule="evenodd" d="M789.432 647.386C793.907 647.487 797.454 651.196 797.353 655.671L791.554 914.196C791.453 918.671 787.744 922.217 783.269 922.117C778.794 922.016 775.247 918.307 775.348 913.832L781.147 655.307C781.248 650.832 784.957 647.286 789.432 647.386Z" fill="#CB9685"/>
<path d="M802.085 928.613V928.723C801.916 936.446 799.016 937.193 783.431 937.193C768.304 937.193 765.015 935.927 764.816 928.673V928.613C764.816 928.324 764.866 928.055 764.906 927.796C765.523 933.775 769.35 934.901 783.431 934.901C798 934.901 801.478 934.243 802.006 927.856C802.046 928.095 802.065 928.354 802.085 928.613Z" fill="#DE5C61"/>
<path d="M802.085 926.321V926.421C802.085 926.929 802.085 927.417 802.006 927.856C801.478 934.243 798.02 934.901 783.431 934.901C769.35 934.901 765.494 933.795 764.906 927.796C764.906 927.347 764.836 926.869 764.816 926.371C764.945 923.84 766.052 922.225 768.284 920.163C770.516 918.1 769.34 911.124 775.518 910.945H791.383C797.571 911.124 796.256 917.99 798.618 920.163C800.979 922.335 801.956 923.79 802.085 926.321Z" fill="#FF7B80"/>
<path d="M879.325 928.613V928.723C879.156 936.446 876.256 937.193 860.67 937.193C845.543 937.193 842.245 935.927 842.056 928.673V928.613C842.069 928.339 842.099 928.066 842.145 927.796C842.753 933.775 846.58 934.901 860.67 934.901C875.239 934.901 878.717 934.243 879.245 927.856C879.275 928.095 879.305 928.354 879.325 928.613Z" fill="#DE5C61"/>
<path d="M879.325 926.321V926.421C879.325 926.929 879.325 927.417 879.245 927.856C878.717 934.243 875.259 934.901 860.67 934.901C846.58 934.901 842.733 933.795 842.145 927.796C842.096 927.347 842.076 926.869 842.056 926.371C842.185 923.84 843.291 922.225 845.524 920.163C847.756 918.1 846.57 911.124 852.758 910.945H868.623C874.801 911.124 873.496 917.99 875.857 920.163C878.219 922.335 879.196 923.79 879.325 926.321Z" fill="#FF7B80"/>
<path d="M871.971 654.762L871.891 897.153C871.891 898.997 866.141 900.491 859.046 900.491H858.657C851.562 900.491 845.822 898.997 845.822 897.153L842.912 772.729L839.843 657.612C836.684 658.359 829.459 658.658 822.185 658.608C814.91 658.558 807.686 658.379 804.527 657.612L801.418 772.729L798.518 897.153C798.518 898.997 792.768 900.491 785.673 900.491H785.254C778.169 900.491 772.409 898.997 772.409 897.153L772.339 654.762C770.668 648.552 769.739 642.167 769.569 635.738C769.569 634.692 769.569 633.676 769.569 632.689C769.539 626.039 770.472 619.42 772.339 613.038C772.339 611.045 776.883 609.171 784.377 607.746C784.955 607.637 785.553 607.527 786.171 607.427C797.914 605.651 809.78 604.808 821.657 604.906H822.653C849.828 604.906 871.961 608.583 871.971 613.038C871.98 613.038 878.239 631.423 871.971 654.762Z" fill="#1A2437"/>
<path opacity="0.5" fill-rule="evenodd" clip-rule="evenodd" d="M815.197 617.28H821.677C823.573 617.32 825.43 617.31 827.252 617.29L827.748 617.285V633.954C827.748 637.923 825.011 641.281 821.468 641.281C817.923 641.281 815.197 637.921 815.197 633.954V617.28ZM816.179 618.262V633.954C816.179 637.541 818.614 640.3 821.468 640.3C824.322 640.3 826.767 637.54 826.767 633.954V618.277C825.101 618.293 823.398 618.298 821.662 618.262H816.179Z" fill="#3D4E6C"/>
<path d="M784.348 607.746C783.351 607.925 782.474 608.115 781.607 608.314C775.768 609.649 772.32 611.304 772.31 613.038C770.327 619.869 769.393 626.962 769.54 634.074C770.239 634.272 770.951 634.418 771.672 634.512C774.937 634.942 778.253 634.326 781.145 632.751C784.036 631.176 786.354 628.724 787.763 625.748C789.172 622.772 789.601 619.426 788.987 616.191C788.373 612.956 786.749 609.999 784.348 607.746V607.746Z" fill="#121927"/>
<path opacity="0.5" d="M777.94 652.829C777.472 651.075 777.053 649.281 776.705 647.497C775.829 643.07 775.325 638.576 775.2 634.064C775.195 633.933 775.139 633.809 775.044 633.718C774.949 633.627 774.823 633.576 774.692 633.576C774.626 633.577 774.562 633.592 774.502 633.618C774.442 633.644 774.388 633.682 774.342 633.729C774.297 633.776 774.261 633.832 774.237 633.893C774.214 633.954 774.202 634.019 774.203 634.084C774.332 638.656 774.839 643.209 775.718 647.697C776.077 649.47 776.485 651.264 776.964 653.028L774.183 895.35C774.182 895.415 774.194 895.48 774.218 895.541C774.241 895.602 774.277 895.658 774.322 895.705C774.368 895.752 774.422 895.79 774.482 895.816C774.542 895.842 774.606 895.856 774.672 895.858V895.858C774.802 895.858 774.927 895.807 775.021 895.715C775.114 895.624 775.167 895.5 775.17 895.369L777.94 652.968C777.945 652.922 777.945 652.875 777.94 652.829V652.829Z" fill="#3D4E6C"/>
<path d="M790.606 621.279C790.323 623.504 789.604 625.651 788.488 627.597C787.373 629.543 785.883 631.249 784.106 632.616C782.329 633.984 780.299 634.987 778.132 635.568C775.966 636.148 773.706 636.294 771.483 635.998L770.955 635.928L769.56 635.739C769.56 634.692 769.56 633.676 769.56 632.689C770.038 632.799 770.805 632.889 771.343 632.958L771.891 633.028C773.723 633.269 775.584 633.146 777.368 632.666C779.153 632.187 780.825 631.36 782.289 630.234C783.753 629.107 784.981 627.703 785.902 626.102C786.823 624.5 787.419 622.733 787.656 620.901C787.776 619.814 787.776 618.718 787.656 617.632C788.653 617.752 789.649 617.871 790.646 617.981C790.737 619.079 790.723 620.183 790.606 621.279V621.279Z" fill="#26334B"/>
<path d="M859.704 607.746C860.7 607.925 861.577 608.115 862.444 608.314C868.284 609.649 871.732 611.304 871.741 613.038C873.724 619.869 874.658 626.962 874.512 634.074C873.813 634.272 873.1 634.418 872.379 634.512C869.115 634.942 865.798 634.326 862.907 632.751C860.015 631.176 857.698 628.724 856.289 625.748C854.879 622.772 854.451 619.426 855.064 616.191C855.678 612.956 857.302 609.999 859.704 607.746V607.746Z" fill="#121927"/>
<path opacity="0.5" d="M866.131 652.828C866.609 651.075 867.018 649.281 867.377 647.497C868.244 643.068 868.744 638.575 868.871 634.064C868.877 633.931 868.934 633.805 869.031 633.714C869.128 633.623 869.256 633.573 869.39 633.576C869.52 633.581 869.643 633.637 869.733 633.732C869.822 633.827 869.871 633.954 869.868 634.084C869.739 638.656 869.232 643.208 868.353 647.696C868.004 649.47 867.586 651.264 867.118 653.028L869.868 895.349C869.869 895.415 869.858 895.48 869.834 895.541C869.81 895.602 869.774 895.657 869.729 895.705C869.684 895.752 869.63 895.79 869.57 895.816C869.51 895.842 869.445 895.856 869.38 895.858C869.25 895.855 869.126 895.803 869.033 895.712C868.941 895.622 868.886 895.499 868.881 895.369L866.131 652.968C866.121 652.922 866.121 652.874 866.131 652.828V652.828Z" fill="#3D4E6C"/>
<path d="M853.446 621.279C853.728 623.508 854.449 625.659 855.567 627.607C856.685 629.556 858.178 631.264 859.96 632.632C861.741 634.001 863.776 635.003 865.948 635.58C868.119 636.158 870.382 636.3 872.609 635.998L873.137 635.928L874.532 635.739C874.532 634.692 874.532 633.676 874.532 632.689C874.054 632.799 873.286 632.889 872.748 632.958L872.2 633.028C870.368 633.269 868.507 633.146 866.723 632.666C864.939 632.187 863.267 631.36 861.803 630.234C860.338 629.107 859.111 627.703 858.19 626.102C857.269 624.5 856.672 622.733 856.435 620.901C856.299 619.816 856.283 618.72 856.385 617.632C855.389 617.752 854.392 617.871 853.396 617.981C853.308 619.079 853.325 620.184 853.446 621.279V621.279Z" fill="#26334B"/>
<path d="M871.891 612.938C871.925 612.655 871.905 612.367 871.831 612.091L870.835 609.391C868.473 602.963 862.753 586.71 862.584 579.645C862.275 567.607 864.028 546.979 865.065 540.054C863.122 541.05 861.238 542.505 859.215 542.505H786.181C784.188 542.505 782.075 541.319 780.142 540.293C781.139 547.209 782.384 567.607 782.075 579.645C781.896 586.71 776.186 602.963 773.824 609.391L772.828 612.091C772.754 612.367 772.734 612.655 772.768 612.938V612.938C772.768 616.526 794.901 619.436 822.344 619.476C849.788 619.515 871.921 616.486 871.921 612.938C871.901 612.968 871.891 612.948 871.891 612.938Z" fill="#2CC3D5"/>
<path fill-rule="evenodd" clip-rule="evenodd" d="M855.634 472.711C858.825 469.572 863.957 469.614 867.096 472.805L861.318 478.489C867.096 472.805 867.097 472.806 867.098 472.807L867.142 472.853L867.255 472.968C867.353 473.068 867.493 473.212 867.673 473.399C868.033 473.772 868.555 474.316 869.215 475.013C870.534 476.408 872.409 478.422 874.66 480.922C879.153 485.914 885.177 492.889 891.268 500.79C897.34 508.665 903.594 517.61 908.466 526.533C913.242 535.279 917.146 544.813 917.632 553.68C918.161 563.327 914.235 571.541 908.949 578.054C903.709 584.51 896.801 589.736 890.269 593.773C883.681 597.846 877.107 600.934 872.221 602.995C869.765 604.032 867.705 604.821 866.243 605.357C865.512 605.626 864.928 605.831 864.517 605.973C864.312 606.043 864.149 606.098 864.033 606.137C863.975 606.157 863.928 606.172 863.894 606.183L863.851 606.198L863.83 606.204C863.828 606.205 863.826 606.206 861.414 598.794L863.826 606.206C859.569 607.591 854.996 605.263 853.611 601.006C852.226 596.751 854.552 592.179 858.806 590.793C858.807 590.792 858.809 590.792 858.81 590.791L858.888 590.765C858.96 590.741 859.077 590.702 859.236 590.647C859.553 590.538 860.037 590.368 860.663 590.138C861.917 589.678 863.733 588.983 865.919 588.061C870.315 586.206 876.086 583.484 881.746 579.985C887.463 576.451 892.706 572.345 896.363 567.839C899.974 563.389 901.69 559.011 901.446 554.567C901.16 549.345 898.65 542.378 894.239 534.301C889.925 526.4 884.221 518.198 878.43 510.687C872.66 503.202 866.918 496.551 862.611 491.766C860.461 489.377 858.677 487.462 857.438 486.152C856.819 485.497 856.336 484.994 856.012 484.658C855.85 484.491 855.728 484.365 855.648 484.283L855.561 484.194L855.54 484.172C855.539 484.172 855.539 484.172 855.539 484.171C852.401 480.98 852.443 475.849 855.634 472.711Z" fill="#CB9685"/>
<path fill-rule="evenodd" clip-rule="evenodd" d="M867.851 469.143C866.164 467.862 862.649 465.447 858.173 465.637C852.978 465.857 848.945 470.247 849.166 475.442C849.352 479.827 852.508 483.383 856.612 484.253C857.341 484.832 858.458 485.891 859.971 487.593C863.172 491.192 867.193 496.575 871.785 503.288C880.923 516.646 891.606 534.207 901.425 550.695C904.085 555.163 909.863 556.628 914.33 553.968C918.798 551.307 920.263 545.529 917.603 541.062C907.785 524.574 896.833 506.555 887.326 492.657C882.596 485.742 878.043 479.579 874.041 475.08C872.06 472.852 869.967 470.75 867.851 469.143ZM856.009 483.834C856.01 483.841 856.075 483.885 856.199 483.947C856.069 483.859 856.007 483.828 856.009 483.834Z" fill="#2CC3D5"/>
<path fill-rule="evenodd" clip-rule="evenodd" d="M797.422 473.094C797.87 478.047 794.217 482.426 789.264 482.874C789.332 482.867 789.321 482.871 789.222 482.903C788.941 482.994 787.954 483.316 786.063 484.296C783.799 485.471 780.981 487.191 777.729 489.374C771.242 493.728 763.624 499.516 756.261 505.385C748.926 511.231 741.972 517.055 736.844 521.425C734.283 523.607 732.183 525.422 730.727 526.688C729.999 527.321 729.432 527.817 729.049 528.152C728.857 528.32 728.712 528.448 728.615 528.533L728.474 528.657C724.746 531.949 719.055 531.595 715.763 527.867C712.471 524.139 712.825 518.448 716.553 515.156L722.514 521.907C716.553 515.156 716.554 515.155 716.554 515.155L716.717 515.011C716.822 514.919 716.976 514.784 717.176 514.608C717.577 514.258 718.162 513.746 718.909 513.096C720.404 511.796 722.55 509.942 725.163 507.716C730.383 503.267 737.496 497.309 745.035 491.301C752.545 485.315 760.605 479.176 767.691 474.419C771.225 472.048 774.667 469.918 777.771 468.308C780.583 466.85 784.157 465.251 787.642 464.936C792.595 464.488 796.974 468.14 797.422 473.094Z" fill="#2CC3D5"/>
<path fill-rule="evenodd" clip-rule="evenodd" d="M851.209 467.978C854.483 464.233 860.172 463.851 863.917 467.124L857.99 473.905" fill="#2CC3D5"/>
<path opacity="0.3" d="M778.279 490.457L781.059 481.877C781.059 481.877 767.815 493.965 762.793 500.91L762.215 501.907L778.279 490.457Z" fill="#2498A8"/>
<path d="M856.316 543.631C856.316 543.631 848.184 543.9 839.714 543.9C839.714 543.9 858.458 544.049 860.79 553.337C860.969 554.224 861.149 555.13 861.318 556.057C862.126 559.886 862.603 563.776 862.743 567.686L865.075 539.964C862.534 541.907 859.136 543.631 856.316 543.631Z" fill="#28ADBF"/>
<path opacity="0.5" d="M864.855 484.956C864.855 484.956 878.428 506.312 880.64 514.314L881.128 515.858L868.393 499.665L864.855 484.956Z" fill="#2498A8"/>
<path d="M782.872 779.39L781.974 779.08C781.857 779.039 781.732 779.023 781.609 779.034C781.486 779.045 781.366 779.082 781.258 779.144C781.15 779.205 781.057 779.288 780.984 779.389C780.911 779.489 780.861 779.604 780.836 779.725L779.215 787.412C779.186 787.567 779.199 787.727 779.253 787.875C779.307 788.024 779.399 788.155 779.522 788.255C779.644 788.355 779.791 788.42 779.947 788.443C780.103 788.466 780.262 788.447 780.409 788.387L790.918 783.286C791.126 783.185 791.366 783.171 791.585 783.246C791.804 783.322 791.984 783.481 792.086 783.688L793.34 786.254L794.79 778.518C794.823 778.362 794.813 778.2 794.76 778.05C794.707 777.9 794.614 777.767 794.491 777.666C794.368 777.565 794.219 777.501 794.061 777.479C793.904 777.457 793.743 777.479 793.597 777.542V777.542C793.48 777.583 793.355 777.598 793.232 777.586C793.108 777.574 792.989 777.536 792.881 777.474C792.774 777.413 792.681 777.328 792.609 777.228C792.537 777.127 792.487 777.012 792.463 776.89L791.098 770.262C791.063 770.089 790.978 769.931 790.852 769.808C790.727 769.685 790.568 769.602 790.395 769.571C790.222 769.539 790.043 769.561 789.883 769.632C789.722 769.703 789.586 769.821 789.493 769.97L783.9 779.028C783.794 779.196 783.636 779.322 783.449 779.388C783.262 779.454 783.059 779.455 782.872 779.39V779.39Z" fill="#CB9685"/>
<path d="M861.023 776.588L861.972 776.617C862.096 776.62 862.218 776.598 862.333 776.551C862.447 776.505 862.55 776.434 862.635 776.345C862.72 776.255 862.785 776.149 862.827 776.033C862.868 775.916 862.884 775.792 862.874 775.669L862.075 767.866C862.058 767.703 861.996 767.547 861.895 767.418C861.795 767.289 861.66 767.19 861.506 767.133C861.352 767.077 861.186 767.064 861.025 767.097C860.865 767.13 860.717 767.208 860.598 767.321L852.203 775.352C852.033 775.51 851.809 775.595 851.577 775.591C851.345 775.587 851.124 775.494 850.96 775.33L848.995 773.266L849.925 781.014C849.941 781.167 849.997 781.313 850.088 781.438C850.178 781.562 850.301 781.66 850.442 781.721C850.583 781.783 850.738 781.805 850.891 781.787C851.044 781.769 851.189 781.71 851.312 781.617V781.617C851.412 781.542 851.527 781.489 851.649 781.462C851.771 781.435 851.898 781.435 852.021 781.461C852.143 781.487 852.258 781.54 852.359 781.614C852.46 781.688 852.543 781.784 852.604 781.893L855.905 787.788C855.989 787.942 856.118 788.066 856.275 788.145C856.431 788.224 856.607 788.255 856.781 788.233C856.955 788.212 857.118 788.138 857.25 788.023C857.381 787.907 857.475 787.755 857.52 787.585L860.169 777.262C860.216 777.071 860.326 776.901 860.48 776.779C860.635 776.657 860.826 776.59 861.023 776.588V776.588Z" fill="#CB9685"/>
<path d="M823.55 542.186L780.142 540.292L782.135 575.738C783.072 553.656 823.55 542.186 823.55 542.186Z" fill="#28ADBF" fill-opacity="0.6"/>
<path d="M872.29 516.087C868.742 500.871 860.082 465.265 860.082 465.265C860.082 463.521 849.48 462.904 825.693 462.435V462.316L822.235 462.365L818.797 462.286V462.405C795.01 462.874 784.397 463.491 784.397 465.235C784.397 465.235 775.748 500.871 772.2 516.057C768.782 530.716 778.867 543.661 788.443 543.661H856.066C865.633 543.691 875.708 530.746 872.29 516.087Z" fill="#2CC3D5"/>
<path d="M820.826 359.921C822.36 359.642 839.132 346.338 853.99 363.239C864.503 375.197 854.886 383.1 863.885 391.341C871.857 398.655 882.938 417.938 867.801 433.902C860.706 441.386 879.231 470.444 841.573 457.12C817.657 448.64 815.664 453.981 815.664 453.981L820.826 359.921Z" fill="#2C2A46"/>
<path d="M832.505 364.365C832.505 364.365 833.312 357.3 822.181 352.925C811.05 348.551 784.234 354.31 784.752 377.33C785.27 400.349 760.736 401.396 767.353 418.705C773.97 436.014 755.614 438.266 772.734 452.287C789.854 466.308 819.371 462.611 818.962 438.555C818.554 414.5 832.505 364.365 832.505 364.365Z" fill="#2C2A46"/>
<path d="M821.912 476.961C827.443 476.961 831.927 473.267 831.927 468.71C831.927 464.153 827.443 460.459 821.912 460.459C816.381 460.459 811.897 464.153 811.897 468.71C811.897 473.267 816.381 476.961 821.912 476.961Z" fill="#EFB8C2"/>
<path d="M821.912 476.961C827.443 476.961 831.927 473.267 831.927 468.71C831.927 464.153 827.443 460.459 821.912 460.459C816.381 460.459 811.897 464.153 811.897 468.71C811.897 473.267 816.381 476.961 821.912 476.961Z" fill="#CB9685"/>
<path fill-rule="evenodd" clip-rule="evenodd" d="M821.912 461.134C816.626 461.134 812.573 464.643 812.573 468.71C812.573 472.777 816.626 476.286 821.912 476.286C827.198 476.286 831.252 472.777 831.252 468.71C831.252 464.643 827.198 461.134 821.912 461.134ZM811.222 468.71C811.222 463.663 816.136 459.783 821.912 459.783C827.688 459.783 832.602 463.663 832.602 468.71C832.602 473.756 827.688 477.637 821.912 477.637C816.136 477.637 811.222 473.756 811.222 468.71Z" fill="#CB9685"/>
<path d="M822.729 445.003H821.105C818.903 445.006 816.708 444.769 814.558 444.295V463.229C814.556 464.096 814.726 464.955 815.057 465.757C815.388 466.558 815.874 467.287 816.486 467.9C817.099 468.514 817.827 469.001 818.628 469.333C819.429 469.665 820.287 469.836 821.155 469.836H822.679C823.551 469.836 824.413 469.663 825.218 469.328C826.022 468.993 826.752 468.502 827.365 467.883C827.979 467.264 828.463 466.529 828.791 465.722C829.119 464.915 829.284 464.051 829.276 463.179V444.246C827.127 444.732 824.932 444.985 822.729 445.003Z" fill="#CB9685"/>
<path d="M814.578 449.447V454.898C814.578 454.898 816.142 452.218 821.912 452.218C827.682 452.218 829.276 455.207 829.276 455.207V448.61L814.558 448.341L814.578 449.447Z" fill="#BF7D68"/>
<path d="M853.352 386.079V418.745C853.358 422.768 852.571 426.753 851.034 430.471C849.498 434.19 847.242 437.568 844.397 440.413C841.552 443.258 838.174 445.513 834.456 447.05C830.737 448.587 826.752 449.374 822.729 449.368H821.105C818.903 449.371 816.708 449.134 814.558 448.66C807.739 447.166 801.635 443.388 797.257 437.951C792.878 432.514 790.488 425.745 790.482 418.765V386.079C790.482 377.957 793.708 370.168 799.451 364.426C805.194 358.683 812.983 355.456 821.105 355.456H822.729C830.851 355.456 838.64 358.683 844.383 364.426C850.125 370.168 853.352 377.957 853.352 386.079V386.079Z" fill="#CB9685"/>
<path d="M791.239 410.225V424.236C789.988 424.215 788.795 423.702 787.919 422.809C787.043 421.916 786.553 420.714 786.556 419.462V414.998C786.555 413.747 787.046 412.547 787.922 411.654C788.798 410.761 789.989 410.248 791.239 410.225Z" fill="#CB9685"/>
<path d="M856.062 414.998V419.462C856.065 420.714 855.575 421.916 854.699 422.809C853.823 423.702 852.63 424.215 851.379 424.236V410.225C852.629 410.248 853.82 410.761 854.696 411.654C855.572 412.547 856.062 413.747 856.062 414.998V414.998Z" fill="#CB9685"/>
<path d="M852.605 395.785C852.605 395.785 853.182 405.82 852.605 409.677C852.027 413.533 854.916 395.785 854.916 395.785H852.605Z" fill="#160566"/>
<path d="M823.307 359.981C827.291 357.752 831.54 356.035 835.953 354.869C838.203 354.332 840.519 354.127 842.829 354.261C845.19 354.397 847.484 355.101 849.515 356.314C851.532 357.568 853.211 359.295 854.408 361.346L855.345 362.791C855.634 363.289 855.913 363.787 856.192 364.296C856.79 365.292 857.248 366.348 857.766 367.375C858.695 369.478 859.491 371.639 860.148 373.842C860.816 376.024 861.384 378.217 862.141 380.29C862.87 382.352 863.938 384.278 865.3 385.99C866.788 387.65 868.397 389.199 870.113 390.623C871.799 392.195 873.365 393.89 874.797 395.696C876.236 397.512 877.466 399.484 878.464 401.575C880.507 405.789 881.1 410.561 880.148 415.148C878.916 419.575 876.601 423.627 873.412 426.936C876.329 423.483 878.379 419.384 879.391 414.978C880.17 410.584 879.469 406.056 877.398 402.103C876.893 401.116 876.327 400.16 875.704 399.243C875.126 398.247 874.408 397.44 873.711 396.553C872.295 394.829 870.752 393.214 869.097 391.72C867.316 390.263 865.65 388.67 864.114 386.956C862.636 385.124 861.477 383.055 860.686 380.838C859.889 378.655 859.331 376.443 858.693 374.291C858.062 372.146 857.306 370.04 856.431 367.983C855.953 366.986 855.514 365.99 854.956 364.993C854.687 364.505 854.438 363.997 854.159 363.528L853.272 362.103C852.201 360.202 850.703 358.575 848.898 357.35C847.045 356.168 844.937 355.447 842.749 355.247C840.53 355.06 838.296 355.188 836.112 355.626C833.899 356.037 831.725 356.637 829.615 357.42C827.473 358.167 825.43 359.154 823.307 359.981Z" fill="#2C2A46"/>
<path d="M832.784 367.863C832.766 366.512 832.464 365.181 831.898 363.955C831.331 362.729 830.512 361.636 829.495 360.748C827.5 358.918 825.168 357.494 822.629 356.552C820.117 355.625 817.465 355.13 814.787 355.088C812.113 355.007 809.438 355.231 806.815 355.755C804.182 356.263 801.615 357.065 799.162 358.147C796.727 359.218 794.469 360.653 792.465 362.402C788.446 365.905 785.916 370.809 785.39 376.114C785.24 377.419 785.21 378.725 785.111 380.15C785.004 381.541 784.798 382.923 784.493 384.285C783.845 387.017 782.729 389.617 781.195 391.968C778.145 396.692 773.671 400.09 769.804 403.777C767.823 405.535 766.298 407.748 765.36 410.225C764.98 411.48 764.821 412.791 764.892 414.101C764.982 415.425 765.233 416.734 765.639 417.997C766.535 420.612 766.895 423.382 766.695 426.139C766.561 427.496 766.27 428.834 765.828 430.125C765.356 431.414 764.811 432.675 764.194 433.902C765.364 431.453 766.08 428.813 766.307 426.109C766.391 423.417 765.93 420.736 764.951 418.227C764.477 416.911 764.166 415.542 764.025 414.151C763.917 412.739 764.055 411.32 764.433 409.956C765.357 407.297 766.913 404.903 768.967 402.98C770.891 400.987 772.953 399.223 774.887 397.34C776.845 395.511 778.584 393.461 780.068 391.231C781.495 389.003 782.527 386.545 783.118 383.967C783.394 382.672 783.581 381.36 783.676 380.04C783.756 378.745 783.766 377.33 783.925 375.935C784.25 373.151 785.077 370.45 786.366 367.963C787.67 365.468 789.443 363.248 791.588 361.425C793.699 359.602 796.079 358.116 798.643 357.021C801.192 355.903 803.87 355.11 806.616 354.659C809.33 354.173 812.093 354.002 814.847 354.151C817.618 354.254 820.35 354.84 822.918 355.885C825.465 356.958 827.78 358.515 829.735 360.469C830.701 361.457 831.487 362.607 832.056 363.867C832.64 365.114 832.891 366.49 832.784 367.863V367.863Z" fill="#2C2A46"/>
<path d="M818.833 353.872C794.916 349.976 784.553 381.057 785.948 388.202C786.685 391.919 787.941 398.017 788.937 403.01C788.937 403.01 791.827 420.748 791.249 416.891C791.128 415.969 791.055 415.041 791.03 414.111C790.948 411.656 791.383 409.212 792.305 406.936C794.059 402.591 796.431 397.26 796.431 397.26C796.431 397.26 812.146 399.721 826.047 393.423C839.949 387.126 845.479 366.966 845.479 366.966C845.479 366.966 842.749 357.778 818.833 353.872Z" fill="#2C2A46"/>
<path d="M819.909 352.855C853.133 347.265 858.145 379.821 856.7 386.966C855.255 394.111 852.485 414.799 852.485 414.799C852.485 411.968 849.386 391.879 847.114 388.441C835.584 370.882 819.909 352.855 819.909 352.855Z" fill="#2C2A46"/>
<path d="M845.27 366.956C844.894 369.615 844.287 372.236 843.456 374.789C842.651 377.37 841.624 379.878 840.387 382.283C839.17 384.727 837.683 387.026 835.953 389.139C835.077 390.194 834.135 391.193 833.133 392.128C832.604 392.577 832.066 393.015 831.528 393.453C831.259 393.673 831 393.902 830.711 394.101L829.834 394.659C825.144 397.478 819.959 399.376 814.558 400.25C811.901 400.723 809.213 401 806.516 401.077C803.832 401.17 801.145 401.034 798.484 400.668C803.786 400.538 809.061 399.87 814.229 398.675C816.779 398.093 819.286 397.337 821.732 396.413C822.35 396.194 822.938 395.925 823.546 395.666C824.154 395.407 824.752 395.177 825.32 394.869L827.064 393.992C827.632 393.683 828.14 393.314 828.688 392.995L829.505 392.497C829.764 392.317 830.004 392.108 830.253 391.909L831.787 390.643C832.694 389.727 833.651 388.87 834.468 387.863C836.168 385.882 837.67 383.739 838.952 381.465C840.291 379.192 841.476 376.832 842.5 374.4C843.551 371.968 844.475 369.484 845.27 366.956V366.956Z" fill="#2C2A46"/>
<path d="M821.391 495.691C823.569 495.698 825.741 495.899 827.878 496.292C829.782 496.564 831.55 497.382 832.937 498.633C834.324 499.884 835.262 501.507 835.622 503.279C836.1 505.501 836.175 507.783 835.846 510.03C835.583 512.214 834.757 514.306 833.442 516.126C832.243 517.582 830.873 518.907 829.36 520.077L828.437 520.862C827.095 522.066 825.641 523.217 824.355 524.264V522.485C824.355 521.971 824.137 521.479 823.749 521.116C823.361 520.752 822.835 520.548 822.286 520.548C818.256 520.652 814.309 519.461 811.103 517.173C808.706 514.502 807.424 511.109 807.496 507.622C807.496 504.849 807.915 499.772 812.025 497.496C814.924 496.136 818.154 495.513 821.391 495.691ZM821.391 494.094C817.886 493.943 814.398 494.647 811.27 496.135C809.377 497.452 807.887 499.211 806.95 501.236C806.013 503.261 805.661 505.482 805.93 507.675C805.836 511.567 807.291 515.353 810.012 518.298C813.498 520.882 817.84 522.243 822.286 522.145C822.382 522.145 822.475 522.18 822.543 522.244C822.611 522.308 822.65 522.395 822.65 522.485V526.305C822.65 526.479 822.723 526.645 822.854 526.768C822.985 526.89 823.163 526.959 823.348 526.959C823.495 526.952 823.634 526.896 823.74 526.802C825.725 525.285 827.626 523.688 829.527 522.066C831.445 520.56 833.205 518.886 834.784 517.068C837.525 512.852 838.398 507.801 837.216 502.991C836.8 500.91 835.705 499.001 834.083 497.525C832.462 496.05 830.392 495.08 828.157 494.749C825.932 494.317 823.665 494.097 821.391 494.094Z" fill="white"/>
<defs>
<filter id="filter0_d_10272_1585" x="834.192" y="258.295" width="245.538" height="174.096" filterUnits="userSpaceOnUse" color-interpolation-filters="sRGB">
<feFlood flood-opacity="0" result="BackgroundImageFix"/>
<feColorMatrix in="SourceAlpha" type="matrix" values="0 0 0 0 0 0 0 0 0 0 0 0 0 0 0 0 0 0 127 0" result="hardAlpha"/>
<feOffset dy="9.01617"/>
<feGaussianBlur stdDeviation="6.76213"/>
<feColorMatrix type="matrix" values="0 0 0 0 0.374547 0 0 0 0 0.481553 0 0 0 0 0.601935 0 0 0 0.2 0"/>
<feBlend mode="normal" in2="BackgroundImageFix" result="effect1_dropShadow_10272_1585"/>
<feBlend mode="normal" in="SourceGraphic" in2="effect1_dropShadow_10272_1585" result="shape"/>
</filter>
<filter id="filter1_f_10272_1585" x="167.849" y="895.956" width="567.437" height="61.1621" filterUnits="userSpaceOnUse" color-interpolation-filters="sRGB">
<feFlood flood-opacity="0" result="BackgroundImageFix"/>
<feBlend mode="normal" in="SourceGraphic" in2="BackgroundImageFix" result="shape"/>
<feGaussianBlur stdDeviation="7" result="effect1_foregroundBlur_10272_1585"/>
</filter>
<filter id="filter2_f_10272_1585" x="726.078" y="915.853" width="194.916" height="47.8972" filterUnits="userSpaceOnUse" color-interpolation-filters="sRGB">
<feFlood flood-opacity="0" result="BackgroundImageFix"/>
<feBlend mode="normal" in="SourceGraphic" in2="BackgroundImageFix" result="shape"/>
<feGaussianBlur stdDeviation="7" result="effect1_foregroundBlur_10272_1585"/>
</filter>
<filter id="filter3_d_10272_1585" x="236.201" y="258.295" width="245.538" height="174.096" filterUnits="userSpaceOnUse" color-interpolation-filters="sRGB">
<feFlood flood-opacity="0" result="BackgroundImageFix"/>
<feColorMatrix in="SourceAlpha" type="matrix" values="0 0 0 0 0 0 0 0 0 0 0 0 0 0 0 0 0 0 127 0" result="hardAlpha"/>
<feOffset dy="9.01617"/>
<feGaussianBlur stdDeviation="6.76213"/>
<feColorMatrix type="matrix" values="0 0 0 0 0.374547 0 0 0 0 0.481553 0 0 0 0 0.601935 0 0 0 0.2 0"/>
<feBlend mode="normal" in2="BackgroundImageFix" result="effect1_dropShadow_10272_1585"/>
<feBlend mode="normal" in="SourceGraphic" in2="effect1_dropShadow_10272_1585" result="shape"/>
</filter>
<filter id="filter4_d_10272_1585" x="514.018" y="258.295" width="245.538" height="174.096" filterUnits="userSpaceOnUse" color-interpolation-filters="sRGB">
<feFlood flood-opacity="0" result="BackgroundImageFix"/>
<feColorMatrix in="SourceAlpha" type="matrix" values="0 0 0 0 0 0 0 0 0 0 0 0 0 0 0 0 0 0 127 0" result="hardAlpha"/>
<feOffset dy="9.01617"/>
<feGaussianBlur stdDeviation="6.76213"/>
<feColorMatrix type="matrix" values="0 0 0 0 0.374547 0 0 0 0 0.481553 0 0 0 0 0.601935 0 0 0 0.2 0"/>
<feBlend mode="normal" in2="BackgroundImageFix" result="effect1_dropShadow_10272_1585"/>
<feBlend mode="normal" in="SourceGraphic" in2="effect1_dropShadow_10272_1585" result="shape"/>
</filter>
</defs>
</svg>
