<svg width="1080" height="1080" viewBox="0 0 1080 1080" fill="none" xmlns="http://www.w3.org/2000/svg">
<path d="M750.568 759.113C932.508 759.113 1080 611.621 1080 429.681C1080 247.741 932.508 100.249 750.568 100.249C568.628 100.249 421.136 247.741 421.136 429.681C421.136 611.621 568.628 759.113 750.568 759.113Z" fill="#1968F0"/>
<path d="M211.024 978.995C327.569 978.995 422.048 884.516 422.048 767.971C422.048 651.425 327.569 556.947 211.024 556.947C94.4787 556.947 0 651.425 0 767.971C0 884.516 94.4787 978.995 211.024 978.995Z" fill="#C5D9FB"/>
<path d="M221.314 474.361C300.881 474.361 365.384 409.859 365.384 330.291C365.384 250.724 300.881 186.222 221.314 186.222C141.747 186.222 77.2446 250.724 77.2446 330.291C77.2446 409.859 141.747 474.361 221.314 474.361Z" fill="#0096FA"/>
<path d="M433.381 582.869H375.024C314.192 582.869 264.953 632.108 264.953 692.94V788.292" stroke="#072F73" stroke-width="12" stroke-miterlimit="10"/>
<path d="M769.326 582.869H827.683C888.516 582.869 937.755 632.108 937.755 692.94V788.292" stroke="#072F73" stroke-width="12" stroke-miterlimit="10"/>
<path d="M601.288 398.548V562.157" stroke="#072F73" stroke-width="12" stroke-miterlimit="10"/>
<path d="M765.418 497.547H437.289C430.124 497.547 424.263 503.409 424.263 510.574V655.294C424.263 662.459 430.124 668.32 437.289 668.32H765.418C772.583 668.32 778.444 662.459 778.444 655.294V510.574C778.444 503.279 772.583 497.547 765.418 497.547Z" fill="url(#paint0_linear_10272_1585)"/>
<path d="M939.056 218.657H465.946C458.781 218.657 452.92 224.519 452.92 231.683V253.958H432.99C421.396 253.958 415.534 268.026 423.741 276.233L452.789 305.281V420.563C452.789 427.727 458.651 433.589 465.816 433.589H938.926C946.091 433.589 951.953 427.727 951.953 420.563V231.683C952.083 224.519 946.221 218.657 939.056 218.657Z" fill="url(#paint1_linear_10272_1585)"/>
<path d="M221.314 334.069C250.522 334.069 274.2 312.432 274.2 285.742C274.2 259.051 250.522 237.415 221.314 237.415C192.106 237.415 168.428 259.051 168.428 285.742C168.428 312.432 192.106 334.069 221.314 334.069Z" fill="url(#paint2_linear_10272_1585)"/>
<path d="M221.314 475.533C262.998 475.533 300.383 457.948 326.957 429.942C311.586 386.434 270.162 355.171 221.314 355.171C172.466 355.171 131.173 386.434 115.672 429.942C142.245 457.948 179.761 475.533 221.314 475.533Z" fill="url(#paint3_linear_10272_1585)"/>
<path d="M843.966 310.101H528.081C523.783 310.101 520.266 306.584 520.266 302.285V275.712C520.266 271.413 523.783 267.896 528.081 267.896H843.966C848.265 267.896 851.782 271.413 851.782 275.712V302.285C851.782 306.584 848.265 310.101 843.966 310.101Z" fill="#0096FA"/>
<path d="M661.73 384.35H528.081C523.783 384.35 520.266 380.833 520.266 376.534V349.961C520.266 345.662 523.783 342.145 528.081 342.145H661.73C666.029 342.145 669.546 345.662 669.546 349.961V376.534C669.546 380.833 666.029 384.35 661.73 384.35Z" fill="#35DE90"/>
<path d="M744.185 384.35H697.552C693.253 384.35 689.736 380.833 689.736 376.534V349.961C689.736 345.662 693.253 342.145 697.552 342.145H744.185C748.484 342.145 752.001 345.662 752.001 349.961V376.534C752.001 380.833 748.484 384.35 744.185 384.35Z" fill="#1968F0"/>
<path d="M648.444 603.971H491.348C487.049 603.971 483.532 600.454 483.532 596.156V569.582C483.532 565.284 487.049 561.766 491.348 561.766H648.444C652.742 561.766 656.259 565.284 656.259 569.582V596.156C656.259 600.454 652.742 603.971 648.444 603.971Z" fill="#1968F0"/>
<path d="M711.36 603.971H684.265C679.967 603.971 676.45 600.454 676.45 596.156V569.582C676.45 565.284 679.967 561.767 684.265 561.767H711.36C715.659 561.767 719.176 565.284 719.176 569.582V596.156C719.176 600.454 715.659 603.971 711.36 603.971Z" fill="#35DE90"/>
<path d="M485.616 742.961H173.378C166.214 742.961 160.352 748.822 160.352 755.987V938.483C160.352 945.648 166.214 951.51 173.378 951.51H485.616C492.78 951.51 498.642 945.648 498.642 938.483V755.987C498.642 748.822 492.78 742.961 485.616 742.961Z" fill="url(#paint4_linear_10272_1585)"/>
<path d="M265.995 914.906C303.405 914.906 333.731 884.58 333.731 847.17C333.731 809.76 303.405 779.434 265.995 779.434C228.585 779.434 198.259 809.76 198.259 847.17C198.259 884.58 228.585 914.906 265.995 914.906Z" fill="#C5D9FB"/>
<path d="M265.995 850.687C279.304 850.687 290.093 840.831 290.093 828.673C290.093 816.515 279.304 806.659 265.995 806.659C252.686 806.659 241.896 816.515 241.896 828.673C241.896 840.831 252.686 850.687 265.995 850.687Z" fill="#F5F5F5"/>
<path d="M265.995 914.906C284.883 914.906 301.948 906.96 313.932 894.194C306.898 874.395 288.14 860.196 265.995 860.196C243.851 860.196 224.963 874.395 218.059 894.194C230.043 906.96 247.108 914.906 265.995 914.906Z" fill="#F5F5F5"/>
<path d="M452.921 886.118H360.435C356.136 886.118 352.619 882.601 352.619 878.303V847.04C352.619 842.741 356.136 839.224 360.435 839.224H452.921C457.219 839.224 460.736 842.741 460.736 847.04V878.303C460.736 882.731 457.219 886.118 452.921 886.118Z" fill="#E0E0E0"/>
<path d="M417.359 826.719H357.83C354.964 826.719 352.619 824.374 352.619 821.508V813.562C352.619 810.697 354.964 808.352 357.83 808.352H417.49C420.355 808.352 422.7 810.697 422.7 813.562V821.508C422.57 824.374 420.355 826.719 417.359 826.719Z" fill="#A3A3A3"/>
<path d="M1035.32 742.961H723.083C715.918 742.961 710.057 748.822 710.057 755.987V938.483C710.057 945.648 715.918 951.51 723.083 951.51H1035.32C1042.48 951.51 1048.35 945.648 1048.35 938.483V755.987C1048.35 748.822 1042.48 742.961 1035.32 742.961Z" fill="url(#paint5_linear_10272_1585)"/>
<path d="M815.569 914.906C852.978 914.906 883.305 884.58 883.305 847.17C883.305 809.76 852.978 779.434 815.569 779.434C778.159 779.434 747.833 809.76 747.833 847.17C747.833 884.58 778.159 914.906 815.569 914.906Z" fill="#0096FA"/>
<path d="M815.568 850.687C828.877 850.687 839.667 840.831 839.667 828.673C839.667 816.515 828.877 806.659 815.568 806.659C802.259 806.659 791.47 816.515 791.47 828.673C791.47 840.831 802.259 850.687 815.568 850.687Z" fill="white"/>
<path d="M815.568 914.906C834.456 914.906 851.52 906.96 863.504 894.194C856.47 874.395 837.713 860.196 815.568 860.196C793.424 860.196 774.536 874.395 767.632 894.194C779.746 906.96 796.68 914.906 815.568 914.906Z" fill="white"/>
<path d="M1002.62 886.118H910.139C905.84 886.118 902.323 882.601 902.323 878.303V847.04C902.323 842.741 905.84 839.224 910.139 839.224H1002.62C1006.92 839.224 1010.44 842.741 1010.44 847.04V878.303C1010.44 882.731 1006.92 886.118 1002.62 886.118Z" fill="#1968F0"/>
<path d="M967.063 826.719H907.534C904.668 826.719 902.323 824.374 902.323 821.508V813.562C902.323 810.697 904.668 808.352 907.534 808.352H967.194C970.059 808.352 972.404 810.697 972.404 813.562V821.508C972.274 824.374 969.929 826.719 967.063 826.719Z" fill="#35DE90"/>
<path d="M566.639 968.444C611.314 968.444 647.531 932.227 647.531 887.551C647.531 842.875 611.314 806.659 566.639 806.659C521.963 806.659 485.746 842.875 485.746 887.551C485.746 932.227 521.963 968.444 566.639 968.444Z" fill="#072F73"/>
<defs>
<linearGradient id="paint0_linear_10272_1585" x1="381.822" y1="516.572" x2="850.427" y2="658.083" gradientUnits="userSpaceOnUse">
<stop offset="0.0916735" stop-color="#C5D9FB"/>
<stop offset="0.1293" stop-color="#CBDDFA"/>
<stop offset="0.2962" stop-color="#E2EAF7"/>
<stop offset="0.4533" stop-color="#F0F2F6"/>
<stop offset="0.5896" stop-color="#F5F5F5"/>
</linearGradient>
<linearGradient id="paint1_linear_10272_1585" x1="402.84" y1="259.337" x2="922.241" y2="375.075" gradientUnits="userSpaceOnUse">
<stop stop-color="#C5D9FB"/>
<stop offset="0.1344" stop-color="#D6E3F9"/>
<stop offset="0.3214" stop-color="#E8EDF7"/>
<stop offset="0.5246" stop-color="#F2F3F5"/>
<stop offset="0.7717" stop-color="#F5F5F5"/>
</linearGradient>
<linearGradient id="paint2_linear_10272_1585" x1="168.427" y1="285.682" x2="274.239" y2="285.682" gradientUnits="userSpaceOnUse">
<stop stop-color="#C5D9FB"/>
<stop offset="0.1344" stop-color="#D6E3F9"/>
<stop offset="0.3214" stop-color="#E8EDF7"/>
<stop offset="0.5246" stop-color="#F2F3F5"/>
<stop offset="0.7717" stop-color="#F5F5F5"/>
</linearGradient>
<linearGradient id="paint3_linear_10272_1585" x1="115.752" y1="415.322" x2="326.914" y2="415.322" gradientUnits="userSpaceOnUse">
<stop stop-color="#C5D9FB"/>
<stop offset="0.1344" stop-color="#D6E3F9"/>
<stop offset="0.3214" stop-color="#E8EDF7"/>
<stop offset="0.5246" stop-color="#F2F3F5"/>
<stop offset="0.7717" stop-color="#F5F5F5"/>
</linearGradient>
<linearGradient id="paint4_linear_10272_1585" x1="510.087" y1="981.685" x2="160.967" y2="721.714" gradientUnits="userSpaceOnUse">
<stop offset="0.069995" stop-color="#C5D9FB"/>
<stop offset="0.1079" stop-color="#D0DFFA"/>
<stop offset="0.1896" stop-color="#E1E9F8"/>
<stop offset="0.2912" stop-color="#ECF0F6"/>
<stop offset="0.4339" stop-color="#F3F4F5"/>
<stop offset="0.8299" stop-color="#F5F5F5"/>
</linearGradient>
<linearGradient id="paint5_linear_10272_1585" x1="1044.72" y1="968.068" x2="728.305" y2="737.094" gradientUnits="userSpaceOnUse">
<stop stop-color="#C5D9FB"/>
<stop offset="0.1836" stop-color="#D9E4F9"/>
<stop offset="0.4073" stop-color="#E9EEF7"/>
<stop offset="0.66" stop-color="#F2F3F5"/>
<stop offset="1" stop-color="#F5F5F5"/>
</linearGradient>
</defs>
</svg>
