<svg width="1080" height="1080" viewBox="0 0 1080 1080" fill="none" xmlns="http://www.w3.org/2000/svg"><g filter="url(#organizations__a)"><path d="M1059.52 262.803H854.397c-3.69 0-6.681 2.978-6.681 6.653v133.741c0 3.674 2.991 6.653 6.681 6.653h205.123c3.69 0 6.68-2.979 6.68-6.653V269.456c0-3.675-2.99-6.653-6.68-6.653Z" fill="#F5F8F9"/></g><path fill-rule="evenodd" clip-rule="evenodd" d="M1066.2 279.117H847.716v-9.36a6.703 6.703 0 0 1 6.699-6.703H1059.5c1.78 0 3.48.706 4.74 1.963a6.691 6.691 0 0 1 1.96 4.74v9.36Z" fill="#343C4C"/><path d="M861.708 268.644c.4.001.798.041 1.19.118a1.707 1.707 0 0 1 1.421 1.369c.087.436.101.883.041 1.323a2.68 2.68 0 0 1-.441 1.195 4.86 4.86 0 0 1-.749.775l-.169.154c-.247.236-.513.461-.749.666v-.348a.38.38 0 0 0-.38-.38 3.235 3.235 0 0 1-2.051-.662 2.824 2.824 0 0 1-.662-1.872c0-.543.077-1.538.831-1.984a3.384 3.384 0 0 1 1.718-.354Zm0-.313a3.714 3.714 0 0 0-1.857.4 2.469 2.469 0 0 0-.979 2.262 3.073 3.073 0 0 0 .749 2.082 3.49 3.49 0 0 0 2.251.754.067.067 0 0 1 .067.067v.748a.129.129 0 0 0 .128.129.12.12 0 0 0 .072-.031 26.6 26.6 0 0 0 1.062-.928c.351-.296.674-.624.964-.98a3.707 3.707 0 0 0 .446-2.759 2.01 2.01 0 0 0-1.662-1.616 6.086 6.086 0 0 0-1.241-.128Z" fill="#2CC3D5"/><path opacity=".5" fill-rule="evenodd" clip-rule="evenodd" d="M1054.06 274.268a2.722 2.722 0 0 0 2.51-1.674c.2-.496.26-1.042.15-1.568a2.67 2.67 0 0 0-.74-1.389 2.722 2.722 0 0 0-2.96-.588 2.68 2.68 0 0 0-1.21.999 2.7 2.7 0 0 0-.46 1.507 2.704 2.704 0 0 0 2.71 2.713Z" fill="#8CA0B3"/><path fill-rule="evenodd" clip-rule="evenodd" d="M1048.43 274.945v-6.78h.59v6.78h-.59Z" fill="#738192"/><path d="M1044.57 271.986a.178.178 0 0 1-.12-.041l-.77-.651a.183.183 0 0 1-.03-.027c0-.011-.01-.023 0-.035-.01-.01-.01-.022-.01-.033 0-.012 0-.023.01-.034.01-.019.03-.032.06-.036a.088.088 0 0 1 .06 0l.78.652.77-.652h.07a.087.087 0 0 1 .04 0h.03v.113c-.01.011-.01.02-.02.026l-.77.651a.236.236 0 0 1-.13.041l.03.026Z" fill="#8CA0B3"/><path opacity=".3" fill-rule="evenodd" clip-rule="evenodd" d="M869.378 271.555c0-.984.798-1.782 1.782-1.782h10.058a1.781 1.781 0 0 1 0 3.564H871.16a1.782 1.782 0 0 1-1.782-1.782Zm158.652 0c0-.984.79-1.782 1.78-1.782h10.06a1.783 1.783 0 0 1 0 3.564h-10.06c-.99 0-1.78-.798-1.78-1.782Zm-141.896 0c0-.984.797-1.782 1.781-1.782h12.735a1.782 1.782 0 0 1 0 3.564h-12.735a1.781 1.781 0 0 1-1.781-1.782Z" fill="#8CA0B3"/><path d="M998.979 323.682v41.403a6.494 6.494 0 0 0 6.491 6.492h33.57c3.59 0 6.5-2.906 6.5-6.492v-41.403a6.496 6.496 0 0 0-6.5-6.493h-33.57a6.495 6.495 0 0 0-6.491 6.493Z" fill="#fff"/><path d="M1022.24 345.635c4.85 0 8.77-3.926 8.77-8.768a8.765 8.765 0 0 0-8.77-8.768c-4.84 0-8.76 3.926-8.76 8.768 0 4.842 3.92 8.768 8.76 8.768Z" fill="#4DCB7B"/><path fill-rule="evenodd" clip-rule="evenodd" d="M1010.39 353.144a2.254 2.254 0 0 1 2.26-2.251h19.2c1.25 0 2.26 1.008 2.26 2.251a2.255 2.255 0 0 1-2.26 2.252h-19.2a2.255 2.255 0 0 1-2.26-2.252Zm4.15 7.523c0-.777.63-1.407 1.41-1.407h12.58a1.408 1.408 0 1 1 0 2.815h-12.58c-.78 0-1.41-.63-1.41-1.408Z" fill="#D2DFE6"/><path d="M933.143 323.682v41.403a6.492 6.492 0 0 0 6.492 6.492h33.573a6.492 6.492 0 0 0 6.492-6.492v-41.403a6.493 6.493 0 0 0-6.492-6.493h-33.573a6.493 6.493 0 0 0-6.492 6.493Z" fill="#fff"/><path d="M956.408 345.635a8.769 8.769 0 1 0-.001-17.537 8.769 8.769 0 0 0 .001 17.537Z" fill="#517BF2"/><path fill-rule="evenodd" clip-rule="evenodd" d="M944.559 353.144a2.251 2.251 0 0 1 2.251-2.251h19.209a2.251 2.251 0 1 1 0 4.503H946.81a2.251 2.251 0 0 1-2.251-2.252Zm4.15 7.523c0-.777.63-1.407 1.407-1.407h12.583a1.407 1.407 0 0 1 0 2.815h-12.583c-.777 0-1.407-.63-1.407-1.408Z" fill="#D2DFE6"/><path d="M868.361 323.682v41.403a6.492 6.492 0 0 0 6.492 6.492h33.573a6.492 6.492 0 0 0 6.492-6.492v-41.403a6.493 6.493 0 0 0-6.492-6.493h-33.573a6.493 6.493 0 0 0-6.492 6.493Z" fill="#fff"/><path d="M891.626 345.635a8.769 8.769 0 1 0-.001-17.537 8.769 8.769 0 0 0 .001 17.537Z" fill="#F99B45"/><path fill-rule="evenodd" clip-rule="evenodd" d="M879.777 353.144a2.251 2.251 0 0 1 2.251-2.251h19.209a2.251 2.251 0 1 1 0 4.503h-19.209a2.251 2.251 0 0 1-2.251-2.252Zm4.15 7.523c0-.777.63-1.407 1.407-1.407h12.583a1.407 1.407 0 0 1 0 2.815h-12.583c-.777 0-1.407-.63-1.407-1.408Zm71.747 48.955v3.422h-4.455v-3.422h4.455Zm0 10.267v6.845h-4.455v-6.845h4.455Zm0 13.69v6.845h-4.455v-6.845h4.455Zm0 13.689v6.845h-4.455v-6.845h4.455Zm0 13.69v6.845h-4.455v-6.845h4.455Zm0 13.69v6.844h-4.455v-6.844h4.455Zm0 13.689v6.845h-4.455v-6.845h4.455Zm0 13.69v6.844h-4.455v-6.844h4.455Zm0 13.689v6.845h-4.455v-6.845h4.455Zm0 13.69v6.845h-4.455v-6.845h4.455Zm0 13.689v6.845h-4.455v-6.845h4.455Zm0 13.69v6.845h-4.455v-6.845h4.455Zm0 13.69v5.649h-5.766v-4.454h1.311v-1.195h4.455Zm-225.143 5.649h-3.538v-4.454h3.538v4.454Zm14.154 0h-7.077v-4.454h7.077v4.454Zm14.153 0h-7.077v-4.454h7.077v4.454Zm14.153 0h-7.076v-4.454h7.076v4.454Zm14.154 0h-7.077v-4.454h7.077v4.454Zm14.153 0h-7.077v-4.454h7.077v4.454Zm14.153 0h-7.076v-4.454h7.076v4.454Zm14.154 0h-7.077v-4.454h7.077v4.454Zm14.153 0h-7.077v-4.454h7.077v4.454Zm14.154 0h-7.077v-4.454h7.077v4.454Zm14.153 0h-7.077v-4.454h7.077v4.454Zm14.153 0h-7.076v-4.454h7.076v4.454Zm14.154 0h-7.077v-4.454h7.077v4.454Zm14.153 0h-7.077v-4.454h7.077v4.454Zm14.153 0h-7.076v-4.454h7.076v4.454Zm14.154 0h-7.077v-4.454h7.077v4.454ZM637.97 406.481v-3.606h4.455v3.606h-4.455Zm0 14.422v-7.211h4.455v7.211h-4.455Zm0 14.421v-7.211h4.455v7.211h-4.455Zm0 14.422v-7.211h4.455v7.211h-4.455Zm0 14.422v-7.211h4.455v7.211h-4.455Zm0 14.422v-7.211h4.455v7.211h-4.455Zm0 14.421V485.8h4.455v7.211h-4.455Zm0 14.422v-7.211h4.455v7.211h-4.455Zm0 14.422v-7.211h4.455v7.211h-4.455Zm0 14.422v-7.211h4.455v7.211h-4.455Zm0 14.421v-7.211h4.455v7.211h-4.455Zm0 10.817v-3.606h4.455v3.606h-4.455ZM353.74 406.481v-3.606h4.454v3.606h-4.454Zm0 14.422v-7.211h4.454v7.211h-4.454Zm0 14.421v-7.211h4.454v7.211h-4.454Zm0 14.422v-7.211h4.454v7.211h-4.454Zm0 14.422v-7.211h4.454v7.211h-4.454Zm0 14.422v-7.211h4.454v7.211h-4.454Zm0 14.421V485.8h4.454v7.211h-4.454Zm0 14.422v-7.211h4.454v7.211h-4.454Zm0 14.422v-7.211h4.454v7.211h-4.454Zm0 14.422v-7.211h4.454v7.211h-4.454Zm0 14.421v-7.211h4.454v7.211h-4.454Zm0 10.817v-3.606h4.454v3.606h-4.454Z" fill="#D2DFE6"/><path d="M846.96 224.826c17.891 0 32.394-14.503 32.394-32.394s-14.503-32.395-32.394-32.395-32.395 14.504-32.395 32.395c0 17.891 14.504 32.394 32.395 32.394Z" fill="#517BF2"/><path d="M59.8 346.359c20.33 0 36.812-16.481 36.812-36.812 0-20.331-16.482-36.812-36.812-36.812-20.331 0-36.812 16.481-36.812 36.812 0 20.331 16.48 36.812 36.812 36.812Z" fill="#4DCB7B"/><path d="M166.567 416.502a6.813 6.813 0 1 0 .001-13.627 6.813 6.813 0 0 0-.001 13.627Zm359.486 40.721a6.813 6.813 0 1 0-.001-13.627 6.813 6.813 0 0 0 .001 13.627Z" fill="#E7EEF1"/><path fill-rule="evenodd" clip-rule="evenodd" d="M192.75 212.418a5.688 5.688 0 1 0 .001 11.375 5.688 5.688 0 0 0-.001-11.375Zm-7.939 5.688a7.94 7.94 0 1 1 7.939 7.94 7.94 7.94 0 0 1-7.939-7.94Z" fill="#DEE8EC"/><path fill-rule="evenodd" clip-rule="evenodd" d="M916.38 656.41a6.251 6.251 0 1 0 0 12.503 6.251 6.251 0 0 0 0-12.503Zm-7.377 6.251a7.377 7.377 0 1 1 14.755 0 7.377 7.377 0 0 1-14.755 0ZM614.087 132.126a6.25 6.25 0 0 0-6.25 6.25 6.25 6.25 0 1 0 6.25-6.25Zm-7.376 6.25a7.376 7.376 0 1 1 14.752 0 7.376 7.376 0 0 1-14.752 0Zm465.909 368.417a6.252 6.252 0 0 0 0 12.502c3.46 0 6.25-2.799 6.25-6.251a6.245 6.245 0 0 0-6.25-6.251Zm-7.37 6.251a7.376 7.376 0 1 1 14.75 0c0 4.074-3.3 7.376-7.38 7.376a7.373 7.373 0 0 1-7.37-7.376Zm-653.518-28.55a3.413 3.413 0 0 0-4.827 0l-7.326 7.326a3.412 3.412 0 0 0 0 4.826l7.326 7.326a3.413 3.413 0 0 0 4.827 0l7.326-7.326a3.412 3.412 0 0 0 0-4.826l-7.326-7.326Zm-5.623-.797a4.54 4.54 0 0 1 6.419 0l7.326 7.327a4.539 4.539 0 0 1 0 6.418l-7.326 7.327a4.54 4.54 0 0 1-6.419 0l-7.326-7.327a4.537 4.537 0 0 1 0-6.418l7.326-7.327Z" fill="#E7EEF1"/><path d="m753.657 230.745-4.155-4.156a2.25 2.25 0 0 0-3.181 0l-4.155 4.156a2.249 2.249 0 0 0 0 3.18l4.155 4.155a2.248 2.248 0 0 0 3.181 0l4.155-4.155a2.249 2.249 0 0 0 0-3.18Z" fill="#E7EEF1"/><path d="M495.613 212.385c18.534 0 33.559-15.025 33.559-33.559s-15.025-33.559-33.559-33.559-33.559 15.025-33.559 33.559 15.025 33.559 33.559 33.559Z" fill="#F66689"/><path d="M487.83 194.715h-.155a1.637 1.637 0 0 1-.825-.347c-1.076-.933-2.475-2.14-3.838-3.407l-.598-.55a19.947 19.947 0 0 1-3.001-3.18 14.347 14.347 0 0 1-1.769-10.82 8.367 8.367 0 0 1 6.791-6.671 23.951 23.951 0 0 1 4.71-.467 14.356 14.356 0 0 1 7.233 1.614c2.714 1.674 4.137 4.914 4.005 9.122a12.443 12.443 0 0 1-2.989 8.238c-1.841 1.901-5.272 2.869-8.01 3.036v1.877a1.552 1.552 0 0 1-1.554 1.555Zm-2.905-22.895a6.182 6.182 0 0 0-5.177 4.961 12.194 12.194 0 0 0 1.423 9.17 19.185 19.185 0 0 0 2.69 2.834l.61.55c.944.884 1.912 1.733 2.761 2.486v-1.362a1.298 1.298 0 0 1 1.315-1.304c2.391 0 5.799-.848 7.293-2.391a10.349 10.349 0 0 0 2.391-6.826c.06-1.973-.239-5.536-2.989-7.233a12.141 12.141 0 0 0-6.097-1.292 22.238 22.238 0 0 0-4.268.419l.048-.012Z" fill="#fff"/><g opacity=".6" fill="#fff"><path opacity=".6" d="M497.778 183.094v.084c.283-1.058.44-2.146.466-3.24a13.532 13.532 0 0 1-.466 3.156Zm-5.776-11.477.922.179a11.721 11.721 0 0 0-.958-.179h.036Zm5.406 3.599Zm.835 4.327Zm-3.753-7.257c-.18-.072-.347-.143-.539-.203.144.06.312.131.539.203Z"/><path opacity=".6" d="M513.618 170.098a8.372 8.372 0 0 0-6.791-6.683 23.867 23.867 0 0 0-4.71-.466 14.347 14.347 0 0 0-7.173 1.614 8.189 8.189 0 0 0-3.503 4.782c1.764.125 3.479.639 5.021 1.507 2.714 1.673 4.137 4.913 4.005 9.122a15.834 15.834 0 0 1-.825 4.65c.757.156 1.524.26 2.296.311v1.889a1.554 1.554 0 0 0 1.542 1.554h.143c.315-.037.613-.161.861-.358 1.064-.921 2.463-2.128 3.826-3.396l.586-.55a20.397 20.397 0 0 0 3.001-3.18 14.345 14.345 0 0 0 1.721-10.796Zm-19.917 1.901-.682-.203.682.203Zm1.542.694-.611-.323.611.323Z"/></g><path d="M74.029 306.441 48.595 294.26a3.53 3.53 0 0 0-3.882.589 3.198 3.198 0 0 0-.923 3.467 87.244 87.244 0 0 0 4.364 8.982 1.335 1.335 0 0 0 1.258.75l11.78-.121a1.713 1.713 0 0 1 1.606 1.017 1.772 1.772 0 0 1-.116 1.685 1.776 1.776 0 0 1-1.477.819l-12.047.12a1.34 1.34 0 0 0-1.232.736 89.352 89.352 0 0 0-4.136 8.407 3.185 3.185 0 0 0 .91 3.507 3.534 3.534 0 0 0 3.895.602l25.354-12.141a3.462 3.462 0 0 0 1.953-3.119 3.467 3.467 0 0 0-1.953-3.119h.08Z" fill="#fff"/><path d="M96.135 534.496c25.949 0 46.986-21.037 46.986-46.986 0-25.949-21.037-46.985-46.986-46.985-25.95 0-46.985 21.036-46.985 46.985 0 25.949 21.036 46.986 46.985 46.986Z" fill="#F9B42F"/><path opacity=".7" d="M117.741 477.805h-.897a21.415 21.415 0 0 0-33.778-11.501 21.415 21.415 0 0 0-7.638 11.501h-.95a4.016 4.016 0 0 0-4.017 4.016v7.482a4.017 4.017 0 0 0 4.016 4.016h.134v8.782a8.785 8.785 0 0 0 5.537 8.419 8.778 8.778 0 0 0 3.499.616h5.716a4.31 4.31 0 0 0 3.614 1.995h5.836a4.31 4.31 0 1 0 0-8.608h-5.782a4.301 4.301 0 0 0-4.016 2.611H83.66a4.797 4.797 0 0 1-4.708-3.07 4.796 4.796 0 0 1-.312-1.963V483.36a17.447 17.447 0 0 1 29.787-12.338 17.445 17.445 0 0 1 5.111 12.338v7.965a2.01 2.01 0 0 0 2.008 2.008h2.155a4.014 4.014 0 0 0 4.016-4.016v-7.483a4.012 4.012 0 0 0-3.976-4.029Z" fill="#fff"/><path d="M96.135 470.683a14.89 14.89 0 0 0-13.762 9.18 14.887 14.887 0 0 0 10.84 20.304 14.883 14.883 0 0 0 17.795-14.598 14.903 14.903 0 0 0-14.873-14.886Zm9.37 19.357a9.043 9.043 0 0 1-3.514 4.353 9.04 9.04 0 0 1-5.401 1.456h-.509a9.02 9.02 0 0 1-8.902-5.809c-.428-1.339-.388-2.008 0-2.008 2.978.447 5.985.667 8.996.656h.334a59.146 59.146 0 0 0 8.996-.656c.361 0 .401.642-.014 2.008h.014Z" fill="#fff"/><g opacity=".2" filter="url(#organizations__b)"><path d="M721.286 926.537c0 9.157-120.757 16.581-269.718 16.581-148.962 0-269.719-7.424-269.719-16.581s120.757-16.581 269.719-16.581c148.961 0 269.718 7.424 269.718 16.581Z" fill="#0A0F1A"/></g><g opacity=".2" filter="url(#organizations__c)"><path d="M906.994 939.802c0 5.494-37.365 9.949-83.458 9.949-46.092 0-83.458-4.455-83.458-9.949 0-5.495 37.366-9.949 83.458-9.949 46.093 0 83.458 4.454 83.458 9.949Z" fill="#0A0F1A"/></g><path d="M719.065 535.859h-535.34c-9.648 0-17.469 7.821-17.469 17.469v351.668c0 9.648 7.821 17.469 17.469 17.469h535.34c9.647 0 17.469-7.821 17.469-17.469V553.328c0-9.648-7.822-17.469-17.469-17.469Z" fill="#F5F8F9"/><path fill-rule="evenodd" clip-rule="evenodd" d="M736.532 577.142h-570.25v-24.429a17.497 17.497 0 0 1 17.482-17.496h535.273a17.495 17.495 0 0 1 17.495 17.496v24.429Z" fill="#343C4C"/><path d="M202.802 549.807c1.042.004 2.082.107 3.105.308a4.461 4.461 0 0 1 3.708 3.574c.229 1.138.265 2.305.107 3.454a6.959 6.959 0 0 1-1.151 3.119 12.54 12.54 0 0 1-1.954 2.021l-.442.402c-.642.616-1.338 1.205-1.954 1.74v-.91a.995.995 0 0 0-.29-.701.995.995 0 0 0-.701-.29 8.443 8.443 0 0 1-5.354-1.727 7.374 7.374 0 0 1-1.727-4.885c0-1.419.201-4.016 2.168-5.181a8.86 8.86 0 0 1 4.485-.924Zm0-.816a9.704 9.704 0 0 0-4.846 1.044 6.438 6.438 0 0 0-2.557 5.903 8.03 8.03 0 0 0 1.955 5.435 9.119 9.119 0 0 0 5.876 1.968c.046 0 .091.018.123.051a.172.172 0 0 1 .051.123v1.954a.334.334 0 0 0 .335.335.297.297 0 0 0 .187-.08 67.537 67.537 0 0 0 2.771-2.423 18.947 18.947 0 0 0 2.517-2.557 9.678 9.678 0 0 0 1.164-7.202 5.248 5.248 0 0 0-4.337-4.216 16.02 16.02 0 0 0-3.239-.335Z" fill="#2CC3D5"/><path opacity=".5" fill-rule="evenodd" clip-rule="evenodd" d="M684.003 564.479a7.082 7.082 0 1 0-5.888-11.016 7.084 7.084 0 0 0 5.888 11.016Z" fill="#8CA0B3"/><path fill-rule="evenodd" clip-rule="evenodd" d="M669.773 566.246v-17.697h.588v17.697h-.588Z" fill="#738192"/><path d="M659.224 558.522a.554.554 0 0 1-.321-.107l-2.008-1.7a.187.187 0 0 1-.08-.161.202.202 0 0 1 0-.174.257.257 0 0 1 .16-.094.273.273 0 0 1 .174 0l2.022 1.7 2.021-1.7h.187a.151.151 0 0 1 .094 0h.08a.187.187 0 0 1 0 .094.213.213 0 0 1 0 .094.164.164 0 0 1 0 .107.164.164 0 0 1-.066.067l-2.008 1.7a.58.58 0 0 1-.322.107l.067.067Z" fill="#8CA0B3"/><path opacity=".3" fill-rule="evenodd" clip-rule="evenodd" d="M222.811 557.397a4.66 4.66 0 0 1 4.66-4.659h26.25a4.66 4.66 0 0 1 0 9.318h-26.25a4.66 4.66 0 0 1-4.66-4.659Zm43.733 0a4.66 4.66 0 0 1 4.659-4.659h33.238a4.66 4.66 0 0 1 0 9.318h-33.238a4.66 4.66 0 0 1-4.659-4.659Z" fill="#8CA0B3"/><path d="M674.422 643.444H377.048c-9.662 0-17.495 7.833-17.495 17.496v163.552c0 9.662 7.833 17.495 17.495 17.495h297.374c9.663 0 17.496-7.833 17.496-17.495V660.94c0-9.663-7.833-17.496-17.496-17.496Z" fill="#fff"/><path fill-rule="evenodd" clip-rule="evenodd" d="M435.652 706.114c-24.317 0-44.031 19.713-44.031 44.031 0 24.317 19.714 44.031 44.031 44.031 24.318 0 44.032-19.714 44.032-44.031 0-24.318-19.714-44.031-44.032-44.031Zm-48.681 44.031c0-26.886 21.795-48.682 48.681-48.682 26.886 0 48.682 21.796 48.682 48.682 0 26.886-21.796 48.681-48.682 48.681-26.886 0-48.681-21.795-48.681-48.681Z" fill="#D2DFE6"/><path fill-rule="evenodd" clip-rule="evenodd" d="M430.993 703.787a4.66 4.66 0 0 1 4.661-4.658 51.023 51.023 0 0 1 47.122 31.503 51.015 51.015 0 1 1-98.152 19.513 4.66 4.66 0 1 1 9.318 0 41.697 41.697 0 1 0 41.709-41.697 4.66 4.66 0 0 1-4.658-4.661Z" fill="#2CC3D5"/><path opacity=".5" d="M418.089 751.349a9.26 9.26 0 0 1-2.128-6.546 12.341 12.341 0 0 1 2.262-7.844 7.562 7.562 0 0 1 6.265-2.851 7.79 7.79 0 0 1 3.262.497 7.794 7.794 0 0 1 2.762 1.805 9.372 9.372 0 0 1 2.128 6.573c.178 2.8-.617 5.576-2.249 7.858a7.595 7.595 0 0 1-6.265 2.797 7.817 7.817 0 0 1-6.037-2.289Zm8.929-8.995a5.642 5.642 0 0 0-.616-2.999 2.114 2.114 0 0 0-1.914-.95 2.358 2.358 0 0 0-2.209 1.753 14.809 14.809 0 0 0-.696 5.221 5.984 5.984 0 0 0 .589 3.025 2.047 2.047 0 0 0 1.901.951c1.968.04 2.945-2.316 2.945-7.001ZM425.8 767.64a2.417 2.417 0 0 1-1.727-.682 2.171 2.171 0 0 1-.536-.74 2.166 2.166 0 0 1-.187-.894 2.674 2.674 0 0 1 .495-1.539l19.035-28.861a2.578 2.578 0 0 1 2.222-1.338 2.502 2.502 0 0 1 1.741.683 2.157 2.157 0 0 1 .749 1.633 2.78 2.78 0 0 1-.495 1.539l-19.075 28.874a2.584 2.584 0 0 1-2.222 1.325Zm14.524-3.012a9.368 9.368 0 0 1-2.102-6.599 12.35 12.35 0 0 1 2.235-7.818 7.517 7.517 0 0 1 6.238-2.824 7.785 7.785 0 0 1 6.024 2.302 9.373 9.373 0 0 1 2.129 6.573 12.273 12.273 0 0 1-2.222 7.858 7.511 7.511 0 0 1-6.252 2.784 7.855 7.855 0 0 1-6.05-2.276Zm8.955-8.995a5.91 5.91 0 0 0-.616-3.025 2.107 2.107 0 0 0-1.927-.964 2.368 2.368 0 0 0-2.249 1.767 14.956 14.956 0 0 0-.696 5.247 5.698 5.698 0 0 0 .615 3.039 2.086 2.086 0 0 0 1.928.95c2.021 0 2.985-2.342 2.985-7.014h-.04Z" fill="#607B99"/><path fill-rule="evenodd" clip-rule="evenodd" d="M502.295 709.92a5.068 5.068 0 0 1 5.067-5.067h152.2a5.068 5.068 0 0 1 0 10.133h-152.2a5.067 5.067 0 0 1-5.067-5.066Zm.884 20.106a5.066 5.066 0 0 1 5.066-5.066h99.714a5.066 5.066 0 1 1 0 10.132h-99.714a5.066 5.066 0 0 1-5.066-5.066Zm1.816 26.25a3.252 3.252 0 0 1 3.252-3.252h39.355a3.252 3.252 0 0 1 0 6.503h-39.355a3.252 3.252 0 0 1-3.252-3.251Zm0 15.742a3.252 3.252 0 0 1 3.252-3.252h39.355a3.252 3.252 0 0 1 0 6.504h-39.355a3.252 3.252 0 0 1-3.252-3.252Zm0 15.742a3.252 3.252 0 0 1 3.252-3.252h39.355a3.252 3.252 0 0 1 0 6.503h-39.355a3.251 3.251 0 0 1-3.252-3.251Zm55.982-31.484a3.252 3.252 0 0 1 3.252-3.252h39.355a3.252 3.252 0 0 1 0 6.503h-39.355a3.252 3.252 0 0 1-3.252-3.251Zm0 15.742a3.252 3.252 0 0 1 3.252-3.252h39.355a3.252 3.252 0 0 1 0 6.504h-39.355a3.252 3.252 0 0 1-3.252-3.252Zm0 15.742a3.252 3.252 0 0 1 3.252-3.252h39.355a3.252 3.252 0 0 1 0 6.503h-39.355a3.251 3.251 0 0 1-3.252-3.251Zm55.967-31.484a3.252 3.252 0 0 1 3.252-3.252h39.368a3.252 3.252 0 0 1 0 6.503h-39.368a3.252 3.252 0 0 1-3.252-3.251Zm0 15.742a3.252 3.252 0 0 1 3.252-3.252h39.368a3.252 3.252 0 0 1 0 6.504h-39.368a3.252 3.252 0 0 1-3.252-3.252Zm0 15.742a3.252 3.252 0 0 1 3.252-3.252h39.368a3.252 3.252 0 0 1 0 6.503h-39.368a3.251 3.251 0 0 1-3.252-3.251Z" fill="#D2DFE6"/><path d="M315.418 757.146H213.014c-7.467 0-13.52 6.053-13.52 13.52v57.802c0 7.466 6.053 13.52 13.52 13.52h102.404c7.467 0 13.52-6.054 13.52-13.52v-57.802c0-7.467-6.053-13.52-13.52-13.52Z" fill="#fff"/><path d="M235.356 817.932c10.143 0 18.366-8.223 18.366-18.366 0-10.143-8.223-18.366-18.366-18.366-10.143 0-18.366 8.223-18.366 18.366 0 10.143 8.223 18.366 18.366 18.366Z" fill="#55CFFF"/><path fill-rule="evenodd" clip-rule="evenodd" d="M267.826 791.695a3.377 3.377 0 0 1 3.377-3.377h40.239a3.378 3.378 0 1 1 0 6.755h-40.239a3.377 3.377 0 0 1-3.377-3.378Zm0 15.743a3.377 3.377 0 0 1 3.377-3.378h26.371a3.377 3.377 0 0 1 0 6.755h-26.371a3.377 3.377 0 0 1-3.377-3.377Z" fill="#D2DFE6"/><path d="m238.567 806.019-.174.16-.468.442a81.465 81.465 0 0 1-2.263 2.008v-1.205a.963.963 0 0 0-.963-.963 8.977 8.977 0 0 1-5.73-1.901 8.117 8.117 0 0 1-1.887-5.355c0-1.553.201-4.35 2.369-5.689a9.473 9.473 0 0 1 4.779-1.017 16.798 16.798 0 0 1 3.347.334c.464.094.914.247 1.338.456a.808.808 0 0 0 1.044-.375.777.777 0 0 0-.374-1.031 7.006 7.006 0 0 0-1.714-.576 18.072 18.072 0 0 0-3.694-.415 11.144 11.144 0 0 0-5.596 1.245c-2.101 1.339-3.199 3.802-3.105 7.068a9.623 9.623 0 0 0 2.315 6.385 10.05 10.05 0 0 0 6.265 2.356v1.526a1.152 1.152 0 0 0 1.151 1.152h.094c.238-.015.465-.109.643-.268.83-.71 1.927-1.66 2.985-2.677l.468-.442.174-.147a.789.789 0 0 0 0-1.111.775.775 0 0 0-1.004.04Z" fill="#fff"/><path d="M245.02 800.008v-.067a.18.18 0 0 0 0-.08v-.388a.18.18 0 0 0 0-.08l-3.213-3.481a.976.976 0 1 0-1.419 1.339l1.7 1.847h-6.291a.989.989 0 0 0-.764.24.987.987 0 0 0-.328.731.989.989 0 0 0 .328.73.989.989 0 0 0 .764.24h6.291l-1.7 1.847a.967.967 0 0 0 0 1.339c.181.161.414.251.656.254a.918.918 0 0 0 .71-.321l3.212-3.467.054-.683Zm70.398-152.857H213.014c-7.467 0-13.52 6.054-13.52 13.52v57.802c0 7.467 6.053 13.52 13.52 13.52h102.404c7.467 0 13.52-6.053 13.52-13.52v-57.802c0-7.466-6.053-13.52-13.52-13.52Z" fill="#fff"/><path d="M235.356 707.938c10.143 0 18.366-8.223 18.366-18.366 0-10.143-8.223-18.366-18.366-18.366-10.143 0-18.366 8.223-18.366 18.366 0 10.143 8.223 18.366 18.366 18.366Z" fill="#F66689"/><path fill-rule="evenodd" clip-rule="evenodd" d="M267.826 681.701a3.377 3.377 0 0 1 3.377-3.377h40.239a3.378 3.378 0 1 1 0 6.755h-40.239a3.377 3.377 0 0 1-3.377-3.378Zm0 15.756a3.377 3.377 0 0 1 3.377-3.378h26.371a3.378 3.378 0 0 1 0 6.755h-26.371a3.377 3.377 0 0 1-3.377-3.377Z" fill="#D2DFE6"/><path d="M244.391 686.132a6.693 6.693 0 0 0-5.488-5.355 19.803 19.803 0 0 0-3.856-.374 11.793 11.793 0 0 0-5.876 1.338 6.343 6.343 0 0 0-2.356 2.678.78.78 0 1 0 1.405.682c.387-.82 1-1.512 1.767-1.994a10.017 10.017 0 0 1 5.06-1.071 17.545 17.545 0 0 1 3.534.348 5.13 5.13 0 0 1 4.284 4.19c.625 2.59.202 5.323-1.178 7.603a15.9 15.9 0 0 1-2.155 2.209l-.509.455c-.83.776-1.7 1.539-2.436 2.182v-1.339a.98.98 0 0 0-.977-.977 9.487 9.487 0 0 1-6.064-1.995.777.777 0 0 0-1.125 1.071 10.58 10.58 0 0 0 6.613 2.477v1.606a1.168 1.168 0 0 0 1.165 1.165h.093c.242-.026.471-.124.656-.281a97.015 97.015 0 0 0 3.146-2.785l.482-.455a16.585 16.585 0 0 0 2.449-2.583 11.683 11.683 0 0 0 1.366-8.795Z" fill="#fff"/><path d="M231.875 692.825a.99.99 0 0 0 0 1.339.965.965 0 0 0 .656.254.982.982 0 0 0 .723-.308l3.373-3.668v-.227a.185.185 0 0 0 0-.081.18.18 0 0 1 0-.08.127.127 0 0 1 0-.067.18.18 0 0 0 0-.08v-.147l-3.373-3.655a.982.982 0 0 0-1.433 1.339l1.874 2.034h-6.693a.983.983 0 0 0-.902.604.957.957 0 0 0-.075.374.979.979 0 0 0 .977.963h6.693l-1.82 1.406Z" fill="#fff"/><path d="M1032.68 640.078c18.27 0 33.09-14.815 33.09-33.09 0-18.276-14.82-33.091-33.09-33.091-18.28 0-33.092 14.815-33.092 33.091 0 18.275 14.812 33.09 33.092 33.09Z" fill="#FA7E25"/><path opacity=".7" d="M1049.69 593.009a5.891 5.891 0 0 0-1.64-3.109 5.85 5.85 0 0 0-3.14-1.6 15.337 15.337 0 0 0-3.16-.326 9.737 9.737 0 0 0-4.88 1.124 6.72 6.72 0 0 0-2.28 2.782 6.686 6.686 0 0 0-.54 3.556 7.081 7.081 0 0 0 1.86 5.457c.67.73 1.49 1.312 2.4 1.707.91.396 1.9.597 2.89.591v.799c0 .389.15.762.43 1.037.27.275.65.429 1.04.429.3-.034.59-.152.83-.342.73-.652 1.63-1.417 2.49-2.232l.39-.359a14.94 14.94 0 0 0 2.02-2.134 9.745 9.745 0 0 0 1.38-3.562 9.814 9.814 0 0 0-.09-3.818Z" fill="#fff"/><path d="M1027.53 608.095a6.403 6.403 0 0 0 3.55-1.124 6.464 6.464 0 0 0 2.34-2.905 6.45 6.45 0 0 0 .33-3.711 6.479 6.479 0 0 0-1.78-3.274 6.421 6.421 0 0 0-3.3-1.739 6.426 6.426 0 0 0-3.7.38 6.484 6.484 0 0 0-2.88 2.371 6.463 6.463 0 0 0-1.08 3.567 6.525 6.525 0 0 0 6.52 6.435Zm1.01 1.45h-2.02c-2.41 0-4.72.956-6.42 2.658a9.085 9.085 0 0 0-2.66 6.417v1.76c0 .562.23 1.1.63 1.498.39.397.93.62 1.49.62h15.94c.56 0 1.1-.223 1.49-.62.4-.398.63-.936.63-1.498v-1.76a9.127 9.127 0 0 0-2.67-6.412 9.075 9.075 0 0 0-6.41-2.663ZM859.623 189.259v-.535a6.575 6.575 0 0 0-6.559-6.573h-2.155v-.093a3.735 3.735 0 0 0-7.47 0v.093h-2.677a6.576 6.576 0 0 0-6.559 6.573v.535a2.963 2.963 0 0 0-2.263 2.852v4.417a2.976 2.976 0 0 0 2.33 2.891v.536a6.57 6.57 0 0 0 6.559 6.559h12.262a6.573 6.573 0 0 0 6.559-6.559v-.536a2.955 2.955 0 0 0 2.316-2.891v-4.417a2.959 2.959 0 0 0-2.343-2.852Zm-6.559 15.18h-12.182a4.469 4.469 0 0 1-4.457-4.457v-11.258a4.469 4.469 0 0 1 4.457-4.458h12.262a4.474 4.474 0 0 1 4.458 4.458v11.258a4.478 4.478 0 0 1-1.329 3.167 4.481 4.481 0 0 1-3.182 1.29h-.027Zm-7.51-22.381a1.633 1.633 0 1 1 3.253 0v.093h-3.239a.228.228 0 0 0 .013-.093h-.027Zm-12.047 14.497v-4.444a1.336 1.336 0 0 1 .749-1.219v6.854a1.338 1.338 0 0 1-.736-1.191h-.013Zm26.866 0a1.344 1.344 0 0 1-.737 1.218v-6.84a1.333 1.333 0 0 1 .737 1.204v4.418Z" fill="#fff"/><path d="M847.214 189.165a5.199 5.199 0 0 0-5.108 6.204 5.195 5.195 0 1 0 5.108-6.204Zm0 8.795a3.612 3.612 0 0 1-3.56-4.311 3.615 3.615 0 1 1 3.56 4.311Z" fill="#fff"/><path d="M847.214 192.833a1.512 1.512 0 1 0 0 3.024 1.512 1.512 0 0 0 0-3.024Zm.415 1.338a.43.43 0 0 1-.303-.731.43.43 0 0 1 .659.065.43.43 0 0 1 .072.238.422.422 0 0 1-.298.425.424.424 0 0 1-.184.017l.054-.014Z" fill="#fff"/><path fill-rule="evenodd" clip-rule="evenodd" d="M7.376 549.473a6.251 6.251 0 1 0 .001 12.502 6.251 6.251 0 0 0 0-12.502ZM0 555.724a7.377 7.377 0 1 1 14.754 0 7.377 7.377 0 0 1-14.754 0Z" fill="#E7EEF1"/><g filter="url(#organizations__d)"><path d="M461.533 262.803H256.407c-3.69 0-6.681 2.978-6.681 6.653v133.741c0 3.674 2.991 6.653 6.681 6.653h205.126c3.69 0 6.682-2.979 6.682-6.653V269.456c0-3.675-2.992-6.653-6.682-6.653Z" fill="#F5F8F9"/></g><path fill-rule="evenodd" clip-rule="evenodd" d="M468.213 279.117H249.726v-9.36a6.703 6.703 0 0 1 6.699-6.703H461.51a6.703 6.703 0 0 1 6.703 6.703v9.36Z" fill="#343C4C"/><path d="M263.718 268.644c.4.001.798.041 1.19.118a1.703 1.703 0 0 1 1.421 1.369c.088.436.101.883.041 1.323-.048.428-.2.838-.441 1.195-.22.286-.471.545-.749.775l-.169.154c-.246.236-.513.461-.749.666v-.348a.38.38 0 0 0-.379-.38 3.236 3.236 0 0 1-2.052-.662 2.824 2.824 0 0 1-.662-1.872c0-.543.077-1.538.831-1.984a3.387 3.387 0 0 1 1.718-.354Zm0-.313a3.71 3.71 0 0 0-1.856.4 2.471 2.471 0 0 0-.98 2.262c-.017.763.25 1.505.749 2.082a3.492 3.492 0 0 0 2.252.754.07.07 0 0 1 .047.019.07.07 0 0 1 .019.048v.748a.13.13 0 0 0 .128.129.118.118 0 0 0 .072-.031 26.6 26.6 0 0 0 1.062-.928c.352-.296.674-.624.964-.98a3.707 3.707 0 0 0 .446-2.759 2.014 2.014 0 0 0-1.661-1.616 6.103 6.103 0 0 0-1.242-.128Z" fill="#2CC3D5"/><path opacity=".5" fill-rule="evenodd" clip-rule="evenodd" d="M456.072 274.268a2.714 2.714 0 1 0 0-5.428 2.714 2.714 0 0 0 0 5.428Z" fill="#8CA0B3"/><path fill-rule="evenodd" clip-rule="evenodd" d="M450.438 274.945v-6.78h.588v6.78h-.588Z" fill="#738192"/><path d="M446.579 271.986a.207.207 0 0 1-.123-.041l-.77-.651a.067.067 0 0 1-.023-.027.085.085 0 0 1-.008-.035.075.075 0 0 1-.007-.033.08.08 0 0 1 .007-.034.104.104 0 0 1 .062-.036.11.11 0 0 1 .067 0l.774.652.775-.652h.071a.073.073 0 0 1 .036 0h.031a.073.073 0 0 1 0 .036.073.073 0 0 1 0 .036.072.072 0 0 1 0 .041.065.065 0 0 1-.026.026l-.769.651a.218.218 0 0 1-.123.041l.026.026Z" fill="#8CA0B3"/><path opacity=".3" fill-rule="evenodd" clip-rule="evenodd" d="M271.389 271.555c0-.984.797-1.782 1.781-1.782h10.058a1.782 1.782 0 0 1 0 3.564H273.17a1.781 1.781 0 0 1-1.781-1.782Zm158.648 0c0-.984.797-1.782 1.781-1.782h10.058a1.782 1.782 0 0 1 0 3.564h-10.058a1.781 1.781 0 0 1-1.781-1.782Zm-141.893 0c0-.984.798-1.782 1.782-1.782h12.735a1.781 1.781 0 0 1 0 3.564h-12.735a1.782 1.782 0 0 1-1.782-1.782Z" fill="#8CA0B3"/><path d="M400.987 323.682v41.403a6.492 6.492 0 0 0 6.493 6.492h33.572a6.491 6.491 0 0 0 6.492-6.492v-41.403a6.492 6.492 0 0 0-6.492-6.493H407.48a6.493 6.493 0 0 0-6.493 6.493Z" fill="#fff"/><path d="M424.253 345.635a8.768 8.768 0 0 0 8.767-8.768 8.768 8.768 0 1 0-17.535 0 8.768 8.768 0 0 0 8.768 8.768Z" fill="#B97CE8"/><path fill-rule="evenodd" clip-rule="evenodd" d="M412.403 353.144a2.251 2.251 0 0 1 2.252-2.251h19.209a2.252 2.252 0 0 1 0 4.503h-19.209a2.252 2.252 0 0 1-2.252-2.252Zm4.15 7.523c0-.777.63-1.407 1.408-1.407h12.583a1.407 1.407 0 0 1 0 2.815h-12.583c-.778 0-1.408-.63-1.408-1.408Z" fill="#D2DFE6"/><path d="M335.153 323.682v41.403a6.492 6.492 0 0 0 6.492 6.492h33.573a6.492 6.492 0 0 0 6.492-6.492v-41.403a6.493 6.493 0 0 0-6.492-6.493h-33.573a6.493 6.493 0 0 0-6.492 6.493Z" fill="#fff"/><path d="M358.418 345.635a8.769 8.769 0 1 0-.001-17.537 8.769 8.769 0 0 0 .001 17.537Z" fill="#BED42B"/><path fill-rule="evenodd" clip-rule="evenodd" d="M346.569 353.144a2.251 2.251 0 0 1 2.251-2.251h19.209a2.251 2.251 0 1 1 0 4.503H348.82a2.251 2.251 0 0 1-2.251-2.252Zm4.15 7.523c0-.777.63-1.407 1.407-1.407h12.583a1.407 1.407 0 0 1 0 2.815h-12.583c-.777 0-1.407-.63-1.407-1.408Z" fill="#D2DFE6"/><path d="M270.371 323.682v41.403a6.491 6.491 0 0 0 6.492 6.492h33.572a6.492 6.492 0 0 0 6.493-6.492v-41.403a6.493 6.493 0 0 0-6.493-6.493h-33.572a6.492 6.492 0 0 0-6.492 6.493Z" fill="#fff"/><path d="M293.636 345.635a8.769 8.769 0 1 0-.001-17.537 8.769 8.769 0 0 0 .001 17.537Z" fill="#2CC3D5"/><path fill-rule="evenodd" clip-rule="evenodd" d="M281.786 353.144a2.251 2.251 0 0 1 2.252-2.251h19.209a2.252 2.252 0 0 1 0 4.503h-19.209a2.252 2.252 0 0 1-2.252-2.252Zm4.15 7.523c0-.777.63-1.407 1.408-1.407h12.583a1.407 1.407 0 0 1 0 2.815h-12.583c-.778 0-1.408-.63-1.408-1.408Z" fill="#D2DFE6"/><g filter="url(#organizations__e)"><path d="M739.35 262.803H534.223c-3.69 0-6.681 2.978-6.681 6.653v133.741c0 3.674 2.991 6.653 6.681 6.653H739.35c3.69 0 6.681-2.979 6.681-6.653V269.456c0-3.675-2.991-6.653-6.681-6.653Z" fill="#F5F8F9"/></g><path fill-rule="evenodd" clip-rule="evenodd" d="M746.029 279.117H527.543v-9.36a6.702 6.702 0 0 1 6.698-6.703h205.085a6.703 6.703 0 0 1 6.703 6.703v9.36Z" fill="#343C4C"/><path d="M541.535 268.644a6.26 6.26 0 0 1 1.19.118 1.71 1.71 0 0 1 1.42 1.369c.088.436.102.883.041 1.323a2.657 2.657 0 0 1-.441 1.195c-.22.286-.471.545-.749.775l-.169.154c-.246.236-.513.461-.749.666v-.348a.38.38 0 0 0-.379-.38 3.236 3.236 0 0 1-2.052-.662 2.828 2.828 0 0 1-.661-1.872c0-.543.077-1.538.831-1.984a3.382 3.382 0 0 1 1.718-.354Zm0-.313a3.714 3.714 0 0 0-1.857.4 2.469 2.469 0 0 0-.98 2.262c-.017.763.25 1.505.749 2.082.64.507 1.436.773 2.252.754.018 0 .034.007.047.019.012.013.02.03.02.048v.748a.129.129 0 0 0 .128.129.12.12 0 0 0 .072-.031c.364-.298.712-.61 1.061-.928.352-.296.675-.624.964-.98a3.712 3.712 0 0 0 .447-2.759 2.014 2.014 0 0 0-1.662-1.616 6.086 6.086 0 0 0-1.241-.128Z" fill="#2CC3D5"/><path opacity=".5" fill-rule="evenodd" clip-rule="evenodd" d="M733.888 274.268a2.711 2.711 0 0 0 1.918-4.631 2.707 2.707 0 0 0-2.956-.588 2.71 2.71 0 0 0-1.675 2.506 2.713 2.713 0 0 0 2.713 2.713Z" fill="#8CA0B3"/><path fill-rule="evenodd" clip-rule="evenodd" d="M728.255 274.945v-6.78h.588v6.78h-.588Z" fill="#738192"/><path d="M724.395 271.986a.209.209 0 0 1-.123-.041l-.77-.651a.087.087 0 0 1-.023-.027.071.071 0 0 1-.007-.035.076.076 0 0 1-.008-.033.08.08 0 0 1 .008-.034.099.099 0 0 1 .061-.036.11.11 0 0 1 .067 0l.774.652.775-.652h.072a.073.073 0 0 1 .036 0h.03a.073.073 0 0 1 0 .036.073.073 0 0 1 0 .036.058.058 0 0 1 0 .041.057.057 0 0 1-.025.026l-.77.651a.218.218 0 0 1-.123.041l.026.026Z" fill="#8CA0B3"/><path opacity=".3" fill-rule="evenodd" clip-rule="evenodd" d="M549.205 271.555c0-.984.798-1.782 1.782-1.782h10.057a1.782 1.782 0 0 1 0 3.564h-10.057a1.782 1.782 0 0 1-1.782-1.782Zm158.648 0c0-.984.798-1.782 1.782-1.782h10.058a1.781 1.781 0 0 1 0 3.564h-10.058a1.782 1.782 0 0 1-1.782-1.782Zm-141.893 0c0-.984.798-1.782 1.782-1.782h12.735a1.781 1.781 0 0 1 0 3.564h-12.735a1.782 1.782 0 0 1-1.782-1.782Z" fill="#8CA0B3"/><path d="M678.804 323.682v41.403a6.492 6.492 0 0 0 6.493 6.492h33.572a6.492 6.492 0 0 0 6.493-6.492v-41.403a6.493 6.493 0 0 0-6.493-6.493h-33.572a6.493 6.493 0 0 0-6.493 6.493Z" fill="#fff"/><path d="M702.069 345.635a8.768 8.768 0 1 0 0-17.536 8.768 8.768 0 0 0 0 17.536Z" fill="#F1E733"/><path fill-rule="evenodd" clip-rule="evenodd" d="M690.22 353.144a2.251 2.251 0 0 1 2.252-2.251h19.209a2.252 2.252 0 0 1 0 4.503h-19.209a2.252 2.252 0 0 1-2.252-2.252Zm4.15 7.523c0-.777.63-1.407 1.407-1.407h12.583a1.407 1.407 0 1 1 0 2.815h-12.583c-.777 0-1.407-.63-1.407-1.408Z" fill="#D2DFE6"/><path d="M612.969 323.682v41.403a6.492 6.492 0 0 0 6.493 6.492h33.572a6.491 6.491 0 0 0 6.492-6.492v-41.403a6.492 6.492 0 0 0-6.492-6.493h-33.572a6.493 6.493 0 0 0-6.493 6.493Z" fill="#fff"/><path d="M636.234 345.635a8.768 8.768 0 1 0 0-17.536 8.768 8.768 0 0 0 0 17.536Z" fill="#FF7B80"/><path fill-rule="evenodd" clip-rule="evenodd" d="M624.385 353.144a2.251 2.251 0 0 1 2.251-2.251h19.21a2.251 2.251 0 0 1 0 4.503h-19.21a2.251 2.251 0 0 1-2.251-2.252Zm4.15 7.523c0-.777.63-1.407 1.407-1.407h12.583a1.407 1.407 0 1 1 0 2.815h-12.583c-.777 0-1.407-.63-1.407-1.408Z" fill="#D2DFE6"/><path d="M548.187 323.682v41.403a6.492 6.492 0 0 0 6.492 6.492h33.573a6.492 6.492 0 0 0 6.492-6.492v-41.403a6.493 6.493 0 0 0-6.492-6.493h-33.573a6.493 6.493 0 0 0-6.492 6.493Z" fill="#fff"/><path d="M571.452 345.635a8.768 8.768 0 1 0 0-17.536 8.768 8.768 0 0 0 0 17.536Z" fill="#55CFFF"/><path fill-rule="evenodd" clip-rule="evenodd" d="M559.603 353.144a2.251 2.251 0 0 1 2.251-2.251h19.209a2.251 2.251 0 1 1 0 4.503h-19.209a2.251 2.251 0 0 1-2.251-2.252Zm4.15 7.523c0-.777.63-1.407 1.407-1.407h12.583a1.408 1.408 0 1 1 0 2.815H565.16c-.777 0-1.407-.63-1.407-1.408Z" fill="#D2DFE6"/><path fill-rule="evenodd" clip-rule="evenodd" d="M779.103 476.859a8.104 8.104 0 0 1-1.346 11.382l-51.819 40.857a7.515 7.515 0 0 1-.482.352l-4.536-6.716c4.536 6.716 4.538 6.715 4.541 6.713l.004-.002.007-.005.012-.008.011-.008-.025.018a19.151 19.151 0 0 0-1.166.921c-.825.706-1.798 1.649-2.606 2.703-1.805 2.355-1.423 3.189-1.203 3.598l.131.244c2.602 4.839 9.522 17.71 15.494 31.044 3.031 6.766 5.908 13.847 7.85 20.172.971 3.161 1.759 6.295 2.194 9.209.416 2.795.605 5.989-.085 8.996a8.105 8.105 0 0 1-15.8-3.622s.014-.064.027-.203a6.28 6.28 0 0 0 .021-.609c-.005-.542-.06-1.26-.196-2.171-.274-1.839-.826-4.136-1.657-6.842-1.661-5.409-4.235-11.802-7.147-18.304-5.731-12.794-12.426-25.246-15.005-30.045l-.105-.194c-4.772-8.878-.608-16.928 2.616-21.135 1.708-2.227 3.562-3.985 4.935-5.159a35.33 35.33 0 0 1 1.761-1.414c.224-.168.411-.303.555-.405l51.636-40.714a8.106 8.106 0 0 1 11.383 1.347Zm73.992 160.603a8.105 8.105 0 0 1 8.323 7.881l7.374 270.114a8.105 8.105 0 0 1-16.204.442l-7.374-270.114a8.105 8.105 0 0 1 7.881-8.323Zm-63.663 9.924a8.105 8.105 0 0 1 7.921 8.285l-5.799 258.525a8.106 8.106 0 0 1-16.206-.364l5.799-258.525a8.106 8.106 0 0 1 8.285-7.921Z" fill="#CB9685"/><path d="M802.085 928.613v.11c-.169 7.723-3.069 8.47-18.654 8.47-15.127 0-18.416-1.266-18.615-8.52v-.06c0-.289.05-.558.09-.817.617 5.979 4.444 7.105 18.525 7.105 14.569 0 18.047-.658 18.575-7.045.04.239.059.498.079.757Z" fill="#DE5C61"/><path d="M802.085 926.321v.1c0 .508 0 .996-.079 1.435-.528 6.387-3.986 7.045-18.575 7.045-14.081 0-17.937-1.106-18.525-7.105 0-.449-.07-.927-.09-1.425.129-2.531 1.236-4.146 3.468-6.208 2.232-2.063 1.056-9.039 7.234-9.218h15.865c6.188.179 4.873 7.045 7.235 9.218 2.361 2.172 3.338 3.627 3.467 6.158Z" fill="#FF7B80"/><path d="M879.325 928.613v.11c-.169 7.723-3.069 8.47-18.655 8.47-15.127 0-18.425-1.266-18.614-8.52v-.06a6.78 6.78 0 0 1 .089-.817c.608 5.979 4.435 7.105 18.525 7.105 14.569 0 18.047-.658 18.575-7.045.03.239.06.498.08.757Z" fill="#DE5C61"/><path d="M879.325 926.321v.1c0 .508 0 .996-.08 1.435-.528 6.387-3.986 7.045-18.575 7.045-14.09 0-17.937-1.106-18.525-7.105a21.23 21.23 0 0 1-.089-1.425c.129-2.531 1.235-4.146 3.468-6.208 2.232-2.063 1.046-9.039 7.234-9.218h15.865c6.178.179 4.873 7.045 7.234 9.218 2.362 2.172 3.339 3.627 3.468 6.158Z" fill="#FF7B80"/><path d="m871.971 654.762-.08 242.391c0 1.844-5.75 3.338-12.845 3.338h-.389c-7.095 0-12.835-1.494-12.835-3.338l-2.91-124.424-3.069-115.117c-3.159.747-10.384 1.046-17.658.996-7.275-.05-14.499-.229-17.658-.996l-3.109 115.117-2.9 124.424c0 1.844-5.75 3.338-12.845 3.338h-.419c-7.085 0-12.845-1.494-12.845-3.338l-.07-242.391a81.5 81.5 0 0 1-2.77-19.024v-3.049a68.882 68.882 0 0 1 2.77-19.651c0-1.993 4.544-3.867 12.038-5.292a69.75 69.75 0 0 1 1.794-.319 224.897 224.897 0 0 1 35.486-2.521h.996c27.175 0 49.308 3.677 49.318 8.132.009 0 6.268 18.385 0 41.724Z" fill="#1A2437"/><path opacity=".5" fill-rule="evenodd" clip-rule="evenodd" d="M815.197 617.28h6.48c1.896.04 3.753.03 5.575.01l.496-.005v16.669c0 3.969-2.737 7.327-6.28 7.327-3.545 0-6.271-3.36-6.271-7.327V617.28Zm.982.982v15.692c0 3.587 2.435 6.346 5.289 6.346 2.854 0 5.299-2.76 5.299-6.346v-15.677c-1.666.016-3.369.021-5.105-.015h-5.483Z" fill="#3D4E6C"/><path d="M784.348 607.746c-.997.179-1.874.369-2.741.568-5.839 1.335-9.287 2.99-9.297 4.724a70.25 70.25 0 0 0-2.77 21.036c.699.198 1.411.344 2.132.438a15.557 15.557 0 0 0 17.315-18.321 15.56 15.56 0 0 0-4.639-8.445Z" fill="#121927"/><path opacity=".5" d="M777.94 652.829a80.76 80.76 0 0 1-1.235-5.332 80.724 80.724 0 0 1-1.505-13.433.506.506 0 0 0-.698-.446.506.506 0 0 0-.265.275.52.52 0 0 0-.034.191 83.005 83.005 0 0 0 1.515 13.613 84.048 84.048 0 0 0 1.246 5.331l-2.781 242.322a.501.501 0 0 0 .489.508.499.499 0 0 0 .498-.489l2.77-242.401a.646.646 0 0 0 0-.139Z" fill="#3D4E6C"/><path d="M790.606 621.279a17.013 17.013 0 0 1-19.123 14.719l-.528-.07-1.395-.189v-3.05c.478.11 1.245.2 1.783.269l.548.07a14.041 14.041 0 0 0 14.011-6.926 14.051 14.051 0 0 0 1.754-5.201c.12-1.087.12-2.183 0-3.269.997.12 1.993.239 2.99.349a17.472 17.472 0 0 1-.04 3.298Z" fill="#26334B"/><path d="M859.704 607.746c.996.179 1.873.369 2.74.568 5.84 1.335 9.288 2.99 9.297 4.724a70.282 70.282 0 0 1 2.771 21.036c-.699.198-1.412.344-2.133.438a15.553 15.553 0 0 1-12.675-26.766Z" fill="#121927"/><path opacity=".5" d="M866.131 652.828a81.293 81.293 0 0 0 1.246-5.331 81.926 81.926 0 0 0 1.494-13.433.511.511 0 0 1 .519-.488.499.499 0 0 1 .478.508 82.993 82.993 0 0 1-1.515 13.612 84.507 84.507 0 0 1-1.235 5.332l2.75 242.321a.502.502 0 0 1-.298.467.52.52 0 0 1-.19.042.513.513 0 0 1-.499-.489l-2.75-242.401a.33.33 0 0 1 0-.14Z" fill="#3D4E6C"/><path d="M853.446 621.279a17 17 0 0 0 6.514 11.353 17.004 17.004 0 0 0 12.649 3.366l.528-.07 1.395-.189v-3.05c-.478.11-1.246.2-1.784.269l-.548.07a14.045 14.045 0 0 1-15.765-12.127 15.014 15.014 0 0 1-.05-3.269c-.996.12-1.993.239-2.989.349a17.389 17.389 0 0 0 .05 3.298Z" fill="#26334B"/><path d="M871.891 612.938a2.241 2.241 0 0 0-.06-.847l-.996-2.7c-2.362-6.428-8.082-22.681-8.251-29.746-.309-12.038 1.444-32.666 2.481-39.591-1.943.996-3.827 2.451-5.85 2.451h-73.034c-1.993 0-4.106-1.186-6.039-2.212.997 6.916 2.242 27.314 1.933 39.352-.179 7.065-5.889 23.318-8.251 29.746l-.996 2.7a2.241 2.241 0 0 0-.06.847c0 3.588 22.133 6.498 49.576 6.538 27.444.039 49.577-2.99 49.577-6.538-.02.03-.03.01-.03 0Z" fill="#2CC3D5"/><path fill-rule="evenodd" clip-rule="evenodd" d="M855.634 472.711a8.105 8.105 0 0 1 11.462.094l-5.778 5.684c5.778-5.684 5.779-5.683 5.78-5.682l.044.046.113.115.418.431c.36.373.882.917 1.542 1.614a333.23 333.23 0 0 1 5.445 5.909c4.493 4.992 10.517 11.967 16.608 19.868 6.072 7.875 12.326 16.82 17.198 25.743 4.776 8.746 8.68 18.28 9.166 27.147.529 9.647-3.397 17.861-8.683 24.374-5.24 6.456-12.148 11.682-18.68 15.719-6.588 4.073-13.162 7.161-18.048 9.222a134.518 134.518 0 0 1-5.978 2.362 91.07 91.07 0 0 1-2.21.78l-.139.046-.043.015-.021.006c-.002.001-.004.002-2.416-7.41l2.412 7.412a8.105 8.105 0 0 1-10.215-5.2 8.104 8.104 0 0 1 5.195-10.213l.004-.002.078-.026c.072-.024.189-.063.348-.118.317-.109.801-.279 1.427-.509 1.254-.46 3.07-1.155 5.256-2.077 4.396-1.855 10.167-4.577 15.827-8.076 5.717-3.534 10.96-7.64 14.617-12.146 3.611-4.45 5.327-8.828 5.083-13.272-.286-5.222-2.796-12.189-7.207-20.266-4.314-7.901-10.018-16.103-15.809-23.614-5.77-7.485-11.512-14.136-15.819-18.921a311.249 311.249 0 0 0-5.173-5.614 202.165 202.165 0 0 0-1.426-1.494l-.364-.375-.087-.089-.021-.022-.001-.001a8.104 8.104 0 0 1 .095-11.46Z" fill="#CB9685"/><path fill-rule="evenodd" clip-rule="evenodd" d="M867.851 469.143c-1.687-1.281-5.202-3.696-9.678-3.506a9.414 9.414 0 0 0-9.007 9.805c.186 4.385 3.342 7.941 7.446 8.811.729.579 1.846 1.638 3.359 3.34 3.201 3.599 7.222 8.982 11.814 15.695 9.138 13.358 19.821 30.919 29.64 47.407a9.414 9.414 0 0 0 12.905 3.273c4.468-2.661 5.933-8.439 3.273-12.906-9.818-16.488-20.77-34.507-30.277-48.405-4.73-6.915-9.283-13.078-13.285-17.577-1.981-2.228-4.074-4.33-6.19-5.937Zm-11.842 14.691a.833.833 0 0 0 .19.113c-.13-.088-.192-.119-.19-.113Zm-58.587-10.74a9.006 9.006 0 0 1-8.158 9.78c.068-.007.057-.003-.042.029-.281.091-1.268.413-3.159 1.393-2.264 1.175-5.082 2.895-8.334 5.078-6.487 4.354-14.105 10.142-21.468 16.011-7.335 5.846-14.289 11.67-19.417 16.04a809.811 809.811 0 0 0-6.117 5.263c-.728.633-1.295 1.129-1.678 1.464l-.434.381-.141.124a9.005 9.005 0 0 1-11.921-13.501l5.961 6.751c-5.961-6.751-5.96-6.752-5.96-6.752l.163-.144.459-.403c.401-.35.986-.862 1.733-1.512a822.28 822.28 0 0 1 6.254-5.38c5.22-4.449 12.333-10.407 19.872-16.415 7.51-5.986 15.57-12.125 22.656-16.882 3.534-2.371 6.976-4.501 10.08-6.111 2.812-1.458 6.386-3.057 9.871-3.372a9.005 9.005 0 0 1 9.78 8.158Z" fill="#2CC3D5"/><path fill-rule="evenodd" clip-rule="evenodd" d="M851.209 467.978a9.007 9.007 0 0 1 12.708-.854l-5.927 6.781" fill="#2CC3D5"/><path opacity=".3" d="m778.279 490.457 2.78-8.58s-13.244 12.088-18.266 19.033l-.578.997 16.064-11.45Z" fill="#2498A8"/><path d="M856.316 543.631s-8.132.269-16.602.269c0 0 18.744.149 21.076 9.437.179.887.359 1.793.528 2.72a68.123 68.123 0 0 1 1.425 11.629l2.332-27.722c-2.541 1.943-5.939 3.667-8.759 3.667Z" fill="#28ADBF"/><path opacity=".5" d="M864.855 484.956s13.573 21.356 15.785 29.358l.488 1.544-12.735-16.193-3.538-14.709Z" fill="#2498A8"/><path d="m782.872 779.39-.898-.31a.872.872 0 0 0-.716.064.857.857 0 0 0-.422.581l-1.621 7.687a.88.88 0 0 0 1.194.975l10.509-5.101a.877.877 0 0 1 1.168.402l1.254 2.566 1.45-7.736a.867.867 0 0 0-1.193-.976.855.855 0 0 1-.716-.068.865.865 0 0 1-.418-.584l-1.365-6.628a.875.875 0 0 0-1.215-.63.877.877 0 0 0-.39.338l-5.593 9.058a.877.877 0 0 1-1.028.362Zm78.151-2.802.949.029a.893.893 0 0 0 .663-.272.884.884 0 0 0 .239-.676l-.799-7.803a.874.874 0 0 0-.569-.733.879.879 0 0 0-.908.188l-8.395 8.031a.895.895 0 0 1-1.243-.022l-1.965-2.064.93 7.748a.874.874 0 0 0 .517.707.864.864 0 0 0 .87-.104.879.879 0 0 1 1.047-.003c.101.074.184.17.245.279l3.301 5.895a.876.876 0 0 0 1.615-.203l2.649-10.323a.888.888 0 0 1 .854-.674Z" fill="#CB9685"/><path d="m823.55 542.186-43.408-1.894 1.993 35.446c.937-22.082 41.415-33.552 41.415-33.552Z" fill="#28ADBF" fill-opacity=".6"/><path d="M872.29 516.087c-3.548-15.216-12.208-50.822-12.208-50.822 0-1.744-10.602-2.361-34.389-2.83v-.119l-3.458.049-3.438-.079v.119c-23.787.469-34.4 1.086-34.4 2.83 0 0-8.649 35.636-12.197 50.822-3.418 14.659 6.667 27.604 16.243 27.604h67.623c9.567.03 19.642-12.915 16.224-27.574Z" fill="#2CC3D5"/><path d="M820.826 359.921c1.534-.279 18.306-13.583 33.164 3.318 10.513 11.958.896 19.861 9.895 28.102 7.972 7.314 19.053 26.597 3.916 42.561-7.095 7.484 11.43 36.542-26.228 23.218-23.916-8.48-25.909-3.139-25.909-3.139l5.162-94.06Z" fill="#2C2A46"/><path d="M832.505 364.365s.807-7.065-10.324-11.44c-11.131-4.374-37.947 1.385-37.429 24.405.518 23.019-24.016 24.066-17.399 41.375 6.617 17.309-11.739 19.561 5.381 33.582s46.637 10.324 46.228-13.732c-.408-24.055 13.543-74.19 13.543-74.19Z" fill="#2C2A46"/><path d="M821.912 476.961c5.531 0 10.015-3.694 10.015-8.251 0-4.557-4.484-8.251-10.015-8.251-5.531 0-10.015 3.694-10.015 8.251 0 4.557 4.484 8.251 10.015 8.251Z" fill="#EFB8C2"/><path d="M821.912 476.961c5.531 0 10.015-3.694 10.015-8.251 0-4.557-4.484-8.251-10.015-8.251-5.531 0-10.015 3.694-10.015 8.251 0 4.557 4.484 8.251 10.015 8.251Z" fill="#CB9685"/><path fill-rule="evenodd" clip-rule="evenodd" d="M821.912 461.134c-5.286 0-9.339 3.509-9.339 7.576s4.053 7.576 9.339 7.576c5.286 0 9.34-3.509 9.34-7.576s-4.054-7.576-9.34-7.576Zm-10.69 7.576c0-5.047 4.914-8.927 10.69-8.927s10.69 3.88 10.69 8.927c0 5.046-4.914 8.927-10.69 8.927s-10.69-3.881-10.69-8.927Z" fill="#CB9685"/><path d="M822.729 445.003h-1.624a30.215 30.215 0 0 1-6.547-.708v18.934a6.587 6.587 0 0 0 1.928 4.671 6.596 6.596 0 0 0 4.669 1.936h1.524a6.606 6.606 0 0 0 4.686-1.953 6.593 6.593 0 0 0 1.911-4.704v-18.933a30.822 30.822 0 0 1-6.547.757Z" fill="#CB9685"/><path d="M814.578 449.447v5.451s1.564-2.68 7.334-2.68 7.364 2.989 7.364 2.989v-6.597l-14.718-.269.02 1.106Z" fill="#BF7D68"/><path d="M853.352 386.079v32.666a30.574 30.574 0 0 1-30.623 30.623h-1.624a30.628 30.628 0 0 1-30.623-30.603v-32.686a30.624 30.624 0 0 1 30.623-30.623h1.624a30.624 30.624 0 0 1 30.623 30.623Z" fill="#CB9685"/><path d="M791.239 410.225v14.011a4.764 4.764 0 0 1-4.683-4.774v-4.464a4.77 4.77 0 0 1 4.683-4.773Zm64.823 4.773v4.464a4.763 4.763 0 0 1-4.683 4.774v-14.011a4.77 4.77 0 0 1 4.683 4.773Z" fill="#CB9685"/><path d="M852.605 395.785s.577 10.035 0 13.892c-.578 3.856 2.311-13.892 2.311-13.892h-2.311Z" fill="#160566"/><path d="M823.307 359.981a54.318 54.318 0 0 1 12.646-5.112 23.703 23.703 0 0 1 6.876-.608c2.361.136 4.655.84 6.686 2.053a14.574 14.574 0 0 1 4.893 5.032l.937 1.445c.289.498.568.996.847 1.505.598.996 1.056 2.052 1.574 3.079a54.685 54.685 0 0 1 2.382 6.467c.668 2.182 1.236 4.375 1.993 6.448a19.707 19.707 0 0 0 3.159 5.7 45.397 45.397 0 0 0 4.813 4.633 46.08 46.08 0 0 1 4.684 5.073 30.89 30.89 0 0 1 3.667 5.879 21.226 21.226 0 0 1 1.684 13.573 27.684 27.684 0 0 1-6.736 11.788 28.37 28.37 0 0 0 5.979-11.958 20.16 20.16 0 0 0-1.993-12.875 26.87 26.87 0 0 0-1.694-2.86c-.578-.996-1.296-1.803-1.993-2.69a44.93 44.93 0 0 0-4.614-4.833 44.683 44.683 0 0 1-4.983-4.764 20.964 20.964 0 0 1-3.428-6.118c-.797-2.183-1.355-4.395-1.993-6.547a57.76 57.76 0 0 0-2.262-6.308c-.478-.997-.917-1.993-1.475-2.99-.269-.488-.518-.996-.797-1.465l-.887-1.425a14.125 14.125 0 0 0-4.374-4.753 13.762 13.762 0 0 0-6.149-2.103 23.65 23.65 0 0 0-6.637.379 39.304 39.304 0 0 0-6.497 1.794c-2.142.747-4.185 1.734-6.308 2.561Z" fill="#2C2A46"/><path d="M832.784 367.863a9.617 9.617 0 0 0-3.289-7.115 20.92 20.92 0 0 0-6.866-4.196 23.728 23.728 0 0 0-7.842-1.464 35.25 35.25 0 0 0-7.972.667c-2.633.508-5.2 1.31-7.653 2.392a26.27 26.27 0 0 0-6.697 4.255 20.928 20.928 0 0 0-7.075 13.712c-.15 1.305-.18 2.611-.279 4.036a29.155 29.155 0 0 1-.618 4.135 24.342 24.342 0 0 1-3.298 7.683c-3.05 4.724-7.524 8.122-11.391 11.809a16.374 16.374 0 0 0-4.444 6.448 11.268 11.268 0 0 0-.468 3.876 16.36 16.36 0 0 0 .747 3.896 20.538 20.538 0 0 1 1.056 8.142 17.668 17.668 0 0 1-.867 3.986 35.827 35.827 0 0 1-1.634 3.777 22.43 22.43 0 0 0 2.113-7.793 19.97 19.97 0 0 0-1.356-7.882 17.125 17.125 0 0 1-.926-4.076c-.108-1.412.03-2.831.408-4.195a17.363 17.363 0 0 1 4.534-6.976c1.924-1.993 3.986-3.757 5.92-5.64a34.564 34.564 0 0 0 5.181-6.109 22.998 22.998 0 0 0 3.05-7.264c.276-1.295.463-2.607.558-3.927.08-1.295.09-2.71.249-4.105a23.16 23.16 0 0 1 2.441-7.972 21.881 21.881 0 0 1 5.222-6.538 27.05 27.05 0 0 1 7.055-4.404 33.272 33.272 0 0 1 7.973-2.362 35.748 35.748 0 0 1 8.231-.508c2.771.103 5.503.689 8.071 1.734a21.392 21.392 0 0 1 6.817 4.584 11.82 11.82 0 0 1 2.321 3.398 7.961 7.961 0 0 1 .728 3.996Z" fill="#2C2A46"/><path d="M818.833 353.872c-23.917-3.896-34.28 27.185-32.885 34.33.737 3.717 1.993 9.815 2.989 14.808 0 0 2.89 17.738 2.312 13.881a26.926 26.926 0 0 1-.219-2.78 17.55 17.55 0 0 1 1.275-7.175c1.754-4.345 4.126-9.676 4.126-9.676s15.715 2.461 29.616-3.837c13.902-6.297 19.432-26.457 19.432-26.457s-2.73-9.188-26.646-13.094Z" fill="#2C2A46"/><path d="M819.909 352.855c33.224-5.59 38.236 26.966 36.791 34.111-1.445 7.145-4.215 27.833-4.215 27.833 0-2.831-3.099-22.92-5.371-26.358-11.53-17.559-27.205-35.586-27.205-35.586Z" fill="#2C2A46"/><path d="M845.27 366.956a46.213 46.213 0 0 1-1.814 7.833 46.949 46.949 0 0 1-3.069 7.494 36.513 36.513 0 0 1-4.434 6.856 32.383 32.383 0 0 1-2.82 2.989c-.529.449-1.067.887-1.605 1.325-.269.22-.528.449-.817.648l-.877.558a42.981 42.981 0 0 1-15.276 5.591c-2.657.473-5.345.75-8.042.827a47 47 0 0 1-8.032-.409 78.42 78.42 0 0 0 15.745-1.993 57.333 57.333 0 0 0 7.503-2.262c.618-.219 1.206-.488 1.814-.747.608-.259 1.206-.489 1.774-.797l1.744-.877c.568-.309 1.076-.678 1.624-.997l.817-.498c.259-.18.499-.389.748-.588l1.534-1.266c.907-.916 1.864-1.773 2.681-2.78a39.955 39.955 0 0 0 4.484-6.398 59.111 59.111 0 0 0 3.548-7.065 76.965 76.965 0 0 0 2.77-7.444Z" fill="#2C2A46"/><path d="M821.391 495.691c2.178.007 4.35.208 6.487.601 1.904.272 3.672 1.09 5.059 2.341 1.387 1.251 2.325 2.874 2.685 4.646.478 2.222.553 4.504.224 6.751a13.078 13.078 0 0 1-2.404 6.096 25.458 25.458 0 0 1-4.082 3.951l-.923.785c-1.342 1.204-2.796 2.355-4.082 3.402v-1.779c0-.514-.218-1.006-.606-1.369a2.14 2.14 0 0 0-1.463-.568c-4.03.104-7.977-1.087-11.183-3.375-2.397-2.671-3.679-6.064-3.607-9.551 0-2.773.419-7.85 4.529-10.126a19.56 19.56 0 0 1 9.366-1.805Zm0-1.597a21.451 21.451 0 0 0-10.121 2.041c-1.893 1.317-3.383 3.076-4.32 5.101a11.865 11.865 0 0 0-1.02 6.439c-.094 3.892 1.361 7.678 4.082 10.623 3.486 2.584 7.828 3.945 12.274 3.847.096 0 .189.035.257.099a.332.332 0 0 1 .107.241v3.82c0 .174.073.34.204.463a.727.727 0 0 0 .494.191.637.637 0 0 0 .392-.157c1.985-1.517 3.886-3.114 5.787-4.736a38.238 38.238 0 0 0 5.257-4.998c2.741-4.216 3.614-9.267 2.432-14.077-.416-2.081-1.511-3.99-3.133-5.466-1.621-1.475-3.691-2.445-5.926-2.776a35.758 35.758 0 0 0-6.766-.655Z" fill="#fff"/><defs><filter id="organizations__a" x="834.192" y="258.295" width="245.538" height="174.095" filterUnits="userSpaceOnUse" color-interpolation-filters="sRGB"><feFlood flood-opacity="0" result="BackgroundImageFix"/><feColorMatrix in="SourceAlpha" values="0 0 0 0 0 0 0 0 0 0 0 0 0 0 0 0 0 0 127 0" result="hardAlpha"/><feOffset dy="9.016"/><feGaussianBlur stdDeviation="6.762"/><feColorMatrix values="0 0 0 0 0.374547 0 0 0 0 0.481553 0 0 0 0 0.601935 0 0 0 0.2 0"/><feBlend in2="BackgroundImageFix" result="effect1_dropShadow_10272_1585"/><feBlend in="SourceGraphic" in2="effect1_dropShadow_10272_1585" result="shape"/></filter><filter id="organizations__b" x="167.849" y="895.956" width="567.437" height="61.162" filterUnits="userSpaceOnUse" color-interpolation-filters="sRGB"><feFlood flood-opacity="0" result="BackgroundImageFix"/><feBlend in="SourceGraphic" in2="BackgroundImageFix" result="shape"/><feGaussianBlur stdDeviation="7" result="effect1_foregroundBlur_10272_1585"/></filter><filter id="organizations__c" x="726.078" y="915.853" width="194.916" height="47.897" filterUnits="userSpaceOnUse" color-interpolation-filters="sRGB"><feFlood flood-opacity="0" result="BackgroundImageFix"/><feBlend in="SourceGraphic" in2="BackgroundImageFix" result="shape"/><feGaussianBlur stdDeviation="7" result="effect1_foregroundBlur_10272_1585"/></filter><filter id="organizations__d" x="236.201" y="258.295" width="245.537" height="174.095" filterUnits="userSpaceOnUse" color-interpolation-filters="sRGB"><feFlood flood-opacity="0" result="BackgroundImageFix"/><feColorMatrix in="SourceAlpha" values="0 0 0 0 0 0 0 0 0 0 0 0 0 0 0 0 0 0 127 0" result="hardAlpha"/><feOffset dy="9.016"/><feGaussianBlur stdDeviation="6.762"/><feColorMatrix values="0 0 0 0 0.374547 0 0 0 0 0.481553 0 0 0 0 0.601935 0 0 0 0.2 0"/><feBlend in2="BackgroundImageFix" result="effect1_dropShadow_10272_1585"/><feBlend in="SourceGraphic" in2="effect1_dropShadow_10272_1585" result="shape"/></filter><filter id="organizations__e" x="514.018" y="258.295" width="245.538" height="174.095" filterUnits="userSpaceOnUse" color-interpolation-filters="sRGB"><feFlood flood-opacity="0" result="BackgroundImageFix"/><feColorMatrix in="SourceAlpha" values="0 0 0 0 0 0 0 0 0 0 0 0 0 0 0 0 0 0 127 0" result="hardAlpha"/><feOffset dy="9.016"/><feGaussianBlur stdDeviation="6.762"/><feColorMatrix values="0 0 0 0 0.374547 0 0 0 0 0.481553 0 0 0 0 0.601935 0 0 0 0.2 0"/><feBlend in2="BackgroundImageFix" result="effect1_dropShadow_10272_1585"/><feBlend in="SourceGraphic" in2="effect1_dropShadow_10272_1585" result="shape"/></filter></defs></svg>