<svg xmlns="http://www.w3.org/2000/svg" width="1080" height="1080" viewBox="0 0 1080 1080" fill="none"><path fill="#1968F0" d="M750.568 759.113c181.94 0 329.432-147.492 329.432-329.432S932.508 100.249 750.568 100.249 421.136 247.741 421.136 429.681s147.492 329.432 329.432 329.432"/><path fill="#C5D9FB" d="M211.024 978.995c116.545 0 211.024-94.479 211.024-211.024 0-116.546-94.479-211.024-211.024-211.024S0 651.425 0 767.971c0 116.545 94.479 211.024 211.024 211.024"/><path fill="#0096FA" d="M221.314 474.361c79.567 0 144.07-64.502 144.07-144.07 0-79.567-64.503-144.069-144.07-144.069s-144.07 64.502-144.07 144.069c0 79.568 64.503 144.07 144.07 144.07"/><path fill="#072F73" fill-rule="evenodd" d="M258.953 692.94c0-64.146 51.925-116.071 116.071-116.071h58.357v12h-58.357c-57.519 0-104.071 46.553-104.071 104.071v95.352h-12zM827.683 588.869h-58.357v-12h58.357c64.146 0 116.072 51.925 116.072 116.071v95.352h-12V692.94c0-57.518-46.553-104.071-104.072-104.071M595.288 562.157V398.548h12v163.609z" clip-rule="evenodd"/><path fill="url(#a)" d="M765.418 497.547H437.289c-7.165 0-13.026 5.862-13.026 13.027v144.72c0 7.165 5.861 13.026 13.026 13.026h328.129c7.165 0 13.026-5.861 13.026-13.026v-144.72a12.98 12.98 0 0 0-13.026-13.027"/><path fill="url(#b)" d="M939.056 218.657h-473.11c-7.165 0-13.026 5.862-13.026 13.026v22.275h-19.93c-11.594 0-17.456 14.068-9.249 22.275l29.048 29.048v115.282c0 7.164 5.862 13.026 13.027 13.026h473.11c7.165 0 13.027-5.862 13.027-13.026v-188.88c.13-7.164-5.732-13.026-12.897-13.026"/><path fill="url(#c)" d="M221.314 334.069c29.208 0 52.886-21.637 52.886-48.327 0-26.691-23.678-48.327-52.886-48.327s-52.886 21.636-52.886 48.327 23.678 48.327 52.886 48.327"/><path fill="url(#d)" d="M221.314 475.533c41.684 0 79.069-17.585 105.643-45.591-15.371-43.508-56.795-74.771-105.643-74.771s-90.141 31.263-105.642 74.771c26.573 28.006 64.089 45.591 105.642 45.591"/><path fill="#0096FA" d="M843.966 310.101H528.081c-4.298 0-7.815-3.517-7.815-7.816v-26.573c0-4.299 3.517-7.816 7.815-7.816h315.885c4.299 0 7.816 3.517 7.816 7.816v26.573c0 4.299-3.517 7.816-7.816 7.816"/><path fill="#35DE90" d="M661.73 384.35H528.081c-4.298 0-7.815-3.517-7.815-7.816v-26.573c0-4.299 3.517-7.816 7.815-7.816H661.73c4.299 0 7.816 3.517 7.816 7.816v26.573c0 4.299-3.517 7.816-7.816 7.816"/><path fill="#1968F0" d="M744.185 384.35h-46.633c-4.299 0-7.816-3.517-7.816-7.816v-26.573c0-4.299 3.517-7.816 7.816-7.816h46.633c4.299 0 7.816 3.517 7.816 7.816v26.573c0 4.299-3.517 7.816-7.816 7.816M648.444 603.971H491.348c-4.299 0-7.816-3.517-7.816-7.815v-26.574c0-4.298 3.517-7.816 7.816-7.816h157.096c4.298 0 7.815 3.518 7.815 7.816v26.574c0 4.298-3.517 7.815-7.815 7.815"/><path fill="#35DE90" d="M711.36 603.971h-27.095c-4.298 0-7.815-3.517-7.815-7.815v-26.574c0-4.298 3.517-7.815 7.815-7.815h27.095c4.299 0 7.816 3.517 7.816 7.815v26.574c0 4.298-3.517 7.815-7.816 7.815"/><path fill="url(#e)" d="M485.616 742.961H173.378c-7.164 0-13.026 5.861-13.026 13.026v182.496c0 7.165 5.862 13.027 13.026 13.027h312.238c7.164 0 13.026-5.862 13.026-13.027V755.987c0-7.165-5.862-13.026-13.026-13.026"/><path fill="#C5D9FB" d="M265.995 914.906c37.41 0 67.736-30.326 67.736-67.736s-30.326-67.736-67.736-67.736-67.736 30.326-67.736 67.736 30.326 67.736 67.736 67.736"/><path fill="#F5F5F5" d="M265.995 850.687c13.309 0 24.098-9.856 24.098-22.014s-10.789-22.014-24.098-22.014-24.099 9.856-24.099 22.014 10.79 22.014 24.099 22.014M265.995 914.906c18.888 0 35.953-7.946 47.937-20.712-7.034-19.799-25.792-33.998-47.937-33.998s-41.032 14.199-47.936 33.998c11.984 12.766 29.049 20.712 47.936 20.712"/><path fill="#E0E0E0" d="M452.921 886.118h-92.486c-4.299 0-7.816-3.517-7.816-7.815V847.04c0-4.299 3.517-7.816 7.816-7.816h92.486c4.298 0 7.815 3.517 7.815 7.816v31.263c0 4.428-3.517 7.815-7.815 7.815"/><path fill="#A3A3A3" d="M417.359 826.719H357.83c-2.866 0-5.211-2.345-5.211-5.211v-7.946c0-2.865 2.345-5.21 5.211-5.21h59.66c2.865 0 5.21 2.345 5.21 5.21v7.946c-.13 2.866-2.345 5.211-5.341 5.211"/><path fill="url(#f)" d="M1035.32 742.961H723.083c-7.165 0-13.026 5.861-13.026 13.026v182.496c0 7.165 5.861 13.027 13.026 13.027h312.237c7.16 0 13.03-5.862 13.03-13.027V755.987c0-7.165-5.87-13.026-13.03-13.026"/><path fill="#0096FA" d="M815.569 914.906c37.409 0 67.736-30.326 67.736-67.736s-30.327-67.736-67.736-67.736-67.736 30.326-67.736 67.736 30.326 67.736 67.736 67.736"/><path fill="#fff" d="M815.568 850.687c13.309 0 24.099-9.856 24.099-22.014s-10.79-22.014-24.099-22.014-24.098 9.856-24.098 22.014 10.789 22.014 24.098 22.014M815.568 914.906c18.888 0 35.952-7.946 47.936-20.712-7.034-19.799-25.791-33.998-47.936-33.998-22.144 0-41.032 14.199-47.936 33.998 12.114 12.766 29.048 20.712 47.936 20.712"/><path fill="#1968F0" d="M1002.62 886.118h-92.481c-4.299 0-7.816-3.517-7.816-7.815V847.04c0-4.299 3.517-7.816 7.816-7.816h92.481c4.3 0 7.82 3.517 7.82 7.816v31.263c0 4.428-3.52 7.815-7.82 7.815"/><path fill="#35DE90" d="M967.063 826.719h-59.529c-2.866 0-5.211-2.345-5.211-5.211v-7.946c0-2.865 2.345-5.21 5.211-5.21h59.66c2.865 0 5.21 2.345 5.21 5.21v7.946c-.13 2.866-2.475 5.211-5.341 5.211"/><path fill="#072F73" d="M566.639 968.444c44.675 0 80.892-36.217 80.892-80.893s-36.217-80.892-80.892-80.892c-44.676 0-80.893 36.216-80.893 80.892s36.217 80.893 80.893 80.893"/><defs><linearGradient id="a" x1="381.822" x2="850.427" y1="516.572" y2="658.083" gradientUnits="userSpaceOnUse"><stop offset=".092" stop-color="#C5D9FB"/><stop offset=".129" stop-color="#CBDDFA"/><stop offset=".296" stop-color="#E2EAF7"/><stop offset=".453" stop-color="#F0F2F6"/><stop offset=".59" stop-color="#F5F5F5"/></linearGradient><linearGradient id="b" x1="402.84" x2="922.241" y1="259.337" y2="375.075" gradientUnits="userSpaceOnUse"><stop stop-color="#C5D9FB"/><stop offset=".134" stop-color="#D6E3F9"/><stop offset=".321" stop-color="#E8EDF7"/><stop offset=".525" stop-color="#F2F3F5"/><stop offset=".772" stop-color="#F5F5F5"/></linearGradient><linearGradient id="c" x1="168.427" x2="274.239" y1="285.682" y2="285.682" gradientUnits="userSpaceOnUse"><stop stop-color="#C5D9FB"/><stop offset=".134" stop-color="#D6E3F9"/><stop offset=".321" stop-color="#E8EDF7"/><stop offset=".525" stop-color="#F2F3F5"/><stop offset=".772" stop-color="#F5F5F5"/></linearGradient><linearGradient id="d" x1="115.752" x2="326.914" y1="415.322" y2="415.322" gradientUnits="userSpaceOnUse"><stop stop-color="#C5D9FB"/><stop offset=".134" stop-color="#D6E3F9"/><stop offset=".321" stop-color="#E8EDF7"/><stop offset=".525" stop-color="#F2F3F5"/><stop offset=".772" stop-color="#F5F5F5"/></linearGradient><linearGradient id="e" x1="510.087" x2="160.967" y1="981.685" y2="721.714" gradientUnits="userSpaceOnUse"><stop offset=".07" stop-color="#C5D9FB"/><stop offset=".108" stop-color="#D0DFFA"/><stop offset=".19" stop-color="#E1E9F8"/><stop offset=".291" stop-color="#ECF0F6"/><stop offset=".434" stop-color="#F3F4F5"/><stop offset=".83" stop-color="#F5F5F5"/></linearGradient><linearGradient id="f" x1="1044.72" x2="728.305" y1="968.068" y2="737.094" gradientUnits="userSpaceOnUse"><stop stop-color="#C5D9FB"/><stop offset=".184" stop-color="#D9E4F9"/><stop offset=".407" stop-color="#E9EEF7"/><stop offset=".66" stop-color="#F2F3F5"/><stop offset="1" stop-color="#F5F5F5"/></linearGradient></defs></svg>