<svg xmlns="http://www.w3.org/2000/svg" width="1080" height="1081" fill="none"><path fill="#072F73" d="M343.823 688.259c136.584 0 247.307-110.753 247.307-247.373S480.407 193.514 343.823 193.514 96.516 304.266 96.516 440.886 207.24 688.259 343.823 688.259"/><path fill="#1968F0" d="M849.878 431.469V285.311c0-13.233-10.727-24.082-24.076-24.082H439.17c-13.229 0-24.075 10.73-24.075 24.082v16.69h-33.372c-5.244 0-7.747 6.319-4.171 9.895l37.424 37.434v82.02c0 13.233 10.726 24.082 24.074 24.082h386.634c13.468.119 24.194-10.61 24.194-23.963"/><path fill="#35DE90" d="M627.124 345.752h-153.39c-5.244 0-9.535-4.292-9.535-9.537v-16.214c0-5.245 4.291-9.537 9.535-9.537h153.39c5.244 0 9.534 4.292 9.534 9.537v16.214c0 5.245-4.29 9.537-9.534 9.537"/><path fill="url(#a)" d="M711.981 345.752h-45.17c-5.244 0-9.534-4.292-9.534-9.537v-16.214c0-5.245 4.29-9.537 9.534-9.537h45.17c5.244 0 9.535 4.292 9.535 9.537v16.214c0 5.245-4.291 9.537-9.535 9.537"/><path fill="#072F73" d="M774.673 410.129H473.614c-5.244 0-9.535-4.292-9.535-9.537v-16.214c0-5.245 4.291-9.537 9.535-9.537h301.059c5.244 0 9.535 4.292 9.535 9.537v16.214c0 5.245-4.291 9.537-9.535 9.537"/><path fill="#F5F5F5" d="m368.732 488.573-3.337-17.406c-1.788-9.298-10.011-16.094-19.545-16.094H153.009c-10.965 0-19.903 8.942-19.903 19.91v458.623c0 10.968 8.938 19.908 19.903 19.908h730.479c10.965 0 19.904-8.94 19.904-19.908V524.457c0-10.968-8.939-19.909-19.904-19.909H388.279c-9.535.119-17.64-6.557-19.547-15.975"/><path fill="url(#b)" d="m368.732 488.095-3.337-17.286c-1.788-9.299-10.011-16.094-19.545-16.094H153.009c-10.965 0-19.903 8.941-19.903 19.909v458.623c0 10.968 8.938 19.909 19.903 19.909h730.479c10.965 0 19.904-8.941 19.904-19.909V524.099c0-10.968-8.939-19.91-19.904-19.91H388.279c-9.535 0-17.64-6.676-19.547-16.094"/><path fill="url(#c)" d="m369.091 487.976-3.338-17.286c-1.788-9.299-10.011-16.094-19.545-16.094H153.487c-10.965 0-19.904 8.941-19.904 19.909v458.623c0 10.967 8.939 19.909 19.904 19.909h730.479c10.965 0 19.903-8.942 19.903-19.909V523.979c0-10.967-8.938-19.909-19.903-19.909H388.757c-9.654 0-17.759-6.676-19.666-16.094"/><path fill="#0096FA" d="M416.644 580.846c12.901 0 23.36-10.461 23.36-23.366s-10.459-23.367-23.36-23.367-23.36 10.462-23.36 23.367 10.458 23.366 23.36 23.366"/><path fill="#0C4EC0" d="M416.643 558.672c4.608 0 8.343-3.416 8.343-7.63s-3.735-7.63-8.343-7.63-8.343 3.416-8.343 7.63 3.735 7.63 8.343 7.63M416.643 580.846c6.555 0 12.396-2.742 16.567-7.153-2.384-6.796-8.939-11.683-16.567-11.683s-14.182 4.887-16.566 11.683c4.171 4.411 10.011 7.153 16.566 7.153"/><path fill="#A3A3A3" d="M527.366 570.474h-70.318c-3.338 0-5.96-2.622-5.96-5.96v-14.187c0-3.338 2.622-5.961 5.96-5.961h70.318c3.337 0 5.959 2.623 5.959 5.961v14.187c0 3.338-2.622 5.96-5.959 5.96"/><path fill="#0096FA" d="M204.496 695.173c12.902 0 23.361-10.461 23.361-23.366s-10.459-23.367-23.361-23.367c-12.901 0-23.359 10.462-23.359 23.367s10.458 23.366 23.359 23.366"/><path fill="#0C4EC0" d="M204.495 672.999c4.608 0 8.343-3.416 8.343-7.629 0-4.214-3.735-7.631-8.343-7.631-4.607 0-8.342 3.417-8.342 7.631 0 4.213 3.735 7.629 8.342 7.629M204.495 695.174c6.556 0 12.396-2.742 16.567-7.153-2.383-6.795-8.939-11.683-16.567-11.683-7.627 0-14.182 4.888-16.565 11.683 4.052 4.411 10.01 7.153 16.565 7.153"/><path fill="#666" d="M315.219 684.801H244.9c-3.337 0-5.959-2.623-5.959-5.961v-14.187c0-3.338 2.622-5.961 5.959-5.961h70.319c3.337 0 5.959 2.623 5.959 5.961v14.187c0 3.338-2.622 5.961-5.959 5.961"/><path fill="#0096FA" d="M204.496 798.892c12.902 0 23.361-10.462 23.361-23.366s-10.459-23.367-23.361-23.367c-12.901 0-23.359 10.462-23.359 23.367 0 12.904 10.458 23.366 23.359 23.366"/><path fill="#0C4EC0" d="M204.496 776.837c4.607 0 8.342-3.416 8.342-7.63s-3.735-7.63-8.342-7.63-8.343 3.416-8.343 7.63 3.735 7.63 8.343 7.63M204.496 799.011c6.555 0 12.395-2.742 16.567-7.153-2.384-6.796-8.94-11.683-16.567-11.683s-14.183 4.887-16.566 11.683c4.052 4.411 10.01 7.153 16.566 7.153"/><path fill="#A3A3A3" d="M315.219 788.639H244.9c-3.337 0-5.959-2.622-5.959-5.96v-14.187c0-3.338 2.622-5.961 5.959-5.961h70.319c3.337 0 5.959 2.623 5.959 5.961v14.187c0 3.218-2.622 5.96-5.959 5.96"/><path fill="#0096FA" d="M204.496 902.727c12.902 0 23.361-10.461 23.361-23.365 0-12.905-10.459-23.367-23.361-23.367-12.901 0-23.359 10.462-23.359 23.367 0 12.904 10.458 23.365 23.359 23.365"/><path fill="#0C4EC0" d="M204.496 880.555c4.607 0 8.342-3.417 8.342-7.63 0-4.214-3.735-7.63-8.342-7.63s-8.343 3.416-8.343 7.63c0 4.213 3.735 7.63 8.343 7.63M204.496 902.729c6.555 0 12.395-2.742 16.567-7.153-2.384-6.795-8.94-11.682-16.567-11.682s-14.183 4.887-16.566 11.682c4.052 4.411 10.01 7.153 16.566 7.153"/><path fill="#E0E0E0" d="M315.219 892.355H244.9c-3.337 0-5.959-2.623-5.959-5.961v-14.186c0-3.338 2.622-5.961 5.959-5.961h70.319c3.337 0 5.959 2.623 5.959 5.961v14.186c0 3.338-2.622 5.961-5.959 5.961"/><path fill="#35DE90" d="M801.49 547.942c1.311 0 2.502 1.073 2.502 2.503v7.034c0 1.312-1.072 2.503-2.502 2.503h-21.573c-1.311 0-2.502-1.072-2.502-2.503v-7.034c0-1.311 1.072-2.503 2.502-2.503zm0-3.458h-21.573c-3.337 0-5.959 2.623-5.959 5.961v7.034c0 3.338 2.622 5.961 5.959 5.961h21.573c3.337 0 5.959-2.623 5.959-5.961v-7.034c0-3.338-2.622-5.961-5.959-5.961M866.683 563.441h-45.648c-3.337 0-5.959-2.623-5.959-5.961v-7.034c0-3.338 2.622-5.961 5.959-5.961h45.648c3.337 0 5.959 2.623 5.959 5.961v7.034c0 3.338-2.622 5.961-5.959 5.961"/><path fill="#C5D9FB" d="M590.652 657.025H404.964c-3.337 0-5.959-2.622-5.959-5.96v-34.573c0-3.338 2.622-5.961 5.959-5.961h185.808c3.337 0 5.959 2.623 5.959 5.961v34.573c-.119 3.218-2.742 5.96-6.079 5.96"/><path fill="#35DE90" d="M302.704 583.707H199.61c-3.337 0-5.959-2.623-5.959-5.961v-34.572c0-3.338 2.622-5.961 5.959-5.961h103.094c3.337 0 5.959 2.623 5.959 5.961v34.572c0 3.338-2.741 5.961-5.959 5.961"/><path fill="#C5D9FB" d="M549.654 832.63H406.037c-3.337 0-5.959-2.623-5.959-5.961v-34.572c0-3.339 2.622-5.961 5.959-5.961h143.617c3.337 0 5.959 2.622 5.959 5.961v34.572c0 3.338-2.741 5.961-5.959 5.961"/><path fill="#0096FA" d="M666.215 762.292h201.064c3.337 0 5.959-2.622 5.959-5.961v-85c0-3.338-2.622-5.961-5.959-5.961H666.215c-3.337 0-5.959 2.623-5.959 5.961v85c0 3.339 2.622 5.961 5.959 5.961"/><path fill="#E0E0E0" d="M406.037 922.16h463.626c3.337 0 5.959-2.622 5.959-5.96v-56.628c0-3.338-2.622-5.961-5.959-5.961H406.037c-3.337 0-5.959 2.623-5.959 5.961V916.2c0 3.218 2.622 5.96 5.959 5.96"/><path fill="#E0E0E0" fill-rule="evenodd" d="M872.642 597.368H393.164v-3.478h479.478zM343.823 621.688H158.372v-3.479h185.451zM343.823 725.405H158.372v-3.478h185.451zM343.823 829.243H158.372v-3.478h185.451zM367.113 931.221V526.245h3.477v404.976z" clip-rule="evenodd"/><path fill="#072F73" d="M1036.76 835.966H797.199c-12.872 0-23.241-10.371-23.241-23.247v-439.31c0-12.875 10.369-23.247 23.241-23.247h239.561c12.87 0 23.24 10.372 23.24 23.247v439.31c0 12.876-10.37 23.247-23.24 23.247"/><path fill="url(#d)" d="M1036.76 811.646H797.199c-12.872 0-23.241-10.372-23.241-23.247v-439.31c0-12.875 10.369-23.247 23.241-23.247h239.561c12.87 0 23.24 10.372 23.24 23.247v439.31c0 12.756-10.37 23.247-23.24 23.247"/><path fill="#35DE90" d="M1060 391.053v-41.964c0-12.875-10.37-23.247-23.24-23.247H797.199c-12.872 0-23.241 10.372-23.241 23.247v41.964z"/><path fill="#072F73" fill-rule="evenodd" d="M948.087 360.295a6.556 6.556 0 0 1 6.555-6.557h4.647a6.556 6.556 0 0 1 6.555 6.557 6.556 6.556 0 0 1-6.555 6.557h-4.647a6.556 6.556 0 0 1-6.555-6.557M868.114 360.295a6.556 6.556 0 0 1 6.555-6.557h60.069a6.556 6.556 0 0 1 6.555 6.557 6.556 6.556 0 0 1-6.555 6.557h-60.069a6.556 6.556 0 0 1-6.555-6.557" clip-rule="evenodd"/><path fill="#0096FA" d="M996.118 563.44c0 22.651-9.535 43.037-24.671 57.462-14.183 13.471-33.372 21.697-54.348 21.697-21.095 0-40.285-8.226-54.349-21.697-15.255-14.425-24.67-34.811-24.67-57.462 0-43.752 35.397-79.16 79.138-79.16 43.74 0 78.9 35.527 78.9 79.16"/><path fill="#072F73" d="M916.981 687.66c5.529 0 10.012-4.484 10.012-10.014 0-5.531-4.483-10.014-10.012-10.014s-10.011 4.483-10.011 10.014 4.482 10.014 10.011 10.014M953.809 687.66c5.53 0 10.012-4.484 10.012-10.014 0-5.531-4.482-10.014-10.012-10.014-5.529 0-10.012 4.483-10.012 10.014s4.483 10.014 10.012 10.014M880.273 687.66c5.529 0 10.012-4.484 10.012-10.014 0-5.531-4.483-10.014-10.012-10.014s-10.011 4.483-10.011 10.014 4.481 10.014 10.011 10.014"/><path fill="#0C4EC0" d="M916.979 570.83c12.836 0 23.241-10.408 23.241-23.247s-10.405-23.247-23.241-23.247-23.241 10.408-23.241 23.247 10.406 23.247 23.241 23.247M971.328 620.901c-14.183 13.471-33.372 21.697-54.349 21.697-21.095 0-40.283-8.226-54.347-21.697 7.151-23.247 28.842-40.175 54.347-40.175 25.625.119 47.198 16.928 54.349 40.175"/><path fill="#0096FA" d="M96.516 713.534c42.259 0 76.517-34.267 76.517-76.537s-34.258-76.536-76.517-76.536S20 594.727 20 636.997s34.258 76.537 76.516 76.537"/><defs><linearGradient id="a" x1="657.238" x2="721.511" y1="328.11" y2="328.11" gradientUnits="userSpaceOnUse"><stop stop-color="#fff"/><stop offset=".952" stop-color="#C5D9FB"/></linearGradient><linearGradient id="b" x1="909.229" x2="-54.36" y1="471.015" y2="1044.77" gradientUnits="userSpaceOnUse"><stop stop-color="#fff"/><stop offset=".99" stop-color="#E0E0E0"/></linearGradient><linearGradient id="c" x1="250.218" x2="1003.72" y1="778.027" y2="569.765" gradientUnits="userSpaceOnUse"><stop offset=".253" stop-color="#03F" stop-opacity="0"/><stop offset=".441" stop-color="#0033FC" stop-opacity=".252"/><stop offset=".565" stop-color="#0133F3" stop-opacity=".418"/><stop offset=".671" stop-color="#0132E4" stop-opacity=".559"/><stop offset=".766" stop-color="#0232CF" stop-opacity=".687"/><stop offset=".854" stop-color="#0431B4" stop-opacity=".805"/><stop offset=".936" stop-color="#053092" stop-opacity=".915"/><stop offset="1" stop-color="#072F73"/></linearGradient><linearGradient id="d" x1="720.507" x2="1067.57" y1="894.132" y2="319.645" gradientUnits="userSpaceOnUse"><stop stop-color="#fff"/><stop offset=".952" stop-color="#C5D9FB"/></linearGradient></defs></svg>