<svg width="1080" height="1081" viewBox="0 0 1080 1081" fill="none" xmlns="http://www.w3.org/2000/svg">
<path d="M773.279 814.599L763.211 762.941H882.866L911.089 896.955H910.923C912.244 903.887 913.069 910.984 913.069 918.246C913.069 977.991 864.547 1026.51 804.802 1026.51C745.056 1026.51 696.534 977.991 696.534 918.246C696.534 869.393 728.882 828.133 773.279 814.599Z" fill="#F5F5F5"/>
<path d="M288.218 814.599L298.286 762.941H178.63L150.408 896.955H150.573C149.253 903.887 148.428 910.984 148.428 918.246C148.428 977.991 196.95 1026.51 256.695 1026.51C316.44 1026.51 364.963 977.991 364.963 918.246C364.798 869.393 332.614 828.133 288.218 814.599Z" fill="#F5F5F5"/>
<path d="M763.538 463.721L607.078 428.402H528.848H450.619L294.159 463.721C244.811 474.779 206.522 513.729 195.959 563.242L141 823.347H528.683H916.367L861.408 563.242C851.175 513.729 812.885 474.944 763.538 463.721Z" fill="#F06305"/>
<path d="M349.118 651.539L312.644 861.307H599.156L349.118 651.539Z" fill="url(#paint0_linear_18735_3042)"/>
<path d="M706.268 651.539L742.742 861.307H456.229L706.268 651.539Z" fill="url(#paint1_linear_18735_3042)"/>
<path d="M580.508 781.259H662.204C666.825 781.259 670.456 777.628 670.456 773.006V675.302H572.256V773.006C572.256 777.628 576.052 781.259 580.508 781.259Z" fill="#FCAA73"/>
<path d="M657.418 61.5137H475.542L461.678 75.3772V417.509H596.022V362.715H657.418C662.864 357.269 665.835 354.298 671.281 348.851V75.5422L657.418 61.5137Z" fill="#8C3A03"/>
<path d="M475.542 61.5137L461.678 75.3772L460.853 232.167L461.843 232.827L600.644 93.5318L671.282 179.023V75.3772L657.418 61.5137H475.542Z" fill="#141414"/>
<path d="M445.175 287.622H483.3V227.877H431.642V274.089C431.642 281.516 437.749 287.622 445.175 287.622Z" fill="#8C3A03"/>
<path d="M492.871 287.621H461.678V360.24H492.871V287.621Z" fill="url(#paint2_linear_18735_3042)"/>
<path d="M548.654 381.695H596.021V362.715H548.654V381.695Z" fill="url(#paint3_linear_18735_3042)"/>
<path d="M596.024 425.596V381.695H461.68V425.596L439.894 431.208L521.59 519.67C525.551 523.961 532.153 523.961 536.114 519.67L617.809 431.208L596.024 425.596Z" fill="url(#paint4_linear_18735_3042)"/>
<path fill-rule="evenodd" clip-rule="evenodd" d="M616.812 210.918C618.064 210.369 619.525 210.939 620.074 212.191L650.772 282.168C651.107 282.934 651.034 283.817 650.577 284.517C650.12 285.217 649.34 285.639 648.504 285.639H614.671C613.304 285.639 612.195 284.53 612.195 283.163C612.195 281.796 613.304 280.687 614.671 280.687H644.715L615.54 214.18C614.99 212.928 615.56 211.467 616.812 210.918Z" fill="#141414"/>
<path d="M446.989 740.497L336.081 734.556L323.208 817.902L357.536 836.387C374.206 842.493 391.865 844.639 409.524 842.823L461.018 837.542L446.989 740.497Z" fill="url(#paint5_linear_18735_3042)"/>
<path d="M772.12 1021.39L433.949 898.767C430.648 897.612 428.502 894.476 428.502 891.01V734.056C428.502 728.444 433.784 724.483 439.065 726.134L771.955 826.644" fill="url(#paint6_linear_18735_3042)"/>
<path d="M584.963 762.61L722.278 740.989L733.666 814.928L683.658 848.762C667.814 856.519 650.32 860.479 632.66 860.479H580.837L584.963 762.61Z" fill="url(#paint7_linear_18735_3042)"/>
<path d="M289.374 1021.39L627.545 898.767C630.846 897.612 632.991 894.476 632.991 891.01V734.056C632.991 728.444 627.71 724.483 622.428 726.134L289.539 826.644" fill="url(#paint8_linear_18735_3042)"/>
<mask id="mask0_18735_3042" style="mask-type:luminance" maskUnits="userSpaceOnUse" x="325" y="355" width="407" height="237">
<path d="M460.356 487.484H325.187L326.673 359.741H461.347L460.356 487.484ZM731.19 355.12H596.021V591.46H731.19V355.12Z" fill="white"/>
</mask>
<g mask="url(#mask0_18735_3042)">
<path fill-rule="evenodd" clip-rule="evenodd" d="M528.683 398.031C454.105 398.031 392.359 468.531 392.359 557.627H380.806C380.806 463.856 446.142 386.479 528.683 386.479C611.228 386.479 676.561 464.025 676.561 557.627V600.373H665.008V557.627C665.008 468.692 603.259 398.031 528.683 398.031Z" fill="#072F73"/>
</g>
<path d="M670.623 657.48C691.861 657.48 709.077 640.263 709.077 619.025C709.077 597.787 691.861 580.57 670.623 580.57C649.385 580.57 632.168 597.787 632.168 619.025C632.168 640.263 649.385 657.48 670.623 657.48Z" fill="#E0E0E0"/>
<path d="M670.623 640.15C682.29 640.15 691.748 630.692 691.748 619.025C691.748 607.358 682.29 597.899 670.623 597.899C658.955 597.899 649.497 607.358 649.497 619.025C649.497 630.692 658.955 640.15 670.623 640.15Z" fill="#F5F5F5"/>
<path fill-rule="evenodd" clip-rule="evenodd" d="M339.312 561.199C344.883 535.859 368.784 518.789 394.659 521.843C420.536 524.898 439.769 547.01 439.23 573.063L430.98 572.893C431.431 551.083 415.346 532.595 393.691 530.039C372.034 527.482 352.033 541.769 347.372 562.971L339.312 561.199Z" fill="#F5F5F5"/>
<path fill-rule="evenodd" clip-rule="evenodd" d="M342.32 521.234C348.074 495.067 372.754 477.44 399.472 480.594C426.194 483.749 446.057 506.585 445.501 533.487L445.5 533.505L442.695 651.488C442.695 651.492 442.695 651.496 442.695 651.499C442.474 662.295 435.157 671.733 424.839 674.742L424.817 674.749L397.255 682.671L394.064 671.567L421.604 663.652C421.607 663.651 421.61 663.65 421.613 663.649C427.13 662.036 431.03 656.958 431.144 651.257L431.145 651.235L433.95 533.248C433.95 533.246 433.95 533.244 433.95 533.242C434.381 512.284 418.926 494.524 398.118 492.067C377.307 489.611 358.089 503.337 353.606 523.705C353.605 523.709 353.605 523.712 353.604 523.715L328.682 639.082L328.677 639.104C327.438 644.623 330.004 650.366 335.137 653.282L360.063 667.478L354.346 677.517L329.429 663.327C320.045 657.995 315.02 647.246 317.399 636.598C317.401 636.59 317.403 636.582 317.405 636.574L342.32 521.234Z" fill="#072F73"/>
<path d="M353.245 683.556C360.993 683.556 367.274 677.275 367.274 669.528C367.274 661.78 360.993 655.499 353.245 655.499C345.497 655.499 339.217 661.78 339.217 669.528C339.217 677.275 345.497 683.556 353.245 683.556Z" fill="#072F73"/>
<path d="M400.118 689.003C407.866 689.003 414.146 682.723 414.146 674.975C414.146 667.227 407.866 660.946 400.118 660.946C392.37 660.946 386.089 667.227 386.089 674.975C386.089 682.723 392.37 689.003 400.118 689.003Z" fill="#072F73"/>
<path fill-rule="evenodd" clip-rule="evenodd" d="M441.941 443.273L434.225 452.951C425.343 464.092 417.91 477.797 413.033 488.494L407.899 499.757L385.373 489.488L390.507 478.225C395.863 466.476 404.275 450.804 414.868 437.518L422.584 427.84L441.941 443.273Z" fill="#FBCF23"/>
<path fill-rule="evenodd" clip-rule="evenodd" d="M355.754 487.192C367.802 477.221 383.663 471.987 400.349 473.865L400.416 473.872L400.483 473.88C419.014 476.171 434.728 486.819 443.756 501.934L450.102 512.561L428.848 525.255L422.501 514.628C417.346 505.995 408.33 499.816 397.514 498.458C387.817 497.386 378.619 500.404 371.538 506.264L362.002 514.156L346.218 495.084L355.754 487.192Z" fill="#FBCF23"/>
<defs>
<linearGradient id="paint0_linear_18735_3042" x1="502.767" y1="726.405" x2="305.207" y2="933.979" gradientUnits="userSpaceOnUse">
<stop offset="0.1453" stop-color="#F06305"/>
<stop offset="0.3114" stop-color="#E15D05"/>
<stop offset="0.6314" stop-color="#B94C04"/>
<stop offset="0.9417" stop-color="#8C3A03"/>
</linearGradient>
<linearGradient id="paint1_linear_18735_3042" x1="552.619" y1="726.405" x2="750.179" y2="933.979" gradientUnits="userSpaceOnUse">
<stop offset="0.1453" stop-color="#F06305"/>
<stop offset="0.3114" stop-color="#E15D05"/>
<stop offset="0.6314" stop-color="#B94C04"/>
<stop offset="0.9417" stop-color="#8C3A03"/>
</linearGradient>
<linearGradient id="paint2_linear_18735_3042" x1="506.065" y1="333.043" x2="423.898" y2="307.1" gradientUnits="userSpaceOnUse">
<stop offset="0.1577" stop-color="#8C3A03"/>
<stop offset="0.31" stop-color="#883904"/>
<stop offset="0.4643" stop-color="#7C3505"/>
<stop offset="0.6196" stop-color="#672E08"/>
<stop offset="0.7756" stop-color="#4B250C"/>
<stop offset="0.9307" stop-color="#271A11"/>
<stop offset="1" stop-color="#141414"/>
</linearGradient>
<linearGradient id="paint3_linear_18735_3042" x1="545.981" y1="393.503" x2="602.448" y2="347.89" gradientUnits="userSpaceOnUse">
<stop offset="0.1577" stop-color="#8C3A03"/>
<stop offset="0.31" stop-color="#883904"/>
<stop offset="0.4643" stop-color="#7C3505"/>
<stop offset="0.6196" stop-color="#672E08"/>
<stop offset="0.7756" stop-color="#4B250C"/>
<stop offset="0.9307" stop-color="#271A11"/>
<stop offset="1" stop-color="#141414"/>
</linearGradient>
<linearGradient id="paint4_linear_18735_3042" x1="529.333" y1="535.53" x2="528.5" y2="380.61" gradientUnits="userSpaceOnUse">
<stop offset="0.1245" stop-color="#E0E0E0"/>
<stop offset="1" stop-color="#F5F5F5"/>
</linearGradient>
<linearGradient id="paint5_linear_18735_3042" x1="323.654" y1="783.831" x2="550.512" y2="802.781" gradientUnits="userSpaceOnUse">
<stop offset="0.2011" stop-color="#8C3A03"/>
<stop offset="0.3347" stop-color="#883803"/>
<stop offset="0.4701" stop-color="#7C3303"/>
<stop offset="0.6064" stop-color="#672B02"/>
<stop offset="0.7434" stop-color="#4B1F02"/>
<stop offset="0.8794" stop-color="#271001"/>
<stop offset="1"/>
</linearGradient>
<linearGradient id="paint6_linear_18735_3042" x1="490.22" y1="711.218" x2="719.309" y2="1021.29" gradientUnits="userSpaceOnUse">
<stop stop-color="#F5F5F5"/>
<stop offset="0.0886688" stop-color="#EBEBEB"/>
<stop offset="0.1546" stop-color="#E0E0E0"/>
<stop offset="0.6015" stop-color="#EEEEEE"/>
<stop offset="0.9912" stop-color="#F5F5F5"/>
</linearGradient>
<linearGradient id="paint7_linear_18735_3042" x1="768.003" y1="791.685" x2="547.533" y2="814.545" gradientUnits="userSpaceOnUse">
<stop offset="0.2011" stop-color="#8C3A03"/>
<stop offset="0.4287" stop-color="#8A3903"/>
<stop offset="0.5603" stop-color="#813603"/>
<stop offset="0.6673" stop-color="#733002"/>
<stop offset="0.7613" stop-color="#5F2802"/>
<stop offset="0.8466" stop-color="#461D01"/>
<stop offset="0.9245" stop-color="#261001"/>
<stop offset="0.9974" stop-color="#010100"/>
<stop offset="1"/>
</linearGradient>
<linearGradient id="paint8_linear_18735_3042" x1="352.706" y1="810.876" x2="594.352" y2="954.926" gradientUnits="userSpaceOnUse">
<stop offset="0.1646" stop-color="#F5F5F5"/>
<stop offset="0.4888" stop-color="#EDEDED"/>
<stop offset="0.8131" stop-color="#E0E0E0"/>
</linearGradient>
</defs>
</svg>
