<svg xmlns="http://www.w3.org/2000/svg" width="1080" height="1081" fill="none"><g clip-path="url(#a)"><path fill="#F5F5F5" d="M871 424.514c110.457 0 200-89.543 200-200s-89.543-200-200-200-200 89.543-200 200 89.543 200 200 200"/><path fill="#C5D9FB" d="M376.5 956.514c204.622 0 370.5-165.879 370.5-370.5 0-204.622-165.878-370.5-370.5-370.5S6 381.392 6 586.014c0 204.621 165.878 370.5 370.5 370.5"/><path fill="#C5D9FB" d="M432.272 1058.8c226.623 0 410.337-183.713 410.337-410.337 0-226.623-183.714-410.338-410.337-410.338-226.624 0-410.338 183.715-410.338 410.338S205.648 1058.8 432.272 1058.8"/><path fill="#000" d="M686.306 679.052H169.215c-21.106 0-38.235-17.13-38.235-38.235V514.182c0-21.105 17.129-38.235 38.235-38.235h517.091c21.106 0 38.235 17.13 38.235 38.235v126.635c0 21.105-17.129 38.235-38.235 38.235"/><path fill="url(#b)" d="M733.105 607.017c-13-25.541-39.153-41.6-67.752-41.6H224.579c-52.458 0-94.975 42.517-94.975 94.976v235.68c66.07 98.494 178.481 163.647 305.88 163.337 180.469-.61 337.538-130.455 385.561-285.23z"/><path fill="#072F73" d="M934.22 783.662c51.525 0 93.29-41.769 93.29-93.293s-41.765-93.294-93.29-93.294c-51.524 0-93.293 41.769-93.293 93.294s41.769 93.293 93.293 93.293"/><path fill="#0C4EC0" d="M1040.82 947.155H524.035c-16.823 0-30.588-13.765-30.588-30.588V814.25c0-16.823 13.765-30.588 30.588-30.588h516.785c16.82 0 30.59 13.765 30.59 30.588v102.317c0 16.823-13.61 30.588-30.59 30.588"/><path fill="#FBCF23" d="M587.811 902.496a7.1 7.1 0 0 1-3.517-.918l-16.212-9.788-16.364 9.788c-1.07.612-2.447.918-3.671.918s-2.601-.459-3.671-1.224c-1.071-.765-1.835-1.835-2.294-3.059-.459-1.223-.611-2.6-.305-3.823l4.282-18.506-14.223-12.541c-.918-.918-1.684-1.988-1.989-3.212-.306-1.223-.305-2.6.153-3.823.459-1.224 1.223-2.294 2.141-3.059a7.7 7.7 0 0 1 3.518-1.376l18.812-1.683 7.493-17.435c.459-1.223 1.377-2.294 2.448-3.059 1.07-.764 2.446-1.223 3.67-1.223 1.376 0 2.6.458 3.671 1.07 1.07.765 1.987 1.683 2.446 2.906l7.495 17.588 18.811 1.683c1.377.152 2.6.611 3.517 1.376 1.071.765 1.836 1.988 2.142 3.212a5.48 5.48 0 0 1 0 3.823c-.306 1.224-1.07 2.447-1.988 3.212l-14.223 12.541 4.282 18.506c.306 1.223.153 2.6-.306 3.823-.459 1.224-1.224 2.294-2.294 3.059-1.071.918-2.294 1.224-3.824 1.224M695.021 902.496a7.1 7.1 0 0 1-3.518-.918l-16.211-9.788-16.365 9.788c-1.07.612-2.447.918-3.671.918s-2.599-.459-3.669-1.224c-1.071-.765-1.836-1.835-2.295-3.059-.458-1.223-.612-2.6-.306-3.823l4.282-18.506-14.223-12.541c-.917-.918-1.682-1.988-1.988-3.212-.306-1.223-.306-2.6.153-3.823.458-1.224 1.224-2.294 2.141-3.059a7.7 7.7 0 0 1 3.518-1.376l18.811-1.683 7.495-17.435c.458-1.223 1.376-2.294 2.446-3.059 1.071-.764 2.448-1.223 3.671-1.223 1.377 0 2.599.458 3.67 1.07s1.989 1.683 2.448 2.906l7.493 17.588 18.813 1.683c1.376.152 2.6.611 3.517 1.376 1.071.765 1.835 1.988 2.14 3.212.459 1.223.46 2.6.154 3.823-.306 1.224-1.07 2.447-1.988 3.212l-14.224 12.541 4.283 18.506c.306 1.223.153 2.6-.306 3.823-.459 1.224-1.223 2.294-2.294 3.059-1.224.918-2.601 1.224-3.977 1.224M802.079 902.496a7.1 7.1 0 0 1-3.517-.918l-16.211-9.788-16.365 9.788c-1.07.612-2.448.918-3.671.918-1.224 0-2.599-.459-3.67-1.224s-1.835-1.835-2.294-3.059c-.459-1.223-.612-2.6-.306-3.823l4.282-18.506-14.223-12.541c-.918-.918-1.682-1.988-1.988-3.212-.306-1.223-.307-2.6.152-3.823.459-1.224 1.224-2.294 2.142-3.059s2.294-1.224 3.517-1.376l18.812-1.683 7.494-17.435c.459-1.223 1.376-2.294 2.447-3.059 1.07-.764 2.447-1.223 3.671-1.223 1.376 0 2.599.458 3.67 1.07s1.989 1.683 2.448 2.906l7.493 17.588 18.813 1.683c1.376.152 2.599.611 3.517 1.376 1.07.765 1.834 1.988 2.14 3.212a5.48 5.48 0 0 1 0 3.823c-.459 1.224-1.07 2.447-1.988 3.212l-14.223 12.541 4.282 18.506c.306 1.223.153 2.6-.306 3.823-.459 1.224-1.224 2.294-2.294 3.059-1.071.918-2.447 1.224-3.824 1.224M909.292 902.496a7.1 7.1 0 0 1-3.518-.918l-16.212-9.788-16.365 9.788c-1.071.612-2.446.918-3.67.918s-2.6-.459-3.671-1.224-1.835-1.835-2.294-3.059c-.459-1.223-.612-2.6-.306-3.823l4.283-18.506-14.224-12.541c-.918-.918-1.682-1.988-1.988-3.212-.306-1.223-.305-2.6.153-3.823.459-1.224 1.223-2.294 2.141-3.059a7.7 7.7 0 0 1 3.517-1.376l18.813-1.683 7.493-17.435c.459-1.223 1.377-2.294 2.448-3.059 1.071-.764 2.446-1.223 3.67-1.223 1.376 0 2.6.458 3.671 1.07s1.987 1.683 2.446 2.906l7.495 17.588 18.811 1.683c1.377.152 2.6.611 3.518 1.376 1.07.765 1.835 1.988 2.141 3.212a5.48 5.48 0 0 1 0 3.823c-.459 1.224-1.07 2.447-1.988 3.212l-14.224 12.541 4.283 18.506c.306 1.223.153 2.6-.306 3.823-.459 1.224-1.223 2.294-2.294 3.059-1.224.918-2.447 1.224-3.823 1.224M1016.35 902.496a7.1 7.1 0 0 1-3.52-.918l-16.211-9.788-16.365 9.788c-1.07.612-2.446.918-3.669.918-1.224 0-2.601-.459-3.672-1.224-1.07-.765-1.835-1.835-2.294-3.059-.458-1.223-.612-2.6-.306-3.823l4.284-18.506-14.225-12.541c-.918-.918-1.682-1.988-1.988-3.212-.306-1.223-.305-2.6.154-3.823.459-1.224 1.223-2.294 2.14-3.059a7.7 7.7 0 0 1 3.518-1.376l18.812-1.683 7.494-17.435c.458-1.223 1.377-2.294 2.448-3.059 1.07-.764 2.446-1.223 3.669-1.223 1.377 0 2.601.458 3.671 1.07s1.99 1.683 2.45 2.906l7.49 17.588 18.81 1.683c1.38.152 2.6.611 3.52 1.376 1.07.765 1.84 1.988 2.14 3.212.46 1.223.46 2.6 0 3.823-.3 1.224-1.07 2.447-1.99 3.212l-14.22 12.541 4.28 18.506c.31 1.223.16 2.6-.3 3.823-.46 1.224-1.23 2.294-2.3 3.059-1.07.918-2.44 1.224-3.82 1.224"/><path fill="#F8BC9A" d="m437.166 1039.84 66.377-26.92 86.563-17.895-.612-10.859 21.565-5.2-1.683-14.988 20.953-6.424-3.824-16.517-78.457 10.859-2.753-7.953 76.164-28.294-7.341-18.047-98.036 19.576-8.716-10.094 26.152-59.341-17.894-11.317-65.764 79.529-35.023 8.105z"/><path fill="url(#c)" d="m434.872 1041.52 93.141-38.7-78.153-86.866-35.023 8.106z"/><path fill="#0096FA" d="m225.957 912.285 121.127-346.868H209.133c-32.117 0-60.718 20.188-71.577 50.47L10.463 979.426c-14.835 41.604 8.872 85.184 48.024 97.724l23.552 3.67h359.563l-29.365-168.382h-186.28z"/><path fill="#000" d="M575.729 401.771H322.154c-21.105 0-38.235-17.129-38.235-38.235V223.749c0-21.106 17.13-38.235 38.235-38.235h253.575c21.105 0 38.235 17.129 38.235 38.235v139.787c0 21.106-17.13 38.235-38.235 38.235"/><path fill="#000" d="M620.845 532.534H243.083c-21.105 0-38.235-17.129-38.235-38.235V367.665c0-21.106 17.13-38.235 38.235-38.235h377.762c21.106 0 38.235 17.129 38.235 38.235v126.634c0 21.106-17.129 38.235-38.235 38.235"/><path fill="#F8BC9A" d="m521.895 238.278 90.387 180.47-28.142 16.976-9.022 69.282c-6.118 5.047-13.766 10.4-20.495 14.682l-50.47-9.788v55.67H374.001V353.595z"/><path fill="#F8BC9A" d="M399.847 483.288h-44.199a13.707 13.707 0 0 1-13.764-13.765v-44.964h57.963z"/><path fill="url(#d)" d="m504.153 509.747-49.093-10.094 49.093 55.518z"/></g><defs><linearGradient id="b" x1="517.019" x2="377.094" y1="503.474" y2="1203.28" gradientUnits="userSpaceOnUse"><stop offset=".302" stop-color="#0096FA"/><stop offset=".449" stop-color="#0191F6"/><stop offset=".634" stop-color="#0381E9"/><stop offset=".839" stop-color="#0867D5"/><stop offset="1" stop-color="#0C4EC0"/></linearGradient><linearGradient id="c" x1="524.038" x2="420.865" y1="926.668" y2="998.575" gradientUnits="userSpaceOnUse"><stop offset=".388" stop-color="#F7A47B" stop-opacity="0"/><stop offset=".814" stop-color="#F7A47C"/></linearGradient><linearGradient id="d" x1="468.508" x2="503.871" y1="537.208" y2="505.942" gradientUnits="userSpaceOnUse"><stop stop-color="#F7A47B" stop-opacity="0"/><stop offset=".814" stop-color="#F7A47C"/></linearGradient><clipPath id="a"><path fill="#fff" d="M0 .514h1080v1080H0z"/></clipPath></defs></svg>