<svg width="1080" height="1081" viewBox="0 0 1080 1081" fill="none" xmlns="http://www.w3.org/2000/svg">
<g clip-path="url(#clip0_196_25323)">
<ellipse cx="443.126" cy="625.963" rx="411.126" ry="415.447" fill="#C5D9FB"/>
<path d="M266.985 632.633H77.7232L130.566 845.533H319.826L266.985 632.633Z" fill="#0C4EC0"/>
<path d="M488.821 1011.07L468.223 959.445L523.677 937.317L544.276 988.939L488.821 1011.07Z" fill="#FCAA73"/>
<path d="M375.338 1000.31L372.793 944.785L432.437 942.051L434.982 997.573L375.338 1000.31Z" fill="#FCAA73"/>
<path d="M474.613 991.353L542.906 973.054C544.932 976.973 561.529 986.886 577.938 983.604C609.195 977.46 600.777 995.471 600.777 995.471L488.257 1025.62L474.613 991.353Z" fill="#072F73"/>
<path d="M160.625 1016.04H317.945V1037.71H160.625V1016.04Z" fill="#0C4EC0"/>
<path d="M228.455 1026.4L228.455 869.082L250.122 869.082L250.122 1026.4L228.455 1026.4Z" fill="#0C4EC0"/>
<path d="M238.342 888.868C217.271 888.868 200.189 871.576 200.189 850.245C200.189 828.913 217.271 811.621 238.342 811.621C259.413 811.621 276.494 828.913 276.494 850.245C276.494 871.576 259.413 888.868 238.342 888.868Z" fill="#072F73"/>
<path d="M250.04 729.756L440.033 729.756C464.842 726.662 487.497 744.303 490.593 769.128C490.61 769.262 490.627 769.396 490.643 769.529L547.641 959.365L457.739 970.577L412.538 819.933L296.758 834.372C291.238 837.907 220.823 826.465 213.887 827.33C189.077 830.424 230.368 826.657 227.272 801.832C224.326 777.124 225.23 732.85 250.04 729.756Z" fill="url(#paint0_linear_196_25323)"/>
<path d="M131.018 845.534H346.205V823.867H125.769L131.018 845.534Z" fill="#0C4EC0"/>
<path d="M369.21 983.766L439.91 984.202C440.826 988.517 454.207 1002.47 471.033 1003.65C502.801 1006 489.915 1021.14 489.915 1021.14L373.428 1020.42L369.21 983.766Z" fill="#072F73"/>
<path d="M458.108 970.921L367.341 970.361L336.498 774.493L427.264 775.052L458.108 970.921Z" fill="#141414"/>
<path d="M385.372 831.673C360.307 831.519 340.114 811.074 340.268 786.01C340.423 760.946 360.867 740.753 385.931 740.908C410.996 741.062 431.189 761.506 431.035 786.57C430.88 811.634 410.436 831.828 385.372 831.673Z" fill="#141414"/>
<path d="M204.589 826.048C167.236 825.818 137.144 795.351 137.374 757.999C137.605 720.646 168.07 690.552 205.423 690.782C242.776 691.012 272.87 721.48 272.64 758.833C272.409 796.186 241.942 826.279 204.589 826.048Z" fill="#141414"/>
<path d="M205.877 735.182L385.929 740.905L385.397 827.092L210.464 826.013L205.877 735.182Z" fill="#141414"/>
<path d="M141.125 778.867L130.796 683.738H223.115L141.125 778.867Z" fill="#141414"/>
<path d="M162.716 445L172.596 507.654L226.399 516.796L214.995 446.102L162.716 445Z" fill="#8C3A03"/>
<path d="M163.684 450.489C156.696 428.875 172.658 404.362 199.336 395.736C226.014 387.111 253.306 397.639 260.294 419.252C267.282 440.865 251.32 465.379 224.642 474.005C197.964 482.631 170.672 472.102 163.684 450.489Z" fill="#8C3A03"/>
<path d="M250.449 416.091L263.323 431.154L264.326 447.225L275.722 473.537L268.202 477.588L265.144 505.778L248.514 504.715L248.6 527.063L202.201 528.645L202.611 485.444L194.638 477.536L198.885 458.122L208.988 467.276L216.607 437.101L250.449 416.091Z" fill="#FCAA73"/>
<path d="M248.603 522.86L223.264 502.997L248.514 504.712L248.603 522.86Z" fill="url(#paint1_linear_196_25323)"/>
<path d="M250.452 416.091L263.326 431.155L208.481 469.742L216.61 437.102L250.452 416.091Z" fill="url(#paint2_linear_196_25323)"/>
<path d="M211.684 496.581L203.358 510.411L202.622 485.443L211.684 496.581Z" fill="url(#paint3_linear_196_25323)"/>
<path d="M266.736 490.992L262.318 479.786L268.096 477.605L266.736 490.992Z" fill="url(#paint4_linear_196_25323)"/>
<path d="M115.136 592.972C118.157 575.921 130.301 561.954 146.725 556.606L200.796 538.045V523.574H249.843V538.045L254.642 540.436L303.849 556.606C320.273 562.016 332.417 575.984 335.438 592.972L327.645 690.785L320.261 741.812L137.354 756.257L103.912 654.517L115.136 592.972Z" fill="#561093"/>
<path d="M162.944 695.969H96.7023L105.006 648.867H171.123L162.944 695.969Z" fill="#FCAA73"/>
<path d="M134.529 739.302C113.458 739.302 96.3768 722.009 96.3768 700.678C96.3768 679.347 113.458 662.055 134.529 662.055C155.6 662.055 172.682 679.347 172.682 700.678C172.682 722.009 155.6 739.302 134.529 739.302Z" fill="#FCAA73"/>
<path d="M176.546 617.363L160.774 702.146H236.137L176.546 617.363Z" fill="url(#paint5_linear_196_25323)"/>
<path d="M119.309 695.967L164.749 665.225L209.87 634.734L241.773 680.879L150.543 736.474L119.309 695.967Z" fill="#FCAA73"/>
<path d="M171.123 652.637L169.296 662.579L120.081 695.97H96.7023L99.4118 680.4L171.123 652.637Z" fill="url(#paint6_linear_196_25323)"/>
<path d="M209.744 634.959L279.428 627.199L311.222 637.15L330.324 651.294L324.857 656.613L312.73 651.419L326.114 664.311L318.951 669.13L289.167 650.23L307.892 671.445L302.237 675.576L279.616 660.744L293.44 675.889L288.539 679.894L266.295 665.562L241.098 680.895L209.744 634.959Z" fill="#FCAA73"/>
<path d="M247.399 689.156H397.801C400.893 689.156 403.229 691.996 402.661 695.026L401.714 699.886C401.272 702.221 399.252 703.862 396.854 703.862H246.452C243.359 703.862 241.024 701.022 241.592 697.992L242.539 693.133C242.981 690.797 245 689.156 247.399 689.156Z" fill="#666666"/>
<path d="M494.621 593.285H328.882C326.547 593.285 324.527 594.926 324.022 597.261L304.457 697.992C303.889 701.022 306.224 703.862 309.316 703.862H475.056C477.391 703.862 479.41 702.221 479.915 699.886L499.481 599.155C500.049 596.125 497.714 593.285 494.621 593.285Z" fill="#E0E0E0"/>
<path fill-rule="evenodd" clip-rule="evenodd" d="M338.06 1034.52H555.934V1019.89H338.06V1034.52Z" fill="#1967F1"/>
<path fill-rule="evenodd" clip-rule="evenodd" d="M355 1052.52H548V1030.52H355V1052.52Z" fill="#0C4EC0"/>
<path d="M865.814 660.543H1062.04L1007.25 881.274H811.029L865.814 660.543Z" fill="#0C4EC0"/>
<path d="M635.817 1052.9L657.174 999.375L599.679 976.433L578.323 1029.95L635.817 1052.9Z" fill="#8C3A03"/>
<path d="M753.475 1041.74L756.113 984.176L694.275 981.341L691.637 1038.91L753.475 1041.74Z" fill="#8C3A03"/>
<path d="M650.549 1032.46L579.744 1013.49C577.644 1017.55 560.435 1027.83 543.423 1024.43C511.017 1018.06 519.744 1036.73 519.744 1036.73L636.403 1067.99L650.549 1032.46Z" fill="url(#paint7_linear_196_25323)"/>
<path d="M976.087 1058.05H812.98V1080.52H976.087V1058.05Z" fill="#0C4EC0"/>
<path d="M905.764 1068.8L905.764 905.691L883.3 905.691L883.3 1068.8L905.764 1068.8Z" fill="#0C4EC0"/>
<path d="M895.509 926.201C917.355 926.201 935.065 908.273 935.065 886.157C935.065 864.042 917.355 846.113 895.509 846.113C873.663 846.113 855.953 864.042 855.953 886.157C855.953 908.273 873.663 926.201 895.509 926.201Z" fill="#072F73"/>
<path d="M883.383 761.24L686.402 761.24C660.68 758.033 637.192 776.323 633.982 802.061C633.965 802.199 633.947 802.338 633.93 802.476L574.836 999.295L668.044 1010.92L714.909 854.734L834.947 869.704C840.67 873.369 913.675 861.506 920.867 862.403C946.589 865.611 903.779 861.705 906.989 835.967C910.043 810.35 909.105 764.448 883.383 761.24Z" fill="url(#paint8_linear_196_25323)"/>
<path d="M1006.78 881.272H783.682V858.809H1012.23L1006.78 881.272Z" fill="#0C4EC0"/>
<path d="M759.828 1024.59L686.527 1025.05C685.577 1029.52 671.705 1043.99 654.259 1045.21C621.323 1047.65 634.683 1063.34 634.683 1063.34L755.455 1062.6L759.828 1024.59Z" fill="#072F73"/>
<path d="M667.661 1011.27L761.766 1010.69L793.744 807.621L699.64 808.201L667.661 1011.27Z" fill="#0096FA"/>
<path d="M743.072 866.904C769.058 866.744 789.995 845.547 789.834 819.561C789.674 793.575 768.478 772.639 742.492 772.8C716.506 772.96 695.569 794.155 695.73 820.142C695.89 846.128 717.086 867.064 743.072 866.904Z" fill="#0096FA"/>
<path d="M930.506 861.071C969.233 860.832 1000.43 829.245 1000.19 790.518C999.954 751.791 968.368 720.59 929.641 720.829C890.914 721.068 859.713 752.656 859.952 791.383C860.191 830.11 891.779 861.31 930.506 861.071Z" fill="#0096FA"/>
<path d="M929.173 766.864L742.498 772.797L743.049 862.154L924.417 861.036L929.173 766.864Z" fill="#0096FA"/>
<path d="M996.303 812.155L1007.01 713.527H911.297L996.303 812.155Z" fill="#0096FA"/>
<path d="M864.857 437.109H927.348L932.125 441.886V559.475H885.927V540.629H864.857C863.025 538.797 861.978 537.75 860.08 535.853V441.886L864.857 437.109Z" fill="#8C3A03"/>
<path d="M927.348 437.109L932.125 441.886L932.453 495.74L932.06 496.002L884.422 448.103L860.08 477.418V441.886L864.857 437.109H927.348Z" fill="#141414"/>
<path d="M937.822 514.782H924.734V494.301H942.468V510.202C942.468 512.754 940.374 514.782 937.822 514.782Z" fill="#8C3A03"/>
<path d="M921.393 539.778H932.124V514.781H921.393V539.778Z" fill="url(#paint9_linear_196_25323)"/>
<path d="M902.223 540.562H885.93V547.106H902.223V540.562Z" fill="url(#paint10_linear_196_25323)"/>
<path fill-rule="evenodd" clip-rule="evenodd" d="M878.976 488.033C879.619 488.314 879.912 489.063 879.631 489.705L869.874 512.007H879.514C880.216 512.007 880.784 512.575 880.784 513.277C880.784 513.978 880.216 514.547 879.514 514.547H867.932C867.504 514.547 867.104 514.33 866.869 513.972C866.635 513.613 866.597 513.16 866.769 512.768L877.304 488.687C877.585 488.044 878.334 487.751 878.976 488.033Z" fill="#141414"/>
<path d="M1023.25 619.427C1020.12 601.749 1007.53 587.268 990.498 581.723L932.043 562.48V547.477H886.049V562.48L878.612 564.959L827.594 581.723C810.567 587.333 797.975 601.814 794.844 619.427L802.922 720.838L810.578 773.742L1000.21 788.718L1034.89 683.236L1023.25 619.427Z" fill="#35DE90"/>
<path d="M973.681 726.209H1042.36L1033.75 677.375H965.201L973.681 726.209Z" fill="#8C3A03"/>
<path d="M1003.14 771.135C1024.99 771.135 1042.7 753.207 1042.7 731.091C1042.7 708.975 1024.99 691.047 1003.14 691.047C981.294 691.047 963.584 708.975 963.584 731.091C963.584 753.207 981.294 771.135 1003.14 771.135Z" fill="#8C3A03"/>
<path d="M959.579 644.711L975.932 732.613H897.797L959.579 644.711Z" fill="url(#paint11_linear_196_25323)"/>
<path d="M1018.92 726.207L971.813 694.335L925.032 662.723L891.955 710.564L986.541 768.205L1018.92 726.207Z" fill="#8C3A03"/>
<path d="M965.201 681.281L967.096 691.589L1018.12 726.209H1042.36L1039.55 710.066L965.201 681.281Z" fill="url(#paint12_linear_196_25323)"/>
<path d="M925.158 662.956L852.911 654.91L819.947 665.227L800.143 679.891L805.81 685.406L818.384 680.021L804.508 693.387L811.934 698.383L842.813 678.788L823.4 700.784L829.263 705.066L852.716 689.688L838.384 705.39L843.465 709.543L866.527 694.684L892.65 710.581L925.158 662.956Z" fill="#8C3A03"/>
<path d="M885.444 687.918H729.51C726.304 687.918 723.883 690.863 724.471 694.004L725.453 699.042C725.911 701.463 728.005 703.165 730.492 703.165H886.426C889.632 703.165 892.053 700.22 891.464 697.079L890.483 692.04C890.025 689.619 887.931 687.918 885.444 687.918Z" fill="#072F73"/>
<path d="M629.127 588.52H800.963C803.384 588.52 805.478 590.221 806.001 592.642L826.286 697.078C826.875 700.219 824.454 703.164 821.248 703.164H649.412C646.991 703.164 644.897 701.462 644.374 699.041L624.089 594.605C623.5 591.464 625.921 588.52 629.127 588.52Z" fill="#0C4EC0"/>
<path fill-rule="evenodd" clip-rule="evenodd" d="M685.826 1069.68C684.445 1070.48 682.682 1070.05 681.812 1068.72L452.726 716.754C451.788 715.313 452.251 713.379 453.741 712.519L461.674 707.939C463.055 707.142 464.818 707.564 465.688 708.901L694.774 1060.86C695.712 1062.31 695.249 1064.24 693.759 1065.1L685.826 1069.68Z" fill="#A3A3A3"/>
<path fill-rule="evenodd" clip-rule="evenodd" d="M478.674 1069.68C480.055 1070.48 481.818 1070.05 482.688 1068.72L711.774 716.754C712.712 715.313 712.249 713.379 710.759 712.519L702.826 707.939C701.445 707.142 699.682 707.564 698.812 708.901L469.726 1060.86C468.788 1062.31 469.251 1064.24 470.741 1065.1L478.674 1069.68Z" fill="#A3A3A3"/>
<path d="M896.908 701.52H205.89C201.795 701.52 202.002 704.839 202.002 708.934C202.002 713.029 201.795 716.349 205.89 716.349H896.908C901.003 716.349 900.796 713.029 900.796 708.934C900.796 704.839 901.003 701.52 896.908 701.52Z" fill="#0096FA"/>
<path d="M454.629 187.808C454.629 183.297 458.303 179.641 462.835 179.641H708.008C712.539 179.641 716.213 183.297 716.213 187.808V519.344C716.213 523.855 712.539 527.512 708.008 527.512H462.835C458.303 527.512 454.629 523.855 454.629 519.344V187.808Z" fill="#1967F1"/>
<path d="M454.629 187.509C454.629 183.163 458.152 179.641 462.497 179.641H697.591C701.936 179.641 705.459 183.163 705.459 187.509V506.913C705.459 511.259 701.936 514.782 697.591 514.782H462.497C458.152 514.782 454.629 511.259 454.629 506.913V187.509Z" fill="#F8FBFB"/>
<path fill-rule="evenodd" clip-rule="evenodd" d="M502.877 380.815C502.877 377.39 505.653 374.613 509.078 374.613H630.365C633.79 374.613 636.567 377.39 636.567 380.815C636.567 384.24 633.79 387.016 630.365 387.016H509.078C505.653 387.016 502.877 384.24 502.877 380.815Z" fill="#D2DFE6"/>
<path fill-rule="evenodd" clip-rule="evenodd" d="M502.877 420.549C502.877 417.124 505.653 414.348 509.078 414.348H630.365C633.79 414.348 636.567 417.124 636.567 420.549C636.567 423.974 633.79 426.75 630.365 426.75H509.078C505.653 426.75 502.877 423.974 502.877 420.549Z" fill="#D2DFE6"/>
<path fill-rule="evenodd" clip-rule="evenodd" d="M502.877 460.28C502.877 456.855 505.653 454.078 509.078 454.078H580.178C583.602 454.078 586.379 456.855 586.379 460.28C586.379 463.704 583.602 466.481 580.178 466.481H509.078C505.653 466.481 502.877 463.704 502.877 460.28Z" fill="#D2DFE6"/>
<path d="M454.629 179.641H701.459C703.668 179.641 705.459 181.431 705.459 183.641V216.613H454.629V179.641Z" fill="#141414"/>
<ellipse cx="478.419" cy="198.063" rx="4.75909" ry="5.02364" fill="#E60F0F"/>
<ellipse cx="491.115" cy="198.063" rx="4.75909" ry="5.02364" fill="#F06305"/>
<ellipse cx="503.808" cy="198.063" rx="4.75909" ry="5.02364" fill="#35DE90"/>
<g clip-path="url(#clip1_196_25323)">
<path d="M531.834 283.638C531.834 274.7 534.385 266.375 538.803 259.318C544.825 249.71 554.301 242.493 565.513 239.402C569.392 238.338 573.488 237.77 577.702 237.77C581.77 237.77 585.706 238.294 589.453 239.286C600.694 242.26 610.259 249.39 616.368 258.954C620.931 266.084 623.57 274.554 623.57 283.638C623.57 308.977 603.027 329.506 577.702 329.506C552.362 329.506 531.834 308.977 531.834 283.638Z" fill="url(#paint13_linear_196_25323)"/>
<path d="M583.039 314.125L572.687 302.811L570.967 270.983L573.372 270.065L577.819 282.502L577.017 263.446L580.896 262.425L583.637 279.542L584.555 258.766L588.433 259.334V278.857L591.743 264.014L594.703 265.05L594.018 284.893L601.322 277.588L603.83 279.425L595.942 296.25L600.797 301.864L583.039 314.125Z" fill="url(#paint14_linear_196_25323)"/>
<path d="M572.818 314.125L583.184 302.811L584.89 270.983L582.499 270.065L578.052 282.502L578.84 263.446L574.961 262.425L572.22 279.542L571.316 258.766L567.438 259.334V278.857L564.129 264.014L561.154 265.05L561.84 284.893L554.535 277.588L552.027 279.425L559.915 296.25L555.075 301.864L572.818 314.125Z" fill="url(#paint15_linear_196_25323)"/>
<path d="M576.828 315.114L565.951 327.988C554.696 325.014 545.146 317.884 539.037 308.32L551.415 293.652L576.828 315.114Z" fill="#1968F0"/>
<path d="M616.6 307.956C610.578 317.564 601.087 324.796 589.89 327.872L579.115 315.115L604.528 293.668L616.6 307.956Z" fill="#0096FA"/>
</g>
<path d="M779.793 19.2933C779.793 15.5501 782.842 12.5156 786.603 12.5156H990.062C993.823 12.5156 996.872 15.5501 996.872 19.2933V294.422C996.872 298.166 993.823 301.2 990.062 301.2H786.603C782.842 301.2 779.793 298.166 779.793 294.422V19.2933Z" fill="#1967F1"/>
<path d="M779.793 19.0453C779.793 15.4391 782.716 12.5156 786.323 12.5156H981.418C985.024 12.5156 987.947 15.4391 987.947 19.0453V284.107C987.947 287.713 985.024 290.636 981.418 290.636H786.323C782.716 290.636 779.793 287.713 779.793 284.107V19.0453Z" fill="#F8FBFB"/>
<path fill-rule="evenodd" clip-rule="evenodd" d="M819.834 179.463C819.834 176.62 822.138 174.316 824.98 174.316H925.632C928.474 174.316 930.778 176.62 930.778 179.463C930.778 182.305 928.474 184.609 925.632 184.609H824.98C822.138 184.609 819.834 182.305 819.834 179.463Z" fill="#D2DFE6"/>
<path fill-rule="evenodd" clip-rule="evenodd" d="M819.834 212.435C819.834 209.593 822.138 207.289 824.98 207.289H925.632C928.474 207.289 930.778 209.593 930.778 212.435C930.778 215.278 928.474 217.582 925.632 217.582H824.98C822.138 217.582 819.834 215.278 819.834 212.435Z" fill="#D2DFE6"/>
<path fill-rule="evenodd" clip-rule="evenodd" d="M819.834 245.408C819.834 242.566 822.138 240.262 824.98 240.262H883.983C886.825 240.262 889.129 242.566 889.129 245.408C889.129 248.25 886.825 250.554 883.983 250.554H824.98C822.138 250.554 819.834 248.25 819.834 245.408Z" fill="#D2DFE6"/>
<path d="M779.793 12.5156H983.947C986.156 12.5156 987.947 14.3065 987.947 16.5156V43.198H779.793V12.5156Z" fill="#141414"/>
<ellipse cx="799.535" cy="27.8017" rx="3.94938" ry="4.16892" fill="#E60F0F"/>
<ellipse cx="810.072" cy="27.8017" rx="3.94938" ry="4.16892" fill="#F06305"/>
<ellipse cx="820.606" cy="27.8017" rx="3.94938" ry="4.16892" fill="#35DE90"/>
<path d="M243 122.752C243 120.561 244.784 118.785 246.985 118.785H366.051C368.252 118.785 370.036 120.561 370.036 122.751V283.759C370.036 285.949 368.252 287.725 366.051 287.725H246.985C244.784 287.725 243 285.949 243 283.759V122.752Z" fill="#1967F1"/>
<path d="M243 122.606C243 120.496 244.711 118.785 246.821 118.785H360.992C363.102 118.785 364.813 120.496 364.813 122.606V277.722C364.813 279.832 363.102 281.543 360.992 281.543H246.821C244.711 281.543 243 279.832 243 277.722V122.606Z" fill="#F8FBFB"/>
<path fill-rule="evenodd" clip-rule="evenodd" d="M266.436 216.484C266.436 214.821 267.784 213.473 269.447 213.473H328.349C330.012 213.473 331.361 214.821 331.361 216.484C331.361 218.148 330.012 219.496 328.349 219.496H269.447C267.784 219.496 266.436 218.148 266.436 216.484Z" fill="#D2DFE6"/>
<path fill-rule="evenodd" clip-rule="evenodd" d="M266.436 235.781C266.436 234.118 267.784 232.77 269.447 232.77H328.349C330.012 232.77 331.361 234.118 331.361 235.781C331.361 237.444 330.012 238.793 328.349 238.793H269.447C267.784 238.793 266.436 237.444 266.436 235.781Z" fill="#D2DFE6"/>
<path fill-rule="evenodd" clip-rule="evenodd" d="M266.436 255.078C266.436 253.415 267.784 252.066 269.447 252.066H303.976C305.639 252.066 306.987 253.415 306.987 255.078C306.987 256.741 305.639 258.09 303.976 258.09H269.447C267.784 258.09 266.436 256.741 266.436 255.078Z" fill="#D2DFE6"/>
<path d="M243 118.785H360.813C363.022 118.785 364.813 120.576 364.813 122.785V136.741H243V118.785Z" fill="#141414"/>
<ellipse cx="254.553" cy="127.733" rx="2.3112" ry="2.43968" fill="#E60F0F"/>
<ellipse cx="260.719" cy="127.733" rx="2.3112" ry="2.43968" fill="#F06305"/>
<ellipse cx="266.883" cy="127.733" rx="2.3112" ry="2.43968" fill="#35DE90"/>
<path d="M303.852 197.805C291.311 197.805 281.145 187.638 281.145 175.098C281.145 162.557 291.311 152.391 303.852 152.391C316.392 152.391 326.559 162.557 326.559 175.098C326.559 187.638 316.392 197.805 303.852 197.805Z" fill="#35DE90"/>
<path d="M303.857 197.778C291.33 197.778 281.175 187.623 281.175 175.096C281.175 162.569 291.33 152.414 303.857 152.414C316.384 152.414 326.539 162.569 326.539 175.096C326.539 187.623 316.384 197.778 303.857 197.778Z" fill="#35DE90"/>
<path d="M292.133 170.133L292.083 184.397L303.701 188.354V172.25L292.133 170.133Z" fill="black"/>
<path d="M292.147 171.388C291.37 166.339 295.792 161.468 302.024 160.509C308.256 159.549 313.938 162.864 314.715 167.913C315.493 172.962 311.071 177.833 304.839 178.792C298.607 179.752 292.925 176.437 292.147 171.388Z" fill="black"/>
<path d="M312.648 166.855L314.966 170.661L314.613 174.265L316.201 180.515L314.387 181.145L312.698 187.294L309.044 186.463L308.263 191.427L297.905 190.117L299.543 180.54L298.056 178.499L299.694 174.341L301.609 176.735L304.381 170.308L312.648 166.855Z" fill="#8C3A03"/>
<path d="M308.415 190.497L303.5 185.18L309.045 186.465L308.415 190.497Z" fill="url(#paint16_linear_196_25323)"/>
<path d="M312.648 166.855L314.967 170.661L301.408 177.264L304.382 170.308L312.648 166.855Z" fill="url(#paint17_linear_196_25323)"/>
<path d="M301.158 183.34L298.814 186.113L299.545 180.543L301.158 183.34Z" fill="url(#paint18_linear_196_25323)"/>
<path d="M313.578 184.072L312.998 181.426L314.359 181.148L313.578 184.072Z" fill="url(#paint19_linear_196_25323)"/>
<path d="M308.485 183.982C308.447 183.609 308.808 183.265 309.293 183.216C309.778 183.167 310.201 183.43 310.24 183.804C310.278 184.177 309.916 184.521 309.431 184.57C308.946 184.619 308.523 184.356 308.485 183.982Z" fill="#A3A3A3"/>
<path d="M308.766 183.919C308.766 183.919 300.197 184.927 298.206 177.77" stroke="url(#paint20_linear_196_25323)" stroke-width="2" stroke-miterlimit="10"/>
<mask id="mask0_196_25323" style="mask-type:luminance" maskUnits="userSpaceOnUse" x="292" y="153" width="15" height="22">
<path d="M306.943 160.684L304.121 160.406L299.484 174.721L292.074 174.545L302.054 153.375L306.943 160.684Z" fill="white"/>
</mask>
<g mask="url(#mask0_196_25323)">
<path d="M306.59 161.59C305.481 160.128 304.246 159.296 302.961 159.372C299.407 159.599 296.963 166.605 297.492 175.048" stroke="#0C4EC0" stroke-width="6.3029" stroke-miterlimit="10"/>
</g>
<path d="M294.905 177.645C295.358 180.039 297.223 181.702 299.038 181.349C300.852 180.997 301.961 178.779 301.508 176.385C301.054 173.991 299.189 172.327 297.375 172.68C295.56 173.033 294.451 175.251 294.905 177.645Z" fill="url(#paint21_linear_196_25323)"/>
<path d="M881.572 137.05C902.668 137.05 919.769 119.949 919.769 98.8534C919.769 77.7577 902.668 60.6562 881.572 60.6562C860.476 60.6562 843.375 77.7577 843.375 98.8534C843.375 119.949 860.476 137.05 881.572 137.05Z" fill="#FEDBC3"/>
<path d="M881.572 137.05C902.668 137.05 919.769 119.949 919.769 98.8534C919.769 77.7577 902.668 60.6562 881.572 60.6562C860.476 60.6562 843.375 77.7577 843.375 98.8534C843.375 119.949 860.476 137.05 881.572 137.05Z" fill="#FEDBC3"/>
<path d="M890.557 112.555L901.157 96.6554L897.537 81.6609L865.48 79.2695L863.541 87.0253L870.715 90.1922L890.557 112.555Z" fill="#F06305"/>
<path d="M870.909 86.3789L867.677 93.3591L867.936 97.4955L865.156 105.898L867.548 106.544L868.97 116.626L875.562 115.592L877.501 123.477L893.723 121.732L889.135 106.091L891.978 102.666L888.294 98.2065L886.42 100.275L883.77 91.3556L870.909 86.3789Z" fill="#FCAA73"/>
<path d="M876.853 120.826L882.928 114.363L875.561 115.591L876.853 120.826Z" fill="url(#paint22_linear_196_25323)"/>
<path d="M886.422 111.454L891.916 115.591L889.136 106.09L886.422 111.454Z" fill="url(#paint23_linear_196_25323)"/>
<path d="M868.128 110.938L870.197 107.254L867.547 106.543L868.128 110.938Z" fill="url(#paint24_linear_196_25323)"/>
</g>
<defs>
<linearGradient id="paint0_linear_196_25323" x1="510.586" y1="755.608" x2="316.939" y2="861.403" gradientUnits="userSpaceOnUse">
<stop offset="0.286458" stop-color="#141414"/>
<stop offset="0.746571" stop-color="#292929"/>
</linearGradient>
<linearGradient id="paint1_linear_196_25323" x1="228.164" y1="525.278" x2="247.966" y2="493.869" gradientUnits="userSpaceOnUse">
<stop offset="0.4289" stop-opacity="0"/>
<stop offset="1" stop-opacity="0.5"/>
</linearGradient>
<linearGradient id="paint2_linear_196_25323" x1="267.788" y1="490.579" x2="206.098" y2="411.107" gradientUnits="userSpaceOnUse">
<stop offset="0.5074" stop-opacity="0"/>
<stop offset="0.8834" stop-opacity="0.5"/>
</linearGradient>
<linearGradient id="paint3_linear_196_25323" x1="222.516" y1="509.358" x2="190.875" y2="490.422" gradientUnits="userSpaceOnUse">
<stop offset="0.3675" stop-opacity="0"/>
<stop offset="0.8842" stop-opacity="0.5"/>
</linearGradient>
<linearGradient id="paint4_linear_196_25323" x1="257.575" y1="493.91" x2="274.432" y2="475.439" gradientUnits="userSpaceOnUse">
<stop offset="0.3675" stop-opacity="0"/>
<stop offset="0.9278" stop-opacity="0.5"/>
</linearGradient>
<linearGradient id="paint5_linear_196_25323" x1="218.866" y1="648.895" x2="151.048" y2="708.6" gradientUnits="userSpaceOnUse">
<stop offset="0.1453" stop-color="#561093"/>
<stop offset="0.652544" stop-color="#2B0849"/>
</linearGradient>
<linearGradient id="paint6_linear_196_25323" x1="122.103" y1="647.81" x2="151.832" y2="715.546" gradientUnits="userSpaceOnUse">
<stop offset="0.1875" stop-color="#F8BC9A" stop-opacity="0"/>
<stop offset="0.7905" stop-color="#E60F0F"/>
</linearGradient>
<linearGradient id="paint7_linear_196_25323" x1="560.87" y1="994.249" x2="620.325" y2="1093.2" gradientUnits="userSpaceOnUse">
<stop offset="0.2603" stop-color="#072F73"/>
<stop offset="0.3664" stop-color="#072C6D"/>
<stop offset="0.5132" stop-color="#06255B"/>
<stop offset="0.6836" stop-color="#04193D"/>
<stop offset="0.8706" stop-color="#010915"/>
<stop offset="0.9558"/>
</linearGradient>
<linearGradient id="paint8_linear_196_25323" x1="613.254" y1="788.044" x2="843.372" y2="997.445" gradientUnits="userSpaceOnUse">
<stop offset="0.0262009" stop-color="#0096FA"/>
<stop offset="0.641" stop-color="#1968F0"/>
</linearGradient>
<linearGradient id="paint9_linear_196_25323" x1="916.707" y1="529.743" x2="945.477" y2="522.719" gradientUnits="userSpaceOnUse">
<stop stop-color="#8C3A03" stop-opacity="0.2"/>
<stop offset="0.9375" stop-color="#763103"/>
</linearGradient>
<linearGradient id="paint10_linear_196_25323" x1="900.964" y1="553.902" x2="886.874" y2="533.314" gradientUnits="userSpaceOnUse">
<stop stop-color="#8C3A03" stop-opacity="0.13"/>
<stop offset="1" stop-color="#642901"/>
</linearGradient>
<linearGradient id="paint11_linear_196_25323" x1="915.703" y1="677.403" x2="986.016" y2="739.304" gradientUnits="userSpaceOnUse">
<stop offset="0.1453" stop-color="#35DE90"/>
<stop offset="0.652544" stop-color="#10603B"/>
</linearGradient>
<linearGradient id="paint12_linear_196_25323" x1="1016.02" y1="676.277" x2="985.202" y2="746.505" gradientUnits="userSpaceOnUse">
<stop offset="0.2814" stop-color="#F8BC9A" stop-opacity="0"/>
<stop offset="0.297" stop-color="#8C3A03"/>
<stop offset="0.7905" stop-color="#732F02"/>
</linearGradient>
<linearGradient id="paint13_linear_196_25323" x1="577.698" y1="233.322" x2="577.698" y2="355.584" gradientUnits="userSpaceOnUse">
<stop stop-color="#C5D9FB"/>
<stop offset="0.3174" stop-color="#C3D8FB"/>
<stop offset="0.47" stop-color="#BBD3FA"/>
<stop offset="0.5875" stop-color="#AECAFA"/>
<stop offset="0.687" stop-color="#9CBEF8"/>
<stop offset="0.7752" stop-color="#84AEF7"/>
<stop offset="0.8552" stop-color="#669BF5"/>
<stop offset="0.9277" stop-color="#4484F3"/>
<stop offset="0.9952" stop-color="#1C6AF0"/>
<stop offset="1" stop-color="#1968F0"/>
</linearGradient>
<linearGradient id="paint14_linear_196_25323" x1="586.681" y1="267.419" x2="590.49" y2="324.608" gradientUnits="userSpaceOnUse">
<stop stop-color="#8C3A03"/>
<stop offset="0.4204" stop-color="#8A3903"/>
<stop offset="0.5718" stop-color="#833603"/>
<stop offset="0.6797" stop-color="#783203"/>
<stop offset="0.767" stop-color="#672B02"/>
<stop offset="0.8417" stop-color="#512102"/>
<stop offset="0.9079" stop-color="#351601"/>
<stop offset="0.9663" stop-color="#160900"/>
<stop offset="1"/>
</linearGradient>
<linearGradient id="paint15_linear_196_25323" x1="562.744" y1="266.95" x2="583.808" y2="323.594" gradientUnits="userSpaceOnUse">
<stop stop-color="#FCAA73"/>
<stop offset="0.1798" stop-color="#FCA76F"/>
<stop offset="0.3742" stop-color="#FA9F62"/>
<stop offset="0.5754" stop-color="#F8914C"/>
<stop offset="0.7812" stop-color="#F47D2E"/>
<stop offset="0.9888" stop-color="#F06407"/>
<stop offset="1" stop-color="#F06305"/>
</linearGradient>
<linearGradient id="paint16_linear_196_25323" x1="303.79" y1="190.302" x2="309.312" y2="184.038" gradientUnits="userSpaceOnUse">
<stop offset="0.4289" stop-opacity="0"/>
<stop offset="1" stop-opacity="0.5"/>
</linearGradient>
<linearGradient id="paint17_linear_196_25323" x1="313.829" y1="184.014" x2="302.979" y2="164.16" gradientUnits="userSpaceOnUse">
<stop offset="0.5074" stop-opacity="0"/>
<stop offset="0.8834" stop-opacity="0.5"/>
</linearGradient>
<linearGradient id="paint18_linear_196_25323" x1="303.105" y1="186.565" x2="296.759" y2="181.228" gradientUnits="userSpaceOnUse">
<stop offset="0.3675" stop-opacity="0"/>
<stop offset="0.8842" stop-opacity="0.5"/>
</linearGradient>
<linearGradient id="paint19_linear_196_25323" x1="311.44" y1="184.392" x2="315.844" y2="180.894" gradientUnits="userSpaceOnUse">
<stop offset="0.3675" stop-opacity="0"/>
<stop offset="0.9278" stop-opacity="0.5"/>
</linearGradient>
<linearGradient id="paint20_linear_196_25323" x1="297.982" y1="180.957" x2="308.806" y2="180.957" gradientUnits="userSpaceOnUse">
<stop stop-color="#E0E0E0"/>
<stop offset="0.233" stop-color="#D9D9D9"/>
<stop offset="0.5821" stop-color="#C4C4C4"/>
<stop offset="1" stop-color="#A3A3A3"/>
</linearGradient>
<linearGradient id="paint21_linear_196_25323" x1="295.699" y1="173.251" x2="302.101" y2="182.789" gradientUnits="userSpaceOnUse">
<stop stop-color="#E0E0E0"/>
<stop offset="0.233" stop-color="#D9D9D9"/>
<stop offset="0.5821" stop-color="#C4C4C4"/>
<stop offset="1" stop-color="#A3A3A3"/>
</linearGradient>
<linearGradient id="paint22_linear_196_25323" x1="882.139" y1="119.106" x2="875.352" y2="113.742" gradientUnits="userSpaceOnUse">
<stop offset="0.2944" stop-opacity="0"/>
<stop offset="1" stop-opacity="0.5"/>
</linearGradient>
<linearGradient id="paint23_linear_196_25323" x1="887.727" y1="118.026" x2="893.248" y2="104.193" gradientUnits="userSpaceOnUse">
<stop offset="0.3675" stop-opacity="0"/>
<stop offset="0.8842" stop-opacity="0.5"/>
</linearGradient>
<linearGradient id="paint24_linear_196_25323" x1="871.148" y1="112.13" x2="867.583" y2="105.031" gradientUnits="userSpaceOnUse">
<stop offset="0.3675" stop-opacity="0"/>
<stop offset="0.9278" stop-opacity="0.5"/>
</linearGradient>
<clipPath id="clip0_196_25323">
<rect width="1080" height="1080" fill="white" transform="translate(0 0.515625)"/>
</clipPath>
<clipPath id="clip1_196_25323">
<rect width="91.7362" height="91.7362" fill="white" transform="translate(531.834 237.77)"/>
</clipPath>
</defs>
</svg>
