<svg xmlns="http://www.w3.org/2000/svg" width="1080" height="1080" viewBox="0 0 1080 1080" fill="none"><ellipse cx="443.126" cy="625.447" fill="#C5D9FB" rx="411.126" ry="415.447"/><path fill="#0C4EC0" d="M266.985 632.116H77.723l52.843 212.9h189.26z"/><path fill="#FCAA73" d="m488.822 1010.55-20.599-51.622 55.455-22.128 20.599 51.622zM375.338 999.789l-2.545-55.522 59.644-2.734 2.545 55.522z"/><path fill="#072F73" d="m474.613 990.839 68.293-18.299c2.026 3.918 18.623 13.831 35.032 10.55 31.257-6.145 22.839 11.866 22.839 11.866l-112.52 30.154z"/><path fill="#0C4EC0" d="M160.625 1015.52h157.32v21.67h-157.32z"/><path fill="#0C4EC0" d="M228.455 1025.89V868.567h21.667v157.323z"/><path fill="#072F73" d="M238.342 888.35c-21.071 0-38.152-17.292-38.152-38.624 0-21.331 17.081-38.623 38.152-38.623s38.153 17.292 38.153 38.623c0 21.332-17.082 38.624-38.153 38.624"/><path fill="url(#a)" d="M250.04 729.241h189.992c24.81-3.094 47.465 14.548 50.561 39.373l.05.4L547.64 958.85l-89.901 11.212-45.202-150.644-115.78 14.439c-5.519 3.535-75.935-7.907-82.871-7.042-24.81 3.094 16.482-.673 13.386-25.498-2.946-24.708-2.042-68.982 22.768-72.076"/><path fill="#0C4EC0" d="M131.018 845.016h215.187V823.35H125.769z"/><path fill="#072F73" d="m369.211 983.249 70.7.436c.916 4.315 14.297 18.265 31.123 19.455 31.768 2.35 18.882 17.48 18.882 17.48l-116.487-.71z"/><path fill="#141414" d="m458.108 970.404-90.767-.56-30.843-195.869 90.766.56z"/><path fill="#141414" d="M385.371 831.155c-25.065-.154-45.258-20.599-45.104-45.663s20.599-45.257 45.663-45.102c25.065.154 45.258 20.598 45.104 45.662s-20.599 45.258-45.663 45.103M204.589 825.531c-37.353-.23-67.445-30.697-67.215-68.049.231-37.353 30.696-67.447 68.049-67.217s67.447 30.698 67.217 68.051-30.698 67.446-68.051 67.215"/><path fill="#141414" d="m205.876 734.665 180.052 5.723-.531 86.187-174.934-1.079zM141.126 778.351l-10.33-95.128h92.32z"/><path fill="#8C3A03" d="m162.716 444.481 9.88 62.654 53.803 9.143-11.403-70.695z"/><path fill="#8C3A03" d="M163.683 449.97c-6.988-21.613 8.974-46.126 35.652-54.752s53.97 1.902 60.958 23.516-8.974 46.127-35.652 54.753-53.97-1.903-60.958-23.517"/><path fill="#FCAA73" d="m250.45 415.573 12.873 15.063 1.004 16.071 11.395 26.312-7.519 4.051-3.058 28.19-16.631-1.063.086 22.348-46.398 1.582.409-43.201-7.972-7.908 4.246-19.414 10.104 9.153 7.619-30.174z"/><path fill="url(#b)" d="m248.603 522.345-25.339-19.864 25.25 1.716z"/><path fill="url(#c)" d="m250.453 415.573 12.873 15.064-54.844 38.587 8.129-32.64z"/><path fill="url(#d)" d="m211.685 496.064-8.326 13.829-.736-24.967z"/><path fill="url(#e)" d="m266.737 490.474-4.419-11.206 5.778-2.18z"/><path fill="#561093" d="M115.136 592.457c3.02-17.051 15.165-31.018 31.588-36.366l54.071-18.561v-14.47h49.047v14.47l4.799 2.391 49.208 16.17c16.423 5.411 28.568 19.378 31.588 36.366l-7.792 97.814-7.384 51.027-182.907 14.444-33.442-101.74z"/><path fill="#FCAA73" d="M162.945 695.452H96.703l8.303-47.102h66.118z"/><path fill="#FCAA73" d="M134.529 738.785c-21.071 0-38.153-17.292-38.153-38.623s17.082-38.623 38.153-38.623 38.152 17.292 38.152 38.623-17.081 38.623-38.152 38.623"/><path fill="url(#f)" d="m176.546 616.845-15.772 84.783h75.363z"/><path fill="#FCAA73" d="m119.31 695.452 45.439-30.742 45.122-30.49 31.903 46.144-91.23 55.596z"/><path fill="url(#g)" d="m171.124 652.118-1.828 9.942-49.215 33.392H96.703l2.71-15.57z"/><path fill="#FCAA73" d="m209.744 634.444 69.684-7.76 31.794 9.95 19.102 14.144-5.467 5.32-12.127-5.195 13.384 12.892-7.163 4.819-29.784-18.9 18.725 21.216-5.655 4.13-22.621-14.832 13.824 15.145-4.901 4.005-22.244-14.331-25.197 15.333z"/><path fill="#666" d="M247.399 688.641h150.402c3.092 0 5.428 2.84 4.86 5.87l-.947 4.86c-.442 2.335-2.462 3.976-4.86 3.976H246.452c-3.093 0-5.428-2.84-4.86-5.87l.947-4.86c.442-2.335 2.461-3.976 4.86-3.976"/><path fill="#E0E0E0" d="M494.621 592.77H328.882c-2.335 0-4.355 1.641-4.86 3.976l-19.565 100.731c-.568 3.03 1.767 5.87 4.859 5.87h165.74c2.335 0 4.354-1.641 4.859-3.976l19.566-100.731c.568-3.03-1.767-5.87-4.86-5.87"/><path fill="#1967F1" fill-rule="evenodd" d="M338.06 1034h217.874v-14.63H338.06z" clip-rule="evenodd"/><path fill="#0C4EC0" fill-rule="evenodd" d="M355 1052h193v-22H355z" clip-rule="evenodd"/><path fill="#0C4EC0" d="M865.815 660.025h196.225l-54.79 220.731H811.03z"/><path fill="#8C3A03" d="m635.819 1052.38 21.357-53.522-57.495-22.942-21.356 53.524zM753.476 1041.22l2.638-57.562-61.838-2.835-2.638 57.567z"/><path fill="url(#h)" d="m650.549 1031.94-70.804-18.97c-2.101 4.06-19.309 14.34-36.321 10.94-32.407-6.37-23.679 12.3-23.679 12.3l116.659 31.26z"/><path fill="#0C4EC0" d="M976.087 1057.54H812.981V1080h163.106z"/><path fill="#0C4EC0" d="M905.764 1068.28V905.173H883.3v163.107z"/><path fill="#072F73" d="M895.51 925.684c21.846 0 39.556-17.928 39.556-40.044s-17.71-40.044-39.556-40.044-39.556 17.928-39.556 40.044 17.71 40.044 39.556 40.044"/><path fill="url(#i)" d="M883.384 760.723H686.403c-25.723-3.208-49.211 15.082-52.421 40.82l-.051.416-59.094 196.819 93.208 11.622 46.864-156.184 120.039 14.971c5.722 3.664 78.728-8.198 85.919-7.301 25.722 3.208-17.088-.698-13.878-26.436 3.054-25.617 2.117-71.519-23.605-74.727"/><path fill="#0C4EC0" d="M1006.78 880.756H783.682v-22.464h228.548z"/><path fill="#072F73" d="m759.828 1024.07-73.301.46c-.949 4.47-14.822 18.94-32.267 20.16-32.937 2.44-19.577 18.13-19.577 18.13l120.772-.74z"/><path fill="#0096FA" d="m667.662 1010.76 94.105-.58 31.978-203.078-94.104.58z"/><path fill="#0096FA" d="M743.073 866.385c25.986-.16 46.923-21.356 46.762-47.342-.16-25.987-21.356-46.922-47.342-46.762s-46.923 21.356-46.762 47.342c.16 25.986 21.356 46.923 47.342 46.762M930.506 860.555c38.727-.239 69.924-31.826 69.684-70.553-.236-38.727-31.822-69.928-70.549-69.689s-69.928 31.827-69.689 70.554 31.827 69.927 70.554 69.688"/><path fill="#0096FA" d="m929.173 766.347-186.675 5.932.551 89.358 181.368-1.119zM996.305 811.639l10.705-98.627h-95.711z"/><path fill="#8C3A03" d="M864.859 436.592h62.491l4.777 4.777v117.588h-46.198v-18.845h-21.07l-4.777-4.777v-93.966z"/><path fill="#141414" d="m927.35 436.592 4.777 4.777.327 53.854-.392.261-47.638-47.899-24.342 29.315v-35.531l4.777-4.777z"/><path fill="#8C3A03" d="M937.824 514.265h-13.087v-20.482h17.733v15.901c0 2.552-2.094 4.581-4.646 4.581"/><path fill="url(#j)" d="M921.395 539.261h10.731v-24.996h-10.731z"/><path fill="url(#k)" d="M902.226 540.046h-16.293v6.544h16.293z"/><path fill="#141414" fill-rule="evenodd" d="M878.978 487.515c.642.282.935 1.03.654 1.673l-9.757 22.302h9.641a1.27 1.27 0 1 1 0 2.54h-11.582a1.27 1.27 0 0 1-1.164-1.78l10.535-24.08a1.27 1.27 0 0 1 1.673-.655" clip-rule="evenodd"/><path fill="#35DE90" d="M1023.25 618.907c-3.13-17.678-15.72-32.159-32.752-37.704l-58.455-19.243v-15.003h-45.994v15.003l-7.437 2.479-51.018 16.764c-17.027 5.61-29.619 20.092-32.75 37.704l8.078 101.412 7.656 52.903 189.632 14.976 34.68-105.482z"/><path fill="#8C3A03" d="M973.683 725.691h68.677l-8.61-48.835h-68.547z"/><path fill="#8C3A03" d="M1003.14 770.618c21.85 0 39.56-17.928 39.56-40.044s-17.71-40.044-39.56-40.044c-21.845 0-39.555 17.928-39.555 40.044s17.71 40.044 39.555 40.044"/><path fill="url(#l)" d="m959.581 644.193 16.353 87.902h-78.135z"/><path fill="#8C3A03" d="m1018.92 725.691-47.107-31.873-46.781-31.612-33.077 47.842 94.586 57.64z"/><path fill="url(#m)" d="m965.203 680.763 1.895 10.308 51.022 34.62h24.24l-2.81-16.143z"/><path fill="#8C3A03" d="m925.16 662.438-72.247-8.045-32.964 10.316-19.804 14.664 5.667 5.515 12.573-5.385-13.876 13.366 7.427 4.996 30.879-19.595-19.413 21.996 5.863 4.282 23.453-15.377-14.332 15.702 5.081 4.153 23.062-14.859 26.123 15.897z"/><path fill="#072F73" d="M885.445 687.397H729.511c-3.206 0-5.628 2.945-5.039 6.086l.982 5.039c.458 2.421 2.552 4.122 5.039 4.122h155.934c3.206 0 5.627-2.945 5.038-6.085l-.981-5.039c-.458-2.421-2.552-4.123-5.039-4.123"/><path fill="#0C4EC0" d="M629.128 588h171.836c2.421 0 4.515 1.701 5.038 4.122l20.285 104.437c.589 3.14-1.832 6.085-5.038 6.085H649.413c-2.421 0-4.515-1.701-5.038-4.122L624.09 594.085c-.589-3.141 1.832-6.085 5.038-6.085"/><path fill="#A3A3A3" fill-rule="evenodd" d="M685.826 1069.16c-1.381.8-3.144.38-4.014-.96L452.726 716.237a3 3 0 0 1 1.015-4.235l7.933-4.58a3 3 0 0 1 4.014.962l229.086 351.966a2.995 2.995 0 0 1-1.015 4.23z" clip-rule="evenodd"/><path fill="#A3A3A3" fill-rule="evenodd" d="M478.674 1069.16c1.381.8 3.144.38 4.014-.96l229.086-351.963a3 3 0 0 0-1.015-4.235l-7.933-4.58a3 3 0 0 0-4.014.962L469.726 1060.35a2.995 2.995 0 0 0 1.015 4.23z" clip-rule="evenodd"/><path fill="#0096FA" d="M896.908 701H205.89c-4.095 0-3.888 3.32-3.888 7.415s-.207 7.414 3.888 7.414h691.018c4.095 0 3.888-3.319 3.888-7.414s.207-7.415-3.888-7.415"/><path fill="#1967F1" d="M454.629 187.291c0-4.511 3.674-8.167 8.206-8.167h245.173c4.532 0 8.206 3.656 8.206 8.167v331.536c0 4.511-3.674 8.167-8.206 8.167H462.835c-4.532 0-8.206-3.656-8.206-8.167z"/><path fill="#F8FBFB" d="M454.629 186.992a7.87 7.87 0 0 1 7.869-7.868h235.093a7.87 7.87 0 0 1 7.869 7.868v319.404a7.87 7.87 0 0 1-7.869 7.869H462.498a7.87 7.87 0 0 1-7.869-7.869z"/><path fill="#D2DFE6" fill-rule="evenodd" d="M502.876 380.297a6.2 6.2 0 0 1 6.202-6.202h121.287a6.201 6.201 0 0 1 0 12.403H509.078a6.2 6.2 0 0 1-6.202-6.201M502.876 420.029a6.2 6.2 0 0 1 6.202-6.201h121.287a6.2 6.2 0 1 1 0 12.402H509.078a6.2 6.2 0 0 1-6.202-6.201M502.876 459.763a6.2 6.2 0 0 1 6.202-6.201h71.099a6.2 6.2 0 1 1 0 12.402h-71.099a6.2 6.2 0 0 1-6.202-6.201" clip-rule="evenodd"/><path fill="#141414" d="M454.629 179.124h246.83a4 4 0 0 1 4 4v32.972h-250.83z"/><ellipse cx="478.419" cy="197.544" fill="#E60F0F" rx="4.759" ry="5.024"/><ellipse cx="491.114" cy="197.544" fill="#F06305" rx="4.759" ry="5.024"/><ellipse cx="503.808" cy="197.544" fill="#35DE90" rx="4.759" ry="5.024"/><g clip-path="url(#n)"><path fill="url(#o)" d="M531.833 283.122a45.65 45.65 0 0 1 6.969-24.32c6.022-9.608 15.499-16.825 26.71-19.916a46 46 0 0 1 12.189-1.633c4.068 0 8.004.525 11.751 1.517 11.241 2.974 20.806 10.104 26.915 19.668 4.563 7.129 7.202 15.6 7.202 24.684 0 25.339-20.543 45.868-45.868 45.868-25.34 0-45.868-20.529-45.868-45.868"/><path fill="url(#p)" d="m583.037 313.608-10.352-11.314-1.72-31.828 2.406-.918 4.446 12.436-.802-19.055 3.879-1.021 2.741 17.117.918-20.776 3.878.568v19.522l3.31-14.842 2.96 1.035-.685 19.844 7.304-7.305 2.508 1.837-7.888 16.825 4.855 5.613z"/><path fill="url(#q)" d="m572.817 313.608 10.366-11.314 1.706-31.828-2.391-.918-4.447 12.436.787-19.055-3.878-1.021-2.741 17.117-.904-20.776-3.878.568v19.522l-3.31-14.842-2.974 1.035.685 19.844-7.304-7.305-2.508 1.837 7.888 16.825-4.841 5.613z"/><path fill="#1968F0" d="m576.826 314.599-10.876 12.874c-11.256-2.975-20.806-10.104-26.915-19.668l12.378-14.668z"/><path fill="#0096FA" d="M616.6 307.441c-6.022 9.608-15.513 16.839-26.71 19.916l-10.775-12.758 25.413-21.447z"/></g><path fill="#1967F1" d="M779.793 18.778c0-3.743 3.049-6.778 6.81-6.778h203.46c3.76 0 6.809 3.034 6.809 6.778v275.129c0 3.743-3.049 6.778-6.809 6.778h-203.46c-3.761 0-6.81-3.035-6.81-6.778z"/><path fill="#F8FBFB" d="M779.793 18.53a6.53 6.53 0 0 1 6.53-6.53h195.095a6.53 6.53 0 0 1 6.53 6.53V283.59a6.53 6.53 0 0 1-6.53 6.53H786.323a6.53 6.53 0 0 1-6.53-6.53z"/><path fill="#D2DFE6" fill-rule="evenodd" d="M819.834 178.946a5.147 5.147 0 0 1 5.147-5.147h100.651a5.146 5.146 0 0 1 0 10.293H824.981a5.147 5.147 0 0 1-5.147-5.146M819.834 211.918a5.147 5.147 0 0 1 5.147-5.146h100.651a5.146 5.146 0 0 1 0 10.293H824.981a5.15 5.15 0 0 1-5.147-5.147M819.834 244.891a5.147 5.147 0 0 1 5.147-5.146h59.002a5.146 5.146 0 0 1 0 10.293h-59.002a5.147 5.147 0 0 1-5.147-5.147" clip-rule="evenodd"/><path fill="#141414" d="M779.793 12h204.154a4 4 0 0 1 4 4v26.682H779.793z"/><ellipse cx="799.534" cy="27.287" fill="#E60F0F" rx="3.949" ry="4.169"/><ellipse cx="810.072" cy="27.287" fill="#F06305" rx="3.949" ry="4.169"/><ellipse cx="820.606" cy="27.287" fill="#35DE90" rx="3.949" ry="4.169"/><path fill="#1967F1" d="M243 122.235c0-2.191 1.785-3.966 3.986-3.966h119.065c2.201 0 3.985 1.775 3.985 3.966v161.007c0 2.191-1.784 3.966-3.985 3.966H246.986c-2.201 0-3.986-1.775-3.986-3.966z"/><path fill="#F8FBFB" d="M243 122.09a3.82 3.82 0 0 1 3.822-3.821h114.17a3.82 3.82 0 0 1 3.822 3.821v155.115a3.82 3.82 0 0 1-3.822 3.821h-114.17a3.82 3.82 0 0 1-3.822-3.821z"/><path fill="#D2DFE6" fill-rule="evenodd" d="M266.435 215.966a3.01 3.01 0 0 1 3.012-3.011h58.901a3.011 3.011 0 1 1 0 6.023h-58.901a3.01 3.01 0 0 1-3.012-3.012M266.435 235.262a3.01 3.01 0 0 1 3.012-3.012h58.901a3.012 3.012 0 1 1 0 6.024h-58.901a3.01 3.01 0 0 1-3.012-3.012M266.435 254.558a3.01 3.01 0 0 1 3.012-3.012h34.528a3.012 3.012 0 1 1 0 6.024h-34.528a3.01 3.01 0 0 1-3.012-3.012" clip-rule="evenodd"/><path fill="#141414" d="M243 118.269h117.813a4 4 0 0 1 4 4v13.955H243z"/><ellipse cx="254.554" cy="127.214" fill="#E60F0F" rx="2.311" ry="2.44"/><ellipse cx="260.72" cy="127.214" fill="#F06305" rx="2.311" ry="2.44"/><ellipse cx="266.883" cy="127.214" fill="#35DE90" rx="2.311" ry="2.44"/><path fill="#35DE90" d="M303.852 197.289c-12.541 0-22.707-10.166-22.707-22.707s10.166-22.707 22.707-22.707c12.54 0 22.707 10.166 22.707 22.707s-10.167 22.707-22.707 22.707"/><path fill="#35DE90" d="M303.856 197.264c-12.526 0-22.681-10.155-22.681-22.682S291.33 151.9 303.856 151.9s22.682 10.155 22.682 22.682-10.155 22.682-22.682 22.682"/><path fill="#000" d="m292.134 169.617-.05 14.265 11.618 3.956v-16.104z"/><path fill="#000" d="M292.148 170.87c-.778-5.048 3.644-9.919 9.876-10.879s11.914 2.355 12.692 7.404c.777 5.049-3.645 9.92-9.877 10.88-6.232.959-11.914-2.356-12.691-7.405"/><path fill="#8C3A03" d="m312.648 166.341 2.319 3.806-.353 3.604 1.588 6.25-1.815.63-1.688 6.149-3.655-.832-.781 4.965-10.358-1.31 1.638-9.577-1.487-2.041 1.638-4.159 1.916 2.395 2.772-6.427z"/><path fill="url(#r)" d="m308.415 189.981-4.914-5.318 5.544 1.285z"/><path fill="url(#s)" d="m312.648 166.341 2.319 3.806-13.559 6.603 2.974-6.956z"/><path fill="url(#t)" d="m301.158 182.823-2.344 2.773.731-5.57z"/><path fill="url(#u)" d="m313.579 183.554-.58-2.646 1.361-.277z"/><path fill="#A3A3A3" d="M308.485 183.464c-.038-.374.324-.717.809-.766.484-.049.908.214.946.587.038.374-.324.717-.808.767-.485.049-.909-.214-.947-.588"/><path stroke="url(#v)" stroke-miterlimit="10" stroke-width="2" d="M308.766 183.403s-8.569 1.008-10.56-6.15"/><mask id="w" width="15" height="23" x="292" y="152" maskUnits="userSpaceOnUse" style="mask-type:luminance"><path fill="#fff" d="m306.944 160.166-2.822-.277-4.637 14.315-7.41-.176 9.98-21.17z"/></mask><g mask="url(#w)"><path stroke="#0C4EC0" stroke-miterlimit="10" stroke-width="6.303" d="M306.591 161.074c-1.109-1.462-2.343-2.294-3.629-2.218-3.553.227-5.998 7.233-5.469 15.675"/></g><path fill="url(#x)" d="M294.905 177.128c.453 2.394 2.318 4.057 4.133 3.704 1.814-.352 2.923-2.57 2.47-4.964-.454-2.395-2.319-4.058-4.133-3.705s-2.924 2.571-2.47 4.965"/><path fill="#FEDBC3" d="M881.572 136.533c21.096 0 38.197-17.102 38.197-38.197s-17.101-38.197-38.197-38.197-38.197 17.101-38.197 38.197c0 21.095 17.101 38.197 38.197 38.197"/><path fill="#FEDBC3" d="M881.573 136.533c21.096 0 38.197-17.102 38.197-38.197s-17.101-38.197-38.197-38.197-38.197 17.101-38.197 38.197c0 21.095 17.101 38.197 38.197 38.197"/><path fill="#F06305" d="m890.557 112.037 10.599-15.9-3.619-14.994-32.058-2.391-1.938 7.756 7.174 3.167z"/><path fill="#FCAA73" d="m870.907 85.861-3.231 6.98.258 4.137-2.779 8.402 2.391.646 1.422 10.083 6.592-1.034 1.939 7.885 16.223-1.745-4.589-15.641 2.844-3.426-3.684-4.46-1.874 2.07-2.65-8.92z"/><path fill="url(#y)" d="m876.854 120.31 6.075-6.463-7.368 1.228z"/><path fill="url(#z)" d="m886.421 110.939 5.494 4.136-2.779-9.501z"/><path fill="url(#A)" d="m868.128 110.421 2.068-3.684-2.65-.711z"/><defs><linearGradient id="a" x1="510.586" x2="316.939" y1="755.094" y2="860.889" gradientUnits="userSpaceOnUse"><stop offset=".286" stop-color="#141414"/><stop offset=".747" stop-color="#292929"/></linearGradient><linearGradient id="b" x1="228.164" x2="247.966" y1="524.763" y2="493.353" gradientUnits="userSpaceOnUse"><stop offset=".429" stop-opacity="0"/><stop offset="1" stop-opacity=".5"/></linearGradient><linearGradient id="c" x1="267.788" x2="206.098" y1="490.061" y2="410.589" gradientUnits="userSpaceOnUse"><stop offset=".507" stop-opacity="0"/><stop offset=".883" stop-opacity=".5"/></linearGradient><linearGradient id="d" x1="222.517" x2="190.876" y1="508.841" y2="489.905" gradientUnits="userSpaceOnUse"><stop offset=".367" stop-opacity="0"/><stop offset=".884" stop-opacity=".5"/></linearGradient><linearGradient id="e" x1="257.575" x2="274.433" y1="493.392" y2="474.922" gradientUnits="userSpaceOnUse"><stop offset=".367" stop-opacity="0"/><stop offset=".928" stop-opacity=".5"/></linearGradient><linearGradient id="f" x1="218.866" x2="151.048" y1="648.377" y2="708.082" gradientUnits="userSpaceOnUse"><stop offset=".145" stop-color="#561093"/><stop offset=".653" stop-color="#2B0849"/></linearGradient><linearGradient id="g" x1="122.104" x2="151.832" y1="647.292" y2="715.028" gradientUnits="userSpaceOnUse"><stop offset=".188" stop-color="#F8BC9A" stop-opacity="0"/><stop offset=".79" stop-color="#E60F0F"/></linearGradient><linearGradient id="h" x1="560.87" x2="620.326" y1="993.73" y2="1092.68" gradientUnits="userSpaceOnUse"><stop offset=".26" stop-color="#072F73"/><stop offset=".366" stop-color="#072C6D"/><stop offset=".513" stop-color="#06255B"/><stop offset=".684" stop-color="#04193D"/><stop offset=".871" stop-color="#010915"/><stop offset=".956"/></linearGradient><linearGradient id="i" x1="613.254" x2="843.372" y1="787.526" y2="996.927" gradientUnits="userSpaceOnUse"><stop offset=".026" stop-color="#0096FA"/><stop offset=".641" stop-color="#1968F0"/></linearGradient><linearGradient id="j" x1="916.709" x2="945.479" y1="529.226" y2="522.202" gradientUnits="userSpaceOnUse"><stop stop-color="#8C3A03" stop-opacity=".2"/><stop offset=".938" stop-color="#763103"/></linearGradient><linearGradient id="k" x1="900.967" x2="886.877" y1="553.386" y2="532.798" gradientUnits="userSpaceOnUse"><stop stop-color="#8C3A03" stop-opacity=".13"/><stop offset="1" stop-color="#642901"/></linearGradient><linearGradient id="l" x1="915.705" x2="986.017" y1="676.885" y2="738.786" gradientUnits="userSpaceOnUse"><stop offset=".145" stop-color="#35DE90"/><stop offset=".653" stop-color="#10603B"/></linearGradient><linearGradient id="m" x1="1016.03" x2="985.204" y1="675.759" y2="745.987" gradientUnits="userSpaceOnUse"><stop offset=".281" stop-color="#F8BC9A" stop-opacity="0"/><stop offset=".297" stop-color="#8C3A03"/><stop offset=".79" stop-color="#732F02"/></linearGradient><linearGradient id="o" x1="577.697" x2="577.697" y1="232.806" y2="355.068" gradientUnits="userSpaceOnUse"><stop stop-color="#C5D9FB"/><stop offset=".317" stop-color="#C3D8FB"/><stop offset=".47" stop-color="#BBD3FA"/><stop offset=".588" stop-color="#AECAFA"/><stop offset=".687" stop-color="#9CBEF8"/><stop offset=".775" stop-color="#84AEF7"/><stop offset=".855" stop-color="#669BF5"/><stop offset=".928" stop-color="#4484F3"/><stop offset=".995" stop-color="#1C6AF0"/><stop offset="1" stop-color="#1968F0"/></linearGradient><linearGradient id="p" x1="586.679" x2="590.488" y1="266.902" y2="324.091" gradientUnits="userSpaceOnUse"><stop stop-color="#8C3A03"/><stop offset=".42" stop-color="#8A3903"/><stop offset=".572" stop-color="#833603"/><stop offset=".68" stop-color="#783203"/><stop offset=".767" stop-color="#672B02"/><stop offset=".842" stop-color="#512102"/><stop offset=".908" stop-color="#351601"/><stop offset=".966" stop-color="#160900"/><stop offset="1"/></linearGradient><linearGradient id="q" x1="562.742" x2="583.807" y1="266.433" y2="323.077" gradientUnits="userSpaceOnUse"><stop stop-color="#FCAA73"/><stop offset=".18" stop-color="#FCA76F"/><stop offset=".374" stop-color="#FA9F62"/><stop offset=".575" stop-color="#F8914C"/><stop offset=".781" stop-color="#F47D2E"/><stop offset=".989" stop-color="#F06407"/><stop offset="1" stop-color="#F06305"/></linearGradient><linearGradient id="r" x1="303.791" x2="309.312" y1="189.786" y2="183.521" gradientUnits="userSpaceOnUse"><stop offset=".429" stop-opacity="0"/><stop offset="1" stop-opacity=".5"/></linearGradient><linearGradient id="s" x1="313.829" x2="302.979" y1="183.5" y2="163.646" gradientUnits="userSpaceOnUse"><stop offset=".507" stop-opacity="0"/><stop offset=".883" stop-opacity=".5"/></linearGradient><linearGradient id="t" x1="303.105" x2="296.759" y1="186.048" y2="180.711" gradientUnits="userSpaceOnUse"><stop offset=".367" stop-opacity="0"/><stop offset=".884" stop-opacity=".5"/></linearGradient><linearGradient id="u" x1="311.441" x2="315.845" y1="183.874" y2="180.377" gradientUnits="userSpaceOnUse"><stop offset=".367" stop-opacity="0"/><stop offset=".928" stop-opacity=".5"/></linearGradient><linearGradient id="v" x1="297.982" x2="308.806" y1="180.441" y2="180.441" gradientUnits="userSpaceOnUse"><stop stop-color="#E0E0E0"/><stop offset=".233" stop-color="#D9D9D9"/><stop offset=".582" stop-color="#C4C4C4"/><stop offset="1" stop-color="#A3A3A3"/></linearGradient><linearGradient id="x" x1="295.699" x2="302.101" y1="172.734" y2="182.271" gradientUnits="userSpaceOnUse"><stop stop-color="#E0E0E0"/><stop offset=".233" stop-color="#D9D9D9"/><stop offset=".582" stop-color="#C4C4C4"/><stop offset="1" stop-color="#A3A3A3"/></linearGradient><linearGradient id="y" x1="882.139" x2="875.353" y1="118.589" y2="113.226" gradientUnits="userSpaceOnUse"><stop offset=".294" stop-opacity="0"/><stop offset="1" stop-opacity=".5"/></linearGradient><linearGradient id="z" x1="887.727" x2="893.248" y1="117.51" y2="103.678" gradientUnits="userSpaceOnUse"><stop offset=".367" stop-opacity="0"/><stop offset=".884" stop-opacity=".5"/></linearGradient><linearGradient id="A" x1="871.148" x2="867.583" y1="111.613" y2="104.515" gradientUnits="userSpaceOnUse"><stop offset=".367" stop-opacity="0"/><stop offset=".928" stop-opacity=".5"/></linearGradient><clipPath id="n"><path fill="#fff" d="M531.833 237.253h91.736v91.736h-91.736z"/></clipPath></defs></svg>