<svg width="1080" height="1094" fill="none" xmlns="http://www.w3.org/2000/svg"><g opacity=".1" filter="url(#ringtones __a)"><path d="M759.117 1048.31c0 17.5-106.827 31.69-238.605 31.69s-238.605-14.19-238.605-31.69c0-17.51 106.827-31.7 238.605-31.7s238.605 14.19 238.605 31.7Z" fill="#0A0F1A"/></g><path d="M912.494 726.612S710.763 995.03 482.862 1031.56c-227.901 36.52-332.657-61.679-324.798-166.73 7.859-105.051 41.887-180.43-26.169-262.662-68.056-82.232-162.439-148.497-94.304-351.815C105.725 47.035 294.254-16.9 414.806 3.658 535.358 24.216 545.731 138.45 687.187 168.122c141.455 29.672 319.613-25.081 366.763 123.347 47.15 148.429-47.15 323.993-141.456 435.143Z" fill="#B9CBD3" style="mix-blend-mode:luminosity" opacity=".16"/><path d="M733.459 367.379c-.861-17.169-2.267-34.302-3.515-51.453-.931-12.3-1.88-24.601-3.215-36.902a1743.857 1743.857 0 0 0-5.835-47.868c-1.862-13.899-3.778-27.782-6.308-41.576-2.53-13.795-7.486-27.079-17.573-37.904-10.086-10.825-23.213-16.747-37.657-19.33a316.623 316.623 0 0 0-44.143-5.166c-35.479-1.195-70.993-1.353-106.472-1.968-1.634 0-3.25-.334-4.867-.51h-44.81c-3.515.264-7.029.738-10.544.773a280.08 280.08 0 0 0-49.203 4.499c-15.955 3.093-30.752 8.505-41.857 20.683a69.471 69.471 0 0 0-16.466 34.53c-3.128 16.377-5.395 32.913-7.714 49.414-1.968 14.058-3.515 28.116-5.166 42.174-1.002 8.891-1.758 17.836-2.425 26.763a6062.208 6062.208 0 0 0-3.691 46.637c-.334 4.587-.703 9.191-.755 13.795-.457 35.777-.932 71.555-1.195 107.333-.123 16.729.105 33.475.386 50.222.405 25.111.809 50.205 1.564 75.298.756 25.094 1.863 50.398 2.988 75.562.861 19.857 1.933 39.696 3.005 59.536a6249.747 6249.747 0 0 0 3.022 51.153c.949 15.23 1.968 30.459 3.058 45.689 1.441 19.804 2.829 39.608 4.569 59.395 1.757 20.12 3.988 40.206 5.869 60.326 1.757 18.17 3.514 36.34 9.208 53.846 5.078 15.43 12.3 29.62 25.638 40.26a57.322 57.322 0 0 0 35.778 12.61c30.084.46 60.15.72 90.235 1.09 1.757 0 3.514.35 5.271.53h74.332c1.604-.28 3.224-.47 4.85-.56 15.429-.16 30.852-.28 46.269-.39 18.644 0 34.477-6.2 46.76-19.96a90.638 90.638 0 0 0 18.065-33.14c4.902-15.081 7.029-30.633 8.434-46.29 1.582-16.852 3.515-33.687 5.114-50.539.984-10.543 1.599-21.087 2.443-31.507 1.177-14.708 2.512-29.417 3.514-44.142.949-12.916 1.634-25.867 2.443-38.801 1.212-19.329 2.495-38.659 3.655-57.989.65-11 1.159-22.018 1.652-33.019.843-19.628 1.599-39.239 2.424-58.868.44-10.649 1.055-21.297 1.336-31.946.65-24.848 1.371-49.713 1.652-74.561.457-41.588.726-83.176.808-124.765a762.445 762.445 0 0 0-.931-42.964Zm-29.241 222.327c-6.888 24.83-15.692 49.028-31.209 70.29-28.116 38.66-65.422 65.142-114.221 73.805-59.87 10.684-110.97-5.483-151.827-49.449-18.644-19.998-31.349-43.281-41.277-68.182a386.934 386.934 0 0 1-23.512-91.992c-5.764-42.472-6.344-85.156-4.727-127.875 1.019-26.552 1.757-53.157 4.182-79.586 2.899-31.015 7.292-61.925 11.633-92.8 2.126-15.359 5.113-30.664 8.61-45.794 5.922-25.639 22.107-39.029 49.379-40.944 19.031-1.371 38.097-2.127 57.164-2.812 19.066-.685 38.413-.966 65.018-1.599 29.047 1.072 65.422 2.32 101.797 3.848 9.595.404 19.137 1.652 27.976 5.782a46.016 46.016 0 0 1 26.482 33.194 1036.492 1036.492 0 0 1 12.107 65.897c3.655 24.602 6.414 49.326 8.909 74.068 1.652 16.29 2.461 32.668 3.128 49.028 1.529 38.185 3.515 76.37 3.901 114.572.387 37.254-3.461 74.332-13.513 110.549Z" fill="#3A4A65"/><path d="M674.995 193.164a92.073 92.073 0 0 0-5.536-20.349c-6.273-15.569-19.734-21.965-35.988-23.09-32.527-2.232-65.019-4.832-97.633-5.447-26.605-.51-53.298 1.353-79.92 2.723-14.234.721-28.467 2.144-42.578 4.095a33.935 33.935 0 0 0-27.554 20.419 59.76 59.76 0 0 0-4.709 14.058c-3.357 19.137-6.572 38.291-9.331 57.515a1082.214 1082.214 0 0 0-10.649 156.114 774.897 774.897 0 0 0 10.104 122.516c2.091 12.793 3.831 25.779 7.433 38.22 6.713 23.178 20.156 42.684 38.343 59.255 6.52 5.939 13.285 10.455 22.845 8.188a1.906 1.906 0 0 1 1.124 0c.984.387 2.232.633 2.812 1.371a58.21 58.21 0 0 0 20.155 15.71c37.096 18.433 75.316 19.33 114.134 5.781 11.738-4.077 22.51-10.122 30.769-19.33 2.443-2.741 4.657-4.094 8.242-3.356 7.029 1.441 12.617-1.107 17.432-5.711 5.272-5.043 10.772-9.928 15.552-15.393 16.957-19.471 26.358-41.999 30.576-67.092a911.17 911.17 0 0 0 12.16-113.255 945.94 945.94 0 0 0-5.131-143.199c-3.321-30.014-8.119-59.869-12.652-89.743Zm-74.016 440.438c-20.911 15.815-45.179 22.616-76.317 23.565-21.456-.51-45.689-7.328-67.953-20.806a27.896 27.896 0 0 1-6.695-6.326c-2.584-3.181-2.056-5.694 1.915-7.205a53.333 53.333 0 0 1 13.777-3.62c13.952-1.3 27.94-2.759 41.91-2.847 23.108-.123 46.234.545 69.342 1.406 7.41.58 14.761 1.755 21.983 3.515 2.987.597 7.117 1.757 6.906 5.131-.158 2.478-2.583 5.447-4.868 7.187Z" fill="#3A4A65"/><path d="M572.125 772.109c0 13.267-20.279 26.938-44.371 26.938-24.092 0-45.144-12.95-45.144-26.218 0-13.267 21.087-21.842 45.144-21.842s44.371 7.855 44.371 21.122Zm-126.03 5.096c-6.08 10.912-33.388 11.65-48.553 5.816-22.37-8.575-34.723-23.652-30.014-36.076 4.71-12.424 26.359-14.058 48.975-6.116 22.616 7.943 33.774 28.855 29.592 36.376Zm162.547 0c6.08 10.912 33.387 11.65 48.552 5.816 22.37-8.575 34.724-23.652 30.014-36.111-4.709-12.459-26.358-14.058-48.974-6.116-22.616 7.943-33.775 28.89-29.592 36.411Zm-36.131 61.398c0 13.285-20.296 26.956-44.388 26.956s-45.126-12.951-45.126-26.218 21.087-21.842 45.126-21.842c24.04 0 44.388 7.837 44.388 21.104Zm-121.109 3.655c-6.062 10.913-33.387 11.651-48.552 5.817-22.37-8.593-34.724-23.653-29.997-36.112 4.727-12.459 26.359-14.058 48.957-6.098 22.599 7.961 33.74 28.942 29.592 36.393Zm152.688 0c6.08 10.913 33.388 11.651 48.553 5.817 22.37-8.593 34.723-23.653 30.014-36.129-4.71-12.477-26.359-14.058-48.975-6.098s-33.774 28.96-29.592 36.41Zm-31.965 62.137c0 13.267-20.279 26.938-44.371 26.938-24.092 0-45.144-12.951-45.144-26.235 0-13.285 21.087-21.843 45.144-21.843s44.371 7.872 44.371 21.14Zm-116.927 3.637c-6.08 10.93-33.388 11.651-48.553 5.817-22.37-8.576-34.723-23.635-30.014-36.112 4.709-12.476 26.359-14.058 48.975-6.115 22.615 7.943 33.774 28.889 29.592 36.41Zm144.34 0c6.08 10.93 33.388 11.651 48.553 5.817 22.37-8.576 34.723-23.635 30.014-36.112-4.71-12.476-26.359-14.058-48.975-6.115s-33.774 28.889-29.592 36.41Zm-27.027 62.857c0 13.285-20.296 26.957-44.388 26.957s-45.126-12.951-45.126-26.219c0-13.267 21.087-21.842 45.126-21.842 24.04 0 44.388 7.837 44.388 21.104Zm-112.762 2.196c-6.08 10.913-33.388 11.651-48.553 5.817-22.422-8.575-34.723-23.653-30.013-36.112 4.709-12.458 26.358-14.058 48.974-6.115 22.616 7.943 33.775 28.889 29.592 36.41Zm135.994 1.459c6.08 10.913 33.387 11.651 48.553 5.817 22.369-8.593 34.723-23.653 30.013-36.13-4.709-12.476-26.358-14.058-48.974-6.097-22.616 7.96-33.757 28.889-29.592 36.41Zm121.936-495.457c-.457-38.203-2.373-76.388-3.901-114.573-.668-16.36-1.476-32.738-3.128-49.027-2.496-24.742-5.272-49.467-8.91-74.069-3.268-22.071-7.362-44.071-12.107-65.897a46.021 46.021 0 0 0-26.482-33.194c-8.786-4.13-18.381-5.377-27.975-5.781-36.375-1.529-72.75-2.777-101.798-3.849-26.552.633-45.688.896-65.018 1.599s-38.133 1.441-57.164 2.812c-27.272 1.986-43.456 15.376-49.378 41.014-3.515 15.13-6.467 30.436-8.611 45.794-4.34 30.875-8.786 61.785-11.633 92.801-2.478 26.358-3.163 53.034-4.182 79.586-1.617 42.718-1.037 85.402 4.727 127.875a386.994 386.994 0 0 0 23.512 91.992c9.981 24.9 22.686 48.184 41.278 68.217 40.856 43.931 91.957 60.133 151.826 49.449 48.852-8.787 86.106-35.251 114.222-73.805 15.516-21.245 24.32-45.442 31.208-70.29 10.105-36.252 13.953-73.33 13.514-110.654Zm-24.901-52.981a911.098 911.098 0 0 1-12.177 113.202c-4.165 25.093-13.619 47.621-30.576 67.092-4.78 5.465-10.28 10.35-15.552 15.393-4.815 4.604-10.438 7.152-17.432 5.711-3.515-.738-5.799.615-8.242 3.357-8.259 9.243-19.031 15.288-30.769 19.329-38.818 13.479-77.038 12.653-114.134-5.781a58.2 58.2 0 0 1-20.155-15.71c-.58-.738-1.758-.984-2.812-1.37a1.893 1.893 0 0 0-1.125 0c-9.559 2.266-16.324-2.25-22.844-8.189-18.187-16.571-31.63-36.077-38.343-59.255-3.515-12.441-5.272-25.427-7.433-38.22a774.994 774.994 0 0 1-10.14-122.428 1082.214 1082.214 0 0 1 10.649-156.114c2.759-19.224 5.975-38.378 9.331-57.515a59.718 59.718 0 0 1 4.71-14.058 33.923 33.923 0 0 1 27.641-20.454c14.058-1.951 28.345-3.374 42.579-4.095 26.622-1.37 53.315-3.233 79.919-2.723 32.58.615 65.107 3.215 97.633 5.447 16.255 1.125 29.715 7.521 35.989 23.09a92.126 92.126 0 0 1 5.535 20.349c4.534 29.874 9.331 59.747 12.705 89.743a945.918 945.918 0 0 1 5.043 143.199Z" fill="#fff" fill-opacity=".9"/><path d="M598.942 621.231a138.476 138.476 0 0 0-21.984-3.515c-23.107-.861-46.233-1.528-69.341-1.405-13.97.087-27.958 1.546-41.91 2.846a53.333 53.333 0 0 0-13.777 3.62c-3.971 1.511-4.499 4.024-1.915 7.205a27.878 27.878 0 0 0 6.695 6.326c22.194 13.478 46.497 20.296 67.953 20.806 31.138-.949 55.406-7.679 76.317-23.565 2.285-1.757 4.71-4.709 4.868-7.24.211-3.374-3.919-4.481-6.906-5.078Z" fill="#F7F7F7"/><path d="m405.397 638.417-13.109 10.86a7.931 7.931 0 0 0-2.601 6.291c0 2.688 5.272 10.192 18.293 24.601 7.55 8.42 16.281 15.7 25.92 21.614a7.48 7.48 0 0 0 8.364-2.179l19.699-21.965a6.835 6.835 0 0 0-2.003-10.333l-18.855-10.104a192.07 192.07 0 0 1-22.458-15.288l-4.393-3.866a7.52 7.52 0 0 0-8.857.369Zm149.19 44.81 6.397 38.009a7.505 7.505 0 0 0 3.989 5.817c2.108 1.142 11.387.087 22.844-5.079 9.278-4.182 24.602-10.174 43.931-25.076 30.717-23.547 38.221-39.731 38.221-39.731a7.336 7.336 0 0 0 1.683-5.751 7.333 7.333 0 0 0-3.16-5.092l-15.604-11.035a7.737 7.737 0 0 0-9.753.386c-10.403 10.544-10.438 16.466-40.61 27.537a334.469 334.469 0 0 1-42.666 12.125 7.538 7.538 0 0 0-5.272 7.89Z" fill="#E8E8E8"/><path fill-rule="evenodd" clip-rule="evenodd" d="M494.272 634.061a2.762 2.762 0 0 1 3.485-1.767c6.371 2.085 17.464 3.553 30.297 3.553l.053.001c9.773.19 19.529-.877 29.03-3.174a2.763 2.763 0 0 1 1.299 5.371 119.568 119.568 0 0 1-30.409 3.328c-13.094-.002-24.834-1.485-31.989-3.827a2.763 2.763 0 0 1-1.766-3.485Z" fill="#00C6D7"/><path fill-rule="evenodd" clip-rule="evenodd" d="M519.935 183.752c0-1.233.999-2.232 2.231-2.232h9.894a2.231 2.231 0 0 1 0 4.464h-9.894a2.231 2.231 0 0 1-2.231-2.232Zm0 24.672c0-1.233.999-2.232 2.231-2.232h9.894a2.231 2.231 0 0 1 0 4.464h-9.894c-1.232 0-2.231-1-2.231-2.232Zm0 24.672c0-1.233.999-2.232 2.231-2.232h9.894a2.231 2.231 0 0 1 0 4.463h-9.894a2.231 2.231 0 0 1-2.231-2.231Zm0 24.672c0-1.233.999-2.232 2.231-2.232h9.894a2.231 2.231 0 0 1 0 4.463h-9.894a2.231 2.231 0 0 1-2.231-2.231Zm0 24.671c0-1.232.999-2.231 2.231-2.231h9.894a2.231 2.231 0 0 1 0 4.463h-9.894a2.231 2.231 0 0 1-2.231-2.232Z" fill="#202C44"/><path d="M656.538 376.109s-96.824-1.757-129.193-1.757c-32.369 0-129.826 1.757-129.826 1.757a17.053 17.053 0 0 0-16.256 10.553 17.022 17.022 0 0 0-1.281 6.704l5.272 160.929a17.323 17.323 0 0 0 11 15.393c2.161.879 60.678 9.278 133.551 9.278 63.525 0 129.316-9.471 132.462-12.037a16.951 16.951 0 0 0 6.326-12.634l5.272-160.929a17.048 17.048 0 0 0-17.327-17.257Z" fill="#00C6D7"/><path d="M590.445 320.267H465.064a5.526 5.526 0 0 0-5.526 5.526v17.415a5.526 5.526 0 0 0 5.526 5.526h125.381a5.526 5.526 0 0 0 5.526-5.526v-17.415a5.526 5.526 0 0 0-5.526-5.526Z" fill="#27344C"/><path d="M515.718 455.646h-10.051v9.647h10.051v-9.647Zm-10.052 8.381h-4.92v4.71h4.92v-4.71Zm-3.426 4.71h-4.921v4.709h4.921v-4.709Z" fill="#00C6D7"/><path d="M812.937 210.506c0-2.561-1.927-30.43-4.235-64.679-35.719 3.82-34.491 4.268-67.373-1.109a5755.035 5755.035 0 0 0 3.303 49.485c-17.278-6.637-38.748 13.763-30.236 28.274 9.168 15.684 38.006-.768 37.625-19.952 0 0-1.948-15.3-3.578-39.712l55.58.512c.508 7.554 1.143 22.385 2.117 36.874-17.193-6.615-41.203 11.267-32.649 25.842 4.7 8.023 16.939 9.559 27.25 3.414 7.474-4.46 12.217-11.886 12.069-18.949h.127Z" fill="#FB5A8B"/><path d="M286.309 387.152c-3.632-1.057-10.519-6.313-14.636-9.456-4.116-3.144-4.816-3.658-5.892-3.198-2.26.759 0 1.816 2.879 40.428-10.762-4.173-27.039 7.641-21.524 17.043 5.812 9.917 25.371 2.385 25.129-9.917 0-1.165-1.237-20.756-2.125-34.25 6.053 5.718 17.084 8.752 20.259 2.304l1.076-2.195a12.93 12.93 0 0 1-5.166-.759Z" fill="#93C"/><path opacity=".5" d="M749.683 980.902c-4.11-1.199-11.904-7.163-16.562-10.73-4.658-3.566-5.449-4.15-6.667-3.627-2.558.861 0 2.06 3.257 45.865-12.177-4.73-30.596 8.67-24.355 19.34 6.576 11.25 28.709 2.71 28.435-11.25 0-1.32-1.401-23.55-2.405-38.86 6.85 6.487 19.332 9.93 22.924 2.613l1.218-2.49a14.618 14.618 0 0 1-5.845-.861Z" fill="#F6A721"/><path d="M302.657 558.844c-.316-1.248-4.252-14.779-9.067-31.402-17.309 5.781-16.659 5.816-33.564 6.8 2.46 8.558 4.956 17.134 7.029 24.022-9.296-1.388-17.748 11-11.949 17.221 6.256 6.73 18.785-4.516 16.518-13.935 0 0-2.618-7.328-6.08-19.171l27.659-5.817c1.072 3.673 2.988 10.913 5.079 17.924-9.261-1.371-19.242 10.051-13.426 16.307 3.216 3.427 9.437 2.847 13.9-1.3a11.54 11.54 0 0 0 3.954-10.649h-.053Z" fill="#55CFFF"/><path d="M820.889 929.901c-.479-1.86-6.334-22.311-13.514-47.243-25.774 8.682-24.835 8.738-50.002 10.225 3.682 12.866 7.364 25.769 10.42 36.125-13.862-2.082-26.437 16.566-17.802 25.936 9.315 10.096 27.983-6.823 24.614-20.972 0 0-3.903-11.025-9.058-28.836l41.276-8.701c1.583 5.577 4.437 16.398 7.548 26.958-13.771-2.063-28.646 15.134-19.975 24.524 4.768 5.187 14.066 4.313 20.712-1.953 4.805-4.518 7.106-10.802 5.873-16.026l-.092-.037Z" fill="#C226FB"/><path opacity=".5" d="M250.359 493.056c-.932-1.656-11.88-19.28-25.28-40.963-22.243 15.087-21.311 14.874-44.833 23.018 6.873 11.242 13.826 22.324 19.5 31.297-13.719 1.709-20.779 22.671-10.096 29.186 11.508 7.05 24.8-13.885 17.848-26.329 0 0-6.607-9.373-16.197-24.808l36.842-19.226c2.983 4.753 8.551 14.286 14.305 23.419-13.666 1.709-23.256 21.897-12.547 28.466 5.914 3.605 14.518.293 19.18-7.37a17.044 17.044 0 0 0 1.358-16.69h-.08Z" fill="#21CC79"/><path fill-rule="evenodd" clip-rule="evenodd" d="M267.922 92.537c3.61-5.532 11.021-7.089 16.552-3.478l50.331 32.851c5.531 3.611 7.089 11.021 3.478 16.553-3.61 5.531-11.021 7.088-16.552 3.478L271.4 109.09c-5.531-3.611-7.089-11.022-3.478-16.553Zm94.901-53.13c6.604.164 11.824 5.65 11.661 12.253l-1.492 60.389c-.164 6.604-5.649 11.824-12.252 11.661-6.604-.163-11.825-5.648-11.661-12.252l1.492-60.39c.163-6.603 5.649-11.824 12.252-11.66Zm-35.391 131.971c.926 6.54-3.624 12.593-10.165 13.519l-54.739 7.754c-6.54.926-12.593-3.624-13.519-10.165-.926-6.54 3.624-12.592 10.165-13.519l54.739-7.753c6.54-.927 12.593 3.624 13.519 10.164Z" fill="#FFEC03"/><g opacity=".7" fill="#000"><path d="m492.103 432.062 6.132-1.643 26.684 99.586-6.132 1.644-26.684-99.587Zm33.695-15.597 6.133-1.643 7.825 29.204-6.133 1.643-7.825-29.204Zm22.65 82.199 6.133-1.643 7.904 29.496-6.133 1.643-7.904-29.496Zm-30.997-42.089 6.133-1.643 10.955 40.886-6.133 1.643-10.955-40.886Zm-20.857-32.285 12.265-3.286 1.644 6.133-12.266 3.286-1.643-6.133Zm24.763 24.666 12.266-3.287 1.643 6.133-12.265 3.286-1.644-6.132Z"/><path d="m534.539 495.818 12.266-3.287 1.643 6.133-12.266 3.286-1.643-6.132Zm-7.975 40.324 12.266-3.287-1.643-6.133-12.266 3.287 1.643 6.133ZM500.5 416.671l23.655-6.339 1.644 6.133-23.656 6.339-1.643-6.133Zm33.257 124.117 24.239-6.495-1.643-6.133-24.239 6.495 1.643 6.133Zm-35.521-110.369 6.133-1.643 1.643 6.133-6.132 1.643-1.644-6.133Z"/><path d="m524.921 530.009 6.133-1.644-1.644-6.132-6.132 1.643 1.643 6.133Z"/></g><g opacity=".6" fill-rule="evenodd" clip-rule="evenodd" fill="#000"><path d="m578.787 467.713 4.159 2.366-1.542 2.71 4.36 2.479-6.46 11.358 3.798 2.16-3.907 6.868-4.159-2.365 1.542-2.71-3.797-2.16 6.459-11.357-4.359-2.48 3.906-6.869Z"/><path d="m567.063 446.884-10.02-5.699 2.365-4.159 14.179 8.064-2.32 4.079 6.934 3.943-2.01 3.535 4.622 2.629-2.088 3.671 2.679 1.524-2.365 4.158-6.838-3.889 2.088-3.671-4.622-2.629 2.01-3.534-6.933-3.944 2.319-4.078Zm38.628 28.574 4.159 2.365-.905 1.591 3.942 2.243-5.976 10.508-4.159-2.365 3.612-6.35-3.943-2.242 3.27-5.75Zm-21.802-44.554-13.691-7.787 2.365-4.159 17.85 10.153-2.397 4.214 8.021 4.562-2.165 3.807 4.079 2.319-1.856 3.263 6.254 3.557-2.475 4.35 4.487 2.552-1.856 3.263 2.815 1.601-2.365 4.159-6.974-3.967 1.856-3.263-4.486-2.551 2.474-4.351-6.254-3.556 1.856-3.263-4.079-2.32 2.165-3.807-8.021-4.562 2.397-4.214Z"/><path d="m603.72 471.331-2.543-1.447 2.365-4.158 6.702 3.811-3.735 6.566-4.158-2.365 1.369-2.407Z"/></g><defs><filter id="ringtones __a" x="267.907" y="1002.61" width="505.209" height="91.389" filterUnits="userSpaceOnUse" color-interpolation-filters="sRGB"><feFlood flood-opacity="0" result="BackgroundImageFix"/><feBlend in="SourceGraphic" in2="BackgroundImageFix" result="shape"/><feGaussianBlur stdDeviation="7" result="effect1_foregroundBlur_10272_1607"/></filter></defs></svg>