<svg width="1080" height="1080" viewBox="0 0 1080 1080" fill="none" xmlns="http://www.w3.org/2000/svg"><path d="M1079.11 569.994H.901v37.957H1079.11v-37.957Z" fill="#C79964"/><path d="M2.704 581.715a964.725 964.725 0 0 1 33.65-2.403c11.233-.615 22.476-1.06 33.735-1.023l4.243.032 4.243.127 2.12.069 2.122.132 2.122.138c.705.048 1.405.08 2.12.175l4.159.509c1.39.207 2.773.409 4.168.594 2.78.354 5.564.708 8.353 1.061 11.137 1.278 22.359 2.206 33.571 2.869 11.211.663 22.438.944 33.655.716 5.611-.122 11.211-.382 16.796-.864a146.422 146.422 0 0 0 16.6-2.318l2.047-.429 2.031-.531c1.357-.307 2.652-.747 4.009-1.129 1.358-.382 2.599-.907 3.935-1.385l2.01-.726c.669-.239 1.353-.43 2.031-.647a96.553 96.553 0 0 1 16.637-3.469c11.238-1.394 22.577-1.347 33.825-.567 5.627.392 11.233 1.024 16.812 1.84 2.79.409 5.585.865 8.342 1.427 2.758.562 5.516.992 8.29 1.421 5.542.849 11.137 1.528 16.7 1.883 2.8.17 5.574.244 8.395.233l8.401.021 33.729.133 33.735.058 33.73.032 33.735-.037 33.735-.053c5.621 0 11.248.08 16.875.26 5.627.18 11.249.461 16.865 1.018 2.806.271 5.611.637 8.395 1.178.695.148 1.395.275 2.085.45l2.068.584c1.322.382 2.668.671 4.03.864 2.753.419 5.548.658 8.343.854 2.795.196 5.595.339 8.4.43 5.606.201 11.222.244 16.833.217a508.131 508.131 0 0 0 16.838-.361c11.217-.456 22.439-1.177 33.518-2.794l2.074-.324 2.063-.366c1.384-.233 2.699-.53 4.126-.801.705-.116 1.405-.27 2.121-.366l2.121-.286c1.406-.202 2.811-.313 4.243-.472 5.622-.53 11.243-.875 16.865-1.167 11.243-.53 22.492-.864 33.74-1.092 11.249-.228 22.492-.361 33.74-.441 22.492-.164 44.989-.047 67.481.165 89.938.17 179.888.474 269.846.912v.186l-67.46.366-67.473.249c-44.978.079-89.951.308-134.934.154a4666.113 4666.113 0 0 0-67.449-.149c-11.24.053-22.479.17-33.719.35-11.238.196-22.471.478-33.687.997-5.606.276-11.217.594-16.791 1.114-1.389.154-2.789.26-4.163.456l-2.074.276c-.689.09-1.363.238-2.041.35-1.347.223-2.769.562-4.153.79l-2.121.361-2.122.313c-11.19 1.591-22.444 2.248-33.697 2.651-11.254.403-22.519.403-33.772-.058a248.624 248.624 0 0 1-8.443-.488c-2.817-.207-5.622-.483-8.422-.928a29.47 29.47 0 0 1-4.201-.939l-1.988-.573c-.669-.175-1.358-.302-2.032-.456a93.916 93.916 0 0 0-8.289-1.219c-5.574-.589-11.185-.902-16.796-1.119-5.611-.218-11.227-.319-16.848-.366-11.238-.08-22.487-.075-33.73-.091l-33.735-.037-33.73.032-33.735.059-33.729.132-8.433.032c-2.805.032-5.648 0-8.485-.17-5.638-.318-11.243-.954-16.822-1.766-2.79-.41-5.571-.866-8.343-1.368-2.757-.53-5.515-.965-8.294-1.358-5.553-.774-11.137-1.331-16.722-1.723-11.174-.748-22.428-.759-33.523.641a95.088 95.088 0 0 0-16.345 3.437c-.663.212-1.331.398-1.983.636l-1.962.706c-1.31.461-2.652.97-4.02 1.405-1.369.435-2.721.833-4.105 1.14l-2.068.531-2.085.429a146.05 146.05 0 0 1-16.79 2.291c-5.622.472-11.259.716-16.892.822-11.269.197-22.534-.148-33.772-.816a545.338 545.338 0 0 1-33.623-3.071 335.35 335.35 0 0 1-8.374-1.103 273.753 273.753 0 0 1-4.18-.626l-4.152-.53c-.69-.101-1.395-.138-2.09-.186l-2.094-.154-2.122-.148-2.121-.085-4.2-.159-4.211-.058c-11.227-.112-22.47.201-33.698.689a1096.528 1096.528 0 0 0-33.597 1.978l-.016-.18Zm220.192 13.418a65.982 65.982 0 0 1 13.201-2.456c4.467-.379 8.951-.522 13.433-.429 8.964.212 17.907.975 26.777 2.285 4.434.637 8.853 1.374 13.259 2.212l3.298.658.822.175c.265.058.531.106.806.159l1.65.297c2.195.387 4.396.737 6.602 1.06 8.836 1.289 17.714 2.159 26.639 1.994l53.671-.095h26.84l26.836.042 53.675.244c8.952.043 17.915.17 26.851.881 4.479.312 8.935.893 13.344 1.739 1.092.276 2.201.477 3.277.828.531.153 1.093.334 1.591.472l.785.217.817.164c2.188.402 4.395.694 6.613.875 4.444.419 8.91.653 13.375.833 4.466.18 8.937.286 13.407.329a722.6 722.6 0 0 0 26.825-.212c8.936-.228 17.872-.621 26.787-1.3 4.455-.344 8.905-.747 13.333-1.288 1.109-.144 2.217-.271 3.32-.441 1.103-.169 2.206-.318 3.299-.53 1.092-.212 2.19-.398 3.277-.615 1.087-.217 2.217-.419 3.325-.626 4.45-.695 8.916-1.061 13.386-1.4l3.352-.244 3.352-.201c2.232-.144 4.471-.244 6.703-.361 8.942-.435 17.889-.716 26.835-.923 17.899-.424 35.793-.61 53.687-.657 17.893-.048 35.792 0 53.686.143l53.67.058 53.676.058 53.676.165 53.666.249 53.68.371v.181l-53.68.366-53.677.275-53.675.165-53.681.058h-40.253c-4.471 0-8.958 0-13.423-.064-17.89-.212-35.779-.321-53.665-.328-17.889 0-35.777.084-53.66.392-8.942.164-17.878.377-26.814.727-2.227.095-4.465.175-6.693.297l-3.346.169-3.347.212c-4.449.308-8.91.626-13.311 1.273-1.093.196-2.169.372-3.278.584-1.108.212-2.206.435-3.32.599-1.113.164-2.217.345-3.33.493-1.114.149-2.222.281-3.336.414-4.455.53-8.92.88-13.386 1.188-4.465.307-8.936.53-13.407.716a715.65 715.65 0 0 1-13.418.445c-8.945.205-17.895.249-26.851.133-8.946-.154-17.899-.313-26.829-1.093-2.233-.196-4.466-.445-6.688-.859l-.833-.17-.827-.222c-.562-.149-1.061-.308-1.591-.467-1.061-.339-2.153-.53-3.23-.801a108.076 108.076 0 0 0-13.258-1.665c-8.905-.615-17.852-.658-26.793-.61l-53.676.244-26.835.042h-26.84l-53.671-.1c-8.984.148-17.968-.833-26.814-2.207-2.217-.35-4.428-.721-6.629-1.129l-1.655-.318c-.27-.053-.53-.101-.838-.17l-.816-.18-3.273-.685c-4.373-.88-8.77-1.654-13.189-2.322a279.85 279.85 0 0 0-13.29-1.692c-4.439-.467-8.9-.78-13.36-.918-4.463-.158-8.931-.08-13.386.234a67.17 67.17 0 0 0-13.178 2.211l-.054-.148Zm-222 8.384c7.7-.96 15.423-1.628 23.155-2.222 7.732-.594 15.48-.992 23.234-1.151 3.877-.074 7.76-.053 11.668-.048 3.908.006 7.753.101 11.63.197 1.941 0 3.877.116 5.834.169.97.032 1.936.048 2.906.101l2.906.175c.97.069 1.941.09 2.906.191l2.907.292c1.951.17 3.845.467 5.77.668 15.38 1.543 30.86 2.408 46.32 2.959l5.796.207c1.936.048 3.867.09 5.802.154 1.936.064 3.866.074 5.802.111a350.7 350.7 0 0 0 5.802.048c7.733.032 15.47-.085 23.213-.472v.18c-7.695.982-15.454 1.453-23.213 1.703-7.759.249-15.523.244-23.282 0s-15.507-.722-23.239-1.337c-7.733-.615-15.46-1.426-23.144-2.567-1.915-.27-3.84-.641-5.75-.875l-2.863-.392c-.955-.122-1.925-.164-2.885-.249l-2.896-.223c-.96-.058-1.93-.08-2.895-.117-1.936-.074-3.867-.138-5.802-.132-1.936.005-3.872 0-5.834.037l-5.834.18c-3.866.17-7.732.329-11.598.53-15.465.679-30.935 1.427-46.426 2.048l.01-.165Z" fill="#A97D57"/><path d="M265.7 583.529a91.454 91.454 0 0 1 12.728.689 134.27 134.27 0 0 1 12.601 2.122l3.103.684c1.06.191 2.105.367 3.134.53 2.095.35 4.19.679 6.295.971 4.2.583 8.417 1.087 12.643 1.421 1.061.085 2.122.164 3.182.217 1.061.053 2.122.112 3.183.143 2.121.08 4.242.064 6.364.054l12.728-.064 25.504-.096 51.013-.1h25.504l25.504.037 25.51.116c8.527-.033 17.047.522 25.498 1.66 4.243.545 8.45 1.21 12.622 1.994 4.19.796 8.353 1.703 12.463 2.87 1.029.275 2.048.61 3.066.933.53.164.997.292 1.501.435.504.143 1.023.233 1.543.329 2.068.392 4.179.626 6.285.843 4.242.408 8.485.642 12.728.806a424.49 424.49 0 0 0 25.456.17c8.485-.191 16.971-.589 25.456-1.268 4.243-.339 8.486-.758 12.665-1.31 2.121-.281 4.205-.588 6.29-.965l1.591-.281 1.553-.318c1.029-.218 2.122-.403 3.145-.605 8.438-1.347 16.929-1.93 25.414-2.545 8.486-.616 16.971-1.061 25.457-1.469 8.485-.409 16.971-.764 25.493-1.061a3551.238 3551.238 0 0 1 50.998-1.501l25.504-.53c8.485-.154 17.013-.334 25.514-.303h51.014l51.013.064 51.008.164 51.017.25 51.01.366v.18l-51.01.366-51.012.249-51.008.165-51.013.063h-51.008c-8.486-.069-16.971.08-25.494.207l-25.498.44c-16.998.345-33.995.727-50.987 1.236-16.992.509-33.984 1.087-50.95 2.089-8.485.531-16.971 1.061-25.35 2.323-1.061.191-2.069.366-3.119.578l-1.591.308-1.591.27c-2.121.361-4.21.648-6.321.918-4.243.53-8.486.949-12.728 1.278-8.486.652-16.971 1.024-25.489 1.188-8.517.164-17.018.191-25.52-.101-4.242-.148-8.485-.366-12.728-.758-2.121-.207-4.242-.43-6.364-.822-.53-.101-1.06-.223-1.591-.329-.53-.106-1.06-.292-1.559-.451a66.24 66.24 0 0 0-3.039-.901c-4.083-1.109-8.241-1.973-12.415-2.721a214.473 214.473 0 0 0-12.59-1.851 183.817 183.817 0 0 0-25.377-1.395l-25.509.117-25.504.037h-25.436l-51.013-.101-25.504-.095-12.728-.058c-2.122 0-4.243 0-6.396-.112-1.061-.048-2.121-.095-3.182-.18-1.061-.085-2.121-.154-3.182-.249a183.406 183.406 0 0 1-12.686-1.591 244.34 244.34 0 0 1-6.295-1.061 119.517 119.517 0 0 1-3.14-.599l-3.15-.722a145.42 145.42 0 0 0-12.521-2.28 94.198 94.198 0 0 0-12.702-.902v-.185ZM.896 592.613c8.963-1.06 17.957-1.803 26.962-2.439a637.79 637.79 0 0 1 13.513-.758c2.255-.122 4.514-.181 6.768-.255 2.254-.074 4.513-.106 6.772-.133 9.016-.053 18.069.144 27.08.812l1.686.122c.567.032 1.13.079 1.691.159l3.368.403c1.13.117 2.233.308 3.347.456 1.113.149 2.232.286 3.357.403 4.47.53 8.968.859 13.46 1.188a818.123 818.123 0 0 0 26.989 1.336c9.015.308 18.005.388 27.005.319 8.999-.069 17.994-.35 26.941-1.183 4.465-.44 8.936-.96 13.338-1.83 4.402-.869 8.777-1.978 12.786-4.036l.091.154-1.485.833c-.244.132-.494.281-.743.408l-.779.345-1.554.689c-.531.213-1.061.388-1.591.584-.531.196-1.061.403-1.591.567l-1.629.488c-1.06.345-2.19.594-3.293.865-4.413 1.02-8.878 1.8-13.375 2.338-4.497.531-9.016.907-13.518 1.199-4.503.292-9.016.403-13.556.53-4.54.128-9.016.053-13.55-.058a546.063 546.063 0 0 1-13.545-.488 520.663 520.663 0 0 1-13.518-.827c-4.503-.34-9.016-.759-13.487-1.22a578.219 578.219 0 0 1-13.45-1.565l-3.356-.45c-1.12-.149-2.238-.35-3.352-.472l-3.347-.398a22.443 22.443 0 0 0-1.68-.143l-1.682-.106c-1.124-.069-2.243-.144-3.368-.186l-3.378-.069c-2.248-.058-4.502 0-6.756 0-2.254 0-4.503.074-6.752.138l-3.378.095-3.373.133c-18.005.573-36.005 1.453-54.03 2.259l-.038-.207Z" fill="#A97D57"/><path d="M1028.5 551.019H50.61L0 569.994h1079.11l-50.61-18.975Z" fill="#E2B36F"/><path d="M1079.11 893.55H.901v37.956H1079.11V893.55Z" fill="#C79964"/><path d="M2.704 905.265a989.945 989.945 0 0 1 33.65-2.397c11.233-.616 22.476-1.061 33.735-1.024l4.243.026 4.243.133 2.121.064 2.121.138 2.122.138c.705.047 1.405.074 2.121.174l4.216.488c1.39.207 2.774.403 4.169.594 2.779.354 5.563.708 8.353 1.061 11.137 1.278 22.359 2.206 33.57 2.864 11.212.657 22.439.949 33.656.716 5.611-.117 11.211-.377 16.796-.865a146.39 146.39 0 0 0 16.599-2.312l2.047-.429 2.031-.504c1.358-.308 2.652-.748 4.01-1.135 1.358-.387 2.599-.907 3.935-1.379l2.01-.727c.668-.244 1.352-.429 2.031-.647a97.109 97.109 0 0 1 16.626-3.458c11.238-1.389 22.577-1.347 33.825-.567a229.394 229.394 0 0 1 16.812 1.84c2.79.414 5.585.87 8.342 1.427 2.758.557 5.516.997 8.29 1.427 5.542.848 11.137 1.522 16.7 1.877 2.8.175 5.574.249 8.395.239l8.433.031 33.729.133 33.735.058 33.73.032 33.735-.037 33.735-.053c5.621 0 11.248.08 16.875.26 5.627.18 11.249.461 16.865 1.018 2.805.271 5.611.631 8.395 1.178.695.148 1.395.275 2.084.445l2.069.583c1.321.384 2.668.675 4.03.87 2.753.414 5.548.652 8.343.854 2.794.201 5.595.334 8.4.424 5.606.207 11.222.249 16.833.223a497.447 497.447 0 0 0 16.838-.366c11.217-.451 22.439-1.177 33.518-2.795l2.074-.318 2.063-.366c1.384-.239 2.699-.557 4.126-.801.705-.122 1.405-.276 2.121-.371l2.121-.281c1.406-.207 2.811-.313 4.243-.477 5.622-.531 11.243-.87 16.865-1.162 11.243-.53 22.492-.864 33.74-1.092 11.249-.228 22.492-.361 33.74-.446 22.492-.159 44.989-.042 67.481.17 89.938.17 179.888.474 269.846.912v.18l-67.46.366-67.473.25c-44.978.084-89.951.307-134.934.153-22.483-.212-44.966-.26-67.449-.143-11.24.046-22.479.163-33.719.35-11.238.196-22.471.478-33.687.997-5.606.276-11.217.589-16.791 1.114-1.389.154-2.789.26-4.163.456l-2.074.276c-.689.09-1.363.233-2.041.35-1.348.223-2.769.53-4.153.79l-2.121.355-2.122.319c-11.19 1.591-22.444 2.248-33.697 2.651-11.254.403-22.519.409-33.773-.053a236.621 236.621 0 0 1-8.443-.493c-2.816-.212-5.621-.477-8.421-.923a31.118 31.118 0 0 1-4.201-.938l-1.988-.579c-.669-.169-1.358-.297-2.032-.45a95.5 95.5 0 0 0-8.289-1.225c-5.574-.584-11.185-.897-16.796-1.119-5.611-.223-11.227-.313-16.849-.366-11.238-.075-22.486-.075-33.729-.085l-33.735-.043-33.73.037-33.735.059-33.809.101-8.432.031c-2.806.032-5.648 0-8.486-.175-5.637-.313-11.243-.949-16.822-1.766-2.79-.408-5.569-.854-8.342-1.368a186.666 186.666 0 0 0-8.295-1.352c-5.552-.775-11.137-1.331-16.721-1.724-11.175-.748-22.429-.764-33.523.642a94.865 94.865 0 0 0-16.345 3.431c-.663.218-1.331.403-1.984.642l-1.962.705c-1.31.462-2.652.971-4.02 1.4-1.368.43-2.721.838-4.105 1.146l-2.068.53-2.084.43a147.431 147.431 0 0 1-16.791 2.291c-5.622.472-11.259.716-16.891.816-11.27.202-22.534-.148-33.772-.816a544.578 544.578 0 0 1-33.624-3.066 814.496 814.496 0 0 1-8.374-1.103 286.576 286.576 0 0 1-4.179-.625l-4.153-.531c-.689-.101-1.394-.132-2.09-.185l-2.094-.149-2.121-.154-2.122-.079-4.2-.159-4.21-.059c-11.228-.116-22.471.202-33.699.69a1190.7 1190.7 0 0 0-33.666 1.962l.053-.18Zm220.192 13.423a66.346 66.346 0 0 1 13.201-2.461c4.467-.377 8.951-.519 13.433-.424a217.6 217.6 0 0 1 26.772 2.285c4.433.637 8.856 1.363 13.258 2.207l3.299.663.822.175c.265.058.53.1.806.153l1.649.297c2.196.389 4.397.743 6.603 1.061 8.836 1.294 17.714 2.158 26.639 1.999l53.671-.1h26.84l26.835.042 53.676.244c8.952.042 17.915.17 26.851.875 4.478.317 8.934.9 13.343 1.745 1.093.27 2.201.472 3.278.827.53.154 1.092.329 1.591.472l.785.218.817.164c2.169.414 4.391.674 6.613.875 4.444.414 8.91.652 13.375.833 4.465.18 8.936.281 13.407.329 8.942.095 17.883.024 26.825-.213 8.936-.228 17.872-.62 26.787-1.299 4.455-.345 8.904-.748 13.333-1.294 1.108-.138 2.217-.27 3.32-.44 1.103-.17 2.206-.318 3.298-.53 1.093-.213 2.191-.393 3.278-.616 1.087-.222 2.217-.413 3.325-.62 4.45-.695 8.915-1.061 13.386-1.406l3.352-.238 3.351-.202c2.233-.143 4.471-.244 6.704-.36 8.941-.441 17.888-.716 26.835-.928 17.899-.419 35.793-.605 53.686-.658 17.894-.053 35.793 0 53.687.143l53.67.064 53.676.058 53.676.164 53.671.25 53.67.366v.18l-53.67.366-53.677.255-53.675.159-53.681.063h-40.253c-4.471 0-8.958 0-13.423-.069-17.89-.208-35.779-.316-53.665-.323-17.889 0-35.777.079-53.66.392-8.942.165-17.878.377-26.814.722-2.227.095-4.465.175-6.693.296l-3.346.175-3.347.207c-4.449.313-8.91.631-13.311 1.273-1.093.196-2.169.377-3.278.589-1.108.212-2.206.429-3.32.599-1.113.17-2.217.34-3.33.488-1.114.149-2.222.286-3.336.419-4.455.53-8.92.88-13.386 1.188-4.465.308-8.936.53-13.407.716a723.84 723.84 0 0 1-40.269.578c-8.946-.154-17.899-.318-26.829-1.098-2.233-.191-4.466-.445-6.688-.859l-.833-.164-.827-.223c-.562-.154-1.061-.313-1.591-.467-1.061-.339-2.153-.53-3.23-.801a108.076 108.076 0 0 0-13.258-1.665c-8.905-.62-17.852-.658-26.793-.61l-53.676.244-26.835.043h-26.84l-53.671-.096c-8.984.149-17.968-.833-26.814-2.206a297.627 297.627 0 0 1-6.629-1.135l-1.655-.313a75.47 75.47 0 0 1-.838-.17l-.816-.18-3.273-.689a284.3 284.3 0 0 0-13.189-2.318 281.63 281.63 0 0 0-13.29-1.692 184.74 184.74 0 0 0-13.36-.917 126.652 126.652 0 0 0-13.386.233 66.803 66.803 0 0 0-13.178 2.212l-.054-.122Zm-222 8.379c7.7-.955 15.423-1.628 23.155-2.217 7.732-.589 15.48-.997 23.234-1.151 3.877-.079 7.76-.058 11.668-.053 3.908.005 7.753.106 11.63.202 1.941 0 3.877.116 5.834.169.97.032 1.936.048 2.906.101l2.906.175c.97.064 1.941.085 2.906.191l2.907.292c1.951.17 3.845.467 5.77.663 15.38 1.543 30.86 2.407 46.32 2.964l5.796.207c1.936.043 3.867.085 5.802.154 1.936.069 3.866.074 5.802.111 1.936.037 3.866.043 5.802.043 7.733.037 15.47-.08 23.213-.467v.18c-7.695.982-15.454 1.448-23.213 1.703-7.759.254-15.523.244-23.282 0s-15.507-.721-23.239-1.337c-7.733-.615-15.46-1.426-23.144-2.572-1.915-.265-3.84-.641-5.75-.875l-2.863-.392c-.955-.122-1.925-.165-2.885-.25l-2.896-.217c-.96-.058-1.93-.08-2.895-.122-1.936-.069-3.867-.138-5.802-.127-1.936.01-3.872 0-5.834.037l-5.834.18c-3.866.165-7.732.329-11.598.531-15.465.678-30.935 1.431-46.426 2.047l.01-.17Z" fill="#A97D57"/><path d="M265.7 907.084c4.254-.07 8.507.161 12.728.689 4.243.509 8.443 1.216 12.601 2.121l3.103.684c1.06.197 2.089.377 3.134.531 2.093.353 4.191.675 6.295.965 4.2.589 8.417 1.093 12.643 1.421 1.061.092 2.122.167 3.182.223 1.061.069 2.122.106 3.183.143 2.121.075 4.242.059 6.364.048l12.728-.058 25.504-.096 51.013-.101h25.504l25.504.043 25.51.117c8.527-.037 17.047.518 25.498 1.66a218.53 218.53 0 0 1 12.622 1.994c4.19.79 8.353 1.702 12.463 2.863 1.029.281 2.048.61 3.066.934.53.17.997.297 1.501.44.504.143 1.023.233 1.543.329 2.068.392 4.179.626 6.285.838 4.242.408 8.485.647 12.728.811 8.485.308 16.971.364 25.456.17 8.485-.191 16.971-.589 25.456-1.268 4.243-.344 8.486-.758 12.665-1.31 2.121-.286 4.205-.594 6.29-.965l1.591-.281 1.553-.318c1.029-.217 2.122-.408 3.145-.61 8.438-1.342 16.929-1.93 25.414-2.546 8.486-.615 16.971-1.06 25.457-1.463 8.485-.403 16.971-.769 25.493-1.061a3783.399 3783.399 0 0 1 50.998-1.501l25.504-.53c8.485-.159 17.013-.34 25.514-.303h51.014l51.013.059 51.008.164 51.017.249 51.01.372v.18l-51.01.366-51.012.249-51.008.165-51.013.058h-51.008c-8.486-.064-16.971.085-25.494.207l-25.498.445a7663.92 7663.92 0 0 0-50.987 1.231c-16.971.53-33.984 1.092-50.95 2.121-8.485.53-16.971 1.061-25.35 2.323-1.061.191-2.069.361-3.119.578l-1.591.308-1.591.265c-2.121.36-4.21.652-6.321.923-4.243.53-8.486.944-12.728 1.278-8.486.652-16.971 1.023-25.489 1.188-8.517.164-17.018.191-25.52-.101-4.242-.149-8.485-.366-12.728-.759-2.121-.212-4.242-.434-6.364-.822-.53-.1-1.06-.222-1.591-.334-.53-.111-1.06-.286-1.559-.445-1.008-.318-2.015-.637-3.039-.902-4.083-1.113-8.241-1.973-12.415-2.72a218.8 218.8 0 0 0-12.59-1.857 185.232 185.232 0 0 0-25.377-1.394l-25.509.116-25.504.043h-25.436l-51.013-.101-25.504-.095-12.728-.064c-2.122 0-4.243 0-6.396-.112a91.634 91.634 0 0 1-3.182-.174c-1.061-.08-2.121-.154-3.182-.25a182.796 182.796 0 0 1-12.686-1.591c-2.1-.329-4.198-.682-6.295-1.06a148.527 148.527 0 0 1-3.14-.6l-3.107-.737a148.204 148.204 0 0 0-12.522-2.275 92.282 92.282 0 0 0-12.691-.928l-.053-.18ZM.896 916.168c8.963-1.06 17.957-1.803 26.962-2.439 4.505-.304 9.01-.557 13.513-.759 2.255-.122 4.514-.18 6.768-.254 2.254-.074 4.513-.106 6.772-.133 9.016-.053 18.069.143 27.08.806l1.686.122a22.7 22.7 0 0 1 1.691.159l3.368.409c1.13.117 2.233.307 3.347.451 1.113.143 2.232.291 3.357.408 4.47.53 8.968.854 13.46 1.183a847.575 847.575 0 0 0 26.989 1.341c9 .313 18.005.388 27.005.319 8.999-.069 17.994-.35 26.941-1.183 4.465-.446 8.936-.96 13.338-1.83 4.402-.87 8.777-1.983 12.786-4.041l.091.159-1.485.827c-.244.138-.494.282-.743.414l-.779.345-1.554.689c-.531.207-1.061.387-1.591.584-.531.196-1.061.397-1.591.562l-1.629.488c-1.06.35-2.19.599-3.293.864a124.375 124.375 0 0 1-13.375 2.344c-4.497.531-9.016.902-13.518 1.199-4.503.297-9.016.403-13.556.53-4.54.127-9.016.048-13.55-.063-4.535-.112-9.016-.26-13.545-.483a495.393 495.393 0 0 1-13.518-.833 491.467 491.467 0 0 1-13.487-1.219 612.68 612.68 0 0 1-13.45-1.56l-3.356-.45c-1.12-.154-2.238-.356-3.352-.478l-3.347-.392a21.927 21.927 0 0 0-1.68-.143l-1.682-.112c-1.124-.069-2.243-.138-3.368-.18l-3.378-.074c-2.248-.053-4.502 0-6.756 0-2.254 0-4.503.069-6.752.132l-3.378.096-3.373.132c-18.005.578-36.005 1.453-54.03 2.265l-.038-.202Z" fill="#A97D57"/><path d="M1028.5 874.569H50.61L0 893.549h1079.11l-50.61-18.98Z" fill="#E2B36F"/><path d="M1027.91 561.748a5.443 5.443 0 0 1-3.83-1.591 5.457 5.457 0 0 1-1.59-3.835V154.256a5.43 5.43 0 0 1 5.43-5.256c1.41 0 2.76.549 3.77 1.53a5.377 5.377 0 0 1 1.65 3.726v402.066c0 1.439-.57 2.819-1.59 3.837a5.438 5.438 0 0 1-3.84 1.589Zm-5.42 46.208V879.49a5.48 5.48 0 0 0 1.53 3.946c.51.521 1.11.936 1.78 1.22a5.433 5.433 0 0 0 7.18-3.038c.26-.678.38-1.402.36-2.128V607.956h-10.85ZM61.106 561.748a5.43 5.43 0 0 1-5.42-5.426V154.256a5.425 5.425 0 0 1 10.845 0v402.066a5.428 5.428 0 0 1-5.425 5.426Zm-5.42 46.208V879.49a5.427 5.427 0 0 0 7.538 5.166 5.435 5.435 0 0 0 3.307-5.166V607.956H55.686Z" fill="#DEE8EC"/><path opacity=".1" d="M870.939 891.317c65.003 0 117.699-3.688 117.699-8.237 0-4.548-52.696-8.236-117.699-8.236-65.002 0-117.698 3.688-117.698 8.236 0 4.549 52.696 8.237 117.698 8.237Z" fill="#191919"/><path d="m969.09 876.801-15.947-102.52c-2.938-14.971-22.609-26.167-40.683-26.167h-82.558c-18.074 0-37.739 11.196-40.682 26.167l-15.947 102.52a7.67 7.67 0 0 0 1.606 6.353 7.674 7.674 0 0 0 5.925 2.801h180.755a7.674 7.674 0 0 0 7.44-5.797 7.685 7.685 0 0 0 .091-3.357Z" fill="#FFCF33"/><path d="M912.931 784.57h-83.502c-10.799 0-19.554 8.754-19.554 19.553v25.828c0 10.799 8.755 19.554 19.554 19.554h83.502c10.799 0 19.554-8.755 19.554-19.554v-25.828c0-10.799-8.755-19.553-19.554-19.553Z" fill="#3D4554"/><path d="M780.606 734.607h-10.845v60.315h10.845v-60.315Z" fill="#EFB422"/><path d="M775.181 745.346c9.394 0 17.008-7.615 17.008-17.008 0-9.394-7.614-17.008-17.008-17.008-9.393 0-17.008 7.614-17.008 17.008 0 9.393 7.615 17.008 17.008 17.008Z" fill="#FFCF33"/><path d="m777.382 850.369 9.318-59.886h-13.205a16.09 16.09 0 0 0-16.091 16.09v27.705a16.092 16.092 0 0 0 16.091 16.091h3.887Z" fill="#F9C126"/><path d="M972.123 734.607h-10.846v60.315h10.846v-60.315Z" fill="#EFB422"/><path d="M966.697 745.346c9.394 0 17.008-7.615 17.008-17.008 0-9.394-7.614-17.008-17.008-17.008-9.393 0-17.008 7.614-17.008 17.008 0 9.393 7.615 17.008 17.008 17.008Z" fill="#FFCF33"/><path d="m964.496 850.369-9.312-59.886H968.4a16.087 16.087 0 0 1 16.09 16.09v27.705a16.088 16.088 0 0 1-16.09 16.091h-3.904Z" fill="#F9C126"/><path d="M853.767 830.37h-.159a3.598 3.598 0 0 1-2.779-1.512l-6.56-9.18-6.019 6.019a3.617 3.617 0 0 1-5.113-5.112l9.016-9.016a3.62 3.62 0 0 1 2.855-1.046 3.618 3.618 0 0 1 2.644 1.502l6.365 8.899 7.843-9.153a3.618 3.618 0 0 1 2.742-1.257h7.234a3.607 3.607 0 0 1 3.134 1.819l4.095 7.159 4.088-7.159a3.63 3.63 0 0 1 3.14-1.819h19.883a3.616 3.616 0 1 1 0 7.228h-17.783l-6.189 10.83a3.608 3.608 0 0 1-3.139 1.826 3.615 3.615 0 0 1-3.14-1.826l-6.168-10.856h-3.468l-9.79 11.391a3.635 3.635 0 0 1-2.732 1.263Z" fill="#ADE7EE"/><path opacity=".1" d="M553.882 891.317c70.995 0 128.549-3.688 128.549-8.237 0-4.548-57.554-8.236-128.549-8.236-70.996 0-128.549 3.688-128.549 8.236 0 4.549 57.553 8.237 128.549 8.237Z" fill="#191919"/><path d="M561.603 703.784h-10.846v36.153h10.846v-36.153Z" fill="#E55A89"/><path d="M556.183 714.522c9.393 0 17.008-7.614 17.008-17.008 0-9.393-7.615-17.008-17.008-17.008-9.393 0-17.008 7.615-17.008 17.008 0 9.394 7.615 17.008 17.008 17.008Z" fill="#F66689"/><path d="M635.962 818.225a81.907 81.907 0 0 0-4.126-25.705h23.224a15.215 15.215 0 0 1 15.215 15.215v29.482a15.215 15.215 0 0 1-15.215 15.215h-19.093l-.005-34.207Zm-164.166 0a82.08 82.08 0 0 1 4.126-25.705h-23.218a15.207 15.207 0 0 0-15.216 15.215v29.482a15.228 15.228 0 0 0 4.455 10.76 15.207 15.207 0 0 0 10.761 4.455h19.092v-34.207Z" fill="#E55A89"/><path d="M553.961 736.06a82.155 82.155 0 0 1 58.1 24.066 82.156 82.156 0 0 1 24.066 58.1v37.606a19.278 19.278 0 0 1-19.278 19.278H491.095a19.28 19.28 0 0 1-19.278-19.278v-37.606a82.17 82.17 0 0 1 24.058-58.093 82.17 82.17 0 0 1 58.086-24.073Z" fill="#2C2A46"/><path d="M616.854 885.955h-125.76a30.156 30.156 0 0 1-30.123-30.118v-37.612c0-51.284 41.727-93.011 93.011-93.011s93.011 41.727 93.011 93.011v37.612a30.148 30.148 0 0 1-30.139 30.118Zm-62.893-139.05c-39.325 0-71.32 31.996-71.32 71.32v37.612a8.418 8.418 0 0 0 .647 3.229 8.418 8.418 0 0 0 1.834 2.736 8.43 8.43 0 0 0 5.972 2.462h125.781a8.438 8.438 0 0 0 8.427-8.427v-37.612c-.032-39.346-32.016-71.32-71.341-71.32Z" fill="#F66689"/><path d="M526.85 807.953a9.472 9.472 0 1 0 0-18.945 9.472 9.472 0 0 0 0 18.945Zm54.227 0a9.472 9.472 0 1 0 0-18.945 9.472 9.472 0 0 0 0 18.945Zm-42.384 20.492h35.002v1.061a17.502 17.502 0 0 1-35.002 0v-1.061Z" fill="#DAF2F4"/><path opacity=".1" d="M233.44 891.317c65.003 0 117.698-3.688 117.698-8.237 0-4.548-52.695-8.236-117.698-8.236-65.003 0-117.699 3.688-117.699 8.236 0 4.549 52.696 8.237 117.699 8.237Z" fill="#191919"/><path d="m169.045 758.843-19.124 23.325v43.79l9.562 39.706 13.795 14.463h118.918l17.724-17.258 7-55.044-2.8-28.919-19.124-20.063-37.787-3.728-88.164 3.728Z" fill="#1A272F"/><path d="M194.459 820.809c5.934 0 10.745-4.811 10.745-10.745 0-5.934-4.811-10.745-10.745-10.745-5.934 0-10.745 4.811-10.745 10.745 0 5.934 4.811 10.745 10.745 10.745Zm77.923 0c5.934 0 10.745-4.811 10.745-10.745 0-5.934-4.811-10.745-10.745-10.745-5.934 0-10.744 4.811-10.744 10.745 0 5.934 4.81 10.745 10.744 10.745Z" fill="#87DDE8"/><path d="M238.844 711.06h-10.845v36.153h10.845V711.06Z" fill="#E4F0F4"/><path d="M233.418 721.799c9.393 0 17.008-7.615 17.008-17.008 0-9.394-7.615-17.008-17.008-17.008-9.394 0-17.008 7.614-17.008 17.008 0 9.393 7.614 17.008 17.008 17.008Zm59.775 22.12H173.649a38.848 38.848 0 0 0-38.847 38.843l7.329 62.166a46.449 46.449 0 0 0 46.14 41.027h90.327a46.452 46.452 0 0 0 46.14-41.027l7.302-62.166a38.83 38.83 0 0 0-11.378-27.468 38.851 38.851 0 0 0-27.469-11.375Zm18.562 59.324-8.379 55.447a19.532 19.532 0 0 1-19.315 16.616H182.766a19.54 19.54 0 0 1-19.321-16.616l-8.374-55.447a12.657 12.657 0 0 1 2.92-10.144 12.644 12.644 0 0 1 9.596-4.398h1.263v-9.742a12.652 12.652 0 0 1 7.811-11.687 12.655 12.655 0 0 1 4.842-.962h103.82a12.655 12.655 0 0 1 12.654 12.649v9.742h1.262a12.652 12.652 0 0 1 12.521 14.542h-.005Z" fill="#F5F8F9"/><path d="M233.419 857.274c-12.49 0-24.168-4.423-32.028-12.134a5.43 5.43 0 0 1 .042-7.555 5.43 5.43 0 0 1 7.553-.188c5.834 5.744 14.759 9.016 24.433 9.016 9.673 0 18.562-3.288 24.438-9.016a5.437 5.437 0 0 1 3.885-1.67 5.42 5.42 0 0 1 3.903 1.627 5.425 5.425 0 0 1-.194 7.786c-7.865 7.711-19.538 12.134-32.032 12.134Z" fill="#87DDE8"/><path d="m142.13 844.928-6.486-55.155a28.168 28.168 0 0 0-19.516 31.47l1.973 12.028a28.186 28.186 0 0 0 27.047 23.611 46.588 46.588 0 0 1-3.018-11.954Zm182.634 0 6.486-55.155a28.167 28.167 0 0 1 19.517 31.47l-1.968 12.028a28.196 28.196 0 0 1-27.079 23.568 46.548 46.548 0 0 0 3.044-11.911Z" fill="#E4F0F4"/><path opacity=".1" d="M870.939 566.484c65.003 0 117.699-3.688 117.699-8.237 0-4.548-52.696-8.236-117.699-8.236-65.002 0-117.698 3.688-117.698 8.236 0 4.549 52.696 8.237 117.698 8.237Z" fill="#191919"/><path d="M930.312 422.809H811.515a37.16 37.16 0 0 0-37.161 37.161l12.782 81.471a23.983 23.983 0 0 0 23.457 18.975h120.641a23.981 23.981 0 0 0 23.457-18.975l12.781-81.471a37.16 37.16 0 0 0-37.16-37.161Z" fill="#F5F8F9"/><path d="M921.147 461.948H820.68c-10.691 0-19.358 8.667-19.358 19.357v17.321c0 10.691 8.667 19.358 19.358 19.358h100.467c10.691 0 19.358-8.667 19.358-19.358v-17.321c0-10.69-8.667-19.357-19.358-19.357Z" fill="#242B36"/><path d="M830.242 506.227c8.983 0 16.265-7.283 16.265-16.266 0-8.983-7.282-16.265-16.265-16.265-8.984 0-16.266 7.282-16.266 16.265s7.282 16.266 16.266 16.266Zm81.343 0c8.984 0 16.266-7.283 16.266-16.266 0-8.983-7.282-16.265-16.266-16.265-8.983 0-16.265 7.282-16.265 16.265s7.282 16.266 16.265 16.266Z" fill="#87DDE8"/><path d="M775.414 466.716a18.91 18.91 0 0 0-18.938 22.343l4.174 22.471a18.917 18.917 0 0 0 2.733 6.846 18.908 18.908 0 0 0 5.146 5.279 18.905 18.905 0 0 0 14.146 3c.696-.14 1.385-.317 2.063-.53l-9.324-59.409Zm191.056 0a19.12 19.12 0 0 1 3.813.318 18.893 18.893 0 0 1 15.12 22.025l-4.174 22.471a18.895 18.895 0 0 1-22.025 15.125 19.972 19.972 0 0 1-2.058-.53l9.324-59.409Zm-151.051-43.907h12.914a6.231 6.231 0 0 0-.249-1.856l-12.596-41.048a6.328 6.328 0 0 0-11.73-1.2 6.32 6.32 0 0 0-.362 4.912l12.023 39.192Zm110.989 0 12.028-39.192a6.336 6.336 0 0 0-.451-4.829 6.333 6.333 0 0 0-3.737-3.091 6.316 6.316 0 0 0-4.827.463 6.336 6.336 0 0 0-3.082 3.744l-12.596 41.049a6.227 6.227 0 0 0-.249 1.856h12.914Z" fill="#E4F0F4"/><path opacity=".1" d="M553.882 566.484c70.995 0 128.549-3.688 128.549-8.237 0-4.548-57.554-8.236-128.549-8.236-70.996 0-128.549 3.688-128.549 8.236 0 4.549 57.553 8.237 128.549 8.237Z" fill="#191919"/><path d="M630.229 475.461H477.528c-8.746 0-15.836 7.09-15.836 15.836v53.284c0 8.746 7.09 15.836 15.836 15.836h152.701c8.746 0 15.836-7.09 15.836-15.836v-53.284c0-8.746-7.09-15.836-15.836-15.836Z" fill="#517BF2"/><path d="M461.698 512.516h-14.463v10.846h14.463v-10.846Z" fill="#3C6EDD"/><path d="M441.778 501.671h-1.744a9.068 9.068 0 0 0-9.069 9.068v14.399a9.069 9.069 0 0 0 9.069 9.069h1.744a9.069 9.069 0 0 0 9.069-9.069v-14.399a9.068 9.068 0 0 0-9.069-9.068Z" fill="#517BF2"/><path d="M660.527 512.516h-14.462v10.846h14.462v-10.846Z" fill="#3C6EDD"/><path d="M665.98 534.207h1.745a9.068 9.068 0 0 0 9.068-9.069v-14.399a9.068 9.068 0 0 0-9.068-9.068h-1.745a9.068 9.068 0 0 0-9.069 9.068v14.399a9.069 9.069 0 0 0 9.069 9.069Z" fill="#517BF2"/><path d="M559.302 450.154h-10.845v25.308h10.845v-25.308Z" fill="#3C6EDD"/><path d="M569.999 444.702v-1.745a9.07 9.07 0 0 0-9.069-9.069h-14.399a9.069 9.069 0 0 0-9.069 9.069v1.745a9.07 9.07 0 0 0 9.069 9.069h14.399a9.07 9.07 0 0 0 9.069-9.069Z" fill="#517BF2"/><path d="M617.952 489.924H489.806c-7.539 0-13.651 6.112-13.651 13.651v28.734c0 7.539 6.112 13.651 13.651 13.651h128.146c7.539 0 13.651-6.112 13.651-13.651v-28.734c0-7.539-6.112-13.651-13.651-13.651Z" fill="#2C2A46"/><path d="M521.223 530.203c6.772 0 12.262-5.49 12.262-12.262s-5.49-12.261-12.262-12.261c-6.771 0-12.261 5.489-12.261 12.261 0 6.772 5.49 12.262 12.261 12.262Zm61.308 4.004c8.983 0 16.265-7.283 16.265-16.266 0-8.983-7.282-16.265-16.265-16.265-8.984 0-16.266 7.282-16.266 16.265s7.282 16.266 16.266 16.266Z" fill="#C9DFE4"/><path opacity=".1" d="M233.44 566.484c65.003 0 117.698-3.688 117.698-8.237 0-4.548-52.695-8.236-117.698-8.236-65.003 0-117.699 3.688-117.699 8.236 0 4.549 52.696 8.237 117.699 8.237Z" fill="#191919"/><path d="M238.027 376.951h-10.845v36.153h10.845v-36.153Z" fill="#2498A8"/><path d="M232.602 387.69c9.393 0 17.008-7.614 17.008-17.008 0-9.393-7.615-17.008-17.008-17.008-9.394 0-17.008 7.615-17.008 17.008 0 9.394 7.614 17.008 17.008 17.008Zm.907 13.662a93.995 93.995 0 0 1 93.992 93.992v43.021a22.049 22.049 0 0 1-22.025 22.051H161.563a22.054 22.054 0 0 1-20.373-13.612 22.058 22.058 0 0 1-1.679-8.439v-43.021a93.989 93.989 0 0 1 93.998-93.992Z" fill="#2CC3D5"/><path d="M283.742 454.221H183.275c-10.691 0-19.358 8.667-19.358 19.358v17.32c0 10.691 8.667 19.358 19.358 19.358h100.467c10.691 0 19.358-8.667 19.358-19.358v-17.32c0-10.691-8.667-19.358-19.358-19.358Z" fill="#242B36"/><path d="M192.836 498.505c8.984 0 16.266-7.283 16.266-16.266 0-8.983-7.282-16.265-16.266-16.265-8.983 0-16.265 7.282-16.265 16.265s7.282 16.266 16.265 16.266Zm81.339 0c8.983 0 16.265-7.283 16.265-16.266 0-8.983-7.282-16.265-16.265-16.265-8.984 0-16.266 7.282-16.266 16.265s7.282 16.266 16.266 16.266Z" fill="#fff"/><path d="M220.854 544.151h-.159a3.618 3.618 0 0 1-2.784-1.512l-6.555-9.18-6.02 6.019a3.615 3.615 0 0 1-6.09-2.58 3.614 3.614 0 0 1 .978-2.532l9.016-9.016a3.618 3.618 0 0 1 5.499.456l6.364 8.899 7.839-9.153a3.644 3.644 0 0 1 2.747-1.262h7.229a3.617 3.617 0 0 1 3.139 1.824l4.094 7.16 4.089-7.16a3.618 3.618 0 0 1 3.14-1.824h19.882a3.617 3.617 0 1 1 0 7.233h-17.771l-6.195 10.825a3.607 3.607 0 0 1-3.137 1.821 3.606 3.606 0 0 1-3.137-1.821l-6.189-10.83h-3.484l-9.748 11.36a3.637 3.637 0 0 1-2.747 1.273Z" fill="#DAF2F4"/><path d="M139.517 495.344a93.895 93.895 0 0 1 3.474-25.303h-10.3a16.67 16.67 0 0 0-16.673 16.669v29.015a16.67 16.67 0 0 0 10.292 15.406 16.675 16.675 0 0 0 6.381 1.268h6.826v-37.055Zm187.846 0a93.94 93.94 0 0 0-3.479-25.303h10.299a16.67 16.67 0 0 1 16.674 16.669v29.015a16.682 16.682 0 0 1-4.882 11.792 16.68 16.68 0 0 1-11.792 4.882h-6.82v-37.055Z" fill="#2498A8"/></svg>