<svg width="1137" height="1136" viewBox="0 0 1137 1136" fill="none" xmlns="http://www.w3.org/2000/svg"><path d="M77.924 599.397c0-93.784 76.027-169.811 169.811-169.811h407.547c93.784 0 169.811 76.027 169.811 169.811v366.792c0 93.781-76.027 169.811-169.811 169.811H247.736c-93.785 0-169.812-76.03-169.812-169.811V599.397Z" fill="#DEE8EC"/><path fill-rule="evenodd" clip-rule="evenodd" d="M77.924 640.152h-6.792C37.37 640.152 10 667.521 10 701.284v163.018c0 33.763 27.37 61.132 61.132 61.132h6.792V640.152Zm747.17 0h6.792c33.762 0 61.132 27.369 61.132 61.132v163.018c0 33.763-27.37 61.132-61.132 61.132h-6.792V640.152Z" fill="#D2DFE6"/><path d="M634.904 782.792c0 101.287-82.109 183.396-183.396 183.396-101.287 0-183.396-82.109-183.396-183.396 0-101.287 82.109-183.396 183.396-183.396 101.287 0 183.396 82.109 183.396 183.396Z" fill="#fff"/><path fill-rule="evenodd" clip-rule="evenodd" d="M451.508 925.433c78.779 0 142.642-63.862 142.642-142.641s-63.863-142.641-142.642-142.641c-78.778 0-142.641 63.862-142.641 142.641s63.863 142.641 142.641 142.641Zm0 40.755c101.287 0 183.396-82.109 183.396-183.396 0-101.287-82.109-183.396-183.396-183.396-101.287 0-183.396 82.109-183.396 183.396 0 101.287 82.109 183.396 183.396 183.396Z" fill="#2CC3D5"/><path d="M512.641 782.793c0 33.762-27.37 61.132-61.132 61.132s-61.132-27.37-61.132-61.132 27.37-61.132 61.132-61.132 61.132 27.37 61.132 61.132Z" fill="#202C44"/><path opacity=".4" d="M492.264 769.207c0 15.006-12.164 27.17-27.17 27.17-15.005 0-27.17-12.164-27.17-27.17 0-15.005 12.165-27.169 27.17-27.169 15.006 0 27.17 12.164 27.17 27.169Z" fill="#fff"/><path fill-rule="evenodd" clip-rule="evenodd" d="M475.282 317.51v112.075h-47.547V317.51h47.547Z" fill="#8CA0B3"/><path d="M533.018 252.982c0 45.016-36.493 81.509-81.509 81.509-45.017 0-81.509-36.493-81.509-81.509 0-45.017 36.492-81.51 81.509-81.51 45.016 0 81.509 36.493 81.509 81.51Z" fill="#F9B42F"/><path opacity=".3" fill-rule="evenodd" clip-rule="evenodd" d="M490.798 240.474c-4.11-20.219-23.832-33.279-44.051-29.169-5.515 1.121-10.894-2.441-12.014-7.955-1.121-5.514 2.44-10.893 7.955-12.014 31.247-6.351 61.727 13.831 68.079 45.079 1.12 5.514-2.441 10.893-7.956 12.014-5.514 1.121-10.893-2.441-12.013-7.955Z" fill="#fff"/><g filter="url(#robot-2__a)"><path d="M1064.59 163.619c-10.37-52.469-47.61-89.142-102.191-100.567A354.1 354.1 0 0 0 891.875 56c-31.524 0-75.954 4.161-108.253 24.19-40.763 25.67-62.202 74.05-60.298 137.168 1.128 36.179 9.803 86.956 44.923 123.628 27.152 28.21 77.576 42.808 118.621 45.559v26.516a24.682 24.682 0 0 0 24.613 24.684c.727.07 1.459.07 2.186 0a24.754 24.754 0 0 0 14.105-5.713c15.797-13.54 36.531-31.524 56.913-50.565l8.815-8.11a304.645 304.645 0 0 0 44.85-47.533c28.35-40.975 38.3-101.554 26.24-162.205Z" fill="#fff"/></g><path d="M899.515 143.386a81.879 81.879 0 0 0-45.502 13.767A81.872 81.872 0 0 0 930.768 300.9a81.869 81.869 0 0 0 50.554-75.644 81.96 81.96 0 0 0-81.807-81.87Zm42.722 69.74-45.856 43.286a14.544 14.544 0 0 1-19.716 0l-20.405-18.806a7.843 7.843 0 0 1-.423-11.08 7.842 7.842 0 0 1 11.08-.424l19.465 17.96 45.135-42.47a7.834 7.834 0 0 1 12.93 6.015 7.836 7.836 0 0 1-2.21 5.394v.125Z" fill="#4DCB7B"/><defs><filter id="robot-2__a" x="656.438" y=".359" width="479.953" height="515.336" filterUnits="userSpaceOnUse" color-interpolation-filters="sRGB"><feFlood flood-opacity="0" result="BackgroundImageFix"/><feColorMatrix in="SourceAlpha" values="0 0 0 0 0 0 0 0 0 0 0 0 0 0 0 0 0 0 127 0" result="hardAlpha"/><feOffset dy="11.128"/><feGaussianBlur stdDeviation="33.385"/><feColorMatrix values="0 0 0 0 0.374547 0 0 0 0 0.481553 0 0 0 0 0.601935 0 0 0 0.15 0"/><feBlend in2="BackgroundImageFix" result="effect1_dropShadow_10272_1596"/><feBlend in="SourceGraphic" in2="effect1_dropShadow_10272_1596" result="shape"/></filter></defs></svg>