<svg xmlns="http://www.w3.org/2000/svg" width="1080" height="1081" fill="none"><path fill="#072F73" d="M188.223 866.524c120.997 4.308 182.752-11.13 187.061-136.795 4.667-129.255-67.859-173.417-175.931-177.367-107.712-3.949-183.47 34.827-188.137 164.082-4.309 126.024 56.01 145.771 177.007 150.08M902.717 866.165c-120.997 4.309-182.753-11.13-187.061-136.795-4.668-129.255 67.859-173.417 175.93-177.366 107.713-3.95 183.474 34.827 188.134 164.082 4.31 125.664-56.01 145.771-177.003 150.079"/><path fill="#072F73" fill-rule="evenodd" d="M541.88 69.467c9.509 0 17.218 7.709 17.218 17.219v394.946c0 9.509-7.709 17.219-17.218 17.219s-17.219-7.71-17.219-17.219V86.686c0-9.51 7.709-17.22 17.219-17.22" clip-rule="evenodd"/><path fill="url(#a)" d="M545.47 497.427c86.888 0 130.691-12.925 130.691-103.045 0-92.992-53.138-122.792-130.691-122.792s-130.692 29.8-130.692 122.792c0 90.479 43.804 103.045 130.692 103.045"/><path fill="#A80B0B" d="M541.879 196.551c54.134 0 98.019-43.885 98.019-98.019S596.013.514 541.879.514s-98.018 43.884-98.018 98.018 43.884 98.019 98.018 98.019"/><path fill="#0096FA" d="M542 196.514c54.124 0 98-43.876 98-98s-43.876-98-98-98c-54.123 0-98 43.876-98 98s43.877 98 98 98"/><path fill="url(#b)" d="M542 196.514c54.124 0 98-43.876 98-98s-43.876-98-98-98c-54.123 0-98 43.876-98 98s43.877 98 98 98"/><path fill="url(#c)" d="M545.47 1080.51c285.797 0 430.491-42.01 430.491-338.934 0-305.903-175.212-403.922-430.491-403.922s-430.491 98.019-430.491 403.922c0 296.924 144.694 338.934 430.491 338.934"/><path fill="#072F73" d="M724.272 476.245c-119.561-10.053-238.044-10.053-357.605 0-47.394 3.949-89.402 47.035-101.968 90.838-19.389 93.71-27.647 183.111-22.261 278.975 7.181 44.521 48.829 88.324 95.146 92.992 139.308 13.643 276.462 13.643 416.13 0 43.444-7.899 91.197-46.316 95.146-92.992 5.386-95.864-2.873-185.265-22.261-278.975-10.412-46.317-57.087-83.657-102.327-90.838"/><path fill="#35DE90" fill-rule="evenodd" d="M497.565 739.075c0-6.627 5.373-12 12-12h71.809c6.627 0 12 5.373 12 12 0 6.628-5.373 12-12 12h-71.809c-6.627 0-12-5.372-12-12M651 665.514c6.627 0 12 5.372 12 12 0 15.274 12.58 27.854 27.854 27.854s27.853-12.58 27.853-27.854c0-6.628 5.373-12 12-12 6.628 0 12 5.372 12 12 0 28.528-23.324 51.854-51.853 51.854-28.53 0-51.854-23.326-51.854-51.854 0-6.628 5.373-12 12-12M364 665.514c6.627 0 12 5.372 12 12 0 15.274 12.58 27.854 27.854 27.854s27.853-12.58 27.853-27.854c0-6.628 5.373-12 12-12 6.628 0 12 5.372 12 12 0 28.528-23.324 51.854-51.853 51.854-28.53 0-51.854-23.326-51.854-51.854 0-6.628 5.373-12 12-12" clip-rule="evenodd"/><path fill="#F6F6F6" fill-rule="evenodd" d="M999.27 312.814c36-30.008 58.9-75.185 58.9-125.713 0-90.347-73.236-163.587-163.583-163.587S731 96.754 731 187.1s73.24 163.587 163.587 163.587c7.296 0 14.481-.478 21.525-1.403v20.014c0 9.971 12.056 14.965 19.107 7.914l62.521-62.521a11.7 11.7 0 0 0 1.53-1.878" clip-rule="evenodd"/><path fill="#E60F0F" d="M970.602 123.479h-34.133v-.847a47.015 47.015 0 0 0-43.067-31.312 47.02 47.02 0 0 0-43.066 32.159h-35.074c-1.87 0-3.664.743-4.987 2.065a7.056 7.056 0 0 0 0 9.974 7.06 7.06 0 0 0 4.987 2.065h8.839v106.726a35.07 35.07 0 0 0 34.98 35.074h67.703a35.076 35.076 0 0 0 34.979-35.074V137.583h8.839a7.054 7.054 0 0 0 7.053-7.052 7.053 7.053 0 0 0-7.053-7.052m-77.2-18.054a31.78 31.78 0 0 1 27.74 18.054h-55.385a31.69 31.69 0 0 1 27.645-18.054"/><path fill="#F6F6F6" d="M910.515 230.016a7.145 7.145 0 0 0 7.052-7.053v-42.784a7.054 7.054 0 0 0-7.052-7.053 7.05 7.05 0 0 0-7.053 7.053v42.784a7.15 7.15 0 0 0 7.053 7.053M875.345 230.016a7.15 7.15 0 0 0 7.052-7.053v-42.784a7.054 7.054 0 0 0-7.052-7.053 7.053 7.053 0 0 0-7.052 7.053v42.784a7.145 7.145 0 0 0 7.052 7.053"/><defs><linearGradient id="a" x1="511.908" x2="586.579" y1="507.106" y2="256.407" gradientUnits="userSpaceOnUse"><stop stop-color="#C5D9FB"/><stop offset=".047" stop-color="#CEDEFA"/><stop offset=".169" stop-color="#E0E8F8"/><stop offset=".317" stop-color="#ECF0F6"/><stop offset=".518" stop-color="#F3F4F5"/><stop offset="1" stop-color="#F5F5F5"/></linearGradient><linearGradient id="b" x1="605.981" x2="467.308" y1="-8.944" y2="223.821" gradientUnits="userSpaceOnUse"><stop stop-color="#03F" stop-opacity="0"/><stop offset="1" stop-color="#03F" stop-opacity=".5"/></linearGradient><linearGradient id="c" x1="435.08" x2="680.773" y1="1112.09" y2="287.207" gradientUnits="userSpaceOnUse"><stop stop-color="#C5D9FB"/><stop offset=".047" stop-color="#CEDEFA"/><stop offset=".169" stop-color="#E0E8F8"/><stop offset=".317" stop-color="#ECF0F6"/><stop offset=".518" stop-color="#F3F4F5"/><stop offset="1" stop-color="#F5F5F5"/></linearGradient></defs></svg>