<svg width="1080" height="1080" viewBox="0 0 1080 1080" fill="none" xmlns="http://www.w3.org/2000/svg">
<path d="M77.9243 543.397C77.9243 449.613 153.951 373.586 247.735 373.586H655.282C749.066 373.586 825.093 449.613 825.093 543.397V910.189C825.093 1003.97 749.066 1080 655.282 1080H247.736C153.951 1080 77.9243 1003.97 77.9243 910.189V543.397Z" fill="#DEE8EC"/>
<path fill-rule="evenodd" clip-rule="evenodd" d="M77.9245 584.151H71.132C37.3697 584.151 10 611.521 10 645.283V808.302C10 842.064 37.3697 869.434 71.132 869.434H77.9245V584.151Z" fill="#D2DFE6"/>
<path fill-rule="evenodd" clip-rule="evenodd" d="M825.094 584.151H831.886C865.648 584.151 893.018 611.521 893.018 645.283V808.302C893.018 842.064 865.648 869.434 831.886 869.434H825.094V584.151Z" fill="#D2DFE6"/>
<path d="M634.904 726.792C634.904 828.078 552.795 910.188 451.508 910.188C350.221 910.188 268.112 828.078 268.112 726.792C268.112 625.505 350.221 543.396 451.508 543.396C552.795 543.396 634.904 625.505 634.904 726.792Z" fill="white"/>
<path fill-rule="evenodd" clip-rule="evenodd" d="M451.508 869.433C530.287 869.433 594.15 805.57 594.15 726.792C594.15 648.013 530.287 584.15 451.508 584.15C372.73 584.15 308.867 648.013 308.867 726.792C308.867 805.57 372.73 869.433 451.508 869.433ZM451.508 910.188C552.795 910.188 634.904 828.078 634.904 726.792C634.904 625.505 552.795 543.396 451.508 543.396C350.221 543.396 268.112 625.505 268.112 726.792C268.112 828.078 350.221 910.188 451.508 910.188Z" fill="#2CC3D5"/>
<path d="M512.641 726.793C512.641 760.555 485.271 787.925 451.509 787.925C417.747 787.925 390.377 760.555 390.377 726.793C390.377 693.031 417.747 665.661 451.509 665.661C485.271 665.661 512.641 693.031 512.641 726.793Z" fill="#202C44"/>
<path opacity="0.4" d="M492.264 713.207C492.264 728.212 480.1 740.377 465.094 740.377C450.089 740.377 437.924 728.212 437.924 713.207C437.924 698.201 450.089 686.037 465.094 686.037C480.1 686.037 492.264 698.201 492.264 713.207Z" fill="white"/>
<path fill-rule="evenodd" clip-rule="evenodd" d="M475.282 261.51V373.585H427.735V261.51H475.282Z" fill="#8CA0B3"/>
<path d="M533.018 196.982C533.018 241.998 496.525 278.491 451.509 278.491C406.492 278.491 370 241.998 370 196.982C370 151.965 406.492 115.472 451.509 115.472C496.525 115.472 533.018 151.965 533.018 196.982Z" fill="#F9B42F"/>
<path opacity="0.3" fill-rule="evenodd" clip-rule="evenodd" d="M490.798 184.474C486.688 164.255 466.966 151.195 446.747 155.305C441.232 156.426 435.853 152.864 434.733 147.35C433.612 141.836 437.173 136.457 442.688 135.336C473.935 128.985 504.415 149.167 510.767 180.415C511.887 185.929 508.326 191.308 502.811 192.429C497.297 193.55 491.918 189.988 490.798 184.474Z" fill="white"/>
</svg>
