<svg width="1080" height="1080" viewBox="0 0 1080 1080" fill="none" xmlns="http://www.w3.org/2000/svg">
<path d="M188.223 866.01C309.22 870.319 370.975 854.88 375.284 729.216C379.951 599.961 307.425 555.798 199.353 551.848C91.6406 547.899 15.8831 586.675 11.2156 715.93C6.90707 841.954 67.2258 861.702 188.223 866.01Z" fill="#072F73"/>
<path d="M902.717 865.652C781.72 869.96 719.964 854.521 715.656 728.856C710.988 599.601 783.515 555.439 891.586 551.49C999.299 547.541 1075.06 586.317 1079.72 715.572C1084.03 841.237 1023.71 861.343 902.717 865.652Z" fill="#072F73"/>
<path fill-rule="evenodd" clip-rule="evenodd" d="M541.88 68.9531C551.389 68.9531 559.098 76.6623 559.098 86.172V481.118C559.098 490.628 551.389 498.337 541.88 498.337C532.37 498.337 524.661 490.628 524.661 481.118V86.172C524.661 76.6623 532.37 68.9531 541.88 68.9531Z" fill="#072F73"/>
<path d="M545.47 496.913C632.358 496.913 676.161 483.988 676.161 393.868C676.161 300.876 623.023 271.076 545.47 271.076C467.917 271.076 414.778 300.876 414.778 393.868C414.778 484.347 458.582 496.913 545.47 496.913Z" fill="url(#paint0_linear_10272_1596)"/>
<path d="M542 196C596.124 196 640 152.124 640 98.0004C640 43.8766 596.124 0 542 0C487.877 0 444 43.8766 444 98.0004C444 152.124 487.877 196 542 196Z" fill="#0096FA"/>
<path d="M542 196C596.124 196 640 152.124 640 98.0004C640 43.8766 596.124 0 542 0C487.877 0 444 43.8766 444 98.0004C444 152.124 487.877 196 542 196Z" fill="url(#paint1_linear_10272_1596)"/>
<path d="M545.47 1080C831.267 1080 975.961 1037.99 975.961 741.063C975.961 435.159 800.749 337.141 545.47 337.141C290.191 337.141 114.979 435.159 114.979 741.063C114.979 1037.99 259.673 1080 545.47 1080Z" fill="url(#paint2_linear_10272_1596)"/>
<path d="M724.272 475.731C604.711 465.678 486.227 465.678 366.666 475.731C319.273 479.681 277.265 522.766 264.698 566.569C245.31 660.279 237.052 749.68 242.438 845.544C249.618 890.066 291.267 933.868 337.584 938.536C476.892 952.18 614.046 952.18 753.713 938.536C797.157 930.637 844.91 892.22 848.86 845.544C854.245 749.68 845.987 660.279 826.599 566.569C816.186 520.253 769.511 482.912 724.272 475.731Z" fill="#072F73"/>
<path d="M397.133 753.265C423.164 753.265 444.265 732.163 444.265 706.132C444.265 680.101 423.164 659 397.133 659C371.102 659 350 680.101 350 706.132C350 732.163 371.102 753.265 397.133 753.265Z" fill="#35DE90"/>
<path d="M692.867 753.265C718.898 753.265 740 732.163 740 706.132C740 680.101 718.898 659 692.867 659C666.837 659 645.734 680.101 645.734 706.132C645.734 732.163 666.837 753.265 692.867 753.265Z" fill="#35DE90"/>
<path fill-rule="evenodd" clip-rule="evenodd" d="M506 707C512.627 707 518 712.373 518 719C518 734.274 530.58 746.854 545.854 746.854C561.128 746.854 573.707 734.274 573.707 719C573.707 712.373 579.08 707 585.707 707C592.335 707 597.707 712.373 597.707 719C597.707 747.529 574.383 770.854 545.854 770.854C517.324 770.854 494 747.529 494 719C494 712.373 499.373 707 506 707Z" fill="#35DE90"/>
<defs>
<linearGradient id="paint0_linear_10272_1596" x1="511.908" y1="506.593" x2="586.579" y2="255.893" gradientUnits="userSpaceOnUse">
<stop stop-color="#C5D9FB"/>
<stop offset="0.0468921" stop-color="#CEDEFA"/>
<stop offset="0.1687" stop-color="#E0E8F8"/>
<stop offset="0.317" stop-color="#ECF0F6"/>
<stop offset="0.5176" stop-color="#F3F4F5"/>
<stop offset="1" stop-color="#F5F5F5"/>
</linearGradient>
<linearGradient id="paint1_linear_10272_1596" x1="605.981" y1="-9.45768" x2="467.308" y2="223.307" gradientUnits="userSpaceOnUse">
<stop stop-color="#0033FF" stop-opacity="0"/>
<stop offset="1" stop-color="#0033FF" stop-opacity="0.5"/>
</linearGradient>
<linearGradient id="paint2_linear_10272_1596" x1="435.08" y1="1111.58" x2="680.773" y2="286.694" gradientUnits="userSpaceOnUse">
<stop stop-color="#C5D9FB"/>
<stop offset="0.0468921" stop-color="#CEDEFA"/>
<stop offset="0.1687" stop-color="#E0E8F8"/>
<stop offset="0.317" stop-color="#ECF0F6"/>
<stop offset="0.5176" stop-color="#F3F4F5"/>
<stop offset="1" stop-color="#F5F5F5"/>
</linearGradient>
</defs>
</svg>
