<svg width="1080" height="1080" viewBox="0 0 1080 1080" fill="none" xmlns="http://www.w3.org/2000/svg">
<path d="M188.223 866.01C309.22 870.319 370.975 854.88 375.284 729.216C379.951 599.961 307.425 555.798 199.353 551.848C91.6406 547.899 15.8831 586.675 11.2156 715.93C6.90707 841.954 67.2258 861.702 188.223 866.01Z" fill="#072F73"/>
<path d="M902.717 865.652C781.72 869.96 719.964 854.521 715.656 728.856C710.988 599.601 783.514 555.439 891.586 551.49C999.299 547.541 1075.06 586.317 1079.72 715.572C1084.03 841.237 1023.71 861.343 902.717 865.652Z" fill="#072F73"/>
<path fill-rule="evenodd" clip-rule="evenodd" d="M541.88 68.9531C551.389 68.9531 559.098 76.6623 559.098 86.172V481.118C559.098 490.628 551.389 498.337 541.88 498.337C532.37 498.337 524.661 490.628 524.661 481.118V86.172C524.661 76.6623 532.37 68.9531 541.88 68.9531Z" fill="#072F73"/>
<path d="M545.47 496.913C632.358 496.913 676.161 483.988 676.161 393.868C676.161 300.876 623.023 271.076 545.47 271.076C467.917 271.076 414.778 300.876 414.778 393.868C414.778 484.347 458.582 496.913 545.47 496.913Z" fill="url(#paint0_linear_15189_95543)"/>
<path d="M541.879 196.037C596.013 196.037 639.898 152.153 639.898 98.0186C639.898 43.8845 596.013 0 541.879 0C487.745 0 443.861 43.8845 443.861 98.0186C443.861 152.153 487.745 196.037 541.879 196.037Z" fill="#E60F0F"/>
<path d="M542 196C596.124 196 640 152.124 640 98.0004C640 43.8766 596.124 0 542 0C487.877 0 444 43.8766 444 98.0004C444 152.124 487.877 196 542 196Z" fill="#0096FA"/>
<path d="M542 196C596.124 196 640 152.124 640 98.0004C640 43.8766 596.124 0 542 0C487.877 0 444 43.8766 444 98.0004C444 152.124 487.877 196 542 196Z" fill="url(#paint1_linear_15189_95543)"/>
<path d="M545.47 1080C831.267 1080 975.961 1037.99 975.961 741.063C975.961 435.159 800.749 337.141 545.47 337.141C290.191 337.141 114.979 435.159 114.979 741.063C114.979 1037.99 259.673 1080 545.47 1080Z" fill="url(#paint2_linear_15189_95543)"/>
<path d="M724.272 475.731C604.711 465.678 486.227 465.678 366.667 475.731C319.273 479.681 277.265 522.766 264.699 566.569C245.31 660.279 237.052 749.68 242.438 845.544C249.619 890.066 291.267 933.868 337.584 938.536C476.892 952.18 614.046 952.18 753.713 938.536C797.158 930.637 844.911 892.22 848.86 845.544C854.246 749.68 845.987 660.279 826.599 566.569C816.186 520.253 769.512 482.912 724.272 475.731Z" fill="#072F73"/>
<path fill-rule="evenodd" clip-rule="evenodd" d="M497.565 738.562C497.565 731.934 502.938 726.562 509.565 726.562H581.374C588.001 726.562 593.374 731.934 593.374 738.562C593.374 745.189 588.001 750.562 581.374 750.562H509.565C502.938 750.562 497.565 745.189 497.565 738.562Z" fill="#35DE90"/>
<path fill-rule="evenodd" clip-rule="evenodd" d="M651 665C657.627 665 663 670.373 663 677C663 692.274 675.58 704.854 690.854 704.854C706.128 704.854 718.707 692.274 718.707 677C718.707 670.373 724.08 665 730.707 665C737.335 665 742.707 670.373 742.707 677C742.707 705.529 719.383 728.854 690.854 728.854C662.324 728.854 639 705.529 639 677C639 670.373 644.373 665 651 665Z" fill="#35DE90"/>
<path fill-rule="evenodd" clip-rule="evenodd" d="M364 665C370.627 665 376 670.373 376 677C376 692.274 388.58 704.854 403.854 704.854C419.128 704.854 431.707 692.274 431.707 677C431.707 670.373 437.08 665 443.707 665C450.335 665 455.707 670.373 455.707 677C455.707 705.529 432.383 728.854 403.854 728.854C375.324 728.854 352 705.529 352 677C352 670.373 357.373 665 364 665Z" fill="#35DE90"/>
<path fill-rule="evenodd" clip-rule="evenodd" d="M999.27 312.3C1035.27 282.292 1058.17 237.115 1058.17 186.587C1058.17 96.2405 984.934 23 894.587 23C804.24 23 731 96.2405 731 186.587C731 276.934 804.24 350.174 894.587 350.174C901.883 350.174 909.068 349.697 916.112 348.771V368.785C916.112 378.757 928.168 383.75 935.219 376.699L997.74 314.179C998.334 313.585 998.842 312.955 999.27 312.3Z" fill="#F6F6F6"/>
<path d="M970.602 122.965H936.469C936.469 122.965 936.469 122.401 936.469 122.119C933.297 113.158 927.484 105.368 919.795 99.7782C912.107 94.1882 902.905 91.06 893.402 90.8062C883.798 91.1227 874.521 94.3749 866.821 100.125C859.121 105.874 853.367 113.846 850.336 122.965H815.262C813.392 122.965 811.598 123.708 810.275 125.031C808.953 126.353 808.21 128.147 808.21 130.017C808.21 131.888 808.953 133.682 810.275 135.004C811.598 136.327 813.392 137.07 815.262 137.07H824.101V243.796C824.101 253.081 827.783 261.988 834.341 268.563C840.898 275.138 849.795 278.844 859.081 278.869H926.784C936.069 278.844 944.966 275.138 951.524 268.563C958.081 261.988 961.763 253.081 961.763 243.796V137.07H970.602C972.473 137.07 974.266 136.327 975.589 135.004C976.912 133.682 977.655 131.888 977.655 130.017C977.655 128.147 976.912 126.353 975.589 125.031C974.266 123.708 972.473 122.965 970.602 122.965ZM893.402 104.911C899.238 105.082 904.914 106.857 909.807 110.042C914.701 113.227 918.622 117.698 921.142 122.965H865.757C868.261 117.705 872.165 113.238 877.042 110.053C881.92 106.868 887.58 105.089 893.402 104.911Z" fill="#E60F0F"/>
<path d="M910.515 229.502C912.378 229.478 914.157 228.727 915.475 227.409C916.792 226.092 917.543 224.312 917.567 222.45V179.665C917.567 177.795 916.824 176.001 915.501 174.678C914.179 173.356 912.385 172.613 910.515 172.613C908.644 172.613 906.85 173.356 905.528 174.678C904.205 176.001 903.462 177.795 903.462 179.665V222.45C903.487 224.312 904.238 226.092 905.555 227.409C906.872 228.727 908.652 229.478 910.515 229.502Z" fill="#F6F6F6"/>
<path d="M875.345 229.502C877.208 229.478 878.988 228.727 880.305 227.409C881.622 226.092 882.373 224.312 882.397 222.45V179.665C882.397 177.795 881.654 176.001 880.332 174.678C879.009 173.356 877.215 172.613 875.345 172.613C873.475 172.613 871.681 173.356 870.358 174.678C869.036 176.001 868.293 177.795 868.293 179.665V222.45C868.317 224.312 869.068 226.092 870.385 227.409C871.703 228.727 873.482 229.478 875.345 229.502Z" fill="#F6F6F6"/>
<defs>
<linearGradient id="paint0_linear_15189_95543" x1="511.908" y1="506.593" x2="586.579" y2="255.893" gradientUnits="userSpaceOnUse">
<stop stop-color="#C5D9FB"/>
<stop offset="0.0468921" stop-color="#CEDEFA"/>
<stop offset="0.1687" stop-color="#E0E8F8"/>
<stop offset="0.317" stop-color="#ECF0F6"/>
<stop offset="0.5176" stop-color="#F3F4F5"/>
<stop offset="1" stop-color="#F5F5F5"/>
</linearGradient>
<linearGradient id="paint1_linear_15189_95543" x1="605.981" y1="-9.45768" x2="467.308" y2="223.307" gradientUnits="userSpaceOnUse">
<stop stop-color="#0033FF" stop-opacity="0"/>
<stop offset="1" stop-color="#0033FF" stop-opacity="0.5"/>
</linearGradient>
<linearGradient id="paint2_linear_15189_95543" x1="435.08" y1="1111.58" x2="680.773" y2="286.694" gradientUnits="userSpaceOnUse">
<stop stop-color="#C5D9FB"/>
<stop offset="0.0468921" stop-color="#CEDEFA"/>
<stop offset="0.1687" stop-color="#E0E8F8"/>
<stop offset="0.317" stop-color="#ECF0F6"/>
<stop offset="0.5176" stop-color="#F3F4F5"/>
<stop offset="1" stop-color="#F5F5F5"/>
</linearGradient>
</defs>
</svg>
