<svg xmlns="http://www.w3.org/2000/svg" width="1080" height="1080" viewBox="0 0 1080 1080" fill="none"><path fill="#A3A3A3" d="M1079.11 569.994H.902v37.957H1079.11z"/><path fill="#525252" d="M2.703 581.715a965 965 0 0 1 33.65-2.403c11.233-.615 22.476-1.06 33.735-1.023l4.243.032 4.242.127 2.122.069 2.121.132 2.122.138c.705.048 1.405.08 2.121.175l4.158.509c1.39.207 2.773.409 4.168.594q4.17.531 8.353 1.061c11.137 1.278 22.359 2.206 33.571 2.869s22.438.944 33.655.716c5.611-.122 11.211-.382 16.796-.864a146 146 0 0 0 16.6-2.318l2.047-.429 2.031-.531c1.358-.307 2.652-.747 4.009-1.129s2.599-.907 3.935-1.385l2.01-.726c.669-.239 1.353-.43 2.032-.647a96.5 96.5 0 0 1 16.636-3.469c11.238-1.394 22.577-1.347 33.825-.567 5.627.392 11.233 1.024 16.812 1.84 2.79.409 5.585.865 8.342 1.427s5.516.992 8.29 1.421c5.542.849 11.137 1.528 16.7 1.883 2.8.17 5.574.244 8.395.233l8.401.021 33.729.133 33.735.058 33.73.032 33.735-.037 33.735-.053c5.621 0 11.248.08 16.875.26s11.249.461 16.865 1.018c2.806.271 5.611.637 8.395 1.178.695.148 1.395.275 2.085.45l2.068.584c1.322.382 2.668.671 4.03.864 2.753.419 5.548.658 8.343.854q4.192.294 8.4.43c5.606.201 11.222.244 16.833.217a508 508 0 0 0 16.838-.361c11.217-.456 22.439-1.177 33.518-2.794l2.074-.324 2.063-.366c1.384-.233 2.699-.53 4.126-.801.705-.116 1.405-.27 2.121-.366l2.122-.286c1.405-.202 2.81-.313 4.242-.472 5.622-.53 11.243-.875 16.865-1.167 11.243-.53 22.492-.864 33.74-1.092s22.492-.361 33.74-.441c22.492-.164 44.989-.047 67.481.165q134.908.255 269.847.912v.186l-67.46.366-67.474.249c-44.978.079-89.951.307-134.934.154a4666 4666 0 0 0-67.449-.149q-16.86.08-33.719.35c-11.238.196-22.47.478-33.687.997-5.606.276-11.217.594-16.791 1.114-1.389.154-2.789.26-4.163.456l-2.074.276c-.689.09-1.363.238-2.041.35-1.347.223-2.769.562-4.153.79l-2.121.361-2.122.313c-11.19 1.591-22.444 2.248-33.697 2.651s-22.519.403-33.772-.058a249 249 0 0 1-8.443-.488c-2.817-.207-5.622-.483-8.422-.928a29.4 29.4 0 0 1-4.2-.939l-1.989-.573c-.668-.175-1.358-.302-2.032-.456a94 94 0 0 0-8.289-1.219c-5.574-.589-11.185-.902-16.796-1.119-5.611-.218-11.227-.319-16.848-.366-11.238-.08-22.487-.075-33.73-.091l-33.735-.037-33.73.032-33.735.059-33.729.132-8.433.032c-2.805.032-5.648 0-8.485-.17-5.637-.318-11.243-.954-16.822-1.766q-4.185-.615-8.343-1.368c-2.757-.53-5.515-.965-8.294-1.358-5.553-.774-11.137-1.331-16.722-1.723-11.174-.748-22.428-.759-33.523.641a95 95 0 0 0-16.345 3.437c-.663.212-1.331.398-1.983.636l-1.962.706c-1.31.461-2.652.97-4.02 1.405-1.369.435-2.721.833-4.105 1.14l-2.068.531-2.085.429a146 146 0 0 1-16.79 2.291c-5.622.472-11.259.716-16.892.822-11.269.197-22.534-.148-33.772-.816a545 545 0 0 1-33.623-3.071q-4.19-.498-8.374-1.103a274 274 0 0 1-4.18-.626l-4.152-.53c-.69-.101-1.395-.138-2.09-.186l-2.094-.154-2.122-.148-2.121-.085-4.2-.159-4.211-.058c-11.227-.112-22.47.201-33.698.689a1097 1097 0 0 0-33.597 1.978zM222.898 595.133a66 66 0 0 1 13.201-2.456c4.467-.379 8.951-.522 13.433-.429 8.964.212 17.907.975 26.777 2.285q6.65.955 13.258 2.212l3.299.658.822.175c.265.058.531.106.806.159l1.65.297c2.195.387 4.396.737 6.602 1.06 8.836 1.289 17.714 2.159 26.639 1.994l53.671-.095h26.84l26.835.042 53.676.244c8.952.043 17.915.17 26.851.881 4.479.312 8.935.893 13.344 1.739 1.092.276 2.201.477 3.277.828.53.153 1.093.334 1.591.472l.785.217.817.164q3.284.603 6.613.875c4.444.419 8.91.653 13.375.833 4.466.18 8.937.286 13.407.329a723 723 0 0 0 26.825-.212c8.936-.228 17.872-.621 26.787-1.3 4.455-.344 8.905-.747 13.333-1.288 1.108-.144 2.217-.271 3.32-.441s2.206-.318 3.299-.53 2.19-.398 3.277-.615 2.217-.419 3.325-.626c4.45-.695 8.915-1.061 13.386-1.4l3.352-.244 3.352-.201c2.232-.144 4.47-.244 6.703-.361 8.942-.435 17.889-.716 26.835-.923 17.899-.424 35.793-.61 53.687-.657s35.792 0 53.686.143l53.67.058 53.676.058 53.676.165 53.674.249 53.67.371v.181l-53.67.366-53.685.275-53.675.165-53.681.058h-40.253c-4.471 0-8.958 0-13.423-.064q-26.835-.318-53.665-.328c-17.889 0-35.777.084-53.66.392-8.942.164-17.878.377-26.814.727-2.227.095-4.465.175-6.693.297l-3.346.169-3.347.212c-4.449.308-8.91.626-13.311 1.273-1.093.196-2.169.372-3.278.584s-2.206.435-3.32.599-2.217.345-3.33.493c-1.114.149-2.222.281-3.336.414-4.455.53-8.921.88-13.386 1.188s-8.936.53-13.407.716a716 716 0 0 1-13.418.445q-13.417.307-26.851.133c-8.946-.154-17.899-.313-26.83-1.093-2.232-.196-4.465-.445-6.687-.859l-.833-.17-.827-.222c-.562-.149-1.061-.308-1.591-.467-1.061-.339-2.153-.53-3.23-.801a108 108 0 0 0-13.258-1.665c-8.905-.615-17.852-.658-26.793-.61l-53.676.244-26.835.042H383.05l-53.67-.1c-8.984.148-17.968-.833-26.814-2.207-2.217-.35-4.428-.721-6.629-1.129l-1.655-.318c-.27-.053-.53-.101-.838-.17l-.816-.18-3.273-.685q-6.56-1.32-13.189-2.322a280 280 0 0 0-13.291-1.692c-4.438-.467-8.899-.78-13.359-.918-4.463-.158-8.931-.08-13.386.234a67 67 0 0 0-13.179 2.211zM.897 603.517c7.7-.96 15.423-1.628 23.155-2.222s15.48-.992 23.234-1.151c3.877-.074 7.759-.053 11.668-.048 3.908.006 7.753.101 11.63.196 1.941 0 3.877.117 5.834.17.97.032 1.935.048 2.906.101l2.906.175c.97.069 1.941.09 2.906.191l2.907.292c1.951.169 3.845.466 5.77.668 15.38 1.543 30.86 2.408 46.32 2.959l5.796.207c1.936.048 3.867.09 5.802.154 1.936.063 3.866.074 5.802.111a351 351 0 0 0 5.802.048c7.732.032 15.47-.085 23.213-.472v.18c-7.695.981-15.454 1.453-23.213 1.703-7.759.249-15.523.243-23.282 0-7.759-.244-15.507-.722-23.239-1.337s-15.46-1.427-23.144-2.567c-1.915-.27-3.84-.642-5.75-.875l-2.863-.392c-.955-.122-1.925-.165-2.885-.25l-2.896-.222c-.96-.059-1.93-.08-2.895-.117-1.936-.074-3.867-.138-5.802-.133-1.936.006-3.872 0-5.834.038l-5.834.18c-3.866.17-7.732.329-11.598.53-15.465.679-30.935 1.427-46.426 2.047z"/><path fill="#525252" d="M265.699 583.529a91.5 91.5 0 0 1 12.728.689 134 134 0 0 1 12.601 2.122l3.103.684q1.59.286 3.134.53c2.095.35 4.19.679 6.295.971 4.2.583 8.417 1.087 12.643 1.421 1.061.085 2.122.164 3.183.217s2.121.112 3.182.143c2.121.08 4.242.064 6.364.054l12.728-.064 25.504-.096 51.013-.1h25.504l25.504.037 25.51.116c8.527-.033 17.047.522 25.498 1.66q6.364.818 12.622 1.994c4.19.796 8.353 1.703 12.464 2.87 1.028.275 2.047.61 3.065.933.53.164.997.292 1.501.435s1.023.233 1.543.329c2.068.392 4.179.626 6.285.843 4.242.408 8.485.642 12.728.806a425 425 0 0 0 25.456.17c8.485-.191 16.971-.589 25.456-1.268 4.243-.339 8.486-.758 12.665-1.31 2.121-.281 4.205-.588 6.29-.965l1.591-.281 1.554-.318c1.028-.218 2.121-.403 3.144-.605 8.438-1.347 16.929-1.93 25.414-2.545 8.486-.616 16.971-1.061 25.457-1.469 8.485-.409 16.971-.764 25.493-1.061a3551 3551 0 0 1 50.998-1.501l25.504-.53c8.485-.154 17.013-.334 25.514-.303h51.014l51.013.064 51.008.164 51.018.25 51.01.366v.18l-51.01.366-51.013.249-51.008.165-51.013.063h-51.008c-8.486-.069-16.971.08-25.494.207l-25.498.44c-16.998.345-33.995.727-50.987 1.236s-33.984 1.087-50.95 2.089c-8.485.531-16.971 1.061-25.35 2.323-1.061.191-2.069.366-3.119.578l-1.591.308-1.591.27c-2.121.361-4.21.648-6.321.918-4.243.53-8.486.949-12.728 1.278-8.486.652-16.971 1.024-25.489 1.188-8.517.164-17.018.191-25.519-.101-4.243-.148-8.486-.366-12.729-.758-2.121-.207-4.242-.43-6.364-.822-.53-.101-1.06-.223-1.591-.329s-1.06-.292-1.559-.451a66 66 0 0 0-3.039-.901c-4.083-1.109-8.241-1.973-12.415-2.721a215 215 0 0 0-12.59-1.851 184 184 0 0 0-25.377-1.395l-25.509.117-25.504.037h-25.436l-51.013-.101-25.504-.095-12.728-.058c-2.121 0-4.243 0-6.396-.112a89 89 0 0 1-3.182-.18c-1.061-.085-2.121-.154-3.182-.249a183 183 0 0 1-12.686-1.591 244 244 0 0 1-6.295-1.061 120 120 0 0 1-3.14-.599l-3.15-.722a145 145 0 0 0-12.521-2.28 94 94 0 0 0-12.702-.902zM.895 592.613c8.962-1.06 17.957-1.803 26.962-2.439q6.757-.452 13.513-.759c2.254-.122 4.513-.18 6.767-.254s4.513-.106 6.773-.133c9.015-.053 18.068.143 27.079.812l1.686.122c.568.031 1.13.079 1.692.159l3.368.403c1.13.116 2.232.307 3.346.456 1.114.148 2.233.286 3.357.403 4.471.53 8.968.859 13.46 1.188a818 818 0 0 0 26.989 1.336c9.016.308 18.005.387 27.005.318 9-.068 17.995-.35 26.941-1.182 4.466-.44 8.937-.96 13.338-1.83 4.402-.87 8.778-1.978 12.787-4.036l.09.154-1.485.833c-.244.132-.493.281-.742.408l-.78.345-1.554.689c-.53.212-1.061.387-1.591.584s-1.061.403-1.591.567l-1.628.488c-1.061.345-2.19.594-3.293.864a126 126 0 0 1-13.376 2.339c-4.497.531-9.015.907-13.518 1.199-4.503.291-9.016.403-13.555.53-4.54.127-9.016.053-13.551-.058a551 551 0 0 1-13.544-.488 521 521 0 0 1-13.519-.827 495 495 0 0 1-13.486-1.22 584 584 0 0 1-13.45-1.565l-3.357-.451c-1.119-.148-2.238-.35-3.352-.472l-3.346-.397a21 21 0 0 0-1.681-.143l-1.681-.107c-1.125-.069-2.244-.143-3.368-.185l-3.378-.069c-2.249-.058-4.503 0-6.757 0s-4.503.074-6.751.138l-3.378.095-3.373.133c-18.005.573-36.005 1.453-54.031 2.259z"/><path fill="#E0E0E0" d="M1028.5 551.019H50.61L0 569.995h1079.11z"/><path fill="#A3A3A3" d="M1079.11 893.55H.902v37.956H1079.11z"/><path fill="#525252" d="M2.705 905.264q16.802-1.485 33.65-2.397c11.233-.615 22.476-1.061 33.735-1.024l4.243.027 4.243.133 2.121.063 2.121.138 2.122.138c.705.048 1.405.074 2.121.175l4.216.488c1.39.207 2.774.403 4.169.594l8.353 1.061c11.137 1.278 22.359 2.206 33.57 2.863 11.212.658 22.439.95 33.656.716 5.611-.116 11.211-.376 16.795-.864a146 146 0 0 0 16.6-2.312l2.047-.43 2.031-.504c1.358-.307 2.652-.748 4.01-1.135s2.598-.907 3.935-1.379l2.01-.726c.668-.244 1.352-.43 2.031-.647a97 97 0 0 1 16.626-3.458c11.238-1.389 22.577-1.347 33.825-.567a228 228 0 0 1 16.812 1.84c2.79.413 5.585.87 8.342 1.426 2.758.557 5.516.997 8.29 1.427 5.542.849 11.137 1.522 16.7 1.877 2.8.175 5.574.25 8.395.239l8.433.032 33.729.133 33.735.058 33.73.032 33.735-.037 33.735-.053c5.621 0 11.248.079 16.875.259 5.627.181 11.249.462 16.865 1.019 2.805.27 5.611.631 8.395 1.177.695.149 1.395.276 2.084.445l2.069.584c1.321.384 2.668.674 4.03.87 2.753.413 5.548.652 8.343.853 2.794.202 5.595.335 8.4.425 5.606.207 11.222.249 16.833.222a495 495 0 0 0 16.838-.365c11.217-.451 22.439-1.178 33.518-2.795l2.074-.319 2.063-.366c1.384-.238 2.699-.556 4.126-.8.705-.122 1.405-.276 2.121-.372l2.121-.281c1.406-.206 2.811-.312 4.243-.477 5.622-.53 11.243-.87 16.865-1.161 11.243-.531 22.492-.865 33.74-1.093s22.492-.361 33.74-.445c22.492-.159 44.989-.043 67.481.169q134.907.255 269.845.913v.18l-67.46.366-67.472.249c-44.978.085-89.951.308-134.934.154q-33.725-.318-67.449-.143-16.86.068-33.719.35c-11.238.196-22.471.477-33.687.997-5.606.276-11.217.588-16.791 1.113-1.389.154-2.789.26-4.163.457l-2.074.275c-.689.09-1.363.234-2.041.35-1.348.223-2.769.531-4.153.791l-2.121.355-2.122.318c-11.19 1.591-22.444 2.249-33.697 2.652s-22.519.408-33.773-.053a239 239 0 0 1-8.443-.493c-2.816-.213-5.621-.478-8.421-.923a31 31 0 0 1-4.201-.939l-1.988-.578c-.669-.17-1.358-.297-2.032-.451a96 96 0 0 0-8.289-1.225c-5.574-.583-11.185-.896-16.796-1.119s-11.227-.313-16.849-.366c-11.238-.074-22.486-.074-33.729-.085l-33.735-.042-33.73.037-33.735.058-33.809.101-8.432.032c-2.806.032-5.648 0-8.486-.175-5.637-.313-11.243-.949-16.822-1.766-2.79-.408-5.569-.854-8.342-1.368a185 185 0 0 0-8.295-1.353c-5.553-.774-11.137-1.331-16.721-1.723-11.175-.748-22.429-.764-33.523.641a95 95 0 0 0-16.345 3.432c-.663.217-1.331.403-1.984.641l-1.962.706c-1.31.461-2.652.97-4.02 1.4s-2.721.838-4.105 1.145l-2.068.531-2.084.429a147 147 0 0 1-16.791 2.291c-5.622.472-11.259.716-16.891.817-11.27.202-22.534-.148-33.772-.817a545 545 0 0 1-33.624-3.065 843 843 0 0 1-8.374-1.103 287 287 0 0 1-4.179-.626l-4.153-.53c-.689-.101-1.394-.133-2.09-.186l-2.094-.148-2.121-.154-2.122-.08-4.2-.159-4.21-.058c-11.228-.117-22.471.201-33.699.689a1191 1191 0 0 0-33.666 1.962zM222.898 918.688a66.4 66.4 0 0 1 13.201-2.461c4.467-.377 8.951-.519 13.433-.424 8.963.21 17.903.973 26.772 2.286 4.433.636 8.856 1.363 13.258 2.206l3.299.663.822.175c.265.058.53.101.806.154l1.649.297q3.294.583 6.603 1.06c8.836 1.294 17.713 2.159 26.639 2l53.67-.101h26.841l26.835.042 53.676.244c8.952.043 17.915.17 26.851.875 4.478.317 8.934.9 13.343 1.745 1.093.271 2.201.472 3.278.827.53.154 1.092.329 1.591.472l.785.218.816.164c2.17.414 4.392.674 6.614.875 4.444.414 8.91.653 13.375.833s8.936.281 13.407.329q13.412.143 26.825-.212c8.936-.228 17.872-.621 26.787-1.3 4.455-.344 8.904-.747 13.333-1.294 1.108-.138 2.217-.27 3.32-.44s2.206-.318 3.298-.53 2.191-.393 3.278-.615c1.087-.223 2.217-.414 3.325-.621 4.45-.695 8.915-1.061 13.386-1.405l3.352-.239 3.351-.202c2.233-.143 4.471-.243 6.704-.36 8.941-.44 17.888-.716 26.835-.928 17.899-.419 35.793-.605 53.686-.658s35.793 0 53.687.143l53.67.064 53.676.058 53.675.165 53.67.249 53.68.366v.18l-53.68.366-53.675.255-53.675.159-53.681.063h-40.253c-4.471 0-8.958 0-13.423-.068a4753 4753 0 0 0-53.665-.324c-17.889 0-35.777.08-53.66.392-8.942.165-17.878.377-26.814.722-2.227.095-4.465.175-6.693.297l-3.346.175-3.347.207c-4.449.312-8.91.631-13.311 1.272-1.093.197-2.169.377-3.278.589s-2.206.43-3.32.599c-1.113.17-2.217.34-3.33.488a223 223 0 0 1-3.336.419c-4.455.531-8.921.881-13.386 1.188-4.465.308-8.936.531-13.407.716a723.84 723.84 0 0 1-40.269.578c-8.946-.154-17.899-.318-26.83-1.098-2.232-.19-4.465-.445-6.687-.859l-.833-.164-.827-.223c-.562-.154-1.061-.313-1.591-.467-1.061-.339-2.153-.53-3.23-.8a108 108 0 0 0-13.258-1.666c-8.905-.62-17.852-.657-26.793-.61l-53.676.244-26.835.043H383.05l-53.67-.096c-8.984.149-17.968-.832-26.814-2.206a292 292 0 0 1-6.629-1.135l-1.655-.313c-.27-.053-.53-.106-.838-.169l-.816-.181-3.273-.689a286 286 0 0 0-13.189-2.318 282 282 0 0 0-13.291-1.692 185 185 0 0 0-13.359-.917 127 127 0 0 0-13.386.233 67 67 0 0 0-13.179 2.212z"/><path fill="#666" d="M.897 927.067c7.7-.955 15.423-1.628 23.155-2.217s15.48-.997 23.234-1.151c3.877-.079 7.759-.058 11.668-.053s7.753.106 11.63.202c1.941 0 3.877.116 5.834.169.97.032 1.935.048 2.906.101l2.906.175c.97.064 1.941.085 2.906.191l2.907.292c1.951.17 3.845.467 5.77.663 15.38 1.543 30.86 2.407 46.32 2.964l5.796.207c1.936.043 3.867.085 5.802.154 1.936.069 3.866.074 5.802.111s3.866.043 5.802.043c7.732.037 15.47-.08 23.213-.467v.18c-7.695.982-15.454 1.448-23.213 1.703-7.759.254-15.523.244-23.282 0s-15.507-.721-23.239-1.337c-7.733-.615-15.46-1.426-23.144-2.572-1.915-.265-3.84-.641-5.75-.875l-2.863-.392c-.955-.122-1.925-.165-2.885-.25l-2.896-.217c-.96-.058-1.93-.08-2.895-.122-1.936-.069-3.867-.138-5.802-.127-1.936.01-3.872 0-5.834.037l-5.834.18c-3.866.165-7.732.329-11.598.531-15.465.678-30.935 1.431-46.426 2.047z"/><path fill="#525252" d="M265.699 907.083a90.5 90.5 0 0 1 12.728.69q6.364.763 12.601 2.121l3.103.684c1.06.196 2.089.377 3.134.531q3.14.53 6.295.965c4.2.588 8.417 1.092 12.643 1.421q1.591.138 3.183.223c1.06.069 2.121.106 3.182.143 2.121.074 4.242.058 6.364.048l12.728-.059 25.504-.095 51.013-.101h25.504l25.504.043 25.51.116c8.527-.036 17.047.519 25.498 1.66a219 219 0 0 1 12.622 1.994c4.19.791 8.353 1.703 12.464 2.864 1.028.281 2.047.61 3.065.934.53.169.997.297 1.501.44s1.023.233 1.543.329c2.068.392 4.179.625 6.285.838 4.242.408 8.485.647 12.728.811q12.728.462 25.456.17c8.485-.191 16.971-.589 25.456-1.268 4.243-.345 8.486-.758 12.665-1.31 2.121-.286 4.205-.594 6.29-.965l1.591-.281 1.554-.318c1.028-.218 2.121-.409 3.144-.61 8.438-1.342 16.929-1.931 25.414-2.546s16.971-1.061 25.457-1.464c8.485-.403 16.971-.769 25.493-1.06a3767 3767 0 0 1 50.998-1.501l25.504-.53c8.485-.16 17.013-.34 25.514-.303h51.014l51.013.059 51.008.164 51.018.249 51.01.371v.181l-51.01.366-51.013.249-51.008.164-51.013.059h-51.008c-8.486-.064-16.971.085-25.494.207l-25.498.445q-25.499.531-50.987 1.23c-16.971.531-33.984 1.093-50.95 2.122-8.485.53-16.971 1.06-25.35 2.323-1.061.191-2.069.36-3.119.578l-1.591.307-1.591.266c-2.121.36-4.21.652-6.321.922a279 279 0 0 1-12.728 1.278c-8.486.653-16.971 1.024-25.489 1.188-8.517.165-17.018.191-25.519-.1-4.243-.149-8.486-.366-12.729-.759-2.121-.212-4.242-.435-6.364-.822-.53-.101-1.06-.223-1.591-.334s-1.06-.286-1.559-.445c-1.008-.319-2.015-.637-3.039-.902-4.083-1.114-8.241-1.973-12.415-2.721a220 220 0 0 0-12.59-1.856 185 185 0 0 0-25.377-1.395l-25.509.117-25.504.043h-25.436l-51.013-.101-25.504-.096-12.728-.063c-2.121 0-4.243 0-6.396-.112a89 89 0 0 1-3.182-.175c-1.061-.079-2.121-.154-3.182-.249a183 183 0 0 1-12.686-1.591q-3.15-.493-6.295-1.061-1.591-.286-3.14-.599l-3.107-.737a148 148 0 0 0-12.522-2.275 92 92 0 0 0-12.691-.928z"/><path fill="#666" d="M.895 916.169c8.962-1.061 17.957-1.803 26.962-2.44q6.757-.456 13.513-.758c2.254-.122 4.513-.18 6.767-.255 2.254-.074 4.513-.106 6.773-.132 9.015-.053 18.068.143 27.079.806l1.686.122c.568.037 1.13.079 1.692.159l3.368.408c1.13.117 2.232.308 3.346.451s2.233.292 3.357.408c4.471.531 8.968.854 13.46 1.183a851 851 0 0 0 26.989 1.342c9 .313 18.005.387 27.005.318s17.995-.35 26.941-1.183c4.466-.445 8.937-.96 13.338-1.829 4.402-.87 8.778-1.984 12.787-4.041l.09.159-1.485.827c-.244.138-.493.281-.742.414l-.78.344-1.554.69c-.53.207-1.061.387-1.591.583s-1.061.398-1.591.562l-1.628.488c-1.061.35-2.19.6-3.293.865a125 125 0 0 1-13.376 2.344c-4.497.53-9.015.901-13.518 1.198s-9.016.403-13.555.531c-4.54.127-9.016.047-13.551-.064-4.534-.111-9.015-.26-13.544-.483-4.53-.222-9.016-.487-13.519-.832a491 491 0 0 1-13.486-1.22 619 619 0 0 1-13.45-1.559l-3.357-.451c-1.119-.154-2.238-.355-3.352-.477l-3.346-.393a22 22 0 0 0-1.681-.143L81.968 914c-1.125-.069-2.244-.138-3.368-.181l-3.378-.074c-2.249-.053-4.503 0-6.757 0s-4.503.069-6.751.133l-3.378.095-3.373.133c-18.005.578-36.005 1.453-54.031 2.264z"/><path fill="#E0E0E0" d="M1028.5 874.568H50.61L0 893.549h1079.1100000000001zM1027.92 561.748a5.45 5.45 0 0 1-3.84-1.591 5.45 5.45 0 0 1-1.58-3.835V154.256a5.4 5.4 0 0 1 1.64-3.726 5.45 5.45 0 0 1 3.78-1.53c1.41 0 2.76.549 3.77 1.53a5.38 5.38 0 0 1 1.65 3.726v402.066c0 1.439-.57 2.819-1.59 3.837a5.4 5.4 0 0 1-3.83 1.589"/><path fill="#E0E0E0" d="M1022.49 607.956V879.49c-.02.726.11 1.45.37 2.128a5.5 5.5 0 0 0 1.16 1.818c.51.521 1.11.936 1.78 1.22s1.39.429 2.12.429a5.43 5.43 0 0 0 5.06-3.467c.26-.678.38-1.402.36-2.128V607.956zM61.108 561.748a5.43 5.43 0 0 1-5.42-5.426V154.256a5.425 5.425 0 0 1 10.845 0v402.066a5.43 5.43 0 0 1-5.425 5.426M55.686 607.956V879.49a5.43 5.43 0 0 0 3.308 5.166 5.43 5.43 0 0 0 6.01-1.22 5.43 5.43 0 0 0 1.528-3.946V607.956z"/><path fill="#191919" d="M870.94 891.316c65.003 0 117.699-3.687 117.699-8.236s-52.696-8.236-117.699-8.236-117.698 3.687-117.698 8.236 52.695 8.236 117.698 8.236" opacity=".1"/><path fill="#F06305" d="m307.686 541.472-15.948-102.52c-2.938-14.972-22.608-26.167-40.682-26.167h-82.558c-18.074 0-37.739 11.195-40.682 26.167l-15.948 102.52a7.68 7.68 0 0 0 7.531 9.153h180.756a7.68 7.68 0 0 0 5.925-2.8 7.68 7.68 0 0 0 1.606-6.353"/><path fill="#072F73" d="M251.527 449.24h-83.502c-10.799 0-19.554 8.755-19.554 19.554v25.828c0 10.799 8.755 19.553 19.554 19.553h83.502c10.799 0 19.553-8.754 19.553-19.553v-25.828c0-10.799-8.754-19.554-19.553-19.554"/><path fill="#E0E0E0" d="M119.202 399.277h-10.846v60.316h10.846z"/><path fill="#F06305" d="M113.777 410.016c9.393 0 17.008-7.615 17.008-17.008S123.17 376 113.777 376s-17.008 7.615-17.008 17.008 7.615 17.008 17.008 17.008"/><path fill="#454545" d="m115.978 515.039 9.318-59.886H112.09A16.09 16.09 0 0 0 96 471.244v27.705a16.09 16.09 0 0 0 16.09 16.09z"/><path fill="#E0E0E0" d="M310.719 399.277h-10.846v60.316h10.846z"/><path fill="#F06305" d="M305.293 410.016c9.393 0 17.008-7.615 17.008-17.008S314.686 376 305.293 376s-17.008 7.615-17.008 17.008 7.615 17.008 17.008 17.008"/><path fill="#454545" d="m303.092 515.039-9.313-59.886h13.216a16.09 16.09 0 0 1 16.091 16.091v27.705a16.087 16.087 0 0 1-16.091 16.09z"/><path fill="#EDEDED" d="M192.363 495.04h-.159a3.6 3.6 0 0 1-2.779-1.511l-6.56-9.181-6.02 6.02a3.619 3.619 0 0 1-6.091-2.58 3.62 3.62 0 0 1 .979-2.533l9.016-9.015a3.602 3.602 0 0 1 2.855-1.046 3.62 3.62 0 0 1 2.644 1.502l6.364 8.899 7.844-9.154a3.62 3.62 0 0 1 2.742-1.257h7.234a3.61 3.61 0 0 1 3.134 1.819l4.094 7.16 4.089-7.16a3.63 3.63 0 0 1 3.14-1.819h19.882a3.63 3.63 0 0 1 2.647 1.008 3.63 3.63 0 0 1 1.109 2.606 3.62 3.62 0 0 1-2.33 3.38c-.454.174-.94.253-1.426.235h-17.782l-6.189 10.829a3.613 3.613 0 0 1-4.956 1.337 3.6 3.6 0 0 1-1.323-1.337l-6.168-10.856h-3.469l-9.79 11.392a3.62 3.62 0 0 1-2.731 1.262"/><path fill="#191919" d="M553.881 891.316c70.996 0 128.549-3.687 128.549-8.236s-57.553-8.236-128.549-8.236-128.549 3.687-128.549 8.236 57.553 8.236 128.549 8.236M233.44 891.316c65.003 0 117.699-3.687 117.699-8.236s-52.696-8.236-117.699-8.236c-65.002 0-117.698 3.687-117.698 8.236s52.696 8.236 117.698 8.236M870.94 566.484c65.003 0 117.699-3.688 117.699-8.237s-52.696-8.236-117.699-8.236-117.698 3.688-117.698 8.236c0 4.549 52.695 8.237 117.698 8.237" opacity=".1"/><path fill="#87DDE8" d="M833.7 496.026c5.934 0 10.745-4.811 10.745-10.745s-4.811-10.745-10.745-10.745-10.744 4.811-10.744 10.745 4.81 10.745 10.744 10.745M911.624 496.026c5.934 0 10.744-4.811 10.744-10.745s-4.81-10.745-10.744-10.745-10.745 4.811-10.745 10.745 4.81 10.745 10.745 10.745"/><path fill="#EDEDED" d="M878.086 386.277H867.24v36.154h10.846z"/><path fill="#35DE90" d="M872.659 397.016c9.393 0 17.008-7.615 17.008-17.008S882.052 363 872.659 363s-17.008 7.615-17.008 17.008 7.615 17.008 17.008 17.008"/><path fill="#F5F5F5" d="M812.89 419.137h119.544a38.83 38.83 0 0 1 27.469 11.374 38.834 38.834 0 0 1 11.379 27.468l-7.303 62.166a46.453 46.453 0 0 1-46.14 41.027h-90.327a46.445 46.445 0 0 1-46.14-41.027l-7.329-62.166a38.847 38.847 0 0 1 38.847-38.842"/><path fill="#072F73" d="M828.801 438.217h87.883c3.75 0 7.463.735 10.928 2.164a28.6 28.6 0 0 1 9.265 6.165 28.4 28.4 0 0 1 6.191 9.227 28.4 28.4 0 0 1 2.174 10.885l-5.368 45.519a33.98 33.98 0 0 1-11.224 21.445 34.23 34.23 0 0 1-22.696 8.595H839.55a34.22 34.22 0 0 1-22.697-8.594 33.97 33.97 0 0 1-11.223-21.446l-5.388-45.519a28.4 28.4 0 0 1 8.366-20.111 28.62 28.62 0 0 1 20.193-8.33"/><path fill="#EDEDED" d="M872.658 500.764c-12.489 0-24.167-4.423-32.027-12.134a5.427 5.427 0 0 1 .042-7.555 5.43 5.43 0 0 1 7.553-.188c5.833 5.744 14.759 9.016 24.432 9.016 9.674 0 18.562-3.288 24.438-9.016a5.43 5.43 0 0 1 6.002-1.252 5.41 5.41 0 0 1 2.961 3.019 5.419 5.419 0 0 1-1.368 5.976c-7.865 7.711-19.538 12.134-32.033 12.134"/><path fill="#35DE90" d="m781.372 520.145-6.486-55.155a28.17 28.17 0 0 0-19.517 31.47l1.973 12.028a28.186 28.186 0 0 0 27.047 23.611 46.6 46.6 0 0 1-3.017-11.954M964.006 520.145l6.486-55.155a28.17 28.17 0 0 1 19.516 31.47l-1.967 12.028a28.2 28.2 0 0 1-27.08 23.569 46.6 46.6 0 0 0 3.045-11.912"/><path fill="#B2DFFD" d="M266.152 734.547H147.356a37.16 37.16 0 0 0-37.161 37.161l12.781 81.471a23.99 23.99 0 0 0 23.457 18.975h120.642a23.98 23.98 0 0 0 15.086-5.337 23.98 23.98 0 0 0 8.371-13.638l12.781-81.471a37.16 37.16 0 0 0-37.161-37.161"/><path fill="#1F1F1F" d="M183.5 811a9.5 9.5 0 0 0 9.5-9.5 9.5 9.5 0 0 0-9.5-9.5 9.5 9.5 0 0 0-9.5 9.5 9.5 9.5 0 0 0 9.5 9.5M230 811c4.971 0 9-4.253 9-9.5s-4.029-9.5-9-9.5-9 4.253-9 9.5 4.029 9.5 9 9.5"/><path fill="#072F73" d="M111.253 778.454a18.91 18.91 0 0 0-18.939 22.343l4.174 22.471a18.89 18.89 0 0 0 22.025 15.125q1.046-.21 2.063-.53zM302.312 778.454a19 19 0 0 1 3.813.318 18.89 18.89 0 0 1 15.12 22.025l-4.174 22.471a18.894 18.894 0 0 1-22.025 15.125 20 20 0 0 1-2.058-.53z"/><path fill="#1967F1" d="M151.259 734.547h12.914a6.2 6.2 0 0 0-.249-1.856l-12.596-41.048a6.3 6.3 0 0 0-1.137-2.241 6.322 6.322 0 0 0-9.026-.924 6.33 6.33 0 0 0-1.929 6.877z"/><rect width="124" height="54" x="145" y="778" fill="#fff" rx="7"/><path fill="#1967F1" d="m262.247 734.547 12.028-39.192a6.3 6.3 0 0 0 .256-2.46 6.34 6.34 0 0 0-2.267-4.287 6.34 6.34 0 0 0-4.637-1.423 6.33 6.33 0 0 0-5.449 4.457l-12.596 41.049a6.2 6.2 0 0 0-.249 1.856z"/><path fill="#FB4BC1" d="M231 813c6.627 0 12-5.373 12-12s-5.373-12-12-12-12 5.373-12 12 5.373 12 12 12"/><path fill="#072F73" fill-rule="evenodd" d="M200.764 810.267a2.36 2.36 0 0 1 2.358 2.358 4.542 4.542 0 1 0 9.085 0 2.358 2.358 0 0 1 4.716 0 9.258 9.258 0 1 1-18.517 0 2.36 2.36 0 0 1 2.358-2.358" clip-rule="evenodd"/><path fill="#FB4BC1" d="M184 813c6.627 0 12-5.373 12-12s-5.373-12-12-12-12 5.373-12 12 5.373 12 12 12"/><path fill="#191919" d="M553.881 566.484c70.996 0 128.549-3.688 128.549-8.237s-57.553-8.236-128.549-8.236-128.549 3.688-128.549 8.236c0 4.549 57.553 8.237 128.549 8.237M233.44 566.484c65.003 0 117.699-3.688 117.699-8.237s-52.696-8.236-117.699-8.236c-65.002 0-117.698 3.688-117.698 8.236 0 4.549 52.696 8.237 117.698 8.237" opacity=".1"/><path fill="#072F73" fill-rule="evenodd" d="M553.715 333.178a7.016 7.016 0 0 1 7.015 7.016v88.161a7.015 7.015 0 0 1-7.015 7.015 7.015 7.015 0 0 1-7.016-7.015v-88.161a7.016 7.016 0 0 1 7.016-7.016" clip-rule="evenodd"/><path fill="url(#a)" d="M553.716 431.905c19.394 0 29.195-2.853 29.195-23s-11.885-27.392-29.195-27.392-29.195 6.652-29.195 27.392 9.802 23 29.195 23"/><path fill="url(#b)" d="M474.514 514.305c26.983.977 40.759-2.501 41.777-30.533 1.05-28.859-15.154-38.716-39.236-39.589-24.082-.874-40.952 7.781-42.001 36.639-1.018 28.033 12.477 32.497 39.46 33.475z"/><path fill="url(#c)" d="M633.993 514.168c-26.983.978-40.759-2.5-41.776-30.533-1.05-28.858 15.154-38.716 39.236-39.589 24.082-.874 40.951 7.781 42.001 36.64 1.018 28.032-12.478 32.496-39.461 33.474z"/><path fill="url(#d)" d="M553.715 562.051c63.807 0 96.055-9.392 96.055-75.675 0-66.284-39.108-90.133-96.055-90.133s-96.055 21.878-96.055 90.133 32.248 75.675 96.055 75.675"/><path fill="url(#e)" d="M593.625 427.145a474 474 0 0 0-79.811 0c-10.594.913-19.922 10.53-22.751 20.275-4.312 20.949-6.171 40.903-4.985 62.269 1.587 9.913 10.915 19.69 21.213 20.78 31.102 3.077 61.747 3.085 92.858 0 9.656-1.723 20.363-10.314 21.213-20.78 1.186-21.366-.674-41.328-4.985-62.269-2.244-10.338-12.662-18.696-22.752-20.275"/><path fill="#072F73" d="M515.273 491.369c6.749 0 12.221-5.472 12.221-12.222s-5.472-12.221-12.221-12.221c-6.75 0-12.222 5.472-12.222 12.221 0 6.75 5.472 12.222 12.222 12.222M592.158 491.369c6.749 0 12.221-5.472 12.221-12.221 0-6.75-5.472-12.222-12.221-12.222-6.75 0-12.221 5.472-12.221 12.222s5.471 12.221 12.221 12.221"/><path fill="#072F73" fill-rule="evenodd" d="M544.827 476.11a3.037 3.037 0 0 1 3.037 3.037 5.85 5.85 0 1 0 11.701 0 3.037 3.037 0 0 1 6.074 0c0 6.592-5.344 11.925-11.924 11.925-6.582 0-11.925-5.343-11.925-11.925a3.037 3.037 0 0 1 3.037-3.037" clip-rule="evenodd"/><path fill="url(#f)" d="M553.717 364.724c12.074 0 21.862-9.788 21.862-21.862S565.791 321 553.717 321c-12.075 0-21.863 9.788-21.863 21.862s9.788 21.862 21.863 21.862"/><path fill="#072F73" fill-rule="evenodd" d="M526.427 819.939c0-5.398 4.376-9.774 9.774-9.774h122.831c5.398 0 9.774 4.376 9.774 9.774s-4.376 9.774-9.774 9.774H536.201c-5.398 0-9.774-4.376-9.774-9.774" clip-rule="evenodd"/><path fill="url(#g)" d="M654.185 794.857h10.656c4.735 0 8.615 3.914 8.615 8.692v33.739c0 4.778-3.88 8.692-8.615 8.692h-10.656c-4.735 0-8.615-3.914-8.615-8.692v-33.739c0-4.829 3.829-8.692 8.615-8.692"/><path fill="#072F73" fill-rule="evenodd" d="M534.029 820.897c0 5.399-4.376 9.775-9.774 9.775H401.423c-5.398 0-9.774-4.377-9.774-9.775s4.376-9.774 9.774-9.774h122.832c5.398 0 9.774 4.376 9.774 9.774" clip-rule="evenodd"/><path fill="#C5D9FB" d="M604.197 881.744H453.828c-12.465 0-22.675-10.21-22.675-22.674v-76.395c0-12.465 10.21-22.675 22.675-22.675h150.369c12.464 0 22.674 10.21 22.674 22.675v76.395a22.58 22.58 0 0 1-22.674 22.674"/><path fill="#072F73" d="M595.665 864.57H461.836c-9.842 0-17.903-8.095-17.903-17.977v-54.674c0-9.881 8.061-17.976 17.903-17.976h133.829c9.842 0 17.903 8.095 17.903 17.976v54.674c0 9.987-7.956 17.977-17.903 17.977"/><path fill="#fff" d="M502.559 836.117c9.697 0 17.558-7.861 17.558-17.558 0-9.698-7.861-17.559-17.558-17.559-9.698 0-17.559 7.861-17.559 17.559 0 9.697 7.861 17.558 17.559 17.558M559.005 834.01c7.735 0 14.005-6.27 14.005-14.005S566.74 806 559.005 806 545 812.27 545 820.005s6.27 14.005 14.005 14.005"/><path fill="url(#h)" d="M406.27 794.857h-10.655c-4.736 0-8.615 3.914-8.615 8.692v33.739c0 4.778 3.879 8.692 8.615 8.692h10.655c4.736 0 8.615-3.914 8.615-8.692v-33.739c0-4.829-3.829-8.692-8.615-8.692"/><path fill="#072F73" fill-rule="evenodd" d="M859.451 692.992a7.63 7.63 0 0 1 7.633 7.633v95.928a7.633 7.633 0 1 1-15.267 0v-95.928a7.633 7.633 0 0 1 7.634-7.633" clip-rule="evenodd"/><path fill="#FBCF23" d="M859.583 719.667c8.77 0 15.88-7.313 15.88-16.334 0-9.02-7.11-16.333-15.88-16.333s-15.879 7.313-15.879 16.333c0 9.021 7.109 16.334 15.879 16.334"/><ellipse cx="767" cy="824.5" fill="url(#i)" rx="32" ry="32.5"/><ellipse cx="32" cy="32.5" fill="url(#j)" rx="32" ry="32.5" transform="matrix(-1 0 0 1 985 792)"/><rect width="194.185" height="128.852" x="762.944" y="754.148" fill="#FBCF23" rx="29"/><rect width="150.63" height="88.019" x="784.722" y="774.111" fill="#072F73" rx="15"/><path fill="#E0E0E0" d="M817.983 830.651c7.344 0 13.297-5.953 13.297-13.298s-5.953-13.297-13.297-13.297-13.298 5.953-13.298 13.297 5.953 13.298 13.298 13.298M901.641 830.651c7.344 0 13.298-5.953 13.298-13.298s-5.954-13.297-13.298-13.297-13.298 5.953-13.298 13.297 5.954 13.298 13.298 13.298"/><path fill="#E0E0E0" fill-rule="evenodd" d="M850.142 814.048a3.305 3.305 0 0 1 3.305 3.305 6.37 6.37 0 0 0 6.365 6.366 6.366 6.366 0 0 0 6.366-6.366 3.305 3.305 0 1 1 6.609 0c0 7.172-5.815 12.975-12.975 12.975-7.162 0-12.975-5.813-12.975-12.975a3.305 3.305 0 0 1 3.305-3.305" clip-rule="evenodd"/><defs><linearGradient id="a" x1="546.231" x2="562.9" y1="434.037" y2="378.083" gradientUnits="userSpaceOnUse"><stop stop-color="#C5D9FB"/><stop offset=".05" stop-color="#CEDEF9"/><stop offset=".17" stop-color="#DFE8F7"/><stop offset=".32" stop-color="#EBEFF6"/><stop offset=".52" stop-color="#F2F3F5"/><stop offset="1" stop-color="#F5F5F5"/></linearGradient><linearGradient id="b" x1="435.141" x2="516.381" y1="477.758" y2="480.708" gradientUnits="userSpaceOnUse"><stop stop-color="#0096FA"/><stop offset=".24" stop-color="#0092FA"/><stop offset=".44" stop-color="#0088FA"/><stop offset=".61" stop-color="#0078FB"/><stop offset=".78" stop-color="#0060FC"/><stop offset=".93" stop-color="#0042FE"/><stop offset="1" stop-color="#03F"/></linearGradient><linearGradient id="c" x1="673.375" x2="592.135" y1="476.877" y2="479.828" gradientUnits="userSpaceOnUse"><stop stop-color="#0096FA"/><stop offset=".24" stop-color="#0092FA"/><stop offset=".44" stop-color="#0088FA"/><stop offset=".61" stop-color="#0078FB"/><stop offset=".78" stop-color="#0060FC"/><stop offset=".93" stop-color="#0042FE"/><stop offset="1" stop-color="#03F"/></linearGradient><linearGradient id="d" x1="529.08" x2="583.919" y1="569.072" y2="384.959" gradientUnits="userSpaceOnUse"><stop stop-color="#C5D9FB"/><stop offset=".05" stop-color="#CEDEF9"/><stop offset=".17" stop-color="#DFE8F7"/><stop offset=".32" stop-color="#EBEFF6"/><stop offset=".52" stop-color="#F2F3F5"/><stop offset="1" stop-color="#F5F5F5"/></linearGradient><linearGradient id="e" x1="552.946" x2="554.806" y1="438.276" y2="579.586" gradientUnits="userSpaceOnUse"><stop stop-color="#0096FA"/><stop offset=".24" stop-color="#0092FA"/><stop offset=".44" stop-color="#0088FA"/><stop offset=".61" stop-color="#0078FB"/><stop offset=".78" stop-color="#0060FC"/><stop offset=".93" stop-color="#0042FE"/><stop offset="1" stop-color="#03F"/></linearGradient><linearGradient id="f" x1="560.336" x2="544.316" y1="321.425" y2="373.331" gradientUnits="userSpaceOnUse"><stop stop-color="#0096FA"/><stop offset=".24" stop-color="#0092FA"/><stop offset=".44" stop-color="#0088FA"/><stop offset=".61" stop-color="#0078FB"/><stop offset=".78" stop-color="#0060FC"/><stop offset=".93" stop-color="#0042FE"/><stop offset="1" stop-color="#03F"/></linearGradient><linearGradient id="g" x1="659.513" x2="659.513" y1="845.98" y2="794.857" gradientUnits="userSpaceOnUse"><stop offset=".682" stop-color="#1967F1"/><stop offset=".906" stop-color="#0096FA"/></linearGradient><linearGradient id="h" x1="400.943" x2="400.943" y1="845.98" y2="794.857" gradientUnits="userSpaceOnUse"><stop offset=".682" stop-color="#1967F1"/><stop offset=".906" stop-color="#0096FA"/></linearGradient><linearGradient id="i" x1="763.279" x2="743.425" y1="850.953" y2="807.346" gradientUnits="userSpaceOnUse"><stop stop-color="#D7AD03"/><stop offset="1" stop-color="#FBCF23"/></linearGradient><linearGradient id="j" x1="28.279" x2="8.425" y1="58.953" y2="15.346" gradientUnits="userSpaceOnUse"><stop stop-color="#D7AD03"/><stop offset="1" stop-color="#FBCF23"/></linearGradient></defs></svg>