<svg width="1080" height="1080" viewBox="0 0 1080 1080" fill="none" xmlns="http://www.w3.org/2000/svg">
<path fill-rule="evenodd" clip-rule="evenodd" d="M330.782 742.567C243.847 776.585 175.295 736.506 150.605 710.114L181.224 681.471C197.064 698.403 248.145 729.88 315.503 703.523L330.782 742.567Z" fill="#0188FB"/>
<path fill-rule="evenodd" clip-rule="evenodd" d="M808.536 728.865C901.828 725.462 948.757 661.405 960.899 627.365L921.409 613.279C913.619 635.118 879.291 684.329 807.008 686.966L808.536 728.865Z" fill="#0188FB"/>
<path d="M398.612 718.853C398.612 747.797 375.148 771.262 346.203 771.262C317.258 771.262 293.793 747.797 293.793 718.853C293.793 689.908 317.258 666.443 346.203 666.443C375.148 666.443 398.612 689.908 398.612 718.853Z" fill="#072F73"/>
<path d="M734.03 718.855C734.03 747.799 757.494 771.264 786.439 771.264C815.384 771.264 838.848 747.799 838.848 718.855C838.848 689.91 815.384 666.445 786.439 666.445C757.494 666.445 734.03 689.91 734.03 718.855Z" fill="#072F73"/>
<path fill-rule="evenodd" clip-rule="evenodd" d="M478.274 943.163C494.483 943.163 507.623 930.023 507.623 913.814C507.623 897.605 494.483 884.465 478.274 884.465C462.065 884.465 448.925 897.605 448.925 913.814C448.925 930.023 462.065 943.163 478.274 943.163ZM478.274 968.32C508.377 968.32 532.78 943.917 532.78 913.814C532.78 883.712 508.377 859.309 478.274 859.309C448.172 859.309 423.769 883.712 423.769 913.814C423.769 943.917 448.172 968.32 478.274 968.32Z" fill="#2C2A46"/>
<path fill-rule="evenodd" clip-rule="evenodd" d="M658.562 943.163C674.771 943.163 687.911 930.023 687.911 913.814C687.911 897.605 674.771 884.465 658.562 884.465C642.353 884.465 629.213 897.605 629.213 913.814C629.213 930.023 642.353 943.163 658.562 943.163ZM658.562 968.32C688.665 968.32 713.068 943.917 713.068 913.814C713.068 883.712 688.665 859.309 658.562 859.309C628.46 859.309 604.057 883.712 604.057 913.814C604.057 943.917 628.46 968.32 658.562 968.32Z" fill="#2C2A46"/>
<path d="M474.082 867.694H658.562V980.898C658.562 1031.84 617.265 1073.14 566.322 1073.14C515.379 1073.14 474.082 1031.84 474.082 980.898V867.694Z" fill="#072F73"/>
<path fill-rule="evenodd" clip-rule="evenodd" d="M513.913 951.55C513.913 946.918 517.667 943.164 522.298 943.164H616.635C621.266 943.164 625.02 946.918 625.02 951.55C625.02 956.181 621.266 959.935 616.635 959.935H522.298C517.667 959.935 513.913 956.181 513.913 951.55Z" fill="#F4F5F6"/>
<path fill-rule="evenodd" clip-rule="evenodd" d="M513.913 993.476C513.913 988.845 517.667 985.091 522.298 985.091H616.635C621.266 985.091 625.02 988.845 625.02 993.476C625.02 998.107 621.266 1001.86 616.635 1001.86H522.298C517.667 1001.86 513.913 998.107 513.913 993.476Z" fill="#F4F5F6"/>
<path fill-rule="evenodd" clip-rule="evenodd" d="M111.409 611.937C111.409 602.675 118.918 595.166 128.18 595.166C166.387 595.166 197.36 626.139 197.36 664.346C197.36 702.553 166.387 733.526 128.18 733.526C89.973 733.526 59 702.553 59 664.346C59 655.084 66.5086 647.575 75.771 647.575C85.0333 647.575 92.5419 655.084 92.5419 664.346C92.5419 684.029 108.498 699.985 128.18 699.985C147.863 699.985 163.819 684.029 163.819 664.346C163.819 644.664 147.863 628.708 128.18 628.708C118.918 628.708 111.409 621.199 111.409 611.937Z" fill="#0188FB"/>
<path fill-rule="evenodd" clip-rule="evenodd" d="M941.008 515.689C935.55 508.206 925.058 506.564 917.575 512.022C886.706 534.536 879.933 577.812 902.448 608.681C924.962 639.55 968.238 646.322 999.107 623.808C1029.98 601.294 1036.75 558.018 1014.23 527.149C1008.78 519.666 998.285 518.024 990.802 523.482C983.318 528.94 981.676 539.431 987.134 546.914C998.733 562.817 995.244 585.11 979.341 596.708C963.439 608.307 941.146 604.818 929.547 588.915C917.949 573.013 921.438 550.72 937.34 539.121C944.824 533.663 946.466 523.172 941.008 515.689Z" fill="#0188FB"/>
<path d="M557.922 924.99C688.944 924.99 755.278 905.746 755.278 769.724C755.278 629.591 674.953 584.689 557.922 584.689C440.892 584.689 360.567 629.591 360.567 769.724C360.567 905.746 426.901 924.99 557.922 924.99Z" fill="url(#paint0_linear_10272_1595)"/>
<path d="M511.816 758.684C511.816 777.208 496.799 792.225 478.274 792.225C459.749 792.225 444.732 777.208 444.732 758.684C444.732 740.159 459.749 725.142 478.274 725.142C496.799 725.142 511.816 740.159 511.816 758.684Z" fill="url(#paint1_linear_10272_1595)"/>
<path d="M599.864 758.685C599.864 777.209 584.846 792.226 566.322 792.226C547.797 792.226 532.78 777.209 532.78 758.685C532.78 740.16 547.797 725.143 566.322 725.143C584.846 725.143 599.864 740.16 599.864 758.685Z" fill="url(#paint2_linear_10272_1595)"/>
<path d="M687.911 758.685C687.911 777.209 672.894 792.226 654.369 792.226C635.844 792.226 620.827 777.209 620.827 758.685C620.827 740.16 635.844 725.143 654.369 725.143C672.894 725.143 687.911 740.16 687.911 758.685Z" fill="url(#paint3_linear_10272_1595)"/>
<path d="M377.369 442.218C439.155 444.418 470.69 436.534 472.89 372.365C475.273 306.363 438.238 283.811 383.053 281.795C328.051 279.778 289.366 299.579 286.983 365.581C284.783 429.934 315.584 440.017 377.369 442.218Z" fill="#072F73"/>
<path d="M742.217 442.034C680.431 444.235 648.897 436.351 646.697 372.182C644.313 306.179 681.348 283.628 736.533 281.612C791.535 279.595 830.22 299.396 832.604 365.398C834.804 429.567 804.003 439.834 742.217 442.034Z" fill="#072F73"/>
<path fill-rule="evenodd" clip-rule="evenodd" d="M557.96 35.21C562.816 35.21 566.752 39.1465 566.752 44.0026V245.677C566.752 250.533 562.816 254.47 557.96 254.47C553.104 254.47 549.167 250.533 549.167 245.677V44.0026C549.167 39.1465 553.104 35.21 557.96 35.21Z" fill="#072F73"/>
<path d="M559.793 253.742C604.161 253.742 626.529 247.142 626.529 201.124C626.529 153.639 599.395 138.421 559.793 138.421C520.192 138.421 493.057 153.639 493.057 201.124C493.057 247.326 515.425 253.742 559.793 253.742Z" fill="url(#paint4_linear_10272_1595)"/>
<path d="M558.022 100.085C585.659 100.085 608.064 77.6804 608.064 50.0427C608.064 22.4051 585.659 0 558.022 0C530.384 0 507.979 22.4051 507.979 50.0427C507.979 77.6804 530.384 100.085 558.022 100.085Z" fill="#0096FA"/>
<path d="M558.022 100.085C585.659 100.085 608.064 77.6804 608.064 50.0427C608.064 22.4051 585.659 0 558.022 0C530.384 0 507.979 22.4051 507.979 50.0427C507.979 77.6804 530.384 100.085 558.022 100.085Z" fill="url(#paint5_linear_10272_1595)"/>
<path d="M559.793 551.489C705.732 551.489 779.618 530.038 779.618 378.415C779.618 222.209 690.148 172.157 559.793 172.157C429.438 172.157 339.968 222.209 339.968 378.415C339.968 530.038 413.854 551.489 559.793 551.489Z" fill="url(#paint6_linear_10272_1595)"/>
<path d="M651.096 242.926C590.044 237.793 529.542 237.793 468.489 242.926C444.288 244.943 422.837 266.944 416.421 289.312C406.52 337.163 402.303 382.815 405.053 431.767C408.72 454.501 429.988 476.868 453.639 479.252C524.775 486.219 594.811 486.219 666.13 479.252C688.314 475.218 712.699 455.601 714.716 431.767C717.466 382.815 713.248 337.163 703.348 289.312C698.031 265.661 674.197 246.593 651.096 242.926Z" fill="#072F73"/>
<path d="M484.047 384.645C497.339 384.645 508.115 373.869 508.115 360.577C508.115 347.285 497.339 336.51 484.047 336.51C470.755 336.51 459.979 347.285 459.979 360.577C459.979 373.869 470.755 384.645 484.047 384.645Z" fill="#35DE90"/>
<path d="M635.06 384.645C648.352 384.645 659.128 373.869 659.128 360.577C659.128 347.285 648.352 336.51 635.06 336.51C621.768 336.51 610.992 347.285 610.992 360.577C610.992 373.869 621.768 384.645 635.06 384.645Z" fill="#35DE90"/>
<path fill-rule="evenodd" clip-rule="evenodd" d="M539.638 361.021C543.023 361.021 545.766 363.764 545.766 367.148C545.766 374.948 552.19 381.371 559.989 381.371C567.789 381.371 574.212 374.948 574.212 367.148C574.212 363.764 576.956 361.021 580.34 361.021C583.724 361.021 586.468 363.764 586.468 367.148C586.468 381.716 574.557 393.627 559.989 393.627C545.421 393.627 533.511 381.716 533.511 367.148C533.511 363.764 536.254 361.021 539.638 361.021Z" fill="#35DE90"/>
<path fill-rule="evenodd" clip-rule="evenodd" d="M498.9 567.628C498.9 563.299 502.653 559.789 507.284 559.789H605.794C610.424 559.789 614.178 563.299 614.178 567.628C614.178 571.957 610.424 575.467 605.794 575.467H507.284C502.653 575.467 498.9 571.957 498.9 567.628Z" fill="#0188FB"/>
<defs>
<linearGradient id="paint0_linear_10272_1595" x1="507.315" y1="939.455" x2="619.795" y2="561.533" gradientUnits="userSpaceOnUse">
<stop stop-color="#C5D9FB"/>
<stop offset="0.0468921" stop-color="#CEDEFA"/>
<stop offset="0.1687" stop-color="#E0E8F8"/>
<stop offset="0.317" stop-color="#ECF0F6"/>
<stop offset="0.5176" stop-color="#F3F4F5"/>
<stop offset="1" stop-color="#F5F5F5"/>
</linearGradient>
<linearGradient id="paint1_linear_10272_1595" x1="478.274" y1="725.142" x2="435.717" y2="793.905" gradientUnits="userSpaceOnUse">
<stop offset="0.238756" stop-color="#0096FA"/>
<stop offset="1" stop-color="#072F73"/>
</linearGradient>
<linearGradient id="paint2_linear_10272_1595" x1="566.322" y1="725.143" x2="523.765" y2="793.906" gradientUnits="userSpaceOnUse">
<stop offset="0.238756" stop-color="#0096FA"/>
<stop offset="1" stop-color="#072F73"/>
</linearGradient>
<linearGradient id="paint3_linear_10272_1595" x1="654.369" y1="725.143" x2="611.812" y2="793.906" gradientUnits="userSpaceOnUse">
<stop offset="0.238756" stop-color="#0096FA"/>
<stop offset="1" stop-color="#072F73"/>
</linearGradient>
<linearGradient id="paint4_linear_10272_1595" x1="542.655" y1="258.685" x2="580.785" y2="130.668" gradientUnits="userSpaceOnUse">
<stop stop-color="#C5D9FB"/>
<stop offset="0.0468921" stop-color="#CEDEFA"/>
<stop offset="0.1687" stop-color="#E0E8F8"/>
<stop offset="0.317" stop-color="#ECF0F6"/>
<stop offset="0.5176" stop-color="#F3F4F5"/>
<stop offset="1" stop-color="#F5F5F5"/>
</linearGradient>
<linearGradient id="paint5_linear_10272_1595" x1="590.693" y1="-4.82945" x2="519.881" y2="114.029" gradientUnits="userSpaceOnUse">
<stop stop-color="#0033FF" stop-opacity="0"/>
<stop offset="1" stop-color="#0033FF" stop-opacity="0.5"/>
</linearGradient>
<linearGradient id="paint6_linear_10272_1595" x1="503.424" y1="567.614" x2="628.884" y2="146.397" gradientUnits="userSpaceOnUse">
<stop stop-color="#C5D9FB"/>
<stop offset="0.0468921" stop-color="#CEDEFA"/>
<stop offset="0.1687" stop-color="#E0E8F8"/>
<stop offset="0.317" stop-color="#ECF0F6"/>
<stop offset="0.5176" stop-color="#F3F4F5"/>
<stop offset="1" stop-color="#F5F5F5"/>
</linearGradient>
</defs>
</svg>
