<svg width="1137" height="1080" viewBox="0 0 1137 1080" fill="none" xmlns="http://www.w3.org/2000/svg">
<path d="M77.9246 543.397C77.9246 449.613 153.952 373.586 247.736 373.586H655.282C749.066 373.586 825.093 449.613 825.093 543.397V910.189C825.093 1003.97 749.066 1080 655.282 1080H247.736C153.952 1080 77.9246 1003.97 77.9246 910.189V543.397Z" fill="#DEE8EC"/>
<path fill-rule="evenodd" clip-rule="evenodd" d="M77.9245 584.151H71.132C37.3697 584.151 10 611.521 10 645.283V808.302C10 842.064 37.3697 869.434 71.132 869.434H77.9245V584.151Z" fill="#D2DFE6"/>
<path fill-rule="evenodd" clip-rule="evenodd" d="M825.094 584.151H831.886C865.648 584.151 893.018 611.521 893.018 645.283V808.302C893.018 842.064 865.648 869.434 831.886 869.434H825.094V584.151Z" fill="#D2DFE6"/>
<path d="M634.905 726.792C634.905 828.078 552.795 910.188 451.509 910.188C350.222 910.188 268.113 828.078 268.113 726.792C268.113 625.505 350.222 543.396 451.509 543.396C552.795 543.396 634.905 625.505 634.905 726.792Z" fill="white"/>
<path fill-rule="evenodd" clip-rule="evenodd" d="M451.509 869.433C530.287 869.433 594.15 805.57 594.15 726.792C594.15 648.013 530.287 584.15 451.509 584.15C372.73 584.15 308.867 648.013 308.867 726.792C308.867 805.57 372.73 869.433 451.509 869.433ZM451.509 910.188C552.795 910.188 634.905 828.078 634.905 726.792C634.905 625.505 552.795 543.396 451.509 543.396C350.222 543.396 268.113 625.505 268.113 726.792C268.113 828.078 350.222 910.188 451.509 910.188Z" fill="#2CC3D5"/>
<path fill-rule="evenodd" clip-rule="evenodd" d="M475.282 261.51V373.585H427.735V261.51H475.282Z" fill="#8CA0B3"/>
<path d="M533.018 196.982C533.018 241.998 496.525 278.491 451.509 278.491C406.492 278.491 370 241.998 370 196.982C370 151.965 406.492 115.472 451.509 115.472C496.525 115.472 533.018 151.965 533.018 196.982Z" fill="#F9B42F"/>
<path opacity="0.3" fill-rule="evenodd" clip-rule="evenodd" d="M490.798 184.474C486.688 164.255 466.966 151.195 446.747 155.305C441.232 156.426 435.854 152.864 434.733 147.35C433.612 141.836 437.174 136.457 442.688 135.336C473.936 128.985 504.416 149.167 510.767 180.415C511.888 185.929 508.326 191.308 502.812 192.429C497.297 193.55 491.919 189.988 490.798 184.474Z" fill="white"/>
<path d="M536 747.5C544.837 747.5 552.13 740.291 550.729 731.567C547.398 710.817 537.614 691.485 522.564 676.436C503.717 657.588 478.154 647 451.5 647C424.846 647 399.283 657.588 380.436 676.436C365.386 691.485 355.602 710.817 352.271 731.567C350.87 740.291 358.163 747.5 367 747.5L384.81 747.5C393.647 747.5 400.571 740.164 403.315 731.764C405.768 724.253 409.966 717.348 415.657 711.657C425.163 702.151 438.056 696.81 451.5 696.81C464.944 696.81 477.837 702.151 487.343 711.657C493.034 717.348 497.232 724.253 499.685 731.764C502.429 740.164 509.353 747.5 518.19 747.5L536 747.5Z" fill="#292929"/>
<g filter="url(#filter0_d_15189_95541)">
<path d="M1064.59 107.619C1054.22 55.1496 1016.98 18.4773 962.399 7.05243C939.186 2.349 915.56 -0.0136209 891.875 5.90661e-05C860.351 5.90661e-05 815.921 4.16095 783.622 24.1897C742.859 49.8603 721.42 98.2395 723.324 161.358C724.452 197.537 733.127 248.314 768.247 284.986C795.399 313.196 845.823 327.794 886.868 330.545V357.061C886.868 363.596 889.459 369.863 894.073 374.49C898.687 379.117 904.947 381.726 911.481 381.745C912.208 381.815 912.94 381.815 913.667 381.745C918.852 381.369 923.787 379.37 927.772 376.032C943.569 362.492 964.303 344.508 984.685 325.467L993.5 317.357C1010.11 303.166 1025.15 287.23 1038.35 269.824C1066.7 228.849 1076.65 168.27 1064.59 107.619Z" fill="white"/>
</g>
<path d="M899.516 87.3848C883.321 87.3724 867.486 92.1634 854.014 101.152C840.543 110.14 830.039 122.922 823.833 137.881C817.627 152.84 815.997 169.303 819.149 185.189C822.301 201.074 830.093 215.668 841.54 227.124C852.988 238.58 867.575 246.383 883.458 249.547C899.341 252.711 915.806 251.094 930.769 244.899C945.733 238.704 958.523 228.211 967.522 214.746C976.52 201.281 981.324 185.45 981.324 169.255C981.299 147.56 972.674 126.76 957.339 111.414C942.004 96.0672 921.211 87.4263 899.516 87.3848ZM942.238 157.125L896.382 200.411C893.696 202.887 890.177 204.261 886.524 204.261C882.871 204.261 879.352 202.887 876.666 200.411L856.262 181.604C854.736 180.191 853.835 178.23 853.755 176.152C853.676 174.074 854.425 172.05 855.838 170.524C857.252 168.999 859.213 168.097 861.291 168.018C863.369 167.939 865.393 168.688 866.919 170.101L886.383 188.061L931.518 145.59C933.049 144.28 935.026 143.61 937.039 143.72C939.051 143.829 940.943 144.71 942.323 146.179C943.703 147.647 944.464 149.591 944.448 151.606C944.432 153.621 943.641 155.553 942.238 157V157.125Z" fill="#4DCB7B"/>
<defs>
<filter id="filter0_d_15189_95541" x="656.438" y="-55.641" width="479.953" height="515.335" filterUnits="userSpaceOnUse" color-interpolation-filters="sRGB">
<feFlood flood-opacity="0" result="BackgroundImageFix"/>
<feColorMatrix in="SourceAlpha" type="matrix" values="0 0 0 0 0 0 0 0 0 0 0 0 0 0 0 0 0 0 127 0" result="hardAlpha"/>
<feOffset dy="11.1282"/>
<feGaussianBlur stdDeviation="33.3846"/>
<feColorMatrix type="matrix" values="0 0 0 0 0.374547 0 0 0 0 0.481553 0 0 0 0 0.601935 0 0 0 0.15 0"/>
<feBlend mode="normal" in2="BackgroundImageFix" result="effect1_dropShadow_15189_95541"/>
<feBlend mode="normal" in="SourceGraphic" in2="effect1_dropShadow_15189_95541" result="shape"/>
</filter>
</defs>
</svg>
