<svg xmlns="http://www.w3.org/2000/svg" width="1080" height="1081" viewBox="0 0 1080 1081" fill="none"><path fill="#072F73" d="M188.223 866.524c120.997 4.308 182.752-11.13 187.061-136.795 4.667-129.255-67.859-173.417-175.931-177.367-107.712-3.949-183.47 34.827-188.137 164.082-4.309 126.024 56.01 145.771 177.007 150.08M902.717 866.165c-120.997 4.309-182.753-11.13-187.061-136.795-4.668-129.255 67.859-173.417 175.93-177.366 107.713-3.95 183.474 34.827 188.134 164.082 4.31 125.664-56.01 145.771-177.003 150.079"/><path fill="#072F73" fill-rule="evenodd" d="M541.88 69.467c9.509 0 17.218 7.709 17.218 17.219v394.946c0 9.509-7.709 17.219-17.218 17.219s-17.219-7.71-17.219-17.219V86.686c0-9.51 7.709-17.22 17.219-17.22" clip-rule="evenodd"/><path fill="url(#a)" d="M545.47 497.427c86.888 0 130.691-12.925 130.691-103.045 0-92.992-53.138-122.792-130.691-122.792s-130.692 29.8-130.692 122.792c0 90.479 43.804 103.045 130.692 103.045"/><path fill="#0096FA" d="M542 196.514c54.124 0 98-43.876 98-98s-43.876-98-98-98c-54.123 0-98 43.876-98 98s43.877 98 98 98"/><path fill="url(#b)" d="M542 196.514c54.124 0 98-43.876 98-98s-43.876-98-98-98c-54.123 0-98 43.876-98 98s43.877 98 98 98"/><path fill="url(#c)" d="M545.47 1080.51c285.797 0 430.491-42.01 430.491-338.934 0-305.903-175.212-403.922-430.491-403.922s-430.491 98.019-430.491 403.922c0 296.924 144.694 338.934 430.491 338.934"/><path fill="#072F73" d="M724.272 476.245c-119.561-10.053-238.045-10.053-357.606 0-47.393 3.949-89.401 47.035-101.968 90.838-19.388 93.71-27.646 183.111-22.26 278.975 7.18 44.521 48.829 88.324 95.146 92.992 139.308 13.643 276.462 13.643 416.129 0 43.444-7.899 91.197-46.316 95.147-92.992 5.385-95.864-2.873-185.265-22.261-278.975-10.413-46.317-57.088-83.657-102.327-90.838"/><path fill="#35DE90" d="M397.133 753.779c26.031 0 47.132-21.102 47.132-47.133s-21.101-47.132-47.132-47.132S350 680.615 350 706.646s21.102 47.133 47.133 47.133M692.867 753.779c26.031 0 47.133-21.102 47.133-47.133s-21.102-47.132-47.133-47.132c-26.03 0-47.133 21.101-47.133 47.132s21.103 47.133 47.133 47.133"/><path fill="#35DE90" fill-rule="evenodd" d="M506 707.514c6.627 0 12 5.372 12 12 0 15.274 12.58 27.854 27.854 27.854s27.853-12.58 27.853-27.854c0-6.628 5.373-12 12-12 6.628 0 12 5.372 12 12 0 28.528-23.324 51.854-51.853 51.854-28.53 0-51.854-23.326-51.854-51.854 0-6.628 5.373-12 12-12" clip-rule="evenodd"/><defs><linearGradient id="a" x1="511.908" x2="586.579" y1="507.106" y2="256.407" gradientUnits="userSpaceOnUse"><stop stop-color="#C5D9FB"/><stop offset=".047" stop-color="#CEDEFA"/><stop offset=".169" stop-color="#E0E8F8"/><stop offset=".317" stop-color="#ECF0F6"/><stop offset=".518" stop-color="#F3F4F5"/><stop offset="1" stop-color="#F5F5F5"/></linearGradient><linearGradient id="b" x1="605.981" x2="467.308" y1="-8.944" y2="223.821" gradientUnits="userSpaceOnUse"><stop stop-color="#03F" stop-opacity="0"/><stop offset="1" stop-color="#03F" stop-opacity=".5"/></linearGradient><linearGradient id="c" x1="435.08" x2="680.773" y1="1112.09" y2="287.207" gradientUnits="userSpaceOnUse"><stop stop-color="#C5D9FB"/><stop offset=".047" stop-color="#CEDEFA"/><stop offset=".169" stop-color="#E0E8F8"/><stop offset=".317" stop-color="#ECF0F6"/><stop offset=".518" stop-color="#F3F4F5"/><stop offset="1" stop-color="#F5F5F5"/></linearGradient></defs></svg>