<svg width="1079" height="1080" viewBox="0 0 1079 1080" fill="none" xmlns="http://www.w3.org/2000/svg">
<g style="mix-blend-mode:luminosity" opacity="0.16">
<path d="M894.011 691.178C894.011 691.178 702.035 946.506 485.154 981.25C268.273 1015.99 168.583 922.584 176.062 822.656C183.54 722.727 215.923 651.024 151.158 572.803C86.3928 494.581 -3.42577 431.547 61.4141 238.145C126.254 44.7416 305.667 -16.0757 420.389 3.47967C535.111 23.0351 544.983 131.698 679.599 159.923C814.214 188.148 983.755 136.065 1028.63 277.255C1073.5 418.445 983.755 585.448 894.011 691.178Z" fill="#B9CBD3"/>
</g>
<g opacity="0.2" filter="url(#filter0_f_10272_1613)">
<path d="M563.478 1038C563.478 1050.15 503.092 1060 428.603 1060C354.113 1060 293.728 1050.15 293.728 1038C293.728 1025.85 354.113 1016 428.603 1016C503.092 1016 563.478 1025.85 563.478 1038Z" fill="#0A0F1A"/>
</g>
<path d="M347.4 1044.82C348.98 1034.79 350.396 1025.65 351.86 1016.53C352.41 1013.01 353.03 1009.59 353.615 1006.11C354.037 1003.45 355.266 1002.42 358.134 1003.77C362.782 1005.92 367.995 1006.52 373.011 1005.49C376.183 1004.84 376.991 1006.66 376.768 1009C376.312 1014.07 375.598 1019.09 375.188 1024.15C374.532 1032.45 374.497 1040.8 373.28 1049.01C372.617 1052.98 370.811 1056.67 368.083 1059.63C362.956 1065.24 353.182 1061.61 350.268 1054.79C348.987 1051.57 348.027 1048.23 347.4 1044.82Z" fill="#3D5CB6"/>
<path fill-rule="evenodd" clip-rule="evenodd" d="M452.027 981.05C457.425 980.678 462.102 984.756 462.474 990.16L463.387 1003.43C463.758 1008.84 459.683 1013.52 454.285 1013.89C448.887 1014.26 444.21 1010.18 443.838 1004.78L442.925 991.507C442.554 986.103 446.629 981.422 452.027 981.05Z" fill="#CB8591"/>
<path d="M494.136 1029.47C495.502 1031.73 495.946 1034.44 495.377 1037.02C494.628 1040.15 492.462 1041.6 488.014 1042.56C482.443 1043.73 477.281 1042.34 472.119 1040.5C465.88 1038.27 459.746 1035.28 453.297 1034.18C445.583 1032.87 443.137 1027.93 442.247 1021.55C441.662 1017.45 442.13 1013.2 442.247 1009.03C442.247 1007.26 443.125 1006.38 445.15 1006.78C450.858 1008.12 456.86 1007.34 462.029 1004.56C462.44 1004.43 462.877 1004.41 463.301 1004.48C463.726 1004.56 464.125 1004.74 464.464 1005.01C467.975 1012.67 475.619 1015.07 482.138 1018.89C485.006 1020.57 488.12 1022.06 490.461 1024.31C491.915 1025.85 493.152 1027.59 494.136 1029.47Z" fill="#3D5CB6"/>
<path d="M453.861 1007.86C459.239 1007.49 463.553 1006.51 463.495 1005.66C463.437 1004.81 459.03 1004.43 453.651 1004.8C448.272 1005.17 443.959 1006.15 444.016 1007C444.074 1007.84 448.482 1008.23 453.861 1007.86Z" fill="#CB8591"/>
<path d="M463.281 1002.02L463.527 1005.65L444.061 1006.99L443.698 1002.76L463.281 1002.02Z" fill="#CB8591"/>
<path fill-rule="evenodd" clip-rule="evenodd" d="M366.002 984.755C371.412 984.86 375.712 989.334 375.608 994.749L375.35 1008.06C375.245 1013.47 370.775 1017.78 365.365 1017.67C359.955 1017.57 355.654 1013.09 355.759 1007.68L356.017 994.369C356.121 988.955 360.592 984.65 366.002 984.755Z" fill="#CB8591"/>
<path fill-rule="evenodd" clip-rule="evenodd" d="M456.85 471.472C451.206 472.885 447.774 478.61 449.186 484.26L459.406 481.702C449.186 484.26 449.186 484.261 449.187 484.263L449.265 484.573C449.315 484.772 449.388 485.062 449.485 485.439C449.677 486.193 449.96 487.292 450.325 488.688C451.056 491.482 452.117 495.47 453.448 500.275C456.105 509.872 459.852 522.784 464.19 535.962C468.507 549.074 473.504 562.741 478.692 573.72C481.276 579.189 484.054 584.306 486.99 588.442C489.661 592.205 493.541 596.741 498.822 598.82C508.124 602.484 517.405 599.266 524.337 595.168C531.513 590.926 538.403 584.486 544.424 577.618C556.357 564.005 566.979 546.247 570.778 533.795C571.793 530.479 571.87 526.243 571.839 523.193C571.803 519.671 571.56 515.752 571.27 512.192C570.977 508.605 570.624 505.238 570.346 502.777C570.206 501.544 570.085 500.529 569.997 499.819C569.953 499.463 569.918 499.183 569.893 498.989L569.865 498.764L569.853 498.676C569.853 498.676 569.853 498.675 559.407 500.044L569.853 498.675C569.098 492.9 563.808 488.832 558.039 489.588C552.27 490.344 548.206 495.638 548.961 501.412C548.961 501.412 548.961 501.412 548.961 501.412L548.968 501.465L548.991 501.652C549.013 501.819 549.044 502.071 549.084 502.396C549.165 503.048 549.278 503.993 549.409 505.149C549.671 507.469 549.999 510.606 550.269 513.909C550.541 517.24 550.741 520.6 550.769 523.409C550.794 525.821 550.673 527.076 550.633 527.486C550.619 527.634 550.615 527.672 550.633 527.615L550.628 527.631C547.957 536.387 539.22 551.576 528.585 563.708C523.322 569.713 518.124 574.347 513.622 577.009C509.469 579.464 507.427 579.401 506.748 579.255C506.579 579.099 505.684 578.364 504.166 576.227C502.24 573.513 500.068 569.629 497.739 564.702C493.102 554.888 488.422 542.178 484.202 529.361C480.004 516.61 476.356 504.043 473.753 494.642C472.453 489.948 471.418 486.058 470.709 483.348C470.355 481.993 470.082 480.934 469.899 480.217C469.808 479.859 469.739 479.586 469.693 479.405L469.627 479.145L469.627 479.144C469.627 479.143 469.627 479.144 469.627 479.144C468.215 473.494 462.495 470.059 456.85 471.472Z" fill="#EFB8C2"/>
<path d="M895.249 152.143C886.562 108.177 855.193 77.442 809.226 67.939C788.768 63.8641 767.952 61.8491 747.091 61.9244C719.643 61.9244 681.095 65.473 653.466 82.5544C607.136 111.124 601.828 167.781 602.793 198.937C603.758 230.092 611.359 273.939 641.341 304.854C666.134 330.596 714.636 342.866 751.132 343.768V375.766C751.108 377.592 751.45 379.404 752.138 381.097C752.826 382.79 753.846 384.328 755.139 385.622C756.431 386.917 757.97 387.94 759.664 388.634C761.359 389.327 763.176 389.676 765.007 389.659H766.274C769.13 389.428 771.837 388.29 773.996 386.412C788.293 374.382 807.054 357.963 825.272 341.001L833.356 333.603C847.96 321.194 861.169 307.238 872.748 291.982C897.421 256.978 905.866 204.651 895.249 152.143Z" fill="#2CC3D5"/>
<path fill-rule="evenodd" clip-rule="evenodd" d="M873.712 318.844C864.348 205.188 769.223 115.87 653.256 115.87C624.827 115.87 597.65 121.238 572.683 131.016C565.392 155.391 564.249 179.79 564.792 197.332C565.93 234.071 574.893 285.774 610.247 322.229C639.484 352.584 696.677 367.053 739.713 368.117V405.848C739.685 408.002 740.088 410.139 740.899 412.135C741.71 414.131 742.913 415.945 744.437 417.471C745.961 418.997 747.776 420.204 749.774 421.022C751.772 421.839 753.914 422.251 756.074 422.232H757.568C760.936 421.959 764.127 420.617 766.673 418.402C783.532 404.217 805.655 384.855 827.138 364.854L836.67 356.131C850.055 344.758 862.446 332.283 873.712 318.844Z" fill="#2CC3D5"/>
<path d="M349.998 703.09L350.082 988.001C350.082 990.158 356.819 991.912 365.241 991.912H365.679C374.016 991.912 380.753 990.226 380.753 988.001L384.122 841.735L387.726 706.411C391.432 707.287 399.921 707.625 408.46 707.557C417 707.49 425.489 707.287 429.194 706.411L432.798 841.735L436.167 988.001C436.167 990.158 442.904 991.912 451.326 991.912H451.814C460.135 991.912 466.973 990.226 466.973 988.001V703.09C468.928 695.786 470.019 688.277 470.224 680.718C470.224 679.487 470.224 678.29 470.224 677.144C470.262 669.323 469.167 661.538 466.973 654.031C466.973 651.671 461.634 649.496 452.842 647.81L450.736 647.439C436.94 645.355 423.002 644.362 409.05 644.472H407.837C375.92 644.472 349.931 648.805 349.914 654.031C345.495 670.089 345.524 687.047 349.998 703.09Z" fill="#202C44"/>
<path opacity="0.5" fill-rule="evenodd" clip-rule="evenodd" d="M416.603 658.963H408.929L401.865 658.981V678.628C401.865 683.306 405.1 687.285 409.234 687.285C413.368 687.285 416.603 683.306 416.603 678.628V658.963ZM415.34 660.227V678.628C415.34 682.818 412.477 686.021 409.234 686.021C405.991 686.021 403.129 682.818 403.129 678.628V660.243L408.931 660.227H415.34Z" fill="#C2CFEF"/>
<path d="M452.909 647.812C454.037 648.031 455.098 648.25 456.126 648.486C462.981 650.054 467.023 651.976 467.04 654.032C469.371 662.063 470.467 670.403 470.291 678.764C469.473 678.998 468.64 679.173 467.798 679.287C463.963 679.792 460.067 679.066 456.67 677.214C453.273 675.362 450.551 672.479 448.896 668.979C447.24 665.48 446.737 661.545 447.458 657.741C448.179 653.937 450.088 650.461 452.909 647.812Z" fill="#95A2CE"/>
<path opacity="0.5" d="M460.454 700.865C461.01 698.808 461.498 696.7 461.903 694.593C462.931 689.386 463.523 684.102 463.671 678.797C463.673 678.719 463.691 678.643 463.722 678.572C463.754 678.501 463.799 678.437 463.856 678.384C463.912 678.331 463.978 678.289 464.05 678.262C464.123 678.234 464.2 678.221 464.277 678.223C464.431 678.232 464.575 678.3 464.679 678.414C464.782 678.527 464.838 678.677 464.833 678.83C464.687 684.204 464.09 689.556 463.048 694.829C462.644 696.92 462.155 699.027 461.599 701.084L464.833 985.995C464.835 986.071 464.822 986.148 464.795 986.219C464.767 986.291 464.725 986.356 464.672 986.411C464.618 986.466 464.554 986.51 464.484 986.54C464.413 986.569 464.337 986.585 464.261 986.585C464.107 986.585 463.96 986.525 463.85 986.418C463.739 986.311 463.675 986.165 463.671 986.012L460.437 701.101C460.423 701.022 460.429 700.94 460.454 700.865Z" fill="#3C4557"/>
<path d="M445.548 663.776C445.872 666.395 446.712 668.925 448.02 671.217C449.328 673.509 451.079 675.518 453.169 677.127C455.259 678.736 457.648 679.914 460.197 680.591C462.746 681.268 465.404 681.432 468.017 681.073L468.64 680.988C469.145 680.988 469.718 680.854 470.324 680.769C470.324 679.539 470.324 678.342 470.324 677.195C469.768 677.313 468.859 677.431 468.236 677.499L467.596 677.583C465.444 677.867 463.258 677.724 461.162 677.162C459.066 676.599 457.102 675.629 455.381 674.305C453.66 672.982 452.217 671.333 451.134 669.451C450.05 667.569 449.349 665.491 449.068 663.337C448.934 662.06 448.934 660.771 449.068 659.494L445.514 659.898C445.417 661.189 445.428 662.487 445.548 663.776Z" fill="#ADB9E0"/>
<path d="M364.398 647.812C363.253 648.031 362.192 648.25 361.181 648.486C354.326 650.054 350.267 651.976 350.25 654.032C347.93 662.066 346.834 670.403 346.999 678.764C347.822 679 348.661 679.174 349.509 679.287C353.344 679.792 357.241 679.066 360.637 677.214C364.034 675.362 366.756 672.479 368.412 668.979C370.067 665.48 370.57 661.545 369.849 657.741C369.128 653.937 367.219 650.461 364.398 647.812Z" fill="#1A2437"/>
<path opacity="0.5" d="M356.853 700.865C356.297 698.809 355.809 696.701 355.387 694.594C354.396 689.383 353.832 684.1 353.703 678.797C353.691 678.644 353.622 678.5 353.51 678.394C353.398 678.288 353.251 678.228 353.097 678.224C352.942 678.233 352.796 678.3 352.69 678.413C352.583 678.526 352.524 678.676 352.524 678.831C352.678 684.204 353.275 689.555 354.309 694.83C354.731 696.92 355.219 699.028 355.758 701.084L352.524 985.995C352.524 986.073 352.539 986.15 352.569 986.221C352.599 986.293 352.642 986.358 352.697 986.413C352.752 986.467 352.817 986.511 352.888 986.541C352.96 986.57 353.036 986.585 353.114 986.585C353.267 986.585 353.415 986.526 353.525 986.419C353.635 986.312 353.699 986.166 353.703 986.012L356.937 701.101C356.931 701.016 356.902 700.935 356.853 700.865Z" fill="#3C4557"/>
<path d="M371.742 663.776C371.11 668.597 368.753 673.026 365.108 676.241C361.462 679.456 356.776 681.238 351.918 681.258C351.039 681.255 350.161 681.193 349.29 681.073L348.667 680.988C348.145 680.988 347.572 680.854 346.983 680.769C346.983 679.539 346.983 678.342 346.983 677.195C347.555 677.313 348.448 677.431 349.088 677.499L349.728 677.583C351.88 677.872 354.068 677.732 356.165 677.171C358.263 676.611 360.23 675.641 361.951 674.317C363.673 672.993 365.117 671.341 366.198 669.457C367.28 667.573 367.979 665.493 368.255 663.337C368.398 662.06 368.398 660.771 368.255 659.494L371.792 659.898C371.902 661.189 371.885 662.488 371.742 663.776Z" fill="#3C4557"/>
<path d="M454.66 848.85L455.637 848.31C455.765 848.239 455.906 848.196 456.052 848.184C456.197 848.171 456.344 848.19 456.482 848.237C456.62 848.285 456.747 848.361 456.854 848.461C456.961 848.56 457.045 848.681 457.103 848.816L460.589 857.346C460.663 857.525 460.685 857.721 460.653 857.911C460.62 858.101 460.535 858.279 460.407 858.423C460.279 858.567 460.112 858.673 459.927 858.727C459.742 858.781 459.545 858.781 459.359 858.729L446.205 855.054C446.076 855.015 445.94 855.003 445.806 855.018C445.672 855.033 445.542 855.075 445.424 855.141C445.307 855.207 445.203 855.296 445.12 855.402C445.037 855.509 444.977 855.631 444.942 855.762L444.032 858.982L440.664 850.434C440.596 850.266 440.574 850.082 440.601 849.903C440.627 849.723 440.7 849.553 440.813 849.411C440.926 849.269 441.074 849.159 441.244 849.093C441.413 849.027 441.596 849.007 441.775 849.035C441.92 849.057 442.067 849.047 442.207 849.007C442.348 848.968 442.478 848.898 442.589 848.804C442.701 848.71 442.791 848.593 442.854 848.462C442.917 848.33 442.951 848.186 442.954 848.04L443.123 840.1C443.127 839.894 443.192 839.695 443.311 839.527C443.429 839.359 443.595 839.23 443.787 839.158C443.979 839.085 444.189 839.072 444.389 839.119C444.589 839.167 444.77 839.274 444.908 839.426L453.33 848.647C453.488 848.839 453.711 848.965 453.956 849.002C454.202 849.04 454.452 848.985 454.66 848.85Z" fill="#CB8591"/>
<path d="M364.432 848.58L363.337 848.327C363.194 848.298 363.046 848.299 362.903 848.331C362.76 848.363 362.625 848.425 362.508 848.513C362.39 848.6 362.292 848.711 362.22 848.839C362.149 848.967 362.104 849.108 362.091 849.254L361.265 858.425C361.247 858.618 361.283 858.812 361.37 858.985C361.456 859.158 361.59 859.303 361.755 859.404C361.921 859.504 362.111 859.556 362.305 859.553C362.498 859.549 362.687 859.492 362.849 859.386L374.336 852.002C374.449 851.928 374.576 851.878 374.709 851.854C374.842 851.83 374.979 851.833 375.111 851.863C375.243 851.893 375.367 851.949 375.477 852.028C375.587 852.107 375.68 852.207 375.75 852.322L377.468 855.138L378.142 845.983C378.157 845.803 378.124 845.623 378.046 845.46C377.969 845.297 377.85 845.157 377.701 845.054C377.553 844.952 377.38 844.89 377.2 844.876C377.02 844.861 376.84 844.894 376.677 844.972C376.544 845.034 376.4 845.068 376.253 845.071C376.106 845.074 375.961 845.046 375.826 844.988C375.691 844.931 375.569 844.846 375.469 844.739C375.369 844.631 375.293 844.504 375.245 844.365L372.769 836.812C372.705 836.618 372.583 836.446 372.421 836.321C372.258 836.196 372.062 836.122 371.857 836.109C371.653 836.097 371.449 836.146 371.272 836.25C371.096 836.354 370.954 836.509 370.866 836.694L365.493 848.007C365.399 848.202 365.246 848.362 365.055 848.465C364.865 848.568 364.647 848.608 364.432 848.58Z" fill="#CB8591"/>
<path d="M351.126 652.16C351.067 651.831 351.067 651.494 351.126 651.165L352.321 647.979C355.084 640.426 361.804 621.326 362.006 613.014C362.013 597.458 361.039 581.918 359.092 566.484C361.366 567.698 363.573 569.367 365.947 569.367H451.779C454.314 569.06 456.742 568.165 458.87 566.754C457.195 582.115 456.447 597.563 456.63 613.014C456.849 621.326 463.553 640.426 466.332 647.979L467.511 651.165C467.598 651.489 467.626 651.826 467.595 652.16C467.595 656.375 441.606 659.797 409.369 659.864C377.131 659.932 351.142 656.375 351.142 652.16H351.126Z" fill="#F9B42F"/>
<path d="M350.655 538.297C354.815 520.41 364.988 480.202 364.988 480.202C364.988 478.162 377.452 475.735 405.412 475.145V475.01H409.471H413.53V475.145C441.472 475.684 453.953 476.426 453.953 478.516C453.953 478.516 464.059 520.41 468.287 538.297C472.295 555.527 460.455 570.75 449.203 570.75H405.412L367.094 574.981C355.826 574.981 346.646 555.527 350.655 538.297Z" fill="#F9B42F"/>
<path d="M443.51 570.733C443.51 570.733 463.402 574.982 468.775 547.131C470.459 537.977 459.107 598.297 459.107 598.297C457.995 572.284 443.51 570.733 443.51 570.733Z" fill="#EAA724"/>
<path d="M399.701 470.76C397.664 472.482 395.246 473.692 392.647 474.289C390.049 474.886 387.345 474.854 384.762 474.194C382.178 473.534 379.79 472.267 377.794 470.496C375.799 468.726 374.255 466.505 373.291 464.017C370.562 465.336 367.578 466.045 364.548 466.095C361.517 466.144 358.512 465.533 355.741 464.303C353.019 463.064 350.604 461.24 348.665 458.962C346.726 456.684 345.312 454.006 344.523 451.12C342.23 450.923 340.035 450.103 338.174 448.748C336.312 447.393 334.856 445.555 333.963 443.432C332.96 441.279 332.54 438.9 332.744 436.533C332.948 434.167 333.769 431.895 335.125 429.945C332.32 428.672 329.86 426.747 327.947 424.331C326.034 421.915 324.724 419.078 324.126 416.054C323.615 413.091 323.83 410.049 324.755 407.188C325.679 404.328 327.284 401.735 329.432 399.634C325.07 395.385 322.846 386.467 324.227 380.516C324.947 377.545 326.405 374.805 328.466 372.55C330.528 370.296 333.125 368.599 336.018 367.619C335.873 364.204 336.059 360.782 336.573 357.403C337.092 354.378 338.568 351.6 340.784 349.479C344.911 345.854 351.008 345.972 356.482 346.276C357.021 339.87 358.975 334.374 364.668 331.39C367.542 329.907 370.738 329.16 373.972 329.216C377.205 329.272 380.373 330.129 383.195 331.71C388.703 326.754 398.977 322.623 405.226 326.652C410.733 323.011 419.29 321.173 425.589 323.196C428.732 324.235 431.607 325.955 434.008 328.234C436.41 330.513 438.28 333.294 439.484 336.38C442.92 335.84 446.431 336.043 449.781 336.977C453.131 337.911 456.242 339.552 458.904 341.792C461.571 343.994 463.73 346.749 465.233 349.865C466.736 352.982 467.548 356.387 467.612 359.847C474.265 366.22 476.32 378.695 471.587 386.602C474.736 388.838 477.38 391.712 479.348 395.038C481.315 398.363 482.562 402.066 483.007 405.905C483.272 409.481 482.719 413.07 481.391 416.4C480.063 419.73 477.995 422.713 475.343 425.124C476.472 429.81 474.703 435.458 472.311 439.656C469.876 443.882 465.935 447.031 461.279 448.473C460.699 451.714 459.425 454.79 457.544 457.491C455.663 460.192 453.219 462.453 450.382 464.118C447.65 465.477 444.637 466.177 441.586 466.159C438.535 466.141 435.531 465.408 432.814 464.017C431.517 467.163 429.485 469.951 426.889 472.148C424.292 474.346 421.207 475.887 417.892 476.644C414.61 477.262 411.226 477.047 408.048 476.019C404.871 474.991 402.001 473.183 399.701 470.76Z" fill="#2C2A46"/>
<path d="M344.807 491.481C343.817 483.976 370.796 474.222 405.065 469.694C439.335 465.166 467.918 467.579 468.908 475.083C469.897 482.588 442.919 492.342 408.649 496.87C374.38 501.398 345.797 498.985 344.807 491.481Z" fill="#F9B42F"/>
<path d="M408.174 488.142C401.671 488.142 396.4 483.794 396.4 478.431C396.4 473.068 401.671 468.721 408.174 468.721C414.676 468.721 419.947 473.068 419.947 478.431C419.947 483.794 414.676 488.142 408.174 488.142Z" fill="#CB8591"/>
<path fill-rule="evenodd" clip-rule="evenodd" d="M408.174 469.564C414.371 469.564 419.105 473.679 419.105 478.431C419.105 483.184 414.371 487.299 408.174 487.299C401.977 487.299 397.242 483.184 397.242 478.431C397.242 473.679 401.977 469.564 408.174 469.564ZM420.789 478.431C420.789 472.458 414.981 467.878 408.174 467.878C401.366 467.878 395.558 472.458 395.558 478.431C395.558 484.405 401.366 488.985 408.174 488.985C414.981 488.985 420.789 484.405 420.789 478.431Z" fill="#CB8591"/>
<path d="M407.231 450.564H409.134C411.723 450.566 414.304 450.284 416.831 449.721V471.941C416.831 472.96 416.631 473.968 416.241 474.909C415.852 475.85 415.281 476.705 414.562 477.425C413.842 478.145 412.988 478.716 412.048 479.106C411.108 479.496 410.101 479.696 409.083 479.696H407.281C405.226 479.696 403.256 478.879 401.803 477.425C400.35 475.97 399.533 473.998 399.533 471.941V449.671C402.06 450.243 404.64 450.542 407.231 450.564Z" fill="#CB8591"/>
<path d="M416.797 455.791V462.197C416.797 462.197 414.927 459.028 408.14 458.994C401.352 458.96 399.499 462.517 399.499 462.517V454.729L416.797 454.425V455.791Z" fill="#A8747D"/>
<path d="M371.27 381.292V419.696C371.252 424.428 372.17 429.116 373.971 433.491C375.772 437.866 378.42 441.841 381.763 445.187C385.106 448.533 389.077 451.183 393.448 452.986C397.819 454.788 402.503 455.707 407.23 455.689H409.133C411.722 455.697 414.303 455.42 416.831 454.863C424.84 453.103 432.009 448.657 437.149 442.261C442.289 435.866 445.092 427.904 445.093 419.696V381.292C445.093 371.746 441.305 362.591 434.561 355.841C427.817 349.091 418.671 345.299 409.133 345.299H407.23C397.693 345.299 388.546 349.091 381.803 355.841C375.059 362.591 371.27 371.746 371.27 381.292Z" fill="#CB8591"/>
<path d="M359.194 402.837C358.735 404.225 358.577 405.695 358.731 407.148C358.885 408.602 359.347 410.006 360.087 411.267C360.786 412.445 361.769 413.43 362.945 414.131C364.122 414.831 365.456 415.226 366.824 415.279C366.319 417.892 364.752 421.179 365.325 423.708C365.898 426.237 367.902 428.766 370.294 428.597C372.685 428.429 374.454 426.018 374.892 423.54C375.172 420.938 374.926 418.306 374.168 415.802C376.073 413.774 377.474 411.325 378.255 408.653C379.037 405.981 379.177 403.163 378.665 400.426C382.859 401.253 387.541 399.348 390.977 396.515C394.546 393.484 396.823 389.202 397.344 384.546C398.859 385.963 400.698 386.988 402.701 387.529C404.704 388.069 406.808 388.11 408.83 387.648C411.071 387.192 413.187 386.257 415.033 384.907C416.879 383.557 418.411 381.823 419.526 379.825C422.101 384.4 426.344 387.8 431.366 389.317C433.565 389.84 435.854 389.849 438.057 389.343C440.259 388.837 442.316 387.83 444.066 386.4C444.232 388.305 445.109 390.077 446.524 391.362C447.939 392.646 449.786 393.349 451.696 393.329C455.351 393.329 458.703 390.598 460.421 387.007C462.04 383.269 462.577 379.15 461.97 375.122C460.555 362.865 452.572 352.396 442.82 346.58C433.068 340.764 421.749 339.061 410.7 339.061C400.325 339.061 389.697 340.578 380.501 345.956C368.71 352.851 360.289 365.58 355.236 379.37C353.751 383.016 352.929 386.898 352.811 390.834C352.962 394.779 356.364 400.46 359.194 402.837Z" fill="#2C2A46"/>
<path d="M378.26 429.44C378.26 429.44 378.614 413.172 369.553 411.486C360.491 409.8 360.659 421.887 365.695 426.507C370.732 431.126 378.26 429.44 378.26 429.44Z" fill="#CB8591"/>
<path d="M389.882 577.257C389.882 577.257 364.887 584.219 357.122 565.034C353.619 556.386 362.343 604.18 362.343 604.18C363.438 578.218 389.882 577.257 389.882 577.257Z" fill="#DF9D1E"/>
<path fill-rule="evenodd" clip-rule="evenodd" d="M457.16 470.401C450.924 472.108 447.252 478.553 448.958 484.794L459.933 481.789C448.958 484.794 448.958 484.795 448.958 484.795L449.091 485.278C449.176 485.588 449.302 486.044 449.466 486.635C449.795 487.815 450.275 489.532 450.888 491.692C452.113 496.01 453.868 502.104 455.992 509.225C460.232 523.432 465.985 541.864 471.962 558.456C474.155 564.543 480.862 567.698 486.944 565.503C493.026 563.308 496.178 556.594 493.985 550.507C488.223 534.511 482.613 516.553 478.425 502.518C476.336 495.518 474.611 489.527 473.409 485.291C472.809 483.174 472.339 481.496 472.021 480.351C471.862 479.779 471.74 479.34 471.659 479.046L471.54 478.611" fill="#F9B42F"/>
<path d="M512.364 509.772L539.532 526.934L568.923 478.719L542.345 461.877L512.364 509.772Z" fill="#D2DFE6"/>
<path d="M548.358 524.338L510.899 501.09C509.516 500.244 507.856 499.978 506.279 500.351C504.702 500.723 503.336 501.704 502.477 503.079L370.731 704.405C369.216 706.625 368.27 709.184 367.976 711.857C367.682 714.529 368.05 717.233 369.047 719.73C371.371 725.563 376.542 733.453 387.726 742.286C399.651 751.694 413.142 751.323 421.193 749.89C423.313 749.524 425.323 748.683 427.072 747.431C428.822 746.179 430.267 744.547 431.299 742.657L499.85 616.015L530.74 563.838L550.328 532.869C550.761 532.18 551.054 531.412 551.189 530.609C551.324 529.807 551.3 528.986 551.116 528.193C550.933 527.4 550.595 526.651 550.122 525.99C549.648 525.328 549.049 524.767 548.358 524.338Z" fill="#2CC3D5"/>
<path d="M852.846 200.483C872.942 236.414 881.943 277.502 878.709 318.553C875.475 359.604 860.152 398.773 834.678 431.107C809.204 463.442 774.723 487.489 735.595 500.209C696.467 512.929 654.449 513.749 614.855 502.568C575.261 491.386 539.869 468.703 513.154 437.388C486.439 406.073 469.601 367.533 464.769 326.639C459.937 285.746 467.329 244.337 486.009 207.649C504.689 170.961 533.819 140.64 569.715 120.522C593.55 107.161 619.782 98.6309 646.911 95.4184C674.041 92.2058 701.537 94.3741 727.829 101.799C754.121 109.225 778.694 121.762 800.145 138.694C821.595 155.626 839.504 176.622 852.846 200.483ZM828.912 213.97C811.472 182.766 785.177 157.44 753.355 141.195C721.533 124.951 685.612 118.518 650.136 122.71C614.66 126.901 581.224 141.53 554.055 164.745C526.887 187.959 507.207 218.718 497.505 253.129C487.803 287.54 488.515 324.058 499.551 358.064C510.587 392.07 531.451 422.037 559.504 444.173C587.556 466.309 621.538 479.62 657.15 482.423C692.762 485.226 728.405 477.395 759.57 459.92C801.35 436.487 832.121 397.403 845.115 351.265C858.11 305.126 852.263 255.71 828.862 213.885L828.912 213.97Z" fill="#D2DFE6"/>
<g opacity="0.5" filter="url(#filter1_f_10272_1613)">
<path d="M692.016 146.228C693.713 145.094 695.684 144.437 697.722 144.328C705.693 143.714 713.699 144.897 721.153 147.79C728.606 150.683 735.316 155.212 740.79 161.044C742.744 163.355 743.719 166.339 743.508 169.359C743.297 172.379 741.916 175.197 739.66 177.213C737.403 179.23 734.449 180.284 731.427 180.153C728.405 180.021 725.554 178.714 723.481 176.509C721.423 174.19 713.552 166.679 699.039 167.508C696.491 167.656 693.965 166.957 691.855 165.521C689.744 164.085 688.166 161.992 687.365 159.566C686.565 157.141 686.587 154.518 687.428 152.107C688.269 149.695 689.882 147.628 692.016 146.228Z" fill="#F8FBFB"/>
</g>
<g opacity="0.5" filter="url(#filter2_f_10272_1613)">
<path d="M763.274 185.991C765.483 184.546 768.118 183.896 770.745 184.149C773.372 184.401 775.835 185.541 777.728 187.381C809.564 218.366 827.82 260.725 828.491 305.166C829.162 349.607 812.194 392.499 781.309 424.433C780.248 425.527 778.982 426.4 777.584 427.003C776.186 427.607 774.682 427.929 773.16 427.951C771.637 427.973 770.125 427.695 768.71 427.132C767.295 426.569 766.004 425.733 764.912 424.671C763.82 423.609 762.947 422.342 762.344 420.943C761.741 419.543 761.42 418.038 761.397 416.514C761.375 414.99 761.653 413.477 762.216 412.06C762.778 410.644 763.614 409.352 764.675 408.259C791.26 380.723 805.865 343.766 805.291 305.477C804.718 267.188 789.013 230.686 761.615 203.96C760.523 202.899 759.651 201.632 759.049 200.233C758.447 198.834 758.127 197.33 758.107 195.807C758.086 194.284 758.366 192.772 758.93 191.358C759.495 189.943 760.332 188.654 761.395 187.564C761.966 186.976 762.596 186.45 763.274 185.991Z" fill="#F8FBFB"/>
</g>
<path d="M509.096 600.32C513.209 599.978 517.214 598.833 520.887 596.948C542.446 586.529 565.201 552.003 570.776 533.728C573.016 526.412 571.146 508.592 569.849 498.612C569.487 495.84 568.04 493.325 565.826 491.621C563.612 489.917 560.812 489.163 558.042 489.525C555.273 489.887 552.76 491.336 551.058 493.552C549.355 495.768 548.602 498.571 548.964 501.343C550.311 511.677 551.069 523.023 550.648 526.951C551.076 527.881 551.265 528.904 551.198 529.925C551.13 530.947 550.808 531.936 550.261 532.801L530.74 563.838L509.096 600.32Z" fill="#CB8591"/>
<path fill-rule="evenodd" clip-rule="evenodd" d="M354.632 485.226C348.856 484.527 343.606 488.646 342.907 494.428L353.366 495.695L363.825 496.962C364.524 491.181 360.409 485.926 354.632 485.226ZM438.972 638.077L438.928 638.068L438.76 638.032C438.608 638 438.375 637.95 438.068 637.883C437.452 637.75 436.537 637.548 435.363 637.282C433.014 636.748 429.637 635.957 425.561 634.931C417.39 632.876 406.506 629.904 395.521 626.221C384.444 622.507 373.694 618.21 365.574 613.597C361.512 611.289 358.463 609.099 356.419 607.127C354.37 605.15 353.956 603.997 353.896 603.759C353.901 603.775 353.899 603.725 353.893 603.601C353.871 603.133 353.799 601.605 353.89 598.522C353.994 595.013 354.264 590.429 354.663 585.078C355.46 574.395 356.741 561.059 358.102 547.967C359.46 534.893 360.892 522.139 361.984 512.648C362.53 507.904 362.99 503.979 363.315 501.241C363.477 499.873 363.605 498.801 363.692 498.072L363.825 496.962C363.825 496.962 363.825 496.962 353.366 495.695C342.907 494.428 342.907 494.428 342.907 494.429L342.771 495.563C342.683 496.3 342.554 497.381 342.39 498.76C342.064 501.517 341.6 505.465 341.052 510.235C339.954 519.771 338.514 532.608 337.144 545.785C335.776 558.944 334.471 572.519 333.651 583.507C333.242 588.99 332.946 593.931 332.829 597.898C332.726 601.363 332.693 605.413 333.301 608.22L333.303 608.228C334.572 614.059 338.091 618.736 341.795 622.31C345.566 625.949 350.25 629.142 355.173 631.939C365.025 637.536 377.254 642.338 388.828 646.219C400.495 650.131 411.935 653.25 420.425 655.385C424.681 656.456 428.218 657.285 430.702 657.849C431.944 658.131 432.924 658.347 433.6 658.494C433.938 658.567 434.2 658.624 434.381 658.662L434.591 658.706L434.649 658.719L434.666 658.722L434.672 658.723C434.674 658.724 434.675 658.724 436.823 648.401L434.675 658.724C440.372 659.912 445.951 656.252 447.137 650.551C448.324 644.85 444.668 639.265 438.973 638.077L438.972 638.077Z" fill="#CB8591"/>
<path fill-rule="evenodd" clip-rule="evenodd" d="M355.771 484.43C349.369 483.527 343.448 487.989 342.546 494.397L354.137 496.032C342.546 494.397 342.546 494.396 342.546 494.397L342.479 494.871C342.436 495.179 342.373 495.632 342.292 496.22C342.13 497.394 341.895 499.105 341.604 501.257C341.023 505.559 340.217 511.629 339.318 518.709C337.523 532.844 335.344 551.099 333.844 567.362C333.249 573.806 337.986 579.512 344.424 580.107C350.861 580.702 356.562 575.961 357.156 569.517C358.62 553.648 360.76 535.699 362.543 521.664C363.432 514.658 364.23 508.651 364.805 504.398C365.092 502.272 365.323 500.585 365.483 499.431C365.563 498.855 365.624 498.412 365.666 498.114L365.728 497.669C365.728 497.669 365.728 497.668 365.7 497.664L365.728 497.669C366.631 491.261 362.173 485.334 355.771 484.43Z" fill="#F9B42F"/>
<path d="M397.466 382.237C397.564 383.689 397.545 385.145 397.408 386.587C397.287 388.041 397.048 389.478 396.694 390.882C396.354 392.304 395.866 393.677 395.237 394.973C394.917 395.622 394.559 396.248 394.164 396.845C393.951 397.137 393.732 397.424 393.513 397.711C393.403 397.854 393.3 398.002 393.178 398.137L392.805 398.521C390.789 400.489 388.431 402.015 385.855 403.018C384.594 403.535 383.295 403.95 381.971 404.259C380.654 404.576 379.312 404.771 377.958 404.841C380.564 404.244 383.099 403.364 385.524 402.213C386.722 401.649 387.88 400.997 388.99 400.262C389.271 400.083 389.533 399.882 389.806 399.683C390.078 399.485 390.349 399.303 390.597 399.082L391.365 398.442C391.612 398.221 391.824 397.974 392.06 397.749L392.411 397.403C392.52 397.282 392.615 397.146 392.717 397.015L393.34 396.189C393.69 395.611 394.071 395.059 394.367 394.442C394.995 393.218 395.507 391.928 395.897 390.59C396.315 389.246 396.648 387.872 396.894 386.475C397.153 385.076 397.344 383.661 397.466 382.237Z" fill="#2C2A46"/>
<path d="M362.559 468.215C361.116 468.026 359.694 467.72 358.309 467.3C356.908 466.894 355.548 466.376 354.243 465.752C352.917 465.138 351.67 464.388 350.524 463.515C349.951 463.073 349.409 462.598 348.902 462.092C348.659 461.826 348.421 461.554 348.183 461.283C348.064 461.147 347.939 461.017 347.831 460.871L347.529 460.428C345.999 458.063 344.97 455.447 344.496 452.722C344.239 451.382 344.089 450.026 344.047 448.665C343.996 447.311 344.07 445.956 344.268 444.613C344.339 447.288 344.701 449.949 345.35 452.556C345.665 453.842 346.076 455.107 346.577 456.341C346.696 456.653 346.842 456.95 346.983 457.256C347.123 457.563 347.247 457.865 347.415 458.151L347.891 459.031C348.058 459.317 348.258 459.574 348.431 459.85L348.702 460.263C348.799 460.393 348.913 460.514 349.021 460.64L349.707 461.414C350.205 461.871 350.67 462.354 351.216 462.766C352.291 463.624 353.453 464.381 354.687 465.028C355.92 465.703 357.201 466.301 358.52 466.818C359.839 467.348 361.187 467.814 362.559 468.215Z" fill="#2C2A46"/>
<path d="M462.507 450.043C463.863 449.514 465.17 448.877 466.416 448.139C467.679 447.41 468.876 446.582 469.995 445.664C471.136 444.752 472.169 443.725 473.074 442.603C473.524 442.038 473.937 441.447 474.31 440.835C474.482 440.518 474.649 440.197 474.815 439.877C474.898 439.717 474.988 439.56 475.058 439.393L475.246 438.891C476.167 436.228 476.544 433.442 476.354 430.682C476.284 429.319 476.107 427.967 475.823 426.635C475.549 425.308 475.154 424.01 474.642 422.754C475.211 425.368 475.494 428.039 475.485 430.725C475.485 432.05 475.389 433.376 475.196 434.694C475.155 435.025 475.084 435.348 475.02 435.68C474.957 436.011 474.908 436.334 474.814 436.652L474.561 437.62C474.467 437.938 474.334 438.235 474.232 438.545L474.067 439.01C474.004 439.16 473.923 439.304 473.848 439.452L473.365 440.368C472.991 440.931 472.655 441.511 472.223 442.041C471.384 443.131 470.436 444.145 469.392 445.067C468.355 446.018 467.254 446.904 466.096 447.721C464.941 448.551 463.743 449.326 462.507 450.043Z" fill="#2C2A46"/>
<path d="M483.378 418.985C484.034 417.249 484.547 415.465 484.912 413.654C485.3 411.834 485.538 409.992 485.624 408.148C485.733 406.287 485.643 404.431 485.354 402.616C485.203 401.706 484.996 400.81 484.734 399.935C484.581 399.5 484.42 399.069 484.259 398.638C484.178 398.422 484.106 398.204 484.008 397.994L483.693 397.387C481.959 394.241 479.643 391.507 476.869 389.331C475.519 388.235 474.087 387.249 472.585 386.382C471.095 385.509 469.529 384.775 467.902 384.189C470.863 385.881 473.632 387.892 476.168 390.192C477.422 391.323 478.595 392.546 479.678 393.854C479.957 394.175 480.202 394.518 480.461 394.861C480.721 395.204 480.984 395.526 481.205 395.887L481.906 396.952C482.127 397.314 482.294 397.693 482.5 398.054L482.8 398.607C482.888 398.795 482.955 398.995 483.031 399.193L483.486 400.432C483.7 401.267 483.962 402.081 484.096 402.943C484.411 404.669 484.561 406.433 484.544 408.211C484.558 410.005 484.458 411.806 484.243 413.601C484.043 415.404 483.754 417.202 483.378 418.985Z" fill="#2C2A46"/>
<path d="M420.919 377.978C420.556 379.164 420.098 380.316 419.551 381.421C419.012 382.541 418.386 383.611 417.678 384.62C416.976 385.648 416.17 386.59 415.276 387.43C414.825 387.849 414.35 388.238 413.854 388.593C413.596 388.76 413.334 388.921 413.073 389.083C412.942 389.164 412.815 389.25 412.677 389.32L412.264 389.512C410.063 390.464 407.723 390.96 405.37 390.973C404.209 391 403.05 390.935 401.903 390.778C400.76 390.629 399.633 390.376 398.535 390.019C400.789 390.338 403.073 390.409 405.351 390.232C406.475 390.148 407.594 389.982 408.7 389.735C408.979 389.679 409.248 389.598 409.525 389.523C409.802 389.448 410.073 389.386 410.337 389.286L411.142 389.01C411.406 388.91 411.65 388.778 411.906 388.672L412.29 388.503C412.413 388.439 412.531 388.361 412.651 388.288L413.398 387.82C413.852 387.466 414.322 387.144 414.745 386.743C415.617 385.961 416.416 385.09 417.133 384.145C417.874 383.203 418.556 382.211 419.176 381.176C419.807 380.141 420.389 379.074 420.919 377.978Z" fill="#2C2A46"/>
<path d="M327.894 431.352C326.935 430.102 326.081 428.778 325.342 427.396C324.58 426.012 323.935 424.574 323.414 423.097C322.868 421.611 322.487 420.081 322.278 418.535C322.177 417.758 322.126 416.98 322.124 416.204C322.142 415.814 322.167 415.424 322.193 415.034C322.205 414.839 322.21 414.643 322.239 414.449L322.345 413.878C322.984 410.896 324.196 408.105 325.917 405.657C326.745 404.434 327.667 403.282 328.675 402.208C329.672 401.133 330.765 400.152 331.943 399.277C329.952 401.378 328.194 403.692 326.697 406.184C325.955 407.41 325.302 408.693 324.742 410.021C324.595 410.351 324.48 410.69 324.353 411.032C324.226 411.375 324.091 411.701 324 412.048L323.691 413.086C323.6 413.434 323.557 413.783 323.478 414.128L323.37 414.65C323.345 414.825 323.339 415.004 323.326 415.183L323.259 416.302C323.29 417.033 323.277 417.758 323.38 418.492C323.547 419.972 323.857 421.442 324.307 422.882C324.734 424.344 325.257 425.783 325.872 427.188C326.476 428.605 327.152 429.995 327.894 431.352Z" fill="#2C2A46"/>
<path d="M335.61 363.511C335.89 361.96 336.294 360.437 336.818 358.959C337.329 357.465 337.959 356.019 338.7 354.64C339.432 353.236 340.307 351.925 341.309 350.73C341.816 350.133 342.357 349.572 342.929 349.048C343.23 348.799 343.535 348.556 343.841 348.312C343.994 348.19 344.141 348.063 344.304 347.953L344.798 347.648C347.432 346.116 350.311 345.137 353.278 344.764C354.739 344.556 356.212 344.463 357.683 344.488C359.149 344.503 360.609 344.654 362.048 344.938C359.156 344.876 356.263 345.13 353.413 345.697C352.008 345.973 350.62 346.351 349.261 346.83C348.919 346.942 348.591 347.085 348.252 347.221C347.914 347.358 347.581 347.477 347.263 347.643L346.288 348.113C345.97 348.279 345.683 348.482 345.375 348.655L344.916 348.927C344.77 349.025 344.634 349.142 344.493 349.252L343.621 349.955C343.101 350.47 342.556 350.948 342.082 351.518C341.1 352.636 340.222 353.855 339.459 355.157C338.666 356.457 337.954 357.812 337.328 359.212C336.688 360.613 336.114 362.047 335.61 363.511Z" fill="#2C2A46"/>
<path fill-rule="evenodd" clip-rule="evenodd" d="M417.288 124.665C416.649 123.961 415.559 123.909 414.856 124.55L410.085 128.892C409.381 129.532 409.33 130.622 409.969 131.327L414.307 136.102C414.947 136.806 416.036 136.858 416.74 136.217L421.511 131.876C422.214 131.235 422.266 130.145 421.626 129.44L417.288 124.665ZM414.116 123.736C415.269 122.687 417.053 122.771 418.102 123.925L422.44 128.7C423.488 129.854 423.403 131.64 422.25 132.689L417.48 137.031C416.327 138.081 414.542 137.996 413.494 136.842L409.156 132.067C408.108 130.913 408.193 129.127 409.346 128.078L414.116 123.736Z" fill="#E7EEF1"/>
<path fill-rule="evenodd" clip-rule="evenodd" d="M417.288 124.665C416.649 123.961 415.559 123.909 414.856 124.55L410.085 128.892C409.381 129.532 409.33 130.622 409.969 131.327L414.307 136.102C414.947 136.806 416.036 136.858 416.74 136.217L421.511 131.876C422.214 131.235 422.266 130.145 421.626 129.44L417.288 124.665ZM414.116 123.736C415.269 122.687 417.053 122.771 418.102 123.925L422.44 128.7C423.488 129.854 423.403 131.64 422.25 132.689L417.48 137.031C416.327 138.081 414.542 137.996 413.494 136.842L409.156 132.067C408.108 130.913 408.193 129.127 409.346 128.078L414.116 123.736Z" fill="#E7EEF1"/>
<path fill-rule="evenodd" clip-rule="evenodd" d="M504.872 80.8334C504.233 80.129 503.143 80.0772 502.44 80.7177L497.669 85.0596C496.965 85.7001 496.914 86.7903 497.553 87.4946L501.891 92.2697C502.531 92.9741 503.62 93.0258 504.324 92.3854L509.095 88.0435C509.798 87.403 509.85 86.3128 509.21 85.6084L504.872 80.8334ZM501.7 79.9037C502.853 78.8545 504.637 78.9393 505.686 80.0932L510.024 84.8683C511.072 86.0222 510.987 87.8082 509.834 88.8574L505.064 93.1994C503.911 94.2486 502.126 94.1637 501.078 93.0098L496.74 88.2348C495.692 87.0809 495.777 85.2949 496.93 84.2456L501.7 79.9037Z" fill="#E7EEF1"/>
<path d="M436.077 149.695L432.606 145.875C431.931 145.132 430.782 145.077 430.039 145.753L426.223 149.227C425.48 149.903 425.425 151.053 426.101 151.796L429.571 155.616C430.246 156.36 431.396 156.414 432.138 155.738L435.955 152.265C436.697 151.589 436.752 150.439 436.077 149.695Z" fill="#E7EEF1"/>
<path d="M297.748 279.596L294.352 275.71C293.691 274.954 292.564 274.9 291.835 275.59L288.086 279.137C287.356 279.827 287.301 281 287.962 281.756L291.358 285.642C292.019 286.399 293.146 286.452 293.875 285.762L297.624 282.215C298.353 281.525 298.409 280.353 297.748 279.596Z" fill="#E7EEF1"/>
<path fill-rule="evenodd" clip-rule="evenodd" d="M667.418 655.896C665.861 655.896 664.599 657.159 664.599 658.718C664.599 660.276 665.861 661.539 667.418 661.539C668.975 661.539 670.237 660.276 670.237 658.718C670.237 657.159 668.975 655.896 667.418 655.896ZM663.5 658.718C663.5 656.552 665.254 654.796 667.418 654.796C669.582 654.796 671.336 656.552 671.336 658.718C671.336 660.884 669.582 662.64 667.418 662.64C665.254 662.64 663.5 660.884 663.5 658.718Z" fill="#E7EEF1"/>
<path d="M685.138 660.602L681.742 656.716C681.081 655.96 679.954 655.906 679.225 656.596L675.476 660.143C674.747 660.833 674.691 662.006 675.352 662.762L678.748 666.648C679.409 667.404 680.536 667.458 681.265 666.768L685.014 663.221C685.743 662.531 685.799 661.358 685.138 660.602Z" fill="#E7EEF1"/>
<path fill-rule="evenodd" clip-rule="evenodd" d="M301.924 261.404C300.367 261.404 299.105 262.668 299.105 264.226C299.105 265.784 300.367 267.048 301.924 267.048C303.481 267.048 304.743 265.784 304.743 264.226C304.743 262.668 303.481 261.404 301.924 261.404ZM298.006 264.226C298.006 262.06 299.76 260.304 301.924 260.304C304.088 260.304 305.842 262.06 305.842 264.226C305.842 266.392 304.088 268.148 301.924 268.148C299.76 268.148 298.006 266.392 298.006 264.226Z" fill="#E7EEF1"/>
<path d="M498.988 109.126C500.848 109.126 502.356 107.617 502.356 105.755C502.356 103.892 500.848 102.383 498.988 102.383C497.127 102.383 495.619 103.892 495.619 105.755C495.619 107.617 497.127 109.126 498.988 109.126Z" fill="#E7EEF1"/>
<path d="M969.422 314.145C970.636 314.145 971.62 313.16 971.62 311.944C971.62 310.729 970.636 309.744 969.422 309.744C968.208 309.744 967.224 310.729 967.224 311.944C967.224 313.16 968.208 314.145 969.422 314.145Z" fill="#E7EEF1"/>
<path fill-rule="evenodd" clip-rule="evenodd" d="M987.227 621.089C982.995 620.091 978.757 622.716 977.76 626.952C976.764 631.188 979.386 635.43 983.618 636.428C987.85 637.425 992.088 634.8 993.085 630.564C994.081 626.328 991.459 622.086 987.227 621.089ZM976.69 626.7C977.826 621.873 982.656 618.881 987.479 620.018C992.301 621.155 995.29 625.989 994.155 630.816C993.019 635.643 988.189 638.635 983.366 637.498C978.543 636.362 975.555 631.527 976.69 626.7Z" fill="#E7EEF1"/>
<path d="M974.559 641.989L972.143 637.427C971.673 636.539 970.588 636.228 969.72 636.733L965.259 639.325C964.391 639.829 964.069 640.958 964.539 641.846L966.954 646.408C967.424 647.295 968.509 647.606 969.377 647.102L973.838 644.509C974.706 644.005 975.029 642.876 974.559 641.989Z" fill="#E7EEF1"/>
<path d="M980.965 613.176C982.147 613.455 983.33 612.722 983.609 611.539C983.887 610.356 983.155 609.171 981.973 608.893C980.791 608.614 979.607 609.347 979.329 610.53C979.051 611.713 979.783 612.898 980.965 613.176Z" fill="#E7EEF1"/>
<path fill-rule="evenodd" clip-rule="evenodd" d="M988.267 311.797C987.628 311.092 986.538 311.041 985.835 311.681L981.064 316.023C980.36 316.663 980.309 317.754 980.948 318.458L985.286 323.233C985.926 323.937 987.015 323.989 987.719 323.349L992.49 319.007C993.193 318.366 993.245 317.276 992.605 316.572L988.267 311.797ZM985.095 310.867C986.248 309.818 988.032 309.903 989.081 311.057L993.419 315.832C994.467 316.986 994.382 318.772 993.229 319.821L988.459 324.163C987.306 325.212 985.521 325.127 984.473 323.973L980.135 319.198C979.087 318.044 979.172 316.258 980.325 315.209L985.095 310.867Z" fill="#E7EEF1"/>
<path d="M990.212 382.345L986.742 378.525C986.066 377.781 984.917 377.727 984.174 378.403L980.358 381.876C979.615 382.552 979.561 383.702 980.236 384.446L983.706 388.266C984.382 389.009 985.531 389.064 986.274 388.388L990.09 384.914C990.833 384.238 990.887 383.088 990.212 382.345Z" fill="#E7EEF1"/>
<path opacity="0.3" d="M802.314 513.58C802.314 508.501 806.428 504.384 811.502 504.384H953.902C958.975 504.384 963.089 508.501 963.089 513.58V607.835C963.089 612.914 958.975 617.031 953.902 617.031H811.502C806.428 617.031 802.314 612.914 802.314 607.835V513.58Z" fill="#C3EEF4"/>
<path opacity="0.3" d="M811.502 525.075C811.502 519.996 815.616 515.879 820.69 515.879H963.09C968.163 515.879 972.277 519.996 972.277 525.075V619.33C972.277 624.408 968.163 628.525 963.09 628.525H820.69C815.616 628.525 811.502 624.408 811.502 619.33V525.075Z" fill="#C3EEF4"/>
<path d="M795.425 504.385C795.425 499.306 799.538 495.189 804.612 495.189H947.012C952.086 495.189 956.199 499.306 956.199 504.385V598.64C956.199 603.719 952.086 607.836 947.012 607.836H804.612C799.538 607.836 795.425 603.719 795.425 598.64V504.385Z" fill="#F8FBFB"/>
<path d="M795.425 504.385C795.425 499.306 799.538 495.189 804.612 495.189H947.012C952.086 495.189 956.199 499.306 956.199 504.385V520.477H795.425V504.385Z" fill="#202C44"/>
<path d="M816.096 507.833C816.096 509.737 814.554 511.281 812.651 511.281C810.749 511.281 809.206 509.737 809.206 507.833C809.206 505.928 810.749 504.384 812.651 504.384C814.554 504.384 816.096 505.928 816.096 507.833Z" fill="#FF5A60"/>
<path d="M825.283 507.833C825.283 509.737 823.74 511.281 821.838 511.281C819.935 511.281 818.393 509.737 818.393 507.833C818.393 505.928 819.935 504.384 821.838 504.384C823.74 504.384 825.283 505.928 825.283 507.833Z" fill="#F9B42F"/>
<path d="M834.469 507.833C834.469 509.737 832.927 511.281 831.024 511.281C829.122 511.281 827.579 509.737 827.579 507.833C827.579 505.928 829.122 504.384 831.024 504.384C832.927 504.384 834.469 505.928 834.469 507.833Z" fill="#4DCB7B"/>
<path fill-rule="evenodd" clip-rule="evenodd" d="M868.529 558.604V545.596H871.778V558.604H868.529Z" fill="#DEE8EC"/>
<path fill-rule="evenodd" clip-rule="evenodd" d="M868.529 582.996V566.736H871.778V582.996H868.529Z" fill="#DEE8EC"/>
<path d="M847.41 534.864C847.41 532.709 849.156 530.962 851.309 530.962H892.248C894.401 530.962 896.147 532.709 896.147 534.864V543.32C896.147 545.475 894.401 547.222 892.248 547.222H851.309C849.156 547.222 847.41 545.475 847.41 543.32V534.864Z" fill="#E7EEF1"/>
<path d="M847.41 557.63C847.41 555.475 849.156 553.728 851.309 553.728H892.248C894.401 553.728 896.147 555.475 896.147 557.63V566.086C896.147 568.241 894.401 569.988 892.248 569.988H851.309C849.156 569.988 847.41 568.241 847.41 566.086V557.63Z" fill="#E7EEF1"/>
<path d="M847.41 580.395C847.41 578.239 849.156 576.492 851.309 576.492H892.248C894.401 576.492 896.147 578.239 896.147 580.395V588.85C896.147 591.006 894.401 592.753 892.248 592.753H851.309C849.156 592.753 847.41 591.006 847.41 588.85V580.395Z" fill="#E7EEF1"/>
<path d="M805.172 580.395C805.172 578.239 806.917 576.492 809.071 576.492H837.013C839.166 576.492 840.912 578.239 840.912 580.395V588.85C840.912 591.005 839.166 592.753 837.013 592.753H809.071C806.917 592.753 805.172 591.005 805.172 588.85V580.395Z" fill="#E7EEF1"/>
<path fill-rule="evenodd" clip-rule="evenodd" d="M821.417 537.466C821.417 536.568 822.145 535.84 823.042 535.84H852.284V539.092H824.667V550.475H821.417V537.466Z" fill="#DEE8EC"/>
<path d="M805.172 551.125C805.172 548.97 806.917 547.223 809.071 547.223H837.013C839.166 547.223 840.912 548.97 840.912 551.125V566.085C840.912 568.24 839.166 569.987 837.013 569.987H809.071C806.917 569.987 805.172 568.24 805.172 566.085V551.125Z" fill="#E7EEF1"/>
<path d="M941.634 537.468H909.143C907.349 537.468 905.894 538.924 905.894 540.72V586.249C905.894 588.045 907.349 589.501 909.143 589.501H941.634C943.428 589.501 944.883 588.045 944.883 586.249V540.72C944.883 538.924 943.428 537.468 941.634 537.468Z" fill="white"/>
<path d="M905.894 537.467C905.894 535.671 907.349 534.215 909.143 534.215H941.634C943.428 534.215 944.883 535.671 944.883 537.467V540.719H905.894V537.467Z" fill="#202C44"/>
<path fill-rule="evenodd" clip-rule="evenodd" d="M944.883 580.07H905.894V579.419H944.883V580.07Z" fill="#F5F8F9"/>
<path d="M918.891 569.312C918.891 567.89 920.042 566.737 921.463 566.737H939.062C940.482 566.737 941.634 567.89 941.634 569.312V572.812C941.634 573.049 941.442 573.241 941.206 573.241H921.463C920.042 573.241 918.891 572.088 918.891 570.666V569.312Z" fill="#E7EEF1"/>
<path d="M931.887 559.555C931.887 558.133 930.735 556.98 929.315 556.98H911.716C910.295 556.98 909.144 558.133 909.144 559.555V563.055C909.144 563.292 909.336 563.484 909.572 563.484H929.315C930.735 563.484 931.887 562.331 931.887 560.909V559.555Z" fill="#2CC3D5"/>
<path opacity="0.3" d="M318.853 198.964C318.853 194.103 322.789 190.163 327.646 190.163H429.966C434.822 190.163 438.759 194.103 438.759 198.964V265.374C438.759 270.235 434.823 274.175 429.966 274.175H327.646C322.789 274.175 318.853 270.235 318.853 265.374V198.964Z" fill="#C3EEF4"/>
<path opacity="0.3" d="M325.705 207.538C325.705 202.677 329.641 198.736 334.498 198.736H436.818C441.675 198.736 445.611 202.677 445.611 207.538V273.948C445.611 278.808 441.675 282.749 436.818 282.749H334.498C329.641 282.749 325.705 278.808 325.705 273.948V207.538Z" fill="#C3EEF4"/>
<path d="M313.714 192.106C313.714 187.245 317.651 183.305 322.507 183.305H424.828C429.684 183.305 433.621 187.245 433.621 192.106V258.516C433.621 263.377 429.684 267.317 424.828 267.317H322.507C317.651 267.317 313.714 263.377 313.714 258.516V192.106Z" fill="#F8FBFB"/>
<path d="M313.714 192.106C313.714 187.245 317.651 183.305 322.507 183.305H424.828C429.684 183.305 433.621 187.245 433.621 192.106V202.165H313.714V192.106Z" fill="#202C44"/>
<path d="M329.131 192.734C329.131 194.155 327.98 195.306 326.561 195.306C325.142 195.306 323.992 194.155 323.992 192.734C323.992 191.314 325.142 190.163 326.561 190.163C327.98 190.163 329.131 191.314 329.131 192.734Z" fill="#FF5A60"/>
<path d="M335.982 192.734C335.982 194.155 334.832 195.306 333.413 195.306C331.994 195.306 330.843 194.155 330.843 192.734C330.843 191.314 331.994 190.163 333.413 190.163C334.832 190.163 335.982 191.314 335.982 192.734Z" fill="#F9B42F"/>
<path d="M342.834 192.734C342.834 194.155 341.684 195.306 340.265 195.306C338.846 195.306 337.695 194.155 337.695 192.734C337.695 191.314 338.846 190.163 340.265 190.163C341.684 190.163 342.834 191.314 342.834 192.734Z" fill="#4DCB7B"/>
<path d="M363.471 216.332C363.471 214.189 365.206 212.452 367.347 212.452H421.13C423.27 212.452 425.005 214.189 425.005 216.332V250.296C425.005 252.438 423.27 254.175 421.13 254.175H367.347C365.206 254.175 363.471 252.438 363.471 250.296V216.332Z" fill="white"/>
<path d="M419.72 222.975H406.828C406.633 223.031 406.427 223.041 406.228 223.003C406.028 222.966 405.84 222.883 405.678 222.761C405.516 222.638 405.384 222.48 405.293 222.298C405.203 222.116 405.156 221.916 405.156 221.713C405.156 221.509 405.203 221.309 405.293 221.127C405.384 220.945 405.516 220.787 405.678 220.664C405.84 220.542 406.028 220.459 406.228 220.422C406.427 220.384 406.633 220.394 406.828 220.45H419.72C419.994 220.528 420.235 220.694 420.407 220.922C420.578 221.15 420.671 221.427 420.671 221.713C420.671 221.998 420.578 222.275 420.407 222.503C420.235 222.731 419.994 222.897 419.72 222.975Z" fill="#D2DFE6"/>
<path d="M419.72 226.949H406.828C406.633 227.005 406.427 227.015 406.228 226.978C406.028 226.94 405.84 226.857 405.678 226.735C405.516 226.613 405.384 226.454 405.293 226.272C405.203 226.09 405.156 225.89 405.156 225.687C405.156 225.483 405.203 225.283 405.293 225.101C405.384 224.919 405.516 224.761 405.678 224.638C405.84 224.516 406.028 224.433 406.228 224.396C406.427 224.359 406.633 224.368 406.828 224.424H419.72C419.994 224.502 420.235 224.668 420.407 224.896C420.578 225.124 420.671 225.401 420.671 225.687C420.671 225.972 420.578 226.25 420.407 226.477C420.235 226.705 419.994 226.871 419.72 226.949Z" fill="#D2DFE6"/>
<path d="M395.928 245.954H374.684C374.45 245.954 374.226 245.861 374.061 245.696C373.895 245.53 373.802 245.306 373.802 245.071V223.543C373.802 223.309 373.895 223.084 374.061 222.919C374.226 222.753 374.45 222.66 374.684 222.66C374.918 222.66 375.143 222.753 375.308 222.919C375.474 223.084 375.567 223.309 375.567 223.543V244.188H395.928C396.162 244.188 396.386 244.281 396.552 244.447C396.717 244.613 396.81 244.837 396.81 245.071C396.81 245.306 396.717 245.53 396.552 245.696C396.386 245.861 396.162 245.954 395.928 245.954Z" fill="#D2DFE6"/>
<path opacity="0.7" d="M383.983 240.232C383.45 240.247 382.927 240.092 382.488 239.791C378.412 236.585 375.964 239.486 375.871 239.614C375.681 239.825 375.417 239.955 375.134 239.976C374.851 239.997 374.571 239.909 374.352 239.728C374.132 239.548 373.991 239.29 373.957 239.008C373.923 238.726 373.998 238.442 374.168 238.214C374.208 238.166 378.085 233.556 383.802 238.007C384.093 238.144 385.073 238.007 386.391 235.711C388.844 231.455 393.423 228.726 393.617 228.611C393.869 228.463 394.17 228.42 394.453 228.494C394.736 228.567 394.979 228.75 395.128 229.002C395.276 229.255 395.318 229.556 395.245 229.839C395.172 230.123 394.989 230.366 394.737 230.514C394.693 230.536 390.458 233.075 388.301 236.815C387.163 238.788 385.915 239.905 384.587 240.192C384.388 240.225 384.185 240.238 383.983 240.232ZM383.798 237.998L383.833 238.025L383.798 237.998Z" fill="#2CC3D5"/>
<path opacity="0.8" d="M374.985 239.998C374.786 239.998 374.59 239.943 374.419 239.84C374.248 239.737 374.109 239.589 374.015 239.413C373.921 239.237 373.877 239.038 373.887 238.839C373.897 238.64 373.961 238.447 374.072 238.281C374.553 237.566 378.876 231.371 383.101 231.371H383.15C384.213 231.371 385.739 231.813 386.987 233.738C388.006 235.318 389.092 236.162 390.212 236.232C391.884 236.334 393.3 234.749 393.3 234.735C393.391 234.617 393.505 234.519 393.635 234.446C393.765 234.374 393.909 234.328 394.057 234.313C394.205 234.297 394.355 234.312 394.497 234.356C394.64 234.4 394.772 234.472 394.885 234.569C394.999 234.665 395.092 234.783 395.159 234.917C395.225 235.05 395.264 235.196 395.273 235.345C395.282 235.494 395.261 235.643 395.21 235.783C395.16 235.924 395.082 236.052 394.98 236.162C394.896 236.263 392.867 238.616 390.071 238.435C388.218 238.312 386.542 237.137 385.139 234.934C384.557 234.051 383.9 233.61 383.132 233.579H383.101C380.79 233.579 377.455 237.212 375.894 239.517C375.793 239.665 375.657 239.787 375.499 239.871C375.341 239.955 375.164 239.998 374.985 239.998Z" fill="#F9B42F"/>
<path d="M322.278 217.369L322.278 248.728C322.278 251.443 324.478 253.645 327.191 253.645L352.595 253.645C355.308 253.645 357.508 251.443 357.508 248.728L357.508 217.369C357.508 214.653 355.308 212.452 352.595 212.452L327.191 212.452C324.478 212.452 322.278 214.653 322.278 217.369Z" fill="white"/>
<path d="M339.883 233.997C343.547 233.997 346.517 231.024 346.517 227.356C346.517 223.688 343.547 220.715 339.883 220.715C336.218 220.715 333.248 223.688 333.248 227.356C333.248 231.024 336.218 233.997 339.883 233.997Z" fill="#B766F6"/>
<path fill-rule="evenodd" clip-rule="evenodd" d="M331.167 239.684C331.167 238.881 331.818 238.229 332.62 238.229H347.156C347.959 238.229 348.609 238.881 348.609 239.684C348.609 240.488 347.959 241.139 347.156 241.139H332.62C331.818 241.139 331.167 240.488 331.167 239.684Z" fill="#D2DFE6"/>
<path fill-rule="evenodd" clip-rule="evenodd" d="M333.668 245.382C333.668 244.579 334.319 243.927 335.122 243.927H344.643C345.446 243.927 346.097 244.579 346.097 245.382C346.097 246.185 345.446 246.837 344.643 246.837H335.122C334.319 246.837 333.668 246.185 333.668 245.382Z" fill="#D2DFE6"/>
<path fill-rule="evenodd" clip-rule="evenodd" d="M938.582 322.093L967.09 324.928C969.486 325.168 971.689 326.351 973.216 328.216C974.742 330.081 975.467 332.476 975.232 334.875L972.329 364.126C972.088 366.525 970.907 368.73 969.044 370.258C967.18 371.786 964.788 372.511 962.39 372.276L933.883 369.441C932.696 369.323 931.604 368.738 930.847 367.814C930.091 366.89 929.733 365.703 929.85 364.514L930.174 361.249L924.424 360.678C923.799 360.615 923.224 360.307 922.826 359.821C922.428 359.335 922.239 358.71 922.301 358.084C922.364 357.459 922.671 356.883 923.157 356.485C923.643 356.087 924.267 355.898 924.892 355.96L930.643 356.532L931.607 346.813L925.857 346.241C925.232 346.179 924.657 345.871 924.259 345.384C923.861 344.898 923.672 344.273 923.734 343.648C923.796 343.022 924.104 342.447 924.59 342.048C925.076 341.65 925.7 341.461 926.325 341.523L932.075 342.095L933.04 332.376L927.29 331.804C926.665 331.742 926.09 331.434 925.692 330.948C925.294 330.462 925.105 329.837 925.167 329.211C925.229 328.586 925.537 328.01 926.023 327.612C926.509 327.213 927.133 327.024 927.758 327.087L933.508 327.658L933.66 326.13C933.778 324.941 934.363 323.848 935.286 323.091C936.209 322.334 937.395 321.975 938.582 322.093ZM966.645 367.327C967.731 366.436 968.419 365.15 968.558 363.751L971.461 334.5C971.6 333.101 971.178 331.705 970.288 330.617C969.398 329.53 968.113 328.841 966.715 328.702L938.208 325.867C938.02 325.849 937.833 325.905 937.687 326.025C937.542 326.144 937.449 326.317 937.431 326.505L933.621 364.889C933.603 365.077 933.659 365.264 933.779 365.41C933.898 365.556 934.071 365.648 934.258 365.667L962.765 368.501C964.163 368.64 965.558 368.218 966.645 367.327ZM951.996 347.42C953.104 347.53 954.219 347.309 955.201 346.785C956.183 346.261 956.987 345.457 957.513 344.475C958.038 343.493 958.261 342.377 958.153 341.268C958.045 340.159 957.611 339.108 956.905 338.246C956.2 337.384 955.255 336.751 954.19 336.427C953.126 336.103 951.989 336.102 950.923 336.424C949.858 336.747 948.912 337.378 948.206 338.239C947.499 339.099 947.063 340.15 946.953 341.259C946.88 341.995 946.952 342.738 947.166 343.446C947.38 344.154 947.731 344.813 948.2 345.385C948.668 345.957 949.244 346.431 949.896 346.781C950.547 347.13 951.261 347.347 951.996 347.42ZM952.86 349.65L950.71 349.436C948.48 349.214 946.253 349.888 944.52 351.31C942.786 352.732 941.688 354.784 941.466 357.017L941.279 358.904C941.252 359.174 941.334 359.444 941.506 359.654C941.678 359.864 941.926 359.997 942.196 360.024L959.164 361.711C959.434 361.738 959.704 361.656 959.914 361.484C960.124 361.312 960.257 361.064 960.284 360.793L960.471 358.906C960.581 357.798 960.471 356.678 960.148 355.612C959.824 354.547 959.294 353.555 958.587 352.695C957.879 351.835 957.009 351.123 956.027 350.601C955.044 350.078 953.968 349.755 952.86 349.65Z" fill="#F99B45"/>
<path d="M678.283 606.725L669.129 605.733L669.447 602.794C669.616 601.229 669.158 599.661 668.172 598.435C667.186 597.209 665.755 596.425 664.191 596.255L647.714 594.469C646.939 594.384 646.155 594.452 645.407 594.67C644.658 594.889 643.96 595.252 643.352 595.741C642.745 596.229 642.239 596.833 641.865 597.517C641.49 598.202 641.254 598.953 641.17 599.729L640.852 602.668L631.698 601.675C630.308 601.528 628.917 601.938 627.829 602.816C626.741 603.694 626.045 604.969 625.894 606.36L623.915 624.651C623.828 625.462 623.905 626.283 624.14 627.064C624.376 627.844 624.766 628.57 625.287 629.197L624.199 639.254C624.026 640.885 624.506 642.518 625.534 643.796C626.563 645.073 628.056 645.889 629.685 646.066L670.767 650.519C672.394 650.692 674.025 650.213 675.3 649.186C676.575 648.159 677.392 646.668 677.571 645.039L678.659 634.983C679.304 634.482 679.842 633.858 680.241 633.145C680.64 632.433 680.892 631.648 680.983 630.837L682.962 612.545C683.11 611.153 682.7 609.759 681.823 608.668C680.946 607.577 679.674 606.879 678.283 606.725ZM646.607 600.318C646.62 600.194 646.683 600.08 646.78 600.001C646.878 599.923 647.002 599.886 647.126 599.9L663.604 601.686C663.728 601.699 663.842 601.762 663.92 601.859C663.999 601.957 664.035 602.082 664.022 602.206L663.704 605.145L646.289 603.257L646.607 600.318ZM631.299 607.138L677.516 612.147L675.557 630.249C675.544 630.356 675.505 630.459 675.445 630.549C675.384 630.639 675.303 630.713 675.208 630.765L675.046 630.804C674.965 630.838 674.879 630.856 674.792 630.855L655.503 631.15C655.6 630.25 655.337 629.349 654.77 628.644C654.203 627.94 653.38 627.489 652.482 627.391C651.583 627.294 650.683 627.558 649.978 628.125C649.274 628.692 648.824 629.516 648.727 630.415L629.87 625.986C629.707 625.947 629.563 625.849 629.466 625.712C629.368 625.575 629.324 625.407 629.341 625.239L631.299 607.138ZM671.355 645.077L630.274 640.624C630.084 640.604 629.911 640.509 629.791 640.36C629.672 640.212 629.616 640.022 629.637 639.832L630.51 631.764L648.33 635.957C648.472 636.659 648.833 637.298 649.361 637.781C649.89 638.264 650.558 638.566 651.27 638.643C651.981 638.72 652.699 638.569 653.319 638.21C653.938 637.852 654.428 637.305 654.716 636.649L673.02 636.372L672.146 644.451C672.123 644.638 672.027 644.809 671.879 644.926C671.731 645.043 671.543 645.098 671.355 645.077Z" fill="#41B2C0"/>
<path d="M475.866 136.381L460.132 134.993C459.487 134.934 458.89 134.621 458.474 134.124C458.057 133.626 457.854 132.984 457.909 132.337L458.061 130.613C458.282 128.144 459.473 125.863 461.371 124.271C463.269 122.679 465.72 121.905 468.188 122.119L470.186 122.295C472.653 122.517 474.931 123.708 476.521 125.608C478.112 127.508 478.885 129.962 478.672 132.431L478.519 134.17C478.456 134.814 478.142 135.407 477.646 135.821C477.15 136.235 476.51 136.436 475.866 136.381ZM460.94 132.055L475.585 133.347L475.69 132.153C475.838 130.475 475.314 128.806 474.232 127.514C473.151 126.223 471.601 125.414 469.924 125.266L467.926 125.09C466.249 124.942 464.582 125.467 463.291 126.549C462.001 127.631 461.193 129.182 461.045 130.861L460.94 132.055Z" fill="black"/>
<path opacity="0.7" fill-rule="evenodd" clip-rule="evenodd" d="M479.274 121.002C480.222 121.76 481.374 122.219 482.583 122.322C484.199 122.456 485.802 121.946 487.043 120.901C488.284 119.856 489.062 118.362 489.206 116.746C489.313 115.536 489.058 114.321 488.475 113.256C487.891 112.191 487.005 111.324 485.928 110.763C484.852 110.202 483.633 109.974 482.427 110.107C481.221 110.24 480.081 110.729 479.153 111.511C478.224 112.292 477.548 113.333 477.21 114.499C476.872 115.666 476.888 116.907 477.256 118.064C477.623 119.222 478.325 120.245 479.274 121.002ZM481.608 113.452C482.155 113.156 482.777 113.03 483.396 113.089C484.22 113.166 484.98 113.566 485.509 114.202C486.039 114.838 486.296 115.658 486.223 116.483C486.17 117.102 485.934 117.693 485.545 118.178C485.156 118.664 484.632 119.022 484.039 119.209C483.446 119.396 482.811 119.402 482.215 119.227C481.618 119.051 481.087 118.703 480.689 118.225C480.291 117.747 480.044 117.162 479.979 116.543C479.914 115.924 480.034 115.3 480.324 114.749C480.614 114.199 481.061 113.747 481.608 113.452ZM452.673 118.648C453.619 119.407 454.769 119.869 455.977 119.974C457.595 120.113 459.203 119.604 460.447 118.559C461.691 117.514 462.471 116.019 462.615 114.399C462.722 113.19 462.468 111.976 461.885 110.912C461.302 109.847 460.417 108.979 459.341 108.418C458.265 107.857 457.048 107.628 455.842 107.76C454.636 107.892 453.497 108.379 452.568 109.159C451.638 109.94 450.961 110.978 450.622 112.144C450.283 113.309 450.297 114.55 450.662 115.707C451.027 116.865 451.726 117.888 452.673 118.648ZM455.006 111.112C455.551 110.814 456.172 110.685 456.79 110.741C457.616 110.816 458.379 111.215 458.912 111.852C459.444 112.488 459.703 113.309 459.633 114.136C459.58 114.755 459.344 115.345 458.956 115.83C458.568 116.315 458.044 116.674 457.452 116.862C456.86 117.049 456.226 117.056 455.63 116.882C455.033 116.708 454.502 116.361 454.103 115.884C453.705 115.408 453.456 114.824 453.389 114.206C453.322 113.588 453.44 112.964 453.728 112.413C454.016 111.862 454.46 111.409 455.006 111.112ZM488.379 136.29L476.918 135.278C476.523 135.243 476.157 135.053 475.902 134.748C475.647 134.443 475.523 134.05 475.558 133.654L475.69 132.161C475.831 130.655 475.43 129.147 474.561 127.91C474.36 127.631 474.261 127.291 474.28 126.948C474.299 126.604 474.436 126.278 474.667 126.023C475.543 125.057 476.632 124.308 477.848 123.835C479.063 123.363 480.372 123.18 481.67 123.302L483.355 123.45C484.462 123.546 485.54 123.859 486.526 124.372C487.512 124.885 488.387 125.588 489.101 126.439C489.816 127.291 490.355 128.276 490.689 129.336C491.023 130.397 491.145 131.513 491.047 132.621L490.912 134.159C490.857 134.777 490.56 135.349 490.085 135.748C489.611 136.147 488.997 136.342 488.379 136.29ZM478.672 132.424L487.986 133.246L488.064 132.358C488.126 131.643 488.047 130.922 487.83 130.238C487.614 129.553 487.265 128.918 486.803 128.369C486.341 127.82 485.776 127.367 485.139 127.036C484.502 126.706 483.807 126.504 483.092 126.443L481.347 126.289C480.033 126.169 478.72 126.535 477.657 127.318C478.476 128.888 478.828 130.66 478.672 132.424ZM447.829 132.711L459.29 133.723C459.488 133.746 459.689 133.73 459.881 133.674C460.073 133.619 460.252 133.525 460.408 133.399C460.563 133.274 460.692 133.118 460.786 132.942C460.88 132.765 460.938 132.572 460.957 132.373L461.088 130.88C461.224 129.368 461.894 127.955 462.98 126.895C463.227 126.656 463.384 126.339 463.425 125.997C463.466 125.656 463.388 125.31 463.205 125.019C462.511 123.914 461.57 122.986 460.456 122.308C459.342 121.63 458.085 121.221 456.786 121.113L455.018 120.957C453.912 120.858 452.798 120.977 451.738 121.309C450.678 121.641 449.694 122.179 448.842 122.892C447.99 123.604 447.286 124.478 446.772 125.463C446.257 126.448 445.942 127.525 445.843 128.632L445.708 130.17C445.653 130.788 445.846 131.403 446.243 131.879C446.641 132.355 447.211 132.655 447.829 132.711ZM458.061 130.605L448.748 129.784L448.848 128.897C448.977 127.457 449.671 126.127 450.779 125.198C451.886 124.269 453.316 123.818 454.755 123.943L456.5 124.097C457.815 124.208 459.044 124.798 459.954 125.755C458.873 127.158 458.216 128.841 458.061 130.605Z" fill="#FF7B80"/>
<path fill-rule="evenodd" clip-rule="evenodd" d="M465.685 119.299C466.724 120.135 467.987 120.643 469.314 120.76C471.094 120.917 472.863 120.36 474.233 119.211C475.602 118.063 476.46 116.417 476.617 114.635C476.734 113.306 476.455 111.973 475.814 110.803C475.174 109.633 474.202 108.68 473.02 108.063C471.839 107.447 470.501 107.195 469.177 107.339C467.852 107.483 466.6 108.017 465.578 108.874C464.557 109.731 463.812 110.871 463.439 112.151C463.065 113.432 463.079 114.794 463.479 116.066C463.879 117.339 464.646 118.464 465.685 119.299ZM468.107 110.757C468.757 110.401 469.497 110.246 470.234 110.311C470.724 110.354 471.2 110.493 471.636 110.721C472.072 110.948 472.459 111.259 472.774 111.637C473.09 112.014 473.328 112.449 473.476 112.919C473.623 113.388 473.677 113.882 473.634 114.372C473.569 115.11 473.287 115.812 472.823 116.39C472.359 116.967 471.735 117.394 471.029 117.616C470.323 117.839 469.566 117.847 468.856 117.639C468.145 117.431 467.512 117.017 467.037 116.449C466.561 115.881 466.265 115.185 466.185 114.448C466.105 113.712 466.244 112.968 466.587 112.311C466.929 111.654 467.458 111.113 468.107 110.757ZM460.132 134.993L475.866 136.382C476.51 136.437 477.149 136.235 477.646 135.821C478.142 135.408 478.456 134.815 478.518 134.171L478.671 132.432C478.885 129.962 478.112 127.509 476.521 125.609C474.93 123.709 472.652 122.518 470.186 122.296L468.187 122.12C465.72 121.906 463.269 122.68 461.37 124.272C459.472 125.864 458.282 128.144 458.061 130.613L457.909 132.337C457.854 132.984 458.057 133.627 458.473 134.124C458.89 134.622 459.486 134.934 460.132 134.993ZM475.585 133.348L460.94 132.056L461.045 130.862C461.193 129.183 462.001 127.632 463.291 126.55C464.581 125.467 466.249 124.942 467.926 125.09L469.924 125.267C471.601 125.415 473.151 126.223 474.232 127.515C475.313 128.807 475.838 130.475 475.69 132.154L475.585 133.348Z" fill="#FF7B80"/>
<defs>
<filter id="filter0_f_10272_1613" x="279.728" y="1002" width="297.75" height="72" filterUnits="userSpaceOnUse" color-interpolation-filters="sRGB">
<feFlood flood-opacity="0" result="BackgroundImageFix"/>
<feBlend mode="normal" in="SourceGraphic" in2="BackgroundImageFix" result="shape"/>
<feGaussianBlur stdDeviation="7" result="effect1_foregroundBlur_10272_1613"/>
</filter>
<filter id="filter1_f_10272_1613" x="657.622" y="115.011" width="115.074" height="94.3116" filterUnits="userSpaceOnUse" color-interpolation-filters="sRGB">
<feFlood flood-opacity="0" result="BackgroundImageFix"/>
<feBlend mode="normal" in="SourceGraphic" in2="BackgroundImageFix" result="shape"/>
<feGaussianBlur stdDeviation="14.5796" result="effect1_foregroundBlur_10272_1613"/>
</filter>
<filter id="filter2_f_10272_1613" x="728.946" y="154.936" width="128.723" height="302.176" filterUnits="userSpaceOnUse" color-interpolation-filters="sRGB">
<feFlood flood-opacity="0" result="BackgroundImageFix"/>
<feBlend mode="normal" in="SourceGraphic" in2="BackgroundImageFix" result="shape"/>
<feGaussianBlur stdDeviation="14.5796" result="effect1_foregroundBlur_10272_1613"/>
</filter>
</defs>
</svg>
