<svg width="1080" height="1080" viewBox="0 0 1080 1080" fill="none" xmlns="http://www.w3.org/2000/svg">
<path d="M788.067 830.077L621.552 690.338L618.817 692.981L618.117 692.281L601.316 709.772L583.816 726.579L584.516 727.278L581.874 730.03L721.579 896.589L737.68 880.497L788.067 830.077Z" fill="#072F73"/>
<path d="M669.367 715.147L638.159 746.631L606.687 777.85L786.304 987.614L816.486 957.421L848.876 925.036L879.058 894.843L669.367 715.147Z" fill="#1968F0"/>
<path d="M365.233 813.781C566.946 813.781 730.466 652.291 730.466 453.084C730.466 253.876 566.946 92.3857 365.233 92.3857C163.52 92.3857 0 253.876 0 453.084C0 652.291 163.52 813.781 365.233 813.781Z" fill="#072F73"/>
<path d="M365.23 765.584C542.909 765.584 686.946 625.673 686.946 453.083C686.946 280.494 542.909 140.582 365.23 140.582C187.551 140.582 43.5143 280.494 43.5143 453.083C43.5143 625.673 187.551 765.584 365.23 765.584Z" fill="url(#paint0_linear_18020_2649)"/>
<path d="M888.664 844.317C994.336 844.317 1080 754.69 1080 644.13C1080 533.569 994.336 443.942 888.664 443.942C782.993 443.942 697.329 533.569 697.329 644.13C697.329 754.69 782.993 844.317 888.664 844.317Z" fill="#0096FA"/>
<path d="M814.658 454.002C866.511 454.002 908.546 411.952 908.546 360.081C908.546 308.209 866.511 266.159 814.658 266.159C762.805 266.159 720.77 308.209 720.77 360.081C720.77 411.952 762.805 454.002 814.658 454.002Z" fill="#35DE90"/>
<defs>
<linearGradient id="paint0_linear_18020_2649" x1="487.7" y1="74.7858" x2="239.011" y2="842.414" gradientUnits="userSpaceOnUse">
<stop stop-color="white"/>
<stop offset="0.32" stop-color="#FCFDFE"/>
<stop offset="0.55" stop-color="#F2F6FE"/>
<stop offset="0.76" stop-color="#E2ECFD"/>
<stop offset="0.95" stop-color="#CBDDFB"/>
<stop offset="1" stop-color="#C5D9FB"/>
</linearGradient>
</defs>
</svg>
