<svg width="1079" height="1080" viewBox="0 0 1079 1080" fill="none" xmlns="http://www.w3.org/2000/svg"><path d="M894.048 691.178S702.071 946.506 485.19 981.25c-216.881 34.74-316.571-58.666-309.092-158.595 7.478-99.928 39.861-171.631-24.904-249.852C86.429 494.581-3.39 431.547 61.45 238.145 126.29 44.742 305.703-16.075 420.425 3.48c114.723 19.555 124.594 128.218 259.21 156.443 134.615 28.225 304.156-23.858 349.025 117.332 44.88 141.19-44.869 308.193-134.612 413.923Z" fill="#B9CBD3" style="mix-blend-mode:luminosity" opacity=".16"/><g opacity=".2" filter="url(#search__a)"><path d="M563.514 1038c0 12.15-60.386 22-134.875 22-74.49 0-134.875-9.85-134.875-22s60.385-22 134.875-22c74.489 0 134.875 9.85 134.875 22Z" fill="#0A0F1A"/></g><path d="M347.436 1044.82c1.58-10.03 2.997-19.17 4.46-28.29.55-3.52 1.17-6.94 1.755-10.42.422-2.66 1.651-3.69 4.519-2.34a23.954 23.954 0 0 0 14.877 1.72c3.172-.65 3.98 1.17 3.757 3.51-.456 5.07-1.17 10.09-1.58 15.15-.655 8.3-.691 16.65-1.908 24.86a20.702 20.702 0 0 1-5.197 10.62c-5.127 5.61-14.901 1.98-17.815-4.84a52.805 52.805 0 0 1-2.868-9.97Z" fill="#3D5CB6"/><path fill-rule="evenodd" clip-rule="evenodd" d="M452.063 981.05c5.398-.372 10.075 3.706 10.447 9.11l.913 13.27c.371 5.41-3.703 10.09-9.101 10.46-5.399.37-10.076-3.71-10.447-9.11l-.913-13.273c-.372-5.404 3.703-10.085 9.101-10.457Z" fill="#CB8591"/><path d="M494.172 1029.47a10.317 10.317 0 0 1 1.241 7.55c-.749 3.13-2.915 4.58-7.363 5.54-5.571 1.17-10.733-.22-15.895-2.06-6.239-2.23-12.373-5.22-18.822-6.32-7.714-1.31-10.16-6.25-11.05-12.63-.585-4.1-.117-8.35 0-12.52 0-1.77.878-2.65 2.903-2.25a24.03 24.03 0 0 0 16.879-2.22c.411-.13.848-.15 1.273-.08.424.08.823.26 1.162.53 3.511 7.66 11.155 10.06 17.674 13.88 2.868 1.68 5.982 3.17 8.323 5.42a23.17 23.17 0 0 1 3.675 5.16Z" fill="#3D5CB6"/><path d="M453.897 1007.86c5.379-.37 9.692-1.35 9.634-2.2-.058-.85-4.465-1.23-9.844-.86s-9.692 1.35-9.634 2.2c.057.84 4.465 1.23 9.844.86Z" fill="#CB8591"/><path d="m463.317 1002.02.246 3.63-19.466 1.34-.363-4.23 19.583-.74Z" fill="#CB8591"/><path fill-rule="evenodd" clip-rule="evenodd" d="M366.038 984.755c5.41.105 9.71 4.579 9.606 9.994l-.258 13.311c-.105 5.41-4.575 9.72-9.985 9.61-5.41-.1-9.71-4.58-9.606-9.99l.258-13.311c.105-5.414 4.575-9.719 9.985-9.614Z" fill="#CB8591"/><path fill-rule="evenodd" clip-rule="evenodd" d="M456.887 471.472c-5.645 1.413-9.077 7.138-7.665 12.788l10.221-2.558c-10.221 2.558-10.221 2.559-10.22 2.561l.078.31a540.388 540.388 0 0 0 1.06 4.115 842.714 842.714 0 0 0 3.123 11.587c2.658 9.597 6.404 22.509 10.742 35.687 4.317 13.112 9.314 26.779 14.502 37.758 2.585 5.469 5.362 10.586 8.298 14.722 2.671 3.763 6.551 8.299 11.832 10.378 9.302 3.664 18.583.446 25.515-3.652 7.177-4.242 14.066-10.682 20.087-17.55 11.933-13.613 22.555-31.371 26.354-43.823 1.015-3.316 1.092-7.552 1.061-10.602-.036-3.522-.279-7.441-.569-11.001a311.389 311.389 0 0 0-1.273-12.373c-.043-.356-.079-.636-.103-.83l-.029-.225-.012-.088-10.446 1.368 10.446-1.369c-.755-5.775-6.044-9.843-11.814-9.087-5.769.756-9.833 6.05-9.078 11.824l.007.053.024.187.093.744a304.316 304.316 0 0 1 1.184 11.513c.272 3.331.472 6.691.501 9.5.024 2.412-.097 3.667-.137 4.077-.014.148-.018.186 0 .129l-.005.016c-2.67 8.756-11.408 23.945-22.042 36.077-5.264 6.005-10.462 10.639-14.964 13.301-4.153 2.455-6.195 2.392-6.874 2.246-.169-.156-1.064-.891-2.581-3.028-1.927-2.714-4.099-6.598-6.427-11.525-4.638-9.814-9.318-22.524-13.537-35.341-4.198-12.751-7.847-25.318-10.45-34.719a824.725 824.725 0 0 1-3.044-11.294 591.313 591.313 0 0 1-.81-3.131l-.206-.812-.066-.26v-.001c0-.001 0 0 0 0-1.412-5.65-7.132-9.085-12.776-7.672Z" fill="#EFB8C2"/><path d="M895.285 152.143c-8.687-43.966-40.056-74.701-86.023-84.204a312.308 312.308 0 0 0-62.135-6.015c-27.448 0-65.996 3.549-93.625 20.63-46.329 28.57-51.638 85.227-50.673 116.383.965 31.155 8.566 75.002 38.548 105.917 24.793 25.742 73.295 38.012 109.792 38.914v31.998a13.696 13.696 0 0 0 4.006 9.856 13.751 13.751 0 0 0 9.868 4.037h1.267a13.414 13.414 0 0 0 7.722-3.247c14.297-12.03 33.058-28.449 51.276-45.411l8.084-7.398a264.302 264.302 0 0 0 39.392-41.621c24.673-35.004 33.119-87.331 22.501-139.839Z" fill="#2CC3D5"/><path fill-rule="evenodd" clip-rule="evenodd" d="M873.748 318.844C864.385 205.188 769.259 115.87 653.292 115.87c-28.429 0-55.605 5.368-80.573 15.146-7.291 24.375-8.434 48.774-7.891 66.316 1.139 36.739 10.102 88.442 45.456 124.897 29.236 30.355 86.429 44.824 129.465 45.888v37.731a16.142 16.142 0 0 0 4.725 11.623 16.232 16.232 0 0 0 11.636 4.761h1.494a15.821 15.821 0 0 0 9.106-3.83c16.859-14.185 38.982-33.547 60.464-53.548l9.532-8.723a311.708 311.708 0 0 0 37.042-37.287Z" fill="#2CC3D5"/><path d="m350.034 703.09.084 284.911c0 2.157 6.738 3.911 15.159 3.911h.438c8.337 0 15.075-1.686 15.075-3.911l3.368-146.266 3.605-135.324c3.705.876 12.194 1.214 20.733 1.146 8.54-.067 17.029-.27 20.734-1.146l3.605 135.324 3.368 146.266c0 2.157 6.737 3.911 15.159 3.911h.488c8.321 0 15.159-1.686 15.159-3.911V703.09a96.662 96.662 0 0 0 3.251-22.372v-3.574a80.988 80.988 0 0 0-3.251-23.113c0-2.36-5.339-4.535-14.131-6.221l-2.106-.371a265.093 265.093 0 0 0-41.686-2.967h-1.213c-31.917 0-57.906 4.333-57.923 9.559a91.88 91.88 0 0 0 .084 49.059Z" fill="#202C44"/><path opacity=".5" fill-rule="evenodd" clip-rule="evenodd" d="M416.639 658.963h-7.673l-7.065.018v19.647c0 4.678 3.235 8.657 7.369 8.657s7.369-3.979 7.369-8.657v-19.665Zm-1.263 1.264v18.401c0 4.19-2.863 7.393-6.106 7.393s-6.105-3.203-6.105-7.393v-18.385l5.802-.016h6.409Z" fill="#C2CFEF"/><path d="M452.945 647.812c1.128.219 2.19.438 3.217.674 6.855 1.568 10.897 3.49 10.914 5.546a82.5 82.5 0 0 1 3.251 24.732c-.817.234-1.65.409-2.493.523a18.277 18.277 0 0 1-18.902-10.308 18.303 18.303 0 0 1 4.013-21.167Z" fill="#95A2CE"/><path opacity=".5" d="M460.49 700.865a87.24 87.24 0 0 0 1.449-6.272 95.275 95.275 0 0 0 1.768-15.796.6.6 0 0 1 .185-.413.584.584 0 0 1 .422-.161.59.59 0 0 1 .555.607 95.869 95.869 0 0 1-1.785 15.999 88.805 88.805 0 0 1-1.448 6.255l3.233 284.911a.571.571 0 0 1-.572.59.589.589 0 0 1-.59-.573l-3.234-284.911a.484.484 0 0 1 .017-.236Z" fill="#3C4557"/><path d="M445.584 663.776a19.934 19.934 0 0 0 7.621 13.351 19.91 19.91 0 0 0 14.848 3.946l.623-.085c.505 0 1.078-.134 1.684-.219v-3.574c-.555.118-1.465.236-2.088.304l-.64.084a16.497 16.497 0 0 1-12.215-3.278 16.506 16.506 0 0 1-4.247-4.854 16.552 16.552 0 0 1-2.066-6.114 18.42 18.42 0 0 1 0-3.843l-3.553.404a23.037 23.037 0 0 0 .033 3.878Z" fill="#ADB9E0"/><path d="M364.434 647.812a81.566 81.566 0 0 0-3.217.674c-6.855 1.568-10.914 3.49-10.931 5.546a83.19 83.19 0 0 0-3.25 24.732c.822.236 1.661.41 2.509.523a18.264 18.264 0 0 0 11.128-2.073 18.284 18.284 0 0 0 7.775-8.235 18.31 18.31 0 0 0 1.437-11.238 18.293 18.293 0 0 0-5.451-9.929Z" fill="#1A2437"/><path opacity=".5" d="M356.889 700.865a96.655 96.655 0 0 1-1.465-6.271 97.097 97.097 0 0 1-1.685-15.797.623.623 0 0 0-.606-.573.605.605 0 0 0-.573.607 97.729 97.729 0 0 0 1.786 15.999c.421 2.09.909 4.198 1.448 6.254l-3.234 284.911a.6.6 0 0 0 .173.418c.055.054.12.098.191.128a.59.59 0 0 0 .815-.529l3.234-284.911a.468.468 0 0 0-.084-.236Z" fill="#3C4557"/><path d="M371.778 663.776a20.106 20.106 0 0 1-6.634 12.465 20.067 20.067 0 0 1-13.19 5.017 19.75 19.75 0 0 1-2.628-.185l-.623-.085c-.522 0-1.095-.134-1.684-.219v-3.574c.572.118 1.465.236 2.105.304l.64.084a16.447 16.447 0 0 0 12.223-3.266 16.49 16.49 0 0 0 6.304-10.98 17.267 17.267 0 0 0 0-3.843l3.538.404c.109 1.291.092 2.59-.051 3.878Z" fill="#3C4557"/><path d="m454.696 848.85.977-.54a1.045 1.045 0 0 1 1.466.506l3.486 8.53a1.031 1.031 0 0 1-.662 1.381 1.03 1.03 0 0 1-.567.002l-13.155-3.675a.997.997 0 0 0-.781.087 1.03 1.03 0 0 0-.304.261 1.029 1.029 0 0 0-.178.36l-.91 3.22-3.368-8.548a1.026 1.026 0 0 1 1.111-1.399 1.016 1.016 0 0 0 .814-.231 1.028 1.028 0 0 0 .366-.764l.168-7.94a1.024 1.024 0 0 1 .664-.942 1.024 1.024 0 0 1 1.121.268l8.422 9.221a1.007 1.007 0 0 0 1.33.203Zm-90.228-.27-1.095-.253a1.04 1.04 0 0 0-1.246.927l-.825 9.171a1.023 1.023 0 0 0 .49.979 1.028 1.028 0 0 0 1.093-.018l11.487-7.384a1.007 1.007 0 0 1 1.141.026c.11.079.203.179.274.294l1.718 2.816.673-9.155a1.033 1.033 0 0 0-.44-.929 1.031 1.031 0 0 0-1.025-.082 1.053 1.053 0 0 1-.851.016 1.046 1.046 0 0 1-.581-.623l-2.476-7.553a1.023 1.023 0 0 0-.911-.703 1.031 1.031 0 0 0-.992.585l-5.373 11.313a1.026 1.026 0 0 1-1.061.573Z" fill="#CB8591"/><path d="M351.162 652.16a2.819 2.819 0 0 1 0-.995l1.196-3.186c2.762-7.553 9.482-26.653 9.684-34.965a370.43 370.43 0 0 0-2.914-46.53c2.274 1.214 4.481 2.883 6.856 2.883h85.832a16.409 16.409 0 0 0 7.091-2.613 384.722 384.722 0 0 0-2.241 46.26c.219 8.312 6.923 27.412 9.702 34.965l1.179 3.186c.087.324.116.661.084.995 0 4.215-25.989 7.637-58.226 7.704-32.238.068-58.226-3.489-58.226-7.704h-.017Z" fill="#F9B42F"/><path d="M350.691 538.297c4.16-17.887 14.333-58.095 14.333-58.095 0-2.04 12.464-4.467 40.424-5.057v-.135h8.118v.135c27.943.539 40.423 1.281 40.423 3.371 0 0 10.106 41.894 14.334 59.781 4.008 17.23-7.832 32.453-19.083 32.453h-43.792l-38.318 4.231c-11.268 0-20.448-19.454-16.439-36.684Z" fill="#F9B42F"/><path d="M443.546 570.733s19.892 4.249 25.265-23.602c1.684-9.154-9.668 51.166-9.668 51.166-1.112-26.013-15.597-27.564-15.597-27.564Z" fill="#EAA724"/><path d="M399.737 470.76a16.726 16.726 0 0 1-21.906-.264 16.755 16.755 0 0 1-4.504-6.479 20.874 20.874 0 0 1-17.55.286 20.381 20.381 0 0 1-11.218-13.183 12.624 12.624 0 0 1-6.349-2.372 12.646 12.646 0 0 1-4.211-5.316 13.577 13.577 0 0 1 1.162-13.487 19.38 19.38 0 0 1-10.998-13.891 18.55 18.55 0 0 1 5.305-16.42c-4.362-4.249-6.586-13.167-5.204-19.118a18.112 18.112 0 0 1 11.79-12.897 52.912 52.912 0 0 1 .556-10.216 14.312 14.312 0 0 1 4.21-7.924c4.127-3.625 10.224-3.507 15.698-3.203.539-6.406 2.493-11.902 8.186-14.886a19.552 19.552 0 0 1 18.527.32c5.508-4.956 15.782-9.087 22.031-5.058 5.507-3.641 14.064-5.479 20.363-3.456a22.487 22.487 0 0 1 13.895 13.184 24.294 24.294 0 0 1 19.42 5.412 24.005 24.005 0 0 1 8.708 18.055c6.653 6.373 8.708 18.848 3.975 26.755a27.555 27.555 0 0 1 11.42 19.303 23.62 23.62 0 0 1-7.664 19.219c1.129 4.686-.64 10.334-3.032 14.532a19.332 19.332 0 0 1-11.032 8.817 22.795 22.795 0 0 1-10.897 15.645 19.493 19.493 0 0 1-17.567-.101 21.287 21.287 0 0 1-5.926 8.131 21.246 21.246 0 0 1-8.997 4.496 19.973 19.973 0 0 1-18.191-5.884Z" fill="#2C2A46"/><path d="M344.843 491.481c-.99-7.505 25.989-17.259 60.258-21.787 34.27-4.528 62.853-2.115 63.843 5.389.989 7.505-25.989 17.259-60.259 21.787-34.269 4.528-62.852 2.115-63.842-5.389Z" fill="#F9B42F"/><path d="M408.21 488.142c-6.503 0-11.774-4.348-11.774-9.711s5.271-9.71 11.774-9.71c6.502 0 11.773 4.347 11.773 9.71s-5.271 9.711-11.773 9.711Z" fill="#CB8591"/><path fill-rule="evenodd" clip-rule="evenodd" d="M408.21 469.564c6.197 0 10.931 4.115 10.931 8.867 0 4.753-4.734 8.868-10.931 8.868-6.197 0-10.931-4.115-10.931-8.868 0-4.752 4.734-8.867 10.931-8.867Zm12.615 8.867c0-5.973-5.808-10.553-12.615-10.553-6.808 0-12.616 4.58-12.616 10.553 0 5.974 5.808 10.554 12.616 10.554 6.807 0 12.615-4.58 12.615-10.554Z" fill="#CB8591"/><path d="M407.267 450.564h1.903c2.589.002 5.17-.28 7.697-.843v22.22a7.75 7.75 0 0 1-2.269 5.484 7.734 7.734 0 0 1-5.479 2.271h-1.802a7.744 7.744 0 0 1-5.478-2.271 7.76 7.76 0 0 1-2.27-5.484v-22.27c2.527.572 5.107.871 7.698.893Z" fill="#CB8591"/><path d="M416.833 455.791v6.406s-1.87-3.169-8.657-3.203c-6.788-.034-8.641 3.523-8.641 3.523v-7.788l17.298-.304v1.366Z" fill="#A8747D"/><path d="M371.306 381.292v38.404a35.862 35.862 0 0 0 10.493 25.491 35.802 35.802 0 0 0 25.467 10.502h1.904a35.263 35.263 0 0 0 7.697-.826 35.969 35.969 0 0 0 20.318-12.602 36.028 36.028 0 0 0 7.944-22.565v-38.404a36.009 36.009 0 0 0-10.532-25.451 35.943 35.943 0 0 0-25.427-10.542h-1.904a35.943 35.943 0 0 0-25.427 10.542 36.01 36.01 0 0 0-10.533 25.451Z" fill="#CB8591"/><path d="M359.23 402.837a10.281 10.281 0 0 0 .893 8.43 8.21 8.21 0 0 0 6.737 4.012c-.505 2.613-2.072 5.9-1.499 8.429s2.577 5.058 4.969 4.889c2.391-.168 4.16-2.579 4.598-5.057.28-2.602.034-5.234-.724-7.738a17.692 17.692 0 0 0 4.497-15.376c4.194.827 8.876-1.078 12.312-3.911a18.38 18.38 0 0 0 6.367-11.969 12.691 12.691 0 0 0 5.357 2.983 12.69 12.69 0 0 0 6.13.119 15.87 15.87 0 0 0 10.695-7.823 20.336 20.336 0 0 0 11.841 9.492 14.691 14.691 0 0 0 12.699-2.917 7.579 7.579 0 0 0 7.63 6.929c3.655 0 7.007-2.731 8.725-6.322a21.752 21.752 0 0 0 1.549-11.885c-1.414-12.257-9.398-22.726-19.15-28.542-9.752-5.816-21.071-7.519-32.12-7.519-10.375 0-21.003 1.517-30.199 6.895-11.79 6.895-20.212 19.624-25.265 33.414a33.014 33.014 0 0 0-2.425 11.464c.151 3.945 3.554 9.626 6.383 12.003Z" fill="#2C2A46"/><path d="M378.296 429.44s.354-16.268-8.707-17.954c-9.062-1.686-8.893 10.401-3.857 15.021 5.036 4.619 12.564 2.933 12.564 2.933Z" fill="#CB8591"/><path d="M389.918 577.257s-24.995 6.962-32.76-12.223c-3.503-8.648 5.222 39.146 5.222 39.146 1.094-25.962 27.538-26.923 27.538-26.923Z" fill="#DF9D1E"/><path fill-rule="evenodd" clip-rule="evenodd" d="M457.196 470.401c-6.236 1.707-9.908 8.152-8.202 14.393l10.975-3.005-10.975 3.006.133.483a971.692 971.692 0 0 0 1.797 6.414 1360.32 1360.32 0 0 0 5.105 17.533c4.239 14.207 9.992 32.639 15.969 49.231 2.193 6.087 8.901 9.242 14.982 7.047 6.082-2.195 9.234-8.909 7.042-14.996-5.763-15.996-11.373-33.954-15.561-47.989-2.089-7-3.814-12.991-5.016-17.227a1002.424 1002.424 0 0 1-1.75-6.245l-.119-.435" fill="#F9B42F"/><path d="m512.4 509.772 27.168 17.162 29.391-48.215-26.578-16.842-29.981 47.895Z" fill="#D2DFE6"/><path d="m548.394 524.338-37.459-23.248a6.143 6.143 0 0 0-8.422 1.989L370.767 704.405a16.4 16.4 0 0 0-1.684 15.325c2.324 5.833 7.495 13.723 18.679 22.556 11.925 9.408 25.416 9.037 33.467 7.604a14.282 14.282 0 0 0 10.106-7.233l68.551-126.642 30.89-52.177 19.588-30.969a6.17 6.17 0 0 0-.206-6.879 6.174 6.174 0 0 0-1.764-1.652Z" fill="#2CC3D5"/><path d="M852.882 200.483a208.354 208.354 0 0 1 25.863 118.07 208.313 208.313 0 0 1-44.031 112.554 208.009 208.009 0 0 1-99.083 69.102 207.826 207.826 0 0 1-120.74 2.358 207.981 207.981 0 0 1-101.701-65.179 208.3 208.3 0 0 1-48.385-110.749 208.376 208.376 0 0 1 21.24-118.99 208.121 208.121 0 0 1 83.706-87.127 207.816 207.816 0 0 1 158.114-18.723 207.945 207.945 0 0 1 72.316 36.895 208.112 208.112 0 0 1 52.701 61.789Zm-23.933 13.487a180.671 180.671 0 0 0-75.558-72.775 180.447 180.447 0 0 0-103.219-18.485 180.505 180.505 0 0 0-96.081 42.035 180.778 180.778 0 0 0-56.55 88.384 180.914 180.914 0 0 0 2.046 104.935 180.762 180.762 0 0 0 59.953 86.109 180.455 180.455 0 0 0 200.066 15.747c41.78-23.433 72.551-62.517 85.546-108.655a180.929 180.929 0 0 0-16.254-137.38l.051.085Z" fill="#D2DFE6"/><g opacity=".5" filter="url(#search__b)"><path d="M692.052 146.228a11.366 11.366 0 0 1 5.706-1.9 53.414 53.414 0 0 1 23.431 3.462 53.46 53.46 0 0 1 19.637 13.254 11.624 11.624 0 0 1-1.13 16.169 11.6 11.6 0 0 1-16.179-.704c-2.058-2.319-9.929-9.83-24.442-9.001a11.577 11.577 0 0 1-7.184-1.987 11.6 11.6 0 0 1-4.427-13.414 11.598 11.598 0 0 1 4.588-5.879Z" fill="#F8FBFB"/></g><g opacity=".5" filter="url(#search__c)"><path d="M763.31 185.991a11.614 11.614 0 0 1 14.454 1.39 167.898 167.898 0 0 1 50.763 117.785 167.912 167.912 0 0 1-47.182 119.267 11.578 11.578 0 0 1-12.599 2.699 11.597 11.597 0 0 1-7.312-10.618 11.604 11.604 0 0 1 3.277-8.255 144.856 144.856 0 0 0 40.617-102.782 144.85 144.85 0 0 0-43.677-101.517 11.577 11.577 0 0 1-3.508-8.153 11.56 11.56 0 0 1 .824-4.449 11.567 11.567 0 0 1 2.464-3.794 11.975 11.975 0 0 1 1.879-1.573Z" fill="#F8FBFB"/></g><path d="M509.133 600.32a31.54 31.54 0 0 0 11.79-3.372c21.559-10.419 44.314-44.945 49.889-63.22 2.24-7.316.37-25.136-.927-35.116a10.545 10.545 0 0 0-4.023-6.991 10.526 10.526 0 0 0-14.768 1.931 10.546 10.546 0 0 0-2.094 7.791c1.347 10.334 2.105 21.68 1.684 25.608a6.145 6.145 0 0 1-.387 5.85l-19.521 31.037-21.643 36.482Z" fill="#CB8591"/><path fill-rule="evenodd" clip-rule="evenodd" d="M354.668 485.226c-5.776-.699-11.025 3.42-11.725 9.202l10.459 1.267 10.459 1.267c.7-5.781-3.416-11.036-9.193-11.736Zm84.34 152.851-.044-.009-.167-.036a283.572 283.572 0 0 1-3.398-.75 439.98 439.98 0 0 1-9.801-2.351c-8.172-2.055-19.055-5.027-30.041-8.71-11.077-3.714-21.827-8.011-29.947-12.624-4.062-2.308-7.111-4.498-9.155-6.47-2.049-1.977-2.463-3.13-2.523-3.368.005.016.003-.034-.003-.158-.022-.468-.094-1.996-.003-5.079.104-3.509.374-8.093.774-13.444.797-10.683 2.077-24.019 3.438-37.111a3319.277 3319.277 0 0 1 3.882-35.319 3604.73 3604.73 0 0 1 1.331-11.407l.377-3.169.133-1.11-10.459-1.267-10.459-1.266-.136 1.134-.38 3.197c-.327 2.757-.79 6.705-1.339 11.475a3324.797 3324.797 0 0 0-3.908 35.55c-1.368 13.159-2.673 26.734-3.493 37.722-.409 5.483-.705 10.424-.822 14.391-.103 3.465-.136 7.515.473 10.322l.001.008c1.269 5.831 4.788 10.508 8.492 14.082 3.771 3.639 8.455 6.832 13.378 9.629 9.852 5.597 22.081 10.399 33.655 14.28 11.667 3.912 23.107 7.031 31.598 9.166 4.255 1.071 7.792 1.9 10.276 2.464 1.242.282 2.223.498 2.898.645l.781.168.21.044.058.013.017.003.006.001c.002.001.003.001 2.152-10.322l-2.149 10.323c5.697 1.188 11.276-2.472 12.463-8.173 1.186-5.701-2.469-11.286-8.165-12.474h-.001Z" fill="#CB8591"/><path fill-rule="evenodd" clip-rule="evenodd" d="M355.807 484.43c-6.401-.903-12.323 3.559-13.225 9.967l11.591 1.635-11.591-1.635-.067.474-.187 1.349a2237.598 2237.598 0 0 0-2.974 22.489c-1.795 14.135-3.974 32.39-5.474 48.653-.595 6.444 4.142 12.15 10.58 12.745 6.437.595 12.138-4.146 12.732-10.59 1.464-15.869 3.604-33.818 5.387-47.853a2153.312 2153.312 0 0 1 2.94-22.233l.183-1.317.062-.445-.028-.005.028.005c.903-6.408-3.555-12.335-9.957-13.239Z" fill="#F9B42F"/><path d="M397.502 382.237a26.763 26.763 0 0 1-.058 4.35 26.59 26.59 0 0 1-.714 4.295 20.046 20.046 0 0 1-1.457 4.091c-.32.649-.678 1.275-1.073 1.872-.213.292-.432.579-.651.866-.11.143-.213.291-.334.426l-.374.384a20.701 20.701 0 0 1-6.949 4.497 25.59 25.59 0 0 1-3.885 1.241 21.982 21.982 0 0 1-4.012.582 36.817 36.817 0 0 0 7.565-2.628 27.475 27.475 0 0 0 3.466-1.951c.282-.179.543-.38.816-.579.273-.198.543-.38.791-.601l.768-.64c.247-.221.459-.468.696-.693l.35-.346c.109-.121.205-.257.306-.388l.623-.826c.35-.578.731-1.13 1.027-1.747a21.803 21.803 0 0 0 1.531-3.852c.418-1.344.75-2.718.996-4.115.259-1.399.45-2.814.572-4.238Zm-34.907 85.978a26.511 26.511 0 0 1-4.25-.915 26.556 26.556 0 0 1-4.065-1.548 20.016 20.016 0 0 1-3.72-2.237 16.953 16.953 0 0 1-1.622-1.423c-.243-.266-.481-.538-.719-.809-.119-.136-.243-.266-.352-.412l-.302-.443a20.72 20.72 0 0 1-3.033-7.706 25.751 25.751 0 0 1-.449-4.057 21.984 21.984 0 0 1 .222-4.052c.07 2.675.432 5.336 1.081 7.943a27.519 27.519 0 0 0 1.227 3.785c.119.312.265.609.406.915.14.307.265.609.432.895l.476.88c.168.286.368.543.541.819l.27.413c.097.13.211.251.319.377l.687.774c.497.457.962.94 1.508 1.352a21.756 21.756 0 0 0 3.471 2.262 33.258 33.258 0 0 0 3.833 1.79c1.32.53 2.668.996 4.039 1.397Zm99.948-18.172a26.69 26.69 0 0 0 3.909-1.904 26.572 26.572 0 0 0 3.579-2.475 19.986 19.986 0 0 0 3.079-3.061 17.09 17.09 0 0 0 1.236-1.768c.172-.317.339-.638.505-.958.083-.16.173-.317.243-.484l.188-.502a20.722 20.722 0 0 0 1.108-8.209 25.725 25.725 0 0 0-.531-4.047 22.05 22.05 0 0 0-1.181-3.881c.569 2.614.852 5.285.843 7.971 0 1.325-.096 2.651-.289 3.969-.041.331-.112.654-.176.986-.063.331-.112.654-.206.972l-.252.968c-.095.318-.228.615-.33.925l-.164.465c-.064.15-.145.294-.22.442l-.482.916c-.374.563-.711 1.143-1.143 1.673a21.691 21.691 0 0 1-2.831 3.026 33.148 33.148 0 0 1-3.296 2.654 43.885 43.885 0 0 1-3.589 2.322Zm20.871-31.058a34.095 34.095 0 0 0 1.534-5.331c.388-1.82.626-3.662.712-5.506a25.59 25.59 0 0 0-.27-5.532 21.775 21.775 0 0 0-.62-2.681c-.152-.435-.314-.866-.475-1.297-.081-.216-.153-.434-.251-.644l-.315-.607a26.422 26.422 0 0 0-6.824-8.056 32.793 32.793 0 0 0-4.284-2.949 28.078 28.078 0 0 0-4.682-2.193 47.072 47.072 0 0 1 8.265 6.003 34.921 34.921 0 0 1 3.51 3.662c.279.321.524.664.783 1.007.26.343.524.665.744 1.026l.701 1.065c.221.362.388.741.594 1.102l.3.553c.088.188.155.388.231.586l.456 1.239c.213.835.475 1.649.609 2.511.315 1.726.465 3.49.448 5.268a42.355 42.355 0 0 1-.301 5.39 56.05 56.05 0 0 1-.865 5.384Zm-62.459-41.007a22.81 22.81 0 0 1-1.368 3.443 22.626 22.626 0 0 1-1.873 3.199 17.04 17.04 0 0 1-2.402 2.81 14.43 14.43 0 0 1-1.422 1.163c-.258.167-.52.328-.781.49-.131.081-.258.167-.395.237l-.414.192a17.6 17.6 0 0 1-6.894 1.461 21.827 21.827 0 0 1-3.467-.195 18.71 18.71 0 0 1-3.368-.759c2.254.319 4.538.39 6.816.213a23.381 23.381 0 0 0 3.35-.497c.278-.056.547-.137.824-.212.277-.075.548-.137.812-.237l.805-.276c.264-.1.508-.232.764-.338l.384-.169c.124-.064.241-.142.362-.215l.746-.468c.454-.354.925-.676 1.347-1.077a18.477 18.477 0 0 0 2.388-2.598 28.285 28.285 0 0 0 2.043-2.969 37.534 37.534 0 0 0 1.743-3.198Zm-93.025 53.374a28.952 28.952 0 0 1-2.552-3.956 28.734 28.734 0 0 1-1.928-4.299 21.698 21.698 0 0 1-1.136-4.562 18.445 18.445 0 0 1-.154-2.331c.018-.39.043-.78.069-1.17.012-.195.017-.391.046-.585l.106-.571a22.447 22.447 0 0 1 3.572-8.221 27.868 27.868 0 0 1 2.758-3.449 23.864 23.864 0 0 1 3.268-2.931 39.928 39.928 0 0 0-5.246 6.907 29.69 29.69 0 0 0-1.955 3.837c-.147.33-.262.669-.389 1.011-.127.343-.262.669-.353 1.016l-.309 1.038c-.091.348-.133.697-.212 1.042l-.109.522c-.025.175-.031.354-.044.533l-.066 1.119c.031.731.017 1.456.12 2.19.167 1.48.477 2.95.927 4.39.428 1.462.95 2.901 1.565 4.306a47.82 47.82 0 0 0 2.022 4.164Zm7.716-67.841c.28-1.551.684-3.074 1.208-4.552a28.762 28.762 0 0 1 1.883-4.319 21.63 21.63 0 0 1 2.608-3.91 18.545 18.545 0 0 1 1.621-1.682c.3-.249.605-.492.911-.736.153-.122.3-.249.463-.359l.494-.305a22.428 22.428 0 0 1 8.48-2.884 27.897 27.897 0 0 1 4.406-.276 23.81 23.81 0 0 1 4.365.45 39.847 39.847 0 0 0-8.635.759 29.743 29.743 0 0 0-4.153 1.133c-.342.112-.67.255-1.009.391-.338.137-.67.256-.989.422l-.974.47c-.319.166-.606.369-.913.542l-.46.272c-.146.098-.282.215-.423.325l-.872.703c-.52.515-1.065.993-1.539 1.563a23.495 23.495 0 0 0-2.622 3.639 36.027 36.027 0 0 0-2.131 4.055 47.475 47.475 0 0 0-1.719 4.299Z" fill="#2C2A46"/><path fill-rule="evenodd" clip-rule="evenodd" d="M417.325 124.665a1.721 1.721 0 0 0-2.433-.115l-4.771 4.342a1.724 1.724 0 0 0-.115 2.435l4.337 4.775c.64.704 1.73.756 2.433.115l4.771-4.341a1.726 1.726 0 0 0 .115-2.436l-4.337-4.775Zm-3.173-.929a2.82 2.82 0 0 1 3.986.189l4.338 4.775a2.826 2.826 0 0 1-.19 3.989l-4.77 4.342a2.82 2.82 0 0 1-3.986-.189l-4.338-4.775a2.826 2.826 0 0 1 .19-3.989l4.77-4.342Z" fill="#E7EEF1"/><path fill-rule="evenodd" clip-rule="evenodd" d="M417.325 124.665a1.721 1.721 0 0 0-2.433-.115l-4.771 4.342a1.724 1.724 0 0 0-.115 2.435l4.337 4.775c.64.704 1.73.756 2.433.115l4.771-4.341a1.726 1.726 0 0 0 .115-2.436l-4.337-4.775Zm-3.173-.929a2.82 2.82 0 0 1 3.986.189l4.338 4.775a2.826 2.826 0 0 1-.19 3.989l-4.77 4.342a2.82 2.82 0 0 1-3.986-.189l-4.338-4.775a2.826 2.826 0 0 1 .19-3.989l4.77-4.342Zm90.757-42.903a1.721 1.721 0 0 0-2.433-.115l-4.771 4.342a1.724 1.724 0 0 0-.115 2.435l4.337 4.775c.64.704 1.73.756 2.433.115l4.771-4.342c.704-.64.755-1.73.115-2.435l-4.337-4.775Zm-3.173-.93a2.82 2.82 0 0 1 3.986.19l4.338 4.775a2.826 2.826 0 0 1-.19 3.99l-4.77 4.341a2.82 2.82 0 0 1-3.986-.19l-4.338-4.774a2.826 2.826 0 0 1 .19-3.99l4.77-4.341Z" fill="#E7EEF1"/><path d="m436.113 149.695-3.47-3.82a1.817 1.817 0 0 0-2.568-.122l-3.816 3.474a1.82 1.82 0 0 0-.122 2.569l3.47 3.82a1.815 1.815 0 0 0 2.567.122l3.817-3.473a1.82 1.82 0 0 0 .122-2.57ZM297.784 279.596l-3.396-3.886a1.734 1.734 0 0 0-2.517-.12l-3.749 3.547a1.908 1.908 0 0 0-.124 2.619l3.396 3.886c.661.757 1.788.81 2.517.12l3.749-3.547c.729-.69.785-1.862.124-2.619Z" fill="#E7EEF1"/><path fill-rule="evenodd" clip-rule="evenodd" d="M667.454 655.896a2.82 2.82 0 0 0-2.819 2.822 2.82 2.82 0 1 0 5.638 0 2.82 2.82 0 0 0-2.819-2.822Zm-3.918 2.822a3.92 3.92 0 0 1 3.918-3.922 3.92 3.92 0 0 1 3.918 3.922 3.92 3.92 0 0 1-3.918 3.922 3.92 3.92 0 0 1-3.918-3.922Z" fill="#E7EEF1"/><path d="m685.174 660.602-3.396-3.886a1.734 1.734 0 0 0-2.517-.12l-3.749 3.547a1.908 1.908 0 0 0-.124 2.619l3.396 3.886c.661.756 1.788.81 2.517.12l3.749-3.547c.729-.69.785-1.863.124-2.619Z" fill="#E7EEF1"/><path fill-rule="evenodd" clip-rule="evenodd" d="M301.96 261.404a2.82 2.82 0 0 0-2.819 2.822 2.82 2.82 0 0 0 2.819 2.822 2.82 2.82 0 0 0 2.819-2.822 2.82 2.82 0 0 0-2.819-2.822Zm-3.918 2.822a3.92 3.92 0 0 1 3.918-3.922 3.92 3.92 0 0 1 3.918 3.922 3.92 3.92 0 0 1-3.918 3.922 3.92 3.92 0 0 1-3.918-3.922Z" fill="#E7EEF1"/><path d="M499.024 109.126a3.37 3.37 0 0 0 3.368-3.371 3.37 3.37 0 1 0-6.737 0 3.37 3.37 0 0 0 3.369 3.371Zm470.434 205.019a2.2 2.2 0 0 0 2.198-2.201 2.199 2.199 0 1 0-4.396 0 2.2 2.2 0 0 0 2.198 2.201Z" fill="#E7EEF1"/><path fill-rule="evenodd" clip-rule="evenodd" d="M987.263 621.089c-4.232-.998-8.47 1.627-9.467 5.863-.996 4.236 1.626 8.478 5.858 9.476 4.232.997 8.47-1.628 9.467-5.864.996-4.236-1.626-8.478-5.858-9.475Zm-10.537 5.611c1.136-4.827 5.966-7.819 10.789-6.682 4.823 1.137 7.811 5.971 6.676 10.798-1.136 4.827-5.966 7.819-10.789 6.682-4.822-1.136-7.811-5.971-6.676-10.798Z" fill="#E7EEF1"/><path d="m974.595 641.989-2.416-4.562a1.733 1.733 0 0 0-2.423-.694l-4.461 2.592a1.907 1.907 0 0 0-.72 2.521l2.415 4.562a1.735 1.735 0 0 0 2.423.694l4.461-2.593a1.906 1.906 0 0 0 .721-2.52Zm6.406-28.813a2.2 2.2 0 0 0 1.008-4.283 2.2 2.2 0 0 0-1.008 4.283Z" fill="#E7EEF1"/><path fill-rule="evenodd" clip-rule="evenodd" d="M988.304 311.797a1.721 1.721 0 0 0-2.433-.116l-4.771 4.342a1.724 1.724 0 0 0-.115 2.435l4.337 4.775c.64.704 1.73.756 2.433.116l4.771-4.342a1.724 1.724 0 0 0 .115-2.435l-4.337-4.775Zm-3.173-.93a2.82 2.82 0 0 1 3.986.19l4.338 4.775a2.826 2.826 0 0 1-.19 3.989l-4.77 4.342a2.82 2.82 0 0 1-3.986-.19l-4.338-4.775a2.826 2.826 0 0 1 .19-3.989l4.77-4.342Z" fill="#E7EEF1"/><path d="m990.248 382.345-3.47-3.82a1.815 1.815 0 0 0-2.567-.122l-3.817 3.473a1.82 1.82 0 0 0-.122 2.57l3.47 3.82a1.817 1.817 0 0 0 2.568.122l3.816-3.474a1.82 1.82 0 0 0 .122-2.569Z" fill="#E7EEF1"/><path opacity=".3" d="M802.351 513.58c0-5.079 4.113-9.196 9.187-9.196h142.4c5.074 0 9.187 4.117 9.187 9.196v94.255c0 5.079-4.113 9.196-9.187 9.196h-142.4c-5.074 0-9.187-4.117-9.187-9.196V513.58Z" fill="#C3EEF4"/><path opacity=".3" d="M811.539 525.075c0-5.079 4.113-9.196 9.187-9.196h142.4c5.074 0 9.187 4.117 9.187 9.196v94.255c0 5.078-4.113 9.195-9.187 9.195h-142.4c-5.074 0-9.187-4.117-9.187-9.195v-94.255Z" fill="#C3EEF4"/><path d="M795.461 504.385c0-5.079 4.113-9.196 9.187-9.196h142.4c5.074 0 9.187 4.117 9.187 9.196v94.255c0 5.079-4.113 9.196-9.187 9.196h-142.4c-5.074 0-9.187-4.117-9.187-9.196v-94.255Z" fill="#F8FBFB"/><path d="M795.461 504.385c0-5.079 4.113-9.196 9.187-9.196h142.4c5.074 0 9.187 4.117 9.187 9.196v16.092H795.461v-16.092Z" fill="#202C44"/><path d="M816.133 507.833a3.447 3.447 0 0 1-3.446 3.448 3.447 3.447 0 0 1-3.445-3.448 3.447 3.447 0 0 1 3.445-3.449 3.448 3.448 0 0 1 3.446 3.449Z" fill="#FF5A60"/><path d="M825.319 507.833a3.446 3.446 0 0 1-3.445 3.448 3.446 3.446 0 0 1-3.445-3.448 3.447 3.447 0 0 1 3.445-3.449 3.447 3.447 0 0 1 3.445 3.449Z" fill="#F9B42F"/><path d="M834.506 507.833a3.447 3.447 0 0 1-3.446 3.448 3.447 3.447 0 0 1-3.445-3.448 3.447 3.447 0 0 1 3.445-3.449 3.448 3.448 0 0 1 3.446 3.449Z" fill="#4DCB7B"/><path fill-rule="evenodd" clip-rule="evenodd" d="M868.565 558.604v-13.008h3.249v13.008h-3.249Zm0 24.392v-16.26h3.249v16.26h-3.249Z" fill="#DEE8EC"/><path d="M847.446 534.864a3.9 3.9 0 0 1 3.899-3.902h40.939a3.9 3.9 0 0 1 3.899 3.902v8.456a3.9 3.9 0 0 1-3.899 3.902h-40.939a3.9 3.9 0 0 1-3.899-3.902v-8.456Zm0 22.766a3.9 3.9 0 0 1 3.899-3.902h40.939a3.9 3.9 0 0 1 3.899 3.902v8.456a3.9 3.9 0 0 1-3.899 3.902h-40.939a3.9 3.9 0 0 1-3.899-3.902v-8.456Zm0 22.765a3.901 3.901 0 0 1 3.899-3.903h40.939a3.901 3.901 0 0 1 3.899 3.903v8.455a3.901 3.901 0 0 1-3.899 3.903h-40.939a3.901 3.901 0 0 1-3.899-3.903v-8.455Zm-42.238 0a3.901 3.901 0 0 1 3.899-3.903h27.942a3.901 3.901 0 0 1 3.899 3.903v8.455a3.902 3.902 0 0 1-3.899 3.903h-27.942a3.902 3.902 0 0 1-3.899-3.903v-8.455Z" fill="#E7EEF1"/><path fill-rule="evenodd" clip-rule="evenodd" d="M821.454 537.466c0-.898.727-1.626 1.624-1.626h29.242v3.252h-27.617v11.383h-3.249v-13.009Z" fill="#DEE8EC"/><path d="M805.208 551.125a3.9 3.9 0 0 1 3.899-3.902h27.942a3.9 3.9 0 0 1 3.899 3.902v14.96a3.9 3.9 0 0 1-3.899 3.902h-27.942a3.9 3.9 0 0 1-3.899-3.902v-14.96Z" fill="#E7EEF1"/><path d="M941.67 537.468h-32.491a3.25 3.25 0 0 0-3.249 3.252v45.529a3.25 3.25 0 0 0 3.249 3.252h32.491a3.25 3.25 0 0 0 3.249-3.252V540.72a3.25 3.25 0 0 0-3.249-3.252Z" fill="#fff"/><path d="M905.93 537.467a3.25 3.25 0 0 1 3.249-3.252h32.491a3.25 3.25 0 0 1 3.249 3.252v3.252H905.93v-3.252Z" fill="#202C44"/><path fill-rule="evenodd" clip-rule="evenodd" d="M944.919 580.07H905.93v-.651h38.989v.651Z" fill="#F5F8F9"/><path d="M918.927 569.312a2.574 2.574 0 0 1 2.572-2.575h17.599a2.573 2.573 0 0 1 2.572 2.575v3.5a.429.429 0 0 1-.428.429h-19.743a2.574 2.574 0 0 1-2.572-2.575v-1.354Z" fill="#E7EEF1"/><path d="M931.923 559.555a2.573 2.573 0 0 0-2.572-2.575h-17.599a2.573 2.573 0 0 0-2.572 2.575v3.5c0 .237.192.429.428.429h19.743a2.573 2.573 0 0 0 2.572-2.575v-1.354Z" fill="#2CC3D5"/><path opacity=".3" d="M318.889 198.964c0-4.861 3.937-8.801 8.793-8.801h102.32c4.857 0 8.793 3.94 8.793 8.801v66.41c0 4.861-3.936 8.801-8.793 8.801h-102.32c-4.856 0-8.793-3.94-8.793-8.801v-66.41Z" fill="#C3EEF4"/><path opacity=".3" d="M325.741 207.538c0-4.861 3.937-8.802 8.793-8.802h102.32c4.857 0 8.794 3.941 8.794 8.802v66.41c0 4.86-3.937 8.801-8.794 8.801h-102.32c-4.856 0-8.793-3.941-8.793-8.801v-66.41Z" fill="#C3EEF4"/><path d="M313.75 192.106c0-4.861 3.937-8.801 8.793-8.801h102.321c4.856 0 8.793 3.94 8.793 8.801v66.41c0 4.861-3.937 8.801-8.793 8.801H322.543c-4.856 0-8.793-3.94-8.793-8.801v-66.41Z" fill="#F8FBFB"/><path d="M313.75 192.106c0-4.861 3.937-8.801 8.793-8.801h102.321c4.856 0 8.793 3.94 8.793 8.801v10.059H313.75v-10.059Z" fill="#202C44"/><path d="M329.167 192.734a2.57 2.57 0 1 1-5.139 0 2.57 2.57 0 1 1 5.139 0Z" fill="#FF5A60"/><path d="M336.018 192.734a2.57 2.57 0 1 1-5.139 0 2.57 2.57 0 1 1 5.139 0Z" fill="#F9B42F"/><path d="M342.87 192.734a2.57 2.57 0 1 1-5.139 0 2.57 2.57 0 1 1 5.139 0Z" fill="#4DCB7B"/><path d="M363.507 216.332a3.878 3.878 0 0 1 3.876-3.88h53.783a3.878 3.878 0 0 1 3.876 3.88v33.964a3.878 3.878 0 0 1-3.876 3.879h-53.783a3.878 3.878 0 0 1-3.876-3.879v-33.964Z" fill="#fff"/><path d="M419.756 222.975h-12.892a1.31 1.31 0 0 1-1.534-1.848 1.313 1.313 0 0 1 1.534-.677h12.892a1.31 1.31 0 0 1 .951 1.263 1.31 1.31 0 0 1-.951 1.262Zm0 3.974h-12.892a1.31 1.31 0 0 1-1.672-1.262 1.308 1.308 0 0 1 .522-1.049 1.31 1.31 0 0 1 1.15-.214h12.892a1.31 1.31 0 0 1 .951 1.263 1.308 1.308 0 0 1-.951 1.262Zm-23.792 19.005H374.72a.885.885 0 0 1-.882-.883v-21.528a.883.883 0 0 1 1.506-.624c.165.165.258.39.258.624v20.645h20.362a.882.882 0 0 1 0 1.766Z" fill="#D2DFE6"/><path opacity=".7" d="M384.019 240.232a2.523 2.523 0 0 1-1.496-.441c-4.076-3.206-6.524-.305-6.616-.177a1.102 1.102 0 0 1-1.915-.606 1.106 1.106 0 0 1 .212-.794c.04-.048 3.917-4.658 9.634-.207.291.137 1.27 0 2.589-2.296 2.453-4.256 7.031-6.985 7.225-7.1a1.104 1.104 0 0 1 1.121 1.903c-.044.022-4.279 2.561-6.436 6.301-1.138 1.973-2.386 3.09-3.714 3.377-.2.033-.402.046-.604.04Zm-.186-2.234.036.027-.036-.027Z" fill="#2CC3D5"/><path opacity=".8" d="M375.021 239.998a1.096 1.096 0 0 1-.97-.585 1.102 1.102 0 0 1 .057-1.132c.48-.715 4.803-6.91 9.029-6.91h.049c1.063 0 2.589.442 3.837 2.367 1.019 1.58 2.104 2.424 3.225 2.494 1.671.102 3.087-1.483 3.087-1.497a1.11 1.11 0 0 1 .758-.422 1.092 1.092 0 0 1 .828.256 1.1 1.1 0 0 1 .095 1.593c-.084.101-2.113 2.454-4.91 2.273-1.852-.123-3.528-1.298-4.931-3.501-.582-.883-1.24-1.324-2.007-1.355h-.031c-2.311 0-5.646 3.633-7.208 5.938a1.099 1.099 0 0 1-.908.481Z" fill="#F9B42F"/><path d="M322.314 217.369v31.359c0 2.715 2.2 4.917 4.913 4.917h25.404a4.916 4.916 0 0 0 4.913-4.917v-31.359c0-2.716-2.2-4.917-4.913-4.917h-25.404a4.915 4.915 0 0 0-4.913 4.917Z" fill="#fff"/><path d="M339.919 233.997a6.637 6.637 0 0 0 6.634-6.641 6.637 6.637 0 0 0-6.634-6.641 6.638 6.638 0 0 0-6.635 6.641 6.638 6.638 0 0 0 6.635 6.641Z" fill="#B766F6"/><path fill-rule="evenodd" clip-rule="evenodd" d="M331.203 239.684c0-.803.651-1.455 1.454-1.455h14.535a1.454 1.454 0 0 1 0 2.91h-14.535a1.454 1.454 0 0 1-1.454-1.455Zm2.502 5.698c0-.803.65-1.455 1.453-1.455h9.521a1.455 1.455 0 0 1 0 2.91h-9.521a1.454 1.454 0 0 1-1.453-1.455Z" fill="#D2DFE6"/><path fill-rule="evenodd" clip-rule="evenodd" d="m938.619 322.093 28.507 2.835a9.087 9.087 0 0 1 6.126 3.288 9.105 9.105 0 0 1 2.016 6.659l-2.903 29.251a9.093 9.093 0 0 1-9.938 8.15l-28.507-2.835a4.504 4.504 0 0 1-4.033-4.927l.324-3.265-5.751-.571a2.373 2.373 0 0 1-2.122-2.594 2.37 2.37 0 0 1 2.59-2.124l5.751.572.964-9.719-5.75-.572a2.372 2.372 0 0 1 .468-4.718l5.751.572.964-9.719-5.75-.572a2.368 2.368 0 0 1-2.123-2.593 2.37 2.37 0 0 1 2.591-2.124l5.75.571.152-1.528a4.498 4.498 0 0 1 4.923-4.037Zm28.062 45.234a5.303 5.303 0 0 0 1.913-3.576l2.903-29.251a5.295 5.295 0 0 0-4.746-5.798l-28.507-2.835a.71.71 0 0 0-.777.638l-3.81 38.384a.712.712 0 0 0 .637.778l28.507 2.834a5.293 5.293 0 0 0 3.88-1.174Zm-14.649-19.907a5.626 5.626 0 0 0 6.157-6.152 5.629 5.629 0 0 0-7.229-4.844 5.63 5.63 0 0 0-2.724 8.961 5.632 5.632 0 0 0 3.796 2.035Zm.864 2.23-2.15-.214a8.44 8.44 0 0 0-6.19 1.874 8.461 8.461 0 0 0-3.054 5.707l-.187 1.887a1.024 1.024 0 0 0 .917 1.12l16.968 1.687a1.022 1.022 0 0 0 1.12-.918l.187-1.887a8.475 8.475 0 0 0-1.884-6.211 8.437 8.437 0 0 0-5.727-3.045Z" fill="#F99B45"/><path d="m678.319 606.725-9.154-.992.318-2.939a5.932 5.932 0 0 0-5.256-6.539l-16.477-1.786a5.94 5.94 0 0 0-2.308.201 5.938 5.938 0 0 0-4.236 5.059l-.318 2.939-9.154-.993a5.278 5.278 0 0 0-5.804 4.685l-1.979 18.291a6.096 6.096 0 0 0 1.372 4.546l-1.088 10.057a6.194 6.194 0 0 0 5.486 6.812l41.081 4.453a6.188 6.188 0 0 0 6.805-5.48l1.088-10.056a6.097 6.097 0 0 0 2.323-4.146l1.98-18.292a5.289 5.289 0 0 0-4.679-5.82Zm-31.677-6.407a.475.475 0 0 1 .52-.418l16.477 1.786a.47.47 0 0 1 .418.52l-.318 2.939-17.414-1.888.317-2.939Zm-15.307 6.82 46.217 5.009-1.959 18.102a.682.682 0 0 1-.349.516l-.163.039a.633.633 0 0 1-.254.051l-19.289.295a3.413 3.413 0 0 0-3.021-3.759 3.408 3.408 0 0 0-3.755 3.024l-18.856-4.429a.697.697 0 0 1-.529-.747l1.958-18.101Zm40.056 37.939-41.081-4.453a.716.716 0 0 1-.637-.792l.872-8.068 17.821 4.193a3.368 3.368 0 0 0 6.385.692l18.305-.277-.874 8.079a.717.717 0 0 1-.791.626Z" fill="#41B2C0"/><path d="m475.903 136.381-15.734-1.388a2.458 2.458 0 0 1-2.223-2.656l.152-1.724a9.368 9.368 0 0 1 3.309-6.342 9.352 9.352 0 0 1 6.817-2.152l1.999.176a9.357 9.357 0 0 1 6.335 3.313 9.368 9.368 0 0 1 2.15 6.823l-.153 1.739a2.458 2.458 0 0 1-2.652 2.211Zm-14.927-4.326 14.646 1.292.105-1.194a6.348 6.348 0 0 0-5.766-6.887l-1.999-.176a6.348 6.348 0 0 0-6.88 5.771l-.106 1.194Z" fill="#000"/><path opacity=".7" fill-rule="evenodd" clip-rule="evenodd" d="M479.31 121.002a6.135 6.135 0 0 0 3.309 1.32 6.138 6.138 0 0 0 3.346-11.559 6.124 6.124 0 0 0-6.776.748 6.142 6.142 0 0 0 .121 9.491Zm2.334-7.55a3.134 3.134 0 0 1 1.789-.363 3.13 3.13 0 0 1 2.827 3.394 3.139 3.139 0 0 1-4.009 2.744 3.141 3.141 0 0 1-.607-5.775Zm-28.935 5.196a6.132 6.132 0 0 0 3.305 1.326 6.144 6.144 0 0 0 6.638-5.575 6.141 6.141 0 0 0-3.274-5.981 6.126 6.126 0 0 0-8.719 3.726 6.135 6.135 0 0 0 2.05 6.504Zm2.333-7.536a3.133 3.133 0 0 1 3.906.74 3.137 3.137 0 0 1 .044 3.978 3.137 3.137 0 0 1-5.227-3.417 3.128 3.128 0 0 1 1.277-1.301Zm33.374 25.178-11.461-1.012a1.494 1.494 0 0 1-1.36-1.624l.131-1.493a6.365 6.365 0 0 0-1.128-4.251 1.5 1.5 0 0 1 .106-1.887 8.395 8.395 0 0 1 7.003-2.721l1.685.148a8.449 8.449 0 0 1 7.334 5.886 8.477 8.477 0 0 1 .358 3.285l-.136 1.538a2.342 2.342 0 0 1-2.532 2.131Zm-9.707-3.866 9.314.822.078-.888a5.473 5.473 0 0 0-1.261-3.989 5.463 5.463 0 0 0-3.712-1.926l-1.744-.154a5.396 5.396 0 0 0-3.691 1.029 9.274 9.274 0 0 1 1.016 5.106Zm-30.844.287 11.461 1.012a1.498 1.498 0 0 0 1.667-1.35l.132-1.493a6.362 6.362 0 0 1 1.891-3.985 1.497 1.497 0 0 0 .226-1.876 8.408 8.408 0 0 0-6.42-3.906l-1.767-.156a8.455 8.455 0 0 0-6.177 1.935 8.455 8.455 0 0 0-2.998 5.74l-.136 1.538a2.344 2.344 0 0 0 2.121 2.541Zm10.233-2.106-9.314-.821.101-.887a5.455 5.455 0 0 1 5.907-4.954l1.745.154a5.393 5.393 0 0 1 3.454 1.658 9.277 9.277 0 0 0-1.893 4.85Z" fill="#FF7B80"/><path fill-rule="evenodd" clip-rule="evenodd" d="M465.722 119.299a6.732 6.732 0 0 0 8.547-.088 6.75 6.75 0 0 0-1.212-11.148 6.738 6.738 0 0 0-7.442.811 6.75 6.75 0 0 0-2.1 7.192 6.738 6.738 0 0 0 2.207 3.233Zm2.422-8.542a3.74 3.74 0 0 1 5.369 2.162 3.756 3.756 0 0 1-.653 3.471 3.747 3.747 0 0 1-3.968 1.249 3.749 3.749 0 0 1-.748-6.882Zm-7.975 24.236 15.734 1.389a2.455 2.455 0 0 0 2.652-2.211l.153-1.739a9.371 9.371 0 0 0-2.15-6.823 9.357 9.357 0 0 0-6.336-3.313l-1.998-.176a9.351 9.351 0 0 0-6.817 2.152 9.37 9.37 0 0 0-3.31 6.341l-.152 1.724a2.457 2.457 0 0 0 2.224 2.656Zm15.452-1.645-14.645-1.292.105-1.194a6.353 6.353 0 0 1 6.881-5.772l1.999.177a6.346 6.346 0 0 1 4.308 2.248 6.363 6.363 0 0 1 1.458 4.639l-.106 1.194Z" fill="#FF7B80"/><defs><filter id="search__a" x="279.764" y="1002" width="297.75" height="72" filterUnits="userSpaceOnUse" color-interpolation-filters="sRGB"><feFlood flood-opacity="0" result="BackgroundImageFix"/><feBlend in="SourceGraphic" in2="BackgroundImageFix" result="shape"/><feGaussianBlur stdDeviation="7" result="effect1_foregroundBlur_10272_1613"/></filter><filter id="search__b" x="657.658" y="115.011" width="115.074" height="94.312" filterUnits="userSpaceOnUse" color-interpolation-filters="sRGB"><feFlood flood-opacity="0" result="BackgroundImageFix"/><feBlend in="SourceGraphic" in2="BackgroundImageFix" result="shape"/><feGaussianBlur stdDeviation="14.58" result="effect1_foregroundBlur_10272_1613"/></filter><filter id="search__c" x="728.982" y="154.936" width="128.723" height="302.176" filterUnits="userSpaceOnUse" color-interpolation-filters="sRGB"><feFlood flood-opacity="0" result="BackgroundImageFix"/><feBlend in="SourceGraphic" in2="BackgroundImageFix" result="shape"/><feGaussianBlur stdDeviation="14.58" result="effect1_foregroundBlur_10272_1613"/></filter></defs></svg>