<svg width="1080" height="1081" viewBox="0 0 1080 1081" fill="none" xmlns="http://www.w3.org/2000/svg">
<g clip-path="url(#clip0_18735_2795)">
<path d="M596 1050.51C848.394 1050.51 1053 845.908 1053 593.514C1053 341.12 848.394 136.514 596 136.514C343.606 136.514 139 341.12 139 593.514C139 845.908 343.606 1050.51 596 1050.51Z" fill="#C5D9FB"/>
<path d="M532.227 571.568L929.466 570.429L895.841 974.223H567.846L532.227 571.568Z" fill="url(#paint0_linear_18735_2795)"/>
<path d="M541.055 732.858C585.908 732.858 622.269 696.497 622.269 651.643C622.269 606.79 585.908 570.429 541.055 570.429C496.201 570.429 459.84 606.79 459.84 651.643C459.84 696.497 496.201 732.858 541.055 732.858Z" fill="#0096FA"/>
<path d="M358.685 904.69C403.696 904.69 440.183 868.202 440.183 823.191C440.183 778.18 403.696 741.691 358.685 741.691C313.674 741.691 277.185 778.18 277.185 823.191C277.185 868.202 313.674 904.69 358.685 904.69Z" fill="#0096FA"/>
<path d="M403.362 890.69L596.346 709.049L485.212 590.976L292.229 772.617L403.362 890.69Z" fill="url(#paint1_linear_18735_2795)"/>
<path d="M442.86 853.518L392.047 541.672L232.238 569.09L277.968 835.626L403.228 890.747L442.86 853.518Z" fill="#0096FA"/>
<path d="M299.355 374.384L211.108 342.068L223.537 437.773L269.525 563.307L345.342 549.635L326.699 511.105L299.355 374.384Z" fill="#8C3A03"/>
<path d="M619.65 1033.75L668.51 998.135L591.685 1015.06L584.989 1002.31L654.433 974.594L560.489 975.253L558.216 959.696L651.242 943.042L573.525 931.088L573.868 915.285L699.98 909.079L697.331 870.258L720.15 870.258L740.566 906.286L781.777 904.381L816.411 1002.08L691.053 1018.58L627.634 1045.67L619.65 1033.75Z" fill="#8C3A03"/>
<path d="M922.905 732.858C967.759 732.858 1004.12 696.497 1004.12 651.643C1004.12 606.79 967.759 570.429 922.905 570.429C878.052 570.429 841.691 606.79 841.691 651.643C841.691 696.497 878.052 732.858 922.905 732.858Z" fill="#0096FA"/>
<path d="M936.981 968.6C973.625 994.466 1024.3 985.729 1050.17 949.085C1076.03 912.44 1067.29 861.766 1030.65 835.9C994.006 810.034 943.331 818.771 917.465 855.416C891.599 892.06 900.337 942.734 936.981 968.6Z" fill="#0096FA"/>
<path d="M1060.52 873.682L998.165 610.537L840.39 647.921L902.741 911.066L1060.52 873.682Z" fill="#0096FA"/>
<path d="M962.105 823.796L757.416 877.083L782.929 1038.1L1003.07 980.72L962.105 823.796Z" fill="#0096FA"/>
<path d="M238.613 441.96L237.148 401.173L150.615 415.847L153.13 446.477L238.613 441.96Z" fill="#8C3A03"/>
<path d="M252.647 372.614L229.905 316.533L228.911 316.838L228.821 316.546L222.404 318.674L215.935 320.531L215.987 320.803L214.993 321.108L227.617 380.294L233.661 378.408L252.647 372.614Z" fill="#072F73"/>
<path d="M238.431 328.89L226.656 332.535L214.863 336.121L231.655 411.08L243.039 407.62L255.203 403.887L266.568 400.368L238.431 328.89Z" fill="#1968F0"/>
<path d="M150.799 313.451C200.393 339.757 261.651 321.392 287.622 272.431C313.592 223.469 294.442 162.452 244.847 136.146C195.253 109.839 133.995 128.205 108.024 177.166C82.0534 226.127 101.204 287.144 150.799 313.451Z" fill="#072F73"/>
<path d="M157.085 301.604C200.77 324.777 254.425 309.174 276.925 266.755C299.426 224.336 282.252 171.163 238.567 147.991C194.881 124.819 141.227 140.422 118.726 182.841C96.2259 225.26 113.4 278.432 157.085 301.604Z" fill="url(#paint2_linear_18735_2795)"/>
<path d="M238.346 439.176L238.619 476.477L174.569 464.133L176.304 443.148L238.346 439.176Z" fill="#8C3A03"/>
<path d="M220.873 368.245L215.623 338.008L175.618 354.841L180.822 374.082L220.873 368.245Z" fill="#8C3A03"/>
<path d="M300.68 390.721L309.505 360.701L239.468 337.99L236.679 358.803L300.68 390.721Z" fill="#8C3A03"/>
<path d="M222.34 404.166L217.522 369.539L159.475 385.257L163.537 408.79L222.34 404.166Z" fill="#8C3A03"/>
<path d="M740.267 545.981C629.927 523.619 558.607 416.043 580.969 305.703C603.331 195.362 710.907 124.041 821.247 146.403C931.588 168.765 1002.91 276.343 980.546 386.683C958.184 497.023 850.607 568.343 740.267 545.981Z" fill="#141414"/>
<path d="M672.185 312.158L799.345 337.929L807.919 349.77L778.971 593.166L684.939 574.11L689.526 535.149L646.526 526.435C643.123 521.739 641.354 519.29 637.951 514.594L660.981 320.165L672.185 312.158Z" fill="#8C3A03"/>
<path d="M798.92 502.448L772.317 497.056L780.795 455.227L816.935 462.552L810.391 494.844C809.138 500.164 804.107 503.499 798.92 502.448Z" fill="#8C3A03"/>
<path d="M758.795 575.836L780.714 580.278L790.058 500.651L765.295 495.633L758.795 575.836Z" fill="url(#paint3_linear_18735_2795)"/>
<path d="M721.312 555.351L688.184 548.637L689.725 535.014L723.021 541.762L721.312 555.351Z" fill="url(#paint4_linear_18735_2795)"/>
<path fill-rule="evenodd" clip-rule="evenodd" d="M690.145 423.826C688.982 423.009 687.377 423.291 686.561 424.454L655.208 469.137C654.71 469.848 654.603 470.762 654.925 471.568C655.246 472.375 655.953 472.965 656.804 473.137L680.396 477.918C681.789 478.201 683.147 477.3 683.429 475.907C683.711 474.514 682.811 473.156 681.418 472.874L661.68 468.874L690.774 427.41C691.59 426.247 691.309 424.642 690.145 423.826Z" fill="#141414"/>
</g>
<defs>
<linearGradient id="paint0_linear_18735_2795" x1="730.846" y1="570.429" x2="1062.55" y2="902.756" gradientUnits="userSpaceOnUse">
<stop offset="0.448469" stop-color="#0096FA"/>
<stop offset="1" stop-color="#072F73"/>
</linearGradient>
<linearGradient id="paint1_linear_18735_2795" x1="558.151" y1="652.959" x2="230.292" y2="728.619" gradientUnits="userSpaceOnUse">
<stop offset="0.295065" stop-color="#0096FA"/>
<stop offset="0.752889" stop-color="#072F73"/>
<stop offset="1" stop-color="#0096FA"/>
</linearGradient>
<linearGradient id="paint2_linear_18735_2795" x1="277.259" y1="147.794" x2="116.073" y2="304.065" gradientUnits="userSpaceOnUse">
<stop stop-color="white"/>
<stop offset="0.315" stop-color="#FCFDFF"/>
<stop offset="0.5502" stop-color="#F2F7FE"/>
<stop offset="0.7594" stop-color="#E2ECFD"/>
<stop offset="0.9524" stop-color="#CCDDFB"/>
<stop offset="1" stop-color="#C5D9FB"/>
</linearGradient>
<linearGradient id="paint3_linear_18735_2795" x1="748.475" y1="540.768" x2="824.604" y2="527.07" gradientUnits="userSpaceOnUse">
<stop offset="0.1839" stop-color="#8C3A03" stop-opacity="0"/>
<stop offset="0.2807" stop-color="#7F3605" stop-opacity="0.1636"/>
<stop offset="0.459" stop-color="#5E2B0A" stop-opacity="0.4648"/>
<stop offset="0.6973" stop-color="#271A11" stop-opacity="0.8673"/>
<stop offset="0.7758" stop-color="#141414"/>
</linearGradient>
<linearGradient id="paint4_linear_18735_2795" x1="717.049" y1="568.763" x2="694.726" y2="519.749" gradientUnits="userSpaceOnUse">
<stop stop-color="#8C3A03" stop-opacity="0"/>
<stop offset="0.1808" stop-color="#883904" stop-opacity="0.1808"/>
<stop offset="0.364" stop-color="#7C3505" stop-opacity="0.364"/>
<stop offset="0.5483" stop-color="#672E08" stop-opacity="0.5483"/>
<stop offset="0.7336" stop-color="#4B250C" stop-opacity="0.7336"/>
<stop offset="0.9178" stop-color="#271A11" stop-opacity="0.9178"/>
<stop offset="1" stop-color="#141414"/>
</linearGradient>
<clipPath id="clip0_18735_2795">
<rect width="1080" height="1080" fill="white" transform="translate(0 0.513672)"/>
</clipPath>
</defs>
</svg>
