<svg xmlns="http://www.w3.org/2000/svg" width="1080" height="1081" fill="none"><g clip-path="url(#a)"><path fill="#C5D9FB" d="M596 1050.51c252.394 0 457-204.602 457-456.996s-204.606-457-457-457-457 204.606-457 457 204.606 456.996 457 456.996"/><path fill="url(#b)" d="m532.227 571.568 397.239-1.139-33.625 403.794H567.846z"/><path fill="#0096FA" d="M541.055 732.858c44.853 0 81.214-36.361 81.214-81.215 0-44.853-36.361-81.214-81.214-81.214s-81.215 36.361-81.215 81.214 36.361 81.215 81.215 81.215M358.685 904.69c45.011 0 81.498-36.488 81.498-81.499s-36.487-81.5-81.498-81.5-81.5 36.489-81.5 81.5 36.489 81.499 81.5 81.499"/><path fill="url(#c)" d="m403.362 890.69 192.984-181.641-111.134-118.073-192.983 181.641z"/><path fill="#0096FA" d="m442.86 853.518-50.813-311.846-159.809 27.418 45.73 266.536 125.26 55.121z"/><path fill="#8C3A03" d="m299.355 374.384-88.247-32.316 12.429 95.705 45.988 125.534 75.817-13.672-18.643-38.53zM619.65 1033.75l48.86-35.615-76.825 16.925-6.696-12.75 69.444-27.716-93.944.659-2.273-15.557 93.026-16.654-77.717-11.954.343-15.803 126.112-6.206-2.649-38.821h22.819l20.416 36.028 41.211-1.905 34.634 97.699-125.358 16.5-63.419 27.09z"/><path fill="#0096FA" d="M922.905 732.858c44.854 0 81.215-36.361 81.215-81.215 0-44.853-36.361-81.214-81.215-81.214-44.853 0-81.214 36.361-81.214 81.214s36.361 81.215 81.214 81.215M936.981 968.6c36.644 25.866 87.319 17.129 113.189-19.515 25.86-36.645 17.12-87.319-19.52-113.185-36.644-25.866-87.319-17.129-113.185 19.516s-17.128 87.318 19.516 113.184"/><path fill="#0096FA" d="m1060.52 873.682-62.355-263.145-157.775 37.384 62.351 263.145z"/><path fill="#0096FA" d="m962.105 823.796-204.689 53.287 25.513 161.017 220.141-57.38z"/><path fill="#8C3A03" d="m238.613 441.96-1.465-40.787-86.533 14.674 2.515 30.63z"/><path fill="#072F73" d="m252.647 372.614-22.742-56.081-.994.305-.09-.292-6.417 2.128-6.469 1.857.052.272-.994.305 12.624 59.186 6.044-1.886z"/><path fill="#1968F0" d="m238.431 328.89-11.775 3.645-11.793 3.586 16.792 74.959 11.384-3.46 12.164-3.733 11.365-3.519z"/><path fill="#072F73" d="M150.799 313.451c49.594 26.306 110.852 7.941 136.823-41.02 25.97-48.962 6.82-109.979-42.775-136.285-49.594-26.307-110.852-7.941-136.823 41.02-25.97 48.961-6.82 109.978 42.775 136.285"/><path fill="url(#d)" d="M157.085 301.604c43.685 23.173 97.34 7.57 119.84-34.849 22.501-42.419 5.327-95.592-38.358-118.764-43.686-23.172-97.34-7.569-119.841 34.85s-5.326 95.591 38.359 118.763"/><path fill="#8C3A03" d="m238.346 439.176.273 37.301-64.05-12.344 1.735-20.985zM220.873 368.245l-5.25-30.237-40.005 16.833 5.204 19.241zM300.68 390.721l8.825-30.02-70.037-22.711-2.789 20.813zM222.34 404.166l-4.818-34.627-58.047 15.718 4.062 23.533z"/><path fill="#141414" d="M740.267 545.981c-110.34-22.362-181.66-129.938-159.298-240.278s129.938-181.662 240.278-159.3 181.663 129.94 159.299 240.28c-22.362 110.34-129.939 181.66-240.279 159.298"/><path fill="#8C3A03" d="m672.185 312.158 127.16 25.771 8.574 11.841-28.948 243.396-94.032-19.056 4.587-38.961-43-8.714c-3.403-4.696-5.172-7.145-8.575-11.841l23.03-194.429z"/><path fill="#8C3A03" d="m798.92 502.448-26.603-5.392 8.478-41.829 36.14 7.325-6.544 32.292c-1.253 5.32-6.284 8.655-11.471 7.604"/><path fill="url(#e)" d="m758.795 575.836 21.919 4.442 9.344-79.627-24.763-5.018z"/><path fill="url(#f)" d="m721.312 555.351-33.128-6.714 1.541-13.623 33.296 6.748z"/><path fill="#141414" fill-rule="evenodd" d="M690.145 423.826a2.57 2.57 0 0 0-3.584.628l-31.353 44.683a2.573 2.573 0 0 0 1.596 4l23.592 4.781a2.572 2.572 0 1 0 1.022-5.044l-19.738-4 29.094-41.464a2.573 2.573 0 0 0-.629-3.584" clip-rule="evenodd"/></g><defs><linearGradient id="b" x1="730.846" x2="1062.55" y1="570.429" y2="902.756" gradientUnits="userSpaceOnUse"><stop offset=".448" stop-color="#0096FA"/><stop offset="1" stop-color="#072F73"/></linearGradient><linearGradient id="c" x1="558.151" x2="230.292" y1="652.959" y2="728.619" gradientUnits="userSpaceOnUse"><stop offset=".295" stop-color="#0096FA"/><stop offset=".753" stop-color="#072F73"/><stop offset="1" stop-color="#0096FA"/></linearGradient><linearGradient id="d" x1="277.259" x2="116.073" y1="147.794" y2="304.065" gradientUnits="userSpaceOnUse"><stop stop-color="#fff"/><stop offset=".315" stop-color="#FCFDFF"/><stop offset=".55" stop-color="#F2F7FE"/><stop offset=".759" stop-color="#E2ECFD"/><stop offset=".952" stop-color="#CCDDFB"/><stop offset="1" stop-color="#C5D9FB"/></linearGradient><linearGradient id="e" x1="748.475" x2="824.604" y1="540.768" y2="527.07" gradientUnits="userSpaceOnUse"><stop offset=".184" stop-color="#8C3A03" stop-opacity="0"/><stop offset=".281" stop-color="#7F3605" stop-opacity=".164"/><stop offset=".459" stop-color="#5E2B0A" stop-opacity=".465"/><stop offset=".697" stop-color="#271A11" stop-opacity=".867"/><stop offset=".776" stop-color="#141414"/></linearGradient><linearGradient id="f" x1="717.049" x2="694.726" y1="568.763" y2="519.749" gradientUnits="userSpaceOnUse"><stop stop-color="#8C3A03" stop-opacity="0"/><stop offset=".181" stop-color="#883904" stop-opacity=".181"/><stop offset=".364" stop-color="#7C3505" stop-opacity=".364"/><stop offset=".548" stop-color="#672E08" stop-opacity=".548"/><stop offset=".734" stop-color="#4B250C" stop-opacity=".734"/><stop offset=".918" stop-color="#271A11" stop-opacity=".918"/><stop offset="1" stop-color="#141414"/></linearGradient><clipPath id="a"><path fill="#fff" d="M0 .514h1080v1080H0z"/></clipPath></defs></svg>