<svg width="1080" height="1081" viewBox="0 0 1080 1081" fill="none" xmlns="http://www.w3.org/2000/svg">
<path d="M788.067 830.591L621.552 690.852L618.816 693.495L618.117 692.795L601.316 710.286L583.816 727.092L584.516 727.792L581.874 730.544L721.579 897.102L737.68 881.011L788.067 830.591Z" fill="#072F73"/>
<path d="M669.367 715.661L638.159 747.144L606.687 778.363L786.304 988.128L816.486 957.935L848.876 925.55L879.058 895.357L669.367 715.661Z" fill="#1968F0"/>
<path d="M365.233 814.295C566.946 814.295 730.466 652.805 730.466 453.597C730.466 254.389 566.946 92.8994 365.233 92.8994C163.52 92.8994 0 254.389 0 453.597C0 652.805 163.52 814.295 365.233 814.295Z" fill="#072F73"/>
<path d="M365.23 766.098C542.909 766.098 686.946 626.186 686.946 453.597C686.946 281.007 542.909 141.096 365.23 141.096C187.551 141.096 43.5144 281.007 43.5144 453.597C43.5144 626.186 187.551 766.098 365.23 766.098Z" fill="url(#paint0_linear_18020_2649)"/>
<path d="M888.665 844.831C994.336 844.831 1080 755.204 1080 644.643C1080 534.083 994.336 444.456 888.665 444.456C782.993 444.456 697.329 534.083 697.329 644.643C697.329 755.204 782.993 844.831 888.665 844.831Z" fill="#0096FA"/>
<path d="M814.658 454.516C866.511 454.516 908.546 412.466 908.546 360.594C908.546 308.723 866.511 266.673 814.658 266.673C762.805 266.673 720.77 308.723 720.77 360.594C720.77 412.466 762.805 454.516 814.658 454.516Z" fill="#35DE90"/>
<defs>
<linearGradient id="paint0_linear_18020_2649" x1="487.7" y1="75.2994" x2="239.011" y2="842.928" gradientUnits="userSpaceOnUse">
<stop stop-color="white"/>
<stop offset="0.32" stop-color="#FCFDFE"/>
<stop offset="0.55" stop-color="#F2F6FE"/>
<stop offset="0.76" stop-color="#E2ECFD"/>
<stop offset="0.95" stop-color="#CBDDFB"/>
<stop offset="1" stop-color="#C5D9FB"/>
</linearGradient>
</defs>
</svg>
