<svg xmlns="http://www.w3.org/2000/svg" width="1080" height="1081" fill="none"><path fill="#072F73" d="M788.067 830.591 621.552 690.852l-2.736 2.643-.699-.7-16.801 17.491-17.5 16.806.7.7-2.642 2.752 139.705 166.558 16.101-16.091z"/><path fill="#1968F0" d="m669.367 715.661-31.208 31.483-31.472 31.219 179.617 209.765 30.182-30.193 32.39-32.385 30.182-30.193z"/><path fill="#072F73" d="M365.233 814.295c201.713 0 365.233-161.49 365.233-360.698S566.946 92.899 365.233 92.899 0 254.39 0 453.597s163.52 360.698 365.233 360.698"/><path fill="url(#a)" d="M365.23 766.098c177.679 0 321.716-139.912 321.716-312.501 0-172.59-144.037-312.501-321.716-312.501S43.514 281.007 43.514 453.597 187.551 766.098 365.23 766.098"/><path fill="#0096FA" d="M888.665 844.831c105.671 0 191.335-89.627 191.335-200.188s-85.664-200.187-191.335-200.187-191.336 89.627-191.336 200.187 85.664 200.188 191.336 200.188"/><path fill="#35DE90" d="M814.658 454.516c51.853 0 93.888-42.05 93.888-93.922s-42.035-93.921-93.888-93.921-93.888 42.05-93.888 93.921 42.035 93.922 93.888 93.922"/><defs><linearGradient id="a" x1="487.7" x2="239.011" y1="75.299" y2="842.928" gradientUnits="userSpaceOnUse"><stop stop-color="#fff"/><stop offset=".32" stop-color="#FCFDFE"/><stop offset=".55" stop-color="#F2F6FE"/><stop offset=".76" stop-color="#E2ECFD"/><stop offset=".95" stop-color="#CBDDFB"/><stop offset="1" stop-color="#C5D9FB"/></linearGradient></defs></svg>