<svg xmlns="http://www.w3.org/2000/svg" width="1080" height="1081" fill="none"><path fill="#072F73" d="M223.747 511.224c48.546 0 87.901-39.599 87.901-88.446s-39.355-88.446-87.901-88.446-87.901 39.599-87.901 88.446 39.355 88.446 87.901 88.446"/><path fill="url(#a)" d="M965.321 267.314h-732.56c-7.215 0-13.063 5.852-13.063 13.07v467.05c0 7.219 5.848 13.07 13.063 13.07h732.56c7.215 0 13.064-5.851 13.064-13.07v-467.05c0-7.218-5.849-13.07-13.064-13.07"/><path fill="#1968F0" fill-rule="evenodd" d="M741.801 336.056H250.647v-2.764h491.154zM297.777 299.4a8.22 8.22 0 0 0-8.217 8.221 8.22 8.22 0 0 0 8.217 8.221 8.22 8.22 0 0 0 8.217-8.221 8.22 8.22 0 0 0-8.217-8.221m-12.136 8.221c0-6.706 5.433-12.142 12.136-12.142s12.136 5.436 12.136 12.142-5.434 12.142-12.136 12.142c-6.703 0-12.136-5.436-12.136-12.142M332.922 299.4a8.22 8.22 0 0 0-8.217 8.221 8.22 8.22 0 0 0 8.217 8.221 8.22 8.22 0 0 0 8.217-8.221 8.22 8.22 0 0 0-8.217-8.221m-12.136 8.221c0-6.706 5.434-12.142 12.136-12.142 6.703 0 12.136 5.436 12.136 12.142s-5.433 12.142-12.136 12.142-12.136-5.436-12.136-12.142M275.661 298.341l-21.306 21.316-2.771-2.772 21.306-21.317z" clip-rule="evenodd"/><path fill="#1968F0" fill-rule="evenodd" d="m272.89 319.657-21.306-21.316 2.771-2.773 21.306 21.317z" clip-rule="evenodd"/><path fill="#F6F6F6" d="M211.594 898.589c106.919 0 193.594-86.714 193.594-193.683s-86.675-193.682-193.594-193.682S18 597.938 18 704.906c0 106.969 86.675 193.683 193.594 193.683"/><path fill="#0195FA" d="M444.353 822.916c26.982 0 48.855-22.009 48.855-49.158S471.335 724.6 444.353 724.6s-48.855 22.008-48.855 49.158c0 27.149 21.873 49.158 48.855 49.158"/><path fill="#068AF7" fill-rule="evenodd" d="m759.591 582.051-57.224-57.225a7.21 7.21 0 0 1 0-10.194l25.006-25.006a161 161 0 0 1-11.643-28.135h-35.373a7.21 7.21 0 0 1-7.209-7.208v-80.928a7.21 7.21 0 0 1 7.209-7.208h35.373a161 161 0 0 1 11.643-28.138l-25.004-25.005a7.21 7.21 0 0 1 0-10.194l57.224-57.224a7.21 7.21 0 0 1 10.194 0l25.005 25.004a161 161 0 0 1 28.135-11.643v-35.375a7.21 7.21 0 0 1 7.209-7.208h80.927a7.21 7.21 0 0 1 7.209 7.208v35.374a161 161 0 0 1 28.137 11.644l25.005-25.005a7.207 7.207 0 0 1 10.193 0l57.223 57.225a7.2 7.2 0 0 1 0 10.194l-25 25.004c4.8 9.065 8.68 18.491 11.64 28.139h35.38c3.98 0 7.2 3.227 7.2 7.208v80.928a7.2 7.2 0 0 1-7.2 7.208h-35.38a161 161 0 0 1-11.64 28.136l25 25.006a7.2 7.2 0 0 1 0 10.193l-57.221 57.225a7.21 7.21 0 0 1-10.194 0l-25.005-25.005a161 161 0 0 1-28.138 11.643v35.373a7.21 7.21 0 0 1-7.209 7.208h-80.927a7.21 7.21 0 0 1-7.209-7.208v-35.373a161 161 0 0 1-28.136-11.644l-25.006 25.006a7.21 7.21 0 0 1-10.194 0m40.34-238.903c39.03-39.029 102.308-39.029 141.338 0s39.029 102.308 0 141.338-102.308 39.029-141.338 0-39.029-102.308 0-141.338" clip-rule="evenodd"/><path fill="#F6F6F6" fill-rule="evenodd" d="m451.644 624.456-23.068-48.938a4.82 4.82 0 0 1 2.304-6.413l21.386-10.081a107.6 107.6 0 0 1-.965-20.332l-22.262-7.998a4.82 4.82 0 0 1-2.905-6.164l18.293-50.916a4.82 4.82 0 0 1 6.164-2.906l22.261 7.998a107.7 107.7 0 0 1 13.685-15.07l-10.081-21.385a4.82 4.82 0 0 1 2.305-6.414l48.938-23.068a4.82 4.82 0 0 1 6.413 2.305l10.08 21.385a107.6 107.6 0 0 1 20.336-.966l7.996-22.256a4.82 4.82 0 0 1 6.164-2.906l50.916 18.293a4.82 4.82 0 0 1 2.906 6.165l-7.996 22.255a107.7 107.7 0 0 1 15.07 13.685l21.384-10.079a4.82 4.82 0 0 1 6.413 2.304l23.068 48.938a4.82 4.82 0 0 1-2.304 6.414l-21.384 10.079a107.6 107.6 0 0 1 .966 20.337l22.25 7.994a4.82 4.82 0 0 1 2.905 6.164l-18.293 50.916a4.82 4.82 0 0 1-6.164 2.905l-22.25-7.994a107.6 107.6 0 0 1-13.687 15.071l10.079 21.383a4.82 4.82 0 0 1-2.304 6.413l-48.938 23.068a4.82 4.82 0 0 1-6.414-2.304l-10.079-21.384a107.6 107.6 0 0 1-20.334.965l-7.995 22.255a4.82 4.82 0 0 1-6.165 2.906l-50.915-18.293a4.82 4.82 0 0 1-2.906-6.165l7.996-22.255a107.7 107.7 0 0 1-15.071-13.686l-21.385 10.08a4.82 4.82 0 0 1-6.413-2.305m85.669-127.843c26.009-12.259 57.031-1.114 69.29 24.895 12.259 26.008 1.114 57.03-24.895 69.289-26.008 12.26-57.03 1.114-69.289-24.894s-1.114-57.03 24.894-69.29" clip-rule="evenodd"/><path fill="#1E6BF1" fill-rule="evenodd" d="m509.959 368.885-17.039-36.147a3.56 3.56 0 0 1 1.702-4.737l15.797-7.446a79.6 79.6 0 0 1-.713-15.019l-16.438-5.906a3.56 3.56 0 0 1-2.146-4.554l13.512-37.608a3.56 3.56 0 0 1 4.553-2.146l16.439 5.906a79.5 79.5 0 0 1 10.108-11.131l-7.446-15.795a3.56 3.56 0 0 1 1.702-4.738l36.148-17.038a3.56 3.56 0 0 1 4.737 1.702l7.445 15.795a79.5 79.5 0 0 1 15.02-.713l5.906-16.44a3.56 3.56 0 0 1 4.553-2.146l37.609 13.512a3.56 3.56 0 0 1 2.146 4.553l-5.906 16.439a79.6 79.6 0 0 1 11.131 10.109l15.794-7.445a3.56 3.56 0 0 1 4.737 1.702l17.039 36.147a3.56 3.56 0 0 1-1.702 4.738l-15.794 7.444a79.4 79.4 0 0 1 .714 15.021l16.438 5.906a3.56 3.56 0 0 1 2.147 4.553l-13.512 37.608a3.56 3.56 0 0 1-4.554 2.147l-16.438-5.907a79.4 79.4 0 0 1-10.11 11.133l7.445 15.794a3.56 3.56 0 0 1-1.702 4.738l-36.147 17.038a3.56 3.56 0 0 1-4.737-1.702l-7.445-15.795a79.5 79.5 0 0 1-15.02.713l-5.906 16.438a3.56 3.56 0 0 1-4.553 2.146l-37.609-13.512a3.56 3.56 0 0 1-2.146-4.553l5.906-16.438a79.5 79.5 0 0 1-11.132-10.109l-15.796 7.445a3.56 3.56 0 0 1-4.737-1.702m91.353-34.871c13.682-6.449 19.545-22.768 13.096-36.45s-22.769-19.545-36.451-13.096-19.545 22.768-13.096 36.45 22.769 19.546 36.451 13.096" clip-rule="evenodd"/><path fill="#35DE90" d="m407.765 659.366-287.708-77.092c-7.323-1.962-14.85 2.386-16.813 9.712L54.739 773.008c-1.963 7.325 2.382 14.855 9.705 16.817l287.708 77.091c7.323 1.962 14.85-2.386 16.813-9.712l48.504-181.021c1.963-7.326-2.381-14.855-9.704-16.817"/><path fill="#fff" fill-rule="evenodd" d="m126.587 611.832 260.741 69.865-41.713 155.673-260.74-69.865zm1.941 3.363L88.237 765.562l255.437 68.445 40.291-150.367z" clip-rule="evenodd"/><path fill="#fff" fill-rule="evenodd" d="m214.274 800.755 41.001-153.02 2.652.711-41.001 153.02zM149.746 783.464l41.002-153.02 2.651.711-41.001 153.02zM278.79 818.043l41.002-153.02 2.651.711-41.001 153.02z" clip-rule="evenodd"/><path fill="#fff" fill-rule="evenodd" d="m107.412 688.697 258.089 69.155-.711 2.653-258.089-69.155zM117.661 650.441l258.089 69.155-.711 2.653-258.089-69.155zM97.163 726.952l258.089 69.155-.711 2.653-258.09-69.155z" clip-rule="evenodd"/><path fill="#0096FA" fill-rule="evenodd" d="M251.245 754.881c-7.878 7.753-16.717 13.143-26.102 10.629-9.594-2.571-16.17-7.057-21.041-12.509-4.814-5.388-7.876-11.632-10.575-17.489l-.787-1.713c-5.14-11.214-9.392-20.49-21.875-23.835-5.736-1.537-13.918.691-23.545 5.75-9.458 4.971-19.656 12.318-29.102 19.973-9.429 7.64-18.023 15.518-24.266 21.491a414 414 0 0 0-7.392 7.247A293 293 0 0 0 84.034 767l-.13.135-.04.041v.002l-1.479-1.413-.506-.485c-1.984-1.898-1.984-1.898-1.983-1.899l.012-.013.036-.037.14-.144q.181-.191.536-.554c.47-.483 1.16-1.187 2.046-2.08a426 426 0 0 1 7.492-7.344c6.31-6.038 15.021-14.024 24.604-21.79 9.566-7.752 20.086-15.354 30.005-20.567 9.751-5.124 19.605-8.314 27.519-6.194 15.048 4.032 20.329 15.619 25.275 26.472q.477 1.047.952 2.082c2.69 5.837 5.466 11.408 9.683 16.128 4.159 4.655 9.806 8.569 18.369 10.864 6.326 1.695 13.161-1.691 20.83-9.238 7.556-7.436 15.12-18.122 22.753-29.11l1.384-1.992c7.095-10.225 14.25-20.535 21.305-28.002 3.764-3.985 7.636-7.312 11.607-9.391 4.011-2.1 8.269-2.996 12.603-1.835 7.727 2.071 11.651 7.925 14.024 14.826 1.679 4.881 2.717 10.723 3.764 16.619a359 359 0 0 0 1.224 6.644c1.624 8.218 3.797 16.234 8.184 22.915 4.319 6.578 10.883 12.01 21.63 14.89l-1.422 5.306c-12.037-3.226-19.733-9.467-24.798-17.18-4.996-7.61-7.329-16.504-8.98-24.865-.489-2.476-.916-4.878-1.328-7.194-1.015-5.714-1.936-10.898-3.466-15.347-2.087-6.071-5.041-9.911-10.254-11.308-2.65-.71-5.476-.259-8.636 1.396-3.201 1.676-6.589 4.514-10.162 8.296-6.758 7.153-13.689 17.138-20.879 27.497l-1.291 1.859c-7.568 10.893-15.422 22.029-23.412 29.891" clip-rule="evenodd"/><defs><linearGradient id="a" x1="140.612" x2="1032.06" y1="140.397" y2="866.057" gradientUnits="userSpaceOnUse"><stop stop-color="#fff"/><stop offset=".14" stop-color="#E3ECFD"/><stop offset=".29" stop-color="#CDDEFB"/><stop offset=".39" stop-color="#C5D9FB"/><stop offset=".61" stop-color="#C3D7FA"/><stop offset=".7" stop-color="#BCD3FA"/><stop offset=".77" stop-color="#AFCBF9"/><stop offset=".82" stop-color="#9EBFF8"/><stop offset=".87" stop-color="#88B0F7"/><stop offset=".91" stop-color="#6C9EF5"/><stop offset=".95" stop-color="#4B88F3"/><stop offset=".98" stop-color="#2570F0"/><stop offset=".99" stop-color="#1968F0"/></linearGradient></defs></svg>