<svg width="1103" height="1080" fill="none" xmlns="http://www.w3.org/2000/svg"><path d="m902.927 38.505-852.706 1.34c-18.193.028-32.918 14.8-32.89 32.992l1.18 750.737c.028 18.193 14.8 32.918 32.993 32.89l852.706-1.34c18.193-.028 32.918-14.8 32.889-32.993L935.92 71.394c-.029-18.193-14.8-32.918-32.993-32.89Z" fill="#F5F8F9"/><path d="M18.415 71.39A32.113 32.113 0 0 1 50.61 39.317l852.5-1.407a32.113 32.113 0 0 1 32.073 32.197v43.866l-916.686 1.283-.083-43.866Z" fill="#1A272F"/><path d="M903.111 38.862a31.076 31.076 0 0 1 31.12 31.245v42.956l-914.824 1.283V71.39a31.163 31.163 0 0 1 31.204-31.162l852.5-1.366Zm0-1.862-852.5 1.407A33.107 33.107 0 0 0 17.504 71.39v44.818l918.713-1.531v-44.57A33.109 33.109 0 0 0 903.111 37Z" fill="#242B36"/><path d="M67.287 87.157c5.485 0 9.932-4.447 9.932-9.932s-4.447-9.932-9.932-9.932-9.932 4.447-9.932 9.932c0 5.486 4.447 9.932 9.932 9.932Z" fill="#FF5A60"/><path d="M97.788 87.116c5.486 0 9.932-4.447 9.932-9.932s-4.446-9.932-9.932-9.932c-5.485 0-9.932 4.447-9.932 9.932s4.447 9.932 9.932 9.932Z" fill="#FFCF33"/><path d="M128.246 87.074c5.485 0 9.932-4.447 9.932-9.932 0-5.486-4.447-9.932-9.932-9.932a9.931 9.931 0 0 0-9.932 9.932c0 5.485 4.446 9.932 9.932 9.932Z" fill="#4DCB7B"/><path d="M857.578 399.193 82.756 400.41a9.228 9.228 0 0 0-9.215 9.243l.228 144.759a9.228 9.228 0 0 0 9.243 9.214l774.822-1.217a9.228 9.228 0 0 0 9.214-9.243l-.227-144.759a9.229 9.229 0 0 0-9.243-9.214Zm6.857-191.948-573.451.901a9.229 9.229 0 0 0-9.214 9.243l.228 144.759a9.23 9.23 0 0 0 9.243 9.215l573.45-.901a9.229 9.229 0 0 0 9.214-9.243l-.227-144.76a9.229 9.229 0 0 0-9.243-9.214Z" fill="#fff"/><path fill-rule="evenodd" clip-rule="evenodd" d="M379.285 312.653a2.281 2.281 0 0 1-2.28 2.285l-36.004.042a2.283 2.283 0 0 1-.005-4.566l36.004-.042a2.283 2.283 0 0 1 2.285 2.281Z" fill="#B9CBD3"/><path fill-rule="evenodd" clip-rule="evenodd" d="M390.642 324.077a1.141 1.141 0 0 1-1.139 1.143l-60.958.082a1.141 1.141 0 1 1-.003-2.283l60.957-.082a1.14 1.14 0 0 1 1.143 1.14Z" fill="#D2DFE6"/><path d="M358.96 298.999c12.09 0 21.892-9.802 21.892-21.892 0-12.091-9.802-21.892-21.892-21.892-12.091 0-21.892 9.801-21.892 21.892 0 12.09 9.801 21.892 21.892 21.892Z" fill="#2CC3D5"/><path opacity=".5" d="M369.842 271.852a5.052 5.052 0 0 0-4.138-4.139 12.46 12.46 0 0 0-2.856-.289 8.6 8.6 0 0 0-4.386.993 5.089 5.089 0 0 0-2.111 2.814 6.949 6.949 0 0 1 3.228.952 6.042 6.042 0 0 1 2.525 5.587 9.484 9.484 0 0 1-.58 3.021c.33.04.664.04.993 0v.951a1.12 1.12 0 0 0 1.118 1.118c.235-.039.46-.123.662-.248l2.276-2.028.331-.331a11.571 11.571 0 0 0 1.821-1.945 8.732 8.732 0 0 0 1.117-6.456Z" fill="#fff"/><path d="M354.324 286.75a1.039 1.039 0 0 1-.58-.248l-2.317-2.028-.331-.331a11.318 11.318 0 0 1-1.821-1.904 9.021 9.021 0 0 1-1.118-6.621 5.217 5.217 0 0 1 4.139-4.139 12.45 12.45 0 0 1 2.855-.289 8.602 8.602 0 0 1 4.387.993 6.04 6.04 0 0 1 2.524 5.587 6.415 6.415 0 0 1-6.538 6.911v.952a1.146 1.146 0 0 1-.369.807 1.146 1.146 0 0 1-.831.31Zm-1.614-13.615a3.432 3.432 0 0 0-2.856 2.814 7.283 7.283 0 0 0 .662 5.214 14.736 14.736 0 0 0 1.573 1.655l.372.332 1.283 1.158v-.372a.992.992 0 0 1 .993-.993 6.788 6.788 0 0 0 4.139-1.366 5.881 5.881 0 0 0 1.324-3.931 4.553 4.553 0 0 0-1.655-4.139 6.835 6.835 0 0 0-3.518-.745c-.848-.003-1.694.08-2.524.249l.207.124Z" fill="#fff"/><path d="M503.14 298.751c12.09 0 21.892-9.802 21.892-21.892 0-12.091-9.802-21.892-21.892-21.892-12.091 0-21.892 9.801-21.892 21.892 0 12.09 9.801 21.892 21.892 21.892Z" fill="#4DCB7B"/><path d="M513.03 271.851a7.286 7.286 0 0 0-6.001-5.918 22.902 22.902 0 0 0-4.138-.414 12.417 12.417 0 0 0-6.415 1.449 6.703 6.703 0 0 0-2.565 2.897.815.815 0 0 0-.048.636.841.841 0 0 0 .42.481c.204.102.439.12.656.051a.874.874 0 0 0 .503-.423 4.97 4.97 0 0 1 1.903-2.194 11.134 11.134 0 0 1 5.546-1.2 23.39 23.39 0 0 1 3.89.373 5.664 5.664 0 0 1 4.676 4.593c.68 2.82.219 5.795-1.283 8.277a15.687 15.687 0 0 1-2.441 2.566l-.538.496c-.911.869-1.863 1.697-2.649 2.4v-1.448a1.081 1.081 0 0 0-.664-.994 1.078 1.078 0 0 0-.412-.082 10.549 10.549 0 0 1-6.745-2.235.838.838 0 0 0-.6-.257.832.832 0 0 0-.6.257.868.868 0 0 0 0 1.2 11.584 11.584 0 0 0 7.2 2.69v1.821a1.248 1.248 0 0 0 .757 1.185c.153.065.318.098.485.098.26-.014.508-.117.703-.29a63.514 63.514 0 0 0 3.435-3.062l.538-.497a19.147 19.147 0 0 0 2.69-2.814 12.71 12.71 0 0 0 1.697-9.642Z" fill="#fff"/><path d="M499.373 279.177a1.117 1.117 0 0 0 0 1.531.953.953 0 0 0 .745.248 1.029 1.029 0 0 0 .786-.331l3.683-4.138-3.725-4.139a1.039 1.039 0 0 0-1.149-.234 1.039 1.039 0 0 0-.34.234 1.12 1.12 0 0 0 0 1.532l2.069 2.193h-7.366a1.073 1.073 0 0 0-1.076 1.076 1.076 1.076 0 0 0 1.076 1.076h7.366l-2.069.952Z" fill="#fff"/><path fill-rule="evenodd" clip-rule="evenodd" d="M523.507 312.405a2.283 2.283 0 0 1-2.281 2.285l-36.003.042a2.284 2.284 0 0 1-.005-4.567l36.003-.041a2.284 2.284 0 0 1 2.286 2.281Z" fill="#B9CBD3"/><path fill-rule="evenodd" clip-rule="evenodd" d="M534.864 323.827a1.142 1.142 0 0 1-1.14 1.144l-60.999.124a1.143 1.143 0 0 1-.004-2.283l60.999-.124a1.143 1.143 0 0 1 1.144 1.139Z" fill="#D2DFE6"/><path d="M648.188 298.502c12.09 0 21.892-9.801 21.892-21.892 0-12.09-9.802-21.891-21.892-21.891-12.091 0-21.892 9.801-21.892 21.891 0 12.091 9.801 21.892 21.892 21.892Z" fill="#517BF2"/><path d="M651.706 282.321h-.207l-.497.497-2.483 2.193v-1.324a.994.994 0 0 0-1.034-1.035 9.973 9.973 0 0 1-6.291-2.069 8.898 8.898 0 0 1-2.069-5.876 6.918 6.918 0 0 1 2.566-6.208 10.14 10.14 0 0 1 5.256-1.117 17.244 17.244 0 0 1 3.641.331 7.83 7.83 0 0 1 1.49.497.874.874 0 0 0 1.072-.011.871.871 0 0 0-.327-1.521 7.07 7.07 0 0 0-1.862-.62 20.917 20.917 0 0 0-4.139-.414c-2.13-.09-4.246.396-6.124 1.407a8.272 8.272 0 0 0-3.394 7.739 8.862 8.862 0 0 0 2.527 6.901 8.862 8.862 0 0 0 6.867 2.617v1.697a1.285 1.285 0 0 0 1.283 1.241 1.49 1.49 0 0 0 .704-.29c.91-.786 2.11-1.821 3.269-2.896l.497-.497h.207a.869.869 0 1 0-1.159-1.242h.207Z" fill="#fff"/><path d="M658.948 275.742v-.248l-3.518-3.807a1.027 1.027 0 0 0-1.149-.235 1.027 1.027 0 0 0-.34.235 1.117 1.117 0 0 0 0 1.531l1.862 1.986h-6.911a1.075 1.075 0 0 0 0 2.111h6.911l-1.862 2.028a1.024 1.024 0 0 0-.317.744 1.023 1.023 0 0 0 .317.745c.202.189.468.293.745.29a1.03 1.03 0 0 0 .786-.372l3.476-3.808v-1.2Z" fill="#fff"/><path fill-rule="evenodd" clip-rule="evenodd" d="M668.515 312.154a2.284 2.284 0 0 1-2.278 2.289l-36.003.082a2.283 2.283 0 1 1-.011-4.566l36.004-.083a2.283 2.283 0 0 1 2.288 2.278Z" fill="#B9CBD3"/><path fill-rule="evenodd" clip-rule="evenodd" d="M679.871 323.578a1.142 1.142 0 0 1-1.14 1.144l-60.958.124a1.141 1.141 0 0 1-.004-2.283l60.958-.124a1.143 1.143 0 0 1 1.144 1.139Z" fill="#D2DFE6"/><path d="M796.713 298.255c12.091 0 21.892-9.801 21.892-21.892 0-12.09-9.801-21.892-21.892-21.892s-21.892 9.802-21.892 21.892c0 12.091 9.801 21.892 21.892 21.892Z" fill="#FFCF33"/><path d="M806.646 271.354a7.365 7.365 0 0 0-6-5.876 22.812 22.812 0 0 0-4.138-.414 12.417 12.417 0 0 0-6.415 1.449 8.603 8.603 0 0 0-3.518 8.069 10.925 10.925 0 0 0 2.649 7.325 11.34 11.34 0 0 0 7.201 2.69v1.821a1.2 1.2 0 0 0 1.241 1.242 1.16 1.16 0 0 0 .704-.29c.952-.828 2.193-1.904 3.435-3.063l.538-.496a17.391 17.391 0 0 0 2.69-2.814 13.08 13.08 0 0 0 1.613-9.643Zm-2.855 8.65a17.793 17.793 0 0 1-2.442 2.565l-.538.497c-.91.869-1.862 1.697-2.648 2.4v-1.49a1.076 1.076 0 0 0-1.076-1.076 10.42 10.42 0 0 1-6.621-2.152 9.14 9.14 0 0 1-2.194-6.207 7.242 7.242 0 0 1 2.732-6.58 10.556 10.556 0 0 1 5.504-1.2 19.05 19.05 0 0 1 3.848.372 5.674 5.674 0 0 1 4.718 4.594c.67 2.82.21 5.791-1.283 8.277Z" fill="#fff"/><path d="M796.715 269.907c-.284.019-.557.12-.786.29a.87.87 0 0 0-.331.703l.538 5.628a.747.747 0 0 0 0 .414.49.49 0 0 0 .372 0h.373a.752.752 0 0 0 0-.455l.538-5.587a.876.876 0 0 0-.29-.703 1.302 1.302 0 0 0-.414-.29Zm-.002 8.193a1.118 1.118 0 0 0-.786.331 1.202 1.202 0 0 0-.29.745 1.078 1.078 0 0 0 .331.786.945.945 0 0 0 .745.29 1.037 1.037 0 0 0 .787-.29 1.2 1.2 0 0 0 .289-.786 1.038 1.038 0 0 0-.331-.745.945.945 0 0 0-.745-.331Z" fill="#fff"/><path fill-rule="evenodd" clip-rule="evenodd" d="M817.042 311.905a2.284 2.284 0 0 1-2.278 2.289l-36.004.082a2.283 2.283 0 1 1-.01-4.566l36.004-.082a2.283 2.283 0 0 1 2.288 2.277Z" fill="#B9CBD3"/><path fill-rule="evenodd" clip-rule="evenodd" d="M828.437 323.373a1.141 1.141 0 0 1-1.14 1.143l-60.999.083a1.142 1.142 0 0 1-.003-2.284l60.999-.082a1.141 1.141 0 0 1 1.143 1.14Z" fill="#D2DFE6"/><path opacity=".7" fill-rule="evenodd" clip-rule="evenodd" d="m425.841 345.018-.207-110.949.319-.001.207 110.949-.319.001Z" fill="#DEE8EC"/><path d="m261.521 208.192-171.907.27a9.228 9.228 0 0 0-9.214 9.243l.09 57.192a9.228 9.228 0 0 0 9.243 9.214l171.907-.27a9.228 9.228 0 0 0 9.214-9.243l-.09-57.192a9.228 9.228 0 0 0-9.243-9.214Z" fill="#fff"/><path d="M126.673 264.692c10.194 0 18.457-8.264 18.457-18.457 0-10.194-8.263-18.457-18.457-18.457-10.193 0-18.457 8.263-18.457 18.457 0 10.193 8.264 18.457 18.457 18.457Z" fill="#F66689"/><path fill-rule="evenodd" clip-rule="evenodd" d="M214.538 237.541a2.283 2.283 0 0 1-2.279 2.286l-49.04.083a2.283 2.283 0 1 1-.008-4.566l49.04-.083a2.284 2.284 0 0 1 2.287 2.28Z" fill="#738192"/><path fill-rule="evenodd" clip-rule="evenodd" d="M244.186 254.592a1.14 1.14 0 0 1-1.139 1.144l-82.974.166a1.143 1.143 0 0 1-.004-2.284l82.973-.165a1.141 1.141 0 0 1 1.144 1.139Z" fill="#D2DFE6"/><path d="m261.618 295.801-171.907.27a9.228 9.228 0 0 0-9.214 9.243l.09 57.192a9.228 9.228 0 0 0 9.243 9.214l171.906-.27a9.228 9.228 0 0 0 9.214-9.243l-.089-57.192a9.229 9.229 0 0 0-9.243-9.214Z" fill="#fff"/><path fill-rule="evenodd" clip-rule="evenodd" d="M214.662 325.108a2.284 2.284 0 0 1-2.28 2.287l-48.998.082a2.283 2.283 0 1 1-.007-4.566l48.998-.083a2.284 2.284 0 0 1 2.287 2.28Z" fill="#738192"/><path fill-rule="evenodd" clip-rule="evenodd" d="M244.351 342.201a1.142 1.142 0 0 1-1.14 1.144l-83.015.124a1.142 1.142 0 0 1-.003-2.283l83.015-.124a1.141 1.141 0 0 1 1.143 1.139Z" fill="#D2DFE6"/><path d="M126.798 352.301c10.194 0 18.457-8.264 18.457-18.457 0-10.194-8.263-18.457-18.457-18.457-10.193 0-18.457 8.263-18.457 18.457 0 10.193 8.264 18.457 18.457 18.457Z" fill="#55CFFF"/><path fill-rule="evenodd" clip-rule="evenodd" d="m822.123 449.618-594.018.993-.001-.297 594.019-.993v.297Zm.041 29.755-594.018.952-.001-.297 594.019-.952v.297Zm.043 29.755-594.019.952v-.297l594.019-.952v.297Z" fill="#B9CBD3"/><path fill-rule="evenodd" clip-rule="evenodd" d="M822.467 446.945a1.14 1.14 0 0 1-.964 1.295l-213.704 31.286a1.142 1.142 0 0 1-.846-.213l-40.858-30.328-71.439 61.398a1.144 1.144 0 0 1-1.449.033l-78.311-61.367-186.348 61.965a1.141 1.141 0 0 1-.72-2.166l186.929-62.158a1.14 1.14 0 0 1 1.064.184l78.057 61.167 71.421-61.382a1.14 1.14 0 0 1 1.424-.051l41.212 30.591 213.237-31.218a1.142 1.142 0 0 1 1.295.964Z" fill="#FFCF33"/><path fill-rule="evenodd" clip-rule="evenodd" d="M821.139 436.633a1.14 1.14 0 0 1-.579 1.506l-87.03 38.694a1.14 1.14 0 0 1-1.013-.043l-29.658-16.291-89.914 49.81a1.139 1.139 0 0 1-.759.124l-167.088-30.631-215.505 31.259a1.143 1.143 0 0 1-.328-2.259l215.691-31.286a1.12 1.12 0 0 1 .37.007l166.87 30.591 90.107-49.917c.343-.19.759-.191 1.103-.002l29.714 16.322 86.512-38.464a1.141 1.141 0 0 1 1.507.58Z" fill="#2CC3D5"/><path fill-rule="evenodd" clip-rule="evenodd" d="M215.225 525.491c0-.325.263-.588.588-.588h9.932a.588.588 0 1 1 0 1.176h-9.932a.588.588 0 0 1-.588-.588Zm308.366-.499a.587.587 0 0 1-.585.59l-9.932.041a.588.588 0 1 1-.005-1.175l9.932-.042a.588.588 0 0 1 .59.586Zm286.15-.452c0-.325.263-.588.588-.588h9.932a.588.588 0 1 1 0 1.176h-9.932a.588.588 0 0 1-.588-.588Z" fill="#B9CBD3"/><path fill-rule="evenodd" clip-rule="evenodd" d="M184.617 496.188a2.282 2.282 0 0 1-2.279 2.286l-61 .083a2.283 2.283 0 1 1-.006-4.566l60.999-.083a2.283 2.283 0 0 1 2.286 2.28Zm-14.525 15.27a2.283 2.283 0 0 1-2.279 2.287l-46.432.083a2.283 2.283 0 1 1-.008-4.566l46.432-.083a2.283 2.283 0 0 1 2.287 2.279Z" fill="#D2DFE6"/><path d="m135.644 452.346-13.698.022a3.476 3.476 0 0 0-3.471 3.481l.022 13.698a3.476 3.476 0 0 0 3.481 3.471l13.698-.021a3.477 3.477 0 0 0 3.471-3.482l-.022-13.698a3.476 3.476 0 0 0-3.481-3.471Z" fill="#FFCF33"/><path d="m164.198 452.342-13.698.022a3.476 3.476 0 0 0-3.471 3.481l.021 13.698a3.477 3.477 0 0 0 3.482 3.471l13.698-.021a3.477 3.477 0 0 0 3.471-3.482l-.022-13.698a3.476 3.476 0 0 0-3.481-3.471Z" fill="#2CC3D5"/><path d="m867.107 853.704-792.535 1.283-.414-253.432a9.194 9.194 0 0 1 2.676-6.523 9.174 9.174 0 0 1 2.986-2.002 9.175 9.175 0 0 1 3.525-.704l774.244-1.283a9.23 9.23 0 0 1 9.228 9.229l.29 253.432Z" fill="#fff"/><path fill-rule="evenodd" clip-rule="evenodd" d="M830.855 753.347a.953.953 0 0 1-.951.954l-24.706.042a.953.953 0 1 1-.003-1.907l24.706-.041a.953.953 0 0 1 .954.952Z" fill="#B9CBD3"/><path d="m847.072 692.411-753.096 1.183.064 40.638 753.096-1.183-.064-40.638Z" fill="#F4F8F9"/><path fill-rule="evenodd" clip-rule="evenodd" d="M179.121 713.784a1.71 1.71 0 0 1-1.71 1.714l-36.003.042a1.713 1.713 0 0 1-.004-3.425l36.003-.041a1.71 1.71 0 0 1 1.714 1.71Zm215.03-.373a1.71 1.71 0 0 1-1.709 1.715l-24.665.042a1.714 1.714 0 0 1-.005-3.425l24.664-.041a1.71 1.71 0 0 1 1.715 1.709Zm90.505-.124a1.713 1.713 0 0 1-1.709 1.715l-24.706.041a1.711 1.711 0 1 1-.006-3.424l24.706-.042a1.712 1.712 0 0 1 1.715 1.71Zm115.418-.208a1.711 1.711 0 0 1-1.709 1.715l-24.665.042a1.713 1.713 0 0 1-.006-3.425l24.665-.041a1.71 1.71 0 0 1 1.715 1.709Zm115.461-.165a1.713 1.713 0 0 1-1.709 1.715l-24.706.041a1.712 1.712 0 1 1-.006-3.424l24.706-.042a1.713 1.713 0 0 1 1.715 1.71Z" fill="#D2DFE6"/><path d="M123.114 723.429a9.56 9.56 0 0 0 9.56-9.56 9.56 9.56 0 1 0-19.119 0c0 5.28 4.28 9.56 9.559 9.56Z" fill="#FF5A60"/><path fill-rule="evenodd" clip-rule="evenodd" d="M198.513 621.744a2.853 2.853 0 0 1-2.848 2.859l-82.27.166a2.854 2.854 0 0 1-.012-5.708l82.271-.165a2.853 2.853 0 0 1 2.859 2.848Zm196.655-.289a2.853 2.853 0 0 1-2.849 2.858l-24.706.042a2.853 2.853 0 1 1-.009-5.708l24.706-.041a2.853 2.853 0 0 1 2.858 2.849Zm90.466-.166a2.853 2.853 0 0 1-2.849 2.858l-24.665.042a2.855 2.855 0 0 1-.01-5.708l24.665-.041a2.854 2.854 0 0 1 2.859 2.849Zm115.458-.165a2.855 2.855 0 0 1-2.849 2.859l-24.706.041a2.854 2.854 0 0 1-.01-5.707l24.706-.042a2.855 2.855 0 0 1 2.859 2.849Zm115.419-.207a2.854 2.854 0 0 1-2.849 2.859l-24.706.041a2.853 2.853 0 1 1-.009-5.708l24.706-.041a2.853 2.853 0 0 1 2.858 2.849Z" fill="#D2DFE6"/><path d="m847.138 733.05-753.096 1.183.064 40.638 753.096-1.183-.064-40.638Z" fill="#fff"/><path fill-rule="evenodd" clip-rule="evenodd" d="M179.205 754.379a1.713 1.713 0 0 1-1.709 1.717l-36.003.082a1.712 1.712 0 1 1-.008-3.424l36.003-.083a1.714 1.714 0 0 1 1.717 1.708Zm215.028-.33a1.71 1.71 0 0 1-1.709 1.715l-24.706.042a1.712 1.712 0 0 1-.006-3.425l24.706-.041a1.71 1.71 0 0 1 1.715 1.709Zm90.506-.165a1.712 1.712 0 0 1-1.71 1.715l-24.705.042a1.714 1.714 0 0 1-.006-3.425l24.706-.041a1.712 1.712 0 0 1 1.715 1.709Zm115.42-.167a1.712 1.712 0 0 1-1.71 1.715l-24.706.042a1.713 1.713 0 0 1-.006-3.425l24.706-.041a1.713 1.713 0 0 1 1.716 1.709Zm115.417-.206a1.711 1.711 0 0 1-1.709 1.715l-24.665.042a1.712 1.712 0 0 1-.006-3.425l24.665-.041a1.713 1.713 0 0 1 1.715 1.709Z" fill="#D2DFE6"/><path d="M123.197 764.067a9.56 9.56 0 1 0 0-19.119 9.56 9.56 0 1 0 0 19.119Z" fill="#517BF2"/><path d="m847.199 773.688-753.095 1.183.064 40.639 753.095-1.183-.064-40.639Z" fill="#F4F8F9"/><path fill-rule="evenodd" clip-rule="evenodd" d="M179.289 795.019a1.714 1.714 0 0 1-1.711 1.715l-36.045.041a1.712 1.712 0 0 1-.004-3.425l36.045-.041a1.714 1.714 0 0 1 1.715 1.71Zm214.985-.331a1.711 1.711 0 0 1-1.709 1.715l-24.665.042a1.713 1.713 0 0 1-.006-3.425l24.665-.041a1.71 1.71 0 0 1 1.715 1.709Zm90.507-.166a1.711 1.711 0 0 1-1.709 1.715l-24.665.041a1.711 1.711 0 1 1-.006-3.424l24.665-.041a1.711 1.711 0 0 1 1.715 1.709Zm115.461-.206a1.712 1.712 0 0 1-1.71 1.715l-24.706.042a1.714 1.714 0 0 1-.005-3.425l24.705-.041a1.712 1.712 0 0 1 1.716 1.709Zm115.416-.166a1.711 1.711 0 0 1-1.709 1.715l-24.706.042a1.712 1.712 0 0 1-.006-3.425l24.706-.041a1.71 1.71 0 0 1 1.715 1.709Z" fill="#D2DFE6"/><path d="M123.24 804.664c5.279 0 9.559-4.28 9.559-9.56 0-5.279-4.28-9.559-9.559-9.559a9.56 9.56 0 1 0 0 19.119Z" fill="#F99B45"/><path d="m847.305 814.285-753.096 1.183.062 39.48 753.096-1.183-.062-39.48Z" fill="#fff"/><path fill-rule="evenodd" clip-rule="evenodd" d="M179.329 835.658a1.71 1.71 0 0 1-1.71 1.714l-36.004.042a1.713 1.713 0 0 1-.003-3.425l36.003-.041a1.711 1.711 0 0 1 1.714 1.71Zm215.029-.373a1.713 1.713 0 0 1-1.709 1.716l-24.706.041a1.711 1.711 0 1 1-.006-3.425l24.706-.041a1.711 1.711 0 0 1 1.715 1.709Zm90.504-.124a1.712 1.712 0 0 1-1.709 1.716l-24.706.041a1.712 1.712 0 0 1-.006-3.425l24.706-.041a1.711 1.711 0 0 1 1.715 1.709Zm114.661-.206a.953.953 0 0 1-.951.955l-24.665.041a.953.953 0 1 1-.003-1.906l24.665-.041a.952.952 0 0 1 .954.951Zm88.088-.164c0-.946.767-1.712 1.712-1.712h24.665a1.711 1.711 0 1 1 0 3.424h-24.665a1.712 1.712 0 0 1-1.712-1.712Z" fill="#D2DFE6"/><path d="M123.321 845.303c5.279 0 9.559-4.28 9.559-9.56 0-5.279-4.28-9.559-9.559-9.559a9.56 9.56 0 1 0 0 19.119Z" fill="#4DCB7B"/><path d="m847.009 651.815-753.096 1.183.063 40.638 753.096-1.183-.063-40.638Z" fill="#fff"/><path fill-rule="evenodd" clip-rule="evenodd" d="M179.082 673.143a1.711 1.711 0 0 1-1.708 1.716l-36.004.083a1.713 1.713 0 0 1-.008-3.424l36.004-.083a1.711 1.711 0 0 1 1.716 1.708Zm215.028-.329a1.714 1.714 0 0 1-1.71 1.715l-24.706.041a1.712 1.712 0 1 1-.005-3.424l24.705-.042a1.714 1.714 0 0 1 1.716 1.71Zm90.506-.166a1.714 1.714 0 0 1-1.71 1.715l-24.706.041a1.713 1.713 0 0 1-.005-3.424l24.706-.042a1.714 1.714 0 0 1 1.715 1.71Zm115.417-.165a1.71 1.71 0 0 1-1.709 1.715l-24.706.042a1.712 1.712 0 0 1-.006-3.425l24.706-.041a1.711 1.711 0 0 1 1.715 1.709Zm115.419-.207a1.712 1.712 0 0 1-1.709 1.715l-24.706.041a1.712 1.712 0 1 1-.006-3.424l24.706-.042a1.714 1.714 0 0 1 1.715 1.71Z" fill="#D2DFE6"/><path d="M123.032 682.789c5.279 0 9.559-4.28 9.559-9.559a9.56 9.56 0 1 0-9.559 9.559Z" fill="#2CC3D5"/><path fill-rule="evenodd" clip-rule="evenodd" d="M847.117 647.158a.08.08 0 0 1-.08.08l-753.097 1.2a.08.08 0 1 1 0-.159l753.097-1.201a.08.08 0 0 1 .08.08Z" fill="#B9CBD3"/><path fill-rule="evenodd" clip-rule="evenodd" d="M124.58 245.727a3.873 3.873 0 0 0 3.801-4.632 3.882 3.882 0 0 0-3.045-3.044 3.873 3.873 0 0 0-4.631 3.801 3.875 3.875 0 0 0 3.875 3.875Zm0-6.459a2.59 2.59 0 0 1 2.387 1.595 2.585 2.585 0 0 1-4.535 2.424 2.58 2.58 0 0 1 2.148-4.012v-.007Zm6.475 11.894-1.747 1.643-.646-.591a.671.671 0 0 0-.215-.132.663.663 0 0 0-.495.02.648.648 0 0 0-.169 1.062l1.079 1.001a.65.65 0 0 0 .882-.003l2.199-2.061a.647.647 0 0 0-.888-.939Zm-2.519-3.278a4.557 4.557 0 0 1 3.612.416 4.56 4.56 0 0 1 2.281 3.954 4.57 4.57 0 0 1-2.282 3.953 4.561 4.561 0 0 1-4.565.002 4.57 4.57 0 0 1-1.672-1.67h-6.21a1.232 1.232 0 0 1-1.23-1.233v-1.075a5.491 5.491 0 0 1 5.49-5.49h1.237a5.491 5.491 0 0 1 3.339 1.143Zm-2.23 1.512c.014-.019.028-.039.044-.056.064-.074.129-.145.2-.219l.145-.149.184-.171.226-.178.097-.08a4.146 4.146 0 0 0-2.002-.514h-1.237a4.195 4.195 0 0 0-2.968 1.23 4.195 4.195 0 0 0-1.23 2.968v1.014h5.626a3.895 3.895 0 0 1-.068-.403v-.088a4.587 4.587 0 0 1 .003-.997.535.535 0 0 1 .011-.071c.004-.024.01-.053.018-.11.016-.113.039-.249.055-.323.009-.044.02-.081.032-.123l.026-.094c.018-.067.039-.133.06-.197l.018-.054c.019-.062.045-.128.067-.186l.02-.05c.024-.065.046-.112.082-.19l.005-.01c.039-.084.103-.22.123-.256.012-.022.025-.042.038-.063l.023-.037a4.26 4.26 0 0 1 .402-.593Zm1.792 5.618a3.28 3.28 0 0 0 1.768.52l-.042.023a3.29 3.29 0 0 0 2.528-1.189 3.276 3.276 0 0 0-2.326-5.361 3.281 3.281 0 0 0-1.588.304l-.028.013-.045.02-.178.096-.081.049-.142.09-.213.158-.039.039a2.488 2.488 0 0 0-.187.168l-.035.036c-.065.064-.126.135-.188.206a3.272 3.272 0 0 0-.474.782v.026c-.079.187-.14.382-.181.581a.771.771 0 0 1 0 .068l-.014.071a.761.761 0 0 0-.022.158v.762a3.282 3.282 0 0 0 1.487 2.38Zm7.826 71.29a3.248 3.248 0 0 0-2.657-2.619 8.894 8.894 0 0 0-1.76-.174c-.798 0-1.922.106-2.752.623-1.065.646-1.614 1.912-1.572 3.53.026.92.248 2.212 1.153 3.155.729.755 1.937 1.065 2.828 1.156v.449a.816.816 0 0 0 .24.578.832.832 0 0 0 .577.239h.088a.81.81 0 0 0 .442-.191c.388-.323.895-.772 1.395-1.237l.213-.197a7.52 7.52 0 0 0 1.124-1.194c.73-1.047.985-2.584.681-4.118Zm-1.74 3.375a6.76 6.76 0 0 1-.937.969l-.222.203c-.191.178-.385.352-.572.52a.732.732 0 0 0-.727-.668c-.836 0-1.982-.298-2.457-.792a3.469 3.469 0 0 1-.798-2.273c-.019-.646.078-1.847.969-2.393a4.123 4.123 0 0 1 2.073-.429 7.576 7.576 0 0 1 1.495.145 1.99 1.99 0 0 1 1.657 1.614c.184.905.149 2.209-.481 3.104Zm-10.599 5.034a3.58 3.58 0 0 0 3.307-2.217 3.578 3.578 0 0 0-.781-3.904 3.578 3.578 0 0 0-3.905-.774 3.584 3.584 0 0 0 1.379 6.895Zm0-5.874a2.293 2.293 0 1 1-.014 4.585 2.293 2.293 0 0 1 .014-4.585Zm-.562 6.682h1.127a5.054 5.054 0 0 1 3.572 1.482 5.054 5.054 0 0 1 1.482 3.572v.968a1.18 1.18 0 0 1-1.182 1.182h-8.874a1.179 1.179 0 0 1-1.178-1.182v-.968a5.054 5.054 0 0 1 1.482-3.572 5.054 5.054 0 0 1 3.571-1.482Zm-3.762 5.922h8.652v-.868a3.77 3.77 0 0 0-3.763-3.763h-1.127a3.767 3.767 0 0 0-3.762 3.763v.868Z" fill="#fff"/><path fill-rule="evenodd" clip-rule="evenodd" d="M1016.36 607.869c4.5-.123 8.25 3.425 8.37 7.924l10.15 371.699a8.156 8.156 0 0 1-7.93 8.369c-4.5.123-8.24-3.425-8.37-7.924l-10.14-371.699c-.13-4.499 3.42-8.246 7.92-8.369Zm-87.753 13.657a8.15 8.15 0 0 1 7.965 8.33l-7.981 355.751a8.149 8.149 0 0 1-8.33 7.964 8.15 8.15 0 0 1-7.965-8.33l7.981-355.75a8.15 8.15 0 0 1 8.33-7.965Z" fill="#CB9685"/><path d="M946.087 1005.51v.15c-.233 10.63-4.223 11.66-25.67 11.66-20.816 0-25.341-1.74-25.616-11.72v-.09c0-.39.069-.76.124-1.12.85 8.23 6.116 9.78 25.492 9.78 20.048 0 24.834-.91 25.56-9.7.055.33.083.69.11 1.04Z" fill="#DE5C61"/><path d="M946.087 1002.36v.14c0 .7 0 1.37-.11 1.97-.726 8.79-5.485 9.7-25.56 9.7-19.376 0-24.683-1.53-25.492-9.78 0-.62-.096-1.28-.124-1.96.179-3.486 1.701-5.707 4.772-8.546 3.072-2.838 1.454-12.437 9.956-12.684h21.831c8.515.247 6.705 9.695 9.955 12.684 3.25 2.99 4.594 4.992 4.772 8.476Z" fill="#FF7B80"/><path d="M1052.37 1005.51v.15c-.23 10.63-4.22 11.66-25.67 11.66-20.81 0-25.35-1.74-25.61-11.72v-.09c.02-.37.06-.75.12-1.12.84 8.23 6.1 9.78 25.49 9.78 20.05 0 24.84-.91 25.57-9.7.04.33.08.69.1 1.04Z" fill="#DE5C61"/><path d="M1052.37 1002.36v.14c0 .7 0 1.37-.1 1.97-.73 8.79-5.49 9.7-25.57 9.7-19.39 0-24.68-1.53-25.49-9.78-.07-.62-.09-1.28-.12-1.96.18-3.486 1.7-5.707 4.77-8.546 3.07-2.838 1.44-12.437 9.96-12.684h21.83c8.5.247 6.7 9.695 9.95 12.684 3.25 2.99 4.6 4.992 4.77 8.476Z" fill="#FF7B80"/><path d="m1042.25 628.673-.11 333.55c0 2.537-7.91 4.593-17.67 4.593h-.54c-9.76 0-17.66-2.056-17.66-4.593l-4-171.218-4.226-158.41c-4.347 1.029-14.288 1.44-24.299 1.371-10.01-.068-19.952-.315-24.299-1.371l-4.278 158.41-3.991 171.218c0 2.537-7.912 4.593-17.675 4.593h-.576c-9.75 0-17.676-2.056-17.676-4.593l-.096-333.55a112.122 112.122 0 0 1-3.812-26.177V598.3a94.81 94.81 0 0 1 3.812-27.042c0-2.743 6.253-5.321 16.565-7.281a89.435 89.435 0 0 1 2.468-.439 309.34 309.34 0 0 1 48.832-3.47h1.371c37.39 0 67.85 5.06 67.86 11.19.02 0 8.63 25.3 0 57.415Z" fill="#1A2437"/><path opacity=".5" fill-rule="evenodd" clip-rule="evenodd" d="M964.311 577.277h8.732c2.611.055 5.169.041 7.677.014l.499-.006v22.755c0 5.39-3.713 9.9-8.461 9.9-4.749 0-8.447-4.512-8.447-9.9v-22.763Zm.987.987v21.776c0 5.006 3.406 8.913 7.46 8.913 4.056 0 7.474-3.908 7.474-8.913v-21.757c-2.351.024-4.753.032-7.205-.019h-7.729Z" fill="#3D4E6C"/><path d="M921.678 563.975a77.713 77.713 0 0 0-3.771.782c-8.035 1.837-12.78 4.113-12.794 6.499a96.747 96.747 0 0 0-3.812 28.948 20.51 20.51 0 0 0 2.935.603 21.406 21.406 0 0 0 17.442-36.832Z" fill="#121927"/><path opacity=".5" d="M912.861 626.013a111.26 111.26 0 0 1-1.701-7.337 111.246 111.246 0 0 1-2.07-18.485.696.696 0 0 0-.215-.476.673.673 0 0 0-.965.015.69.69 0 0 0-.192.489c.178 6.291.875 12.556 2.085 18.732.493 2.44 1.056 4.909 1.714 7.336l-3.826 333.453a.682.682 0 0 0 .411.642.689.689 0 0 0 .261.058.689.689 0 0 0 .686-.672l3.812-333.563a1.026 1.026 0 0 0 0-.192Z" fill="#3D4E6C"/><path d="M930.29 582.597a23.409 23.409 0 0 1-26.315 20.254l-.727-.096-1.92-.26v-4.197c.659.151 1.715.275 2.455.371l.754.096a19.335 19.335 0 0 0 21.694-16.689 20.622 20.622 0 0 0 0-4.498c1.371.165 2.742.33 4.114.48a23.984 23.984 0 0 1-.055 4.539Z" fill="#26334B"/><path d="M1025.37 563.975c1.38.247 2.58.507 3.77.782 8.04 1.837 12.79 4.113 12.8 6.499a96.713 96.713 0 0 1 3.81 28.948c-.96.272-1.94.474-2.93.603a21.413 21.413 0 0 1-22.15-12.06 21.503 21.503 0 0 1-1.68-13.151 21.397 21.397 0 0 1 6.38-11.621Z" fill="#121927"/><path opacity=".5" d="M1034.22 626.012c.66-2.414 1.22-4.882 1.71-7.336 1.2-6.095 1.88-12.277 2.06-18.485a.73.73 0 0 1 .22-.482.672.672 0 0 1 .96.025c.13.131.19.305.19.484a114.44 114.44 0 0 1-2.08 18.732 118.89 118.89 0 0 1-1.7 7.336l3.78 333.454c0 .09-.01.179-.05.263a.666.666 0 0 1-1.1.236.703.703 0 0 1-.21-.472l-3.78-333.563a.315.315 0 0 1 0-.192Z" fill="#3D4E6C"/><path d="M1016.76 582.597a23.407 23.407 0 0 0 17.21 19.68c2.98.795 6.1.99 9.16.574l.73-.096 1.92-.26v-4.197c-.66.151-1.72.275-2.46.371l-.75.096c-2.52.331-5.08.162-7.54-.498a19.405 19.405 0 0 1-6.77-3.348 19.435 19.435 0 0 1-4.97-5.686 19.164 19.164 0 0 1-2.41-7.157 20.5 20.5 0 0 1-.07-4.498c-1.37.165-2.74.33-4.12.48-.12 1.512-.09 3.032.07 4.539Z" fill="#26334B"/><path d="M1042.14 571.119c.05-.39.02-.786-.08-1.165l-1.37-3.717c-3.25-8.844-11.12-31.21-11.35-40.932-.43-16.565 1.99-44.951 3.41-54.481-2.67 1.371-5.26 3.373-8.05 3.373H924.201c-2.742 0-5.649-1.631-8.31-3.044 1.372 9.517 3.086 37.587 2.661 54.152-.247 9.722-8.105 32.088-11.355 40.932l-1.371 3.717c-.102.379-.13.775-.082 1.165 0 4.937 30.456 8.941 68.221 8.996 37.765.055 68.225-4.114 68.225-8.996-.03.041-.05.014-.05 0Z" fill="#2CC3D5"/><path fill-rule="evenodd" clip-rule="evenodd" d="M1021.88 380.297a8.156 8.156 0 0 1 11.53.095l-5.81 5.715c5.81-5.715 5.81-5.714 5.81-5.712l.05.058.16.154c.13.134.32.329.56.582.49.507 1.2 1.248 2.1 2.2 1.8 1.904 4.36 4.656 7.44 8.076 6.15 6.831 14.39 16.368 22.71 27.164 8.3 10.769 16.81 22.941 23.41 35.03 6.5 11.912 11.62 24.555 12.25 36.082.67 12.311-4.32 22.903-11.28 31.483-6.92 8.523-16.12 15.507-24.95 20.969-8.9 5.497-17.8 9.679-24.43 12.478a184.439 184.439 0 0 1-8.09 3.197c-.99.362-1.77.638-2.32.827-.27.095-.49.167-.64.218l-.18.06-.07.023-.01.002-2.52-7.748 2.52 7.75c-4.28 1.392-8.88-.948-10.27-5.228-1.4-4.279.94-8.877 5.22-10.271v-.001l.02-.006.12-.037c.1-.036.27-.093.5-.172.45-.156 1.14-.397 2.02-.72a164.76 164.76 0 0 0 7.36-2.911c6.14-2.591 14.23-6.404 22.2-11.325 8.01-4.956 15.54-10.814 20.86-17.376 5.28-6.506 8.05-13.241 7.66-20.32-.43-7.862-4.14-17.924-10.28-29.163-6.04-11.061-13.99-22.486-22.01-32.889-8-10.377-15.95-19.589-21.91-26.213-2.98-3.308-5.45-5.96-7.17-7.779-.86-.909-1.53-1.609-1.99-2.078-.22-.234-.39-.411-.51-.527l-.12-.127-.03-.035-.01-.001c-3.15-3.209-3.11-8.368.1-11.524Z" fill="#CB9685"/><path fill-rule="evenodd" clip-rule="evenodd" d="M1016.2 373.839c3.29-3.765 9.01-4.15 12.77-.858l-5.95 6.818" fill="#2CC3D5"/><path opacity=".3" d="m913.327 402.575 3.826-11.806s-18.225 16.633-25.136 26.191l-.795 1.371 22.105-15.756Z" fill="#2498A8"/><path d="M1020.71 475.747s-11.19.371-22.844.371c0 0 25.794.205 29.004 12.986.25 1.22.49 2.468.73 3.743a94.662 94.662 0 0 1 1.96 16.003l3.21-38.149c-3.5 2.674-8.18 5.046-12.06 5.046Z" fill="#28ADBF"/><path opacity=".5" d="M1031.46 385.007s18.68 29.386 21.72 40.398l.68 2.125-17.53-22.283-4.87-20.24Z" fill="#2498A8"/><path d="m919.648 800.171-1.236-.427a1.19 1.19 0 0 0-1.362.425c-.1.138-.17.296-.203.463l-2.231 10.577a1.205 1.205 0 0 0 1.007 1.419c.214.032.434.006.635-.076l14.461-7.02a1.206 1.206 0 0 1 1.608.553l1.726 3.531 1.995-10.646a1.192 1.192 0 0 0-1.642-1.342 1.19 1.19 0 0 1-1.36-.433 1.2 1.2 0 0 1-.2-.464l-1.879-9.122a1.21 1.21 0 0 0-.968-.95 1.21 1.21 0 0 0-1.24.549l-7.697 12.465a1.208 1.208 0 0 1-1.414.498Zm107.542-3.856 1.31.039c.17.006.34-.025.49-.089.16-.065.3-.162.42-.285.12-.123.21-.269.26-.429.06-.161.08-.331.07-.5l-1.1-10.739a1.258 1.258 0 0 0-.25-.616 1.191 1.191 0 0 0-.54-.392 1.197 1.197 0 0 0-1.24.258l-11.56 11.052a1.239 1.239 0 0 1-1.71-.03l-2.7-2.84 1.28 10.661c.02.211.1.412.22.583.13.171.3.306.49.391a1.202 1.202 0 0 0 1.2-.144c.13-.103.29-.176.46-.213a1.232 1.232 0 0 1 .98.209c.14.103.25.234.33.384l4.55 8.112c.11.211.29.382.51.491.21.11.45.152.69.122a1.207 1.207 0 0 0 1.02-.892l3.64-14.205c.07-.263.22-.497.43-.665.22-.168.48-.26.75-.263Z" fill="#CB9685"/><path d="m975.624 473.758-59.733-2.605 2.743 48.776c1.289-30.387 56.99-46.171 56.99-46.171Z" fill="#28ADBF" fill-opacity=".6"/><path d="M1042.69 437.846c-4.88-20.94-16.79-69.935-16.79-69.935 0-2.4-14.59-3.25-47.327-3.895v-.164l-4.759.068-4.73-.109v.164c-32.733.645-47.337 1.495-47.337 3.895 0 0-11.903 49.036-16.784 69.935-4.704 20.171 9.173 37.984 22.351 37.984h93.056c13.16.041 27.03-17.772 22.32-37.943Z" fill="#2CC3D5"/><path fill-rule="evenodd" clip-rule="evenodd" d="M1028.79 372.191c-1.92-1.271-5.9-3.642-10.74-3.122-5.62.605-9.68 5.648-9.08 11.266a10.23 10.23 0 0 0 8.69 9.03c.83.577 2.12 1.646 3.88 3.385 3.72 3.678 8.46 9.233 13.91 16.188 10.85 13.842 23.67 32.133 35.48 49.321 3.19 4.658 9.56 5.84 14.22 2.641 4.66-3.198 5.84-9.567 2.64-14.224-11.8-17.188-24.95-35.957-36.23-50.358-5.62-7.165-10.99-13.527-15.64-18.125-2.31-2.276-4.72-4.409-7.13-6.002Zm-11.81 16.762c0 .007.07.051.21.109-.14-.086-.21-.116-.21-.109Z" fill="#2CC3D5"/><path d="M971.875 222.947c2.111-.384 25.19-18.691 45.635 4.566 14.47 16.456 1.23 27.33 13.62 38.67 10.97 10.065 26.22 36.6 5.39 58.568-9.77 10.298 15.73 50.284-36.1 31.95-32.906-11.669-35.649-4.319-35.649-4.319l7.104-129.435Z" fill="#2C2A46"/><path d="M987.946 229.063s1.111-9.723-14.206-15.743-52.218 1.906-51.505 33.583c.713 31.676-33.048 33.116-23.943 56.935 9.106 23.819-16.153 26.919 7.405 46.212 23.559 19.294 64.176 14.207 63.614-18.896-.562-33.102 18.635-102.091 18.635-102.091Z" fill="#2C2A46"/><path d="M973.37 384.003c7.611 0 13.781-5.083 13.781-11.354 0-6.271-6.17-11.354-13.781-11.354-7.612 0-13.782 5.083-13.782 11.354 0 6.271 6.17 11.354 13.782 11.354Z" fill="#EFB8C2"/><path d="M973.37 384.003c7.611 0 13.781-5.083 13.781-11.354 0-6.271-6.17-11.354-13.781-11.354-7.612 0-13.782 5.083-13.782 11.354 0 6.271 6.17 11.354 13.782 11.354Z" fill="#CB9685"/><path fill-rule="evenodd" clip-rule="evenodd" d="M973.37 361.974c-7.366 0-13.103 4.896-13.103 10.675 0 5.778 5.737 10.675 13.103 10.675 7.365 0 13.102-4.897 13.102-10.675 0-5.779-5.737-10.675-13.102-10.675Zm-14.461 10.675c0-6.763 6.603-12.033 14.461-12.033 7.857 0 14.46 5.27 14.46 12.033s-6.603 12.033-14.46 12.033c-7.858 0-14.461-5.27-14.461-12.033Z" fill="#CB9685"/><path d="M974.494 340.027h-2.235a41.611 41.611 0 0 1-9.009-.974v26.054a9.082 9.082 0 0 0 5.601 8.399 9.057 9.057 0 0 0 3.477.693h2.098a9.086 9.086 0 0 0 6.448-2.688 9.074 9.074 0 0 0 2.63-6.472v-26.055a42.425 42.425 0 0 1-9.01 1.043Z" fill="#CB9685"/><path d="M963.277 346.143v7.5s2.153-3.688 10.093-3.688c7.94 0 10.134 4.114 10.134 4.114v-9.078l-20.254-.371.027 1.523Z" fill="#BF7D68"/><path d="M1016.63 258.943v44.95a41.955 41.955 0 0 1-3.19 16.137 41.916 41.916 0 0 1-9.13 13.68 42.057 42.057 0 0 1-29.816 12.322h-2.236a41.61 41.61 0 0 1-9.009-.973 42.154 42.154 0 0 1-33.13-41.139v-44.977a42.14 42.14 0 0 1 42.139-42.14h2.236a42.135 42.135 0 0 1 42.136 42.14Z" fill="#CB9685"/><path d="M931.162 292.168v19.281a6.552 6.552 0 0 1-6.445-6.569v-6.143a6.564 6.564 0 0 1 6.445-6.569Zm89.198 6.569v6.143a6.547 6.547 0 0 1-6.44 6.569v-19.281c1.72.033 3.36.739 4.56 1.967a6.551 6.551 0 0 1 1.88 4.602Z" fill="#CB9685"/><path d="M1015.61 272.299s.79 13.808 0 19.115c-.8 5.307 3.18-19.115 3.18-19.115h-3.18Z" fill="#160566"/><path d="M975.289 223.029a74.787 74.787 0 0 1 17.402-7.035 32.62 32.62 0 0 1 9.459-.836c3.25.187 6.41 1.156 9.2 2.824a20.069 20.069 0 0 1 6.74 6.925l1.29 1.989c.39.685.78 1.371 1.16 2.07.82 1.372 1.46 2.825 2.17 4.238a76.002 76.002 0 0 1 3.28 8.899c.91 3.003 1.7 6.02 2.74 8.872 1 2.838 2.47 5.489 4.35 7.844a61.732 61.732 0 0 0 6.62 6.376 63.395 63.395 0 0 1 6.44 6.98 42.357 42.357 0 0 1 5.05 8.091 29.218 29.218 0 0 1 2.32 18.677 38.14 38.14 0 0 1-9.27 16.222 39.048 39.048 0 0 0 8.22-16.456 27.684 27.684 0 0 0-2.74-17.716 35.578 35.578 0 0 0-2.33-3.936c-.79-1.371-1.78-2.482-2.74-3.702a61.776 61.776 0 0 0-6.35-6.651 62.196 62.196 0 0 1-6.86-6.555 28.72 28.72 0 0 1-4.71-8.419c-1.1-3.004-1.87-6.048-2.75-9.01a80.77 80.77 0 0 0-3.11-8.68c-.66-1.371-1.26-2.743-2.03-4.114-.37-.672-.71-1.371-1.1-2.016l-1.22-1.96a19.324 19.324 0 0 0-6.02-6.541 18.886 18.886 0 0 0-8.46-2.894 32.53 32.53 0 0 0-9.13.521 53.994 53.994 0 0 0-8.94 2.469c-2.949 1.028-5.76 2.386-8.681 3.524Z" fill="#2C2A46"/><path d="M988.33 233.875a13.224 13.224 0 0 0-4.525-9.791 28.783 28.783 0 0 0-9.448-5.773 32.66 32.66 0 0 0-10.792-2.016 48.48 48.48 0 0 0-10.97.919 49.187 49.187 0 0 0-10.532 3.291 36.12 36.12 0 0 0-9.215 5.855 28.801 28.801 0 0 0-9.736 18.869c-.205 1.796-.247 3.593-.384 5.554a40.182 40.182 0 0 1-.85 5.69 33.508 33.508 0 0 1-4.539 10.573c-4.196 6.5-10.353 11.176-15.674 16.25a22.516 22.516 0 0 0-6.115 8.872 15.525 15.525 0 0 0-.645 5.334 22.62 22.62 0 0 0 1.028 5.362 28.26 28.26 0 0 1 1.454 11.203 24.343 24.343 0 0 1-1.193 5.485 49.139 49.139 0 0 1-2.249 5.197 30.802 30.802 0 0 0 2.907-10.723 27.48 27.48 0 0 0-1.865-10.847 23.563 23.563 0 0 1-1.275-5.608 16.792 16.792 0 0 1 .562-5.774 23.901 23.901 0 0 1 6.24-9.598c2.646-2.743 5.485-5.17 8.145-7.762a47.537 47.537 0 0 0 7.131-8.406 31.651 31.651 0 0 0 4.196-9.996c.38-1.781.637-3.587.768-5.403.109-1.783.123-3.73.342-5.65a31.893 31.893 0 0 1 3.36-10.97 30.093 30.093 0 0 1 7.186-8.996 37.219 37.219 0 0 1 9.708-6.061 45.753 45.753 0 0 1 10.97-3.25 49.19 49.19 0 0 1 11.327-.699 32.7 32.7 0 0 1 11.107 2.386 29.436 29.436 0 0 1 9.38 6.308 16.292 16.292 0 0 1 3.195 4.676 10.965 10.965 0 0 1 1.001 5.499Z" fill="#2C2A46"/><path d="M969.132 214.623c-32.91-5.362-47.172 37.408-45.252 47.241 1.015 5.114 2.743 13.507 4.114 20.377 0 0 3.977 24.408 3.181 19.102a36.857 36.857 0 0 1-.301-3.826 24.122 24.122 0 0 1 1.755-9.873c2.413-5.979 5.677-13.316 5.677-13.316s21.625 3.387 40.754-5.279c19.13-8.666 26.74-36.407 26.74-36.407s-3.76-12.644-36.668-18.019Z" fill="#2C2A46"/><path d="M970.613 213.224c45.717-7.692 52.617 37.107 50.627 46.939-1.99 9.832-5.8 38.3-5.8 38.3 0-3.894-4.26-31.539-7.39-36.27-15.866-24.162-37.437-48.969-37.437-48.969Z" fill="#2C2A46"/><path d="M1005.51 232.629a64.202 64.202 0 0 1-2.49 10.778 65.287 65.287 0 0 1-4.227 10.312 50.241 50.241 0 0 1-6.102 9.434 44.25 44.25 0 0 1-3.881 4.114 138.72 138.72 0 0 1-2.208 1.824c-.37.302-.727.617-1.124.891l-1.207.768a59.154 59.154 0 0 1-21.022 7.693 75.245 75.245 0 0 1-11.066 1.138 64.626 64.626 0 0 1-11.052-.562 107.868 107.868 0 0 0 21.666-2.743 78.69 78.69 0 0 0 10.325-3.112c.851-.302 1.66-.672 2.496-1.029.837-.356 1.659-.672 2.441-1.097l2.4-1.207c.781-.425 1.481-.932 2.235-1.371l1.124-.685c.357-.247.686-.535 1.029-.81l2.112-1.741c1.248-1.262 2.564-2.441 3.688-3.826a54.934 54.934 0 0 0 6.171-8.803 81.708 81.708 0 0 0 4.882-9.723c1.45-3.346 2.72-6.766 3.81-10.243Z" fill="#2C2A46"/><path d="M972.653 409.778c2.997.01 5.986.287 8.926.828 2.621.374 5.054 1.499 6.962 3.221 1.909 1.722 3.2 3.956 3.695 6.393.657 3.059.761 6.199.308 9.29a17.999 17.999 0 0 1-3.309 8.389 35.018 35.018 0 0 1-5.617 5.437l-1.269 1.081c-1.847 1.656-3.848 3.24-5.617 4.681v-2.449c0-.707-.3-1.384-.834-1.884a2.948 2.948 0 0 0-2.014-.78c-5.546.143-10.977-1.497-15.389-4.645-3.298-3.675-5.062-8.344-4.963-13.143 0-3.817.577-10.802 6.233-13.934a26.909 26.909 0 0 1 12.888-2.485Zm0-2.196a29.506 29.506 0 0 0-13.927 2.808c-2.605 1.812-4.655 4.232-5.945 7.019a16.313 16.313 0 0 0-1.403 8.86c-.13 5.356 1.872 10.566 5.617 14.619 4.796 3.556 10.772 5.429 16.889 5.293.133 0 .26.049.354.137a.454.454 0 0 1 .147.331v5.257a.87.87 0 0 0 .281.636.997.997 0 0 0 .68.264.869.869 0 0 0 .539-.216c2.732-2.088 5.348-4.285 7.964-6.517a52.772 52.772 0 0 0 7.233-6.877c3.773-5.802 4.974-12.753 3.347-19.372-.573-2.863-2.079-5.491-4.31-7.521-2.232-2.031-5.081-3.366-8.155-3.821a49.174 49.174 0 0 0-9.311-.9Z" fill="#fff"/><path fill-rule="evenodd" clip-rule="evenodd" d="M915.798 384.409a9.207 9.207 0 0 1 3.054 12.658l-7.855-4.802-7.856-4.802a9.208 9.208 0 0 1 12.657-3.054Zm-53.536 115.179c.283-.668.583-1.362.9-2.083 4.795-10.894 12.533-25.636 20.845-40.636 8.276-14.936 16.988-29.889 23.641-41.123a2020.598 2020.598 0 0 1 8.101-13.56 1466.207 1466.207 0 0 1 2.899-4.785l.204-.334c.001-.001 0 0-7.855-4.802a4011.237 4011.237 0 0 0-7.857-4.8l-.216.354a1266.825 1266.825 0 0 0-2.943 4.858 2063.477 2063.477 0 0 0-8.177 13.686c-6.701 11.317-15.51 26.434-23.904 41.581-8.358 15.083-16.439 30.437-21.591 42.142-2.523 5.731-4.609 11.17-5.523 15.457-.412 1.931-.891 4.911-.191 7.88.388 1.645 1.285 3.905 3.367 5.769 2.204 1.973 4.81 2.677 7.036 2.709 3.402.048 7.063-.989 10.114-2.039 3.306-1.139 7.041-2.713 10.955-4.486 5.235-2.372 11.246-5.312 17.455-8.35 2.99-1.463 6.026-2.948 9.043-4.403 9.474-4.568 19.012-8.963 27.631-12.145 8.897-3.284 15.669-4.825 19.976-4.636h.004c10.009.434 16.549 1.667 20.393 2.682 1.921.508 3.17.96 3.844 1.232.335.136.53.227.594.258a9.208 9.208 0 0 0 8.935-16.099l-4.363 7.653c4.363-7.653 4.359-7.656 4.355-7.658l-.009-.005-.019-.011-.038-.021-.039-.022a13.812 13.812 0 0 0-.812-.417 27.706 27.706 0 0 0-1.713-.753c-1.418-.573-3.401-1.265-6.035-1.96-5.266-1.391-13.129-2.792-24.296-3.276-8.219-.359-17.936 2.356-27.153 5.758-9.497 3.506-19.7 8.228-29.252 12.834-3.265 1.574-6.43 3.123-9.478 4.614-6.047 2.959-11.633 5.692-16.622 7.952-.76.344-1.496.673-2.206.985Z" fill="#CB9685"/><path fill-rule="evenodd" clip-rule="evenodd" d="M913.08 375.889c1.773-1.469 5.478-4.253 10.346-4.253 5.65 0 10.23 4.58 10.23 10.23 0 4.769-3.263 8.775-7.678 9.909-.764.662-1.928 1.863-3.492 3.78-3.31 4.055-7.427 10.085-12.103 17.584-9.304 14.922-20.094 34.479-29.993 52.832-2.682 4.972-8.887 6.829-13.86 4.147-4.972-2.682-6.829-8.888-4.147-13.86 9.899-18.352 20.958-38.419 30.639-53.944 4.817-7.725 9.476-14.626 13.612-19.695 2.048-2.509 4.223-4.888 6.446-6.73Zm13.534 15.403a.941.941 0 0 1-.201.131c.137-.102.203-.138.201-.131Z" fill="#2CC3D5"/><path d="M933.705 468.658s1.347 16.879 1.155 19.055c-.193 2.177.918 5.079 5.922 5.538 5.005.459 7.788-2.487 7.655-5.049-.133-2.561.178-23.986.178-23.986l-14.91 4.442Z" fill="#202C44"/><path d="M941.521 470.755c7.327-.733 13.047-3.532 12.775-6.252-.272-2.72-6.433-4.331-13.76-3.598-7.327.733-13.046 3.531-12.775 6.251.272 2.72 6.433 4.331 13.76 3.599Z" fill="#202C44"/><path d="M941.269 468.364c5.921-.592 10.543-2.856 10.323-5.056-.22-2.201-5.199-3.505-11.12-2.913-5.922.593-10.543 2.856-10.323 5.057.22 2.2 5.198 3.504 11.12 2.912Z" fill="#E7EEF1"/><g opacity=".2" filter="url(#solicitation__a)"><path d="M1031.65 1020.92c0 12.54-227.81 22.71-508.826 22.71S14 1033.46 14 1020.92c0-12.55 227.808-22.72 508.824-22.72s508.826 10.17 508.826 22.72Z" fill="#0A0F1A"/></g><defs><filter id="solicitation__a" x="0" y="984.2" width="1045.65" height="73.431" filterUnits="userSpaceOnUse" color-interpolation-filters="sRGB"><feFlood flood-opacity="0" result="BackgroundImageFix"/><feBlend in="SourceGraphic" in2="BackgroundImageFix" result="shape"/><feGaussianBlur stdDeviation="7" result="effect1_foregroundBlur_10272_1584"/></filter></defs></svg>