<svg width="1080" height="1080" viewBox="0 0 1080 1080" fill="none" xmlns="http://www.w3.org/2000/svg">
<path d="M346.419 703.448C355.116 848.161 479.48 958.425 624.194 949.727C768.908 941.03 879.171 816.666 870.473 671.952C861.776 527.239 737.412 416.976 592.698 425.673C447.985 434.37 337.722 558.734 346.419 703.448Z" fill="#072F73"/>
<path d="M188.577 899.734C192.21 960.174 244.684 1006.19 305.781 1002.52C366.879 998.851 413.463 946.877 409.831 886.437C406.198 825.996 353.724 779.977 292.627 783.649C231.529 787.32 184.945 839.293 188.577 899.734Z" fill="#0096FA"/>
<path d="M259.1 142.7L255.7 125.2C253.9 115.8 245.6 109 236.1 109H42C31 109 22 118 22 129V590.4C22 601.4 31 610.4 42 610.4H777.1C788.1 610.4 797.1 601.4 797.1 590.4V178.9C797.1 167.9 788.1 158.9 777.1 158.9H278.7C269.1 158.9 260.9 152.1 259.1 142.7Z" fill="#F5F5F5"/>
<path d="M259.1 142.3L255.7 124.8C253.9 115.4 245.6 108.6 236.1 108.6H42C31 108.6 22 117.6 22 128.6V590C22 601 31 610 42 610H777.1C788.1 610 797.1 601 797.1 590V178.5C797.1 167.5 788.1 158.5 777.1 158.5H278.7C269.1 158.5 260.9 151.7 259.1 142.3Z" fill="url(#paint0_linear_10272_1584)"/>
<path d="M259.1 142.7L255.7 125.2C253.9 115.8 245.6 109 236.1 109H42C31 109 22 118 22 129V590.4C22 601.4 31 610.4 42 610.4H777.1C788.1 610.4 797.1 601.4 797.1 590.4V178.9C797.1 167.9 788.1 158.9 777.1 158.9H278.7C269.1 158.9 260.9 152.1 259.1 142.7Z" fill="url(#paint1_linear_10272_1584)"/>
<path d="M515.8 180.6C544.022 180.6 566.9 157.722 566.9 129.5C566.9 101.278 544.022 78.3999 515.8 78.3999C487.579 78.3999 464.7 101.278 464.7 129.5C464.7 157.722 487.579 180.6 515.8 180.6Z" fill="#C5D9FB"/>
<path d="M307.199 235.7C320.233 235.7 330.8 225.134 330.8 212.1C330.8 199.066 320.233 188.5 307.199 188.5C294.166 188.5 283.6 199.066 283.6 212.1C283.6 225.134 294.166 235.7 307.199 235.7Z" fill="#0096FA"/>
<path d="M307.2 213.2C311.839 213.2 315.6 209.797 315.6 205.6C315.6 201.403 311.839 198 307.2 198C302.561 198 298.8 201.403 298.8 205.6C298.8 209.797 302.561 213.2 307.2 213.2Z" fill="#0C4EC0"/>
<path d="M307.2 235.6C313.8 235.6 319.7 232.8 323.9 228.4C321.5 221.5 314.9 216.6 307.2 216.6C299.5 216.6 292.9 221.5 290.5 228.4C294.7 232.8 300.6 235.6 307.2 235.6Z" fill="#0C4EC0"/>
<path d="M419.7 225.2H347C344.2 225.2 342 223 342 220.2V204C342 201.2 344.2 199 347 199H419.7C422.5 199 424.7 201.2 424.7 204V220.2C424.7 222.9 422.4 225.2 419.7 225.2Z" fill="#A3A3A3"/>
<path d="M93.6995 350.7C106.733 350.7 117.3 340.134 117.3 327.1C117.3 314.066 106.733 303.5 93.6995 303.5C80.6655 303.5 70.0996 314.066 70.0996 327.1C70.0996 340.134 80.6655 350.7 93.6995 350.7Z" fill="#0096FA"/>
<path d="M93.6997 328.2C98.3389 328.2 102.1 324.797 102.1 320.6C102.1 316.403 98.3389 313 93.6997 313C89.0605 313 85.2998 316.403 85.2998 320.6C85.2998 324.797 89.0605 328.2 93.6997 328.2Z" fill="#0C4EC0"/>
<path d="M93.6995 350.6C100.299 350.6 106.2 347.8 110.4 343.4C108 336.5 101.399 331.6 93.6995 331.6C85.9995 331.6 79.3995 336.5 76.9995 343.4C81.1995 347.9 87.0995 350.6 93.6995 350.6Z" fill="#0C4EC0"/>
<path d="M206.099 340.2H133.399C130.599 340.2 128.399 338 128.399 335.2V319C128.399 316.2 130.599 314 133.399 314H206.099C208.899 314 211.099 316.2 211.099 319V335.2C211.099 338 208.899 340.2 206.099 340.2Z" fill="#666666"/>
<path d="M93.6995 455.1C106.733 455.1 117.3 444.534 117.3 431.5C117.3 418.466 106.733 407.9 93.6995 407.9C80.6655 407.9 70.0996 418.466 70.0996 431.5C70.0996 444.534 80.6655 455.1 93.6995 455.1Z" fill="#0096FA"/>
<path d="M93.6997 432.6C98.3389 432.6 102.1 429.197 102.1 425C102.1 420.802 98.3389 417.4 93.6997 417.4C89.0605 417.4 85.2998 420.802 85.2998 425C85.2998 429.197 89.0605 432.6 93.6997 432.6Z" fill="#0C4EC0"/>
<path d="M93.6995 455C100.299 455 106.2 452.2 110.4 447.8C108 440.9 101.399 436 93.6995 436C85.9995 436 79.3995 440.9 76.9995 447.8C81.1995 452.3 87.0995 455 93.6995 455Z" fill="#0C4EC0"/>
<path d="M206.099 444.6H133.399C130.599 444.6 128.399 442.4 128.399 439.6V423.4C128.399 420.6 130.599 418.4 133.399 418.4H206.099C208.899 418.4 211.099 420.6 211.099 423.4V439.6C211.099 442.4 208.899 444.6 206.099 444.6Z" fill="#A3A3A3"/>
<path d="M93.6995 559.5C106.733 559.5 117.3 548.934 117.3 535.9C117.3 522.866 106.733 512.3 93.6995 512.3C80.6655 512.3 70.0996 522.866 70.0996 535.9C70.0996 548.934 80.6655 559.5 93.6995 559.5Z" fill="#0096FA"/>
<path d="M93.6997 537C98.3389 537 102.1 533.597 102.1 529.4C102.1 525.202 98.3389 521.8 93.6997 521.8C89.0605 521.8 85.2998 525.202 85.2998 529.4C85.2998 533.597 89.0605 537 93.6997 537Z" fill="#0C4EC0"/>
<path d="M93.6995 559.4C100.299 559.4 106.2 556.6 110.4 552.2C108 545.3 101.399 540.4 93.6995 540.4C85.9995 540.4 79.3995 545.3 76.9995 552.2C81.1995 556.7 87.0995 559.4 93.6995 559.4Z" fill="#0C4EC0"/>
<path d="M206.099 549H133.399C130.599 549 128.399 546.8 128.399 544V527.8C128.399 525 130.599 522.8 133.399 522.8H206.099C208.899 522.8 211.099 525 211.099 527.8V544C211.099 546.7 208.899 549 206.099 549Z" fill="#E0E0E0"/>
<path d="M678 578.9C688.051 578.9 696.2 570.751 696.2 560.7C696.2 550.648 688.051 542.5 678 542.5C667.948 542.5 659.8 550.648 659.8 560.7C659.8 570.751 667.948 578.9 678 578.9Z" fill="#0096FA"/>
<path d="M678 561.7C681.589 561.7 684.5 559.058 684.5 555.8C684.5 552.541 681.589 549.9 678 549.9C674.41 549.9 671.5 552.541 671.5 555.8C671.5 559.058 674.41 561.7 678 561.7Z" fill="#0C4EC0"/>
<path d="M678 578.9C683.1 578.9 687.7 576.8 690.9 573.3C689 568 684 564.2 678 564.2C672 564.2 667 568 665.1 573.3C668.4 576.8 673 578.9 678 578.9Z" fill="#0C4EC0"/>
<path d="M771.6 578.9H712C709.2 578.9 707 576.7 707 573.9V547.5C707 544.7 709.2 542.5 712 542.5H771.6C774.4 542.5 776.6 544.7 776.6 547.5V573.9C776.6 576.7 774.3 578.9 771.6 578.9Z" fill="#E0E0E0"/>
<path d="M547.3 202.5C548.1 202.5 548.8 203.2 548.8 204V213.1C548.8 213.9 548.1 214.6 547.3 214.6H523.6C522.8 214.6 522.1 213.9 522.1 213.1V204C522.1 203.2 522.8 202.5 523.6 202.5H547.3ZM547.3 199H523.6C520.8 199 518.6 201.2 518.6 204V213.1C518.6 215.9 520.8 218.1 523.6 218.1H547.3C550.1 218.1 552.3 215.9 552.3 213.1V204C552.3 201.2 550.1 199 547.3 199Z" fill="#35DE90"/>
<path d="M612.9 218H564.9C562.1 218 559.9 215.8 559.9 213V203.9C559.9 201.1 562.1 198.9 564.9 198.9H612.9C615.7 198.9 617.9 201.1 617.9 203.9V213C617.9 215.8 615.7 218 612.9 218Z" fill="#35DE90"/>
<path d="M685.5 203.7H661.8C659 203.7 656.8 201.5 656.8 198.7V189.6C656.8 186.8 659 184.6 661.8 184.6H685.5C688.3 184.6 690.5 186.8 690.5 189.6V198.7C690.5 201.5 688.3 203.7 685.5 203.7Z" fill="#0C4EC0"/>
<path d="M740.1 203.7H703.2C700.4 203.7 698.2 201.5 698.2 198.7V189.6C698.2 186.8 700.4 184.6 703.2 184.6H740.1C742.9 184.6 745.1 186.8 745.1 189.6V198.7C745.1 201.5 742.8 203.7 740.1 203.7Z" fill="#0096FA"/>
<path d="M740.1 253.1H661.8C659 253.1 656.8 250.9 656.8 248.1V239C656.8 236.2 659 234 661.8 234H740.1C742.9 234 745.1 236.2 745.1 239V248.1C745.1 250.9 742.8 253.1 740.1 253.1Z" fill="#A3A3A3"/>
<path d="M710.3 284.4H661.8C659 284.4 656.8 282.2 656.8 279.4V270.3C656.8 267.5 659 265.3 661.8 265.3H710.3C713.1 265.3 715.3 267.5 715.3 270.3V279.4C715.3 282.2 713.1 284.4 710.3 284.4Z" fill="#E0E0E0"/>
<path d="M417.8 312.2H294.4C291.6 312.2 289.4 310 289.4 307.2V270.4C289.4 267.6 291.6 265.4 294.4 265.4H417.8C420.6 265.4 422.8 267.6 422.8 270.4V307.2C422.8 309.9 420.6 312.2 417.8 312.2Z" fill="#C5D9FB"/>
<path d="M193.5 238.4H87.6997C84.8997 238.4 82.6997 236.2 82.6997 233.4V196.6C82.6997 193.8 84.8997 191.6 87.6997 191.6H193.5C196.3 191.6 198.5 193.8 198.5 196.6V233.4C198.5 236.2 196.3 238.4 193.5 238.4Z" fill="#35DE90"/>
<path d="M398.6 488.9H295.5C292.7 488.9 290.5 486.7 290.5 483.9V447.1C290.5 444.3 292.7 442.1 295.5 442.1H398.6C401.4 442.1 403.6 444.3 403.6 447.1V483.9C403.6 486.7 401.4 488.9 398.6 488.9Z" fill="#C5D9FB"/>
<path d="M408.6 425.1H612.9C615.7 425.1 617.9 422.9 617.9 420.1V332.6C617.9 329.8 615.7 327.6 612.9 327.6H408.6C405.8 327.6 403.6 329.8 403.6 332.6V420.1C403.6 422.9 405.8 425.1 408.6 425.1Z" fill="#0096FA"/>
<path d="M295.5 578.9H612.9C615.7 578.9 617.9 576.7 617.9 573.9V514.9C617.9 512.1 615.7 509.9 612.9 509.9H295.5C292.7 509.9 290.5 512.1 290.5 514.9V573.9C290.5 576.7 292.8 578.9 295.5 578.9Z" fill="#E0E0E0"/>
<path d="M659.9 425.1H776.6" stroke="#E0E0E0" stroke-width="3.5" stroke-miterlimit="10"/>
<path d="M283.6 250.5H617.9" stroke="#E0E0E0" stroke-width="3.5" stroke-miterlimit="10"/>
<path d="M659.9 216.6H776.6" stroke="#E0E0E0" stroke-width="3.5" stroke-miterlimit="10"/>
<path d="M47.2998 274.9H233.9" stroke="#E0E0E0" stroke-width="3.5" stroke-miterlimit="10"/>
<path d="M47.2998 379.3H233.9" stroke="#E0E0E0" stroke-width="3.5" stroke-miterlimit="10"/>
<path d="M47.2998 483.7H233.9" stroke="#E0E0E0" stroke-width="3.5" stroke-miterlimit="10"/>
<path d="M259.2 180.6V588.1" stroke="#E0E0E0" stroke-width="3.5" stroke-miterlimit="10"/>
<path d="M637.4 180.6V588.1" stroke="#E0E0E0" stroke-width="3.5" stroke-miterlimit="10"/>
<path d="M865.089 1006.32L926.682 1011.53L903.296 695.105L830.119 688.921L865.089 1006.32Z" fill="#8C3A03"/>
<path d="M972.805 1011.86L1034.48 1015.96L1005.44 700.004L932.162 695.13L972.805 1011.86Z" fill="#8C3A03"/>
<path d="M842.034 615.753L811.425 790.036H1043.37L978.591 615.753H842.034Z" fill="#0C4EC0"/>
<path d="M842.034 615.753L811.425 790.036H1043.37L978.591 615.753H842.034Z" fill="url(#paint2_linear_10272_1584)"/>
<path d="M773.556 580.976L853.902 505.352L807.633 456.194L727.287 531.818L773.556 580.976Z" fill="url(#paint3_linear_10272_1584)"/>
<path d="M1034.7 1001.34L972.413 1001.69C971.583 1005.49 968.972 1019.13 954.142 1020.08C926.143 1021.98 937.414 1035.39 937.414 1035.39H1040.04L1034.7 1001.34Z" fill="#072F73"/>
<path fill-rule="evenodd" clip-rule="evenodd" d="M833.14 515.19C832.394 515.24 831.641 515.265 830.883 515.265C812.209 515.265 797.07 500.126 797.07 481.452C797.07 462.778 812.209 447.639 830.883 447.639C832.763 447.639 834.607 447.793 836.403 448.088L992.591 447.64L978.592 615.754H842.036L833.14 515.19Z" fill="#0096FA"/>
<path d="M790 565.5L768.845 435.667L702.31 447.082L721.349 558.051L773.5 581L790 565.5Z" fill="#0096FA"/>
<path d="M927.065 1001.34L864.779 1001.69C863.948 1005.49 861.338 1019.13 846.508 1020.08C818.509 1021.98 829.78 1035.39 829.78 1035.39H932.404L927.065 1001.34Z" fill="#072F73"/>
<path d="M863.604 640.539L883.947 625.71L851.962 632.757L849.174 627.449L878.086 615.909L838.974 616.183L838.027 609.706L876.758 602.772L844.401 597.795L844.544 591.216L897.049 588.632L895.946 572.47L905.446 572.47L913.946 587.47L931.104 586.676L945.524 627.351L893.332 634.222L866.928 645.5L863.604 640.539Z" fill="#8C3A03"/>
<path d="M995.72 613.413C1010.98 624.182 1032.07 620.544 1042.84 605.288C1053.61 590.031 1049.97 568.934 1034.72 558.165C1019.46 547.396 998.364 551.034 987.595 566.29C976.826 581.546 980.464 602.644 995.72 613.413Z" fill="#0096FA"/>
<path fill-rule="evenodd" clip-rule="evenodd" d="M1022.61 473.018C1018.87 458.425 1005.62 447.64 989.861 447.64C971.187 447.64 956.048 462.778 956.048 481.452C956.048 485.445 956.74 489.276 958.011 492.832L982.959 598.121L1048.65 582.557L1022.69 473L1022.61 473.018Z" fill="#0096FA"/>
<path d="M1006.18 553.126L920.961 575.311L931.583 642.349L1023.23 618.459L1006.18 553.126Z" fill="#0096FA"/>
<path d="M913.822 437.461C867.883 428.151 838.19 383.363 847.5 337.425C856.81 291.486 901.598 261.792 947.537 271.102C993.475 280.413 1023.17 325.201 1013.86 371.14C1004.55 417.078 959.76 446.772 913.822 437.461Z" fill="#141414"/>
<path d="M754.953 586.805C773.693 586.805 788.884 571.614 788.884 552.874C788.884 534.134 773.693 518.943 754.953 518.943C736.214 518.943 721.022 534.134 721.022 552.874C721.022 571.614 736.214 586.805 754.953 586.805Z" fill="#0096FA"/>
<path fill-rule="evenodd" clip-rule="evenodd" d="M730.253 366.018L693.513 352.564L694.87 363.011L676.327 368.032L678.018 377.83L696.604 376.368L696.711 377.188L678.173 380.332L679.22 393.084L698.642 392.058L698.688 392.409L717.834 444.674L749.4 438.982L741.638 422.94L730.253 366.018Z" fill="#8C3A03"/>
<path d="M706.891 393L707.005 408.53L680.338 403.391L681.061 394.654L706.891 393Z" fill="#8C3A03"/>
<path d="M710.806 365.282L701.338 341.933L700.924 342.06L700.887 341.938L698.215 342.824L695.522 343.598L695.543 343.711L695.129 343.838L700.385 368.479L702.902 367.694L710.806 365.282Z" fill="#072F73"/>
<path d="M704.889 347.077L699.987 348.595L695.077 350.088L702.068 381.296L706.808 379.855L711.872 378.302L716.604 376.836L704.889 347.077Z" fill="#1968F0"/>
<path d="M668.404 340.649C689.052 351.602 714.556 343.956 725.369 323.571C736.181 303.187 728.208 277.783 707.56 266.831C686.912 255.878 661.408 263.524 650.595 283.909C639.783 304.293 647.756 329.697 668.404 340.649Z" fill="#072F73"/>
<path d="M671.02 335.717C689.208 345.365 711.547 338.869 720.914 321.208C730.282 303.547 723.132 281.41 704.944 271.762C686.756 262.115 664.418 268.611 655.05 286.272C645.683 303.932 652.833 326.07 671.02 335.717Z" fill="url(#paint4_linear_10272_1584)"/>
<path d="M697.577 363.462L695.392 350.872L678.736 357.881L680.903 365.891L697.577 363.462Z" fill="#8C3A03"/>
<path d="M730.804 372.82L734.478 360.321L705.319 350.866L704.158 359.531L730.804 372.82Z" fill="#8C3A03"/>
<path d="M885.476 340.111L938.417 350.841L941.987 355.771L929.935 457.106L890.786 449.172L892.695 432.951L874.793 429.323C873.376 427.368 872.64 426.348 871.223 424.393L880.811 343.445L885.476 340.111Z" fill="#8C3A03"/>
<path d="M938.242 419.337L927.166 417.093L930.695 399.678L945.742 402.727L943.017 416.172C942.496 418.387 940.401 419.775 938.242 419.337Z" fill="#8C3A03"/>
<path d="M921.535 449.891L930.661 451.74L934.551 418.589L924.242 416.499L921.535 449.891Z" fill="url(#paint5_linear_10272_1584)"/>
<path d="M905.93 441.362L892.138 438.567L892.779 432.895L906.642 435.705L905.93 441.362Z" fill="url(#paint6_linear_10272_1584)"/>
<path fill-rule="evenodd" clip-rule="evenodd" d="M892.953 386.604C892.469 386.264 891.801 386.381 891.461 386.865L878.408 405.468C878.2 405.764 878.156 406.145 878.29 406.481C878.424 406.817 878.718 407.062 879.072 407.134L888.894 409.125C889.474 409.242 890.04 408.867 890.157 408.287C890.275 407.707 889.9 407.142 889.32 407.024L881.102 405.359L893.215 388.096C893.555 387.612 893.438 386.944 892.953 386.604Z" fill="#141414"/>
<defs>
<linearGradient id="paint0_linear_10272_1584" x1="802.95" y1="125.059" x2="-166.664" y2="702.56" gradientUnits="userSpaceOnUse">
<stop stop-color="white"/>
<stop offset="0.3535" stop-color="#FBFBFB"/>
<stop offset="0.7152" stop-color="#EFEFEF"/>
<stop offset="0.9901" stop-color="#E0E0E0"/>
</linearGradient>
<linearGradient id="paint1_linear_10272_1584" x1="265.94" y1="476.135" x2="877.29" y2="-19.0504" gradientUnits="userSpaceOnUse">
<stop offset="0.2531" stop-color="#0033FF" stop-opacity="0"/>
<stop offset="0.441" stop-color="#0033FC" stop-opacity="0.2515"/>
<stop offset="0.565" stop-color="#0133F3" stop-opacity="0.4176"/>
<stop offset="0.6706" stop-color="#0132E4" stop-opacity="0.559"/>
<stop offset="0.7659" stop-color="#0232CF" stop-opacity="0.6866"/>
<stop offset="0.8542" stop-color="#0431B4" stop-opacity="0.8048"/>
<stop offset="0.9363" stop-color="#053092" stop-opacity="0.9147"/>
<stop offset="1" stop-color="#072F73"/>
</linearGradient>
<linearGradient id="paint2_linear_10272_1584" x1="927" y1="599.5" x2="943" y2="729" gradientUnits="userSpaceOnUse">
<stop offset="0.0681134" stop-color="#072F73"/>
<stop offset="0.705195" stop-color="#0C4EC0" stop-opacity="0"/>
</linearGradient>
<linearGradient id="paint3_linear_10272_1584" x1="838" y1="482" x2="701.5" y2="513.5" gradientUnits="userSpaceOnUse">
<stop offset="0.295065" stop-color="#0096FA"/>
<stop offset="0.752889" stop-color="#072F73"/>
<stop offset="1" stop-color="#0096FA"/>
</linearGradient>
<linearGradient id="paint4_linear_10272_1584" x1="721.053" y1="271.681" x2="653.946" y2="336.742" gradientUnits="userSpaceOnUse">
<stop stop-color="white"/>
<stop offset="0.315" stop-color="#FCFDFF"/>
<stop offset="0.5502" stop-color="#F2F7FE"/>
<stop offset="0.7594" stop-color="#E2ECFD"/>
<stop offset="0.9524" stop-color="#CCDDFB"/>
<stop offset="1" stop-color="#C5D9FB"/>
</linearGradient>
<linearGradient id="paint5_linear_10272_1584" x1="917.239" y1="435.291" x2="948.934" y2="429.588" gradientUnits="userSpaceOnUse">
<stop offset="0.1839" stop-color="#8C3A03" stop-opacity="0"/>
<stop offset="0.2807" stop-color="#7F3605" stop-opacity="0.1636"/>
<stop offset="0.459" stop-color="#5E2B0A" stop-opacity="0.4648"/>
<stop offset="0.6973" stop-color="#271A11" stop-opacity="0.8673"/>
<stop offset="0.7758" stop-color="#141414"/>
</linearGradient>
<linearGradient id="paint6_linear_10272_1584" x1="904.155" y1="446.946" x2="894.861" y2="426.54" gradientUnits="userSpaceOnUse">
<stop stop-color="#8C3A03" stop-opacity="0"/>
<stop offset="0.1808" stop-color="#883904" stop-opacity="0.1808"/>
<stop offset="0.364" stop-color="#7C3505" stop-opacity="0.364"/>
<stop offset="0.5483" stop-color="#672E08" stop-opacity="0.5483"/>
<stop offset="0.7336" stop-color="#4B250C" stop-opacity="0.7336"/>
<stop offset="0.9178" stop-color="#271A11" stop-opacity="0.9178"/>
<stop offset="1" stop-color="#141414"/>
</linearGradient>
</defs>
</svg>
