<svg width="1080" height="1081" viewBox="0 0 1080 1081" fill="none" xmlns="http://www.w3.org/2000/svg">
<path d="M652.746 643.104H1030.38C1039.75 643.104 1047.41 650.767 1047.41 660.133V889.4C1047.41 898.766 1039.75 906.43 1030.38 906.43H652.746C643.379 906.43 635.716 898.766 635.716 889.4V660.133C635.716 650.767 643.379 643.104 652.746 643.104Z" fill="url(#paint0_linear_18735_5790)"/>
<path d="M766.415 759.332H727.459C721.499 759.332 716.815 764.015 716.815 769.976V834.903H777.059V769.976C777.059 764.228 772.375 759.332 766.415 759.332Z" fill="#0096FA"/>
<path d="M955.451 724.42H916.493C910.533 724.42 905.85 729.103 905.85 735.064V834.689H966.095V735.064C966.095 729.316 961.199 724.42 955.451 724.42Z" fill="#35DE90"/>
<path d="M690.846 834.902H992.064" stroke="#1968F0" stroke-width="10.6437" stroke-miterlimit="10"/>
<path d="M247.43 254.603V432.567C247.43 436.186 244.662 438.953 241.044 438.953H61.1646C57.5457 438.953 54.5654 441.933 54.7783 445.552C58.1843 547.732 142.058 629.475 245.089 629.9C350.462 630.113 436.462 544.326 436.462 438.953C436.462 336.348 355.571 252.687 254.03 248.217C250.624 248.004 247.43 250.771 247.43 254.603Z" fill="#0096FA"/>
<path d="M225.504 226.506C151.637 229.273 88.4126 273.765 59.0359 337.415C57.5458 340.608 59.0372 344.653 62.4432 345.93L219.756 411.283C226.781 414.263 234.445 408.94 234.445 401.489V235.235C234.233 230.339 230.188 226.506 225.504 226.506Z" fill="#1968F0"/>
<path d="M38.3862 427.034H192.72C199.745 427.034 201.661 417.455 195.275 414.688L52.8634 355.509C49.4574 354.019 45.6256 355.722 44.3484 359.128C37.1107 378.287 32.8515 398.721 32 420.222C32 423.84 34.7674 427.034 38.3862 427.034Z" fill="#35DE90"/>
<path d="M699.579 803.395C627.202 815.103 557.592 767.633 542.69 695.043C527.576 621.388 574.408 549.223 647.637 533.044L917.988 456.197V456.409C918.839 456.196 919.903 455.984 920.755 455.771C944.384 450.875 967.375 466.203 972.271 489.619C976.103 507.926 967.801 525.806 952.9 535.173C952.9 535.173 971.633 589.67 923.736 636.076C900.32 658.854 859.021 681.206 859.021 681.206C859.021 681.206 814.106 783.598 699.579 803.395Z" fill="url(#paint1_linear_18735_5790)"/>
<path d="M927.355 462.372C946.514 458.54 965.034 470.673 968.865 489.832C970.568 498.134 969.291 506.224 965.672 513.036C965.672 513.036 937.36 568.382 809.209 606.913" stroke="#0C4EC0" stroke-width="19.1587" stroke-miterlimit="10" stroke-linecap="round"/>
<path d="M951.624 530.916C951.624 530.916 976.53 579.453 940.342 620.964C904.153 662.474 849.019 691.851 782.176 712.5" stroke="#0C4EC0" stroke-width="19.1587" stroke-miterlimit="10" stroke-linecap="round"/>
<path d="M544.181 695.256C544.181 695.256 565.254 831.71 713.202 809.996C820.491 794.244 869.453 676.312 869.453 676.312" stroke="#0C4EC0" stroke-width="19.1587" stroke-miterlimit="10" stroke-linecap="round"/>
<path d="M334.709 855.338L359.616 950.92C362.383 961.351 373.665 967.098 383.67 962.84C401.339 955.177 427.097 939.849 442.637 910.26L539.921 1010.52C542.475 1013.08 546.52 1013.08 548.862 1010.74L567.807 992.216C570.361 989.875 570.362 985.83 568.021 983.275L536.302 949.429L583.56 973.91C586.54 975.4 590.158 974.547 591.861 971.567L605.274 949.856C607.19 946.662 606.125 942.403 602.719 940.7L555.034 917.71L595.907 920.053C599.313 920.266 602.293 917.711 602.719 914.305L604.848 890.251L707.878 951.558C710.858 953.261 714.477 952.409 716.393 949.641L726.186 934.954C728.315 931.974 727.251 927.715 724.057 925.799L696.17 909.195L737.256 913.453C740.875 913.878 744.068 911.112 744.281 907.493L745.131 890.889C745.344 887.483 742.79 884.714 739.597 884.288L702.77 879.607L733.423 870.24C736.616 869.175 738.532 865.77 737.68 862.577L733.849 847.462C732.997 844.268 729.804 842.139 726.398 842.778L684.676 850.869L433.057 811.911L334.709 855.338Z" fill="#0C4EC0"/>
<path d="M781.533 669.073L785.365 444.278H785.153C784.94 315.702 684.036 208.199 553.97 201.813C419.859 195.214 305.545 298.459 298.946 432.57C298.733 437.679 298.521 443.001 298.734 448.11H298.308L299.158 459.179C299.371 463.011 299.585 466.842 300.011 470.673L316.829 677.162H317.467C319.808 798.075 415.388 898.126 538.004 904.299C665.942 910.686 774.933 812.125 781.319 683.974C781.532 678.652 781.533 673.756 781.533 669.073Z" fill="url(#paint2_linear_18735_5790)"/>
<path d="M478.826 621.815C479.251 548.373 421.988 487.066 347.908 483.234C272.763 479.403 208.687 536.665 203.791 611.597L169.093 890.463H169.305C169.092 891.527 169.093 892.38 169.093 893.444C167.816 917.499 186.337 937.935 210.392 939.212C228.912 940.064 245.515 929.205 252.54 913.027C252.54 913.027 309.165 923.245 347.908 868.749C366.641 842.14 382.82 797.863 382.82 797.863C382.82 797.863 476.697 738.044 478.826 621.815Z" fill="#C5D9FB"/>
<path d="M602.719 340.181C602.719 340.181 610.168 342.948 624.857 323.79C639.545 304.418 654.021 288.878 677.863 289.303C701.705 289.729 746.621 347.42 742.364 410.218C737.893 473.016 702.557 537.516 576.536 534.535C450.514 531.555 350.675 464.5 358.551 375.306C366.428 286.111 441.785 246.516 489.043 249.71C536.514 252.903 572.064 280.363 586.965 321.661C586.752 321.235 592.927 339.756 602.719 340.181Z" fill="white"/>
<path d="M602.932 430.018C602.932 430.018 601.015 384.674 617.407 367.005C633.798 349.337 661.686 327.624 704.899 329.54C704.899 329.54 718.31 330.392 718.948 344.868C718.948 344.868 719.801 351.678 715.543 357.426C715.543 357.426 737.044 364.027 736.192 380.418C735.341 396.81 723.633 398.085 714.905 398.937L710.647 439.383C710.647 439.383 707.027 493.241 659.343 492.389C611.659 491.538 605.06 460.246 602.932 430.018Z" fill="#C5D9FB"/>
<path d="M446.256 290.156C446.256 290.156 441.573 274.403 455.197 268.443C468.821 262.482 502.667 269.081 532.256 294.626C561.846 320.171 569.297 346.568 569.297 346.568C569.297 346.568 583.348 430.653 527.149 471.312C527.149 471.312 507.138 480.68 490.108 479.403C473.078 478.125 423.266 464.714 423.266 424.693C423.266 384.673 431.355 345.077 431.355 345.077C431.355 345.077 406.874 338.053 417.518 307.186C417.305 306.973 425.395 288.24 446.256 290.156Z" fill="#C5D9FB"/>
<path d="M541.836 438.74C541.836 438.74 540.56 445.34 548.862 454.067C557.164 462.795 565.466 480.038 567.169 488.766C568.872 497.493 568.232 522.187 576.96 522.825C585.688 523.464 610.17 486.637 612.725 460.454C615.279 434.27 599.313 416.815 582.07 415.538C564.827 414.261 545.88 419.368 541.836 438.74Z" fill="#1F1F1F"/>
<path d="M564.185 451.513C568.653 451.513 572.276 447.891 572.276 443.424C572.276 438.956 568.653 435.335 564.185 435.335C559.718 435.335 556.097 438.956 556.097 443.424C556.097 447.891 559.718 451.513 564.185 451.513Z" fill="#2A3871"/>
<path d="M651.683 449.172C665.791 449.172 677.228 437.735 677.228 423.627C677.228 409.519 665.791 398.082 651.683 398.082C637.575 398.082 626.138 409.519 626.138 423.627C626.138 437.735 637.575 449.172 651.683 449.172Z" fill="#02041A"/>
<path d="M641.675 420.222C646.496 420.222 650.402 416.315 650.402 411.495C650.402 406.674 646.496 402.768 641.675 402.768C636.855 402.768 632.948 406.674 632.948 411.495C632.948 416.315 636.855 420.222 641.675 420.222Z" fill="#F9FAFA"/>
<path d="M500.113 413.199C514.221 413.199 525.658 401.762 525.658 387.654C525.658 373.546 514.221 362.109 500.113 362.109C486.005 362.109 474.568 373.546 474.568 387.654C474.568 401.762 486.005 413.199 500.113 413.199Z" fill="#02041A"/>
<path d="M490.11 384.247C494.93 384.247 498.839 380.338 498.839 375.518C498.839 370.698 494.93 366.791 490.11 366.791C485.29 366.791 481.383 370.698 481.383 375.518C481.383 380.338 485.29 384.247 490.11 384.247Z" fill="#F9FAFA"/>
<path d="M241.895 620.751C241.895 622.454 241.468 623.946 239.978 625.223C236.359 629.055 232.74 633.098 228.908 637.143C226.354 639.91 225.291 643.103 225.929 646.722C226.355 650.554 226.781 654.172 226.994 658.004C227.206 661.41 228.696 664.178 231.463 666.307C235.934 669.5 240.191 672.693 244.662 675.887C247.642 678.015 248.493 680.782 247.003 683.975C242.958 692.49 239.127 701.005 235.082 709.52C233.805 712.288 232.103 713.14 229.122 712.501C223.8 711.224 218.477 709.946 212.943 708.882C209.537 708.243 206.344 708.455 203.363 710.797C200.17 713.138 196.978 715.48 193.572 717.609C190.379 719.738 188.675 722.507 188.462 726.338C188.036 731.873 187.398 737.193 186.759 742.728C186.334 745.708 185.27 746.774 182.29 747.2C172.498 748.264 162.705 749.114 153.126 750.179C150.145 750.391 148.868 749.541 147.804 746.773C146.101 741.664 144.398 736.343 142.908 731.234C141.844 727.189 139.289 724.848 135.458 723.145C132.052 721.655 128.432 720.164 125.026 718.674C121.833 717.183 118.64 717.396 115.447 718.674C110.55 720.802 105.655 723.145 100.971 725.274C97.3526 726.977 95.8625 726.55 93.5208 723.357C88.199 716.332 82.8771 709.095 77.5553 702.07C76.9166 701.431 76.4905 700.58 76.0647 699.729C75.0003 697.174 75.4273 695.045 77.3432 692.917C80.9621 689.085 84.5801 685.039 88.199 680.994C90.7535 678.227 91.8187 675.034 91.1801 671.415C90.7543 667.583 90.3286 663.965 90.1157 660.133C89.9028 656.514 88.4123 653.748 85.432 651.832C81.1745 648.639 76.7029 645.445 72.4454 642.465C69.6781 640.336 68.6145 637.781 70.1046 634.588C74.1493 625.647 78.4063 616.921 82.451 608.193C83.3024 606.277 85.4312 605.424 87.7728 605.85C93.0947 607.127 98.4165 608.192 103.738 609.469C107.57 610.321 111.189 609.895 114.382 607.341C117.15 605.212 119.917 603.296 122.897 601.38C126.516 599.039 128.644 596.057 128.857 591.587C129.283 586.265 129.923 580.943 130.562 575.621C130.988 572.641 132.051 571.578 135.031 571.152C144.824 570.087 154.616 569.235 164.196 568.171C167.176 567.958 168.452 568.811 169.303 571.578C171.006 576.687 172.711 582.008 174.201 587.117C175.266 591.162 177.82 593.503 181.652 595.206C185.271 596.696 188.675 598.188 192.081 599.678C195.274 601.168 198.468 600.955 201.661 599.678C206.77 597.549 211.667 595.207 216.776 592.865C219.543 591.588 221.458 592.014 223.374 594.568C228.696 601.806 234.23 609.044 239.552 616.282C240.829 617.559 241.682 618.835 241.895 620.751ZM129.497 661.836C131.2 678.653 145.249 690.575 161.641 689.085C178.671 687.595 190.379 673.332 188.676 656.302C186.973 639.272 172.923 627.351 156.319 629.054C139.502 630.757 127.794 645.018 129.497 661.836Z" fill="url(#paint3_linear_18735_5790)"/>
<path d="M860.937 683.974H821.981C816.021 683.974 811.337 688.657 811.337 694.617V834.903H871.58V694.617C871.58 688.657 866.897 683.974 860.937 683.974Z" fill="#1968F0"/>
<path fill-rule="evenodd" clip-rule="evenodd" d="M340.938 479.514C335.632 479.514 331.331 483.815 331.331 489.12C331.331 494.421 335.624 498.719 340.922 498.727H340.924L340.929 498.727L340.956 498.727C340.994 498.727 341.065 498.728 341.167 498.73C341.372 498.734 341.701 498.741 342.147 498.757C343.04 498.789 344.397 498.856 346.152 498.991C349.666 499.263 354.755 499.812 360.894 500.919C373.213 503.141 389.521 507.568 405.754 516.333C421.936 525.07 437.967 538.071 450.037 557.502C462.091 576.909 470.528 603.264 470.733 639.251V639.253C471.034 690.236 445.534 731.828 419.112 761.147C409.048 772.315 398.96 781.576 390.341 788.752C396.157 768.173 400.656 746.381 404.024 723.648C404.801 718.4 401.177 713.515 395.929 712.737C390.681 711.96 385.796 715.584 385.018 720.832C380.256 752.977 373.239 782.652 363.594 809.27C362.837 810.449 362.351 811.777 362.161 813.151C351.511 841.454 337.802 866.186 320.572 886.616C304.876 905.225 285.773 910.701 270.253 911.557C265.262 911.832 260.667 911.623 256.728 911.211C258.042 909.132 259.378 906.932 260.729 904.607C276.401 877.651 294.051 834.058 303.488 766.482C304.221 761.227 300.556 756.373 295.302 755.639C290.047 754.905 285.193 758.57 284.459 763.824C283.206 772.8 281.806 781.318 280.286 789.4L280.286 789.4L219.123 926.911C214.421 930.359 208.693 932.199 202.688 931.896C188.477 931.106 177.481 918.905 178.252 904.869C178.543 899.572 174.485 895.041 169.187 894.75C163.89 894.459 159.359 898.518 159.068 903.815C157.705 928.628 177.015 949.727 201.65 951.081L201.667 951.082L201.685 951.083C212.319 951.628 222.374 948.348 230.474 942.412L230.482 942.406L230.519 942.379L230.557 942.351C230.588 942.328 230.623 942.303 230.661 942.274C230.692 942.251 230.725 942.226 230.761 942.199C230.92 942.078 231.126 941.918 231.376 941.718C231.876 941.318 232.553 940.757 233.386 940.019C235.052 938.542 237.341 936.362 240.088 933.36C241.357 931.973 242.723 930.412 244.17 928.665C245.147 928.872 246.218 929.083 247.374 929.288C253.342 930.345 261.698 931.271 271.311 930.741C290.642 929.675 315.303 922.663 335.258 899.003C353.979 876.807 368.626 850.336 379.884 820.605C380.448 820.231 381.081 819.806 381.778 819.332C384.912 817.199 389.342 814.056 394.635 809.95C405.206 801.748 419.295 789.645 433.385 774.009C461.455 742.861 490.285 696.819 489.946 639.142C489.724 600.091 480.522 570.167 466.358 547.365C452.21 524.587 433.444 509.449 414.883 499.426C396.372 489.432 377.99 484.479 364.304 482.011C357.441 480.773 351.7 480.15 347.633 479.835C345.598 479.678 343.978 479.598 342.84 479.557C342.271 479.536 341.823 479.525 341.503 479.52C341.343 479.517 341.215 479.515 341.121 479.515L341.004 479.514L340.964 479.514L340.949 479.514C340.943 479.514 340.938 479.514 340.938 489.12L340.938 479.514ZM489.946 639.142L489.946 639.14L480.34 639.196L489.946 639.142ZM280.286 789.4C270.727 840.227 256.431 873.773 244.119 894.951C240.405 901.339 236.865 906.614 233.68 910.908C233.004 911.566 232.418 912.331 231.952 913.187C229.704 916.09 227.667 918.473 225.914 920.389C223.627 922.888 221.818 924.599 220.644 925.638C220.058 926.158 219.629 926.511 219.379 926.711L219.341 926.742C219.323 926.756 219.306 926.769 219.291 926.781C219.216 926.84 219.165 926.879 219.141 926.898L219.126 926.909L219.124 926.91L280.286 789.4Z" fill="#0C4EC0"/>
<path fill-rule="evenodd" clip-rule="evenodd" d="M687.261 651.306C690.671 646.711 697.161 645.752 701.755 649.163C709.037 654.569 719.138 652.988 724.351 645.956C727.758 641.359 734.247 640.395 738.844 643.803C743.441 647.21 744.405 653.699 740.997 658.296C728.915 674.595 705.81 677.98 689.403 665.8C684.809 662.389 683.85 655.9 687.261 651.306Z" fill="#0C4EC0"/>
<path fill-rule="evenodd" clip-rule="evenodd" d="M599.399 659.855C602.893 655.323 609.399 654.483 613.93 657.977C621.112 663.515 631.241 662.119 636.581 655.183C640.071 650.649 646.577 649.803 651.11 653.294C655.644 656.785 656.49 663.29 652.999 667.824C640.622 683.9 617.458 686.863 601.277 674.386C596.746 670.892 595.905 664.386 599.399 659.855Z" fill="#0C4EC0"/>
<path fill-rule="evenodd" clip-rule="evenodd" d="M511.399 671.855C514.893 667.323 521.399 666.483 525.93 669.977C533.112 675.515 543.241 674.119 548.581 667.183C552.071 662.649 558.577 661.803 563.11 665.294C567.644 668.785 568.49 675.29 564.999 679.824C552.622 695.9 529.458 698.863 513.277 686.386C508.746 682.892 507.905 676.386 511.399 671.855Z" fill="#0C4EC0"/>
<path fill-rule="evenodd" clip-rule="evenodd" d="M549.399 733.855C552.893 729.323 559.399 728.483 563.93 731.977C571.112 737.515 581.241 736.119 586.581 729.183C590.071 724.649 596.577 723.803 601.11 727.294C605.644 730.785 606.49 737.29 602.999 741.824C590.622 757.9 567.458 760.863 551.277 748.386C546.746 744.892 545.905 738.386 549.399 733.855Z" fill="#0C4EC0"/>
<path fill-rule="evenodd" clip-rule="evenodd" d="M643.399 717.855C646.893 713.323 653.399 712.483 657.93 715.977C665.112 721.515 675.241 720.119 680.581 713.183C684.071 708.649 690.577 707.803 695.11 711.294C699.644 714.785 700.49 721.29 696.999 725.824C684.622 741.9 661.458 744.863 645.277 732.386C640.746 728.892 639.905 722.386 643.399 717.855Z" fill="#0C4EC0"/>
<path fill-rule="evenodd" clip-rule="evenodd" d="M606.399 790.855C609.893 786.323 616.399 785.483 620.93 788.977C628.112 794.515 638.241 793.119 643.581 786.183C647.071 781.649 653.577 780.803 658.11 784.294C662.644 787.785 663.49 794.29 659.999 798.824C647.622 814.9 624.458 817.863 608.277 805.386C603.746 801.892 602.905 795.386 606.399 790.855Z" fill="#0C4EC0"/>
<defs>
<linearGradient id="paint0_linear_18735_5790" x1="648.169" y1="653.173" x2="1320.13" y2="1075.78" gradientUnits="userSpaceOnUse">
<stop stop-color="#C5D9FB"/>
<stop offset="0.1989" stop-color="#DBE7FC"/>
<stop offset="0.4502" stop-color="#EFF4FE"/>
<stop offset="0.7009" stop-color="#FBFCFF"/>
<stop offset="0.9485" stop-color="white"/>
</linearGradient>
<linearGradient id="paint1_linear_18735_5790" x1="364.14" y1="638.13" x2="1043.91" y2="623.242" gradientUnits="userSpaceOnUse">
<stop stop-color="#1968F0"/>
<stop offset="0.312" stop-color="#6197F5"/>
<stop offset="0.7237" stop-color="#C5D9FB"/>
</linearGradient>
<linearGradient id="paint2_linear_18735_5790" x1="103.774" y1="675.58" x2="573.199" y2="544.961" gradientUnits="userSpaceOnUse">
<stop stop-color="#1968F0"/>
<stop offset="0.0827865" stop-color="#2E76F1"/>
<stop offset="0.3123" stop-color="#6499F5"/>
<stop offset="0.5267" stop-color="#8EB5F7"/>
<stop offset="0.7194" stop-color="#ACC9F9"/>
<stop offset="0.8836" stop-color="#BED5FB"/>
<stop offset="1" stop-color="#C5D9FB"/>
</linearGradient>
<linearGradient id="paint3_linear_18735_5790" x1="191.73" y1="576.305" x2="116.988" y2="766.44" gradientUnits="userSpaceOnUse">
<stop stop-color="#072F73"/>
<stop offset="0.2762" stop-color="#073076"/>
<stop offset="0.4882" stop-color="#083480"/>
<stop offset="0.6787" stop-color="#093B90"/>
<stop offset="0.8556" stop-color="#0A44A7"/>
<stop offset="1" stop-color="#0C4EC0"/>
</linearGradient>
</defs>
</svg>
