<svg xmlns="http://www.w3.org/2000/svg" width="1080" height="1081" viewBox="0 0 1080 1081" fill="none"><path fill="url(#a)" d="M1036.98 487.644H99.46c-12.663 0-23.023-10.36-23.023-23.023V293.096c0-12.663 10.36-23.024 23.023-23.024h937.52c12.66 0 23.02 10.361 23.02 23.024v171.525c0 12.663-10.36 23.023-23.02 23.023"/><path fill="#EFEFEF" fill-rule="evenodd" d="M942.117 333.156c-23.778 0-43.054 19.275-43.054 43.052s19.276 43.055 43.054 43.055 43.054-19.277 43.054-43.055-19.276-43.052-43.054-43.052m-54.566 43.052c0-30.136 24.43-54.563 54.566-54.563 30.135 0 54.566 24.427 54.566 54.563s-24.43 54.567-54.566 54.567-54.566-24.431-54.566-54.567" clip-rule="evenodd"/><path fill="#EFEFEF" fill-rule="evenodd" d="m990.747 436.202-19.8-20.031 8.187-8.093 19.8 20.031zM834.827 445.741V313.816h11.512v131.925z" clip-rule="evenodd"/><path fill="#0096FA" d="M952.941 596.545c30.136 0 54.559-24.43 54.559-54.566s-24.423-54.564-54.559-54.564-54.566 24.428-54.566 54.564 24.43 54.566 54.566 54.566"/><path fill="url(#b)" d="M905.511 588.947c-3.454-79.201-68.841-142.516-148.963-142.516-81.503 0-147.579 65.388-148.731 146.43l-22.562 303.22h.229c0 1.151-.229 2.071-.229 3.222 0 26.017 21.181 47.198 47.198 47.198 20.261 0 37.297-12.663 43.974-30.391 0 0 61.703 8.058 100.613-52.954 18.879-29.701 33.845-78.28 33.845-78.28s98.77-70.221 94.626-195.929"/><path fill="#0C4EC0" d="m322.554 845.891 26.938 103.376c2.993 11.281 15.195 17.497 26.016 12.892 19.109-8.288 46.968-24.863 63.775-56.866l105.218 108.437c2.763 2.77 7.138 2.76 9.67.23l20.49-20.027c2.763-2.532 2.764-6.907.231-9.67l-34.305-36.608 51.112 26.477c3.223 1.611 7.138.691 8.98-2.532l14.505-23.484c2.072-3.454.92-8.058-2.764-9.9l-51.573-24.865 44.205 2.532c3.684.23 6.908-2.533 7.368-6.217l2.303-26.016 111.434 66.539c3.224 1.842 7.137.92 9.21-2.073l10.59-15.887c2.302-3.224 1.151-7.828-2.303-9.9l-30.16-17.958 44.435 4.605c3.914.46 7.367-2.532 7.597-6.446l.922-17.958c.231-3.684-2.534-6.678-5.987-7.139l-39.83-5.065 33.154-10.129c3.454-1.152 5.526-4.837 4.605-8.29l-4.146-16.346a7 7 0 0 0-8.058-5.066l-45.125 8.749-272.138-42.133z"/><path fill="url(#c)" d="m806.047 644.203 4.146-243.127h-.231c-.231-139.062-109.361-255.331-250.035-262.238-145.047-7.138-268.683 104.527-275.82 249.575-.231 5.526-.462 11.281-.232 16.807h-.461l.922 11.972c.23 4.145.461 8.288.922 12.432l18.187 223.328h.69c2.533 130.773 105.91 238.984 238.525 245.661 138.371 6.907 256.251-99.692 263.158-238.293.23-5.526.229-10.822.229-16.117"/><path fill="#C5D9FB" d="M478.655 593.323c.46-79.431-61.473-145.74-141.595-149.884-81.273-4.145-150.574 57.788-155.869 138.831l-37.528 301.607h.229c-.23 1.152-.229 2.073-.229 3.225-1.381 26.016 18.648 48.119 44.664 49.5 20.031.921 37.989-10.82 45.586-28.318 0 0 61.245 11.051 103.147-47.889 20.491-28.779 37.758-76.67 37.758-76.67s101.534-64.694 103.837-190.402"/><path fill="#fff" d="M612.651 288.718s8.059 2.994 23.945-17.727c15.886-20.951 31.543-37.759 57.329-37.298s74.366 62.853 69.761 130.773c-4.835 67.919-43.055 137.681-179.354 134.458-136.529-3.223-244.278-75.749-235.759-172.218s90.021-139.292 141.134-135.838c51.342 3.453 89.791 33.155 105.908 77.821-.461-.461 6.445 19.568 17.036 20.029"/><path fill="#C5D9FB" d="M612.651 385.877s-2.07-49.04 15.658-68.149 47.888-42.595 94.626-40.523c0 0 14.504.922 15.194 16.578 0 0 .922 7.368-3.682 13.584 0 0 23.254 7.137 22.333 24.865s-13.584 19.11-23.024 20.031l-4.604 43.745s-3.916 58.248-55.488 57.327-58.48-34.765-61.013-67.458M443.197 234.617s-5.064-17.036 9.671-23.482c14.735-6.447 51.112.69 83.345 28.318s40.06 56.176 40.06 56.176 15.196 90.944-45.586 134.919c0 0-21.643 10.13-40.062 8.748-18.419-1.381-72.292-15.886-72.292-59.17s8.748-86.107 8.748-86.107-26.477-7.599-14.965-40.983c0-.231 8.749-20.491 31.081-18.419"/><path fill="#1F1F1F" d="M546.803 395.089s-1.382 7.137 7.597 16.577 17.96 28.088 19.802 37.528 1.15 36.147 10.59 36.837 35.916-39.139 38.679-67.458-14.504-47.197-33.153-48.579c-18.649-1.151-39.371 4.374-43.515 25.095"/><path fill="#2A3871" d="M570.98 409.135c4.832 0 8.748-3.919 8.748-8.751a8.747 8.747 0 0 0-8.748-8.748 8.75 8.75 0 0 0 0 17.499"/><path fill="#02041A" d="M665.604 406.368c15.258 0 27.628-12.37 27.628-27.628s-12.37-27.629-27.628-27.629-27.628 12.37-27.628 27.629c0 15.258 12.369 27.628 27.628 27.628"/><path fill="#F9FAFA" d="M654.782 375.289c5.213 0 9.439-4.228 9.439-9.441a9.44 9.44 0 0 0-9.439-9.439c-5.214 0-9.441 4.226-9.441 9.439s4.227 9.441 9.441 9.441"/><path fill="#02041A" d="M501.445 367.692c15.258 0 27.628-12.37 27.628-27.628s-12.37-27.628-27.628-27.628-27.629 12.369-27.629 27.628c0 15.258 12.37 27.628 27.629 27.628"/><path fill="#F9FAFA" d="M490.857 336.38a9.44 9.44 0 0 0 9.439-9.439c0-5.213-4.226-9.441-9.439-9.441s-9.441 4.228-9.441 9.441 4.228 9.439 9.441 9.439"/><path fill="#0C4EC0" fill-rule="evenodd" d="M709.261 629.306c3.41-4.595 9.9-5.554 14.494-2.143 7.282 5.406 17.383 3.825 22.596-3.207 3.407-4.597 9.896-5.561 14.493-2.153s5.561 9.896 2.153 14.493c-12.082 16.299-35.187 19.684-51.594 7.504-4.594-3.411-5.553-9.9-2.142-14.494M621.399 637.855c3.494-4.532 10-5.372 14.531-1.878 7.182 5.538 17.311 4.142 22.651-2.794 3.49-4.534 9.996-5.38 14.529-1.889 4.534 3.491 5.38 9.996 1.889 14.53-12.377 16.076-35.541 19.039-51.722 6.562-4.531-3.494-5.372-10-1.878-14.531M533.399 649.855c3.494-4.532 10-5.372 14.531-1.878 7.182 5.538 17.311 4.142 22.651-2.794 3.49-4.534 9.996-5.38 14.529-1.889 4.534 3.491 5.38 9.996 1.889 14.53-12.377 16.076-35.541 19.039-51.722 6.562-4.531-3.494-5.372-10-1.878-14.531M571.399 711.855c3.494-4.532 10-5.372 14.531-1.878 7.182 5.538 17.311 4.142 22.651-2.794 3.49-4.534 9.996-5.38 14.529-1.889 4.534 3.491 5.38 9.996 1.889 14.53-12.377 16.076-35.541 19.039-51.722 6.562-4.531-3.494-5.372-10-1.878-14.531M665.399 695.855c3.494-4.532 10-5.372 14.531-1.878 7.182 5.538 17.311 4.142 22.651-2.794 3.49-4.534 9.996-5.38 14.529-1.889 4.534 3.491 5.38 9.996 1.889 14.53-12.377 16.076-35.541 19.039-51.722 6.562-4.531-3.494-5.372-10-1.878-14.531M628.399 768.855c3.494-4.532 10-5.372 14.531-1.878 7.182 5.538 17.311 4.142 22.651-2.794 3.49-4.534 9.996-5.38 14.529-1.889 4.534 3.491 5.38 9.996 1.889 14.53-12.377 16.076-35.541 19.039-51.722 6.562-4.531-3.494-5.372-10-1.878-14.531" clip-rule="evenodd"/><path fill="url(#d)" d="M276.738 488.794c0 2.533-1.382 5.065-3.685 6.907-6.446 5.526-12.892 11.513-19.338 17.039-4.605 3.914-6.447 8.747-6.217 14.733s.23 12.204 0 18.19c-.23 5.525 1.612 10.13 5.756 13.814 6.447 5.756 12.893 11.742 19.57 17.267 4.374 3.684 5.295 8.288 2.302 13.354a3454 3454 0 0 1-23.253 38.91c-2.532 4.144-5.297 5.295-9.901 3.683-8.289-2.763-16.576-5.756-25.095-8.519-5.295-1.842-10.59-1.61-15.655 1.383-5.526 3.223-11.052 6.445-16.578 9.438q-7.943 4.145-9.67 13.124c-1.612 8.749-3.453 17.268-5.295 25.787-.921 4.605-2.994 6.214-7.829 6.214h-46.966c-4.835 0-6.678-1.609-7.829-6.214-1.842-8.519-3.683-17.039-5.295-25.558-1.151-6.676-4.836-10.82-10.592-14.043a277 277 0 0 1-15.885-8.98c-4.835-2.993-10.132-2.992-15.197-1.38-8.058 2.532-16.116 5.525-24.175 8.058-5.986 2.072-8.288 1.151-11.511-4.144-7.368-12.203-14.505-24.406-21.873-36.608-.69-1.151-1.38-2.533-1.841-3.915-1.382-4.144-.23-7.597 2.992-10.59 6.447-5.756 12.895-11.512 19.341-17.038 4.375-3.914 6.677-8.748 6.446-14.734s-.23-12.203 0-18.189c.23-5.756-1.84-10.36-5.985-14.043L4.14 495.472c-4.145-3.684-5.525-8.059-2.532-13.124 7.828-13.354 15.885-26.708 23.943-40.062 1.842-2.993 5.067-4.144 8.75-2.763l24.865 8.29c5.987 2.072 11.742 1.842 17.497-1.842 4.605-2.993 9.44-5.525 14.275-8.058 5.986-2.993 9.9-7.599 11.051-14.506 1.382-8.519 3.453-16.808 5.295-25.326.921-4.605 2.994-6.215 7.829-6.215h46.969c4.605 0 6.675 1.611 7.827 6.446 1.841 8.519 3.683 17.037 5.294 25.556 1.152 6.676 4.837 10.821 10.593 13.814a276 276 0 0 1 15.884 8.98c4.835 2.993 10.132 2.992 15.197 1.38 8.519-2.532 16.806-5.526 25.095-8.519 4.835-1.612 7.598-.459 10.131 3.685 7.367 12.433 14.966 24.866 22.333 37.299 1.151 2.993 2.302 5.064 2.302 8.287m-185.8 47.428c-.23 27.167 20.262 48.35 46.969 48.581 27.398.23 48.35-20.491 48.35-47.889.23-27.398-20.261-48.581-47.199-48.581-27.167-.23-48.12 20.491-48.12 47.889"/><path fill="#0C4EC0" fill-rule="evenodd" d="M337.51 443.514c-5.643 0-10.218 4.574-10.218 10.217 0 5.638 4.566 10.209 10.202 10.218h.035l.225.003q.329.005 1.043.029c.949.035 2.392.105 4.259.249 3.737.289 9.151.873 15.68 2.051 13.102 2.363 30.448 7.071 47.714 16.394 17.211 9.293 34.262 23.12 47.099 43.788 12.821 20.641 21.795 48.672 22.013 86.949v.002c.319 54.226-26.803 98.463-54.905 129.648-10.704 11.878-21.433 21.728-30.6 29.36 6.185-21.887 10.971-45.066 14.553-69.245.827-5.582-3.028-10.778-8.61-11.605s-10.778 3.028-11.605 8.61c-5.065 34.189-12.529 65.752-22.787 94.063a10.3 10.3 0 0 0-1.525 4.13c-11.327 30.102-25.907 56.407-44.234 78.136-16.694 19.792-37.012 25.617-53.519 26.528a91 91 0 0 1-14.386-.368 222 222 0 0 0 4.256-7.024c16.669-28.672 35.441-75.037 45.478-146.912.781-5.589-3.117-10.752-8.706-11.533s-10.752 3.118-11.533 8.706a586 586 0 0 1-4.438 27.203H273l-65.053 146.258c-5.001 3.667-11.093 5.624-17.48 5.302-15.114-.84-26.81-13.818-25.99-28.746.309-5.634-4.007-10.453-9.642-10.763-5.634-.309-10.453 4.008-10.763 9.642-1.45 26.392 19.089 48.833 45.291 50.272l.018.001.019.001c11.311.58 22.006-2.908 30.621-9.222l.008-.006.08-.059.216-.162q.255-.192.655-.511a55 55 0 0 0 2.138-1.808c1.772-1.57 4.206-3.889 7.128-7.082a134 134 0 0 0 4.342-4.993c1.039.22 2.178.444 3.408.662 6.347 1.125 15.235 2.11 25.459 1.546 20.561-1.134 46.79-8.592 68.015-33.757 19.912-23.608 35.49-51.763 47.463-83.384q.902-.597 2.016-1.355c3.333-2.268 8.044-5.611 13.674-9.979 11.243-8.723 26.229-21.595 41.215-38.226 29.855-33.13 60.52-82.1 60.159-143.446-.237-41.536-10.024-73.362-25.088-97.615-15.048-24.227-35.008-40.328-54.75-50.988-19.688-10.63-39.24-15.898-53.796-18.523-7.3-1.317-13.406-1.98-17.731-2.314a125 125 0 0 0-5.098-.297 76 76 0 0 0-1.423-.039l-.406-.005-.125-.001h-.058c-.006 0-.012 0-.012 10.217zm158.487 169.782v-.003l-10.218.061zM273 773.111c-10.166 54.06-25.371 89.74-38.466 112.265-3.951 6.795-7.716 12.405-11.104 16.972a10.1 10.1 0 0 0-1.837 2.425 122 122 0 0 1-6.423 7.659c-2.432 2.658-4.357 4.478-5.604 5.583-.625.553-1.08.928-1.346 1.141l-.094.075-.16.124-.015.011-.003.002z" clip-rule="evenodd"/><defs><linearGradient id="a" x1="412.866" x2="711.656" y1="-84.388" y2="806.313" gradientUnits="userSpaceOnUse"><stop offset=".159" stop-color="#0096FA"/><stop offset=".356" stop-color="#0D7FF5"/><stop offset=".56" stop-color="#166EF1"/><stop offset=".713" stop-color="#1968F0"/></linearGradient><linearGradient id="b" x1="627.026" x2="928.744" y1="676.623" y2="751.298" gradientUnits="userSpaceOnUse"><stop stop-color="#1968F0"/><stop offset=".058" stop-color="#2872F1"/><stop offset=".336" stop-color="#6B9EF5"/><stop offset=".569" stop-color="#9CBEF8"/><stop offset=".746" stop-color="#BAD2FA"/><stop offset=".846" stop-color="#C5D9FB"/></linearGradient><linearGradient id="c" x1="72.936" x2="580.649" y1="651.434" y2="510.162" gradientUnits="userSpaceOnUse"><stop stop-color="#1968F0"/><stop offset=".083" stop-color="#2E76F1"/><stop offset=".312" stop-color="#6499F5"/><stop offset=".527" stop-color="#8EB5F7"/><stop offset=".719" stop-color="#ACC9F9"/><stop offset=".884" stop-color="#BED5FB"/><stop offset="1" stop-color="#C5D9FB"/></linearGradient><linearGradient id="d" x1="203.749" x2="54.219" y1="409.618" y2="700.641" gradientUnits="userSpaceOnUse"><stop stop-color="#072F73"/><stop offset=".276" stop-color="#073076"/><stop offset=".488" stop-color="#083480"/><stop offset=".679" stop-color="#093B90"/><stop offset=".856" stop-color="#0A44A7"/><stop offset="1" stop-color="#0C4EC0"/></linearGradient></defs></svg>