<svg xmlns="http://www.w3.org/2000/svg" width="1080" height="1081" viewBox="0 0 1080 1081" fill="none"><g clip-path="url(#a)"><path fill="url(#b)" d="M480.581 629.727H25.042A24.97 24.97 0 0 1 0 604.685V306.911a24.97 24.97 0 0 1 25.042-25.042h455.539a24.97 24.97 0 0 1 25.043 25.042v297.548c0 13.887-11.383 25.268-25.043 25.268"/><path fill="#fff" d="M148.886 455.795h-41.661c-6.374 0-11.383 5.008-11.383 11.383v69.435h64.427v-69.435c0-6.375-5.009-11.383-11.383-11.383"/><path fill="#0096FA" d="M272.502 374.977h-41.663c-6.374 0-11.382 5.008-11.382 11.382v150.025h64.428V386.359c0-6.146-5.008-11.382-11.383-11.382"/><path fill="#fff" d="M407.501 418.459h-64.426v117.925h64.426z"/><path stroke="#0096FA" stroke-miterlimit="10" stroke-width="6.83" d="M74.215 536.612h358.103"/><path fill="url(#c)" d="M844.147 616.977c-71.029 33.466-156.401 5.236-193.281-64.882-37.336-71.256-10.7-159.131 59.646-197.605l254.975-159.133v.227c.911-.455 1.822-1.136 2.732-1.592 22.766-12.065 50.991-3.188 63.061 19.578 9.33 17.757 6.15 38.473-6.37 52.588 0 0 35.51 50.313-.23 112.463-17.3 30.278-53.046 65.564-53.046 65.564s-15.708 118.61-127.487 172.792"/><path stroke="#0C4EC0" stroke-linecap="round" stroke-miterlimit="10" stroke-width="20.489" d="M977.328 199c18.44-9.789 41.202-2.504 50.762 15.936 4.1 7.968 5.24 16.62 3.65 24.815 0 0-12.75 65.338-132.954 142.741"/><path stroke="#0C4EC0" stroke-linecap="round" stroke-miterlimit="10" stroke-width="20.489" d="M1022.4 262.286s40.07 42.571 15.03 95.843c-25.04 53.271-72.85 99.942-135.228 140.92"/><path stroke="#0C4EC0" stroke-linecap="round" stroke-miterlimit="10" stroke-width="20.489" d="M652.686 551.867s62.148 134.09 207.621 67.614c105.632-48.035 120.887-183.49 120.887-183.49"/><path fill="#0C4EC0" d="m375.4 853.738 26.636 102.216c2.96 11.155 15.025 17.303 25.725 12.75 18.895-8.196 46.442-24.587 63.061-56.231L594.861 1019.7c2.732 2.73 7.058 2.73 9.562.23l20.261-19.81c2.731-2.504 2.733-6.83.229-9.562l-33.922-36.196 50.54 26.181c3.187 1.593 7.058.681 8.879-2.506l14.342-23.221c2.049-3.415.911-7.968-2.732-9.789l-50.996-24.586 43.711 2.503c3.642.228 6.83-2.503 7.285-6.145l2.277-25.727 110.186 65.567c3.187 1.821 7.057.91 9.106-2.05l10.472-15.709c2.276-3.187 1.138-7.74-2.277-9.789l-29.822-17.757 43.937 4.553c3.87.456 7.285-2.503 7.512-6.374l.912-17.756c.228-3.643-2.506-6.604-5.92-7.059l-39.385-5.009 32.784-10.015c3.415-1.139 5.464-4.782 4.553-8.197l-4.1-16.163a6.92 6.92 0 0 0-7.968-5.009l-44.619 8.651-269.09-41.661z"/><path fill="url(#d)" d="m853.253 654.539 4.097-240.406h-.456c-.227-137.504-108.136-252.469-247.234-259.299-143.423-7.057-265.674 103.355-272.731 246.778-.228 5.464-.457 11.157-.229 16.621h-.454l.909 11.836c.228 4.098.457 8.197.912 12.294L356.05 663.19h.685c2.504 129.309 104.721 236.308 235.851 242.91 136.822 6.829 253.381-98.575 260.211-235.625.455-5.463.683-10.699.456-15.936"/><path fill="#C5D9FB" d="M529.526 604.226c.455-78.542-60.784-144.106-140.009-148.204-80.363-4.097-148.888 57.142-154.124 137.277l-37.107 298.229h.229c-.228 1.139-.229 2.05-.229 3.188-1.366 25.726 18.441 47.581 44.166 48.947 19.806.91 37.563-10.7 45.076-28.002 0 0 60.556 10.926 101.989-47.354 20.262-28.457 37.337-75.809 37.337-75.809s100.623-64.2 102.672-188.272"/><path stroke="#0C4EC0" stroke-linecap="round" stroke-miterlimit="10" stroke-width="20.489" d="M206.253 900.409c-1.138 20.717 15.026 38.472 35.743 39.611 8.878.455 17.301-2.275 24.131-7.283 0 0 53.955-38.931 73.761-180.76"/><path stroke="#0C4EC0" stroke-linecap="round" stroke-miterlimit="10" stroke-width="20.489" d="M282.746 914.98s55.32 18.441 93.339-26.634 60.099-108.138 71.027-181.899"/><path stroke="#0C4EC0" stroke-linecap="round" stroke-miterlimit="10" stroke-width="20.489" d="M389.974 457.615s147.749 0 148.659 160.042c.683 115.877-115.875 186.905-115.875 186.905"/><path fill="#fff" d="M662.022 302.812s7.969 2.959 23.677-17.53c15.708-20.717 31.188-37.336 56.685-36.881s73.533 62.15 68.98 129.308c-4.781 67.159-42.571 136.14-177.343 132.953-134.773-3.188-241.544-74.899-233.121-170.287s89.013-137.732 139.553-134.317c50.767 3.415 88.786 32.782 104.722 76.947-.228-.227 6.603 19.352 16.847 19.807"/><path fill="#C5D9FB" d="M662.249 399.107s-2.047-48.49 15.483-67.385c17.529-18.896 47.351-42.118 93.565-40.069 0 0 14.342.911 15.025 16.392 0 0 .911 7.286-3.642 13.432 0 0 22.994 7.057 22.083 24.587-.91 17.529-13.431 18.896-22.765 19.806l-4.553 43.255s-3.872 57.596-54.867 56.685-58.052-34.603-60.329-66.703M494.691 249.313s-5.008-16.847 9.562-23.222c14.57-6.374 50.541.683 82.412 28.002s39.611 55.549 39.611 55.549 15.026 89.923-45.075 133.405c0 0-21.401 10.017-39.613 8.651-18.213-1.366-71.483-15.707-71.483-58.506s8.65-85.144 8.65-85.144-26.18-7.513-14.797-40.523c-.228 0 8.423-20.261 30.733-18.212"/><path fill="#1F1F1F" d="M597.138 408.216s-1.366 7.057 7.512 16.391 17.759 27.774 19.58 37.108 1.138 35.742 10.471 36.425 35.514-38.701 38.246-66.703-14.341-46.671-32.781-48.037c-18.668-1.366-38.93 4.099-43.028 24.816"/><path fill="#2A3871" d="M620.816 421.873a8.65 8.65 0 0 0 8.65-8.65 8.652 8.652 0 0 0-17.303 0c0 4.778 3.875 8.65 8.653 8.65"/><path fill="#02041A" d="M714.385 419.37c15.088 0 27.319-12.231 27.319-27.319s-12.231-27.319-27.319-27.319-27.319 12.231-27.319 27.319 12.231 27.319 27.319 27.319"/><path fill="#F9FAFA" d="M703.683 388.407c5.155 0 9.335-4.179 9.335-9.333 0-5.155-4.18-9.336-9.335-9.336s-9.333 4.181-9.333 9.336a9.333 9.333 0 0 0 9.333 9.333"/><path fill="#02041A" d="M552.292 380.9c15.088 0 27.319-12.231 27.319-27.319s-12.231-27.318-27.319-27.318-27.318 12.231-27.318 27.318 12.231 27.319 27.318 27.319"/><path fill="#F9FAFA" d="M541.594 349.938a9.336 9.336 0 0 0 9.335-9.335c0-5.155-4.18-9.333-9.335-9.333a9.33 9.33 0 0 0-9.333 9.333c0 5.155 4.178 9.335 9.333 9.335"/><path fill="#35DE90" d="M395.44 717.827H84.233c-10.017 0-18.213-8.196-18.213-18.213v-69.208c0-10.017 8.196-18.213 18.213-18.213H395.44c10.016 0 18.212 8.196 18.212 18.213v69.208c0 10.017-8.196 18.213-18.212 18.213"/><path fill="#F67979" d="M1068.62 530.694H894.007c-5.919 0-10.7 4.782-10.7 10.701v141.829c0 5.919 4.781 10.7 10.7 10.7h51.45l14.342 20.263 12.977 18.212c4.325 6.147 13.431 6.147 17.756 0l12.978-18.212 14.34-20.263h51.45c5.92 0 10.7-4.781 10.7-10.7V541.395c-.45-5.919-5.24-10.701-11.38-10.701"/><path fill="#fff" d="M1032.65 604.453c-.46-12.976-11.16-23.903-24.14-24.586-14.338-.911-26.177 10.017-27.088 23.904h-.226c-.911-14.57-13.888-25.725-28.913-23.904-11.155 1.366-20.262 10.244-22.083 21.172-1.594 9.561 2.276 18.212 8.65 23.904l34.833 30.277c4.326 3.643 10.699 3.643 15.025 0l35.512-30.733c5.47-4.781 8.65-11.838 8.43-20.034"/><path stroke="#fff" stroke-miterlimit="10" stroke-width="9.106" d="M107.684 665.012H373.13"/><path fill="#072F73" d="M105.629 665.01v-22.993c0-6.374 6.83-10.245 12.294-7.058l20.034 11.612 20.033 11.609c5.464 3.187 5.464 10.928 0 14.115l-20.033 11.61-20.034 11.612c-5.464 3.187-12.294-.685-12.294-7.059z"/><path fill="#0C4EC0" fill-rule="evenodd" d="M757.261 633.305c3.41-4.595 9.9-5.554 14.494-2.143 7.282 5.406 17.383 3.825 22.596-3.207 3.407-4.596 9.896-5.561 14.493-2.153s5.561 9.896 2.153 14.493c-12.082 16.299-35.187 19.684-51.594 7.504-4.594-3.411-5.553-9.9-2.142-14.494M669.399 641.854c3.494-4.532 10-5.372 14.531-1.878 7.182 5.538 17.311 4.142 22.651-2.794 3.49-4.534 9.996-5.38 14.529-1.889 4.534 3.491 5.38 9.996 1.889 14.53-12.377 16.076-35.541 19.039-51.722 6.562-4.531-3.494-5.372-10-1.878-14.531M581.399 653.854c3.494-4.532 10-5.372 14.531-1.878 7.182 5.538 17.311 4.142 22.651-2.794 3.49-4.534 9.996-5.38 14.529-1.889 4.534 3.491 5.38 9.996 1.889 14.53-12.377 16.076-35.541 19.039-51.722 6.562-4.531-3.494-5.372-10-1.878-14.531M619.399 715.854c3.494-4.532 10-5.372 14.531-1.878 7.182 5.538 17.311 4.142 22.651-2.794 3.49-4.534 9.996-5.38 14.529-1.889 4.534 3.491 5.38 9.996 1.889 14.53-12.377 16.076-35.541 19.039-51.722 6.562-4.531-3.494-5.372-10-1.878-14.531M713.399 699.854c3.494-4.532 10-5.372 14.531-1.878 7.182 5.538 17.311 4.142 22.651-2.794 3.49-4.534 9.996-5.38 14.529-1.889 4.534 3.491 5.38 9.996 1.889 14.53-12.377 16.076-35.541 19.039-51.722 6.562-4.531-3.494-5.372-10-1.878-14.531M676.399 772.854c3.494-4.532 10-5.372 14.531-1.878 7.182 5.538 17.311 4.142 22.651-2.794 3.49-4.534 9.996-5.38 14.529-1.889 4.534 3.491 5.38 9.996 1.889 14.53-12.377 16.076-35.541 19.039-51.722 6.562-4.531-3.494-5.372-10-1.878-14.531" clip-rule="evenodd"/></g><defs><linearGradient id="b" x1="-97.458" x2="518.587" y1="159.669" y2="680.676" gradientUnits="userSpaceOnUse"><stop offset=".159" stop-color="#0096FA"/><stop offset=".356" stop-color="#0D7FF5"/><stop offset=".56" stop-color="#166EF1"/><stop offset=".713" stop-color="#1968F0"/></linearGradient><linearGradient id="c" x1="451.111" x2="1145.23" y1="547.909" y2="331.153" gradientUnits="userSpaceOnUse"><stop stop-color="#1968F0"/><stop offset=".312" stop-color="#6197F5"/><stop offset=".724" stop-color="#C5D9FB"/></linearGradient><linearGradient id="d" x1="128.44" x2="630.463" y1="661.552" y2="521.864" gradientUnits="userSpaceOnUse"><stop stop-color="#1968F0"/><stop offset=".083" stop-color="#2E76F1"/><stop offset=".312" stop-color="#6499F5"/><stop offset=".527" stop-color="#8EB5F7"/><stop offset=".719" stop-color="#ACC9F9"/><stop offset=".884" stop-color="#BED5FB"/><stop offset="1" stop-color="#C5D9FB"/></linearGradient><clipPath id="a"><path fill="#fff" d="M0 .514h1080v1080H0z"/></clipPath></defs></svg>