<svg xmlns="http://www.w3.org/2000/svg" width="1080" height="1080" fill="none"><g filter="url(#a)" opacity=".1"><path fill="#0A0F1A" d="M906 980.5c0 14.636-41.414 26.5-92.5 26.5S721 995.136 721 980.5s41.414-26.5 92.5-26.5 92.5 11.864 92.5 26.5"/></g><path fill="#0A0F1A" d="M453.029 663.661 4.883 824.526l237.411 92.722 402.369-199.929z" opacity=".06"/><path fill="url(#b)" d="m231.609 641.002 5.371 273.059 5.315 3.188 9.103-270.865z"/><path fill="#141414" d="m242.297 917.249 9.103-4.257L268.864 641.8l-17.464 4.584zM11.98 828l8.502-3.976 16.31-253.277-16.31 4.281zM2 570l5.015 255.021 4.965 2.976 8.502-252.971zM627.288 536.622l4.715 181.624 4.672 2.805 7.99-179.714z"/><path fill="#141414" d="m636.675 721.052 7.99-3.733L657.38 539.7l-15.346 4.028zM438.59 513.581l3.918 150.855 3.886 2.325 6.636-149.262z"/><path fill="#141414" d="m446.393 666.76 6.636-3.1 10.555-147.515-12.738 3.34z"/><path fill="#666" d="M.038 566.541v11.526l252.626 68.721v-16.122z"/><path fill="#A3A3A3" d="M252.666 629.989v16.799l410.019-108.233.35-9.092z"/><path fill="#072F73" d="m475.527 309.243-217.109-27.08a12.931 12.931 0 0 0-14.528 12.826v171.768l242.956-7.073V322.068c0-3.149-1.15-6.191-3.234-8.553a12.93 12.93 0 0 0-8.085-4.272"/><path fill="#1967F1" d="M380.001 489.842s-15.892 44.675-11.701 47.185c4.192 2.511 18.37 4.115 29.045 6.855a2.62 2.62 0 0 1 1.45.924 2.624 2.624 0 0 1 0 3.248 2.62 2.62 0 0 1-1.45.925l-75.106 17.9a8.73 8.73 0 0 1-6.298-.862l-9.769-5.457a15.993 15.993 0 0 1-6.298-21.503l30.704-47.643z"/><path fill="#DEE8EC" d="m330.556 491.413-22.605 44.271c-4.104 7.64-1.659 14.942 5.949 19.199l9.769 5.457a8.73 8.73 0 0 0 6.298.874l69.375-14.19-1.997 1.954-78.719 17.988s-12.454-6.407-17.868-11.384-1.462-15.281-1.462-15.281l31.282-48.845z"/><path fill="#F5F8F9" d="M480.472 459.869V328.584a11.865 11.865 0 0 0-10.598-11.646l-203.335-24.592a12 12 0 0 0-9.413 2.776 12.02 12.02 0 0 0-4.198 8.871v162.501z"/><path fill="#1967F1" d="M243.89 466.757v24.275a12.92 12.92 0 0 0 13.655 12.902l217.109-12.138a12.92 12.92 0 0 0 12.192-12.868v-19.243z"/><path fill="#D2DFE6" d="m368.33 594.974.316-7.51-21.895-15.466-.011 7.553z"/><path fill="#DEE8EC" d="M458.159 558.747v7.466l-89.83 28.761.317-7.51z"/><path fill="#E7EEF1" d="m370.612 587.518 86.228-26.763a1.85 1.85 0 0 0 1.265-1.479 1.85 1.85 0 0 0-.752-1.796l-17.41-12.115a3.5 3.5 0 0 0-2.99-.502l-88.815 25.006a1.954 1.954 0 0 0-.59 3.482l19.429 13.632a4.21 4.21 0 0 0 3.635.535"/><path fill="#DAA076" d="M520.681 530.642a15.3 15.3 0 0 0-5.064-.23 17.06 17.06 0 0 0-12.247 7.455l-.24.382c-.098.175-.175.339-.262.513-2.63 5.196-.458 10.38 5.01 12.192l.371.098.71.208c6.45 1.495 14.298-1.91 17.54-7.641s.622-11.471-5.818-12.977M261.734 598.126a54.4 54.4 0 0 0-7.826-.152c-3.801.186-7.463.726-10.731 1.583-3.267.858-6.063 2.011-8.192 3.38l-.371.255c-.152.116-.27.225-.405.341-4.065 3.459-.709 6.911 7.741 8.118l.574.065 1.096.138c9.968.996 22.094-1.272 27.103-5.087s.962-7.638-8.989-8.641" opacity=".2"/><path fill="#E7EEF1" d="M517.505 514.203a17.5 17.5 0 0 0-2.019-3.274 16 16 0 0 0-1.026-1.212c-3.416-3.623-8.066-5.152-12.006-3.569a4 4 0 0 0-.382.153c-.164.076-.306.164-.459.251-4.661 2.521-6.32 9.125-3.94 15.434l.174.404q.142.393.328.785c3.165 6.855 10.064 10.413 15.39 7.947s7.117-10.064 3.94-16.919"/><path fill="#DEE8EC" d="M511.117 521.386a13.8 13.8 0 0 0 2.783-2.619 10.5 10.5 0 0 0 1.714-3.482 8.36 8.36 0 0 0 .076-3.853c-.065-.197-.142-.36-.207-.546a16 16 0 0 0-1.026-1.211c.142.622.262 1.244.349 1.866a8.55 8.55 0 0 1-.448 3.274 10.3 10.3 0 0 1-1.68 2.904q-.553.637-1.179 1.2a9.9 9.9 0 0 0-.448-3.656 14.9 14.9 0 0 0-2.357-4.366 17 17 0 0 0-3.559-3.351 15 15 0 0 0-2.652-1.463q-.195.067-.382.153c-.164.077-.306.164-.458.251a33.3 33.3 0 0 1 5.599 5.545 23.7 23.7 0 0 1 2.521 3.897 16.3 16.3 0 0 1 1.092 3.503c-.24.186-.47.393-.721.568a15.16 15.16 0 0 1-12.377 1.943l.174.404a12 12 0 0 0 6.189 1.342 13.8 13.8 0 0 0 6.997-2.303"/><path fill="#0096FA" d="M580.076 267.152v41.717a2.99 2.99 0 0 1-3.22 2.969l-103.845-8.623a2.98 2.98 0 0 1-2.728-2.958v-46.279a2.975 2.975 0 0 1 2.102-2.843c.404-.123.83-.159 1.249-.104l103.844 13.174a2.97 2.97 0 0 1 2.598 2.947" opacity=".2"/><path fill="#0096FA" d="M604.097 258.268v41.717a2.96 2.96 0 0 1-.956 2.193 2.98 2.98 0 0 1-2.263.775l-103.834-8.622a2.98 2.98 0 0 1-2.729-2.958v-46.28a2.98 2.98 0 0 1 1.008-2.232 2.96 2.96 0 0 1 2.343-.715L601.5 255.321a2.97 2.97 0 0 1 2.597 2.947" opacity=".4"/><path fill="#0096FA" d="M587.169 378.3v23.674a1.83 1.83 0 0 1-1.779 1.834l-70.085 1.888a1.81 1.81 0 0 1-1.324-.514 1.82 1.82 0 0 1-.553-1.309v-28.018a1.814 1.814 0 0 1 .557-1.313c.176-.17.385-.303.613-.391.229-.087.473-.128.718-.119l70.096 2.423a1.823 1.823 0 0 1 1.757 1.845" opacity=".2"/><path fill="#0096FA" d="M603.597 370.265v23.675a1.813 1.813 0 0 1-1.779 1.823l-70.085 1.921a1.847 1.847 0 0 1-1.733-1.122 1.8 1.8 0 0 1-.144-.712v-28.019a1.82 1.82 0 0 1 1.888-1.822l70.085 2.434a1.834 1.834 0 0 1 1.768 1.822" opacity=".4"/><path fill="#0096FA" d="M471.287 418.968v30.976a2.4 2.4 0 0 1-2.325 2.391l-91.685 2.466a2.36 2.36 0 0 1-1.732-.669 2.383 2.383 0 0 1-.724-1.71V415.78a2.39 2.39 0 0 1 1.538-2.224c.3-.114.619-.167.939-.155l91.686 3.176a2.39 2.39 0 0 1 2.303 2.391" opacity=".2"/><path fill="#0096FA" d="M485.212 406.022v30.955a2.38 2.38 0 0 1-2.325 2.38l-91.686 2.477a2.385 2.385 0 0 1-2.455-2.379v-36.62a2.39 2.39 0 0 1 1.538-2.224c.3-.114.619-.167.939-.155l91.686 3.176a2.39 2.39 0 0 1 2.303 2.39" opacity=".4"/><path fill="#0096FA" d="M384.15 324.979v34.927a5.3 5.3 0 0 1-.421 2.064 5.3 5.3 0 0 1-2.961 2.879 5.3 5.3 0 0 1-2.075.362l-93.978-3.547a5.306 5.306 0 0 1-5.108-5.305v-38.595a5.303 5.303 0 0 1 5.708-5.294l93.967 7.215a5.3 5.3 0 0 1 4.868 5.294" opacity=".2"/><path fill="#0096FA" d="M400.131 315.701v34.928a5.32 5.32 0 0 1-1.627 3.826 5.298 5.298 0 0 1-3.885 1.479l-93.956-3.493a5.307 5.307 0 0 1-5.108-5.305v-38.649a5.31 5.31 0 0 1 3.558-5.01 5.3 5.3 0 0 1 2.15-.284l93.956 7.171a5.316 5.316 0 0 1 4.912 5.337" opacity=".4"/><path fill="#fff" d="M429.968 167.992s-40.047 38.278-40.047 86.839c0 0-64.933 14.397-77.976 23.391 0 0-8.503-61.67 28.706-104.915zM632.699 247.737s0 63.798-38.988 102.786l70.456 49.412s32.33-25.53 47.207-103.288z"/><path fill="#072F73" d="M204.551 475.987c3.056 2.991 3.591 9.769-3.787 21.83-4.366 7.073-19.331 17.933-26.786 14.091-7.847-4.049-7.968-25.792 13.764-32.57 16.951-5.315 13.513-6.571 16.809-3.351"/><path fill="#35DE90" d="M140.175 448.591s-18.883-31.337-21.284-43.114c-2.009-9.823.971-26.458 6.549-39.545a3.68 3.68 0 0 1 5.763-1.353 51.1 51.1 0 0 1 17.911 36.216c1.55 26.829 4.661 41.018 4.661 41.018l-7.641 16.874zM139.136 452.399s-23.401-28.051-33.77-34.218c-8.634-5.108-25.323-7.728-39.502-6.789a3.68 3.68 0 0 0-2.85 1.704 3.69 3.69 0 0 0-.326 3.306 51.2 51.2 0 0 0 28.379 28.783c24.799 10.216 37.22 17.856 37.22 17.856l18.435-1.67z"/><path fill="#35DE90" d="M151.671 456.711s-15.118-33.323-16.122-45.297c-.851-9.998 4.05-26.196 11.079-38.519a3.68 3.68 0 0 1 4.463-1.621 3.7 3.7 0 0 1 1.42.945 51.13 51.13 0 0 1 13.567 38.06c-1.593 26.774-.109 41.28-.109 41.28l-9.529 15.871z"/><path fill="#35DE90" d="M146.55 460.728s-31.195-19.112-42.961-21.601c-9.824-2.074-26.458.786-39.589 6.233a3.67 3.67 0 0 0-2.15 2.523 3.68 3.68 0 0 0 .753 3.229 51.18 51.18 0 0 0 36.085 18.184c26.763 1.725 40.974 4.988 40.974 4.988l16.93-7.487z"/><path fill="#10603B" d="M137.687 457.947s-28.237-23.26-34.414-33.596c-5.152-8.601-7.87-25.279-7.008-39.458a3.69 3.69 0 0 1 1.69-2.854 3.69 3.69 0 0 1 3.298-.344 51.12 51.12 0 0 1 28.947 28.193c10.347 24.744 18.064 37.111 18.064 37.111l-1.572 18.446z"/><path fill="#0096FA" d="M175.934 436.802c-9.616.819-38.813 6.036-47.229 39.054a8.34 8.34 0 0 0 3.569 9.059l41.706 26.96s-6.374-29.47 30.562-35.888l-23.915-36.871a5.08 5.08 0 0 0-4.693-2.314"/><path fill="#072F73" d="M643.475 516.034c-2.183 2.303-7.269 2.74-16.307-2.685-5.304-3.187-13.512-14.309-10.686-19.898 2.969-5.894 19.189-6.123 24.395 10.053 4.061 12.618 5.01 10.053 2.598 12.53"/><path fill="#10603B" d="M667.478 445.928a.58.58 0 0 1-.437-.088l-1.506-.949a.59.59 0 0 1 .432-1.068.6.6 0 0 1 .212.085l1.463.961a.59.59 0 0 1-.208 1.091"/><path fill="#10603B" d="m662.131 456.538-1.463-.95 8.284-12.661 1.463.949z"/><path fill="#35DE90" d="m653.69 452.411-11.483 17.53a2.33 2.33 0 0 0 3.897 2.554l11.483-17.53zM658.558 455.598l-5.84-3.831 7.335-11.199 5.84 3.832z"/><path fill="#10603B" d="m665.896 444.399-5.84-3.831 1.594-2.434 5.85 3.831z"/><path fill="#AD0B0B" d="M679.898 456.297a.6.6 0 0 1-.404-.174l-1.233-1.245a.57.57 0 0 1-.17-.409.58.58 0 0 1 .17-.409.585.585 0 0 1 .829 0l1.223 1.244a.6.6 0 0 1 .169.409.58.58 0 0 1-.169.41.551.551 0 0 1-.415.174"/><path fill="#AD0B0B" d="m672.456 465.554-1.234-1.234 10.751-10.653 1.223 1.234z"/><path fill="#E60F0F" d="m665.066 459.756-14.888 14.757a2.334 2.334 0 0 0 1.7 3.751 2.34 2.34 0 0 0 1.574-.476l14.888-14.67z"/><path fill="#E60F0F" d="m669.167 463.893-4.922-4.955 9.507-9.431 4.922 4.967z"/><path fill="#AD0B0B" d="m678.678 454.474-4.923-4.966 2.074-2.052 4.912 4.966z"/><path fill="#0C4EC0" d="M696.97 484.794a.542.542 0 0 1-.317-.316l-.677-1.605a.6.6 0 0 1-.002-.453.59.59 0 0 1 .772-.324.6.6 0 0 1 .322.319l.677 1.615a.59.59 0 0 1-.317.764.6.6 0 0 1-.437 0"/><path fill="#0C4EC0" d="m686.589 490.593-.676-1.604 13.96-5.851.677 1.605z"/><path fill="#1967F1" d="m681.907 482.46-19.32 8.099a2.337 2.337 0 0 0 .083 4.226 2.34 2.34 0 0 0 1.718.074l19.32-8.109zM684.164 487.821l-2.706-6.44 12.344-5.174 2.707 6.44z"/><path fill="#0C4EC0" d="m696.509 482.646-2.707-6.44 2.685-1.124 2.707 6.439zM672.619 495.393c-.403-6.069-3.787-31.271-32.341-36.587a2.54 2.54 0 0 0-2.575 1.146l-21.219 33.498s21.983-4.966 26.993 22.583l28.127-18.61a2.25 2.25 0 0 0 1.015-2.03"/><path fill="#FBCF23" d="m717.261 450.468-19.32 8.11a2.33 2.33 0 0 0-1.244 3.045 2.323 2.323 0 0 0 3.045 1.245l19.32-8.099z"/><path fill="#A08103" d="M732.312 452.815a.68.68 0 0 1-.316-.316l-.677-1.616a.59.59 0 0 1 .322-.769.587.587 0 0 1 .769.322l.677 1.615a.59.59 0 0 1-.132.633.59.59 0 0 1-.632.131"/><path fill="#A08103" d="m721.931 458.612-.666-1.616 13.949-5.85.677 1.615z"/><path fill="#FBCF23" d="m719.51 455.839-2.697-6.44 12.345-5.173 2.696 6.439z"/><path fill="#A08103" d="m731.865 450.664-2.707-6.439 2.685-1.136 2.707 6.451z"/><path fill="#E0E0E0" d="M790.585 871.681s-63.787 0-102.775-38.989l-49.423 70.467s25.53 32.33 103.288 47.218z" opacity=".5"/><path fill="#fff" d="M789.241 861.462s-63.798 0-102.786-38.988l-49.412 70.456s25.53 32.33 103.288 47.218z"/><path fill="#E0E0E0" d="M523.249 913.223s-48.025-31.653-58.034-80.29L393.1 861.464s3.198 36.991 54.345 86.741z" opacity=".5"/><path fill="#fff" d="M530.378 902.405s-48.026-31.653-58.046-80.28l-72.071 28.532s3.198 36.991 54.345 86.73z"/><path fill="#F5F5F5" d="m290.822 264.808 466.461-165.94a14.952 14.952 0 0 1 18.555 20.475 14.95 14.95 0 0 1-8.481 7.686l-.687.229-474.014 143.106a2.927 2.927 0 0 1-1.834-5.556M258.504 261.402l234.671-121.341a7.82 7.82 0 0 1 10.533 3.351 7.8 7.8 0 0 1 .506 5.96 7.818 7.818 0 0 1-3.857 4.573l-.327.163-240.216 110.045a1.53 1.53 0 1 1-1.343-2.751zM455.834 349.529l294.703-51.3a8.86 8.86 0 0 1 10.249 7.214 8.86 8.86 0 0 1-7.215 10.249l-.414.066-296.81 37.198a1.737 1.737 0 0 1-1.877-1.471 1.734 1.734 0 0 1 1.364-1.956" opacity=".5"/><path fill="#E8F2FF" d="m906.806 283.331 80.138-17.672a8.885 8.885 0 0 1 6.846 1.043 8.88 8.88 0 0 1 4.071 9.178 8.88 8.88 0 0 1-7.097 7.101 11 11 0 0 1-1.2.175l-81.797 6.549a3.274 3.274 0 0 1-.961-6.385zM861.38 416.022l57.368-4.443a6.22 6.22 0 0 1 4.651 1.394 6.22 6.22 0 0 1 2.233 4.31 6.21 6.21 0 0 1-1.543 4.603 6.22 6.22 0 0 1-4.38 2.093 8 8 0 0 1-.851 0l-57.446-3.438a2.27 2.27 0 0 1-1.502-.717 2.265 2.265 0 0 1 0-3.097c.392-.42.929-.676 1.502-.716z" opacity=".5"/><path fill="#F5F5F5" d="m463.518 368.686 211.291-16.143a6.26 6.26 0 0 1 6.07 3.414 6.3 6.3 0 0 1 .66 2.354 6.28 6.28 0 0 1-1.491 4.56 6.28 6.28 0 0 1-4.278 2.169h-.295l-211.826 6.069a1.224 1.224 0 1 1-.131-2.445z" opacity=".5"/><path fill="#FF7B80" d="M302.883 565.765c.128.258.195.542.196.83a2 2 0 0 1-.567 1.364 2.1 2.1 0 0 1-1.299.709 1.32 1.32 0 0 1-.895-.141 1.46 1.46 0 0 1-.644-.743l-.961-2.183-6.92.972-.982 2.467a2.3 2.3 0 0 1-.655.927 1.75 1.75 0 0 1-.917.393 1.63 1.63 0 0 1-1.31-.338 1.42 1.42 0 0 1-.578-1.212c0-.302.067-.6.196-.873l5.654-13.294a2.58 2.58 0 0 1 2.03-1.594 2.13 2.13 0 0 1 1.201.164c.368.176.664.473.84.84zm-9.758-2.565 4.278-.611-2.128-4.835-2.183 5.457"/><path fill="#FF7B80" d="M310.533 550.2v23.019a4.92 4.92 0 0 1-3.963 4.846l-22.746 3.188a3.52 3.52 0 0 1-3.962-3.722l.054-29.372a4.95 4.95 0 0 1 3.973-4.847l17.868-2.51q.163-.026.327 0c.134.01.264.047.382.109a1.1 1.1 0 0 1 .339.251l7.389 8.317.197.317q.1.191.142.404m-2.86 23.423v-21.306l-4.017.48a2.92 2.92 0 0 1-3.018-1.82 2.9 2.9 0 0 1-.202-1.236l-.098-5.676-16.471 2.314a1.415 1.415 0 0 0-1.146 1.387v29.361a1.02 1.02 0 0 0 .294.797 1.02 1.02 0 0 0 .798.294l22.725-3.241a1.41 1.41 0 0 0 1.091-1.398zm-1.703-24.198-2.761-3.1v2.925a.41.41 0 0 0 .139.329.43.43 0 0 0 .341.108l2.237-.262"/><path fill="#A3A3A3" d="M679.669 350.879h.295a22.6 22.6 0 0 1 4.672-.109c.746.077 1.48.249 2.183.513a.99.99 0 0 1 .515.587 1 1 0 0 1-.068.778 1.197 1.197 0 0 1-.895.731 1 1 0 0 1-.437 0 6.1 6.1 0 0 0-1.724-.393 19.4 19.4 0 0 0-4.257.087h-.218a12.5 12.5 0 0 0-5.883 2.183c-2.784 2.183-3.144 6.102-3.1 8.23.043 2.129.458 5.196 2.303 7.062 1.484 1.496 4.846 1.976 7.269 1.659a1.09 1.09 0 0 1 1.144.697c.057.15.08.311.068.471v1.517c.884-.938 1.899-2.03 2.892-3.143l.611-.688.219-.24a1.1 1.1 0 0 1 .676-.371.82.82 0 0 1 .732.251 1.16 1.16 0 0 1-.077 1.517l-.229.251-.6.666a160 160 0 0 1-3.842 4.137c-.219.236-.504.4-.819.469h-.12a1.29 1.29 0 0 1-1.05-.358 1.3 1.3 0 0 1-.391-1.039v-2.107c-2.717.186-6.145-.403-7.935-2.183-2.281-2.292-2.805-5.839-2.849-8.404-.076-4.464 1.365-8.099 4.05-10.227a14.6 14.6 0 0 1 6.865-2.544"/><path fill="#A3A3A3" d="M688.498 355.313a1.1 1.1 0 0 1 .916.316l4.028 4.257v1.332l-.055.098v.054l-.065.088v.065l-4.148 5.316a1.34 1.34 0 0 1-.884.546 1.1 1.1 0 0 1-.862-.241 1.385 1.385 0 0 1 0-1.888l2.183-2.816-8.012 1.037a1.1 1.1 0 0 1-.897-.301 1.08 1.08 0 0 1-.325-.889 1.55 1.55 0 0 1 1.244-1.495l8.023-1.026-2.183-2.259a1.44 1.44 0 0 1 .087-1.9c.269-.213.607-.318.95-.294"/><path fill="#A3A3A3" d="M667.834 213.177a1.21 1.21 0 0 1 0 1.627 7.64 7.64 0 0 1-4.267 2.641q-.323.024-.644 0a4.1 4.1 0 0 1-2.183-.687c.196-.295.393-.601.589-.939.197-.338.448-.742.699-1.092.363.241.786.377 1.222.393h.339a5.4 5.4 0 0 0 2.761-1.735c.185-.242.453-.406.753-.459a.94.94 0 0 1 .731.251" opacity=".8"/><path fill="#A3A3A3" d="M668.455 207.25a1.31 1.31 0 0 1-.48 1.605 26.1 26.1 0 0 0-5.993 5.915 5 5 0 0 1-1.419-1.56 28.5 28.5 0 0 1 6.473-6.287c.14-.098.301-.162.469-.186a.89.89 0 0 1 .95.513" opacity=".5"/><path fill="#A3A3A3" d="M660.566 213.21c.356.616.84 1.148 1.419 1.561-.252.35-.481.721-.699 1.092s-.393.644-.589.938a6.1 6.1 0 0 1-1.496-1.462l.317-.524a18 18 0 0 1 1.048-1.605" opacity=".9"/><path fill="#A3A3A3" d="M659.201 215.338c.41.57.916 1.065 1.495 1.463a6.38 6.38 0 0 1-3.274 2.827 1.8 1.8 0 0 1-.382.076h-.197a2.03 2.03 0 0 1-1.419-.403 4.71 4.71 0 0 0-3.733-1.332 4.36 4.36 0 0 0-2.652 1.539 2 2 0 0 1-.284.262q.199-.153.339-.36a29 29 0 0 1 3.1-3.81 6.454 6.454 0 0 1 4.628 1.758.5.5 0 0 0 .229 0c.414-.011 1.157-.415 2.15-2.02" opacity=".5"/><path fill="#A3A3A3" d="M648.286 219.986c.182-.025.354-.096.5-.206a1.1 1.1 0 0 1-.489.196z"/><path fill="#A3A3A3" d="M648.993 216.822a6.4 6.4 0 0 1 2.805-1.157h.426a29 29 0 0 0-3.1 3.809q-.136.207-.338.35z" opacity=".9"/><path fill="#A3A3A3" d="M656.744 210.449a3.716 3.716 0 0 1 3.536 2.259l.284.502a18 18 0 0 0-1.091 1.605l-.317.524a9 9 0 0 1-.797-1.256c-.491-.916-1.091-1.353-1.844-1.309h-.186c-1.211.163-2.739 1.375-4.148 2.827h-.425a6.37 6.37 0 0 0-2.805 1.157l.054-.732c1.747-2.183 4.628-5.228 7.324-5.61h.328z" opacity=".8"/><path fill="#A3A3A3" d="M647.457 218.231c.163-.24.753-1.092 1.593-2.183l-.054.731a8.7 8.7 0 0 0-1.474 1.321 1 1 0 0 1-.076.109z"/><path fill="#A3A3A3" d="M647.52 218.143c-.119.16-.204.342-.251.535a1.09 1.09 0 0 0 .36 1.157q.128.083.273.131h.382c.182-.026.355-.097.502-.207l.207-2.958a8.6 8.6 0 0 0-1.473 1.342"/><path fill="#A3A3A3" d="M647.269 218.678a1.1 1.1 0 0 0 .284 1.091.86.86 0 0 0 .349.197 1.3 1.3 0 0 1-.273-.131 1.1 1.1 0 0 1-.36-1.157M647.292 218.58"/><path fill="#A3A3A3" d="M649.146 201.77a.771.771 0 0 1 .819.527.8.8 0 0 1 .033.346l-.95 13.448c-.84 1.091-1.43 1.899-1.594 2.183a1.4 1.4 0 0 0-.185.447 1.09 1.09 0 0 0 .284 1.092.86.86 0 0 0 .349.196h.393c.177-.024.346-.092.491-.196l-.327 4.584 19.647-1.168a.77.77 0 0 1 .597.252.76.76 0 0 1 .188.621 1.09 1.09 0 0 1-.851.972l-20.596 1.233a.77.77 0 0 1-.598-.26.77.77 0 0 1-.188-.624l1.637-22.671a1.09 1.09 0 0 1 .851-.982M177.746 235.747h.152l5.458-.251a1.65 1.65 0 0 1 1.291.566 1.673 1.673 0 0 1 .39 1.355l-.491 5.981a2.31 2.31 0 0 1-1.834 2.085h-.164l-5.457.251a1.65 1.65 0 0 1-1.284-.57 1.7 1.7 0 0 1-.343-.633 1.64 1.64 0 0 1-.043-.718l.491-5.992a2.28 2.28 0 0 1 1.834-2.074"/><path fill="#A3A3A3" d="M205.731 214.769c4.836-.218 8.438 3.897 8.001 9.19l-2.183 27.157c-.415 5.01-4.279 9.299-8.808 9.932-.262 0-.513.066-.786.077l-26.731 1.233c-4.846.229-8.437-3.897-8.001-9.19l2.183-27.157c.404-5.01 4.279-9.299 8.809-9.932.262 0 .513-.066.775-.077h.393l.207-2.543a2.25 2.25 0 0 1 1.834-2.063h.163a1.67 1.67 0 0 1 1.284.571 1.644 1.644 0 0 1 .386 1.35l-.207 2.533 17.901-.83.207-2.532a2.28 2.28 0 0 1 1.845-2.074h.152a1.665 1.665 0 0 1 1.637 1.209c.068.235.083.482.044.723l-.218 2.521zm2.118 36.51 1.79-21.939-36.98 1.714-1.801 21.983c-.262 3.089 1.834 5.457 4.672 5.359l26.73-1.233h.448a6.411 6.411 0 0 0 5.141-5.796zm2.183-27.058c.251-3.089-1.845-5.457-4.672-5.359h-1.091l-.219 2.521a2.29 2.29 0 0 1-1.833 2.085h-.088a1.6 1.6 0 0 1-.707-.139 1.63 1.63 0 0 1-.924-1.062 1.65 1.65 0 0 1-.039-.72l.208-2.532-17.901.84-.207 2.522a2.306 2.306 0 0 1-1.834 2.084h-.163a1.66 1.66 0 0 1-1.284-.57 1.649 1.649 0 0 1-.386-1.351l.196-2.532h-.83a6.38 6.38 0 0 0-5.14 5.796l-.099 1.201 36.991-1.714.098-1.201"/><path fill="#A3A3A3" fill-rule="evenodd" d="M590.332 462.804c.705 3.502.16 7.14-1.539 10.282a24.3 24.3 0 0 1-2.608 3.34c-.175.185-.35.382-.513.578a145 145 0 0 1-3.34 3.657 1.3 1.3 0 0 1-.688.404h-.12a1.1 1.1 0 0 1-1.154-.694 1.1 1.1 0 0 1-.068-.474v-1.889c-2.391.208-5.403-.273-6.997-1.833-2.008-1.987-2.499-5.065-2.554-7.302-.109-3.897 1.091-7.073 3.449-8.962a13.2 13.2 0 0 1 6.222-2.379 20 20 0 0 1 4.093-.131 6.18 6.18 0 0 1 3.889 1.646 6.18 6.18 0 0 1 1.928 3.757m-2.892 9.452a13.1 13.1 0 0 0 1.266-8.874 4.74 4.74 0 0 0-1.501-2.911 4.74 4.74 0 0 0-3.029-1.247 17 17 0 0 0-3.754.131 11.24 11.24 0 0 0-5.36 1.986c-2.434 1.965-2.717 5.458-2.674 7.27s.47 4.562 2.107 6.188c1.321 1.31 4.3 1.692 6.429 1.387a.91.91 0 0 1 .741.244.92.92 0 0 1 .285.727v1.55c.786-.851 1.692-1.834 2.597-2.871l.524-.6a22.3 22.3 0 0 0 2.369-3.002zm-6.778-1.07a.83.83 0 0 1 .742.218c.099.1.177.22.228.351.05.132.073.273.067.414.004.312-.1.617-.295.862-.184.231-.45.384-.742.426a.88.88 0 0 1-.742-.219 1.09 1.09 0 0 1-.295-.775c-.005-.309.1-.611.295-.851.183-.232.449-.384.742-.426m.422-8.558a.95.95 0 0 0-.4.002c-.286.034-.549.17-.743.382a1.09 1.09 0 0 0-.305.797v.152l.502 5.807c.011.154.072.3.175.415a.47.47 0 0 0 .36.098.6.6 0 0 0 .36-.196.82.82 0 0 0 .175-.47l.534-5.948v-.164a.855.855 0 0 0-.294-.709.95.95 0 0 0-.364-.166" clip-rule="evenodd"/><path fill="#A3A3A3" d="M164.189 319.569a.654.654 0 0 1 .691.441.65.65 0 0 1 .03.291.91.91 0 0 1-.742.862.65.65 0 0 1-.53-.188.65.65 0 0 1-.18-.533.905.905 0 0 1 .731-.873"/><path fill="#A3A3A3" d="M165.654 316.907a1.51 1.51 0 0 1 1.216.453 1.51 1.51 0 0 1 .421 1.228l-.109 2.881a2.18 2.18 0 0 1-1.714 2.009h-.065l-2.653.262a1.5 1.5 0 0 1-1.216-.446 1.5 1.5 0 0 1-.421-1.224l.109-2.893a2.106 2.106 0 0 1 1.714-1.997h.065zm-.131 4.715.109-2.87v-.066l-2.663.273v.065l-.109 2.871v.066l2.652-.273.054-.066"/><path fill="#A3A3A3" d="m174.875 315.421-2.522.251c0 .142 0 .317.088.47.138.928.178 1.868.12 2.805l2.565-.262a.82.82 0 0 1 .673.254.82.82 0 0 1 .222.685 1.16 1.16 0 0 1-.939 1.091l-2.783.262c-.192.917-.485 1.81-.873 2.663l3.11-.305a.854.854 0 0 1 .871.562.84.84 0 0 1 .046.365l-.076 2.063c.256.082.496.208.709.371a2.5 2.5 0 0 1 .884 1.856 3.33 3.33 0 0 1-.666 2.183 3.1 3.1 0 0 1-1.833 1.201h-.251a2.329 2.329 0 0 1-2.543-2.336 3.39 3.39 0 0 1 1.811-3.122v-1.026l-3.438.338-1.495 1.572-.426.459c-1.004 1.091-2.03 2.106-2.816 2.892a1.47 1.47 0 0 1-.72.393h-.12a1.1 1.1 0 0 1-.927-.32 1.1 1.1 0 0 1-.296-.935v-1.266a8.73 8.73 0 0 1-4.77-1.212h-.196l-4.29.415v1.037c.432.129.813.388 1.092.742a2.72 2.72 0 0 1 .502 2.041 3.46 3.46 0 0 1-1.026 2.041 2.9 2.9 0 0 1-1.583.797h-.382a2.2 2.2 0 0 1-.973-.221 2.2 2.2 0 0 1-.773-.63 2.73 2.73 0 0 1-.502-2.041 3.36 3.36 0 0 1 1.779-2.576l.076-2.052a1.18 1.18 0 0 1 .939-1.092l3.755-.371a8.7 8.7 0 0 1-.841-2.489l-3.176.317a.87.87 0 0 1-.867-.564.9.9 0 0 1-.05-.364 1.187 1.187 0 0 1 .95-1.091l2.947-.284v-.502c.01-.953.128-1.901.349-2.827l-2.718.262a.83.83 0 0 1-.668-.251.83.83 0 0 1-.227-.677l.066-2.052a1.9 1.9 0 0 1-.71-.382 2.48 2.48 0 0 1-.884-1.856 3.36 3.36 0 0 1 .666-2.183 3.1 3.1 0 0 1 1.823-1.2h.163a2.19 2.19 0 0 1 1.758.48 2.49 2.49 0 0 1 .873 1.845 3.34 3.34 0 0 1-.666 2.183 2.95 2.95 0 0 1-1.091.949v1.092l2.466-.251a7.4 7.4 0 0 1 2.074-2.522 7.5 7.5 0 0 1 1.201-.72l.065-1.801a1.18 1.18 0 0 1 .95-1.091.85.85 0 0 1 .892.556.85.85 0 0 1 .047.371l-.055 1.299q.626-.16 1.266-.251l.099-2.75a1.176 1.176 0 0 1 .949-1.092.8.8 0 0 1 .374.039q.183.062.32.197a.83.83 0 0 1 .245.692l-.098 2.74h1.255v-1.299a1.15 1.15 0 0 1 .949-1.092.88.88 0 0 1 .686.246.87.87 0 0 1 .253.682l-.065 1.714a5.07 5.07 0 0 1 3.121 2.183l2.402-.241.054-1.026a2.476 2.476 0 0 1-1.593-2.794 3.27 3.27 0 0 1 2.63-2.838h.371a2.18 2.18 0 0 1 1.747.863 2.713 2.713 0 0 1 .513 2.041 3.5 3.5 0 0 1-1.026 2.03 3.3 3.3 0 0 1-.765.535l-.076 2.052a1.17 1.17 0 0 1-.971 1.08m-5.534 8.274a10.72 10.72 0 0 0 1.233-6.975 3.675 3.675 0 0 0-3.351-3.34 13.5 13.5 0 0 0-2.969 0l-.567.066a8.2 8.2 0 0 0-3.689 1.309c-1.911 1.441-2.183 4.115-2.238 5.589a7.34 7.34 0 0 0 1.452 4.933c.993 1.092 3.274 1.452 4.966 1.288a1 1 0 0 1 .806.286.98.98 0 0 1 .285.806v.644c.535-.546 1.092-1.146 1.703-1.768l.448-.47a16 16 0 0 0 1.964-2.335zm5.01-14.004a.695.695 0 0 0 .655.84h.109a.937.937 0 0 0 .742-.807.8.8 0 0 0-.142-.601.64.64 0 0 0-.513-.24h-.087a.933.933 0 0 0-.764.808m-20.564 22.037a.78.78 0 0 0-.142-.589.68.68 0 0 0-.502-.251h-.12a.95.95 0 0 0-.73 1.127.8.8 0 0 0 .13.281.66.66 0 0 0 .502.24h.131a.82.82 0 0 0 .436-.218c.157-.162.26-.368.295-.59m20.498-3.427a.96.96 0 0 0-.72.96.67.67 0 0 0 .486.651.7.7 0 0 0 .289.015.92.92 0 0 0 .524-.349c.133-.18.202-.399.196-.622a.77.77 0 0 0-.251-.524.66.66 0 0 0-.436-.153h-.077zM154.3 312.693a.94.94 0 0 0 .196-.623.77.77 0 0 0-.251-.534.7.7 0 0 0-.469-.142h-.087a.84.84 0 0 0-.524.349c-.132.18-.201.399-.197.622a.73.73 0 0 0 .262.524.66.66 0 0 0 .437.142h.109a.82.82 0 0 0 .524-.338"/><path fill="#fff" fill-rule="evenodd" d="M793.694 411.284c2.247-5.531 9.338-7.562 15.623-4.986 6.282 2.575 9.942 8.989 7.67 14.511-.564 1.371-1.365 2.353-2.408 2.958-1.035.599-2.215.773-3.444.698-2.407-.147-5.277-1.274-8.231-2.481-2.954-1.208-5.791-2.416-7.609-3.997-.929-.808-1.648-1.758-1.964-2.911-.318-1.161-.198-2.422.363-3.792m14.961-3.37c-5.699-2.335-11.574-.328-13.344 4.029l-.001.002c-.448 1.096-.489 1.958-.294 2.67.197.72.666 1.394 1.425 2.054 1.557 1.355 4.096 2.461 7.124 3.698s5.614 2.229 7.677 2.355c1.005.061 1.813-.09 2.461-.466.641-.371 1.218-1.015 1.669-2.111 1.788-4.345-1.014-9.894-6.717-12.231" clip-rule="evenodd"/><path fill="#E0E0E0" d="M447.005 514.519a147 147 0 0 0-27.288.677L1.129 565.154a1.3 1.3 0 0 0-.885 2.046c.176.244.431.42.722.497l250.552 62.826a4.36 4.36 0 0 0 2.183 0l409.31-101.061z"/><path fill="#E60F0F" d="m276.389 526.77 34.928 27.069a7.88 7.88 0 0 1 3.045 5.458c.568 6.112-.185 18.751-13.862 27.483a10.84 10.84 0 0 1-4.739 1.601 10.8 10.8 0 0 1-4.953-.695l-44.064-16.667z"/><path fill="#AD0B0B" d="M279.523 558.197c6.431-13.809 3.692-28.707-6.117-33.274s-22.974 2.923-29.405 16.733c-6.431 13.809-3.692 28.707 6.117 33.274s22.974-2.923 29.405-16.733"/><path fill="#AD0B0B" d="M275.884 555.309c5.039-10.82 2.895-22.492-4.789-26.07s-17.996 2.293-23.035 13.113c-5.038 10.82-2.894 22.492 4.789 26.07s17.996-2.293 23.035-13.113"/><path fill="#141414" d="M270.027 563.695a28.7 28.7 0 0 0 5.861-8.393 27.3 27.3 0 0 0 2.631-13.851s-6.549 10.991-14.692 11.559-19.374-4.181-23.216 7.749c-2.456 7.641 2.838 9.824 7.422 9.453 3.155-.262-1.834 7.334.142 9.878 1.976 2.543 6.855 1.811 9.027-2.467 2.466-4.868 12.825-13.928 12.825-13.928M236.254 570.792c-3.394 2.565-4.366 5.457-6.21 4.114s-1.528-5.577.262-8.186 4.813-3.678 6.691-2.346c2.303 1.615 3.209 3.438-.743 6.418M239.877 584.489c-3.013 2.991-3.755 4.475-5.807 3.428-2.052-1.048-2.063-3.842-.633-6.658s4.279-4.301 6.32-3.275c2.477 1.343 3.623 3.013.12 6.505"/><path fill="#F06305" d="M715.504 538.241c18.309 11.5 42.473 5.98 53.973-12.328 11.5-18.309 5.98-42.473-12.328-53.973-18.309-11.5-42.473-5.98-53.973 12.328-11.5 18.309-5.98 42.473 12.328 53.973M858.327 515.311c18.309 11.5 42.473 5.98 53.973-12.328 11.5-18.309 5.98-42.473-12.328-53.973-18.309-11.5-42.473-5.98-53.973 12.328-11.5 18.309-5.98 42.473 12.328 53.973"/><path fill="#F06305" d="m732.866 545.89 153.495-25.692-12.902-77.086-153.495 25.692z"/><path fill="#F06305" d="m844.718 527.685 35.421-37.282-114.905 50.456zM769.938 461.576l-10.181 33.509 49.639-40.031z"/><path fill="#0C4EC0" d="m891.769 554.226 188.071 43.547-101.498 199.396-188.065-43.546z"/><path fill="#F67979" d="m551.503 683.548 47.844-30.409-18.04-28.382-47.844 30.409z"/><path fill="url(#c)" d="m603.79 660.347-71.683-7.865c-1.435 4.265-16.632 16.83-33.682 16.065-32.464-1.351-21.186 15.502-21.186 15.502l118.107 12.958z"/><path fill="#0C4EC0" d="m909.243 959.685-156.326-36.197-4.985 21.53 156.326 36.197z"/><path fill="#0C4EC0" d="m839.461 954.376 36.197-156.326-21.53-4.985-36.197 156.326z"/><path fill="#072F73" d="M861.277 815.432c20.938 4.848 41.89-8.405 46.798-29.602 4.908-21.196-8.087-42.309-29.025-47.157s-41.89 8.405-46.798 29.601 8.087 42.309 29.025 47.158"/><path fill="#F67979" d="m937.908 318.201 68.842 15.097 4.05 6.42-28.19 128.464-50.874-11.217 4.489-20.615-23.217-5.095c-1.556-2.469-2.521-3.818-4.045-6.421l22.625-102.612z"/><path fill="#141414" d="M922.952 403.644c-.395-.091-.728-.451-.93-.779-.17-.463-.077-.864.148-1.235l17.206-23.944c.418-.608 1.271-.693 1.868-.273.597.421.674 1.285.256 1.893l-15.951 22.118 10.442 2.277a1.366 1.366 0 0 1 1.008 1.644c-.186.803-.838 1.217-1.628 1.033zM986.175 388.696l-33.076-58.027-29.004 25.743 7.5-34.22 6.462-4.101 68.583 15.181 4.2 6.289-11.516 52.179z"/><path fill="url(#d)" d="M900.564 702.53 805.03 552.223c-13.679-21.522-42.267-27.883-63.802-14.195l-.347.221-186.321 78.46 49.569 77.988 147.835-62.285 63.837 100.437c.805 6.636-.552-5.259 3.273.758 13.679 21.522 45.911 46.446 67.446 32.758 21.346-13.73 27.723-42.313 14.044-63.835"/><path fill="#0C4EC0" d="m977.891 797.066-213.827-49.512 4.985-21.53 219.043 50.719z"/><path fill="#072F73" d="m653.146 800.2-61.978-36.868c-3.073 3.286-22.11 8.424-37.428.59-28.984-14.684-25.706 5.327-25.706 5.327l102.115 60.744z"/><path fill="#0096FA" d="m579.839 756.592 79.568 47.331 130.131-154.816-79.567-47.331z"/><path fill="#0096FA" d="M726.296 664.871c21.971 13.07 50.379 5.854 63.449-16.118s5.853-50.379-16.119-63.449c-21.971-13.07-50.378-5.854-63.448 16.118s-5.854 50.379 16.118 63.449M881.965 752.196c21.971 13.07 50.377 5.854 63.447-16.118s5.855-50.379-16.117-63.449c-21.971-13.07-50.379-5.853-63.449 16.119-13.07 21.971-5.853 50.378 16.119 63.448"/><path fill="#0096FA" d="m926.981 676.526-153.349-91.221-44.943 75.553 153.349 91.221z"/><path fill="#0096FA" d="m948.028 729.002 16.375-54.398-61.781-14.306z"/><path fill="#F06305" d="m849.266 644.985 145.598 33.713 50.826-171.996-29.59-36.379-128.027-26.429-52.136 94.649z"/><path fill="#C5D9FB" d="m1005.74 679.243-204.067-47.251-4.769 20.594 204.066 47.251z"/><path fill="#141414" d="m1028.35 406.35-28.754-6.657c-3.744-.867-5.999-4.516-5.124-8.292l7.718-33.316c.87-3.777 4.5-6.063 8.24-5.196l28.75 6.657c3.75.867 6 4.516 5.13 8.293l-7.71 33.315c-.88 3.777-4.64 6.032-8.25 5.196"/><path fill="#F67979" d="m936.579 415.676 22.94 5.312c2.9.671 5.696-1.204 6.343-3.998l4.868-21.022-28.083-6.502z"/><path stroke="#072F73" stroke-miterlimit="10" stroke-width="6" d="m997.217 417.881-25.437 11.027a30.1 30.1 0 0 1-18.294 1.532l-26.78-6.201"/><path fill="#1968F0" d="m1007.56 429.152-18.845-4.363 10.187-43.996 18.848 4.363c5.08 1.177 8.28 6.255 7.12 11.286l-5.95 25.703c-1.17 5.03-6.19 8.205-11.36 7.007"/><path fill="#072F73" d="m919.791 427.569 8.855 2.05c1.431.332 2.867-.581 3.204-2.035l.946-4.09c.337-1.454-.551-2.904-1.982-3.236l-8.855-2.05c-1.431-.331-2.867.581-3.204 2.035l-.947 4.09c-.336 1.454.552 2.905 1.983 3.236"/><path fill="#F67979" d="m747.544 296.305 8.834 27.771 3.928-37.76 6.906-1.178 2.161 36.07 13.768-43.097 7.583 1.358-6.435 45.107 17.184-33.814 7.157 2.549-16.424 58.946 21.414-11.367 4.228 4.116-32.087 30.941-3.729 14.202-47.425-11.783 8.972-47.082-2.692-33.159z"/><path fill="#F06305" d="m774.762 512.398 17.531-129.177-77.451-10.512-17.532 129.177zM871.096 584.456c-3.921 21.648 10.45 42.375 32.098 46.296 21.647 3.92 42.374-10.451 46.295-32.098 3.92-21.648-10.451-42.375-32.098-46.296-21.648-3.92-42.375 10.451-46.295 32.098M969.399 502.589c-3.921 21.648 10.45 42.375 32.101 46.295 21.64 3.921 42.37-10.45 46.29-32.098 3.92-21.647-10.45-42.374-32.1-46.295-21.644-3.92-42.371 10.45-46.291 32.098"/><path fill="#F06305" d="m887.853 557.788 50.737 61.07 95.2-79.09-50.741-61.07z"/><path fill="#F67979" d="m813.299 521.235-47.616-54.507-33.143-12.715-25.421-.779 1.073 8.12 13.609 3.728-19.788 1.964 2.759 8.732 37.432 3.927-29.672 5.411 1.935 7.127 28.899 2.542-21.715 3.677 1.443 6.547 28.149 2.671 10.722 19.449 12.378 6.293z"/><path fill="#F06305" d="m792.372 487.473-32.867 46.309 128.53 91.221 32.866-46.308z"/><defs><linearGradient id="b" x1="239.283" x2="247.371" y1="779.131" y2="779.131" gradientUnits="userSpaceOnUse"><stop offset=".44" stop-color="#242B36"/><stop offset="1" stop-color="#1D1D1D"/></linearGradient><linearGradient id="c" x1="510.879" x2="583.481" y1="636.595" y2="723.922" gradientUnits="userSpaceOnUse"><stop offset=".26" stop-color="#072F73"/><stop offset=".366" stop-color="#072C6D"/><stop offset=".513" stop-color="#06255B"/><stop offset=".684" stop-color="#04193D"/><stop offset=".871" stop-color="#010915"/><stop offset=".956"/></linearGradient><linearGradient id="d" x1="738.877" x2="724.176" y1="513.522" y2="819.256" gradientUnits="userSpaceOnUse"><stop offset=".026" stop-color="#0096FA"/><stop offset=".641" stop-color="#1968F0"/></linearGradient><filter id="a" width="217" height="85" x="705" y="938" color-interpolation-filters="sRGB" filterUnits="userSpaceOnUse"><feFlood flood-opacity="0" result="BackgroundImageFix"/><feBlend in="SourceGraphic" in2="BackgroundImageFix" result="shape"/><feGaussianBlur result="effect1_foregroundBlur_10272_1621" stdDeviation="8"/></filter></defs></svg>