<svg width="1080" height="1080" viewBox="0 0 1080 1080" fill="none" xmlns="http://www.w3.org/2000/svg">
<path opacity="0.06" d="M471.49 686.716L5.08398 854.135L252.169 950.636L670.932 742.561L471.49 686.716Z" fill="#0A0F1A"/>
<path d="M241.047 663.134L246.636 947.32L252.168 950.637L261.642 668.735L241.047 663.134Z" fill="url(#paint0_linear_10272_1621)"/>
<path d="M252.167 950.638L261.641 946.207L279.817 663.964L261.641 668.735L252.167 950.638Z" fill="#202C44"/>
<g opacity="0.5">
<path opacity="0.5" d="M241.047 663.132L246.636 947.318L252.168 950.635L261.642 668.733L241.047 663.132Z" fill="#1C263A"/>
</g>
<path d="M652.846 554.5L657.754 743.525L662.616 746.445L670.931 559.407L652.846 554.5Z" fill="#212A3C"/>
<path d="M662.616 746.445L670.932 742.56L684.166 557.704L668.194 561.896L662.616 746.445Z" fill="#202C44"/>
<path d="M0.0410156 597.85L5.08472 854.136L10.0716 857.135L18.6141 602.893L0.0410156 597.85Z" fill="#202C44"/>
<path d="M10.0698 857.136L18.6123 853.137L35.0043 598.601L18.6123 602.895L10.0698 857.136Z" fill="url(#paint1_linear_10272_1621)"/>
<g opacity="0.5">
<path opacity="0.5" d="M10.0698 857.135L18.6123 853.137L35.0043 598.6L18.6123 602.894L10.0698 857.135Z" fill="#1C263A"/>
</g>
<path d="M456.46 530.521L460.539 687.523L464.583 689.942L471.489 534.599L456.46 530.521Z" fill="#202C44"/>
<path d="M464.583 689.942L471.49 686.716L482.475 533.189L469.218 536.666L464.583 689.942Z" fill="#1C263A"/>
<path d="M0.0410156 585.639V597.635L262.961 669.155V652.377L0.0410156 585.639Z" fill="#EDBA7E"/>
<path d="M262.96 651.673V669.155L689.687 556.512L690.051 547.05L262.96 651.673Z" fill="#E8B57C"/>
<path d="M494.903 317.857L268.947 289.674C267.054 289.437 265.133 289.606 263.31 290.168C261.488 290.731 259.806 291.674 258.376 292.937C256.946 294.199 255.801 295.751 255.017 297.49C254.232 299.228 253.827 301.114 253.827 303.022V481.789L506.683 474.428V331.205C506.683 327.927 505.486 324.761 503.317 322.303C501.148 319.845 498.155 318.264 494.903 317.857Z" fill="#2C2A46"/>
<path d="M395.483 505.814C395.483 505.814 378.943 552.31 383.305 554.922C387.667 557.535 402.423 559.205 413.533 562.056C414.13 562.198 414.662 562.537 415.042 563.018C415.422 563.5 415.629 564.095 415.629 564.709C415.629 565.322 415.422 565.918 415.042 566.399C414.662 566.88 414.13 567.219 413.533 567.361L335.367 585.991C333.147 586.526 330.807 586.206 328.813 585.094L318.646 579.414C314.839 577.286 312.019 573.75 310.794 569.565C309.568 565.379 310.034 560.88 312.091 557.035L344.046 507.45L395.483 505.814Z" fill="#E7EEF1"/>
<path d="M344.023 507.449L320.497 553.524C316.226 561.476 318.771 569.076 326.688 573.506L336.855 579.186C338.848 580.302 341.189 580.626 343.41 580.094L415.612 565.327L413.533 567.36L331.607 586.081C331.607 586.081 318.646 579.413 313.011 574.233C307.377 569.053 311.489 558.329 311.489 558.329L344.046 507.495L344.023 507.449Z" fill="#DEE8EC"/>
<path d="M500.048 474.62V337.986C500.01 334.966 498.866 332.065 496.833 329.832C494.801 327.598 492.02 326.187 489.018 325.865L277.398 300.272C275.654 300.036 273.879 300.172 272.191 300.669C270.503 301.167 268.939 302.016 267.601 303.16C266.264 304.305 265.184 305.719 264.431 307.31C263.678 308.901 263.269 310.633 263.232 312.392V481.515L500.048 474.62Z" fill="#F5F8F9"/>
<path d="M253.827 481.789V507.053C253.827 508.884 254.201 510.694 254.925 512.375C255.649 514.056 256.709 515.571 258.039 516.828C259.37 518.085 260.943 519.058 262.662 519.686C264.381 520.313 266.21 520.584 268.038 520.48L493.993 507.848C497.417 507.654 500.637 506.16 502.996 503.67C505.354 501.181 506.673 497.885 506.682 494.455V474.428L253.827 481.789Z" fill="#E7EEF1"/>
<path d="M383.339 615.23L383.669 607.415L360.881 591.318L360.87 599.179L383.339 615.23Z" fill="#D2DFE6"/>
<path d="M476.829 577.527V585.297L383.339 615.23L383.668 607.415L476.829 577.527Z" fill="#DEE8EC"/>
<path d="M385.712 607.471L475.454 579.617C475.794 579.508 476.098 579.306 476.33 579.034C476.563 578.762 476.715 578.431 476.77 578.078C476.826 577.724 476.782 577.362 476.644 577.032C476.506 576.703 476.278 576.418 475.988 576.209L457.869 563.6C457.422 563.285 456.911 563.075 456.372 562.984C455.833 562.894 455.281 562.926 454.756 563.077L362.323 589.102C361.952 589.207 361.619 589.414 361.362 589.701C361.104 589.987 360.934 590.341 360.869 590.72C360.805 591.1 360.85 591.49 360.999 591.845C361.147 592.2 361.394 592.506 361.709 592.726L381.929 606.914C382.477 607.287 383.102 607.53 383.757 607.627C384.412 607.723 385.081 607.67 385.712 607.471Z" fill="#E7EEF1"/>
<path opacity="0.2" d="M541.897 548.277C540.166 547.904 538.384 547.823 536.626 548.038C534.066 548.329 531.6 549.174 529.399 550.513C527.198 551.853 525.315 553.656 523.881 555.797L523.631 556.194C523.529 556.376 523.449 556.546 523.358 556.728C520.621 562.135 522.881 567.531 528.572 569.417L528.959 569.519L529.697 569.735C536.411 571.291 544.578 567.747 547.952 561.783C551.326 555.819 548.6 549.844 541.897 548.277Z" fill="#DAA076"/>
<path opacity="0.2" d="M272.399 618.511C269.723 618.263 266.97 618.21 264.254 618.352C260.298 618.546 256.487 619.108 253.086 620.001C249.685 620.893 246.776 622.093 244.559 623.518L244.173 623.783C244.015 623.904 243.892 624.017 243.752 624.138C239.522 627.738 243.015 631.331 251.809 632.586L252.406 632.654L253.547 632.798C263.92 633.834 276.541 631.475 281.754 627.504C286.968 623.533 282.755 619.555 272.399 618.511Z" fill="#DAA076"/>
<path d="M538.592 531.168C538.018 529.959 537.313 528.816 536.49 527.76C536.156 527.322 535.799 526.902 535.422 526.499C531.867 522.728 527.028 521.138 522.927 522.785C522.792 522.831 522.659 522.884 522.529 522.944C522.359 523.023 522.211 523.114 522.052 523.205C517.201 525.829 515.475 532.702 517.951 539.268L518.133 539.688C518.231 539.961 518.345 540.233 518.474 540.506C521.768 547.64 528.947 551.343 534.491 548.776C540.034 546.208 541.897 538.302 538.592 531.168Z" fill="#E7EEF1"/>
<path d="M531.945 538.644C533.033 537.875 534.008 536.957 534.842 535.918C535.656 534.831 536.261 533.602 536.625 532.294C536.963 530.982 536.991 529.609 536.704 528.284C536.636 528.08 536.557 527.909 536.489 527.716C536.154 527.278 535.798 526.857 535.421 526.455C535.569 527.103 535.693 527.75 535.784 528.398C535.852 529.553 535.694 530.711 535.319 531.806C534.905 532.902 534.314 533.922 533.569 534.827C533.186 535.269 532.777 535.686 532.342 536.077C532.426 534.79 532.268 533.5 531.877 532.271C531.319 530.63 530.489 529.094 529.423 527.727C528.363 526.392 527.116 525.218 525.72 524.24C524.854 523.64 523.929 523.13 522.959 522.718C522.824 522.764 522.691 522.817 522.562 522.877C522.391 522.956 522.244 523.047 522.085 523.138C524.249 524.824 526.205 526.761 527.912 528.909C528.917 530.172 529.796 531.53 530.536 532.964C531.051 534.133 531.432 535.356 531.672 536.611C531.422 536.804 531.184 537.02 530.922 537.201C529.043 538.437 526.922 539.257 524.7 539.605C522.478 539.954 520.208 539.824 518.041 539.223L518.222 539.644C520.206 540.677 522.43 541.16 524.663 541.041C527.263 540.916 529.779 540.088 531.945 538.644Z" fill="#DEE8EC"/>
<path opacity="0.2" d="M524.289 300.669V344.086C524.287 344.514 524.197 344.936 524.025 345.328C523.852 345.719 523.601 346.071 523.286 346.361C522.972 346.651 522.601 346.873 522.197 347.013C521.793 347.153 521.364 347.209 520.938 347.176L412.862 338.202C412.089 338.136 411.369 337.784 410.844 337.214C410.318 336.644 410.025 335.898 410.022 335.123V286.958C410.022 286.518 410.115 286.084 410.296 285.683C410.477 285.283 410.741 284.925 411.071 284.635C411.401 284.345 411.79 284.128 412.21 284C412.63 283.871 413.073 283.834 413.509 283.891L521.585 297.602C522.332 297.696 523.019 298.06 523.517 298.625C524.015 299.189 524.289 299.916 524.289 300.669Z" fill="#00C6D7"/>
<path opacity="0.4" d="M549.292 291.422V334.839C549.293 335.268 549.206 335.692 549.034 336.085C548.863 336.478 548.612 336.831 548.297 337.122C547.981 337.412 547.609 337.634 547.204 337.773C546.798 337.912 546.368 337.965 545.941 337.929L437.876 328.955C437.104 328.889 436.384 328.537 435.858 327.967C435.332 327.397 435.039 326.651 435.036 325.876V277.711C435.036 277.271 435.129 276.837 435.31 276.436C435.491 276.036 435.755 275.678 436.085 275.388C436.416 275.098 436.804 274.881 437.224 274.753C437.645 274.624 438.088 274.587 438.524 274.644L546.588 288.355C547.335 288.449 548.022 288.813 548.52 289.377C549.018 289.942 549.292 290.669 549.292 291.422Z" fill="#00C6D7"/>
<path opacity="0.2" d="M531.673 416.345V440.984C531.673 441.481 531.48 441.958 531.134 442.314C530.788 442.67 530.317 442.878 529.821 442.893L456.881 444.858C456.627 444.866 456.374 444.822 456.137 444.73C455.9 444.638 455.685 444.5 455.502 444.323C455.32 444.146 455.175 443.934 455.076 443.7C454.978 443.466 454.927 443.215 454.927 442.961V413.801C454.927 413.546 454.978 413.293 455.077 413.059C455.177 412.824 455.323 412.612 455.506 412.435C455.69 412.257 455.907 412.119 456.145 412.028C456.383 411.937 456.637 411.894 456.892 411.904L529.844 414.425C530.339 414.443 530.808 414.654 531.149 415.013C531.491 415.372 531.679 415.85 531.673 416.345Z" fill="#00C6D7"/>
<path opacity="0.4" d="M548.769 407.984V432.623C548.772 433.119 548.579 433.597 548.233 433.952C547.886 434.307 547.414 434.511 546.917 434.52L473.977 436.519C473.722 436.525 473.469 436.48 473.233 436.387C472.996 436.294 472.78 436.154 472.598 435.977C472.416 435.799 472.271 435.586 472.172 435.352C472.074 435.117 472.023 434.865 472.023 434.611V405.451C472.023 405.196 472.074 404.943 472.174 404.708C472.273 404.474 472.419 404.261 472.602 404.084C472.786 403.907 473.003 403.769 473.241 403.678C473.479 403.587 473.733 403.544 473.988 403.553L546.929 406.087C547.421 406.104 547.887 406.312 548.23 406.665C548.573 407.019 548.766 407.491 548.769 407.984Z" fill="#00C6D7"/>
<path opacity="0.2" d="M411.067 458.671V490.909C411.065 491.557 410.811 492.178 410.36 492.642C409.908 493.106 409.295 493.377 408.648 493.397L313.226 495.964C312.895 495.975 312.564 495.919 312.254 495.799C311.945 495.68 311.662 495.499 311.424 495.268C311.185 495.037 310.996 494.76 310.866 494.454C310.737 494.149 310.67 493.82 310.67 493.488V455.354C310.672 455.02 310.74 454.69 310.871 454.384C311.003 454.077 311.194 453.8 311.435 453.569C311.676 453.338 311.96 453.158 312.272 453.039C312.583 452.92 312.916 452.865 313.249 452.877L408.67 456.183C409.314 456.206 409.924 456.479 410.371 456.943C410.818 457.407 411.068 458.026 411.067 458.671Z" fill="#00C6D7"/>
<path opacity="0.4" d="M425.562 445.197V477.414C425.562 478.061 425.309 478.682 424.856 479.145C424.404 479.608 423.789 479.875 423.142 479.89L327.72 482.469C327.389 482.479 327.058 482.423 326.748 482.303C326.439 482.184 326.156 482.003 325.918 481.772C325.679 481.541 325.49 481.264 325.36 480.959C325.231 480.653 325.164 480.324 325.165 479.992V441.88C325.166 441.547 325.234 441.217 325.366 440.91C325.497 440.604 325.689 440.327 325.929 440.096C326.17 439.865 326.454 439.684 326.766 439.566C327.078 439.447 327.41 439.392 327.743 439.404L423.165 442.71C423.809 442.733 424.418 443.006 424.865 443.47C425.312 443.934 425.562 444.553 425.562 445.197Z" fill="#00C6D7"/>
<path opacity="0.2" d="M320.383 360.852V397.203C320.381 397.941 320.233 398.671 319.945 399.351C319.657 400.031 319.236 400.646 318.706 401.16C318.177 401.675 317.55 402.078 316.863 402.347C316.175 402.615 315.441 402.743 314.703 402.723L216.896 399.032C215.467 398.979 214.115 398.374 213.124 397.344C212.132 396.314 211.579 394.94 211.58 393.511V353.343C211.579 352.582 211.736 351.829 212.04 351.132C212.344 350.434 212.789 349.807 213.346 349.29C213.904 348.773 214.563 348.376 215.281 348.126C216 347.875 216.762 347.775 217.521 347.833L315.316 355.342C316.698 355.456 317.987 356.086 318.926 357.107C319.864 358.128 320.385 359.465 320.383 360.852Z" fill="#00C6D7"/>
<path opacity="0.4" d="M337.014 351.196V387.547C337.015 388.291 336.865 389.027 336.574 389.711C336.283 390.396 335.857 391.014 335.321 391.53C334.786 392.045 334.151 392.447 333.456 392.712C332.761 392.976 332.02 393.097 331.277 393.068L233.493 389.433C232.065 389.38 230.712 388.775 229.721 387.746C228.729 386.716 228.176 385.342 228.177 383.912V343.688C228.178 342.927 228.336 342.175 228.64 341.479C228.945 340.782 229.39 340.156 229.947 339.639C230.505 339.122 231.163 338.725 231.88 338.474C232.598 338.223 233.36 338.122 234.118 338.178L331.902 345.642C333.299 345.748 334.604 346.381 335.553 347.412C336.502 348.443 337.024 349.795 337.014 351.196Z" fill="#00C6D7"/>
<path d="M447.487 170.85C447.487 170.85 405.808 210.688 405.808 261.227C405.808 261.227 338.229 276.211 324.654 285.571C324.654 285.571 315.805 221.389 354.53 176.382L447.487 170.85Z" fill="#F3F6FA"/>
<path d="M658.481 253.845C658.481 253.845 658.481 320.242 617.904 360.819L691.231 412.244C691.231 412.244 724.879 385.674 740.362 304.747L658.481 253.845Z" fill="#F3F6FA"/>
<path d="M1061.28 218.766C1056.63 215.676 1048.66 218.903 1047.88 219.232L1007.29 234.215C1007.97 230.563 1007.63 226.794 1006.31 223.321C1004.99 219.848 1002.75 216.804 999.817 214.52C996.887 212.236 993.386 210.8 989.697 210.369C986.007 209.938 982.27 210.528 978.892 212.075C978.399 210.531 977.573 209.114 976.472 207.925C975.37 206.735 974.021 205.802 972.52 205.191C973.626 202.651 974.195 199.909 974.189 197.137C974.187 193.303 973.099 189.548 971.053 186.306C969.007 183.064 966.085 180.467 962.625 178.814L1000.31 164.899C1002.8 163.842 1007.31 162.808 1009.03 163.944C1009.23 164.081 1009.86 164.501 1009.86 166.216V169.352C1009.84 169.701 1009.88 170.051 1010 170.381C1010.12 170.71 1010.3 171.012 1010.54 171.268C1010.78 171.524 1011.07 171.727 1011.39 171.867C1011.71 172.006 1012.06 172.078 1012.41 172.078C1012.76 172.078 1013.11 172.006 1013.43 171.867C1013.75 171.727 1014.04 171.524 1014.28 171.268C1014.51 171.012 1014.7 170.71 1014.82 170.381C1014.93 170.051 1014.98 169.701 1014.96 169.352V166.239C1014.96 162.547 1013.27 160.639 1011.85 159.707C1007.18 156.606 999.215 159.832 998.431 160.162L953.322 176.815C949.896 176.9 946.548 177.85 943.587 179.576C940.627 181.302 938.151 183.748 936.389 186.687C934.627 189.626 933.637 192.962 933.509 196.387C933.382 199.811 934.122 203.212 935.661 206.274C937.199 209.335 939.487 211.959 942.311 213.9C945.135 215.841 948.404 217.036 951.813 217.376C955.223 217.716 958.663 217.188 961.815 215.843C964.966 214.497 967.726 212.376 969.839 209.679C971.045 209.97 972.131 210.63 972.945 211.566C973.759 212.502 974.262 213.669 974.383 214.904C972.063 216.801 970.191 219.187 968.9 221.891C967.61 224.596 966.934 227.552 966.919 230.549C966.905 233.545 967.553 236.508 968.817 239.225C970.082 241.942 971.931 244.345 974.232 246.264C976.534 248.183 979.231 249.57 982.131 250.324C985.031 251.079 988.062 251.184 991.007 250.631C993.952 250.077 996.738 248.88 999.167 247.124C1001.6 245.369 1003.61 243.098 1005.05 240.475L1049.75 223.969C1052.25 222.913 1056.76 221.879 1058.48 223.015C1058.68 223.151 1059.31 223.571 1059.31 225.287V228.422C1059.31 229.097 1059.58 229.744 1060.05 230.221C1060.53 230.698 1061.18 230.967 1061.85 230.967C1062.53 230.967 1063.17 230.698 1063.65 230.221C1064.13 229.744 1064.4 229.097 1064.4 228.422V225.287C1064.48 224.024 1064.24 222.759 1063.7 221.617C1063.15 220.474 1062.32 219.492 1061.28 218.766ZM953.844 212.382C949.872 212.274 946.098 210.619 943.327 207.771C940.555 204.923 939.004 201.106 939.004 197.132C939.004 193.158 940.555 189.34 943.327 186.492C946.098 183.644 949.872 181.99 953.844 181.881C955.882 181.826 957.91 182.179 959.809 182.92C961.708 183.662 963.439 184.776 964.9 186.198C966.361 187.62 967.522 189.32 968.315 191.197C969.108 193.075 969.517 195.093 969.517 197.132C969.517 199.17 969.108 201.188 968.315 203.066C967.522 204.944 966.361 206.644 964.9 208.066C963.439 209.487 961.708 210.602 959.809 211.343C957.91 212.084 955.882 212.438 953.844 212.382ZM987.299 245.836C984.281 245.839 981.33 244.946 978.82 243.271C976.309 241.596 974.352 239.214 973.196 236.426C972.039 233.639 971.736 230.571 972.323 227.611C972.91 224.651 974.362 221.931 976.496 219.797C978.629 217.662 981.347 216.208 984.307 215.618C987.266 215.029 990.334 215.33 993.123 216.484C995.911 217.639 998.294 219.594 999.971 222.103C1001.65 224.612 1002.54 227.562 1002.54 230.58C1002.54 234.623 1000.93 238.498 998.072 241.357C995.215 244.217 991.341 245.827 987.299 245.836Z" fill="#4C9AFF"/>
<path d="M212.887 491.395C216.067 494.508 216.624 501.562 208.945 514.115C204.401 521.476 188.827 532.779 181.068 528.78C172.9 524.566 172.775 501.937 195.393 494.883C213.034 489.351 209.456 488.044 212.887 491.395Z" fill="#3B93AE"/>
<path d="M145.886 462.883C145.886 462.883 126.233 430.269 123.734 418.012C121.644 407.789 124.745 390.476 130.55 376.856C130.786 376.305 131.148 375.817 131.607 375.432C132.067 375.047 132.61 374.775 133.193 374.638C133.777 374.5 134.384 374.502 134.967 374.643C135.55 374.784 136.091 375.059 136.548 375.447C142.053 380.134 146.546 385.893 149.751 392.373C152.956 398.854 154.806 405.919 155.189 413.139C156.802 441.061 160.04 455.829 160.04 455.829L152.088 473.391L145.886 462.883Z" fill="#A3B627"/>
<path d="M144.806 466.846C144.806 466.846 120.451 437.652 109.66 431.234C100.674 425.917 83.305 423.191 68.5488 424.168C67.95 424.211 67.3696 424.394 66.8543 424.702C66.339 425.01 65.9031 425.435 65.5817 425.942C65.2602 426.449 65.0621 427.024 65.0033 427.622C64.9445 428.219 65.0267 428.822 65.2431 429.382C67.8752 436.119 71.8512 442.248 76.929 447.398C82.0067 452.548 88.0799 456.611 94.7783 459.338C120.588 469.97 133.515 477.922 133.515 477.922L152.701 476.184L144.806 466.846Z" fill="#A3B627"/>
<path d="M157.849 471.334C157.849 471.334 142.116 436.653 141.071 424.191C140.185 413.786 145.285 396.928 152.601 384.103C152.899 383.583 153.315 383.14 153.816 382.81C154.317 382.48 154.888 382.273 155.484 382.204C156.08 382.136 156.684 382.208 157.246 382.416C157.809 382.623 158.315 382.96 158.724 383.399C163.644 388.696 167.433 394.941 169.861 401.751C172.289 408.561 173.304 415.795 172.844 423.01C171.185 450.875 172.73 465.972 172.73 465.972L162.813 482.489L157.849 471.334Z" fill="#B2C725"/>
<path d="M152.52 475.514C152.52 475.514 120.054 455.624 107.809 453.034C97.585 450.875 80.2728 453.852 66.6071 459.52C66.0545 459.752 65.5641 460.11 65.1753 460.567C64.7866 461.023 64.5104 461.564 64.3689 462.146C64.2274 462.729 64.2247 463.336 64.3609 463.92C64.4971 464.503 64.7684 465.047 65.1531 465.507C69.8008 471.045 75.5273 475.579 81.9839 478.832C88.4404 482.086 95.4917 483.991 102.708 484.432C130.562 486.227 145.352 489.623 145.352 489.623L162.971 481.83L152.52 475.514Z" fill="#B2C725"/>
<path d="M143.296 472.62C143.296 472.62 113.908 448.412 107.479 437.655C102.117 428.703 99.2883 411.346 100.186 396.589C100.227 395.991 100.407 395.411 100.712 394.895C101.018 394.38 101.439 393.943 101.944 393.619C102.449 393.295 103.022 393.095 103.618 393.032C104.214 392.97 104.817 393.049 105.377 393.261C112.129 395.848 118.282 399.785 123.462 404.829C128.642 409.874 132.739 415.922 135.503 422.603C146.272 448.355 154.303 461.226 154.303 461.226L152.668 480.424L143.296 472.62Z" fill="#BED42B"/>
<path d="M183.101 450.614C173.093 451.466 142.706 456.896 133.948 491.259C133.501 493.022 133.62 494.88 134.286 496.572C134.953 498.264 136.134 499.703 137.663 500.688L181.068 528.746C181.068 528.746 174.434 498.075 212.875 491.395L187.986 453.022C187.467 452.215 186.739 451.564 185.878 451.14C185.017 450.716 184.057 450.534 183.101 450.614Z" fill="#00C6D7"/>
<path d="M897.215 729.008C894.943 731.405 889.65 731.859 880.244 726.214C874.723 722.897 866.181 711.321 869.123 705.505C872.213 699.371 889.093 699.132 894.512 715.967C898.737 729.099 899.726 726.43 897.215 729.008Z" fill="#D2DFE6"/>
<path d="M922.196 656.045C922.118 656.061 922.038 656.061 921.96 656.045C921.882 656.03 921.808 655.999 921.742 655.954L920.174 654.966C920.041 654.876 919.949 654.737 919.918 654.58C919.886 654.423 919.917 654.26 920.004 654.125C920.046 654.058 920.102 653.999 920.168 653.953C920.233 653.907 920.308 653.875 920.386 653.858C920.464 653.841 920.545 653.84 920.624 653.855C920.702 653.869 920.777 653.899 920.844 653.944L922.366 654.943C922.476 655.007 922.563 655.103 922.615 655.219C922.668 655.334 922.683 655.463 922.66 655.587C922.636 655.712 922.574 655.826 922.483 655.914C922.392 656.002 922.276 656.06 922.151 656.079" fill="#3B93AE"/>
<path d="M916.629 667.087L915.106 666.099L923.728 652.922L925.251 653.91L916.629 667.087Z" fill="#3B93AE"/>
<path d="M907.848 662.792L895.897 681.036C895.545 681.574 895.42 682.23 895.551 682.859C895.682 683.489 896.058 684.04 896.596 684.393C897.134 684.745 897.789 684.87 898.419 684.739C899.048 684.608 899.6 684.232 899.953 683.694L911.903 665.451L907.848 662.792Z" fill="#00C6D7"/>
<path d="M912.914 666.11L906.836 662.122L914.47 650.467L920.548 654.455L912.914 666.11Z" fill="#00C6D7"/>
<path d="M920.548 654.455L914.47 650.467L916.129 647.934L922.218 651.921L920.548 654.455Z" fill="#3B93AE"/>
<path d="M935.123 666.837C934.964 666.833 934.814 666.768 934.702 666.656L933.419 665.361C933.363 665.305 933.318 665.238 933.288 665.165C933.258 665.092 933.242 665.014 933.242 664.935C933.242 664.856 933.258 664.777 933.288 664.704C933.318 664.631 933.363 664.565 933.419 664.509C933.534 664.395 933.689 664.331 933.85 664.331C934.012 664.331 934.167 664.395 934.282 664.509L935.554 665.804C935.61 665.86 935.655 665.926 935.685 665.999C935.715 666.072 935.731 666.151 935.731 666.23C935.731 666.309 935.715 666.387 935.685 666.46C935.655 666.533 935.61 666.6 935.554 666.656C935.499 666.714 935.432 666.761 935.358 666.792C935.283 666.823 935.203 666.839 935.123 666.837Z" fill="#CF5358"/>
<path d="M927.375 676.471L926.092 675.187L937.281 664.1L938.553 665.384L927.375 676.471Z" fill="#CF5358"/>
<path d="M919.684 670.437L904.189 685.795C903.831 686.263 903.655 686.845 903.694 687.433C903.733 688.021 903.984 688.575 904.401 688.992C904.818 689.408 905.371 689.659 905.959 689.698C906.547 689.737 907.129 689.561 907.597 689.203L923.092 673.936L919.684 670.437Z" fill="#FF5A60"/>
<path d="M923.955 674.743L918.832 669.585L928.726 659.771L933.849 664.939L923.955 674.743Z" fill="#FF5A60"/>
<path d="M933.851 664.94L928.728 659.771L930.886 657.635L935.998 662.804L933.851 664.94Z" fill="#CF5358"/>
<path d="M952.889 696.495C952.813 696.468 952.745 696.424 952.688 696.367C952.631 696.31 952.587 696.242 952.559 696.166L951.855 694.496C951.824 694.422 951.808 694.342 951.807 694.261C951.807 694.18 951.822 694.1 951.853 694.025C951.883 693.95 951.928 693.882 951.985 693.824C952.042 693.767 952.11 693.721 952.185 693.69C952.259 693.658 952.339 693.642 952.42 693.642C952.501 693.641 952.581 693.657 952.656 693.687C952.731 693.718 952.799 693.763 952.857 693.82C952.914 693.877 952.96 693.944 952.991 694.019L953.695 695.7C953.756 695.85 953.755 696.017 953.694 696.165C953.632 696.314 953.514 696.433 953.366 696.495C953.22 696.552 953.058 696.552 952.912 696.495" fill="#0052CC"/>
<path d="M942.086 702.53L941.381 700.86L955.91 694.771L956.615 696.441L942.086 702.53Z" fill="#0052CC"/>
<path d="M937.213 694.066L917.106 702.495C916.552 702.769 916.123 703.244 915.907 703.823C915.69 704.403 915.703 705.042 915.942 705.613C916.18 706.183 916.628 706.641 917.192 706.893C917.757 707.145 918.396 707.173 918.98 706.971L939.087 698.53L937.213 694.066Z" fill="#4C9AFF"/>
<path d="M939.564 699.645L936.747 692.943L949.594 687.558L952.412 694.26L939.564 699.645Z" fill="#4C9AFF"/>
<path d="M952.412 694.259L949.595 687.557L952.389 686.387L955.206 693.089L952.412 694.259Z" fill="#0052CC"/>
<path d="M927.545 707.526C927.125 701.21 923.604 674.981 893.887 669.448C893.372 669.359 892.842 669.425 892.365 669.637C891.888 669.85 891.484 670.199 891.206 670.641L869.123 705.504C869.123 705.504 892.001 700.335 897.215 729.007L926.489 709.639C926.837 709.412 927.118 709.097 927.303 708.726C927.489 708.354 927.573 707.94 927.545 707.526Z" fill="#F3F6FA"/>
<path d="M974.006 660.771L953.9 669.211C953.607 669.334 953.341 669.513 953.117 669.739C952.893 669.965 952.716 670.233 952.596 670.527C952.476 670.822 952.415 671.137 952.416 671.455C952.418 671.772 952.482 672.087 952.605 672.38C952.728 672.673 952.907 672.939 953.133 673.163C953.359 673.387 953.627 673.564 953.921 673.684C954.216 673.804 954.531 673.865 954.849 673.864C955.166 673.862 955.481 673.798 955.774 673.675L975.881 665.246L974.006 660.771Z" fill="#F6A721"/>
<path d="M989.672 663.213C989.529 663.143 989.413 663.027 989.343 662.884L988.639 661.203C988.577 661.052 988.577 660.883 988.64 660.733C988.703 660.583 988.823 660.464 988.974 660.402C989.124 660.34 989.293 660.341 989.444 660.404C989.594 660.466 989.713 660.586 989.775 660.737L990.479 662.418C990.523 662.529 990.533 662.651 990.508 662.768C990.484 662.884 990.426 662.992 990.342 663.076C990.257 663.161 990.15 663.218 990.033 663.243C989.916 663.267 989.795 663.257 989.684 663.213" fill="#E19617"/>
<path d="M978.869 669.246L978.176 667.565L992.693 661.476L993.398 663.157L978.869 669.246Z" fill="#E19617"/>
<path d="M976.346 666.36L973.541 659.658L986.388 654.273L989.194 660.976L976.346 666.36Z" fill="#F6A721"/>
<path d="M989.206 660.975L986.389 654.273L989.184 653.091L992.001 659.805L989.206 660.975Z" fill="#E19617"/>
<path opacity="0.5" d="M971.975 822.931C971.975 822.931 905.589 822.931 865.012 782.354L813.576 855.693C813.576 855.693 840.146 889.34 921.072 904.835L971.975 822.931Z" fill="#D2DFE6"/>
<path d="M968.657 812.297C968.657 812.297 902.26 812.297 861.683 771.72L810.258 845.047C810.258 845.047 836.828 878.694 917.755 894.189L968.657 812.297Z" fill="#F3F6FA"/>
<path opacity="0.5" d="M544.571 946.447C544.571 946.447 494.588 913.504 484.171 862.885L409.118 892.58C409.118 892.58 412.446 931.078 465.678 982.855L544.571 946.447Z" fill="#D2DFE6"/>
<path d="M551.988 935.188C551.988 935.188 502.006 902.245 491.577 851.638L416.569 881.332C416.569 881.332 419.898 919.83 473.129 971.596L551.988 935.188Z" fill="#F3F6FA"/>
<path opacity="0.5" d="M302.673 271.611L788.141 98.9095C792.027 97.5191 796.307 97.7296 800.038 99.4946C803.769 101.26 806.647 104.435 808.037 108.321C809.427 112.208 809.217 116.487 807.452 120.218C805.687 123.95 802.512 126.827 798.626 128.218L797.91 128.456L304.581 277.393C303.814 277.646 302.979 277.584 302.257 277.221C301.536 276.858 300.989 276.223 300.736 275.456C300.483 274.689 300.545 273.854 300.908 273.132C301.271 272.411 301.906 271.864 302.673 271.611Z" fill="#E8F2FF"/>
<path opacity="0.5" d="M269.038 268.067L513.271 141.781C514.22 141.29 515.256 140.991 516.32 140.901C517.385 140.81 518.456 140.931 519.474 141.254C520.492 141.578 521.436 142.099 522.253 142.788C523.069 143.477 523.742 144.32 524.233 145.268C524.724 146.217 525.023 147.253 525.113 148.318C525.204 149.382 525.083 150.454 524.76 151.472C524.436 152.49 523.915 153.434 523.226 154.25C522.537 155.067 521.694 155.74 520.746 156.231L520.405 156.401L270.401 270.929C270.021 271.115 269.583 271.141 269.184 271.004C268.785 270.867 268.456 270.576 268.271 270.197C268.085 269.817 268.059 269.379 268.196 268.98C268.333 268.58 268.624 268.252 269.003 268.067H269.038Z" fill="#E8F2FF"/>
<path opacity="0.5" d="M474.41 359.784L781.121 306.394C783.531 305.975 786.009 306.531 788.01 307.939C790.01 309.347 791.369 311.492 791.788 313.902C792.207 316.312 791.651 318.79 790.243 320.791C788.835 322.791 786.689 324.15 784.279 324.569L783.848 324.637L474.944 363.351C474.484 363.394 474.026 363.259 473.662 362.974C473.299 362.689 473.059 362.276 472.991 361.82C472.922 361.364 473.031 360.898 473.295 360.52C473.559 360.141 473.958 359.878 474.41 359.784Z" fill="#E8F2FF"/>
<path opacity="0.5" d="M943.758 290.888L1027.16 272.497C1028.36 272.191 1029.61 272.129 1030.83 272.316C1032.06 272.502 1033.23 272.933 1034.29 273.582C1035.34 274.232 1036.25 275.086 1036.97 276.095C1037.69 277.105 1038.19 278.248 1038.46 279.457C1038.73 280.666 1038.75 281.916 1038.52 283.134C1038.3 284.351 1037.83 285.51 1037.14 286.543C1036.46 287.575 1035.58 288.46 1034.54 289.144C1033.51 289.828 1032.35 290.297 1031.14 290.525C1030.72 290.607 1030.31 290.668 1029.89 290.706L944.757 297.522C943.952 297.507 943.178 297.208 942.573 296.677C941.968 296.146 941.57 295.418 941.45 294.622C941.33 293.826 941.496 293.013 941.919 292.327C942.341 291.642 942.993 291.128 943.758 290.877V290.888Z" fill="#E8F2FF"/>
<path opacity="0.5" d="M984.753 503.927L1070.12 500.645C1071.36 500.558 1072.59 500.721 1073.76 501.123C1074.93 501.524 1076.01 502.157 1076.93 502.983C1077.85 503.808 1078.6 504.811 1079.12 505.93C1079.65 507.05 1079.95 508.264 1079.99 509.499C1080.04 510.735 1079.84 511.968 1079.4 513.125C1078.96 514.282 1078.3 515.339 1077.45 516.234C1076.59 517.129 1075.57 517.843 1074.43 518.334C1073.3 518.825 1072.07 519.083 1070.84 519.093C1070.42 519.115 1070 519.115 1069.58 519.093L984.583 510.675C983.796 510.515 983.09 510.081 982.592 509.451C982.093 508.821 981.833 508.035 981.858 507.232C981.882 506.429 982.189 505.661 982.725 505.062C983.262 504.464 983.992 504.074 984.787 503.962L984.753 503.927Z" fill="#E8F2FF"/>
<path opacity="0.5" d="M896.479 428.987L956.185 424.363C957.048 424.268 957.921 424.348 958.752 424.597C959.584 424.846 960.356 425.26 961.025 425.813C961.693 426.367 962.243 427.05 962.643 427.82C963.042 428.591 963.282 429.434 963.349 430.299C963.416 431.165 963.309 432.035 963.033 432.857C962.757 433.68 962.318 434.439 961.743 435.09C961.168 435.74 960.468 436.267 959.685 436.642C958.902 437.016 958.052 437.229 957.185 437.268C956.89 437.285 956.594 437.285 956.299 437.268L896.513 433.689C895.916 433.648 895.357 433.382 894.949 432.944C894.54 432.507 894.313 431.931 894.313 431.332C894.313 430.734 894.54 430.158 894.949 429.72C895.357 429.283 895.916 429.017 896.513 428.975L896.479 428.987Z" fill="#E8F2FF"/>
<path opacity="0.5" d="M482.406 379.722L702.307 362.921C703.161 362.855 704.019 362.958 704.833 363.224C705.647 363.49 706.401 363.914 707.052 364.472C707.702 365.029 708.236 365.71 708.623 366.473C709.011 367.237 709.244 368.07 709.31 368.924C709.375 369.778 709.272 370.637 709.006 371.451C708.74 372.265 708.316 373.019 707.758 373.669C707.201 374.319 706.521 374.854 705.757 375.241C704.993 375.629 704.16 375.862 703.306 375.927H702.999L482.542 382.243C482.205 382.261 481.874 382.145 481.622 381.919C481.371 381.693 481.22 381.377 481.202 381.039C481.183 380.702 481.3 380.371 481.526 380.12C481.752 379.868 482.068 379.717 482.406 379.699V379.722Z" fill="#E8F2FF"/>
<path d="M315.225 584.831C315.358 585.1 315.428 585.395 315.43 585.694C315.423 586.226 315.211 586.735 314.839 587.114C314.493 587.517 314.012 587.779 313.487 587.853C313.169 587.915 312.839 587.863 312.556 587.705C312.25 587.533 312.013 587.26 311.885 586.933L310.886 584.661L303.684 585.672L302.661 588.239C302.519 588.613 302.284 588.945 301.98 589.205C301.708 589.43 301.376 589.572 301.025 589.614C300.786 589.656 300.541 589.647 300.306 589.586C300.07 589.525 299.851 589.414 299.662 589.261C299.466 589.117 299.308 588.927 299.203 588.707C299.098 588.487 299.049 588.244 299.06 588.001C299.061 587.686 299.131 587.376 299.265 587.092L305.149 573.256C305.329 572.806 305.627 572.413 306.012 572.12C306.378 571.842 306.808 571.662 307.262 571.597C307.686 571.531 308.12 571.59 308.511 571.767C308.894 571.951 309.203 572.259 309.386 572.642L315.225 584.831ZM305.069 582.162L309.523 581.525L307.307 576.493L305.035 582.173" fill="#FF7B80"/>
<path d="M323.188 568.631V568.881V592.589C323.193 593.778 322.784 594.931 322.032 595.851C321.279 596.771 320.23 597.401 319.065 597.633L295.391 600.95C294.855 601.02 294.309 600.97 293.794 600.804C293.279 600.638 292.807 600.359 292.413 599.989C292.018 599.618 291.711 599.165 291.513 598.661C291.315 598.157 291.231 597.616 291.268 597.076L291.324 566.507C291.325 565.318 291.737 564.166 292.491 563.247C293.245 562.327 294.294 561.697 295.459 561.463L314.055 558.851C314.168 558.834 314.283 558.834 314.396 558.851C314.535 558.861 314.67 558.9 314.794 558.964C314.927 559.028 315.046 559.116 315.146 559.226L322.836 567.882L323.041 568.211C323.11 568.343 323.16 568.485 323.188 568.631ZM320.212 593.009V570.835L316.032 571.335C315.595 571.382 315.153 571.333 314.737 571.192C314.321 571.051 313.94 570.822 313.621 570.519C313.302 570.217 313.053 569.848 312.891 569.44C312.728 569.032 312.657 568.593 312.681 568.154L312.578 562.247L295.437 564.656C295.101 564.719 294.798 564.898 294.58 565.162C294.362 565.425 294.243 565.756 294.244 566.098V596.656C294.232 596.808 294.253 596.961 294.306 597.104C294.359 597.248 294.442 597.378 294.55 597.486C294.658 597.594 294.788 597.677 294.931 597.73C295.075 597.783 295.228 597.804 295.38 597.792L319.031 594.418C319.358 594.342 319.649 594.157 319.856 593.892C320.063 593.627 320.173 593.3 320.167 592.964L320.212 593.009ZM318.44 567.825L315.566 564.599V567.643C315.564 567.707 315.576 567.771 315.601 567.831C315.626 567.89 315.663 567.943 315.711 567.986C315.758 568.029 315.815 568.062 315.876 568.081C315.937 568.1 316.002 568.106 316.066 568.098L318.395 567.825" fill="#FF7B80"/>
<path d="M589.108 282.025H589.415C591.027 281.818 592.657 281.78 594.277 281.911C595.054 281.991 595.818 282.17 596.549 282.445C596.675 282.505 596.787 282.59 596.88 282.695C596.972 282.8 597.042 282.923 597.085 283.055C597.129 283.188 597.145 283.328 597.133 283.467C597.121 283.606 597.081 283.742 597.015 283.865C596.936 284.06 596.809 284.232 596.647 284.365C596.484 284.498 596.29 284.588 596.083 284.626C595.934 284.659 595.778 284.659 595.629 284.626C595.053 284.404 594.449 284.266 593.834 284.217C592.358 284.084 590.873 284.115 589.404 284.308H589.176C586.976 284.533 584.869 285.315 583.054 286.58C580.157 288.852 579.782 292.93 579.827 295.145C579.873 297.36 580.305 300.552 582.224 302.495C583.769 304.051 587.268 304.551 589.79 304.221C589.956 304.202 590.125 304.221 590.283 304.274C590.441 304.328 590.586 304.416 590.707 304.532C590.827 304.648 590.92 304.79 590.98 304.946C591.039 305.102 591.064 305.27 591.051 305.437V307.016C591.971 306.039 593.027 304.903 594.061 303.744L594.697 303.029L594.924 302.779C595.104 302.569 595.355 302.431 595.629 302.392C595.767 302.37 595.909 302.382 596.042 302.428C596.175 302.473 596.294 302.551 596.39 302.654C596.569 302.882 596.66 303.168 596.646 303.458C596.631 303.748 596.512 304.023 596.31 304.233L596.072 304.494L595.447 305.187C594.027 306.777 592.573 308.322 591.448 309.492C591.221 309.739 590.924 309.909 590.596 309.981H590.471C590.273 310.003 590.072 309.981 589.883 309.917C589.694 309.853 589.522 309.747 589.378 309.608C589.235 309.469 589.124 309.3 589.054 309.113C588.984 308.926 588.956 308.726 588.972 308.527V306.334C586.143 306.527 582.576 305.914 580.714 304.062C578.339 301.677 577.794 297.985 577.749 295.315C577.669 290.669 579.169 286.887 581.963 284.671C584.082 283.198 586.541 282.287 589.108 282.025Z" fill="#FB5A8B"/>
<path d="M598.298 286.638C598.472 286.616 598.648 286.634 598.814 286.691C598.979 286.748 599.129 286.843 599.252 286.968L603.444 291.398V291.455V291.534V291.625V291.716V291.83V291.909V292.341V292.466V292.568V292.682V292.784L603.387 292.886V292.943L603.319 293.034V293.102L599.002 298.634C598.894 298.785 598.757 298.913 598.599 299.011C598.441 299.108 598.265 299.173 598.082 299.202C597.923 299.226 597.761 299.216 597.606 299.173C597.452 299.13 597.308 299.055 597.185 298.952C596.936 298.685 596.798 298.334 596.798 297.969C596.798 297.605 596.936 297.254 597.185 296.987L599.457 294.056L591.119 295.135C590.949 295.157 590.778 295.139 590.616 295.085C590.454 295.031 590.307 294.941 590.184 294.822C590.062 294.703 589.968 294.558 589.91 294.398C589.851 294.238 589.83 294.067 589.846 293.897C589.852 293.529 589.984 293.174 590.219 292.89C590.455 292.607 590.78 292.413 591.141 292.341L599.491 291.273L597.219 288.922C596.991 288.637 596.875 288.28 596.892 287.916C596.909 287.552 597.057 287.207 597.31 286.945C597.589 286.723 597.942 286.614 598.298 286.638Z" fill="#FB5A8B"/>
<path opacity="0.8" d="M536.217 248.574C536.427 248.806 536.543 249.107 536.543 249.42C536.543 249.733 536.427 250.034 536.217 250.266C535.089 251.657 533.524 252.625 531.776 253.015C531.553 253.032 531.329 253.032 531.105 253.015C530.295 252.998 529.507 252.75 528.833 252.3C529.038 251.993 529.242 251.675 529.447 251.323C529.651 250.971 529.913 250.55 530.174 250.187C530.553 250.437 530.993 250.579 531.446 250.596H531.798C532.92 250.305 533.924 249.674 534.672 248.789C534.864 248.538 535.144 248.367 535.456 248.312C535.594 248.299 535.734 248.315 535.865 248.36C535.997 248.405 536.117 248.478 536.217 248.574Z" fill="#F6A721"/>
<path opacity="0.5" d="M536.864 242.405C536.989 242.698 537.008 243.025 536.916 243.33C536.825 243.635 536.63 243.898 536.365 244.075C533.966 245.776 531.86 247.855 530.128 250.232C529.526 249.801 529.023 249.247 528.651 248.607C530.535 246.082 532.809 243.874 535.388 242.064C535.533 241.962 535.7 241.896 535.876 241.871C536.077 241.838 536.282 241.873 536.461 241.969C536.64 242.066 536.782 242.219 536.864 242.405Z" fill="#F6A721"/>
<path opacity="0.9" d="M528.651 248.608C529.022 249.248 529.526 249.802 530.128 250.232C529.866 250.596 529.628 250.982 529.401 251.368C529.173 251.755 528.992 252.039 528.787 252.345C528.185 251.931 527.658 251.416 527.231 250.823L527.56 250.278C527.895 249.703 528.259 249.145 528.651 248.608Z" fill="#F6A721"/>
<path opacity="0.5" d="M527.232 250.823C527.659 251.416 528.185 251.931 528.788 252.345C528.029 253.692 526.824 254.733 525.38 255.287C525.251 255.328 525.117 255.354 524.982 255.367H524.778C524.25 255.417 523.723 255.267 523.301 254.946C522.793 254.447 522.182 254.065 521.511 253.825C520.84 253.586 520.125 253.496 519.416 253.56C518.333 253.743 517.352 254.312 516.656 255.162C516.566 255.262 516.467 255.353 516.36 255.435C516.497 255.33 516.616 255.203 516.712 255.06C517.673 253.649 518.753 252.323 519.939 251.095C520.822 251.068 521.703 251.216 522.529 251.529C523.356 251.843 524.112 252.317 524.755 252.924C524.833 252.945 524.915 252.945 524.994 252.924C525.425 252.913 526.198 252.493 527.232 250.823Z" fill="#F6A721"/>
<path d="M515.872 255.66C516.061 255.633 516.24 255.559 516.392 255.445C516.242 255.553 516.067 255.623 515.883 255.649L515.872 255.66Z" fill="#F6A721"/>
<path opacity="0.9" d="M516.609 252.367C517.471 251.736 518.473 251.323 519.529 251.163H519.972C518.786 252.39 517.706 253.716 516.746 255.127C516.652 255.27 516.533 255.393 516.394 255.491L516.609 252.367Z" fill="#F6A721"/>
<path opacity="0.8" d="M524.675 245.734C525.454 245.71 526.221 245.922 526.878 246.341C527.535 246.761 528.049 247.369 528.355 248.085L528.651 248.608C528.243 249.144 527.864 249.701 527.515 250.278L527.185 250.823C526.874 250.411 526.597 249.974 526.356 249.517C525.845 248.562 525.22 248.108 524.436 248.153H524.243C522.982 248.324 521.392 249.585 519.926 251.096H519.483C518.427 251.256 517.426 251.669 516.564 252.3L516.621 251.539C518.438 249.267 521.437 246.097 524.243 245.7H524.584L524.675 245.734Z" fill="#F6A721"/>
<path d="M515.008 253.833C515.178 253.583 515.792 252.697 516.666 251.561L516.61 252.322C516.047 252.72 515.533 253.181 515.076 253.697C515.052 253.736 515.026 253.774 514.997 253.81L515.008 253.833Z" fill="#F6A721"/>
<path d="M515.076 253.742C514.953 253.908 514.864 254.098 514.815 254.299C514.751 254.514 514.753 254.743 514.82 254.957C514.887 255.172 515.015 255.361 515.19 255.503C515.279 255.559 515.374 255.605 515.474 255.639H515.531H515.667H515.871C516.061 255.612 516.241 255.538 516.394 255.423L516.61 252.345C516.046 252.75 515.532 253.219 515.076 253.742Z" fill="#F6A721"/>
<path d="M514.816 254.298C514.757 254.496 514.753 254.707 514.805 254.907C514.857 255.107 514.963 255.289 515.111 255.434C515.214 255.53 515.339 255.6 515.474 255.638C515.375 255.604 515.279 255.559 515.19 255.502C515.016 255.361 514.887 255.171 514.821 254.957C514.754 254.742 514.752 254.513 514.816 254.298Z" fill="#F6A721"/>
<path d="M514.837 254.196C514.832 254.23 514.832 254.264 514.837 254.298C514.832 254.264 514.832 254.23 514.837 254.196Z" fill="#F6A721"/>
<path d="M516.768 236.701C516.89 236.688 517.013 236.703 517.128 236.744C517.243 236.786 517.347 236.853 517.433 236.94C517.518 237.028 517.582 237.134 517.621 237.25C517.659 237.366 517.671 237.489 517.655 237.61L516.666 251.605C515.792 252.741 515.178 253.582 515.008 253.877C514.918 254.021 514.852 254.178 514.815 254.343C514.756 254.541 514.752 254.752 514.804 254.952C514.856 255.152 514.962 255.335 515.11 255.479C515.213 255.575 515.338 255.645 515.473 255.683H515.667H515.882C516.067 255.658 516.243 255.588 516.394 255.479L516.053 260.25L536.5 259.035C536.617 259.03 536.733 259.051 536.841 259.097C536.948 259.142 537.044 259.21 537.122 259.297C537.2 259.384 537.258 259.487 537.292 259.598C537.326 259.71 537.335 259.828 537.318 259.943C537.297 260.184 537.2 260.412 537.041 260.594C536.881 260.776 536.668 260.902 536.432 260.954L514.996 262.238C514.879 262.241 514.763 262.218 514.655 262.171C514.548 262.125 514.452 262.055 514.374 261.968C514.296 261.88 514.238 261.777 514.205 261.664C514.171 261.552 514.162 261.434 514.178 261.318L515.882 237.724C515.901 237.481 515.997 237.25 516.157 237.066C516.316 236.882 516.531 236.754 516.768 236.701Z" fill="#F6A721"/>
<path d="M209.808 253.81H209.967L215.646 253.549C215.9 253.542 216.152 253.592 216.384 253.694C216.616 253.795 216.823 253.947 216.99 254.138C217.157 254.329 217.28 254.554 217.35 254.798C217.42 255.042 217.436 255.298 217.396 255.548L216.885 261.773C216.846 262.293 216.639 262.787 216.294 263.178C215.95 263.57 215.487 263.838 214.976 263.943H214.806L209.126 264.204C208.873 264.209 208.623 264.159 208.392 264.056C208.161 263.953 207.956 263.801 207.79 263.611C207.624 263.42 207.502 263.195 207.433 262.953C207.363 262.71 207.348 262.454 207.388 262.205L207.899 255.969C207.937 255.449 208.144 254.957 208.489 254.567C208.833 254.177 209.297 253.911 209.808 253.81Z" fill="#00C6D7"/>
<path d="M238.934 231.978C243.966 231.75 247.715 236.033 247.26 241.543L244.988 269.805C244.557 275.02 240.535 279.484 235.821 280.143C235.549 280.143 235.287 280.211 235.003 280.222L207.183 281.506C202.14 281.744 198.402 277.45 198.857 271.941L201.129 243.678C201.549 238.464 205.582 234 210.296 233.341C210.569 233.341 210.83 233.273 211.102 233.261H211.511L211.727 230.614C211.761 230.095 211.968 229.603 212.313 229.214C212.659 228.825 213.124 228.562 213.636 228.468H213.806C214.059 228.463 214.309 228.513 214.54 228.616C214.771 228.718 214.977 228.87 215.142 229.061C215.308 229.252 215.43 229.476 215.499 229.719C215.569 229.962 215.584 230.217 215.544 230.467L215.328 233.102L233.958 232.239L234.174 229.603C234.212 229.083 234.421 228.589 234.768 228.199C235.115 227.809 235.581 227.544 236.094 227.445H236.253C236.507 227.44 236.759 227.491 236.991 227.594C237.223 227.698 237.43 227.85 237.597 228.042C237.764 228.234 237.887 228.46 237.957 228.704C238.027 228.948 238.042 229.205 238.002 229.456L237.775 232.08L238.934 231.978ZM241.138 269.976L243.001 247.143L204.514 248.926L202.64 271.805C202.367 275.02 204.548 277.485 207.501 277.382L235.321 276.099H235.787C237.215 275.815 238.511 275.072 239.477 273.983C240.443 272.894 241.026 271.518 241.138 270.067V269.976ZM243.409 241.815C243.671 238.6 241.49 236.135 238.548 236.238H237.412L237.184 238.862C237.147 239.382 236.941 239.876 236.596 240.268C236.251 240.66 235.788 240.928 235.276 241.031H235.185C234.932 241.038 234.68 240.989 234.448 240.887C234.217 240.785 234.01 240.633 233.844 240.442C233.678 240.251 233.556 240.025 233.487 239.782C233.419 239.538 233.405 239.282 233.447 239.032L233.663 236.397L215.033 237.271L214.817 239.895C214.778 240.415 214.571 240.909 214.227 241.3C213.882 241.692 213.42 241.96 212.909 242.065H212.738C212.486 242.07 212.235 242.019 212.004 241.917C211.773 241.814 211.568 241.662 211.402 241.472C211.236 241.281 211.114 241.056 211.045 240.813C210.976 240.57 210.96 240.315 211 240.066L211.205 237.43H210.807H210.341C208.912 237.71 207.614 238.452 206.647 239.542C205.68 240.632 205.098 242.009 204.991 243.462L204.889 244.712L243.387 242.928L243.489 241.679" fill="#00C6D7"/>
<path fill-rule="evenodd" clip-rule="evenodd" d="M554.064 483.582C554.797 487.226 554.23 491.012 552.462 494.282C551.66 495.518 550.752 496.681 549.747 497.759C549.565 497.952 549.383 498.156 549.213 498.361C547.964 499.781 546.703 501.144 545.737 502.166C545.549 502.378 545.298 502.526 545.021 502.586H544.896C544.729 502.607 544.56 502.59 544.4 502.538C544.24 502.485 544.094 502.397 543.972 502.28C543.85 502.164 543.756 502.022 543.696 501.865C543.635 501.708 543.611 501.539 543.624 501.371V499.406C541.136 499.622 538.001 499.122 536.343 497.497C534.252 495.43 533.741 492.226 533.684 489.898C533.571 485.842 534.82 482.537 537.274 480.571C539.185 479.205 541.414 478.353 543.749 478.095C545.161 477.904 546.588 477.859 548.009 477.959C549.517 478.037 550.95 478.643 552.057 479.671C553.164 480.699 553.874 482.083 554.064 483.582ZM551.053 493.419C552.565 490.591 553.032 487.321 552.371 484.184C552.226 483.02 551.673 481.946 550.809 481.153C549.946 480.361 548.828 479.901 547.657 479.856C546.353 479.756 545.043 479.802 543.749 479.992C541.743 480.189 539.821 480.901 538.171 482.059C535.638 484.104 535.343 487.739 535.388 489.625C535.434 491.511 535.877 494.373 537.581 496.066C538.955 497.429 542.056 497.827 544.272 497.509C544.411 497.492 544.552 497.506 544.686 497.55C544.819 497.593 544.941 497.666 545.043 497.763C545.145 497.859 545.225 497.977 545.276 498.108C545.327 498.239 545.349 498.379 545.339 498.52V500.133C546.157 499.247 547.1 498.224 548.043 497.145L548.588 496.52C549.498 495.551 550.323 494.506 551.053 493.396V493.419ZM543.999 492.306C544.136 492.279 544.278 492.285 544.413 492.325C544.547 492.365 544.67 492.436 544.771 492.533C544.875 492.637 544.956 492.761 545.008 492.898C545.061 493.035 545.085 493.181 545.078 493.328C545.083 493.654 544.974 493.971 544.771 494.225C544.58 494.466 544.304 494.625 543.999 494.668C543.861 494.692 543.72 494.684 543.586 494.645C543.452 494.606 543.329 494.536 543.226 494.441C543.022 494.223 542.912 493.933 542.92 493.635C542.915 493.312 543.024 492.999 543.226 492.749C543.418 492.508 543.694 492.349 543.999 492.306ZM544.438 483.399C544.301 483.37 544.159 483.37 544.022 483.401C543.725 483.436 543.451 483.577 543.249 483.798C543.143 483.908 543.06 484.038 543.006 484.18C542.951 484.323 542.926 484.475 542.931 484.627V484.786L543.454 490.83C543.465 490.99 543.529 491.142 543.636 491.261C543.688 491.303 543.748 491.334 543.812 491.351C543.877 491.369 543.944 491.373 544.01 491.364C544.156 491.343 544.289 491.27 544.385 491.159C544.495 491.019 544.559 490.849 544.567 490.671L545.124 484.48V484.309C545.133 484.171 545.11 484.032 545.057 483.904C545.004 483.776 544.922 483.662 544.817 483.571C544.704 483.487 544.575 483.428 544.438 483.399Z" fill="#C226FB"/>
<path d="M170.879 328.604C170.981 328.593 171.084 328.605 171.181 328.64C171.278 328.674 171.365 328.73 171.437 328.803C171.51 328.877 171.564 328.965 171.597 329.062C171.63 329.16 171.641 329.263 171.628 329.365C171.622 329.58 171.541 329.787 171.401 329.95C171.26 330.114 171.068 330.224 170.856 330.263C170.755 330.274 170.653 330.262 170.558 330.228C170.463 330.194 170.376 330.139 170.305 330.067C170.234 329.994 170.18 329.907 170.148 329.811C170.115 329.715 170.105 329.613 170.118 329.513C170.121 329.297 170.199 329.089 170.337 328.924C170.476 328.758 170.667 328.646 170.879 328.604Z" fill="#FF6E1D"/>
<path d="M172.4 325.833C172.633 325.813 172.867 325.845 173.086 325.926C173.305 326.008 173.503 326.137 173.666 326.304C173.829 326.472 173.953 326.673 174.029 326.894C174.104 327.115 174.13 327.35 174.104 327.582L173.991 330.581C173.962 331.077 173.773 331.549 173.451 331.927C173.129 332.304 172.692 332.566 172.207 332.671H172.139L169.379 332.944C169.146 332.966 168.912 332.936 168.693 332.855C168.474 332.775 168.276 332.647 168.113 332.481C167.95 332.314 167.825 332.113 167.75 331.893C167.674 331.672 167.648 331.438 167.675 331.206L167.788 328.196C167.805 327.698 167.991 327.221 168.315 326.844C168.639 326.466 169.083 326.209 169.572 326.117H169.64L172.4 325.833ZM172.264 330.74L172.378 327.753V327.685L169.606 327.969V328.037L169.492 331.024V331.092L172.253 330.808L172.309 330.74" fill="#FF6E1D"/>
<path d="M181.999 324.287L179.375 324.548C179.375 324.696 179.375 324.878 179.466 325.037C179.609 326.003 179.651 326.981 179.591 327.956L182.26 327.683C182.389 327.672 182.519 327.69 182.641 327.736C182.762 327.781 182.872 327.854 182.961 327.948C183.051 328.041 183.118 328.154 183.158 328.278C183.198 328.401 183.209 328.532 183.192 328.66C183.181 328.932 183.079 329.193 182.901 329.399C182.724 329.605 182.482 329.745 182.215 329.796L179.318 330.069C179.118 331.024 178.813 331.953 178.409 332.841L181.647 332.523C181.776 332.512 181.905 332.53 182.027 332.575C182.148 332.62 182.258 332.691 182.349 332.783C182.44 332.875 182.51 332.986 182.553 333.108C182.597 333.23 182.613 333.359 182.601 333.488L182.521 335.635C182.788 335.72 183.038 335.851 183.26 336.021C183.54 336.261 183.767 336.556 183.926 336.889C184.084 337.222 184.171 337.584 184.18 337.953C184.223 338.768 183.978 339.572 183.487 340.225C183.025 340.86 182.346 341.305 181.579 341.474H181.317C180.98 341.506 180.64 341.467 180.319 341.359C179.998 341.251 179.703 341.076 179.453 340.847C179.204 340.618 179.005 340.339 178.87 340.028C178.735 339.718 178.667 339.382 178.67 339.043C178.647 338.379 178.812 337.722 179.146 337.147C179.479 336.573 179.968 336.104 180.556 335.794V334.726L176.978 335.079L175.422 336.714L174.979 337.191C173.933 338.327 172.866 339.384 172.048 340.202C171.842 340.406 171.582 340.548 171.298 340.611H171.173C170.997 340.634 170.819 340.616 170.651 340.558C170.484 340.501 170.332 340.404 170.209 340.277C170.085 340.15 169.993 339.996 169.939 339.827C169.886 339.658 169.873 339.479 169.901 339.304V337.987C168.159 338.051 166.436 337.613 164.937 336.726H164.732L160.268 337.157V338.237C160.717 338.371 161.114 338.641 161.404 339.009C161.628 339.311 161.789 339.654 161.879 340.019C161.968 340.383 161.985 340.762 161.926 341.133C161.821 341.942 161.445 342.691 160.858 343.258C160.41 343.699 159.834 343.99 159.211 344.087H158.814C158.463 344.089 158.116 344.011 157.801 343.857C157.486 343.703 157.21 343.479 156.996 343.201C156.773 342.899 156.612 342.556 156.522 342.191C156.432 341.826 156.416 341.448 156.474 341.077C156.543 340.513 156.747 339.975 157.07 339.508C157.392 339.041 157.823 338.66 158.325 338.396L158.405 336.26C158.419 335.989 158.523 335.731 158.7 335.526C158.876 335.32 159.116 335.179 159.382 335.124L163.289 334.738C162.869 333.924 162.574 333.05 162.415 332.148L159.109 332.477C158.981 332.486 158.852 332.467 158.731 332.421C158.611 332.375 158.502 332.304 158.411 332.213C158.321 332.121 158.251 332.011 158.207 331.89C158.162 331.769 158.145 331.64 158.155 331.512C158.172 331.24 158.278 330.982 158.456 330.776C158.635 330.571 158.876 330.43 159.143 330.376L162.21 330.08C162.21 329.899 162.21 329.728 162.21 329.558C162.221 328.567 162.343 327.58 162.574 326.616L159.745 326.888C159.617 326.899 159.488 326.882 159.368 326.837C159.247 326.792 159.139 326.72 159.049 326.628C158.96 326.535 158.893 326.424 158.852 326.302C158.811 326.18 158.798 326.05 158.814 325.923L158.882 323.787C158.611 323.708 158.359 323.572 158.143 323.389C157.861 323.152 157.632 322.857 157.474 322.524C157.315 322.191 157.23 321.827 157.223 321.458C157.182 320.643 157.427 319.84 157.916 319.186C158.377 318.554 159.051 318.111 159.813 317.937H159.984C160.307 317.884 160.637 317.901 160.953 317.987C161.269 318.073 161.562 318.227 161.813 318.437C162.091 318.674 162.316 318.968 162.473 319.299C162.63 319.63 162.714 319.99 162.721 320.356C162.764 321.172 162.519 321.976 162.029 322.628C161.738 323.047 161.347 323.387 160.893 323.617V324.753L163.46 324.491C163.974 323.466 164.711 322.569 165.618 321.867C166.01 321.579 166.429 321.328 166.868 321.118L166.936 319.243C166.951 318.971 167.056 318.711 167.235 318.506C167.414 318.3 167.657 318.16 167.924 318.107C168.055 318.093 168.187 318.108 168.311 318.152C168.435 318.195 168.548 318.266 168.642 318.358C168.736 318.45 168.807 318.563 168.852 318.686C168.897 318.81 168.914 318.942 168.901 319.073L168.844 320.425C169.278 320.313 169.718 320.226 170.162 320.163L170.264 317.301C170.279 317.028 170.385 316.769 170.564 316.563C170.743 316.358 170.985 316.217 171.253 316.165C171.384 316.148 171.517 316.162 171.642 316.205C171.767 316.247 171.881 316.318 171.975 316.411C172.069 316.504 172.141 316.617 172.185 316.741C172.229 316.866 172.244 316.999 172.23 317.13L172.127 319.982C172.559 319.982 173.002 319.982 173.434 319.982V318.63C173.445 318.356 173.549 318.095 173.728 317.888C173.908 317.682 174.153 317.543 174.422 317.494C174.552 317.482 174.684 317.498 174.807 317.543C174.93 317.587 175.042 317.657 175.135 317.749C175.228 317.841 175.3 317.952 175.346 318.075C175.391 318.198 175.409 318.329 175.399 318.459L175.331 320.243C176.668 320.55 177.833 321.364 178.58 322.515L181.079 322.265L181.136 321.197C180.558 320.989 180.074 320.582 179.77 320.049C179.466 319.516 179.362 318.892 179.477 318.289C179.56 317.57 179.871 316.896 180.363 316.365C180.855 315.834 181.504 315.473 182.215 315.335H182.601C182.953 315.334 183.3 315.415 183.615 315.57C183.931 315.726 184.206 315.953 184.418 316.233C184.645 316.533 184.809 316.876 184.9 317.241C184.992 317.606 185.01 317.985 184.952 318.357C184.842 319.161 184.466 319.905 183.885 320.47C183.647 320.693 183.38 320.88 183.089 321.027L183.01 323.162C182.993 323.436 182.884 323.697 182.701 323.901C182.517 324.105 182.27 324.241 181.999 324.287ZM176.239 332.898C177.478 330.693 177.93 328.134 177.523 325.639C177.444 324.742 177.05 323.901 176.412 323.266C175.775 322.63 174.933 322.239 174.036 322.163C173.009 322.048 171.973 322.048 170.946 322.163L170.355 322.231C168.984 322.369 167.667 322.837 166.516 323.594C164.528 325.093 164.244 327.877 164.187 329.41C164.055 331.248 164.592 333.071 165.698 334.545C166.731 335.681 169.106 336.056 170.866 335.885C171.019 335.869 171.174 335.887 171.319 335.939C171.465 335.99 171.596 336.073 171.705 336.182C171.814 336.291 171.897 336.423 171.949 336.568C172 336.713 172.018 336.868 172.002 337.021V337.691C172.559 337.123 173.138 336.499 173.774 335.851L174.24 335.363C174.997 334.619 175.682 333.805 176.285 332.932L176.239 332.898ZM181.454 318.323C181.432 318.426 181.433 318.533 181.457 318.636C181.481 318.739 181.527 318.835 181.592 318.918C181.657 319.001 181.739 319.07 181.833 319.118C181.927 319.166 182.03 319.193 182.135 319.198H182.249C182.449 319.156 182.632 319.053 182.771 318.902C182.909 318.751 182.997 318.561 183.021 318.357C183.057 318.138 183.003 317.913 182.874 317.732C182.809 317.653 182.728 317.589 182.636 317.546C182.543 317.502 182.442 317.481 182.34 317.482H182.249C182.044 317.52 181.856 317.621 181.713 317.772C181.57 317.924 181.479 318.117 181.454 318.323ZM160.052 341.258C160.07 341.151 160.066 341.042 160.041 340.937C160.015 340.831 159.969 340.732 159.904 340.645C159.84 340.567 159.761 340.503 159.671 340.458C159.581 340.413 159.482 340.388 159.382 340.384H159.257C159.055 340.427 158.872 340.533 158.734 340.686C158.595 340.838 158.508 341.031 158.484 341.236C158.467 341.342 158.471 341.452 158.497 341.557C158.522 341.662 158.568 341.762 158.632 341.849C158.695 341.926 158.775 341.989 158.865 342.032C158.956 342.075 159.054 342.098 159.155 342.099H159.291C159.462 342.07 159.62 341.991 159.745 341.872C159.908 341.704 160.015 341.489 160.052 341.258ZM181.385 337.691C181.165 337.748 180.971 337.878 180.835 338.06C180.699 338.241 180.628 338.464 180.636 338.691C180.634 338.792 180.655 338.893 180.697 338.985C180.739 339.078 180.8 339.16 180.877 339.226C180.954 339.292 181.044 339.34 181.142 339.368C181.24 339.395 181.342 339.401 181.442 339.384C181.661 339.331 181.854 339.202 181.987 339.02C182.126 338.833 182.198 338.605 182.192 338.373C182.179 338.164 182.085 337.969 181.931 337.828C181.803 337.722 181.642 337.666 181.476 337.669H181.397L181.385 337.691ZM160.586 321.447C160.729 321.263 160.802 321.033 160.79 320.799C160.78 320.587 160.686 320.387 160.529 320.243C160.389 320.137 160.216 320.085 160.041 320.095H159.95C159.728 320.141 159.532 320.271 159.404 320.459C159.268 320.647 159.196 320.874 159.2 321.106C159.205 321.211 159.231 321.314 159.278 321.408C159.325 321.502 159.391 321.585 159.473 321.651C159.601 321.754 159.763 321.806 159.927 321.799H160.041C160.262 321.758 160.458 321.632 160.586 321.447Z" fill="#FF6E1D"/>
<path fill-rule="evenodd" clip-rule="evenodd" d="M826.035 424.056C828.374 418.299 835.754 416.186 842.296 418.867C848.834 421.546 852.643 428.222 850.278 433.969C849.691 435.395 848.857 436.418 847.772 437.047C846.695 437.671 845.467 437.852 844.188 437.773C841.682 437.621 838.695 436.448 835.621 435.191C832.546 433.935 829.594 432.678 827.702 431.032C826.735 430.191 825.987 429.202 825.658 428.002C825.327 426.794 825.452 425.482 826.035 424.056ZM841.606 420.548C835.676 418.118 829.561 420.207 827.719 424.741L827.718 424.743C827.251 425.884 827.208 426.781 827.411 427.522C827.617 428.272 828.104 428.973 828.895 429.66C830.515 431.07 833.158 432.221 836.308 433.509C839.459 434.797 842.152 435.828 844.298 435.959C845.345 436.023 846.186 435.866 846.86 435.475C847.527 435.088 848.127 434.418 848.597 433.277C850.457 428.755 847.542 422.981 841.606 420.548Z" fill="white"/>
<path d="M829.649 420.856L837.01 402.839L840.521 394.251C843.226 396.11 846.125 397.672 849.165 398.909L851.437 399.829C854.472 401.074 857.634 401.984 860.866 402.544L857.458 410.78L849.938 429.16C850.165 430.666 849.993 432.206 849.438 433.624C847.336 438.759 842.202 436.896 835.965 434.351C829.729 431.807 824.355 433.089 826.468 427.954C827.054 426.543 830.113 419.721 829.649 420.856Z" fill="#CB8591"/>
<path d="M842.861 307.135L824.435 352.188C822.155 357.735 820.992 363.678 821.015 369.675C821.037 375.673 822.244 381.607 824.567 387.137C826.889 392.666 830.28 397.683 834.546 401.899C838.813 406.114 843.87 409.445 849.427 411.701L851.699 412.61C854.731 413.864 857.893 414.778 861.127 415.336C871.375 417.107 881.92 415.324 891.016 410.284C900.112 405.243 907.213 397.247 911.144 387.619L929.569 342.566C931.837 337.018 932.99 331.077 932.962 325.082C932.933 319.088 931.724 313.159 929.403 307.632C927.082 302.105 923.695 297.09 919.436 292.873C915.176 288.655 910.127 285.318 904.578 283.053L902.306 282.133C891.106 277.58 878.558 277.656 867.414 282.343C856.27 287.03 847.44 295.946 842.861 307.135Z" fill="#CB8591"/>
<path d="M876.19 352.561C877.678 355.026 878.905 361.342 865.489 372.827C864.866 373.378 864.117 373.768 863.308 373.963C862.839 374.07 862.356 374.104 861.877 374.065C861.694 374.046 861.52 373.982 861.367 373.881C861.214 373.779 861.089 373.642 861 373.482C860.912 373.321 860.864 373.141 860.861 372.958C860.857 372.775 860.898 372.593 860.979 372.429C862.49 368.817 868.613 354.663 872.578 351.334C873.623 350.425 875.679 351.732 876.19 352.561Z" fill="#CB8591"/>
<path d="M465.219 531.497C455.751 530.849 446.244 531.085 436.82 532.202L1.17541 584.195C0.86506 584.236 0.578506 584.383 0.364653 584.612C0.1508 584.84 0.0229041 585.136 0.0027939 585.448C-0.0173163 585.761 0.0716056 586.07 0.254383 586.324C0.43716 586.579 0.702464 586.761 1.00501 586.842L261.767 652.228C262.512 652.42 263.294 652.42 264.039 652.228L690.027 547.049L465.219 531.497Z" fill="#FFD29E"/>
<path fill-rule="evenodd" clip-rule="evenodd" d="M566.157 438.658C572.385 433.392 581.703 434.172 586.969 440.4L579.43 446.774C586.969 440.4 586.968 440.4 586.969 440.4L587.571 441.11C587.969 441.58 588.557 442.273 589.314 443.162C590.826 444.939 593.01 447.498 595.684 450.613C601.034 456.847 608.338 465.296 616.163 474.174C632.255 492.43 649.259 510.998 656.662 517.113C662.951 522.307 663.838 531.615 658.644 537.903C653.45 544.191 644.141 545.078 637.853 539.884C628.217 531.925 609.438 511.211 594.007 493.704C586.07 484.7 578.677 476.147 573.272 469.85C570.568 466.699 568.358 464.109 566.822 462.305C566.054 461.403 565.455 460.697 565.046 460.215L564.416 459.471C564.415 459.47 564.415 459.47 575.692 449.935L564.415 459.47C559.149 453.242 559.929 443.924 566.157 438.658Z" fill="#CB8591"/>
<path fill-rule="evenodd" clip-rule="evenodd" d="M676.381 423.414C682.609 418.148 691.926 418.928 697.192 425.156L689.494 431.665C697.192 425.156 697.192 425.156 697.192 425.156L697.794 425.866C698.193 426.336 698.781 427.029 699.537 427.918C701.05 429.695 703.233 432.253 705.907 435.369C711.258 441.603 718.562 450.052 726.387 458.93C742.478 477.186 759.483 495.753 766.886 501.869C773.174 507.063 774.061 516.371 768.867 522.659C763.673 528.947 754.365 529.834 748.077 524.64C738.441 516.681 719.662 495.967 704.23 478.459C696.294 469.456 688.901 460.903 683.496 454.605C680.791 451.455 678.582 448.865 677.046 447.061C676.278 446.159 675.678 445.452 675.27 444.971L674.64 444.227C674.639 444.226 674.638 444.226 685.915 434.691L674.638 444.226C669.373 437.998 670.152 428.68 676.381 423.414Z" fill="#CB8591"/>
<path d="M418.077 754C418.077 754 397.232 774.345 395.017 776.424C392.802 778.503 387.508 787.261 348.226 728.407C346.716 726.135 344.08 723.102 343.932 720.16C343.876 718.91 352.486 710.981 357.28 710.549C360.813 710.231 364.914 711.504 369.446 715.707C369.446 715.707 380.897 726.919 390.2 731.872C393.302 733.53 405.195 727.055 407.592 727.396C417.18 728.759 428.278 745.344 428.278 745.344L418.077 754Z" fill="#6A2026"/>
<path d="M564.104 702.734C564.104 702.734 540.34 715.48 537.83 716.764C535.319 718.047 528.367 724.477 508.533 662.021C507.772 659.625 506.261 656.239 506.829 653.581C507.102 652.445 516.791 647.606 521.176 648.458C524.391 649.083 527.719 651.264 530.673 656.171C530.673 656.171 537.977 669.098 544.986 675.892C547.258 678.164 559.572 675.449 561.617 676.369C569.784 680.049 575.407 697.645 575.407 697.645L564.104 702.734Z" fill="#6A2026"/>
<path d="M408.023 722.966L393.256 732.27C393.256 732.27 390.984 754.399 412.397 759.533L432.163 742.425L413.908 719.706L408.023 722.966Z" fill="#CB8591"/>
<path d="M563.106 672.528L547.577 677.015C547.577 677.015 539.932 696.144 557.607 706.209L579.588 696.065L569.16 671.165L563.106 672.528Z" fill="#BC7785"/>
<path d="M717.87 607.665L596.515 647.935L559.459 664.1C559.459 664.1 561.55 689 578.941 698.645L733.547 618.65L717.87 607.665Z" fill="#073985"/>
<path d="M702 611.673C702 611.673 690.936 625.714 660.231 611.673C629.525 597.633 582.496 574.391 582.496 574.391C582.496 574.391 549.303 559.862 527.447 586.773C505.591 613.684 408.75 716.33 405.99 716.183C403.229 716.035 418.167 745.911 433.105 745.911C433.105 745.911 510.124 680.752 535.797 656.056C542.192 649.899 561.39 622.533 561.39 622.533C561.39 622.533 595.651 650.932 619.563 669.006C626.137 674.077 633.019 678.735 640.17 682.955C661.06 694.463 706.158 721.965 752.222 657.033L702 611.673Z" fill="#0747A6"/>
<path d="M827.735 424.787C827.735 424.787 776.143 431.645 769.509 438.279C764.693 443.096 724.298 483.786 703.044 506.369C672.679 538.631 658.298 508.562 658.298 508.562L642.179 541.959L660.502 560.01C660.502 560.01 673.781 570.517 688.174 560.01C702.567 549.502 736.862 527.714 736.862 527.714C736.862 527.714 709.201 609.118 701.999 611.673C701.999 611.673 705.327 650.853 747.369 656.056L758.445 658.328H774.485L887.355 494.203C887.355 494.203 891.785 462.771 879.062 450.536C866.339 438.302 851.801 426.054 851.801 426.054L827.735 424.787Z" fill="#F6A721"/>
<path d="M668.669 519.443C663.296 518.648 648.813 541.595 649.721 547.263C650.005 549.126 652.686 552.296 652.686 552.296C652.686 552.296 646.677 552.898 642.247 549.535C637.816 546.173 636.158 543.117 637.123 536.097C638.373 527.111 651.652 506.561 662.717 508.833C665.545 509.401 675.769 516.387 675.088 521.102C673.976 521.162 672.864 520.984 671.827 520.579C670.441 520.136 669.033 519.511 668.669 519.443Z" fill="#E79B1A"/>
<path opacity="0.06" d="M827.61 910.494C830.197 892.453 776.664 869.851 708.041 860.012C639.417 850.172 581.69 856.82 579.103 874.861C576.516 892.901 630.049 915.503 698.673 925.343C767.296 935.183 825.023 928.535 827.61 910.494Z" fill="#0A0F1A"/>
<path d="M617.769 837.995C618.979 837.63 620.246 837.492 621.506 837.586C620.264 836.57 618.8 835.86 617.232 835.515C615.665 835.17 614.038 835.199 612.484 835.599C610.93 835.999 609.492 836.759 608.286 837.819C607.08 838.878 606.141 840.206 605.544 841.695C604.947 843.185 604.708 844.794 604.849 846.393C604.989 847.992 605.504 849.535 606.351 850.898C607.198 852.261 608.355 853.405 609.727 854.238C611.098 855.071 612.647 855.57 614.247 855.693C612.822 854.517 611.742 852.977 611.122 851.237C610.502 849.496 610.366 847.62 610.727 845.808C611.088 843.996 611.934 842.316 613.174 840.946C614.414 839.576 616.001 838.568 617.769 838.029V837.995Z" fill="url(#paint2_linear_10272_1621)"/>
<path d="M624.823 842.48C624.233 840.546 623.083 838.831 621.519 837.551C619.955 836.271 618.047 835.483 616.035 835.287C614.024 835.091 611.999 835.496 610.217 836.45C608.436 837.405 606.977 838.865 606.025 840.648C605.073 842.431 604.671 844.457 604.87 846.468C605.069 848.479 605.859 850.387 607.141 851.949C608.423 853.511 610.14 854.659 612.074 855.246C614.008 855.833 616.073 855.834 618.007 855.248C619.294 854.858 620.491 854.219 621.53 853.366C622.569 852.513 623.43 851.464 624.063 850.278C624.696 849.092 625.089 847.792 625.22 846.454C625.35 845.116 625.215 843.766 624.823 842.48Z" fill="#3A4A65"/>
<path d="M686.971 817.762C686.971 817.762 637.079 811.571 631.183 815.262C625.288 818.954 619.562 828.076 619.562 828.076H686.971L692.151 825.236L686.971 817.762Z" fill="url(#paint3_linear_10272_1621)"/>
<path d="M686.971 817.762C686.971 817.762 637.079 811.571 631.183 815.262C625.288 818.954 619.562 828.076 619.562 828.076H686.971L692.151 825.236L686.971 817.762Z" fill="#0A0F1A"/>
<path d="M721.925 826.156L752.596 834.733C752.596 834.733 766.307 840.81 764.603 849.251C762.899 857.691 741.316 844.957 741.316 844.957L719.517 832.858V826.156H721.925Z" fill="url(#paint4_linear_10272_1621)"/>
<path d="M721.925 826.156L752.596 834.733C752.596 834.733 766.307 840.81 764.603 849.251C762.899 857.691 741.316 844.957 741.316 844.957L719.517 832.858V826.156H721.925Z" fill="#0A0F1A"/>
<path d="M686.165 823.362L602.103 825.225C602.103 825.225 587.529 825.043 580.702 832.416C573.875 839.788 562.81 854.919 562.81 854.919L561.981 855.976C565.106 857.66 567.482 860.458 568.638 863.814L583.099 848.092C583.099 848.092 587.711 840.526 603.546 840.526C619.382 840.526 691.016 837.391 691.016 837.391L694.526 829.644L686.165 823.362Z" fill="#1A2437"/>
<path d="M760.071 856.738C758.975 855.926 757.733 855.332 756.413 854.989C758.043 854.385 759.792 854.176 761.518 854.376C763.244 854.576 764.899 855.181 766.347 856.141C767.795 857.102 768.996 858.39 769.853 859.902C770.709 861.414 771.196 863.107 771.275 864.843C771.354 866.579 771.022 868.309 770.306 869.892C769.59 871.476 768.511 872.868 767.156 873.956C765.8 875.043 764.208 875.795 762.507 876.151C760.806 876.507 759.045 876.457 757.367 876.004C759.403 875.261 761.17 873.928 762.445 872.176C763.305 871.007 763.925 869.68 764.271 868.271C764.617 866.862 764.682 865.398 764.461 863.964C764.241 862.53 763.739 861.154 762.986 859.914C762.233 858.674 761.242 857.594 760.071 856.738Z" fill="#0A0F1A"/>
<path d="M751.336 858.816C752.611 857.063 754.379 855.731 756.414 854.987C757.734 855.331 758.976 855.925 760.072 856.737C761.243 857.593 762.233 858.672 762.987 859.912C763.74 861.152 764.241 862.529 764.462 863.963C764.682 865.397 764.618 866.861 764.272 868.27C763.926 869.679 763.305 871.006 762.446 872.175C761.171 873.927 759.403 875.259 757.368 876.003C756.048 875.659 754.806 875.065 753.71 874.253C752.539 873.397 751.549 872.318 750.795 871.078C750.042 869.838 749.541 868.461 749.32 867.027C749.1 865.593 749.164 864.129 749.51 862.72C749.856 861.311 750.476 859.984 751.336 858.816Z" fill="#3A4A65"/>
<path d="M705.931 839.982L789.799 871.698C789.799 871.698 801.602 874.651 803.079 881.66C804.556 888.669 804.783 891.248 804.783 891.248H816.143C816.143 891.248 815.268 870.959 795.695 863.212C776.122 855.465 720.812 828.077 720.812 828.077L706.431 832.621L698.661 839.243L705.931 839.982Z" fill="#1A2437"/>
<path d="M692.101 825.315L708.011 828.172L697.045 889.242C696.666 891.35 695.466 893.222 693.707 894.445C691.948 895.668 689.776 896.142 687.668 895.764C685.559 895.385 683.688 894.185 682.465 892.426C681.241 890.668 680.767 888.495 681.146 886.387L692.112 825.317L692.101 825.315Z" fill="#1A2437"/>
<path d="M723.629 828.096C724.789 822.641 717.264 816.417 706.819 814.195C696.375 811.974 686.967 814.595 685.807 820.05C684.646 825.505 692.172 831.729 702.617 833.951C713.061 836.173 722.468 833.552 723.629 828.096Z" fill="#1A2437"/>
<path d="M717.469 825.999C718.215 822.495 713.178 818.454 706.219 816.974C699.26 815.493 693.015 817.134 692.27 820.638C691.524 824.141 696.561 828.182 703.52 829.662C710.479 831.143 716.724 829.502 717.469 825.999Z" fill="#222D43"/>
<path d="M716.018 745.913L696.706 819.603C696.592 820.047 696.568 820.509 696.637 820.962C696.705 821.414 696.864 821.849 697.104 822.239C698.751 824.908 703.34 830.282 712.473 827.101C712.924 826.946 713.33 826.682 713.654 826.334C713.979 825.985 714.214 825.562 714.336 825.102L731.751 756.182L716.018 745.913Z" fill="#1A2437"/>
<path d="M713.053 722.113L707.6 743.231C707.6 743.231 706.737 754.443 721.8 758.782C730.536 761.293 736.568 760.589 740.078 759.543C741.178 759.225 742.185 758.645 743.014 757.854C743.842 757.063 744.468 756.084 744.838 755L752.573 731.69L713.053 722.113Z" fill="#1A2437"/>
<path d="M557.732 854.874L560.89 851.909C560.89 851.909 563.23 851.057 564.707 851.909C566.184 852.761 572.58 858.918 572.58 858.918C572.58 858.918 573.591 861.258 572.58 862.429C571.569 863.599 568.376 866.473 568.376 866.473L557.732 854.874Z" fill="#0A0F1A"/>
<path d="M820.345 888.135L818.335 883.841C818.335 883.841 816.301 882.012 814.438 882.285C812.575 882.557 803.578 886.226 803.578 886.226C803.578 886.226 801.602 888.203 802.158 889.805C802.715 891.406 804.794 895.632 804.794 895.632L820.345 888.135Z" fill="#0A0F1A"/>
<path d="M677.236 892.542C677.236 892.542 675.941 881.819 682.427 881.819C684.699 881.819 695.832 882.75 698.149 885.386C700.057 887.544 697.297 896.745 697.297 896.745L677.236 892.542Z" fill="#0A0F1A"/>
<path d="M561.924 859.667C563.665 859.667 565.391 859.99 567.013 860.621C565.79 858.769 564.146 857.231 562.216 856.133C560.285 855.035 558.123 854.408 555.905 854.304C553.687 854.199 551.475 854.62 549.45 855.531C547.425 856.442 545.644 857.819 544.251 859.548C542.859 861.278 541.894 863.312 541.436 865.485C540.977 867.657 541.038 869.908 541.614 872.052C542.189 874.197 543.262 876.176 544.747 877.827C546.231 879.479 548.084 880.757 550.156 881.557C548.75 879.431 547.946 876.963 547.83 874.417C547.715 871.871 548.291 869.34 549.498 867.095C550.705 864.85 552.498 862.974 554.686 861.666C556.874 860.358 559.375 859.667 561.924 859.667Z" fill="#0A0F1A"/>
<path d="M569.364 868.415C569.363 865.642 568.546 862.932 567.013 860.622C564.222 859.544 561.161 859.381 558.272 860.156C555.383 860.931 552.815 862.604 550.939 864.934C549.062 867.264 547.975 870.13 547.835 873.118C547.694 876.106 548.506 879.062 550.155 881.558C552.292 882.392 554.6 882.692 556.879 882.431C559.158 882.171 561.339 881.357 563.232 880.062C565.125 878.767 566.674 877.028 567.742 874.999C568.811 872.969 569.368 870.709 569.364 868.415Z" fill="#3A4A65"/>
<path d="M679.962 907.402C679.962 898.689 684.892 891.396 691.492 889.545C689.738 888.627 687.791 888.144 685.812 888.136C677.621 888.136 670.976 896.338 670.976 906.471C670.976 916.604 677.621 924.794 685.812 924.794C686.93 924.79 688.042 924.634 689.117 924.328C683.733 921.579 679.962 915.025 679.962 907.402Z" fill="#0A0F1A"/>
<path d="M700.614 906.469C700.614 898.836 696.854 892.304 691.526 889.543C684.926 891.395 679.996 898.688 679.996 907.401C679.996 915.023 683.768 921.555 689.084 924.327C695.684 922.464 700.614 915.182 700.614 906.469Z" fill="#3A4A65"/>
<path d="M815.881 890.635C814.266 889.45 812.444 888.575 810.508 888.056C812.905 887.168 815.478 886.859 818.017 887.153C820.556 887.447 822.99 888.337 825.12 889.749C827.25 891.162 829.017 893.057 830.276 895.282C831.535 897.506 832.251 899.997 832.366 902.55C832.48 905.104 831.99 907.648 830.935 909.977C829.881 912.305 828.291 914.351 826.296 915.949C824.3 917.547 821.956 918.651 819.454 919.171C816.951 919.691 814.361 919.613 811.894 918.943C814.888 917.852 817.49 915.895 819.369 913.32C820.63 911.602 821.541 909.652 822.048 907.582C822.556 905.512 822.65 903.362 822.327 901.255C822.003 899.148 821.267 897.126 820.161 895.304C819.055 893.481 817.601 891.895 815.881 890.635Z" fill="#0A0F1A"/>
<path d="M803.033 893.691C804.907 891.099 807.509 889.122 810.508 888.011C813.833 888.906 816.786 890.836 818.941 893.521C821.097 896.206 822.341 899.508 822.496 902.947C822.65 906.387 821.706 909.787 819.8 912.654C817.894 915.522 815.125 917.708 811.894 918.898C809.958 918.385 808.135 917.515 806.521 916.33C803.064 913.785 800.756 909.974 800.102 905.731C799.449 901.488 800.503 897.158 803.033 893.691Z" fill="#3A4A65"/>
<path d="M852.869 491.818C873.998 495.566 905.782 501.224 917.244 496.93C934.943 490.296 934.386 485.309 946.007 487.524C957.628 489.739 960.4 509.107 943.247 533.451C926.094 557.795 853.051 693.35 853.051 693.35C853.051 693.35 830.922 748.126 727.458 730.973C623.994 713.82 619.541 677.855 619.541 677.855V669.006L643.328 684.501C643.328 684.501 696.446 712.718 722.46 685.057C748.474 657.397 784.938 492.499 784.938 492.499C784.938 492.499 788.346 477.527 805.386 477.868C812.258 478.004 828.707 487.524 852.869 491.818Z" fill="#1A2437"/>
<path d="M627.311 573.29C627.311 573.29 648.053 600.678 659.958 605.097C659.958 605.097 635.614 678.685 634.774 683.672C633.933 688.659 628.696 705.256 645.566 711.89C662.435 718.524 662.719 709.402 662.719 709.402L690.936 618.104C690.936 618.104 711.384 626.056 722.471 625.465C723.03 625.444 723.588 625.387 724.141 625.295L730.082 610.913L633.399 557.239C633.399 557.239 623.164 559.727 627.311 573.29Z" fill="#1A2437"/>
<path d="M629.515 559.454C629.515 559.454 672.455 604.802 728.344 615.185L730.117 610.913L633.434 557.239L629.515 559.454Z" fill="#1A2437"/>
<path d="M690.937 618.103L684.019 618.932L650.53 713.593C650.53 713.593 660.413 717.534 662.424 710.673C664.435 703.812 690.937 618.103 690.937 618.103Z" fill="#1A2437"/>
<path d="M721.233 611.322L717.757 625.317C717.757 625.317 722.891 625.715 724.141 625.317L728.946 613.685L721.233 611.322Z" fill="#1A2437"/>
<path d="M850.575 258.963C856.7 258.258 865.309 264.301 870.955 260.895C876.602 257.49 889.008 258.045 894.131 268.433C899.254 278.821 908.553 276.729 908.553 276.729C931.495 275.32 933.956 291.185 934.68 295.189C935.404 299.192 928.187 294.228 944.413 307.424C960.64 320.62 953.657 336.347 949.481 338.386C945.304 340.425 945.728 344.013 942.687 355.97C942.027 357.772 940.971 359.418 939.591 360.796C935.728 371.238 931.103 381.406 925.748 391.224C925.748 391.224 915.725 423.596 891.859 423.863C867.993 424.129 867.703 412.118 859.941 421.044C852.179 429.97 813.969 413.004 811.04 401.42C808.111 389.836 801.652 388.374 805.973 380.313C810.294 372.252 815.695 360.476 822.188 358.554C828.68 356.632 827.689 369.06 833.38 373.33C843.125 380.622 866.189 334.233 875.577 340.5C879.185 342.902 890.055 336.411 890.857 335.888C894.743 333.219 895.813 326.279 897.316 325.136C904.377 319.627 899.02 314.759 898.107 313.766C896.782 312.314 897.149 303.559 867.837 308.513C846.677 312.1 826.42 294.975 828.992 279.846C829.746 274.594 832.258 269.719 836.15 265.953C840.042 262.187 845.104 259.734 850.575 258.963Z" fill="#2C2A46"/>
<path d="M287.649 544.247L324 572.419C324.888 573.099 325.627 573.954 326.172 574.931C326.717 575.908 327.057 576.986 327.17 578.098C327.76 584.46 326.977 597.614 312.743 606.702C311.251 607.634 309.562 608.205 307.811 608.368C306.059 608.532 304.294 608.284 302.655 607.645L256.796 590.299L287.649 544.247Z" fill="#FF6E1D"/>
<path d="M290.91 576.955C297.603 562.583 294.752 547.078 284.544 542.324C274.335 537.57 260.633 545.367 253.941 559.739C247.248 574.111 250.099 589.616 260.307 594.369C270.516 599.123 284.218 591.326 290.91 576.955Z" fill="#FF8947"/>
<path d="M287.125 573.948C292.369 562.687 290.137 550.54 282.141 546.816C274.145 543.093 263.411 549.203 258.167 560.464C252.923 571.725 255.155 583.872 263.151 587.596C271.148 591.32 281.881 585.209 287.125 573.948Z" fill="#DC6624"/>
<path d="M281.026 582.676C283.565 580.153 285.631 577.194 287.126 573.941C289.285 569.458 290.229 564.487 289.863 559.525C289.863 559.525 283.048 570.965 274.573 571.555C266.099 572.146 254.41 567.205 250.411 579.621C247.855 587.572 253.365 589.844 258.136 589.458C261.419 589.186 256.227 597.092 258.283 599.739C260.34 602.385 265.417 601.624 267.678 597.171C270.245 592.105 281.026 582.676 281.026 582.676Z" fill="#2EC4FF"/>
<path d="M245.879 590.062C242.346 592.731 241.335 595.742 239.416 594.344C237.496 592.947 237.825 588.54 239.688 585.825C241.551 583.11 244.698 581.996 246.652 583.382C249.049 585.064 249.992 586.961 245.879 590.062Z" fill="#2EC4FF"/>
<path d="M249.651 604.318C246.516 607.431 245.743 608.975 243.608 607.885C241.472 606.794 241.461 603.886 242.949 600.956C244.437 598.025 247.402 596.48 249.526 597.548C252.105 598.945 253.298 600.683 249.651 604.318Z" fill="#2EC4FF"/>
<defs>
<linearGradient id="paint0_linear_10272_1621" x1="249.033" y1="806.891" x2="257.45" y2="806.891" gradientUnits="userSpaceOnUse">
<stop offset="0.44" stop-color="#242B36"/>
<stop offset="1" stop-color="#1D1D1D"/>
</linearGradient>
<linearGradient id="paint1_linear_10272_1621" x1="10.0698" y1="727.863" x2="35.0043" y2="727.863" gradientUnits="userSpaceOnUse">
<stop stop-color="#1D1D1D"/>
<stop offset="0.56" stop-color="#242B36"/>
</linearGradient>
<linearGradient id="paint2_linear_10272_1621" x1="604.773" y1="845.447" x2="621.506" y2="845.447" gradientUnits="userSpaceOnUse">
<stop stop-color="#52636C"/>
<stop offset="0.04" stop-color="#4D5B66"/>
<stop offset="0.16" stop-color="#404757"/>
<stop offset="0.31" stop-color="#38394C"/>
<stop offset="0.48" stop-color="#333146"/>
<stop offset="0.8" stop-color="#312F44"/>
</linearGradient>
<linearGradient id="paint3_linear_10272_1621" x1="40207.1" y1="9718.08" x2="44845.5" y2="9718.08" gradientUnits="userSpaceOnUse">
<stop stop-color="#F5F8F9"/>
<stop offset="0.44" stop-color="#DEE8EC"/>
<stop offset="1" stop-color="#D2DFE6"/>
</linearGradient>
<linearGradient id="paint4_linear_10272_1621" x1="29367.5" y1="17779" x2="31168.7" y2="17779" gradientUnits="userSpaceOnUse">
<stop stop-color="#F5F8F9"/>
<stop offset="0.44" stop-color="#DEE8EC"/>
<stop offset="1" stop-color="#D2DFE6"/>
</linearGradient>
</defs>
</svg>
