<svg width="1080" height="1094" viewBox="0 0 1080 1094" fill="none" xmlns="http://www.w3.org/2000/svg">
<g style="mix-blend-mode:luminosity" opacity="0.16">
<path d="M905.271 712.482C905.271 712.482 707.407 975.681 483.875 1011.5C260.342 1047.31 157.594 951.021 165.302 848.013C173.01 745.004 206.386 671.091 139.635 590.458C72.8835 509.826 -19.6897 444.849 47.1387 245.485C113.967 46.1207 298.882 -16.5712 417.123 3.58692C535.364 23.7451 545.539 135.757 684.283 164.852C823.027 193.947 997.768 140.259 1044.02 285.801C1090.26 431.343 997.768 603.494 905.271 712.482Z" fill="#B9CBD3"/>
</g>
<g opacity="0.1" filter="url(#filter0_f_10272_1608)">
<path d="M806.95 1046.81C806.95 1065.14 693.699 1080 553.997 1080C414.295 1080 301.044 1065.14 301.044 1046.81C301.044 1028.49 414.295 1013.63 553.997 1013.63C693.699 1013.63 806.95 1028.49 806.95 1046.81Z" fill="#0A0F1A"/>
</g>
<path fill-rule="evenodd" clip-rule="evenodd" d="M516.172 99.2905H607.254V231.774H516.172V99.2905ZM518.538 101.656V229.408H604.889V101.656H518.538Z" fill="#00C6D7"/>
<path d="M590.694 124.131H532.732V208.116H590.694V124.131Z" fill="#00C6D7"/>
<path fill-rule="evenodd" clip-rule="evenodd" d="M643.923 99.2905H733.822V231.774H643.923V99.2905ZM646.289 101.656V229.408H731.457V101.656H646.289Z" fill="#00C6D7"/>
<path d="M717.263 124.131H660.484V208.116H717.263V124.131Z" fill="#00C6D7"/>
<path fill-rule="evenodd" clip-rule="evenodd" d="M388.42 99.2905H479.502V231.774H388.42V99.2905ZM390.786 101.656V229.408H477.137V101.656H390.786Z" fill="#00C6D7"/>
<path d="M462.943 124.131H406.164V208.116H462.943V124.131Z" fill="#00C6D7"/>
<path fill-rule="evenodd" clip-rule="evenodd" d="M991.291 1030.91L902.745 705.266L921.272 700.228L1009.82 1025.88L991.291 1030.91Z" fill="#202C44"/>
<path fill-rule="evenodd" clip-rule="evenodd" d="M670.634 1034.88L759.196 709.233L777.722 714.271L689.16 1039.92L670.634 1034.88Z" fill="#202C44"/>
<path d="M704.251 700.764H790.682V409.55C790.682 407.359 791.552 405.258 793.101 403.709C794.651 402.159 796.752 401.289 798.943 401.289H1004.3C1005.05 401.289 1005.8 401.437 1006.49 401.725C1007.18 402.012 1007.81 402.433 1008.34 402.964C1008.87 403.496 1009.29 404.126 1009.58 404.819C1009.86 405.513 1010.01 406.256 1010 407.006V651.312C1010 679.169 987.435 715.932 959.577 715.932H703.92C702.867 715.932 701.825 715.712 700.861 715.287C699.897 714.863 699.032 714.242 698.32 713.466C697.609 712.689 697.066 711.773 696.728 710.775C696.389 709.777 696.261 708.72 696.353 707.671C696.582 705.747 697.516 703.975 698.975 702.7C700.433 701.424 702.313 700.734 704.251 700.764Z" fill="#202C44"/>
<path d="M940.824 700.847H771.911V409.551C771.911 407.36 772.782 405.258 774.331 403.709C775.88 402.16 777.982 401.289 780.173 401.289H991.268V650.403C991.268 663.782 985.953 676.612 976.493 686.072C967.033 695.533 954.202 700.847 940.824 700.847Z" fill="#3A4A65"/>
<path fill-rule="evenodd" clip-rule="evenodd" d="M146.977 1031.44L224.105 702.899L242.796 707.287L165.668 1035.83L146.977 1031.44Z" fill="#202C44"/>
<path fill-rule="evenodd" clip-rule="evenodd" d="M467.926 1034.29L368.062 711.916L386.402 706.235L486.266 1028.61L467.926 1034.29Z" fill="#202C44"/>
<path d="M441.026 695.923L354.629 698.93L344.467 407.881C344.435 406.789 344.187 405.714 343.737 404.718C343.287 403.723 342.643 402.826 341.844 402.081C341.045 401.336 340.106 400.756 339.082 400.376C338.057 399.997 336.967 399.824 335.875 399.868L130.679 406.989C129.93 407.013 129.192 407.184 128.509 407.494C127.827 407.803 127.212 408.245 126.7 408.793C126.189 409.342 125.791 409.986 125.53 410.688C125.268 411.391 125.148 412.139 125.177 412.888L133.703 657.16C134.678 684.985 158.487 720.938 186.361 719.947L281.763 716.642L355.158 714.098L441.869 711.074C442.931 711.04 443.974 710.783 444.93 710.321C445.886 709.858 446.734 709.199 447.419 708.388C448.105 707.576 448.612 706.63 448.908 705.61C449.205 704.589 449.283 703.518 449.139 702.466C448.836 700.565 447.838 698.844 446.34 697.636C444.842 696.427 442.948 695.817 441.026 695.923Z" fill="#202C44"/>
<path d="M140.8 407.124L351.829 400.793C354.02 400.728 356.147 401.535 357.743 403.038C359.339 404.541 360.272 406.616 360.338 408.807L369.077 700.104L200.231 705.169C186.852 705.57 173.862 700.641 164.118 691.464C154.374 682.288 148.675 669.617 148.273 656.238L140.8 407.124Z" fill="#3A4A65"/>
<path fill-rule="evenodd" clip-rule="evenodd" d="M829.28 395.907C841.122 401.602 846.106 415.819 840.411 427.661L767.578 579.109C761.883 590.951 747.667 595.934 735.824 590.239C723.982 584.544 718.999 570.327 724.694 558.485L797.526 407.037C803.221 395.195 817.438 390.212 829.28 395.907Z" fill="#FDC2BF"/>
<path fill-rule="evenodd" clip-rule="evenodd" d="M678.905 910.158C692.046 910.158 702.698 920.81 702.698 933.951V966.253C702.698 979.393 692.046 990.045 678.905 990.045C665.765 990.045 655.112 979.393 655.112 966.253V933.951C655.112 920.81 665.765 910.158 678.905 910.158Z" fill="#FDC2BF"/>
<path d="M706.895 981.172L708.547 1022.02C708.578 1022.82 708.447 1023.61 708.162 1024.36C707.876 1025.11 707.443 1025.79 706.887 1026.36C706.331 1026.94 705.664 1027.39 704.927 1027.7C704.19 1028.01 703.398 1028.17 702.599 1028.16L589.996 1027.72C588.972 1027.71 587.959 1027.51 587.017 1027.11C586.074 1026.71 585.221 1026.12 584.508 1025.39C583.795 1024.66 583.236 1023.79 582.865 1022.83C582.494 1021.88 582.317 1020.86 582.346 1019.84C582.439 1016.53 583.376 1013.31 585.068 1010.47C586.76 1007.64 589.151 1005.28 592.012 1003.63L617.605 989.4C619.756 988.44 621.8 987.254 623.702 985.865L647.462 971.655C651.25 969.449 655.59 968.371 659.97 968.549L700.186 970.35C706.019 970.647 706.614 975.34 706.895 981.172Z" fill="#1677E3"/>
<path d="M678.806 975.34C691.901 975.34 702.516 973.675 702.516 971.622C702.516 969.569 691.901 967.904 678.806 967.904C665.711 967.904 655.096 969.569 655.096 971.622C655.096 973.675 665.711 975.34 678.806 975.34Z" fill="#FDC2BF"/>
<path d="M655.112 962.799V971.638H702.516L702.698 961.328L655.112 962.799Z" fill="#FDC2BF"/>
<path fill-rule="evenodd" clip-rule="evenodd" d="M736.008 915.875C749.148 915.875 759.8 926.527 759.8 939.667V971.969C759.8 985.11 749.148 995.762 736.008 995.762C722.867 995.762 712.215 985.11 712.215 971.969V939.667C712.215 926.527 722.867 915.875 736.008 915.875Z" fill="#FDC2BF"/>
<path d="M763.947 986.889L765.6 1027.73C765.631 1028.53 765.5 1029.33 765.216 1030.07C764.932 1030.82 764.499 1031.5 763.945 1032.07C763.391 1032.65 762.726 1033.1 761.991 1033.41C761.256 1033.72 760.466 1033.88 759.668 1033.88L647.049 1033.43C646.026 1033.43 645.015 1033.22 644.075 1032.82C643.134 1032.42 642.283 1031.84 641.572 1031.1C640.86 1030.37 640.303 1029.5 639.933 1028.54C639.563 1027.59 639.386 1026.57 639.415 1025.55C639.505 1022.25 640.441 1019.03 642.134 1016.19C643.826 1013.35 646.218 1010.99 649.081 1009.34L674.675 995.118C676.824 994.153 678.867 992.968 680.772 991.582L704.515 977.372C708.338 975.166 712.712 974.1 717.122 974.299L757.338 976.1C763.072 976.364 763.716 981.057 763.947 986.889Z" fill="#327CF5"/>
<path d="M735.908 981.056C749.003 981.056 759.619 979.392 759.619 977.339C759.619 975.286 749.003 973.621 735.908 973.621C722.814 973.621 712.198 975.286 712.198 977.339C712.198 979.392 722.814 981.056 735.908 981.056Z" fill="#FDC2BF"/>
<path d="M712.198 968.515V977.339H759.619L759.784 967.045L712.198 968.515Z" fill="#FDC2BF"/>
<path d="M852.807 572.15C852.807 572.15 852.807 572.514 852.708 572.745L852.625 573.588L852.46 575.372L852.113 579.073C851.882 581.535 851.568 584.03 851.287 586.492C850.692 591.449 849.915 596.224 849.04 600.784C848.209 605.056 847.133 609.276 845.818 613.424C844.833 616.53 843.474 619.504 841.77 622.281C840.514 624.23 839.374 624.643 839.985 623.602C840.468 622.93 841.088 622.367 841.803 621.95C842.466 621.546 843.163 621.198 843.884 620.909C843.984 620.81 844.76 620.744 842.728 620.744H838.581L830.204 620.579L813.268 620.347C790.516 620.133 767.351 620.661 742.897 622.148C729.941 622.917 717.034 624.379 704.234 626.527C696.61 627.829 689.101 629.735 681.779 632.227C677.225 633.81 672.805 635.755 668.561 638.043C662.974 641.031 657.816 644.761 653.228 649.13C650.296 651.941 647.655 655.041 645.347 658.383C642.743 662.165 640.607 666.248 638.986 670.544C638.165 672.748 637.476 674.999 636.92 677.285C636.672 678.425 636.425 679.548 636.226 680.705C636.094 681.416 636.094 681.465 636.061 681.746L635.978 682.456L635.284 688.14C634.657 695.212 634.326 701.772 634.21 707.968C633.946 720.508 634.21 732.438 634.541 744.318C634.871 756.198 635.499 767.83 636.193 779.478C636.887 791.127 637.598 802.61 638.556 814.176C640.395 837.308 642.455 860.308 644.735 883.175L648.47 917.526C649.742 928.993 651.08 940.361 652.567 951.91H704.548C704.3 929.307 706.861 902.507 706.812 879.788C706.762 857.069 706.531 834.367 706.812 811.764C707.092 789.161 707.208 766.624 708.183 744.549C708.662 733.545 709.29 722.59 710.298 712.313C710.76 707.125 711.438 702.284 712.148 698.021L712.727 695.229V694.865C712.727 694.865 712.727 694.485 712.727 694.865C712.676 695.311 712.593 695.753 712.479 696.187C712.287 697.09 712.033 697.979 711.719 698.847C711.14 700.477 710.375 702.035 709.439 703.49C708.781 704.496 708.023 705.431 707.175 706.282C706.002 707.522 705.523 707.687 705.837 707.588C706.151 707.489 707.059 707.009 708.332 706.563C711.815 705.313 715.389 704.33 719.022 703.622C728.729 701.738 738.547 700.48 748.416 699.855C769.582 698.203 792.152 698.104 815.102 696.765C820.852 696.402 826.668 696.104 832.451 695.642L841.224 694.931L845.619 694.535C846.462 694.436 850.097 694.237 853.038 693.775C859.46 692.848 865.708 690.972 871.577 688.206C877.485 685.39 882.92 681.672 887.686 677.186C891.924 673.219 895.624 668.714 898.69 663.786C901.298 659.594 903.51 655.169 905.3 650.568C908.256 642.887 910.264 634.875 911.281 626.709C912.247 619.636 912.656 612.498 912.504 605.361C912.412 598.681 911.937 592.011 911.083 585.385C910.686 582.081 910.141 578.908 909.579 575.67C909.298 574.018 908.968 572.448 908.621 570.812L907.431 565.508L852.807 572.15Z" fill="#8FA4D3"/>
<path d="M910.885 578.049C910.885 578.049 910.885 578.429 910.77 578.644L910.687 579.487L910.522 581.288L910.175 584.972C909.96 587.451 909.63 589.929 909.349 592.391C908.77 597.348 907.994 602.14 907.118 606.7C906.251 610.966 905.148 615.18 903.814 619.323C902.844 622.432 901.49 625.407 899.782 628.179C898.51 630.129 897.37 630.559 897.998 629.501C898.485 628.833 899.103 628.271 899.815 627.849C900.472 627.442 901.163 627.094 901.88 626.808C901.98 626.725 902.756 626.643 900.74 626.643H896.577L888.2 626.478L871.28 626.246C848.528 626.031 825.347 626.56 800.893 628.064C787.938 628.836 775.032 630.292 762.23 632.426C754.633 633.738 747.148 635.633 739.842 638.093C735.291 639.686 730.872 641.63 726.623 643.909C721.038 646.908 715.876 650.636 711.274 654.996C708.346 657.811 705.706 660.91 703.392 664.249C700.791 668.029 698.66 672.113 697.048 676.409C696.217 678.61 695.527 680.862 694.982 683.151C694.718 684.291 694.486 685.431 694.272 686.571C694.14 687.281 694.156 687.347 694.107 687.612L694.024 688.322L693.346 694.006C692.702 701.094 692.372 707.637 692.256 713.834C691.992 726.374 692.256 738.287 692.603 750.184C692.95 762.08 693.545 773.712 694.255 785.344C694.966 796.976 695.66 808.476 696.601 820.042C698.441 843.174 700.506 866.168 702.797 889.024L706.515 923.375C707.787 934.842 709.142 946.226 710.629 957.776H765.716C765.485 935.173 764.923 908.356 764.857 885.654C764.791 862.952 764.576 840.233 764.857 817.63C765.138 795.026 765.27 772.473 766.228 750.398C766.708 739.394 767.335 728.44 768.343 718.162C768.823 712.991 769.483 708.15 770.194 703.87L770.772 701.078V700.731C770.772 700.731 770.772 700.351 770.772 700.731C770.721 701.176 770.643 701.617 770.541 702.053C769.98 704.654 768.944 707.13 767.484 709.356C766.831 710.365 766.078 711.306 765.237 712.165C764.047 713.387 763.585 713.553 763.899 713.453C764.213 713.354 765.105 712.892 766.377 712.446C769.864 711.184 773.444 710.195 777.084 709.488C786.791 707.602 796.609 706.343 806.478 705.721C827.644 704.068 850.214 703.969 873.147 702.648C878.897 702.284 884.713 701.987 890.513 701.507L899.27 700.797L903.681 700.417C904.508 700.318 908.159 700.12 911.084 699.657C917.502 698.718 923.748 696.841 929.622 694.089C935.536 691.266 940.977 687.543 945.748 683.052C949.985 679.088 953.68 674.583 956.736 669.652C959.346 665.461 961.559 661.036 963.345 656.433C966.302 648.752 968.316 640.741 969.343 632.574C970.296 625.5 970.699 618.363 970.549 611.227C970.466 604.546 969.991 597.876 969.128 591.251C968.748 587.946 968.203 584.774 967.625 581.552C967.36 579.9 967.03 578.248 966.666 576.678L965.493 571.391L910.885 578.049Z" fill="#9FAFDF"/>
<path d="M885.474 209.674H888.25C896.866 209.49 905.395 211.442 913.073 215.358C920.751 219.273 927.339 225.029 932.25 232.112L932.845 231.352C943.171 228.94 955.977 237.234 954.688 272.329C953.035 319.386 932.002 349.308 932.002 349.308C924.719 358.852 914.376 365.602 902.707 368.425C899.055 369.288 895.322 369.764 891.571 369.846H888.795C885.042 369.932 881.291 369.605 877.609 368.871C854.031 364.261 837.145 358.214 836.633 333.215L834.336 263.026C834.044 249.171 839.267 235.766 848.857 225.761C858.447 215.756 871.618 209.969 885.474 209.674Z" fill="#FDC2BF"/>
<path d="M896.494 385.295C940.329 385.295 975.803 389.079 975.803 393.771V396.679V610.435V613.309C975.803 618.002 940.279 621.786 896.494 621.786C852.709 621.786 817.185 618.002 817.185 613.309V610.401V396.729V393.821C817.152 389.128 852.676 385.295 896.494 385.295Z" fill="#F3F6FA"/>
<path d="M969.193 606.7C970.151 562.535 964.021 460.292 964.021 460.292C968.648 467.545 975.901 486.001 975.901 486.001V606.618L969.193 606.7Z" fill="#C8D6E5"/>
<path d="M815.648 594.755C814.706 550.523 820.902 448.346 820.902 448.346C816.276 455.6 809.022 474.056 809.022 474.056L809.105 594.672L815.648 594.755Z" fill="#EAEFF7"/>
<path fill-rule="evenodd" clip-rule="evenodd" d="M835.038 439.567C844.483 434.01 849.67 422.785 847.071 411.543C843.865 397.674 830.022 389.029 816.152 392.236C808.723 393.953 803.582 398.121 801.004 400.474C798.056 403.164 795.643 406.124 793.797 408.629C790.082 413.668 786.774 419.468 784.204 424.353C781.552 429.395 779.269 434.264 777.671 437.815C776.863 439.608 776.212 441.107 775.754 442.177C775.525 442.713 775.343 443.143 775.214 443.452C775.149 443.606 775.097 443.731 775.059 443.822L775.012 443.936L774.988 443.994C774.987 443.996 774.986 443.999 798.826 453.798L774.986 443.999C769.574 457.165 775.86 472.226 789.027 477.638C802.189 483.049 817.244 476.769 822.661 463.611C822.661 463.611 822.661 463.611 822.661 463.611C822.662 463.609 822.662 463.608 822.663 463.606C822.663 463.605 822.664 463.604 822.664 463.602C822.665 463.601 822.666 463.599 822.666 463.598L822.675 463.577C822.691 463.539 822.72 463.47 822.761 463.372C822.843 463.176 822.973 462.866 823.148 462.458C823.498 461.64 824.02 460.438 824.678 458.977C826.01 456.019 827.822 452.166 829.826 448.356C831.795 444.614 833.608 441.571 835.038 439.567Z" fill="#F3F6FA"/>
<path d="M891.081 411.099C900.514 410.903 908.031 404.443 907.869 396.67C907.708 388.897 899.929 382.755 890.496 382.951C881.062 383.147 873.546 389.607 873.707 397.38C873.869 405.153 881.647 411.295 891.081 411.099Z" fill="#FDC2BF"/>
<path fill-rule="evenodd" clip-rule="evenodd" d="M890.522 384.223C881.549 384.409 874.837 390.502 874.979 397.354C875.121 404.205 882.081 410.014 891.054 409.828C900.026 409.641 906.739 403.548 906.597 396.697C906.454 389.846 899.494 384.036 890.522 384.223ZM872.435 397.406C872.254 388.712 880.575 381.884 890.469 381.679C900.364 381.473 908.96 387.949 909.141 396.644C909.321 405.339 901.001 412.166 891.107 412.372C881.212 412.577 872.616 406.101 872.435 397.406Z" fill="white"/>
<path d="M891.323 356.562H888.547C884.794 356.648 881.043 356.321 877.361 355.587L877.576 365.781L878.039 387.823C878.067 389.301 878.386 390.76 878.979 392.114C879.571 393.469 880.426 394.693 881.493 395.717C882.559 396.741 883.818 397.544 885.196 398.081C886.574 398.617 888.044 398.876 889.522 398.844H892.116C893.6 398.811 895.064 398.486 896.422 397.887C897.78 397.288 899.006 396.426 900.03 395.351C901.054 394.276 901.856 393.01 902.389 391.624C902.922 390.239 903.176 388.762 903.137 387.278L902.691 365.699L902.459 355.075C898.811 355.967 895.078 356.466 891.323 356.562Z" fill="#FDC2BF"/>
<path d="M877.546 374.312L878.137 384.367C878.137 384.367 880.923 379.49 890.574 379.179C900.225 378.867 902.978 384.246 902.978 384.246L902.751 372.538H878.137L877.546 374.312Z" fill="#FFBBB8"/>
<path d="M929.802 320.608L927.819 291.825C927.819 291.825 938.179 287.53 941.038 296.782C943.896 306.035 939.022 318.592 929.802 320.608Z" fill="#FFB8C3"/>
<path d="M954.737 453.798C954.737 453.798 948.128 549.812 941.733 558.206C916.619 591.251 928.891 610.087 901.794 613.342C901.794 613.342 963.304 616.804 975.77 613.342V486.117L954.737 453.798Z" fill="#EAEFF7"/>
<path fill-rule="evenodd" clip-rule="evenodd" d="M950.312 403.528C959.917 394.56 974.973 395.076 983.941 404.681L966.55 420.918C983.941 404.681 983.944 404.685 983.948 404.689L983.982 404.725L984.052 404.8C984.107 404.86 984.181 404.94 984.273 405.04C984.457 405.24 984.712 405.518 985.033 405.871C985.673 406.577 986.577 407.583 987.697 408.859C989.935 411.407 993.054 415.046 996.681 419.523C1003.88 428.416 1013.33 440.907 1021.89 454.932C1030.3 468.713 1038.66 485.272 1042.57 502.143C1046.46 518.953 1046.69 539.826 1033.28 557.542C1024.38 569.297 1011.15 576.969 999.453 582.127C987.27 587.499 973.923 591.352 962.018 594.114C950.005 596.901 938.804 598.727 930.647 599.856C926.549 600.423 923.171 600.821 920.785 601.081C919.591 601.21 918.642 601.306 917.972 601.37C917.637 601.403 917.372 601.427 917.18 601.445L916.947 601.465L916.874 601.472L916.837 601.475C916.833 601.475 916.828 601.476 914.805 577.769L916.828 601.476C903.736 602.593 892.216 592.886 891.098 579.793C889.981 566.705 899.681 555.189 912.767 554.064C912.768 554.064 912.77 554.064 912.772 554.063C912.773 554.063 912.774 554.063 912.775 554.063C912.775 554.063 912.775 554.063 912.775 554.063L912.776 554.063L912.781 554.063L912.881 554.054C912.987 554.044 913.164 554.028 913.409 554.004C913.897 553.957 914.653 553.881 915.644 553.774C917.628 553.558 920.54 553.216 924.121 552.72C931.323 551.723 941.04 550.132 951.263 547.76C961.595 545.363 971.802 542.313 980.253 538.587C989.19 534.645 993.669 531.022 995.326 528.832L995.333 528.823C996.786 526.904 998.477 522.678 996.208 512.884C993.952 503.147 988.514 491.594 981.268 479.717C974.17 468.085 966.102 457.373 959.706 449.477C956.532 445.56 953.829 442.407 951.946 440.263C951.006 439.193 950.273 438.378 949.793 437.849C949.553 437.585 949.377 437.392 949.269 437.275L949.16 437.157L949.159 437.156C949.157 437.154 949.155 437.152 949.153 437.15C949.152 437.148 949.151 437.147 949.149 437.145C949.148 437.145 949.148 437.144 949.147 437.143C940.192 427.538 940.712 412.491 950.312 403.528Z" fill="#FDC2BF"/>
<path fill-rule="evenodd" clip-rule="evenodd" d="M947.898 397.752C960.692 387.451 979.414 389.472 989.715 402.266L966.55 420.918C989.715 402.266 989.717 402.269 989.719 402.271L989.763 402.326L989.85 402.435C989.921 402.523 990.017 402.644 990.138 402.796C990.379 403.099 990.717 403.526 991.143 404.07C991.994 405.156 993.199 406.708 994.679 408.658C997.635 412.551 1001.72 418.065 1006.31 424.651C1015.36 437.611 1026.98 455.587 1035.69 473.907C1042.74 488.741 1036.44 506.485 1021.6 513.538C1006.77 520.591 989.025 514.284 981.972 499.45C975.3 485.419 965.783 470.514 957.53 458.683C953.476 452.871 949.875 448.012 947.307 444.629C946.025 442.942 945.008 441.631 944.328 440.764C943.988 440.331 943.734 440.009 943.573 439.807C943.493 439.706 943.436 439.635 943.404 439.595L943.381 439.566C933.083 426.772 935.105 408.052 947.898 397.752Z" fill="#F3F6FA"/>
<path d="M805.387 249.808C811.385 267.603 842.15 275.038 862.093 259.523C889.67 238.044 894.313 247.759 896.51 248.602C898.03 249.18 906.424 251.51 902.194 261.341C901.12 263.918 903.086 271.023 909.117 273.088C915.148 275.154 931.076 285.48 925.739 292.073C916.404 303.639 928.267 316.031 926.169 331.959C924.595 335.34 922.32 338.347 919.494 340.78C916.667 343.213 913.355 345.016 909.778 346.07C903.4 347.887 889.67 349.671 877.063 350.398C877.503 347.241 877.641 344.049 877.476 340.865C876.071 326.54 864.853 315.866 852.477 317.089C838.78 318.443 835.359 312.743 837.012 345.177L837.21 347.094C837.21 347.54 837.21 347.97 837.309 348.432L839.705 370.969C840.026 372.75 840.804 374.417 841.963 375.807C843.121 377.197 844.62 378.263 846.314 378.9C851.981 381.114 862.225 383.609 877.476 381.808C893.999 379.875 926.763 368.144 934.364 344.797C945.203 326.523 964.567 285.745 961.825 274.889C958.14 260.283 957.76 260.448 960.883 255.905C964.006 251.361 970.317 229.22 946.012 223.851C921.707 218.481 926.863 212.483 923.822 208.534C920.782 204.585 909.15 188.707 886.167 202.883C886.167 202.883 877.707 210.252 866.439 201.826C855.17 193.399 842.018 199.628 838.086 206.369C834.153 213.111 821.794 211.326 815.846 215.457C810.627 219.286 806.788 224.701 804.903 230.893C803.018 237.085 803.188 243.72 805.387 249.808ZM869.644 350.712C865.316 350.86 860.982 350.711 856.674 350.266C852.769 349.773 848.904 349.006 845.108 347.97H845.372C843.406 325.35 847.124 324.986 853.27 324.375C861.631 323.549 869.264 331.282 870.272 341.592C870.35 344.65 870.14 347.71 869.644 350.729V350.712Z" fill="#2C2A46"/>
<path d="M925.672 325.946C925.672 325.946 919.063 304.879 930.249 299.261C941.435 293.644 945.764 309.472 940.939 317.436C936.115 325.4 925.672 325.946 925.672 325.946Z" fill="#FDC2BF"/>
<path fill-rule="evenodd" clip-rule="evenodd" d="M462.407 904.573C475.547 904.573 486.2 915.225 486.2 928.366V960.668C486.2 973.808 475.547 984.46 462.407 984.46C449.267 984.46 438.614 973.808 438.614 960.668V928.366C438.614 915.225 449.267 904.573 462.407 904.573Z" fill="#FFB8C3"/>
<path d="M559.048 1014.23C559.066 1015.26 558.892 1016.28 558.536 1017.24C557.984 1018.69 557.007 1019.94 555.733 1020.82C554.46 1021.71 552.949 1022.19 551.398 1022.2L438.779 1022.63C437.472 1022.64 436.198 1022.22 435.16 1021.42C434.121 1020.63 433.377 1019.51 433.046 1018.25C432.894 1017.67 432.827 1017.08 432.847 1016.48L434.5 975.654C434.714 969.805 435.326 965.129 441.109 964.865L481.325 963.047C485.729 962.851 490.097 963.917 493.916 966.121L517.659 980.347C519.56 981.734 521.604 982.913 523.756 983.866L549.349 998.109C552.214 999.752 554.605 1002.11 556.289 1004.95C557.98 1007.76 558.929 1010.96 559.048 1014.23Z" fill="#202C44"/>
<path d="M462.489 969.755C475.584 969.755 486.2 968.09 486.2 966.037C486.2 963.984 475.584 962.319 462.489 962.319C449.395 962.319 438.779 963.984 438.779 966.037C438.779 968.09 449.395 969.755 462.489 969.755Z" fill="#F3C29F"/>
<path d="M486.2 957.214V966.037H438.796L438.614 955.744L486.2 957.214Z" fill="#F3C29F"/>
<path fill-rule="evenodd" clip-rule="evenodd" d="M454.839 981.833C449.811 981.833 445.735 985.909 445.735 990.937C445.735 995.965 449.811 1000.04 454.839 1000.04C459.867 1000.04 463.943 995.965 463.943 990.937C463.943 985.909 459.867 981.833 454.839 981.833ZM441.77 990.937C441.77 983.719 447.621 977.868 454.839 977.868C462.057 977.868 467.909 983.719 467.909 990.937C467.909 998.155 462.057 1004.01 454.839 1004.01C447.621 1004.01 441.77 998.155 441.77 990.937Z" fill="#F3F6FA"/>
<path d="M518.105 980.115L507.53 989.533C506.928 989.937 506.198 990.107 505.479 990.011C504.76 989.915 504.1 989.56 503.625 989.011C503.15 988.463 502.891 987.76 502.899 987.034C502.906 986.308 503.178 985.61 503.664 985.071L512.752 976.81L518.105 980.115Z" fill="#F3F6FA"/>
<path fill-rule="evenodd" clip-rule="evenodd" d="M518.105 980.115L512.752 976.81L503.664 985.071C503.178 985.61 502.906 986.308 502.899 987.034C502.891 987.76 503.15 988.463 503.625 989.011C504.1 989.56 504.76 989.915 505.479 990.011C506.198 990.107 506.928 989.937 507.53 989.533L518.105 980.115ZM515.35 980.356L512.942 978.87L504.848 986.228C504.659 986.46 504.554 986.75 504.551 987.05C504.548 987.373 504.662 987.686 504.874 987.929C505.085 988.173 505.378 988.331 505.698 988.374C505.987 988.412 506.281 988.354 506.533 988.209L515.35 980.356Z" fill="#F3F6FA"/>
<path d="M528.449 986.097L516.883 996.489C516.339 996.979 515.633 997.25 514.901 997.249C514.299 997.244 513.713 997.057 513.22 996.714C512.726 996.37 512.348 995.886 512.133 995.324C511.919 994.762 511.88 994.148 512.02 993.563C512.16 992.978 512.473 992.449 512.918 992.045L522.997 983.106C524.276 983.898 525.606 984.605 526.979 985.221L528.449 986.097Z" fill="#F3F6FA"/>
<path fill-rule="evenodd" clip-rule="evenodd" d="M516.883 996.489L528.449 986.097L526.979 985.221C526.973 985.218 526.967 985.216 526.961 985.213C525.594 984.599 524.27 983.895 522.997 983.106L512.918 992.045C512.473 992.449 512.16 992.978 512.02 993.563C511.88 994.148 511.919 994.762 512.133 995.324C512.348 995.886 512.726 996.37 513.22 996.714C513.713 997.057 514.299 997.244 514.901 997.249C515.633 997.25 516.339 996.979 516.883 996.489ZM514.909 995.597C515.23 995.596 515.539 995.477 515.777 995.262L515.779 995.26L525.623 986.415C524.796 986.022 523.984 985.598 523.189 985.144L514.023 993.273C513.827 993.454 513.689 993.688 513.627 993.948C513.564 994.209 513.582 994.484 513.677 994.735C513.773 994.987 513.943 995.204 514.164 995.357C514.383 995.51 514.642 995.593 514.909 995.597Z" fill="#F3F6FA"/>
<path d="M540.445 992.755L527.772 1004.02C527.23 1004.51 526.531 1004.78 525.806 1004.78C525.384 1004.79 524.967 1004.69 524.585 1004.52C524.202 1004.34 523.863 1004.08 523.592 1003.76C523.332 1003.47 523.132 1003.13 523.003 1002.76C522.874 1002.4 522.819 1002.01 522.84 1001.62C522.862 1001.23 522.96 1000.85 523.128 1000.5C523.297 1000.15 523.533 999.838 523.823 999.579L534.926 989.665L540.445 992.755Z" fill="#F3F6FA"/>
<path fill-rule="evenodd" clip-rule="evenodd" d="M527.772 1004.02L540.445 992.755L534.926 989.665L523.823 999.579C523.533 999.838 523.297 1000.15 523.128 1000.5C522.96 1000.85 522.862 1001.23 522.84 1001.62C522.819 1002.01 522.874 1002.4 523.003 1002.76C523.132 1003.13 523.332 1003.47 523.592 1003.76C523.863 1004.08 524.202 1004.34 524.585 1004.52C524.967 1004.69 525.384 1004.79 525.806 1004.78C526.531 1004.78 527.23 1004.51 527.772 1004.02ZM525.793 1003.13C526.118 1003.13 526.431 1003 526.674 1002.79L537.612 993.062L535.148 991.683L524.924 1000.81C524.796 1000.93 524.692 1001.06 524.617 1001.22C524.543 1001.37 524.5 1001.54 524.49 1001.71C524.481 1001.88 524.505 1002.06 524.562 1002.22C524.619 1002.38 524.707 1002.53 524.822 1002.66L524.839 1002.68L524.856 1002.7C524.972 1002.83 525.116 1002.94 525.279 1003.02C525.44 1003.09 525.615 1003.13 525.793 1003.13Z" fill="#F3F6FA"/>
<path d="M559.495 1018.12C559.611 1024.02 556.191 1028.87 551.812 1028.87L438.796 1029.5C435.492 1029.5 432.716 1025.68 432.848 1021.09L433.047 1014.15C433.707 1017.57 436.037 1020.15 438.796 1020.12L551.812 1019.52C555.117 1019.52 557.86 1016.75 558.983 1012.91C559.277 1014.63 559.449 1016.37 559.495 1018.12Z" fill="black"/>
<path fill-rule="evenodd" clip-rule="evenodd" d="M408.443 913.726C421.584 913.726 432.236 924.378 432.236 937.519V969.821C432.236 982.961 421.584 993.614 408.443 993.614C395.303 993.614 384.65 982.961 384.65 969.821V937.519C384.65 924.378 395.303 913.726 408.443 913.726Z" fill="#F3C29F"/>
<path d="M505.086 1023.39C505.104 1024.41 504.93 1025.43 504.574 1026.4C504.018 1027.84 503.04 1029.09 501.767 1029.97C500.495 1030.86 498.986 1031.34 497.436 1031.35L384.817 1031.78C383.51 1031.8 382.236 1031.37 381.198 1030.58C380.159 1029.78 379.415 1028.67 379.084 1027.4C378.932 1026.83 378.865 1026.23 378.885 1025.64L380.538 984.808C380.769 978.958 381.38 974.282 387.147 974.018L427.363 972.201C431.767 972.004 436.135 973.071 439.954 975.274L463.697 989.483C465.601 990.87 467.645 992.055 469.794 993.019L495.404 1007.2C498.262 1008.85 500.65 1011.2 502.344 1014.04C504.039 1016.87 504.982 1020.09 505.086 1023.39Z" fill="#202C44"/>
<path d="M408.528 978.909C421.622 978.909 432.238 977.244 432.238 975.191C432.238 973.138 421.622 971.474 408.528 971.474C395.433 971.474 384.817 973.138 384.817 975.191C384.817 977.244 395.433 978.909 408.528 978.909Z" fill="#F3C29F"/>
<path d="M432.238 966.368V975.191H384.834L384.652 964.897L432.238 966.368Z" fill="#F3C29F"/>
<path d="M505.549 1027.22C505.681 1033.12 502.244 1037.98 497.866 1037.98L384.834 1038.61C381.529 1038.61 378.753 1034.79 378.885 1030.19L379.084 1023.26C379.745 1026.68 382.074 1029.25 384.834 1029.22L497.866 1028.63C501.171 1028.63 503.93 1025.85 505.037 1022.02C505.339 1023.74 505.51 1025.48 505.549 1027.22Z" fill="black"/>
<path fill-rule="evenodd" clip-rule="evenodd" d="M397.754 989.566C392.726 989.566 388.65 993.642 388.65 998.67C388.65 1003.7 392.726 1007.77 397.754 1007.77C402.782 1007.77 406.858 1003.7 406.858 998.67C406.858 993.642 402.782 989.566 397.754 989.566ZM384.685 998.67C384.685 991.451 390.536 985.6 397.754 985.6C404.972 985.6 410.824 991.451 410.824 998.67C410.824 1005.89 404.972 1011.74 397.754 1011.74C390.536 1011.74 384.685 1005.89 384.685 998.67Z" fill="#F3F6FA"/>
<path d="M461.019 987.798L450.445 997.216C449.9 997.69 449.201 997.948 448.479 997.943C448.057 997.948 447.64 997.862 447.255 997.691C446.87 997.52 446.526 997.267 446.248 996.951C445.987 996.66 445.786 996.321 445.657 995.951C445.528 995.582 445.473 995.192 445.496 994.801C445.519 994.411 445.62 994.029 445.791 993.678C445.963 993.326 446.202 993.013 446.496 992.755L455.666 984.592L461.019 987.798Z" fill="#F3F6FA"/>
<path d="M471.395 993.828L459.714 1004.2C459.174 1004.7 458.465 1004.97 457.731 1004.96C457.129 1004.96 456.542 1004.78 456.046 1004.44C455.551 1004.1 455.171 1003.61 454.956 1003.05C454.741 1002.49 454.702 1001.88 454.843 1001.29C454.985 1000.71 455.3 1000.18 455.748 999.777L465.827 990.821C467.106 991.619 468.436 992.331 469.809 992.953L471.395 993.828Z" fill="#F3F6FA"/>
<path d="M483.358 1000.49L470.619 1011.74C470.076 1012.22 469.378 1012.49 468.652 1012.5C468.232 1012.5 467.816 1012.42 467.434 1012.24C467.051 1012.07 466.711 1011.81 466.438 1011.49C466.179 1011.2 465.979 1010.86 465.85 1010.5C465.721 1010.13 465.666 1009.74 465.687 1009.35C465.709 1008.97 465.806 1008.58 465.975 1008.23C466.144 1007.88 466.38 1007.57 466.67 1007.31L477.773 997.397L483.358 1000.49Z" fill="#F3F6FA"/>
<path d="M207.858 240.985C223.855 240.985 236.822 228.017 236.822 212.021C236.822 196.024 223.855 183.056 207.858 183.056C191.861 183.056 178.894 196.024 178.894 212.021C178.894 228.017 191.861 240.985 207.858 240.985Z" fill="#292645"/>
<path fill-rule="evenodd" clip-rule="evenodd" d="M222.911 175.22C224.491 175.631 225.44 177.246 225.029 178.827L216.139 213.012C215.901 213.927 215.241 214.673 214.362 215.019C213.483 215.366 212.491 215.271 211.693 214.765L195.781 204.67C194.402 203.795 193.994 201.967 194.869 200.588C195.744 199.209 197.571 198.801 198.95 199.676L211.436 207.598L219.304 177.338C219.715 175.758 221.33 174.809 222.911 175.22Z" fill="#F6A721"/>
<path d="M288.422 573.423C288.422 573.423 288.422 573.786 288.521 574.017L288.62 574.86L288.769 576.645L289.132 580.346C289.347 582.808 289.677 585.303 289.942 587.764C290.537 592.721 291.313 597.496 292.189 602.057C293.033 606.32 294.108 610.534 295.411 614.68C296.393 617.792 297.752 620.772 299.459 623.553C300.715 625.502 301.855 625.915 301.243 624.858C300.756 624.189 300.138 623.627 299.426 623.206C298.769 622.799 298.078 622.451 297.361 622.165C297.261 622.066 296.468 621.983 298.501 622H302.664L311.025 621.834L327.961 621.603C350.713 621.388 373.878 621.917 398.331 623.404C411.293 624.174 424.205 625.635 437.011 627.783C444.63 629.085 452.133 630.991 459.449 633.483C464.003 635.066 468.423 637.011 472.667 639.299C478.257 642.283 483.415 646.013 488 650.386C490.933 653.196 493.573 656.296 495.882 659.638C499.833 665.365 502.69 671.774 504.308 678.541C504.556 679.664 504.804 680.804 505.002 681.944C505.082 682.292 505.138 682.646 505.168 683.002L505.267 683.712L505.944 689.396C506.572 696.468 506.902 703.027 507.018 709.223C507.299 721.764 507.018 733.694 506.688 745.573C506.357 757.453 505.729 769.085 505.035 780.734C504.341 792.383 503.631 803.948 502.673 815.432C500.855 838.564 498.74 861.497 496.493 884.431L492.759 918.782C491.487 930.249 490.148 941.616 488.661 953.166H436.747C436.978 930.562 434.417 903.746 434.467 881.044C434.516 858.341 434.747 835.623 434.467 813.019C434.186 790.416 434.07 767.879 433.095 745.805C432.616 734.801 431.988 723.846 430.997 713.552C430.518 708.381 429.857 703.54 429.13 699.277L428.551 696.468V696.121C428.551 696.121 428.551 695.741 428.551 696.121C428.61 696.566 428.693 697.007 428.799 697.443C428.999 698.344 429.253 699.232 429.559 700.103C430.138 701.733 430.903 703.291 431.839 704.746C432.497 705.751 433.255 706.687 434.103 707.538C435.276 708.777 435.755 708.942 435.441 708.827C435.128 708.711 434.219 708.265 432.963 707.819C429.471 706.572 425.893 705.584 422.256 704.861C412.548 702.99 402.73 701.737 392.862 701.111C371.697 699.458 349.126 699.359 326.176 698.021C320.426 697.657 314.61 697.36 308.827 696.897L300.054 696.17L295.659 695.79C294.816 695.691 291.181 695.493 288.24 695.03C281.82 694.096 275.573 692.22 269.701 689.462C263.793 686.645 258.358 682.927 253.592 678.441C249.351 674.464 245.656 669.941 242.604 664.992C239.991 660.803 237.778 656.377 235.995 651.774C233.039 644.093 231.03 636.081 230.014 627.915C229.055 620.836 228.646 613.693 228.791 606.551C228.883 599.876 229.358 593.212 230.212 586.591C230.609 583.287 231.154 580.114 231.716 576.876C231.996 575.224 232.327 573.654 232.674 572.018L233.864 566.714L288.422 573.423Z" fill="#073985"/>
<path d="M235.995 579.504C235.995 579.504 235.995 579.884 236.111 580.098V580.941L236.276 582.742L236.623 586.427C236.838 588.905 237.168 591.383 237.449 593.845C238.028 598.802 238.804 603.594 239.68 608.154C240.545 612.42 241.648 616.635 242.984 620.777C243.954 623.886 245.308 626.861 247.016 629.634C248.288 631.6 249.428 632.013 248.817 630.956C248.318 630.291 247.695 629.73 246.983 629.303C246.326 628.897 245.635 628.548 244.918 628.262C244.818 628.262 244.042 628.097 246.058 628.097H250.221L258.598 627.932L275.518 627.684C298.27 627.469 321.451 627.998 345.905 629.501C358.86 630.274 371.766 631.73 384.568 633.864C392.188 635.183 399.695 637.089 407.022 639.564C411.571 641.161 415.99 643.105 420.241 645.38C425.826 648.379 430.988 652.107 435.59 656.467C438.514 659.285 441.154 662.384 443.472 665.719C446.073 669.5 448.204 673.584 449.817 677.88C450.65 680.086 451.339 682.343 451.882 684.638C452.146 685.762 452.378 686.902 452.592 688.042C452.725 688.769 452.708 688.818 452.758 689.083L452.84 689.793L453.518 695.477C454.162 702.565 454.492 709.108 454.608 715.304C454.872 727.845 454.608 739.758 454.261 751.654C453.914 763.551 453.319 775.166 452.609 786.798C451.898 798.43 451.204 809.93 450.263 821.496C448.434 844.628 446.369 867.622 444.067 890.479L440.349 924.846C439.077 936.313 437.722 947.681 436.235 959.23H381.23C381.478 936.627 382.024 909.81 382.09 887.108C382.156 864.406 382.371 841.687 382.09 819.084C381.809 796.481 381.677 773.927 380.718 751.853C380.239 740.848 379.611 729.91 378.603 719.617C378.124 714.445 377.463 709.604 376.753 705.325L376.174 702.532V702.185C376.174 702.185 376.174 701.805 376.174 702.185C376.226 702.63 376.303 703.071 376.406 703.507C376.603 704.414 376.857 705.308 377.166 706.184C377.747 707.811 378.518 709.364 379.463 710.81C380.115 711.824 380.874 712.766 381.726 713.619C382.899 714.858 383.378 715.007 383.048 714.908C382.718 714.809 381.842 714.346 380.57 713.9C377.083 712.638 373.503 711.649 369.863 710.942C360.156 709.062 350.337 707.809 340.469 707.192C319.303 705.539 296.733 705.44 273.799 704.102C268.049 703.738 262.233 703.441 256.434 702.978L247.677 702.251L243.265 701.871C242.439 701.772 238.788 701.574 235.863 701.111C229.444 700.172 223.198 698.296 217.324 695.543C211.414 692.72 205.975 689.003 201.198 684.522C196.961 680.561 193.262 676.062 190.194 671.139C187.584 666.949 185.371 662.523 183.585 657.921C180.628 650.24 178.614 642.228 177.587 634.062C176.634 626.988 176.231 619.851 176.381 612.714C176.381 605.874 179.504 599.628 180.297 593.118C180.693 589.814 181.239 586.625 181.801 583.403C182.081 581.751 182.412 580.098 182.759 578.545L183.948 573.241L235.995 579.504Z" fill="#0747A6"/>
<path d="M496.675 935.223H440.746C437.88 935.223 435.558 937.545 435.558 940.411V951.729C435.558 954.594 437.88 956.917 440.746 956.917H496.675C499.541 956.917 501.864 954.594 501.864 951.729V940.411C501.864 937.545 499.541 935.223 496.675 935.223Z" fill="#093679"/>
<path d="M438.647 935.593H380.776C377.812 935.593 375.408 938.126 375.408 941.25V953.593C375.408 956.718 377.812 959.251 380.776 959.251H438.647C441.612 959.251 444.016 956.718 444.016 953.593V941.25C444.016 938.126 441.612 935.593 438.647 935.593Z" fill="#0954C3"/>
<path d="M321.915 614.746C321.955 614.314 321.921 613.879 321.816 613.458L320.279 609.376C316.71 599.645 308.069 575.059 307.804 564.368C307.342 546.193 310.002 514.916 311.555 504.457C308.63 506.01 305.772 508.158 302.715 508.158H192.128C189.072 508.158 187.684 505.002 184.743 503.449C186.395 513.924 186.395 546.144 185.916 564.368C185.651 575.059 177.01 599.645 173.425 609.376L171.904 613.458C171.799 613.879 171.765 614.314 171.805 614.746C171.805 620.166 205.297 624.577 246.819 624.66C288.34 624.743 321.849 620.182 321.849 614.746H321.915Z" fill="#FB5A8B"/>
<path d="M186.362 585.55L183.553 602.916L174.909 602.018L181.388 585.55L186.362 577.867V581.7V585.55Z" fill="#F25081"/>
<path d="M322.443 468.173C317.073 445.141 303.97 391.21 303.97 391.21C303.97 388.583 287.927 387.641 251.924 386.931V386.766H246.686H241.465V386.931C205.462 387.641 189.401 388.583 189.401 391.21C189.401 391.21 188.278 438.35 182.792 461.349C182.249 464.963 182.022 468.618 182.115 472.271C182.084 479.144 182.454 486.012 183.222 492.842C184.246 503.102 187.055 509.959 195.548 509.959H297.873C312.347 509.959 327.614 490.363 322.443 468.173Z" fill="#FB5A8B"/>
<path opacity="0.5" d="M208.881 509.959C196.605 506.82 194.01 496.741 193.779 485.572C193.151 455.632 201.082 414.358 201.71 412.871L185.848 443.125C184.906 451.931 182.544 460.027 182.263 466.389C181.519 485.638 183.419 493.883 184.774 504.044C185.088 509.166 187.5 550.06 186.096 555.099C184.576 560.469 194.556 557.396 194.556 557.396C194.556 557.396 213.623 520.005 257.888 510.025L208.881 509.959Z" fill="#EA4577"/>
<path fill-rule="evenodd" clip-rule="evenodd" d="M289.312 409.35C291.238 399.685 300.635 393.411 310.3 395.338C330.73 399.41 340.102 414.445 345.823 424.565C346.704 426.124 347.516 427.579 348.274 428.938C353.143 437.667 355.824 442.472 360.832 445.913M289.312 409.35C287.385 419.015 293.659 428.412 303.324 430.338L289.312 409.35ZM303.324 430.338C307.099 431.091 309.608 433.025 314.755 442.129L303.324 430.338ZM314.755 442.129C315.3 443.093 315.89 444.185 316.535 445.377L314.755 442.129ZM316.535 445.377C321.004 453.641 328.068 466.705 340.626 475.331L316.535 445.377ZM514.173 448.872C519.378 457.241 516.813 468.245 508.444 473.45C482.538 489.563 449.357 495.697 419.48 495.42C389.97 495.147 359.892 488.564 340.626 475.331L340.626 475.331M514.173 448.872C508.968 440.504 497.964 437.939 489.595 443.144L514.173 448.872ZM489.595 443.144C471.27 454.542 445.449 459.97 419.811 459.733L489.595 443.144ZM419.811 459.733C393.805 459.492 371.853 453.482 360.833 445.913L419.811 459.733Z" fill="#F3C29F"/>
<path d="M250.403 409.881C259.337 409.881 266.579 403.918 266.579 396.563C266.579 389.208 259.337 383.246 250.403 383.246C241.47 383.246 234.228 389.208 234.228 396.563C234.228 403.918 241.47 409.881 250.403 409.881Z" fill="#F3C29F"/>
<path fill-rule="evenodd" clip-rule="evenodd" d="M250.403 384.452C241.906 384.452 235.434 390.083 235.434 396.563C235.434 403.043 241.906 408.674 250.403 408.674C258.901 408.674 265.373 403.043 265.373 396.563C265.373 390.083 258.901 384.452 250.403 384.452ZM233.021 396.563C233.021 388.333 241.034 382.04 250.403 382.04C259.773 382.04 267.785 388.333 267.785 396.563C267.785 404.793 259.773 411.087 250.403 411.087C241.034 411.087 233.021 404.793 233.021 396.563Z" fill="white"/>
<path d="M251.709 358.314H249.082C245.53 358.316 241.99 357.929 238.523 357.157V387.658C238.521 389.061 238.797 390.45 239.333 391.747C239.87 393.043 240.658 394.22 241.652 395.21C242.645 396.201 243.825 396.985 245.123 397.518C246.42 398.051 247.811 398.322 249.214 398.315H251.676C254.502 398.315 257.213 397.192 259.211 395.194C261.21 393.195 262.333 390.484 262.333 387.658V357.207C258.842 357.957 255.28 358.328 251.709 358.314Z" fill="#F3C29F"/>
<path d="M238.556 365.468V374.274C238.556 374.274 241.117 369.912 250.436 369.863C259.754 369.813 262.315 374.704 262.315 374.704V364.113L238.556 363.683V365.468Z" fill="#EDB58D"/>
<path d="M301.128 263.225V315.899C301.133 322.391 299.858 328.82 297.376 334.819C294.894 340.818 291.254 346.269 286.664 350.86C282.075 355.451 276.625 359.093 270.627 361.576C264.629 364.06 258.201 365.338 251.709 365.335H249.082C245.531 365.338 241.99 364.95 238.524 364.179C227.509 361.771 217.649 355.671 210.578 346.889C203.506 338.108 199.649 327.174 199.646 315.899V263.192C199.646 250.085 204.852 237.515 214.12 228.247C223.388 218.979 235.958 213.772 249.065 213.772H251.692C258.187 213.768 264.619 215.044 270.62 217.528C276.621 220.012 282.073 223.654 286.664 228.248C291.256 232.841 294.897 238.294 297.379 244.296C299.861 250.298 301.135 256.73 301.128 263.225Z" fill="#F3C29F"/>
<path d="M322.443 468.173C319.221 454.31 313.19 429.262 308.894 411.516C308.779 411.036 308.516 410.604 308.143 410.281C307.769 409.958 307.304 409.76 306.813 409.715L302.55 409.269C300.567 409.071 299.906 410.922 300.253 412.904C301.085 416.574 302.257 420.159 303.756 423.611L304.185 425.263C305.342 429.642 306.796 433.905 308.085 438.234C309.638 442.464 311.059 446.759 312.728 450.956L314.859 456.111C317.767 470.288 317.42 485.852 307.771 500.987C307.347 501.638 306.884 502.261 306.383 502.854C302.847 507.167 303.442 509.943 297.857 509.943L282.656 511.099C288.852 511 299.509 511.942 303.062 520.087C307.44 530.133 303.954 547.994 303.062 550.605L301.872 555.727C301.769 556.162 301.789 556.616 301.931 557.04C302.072 557.464 302.329 557.839 302.673 558.124C303.017 558.41 303.433 558.593 303.876 558.654C304.318 558.715 304.769 558.651 305.177 558.47L306.069 558.09C306.478 557.914 306.829 557.628 307.083 557.263C307.337 556.898 307.484 556.469 307.507 556.025L310.348 506.274C310.376 505.954 310.468 505.643 310.618 505.359C310.769 505.076 310.975 504.825 311.224 504.622C319.965 497.27 325.979 483.324 322.443 468.173Z" fill="#EA4577"/>
<path fill-rule="evenodd" clip-rule="evenodd" d="M204.628 396.022C211.651 402.934 211.743 414.229 204.834 421.254L204.831 421.257L204.797 421.291L204.631 421.461C204.478 421.619 204.238 421.866 203.921 422.197C203.285 422.858 202.336 423.854 201.127 425.148C198.706 427.737 195.252 431.508 191.187 436.163C183.02 445.513 172.555 458.24 163.067 472.001C153.442 485.961 145.49 500.036 141.558 512.18C137.451 524.866 139.073 530.915 141.171 533.686L141.172 533.688C143.913 537.308 149.983 541.929 159.871 546.803C169.343 551.472 180.581 555.54 191.666 558.913C202.679 562.263 213.128 564.802 220.85 566.506C224.698 567.355 227.838 567.99 229.996 568.408C231.074 568.618 231.904 568.773 232.452 568.873C232.726 568.923 232.93 568.96 233.058 568.983L233.194 569.007L233.213 569.01C242.924 570.695 249.43 579.932 247.745 589.642C246.061 599.353 236.824 605.859 227.113 604.174L230.163 586.592C227.113 604.174 227.11 604.174 227.107 604.173L227.014 604.157L226.796 604.118C226.613 604.086 226.352 604.039 226.02 603.978C225.355 603.856 224.401 603.678 223.193 603.443C220.778 602.974 217.339 602.279 213.16 601.357C204.828 599.518 193.432 596.754 181.279 593.057C169.2 589.382 155.953 584.661 144.093 578.815C132.648 573.174 120.537 565.556 112.72 555.232M204.628 396.022C197.603 389.11 186.305 389.2 179.392 396.225L204.628 396.022ZM179.392 396.225L191.615 408.253L179.392 396.225ZM191.615 408.253C179.392 396.225 179.39 396.227 179.387 396.23L191.615 408.253ZM179.387 396.23L179.379 396.238L179.387 396.23ZM179.379 396.238L179.357 396.26L179.379 396.238ZM179.357 396.26L179.288 396.331L179.357 396.26ZM179.288 396.331C179.23 396.39 179.15 396.472 179.049 396.577L179.288 396.331ZM179.049 396.577C178.845 396.786 178.555 397.085 178.185 397.471L179.049 396.577ZM178.185 397.471C177.444 398.241 176.383 399.356 175.056 400.776L178.185 397.471ZM175.056 400.776C172.402 403.614 168.674 407.685 164.307 412.686L175.056 400.776ZM164.307 412.686C155.608 422.645 144.205 436.484 133.684 451.743L164.307 412.686ZM133.684 451.743C123.3 466.804 113.102 484.204 107.604 501.188L133.684 451.743ZM107.604 501.188C102.28 517.631 99.9479 538.365 112.719 555.231L107.604 501.188Z" fill="#F3C29F"/>
<path fill-rule="evenodd" clip-rule="evenodd" d="M203.384 427.226C203.384 427.226 203.384 427.226 203.384 427.226L203.385 427.226C203.385 427.226 203.385 427.226 203.384 427.226ZM203.675 427.062C213.025 421.681 216.373 409.777 211.136 400.295C205.843 390.71 193.78 387.23 184.195 392.524L193.609 409.571C184.195 392.524 184.185 392.53 184.175 392.535L184.154 392.546L184.112 392.57L184.021 392.621C183.957 392.657 183.888 392.696 183.813 392.74C183.663 392.826 183.491 392.927 183.297 393.043C182.91 393.276 182.435 393.57 181.878 393.933C180.763 394.659 179.318 395.657 177.576 396.978C174.091 399.622 169.429 403.552 163.846 409.177C152.676 420.431 137.872 438.415 121.421 466.381C115.869 475.82 119.02 487.972 128.458 493.524C137.897 499.076 150.049 495.926 155.601 486.487C170.544 461.085 183.374 445.792 191.99 437.112C196.3 432.769 199.569 430.067 201.542 428.571C202.529 427.823 203.194 427.373 203.508 427.169C203.585 427.119 203.641 427.083 203.675 427.062Z" fill="#FB5A8B"/>
<path d="M225.356 359.437C225.356 359.437 186.362 345.029 177.44 313.851C174.139 302.714 172.442 291.164 172.4 279.549C172.4 238.639 203.876 205.461 242.705 205.461C281.533 205.461 305.392 238.556 305.392 279.549C305.392 295.411 308.317 310.232 300.27 322.294C300.808 317.726 301.067 313.13 301.047 308.53C301.047 307.935 301.047 307.324 301.047 306.729C301.047 305.837 301.047 304.945 301.047 304.036C301.047 269.669 286.788 236.887 260.186 236.887C235.187 236.887 214.633 261.49 212.27 292.966C207.908 293.081 201.348 295.081 201.348 307.242C201.348 314.429 202.703 333.463 213.129 345.987C218.615 352.613 225.356 359.437 225.356 359.437Z" fill="#2C2A46"/>
<path d="M294.189 235.284L290.603 237.482L281.764 241.1L272.015 226.412L219.01 241.018C219.01 241.018 175.274 300.417 212.137 298.418C211.244 304.796 216.052 315.552 216.052 315.552C215.623 312.247 215.92 300.368 216.945 297.84C258.648 296.551 283.036 282.49 289.926 265.273C297.196 276.261 295.461 283.977 305.573 289.231L307.622 281.829C310.15 268.512 303.574 245.743 294.189 235.284Z" fill="#2C2A46"/>
<path fill-rule="evenodd" clip-rule="evenodd" d="M281.142 406.783C282.506 395.918 292.42 388.216 303.285 389.58C326.252 392.463 337.998 409.415 344.905 420.498C346.545 423.13 347.863 425.345 349.063 427.361C350.902 430.45 352.462 433.072 354.475 436.009C357.407 440.287 359.776 442.783 361.95 444.275C370.978 450.471 373.274 462.813 367.078 471.842C360.881 480.87 348.539 483.166 339.51 476.97C331.597 471.539 325.973 464.565 321.767 458.429C319.142 454.599 316.336 449.913 314.022 446.049C312.977 444.304 312.032 442.726 311.25 441.471C304.823 431.157 301.698 429.347 298.345 428.926C287.48 427.562 279.778 417.648 281.142 406.783Z" fill="#FB5A8B"/>
<path d="M279.334 610.153H157.33C156.76 610.153 156.214 609.927 155.811 609.524C155.408 609.121 155.182 608.575 155.182 608.005V605.775C155.182 604.232 155.795 602.753 156.885 601.662C157.976 600.572 159.455 599.959 160.998 599.959H279.334V610.153Z" fill="#F3F6FA"/>
<path d="M297.031 487.736L260.912 609.79C260.899 609.833 260.896 609.879 260.904 609.923C260.912 609.967 260.931 610.009 260.958 610.045C260.986 610.08 261.021 610.109 261.062 610.128C261.103 610.147 261.148 610.155 261.193 610.153H421.216C423.88 610.153 426.476 609.313 428.635 607.753C430.795 606.193 432.407 603.992 433.245 601.462L468.405 495.221C469.036 493.318 469.205 491.292 468.9 489.311C468.594 487.329 467.823 485.449 466.648 483.824C465.473 482.199 463.93 480.877 462.144 479.965C460.358 479.054 458.381 478.58 456.376 478.583H309.191C306.447 478.586 303.777 479.48 301.584 481.13C299.391 482.781 297.793 485.099 297.031 487.736Z" fill="#F8FBFB"/>
<path opacity="0.6" d="M390.352 546.161C391.095 541.667 389.046 538.527 384.734 537.553C382.768 537.135 380.762 536.931 378.753 536.941C375.245 536.86 371.764 537.577 368.575 539.04C363.98 541.57 360.576 545.818 359.107 550.854C358.066 553.993 357.207 558.404 359.107 561.577C360.627 564.105 364.824 565.36 368.393 565.526L367.368 568.351C367.283 568.531 367.245 568.73 367.259 568.928C367.273 569.127 367.338 569.319 367.448 569.485C367.557 569.651 367.708 569.786 367.885 569.877C368.062 569.968 368.26 570.011 368.459 570.003H368.608C369.003 569.961 369.382 569.825 369.715 569.607C371.565 568.401 374.011 566.798 376.423 565.113L377.48 564.386C379.399 563.135 381.221 561.743 382.933 560.222C386.829 556.436 389.426 551.514 390.352 546.161Z" fill="#D2DFE6"/>
<path fill-rule="evenodd" clip-rule="evenodd" d="M892.008 1046.23L194.565 627.002L203.537 612.076L900.98 1031.31L892.008 1046.23Z" fill="#8CA0B3"/>
<path fill-rule="evenodd" clip-rule="evenodd" d="M194.565 1031.31L892.008 612.076L900.98 627.002L203.537 1046.23L194.565 1031.31Z" fill="#8CA0B3"/>
<path d="M495.19 610.153C504.359 610.155 513.24 606.95 520.295 601.093C527.35 595.236 532.135 587.096 533.82 578.083C533.98 577.196 533.943 576.285 533.712 575.415C533.48 574.544 533.061 573.735 532.482 573.045C531.904 572.354 531.18 571.799 530.364 571.419C529.547 571.039 528.657 570.844 527.756 570.846H462.607C461.706 570.844 460.816 571.039 459.999 571.419C459.182 571.799 458.459 572.354 457.881 573.045C457.302 573.735 456.882 574.544 456.651 575.415C456.42 576.285 456.383 577.196 456.543 578.083C458.234 587.096 463.023 595.235 470.08 601.091C477.137 606.947 486.019 610.153 495.19 610.153Z" fill="#3A4A65"/>
<path fill-rule="evenodd" clip-rule="evenodd" d="M540 579.454C540 579.444 540 579.434 540 579.424L540.974 579.437L542.23 579.454L540 579.454ZM544.461 579.465C544.464 579.006 544.377 578.55 544.204 578.124C544.029 577.693 543.769 577.301 543.44 576.972C543.11 576.643 542.719 576.383 542.287 576.207C541.862 576.034 541.406 575.947 540.947 575.951H533.82C532.588 575.951 531.589 576.949 531.589 578.181C531.589 579.413 532.588 580.412 533.82 580.412H539.969C539.737 584.009 538.209 587.414 535.65 589.983C532.864 592.78 529.084 594.359 525.137 594.374C523.905 594.378 522.91 595.381 522.915 596.613C522.92 597.845 523.922 598.84 525.154 598.835C530.281 598.815 535.192 596.764 538.811 593.132C542.426 589.502 544.458 584.588 544.461 579.465Z" fill="#3A4A65"/>
<path opacity="0.5" d="M500.146 513.214C501.397 512.988 502.681 513.036 503.911 513.355C505.14 513.675 506.286 514.258 507.268 515.065C509.309 516.818 510.744 519.172 511.365 521.79C511.688 523.034 511.893 524.307 511.977 525.59C512.108 526.892 512.108 528.204 511.977 529.506C511.594 532.053 510.795 534.52 509.614 536.809C507.515 541.138 505.136 544.707 503.947 548.606L503.533 550.077L503.253 551.58C503.115 552.515 503.148 553.467 503.352 554.389C503.83 556.558 504.728 558.612 505.995 560.436C503.739 559.368 501.861 557.639 500.609 555.48C499.909 554.285 499.469 552.957 499.32 551.58C499.32 550.936 499.238 550.292 499.205 549.647C499.171 549.003 499.205 548.358 499.32 547.714C499.882 542.526 502.377 538.114 504.277 534.231C505.216 532.441 505.953 530.551 506.475 528.597C506.668 527.621 506.801 526.633 506.871 525.64C506.937 524.627 506.937 523.612 506.871 522.599C506.819 520.63 506.249 518.71 505.219 517.031C504.023 515.208 502.229 513.859 500.146 513.214Z" fill="#80E3EB"/>
<path opacity="0.5" d="M486.251 527.54C487.122 527.384 488.017 527.419 488.873 527.645C489.73 527.87 490.526 528.28 491.208 528.845C492.627 530.066 493.626 531.702 494.066 533.521C494.292 534.386 494.431 535.272 494.479 536.165C494.578 537.071 494.578 537.985 494.479 538.891C494.209 540.666 493.65 542.385 492.827 543.98C491.308 546.635 489.983 549.396 488.861 552.242L488.597 553.266C488.597 553.613 488.481 553.96 488.399 554.323C488.26 554.966 488.26 555.631 488.399 556.273C488.748 557.771 489.388 559.186 490.282 560.437C488.71 559.694 487.402 558.489 486.532 556.984C486.056 556.149 485.753 555.228 485.639 554.274C485.549 553.378 485.549 552.476 485.639 551.581C486.234 548.269 487.402 545.088 489.093 542.179C489.758 540.939 490.274 539.625 490.629 538.263C490.772 537.582 490.866 536.892 490.91 536.198C490.951 535.494 490.951 534.787 490.91 534.083C490.875 532.712 490.482 531.373 489.77 530.2C488.936 528.937 487.694 527.997 486.251 527.54Z" fill="#80E3EB"/>
<path d="M652.584 610.153C643.415 610.155 634.533 606.95 627.478 601.093C620.423 595.236 615.639 587.096 613.954 578.082C613.794 577.196 613.831 576.285 614.062 575.414C614.293 574.544 614.713 573.735 615.292 573.044C615.87 572.354 616.593 571.799 617.41 571.419C618.227 571.039 619.117 570.843 620.018 570.845H685.167C686.068 570.843 686.958 571.039 687.775 571.419C688.592 571.799 689.315 572.354 689.893 573.044C690.472 573.735 690.891 574.544 691.123 575.414C691.354 576.285 691.391 577.196 691.231 578.082C689.539 587.095 684.751 595.234 677.694 601.09C670.637 606.947 661.755 610.152 652.584 610.153Z" fill="#3A4A65"/>
<path fill-rule="evenodd" clip-rule="evenodd" d="M606.827 575.951H613.954C615.186 575.951 616.185 576.95 616.185 578.182C616.185 579.414 615.186 580.412 613.954 580.412H607.806C608.037 584.01 609.565 587.414 612.124 589.984C614.91 592.78 618.69 594.359 622.637 594.374C623.869 594.379 624.864 595.381 624.859 596.613C624.855 597.845 623.852 598.84 622.62 598.835C617.493 598.815 612.582 596.765 608.964 593.132C605.348 589.502 603.317 584.588 603.314 579.465C603.31 579.006 603.397 578.55 603.57 578.124C603.745 577.693 604.005 577.301 604.335 576.972C604.664 576.643 605.056 576.383 605.487 576.208C605.913 576.035 606.368 575.947 606.827 575.951ZM607.775 579.424C607.775 579.429 607.775 579.433 607.775 579.437L607.775 579.424ZM606.8 580.412C606.795 580.412 606.791 580.412 606.787 580.412L606.8 580.412Z" fill="#3A4A65"/>
<path opacity="0.5" d="M647.628 513.214C645.551 513.862 643.764 515.211 642.572 517.031C641.55 518.713 640.98 520.632 640.92 522.599C640.846 523.611 640.846 524.627 640.92 525.64C640.977 526.633 641.104 527.621 641.3 528.597C641.821 530.551 642.558 532.441 643.497 534.231C645.397 538.114 647.892 542.493 648.454 547.714C648.454 548.358 648.454 549.003 648.57 549.647C648.685 550.292 648.57 550.936 648.454 551.58C648.305 552.957 647.866 554.285 647.165 555.48C645.913 557.639 644.035 559.368 641.779 560.436C643.046 558.612 643.944 556.558 644.423 554.389C644.626 553.467 644.66 552.515 644.522 551.58L644.241 550.077L643.844 548.606C642.638 544.707 640.259 541.138 638.16 536.809C636.979 534.52 636.181 532.053 635.798 529.506C635.666 528.204 635.666 526.892 635.798 525.59C635.881 524.307 636.086 523.034 636.409 521.79C637.03 519.172 638.465 516.818 640.507 515.065C641.488 514.258 642.634 513.675 643.863 513.355C645.093 513.036 646.378 512.988 647.628 513.214Z" fill="#80E3EB"/>
<path opacity="0.5" d="M661.523 527.54C660.08 527.997 658.838 528.936 658.004 530.2C657.292 531.373 656.899 532.711 656.864 534.083C656.823 534.787 656.823 535.493 656.864 536.197C656.916 536.891 657.01 537.581 657.145 538.263C657.5 539.624 658.016 540.939 658.681 542.179C660.379 545.084 661.548 548.267 662.135 551.58C662.226 552.476 662.226 553.378 662.135 554.273C662.021 555.227 661.718 556.149 661.242 556.983C660.372 558.488 659.064 559.693 657.492 560.436C658.374 559.166 658.998 557.735 659.326 556.223C659.464 555.581 659.464 554.916 659.326 554.273C659.243 553.91 659.194 553.563 659.127 553.216L658.979 552.175C657.858 549.329 656.532 546.568 655.013 543.914C654.19 542.318 653.632 540.599 653.361 538.825C653.262 537.919 653.262 537.004 653.361 536.098C653.41 535.205 653.548 534.32 653.774 533.455C654.214 531.635 655.214 530 656.632 528.779C657.312 528.234 658.1 527.842 658.943 527.628C659.787 527.414 660.667 527.384 661.523 527.54Z" fill="#80E3EB"/>
<path d="M983.998 610.153H111.546C106.363 610.153 102.161 614.355 102.161 619.538C102.161 624.721 106.363 628.923 111.546 628.923H983.998C989.182 628.923 993.383 624.721 993.383 619.538C993.383 614.355 989.182 610.153 983.998 610.153Z" fill="#D78935"/>
<path d="M861.896 600.375H980.248C981.791 600.375 983.27 600.987 984.361 602.078C985.451 603.169 986.064 604.648 986.064 606.191V608.421C986.064 608.991 985.838 609.537 985.435 609.94C985.032 610.343 984.486 610.569 983.916 610.569H861.896V600.375Z" fill="#F3F6FA"/>
<path d="M844.2 488.069L880.385 610.205C880.398 610.248 880.401 610.294 880.393 610.338C880.385 610.382 880.366 610.424 880.338 610.46C880.311 610.495 880.275 610.524 880.234 610.543C880.193 610.562 880.149 610.571 880.104 610.569H720.014C717.351 610.566 714.756 609.725 712.597 608.165C710.438 606.605 708.825 604.405 707.986 601.878L672.825 495.653C672.195 493.749 672.026 491.722 672.331 489.74C672.637 487.758 673.409 485.877 674.583 484.251C675.757 482.625 677.3 481.301 679.086 480.388C680.872 479.475 682.848 478.998 684.854 478.998H832.055C834.786 479.002 837.443 479.887 839.631 481.521C841.819 483.155 843.421 485.451 844.2 488.069Z" fill="#F8FBFB"/>
<path opacity="0.6" d="M778.108 544.756C776.86 542.528 775.142 540.598 773.074 539.1C771.005 537.602 768.635 536.572 766.129 536.082C763.999 535.679 761.836 535.474 759.668 535.471C756.892 535.471 753.059 535.834 750.961 537.569C748.218 539.75 747.92 543.98 750.085 549.482C751.677 553.722 754.389 557.451 757.933 560.271C761.566 562.708 765.805 564.087 770.177 564.253L771.218 567.095C771.407 567.578 771.729 567.998 772.148 568.305C772.566 568.612 773.063 568.794 773.58 568.83H773.729C773.886 568.825 774.04 568.785 774.18 568.714C774.32 568.642 774.442 568.541 774.539 568.417C775.53 567.211 776.802 565.592 778.008 563.89C778.174 563.642 778.355 563.411 778.537 563.163C779.552 561.893 780.37 560.478 780.966 558.966C782.172 555.48 781.098 550.077 778.108 544.756Z" fill="#D2DFE6"/>
<defs>
<filter id="filter0_f_10272_1608" x="287.044" y="999.627" width="533.905" height="94.3726" filterUnits="userSpaceOnUse" color-interpolation-filters="sRGB">
<feFlood flood-opacity="0" result="BackgroundImageFix"/>
<feBlend mode="normal" in="SourceGraphic" in2="BackgroundImageFix" result="shape"/>
<feGaussianBlur stdDeviation="7" result="effect1_foregroundBlur_10272_1608"/>
</filter>
</defs>
</svg>
