<svg width="1080" height="1080" viewBox="0 0 1080 1080" fill="none" xmlns="http://www.w3.org/2000/svg">
<g clip-path="url(#clip0_10272_1606)">
<path d="M472.554 418.398V810.061H88.2808L472.554 418.398Z" fill="#F6A721"/>
<g opacity="0.1" filter="url(#filter0_f_10272_1606)">
<path d="M716.419 1040.62C716.419 1057.77 611.207 1071.66 481.421 1071.66C351.636 1071.66 246.424 1057.77 246.424 1040.62C246.424 1023.48 351.636 1009.59 481.421 1009.59C611.207 1009.59 716.419 1023.48 716.419 1040.62Z" fill="#0A0F1A"/>
</g>
<g style="mix-blend-mode:luminosity" opacity="0.16">
<path d="M928.407 724.022C928.407 724.022 729.825 988.158 505.483 1024.1C281.14 1060.04 178.02 963.41 185.756 860.035C193.492 756.659 226.989 682.483 159.995 601.563C93.0021 520.643 0.0933571 455.435 67.164 255.36C134.235 55.285 319.82 -7.63031 438.489 12.5997C557.159 32.8297 567.37 145.241 706.617 174.44C845.864 203.638 1021.24 149.759 1067.65 295.82C1114.07 441.881 1021.24 614.645 928.407 724.022Z" fill="#B9CBD3"/>
</g>
<path d="M211.351 282.737L184.231 367.681L101.582 341.294L211.351 282.737Z" fill="#00C6D7"/>
<path d="M380.045 829.096L572.327 1021.44L763.94 829.653L380.045 829.096Z" fill="#00C6D7"/>
<path d="M628.362 675.868L494.456 809.817H763.94L628.362 675.868Z" fill="#FB5A8B"/>
<path opacity="0.5" d="M32.9733 897.044L0.000153809 916.218L52.2659 930.222L32.9733 897.044Z" fill="#00C6D7"/>
<path opacity="0.5" d="M249.961 221.805L201.047 250.249L278.581 271.025L249.961 221.805Z" fill="#00C6D7"/>
<path opacity="0.5" d="M866.711 322.21L822.833 347.726L892.385 366.363L866.711 322.21Z" fill="#00C6D7"/>
<path d="M930.801 296.119L886.922 321.635L956.474 340.272L930.801 296.119Z" fill="#00C6D7"/>
<path d="M494.456 233.678V778.28L765.277 507.26L494.456 233.678Z" fill="#FF4C4C"/>
<path d="M494.456 26.7356V211.947H678.382L494.456 26.7356Z" fill="#821A67"/>
<path d="M918.911 661.005L777.671 519.719L636.431 661.005L777.671 802.291L918.911 661.005Z" fill="#FF6E1D"/>
<path opacity="0.5" d="M959.132 922.232L926.782 889.871L894.432 922.232L926.782 954.592L959.132 922.232Z" fill="#00C6D7"/>
<path d="M158.019 827.648L353.197 1022.89H545.59L351.08 828.317L158.019 827.648Z" fill="#21CC79"/>
</g>
<defs>
<filter id="filter0_f_10272_1606" x="232.424" y="995.587" width="497.995" height="90.0747" filterUnits="userSpaceOnUse" color-interpolation-filters="sRGB">
<feFlood flood-opacity="0" result="BackgroundImageFix"/>
<feBlend mode="normal" in="SourceGraphic" in2="BackgroundImageFix" result="shape"/>
<feGaussianBlur stdDeviation="7" result="effect1_foregroundBlur_10272_1606"/>
</filter>
<clipPath id="clip0_10272_1606">
<rect width="1080" height="1080" fill="white"/>
</clipPath>
</defs>
</svg>
