<svg width="1080" height="1080" viewBox="0 0 1080 1080" fill="none" xmlns="http://www.w3.org/2000/svg"><g clip-path="url(#tangram__a)"><path d="M472.554 418.398v391.663H88.281l384.273-391.663Z" fill="#F6A721"/><g opacity=".1" filter="url(#tangram__b)"><path d="M716.419 1040.62c0 17.15-105.212 31.04-234.998 31.04-129.785 0-234.997-13.89-234.997-31.04 0-17.14 105.212-31.03 234.997-31.03 129.786 0 234.998 13.89 234.998 31.03Z" fill="#0A0F1A"/></g><path d="M928.407 724.022S729.825 988.158 505.483 1024.1c-224.343 35.94-327.463-60.69-319.727-164.065 7.736-103.376 41.233-177.552-25.761-258.472C93.002 520.643.093 455.435 67.164 255.36 134.235 55.285 319.82-7.63 438.489 12.6c118.67 20.23 128.881 132.64 268.128 161.84 139.247 29.198 314.623-24.681 361.033 121.38 46.42 146.061-46.41 318.825-139.243 428.202Z" fill="#B9CBD3" style="mix-blend-mode:luminosity" opacity=".16"/><path d="m211.351 282.737-27.12 84.944-82.649-26.387 109.769-58.557Zm168.694 546.359 192.282 192.344L763.94 829.653l-383.895-.557Z" fill="#00C6D7"/><path d="M628.362 675.868 494.456 809.817H763.94L628.362 675.868Z" fill="#FB5A8B"/><path opacity=".5" d="M32.973 897.044 0 916.218l52.266 14.004-19.293-33.178Zm216.988-675.239-48.914 28.444 77.534 20.776-28.62-49.22Zm616.75 100.405-43.878 25.516 69.552 18.637-25.674-44.153Z" fill="#00C6D7"/><path d="m930.801 296.119-43.879 25.516 69.552 18.637-25.673-44.153Z" fill="#00C6D7"/><path d="M494.456 233.678V778.28l270.821-271.02-270.821-273.582Z" fill="#FF4C4C"/><path d="M494.456 26.736v185.211h183.926L494.456 26.736Z" fill="#821A67"/><path d="m918.911 661.005-141.24-141.286-141.24 141.286 141.24 141.286 141.24-141.286Z" fill="#FF6E1D"/><path opacity=".5" d="m959.132 922.232-32.35-32.361-32.35 32.361 32.35 32.36 32.35-32.36Z" fill="#00C6D7"/><path d="m158.019 827.648 195.178 195.242H545.59L351.08 828.317l-193.061-.669Z" fill="#21CC79"/></g><defs><clipPath id="tangram__a"><path fill="#fff" d="M0 0h1080v1080H0z"/></clipPath><filter id="tangram__b" x="232.424" y="995.587" width="497.995" height="90.075" filterUnits="userSpaceOnUse" color-interpolation-filters="sRGB"><feFlood flood-opacity="0" result="BackgroundImageFix"/><feBlend in="SourceGraphic" in2="BackgroundImageFix" result="shape"/><feGaussianBlur stdDeviation="7" result="effect1_foregroundBlur_10272_1606"/></filter></defs></svg>