<svg xmlns="http://www.w3.org/2000/svg" width="1080" height="1080" viewBox="0 0 1080 1080" fill="none"><g clip-path="url(#a)"><path fill="#FBCF23" d="M472.554 418.397V810.06H88.281z"/><g filter="url(#b)" opacity=".1"><path fill="#141414" d="M716.419 1040.62c0 17.14-105.212 31.04-234.998 31.04-129.785 0-234.997-13.9-234.997-31.04s105.212-31.03 234.997-31.03 234.998 13.89 234.998 31.03"/></g><path fill="#0096FA" d="m211.351 282.735-27.12 84.945-82.649-26.388zM380.045 829.095l192.282 192.345L763.94 829.652z"/><path fill="#FB4BC1" d="m628.362 675.866-133.906 133.95H763.94z"/><path fill="#0096FA" d="M32.973 897.042 0 916.216l52.266 14.005zM249.961 221.804l-48.914 28.444 77.534 20.775zM866.711 322.209l-43.878 25.516 69.552 18.636z" opacity=".5"/><path fill="#0096FA" d="m930.8 296.118-43.879 25.516 69.553 18.636z"/><path fill="#A80B0B" d="M494.456 233.677v544.602l270.821-271.02z"/><path fill="#561093" d="M494.456 26.734v185.212h183.926z"/><path fill="#F06305" d="m918.911 661.003-141.24-141.285-141.24 141.285 141.24 141.286z"/><path fill="#0096FA" d="m959.132 922.231-32.351-32.361-32.35 32.361 32.35 32.36z" opacity=".5"/><path fill="#35DE90" d="m158.019 827.646 195.178 195.244H545.59L351.08 828.315z"/></g><defs><clipPath id="a"><path fill="#fff" d="M0 0h1080v1080H0z"/></clipPath><filter id="b" width="497.995" height="90.075" x="232.424" y="995.586" color-interpolation-filters="sRGB" filterUnits="userSpaceOnUse"><feFlood flood-opacity="0" result="BackgroundImageFix"/><feBlend in="SourceGraphic" in2="BackgroundImageFix" result="shape"/><feGaussianBlur result="effect1_foregroundBlur_10272_1606" stdDeviation="7"/></filter></defs></svg>