<svg width="1080" height="1080" viewBox="0 0 1080 1080" viewBox="0 0 1080 1080" fill="none" xmlns="http://www.w3.org/2000/svg">
<path d="M568.791 846.987C803.539 846.987 993.84 657.383 993.84 423.494C993.84 189.605 803.539 0 568.791 0C334.042 0 143.741 189.605 143.741 423.494C143.741 657.383 334.042 846.987 568.791 846.987Z" fill="#072F73"/>
<path d="M299.97 1080C382.868 1080 450.071 1013.04 450.071 930.448C450.071 847.853 382.868 780.896 299.97 780.896C217.071 780.896 149.868 847.853 149.868 930.448C149.868 1013.04 217.071 1080 299.97 1080Z" fill="#0096FA"/>
<path d="M189.841 810.877C228.325 810.877 259.522 779.794 259.522 741.451C259.522 703.108 228.325 672.025 189.841 672.025C151.357 672.025 120.16 703.108 120.16 741.451C120.16 779.794 151.357 810.877 189.841 810.877Z" fill="#C5D9FB"/>
<path d="M939.33 890.215L895.875 735.865C886.787 703.607 861.442 678.445 829.043 669.502L655.677 621.657C637.613 616.678 631.508 594.22 644.599 580.839L768.813 453.904C792.484 429.71 801.596 394.862 792.778 362.244L751.811 210.665L291.446 336.767L334.019 487.918C343.175 520.446 368.882 545.766 401.642 554.483L573.516 600.302C591.626 605.122 597.911 627.536 584.956 641.029L460.494 770.443C437.229 794.636 428.366 829.169 437.116 861.516L478.965 1016.32L939.33 890.215Z" fill="url(#paint0_linear_18020_2489)"/>
<path d="M757.141 168.267L265.128 303.018C257.904 304.997 253.658 312.435 255.643 319.633L264.71 352.496C266.696 359.694 274.162 363.925 281.386 361.946L773.399 227.195C780.623 225.217 784.869 217.778 782.883 210.581L773.817 177.717C771.831 170.52 764.365 166.289 757.141 168.267Z" fill="#1968F0"/>
<path d="M949.372 865.065L457.359 999.816C450.135 1001.79 445.889 1009.23 447.874 1016.43L456.941 1049.29C458.927 1056.49 466.393 1060.72 473.617 1058.74L965.63 923.993C972.854 922.015 977.1 914.576 975.114 907.379L966.048 874.515C964.062 867.318 956.596 863.087 949.372 865.065Z" fill="#1968F0"/>
<path d="M360.041 453.474L364.043 467.711C371.888 495.553 393.887 517.201 421.922 524.68L525.969 552.432L584.481 568.065C596.735 571.331 609.803 567.75 618.643 558.717L674.171 501.906L736.097 438.629C756.355 417.928 764.155 388.103 756.603 360.193L752.737 345.934C750.296 336.901 740.958 331.585 731.892 334.062L371.821 432.682C362.777 435.16 357.464 444.509 359.996 453.497L360.041 453.474Z" fill="#1968F0"/>
<path d="M625.01 678.166L604.935 713.333C601.873 718.697 603.755 725.518 609.138 728.569L644.434 748.571C649.818 751.622 656.664 749.746 659.726 744.383L679.802 709.216C682.864 703.852 680.982 697.031 675.598 693.98L640.302 673.978C634.919 670.927 628.072 672.802 625.01 678.166Z" fill="#1968F0"/>
<defs>
<linearGradient id="paint0_linear_18020_2489" x1="602.15" y1="265.674" x2="630.455" y2="1004.91" gradientUnits="userSpaceOnUse">
<stop stop-color="white"/>
<stop offset="0.32" stop-color="#FCFDFE"/>
<stop offset="0.55" stop-color="#F2F6FE"/>
<stop offset="0.76" stop-color="#E2ECFD"/>
<stop offset="0.95" stop-color="#CBDDFB"/>
<stop offset="1" stop-color="#C5D9FB"/>
</linearGradient>
</defs>
</svg>
