<svg width="1080" height="1080" viewBox="0 0 1080 1080" fill="none" xmlns="http://www.w3.org/2000/svg">
<path d="M630.33 723.248C798.076 723.248 934.06 586.42 934.06 417.634C934.06 248.849 798.076 112.021 630.33 112.021C462.584 112.021 326.6 248.849 326.6 417.634C326.6 586.42 462.584 723.248 630.33 723.248Z" fill="#C5D9FB"/>
<path d="M367.346 223.249C403.076 223.249 432.041 194.105 432.041 158.153C432.041 122.201 403.076 93.0566 367.346 93.0566C331.616 93.0566 302.651 122.201 302.651 158.153C302.651 194.105 331.616 223.249 367.346 223.249Z" fill="#84EBBC"/>
<path d="M859.593 445.224C883.082 445.224 902.124 426.183 902.124 402.693C902.124 379.204 883.082 360.162 859.593 360.162C836.103 360.162 817.061 379.204 817.061 402.693C817.061 426.183 836.103 445.224 859.593 445.224Z" fill="white"/>
<path d="M672.614 246.302L741.294 238.157L747.165 242.779L762.503 371.994L711.772 378.014L709.311 357.289L686.126 360.029C683.834 358.221 682.548 357.215 680.255 355.407L667.992 252.154L672.614 246.283V246.302Z" fill="#8C3A03"/>
<path d="M759.446 346.24L730.949 348.924L701.241 334.722L666.258 248.355L746.362 236.949L759.446 346.24Z" fill="black"/>
<path d="M697.126 327.52L678.879 329.855L675.871 306.339L701.346 303.08L703.43 319.367C703.941 323.36 701.119 327.01 697.126 327.52Z" fill="#8C3A03"/>
<path d="M1075.49 694.278L1054.91 669.173L1076.09 706.169L1070.94 711.48L1045.71 679.74L1060.92 725.179L1053.67 728.683L1030.87 686.282L1037.43 725.775L1029.73 728.198L1006.79 667.626L995.627 690.793L989.496 689.879L997.286 643.49L991.602 629.046L1039.41 609.271L1061.27 654.99L1080 688.631L1075.49 694.278Z" fill="#8C3A03"/>
<path d="M496.195 615.609L469.339 627.631L442.482 626.531L419.315 637.807L401.348 680.189L393.036 689.825L401.721 695.975L404.069 694.54L413.351 701.082L415.923 699.591L426.882 706.077L432.045 703.337L441.419 708.033L520.517 664.626L496.195 615.609Z" fill="#8C3A03"/>
<path d="M375.832 641.48L406.77 640.939L433.646 630.502L453.737 631.508L466.653 657.489L458.956 658.198L446.04 646.213L431.67 645.039L398.383 683.638L364.388 682.836L375.832 641.48Z" fill="url(#paint0_linear_18020_2553)"/>
<path d="M486.981 687.738L495.908 678.084L476.637 666.23L472.07 672.101L486.981 687.738Z" fill="#FCAA73"/>
<path d="M489.517 690.795L479.658 700.71L460.983 676.537L468.643 669.548L489.517 690.795Z" fill="#FCAA73"/>
<path d="M476.978 696.573L467.697 704.289L456.589 686.695L463.149 681.663L476.978 696.573Z" fill="#FCAA73"/>
<path d="M465.985 701.438L457.691 707.626L451.13 693.871L456.852 690.312L465.985 701.438Z" fill="#FCAA73"/>
<path d="M432.039 703.336L438.488 699.869L441.414 708.032L432.039 703.336Z" fill="url(#paint1_linear_18020_2553)"/>
<path d="M415.914 699.589L425.363 693.141L426.873 706.075L415.914 699.589Z" fill="url(#paint2_linear_18020_2553)"/>
<path d="M404.058 694.541L414.7 687.794L413.339 701.083L404.058 694.541Z" fill="url(#paint3_linear_18020_2553)"/>
<path d="M393.034 689.825L392.195 683.488L401.607 683.619L393.034 689.825Z" fill="#8C3A03"/>
<path d="M603.885 440.833C611.43 463.077 635.579 474.994 657.823 467.45C680.068 459.906 691.985 435.757 684.441 413.512C676.897 391.267 652.748 379.35 630.503 386.895C608.258 394.439 596.341 418.588 603.885 440.833Z" fill="white"/>
<path d="M461.351 461.363C468.896 483.608 493.045 495.525 515.289 487.98C537.534 480.436 549.451 456.287 541.907 434.042C534.362 411.798 510.214 399.881 487.969 407.425C465.724 414.969 453.807 439.118 461.351 461.363Z" fill="white"/>
<path d="M650.281 469.279L638.142 385.087L496.802 405.466L508.941 489.657L650.281 469.279Z" fill="white"/>
<path d="M478.098 483.033L526.65 413.188L412.09 333.551L363.537 403.395L478.098 483.033Z" fill="white"/>
<path d="M301.968 329.149L332.728 339.514L295.154 319.386L296.697 312.154L334.926 325.672L297.929 295.223L302.216 288.406L344.032 312.256L317.519 282.259L322.759 276.121L374.341 315.296L371.514 289.735L377.197 287.256L395.203 330.712L407.684 339.941L377.651 382.065L334.865 354.908L301.141 336.329L301.968 329.149Z" fill="#8C3A03"/>
<path d="M702.922 626.792L888.348 627.128L859.59 360.162L630.329 386.013L702.922 626.792Z" fill="white"/>
<path d="M965.095 545.511C988.584 545.511 1007.63 526.47 1007.63 502.98C1007.63 479.491 988.584 460.449 965.095 460.449C941.605 460.449 922.564 479.491 922.564 502.98C922.564 526.47 941.605 545.511 965.095 545.511Z" fill="white"/>
<path d="M933.308 532.128L992.129 470.682L888.975 371.932L830.153 433.378L933.308 532.128Z" fill="white"/>
<path d="M978.405 642.317L1056.25 608.08L1004.85 486.749L926.984 520.968L978.405 642.317Z" fill="white"/>
<path d="M716.805 680.486L892.912 669.136L884.674 585.154L698.167 610.557L716.805 680.486Z" fill="#1968F0"/>
<path d="M916.376 939.232L866.52 937.237C865.775 941.319 862.886 969.667 847.584 970.617C822.293 972.183 832.506 986.944 832.506 986.944H925.061L916.376 939.25V939.232Z" fill="#072F73"/>
<path d="M714.477 950.694L650.979 937.237C650.103 941.319 646.692 969.667 628.614 970.617C598.738 972.183 610.796 986.944 610.796 986.944H720.18L714.459 950.694H714.477Z" fill="#072F73"/>
<path d="M629.581 956.007L589.79 826.047C582.484 794.568 591.56 761.914 614.074 738.729L703.125 646.995L698.168 610.577L787.703 598.388L798.587 678.381L678.915 801.669C677.89 802.712 677.48 804.203 677.815 805.62L720.589 950.621L629.6 956.007H629.581Z" fill="#1968F0"/>
<path d="M840.353 952.185L771.729 844.217C755.402 819.112 751.954 787.391 762.484 759.36L800.748 657.487L794.597 600.66L884.43 590.932L892.892 669.135L847.062 791.137C846.577 792.405 846.745 793.84 847.472 794.977L937.827 944.954L840.334 952.185H840.353Z" fill="#1968F0"/>
<path d="M789.361 687.847L830.457 678.118L762.504 759.36L789.361 687.847Z" fill="url(#paint4_linear_18020_2553)"/>
<path d="M667.21 510.864L675.429 465.202L883.836 585.266L698.167 610.557L667.21 510.864Z" fill="url(#paint5_linear_18020_2553)"/>
<path d="M877.532 480.076L868.623 430.127L918.926 520.874L877.532 480.076Z" fill="url(#paint6_linear_18020_2553)"/>
<path d="M674.063 298.434L667.335 328.738L680.139 329.503L674.063 298.434Z" fill="#8C3A03"/>
<path d="M311.019 986.944C482.789 986.944 622.037 849.426 622.037 679.788C622.037 510.15 482.789 372.631 311.019 372.631C139.248 372.631 0 510.15 0 679.788C0 849.426 139.248 986.944 311.019 986.944Z" fill="#072F73"/>
<path d="M311.015 945.901C462.319 945.901 584.976 826.758 584.976 679.787C584.976 532.816 462.319 413.673 311.015 413.673C159.71 413.673 37.0536 532.816 37.0536 679.787C37.0536 826.758 159.71 945.901 311.015 945.901Z" fill="url(#paint7_linear_18020_2553)"/>
<path fill-rule="evenodd" clip-rule="evenodd" d="M309.486 672.951V478.208H295.815V686.621H504.229V672.951H309.486Z" fill="black"/>
<defs>
<linearGradient id="paint0_linear_18020_2553" x1="422.995" y1="656.248" x2="290.161" y2="672.167" gradientUnits="userSpaceOnUse">
<stop stop-color="#FCAA73"/>
<stop offset="0.15" stop-color="#FBA66D"/>
<stop offset="0.35" stop-color="#F99C5D"/>
<stop offset="0.57" stop-color="#F68B43"/>
<stop offset="0.8" stop-color="#F2731E"/>
<stop offset="0.95" stop-color="#F06305"/>
</linearGradient>
<linearGradient id="paint1_linear_18020_2553" x1="439.563" y1="703.999" x2="429.486" y2="704.651" gradientUnits="userSpaceOnUse">
<stop stop-color="#8C3A03"/>
<stop offset="0.14" stop-color="#863702"/>
<stop offset="0.32" stop-color="#763102"/>
<stop offset="0.52" stop-color="#5C2601"/>
<stop offset="0.74" stop-color="#371601"/>
<stop offset="0.96" stop-color="#080300"/>
<stop offset="1"/>
</linearGradient>
<linearGradient id="paint2_linear_18020_2553" x1="427.199" y1="699.901" x2="409.199" y2="695.166" gradientUnits="userSpaceOnUse">
<stop stop-color="#8C3A03"/>
<stop offset="0.14" stop-color="#863702"/>
<stop offset="0.32" stop-color="#763102"/>
<stop offset="0.52" stop-color="#5C2601"/>
<stop offset="0.74" stop-color="#371601"/>
<stop offset="0.96" stop-color="#080300"/>
<stop offset="1"/>
</linearGradient>
<linearGradient id="paint3_linear_18020_2553" x1="411.908" y1="694.187" x2="398.708" y2="692.633" gradientUnits="userSpaceOnUse">
<stop stop-color="#8C3A03"/>
<stop offset="0.14" stop-color="#863702"/>
<stop offset="0.32" stop-color="#763102"/>
<stop offset="0.52" stop-color="#5C2601"/>
<stop offset="0.74" stop-color="#371601"/>
<stop offset="0.96" stop-color="#080300"/>
<stop offset="1"/>
</linearGradient>
<linearGradient id="paint4_linear_18020_2553" x1="808.428" y1="727.34" x2="753.26" y2="687.642" gradientUnits="userSpaceOnUse">
<stop offset="0.2" stop-color="#1968F0"/>
<stop offset="0.32" stop-color="#1864E9"/>
<stop offset="0.48" stop-color="#155CD6"/>
<stop offset="0.67" stop-color="#104EB8"/>
<stop offset="0.88" stop-color="#0A3B8D"/>
<stop offset="1" stop-color="#072F73"/>
</linearGradient>
<linearGradient id="paint5_linear_18020_2553" x1="817.076" y1="473.477" x2="678.188" y2="665.482" gradientUnits="userSpaceOnUse">
<stop offset="0.27" stop-color="white"/>
<stop offset="0.39" stop-color="#FAFBFE"/>
<stop offset="0.52" stop-color="#ECF2FD"/>
<stop offset="0.67" stop-color="#D4E3FC"/>
<stop offset="0.79" stop-color="#BDD4FB"/>
</linearGradient>
<linearGradient id="paint6_linear_18020_2553" x1="929" y1="451.253" x2="853.715" y2="503.114" gradientUnits="userSpaceOnUse">
<stop offset="0.47" stop-color="white"/>
<stop offset="0.61" stop-color="#E8F0FD"/>
<stop offset="0.83" stop-color="#BDD4FB"/>
</linearGradient>
<linearGradient id="paint7_linear_18020_2553" x1="415.305" y1="357.643" x2="203.532" y2="1011.33" gradientUnits="userSpaceOnUse">
<stop stop-color="white"/>
<stop offset="0.32" stop-color="#FCFDFE"/>
<stop offset="0.55" stop-color="#F2F6FE"/>
<stop offset="0.76" stop-color="#E2ECFD"/>
<stop offset="0.95" stop-color="#CBDDFB"/>
<stop offset="1" stop-color="#C5D9FB"/>
</linearGradient>
</defs>
</svg>
