<svg width="1080" height="1081" viewBox="0 0 1080 1081" fill="none" xmlns="http://www.w3.org/2000/svg">
<path d="M630.33 723.762C798.076 723.762 934.06 586.934 934.06 418.148C934.06 249.362 798.076 112.534 630.33 112.534C462.584 112.534 326.6 249.362 326.6 418.148C326.6 586.934 462.584 723.762 630.33 723.762Z" fill="#C5D9FB"/>
<path d="M367.346 223.763C403.076 223.763 432.041 194.618 432.041 158.667C432.041 122.715 403.076 93.5703 367.346 93.5703C331.616 93.5703 302.651 122.715 302.651 158.667C302.651 194.618 331.616 223.763 367.346 223.763Z" fill="#84EBBC"/>
<path d="M859.593 445.738C883.082 445.738 902.124 426.696 902.124 403.207C902.124 379.718 883.082 360.676 859.593 360.676C836.103 360.676 817.062 379.718 817.062 403.207C817.062 426.696 836.103 445.738 859.593 445.738Z" fill="white"/>
<path d="M672.614 246.816L741.294 238.671L747.164 243.293L762.503 372.508L711.772 378.528L709.311 357.803L686.126 360.542C683.834 358.735 682.548 357.728 680.255 355.92L667.992 252.668L672.614 246.797V246.816Z" fill="#8C3A03"/>
<path d="M759.446 346.754L730.949 349.438L701.241 335.236L666.258 248.869L746.363 237.463L759.446 346.754Z" fill="black"/>
<path d="M697.126 328.034L678.879 330.368L675.871 306.853L701.346 303.594L703.43 319.881C703.941 323.874 701.119 327.523 697.126 328.034Z" fill="#8C3A03"/>
<path d="M1075.49 694.791L1054.91 669.687L1076.09 706.682L1070.94 711.994L1045.71 680.254L1060.92 725.693L1053.67 729.197L1030.87 686.796L1037.43 726.289L1029.73 728.712L1006.79 668.14L995.627 691.306L989.496 690.393L997.286 644.004L991.602 629.56L1039.41 609.785L1061.27 655.503L1080 689.144L1075.49 694.791Z" fill="#8C3A03"/>
<path d="M496.195 616.123L469.338 628.144L442.482 627.045L419.315 638.32L401.348 680.703L393.036 690.338L401.721 696.489L404.069 695.053L413.351 701.595L415.923 700.104L426.882 706.59L432.044 703.85L441.419 708.547L520.517 665.14L496.195 616.123Z" fill="#8C3A03"/>
<path d="M375.832 641.993L406.77 641.453L433.646 631.016L453.737 632.022L466.653 658.003L458.956 658.711L446.04 646.727L431.67 645.553L398.383 684.152L364.388 683.35L375.832 641.993Z" fill="url(#paint0_linear_18020_2553)"/>
<path d="M486.98 688.252L495.908 678.598L476.637 666.744L472.07 672.615L486.98 688.252Z" fill="#FCAA73"/>
<path d="M489.517 691.308L479.658 701.224L460.983 677.051L468.643 670.062L489.517 691.308Z" fill="#FCAA73"/>
<path d="M476.978 697.087L467.697 704.803L456.589 687.209L463.149 682.177L476.978 697.087Z" fill="#FCAA73"/>
<path d="M465.985 701.952L457.691 708.14L451.13 694.385L456.852 690.825L465.985 701.952Z" fill="#FCAA73"/>
<path d="M432.039 703.849L438.488 700.383L441.414 708.546L432.039 703.849Z" fill="url(#paint1_linear_18020_2553)"/>
<path d="M415.914 700.103L425.363 693.654L426.873 706.589L415.914 700.103Z" fill="url(#paint2_linear_18020_2553)"/>
<path d="M404.058 695.054L414.7 688.308L413.339 701.596L404.058 695.054Z" fill="url(#paint3_linear_18020_2553)"/>
<path d="M393.034 690.339L392.195 684.002L401.607 684.132L393.034 690.339Z" fill="#8C3A03"/>
<path d="M603.886 441.346C611.43 463.591 635.579 475.508 657.824 467.964C680.068 460.419 691.985 436.271 684.441 414.026C676.897 391.781 652.748 379.864 630.503 387.408C608.258 394.953 596.341 419.102 603.886 441.346Z" fill="white"/>
<path d="M461.351 461.877C468.896 484.121 493.045 496.038 515.289 488.494C537.534 480.95 549.451 456.801 541.907 434.556C534.362 412.311 510.214 400.394 487.969 407.939C465.724 415.483 453.807 439.632 461.351 461.877Z" fill="white"/>
<path d="M650.281 469.792L638.142 385.601L496.802 405.979L508.941 490.171L650.281 469.792Z" fill="white"/>
<path d="M478.098 483.546L526.651 413.702L412.09 334.064L363.537 403.908L478.098 483.546Z" fill="white"/>
<path d="M301.968 329.663L332.728 340.028L295.154 319.899L296.697 312.668L334.926 326.185L297.929 295.736L302.216 288.92L344.032 312.77L317.519 282.773L322.758 276.635L374.341 315.809L371.514 290.249L377.197 287.77L395.203 331.226L407.684 340.454L377.651 382.578L334.865 355.422L301.14 336.842L301.968 329.663Z" fill="#8C3A03"/>
<path d="M702.922 627.306L888.348 627.641L859.59 360.676L630.329 386.526L702.922 627.306Z" fill="white"/>
<path d="M965.095 546.025C988.584 546.025 1007.63 526.983 1007.63 503.494C1007.63 480.005 988.584 460.963 965.095 460.963C941.606 460.963 922.564 480.005 922.564 503.494C922.564 526.983 941.606 546.025 965.095 546.025Z" fill="white"/>
<path d="M933.308 532.641L992.129 471.195L888.975 372.446L830.153 433.892L933.308 532.641Z" fill="white"/>
<path d="M978.405 642.831L1056.25 608.594L1004.85 487.263L926.984 521.481L978.405 642.831Z" fill="white"/>
<path d="M716.805 681L892.912 669.649L884.674 585.668L698.167 611.071L716.805 681Z" fill="#1968F0"/>
<path d="M916.376 939.745L866.52 937.751C865.775 941.833 862.886 970.18 847.584 971.131C822.293 972.697 832.506 987.458 832.506 987.458H925.061L916.376 939.764V939.745Z" fill="#072F73"/>
<path d="M714.477 951.207L650.979 937.751C650.103 941.833 646.692 970.18 628.614 971.131C598.737 972.697 610.796 987.458 610.796 987.458H720.18L714.459 951.207H714.477Z" fill="#072F73"/>
<path d="M629.581 956.521L589.79 826.56C582.484 795.081 591.56 762.428 614.074 739.243L703.125 647.508L698.168 611.09L787.703 598.901L798.587 678.894L678.915 802.182C677.89 803.226 677.48 804.717 677.815 806.133L720.589 951.134L629.6 956.521H629.581Z" fill="#1968F0"/>
<path d="M840.352 952.699L771.729 844.731C755.402 819.626 751.954 787.905 762.484 759.874L800.747 658L794.597 601.174L884.43 591.445L892.892 669.649L847.062 791.651C846.577 792.918 846.745 794.353 847.472 795.49L937.827 945.467L840.334 952.699H840.352Z" fill="#1968F0"/>
<path d="M789.361 688.361L830.457 678.632L762.504 759.873L789.361 688.361Z" fill="url(#paint4_linear_18020_2553)"/>
<path d="M667.21 511.378L675.429 465.716L883.836 585.78L698.167 611.071L667.21 511.378Z" fill="url(#paint5_linear_18020_2553)"/>
<path d="M877.532 480.59L868.623 430.641L918.926 521.387L877.532 480.59Z" fill="url(#paint6_linear_18020_2553)"/>
<path d="M674.063 298.947L667.335 329.252L680.139 330.016L674.063 298.947Z" fill="#8C3A03"/>
<path d="M311.019 987.458C482.789 987.458 622.037 849.939 622.037 680.301C622.037 510.663 482.789 373.145 311.019 373.145C139.248 373.145 0 510.663 0 680.301C0 849.939 139.248 987.458 311.019 987.458Z" fill="#072F73"/>
<path d="M311.015 946.415C462.319 946.415 584.976 827.272 584.976 680.301C584.976 533.33 462.319 414.187 311.015 414.187C159.71 414.187 37.0537 533.33 37.0537 680.301C37.0537 827.272 159.71 946.415 311.015 946.415Z" fill="url(#paint7_linear_18020_2553)"/>
<path fill-rule="evenodd" clip-rule="evenodd" d="M309.486 673.464V478.722H295.815V687.135H504.228V673.464H309.486Z" fill="black"/>
<defs>
<linearGradient id="paint0_linear_18020_2553" x1="422.995" y1="656.762" x2="290.161" y2="672.68" gradientUnits="userSpaceOnUse">
<stop stop-color="#FCAA73"/>
<stop offset="0.15" stop-color="#FBA66D"/>
<stop offset="0.35" stop-color="#F99C5D"/>
<stop offset="0.57" stop-color="#F68B43"/>
<stop offset="0.8" stop-color="#F2731E"/>
<stop offset="0.95" stop-color="#F06305"/>
</linearGradient>
<linearGradient id="paint1_linear_18020_2553" x1="439.563" y1="704.513" x2="429.486" y2="705.165" gradientUnits="userSpaceOnUse">
<stop stop-color="#8C3A03"/>
<stop offset="0.14" stop-color="#863702"/>
<stop offset="0.32" stop-color="#763102"/>
<stop offset="0.52" stop-color="#5C2601"/>
<stop offset="0.74" stop-color="#371601"/>
<stop offset="0.96" stop-color="#080300"/>
<stop offset="1"/>
</linearGradient>
<linearGradient id="paint2_linear_18020_2553" x1="427.199" y1="700.414" x2="409.199" y2="695.679" gradientUnits="userSpaceOnUse">
<stop stop-color="#8C3A03"/>
<stop offset="0.14" stop-color="#863702"/>
<stop offset="0.32" stop-color="#763102"/>
<stop offset="0.52" stop-color="#5C2601"/>
<stop offset="0.74" stop-color="#371601"/>
<stop offset="0.96" stop-color="#080300"/>
<stop offset="1"/>
</linearGradient>
<linearGradient id="paint3_linear_18020_2553" x1="411.908" y1="694.701" x2="398.708" y2="693.147" gradientUnits="userSpaceOnUse">
<stop stop-color="#8C3A03"/>
<stop offset="0.14" stop-color="#863702"/>
<stop offset="0.32" stop-color="#763102"/>
<stop offset="0.52" stop-color="#5C2601"/>
<stop offset="0.74" stop-color="#371601"/>
<stop offset="0.96" stop-color="#080300"/>
<stop offset="1"/>
</linearGradient>
<linearGradient id="paint4_linear_18020_2553" x1="808.428" y1="727.854" x2="753.26" y2="688.156" gradientUnits="userSpaceOnUse">
<stop offset="0.2" stop-color="#1968F0"/>
<stop offset="0.32" stop-color="#1864E9"/>
<stop offset="0.48" stop-color="#155CD6"/>
<stop offset="0.67" stop-color="#104EB8"/>
<stop offset="0.88" stop-color="#0A3B8D"/>
<stop offset="1" stop-color="#072F73"/>
</linearGradient>
<linearGradient id="paint5_linear_18020_2553" x1="817.076" y1="473.991" x2="678.188" y2="665.996" gradientUnits="userSpaceOnUse">
<stop offset="0.27" stop-color="white"/>
<stop offset="0.39" stop-color="#FAFBFE"/>
<stop offset="0.52" stop-color="#ECF2FD"/>
<stop offset="0.67" stop-color="#D4E3FC"/>
<stop offset="0.79" stop-color="#BDD4FB"/>
</linearGradient>
<linearGradient id="paint6_linear_18020_2553" x1="929" y1="451.767" x2="853.715" y2="503.628" gradientUnits="userSpaceOnUse">
<stop offset="0.47" stop-color="white"/>
<stop offset="0.61" stop-color="#E8F0FD"/>
<stop offset="0.83" stop-color="#BDD4FB"/>
</linearGradient>
<linearGradient id="paint7_linear_18020_2553" x1="415.305" y1="358.157" x2="203.532" y2="1011.84" gradientUnits="userSpaceOnUse">
<stop stop-color="white"/>
<stop offset="0.32" stop-color="#FCFDFE"/>
<stop offset="0.55" stop-color="#F2F6FE"/>
<stop offset="0.76" stop-color="#E2ECFD"/>
<stop offset="0.95" stop-color="#CBDDFB"/>
<stop offset="1" stop-color="#C5D9FB"/>
</linearGradient>
</defs>
</svg>
