<svg xmlns="http://www.w3.org/2000/svg" width="1080" height="1081" fill="none"><path fill="#072F73" d="M568.791 847.501c234.748 0 425.049-189.605 425.049-423.494S803.539.514 568.791.514c-234.749 0-425.05 189.604-425.05 423.493s190.301 423.494 425.05 423.494"/><path fill="#0096FA" d="M299.97 1080.51c82.899 0 150.101-66.95 150.101-149.548 0-82.595-67.202-149.552-150.101-149.552s-150.101 66.957-150.101 149.552c0 82.598 67.202 149.548 150.101 149.548"/><path fill="#C5D9FB" d="M189.841 811.391c38.484 0 69.681-31.083 69.681-69.426s-31.197-69.426-69.681-69.426-69.681 31.083-69.681 69.426 31.197 69.426 69.681 69.426"/><path fill="url(#a)" d="m939.33 890.728-43.454-154.35c-9.089-32.257-34.434-57.419-66.833-66.362L655.678 622.17c-18.065-4.978-24.169-27.437-11.079-40.817l124.214-126.936c23.672-24.193 32.783-59.041 23.966-91.659l-40.968-151.579-460.365 126.102 42.573 151.151c9.157 32.528 34.863 57.847 67.624 66.565l171.873 45.818c18.11 4.821 24.395 27.235 11.441 40.728L460.494 770.956c-23.265 24.193-32.128 58.726-23.378 91.074l41.849 154.8z"/><path fill="#1968F0" d="M757.141 168.781 265.128 303.532c-7.224 1.978-11.47 9.417-9.485 16.615l9.067 32.863c1.986 7.197 9.452 11.428 16.676 9.45l492.013-134.751c7.224-1.978 11.47-9.417 9.485-16.615l-9.067-32.863c-1.986-7.197-9.452-11.428-16.676-9.45M949.372 865.579 457.359 1000.33c-7.224 1.98-11.47 9.42-9.485 16.61l9.067 32.87c1.986 7.2 9.452 11.43 16.676 9.45L965.63 924.507c7.224-1.979 11.47-9.417 9.484-16.615l-9.066-32.863c-1.986-7.198-9.452-11.429-16.676-9.45M360.041 453.988l4.002 14.236c7.846 27.843 29.844 49.491 57.879 56.969l104.047 27.753 58.512 15.633c12.254 3.266 25.322-.316 34.162-9.349l55.528-56.811 61.926-63.276c20.258-20.702 28.058-50.526 20.507-78.436l-3.867-14.26c-2.441-9.033-11.779-14.349-20.845-11.871l-360.071 98.62c-9.044 2.478-14.357 11.826-11.825 20.814zM625.011 678.68l-20.076 35.167c-3.062 5.363-1.18 12.185 4.204 15.236l35.296 20.001c5.383 3.051 12.23 1.176 15.292-4.188l20.075-35.167c3.062-5.363 1.18-12.185-4.203-15.235l-35.296-20.002c-5.384-3.051-12.23-1.176-15.292 4.188"/><defs><linearGradient id="a" x1="602.15" x2="630.455" y1="266.188" y2="1005.43" gradientUnits="userSpaceOnUse"><stop stop-color="#fff"/><stop offset=".32" stop-color="#FCFDFE"/><stop offset=".55" stop-color="#F2F6FE"/><stop offset=".76" stop-color="#E2ECFD"/><stop offset=".95" stop-color="#CBDDFB"/><stop offset="1" stop-color="#C5D9FB"/></linearGradient></defs></svg>