<svg width="1080" height="1080" viewBox="0 0 1080 1080" fill="none" xmlns="http://www.w3.org/2000/svg">
<g clip-path="url(#clip0_10272_1630)">
<circle cx="884.659" cy="712.111" r="159.871" fill="#1968F0"/>
<circle opacity="0.3" cx="387.724" cy="606.19" r="336.075" fill="#E0E0E0"/>
<path d="M882.838 563.017C874.722 513.342 842.089 472.649 797.958 457.068L646.458 402.994V360.835H527.254V402.994L507.978 409.96L375.754 457.068C331.623 472.832 298.99 513.525 290.874 563.017L241.332 863.082H527.423H646.796H932.38L882.838 563.017Z" fill="#FBCF23"/>
<path d="M391.308 643.12V862.533L569.523 863.266L391.308 643.12Z" fill="url(#paint0_linear_10272_1630)"/>
<path d="M572.005 299.797H726.35C735.82 299.797 743.578 289.917 743.578 277.856V129.272C743.578 117.21 735.82 107.33 726.35 107.33H572.005C562.535 107.33 554.777 117.21 554.777 129.272V277.856C554.777 289.917 562.535 299.797 572.005 299.797Z" fill="#141414"/>
<path d="M429.03 299.797H583.375C592.846 299.797 600.603 289.917 600.603 277.856V129.272C600.603 117.21 592.846 107.33 583.375 107.33H429.03C419.56 107.33 411.802 117.21 411.802 129.272V277.856C411.802 289.917 419.56 299.797 429.03 299.797Z" fill="#141414"/>
<path fill-rule="evenodd" clip-rule="evenodd" d="M537.44 52.3398H502.734L492.403 65.7209V328.942L502.734 342.323H527.231V395.114H548.301H625.964H648.21V342.323H670.995L681.204 328.942V65.7209L670.995 52.3398H637.879H537.44Z" fill="#FCAA73"/>
<path d="M460.63 275.968H505.286V206.313H444.797V260.174C444.797 268.881 451.901 275.968 460.63 275.968Z" fill="#FCAA73"/>
<path d="M703.914 275.968H659.257V206.313H719.747V260.174C719.747 268.881 712.642 275.968 703.914 275.968Z" fill="#FCAA73"/>
<path d="M674.776 52.3398L689.416 65.721L690.418 216.578L689.215 217.311L543.223 83.1346L468.623 165.254V65.721L483.263 52.3398H674.776Z" fill="#141414"/>
<path d="M670.626 269.916H633.965V212.543H683.64V257.085C683.64 264.234 677.774 269.916 670.626 269.916Z" fill="#FCAA73"/>
<path d="M570.908 342.144H525.266V360.474H570.908V342.144Z" fill="url(#paint1_linear_10272_1630)"/>
<path d="M506.867 378.112H662.673V438.602H506.867V378.112Z" fill="#FACF23"/>
<path d="M739.813 700.596L714.266 545.609L892.245 535.39L932.269 700.596H739.813Z" fill="#FBCF23"/>
<path d="M895.651 560.089C895.651 619.818 847.231 668.239 787.501 668.239C727.772 668.239 679.351 619.818 679.351 560.089C679.351 500.359 727.772 451.939 787.501 451.939C847.231 451.939 895.651 500.359 895.651 560.089Z" fill="#FACF23"/>
<path fill-rule="evenodd" clip-rule="evenodd" d="M921.938 697.701L944.529 826.114C946.422 834.039 947.424 842.31 947.424 850.815C947.424 909.322 899.995 956.751 841.488 956.751C837.404 956.751 833.373 956.52 829.409 956.07H482.185V782.349H756.242L741.574 697.701H921.938Z" fill="#FCAA73"/>
<path d="M738.567 575.028L637.328 579.174C630.993 579.405 626.041 584.818 626.271 591.152L628.459 644.709C628.69 651.044 634.103 655.996 640.437 655.766L741.677 651.619C748.011 651.389 752.964 645.976 752.734 639.641L750.545 586.085C750.315 579.635 744.902 574.682 738.567 575.028Z" fill="url(#paint2_linear_10272_1630)"/>
<path d="M664.737 642.402C678.477 642.402 689.615 631.264 689.615 617.524C689.615 603.785 678.477 592.646 664.737 592.646C650.997 592.646 639.859 603.785 639.859 617.524C639.859 631.264 650.997 642.402 664.737 642.402Z" fill="#C5D9FB"/>
<path d="M664.756 618.88C669.65 618.68 673.47 614.911 673.289 610.462C673.107 606.013 668.992 602.568 664.098 602.768C659.204 602.968 655.384 606.737 655.566 611.186C655.748 615.635 659.862 619.08 664.756 618.88Z" fill="#1968F0"/>
<path d="M665.777 642.404C672.687 642.174 678.907 638.949 683.053 634.112C680.174 626.971 673.033 622.018 664.97 622.364C656.793 622.709 650.113 628.238 647.809 635.609C652.416 639.986 658.751 642.634 665.777 642.404Z" fill="#1968F0"/>
<path d="M738.799 628.238L702.864 629.735C700.791 629.851 698.948 628.238 698.948 626.05L698.603 616.49C698.488 614.417 700.1 612.574 702.288 612.574L738.223 611.077C740.296 610.962 742.139 612.574 742.139 614.763L742.485 624.322C742.6 626.395 740.872 628.123 738.799 628.238Z" fill="#1968F0"/>
<path d="M721.984 607.508L700.216 608.43C699.064 608.43 698.143 607.624 698.143 606.472L698.028 604.399C698.028 603.247 698.834 602.325 699.986 602.325L721.754 601.404C722.906 601.404 723.827 602.21 723.827 603.362L723.942 605.435C723.942 606.587 723.136 607.508 721.984 607.508Z" fill="#C5D9FB"/>
<path d="M710.337 567.425L664.428 569.304C662.472 569.422 661.092 571.066 661.092 572.946L661.437 582.343C661.552 584.339 663.163 585.749 665.004 585.749L710.912 583.87C712.868 583.752 714.249 582.108 714.249 580.228L713.904 570.831C713.904 568.834 712.293 567.308 710.337 567.425Z" fill="#A3A3A3"/>
<path d="M436.033 700.596L461.58 545.609L283.601 535.39L243.577 700.596H436.033Z" fill="#FACF23"/>
<path d="M280.195 560.089C280.195 619.818 328.616 668.239 388.345 668.239C448.075 668.239 496.495 619.818 496.495 560.089C496.495 500.359 448.075 451.939 388.345 451.939C328.616 451.939 280.195 500.359 280.195 560.089Z" fill="#FACF23"/>
<path fill-rule="evenodd" clip-rule="evenodd" d="M253.904 697.701L231.313 826.115C229.42 834.04 228.418 842.31 228.418 850.815C228.418 897.91 259.149 937.828 301.653 951.608V956.07H322.274C326.239 956.52 330.269 956.751 334.354 956.751C338.438 956.751 342.469 956.52 346.433 956.07H662.72V782.349H419.599L434.267 697.701H253.904Z" fill="#FCAA73"/>
<path d="M954.375 341.956L851.097 1023.84H324.171L223.001 341.956H954.375Z" fill="url(#paint3_linear_10272_1630)"/>
<path fill-rule="evenodd" clip-rule="evenodd" d="M440.676 739.719H278.711C270.199 739.719 263.772 747.535 265.336 755.871L319.185 1033.06C320.575 1039.48 326.133 1044 332.561 1044H386.826H788.718H842.984C849.411 1044 854.97 1039.48 856.359 1033.06L910.209 755.871C911.772 747.535 905.345 739.719 896.833 739.719H734.868H440.676Z" fill="#0C4EC0"/>
<path d="M596.276 842.818C562.158 842.818 543.858 855.69 543.858 889.188C543.858 919.119 559.367 942.226 596.276 942.226C597.207 942.226 599.068 942.226 599.068 942.226C599.068 946.569 599.068 952.152 599.068 956.959C599.068 958.2 599.998 959.286 601.394 959.286C602.48 959.286 602.79 958.82 603.72 958.045C610.234 952.462 629.464 934.938 629.464 934.938C639.079 925.788 648.694 914.932 648.694 889.188C648.694 855.69 630.395 842.818 596.276 842.818Z" fill="#0096FA"/>
<path opacity="0.5" d="M96.1721 661.305C96.1721 655.027 101.261 649.938 107.539 649.938H224.055C230.333 649.938 235.422 655.027 235.422 661.305V738.035C235.422 744.313 230.333 749.402 224.055 749.402H107.539C101.261 749.402 96.1721 744.313 96.1721 738.035V661.305Z" fill="#B2DFFD"/>
<path opacity="0.5" d="M81.5571 650.344C81.5571 644.066 86.6465 638.977 92.9245 638.977H215.124C221.402 638.977 226.491 644.066 226.491 650.344V729.916C226.491 736.194 221.402 741.283 215.124 741.283H92.9245C86.6465 741.283 81.5571 736.194 81.5571 729.916V650.344Z" fill="#B2DFFD"/>
<path opacity="0.6" d="M839.929 222.351C836.993 214.268 830.416 209.258 821.481 208.622C817.763 208.387 813.731 208.564 809.748 209.102C809.386 209.151 809.024 209.2 808.662 209.249C816.97 210.707 823.547 215.717 826.121 223.849C829.713 234.056 829.273 244.439 825.183 252.366C823.451 255.918 820.897 258.844 818.656 261.36L817.403 263.004C817.403 263.004 817.403 263.004 817.09 263.415L817.726 268.122C817.971 269.932 819.566 270.823 821.377 270.578C822.101 270.48 822.414 270.069 823.089 269.609C825.33 267.094 828.511 263.346 831.378 260.009L832.63 258.364C834.822 255.487 837.376 252.561 838.795 249.42C842.934 241.855 843.423 231.834 839.929 222.351Z" fill="#E0E0E0"/>
<path d="M826.12 223.848C823.086 215.041 815.688 209.404 806.029 208.867C802.31 208.632 797.916 208.857 793.933 209.396C788.502 210.13 780.996 211.882 776.054 216.237C769.4 221.561 766.905 230.379 768.735 241.192C769.929 247.299 772.552 255.793 779.227 261.527C784.57 265.598 793.241 267.007 800.219 266.801L800.757 270.784C801.1 273.319 803.566 275.197 806.1 274.855L806.462 274.806C807.549 274.659 808.224 274.199 808.85 273.377C812.393 269.58 814.898 266.291 817.452 263.365L818.704 261.721C820.896 258.844 823.45 255.918 825.231 252.727C829.273 244.438 829.663 233.693 826.12 223.848ZM785.763 244.421C783.229 244.763 781.173 243.198 780.831 240.663C780.488 238.129 782.054 236.073 784.588 235.731C787.123 235.388 789.178 236.954 789.521 239.488C789.864 242.023 788.298 244.078 785.763 244.421ZM799.16 242.61C796.626 242.952 794.571 241.387 794.228 238.852C793.885 236.317 795.451 234.262 797.986 233.92C800.52 233.577 802.575 235.143 802.918 237.677C803.261 240.212 801.333 242.316 799.16 242.61ZM812.196 240.848C809.661 241.19 807.606 239.625 807.263 237.09C806.92 234.555 808.486 232.5 811.021 232.158C813.555 231.815 815.611 233.381 815.953 235.915C816.296 238.45 814.73 240.505 812.196 240.848Z" fill="#E0E0E0"/>
<path opacity="0.5" d="M831.906 76.0841C831.906 69.5424 837.21 64.2393 843.751 64.2393H971.084C977.625 64.2393 982.929 69.5424 982.929 76.0841V158.998C982.929 165.54 977.625 170.843 971.084 170.843H843.751C837.21 170.843 831.906 165.54 831.906 158.998V76.0841Z" fill="#C3EEF4"/>
<path opacity="0.5" d="M843.751 87.9286C843.751 81.3869 849.054 76.0837 855.596 76.0837H982.928C989.47 76.0837 994.773 81.3869 994.773 87.9286V170.843C994.773 177.384 989.47 182.688 982.928 182.688H855.596C849.054 182.688 843.751 177.384 843.751 170.843V87.9286Z" fill="#B2DFFD"/>
<path fill-rule="evenodd" clip-rule="evenodd" d="M939.309 145.515C938.922 145.206 938.489 144.959 938.025 144.783V141.493C938.025 141.056 937.852 140.638 937.543 140.33C937.235 140.021 936.817 139.848 936.38 139.848H930.943C931.591 138.534 932.05 137.136 932.309 135.694H937.112C937.549 135.694 937.967 135.52 938.276 135.212C938.584 134.903 938.757 134.485 938.757 134.049C938.757 133.612 938.584 133.194 938.276 132.885C937.967 132.577 937.549 132.403 937.112 132.403H932.588C932.625 130.878 932.498 129.353 932.21 127.855C932.16 127.592 932.095 127.328 932.029 127.073H936.38C936.817 127.073 937.235 126.9 937.543 126.591C937.852 126.283 938.025 125.864 938.025 125.428V122.097C938.49 121.92 938.923 121.67 939.309 121.357C940.014 120.778 940.532 120.003 940.797 119.131C941.063 118.258 941.063 117.326 940.799 116.453C940.535 115.579 940.018 114.804 939.314 114.225C938.609 113.645 937.749 113.287 936.841 113.197C935.628 113.079 934.418 113.446 933.474 114.216C932.529 114.986 931.927 116.098 931.799 117.31C931.693 118.319 931.924 119.336 932.455 120.201C932.986 121.067 933.787 121.733 934.735 122.097V123.742H930.524C929.164 121.789 927.184 120.354 924.905 119.67V116.948C924.905 116.511 924.732 116.093 924.424 115.784C924.115 115.476 923.697 115.302 923.26 115.302C922.824 115.302 922.406 115.476 922.097 115.784C921.789 116.093 921.615 116.511 921.615 116.948V119.037C920.9 118.938 920.168 118.864 919.427 118.823V114.406C919.427 113.97 919.254 113.551 918.945 113.243C918.637 112.934 918.218 112.761 917.782 112.761C917.346 112.761 916.927 112.934 916.619 113.243C916.31 113.551 916.137 113.97 916.137 114.406V118.807C915.493 118.807 914.815 118.904 914.127 119.003L914.127 119.003L913.949 119.029V116.948C913.949 116.511 913.776 116.093 913.467 115.784C913.159 115.476 912.74 115.302 912.304 115.302C911.868 115.302 911.449 115.476 911.141 115.784C910.832 116.093 910.659 116.511 910.659 116.948V119.843C909.941 120.093 909.251 120.418 908.602 120.814C907.14 121.738 905.949 123.032 905.148 124.564H900.829V122.919C901.58 122.642 902.244 122.171 902.754 121.554C903.332 120.848 903.688 119.987 903.777 119.079C903.866 118.17 903.683 117.256 903.253 116.452C902.822 115.647 902.163 114.989 901.358 114.559C900.553 114.129 899.639 113.948 898.731 114.037C897.823 114.127 896.962 114.484 896.257 115.063C895.551 115.642 895.034 116.417 894.769 117.29C894.504 118.163 894.504 119.095 894.768 119.968C895.033 120.841 895.551 121.616 896.256 122.196C896.644 122.505 897.076 122.755 897.539 122.936V126.226C897.539 126.662 897.712 127.081 898.021 127.389C898.329 127.698 898.748 127.871 899.184 127.871H903.93C903.597 129.352 903.453 130.87 903.502 132.387C903.502 132.65 903.502 132.913 903.544 133.21H898.477C898.04 133.21 897.622 133.383 897.313 133.691C897.005 134 896.831 134.418 896.831 134.855C896.831 135.291 897.005 135.709 897.313 136.018C897.622 136.327 898.04 136.5 898.477 136.5H904.029C904.372 137.944 904.926 139.33 905.674 140.613H899.184C898.748 140.613 898.329 140.786 898.021 141.094C897.712 141.403 897.539 141.821 897.539 142.258V145.548C896.571 145.924 895.758 146.614 895.231 147.508C894.703 148.401 894.491 149.447 894.63 150.475C894.769 151.504 895.249 152.456 895.995 153.178C896.74 153.9 897.707 154.35 898.74 154.456H899.2C900.074 154.454 900.928 154.204 901.665 153.735C902.401 153.266 902.99 152.598 903.362 151.808C903.734 151.019 903.875 150.139 903.767 149.273C903.659 148.406 903.308 147.588 902.754 146.913C902.244 146.296 901.58 145.825 900.829 145.548V143.903H908.323C908.429 143.915 908.537 143.915 908.643 143.903C911.188 145.499 914.093 146.432 917.091 146.617V148.657C917.091 149.247 917.325 149.813 917.741 150.231C918.157 150.648 918.722 150.884 919.312 150.886H919.518C919.975 150.844 920.408 150.663 920.76 150.368C922.076 149.241 923.803 147.744 925.498 146.165L926.222 145.499C927.044 144.758 927.867 143.993 928.607 143.179H934.735V144.824C933.796 145.179 932.997 145.83 932.462 146.679C931.926 147.528 931.681 148.529 931.766 149.529C931.878 150.67 932.409 151.728 933.258 152.498C934.106 153.269 935.21 153.697 936.356 153.7C936.506 153.708 936.657 153.708 936.808 153.7C937.716 153.609 938.576 153.251 939.281 152.672C939.985 152.092 940.502 151.317 940.766 150.444C941.03 149.57 941.03 148.639 940.764 147.766C940.499 146.893 939.981 146.118 939.276 145.54L939.309 145.515ZM936.504 116.503C936.677 116.52 936.846 116.57 937 116.652C937.154 116.734 937.29 116.846 937.4 116.98C937.516 117.118 937.603 117.278 937.654 117.451C937.705 117.624 937.719 117.805 937.696 117.984C937.669 118.301 937.526 118.597 937.296 118.816C937.066 119.036 936.764 119.164 936.446 119.177H936.249C935.898 119.143 935.576 118.971 935.352 118.7C935.129 118.428 935.022 118.079 935.056 117.729C935.09 117.379 935.261 117.056 935.533 116.833C935.804 116.609 936.153 116.502 936.504 116.536V116.503ZM898.164 117.745C898.274 117.611 898.411 117.499 898.564 117.417C898.718 117.335 898.887 117.285 899.061 117.268H899.192C899.493 117.273 899.783 117.38 900.015 117.573C900.29 117.792 900.468 118.111 900.508 118.461C900.542 118.811 900.435 119.16 900.212 119.432C900.103 119.568 899.967 119.681 899.813 119.763C899.659 119.845 899.49 119.894 899.316 119.909H899.266H899.118C898.835 119.899 898.563 119.795 898.345 119.613C898.211 119.503 898.1 119.368 898.018 119.216C897.936 119.064 897.885 118.896 897.868 118.724C897.836 118.372 897.942 118.021 898.164 117.745ZM900.508 149.982C900.483 150.233 900.386 150.472 900.229 150.67C900.072 150.868 899.861 151.017 899.622 151.1C899.383 151.182 899.126 151.194 898.88 151.135C898.634 151.076 898.411 150.947 898.236 150.765C898.061 150.583 897.941 150.354 897.892 150.106C897.843 149.858 897.865 149.601 897.957 149.366C898.049 149.13 898.207 148.926 898.411 148.777C898.615 148.628 898.858 148.541 899.11 148.526H899.316C899.666 148.563 899.987 148.737 900.21 149.009C900.434 149.282 900.541 149.631 900.508 149.982ZM924.001 143.006L923.252 143.689C922.273 144.602 921.286 145.482 920.381 146.28V145.268C920.381 145.013 920.331 144.761 920.234 144.525C920.136 144.29 919.993 144.076 919.813 143.896C919.633 143.715 919.419 143.572 919.183 143.475C918.948 143.377 918.695 143.327 918.44 143.327C915.52 143.327 911.448 142.324 909.663 140.465C907.426 138.137 906.867 134.707 906.793 132.239C906.719 129.771 907.089 125.617 910.379 123.61C912.024 122.607 914.599 122.064 917.733 122.064C919.484 122.06 921.231 122.231 922.948 122.574C924.45 122.805 925.844 123.498 926.933 124.558C928.023 125.619 928.755 126.992 929.027 128.488C929.668 131.778 929.561 136.368 927.324 139.56C926.339 140.821 925.225 141.976 924.001 143.006ZM937.4 149.924C937.236 150.127 937.016 150.276 936.767 150.354C936.518 150.432 936.252 150.434 936.001 150.361C935.751 150.289 935.528 150.143 935.359 149.944C935.191 149.745 935.086 149.5 935.056 149.241C935.039 149.068 935.056 148.893 935.107 148.726C935.158 148.559 935.241 148.404 935.352 148.27C935.463 148.135 935.599 148.024 935.753 147.942C935.907 147.861 936.075 147.81 936.249 147.794H936.446C936.729 147.808 936.999 147.912 937.219 148.09C937.354 148.2 937.466 148.336 937.548 148.49C937.63 148.644 937.68 148.813 937.696 148.986C937.724 149.326 937.618 149.662 937.4 149.924ZM920.373 128.003H915.751C914.961 128.003 914.204 128.317 913.645 128.875C913.087 129.433 912.773 130.191 912.773 130.981V135.603C912.782 136.387 913.099 137.136 913.657 137.688C914.214 138.239 914.967 138.548 915.751 138.548H920.373C921.163 138.548 921.921 138.234 922.479 137.676C923.037 137.118 923.351 136.36 923.351 135.57V130.981C923.351 130.191 923.037 129.433 922.479 128.875C921.921 128.317 921.163 128.003 920.373 128.003ZM920.472 135.603C920.472 135.63 920.462 135.655 920.443 135.673C920.425 135.692 920.4 135.702 920.373 135.702H915.751C915.724 135.702 915.699 135.692 915.681 135.673C915.662 135.655 915.652 135.63 915.652 135.603V130.981C915.652 130.954 915.662 130.929 915.681 130.911C915.699 130.892 915.724 130.882 915.751 130.882H920.373C920.4 130.882 920.425 130.892 920.443 130.911C920.462 130.929 920.472 130.954 920.472 130.981V135.603ZM917.534 132.035C917.703 131.976 917.883 131.954 918.062 131.968C918.388 131.994 918.692 132.142 918.914 132.382C919.135 132.622 919.258 132.937 919.258 133.263C919.258 133.59 919.135 133.905 918.914 134.145C918.692 134.385 918.388 134.533 918.062 134.559C917.883 134.573 917.703 134.55 917.534 134.492C917.364 134.433 917.209 134.34 917.077 134.218C916.945 134.096 916.84 133.949 916.768 133.784C916.696 133.62 916.659 133.443 916.659 133.263C916.659 133.084 916.696 132.907 916.768 132.742C916.84 132.578 916.945 132.43 917.077 132.309C917.209 132.187 917.364 132.094 917.534 132.035Z" fill="white"/>
<path opacity="0.5" d="M185.759 491.371C185.759 486.334 189.841 482.252 194.878 482.252H288.346C293.382 482.252 297.465 486.334 297.465 491.371V552.923C297.465 557.959 293.382 562.042 288.346 562.042H194.878C189.841 562.042 185.759 557.959 185.759 552.923V491.371Z" fill="#B2DFFD"/>
<path opacity="0.5" d="M174.797 480.409C174.797 475.373 178.88 471.29 183.916 471.29H281.944C286.98 471.29 291.063 475.373 291.063 480.409V544.241C291.063 549.277 286.98 553.36 281.944 553.36H183.916C178.88 553.36 174.797 549.277 174.797 544.241V480.409Z" fill="#B2DFFD"/>
<path fill-rule="evenodd" clip-rule="evenodd" d="M252.309 533.1L257.879 538.656L257.872 538.699C258.004 538.831 258.109 538.988 258.18 539.16C258.252 539.333 258.288 539.517 258.288 539.704C258.288 539.891 258.252 540.076 258.18 540.248C258.109 540.421 258.004 540.577 257.872 540.709C257.74 540.841 257.583 540.946 257.411 541.018C257.238 541.089 257.053 541.126 256.867 541.126C256.68 541.126 256.495 541.089 256.323 541.018C256.15 540.946 255.993 540.841 255.861 540.709L250.178 535.026C246.69 537.677 242.313 538.878 237.961 538.379C233.609 537.88 229.618 535.718 226.821 532.346C224.025 528.974 222.639 524.652 222.954 520.282C223.269 515.913 225.259 511.834 228.51 508.897C231.761 505.961 236.021 504.393 240.4 504.523C244.779 504.653 248.938 506.469 252.01 509.593C255.081 512.716 256.827 516.906 256.883 521.286C256.939 525.667 255.3 529.899 252.309 533.1ZM228.053 513.744C226.502 516.072 225.677 518.808 225.681 521.605V521.577C225.682 523.437 226.049 525.278 226.762 526.996C227.475 528.714 228.52 530.275 229.836 531.589C231.152 532.904 232.714 533.946 234.433 534.656C236.153 535.366 237.995 535.731 239.855 535.729C242.652 535.723 245.385 534.889 247.708 533.33C250.031 531.771 251.839 529.559 252.905 526.972C253.971 524.386 254.246 521.542 253.695 518.799C253.144 516.056 251.792 513.539 249.811 511.564C247.829 509.59 245.307 508.247 242.562 507.706C239.818 507.165 236.975 507.45 234.392 508.524C231.809 509.599 229.603 511.415 228.053 513.744ZM248.526 515.505C248.742 515.721 248.863 516.014 248.863 516.319C248.863 517.309 248.538 518.27 247.937 519.056C247.336 519.842 246.493 520.408 245.538 520.667V521.186H247.733C248.039 521.186 248.331 521.307 248.547 521.523C248.763 521.739 248.884 522.032 248.884 522.337C248.884 522.642 248.763 522.935 248.547 523.151C248.331 523.367 248.039 523.488 247.733 523.488H245.538V523.793C245.528 524.055 245.499 524.317 245.453 524.575C246.419 524.823 247.276 525.386 247.888 526.174C248.5 526.963 248.833 527.932 248.835 528.93C248.835 529.235 248.713 529.528 248.497 529.744C248.282 529.96 247.989 530.081 247.684 530.081C247.378 530.081 247.086 529.96 246.87 529.744C246.654 529.528 246.533 529.235 246.533 528.93C246.522 528.4 246.32 527.892 245.963 527.5C245.607 527.108 245.12 526.859 244.593 526.799C244.102 527.542 243.434 528.153 242.649 528.575C241.864 528.998 240.987 529.22 240.096 529.221H239.499C238.608 529.22 237.731 528.998 236.946 528.575C236.161 528.153 235.493 527.542 235.002 526.799C234.475 526.859 233.988 527.108 233.632 527.5C233.275 527.892 233.073 528.4 233.062 528.93C233.062 529.235 232.941 529.528 232.725 529.744C232.509 529.96 232.217 530.081 231.911 530.081C231.606 530.081 231.313 529.96 231.098 529.744C230.882 529.528 230.76 529.235 230.76 528.93C230.764 527.928 231.101 526.956 231.718 526.167C232.336 525.378 233.199 524.818 234.171 524.575C234.152 524.315 234.152 524.053 234.171 523.793V523.488H231.94C231.635 523.488 231.342 523.367 231.126 523.151C230.91 522.935 230.789 522.642 230.789 522.337C230.789 522.032 230.91 521.739 231.126 521.523C231.342 521.307 231.635 521.186 231.94 521.186H234.171V520.667C233.216 520.408 232.373 519.842 231.772 519.056C231.171 518.27 230.846 517.309 230.846 516.319C230.846 516.014 230.967 515.721 231.183 515.505C231.399 515.29 231.691 515.168 231.997 515.168C232.302 515.168 232.595 515.29 232.811 515.505C233.026 515.721 233.148 516.014 233.148 516.319C233.142 516.801 233.296 517.271 233.585 517.656C233.874 518.042 234.282 518.321 234.746 518.451C234.903 518.355 235.081 518.299 235.265 518.287V518.031C235.267 517.336 235.48 516.657 235.876 516.085C236.271 515.513 236.831 515.074 237.481 514.827L236.771 513.669C236.652 513.464 236.618 513.219 236.678 512.989C236.738 512.759 236.886 512.562 237.091 512.44C237.295 512.321 237.539 512.288 237.768 512.348C237.997 512.408 238.193 512.556 238.313 512.76L239.393 514.593H240.316L241.396 512.76C241.454 512.656 241.533 512.565 241.627 512.491C241.721 512.418 241.829 512.364 241.944 512.333C242.059 512.302 242.179 512.294 242.297 512.31C242.415 512.326 242.529 512.366 242.632 512.426C242.734 512.487 242.824 512.568 242.895 512.663C242.966 512.759 243.018 512.868 243.046 512.983C243.075 513.099 243.08 513.22 243.061 513.337C243.043 513.455 243.001 513.568 242.938 513.669L242.227 514.827C242.878 515.074 243.437 515.513 243.833 516.085C244.229 516.657 244.442 517.336 244.444 518.031V518.287C244.629 518.3 244.809 518.356 244.97 518.451C245.432 518.32 245.839 518.04 246.126 517.655C246.414 517.269 246.567 516.8 246.561 516.319C246.561 516.014 246.682 515.721 246.898 515.505C247.114 515.29 247.407 515.168 247.712 515.168C248.017 515.168 248.31 515.29 248.526 515.505Z" fill="white"/>
<path fill-rule="evenodd" clip-rule="evenodd" d="M183.166 692.314C183.17 692.278 183.17 692.243 183.166 692.208C183.143 692.075 183.108 691.945 183.061 691.818C183.006 691.703 182.937 691.594 182.858 691.494V691.453L174.324 681.474C174.227 681.362 174.115 681.263 173.991 681.182H173.934C173.822 681.118 173.702 681.069 173.577 681.036C173.547 681.032 173.517 681.032 173.488 681.036C173.369 681.003 173.246 680.986 173.122 680.987H152.604C151.396 680.987 150.237 681.467 149.383 682.321C148.529 683.175 148.049 684.334 148.049 685.542V716.802C148.072 717.995 148.562 719.132 149.414 719.968C150.265 720.805 151.411 721.274 152.604 721.276H178.668C179.875 721.274 181.033 720.793 181.886 719.939C182.74 719.086 183.221 717.928 183.223 716.721V692.46C183.208 692.409 183.189 692.361 183.166 692.314ZM175.396 690.69C175.252 690.688 175.115 690.63 175.013 690.528C174.912 690.426 174.854 690.289 174.852 690.146L174.795 687.02L177.97 690.747L175.396 690.69ZM179.935 716.672C179.935 717.019 179.797 717.351 179.552 717.597C179.306 717.842 178.974 717.979 178.627 717.979H152.604C152.257 717.979 151.925 717.842 151.68 717.597C151.435 717.351 151.297 717.019 151.297 716.672V685.461C151.297 685.114 151.435 684.781 151.68 684.536C151.925 684.291 152.257 684.153 152.604 684.153H171.49L171.604 690.227C171.623 691.21 172.023 692.147 172.72 692.841C173.416 693.535 174.356 693.931 175.339 693.946L179.951 694.051L179.935 716.672ZM160.886 702.008V699.864C160.886 699.718 161.389 699.264 162.315 699.264C162.638 699.264 162.948 699.135 163.176 698.907C163.404 698.678 163.533 698.369 163.533 698.046C163.533 697.723 163.404 697.413 163.176 697.184C162.948 696.956 162.638 696.828 162.315 696.828C160.147 696.828 158.45 698.159 158.45 699.864V702.008C158.45 702.162 157.938 702.609 157.021 702.609C156.698 702.609 156.388 702.737 156.16 702.966C155.931 703.194 155.803 703.504 155.803 703.827C155.803 704.15 155.931 704.46 156.16 704.688C156.388 704.916 156.698 705.045 157.021 705.045C157.938 705.045 158.45 705.491 158.45 705.637V707.789C158.45 709.486 160.147 710.834 162.347 710.834C162.67 710.834 162.98 710.706 163.208 710.477C163.437 710.249 163.565 709.939 163.565 709.616C163.565 709.293 163.437 708.983 163.208 708.755C162.98 708.526 162.67 708.398 162.347 708.398C161.422 708.398 160.918 707.952 160.918 707.805V705.637C160.905 704.959 160.632 704.311 160.155 703.827C160.622 703.336 160.883 702.685 160.886 702.008ZM172.741 702.008C172.741 702.162 173.252 702.609 174.17 702.609C174.493 702.609 174.802 702.737 175.031 702.966C175.259 703.194 175.388 703.504 175.388 703.827C175.388 704.15 175.259 704.46 175.031 704.688C174.802 704.916 174.493 705.045 174.17 705.045C173.252 705.045 172.741 705.491 172.741 705.637V707.789C172.741 709.486 171.044 710.818 168.876 710.818C168.553 710.818 168.243 710.689 168.015 710.461C167.786 710.233 167.658 709.923 167.658 709.6C167.658 709.277 167.786 708.967 168.015 708.739C168.243 708.51 168.553 708.382 168.876 708.382C169.801 708.382 170.305 707.935 170.305 707.789V705.637C170.318 704.959 170.591 704.311 171.068 703.827C170.589 703.341 170.316 702.69 170.305 702.008V699.864C170.305 699.718 169.801 699.264 168.876 699.264C168.553 699.264 168.243 699.135 168.015 698.907C167.786 698.678 167.658 698.369 167.658 698.046C167.658 697.723 167.786 697.413 168.015 697.184C168.243 696.956 168.553 696.828 168.876 696.828C171.044 696.828 172.741 698.159 172.741 699.864V702.008Z" fill="white"/>
<g opacity="0.2" filter="url(#filter0_f_10272_1630)">
<path d="M345 1047.5C345 1056.06 282.096 1063 204.5 1063C126.904 1063 64 1056.06 64 1047.5C64 1038.94 126.904 1032 204.5 1032C282.096 1032 345 1038.94 345 1047.5Z" fill="#0A0F1A"/>
</g>
<path d="M289.458 933.094H97.0803V880.726H289.458C295.8 880.726 301.883 883.245 306.367 887.729C310.852 892.214 313.371 898.296 313.371 904.638V909.261C313.35 915.59 310.821 921.652 306.339 926.119C301.857 930.586 295.787 933.095 289.458 933.094Z" fill="#F5F8F9"/>
<path fill-rule="evenodd" clip-rule="evenodd" d="M300.725 889.314H89.4697V876.999H307.215C320.871 876.999 319.53 887.027 319.53 900.653V911.732C319.53 925.496 320.89 935.386 307.215 935.386H89.4697V923.071H300.725C309.13 923.071 307.215 917.258 307.215 911.732V900.653C307.215 895.228 309.07 889.314 300.725 889.314Z" fill="#1968F0"/>
<path d="M289.459 1048.86H97.0806V996.494H289.459C295.801 996.494 301.883 999.013 306.367 1003.5C310.852 1007.98 313.371 1014.06 313.371 1020.41V1025.03C313.35 1031.36 310.822 1037.42 306.339 1041.89C301.857 1046.35 295.787 1048.86 289.459 1048.86Z" fill="#F5F8F9"/>
<path fill-rule="evenodd" clip-rule="evenodd" d="M300.725 1005.08H89.4697V992.768H307.215C320.871 992.768 319.53 1002.8 319.53 1016.42V1027.5C319.53 1041.26 320.89 1051.15 307.215 1051.15H89.4697V1038.84H300.725C309.13 1038.84 307.215 1033.03 307.215 1027.5V1016.42C307.215 1011 309.07 1005.08 300.725 1005.08Z" fill="#454545"/>
<path d="M263.848 990.412H71.4702V938.043H263.848C270.19 938.043 276.273 940.563 280.757 945.047C285.242 949.532 287.761 955.614 287.761 961.956V966.579C287.74 972.908 285.211 978.969 280.729 983.437C276.247 987.904 270.176 990.412 263.848 990.412Z" fill="#F5F8F9"/>
<path fill-rule="evenodd" clip-rule="evenodd" d="M275.115 946.632H63.8594V934.317H281.605C295.26 934.317 293.92 944.344 293.92 957.971V969.05C293.92 982.814 295.28 992.704 281.605 992.704H63.8594V980.389H275.115C283.52 980.389 281.605 974.576 281.605 969.05V957.971C281.605 952.546 283.459 946.632 275.115 946.632Z" fill="#0096FA"/>
<g opacity="0.2" filter="url(#filter1_f_10272_1630)">
<path d="M989.795 1033.07C989.795 1039.32 962.978 1044.39 929.898 1044.39C896.818 1044.39 870.001 1039.32 870.001 1033.07C870.001 1026.82 896.818 1021.75 929.898 1021.75C962.978 1021.75 989.795 1026.82 989.795 1033.07Z" fill="#0A0F1A"/>
</g>
<path opacity="0.08" d="M933.387 885.574C933.387 885.574 923.522 874.527 921.71 873.033C917.131 869.646 912.776 865.967 908.674 862.02C907.889 861.171 907.2 860.239 906.617 859.241C906.054 858.33 905.686 857.313 905.537 856.253C905.378 855.147 905.522 854.018 905.955 852.987C906.431 851.866 907.159 850.868 908.081 850.069C910.762 847.877 913.838 846.215 917.144 845.171C922.649 843.264 928.287 841.766 934.014 840.689C936.633 840.167 939.208 839.447 941.717 838.535C943.058 838.068 944.307 837.374 945.412 836.485C945.623 836.31 945.8 836.098 945.935 835.86C945.95 835.791 945.95 835.72 945.935 835.652C945.935 835.652 945.935 835.652 945.935 835.443C945.832 835.231 945.703 835.033 945.552 834.853C943.896 833.311 941.938 832.128 939.8 831.379C937.023 830.267 934.12 829.497 931.156 829.086C926.669 828.534 922.246 827.557 917.946 826.167C915.016 825.245 912.327 823.692 910.068 821.616C909.17 820.728 908.449 819.679 907.942 818.524C907.456 817.432 907.218 816.245 907.245 815.05C907.362 812.775 908.204 810.597 909.65 808.832C912.743 805.185 916.747 802.417 921.257 800.807C923.06 800.089 924.928 799.543 926.834 799.174L928.228 799C930.703 799 935.199 799 934.084 802.474C933.247 805.114 931.609 805.08 929.03 805.497L928.019 805.67C926.524 805.941 925.055 806.336 923.627 806.851C920.226 808.021 917.163 810.001 914.704 812.618C914.09 813.344 913.681 814.219 913.519 815.155C913.506 815.465 913.566 815.774 913.693 816.058C913.871 816.515 914.144 816.929 914.495 817.274C916.081 818.718 917.959 819.807 920.002 820.47C927.392 823.249 934.502 823.18 941.927 826.341C944.899 827.498 947.551 829.344 949.665 831.726C950.132 832.309 950.497 832.967 950.745 833.671C951.05 834.42 951.169 835.23 951.094 836.034C951.043 836.868 950.792 837.679 950.362 838.396C949.923 839.117 949.369 839.762 948.723 840.307C947.131 841.539 945.339 842.491 943.425 843.121C940.639 844.04 937.783 844.737 934.886 845.205C929.341 846.134 923.858 847.399 918.468 848.992C915.616 849.795 912.927 851.088 910.521 852.814C909.969 853.254 909.507 853.797 909.162 854.412C908.96 854.871 908.877 855.372 908.918 855.871C908.992 856.517 909.194 857.143 909.51 857.712C909.94 858.528 910.454 859.296 911.044 860.005C914.856 864.041 918.907 867.846 923.174 871.4C924.952 873.068 934.467 882.691 933.387 885.574Z" fill="black"/>
<path opacity="0.08" d="M946.892 885.209C946.892 885.209 946.892 884.65 947.067 884.58C947.233 883.127 947.004 881.656 946.403 880.321C945.777 879.081 944.911 877.977 943.854 877.075C941.174 875.025 938.282 873.269 935.226 871.839C932.006 870.375 928.999 868.484 926.284 866.218C925.054 865.134 924.087 863.786 923.455 862.274C922.825 860.626 922.692 858.83 923.071 857.107C923.256 856.144 923.703 855.25 924.363 854.524C925.039 853.776 925.829 853.14 926.703 852.639C928.785 851.525 931.005 850.692 933.305 850.16C938.614 848.869 943.784 848.135 949.337 847.053C951.506 846.653 953.634 846.057 955.695 845.273C956.385 845.001 957.042 844.65 957.651 844.226C958.031 843.981 958.343 843.645 958.559 843.248C958.718 842.974 958.78 842.654 958.733 842.341C958.62 841.74 958.382 841.169 958.035 840.665C957.267 839.535 956.376 838.493 955.38 837.558C954.297 836.511 952.132 834.765 953.389 833.229C954.647 831.693 957.231 833.823 958.314 834.835C959.566 836.015 960.658 837.353 961.563 838.815C962.176 839.773 962.558 840.861 962.68 841.992C962.784 843.033 962.565 844.081 962.052 844.994C961.529 845.855 960.826 846.594 959.991 847.158C959.1 847.732 958.152 848.211 957.162 848.589C954.892 849.401 952.554 850.008 950.176 850.405C944.832 851.347 939.487 851.941 934.178 853.093C932.153 853.474 930.191 854.132 928.345 855.047C927.719 855.353 927.151 855.767 926.668 856.269C926.309 856.643 926.045 857.098 925.9 857.596C925.55 858.852 925.55 860.18 925.9 861.436C926.355 862.647 927.07 863.743 927.996 864.647C930.471 866.849 933.218 868.726 936.169 870.233C939.286 871.836 942.185 873.83 944.797 876.167C945.901 877.252 946.759 878.562 947.312 880.007C947.8 881.516 947.8 883.141 947.312 884.65C947.312 884.65 946.892 885.279 946.892 885.209Z" fill="black"/>
<rect x="896.055" y="892.456" width="77.5185" height="14.1272" rx="7.0636" fill="#141414"/>
<rect x="890.62" y="901.874" width="88.0234" height="14.1272" rx="4" fill="#141414"/>
<path fill-rule="evenodd" clip-rule="evenodd" d="M888.265 913.646L900.13 1022.87C900.902 1029.97 906.902 1035.36 914.049 1035.36H931.914H936.624H954.49C961.636 1035.36 967.636 1029.97 968.408 1022.87L980.273 913.646H936.624H931.914H888.265Z" fill="#E0E0E0"/>
<path fill-rule="evenodd" clip-rule="evenodd" d="M890.625 938.826L898.594 1009.1H931.697H936.127H970.136L977.199 938.826H936.127H931.697H890.625Z" fill="#072F73"/>
<rect x="885.912" y="908.031" width="97.8037" height="7.96919" rx="3.9846" fill="#141414"/>
<path d="M304.435 619.688C306.555 617.436 308.197 614.774 309.262 611.865C310.327 608.956 310.793 605.859 310.632 602.764C310.47 599.668 309.684 596.638 308.321 593.857C306.959 591.076 305.049 588.602 302.706 586.585L301.574 585.592C296.739 581.419 290.495 579.268 284.129 579.584C277.763 579.899 271.761 582.657 267.358 587.289C265.222 589.532 263.565 592.191 262.49 595.102C261.415 598.013 260.944 601.114 261.106 604.215C261.268 607.316 262.059 610.351 263.432 613.133C264.805 615.914 266.729 618.385 269.087 620.391L270.22 621.384C275.054 625.558 281.298 627.708 287.664 627.393C294.03 627.077 300.033 624.319 304.435 619.688Z" fill="#636363"/>
<path d="M285.392 666.342L308.985 687.031L375.975 615.178L352.382 594.49C344.475 587.681 334.699 583.442 324.345 582.334C313.99 581.226 303.545 583.3 294.389 588.283C289.696 590.813 285.447 594.097 281.81 598.007C277.431 602.648 274.037 608.137 271.836 614.138C269.635 620.14 268.673 626.529 269.008 632.917C269.344 639.304 270.969 645.556 273.786 651.292C276.602 657.028 280.551 662.127 285.392 666.28V666.342Z" fill="#0096FA"/>
<path d="M307.749 686.7C314.872 693.093 335.912 682.417 354.729 662.825C373.545 643.232 383.077 622.15 375.954 615.757C370.334 610.688 356.005 616.295 340.956 628.564C336.734 632.012 332.713 635.7 328.913 639.612C324.57 644.148 320.553 648.987 316.89 654.094C306.494 668.721 302.376 681.858 307.749 686.7Z" fill="#1E6BF1"/>
<path d="M316.973 653.99C319.751 656.99 323.443 658.977 327.467 659.64C331.491 660.302 335.62 659.603 339.206 657.652C341.228 656.584 343.013 655.116 344.455 653.337C345.897 651.557 346.965 649.503 347.596 647.297C348.227 645.092 348.407 642.781 348.126 640.503C347.845 638.226 347.107 636.029 345.959 634.046C344.698 631.869 342.976 629.997 340.915 628.563C336.708 632.012 332.7 635.701 328.913 639.611C324.603 644.117 320.613 648.922 316.973 653.99Z" fill="white"/>
<path fill-rule="evenodd" clip-rule="evenodd" d="M248.451 562.253L116.308 650.704L178.929 853.837L191.626 849.923L131.919 656.243L247.478 578.892L269.652 597.824L278.279 587.719L248.451 562.253Z" fill="#636363"/>
<path d="M249.591 586.502C241.177 586.502 234.357 579.898 234.357 571.751C234.357 563.604 241.177 557 249.591 557C258.005 557 264.825 563.604 264.825 571.751C264.825 579.898 258.005 586.502 249.591 586.502Z" fill="#636363"/>
<path d="M241.974 571.75C241.974 573.781 242.777 575.728 244.205 577.163C245.634 578.599 247.571 579.405 249.592 579.405C251.612 579.405 253.549 578.599 254.978 577.163C256.406 575.728 257.209 573.781 257.209 571.75C257.209 569.72 256.406 567.773 254.978 566.338C253.549 564.902 251.612 564.095 249.592 564.095C247.571 564.095 245.634 564.902 244.205 566.338C242.777 567.773 241.974 569.72 241.974 571.75Z" fill="#8C8C8C"/>
<path d="M123.702 877.017H281.274C281.274 868.671 277.975 860.667 272.103 854.766C266.231 848.864 258.266 845.549 249.961 845.549H155.014C146.71 845.549 138.745 848.864 132.873 854.766C127.001 860.667 123.702 868.671 123.702 877.017Z" fill="#0096FA"/>
<path d="M220.357 837.688H248.788V846.336H220.357V837.688Z" fill="#636363"/>
<path d="M125.328 676.148C113.549 676.148 104 666.904 104 655.5C104 644.097 113.549 634.853 125.328 634.853C137.107 634.853 146.656 644.097 146.656 655.5C146.656 666.904 137.107 676.148 125.328 676.148Z" fill="#636363"/>
<path d="M114.664 655.5C114.59 657.634 115.153 659.741 116.279 661.552C117.405 663.362 119.043 664.794 120.984 665.662C122.925 666.531 125.08 666.797 127.172 666.426C129.265 666.056 131.199 665.066 132.728 663.583C134.257 662.1 135.31 660.192 135.752 658.104C136.194 656.015 136.006 653.842 135.211 651.862C134.416 649.882 133.05 648.185 131.29 646.99C129.529 645.796 127.453 645.157 125.328 645.155C123.952 645.131 122.585 645.379 121.304 645.885C120.023 646.392 118.854 647.147 117.864 648.107C116.874 649.068 116.081 650.215 115.532 651.484C114.983 652.752 114.688 654.117 114.664 655.5Z" fill="#8C8C8C"/>
<path opacity="0.3" d="M74.9321 176.484C74.9321 169.171 80.8604 163.243 88.1734 163.243H293.413C300.726 163.243 306.654 169.171 306.654 176.484V312.207C306.654 319.52 300.726 325.448 293.413 325.448H88.1734C80.8605 325.448 74.9321 319.52 74.9321 312.207V176.484Z" fill="#B2DFFD"/>
<path opacity="0.3" d="M88.1731 193.036C88.1731 185.723 94.1014 179.794 101.414 179.794H306.654C313.967 179.794 319.895 185.723 319.895 193.036V328.759C319.895 336.072 313.967 342 306.654 342H101.414C94.1014 342 88.1731 336.072 88.1731 328.759V193.036Z" fill="#B2DFFD"/>
<path d="M65 163.241C65 155.928 70.9283 150 78.2413 150H283.481C290.794 150 296.722 155.928 296.722 163.241V298.964C296.722 306.277 290.794 312.206 283.481 312.206H78.2413C70.9283 312.206 65 306.277 65 298.964V163.241Z" fill="#F8FBFB"/>
<path d="M65 163.241C65 155.928 70.9283 150 78.2413 150H283.481C290.794 150 296.722 155.928 296.722 163.241V186.413H65V163.241Z" fill="#141414"/>
<path d="M224.83 220.111L224.83 266.157C224.83 270.145 228.062 273.377 232.05 273.377L269.387 273.377C273.375 273.377 276.607 270.145 276.607 266.157L276.607 220.111C276.607 216.123 273.375 212.891 269.387 212.891L232.05 212.891C228.062 212.891 224.83 216.123 224.83 220.111Z" fill="#F6F6F6"/>
<path d="M250.704 244.527C256.089 244.527 260.455 240.161 260.455 234.776C260.455 229.39 256.089 225.025 250.704 225.025C245.318 225.025 240.952 229.39 240.952 234.776C240.952 240.161 245.318 244.527 250.704 244.527Z" fill="#FCAA73"/>
<path fill-rule="evenodd" clip-rule="evenodd" d="M238.05 252.881C238.05 251.786 238.937 250.899 240.032 250.899H261.395C262.49 250.899 263.377 251.786 263.377 252.881C263.377 253.975 262.49 254.862 261.395 254.862H240.032C238.937 254.862 238.05 253.975 238.05 252.881Z" fill="#E0E0E0"/>
<path fill-rule="evenodd" clip-rule="evenodd" d="M241.725 261.248C241.725 260.153 242.612 259.266 243.706 259.266H257.7C258.795 259.266 259.682 260.153 259.682 261.248C259.682 262.342 258.795 263.229 257.7 263.229H243.706C242.612 263.229 241.725 262.342 241.725 261.248Z" fill="#E0E0E0"/>
<path d="M156.501 220.114L156.501 266.16C156.501 270.147 159.734 273.38 163.722 273.38L201.059 273.38C205.046 273.38 208.279 270.147 208.279 266.16L208.279 220.114C208.279 216.126 205.046 212.893 201.059 212.893L163.722 212.893C159.734 212.893 156.501 216.126 156.501 220.114Z" fill="#F6F6F6"/>
<path d="M182.375 244.529C187.761 244.529 192.127 240.164 192.127 234.778C192.127 229.393 187.761 225.027 182.375 225.027C176.99 225.027 172.624 229.393 172.624 234.778C172.624 240.164 176.99 244.529 182.375 244.529Z" fill="#F99F9F"/>
<path fill-rule="evenodd" clip-rule="evenodd" d="M169.722 252.881C169.722 251.786 170.609 250.899 171.704 250.899H193.067C194.161 250.899 195.048 251.786 195.048 252.881C195.048 253.975 194.161 254.862 193.067 254.862H171.704C170.609 254.862 169.722 253.975 169.722 252.881Z" fill="#E0E0E0"/>
<path fill-rule="evenodd" clip-rule="evenodd" d="M173.397 261.248C173.397 260.154 174.284 259.267 175.378 259.267H189.372C190.467 259.267 191.354 260.154 191.354 261.248C191.354 262.343 190.467 263.23 189.372 263.23H175.378C174.284 263.23 173.397 262.343 173.397 261.248Z" fill="#E0E0E0"/>
<path d="M88.1714 220.111L88.1714 266.157C88.1714 270.145 91.404 273.377 95.3917 273.377L132.729 273.377C136.717 273.377 139.949 270.145 139.949 266.157L139.949 220.111C139.949 216.123 136.717 212.891 132.729 212.891L95.3917 212.891C91.404 212.891 88.1714 216.123 88.1714 220.111Z" fill="#F6F6F6"/>
<path d="M114.045 244.527C119.431 244.527 123.796 240.161 123.796 234.776C123.796 229.39 119.431 225.025 114.045 225.025C108.66 225.025 104.294 229.39 104.294 234.776C104.294 240.161 108.66 244.527 114.045 244.527Z" fill="#84EBBC"/>
<path fill-rule="evenodd" clip-rule="evenodd" d="M101.392 252.881C101.392 251.786 102.279 250.899 103.374 250.899H124.737C125.831 250.899 126.719 251.786 126.719 252.881C126.719 253.975 125.831 254.862 124.737 254.862H103.374C102.279 254.862 101.392 253.975 101.392 252.881Z" fill="#E0E0E0"/>
<path fill-rule="evenodd" clip-rule="evenodd" d="M105.067 261.248C105.067 260.153 105.954 259.266 107.048 259.266H121.042C122.137 259.266 123.024 260.153 123.024 261.248C123.024 262.342 122.137 263.229 121.042 263.229H107.048C105.954 263.229 105.067 262.342 105.067 261.248Z" fill="#E0E0E0"/>
<path d="M94.7933 168.208C94.7933 170.951 92.5701 173.174 89.8278 173.174C87.0854 173.174 84.8623 170.951 84.8623 168.208C84.8623 165.466 87.0854 163.243 89.8278 163.243C92.5701 163.243 94.7933 165.466 94.7933 168.208Z" fill="#E60F0F"/>
<path d="M108.034 168.208C108.034 170.951 105.811 173.174 103.069 173.174C100.326 173.174 98.103 170.951 98.103 168.208C98.103 165.466 100.326 163.243 103.069 163.243C105.811 163.243 108.034 165.466 108.034 168.208Z" fill="#FCAA73"/>
<path d="M121.275 168.208C121.275 170.951 119.052 173.174 116.309 173.174C113.567 173.174 111.344 170.951 111.344 168.208C111.344 165.466 113.567 163.243 116.309 163.243C119.052 163.243 121.275 165.466 121.275 168.208Z" fill="#35DE90"/>
</g>
<defs>
<filter id="filter0_f_10272_1630" x="50" y="1018" width="309" height="59" filterUnits="userSpaceOnUse" color-interpolation-filters="sRGB">
<feFlood flood-opacity="0" result="BackgroundImageFix"/>
<feBlend mode="normal" in="SourceGraphic" in2="BackgroundImageFix" result="shape"/>
<feGaussianBlur stdDeviation="7" result="effect1_foregroundBlur_10272_1630"/>
</filter>
<filter id="filter1_f_10272_1630" x="856.001" y="1007.75" width="147.794" height="50.6382" filterUnits="userSpaceOnUse" color-interpolation-filters="sRGB">
<feFlood flood-opacity="0" result="BackgroundImageFix"/>
<feBlend mode="normal" in="SourceGraphic" in2="BackgroundImageFix" result="shape"/>
<feGaussianBlur stdDeviation="7" result="effect1_foregroundBlur_10272_1630"/>
</filter>
<linearGradient id="paint0_linear_10272_1630" x1="496.955" y1="737.609" x2="353.442" y2="853.124" gradientUnits="userSpaceOnUse">
<stop offset="0.1453" stop-color="#FACF23"/>
<stop offset="0.989583" stop-color="#93822D"/>
</linearGradient>
<linearGradient id="paint1_linear_10272_1630" x1="567.382" y1="379.511" x2="527.911" y2="321.839" gradientUnits="userSpaceOnUse">
<stop offset="0.635417" stop-color="#F89A9A" stop-opacity="0"/>
<stop offset="1" stop-color="#753103"/>
</linearGradient>
<linearGradient id="paint2_linear_10272_1630" x1="749.832" y1="655.75" x2="634.665" y2="578.689" gradientUnits="userSpaceOnUse">
<stop stop-color="#C5D9FB"/>
<stop offset="0.1836" stop-color="#D9E4F9"/>
<stop offset="0.4073" stop-color="#E9EEF7"/>
<stop offset="0.66" stop-color="#F2F3F5"/>
<stop offset="1" stop-color="#F5F5F5"/>
</linearGradient>
<linearGradient id="paint3_linear_10272_1630" x1="587.634" y1="1177.5" x2="588.691" y2="516.636" gradientUnits="userSpaceOnUse">
<stop offset="0.108095" stop-color="#DAF2F4"/>
<stop offset="1" stop-color="#DAF2F4" stop-opacity="0"/>
</linearGradient>
<clipPath id="clip0_10272_1630">
<rect width="1080" height="1080" fill="white"/>
</clipPath>
</defs>
</svg>
