<svg width="1080" height="1080" viewBox="0 0 1080 1080" fill="none" xmlns="http://www.w3.org/2000/svg">
<g clip-path="url(#clip0_10272_1614)">
<g clip-path="url(#clip1_10272_1614)">
<circle cx="861.5" cy="473.5" r="161.5" fill="#1968F0"/>
<circle opacity="0.3" cx="359.5" cy="366.5" r="339.5" fill="#E0E0E0"/>
<path d="M847.902 554.573C839.268 501.732 804.555 458.444 757.61 441.87L596.452 384.349V339.502H469.648V384.349L449.144 391.759L308.491 441.87C261.546 458.639 226.833 501.927 218.199 554.573L165.499 873.768H469.828H596.812H900.602L847.902 554.573Z" fill="#35DE90"/>
<path d="M325.036 639.783V873.184L514.612 873.963L325.036 639.783Z" fill="url(#paint0_linear_10272_1614)"/>
<path fill-rule="evenodd" clip-rule="evenodd" d="M476.64 11.3398H439.722L428.732 25.574V305.576L439.722 319.81H465.78V375.966H488.194H570.808H594.472V319.81H618.71L629.57 305.576V25.574L618.71 11.3398H583.483H476.64Z" fill="#8C3A03"/>
<path d="M398.779 249.224H446.282V175.129H381.937V232.423C381.937 241.685 389.494 249.224 398.779 249.224Z" fill="#8C3A03"/>
<path d="M657.573 249.224H610.069V175.129H674.415V232.423C674.415 241.685 666.858 249.224 657.573 249.224Z" fill="#8C3A03"/>
<path d="M627.908 11L642.033 25.2757L643 186.218L641.839 187L500.978 43.8534L429 131.462V25.2757L443.125 11H627.908Z" fill="#010101"/>
<path d="M622.162 242.787H583.164V181.756H636.006V229.138C636.006 236.742 629.766 242.787 622.162 242.787Z" fill="#8C3A03"/>
<path d="M573.223 317.274H605.201V242.789H573.223V317.274Z" fill="url(#paint1_linear_10272_1614)"/>
<path d="M516.088 319.619H467.536V339.118H516.088V319.619Z" fill="url(#paint2_linear_10272_1614)"/>
<path d="M447.962 357.881H613.701V422.227H447.962V357.881Z" fill="#35DE90"/>
<path d="M695.759 700.923L668.583 536.056L857.908 525.186L900.484 700.923H695.759Z" fill="#35DE90"/>
<path d="M861.532 551.459C861.532 614.996 810.024 666.503 746.487 666.503C682.95 666.503 631.442 614.996 631.442 551.459C631.442 487.921 682.95 436.414 746.487 436.414C810.024 436.414 861.532 487.921 861.532 551.459Z" fill="#35DE90"/>
<path fill-rule="evenodd" clip-rule="evenodd" d="M889.496 697.844L913.528 834.444C915.541 842.874 916.607 851.672 916.607 860.719C916.607 922.956 866.155 973.409 803.918 973.409C799.573 973.409 795.286 973.163 791.069 972.684H421.708V787.888H713.237L697.634 697.844H889.496Z" fill="#8C3A03"/>
<path d="M694.435 567.35L586.742 571.761C580.003 572.006 574.735 577.764 574.98 584.503L577.308 641.474C577.553 648.212 583.311 653.48 590.05 653.235L697.743 648.825C704.481 648.58 709.75 642.821 709.505 636.083L707.177 579.112C706.932 572.251 701.174 566.983 694.435 567.35Z" fill="url(#paint3_linear_10272_1614)"/>
<path d="M615.897 639.02C630.513 639.02 642.361 627.171 642.361 612.556C642.361 597.94 630.513 586.092 615.897 586.092C601.282 586.092 589.434 597.94 589.434 612.556C589.434 627.171 601.282 639.02 615.897 639.02Z" fill="#C5D9FB"/>
<path d="M615.919 613.998C621.125 613.785 625.189 609.776 624.995 605.043C624.802 600.31 620.424 596.646 615.218 596.859C610.012 597.072 605.949 601.081 606.142 605.814C606.336 610.546 610.713 614.21 615.919 613.998Z" fill="#1968F0"/>
<path d="M617.003 639.022C624.355 638.777 630.971 635.346 635.381 630.2C632.318 622.604 624.722 617.336 616.146 617.704C607.447 618.071 600.341 623.952 597.891 631.793C602.791 636.449 609.53 639.267 617.003 639.022Z" fill="#1968F0"/>
<path d="M694.681 623.953L656.455 625.545C654.25 625.668 652.29 623.953 652.29 621.625L651.922 611.456C651.8 609.251 653.515 607.29 655.843 607.29L694.068 605.698C696.274 605.575 698.234 607.29 698.234 609.618L698.602 619.787C698.724 621.992 696.886 623.83 694.681 623.953Z" fill="#1968F0"/>
<path d="M676.794 601.901L653.638 602.882C652.413 602.882 651.433 602.024 651.433 600.799L651.311 598.593C651.311 597.368 652.168 596.388 653.393 596.388L676.549 595.408C677.774 595.408 678.755 596.266 678.755 597.491L678.877 599.696C678.877 600.922 678.019 601.901 676.794 601.901Z" fill="#C5D9FB"/>
<path d="M664.404 559.263L615.569 561.262C613.488 561.387 612.02 563.136 612.02 565.135L612.387 575.131C612.509 577.255 614.223 578.755 616.181 578.755L665.016 576.756C667.097 576.631 668.566 574.881 668.566 572.882L668.199 562.886C668.199 560.762 666.485 559.138 664.404 559.263Z" fill="#A3A3A3"/>
<path d="M372.613 700.923L399.789 536.056L210.464 525.186L167.888 700.923H372.613Z" fill="#35DE90"/>
<path d="M206.84 551.459C206.84 614.996 258.347 666.503 321.884 666.503C385.421 666.503 436.929 614.996 436.929 551.459C436.929 487.921 385.421 436.414 321.884 436.414C258.347 436.414 206.84 487.921 206.84 551.459Z" fill="#35DE90"/>
<path fill-rule="evenodd" clip-rule="evenodd" d="M178.873 697.844L154.842 834.444C152.828 842.874 151.762 851.672 151.762 860.719C151.762 910.817 184.453 953.279 229.666 967.938V972.684H251.602C255.819 973.163 260.107 973.409 264.451 973.409C268.796 973.409 273.084 973.163 277.301 972.684H613.752V787.888H355.132L370.735 697.844H178.873Z" fill="#8C3A03"/>
<path d="M924 319.42L814.138 1044.77H253.62L146 319.42H924Z" fill="url(#paint4_linear_10272_1614)"/>
<path fill-rule="evenodd" clip-rule="evenodd" d="M377.551 742.541H205.261C196.206 742.541 189.369 750.854 191.032 759.722L248.315 1054.58C249.793 1061.42 255.706 1066.22 262.543 1066.22H320.268H747.781H805.507C812.344 1066.22 818.257 1061.42 819.735 1054.58L877.017 759.722C878.68 750.854 871.844 742.541 862.789 742.541H690.499H377.551Z" fill="#0C4EC0"/>
<path d="M543.072 852.213C506.779 852.213 487.312 865.905 487.312 901.539C487.312 933.378 503.809 957.958 543.072 957.958C544.062 957.958 546.042 957.958 546.042 957.958C546.042 962.578 546.042 968.516 546.042 973.631C546.042 974.95 547.032 976.105 548.516 976.105C549.671 976.105 550.001 975.61 550.991 974.785C557.92 968.846 578.376 950.205 578.376 950.205C588.604 940.472 598.832 928.924 598.832 901.539C598.832 865.905 579.366 852.213 543.072 852.213Z" fill="#0096FA"/>
<path fill-rule="evenodd" clip-rule="evenodd" d="M588.466 161.783C571.482 161.783 557.715 175.551 557.715 192.534C557.715 209.518 571.482 223.285 588.466 223.285C605.449 223.285 619.217 209.518 619.217 192.534C619.217 175.551 605.449 161.783 588.466 161.783ZM550.932 192.534C550.932 171.805 567.736 155 588.466 155C609.195 155 626 171.805 626 192.534C626 213.264 609.195 230.068 588.466 230.068C567.736 230.068 550.932 213.264 550.932 192.534Z" fill="#FBCF23"/>
<path fill-rule="evenodd" clip-rule="evenodd" d="M528.775 175.123C519.203 175.123 510.858 179.387 505.132 186.136C503.92 187.564 501.78 187.74 500.352 186.528C498.923 185.316 498.748 183.176 499.96 181.747C506.896 173.573 517.092 168.34 528.775 168.34C540.483 168.34 550.897 173.82 557.816 181.973C559.028 183.402 558.852 185.542 557.424 186.754C555.996 187.966 553.855 187.79 552.643 186.362C546.9 179.593 538.321 175.123 528.775 175.123Z" fill="#FBCF23"/>
<path fill-rule="evenodd" clip-rule="evenodd" d="M469.534 161.783C452.551 161.783 438.783 175.551 438.783 192.534C438.783 209.518 452.551 223.285 469.534 223.285C486.518 223.285 500.285 209.518 500.285 192.534C500.285 175.551 486.518 161.783 469.534 161.783ZM432 192.534C432 171.805 448.805 155 469.534 155C490.264 155 507.068 171.805 507.068 192.534C507.068 213.264 490.264 230.068 469.534 230.068C448.805 230.068 432 213.264 432 192.534Z" fill="#FBCF23"/>
<path opacity="0.5" d="M67.3606 700.129C67.3606 693.451 72.7744 688.037 79.4526 688.037H203.396C210.074 688.037 215.488 693.451 215.488 700.129V781.751C215.488 788.429 210.074 793.843 203.396 793.843H79.4526C72.7744 793.843 67.3606 788.429 67.3606 781.751V700.129Z" fill="#B2DFFD"/>
<path opacity="0.5" d="M51.814 688.469C51.814 681.791 57.2278 676.377 63.906 676.377H193.896C200.574 676.377 205.988 681.791 205.988 688.469V773.114C205.988 779.792 200.574 785.206 193.896 785.206H63.906C57.2277 785.206 51.814 779.792 51.814 773.114V688.469Z" fill="#B2DFFD"/>
<path opacity="0.6" d="M834.216 211.477C831.092 202.879 824.096 197.549 814.592 196.873C810.636 196.623 806.347 196.811 802.11 197.384C801.725 197.436 801.34 197.488 800.955 197.54C809.793 199.09 816.789 204.42 819.527 213.071C823.348 223.928 822.88 234.973 818.529 243.406C816.687 247.185 813.97 250.297 811.586 252.973L810.254 254.722C810.254 254.722 810.254 254.722 809.921 255.159L810.597 260.166C810.858 262.092 812.555 263.039 814.481 262.779C815.251 262.675 815.584 262.238 816.302 261.748C818.686 259.073 822.069 255.086 825.119 251.536L826.451 249.787C828.783 246.726 831.5 243.613 833.009 240.271C837.412 232.224 837.932 221.564 834.216 211.477Z" fill="#E0E0E0"/>
<path d="M819.527 213.07C816.299 203.701 808.429 197.705 798.154 197.133C794.199 196.884 789.524 197.123 785.288 197.696C779.51 198.477 771.526 200.341 766.269 204.974C759.19 210.637 756.536 220.017 758.483 231.52C759.754 238.016 762.544 247.051 769.644 253.151C775.328 257.482 784.551 258.98 791.974 258.761L792.547 262.998C792.911 265.694 795.534 267.693 798.231 267.328L798.616 267.276C799.771 267.12 800.49 266.631 801.156 265.756C804.924 261.717 807.589 258.219 810.306 255.106L811.638 253.357C813.97 250.297 816.687 247.184 818.581 243.79C822.88 234.973 823.296 223.542 819.527 213.07ZM776.597 234.954C773.901 235.319 771.715 233.653 771.35 230.957C770.986 228.261 772.651 226.075 775.347 225.71C778.044 225.346 780.23 227.011 780.594 229.707C780.959 232.403 779.293 234.59 776.597 234.954ZM790.848 233.028C788.152 233.392 785.966 231.727 785.601 229.03C785.237 226.334 786.902 224.148 789.599 223.784C792.295 223.419 794.481 225.085 794.845 227.781C795.21 230.477 793.159 232.715 790.848 233.028ZM804.714 231.153C802.018 231.518 799.832 229.852 799.468 227.156C799.103 224.46 800.769 222.274 803.465 221.909C806.161 221.545 808.347 223.21 808.712 225.906C809.076 228.602 807.411 230.789 804.714 231.153Z" fill="#E0E0E0"/>
<path opacity="0.5" d="M850 77.6C850 70.6412 855.641 65 862.6 65H998.05C1005.01 65 1010.65 70.6412 1010.65 77.6V165.8C1010.65 172.759 1005.01 178.4 998.05 178.4H862.6C855.641 178.4 850 172.759 850 165.8V77.6Z" fill="#C3EEF4"/>
<path opacity="0.5" d="M862.6 90.1998C862.6 83.2411 868.241 77.5999 875.2 77.5999H1010.65C1017.61 77.5999 1023.25 83.2411 1023.25 90.1999V178.4C1023.25 185.359 1017.61 191 1010.65 191H875.2C868.241 191 862.6 185.359 862.6 178.4V90.1998Z" fill="#B2DFFD"/>
<path fill-rule="evenodd" clip-rule="evenodd" d="M964.25 151.458C963.838 151.129 963.378 150.866 962.885 150.679V147.179C962.885 146.715 962.701 146.27 962.372 145.942C962.044 145.613 961.599 145.429 961.135 145.429H955.351C956.04 144.031 956.529 142.544 956.804 141.01H961.914C962.378 141.01 962.823 140.826 963.151 140.498C963.479 140.169 963.664 139.724 963.664 139.26C963.664 138.796 963.479 138.351 963.151 138.023C962.823 137.695 962.378 137.51 961.914 137.51H957.101C957.14 135.888 957.005 134.265 956.699 132.671C956.646 132.391 956.576 132.111 956.506 131.84H961.135C961.599 131.84 962.044 131.656 962.372 131.328C962.701 130.999 962.885 130.554 962.885 130.09V126.546C963.379 126.358 963.84 126.092 964.25 125.759C965 125.144 965.552 124.32 965.834 123.391C966.116 122.463 966.117 121.471 965.836 120.542C965.555 119.614 965.005 118.789 964.255 118.172C963.506 117.556 962.591 117.175 961.625 117.079C960.335 116.954 959.048 117.344 958.043 118.163C957.039 118.982 956.398 120.165 956.261 121.454C956.149 122.528 956.394 123.609 956.959 124.53C957.524 125.451 958.377 126.16 959.385 126.546V128.296H954.905C953.459 126.219 951.353 124.693 948.929 123.965V121.069C948.929 120.605 948.744 120.16 948.416 119.832C948.088 119.503 947.643 119.319 947.179 119.319C946.715 119.319 946.27 119.503 945.941 119.832C945.613 120.16 945.429 120.605 945.429 121.069V123.291C944.668 123.186 943.889 123.108 943.101 123.064V118.365C943.101 117.901 942.917 117.456 942.589 117.128C942.261 116.8 941.815 116.615 941.351 116.615C940.887 116.615 940.442 116.8 940.114 117.128C939.786 117.456 939.601 117.901 939.601 118.365V123.046C938.917 123.046 938.195 123.15 937.463 123.256L937.274 123.283V121.069C937.274 120.605 937.089 120.16 936.761 119.832C936.433 119.503 935.988 119.319 935.524 119.319C935.06 119.319 934.615 119.503 934.286 119.832C933.958 120.16 933.774 120.605 933.774 121.069V124.149C933.01 124.414 932.277 124.761 931.586 125.181C930.031 126.164 928.763 127.541 927.911 129.171H923.318V127.421C924.116 127.127 924.823 126.625 925.365 125.969C925.98 125.218 926.359 124.302 926.453 123.336C926.548 122.37 926.354 121.398 925.896 120.542C925.438 119.686 924.736 118.985 923.88 118.528C923.024 118.071 922.052 117.878 921.086 117.973C920.12 118.068 919.204 118.448 918.453 119.064C917.703 119.68 917.152 120.504 916.871 121.433C916.589 122.362 916.589 123.353 916.87 124.282C917.152 125.211 917.702 126.035 918.453 126.651C918.865 126.981 919.325 127.247 919.818 127.439V130.939C919.818 131.403 920.002 131.848 920.33 132.176C920.658 132.505 921.103 132.689 921.568 132.689H926.616C926.262 134.265 926.109 135.879 926.161 137.493C926.161 137.773 926.161 138.053 926.205 138.368H920.815C920.351 138.368 919.906 138.552 919.578 138.88C919.249 139.208 919.065 139.654 919.065 140.118C919.065 140.582 919.249 141.027 919.578 141.355C919.906 141.683 920.351 141.868 920.815 141.868H926.721C927.086 143.404 927.676 144.878 928.471 146.243H921.568C921.103 146.243 920.658 146.427 920.33 146.755C920.002 147.083 919.818 147.529 919.818 147.993V151.493C918.788 151.892 917.923 152.626 917.362 153.577C916.801 154.528 916.576 155.64 916.723 156.734C916.871 157.828 917.382 158.841 918.175 159.609C918.968 160.377 919.997 160.856 921.095 160.969H921.585C922.514 160.966 923.423 160.7 924.206 160.202C924.99 159.703 925.616 158.992 926.012 158.152C926.408 157.312 926.557 156.377 926.443 155.455C926.328 154.533 925.954 153.663 925.365 152.945C924.823 152.289 924.116 151.788 923.318 151.493V149.743H931.289C931.402 149.756 931.517 149.756 931.63 149.743C934.337 151.441 937.427 152.434 940.616 152.63V154.8C940.616 155.428 940.865 156.029 941.308 156.474C941.751 156.918 942.351 157.169 942.979 157.171H943.198C943.684 157.127 944.145 156.934 944.519 156.62C945.919 155.421 947.756 153.829 949.559 152.149L950.329 151.44C951.204 150.653 952.079 149.839 952.866 148.973H959.385V150.723C958.386 151.1 957.537 151.792 956.967 152.696C956.396 153.599 956.137 154.663 956.226 155.728C956.346 156.941 956.911 158.066 957.813 158.886C958.715 159.706 959.89 160.161 961.109 160.164C961.269 160.173 961.43 160.173 961.59 160.164C962.556 160.068 963.471 159.687 964.22 159.071C964.97 158.454 965.52 157.629 965.801 156.7C966.082 155.772 966.081 154.78 965.799 153.852C965.517 152.923 964.965 152.099 964.215 151.484L964.25 151.458ZM961.266 120.596C961.451 120.614 961.63 120.667 961.794 120.755C961.958 120.842 962.103 120.96 962.22 121.104C962.344 121.25 962.435 121.421 962.49 121.605C962.544 121.788 962.559 121.981 962.535 122.171C962.506 122.509 962.354 122.823 962.109 123.057C961.865 123.29 961.543 123.427 961.205 123.44H960.995C960.623 123.404 960.28 123.222 960.042 122.933C959.804 122.644 959.69 122.273 959.726 121.9C959.762 121.528 959.945 121.185 960.234 120.947C960.522 120.709 960.894 120.596 961.266 120.631V120.596ZM920.483 121.918C920.6 121.774 920.745 121.655 920.908 121.568C921.072 121.481 921.252 121.427 921.436 121.41H921.576C921.896 121.415 922.205 121.529 922.451 121.734C922.744 121.967 922.933 122.307 922.976 122.679C923.012 123.051 922.898 123.422 922.661 123.711C922.545 123.857 922.401 123.976 922.237 124.064C922.073 124.151 921.893 124.204 921.708 124.219H921.655H921.498C921.196 124.208 920.907 124.098 920.675 123.904C920.532 123.788 920.414 123.644 920.327 123.482C920.24 123.32 920.186 123.142 920.168 122.959C920.134 122.584 920.247 122.211 920.483 121.918ZM922.976 156.209C922.949 156.476 922.846 156.731 922.679 156.941C922.512 157.152 922.288 157.311 922.034 157.398C921.78 157.486 921.506 157.499 921.244 157.436C920.983 157.373 920.745 157.236 920.559 157.042C920.372 156.848 920.246 156.605 920.193 156.341C920.141 156.078 920.165 155.804 920.262 155.554C920.36 155.304 920.528 155.086 920.745 154.928C920.962 154.77 921.22 154.677 921.489 154.66H921.708C922.08 154.7 922.422 154.885 922.659 155.175C922.897 155.464 923.011 155.836 922.976 156.209ZM947.966 148.789L947.17 149.515C946.129 150.486 945.079 151.423 944.116 152.271V151.195C944.116 150.924 944.063 150.656 943.959 150.405C943.855 150.154 943.703 149.927 943.511 149.735C943.32 149.543 943.092 149.391 942.842 149.287C942.591 149.184 942.322 149.13 942.051 149.13C938.945 149.13 934.614 148.063 932.715 146.085C930.335 143.609 929.74 139.96 929.661 137.335C929.583 134.71 929.976 130.291 933.476 128.156C935.226 127.089 937.965 126.511 941.299 126.511C943.161 126.508 945.02 126.69 946.846 127.054C948.445 127.299 949.927 128.037 951.086 129.165C952.245 130.293 953.023 131.754 953.313 133.345C953.995 136.845 953.881 141.728 951.501 145.123C950.454 146.465 949.269 147.693 947.966 148.789ZM962.22 156.148C962.045 156.363 961.811 156.522 961.546 156.605C961.281 156.688 960.998 156.691 960.732 156.613C960.466 156.535 960.228 156.381 960.049 156.169C959.87 155.957 959.758 155.697 959.726 155.421C959.708 155.237 959.727 155.051 959.781 154.873C959.835 154.696 959.923 154.531 960.041 154.388C960.159 154.245 960.304 154.127 960.468 154.04C960.631 153.953 960.811 153.899 960.995 153.881H961.205C961.506 153.897 961.793 154.007 962.028 154.196C962.171 154.314 962.29 154.459 962.377 154.622C962.464 154.786 962.518 154.966 962.535 155.15C962.565 155.511 962.452 155.869 962.22 156.148ZM944.108 132.829H939.19C938.35 132.829 937.544 133.163 936.95 133.757C936.356 134.351 936.023 135.157 936.023 135.997V140.914C936.032 141.748 936.37 142.545 936.963 143.131C937.556 143.718 938.356 144.047 939.19 144.047H944.108C944.948 144.047 945.753 143.713 946.347 143.119C946.941 142.525 947.275 141.719 947.275 140.879V135.997C947.275 135.157 946.941 134.351 946.347 133.757C945.753 133.163 944.948 132.829 944.108 132.829ZM944.213 140.914C944.213 140.942 944.202 140.969 944.182 140.988C944.162 141.008 944.135 141.019 944.108 141.019H939.19C939.162 141.019 939.136 141.008 939.116 140.988C939.096 140.969 939.085 140.942 939.085 140.914V135.997C939.085 135.969 939.096 135.942 939.116 135.922C939.136 135.903 939.162 135.892 939.19 135.892H944.108C944.135 135.892 944.162 135.903 944.182 135.922C944.202 135.942 944.213 135.969 944.213 135.997V140.914ZM941.087 137.118C941.267 137.056 941.459 137.032 941.649 137.047C941.995 137.074 942.319 137.232 942.555 137.487C942.79 137.742 942.921 138.077 942.921 138.425C942.921 138.773 942.79 139.107 942.555 139.363C942.319 139.618 941.995 139.775 941.649 139.803C941.459 139.818 941.267 139.794 941.087 139.731C940.907 139.669 940.741 139.57 940.601 139.441C940.461 139.311 940.349 139.154 940.272 138.979C940.196 138.804 940.156 138.616 940.156 138.425C940.156 138.234 940.196 138.045 940.272 137.871C940.349 137.696 940.461 137.539 940.601 137.409C940.741 137.28 940.907 137.181 941.087 137.118Z" fill="white"/>
<path opacity="0.5" d="M162.66 519.36C162.66 514.003 167.003 509.66 172.36 509.66H271.788C277.145 509.66 281.488 514.003 281.488 519.36V584.837C281.488 590.194 277.145 594.537 271.788 594.537H172.36C167.003 594.537 162.66 590.194 162.66 584.837V519.36Z" fill="#B2DFFD"/>
<path opacity="0.5" d="M151 507.7C151 502.343 155.343 498 160.7 498H264.977C270.335 498 274.678 502.343 274.678 507.7V575.602C274.678 580.959 270.335 585.302 264.977 585.302H160.7C155.343 585.302 151 580.959 151 575.602V507.7Z" fill="#B2DFFD"/>
<path fill-rule="evenodd" clip-rule="evenodd" d="M233.454 563.75L239.379 569.66L239.371 569.705C239.512 569.846 239.623 570.012 239.699 570.196C239.775 570.379 239.814 570.576 239.814 570.775C239.814 570.973 239.775 571.17 239.699 571.353C239.623 571.537 239.512 571.704 239.371 571.844C239.231 571.984 239.064 572.096 238.881 572.172C238.697 572.248 238.5 572.287 238.302 572.287C238.103 572.287 237.907 572.248 237.723 572.172C237.54 572.096 237.373 571.984 237.232 571.844L231.186 565.798C227.477 568.618 222.821 569.896 218.191 569.365C213.561 568.834 209.316 566.535 206.341 562.948C203.366 559.36 201.892 554.763 202.227 550.115C202.562 545.467 204.68 541.128 208.138 538.004C211.596 534.88 216.127 533.213 220.785 533.351C225.443 533.489 229.868 535.421 233.135 538.743C236.402 542.066 238.26 546.523 238.319 551.183C238.378 555.842 236.635 560.345 233.454 563.75ZM207.651 543.159C206.001 545.636 205.124 548.546 205.128 551.522V551.492C205.129 553.47 205.52 555.429 206.278 557.257C207.037 559.084 208.148 560.745 209.548 562.143C210.948 563.541 212.61 564.649 214.438 565.405C216.267 566.16 218.227 566.548 220.205 566.546C223.181 566.54 226.088 565.652 228.559 563.994C231.03 562.336 232.954 559.983 234.088 557.231C235.221 554.48 235.513 551.454 234.928 548.537C234.342 545.619 232.904 542.941 230.796 540.841C228.688 538.74 226.005 537.312 223.086 536.736C220.166 536.161 217.141 536.464 214.394 537.607C211.647 538.75 209.3 540.682 207.651 543.159ZM229.43 545.034C229.659 545.263 229.788 545.575 229.788 545.899C229.788 546.952 229.442 547.975 228.803 548.811C228.164 549.647 227.267 550.249 226.251 550.524V551.076H228.587C228.911 551.076 229.223 551.205 229.452 551.435C229.682 551.664 229.811 551.976 229.811 552.301C229.811 552.625 229.682 552.937 229.452 553.166C229.223 553.396 228.911 553.525 228.587 553.525H226.251V553.85C226.241 554.129 226.21 554.406 226.161 554.681C227.189 554.946 228.1 555.544 228.751 556.383C229.402 557.221 229.756 558.252 229.758 559.314C229.758 559.639 229.629 559.95 229.399 560.18C229.17 560.409 228.858 560.538 228.534 560.538C228.209 560.538 227.898 560.409 227.668 560.18C227.438 559.95 227.309 559.639 227.309 559.314C227.298 558.75 227.083 558.21 226.704 557.793C226.324 557.376 225.806 557.111 225.246 557.047C224.723 557.838 224.013 558.487 223.178 558.937C222.344 559.386 221.41 559.622 220.462 559.624H219.827C218.879 559.622 217.946 559.386 217.111 558.937C216.277 558.487 215.566 557.838 215.044 557.047C214.483 557.111 213.965 557.376 213.586 557.793C213.207 558.21 212.991 558.75 212.98 559.314C212.98 559.639 212.851 559.95 212.622 560.18C212.392 560.409 212.081 560.538 211.756 560.538C211.431 560.538 211.12 560.409 210.89 560.18C210.661 559.95 210.532 559.639 210.532 559.314C210.535 558.248 210.894 557.214 211.551 556.375C212.208 555.536 213.126 554.94 214.159 554.681C214.14 554.404 214.14 554.127 214.159 553.85V553.525H211.786C211.462 553.525 211.15 553.396 210.92 553.166C210.691 552.937 210.562 552.625 210.562 552.301C210.562 551.976 210.691 551.664 210.92 551.435C211.15 551.205 211.462 551.076 211.786 551.076H214.159V550.524C213.144 550.249 212.247 549.647 211.608 548.811C210.968 547.975 210.622 546.952 210.622 545.899C210.622 545.575 210.751 545.263 210.981 545.034C211.211 544.804 211.522 544.675 211.847 544.675C212.171 544.675 212.483 544.804 212.712 545.034C212.942 545.263 213.071 545.575 213.071 545.899C213.065 546.412 213.229 546.912 213.536 547.322C213.844 547.731 214.278 548.028 214.771 548.167C214.939 548.065 215.128 548.005 215.323 547.993V547.721C215.325 546.981 215.552 546.259 215.973 545.65C216.394 545.042 216.989 544.575 217.681 544.312L216.925 543.08C216.798 542.862 216.763 542.601 216.826 542.357C216.89 542.112 217.048 541.902 217.265 541.773C217.483 541.646 217.742 541.611 217.986 541.675C218.229 541.738 218.438 541.896 218.565 542.113L219.714 544.063H220.697L221.845 542.113C221.907 542.002 221.991 541.905 222.091 541.827C222.191 541.749 222.305 541.692 222.428 541.659C222.55 541.626 222.678 541.618 222.804 541.635C222.93 541.652 223.051 541.694 223.16 541.758C223.269 541.823 223.364 541.908 223.44 542.01C223.516 542.112 223.57 542.228 223.601 542.351C223.631 542.474 223.636 542.602 223.617 542.727C223.597 542.852 223.552 542.973 223.485 543.08L222.73 544.312C223.421 544.575 224.017 545.042 224.438 545.65C224.859 546.259 225.085 546.981 225.087 547.721V547.993C225.285 548.007 225.476 548.066 225.647 548.167C226.139 548.027 226.571 547.729 226.877 547.32C227.183 546.91 227.346 546.411 227.34 545.899C227.34 545.575 227.469 545.263 227.698 545.034C227.928 544.804 228.239 544.675 228.564 544.675C228.889 544.675 229.2 544.804 229.43 545.034Z" fill="white"/>
<path fill-rule="evenodd" clip-rule="evenodd" d="M159.899 733.115C159.903 733.077 159.903 733.04 159.899 733.002C159.875 732.861 159.837 732.722 159.787 732.588C159.728 732.465 159.656 732.349 159.571 732.242V732.199L150.493 721.584C150.39 721.465 150.271 721.36 150.139 721.273H150.079C149.959 721.205 149.831 721.153 149.698 721.118C149.667 721.114 149.635 721.114 149.603 721.118C149.477 721.083 149.346 721.065 149.215 721.066H127.389C126.104 721.066 124.871 721.576 123.962 722.485C123.054 723.394 122.543 724.626 122.543 725.911V759.164C122.568 760.434 123.089 761.643 123.995 762.532C124.901 763.422 126.119 763.921 127.389 763.923H155.114C156.398 763.921 157.63 763.41 158.538 762.502C159.446 761.593 159.957 760.362 159.959 759.078V733.27C159.944 733.217 159.924 733.164 159.899 733.115ZM151.633 731.387C151.48 731.385 151.335 731.323 151.226 731.215C151.118 731.107 151.057 730.961 151.055 730.808L150.994 727.483L154.371 731.448L151.633 731.387ZM156.461 759.026C156.461 759.395 156.315 759.749 156.054 760.009C155.793 760.27 155.44 760.417 155.071 760.417H127.389C127.02 760.417 126.666 760.27 126.405 760.009C126.145 759.749 125.998 759.395 125.998 759.026V725.825C125.998 725.456 126.145 725.102 126.405 724.841C126.666 724.581 127.02 724.434 127.389 724.434H147.479L147.6 730.895C147.62 731.941 148.045 732.938 148.787 733.676C149.528 734.414 150.527 734.835 151.573 734.851L156.479 734.963L156.461 759.026ZM136.199 743.427V741.147C136.199 740.991 136.734 740.508 137.719 740.508C138.062 740.508 138.392 740.371 138.635 740.128C138.878 739.885 139.014 739.556 139.014 739.212C139.014 738.869 138.878 738.539 138.635 738.296C138.392 738.053 138.062 737.917 137.719 737.917C135.413 737.917 133.608 739.333 133.608 741.147V743.427C133.608 743.591 133.063 744.066 132.087 744.066C131.744 744.066 131.414 744.203 131.171 744.446C130.928 744.689 130.792 745.018 130.792 745.362C130.792 745.706 130.928 746.035 131.171 746.278C131.414 746.521 131.744 746.657 132.087 746.657C133.063 746.657 133.608 747.133 133.608 747.288V749.577C133.608 751.382 135.413 752.816 137.753 752.816C138.097 752.816 138.427 752.679 138.669 752.436C138.912 752.193 139.049 751.864 139.049 751.52C139.049 751.177 138.912 750.847 138.669 750.604C138.427 750.361 138.097 750.225 137.753 750.225C136.769 750.225 136.233 749.75 136.233 749.594V747.288C136.219 746.566 135.928 745.876 135.421 745.362C135.918 744.84 136.196 744.148 136.199 743.427ZM148.809 743.427C148.809 743.591 149.353 744.066 150.329 744.066C150.673 744.066 151.002 744.203 151.245 744.446C151.488 744.689 151.625 745.018 151.625 745.362C151.625 745.706 151.488 746.035 151.245 746.278C151.002 746.521 150.673 746.657 150.329 746.657C149.353 746.657 148.809 747.133 148.809 747.288V749.577C148.809 751.382 147.004 752.799 144.698 752.799C144.354 752.799 144.025 752.662 143.782 752.419C143.539 752.176 143.402 751.847 143.402 751.503C143.402 751.159 143.539 750.83 143.782 750.587C144.025 750.344 144.354 750.207 144.698 750.207C145.682 750.207 146.218 749.732 146.218 749.577V747.288C146.232 746.566 146.523 745.876 147.03 745.362C146.521 744.845 146.23 744.152 146.218 743.427V741.147C146.218 740.991 145.682 740.508 144.698 740.508C144.354 740.508 144.025 740.371 143.782 740.128C143.539 739.885 143.402 739.556 143.402 739.212C143.402 738.869 143.539 738.539 143.782 738.296C144.025 738.053 144.354 737.917 144.698 737.917C147.004 737.917 148.809 739.333 148.809 741.147V743.427Z" fill="white"/>
<path opacity="0.08" d="M825.353 851.122C825.353 851.122 810.527 834.518 807.803 832.272C800.92 827.182 794.375 821.653 788.209 815.72C787.03 814.443 785.994 813.042 785.118 811.543C784.271 810.174 783.718 808.645 783.494 807.052C783.255 805.389 783.472 803.693 784.123 802.144C784.839 800.458 785.932 798.958 787.318 797.758C791.348 794.463 795.971 791.964 800.94 790.395C809.213 787.529 817.689 785.277 826.296 783.659C830.232 782.875 834.103 781.793 837.874 780.422C839.888 779.719 841.767 778.677 843.427 777.341C843.744 777.078 844.01 776.759 844.213 776.401C844.236 776.298 844.236 776.191 844.213 776.088C844.213 776.088 844.213 776.088 844.213 775.775C844.058 775.456 843.865 775.158 843.637 774.887C841.149 772.569 838.205 770.791 834.992 769.665C830.818 767.994 826.455 766.837 822 766.219C815.256 765.391 808.608 763.922 802.145 761.833C797.742 760.447 793.699 758.112 790.305 754.993C788.955 753.658 787.871 752.081 787.109 750.345C786.379 748.703 786.021 746.92 786.061 745.124C786.237 741.704 787.503 738.43 789.676 735.777C794.325 730.297 800.343 726.136 807.121 723.715C809.832 722.638 812.639 721.816 815.504 721.261L817.599 721C821.319 721 828.077 721 826.401 726.222C825.143 730.19 822.681 730.138 818.804 730.764L817.285 731.026C815.039 731.433 812.831 732.027 810.684 732.801C805.572 734.559 800.968 737.534 797.272 741.469C796.35 742.559 795.735 743.875 795.491 745.28C795.472 745.747 795.562 746.212 795.753 746.638C796.021 747.325 796.431 747.948 796.958 748.466C799.343 750.636 802.165 752.274 805.235 753.269C816.342 757.447 827.029 757.342 838.188 762.094C842.655 763.832 846.642 766.607 849.819 770.187C850.521 771.064 851.07 772.053 851.443 773.112C851.9 774.236 852.08 775.454 851.967 776.662C851.891 777.917 851.514 779.134 850.866 780.213C850.206 781.296 849.375 782.266 848.404 783.085C846.011 784.937 843.318 786.367 840.441 787.314C836.252 788.695 831.96 789.743 827.606 790.447C819.272 791.843 811.032 793.744 802.93 796.139C798.644 797.345 794.601 799.289 790.986 801.883C790.155 802.544 789.461 803.36 788.942 804.285C788.64 804.974 788.514 805.728 788.576 806.478C788.688 807.449 788.991 808.39 789.466 809.245C790.112 810.471 790.884 811.626 791.772 812.691C797.501 818.757 803.589 824.476 810.003 829.818C812.675 832.324 826.977 846.788 825.353 851.122Z" fill="black"/>
<path opacity="0.08" d="M845.655 850.571C845.655 850.571 845.655 849.731 845.917 849.626C846.167 847.442 845.822 845.23 844.92 843.225C843.979 841.36 842.676 839.702 841.087 838.345C837.06 835.264 832.713 832.626 828.12 830.475C823.281 828.275 818.761 825.434 814.68 822.028C812.832 820.399 811.378 818.371 810.428 816.099C809.482 813.622 809.281 810.923 809.85 808.333C810.129 806.886 810.801 805.542 811.793 804.451C812.809 803.327 813.996 802.371 815.31 801.618C818.439 799.944 821.775 798.692 825.233 797.892C833.213 795.951 840.982 794.849 849.33 793.223C852.589 792.62 855.787 791.725 858.885 790.547C859.923 790.138 860.909 789.61 861.825 788.973C862.396 788.605 862.865 788.1 863.19 787.504C863.429 787.092 863.522 786.611 863.452 786.139C863.281 785.236 862.923 784.378 862.402 783.621C861.247 781.923 859.909 780.357 858.412 778.951C856.785 777.377 853.53 774.754 855.42 772.445C857.31 770.136 861.195 773.337 862.822 774.859C864.703 776.632 866.344 778.642 867.704 780.84C868.626 782.281 869.201 783.915 869.384 785.615C869.541 787.18 869.211 788.755 868.439 790.127C867.654 791.422 866.597 792.532 865.342 793.38C864.003 794.242 862.578 794.963 861.09 795.531C857.678 796.75 854.164 797.664 850.59 798.26C842.557 799.676 834.525 800.568 826.545 802.3C823.502 802.873 820.552 803.862 817.778 805.238C816.837 805.697 815.984 806.319 815.258 807.074C814.718 807.636 814.321 808.32 814.103 809.068C813.577 810.956 813.577 812.952 814.103 814.84C814.787 816.66 815.862 818.308 817.253 819.667C820.973 822.976 825.102 825.798 829.538 828.062C834.223 830.471 838.58 833.468 842.505 836.981C844.164 838.612 845.454 840.58 846.285 842.753C847.019 845.021 847.019 847.463 846.285 849.731C846.285 849.731 845.655 850.676 845.655 850.571Z" fill="black"/>
<rect x="769.244" y="861.467" width="116.511" height="21.2333" rx="8" fill="#141414"/>
<rect x="761.077" y="875.621" width="132.3" height="21.2333" rx="4" fill="#141414"/>
<path fill-rule="evenodd" clip-rule="evenodd" d="M757.537 893.315L776.053 1063.76C776.825 1070.87 782.824 1076.25 789.971 1076.25H823.144H830.221H863.393C870.54 1076.25 876.54 1070.87 877.311 1063.76L895.827 893.315H830.221H823.144H757.537Z" fill="#E0E0E0"/>
<path fill-rule="evenodd" clip-rule="evenodd" d="M891.2 931.155L880.584 1036.78H829.47V1036.78H773.057L761.079 931.156H822.809V931.155H891.2Z" fill="#072F73"/>
<rect x="754" y="884.877" width="147" height="11.9778" rx="4" fill="#141414"/>
<g opacity="0.2" filter="url(#filter0_f_10272_1614)">
<path d="M318.141 1064.5C318.141 1073.06 255.237 1080 177.641 1080C100.045 1080 37.1406 1073.06 37.1406 1064.5C37.1406 1055.94 100.045 1049 177.641 1049C255.237 1049 318.141 1055.94 318.141 1064.5Z" fill="#0A0F1A"/>
</g>
<path d="M262.599 950.095H70.2209V897.727H262.599C268.941 897.727 275.023 900.246 279.508 904.73C283.992 909.215 286.512 915.297 286.512 921.639V926.262C286.491 932.591 283.962 938.653 279.48 943.12C274.997 947.587 268.927 950.095 262.599 950.095Z" fill="#F5F8F9"/>
<path fill-rule="evenodd" clip-rule="evenodd" d="M273.866 906.315H62.6104V894H280.356C294.011 894 292.671 904.028 292.671 917.654V928.733C292.671 942.497 294.031 952.387 280.356 952.387H62.6104V940.072H273.866C282.271 940.072 280.356 934.259 280.356 928.733V917.654C280.356 912.229 282.21 906.315 273.866 906.315Z" fill="#1968F0"/>
<path d="M262.599 1065.86H70.2212V1013.5H262.599C268.941 1013.5 275.024 1016.01 279.508 1020.5C283.993 1024.98 286.512 1031.07 286.512 1037.41V1042.03C286.491 1048.36 283.962 1054.42 279.48 1058.89C274.998 1063.36 268.927 1065.86 262.599 1065.86Z" fill="#F5F8F9"/>
<path fill-rule="evenodd" clip-rule="evenodd" d="M273.866 1022.08H62.6104V1009.77H280.356C294.011 1009.77 292.671 1019.8 292.671 1033.42V1044.5C292.671 1058.27 294.031 1068.16 280.356 1068.16H62.6104V1055.84H273.866C282.271 1055.84 280.356 1050.03 280.356 1044.5V1033.42C280.356 1028 282.21 1022.08 273.866 1022.08Z" fill="#454545"/>
<path d="M236.989 1007.41H44.6108V955.044H236.989C243.331 955.044 249.413 957.564 253.898 962.048C258.382 966.533 260.902 972.615 260.902 978.957V983.58C260.88 989.909 258.352 995.97 253.87 1000.44C249.387 1004.9 243.317 1007.41 236.989 1007.41Z" fill="#F5F8F9"/>
<path fill-rule="evenodd" clip-rule="evenodd" d="M248.256 963.633H37V951.318H254.745C268.401 951.318 267.06 961.345 267.06 974.972V986.051C267.06 999.815 268.42 1009.7 254.745 1009.7H37V997.39H248.256C256.66 997.39 254.745 991.577 254.745 986.051V974.972C254.745 969.547 256.6 963.633 248.256 963.633Z" fill="#0096FA"/>
<path opacity="0.3" d="M55.3247 167.532C55.3247 159.929 61.4881 153.766 69.091 153.766H282.468C290.071 153.766 296.234 159.929 296.234 167.532V308.636C296.234 316.239 290.071 322.403 282.468 322.403H69.091C61.4881 322.403 55.3247 316.239 55.3247 308.636V167.532Z" fill="#B2DFFD"/>
<path opacity="0.3" d="M69.0908 184.74C69.0908 177.137 75.2542 170.974 82.8571 170.974H296.234C303.837 170.974 310 177.137 310 184.74V325.844C310 333.447 303.837 339.61 296.234 339.61H82.8571C75.2542 339.61 69.0908 333.447 69.0908 325.844V184.74Z" fill="#B2DFFD"/>
<path d="M45 153.766C45 146.163 51.1634 140 58.7662 140H272.143C279.746 140 285.909 146.163 285.909 153.766V294.87C285.909 302.473 279.746 308.637 272.143 308.637H58.7662C51.1634 308.637 45 302.473 45 294.87V153.766Z" fill="#E0E0E0"/>
<path d="M45 153.766C45 146.163 51.1634 140 58.7662 140H272.143C279.746 140 285.909 146.163 285.909 153.766V177.857H45V153.766Z" fill="#141414"/>
<path d="M75.9741 158.928C75.9741 161.78 73.6628 164.091 70.8118 164.091C67.9607 164.091 65.6494 161.78 65.6494 158.928C65.6494 156.077 67.9607 153.766 70.8118 153.766C73.6628 153.766 75.9741 156.077 75.9741 158.928Z" fill="#FF5A60"/>
<path d="M89.7402 158.928C89.7402 161.78 87.429 164.091 84.5779 164.091C81.7268 164.091 79.4155 161.78 79.4155 158.928C79.4155 156.077 81.7268 153.766 84.5779 153.766C87.429 153.766 89.7402 156.077 89.7402 158.928Z" fill="#FBCF23"/>
<path d="M103.506 158.928C103.506 161.78 101.195 164.091 98.344 164.091C95.4929 164.091 93.1816 161.78 93.1816 158.928C93.1816 156.077 95.4929 153.766 98.344 153.766C101.195 153.766 103.506 156.077 103.506 158.928Z" fill="#84EBBC"/>
<path d="M268.013 198.506H200.558C198.277 198.506 196.428 200.355 196.428 202.636V276.974C196.428 279.255 198.277 281.104 200.558 281.104H268.013C270.294 281.104 272.143 279.255 272.143 276.974V202.636C272.143 200.355 270.294 198.506 268.013 198.506Z" fill="#F6F6F6"/>
<path fill-rule="evenodd" clip-rule="evenodd" d="M204.172 212.275C204.172 210.85 205.328 209.694 206.754 209.694H261.819C263.244 209.694 264.4 210.85 264.4 212.275C264.4 213.701 263.244 214.856 261.819 214.856H206.754C205.328 214.856 204.172 213.701 204.172 212.275Z" fill="#E0E0E0"/>
<path fill-rule="evenodd" clip-rule="evenodd" d="M204.172 222.6C204.172 221.174 205.328 220.019 206.754 220.019H261.819C263.244 220.019 264.4 221.174 264.4 222.6C264.4 224.026 263.244 225.181 261.819 225.181H206.754C205.328 225.181 204.172 224.026 204.172 222.6Z" fill="#E0E0E0"/>
<path fill-rule="evenodd" clip-rule="evenodd" d="M204.172 232.925C204.172 231.499 205.328 230.344 206.754 230.344H261.819C263.244 230.344 264.4 231.499 264.4 232.925C264.4 234.35 263.244 235.506 261.819 235.506H206.754C205.328 235.506 204.172 234.35 204.172 232.925Z" fill="#E0E0E0"/>
<path fill-rule="evenodd" clip-rule="evenodd" d="M242.029 250.133C242.029 248.708 243.185 247.552 244.611 247.552H261.818C263.244 247.552 264.4 248.708 264.4 250.133C264.4 251.559 263.244 252.714 261.818 252.714H244.611C243.185 252.714 242.029 251.559 242.029 250.133Z" fill="#E0E0E0"/>
<path fill-rule="evenodd" clip-rule="evenodd" d="M242.029 260.458C242.029 259.032 243.185 257.877 244.611 257.877H258.377C259.802 257.877 260.958 259.032 260.958 260.458C260.958 261.883 259.802 263.039 258.377 263.039H244.611C243.185 263.039 242.029 261.883 242.029 260.458Z" fill="#E0E0E0"/>
<path fill-rule="evenodd" clip-rule="evenodd" d="M242.029 270.783C242.029 269.357 243.185 268.201 244.611 268.201H251.494C252.919 268.201 254.075 269.357 254.075 270.783C254.075 272.208 252.919 273.364 251.494 273.364H244.611C243.185 273.364 242.029 272.208 242.029 270.783Z" fill="#E0E0E0"/>
<path d="M234.902 272.607H209.58C209.301 272.607 209.033 272.496 208.836 272.299C208.639 272.102 208.528 271.834 208.528 271.555V245.918C208.528 245.639 208.639 245.371 208.836 245.174C209.033 244.977 209.301 244.866 209.58 244.866C209.858 244.866 210.126 244.977 210.323 245.174C210.52 245.371 210.631 245.639 210.631 245.918V270.504H234.902C235.181 270.504 235.448 270.614 235.645 270.812C235.843 271.009 235.953 271.276 235.953 271.555C235.953 271.834 235.843 272.102 235.645 272.299C235.448 272.496 235.181 272.607 234.902 272.607Z" fill="#CFCFCF"/>
<path d="M214.191 268.542C213.842 268.542 213.508 268.403 213.261 268.157C213.015 267.91 212.876 267.576 212.876 267.227V257.421C212.876 257.073 213.015 256.738 213.261 256.492C213.508 256.245 213.842 256.107 214.191 256.107C214.539 256.107 214.874 256.245 215.12 256.492C215.367 256.738 215.505 257.073 215.505 257.421V267.227C215.505 267.576 215.367 267.91 215.12 268.157C214.874 268.403 214.539 268.542 214.191 268.542V268.542Z" fill="#B2DFFD"/>
<path d="M219.959 268.542C219.61 268.542 219.276 268.404 219.029 268.157C218.783 267.91 218.644 267.576 218.644 267.228V252.284C218.644 252.112 218.678 251.941 218.744 251.781C218.81 251.622 218.907 251.477 219.029 251.355C219.151 251.233 219.296 251.136 219.456 251.07C219.615 251.004 219.786 250.97 219.959 250.97C220.131 250.97 220.302 251.004 220.462 251.07C220.621 251.136 220.766 251.233 220.888 251.355C221.01 251.477 221.107 251.622 221.173 251.781C221.239 251.941 221.273 252.112 221.273 252.284V267.228C221.273 267.576 221.135 267.91 220.888 268.157C220.642 268.404 220.307 268.542 219.959 268.542V268.542Z" fill="#B2DFFD"/>
<path d="M231.495 268.542C231.146 268.542 230.812 268.404 230.565 268.157C230.319 267.911 230.18 267.577 230.18 267.228V250.634C230.18 250.285 230.319 249.951 230.565 249.704C230.812 249.458 231.146 249.319 231.495 249.319C231.843 249.319 232.178 249.458 232.424 249.704C232.671 249.951 232.809 250.285 232.809 250.634V267.228C232.81 267.401 232.776 267.572 232.711 267.732C232.645 267.892 232.548 268.037 232.426 268.159C232.304 268.281 232.158 268.378 231.999 268.444C231.839 268.51 231.668 268.543 231.495 268.542V268.542Z" fill="#0096FA"/>
<path d="M225.727 268.542C225.378 268.542 225.044 268.403 224.797 268.157C224.551 267.91 224.412 267.576 224.412 267.228V255.176C224.412 254.828 224.551 254.493 224.797 254.247C225.044 254 225.378 253.862 225.727 253.862C226.075 253.862 226.41 254 226.656 254.247C226.903 254.493 227.041 254.828 227.041 255.176V267.228C227.042 267.4 227.008 267.572 226.943 267.731C226.877 267.891 226.78 268.036 226.658 268.159C226.536 268.281 226.39 268.378 226.231 268.443C226.071 268.509 225.9 268.543 225.727 268.542Z" fill="#B2DFFD"/>
<path d="M183.169 198.507H62.8784C60.6071 198.507 58.7659 200.348 58.7659 202.619V278.239C58.7659 280.51 60.6071 282.351 62.8784 282.351H183.169C185.441 282.351 187.282 280.51 187.282 278.239V202.619C187.282 200.348 185.441 198.507 183.169 198.507Z" fill="#F6F6F6"/>
<path fill-rule="evenodd" clip-rule="evenodd" d="M66.4766 225.924C66.4766 224.504 67.6273 223.354 69.0469 223.354H75.9011C77.3206 223.354 78.4714 224.504 78.4714 225.924C78.4714 227.343 77.3206 228.494 75.9011 228.494H69.0469C67.6273 228.494 66.4766 227.343 66.4766 225.924Z" fill="#0096FA"/>
<path fill-rule="evenodd" clip-rule="evenodd" d="M80.1848 225.924C80.1848 224.504 81.3356 223.354 82.7551 223.354H117.026C118.446 223.354 119.596 224.504 119.596 225.924C119.596 227.343 118.446 228.494 117.026 228.494H82.7551C81.3356 228.494 80.1848 227.343 80.1848 225.924Z" fill="#0096FA"/>
<path fill-rule="evenodd" clip-rule="evenodd" d="M66.4766 253.34C66.4766 251.921 67.6273 250.77 69.0469 250.77H75.9011C77.3206 250.77 78.4714 251.921 78.4714 253.34C78.4714 254.76 77.3206 255.911 75.9011 255.911H69.0469C67.6273 255.911 66.4766 254.76 66.4766 253.34Z" fill="#FBCF23"/>
<path fill-rule="evenodd" clip-rule="evenodd" d="M80.1848 253.34C80.1848 251.921 81.3356 250.77 82.7551 250.77H117.026C118.446 250.77 119.596 251.921 119.596 253.34C119.596 254.76 118.446 255.911 117.026 255.911H82.7551C81.3356 255.911 80.1848 254.76 80.1848 253.34Z" fill="#FBCF23"/>
<path fill-rule="evenodd" clip-rule="evenodd" d="M66.4766 267.048C66.4766 265.628 67.6273 264.478 69.0469 264.478H75.9011C77.3206 264.478 78.4714 265.628 78.4714 267.048C78.4714 268.467 77.3206 269.618 75.9011 269.618H69.0469C67.6273 269.618 66.4766 268.467 66.4766 267.048Z" fill="#F6F6F6"/>
<path fill-rule="evenodd" clip-rule="evenodd" d="M80.1848 267.048C80.1848 265.628 81.3356 264.478 82.7551 264.478H147.87C149.289 264.478 150.44 265.628 150.44 267.048C150.44 268.467 149.289 269.618 147.87 269.618H82.7551C81.3356 269.618 80.1848 268.467 80.1848 267.048Z" fill="#F6F6F6"/>
<path fill-rule="evenodd" clip-rule="evenodd" d="M66.4766 239.633C66.4766 238.213 67.6273 237.062 69.0469 237.062H82.7553C84.1748 237.062 85.3256 238.213 85.3256 239.633C85.3256 241.052 84.1748 242.203 82.7553 242.203H69.0469C67.6273 242.203 66.4766 241.052 66.4766 239.633Z" fill="#FB4BC1"/>
<path fill-rule="evenodd" clip-rule="evenodd" d="M90.4663 239.633C90.4663 238.213 91.6171 237.062 93.0366 237.062H123.88C125.3 237.062 126.451 238.213 126.451 239.633C126.451 241.052 125.3 242.203 123.88 242.203H93.0366C91.6171 242.203 90.4663 241.052 90.4663 239.633Z" fill="#FB4BC1"/>
<path d="M70.1998 214.306C70.2816 214.374 70.3454 214.461 70.3856 214.559C70.4257 214.658 70.4409 214.764 70.4298 214.87C70.4389 214.977 70.4229 215.085 70.3829 215.185C70.343 215.285 70.2803 215.374 70.1998 215.445C70.0568 215.571 69.8727 215.641 69.682 215.641H68.7157C68.4882 215.66 68.2594 215.629 68.045 215.551C67.8306 215.473 67.6357 215.349 67.4738 215.188C67.3119 215.028 67.1868 214.834 67.1073 214.62C67.0277 214.406 66.9956 214.177 67.013 213.95V212.213C67.0298 211.985 66.9819 211.758 66.8749 211.557C66.8107 211.486 66.7326 211.429 66.6456 211.389C66.5585 211.35 66.4643 211.329 66.3687 211.327C66.2641 211.329 66.1601 211.309 66.0632 211.27C65.9663 211.23 65.8784 211.171 65.805 211.097C65.6799 210.936 65.6147 210.736 65.6209 210.533C65.6119 210.336 65.6777 210.143 65.805 209.992C65.9551 209.842 66.1568 209.756 66.3687 209.751C66.4643 209.749 66.5585 209.727 66.6456 209.688C66.7326 209.648 66.8107 209.591 66.8749 209.52C66.985 209.32 67.0331 209.092 67.013 208.865V207.082C67.0015 206.854 67.0363 206.627 67.1154 206.413C67.1945 206.199 67.3162 206.004 67.4732 205.839C67.8133 205.535 68.26 205.378 68.7157 205.402H69.682C69.8714 205.398 70.0557 205.463 70.1998 205.586C70.3462 205.742 70.4277 205.947 70.4277 206.161C70.4277 206.375 70.3462 206.581 70.1998 206.736C70.0527 206.854 69.8704 206.919 69.682 206.92H69.498C69.3742 206.913 69.2518 206.949 69.1528 207.024C69.1087 207.078 69.0759 207.141 69.0561 207.208C69.0364 207.275 69.0301 207.346 69.0378 207.415V209.118C69.0439 209.455 68.9343 209.784 68.7272 210.05C68.556 210.289 68.3086 210.464 68.0254 210.544C68.3098 210.616 68.559 210.787 68.7272 211.028C68.9343 211.293 69.0439 211.622 69.0378 211.959V213.651C69.0301 213.72 69.0364 213.791 69.0561 213.858C69.0759 213.925 69.1087 213.987 69.1528 214.042C69.2518 214.116 69.3742 214.153 69.498 214.145H69.682C69.8683 214.136 70.0519 214.193 70.1998 214.306Z" fill="#C7C7C7"/>
<path d="M78.9774 212.703C78.9776 212.824 78.9532 212.943 78.9057 213.054C78.8583 213.165 78.7887 213.265 78.7012 213.348C78.6161 213.44 78.5129 213.513 78.3981 213.563C78.2833 213.614 78.1593 213.639 78.034 213.639C77.9087 213.639 77.7847 213.614 77.6698 213.563C77.555 213.513 77.4518 213.44 77.3667 213.348L75.9977 211.933L74.6516 213.359C74.5666 213.451 74.4633 213.525 74.3485 213.575C74.2337 213.625 74.1097 213.651 73.9844 213.651C73.8591 213.651 73.7351 213.625 73.6202 213.575C73.5054 213.525 73.4022 213.451 73.3171 213.359C73.2297 213.276 73.1601 213.176 73.1126 213.066C73.0652 212.955 73.0408 212.835 73.041 212.715C73.047 212.467 73.1503 212.231 73.3286 212.059L74.7782 210.621L73.4437 209.321C73.2636 209.145 73.1603 208.905 73.1561 208.654C73.1558 208.533 73.1802 208.414 73.2277 208.303C73.2752 208.192 73.3447 208.093 73.4322 208.01C73.5123 207.918 73.6114 207.845 73.7226 207.795C73.8339 207.745 73.9546 207.72 74.0764 207.722C74.2075 207.722 74.3367 207.753 74.4543 207.81C74.5719 207.868 74.6748 207.952 74.7552 208.056L75.9977 209.321L77.2517 208.056C77.3389 207.958 77.4451 207.879 77.5637 207.824C77.6824 207.768 77.8111 207.738 77.942 207.733C78.1823 207.739 78.4114 207.836 78.5824 208.005C78.7535 208.174 78.8536 208.402 78.8623 208.642C78.8596 208.77 78.8318 208.895 78.7805 209.012C78.7291 209.128 78.6553 209.233 78.5632 209.321L77.2402 210.621L78.6898 212.059C78.8653 212.229 78.9684 212.46 78.9774 212.703Z" fill="#C7C7C7"/>
<path d="M85.2702 209.908C85.3374 209.98 85.3894 210.066 85.423 210.159C85.4566 210.251 85.4711 210.35 85.4658 210.449C85.4718 210.654 85.4022 210.855 85.2702 211.013C85.1982 211.086 85.1122 211.144 85.0173 211.183C84.9225 211.223 84.8207 211.243 84.718 211.243C84.6207 211.244 84.5247 211.265 84.4357 211.305C84.3468 211.345 84.2667 211.402 84.2003 211.473C84.0933 211.674 84.0455 211.901 84.0622 212.128V213.9C84.0835 214.128 84.0544 214.357 83.977 214.572C83.8995 214.787 83.7756 214.982 83.6141 215.143C83.4526 215.305 83.2575 215.429 83.0426 215.506C82.8278 215.583 82.5985 215.613 82.3711 215.591H81.4162C81.2182 215.594 81.0261 215.524 80.8755 215.396C80.7984 215.322 80.7388 215.232 80.701 215.133C80.6631 215.033 80.6481 214.927 80.6569 214.821C80.6473 214.716 80.662 214.611 80.6999 214.513C80.7379 214.415 80.798 214.327 80.8755 214.257C81.0261 214.128 81.2182 214.059 81.4162 214.061H81.5888C81.7125 214.069 81.835 214.032 81.9339 213.958C81.978 213.903 82.0109 213.841 82.0306 213.774C82.0504 213.706 82.0566 213.636 82.0489 213.567V211.875C82.0439 211.54 82.149 211.213 82.3481 210.943C82.5163 210.703 82.7654 210.532 83.0498 210.46C82.7666 210.38 82.5192 210.205 82.3481 209.966C82.149 209.696 82.0439 209.369 82.0489 209.034V207.377C82.0566 207.308 82.0504 207.237 82.0306 207.17C82.0109 207.103 81.978 207.04 81.9339 206.986C81.835 206.911 81.7125 206.874 81.5888 206.882H81.4162C81.2204 206.883 81.03 206.818 80.8755 206.698C80.734 206.54 80.6558 206.335 80.6558 206.123C80.6558 205.911 80.734 205.706 80.8755 205.548C81.0277 205.423 81.2197 205.358 81.4162 205.364H82.3711C82.8267 205.339 83.2735 205.497 83.6136 205.801C83.7685 205.967 83.8881 206.163 83.9652 206.376C84.0423 206.59 84.0753 206.817 84.0622 207.043V208.827C84.0422 209.054 84.0902 209.282 84.2003 209.482C84.2667 209.554 84.3468 209.611 84.4357 209.65C84.5247 209.69 84.6207 209.711 84.718 209.712C84.9198 209.708 85.1161 209.778 85.2702 209.908Z" fill="#C7C7C7"/>
<path opacity="0.3" d="M810.689 431.17C810.689 424.772 815.875 419.585 822.273 419.585H1001.83C1008.23 419.585 1013.42 424.772 1013.42 431.17V549.91C1013.42 556.308 1008.23 561.495 1001.83 561.495H822.273C815.876 561.495 810.689 556.308 810.689 549.91V431.17Z" fill="#B2DFFD"/>
<path opacity="0.3" d="M822.273 445.65C822.273 439.252 827.459 434.066 833.857 434.066H1013.42C1019.81 434.066 1025 439.252 1025 445.65V564.391C1025 570.789 1019.81 575.975 1013.42 575.975H833.857C827.459 575.975 822.273 570.789 822.273 564.391V445.65Z" fill="#B2DFFD"/>
<path d="M802 419.584C802 413.187 807.187 408 813.584 408H993.143C999.541 408 1004.73 413.187 1004.73 419.584V538.325C1004.73 544.723 999.541 549.909 993.143 549.909H813.584C807.187 549.909 802 544.723 802 538.325V419.584Z" fill="#F8FBFB"/>
<path d="M802 419.584C802 413.187 807.187 408 813.584 408H993.143C999.541 408 1004.73 413.187 1004.73 419.584V439.857H802V419.584Z" fill="#141414"/>
<path d="M941.832 469.339L941.832 509.624C941.832 513.112 944.66 515.94 948.149 515.94L980.814 515.94C984.303 515.94 987.131 513.112 987.131 509.624L987.131 469.339C987.131 465.85 984.303 463.022 980.814 463.022L948.149 463.022C944.66 463.022 941.832 465.85 941.832 469.339Z" fill="#F6F6F6"/>
<path d="M964.468 490.699C969.18 490.699 972.999 486.88 972.999 482.168C972.999 477.457 969.18 473.637 964.468 473.637C959.757 473.637 955.937 477.457 955.937 482.168C955.937 486.88 959.757 490.699 964.468 490.699Z" fill="#FCAA73"/>
<path fill-rule="evenodd" clip-rule="evenodd" d="M953.397 498.007C953.397 497.05 954.174 496.274 955.131 496.274H973.821C974.779 496.274 975.555 497.05 975.555 498.007C975.555 498.965 974.779 499.741 973.821 499.741H955.131C954.174 499.741 953.397 498.965 953.397 498.007Z" fill="#E0E0E0"/>
<path fill-rule="evenodd" clip-rule="evenodd" d="M956.614 505.327C956.614 504.37 957.39 503.594 958.347 503.594H970.59C971.548 503.594 972.324 504.37 972.324 505.327C972.324 506.285 971.548 507.061 970.59 507.061H958.347C957.39 507.061 956.614 506.285 956.614 505.327Z" fill="#E0E0E0"/>
<path d="M882.053 469.34L882.053 509.625C882.053 513.114 884.881 515.942 888.37 515.942L921.035 515.942C924.524 515.942 927.352 513.114 927.352 509.625L927.352 469.34C927.352 465.852 924.524 463.023 921.035 463.023L888.37 463.023C884.881 463.023 882.053 465.852 882.053 469.34Z" fill="#F6F6F6"/>
<path d="M904.689 490.701C909.401 490.701 913.22 486.881 913.22 482.17C913.22 477.458 909.401 473.639 904.689 473.639C899.978 473.639 896.158 477.458 896.158 482.17C896.158 486.881 899.978 490.701 904.689 490.701Z" fill="#F99F9F"/>
<path fill-rule="evenodd" clip-rule="evenodd" d="M893.618 498.007C893.618 497.05 894.395 496.274 895.352 496.274H914.042C915 496.274 915.776 497.05 915.776 498.007C915.776 498.965 915 499.741 914.042 499.741H895.352C894.395 499.741 893.618 498.965 893.618 498.007Z" fill="#E0E0E0"/>
<path fill-rule="evenodd" clip-rule="evenodd" d="M896.835 505.327C896.835 504.37 897.611 503.594 898.568 503.594H910.811C911.769 503.594 912.545 504.37 912.545 505.327C912.545 506.285 911.769 507.061 910.811 507.061H898.568C897.611 507.061 896.835 506.285 896.835 505.327Z" fill="#E0E0E0"/>
<path d="M822.273 469.339L822.273 509.624C822.273 513.112 825.101 515.94 828.59 515.94L861.255 515.94C864.744 515.94 867.572 513.112 867.572 509.624L867.572 469.339C867.572 465.85 864.744 463.022 861.255 463.022L828.59 463.022C825.101 463.022 822.273 465.85 822.273 469.339Z" fill="#F6F6F6"/>
<path d="M844.91 490.699C849.622 490.699 853.441 486.88 853.441 482.168C853.441 477.457 849.622 473.637 844.91 473.637C840.198 473.637 836.379 477.457 836.379 482.168C836.379 486.88 840.198 490.699 844.91 490.699Z" fill="#84EBBC"/>
<path fill-rule="evenodd" clip-rule="evenodd" d="M833.839 498.007C833.839 497.05 834.615 496.274 835.572 496.274H854.262C855.22 496.274 855.996 497.05 855.996 498.007C855.996 498.965 855.22 499.741 854.262 499.741H835.572C834.615 499.741 833.839 498.965 833.839 498.007Z" fill="#E0E0E0"/>
<path fill-rule="evenodd" clip-rule="evenodd" d="M837.055 505.327C837.055 504.37 837.831 503.594 838.788 503.594H851.031C851.989 503.594 852.765 504.37 852.765 505.327C852.765 506.285 851.989 507.061 851.031 507.061H838.788C837.831 507.061 837.055 506.285 837.055 505.327Z" fill="#E0E0E0"/>
<path d="M828.065 423.929C828.065 426.329 826.12 428.274 823.721 428.274C821.321 428.274 819.376 426.329 819.376 423.929C819.376 421.53 821.321 419.585 823.721 419.585C826.12 419.585 828.065 421.53 828.065 423.929Z" fill="#E60F0F"/>
<path d="M839.649 423.929C839.649 426.329 837.704 428.274 835.305 428.274C832.906 428.274 830.961 426.329 830.961 423.929C830.961 421.53 832.906 419.585 835.305 419.585C837.704 419.585 839.649 421.53 839.649 423.929Z" fill="#FCAA73"/>
<path d="M851.234 423.929C851.234 426.329 849.289 428.274 846.889 428.274C844.49 428.274 842.545 426.329 842.545 423.929C842.545 421.53 844.49 419.585 846.889 419.585C849.289 419.585 851.234 421.53 851.234 423.929Z" fill="#35DE90"/>
</g>
</g>
<defs>
<filter id="filter0_f_10272_1614" x="23.1406" y="1035" width="309" height="59" filterUnits="userSpaceOnUse" color-interpolation-filters="sRGB">
<feFlood flood-opacity="0" result="BackgroundImageFix"/>
<feBlend mode="normal" in="SourceGraphic" in2="BackgroundImageFix" result="shape"/>
<feGaussianBlur stdDeviation="7" result="effect1_foregroundBlur_10272_1614"/>
</filter>
<linearGradient id="paint0_linear_10272_1614" x1="437.418" y1="740.296" x2="284.756" y2="863.176" gradientUnits="userSpaceOnUse">
<stop offset="0.1453" stop-color="#35DE90"/>
<stop offset="0.953125" stop-color="#338554"/>
</linearGradient>
<linearGradient id="paint1_linear_10272_1614" x1="559.26" y1="287.372" x2="644.99" y2="266.441" gradientUnits="userSpaceOnUse">
<stop offset="0.479167" stop-color="#8C3A03"/>
</linearGradient>
<linearGradient id="paint2_linear_10272_1614" x1="512.337" y1="359.369" x2="470.349" y2="298.02" gradientUnits="userSpaceOnUse">
<stop offset="0.635417" stop-color="#F89A9A" stop-opacity="0"/>
<stop offset="1" stop-color="#753103"/>
</linearGradient>
<linearGradient id="paint3_linear_10272_1614" x1="706.418" y1="653.218" x2="583.909" y2="571.245" gradientUnits="userSpaceOnUse">
<stop stop-color="#C5D9FB"/>
<stop offset="0.1836" stop-color="#D9E4F9"/>
<stop offset="0.4073" stop-color="#E9EEF7"/>
<stop offset="0.66" stop-color="#F2F3F5"/>
<stop offset="1" stop-color="#F5F5F5"/>
</linearGradient>
<linearGradient id="paint4_linear_10272_1614" x1="533.879" y1="1208.23" x2="535.003" y2="505.236" gradientUnits="userSpaceOnUse">
<stop offset="0.108095" stop-color="#DAF2F4"/>
<stop offset="1" stop-color="#DAF2F4" stop-opacity="0"/>
</linearGradient>
<clipPath id="clip0_10272_1614">
<rect width="1080" height="1080" fill="white"/>
</clipPath>
<clipPath id="clip1_10272_1614">
<rect width="1080" height="1080" rx="8" fill="white"/>
</clipPath>
</defs>
</svg>
