<svg xmlns="http://www.w3.org/2000/svg" width="1080" height="1080" fill="none"><g clip-path="url(#a)"><g clip-path="url(#b)"><circle cx="824.5" cy="576.5" r="161.5" fill="#1968F0"/><circle cx="363" cy="410" r="332" fill="#E0E0E0" opacity=".3"/><circle cx="534.145" cy="224.988" r="205.988" fill="#141414"/><path fill="#F06305" d="M802.444 628.905c-7.379-45.164-37.05-82.163-77.174-96.329l-137.745-49.165V445.08H479.143v38.331l-17.525 6.333-120.219 42.832c-40.125 14.333-69.795 51.331-77.174 96.329l-45.044 272.822h628.307z"/><path fill="url(#c)" d="M355.539 701.736v199.492l162.034.666z"/><path fill="#8C3A03" fill-rule="evenodd" d="M485.118 164.593h-31.554l-9.393 12.166v239.323l9.393 12.166h22.272v47.998h109.996v-47.998h20.716l9.282-12.166V176.759l-9.282-12.166h-121.43" clip-rule="evenodd"/><path fill="#8C3A03" d="M418.57 367.917h40.602v-63.33h-54.998v48.97c0 7.917 6.46 14.36 14.396 14.36M639.764 367.917h-40.602v-63.33h54.998v48.97c0 7.917-6.46 14.36-14.396 14.36"/><path fill="#8C3A03" d="M609.499 362.416h-33.332v-52.165h45.165v40.498c0 6.5-5.334 11.667-11.833 11.667"/><path fill="url(#d)" d="M567.67 426.081h27.332v-63.664H567.67z"/><path fill="url(#e)" d="M518.835 428.085h-41.499v16.666h41.499z"/><path fill="#F06305" d="M460.606 460.788h141.661v54.998H460.606zM672.403 753.993l-23.228-140.915 161.82-9.291 36.391 150.206z"/><path fill="#F06305" d="M814.092 626.243c0 54.307-44.024 98.331-98.331 98.331-54.306 0-98.331-44.024-98.331-98.331 0-54.306 44.025-98.331 98.331-98.331s98.331 44.025 98.331 98.331"/><path fill="#8C3A03" fill-rule="evenodd" d="m837.994 751.362 20.54 116.754a96.6 96.6 0 0 1 2.632 22.459c0 53.195-43.122 96.318-96.317 96.318-3.714 0-7.379-.211-10.983-.62h-315.7V828.324h249.176l-13.336-76.962z" clip-rule="evenodd"/><path fill="url(#f)" d="m671.273 639.826-92.048 3.77c-5.759.209-10.262 5.131-10.053 10.891l1.99 48.694c.209 5.759 5.131 10.262 10.891 10.053l92.047-3.77c5.76-.21 10.263-5.131 10.053-10.891l-1.989-48.694c-.21-5.864-5.131-10.367-10.891-10.053"/><path fill="#C5D9FB" d="M604.145 701.083c12.492 0 22.619-10.127 22.619-22.619s-10.127-22.619-22.619-22.619c-12.493 0-22.619 10.127-22.619 22.619s10.126 22.619 22.619 22.619"/><path fill="#1968F0" d="M604.164 679.696c4.45-.181 7.923-3.608 7.757-7.653-.165-4.046-3.906-7.177-8.356-6.995s-7.923 3.608-7.757 7.653c.165 4.046 3.906 7.177 8.356 6.995M605.09 701.085a21.7 21.7 0 0 0 15.708-7.54c-2.618-6.492-9.111-10.995-16.441-10.681-7.435.314-13.509 5.341-15.603 12.043 4.189 3.979 9.948 6.387 16.336 6.178M671.482 688.205l-32.672 1.362c-1.885.105-3.56-1.361-3.56-3.351l-.314-8.692c-.105-1.885 1.361-3.56 3.351-3.56l32.672-1.362c1.885-.104 3.56 1.362 3.56 3.351l.314 8.692c.105 1.885-1.466 3.456-3.351 3.56"/><path fill="#C5D9FB" d="m656.194 669.358-19.791.838c-1.048 0-1.885-.733-1.885-1.781l-.105-1.885c0-1.047.733-1.885 1.78-1.885l19.792-.837c1.047 0 1.885.733 1.885 1.78l.105 1.885c0 1.047-.733 1.885-1.781 1.885"/><path fill="#A3A3A3" d="m645.605 632.913-41.741 1.709c-1.779.107-3.034 1.602-3.034 3.311l.314 8.544a3.246 3.246 0 0 0 3.243 3.097l41.741-1.709c1.778-.107 3.033-1.602 3.033-3.311l-.313-8.544c0-1.815-1.465-3.203-3.243-3.097"/><path fill="#F06305" d="m396.205 753.993 23.227-140.915-161.82-9.291-36.39 150.206z"/><path fill="#F06305" d="M254.516 626.243c0 54.307 44.024 98.331 98.33 98.331 54.307 0 98.331-44.024 98.331-98.331 0-54.306-44.024-98.331-98.331-98.331-54.306 0-98.33 44.025-98.33 98.331"/><path fill="#8C3A03" fill-rule="evenodd" d="m230.611 751.362-20.54 116.755a96.6 96.6 0 0 0-2.632 22.458c0 42.819 27.941 79.112 66.586 91.641v4.057h18.749c3.604.409 7.269.62 10.983.62 3.713 0 7.378-.211 10.982-.62h287.572V828.324H381.263l13.336-76.962z" clip-rule="evenodd"/><path fill="url(#g)" d="m867.486 427.915-93.901 619.975H294.499l-91.985-619.975z"/><path fill="#0C4EC0" fill-rule="evenodd" d="M400.424 789.565h-147.26c-7.739 0-13.582 7.106-12.161 14.685l48.961 252.02c1.263 5.84 6.317 9.95 12.161 9.95h464.082c5.843 0 10.897-4.11 12.161-9.95l48.96-252.02c1.422-7.579-4.422-14.685-12.161-14.685H400.424" clip-rule="evenodd"/><path fill="#0096FA" d="M541.899 883.304c-31.02 0-47.659 11.703-47.659 42.16 0 27.213 14.101 48.223 47.659 48.223h2.539v13.395c0 1.128.846 2.115 2.115 2.115.987 0 1.269-.423 2.115-1.128 5.922-5.076 23.406-21.01 23.406-21.01 8.742-8.319 17.484-18.189 17.484-41.595 0-30.457-16.638-42.16-47.659-42.16"/><path fill="#141414" d="M443.545 154.9h176.927v49.574H443.545z"/><g filter="url(#h)" opacity=".2"><path fill="#0A0F1A" d="M1098.14 1042.5c0 8.56-62.9 15.5-140.499 15.5-77.596 0-140.5-6.94-140.5-15.5s62.904-15.5 140.5-15.5c77.599 0 140.499 6.94 140.499 15.5"/></g><path fill="#F5F8F9" d="M1042.6 928.095H850.221v-52.368H1042.6a23.93 23.93 0 0 1 16.91 7.003 23.93 23.93 0 0 1 7 16.909v4.623a23.905 23.905 0 0 1-23.91 23.833"/><path fill="#1968F0" fill-rule="evenodd" d="M1053.87 884.315H842.61V872h217.75c13.65 0 12.31 10.028 12.31 23.654v11.079c0 13.764 1.36 23.654-12.31 23.654H842.61v-12.315h211.26c8.4 0 6.49-5.813 6.49-11.339v-11.079c0-5.425 1.85-11.339-6.49-11.339" clip-rule="evenodd"/><path fill="#F5F8F9" d="M1042.6 1043.86H850.221v-52.365H1042.6c6.34 0 12.42 2.519 16.91 7.004a23.93 23.93 0 0 1 7 16.911v4.62a23.92 23.92 0 0 1-7.03 16.86 23.89 23.89 0 0 1-16.88 6.97"/><path fill="#454545" fill-rule="evenodd" d="M1053.87 1000.08H842.61v-12.311h217.75c13.65 0 12.31 10.027 12.31 23.651v11.08c0 13.77 1.36 23.66-12.31 23.66H842.61v-12.32h211.26c8.4 0 6.49-5.81 6.49-11.34v-11.08c0-5.42 1.85-11.34-6.49-11.34" clip-rule="evenodd"/><path fill="#F5F8F9" d="M1016.99 985.413H824.611v-52.369h192.379c6.34 0 12.42 2.52 16.91 7.004a23.93 23.93 0 0 1 7 16.909v4.623a23.905 23.905 0 0 1-23.91 23.833"/><path fill="#0096FA" fill-rule="evenodd" d="M1028.26 941.633H817v-12.315h217.75c13.65 0 12.31 10.027 12.31 23.654v11.079c0 13.764 1.36 23.654-12.31 23.654H817V975.39h211.26c8.4 0 6.49-5.813 6.49-11.339v-11.079c0-5.425 1.85-11.339-6.49-11.339" clip-rule="evenodd"/><g filter="url(#i)" opacity=".2"><path fill="#0A0F1A" d="M253 1049.05c0 7.87-33.803 14.26-75.5 14.26s-75.5-6.39-75.5-14.26c0-7.88 33.802-14.27 75.5-14.27s75.5 6.39 75.5 14.27"/></g><path fill="#C5D9FB" d="M167.232 958.256c9.478 0 17.161-7.685 17.161-17.163s-7.683-17.161-17.161-17.161-17.161 7.683-17.161 17.161 7.683 17.163 17.161 17.163"/><path fill="#C5D9FB" d="M193.987 954.379c6.319 0 11.441-5.123 11.441-11.442 0-6.318-5.122-11.439-11.441-11.439-6.318 0-11.441 5.121-11.441 11.439 0 6.319 5.123 11.442 11.441 11.442M185.309 918.213c6.828 0 12.364-5.536 12.364-12.364s-5.536-12.364-12.364-12.364-12.362 5.536-12.362 12.364 5.534 12.364 12.362 12.364"/><path fill="#C5D9FB" d="M174.056 906.587c7.848 0 14.21-6.362 14.21-14.209s-6.362-14.209-14.21-14.209c-7.847 0-14.209 6.362-14.209 14.209s6.362 14.209 14.209 14.209M197.858 870.604c5.3 0 9.594-4.296 9.594-9.596s-4.294-9.596-9.594-9.596-9.596 4.297-9.596 9.596 4.297 9.596 9.596 9.596"/><path fill="#35DE90" d="M217.42 1047.75h-79.348c-6.09 0-11.072-4.98-11.072-11.07v-84.33c0-6.089 4.982-11.072 11.072-11.072h79.348c6.089 0 11.072 4.983 11.072 11.072v84.33c0 6.09-4.983 11.07-11.072 11.07"/><path fill="#35DE90" d="M225.355 1033.91v-14.21c12.917 0 23.436-10.52 23.436-23.433 0-12.917-10.519-23.435-23.436-23.435v-14.209c20.668 0 37.645 16.793 37.645 37.644 0 20.853-16.793 37.643-37.645 37.643"/><path fill="#B2DFFD" d="M724.843 426.156c0-6.512 5.279-11.792 11.792-11.792h182.779c6.513 0 11.793 5.28 11.793 11.792v120.871c0 6.512-5.28 11.792-11.793 11.792H736.635c-6.513 0-11.792-5.28-11.792-11.792z" opacity=".3"/><path fill="#B2DFFD" d="M736.637 440.897c0-6.513 5.279-11.793 11.792-11.793h182.779c6.513 0 11.793 5.28 11.793 11.793v120.87c0 6.513-5.28 11.792-11.793 11.792H748.429c-6.513 0-11.792-5.279-11.792-11.792z" opacity=".3"/><path fill="#F6F6F6" d="M716 414.364c0-6.513 5.28-11.792 11.792-11.792h182.78c6.512 0 11.792 5.279 11.792 11.792v120.87c0 6.513-5.28 11.793-11.792 11.793h-182.78c-6.512 0-11.792-5.28-11.792-11.793z"/><path fill="#141414" d="M716 414.364c0-6.513 5.28-11.792 11.792-11.792h182.78c6.512 0 11.792 5.279 11.792 11.792V435H716z"/><path fill="#A80B0B" d="M742.533 418.786a4.422 4.422 0 1 1-8.845 0 4.422 4.422 0 0 1 8.845 0"/><path fill="#F06305" d="M754.325 418.786a4.422 4.422 0 1 1-8.845 0 4.422 4.422 0 0 1 8.845 0"/><path fill="#4DCB7B" d="M766.116 418.786a4.422 4.422 0 1 1-8.845 0 4.422 4.422 0 0 1 8.845 0"/><path fill="#E0E0E0" d="M834.807 452.69H731.33a3.54 3.54 0 0 0-3.538 3.538v65.049a3.54 3.54 0 0 0 3.538 3.538h103.477a3.54 3.54 0 0 0 3.537-3.538v-65.049a3.54 3.54 0 0 0-3.537-3.538"/><path fill="#0096FA" d="M781.728 476.275a12.678 12.678 0 1 0 12.689 12.677 12.69 12.69 0 0 0-12.689-12.677" opacity=".7"/><path fill="#F6F6F6" d="M779.738 494.552a.94.94 0 0 0 .158.54.9.9 0 0 0 .436.344.88.88 0 0 0 1.01-.291l1.74-2.119 2.85-3.481a.94.94 0 0 0 0-1.186l-2.85-3.481-1.74-2.119a.888.888 0 0 0-1.446.054.94.94 0 0 0-.158.539zM907.033 452.689h-57.782a3.54 3.54 0 0 0-3.538 3.538v63.678a3.54 3.54 0 0 0 3.538 3.537h57.782a3.537 3.537 0 0 0 3.537-3.537v-63.678a3.537 3.537 0 0 0-3.537-3.538"/><path fill="#E0E0E0" fill-rule="evenodd" d="M852.351 464.481a2.21 2.21 0 0 1 2.211-2.211h45.694a2.21 2.21 0 1 1 0 4.422h-45.694a2.21 2.21 0 0 1-2.211-2.211M852.351 473.323c0-1.221.99-2.211 2.211-2.211h45.694a2.211 2.211 0 1 1 0 4.422h-45.694a2.21 2.21 0 0 1-2.211-2.211M852.351 482.171c0-1.221.99-2.211 2.211-2.211h45.694a2.211 2.211 0 1 1 0 4.422h-45.694a2.21 2.21 0 0 1-2.211-2.211M852.351 502.806c0-1.221.99-2.211 2.211-2.211h45.694a2.211 2.211 0 1 1 0 4.422h-45.694a2.21 2.21 0 0 1-2.211-2.211M852.351 511.65c0-1.221.99-2.211 2.211-2.211h45.694a2.211 2.211 0 1 1 0 4.422h-45.694a2.21 2.21 0 0 1-2.211-2.211M852.351 491.014c0-1.222.99-2.212 2.211-2.212h26.532a2.211 2.211 0 0 1 0 4.423h-26.532a2.21 2.21 0 0 1-2.211-2.211" clip-rule="evenodd"/><path fill="#B2DFFD" d="M35.932 144.484c0-7.313 5.929-13.241 13.241-13.241h205.24c7.313 0 13.241 5.928 13.241 13.241v135.723c0 7.313-5.928 13.241-13.241 13.241H49.173c-7.312 0-13.24-5.928-13.24-13.241z" opacity=".3"/><path fill="#B2DFFD" d="M49.173 161.036c0-7.313 5.928-13.242 13.241-13.242h205.24c7.313 0 13.241 5.929 13.241 13.242v135.723c0 7.313-5.928 13.241-13.241 13.241H62.414c-7.313 0-13.241-5.928-13.241-13.241z" opacity=".3"/><path fill="#F8FBFB" d="M26 131.241C26 123.928 31.928 118 39.241 118h205.24c7.313 0 13.241 5.928 13.241 13.241v135.723c0 7.313-5.928 13.242-13.241 13.242H39.241c-7.313 0-13.241-5.929-13.241-13.242z"/><path fill="#141414" d="M26 131.241C26 123.928 31.928 118 39.241 118h205.24c7.313 0 13.241 5.928 13.241 13.241v23.172H26z"/><path fill="#F6F6F6" d="M185.829 188.111v46.046a7.22 7.22 0 0 0 7.221 7.22h37.337a7.22 7.22 0 0 0 7.22-7.22v-46.046a7.22 7.22 0 0 0-7.22-7.22H193.05a7.22 7.22 0 0 0-7.221 7.22"/><path fill="#FCAA73" d="M211.703 212.527c5.386 0 9.751-4.366 9.751-9.751a9.75 9.75 0 0 0-9.751-9.751c-5.385 0-9.751 4.365-9.751 9.751s4.366 9.751 9.751 9.751"/><path fill="#E0E0E0" fill-rule="evenodd" d="M199.05 220.881c0-1.095.887-1.982 1.982-1.982h21.363a1.981 1.981 0 0 1 0 3.963h-21.363a1.98 1.98 0 0 1-1.982-1.981M202.725 229.248c0-1.095.887-1.982 1.981-1.982H218.7a1.982 1.982 0 1 1 0 3.963h-13.994a1.98 1.98 0 0 1-1.981-1.981" clip-rule="evenodd"/><path fill="#F6F6F6" d="M117.501 188.114v46.046a7.22 7.22 0 0 0 7.221 7.22h37.337a7.22 7.22 0 0 0 7.22-7.22v-46.046a7.22 7.22 0 0 0-7.22-7.221h-37.337a7.22 7.22 0 0 0-7.221 7.221"/><path fill="#F99F9F" d="M143.375 212.529a9.75 9.75 0 0 0 9.751-9.751c0-5.385-4.365-9.751-9.751-9.751s-9.751 4.366-9.751 9.751c0 5.386 4.366 9.751 9.751 9.751"/><path fill="#E0E0E0" fill-rule="evenodd" d="M130.722 220.881c0-1.095.887-1.982 1.982-1.982h21.363a1.981 1.981 0 0 1 0 3.963h-21.363a1.98 1.98 0 0 1-1.982-1.981M134.397 229.248c0-1.094.887-1.981 1.981-1.981h13.994a1.981 1.981 0 1 1 0 3.963h-13.994a1.98 1.98 0 0 1-1.981-1.982" clip-rule="evenodd"/><path fill="#F6F6F6" d="M49.171 188.111v46.046a7.22 7.22 0 0 0 7.22 7.22H93.73a7.22 7.22 0 0 0 7.22-7.22v-46.046a7.22 7.22 0 0 0-7.22-7.22H56.392a7.22 7.22 0 0 0-7.22 7.22"/><path fill="#84EBBC" d="M75.045 212.527c5.386 0 9.751-4.366 9.751-9.751 0-5.386-4.365-9.751-9.75-9.751-5.386 0-9.752 4.365-9.752 9.751s4.366 9.751 9.751 9.751"/><path fill="#E0E0E0" fill-rule="evenodd" d="M62.392 220.881c0-1.095.887-1.982 1.982-1.982h21.363a1.982 1.982 0 1 1 0 3.963H64.374a1.98 1.98 0 0 1-1.982-1.981M66.067 229.248c0-1.095.887-1.982 1.981-1.982h13.994a1.982 1.982 0 1 1 0 3.963H68.048a1.98 1.98 0 0 1-1.981-1.981" clip-rule="evenodd"/><path fill="#E60F0F" d="M55.793 136.208a4.966 4.966 0 1 1-9.93 0 4.966 4.966 0 0 1 9.93 0"/><path fill="#FCAA73" d="M69.034 136.208a4.966 4.966 0 1 1-9.931.001 4.966 4.966 0 0 1 9.931-.001"/><path fill="#35DE90" d="M82.275 136.208a4.966 4.966 0 1 1-9.931.001 4.966 4.966 0 0 1 9.93-.001"/></g></g><defs><linearGradient id="c" x1="451.594" x2="321.11" y1="787.646" y2="892.674" gradientUnits="userSpaceOnUse"><stop offset=".145" stop-color="#F06305"/><stop offset=".953" stop-color="#6C2C00"/></linearGradient><linearGradient id="d" x1="555.735" x2="629.011" y1="400.523" y2="382.633" gradientUnits="userSpaceOnUse"><stop offset=".479" stop-color="#8C3A03"/></linearGradient><linearGradient id="e" x1="515.629" x2="479.741" y1="462.061" y2="409.624" gradientUnits="userSpaceOnUse"><stop offset=".635" stop-color="#F89A9A" stop-opacity="0"/><stop offset="1" stop-color="#753103"/></linearGradient><linearGradient id="f" x1="681.515" x2="576.804" y1="713.219" y2="643.155" gradientUnits="userSpaceOnUse"><stop stop-color="#C5D9FB"/><stop offset=".184" stop-color="#D9E4F9"/><stop offset=".407" stop-color="#E9EEF7"/><stop offset=".66" stop-color="#F2F3F5"/><stop offset="1" stop-color="#F5F5F5"/></linearGradient><linearGradient id="g" x1="534.042" x2="535.003" y1="1187.6" y2="586.736" gradientUnits="userSpaceOnUse"><stop offset=".108" stop-color="#DAF2F4"/><stop offset="1" stop-color="#DAF2F4" stop-opacity="0"/></linearGradient><clipPath id="a"><path fill="#fff" d="M0 0h1080v1080H0z"/></clipPath><clipPath id="b"><rect width="1080" height="1080" fill="#fff" rx="8"/></clipPath><filter id="h" width="309" height="59" x="803.141" y="1013" color-interpolation-filters="sRGB" filterUnits="userSpaceOnUse"><feFlood flood-opacity="0" result="BackgroundImageFix"/><feBlend in="SourceGraphic" in2="BackgroundImageFix" result="shape"/><feGaussianBlur result="effect1_foregroundBlur_10272_1616" stdDeviation="7"/></filter><filter id="i" width="179" height="56.536" x="88" y="1020.78" color-interpolation-filters="sRGB" filterUnits="userSpaceOnUse"><feFlood flood-opacity="0" result="BackgroundImageFix"/><feBlend in="SourceGraphic" in2="BackgroundImageFix" result="shape"/><feGaussianBlur result="effect1_foregroundBlur_10272_1616" stdDeviation="7"/></filter></defs></svg>