<svg xmlns="http://www.w3.org/2000/svg" width="1080" height="1080" viewBox="0 0 1080 1080" fill="none"><g clip-path="url(#a)"><g clip-path="url(#b)"><circle cx="861.5" cy="473.5" r="161.5" fill="#1968F0"/><circle cx="359.5" cy="366.5" r="339.5" fill="#E0E0E0" opacity=".3"/><path fill="#35DE90" d="M847.902 554.573c-8.634-52.841-43.347-96.129-90.292-112.703l-161.158-57.521v-44.847H469.648v44.847l-20.504 7.41-140.653 50.111c-46.945 16.769-81.658 60.057-90.292 112.703l-52.7 319.195h735.103z"/><path fill="url(#c)" d="M325.036 639.783v233.401l189.576.779z"/><path fill="#8C3A03" fill-rule="evenodd" d="M476.64 11.34h-36.918l-10.99 14.234v280.002l10.99 14.234h26.058v56.156h128.692V319.81h24.238l10.86-14.234V25.574L618.71 11.34H476.64" clip-rule="evenodd"/><path fill="#8C3A03" d="M398.779 249.224h47.503v-74.095h-64.345v57.294c0 9.262 7.557 16.801 16.842 16.801M657.573 249.224h-47.504v-74.095h64.346v57.294c0 9.262-7.557 16.801-16.842 16.801"/><path fill="#010101" d="m627.908 11 14.125 14.276.967 160.942-1.161.782L500.978 43.853 429 131.462V25.276L443.125 11z"/><path fill="#8C3A03" d="M622.162 242.787h-38.998v-61.031h52.842v47.382c0 7.604-6.24 13.649-13.844 13.649"/><path fill="url(#d)" d="M573.223 317.274h31.978v-74.485h-31.978z"/><path fill="url(#e)" d="M516.088 319.619h-48.552v19.499h48.552z"/><path fill="#35DE90" d="M447.962 357.881h165.739v64.346H447.962zM695.759 700.923l-27.176-164.867 189.325-10.87 42.576 175.737z"/><path fill="#35DE90" d="M861.532 551.459c0 63.537-51.508 115.044-115.045 115.044s-115.045-51.507-115.045-115.044 51.508-115.045 115.045-115.045 115.045 51.507 115.045 115.045"/><path fill="#8C3A03" fill-rule="evenodd" d="m889.496 697.844 24.032 136.6a113 113 0 0 1 3.079 26.275c0 62.237-50.452 112.69-112.689 112.69-4.345 0-8.632-.246-12.849-.725H421.708V787.888h291.529l-15.603-90.044z" clip-rule="evenodd"/><path fill="url(#f)" d="m694.435 567.35-107.693 4.411c-6.739.245-12.007 6.003-11.762 12.742l2.328 56.971c.245 6.738 6.003 12.006 12.742 11.761l107.693-4.41c6.738-.245 12.007-6.004 11.762-12.742l-2.328-56.971c-.245-6.861-6.003-12.129-12.742-11.762"/><path fill="#C5D9FB" d="M615.897 639.02c14.616 0 26.464-11.849 26.464-26.464 0-14.616-11.848-26.464-26.464-26.464s-26.463 11.848-26.463 26.464 11.848 26.464 26.463 26.464"/><path fill="#1968F0" d="M615.919 613.998c5.206-.213 9.27-4.222 9.076-8.955s-4.571-8.397-9.777-8.184-9.269 4.222-9.076 8.955c.194 4.732 4.571 8.396 9.777 8.184M617.003 639.022c7.352-.245 13.968-3.676 18.378-8.822-3.063-7.596-10.659-12.864-19.235-12.496-8.699.367-15.805 6.248-18.255 14.089 4.9 4.656 11.639 7.474 19.112 7.229M694.681 623.953l-38.226 1.592c-2.205.123-4.165-1.592-4.165-3.92l-.368-10.169c-.122-2.205 1.593-4.166 3.921-4.166l38.225-1.592c2.206-.123 4.166 1.592 4.166 3.92l.368 10.169c.122 2.205-1.716 4.043-3.921 4.166"/><path fill="#C5D9FB" d="m676.794 601.901-23.156.981c-1.225 0-2.205-.858-2.205-2.083l-.122-2.206c0-1.225.857-2.205 2.082-2.205l23.156-.98c1.225 0 2.206.858 2.206 2.083l.122 2.205c0 1.226-.858 2.205-2.083 2.205"/><path fill="#A3A3A3" d="m664.404 559.263-48.835 1.999c-2.081.125-3.549 1.874-3.549 3.873l.367 9.996a3.797 3.797 0 0 0 3.794 3.624l48.835-1.999c2.081-.125 3.55-1.875 3.55-3.874l-.367-9.996c0-2.124-1.714-3.748-3.795-3.623"/><path fill="#35DE90" d="m372.613 700.923 27.176-164.867-189.325-10.87-42.576 175.737z"/><path fill="#35DE90" d="M206.84 551.459c0 63.537 51.507 115.044 115.044 115.044s115.045-51.507 115.045-115.044-51.507-115.045-115.045-115.045c-63.537 0-115.044 51.507-115.044 115.045"/><path fill="#8C3A03" fill-rule="evenodd" d="m178.873 697.844-24.031 136.6a113 113 0 0 0-3.08 26.275c0 50.098 32.691 92.56 77.904 107.219v4.746h21.936c4.217.479 8.505.725 12.849.725 4.345 0 8.633-.246 12.85-.725h336.451V787.888h-258.62l15.603-90.044z" clip-rule="evenodd"/><path fill="url(#g)" d="m924 319.42-109.862 725.35H253.62L146 319.42z"/><path fill="#0C4EC0" fill-rule="evenodd" d="M377.551 742.541h-172.29c-9.055 0-15.892 8.313-14.229 17.181l57.283 294.858c1.478 6.84 7.391 11.64 14.228 11.64h542.964c6.837 0 12.75-4.8 14.228-11.64l57.282-294.858c1.663-8.868-5.173-17.181-14.228-17.181H377.551" clip-rule="evenodd"/><path fill="#0096FA" d="M543.072 852.213c-36.293 0-55.76 13.692-55.76 49.326 0 31.839 16.497 56.419 55.76 56.419h2.97v15.673c0 1.319.99 2.474 2.474 2.474 1.155 0 1.485-.495 2.475-1.32 6.929-5.939 27.385-24.58 27.385-24.58 10.228-9.733 20.456-21.281 20.456-48.666 0-35.634-19.466-49.326-55.76-49.326"/><path fill="#FBCF23" fill-rule="evenodd" d="M588.466 161.783c-16.984 0-30.751 13.768-30.751 30.751 0 16.984 13.767 30.751 30.751 30.751 16.983 0 30.751-13.767 30.751-30.751 0-16.983-13.768-30.751-30.751-30.751m-37.534 30.751c0-20.729 16.804-37.534 37.534-37.534C609.195 155 626 171.805 626 192.534c0 20.73-16.805 37.534-37.534 37.534-20.73 0-37.534-16.804-37.534-37.534" clip-rule="evenodd"/><path fill="#FBCF23" fill-rule="evenodd" d="M528.775 175.123c-9.572 0-17.917 4.264-23.643 11.013a3.391 3.391 0 1 1-5.172-4.389c6.936-8.174 17.132-13.407 28.815-13.407 11.708 0 22.123 5.48 29.041 13.633a3.392 3.392 0 0 1-5.172 4.389c-5.744-6.769-14.323-11.239-23.869-11.239" clip-rule="evenodd"/><path fill="#FBCF23" fill-rule="evenodd" d="M469.534 161.783c-16.983 0-30.751 13.768-30.751 30.751 0 16.984 13.768 30.751 30.751 30.751 16.984 0 30.751-13.767 30.751-30.751 0-16.983-13.767-30.751-30.751-30.751M432 192.534C432 171.805 448.805 155 469.534 155c20.73 0 37.534 16.805 37.534 37.534 0 20.73-16.804 37.534-37.534 37.534-20.729 0-37.534-16.804-37.534-37.534" clip-rule="evenodd"/><g filter="url(#h)" opacity=".2"><path fill="#0A0F1A" d="M318.141 1064.5c0 8.56-62.904 15.5-140.5 15.5s-140.5-6.94-140.5-15.5 62.904-15.5 140.5-15.5 140.5 6.94 140.5 15.5"/></g><path fill="#F5F8F9" d="M262.599 950.095H70.221v-52.368H262.6a23.914 23.914 0 0 1 23.913 23.912v4.623a23.913 23.913 0 0 1-23.913 23.833"/><path fill="#1968F0" fill-rule="evenodd" d="M273.866 906.315H62.61V894h217.746c13.655 0 12.315 10.028 12.315 23.654v11.079c0 13.764 1.36 23.654-12.315 23.654H62.61v-12.315h211.256c8.405 0 6.49-5.813 6.49-11.339v-11.079c0-5.425 1.854-11.339-6.49-11.339" clip-rule="evenodd"/><path fill="#F5F8F9" d="M262.599 1065.86H70.221v-52.36H262.6a23.91 23.91 0 0 1 23.913 23.91v4.62a23.92 23.92 0 0 1-7.032 16.86 23.9 23.9 0 0 1-16.881 6.97"/><path fill="#454545" fill-rule="evenodd" d="M273.866 1022.08H62.61v-12.31h217.746c13.655 0 12.315 10.03 12.315 23.65v11.08c0 13.77 1.36 23.66-12.315 23.66H62.61v-12.32h211.256c8.405 0 6.49-5.81 6.49-11.34v-11.08c0-5.42 1.854-11.34-6.49-11.34" clip-rule="evenodd"/><path fill="#F5F8F9" d="M236.989 1007.41H44.611v-52.366h192.378a23.916 23.916 0 0 1 23.913 23.913v4.623a23.93 23.93 0 0 1-7.032 16.86 23.94 23.94 0 0 1-16.881 6.97"/><path fill="#0096FA" fill-rule="evenodd" d="M248.256 963.633H37v-12.315h217.745c13.656 0 12.315 10.027 12.315 23.654v11.079c0 13.764 1.36 23.649-12.315 23.649H37v-12.31h211.256c8.404 0 6.489-5.813 6.489-11.339v-11.079c0-5.425 1.855-11.339-6.489-11.339" clip-rule="evenodd"/><path fill="#B2DFFD" d="M55.325 167.532c0-7.603 6.163-13.766 13.766-13.766h213.377c7.603 0 13.766 6.163 13.766 13.766v141.104c0 7.603-6.163 13.767-13.766 13.767H69.091c-7.603 0-13.766-6.164-13.766-13.767z" opacity=".3"/><path fill="#E0E0E0" d="M45 153.766C45 146.163 51.163 140 58.766 140h213.377c7.603 0 13.766 6.163 13.766 13.766V294.87c0 7.603-6.163 13.767-13.766 13.767H58.766c-7.603 0-13.766-6.164-13.766-13.767z"/><path fill="#141414" d="M45 153.766C45 146.163 51.163 140 58.766 140h213.377c7.603 0 13.766 6.163 13.766 13.766v24.091H45z"/><path fill="#FF5A60" d="M75.974 158.928a5.162 5.162 0 1 1-10.325.001 5.162 5.162 0 0 1 10.325-.001"/><path fill="#FBCF23" d="M89.74 158.928a5.162 5.162 0 1 1-10.324.001 5.162 5.162 0 0 1 10.324-.001"/><path fill="#84EBBC" d="M103.506 158.928a5.162 5.162 0 1 1-10.324.002 5.162 5.162 0 0 1 10.324-.002"/><path fill="#F6F6F6" d="M268.013 198.506h-67.455a4.13 4.13 0 0 0-4.13 4.13v74.338a4.13 4.13 0 0 0 4.13 4.13h67.455a4.13 4.13 0 0 0 4.13-4.13v-74.338a4.13 4.13 0 0 0-4.13-4.13"/><path fill="#E0E0E0" fill-rule="evenodd" d="M204.172 212.275a2.58 2.58 0 0 1 2.582-2.581h55.065a2.582 2.582 0 0 1 0 5.162h-55.065a2.58 2.58 0 0 1-2.582-2.581M204.172 222.6a2.58 2.58 0 0 1 2.582-2.581h55.065a2.58 2.58 0 1 1 0 5.162h-55.065a2.58 2.58 0 0 1-2.582-2.581M204.172 232.925a2.58 2.58 0 0 1 2.582-2.581h55.065a2.58 2.58 0 1 1 0 5.162h-55.065a2.58 2.58 0 0 1-2.582-2.581M242.029 250.133a2.58 2.58 0 0 1 2.581-2.581h17.208a2.58 2.58 0 1 1 0 5.162H244.61a2.58 2.58 0 0 1-2.581-2.581M242.029 260.458a2.58 2.58 0 0 1 2.581-2.581h13.767a2.58 2.58 0 1 1 0 5.162H244.61a2.58 2.58 0 0 1-2.581-2.581M242.029 270.783a2.58 2.58 0 0 1 2.581-2.582h6.884a2.582 2.582 0 0 1 0 5.163h-6.884a2.58 2.58 0 0 1-2.581-2.581" clip-rule="evenodd"/><path fill="#CFCFCF" d="M234.902 272.607h-25.323a1.05 1.05 0 0 1-1.051-1.052v-25.637a1.053 1.053 0 0 1 1.795-.744c.197.197.308.465.308.744v24.586h24.271a1.05 1.05 0 1 1 0 2.103"/><path fill="#B2DFFD" d="M214.19 268.542a1.316 1.316 0 0 1-1.314-1.315v-9.806a1.31 1.31 0 0 1 1.314-1.314 1.314 1.314 0 0 1 1.315 1.314v9.806a1.32 1.32 0 0 1-1.315 1.315M219.959 268.542a1.313 1.313 0 0 1-1.314-1.314v-14.944a1.32 1.32 0 0 1 .385-.929 1.32 1.32 0 0 1 1.432-.285 1.3 1.3 0 0 1 .711.711c.067.16.101.331.101.503v14.944a1.314 1.314 0 0 1-1.315 1.314"/><path fill="#0096FA" d="M231.495 268.542a1.31 1.31 0 0 1-1.314-1.314v-16.594a1.314 1.314 0 1 1 2.629 0v16.594a1.32 1.32 0 0 1-.384.931 1.3 1.3 0 0 1-.931.383"/><path fill="#B2DFFD" d="M225.726 268.542a1.314 1.314 0 0 1-1.314-1.314v-12.052a1.31 1.31 0 0 1 1.314-1.314 1.314 1.314 0 0 1 1.315 1.314v12.052a1.315 1.315 0 0 1-.811 1.215c-.16.066-.331.1-.504.099"/><path fill="#F6F6F6" d="M183.169 198.507H62.879a4.11 4.11 0 0 0-4.113 4.112v75.62a4.113 4.113 0 0 0 4.112 4.113H183.17a4.114 4.114 0 0 0 4.113-4.113v-75.62a4.113 4.113 0 0 0-4.113-4.112"/><path fill="#0096FA" fill-rule="evenodd" d="M66.476 225.924a2.57 2.57 0 0 1 2.57-2.57h6.855a2.57 2.57 0 1 1 0 5.14h-6.855a2.57 2.57 0 0 1-2.57-2.57M80.185 225.924a2.57 2.57 0 0 1 2.57-2.57h34.271a2.57 2.57 0 1 1 0 5.14H82.755a2.57 2.57 0 0 1-2.57-2.57" clip-rule="evenodd"/><path fill="#FBCF23" fill-rule="evenodd" d="M66.476 253.34a2.57 2.57 0 0 1 2.57-2.57h6.855a2.57 2.57 0 0 1 0 5.141h-6.855a2.57 2.57 0 0 1-2.57-2.571M80.185 253.34a2.57 2.57 0 0 1 2.57-2.57h34.271a2.57 2.57 0 0 1 0 5.141H82.755a2.57 2.57 0 0 1-2.57-2.571" clip-rule="evenodd"/><path fill="#F6F6F6" fill-rule="evenodd" d="M66.476 267.048a2.57 2.57 0 0 1 2.57-2.57h6.855a2.57 2.57 0 1 1 0 5.14h-6.855a2.57 2.57 0 0 1-2.57-2.57M80.185 267.048a2.57 2.57 0 0 1 2.57-2.57h65.115a2.57 2.57 0 1 1 0 5.14H82.755a2.57 2.57 0 0 1-2.57-2.57" clip-rule="evenodd"/><path fill="#FB4BC1" fill-rule="evenodd" d="M66.476 239.633a2.57 2.57 0 0 1 2.57-2.571h13.709a2.57 2.57 0 0 1 0 5.141H69.046a2.57 2.57 0 0 1-2.57-2.57M90.466 239.633a2.57 2.57 0 0 1 2.57-2.571h30.844a2.57 2.57 0 0 1 0 5.141H93.036a2.57 2.57 0 0 1-2.57-2.57" clip-rule="evenodd"/><path fill="#CFCFCF" d="M70.2 214.306a.65.65 0 0 1 .23.564.69.69 0 0 1-.23.575.78.78 0 0 1-.518.196h-.966a1.578 1.578 0 0 1-1.703-1.691v-1.737a1.2 1.2 0 0 0-.138-.656.7.7 0 0 0-.506-.23.78.78 0 0 1-.564-.23.88.88 0 0 1-.184-.564.78.78 0 0 1 .184-.541.82.82 0 0 1 .564-.241.72.72 0 0 0 .506-.231c.11-.2.158-.428.138-.655v-1.783a1.68 1.68 0 0 1 .46-1.243c.34-.304.787-.461 1.243-.437h.966a.77.77 0 0 1 .518.184.84.84 0 0 1 0 1.15.84.84 0 0 1-.518.184h-.184a.52.52 0 0 0-.345.104.53.53 0 0 0-.115.391v1.703c.006.337-.104.666-.31.932a1.3 1.3 0 0 1-.703.494c.285.072.534.243.702.484.207.265.317.594.31.931v1.692a.53.53 0 0 0 .116.391.52.52 0 0 0 .345.103h.184a.8.8 0 0 1 .518.161M78.977 212.703a.89.89 0 0 1-.276.645.9.9 0 0 1-.667.291.9.9 0 0 1-.667-.291l-1.37-1.415-1.345 1.426a.906.906 0 0 1-1.335 0 .9.9 0 0 1-.276-.644.94.94 0 0 1 .288-.656l1.45-1.438-1.335-1.3a.96.96 0 0 1-.288-.667.89.89 0 0 1 .276-.644.84.84 0 0 1 .644-.288.87.87 0 0 1 .68.334l1.242 1.265 1.254-1.265a.96.96 0 0 1 .69-.323.944.944 0 0 1 .92.909.97.97 0 0 1-.299.679l-1.323 1.3 1.45 1.438c.175.17.278.401.287.644M85.27 209.908a.73.73 0 0 1 .196.541.84.84 0 0 1-.196.564.77.77 0 0 1-.552.23.735.735 0 0 0-.518.23 1.2 1.2 0 0 0-.138.655v1.772a1.554 1.554 0 0 1-1.691 1.691h-.955a.82.82 0 0 1-.54-.195.72.72 0 0 1-.22-.575.68.68 0 0 1 .22-.564.82.82 0 0 1 .54-.196h.172a.52.52 0 0 0 .346-.103.54.54 0 0 0 .115-.391v-1.692c-.005-.335.1-.662.299-.932.168-.24.417-.411.702-.483a1.3 1.3 0 0 1-.702-.494 1.53 1.53 0 0 1-.3-.932v-1.657a.53.53 0 0 0-.114-.391.52.52 0 0 0-.346-.104h-.172a.87.87 0 0 1-.54-.184.86.86 0 0 1 0-1.15.8.8 0 0 1 .54-.184h.955c.456-.025.902.133 1.242.437a1.69 1.69 0 0 1 .449 1.242v1.784c-.02.227.028.455.138.655a.7.7 0 0 0 .236.168q.133.06.282.062a.83.83 0 0 1 .552.196"/><path fill="#B2DFFD" d="M810.689 431.17c0-6.398 5.186-11.585 11.584-11.585h179.557c6.4 0 11.59 5.187 11.59 11.585v118.74c0 6.398-5.19 11.585-11.59 11.585H822.273c-6.397 0-11.584-5.187-11.584-11.585z" opacity=".3"/><path fill="#F8FBFB" d="M802 419.584c0-6.397 5.187-11.584 11.584-11.584h179.559c6.398 0 11.587 5.187 11.587 11.584v118.741c0 6.398-5.189 11.584-11.587 11.584H813.584c-6.397 0-11.584-5.186-11.584-11.584z"/><path fill="#141414" d="M802 419.584c0-6.397 5.187-11.584 11.584-11.584h179.559c6.398 0 11.587 5.187 11.587 11.584v20.273H802z"/><path fill="#F6F6F6" d="M941.832 469.339v40.285a6.317 6.317 0 0 0 6.317 6.316h32.665a6.317 6.317 0 0 0 6.317-6.316v-40.285a6.317 6.317 0 0 0-6.317-6.317h-32.665a6.317 6.317 0 0 0-6.317 6.317"/><path fill="#FCAA73" d="M964.468 490.699a8.531 8.531 0 1 0 0-17.062 8.531 8.531 0 0 0 0 17.062"/><path fill="#E0E0E0" fill-rule="evenodd" d="M953.397 498.007c0-.957.776-1.733 1.734-1.733h18.69a1.734 1.734 0 1 1 0 3.467h-18.69a1.734 1.734 0 0 1-1.734-1.734M956.614 505.327c0-.957.776-1.733 1.733-1.733h12.243a1.733 1.733 0 1 1 0 3.467h-12.243a1.733 1.733 0 0 1-1.733-1.734" clip-rule="evenodd"/><path fill="#F6F6F6" d="M882.053 469.34v40.285a6.317 6.317 0 0 0 6.317 6.317h32.665a6.317 6.317 0 0 0 6.317-6.317V469.34a6.317 6.317 0 0 0-6.317-6.317H888.37a6.317 6.317 0 0 0-6.317 6.317"/><path fill="#F99F9F" d="M904.689 490.701a8.531 8.531 0 1 0 0-17.062 8.531 8.531 0 0 0 0 17.062"/><path fill="#E0E0E0" fill-rule="evenodd" d="M893.618 498.007c0-.957.776-1.733 1.734-1.733h18.69a1.734 1.734 0 1 1 0 3.467h-18.69a1.734 1.734 0 0 1-1.734-1.734M896.834 505.327c0-.957.777-1.733 1.734-1.733h12.243a1.733 1.733 0 1 1 0 3.467h-12.243a1.734 1.734 0 0 1-1.734-1.734" clip-rule="evenodd"/><path fill="#F6F6F6" d="M822.273 469.339v40.285a6.317 6.317 0 0 0 6.317 6.316h32.665a6.317 6.317 0 0 0 6.317-6.316v-40.285a6.317 6.317 0 0 0-6.317-6.317H828.59a6.317 6.317 0 0 0-6.317 6.317"/><path fill="#84EBBC" d="M844.91 490.699a8.531 8.531 0 1 0 0-17.062 8.531 8.531 0 0 0 0 17.062"/><path fill="#E0E0E0" fill-rule="evenodd" d="M833.838 498.007c0-.957.777-1.733 1.734-1.733h18.69a1.733 1.733 0 1 1 0 3.467h-18.69a1.734 1.734 0 0 1-1.734-1.734M837.055 505.327c0-.957.776-1.733 1.733-1.733h12.243a1.733 1.733 0 1 1 0 3.467h-12.243a1.733 1.733 0 0 1-1.733-1.734" clip-rule="evenodd"/><path fill="#E60F0F" d="M828.065 423.929a4.344 4.344 0 1 1-8.689.001 4.344 4.344 0 0 1 8.689-.001"/><path fill="#FCAA73" d="M839.649 423.929a4.344 4.344 0 1 1-8.689.001 4.344 4.344 0 0 1 8.689-.001"/><path fill="#35DE90" d="M851.234 423.929a4.344 4.344 0 1 1-8.689.001 4.344 4.344 0 0 1 8.689-.001"/></g><path fill="#C5D9FB" d="M837.777 970.271c10.314 0 18.675-8.363 18.675-18.677s-8.361-18.675-18.675-18.675-18.675 8.361-18.675 18.675 8.361 18.677 18.675 18.677"/><path fill="#C5D9FB" d="M866.898 966.052c6.876 0 12.45-5.575 12.45-12.451s-5.574-12.449-12.45-12.449c-6.877 0-12.451 5.573-12.451 12.449s5.574 12.451 12.451 12.451M857.454 926.694c7.43 0 13.455-6.024 13.455-13.455 0-7.43-6.025-13.454-13.455-13.454-7.431 0-13.453 6.024-13.453 13.454s6.022 13.455 13.453 13.455"/><path fill="#C5D9FB" d="M845.209 914.044c8.539 0 15.462-6.924 15.462-15.463 0-8.54-6.923-15.463-15.462-15.463s-15.463 6.923-15.463 15.463 6.923 15.463 15.463 15.463M871.111 874.885c5.767 0 10.44-4.675 10.44-10.442S876.878 854 871.111 854s-10.443 4.676-10.443 10.443 4.676 10.442 10.443 10.442"/><path fill="#06F" d="M892.398 1067.66h-86.349c-6.627 0-12.049-5.42-12.049-12.04v-91.775c0-6.627 5.422-12.049 12.049-12.049h86.349c6.627 0 12.049 5.422 12.049 12.049v91.775c0 6.62-5.422 12.04-12.049 12.04"/><path fill="#06F" d="M901.033 1052.6v-15.46c14.057 0 25.504-11.45 25.504-25.5 0-14.06-11.447-25.507-25.504-25.507V970.67c22.491 0 40.967 18.275 40.967 40.97 0 22.69-18.275 40.96-40.967 40.96"/></g><defs><linearGradient id="c" x1="437.418" x2="284.756" y1="740.296" y2="863.176" gradientUnits="userSpaceOnUse"><stop offset=".145" stop-color="#35DE90"/><stop offset=".953" stop-color="#338554"/></linearGradient><linearGradient id="d" x1="559.26" x2="644.99" y1="287.372" y2="266.441" gradientUnits="userSpaceOnUse"><stop offset=".479" stop-color="#8C3A03"/></linearGradient><linearGradient id="e" x1="512.337" x2="470.349" y1="359.369" y2="298.02" gradientUnits="userSpaceOnUse"><stop offset=".635" stop-color="#F89A9A" stop-opacity="0"/><stop offset="1" stop-color="#753103"/></linearGradient><linearGradient id="f" x1="706.418" x2="583.909" y1="653.218" y2="571.245" gradientUnits="userSpaceOnUse"><stop stop-color="#C5D9FB"/><stop offset=".184" stop-color="#D9E4F9"/><stop offset=".407" stop-color="#E9EEF7"/><stop offset=".66" stop-color="#F2F3F5"/><stop offset="1" stop-color="#F5F5F5"/></linearGradient><linearGradient id="g" x1="533.879" x2="535.003" y1="1208.23" y2="505.236" gradientUnits="userSpaceOnUse"><stop offset=".108" stop-color="#DAF2F4"/><stop offset="1" stop-color="#DAF2F4" stop-opacity="0"/></linearGradient><clipPath id="a"><path fill="#fff" d="M0 0h1080v1080H0z"/></clipPath><clipPath id="b"><rect width="1080" height="1080" viewBox="0 0 1080 1080" fill="#fff" rx="8"/></clipPath><filter id="h" width="309" height="59" x="23.141" y="1035" color-interpolation-filters="sRGB" filterUnits="userSpaceOnUse"><feFlood flood-opacity="0" result="BackgroundImageFix"/><feBlend in="SourceGraphic" in2="BackgroundImageFix" result="shape"/><feGaussianBlur result="effect1_foregroundBlur_10272_1614" stdDeviation="7"/></filter></defs></svg>