<svg xmlns="http://www.w3.org/2000/svg" width="1080" height="1080" viewBox="0 0 1080 1080" fill="none"><g filter="url(#a)" opacity=".1"><path fill="#0A0F1A" d="M308.336 1019.06c0 9.97-55.816 18.05-124.668 18.05S59 1029.03 59 1019.06c0-9.98 55.816-18.06 124.668-18.06s124.668 8.08 124.668 18.06"/></g><path fill="#F5F5F5" d="M82.181 401.478C92.774 577.723 244.235 712.011 420.48 701.419S731.013 539.365 720.421 363.12 558.367 52.587 382.122 63.179 71.589 225.233 82.182 401.478"/><path fill="#F5F5F5" d="m502.407 280.563-2.315-12.071c-1.239-6.449-6.942-11.161-13.554-11.161H352.803c-7.605 0-13.803 6.201-13.803 13.807v318.055c0 7.606 6.198 13.807 13.803 13.807H859.39c7.604 0 13.803-6.201 13.803-13.807V305.448c0-7.606-6.199-13.807-13.803-13.807H515.962c-6.612.083-12.233-4.547-13.555-11.078"/><path fill="url(#b)" d="m502.407 280.232-2.315-11.988c-1.239-6.449-6.942-11.161-13.554-11.161H352.803c-7.605 0-13.803 6.201-13.803 13.807v318.055c0 7.606 6.198 13.807 13.803 13.807H859.39c7.604 0 13.803-6.201 13.803-13.807V305.2c0-7.606-6.199-13.807-13.803-13.807H515.962c-6.612 0-12.233-4.63-13.555-11.161"/><path fill="url(#c)" d="m502.668 280.149-2.315-11.988c-1.24-6.448-6.943-11.161-13.555-11.161H353.146c-7.604 0-13.803 6.201-13.803 13.807v318.055c0 7.606 6.199 13.807 13.803 13.807h506.588c7.604 0 13.802-6.201 13.802-13.807V305.118c0-7.607-6.198-13.807-13.802-13.807H516.306c-6.695 0-12.316-4.63-13.638-11.162"/><path fill="#0096FA" d="M535.628 344.554c8.947 0 16.201-7.255 16.201-16.204s-7.254-16.205-16.201-16.205-16.2 7.255-16.2 16.205 7.253 16.204 16.2 16.204"/><path fill="#0C4EC0" d="M535.625 329.177c3.195 0 5.785-2.369 5.785-5.291s-2.59-5.292-5.785-5.292-5.786 2.369-5.786 5.292 2.59 5.291 5.786 5.291M535.623 344.554c4.546 0 8.596-1.901 11.489-4.96-1.653-4.713-6.199-8.102-11.489-8.102s-9.836 3.389-11.489 8.102c2.893 3.059 6.943 4.96 11.489 4.96"/><path fill="#A3A3A3" d="M612.414 337.362h-48.766a4.094 4.094 0 0 1-4.133-4.134v-9.838a4.094 4.094 0 0 1 4.133-4.134h48.766a4.093 4.093 0 0 1 4.132 4.134v9.838a4.093 4.093 0 0 1-4.132 4.134"/><path fill="#0096FA" d="M388.494 423.841c8.947 0 16.201-7.255 16.201-16.205s-7.254-16.205-16.201-16.205-16.2 7.255-16.2 16.205 7.253 16.205 16.2 16.205"/><path fill="#0C4EC0" d="M388.504 408.463c3.195 0 5.785-2.369 5.785-5.291s-2.59-5.292-5.785-5.292-5.786 2.369-5.786 5.292 2.59 5.291 5.786 5.291M388.505 423.841c4.546 0 8.596-1.901 11.489-4.96-1.653-4.713-6.2-8.103-11.489-8.103s-9.836 3.39-11.489 8.103c2.81 3.059 6.943 4.96 11.489 4.96"/><path fill="#666" d="M465.28 416.647h-48.766a4.094 4.094 0 0 1-4.133-4.134v-9.838a4.094 4.094 0 0 1 4.133-4.134h48.766a4.094 4.094 0 0 1 4.133 4.134v9.838a4.094 4.094 0 0 1-4.133 4.134"/><path fill="#0096FA" d="M388.494 495.77c8.947 0 16.201-7.256 16.201-16.205 0-8.95-7.254-16.205-16.201-16.205s-16.2 7.255-16.2 16.205 7.253 16.205 16.2 16.205"/><path fill="#0C4EC0" d="M388.504 480.474c3.195 0 5.785-2.369 5.785-5.291s-2.59-5.292-5.785-5.292-5.786 2.369-5.786 5.292 2.59 5.291 5.786 5.291M388.505 495.851c4.546 0 8.596-1.901 11.489-4.96-1.653-4.713-6.2-8.102-11.489-8.102s-9.836 3.389-11.489 8.102c2.81 3.059 6.943 4.96 11.489 4.96"/><path fill="#A3A3A3" d="M465.28 488.659h-48.766a4.094 4.094 0 0 1-4.133-4.134v-9.838a4.094 4.094 0 0 1 4.133-4.134h48.766a4.094 4.094 0 0 1 4.133 4.134v9.838c0 2.233-1.819 4.134-4.133 4.134"/><path fill="#0096FA" d="M388.494 567.78c8.947 0 16.201-7.255 16.201-16.205s-7.254-16.204-16.201-16.204-16.2 7.255-16.2 16.204 7.253 16.205 16.2 16.205"/><path fill="#0C4EC0" d="M388.504 552.403c3.195 0 5.785-2.369 5.785-5.292s-2.59-5.291-5.785-5.291-5.786 2.369-5.786 5.291 2.59 5.292 5.786 5.292M388.505 567.781c4.546 0 8.596-1.902 11.489-4.961-1.653-4.712-6.2-8.102-11.489-8.102s-9.836 3.39-11.489 8.102c2.81 3.059 6.943 4.961 11.489 4.961"/><path fill="#E0E0E0" d="M465.28 560.586h-48.766a4.093 4.093 0 0 1-4.133-4.133v-9.839a4.094 4.094 0 0 1 4.133-4.134h48.766a4.094 4.094 0 0 1 4.133 4.134v9.839a4.093 4.093 0 0 1-4.133 4.133"/><path fill="#35DE90" d="M802.514 321.736c.909 0 1.735.743 1.735 1.735v4.879c0 .909-.743 1.736-1.735 1.736h-14.961c-.909 0-1.735-.744-1.735-1.736v-4.879c0-.909.743-1.735 1.735-1.735zm0-2.398h-14.961a4.093 4.093 0 0 0-4.133 4.133v4.879a4.093 4.093 0 0 0 4.133 4.133h14.961a4.093 4.093 0 0 0 4.133-4.133v-4.879a4.093 4.093 0 0 0-4.133-4.133M847.725 332.484h-31.657a4.093 4.093 0 0 1-4.132-4.134v-4.878a4.093 4.093 0 0 1 4.132-4.134h31.657a4.093 4.093 0 0 1 4.133 4.134v4.878a4.093 4.093 0 0 1-4.133 4.134"/><path fill="#C5D9FB" d="M656.29 397.385H527.515a4.094 4.094 0 0 1-4.133-4.134v-23.976a4.094 4.094 0 0 1 4.133-4.134h128.858a4.094 4.094 0 0 1 4.133 4.134v23.976c-.083 2.232-1.902 4.134-4.216 4.134"/><path fill="#35DE90" d="M456.607 346.539h-71.496a4.093 4.093 0 0 1-4.133-4.134v-23.976a4.093 4.093 0 0 1 4.133-4.134h71.496a4.093 4.093 0 0 1 4.132 4.134v23.976c0 2.315-1.901 4.134-4.132 4.134"/><path fill="#C5D9FB" d="M627.855 519.167h-99.598a4.093 4.093 0 0 1-4.132-4.134v-23.976a4.093 4.093 0 0 1 4.132-4.134h99.598a4.093 4.093 0 0 1 4.133 4.134v23.976c0 2.315-1.901 4.134-4.133 4.134"/><path fill="#0096FA" d="M708.7 470.388h139.438a4.093 4.093 0 0 0 4.132-4.134v-58.948a4.093 4.093 0 0 0-4.132-4.134H708.7a4.094 4.094 0 0 0-4.133 4.134v58.948a4.094 4.094 0 0 0 4.133 4.134"/><path fill="#E0E0E0" d="M528.257 581.256h321.525a4.093 4.093 0 0 0 4.132-4.134v-39.271a4.093 4.093 0 0 0-4.132-4.134H528.257a4.093 4.093 0 0 0-4.132 4.134v39.271c0 2.233 1.818 4.134 4.132 4.134"/><path fill="#E0E0E0" fill-rule="evenodd" d="M851.847 356.013H519.329V353.6h332.518zM485.12 372.878H356.509v-2.412H485.12zM485.12 444.807H356.509v-2.413H485.12zM485.12 516.818H356.509v-2.412H485.12zM501.273 587.54V306.689h2.412V587.54z" clip-rule="evenodd"/><path fill="#FCAA73" d="m395.464 545.168 29.646-42.529-27.152-17.039-25.074 41.974z"/><path fill="#FCAA73" d="m379.118 519.54-2.078-27.291 4.294-.832 6.096 15.931z"/><g fill="#FCAA73" opacity=".78"><path d="m118.601 648.762 21.437 47.284-29.704 11.879-16.958-45.901z"/><path d="m97.958 671.168-7.078 26.277 4.071 1.674 8.974-14.418z"/></g><path fill="#072F73" d="m211.22 986.526 52.919.278c.692 3.186 2.909 14.826 15.515 15.656 23.827 1.52 14.13 13.02 14.13 13.02h-87.136z"/><path fill="#35DE90" d="M149.573 543.09c16.067 0 29.092-13.025 29.092-29.092 0-16.066-13.025-29.091-29.092-29.091-16.066 0-29.091 13.025-29.091 29.091s13.025 29.092 29.091 29.092M273.974 562.207c16.067 0 29.092-13.025 29.092-29.092 0-16.066-13.025-29.091-29.092-29.091-16.066 0-29.091 13.025-29.091 29.091s13.025 29.092 29.091 29.092M333.681 638.259c16.067 0 29.092-13.024 29.092-29.091s-13.025-29.092-29.092-29.092c-16.066 0-29.091 13.025-29.091 29.092s13.025 29.091 29.091 29.091"/><path fill="#35DE90" d="m311.371 627.069 45.577-35.946-60.398-76.578-45.577 35.947z"/><path fill="#35DE90" d="m412.955 550.758-46.667-34.519-56.681 76.628 46.668 34.519zM252.641 673.309l-122.739-27.846 22.165-160.141 130.635 19.81zM78.092 609.861c16.066 0 29.091-13.025 29.091-29.092s-13.025-29.091-29.092-29.091C62.025 551.678 49 564.702 49 580.769s13.025 29.092 29.091 29.092"/><path fill="#35DE90" d="m169.742 535.129-39.563-42.472-71.36 66.473 39.564 42.472z"/><path fill="url(#d)" d="M142.343 561.729 148.022 521 103 598.439z"/><path fill="#35DE90" d="m138.359 651.193-54.078 21.371-34.33-82.949 51.19-29.426z"/><path fill="#FCAA73" d="m259.983 408.438-46.962-5.542-4.018 3.186-10.251 86.444 34.494 5.264 1.524-13.438 15.793 1.94c1.523-1.247 2.493-1.94 4.017-3.187l8.312-70.511z"/><path fill="#000" d="m200.691 476.595 19.395 1.939 20.364-9.697 23.827-59.014-54.72-7.896z"/><path fill="#000" d="m207.479 418.55 59.153 7.619c1.801.277 3.463-.554 4.295-2.078l8.311-14.268c1.524-2.771-.138-6.096-3.186-6.511L210.527 395z"/><path fill="#FCAA73" d="m255.689 465.373-12.053-1.523c-2.909-.416-5.125-3.048-4.71-6.096l1.385-10.667 17.456 2.217z"/><path fill="#FCAA73" d="m259.013 444.04 4.571 20.641-8.727.554z"/><path fill="url(#e)" d="m208.726 838.021-11.775-144.21-74.945 6.095 11.221 137.7-45.854 130.219 70.928 24.935 48.485-137.838c1.94-5.68 2.494-11.36 1.94-16.901"/><path fill="#1968F0" d="M241.419 879.027c20.734 0 37.542-16.809 37.542-37.543s-16.808-37.541-37.542-37.541-37.542 16.807-37.542 37.541 16.808 37.543 37.542 37.543"/><path fill="#1968F0" d="M279.099 841.484h-75.222v146.15h75.222zM277.992 832.757l-74.114 8.727-42.529-147.812h80.07z"/><path fill="#1968F0" d="m245.853 717.361-123.985-17.455 8.035-54.443 123.708 22.997z"/><mask id="f" width="59" height="37" x="131" y="991" maskUnits="userSpaceOnUse" style="mask-type:luminance"><path fill="#fff" d="m148.743 991.237-16.763 35.883 57.491-4.85-14.269-24.939z"/></mask><g mask="url(#f)"><path fill="#072F73" d="m84.464 986.526 52.919.278c.693 3.186 2.909 14.826 15.516 15.656 23.827 1.52 14.13 13.02 14.13 13.02H79.893z"/></g><path fill="#072F73" d="M148.881 1004.67c-7.204-5.538-5.819-14.681-5.542-17.451l-49.87-17.594-13.715 25.768 57.906 20.087zM982.4 399H815.219A16.19 16.19 0 0 1 799 382.777V76.196a16.19 16.19 0 0 1 16.219-16.224H982.4a16.19 16.19 0 0 1 16.219 16.224v306.581A16.19 16.19 0 0 1 982.4 399"/><path fill="url(#g)" d="M982.4 382.027H815.219A16.19 16.19 0 0 1 799 365.804V59.224A16.19 16.19 0 0 1 815.219 43H982.4a16.19 16.19 0 0 1 16.219 16.223v306.581c0 8.902-7.236 16.223-16.219 16.223"/><path fill="#35DE90" d="M998.619 88.509V59.223A16.19 16.19 0 0 0 982.4 43H815.219A16.19 16.19 0 0 0 799 59.223V88.51z"/><path fill="#072F73" fill-rule="evenodd" d="M920.52 67.044a4.575 4.575 0 0 1 4.574-4.576h3.243a4.575 4.575 0 0 1 0 9.152h-3.243a4.575 4.575 0 0 1-4.574-4.576M864.707 67.044a4.575 4.575 0 0 1 4.574-4.576h41.921a4.575 4.575 0 0 1 4.574 4.576 4.575 4.575 0 0 1-4.574 4.576h-41.921a4.575 4.575 0 0 1-4.574-4.576" clip-rule="evenodd"/><path fill="#0096FA" d="M954.04 208.812c0 15.808-6.654 30.034-17.217 40.101-9.898 9.401-23.289 15.142-37.927 15.142-14.722 0-28.114-5.741-37.928-15.142-10.647-10.067-17.217-24.293-17.217-40.101 0-30.533 24.702-55.243 55.228-55.243 30.525 0 55.061 24.793 55.061 55.243"/><path fill="#072F73" d="M898.808 295.502a6.99 6.99 0 0 0 6.987-6.989 6.987 6.987 0 1 0-13.973 0 6.99 6.99 0 0 0 6.986 6.989M924.51 295.502a6.99 6.99 0 0 0 6.987-6.989 6.987 6.987 0 1 0-13.974 0 6.99 6.99 0 0 0 6.987 6.989M873.189 295.502a6.988 6.988 0 0 0 0-13.977 6.986 6.986 0 0 0-6.986 6.988 6.987 6.987 0 0 0 6.986 6.989"/><path fill="#0C4EC0" d="M898.809 213.97c8.958 0 16.219-7.264 16.219-16.224s-7.261-16.223-16.219-16.223c-8.957 0-16.219 7.263-16.219 16.223s7.262 16.224 16.219 16.224M936.735 248.913c-9.897 9.401-23.289 15.142-37.928 15.142-14.722 0-28.112-5.741-37.927-15.142 4.99-16.224 20.128-28.038 37.927-28.038 17.883.084 32.938 11.814 37.928 28.038"/><path fill="#EFF2F6" d="M1030.84 810.887V688.212c0-11.107-9-20.212-20.21-20.212H686.124c-11.104 0-20.208 9.005-20.208 20.212v14.009h-28.009c-4.402 0-6.502 5.303-3.501 8.305l31.411 31.419v68.842c0 11.106 9.002 20.212 20.206 20.212h324.507c11.31.1 20.31-8.905 20.31-20.112"/><path fill="#35DE90" d="M843.887 738.942H715.142c-4.401 0-8.002-3.602-8.002-8.005v-13.608c0-4.403 3.601-8.005 8.002-8.005h128.745c4.401 0 8.002 3.602 8.002 8.005v13.608c0 4.403-3.601 8.005-8.002 8.005"/><path fill="url(#h)" d="M915.113 738.942h-37.912c-4.402 0-8.003-3.602-8.003-8.005v-13.608c0-4.403 3.601-8.005 8.003-8.005h37.912c4.402 0 8.003 3.602 8.003 8.005v13.608c0 4.403-3.601 8.005-8.003 8.005"/><path fill="#072F73" d="M967.727 792.975H715.039c-4.401 0-8.002-3.602-8.002-8.005v-13.608c0-4.403 3.601-8.005 8.002-8.005h252.688c4.401 0 8.002 3.602 8.002 8.005v13.608c0 4.403-3.601 8.005-8.002 8.005"/><path fill="#1968F0" d="M51.996 73.292v121.477c0 10.688 8.733 19.421 19.421 19.421h129.037c10.688 0 19.421-8.733 19.421-19.421v-21.506h26.85c4.171 0 6.256-5.083 3.258-7.951l-30.108-30.108V73.422c0-10.687-8.733-19.42-19.421-19.42H71.417c-10.688-.13-19.42 8.602-19.42 19.29"/><path fill="#C5D9FB" d="M156.529 115.651h23.983v59.174h-23.983z"/><path fill="#0096FA" d="M122.25 130.249h23.982v44.576H122.25z"/><path fill="#35DE90" d="M87.97 98.055h23.983v76.901H87.97z"/><path fill="#1968F0" d="M404.146 970h133.639c7.811 0 14.215-6.329 14.215-14.206v-94.448c0-7.806-6.334-14.205-14.215-14.205h-15.764V827.45c0-3.095-3.73-4.572-5.841-2.462l-22.097 22.082h-89.867c-7.811 0-14.215 6.33-14.215 14.206v94.448c-.071 7.947 6.333 14.276 14.145 14.276"/><path fill="#35DE90" d="M469.708 898.549h50.353c3.095 0 5.627-2.532 5.627-5.626v-9.564c0-3.095-2.532-5.626-5.627-5.626h-50.353c-3.094 0-5.626 2.531-5.626 5.626v9.564c0 3.094 2.532 5.626 5.626 5.626"/><path fill="url(#i)" d="M419.636 898.549h26.653c3.095 0 5.627-2.532 5.627-5.626v-9.564c0-3.095-2.532-5.626-5.627-5.626h-26.653c-3.094 0-5.626 2.531-5.626 5.626v9.564c0 3.094 2.532 5.626 5.626 5.626"/><path fill="#072F73" d="M418.63 936h102.74c3.097 0 5.63-2.432 5.63-5.405v-9.19c0-2.973-2.533-5.405-5.63-5.405H418.63c-3.097 0-5.63 2.432-5.63 5.405v9.19c0 3.04 2.533 5.405 5.63 5.405"/><defs><linearGradient id="b" x1="877.242" x2="208.992" y1="268.387" y2="666.289" gradientUnits="userSpaceOnUse"><stop stop-color="#fff"/><stop offset=".99" stop-color="#E0E0E0"/></linearGradient><linearGradient id="c" x1="420.229" x2="942.784" y1="481.3" y2="336.87" gradientUnits="userSpaceOnUse"><stop offset=".253" stop-color="#03F" stop-opacity="0"/><stop offset=".441" stop-color="#0033FC" stop-opacity=".252"/><stop offset=".565" stop-color="#0133F3" stop-opacity=".418"/><stop offset=".671" stop-color="#0132E4" stop-opacity=".559"/><stop offset=".766" stop-color="#0232CF" stop-opacity=".687"/><stop offset=".854" stop-color="#0431B4" stop-opacity=".805"/><stop offset=".936" stop-color="#053092" stop-opacity=".915"/><stop offset="1" stop-color="#072F73"/></linearGradient><linearGradient id="d" x1="105.697" x2="167.045" y1="547.285" y2="585.683" gradientUnits="userSpaceOnUse"><stop offset=".324" stop-color="#35DE90"/><stop offset=".385" stop-color="#32D48E"/><stop offset=".488" stop-color="#2BB98A"/><stop offset=".622" stop-color="#208D83"/><stop offset=".78" stop-color="#105078"/><stop offset=".859" stop-color="#072F73"/></linearGradient><linearGradient id="e" x1="99.34" x2="287.815" y1="852.607" y2="823.358" gradientUnits="userSpaceOnUse"><stop offset=".307" stop-color="#1968F0"/><stop offset=".691" stop-color="#0C4EC0"/></linearGradient><linearGradient id="g" x1="761.698" x2="1003.9" y1="439.592" y2="38.675" gradientUnits="userSpaceOnUse"><stop stop-color="#fff"/><stop offset=".952" stop-color="#C5D9FB"/></linearGradient><linearGradient id="h" x1="869.166" x2="923.112" y1="724.135" y2="724.135" gradientUnits="userSpaceOnUse"><stop stop-color="#fff"/><stop offset=".952" stop-color="#C5D9FB"/></linearGradient><linearGradient id="i" x1="451.937" x2="414.012" y1="888.118" y2="888.118" gradientUnits="userSpaceOnUse"><stop stop-color="#fff"/><stop offset=".952" stop-color="#C5D9FB"/></linearGradient><filter id="a" width="276.849" height="63.624" x="45.243" y="987.244" color-interpolation-filters="sRGB" filterUnits="userSpaceOnUse"><feFlood flood-opacity="0" result="BackgroundImageFix"/><feBlend in="SourceGraphic" in2="BackgroundImageFix" result="shape"/><feGaussianBlur result="effect1_foregroundBlur_10272_1612" stdDeviation="6.878"/></filter></defs></svg>