<svg width="1080" height="1080" fill="none" xmlns="http://www.w3.org/2000/svg"><path d="M393.784 963.028a135.863 135.863 0 0 1-3.73 24.277h308.632a132.97 132.97 0 0 1-3.729-24.277c-1.119-45.049 5.445-122.282 9.286-148.163-7.235 3.729-14.283 9.174-21.854 9.174H409.148c-7.458 0-15.364-4.438-22.599-8.279 3.841 25.881 8.353 102.219 7.235 147.268Z" fill="#DF638D"/><path d="M883.646 693.398S701.428 935.139 495.572 968.034c-205.856 32.896-300.478-55.545-293.38-150.155 7.099-94.611 37.835-162.498-23.638-236.557-61.473-74.06-146.725-133.739-85.181-316.85C154.916 81.361 325.209 23.78 434.1 42.295 542.99 60.808 552.36 163.69 680.133 190.412c127.773 26.723 288.695-22.588 331.287 111.088 42.59 133.677-42.592 291.793-127.774 391.897Z" fill="#B9CBD3" style="mix-blend-mode:luminosity" opacity=".16"/><g opacity=".2" filter="url(#user-2__a)"><path d="M325.504 1000.95c0 7.46-61.778 13.52-137.984 13.52-76.207 0-137.985-6.06-137.985-13.52 0-7.467 61.778-13.518 137.985-13.518 76.206 0 137.984 6.051 137.984 13.518Z" fill="#0A0F1A"/></g><g opacity=".2" filter="url(#user-2__b)"><path d="M783.95 1000.95c0 7.46-110.443 13.52-246.682 13.52-136.239 0-246.682-6.06-246.682-13.52 0-7.467 110.443-13.518 246.682-13.518 136.239 0 246.682 6.051 246.682 13.518Z" fill="#0A0F1A"/></g><g opacity=".2" filter="url(#user-2__c)"><path d="M860.545 1026.86c0 7.46-32.023 13.51-71.526 13.51-39.503 0-71.527-6.05-71.527-13.51 0-7.47 32.024-13.52 71.527-13.52s71.526 6.05 71.526 13.52Z" fill="#0A0F1A"/></g><path fill-rule="evenodd" clip-rule="evenodd" d="M675.449 546.644c16.052-9.27 36.58-3.772 45.849 12.28l-29.064 16.785c29.064-16.785 29.066-16.783 29.067-16.78l.353.613.999 1.737a2299.04 2299.04 0 0 1 3.767 6.59 3828.05 3828.05 0 0 1 13.522 23.938c11.248 20.078 26.451 47.6 42.229 77.325 15.754 29.676 32.215 61.796 45.921 91.011 13.389 28.541 25.206 56.497 30.486 77.003l.001.005c10.671 41.422 6.173 80.538-24.944 106.759-27.03 22.778-66.65 28.404-105.451 28.404-18.537 0-33.564-15.027-33.564-33.564 0-18.536 15.027-33.563 33.564-33.563 36.267 0 54.563-6.177 62.196-12.609 3.545-2.987 10.46-10.484 3.194-38.685l-.001-.005c-3.559-13.822-12.891-36.754-26.253-65.236-13.047-27.811-28.941-58.852-44.439-88.047-15.472-29.146-30.416-56.203-41.501-75.988a3775.05 3775.05 0 0 0-13.281-23.513 2306.635 2306.635 0 0 0-3.666-6.413l-.952-1.656-.312-.541" fill="#F3C29F"/><path fill-rule="evenodd" clip-rule="evenodd" d="M647.07 546.787c12.018-16.726 35.32-20.541 52.046-8.522l-21.762 30.284c21.762-30.284 21.773-30.276 21.785-30.268l.024.018.051.037.115.083.281.205a111.906 111.906 0 0 1 3.011 2.319 174.201 174.201 0 0 1 7.184 6.072c5.86 5.211 13.721 12.798 22.628 22.946 17.824 20.307 39.848 50.893 58.336 93.175 8.251 18.871-.357 40.858-19.228 49.11-18.871 8.251-40.858-.358-49.11-19.229-15.037-34.39-32.636-58.569-46.054-73.857-6.714-7.649-12.378-13.069-16.139-16.414a99.636 99.636 0 0 0-4.091-3.467 36.334 36.334 0 0 0-.761-.594l-.015-.012c-16.538-12.065-20.267-35.234-8.301-51.886Z" fill="#F99B45"/><path fill-rule="evenodd" clip-rule="evenodd" d="M418.009 548.351c16.058 9.261 21.567 29.786 12.307 45.843l-.442-.255.442.255-.003.005-.316.548-.966 1.683c-.852 1.486-2.11 3.683-3.721 6.509a4313.71 4313.71 0 0 0-13.48 23.838c-11.256 20.049-26.449 47.457-42.231 76.946-32.419 60.576-64.648 125.101-73.218 154.999l-.001.004c-5.944 20.727-2.757 30.198-.081 33.847 2.435 3.319 11.977 11.982 45.013 11.982 18.537 0 33.564 15.026 33.564 33.563 0 18.536-15.027 33.563-33.564 33.563-41.996 0-78.174-10.823-99.14-39.407-20.724-28.254-18.619-63.102-10.319-92.049m186.156-291.874c-16.057-9.26-36.581-3.751-45.842 12.307Zm-45.842 12.307 26.928 15.53Zm26.928 15.53c-26.928-15.53-26.929-15.529-26.931-15.526Zm-26.931-15.526-.005.009Zm-.005.009-.018.032Zm-.018.032-.069.119Zm-.069.119-.262.457Zm-.262.457-1.008 1.755Zm-1.008 1.755c-.881 1.534-2.168 3.784-3.811 6.665Zm-3.811 6.665a4383.697 4383.697 0 0 0-13.694 24.217Zm-13.694 24.217c-11.402 20.309-26.825 48.131-42.882 78.133Zm-42.882 78.133c-31.256 58.403-67.588 129.899-78.56 168.172Z" fill="#F3C29F"/><path fill-rule="evenodd" clip-rule="evenodd" d="m442.007 591.411.009-.011-.009.011Zm.111-.134c13.033-15.833 10.838-39.24-4.947-52.369-15.834-13.171-39.348-11.012-52.518 4.823l27.983 23.275c-27.983-23.275-27.99-23.267-27.997-23.259l-.043.052-.067.081-.161.197-.435.537c-.339.422-.776.974-1.306 1.659a201.343 201.343 0 0 0-4.253 5.719c-3.528 4.904-8.384 12.023-14.263 21.555-11.76 19.068-27.595 47.763-45.066 87.672-8.259 18.868.341 40.858 19.209 49.118 18.867 8.259 40.858-.341 49.117-19.209 16.093-36.763 30.315-62.366 40.222-78.427 4.954-8.033 8.834-13.687 11.334-17.164a129.845 129.845 0 0 1 2.68-3.61c.262-.338.428-.547.494-.629l.017-.021Z" fill="#F99B45"/><path d="M396.392 561.091s-35.726 137.274-43.594 147.38l-3.73 4.811a46.25 46.25 0 0 0 14.619-1.045l10.442-12.791 27.298-93.231-5.035-45.124Zm299.981 16.335s32.258 119 40.127 129.106l3.729 5.035a184.518 184.518 0 0 1-18.124-5.333l-5.594-8.727-27.335-93.231 7.197-26.85Z" fill="#FA7E25"/><path d="M731.391 725.14c-13.276-56.908-45.683-190.191-45.683-190.191 0-6.526-39.68-8.876-128.734-10.591v-.448H531.13v.41c-89.016 1.716-128.733 4.065-128.733 10.591 0 0-32.407 133.358-45.683 190.192-12.791 54.894 24.986 103.337 60.824 103.337h253.029c35.838.037 73.615-48.406 60.824-103.3Z" fill="#F99B45"/><path d="M417.538 828.253a51.167 51.167 0 0 1-30.767-11.524l6.75 101.548c-.447-24.762 14.283-84.878 14.283-84.878 1.586.308 3.196.47 4.811.485 17.416-.82 67.126-4.624 67.126-4.624-31.773 0-62.203-1.007-62.203-1.007Zm254.073.001c10.554 0 23.233-6.414 32.78-13.723l-8.764 103.747c.448-24.874-14.096-84.877-14.096-84.877-1.586.307-3.196.47-4.811.484-17.415-.82-67.126-4.624-67.126-4.624 31.586 0 62.017-1.007 62.017-1.007Z" fill="#D8608E"/><path d="M860.795 909.476v.631a3.693 3.693 0 0 1 0-.631Z" fill="#F8F7EF"/><path opacity=".5" d="M702.415 582.08c0-8.239 6.679-14.917 14.917-14.917h160.357c8.239 0 14.917 6.678 14.917 14.917v104.418c0 8.239-6.678 14.917-14.917 14.917H717.332c-8.238 0-14.917-6.678-14.917-14.917V582.08Z" fill="#C3EEF4"/><path opacity=".5" d="M717.332 596.997c0-8.239 6.679-14.917 14.917-14.917h160.357c8.239 0 14.917 6.678 14.917 14.917v104.418c0 8.239-6.678 14.917-14.917 14.917H732.249c-8.238 0-14.917-6.678-14.917-14.917V596.997ZM157.945 675.31c0-8.239 6.679-14.917 14.917-14.917h152.899c8.239 0 14.917 6.678 14.917 14.917v100.689c0 8.238-6.678 14.917-14.917 14.917H172.862c-8.238 0-14.917-6.679-14.917-14.917V675.31Z" fill="#87DDE8"/><path opacity=".5" d="M139.299 660.393c0-8.239 6.678-14.917 14.917-14.917h160.357c8.239 0 14.917 6.678 14.917 14.917v104.418c0 8.239-6.678 14.917-14.917 14.917H154.216c-8.239 0-14.917-6.678-14.917-14.917V660.393Z" fill="#C3EEF4"/><path opacity=".3" d="M791.918 123.383c0-8.238 6.679-14.917 14.917-14.917h231.215c8.24 0 14.91 6.679 14.91 14.917v152.899c0 8.239-6.67 14.917-14.91 14.917H806.835c-8.238 0-14.917-6.678-14.917-14.917V123.383Z" fill="#C3EEF4"/><path opacity=".3" d="M806.834 142.03c0-8.239 6.679-14.917 14.917-14.917h231.209c8.24 0 14.92 6.678 14.92 14.917v152.899c0 8.238-6.68 14.917-14.92 14.917H821.751c-8.238 0-14.917-6.679-14.917-14.917V142.03Z" fill="#C3EEF4"/><path d="M780.729 108.466c0-8.238 6.679-14.917 14.917-14.917h231.214c8.24 0 14.92 6.679 14.92 14.917v152.899c0 8.239-6.68 14.917-14.92 14.917H795.646c-8.238 0-14.917-6.678-14.917-14.917V108.466Z" fill="#F8FBFB"/><path d="M780.729 108.466c0-8.238 6.679-14.917 14.917-14.917h231.214c8.24 0 14.92 6.679 14.92 14.917v26.105H780.729v-26.105Z" fill="#202C44"/><path d="M960.787 172.538v51.873a8.134 8.134 0 0 0 8.134 8.134h42.059c4.5 0 8.14-3.641 8.14-8.134v-51.873a8.134 8.134 0 0 0-8.14-8.134h-42.059a8.134 8.134 0 0 0-8.134 8.134Z" fill="#fff"/><path d="M989.935 200.043c6.067 0 10.985-4.918 10.985-10.985 0-6.067-4.918-10.985-10.985-10.985-6.067 0-10.985 4.918-10.985 10.985 0 6.067 4.918 10.985 10.985 10.985Z" fill="#F99B45"/><path fill-rule="evenodd" clip-rule="evenodd" d="M975.68 209.453c0-1.233.999-2.233 2.232-2.233h24.068a2.233 2.233 0 0 1 0 4.465h-24.068c-1.233 0-2.232-1-2.232-2.232Zm4.141 9.425c0-1.233 1-2.232 2.233-2.232h15.765a2.23 2.23 0 0 1 2.231 2.232 2.232 2.232 0 0 1-2.231 2.233h-15.765c-1.233 0-2.233-1-2.233-2.233Z" fill="#D2DFE6"/><path d="M883.811 172.538v51.873a8.133 8.133 0 0 0 8.134 8.134h42.062a8.134 8.134 0 0 0 8.134-8.134v-51.873a8.134 8.134 0 0 0-8.134-8.134h-42.062a8.134 8.134 0 0 0-8.134 8.134Z" fill="#fff"/><path d="M912.959 200.043c6.067 0 10.985-4.918 10.985-10.985 0-6.067-4.918-10.985-10.985-10.985-6.067 0-10.985 4.918-10.985 10.985 0 6.067 4.918 10.985 10.985 10.985Z" fill="#2CC3D5"/><path fill-rule="evenodd" clip-rule="evenodd" d="M898.703 209.453c0-1.233 1-2.233 2.233-2.233h24.066a2.233 2.233 0 0 1 0 4.465h-24.066c-1.233 0-2.233-1-2.233-2.232Zm4.142 9.425c0-1.233.999-2.232 2.232-2.232h15.765a2.232 2.232 0 1 1 0 4.465h-15.765c-1.233 0-2.232-1-2.232-2.233Z" fill="#D2DFE6"/><path d="M806.834 172.538v51.873a8.134 8.134 0 0 0 8.134 8.134h42.062a8.133 8.133 0 0 0 8.134-8.134v-51.873a8.134 8.134 0 0 0-8.134-8.134h-42.062a8.134 8.134 0 0 0-8.134 8.134Z" fill="#fff"/><path d="M835.983 200.043c6.067 0 10.985-4.918 10.985-10.985 0-6.067-4.918-10.985-10.985-10.985-6.067 0-10.985 4.918-10.985 10.985 0 6.067 4.918 10.985 10.985 10.985Z" fill="#BED42B"/><path fill-rule="evenodd" clip-rule="evenodd" d="M821.727 209.453c0-1.233.999-2.233 2.232-2.233h24.067a2.232 2.232 0 0 1 0 4.465h-24.067c-1.233 0-2.232-1-2.232-2.232Zm4.141 9.425c0-1.233 1-2.232 2.233-2.232h15.765a2.232 2.232 0 0 1 0 4.465h-15.765c-1.233 0-2.233-1-2.233-2.233Z" fill="#D2DFE6"/><path d="M814.292 114.06a5.593 5.593 0 1 1-11.188 0 5.595 5.595 0 0 1 11.188 0Z" fill="#FF5A60"/><path d="M829.209 114.06a5.593 5.593 0 1 1-11.188 0 5.595 5.595 0 0 1 11.188 0Z" fill="#F9B42F"/><path d="M844.126 114.06a5.593 5.593 0 1 1-11.188 0 5.595 5.595 0 0 1 11.188 0Z" fill="#4DCB7B"/><path opacity=".3" d="M36.14 369.948c0-8.239 6.678-14.917 14.917-14.917h173.579c8.238 0 14.917 6.678 14.917 14.917v112.555c0 8.238-6.679 14.917-14.917 14.917H51.056c-8.238 0-14.916-6.679-14.916-14.917V369.948Z" fill="#C3EEF4"/><path opacity=".3" d="M47.764 384.478c0-8.238 6.678-14.916 14.917-14.916H236.26c8.238 0 14.917 6.678 14.917 14.916v112.556c0 8.238-6.679 14.917-14.917 14.917H62.68c-8.238 0-14.916-6.679-14.916-14.917V384.478Z" fill="#C3EEF4"/><path d="M27.422 358.325c0-8.239 6.678-14.917 14.917-14.917h173.579c8.238 0 14.917 6.678 14.917 14.917V470.88c0 8.238-6.679 14.917-14.917 14.917H42.338c-8.238 0-14.916-6.679-14.916-14.917V358.325Z" fill="#F8FBFB"/><path d="M27.422 358.325c0-8.239 6.678-14.917 14.917-14.917h173.579c8.238 0 14.917 6.678 14.917 14.917v17.048H27.422v-17.048Z" fill="#202C44"/><path d="M53.575 359.39a4.358 4.358 0 1 1-8.717 0 4.358 4.358 0 0 1 8.717 0Z" fill="#FF5A60"/><path d="M65.198 359.39a4.358 4.358 0 1 1-8.717 0 4.358 4.358 0 0 1 8.717 0Z" fill="#F9B42F"/><path d="M76.822 359.39a4.358 4.358 0 1 1-8.716 0 4.358 4.358 0 0 1 8.716 0Z" fill="#4DCB7B"/><path d="M111.832 399.383a6.575 6.575 0 0 1 6.575-6.575h91.238a6.574 6.574 0 0 1 6.575 6.575v57.564a6.574 6.574 0 0 1-6.575 6.575h-91.238a6.575 6.575 0 0 1-6.575-6.575v-57.564Z" fill="#fff"/><path d="M207.254 410.642h-21.87a2.237 2.237 0 0 1-1.952-.363 2.232 2.232 0 0 1-.885-1.777c0-.345.08-.684.233-.993a2.237 2.237 0 0 1 1.585-1.195 2.223 2.223 0 0 1 1.019.048h21.87a2.226 2.226 0 0 1 0 4.28Zm0 6.736h-21.87a2.223 2.223 0 0 1-2.604-1.147 2.236 2.236 0 0 1 0-1.985 2.232 2.232 0 0 1 1.585-1.196 2.237 2.237 0 0 1 1.019.048h21.87a2.226 2.226 0 0 1 0 4.28Zm-40.363 32.211h-36.038a1.497 1.497 0 0 1-1.497-1.497v-36.487c0-.397.158-.778.439-1.058a1.494 1.494 0 0 1 2.116 0c.281.28.439.661.439 1.058v34.991h34.541a1.497 1.497 0 1 1 0 2.993Z" fill="#D2DFE6"/><path opacity=".7" d="M146.63 439.892a4.284 4.284 0 0 1-2.537-.749c-6.914-5.432-11.067-.516-11.224-.299a1.872 1.872 0 0 1-2.889-2.372c.067-.082 6.645-7.895 16.343-.352.494.232 2.155 0 4.393-3.891 4.16-7.214 11.928-11.838 12.257-12.033a1.872 1.872 0 0 1 2.762 2.081 1.868 1.868 0 0 1-.862 1.144c-.074.038-7.258 4.341-10.917 10.679-1.931 3.345-4.049 5.238-6.301 5.724a5.497 5.497 0 0 1-1.025.068Zm-.314-3.787.059.045-.059-.045Z" fill="#2CC3D5"/><path opacity=".8" d="M131.364 439.494a1.867 1.867 0 0 1-1.646-.992 1.871 1.871 0 0 1 .097-1.919c.815-1.212 8.149-11.711 15.318-11.711h.082c1.803 0 4.392.748 6.51 4.011 1.729 2.679 3.57 4.108 5.47 4.228 2.836.172 5.238-2.514 5.238-2.537a1.864 1.864 0 0 1 2.032-.643 1.865 1.865 0 0 1 1.316 1.676 1.861 1.861 0 0 1-.497 1.384c-.142.172-3.584 4.161-8.328 3.854-3.143-.21-5.987-2.2-8.366-5.934-.988-1.497-2.103-2.245-3.405-2.297h-.052c-3.921 0-9.579 6.158-12.228 10.064a1.864 1.864 0 0 1-1.541.816Z" fill="#F9B42F"/><path d="M41.952 401.142v53.148a8.334 8.334 0 0 0 8.334 8.334h43.096a8.334 8.334 0 0 0 8.334-8.334v-53.148a8.334 8.334 0 0 0-8.334-8.334H50.286a8.334 8.334 0 0 0-8.334 8.334Z" fill="#fff"/><path d="M71.817 429.322c6.216 0 11.255-5.039 11.255-11.255 0-6.216-5.04-11.255-11.255-11.255-6.216 0-11.255 5.039-11.255 11.255 0 6.216 5.039 11.255 11.255 11.255Z" fill="#FF7B80"/><path fill-rule="evenodd" clip-rule="evenodd" d="M57.031 438.962a2.465 2.465 0 0 1 2.466-2.465h24.658a2.465 2.465 0 1 1 0 4.931H59.497a2.466 2.466 0 0 1-2.466-2.466Zm4.244 9.657a2.466 2.466 0 0 1 2.466-2.465h16.153a2.466 2.466 0 1 1 0 4.931H63.74a2.466 2.466 0 0 1-2.466-2.466Z" fill="#D2DFE6"/><path d="M310.788 180.95a8.177 8.177 0 0 1-6.807-1.787 8.163 8.163 0 0 1-2.893-6.416l.492-16.155a4.127 4.127 0 0 1 1.281-2.934 4.133 4.133 0 0 1 4.58-.774 4.148 4.148 0 0 1 2.421 3.963l-.437 15.84 52.435-39.408-63.719-16.244 9.941 23.368 27.198-6.075a4.145 4.145 0 0 1 1.818 8.088l-27.413 6.185a8.288 8.288 0 0 1-9.145-4.748l-10.136-23.836a8.119 8.119 0 0 1 1.282-8.502 8.121 8.121 0 0 1 8.2-2.586l64.323 16.393a8.137 8.137 0 0 1 2.876 14.401l-52.912 39.723a8.095 8.095 0 0 1-3.385 1.504Z" fill="#517BF2"/><path d="m866.501 310.408-91.63 604.137H307.373l-89.76-604.137h648.888Z" fill="url(#user-2__d)"/><path d="m879.067 469.503-8.793-29.007a12.106 12.106 0 0 1 .316-6.97l.106-.452 1.457-6.243 2.401.561a3.322 3.322 0 0 0 3.985-2.466l3.415-14.631a3.339 3.339 0 0 0-2.479-3.989l-34.037-7.944a3.322 3.322 0 0 0-3.975 2.483l-3.414 14.631a3.296 3.296 0 0 0 .411 2.497 3.301 3.301 0 0 0 2.057 1.475l2.401.56-1.457 6.243-.105.452a12.119 12.119 0 0 1-2.802 6.39l-20.697 22.125a4.93 4.93 0 0 0 2.471 8.171l52.905 12.348a4.936 4.936 0 0 0 4.715-1.434 4.933 4.933 0 0 0 1.119-4.8Zm-31.915-63.935 27.625 6.447-1.912 8.192-27.625-6.448 1.912-8.191Zm-22.45 52.036 18.707-19.983a18.606 18.606 0 0 0 4.556-10.076l1.407-6.03 16.355 3.817-1.408 6.03a18.607 18.607 0 0 0-.375 11.052l7.929 26.2-47.171-11.01Z" fill="#B97CE8"/><path opacity=".5" d="m874.005 466.685-3.736-14.812s-8.651 3.119-16.564-7.32c-7.914-10.44-14.904-6.844-14.904-6.844l-16.243 18.547a2.912 2.912 0 0 0-.524 2.741 2.907 2.907 0 0 0 2.029 1.914l45.194 10.548a3.893 3.893 0 0 0 3.753-1.016 3.891 3.891 0 0 0 .995-3.758Zm-31.965-11.333a5.028 5.028 0 0 1-3.822-4.082 5.037 5.037 0 0 1 2.309-5.092 5.03 5.03 0 0 1 7.367 2.502 5.036 5.036 0 0 1-5.854 6.672Zm9.266-17.554a3.162 3.162 0 1 0 1.435-6.16 3.162 3.162 0 0 0-1.435 6.16Zm8.29-5.854a2.06 2.06 0 1 0 .935-4.011 2.06 2.06 0 0 0-.935 4.011Z" fill="#B97CE8"/><path d="M272.8 729.237h-2.279v-2.347a4.409 4.409 0 0 0-4.41-4.41h-16.693v-2.199h2.039a4.422 4.422 0 0 0 4.41-4.41v-8.637a4.417 4.417 0 0 0-4.41-4.41h-8.637a4.42 4.42 0 0 0-4.41 4.41v8.637a4.423 4.423 0 0 0 4.41 4.41h2.04v2.199h-16.033a4.41 4.41 0 0 0-4.41 4.41v2.347h-2.279a4.41 4.41 0 0 0-4.409 4.41v8.637a4.408 4.408 0 0 0 4.409 4.41h8.638a4.4 4.4 0 0 0 4.398-4.41v-8.637a4.41 4.41 0 0 0-4.398-4.41h-1.801v-2.199h15.885v2.199h-2.04a4.423 4.423 0 0 0-4.41 4.41v8.637a4.409 4.409 0 0 0 4.41 4.41h8.637a4.411 4.411 0 0 0 4.41-4.41v-8.637a4.417 4.417 0 0 0-4.41-4.41h-2.039v-2.199h16.5v2.199h-1.755a4.407 4.407 0 0 0-4.399 4.41v8.637a4.396 4.396 0 0 0 2.713 4.074 4.392 4.392 0 0 0 1.686.336h8.637a4.409 4.409 0 0 0 4.41-4.41v-8.637a4.409 4.409 0 0 0-4.41-4.41Zm-29.832-21.855h8.341v8.341h-8.341v-8.341Zm-12.397 34.754h-8.33v-8.341h8.33v8.341Zm20.738 0h-8.341v-8.341h8.341v8.341Zm21.343 0h-8.33v-8.341h8.33v8.341Z" fill="#fff"/><path fill-rule="evenodd" clip-rule="evenodd" d="M838.035 638.638v-1.139a14.222 14.222 0 0 0-4.138-10.08 14.199 14.199 0 0 0-10.061-4.187h-4.66v-.216a8.08 8.08 0 1 0-16.158 0v.216h-5.697a14.226 14.226 0 0 0-14.21 14.199v1.139a6.405 6.405 0 0 0-5.025 6.267v9.561a6.392 6.392 0 0 0 5.025 6.244v1.139a14.224 14.224 0 0 0 14.21 14.221h26.515a14.21 14.21 0 0 0 14.199-14.198v-1.139a6.38 6.38 0 0 0 5.002-6.233v-9.595a6.39 6.39 0 0 0-5.002-6.199Zm-14.199 32.806h-26.515a9.65 9.65 0 0 1-9.652-9.64v-24.373a9.652 9.652 0 0 1 9.652-9.641h26.515a9.655 9.655 0 0 1 9.641 9.641v24.373a9.651 9.651 0 0 1-9.641 9.64Zm-16.249-48.428a3.52 3.52 0 0 1 7.042 0v.216h-7.053c0-.032.003-.065.005-.099.003-.037.006-.076.006-.117Zm-26.083 31.382v-9.561a2.983 2.983 0 0 1 1.607-2.632v14.813a2.988 2.988 0 0 1-1.607-2.62Zm58.114 0a2.95 2.95 0 0 1-1.583 2.609v-14.813a2.963 2.963 0 0 1 1.583 2.609v9.595Zm-28.51-15.998a11.22 11.22 0 0 0-10.37 6.929 11.23 11.23 0 0 0 2.433 12.232 11.23 11.23 0 0 0 12.232 2.433 11.23 11.23 0 0 0 6.929-10.37 11.235 11.235 0 0 0-11.224-11.224Zm0 19.03a7.805 7.805 0 1 1 7.805-7.806 7.817 7.817 0 0 1-7.805 7.806Zm-1.812-10.52a3.27 3.27 0 1 1 3.649 5.43 3.27 3.27 0 0 1-3.649-5.43Zm2.23 2.184a.913.913 0 0 0 1.418-.758.913.913 0 0 0-1.806-.178.913.913 0 0 0 .388.936Z" fill="#fff"/><path fill-rule="evenodd" clip-rule="evenodd" d="M277.281 325.694c-5.664 0-10.255 4.591-10.255 10.255 0 5.664 4.591 10.256 10.255 10.256 5.664 0 10.256-4.592 10.256-10.256 0-5.664-4.592-10.255-10.256-10.255Zm-12.12 10.255c0-6.694 5.426-12.12 12.12-12.12 6.694 0 12.12 5.426 12.12 12.12 0 6.694-5.426 12.12-12.12 12.12-6.694 0-12.12-5.426-12.12-12.12Zm657.278 220.958c-5.664 0-10.255 4.591-10.255 10.255 0 5.664 4.591 10.255 10.255 10.255 5.664 0 10.256-4.591 10.256-10.255 0-5.664-4.592-10.255-10.256-10.255Zm-12.12 10.255c0-6.694 5.427-12.12 12.12-12.12 6.694 0 12.12 5.426 12.12 12.12 0 6.694-5.426 12.12-12.12 12.12-6.693 0-12.12-5.426-12.12-12.12Zm-166.883-66.194a6.526 6.526 0 1 0 0 13.051 6.526 6.526 0 0 0 0-13.051Zm-8.391 6.526a8.391 8.391 0 1 1 16.783 0 8.391 8.391 0 0 1-16.783 0Zm217.229-166.883a6.526 6.526 0 1 0-.001 13.053 6.526 6.526 0 0 0 .001-13.053Zm-8.391 6.526a8.391 8.391 0 1 1 16.783 0 8.391 8.391 0 0 1-16.783 0Zm127.727-32.631c-3.6 0-6.53 2.922-6.53 6.526a6.532 6.532 0 0 0 6.53 6.526c3.6 0 6.53-2.922 6.53-6.526a6.532 6.532 0 0 0-6.53-6.526Zm-8.39 6.526a8.393 8.393 0 0 1 8.39-8.391c4.63 0 8.39 3.757 8.39 8.391a8.393 8.393 0 0 1-8.39 8.391 8.393 8.393 0 0 1-8.39-8.391Z" fill="#E7EEF1"/><path d="M281.01 529.87a3.73 3.73 0 1 0 0-7.46 3.73 3.73 0 0 0 0 7.46Zm-227.483-3.729a3.73 3.73 0 1 0 0-7.46 3.73 3.73 0 0 0 0 7.46Zm74.584 167.816a3.73 3.73 0 1 0 0-7.458 3.73 3.73 0 0 0 0 7.458Zm-7.458 96.959a3.73 3.73 0 1 0 0-7.458 3.73 3.73 0 0 0 0 7.458Zm712.285-234.941a3.73 3.73 0 1 0 0-7.458 3.73 3.73 0 0 0 0 7.458Zm44.75-156.628a3.73 3.73 0 1 0 0-7.458 3.73 3.73 0 0 0 0 7.458Zm179.002-63.398a3.73 3.73 0 1 0-3.73-3.729 3.73 3.73 0 0 0 3.73 3.729ZM777 302.385a3.729 3.729 0 1 0 0-7.458 3.729 3.729 0 0 0 0 7.458Zm141.711 350.549a3.73 3.73 0 1 0-.001-7.46 3.73 3.73 0 0 0 .001 7.46Z" fill="#E7EEF1"/><path fill-rule="evenodd" clip-rule="evenodd" d="M113.195 672.327a6.712 6.712 0 1 0 0 13.425 6.712 6.712 0 0 0 0-13.425Zm-8.205 6.712a8.204 8.204 0 0 1 8.205-8.204 8.205 8.205 0 1 1-8.205 8.204Z" fill="#E7EEF1"/><path d="M1064.15 112.194a3.73 3.73 0 1 0-3.73-3.729 3.73 3.73 0 0 0 3.73 3.729Z" fill="#E7EEF1"/><path fill-rule="evenodd" clip-rule="evenodd" d="M1060.42 60.731a6.709 6.709 0 0 0-6.71 6.713c0 3.707 3 6.713 6.71 6.713s6.71-3.006 6.71-6.713c0-3.707-3-6.713-6.71-6.713Zm-8.2 6.713a8.201 8.201 0 0 1 8.2-8.204c4.53 0 8.21 3.673 8.21 8.204 0 4.531-3.68 8.204-8.21 8.204-4.53 0-8.2-3.673-8.2-8.204ZM233.312 600.473a2.922 2.922 0 0 0-4.127-.196l-8.093 7.359a2.92 2.92 0 0 0-.196 4.127l7.359 8.093a2.92 2.92 0 0 0 4.127.196l8.093-7.359a2.922 2.922 0 0 0 .196-4.127l-7.359-8.093Zm-5.381-1.575a4.785 4.785 0 0 1 6.761.321l7.359 8.093a4.786 4.786 0 0 1-.322 6.761l-8.093 7.359a4.787 4.787 0 0 1-6.761-.321l-7.359-8.093a4.786 4.786 0 0 1 .322-6.761l8.093-7.359ZM72.955 738.457a2.92 2.92 0 0 0-4.127-.196l-8.094 7.359a2.922 2.922 0 0 0-.196 4.127l7.36 8.093a2.923 2.923 0 0 0 4.126.196l8.093-7.359a2.922 2.922 0 0 0 .197-4.127l-7.36-8.093Zm-5.382-1.576a4.787 4.787 0 0 1 6.761.321l7.36 8.093a4.786 4.786 0 0 1-.322 6.761l-8.093 7.359a4.785 4.785 0 0 1-6.761-.321l-7.36-8.093a4.786 4.786 0 0 1 .322-6.761l8.093-7.359Zm695.291-468.31a2.923 2.923 0 0 0-4.127-.196l-8.093 7.359a2.92 2.92 0 0 0-.196 4.127l7.359 8.093a2.92 2.92 0 0 0 4.127.196l8.093-7.359a2.923 2.923 0 0 0 .196-4.127l-7.359-8.093Zm-5.382-1.575a4.785 4.785 0 0 1 6.761.321l7.359 8.093a4.785 4.785 0 0 1-.321 6.761l-8.093 7.359a4.787 4.787 0 0 1-6.761-.321l-7.359-8.093a4.787 4.787 0 0 1 .321-6.761l8.093-7.359ZM17.015 499.785a2.92 2.92 0 0 0-4.127-.196l-8.093 7.359a2.921 2.921 0 0 0-.196 4.127l7.359 8.093a2.922 2.922 0 0 0 4.127.196l8.093-7.359a2.922 2.922 0 0 0 .196-4.127l-7.359-8.093Zm-5.381-1.576a4.787 4.787 0 0 1 6.76.321l7.36 8.093a4.786 4.786 0 0 1-.322 6.761l-8.093 7.359a4.785 4.785 0 0 1-6.76-.321l-7.36-8.093a4.786 4.786 0 0 1 .322-6.761l8.093-7.359Zm807.168 23.951a2.923 2.923 0 0 0-4.127-.196l-8.093 7.359a2.922 2.922 0 0 0-.196 4.127l7.359 8.093a2.92 2.92 0 0 0 4.127.196l8.093-7.359a2.92 2.92 0 0 0 .196-4.127l-7.359-8.093Zm-5.381-1.575a4.785 4.785 0 0 1 6.761.321l7.359 8.093a4.787 4.787 0 0 1-.321 6.761l-8.093 7.359a4.788 4.788 0 0 1-6.762-.321l-7.358-8.093a4.785 4.785 0 0 1 .321-6.761l8.093-7.359Z" fill="#E7EEF1"/><path d="m165.756 557.272-5.887-6.475a3.083 3.083 0 0 0-4.355-.207l-6.475 5.887a3.084 3.084 0 0 0-.206 4.356l5.887 6.474a3.083 3.083 0 0 0 4.355.207l6.474-5.887a3.082 3.082 0 0 0 .207-4.355Zm733.641-173.734-4.416-4.856a2.312 2.312 0 0 0-3.266-.155l-4.856 4.415a2.313 2.313 0 0 0-.155 3.267l4.415 4.855a2.313 2.313 0 0 0 3.267.156l4.856-4.416a2.313 2.313 0 0 0 .155-3.266ZM720.392 514.061l-4.415-4.856a2.313 2.313 0 0 0-3.267-.155l-4.856 4.415a2.313 2.313 0 0 0-.155 3.267l4.415 4.855a2.313 2.313 0 0 0 3.267.156l4.856-4.416a2.312 2.312 0 0 0 .155-3.266ZM1038.4 72.47l-5.89-6.474a3.077 3.077 0 0 0-4.35-.207l-6.48 5.887a3.088 3.088 0 0 0-.21 4.355l5.89 6.475a3.089 3.089 0 0 0 4.36.207l6.47-5.887a3.088 3.088 0 0 0 .21-4.356ZM266.078 300.105l-5.761-6.587a2.943 2.943 0 0 0-4.27-.202l-6.36 6.011c-1.237 1.17-1.331 3.157-.21 4.438l5.761 6.587a2.942 2.942 0 0 0 4.27.203l6.359-6.011c1.238-1.17 1.332-3.157.211-4.439Z" fill="#E7EEF1"/><path d="M765.535 716.332H319.332a34.64 34.64 0 0 0-33.198 24.918 34.634 34.634 0 0 0-1.037 14.686l31.811 218.869a20.14 20.14 0 0 0 19.914 17.229h411.223a20.102 20.102 0 0 0 19.914-17.229l31.848-218.869a34.644 34.644 0 0 0-34.272-39.604Z" fill="#F5F8F9"/><path opacity=".8" d="M580.186 852.506a27.689 27.689 0 0 0-7.888-14.726 28.067 28.067 0 0 0-14.971-7.586 83.812 83.812 0 0 0-16.27-1.573 49.136 49.136 0 0 0-24.404 5.406c-9.355 5.528-13.992 16.381-13.423 30.582a41.481 41.481 0 0 0 10.128 27.718c6.345 6.577 18.507 9.845 27.984 10.248v7.303c0 1.18.47 2.313 1.308 3.152a4.534 4.534 0 0 0 3.166 1.326h.407a4.535 4.535 0 0 0 2.522-1.049c3.66-3.107 8.501-7.262 13.219-11.62l2.074-1.896a69.922 69.922 0 0 0 10.25-10.813 48.079 48.079 0 0 0 5.898-36.472Z" fill="#D2DFE6"/><path d="M953.766 879.904c.053.246.053.5 0 .746l-18.982 100.466c0 3.505-13.35 6.339-29.834 6.339-16.446 0-29.833-2.834-29.833-6.339l-10.815-57.207v-.634c-1.753-9.211-3.506-18.385-5.221-27.596 0-.485-.187-1.007-.299-1.567v-.82l-.783-4.028-1.603-8.614a1.77 1.77 0 0 1 0-.746 3.163 3.163 0 0 1 1.081-2.2 18.38 18.38 0 0 1 6.974-3.543 77.882 77.882 0 0 1 11.188-2.536 192.43 192.43 0 0 1 29.834-2.126c26.365 0 48.293 4.662 48.293 10.405Z" fill="#F5F8F9"/><path d="m955.108 878.785-1.454-5.072h-7.794a195.87 195.87 0 0 0-85.773 0h-7.794l-1.454 5.072c-.244.406-.373.87-.373 1.343 0 6.153 23.457 11.187 52.433 11.187s52.433-4.997 52.433-11.187a3.013 3.013 0 0 0-.224-1.343Z" fill="#ECEAE1"/><path d="M956.003 880.947c0 6.153-23.494 11.188-52.433 11.188s-52.433-4.997-52.433-11.188a2.384 2.384 0 0 1 .373-1.305l.708-2.573.709-2.536h7.831a197.206 197.206 0 0 1 85.773 0h7.831l1.417 5.109c.193.406.27.858.224 1.305Z" fill="#1D1D1D"/><path d="M903.048 884.454c27.949 0 50.606-4.808 50.606-10.74s-22.657-10.74-50.606-10.74-50.606 4.808-50.606 10.74 22.657 10.74 50.606 10.74Z" fill="#333"/><path d="m952.274 870.542-.522-1.566h-1.119c-6.227-4.326-25.172-7.459-47.622-7.459s-41.395 3.133-47.622 7.459h-.97l-.522 1.379a2.796 2.796 0 0 0-.671 1.716c0 5.855 22.375 10.591 49.785 10.591 27.41 0 49.785-4.736 49.785-10.591a2.795 2.795 0 0 0-.522-1.529Z" fill="#1D1D1D"/><path d="M903.048 880.164c26.919 0 48.741-4.641 48.741-10.367 0-5.726-21.822-10.367-48.741-10.367s-48.741 4.641-48.741 10.367c0 5.726 21.822 10.367 48.741 10.367Z" fill="#333"/><path d="m946.68 868.716-2.946-10.964h-81.372l-2.946 10.964a2.345 2.345 0 0 0-.299 1.081c0 5.147 19.653 9.323 43.931 9.323 24.277 0 43.93-4.176 43.93-9.323a2.356 2.356 0 0 0-.298-1.081Z" fill="#1D1D1D"/><path d="M903.048 866.404c22.471 0 40.686-3.873 40.686-8.652 0-4.778-18.215-8.651-40.686-8.651-22.47 0-40.686 3.873-40.686 8.651 0 4.779 18.216 8.652 40.686 8.652Z" fill="#333"/><path d="M903.049 864.388c17.218 0 31.176-2.972 31.176-6.638s-13.958-6.638-31.176-6.638c-17.219 0-31.177 2.972-31.177 6.638s13.958 6.638 31.177 6.638Zm-30.469-5.22.52.446-.52-.446Zm61.046 0-.521.446.521-.446Z" fill="#F8F7EF"/><path d="M902.861 849.473c15.44 0 28.492 3.431 32.631 8.167-4.139 4.699-17.191 8.167-32.631 8.167-15.439 0-28.528-3.468-32.668-8.167 4.14-4.736 17.192-8.167 32.668-8.167Z" fill="#333"/><path d="M902.862 854.805c14.134 0 26.105 2.014 29.834 4.774-3.729 2.759-15.775 4.736-29.834 4.736s-26.104-1.977-29.834-4.736c3.73-2.76 15.85-4.774 29.834-4.774Z" fill="#333"/><path d="M884.701 863.121a52.426 52.426 0 0 0 7.459-1.678 1.905 1.905 0 0 0 1.527-1.865 1.9 1.9 0 0 0-1.527-1.864 52.426 52.426 0 0 0-7.459-1.678 30.307 30.307 0 0 0-11.56 3.468 30.17 30.17 0 0 0 11.56 3.617Z" fill="#333"/><path d="M884.701 859.468c2.527.36 5.021.921 7.459 1.678h.335a1.906 1.906 0 0 0 .966-1.844 1.897 1.897 0 0 0-1.301-1.624 52.426 52.426 0 0 0-7.459-1.678 30.307 30.307 0 0 0-11.56 3.468 14.014 14.014 0 0 0 3.505 1.678 49.3 49.3 0 0 1 8.055-1.678Z" fill="#1D1D1D"/><path d="M934.224 857.75v.671l-.298.448-.224.224-.559.447c-3.729-2.722-15.738-4.736-29.834-4.736-14.097 0-26.105 2.014-29.834 4.736l-.559-.447-.224-.224a1.531 1.531 0 0 1-.298-.448v-.671c0-3.729 13.947-6.601 31.176-6.601s30.654 2.947 30.654 6.601Z" fill="#F8F7EF"/><path d="M934.224 857.75v.671l-.298.448-.224.224-.559.447c-3.729-2.722-15.738-4.736-29.834-4.736-14.097 0-26.105 2.014-29.834 4.736l-.559-.447-.224-.224a1.531 1.531 0 0 1-.298-.448v-.671c0-3.729 13.947-6.601 31.176-6.601s30.654 2.947 30.654 6.601Z" fill="#1D1D1D"/><path d="M948.88 909.476c.035.209.035.423 0 .632v-.632Z" fill="#F8F7EF"/><path d="M903.794 917.084a18.644 18.644 0 0 0-18.288 22.284 18.641 18.641 0 0 0 14.65 14.65 18.643 18.643 0 0 0 19.141-7.929 18.644 18.644 0 0 0-15.503-29.005Zm-6.042 11.188a5.479 5.479 0 0 1 4.119-.578 5.476 5.476 0 0 1 3.34 2.48 7.167 7.167 0 0 1-6.042 1.939 7.042 7.042 0 0 0-5.743 1.603 5.963 5.963 0 0 1 4.177-5.519l.149.075Zm-4.4 6.265a6.076 6.076 0 0 1 5.519-1.716 9.177 9.177 0 0 0 4.028-.484 7.012 7.012 0 0 0 2.237-1.38 5.97 5.97 0 0 1-4.4 5.519 5.482 5.482 0 0 1-7.384-1.939Zm5.706 3.953a5.512 5.512 0 0 1 3.47-2.133 5.514 5.514 0 0 1 3.988.828 7.093 7.093 0 0 1-4.699 4.288 7.019 7.019 0 0 0-4.587 3.729 6.008 6.008 0 0 1 1.828-6.936v.224Zm6.153 6.19c-2.424 2.387-5.743 2.984-7.459 1.268a6.162 6.162 0 0 1 4.326-3.729 8.73 8.73 0 0 0 3.468-2.088 7.035 7.035 0 0 0 1.492-2.163 6.003 6.003 0 0 1-1.827 6.638v.074Zm1.454-13.872c.671-3.357 3.133-5.706 5.482-5.221a7.039 7.039 0 0 1-1.492 6.153 6.976 6.976 0 0 0-1.678 5.743 6.121 6.121 0 0 1-2.312-6.675Zm8.615 1.678c-.672 3.356-3.133 5.705-5.482 5.258a6.269 6.269 0 0 1 1.454-5.631 8.874 8.874 0 0 0 1.716-3.729c.17-.875.17-1.774 0-2.648a6.083 6.083 0 0 1 2.312 6.675v.075Z" fill="#007B47"/><path opacity=".08" d="M903.825 857.695s-10.553-11.821-12.493-13.425a141.745 141.745 0 0 1-13.947-11.859 15.55 15.55 0 0 1-2.2-2.946 8.46 8.46 0 0 1-1.156-3.244 6.459 6.459 0 0 1 .447-3.469 9.036 9.036 0 0 1 2.275-3.17 29.098 29.098 0 0 1 9.696-5.22 131.387 131.387 0 0 1 18.05-4.848 51.891 51.891 0 0 0 8.241-2.313 12.37 12.37 0 0 0 3.953-2.163c.217-.196.405-.422.56-.671a.529.529 0 0 0 0-.224 2.84 2.84 0 0 0 0-.261 2.13 2.13 0 0 0-.411-.596 16.994 16.994 0 0 0-6.153-3.73 37.675 37.675 0 0 0-9.248-2.461 73.72 73.72 0 0 1-14.134-3.17 22.662 22.662 0 0 1-8.428-4.997 11.172 11.172 0 0 1-2.275-3.319 8.876 8.876 0 0 1-.746-3.729 11.372 11.372 0 0 1 2.611-6.675 29.12 29.12 0 0 1 12.381-8.652 33.072 33.072 0 0 1 5.966-1.716c.497-.034.995-.034 1.492 0 2.648 0 7.272 0 6.265 3.729-.895 2.835-2.648 2.76-5.407 3.208l-1.082.186c-1.6.304-3.171.74-4.699 1.305a22.375 22.375 0 0 0-9.509 6.191 5.18 5.18 0 0 0-1.305 2.685c-.074.319-.074.65 0 .969.19.491.483.936.857 1.306a16.756 16.756 0 0 0 5.893 3.468c7.906 2.983 15.513 2.909 23.457 6.302a20.995 20.995 0 0 1 8.278 5.743c.485.637.875 1.34 1.156 2.089a5.4 5.4 0 0 1 .373 2.536 5.473 5.473 0 0 1-.783 2.535 7.766 7.766 0 0 1-1.752 2.052 18.647 18.647 0 0 1-5.669 3.02 64.085 64.085 0 0 1-9.137 2.275 141.08 141.08 0 0 0-17.564 4.065 27.11 27.11 0 0 0-8.205 3.99 5.58 5.58 0 0 0-1.454 1.753 3.18 3.18 0 0 0-.261 1.566c.085.693.3 1.364.634 1.977a17.616 17.616 0 0 0 1.641 2.461 143.69 143.69 0 0 0 12.978 12.195c1.79 1.827 11.97 12.157 10.814 15.252Z" fill="#000"/><path opacity=".08" d="M918.22 857.136s0-.634.187-.671a8.617 8.617 0 0 0-.709-4.513 10.716 10.716 0 0 0-2.722-3.468 47.092 47.092 0 0 0-9.211-5.594 42.011 42.011 0 0 1-9.547-6.004 12.158 12.158 0 0 1-3.021-4.251 9.587 9.587 0 0 1-.41-5.519 5.746 5.746 0 0 1 1.38-2.723 9.417 9.417 0 0 1 2.498-2.013 27.158 27.158 0 0 1 7.049-2.648c5.668-1.417 11.374-2.163 17.117-3.319a42.766 42.766 0 0 0 6.787-1.939 8.661 8.661 0 0 0 2.088-1.119c.404-.248.737-.595.97-1.007.17-.293.236-.635.186-.97a4.469 4.469 0 0 0-.745-1.79 18.676 18.676 0 0 0-2.835-3.319c-1.156-1.119-3.468-2.983-2.125-4.661 1.342-1.678 4.102.671 5.258 1.752a21.952 21.952 0 0 1 3.468 4.214 8.052 8.052 0 0 1 1.194 3.394 5.334 5.334 0 0 1-.672 3.207 6.855 6.855 0 0 1-2.2 2.312 13.242 13.242 0 0 1-2.983 1.529 48.525 48.525 0 0 1-7.459 1.977c-5.706 1.007-11.411 1.641-17.08 2.834a25.594 25.594 0 0 0-6.228 2.126 6.339 6.339 0 0 0-1.79 1.305 3.396 3.396 0 0 0-.82 1.417 7.678 7.678 0 0 0 0 4.102 9.285 9.285 0 0 0 2.237 3.394 43.171 43.171 0 0 0 8.727 5.967 42.52 42.52 0 0 1 9.211 6.339 11.375 11.375 0 0 1 2.685 4.065 8.05 8.05 0 0 1 0 4.96s-.373.671-.485.634Z" fill="#000"/><path d="M840.285 949.297v50.345c-.746 13.168-5.743 23.908-35.353 23.908-30.767 0-34.943-11.49-35.391-25.475v-48.778c0-19.392.746 2.2 35.391 2.2 34.644 0 35.353-21.592 35.353-2.2Z" fill="#2CC3D5"/><path d="M839.95 942.994c0 6.899-15.7 12.531-35.092 12.531s-35.092-5.632-35.092-12.531c0-6.899 15.7-12.567 35.092-12.567s35.092 5.631 35.092 12.567Z" fill="#2CC3D5"/><path d="M836.854 943.218c0 5.855-14.208 10.591-31.773 10.591-17.565 0-31.81-4.736-31.81-10.591 0-5.855 14.245-10.591 31.81-10.591 17.565 0 31.773 4.736 31.773 10.591Z" fill="#2498A8"/><mask id="user-2__e" style="mask-type:alpha" maskUnits="userSpaceOnUse" x="773" y="932" width="64" height="22"><path d="M836.853 943.218c0 5.855-14.208 10.591-31.773 10.591-17.565 0-31.81-4.736-31.81-10.591 0-5.855 14.245-10.591 31.81-10.591 17.565 0 31.773 4.736 31.773 10.591Z" fill="#2498A8"/></mask><g mask="url(#user-2__e)"><path d="M772.71 949.669c0 5.333 14.208 9.659 31.736 9.659 17.527 0 31.773-4.326 31.773-9.659 0-5.333-14.209-9.622-31.773-9.622-17.565 0-31.736 4.326-31.736 9.622Z" fill="#594339"/></g><path d="M816.082 884.446a2.904 2.904 0 0 1 3.173.396 2.904 2.904 0 0 1 .891 3.072c-2.61 8.279-7.458 24.986-7.458 30.655.224 7.682-12.717 2.871-12.717 2.871l-7.272-8.353s11.337-22.861 23.383-28.641Z" fill="#8E9F20"/><path d="M775.024 892.315c7.719 21.704 11.187 51.799 19.615 56.237 4.028 2.051 17.416 1.156 17.416 1.156a5.644 5.644 0 0 0 2.372-.508 5.648 5.648 0 0 0 3.083-3.597 5.646 5.646 0 0 0 .139-2.422c-1.827-11.635-9.174-36.36-38.71-54.335a2.76 2.76 0 0 0-3.915 3.469Z" fill="#B3C924"/><path d="M837.302 892.315c-7.757 21.705-11.598 49.338-18.647 55.939-3.169 2.909-18.347 1.604-18.347 1.604a5.672 5.672 0 0 1-5.441-4.111 5.652 5.652 0 0 1-.153-2.416c1.827-11.635 9.211-36.36 38.747-54.335a2.758 2.758 0 0 1 3.868 1.732c.147.52.137 1.072-.027 1.587Z" fill="#BED42B"/><path d="M833.536 920.917c-3.133 7.011-7.123 22.376-9.957 26.403-1.828 2.573-5.967 2.685-12.307 2.685-2.386 0 .373-18.646 20.325-30.803a1.342 1.342 0 0 1 1.939 1.715Zm-58.625-1.937c3.319 7.458 7.459 23.867 10.554 28.006 1.939 2.723 7.458 2.872 14.32 2.872 2.573 0-1.604-19.84-22.786-32.743a1.452 1.452 0 0 0-2.208.946c-.061.311-.019.634.12.919Z" fill="#C5DC2D"/><path d="M248.118 945.234H68.108v-49.003h180.01a22.38 22.38 0 0 1 22.375 22.376v4.326a22.372 22.372 0 0 1-6.58 15.773 22.372 22.372 0 0 1-15.795 6.528Z" fill="#F5F8F9"/><path fill-rule="evenodd" clip-rule="evenodd" d="M251.848 904.193H60.985V892.67h190.863c12.777 0 24.408 9.383 24.408 22.133v10.367c0 12.879-11.612 22.133-24.408 22.133H60.985V935.78h190.863c7.864 0 12.884-5.439 12.884-10.61v-10.367c0-5.076-5.076-10.61-12.884-10.61Z" fill="#F99B45"/><path d="M268.406 892.128H88.396v-49.003h180.01a22.377 22.377 0 0 1 22.375 22.376v4.326a22.372 22.372 0 0 1-22.375 22.301Z" fill="#F5F8F9"/><path fill-rule="evenodd" clip-rule="evenodd" d="M272.135 851.088H81.272v-11.524h190.863c12.778 0 24.408 9.383 24.408 22.133v10.368c0 12.879-11.612 22.133-24.408 22.133H81.272v-11.524h190.863c7.864 0 12.885-5.438 12.885-10.609v-10.368c0-5.075-5.077-10.609-12.885-10.609Z" fill="#F66689"/><path d="M258.859 1009.67H81.272v-60.187H258.86a24.801 24.801 0 0 1 24.762 24.763v10.665a24.758 24.758 0 0 1-24.762 24.759Z" fill="#F5F8F9"/><path fill-rule="evenodd" clip-rule="evenodd" d="M264.894 958.005H74.15v-11.524h190.972l.109.005a25.152 25.152 0 0 1 24.19 25.916v12.563a25.157 25.157 0 0 1-6.717 17.905 25.138 25.138 0 0 1-17.473 8.01l-.109.01H74.15v-11.528h190.744a13.629 13.629 0 0 0 13.007-14.098l-.004-.102v-12.957l.004-.102a13.63 13.63 0 0 0-13.007-14.098Z" fill="#2CC3D5"/><path d="M593.424 84.767c-5.14-6.48-12.426-9.082-18.477-14.721l-1.981.45a161.583 161.583 0 0 1 16.56 17.347c2.503 3.183 5.078 6.08 7.153 9.657a95.687 95.687 0 0 1 6.08 10.265 72.314 72.314 0 0 1 7.153 46.21 101.82 101.82 0 0 1-21.459 42.919 99.402 99.402 0 0 0 24.178-42.311 76.186 76.186 0 0 0-6.045-48.714 110.873 110.873 0 0 0-13.162-21.102Zm-63.695 84.021a34.521 34.521 0 0 0-26.061-10.595 75.092 75.092 0 0 0-28.285 5.829 85.157 85.157 0 0 0-24.153 15.382 126.39 126.39 0 0 0-19.265 21.29 128.327 128.327 0 0 0-14.204 25.029 94.209 94.209 0 0 0-7.128 27.57 75.11 75.11 0 0 0 15.058 53.293c2.808 3.789 5.929 7.285 9.16 11.266a104.678 104.678 0 0 1 8.517 12.357 87.37 87.37 0 0 1 10.183 28.229c3.583 19.858.18 39.735-.92 58.879a58.778 58.778 0 0 0 4.15 27.798 40.536 40.536 0 0 0 8.273 11.311 58.933 58.933 0 0 0 11.51 8.384 73.71 73.71 0 0 1 22.725 18.757 63.54 63.54 0 0 1 7.497 12.576 128.403 128.403 0 0 1 4.972 13.908 80.414 80.414 0 0 0-13.561-25.61 71.718 71.718 0 0 0-22.874-17.345 61.478 61.478 0 0 1-12.42-8.414 43.81 43.81 0 0 1-9.211-12.001 62.34 62.34 0 0 1-5.21-29.403c.158-9.939 1.243-19.62 1.696-29.296.653-9.594.188-19.231-1.387-28.718a82.493 82.493 0 0 0-9.81-26.521 102.886 102.886 0 0 0-8.161-11.662c-2.966-3.592-6.408-7.326-9.41-11.375a83.146 83.146 0 0 1-13.138-26.886 78.46 78.46 0 0 1-2.332-29.938 97.077 97.077 0 0 1 7.702-28.841 119.343 119.343 0 0 1 15.113-25.732 128.368 128.368 0 0 1 20.336-21.508 85.303 85.303 0 0 1 25.413-15.238 76.75 76.75 0 0 1 29.107-4.688 42.454 42.454 0 0 1 14.417 3.218 28.62 28.62 0 0 1 11.701 8.695Z" fill="#2C2A46"/><path d="M511.738 179.053a34.504 34.504 0 0 1 19.871-19.915 75.1 75.1 0 0 1 28.319-5.657 85.15 85.15 0 0 1 28.238 4.752 126.381 126.381 0 0 1 26.04 12.097 128.412 128.412 0 0 1 22.837 17.513 94.226 94.226 0 0 1 17.31 22.612 75.11 75.11 0 0 1 6.905 54.947c-1.109 4.584-2.621 9.02-4.045 13.945a104.596 104.596 0 0 0-3.027 14.7 87.355 87.355 0 0 0 1.625 29.965c4.441 19.684 15.321 36.663 23.796 53.864a58.763 58.763 0 0 1 7.013 27.217 40.518 40.518 0 0 1-3.21 13.642 58.942 58.942 0 0 1-7.332 12.207 73.716 73.716 0 0 0-13.616 26.131 63.521 63.521 0 0 0-2.002 14.503c-.003 4.927.278 9.851.842 14.746a80.38 80.38 0 0 1 2.507-28.87 71.71 71.71 0 0 1 14.303-24.889 61.408 61.408 0 0 0 8.158-12.59 43.81 43.81 0 0 0 3.806-14.642 62.356 62.356 0 0 0-6.663-29.108c-4.019-9.092-8.792-17.584-12.98-26.319a123.966 123.966 0 0 1-9.917-26.986 82.533 82.533 0 0 1-1.302-28.247 102.701 102.701 0 0 1 2.97-13.921c1.331-4.464 3.046-9.244 4.232-14.143a83.174 83.174 0 0 0 1.62-29.881 78.469 78.469 0 0 0-9.522-28.479 97.071 97.071 0 0 0-18.334-23.558 119.346 119.346 0 0 0-23.948-17.807 128.33 128.33 0 0 0-27.11-11.88 85.293 85.293 0 0 0-29.343-4.127 76.742 76.742 0 0 0-28.632 7.027 42.476 42.476 0 0 0-12.022 8.583 28.613 28.613 0 0 0-7.387 12.568Z" fill="#2C2A46"/><path d="M668.843 279.292v121.311c0 54.508-40.984 100.037-95.641 111.177a132.021 132.021 0 0 1-26.081 2.571h-6.371a130.23 130.23 0 0 1-26.08-2.608c-54.657-11.177-95.604-56.669-95.604-111.14V279.292c0-62.817 54.471-113.749 121.61-113.749h6.483c67.25 0 121.684 50.932 121.684 113.749Z" fill="#2C2A46"/><path d="M545.445 578.994c20.68 0 37.444-13.812 37.444-30.85 0-17.037-16.764-30.849-37.444-30.849-20.68 0-37.444 13.812-37.444 30.849 0 17.038 16.764 30.85 37.444 30.85Z" fill="#F3C29F"/><path fill-rule="evenodd" clip-rule="evenodd" d="M545.445 519.657c-19.824 0-35.083 13.162-35.083 28.487 0 15.326 15.259 28.488 35.083 28.488 19.824 0 35.082-13.162 35.082-28.488 0-15.325-15.258-28.487-35.082-28.487Zm-39.806 28.487c0-18.749 18.27-33.211 39.806-33.211 21.535 0 39.806 14.462 39.806 33.211 0 18.75-18.271 33.212-39.806 33.212-21.536 0-39.806-14.462-39.806-33.212Z" fill="#fff"/><path d="M548.463 476.422h-6.073c-8.232.012-16.44-.875-24.479-2.645v70.789a24.674 24.674 0 0 0 7.211 17.465 24.666 24.666 0 0 0 17.454 7.237h5.7a24.666 24.666 0 0 0 24.665-24.702v-70.827a115.147 115.147 0 0 1-24.478 2.683Z" fill="#F3C29F"/><path d="M517.985 492.965v20.38s5.924-10.097 27.534-10.208c21.609-.112 27.496 11.177 27.496 11.177v-24.478l-55.03-1.006v4.135Z" fill="#E8AA7D"/><path d="M662.957 262.266v118.927c0 53.39-38.525 98.025-90.015 108.942a117.608 117.608 0 0 1-24.478 2.533h-6.073a115.425 115.425 0 0 1-24.479-2.571c-51.453-10.879-90.015-55.551-90.015-108.904V262.266c0-61.587 51.267-111.513 114.494-111.513h6.073c63.263 0 114.493 49.963 114.493 111.513Zm-235.06 64.567v52.384a17.81 17.81 0 0 1-17.511-17.846v-16.692a17.846 17.846 0 0 1 17.511-17.846Z" fill="#F3C29F"/><path d="M680.467 344.679v16.692a17.806 17.806 0 0 1-17.511 17.846v-52.384a17.847 17.847 0 0 1 17.511 17.846Z" fill="#F3C29F"/><path d="M660.198 292.332s2.161 37.518 0 51.937c-2.161 14.419 8.644-51.937 8.644-51.937h-8.644Zm-228.129 20.156s-1.975 37.518 0 52.161c1.974 14.642-8.644-52.161-8.644-52.161h8.644Zm62.854-184.276a56.225 56.225 0 0 1 30.891-57.74 56.222 56.222 0 1 1-30.891 57.74Z" fill="#2C2A46"/><path fill-rule="evenodd" clip-rule="evenodd" d="M590.923 60.375a4.723 4.723 0 0 1 2.497 6.197l-38.413 90.275a4.724 4.724 0 0 1-8.63.142l-21.684-46.647a4.725 4.725 0 0 1 8.567-3.982l17.21 37.021 34.257-80.508a4.724 4.724 0 0 1 6.196-2.498Z" fill="#F66689"/><path d="M430.988 332.347a17.322 17.322 0 0 1-19.15-14.643c-1.23-8.271-2.534-17.846-2.944-23.845-4.508-64.083 47.28-138.897 105.104-138.897h80.217c69.187 8.644 95.64 91.58 80.253 157.228a9.318 9.318 0 0 1-9.04 7.119 9.302 9.302 0 0 1-4-.897c-4.807-2.198-11.699-5.253-21.386-9.314-26.379-11.177-43.965-50.149-43.965-50.149s0 21.051-62.593 50.149c-28.092 13.077-76.974 20.231-102.496 23.249Z" fill="#2C2A46"/><path d="M605.158 222.064a166.01 166.01 0 0 1-6.51 28.113 168.589 168.589 0 0 1-11.016 26.896 130.872 130.872 0 0 1-15.916 24.607 115.827 115.827 0 0 1-10.121 10.73 372.639 372.639 0 0 1-5.759 4.757c-.966.787-1.895 1.609-2.933 2.325l-3.147 2.003a154.274 154.274 0 0 1-54.83 20.064 196.448 196.448 0 0 1-28.863 2.969 168.619 168.619 0 0 1-28.828-1.466 281.381 281.381 0 0 0 56.511-7.154 205.583 205.583 0 0 0 26.932-8.119c2.217-.786 4.328-1.752 6.509-2.682 2.182-.93 4.328-1.753 6.367-2.861l6.259-3.148c2.039-1.109 3.863-2.432 5.83-3.576l2.933-1.789c.93-.644 1.788-1.395 2.682-2.11l5.508-4.542c3.255-3.291 6.688-6.367 9.621-9.979a143.401 143.401 0 0 0 16.095-22.962 212.672 212.672 0 0 0 12.733-25.358 276.72 276.72 0 0 0 9.943-26.718Z" fill="#2C2A46"/><defs><filter id="user-2__a" x="35.535" y="973.432" width="303.969" height="55.034" filterUnits="userSpaceOnUse" color-interpolation-filters="sRGB"><feFlood flood-opacity="0" result="BackgroundImageFix"/><feBlend in="SourceGraphic" in2="BackgroundImageFix" result="shape"/><feGaussianBlur stdDeviation="7" result="effect1_foregroundBlur_10272_1615"/></filter><filter id="user-2__b" x="276.586" y="973.432" width="521.364" height="55.034" filterUnits="userSpaceOnUse" color-interpolation-filters="sRGB"><feFlood flood-opacity="0" result="BackgroundImageFix"/><feBlend in="SourceGraphic" in2="BackgroundImageFix" result="shape"/><feGaussianBlur stdDeviation="7" result="effect1_foregroundBlur_10272_1615"/></filter><filter id="user-2__c" x="703.492" y="999.339" width="171.053" height="55.034" filterUnits="userSpaceOnUse" color-interpolation-filters="sRGB"><feFlood flood-opacity="0" result="BackgroundImageFix"/><feBlend in="SourceGraphic" in2="BackgroundImageFix" result="shape"/><feGaussianBlur stdDeviation="7" result="effect1_foregroundBlur_10272_1615"/></filter><linearGradient id="user-2__d" x1="541.122" y1="1050.69" x2="542.057" y2="465.171" gradientUnits="userSpaceOnUse"><stop offset=".108" stop-color="#DAF2F4"/><stop offset="1" stop-color="#DAF2F4" stop-opacity="0"/></linearGradient></defs></svg>