<svg width="1080" height="1081" viewBox="0 0 1080 1081" fill="none" xmlns="http://www.w3.org/2000/svg">
<g clip-path="url(#clip0_204_28695)">
<circle cx="884.658" cy="712.628" r="159.871" fill="#1968F0"/>
<circle opacity="0.3" cx="387.723" cy="606.708" r="336.075" fill="#E0E0E0"/>
<path d="M882.837 563.533C874.721 513.859 842.088 473.166 797.957 457.585L646.458 403.511V361.352H527.253V403.511L507.978 410.477L375.754 457.585C331.623 473.349 298.99 514.042 290.874 563.533L241.332 863.598H527.423H646.796H932.379L882.837 563.533Z" fill="#FBCF23"/>
<path d="M391.307 643.637V863.049L569.521 863.782L391.307 643.637Z" fill="url(#paint0_linear_204_28695)"/>
<path d="M572.005 300.314H726.35C735.82 300.314 743.578 290.434 743.578 278.373V129.789C743.578 117.728 735.82 107.848 726.35 107.848H572.005C562.535 107.848 554.777 117.728 554.777 129.789V278.373C554.777 290.434 562.535 300.314 572.005 300.314Z" fill="#141414"/>
<path d="M429.029 300.314H583.374C592.844 300.314 600.602 290.434 600.602 278.373V129.789C600.602 117.728 592.844 107.848 583.374 107.848H429.029C419.558 107.848 411.801 117.728 411.801 129.789V278.373C411.801 290.434 419.558 300.314 429.029 300.314Z" fill="#141414"/>
<path fill-rule="evenodd" clip-rule="evenodd" d="M537.439 52.8555H502.733L492.402 66.2366V329.458L502.733 342.839H527.23V395.63H548.3H625.963H648.209V342.839H670.994L681.203 329.458V66.2366L670.994 52.8555H637.878H537.439Z" fill="#FCAA73"/>
<path d="M460.628 276.483H505.284V206.828H444.795V260.689C444.795 269.396 451.899 276.483 460.628 276.483Z" fill="#FCAA73"/>
<path d="M703.913 276.483H659.257V206.828H719.746V260.689C719.746 269.396 712.642 276.483 703.913 276.483Z" fill="#FCAA73"/>
<path d="M674.776 52.8555L689.415 66.2366L690.418 217.094L689.215 217.827L543.223 83.6502L468.623 165.769V66.2366L483.262 52.8555H674.776Z" fill="#141414"/>
<path d="M670.625 270.432H633.965V213.059H683.64V257.601C683.64 264.75 677.774 270.432 670.625 270.432Z" fill="#FCAA73"/>
<path d="M570.908 342.66H525.266V360.99H570.908V342.66Z" fill="url(#paint1_linear_204_28695)"/>
<path d="M506.865 378.629H662.672V439.118H506.865V378.629Z" fill="#FACF23"/>
<path d="M739.813 701.112L714.266 546.125L892.245 535.906L932.268 701.112H739.813Z" fill="#FBCF23"/>
<path d="M895.649 560.603C895.649 620.332 847.229 668.753 787.499 668.753C727.77 668.753 679.35 620.332 679.35 560.603C679.35 500.873 727.77 452.453 787.499 452.453C847.229 452.453 895.649 500.873 895.649 560.603Z" fill="#FACF23"/>
<path fill-rule="evenodd" clip-rule="evenodd" d="M921.937 698.215L944.528 826.628C946.421 834.553 947.423 842.824 947.423 851.329C947.423 909.836 899.994 957.265 841.487 957.265C837.403 957.265 833.372 957.034 829.408 956.584H482.184V782.863H756.241L741.573 698.215H921.937Z" fill="#FCAA73"/>
<path d="M738.566 575.544L637.326 579.691C630.992 579.921 626.039 585.334 626.269 591.669L628.458 645.226C628.688 651.56 634.101 656.513 640.436 656.282L741.675 652.136C748.01 651.906 752.962 646.493 752.732 640.158L750.544 586.601C750.313 580.152 744.9 575.199 738.566 575.544Z" fill="url(#paint2_linear_204_28695)"/>
<path d="M664.735 642.916C678.475 642.916 689.613 631.778 689.613 618.038C689.613 604.298 678.475 593.16 664.735 593.16C650.996 593.16 639.857 604.298 639.857 618.038C639.857 631.778 650.996 642.916 664.735 642.916Z" fill="#C5D9FB"/>
<path d="M664.754 619.394C669.649 619.194 673.468 615.425 673.287 610.976C673.105 606.527 668.99 603.082 664.096 603.282C659.202 603.482 655.382 607.251 655.564 611.7C655.746 616.149 659.86 619.594 664.754 619.394Z" fill="#1968F0"/>
<path d="M665.776 642.921C672.687 642.69 678.906 639.466 683.052 634.628C680.173 627.487 673.032 622.535 664.97 622.88C656.792 623.226 650.112 628.754 647.809 636.125C652.416 640.502 658.75 643.151 665.776 642.921Z" fill="#1968F0"/>
<path d="M738.798 628.753L702.863 630.25C700.79 630.365 698.947 628.753 698.947 626.565L698.602 617.005C698.486 614.932 700.099 613.089 702.287 613.089L738.222 611.592C740.295 611.477 742.138 613.089 742.138 615.277L742.483 624.837C742.598 626.91 740.871 628.638 738.798 628.753Z" fill="#1968F0"/>
<path d="M721.984 608.026L700.216 608.947C699.064 608.947 698.142 608.141 698.142 606.989L698.027 604.916C698.027 603.765 698.834 602.843 699.985 602.843L721.753 601.922C722.905 601.922 723.827 602.728 723.827 603.88L723.942 605.953C723.942 607.105 723.136 608.026 721.984 608.026Z" fill="#C5D9FB"/>
<path d="M710.335 567.94L664.427 569.819C662.471 569.937 661.09 571.581 661.09 573.461L661.435 582.857C661.55 584.854 663.161 586.264 665.002 586.264L710.911 584.385C712.867 584.267 714.247 582.623 714.247 580.743L713.902 571.346C713.902 569.349 712.291 567.822 710.335 567.94Z" fill="#A3A3A3"/>
<path d="M436.033 701.112L461.58 546.125L283.601 535.906L243.577 701.112H436.033Z" fill="#FACF23"/>
<path d="M280.194 560.603C280.194 620.332 328.615 668.753 388.344 668.753C448.074 668.753 496.494 620.332 496.494 560.603C496.494 500.873 448.074 452.453 388.344 452.453C328.615 452.453 280.194 500.873 280.194 560.603Z" fill="#FACF23"/>
<path fill-rule="evenodd" clip-rule="evenodd" d="M253.902 698.215L231.311 826.629C229.419 834.554 228.416 842.824 228.416 851.329C228.416 898.424 259.148 938.342 301.652 952.122V956.584H322.273C326.237 957.034 330.268 957.265 334.352 957.265C338.437 957.265 342.467 957.034 346.431 956.584H662.719V782.863H419.598L434.266 698.215H253.902Z" fill="#FCAA73"/>
<path d="M954.374 342.473L851.096 1024.35H324.17L223 342.473H954.374Z" fill="url(#paint3_linear_204_28695)"/>
<path fill-rule="evenodd" clip-rule="evenodd" d="M440.675 740.234H278.71C270.199 740.234 263.772 748.049 265.335 756.386L319.184 1033.57C320.574 1040 326.133 1044.52 332.56 1044.52H386.826H788.717H842.983C849.41 1044.52 854.969 1040 856.358 1033.57L910.208 756.386C911.771 748.049 905.344 740.234 896.833 740.234H734.868H440.675Z" fill="#0C4EC0"/>
<path d="M596.275 843.336C562.157 843.336 543.857 856.208 543.857 889.706C543.857 919.637 559.366 942.744 596.275 942.744C597.206 942.744 599.067 942.744 599.067 942.744C599.067 947.086 599.067 952.669 599.067 957.477C599.067 958.718 599.997 959.803 601.393 959.803C602.479 959.803 602.789 959.338 603.719 958.562C610.233 952.979 629.463 935.455 629.463 935.455C639.078 926.305 648.693 915.449 648.693 889.706C648.693 856.208 630.394 843.336 596.275 843.336Z" fill="#0096FA"/>
<g opacity="0.2" filter="url(#filter0_f_204_28695)">
<path d="M345 1048.02C345 1056.58 282.096 1063.52 204.5 1063.52C126.904 1063.52 64 1056.58 64 1048.02C64 1039.46 126.904 1032.52 204.5 1032.52C282.096 1032.52 345 1039.46 345 1048.02Z" fill="#0A0F1A"/>
</g>
<path d="M289.46 933.611H97.082V881.242H289.46C295.802 881.242 301.884 883.762 306.369 888.246C310.853 892.731 313.373 898.813 313.373 905.155V909.778C313.352 916.106 310.823 922.168 306.341 926.635C301.859 931.103 295.788 933.611 289.46 933.611Z" fill="#F5F8F9"/>
<path fill-rule="evenodd" clip-rule="evenodd" d="M300.726 889.831H89.4707V877.516H307.216C320.872 877.516 319.531 887.543 319.531 901.169V912.249C319.531 926.012 320.891 935.903 307.216 935.903H89.4707V923.587H300.726C309.131 923.587 307.216 917.775 307.216 912.249V901.169C307.216 895.745 309.071 889.831 300.726 889.831Z" fill="#1968F0"/>
<path d="M289.458 1049.38H97.0801V997.012H289.458C295.8 997.012 301.882 999.531 306.367 1004.02C310.851 1008.5 313.371 1014.58 313.371 1020.92V1025.55C313.35 1031.88 310.821 1037.94 306.339 1042.4C301.857 1046.87 295.786 1049.38 289.458 1049.38Z" fill="#F5F8F9"/>
<path fill-rule="evenodd" clip-rule="evenodd" d="M300.724 1005.6H89.4688V993.285H307.214C320.87 993.285 319.529 1003.31 319.529 1016.94V1028.02C319.529 1041.78 320.889 1051.67 307.214 1051.67H89.4688V1039.36H300.724C309.129 1039.36 307.214 1033.54 307.214 1028.02V1016.94C307.214 1011.51 309.069 1005.6 300.724 1005.6Z" fill="#454545"/>
<path d="M263.849 990.927H71.4707V938.559H263.849C270.191 938.559 276.273 941.078 280.758 945.562C285.242 950.047 287.761 956.129 287.761 962.471V967.094C287.74 973.423 285.212 979.485 280.729 983.952C276.247 988.419 270.177 990.928 263.849 990.927Z" fill="#F5F8F9"/>
<path fill-rule="evenodd" clip-rule="evenodd" d="M275.115 947.147H63.8594V934.832H281.605C295.26 934.832 293.92 944.86 293.92 958.486V969.565C293.92 983.329 295.28 993.219 281.605 993.219H63.8594V980.904H275.115C283.52 980.904 281.605 975.091 281.605 969.565V958.486C281.605 953.061 283.459 947.147 275.115 947.147Z" fill="#0096FA"/>
<g opacity="0.2" filter="url(#filter1_f_204_28695)">
<path d="M989.794 1033.59C989.794 1039.84 962.977 1044.91 929.897 1044.91C896.817 1044.91 870 1039.84 870 1033.59C870 1027.34 896.817 1022.27 929.897 1022.27C962.977 1022.27 989.794 1027.34 989.794 1033.59Z" fill="#0A0F1A"/>
</g>
<path d="M919.521 942.129C929.067 942.129 936.805 934.389 936.805 924.843C936.805 915.297 929.067 907.559 919.521 907.559C909.975 907.559 902.236 915.297 902.236 924.843C902.236 934.389 909.975 942.129 919.521 942.129Z" fill="#C5D9FB"/>
<path d="M946.469 938.221C952.833 938.221 957.992 933.061 957.992 926.697C957.992 920.333 952.833 915.176 946.469 915.176C940.105 915.176 934.945 920.333 934.945 926.697C934.945 933.061 940.105 938.221 946.469 938.221Z" fill="#C5D9FB"/>
<path d="M937.728 901.796C944.606 901.796 950.181 896.221 950.181 889.343C950.181 882.466 944.606 876.891 937.728 876.891C930.851 876.891 925.277 882.466 925.277 889.343C925.277 896.221 930.851 901.796 937.728 901.796Z" fill="#C5D9FB"/>
<path d="M926.395 890.088C934.299 890.088 940.707 883.68 940.707 875.776C940.707 867.872 934.299 861.465 926.395 861.465C918.492 861.465 912.084 867.872 912.084 875.776C912.084 883.68 918.492 890.088 926.395 890.088Z" fill="#C5D9FB"/>
<path d="M950.368 853.845C955.706 853.845 960.031 849.518 960.031 844.181C960.031 838.843 955.706 834.516 950.368 834.516C945.03 834.516 940.703 838.843 940.703 844.181C940.703 849.518 945.03 853.845 950.368 853.845Z" fill="#C5D9FB"/>
<path d="M970.07 1032.27H890.151C884.018 1032.27 879 1027.25 879 1021.12V936.179C879 930.045 884.018 925.027 890.151 925.027H970.07C976.203 925.027 981.221 930.045 981.221 936.179V1021.12C981.221 1027.25 976.203 1032.27 970.07 1032.27Z" fill="#0066FF"/>
<path d="M978.062 1018.33V1004.02C991.072 1004.02 1001.67 993.422 1001.67 980.412C1001.67 967.402 991.072 956.807 978.062 956.807V942.496C998.878 942.496 1015.98 959.41 1015.98 980.412C1015.98 1001.41 999.064 1018.33 978.062 1018.33Z" fill="#0066FF"/>
<path d="M304.434 620.205C306.554 617.953 308.196 615.291 309.262 612.382C310.327 609.473 310.793 606.377 310.631 603.281C310.469 600.185 309.683 597.155 308.321 594.374C306.958 591.593 305.048 589.119 302.705 587.102L301.573 586.109C296.738 581.936 290.494 579.785 284.128 580.101C277.763 580.416 271.76 583.174 267.357 587.806C265.221 590.049 263.565 592.708 262.489 595.619C261.414 598.53 260.943 601.632 261.105 604.732C261.267 607.833 262.059 610.868 263.431 613.65C264.804 616.432 266.729 618.902 269.087 620.908L270.219 621.901C275.054 626.075 281.298 628.225 287.663 627.91C294.029 627.594 300.032 624.836 304.434 620.205Z" fill="#636363"/>
<path d="M285.392 666.857L308.985 687.546L375.975 615.694L352.382 595.005C344.475 588.196 334.699 583.958 324.345 582.849C313.99 581.741 303.545 583.815 294.389 588.798C289.696 591.328 285.447 594.613 281.81 598.522C277.431 603.163 274.037 608.652 271.836 614.654C269.635 620.655 268.673 627.044 269.008 633.432C269.344 639.819 270.969 646.071 273.786 651.807C276.602 657.543 280.551 662.643 285.392 666.795V666.857Z" fill="#0096FA"/>
<path d="M307.749 687.215C314.872 693.608 335.912 682.933 354.729 663.34C373.545 643.748 383.077 622.666 375.954 616.273C370.334 611.204 356.005 616.811 340.956 629.079C336.734 632.527 332.713 636.216 328.913 640.127C324.57 644.664 320.553 649.503 316.89 654.61C306.494 669.237 302.376 682.374 307.749 687.215Z" fill="#1E6BF1"/>
<path d="M316.972 654.505C319.75 657.504 323.442 659.492 327.466 660.154C331.49 660.817 335.619 660.118 339.206 658.167C341.227 657.099 343.012 655.631 344.454 653.852C345.896 652.072 346.964 650.018 347.595 647.812C348.226 645.607 348.406 643.296 348.125 641.018C347.844 638.741 347.106 636.544 345.958 634.561C344.697 632.384 342.975 630.512 340.914 629.078C336.707 632.527 332.699 636.216 328.912 640.126C324.602 644.632 320.612 649.437 316.972 654.505Z" fill="white"/>
<path fill-rule="evenodd" clip-rule="evenodd" d="M248.451 562.77L116.308 651.221L178.929 854.354L191.626 850.44L131.919 656.759L247.478 579.409L269.652 598.341L278.279 588.236L248.451 562.77Z" fill="#636363"/>
<path d="M249.592 587.018C241.178 587.018 234.357 580.414 234.357 572.267C234.357 564.12 241.178 557.516 249.592 557.516C258.006 557.516 264.826 564.12 264.826 572.267C264.826 580.414 258.006 587.018 249.592 587.018Z" fill="#636363"/>
<path d="M241.975 572.264C241.975 574.295 242.777 576.242 244.206 577.677C245.634 579.113 247.572 579.919 249.592 579.919C251.612 579.919 253.549 579.113 254.978 577.677C256.406 576.242 257.209 574.295 257.209 572.264C257.209 570.234 256.406 568.287 254.978 566.851C253.549 565.416 251.612 564.609 249.592 564.609C247.572 564.609 245.634 565.416 244.206 566.851C242.777 568.287 241.975 570.234 241.975 572.264Z" fill="#8C8C8C"/>
<path d="M123.701 877.534H281.273C281.273 869.188 277.974 861.185 272.102 855.283C266.23 849.382 258.265 846.066 249.961 846.066H155.014C146.709 846.066 138.745 849.382 132.872 855.283C127 861.185 123.701 869.188 123.701 877.534Z" fill="#0096FA"/>
<path d="M220.357 838.203H248.787V846.851H220.357V838.203Z" fill="#636363"/>
<path d="M125.328 676.662C113.549 676.662 104 667.418 104 656.015C104 644.611 113.549 635.367 125.328 635.367C137.107 635.367 146.656 644.611 146.656 656.015C146.656 667.418 137.107 676.662 125.328 676.662Z" fill="#636363"/>
<path d="M114.665 656.014C114.591 658.148 115.153 660.255 116.279 662.066C117.405 663.877 119.044 665.308 120.984 666.177C122.925 667.045 125.08 667.311 127.173 666.941C129.265 666.57 131.2 665.58 132.728 664.097C134.257 662.614 135.31 660.706 135.753 658.618C136.195 656.53 136.007 654.356 135.211 652.376C134.416 650.396 133.051 648.7 131.29 647.505C129.529 646.31 127.453 645.671 125.329 645.67C123.953 645.645 122.585 645.893 121.304 646.4C120.024 646.906 118.855 647.661 117.864 648.622C116.874 649.582 116.082 650.73 115.533 651.998C114.984 653.267 114.689 654.631 114.665 656.014Z" fill="#8C8C8C"/>
<path opacity="0.3" d="M74.9316 176.999C74.9316 169.686 80.86 163.758 88.1729 163.758H293.413C300.726 163.758 306.654 169.686 306.654 176.999V312.722C306.654 320.035 300.726 325.963 293.413 325.963H88.1729C80.86 325.963 74.9316 320.035 74.9316 312.722V176.999Z" fill="#B2DFFD"/>
<path opacity="0.3" d="M88.1738 193.55C88.1738 186.237 94.1021 180.309 101.415 180.309H306.655C313.968 180.309 319.896 186.237 319.896 193.55V329.273C319.896 336.586 313.968 342.514 306.655 342.514H101.415C94.1022 342.514 88.1738 336.586 88.1738 329.273V193.55Z" fill="#B2DFFD"/>
<path d="M65 163.757C65 156.444 70.9283 150.516 78.2413 150.516H283.481C290.794 150.516 296.722 156.444 296.722 163.757V299.48C296.722 306.793 290.794 312.721 283.481 312.721H78.2413C70.9283 312.721 65 306.793 65 299.48V163.757Z" fill="#F8FBFB"/>
<path d="M65 163.757C65 156.444 70.9283 150.516 78.2413 150.516H283.481C290.794 150.516 296.722 156.444 296.722 163.757V186.929H65V163.757Z" fill="#141414"/>
<path d="M224.83 220.628L224.83 266.674C224.83 270.662 228.063 273.895 232.05 273.895L269.388 273.895C273.375 273.895 276.608 270.662 276.608 266.674L276.608 220.628C276.608 216.64 273.375 213.408 269.388 213.408L232.05 213.408C228.063 213.408 224.83 216.64 224.83 220.628Z" fill="#F6F6F6"/>
<path d="M250.704 245.041C256.09 245.041 260.455 240.676 260.455 235.29C260.455 229.905 256.09 225.539 250.704 225.539C245.319 225.539 240.953 229.905 240.953 235.29C240.953 240.676 245.319 245.041 250.704 245.041Z" fill="#FCAA73"/>
<path fill-rule="evenodd" clip-rule="evenodd" d="M238.051 253.396C238.051 252.301 238.938 251.414 240.032 251.414H261.396C262.49 251.414 263.377 252.301 263.377 253.396C263.377 254.49 262.49 255.377 261.396 255.377H240.032C238.938 255.377 238.051 254.49 238.051 253.396Z" fill="#E0E0E0"/>
<path fill-rule="evenodd" clip-rule="evenodd" d="M241.725 261.763C241.725 260.668 242.612 259.781 243.706 259.781H257.7C258.795 259.781 259.682 260.668 259.682 261.763C259.682 262.857 258.795 263.744 257.7 263.744H243.706C242.612 263.744 241.725 262.857 241.725 261.763Z" fill="#E0E0E0"/>
<path d="M156.502 220.632L156.502 266.678C156.502 270.666 159.735 273.898 163.722 273.898L201.06 273.898C205.047 273.898 208.28 270.666 208.28 266.678L208.28 220.632C208.28 216.644 205.047 213.412 201.06 213.412L163.722 213.412C159.735 213.412 156.502 216.644 156.502 220.632Z" fill="#F6F6F6"/>
<path d="M182.376 245.045C187.762 245.045 192.127 240.68 192.127 235.294C192.127 229.909 187.762 225.543 182.376 225.543C176.991 225.543 172.625 229.909 172.625 235.294C172.625 240.68 176.991 245.045 182.376 245.045Z" fill="#F99F9F"/>
<path fill-rule="evenodd" clip-rule="evenodd" d="M169.723 253.4C169.723 252.305 170.61 251.418 171.704 251.418H193.067C194.162 251.418 195.049 252.305 195.049 253.4C195.049 254.494 194.162 255.381 193.067 255.381H171.704C170.61 255.381 169.723 254.494 169.723 253.4Z" fill="#E0E0E0"/>
<path fill-rule="evenodd" clip-rule="evenodd" d="M173.396 261.767C173.396 260.672 174.284 259.785 175.378 259.785H189.372C190.467 259.785 191.354 260.672 191.354 261.767C191.354 262.861 190.467 263.748 189.372 263.748H175.378C174.284 263.748 173.396 262.861 173.396 261.767Z" fill="#E0E0E0"/>
<path d="M88.1719 220.628L88.1719 266.674C88.1719 270.662 91.4045 273.895 95.3922 273.895L132.729 273.895C136.717 273.895 139.95 270.662 139.95 266.674L139.95 220.628C139.95 216.64 136.717 213.408 132.729 213.408L95.3922 213.408C91.4045 213.408 88.1719 216.64 88.1719 220.628Z" fill="#F6F6F6"/>
<path d="M114.046 245.041C119.431 245.041 123.797 240.676 123.797 235.29C123.797 229.905 119.431 225.539 114.046 225.539C108.661 225.539 104.295 229.905 104.295 235.29C104.295 240.676 108.661 245.041 114.046 245.041Z" fill="#84EBBC"/>
<path fill-rule="evenodd" clip-rule="evenodd" d="M101.393 253.396C101.393 252.301 102.28 251.414 103.374 251.414H124.737C125.832 251.414 126.719 252.301 126.719 253.396C126.719 254.49 125.832 255.377 124.737 255.377H103.374C102.28 255.377 101.393 254.49 101.393 253.396Z" fill="#E0E0E0"/>
<path fill-rule="evenodd" clip-rule="evenodd" d="M105.066 261.763C105.066 260.668 105.954 259.781 107.048 259.781H121.042C122.136 259.781 123.024 260.668 123.024 261.763C123.024 262.857 122.136 263.744 121.042 263.744H107.048C105.954 263.744 105.066 262.857 105.066 261.763Z" fill="#E0E0E0"/>
<path d="M94.7923 168.723C94.7923 171.466 92.5692 173.689 89.8268 173.689C87.0844 173.689 84.8613 171.466 84.8613 168.723C84.8613 165.981 87.0844 163.758 89.8268 163.758C92.5692 163.758 94.7923 165.981 94.7923 168.723Z" fill="#E60F0F"/>
<path d="M108.034 168.723C108.034 171.466 105.811 173.689 103.069 173.689C100.327 173.689 98.1035 171.466 98.1035 168.723C98.1035 165.981 100.327 163.758 103.069 163.758C105.811 163.758 108.034 165.981 108.034 168.723Z" fill="#FCAA73"/>
<path d="M121.275 168.723C121.275 171.466 119.052 173.689 116.309 173.689C113.567 173.689 111.344 171.466 111.344 168.723C111.344 165.981 113.567 163.758 116.309 163.758C119.052 163.758 121.275 165.981 121.275 168.723Z" fill="#35DE90"/>
<path opacity="0.3" d="M814.842 265.585C814.842 259.073 820.121 253.793 826.634 253.793H1009.41C1015.93 253.793 1021.21 259.073 1021.21 265.585V386.455C1021.21 392.968 1015.93 398.248 1009.41 398.248H826.634C820.121 398.248 814.842 392.968 814.842 386.455V265.585Z" fill="#B2DFFD"/>
<path opacity="0.3" d="M826.637 280.323C826.637 273.811 831.916 268.531 838.429 268.531H1021.21C1027.72 268.531 1033 273.811 1033 280.323V401.194C1033 407.706 1027.72 412.986 1021.21 412.986H838.429C831.916 412.986 826.637 407.706 826.637 401.194V280.323Z" fill="#B2DFFD"/>
<path d="M806 253.792C806 247.28 811.28 242 817.792 242H1000.57C1007.08 242 1012.36 247.28 1012.36 253.792V374.663C1012.36 381.175 1007.08 386.455 1000.57 386.455H817.792C811.28 386.455 806 381.175 806 374.663V253.792Z" fill="#F6F6F6"/>
<path d="M806 253.792C806 247.28 811.28 242 817.792 242H1000.57C1007.08 242 1012.36 247.28 1012.36 253.792V274.429H806V253.792Z" fill="#141414"/>
<path d="M832.534 258.215C832.534 260.657 830.554 262.637 828.112 262.637C825.669 262.637 823.689 260.657 823.689 258.215C823.689 255.773 825.669 253.793 828.112 253.793C830.554 253.793 832.534 255.773 832.534 258.215Z" fill="#E60F0F"/>
<path d="M844.325 258.215C844.325 260.657 842.345 262.637 839.903 262.637C837.46 262.637 835.48 260.657 835.48 258.215C835.48 255.773 837.46 253.793 839.903 253.793C842.345 253.793 844.325 255.773 844.325 258.215Z" fill="#F06305"/>
<path d="M856.116 258.215C856.116 260.657 854.136 262.637 851.694 262.637C849.251 262.637 847.271 260.657 847.271 258.215C847.271 255.773 849.251 253.793 851.694 253.793C854.136 253.793 856.116 255.773 856.116 258.215Z" fill="#4DCB7B"/>
<path d="M924.807 292.117H821.331C819.377 292.117 817.793 293.701 817.793 295.655V360.704C817.793 362.658 819.377 364.242 821.331 364.242H924.807C926.761 364.242 928.345 362.658 928.345 360.704V295.655C928.345 293.701 926.761 292.117 924.807 292.117Z" fill="#E0E0E0"/>
<path opacity="0.7" d="M871.729 315.703C869.222 315.706 866.773 316.451 864.689 317.846C862.606 319.24 860.983 321.221 860.026 323.538C859.068 325.854 858.819 328.403 859.31 330.861C859.8 333.319 861.008 335.577 862.782 337.349C864.555 339.12 866.814 340.327 869.273 340.815C871.732 341.303 874.28 341.051 876.596 340.091C878.912 339.131 880.891 337.506 882.283 335.422C883.676 333.338 884.419 330.887 884.419 328.38C884.415 325.017 883.077 321.792 880.698 319.415C878.318 317.038 875.092 315.703 871.729 315.703Z" fill="#0096FA"/>
<path d="M869.74 333.979C869.737 334.171 869.792 334.36 869.899 334.518C870.005 334.677 870.158 334.797 870.335 334.862C870.512 334.928 870.704 334.935 870.885 334.883C871.066 334.831 871.227 334.722 871.344 334.572L873.084 332.453L875.934 328.971C876.071 328.805 876.146 328.595 876.146 328.379C876.146 328.162 876.071 327.952 875.934 327.786L873.084 324.305L871.344 322.186C871.227 322.035 871.066 321.927 870.885 321.874C870.704 321.822 870.512 321.829 870.335 321.895C870.158 321.96 870.005 322.08 869.899 322.239C869.792 322.397 869.737 322.586 869.74 322.778V333.979Z" fill="#F6F6F6"/>
<path d="M997.034 292.117H939.253C937.299 292.117 935.715 293.701 935.715 295.655V359.333C935.715 361.287 937.299 362.871 939.253 362.871H997.034C998.988 362.871 1000.57 361.287 1000.57 359.333V295.655C1000.57 293.701 998.988 292.117 997.034 292.117Z" fill="#F6F6F6"/>
<path fill-rule="evenodd" clip-rule="evenodd" d="M942.352 303.91C942.352 302.689 943.341 301.699 944.563 301.699H990.257C991.479 301.699 992.469 302.689 992.469 303.91C992.469 305.131 991.479 306.121 990.257 306.121H944.563C943.341 306.121 942.352 305.131 942.352 303.91Z" fill="#E0E0E0"/>
<path fill-rule="evenodd" clip-rule="evenodd" d="M942.352 312.754C942.352 311.533 943.341 310.543 944.563 310.543H990.257C991.479 310.543 992.469 311.533 992.469 312.754C992.469 313.975 991.479 314.965 990.257 314.965H944.563C943.341 314.965 942.352 313.975 942.352 312.754Z" fill="#E0E0E0"/>
<path fill-rule="evenodd" clip-rule="evenodd" d="M942.352 321.602C942.352 320.381 943.341 319.391 944.563 319.391H990.257C991.479 319.391 992.469 320.381 992.469 321.602C992.469 322.823 991.479 323.813 990.257 323.813H944.563C943.341 323.813 942.352 322.823 942.352 321.602Z" fill="#E0E0E0"/>
<path fill-rule="evenodd" clip-rule="evenodd" d="M942.352 342.234C942.352 341.013 943.341 340.023 944.563 340.023H990.257C991.479 340.023 992.469 341.013 992.469 342.234C992.469 343.456 991.479 344.446 990.257 344.446H944.563C943.341 344.446 942.352 343.456 942.352 342.234Z" fill="#E0E0E0"/>
<path fill-rule="evenodd" clip-rule="evenodd" d="M942.352 351.078C942.352 349.857 943.341 348.867 944.563 348.867H990.257C991.479 348.867 992.469 349.857 992.469 351.078C992.469 352.299 991.479 353.289 990.257 353.289H944.563C943.341 353.289 942.352 352.299 942.352 351.078Z" fill="#E0E0E0"/>
<path fill-rule="evenodd" clip-rule="evenodd" d="M942.352 330.442C942.352 329.22 943.341 328.23 944.563 328.23H971.095C972.316 328.23 973.306 329.22 973.306 330.442C973.306 331.663 972.316 332.653 971.095 332.653H944.563C943.341 332.653 942.352 331.663 942.352 330.442Z" fill="#E0E0E0"/>
</g>
<defs>
<filter id="filter0_f_204_28695" x="50" y="1018.52" width="309" height="59" filterUnits="userSpaceOnUse" color-interpolation-filters="sRGB">
<feFlood flood-opacity="0" result="BackgroundImageFix"/>
<feBlend mode="normal" in="SourceGraphic" in2="BackgroundImageFix" result="shape"/>
<feGaussianBlur stdDeviation="7" result="effect1_foregroundBlur_204_28695"/>
</filter>
<filter id="filter1_f_204_28695" x="856" y="1008.27" width="147.795" height="50.6367" filterUnits="userSpaceOnUse" color-interpolation-filters="sRGB">
<feFlood flood-opacity="0" result="BackgroundImageFix"/>
<feBlend mode="normal" in="SourceGraphic" in2="BackgroundImageFix" result="shape"/>
<feGaussianBlur stdDeviation="7" result="effect1_foregroundBlur_204_28695"/>
</filter>
<linearGradient id="paint0_linear_204_28695" x1="496.953" y1="738.126" x2="353.44" y2="853.641" gradientUnits="userSpaceOnUse">
<stop offset="0.1453" stop-color="#FACF23"/>
<stop offset="0.989583" stop-color="#93822D"/>
</linearGradient>
<linearGradient id="paint1_linear_204_28695" x1="567.381" y1="380.028" x2="527.91" y2="322.355" gradientUnits="userSpaceOnUse">
<stop offset="0.635417" stop-color="#F89A9A" stop-opacity="0"/>
<stop offset="1" stop-color="#753103"/>
</linearGradient>
<linearGradient id="paint2_linear_204_28695" x1="749.83" y1="656.266" x2="634.663" y2="579.206" gradientUnits="userSpaceOnUse">
<stop stop-color="#C5D9FB"/>
<stop offset="0.1836" stop-color="#D9E4F9"/>
<stop offset="0.4073" stop-color="#E9EEF7"/>
<stop offset="0.66" stop-color="#F2F3F5"/>
<stop offset="1" stop-color="#F5F5F5"/>
</linearGradient>
<linearGradient id="paint3_linear_204_28695" x1="587.633" y1="1178.02" x2="588.69" y2="517.152" gradientUnits="userSpaceOnUse">
<stop offset="0.108095" stop-color="#DAF2F4"/>
<stop offset="1" stop-color="#DAF2F4" stop-opacity="0"/>
</linearGradient>
<clipPath id="clip0_204_28695">
<rect width="1080" height="1080" fill="white" transform="translate(0 0.515625)"/>
</clipPath>
</defs>
</svg>
