<svg width="1080" height="1080" viewBox="0 0 1080 1080" fill="none" xmlns="http://www.w3.org/2000/svg">
<g clip-path="url(#clip0_10272_1616)">
<g clip-path="url(#clip1_10272_1616)">
<circle cx="824.5" cy="576.5" r="161.5" fill="#1968F0"/>
<circle opacity="0.3" cx="363" cy="410" r="332" fill="#E0E0E0"/>
<circle cx="534.145" cy="224.988" r="205.988" fill="#141414"/>
<path d="M802.444 628.905C795.065 583.741 765.395 546.742 725.27 532.576L587.525 483.411V445.08H479.143V483.411L461.618 489.744L341.399 532.576C301.274 546.909 271.604 583.907 264.225 628.905L219.181 901.727H479.297H587.833H847.488L802.444 628.905Z" fill="#F06305"/>
<path d="M355.539 701.736V901.228L517.573 901.894L355.539 701.736Z" fill="url(#paint0_linear_10272_1616)"/>
<path fill-rule="evenodd" clip-rule="evenodd" d="M485.118 164.593H453.564L444.171 176.759V416.082L453.564 428.248H475.836V476.246H494.994H565.606H585.832V428.248H606.548L615.83 416.082V176.759L606.548 164.593H576.439H485.118Z" fill="#8C3A03"/>
<path d="M418.57 367.917H459.172V304.587H404.174V353.557C404.174 361.474 410.634 367.917 418.57 367.917Z" fill="#8C3A03"/>
<path d="M639.764 367.917H599.162V304.587H654.16V353.557C654.16 361.474 647.7 367.917 639.764 367.917Z" fill="#8C3A03"/>
<path d="M609.499 362.416H576.167V310.251H621.332V350.749C621.332 357.249 615.998 362.416 609.499 362.416Z" fill="#8C3A03"/>
<path d="M567.67 426.081H595.002V362.417H567.67V426.081Z" fill="url(#paint1_linear_10272_1616)"/>
<path d="M518.835 428.085H477.336V444.751H518.835V428.085Z" fill="url(#paint2_linear_10272_1616)"/>
<path d="M460.606 460.788H602.267V515.786H460.606V460.788Z" fill="#F06305"/>
<path d="M672.403 753.993L649.175 613.078L810.995 603.787L847.386 753.993H672.403Z" fill="#F06305"/>
<path d="M814.092 626.243C814.092 680.55 770.068 724.574 715.761 724.574C661.455 724.574 617.43 680.55 617.43 626.243C617.43 571.937 661.455 527.912 715.761 527.912C770.068 527.912 814.092 571.937 814.092 626.243Z" fill="#F06305"/>
<path fill-rule="evenodd" clip-rule="evenodd" d="M837.994 751.362L858.534 868.116C860.255 875.322 861.166 882.842 861.166 890.575C861.166 943.77 818.044 986.893 764.849 986.893C761.135 986.893 757.47 986.682 753.866 986.273H438.166V828.324H687.342L674.006 751.362H837.994Z" fill="#8C3A03"/>
<path d="M671.273 639.826L579.225 643.596C573.466 643.805 568.963 648.727 569.172 654.487L571.162 703.181C571.371 708.94 576.293 713.443 582.053 713.234L674.1 709.464C679.86 709.254 684.363 704.333 684.153 698.573L682.164 649.879C681.954 644.015 677.033 639.512 671.273 639.826Z" fill="url(#paint3_linear_10272_1616)"/>
<path d="M604.145 701.083C616.637 701.083 626.764 690.956 626.764 678.464C626.764 665.972 616.637 655.845 604.145 655.845C591.652 655.845 581.526 665.972 581.526 678.464C581.526 690.956 591.652 701.083 604.145 701.083Z" fill="#C5D9FB"/>
<path d="M604.164 679.696C608.614 679.515 612.087 676.088 611.921 672.043C611.756 667.997 608.015 664.866 603.565 665.048C599.115 665.229 595.642 668.656 595.808 672.701C595.973 676.747 599.714 679.878 604.164 679.696Z" fill="#1968F0"/>
<path d="M605.09 701.085C611.373 700.876 617.028 697.944 620.798 693.545C618.18 687.053 611.687 682.55 604.357 682.864C596.922 683.178 590.848 688.205 588.754 694.907C592.943 698.886 598.702 701.294 605.09 701.085Z" fill="#1968F0"/>
<path d="M671.482 688.205L638.81 689.567C636.925 689.672 635.25 688.206 635.25 686.216L634.936 677.524C634.831 675.639 636.297 673.964 638.287 673.964L670.959 672.602C672.844 672.498 674.519 673.964 674.519 675.953L674.833 684.645C674.938 686.53 673.367 688.101 671.482 688.205Z" fill="#1968F0"/>
<path d="M656.194 669.358L636.403 670.196C635.355 670.196 634.518 669.463 634.518 668.415L634.413 666.53C634.413 665.483 635.146 664.645 636.193 664.645L655.985 663.808C657.032 663.808 657.87 664.541 657.87 665.588L657.975 667.473C657.975 668.52 657.242 669.358 656.194 669.358Z" fill="#C5D9FB"/>
<path d="M645.605 632.913L603.864 634.622C602.085 634.729 600.83 636.224 600.83 637.933L601.144 646.477C601.249 648.292 602.713 649.574 604.387 649.574L646.128 647.865C647.906 647.758 649.161 646.263 649.161 644.554L648.848 636.01C648.848 634.195 647.383 632.807 645.605 632.913Z" fill="#A3A3A3"/>
<path d="M396.205 753.993L419.432 613.078L257.612 603.787L221.222 753.993H396.205Z" fill="#F06305"/>
<path d="M254.516 626.243C254.516 680.55 298.54 724.574 352.846 724.574C407.153 724.574 451.177 680.55 451.177 626.243C451.177 571.937 407.153 527.912 352.846 527.912C298.54 527.912 254.516 571.937 254.516 626.243Z" fill="#F06305"/>
<path fill-rule="evenodd" clip-rule="evenodd" d="M230.611 751.362L210.071 868.117C208.35 875.322 207.439 882.842 207.439 890.575C207.439 933.394 235.38 969.687 274.025 982.216V986.273H292.774C296.378 986.682 300.043 986.893 303.757 986.893C307.47 986.893 311.135 986.682 314.739 986.273H602.311V828.324H381.263L394.599 751.362H230.611Z" fill="#8C3A03"/>
<path d="M867.486 427.915L773.585 1047.89H294.499L202.514 427.915H867.486Z" fill="url(#paint4_linear_10272_1616)"/>
<path fill-rule="evenodd" clip-rule="evenodd" d="M400.424 789.565H253.164C245.425 789.565 239.582 796.671 241.003 804.25L289.964 1056.27C291.227 1062.11 296.281 1066.22 302.125 1066.22H351.464H716.868H766.207C772.05 1066.22 777.104 1062.11 778.368 1056.27L827.328 804.25C828.75 796.671 822.906 789.565 815.167 789.565H667.907H400.424Z" fill="#0C4EC0"/>
<path d="M541.899 883.304C510.879 883.304 494.24 895.007 494.24 925.464C494.24 952.677 508.341 973.687 541.899 973.687C542.745 973.687 544.438 973.687 544.438 973.687C544.438 977.635 544.438 982.711 544.438 987.082C544.438 988.21 545.284 989.197 546.553 989.197C547.54 989.197 547.822 988.774 548.668 988.069C554.59 982.993 572.074 967.059 572.074 967.059C580.816 958.74 589.558 948.87 589.558 925.464C589.558 895.007 572.92 883.304 541.899 883.304Z" fill="#0096FA"/>
<rect x="443.545" y="154.9" width="176.927" height="49.5738" fill="#141414"/>
<path opacity="0.5" d="M67.3607 700.129C67.3607 693.451 72.7745 688.037 79.4528 688.037H203.396C210.074 688.037 215.488 693.451 215.488 700.129V781.751C215.488 788.429 210.074 793.843 203.396 793.843H79.4528C72.7745 793.843 67.3607 788.429 67.3607 781.751V700.129Z" fill="#B2DFFD"/>
<path opacity="0.5" d="M51.8141 688.469C51.8141 681.791 57.2279 676.377 63.9061 676.377H193.896C200.574 676.377 205.988 681.791 205.988 688.469V773.114C205.988 779.792 200.574 785.206 193.896 785.206H63.9061C57.2279 785.206 51.8141 779.792 51.8141 773.114V688.469Z" fill="#B2DFFD"/>
<path opacity="0.6" d="M834.215 211.477C831.092 202.879 824.096 197.549 814.591 196.873C810.636 196.623 806.347 196.811 802.11 197.384C801.725 197.436 801.34 197.488 800.954 197.54C809.793 199.09 816.788 204.42 819.527 213.071C823.348 223.928 822.88 234.973 818.529 243.406C816.686 247.185 813.969 250.297 811.586 252.973L810.253 254.722C810.253 254.722 810.253 254.722 809.92 255.159L810.597 260.166C810.857 262.092 812.554 263.039 814.48 262.779C815.251 262.675 815.584 262.238 816.302 261.748C818.686 259.073 822.069 255.086 825.119 251.536L826.451 249.787C828.783 246.726 831.5 243.613 833.009 240.271C837.412 232.224 837.932 221.564 834.215 211.477Z" fill="#E0E0E0"/>
<path d="M819.527 213.07C816.299 203.701 808.429 197.705 798.154 197.133C794.198 196.884 789.524 197.123 785.287 197.696C779.51 198.477 771.525 200.341 766.268 204.974C759.19 210.637 756.536 220.017 758.483 231.52C759.753 238.016 762.544 247.051 769.644 253.151C775.328 257.482 784.551 258.98 791.973 258.761L792.546 262.998C792.911 265.694 795.534 267.693 798.23 267.328L798.615 267.276C799.771 267.12 800.489 266.631 801.155 265.756C804.924 261.717 807.589 258.219 810.305 255.106L811.638 253.357C813.969 250.297 816.686 247.184 818.581 243.79C822.88 234.973 823.296 223.542 819.527 213.07ZM776.597 234.954C773.9 235.319 771.714 233.653 771.35 230.957C770.985 228.261 772.651 226.075 775.347 225.71C778.043 225.346 780.229 227.011 780.594 229.707C780.958 232.403 779.293 234.59 776.597 234.954ZM790.848 233.028C788.152 233.392 785.966 231.727 785.601 229.03C785.237 226.334 786.902 224.148 789.598 223.784C792.294 223.419 794.481 225.085 794.845 227.781C795.21 230.477 793.159 232.715 790.848 233.028ZM804.714 231.153C802.018 231.518 799.832 229.852 799.467 227.156C799.103 224.46 800.768 222.274 803.464 221.909C806.161 221.545 808.347 223.21 808.711 225.906C809.076 228.602 807.41 230.789 804.714 231.153Z" fill="#E0E0E0"/>
<path opacity="0.5" d="M850 77.6C850 70.6412 855.641 65 862.6 65H998.05C1005.01 65 1010.65 70.6412 1010.65 77.6V165.8C1010.65 172.759 1005.01 178.4 998.05 178.4H862.6C855.641 178.4 850 172.759 850 165.8V77.6Z" fill="#C3EEF4"/>
<path opacity="0.5" d="M862.6 90.1998C862.6 83.2411 868.241 77.5999 875.2 77.5999H1010.65C1017.61 77.5999 1023.25 83.2411 1023.25 90.1999V178.4C1023.25 185.359 1017.61 191 1010.65 191H875.2C868.241 191 862.6 185.359 862.6 178.4V90.1998Z" fill="#B2DFFD"/>
<path fill-rule="evenodd" clip-rule="evenodd" d="M964.25 151.458C963.839 151.129 963.378 150.866 962.885 150.679V147.179C962.885 146.715 962.701 146.27 962.373 145.942C962.044 145.613 961.599 145.429 961.135 145.429H955.351C956.04 144.031 956.529 142.544 956.804 141.01H961.914C962.378 141.01 962.823 140.826 963.151 140.498C963.48 140.169 963.664 139.724 963.664 139.26C963.664 138.796 963.48 138.351 963.151 138.023C962.823 137.695 962.378 137.51 961.914 137.51H957.101C957.14 135.888 957.005 134.265 956.699 132.671C956.646 132.391 956.576 132.111 956.506 131.84H961.135C961.599 131.84 962.044 131.656 962.373 131.328C962.701 130.999 962.885 130.554 962.885 130.09V126.546C963.379 126.358 963.84 126.092 964.25 125.759C965.001 125.144 965.552 124.32 965.834 123.391C966.116 122.463 966.117 121.471 965.836 120.542C965.555 119.614 965.005 118.789 964.256 118.172C963.506 117.556 962.591 117.175 961.625 117.079C960.335 116.954 959.048 117.344 958.043 118.163C957.039 118.982 956.398 120.165 956.261 121.454C956.149 122.528 956.395 123.609 956.959 124.53C957.524 125.451 958.377 126.16 959.385 126.546V128.296H954.905C953.459 126.219 951.353 124.693 948.929 123.965V121.069C948.929 120.605 948.745 120.16 948.416 119.832C948.088 119.503 947.643 119.319 947.179 119.319C946.715 119.319 946.27 119.503 945.941 119.832C945.613 120.16 945.429 120.605 945.429 121.069V123.291C944.668 123.186 943.889 123.108 943.101 123.064V118.365C943.101 117.901 942.917 117.456 942.589 117.128C942.261 116.8 941.816 116.615 941.351 116.615C940.887 116.615 940.442 116.8 940.114 117.128C939.786 117.456 939.601 117.901 939.601 118.365V123.046C938.917 123.046 938.195 123.15 937.463 123.256L937.274 123.283V121.069C937.274 120.605 937.09 120.16 936.761 119.832C936.433 119.503 935.988 119.319 935.524 119.319C935.06 119.319 934.615 119.503 934.286 119.832C933.958 120.16 933.774 120.605 933.774 121.069V124.149C933.01 124.414 932.277 124.761 931.586 125.181C930.031 126.164 928.763 127.541 927.911 129.171H923.318V127.421C924.116 127.127 924.823 126.625 925.365 125.969C925.98 125.218 926.359 124.302 926.453 123.336C926.548 122.37 926.354 121.398 925.896 120.542C925.438 119.686 924.737 118.985 923.88 118.528C923.024 118.071 922.052 117.878 921.086 117.973C920.12 118.068 919.204 118.448 918.454 119.064C917.703 119.68 917.153 120.504 916.871 121.433C916.589 122.362 916.589 123.353 916.87 124.282C917.152 125.211 917.703 126.035 918.453 126.651C918.865 126.981 919.326 127.247 919.818 127.439V130.939C919.818 131.403 920.002 131.848 920.33 132.176C920.658 132.505 921.104 132.689 921.568 132.689H926.616C926.262 134.265 926.109 135.879 926.161 137.493C926.161 137.773 926.161 138.053 926.205 138.368H920.815C920.351 138.368 919.906 138.552 919.578 138.88C919.25 139.208 919.065 139.654 919.065 140.118C919.065 140.582 919.25 141.027 919.578 141.355C919.906 141.683 920.351 141.868 920.815 141.868H926.721C927.086 143.404 927.676 144.878 928.471 146.243H921.568C921.104 146.243 920.658 146.427 920.33 146.755C920.002 147.083 919.818 147.529 919.818 147.993V151.493C918.788 151.892 917.923 152.626 917.362 153.577C916.801 154.528 916.576 155.64 916.723 156.734C916.871 157.828 917.382 158.841 918.175 159.609C918.968 160.377 919.997 160.856 921.095 160.969H921.585C922.514 160.966 923.423 160.7 924.207 160.202C924.99 159.703 925.616 158.992 926.012 158.152C926.408 157.312 926.557 156.377 926.443 155.455C926.328 154.533 925.955 153.663 925.365 152.945C924.823 152.289 924.116 151.788 923.318 151.493V149.743H931.289C931.402 149.756 931.517 149.756 931.63 149.743C934.337 151.441 937.427 152.434 940.616 152.63V154.8C940.616 155.428 940.865 156.029 941.308 156.474C941.751 156.918 942.352 157.169 942.979 157.171H943.198C943.684 157.127 944.145 156.934 944.519 156.62C945.919 155.421 947.756 153.829 949.559 152.149L950.329 151.44C951.204 150.653 952.079 149.839 952.866 148.973H959.385V150.723C958.386 151.1 957.537 151.792 956.967 152.696C956.397 153.599 956.137 154.663 956.226 155.728C956.346 156.941 956.911 158.066 957.813 158.886C958.716 159.706 959.89 160.161 961.109 160.164C961.269 160.173 961.43 160.173 961.59 160.164C962.556 160.068 963.471 159.687 964.221 159.071C964.97 158.454 965.52 157.629 965.801 156.7C966.082 155.772 966.081 154.78 965.799 153.852C965.517 152.923 964.966 152.099 964.215 151.484L964.25 151.458ZM961.266 120.596C961.451 120.614 961.63 120.667 961.794 120.755C961.958 120.842 962.103 120.96 962.22 121.104C962.344 121.25 962.436 121.421 962.49 121.605C962.544 121.788 962.559 121.981 962.535 122.171C962.506 122.509 962.354 122.823 962.11 123.057C961.865 123.29 961.543 123.427 961.205 123.44H960.995C960.623 123.404 960.28 123.222 960.042 122.933C959.804 122.644 959.69 122.273 959.726 121.9C959.762 121.528 959.945 121.185 960.234 120.947C960.522 120.709 960.894 120.596 961.266 120.631V120.596ZM920.483 121.918C920.6 121.774 920.745 121.655 920.909 121.568C921.072 121.481 921.252 121.427 921.436 121.41H921.576C921.897 121.415 922.205 121.529 922.451 121.734C922.744 121.967 922.933 122.307 922.976 122.679C923.012 123.051 922.898 123.422 922.661 123.711C922.545 123.857 922.401 123.976 922.237 124.064C922.073 124.151 921.893 124.204 921.708 124.219H921.655H921.498C921.196 124.208 920.907 124.098 920.675 123.904C920.533 123.788 920.414 123.644 920.327 123.482C920.24 123.32 920.186 123.142 920.168 122.959C920.134 122.584 920.247 122.211 920.483 121.918ZM922.976 156.209C922.949 156.476 922.846 156.731 922.679 156.941C922.512 157.152 922.288 157.311 922.034 157.398C921.78 157.486 921.506 157.499 921.244 157.436C920.983 157.373 920.745 157.236 920.559 157.042C920.373 156.848 920.246 156.605 920.193 156.341C920.141 156.078 920.165 155.804 920.263 155.554C920.36 155.304 920.528 155.086 920.745 154.928C920.962 154.77 921.221 154.677 921.489 154.66H921.708C922.08 154.7 922.422 154.885 922.659 155.175C922.897 155.464 923.011 155.836 922.976 156.209ZM947.966 148.789L947.17 149.515C946.129 150.486 945.079 151.423 944.116 152.271V151.195C944.116 150.924 944.063 150.656 943.959 150.405C943.855 150.154 943.703 149.927 943.512 149.735C943.32 149.543 943.092 149.391 942.842 149.287C942.591 149.184 942.323 149.13 942.051 149.13C938.945 149.13 934.614 148.063 932.715 146.085C930.335 143.609 929.74 139.96 929.661 137.335C929.583 134.71 929.976 130.291 933.476 128.156C935.226 127.089 937.965 126.511 941.299 126.511C943.161 126.508 945.02 126.69 946.846 127.054C948.445 127.299 949.927 128.037 951.086 129.165C952.245 130.293 953.024 131.754 953.313 133.345C953.995 136.845 953.881 141.728 951.501 145.123C950.454 146.465 949.269 147.693 947.966 148.789ZM962.22 156.148C962.045 156.363 961.811 156.522 961.546 156.605C961.282 156.688 960.998 156.691 960.732 156.613C960.466 156.535 960.228 156.381 960.049 156.169C959.87 155.957 959.758 155.697 959.726 155.421C959.708 155.237 959.727 155.051 959.781 154.873C959.835 154.696 959.923 154.531 960.041 154.388C960.159 154.245 960.304 154.127 960.468 154.04C960.631 153.953 960.811 153.899 960.995 153.882H961.205C961.506 153.897 961.794 154.007 962.028 154.196C962.171 154.314 962.29 154.459 962.377 154.622C962.464 154.786 962.518 154.966 962.535 155.15C962.565 155.511 962.452 155.869 962.22 156.148ZM944.108 132.829H939.19C938.35 132.829 937.544 133.163 936.95 133.757C936.356 134.351 936.023 135.157 936.023 135.997V140.914C936.032 141.748 936.37 142.545 936.963 143.131C937.556 143.718 938.356 144.047 939.19 144.047H944.108C944.948 144.047 945.753 143.713 946.347 143.119C946.941 142.525 947.275 141.719 947.275 140.879V135.997C947.275 135.157 946.941 134.351 946.347 133.757C945.753 133.163 944.948 132.829 944.108 132.829ZM944.213 140.914C944.213 140.942 944.202 140.969 944.182 140.988C944.162 141.008 944.136 141.019 944.108 141.019H939.19C939.162 141.019 939.136 141.008 939.116 140.988C939.096 140.969 939.085 140.942 939.085 140.914V135.997C939.085 135.969 939.096 135.942 939.116 135.922C939.136 135.903 939.162 135.892 939.19 135.892H944.108C944.136 135.892 944.162 135.903 944.182 135.922C944.202 135.942 944.213 135.969 944.213 135.997V140.914ZM941.087 137.118C941.267 137.056 941.459 137.032 941.649 137.047C941.996 137.074 942.319 137.232 942.555 137.487C942.791 137.742 942.922 138.077 942.922 138.425C942.922 138.773 942.791 139.107 942.555 139.363C942.319 139.618 941.996 139.775 941.649 139.803C941.459 139.818 941.267 139.794 941.087 139.731C940.907 139.669 940.741 139.57 940.601 139.441C940.461 139.311 940.349 139.154 940.273 138.979C940.196 138.804 940.157 138.616 940.157 138.425C940.157 138.234 940.196 138.045 940.273 137.871C940.349 137.696 940.461 137.539 940.601 137.409C940.741 137.28 940.907 137.181 941.087 137.118Z" fill="white"/>
<path opacity="0.5" d="M171.66 453.36C171.66 448.003 176.003 443.66 181.36 443.66H280.787C286.144 443.66 290.487 448.003 290.487 453.36V518.837C290.487 524.194 286.144 528.537 280.787 528.537H181.36C176.003 528.537 171.66 524.194 171.66 518.837V453.36Z" fill="#B2DFFD"/>
<path opacity="0.5" d="M160 441.7C160 436.343 164.343 432 169.7 432H273.977C279.334 432 283.677 436.343 283.677 441.7V509.602C283.677 514.959 279.334 519.302 273.977 519.302H169.7C164.343 519.302 160 514.959 160 509.602V441.7Z" fill="#B2DFFD"/>
<path fill-rule="evenodd" clip-rule="evenodd" d="M242.453 497.75L248.378 503.66L248.371 503.705C248.511 503.846 248.623 504.012 248.699 504.196C248.775 504.379 248.814 504.576 248.814 504.775C248.814 504.973 248.775 505.17 248.699 505.353C248.623 505.537 248.511 505.704 248.371 505.844C248.23 505.984 248.064 506.096 247.88 506.172C247.697 506.248 247.5 506.287 247.301 506.287C247.103 506.287 246.906 506.248 246.723 506.172C246.539 506.096 246.372 505.984 246.232 505.844L240.186 499.798C236.476 502.618 231.82 503.896 227.19 503.365C222.561 502.834 218.315 500.535 215.34 496.948C212.366 493.36 210.892 488.763 211.227 484.115C211.561 479.467 213.679 475.128 217.137 472.004C220.595 468.88 225.126 467.213 229.785 467.351C234.443 467.489 238.867 469.421 242.135 472.743C245.402 476.066 247.259 480.523 247.319 485.183C247.378 489.842 245.635 494.345 242.453 497.75ZM216.65 477.159C215.001 479.636 214.123 482.546 214.128 485.522V485.492C214.129 487.47 214.519 489.429 215.278 491.257C216.036 493.084 217.147 494.745 218.547 496.143C219.947 497.541 221.609 498.649 223.438 499.405C225.267 500.16 227.226 500.548 229.205 500.546C232.181 500.54 235.088 499.652 237.559 497.994C240.03 496.336 241.953 493.983 243.087 491.231C244.221 488.48 244.513 485.454 243.927 482.537C243.341 479.619 241.904 476.941 239.796 474.841C237.688 472.74 235.005 471.312 232.085 470.736C229.166 470.161 226.141 470.464 223.394 471.607C220.646 472.75 218.3 474.682 216.65 477.159ZM238.429 479.034C238.659 479.263 238.788 479.575 238.788 479.899C238.788 480.952 238.442 481.975 237.802 482.811C237.163 483.647 236.266 484.249 235.251 484.524V485.076H237.586C237.911 485.076 238.222 485.205 238.452 485.435C238.681 485.664 238.81 485.976 238.81 486.301C238.81 486.625 238.681 486.937 238.452 487.166C238.222 487.396 237.911 487.525 237.586 487.525H235.251V487.85C235.24 488.129 235.21 488.406 235.16 488.681C236.188 488.946 237.099 489.544 237.751 490.383C238.402 491.221 238.756 492.252 238.758 493.314C238.758 493.639 238.629 493.95 238.399 494.18C238.169 494.409 237.858 494.538 237.533 494.538C237.208 494.538 236.897 494.409 236.667 494.18C236.438 493.95 236.309 493.639 236.309 493.314C236.298 492.75 236.083 492.21 235.703 491.793C235.324 491.376 234.806 491.111 234.246 491.047C233.723 491.838 233.013 492.487 232.178 492.937C231.343 493.386 230.41 493.622 229.462 493.624H228.827C227.879 493.622 226.946 493.386 226.111 492.937C225.276 492.487 224.566 491.838 224.043 491.047C223.483 491.111 222.965 491.376 222.585 491.793C222.206 492.21 221.991 492.75 221.98 493.314C221.98 493.639 221.851 493.95 221.621 494.18C221.392 494.409 221.08 494.538 220.755 494.538C220.431 494.538 220.119 494.409 219.89 494.18C219.66 493.95 219.531 493.639 219.531 493.314C219.535 492.248 219.893 491.214 220.55 490.375C221.207 489.536 222.125 488.94 223.159 488.681C223.139 488.404 223.139 488.127 223.159 487.85V487.525H220.786C220.461 487.525 220.15 487.396 219.92 487.166C219.69 486.937 219.561 486.625 219.561 486.301C219.561 485.976 219.69 485.664 219.92 485.435C220.15 485.205 220.461 485.076 220.786 485.076H223.159V484.524C222.143 484.249 221.246 483.647 220.607 482.811C219.968 481.975 219.622 480.952 219.622 479.899C219.622 479.575 219.751 479.263 219.98 479.034C220.21 478.804 220.521 478.675 220.846 478.675C221.171 478.675 221.482 478.804 221.712 479.034C221.942 479.263 222.071 479.575 222.071 479.899C222.065 480.412 222.228 480.912 222.536 481.322C222.843 481.731 223.277 482.028 223.771 482.167C223.938 482.065 224.127 482.005 224.323 481.993V481.721C224.325 480.981 224.551 480.259 224.972 479.65C225.393 479.042 225.989 478.575 226.681 478.312L225.925 477.08C225.798 476.862 225.762 476.601 225.826 476.357C225.89 476.112 226.047 475.902 226.265 475.773C226.483 475.646 226.741 475.611 226.985 475.675C227.229 475.738 227.437 475.896 227.565 476.113L228.714 478.063H229.696L230.845 476.113C230.907 476.002 230.99 475.905 231.09 475.827C231.19 475.749 231.305 475.692 231.427 475.659C231.55 475.626 231.678 475.618 231.803 475.635C231.929 475.652 232.05 475.694 232.159 475.758C232.269 475.823 232.364 475.908 232.439 476.01C232.515 476.112 232.57 476.228 232.6 476.351C232.63 476.474 232.636 476.602 232.616 476.727C232.596 476.852 232.552 476.973 232.485 477.08L231.729 478.312C232.421 478.575 233.016 479.042 233.437 479.65C233.858 480.259 234.085 480.981 234.087 481.721V481.993C234.284 482.007 234.476 482.066 234.646 482.167C235.138 482.027 235.571 481.729 235.877 481.32C236.183 480.91 236.345 480.411 236.339 479.899C236.339 479.575 236.468 479.263 236.698 479.034C236.927 478.804 237.239 478.675 237.563 478.675C237.888 478.675 238.2 478.804 238.429 479.034Z" fill="white"/>
<path fill-rule="evenodd" clip-rule="evenodd" d="M159.9 733.115C159.904 733.077 159.904 733.04 159.9 733.002C159.875 732.861 159.838 732.722 159.787 732.588C159.729 732.465 159.656 732.349 159.571 732.242V732.199L150.494 721.584C150.39 721.465 150.271 721.36 150.14 721.273H150.079C149.96 721.205 149.832 721.153 149.699 721.118C149.668 721.114 149.636 721.114 149.604 721.118C149.478 721.083 149.347 721.065 149.215 721.066H127.389C126.104 721.066 124.872 721.576 123.963 722.485C123.054 723.394 122.544 724.626 122.544 725.911V759.164C122.569 760.434 123.09 761.643 123.996 762.532C124.901 763.422 126.12 763.921 127.389 763.923H155.115C156.399 763.921 157.63 763.41 158.538 762.502C159.447 761.593 159.958 760.362 159.96 759.078V733.27C159.945 733.217 159.924 733.164 159.9 733.115ZM151.634 731.387C151.481 731.385 151.335 731.323 151.227 731.215C151.119 731.107 151.057 730.961 151.055 730.808L150.995 727.483L154.372 731.448L151.634 731.387ZM156.462 759.026C156.462 759.395 156.316 759.749 156.055 760.009C155.794 760.27 155.44 760.417 155.071 760.417H127.389C127.021 760.417 126.667 760.27 126.406 760.009C126.145 759.749 125.999 759.395 125.999 759.026V725.825C125.999 725.456 126.145 725.102 126.406 724.841C126.667 724.581 127.021 724.434 127.389 724.434H147.479L147.6 730.895C147.62 731.941 148.046 732.938 148.787 733.676C149.528 734.414 150.527 734.835 151.573 734.851L156.479 734.963L156.462 759.026ZM136.199 743.427V741.147C136.199 740.991 136.735 740.508 137.719 740.508C138.063 740.508 138.392 740.371 138.635 740.128C138.878 739.885 139.015 739.556 139.015 739.212C139.015 738.869 138.878 738.539 138.635 738.296C138.392 738.053 138.063 737.917 137.719 737.917C135.413 737.917 133.608 739.333 133.608 741.147V743.427C133.608 743.591 133.064 744.066 132.088 744.066C131.744 744.066 131.415 744.203 131.172 744.446C130.929 744.689 130.792 745.018 130.792 745.362C130.792 745.706 130.929 746.035 131.172 746.278C131.415 746.521 131.744 746.657 132.088 746.657C133.064 746.657 133.608 747.133 133.608 747.288V749.577C133.608 751.382 135.413 752.816 137.754 752.816C138.097 752.816 138.427 752.679 138.67 752.436C138.913 752.193 139.049 751.864 139.049 751.52C139.049 751.177 138.913 750.847 138.67 750.604C138.427 750.361 138.097 750.225 137.754 750.225C136.769 750.225 136.234 749.75 136.234 749.594V747.288C136.219 746.566 135.929 745.876 135.422 745.362C135.918 744.84 136.196 744.148 136.199 743.427ZM148.81 743.427C148.81 743.591 149.354 744.066 150.33 744.066C150.673 744.066 151.003 744.203 151.246 744.446C151.489 744.689 151.625 745.018 151.625 745.362C151.625 745.706 151.489 746.035 151.246 746.278C151.003 746.521 150.673 746.657 150.33 746.657C149.354 746.657 148.81 747.133 148.81 747.288V749.577C148.81 751.382 147.004 752.799 144.698 752.799C144.355 752.799 144.025 752.662 143.782 752.419C143.539 752.176 143.403 751.847 143.403 751.503C143.403 751.159 143.539 750.83 143.782 750.587C144.025 750.344 144.355 750.207 144.698 750.207C145.683 750.207 146.218 749.732 146.218 749.577V747.288C146.233 746.566 146.523 745.876 147.03 745.362C146.521 744.845 146.231 744.152 146.218 743.427V741.147C146.218 740.991 145.683 740.508 144.698 740.508C144.355 740.508 144.025 740.371 143.782 740.128C143.539 739.885 143.403 739.556 143.403 739.212C143.403 738.869 143.539 738.539 143.782 738.296C144.025 738.053 144.355 737.917 144.698 737.917C147.004 737.917 148.81 739.333 148.81 741.147V743.427Z" fill="white"/>
<g opacity="0.2" filter="url(#filter0_f_10272_1616)">
<path d="M1098.14 1042.5C1098.14 1051.06 1035.24 1058 957.641 1058C880.045 1058 817.141 1051.06 817.141 1042.5C817.141 1033.94 880.045 1027 957.641 1027C1035.24 1027 1098.14 1033.94 1098.14 1042.5Z" fill="#0A0F1A"/>
</g>
<path d="M1042.6 928.095H850.221V875.727H1042.6C1048.94 875.727 1055.02 878.246 1059.51 882.73C1063.99 887.215 1066.51 893.297 1066.51 899.639V904.262C1066.49 910.591 1063.96 916.653 1059.48 921.12C1055 925.587 1048.93 928.095 1042.6 928.095Z" fill="#F5F8F9"/>
<path fill-rule="evenodd" clip-rule="evenodd" d="M1053.87 884.315H842.61V872H1060.36C1074.01 872 1072.67 882.028 1072.67 895.654V906.733C1072.67 920.497 1074.03 930.387 1060.36 930.387H842.61V918.072H1053.87C1062.27 918.072 1060.36 912.259 1060.36 906.733V895.654C1060.36 890.229 1062.21 884.315 1053.87 884.315Z" fill="#1968F0"/>
<path d="M1042.6 1043.86H850.221V991.495H1042.6C1048.94 991.495 1055.02 994.014 1059.51 998.499C1063.99 1002.98 1066.51 1009.07 1066.51 1015.41V1020.03C1066.49 1026.36 1063.96 1032.42 1059.48 1036.89C1055 1041.36 1048.93 1043.86 1042.6 1043.86Z" fill="#F5F8F9"/>
<path fill-rule="evenodd" clip-rule="evenodd" d="M1053.87 1000.08H842.61V987.769H1060.36C1074.01 987.769 1072.67 997.796 1072.67 1011.42V1022.5C1072.67 1036.27 1074.03 1046.16 1060.36 1046.16H842.61V1033.84H1053.87C1062.27 1033.84 1060.36 1028.03 1060.36 1022.5V1011.42C1060.36 1006 1062.21 1000.08 1053.87 1000.08Z" fill="#454545"/>
<path d="M1016.99 985.413H824.611V933.044H1016.99C1023.33 933.044 1029.41 935.564 1033.9 940.048C1038.38 944.533 1040.9 950.615 1040.9 956.957V961.58C1040.88 967.909 1038.35 973.97 1033.87 978.438C1029.39 982.905 1023.32 985.413 1016.99 985.413Z" fill="#F5F8F9"/>
<path fill-rule="evenodd" clip-rule="evenodd" d="M1028.26 941.633H817V929.318H1034.75C1048.4 929.318 1047.06 939.345 1047.06 952.972V964.051C1047.06 977.815 1048.42 987.705 1034.75 987.705H817V975.39H1028.26C1036.66 975.39 1034.75 969.577 1034.75 964.051V952.972C1034.75 947.547 1036.6 941.633 1028.26 941.633Z" fill="#0096FA"/>
<g opacity="0.2" filter="url(#filter1_f_10272_1616)">
<path d="M253 1049.05C253 1056.92 219.197 1063.31 177.5 1063.31C135.802 1063.31 102 1056.92 102 1049.05C102 1041.17 135.802 1034.78 177.5 1034.78C219.197 1034.78 253 1041.17 253 1049.05Z" fill="#0A0F1A"/>
</g>
<path opacity="0.08" d="M181.897 863.127C181.897 863.127 169.463 849.201 167.179 847.318C161.407 843.049 155.918 838.412 150.747 833.436C149.758 832.366 148.889 831.191 148.154 829.933C147.444 828.785 146.981 827.503 146.792 826.167C146.592 824.773 146.774 823.35 147.32 822.051C147.92 820.637 148.837 819.379 150 818.372C153.379 815.61 157.256 813.514 161.423 812.198C168.362 809.794 175.469 807.906 182.688 806.549C185.989 805.891 189.235 804.984 192.398 803.834C194.087 803.245 195.662 802.371 197.055 801.25C197.321 801.029 197.544 800.762 197.714 800.462C197.733 800.375 197.733 800.286 197.714 800.199C197.714 800.199 197.714 800.199 197.714 799.936C197.584 799.669 197.422 799.419 197.231 799.192C195.144 797.248 192.676 795.757 189.981 794.813C186.481 793.412 182.822 792.441 179.085 791.923C173.43 791.228 167.854 789.996 162.433 788.244C158.741 787.082 155.351 785.124 152.504 782.508C151.372 781.389 150.463 780.066 149.824 778.61C149.212 777.233 148.911 775.738 148.945 774.231C149.093 771.363 150.155 768.617 151.977 766.393C155.876 761.796 160.922 758.307 166.607 756.277C168.881 755.373 171.234 754.684 173.637 754.219L175.395 754C178.514 754 184.182 754 182.776 758.379C181.721 761.707 179.656 761.663 176.405 762.189L175.131 762.408C173.247 762.749 171.395 763.247 169.595 763.897C165.308 765.371 161.447 767.866 158.347 771.166C157.574 772.081 157.058 773.184 156.854 774.363C156.838 774.754 156.913 775.144 157.073 775.501C157.298 776.078 157.642 776.6 158.084 777.034C160.084 778.854 162.45 780.228 165.026 781.063C174.34 784.566 183.303 784.478 192.661 788.463C196.408 789.921 199.751 792.248 202.415 795.251C203.004 795.986 203.465 796.815 203.777 797.703C204.161 798.646 204.312 799.668 204.217 800.681C204.153 801.733 203.837 802.754 203.294 803.659C202.74 804.567 202.043 805.381 201.229 806.067C199.222 807.621 196.963 808.82 194.551 809.614C191.038 810.772 187.439 811.651 183.786 812.242C176.798 813.412 169.887 815.006 163.092 817.015C159.497 818.027 156.107 819.657 153.075 821.832C152.379 822.387 151.797 823.071 151.362 823.846C151.108 824.424 151.002 825.056 151.054 825.685C151.148 826.5 151.402 827.289 151.801 828.006C152.342 829.034 152.99 830.003 153.734 830.897C158.54 835.983 163.645 840.779 169.024 845.26C171.265 847.362 183.259 859.492 181.897 863.127Z" fill="black"/>
<path opacity="0.08" d="M198.922 862.665C198.922 862.665 198.922 861.961 199.142 861.873C199.351 860.041 199.062 858.186 198.306 856.505C197.517 854.941 196.424 853.55 195.092 852.412C191.714 849.828 188.068 847.615 184.217 845.812C180.158 843.967 176.367 841.584 172.945 838.728C171.395 837.361 170.176 835.661 169.379 833.755C168.586 831.678 168.417 829.415 168.895 827.243C169.128 826.029 169.692 824.902 170.524 823.987C171.376 823.044 172.371 822.242 173.474 821.611C176.098 820.207 178.896 819.157 181.795 818.486C188.487 816.858 195.004 815.934 202.004 814.57C204.737 814.065 207.419 813.314 210.017 812.326C210.888 811.984 211.715 811.54 212.483 811.006C212.962 810.698 213.356 810.274 213.627 809.774C213.829 809.429 213.906 809.025 213.848 808.63C213.704 807.872 213.404 807.153 212.967 806.518C211.999 805.094 210.876 803.781 209.621 802.602C208.256 801.282 205.526 799.081 207.111 797.145C208.696 795.209 211.954 797.893 213.319 799.169C214.897 800.656 216.273 802.343 217.414 804.186C218.187 805.394 218.669 806.764 218.823 808.19C218.954 809.503 218.677 810.824 218.03 811.974C217.372 813.06 216.485 813.991 215.433 814.702C214.309 815.425 213.114 816.03 211.866 816.506C209.005 817.529 206.058 818.295 203.061 818.795C196.324 819.983 189.588 820.731 182.896 822.183C180.344 822.664 177.87 823.493 175.543 824.647C174.754 825.032 174.038 825.554 173.43 826.187C172.977 826.658 172.644 827.232 172.461 827.859C172.02 829.442 172.02 831.116 172.461 832.699C173.034 834.226 173.936 835.608 175.103 836.748C178.223 839.523 181.685 841.889 185.405 843.788C189.334 845.808 192.989 848.322 196.28 851.268C197.672 852.636 198.753 854.287 199.45 856.109C200.066 858.011 200.066 860.059 199.45 861.961C199.45 861.961 198.922 862.753 198.922 862.665Z" fill="black"/>
<rect x="134.842" y="871.802" width="97.7116" height="17.8073" rx="8" fill="#141414"/>
<rect x="127.99" y="883.671" width="110.953" height="17.8073" rx="4" fill="#141414"/>
<path fill-rule="evenodd" clip-rule="evenodd" d="M125.021 898.509L140.33 1039.44C141.102 1046.54 147.101 1051.93 154.248 1051.93H180.041H185.977H211.769C218.916 1051.93 224.915 1046.54 225.687 1039.44L240.996 898.509H185.977H180.041H125.021Z" fill="#E0E0E0"/>
<path fill-rule="evenodd" clip-rule="evenodd" d="M127.994 930.25L138.039 1018.83H179.765H185.35H228.217L237.121 930.25H185.35H179.765H127.994Z" fill="#072F73"/>
<rect x="122.057" y="891.433" width="123.281" height="10.0451" rx="4" fill="#141414"/>
<path opacity="0.3" d="M724.843 426.156C724.843 419.644 730.122 414.364 736.635 414.364H919.414C925.927 414.364 931.207 419.644 931.207 426.156V547.027C931.207 553.539 925.927 558.819 919.414 558.819H736.635C730.122 558.819 724.843 553.539 724.843 547.027V426.156Z" fill="#B2DFFD"/>
<path opacity="0.3" d="M736.637 440.897C736.637 434.384 741.916 429.104 748.429 429.104H931.208C937.721 429.104 943.001 434.384 943.001 440.897V561.767C943.001 568.28 937.721 573.559 931.208 573.559H748.429C741.916 573.559 736.637 568.28 736.637 561.767V440.897Z" fill="#B2DFFD"/>
<path d="M716 414.364C716 407.851 721.28 402.572 727.792 402.572H910.572C917.084 402.572 922.364 407.851 922.364 414.364V535.234C922.364 541.747 917.084 547.027 910.572 547.027H727.792C721.28 547.027 716 541.747 716 535.234V414.364Z" fill="#F6F6F6"/>
<path d="M716 414.364C716 407.851 721.28 402.572 727.792 402.572H910.572C917.084 402.572 922.364 407.851 922.364 414.364V435H716V414.364Z" fill="#141414"/>
<path d="M742.533 418.786C742.533 421.228 740.553 423.208 738.111 423.208C735.668 423.208 733.688 421.228 733.688 418.786C733.688 416.344 735.668 414.364 738.111 414.364C740.553 414.364 742.533 416.344 742.533 418.786Z" fill="#E60F0F"/>
<path d="M754.325 418.786C754.325 421.228 752.345 423.208 749.903 423.208C747.461 423.208 745.481 421.228 745.481 418.786C745.481 416.344 747.461 414.364 749.903 414.364C752.345 414.364 754.325 416.344 754.325 418.786Z" fill="#F06305"/>
<path d="M766.116 418.786C766.116 421.228 764.136 423.208 761.694 423.208C759.251 423.208 757.272 421.228 757.272 418.786C757.272 416.344 759.251 414.364 761.694 414.364C764.136 414.364 766.116 416.344 766.116 418.786Z" fill="#4DCB7B"/>
<path d="M834.807 452.69H731.33C729.376 452.69 727.792 454.274 727.792 456.228V521.277C727.792 523.231 729.376 524.815 731.33 524.815H834.807C836.76 524.815 838.344 523.231 838.344 521.277V456.228C838.344 454.274 836.76 452.69 834.807 452.69Z" fill="#E0E0E0"/>
<path opacity="0.7" d="M781.728 476.275C779.221 476.278 776.771 477.023 774.688 478.418C772.605 479.812 770.982 481.793 770.024 484.11C769.067 486.426 768.817 488.975 769.308 491.433C769.799 493.891 771.007 496.149 772.78 497.921C774.554 499.692 776.813 500.899 779.271 501.387C781.73 501.875 784.278 501.623 786.594 500.663C788.91 499.703 790.889 498.078 792.282 495.994C793.674 493.91 794.417 491.459 794.417 488.952C794.414 485.589 793.075 482.364 790.696 479.987C788.317 477.61 785.091 476.275 781.728 476.275Z" fill="#0096FA"/>
<path d="M779.738 494.552C779.734 494.745 779.79 494.933 779.896 495.092C780.003 495.25 780.155 495.371 780.332 495.436C780.509 495.502 780.702 495.509 780.883 495.457C781.064 495.404 781.224 495.296 781.342 495.145L783.082 493.026L785.932 489.545C786.068 489.379 786.143 489.169 786.143 488.952C786.143 488.735 786.068 488.525 785.932 488.359L783.082 484.878L781.342 482.759C781.224 482.609 781.064 482.5 780.883 482.448C780.702 482.396 780.509 482.403 780.332 482.468C780.155 482.534 780.003 482.654 779.896 482.813C779.79 482.971 779.734 483.16 779.738 483.352V494.552Z" fill="#F6F6F6"/>
<path d="M907.033 452.689H849.251C847.297 452.689 845.713 454.273 845.713 456.227V519.905C845.713 521.858 847.297 523.442 849.251 523.442H907.033C908.987 523.442 910.57 521.858 910.57 519.905V456.227C910.57 454.273 908.987 452.689 907.033 452.689Z" fill="#F6F6F6"/>
<path fill-rule="evenodd" clip-rule="evenodd" d="M852.351 464.481C852.351 463.259 853.341 462.27 854.562 462.27H900.256C901.478 462.27 902.468 463.259 902.468 464.481C902.468 465.702 901.478 466.692 900.256 466.692H854.562C853.341 466.692 852.351 465.702 852.351 464.481Z" fill="#E0E0E0"/>
<path fill-rule="evenodd" clip-rule="evenodd" d="M852.351 473.323C852.351 472.102 853.341 471.112 854.562 471.112H900.256C901.478 471.112 902.468 472.102 902.468 473.323C902.468 474.544 901.478 475.534 900.256 475.534H854.562C853.341 475.534 852.351 474.544 852.351 473.323Z" fill="#E0E0E0"/>
<path fill-rule="evenodd" clip-rule="evenodd" d="M852.351 482.171C852.351 480.95 853.341 479.96 854.562 479.96H900.256C901.478 479.96 902.468 480.95 902.468 482.171C902.468 483.392 901.478 484.382 900.256 484.382H854.562C853.341 484.382 852.351 483.392 852.351 482.171Z" fill="#E0E0E0"/>
<path fill-rule="evenodd" clip-rule="evenodd" d="M852.351 502.806C852.351 501.585 853.341 500.595 854.562 500.595H900.256C901.478 500.595 902.468 501.585 902.468 502.806C902.468 504.027 901.478 505.017 900.256 505.017H854.562C853.341 505.017 852.351 504.027 852.351 502.806Z" fill="#E0E0E0"/>
<path fill-rule="evenodd" clip-rule="evenodd" d="M852.351 511.65C852.351 510.429 853.341 509.439 854.562 509.439H900.256C901.478 509.439 902.468 510.429 902.468 511.65C902.468 512.871 901.478 513.861 900.256 513.861H854.562C853.341 513.861 852.351 512.871 852.351 511.65Z" fill="#E0E0E0"/>
<path fill-rule="evenodd" clip-rule="evenodd" d="M852.351 491.014C852.351 489.792 853.341 488.802 854.562 488.802H881.094C882.315 488.802 883.305 489.792 883.305 491.014C883.305 492.235 882.315 493.225 881.094 493.225H854.562C853.341 493.225 852.351 492.235 852.351 491.014Z" fill="#E0E0E0"/>
<path opacity="0.3" d="M35.9323 144.484C35.9323 137.171 41.8606 131.243 49.1735 131.243H254.413C261.726 131.243 267.654 137.171 267.654 144.484V280.207C267.654 287.52 261.726 293.448 254.413 293.448H49.1735C41.8606 293.448 35.9323 287.52 35.9323 280.207V144.484Z" fill="#B2DFFD"/>
<path opacity="0.3" d="M49.173 161.036C49.173 153.723 55.1013 147.794 62.4142 147.794H267.654C274.967 147.794 280.895 153.723 280.895 161.036V296.759C280.895 304.072 274.967 310 267.654 310H62.4143C55.1013 310 49.173 304.072 49.173 296.759V161.036Z" fill="#B2DFFD"/>
<path d="M26 131.241C26 123.928 31.9283 118 39.2413 118H244.481C251.794 118 257.722 123.928 257.722 131.241V266.964C257.722 274.277 251.794 280.206 244.481 280.206H39.2413C31.9283 280.206 26 274.277 26 266.964V131.241Z" fill="#F8FBFB"/>
<path d="M26 131.241C26 123.928 31.9283 118 39.2413 118H244.481C251.794 118 257.722 123.928 257.722 131.241V154.413H26V131.241Z" fill="#141414"/>
<path d="M185.829 188.111L185.829 234.157C185.829 238.145 189.062 241.377 193.05 241.377L230.387 241.377C234.375 241.377 237.607 238.145 237.607 234.157L237.607 188.111C237.607 184.123 234.375 180.891 230.387 180.891L193.05 180.891C189.062 180.891 185.829 184.123 185.829 188.111Z" fill="#F6F6F6"/>
<path d="M211.703 212.527C217.089 212.527 221.455 208.161 221.455 202.776C221.455 197.39 217.089 193.025 211.703 193.025C206.318 193.025 201.952 197.39 201.952 202.776C201.952 208.161 206.318 212.527 211.703 212.527Z" fill="#FCAA73"/>
<path fill-rule="evenodd" clip-rule="evenodd" d="M199.05 220.881C199.05 219.786 199.937 218.899 201.032 218.899H222.395C223.489 218.899 224.376 219.786 224.376 220.881C224.376 221.975 223.489 222.862 222.395 222.862H201.032C199.937 222.862 199.05 221.975 199.05 220.881Z" fill="#E0E0E0"/>
<path fill-rule="evenodd" clip-rule="evenodd" d="M202.725 229.248C202.725 228.153 203.612 227.266 204.706 227.266H218.7C219.795 227.266 220.682 228.153 220.682 229.248C220.682 230.342 219.795 231.229 218.7 231.229H204.706C203.612 231.229 202.725 230.342 202.725 229.248Z" fill="#E0E0E0"/>
<path d="M117.501 188.114L117.501 234.16C117.501 238.147 120.734 241.38 124.722 241.38L162.059 241.38C166.047 241.38 169.279 238.147 169.279 234.16L169.279 188.114C169.279 184.126 166.047 180.893 162.059 180.893L124.722 180.893C120.734 180.893 117.501 184.126 117.501 188.114Z" fill="#F6F6F6"/>
<path d="M143.375 212.529C148.761 212.529 153.127 208.164 153.127 202.778C153.127 197.393 148.761 193.027 143.375 193.027C137.99 193.027 133.624 197.393 133.624 202.778C133.624 208.164 137.99 212.529 143.375 212.529Z" fill="#F99F9F"/>
<path fill-rule="evenodd" clip-rule="evenodd" d="M130.722 220.881C130.722 219.786 131.609 218.899 132.704 218.899H154.067C155.161 218.899 156.048 219.786 156.048 220.881C156.048 221.975 155.161 222.862 154.067 222.862H132.704C131.609 222.862 130.722 221.975 130.722 220.881Z" fill="#E0E0E0"/>
<path fill-rule="evenodd" clip-rule="evenodd" d="M134.397 229.248C134.397 228.154 135.284 227.267 136.378 227.267H150.372C151.467 227.267 152.354 228.154 152.354 229.248C152.354 230.343 151.467 231.23 150.372 231.23H136.378C135.284 231.23 134.397 230.343 134.397 229.248Z" fill="#E0E0E0"/>
<path d="M49.1713 188.111L49.1713 234.157C49.1713 238.145 52.404 241.377 56.3917 241.377L93.7289 241.377C97.7166 241.377 100.949 238.145 100.949 234.157L100.949 188.111C100.949 184.123 97.7166 180.891 93.7289 180.891L56.3917 180.891C52.404 180.891 49.1713 184.123 49.1713 188.111Z" fill="#F6F6F6"/>
<path d="M75.0453 212.527C80.4307 212.527 84.7965 208.161 84.7965 202.776C84.7965 197.39 80.4307 193.025 75.0453 193.025C69.6599 193.025 65.2942 197.39 65.2942 202.776C65.2942 208.161 69.6599 212.527 75.0453 212.527Z" fill="#84EBBC"/>
<path fill-rule="evenodd" clip-rule="evenodd" d="M62.392 220.881C62.392 219.786 63.2792 218.899 64.3736 218.899H85.7368C86.8312 218.899 87.7184 219.786 87.7184 220.881C87.7184 221.975 86.8312 222.862 85.7368 222.862H64.3736C63.2792 222.862 62.392 221.975 62.392 220.881Z" fill="#E0E0E0"/>
<path fill-rule="evenodd" clip-rule="evenodd" d="M66.0667 229.248C66.0667 228.153 66.9538 227.266 68.0483 227.266H82.0423C83.1367 227.266 84.0239 228.153 84.0239 229.248C84.0239 230.342 83.1367 231.229 82.0423 231.229H68.0483C66.9538 231.229 66.0667 230.342 66.0667 229.248Z" fill="#E0E0E0"/>
<path d="M55.7932 136.208C55.7932 138.951 53.5701 141.174 50.8277 141.174C48.0854 141.174 45.8622 138.951 45.8622 136.208C45.8622 133.466 48.0854 131.243 50.8277 131.243C53.5701 131.243 55.7932 133.466 55.7932 136.208Z" fill="#E60F0F"/>
<path d="M69.034 136.208C69.034 138.951 66.8109 141.174 64.0685 141.174C61.3261 141.174 59.103 138.951 59.103 136.208C59.103 133.466 61.3261 131.243 64.0685 131.243C66.8109 131.243 69.034 133.466 69.034 136.208Z" fill="#FCAA73"/>
<path d="M82.2747 136.208C82.2747 138.951 80.0516 141.174 77.3092 141.174C74.5669 141.174 72.3438 138.951 72.3438 136.208C72.3438 133.466 74.5669 131.243 77.3092 131.243C80.0516 131.243 82.2747 133.466 82.2747 136.208Z" fill="#35DE90"/>
</g>
</g>
<defs>
<filter id="filter0_f_10272_1616" x="803.141" y="1013" width="309" height="59" filterUnits="userSpaceOnUse" color-interpolation-filters="sRGB">
<feFlood flood-opacity="0" result="BackgroundImageFix"/>
<feBlend mode="normal" in="SourceGraphic" in2="BackgroundImageFix" result="shape"/>
<feGaussianBlur stdDeviation="7" result="effect1_foregroundBlur_10272_1616"/>
</filter>
<filter id="filter1_f_10272_1616" x="88" y="1020.78" width="179" height="56.5356" filterUnits="userSpaceOnUse" color-interpolation-filters="sRGB">
<feFlood flood-opacity="0" result="BackgroundImageFix"/>
<feBlend mode="normal" in="SourceGraphic" in2="BackgroundImageFix" result="shape"/>
<feGaussianBlur stdDeviation="7" result="effect1_foregroundBlur_10272_1616"/>
</filter>
<linearGradient id="paint0_linear_10272_1616" x1="451.594" y1="787.646" x2="321.11" y2="892.674" gradientUnits="userSpaceOnUse">
<stop offset="0.1453" stop-color="#F06305"/>
<stop offset="0.953125" stop-color="#6C2C00"/>
</linearGradient>
<linearGradient id="paint1_linear_10272_1616" x1="555.735" y1="400.523" x2="629.011" y2="382.633" gradientUnits="userSpaceOnUse">
<stop offset="0.479167" stop-color="#8C3A03"/>
</linearGradient>
<linearGradient id="paint2_linear_10272_1616" x1="515.629" y1="462.061" x2="479.741" y2="409.624" gradientUnits="userSpaceOnUse">
<stop offset="0.635417" stop-color="#F89A9A" stop-opacity="0"/>
<stop offset="1" stop-color="#753103"/>
</linearGradient>
<linearGradient id="paint3_linear_10272_1616" x1="681.515" y1="713.219" x2="576.804" y2="643.155" gradientUnits="userSpaceOnUse">
<stop stop-color="#C5D9FB"/>
<stop offset="0.1836" stop-color="#D9E4F9"/>
<stop offset="0.4073" stop-color="#E9EEF7"/>
<stop offset="0.66" stop-color="#F2F3F5"/>
<stop offset="1" stop-color="#F5F5F5"/>
</linearGradient>
<linearGradient id="paint4_linear_10272_1616" x1="534.042" y1="1187.6" x2="535.003" y2="586.736" gradientUnits="userSpaceOnUse">
<stop offset="0.108095" stop-color="#DAF2F4"/>
<stop offset="1" stop-color="#DAF2F4" stop-opacity="0"/>
</linearGradient>
<clipPath id="clip0_10272_1616">
<rect width="1080" height="1080" fill="white"/>
</clipPath>
<clipPath id="clip1_10272_1616">
<rect width="1080" height="1080" rx="8" fill="white"/>
</clipPath>
</defs>
</svg>
