<svg xmlns="http://www.w3.org/2000/svg" width="1080" height="1080" viewBox="0 0 1080 1080" fill="none"><circle cx="883.872" cy="619.871" r="159.871" fill="#1968F0"/><circle cx="387.724" cy="606.19" r="336.075" fill="#E0E0E0" opacity=".3"/><path fill="#0096FA" d="M853.435 563.017c-8.116-49.675-40.749-90.368-84.88-105.949l-151.499-54.074v-42.159H497.851v42.159l-19.275 6.966-132.224 47.108c-44.131 15.764-76.764 56.457-84.88 105.949L211.93 863.082h691.047z"/><path fill="url(#a)" d="M361.906 643.12v219.413l178.214.733z"/><path fill="#8C3A03" d="M542.603 299.797h154.345c9.47 0 17.228-9.88 17.228-21.941V129.272c0-12.062-7.758-21.942-17.228-21.942H542.603c-9.47 0-17.228 9.88-17.228 21.942v148.584c0 12.061 7.758 21.941 17.228 21.941"/><path fill="#8C3A03" d="M399.628 299.797h154.345c9.47 0 17.228-9.88 17.228-21.941V129.272c0-12.062-7.758-21.942-17.228-21.942H399.628c-9.47 0-17.228 9.88-17.228 21.942v148.584c0 12.061 7.758 21.941 17.228 21.941"/><path fill="#FCAA73" fill-rule="evenodd" d="M508.037 52.34h-34.705l-10.331 13.38v263.222l10.331 13.381h24.496v52.791h120.979v-52.791h22.786l10.209-13.381V65.721L641.593 52.34H508.037" clip-rule="evenodd"/><path fill="#FCAA73" d="M431.227 275.968h44.657v-69.655h-60.49v53.861c0 8.707 7.105 15.794 15.833 15.794M674.511 275.968h-44.656v-69.655h60.489v53.861c0 8.707-7.104 15.794-15.833 15.794"/><path fill="#8C3A03" d="m645.374 52.34 14.639 13.381 1.003 150.857-1.203.733L513.821 83.135l-74.6 82.119V65.721L453.86 52.34z"/><path fill="#FCAA73" d="M641.223 269.916h-36.66v-57.373h49.675v44.542c0 7.149-5.866 12.831-13.015 12.831"/><path fill="url(#b)" d="M541.506 342.144h-45.642v18.33h45.642z"/><path fill="#0096FA" d="M477.465 378.112h155.806v60.49H477.465zM710.411 700.596l-25.547-154.987 177.979-10.219 40.024 165.206z"/><path fill="#0096FA" d="M866.249 560.089c0 59.729-48.421 108.15-108.15 108.15s-108.15-48.421-108.15-108.15 48.42-108.15 108.15-108.15c59.729 0 108.15 48.42 108.15 108.15"/><path fill="#FCAA73" fill-rule="evenodd" d="m892.536 697.701 22.591 128.413a106.3 106.3 0 0 1 2.895 24.701c0 58.507-47.429 105.936-105.936 105.936-4.085 0-8.115-.231-12.079-.681H452.782V782.349H726.84l-14.668-84.648z" clip-rule="evenodd"/><path fill="url(#c)" d="m709.165 575.028-101.24 4.146c-6.334.231-11.287 5.644-11.056 11.978l2.188 53.557c.23 6.335 5.643 11.287 11.978 11.057l101.239-4.147c6.335-.23 11.288-5.643 11.057-11.978l-2.188-53.556c-.231-6.45-5.644-11.403-11.978-11.057"/><path fill="#C5D9FB" d="M635.335 642.402c13.739 0 24.878-11.138 24.878-24.878s-11.139-24.878-24.878-24.878-24.878 11.139-24.878 24.878 11.138 24.878 24.878 24.878"/><path fill="#1968F0" d="M635.354 618.88c4.894-.2 8.714-3.969 8.532-8.418s-4.297-7.894-9.191-7.694-8.714 3.969-8.532 8.418 4.297 7.894 9.191 7.694M636.374 642.404c6.911-.23 13.13-3.455 17.277-8.292-2.88-7.141-10.021-12.094-18.083-11.748-8.177.345-14.858 5.874-17.161 13.245 4.607 4.377 10.942 7.025 17.967 6.795M709.397 628.238l-35.935 1.497c-2.073.116-3.916-1.497-3.916-3.685l-.346-9.56c-.115-2.073 1.498-3.916 3.686-3.916l35.935-1.497c2.073-.115 3.916 1.497 3.916 3.686l.345 9.559c.115 2.073-1.612 3.801-3.685 3.916"/><path fill="#C5D9FB" d="m692.582 607.508-21.768.922c-1.152 0-2.073-.806-2.073-1.958l-.116-2.073c0-1.152.807-2.074 1.958-2.074l21.769-.921c1.151 0 2.073.806 2.073 1.958l.115 2.073c0 1.152-.806 2.073-1.958 2.073"/><path fill="#A3A3A3" d="m680.935 567.425-45.909 1.879c-1.956.118-3.337 1.762-3.337 3.642l.345 9.397a3.57 3.57 0 0 0 3.567 3.406l45.909-1.879c1.956-.118 3.337-1.762 3.337-3.642l-.345-9.397c0-1.997-1.611-3.523-3.567-3.406"/><path fill="#0096FA" d="m406.631 700.596 25.547-154.987-177.979-10.219-40.024 165.206z"/><path fill="#0096FA" d="M250.793 560.089c0 59.729 48.42 108.15 108.15 108.15 59.729 0 108.15-48.421 108.15-108.15s-48.421-108.15-108.15-108.15-108.15 48.42-108.15 108.15"/><path fill="#FCAA73" fill-rule="evenodd" d="m224.502 697.701-22.591 128.414a106.2 106.2 0 0 0-2.895 24.7c0 47.095 30.731 87.013 73.235 100.793v4.462h20.621c3.964.45 7.995.681 12.079.681s8.115-.231 12.079-.681h316.288V782.349H390.197l14.668-84.648z" clip-rule="evenodd"/><path fill="url(#d)" d="M924.972 341.956 821.695 1023.84H294.768L193.599 341.956z"/><path fill="#0C4EC0" fill-rule="evenodd" d="M411.273 739.719H249.309c-8.512 0-14.939 7.816-13.376 16.152l53.85 277.189c1.389 6.42 6.948 10.94 13.375 10.94h510.423c6.428 0 11.986-4.52 13.376-10.94l53.849-277.189c1.564-8.336-4.863-16.152-13.375-16.152H411.273" clip-rule="evenodd"/><path fill="#0096FA" d="M566.874 842.818c-34.118 0-52.418 12.872-52.418 46.37 0 29.931 15.508 53.038 52.418 53.038h2.792v14.733c0 1.241.93 2.327 2.326 2.327 1.085 0 1.396-.466 2.326-1.241 6.514-5.583 25.744-23.107 25.744-23.107 9.615-9.15 19.23-20.006 19.23-45.75 0-33.498-18.3-46.37-52.418-46.37"/><path fill="#072F73" fill-rule="evenodd" d="M616.466 189.783c-16.984 0-30.751 13.768-30.751 30.751 0 16.984 13.767 30.751 30.751 30.751 16.983 0 30.751-13.767 30.751-30.751 0-16.983-13.768-30.751-30.751-30.751m-37.534 30.751c0-20.729 16.804-37.534 37.534-37.534C637.195 183 654 199.805 654 220.534c0 20.73-16.805 37.534-37.534 37.534-20.73 0-37.534-16.804-37.534-37.534" clip-rule="evenodd"/><path fill="#072F73" fill-rule="evenodd" d="M556.775 203.123c-9.572 0-17.917 4.264-23.643 11.013a3.392 3.392 0 0 1-5.172-4.389c6.936-8.174 17.132-13.407 28.815-13.407 11.708 0 22.122 5.48 29.041 13.633a3.392 3.392 0 0 1-5.173 4.389c-5.744-6.769-14.322-11.239-23.868-11.239" clip-rule="evenodd"/><path fill="#072F73" fill-rule="evenodd" d="M497.534 189.783c-16.983 0-30.751 13.768-30.751 30.751 0 16.984 13.768 30.751 30.751 30.751 16.984 0 30.751-13.767 30.751-30.751 0-16.983-13.767-30.751-30.751-30.751M460 220.534C460 199.805 476.805 183 497.534 183c20.73 0 37.534 16.805 37.534 37.534 0 20.73-16.804 37.534-37.534 37.534-20.729 0-37.534-16.804-37.534-37.534" clip-rule="evenodd"/><path fill="#E0E0E0" d="M817.07 201.94c-2.937-8.083-9.513-13.094-18.448-13.729-3.719-.235-7.751-.059-11.733.48l-1.087.147c8.309 1.457 14.885 6.468 17.459 14.6 3.592 10.207 3.153 20.59-.938 28.517-1.732 3.552-4.286 6.478-6.527 8.994l-1.252 1.644-.313.411.636 4.707c.245 1.81 1.84 2.701 3.65 2.456.725-.098 1.038-.509 1.713-.969 2.241-2.515 5.421-6.263 8.288-9.601l1.253-1.644c2.192-2.877 4.746-5.803 6.165-8.945 4.139-7.565 4.628-17.586 1.134-27.068" opacity=".6"/><path fill="#E0E0E0" d="M803.261 203.437c-3.034-8.807-10.433-14.444-20.092-14.981-3.718-.235-8.112-.01-12.095.529-5.432.734-12.938 2.486-17.879 6.841-6.655 5.324-9.15 14.141-7.319 24.955 1.194 6.107 3.817 14.601 10.492 20.335 5.343 4.071 14.014 5.48 20.991 5.274l.539 3.983c.342 2.534 2.808 4.413 5.343 4.071l.362-.049c1.086-.147 1.762-.607 2.388-1.429 3.542-3.797 6.047-7.086 8.601-10.012l1.253-1.644c2.192-2.877 4.746-5.803 6.527-8.994 4.041-8.289 4.432-19.034.889-28.879m-40.357 20.573c-2.535.342-4.59-1.223-4.933-3.758s1.224-4.59 3.758-4.932c2.535-.343 4.59 1.223 4.933 3.757.342 2.535-1.224 4.59-3.758 4.933m13.397-1.811c-2.535.342-4.59-1.223-4.932-3.758s1.223-4.59 3.757-4.932c2.535-.343 4.59 1.223 4.933 3.757.342 2.535-1.585 4.639-3.758 4.933m13.035-1.763c-2.534.343-4.59-1.223-4.932-3.757-.343-2.535 1.223-4.59 3.757-4.933 2.535-.342 4.59 1.223 4.933 3.758s-1.223 4.59-3.758 4.932"/><g filter="url(#e)" opacity=".2"><path fill="#0A0F1A" d="M345 1047.5c0 8.56-62.904 15.5-140.5 15.5S64 1056.06 64 1047.5s62.904-15.5 140.5-15.5 140.5 6.94 140.5 15.5"/></g><path fill="#F5F8F9" d="M289.458 933.094H97.08v-52.368h192.378a23.914 23.914 0 0 1 23.913 23.912v4.623a23.913 23.913 0 0 1-23.913 23.833"/><path fill="#1968F0" fill-rule="evenodd" d="M300.725 889.314H89.47v-12.315h217.745c13.656 0 12.315 10.028 12.315 23.654v11.079c0 13.764 1.36 23.654-12.315 23.654H89.47v-12.315h211.255c8.405 0 6.49-5.813 6.49-11.339v-11.079c0-5.425 1.855-11.339-6.49-11.339" clip-rule="evenodd"/><path fill="#F5F8F9" d="M289.459 1048.86H97.081v-52.366h192.378a23.9 23.9 0 0 1 16.908 7.006 23.9 23.9 0 0 1 7.004 16.91v4.62a23.92 23.92 0 0 1-7.032 16.86 23.94 23.94 0 0 1-16.88 6.97"/><path fill="#454545" fill-rule="evenodd" d="M300.725 1005.08H89.47v-12.312h217.745c13.656 0 12.315 10.032 12.315 23.652v11.08c0 13.76 1.36 23.65-12.315 23.65H89.47v-12.31h211.255c8.405 0 6.49-5.81 6.49-11.34v-11.08c0-5.42 1.855-11.34-6.49-11.34" clip-rule="evenodd"/><path fill="#F5F8F9" d="M263.848 990.412H71.47v-52.369h192.378a23.915 23.915 0 0 1 23.913 23.913v4.623a23.915 23.915 0 0 1-23.913 23.833"/><path fill="#0096FA" fill-rule="evenodd" d="M275.115 946.632H63.859v-12.315h217.746c13.655 0 12.315 10.027 12.315 23.654v11.079c0 13.764 1.36 23.654-12.315 23.654H63.859v-12.315h211.256c8.405 0 6.49-5.813 6.49-11.339v-11.079c0-5.425 1.854-11.339-6.49-11.339" clip-rule="evenodd"/><g filter="url(#f)" opacity=".2"><path fill="#0A0F1A" d="M1040.07 948.841c0 6.251-26.82 11.319-59.9 11.319-33.081 0-59.898-5.068-59.898-11.319s26.817-11.32 59.898-11.32c33.08 0 59.9 5.068 59.9 11.32"/></g><path fill="#C5D9FB" d="M963.206 861.488c8.294 0 15.016-6.724 15.016-15.018 0-8.293-6.722-15.015-15.016-15.015-8.293 0-15.015 6.722-15.015 15.015 0 8.294 6.722 15.018 15.015 15.018"/><path fill="#C5D9FB" d="M986.615 858.096c5.529 0 10.011-4.483 10.011-10.011 0-5.529-4.482-10.01-10.011-10.01s-10.011 4.481-10.011 10.01c0 5.528 4.483 10.011 10.011 10.011M979.015 826.45c5.975 0 10.818-4.843 10.818-10.818s-4.843-10.819-10.818-10.819-10.817 4.844-10.817 10.819 4.842 10.818 10.817 10.818"/><path fill="#C5D9FB" d="M969.175 816.279c6.866 0 12.433-5.567 12.433-12.433 0-6.867-5.567-12.433-12.433-12.433s-12.433 5.566-12.433 12.433c0 6.866 5.567 12.433 12.433 12.433M989.998 784.793a8.396 8.396 0 0 0 8.395-8.397 8.397 8.397 0 1 0-8.395 8.397"/><path fill="#F06305" d="M1007.12 939.799h-69.433c-5.328 0-9.688-4.36-9.688-9.688v-73.789c0-5.329 4.36-9.688 9.688-9.688h69.433c5.32 0 9.68 4.359 9.68 9.688v73.789c0 5.328-4.36 9.688-9.68 9.688"/><path fill="#F06305" d="M1014.06 927.688v-12.433c11.31 0 20.51-9.204 20.51-20.507 0-11.302-9.2-20.506-20.51-20.506v-12.433c18.09 0 32.94 14.694 32.94 32.939 0 18.246-14.69 32.94-32.94 32.94"/><g filter="url(#g)" opacity=".2"><path fill="#0A0F1A" d="M955.818 1047.66c0 5.89-25.255 10.66-56.409 10.66S843 1053.55 843 1047.66s25.255-10.66 56.409-10.66 56.409 4.77 56.409 10.66"/></g><path fill="#CFCFCF" d="M934.744 966.15v50.35c-.746 13.16-5.743 23.9-35.353 23.9-30.767 0-34.943-11.49-35.391-25.47v-48.78c0-19.392.746 2.201 35.391 2.201s35.353-21.593 35.353-2.201"/><path fill="#CFCFCF" d="M934.409 959.848c0 6.899-15.7 12.53-35.092 12.53-19.393 0-35.093-5.631-35.093-12.53s15.7-12.568 35.093-12.568c19.392 0 35.092 5.631 35.092 12.568"/><path fill="#8C8C8C" d="M931.313 960.071c0 5.855-14.209 10.592-31.774 10.592-17.564 0-31.81-4.737-31.81-10.592 0-5.854 14.246-10.591 31.81-10.591 17.565 0 31.774 4.737 31.774 10.591"/><mask id="h" width="65" height="22" x="867" y="949" maskUnits="userSpaceOnUse" style="mask-type:alpha"><path fill="#2498A8" d="M931.312 960.071c0 5.855-14.208 10.592-31.773 10.592s-31.81-4.737-31.81-10.592c0-5.854 14.245-10.591 31.81-10.591s31.773 4.737 31.773 10.591"/></mask><g mask="url(#h)"><path fill="#8C3A03" d="M867.169 966.522c0 5.333 14.209 9.659 31.736 9.659s31.773-4.326 31.773-9.659c0-5.332-14.208-9.621-31.773-9.621s-31.736 4.326-31.736 9.621"/></g><path fill="#007A42" d="M910.541 901.3a2.906 2.906 0 0 1 4.079 1.798 2.9 2.9 0 0 1-.014 1.67c-2.611 8.279-7.459 24.986-7.459 30.654.224 7.682-12.717 2.872-12.717 2.872l-7.272-8.354s11.337-22.86 23.383-28.64"/><path fill="#30CC84" d="M869.483 909.168c7.719 21.704 11.187 51.799 19.615 56.237 4.028 2.051 17.416 1.156 17.416 1.156a5.63 5.63 0 0 0 5.455-4.105 5.6 5.6 0 0 0 .139-2.421c-1.827-11.635-9.174-36.36-38.71-54.335a2.759 2.759 0 0 0-3.915 3.468"/><path fill="#35DE90" d="M931.761 909.169c-7.757 21.704-11.598 49.338-18.646 55.939-3.17 2.908-18.348 1.603-18.348 1.603a5.67 5.67 0 0 1-4.295-1.979 5.67 5.67 0 0 1-1.299-4.547c1.827-11.635 9.211-36.36 38.747-54.335a2.76 2.76 0 0 1 3.841 3.319"/><path fill="#30CC84" d="M927.994 937.771c-3.132 7.011-7.123 22.375-9.957 26.403-1.827 2.573-5.967 2.685-12.306 2.685-2.387 0 .373-18.646 20.324-30.804a1.344 1.344 0 0 1 1.939 1.716"/><path fill="#35DE90" d="M869.37 935.833c3.319 7.459 7.459 23.867 10.554 28.007 1.939 2.722 7.458 2.871 14.32 2.871 2.573 0-1.603-19.839-22.785-32.743a1.456 1.456 0 0 0-2.089 1.865"/><path fill="#CFCFCF" d="M864 973h71v67a8 8 0 0 1-8 8h-55a8 8 0 0 1-8-8z"/><path fill="#B2DFFD" d="M776.506 379.941c0-8.983 7.282-16.266 16.266-16.266h189.285c8.984 0 16.267 7.283 16.267 16.266v122.74c0 8.984-7.283 16.267-16.267 16.267H792.772c-8.984 0-16.266-7.283-16.266-16.267z" opacity=".3"/><path fill="#F6F6F6" d="M767 367.267c0-8.984 7.283-16.267 16.267-16.267h189.284c8.984 0 16.267 7.283 16.267 16.267v122.739c0 8.984-7.283 16.267-16.267 16.267H783.267c-8.984 0-16.267-7.283-16.267-16.267z"/><path fill="#141414" d="M767 367.267c0-8.984 7.283-16.267 16.267-16.267h189.284c8.984 0 16.267 7.283 16.267 16.267v18.59H767z"/><path fill="#A80B0B" d="M795.52 368.428a4.753 4.753 0 1 1-9.506 0 4.753 4.753 0 0 1 9.506 0"/><path fill="#F06305" d="M808.194 368.428a4.753 4.753 0 1 1-9.506 0 4.753 4.753 0 0 1 9.506 0"/><path fill="#4DCB7B" d="M820.869 368.428a4.753 4.753 0 1 1-9.506 0 4.753 4.753 0 0 1 9.506 0"/><path fill="#E0E0E0" d="M859.049 412.038a7.17 7.17 0 0 1 7.169-7.17h99.494a7.17 7.17 0 0 1 7.17 7.17v62.773a7.17 7.17 0 0 1-7.17 7.17h-99.494a7.17 7.17 0 0 1-7.169-7.17z"/><path fill="#E0E0E0" d="M963.104 424.316h-23.849a2.42 2.42 0 0 1-2.128-.396 2.42 2.42 0 0 1-.965-1.937 2.42 2.42 0 0 1 .965-1.938 2.423 2.423 0 0 1 2.128-.396h23.849a2.43 2.43 0 0 1 1.76 2.334 2.42 2.42 0 0 1-1.76 2.333M963.104 431.662h-23.849a2.42 2.42 0 0 1-2.128-.396 2.425 2.425 0 0 1 2.128-4.271h23.849a2.43 2.43 0 0 1 1.76 2.333 2.424 2.424 0 0 1-1.76 2.334M870.064 415.884h58.753v58.753h-58.753z"/><path fill="#CFCFCF" d="M919.09 466.787h-39.299a1.63 1.63 0 0 1-1.632-1.632v-39.789a1.632 1.632 0 1 1 3.264 0v38.157h37.667a1.632 1.632 0 1 1 0 3.264"/><path fill="#0096FA" d="M896.993 456.211a4.67 4.67 0 0 1-2.766-.816c-7.54-5.924-12.069-.563-12.241-.326a2.037 2.037 0 0 1-2.811.211 2.04 2.04 0 0 1-.338-2.798c.073-.09 7.246-8.609 17.821-.383.539.253 2.35 0 4.79-4.244 4.537-7.866 13.007-12.909 13.366-13.121a2.043 2.043 0 0 1 2.795.722 2.04 2.04 0 0 1-.722 2.795c-.081.041-7.915 4.733-11.905 11.644-2.106 3.648-4.415 5.712-6.871 6.243q-.556.089-1.118.073m-.343-4.129.065.049z" opacity=".7"/><path fill="#F06305" d="M880.346 455.779a2.038 2.038 0 0 1-2.031-2.143 2.05 2.05 0 0 1 .342-1.032c.889-1.322 8.886-12.77 16.704-12.77h.089c1.967 0 4.79.816 7.1 4.374 1.885 2.921 3.892 4.479 5.965 4.61 3.092.188 5.712-2.742 5.712-2.766a2.032 2.032 0 0 1 2.215-.702 2.03 2.03 0 0 1 1.224 1.037 2.04 2.04 0 0 1-.33 2.3c-.155.188-3.909 4.537-9.082 4.203-3.428-.229-6.528-2.399-9.123-6.471-1.078-1.632-2.293-2.448-3.713-2.505h-.057c-4.276 0-10.445 6.716-13.334 10.975a2.03 2.03 0 0 1-1.681.89" opacity=".8"/><path fill="#F6F6F6" d="M782.844 413.956v57.958a9.09 9.09 0 0 0 9.088 9.088h46.996a9.09 9.09 0 0 0 9.088-9.088v-57.958a9.09 9.09 0 0 0-9.088-9.088h-46.996a9.09 9.09 0 0 0-9.088 9.088"/><path fill="#0096FA" d="M815.411 444.686c6.778 0 12.274-5.495 12.274-12.273 0-6.779-5.496-12.274-12.274-12.274-6.779 0-12.274 5.495-12.274 12.274s5.495 12.273 12.274 12.273"/><path fill="#E0E0E0" fill-rule="evenodd" d="M799.289 455.199a2.69 2.69 0 0 1 2.689-2.688h26.889a2.689 2.689 0 1 1 0 5.377h-26.889a2.69 2.69 0 0 1-2.689-2.689M803.915 465.729a2.69 2.69 0 0 1 2.689-2.688h17.613a2.689 2.689 0 1 1 0 5.377h-17.613a2.69 2.69 0 0 1-2.689-2.689" clip-rule="evenodd"/><path fill="#B2DFFD" d="M60.947 177.863c0-6.589 5.341-11.931 11.93-11.931h184.931c6.589 0 11.931 5.342 11.931 11.931v122.293c0 6.589-5.342 11.931-11.931 11.931H72.878c-6.59 0-11.931-5.342-11.931-11.931z" opacity=".3"/><path fill="#F6F6F6" d="M52 165.931C52 159.342 57.342 154 63.931 154h184.931c6.589 0 11.931 5.342 11.931 11.931v122.293c0 6.589-5.342 11.931-11.931 11.931H63.931c-6.59 0-11.931-5.342-11.931-11.931z"/><path fill="#141414" d="M52 165.931C52 159.342 57.342 154 63.931 154h184.931c6.589 0 11.931 5.342 11.931 11.931v20.879H52z"/><path fill="#A80B0B" d="M78.845 170.406a4.474 4.474 0 1 1-8.948 0 4.474 4.474 0 0 1 8.948 0"/><path fill="#F06305" d="M90.777 170.406a4.474 4.474 0 1 1-8.948 0 4.474 4.474 0 0 1 8.948 0"/><path fill="#4DCB7B" d="M102.707 170.406a4.474 4.474 0 1 1-8.948 0 4.474 4.474 0 0 1 8.948 0"/><path fill="#E0E0E0" d="M172.206 204.709H67.511a3.58 3.58 0 0 0-3.58 3.579v65.815a3.58 3.58 0 0 0 3.58 3.58h104.695a3.58 3.58 0 0 0 3.579-3.58v-65.815a3.58 3.58 0 0 0-3.579-3.579"/><path fill="#0096FA" d="M118.504 228.571a12.83 12.83 0 0 0-11.841 7.927 12.826 12.826 0 1 0 24.68 4.899 12.84 12.84 0 0 0-12.839-12.826" opacity=".7"/><path fill="#F6F6F6" d="M116.492 247.064a.94.94 0 0 0 .16.545.9.9 0 0 0 .441.349.9.9 0 0 0 .557.02.9.9 0 0 0 .464-.315l1.761-2.144 2.883-3.522a.945.945 0 0 0 0-1.199l-2.883-3.523-1.761-2.143a.9.9 0 0 0-1.021-.295.9.9 0 0 0-.441.349.94.94 0 0 0-.16.545zM245.282 204.707h-58.461a3.58 3.58 0 0 0-3.58 3.579v64.428a3.58 3.58 0 0 0 3.58 3.579h58.461a3.58 3.58 0 0 0 3.58-3.579v-64.428a3.58 3.58 0 0 0-3.58-3.579"/><path fill="#E0E0E0" fill-rule="evenodd" d="M189.955 216.637a2.237 2.237 0 0 1 2.237-2.237h46.232a2.237 2.237 0 1 1 0 4.475h-46.232a2.237 2.237 0 0 1-2.237-2.238M189.955 225.584a2.236 2.236 0 0 1 2.237-2.237h46.232a2.236 2.236 0 1 1 0 4.474h-46.232a2.237 2.237 0 0 1-2.237-2.237M189.955 234.536a2.237 2.237 0 0 1 2.237-2.237h46.232a2.237 2.237 0 1 1 0 4.474h-46.232a2.236 2.236 0 0 1-2.237-2.237M189.955 255.413a2.236 2.236 0 0 1 2.237-2.237h46.232a2.236 2.236 0 1 1 0 4.474h-46.232a2.237 2.237 0 0 1-2.237-2.237M189.955 264.361a2.237 2.237 0 0 1 2.237-2.237h46.232a2.237 2.237 0 1 1 0 4.474h-46.232a2.236 2.236 0 0 1-2.237-2.237M189.955 243.483a2.236 2.236 0 0 1 2.237-2.237h26.844a2.236 2.236 0 1 1 0 4.474h-26.844a2.237 2.237 0 0 1-2.237-2.237" clip-rule="evenodd"/><defs><linearGradient id="a" x1="467.552" x2="324.039" y1="737.609" y2="853.124" gradientUnits="userSpaceOnUse"><stop offset=".145" stop-color="#0096FA"/><stop offset=".953" stop-color="#0C4EC0"/></linearGradient><linearGradient id="b" x1="537.98" x2="498.508" y1="379.511" y2="321.839" gradientUnits="userSpaceOnUse"><stop offset=".635" stop-color="#F89A9A" stop-opacity="0"/><stop offset="1" stop-color="#753103"/></linearGradient><linearGradient id="c" x1="720.429" x2="605.263" y1="655.75" y2="578.689" gradientUnits="userSpaceOnUse"><stop stop-color="#C5D9FB"/><stop offset=".184" stop-color="#D9E4F9"/><stop offset=".407" stop-color="#E9EEF7"/><stop offset=".66" stop-color="#F2F3F5"/><stop offset="1" stop-color="#F5F5F5"/></linearGradient><linearGradient id="d" x1="558.232" x2="559.288" y1="1177.5" y2="516.636" gradientUnits="userSpaceOnUse"><stop offset=".108" stop-color="#DAF2F4"/><stop offset="1" stop-color="#DAF2F4" stop-opacity="0"/></linearGradient><filter id="e" width="309" height="59" x="50" y="1018" color-interpolation-filters="sRGB" filterUnits="userSpaceOnUse"><feFlood flood-opacity="0" result="BackgroundImageFix"/><feBlend in="SourceGraphic" in2="BackgroundImageFix" result="shape"/><feGaussianBlur result="effect1_foregroundBlur_10272_1615" stdDeviation="7"/></filter><filter id="f" width="147.794" height="50.638" x="906.272" y="923.521" color-interpolation-filters="sRGB" filterUnits="userSpaceOnUse"><feFlood flood-opacity="0" result="BackgroundImageFix"/><feBlend in="SourceGraphic" in2="BackgroundImageFix" result="shape"/><feGaussianBlur result="effect1_foregroundBlur_10272_1615" stdDeviation="7"/></filter><filter id="g" width="140.818" height="49.32" x="829" y="1023" color-interpolation-filters="sRGB" filterUnits="userSpaceOnUse"><feFlood flood-opacity="0" result="BackgroundImageFix"/><feBlend in="SourceGraphic" in2="BackgroundImageFix" result="shape"/><feGaussianBlur result="effect1_foregroundBlur_10272_1615" stdDeviation="7"/></filter></defs></svg>