<svg width="1080" height="1081" viewBox="0 0 1080 1081" fill="none" xmlns="http://www.w3.org/2000/svg">
<path opacity="0.55" fill-rule="evenodd" clip-rule="evenodd" d="M362.328 52.9982C360.397 52.9982 358.471 53.016 356.549 53.0514C354.11 53.0963 352.097 51.1554 352.052 48.7163C352.007 46.2773 353.948 44.2636 356.387 44.2187C358.363 44.1823 360.343 44.1641 362.328 44.1641C364.312 44.1641 366.293 44.1823 368.269 44.2187C370.708 44.2636 372.649 46.2773 372.604 48.7163C372.559 51.1554 370.545 53.0963 368.106 53.0514C366.184 53.016 364.258 52.9982 362.328 52.9982ZM337.561 49.518C337.786 51.9471 335.999 54.0987 333.57 54.3237C329.733 54.6792 325.917 55.105 322.122 55.6C319.703 55.9155 317.487 54.2103 317.171 51.7913C316.855 49.3723 318.561 47.1556 320.98 46.84C324.883 46.3309 328.809 45.8928 332.755 45.5272C335.184 45.3022 337.336 47.0889 337.561 49.518ZM387.095 49.518C387.32 47.0889 389.472 45.3022 391.901 45.5272C395.847 45.8928 399.773 46.3309 403.676 46.84C406.095 47.1556 407.8 49.3723 407.485 51.7913C407.169 54.2103 404.952 55.9155 402.533 55.6C398.739 55.105 394.923 54.6792 391.086 54.3237C388.657 54.0987 386.87 51.9471 387.095 49.518ZM421.791 54.2051C422.287 51.8165 424.625 50.2822 427.014 50.7781C430.892 51.5831 434.743 52.4591 438.568 53.4046C440.936 53.9901 442.381 56.3845 441.796 58.7527C441.21 61.1208 438.816 62.566 436.448 61.9806C432.731 61.0616 428.987 60.2102 425.218 59.4278C422.829 58.9319 421.295 56.5936 421.791 54.2051ZM302.865 54.2051C303.361 56.5936 301.826 58.9319 299.438 59.4278C295.669 60.2103 291.925 61.0616 288.208 61.9806C285.84 62.566 283.445 61.1209 282.86 58.7527C282.274 56.3845 283.719 53.9901 286.088 53.4046C289.912 52.4591 293.764 51.5831 297.642 50.7781C300.031 50.2822 302.369 51.8165 302.865 54.2051ZM455.754 62.767C456.516 60.4497 459.012 59.1889 461.33 59.9511C465.086 61.1865 468.811 62.4902 472.503 63.8608C474.79 64.7098 475.956 67.2519 475.107 69.539C474.258 71.826 471.716 72.9918 469.429 72.1428C465.84 70.8107 462.22 69.5437 458.57 68.343C456.252 67.5809 454.991 65.0844 455.754 62.767ZM268.902 62.767C269.664 65.0844 268.404 67.5809 266.086 68.343C262.436 69.5437 258.815 70.8107 255.227 72.1428C252.94 72.9918 250.398 71.826 249.549 69.539C248.7 67.252 249.866 64.7098 252.153 63.8608C255.845 62.4902 259.57 61.1865 263.326 59.9511C265.643 59.1889 268.14 60.4497 268.902 62.767ZM488.526 75.1035C489.544 72.8868 492.167 71.9155 494.383 72.9341C497.976 74.5847 501.531 76.3005 505.049 78.08C507.226 79.1811 508.098 81.8384 506.997 84.0152C505.896 86.1921 503.239 87.0641 501.062 85.963C497.642 84.2334 494.186 82.5656 490.695 80.9614C488.478 79.9428 487.507 77.3201 488.526 75.1035ZM236.13 75.1035C237.149 77.3201 236.177 79.9428 233.961 80.9614C230.469 82.5657 227.013 84.2334 223.594 85.9631C221.417 87.0642 218.76 86.1921 217.658 84.0153C216.557 81.8384 217.429 79.1811 219.606 78.08C223.124 76.3005 226.68 74.5847 230.272 72.9341C232.489 71.9156 235.112 72.8868 236.13 75.1035ZM519.697 91.0493C520.958 88.9609 523.673 88.2903 525.762 89.5513C529.145 91.594 532.486 93.6982 535.785 95.8623C537.825 97.2004 538.393 99.9387 537.055 101.978C535.717 104.018 532.979 104.587 530.939 103.249C527.732 101.145 524.484 99.0994 521.195 97.1137C519.107 95.8527 518.436 93.1376 519.697 91.0493ZM204.958 91.0493C206.219 93.1376 205.549 95.8527 203.46 97.1137C200.172 99.0994 196.923 101.145 193.717 103.249C191.677 104.587 188.939 104.018 187.6 101.978C186.262 99.9388 186.831 97.2005 188.871 95.8623C192.169 93.6982 195.511 91.594 198.894 89.5513C200.982 88.2903 203.697 88.961 204.958 91.0493ZM548.891 110.391C550.377 108.457 553.151 108.094 555.085 109.581C558.216 111.987 561.301 114.45 564.337 116.969C566.215 118.526 566.475 121.311 564.917 123.188C563.36 125.066 560.575 125.326 558.698 123.768C555.745 121.319 552.746 118.924 549.702 116.585C547.768 115.099 547.405 112.326 548.891 110.391ZM175.765 110.392C177.251 112.326 176.888 115.099 174.954 116.585C171.91 118.925 168.911 121.319 165.958 123.768C164.08 125.326 161.296 125.066 159.738 123.188C158.181 121.311 158.441 118.526 160.318 116.969C163.355 114.45 166.44 111.987 169.571 109.581C171.505 108.094 174.278 108.457 175.765 110.392ZM575.743 132.869C577.435 131.112 580.232 131.06 581.988 132.753C584.831 135.492 587.622 138.283 590.361 141.126C592.054 142.883 592.002 145.679 590.245 147.371C588.488 149.064 585.692 149.012 583.999 147.255C581.337 144.492 578.622 141.778 575.859 139.115C574.102 137.422 574.05 134.626 575.743 132.869ZM148.913 132.869C150.606 134.626 150.554 137.422 148.797 139.115C146.033 141.778 143.319 144.492 140.656 147.255C138.964 149.012 136.167 149.064 134.411 147.372C132.654 145.679 132.602 142.883 134.295 141.126C137.033 138.283 139.825 135.492 142.667 132.753C144.424 131.061 147.22 131.113 148.913 132.869ZM599.926 158.197C601.803 156.64 604.588 156.899 606.146 158.777C608.664 161.814 611.128 164.898 613.534 168.029C615.02 169.964 614.657 172.737 612.723 174.223C610.788 175.71 608.015 175.347 606.529 173.412C604.19 170.368 601.795 167.369 599.346 164.417C597.789 162.539 598.048 159.754 599.926 158.197ZM124.73 158.197C126.608 159.754 126.867 162.539 125.31 164.417C122.861 167.369 120.466 170.368 118.127 173.412C116.64 175.347 113.867 175.71 111.933 174.223C109.999 172.737 109.636 169.964 111.122 168.029C113.528 164.898 115.991 161.814 118.51 158.777C120.068 156.899 122.852 156.64 124.73 158.197ZM621.136 186.059C623.175 184.721 625.914 185.29 627.252 187.329C629.416 190.628 631.52 193.97 633.563 197.352C634.824 199.441 634.153 202.156 632.065 203.417C629.977 204.678 627.261 204.007 626.001 201.919C624.015 198.63 621.969 195.382 619.865 192.175C618.527 190.135 619.096 187.397 621.136 186.059ZM103.52 186.059C105.56 187.397 106.128 190.136 104.79 192.175C102.686 195.382 100.641 198.63 98.6552 201.919C97.3942 204.007 94.6791 204.678 92.5908 203.417C90.5025 202.156 89.8318 199.441 91.0928 197.352C93.1355 193.97 95.2397 190.628 97.4038 187.329C98.7419 185.29 101.48 184.721 103.52 186.059ZM639.099 216.117C641.276 215.016 643.933 215.888 645.034 218.065C646.814 221.583 648.53 225.139 650.18 228.731C651.199 230.947 650.227 233.57 648.011 234.589C645.794 235.607 643.171 234.636 642.153 232.419C640.549 228.928 638.881 225.472 637.151 222.052C636.05 219.875 636.922 217.218 639.099 216.117ZM85.5567 216.117C87.7336 217.218 88.6057 219.875 87.5046 222.052C85.7749 225.472 84.1072 228.928 82.5029 232.419C81.4843 234.636 78.8616 235.607 76.645 234.589C74.4283 233.57 73.457 230.947 74.4756 228.731C76.1262 225.139 77.842 221.583 79.6215 218.065C80.7226 215.888 83.3799 215.016 85.5567 216.117ZM653.575 248.007C655.862 247.158 658.404 248.324 659.253 250.611C660.624 254.304 661.928 258.029 663.163 261.785C663.925 264.102 662.665 266.598 660.347 267.361C658.03 268.123 655.533 266.862 654.771 264.545C653.571 260.894 652.303 257.274 650.971 253.685C650.122 251.398 651.288 248.856 653.575 248.007ZM71.0805 248.007C73.3675 248.856 74.5333 251.398 73.6843 253.685C72.3522 257.274 71.0852 260.894 69.8845 264.545C69.1224 266.862 66.6259 268.123 64.3085 267.361C61.9912 266.598 60.7304 264.102 61.4926 261.785C62.728 258.029 64.0317 254.304 65.4023 250.611C66.2513 248.324 68.7934 247.158 71.0805 248.007ZM664.362 281.318C666.73 280.733 669.124 282.178 669.71 284.546C670.655 288.371 671.531 292.223 672.336 296.1C672.832 298.489 671.298 300.827 668.909 301.323C666.521 301.819 664.182 300.285 663.686 297.896C662.904 294.127 662.053 290.383 661.134 286.666C660.548 284.298 661.993 281.904 664.362 281.318ZM60.2942 281.318C62.6624 281.904 64.1075 284.298 63.5221 286.666C62.6031 290.383 61.7518 294.127 60.9693 297.896C60.4734 300.285 58.1351 301.819 55.7466 301.323C53.358 300.827 51.8237 298.489 52.3196 296.1C53.1246 292.223 54.0006 288.371 54.9461 284.546C55.5316 282.178 57.926 280.733 60.2942 281.318ZM53.3328 315.629C55.7518 315.945 57.457 318.162 57.1415 320.581C56.6465 324.375 56.2207 328.192 55.8652 332.028C55.6402 334.457 53.4886 336.244 51.0595 336.019C48.6304 335.794 46.8437 333.643 47.0687 331.213C47.4343 327.267 47.8724 323.341 48.3815 319.438C48.6971 317.019 50.9138 315.314 53.3328 315.629ZM671.323 315.629C673.742 315.314 675.959 317.019 676.274 319.438C676.783 323.341 677.221 327.267 677.587 331.214C677.812 333.643 676.025 335.794 673.596 336.019C671.167 336.244 669.016 334.457 668.791 332.028C668.435 328.192 668.009 324.375 667.514 320.581C667.199 318.162 668.904 315.945 671.323 315.629ZM50.2578 350.51C52.6969 350.555 54.6378 352.569 54.5929 355.008C54.5575 356.93 54.5397 358.856 54.5397 360.786C54.5397 362.717 54.5575 364.643 54.5929 366.565C54.6378 369.004 52.6969 371.018 50.2578 371.062C47.8188 371.107 45.8051 369.166 45.7602 366.727C45.7238 364.751 45.7056 362.771 45.7056 360.786C45.7056 358.802 45.7238 356.821 45.7602 354.845C45.8051 352.406 47.8188 350.465 50.2578 350.51ZM674.398 350.51C676.837 350.465 678.851 352.406 678.896 354.845C678.932 356.821 678.95 358.802 678.95 360.786C678.95 362.771 678.932 364.751 678.896 366.727C678.851 369.166 676.837 371.107 674.398 371.062C671.959 371.018 670.018 369.004 670.063 366.565C670.098 364.643 670.116 362.717 670.116 360.786C670.116 358.856 670.098 356.93 670.063 355.008C670.018 352.569 671.959 350.555 674.398 350.51ZM51.0595 385.554C53.4886 385.328 55.6402 387.115 55.8652 389.544C56.2207 393.381 56.6465 397.197 57.1415 400.992C57.457 403.411 55.7518 405.628 53.3328 405.943C50.9138 406.259 48.6971 404.554 48.3815 402.135C47.8724 398.231 47.4343 394.306 47.0687 390.359C46.8437 387.93 48.6304 385.779 51.0595 385.554ZM673.596 385.554C676.025 385.779 677.812 387.93 677.587 390.359C677.221 394.306 676.783 398.231 676.274 402.135C675.959 404.554 673.742 406.259 671.323 405.943C668.904 405.628 667.199 403.411 667.514 400.992C668.009 397.197 668.435 393.381 668.791 389.544C669.016 387.115 671.167 385.329 673.596 385.554ZM668.909 420.25C671.298 420.745 672.832 423.084 672.336 425.472C671.531 429.35 670.655 433.202 669.71 437.027C669.124 439.395 666.73 440.84 664.362 440.254C661.993 439.669 660.548 437.275 661.134 434.906C662.053 431.189 662.904 427.446 663.686 423.677C664.182 421.288 666.521 419.754 668.909 420.25ZM55.7466 420.25C58.1351 419.754 60.4734 421.288 60.9693 423.677C61.7518 427.446 62.6031 431.189 63.5221 434.906C64.1075 437.275 62.6624 439.669 60.2942 440.254C57.926 440.84 55.5316 439.395 54.9461 437.027C54.0006 433.202 53.1246 429.35 52.3196 425.472C51.8237 423.084 53.358 420.745 55.7466 420.25ZM64.3085 454.212C66.6259 453.45 69.1224 454.711 69.8845 457.028C71.0852 460.678 72.3522 464.299 73.6843 467.887C74.5333 470.174 73.3675 472.717 71.0805 473.566C68.7935 474.414 66.2513 473.249 65.4023 470.962C64.0317 467.269 62.728 463.544 61.4926 459.788C60.7304 457.471 61.9912 454.974 64.3085 454.212ZM660.347 454.212C662.665 454.974 663.925 457.471 663.163 459.788C661.928 463.544 660.624 467.269 659.253 470.962C658.404 473.249 655.862 474.414 653.575 473.566C651.288 472.717 650.122 470.174 650.971 467.887C652.303 464.299 653.571 460.678 654.771 457.028C655.533 454.711 658.03 453.45 660.347 454.212ZM648.011 486.984C650.227 488.003 651.199 490.625 650.18 492.842C648.53 496.434 646.814 499.99 645.034 503.508C643.933 505.685 641.276 506.557 639.099 505.456C636.922 504.355 636.05 501.697 637.151 499.52C638.881 496.101 640.549 492.645 642.153 489.153C643.171 486.937 645.794 485.965 648.011 486.984ZM76.645 486.984C78.8616 485.966 81.4843 486.937 82.5029 489.153C84.1072 492.645 85.7749 496.101 87.5046 499.52C88.6057 501.697 87.7336 504.355 85.5568 505.456C83.3799 506.557 80.7226 505.685 79.6215 503.508C77.842 499.99 76.1262 496.434 74.4756 492.842C73.4571 490.625 74.4283 488.003 76.645 486.984ZM632.065 518.156C634.153 519.417 634.824 522.132 633.563 524.22C631.52 527.603 629.416 530.945 627.252 534.243C625.914 536.283 623.175 536.852 621.136 535.514C619.096 534.176 618.527 531.437 619.865 529.397C621.969 526.191 624.015 522.942 626.001 519.654C627.262 517.566 629.977 516.895 632.065 518.156ZM92.5908 518.156C94.6791 516.895 97.3942 517.566 98.6552 519.654C100.641 522.942 102.686 526.191 104.79 529.398C106.128 531.437 105.56 534.176 103.52 535.514C101.48 536.852 98.742 536.283 97.4038 534.243C95.2397 530.945 93.1355 527.603 91.0928 524.22C89.8318 522.132 90.5025 519.417 92.5908 518.156ZM612.723 547.349C614.657 548.836 615.02 551.609 613.534 553.543C611.128 556.674 608.664 559.759 606.146 562.796C604.588 564.674 601.803 564.933 599.926 563.376C598.048 561.818 597.789 559.034 599.346 557.156C601.795 554.203 604.19 551.204 606.529 548.16C608.015 546.226 610.788 545.863 612.723 547.349ZM111.933 547.35C113.867 545.863 116.64 546.226 118.127 548.161C120.466 551.205 122.861 554.204 125.31 557.156C126.867 559.034 126.608 561.818 124.73 563.376C122.852 564.933 120.068 564.674 118.51 562.796C115.991 559.759 113.528 556.674 111.122 553.543C109.636 551.609 109.999 548.836 111.933 547.35ZM590.245 574.201C592.002 575.894 592.054 578.69 590.361 580.447C587.622 583.289 584.831 586.081 581.988 588.82C580.232 590.512 577.435 590.46 575.743 588.703C574.05 586.947 574.102 584.15 575.859 582.458C578.623 579.795 581.337 577.081 583.999 574.317C585.692 572.561 588.488 572.509 590.245 574.201ZM134.411 574.201C136.167 572.509 138.964 572.561 140.656 574.317C143.319 577.081 146.033 579.795 148.797 582.458C150.554 584.151 150.606 586.947 148.913 588.704C147.22 590.46 144.424 590.512 142.667 588.82C139.825 586.081 137.033 583.289 134.295 580.447C132.602 578.69 132.654 575.894 134.411 574.201ZM564.917 598.384C566.475 600.262 566.215 603.047 564.337 604.604C561.301 607.123 558.216 609.586 555.085 611.992C553.151 613.479 550.378 613.116 548.891 611.181C547.405 609.247 547.768 606.474 549.702 604.987C552.746 602.648 555.745 600.253 558.698 597.804C560.575 596.247 563.36 596.507 564.917 598.384ZM159.738 598.384C161.296 596.507 164.081 596.247 165.958 597.804C168.911 600.253 171.91 602.648 174.954 604.987C176.888 606.474 177.251 609.247 175.765 611.181C174.278 613.116 171.505 613.479 169.571 611.992C166.44 609.586 163.355 607.123 160.318 604.604C158.441 603.047 158.181 600.262 159.738 598.384ZM187.601 619.594C188.939 617.555 191.677 616.986 193.717 618.324C196.924 620.428 200.172 622.473 203.46 624.459C205.549 625.72 206.219 628.435 204.958 630.523C203.697 632.612 200.982 633.282 198.894 632.021C195.511 629.979 192.17 627.875 188.871 625.71C186.831 624.372 186.262 621.634 187.601 619.594ZM537.055 619.594C538.393 621.634 537.825 624.372 535.785 625.71C532.486 627.875 529.145 629.979 525.762 632.021C523.673 633.282 520.958 632.612 519.697 630.523C518.436 628.435 519.107 625.72 521.195 624.459C524.484 622.473 527.732 620.428 530.939 618.324C532.979 616.986 535.717 617.555 537.055 619.594ZM506.997 637.557C508.098 639.734 507.226 642.392 505.049 643.493C501.531 645.272 497.976 646.988 494.384 648.639C492.167 649.657 489.544 648.686 488.526 646.469C487.507 644.253 488.478 641.63 490.695 640.611C494.186 639.007 497.642 637.339 501.062 635.61C503.239 634.509 505.896 635.381 506.997 637.557ZM217.659 637.557C218.76 635.381 221.417 634.509 223.594 635.61C227.013 637.339 230.47 639.007 233.961 640.611C236.177 641.63 237.149 644.253 236.13 646.469C235.112 648.686 232.489 649.657 230.272 648.639C226.68 646.988 223.124 645.272 219.606 643.493C217.43 642.392 216.557 639.734 217.659 637.557ZM249.549 652.034C250.398 649.747 252.94 648.581 255.227 649.43C258.816 650.762 262.436 652.029 266.086 653.23C268.404 653.992 269.664 656.488 268.902 658.806C268.14 661.123 265.643 662.384 263.326 661.622C259.57 660.386 255.845 659.083 252.153 657.712C249.866 656.863 248.7 654.321 249.549 652.034ZM475.107 652.034C475.956 654.321 474.79 656.863 472.503 657.712C468.811 659.083 465.086 660.386 461.33 661.622C459.012 662.384 456.516 661.123 455.754 658.806C454.991 656.488 456.252 653.992 458.57 653.23C462.22 652.029 465.84 650.762 469.429 649.43C471.716 648.581 474.258 649.747 475.107 652.034ZM282.86 662.82C283.445 660.452 285.84 659.007 288.208 659.592C291.925 660.511 295.669 661.362 299.438 662.145C301.826 662.641 303.361 664.979 302.865 667.368C302.369 669.756 300.031 671.291 297.642 670.795C293.764 669.99 289.912 669.114 286.088 668.168C283.72 667.583 282.274 665.188 282.86 662.82ZM441.796 662.82C442.381 665.188 440.936 667.583 438.568 668.168C434.744 669.114 430.892 669.99 427.014 670.795C424.625 671.291 422.287 669.756 421.791 667.368C421.295 664.979 422.83 662.641 425.218 662.145C428.987 661.362 432.731 660.511 436.448 659.592C438.816 659.007 441.211 660.452 441.796 662.82ZM317.171 669.781C317.487 667.362 319.703 665.657 322.122 665.973C325.917 666.468 329.733 666.894 333.57 667.249C335.999 667.474 337.786 669.626 337.561 672.055C337.336 674.484 335.184 676.271 332.755 676.046C328.809 675.68 324.883 675.242 320.98 674.733C318.561 674.417 316.855 672.2 317.171 669.781ZM407.485 669.781C407.8 672.2 406.095 674.417 403.676 674.733C399.773 675.242 395.847 675.68 391.901 676.046C389.472 676.271 387.32 674.484 387.095 672.055C386.87 669.626 388.657 667.474 391.086 667.249C394.923 666.894 398.739 666.468 402.533 665.973C404.952 665.657 407.169 667.362 407.485 669.781ZM352.052 672.856C352.097 670.417 354.11 668.476 356.549 668.521C358.471 668.557 360.397 668.575 362.328 668.575C364.258 668.575 366.184 668.557 368.106 668.521C370.545 668.476 372.559 670.417 372.604 672.856C372.649 675.295 370.708 677.309 368.269 677.354C366.293 677.39 364.312 677.409 362.328 677.409C360.343 677.409 358.363 677.39 356.387 677.354C353.948 677.309 352.007 675.295 352.052 672.856Z" fill="#FBCF23"/>
<path d="M746.709 893.07C746.709 813.656 811.087 749.277 890.502 749.277V749.277C969.916 749.277 1034.29 813.656 1034.29 893.07V893.07C1034.29 972.485 969.916 1036.86 890.502 1036.86V1036.86C811.087 1036.86 746.709 972.485 746.709 893.07V893.07Z" fill="#FFF5CC"/>
<path d="M718 964.087C718 936.977 739.977 915 767.087 915C794.197 915 816.174 936.977 816.174 964.087C816.174 991.197 794.197 1013.17 767.087 1013.17C739.977 1013.17 718 991.197 718 964.087Z" fill="#FAC05D"/>
<path d="M119.238 964H924.627C973.563 964 1004.39 911.311 980.422 868.649L569.501 137.337C544.797 93.3726 481.318 93.9206 457.377 138.304L62.91 869.617C39.91 912.257 70.7904 964 119.238 964Z" fill="#FBCF23"/>
<path opacity="0.3" d="M163.129 931H881.088C922.294 931 948.317 886.707 928.258 850.713L561.945 193.382C541.15 156.066 487.31 156.529 467.16 194.196L115.514 851.528C96.2707 887.5 122.333 931 163.129 931Z" stroke="#FA965D" stroke-width="4"/>
<path d="M486.479 713.399C477.183 723.144 472 736.073 472 749.514C472 762.955 477.183 775.883 486.479 785.629C496.184 794.853 509.084 800 522.5 800C535.916 800 548.816 794.853 558.521 785.629C567.817 775.883 573 762.955 573 749.514C573 736.073 567.817 723.144 558.521 713.399C553.879 708.533 548.292 704.66 542.1 702.012C535.907 699.365 529.239 698 522.5 698C515.761 698 509.093 699.365 502.9 702.012C496.708 704.66 491.121 708.533 486.479 713.399Z" fill="#010101"/>
<path d="M559.121 396.23C548.73 388.299 536.004 384 522.913 384C509.821 384 497.095 388.299 486.705 396.23C481.725 401.042 477.927 406.932 475.604 413.443C473.282 419.954 472.497 426.911 473.313 433.773L492.657 637.296C493.237 645.636 496.749 653.507 502.577 659.525C508.527 664.975 516.316 668 524.401 668C532.485 668 540.274 664.975 546.225 659.525C552.122 653.355 555.637 645.305 556.145 636.802L574.993 439.207V430.809C575.114 424.23 573.751 417.707 571.004 411.723C568.257 405.738 564.196 400.444 559.121 396.23Z" fill="#010101"/>
</svg>
