<svg width="1119" height="1081" viewBox="0 0 1119 1081" fill="none" xmlns="http://www.w3.org/2000/svg">
<path d="M720.299 62.1246C514.223 62.1246 347.166 229.182 347.166 435.258C347.166 641.333 514.223 808.391 720.299 808.391C926.374 808.391 1093.43 641.333 1093.43 435.258C1093.43 229.182 926.374 62.1246 720.299 62.1246Z" fill="#B2DFFD"/>
<g opacity="0.1" filter="url(#filter0_f_196_24181)">
<path d="M1018.33 796.838C1018.33 816.695 907.788 832.793 771.434 832.793C635.08 832.793 524.543 816.695 524.543 796.838C524.543 776.98 635.08 760.883 771.434 760.883C907.788 760.883 1018.33 776.98 1018.33 796.838Z" fill="#0A0F1A"/>
</g>
<path d="M549.291 226.301H529.481C525.519 226.301 522.406 223.185 522.406 219.22V188.206C522.406 184.241 525.519 181.125 529.481 181.125H549.291C553.253 181.125 556.366 184.241 556.366 188.206V219.22C556.366 223.185 553.253 226.301 549.291 226.301Z" fill="#0096FA"/>
<path d="M549.291 322.597H529.481C525.519 322.597 522.406 319.482 522.406 315.516V252.214C522.406 248.248 525.519 245.133 529.481 245.133H549.291C553.253 245.133 556.366 248.248 556.366 252.214V315.516C556.366 319.482 553.253 322.597 549.291 322.597Z" fill="#0096FA"/>
<path d="M897.947 364.941H878.137C874.175 364.941 871.062 361.825 871.062 357.86V294.557C871.062 290.592 874.175 287.477 878.137 287.477H897.947C901.909 287.477 905.022 290.592 905.022 294.557V357.86C905.022 361.825 901.768 364.941 897.947 364.941Z" fill="#0096FA"/>
<path d="M835.263 808.345H591.883C565.705 808.345 544.48 787.103 544.48 760.903V125.61C544.48 99.4105 565.705 78.168 591.883 78.168H835.263C861.44 78.168 882.665 99.4105 882.665 125.61V760.903C882.524 787.103 861.44 808.345 835.263 808.345Z" fill="url(#paint0_linear_196_24181)"/>
<path d="M540.199 112.531C540.199 93.5183 554.628 78.1055 572.427 78.1055H861.129C878.928 78.1055 893.357 93.5183 893.357 112.531V124.447H540.199V112.531Z" fill="url(#paint1_linear_196_24181)"/>
<path d="M863.695 143.41L868.84 138.248C868.966 138.089 869.03 137.888 869.018 137.685C869.006 137.482 868.92 137.29 868.776 137.147C868.631 137.003 868.439 136.918 868.236 136.908C868.032 136.898 867.833 136.964 867.675 137.092L862.526 142.241L857.378 137.092C857.306 137.001 857.215 136.927 857.113 136.874C857.01 136.82 856.897 136.789 856.781 136.783C856.666 136.776 856.55 136.794 856.441 136.835C856.333 136.876 856.235 136.939 856.152 137.021C856.07 137.102 856.006 137.2 855.964 137.308C855.922 137.416 855.903 137.532 855.909 137.648C855.915 137.764 855.945 137.877 855.997 137.98C856.05 138.084 856.123 138.175 856.213 138.248L861.358 143.401L856.213 148.563C856.099 148.679 856.021 148.826 855.99 148.985C855.958 149.145 855.975 149.311 856.037 149.461C856.1 149.611 856.205 149.74 856.34 149.831C856.476 149.921 856.635 149.97 856.797 149.97C856.905 149.971 857.012 149.95 857.112 149.908C857.212 149.867 857.302 149.806 857.378 149.729L862.526 144.576L867.675 149.729C867.75 149.806 867.841 149.867 867.941 149.908C868.04 149.95 868.147 149.971 868.255 149.97C868.418 149.97 868.577 149.921 868.712 149.831C868.848 149.74 868.953 149.611 869.016 149.461C869.078 149.311 869.095 149.145 869.063 148.985C869.032 148.826 868.954 148.679 868.84 148.563L863.695 143.41Z" fill="white"/>
<path d="M564.959 148.589C564.876 148.588 564.794 148.57 564.719 148.534C564.644 148.499 564.578 148.447 564.524 148.383L560.549 143.644C560.373 143.435 560.277 143.172 560.277 142.899C560.277 142.627 560.373 142.363 560.549 142.155L564.524 137.415C564.624 137.303 564.764 137.235 564.913 137.224C565.063 137.213 565.211 137.261 565.326 137.358C565.44 137.454 565.513 137.591 565.529 137.741C565.545 137.89 565.502 138.039 565.409 138.157L561.434 142.899L565.402 147.641C565.474 147.725 565.519 147.828 565.534 147.937C565.548 148.047 565.531 148.158 565.484 148.258C565.438 148.357 565.363 148.442 565.27 148.5C565.177 148.559 565.069 148.59 564.959 148.589V148.589Z" fill="white"/>
<path d="M883.913 121.25H545.316V168.812H883.913V121.25Z" fill="#0096FA"/>
<path fill-rule="evenodd" clip-rule="evenodd" d="M591.073 159.309C594.009 159.307 596.88 158.434 599.321 156.8C601.762 155.166 603.664 152.844 604.787 150.128C605.91 147.412 606.203 144.424 605.63 141.541C605.056 138.658 603.642 136.011 601.565 133.932C599.489 131.854 596.843 130.438 593.963 129.864C591.082 129.29 588.097 129.584 585.383 130.708C582.669 131.832 580.349 133.735 578.717 136.178C577.084 138.622 576.211 141.494 576.209 144.433C576.217 148.376 577.786 152.155 580.571 154.943C583.357 157.731 587.133 159.301 591.073 159.309V159.309Z" fill="#2C2A46"/>
<g clip-path="url(#clip0_196_24181)">
<path fill-rule="evenodd" clip-rule="evenodd" d="M595.16 151.433C594.01 151.571 592.708 151.616 591.256 151.616C589.804 151.616 588.502 151.571 587.352 151.432L587.351 151.434L585.375 154.296C585.261 154.454 585.089 154.535 584.918 154.535C584.747 154.535 584.575 154.458 584.466 154.305C583.408 152.841 582.337 150.946 581.637 148.658C581.372 147.793 581.16 146.873 581.023 145.9C580.903 145.155 580.842 144.316 580.842 143.37C580.842 135.934 585.08 133.551 591.256 133.551C597.424 133.551 601.659 135.928 601.67 143.341C601.67 143.351 601.67 143.361 601.67 143.37C601.67 143.396 601.67 143.421 601.67 143.447C601.667 144.308 601.614 145.081 601.51 145.774C601.026 149.375 599.522 152.262 598.047 154.305C597.823 154.616 597.356 154.611 597.137 154.296L595.161 151.434C595.161 151.433 595.16 151.433 595.16 151.433Z" fill="#0096FA"/>
<path d="M581.789 149.137C582.522 151.343 583.613 153.123 584.465 154.305C584.689 154.616 585.156 154.611 585.375 154.295L587.351 151.434C584.641 151.194 582.618 150.405 581.789 149.137Z" fill="url(#paint2_linear_196_24181)"/>
<path d="M600.707 149.137C599.974 151.343 598.883 153.123 598.031 154.305C597.807 154.616 597.34 154.611 597.121 154.295L595.145 151.434C597.855 151.194 599.878 150.405 600.707 149.137Z" fill="url(#paint3_linear_196_24181)"/>
<path fill-rule="evenodd" clip-rule="evenodd" d="M593.773 147.056L594.834 147.056C594.829 147.395 594.593 147.668 594.304 147.668C594.014 147.668 593.778 147.395 593.773 147.056Z" fill="black"/>
<path fill-rule="evenodd" clip-rule="evenodd" d="M588.818 147.056L587.758 147.056C587.763 147.395 587.999 147.668 588.288 147.668C588.578 147.668 588.813 147.395 588.818 147.056Z" fill="black"/>
<path fill-rule="evenodd" clip-rule="evenodd" d="M583.974 142.835L583.814 141.603L587.555 141.504L587.037 143.008C586.874 143.483 586.419 143.795 585.918 143.776L584.967 143.741C584.459 143.722 584.039 143.339 583.974 142.835ZM591.21 142.835L591.37 141.603L587.629 141.504L588.147 143.008C588.31 143.483 588.765 143.795 589.267 143.776L590.217 143.741C590.725 143.722 591.145 143.339 591.21 142.835ZM584.856 145.354C584.667 145.354 584.513 145.509 584.513 145.7C584.513 145.891 584.667 146.045 584.856 146.045H597.514C597.704 146.045 597.857 145.891 597.857 145.7C597.857 145.509 597.704 145.354 597.514 145.354H584.856Z" fill="#0035B5"/>
<path fill-rule="evenodd" clip-rule="evenodd" d="M595.332 147.512L595.433 146.02L596.26 146.076L596.159 147.569L595.332 147.512Z" fill="#0065FF"/>
</g>
<path d="M605.178 139.179C607.474 139.179 609.336 137.316 609.336 135.017C609.336 132.719 607.474 130.855 605.178 130.855C602.881 130.855 601.02 132.719 601.02 135.017C601.02 137.316 602.881 139.179 605.178 139.179Z" fill="#90E6BC"/>
<path fill-rule="evenodd" clip-rule="evenodd" d="M605.176 131.393C603.176 131.393 601.554 133.016 601.554 135.018C601.554 137.02 603.176 138.644 605.176 138.644C607.177 138.644 608.799 137.02 608.799 135.018C608.799 133.016 607.177 131.393 605.176 131.393ZM600.482 135.018C600.482 132.424 602.584 130.32 605.176 130.32C607.769 130.32 609.87 132.424 609.87 135.018C609.87 137.613 607.769 139.716 605.176 139.716C602.584 139.716 600.482 137.613 600.482 135.018Z" fill="#2CC3D5"/>
<rect x="618.238" y="144.43" width="81.3547" height="5.95279" rx="2.97639" fill="white"/>
<path d="M710.28 107.052H670.398C665.166 107.052 660.963 103.606 660.963 99.315C660.963 95.0246 665.166 91.5781 670.398 91.5781H710.28C715.512 91.5781 719.715 95.0246 719.715 99.315C719.715 103.606 715.512 107.052 710.28 107.052Z" fill="#0096FA"/>
<path d="M738.077 104.374C740.813 104.374 743.03 102.155 743.03 99.4175C743.03 96.6801 740.813 94.4609 738.077 94.4609C735.342 94.4609 733.125 96.6801 733.125 99.4175C733.125 102.155 735.342 104.374 738.077 104.374Z" fill="#F5F5F5"/>
<path fill-rule="evenodd" clip-rule="evenodd" d="M589.828 822.931H837.453C868.866 822.931 894.195 797.582 894.053 766.284V120.369C894.053 89.0721 868.725 63.7227 837.453 63.7227H589.828C558.557 63.7227 533.229 89.0721 533.229 120.369V766.284C533.229 797.582 558.557 822.931 589.828 822.931ZM592.095 808.345H835.475C861.653 808.345 882.736 787.102 882.877 760.903V125.61C882.877 99.4104 861.653 78.1678 835.475 78.1678H592.095C565.918 78.1678 544.693 99.4104 544.693 125.61V760.903C544.693 787.102 565.918 808.345 592.095 808.345Z" fill="url(#paint4_linear_196_24181)"/>
<path d="M730.994 520.992C730.994 513.718 725.102 507.82 717.833 507.82H597.411C590.142 507.82 584.25 513.718 584.25 520.992V538.766C584.25 541.191 586.214 543.156 588.637 543.156H717.833C725.102 543.156 730.994 537.259 730.994 529.985V520.992Z" fill="white"/>
<path d="M707.756 569.5C707.756 562.225 713.648 556.328 720.917 556.328H854.579C861.848 556.328 867.74 562.225 867.74 569.5V587.274C867.74 589.699 865.776 591.664 863.353 591.664H720.917C713.648 591.664 707.756 585.767 707.756 578.492V569.5Z" fill="#B2DFFD"/>
<path d="M707.756 687.496C707.756 680.221 713.648 674.324 720.917 674.324H854.579C861.848 674.324 867.74 680.221 867.74 687.496V705.27C867.74 707.695 865.776 709.66 863.353 709.66H720.917C713.648 709.66 707.756 703.763 707.756 696.489V687.496Z" fill="#B2DFFD"/>
<path d="M783.953 618.008C783.953 610.733 778.061 604.836 770.792 604.836H597.409C590.141 604.836 584.248 610.733 584.248 618.008V656.762C584.248 659.187 586.212 661.153 588.635 661.153H770.792C778.061 661.153 783.953 655.256 783.953 647.981V618.008Z" fill="white"/>
<g filter="url(#filter1_d_196_24181)">
<path d="M759.682 245.167C759.682 236.963 753.031 230.312 744.827 230.312H425.94C417.736 230.312 411.085 236.963 411.085 245.167V310.529C411.085 312.17 412.415 313.5 414.056 313.5H744.827C753.031 313.5 759.682 306.849 759.682 298.645V245.167Z" fill="white"/>
</g>
<path d="M427.013 247.81C427.013 272.696 447.187 292.87 472.073 292.87C496.959 292.87 517.133 272.696 517.133 247.81C517.133 222.924 496.959 202.75 472.073 202.75C447.187 202.75 427.013 222.924 427.013 247.81Z" fill="#FCCCCC"/>
<path fill-rule="evenodd" clip-rule="evenodd" d="M555.016 261.599C555.016 259.033 557.096 256.953 559.661 256.953H726.532C729.098 256.953 731.178 259.033 731.178 261.599C731.178 264.164 729.098 266.244 726.532 266.244H559.661C557.096 266.244 555.016 264.164 555.016 261.599Z" fill="#D2DFE6"/>
<path fill-rule="evenodd" clip-rule="evenodd" d="M555.016 282.396C555.016 279.83 557.096 277.75 559.661 277.75H672.299C674.865 277.75 676.945 279.83 676.945 282.396C676.945 284.961 674.865 287.041 672.299 287.041H559.661C557.096 287.041 555.016 284.961 555.016 282.396Z" fill="#D2DFE6"/>
<path d="M471.306 286.91C496.026 286.91 516.066 266.854 516.066 242.113C516.066 217.373 496.026 197.316 471.306 197.316C446.586 197.316 426.547 217.373 426.547 242.113C426.547 266.854 446.586 286.91 471.306 286.91Z" fill="#C5D9FB"/>
<path d="M427.465 250.832C431.133 269.301 446.205 284.1 465.863 286.509C485.349 288.918 503.459 278.307 511.54 261.558L427.465 250.832Z" fill="url(#paint5_linear_196_24181)"/>
<path d="M495.836 246.127V241.998L489.99 225.651L491.652 224.159L496.81 230.813L498.186 229.953L502.427 214.753L504.261 214.982L503.573 225.593L507.699 212.516L510.049 212.86L507.929 226.11L512.915 216.301L514.92 217.448L512.055 228.06L516.984 220.947L518.417 221.636L511.883 242.112V245.841L495.836 246.127Z" fill="url(#paint6_linear_196_24181)"/>
<path d="M491.537 281.977C503.286 276.012 512.055 265 514.977 251.75V247.62C514.977 246.301 513.888 245.211 512.57 245.211H494.001C492.683 245.211 491.595 246.301 491.595 247.62V281.977H491.537Z" fill="url(#paint7_linear_196_24181)"/>
<path d="M457.782 252.323C474.526 252.323 488.099 239.201 488.099 223.013C488.099 206.826 474.526 193.703 457.782 193.703C441.039 193.703 427.465 206.826 427.465 223.013C427.465 239.201 441.039 252.323 457.782 252.323Z" fill="black"/>
<path d="M454.858 236.264L454.916 224.39L471.307 218.941L481.794 235.116L478.069 237.755L477.84 249.513L471.765 249.169V256.511L454.858 254.331V244.925H452.738C451.362 244.925 450.273 243.835 450.273 242.458V236.206H454.858V236.264Z" fill="#6E3A0C"/>
<path d="M471.822 249.17L464.143 248.539L471.765 254.848L471.822 249.17Z" fill="url(#paint8_linear_196_24181)"/>
<g filter="url(#filter2_d_196_24181)">
<path d="M681.148 390.027C681.148 381.823 687.799 375.172 696.003 375.172H1014.89C1023.09 375.172 1029.74 381.823 1029.74 390.027V455.389C1029.74 457.03 1028.41 458.36 1026.77 458.36H696.003C687.799 458.36 681.148 451.709 681.148 443.505V390.027Z" fill="#F6F6F6"/>
</g>
<path fill-rule="evenodd" clip-rule="evenodd" d="M885.814 406.462C885.814 403.896 883.735 401.816 881.169 401.816H714.298C711.732 401.816 709.653 403.896 709.653 406.462C709.653 409.028 711.732 411.108 714.298 411.108H881.169C883.735 411.108 885.814 409.028 885.814 406.462Z" fill="#1968F0"/>
<path fill-rule="evenodd" clip-rule="evenodd" d="M885.814 427.259C885.814 424.693 883.735 422.613 881.169 422.613H768.531C765.965 422.613 763.885 424.693 763.885 427.259C763.885 429.825 765.965 431.904 768.531 431.904H881.169C883.735 431.904 885.814 429.825 885.814 427.259Z" fill="#1968F0"/>
<mask id="mask0_196_24181" style="mask-type:alpha" maskUnits="userSpaceOnUse" x="907" y="354" width="90" height="91">
<path d="M952.144 444.222C976.864 444.222 996.904 424.166 996.904 399.426C996.904 374.685 976.864 354.629 952.144 354.629C927.424 354.629 907.385 374.685 907.385 399.426C907.385 424.166 927.424 444.222 952.144 444.222Z" fill="#FDE99B"/>
</mask>
<g mask="url(#mask0_196_24181)">
<path d="M945.426 454.552C976.274 458.693 1004.64 437.022 1008.77 406.148C1012.91 375.274 991.258 346.889 960.41 342.748C929.562 338.607 901.2 360.278 897.063 391.152C892.925 422.025 914.578 450.41 945.426 454.552Z" fill="#1156CF"/>
<path d="M963.369 420.468L981.987 399.284L979.633 376.631L933.22 366.834L928.852 377.897L938.736 383.846L963.369 420.468Z" fill="#F06305"/>
<path d="M939.766 378.306L933.672 387.886L933.239 393.99L927.528 405.739L930.898 407.155L931.002 422.189L940.751 421.958L942.136 433.89L966.202 434.524L962.557 410.733L967.387 406.279L962.874 399.029L959.727 401.688L957.6 388.115L939.766 378.306Z" fill="#FCAA73"/>
<path d="M941.708 429.885L951.86 421.62L940.75 421.957L941.708 429.885Z" fill="url(#paint9_linear_196_24181)"/>
<path d="M957.532 418.05L964.756 425.182L962.554 410.732L957.532 418.05Z" fill="url(#paint10_linear_196_24181)"/>
<path d="M930.888 413.702L934.635 408.717L930.898 407.156L930.888 413.702Z" fill="url(#paint11_linear_196_24181)"/>
</g>
<g filter="url(#filter3_d_196_24181)">
<path d="M806.537 498.494C806.537 490.836 812.745 484.629 820.402 484.629H868.928C876.585 484.629 882.793 490.836 882.793 498.494V517.31C882.793 519.771 880.797 521.766 878.336 521.766H820.402C812.745 521.766 806.537 515.559 806.537 507.902V498.494Z" fill="white"/>
</g>
<path d="M855.657 506.322C857.244 500.251 853.609 494.044 847.539 492.457C841.468 490.87 835.261 494.505 833.674 500.575C832.087 506.645 835.722 512.853 841.792 514.44C847.862 516.027 854.07 512.392 855.657 506.322Z" fill="#F6A721"/>
<path d="M840.984 501.366C840.984 502.136 840.459 502.76 839.816 502.76C839.173 502.76 838.65 502.136 838.65 501.366C838.65 500.597 839.175 499.973 839.816 499.973C840.456 499.973 840.984 500.597 840.984 501.366Z" fill="#2C2A46"/>
<path d="M850.297 502.774C850.2 502.777 850.105 502.742 850.034 502.677C849.273 501.976 848.152 502.524 848.139 502.532C848.067 502.566 847.986 502.576 847.909 502.56C847.831 502.545 847.76 502.504 847.707 502.446C847.654 502.387 847.621 502.312 847.613 502.233C847.605 502.155 847.623 502.075 847.664 502.007C847.951 501.57 848.35 501.216 848.818 500.982C849.286 500.748 849.808 500.641 850.331 500.674C850.379 500.677 850.427 500.69 850.47 500.712C850.514 500.734 850.553 500.764 850.585 500.801C850.617 500.837 850.641 500.88 850.657 500.926C850.672 500.973 850.678 501.021 850.675 501.07C850.671 501.119 850.658 501.166 850.636 501.21C850.615 501.253 850.585 501.292 850.548 501.324C850.511 501.356 850.468 501.38 850.422 501.396C850.376 501.411 850.327 501.417 850.278 501.414C849.932 501.393 849.586 501.454 849.268 501.592C849.74 501.624 850.188 501.817 850.536 502.138C850.572 502.171 850.601 502.211 850.621 502.255C850.642 502.3 850.653 502.348 850.655 502.397C850.657 502.445 850.65 502.494 850.633 502.54C850.616 502.586 850.59 502.628 850.557 502.663C850.523 502.698 850.482 502.726 850.438 502.745C850.393 502.764 850.345 502.774 850.297 502.774Z" fill="#2C2A46"/>
<path d="M845.45 510.84C844.215 510.84 843.014 510.429 842.038 509.672C841.93 509.579 841.861 509.448 841.847 509.306C841.832 509.164 841.873 509.022 841.96 508.91C842.047 508.797 842.175 508.722 842.316 508.7C842.457 508.678 842.6 508.711 842.718 508.793C843.386 509.308 844.187 509.623 845.028 509.701C845.868 509.78 846.713 509.618 847.465 509.235C848.218 508.852 848.846 508.264 849.277 507.538C849.708 506.813 849.925 505.98 849.902 505.136C849.898 504.989 849.952 504.845 850.053 504.738C850.154 504.63 850.294 504.567 850.441 504.563C850.589 504.558 850.732 504.613 850.84 504.714C850.948 504.815 851.011 504.955 851.015 505.102C851.057 506.578 850.513 508.01 849.502 509.085C848.49 510.16 847.094 510.79 845.618 510.838L845.45 510.84Z" fill="#2C2A46"/>
<g filter="url(#filter4_d_196_24181)">
<path d="M653.533 338.06C653.533 330.403 647.326 324.195 639.669 324.195H591.142C583.485 324.195 577.278 330.403 577.278 338.06V356.876C577.278 359.337 579.273 361.333 581.734 361.333H639.669C647.326 361.333 653.533 355.125 653.533 347.468V338.06Z" fill="white"/>
</g>
<path d="M617.316 354.965C623.917 353.909 628.412 347.701 627.356 341.1C626.3 334.499 620.092 330.004 613.491 331.06C606.89 332.116 602.395 338.324 603.451 344.925C604.508 351.526 610.715 356.021 617.316 354.965Z" fill="#F6A721"/>
<path d="M622.416 341.447C622.444 341.462 622.476 341.47 622.508 341.469C622.54 341.469 622.572 341.46 622.6 341.444C622.628 341.428 622.651 341.405 622.668 341.378C622.685 341.351 622.694 341.319 622.696 341.287C622.696 340.863 622.527 340.456 622.227 340.156C621.927 339.856 621.52 339.688 621.096 339.688C620.672 339.688 620.265 339.856 619.965 340.156C619.665 340.456 619.496 340.863 619.496 341.287C619.497 341.321 619.507 341.354 619.524 341.383C619.542 341.412 619.567 341.436 619.597 341.452C619.627 341.468 619.66 341.476 619.694 341.475C619.728 341.474 619.761 341.464 619.79 341.447C620.182 341.203 620.635 341.075 621.097 341.075C621.559 341.075 622.012 341.203 622.405 341.447H622.416Z" fill="#2C2A46"/>
<path d="M611.004 341.447C611.032 341.462 611.064 341.47 611.096 341.469C611.128 341.469 611.16 341.46 611.188 341.444C611.216 341.428 611.239 341.405 611.256 341.378C611.273 341.351 611.282 341.319 611.283 341.287C611.283 340.863 611.115 340.456 610.815 340.156C610.515 339.856 610.108 339.688 609.684 339.688C609.259 339.688 608.853 339.856 608.553 340.156C608.253 340.456 608.084 340.863 608.084 341.287C608.085 341.319 608.095 341.351 608.112 341.378C608.128 341.405 608.152 341.428 608.18 341.444C608.208 341.46 608.239 341.469 608.271 341.469C608.304 341.47 608.335 341.462 608.364 341.447C608.757 341.204 609.21 341.075 609.673 341.075C610.135 341.075 610.588 341.204 610.981 341.447H611.004Z" fill="#2C2A46"/>
<path d="M615.468 348.522C613.428 348.519 611.463 347.752 609.961 346.372C609.858 346.262 609.8 346.118 609.799 345.967C609.798 345.816 609.855 345.671 609.957 345.56C610.06 345.45 610.201 345.383 610.351 345.372C610.501 345.362 610.65 345.409 610.767 345.505C612.025 346.663 613.667 347.315 615.377 347.335C617.087 347.355 618.744 346.742 620.03 345.614C620.088 345.562 620.156 345.523 620.229 345.498C620.303 345.473 620.38 345.462 620.458 345.467C620.535 345.472 620.611 345.492 620.681 345.526C620.751 345.56 620.813 345.607 620.864 345.666C620.916 345.724 620.955 345.792 620.981 345.865C621.006 345.938 621.016 346.016 621.011 346.094C621.007 346.171 620.987 346.247 620.953 346.317C620.918 346.387 620.871 346.449 620.813 346.5C619.338 347.804 617.437 348.524 615.468 348.522Z" fill="#2C2A46"/>
<path d="M291.671 542.621H65.0003L128.288 797.603H354.957L291.671 542.621Z" fill="#0C4EC0"/>
<path d="M554.656 1004.07L554.656 937.504L594.145 937.504L594.145 1004.07L554.656 1004.07Z" fill="#8C3A03"/>
<path d="M544.721 937.639L597.665 1003.72C594.343 1007.83 591.463 1030.8 602.961 1047.22C624.747 1078.54 600.943 1077.98 600.943 1077.98L513.711 969.098L544.721 937.639Z" fill="url(#paint12_linear_196_24181)"/>
<path d="M164.29 1001.81H352.705V1027.76H164.29V1001.81Z" fill="#0C4EC0"/>
<path d="M245.518 1014.22L245.518 825.805L271.467 825.805L271.467 1014.22L245.518 1014.22Z" fill="#0C4EC0"/>
<path d="M257.369 849.5C232.133 849.5 211.675 828.789 211.675 803.242C211.675 777.695 232.133 756.984 257.369 756.984C282.605 756.984 303.062 777.695 303.062 803.242C303.062 828.789 282.605 849.5 257.369 849.5Z" fill="#072F73"/>
<path d="M315.984 670.109H525.109C555.053 670.109 579.362 694.433 579.362 724.395C579.362 724.556 579.362 724.718 579.362 724.879L618.965 958.938H510.46L479.067 773.205H339.328C332.244 776.588 222.411 778.521 214.04 778.521C184.096 778.521 261.571 754.196 261.571 724.234C261.732 694.433 286.041 670.109 315.984 670.109Z" fill="url(#paint13_linear_196_24181)"/>
<path d="M128.826 797.602H386.547V771.652H122.54L128.826 797.602Z" fill="#0C4EC0"/>
<path d="M499.489 887.204L580.153 861.446C582.798 866.019 603.215 876.939 622.813 872.035C659.858 862.914 650.807 884.938 650.807 884.938L517.904 927.377L499.489 887.204Z" fill="#072F73"/>
<path d="M594.899 856.738L491.342 889.807L383.487 678.238L487.044 645.169L594.899 856.738Z" fill="#0096FA"/>
<path d="M451.651 713.021C423.054 722.152 392.469 706.373 383.338 677.776C374.206 649.18 389.986 618.595 418.583 609.464C447.179 600.332 477.764 616.111 486.895 644.708C496.027 673.304 480.247 703.889 451.651 713.021Z" fill="#0096FA"/>
<path d="M243.716 773.751C201.099 787.359 155.521 763.844 141.913 721.227C128.304 678.61 151.818 633.031 194.435 619.422C237.051 605.813 282.632 629.329 296.24 671.946C309.849 714.563 286.332 760.142 243.716 773.751Z" fill="#0096FA"/>
<path d="M211.449 669.807L418.586 609.461L449.987 707.794L250.401 771.526L211.449 669.807Z" fill="#0096FA"/>
<path d="M140.921 717.759L128.55 603.828H239.117L140.921 717.759Z" fill="#0096FA"/>
<path d="M307.521 420.881H191.718C184.612 420.881 178.792 415.06 178.792 407.955V320.422C178.792 313.316 184.612 307.496 191.718 307.496H307.521C314.627 307.496 320.447 313.316 320.447 320.422V407.955C320.447 415.06 314.627 420.881 307.521 420.881Z" fill="#141414"/>
<path d="M330.201 444.463H244.482C237.377 444.463 231.556 438.643 231.556 431.537V368.117C231.556 361.012 237.377 355.191 244.482 355.191H330.201C337.306 355.191 343.127 361.012 343.127 368.117V431.537C343.127 438.718 337.382 444.463 330.201 444.463Z" fill="#141414"/>
<path d="M246 452.475H160.281C153.176 452.475 147.355 446.654 147.355 439.549V376.129C147.355 369.024 153.176 363.203 160.281 363.203H246C253.105 363.203 258.926 369.024 258.926 376.129V439.549C258.926 446.73 253.181 452.475 246 452.475Z" fill="#141414"/>
<path d="M292.789 284.516H220.6L215.082 290.034V425.869H268.449V404.099H292.789C294.905 401.982 296.115 400.773 298.307 398.581V290.034L292.789 284.516Z" fill="#8C3A03"/>
<path d="M220.6 284.516L215.082 290.034L214.704 352.244L215.158 352.546L270.187 297.215L298.307 331.079V290.034L292.789 284.516H220.6Z" fill="#141414"/>
<path d="M208.503 374.242H223.621V350.582H203.136V368.95C203.136 371.898 205.555 374.242 208.503 374.242Z" fill="#8C3A03"/>
<path d="M227.477 403.117H215.08V374.242H227.477V403.117Z" fill="url(#paint14_linear_196_24181)"/>
<path d="M249.619 404.023H268.441V411.582H249.619V404.023Z" fill="url(#paint15_linear_196_24181)"/>
<path fill-rule="evenodd" clip-rule="evenodd" d="M276.474 343.342C275.732 343.667 275.393 344.532 275.718 345.274L286.989 371.036H275.853C275.043 371.036 274.386 371.693 274.386 372.503C274.386 373.313 275.043 373.97 275.853 373.97H289.232C289.727 373.97 290.189 373.721 290.46 373.306C290.731 372.892 290.775 372.369 290.576 371.915L278.406 344.098C278.081 343.356 277.216 343.017 276.474 343.342Z" fill="#141414"/>
<path d="M109.807 495.122C113.424 474.702 127.969 457.973 147.639 451.568L215.164 429.339V412.008H268.295V429.339L276.886 432.202L335.82 451.568C355.49 458.049 370.035 474.777 373.652 495.122L364.32 612.27V628.629L136.416 690.682L96.364 568.833L109.807 495.122Z" fill="#35DE90"/>
<path d="M167.062 618.474H87.7267L97.6715 562.062H176.857L167.062 618.474Z" fill="#8C3A03"/>
<path d="M133.029 670.371C107.793 670.371 87.3355 649.661 87.3355 624.113C87.3355 598.566 107.793 577.855 133.029 577.855C158.265 577.855 178.723 598.566 178.723 624.113C178.723 649.661 158.265 670.371 133.029 670.371Z" fill="#8C3A03"/>
<path d="M185.588 516.934L166.698 618.475H256.957L185.588 516.934Z" fill="url(#paint16_linear_196_24181)"/>
<path d="M114.804 618.472L169.225 581.654L223.266 545.137L261.475 600.402L152.212 666.986L114.804 618.472Z" fill="#8C3A03"/>
<path d="M176.857 566.574L174.669 578.482L115.726 618.473H87.7267L90.9718 599.825L176.857 566.574Z" fill="url(#paint17_linear_196_24181)"/>
<path d="M223.115 545.407L306.573 536.113L344.652 548.031L367.529 564.97L360.982 571.341L346.458 565.12L362.487 580.56L353.908 586.332L318.237 563.696L340.663 589.105L333.89 594.052L306.798 576.288L323.355 594.427L317.485 599.224L290.844 582.059L260.667 600.423L223.115 545.407Z" fill="#8C3A03"/>
<path d="M268.224 610.316H448.355C452.058 610.316 454.855 613.718 454.175 617.346L453.041 623.167C452.512 625.963 450.093 627.929 447.221 627.929H267.09C263.386 627.929 260.59 624.527 261.27 620.899L262.404 615.079C262.933 612.282 265.352 610.316 268.224 610.316Z" fill="#072F73"/>
<path d="M564.306 495.496H365.807C363.01 495.496 360.591 497.461 359.987 500.258L336.554 620.899C335.873 624.528 338.67 627.929 342.374 627.929H540.873C543.67 627.929 546.089 625.964 546.693 623.167L570.126 502.526C570.806 498.897 568.01 495.496 564.306 495.496Z" fill="#0C4EC0"/>
<g opacity="0.1" filter="url(#filter5_f_196_24181)">
<path d="M383.336 1030.57C383.336 1040.54 327.52 1048.63 258.668 1048.63C189.816 1048.63 134 1040.54 134 1030.57C134 1020.6 189.816 1012.52 258.668 1012.52C327.52 1012.52 383.336 1020.6 383.336 1030.57Z" fill="#0A0F1A"/>
</g>
<path d="M1024.69 1002.33V915.776C1024.69 907.94 1018.33 901.516 1010.43 901.516H781.48C773.646 901.516 767.223 907.869 767.223 915.776V925.659H747.462C744.356 925.659 742.874 929.401 744.992 931.519L767.153 953.685V1002.25C767.153 1010.09 773.504 1016.52 781.409 1016.52H1010.36C1018.33 1016.59 1024.69 1010.23 1024.69 1002.33Z" fill="#F5F5F5"/>
<path d="M892.781 951.568H801.949C798.843 951.568 796.303 949.027 796.303 945.92V936.319C796.303 933.213 798.843 930.672 801.949 930.672H892.781C895.886 930.672 898.427 933.213 898.427 936.319V945.92C898.427 949.027 895.886 951.568 892.781 951.568Z" fill="#35DE90"/>
<path d="M943.031 951.568H916.283C913.177 951.568 910.637 949.027 910.637 945.92V936.319C910.637 933.213 913.177 930.672 916.283 930.672H943.031C946.136 930.672 948.677 933.213 948.677 936.319V945.92C948.677 949.027 946.136 951.568 943.031 951.568Z" fill="url(#paint18_linear_196_24181)"/>
<path d="M980.153 989.689H801.877C798.771 989.689 796.23 987.148 796.23 984.042V974.441C796.23 971.334 798.771 968.793 801.877 968.793H980.153C983.258 968.793 985.799 971.334 985.799 974.441V984.042C985.799 987.148 983.258 989.689 980.153 989.689Z" fill="#072F73"/>
<path d="M86.001 160.67V88.4196C86.001 81.8782 91.3036 76.5156 97.9021 76.5156H289.025C295.565 76.5156 300.926 81.8193 300.926 88.4196V96.6701H317.423C320.015 96.6701 321.252 99.7936 319.485 101.562L300.985 120.066V160.611C300.985 167.152 295.683 172.515 289.084 172.515H97.9608C91.3033 172.574 86.001 167.27 86.001 160.67Z" fill="#1968F0"/>
<path d="M196.112 118.299H271.937C274.529 118.299 276.65 116.178 276.65 113.585V105.57C276.65 102.977 274.529 100.855 271.937 100.855H196.112C193.52 100.855 191.399 102.977 191.399 105.57V113.585C191.399 116.178 193.52 118.299 196.112 118.299Z" fill="#35DE90"/>
<path d="M154.163 118.299H176.492C179.084 118.299 181.205 116.178 181.205 113.585V105.57C181.205 102.977 179.084 100.855 176.492 100.855H154.163C151.571 100.855 149.45 102.977 149.45 105.57V113.585C149.45 116.178 151.571 118.299 154.163 118.299Z" fill="url(#paint19_linear_196_24181)"/>
<path d="M123.174 150.12H271.996C274.588 150.12 276.709 147.998 276.709 145.405V137.39C276.709 134.797 274.588 132.676 271.996 132.676H123.174C120.581 132.676 118.46 134.797 118.46 137.39V145.405C118.46 147.998 120.581 150.12 123.174 150.12Z" fill="#072F73"/>
<defs>
<filter id="filter0_f_196_24181" x="508.543" y="744.883" width="525.781" height="103.91" filterUnits="userSpaceOnUse" color-interpolation-filters="sRGB">
<feFlood flood-opacity="0" result="BackgroundImageFix"/>
<feBlend mode="normal" in="SourceGraphic" in2="BackgroundImageFix" result="shape"/>
<feGaussianBlur stdDeviation="8" result="effect1_foregroundBlur_196_24181"/>
</filter>
<filter id="filter1_d_196_24181" x="402.941" y="223.525" width="364.886" height="99.4778" filterUnits="userSpaceOnUse" color-interpolation-filters="sRGB">
<feFlood flood-opacity="0" result="BackgroundImageFix"/>
<feColorMatrix in="SourceAlpha" type="matrix" values="0 0 0 0 0 0 0 0 0 0 0 0 0 0 0 0 0 0 127 0" result="hardAlpha"/>
<feOffset dy="1.35753"/>
<feGaussianBlur stdDeviation="4.07258"/>
<feColorMatrix type="matrix" values="0 0 0 0 0.374547 0 0 0 0 0.481553 0 0 0 0 0.601935 0 0 0 0.15 0"/>
<feBlend mode="normal" in2="BackgroundImageFix" result="effect1_dropShadow_196_24181"/>
<feBlend mode="normal" in="SourceGraphic" in2="effect1_dropShadow_196_24181" result="shape"/>
</filter>
<filter id="filter2_d_196_24181" x="673.003" y="368.384" width="364.886" height="99.4778" filterUnits="userSpaceOnUse" color-interpolation-filters="sRGB">
<feFlood flood-opacity="0" result="BackgroundImageFix"/>
<feColorMatrix in="SourceAlpha" type="matrix" values="0 0 0 0 0 0 0 0 0 0 0 0 0 0 0 0 0 0 127 0" result="hardAlpha"/>
<feOffset dy="1.35753"/>
<feGaussianBlur stdDeviation="4.07258"/>
<feColorMatrix type="matrix" values="0 0 0 0 0.374547 0 0 0 0 0.481553 0 0 0 0 0.601935 0 0 0 0.15 0"/>
<feBlend mode="normal" in2="BackgroundImageFix" result="effect1_dropShadow_196_24181"/>
<feBlend mode="normal" in="SourceGraphic" in2="effect1_dropShadow_196_24181" result="shape"/>
</filter>
<filter id="filter3_d_196_24181" x="802.819" y="481.53" width="83.6926" height="44.5735" filterUnits="userSpaceOnUse" color-interpolation-filters="sRGB">
<feFlood flood-opacity="0" result="BackgroundImageFix"/>
<feColorMatrix in="SourceAlpha" type="matrix" values="0 0 0 0 0 0 0 0 0 0 0 0 0 0 0 0 0 0 127 0" result="hardAlpha"/>
<feOffset dy="0.619731"/>
<feGaussianBlur stdDeviation="1.85919"/>
<feColorMatrix type="matrix" values="0 0 0 0 0.374547 0 0 0 0 0.481553 0 0 0 0 0.601935 0 0 0 0.15 0"/>
<feBlend mode="normal" in2="BackgroundImageFix" result="effect1_dropShadow_196_24181"/>
<feBlend mode="normal" in="SourceGraphic" in2="effect1_dropShadow_196_24181" result="shape"/>
</filter>
<filter id="filter4_d_196_24181" x="573.559" y="321.097" width="83.6926" height="44.5735" filterUnits="userSpaceOnUse" color-interpolation-filters="sRGB">
<feFlood flood-opacity="0" result="BackgroundImageFix"/>
<feColorMatrix in="SourceAlpha" type="matrix" values="0 0 0 0 0 0 0 0 0 0 0 0 0 0 0 0 0 0 127 0" result="hardAlpha"/>
<feOffset dy="0.619731"/>
<feGaussianBlur stdDeviation="1.85919"/>
<feColorMatrix type="matrix" values="0 0 0 0 0.374547 0 0 0 0 0.481553 0 0 0 0 0.601935 0 0 0 0.15 0"/>
<feBlend mode="normal" in2="BackgroundImageFix" result="effect1_dropShadow_196_24181"/>
<feBlend mode="normal" in="SourceGraphic" in2="effect1_dropShadow_196_24181" result="shape"/>
</filter>
<filter id="filter5_f_196_24181" x="120.244" y="998.759" width="276.849" height="63.6223" filterUnits="userSpaceOnUse" color-interpolation-filters="sRGB">
<feFlood flood-opacity="0" result="BackgroundImageFix"/>
<feBlend mode="normal" in="SourceGraphic" in2="BackgroundImageFix" result="shape"/>
<feGaussianBlur stdDeviation="6.87824" result="effect1_foregroundBlur_196_24181"/>
</filter>
<linearGradient id="paint0_linear_196_24181" x1="421.301" y1="-144.113" x2="901.127" y2="884.986" gradientUnits="userSpaceOnUse">
<stop stop-color="white"/>
<stop offset="0.147721" stop-color="#F7FAFE"/>
<stop offset="0.304044" stop-color="#E2ECFD"/>
<stop offset="0.516199" stop-color="#FAFCFF"/>
<stop offset="0.970404" stop-color="#C5D9FB"/>
</linearGradient>
<linearGradient id="paint1_linear_196_24181" x1="747.939" y1="130.839" x2="717.577" y2="55.7335" gradientUnits="userSpaceOnUse">
<stop stop-color="#0D4FC1"/>
<stop offset="0.482673" stop-color="#135CD8"/>
<stop offset="1" stop-color="#1A69F1"/>
</linearGradient>
<linearGradient id="paint2_linear_196_24181" x1="587.468" y1="150.914" x2="582.039" y2="152.125" gradientUnits="userSpaceOnUse">
<stop offset="0.0105566" stop-color="#0012FF" stop-opacity="0.2"/>
<stop offset="0.5203" stop-color="#0012FF" stop-opacity="0"/>
</linearGradient>
<linearGradient id="paint3_linear_196_24181" x1="595.028" y1="150.914" x2="600.457" y2="152.125" gradientUnits="userSpaceOnUse">
<stop offset="0.0105566" stop-color="#0012FF" stop-opacity="0.2"/>
<stop offset="0.5203" stop-color="#0012FF" stop-opacity="0"/>
</linearGradient>
<linearGradient id="paint4_linear_196_24181" x1="480.032" y1="221.651" x2="1030.06" y2="742.455" gradientUnits="userSpaceOnUse">
<stop stop-color="#1968F0"/>
<stop offset="0.2912" stop-color="#125BD8"/>
<stop offset="0.5885" stop-color="#0E51C6"/>
<stop offset="0.8048" stop-color="#0C4EC0"/>
</linearGradient>
<linearGradient id="paint5_linear_196_24181" x1="440.046" y1="276.965" x2="498.908" y2="245.193" gradientUnits="userSpaceOnUse">
<stop offset="0.0650309" stop-color="#0096FA"/>
<stop offset="0.2889" stop-color="#0093FA"/>
<stop offset="0.4695" stop-color="#0089FB"/>
<stop offset="0.6351" stop-color="#0078FC"/>
<stop offset="0.7917" stop-color="#0060FD"/>
<stop offset="0.9406" stop-color="#0041FE"/>
<stop offset="1" stop-color="#0033FF"/>
</linearGradient>
<linearGradient id="paint6_linear_196_24181" x1="504.205" y1="226.703" x2="504.205" y2="255.203" gradientUnits="userSpaceOnUse">
<stop offset="0.375" stop-color="#6E3A0C"/>
<stop offset="0.5005" stop-color="#6A380C"/>
<stop offset="0.6185" stop-color="#5F320A"/>
<stop offset="0.7335" stop-color="#4C2808"/>
<stop offset="0.8467" stop-color="#311A05"/>
<stop offset="0.9576" stop-color="#0F0802"/>
<stop offset="1"/>
</linearGradient>
<linearGradient id="paint7_linear_196_24181" x1="485.758" y1="248.316" x2="524.391" y2="283.506" gradientUnits="userSpaceOnUse">
<stop offset="0.2046" stop-color="#0096FA"/>
<stop offset="0.3622" stop-color="#0092FA"/>
<stop offset="0.5231" stop-color="#0086FB"/>
<stop offset="0.6855" stop-color="#0071FC"/>
<stop offset="0.8479" stop-color="#0055FD"/>
<stop offset="1" stop-color="#0033FF"/>
</linearGradient>
<linearGradient id="paint8_linear_196_24181" x1="466.482" y1="253.315" x2="473.782" y2="245.27" gradientUnits="userSpaceOnUse">
<stop offset="0.2107" stop-color="#6E3A0C"/>
<stop offset="0.3223" stop-color="#65350B"/>
<stop offset="0.5021" stop-color="#4E2908"/>
<stop offset="0.7264" stop-color="#271504"/>
<stop offset="0.9218"/>
</linearGradient>
<linearGradient id="paint9_linear_196_24181" x1="949.991" y1="428.443" x2="941.111" y2="419.267" gradientUnits="userSpaceOnUse">
<stop offset="0.2944" stop-opacity="0"/>
<stop offset="1" stop-opacity="0.5"/>
</linearGradient>
<linearGradient id="paint10_linear_196_24181" x1="958.227" y1="428.035" x2="969.024" y2="408.885" gradientUnits="userSpaceOnUse">
<stop offset="0.3675" stop-opacity="0"/>
<stop offset="0.8842" stop-opacity="0.5"/>
</linearGradient>
<linearGradient id="paint11_linear_196_24181" x1="935.144" y1="416.152" x2="931.319" y2="405.065" gradientUnits="userSpaceOnUse">
<stop offset="0.3675" stop-opacity="0"/>
<stop offset="0.9278" stop-opacity="0.5"/>
</linearGradient>
<linearGradient id="paint12_linear_196_24181" x1="626.781" y1="1014.75" x2="494.511" y2="997.809" gradientUnits="userSpaceOnUse">
<stop offset="0.2603" stop-color="#072F73"/>
<stop offset="0.3664" stop-color="#072C6D"/>
<stop offset="0.5132" stop-color="#06255B"/>
<stop offset="0.6836" stop-color="#04193D"/>
<stop offset="0.8706" stop-color="#010915"/>
<stop offset="0.9558"/>
</linearGradient>
<linearGradient id="paint13_linear_196_24181" x1="605.128" y1="711.291" x2="311.411" y2="918.428" gradientUnits="userSpaceOnUse">
<stop offset="0.0262009" stop-color="#0096FA"/>
<stop offset="0.641" stop-color="#1968F0"/>
</linearGradient>
<linearGradient id="paint14_linear_196_24181" x1="232.889" y1="391.525" x2="199.655" y2="383.411" gradientUnits="userSpaceOnUse">
<stop stop-color="#8C3A03" stop-opacity="0.2"/>
<stop offset="0.9375" stop-color="#763103"/>
</linearGradient>
<linearGradient id="paint15_linear_196_24181" x1="251.074" y1="419.433" x2="267.351" y2="395.65" gradientUnits="userSpaceOnUse">
<stop stop-color="#8C3A03" stop-opacity="0.13"/>
<stop offset="1" stop-color="#642901"/>
</linearGradient>
<linearGradient id="paint16_linear_196_24181" x1="236.273" y1="554.698" x2="155.05" y2="626.204" gradientUnits="userSpaceOnUse">
<stop offset="0.1453" stop-color="#35DE90"/>
<stop offset="0.652544" stop-color="#1BA766"/>
</linearGradient>
<linearGradient id="paint17_linear_196_24181" x1="118.149" y1="560.794" x2="153.753" y2="641.918" gradientUnits="userSpaceOnUse">
<stop offset="0.2814" stop-color="#F8BC9A" stop-opacity="0"/>
<stop offset="0.297" stop-color="#8C3A03"/>
<stop offset="0.7905" stop-color="#732F02"/>
</linearGradient>
<linearGradient id="paint18_linear_196_24181" x1="910.614" y1="941.122" x2="948.674" y2="941.122" gradientUnits="userSpaceOnUse">
<stop stop-color="white"/>
<stop offset="0.9515" stop-color="#C5D9FB"/>
</linearGradient>
<linearGradient id="paint19_linear_196_24181" x1="181.224" y1="109.579" x2="149.452" y2="109.579" gradientUnits="userSpaceOnUse">
<stop stop-color="white"/>
<stop offset="0.9515" stop-color="#C5D9FB"/>
</linearGradient>
<clipPath id="clip0_196_24181">
<rect width="20.8285" height="20.9847" fill="white" transform="translate(580.842 133.551)"/>
</clipPath>
</defs>
</svg>
