<svg width="1080" height="1080" fill="none" xmlns="http://www.w3.org/2000/svg"><g opacity=".2" filter="url(#webhook__a)"><path d="M596.331 992.86c0 7.033-36.439 12.73-81.389 12.73-44.95 0-81.389-5.697-81.389-12.73s36.439-12.735 81.389-12.735c44.95 0 81.389 5.702 81.389 12.735Z" fill="#0A0F1A"/></g><path d="M933.387 775.403c38.251 10.502 112.353-37.296 111.123-95.313-1.52-59.889-55.969-104.906-62.812-164.626-7.603-66.077 65.682-114.727 81.122-179.499 16.32-68.121-17.54-149.412-70.184-197.097-44.861-40.645-119.083-63.58-179.443-53.191-73.402 12.602-117.62 92.134-189.736 110.413-58.488 14.873-118.38-1.419-175.465-20.947-43.281-14.873-80.304-14.93-120.427-17.031-44.159-2.384-179.91 62.445-148.444 191.591 10.06 41.497 50.827 68.689 89.663 88.501 38.836 19.812 94.283 67.042 122.825 99.286 46.44 52.17 30.824 98.095 29.245 167.011-1.58 68.916-33.046 140.954 21.64 203.398 22.167 25.489 80.714 53.532 117.503 56.427 25.735 2.044 63.577-6.699 80.539-18.961 102.12-73.911 79.603-228.319 292.851-169.962Z" fill="#B9CBD3" style="mix-blend-mode:luminosity" opacity=".16"/><path d="M411.187 603.119 359.816 897.11h14.689l52.793-293.991h-16.111Z" fill="#343C4C"/><path d="M379.463 897.11h-4.958l52.342-293.991h4.924L379.463 897.11Z" fill="#262C39"/><path fill-rule="evenodd" clip-rule="evenodd" d="m876.504 863.488 141.706-199.107 5.82 4.141-141.707 199.107-5.819-4.141Z" fill="#202C44"/><path d="M911.786 603.119 860.414 897.11h14.689l52.793-293.991h-16.11Z" fill="#343C4C"/><path d="M880.061 897.11h-4.958l52.343-293.991h4.923L880.061 897.11Zm123.429-293.991 52.79 293.991h13.43l-51.9-293.991h-14.32Z" fill="#262C39"/><path d="M1069.71 897.11H1080l-53.68-293.991h-8.51l51.9 293.991Z" fill="#343C4C"/><path d="M1078.77 602.494H361.029v17.336h717.741v-17.336Z" fill="#FACFB1"/><path d="M388.232 494.006a2.375 2.375 0 1 0 2.305-4.153 2.375 2.375 0 0 0-2.305 4.153ZM16.82 324.646a2.374 2.374 0 1 0 2.306-4.15 2.374 2.374 0 0 0-2.307 4.15Z" fill="#D2DFE6"/><path fill-rule="evenodd" clip-rule="evenodd" d="M386.608 477.364a4.263 4.263 0 1 0-4.137 7.454 4.263 4.263 0 0 0 4.137-7.454Zm-6.647 1.184a5.236 5.236 0 1 1 9.155 5.086 5.236 5.236 0 0 1-9.155-5.086ZM12.23 299.345a1.967 1.967 0 0 0-2.364-1.465l-6.78 1.595a1.966 1.966 0 0 0-1.464 2.364l1.594 6.78a1.967 1.967 0 0 0 2.365 1.465l6.78-1.595a1.966 1.966 0 0 0 1.464-2.364l-1.594-6.78Zm-2.587-2.413a2.94 2.94 0 0 1 3.536 2.19l1.595 6.78a2.94 2.94 0 0 1-2.19 3.536l-6.78 1.594a2.94 2.94 0 0 1-3.536-2.19l-1.595-6.78a2.941 2.941 0 0 1 2.19-3.536l6.78-1.594Zm358.165-18.289a1.967 1.967 0 0 0-2.365-1.464l-6.78 1.594a1.966 1.966 0 0 0-1.464 2.365l1.594 6.78a1.967 1.967 0 0 0 2.365 1.464l6.78-1.594a1.967 1.967 0 0 0 1.464-2.365l-1.594-6.78Zm-2.588-2.412a2.94 2.94 0 0 1 3.536 2.189l1.594 6.78a2.94 2.94 0 0 1-2.189 3.536l-6.78 1.595a2.94 2.94 0 0 1-3.536-2.19l-1.595-6.78a2.941 2.941 0 0 1 2.19-3.536l6.78-1.594Zm154.727 168.446a4.992 4.992 0 1 0 0 9.985 4.993 4.993 0 0 0 0-9.985Zm-5.967 4.992a5.967 5.967 0 1 1 11.934 0 5.967 5.967 0 0 1-11.934 0Z" fill="#D2DFE6"/><path d="m514.451 460.383-1.882-2.069a.985.985 0 0 0-1.392-.067l-2.07 1.882a.986.986 0 0 0-.066 1.392l1.882 2.07a.986.986 0 0 0 1.392.066l2.07-1.882a.986.986 0 0 0 .066-1.392ZM185.795 339.888l-1.922-2.114a1.007 1.007 0 0 0-1.422-.067l-2.114 1.922a1.006 1.006 0 0 0-.068 1.422l1.922 2.114a1.007 1.007 0 0 0 1.423.068l2.114-1.922a1.008 1.008 0 0 0 .067-1.423Zm9.96 16.254-3.845-4.228a2.013 2.013 0 0 0-2.844-.135l-4.228 3.845a2.013 2.013 0 0 0-.135 2.844l3.845 4.228a2.013 2.013 0 0 0 2.844.135l4.228-3.844a2.014 2.014 0 0 0 .135-2.845Zm182.584-53.329-3.017-3.318a1.58 1.58 0 0 0-2.232-.106l-3.317 3.017a1.58 1.58 0 0 0-.106 2.232l3.016 3.317a1.58 1.58 0 0 0 2.232.106l3.318-3.016a1.58 1.58 0 0 0 .106-2.232Z" fill="#D2DFE6"/><path fill-rule="evenodd" clip-rule="evenodd" d="M579.877 169.47a7.167 7.167 0 1 0 0 14.334 7.167 7.167 0 0 0 0-14.334Zm-8.142 7.167a8.141 8.141 0 1 1 16.283 0 8.141 8.141 0 0 1-16.283 0Z" fill="#D2DFE6"/><path d="M564.568 191.946a3.827 3.827 0 1 0 0-7.654 3.827 3.827 0 0 0 0 7.654Z" fill="#D2DFE6"/><path opacity=".3" d="M333.135 241.09H79.273c-6.508 0-11.784 5.275-11.784 11.784v70.095c0 6.508 5.276 11.784 11.784 11.784h253.862c6.508 0 11.784-5.276 11.784-11.784v-70.095c0-6.509-5.276-11.784-11.784-11.784Z" fill="#C3EEF4"/><path d="M322.247 229.053H68.385c-6.508 0-11.784 5.276-11.784 11.784v70.095c0 6.509 5.276 11.784 11.784 11.784h253.862c6.508 0 11.784-5.275 11.784-11.784v-70.095c0-6.508-5.276-11.784-11.784-11.784Z" fill="#F5F8F9"/><path opacity=".3" d="M327.392 235.347H73.531c-6.509 0-11.784 5.276-11.784 11.784v70.095c0 6.508 5.275 11.784 11.784 11.784h253.861c6.508 0 11.784-5.276 11.784-11.784v-70.095c0-6.508-5.276-11.784-11.784-11.784Z" fill="#C3EEF4"/><path d="M322.247 229.053H68.385c-6.508 0-11.784 5.276-11.784 11.784v70.095c0 6.509 5.276 11.784 11.784 11.784h253.862c6.508 0 11.784-5.275 11.784-11.784v-70.095c0-6.508-5.276-11.784-11.784-11.784Z" fill="#F5F8F9"/><path d="M100.992 304.053c15.636 0 28.312-12.676 28.312-28.312 0-15.636-12.676-28.311-28.312-28.311-15.636 0-28.311 12.675-28.311 28.311s12.675 28.312 28.311 28.312Z" fill="#FEECCB"/><path fill-rule="evenodd" clip-rule="evenodd" d="M137.964 265.703a4.594 4.594 0 0 1 4.594-4.594h63.422a4.594 4.594 0 0 1 0 9.188h-63.422a4.594 4.594 0 0 1-4.594-4.594Z" fill="#B9CBD3"/><path fill-rule="evenodd" clip-rule="evenodd" d="M139.112 286.158a3.445 3.445 0 0 1 3.446-3.445h147.311a3.445 3.445 0 1 1 0 6.891H142.558a3.446 3.446 0 0 1-3.446-3.446Z" fill="#D2DFE6"/><path d="M347.182 235.944c0 12.687-10.285 22.971-22.971 22.971s-22.971-10.284-22.971-22.971c0-12.686 10.285-22.971 22.971-22.971s22.971 10.285 22.971 22.971Z" fill="#FF7B80"/><path d="M333.279 244.249a1.99 1.99 0 0 0-1.781 1.095h-.493a1.974 1.974 0 0 1-1.974-1.974v-1.179h.987a6.658 6.658 0 0 0 2.428-12.83 7.552 7.552 0 0 0-10.509-5.993 7.547 7.547 0 0 0-3.461 3.033 4.748 4.748 0 0 0-5.418 4.692c0 .305.03.609.089.908a5.37 5.37 0 0 0-2.043 4.204 6.037 6.037 0 0 0 6.05 5.986h1.598v1.164a1.974 1.974 0 0 1-1.973 1.974h-.494a2.004 2.004 0 0 0-2.258-1.042 2.01 2.01 0 0 0-1.54 1.953 2.009 2.009 0 0 0 3.798.91h.494c1.01 0 1.979-.401 2.693-1.116a3.805 3.805 0 0 0 1.116-2.693v-1.15h2.418v2.595a2.007 2.007 0 0 0-1.04 2.259 2.01 2.01 0 1 0 2.866-2.259v-2.595h2.418v1.164a3.81 3.81 0 0 0 3.809 3.81h.493a2.003 2.003 0 0 0 1.722 1.089 2.004 2.004 0 1 0 .005-4.005Zm-20.078-8.088a3.278 3.278 0 0 1 1.678-2.852 1.045 1.045 0 0 0 .464-1.288 2.645 2.645 0 0 1 .269-2.471 2.655 2.655 0 0 1 2.198-1.161c.298.001.593.052.873.153a1.046 1.046 0 0 0 1.288-.552 5.477 5.477 0 0 1 6.079-3.094 5.47 5.47 0 0 1 4.372 5.235c.006.226.084.445.223.623.14.177.334.305.552.364a4.57 4.57 0 0 1-1.174 8.991h-12.869a3.949 3.949 0 0 1-3.953-3.948Z" fill="#F8FBFB"/><mask id="webhook__b" style="mask-type:alpha" maskUnits="userSpaceOnUse" x="72" y="247" width="58" height="58"><path d="M100.992 304.053c15.636 0 28.312-12.676 28.312-28.312 0-15.636-12.676-28.311-28.312-28.311-15.636 0-28.311 12.675-28.311 28.311s12.675 28.312 28.311 28.312Z" fill="#FF5A60"/></mask><g mask="url(#webhook__b)"><path fill-rule="evenodd" clip-rule="evenodd" d="M92.907 297.845a3.74 3.74 0 0 0-4.644-5.867l2.256 2.899c-2.256-2.899-2.257-2.897-2.259-2.896l-.003.002-.006.005-.013.01-.03.024-.075.062a11.578 11.578 0 0 0-.806.751 17.603 17.603 0 0 0-1.749 2.107c-1.328 1.863-2.84 4.64-3.875 8.512a3.741 3.741 0 0 0 7.228 1.934c.792-2.96 1.903-4.928 2.74-6.102.42-.591.778-.988 1-1.214a4.622 4.622 0 0 1 .236-.227Zm18.816-5.238a3.74 3.74 0 0 1 5.288-.172l-2.558 2.73a481.275 481.275 0 0 1 2.56-2.728l.002.001.004.005.01.009.023.022.06.058a15.847 15.847 0 0 1 .717.768 21.367 21.367 0 0 1 1.622 2.133 25.768 25.768 0 0 1 3.549 8.06 3.741 3.741 0 1 1-7.257 1.822 18.299 18.299 0 0 0-2.509-5.719 13.977 13.977 0 0 0-1.047-1.382 8.186 8.186 0 0 0-.271-.296l-.043-.044a3.74 3.74 0 0 1-.15-5.267Z" fill="#2CC3D5"/><path d="M89.084 294.04s-3.116 11.975-3.79 12.856l-.341.423c.427.036.857.005 1.275-.091l.91-1.119 2.382-8.133-.436-3.936Zm26.17 1.425s2.814 10.381 3.5 11.262l.4.609a4.056 4.056 0 0 1-1.229-.277l-.908-1.119-2.385-8.133.622-2.342Z" fill="#2498A8"/><path d="M118.308 308.354c-1.158-4.968-3.985-16.592-3.985-16.592 0-.569-3.461-.771-11.23-.924v-.039l-1.125.016-1.129-.016v.039c-7.766.153-11.23.355-11.23.924 0 0-2.828 11.634-3.986 16.592-1.112 4.785 2.18 9.011 5.306 9.011h22.073c3.127 0 6.422-4.226 5.306-9.011Z" fill="#2CC3D5"/><path d="M101.571 257.045c.5-.091 5.975-4.433 10.825 1.084 3.432 3.903.293 6.483 3.23 9.173 2.603 2.388 6.22 8.682 1.279 13.893-2.316 2.443 3.731 11.929-8.562 7.58-7.807-2.769-8.458-1.025-8.458-1.025l1.686-30.705Z" fill="#2C2A46"/><path d="M105.384 258.497s.263-2.307-3.37-3.735c-3.634-1.428-12.388.452-12.218 7.967.169 7.514-7.84 7.855-5.68 13.506 2.16 5.65-3.832 6.385 1.757 10.962 5.588 4.577 15.223 3.37 15.09-4.482-.133-7.853 4.421-24.218 4.421-24.218Z" fill="#2C2A46"/><path d="M101.925 295.251c1.806 0 3.269-1.205 3.269-2.693 0-1.487-1.463-2.693-3.269-2.693-1.805 0-3.269 1.206-3.269 2.693 0 1.488 1.464 2.693 3.269 2.693Z" fill="#EFB8C2"/><path d="M101.925 295.251c1.806 0 3.269-1.205 3.269-2.693 0-1.487-1.463-2.693-3.269-2.693-1.805 0-3.269 1.206-3.269 2.693 0 1.488 1.464 2.693 3.269 2.693Z" fill="#FDC2BF"/><path fill-rule="evenodd" clip-rule="evenodd" d="M101.925 290.133c-1.708 0-3 1.132-3 2.425s1.292 2.425 3 2.425c1.709 0 3.001-1.132 3.001-2.425s-1.292-2.425-3.001-2.425Zm-3.537 2.425c0-1.682 1.635-2.962 3.537-2.962 1.903 0 3.538 1.28 3.538 2.962 0 1.682-1.635 2.962-3.538 2.962-1.902 0-3.537-1.28-3.537-2.962Z" fill="#FDC2BF"/><path d="M102.192 284.82h-.53a9.907 9.907 0 0 1-2.137-.231v6.18a2.152 2.152 0 0 0 2.153 2.157h.498a2.149 2.149 0 0 0 1.995-1.343c.107-.263.161-.546.158-.83v-6.181c-.701.159-1.418.242-2.137.248Z" fill="#FDC2BF"/><path d="M99.531 286.27v1.779s.511-.875 2.395-.875c1.883 0 2.403.976 2.403.976v-2.153l-4.804-.088.006.361Z" fill="#F4B1AF"/><path d="M112.188 265.585v10.663a9.978 9.978 0 0 1-9.997 9.996h-.53a10 10 0 0 1-9.996-9.99v-10.669a9.999 9.999 0 0 1 9.996-9.996h.53a10 10 0 0 1 7.069 2.927 10.001 10.001 0 0 1 2.928 7.069Z" fill="#FDC2BF"/><path d="M91.912 273.467v4.573a1.557 1.557 0 0 1-1.529-1.558v-1.457a1.56 1.56 0 0 1 1.529-1.558Zm21.161 1.558v1.457a1.556 1.556 0 0 1-1.529 1.558v-4.573a1.557 1.557 0 0 1 1.529 1.558Z" fill="#FDC2BF"/><path d="M111.944 268.753s.189 3.276 0 4.535c-.188 1.259.755-4.535.755-4.535h-.755Z" fill="#160566"/><path d="M102.381 257.065a17.758 17.758 0 0 1 4.128-1.669 7.733 7.733 0 0 1 2.244-.198 4.79 4.79 0 0 1 2.183.67c.658.41 1.206.973 1.597 1.643l.306.472c.094.162.185.325.276.491.195.325.345.67.514 1.005.303.687.563 1.392.778 2.111.218.712.403 1.428.65 2.105a6.434 6.434 0 0 0 1.031 1.86 14.783 14.783 0 0 0 1.572 1.513c.55.513 1.061 1.066 1.529 1.656.469.593.871 1.236 1.197 1.919a6.925 6.925 0 0 1 .549 4.43 9.039 9.039 0 0 1-2.199 3.849 9.25 9.25 0 0 0 1.952-3.904 6.578 6.578 0 0 0-.65-4.203 8.836 8.836 0 0 0-.553-.933c-.189-.326-.423-.589-.651-.879a14.762 14.762 0 0 0-1.506-1.577 14.668 14.668 0 0 1-1.627-1.555 6.845 6.845 0 0 1-1.119-1.997c-.26-.713-.442-1.435-.65-2.138-.206-.7-.453-1.387-.739-2.059-.156-.325-.299-.65-.481-.976-.088-.159-.169-.325-.26-.478l-.29-.465a4.606 4.606 0 0 0-1.428-1.552 4.495 4.495 0 0 0-2.007-.686 7.716 7.716 0 0 0-2.166.124c-.723.134-1.432.33-2.121.585-.7.244-1.367.566-2.059.836Z" fill="#2C2A46"/><path d="M105.474 259.638a3.137 3.137 0 0 0-1.073-2.322 6.82 6.82 0 0 0-2.242-1.37 7.74 7.74 0 0 0-2.56-.478 11.535 11.535 0 0 0-2.602.218c-.86.166-1.697.428-2.498.781a8.554 8.554 0 0 0-2.186 1.389 6.83 6.83 0 0 0-2.31 4.476c-.049.426-.058.852-.09 1.317a9.528 9.528 0 0 1-.203 1.35 7.95 7.95 0 0 1-1.076 2.508c-.996 1.542-2.456 2.651-3.718 3.855a5.342 5.342 0 0 0-1.451 2.105 3.68 3.68 0 0 0-.153 1.265c.03.432.112.859.244 1.272.293.853.41 1.757.345 2.657-.044.444-.14.88-.283 1.302-.154.42-.332.832-.534 1.232a7.312 7.312 0 0 0 .69-2.543 6.52 6.52 0 0 0-.442-2.573 5.6 5.6 0 0 1-.303-1.331 4 4 0 0 1 .133-1.369 5.67 5.67 0 0 1 1.48-2.277c.628-.651 1.302-1.227 1.933-1.842a11.245 11.245 0 0 0 1.691-1.994 7.498 7.498 0 0 0 .996-2.371 9.36 9.36 0 0 0 .182-1.282c.026-.423.029-.884.081-1.34.106-.908.376-1.79.797-2.602a7.13 7.13 0 0 1 1.705-2.134 8.842 8.842 0 0 1 2.303-1.438 10.842 10.842 0 0 1 2.602-.771 11.687 11.687 0 0 1 2.687-.166 7.77 7.77 0 0 1 2.635.566 6.996 6.996 0 0 1 2.225 1.497c.315.322.572.698.758 1.109.19.407.272.856.237 1.304Z" fill="#2C2A46"/><path d="M100.92 255.071c-7.807-1.272-11.19 8.874-10.734 11.207.24 1.213.65 3.204.975 4.833 0 0 .944 5.791.755 4.532a8.719 8.719 0 0 1-.071-.908 5.725 5.725 0 0 1 .416-2.342c.573-1.418 1.347-3.159 1.347-3.159s5.13.804 9.667-1.252c4.538-2.056 6.344-8.636 6.344-8.636s-.892-3-8.699-4.275Z" fill="#2C2A46"/><path d="M101.271 254.739c10.845-1.825 12.481 8.803 12.01 11.135-.472 2.332-1.376 9.086-1.376 9.086 0-.924-1.012-7.482-1.754-8.605-3.763-5.731-8.88-11.616-8.88-11.616Z" fill="#2C2A46"/><path d="M109.55 259.343a15.139 15.139 0 0 1-.592 2.556 15.408 15.408 0 0 1-1.002 2.447 11.946 11.946 0 0 1-1.448 2.238c-.286.344-.593.67-.92.976-.173.146-.349.289-.524.432-.088.072-.173.147-.267.212l-.286.182a14.05 14.05 0 0 1-4.987 1.825c-.867.154-1.745.245-2.625.27a15.33 15.33 0 0 1-2.622-.134 25.57 25.57 0 0 0 5.14-.65c.832-.19 1.651-.437 2.449-.739.202-.071.394-.159.592-.244.199-.084.394-.159.579-.26l.57-.286c.185-.101.351-.221.53-.325l.266-.163c.085-.059.163-.127.244-.192l.501-.413c.296-.299.609-.579.875-.908a12.99 12.99 0 0 0 1.464-2.088c.437-.742.824-1.513 1.158-2.306.343-.794.645-1.605.905-2.43Z" fill="#2C2A46"/></g><path opacity=".3" d="M504.268 363.432H250.406c-6.508 0-11.784 5.276-11.784 11.784v70.096c0 6.508 5.276 11.784 11.784 11.784h253.862c6.508 0 11.784-5.276 11.784-11.784v-70.096c0-6.508-5.276-11.784-11.784-11.784Z" fill="#C3EEF4"/><path d="M493.379 351.395H239.518c-6.508 0-11.784 5.276-11.784 11.784v70.096c0 6.508 5.276 11.784 11.784 11.784h253.861c6.509 0 11.784-5.276 11.784-11.784v-70.096c0-6.508-5.275-11.784-11.784-11.784Z" fill="#F5F8F9"/><path opacity=".3" d="M498.525 357.689H244.663c-6.508 0-11.784 5.276-11.784 11.784v70.096c0 6.508 5.276 11.784 11.784 11.784h253.862c6.508 0 11.784-5.276 11.784-11.784v-70.096c0-6.508-5.276-11.784-11.784-11.784Z" fill="#C3EEF4"/><path d="M493.379 351.947H239.518c-6.508 0-11.784 5.276-11.784 11.784v70.095c0 6.508 5.276 11.784 11.784 11.784h253.861c6.509 0 11.784-5.276 11.784-11.784v-70.095c0-6.508-5.275-11.784-11.784-11.784Z" fill="#F8FBFB"/><path fill-rule="evenodd" clip-rule="evenodd" d="M310.865 380.143a4.594 4.594 0 0 1 4.594-4.594h63.434a4.594 4.594 0 0 1 0 9.188h-63.434a4.594 4.594 0 0 1-4.594-4.594Z" fill="#B9CBD3"/><path fill-rule="evenodd" clip-rule="evenodd" d="M312.013 400.587a3.445 3.445 0 0 1 3.446-3.445h147.312a3.445 3.445 0 0 1 0 6.891H315.459a3.446 3.446 0 0 1-3.446-3.446Zm0 18.974a3.446 3.446 0 0 1 3.446-3.446h95.443a3.446 3.446 0 0 1 0 6.892h-95.443a3.446 3.446 0 0 1-3.446-3.446Z" fill="#D2DFE6"/><path d="M521.162 357.689c0 12.687-10.284 22.971-22.971 22.971-12.686 0-22.97-10.284-22.97-22.971 0-12.686 10.284-22.97 22.97-22.97 12.687 0 22.971 10.284 22.971 22.97Z" fill="#2CC3D5"/><path d="M507.261 365.994c-.369 0-.731.102-1.045.296-.315.193-.57.47-.736.799h-.494a1.977 1.977 0 0 1-1.974-1.974v-1.179h.987a6.657 6.657 0 0 0 2.428-12.83 7.555 7.555 0 0 0-13.969-2.96 4.746 4.746 0 0 0-5.33 5.6 5.381 5.381 0 0 0-2.043 4.205 6.039 6.039 0 0 0 6.05 5.985h1.599v1.165a1.973 1.973 0 0 1-1.974 1.973h-.493a2.01 2.01 0 0 0-3.799.911c0 .451.152.889.432 1.243a2.004 2.004 0 0 0 2.418.58 2.01 2.01 0 0 0 .949-.913h.493a3.81 3.81 0 0 0 3.809-3.809v-1.15h2.418v2.596a2.004 2.004 0 0 0-1.039 2.258 2.008 2.008 0 1 0 2.865-2.258v-2.596h2.418v1.165c0 1.01.401 1.979 1.116 2.693a3.805 3.805 0 0 0 2.693 1.116h.494a2.002 2.002 0 1 0 3.509-1.93 2.003 2.003 0 0 0-1.782-.986Zm-20.078-8.088a3.27 3.27 0 0 1 1.677-2.852 1.043 1.043 0 0 0 .464-1.288 2.655 2.655 0 0 1 .269-2.471 2.658 2.658 0 0 1 2.198-1.161c.298.001.594.052.874.153a1.044 1.044 0 0 0 1.288-.552 5.47 5.47 0 0 1 9.18-1.241 5.479 5.479 0 0 1 1.271 3.382 1.046 1.046 0 0 0 .775.987 4.57 4.57 0 0 1-1.175 8.991h-12.869a3.958 3.958 0 0 1-2.794-1.155 3.941 3.941 0 0 1-1.158-2.793Z" fill="#F8FBFB"/><path d="M271.527 426.946c15.636 0 28.312-12.675 28.312-28.311s-12.676-28.312-28.312-28.312c-15.636 0-28.311 12.676-28.311 28.312 0 15.636 12.675 28.311 28.311 28.311Z" fill="#FFD6D7"/><mask id="webhook__c" style="mask-type:alpha" maskUnits="userSpaceOnUse" x="243" y="370" width="57" height="57"><path d="M271.527 426.946c15.636 0 28.312-12.675 28.312-28.311s-12.676-28.312-28.312-28.312c-15.636 0-28.311 12.676-28.311 28.312 0 15.636 12.675 28.311 28.311 28.311Z" fill="#FF5A60"/></mask><g mask="url(#webhook__c)"><path fill-rule="evenodd" clip-rule="evenodd" d="M261.854 423.186a3.705 3.705 0 0 0-4.6-5.811l2.276 2.925a400.785 400.785 0 0 0-2.279-2.923l-.003.002-.006.005-.013.01-.03.024-.075.061a10.863 10.863 0 0 0-.798.744 17.439 17.439 0 0 0-1.732 2.088c-1.315 1.845-2.813 4.596-3.839 8.43a3.706 3.706 0 0 0 7.16 1.917c.785-2.933 1.885-4.882 2.714-6.045.417-.585.771-.978.99-1.203.11-.112.187-.182.221-.212l.014-.012Zm18.637-5.188a3.706 3.706 0 0 1 5.238-.171l-2.534 2.705a472.401 472.401 0 0 1 2.536-2.703l.006.006.01.009.022.022.06.058a14.541 14.541 0 0 1 .71.76c.431.494.996 1.2 1.607 2.113 1.222 1.824 2.642 4.5 3.516 7.984a3.706 3.706 0 1 1-7.189 1.804 18.148 18.148 0 0 0-2.485-5.665 13.82 13.82 0 0 0-1.038-1.368 6.531 6.531 0 0 0-.268-.293c-.022-.024-.037-.038-.043-.044a3.705 3.705 0 0 1-.148-5.217Z" fill="#B97CE8"/><path d="M258.066 419.417s-3.087 11.862-3.754 12.735l-.338.419c.423.035.849.005 1.263-.09l.902-1.109 2.359-8.056-.432-3.899Zm25.922 1.411s2.788 10.283 3.467 11.156l.397.603a4.013 4.013 0 0 1-1.218-.274l-.899-1.108-2.362-8.057.615-2.32Z" fill="#2498A8"/><path d="M287.013 433.596c-1.147-4.921-3.947-16.435-3.947-16.435 0-.564-3.429-.764-11.124-.915v-.039l-1.115.016-1.119-.016v.039c-7.692.151-11.124.351-11.124.915 0 0-2.8 11.524-3.947 16.435-1.102 4.74 2.159 8.926 5.256 8.926h21.864c3.097 0 6.362-4.186 5.256-8.926Z" fill="#B97CE8"/><path d="M275.134 376.727c-.463-.584-1.119-.818-1.664-1.326l-.179.04a14.589 14.589 0 0 1 1.492 1.563c.226.287.458.548.645.87.201.297.384.606.547.925a6.515 6.515 0 0 1 .645 4.163 9.165 9.165 0 0 1-1.934 3.867 8.95 8.95 0 0 0 2.179-3.812 6.867 6.867 0 0 0-.545-4.389 9.967 9.967 0 0 0-1.186-1.901Zm-5.738 7.569a3.117 3.117 0 0 0-2.348-.954 6.778 6.778 0 0 0-2.548.525 7.671 7.671 0 0 0-2.176 1.386 11.37 11.37 0 0 0-1.736 1.918 11.563 11.563 0 0 0-1.279 2.255 8.473 8.473 0 0 0-.643 2.484 6.772 6.772 0 0 0 1.357 4.801c.253.341.534.656.825 1.015.282.352.539.724.768 1.113.45.788.76 1.649.917 2.543.323 1.789.016 3.58-.083 5.305-.08.852.049 1.712.374 2.504.187.38.44.725.745 1.019.314.293.662.546 1.037.755.789.42 1.486.995 2.048 1.69.268.351.494.731.675 1.133.173.409.323.827.448 1.253a7.233 7.233 0 0 0-1.222-2.307 6.46 6.46 0 0 0-2.061-1.563 5.503 5.503 0 0 1-1.118-.758 3.924 3.924 0 0 1-.83-1.081 5.62 5.62 0 0 1-.47-2.649c.015-.895.112-1.767.153-2.639.059-.865.017-1.733-.125-2.587a7.435 7.435 0 0 0-.884-2.39 9.282 9.282 0 0 0-.735-1.05c-.267-.324-.577-.66-.848-1.025a7.51 7.51 0 0 1-1.183-2.422 7.054 7.054 0 0 1-.21-2.697c.096-.897.33-1.774.694-2.599a10.77 10.77 0 0 1 1.361-2.318 11.595 11.595 0 0 1 1.832-1.938 7.678 7.678 0 0 1 2.29-1.372 6.91 6.91 0 0 1 2.622-.423c.446.02.886.118 1.299.29.413.166.776.436 1.054.783Z" fill="#2C2A46"/><path d="M267.775 385.221a3.13 3.13 0 0 1 .704-1.088 3.121 3.121 0 0 1 1.087-.706 6.782 6.782 0 0 1 2.551-.51 7.68 7.68 0 0 1 2.544.429 11.39 11.39 0 0 1 2.346 1.089c.743.448 1.433.977 2.057 1.578a8.5 8.5 0 0 1 1.56 2.037 6.773 6.773 0 0 1 .622 4.951c-.1.412-.236.812-.365 1.256a9.48 9.48 0 0 0-.272 1.324 7.858 7.858 0 0 0 .146 2.7c.4 1.773 1.38 3.303 2.144 4.852.406.755.622 1.596.632 2.452-.025.424-.123.84-.29 1.229a5.246 5.246 0 0 1-.66 1.1 6.656 6.656 0 0 0-1.227 2.354 5.71 5.71 0 0 0-.18 1.307c0 .444.025.887.076 1.328a7.225 7.225 0 0 1 .226-2.601 6.468 6.468 0 0 1 1.288-2.242c.291-.346.537-.727.735-1.134a3.95 3.95 0 0 0 .343-1.319 5.623 5.623 0 0 0-.6-2.622c-.362-.82-.792-1.585-1.17-2.372a11.13 11.13 0 0 1-.893-2.431 7.43 7.43 0 0 1-.117-2.545c.06-.423.149-.842.267-1.254.12-.402.275-.833.381-1.274a7.482 7.482 0 0 0 .146-2.692 7.079 7.079 0 0 0-.857-2.566 8.747 8.747 0 0 0-1.652-2.122 10.715 10.715 0 0 0-2.158-1.604c-.77-.45-1.589-.809-2.442-1.071a7.671 7.671 0 0 0-2.644-.371 6.904 6.904 0 0 0-2.579.633 3.82 3.82 0 0 0-1.083.773 2.588 2.588 0 0 0-.666 1.132Z" fill="#2C2A46"/><path d="M281.929 394.252v10.929c0 4.911-3.692 9.012-8.617 10.016-.773.155-1.56.232-2.349.232h-.574c-.789 0-1.576-.078-2.35-.235-4.924-1.007-8.613-5.106-8.613-10.013v-10.929c0-5.659 4.908-10.248 10.956-10.248h.584c6.059 0 10.963 4.589 10.963 10.248Z" fill="#2C2A46"/><path d="M270.812 421.252c1.863 0 3.373-1.244 3.373-2.779s-1.51-2.779-3.373-2.779c-1.863 0-3.374 1.244-3.374 2.779s1.511 2.779 3.374 2.779Z" fill="#F3C29F"/><path fill-rule="evenodd" clip-rule="evenodd" d="M270.812 415.96c-1.767 0-3.107 1.171-3.107 2.513 0 1.342 1.34 2.513 3.107 2.513 1.766 0 3.107-1.171 3.107-2.513 0-1.342-1.341-2.513-3.107-2.513Zm-3.64 2.513c0-1.728 1.68-3.046 3.64-3.046 1.959 0 3.64 1.318 3.64 3.046 0 1.728-1.681 3.045-3.64 3.045-1.96 0-3.64-1.317-3.64-3.045Z" fill="#fff"/><path d="M271.084 412.011h-.547a10.09 10.09 0 0 1-2.205-.238v6.378a2.222 2.222 0 0 0 2.222 2.225h.513a2.228 2.228 0 0 0 2.054-1.374 2.2 2.2 0 0 0 .168-.851v-6.381c-.724.159-1.463.24-2.205.241Z" fill="#F3C29F"/><path d="M268.338 413.502v1.836s.534-.91 2.481-.92c1.946-.01 2.477 1.007 2.477 1.007v-2.205l-4.958-.091v.373Z" fill="#E8AA7D"/><path d="M281.399 392.718v10.714c0 4.81-3.471 8.831-8.11 9.815-.725.153-1.464.229-2.205.228h-.547a10.341 10.341 0 0 1-2.205-.232c-4.636-.98-8.11-5.004-8.11-9.811v-10.714c0-5.549 4.619-10.046 10.315-10.046h.547c5.7 0 10.315 4.501 10.315 10.046Zm-21.177 5.817v4.719a1.603 1.603 0 0 1-1.577-1.608v-1.503a1.605 1.605 0 0 1 1.577-1.608Z" fill="#F3C29F"/><path d="M282.976 400.143v1.503a1.606 1.606 0 0 1-1.578 1.608v-4.719a1.61 1.61 0 0 1 1.578 1.608Z" fill="#F3C29F"/><path d="M281.15 395.427s.195 3.38 0 4.679c-.194 1.299.779-4.679.779-4.679h-.779Zm-20.552 1.816s-.178 3.38 0 4.699c.177 1.319-.779-4.699-.779-4.699h.779Zm5.662-16.602a5.063 5.063 0 0 1 5.848-5.656 5.063 5.063 0 0 1 3.717 7.236 5.064 5.064 0 0 1-9.565-1.58Z" fill="#2C2A46"/><path fill-rule="evenodd" clip-rule="evenodd" d="M274.951 374.431a.533.533 0 0 1 .282.699l-3.461 8.133a.534.534 0 0 1-.973.016l-1.954-4.203a.532.532 0 1 1 .967-.449l1.449 3.117 2.991-7.032a.534.534 0 0 1 .699-.281Z" fill="#F99B45"/><path d="M260.5 399.031a1.557 1.557 0 0 1-1.725-1.319c-.111-.745-.228-1.607-.265-2.148-.406-5.773 4.259-12.513 9.469-12.513h7.226c6.234.779 8.617 8.25 7.231 14.165a.858.858 0 0 1-.164.331.853.853 0 0 1-.651.31.83.83 0 0 1-.36-.081 66.211 66.211 0 0 0-1.927-.839c-2.376-1.007-3.961-4.518-3.961-4.518s0 1.896-5.639 4.518c-2.531 1.178-6.934 1.823-9.234 2.094Z" fill="#2C2A46"/><path d="M276.192 389.096c-.122.86-.318 1.707-.587 2.533-.26.835-.592 1.645-.992 2.423-.394.79-.875 1.534-1.434 2.217-.283.341-.588.664-.912.966-.171.145-.345.287-.519.429-.087.071-.171.145-.264.209l-.284.181a13.913 13.913 0 0 1-4.939 1.808c-.859.153-1.728.242-2.601.267a15.24 15.24 0 0 1-2.597-.132 25.305 25.305 0 0 0 5.091-.645 18.47 18.47 0 0 0 2.427-.731c.199-.071.39-.158.586-.242.197-.083.39-.158.574-.257l.564-.284c.183-.1.348-.219.525-.322l.264-.161c.084-.058.161-.126.242-.19l.496-.41c.293-.296.602-.573.867-.899a12.976 12.976 0 0 0 1.45-2.068 19.28 19.28 0 0 0 1.147-2.285c.34-.786.639-1.59.896-2.407Z" fill="#2C2A46"/></g><path opacity=".3" d="M547.912 103.265H294.05c-6.508 0-11.784 5.276-11.784 11.784v70.095c0 6.508 5.276 11.784 11.784 11.784h253.862c6.508 0 11.784-5.276 11.784-11.784v-70.095c0-6.508-5.276-11.784-11.784-11.784Z" fill="#C3EEF4"/><path d="M537.024 91.228H283.162c-6.508 0-11.784 5.276-11.784 11.784v70.096c0 6.508 5.276 11.784 11.784 11.784h253.862c6.508 0 11.784-5.276 11.784-11.784v-70.096c0-6.508-5.276-11.784-11.784-11.784Z" fill="#F5F8F9"/><path opacity=".3" d="M542.169 97.522H288.307c-6.508 0-11.784 5.276-11.784 11.784v70.096c0 6.508 5.276 11.784 11.784 11.784h253.862c6.508 0 11.784-5.276 11.784-11.784v-70.096c0-6.508-5.276-11.784-11.784-11.784Z" fill="#C3EEF4"/><path d="M537.024 91.228H283.162c-6.508 0-11.784 5.276-11.784 11.784v70.096c0 6.508 5.276 11.784 11.784 11.784h253.862c6.508 0 11.784-5.276 11.784-11.784v-70.096c0-6.508-5.276-11.784-11.784-11.784Z" fill="#F5F8F9"/><path fill-rule="evenodd" clip-rule="evenodd" d="M355.072 119.976a4.594 4.594 0 0 1 4.594-4.594H423.1a4.594 4.594 0 0 1 0 9.188h-63.434a4.594 4.594 0 0 1-4.594-4.594Z" fill="#B9CBD3"/><path fill-rule="evenodd" clip-rule="evenodd" d="M356.22 140.432a3.446 3.446 0 0 1 3.446-3.446h147.312a3.445 3.445 0 0 1 0 6.891H359.666a3.445 3.445 0 0 1-3.446-3.445Zm0 18.962a3.446 3.446 0 0 1 3.446-3.446h95.444a3.445 3.445 0 0 1 0 6.892h-95.444a3.446 3.446 0 0 1-3.446-3.446Z" fill="#D2DFE6"/><path d="M561.958 96.97c0 12.687-10.284 22.972-22.97 22.972-12.687 0-22.971-10.285-22.971-22.971 0-12.687 10.284-22.971 22.971-22.971 12.686 0 22.97 10.284 22.97 22.97Z" fill="#BED42B"/><path d="M548.057 105.275a2.004 2.004 0 0 0-1.781 1.096h-.494a1.977 1.977 0 0 1-1.974-1.974v-1.179h.987a6.654 6.654 0 0 0 5.779-9.849 6.659 6.659 0 0 0-3.351-2.98 7.558 7.558 0 0 0-5.93-6.456 7.557 7.557 0 0 0-8.04 3.494 4.75 4.75 0 0 0-5.418 4.693c0 .305.03.61.089.908a5.375 5.375 0 0 0-2.043 4.204 6.043 6.043 0 0 0 6.05 5.986h1.599v1.164a1.974 1.974 0 0 1-1.974 1.974h-.493a2.01 2.01 0 0 0-3.368-.333 2.01 2.01 0 1 0 3.368 2.154h.493a3.81 3.81 0 0 0 3.809-3.809v-1.15h2.418v2.595a2.016 2.016 0 0 0-1.04 2.259 2.008 2.008 0 1 0 2.866-2.259v-2.595h2.418v1.164a3.806 3.806 0 0 0 3.809 3.81h.494a1.999 1.999 0 0 0 3.506.107 1.994 1.994 0 0 0 .003-2.037 2.01 2.01 0 0 0-1.782-.987Zm-20.079-8.087a3.282 3.282 0 0 1 1.678-2.852c.22-.123.388-.32.474-.557a1.045 1.045 0 0 0-.01-.731 2.644 2.644 0 0 1 .269-2.471 2.658 2.658 0 0 1 2.198-1.16c.298 0 .594.051.874.152a1.045 1.045 0 0 0 1.288-.553 5.47 5.47 0 0 1 9.18-1.24 5.477 5.477 0 0 1 1.271 3.382 1.043 1.043 0 0 0 .774.987 4.572 4.572 0 0 1 3.378 5.013 4.569 4.569 0 0 1-4.552 3.977h-12.869a3.94 3.94 0 0 1-2.795-1.154 3.955 3.955 0 0 1-1.158-2.793Z" fill="#F8FBFB"/><path d="M316.917 167.112c15.636 0 28.312-12.675 28.312-28.311s-12.676-28.312-28.312-28.312c-15.636 0-28.311 12.676-28.311 28.312 0 15.636 12.675 28.311 28.311 28.311Z" fill="#87DDE8"/><mask id="webhook__d" style="mask-type:alpha" maskUnits="userSpaceOnUse" x="288" y="110" width="58" height="58"><path d="M316.917 167.376c15.636 0 28.312-12.675 28.312-28.311s-12.676-28.312-28.312-28.312c-15.636 0-28.311 12.676-28.311 28.312 0 15.636 12.675 28.311 28.311 28.311Z" fill="#FF5A60"/></mask><g mask="url(#webhook__d)"><path d="M317.232 155.819c-9.888 0-17.903.858-17.903 1.915v49.526c0 1.057 8.015 1.912 17.903 1.912 9.888 0 17.906-.855 17.906-1.912v-49.526c0-1.057-8.018-1.915-17.906-1.915Z" fill="#E7EEF1"/><path d="M329.623 134.166v1.532a1.634 1.634 0 0 1-1.607 1.637v-4.807a1.639 1.639 0 0 1 1.607 1.638Z" fill="#CB8591"/><path fill-rule="evenodd" clip-rule="evenodd" d="M301.056 162.175c4.643 2.178 4.644 2.177 4.644 2.177l.001-.003.002-.003-.009.018-.052.115c-.049.111-.128.29-.233.536a62.094 62.094 0 0 0-.902 2.259c-.767 2.021-1.82 5.052-2.923 8.99a5.129 5.129 0 1 1-9.878-2.766c1.192-4.255 2.343-7.576 3.209-9.86a73.872 73.872 0 0 1 1.054-2.636 45.285 45.285 0 0 1 .4-.91l.028-.06.009-.021.006-.012 4.644 2.176Zm29.361-4.44a5.129 5.129 0 0 1 7.031 1.781l-4.406 2.625c4.406-2.625 4.406-2.624 4.407-2.623l.004.007.006.011.015.025.04.068.118.209c.095.172.223.407.377.707.31.6.729 1.458 1.217 2.575.977 2.236 2.232 5.51 3.451 9.842a5.129 5.129 0 0 1-9.875 2.778c-1.086-3.861-2.179-6.691-2.975-8.512a34.337 34.337 0 0 0-.933-1.979 16.766 16.766 0 0 0-.27-.502v-.001a5.128 5.128 0 0 1 1.793-7.011Z" fill="#E7EEF1"/><path d="M317.402 160.445c1.897 0 3.436-1.267 3.436-2.831 0-1.563-1.539-2.831-3.436-2.831-1.898 0-3.437 1.268-3.437 2.831 0 1.564 1.539 2.831 3.437 2.831Z" fill="#CB9685"/><path fill-rule="evenodd" clip-rule="evenodd" d="M317.402 160.103c1.773 0 3.094-1.173 3.094-2.489 0-1.315-1.321-2.489-3.094-2.489-1.774 0-3.095 1.174-3.095 2.489 0 1.316 1.321 2.489 3.095 2.489Zm3.436-2.489c0 1.564-1.539 2.831-3.436 2.831-1.898 0-3.437-1.267-3.437-2.831 0-1.563 1.539-2.831 3.437-2.831 1.897 0 3.436 1.268 3.436 2.831Z" fill="#CB9685"/><path fill-rule="evenodd" clip-rule="evenodd" d="M317.402 160.103c1.773 0 3.094-1.173 3.094-2.489 0-1.315-1.321-2.489-3.094-2.489-1.774 0-3.095 1.174-3.095 2.489 0 1.316 1.321 2.489 3.095 2.489Zm3.436-2.489c0 1.564-1.539 2.831-3.436 2.831-1.898 0-3.437-1.267-3.437-2.831 0-1.563 1.539-2.831 3.437-2.831 1.897 0 3.436 1.268 3.436 2.831Z" fill="#fff"/><path d="M328.19 128.152v11.208a10.48 10.48 0 0 1-3.073 7.434 10.484 10.484 0 0 1-7.434 3.073h-.541a10.507 10.507 0 0 1-8.182-3.918 10.505 10.505 0 0 1-2.325-6.583v-11.214a10.505 10.505 0 0 1 10.507-10.507h.558a10.505 10.505 0 0 1 10.49 10.507Z" fill="#CB9685"/><path fill-rule="evenodd" clip-rule="evenodd" d="M327.848 139.36v-11.208a10.168 10.168 0 0 0-10.149-10.166h-.557a10.164 10.164 0 0 0-10.165 10.166v11.214a10.172 10.172 0 0 0 7.992 9.924c.713.157 1.442.236 2.173.235h.541a10.152 10.152 0 0 0 10.165-10.165ZM317.7 117.645h-.558a10.507 10.507 0 0 0-10.507 10.507v11.214a10.505 10.505 0 0 0 2.325 6.583 10.507 10.507 0 0 0 8.182 3.918h.541a10.48 10.48 0 0 0 7.434-3.073 10.484 10.484 0 0 0 3.073-7.434v-11.208a10.507 10.507 0 0 0-10.49-10.507Z" fill="#CB9685"/><path d="M306.618 132.528v4.808a1.635 1.635 0 0 1-1.607-1.638v-1.532a1.635 1.635 0 0 1 1.607-1.638Z" fill="#CB9685"/><path fill-rule="evenodd" clip-rule="evenodd" d="M306.276 132.571c.111-.026.226-.041.342-.043v4.808a1.62 1.62 0 0 1-1.139-.49 1.632 1.632 0 0 1-.468-1.148m1.265 1.242v-4.015a1.295 1.295 0 0 0-.923 1.241v1.532a1.295 1.295 0 0 0 .923 1.242Z" fill="#CB9685"/><path d="M329.793 134.166v1.532a1.632 1.632 0 0 1-1.607 1.638v-4.808a1.635 1.635 0 0 1 1.607 1.638Z" fill="#CB9685"/><path fill-rule="evenodd" clip-rule="evenodd" d="M329.451 135.698v-1.532h.342v1.532a1.632 1.632 0 0 1-1.607 1.638v-4.808a1.634 1.634 0 0 1 1.138.491c.301.306.469.718.469 1.147h-.342a1.294 1.294 0 0 0-.923-1.241v4.015a1.295 1.295 0 0 0 .923-1.242Z" fill="#CB9685"/><path opacity=".2" fill-rule="evenodd" clip-rule="evenodd" d="M315.877 121.98a5.282 5.282 0 0 0-5.283 5.282 1.025 1.025 0 1 1-2.051 0 7.337 7.337 0 0 1 7.334-7.334 1.026 1.026 0 0 1 0 2.052Z" fill="#fff"/><path d="M317.682 149.867h-.54a10.404 10.404 0 0 1-2.246-.243v6.496a2.262 2.262 0 0 0 2.246 2.253h.523a2.261 2.261 0 0 0 2.264-2.266v-6.48c-.738.16-1.491.24-2.247.24Z" fill="#CB9685"/><path fill-rule="evenodd" clip-rule="evenodd" d="M319.587 156.107v-6.064c-.629.111-1.266.166-1.905.166h-.54a10.748 10.748 0 0 1-1.904-.168v6.078a1.923 1.923 0 0 0 1.905 1.913h.522a1.914 1.914 0 0 0 1.36-.564 1.917 1.917 0 0 0 .562-1.361Zm-4.691.013v-6.496a9.4 9.4 0 0 0 .342.069m4.691.284v6.13a2.265 2.265 0 0 1-2.264 2.266h-.523a2.262 2.262 0 0 1-2.246-2.253" fill="#CB9685"/><path d="M314.885 152.051v1.871s.544-.927 2.523-.937c1.98-.011 2.527 1.025 2.527 1.025v-2.246l-5.05-.092v.379Z" fill="#BF7D68"/><path d="M327.779 139.059a4.592 4.592 0 0 1-4.636 4.369h-.212a1.939 1.939 0 0 1-1.45-.684 5.573 5.573 0 0 0-1.869-1.416 5.566 5.566 0 0 0-4.586-.047 5.568 5.568 0 0 0-1.898 1.378 1.957 1.957 0 0 1-1.456.66 4.606 4.606 0 0 1-4.548-4.322l-.506-8.247v12.88c0 4.886 2.575 8.849 8.845 8.849h4.149c6.592 0 8.578-3.963 8.578-8.849v-12.88l-.411 8.309Z" fill="#2C2A46"/></g><path d="M522.373 601.033h-67.574V578.14h67.574a9.426 9.426 0 0 1 9.427 9.427v4.051a9.423 9.423 0 0 1-9.427 9.415Zm-3.669-24.038h-68.496v-18.658h68.496a8.507 8.507 0 0 1 8.506 8.506v1.646a8.504 8.504 0 0 1-8.506 8.506Zm7.723-20.212h-68.495v-18.658h68.495a8.508 8.508 0 0 1 8.506 8.506v1.646a8.507 8.507 0 0 1-8.506 8.506Z" fill="#F8FBFB"/><path fill-rule="evenodd" clip-rule="evenodd" d="M525.091 581.846h-72.592v-4.385h72.683l.044.002a9.573 9.573 0 0 1 9.184 9.871v4.77a9.573 9.573 0 0 1-9.184 9.871l-.044.002h-72.683v-4.385h72.592a5.186 5.186 0 0 0 4.935-5.37l-.002-.04v-4.926l.002-.04a5.185 5.185 0 0 0-4.935-5.37Z" fill="#2CC3D5"/><path fill-rule="evenodd" clip-rule="evenodd" d="M520.131 561.381h-72.639v-4.385h72.639c4.852 0 9.272 3.511 9.272 8.419v3.948c0 4.927-4.428 8.408-9.272 8.408h-72.639v-4.385h72.639c2.984 0 4.886-2.043 4.886-4.023v-3.948c0-1.975-1.911-4.034-4.886-4.034Z" fill="#F99B45"/><path fill-rule="evenodd" clip-rule="evenodd" d="M527.855 541.17h-72.639v-4.386h72.639c4.838 0 9.271 3.51 9.271 8.42v3.948c0 4.924-4.436 8.419-9.271 8.419h-72.639v-4.385h72.639c2.968 0 4.886-2.052 4.886-4.034v-3.948c0-1.973-1.92-4.034-4.886-4.034Z" fill="#F66689"/><path d="M537.817 436.245a55.943 55.943 0 0 1 11.523-5.353l-.423-1.429a56.761 56.761 0 0 0-11.996 5.256 52.812 52.812 0 0 0-10.596 7.879 42.963 42.963 0 0 0-8.113 10.424 34.728 34.728 0 0 0-4.213 12.602 36.792 36.792 0 0 0 .717 13.221c.525 2.168 1.283 4.283 1.873 6.259a45.563 45.563 0 0 1 1.313 6.159 36.497 36.497 0 0 1-.576 12.499 54.822 54.822 0 0 1-4.388 11.941c-1.853 3.865-3.965 7.622-5.743 11.645a27.582 27.582 0 0 0-2.948 12.88 19.374 19.374 0 0 0 1.684 6.479 27.213 27.213 0 0 0 3.609 5.571 31.714 31.714 0 0 1 6.33 11.012 35.589 35.589 0 0 1 1.109 12.775 56.91 56.91 0 0 0 .372-6.525 28.081 28.081 0 0 0-.886-6.417 32.6 32.6 0 0 0-6.025-11.563 26.107 26.107 0 0 1-3.244-5.401 17.938 17.938 0 0 1-1.42-6.036 26.002 26.002 0 0 1 3.103-12.043c3.75-7.612 8.564-15.124 10.529-23.834a38.644 38.644 0 0 0 .719-13.259 46.209 46.209 0 0 0-1.339-6.504c-.63-2.18-1.299-4.142-1.79-6.171a33.238 33.238 0 0 1 3.055-24.313 41.715 41.715 0 0 1 7.66-10.005 56.769 56.769 0 0 1 10.104-7.749Z" fill="#2C2A46"/><path d="M576.048 367.947a58.554 58.554 0 0 0-21.166 16.92c-11.713 15.396-4.901 39.904-16.456 55.976-4.473 6.284-11.191 10.322-15.712 16.512a31.316 31.316 0 0 0-5.23 12.428 31.245 31.245 0 0 0 .487 13.463c1.755 6.661 5.739 12.772 5.865 19.7.19 12.082-11.065 20.77-14.543 32.301-3.92 13.228 5.106 29.001 18.021 31.421 8.994 1.728 18.795-2.168 27.188 1.665 9.675 4.43 13.184 16.967 20.882 24.555a25.872 25.872 0 0 0 16.695 7.143 25.903 25.903 0 0 0 17.291-5.572c4.505-3.739 8.394-9.3 14.116-9.803 5.722-.503 10.449 4.399 15.554 7.18 11.208 6.127 25.972 1.571 34.065-8.641 8.094-10.212 10.038-24.838 7.24-37.831-2.007-9.347-6.323-18.506-5.311-28.043.885-8.467 5.801-15.804 8.568-23.832a43.3 43.3 0 0 0 2.35-18.86 43.362 43.362 0 0 0-5.955-18.06c-4.157-6.692-9.405-12.694-12.519-19.983-4.157-9.709-4.205-20.785-6.924-31.044-6.133-23.267-26.872-40.988-49.603-43.801a63.696 63.696 0 0 0-34.903 6.206Z" fill="#2C2A46"/><path d="M572.433 953.225h15.575V775.607h-15.575v177.618Z" fill="#D2DFE6"/><path d="M641.686 960.848v.39H518.78v-.39a13.706 13.706 0 0 1 4.021-9.7 13.722 13.722 0 0 1 9.703-4.012h95.47a13.715 13.715 0 0 1 13.712 13.712Zm-51.084-177.082H569.9a7.84 7.84 0 0 1-7.842-7.842v-9.426a5.115 5.115 0 0 1 5.115-5.114h26.156a5.115 5.115 0 0 1 5.115 5.114v9.426a7.84 7.84 0 0 1-7.842 7.842Z" fill="#D2DFE6"/><path d="M558.295 744.311h43.839v12.835a9.813 9.813 0 0 1-9.742 9.742h-24.233a9.816 9.816 0 0 1-9.864-9.742v-12.835Z" fill="#202C44"/><path d="M474.394 734.947h57.866V539.976a5.575 5.575 0 0 1 5.565-5.565h137.457a3.82 3.82 0 0 1 2.708 1.117c.355.355.637.777.828 1.242.192.464.29.962.288 1.465v163.626c0 18.656-15.112 43.254-33.767 43.254H474.175a5.092 5.092 0 0 1-5.066-5.577 5.246 5.246 0 0 1 5.285-4.591Z" fill="#262C39"/><path d="M632.82 734.996H519.742v-195.02a5.558 5.558 0 0 1 1.63-3.935 5.568 5.568 0 0 1 3.935-1.63h141.256V701.24a33.77 33.77 0 0 1-33.743 33.756Z" fill="#202C44"/><path fill-rule="evenodd" clip-rule="evenodd" d="M511.973 882.481c6.144-.047 11.162 4.895 11.209 11.039l.256 33.536c.046 6.143-4.896 11.162-11.039 11.209-6.144.046-11.162-4.896-11.209-11.039l-.255-33.537c-.047-6.143 4.895-11.161 11.038-11.208Z" fill="#CB8591"/><path d="M529.07 973.609c-.743-11.483-1.413-21.919-2.107-32.416-.268-3.982-.645-7.964-.913-11.946-.207-3.056-1.498-4.347-4.871-3.19a27.127 27.127 0 0 1-17.048.536c-3.532-1.06-4.628.852-4.628 3.653 0 5.76.292 11.52.219 17.28-.109 9.425-.925 18.874-.401 28.275a23.354 23.354 0 0 0 4.773 12.531c5.297 6.697 16.659 3.653 20.701-3.727a60.667 60.667 0 0 0 4.275-10.996Z" fill="#1A2437"/><path d="M512.338 931.412c6.119-.121 11.063-1 11.044-1.961-.019-.962-4.995-1.642-11.113-1.521-6.119.122-11.064 1-11.045 1.962.019.961 4.995 1.642 11.114 1.52Z" fill="#CB8591"/><path d="m501.16 925.753.085 4.128 22.151-.438-.013-4.822-22.223 1.132Z" fill="#CB8591"/><path fill-rule="evenodd" clip-rule="evenodd" d="M358.291 847.776c5.471 2.795 7.64 9.496 4.845 14.967l-6.868 13.443c-2.795 5.471-9.496 7.641-14.967 4.846s-7.64-9.496-4.845-14.967l6.868-13.444c2.795-5.471 9.496-7.64 14.967-4.845Z" fill="#CB8591"/><path d="M292.758 879.54a11.539 11.539 0 0 0-4.664 7.306c-.609 3.653 1.01 6.089 5.211 9.06 5.298 3.738 11.313 4.542 17.524 4.871 7.513.463 15.246.073 22.467 1.802 8.658 2.058 13.395-2.009 17.182-8.268 2.435-4.019 3.824-8.658 5.577-13.067.731-1.863.256-3.141-2.034-3.653-6.612-1.412-12.372-4.335-16.646-9.827a2.956 2.956 0 0 0-2.74-.621c-7.111 6.406-16.123 5.529-24.634 6.6-3.739.475-7.648.646-11.106 1.949a25.92 25.92 0 0 0-6.137 3.848Z" fill="#1A2437"/><path d="M355.038 878.421c.437-.857-3.628-3.806-9.08-6.587-5.452-2.781-10.225-4.342-10.662-3.485-.437.857 3.628 3.806 9.079 6.587 5.452 2.781 10.226 4.342 10.663 3.485Z" fill="#CB8591"/><path d="m337.192 864.635-1.875 3.678 19.74 10.07 2.252-4.25-20.117-9.498Z" fill="#CB8591"/><path fill-rule="evenodd" clip-rule="evenodd" d="M394.406 462.836c.209.054.697.162 1.562.243 1.814.171 4.142.128 6.915-.061a200.275 200.275 0 0 0 4.232-.346c1.252-.111 2.619-.232 3.857-.31 1.211-.077 2.871-.156 4.509-.046.817.054 2.087.182 3.511.565 1.206.324 4.006 1.208 6.532 3.717.654.65 1.405 1.562 1.713 1.935l.064.077c.512.62 1.18 1.44 1.962 2.405.956 1.179 2.134 2.639 3.481 4.308l2.756 3.414c5.065 6.268 11.72 14.474 18.641 22.796 6.941 8.346 14.056 16.698 20.051 23.293 3.006 3.306 5.62 6.049 7.724 8.085.474.458.888.847 1.245 1.175 1.258-.358 2.934-.945 5.043-1.825 5.977-2.497 13.442-6.506 21.016-10.971 7.482-4.411 14.685-9.035 20.043-12.577a508.9 508.9 0 0 0 6.386-4.288c.76-.519 1.35-.926 1.746-1.2l.445-.308.133-.094h.001c6.08-4.256 14.458-2.777 18.714 3.302 4.256 6.079 2.778 14.458-3.301 18.714l-7.707-11.008c7.707 11.008 7.706 11.009 7.704 11.01l-.015.011-.174.121-.506.351a533.076 533.076 0 0 1-8.607 5.81c-5.586 3.692-13.201 8.584-21.215 13.308-7.922 4.67-16.629 9.412-24.306 12.618-3.798 1.586-7.86 3.018-11.738 3.763-3.194.614-9.403 1.434-15.156-1.818-3.015-1.704-6.068-4.485-8.441-6.782-2.686-2.599-5.731-5.811-8.92-9.318-6.393-7.033-13.803-15.74-20.829-24.188-7.044-8.472-13.795-16.795-18.882-23.091l-2.794-3.461-2.206-2.732-.298.026c-1.346.119-2.932.259-4.587.372-3.237.22-7.272.381-11.26.005-3.722-.35-9.064-1.295-13.754-4.515-6.118-4.201-7.672-12.566-3.472-18.684 4.087-5.952 12.116-7.585 18.182-3.801Zm86.57 71.694c.005-.006.105-.019.284-.018-.2.026-.289.025-.284.018Z" fill="#CB8591"/><path d="m637.448 650.558-.974 3.24-.926 2.898a159.784 159.784 0 0 1-2.034 5.638c-1.412 3.726-3.007 7.367-4.712 11.02a132.583 132.583 0 0 1-12.738 21.42 97.275 97.275 0 0 1-8.706 10.326 80.695 80.695 0 0 1-11.167 9.669 66.999 66.999 0 0 1-14.613 7.928 61.119 61.119 0 0 1-8.731 2.593 60.556 60.556 0 0 1-4.639.804c-.78.11-1.571.183-2.363.256h-1.035l-.609.073c-6.49.828-12.822 1.802-18.789 2.801a125.695 125.695 0 0 0-16.001 3.653 29.13 29.13 0 0 0-5.127 2.143c-1.157.645-1.473 1.084-1.157.792.226-.241.433-.497.621-.768.232-.341.39-.681.463-.803.073-.122 0 0 0 .365v1.985c0 1.839.146 4.579.341 7.927l.658 10.692c.43 7.16.836 14.288 1.217 21.383a2688.14 2688.14 0 0 1 1.778 42.536l1.218 42.45.402 21.225c.122 7.075.219 14.138.256 21.237l-38.505 2.886a2722.764 2722.764 0 0 1-2.91-20.921l-2.874-20.932-5.602-41.854-5.638-41.719a2093.793 2093.793 0 0 0-2.91-20.702l-.767-5.138c-.244-1.742-.512-3.374-.804-5.2a92.167 92.167 0 0 1-1.218-13.152 65.263 65.263 0 0 1 .426-8.524 58.051 58.051 0 0 1 2.058-9.997 50.878 50.878 0 0 1 4.542-10.534 51.423 51.423 0 0 1 6.832-9.291 58.183 58.183 0 0 1 15.648-11.885c4.6-2.411 9.409-4.4 14.369-5.942a129.82 129.82 0 0 1 25.316-5.188 192.413 192.413 0 0 1 23.296-1.047h1.266c.195.012.39.012.585 0 .491-.01.98-.067 1.461-.171a15.55 15.55 0 0 0 4.189-1.571 48.053 48.053 0 0 0 11.093-8.524c4.118-4.134 7.92-8.57 11.374-13.273a161.288 161.288 0 0 0 5.382-7.55 179.357 179.357 0 0 0 2.57-3.884l1.217-1.924.597-.926.28-.426c.085-.11.207-.341.219-.28l35.875 14.186Z" fill="#2D4EAE"/><path d="M647.798 654.857c-.364-5.447-.812-13.51-1.826-18.875-.499-2.642 2.058-5.687 1.437-8.293-.317-1.303-.682-2.606-1.035-3.921l-.573-1.985-.682-2.24-37.664 8.28v1.206l.061 1.473.085 3.057v6.162c0 4.079-.28 8.11-.645 11.945a80.314 80.314 0 0 1-1.802 10.741 33.109 33.109 0 0 1-2.96 8c-1.095 1.985-2.155 2.972-2.691 3.13-.536.158-.584 0-1.449.073-.438 0-1.059.061-1.912 0l-1.875-.11c-.938 0-1.851-.109-2.776-.195-3.41-.292-6.759-.779-10.059-1.388l-3.653-7.111-13.2-14.455-25.767-4.688-11.617 3.933c-1.328-.657-2.679-1.327-4.092-1.997a106.939 106.939 0 0 0-17.791-6.819 68.046 68.046 0 0 0-11.447-2.119 58.16 58.16 0 0 0-12.908.183 57.11 57.11 0 0 0-12.664 3.093 61.789 61.789 0 0 0-10.874 5.297c-.828.487-1.62.998-2.375 1.51l-1.157.779c-.377.256-.876.621-1.303.926-1.863 1.327-3.275 2.545-4.749 3.787a95.031 95.031 0 0 0-7.014 6.965 158.763 158.763 0 0 0-10.582 13.006c-6.271 8.524-11.69 16.865-16.89 25.267-5.2 8.403-10.058 16.793-14.808 25.207-2.37 4.214-4.704 8.427-7.001 12.64l-6.759 12.714c-8.889 16.975-17.401 34.023-25.682 51.144a3109.585 3109.585 0 0 0-12.177 25.816l-5.93 12.957-5.821 13.115 34.608 17.048 13.675-24.355a2545.646 2545.646 0 0 1 13.979-24.257c9.328-16.147 18.839-32.16 28.605-47.893 9.766-15.733 19.642-31.296 30.017-45.969 5.163-7.307 10.472-14.431 15.83-20.702 2.44-2.943 5.029-5.76 7.757-8.439 1.218-1.217 2.338-2.094 3.203-2.776a5.99 5.99 0 0 0 .536-.341l.121-.098h.183l.146-.073.341-.17.633-.317a7.83 7.83 0 0 1 2.862-.901 9.9 9.9 0 0 1 1.218 0 12.86 12.86 0 0 1 2.435.39 46.942 46.942 0 0 1 8.597 3.142c3.459 1.583 7.368 3.653 11.557 5.747a288.89 288.89 0 0 0 28.251 13.176 136.38 136.38 0 0 0 33.183 8.244c2.874.353 5.76.597 8.646.755 2.886.158 5.76.183 8.634.122 1.437 0 2.861 0 4.286-.122l2.338-.109c.95 0 1.888-.11 2.837-.195a61.551 61.551 0 0 0 11.995-2.29 52.955 52.955 0 0 0 12.177-5.358 51.23 51.23 0 0 0 10.607-8.426 57.083 57.083 0 0 0 12.457-20.47c2.173-6.221-2.7-11.458-2.131-18.023.53-5.786 3.461-9.755 3.044-15.55Z" fill="#3D5CB6"/><path d="M650.843 554.845c-.146-4.871-2.326-11.337-4.335-16.391-1.717-4.311-5.2-12.019-7.574-14.357-6.698-6.637-20.702-14.722-37.653-21.274-23.137-8.913-44.008-11.921-49.659-7.525a5.634 5.634 0 0 1-2.947 1.157c-.523 0-.755.219-.755.572 0 0-14.259 45.056-18.265 62.348a36.278 36.278 0 0 0 4.7 27.399 9.072 9.072 0 0 1 1.51 4.103c1.132 10.375 2.435 28.325 2.155 39.637-.109 4.542 1.717 6.199 2.85 8.098-2.131.232-3.532.901-4.043 2.009-2.703 5.846 19.618 21.92 49.854 35.936 19.922 9.23 38.322 15.246 49.318 16.597a8.91 8.91 0 0 0 7.866-.109 3.524 3.524 0 0 0 2.436-1.717v-.146a8.916 8.916 0 0 0 2.435-5.797c1.681-34.303 2.436-118.205 2.107-130.54Z" fill="#F9B42F"/><path d="m592.026 590.95-.852.207-.402-.207h1.254Z" fill="#D65C8E"/><path d="M615.918 560.032s-26.4 80.602-42.426 76.827c-16.025-3.775 32.526 8.524 32.526 8.524l11.313 9.9 3.775-15.088.937-39.113 2.363-26.4-6.6-14.138-1.888-.512Z" fill="#F3A919"/><path d="M647.799 545.261c8.012 4.713 5.479 85.85 3.044 118.12-1.195 15.83-1.218 34.705-11.569 32.27-73.672-21.919-93.156-43.23-93.156-43.23l76.4-52.058 25.281-55.102Z" fill="#F3A919"/><path fill-rule="evenodd" clip-rule="evenodd" d="M632.08 554.133c7.294 1.374 12.092 8.4 10.719 15.693l-13.206-2.487c13.206 2.487 13.206 2.488 13.205 2.49l-.013.069-.034.182-.131.675c-.113.586-.279 1.434-.495 2.508a588.559 588.559 0 0 1-1.852 8.873c-1.583 7.315-3.849 17.151-6.555 27.091-2.674 9.823-5.91 20.245-9.508 28.505-1.773 4.073-3.899 8.243-6.448 11.664-2.066 2.774-6.727 8.268-14.32 9.08-3.019.323-7.272.116-11.234-.159-4.364-.302-9.746-.803-15.705-1.411-7.73-.79-16.701-1.791-25.995-2.828a6476.804 6476.804 0 0 0-15.124-1.677c-14.553-1.591-28.781-3.052-39.962-3.828-5.613-.389-10.217-.588-13.602-.569-1.703.01-2.87.074-3.587.151l-.1.011c-6.469 2.214-13.684-.809-16.571-7.162-3.069-6.757-.079-14.723 6.678-17.792 2.699-1.227 5.506-1.605 7.13-1.779 1.963-.211 4.12-.291 6.298-.304 4.375-.024 9.751.227 15.613.633 11.769.816 26.471 2.332 41.025 3.923 5.189.568 10.349 1.144 15.374 1.704 9.199 1.027 17.94 2.003 25.554 2.78 5.87.6 10.909 1.065 14.834 1.337 1.206.084 2.27.147 3.195.19.648-1.128 1.427-2.674 2.307-4.695 2.812-6.456 5.646-15.389 8.217-24.834 2.539-9.327 4.694-18.67 6.22-25.717.76-3.514 1.359-6.434 1.767-8.468.204-1.016.359-1.81.463-2.344l.116-.602.028-.146.006-.033.001-.005v-.001c1.374-7.293 8.4-12.091 15.692-10.718Zm-36.317 79.733c0-.012.077-.106.233-.25-.154.189-.232.261-.233.25Zm-118.02 14.358a.793.793 0 0 1 .113-.021.876.876 0 0 1-.113.021Z" fill="#CB8591"/><path fill-rule="evenodd" clip-rule="evenodd" d="M632.371 552.664c8.105 1.533 13.432 9.347 11.898 17.452l-14.675-2.777a9795.936 9795.936 0 0 1 14.674 2.779l-.022.115-.057.3-.217 1.114c-.189.962-.466 2.35-.822 4.082a637.716 637.716 0 0 1-3.021 13.903c-2.537 11.072-6.152 25.448-10.317 37.665-2.662 7.807-11.149 11.979-18.956 9.317-7.808-2.662-11.979-11.149-9.317-18.956 3.664-10.75 7.009-23.943 9.474-34.698a604.69 604.69 0 0 0 2.877-13.24 470.583 470.583 0 0 0 .968-4.842l.048-.248.013-.069v-.001c1.534-8.104 9.348-13.43 17.452-11.896Zm-60.918-45.093c.337 8.242-6.071 15.196-14.312 15.533.071-.002.054.003-.061.038-.433.132-2.253.688-5.938 2.826-4.18 2.426-9.038 5.834-14.681 9.914a950.199 950.199 0 0 0-3.138 2.279c-9.898 7.202-22.328 16.248-33.515 20.57-7.695 2.972-16.342-.856-19.314-8.551-2.973-7.694.856-16.341 8.55-19.313 7.304-2.822 16.471-9.459 27.493-17.439l2.424-1.754c5.568-4.025 11.548-8.268 17.189-11.542 5.16-2.994 12.287-6.567 19.769-6.873 8.242-.338 15.197 6.07 15.534 14.312Z" fill="#F9B42F"/><path d="M593.89 522.636c6.725 0 12.177-4.493 12.177-10.034 0-5.542-5.452-10.034-12.177-10.034-6.726 0-12.178 4.492-12.178 10.034 0 5.541 5.452 10.034 12.178 10.034Z" fill="#CB8591"/><path fill-rule="evenodd" clip-rule="evenodd" d="M593.89 503.475c-6.397 0-11.27 4.242-11.27 9.127 0 4.884 4.873 9.127 11.27 9.127 6.396 0 11.27-4.243 11.27-9.127 0-4.885-4.874-9.127-11.27-9.127Zm-13.085 9.127c0-6.199 6.031-10.942 13.085-10.942 7.054 0 13.084 4.743 13.084 10.942s-6.03 10.941-13.084 10.941c-7.054 0-13.085-4.742-13.085-10.941Z" fill="#fff"/><path d="M592.904 483.79h1.924a36.657 36.657 0 0 0 7.964-.864v22.966a8.04 8.04 0 0 1-8.025 8.037h-1.851a8.027 8.027 0 0 1-8.013-8.037v-22.954c2.628.573 5.311.859 8.001.852Z" fill="#CB8591"/><path d="M602.816 489.246v6.624s-1.924-3.275-8.951-3.312c-7.026-.037-8.938 3.653-8.938 3.653v-7.976l17.889-.317v1.328Z" fill="#BC7785"/><path d="M617.211 379.183a15.27 15.27 0 0 0-7.313-10.074 33.236 33.236 0 0 0-11.989-4.422 37.664 37.664 0 0 0-12.67.131 55.932 55.932 0 0 0-12.215 3.494 56.83 56.83 0 0 0-11.187 6.082 41.672 41.672 0 0 0-9.124 8.691 33.233 33.233 0 0 0-6.802 23.541c.168 2.08.524 4.123.807 6.374.262 2.201.366 4.417.31 6.633a38.659 38.659 0 0 1-2.774 12.986c-3.297 8.298-9.222 14.969-14.111 21.904a25.99 25.99 0 0 0-4.94 11.413 17.908 17.908 0 0 0 .464 6.183 26.067 26.067 0 0 0 2.363 5.841 32.608 32.608 0 0 1 4.152 12.359c.208 2.157.167 4.33-.124 6.478a56.885 56.885 0 0 1-1.383 6.387 35.59 35.59 0 0 0 .892-12.792 31.728 31.728 0 0 0-4.537-11.863 27.22 27.22 0 0 1-2.699-6.065 19.4 19.4 0 0 1-.655-6.662 27.585 27.585 0 0 1 4.918-12.264c2.383-3.697 5.053-7.08 7.486-10.609a54.867 54.867 0 0 0 6.193-11.113 36.522 36.522 0 0 0 2.515-12.256 45.579 45.579 0 0 0-.339-6.289c-.275-2.043-.695-4.251-.876-6.474a36.796 36.796 0 0 1 1.35-13.172 34.728 34.728 0 0 1 6.123-11.792 42.963 42.963 0 0 1 9.637-9.034 52.786 52.786 0 0 1 11.693-6.133 56.819 56.819 0 0 1 12.668-3.326 37.761 37.761 0 0 1 13.11.217 33.955 33.955 0 0 1 12.03 5.044 18.776 18.776 0 0 1 4.664 4.58 12.655 12.655 0 0 1 2.363 6.002Zm26.609 41.221a55.978 55.978 0 0 0-11.618-5.143l.397-1.437a56.828 56.828 0 0 1 12.089 5.039 52.792 52.792 0 0 1 10.738 7.685 42.959 42.959 0 0 1 8.3 10.275 34.714 34.714 0 0 1 4.441 12.523 36.784 36.784 0 0 1-.477 13.233c-.485 2.176-1.205 4.305-1.758 6.291a45.42 45.42 0 0 0-1.202 6.182 36.509 36.509 0 0 0 .803 12.486 54.805 54.805 0 0 0 4.604 11.86c1.923 3.83 4.102 7.549 5.953 11.539a27.584 27.584 0 0 1 3.182 12.824 19.4 19.4 0 0 1-1.566 6.508 27.196 27.196 0 0 1-3.508 5.636 31.723 31.723 0 0 0-6.128 11.125 35.57 35.57 0 0 0-.877 12.793 56.608 56.608 0 0 1-.491-6.517c.007-2.167.266-4.325.769-6.433a32.614 32.614 0 0 1 5.814-11.669 26.104 26.104 0 0 0 3.146-5.46 17.931 17.931 0 0 0 1.31-6.061 25.998 25.998 0 0 0-3.321-11.984c-3.887-7.542-8.837-14.966-10.96-23.639a38.676 38.676 0 0 1-.96-13.244 46.517 46.517 0 0 1 1.221-6.527c.591-2.191 1.224-4.165 1.678-6.202a33.237 33.237 0 0 0-3.496-24.254 41.71 41.71 0 0 0-7.84-9.864 56.797 56.797 0 0 0-10.243-7.565Z" fill="#2C2A46"/><path d="M625.893 457.772s-3.288-15.83 5.248-19.106c8.537-3.276 10.558 8.524 6.479 13.968-4.08 5.443-11.727 5.138-11.727 5.138Z" fill="#CB8591"/><path d="M573.497 450.112c.426-11.467-5.184-20.985-12.531-21.258-7.347-.273-13.649 8.801-14.076 20.269-.426 11.467 5.184 20.985 12.531 21.258 7.347.273 13.649-8.801 14.076-20.269Z" fill="#E5EEFE"/><path d="M555.689 413.028V452.3a37.12 37.12 0 0 0 37.214 36.8h1.924a37.18 37.18 0 0 0 37.226-36.8v-39.272a37.033 37.033 0 0 0-37.226-36.812h-1.973a37.01 37.01 0 0 0-37.165 36.812Z" fill="#CB8591"/><path d="m560.312 380.558 3.33 2.026 8.222 3.345 9.042-13.585 49.236 13.506s41.378 54.373 7.133 52.535c.821 5.906-1.578 20.417-1.578 20.417.395-3.141-2.193-18.077-3.156-20.417-38.742-1.193-61.861-14.135-68.268-30.107-6.754 10.161-5.144 17.276-14.549 22.145l-1.878-6.848c-2.368-12.297 3.803-33.327 12.466-43.017Z" fill="#2C2A46"/><path d="m636.882 426.991 7.872-11.216-4.723-19.227-1.574-9.614-7.872-8.011-11.02-8.011-14.17-4.807-18.892 4.807-12.595 4.806-9.446 8.012-1.574 16.023-2.157 3.733 76.151 23.505Z" fill="#2C2A46"/><path d="M564.384 397.766c.46 3.223 1.202 6.4 2.219 9.496a56.607 56.607 0 0 0 3.754 9.085 44.16 44.16 0 0 0 5.425 8.313 39.226 39.226 0 0 0 3.45 3.624 121.4 121.4 0 0 0 1.962 1.607c.329.266.646.544 1 .785l1.073.677a52.878 52.878 0 0 0 18.687 6.778c3.25.574 6.538.909 9.838 1.003 3.283.113 6.57-.052 9.825-.496a96.671 96.671 0 0 1-19.26-2.416 70.432 70.432 0 0 1-9.18-2.743c-.755-.265-1.475-.592-2.218-.906-.744-.314-1.475-.592-2.17-.966l-2.133-1.063c-.695-.375-1.317-.822-1.987-1.209l-1-.604c-.317-.217-.61-.471-.914-.713l-1.878-1.534c-1.109-1.111-2.279-2.15-3.279-3.371a48.355 48.355 0 0 1-5.485-7.756 71.455 71.455 0 0 1-4.34-8.566 92.706 92.706 0 0 1-3.389-9.025Z" fill="#2C2A46"/><path d="M586.407 379.712c.723 0 1.459-.066 2.194-.066 23.922 0 44.807 21.567 46.386 45.342.067.963.281 5.646.281 6.609l-7.385 1.338a45.019 45.019 0 0 0-45.048-45.061l-11.426-4.108a38.918 38.918 0 0 1 14.998-4.054Zm2.904 108.479c3.133 0 5.672-1.935 5.672-4.322 0-2.386-2.539-4.321-5.672-4.321-3.133 0-5.673 1.935-5.673 4.321 0 2.387 2.54 4.322 5.673 4.322Z" fill="#ACB8D6"/><path fill-rule="evenodd" clip-rule="evenodd" d="M619.357 471.548c4.368-6.199 5.034-13.174 5.034-16.15h2.435c0 3.233-.706 10.781-5.479 17.553-4.827 6.85-13.678 12.711-29.561 12.711v-2.435c15.196 0 23.257-5.558 27.571-11.679Z" fill="#ACB8D6"/><path d="M643.493 449.879c.697-11.454-4.688-21.102-12.026-21.548-7.339-.446-13.853 8.478-14.549 19.932-.697 11.454 4.688 21.101 12.026 21.547 7.339.447 13.853-8.477 14.549-19.931Z" fill="#E5EEFE"/><path d="m849.866 599.899-3.373-18.83h-41.62l-3.383 18.83h48.376Z" fill="#DEE8EC"/><path d="M689.82 549.981h271.715v24.263a6.825 6.825 0 0 1-6.825 6.825H696.645a6.825 6.825 0 0 1-6.825-6.825v-24.263Z" fill="#E7EEF1"/><path d="M954.054 400.351H697.302a7.483 7.483 0 0 0-7.482 7.482v142.148h271.715V407.833a7.481 7.481 0 0 0-7.481-7.482Z" fill="#2C2A46"/><path d="M951.446 410.093H699.562v131.87h251.884v-131.87Z" fill="#F5F8F9"/><path d="M796.078 598.841h59.668v3.653h-59.668v-3.653Z" fill="#E7EEF1"/><path d="M951.632 410.093h-252.07V542.06h252.07V410.093Z" fill="#F5F8F9"/><path fill-rule="evenodd" clip-rule="evenodd" d="M951.632 533.266h-252.07v-.365h252.07v.365Z" fill="#DEE8EC"/><g filter="url(#webhook__e)"><path d="M699.562 425.924h252.07v13.395h-252.07v-13.395Z" fill="#fff"/></g><path fill-rule="evenodd" clip-rule="evenodd" d="M704.433 433.23c0-.672.545-1.217 1.218-1.217h36.531a1.217 1.217 0 1 1 0 2.435h-36.531a1.218 1.218 0 0 1-1.218-1.218Z" fill="#8CA0B3"/><path fill-rule="evenodd" clip-rule="evenodd" d="M924.612 429.942h-15.357c-.605 0-1.096.491-1.096 1.096v3.167c0 .605.491 1.095 1.096 1.095h15.357c.605 0 1.096-.49 1.096-1.095v-3.167c0-.605-.491-1.096-1.096-1.096Zm-15.357-.365a1.46 1.46 0 0 0-1.461 1.461v3.167a1.46 1.46 0 0 0 1.461 1.461h15.357a1.46 1.46 0 0 0 1.461-1.461v-3.167a1.46 1.46 0 0 0-1.461-1.461h-15.357Z" fill="#2CC3D5"/><path d="M928.481 431.038c0-.807.655-1.461 1.462-1.461H945.3a1.46 1.46 0 0 1 1.461 1.461v3.167a1.46 1.46 0 0 1-1.461 1.461h-15.357a1.462 1.462 0 0 1-1.462-1.461v-3.167Z" fill="#2CC3D5"/><path d="m904.398 434.464-.795-.794a1.958 1.958 0 1 0-.311.287l.806.806c.02.019.043.035.069.046a.202.202 0 0 0 .081.016.205.205 0 0 0 .149-.062.214.214 0 0 0 .001-.299Zm-3.806-2.085a1.54 1.54 0 0 1 1.839-1.509 1.543 1.543 0 0 1 1.208 1.209 1.537 1.537 0 0 1-2.596 1.387 1.54 1.54 0 0 1-.452-1.087h.001Z" fill="#738192"/><path d="M699.562 410.093h252.07v16.805h-252.07v-16.805Z" fill="#202C44"/><path d="M706.284 415.135a1.68 1.68 0 0 1 1.68-1.681h42.852c.928 0 1.681.753 1.681 1.681v5.881a1.68 1.68 0 0 1-1.681 1.681h-42.852a1.68 1.68 0 0 1-1.68-1.681v-5.881Z" fill="#2D3443"/><path d="M747.035 418.74a.289.289 0 0 1-.188-.069l-1.196-1.004a.146.146 0 0 1 .082-.254.141.141 0 0 1 .105.031l1.197 1.004 1.197-1.003a.14.14 0 0 1 .05-.033.136.136 0 0 1 .06-.011.137.137 0 0 1 .106.052.144.144 0 0 1 .029.053c.006.02.007.04.004.06a.126.126 0 0 1-.02.057.136.136 0 0 1-.042.044l-1.196 1.004a.289.289 0 0 1-.188.069Z" fill="#8CA0B3"/><path d="M714.686 418.076a2.94 2.94 0 1 1-5.881 0 2.94 2.94 0 1 1 5.881 0Z" fill="#2CC3D5"/><path fill-rule="evenodd" clip-rule="evenodd" d="M716.787 416.815a.42.42 0 0 1 .42-.42h13.024a.42.42 0 1 1 0 .84h-13.024a.42.42 0 0 1-.42-.42Zm-.42 2.941a.84.84 0 0 1 .84-.84h15.964a.84.84 0 1 1 0 1.68h-15.964a.84.84 0 0 1-.84-.84Z" fill="#8CA0B3"/><path fill-rule="evenodd" clip-rule="evenodd" d="M755.858 418.496a.84.84 0 0 1 .84-.841h7.562a.84.84 0 0 1 0 1.681h-7.562a.84.84 0 0 1-.84-.84Z" fill="#2CC3D5"/><path fill-rule="evenodd" clip-rule="evenodd" d="M768.132 418.617a.84.84 0 0 1 .841-.84h9.741a.84.84 0 1 1 0 1.681h-9.741a.842.842 0 0 1-.841-.841Z" fill="#8CA0B3"/><path d="M824.648 417.599c-.098-.5-.454-.849-.975-.957a3.544 3.544 0 0 0-.704-.068c-.312 0-.749.04-1.062.234-.525.325-.586.969-.575 1.324.011.354.098.853.437 1.204.282.293.832.432 1.245.443v.364a.161.161 0 0 0 .046.112.163.163 0 0 0 .112.046h.014a.161.161 0 0 0 .088-.037c.162-.137.374-.324.581-.517l.092-.084c.165-.141.315-.3.446-.473.28-.398.376-.993.255-1.591Z" fill="#2CC3D5"/><path fill-rule="evenodd" clip-rule="evenodd" d="M825.683 418.436c0-.34.275-.615.615-.615h4.512a.615.615 0 1 1 0 1.23h-4.512a.615.615 0 0 1-.615-.615Z" fill="#F5F8F9"/><path d="M912.065 419.476c-.109-.132-.237-.316-.254-.379-.031-.118-.047-.56-.05-.809a1.378 1.378 0 0 0-.326-.887 1.384 1.384 0 0 0-.822-.466v-.056a.284.284 0 0 0-.082-.198.28.28 0 0 0-.478.198v.056a1.373 1.373 0 0 0-1.147 1.351c0 .251-.019.693-.05.811-.016.063-.144.247-.254.379a.176.176 0 0 0 .136.287h1.037v.007c0 .299.235.516.56.516.325 0 .56-.217.56-.516v-.007h1.036a.175.175 0 0 0 .134-.287Zm-1.52.294c0 .159-.175.167-.21.167s-.21-.008-.21-.167v-.007h.42v.007Zm-1.462-.357a.89.89 0 0 0 .111-.225c.051-.195.06-.782.061-.899.001-.271.109-.531.3-.723.192-.191.452-.299.723-.3h.111a1.028 1.028 0 0 1 1.023 1.025c0 .115.01.7.061.897.027.08.064.156.112.225h-2.502Z" fill="#8CA0B3"/><path d="M921.237 418.496a2.52 2.52 0 1 1-5.04 0 2.52 2.52 0 0 1 5.04 0Z" fill="#B97CE8"/><path d="M944.344 418.74a.294.294 0 0 1-.188-.069l-1.196-1.004a.144.144 0 0 1-.048-.098.145.145 0 0 1 .13-.156.146.146 0 0 1 .105.03l1.197 1.005 1.197-1.003a.143.143 0 0 1 .168-.03.147.147 0 0 1 .077.091.151.151 0 0 1-.016.117.16.16 0 0 1-.042.044l-1.196 1.004a.294.294 0 0 1-.188.069Z" fill="#8CA0B3"/><path fill-rule="evenodd" clip-rule="evenodd" d="M922.918 418.496a.84.84 0 0 1 .84-.841h15.965a.84.84 0 0 1 0 1.681h-15.965a.84.84 0 0 1-.84-.84Z" fill="#8CA0B3"/><g filter="url(#webhook__f)"><path d="M810.872 454.48v26.795a4.201 4.201 0 0 0 4.202 4.201H836.8a4.201 4.201 0 0 0 4.202-4.201V454.48a4.201 4.201 0 0 0-4.202-4.201h-21.726a4.201 4.201 0 0 0-4.202 4.201Z" fill="#fff"/><path d="M825.928 468.688a5.674 5.674 0 1 0 0-11.349 5.674 5.674 0 0 0 0 11.349Z" fill="#B97CE8"/><path fill-rule="evenodd" clip-rule="evenodd" d="M818.564 473.548c0-.637.517-1.153 1.154-1.153h12.431a1.153 1.153 0 1 1 0 2.306h-12.431a1.154 1.154 0 0 1-1.154-1.153Zm2.14 4.868c0-.637.516-1.153 1.153-1.153H830a1.153 1.153 0 1 1 0 2.306h-8.143a1.153 1.153 0 0 1-1.153-1.153Z" fill="#D2DFE6"/><path d="M772.874 454.48v26.795a4.201 4.201 0 0 0 4.202 4.201h21.726a4.201 4.201 0 0 0 4.202-4.201V454.48a4.201 4.201 0 0 0-4.202-4.201h-21.726a4.201 4.201 0 0 0-4.202 4.201Z" fill="#fff"/><path d="M787.93 468.688a5.674 5.674 0 1 0 0-11.349 5.674 5.674 0 0 0 0 11.349Z" fill="#517BF2"/><path fill-rule="evenodd" clip-rule="evenodd" d="M780.566 473.548c0-.637.517-1.153 1.154-1.153h12.431a1.153 1.153 0 1 1 0 2.306H781.72a1.154 1.154 0 0 1-1.154-1.153Zm2.14 4.868c0-.637.516-1.153 1.153-1.153h8.143a1.153 1.153 0 1 1 0 2.306h-8.143a1.153 1.153 0 0 1-1.153-1.153Z" fill="#D2DFE6"/><path d="M734.876 454.48v26.795a4.201 4.201 0 0 0 4.201 4.201h21.727a4.201 4.201 0 0 0 4.202-4.201V454.48a4.201 4.201 0 0 0-4.202-4.201h-21.727a4.201 4.201 0 0 0-4.201 4.201Z" fill="#fff"/><path d="M749.933 468.688a5.675 5.675 0 1 0-.002-11.35 5.675 5.675 0 0 0 .002 11.35Z" fill="#BED42B"/><path fill-rule="evenodd" clip-rule="evenodd" d="M742.568 473.548c0-.637.517-1.153 1.153-1.153h12.432a1.153 1.153 0 1 1 0 2.306h-12.432a1.153 1.153 0 0 1-1.153-1.153Zm2.14 4.869c0-.637.517-1.154 1.153-1.154h8.143a1.154 1.154 0 0 1 0 2.307h-8.143a1.154 1.154 0 0 1-1.153-1.153Z" fill="#D2DFE6"/><path d="M886.868 454.48v26.795a4.201 4.201 0 0 0 4.202 4.201h21.727a4.201 4.201 0 0 0 4.201-4.201V454.48a4.201 4.201 0 0 0-4.201-4.201H891.07a4.201 4.201 0 0 0-4.202 4.201Z" fill="#fff"/><path d="M901.924 468.688a5.675 5.675 0 1 0 0-11.35 5.675 5.675 0 0 0 0 11.35Z" fill="#F66689"/><path fill-rule="evenodd" clip-rule="evenodd" d="M894.561 473.548c0-.637.516-1.153 1.153-1.153h12.431a1.153 1.153 0 1 1 0 2.306h-12.431a1.153 1.153 0 0 1-1.153-1.153Zm2.139 4.868c0-.637.516-1.153 1.153-1.153h8.143a1.154 1.154 0 1 1 0 2.306h-8.143a1.153 1.153 0 0 1-1.153-1.153Z" fill="#D2DFE6"/><path d="M848.87 454.48v26.795a4.201 4.201 0 0 0 4.202 4.201h21.726a4.201 4.201 0 0 0 4.202-4.201V454.48a4.201 4.201 0 0 0-4.202-4.201h-21.726a4.201 4.201 0 0 0-4.202 4.201Z" fill="#fff"/><path d="M863.927 468.688a5.675 5.675 0 1 0-.002-11.35 5.675 5.675 0 0 0 .002 11.35Z" fill="#F9B42F"/><path fill-rule="evenodd" clip-rule="evenodd" d="M856.562 473.548c0-.637.517-1.153 1.154-1.153h12.431a1.153 1.153 0 1 1 0 2.306h-12.431a1.154 1.154 0 0 1-1.154-1.153Zm2.14 4.869c0-.637.517-1.154 1.153-1.154h8.144a1.154 1.154 0 0 1 0 2.307h-8.144a1.154 1.154 0 0 1-1.153-1.153Z" fill="#D2DFE6"/></g><g filter="url(#webhook__g)"><path d="M810.872 493.564v26.794a4.202 4.202 0 0 0 4.202 4.202H836.8a4.202 4.202 0 0 0 4.202-4.202v-26.794a4.202 4.202 0 0 0-4.202-4.202h-21.726a4.202 4.202 0 0 0-4.202 4.202Z" fill="#fff"/><path d="M825.928 507.771a5.674 5.674 0 1 0 0-11.348 5.674 5.674 0 0 0 0 11.348Z" fill="#F99B45"/><path fill-rule="evenodd" clip-rule="evenodd" d="M818.564 512.631c0-.637.517-1.153 1.154-1.153h12.431a1.153 1.153 0 1 1 0 2.306h-12.431a1.154 1.154 0 0 1-1.154-1.153Zm2.14 4.869c0-.637.516-1.153 1.153-1.153H830a1.153 1.153 0 1 1 0 2.306h-8.143a1.153 1.153 0 0 1-1.153-1.153Z" fill="#D2DFE6"/><path d="M772.874 493.564v26.794a4.202 4.202 0 0 0 4.202 4.202h21.726a4.202 4.202 0 0 0 4.202-4.202v-26.794a4.202 4.202 0 0 0-4.202-4.202h-21.726a4.202 4.202 0 0 0-4.202 4.202Z" fill="#fff"/><path d="M787.93 507.771a5.674 5.674 0 1 0 0-11.348 5.674 5.674 0 0 0 0 11.348Z" fill="#2CC3D5"/><path fill-rule="evenodd" clip-rule="evenodd" d="M780.566 512.631c0-.637.517-1.153 1.154-1.153h12.431a1.153 1.153 0 1 1 0 2.306H781.72a1.154 1.154 0 0 1-1.154-1.153Zm2.14 4.869c0-.637.516-1.153 1.153-1.153h8.143a1.153 1.153 0 1 1 0 2.306h-8.143a1.153 1.153 0 0 1-1.153-1.153Z" fill="#D2DFE6"/><path d="M734.876 493.564v26.795a4.201 4.201 0 0 0 4.201 4.201h21.727a4.201 4.201 0 0 0 4.202-4.201v-26.795a4.201 4.201 0 0 0-4.202-4.201h-21.727a4.201 4.201 0 0 0-4.201 4.201Z" fill="#fff"/><path d="M749.933 507.771a5.674 5.674 0 1 0 0-11.348 5.674 5.674 0 0 0 0 11.348Z" fill="#CF5358"/><path fill-rule="evenodd" clip-rule="evenodd" d="M742.568 512.632c0-.637.517-1.153 1.153-1.153h12.432a1.153 1.153 0 1 1 0 2.306h-12.432a1.153 1.153 0 0 1-1.153-1.153Zm2.14 4.868c0-.637.516-1.153 1.153-1.153h8.143a1.153 1.153 0 1 1 0 2.306h-8.143a1.153 1.153 0 0 1-1.153-1.153Z" fill="#D2DFE6"/><path d="M886.868 493.564v26.794a4.202 4.202 0 0 0 4.202 4.202h21.726a4.202 4.202 0 0 0 4.202-4.202v-26.794a4.202 4.202 0 0 0-4.202-4.202H891.07a4.202 4.202 0 0 0-4.202 4.202Z" fill="#fff"/><path d="M901.924 507.771a5.674 5.674 0 1 0 0-11.348 5.674 5.674 0 0 0 0 11.348Z" fill="#4AA86C"/><path fill-rule="evenodd" clip-rule="evenodd" d="M894.561 512.631c0-.637.516-1.153 1.153-1.153h12.431a1.153 1.153 0 1 1 0 2.306h-12.431a1.153 1.153 0 0 1-1.153-1.153Zm2.139 4.869c0-.637.516-1.153 1.153-1.153h8.143a1.153 1.153 0 1 1 0 2.306h-8.143a1.153 1.153 0 0 1-1.153-1.153Z" fill="#D2DFE6"/><path d="M848.87 493.564v26.795a4.201 4.201 0 0 0 4.202 4.201h21.726a4.201 4.201 0 0 0 4.202-4.201v-26.795a4.201 4.201 0 0 0-4.202-4.201h-21.726a4.201 4.201 0 0 0-4.202 4.201Z" fill="#fff"/><path d="M863.927 507.772a5.675 5.675 0 1 0-.002-11.35 5.675 5.675 0 0 0 .002 11.35Z" fill="#55CFFF"/><path fill-rule="evenodd" clip-rule="evenodd" d="M856.562 512.632c0-.637.517-1.153 1.154-1.153h12.431a1.153 1.153 0 1 1 0 2.306h-12.431a1.154 1.154 0 0 1-1.154-1.153Zm2.14 4.868c0-.637.517-1.153 1.153-1.153h8.144a1.153 1.153 0 0 1 0 2.306h-8.144a1.153 1.153 0 0 1-1.153-1.153Z" fill="#D2DFE6"/></g><g filter="url(#webhook__h)"><path d="M944.325 529.431a6.089 6.089 0 1 1-12.177-.001 6.089 6.089 0 0 1 12.177.001Z" fill="#2CC3D5"/></g><path d="M940.498 528.221v.001c.172.852.031 1.685-.35 2.231a4.325 4.325 0 0 1-.637.674l-.005.004-.136.125-.001.001a24.01 24.01 0 0 1-.857.761l-.002.002a.064.064 0 0 1-.03.014h-.014a.075.075 0 0 1-.026-.005.107.107 0 0 1-.022-.015.064.064 0 0 1-.014-.022.058.058 0 0 1-.005-.026v-.703l-.161-.004a3.446 3.446 0 0 1-.951-.163c-.319-.104-.599-.253-.782-.443v-.001c-.462-.477-.587-1.166-.603-1.678-.016-.52.078-1.388.775-1.819.424-.263 1.032-.324 1.489-.324h.001c.339-.001.679.032 1.012.098.712.148 1.186.619 1.319 1.292Z" stroke="#F8FBFB" stroke-width=".33"/><path d="M1008.39 541.509c-8.16 2.786-11.505 6.124-13.013 8.863a8.76 8.76 0 0 0-.967-3.925c-1.151-2.359-3.349-3.453-5.502-2.831-3.648.414-9.208-1.83-4.914-6.296 3.222-3.453 8.701-4.294 6.756-10.682-1.151-3.901 5.755-4.604 9.63-4.431l-.05-.621c-5.321-.265-15.565 0-12.043 4.005 4.753 5.467-1.98 7.827-6.02 10.9-1.611-4.788-4.535-5.249-8.955-6.423l-.184.875c2.429.645 6.515 2.13 7.608 6.906-3.959 4.397-.541 8.057 4.132 8.494-1.876 2.487-2.566 5.709-4.466 8.242-.391.529-.586.587-.586.587-1.531-.449-3.028-13.548-12.42-7.724l.76 1.209c8.46-5.249 8.195 7.907 11.51 7.93 4.259 0 5.686-7.815 10.06-7.999 2.302-.092 3.74 4.143-1.646 9.208-7.194 4.984-.956 15.239-1.566 20.718l4.19-.357c.76-6.791-9.565-17.023 1.001-20.58a5.084 5.084 0 0 0 3.096-1.887 8.134 8.134 0 0 0 .633-1.669c.829-2.763 2.072-8.23 13.286-12.063l-.33-.449Z" fill="#98646D"/><path d="M970.273 580.47c13.202-7.251 20.868-9.208 37.457.415l-37.457-.415Z" fill="#98646D"/><path d="M952.261 553.951c-2.026 1.784-1.784 9.036 4.155 6.906 5.594 4.167 14.756-6.653 11.659-8.057-3.096-1.404-2.739-2.302-1.312-3.338 1.428-1.036 2.498 3.096 5.111 1.071 2.612-2.026 5.122-4.604 1.151-4.996 0 0-2.302-7.723-6.665-.471.047-.035-15.135-2.774-14.099 8.885Z" fill="#BED42B"/><path d="M965.693 543.73c-1.427 1.059-5.11-1.07-3.683-2.382 1.427-1.312 3.925 1.07 3.683 2.382Zm7.401 7.401c1.151.864.38 4.248-.978 3.453-1.358-.794-.092-3.361.978-3.453Zm34.886-6.088c.77 1.611-2.03 4.822-3.04 3.165-1.01-1.657 1.8-3.637 3.04-3.165Z" fill="#BED42B"/><path d="M1005.89 542.89c-2.31 1.232-7.589.564-3.69-4.04-2.737-1.542-1.07-5.755 3.8-4.753-1.3-2.74 2.63-6.308 6.42-2.855 8.21-3.211 12.38 8.679 5.83 12.661 1.91.829 4.88 6.423-2.73 6.538 1.78 2.302-9.52 6.906-6.42-2.74 0-.023 2.49-5.167-3.21-4.811Zm8.87-39.237c1.01.806.2 3.821-1 3.062-1.2-.76.03-2.993 1-3.062Zm-32.125 8.713c-1.473 1.462-6.088-.368-4.603-2.106 1.484-1.738 4.661.587 4.603 2.106Zm20.245 14.71c-1.36.46-3.648-2.049-2.3-2.693 1.35-.645 2.8 1.761 2.3 2.693Zm-6.203 3.154c-2.003-.507-2.774-5.352-.552-5.007 2.221.345 1.899 4.282.552 5.007Z" fill="#BED42B"/><path d="M987.93 521.01c6.066 1.911 9.392 4.408 14.15 1.554 0 0 10.23 4.984 12.01.115 0 0 6.91-2.97 5.35-8.207-1.55-5.237-10.23-11.061-19.505-4.995 0 0-2.728-5.225-10.221-2.728-7.493 2.498-5.111 7.965-5.111 7.965s-11.843-2.003-10.589 2.728c.484 1.784 3.81-.357 3.81-.357s-2.383 7.493 3.81 7.378c6.192-.115 6.296-3.453 6.296-3.453Z" fill="#BED42B"/><path d="M1010.16 577.489c0 1.393 0 2.705-.06 3.971 0 1.001-.08 1.968-.16 2.9a32.639 32.639 0 0 1-6.77 18.094h-29.754c-3.522-6.181-5.605-11.314-5.295-18.094 0-.932.127-1.899.265-2.9s.357-2.302.633-3.557l41.141-.414Z" fill="#F99B45"/><path d="M1010.1 581.46c0 1.002-.08 1.969-.16 2.901h-41.819c0-.932.127-1.899.265-2.901h41.714Z" fill="#FA7E25"/><path d="M952.606 533.74c-4.028 1.301-6.319-1.588-6.25-3.729 0 0-4.972-1.612-.656-6.181 4.316-4.57 7.136-4.052 8.149-3.948 1.013.104 5.122-3.798 8.748-1.945a6.404 6.404 0 0 1 3.683 5.237s10.439-1.404 11.659 4.086c1.336 5.755-8.828 6.227-9.023 5.755-.173 3.718-12.281 6.158-11.142-.161-3.844 6.157-5.168.886-5.168.886Zm-23.031-28.749c-1.416 1.082-5.122-1.036-3.695-2.302 1.428-1.266 3.925.99 3.695 2.302Zm2.359 12.108c-1.496 3.004-9.565 4.213-8.264.886 1.301-3.326 7.551-2.9 8.264-.886Z" fill="#BED42B"/><path d="M982.498 528.114a3.455 3.455 0 0 1-3.453 1.427c-1.508-.184-2.406-1.151-1.991-2.095a3.456 3.456 0 0 1 3.453-1.427c1.508.207 2.405 1.128 1.991 2.095Zm-21.018-20.511c-1.001 2.717-7.849 3.085-7.055 0 .794-3.084 6.238-1.979 7.055 0Zm-12.039 25.702c-.218 2.014-4.535 4.409-4.5 2.245.034-2.164 3.66-3.235 4.5-2.245Z" fill="#BED42B"/><defs><filter id="webhook__a" x="419.553" y="966.125" width="190.778" height="53.469" filterUnits="userSpaceOnUse" color-interpolation-filters="sRGB"><feFlood flood-opacity="0" result="BackgroundImageFix"/><feBlend in="SourceGraphic" in2="BackgroundImageFix" result="shape"/><feGaussianBlur stdDeviation="7" result="effect1_foregroundBlur_10272_1594"/></filter><filter id="webhook__e" x="686.366" y="414.927" width="278.462" height="39.788" filterUnits="userSpaceOnUse" color-interpolation-filters="sRGB"><feFlood flood-opacity="0" result="BackgroundImageFix"/><feColorMatrix in="SourceAlpha" values="0 0 0 0 0 0 0 0 0 0 0 0 0 0 0 0 0 0 127 0" result="hardAlpha"/><feOffset dy="2.199"/><feGaussianBlur stdDeviation="6.598"/><feColorMatrix values="0 0 0 0 0.374547 0 0 0 0 0.481553 0 0 0 0 0.601935 0 0 0 0.15 0"/><feBlend in2="BackgroundImageFix" result="effect1_dropShadow_10272_1594"/><feBlend in="SourceGraphic" in2="effect1_dropShadow_10272_1594" result="shape"/></filter><filter id="webhook__f" x="730.954" y="447.337" width="189.965" height="43.041" filterUnits="userSpaceOnUse" color-interpolation-filters="sRGB"><feFlood flood-opacity="0" result="BackgroundImageFix"/><feColorMatrix in="SourceAlpha" values="0 0 0 0 0 0 0 0 0 0 0 0 0 0 0 0 0 0 127 0" result="hardAlpha"/><feOffset dy=".98"/><feGaussianBlur stdDeviation="1.961"/><feColorMatrix values="0 0 0 0 0.374547 0 0 0 0 0.481553 0 0 0 0 0.601935 0 0 0 0.15 0"/><feBlend in2="BackgroundImageFix" result="effect1_dropShadow_10272_1594"/><feBlend in="SourceGraphic" in2="effect1_dropShadow_10272_1594" result="shape"/></filter><filter id="webhook__g" x="730.954" y="486.421" width="189.965" height="43.041" filterUnits="userSpaceOnUse" color-interpolation-filters="sRGB"><feFlood flood-opacity="0" result="BackgroundImageFix"/><feColorMatrix in="SourceAlpha" values="0 0 0 0 0 0 0 0 0 0 0 0 0 0 0 0 0 0 127 0" result="hardAlpha"/><feOffset dy=".98"/><feGaussianBlur stdDeviation="1.961"/><feColorMatrix values="0 0 0 0 0.374547 0 0 0 0 0.481553 0 0 0 0 0.601935 0 0 0 0.15 0"/><feBlend in2="BackgroundImageFix" result="effect1_dropShadow_10272_1594"/><feBlend in="SourceGraphic" in2="effect1_dropShadow_10272_1594" result="shape"/></filter><filter id="webhook__h" x="926.65" y="517.844" width="23.174" height="23.174" filterUnits="userSpaceOnUse" color-interpolation-filters="sRGB"><feFlood flood-opacity="0" result="BackgroundImageFix"/><feColorMatrix in="SourceAlpha" values="0 0 0 0 0 0 0 0 0 0 0 0 0 0 0 0 0 0 127 0" result="hardAlpha"/><feOffset/><feGaussianBlur stdDeviation="2.749"/><feColorMatrix values="0 0 0 0 0.374547 0 0 0 0 0.481553 0 0 0 0 0.601935 0 0 0 0.3 0"/><feBlend in2="BackgroundImageFix" result="effect1_dropShadow_10272_1594"/><feBlend in="SourceGraphic" in2="effect1_dropShadow_10272_1594" result="shape"/></filter></defs></svg>