<svg xmlns="http://www.w3.org/2000/svg" width="1080" height="1080" fill="none"><path fill="#B2DFFD" d="M668.3 27.608c-206.076 0-373.133 167.057-373.133 373.133S462.224 773.874 668.3 773.874c206.075 0 373.13-167.057 373.13-373.133S874.375 27.608 668.3 27.608"/><g filter="url(#a)" opacity=".1"><path fill="#0A0F1A" d="M966.325 762.32c0 19.858-110.537 35.955-246.891 35.955s-246.891-16.097-246.891-35.955 110.537-35.955 246.891-35.955 246.891 16.098 246.891 35.955"/></g><path fill="#0096FA" d="M497.291 191.782h-19.81c-3.962 0-7.075-3.115-7.075-7.081v-31.014c0-3.965 3.113-7.081 7.075-7.081h19.81c3.962 0 7.075 3.116 7.075 7.081v31.014c0 3.966-3.113 7.081-7.075 7.081M497.291 288.081h-19.81c-3.962 0-7.075-3.115-7.075-7.08v-63.303c0-3.965 3.113-7.081 7.075-7.081h19.81c3.962 0 7.075 3.116 7.075 7.081v63.303c0 3.965-3.113 7.08-7.075 7.08M845.948 330.426h-19.81c-3.962 0-7.075-3.116-7.075-7.081v-63.303c0-3.965 3.113-7.081 7.075-7.081h19.81c3.962 0 7.075 3.116 7.075 7.081v63.303c0 3.965-3.255 7.081-7.075 7.081"/><path fill="url(#b)" d="M783.264 773.828h-243.38c-26.177 0-47.402-21.242-47.402-47.441V91.093c0-26.2 21.225-47.442 47.402-47.442h243.38c26.177 0 47.402 21.243 47.402 47.442v635.294c-.141 26.199-21.225 47.441-47.402 47.441"/><path fill="url(#c)" d="M488.201 78.013c0-19.012 14.429-34.425 32.228-34.425h288.702c17.799 0 32.228 15.413 32.228 34.425V89.93H488.201z"/><path fill="#fff" d="m811.698 108.89 5.145-5.163a.824.824 0 0 0-.604-1.339.82.82 0 0 0-.561.183l-5.148 5.149-5.148-5.149a.84.84 0 0 0-.597-.309.82.82 0 0 0-.629.238.824.824 0 0 0 .061 1.227l5.145 5.153-5.145 5.162a.82.82 0 0 0-.176.898.825.825 0 0 0 1.075.447.8.8 0 0 0 .266-.179l5.148-5.153 5.148 5.153a.8.8 0 0 0 .581.241.825.825 0 0 0 .584-1.407zM512.962 114.069a.57.57 0 0 1-.435-.206l-3.975-4.739a1.155 1.155 0 0 1 0-1.489l3.975-4.74a.579.579 0 0 1 .885.742l-3.976 4.742 3.969 4.742a.576.576 0 0 1-.443.948"/><path fill="#0096FA" d="M831.915 86.734H493.319v47.562h338.596z"/><path fill="#2C2A46" fill-rule="evenodd" d="M539.075 124.793a14.855 14.855 0 0 0 13.714-9.182 14.87 14.87 0 0 0-3.221-16.196 14.844 14.844 0 0 0-22.849 2.247 14.87 14.87 0 0 0-2.508 8.255 14.92 14.92 0 0 0 4.363 10.51 14.9 14.9 0 0 0 10.501 4.366" clip-rule="evenodd"/><g clip-path="url(#d)"><path fill="#0096FA" fill-rule="evenodd" d="M543.162 116.916c-1.15.138-2.451.183-3.904.183s-2.754-.045-3.904-.183l-.001.001-1.976 2.862a.56.56 0 0 1-.457.239.55.55 0 0 1-.452-.229 19.4 19.4 0 0 1-2.829-5.647 18 18 0 0 1-.614-2.759 16 16 0 0 1-.181-2.529c0-7.437 4.238-9.82 10.414-9.82 6.168 0 10.403 2.377 10.414 9.79v.106a16 16 0 0 1-.16 2.327c-.483 3.601-1.988 6.489-3.463 8.532a.558.558 0 0 1-.91-.01l-1.976-2.862z" clip-rule="evenodd"/><path fill="url(#e)" d="M529.792 114.62c.733 2.206 1.823 3.986 2.676 5.168.223.312.69.307.909-.009l1.976-2.862c-2.709-.239-4.733-1.029-5.561-2.297"/><path fill="url(#f)" d="M548.709 114.62c-.733 2.206-1.824 3.986-2.676 5.168a.556.556 0 0 1-.909-.009l-1.977-2.862c2.71-.239 4.734-1.029 5.562-2.297"/><path fill="#000" fill-rule="evenodd" d="M541.776 112.54h1.06c-.004.339-.24.613-.53.613-.289 0-.525-.274-.53-.613M536.82 112.54h-1.06c.005.339.24.613.53.613.289 0 .525-.274.53-.613" clip-rule="evenodd"/><path fill="#0035B5" fill-rule="evenodd" d="m531.976 108.317-.159-1.232 3.74-.099-.518 1.504a1.14 1.14 0 0 1-1.119.768l-.951-.035a1.04 1.04 0 0 1-.993-.906m7.236 0 .16-1.232-3.741-.099.518 1.504c.163.475.618.787 1.12.768l.95-.035a1.04 1.04 0 0 0 .993-.906m-6.354 2.519a.345.345 0 0 0 0 .691h12.658c.19 0 .343-.154.343-.345a.344.344 0 0 0-.343-.346z" clip-rule="evenodd"/><path fill="#0065FF" fill-rule="evenodd" d="m543.333 112.994.101-1.493.827.057-.1 1.492z" clip-rule="evenodd"/></g><path fill="#90E6BC" d="M553.179 104.661a4.16 4.16 0 0 0 4.158-4.161 4.16 4.16 0 0 0-4.158-4.162 4.16 4.16 0 0 0-4.158 4.162 4.16 4.16 0 0 0 4.158 4.161"/><path fill="#2CC3D5" fill-rule="evenodd" d="M553.177 96.874c-2 0-3.622 1.623-3.622 3.626a3.624 3.624 0 0 0 3.622 3.625 3.624 3.624 0 0 0 3.623-3.625 3.624 3.624 0 0 0-3.623-3.626m-4.694 3.626a4.696 4.696 0 0 1 4.694-4.698 4.696 4.696 0 0 1 4.694 4.698 4.696 4.696 0 0 1-4.694 4.698 4.697 4.697 0 0 1-4.694-4.698" clip-rule="evenodd"/><rect width="81.355" height="5.953" x="566.24" y="109.913" fill="#fff" rx="2.976"/><path fill="#0096FA" d="M658.282 72.533H618.4c-5.232 0-9.435-3.447-9.435-7.737s4.203-7.737 9.435-7.737h39.882c5.232 0 9.435 3.446 9.435 7.737 0 4.29-4.203 7.736-9.435 7.736"/><path fill="#F5F5F5" d="M686.079 69.857a4.954 4.954 0 0 0 4.952-4.957 4.954 4.954 0 0 0-4.952-4.956 4.954 4.954 0 0 0-4.953 4.956 4.954 4.954 0 0 0 4.953 4.957"/><path fill="url(#g)" fill-rule="evenodd" d="M537.829 788.414h247.625c31.413 0 56.741-25.349 56.599-56.646V85.853c0-31.298-25.328-56.647-56.599-56.647H537.829c-31.272 0-56.6 25.35-56.6 56.647v645.915c0 31.297 25.328 56.646 56.6 56.646m2.267-14.586h243.379c26.178 0 47.261-21.242 47.403-47.441V91.093c0-26.2-21.225-47.442-47.403-47.442H540.096c-26.178 0-47.403 21.243-47.403 47.442v635.294c0 26.199 21.225 47.441 47.403 47.441" clip-rule="evenodd"/><path fill="#fff" d="M678.995 486.476c0-7.274-5.892-13.172-13.161-13.172H545.412c-7.269 0-13.161 5.898-13.161 13.172v17.774a4.39 4.39 0 0 0 4.387 4.391h129.196c7.269 0 13.161-5.898 13.161-13.172z"/><path fill="#B2DFFD" d="M655.757 534.984c0-7.275 5.892-13.172 13.161-13.172H802.58c7.269 0 13.161 5.897 13.161 13.172v17.774a4.39 4.39 0 0 1-4.387 4.39H668.918c-7.269 0-13.161-5.897-13.161-13.172zM655.757 652.982c0-7.275 5.892-13.172 13.161-13.172H802.58c7.269 0 13.161 5.897 13.161 13.172v17.773a4.39 4.39 0 0 1-4.387 4.391H668.918c-7.269 0-13.161-5.897-13.161-13.172z"/><path fill="#fff" d="M731.953 583.492c0-7.275-5.892-13.172-13.16-13.172H545.41c-7.269 0-13.161 5.897-13.161 13.172v38.754a4.39 4.39 0 0 0 4.387 4.391h182.157c7.268 0 13.16-5.897 13.16-13.172z"/><g filter="url(#h)"><path fill="#fff" d="M707.683 210.65c0-8.205-6.65-14.855-14.855-14.855H373.942c-8.204 0-14.855 6.65-14.855 14.855v65.361a2.97 2.97 0 0 0 2.971 2.971h330.77c8.205 0 14.855-6.65 14.855-14.854z"/></g><path fill="#FCCCCC" d="M375.014 213.292c0 24.886 20.174 45.06 45.06 45.06s45.06-20.174 45.06-45.06-20.174-45.06-45.06-45.06-45.06 20.174-45.06 45.06"/><path fill="#D2DFE6" fill-rule="evenodd" d="M503.016 227.083a4.646 4.646 0 0 1 4.645-4.646h166.871a4.646 4.646 0 1 1 0 9.291H507.661a4.645 4.645 0 0 1-4.645-4.645M503.016 247.88a4.646 4.646 0 0 1 4.645-4.646h112.638a4.646 4.646 0 1 1 0 9.291H507.661a4.645 4.645 0 0 1-4.645-4.645" clip-rule="evenodd"/><path fill="#C5D9FB" d="M419.307 252.393c24.72 0 44.76-20.056 44.76-44.797s-20.04-44.796-44.76-44.796-44.759 20.056-44.759 44.796c0 24.741 20.039 44.797 44.759 44.797"/><path fill="url(#i)" d="M375.466 216.314c3.667 18.47 18.74 33.268 38.398 35.677 19.485 2.409 37.596-8.202 45.677-24.951z"/><path fill="url(#j)" d="M443.837 211.611v-4.13l-5.846-16.347 1.663-1.491 5.158 6.654 1.375-.861 4.241-15.2 1.834.23-.688 10.611 4.127-13.078 2.349.345-2.12 13.249 4.986-9.808 2.006 1.147-2.866 10.611 4.929-7.112 1.433.688-6.534 20.477v3.728z"/><path fill="url(#k)" d="M439.539 247.46c11.748-5.965 20.517-16.978 23.44-30.228v-4.129c0-1.32-1.089-2.41-2.407-2.41h-18.569a2.423 2.423 0 0 0-2.407 2.41v34.357z"/><path fill="#000" d="M405.783 217.806c16.743 0 30.317-13.122 30.317-29.31s-13.574-29.31-30.317-29.31-30.318 13.123-30.318 29.31c0 16.188 13.574 29.31 30.318 29.31"/><path fill="#6E3A0C" d="m402.86 201.746.057-11.874 16.391-5.449 10.488 16.175-3.726 2.639-.229 11.758-6.075-.344v7.342l-16.906-2.18v-9.406h-2.121a2.447 2.447 0 0 1-2.464-2.467v-6.252h4.585z"/><path fill="url(#l)" d="m419.823 214.651-7.68-.631 7.622 6.31z"/><g filter="url(#m)"><path fill="#F6F6F6" d="M629.149 355.511c0-8.204 6.651-14.855 14.855-14.855H962.89c8.204 0 14.855 6.651 14.855 14.855v65.362a2.97 2.97 0 0 1-2.971 2.971h-330.77c-8.204 0-14.855-6.651-14.855-14.855z"/></g><path fill="#1968F0" fill-rule="evenodd" d="M833.815 371.945a4.646 4.646 0 0 0-4.646-4.646H662.298a4.646 4.646 0 0 0 0 9.291h166.871a4.645 4.645 0 0 0 4.646-4.645M833.815 392.742a4.646 4.646 0 0 0-4.646-4.646H716.531a4.646 4.646 0 0 0 0 9.291h112.638a4.646 4.646 0 0 0 4.646-4.645" clip-rule="evenodd"/><mask id="n" width="90" height="90" x="855" y="320" maskUnits="userSpaceOnUse" style="mask-type:alpha"><path fill="#FDE99B" d="M900.145 409.707c24.72 0 44.76-20.056 44.76-44.797s-20.04-44.796-44.76-44.796-44.759 20.056-44.759 44.796c0 24.741 20.039 44.797 44.759 44.797"/></mask><g mask="url(#n)"><path fill="#1156CF" d="M893.428 420.038c30.848 4.142 59.209-17.529 63.347-48.403s-17.515-59.259-48.363-63.4-59.21 17.53-63.348 48.403c-4.137 30.874 17.515 59.259 48.364 63.4"/><path fill="#F06305" d="m911.37 385.952 18.617-21.184-2.354-22.653-46.412-9.797-4.368 11.063 9.883 5.95z"/><path fill="#FCAA73" d="m887.767 343.79-6.094 9.58-.433 6.104-5.711 11.749 3.37 1.416.104 15.034 9.749-.231 1.385 11.932 24.066.633-3.645-23.79 4.83-4.454-4.513-7.25-3.147 2.659-2.127-13.573z"/><path fill="url(#o)" d="m889.71 395.37 10.151-8.264-11.11.337z"/><path fill="url(#p)" d="m905.533 383.533 7.223 7.133-2.202-14.45z"/><path fill="url(#q)" d="m878.889 379.186 3.747-4.985-3.736-1.561z"/></g><g filter="url(#r)"><path fill="#fff" d="M754.539 463.978c0-7.657 6.207-13.864 13.864-13.864h48.527c7.657 0 13.864 6.207 13.864 13.864v18.816a4.456 4.456 0 0 1-4.456 4.457h-57.935c-7.657 0-13.864-6.207-13.864-13.865z"/></g><path fill="#F6A721" d="M803.659 471.803c1.587-6.07-2.048-12.277-8.118-13.864s-12.278 2.047-13.865 8.118 2.048 12.278 8.118 13.864 12.278-2.047 13.865-8.118"/><path fill="#2C2A46" d="M788.987 466.851c0 .769-.525 1.394-1.168 1.394-.644 0-1.166-.625-1.166-1.394s.525-1.393 1.166-1.393 1.168.624 1.168 1.393M798.3 468.256a.37.37 0 0 1-.263-.097c-.761-.701-1.882-.153-1.895-.145a.37.37 0 0 1-.23.028.373.373 0 0 1-.245-.553 2.97 2.97 0 0 1 2.667-1.333.37.37 0 1 1-.053.74 2.2 2.2 0 0 0-1.01.179c.472.031.92.224 1.267.546a.36.36 0 0 1 .12.258.37.37 0 0 1-.099.267.37.37 0 0 1-.259.11M793.452 476.325a5.58 5.58 0 0 1-3.412-1.168.557.557 0 0 1 .679-.88 4.463 4.463 0 0 0 7.185-3.656.557.557 0 1 1 1.113-.034 5.58 5.58 0 0 1-5.397 5.735z"/><g filter="url(#s)"><path fill="#fff" d="M601.534 303.545c0-7.658-6.207-13.865-13.864-13.865h-48.527c-7.657 0-13.864 6.207-13.864 13.865v18.816a4.456 4.456 0 0 0 4.456 4.456h57.935c7.657 0 13.864-6.207 13.864-13.864z"/></g><path fill="#F6A721" d="M565.317 320.449c6.602-1.056 11.097-7.264 10.04-13.865-1.056-6.601-7.263-11.096-13.864-10.04s-11.096 7.264-10.04 13.865 7.263 11.096 13.864 10.04"/><path fill="#2C2A46" d="M570.418 306.93q.043.023.093.022a.182.182 0 0 0 .159-.091.2.2 0 0 0 .028-.09 1.6 1.6 0 0 0-2.731-1.132 1.6 1.6 0 0 0-.468 1.132q0 .05.028.095a.2.2 0 0 0 .072.069.2.2 0 0 0 .193-.005 2.49 2.49 0 0 1 2.615 0zM559.006 306.93q.043.023.092.022a.2.2 0 0 0 .092-.024.19.19 0 0 0 .095-.157 1.6 1.6 0 1 0-3.199 0 .2.2 0 0 0 .028.09.18.18 0 0 0 .159.091.2.2 0 0 0 .093-.022 2.49 2.49 0 0 1 2.617 0zM563.469 314.005a8.16 8.16 0 0 1-5.507-2.15.596.596 0 0 1 .39-1 .6.6 0 0 1 .415.133 6.93 6.93 0 0 0 9.263.109.58.58 0 0 1 .428-.147.6.6 0 0 1 .407.198.58.58 0 0 1 .147.429.6.6 0 0 1-.199.406 8.06 8.06 0 0 1-5.344 2.022"/><path fill="#0C4EC0" d="M239.671 508.104H13l63.287 254.981h226.67z"/><path fill="#8C3A03" d="M502.657 969.552v-66.566h39.488v66.566z"/><path fill="url(#t)" d="m492.721 903.124 52.945 66.083c-3.322 4.108-6.203 27.082 5.295 43.493 21.786 31.32-2.018 30.76-2.018 30.76l-87.232-108.877z"/><path fill="#0C4EC0" d="M112.288 967.296h188.416v25.949H112.288z"/><path fill="#0C4EC0" d="M193.518 979.706V791.291h25.949l.001 188.415z"/><path fill="#072F73" d="M205.368 814.984c-25.235 0-45.693-20.71-45.693-46.258 0-25.547 20.458-46.257 45.693-46.257 25.236 0 45.694 20.71 45.694 46.257 0 25.548-20.458 46.258-45.694 46.258"/><path fill="url(#u)" d="M263.984 635.594h209.125c29.944 0 54.253 24.324 54.253 54.286v.484l39.603 234.059H458.46L427.067 738.69H287.328c-7.084 3.383-116.917 5.315-125.288 5.315-29.944 0 47.531-24.324 47.531-54.286.161-29.801 24.469-54.125 54.413-54.125"/><path fill="#0C4EC0" d="M76.827 763.085h257.721v-25.949H70.54z"/><path fill="#072F73" d="m447.489 852.689 80.664-25.758c2.646 4.573 23.062 15.493 42.66 10.589 37.046-9.12 27.994 12.903 27.994 12.903l-132.903 42.439z"/><path fill="#0096FA" d="M542.899 822.221 439.342 855.29 331.487 643.721l103.557-33.069z"/><path fill="#0096FA" d="M399.651 678.504c-28.596 9.131-59.181-6.648-68.313-35.245-9.131-28.596 6.648-59.18 35.245-68.312s59.181 6.647 68.313 35.244c9.131 28.596-6.648 59.181-35.245 68.313M191.716 739.234c-42.616 13.609-88.194-9.907-101.803-52.523s9.906-88.197 52.522-101.805 88.197 9.907 101.806 52.524-9.908 88.196-52.525 101.804"/><path fill="#0096FA" d="m159.449 635.293 207.138-60.347 31.4 98.333-199.586 63.733zM88.921 683.243l-12.37-113.931h110.567z"/><path fill="#141414" d="M255.52 386.364H139.717c-7.106 0-12.926-5.821-12.926-12.926v-87.533c0-7.105 5.82-12.926 12.926-12.926H255.52c7.106 0 12.926 5.821 12.926 12.926v87.533c0 7.105-5.82 12.926-12.926 12.926"/><path fill="#141414" d="M278.2 409.948h-85.719c-7.105 0-12.926-5.82-12.926-12.926v-63.42c0-7.105 5.821-12.925 12.926-12.925H278.2c7.105 0 12.926 5.82 12.926 12.925v63.42a12.87 12.87 0 0 1-12.926 12.926"/><path fill="#141414" d="M193.999 417.961H108.28c-7.105 0-12.926-5.821-12.926-12.926v-63.42c0-7.106 5.821-12.926 12.926-12.926h85.719c7.106 0 12.926 5.82 12.926 12.926v63.42a12.87 12.87 0 0 1-12.926 12.926"/><path fill="#8C3A03" d="M240.788 250H168.6l-5.518 5.518v135.835h53.366v-21.77h24.34l5.518-5.518V255.518z"/><path fill="#141414" d="m168.6 250-5.518 5.518-.378 62.21.454.303 55.029-55.332 28.119 33.864v-41.045L240.788 250z"/><path fill="#8C3A03" d="M156.503 339.725h15.117v-23.66h-20.484v18.369c0 2.948 2.419 5.291 5.367 5.291"/><path fill="url(#v)" d="M175.475 368.6h-12.397v-28.875h12.397z"/><path fill="url(#w)" d="M197.618 369.507h18.822v7.559h-18.822z"/><path fill="#141414" fill-rule="evenodd" d="M224.472 308.825a1.47 1.47 0 0 0-.756 1.932l11.271 25.762h-11.136a1.467 1.467 0 0 0 0 2.934h13.379a1.468 1.468 0 0 0 1.345-2.055l-12.171-27.817a1.467 1.467 0 0 0-1.932-.756" clip-rule="evenodd"/><path fill="#35DE90" d="M57.807 460.605c3.618-20.421 18.163-37.149 37.832-43.554l67.526-22.229v-17.331h53.131v17.331l8.591 2.863 58.934 19.366c19.67 6.48 34.215 23.209 37.832 43.554l-9.332 117.148v16.359L84.417 656.165 44.365 534.316z"/><path fill="#8C3A03" d="M115.062 583.958H35.726l9.945-56.412h79.186z"/><path fill="#8C3A03" d="M81.03 635.857c-25.237 0-45.694-20.71-45.694-46.258 0-25.547 20.457-46.257 45.693-46.257s45.694 20.71 45.694 46.257c0 25.548-20.458 46.258-45.694 46.258"/><path fill="url(#x)" d="m133.588 482.417-18.889 101.541h90.259z"/><path fill="#8C3A03" d="m62.804 583.958 54.421-36.818 54.041-36.517 38.209 55.265-109.263 66.584z"/><path fill="url(#y)" d="m124.857 532.059-2.189 11.908-58.942 39.991h-28l3.246-18.648z"/><path fill="#8C3A03" d="m171.114 510.891 83.458-9.294 38.079 11.917 22.878 16.94-6.548 6.371-14.524-6.222 16.029 15.441-8.579 5.771-35.67-22.636 22.425 25.409-6.773 4.947-27.091-17.764 16.556 18.139-5.87 4.797-26.64-17.164-30.177 18.363z"/><path fill="#072F73" d="M216.225 575.801h180.13c3.704 0 6.501 3.402 5.821 7.03l-1.134 5.82c-.529 2.797-2.948 4.762-5.821 4.762h-180.13c-3.704 0-6.501-3.401-5.82-7.029l1.133-5.821c.53-2.797 2.948-4.762 5.821-4.762"/><path fill="#0C4EC0" d="M512.306 460.98H313.807c-2.797 0-5.216 1.965-5.82 4.762l-23.433 120.642c-.681 3.628 2.116 7.029 5.82 7.029h198.499c2.797 0 5.216-1.965 5.82-4.762l23.433-120.641c.68-3.628-2.116-7.03-5.82-7.03"/><g filter="url(#z)" opacity=".1"><path fill="#0A0F1A" d="M331.336 996.055c0 9.975-55.816 18.055-124.668 18.055S82 1006.03 82 996.055C82 986.084 137.816 978 206.668 978s124.668 8.084 124.668 18.055"/></g><path fill="#F5F5F5" d="M972.685 967.81v-86.55c0-7.836-6.352-14.26-14.256-14.26H729.48c-7.834 0-14.257 6.353-14.257 14.26v9.883h-19.761c-3.106 0-4.588 3.742-2.471 5.86l22.162 22.167v48.569c0 7.836 6.351 14.26 14.256 14.26h228.95a14.13 14.13 0 0 0 14.326-14.189"/><path fill="#35DE90" d="M840.781 917.051h-90.832c-3.105 0-5.646-2.541-5.646-5.647v-9.601c0-3.107 2.541-5.648 5.646-5.648h90.832c3.105 0 5.646 2.541 5.646 5.648v9.601c0 3.106-2.541 5.647-5.646 5.647"/><path fill="url(#A)" d="M891.031 917.052h-26.748c-3.106 0-5.646-2.542-5.646-5.648v-9.601c0-3.106 2.54-5.648 5.646-5.648h26.748c3.105 0 5.646 2.542 5.646 5.648v9.601c0 3.106-2.541 5.648-5.646 5.648"/><path fill="#072F73" d="M928.153 955.173H749.876c-3.105 0-5.646-2.542-5.646-5.648v-9.601c0-3.106 2.541-5.648 5.646-5.648h178.277c3.105 0 5.646 2.542 5.646 5.648v9.601c0 3.106-2.541 5.648-5.646 5.648"/><path fill="#1968F0" d="M34 126.154v-72.25C34 47.363 39.304 42 45.903 42h191.123c6.539 0 11.901 5.304 11.901 11.904v8.25h16.496c2.593 0 3.83 3.124 2.062 4.892L248.985 85.55v40.545c0 6.542-5.302 11.905-11.901 11.905H45.961A11.797 11.797 0 0 1 34 126.154"/><path fill="#35DE90" d="M144.113 83.782h75.825a4.73 4.73 0 0 0 4.713-4.715v-8.014a4.73 4.73 0 0 0-4.713-4.715h-75.825a4.73 4.73 0 0 0-4.713 4.715v8.014a4.73 4.73 0 0 0 4.713 4.715"/><path fill="url(#B)" d="M102.163 83.782h22.329a4.73 4.73 0 0 0 4.713-4.715v-8.014a4.73 4.73 0 0 0-4.713-4.715h-22.329a4.73 4.73 0 0 0-4.713 4.715v8.014a4.73 4.73 0 0 0 4.713 4.715"/><path fill="#072F73" d="M71.173 115.605h148.822c2.592 0 4.713-2.122 4.713-4.715v-8.014c0-2.593-2.121-4.715-4.713-4.715H71.173a4.73 4.73 0 0 0-4.714 4.715v8.014a4.73 4.73 0 0 0 4.714 4.715"/><defs><linearGradient id="b" x1="369.302" x2="849.128" y1="-178.63" y2="850.469" gradientUnits="userSpaceOnUse"><stop stop-color="#fff"/><stop offset=".148" stop-color="#F7FAFE"/><stop offset=".304" stop-color="#E2ECFD"/><stop offset=".516" stop-color="#FAFCFF"/><stop offset=".97" stop-color="#C5D9FB"/></linearGradient><linearGradient id="c" x1="695.941" x2="665.579" y1="96.322" y2="21.216" gradientUnits="userSpaceOnUse"><stop stop-color="#0D4FC1"/><stop offset=".483" stop-color="#135CD8"/><stop offset="1" stop-color="#1A69F1"/></linearGradient><linearGradient id="e" x1="535.47" x2="530.041" y1="116.398" y2="117.609" gradientUnits="userSpaceOnUse"><stop offset=".011" stop-color="#0012FF" stop-opacity=".2"/><stop offset=".52" stop-color="#0012FF" stop-opacity="0"/></linearGradient><linearGradient id="f" x1="543.03" x2="548.459" y1="116.398" y2="117.609" gradientUnits="userSpaceOnUse"><stop offset=".011" stop-color="#0012FF" stop-opacity=".2"/><stop offset=".52" stop-color="#0012FF" stop-opacity="0"/></linearGradient><linearGradient id="g" x1="428.033" x2="978.064" y1="187.134" y2="707.938" gradientUnits="userSpaceOnUse"><stop stop-color="#1968F0"/><stop offset=".291" stop-color="#125BD8"/><stop offset=".589" stop-color="#0E51C6"/><stop offset=".805" stop-color="#0C4EC0"/></linearGradient><linearGradient id="i" x1="388.046" x2="446.909" y1="242.448" y2="210.676" gradientUnits="userSpaceOnUse"><stop offset=".065" stop-color="#0096FA"/><stop offset=".289" stop-color="#0093FA"/><stop offset=".469" stop-color="#0089FB"/><stop offset=".635" stop-color="#0078FC"/><stop offset=".792" stop-color="#0060FD"/><stop offset=".941" stop-color="#0041FE"/><stop offset="1" stop-color="#03F"/></linearGradient><linearGradient id="j" x1="452.207" x2="452.207" y1="192.186" y2="220.687" gradientUnits="userSpaceOnUse"><stop offset=".375" stop-color="#6E3A0C"/><stop offset=".5" stop-color="#6A380C"/><stop offset=".619" stop-color="#5F320A"/><stop offset=".734" stop-color="#4C2808"/><stop offset=".847" stop-color="#311A05"/><stop offset=".958" stop-color="#0F0802"/><stop offset="1"/></linearGradient><linearGradient id="k" x1="433.759" x2="472.393" y1="213.799" y2="248.988" gradientUnits="userSpaceOnUse"><stop offset=".205" stop-color="#0096FA"/><stop offset=".362" stop-color="#0092FA"/><stop offset=".523" stop-color="#0086FB"/><stop offset=".685" stop-color="#0071FC"/><stop offset=".848" stop-color="#0055FD"/><stop offset="1" stop-color="#03F"/></linearGradient><linearGradient id="l" x1="414.482" x2="421.782" y1="218.797" y2="210.751" gradientUnits="userSpaceOnUse"><stop offset=".211" stop-color="#6E3A0C"/><stop offset=".322" stop-color="#65350B"/><stop offset=".502" stop-color="#4E2908"/><stop offset=".726" stop-color="#271504"/><stop offset=".922"/></linearGradient><linearGradient id="o" x1="897.992" x2="889.113" y1="393.928" y2="384.753" gradientUnits="userSpaceOnUse"><stop offset=".294" stop-opacity="0"/><stop offset="1" stop-opacity=".5"/></linearGradient><linearGradient id="p" x1="906.228" x2="917.025" y1="393.518" y2="374.368" gradientUnits="userSpaceOnUse"><stop offset=".367" stop-opacity="0"/><stop offset=".884" stop-opacity=".5"/></linearGradient><linearGradient id="q" x1="883.145" x2="879.32" y1="381.636" y2="370.548" gradientUnits="userSpaceOnUse"><stop offset=".367" stop-opacity="0"/><stop offset=".928" stop-opacity=".5"/></linearGradient><linearGradient id="t" x1="574.781" x2="442.512" y1="980.237" y2="963.294" gradientUnits="userSpaceOnUse"><stop offset=".26" stop-color="#072F73"/><stop offset=".366" stop-color="#072C6D"/><stop offset=".513" stop-color="#06255B"/><stop offset=".684" stop-color="#04193D"/><stop offset=".871" stop-color="#010915"/><stop offset=".956"/></linearGradient><linearGradient id="u" x1="553.128" x2="259.411" y1="676.775" y2="883.913" gradientUnits="userSpaceOnUse"><stop offset=".026" stop-color="#0096FA"/><stop offset=".641" stop-color="#1968F0"/></linearGradient><linearGradient id="v" x1="180.888" x2="147.653" y1="357.008" y2="348.894" gradientUnits="userSpaceOnUse"><stop stop-color="#8C3A03" stop-opacity=".2"/><stop offset=".938" stop-color="#763103"/></linearGradient><linearGradient id="w" x1="199.072" x2="215.35" y1="384.917" y2="361.134" gradientUnits="userSpaceOnUse"><stop stop-color="#8C3A03" stop-opacity=".13"/><stop offset="1" stop-color="#642901"/></linearGradient><linearGradient id="x" x1="184.273" x2="103.05" y1="520.181" y2="591.688" gradientUnits="userSpaceOnUse"><stop offset=".145" stop-color="#35DE90"/><stop offset=".653" stop-color="#1BA766"/></linearGradient><linearGradient id="y" x1="66.148" x2="101.753" y1="526.279" y2="607.403" gradientUnits="userSpaceOnUse"><stop offset=".281" stop-color="#F8BC9A" stop-opacity="0"/><stop offset=".297" stop-color="#8C3A03"/><stop offset=".79" stop-color="#732F02"/></linearGradient><linearGradient id="A" x1="858.614" x2="896.674" y1="906.605" y2="906.605" gradientUnits="userSpaceOnUse"><stop stop-color="#fff"/><stop offset=".952" stop-color="#C5D9FB"/></linearGradient><linearGradient id="B" x1="129.224" x2="97.453" y1="75.061" y2="75.061" gradientUnits="userSpaceOnUse"><stop stop-color="#fff"/><stop offset=".952" stop-color="#C5D9FB"/></linearGradient><filter id="a" width="525.782" height="103.91" x="456.543" y="710.365" color-interpolation-filters="sRGB" filterUnits="userSpaceOnUse"><feFlood flood-opacity="0" result="BackgroundImageFix"/><feBlend in="SourceGraphic" in2="BackgroundImageFix" result="shape"/><feGaussianBlur result="effect1_foregroundBlur_10272_1594" stdDeviation="8"/></filter><filter id="h" width="364.887" height="99.478" x="350.942" y="189.007" color-interpolation-filters="sRGB" filterUnits="userSpaceOnUse"><feFlood flood-opacity="0" result="BackgroundImageFix"/><feColorMatrix in="SourceAlpha" result="hardAlpha" values="0 0 0 0 0 0 0 0 0 0 0 0 0 0 0 0 0 0 127 0"/><feOffset dy="1.358"/><feGaussianBlur stdDeviation="4.073"/><feColorMatrix values="0 0 0 0 0.374547 0 0 0 0 0.481553 0 0 0 0 0.601935 0 0 0 0.15 0"/><feBlend in2="BackgroundImageFix" result="effect1_dropShadow_10272_1594"/><feBlend in="SourceGraphic" in2="effect1_dropShadow_10272_1594" result="shape"/></filter><filter id="m" width="364.887" height="99.478" x="621.004" y="333.868" color-interpolation-filters="sRGB" filterUnits="userSpaceOnUse"><feFlood flood-opacity="0" result="BackgroundImageFix"/><feColorMatrix in="SourceAlpha" result="hardAlpha" values="0 0 0 0 0 0 0 0 0 0 0 0 0 0 0 0 0 0 127 0"/><feOffset dy="1.358"/><feGaussianBlur stdDeviation="4.073"/><feColorMatrix values="0 0 0 0 0.374547 0 0 0 0 0.481553 0 0 0 0 0.601935 0 0 0 0.15 0"/><feBlend in2="BackgroundImageFix" result="effect1_dropShadow_10272_1594"/><feBlend in="SourceGraphic" in2="effect1_dropShadow_10272_1594" result="shape"/></filter><filter id="r" width="83.692" height="44.574" x="750.82" y="447.015" color-interpolation-filters="sRGB" filterUnits="userSpaceOnUse"><feFlood flood-opacity="0" result="BackgroundImageFix"/><feColorMatrix in="SourceAlpha" result="hardAlpha" values="0 0 0 0 0 0 0 0 0 0 0 0 0 0 0 0 0 0 127 0"/><feOffset dy=".62"/><feGaussianBlur stdDeviation="1.859"/><feColorMatrix values="0 0 0 0 0.374547 0 0 0 0 0.481553 0 0 0 0 0.601935 0 0 0 0.15 0"/><feBlend in2="BackgroundImageFix" result="effect1_dropShadow_10272_1594"/><feBlend in="SourceGraphic" in2="effect1_dropShadow_10272_1594" result="shape"/></filter><filter id="s" width="83.692" height="44.574" x="521.56" y="286.581" color-interpolation-filters="sRGB" filterUnits="userSpaceOnUse"><feFlood flood-opacity="0" result="BackgroundImageFix"/><feColorMatrix in="SourceAlpha" result="hardAlpha" values="0 0 0 0 0 0 0 0 0 0 0 0 0 0 0 0 0 0 127 0"/><feOffset dy=".62"/><feGaussianBlur stdDeviation="1.859"/><feColorMatrix values="0 0 0 0 0.374547 0 0 0 0 0.481553 0 0 0 0 0.601935 0 0 0 0.15 0"/><feBlend in2="BackgroundImageFix" result="effect1_dropShadow_10272_1594"/><feBlend in="SourceGraphic" in2="effect1_dropShadow_10272_1594" result="shape"/></filter><filter id="z" width="276.849" height="63.624" x="68.243" y="964.244" color-interpolation-filters="sRGB" filterUnits="userSpaceOnUse"><feFlood flood-opacity="0" result="BackgroundImageFix"/><feBlend in="SourceGraphic" in2="BackgroundImageFix" result="shape"/><feGaussianBlur result="effect1_foregroundBlur_10272_1594" stdDeviation="6.878"/></filter><clipPath id="d"><path fill="#fff" d="M528.844 99.034h20.828v20.985h-20.828z"/></clipPath></defs></svg>