<svg width="1080" height="1080" fill="none" xmlns="http://www.w3.org/2000/svg"><g clip-path="url(#welcome-blip__a)"><g opacity=".2" filter="url(#welcome-blip__b)"><path d="M875 745.5c0 5.247-156.924 9.5-350.5 9.5S174 750.747 174 745.5s156.924-9.5 350.5-9.5 350.5 4.253 350.5 9.5Z" fill="#8CA0B3"/></g><g opacity=".2" filter="url(#welcome-blip__c)"><path d="M384.529 890.147c0 13.42-86.08 24.3-192.265 24.3C86.08 914.447 0 903.567 0 890.147s86.08-24.299 192.264-24.299c106.185 0 192.265 10.879 192.265 24.299Z" fill="#8CA0B3"/></g><g opacity=".4" filter="url(#welcome-blip__d)"><path d="M1036.78 857.322c0 5.18-154.602 9.379-345.311 9.379-190.708 0-345.308-4.199-345.308-9.379s154.6-9.379 345.308-9.379c190.709 0 345.311 4.199 345.311 9.379Z" fill="#8CA0B3"/></g><g clip-path="url(#welcome-blip__e)"><path d="M504.699 267.412c0 8.681-7.037 15.719-15.719 15.719-8.681 0-15.719-7.038-15.719-15.719 0-8.682 7.038-15.72 15.719-15.72 8.682 0 15.719 7.038 15.719 15.72Z" fill="#2C2A46"/><path d="M488.98 262.789c0 8.681-7.038 15.719-15.72 15.719-8.681 0-15.719-7.038-15.719-15.719 0-8.682 7.038-15.72 15.719-15.72 8.682 0 15.72 7.038 15.72 15.72Z" fill="#2C2A46"/><path d="M476.959 240.597c0 8.681-7.038 15.719-15.719 15.719-8.682 0-15.719-7.038-15.719-15.719 0-8.682 7.037-15.72 15.719-15.72 8.681 0 15.719 7.038 15.719 15.72Z" fill="#2C2A46"/><path d="M483.432 223.952c0 8.682-7.038 15.72-15.719 15.72-8.682 0-15.719-7.038-15.719-15.72 0-8.681 7.037-15.719 15.719-15.719 8.681 0 15.719 7.038 15.719 15.719Z" fill="#2C2A46"/><path d="M483.432 209.158c0 8.682-7.038 15.719-15.719 15.719-8.682 0-15.719-7.037-15.719-15.719 0-8.682 7.037-15.719 15.719-15.719 8.681 0 15.719 7.037 15.719 15.719Z" fill="#2C2A46"/><path d="M498.228 198.986c0 8.682-7.038 15.72-15.72 15.72-8.681 0-15.719-7.038-15.719-15.72 0-8.681 7.038-15.719 15.719-15.719 8.682 0 15.72 7.038 15.72 15.719Z" fill="#2C2A46"/><path d="M514.871 185.117c0 8.681-7.038 15.719-15.72 15.719-8.681 0-15.719-7.038-15.719-15.719 0-8.682 7.038-15.72 15.719-15.72 8.682 0 15.72 7.038 15.72 15.72Z" fill="#2C2A46"/><path d="M545.384 186.041c0 8.682-7.037 15.72-15.719 15.72-8.681 0-15.719-7.038-15.719-15.72 0-8.681 7.038-15.719 15.719-15.719 8.682 0 15.719 7.038 15.719 15.719Z" fill="#2C2A46"/><path d="M529.666 186.041c0 8.682-7.038 15.72-15.72 15.72-8.681 0-15.719-7.038-15.719-15.72 0-8.681 7.038-15.719 15.719-15.719 8.682 0 15.72 7.038 15.72 15.719Z" fill="#2C2A46"/><path d="M498.228 183.267c0 8.682-7.038 15.72-15.72 15.72-8.681 0-15.719-7.038-15.719-15.72 0-8.681 7.038-15.719 15.719-15.719 8.682 0 15.72 7.038 15.72 15.719Z" fill="#2C2A46"/><path d="M482.508 196.212c0 8.682-7.038 15.72-15.719 15.72-8.682 0-15.72-7.038-15.72-15.72 0-8.681 7.038-15.719 15.72-15.719 8.681 0 15.719 7.038 15.719 15.719Z" fill="#2C2A46"/><path d="M471.412 211.932c0 8.681-7.038 15.719-15.72 15.719-8.681 0-15.719-7.038-15.719-15.719 0-8.682 7.038-15.719 15.719-15.719 8.682 0 15.72 7.037 15.72 15.719Z" fill="#2C2A46"/><path d="M467.713 224.877c0 8.682-7.038 15.719-15.719 15.719-8.682 0-15.72-7.037-15.72-15.719 0-8.682 7.038-15.719 15.72-15.719 8.681 0 15.719 7.037 15.719 15.719Z" fill="#2C2A46"/><path d="M473.261 249.843c0 8.682-7.038 15.719-15.719 15.719-8.682 0-15.72-7.037-15.72-15.719 0-8.681 7.038-15.719 15.72-15.719 8.681 0 15.719 7.038 15.719 15.719Zm41.61-72.124c0 8.682-7.038 15.72-15.72 15.72-8.681 0-15.719-7.038-15.719-15.72 0-8.681 7.038-15.719 15.719-15.719 8.682 0 15.72 7.038 15.72 15.719Z" fill="#2C2A46"/><path d="M530.59 177.719c0 8.682-7.038 15.72-15.719 15.72-8.682 0-15.72-7.038-15.72-15.72 0-8.681 7.038-15.719 15.72-15.719 8.681 0 15.719 7.038 15.719 15.719Zm21.268 27.74c0 8.682-7.038 15.72-15.719 15.72-8.682 0-15.72-7.038-15.72-15.72 0-8.681 7.038-15.719 15.72-15.719 8.681 0 15.719 7.038 15.719 15.719Z" fill="#2C2A46"/><path d="M557.406 227.651c0 8.682-7.038 15.719-15.719 15.719-8.682 0-15.72-7.037-15.72-15.719 0-8.681 7.038-15.719 15.72-15.719 8.681 0 15.719 7.038 15.719 15.719Z" fill="#2C2A46"/><path d="M558.33 250.768c0 8.681-7.038 15.719-15.719 15.719-8.682 0-15.719-7.038-15.719-15.719 0-8.682 7.037-15.72 15.719-15.72 8.681 0 15.719 7.038 15.719 15.72Z" fill="#2C2A46"/><path d="M567.577 239.672c0 8.681-7.038 15.719-15.72 15.719-8.681 0-15.719-7.038-15.719-15.719 0-8.682 7.038-15.719 15.719-15.719 8.682 0 15.72 7.037 15.72 15.719Z" fill="#2C2A46"/><path d="M565.728 218.405c0 8.681-7.038 15.719-15.72 15.719-8.681 0-15.719-7.038-15.719-15.719 0-8.682 7.038-15.72 15.719-15.72 8.682 0 15.72 7.038 15.72 15.72Z" fill="#2C2A46"/><path d="M560.18 198.986c0 8.682-7.038 15.72-15.719 15.72-8.682 0-15.72-7.038-15.72-15.72 0-8.681 7.038-15.719 15.72-15.719 8.681 0 15.719 7.038 15.719 15.719Z" fill="#2C2A46"/><path d="M546.309 181.418c0 8.681-7.038 15.719-15.72 15.719-8.681 0-15.719-7.038-15.719-15.719 0-8.682 7.038-15.72 15.719-15.72 8.682 0 15.72 7.038 15.72 15.72Zm-3.699 85.069c0 8.682-7.037 15.719-15.719 15.719-8.681 0-15.719-7.037-15.719-15.719 0-8.681 7.038-15.719 15.719-15.719 8.682 0 15.719 7.038 15.719 15.719Z" fill="#2C2A46"/><path d="M529.666 268.336c0 8.682-7.038 15.72-15.72 15.72-8.681 0-15.719-7.038-15.719-15.72 0-8.681 7.038-15.719 15.719-15.719 8.682 0 15.72 7.038 15.72 15.719Z" fill="#2C2A46"/><path fill-rule="evenodd" clip-rule="evenodd" d="M549.441 311.036a9.378 9.378 0 0 1 12.27 5.035l43.236 103.422a9.38 9.38 0 0 1-17.306 7.235l-43.236-103.422c-1.998-4.779.257-10.272 5.036-12.27Z" fill="#CB8591"/><path d="m552.111 464.241-.077 230.853c0 1.756-5.482 3.18-12.234 3.18h-.359c-6.752 0-12.226-1.424-12.226-3.18l-2.771-118.513-2.925-109.638c-3.001.717-9.89.998-16.813.93-6.932.068-13.812-.213-16.822-.93l-3.01 109.646-2.754 118.514c0 1.756-5.474 3.18-12.226 3.18h-.367c-6.753 0-12.235-1.424-12.235-3.18l-.068-230.854a77.33 77.33 0 0 1-2.635-18.118v-2.907c.111-11.306 2.635-18.715 2.635-18.715 0-1.919 4.331-3.683 11.468-5.039.545-.102 1.116-.213 1.705-.307 8.526-1.458 20.548-2.379 33.797-2.396h.989c25.877 0 46.962 3.496 46.971 7.742-.034-.009 5.926 17.504-.043 39.732Z" fill="#505F79"/><path opacity=".5" fill-rule="evenodd" clip-rule="evenodd" d="M497.992 428.486h.516c.928 0 1.866.011 2.809.021l.027.001c.953.01 1.912.021 2.876.021 1.789 0 3.56-.009 5.296-.034l.523-.008v15.93c0 3.8-2.618 7.022-6.032 7.022-3.416 0-6.015-3.224-6.015-7.022v-15.931Zm1.031 1.033v14.898c0 3.399 2.295 5.99 4.984 5.99 2.691 0 5-2.593 5-5.99v-14.883c-1.574.02-3.174.027-4.787.027-.971 0-1.935-.011-2.888-.022h-.024c-.769-.009-1.531-.017-2.285-.02Z" fill="#8CA0B3"/><path d="M468.674 419.461c-.921.171-1.79.35-2.609.538-5.567 1.27-8.85 2.83-8.859 4.501 0 0-2.711 7.998-2.634 20.037a14.02 14.02 0 0 0 2.029.418 14.82 14.82 0 0 0 12.073-25.494Z" fill="#202C44"/><path d="M474.642 432.353a16.237 16.237 0 0 1-11.893 13.641 16.26 16.26 0 0 1-6.344.419l-.503-.069-1.33-.179v-2.907c.452.102 1.185.188 1.705.256l.52.068a13.384 13.384 0 0 0 15.015-11.553 14.08 14.08 0 0 0 .051-3.112c.921.111 1.876.23 2.873.332a16.855 16.855 0 0 1-.094 3.104Z" fill="#8CA0B3"/><path d="M540.43 419.461c.921.171 1.782.35 2.609.538 5.559 1.27 8.85 2.83 8.859 4.501 0 0 2.711 7.998 2.634 20.037-.665.187-1.343.327-2.029.418a14.82 14.82 0 0 1-16.487-17.451 14.826 14.826 0 0 1 4.414-8.043Z" fill="#202C44"/><path d="M534.47 432.353a16.235 16.235 0 0 0 11.876 13.633c2.063.558 4.216.703 6.336.427l.503-.069 1.33-.179v-2.907c-.452.102-1.185.188-1.705.256l-.52.068a13.382 13.382 0 0 1-13.344-6.599 13.394 13.394 0 0 1-1.671-4.954 14.08 14.08 0 0 1-.051-3.112c-.921.111-1.876.23-2.873.332-.06 1.036-.02 2.076.119 3.104Z" fill="#8CA0B3"/><path d="M552.034 424.398c.031-.268.011-.54-.059-.801l-.964-2.558c-2.242-6.131-7.673-21.605-7.852-28.333-.29-11.467 1.381-31.12 2.361-37.711-1.841.981-3.64 2.337-5.567 2.337H470.38c-1.927 0-3.905-1.134-5.756-2.115.981 6.591 2.132 26.022 1.842 37.515-.162 6.727-5.61 22.168-7.852 28.332l-.964 2.558c-.07.261-.09.533-.06.802v.042c0 3.411 21.086 6.19 47.218 6.233 26.133.043 47.218-2.822 47.218-6.233.017-.042.008-.051.008-.068Z" fill="#F6A721"/><path d="M472.545 358.389a13.048 13.048 0 0 1-7.836-2.925l1.706 25.835c-.111-6.327 3.598-21.589 3.598-21.589.404.082.815.124 1.227.128 4.434-.213 17.112-1.176 17.112-1.176-8.065-.009-15.807-.273-15.807-.273Z" fill="#C64A79"/><path d="m505.993 357.016-41.344-1.833 1.893 33.763c.895-20.974 39.451-31.93 39.451-31.93Z" fill="#F3A919"/><path d="M552.418 332.162c-3.41-14.494-11.629-48.428-11.629-48.428 0-1.705-10.104-2.251-32.758-2.694v-.111h-6.582v.077c-22.654.443-32.757 1.031-32.757 2.694 0 0-8.254 33.942-11.63 48.428-3.248 13.966 6.361 26.303 15.475 26.303h64.406c9.115.026 18.698-12.311 15.475-26.269Z" fill="#F6A721"/><path d="M537.199 358.389s-7.742.264-15.808.264c0 0 17.854.137 20.071 8.987.17.852.341 1.705.503 2.558a65.288 65.288 0 0 1 1.355 11.084l2.226-26.431c-2.43 1.909-5.662 3.538-8.347 3.538Z" fill="#F3A919"/><path fill-rule="evenodd" clip-rule="evenodd" d="M533.04 284.048c4.385-3.178 10.515-2.199 13.693 2.186l-7.94 5.753c7.94-5.753 7.942-5.75 7.945-5.747l.004.007.01.014.022.031.052.073.135.193c.104.151.237.347.398.593.321.491.759 1.182 1.317 2.111 1.114 1.857 2.715 4.68 4.826 8.776 4.221 8.188 10.521 21.535 19.095 42.544 2.047 5.013-.359 10.737-5.373 12.783-5.014 2.046-10.737-.36-12.783-5.373-8.41-20.608-14.473-33.41-18.369-40.968-1.946-3.776-3.343-6.225-4.211-7.672a45.007 45.007 0 0 0-.901-1.448 20.453 20.453 0 0 0-.152-.227l-.001-.002" fill="#F6A721"/><path fill-rule="evenodd" clip-rule="evenodd" d="M393.218 275.502a8.5 8.5 0 0 1 8.657 8.34c.154 8.299 1.4 21.108 4.532 32.318 1.567 5.61 3.502 10.436 5.751 14.019 2.277 3.628 4.41 5.262 6.116 5.849 3.791 1.305 8.557-.091 14.487-5.874 5.69-5.551 10.391-13.318 12.891-18.759a8.5 8.5 0 0 1 11.272-4.176 8.5 8.5 0 0 1 4.176 11.272c-3.074 6.692-8.849 16.399-16.469 23.832-7.382 7.2-18.764 14.299-31.891 9.779-6.752-2.325-11.574-7.456-14.982-12.887-3.436-5.476-5.914-12.003-7.724-18.482-3.623-12.967-4.983-27.279-5.157-36.575a8.5 8.5 0 0 1 8.341-8.656Z" fill="#CB8591"/><path fill-rule="evenodd" clip-rule="evenodd" d="M475.384 284.835c4.477 3.046 5.637 9.145 2.591 13.623-4.388 6.45-10.79 15.484-16.055 22.851a2922.91 2922.91 0 0 1-6.72 9.364c-.854 1.187-1.545 2.143-2.021 2.803l-.742 1.025s-.001.001-7.022-5.083l7.021 5.084c-3.175 4.387-9.306 5.368-13.692 2.192-4.386-3.176-5.367-9.306-2.191-13.692l6.092 4.41-6.092-4.41.73-1.01 2.006-2.781c1.699-2.358 4.053-5.634 6.676-9.304 5.263-7.364 11.548-16.235 15.797-22.48 3.046-4.477 9.144-5.638 13.622-2.592Z" fill="#F6A721"/><path fill-rule="evenodd" clip-rule="evenodd" d="M392.945 262.341c0 .942-.763 1.706-1.705 1.706a15.432 15.432 0 0 0-15.424 15.425 1.705 1.705 0 0 1-3.411-.002 18.845 18.845 0 0 1 18.834-18.833 1.705 1.705 0 0 1 1.706 1.704Z" fill="#D2DFE6"/><path fill-rule="evenodd" clip-rule="evenodd" d="M382.68 259.358a12.27 12.27 0 0 0-12.27 12.269 1.705 1.705 0 1 1-3.41 0 15.68 15.68 0 0 1 15.68-15.679 1.705 1.705 0 0 1 0 3.41Z" fill="#D2DFE6"/><path d="M504.109 295.711c5.5 0 9.959-3.674 9.959-8.206 0-4.531-4.459-8.205-9.959-8.205-5.501 0-9.96 3.674-9.96 8.205 0 4.532 4.459 8.206 9.96 8.206Z" fill="#EFB8C2"/><path d="M504.109 295.711c5.5 0 9.959-3.674 9.959-8.206 0-4.531-4.459-8.205-9.959-8.205-5.501 0-9.96 3.674-9.96 8.205 0 4.532 4.459 8.206 9.96 8.206Z" fill="#CB8591"/><path fill-rule="evenodd" clip-rule="evenodd" d="M504.109 279.895c-5.285 0-9.365 3.51-9.365 7.611 0 4.1 4.08 7.61 9.365 7.61s9.365-3.51 9.365-7.61c0-4.101-4.08-7.611-9.365-7.611Zm-10.554 7.611c0-4.963 4.838-8.8 10.554-8.8s10.554 3.837 10.554 8.8c0 4.962-4.838 8.799-10.554 8.799s-10.554-3.837-10.554-8.799Z" fill="#CB8591"/><path d="M504.922 263.93h-1.616a30.083 30.083 0 0 1-6.511-.703v18.828a6.568 6.568 0 0 0 1.918 4.646 6.562 6.562 0 0 0 4.643 1.925h1.516a6.566 6.566 0 0 0 6.078-4.091c.326-.803.49-1.663.482-2.529v-18.829c-2.137.483-4.32.736-6.51.753Z" fill="#CB8591"/><path d="M496.815 268.35v5.42s1.556-2.665 7.294-2.665c5.738 0 7.323 2.973 7.323 2.973v-6.561l-14.637-.267.02 1.1Z" fill="#BC7785"/><path d="M535.373 205.333v32.484a30.399 30.399 0 0 1-30.453 30.453h-1.615a30.014 30.014 0 0 1-6.511-.703 30.46 30.46 0 0 1-23.942-29.73v-32.504a30.45 30.45 0 0 1 30.453-30.453h1.615a30.453 30.453 0 0 1 30.453 30.453Z" fill="#CB8591"/><path d="M473.605 229.345v13.933a4.732 4.732 0 0 1-3.301-1.419 4.732 4.732 0 0 1-1.356-3.328v-4.439a4.749 4.749 0 0 1 4.657-4.747Zm64.464 4.747v4.439a4.732 4.732 0 0 1-1.356 3.328 4.732 4.732 0 0 1-3.301 1.419v-13.933a4.744 4.744 0 0 1 4.657 4.747Z" fill="#CB8591"/><path d="M534.63 214.985s.575 9.979 0 13.814c-.575 3.835 2.299-13.814 2.299-13.814h-2.299Z" fill="#160566"/><path d="M505.497 179.379a54.035 54.035 0 0 1 12.575-5.084 23.584 23.584 0 0 1 6.838-.604c2.349.135 4.63.835 6.65 2.041a14.5 14.5 0 0 1 4.865 5.004l.932 1.437c.287.496.565.991.842 1.497.595.991 1.051 2.041 1.566 3.062a54.315 54.315 0 0 1 2.368 6.431c.664 2.171 1.229 4.351 1.982 6.412a19.578 19.578 0 0 0 3.142 5.669 45.288 45.288 0 0 0 4.786 4.608 45.66 45.66 0 0 1 4.658 5.044 30.736 30.736 0 0 1 3.647 5.847 21.102 21.102 0 0 1 1.674 13.497 27.523 27.523 0 0 1-6.699 11.723 28.212 28.212 0 0 0 5.946-11.892 20.027 20.027 0 0 0-1.982-12.803 26.401 26.401 0 0 0-1.684-2.844c-.575-.991-1.289-1.794-1.982-2.676a44.72 44.72 0 0 0-4.589-4.806 44.535 44.535 0 0 1-4.955-4.737 20.82 20.82 0 0 1-3.409-6.085c-.792-2.17-1.347-4.37-1.981-6.511a57.904 57.904 0 0 0-2.25-6.273c-.476-.991-.912-1.982-1.467-2.973-.267-.485-.515-.991-.792-1.456l-.882-1.417a14.043 14.043 0 0 0-4.351-4.727 13.66 13.66 0 0 0-6.114-2.091 23.498 23.498 0 0 0-6.6.376 39.064 39.064 0 0 0-6.461 1.784c-2.131.743-4.163 1.724-6.273 2.547Z" fill="#2C2A46"/><path d="M514.92 187.218a9.558 9.558 0 0 0-3.27-7.076 20.824 20.824 0 0 0-6.828-4.172 23.608 23.608 0 0 0-7.799-1.457c-2.66-.08-5.319.142-7.928.664a35.55 35.55 0 0 0-7.611 2.379 26.064 26.064 0 0 0-6.659 4.231 20.804 20.804 0 0 0-7.036 13.636c-.149 1.298-.179 2.596-.278 4.014a28.974 28.974 0 0 1-.614 4.112 24.223 24.223 0 0 1-3.281 7.641c-3.032 4.697-7.481 8.076-11.326 11.743a16.269 16.269 0 0 0-4.42 6.412 11.217 11.217 0 0 0-.466 3.854c.09 1.317.34 2.618.743 3.875a20.425 20.425 0 0 1 1.051 8.097 17.584 17.584 0 0 1-.863 3.964 35.326 35.326 0 0 1-1.625 3.755 22.266 22.266 0 0 0 2.101-7.749 19.867 19.867 0 0 0-1.348-7.839 17.02 17.02 0 0 1-.921-4.053c-.108-1.404.03-2.815.406-4.172a17.276 17.276 0 0 1 4.509-6.937c1.913-1.982 3.964-3.736 5.887-5.609a34.39 34.39 0 0 0 5.153-6.075 22.836 22.836 0 0 0 3.032-7.224c.275-1.287.46-2.592.555-3.904.079-1.289.089-2.696.248-4.083a23.034 23.034 0 0 1 2.428-7.928 21.734 21.734 0 0 1 5.192-6.501 26.882 26.882 0 0 1 7.017-4.38 33.035 33.035 0 0 1 7.928-2.349 35.517 35.517 0 0 1 8.185-.505 23.62 23.62 0 0 1 8.027 1.724 21.24 21.24 0 0 1 6.778 4.559 11.725 11.725 0 0 1 2.309 3.379 7.92 7.92 0 0 1 .724 3.974Z" fill="#2C2A46"/><path d="M501.046 173.304c-23.783-3.875-34.09 27.034-32.702 34.14.733 3.696 1.982 9.761 2.973 14.726 0 0 2.874 17.639 2.299 13.804a26.365 26.365 0 0 1-.218-2.765 17.441 17.441 0 0 1 1.268-7.135c1.744-4.321 4.103-9.622 4.103-9.622s15.628 2.447 29.452-3.816c13.824-6.263 19.324-26.31 19.324-26.31s-2.715-9.137-26.499-13.022Z" fill="#2C2A46"/><path d="M502.116 172.294c33.04-5.56 38.024 26.816 36.587 33.921-1.437 7.106-4.191 27.679-4.191 27.679 0-2.815-3.082-22.793-5.342-26.212-11.466-17.461-27.054-35.388-27.054-35.388Z" fill="#2C2A46"/><path d="M527.337 186.316a46.036 46.036 0 0 1-1.803 7.79 46.74 46.74 0 0 1-3.052 7.452 36.376 36.376 0 0 1-4.41 6.818 32.292 32.292 0 0 1-2.805 2.973c-.525.446-1.06.882-1.595 1.318-.268.218-.526.446-.813.644l-.872.555a42.742 42.742 0 0 1-15.192 5.559 54.473 54.473 0 0 1-7.997.823 46.672 46.672 0 0 1-7.987-.407 77.986 77.986 0 0 0 15.657-1.981 57.062 57.062 0 0 0 7.462-2.25c.615-.218 1.199-.486 1.804-.743.604-.258 1.199-.486 1.764-.793l1.734-.872c.565-.307 1.07-.674 1.615-.991l.813-.496c.258-.178.495-.386.743-.584l1.526-1.259c.902-.912 1.853-1.764 2.666-2.765a39.795 39.795 0 0 0 4.46-6.362 58.899 58.899 0 0 0 3.527-7.026 76.383 76.383 0 0 0 2.755-7.403Z" fill="#2C2A46"/></g><path d="M781.847 434.918H211.449c-5.651 0-10.232 4.581-10.232 10.231v299.104h590.861V445.149c0-5.65-4.581-10.231-10.231-10.231Z" fill="#F3F6FA"/><path d="M201.217 445.149c0-5.65 4.581-10.231 10.232-10.231h570.398c5.65 0 10.231 4.581 10.231 10.231v29.16H201.217v-29.16Z" fill="#202C44"/><path d="M216.974 446.735a3.939 3.939 0 0 1 3.939-3.939h100.446a3.939 3.939 0 0 1 3.939 3.939v13.787a3.938 3.938 0 0 1-3.939 3.939H220.913a3.938 3.938 0 0 1-3.939-3.939v-13.787Z" fill="#2D3443"/><path d="M312.494 455.187a.688.688 0 0 1-.44-.162l-2.804-2.354a.341.341 0 0 1 .193-.595.346.346 0 0 1 .246.071l2.805 2.354 2.806-2.349a.335.335 0 0 1 .257-.105.346.346 0 0 1 .25.121.341.341 0 0 1 .029.401.35.35 0 0 1-.097.102l-2.804 2.354a.689.689 0 0 1-.441.162Z" fill="#8CA0B3"/><path d="M236.669 453.628a6.895 6.895 0 1 1-13.79-.001 6.895 6.895 0 0 1 13.79.001Z" fill="#2CC3D5"/><path fill-rule="evenodd" clip-rule="evenodd" d="M241.593 450.674c0-.543.441-.984.985-.984h30.527a.985.985 0 1 1 0 1.969h-30.527a.985.985 0 0 1-.985-.985Zm-.985 6.894a1.97 1.97 0 0 1 1.97-1.97h37.421a1.97 1.97 0 0 1 0 3.939h-37.421a1.97 1.97 0 0 1-1.97-1.969Z" fill="#8CA0B3"/><path fill-rule="evenodd" clip-rule="evenodd" d="M333.176 454.613a1.97 1.97 0 0 1 1.97-1.969h17.726a1.97 1.97 0 0 1 0 3.939h-17.726a1.97 1.97 0 0 1-1.97-1.97Z" fill="#2CC3D5"/><path fill-rule="evenodd" clip-rule="evenodd" d="M361.947 454.899a1.97 1.97 0 0 1 1.97-1.97h22.835a1.97 1.97 0 0 1 0 3.94h-22.835a1.97 1.97 0 0 1-1.97-1.97Z" fill="#8CA0B3"/><path d="M494.424 452.513c-.231-1.172-1.065-1.991-2.286-2.245a8.327 8.327 0 0 0-1.652-.16c-.729 0-1.754.095-2.488.55-1.231.761-1.373 2.272-1.347 3.102.026.831.228 2 1.025 2.824.659.686 1.948 1.013 2.918 1.037v.853a.362.362 0 0 0 .368.37h.034a.353.353 0 0 0 .205-.086c.38-.321.879-.759 1.363-1.211l.215-.197a7.091 7.091 0 0 0 1.047-1.109c.656-.934.88-2.328.598-3.728Z" fill="#2CC3D5"/><path fill-rule="evenodd" clip-rule="evenodd" d="M496.848 454.474c0-.797.646-1.442 1.442-1.442h10.576a1.441 1.441 0 1 1 0 2.884H498.29a1.443 1.443 0 0 1-1.442-1.442Z" fill="#F5F8F9"/><path d="M699.33 456.912c-.256-.311-.556-.742-.594-.888-.074-.278-.111-1.313-.118-1.898a3.216 3.216 0 0 0-2.692-3.171v-.131a.656.656 0 1 0-1.313 0v.131a3.225 3.225 0 0 0-2.688 3.166c0 .59-.043 1.625-.117 1.903-.037.146-.338.577-.594.888a.41.41 0 0 0 .317.671h2.431a.043.043 0 0 0 0 .016c0 .703.551 1.211 1.313 1.211.761 0 1.313-.508 1.313-1.211v-.016h2.429a.403.403 0 0 0 .219-.064.405.405 0 0 0 .094-.607Zm-3.563.689c0 .372-.41.39-.492.39-.082 0-.493-.018-.493-.39v-.017h.985v.017Zm-3.427-.837c.112-.163.2-.341.261-.529.12-.456.141-1.831.143-2.107a2.398 2.398 0 0 1 2.398-2.396h.261a2.396 2.396 0 0 1 2.396 2.401c0 .271.025 1.641.145 2.102.061.188.149.366.26.529h-5.864Z" fill="#8CA0B3"/><path d="M720.831 454.614a5.908 5.908 0 0 1-11.817 0 5.908 5.908 0 1 1 11.817 0Z" fill="#B97CE8"/><path d="M774.994 455.187a.682.682 0 0 1-.44-.161l-2.804-2.354a.341.341 0 0 1 .439-.524l2.805 2.354 2.806-2.35a.346.346 0 0 1 .257-.104.339.339 0 0 1 .327.387.34.34 0 0 1-.145.237l-2.804 2.354a.682.682 0 0 1-.441.161Z" fill="#8CA0B3"/><path fill-rule="evenodd" clip-rule="evenodd" d="M724.77 454.613c0-1.087.881-1.969 1.969-1.969h37.421a1.97 1.97 0 1 1 0 3.939h-37.421a1.97 1.97 0 0 1-1.969-1.97Z" fill="#8CA0B3"/><g filter="url(#welcome-blip__f)"><path d="M774.95 714.649c0 7.882-6.39 14.272-14.272 14.272-7.882 0-14.272-6.39-14.272-14.272 0-7.882 6.39-14.272 14.272-14.272 7.882 0 14.272 6.39 14.272 14.272Z" fill="#2CC3D5"/></g><path d="M766.032 711.802v.002c.405 2.01.076 3.979-.83 5.272a10.145 10.145 0 0 1-1.502 1.591v-.001l-.009.009-.319.292-.002.002a56.146 56.146 0 0 1-2.01 1.786l-.005.004a.198.198 0 0 1-.103.046h-.033l-.003.001a.23.23 0 0 1-.082-.016.221.221 0 0 1-.116-.116.194.194 0 0 1-.015-.083v-1.593l-.324-.008a8.156 8.156 0 0 1-2.244-.386c-.753-.244-1.419-.598-1.856-1.052l-.001-.001c-1.097-1.134-1.391-2.766-1.428-3.971-.038-1.221.181-3.286 1.842-4.314h.001c1.006-.624 2.446-.766 3.519-.766h.001c.8-.003 1.599.074 2.384.231 1.69.351 2.819 1.47 3.135 3.071Z" stroke="#F8FBFB" stroke-width=".663"/><mask id="welcome-blip__g" style="mask-type:alpha" maskUnits="userSpaceOnUse" x="201" y="434" width="592" height="311"><path d="M792.078 434.918H211.449c-5.651 0-10.232 4.581-10.232 10.231v299.268h590.861V434.918Z" fill="#F3F6FA"/></mask><g mask="url(#welcome-blip__g)"><path fill-rule="evenodd" clip-rule="evenodd" d="M282.989 499.276a2.854 2.854 0 0 1 2.854-2.855h85.632a2.855 2.855 0 1 1 0 5.709h-85.632a2.854 2.854 0 0 1-2.854-2.854Z" fill="#8CA0B3"/><path d="m705.422 609.316-414.64.651a4.938 4.938 0 0 0-4.931 4.946l.122 77.467a4.938 4.938 0 0 0 4.946 4.931l414.64-.651a4.94 4.94 0 0 0 4.931-4.947l-.122-77.466a4.938 4.938 0 0 0-4.946-4.931Z" fill="#fff"/><path fill-rule="evenodd" clip-rule="evenodd" d="m686.449 636.343-317.885.532v-.241l317.884-.531.001.24Zm.021 15.921-317.885.51v-.241l317.884-.509.001.24Zm.023 15.923-317.884.509-.001-.24 317.885-.51v.241Z" fill="#B9CBD3"/><path fill-rule="evenodd" clip-rule="evenodd" d="M686.943 634.825a.925.925 0 0 1-.782 1.049l-114.362 16.743a.926.926 0 0 1-.685-.173l-21.663-16.08-38.04 32.693a.926.926 0 0 1-1.174.026l-41.775-32.735-99.562 33.106a.925.925 0 1 1-.584-1.755l100.034-33.264a.928.928 0 0 1 .862.15l41.569 32.574 38.024-32.68a.925.925 0 0 1 1.155-.041l21.949 16.293 113.984-16.687a.925.925 0 0 1 1.05.781Z" fill="#FFCF33"/><path fill-rule="evenodd" clip-rule="evenodd" d="M686.209 629.224a.926.926 0 0 1-.47 1.221l-46.573 20.707a.926.926 0 0 1-.821-.035l-15.719-8.635-47.965 26.572a.928.928 0 0 1-.615.1l-89.365-16.382-115.275 16.72a.925.925 0 1 1-.266-1.831l115.425-16.742a.915.915 0 0 1 .3.005l89.189 16.351 48.121-26.659a.925.925 0 0 1 .894-.001l15.765 8.66 46.154-20.521a.926.926 0 0 1 1.221.47Z" fill="#2CC3D5"/><path fill-rule="evenodd" clip-rule="evenodd" d="M361.511 676.901c0-.263.214-.476.477-.476h5.315a.476.476 0 1 1 0 .953h-5.315a.477.477 0 0 1-.477-.477Zm165.342-.266a.476.476 0 0 1-.475.478l-5.315.023a.477.477 0 0 1-.004-.953l5.315-.022a.476.476 0 0 1 .479.474Zm152.806-.241c0-.263.213-.476.477-.476h5.315a.476.476 0 1 1 0 .953h-5.315a.477.477 0 0 1-.477-.477Z" fill="#B9CBD3"/><path fill-rule="evenodd" clip-rule="evenodd" d="M345.921 661.221a1.85 1.85 0 0 1-1.848 1.852l-32.643.045a1.851 1.851 0 0 1-.005-3.701l32.643-.044a1.851 1.851 0 0 1 1.853 1.848Zm-7.774 8.171a1.85 1.85 0 0 1-1.847 1.853l-24.847.045a1.851 1.851 0 0 1-.007-3.701l24.848-.044a1.849 1.849 0 0 1 1.853 1.847Z" fill="#D2DFE6"/><path d="m319.085 637.759-7.33.011a1.861 1.861 0 0 0-1.858 1.863l.012 7.331a1.86 1.86 0 0 0 1.863 1.857l7.33-.012a1.86 1.86 0 0 0 1.858-1.863l-.012-7.33a1.858 1.858 0 0 0-1.863-1.857Z" fill="#FFCF33"/><path d="m334.365 637.759-7.33.011a1.861 1.861 0 0 0-1.858 1.863l.012 7.331a1.86 1.86 0 0 0 1.863 1.857l7.33-.012a1.86 1.86 0 0 0 1.858-1.863l-.012-7.33a1.86 1.86 0 0 0-1.863-1.857Z" fill="#2CC3D5"/><path d="m710.184 844.648-424.119.687-.222-135.623a4.911 4.911 0 0 1 1.432-3.49 4.927 4.927 0 0 1 3.485-1.448l414.33-.687a4.939 4.939 0 0 1 4.939 4.939l.155 135.622Z" fill="#fff"/><path fill-rule="evenodd" clip-rule="evenodd" d="M353.177 720.515a2.313 2.313 0 0 1-2.308 2.317l-44.027.089a2.313 2.313 0 0 1-.009-4.626l44.026-.088a2.312 2.312 0 0 1 2.318 2.308Zm105.239-.154a2.313 2.313 0 0 1-2.309 2.317l-13.222.022a2.312 2.312 0 1 1-.007-4.625l13.221-.023a2.314 2.314 0 0 1 2.317 2.309Zm48.411-.089a2.311 2.311 0 0 1-2.308 2.317l-13.199.022a2.312 2.312 0 1 1-.008-4.625l13.199-.022a2.311 2.311 0 0 1 2.316 2.308Zm61.786-.089a2.314 2.314 0 0 1-2.309 2.317l-13.221.022a2.313 2.313 0 1 1-.008-4.626l13.221-.022a2.314 2.314 0 0 1 2.317 2.309Zm61.766-.109a2.313 2.313 0 0 1-2.308 2.317l-13.222.022a2.313 2.313 0 0 1-.007-4.626l13.221-.022a2.313 2.313 0 0 1 2.316 2.309Z" fill="#D2DFE6"/><path d="m699.429 736.61-403.013.633.034 21.748 403.013-.633-.034-21.748Z" fill="#fff"/><path d="M311.999 753.186a5.115 5.115 0 1 0 0-10.23 5.115 5.115 0 0 0 0 10.23Z" fill="#2CC3D5"/><path fill-rule="evenodd" clip-rule="evenodd" d="M699.508 734.117a.066.066 0 0 1-.065.065l-403.013.642a.065.065 0 0 1-.065-.065c0-.036.029-.065.064-.065l403.014-.642c.036 0 .065.029.065.065Z" fill="#B9CBD3"/><path d="m705.421 514.513-306.877.482a4.94 4.94 0 0 0-4.931 4.947l.122 77.466a4.938 4.938 0 0 0 4.946 4.931l306.878-.482a4.938 4.938 0 0 0 4.93-4.946l-.121-77.467a4.94 4.94 0 0 0-4.947-4.931Z" fill="#fff"/><path fill-rule="evenodd" clip-rule="evenodd" d="M446.426 570.92a1.85 1.85 0 0 1-1.848 1.852l-19.267.022a1.85 1.85 0 1 1-.004-3.7l19.267-.022a1.849 1.849 0 0 1 1.852 1.848Z" fill="#B9CBD3"/><path fill-rule="evenodd" clip-rule="evenodd" d="M452.19 577.033a.926.926 0 0 1-.924.927l-32.621.044a.924.924 0 1 1-.002-1.85l32.621-.044a.925.925 0 0 1 .926.923Z" fill="#D2DFE6"/><path d="M434.921 563.614c6.47 0 11.716-5.245 11.716-11.715s-5.246-11.715-11.716-11.715c-6.47 0-11.715 5.245-11.715 11.715s5.245 11.715 11.715 11.715Z" fill="#2CC3D5"/><path opacity=".5" d="M440.745 549.087a2.704 2.704 0 0 0-2.215-2.215 6.713 6.713 0 0 0-1.528-.155 4.61 4.61 0 0 0-2.348.532 2.718 2.718 0 0 0-1.129 1.506c.609.025 1.202.2 1.727.509a3.227 3.227 0 0 1 1.351 2.99 5.041 5.041 0 0 1-.31 1.616c.177.022.355.022.532 0v.51a.594.594 0 0 0 .369.552c.072.03.15.046.229.046a.981.981 0 0 0 .354-.133l1.218-1.085.177-.178c.364-.308.691-.657.975-1.04.64-1.031.854-2.27.598-3.455Z" fill="#fff"/><path d="M432.439 557.058a.558.558 0 0 1-.31-.132l-1.24-1.086-.177-.177c-.363-.3-.69-.642-.974-1.018a4.83 4.83 0 0 1-.598-3.544 2.788 2.788 0 0 1 2.214-2.214 6.602 6.602 0 0 1 1.528-.155 4.61 4.61 0 0 1 2.348.531 3.239 3.239 0 0 1 1.351 2.99 3.435 3.435 0 0 1-2.101 3.434 3.42 3.42 0 0 1-1.398.264v.51a.618.618 0 0 1-.643.597Zm-.863-7.286a1.842 1.842 0 0 0-1.528 1.506 3.897 3.897 0 0 0 .354 2.791c.257.316.538.613.841.886l.2.177.686.62v-.199a.53.53 0 0 1 .532-.532 3.629 3.629 0 0 0 2.214-.731c.485-.592.736-1.34.709-2.104a2.433 2.433 0 0 0-.886-2.214 3.645 3.645 0 0 0-1.882-.399 6.663 6.663 0 0 0-1.351.133l.111.066Z" fill="#fff"/><path d="M512.077 563.481c6.47 0 11.715-5.246 11.715-11.716 0-6.47-5.245-11.715-11.715-11.715-6.471 0-11.716 5.245-11.716 11.715s5.245 11.716 11.716 11.716Z" fill="#4DCB7B"/><path d="M517.37 549.087a3.898 3.898 0 0 0-3.211-3.167 12.193 12.193 0 0 0-2.214-.221 6.644 6.644 0 0 0-3.433.775c-.6.37-1.078.91-1.373 1.55a.444.444 0 0 0 .199.598.465.465 0 0 0 .62-.199c.215-.484.57-.893 1.019-1.174a5.952 5.952 0 0 1 2.968-.642c.698.008 1.394.075 2.081.199a3.034 3.034 0 0 1 2.503 2.458 5.891 5.891 0 0 1-.687 4.429c-.382.506-.82.967-1.306 1.373l-.288.266c-.487.465-.997.908-1.418 1.285v-.775a.596.596 0 0 0-.043-.221.587.587 0 0 0-.532-.355 5.65 5.65 0 0 1-3.61-1.196.442.442 0 0 0-.642 0 .462.462 0 0 0 0 .642 6.205 6.205 0 0 0 3.853 1.44v.974a.664.664 0 0 0 .664.687.626.626 0 0 0 .377-.155 34.598 34.598 0 0 0 1.838-1.639l.288-.266a10.301 10.301 0 0 0 1.439-1.506 6.8 6.8 0 0 0 .908-5.16Z" fill="#fff"/><path d="M510.061 553.007a.6.6 0 0 0 0 .82.502.502 0 0 0 .399.132.55.55 0 0 0 .421-.177l1.971-2.214-1.993-2.215a.553.553 0 0 0-.798 0 .599.599 0 0 0 0 .819l1.108 1.174h-3.942a.575.575 0 0 0 0 1.152h3.942l-1.108.509Z" fill="#fff"/><path fill-rule="evenodd" clip-rule="evenodd" d="M523.605 570.788a1.85 1.85 0 0 1-1.848 1.852l-19.267.022a1.85 1.85 0 1 1-.004-3.7l19.267-.023a1.85 1.85 0 0 1 1.852 1.849Z" fill="#B9CBD3"/><path fill-rule="evenodd" clip-rule="evenodd" d="M529.369 576.899a.925.925 0 0 1-.923.927l-32.644.066a.926.926 0 0 1-.003-1.85l32.643-.066a.925.925 0 0 1 .927.923Z" fill="#D2DFE6"/><path d="M589.698 563.348c6.47 0 11.715-5.245 11.715-11.715s-5.245-11.715-11.715-11.715-11.715 5.245-11.715 11.715 5.245 11.715 11.715 11.715Z" fill="#517BF2"/><path d="M591.581 554.688h-.111l-.266.266-1.328 1.174v-.709a.527.527 0 0 0-.156-.398.534.534 0 0 0-.398-.155 5.334 5.334 0 0 1-3.366-1.108 4.76 4.76 0 0 1-1.108-3.144 3.706 3.706 0 0 1 1.373-3.322 5.427 5.427 0 0 1 2.813-.598 9.242 9.242 0 0 1 1.949.177c.274.062.541.151.797.266a.468.468 0 0 0 .748-.365.462.462 0 0 0-.349-.455 3.81 3.81 0 0 0-.997-.332 11.203 11.203 0 0 0-2.214-.221 6.351 6.351 0 0 0-3.278.753 4.428 4.428 0 0 0-1.816 4.141 4.744 4.744 0 0 0 1.352 3.693 4.735 4.735 0 0 0 3.675 1.401v.907a.689.689 0 0 0 .687.665.8.8 0 0 0 .376-.155c.487-.421 1.13-.975 1.75-1.55l.265-.266h.111a.46.46 0 0 0 .223-.334.459.459 0 0 0-.12-.383.464.464 0 0 0-.723.052h.111Z" fill="#fff"/><path d="M595.457 551.168v-.133l-1.882-2.037a.557.557 0 0 0-.797 0 .594.594 0 0 0 0 .819l.996 1.063h-3.698a.574.574 0 0 0-.333.93.574.574 0 0 0 .333.2h3.698l-.996 1.085a.536.536 0 0 0-.17.398.554.554 0 0 0 .568.554.567.567 0 0 0 .233-.053.569.569 0 0 0 .188-.146l1.86-2.038v-.642Z" fill="#fff"/><path fill-rule="evenodd" clip-rule="evenodd" d="M601.205 570.653a1.85 1.85 0 0 1-1.846 1.855l-19.267.044a1.85 1.85 0 1 1-.008-3.701l19.267-.044a1.85 1.85 0 0 1 1.854 1.846Z" fill="#B9CBD3"/><path fill-rule="evenodd" clip-rule="evenodd" d="M606.968 576.768a.925.925 0 0 1-.923.927l-32.621.067a.925.925 0 1 1-.004-1.85l32.621-.067a.925.925 0 0 1 .927.923Z" fill="#D2DFE6"/><path d="M669.18 563.216c6.47 0 11.715-5.245 11.715-11.715s-5.245-11.715-11.715-11.715c-6.471 0-11.716 5.245-11.716 11.715s5.245 11.715 11.716 11.715Z" fill="#FFCF33"/><path d="M674.496 548.82a3.942 3.942 0 0 0-3.211-3.144 12.196 12.196 0 0 0-2.215-.222 6.64 6.64 0 0 0-3.432.775 4.603 4.603 0 0 0-1.883 4.319 5.848 5.848 0 0 0 1.417 3.92 6.066 6.066 0 0 0 3.854 1.439v.975a.624.624 0 0 0 .188.476.638.638 0 0 0 .476.188.62.62 0 0 0 .377-.155c.509-.443 1.173-1.019 1.838-1.639l.288-.266a9.275 9.275 0 0 0 1.439-1.505 7.002 7.002 0 0 0 .864-5.161Zm-1.528 4.629c-.389.5-.827.96-1.307 1.373l-.288.266c-.487.465-.996.908-1.417 1.284v-.797a.575.575 0 0 0-.576-.576 5.578 5.578 0 0 1-3.543-1.151 4.896 4.896 0 0 1-1.174-3.322 3.883 3.883 0 0 1 1.462-3.521 5.633 5.633 0 0 1 2.945-.643c.692-.004 1.382.063 2.06.2a3.035 3.035 0 0 1 2.524 2.458 5.934 5.934 0 0 1-.686 4.429Z" fill="#fff"/><path d="M669.182 548.047a.79.79 0 0 0-.421.155.46.46 0 0 0-.177.376l.288 3.012a.396.396 0 0 0 0 .221.264.264 0 0 0 .199 0h.199a.388.388 0 0 0 0-.243l.288-2.99a.469.469 0 0 0-.155-.376.696.696 0 0 0-.221-.155Zm-.001 4.384a.6.6 0 0 0-.421.177.645.645 0 0 0-.155.399.58.58 0 0 0 .359.542.503.503 0 0 0 .217.034.55.55 0 0 0 .421-.155.65.65 0 0 0 .155-.421.558.558 0 0 0-.178-.399.512.512 0 0 0-.398-.177Z" fill="#fff"/><path fill-rule="evenodd" clip-rule="evenodd" d="M680.688 570.519a1.851 1.851 0 0 1-1.846 1.855l-19.267.044a1.851 1.851 0 0 1-.009-3.7l19.267-.045a1.851 1.851 0 0 1 1.855 1.846Z" fill="#B9CBD3"/><path fill-rule="evenodd" clip-rule="evenodd" d="M686.472 576.658a.925.925 0 0 1-.923.927l-32.644.044a.925.925 0 1 1-.002-1.85l32.643-.044a.924.924 0 0 1 .926.923Z" fill="#D2DFE6"/><path opacity=".7" fill-rule="evenodd" clip-rule="evenodd" d="m470.667 588.242-.11-59.373.259-.001.11 59.374h-.259Z" fill="#DEE8EC"/><path d="m382.777 515.021-91.994.145a4.938 4.938 0 0 0-4.931 4.946l.048 30.606a4.94 4.94 0 0 0 4.946 4.931l91.995-.145a4.94 4.94 0 0 0 4.931-4.946l-.048-30.606a4.94 4.94 0 0 0-4.947-4.931Z" fill="#fff"/><path d="M310.614 545.255c5.455 0 9.878-4.422 9.878-9.877 0-5.455-4.423-9.877-9.878-9.877s-9.877 4.422-9.877 9.877c0 5.455 4.422 9.877 9.877 9.877Z" fill="#F66689"/><path fill-rule="evenodd" clip-rule="evenodd" d="M358.263 530.725a1.85 1.85 0 0 1-1.847 1.853l-26.243.044a1.85 1.85 0 0 1-.007-3.7l26.243-.045a1.852 1.852 0 0 1 1.854 1.848Z" fill="#738192"/><path fill-rule="evenodd" clip-rule="evenodd" d="M373.815 539.85a.926.926 0 0 1-.924.927l-44.403.088a.925.925 0 0 1-.003-1.85l44.403-.088a.924.924 0 0 1 .927.923Z" fill="#D2DFE6"/><path d="m382.828 561.903-91.995.145a4.94 4.94 0 0 0-4.931 4.946l.048 30.606a4.94 4.94 0 0 0 4.947 4.931l91.994-.145a4.938 4.938 0 0 0 4.931-4.946l-.048-30.606a4.94 4.94 0 0 0-4.946-4.931Z" fill="#fff"/><path fill-rule="evenodd" clip-rule="evenodd" d="M358.329 577.585a1.85 1.85 0 0 1-1.847 1.854l-26.221.044a1.849 1.849 0 1 1-.006-3.7l26.221-.045a1.85 1.85 0 0 1 1.853 1.847Z" fill="#738192"/><path fill-rule="evenodd" clip-rule="evenodd" d="M373.904 586.733a.925.925 0 0 1-.924.926l-44.425.066a.924.924 0 1 1-.002-1.85l44.425-.066a.925.925 0 0 1 .926.924Z" fill="#D2DFE6"/><path d="M310.681 592.139c5.455 0 9.877-4.422 9.877-9.877 0-5.455-4.422-9.877-9.877-9.877-5.455 0-9.877 4.422-9.877 9.877 0 5.455 4.422 9.877 9.877 9.877Z" fill="#55CFFF"/><path fill-rule="evenodd" clip-rule="evenodd" d="M309.493 535.107a2.073 2.073 0 1 0-.001-4.146 2.073 2.073 0 0 0 .001 4.146Zm0-3.457a1.387 1.387 0 0 1 1.278.854 1.383 1.383 0 1 1-2.66.529 1.382 1.382 0 0 1 1.382-1.379v-.004Zm3.465 6.365-.935.88-.346-.316a.341.341 0 0 0-.379-.061.335.335 0 0 0-.18.195.335.335 0 0 0-.021.133.347.347 0 0 0 .11.241l.578.535a.347.347 0 0 0 .471-.001l1.177-1.103a.345.345 0 1 0-.475-.503Zm-1.348-1.754a2.434 2.434 0 0 1 1.933.223 2.434 2.434 0 0 1 1.221 2.116 2.446 2.446 0 0 1-1.221 2.115 2.437 2.437 0 0 1-2.443.001 2.449 2.449 0 0 1-.895-.893h-3.323a.663.663 0 0 1-.658-.66v-.576a2.937 2.937 0 0 1 2.937-2.938h.662a2.94 2.94 0 0 1 1.787.612Zm-1.193.809.023-.03c.035-.039.069-.077.107-.117l.078-.08.099-.091.121-.095.052-.043a2.221 2.221 0 0 0-1.072-.275h-.662a2.246 2.246 0 0 0-2.246 2.246v.543h3.01a1.946 1.946 0 0 1-.036-.216v-.047a2.482 2.482 0 0 1 .001-.534l.006-.037a4.094 4.094 0 0 1 .039-.232l.018-.066.014-.05a1.608 1.608 0 0 1 .041-.135l.036-.099.011-.027c.013-.035.025-.06.044-.101l.002-.006a5.5 5.5 0 0 1 .066-.137l.02-.033.013-.02c.058-.104.125-.203.199-.296l.016-.022Zm.959 3.007c.282.181.611.278.946.278l-.022.012a1.756 1.756 0 0 0 1.419-2.786 1.756 1.756 0 0 0-2.067-.598c-.033.012-.063.027-.094.042l-.015.007-.024.01-.095.052-.044.026-.076.048-.114.085-.02.021a1.225 1.225 0 0 0-.101.09l-.019.019c-.034.034-.067.072-.1.11a1.794 1.794 0 0 0-.254.418v.014a1.806 1.806 0 0 0-.097.311.229.229 0 0 1 0 .037l-.007.038c-.006.028-.012.056-.012.084v.408a1.768 1.768 0 0 0 .796 1.274Zm4.188 38.15a1.742 1.742 0 0 0-1.422-1.402 4.799 4.799 0 0 0-.942-.093c-.427 0-1.028.057-1.472.333-.57.346-.864 1.024-.842 1.889.014.493.133 1.184.617 1.689.391.404 1.037.57 1.514.618v.241a.436.436 0 0 0 .437.437h.047a.437.437 0 0 0 .237-.102c.207-.173.478-.413.746-.662l.114-.105a4.01 4.01 0 0 0 .602-.64c.39-.56.527-1.382.364-2.203Zm-.931 1.806c-.15.189-.317.362-.501.518l-.119.109c-.102.095-.206.188-.306.278a.394.394 0 0 0-.389-.357c-.448 0-1.061-.159-1.315-.424a1.853 1.853 0 0 1-.427-1.216c-.011-.346.041-.989.518-1.281a2.21 2.21 0 0 1 1.11-.23c.268 0 .536.026.8.078a1.062 1.062 0 0 1 .886.864c.099.484.08 1.182-.257 1.661Zm-5.672 2.694a1.921 1.921 0 0 0 1.878-2.295 1.917 1.917 0 1 0-1.878 2.295Zm0-3.144a1.23 1.23 0 0 1 1.2 1.469 1.228 1.228 0 1 1-1.2-1.469Zm-.3 3.576h.603a2.707 2.707 0 0 1 2.704 2.704v.519a.629.629 0 0 1-.632.632h-4.749a.63.63 0 0 1-.631-.632v-.519a2.707 2.707 0 0 1 2.705-2.704Zm-2.014 3.169h4.63v-.465a2.014 2.014 0 0 0-2.013-2.013h-.603a2.022 2.022 0 0 0-1.424.59c-.377.378-.589.89-.59 1.423v.465Z" fill="#fff"/></g><g filter="url(#welcome-blip__h)"><path d="M959.32 573.042H428.865c-5.651 0-10.232 4.58-10.232 10.231v262.605c0 5.65 4.581 10.231 10.232 10.231h520.224c5.651 0 10.231-4.581 10.231-10.231V573.042Z" fill="#F5F8F9"/><path fill-rule="evenodd" clip-rule="evenodd" d="M959.321 837.247H418.634v-.784h540.687v.784Z" fill="#DEE8EC"/><g filter="url(#welcome-blip__i)"><path d="M418.634 606.998h540.687v28.732H418.634v-28.732Z" fill="#fff"/></g><path fill-rule="evenodd" clip-rule="evenodd" d="M429.082 622.67a2.611 2.611 0 0 1 2.612-2.612h78.36a2.611 2.611 0 1 1 0 5.224h-78.36a2.612 2.612 0 0 1-2.612-2.612Z" fill="#8CA0B3"/><path fill-rule="evenodd" clip-rule="evenodd" d="M901.364 615.617h-32.941a2.352 2.352 0 0 0-2.351 2.351v6.791a2.35 2.35 0 0 0 2.351 2.351h32.941a2.35 2.35 0 0 0 2.351-2.351v-6.791a2.352 2.352 0 0 0-2.351-2.351Zm-32.941-.783a3.134 3.134 0 0 0-3.134 3.134v6.791a3.135 3.135 0 0 0 3.134 3.135h32.941a3.135 3.135 0 0 0 3.134-3.135v-6.791a3.134 3.134 0 0 0-3.134-3.134h-32.941Z" fill="#2CC3D5"/><path d="M909.665 617.968a3.134 3.134 0 0 1 3.134-3.134h32.941a3.134 3.134 0 0 1 3.134 3.134v6.791a3.135 3.135 0 0 1-3.134 3.135h-32.941a3.135 3.135 0 0 1-3.134-3.135v-6.791Z" fill="#2CC3D5"/><path d="m858.004 625.316-1.703-1.703a4.202 4.202 0 1 0-.668.615l1.729 1.729a.46.46 0 0 0 .321.134.446.446 0 0 0 .319-.134.454.454 0 0 0 .002-.641Zm-8.162-4.473a3.293 3.293 0 0 1 2.037-3.048 3.299 3.299 0 1 1-1.071 5.38 3.302 3.302 0 0 1-.968-2.332h.002Z" fill="#738192"/><path d="M418.633 583.273c0-5.651 4.581-10.231 10.232-10.231h523.634a6.82 6.82 0 0 1 6.821 6.82v29.225H418.633v-25.814Z" fill="#202C44"/><path d="M433.052 583.855a3.605 3.605 0 0 1 3.605-3.604h91.917a3.605 3.605 0 0 1 3.604 3.604v12.616a3.605 3.605 0 0 1-3.604 3.605h-91.917a3.605 3.605 0 0 1-3.605-3.605v-12.616Z" fill="#2D3443"/><path d="M520.462 591.589a.627.627 0 0 1-.403-.147l-2.566-2.154a.316.316 0 0 1-.031-.434.314.314 0 0 1 .433-.046l2.567 2.154 2.567-2.15a.309.309 0 0 1 .236-.095.312.312 0 0 1 .166.571l-2.566 2.154a.625.625 0 0 1-.403.147Z" fill="#8CA0B3"/><path d="M451.074 590.163a6.308 6.308 0 1 1-12.616 0 6.308 6.308 0 0 1 12.616 0Z" fill="#2CC3D5"/><path fill-rule="evenodd" clip-rule="evenodd" d="M455.581 587.46a.9.9 0 0 1 .901-.901h27.935a.9.9 0 1 1 0 1.802h-27.935a.9.9 0 0 1-.901-.901Zm-.902 6.308c0-.996.807-1.802 1.802-1.802h34.244a1.802 1.802 0 1 1 0 3.604h-34.244a1.802 1.802 0 0 1-1.802-1.802Z" fill="#8CA0B3"/><path fill-rule="evenodd" clip-rule="evenodd" d="M539.387 591.064c0-.995.807-1.802 1.802-1.802h16.221a1.802 1.802 0 0 1 0 3.604h-16.221a1.802 1.802 0 0 1-1.802-1.802Z" fill="#2CC3D5"/><path fill-rule="evenodd" clip-rule="evenodd" d="M565.716 591.325c0-.995.807-1.802 1.802-1.802h20.896a1.802 1.802 0 1 1 0 3.605h-20.896a1.802 1.802 0 0 1-1.802-1.803Z" fill="#8CA0B3"/><path d="M686.942 589.142c-.211-1.072-.974-1.822-2.092-2.054a7.663 7.663 0 0 0-1.511-.147c-.668 0-1.605.087-2.277.504-1.127.697-1.256 2.079-1.232 2.839.023.76.208 1.829.937 2.583.603.628 1.783.928 2.67.95v.78a.338.338 0 0 0 .338.339h.031a.324.324 0 0 0 .187-.079 34.71 34.71 0 0 0 1.247-1.108l.197-.18a6.49 6.49 0 0 0 .958-1.016c.6-.854.806-2.13.547-3.411Z" fill="#2CC3D5"/><path fill-rule="evenodd" clip-rule="evenodd" d="M689.161 590.937c0-.729.591-1.32 1.32-1.32h9.678a1.32 1.32 0 0 1 0 2.64h-9.678a1.32 1.32 0 0 1-1.32-1.32Z" fill="#F5F8F9"/><path d="M874.449 593.167c-.235-.283-.509-.678-.544-.812-.068-.254-.102-1.202-.108-1.736a2.945 2.945 0 0 0-2.463-2.902v-.12a.601.601 0 0 0-1.202 0v.12a2.947 2.947 0 0 0-2.46 2.897c0 .539-.039 1.487-.107 1.741-.034.134-.309.529-.543.812a.373.373 0 0 0-.05.399c.03.065.078.119.139.157.06.039.129.059.201.059h2.224a.038.038 0 0 0 0 .015c0 .643.505 1.108 1.201 1.108.697 0 1.202-.465 1.202-1.108v-.015h2.223a.376.376 0 0 0 .339-.215.38.38 0 0 0-.052-.4Zm-3.261.631c0 .341-.375.358-.451.358-.075 0-.45-.017-.45-.358v-.015h.901v.015Zm-3.136-.766c.102-.149.183-.312.239-.483.11-.418.129-1.676.131-1.929a2.195 2.195 0 0 1 2.194-2.193h.239a2.196 2.196 0 0 1 2.192 2.198c0 .248.023 1.502.133 1.924.056.171.137.334.238.483h-5.366Z" fill="#8CA0B3"/><path d="M894.125 591.065a5.407 5.407 0 1 1-10.815 0 5.407 5.407 0 0 1 10.815 0Z" fill="#B97CE8"/><path d="M943.688 591.589a.622.622 0 0 1-.403-.148l-2.566-2.154a.313.313 0 0 1 .402-.479l2.567 2.154 2.567-2.15a.318.318 0 0 1 .236-.096.315.315 0 0 1 .29.226.313.313 0 0 1-.124.345l-2.566 2.154a.62.62 0 0 1-.403.148Z" fill="#8CA0B3"/><path fill-rule="evenodd" clip-rule="evenodd" d="M897.729 591.064c0-.995.807-1.802 1.802-1.802h34.244a1.802 1.802 0 0 1 0 3.605h-34.244a1.802 1.802 0 0 1-1.802-1.803Z" fill="#8CA0B3"/><g filter="url(#welcome-blip__j)"><path d="M657.392 668.25v57.474a9.012 9.012 0 0 0 9.012 9.012h46.604a9.012 9.012 0 0 0 9.012-9.012V668.25a9.012 9.012 0 0 0-9.012-9.012h-46.604a9.012 9.012 0 0 0-9.012 9.012Z" fill="#fff"/><path d="M689.687 698.724c6.722 0 12.171-5.449 12.171-12.171 0-6.722-5.449-12.171-12.171-12.171-6.722 0-12.171 5.449-12.171 12.171 0 6.722 5.449 12.171 12.171 12.171Z" fill="#B97CE8"/><path fill-rule="evenodd" clip-rule="evenodd" d="M673.892 709.149a2.473 2.473 0 0 1 2.473-2.473h26.665a2.473 2.473 0 1 1 0 4.947h-26.665a2.474 2.474 0 0 1-2.473-2.474Zm4.588 10.444a2.474 2.474 0 0 1 2.474-2.474h17.467a2.474 2.474 0 0 1 0 4.947h-17.467a2.474 2.474 0 0 1-2.474-2.473Z" fill="#D2DFE6"/><path d="M575.889 668.25v57.474a9.012 9.012 0 0 0 9.012 9.012h46.603a9.012 9.012 0 0 0 9.012-9.012V668.25a9.012 9.012 0 0 0-9.012-9.012h-46.603a9.012 9.012 0 0 0-9.012 9.012Z" fill="#fff"/><path d="M608.183 698.724c6.722 0 12.171-5.449 12.171-12.171 0-6.722-5.449-12.171-12.171-12.171-6.722 0-12.171 5.449-12.171 12.171 0 6.722 5.449 12.171 12.171 12.171Z" fill="#517BF2"/><path fill-rule="evenodd" clip-rule="evenodd" d="M592.388 709.149a2.474 2.474 0 0 1 2.474-2.473h26.665a2.473 2.473 0 1 1 0 4.947h-26.665a2.474 2.474 0 0 1-2.474-2.474Zm4.59 10.444a2.474 2.474 0 0 1 2.473-2.474h17.467a2.474 2.474 0 0 1 0 4.947h-17.467a2.473 2.473 0 0 1-2.473-2.473Z" fill="#D2DFE6"/><path d="M494.382 668.25v57.474a9.012 9.012 0 0 0 9.013 9.012h46.603a9.012 9.012 0 0 0 9.012-9.012V668.25a9.012 9.012 0 0 0-9.012-9.012h-46.603a9.012 9.012 0 0 0-9.013 9.012Z" fill="#fff"/><path d="M526.678 698.725c6.722 0 12.172-5.449 12.172-12.171 0-6.722-5.45-12.171-12.172-12.171s-12.171 5.449-12.171 12.171c0 6.722 5.449 12.171 12.171 12.171Z" fill="#BED42B"/><path fill-rule="evenodd" clip-rule="evenodd" d="M510.882 709.15a2.473 2.473 0 0 1 2.473-2.473h26.665a2.474 2.474 0 1 1 0 4.946h-26.665a2.473 2.473 0 0 1-2.473-2.473Zm4.589 10.443a2.474 2.474 0 0 1 2.474-2.473h17.467a2.473 2.473 0 1 1 0 4.946h-17.467a2.474 2.474 0 0 1-2.474-2.473Z" fill="#D2DFE6"/><path d="M820.405 668.25v57.474a9.012 9.012 0 0 0 9.012 9.012h46.604a9.012 9.012 0 0 0 9.012-9.012V668.25a9.012 9.012 0 0 0-9.012-9.012h-46.604a9.012 9.012 0 0 0-9.012 9.012Z" fill="#fff"/><path d="M852.699 698.724c6.722 0 12.172-5.449 12.172-12.171 0-6.722-5.45-12.171-12.172-12.171s-12.171 5.449-12.171 12.171c0 6.722 5.449 12.171 12.171 12.171Z" fill="#F66689"/><path fill-rule="evenodd" clip-rule="evenodd" d="M836.905 709.149a2.473 2.473 0 0 1 2.473-2.473h26.665a2.474 2.474 0 1 1 0 4.947h-26.665a2.474 2.474 0 0 1-2.473-2.474Zm4.591 10.444a2.474 2.474 0 0 1 2.473-2.474h17.467a2.474 2.474 0 0 1 0 4.947h-17.467a2.473 2.473 0 0 1-2.473-2.473Z" fill="#D2DFE6"/><path d="M738.898 668.251v57.474a9.012 9.012 0 0 0 9.013 9.012h46.603a9.012 9.012 0 0 0 9.012-9.012v-57.474a9.012 9.012 0 0 0-9.012-9.012h-46.603a9.012 9.012 0 0 0-9.013 9.012Z" fill="#fff"/><path d="M771.195 698.725c6.721 0 12.171-5.449 12.171-12.171 0-6.722-5.45-12.171-12.171-12.171-6.722 0-12.172 5.449-12.172 12.171 0 6.722 5.45 12.171 12.172 12.171Z" fill="#F9B42F"/><path fill-rule="evenodd" clip-rule="evenodd" d="M755.398 709.15a2.473 2.473 0 0 1 2.473-2.473h26.665a2.474 2.474 0 1 1 0 4.947h-26.665a2.474 2.474 0 0 1-2.473-2.474Zm4.589 10.444a2.474 2.474 0 0 1 2.474-2.474h17.467a2.474 2.474 0 0 1 0 4.947h-17.467a2.474 2.474 0 0 1-2.474-2.473Z" fill="#D2DFE6"/></g><g filter="url(#welcome-blip__k)"><path d="M657.393 752.084v57.474a9.012 9.012 0 0 0 9.012 9.012h46.603a9.012 9.012 0 0 0 9.012-9.012v-57.474a9.012 9.012 0 0 0-9.012-9.012h-46.603a9.012 9.012 0 0 0-9.012 9.012Z" fill="#fff"/><path d="M689.687 782.559c6.722 0 12.171-5.449 12.171-12.171 0-6.722-5.449-12.171-12.171-12.171-6.722 0-12.171 5.449-12.171 12.171 0 6.722 5.449 12.171 12.171 12.171Z" fill="#F99B45"/><path fill-rule="evenodd" clip-rule="evenodd" d="M673.892 792.983a2.473 2.473 0 0 1 2.473-2.473h26.665a2.474 2.474 0 1 1 0 4.947h-26.665a2.474 2.474 0 0 1-2.473-2.474Zm4.589 10.444a2.473 2.473 0 0 1 2.473-2.473h17.467a2.474 2.474 0 1 1 0 4.946h-17.467a2.473 2.473 0 0 1-2.473-2.473Z" fill="#D2DFE6"/><path d="M575.89 752.084v57.474a9.012 9.012 0 0 0 9.012 9.012h46.603a9.012 9.012 0 0 0 9.012-9.012v-57.474a9.012 9.012 0 0 0-9.012-9.012h-46.603a9.012 9.012 0 0 0-9.012 9.012Z" fill="#fff"/><path d="M608.184 782.559c6.722 0 12.171-5.449 12.171-12.171 0-6.722-5.449-12.171-12.171-12.171-6.722 0-12.171 5.449-12.171 12.171 0 6.722 5.449 12.171 12.171 12.171Z" fill="#2CC3D5"/><path fill-rule="evenodd" clip-rule="evenodd" d="M592.389 792.983a2.474 2.474 0 0 1 2.474-2.473h26.665a2.473 2.473 0 1 1 0 4.947h-26.665a2.474 2.474 0 0 1-2.474-2.474Zm4.59 10.444a2.473 2.473 0 0 1 2.473-2.473h17.467a2.473 2.473 0 1 1 0 4.947h-17.467a2.474 2.474 0 0 1-2.473-2.474Z" fill="#D2DFE6"/><path d="M494.383 752.084v57.474a9.012 9.012 0 0 0 9.013 9.012h46.603a9.012 9.012 0 0 0 9.012-9.012v-57.474a9.012 9.012 0 0 0-9.012-9.012h-46.603a9.012 9.012 0 0 0-9.013 9.012Z" fill="#fff"/><path d="M526.679 782.559c6.722 0 12.172-5.449 12.172-12.171 0-6.722-5.45-12.171-12.172-12.171s-12.171 5.449-12.171 12.171c0 6.722 5.449 12.171 12.171 12.171Z" fill="#CF5358"/><path fill-rule="evenodd" clip-rule="evenodd" d="M510.883 792.985a2.474 2.474 0 0 1 2.473-2.474h26.665a2.474 2.474 0 0 1 0 4.947h-26.665a2.473 2.473 0 0 1-2.473-2.473Zm4.589 10.442a2.474 2.474 0 0 1 2.474-2.473h17.466a2.473 2.473 0 1 1 0 4.947h-17.466a2.474 2.474 0 0 1-2.474-2.474Z" fill="#D2DFE6"/><path d="M820.405 752.084v57.474a9.012 9.012 0 0 0 9.012 9.012h46.603a9.012 9.012 0 0 0 9.013-9.012v-57.474a9.012 9.012 0 0 0-9.013-9.012h-46.603a9.012 9.012 0 0 0-9.012 9.012Z" fill="#fff"/><path d="M852.699 782.56c6.722 0 12.171-5.45 12.171-12.172s-5.449-12.171-12.171-12.171c-6.722 0-12.171 5.449-12.171 12.171 0 6.722 5.449 12.172 12.171 12.172Z" fill="#4AA86C"/><path fill-rule="evenodd" clip-rule="evenodd" d="M836.904 792.984a2.474 2.474 0 0 1 2.474-2.474h26.665a2.474 2.474 0 0 1 0 4.947h-26.665a2.474 2.474 0 0 1-2.474-2.473Zm4.591 10.443a2.473 2.473 0 0 1 2.473-2.473h17.467a2.474 2.474 0 1 1 0 4.947h-17.467a2.474 2.474 0 0 1-2.473-2.474Z" fill="#D2DFE6"/><path d="M738.899 752.085v57.474a9.012 9.012 0 0 0 9.012 9.012h46.603a9.012 9.012 0 0 0 9.013-9.012v-57.474a9.012 9.012 0 0 0-9.013-9.012h-46.603a9.012 9.012 0 0 0-9.012 9.012Z" fill="#fff"/><path d="M771.195 782.56c6.722 0 12.171-5.449 12.171-12.171 0-6.722-5.449-12.171-12.171-12.171-6.722 0-12.171 5.449-12.171 12.171 0 6.722 5.449 12.171 12.171 12.171Z" fill="#55CFFF"/><path fill-rule="evenodd" clip-rule="evenodd" d="M755.398 792.985a2.474 2.474 0 0 1 2.474-2.474h26.665a2.474 2.474 0 0 1 0 4.947h-26.665a2.474 2.474 0 0 1-2.474-2.473Zm4.59 10.443a2.473 2.473 0 0 1 2.473-2.473h17.467a2.473 2.473 0 1 1 0 4.947h-17.467a2.474 2.474 0 0 1-2.473-2.474Z" fill="#D2DFE6"/></g><g filter="url(#welcome-blip__l)"><path d="M943.648 829.019c0 7.213-5.847 13.06-13.06 13.06-7.212 0-13.06-5.847-13.06-13.06s5.848-13.06 13.06-13.06c7.213 0 13.06 5.847 13.06 13.06Z" fill="#2CC3D5"/></g><path d="M935.486 826.415v.001c.371 1.839.07 3.642-.76 4.825a9.231 9.231 0 0 1-1.374 1.455l-.008.007-.292.268-.002.002a50.958 50.958 0 0 1-1.839 1.634l-.004.003a.172.172 0 0 1-.095.043h-.033a.185.185 0 0 1-.139-.057.204.204 0 0 1-.042-.063.197.197 0 0 1-.014-.076v-1.458l-.296-.007a7.497 7.497 0 0 1-2.054-.353c-.689-.223-1.299-.547-1.698-.963l-.001-.001c-1.004-1.038-1.273-2.531-1.307-3.634-.034-1.117.166-3.007 1.686-3.947.921-.571 2.239-.702 3.221-.702h.001c.732-.002 1.463.069 2.181.212 1.547.321 2.58 1.345 2.869 2.811Z" stroke="#F8FBFB" stroke-width=".606"/></g><path fill-rule="evenodd" clip-rule="evenodd" d="M914.813 693.207a8.202 8.202 0 0 1 8.139 8.264l-.187 24.735a8.201 8.201 0 0 1-8.264 8.139 8.202 8.202 0 0 1-8.14-8.264l.188-24.734a8.202 8.202 0 0 1 8.264-8.14Z" fill="#F3C29F"/><path d="M902.234 760.419c.546-8.475 1.041-16.2 1.552-23.916.196-2.933.469-5.866.674-8.799.153-2.26 1.1-3.206 3.589-2.353a20.02 20.02 0 0 0 12.542.383c2.558-.776 3.411.631 3.411 2.678 0 4.263-.214 8.526-.162 12.746.076 6.957.69 13.923.298 20.855a17.211 17.211 0 0 1-3.547 9.242c-3.905 4.946-12.286 2.712-15.236-2.745a44.076 44.076 0 0 1-3.121-8.091Z" fill="#2C2A46"/><path d="M922.712 728.151c.014-.706-3.63-1.352-8.141-1.441-4.51-.09-8.177.41-8.192 1.116-.014.706 3.631 1.351 8.141 1.441 4.511.09 8.178-.41 8.192-1.116Z" fill="#F3C29F"/><path d="m922.79 725.121-.06 3.043-16.345-.324.009-3.555 16.396.836Z" fill="#F3C29F"/><path fill-rule="evenodd" clip-rule="evenodd" d="M1028.18 667.602c4.03-2.056 8.97-.451 11.03 3.585l5.05 9.924a8.194 8.194 0 0 1-3.58 11.032c-4.04 2.056-8.98.451-11.03-3.585l-5.06-9.925c-2.05-4.036-.45-8.975 3.59-11.031Z" fill="#F3C29F"/><path d="M1076.5 691.033a8.58 8.58 0 0 1 3.41 5.397c.44 2.66-.74 4.485-3.85 6.684-3.9 2.763-8.34 3.36-12.92 3.641-5.54.333-11.25.051-16.58 1.322-6.37 1.526-9.88-1.475-12.66-6.088-1.79-2.967-2.83-6.386-4.12-9.643-.54-1.364-.19-2.319 1.5-2.677 4.88-1.04 9.13-3.198 12.28-7.247.34-.444 1.71-.734 2.01-.452 5.26 4.723 11.94 4.075 18.18 4.868 2.76.35 5.64.469 8.19 1.432a19.65 19.65 0 0 1 4.56 2.763Z" fill="#2C2A46"/><path d="M1038.4 687.563c4.02-2.05 7.02-4.222 6.7-4.851-.32-.629-3.84.522-7.86 2.573-4.02 2.05-7.01 4.222-6.69 4.851.32.629 3.84-.523 7.85-2.573Z" fill="#F3C29F"/><path d="m1043.72 680.043 1.39 2.711-14.57 7.426-1.66-3.129 14.84-7.008Z" fill="#F3C29F"/><path fill-rule="evenodd" clip-rule="evenodd" d="M1014.94 386.508c3.09 4.514 1.95 10.683-2.57 13.78-3.46 2.375-7.4 3.071-10.15 3.329-2.942.276-5.919.156-8.306-.007a162.419 162.419 0 0 1-3.595-.294l-1.544 1.912-2.145 2.658a1540.216 1540.216 0 0 1-13.924 17.03c-5.18 6.231-10.645 12.652-15.36 17.839-2.352 2.586-4.598 4.955-6.579 6.872-1.751 1.694-4.003 3.746-6.228 5.003-4.242 2.397-8.82 1.794-11.177 1.341-2.861-.549-5.857-1.605-8.659-2.774-5.663-2.364-12.086-5.861-17.929-9.305-5.91-3.483-11.527-7.091-15.647-9.813a404.623 404.623 0 0 1-6.349-4.284l-.373-.259-.1-.07-.039-.028c-.001 0-.002-.001 5.682-8.121l-5.684 8.12c-4.485-3.139-5.575-9.319-2.436-13.804 3.139-4.484 9.319-5.575 13.803-2.436l.02.014.079.055.328.227c.292.202.727.502 1.287.885 1.122.766 2.74 1.86 4.711 3.162 3.952 2.612 9.264 6.022 14.783 9.274 5.586 3.292 11.092 6.249 15.501 8.089 1.556.65 2.793 1.083 3.722 1.347.264-.242.57-.53.92-.869 1.551-1.501 3.48-3.524 5.696-5.962 4.422-4.863 9.668-11.022 14.786-17.177a1540.706 1540.706 0 0 0 13.745-16.811l2.116-2.623c.958-1.187 1.798-2.228 2.481-3.072.577-.712 1.068-1.316 1.445-1.772l.047-.057c.229-.278.774-.94 1.245-1.411 1.861-1.861 3.93-2.519 4.824-2.761a13.466 13.466 0 0 1 2.599-.421c1.211-.082 2.439-.024 3.332.033.917.058 1.929.148 2.854.23l.13.012c1.009.089 1.991.176 2.986.244 2.046.14 3.764.173 5.102.047.64-.06 1-.14 1.16-.179 4.47-2.791 10.39-1.585 13.41 2.807Zm-77.268 50.069c.003.005-.063.005-.21-.014a.813.813 0 0 1 .21.014Z" fill="#F3C29F"/><path d="M848.707 511.686c0-.043.093.128.153.205l.213.315.435.682.921 1.415a117.94 117.94 0 0 0 1.893 2.865c1.296 1.902 2.6 3.777 3.973 5.568a85.043 85.043 0 0 0 8.381 9.788 35.601 35.601 0 0 0 8.185 6.326c.966.537 2.006.927 3.087 1.16.353.074.713.117 1.074.128.144.013.29.013.435 0h.929c5.74-.088 11.48.171 17.189.776a95.455 95.455 0 0 1 18.672 3.828 62.737 62.737 0 0 1 10.606 4.331 42.902 42.902 0 0 1 11.536 8.756 37.636 37.636 0 0 1 8.381 14.623 41.865 41.865 0 0 1 1.518 7.366c.248 2.1.356 4.213.324 6.327a69.16 69.16 0 0 1-.853 9.702 218.419 218.419 0 0 0-.596 3.837l-.555 3.786a1676.412 1676.412 0 0 0-2.157 15.27l-4.152 30.771-4.135 30.864-2.123 15.441a2004.65 2004.65 0 0 1-2.14 15.433l-28.367-2.072c0-5.244.103-10.453.197-15.671l.289-15.654.904-31.308c.358-10.442.793-20.898 1.305-31.368.267-5.241.551-10.498.852-15.773l.486-7.887c.137-2.472.239-4.493.248-5.849v-1.731a4.672 4.672 0 0 0 .801 1.16c.23.213 0-.111-.853-.58a21.165 21.165 0 0 0-3.777-1.577 91.08 91.08 0 0 0-11.8-2.686 354.79 354.79 0 0 0-13.863-2.072l-.444-.059h-.767c-.58-.06-1.168-.111-1.705-.197a39.442 39.442 0 0 1-3.411-.596 45.185 45.185 0 0 1-6.445-1.91 49.458 49.458 0 0 1-10.803-5.849 59.914 59.914 0 0 1-8.236-7.128 72.428 72.428 0 0 1-6.421-7.614 98.314 98.314 0 0 1-9.378-15.799c-1.254-2.694-2.43-5.38-3.479-8.125a132.253 132.253 0 0 1-1.492-4.161l-.682-2.14-.716-2.387 26.363-10.53Z" fill="#2D4EAE"/><path d="M818.183 522.608c.247-4.11-5.218-7.674-4.519-11.528.376-1.944.802-3.87 1.262-5.789.23-.963.495-1.918.768-2.89l.417-1.467.503-1.662 27.77 6.104v1.978l-.06 2.251v4.545c0 3.018.213 5.968.478 8.816a60.128 60.128 0 0 0 1.321 7.921 24.422 24.422 0 0 0 2.192 5.9c.852 1.458 1.585 2.191 1.978 2.31.392.12.434 0 1.074.051.471.025.944.025 1.415 0l1.305-.076c.682 0 1.364-.086 2.046-.145 2.558-.213 4.979-.571 7.418-1.023l2.737-5.244 9.754-10.641 18.97-3.47 8.569 2.899c.98-.486 1.978-.98 3.018-1.475a78.93 78.93 0 0 1 13.139-5.03 50.823 50.823 0 0 1 8.449-1.561 42.952 42.952 0 0 1 9.516.128 42.236 42.236 0 0 1 9.378 2.294 44.617 44.617 0 0 1 8.015 3.896c.614.367 1.193.742 1.756 1.117l.853.572c.281.187.648.46.963.69 1.373.981 2.422 1.867 3.505 2.797a70.349 70.349 0 0 1 5.175 5.115 121.328 121.328 0 0 1 7.81 9.609c4.621 6.267 8.62 12.44 12.448 18.63 3.828 6.19 7.426 12.388 10.93 18.595a864.696 864.696 0 0 1 5.164 9.328l4.98 9.379c6.56 12.516 12.83 25.092 18.95 37.719 3.02 6.338 6 12.684 8.94 19.039l4.38 9.558 4.27 9.677-25.53 12.542-10.09-17.956c-3.41-5.985-6.84-11.954-10.305-17.905-6.889-11.936-13.897-23.72-21.102-35.324-7.204-11.604-14.494-23.08-22.168-33.899-3.802-5.398-7.716-10.641-11.647-15.348a80.38 80.38 0 0 0-5.721-6.224 29.455 29.455 0 0 0-2.361-2.046l-.392-.256-.094-.068h-.137l-.111-.06-.247-.127a5.756 5.756 0 0 0-.469-.231 5.75 5.75 0 0 0-2.165-.605 7.585 7.585 0 0 0-.853 0c-.601.045-1.197.139-1.782.281a35.339 35.339 0 0 0-6.335 2.319c-2.558 1.169-5.44 2.652-8.526 4.264a212.47 212.47 0 0 1-20.838 9.728 100.514 100.514 0 0 1-24.495 6.156 94.659 94.659 0 0 1-6.378.554 88.328 88.328 0 0 1-6.36.094c-1.058 0-2.115 0-3.164-.094l-1.705-.077a82.022 82.022 0 0 1-2.097-.145 45.093 45.093 0 0 1-8.842-1.705 39.092 39.092 0 0 1-8.978-3.948 37.644 37.644 0 0 1-7.818-6.224 41.987 41.987 0 0 1-9.192-15.091c-1.799-4.996 2.32-8.526 1.876-12.994-.443-4.467.725-10.419.989-14.528Z" fill="#3D5CB6"/><path d="M872.12 318.381a40.771 40.771 0 0 1 14.751 11.86c8.159 10.794 3.41 27.974 11.467 39.22 3.121 4.366 7.793 7.248 10.939 11.587a21.997 21.997 0 0 1 3.334 18.195c-1.219 4.672-3.999 8.961-4.084 13.812-.136 8.475-17.052 12.841-14.639 20.932 2.736 9.268 8.995 31.649 0 33.371-6.276 1.203-9.447-2.694-15.296 0-6.736 3.104-8.526 7.188-13.906 12.517-6.284 6.241-13.165 4.715-19.934-.93-3.147-2.617-3.897-6.147-7.879-6.488-3.981-.341-7.562 1.748-11.084 3.709-7.801 4.263-15.585.332-21.221-6.821-5.636-7.153-6.992-17.41-5.048-26.525 1.407-6.556 4.383-12.968 3.692-19.653-.614-5.968-4.041-11.084-5.968-16.711-2.942-8.637-2.251-18.177 2.558-25.885 2.89-4.689 6.539-8.901 8.722-14.009 2.899-6.82 2.924-14.571 4.817-21.767 4.263-16.302 18.758-28.724 34.565-30.694a44.14 44.14 0 0 1 24.214 4.28Z" fill="#2C2A46"/><path d="M812.42 451.568c.111-3.589 1.705-8.364 3.197-12.09 1.262-3.189 3.837-8.867 5.585-10.598 4.945-4.911 15.228-10.879 27.769-15.68 17.053-6.573 32.459-8.79 36.663-5.55a4.177 4.177 0 0 0 2.165.853c.393.042.563.17.563.426 0 0 10.521 33.192 13.506 45.981a26.76 26.76 0 0 1-3.479 20.207 6.817 6.817 0 0 0-1.108 3.027c-.853 7.674-1.799 20.898-1.586 29.236.076 3.351-1.271 4.57-2.106 5.968 1.569.179 2.6.665 2.984 1.492 1.995 4.306-14.495 16.2-36.765 26.5-14.699 6.821-28.264 11.237-36.381 12.243a6.572 6.572 0 0 1-2.909.63 6.571 6.571 0 0 1-2.889-.715 2.612 2.612 0 0 1-1.816-1.262v-.111a6.521 6.521 0 0 1-1.824-4.263c-1.288-25.322-1.833-87.171-1.569-96.294Z" fill="#FB5A8B"/><path d="m855.792 478.195.63.145.29-.145h-.92Z" fill="#D65C8E"/><path opacity=".3" d="M838.151 455.388s19.465 59.452 31.282 56.664c11.818-2.788-23.984 6.259-23.984 6.259l-8.347 7.306-2.779-11.126-.699-28.853-1.706-19.473 4.869-10.428 1.364-.349Z" fill="#821A67"/><path opacity=".3" d="M824.066 465.125c-5.908 3.478-2.762 26.124 2.78 47.976 2.558 10.078 15.449 27.736 21.213 23.293 7.23-5.584 17.385-11.766 17.385-11.766l-32.161-39.518-9.217-19.985Z" fill="#821A67"/><path fill-rule="evenodd" clip-rule="evenodd" d="M826.231 451.036c5.379-1.013 10.561 2.526 11.575 7.905l.005.029.021.108.085.444c.076.394.191.979.341 1.729.301 1.5.743 3.654 1.304 6.245 1.125 5.198 2.714 12.089 4.587 18.968 1.897 6.966 3.987 13.555 6.06 18.316.65 1.491 1.224 2.63 1.701 3.462.683-.032 1.468-.078 2.357-.14 2.895-.201 6.612-.544 10.941-.986 5.61-.574 12.049-1.292 18.826-2.048 3.711-.415 7.524-.84 11.358-1.259 10.733-1.174 21.576-2.291 30.255-2.892 4.323-.3 8.288-.485 11.514-.466 1.606.009 3.198.069 4.645.224 1.198.129 3.269.409 5.261 1.315 4.983 2.266 7.185 8.143 4.919 13.126-2.131 4.685-7.453 6.911-12.224 5.277l-.072-.008c-.528-.056-1.388-.104-2.643-.111-2.496-.015-5.891.132-10.03.419-8.245.571-18.738 1.648-29.47 2.822-3.724.407-7.483.826-11.173 1.238-6.848.764-13.457 1.501-19.152 2.083-4.394.449-8.364.818-11.582 1.042-2.922.202-6.058.355-8.284.118-5.602-.599-9.04-4.651-10.565-6.697-1.88-2.523-3.448-5.599-4.756-8.603-2.653-6.092-5.041-13.779-7.013-21.024-1.996-7.332-3.667-14.587-4.835-19.982a437.842 437.842 0 0 1-1.731-8.394l-.096-.498-.025-.134-.01-.051c0-.002 0-.003 9.74-1.837l-9.74 1.834c-1.013-5.379 2.527-10.561 7.906-11.574Zm113.82 69.4Zm-87.034-10.594c-.001.008-.058-.045-.172-.184a.952.952 0 0 1 .172.184Z" fill="#F3C29F"/><path fill-rule="evenodd" clip-rule="evenodd" d="M826.028 449.951c5.978-1.126 11.737 2.808 12.863 8.787l.009.051.035.183.144.743c.128.654.319 1.617.567 2.829a447.71 447.71 0 0 0 2.113 9.766c1.811 7.934 4.269 17.663 6.966 25.586 1.96 5.76-1.12 12.018-6.879 13.978-5.759 1.961-12.017-1.119-13.978-6.878-3.067-9.01-5.724-19.616-7.588-27.784a465.851 465.851 0 0 1-2.823-13.268l-.159-.822-.042-.221-.016-.086s-.001-.001 10.825-2.039l-10.826 2.038c-1.125-5.979 2.81-11.738 8.789-12.863Zm44.916-33.248c.246-6.079 5.373-10.808 11.452-10.562 5.521.224 10.78 2.859 14.586 5.067 4.162 2.414 8.573 5.544 12.68 8.512l1.8 1.303c8.124 5.882 14.879 10.773 20.26 12.852 5.675 2.192 8.499 8.57 6.307 14.245-2.193 5.675-8.57 8.498-14.245 6.306-8.247-3.185-17.411-9.855-24.708-15.166-.797-.58-1.572-1.144-2.321-1.685-4.162-3.008-7.745-5.522-10.828-7.31-2.716-1.576-4.058-1.985-4.377-2.083-.085-.025-.098-.029-.045-.027-6.079-.246-10.807-5.373-10.561-11.452Z" fill="#FB5A8B"/><path d="M854.393 427.806c4.958 0 8.978-3.314 8.978-7.401s-4.02-7.401-8.978-7.401-8.978 3.314-8.978 7.401 4.02 7.401 8.978 7.401Z" fill="#F3C29F"/><path fill-rule="evenodd" clip-rule="evenodd" d="M854.394 413.674c-4.716 0-8.309 3.129-8.309 6.731 0 3.603 3.593 6.732 8.309 6.732 4.715 0 8.309-3.129 8.309-6.732 0-3.602-3.594-6.731-8.309-6.731Zm-9.647 6.731c0-4.572 4.446-8.07 9.647-8.07 5.201 0 9.647 3.498 9.647 8.07s-4.446 8.07-9.647 8.07c-5.201 0-9.647-3.498-9.647-8.07Z" fill="#fff"/><path d="M855.127 399.158h-1.458a27.229 27.229 0 0 1-5.866-.631v16.916a5.928 5.928 0 0 0 1.727 4.186 5.925 5.925 0 0 0 4.182 1.739h1.364a5.91 5.91 0 0 0 4.187-1.736 5.905 5.905 0 0 0 1.73-4.189v-16.908a27.67 27.67 0 0 1-5.866.623Z" fill="#F3C29F"/><path d="M847.82 403.14v4.894s1.416-2.422 6.591-2.447c5.175-.026 6.599 2.685 6.599 2.685v-5.874l-13.19-.247v.989Z" fill="#EDB58D"/><path d="M882.573 346.97v28.988a27.221 27.221 0 0 1-21.58 26.525 27.734 27.734 0 0 1-5.866.623h-1.458a27.44 27.44 0 0 1-27.454-27.148V346.97a27.286 27.286 0 0 1 27.454-27.148h1.458a27.29 27.29 0 0 1 19.349 7.886 27.29 27.29 0 0 1 8.097 19.262Z" fill="#F3C29F"/><path d="m882.7 327.726-2.319 1.424-5.73 2.353-6.318-9.532-34.369 9.472s-28.869 38.138-4.979 36.842c-.571 4.135 1.109 14.315 1.109 14.315-.273-2.157 1.534-12.67 2.199-14.315 27.045-.853 43.177-9.959 47.653-21.12 4.715 7.137 3.589 12.125 10.146 15.535l1.322-4.8c1.645-8.629-2.618-23.387-8.714-30.174Z" fill="#2C2A46"/><path d="m828.986 359.469-5.5-7.708 3.3-13.215 1.1-6.608 5.508-5.508 7.707-5.508 9.916-3.299 13.216 3.299 8.816 3.308 6.607 5.508 1.1 11.016 1.509 2.566-53.279 16.149Zm1.108 12.115v.938s-.255 7.571 0 10.078c1.1 11.016 4.4 14.324 4.4 14.324L821.278 382.6l-2.199-12.116 2.199-8.807h3.309l4.399 2.2 2.208 3.308" fill="#2C2A46"/><path d="M835.645 384.996s2.421-11.664-3.871-14.085c-6.292-2.422-7.793 6.292-4.783 10.299 3.009 4.008 8.654 3.786 8.654 3.786Z" fill="#F3C29F"/><path fill-rule="evenodd" clip-rule="evenodd" d="M86.308 680.223c6.348 2.69 9.314 10.017 6.624 16.365-1.724 4.068-2.728 10.735-2.29 19.061.429 8.129 2.18 16.78 4.984 24.276 2.88 7.701 6.439 13.05 9.72 15.797 2.668 2.233 4.605 2.508 7.191 1.517l.016-.006c1.818-.694 4.511-2.693 7.735-6.887 3.102-4.035 5.961-9.141 8.438-14.441 2.449-5.243 4.365-10.331 5.672-14.133.649-1.89 1.139-3.434 1.46-4.486.161-.526.279-.927.354-1.185l.08-.277.013-.047.001-.004c1.839-6.643 8.713-10.539 15.357-8.702 6.646 1.837 10.544 8.713 8.707 15.359l-12.033-3.327c12.033 3.327 12.032 3.329 12.031 3.332l-.006.021-.011.041-.036.129-.125.434c-.106.365-.258.88-.455 1.525-.395 1.29-.972 3.109-1.726 5.302-1.499 4.363-3.734 10.318-6.663 16.586-2.902 6.211-6.648 13.085-11.263 19.089-4.491 5.842-10.621 11.939-18.62 14.994-12.309 4.714-23.635 1.432-32.142-5.689-7.895-6.608-13.422-16.413-17.081-26.197-3.736-9.989-5.974-21.155-6.53-31.708-.546-10.356.471-21.237 4.233-30.115 2.69-6.348 10.017-9.314 16.365-6.624Z" fill="#FDC2BF"/><path fill-rule="evenodd" clip-rule="evenodd" d="M162.218 728.74a.008.008 0 0 0 .002-.004Zm-.001.002-.027.054-.141.278c-.13.26-.332.665-.597 1.206a244.561 244.561 0 0 0-2.29 4.813 354.83 354.83 0 0 0-7.602 17.704c-3.189 8.006-12.264 11.912-20.271 8.723-8.006-3.189-11.912-12.264-8.723-20.271a385.119 385.119 0 0 1 8.28-19.279 277.09 277.09 0 0 1 2.582-5.426 135.308 135.308 0 0 1 .939-1.886l.06-.119.03-.058c0-.001.001-.002 13.88 7.13l-13.879-7.132c3.938-7.665 13.345-10.686 21.011-6.748 7.663 3.938 10.685 13.34 6.751 21.005" fill="#3F7DE8"/><path fill-rule="evenodd" clip-rule="evenodd" d="M242.285 707.633c6.448-2.441 13.654.807 16.095 7.255l-11.675 4.42-11.675 4.419c-2.441-6.448.807-13.654 7.255-16.094Zm20.001 94.004c.948 3.683.835 5.715.647 6.624-.133.645-.29.805-.538 1.014-.451.381-1.669 1.147-4.382 1.784-2.69.631-6.3 1.005-10.952 1.005-6.895 0-12.484 5.589-12.484 12.484 0 6.894 5.589 12.484 12.484 12.484 10.948 0 22.99-1.552 31.432-8.672 9.955-8.397 11.105-20.776 7.972-32.949l-.001-.003c-2.647-10.275-9.802-30.697-16.036-47.923a2642.648 2642.648 0 0 0-11.051-29.951l-.735-1.953-.262-.693-11.675 4.42-11.675 4.419.251.667.725 1.924a2691.215 2691.215 0 0 1 10.945 29.663c6.366 17.591 13.046 36.773 15.334 45.652" fill="#FDC2BF"/><path fill-rule="evenodd" clip-rule="evenodd" d="M239.573 707.936c7.665-3.939 17.072-.918 21.011 6.748l-13.88 7.131c13.88-7.131 13.88-7.13 13.881-7.129l.03.058.06.119.206.408c.175.348.422.844.734 1.481a280.636 280.636 0 0 1 2.583 5.433 382.92 382.92 0 0 1 8.282 19.316c3.183 8.009-.73 17.081-8.739 20.264-8.009 3.182-17.082-.731-20.264-8.74a353.265 353.265 0 0 0-7.6-17.728 238.204 238.204 0 0 0-2.885-6.019l-.141-.278-.027-.053-.001-.002c-3.937-7.665-.915-17.071 6.75-21.009Z" fill="#3F7DE8"/><path d="M252.013 837.129V708.202c0-3.209-24.39-5.824-54.479-5.824-30.088 0-54.478 2.615-54.478 5.824v128.927h108.957Z" fill="#3F7DE8"/><path d="M248.447 837.13h3.556v-75.223s-.666.072-3.352-11.203c.045 0 .64 52.682-.204 86.426Zm-103.186-.001c-.338-31.387 1.325-81.321 1.325-81.321-3.085 4.828-3.557 5.61-3.557 5.61l-1.778 75.711h4.01Z" fill="#41B2C0"/><path d="M228.743 624.071v34.108a31.915 31.915 0 0 1-9.365 22.631 31.926 31.926 0 0 1-22.645 9.334h-1.68a31.558 31.558 0 0 1-6.829-.738 32.012 32.012 0 0 1-25.136-31.227v-34.108c0-4.204.828-8.366 2.436-12.25a32.021 32.021 0 0 1 17.324-17.323 32 32 0 0 1 12.249-2.437h1.699a32.011 32.011 0 0 1 31.947 32.01Z" fill="#FDC2BF"/><path d="M163.106 645.489v14.627a4.982 4.982 0 0 1-4.89-4.98v-4.659a4.992 4.992 0 0 1 4.89-4.988Zm70.519 4.988v4.659a4.971 4.971 0 0 1-4.881 4.98v-14.627a4.981 4.981 0 0 1 4.881 4.988Zm-36.856 33.78h-1.716a31.48 31.48 0 0 1-6.828-.737v19.73a6.872 6.872 0 0 0 2.012 4.872 6.87 6.87 0 0 0 4.87 2.019h1.591a6.888 6.888 0 0 0 6.891-6.891v-19.722c-2.24.487-4.527.731-6.82.729Z" fill="#FDC2BF"/><path d="M188.26 690.908v5.691s1.654-2.819 7.683-2.845c6.028-.027 7.682 3.129 7.682 3.129v-6.846l-15.365-.285v1.156Z" fill="#ECACB7"/><path d="M227.499 657.218a13.996 13.996 0 0 1-14.111 13.338h-.64a5.916 5.916 0 0 1-4.446-2.045 16.895 16.895 0 0 0-19.638-4.453 16.89 16.89 0 0 0-5.774 4.195 5.913 5.913 0 0 1-4.446 1.965 13.994 13.994 0 0 1-13.835-13.142l-1.511-25.101v39.123c0 14.867 7.842 26.915 26.914 26.915h11.799c20.068 0 26.924-12.048 26.924-26.915v-39.123l-1.236 25.243Z" fill="#2C2A46"/><path d="M195.925 716.454c5.775 0 10.457-3.858 10.457-8.616 0-4.758-4.682-8.616-10.457-8.616s-10.456 3.858-10.456 8.616c0 4.758 4.681 8.616 10.456 8.616Z" fill="#FDC2BF"/><path fill-rule="evenodd" clip-rule="evenodd" d="M188.375 702.996a6.942 6.942 0 0 0-2.133 4.91c.003 4.186 4.197 7.828 9.683 7.828 5.485 0 9.671-3.642 9.673-7.83a6.878 6.878 0 0 0-2.003-4.787l1.109-1.104a8.446 8.446 0 0 1 2.459 5.88v.007c0 5.324-5.184 9.398-11.238 9.398-6.054 0-11.248-4.073-11.248-9.398v-.011a8.519 8.519 0 0 1 2.614-6.021l1.084 1.128Z" fill="#fff"/><path d="M258.184 765.01H133.702a9.659 9.659 0 0 0-7.303 3.343 9.656 9.656 0 0 0-2.255 7.709l8.892 61.059a5.624 5.624 0 0 0 5.557 4.801h114.7a5.614 5.614 0 0 0 5.549-4.801l8.891-61.059a9.65 9.65 0 0 0-.288-4.097 9.652 9.652 0 0 0-5.249-6.075 9.648 9.648 0 0 0-4.012-.88Z" fill="url(#welcome-blip__m)"/><path opacity=".5" d="M205.634 803.6a7.11 7.11 0 0 0-5.842-5.753 21.25 21.25 0 0 0-4.134-.409 12.604 12.604 0 0 0-6.287 1.396c-2.329 1.449-3.556 4.25-3.441 7.896.063 2.098.56 5.041 2.588 7.113 1.627 1.698 4.739 2.534 7.113 2.667v1.885a1.148 1.148 0 0 0 1.147 1.147h.107c.234-.019.458-.108.64-.258.942-.809 2.178-1.885 3.379-3.005l.533-.489a17.697 17.697 0 0 0 2.668-2.783c1.662-2.365 2.231-5.886 1.529-9.407Z" fill="#87DDE8"/><path d="M237.092 601.042c0-7.265-7.691-13.16-17.187-13.16a21.945 21.945 0 0 0-4.099.392 16.324 16.324 0 0 0-1.636-.08 16.644 16.644 0 0 0-5.477.889c-4.446 1.52-9.363 1.084-12.973-1.885a13.685 13.685 0 0 0-16.894-.303 4.928 4.928 0 0 1-3.298.987 63.485 63.485 0 0 0-2.668-.106c-7.433 0-8.589 13.897-13.079 13.781-7.78-.204-10.928 9.301-10.928 17.188 0 8.891 5.486 16.396 14.573 16.396 6.749 0 4.366-5.22 6.909-10.901l.222-.356c2.774-4.446 7.345-7.371 12.128-5.201 0 0 32.419 18.467 44.031 16.458 9.354-1.618 12.519-12.697 8.065-19.313-1.503-2.24-.783-6.926.631-9.22a10.665 10.665 0 0 0 1.68-5.566Z" fill="#2C2A46"/><path d="M130.358 803.466s12.982 16.298 33.024 25.688c10.483 4.908 23.002 6.224 36.375 6.001 12.234-.231 28.026-4.872 40.118-10.545a130.373 130.373 0 0 0 26.31-16.165l-44.946 39.728-58.195 1.991-29.698-26.167-2.988-20.531Z" fill="#E0E0E0"/><path d="M315.827 892.568a56.588 56.588 0 0 1-15.116 2.17 90.175 90.175 0 0 1-13.559-.889 179.42 179.42 0 0 1-24.612-5.451 8.3 8.3 0 0 1-5.94-9.417 8.304 8.304 0 0 1 8.767-6.863h.107c7.518.622 15.071.714 22.602.275a67.164 67.164 0 0 0 10.226-1.449 29.739 29.739 0 0 0 8.091-3.005 13.334 13.334 0 0 1 17.569 5.347 13.338 13.338 0 0 1-4.427 17.824c-.886.502-1.826.901-2.801 1.191l-.907.267Z" fill="#F6A721"/><path d="M289.01 882.565c0 6.34-1.894 11.47-4.223 11.47l-7.887-1.076a412.538 412.538 0 0 1-44.458-2.098 430.294 430.294 0 0 1-44.831-6.829 343.804 343.804 0 0 1-34.179-8.891l55.954-22.896a411.031 411.031 0 0 0 27.982 9.114 394.341 394.341 0 0 0 41.497 9.594h.071c.156.027.31.063.462.107h5.397c2.321.044 4.215 5.174 4.215 11.505Z" fill="#0A0F1A"/><path d="M90.863 867.947a29.753 29.753 0 0 0 8.082 3.006c3.37.74 6.791 1.222 10.234 1.44 7.531.439 15.084.347 22.602-.276h.143a8.307 8.307 0 0 1 8.724 6.884 8.305 8.305 0 0 1-5.932 9.397 179.453 179.453 0 0 1-24.648 5.433 90.067 90.067 0 0 1-13.55.889 56.585 56.585 0 0 1-15.116-2.17l-.89-.249a13.332 13.332 0 0 1-10.155-11.342 13.339 13.339 0 0 1 17.571-14.248c1.023.297 2.008.712 2.935 1.236Z" fill="#F6A721"/><path d="m300.098 848.013-.711.515a154.383 154.383 0 0 1-22.442 13.48 218.52 218.52 0 0 1-22.46 9.558 326.41 326.41 0 0 1-44.84 12.448 429.644 429.644 0 0 1-44.822 6.847 412.795 412.795 0 0 1-44.458 2.098l-7.869 1.076c-2.338 0-4.232-5.13-4.232-11.47 0-6.34 1.894-11.461 4.232-11.461h5.388c.152-.044.307-.08.463-.107h.08c4.25-.738 8.509-1.556 12.741-2.445a80.595 80.595 0 0 0 2.134-.453c80.637-3.264 132.021-58.773 132.822-59.636.613-.604 1.2-1.209 1.778-1.778a27.758 27.758 0 0 1 3.494-3.086c11.559-8.411 27.315-5.281 35.229 6.998 7.913 12.279 5.014 28.995-6.527 37.416Z" fill="#1A2437"/><path d="M175.403 837.912c7.113 3.485 15.8 7.255 23.225 10.261a258.193 258.193 0 0 1-29.342 5.201c-25.003 2.89-58.684 3.815-63.503.525a14.57 14.57 0 0 1-.792-.498l-.151-.089a138.17 138.17 0 0 1-6.989-4.784l-.72-.515c-11.559-8.421-14.484-25.199-6.57-37.478 7.913-12.279 23.677-15.409 35.219-6.998a27.183 27.183 0 0 1 3.521 3.059 107.728 107.728 0 0 0 13.87 12.084 178.025 178.025 0 0 0 16.645 10.883c5.006 2.952 10.243 5.726 15.587 8.349Z" fill="#1A2437"/><path d="M198.611 848.173a425.39 425.39 0 0 1-38.732 13.221 448.965 448.965 0 0 1-25.785 6.527l-.32.16-.143-.054-.266.054.186-.089c-4.445-1.779-8.811-3.788-13.221-5.984a163.48 163.48 0 0 1-14.502-8.109c7.904 5.37 92.783-5.726 92.783-5.726Z" fill="#0A0F1A"/><path d="M266.186 808.445c-.8.889-52.185 56.373-132.822 59.636l.703-.151a400.65 400.65 0 0 0 25.83-6.536 407.64 407.64 0 0 0 38.713-13.221l1.405-.552a293.318 293.318 0 0 0 37.407-18.032 177.824 177.824 0 0 0 16.645-10.883 113.811 113.811 0 0 0 12.119-10.261Z" fill="#0A0F1A"/><path fill-rule="evenodd" clip-rule="evenodd" d="M78.067 671.612A16.158 16.158 0 0 0 61.91 687.77a1.706 1.706 0 0 1-3.411 0 19.569 19.569 0 0 1 19.568-19.569 1.706 1.706 0 0 1 0 3.411Z" fill="#D2DFE6"/><path fill-rule="evenodd" clip-rule="evenodd" d="M69.14 666.713a12.865 12.865 0 0 0-12.867 12.868 1.706 1.706 0 0 1-3.41 0 16.278 16.278 0 0 1 16.278-16.279 1.706 1.706 0 0 1 0 3.411Z" fill="#D2DFE6"/><path d="M613.003 428.097c0 8.219-6.659 9.848-14.869 9.848-8.211 0-14.87-1.663-14.87-9.848a14.87 14.87 0 0 1 29.739 0Z" fill="#CB8591"/></g><defs><filter id="welcome-blip__b" x="166.082" y="728.082" width="716.836" height="34.836" filterUnits="userSpaceOnUse" color-interpolation-filters="sRGB"><feFlood flood-opacity="0" result="BackgroundImageFix"/><feBlend in="SourceGraphic" in2="BackgroundImageFix" result="shape"/><feGaussianBlur stdDeviation="3.959" result="effect1_foregroundBlur_10272_1604"/></filter><filter id="welcome-blip__c" x="-18.476" y="847.372" width="421.479" height="85.55" filterUnits="userSpaceOnUse" color-interpolation-filters="sRGB"><feFlood flood-opacity="0" result="BackgroundImageFix"/><feBlend in="SourceGraphic" in2="BackgroundImageFix" result="shape"/><feGaussianBlur stdDeviation="9.238" result="effect1_foregroundBlur_10272_1604"/></filter><filter id="welcome-blip__d" x="328.111" y="829.894" width="726.716" height="54.857" filterUnits="userSpaceOnUse" color-interpolation-filters="sRGB"><feFlood flood-opacity="0" result="BackgroundImageFix"/><feBlend in="SourceGraphic" in2="BackgroundImageFix" result="shape"/><feGaussianBlur stdDeviation="9.025" result="effect1_foregroundBlur_10272_1604"/></filter><filter id="welcome-blip__f" x="735.361" y="689.332" width="50.634" height="50.634" filterUnits="userSpaceOnUse" color-interpolation-filters="sRGB"><feFlood flood-opacity="0" result="BackgroundImageFix"/><feColorMatrix in="SourceAlpha" values="0 0 0 0 0 0 0 0 0 0 0 0 0 0 0 0 0 0 127 0" result="hardAlpha"/><feOffset/><feGaussianBlur stdDeviation="5.523"/><feColorMatrix values="0 0 0 0 0.374547 0 0 0 0 0.481553 0 0 0 0 0.601935 0 0 0 0.3 0"/><feBlend in2="BackgroundImageFix" result="effect1_dropShadow_10272_1604"/><feBlend in="SourceGraphic" in2="effect1_dropShadow_10272_1604" result="shape"/></filter><filter id="welcome-blip__h" x="405.436" y="559.845" width="556.524" height="298.904" filterUnits="userSpaceOnUse" color-interpolation-filters="sRGB"><feFlood flood-opacity="0" result="BackgroundImageFix"/><feColorMatrix in="SourceAlpha" values="0 0 0 0 0 0 0 0 0 0 0 0 0 0 0 0 0 0 127 0" result="hardAlpha"/><feOffset dx="-5.279" dy="-5.279"/><feGaussianBlur stdDeviation="3.959"/><feColorMatrix values="0 0 0 0 0.54902 0 0 0 0 0.627451 0 0 0 0 0.701961 0 0 0 0.3 0"/><feBlend in2="BackgroundImageFix" result="effect1_dropShadow_10272_1604"/><feBlend in="SourceGraphic" in2="effect1_dropShadow_10272_1604" result="shape"/></filter><filter id="welcome-blip__i" x="394.376" y="586.783" width="589.202" height="77.247" filterUnits="userSpaceOnUse" color-interpolation-filters="sRGB"><feFlood flood-opacity="0" result="BackgroundImageFix"/><feColorMatrix in="SourceAlpha" values="0 0 0 0 0 0 0 0 0 0 0 0 0 0 0 0 0 0 127 0" result="hardAlpha"/><feOffset dy="4.043"/><feGaussianBlur stdDeviation="12.129"/><feColorMatrix values="0 0 0 0 0.374547 0 0 0 0 0.481553 0 0 0 0 0.601935 0 0 0 0.15 0"/><feBlend in2="BackgroundImageFix" result="effect1_dropShadow_10272_1604"/><feBlend in="SourceGraphic" in2="effect1_dropShadow_10272_1604" result="shape"/></filter><filter id="welcome-blip__j" x="487.173" y="653.831" width="405.069" height="89.917" filterUnits="userSpaceOnUse" color-interpolation-filters="sRGB"><feFlood flood-opacity="0" result="BackgroundImageFix"/><feColorMatrix in="SourceAlpha" values="0 0 0 0 0 0 0 0 0 0 0 0 0 0 0 0 0 0 127 0" result="hardAlpha"/><feOffset dy="1.802"/><feGaussianBlur stdDeviation="3.604"/><feColorMatrix values="0 0 0 0 0.374547 0 0 0 0 0.481553 0 0 0 0 0.601935 0 0 0 0.15 0"/><feBlend in2="BackgroundImageFix" result="effect1_dropShadow_10272_1604"/><feBlend in="SourceGraphic" in2="effect1_dropShadow_10272_1604" result="shape"/></filter><filter id="welcome-blip__k" x="487.174" y="737.665" width="405.067" height="89.917" filterUnits="userSpaceOnUse" color-interpolation-filters="sRGB"><feFlood flood-opacity="0" result="BackgroundImageFix"/><feColorMatrix in="SourceAlpha" values="0 0 0 0 0 0 0 0 0 0 0 0 0 0 0 0 0 0 127 0" result="hardAlpha"/><feOffset dy="1.802"/><feGaussianBlur stdDeviation="3.604"/><feColorMatrix values="0 0 0 0 0.374547 0 0 0 0 0.481553 0 0 0 0 0.601935 0 0 0 0.15 0"/><feBlend in2="BackgroundImageFix" result="effect1_dropShadow_10272_1604"/><feBlend in="SourceGraphic" in2="effect1_dropShadow_10272_1604" result="shape"/></filter><filter id="welcome-blip__l" x="907.421" y="805.852" width="46.335" height="46.335" filterUnits="userSpaceOnUse" color-interpolation-filters="sRGB"><feFlood flood-opacity="0" result="BackgroundImageFix"/><feColorMatrix in="SourceAlpha" values="0 0 0 0 0 0 0 0 0 0 0 0 0 0 0 0 0 0 127 0" result="hardAlpha"/><feOffset/><feGaussianBlur stdDeviation="5.054"/><feColorMatrix values="0 0 0 0 0.374547 0 0 0 0 0.481553 0 0 0 0 0.601935 0 0 0 0.3 0"/><feBlend in2="BackgroundImageFix" result="effect1_dropShadow_10272_1604"/><feBlend in="SourceGraphic" in2="effect1_dropShadow_10272_1604" result="shape"/></filter><clipPath id="welcome-blip__a"><path fill="#fff" d="M0 0h1080v1080H0z"/></clipPath><clipPath id="welcome-blip__e"><path fill="#fff" transform="translate(367 162)" d="M0 0h238v273H0z"/></clipPath><linearGradient id="welcome-blip__m" x1="195.925" y1="841.922" x2="195.925" y2="765.01" gradientUnits="userSpaceOnUse"><stop offset=".21" stop-color="#F5F8F9"/><stop offset="1" stop-color="#fff"/></linearGradient></defs></svg>