<svg xmlns="http://www.w3.org/2000/svg" width="1080" height="1080" viewBox="0 0 1080 1080" fill="none"><g filter="url(#a)" opacity=".1"><path fill="#0A0F1A" d="M911 765c0 9.941-75.44 18-168.5 18S574 774.941 574 765s75.44-18 168.5-18S911 755.059 911 765"/></g><circle cx="499.5" cy="499.5" r="408.5" fill="#B2DFFD" opacity=".3"/><circle cx="843" cy="910" r="125" fill="#F5F5F5"/><path fill="#E0E0E0" d="M221.8 317.789c0-7.703 6.238-13.947 13.933-13.947h724.533c7.696 0 13.934 6.244 13.934 13.947V736.21c0 7.703-6.238 13.948-13.934 13.948H235.733c-7.695 0-13.933-6.245-13.933-13.948z"/><path fill="#141414" d="M221.8 317.789c0-7.703 6.238-13.947 13.933-13.947h724.533c7.696 0 13.934 6.244 13.934 13.947v41.843H221.8z"/><path fill="#636363" d="M249.666 331.737c0-5.777 4.679-10.461 10.45-10.461h76.633c5.772 0 10.45 4.684 10.45 10.461s-4.678 10.46-10.45 10.46h-76.633c-5.771 0-10.45-4.683-10.45-10.46M361.133 331.737a5.227 5.227 0 0 1 5.225-5.23h31.35a5.227 5.227 0 0 1 5.225 5.23 5.23 5.23 0 0 1-5.225 5.23h-31.35a5.23 5.23 0 0 1-5.225-5.23M416.866 331.737c0-2.889 2.34-5.23 5.225-5.23h45.284a5.23 5.23 0 0 1 5.225 5.23c0 2.888-2.34 5.23-5.225 5.23h-45.284a5.23 5.23 0 0 1-5.225-5.23"/><path fill="#fff" d="M603.679 332.831c0 4.428-2.119 7.445-5.868 7.445-2.228 0-3.912-1.1-4.781-3.215l-.516 2.961h-3.124v-19.506h3.748v7.888c.924-1.917 2.527-2.932 4.673-2.932 3.749-.001 5.868 3.017 5.868 7.359m-3.776 0c0-2.594-1.249-4.117-3.395-4.117-2.119 0-3.369 1.523-3.369 4.117 0 2.679 1.25 4.201 3.369 4.201 2.146.001 3.395-1.521 3.395-4.201M613.936 340.022v-14.297h3.748v14.297zM634.5 332.888c0 4.37-2.119 7.388-5.868 7.388-2.146 0-3.748-1.015-4.672-2.932v7.549h-3.749v-19.168h3.124l.517 2.96c.896-2.115 2.553-3.214 4.78-3.214 3.749 0 5.868 3.018 5.868 7.417m-3.775 0c0-2.651-1.25-4.174-3.396-4.174-2.118 0-3.368 1.523-3.368 4.174 0 2.622 1.25 4.145 3.368 4.145 2.146 0 3.396-1.523 3.396-4.145M617.974 323.651c.138-.313.22-.658.22-1.025 0-1.366-1.067-2.474-2.383-2.474s-2.383 1.108-2.383 2.474c0 .367.081.712.22 1.025zM608.937 336.638h3.369v3.384h-1.983c-3.586 0-5.135-1.664-5.135-6.091v-13.415h3.749v16.122"/><path fill="#0096FA" d="M573.489 317.485c-8.092 0-12.437 3.162-12.437 11.425 0 7.38 3.659 13.037 12.437 13.037h.644l.003 3.633c0 .294.225.57.565.57.268 0 .342-.105.557-.297 1.55-1.386 6.113-5.689 6.113-5.689 2.275-2.249 4.557-4.931 4.557-11.254-.001-8.263-4.346-11.425-12.439-11.425"/><path fill="#F6F6F6" d="M430.8 359.632h543.4v97.631H430.8z"/><g clip-path="url(#b)"><rect width="41.8" height="41.842" x="458.666" y="387.526" fill="#FDE99B" rx="20.9"/><path fill="#8C8C8C" d="M491.596 431.585c-.86-3.586-2.934-11.983-2.934-11.983 0-.422-2.549-.557-8.265-.667v-.027h-1.661v.019c-5.716.11-8.265.255-8.265.667 0 0-2.082 8.399-2.934 11.983-.82 3.456 1.605 6.509 3.904 6.509h16.251c2.3.006 4.718-3.047 3.904-6.501"/><path fill="#8C8C8C" fill-rule="evenodd" d="M486.762 420.286c1.318-.971 3.034-.467 3.877.841 2.613 4.053 4.362 8.782 6.146 13.227.555 1.385-.098 2.965-1.459 3.53s-2.915-.099-3.47-1.484c-1.645-4.099-3.209-8.654-5.701-12.353a2.737 2.737 0 0 1 .607-3.761M472.37 420.286c-1.319-.971-3.034-.467-3.877.841-2.614 4.053-4.362 8.782-6.146 13.227-.556 1.385.098 2.965 1.459 3.53s2.915-.099 3.47-1.484c1.645-4.099 3.209-8.654 5.701-12.353a2.74 2.74 0 0 0-.607-3.761" clip-rule="evenodd"/><path fill="#CB8591" d="M479.218 422.392c1.233 0 2.232-.876 2.232-1.956s-.999-1.957-2.232-1.957c-1.232 0-2.232.876-2.232 1.957s1 1.956 2.232 1.956"/><path fill="#F6F6F6" d="M479.218 418.715c1.11 0 1.998.773 1.998 1.721 0 .947-.901 1.722-1.998 1.722-1.098 0-2.013-.772-2.013-1.722s.902-1.721 2.013-1.721m0-.236c-1.235 0-2.235.877-2.235 1.957s1 1.959 2.235 1.959 2.22-.877 2.22-1.959-.999-1.957-2.22-1.957"/><path fill="#CB8591" d="M479.398 416.085h-.362c-.49.001-.98-.054-1.459-.166v4.49c0 .206.038.41.111.6s.182.363.319.508.299.261.477.34c.179.079.37.119.563.119h.34c.194.002.386-.038.566-.116s.343-.194.48-.339c.138-.146.247-.319.321-.51s.113-.395.112-.602v-4.49a6.5 6.5 0 0 1-1.468.166"/><path fill="#A8747D" d="M477.582 417.574v1.295s.353-.641 1.641-.648 1.639.709 1.639.709v-1.555l-3.28-.064z"/><path fill="#CB8591" d="M472.205 405.816v3.323a1.03 1.03 0 0 1-.74-.338 1.17 1.17 0 0 1-.304-.794v-1.068c.002-.295.113-.578.308-.787s.459-.33.736-.336M487.266 406.939v1.058c.001.297-.108.582-.303.794a1.03 1.03 0 0 1-.74.339v-3.314c.277.006.541.126.736.336.195.209.305.492.307.787"/><path fill="#CB8591" d="M486.223 402.498v7.749c.001.954-.174 1.9-.517 2.781a7.3 7.3 0 0 1-1.479 2.358 6.8 6.8 0 0 1-2.215 1.574 6.5 6.5 0 0 1-2.614.55h-.362c-.49.001-.98-.056-1.459-.168-1.521-.353-2.884-1.249-3.861-2.54a7.56 7.56 0 0 1-1.511-4.555v-7.749c0-.954.177-1.899.52-2.781a7.3 7.3 0 0 1 1.481-2.357 6.8 6.8 0 0 1 2.217-1.574 6.5 6.5 0 0 1 2.613-.55h.362c1.81 0 3.546.765 4.826 2.127s1.999 3.209 1.999 5.135"/><path fill="#454545" d="M479.311 403.949c-.353.236-1.21.293-2.236.371s-1.43-.317-2.201.04c-.77.357-2.369.345-3.309-.472a5.95 5.95 0 0 1-1.432-2.111c-.833-2.708 2.183-4.263 2.183-4.263s.122-2.413 2.887-2.179c0 0 .4.073.697-.851.298-.924 4.819-3.379 7.476.007 0 0 .859 1.744 1.492 1.638s5.683 1.201 3.898 6.27c-.309.877-1.833 3.741-5.939 1.382 0 0-2.028-.86-3.516.168"/><path fill="#454545" d="M474.648 404.126c.207-.023-2.023 1.158-2.443 3.807v-4.459h1.046z" opacity=".2"/><path fill="#454545" fill-rule="evenodd" d="M472.003 404.812c0-.123.093-.222.208-.222h.66c.115 0 .208.099.208.222 0 .122-.093.222-.208.222h-.66c-.115 0-.208-.1-.208-.222M472.003 405.589c0-.122.093-.222.208-.222h.66c.115 0 .208.1.208.222 0 .123-.093.222-.208.222h-.66c-.115 0-.208-.099-.208-.222" clip-rule="evenodd"/><path fill="#454545" d="M483.769 404.126c-.195-.033 2.032 1.168 2.443 3.807v-4.459h-1.046z" opacity=".2"/><path fill="#454545" fill-rule="evenodd" d="M485.349 404.812c0-.123.093-.222.208-.222h.66c.115 0 .208.099.208.222 0 .122-.093.222-.208.222h-.66c-.115 0-.208-.1-.208-.222M485.349 405.589c0-.122.093-.222.208-.222h.66c.115 0 .208.1.208.222 0 .123-.093.222-.208.222h-.66c-.115 0-.208-.099-.208-.222" clip-rule="evenodd"/><path fill="#454545" fill-rule="evenodd" d="M474.944 412.736a3.66 3.66 0 0 1-2.122-.685 4.03 4.03 0 0 1-1.407-1.824 4.3 4.3 0 0 1-.218-2.349 4.16 4.16 0 0 1 1.046-2.082 3.76 3.76 0 0 1 1.956-1.112 3.6 3.6 0 0 1 2.207.231 3.9 3.9 0 0 1 1.715 1.497 4.26 4.26 0 0 1 .632 2.569h.927a4.3 4.3 0 0 1 .063-1.103 4.15 4.15 0 0 1 1.045-2.082 3.76 3.76 0 0 1 1.956-1.112 3.6 3.6 0 0 1 2.207.231 3.9 3.9 0 0 1 1.715 1.497c.42.669.644 1.455.644 2.259a4.2 4.2 0 0 1-1.119 2.875 3.7 3.7 0 0 1-2.702 1.19 3.66 3.66 0 0 1-2.122-.685 4.03 4.03 0 0 1-1.407-1.824 4.2 4.2 0 0 1-.227-.817h-1.032a4.15 4.15 0 0 1-1.056 2.135 3.7 3.7 0 0 1-2.701 1.191m0-7.701a3.27 3.27 0 0 0-1.897.614c-.562.4-.999.968-1.258 1.632a3.86 3.86 0 0 0-.193 2.101c.132.705.458 1.353.935 1.861a3.36 3.36 0 0 0 1.75.994 3.23 3.23 0 0 0 1.974-.207 3.5 3.5 0 0 0 1.533-1.339 3.8 3.8 0 0 0 .575-2.02c0-.965-.36-1.891-1.001-2.574a3.32 3.32 0 0 0-2.418-1.067zm8.545 0a3.27 3.27 0 0 0-1.898.613c-.562.399-1 .967-1.258 1.632a3.86 3.86 0 0 0-.195 2.1c.132.706.458 1.353.935 1.862a3.36 3.36 0 0 0 1.75.995c.663.14 1.35.068 1.974-.207a3.47 3.47 0 0 0 1.533-1.339 3.8 3.8 0 0 0 .576-2.02c0-.478-.088-.951-.259-1.393a3.7 3.7 0 0 0-.741-1.181 3.4 3.4 0 0 0-1.108-.789 3.2 3.2 0 0 0-1.309-.278z" clip-rule="evenodd"/></g><path fill="#454545" d="M514.399 401.474a5.23 5.23 0 0 1 5.225-5.231h87.084a5.23 5.23 0 0 1 5.225 5.231c0 2.888-2.34 5.23-5.225 5.23h-87.084a5.23 5.23 0 0 1-5.225-5.23"/><path fill="#636363" d="M514.399 417.165a3.485 3.485 0 0 1 3.484-3.487h48.766a3.485 3.485 0 0 1 3.484 3.487 3.485 3.485 0 0 1-3.484 3.486h-48.766a3.485 3.485 0 0 1-3.484-3.486"/><path fill="#1E6BF1" d="M869.7 401.474a6.97 6.97 0 0 1 6.967-6.974h69.667a6.97 6.97 0 0 1 6.966 6.974v13.947a6.97 6.97 0 0 1-6.966 6.974h-69.667a6.97 6.97 0 0 1-6.967-6.974z"/><path fill="#E0E0E0" d="M221.8 359.632h209v390.526H235.733c-7.695 0-13.933-6.245-13.933-13.947z"/><path fill="#CFCFCF" fill-rule="evenodd" d="M402.933 457.263H249.666v-1.743h153.267z" clip-rule="evenodd"/><g clip-path="url(#c)"><rect width="41.8" height="41.842" x="249.666" y="485.158" fill="#FDE99B" rx="20.9"/><path fill="#8C8C8C" d="M282.596 529.217c-.86-3.587-2.934-11.983-2.934-11.983 0-.422-2.549-.557-8.265-.667v-.027h-1.661v.019c-5.716.109-8.265.255-8.265.666 0 0-2.082 8.399-2.934 11.984-.82 3.455 1.605 6.508 3.904 6.508h16.251c2.3.007 4.718-3.046 3.904-6.5"/><path fill="#8C8C8C" fill-rule="evenodd" d="M277.762 517.918c1.318-.972 3.034-.467 3.877.841 2.613 4.053 4.362 8.781 6.146 13.227.555 1.384-.098 2.965-1.459 3.53s-2.915-.1-3.47-1.484c-1.645-4.099-3.209-8.654-5.701-12.353-.846-1.21-.577-2.889.607-3.761M263.37 517.918c-1.319-.972-3.034-.467-3.877.841-2.614 4.053-4.362 8.781-6.146 13.227-.556 1.384.098 2.965 1.459 3.53s2.915-.1 3.47-1.484c1.645-4.099 3.209-8.654 5.701-12.353.846-1.21.576-2.889-.607-3.761" clip-rule="evenodd"/><path fill="#CB8591" d="M270.218 520.024c1.233 0 2.232-.876 2.232-1.957s-.999-1.957-2.232-1.957c-1.232 0-2.232.876-2.232 1.957s1 1.957 2.232 1.957"/><path fill="#F6F6F6" d="M270.218 516.347c1.11 0 1.998.772 1.998 1.72s-.901 1.723-1.998 1.723c-1.098 0-2.013-.773-2.013-1.723s.902-1.72 2.013-1.72m0-.237c-1.235 0-2.235.877-2.235 1.957s1 1.959 2.235 1.959 2.22-.876 2.22-1.959c0-1.082-.999-1.957-2.22-1.957"/><path fill="#CB8591" d="M270.398 513.716h-.362c-.49.002-.98-.054-1.459-.165v4.49c0 .206.038.409.111.6q.112.287.319.508a1.408 1.408 0 0 0 1.04.459h.34c.194.001.386-.038.566-.117.18-.078.343-.193.48-.339a1.6 1.6 0 0 0 .321-.509c.074-.191.113-.395.112-.602v-4.49a6.5 6.5 0 0 1-1.468.165"/><path fill="#A8747D" d="M268.582 515.205v1.295s.353-.64 1.641-.647 1.639.709 1.639.709v-1.555l-3.28-.064z"/><path fill="#CB8591" d="M263.205 503.448v3.323a1.03 1.03 0 0 1-.74-.339 1.17 1.17 0 0 1-.304-.793v-1.069a1.17 1.17 0 0 1 .308-.787c.195-.209.459-.33.736-.335M278.266 504.57v1.059c.001.297-.108.582-.303.794a1.03 1.03 0 0 1-.74.338v-3.313c.277.005.541.126.736.335s.305.492.307.787"/><path fill="#CB8591" d="M277.223 500.13v7.749a7.7 7.7 0 0 1-.517 2.781 7.3 7.3 0 0 1-1.479 2.358 6.8 6.8 0 0 1-2.215 1.574 6.5 6.5 0 0 1-2.614.549h-.362c-.49.001-.98-.055-1.459-.167-1.521-.354-2.884-1.25-3.861-2.54a7.57 7.57 0 0 1-1.511-4.555v-7.749c0-.955.177-1.9.52-2.781a7.3 7.3 0 0 1 1.481-2.357 6.8 6.8 0 0 1 2.217-1.574 6.5 6.5 0 0 1 2.613-.551h.362c1.81 0 3.546.765 4.826 2.127s1.999 3.21 1.999 5.136"/><path fill="#454545" d="M270.311 501.581c-.353.236-1.21.293-2.236.371s-1.43-.317-2.201.04c-.77.357-2.369.345-3.309-.473a5.95 5.95 0 0 1-1.432-2.11c-.833-2.709 2.183-4.264 2.183-4.264s.122-2.413 2.887-2.179c0 0 .4.074.697-.85.298-.924 4.819-3.38 7.476.007 0 0 .859 1.744 1.492 1.638s5.683 1.2 3.898 6.269c-.309.877-1.833 3.742-5.939 1.383 0 0-2.028-.86-3.516.168"/><path fill="#454545" d="M265.648 501.758c.207-.024-2.023 1.158-2.443 3.807v-4.46h1.046z" opacity=".2"/><path fill="#454545" fill-rule="evenodd" d="M263.003 502.443c0-.122.093-.221.208-.221h.66c.115 0 .208.099.208.221 0 .123-.093.222-.208.222h-.66c-.115 0-.208-.099-.208-.222M263.003 503.221c0-.123.093-.222.208-.222h.66c.115 0 .208.099.208.222 0 .122-.093.222-.208.222h-.66c-.115 0-.208-.1-.208-.222" clip-rule="evenodd"/><path fill="#454545" d="M274.769 501.758c-.195-.033 2.032 1.167 2.443 3.807v-4.46h-1.046z" opacity=".2"/><path fill="#454545" fill-rule="evenodd" d="M276.349 502.443c0-.122.093-.221.208-.221h.66c.115 0 .208.099.208.221 0 .123-.093.222-.208.222h-.66c-.115 0-.208-.099-.208-.222M276.349 503.221c0-.123.093-.222.208-.222h.66c.115 0 .208.099.208.222 0 .122-.093.222-.208.222h-.66c-.115 0-.208-.1-.208-.222" clip-rule="evenodd"/><path fill="#454545" fill-rule="evenodd" d="M265.944 510.368a3.66 3.66 0 0 1-2.122-.685 4.02 4.02 0 0 1-1.407-1.825 4.3 4.3 0 0 1-.218-2.349 4.16 4.16 0 0 1 1.046-2.081 3.75 3.75 0 0 1 1.956-1.113 3.6 3.6 0 0 1 2.207.232 3.88 3.88 0 0 1 1.715 1.497 4.26 4.26 0 0 1 .632 2.569h.927a4.3 4.3 0 0 1 .063-1.104 4.15 4.15 0 0 1 1.045-2.081 3.75 3.75 0 0 1 1.956-1.113 3.6 3.6 0 0 1 2.207.232 3.9 3.9 0 0 1 1.715 1.497c.42.669.644 1.455.644 2.259a4.2 4.2 0 0 1-1.119 2.874 3.7 3.7 0 0 1-2.702 1.191 3.66 3.66 0 0 1-2.122-.685 4.02 4.02 0 0 1-1.407-1.825 4.2 4.2 0 0 1-.227-.816h-1.032a4.16 4.16 0 0 1-1.056 2.135 3.7 3.7 0 0 1-2.701 1.191m0-7.701c-.675 0-1.336.214-1.897.614a3.6 3.6 0 0 0-1.258 1.632 3.85 3.85 0 0 0-.193 2.1c.132.706.458 1.353.935 1.861a3.35 3.35 0 0 0 1.75.995c.663.14 1.349.068 1.974-.208a3.47 3.47 0 0 0 1.533-1.339c.375-.598.575-1.3.575-2.019 0-.966-.36-1.891-1.001-2.574a3.32 3.32 0 0 0-2.418-1.067zm8.545 0c-.675 0-1.336.213-1.898.612-.562.4-1 .968-1.258 1.632a3.86 3.86 0 0 0-.195 2.101c.132.705.458 1.353.935 1.861a3.36 3.36 0 0 0 1.75.996c.663.14 1.35.068 1.974-.207a3.5 3.5 0 0 0 1.533-1.339 3.8 3.8 0 0 0 .576-2.02c0-.478-.088-.951-.259-1.393a3.7 3.7 0 0 0-.741-1.181 3.4 3.4 0 0 0-1.108-.789 3.2 3.2 0 0 0-1.309-.278z" clip-rule="evenodd"/></g><path fill="#454545" d="M305.399 499.105c0-2.888 2.34-5.23 5.225-5.23h87.084a5.23 5.23 0 0 1 5.225 5.23 5.23 5.23 0 0 1-5.225 5.231h-87.084a5.23 5.23 0 0 1-5.225-5.231"/><path fill="#636363" d="M305.399 514.796a3.485 3.485 0 0 1 3.484-3.487h48.766a3.485 3.485 0 0 1 3.484 3.487 3.485 3.485 0 0 1-3.484 3.487h-48.766a3.485 3.485 0 0 1-3.484-3.487"/><path fill="#CFCFCF" fill-rule="evenodd" d="M402.933 554.895H249.666v-1.744h153.267z" clip-rule="evenodd"/><g clip-path="url(#d)"><rect width="41.8" height="41.842" x="249.666" y="582.79" fill="#84EBBC" rx="20.9"/><path fill="#FDE99B" d="M282.596 625.105c-.86-3.586-2.934-11.983-2.934-11.983 0-.422-2.549-.557-8.265-.667v-.027h-1.661v.019c-5.716.109-8.265.255-8.265.666 0 0-2.082 8.399-2.934 11.984-.82 3.456 1.605 6.508 3.904 6.508h16.251c2.3.007 4.718-3.046 3.904-6.5"/><path fill="#FDE99B" fill-rule="evenodd" d="M277.762 613.806c1.318-.971 3.034-.467 3.877.841 2.613 4.053 4.362 8.781 6.146 13.227.555 1.384-.098 2.965-1.459 3.53s-2.915-.099-3.47-1.484c-1.645-4.099-3.209-8.654-5.701-12.353a2.737 2.737 0 0 1 .607-3.761M263.37 613.806c-1.319-.971-3.034-.467-3.877.841-2.614 4.053-4.362 8.781-6.146 13.227-.556 1.384.098 2.965 1.459 3.53s2.915-.099 3.47-1.484c1.645-4.099 3.209-8.654 5.701-12.353a2.74 2.74 0 0 0-.607-3.761" clip-rule="evenodd"/><path fill="#454545" d="M270.26 590.691c.321-.06 3.828-2.928 6.935.715 2.199 2.577.188 4.28 2.069 6.056 1.668 1.577 3.985 5.732.819 9.173-1.483 1.613 2.391 7.875-5.484 5.004-5.002-1.828-5.418-.677-5.418-.677z"/><path fill="#454545" d="M272.703 591.648s.169-1.522-2.159-2.465-7.936.298-7.827 5.26-5.022 5.186-3.639 8.917-2.454 4.215 1.126 7.237 9.752 2.225 9.667-2.959 2.832-15.99 2.832-15.99"/><path fill="#CB9685" d="M270.486 615.915c1.157 0 2.094-.796 2.094-1.779s-.937-1.778-2.094-1.778-2.094.796-2.094 1.778c0 .983.937 1.779 2.094 1.779"/><path fill="#F6F6F6" fill-rule="evenodd" d="M270.486 612.487c-1.111 0-1.969.761-1.969 1.649 0 .889.858 1.65 1.969 1.65s1.969-.761 1.969-1.65-.858-1.649-1.969-1.649m-2.219 1.649c0-1.075 1.017-1.907 2.219-1.907s2.219.832 2.219 1.907-1.017 1.907-2.219 1.907-2.219-.831-2.219-1.907" clip-rule="evenodd"/><path fill="#CB9685" d="M270.658 609.027h-.34c-.46.001-.919-.05-1.369-.152v4.08a1.45 1.45 0 0 0 .404 1.007 1.356 1.356 0 0 0 .976.417h.319a1.34 1.34 0 0 0 .979-.421c.129-.133.23-.291.299-.465s.103-.361.101-.548v-4.081a6.3 6.3 0 0 1-1.369.163"/><path fill="#BF7D68" d="M268.953 609.985v1.175s.328-.578 1.534-.578c1.207 0 1.54.644 1.54.644v-1.421l-3.078-.058z"/><path fill="#CB9685" d="M277.061 596.328v7.04a6.8 6.8 0 0 1-.484 2.527 6.6 6.6 0 0 1-1.388 2.143 6.4 6.4 0 0 1-2.079 1.43 6.2 6.2 0 0 1-2.453.5h-.339a6 6 0 0 1-1.369-.153 6.38 6.38 0 0 1-3.618-2.308 6.72 6.72 0 0 1-1.417-4.135v-7.044c0-1.75.675-3.429 1.876-4.666a6.3 6.3 0 0 1 4.528-1.933h.339c1.699 0 3.328.695 4.529 1.933a6.7 6.7 0 0 1 1.875 4.666"/><path fill="#CB9685" d="M264.072 601.532v3.019a.98.98 0 0 1-.694-.307 1.04 1.04 0 0 1-.285-.721v-.963c0-.269.102-.528.285-.72a.98.98 0 0 1 .694-.308M277.628 602.56v.963c0 .269-.102.528-.285.721a.98.98 0 0 1-.695.307v-3.019a.98.98 0 0 1 .694.308c.183.192.286.451.286.72"/><path fill="#454545" d="M270.778 590.703c.833-.48 1.722-.85 2.645-1.101.47-.116.955-.16 1.438-.131a3 3 0 0 1 1.398.442c.422.27.773.643 1.023 1.085l.196.311q.09.16.177.324c.125.215.221.443.329.664q.292.68.498 1.394c.14.47.259.943.417 1.389.153.445.376.86.661 1.229q.467.537 1.006.998.53.509.98 1.094.452.588.767 1.267c.427.908.551 1.936.352 2.925a6 6 0 0 1-1.409 2.54 6.2 6.2 0 0 0 1.25-2.577 4.46 4.46 0 0 0-.416-2.774 6 6 0 0 0-.355-.617c-.121-.215-.271-.389-.416-.58a10 10 0 0 0-.965-1.041 9.4 9.4 0 0 1-1.042-1.027 4.6 4.6 0 0 1-.717-1.319c-.167-.47-.284-.947-.417-1.411q-.198-.694-.473-1.359c-.1-.215-.192-.43-.308-.644-.057-.106-.109-.215-.167-.316l-.185-.307a3 3 0 0 0-.915-1.025 2.83 2.83 0 0 0-1.286-.453 4.8 4.8 0 0 0-1.388.082 8 8 0 0 0-1.359.387c-.448.161-.875.373-1.319.551"/><path fill="#454545" d="M272.76 592.402a2.1 2.1 0 0 0-.185-.842 2.1 2.1 0 0 0-.503-.691 4.3 4.3 0 0 0-1.435-.904 4.8 4.8 0 0 0-1.64-.316 7 7 0 0 0-1.667.144 7.3 7.3 0 0 0-1.601.515c-.509.231-.981.54-1.4.917a4.56 4.56 0 0 0-1.48 2.955c-.031.282-.037.563-.058.87q-.034.45-.129.891a5.3 5.3 0 0 1-.69 1.656c-.638 1.018-1.573 1.751-2.382 2.545a3.54 3.54 0 0 0-.929 1.39c-.08.27-.113.553-.098.835q.029.43.156.84c.188.564.263 1.16.221 1.755q-.043.44-.181.859a8 8 0 0 1-.342.814 5 5 0 0 0 .442-1.68 4.4 4.4 0 0 0-.284-1.699 3.8 3.8 0 0 1-.194-.878c-.022-.304.007-.61.086-.904a3.76 3.76 0 0 1 .948-1.504c.402-.429.834-.809 1.238-1.215a7.4 7.4 0 0 0 1.084-1.317c.298-.48.514-1.009.637-1.565a6 6 0 0 0 .117-.846c.017-.28.019-.585.052-.885.068-.6.241-1.182.511-1.718a4.7 4.7 0 0 1 1.091-1.409 5.6 5.6 0 0 1 1.476-.949 6.8 6.8 0 0 1 1.667-.509 7.3 7.3 0 0 1 1.721-.11c.58.022 1.151.149 1.688.374a4.4 4.4 0 0 1 1.425.988c.203.213.367.46.486.732.122.269.174.565.152.861"/><path fill="#454545" d="M269.843 589.387c-5.001-.84-7.168 5.859-6.877 7.399.155.801.417 2.115.625 3.191 0 0 .605 3.823.484 2.992a6 6 0 0 1-.046-.6 3.9 3.9 0 0 1 .267-1.546c.367-.936.863-2.085.863-2.085s3.286.53 6.193-.827 4.063-5.702 4.063-5.702-.571-1.98-5.572-2.822"/><path fill="#454545" d="M270.068 589.168c6.948-1.205 7.996 5.811 7.694 7.351s-.881 5.999-.881 5.999c0-.61-.649-4.94-1.124-5.681-2.411-3.784-5.689-7.669-5.689-7.669"/><path fill="#454545" d="M275.371 592.207a10 10 0 0 1-.38 1.688 10.3 10.3 0 0 1-.641 1.615 8 8 0 0 1-.928 1.478q-.275.34-.589.644-.166.144-.336.286c-.056.047-.11.096-.171.139l-.183.12a8.8 8.8 0 0 1-3.195 1.205 11 11 0 0 1-1.681.179 9.6 9.6 0 0 1-1.68-.088 16 16 0 0 0 3.292-.43 11.5 11.5 0 0 0 1.57-.488c.129-.047.252-.105.379-.161.127-.055.252-.105.371-.171l.364-.189c.119-.067.225-.146.34-.215l.171-.108c.054-.038.104-.083.156-.126l.321-.273c.19-.198.39-.382.561-.599a8.7 8.7 0 0 0 .937-1.379q.42-.736.742-1.523.33-.786.58-1.604"/></g><path fill="#454545" d="M305.399 596.737c0-2.889 2.34-5.23 5.225-5.23h59.217a5.227 5.227 0 0 1 5.225 5.23 5.23 5.23 0 0 1-5.225 5.23h-59.217a5.23 5.23 0 0 1-5.225-5.23"/><path fill="#636363" d="M305.399 612.428a3.485 3.485 0 0 1 3.484-3.487h90.566a3.485 3.485 0 0 1 3.484 3.487 3.486 3.486 0 0 1-3.484 3.487h-90.566a3.486 3.486 0 0 1-3.484-3.487"/><path fill="#CFCFCF" fill-rule="evenodd" d="M402.933 652.526H249.666v-1.743h153.267z" clip-rule="evenodd"/><path fill="#454545" d="M305.399 694.368c0-2.888 2.34-5.23 5.225-5.23h87.084a5.23 5.23 0 0 1 5.225 5.23 5.23 5.23 0 0 1-5.225 5.231h-87.084a5.23 5.23 0 0 1-5.225-5.231"/><path fill="#636363" d="M305.399 710.059a3.485 3.485 0 0 1 3.484-3.486h48.766a3.485 3.485 0 0 1 3.484 3.486 3.485 3.485 0 0 1-3.484 3.487h-48.766a3.485 3.485 0 0 1-3.484-3.487"/><g clip-path="url(#e)"><rect width="41.8" height="41.842" x="249.666" y="680.421" fill="#80E3EB" rx="20.9"/><path fill="#0096FA" d="M281.016 715.752c0 6.49-4.678 17.844-10.45 17.844s-10.45-11.354-10.45-17.844 4.679-5.658 10.45-5.658c5.772 0 10.45-.832 10.45 5.658"/><path fill="#0096FA" fill-rule="evenodd" d="M278.632 712.309c1.318-.971 3.034-.466 3.877.841 2.614 4.054 4.362 8.782 6.146 13.227.556 1.385-.098 2.965-1.459 3.53s-2.915-.099-3.47-1.483c-1.645-4.099-3.209-8.655-5.701-12.354a2.74 2.74 0 0 1 .607-3.761M262.499 712.309c-1.318-.971-3.033-.466-3.876.841-2.614 4.054-4.362 8.782-6.146 13.227-.556 1.385.097 2.965 1.459 3.53 1.361.565 2.915-.099 3.47-1.483 1.645-4.099 3.208-8.655 5.701-12.354a2.737 2.737 0 0 0-.608-3.761" clip-rule="evenodd"/><path fill="#F99F9F" d="M270.566 713.546c1.2 0 2.174-.8 2.174-1.787 0-.988-.974-1.788-2.174-1.788s-2.173.8-2.173 1.788c0 .987.973 1.787 2.173 1.787"/><path fill="#F6F6F6" fill-rule="evenodd" d="M270.566 713.33c1.122 0 1.957-.741 1.957-1.571 0-.831-.835-1.572-1.957-1.572s-1.957.741-1.957 1.572c0 .83.835 1.571 1.957 1.571m2.174-1.571c0 .987-.974 1.787-2.174 1.787s-2.173-.8-2.173-1.787c0-.988.973-1.788 2.173-1.788s2.174.8 2.174 1.788" clip-rule="evenodd"/><path fill="#F99F9F" d="M277.389 693.157v7.076a6.62 6.62 0 0 1-4.101 6.132 6.65 6.65 0 0 1-2.545.502h-.341a6.65 6.65 0 0 1-5.176-2.473 6.63 6.63 0 0 1-1.47-4.156v-7.081c0-1.759.7-3.447 1.946-4.691a6.65 6.65 0 0 1 4.7-1.943h.352a6.65 6.65 0 0 1 4.693 1.947 6.63 6.63 0 0 1 1.942 4.687M263.745 695.92v3.035a1.03 1.03 0 0 1-1.016-1.034v-.967a1.035 1.035 0 0 1 1.016-1.034"/><path fill="#F99F9F" d="M278.404 696.954v.967a1.03 1.03 0 0 1-1.016 1.034v-3.035a1.035 1.035 0 0 1 1.016 1.034"/><path fill="#F6F6F6" fill-rule="evenodd" d="M269.602 689.261a3.337 3.337 0 0 0-3.342 3.335.648.648 0 0 1-1.297 0 4.64 4.64 0 0 1 4.639-4.631.649.649 0 1 1 0 1.296" clip-rule="evenodd" opacity=".2"/><path fill="#F99F9F" d="M270.743 706.867h-.342a6.6 6.6 0 0 1-1.421-.153v4.101a1.43 1.43 0 0 0 1.421 1.423h.331a1.44 1.44 0 0 0 1.324-.884c.071-.173.108-.359.108-.547v-4.091a6.7 6.7 0 0 1-1.421.151"/><path fill="#F99F9F" d="M268.974 708.246v1.181s.343-.585 1.596-.591c1.252-.007 1.598.647 1.598.647v-1.418l-3.194-.058z"/><path fill="#454545" d="M277.13 700.043a2.902 2.902 0 0 1-2.933 2.759h-.134a1.24 1.24 0 0 1-.917-.432 3.5 3.5 0 0 0-1.182-.894 3.53 3.53 0 0 0-2.9-.029 3.5 3.5 0 0 0-1.201.869 1.23 1.23 0 0 1-.921.417 2.91 2.91 0 0 1-2.877-2.729l-.32-5.206v8.132c0 3.084 1.629 5.586 5.595 5.586h2.624c4.169 0 5.425-2.502 5.425-5.586v-8.132z"/></g><path fill="#F6F6F6" d="M221.8 359.632h209v97.631h-209z"/><path fill="#454545" d="M277.533 387.526c0-2.888 2.34-5.23 5.225-5.23h87.084a5.23 5.23 0 0 1 5.225 5.23 5.23 5.23 0 0 1-5.225 5.231h-87.084a5.23 5.23 0 0 1-5.225-5.231"/><path fill="#1E6BF1" d="M284.5 413.678a6.97 6.97 0 0 1 6.967-6.974h69.666a6.97 6.97 0 0 1 6.967 6.974v13.947a6.97 6.97 0 0 1-6.967 6.974h-69.666a6.97 6.97 0 0 1-6.967-6.974z"/><path fill="#CFCFCF" fill-rule="evenodd" d="M429.929 359.632v390.526h1.741V359.632z" clip-rule="evenodd"/><g filter="url(#f)"><path fill="#454545" d="M723.399 591.506c0-7.702 6.239-13.947 13.934-13.947h153.266c7.696 0 13.934 6.245 13.934 13.947v55.79h-167.2c-7.695 0-13.934-6.245-13.934-13.947z"/><path fill="#F6F6F6" d="M744.3 603.71a5.23 5.23 0 0 1 5.225-5.23h128.883a5.23 5.23 0 0 1 5.225 5.23 5.23 5.23 0 0 1-5.225 5.231H749.525a5.23 5.23 0 0 1-5.225-5.231"/><path fill="#0096FA" d="m883.418 618.342-.729-.568a.555.555 0 0 0-.777.096l-8.168 10.49a.488.488 0 0 1-.738.05l-.546-.496a.48.48 0 0 0-.38-.146.496.496 0 0 0-.358.195l-.576.737a.64.64 0 0 0 .055.826l2.013 1.933c.218.213.55.19.738-.051l9.564-12.285a.56.56 0 0 0-.098-.781m-6.252 0-.729-.568a.555.555 0 0 0-.777.096l-8.168 10.49a.488.488 0 0 1-.738.05l-3.341-3.271a.56.56 0 0 0-.785.009l-.645.661a.56.56 0 0 0 .009.785l4.968 4.862c.218.213.55.19.738-.051l9.564-12.285a.556.556 0 0 0-.096-.778"/><path fill="#454545" d="M584.066 668.217c0-7.703 6.239-13.947 13.934-13.947h306.533v94.144c0 7.703-6.238 13.948-13.933 13.948H598c-7.695 0-13.934-6.245-13.934-13.948z"/><path fill="#F6F6F6" d="M604.967 680.421a5.227 5.227 0 0 1 5.225-5.23h198.55a5.23 5.23 0 0 1 5.225 5.23c0 2.889-2.34 5.23-5.225 5.23h-198.55a5.227 5.227 0 0 1-5.225-5.23M604.967 697.855a5.227 5.227 0 0 1 5.225-5.23h268.216a5.227 5.227 0 0 1 5.225 5.23 5.227 5.227 0 0 1-5.225 5.23H610.192a5.227 5.227 0 0 1-5.225-5.23M604.967 715.289a5.23 5.23 0 0 1 5.225-5.23h170.683a5.23 5.23 0 0 1 5.225 5.23 5.23 5.23 0 0 1-5.225 5.231H610.192a5.23 5.23 0 0 1-5.225-5.231"/><path fill="#0096FA" d="m883.418 729.921-.729-.568a.555.555 0 0 0-.777.096l-8.168 10.49a.488.488 0 0 1-.738.05l-.546-.496a.5.5 0 0 0-.174-.115.5.5 0 0 0-.406.027.5.5 0 0 0-.158.137l-.576.737a.64.64 0 0 0 .055.826l2.013 1.932c.218.214.55.191.738-.05l9.564-12.285a.56.56 0 0 0-.098-.781m-6.252 0-.729-.568a.555.555 0 0 0-.777.096l-8.168 10.49a.488.488 0 0 1-.738.05l-3.341-3.271a.56.56 0 0 0-.785.009l-.645.661a.557.557 0 0 0 .009.785l4.968 4.861c.218.214.55.191.738-.05l9.564-12.285a.556.556 0 0 0-.096-.778"/><g clip-path="url(#g)"><rect width="83.6" height="83.684" x="932.399" y="577.559" fill="#84EBBC" rx="41.8"/><path fill="#F99F9F" d="M998.261 665.677c-1.721-7.173-5.868-23.967-5.868-23.967 0-.843-5.099-1.113-16.531-1.333v-.055h-3.321v.038c-11.432.22-16.53.511-16.53 1.334 0 0-4.165 16.797-5.869 23.966-1.639 6.912 3.21 13.018 7.809 13.018h32.501c4.6.012 9.436-6.093 7.809-13.001"/><path fill="#F99F9F" fill-rule="evenodd" d="M988.591 643.079c2.636-1.943 6.067-.934 7.754 1.682 5.225 8.106 8.725 17.563 12.295 26.454 1.11 2.769-.2 5.93-2.92 7.06s-5.831-.199-6.942-2.968c-3.29-8.198-6.417-17.309-11.402-24.706-1.691-2.419-1.153-5.777 1.215-7.522M959.808 643.079c-2.637-1.943-6.068-.934-7.754 1.682-5.227 8.106-8.724 17.563-12.292 26.454-1.111 2.769.195 5.93 2.918 7.06 2.722 1.13 5.83-.199 6.941-2.968 3.289-8.198 6.417-17.309 11.402-24.706 1.691-2.419 1.152-5.777-1.215-7.522" clip-rule="evenodd"/><path fill="#454545" d="M980.696 590.335c-.603-.747-1.459-1.047-2.169-1.697l-.233.052a19 19 0 0 1 1.945 1.999c.294.367.596.701.84 1.113q.394.57.714 1.183a8.2 8.2 0 0 1 .84 5.326 11.7 11.7 0 0 1-2.52 4.947 11.4 11.4 0 0 0 2.839-4.877 8.63 8.63 0 0 0-.71-5.614 12.7 12.7 0 0 0-1.546-2.432M973.217 600.018a4.108 4.108 0 0 0-3.061-1.221 9 9 0 0 0-3.321.672c-1.041.43-2 1.029-2.836 1.773a14.7 14.7 0 0 0-2.263 2.454 14.8 14.8 0 0 0-1.668 2.884 10.7 10.7 0 0 0-.837 3.178A8.54 8.54 0 0 0 961 615.9c.329.437.696.84 1.075 1.298a12 12 0 0 1 1 1.425 9.9 9.9 0 0 1 1.196 3.253c.421 2.289.021 4.58-.108 6.786a6.65 6.65 0 0 0 .488 3.204c.244.486.573.928.971 1.304.409.374.863.699 1.352.966a8.6 8.6 0 0 1 2.668 2.162c.35.448.645.934.881 1.449q.338.785.583 1.603a9.2 9.2 0 0 0-1.592-2.952 8.4 8.4 0 0 0-2.686-1.999 7.2 7.2 0 0 1-1.458-.969 5 5 0 0 1-1.082-1.384 7.06 7.06 0 0 1-.612-3.388c.019-1.146.146-2.262.199-3.377a14 14 0 0 0-.163-3.31 9.4 9.4 0 0 0-1.152-3.056q-.431-.706-.958-1.344c-.348-.414-.753-.845-1.105-1.311a9.5 9.5 0 0 1-1.543-3.099 8.9 8.9 0 0 1-.274-3.451c.125-1.147.431-2.268.905-3.324a13.7 13.7 0 0 1 1.775-2.965 15 15 0 0 1 2.388-2.479 10 10 0 0 1 2.984-1.756 9.2 9.2 0 0 1 3.418-.541 5.1 5.1 0 0 1 1.693.371 3.36 3.36 0 0 1 1.374 1.002"/><path fill="#454545" d="M971.104 601.201c.203-.522.516-.996.918-1.391a4.1 4.1 0 0 1 1.416-.904 9 9 0 0 1 3.325-.652c1.129-.002 2.25.183 3.316.548 1.07.349 2.096.817 3.058 1.394a15 15 0 0 1 2.682 2.019 10.9 10.9 0 0 1 2.032 2.606 8.5 8.5 0 0 1 .811 6.333c-.13.528-.308 1.039-.475 1.607q-.24.834-.355 1.694a9.9 9.9 0 0 0 .19 3.454c.522 2.268 1.8 4.225 2.795 6.207.529.965.811 2.042.823 3.137a4.6 4.6 0 0 1-.377 1.573 6.8 6.8 0 0 1-.861 1.406 8.5 8.5 0 0 0-1.599 3.012 7.3 7.3 0 0 0-.235 1.672q0 .853.099 1.699a9.1 9.1 0 0 1 .295-3.327 8.2 8.2 0 0 1 1.679-2.869c.379-.443.701-.93.958-1.451a5 5 0 0 0 .447-1.687 7.1 7.1 0 0 0-.782-3.355c-.472-1.048-1.033-2.027-1.525-3.033-.509-.989-.9-2.033-1.164-3.111a9.4 9.4 0 0 1-.153-3.255q.117-.814.349-1.605c.156-.514.357-1.065.497-1.63a9.4 9.4 0 0 0 .19-3.443 8.9 8.9 0 0 0-1.118-3.283 11.2 11.2 0 0 0-2.153-2.715 14 14 0 0 0-2.812-2.052 15.2 15.2 0 0 0-3.184-1.369 10.2 10.2 0 0 0-3.445-.476 9.1 9.1 0 0 0-3.363.81 5 5 0 0 0-1.411.989c-.412.401-.711.9-.868 1.448"/><path fill="#454545" d="M989.553 612.754v13.982c0 6.282-4.813 11.529-11.231 12.813a16 16 0 0 1-3.063.297h-.748c-1.029.001-2.055-.1-3.063-.301-6.418-1.288-11.226-6.531-11.226-12.809v-13.982c0-7.24 6.396-13.11 14.28-13.11h.761c7.898 0 14.29 5.87 14.29 13.11"/><path fill="#F3C29F" d="M975.062 647.296c2.428 0 4.397-1.592 4.397-3.556s-1.969-3.555-4.397-3.555-4.397 1.592-4.397 3.555 1.969 3.556 4.397 3.556"/><path fill="#F6F6F6" fill-rule="evenodd" d="M975.063 640.526c-2.303 0-4.05 1.498-4.05 3.214 0 1.717 1.747 3.215 4.05 3.215s4.049-1.498 4.049-3.215-1.747-3.214-4.049-3.214m-4.745 3.214c0-2.21 2.19-3.896 4.745-3.896 2.554 0 4.744 1.686 4.744 3.896s-2.19 3.897-4.744 3.897c-2.555 0-4.745-1.686-4.745-3.897" clip-rule="evenodd"/><path fill="#F3C29F" d="M975.417 635.474h-.713a13.5 13.5 0 0 1-2.875-.305v8.159a2.8 2.8 0 0 0 .847 2.013 2.9 2.9 0 0 0 .94.617c.352.143.729.217 1.109.217h.67a2.94 2.94 0 0 0 2.049-.834 2.83 2.83 0 0 0 .847-2.013v-8.163c-.944.204-1.908.307-2.874.309"/><path fill="#E8AA7D" d="M971.838 637.381v2.349s.696-1.164 3.233-1.177 3.229 1.288 3.229 1.288v-2.821l-6.462-.116z"/><path fill="#F3C29F" d="M988.862 610.792v13.707c0 6.153-4.524 11.297-10.571 12.556-.945.195-1.908.293-2.874.292h-.713a13.8 13.8 0 0 1-2.875-.297c-6.042-1.254-10.57-6.402-10.57-12.551v-13.707c0-7.098 6.02-12.852 13.445-12.852h.713c7.429 0 13.445 5.758 13.445 12.852M961.258 618.234v6.037a2.1 2.1 0 0 1-1.457-.615 2.03 2.03 0 0 1-.599-1.442v-1.923c0-.539.215-1.057.6-1.441a2.11 2.11 0 0 1 1.456-.616"/><path fill="#F3C29F" d="M990.918 620.291v1.923a2.03 2.03 0 0 1-.599 1.442 2.1 2.1 0 0 1-1.458.615v-6.037c.549.01 1.072.231 1.457.616.384.384.6.902.6 1.441"/><path fill="#454545" d="M988.537 614.257s.254 4.324 0 5.986c-.253 1.662 1.015-5.986 1.015-5.986zM961.748 616.58s-.231 4.324 0 6.012c.232 1.687-1.015-6.012-1.015-6.012zM969.129 595.342a6.38 6.38 0 0 1 .725-3.899 6.55 6.55 0 0 1 2.903-2.756 6.72 6.72 0 0 1 3.995-.581 6.65 6.65 0 0 1 3.592 1.811 6.44 6.44 0 0 1 1.845 3.526 6.37 6.37 0 0 1-.592 3.921 6.54 6.54 0 0 1-2.807 2.849 6.7 6.7 0 0 1-3.973.711 6.65 6.65 0 0 1-3.81-1.843 6.43 6.43 0 0 1-1.878-3.739"/><path fill="#F99F9F" fill-rule="evenodd" d="M980.457 587.397a.677.677 0 0 1 .367.894l-4.511 10.405a.69.69 0 0 1-.627.414.69.69 0 0 1-.641-.394l-2.547-5.376a.677.677 0 0 1 .337-.905.7.7 0 0 1 .923.33l1.888 3.988 3.9-8.996a.7.7 0 0 1 .911-.36" clip-rule="evenodd"/><path fill="#454545" d="M961.622 618.869a2.07 2.07 0 0 1-1.473-.397 2 2 0 0 1-.776-1.291c-.144-.953-.298-2.056-.346-2.748-.529-7.386 5.552-16.008 12.343-16.008h9.419c8.125.996 11.231 10.555 9.424 18.121a1.07 1.07 0 0 1-.592.716 1.11 1.11 0 0 1-.939.001 87 87 0 0 0-2.511-1.074c-3.098-1.288-5.163-5.779-5.163-5.779s0 2.426-7.35 5.779c-3.299 1.508-9.039 2.332-12.036 2.68"/><path fill="#454545" d="M982.074 606.159a19 19 0 0 1-.764 3.24 19 19 0 0 1-1.294 3.1 15 15 0 0 1-1.869 2.836q-.554.655-1.188 1.236-.336.278-.676.549c-.114.09-.223.185-.345.268l-.369.23a18.4 18.4 0 0 1-6.439 2.313c-1.12.196-2.253.31-3.389.342a20 20 0 0 1-3.386-.169 33.7 33.7 0 0 0 6.636-.824 25 25 0 0 0 3.163-.936c.26-.091.508-.202.764-.309.257-.107.509-.202.748-.33l.735-.363c.239-.128.454-.28.685-.412l.344-.206c.109-.074.21-.161.315-.243l.647-.524c.382-.379.785-.734 1.13-1.15a16.6 16.6 0 0 0 1.89-2.646 24.5 24.5 0 0 0 1.495-2.923 32 32 0 0 0 1.167-3.079"/></g></g><path fill="#F6F6F6" d="M458.666 471.21h167.2c7.695 0 13.933 6.245 13.933 13.948v62.763c0 7.703-6.238 13.947-13.933 13.947H472.599c-7.695 0-13.933-6.244-13.933-13.947z"/><path fill="#454545" d="M479.566 497.362c0-2.889 2.34-5.23 5.225-5.23h128.884a5.23 5.23 0 0 1 5.225 5.23c0 2.888-2.34 5.23-5.225 5.23H484.791a5.23 5.23 0 0 1-5.225-5.23M479.566 514.796c0-2.889 2.34-5.23 5.225-5.23h83.6a5.227 5.227 0 0 1 5.225 5.23 5.227 5.227 0 0 1-5.225 5.23h-83.6a5.23 5.23 0 0 1-5.225-5.23"/><path fill="#0096FA" d="m618.685 527.684-.729-.568a.556.556 0 0 0-.778.096l-8.167 10.49a.5.5 0 0 1-.358.195.48.48 0 0 1-.38-.144l-.546-.497a.49.49 0 0 0-.581-.087.5.5 0 0 0-.157.136l-.577.738a.64.64 0 0 0 .055.825l2.013 1.933a.485.485 0 0 0 .738-.051l9.564-12.284a.56.56 0 0 0-.097-.782m-6.252 0-.729-.568a.556.556 0 0 0-.778.096l-8.167 10.49a.5.5 0 0 1-.358.195.48.48 0 0 1-.38-.144l-3.341-3.272a.56.56 0 0 0-.786.01l-.645.661a.556.556 0 0 0 .009.784l4.969 4.862c.218.214.55.191.738-.051l9.564-12.284a.56.56 0 0 0-.096-.779"/><path fill="#F67979" d="M1006.89 469.802v-39.298h23.31v39.298z"/><path fill="url(#h)" d="m1001.02 430.585 31.26 39.014c-1.96 2.425-3.66 15.988 3.13 25.679 12.86 18.49-1.2 18.159-1.2 18.159l-51.495-64.28z"/><path fill="url(#i)" d="M865.987 272.644h123.461c17.682 0 32.032 14.36 32.032 32.048v.286l23.38 138.181h-64.061l-18.533-109.651h-82.498c-4.182 1.997-69.024 3.138-73.966 3.138-17.678 0 28.06-14.36 28.06-32.049.096-17.594 14.447-31.953 32.125-31.953"/><path fill="#072F73" d="m974.318 400.81 47.622-15.207c1.56 2.7 13.61 9.147 25.19 6.252 21.87-5.385 16.52 7.617 16.52 7.617l-78.46 25.055z"/><path fill="#0096FA" d="m1030.65 382.823-61.14 19.522-63.675-124.904 61.137-19.523z"/><path fill="#0096FA" d="M946.073 297.976c-16.882 5.391-34.939-3.925-40.33-20.807-5.391-16.883 3.925-34.939 20.808-40.33s34.938 3.925 40.329 20.807c5.391 16.883-3.924 34.939-20.807 40.33M823.319 333.83c-25.159 8.034-52.067-5.849-60.101-31.009s5.848-52.068 31.007-60.102c25.16-8.035 52.069 5.849 60.103 31.008 8.034 25.16-5.849 52.068-31.009 60.103"/><path fill="#0096FA" d="m804.271 272.465 122.288-35.626 18.538 58.052-117.829 37.626zM762.629 300.774l-7.303-67.262h65.276z"/><path fill="#141414" d="M860.992 125.505h-68.367c-4.195 0-7.631-3.436-7.631-7.631V66.197c0-4.194 3.436-7.63 7.631-7.63h68.367c4.195 0 7.631 3.436 7.631 7.63v51.677c0 4.195-3.436 7.631-7.631 7.631"/><path fill="#141414" d="M874.379 139.429h-50.606c-4.195 0-7.631-3.437-7.631-7.631V94.356c0-4.194 3.436-7.63 7.631-7.63h50.606c4.195 0 7.631 3.436 7.631 7.63v37.442a7.6 7.6 0 0 1-7.631 7.631"/><path fill="#141414" d="M824.667 144.159h-50.606c-4.195 0-7.631-3.436-7.631-7.631V99.087c0-4.195 3.436-7.631 7.631-7.631h50.606c4.195 0 7.631 3.436 7.631 7.63v37.442a7.6 7.6 0 0 1-7.631 7.631"/><path fill="#F67979" d="M852.293 45h-42.618l-3.257 3.258v80.193h31.506v-12.853h14.369l3.258-3.257V48.258z"/><path fill="#141414" d="m809.675 45-3.257 3.258-.224 36.727.268.178 32.488-32.666 16.601 19.993V48.258L852.293 45z"/><path fill="#F67979" d="M802.532 97.971h8.925V84.003h-12.094v10.844c0 1.74 1.428 3.124 3.169 3.124"/><path fill="#141414" fill-rule="evenodd" d="M842.66 79.729a.866.866 0 0 0-.447 1.14l6.654 15.21h-6.574a.866.866 0 1 0 0 1.732h7.899a.865.865 0 0 0 .793-1.213L843.8 80.175a.866.866 0 0 0-1.14-.446" clip-rule="evenodd"/><path fill="#35DE90" d="M744.263 169.335a33.09 33.09 0 0 1 22.335-25.713l39.865-13.123v-10.232h31.366v10.232l5.073 1.69 34.792 11.433c11.613 3.826 20.2 13.702 22.335 25.713l-5.509 69.161v9.658l-134.548 36.634-23.646-71.936z"/><path fill="#F67979" d="M778.062 242.159h-46.837l5.871-33.304h46.749z"/><path fill="#F67979" d="M757.976 272.799c-14.898 0-26.976-12.227-26.976-27.31s12.078-27.309 26.976-27.309 26.976 12.227 26.976 27.309-12.077 27.31-26.976 27.31"/><path fill="url(#j)" d="m789.003 182.212-11.151 59.947h53.286z"/><path fill="#F67979" d="m747.212 242.159 32.128-21.737 31.904-21.558 22.558 32.627-64.506 39.309z"/><path fill="#F67979" d="m811.158 199.022 49.271-5.487 22.481 7.036 13.506 10-3.865 3.762-8.575-3.673 9.463 9.115-5.065 3.408-21.058-13.364 13.239 15.001-3.999 2.92-15.994-10.487 9.775 10.709-3.466 2.832-15.727-10.134-17.816 10.842z"/><path fill="#072F73" d="M837.785 237.343h106.343c2.187 0 3.838 2.008 3.437 4.15l-.67 3.437c-.312 1.651-1.74 2.811-3.436 2.811H837.115c-2.186 0-3.838-2.008-3.436-4.15l.669-3.436c.313-1.651 1.741-2.812 3.437-2.812"/><path fill="#0C4EC0" d="M1012.58 169.556H895.395c-1.652 0-3.08 1.161-3.437 2.812l-13.834 71.223c-.401 2.142 1.25 4.15 3.437 4.15h117.187c1.652 0 3.082-1.16 3.432-2.811l13.84-71.223c.4-2.143-1.25-4.151-3.44-4.151"/><path fill="#0188FB" fill-rule="evenodd" d="M137.737 860.775c-32.52 12.725-58.163-2.267-67.4-12.14l11.454-10.715c5.926 6.334 25.034 18.109 50.231 8.249zM316.452 855.65c34.898-1.273 52.453-25.235 56.995-37.969l-14.772-5.269c-2.914 8.17-15.755 26.578-42.795 27.565z" clip-rule="evenodd"/><path fill="#072F73" d="M163.11 851.904c0 10.827-8.777 19.605-19.605 19.605-10.827 0-19.605-8.778-19.605-19.605s8.778-19.605 19.605-19.605 19.605 8.777 19.605 19.605M288.581 851.905c0 10.827 8.778 19.605 19.605 19.605s19.605-8.778 19.605-19.605-8.777-19.605-19.605-19.605c-10.827 0-19.605 8.777-19.605 19.605"/><path fill="#2C2A46" fill-rule="evenodd" d="M192.91 935.813c6.063 0 10.978-4.915 10.978-10.979s-4.915-10.978-10.978-10.978c-6.064 0-10.979 4.915-10.979 10.978 0 6.064 4.915 10.979 10.979 10.979m0 9.411c11.26 0 20.389-9.129 20.389-20.39 0-11.26-9.129-20.389-20.389-20.389s-20.389 9.129-20.389 20.389 9.128 20.39 20.389 20.39M260.351 935.813c6.063 0 10.979-4.915 10.979-10.979s-4.916-10.978-10.979-10.978-10.979 4.915-10.979 10.978c0 6.064 4.916 10.979 10.979 10.979m0 9.411c11.261 0 20.389-9.129 20.389-20.39 0-11.26-9.128-20.389-20.389-20.389s-20.389 9.129-20.389 20.389 9.128 20.39 20.389 20.39" clip-rule="evenodd"/><path fill="#072F73" d="M191.342 907.582h69.009v42.347c0 19.056-15.448 34.504-34.504 34.504-19.057 0-34.505-15.448-34.505-34.504z"/><path fill="#F4F5F6" fill-rule="evenodd" d="M206.241 938.95a3.137 3.137 0 0 1 3.137-3.137h35.289a3.137 3.137 0 0 1 0 6.274h-35.289a3.14 3.14 0 0 1-3.137-3.137M206.241 954.634a3.137 3.137 0 0 1 3.137-3.137h35.289a3.137 3.137 0 0 1 0 6.274h-35.289a3.14 3.14 0 0 1-3.137-3.137" clip-rule="evenodd"/><path fill="#0188FB" fill-rule="evenodd" d="M55.675 811.91a6.274 6.274 0 0 1 6.274-6.274c14.292 0 25.878 11.586 25.878 25.879 0 14.292-11.586 25.878-25.878 25.878S36.07 845.807 36.07 831.515a6.274 6.274 0 1 1 12.548 0c0 7.362 5.968 13.331 13.33 13.331 7.364 0 13.332-5.969 13.332-13.331 0-7.363-5.968-13.332-13.331-13.332a6.273 6.273 0 0 1-6.274-6.273M366.007 775.906a6.273 6.273 0 0 0-8.766-1.372c-11.547 8.422-14.081 24.61-5.659 36.157 8.422 11.548 24.611 14.081 36.158 5.659s14.081-24.61 5.659-36.157a6.273 6.273 0 1 0-10.137 7.393c4.338 5.949 3.033 14.288-2.916 18.627s-14.288 3.033-18.626-2.915-3.034-14.288 2.915-18.627a6.274 6.274 0 0 0 1.372-8.765" clip-rule="evenodd"/><path fill="url(#k)" d="M222.705 929.014c49.011 0 73.825-7.198 73.825-58.08 0-52.421-30.047-69.217-73.825-69.217s-73.826 16.796-73.826 69.217c0 50.882 24.814 58.08 73.826 58.08"/><path fill="url(#l)" d="M205.457 866.804c0 6.93-5.618 12.547-12.548 12.547s-12.547-5.617-12.547-12.547 5.618-12.547 12.547-12.547 12.548 5.617 12.548 12.547"/><path fill="url(#m)" d="M238.393 866.804c0 6.93-5.617 12.547-12.547 12.547s-12.547-5.617-12.547-12.547 5.617-12.547 12.547-12.547 12.547 5.617 12.547 12.547"/><path fill="url(#n)" d="M271.33 866.804c0 6.93-5.618 12.547-12.547 12.547s-12.548-5.617-12.548-12.547 5.618-12.547 12.548-12.547 12.547 5.617 12.547 12.547"/><path fill="#072F73" d="M155.164 748.422c23.112.823 34.909-2.126 35.732-26.13.891-24.69-12.962-33.126-33.606-33.88-20.575-.754-35.046 6.653-35.937 31.342-.823 24.073 10.699 27.845 33.811 28.668M291.644 748.354c-23.112.823-34.908-2.126-35.731-26.13-.892-24.69 12.962-33.126 33.605-33.88 20.575-.755 35.046 6.652 35.938 31.342.823 24.004-10.699 27.845-33.812 28.668"/><path fill="#072F73" fill-rule="evenodd" d="M222.718 596.171a3.29 3.29 0 0 1 3.289 3.289v75.441a3.289 3.289 0 1 1-6.578 0V599.46a3.29 3.29 0 0 1 3.289-3.289" clip-rule="evenodd"/><path fill="url(#o)" d="M223.404 677.918c16.597 0 24.964-2.469 24.964-19.683 0-17.763-10.15-23.455-24.964-23.455s-24.965 5.692-24.965 23.455c0 17.283 8.368 19.683 24.965 19.683"/><path fill="#0096FA" d="M222.741 620.439c10.339 0 18.72-8.381 18.72-18.719S233.08 583 222.741 583s-18.72 8.381-18.72 18.72 8.382 18.719 18.72 18.719"/><path fill="url(#p)" d="M222.741 620.439c10.339 0 18.72-8.381 18.72-18.719S233.08 583 222.741 583s-18.72 8.381-18.72 18.72 8.382 18.719 18.72 18.719"/><path fill="url(#q)" d="M223.404 789.298c54.592 0 82.231-8.025 82.231-64.743 0-58.432-33.469-77.155-82.231-77.155-48.763 0-82.231 18.723-82.231 77.155 0 56.718 27.639 64.743 82.231 64.743"/><path fill="#072F73" d="M257.559 673.872a406 406 0 0 0-68.309 0c-9.053.755-17.077 8.985-19.478 17.352-3.703 17.9-5.28 34.977-4.252 53.289 1.372 8.504 9.328 16.871 18.175 17.763 26.61 2.606 52.809 2.606 79.487 0 8.299-1.509 17.42-8.847 18.175-17.763 1.029-18.312-.549-35.389-4.252-53.289-1.989-8.847-10.905-15.98-19.546-17.352"/><path fill="#35DE90" d="M195.07 726.886a9.003 9.003 0 0 0 0-18.006 9.003 9.003 0 1 0 0 18.006M251.56 726.886a9.003 9.003 0 1 0 0-18.007 9.003 9.003 0 0 0 0 18.007"/><path fill="#35DE90" fill-rule="evenodd" d="M215.864 718.048a2.293 2.293 0 0 1 2.293 2.293c0 2.917 2.403 5.32 5.32 5.32s5.321-2.403 5.321-5.32a2.293 2.293 0 1 1 4.584 0c0 5.449-4.455 9.904-9.905 9.904s-9.905-4.455-9.905-9.904a2.293 2.293 0 0 1 2.292-2.293" clip-rule="evenodd"/><path fill="#0188FB" fill-rule="evenodd" d="M200.626 795.335c0-1.62 1.404-2.932 3.136-2.932h36.85c1.732 0 3.136 1.312 3.136 2.932s-1.404 2.932-3.136 2.932h-36.85c-1.732 0-3.136-1.313-3.136-2.932" clip-rule="evenodd"/><defs><linearGradient id="h" x1="1049.47" x2="971.38" y1="476.11" y2="466.108" gradientUnits="userSpaceOnUse"><stop offset=".26" stop-color="#072F73"/><stop offset=".366" stop-color="#072C6D"/><stop offset=".513" stop-color="#06255B"/><stop offset=".684" stop-color="#04193D"/><stop offset=".871" stop-color="#010915"/><stop offset=".956"/></linearGradient><linearGradient id="i" x1="1036.69" x2="863.287" y1="296.956" y2="419.243" gradientUnits="userSpaceOnUse"><stop offset=".026" stop-color="#0096FA"/><stop offset=".641" stop-color="#1968F0"/></linearGradient><linearGradient id="j" x1="818.926" x2="770.975" y1="204.507" y2="246.722" gradientUnits="userSpaceOnUse"><stop offset=".145" stop-color="#35DE90"/><stop offset=".653" stop-color="#1BA766"/></linearGradient><linearGradient id="k" x1="203.774" x2="245.849" y1="934.426" y2="793.055" gradientUnits="userSpaceOnUse"><stop stop-color="#C5D9FB"/><stop offset=".047" stop-color="#CEDEFA"/><stop offset=".169" stop-color="#E0E8F8"/><stop offset=".317" stop-color="#ECF0F6"/><stop offset=".518" stop-color="#F3F4F5"/><stop offset="1" stop-color="#F5F5F5"/></linearGradient><linearGradient id="l" x1="192.909" x2="176.99" y1="854.257" y2="879.979" gradientUnits="userSpaceOnUse"><stop offset=".239" stop-color="#0096FA"/><stop offset="1" stop-color="#072F73"/></linearGradient><linearGradient id="m" x1="225.846" x2="209.926" y1="854.257" y2="879.979" gradientUnits="userSpaceOnUse"><stop offset=".239" stop-color="#0096FA"/><stop offset="1" stop-color="#072F73"/></linearGradient><linearGradient id="n" x1="258.783" x2="242.863" y1="854.257" y2="879.979" gradientUnits="userSpaceOnUse"><stop offset=".239" stop-color="#0096FA"/><stop offset="1" stop-color="#072F73"/></linearGradient><linearGradient id="o" x1="216.993" x2="231.256" y1="679.767" y2="631.88" gradientUnits="userSpaceOnUse"><stop stop-color="#C5D9FB"/><stop offset=".047" stop-color="#CEDEFA"/><stop offset=".169" stop-color="#E0E8F8"/><stop offset=".317" stop-color="#ECF0F6"/><stop offset=".518" stop-color="#F3F4F5"/><stop offset="1" stop-color="#F5F5F5"/></linearGradient><linearGradient id="p" x1="234.963" x2="208.474" y1="581.193" y2="625.655" gradientUnits="userSpaceOnUse"><stop stop-color="#03F" stop-opacity="0"/><stop offset="1" stop-color="#03F" stop-opacity=".5"/></linearGradient><linearGradient id="q" x1="202.317" x2="249.249" y1="795.33" y2="637.763" gradientUnits="userSpaceOnUse"><stop stop-color="#C5D9FB"/><stop offset=".047" stop-color="#CEDEFA"/><stop offset=".169" stop-color="#E0E8F8"/><stop offset=".317" stop-color="#ECF0F6"/><stop offset=".518" stop-color="#F3F4F5"/><stop offset="1" stop-color="#F5F5F5"/></linearGradient><clipPath id="b"><rect width="41.8" height="41.842" x="458.666" y="387.526" fill="#fff" rx="20.9"/></clipPath><clipPath id="c"><rect width="41.8" height="41.842" x="249.666" y="485.158" fill="#fff" rx="20.9"/></clipPath><clipPath id="d"><rect width="41.8" height="41.842" x="249.666" y="582.79" fill="#fff" rx="20.9"/></clipPath><clipPath id="e"><rect width="41.8" height="41.842" x="249.666" y="680.421" fill="#fff" rx="20.9"/></clipPath><clipPath id="g"><rect width="83.6" height="83.684" x="932.399" y="577.559" fill="#fff" rx="41.8"/></clipPath><filter id="a" width="364.513" height="63.513" x="560.244" y="733.244" color-interpolation-filters="sRGB" filterUnits="userSpaceOnUse"><feFlood flood-opacity="0" result="BackgroundImageFix"/><feBlend in="SourceGraphic" in2="BackgroundImageFix" result="shape"/><feGaussianBlur result="effect1_foregroundBlur_10272_1611" stdDeviation="6.878"/></filter><filter id="f" width="463.933" height="216.802" x="576.066" y="569.559" color-interpolation-filters="sRGB" filterUnits="userSpaceOnUse"><feFlood flood-opacity="0" result="BackgroundImageFix"/><feColorMatrix in="SourceAlpha" result="hardAlpha" values="0 0 0 0 0 0 0 0 0 0 0 0 0 0 0 0 0 0 127 0"/><feOffset dx="8" dy="8"/><feGaussianBlur stdDeviation="8"/><feComposite in2="hardAlpha" operator="out"/><feColorMatrix values="0 0 0 0 0.160784 0 0 0 0 0.160784 0 0 0 0 0.160784 0 0 0 0.1 0"/><feBlend in2="BackgroundImageFix" result="effect1_dropShadow_10272_1611"/><feBlend in="SourceGraphic" in2="effect1_dropShadow_10272_1611" result="shape"/></filter></defs></svg>