<svg xmlns="http://www.w3.org/2000/svg" width="1080" height="1080" fill="none"><circle cx="232.5" cy="276.5" r="195.5" fill="#F5F5F5"/><path fill="#C5D9FB" d="M654.28 282.768c-200.918 0-363.793 162.876-363.793 363.793S453.363 1010.35 654.28 1010.35s363.79-162.872 363.79-363.789-162.873-363.793-363.79-363.793"/><g filter="url(#a)" opacity=".1"><path fill="#0A0F1A" d="M944.845 999.09c0 19.36-107.77 35.05-240.711 35.05s-240.711-15.69-240.711-35.05c0-19.361 107.77-35.055 240.711-35.055s240.711 15.694 240.711 35.055"/></g><path fill="#0096FA" d="M487.552 442.833h-19.314c-3.863 0-6.898-3.037-6.898-6.903v-30.238c0-3.866 3.035-6.904 6.898-6.904h19.314c3.863 0 6.898 3.038 6.898 6.904v30.238c0 3.866-3.035 6.903-6.898 6.903M487.552 536.722h-19.314c-3.863 0-6.898-3.038-6.898-6.904V468.1c0-3.866 3.035-6.904 6.898-6.904h19.314c3.863 0 6.898 3.038 6.898 6.904v61.718c0 3.866-3.035 6.904-6.898 6.904M827.482 578.006h-19.315c-3.862 0-6.897-3.038-6.897-6.904v-61.718c0-3.866 3.035-6.904 6.897-6.904h19.315c3.862 0 6.897 3.038 6.897 6.904v61.718c0 3.866-3.173 6.904-6.897 6.904"/><path fill="url(#b)" d="M766.366 1010.31H529.079c-25.523 0-46.216-20.711-46.216-46.255V344.664c0-25.544 20.693-46.254 46.216-46.254h237.287c25.523 0 46.216 20.71 46.216 46.254v619.391c-.138 25.544-20.693 46.255-46.216 46.255"/><path fill="url(#c)" d="M478.689 331.912c0-18.537 14.068-33.564 31.422-33.564h281.475c17.354 0 31.421 15.027 31.421 33.564v11.618H478.689z"/><path fill="#fff" d="m794.089 362.015 5.016-5.033a.81.81 0 0 0-.062-1.074.803.803 0 0 0-1.073-.053l-5.02 5.02-5.019-5.02a.806.806 0 0 0-1.195-.07.8.8 0 0 0-.237.612.794.794 0 0 0 .296.585l5.016 5.023-5.016 5.034a.809.809 0 0 0 .124 1.235.796.796 0 0 0 1.012-.099l5.019-5.023 5.02 5.023a.78.78 0 0 0 .566.235.802.802 0 0 0 .569-1.371zM502.83 367.065a.55.55 0 0 1-.423-.2l-3.876-4.621a1.13 1.13 0 0 1 0-1.452l3.876-4.621a.56.56 0 0 1 .781-.056.563.563 0 0 1 .082.78l-3.877 4.623 3.87 4.623a.563.563 0 0 1-.433.924"/><path fill="#0096FA" d="M813.8 340.414H483.679v46.371H813.8z"/><path fill="#2C2A46" fill-rule="evenodd" d="M528.29 377.52a14.48 14.48 0 0 0 13.371-8.951 14.505 14.505 0 0 0-3.141-15.791 14.472 14.472 0 0 0-15.777-3.143 14.48 14.48 0 0 0-6.5 5.333 14.5 14.5 0 0 0-2.445 8.049 14.54 14.54 0 0 0 4.254 10.247 14.52 14.52 0 0 0 10.238 4.256" clip-rule="evenodd"/><g clip-path="url(#d)"><path fill="#0096FA" fill-rule="evenodd" d="M532.275 369.841c-1.122.135-2.39.179-3.807.179-1.415 0-2.684-.045-3.805-.179l-.001.001-1.927 2.79a.55.55 0 0 1-.446.234.54.54 0 0 1-.441-.224 18.9 18.9 0 0 1-2.758-5.506 17.4 17.4 0 0 1-.598-2.69 15.6 15.6 0 0 1-.177-2.465c0-7.251 4.132-9.574 10.153-9.574 6.014 0 10.143 2.317 10.154 9.545v.103c-.003.84-.055 1.593-.156 2.269-.472 3.511-1.939 6.326-3.377 8.318a.544.544 0 0 1-.887-.01z" clip-rule="evenodd"/><path fill="url(#e)" d="M519.239 367.603c.715 2.15 1.778 3.886 2.609 5.038a.543.543 0 0 0 .887-.009l1.926-2.79c-2.641-.233-4.614-1.003-5.422-2.239"/><path fill="url(#f)" d="M537.683 367.603c-.715 2.15-1.778 3.886-2.609 5.038a.543.543 0 0 1-.887-.009l-1.927-2.79c2.642-.233 4.615-1.003 5.423-2.239"/><path fill="#000" fill-rule="evenodd" d="M530.924 365.575h1.033c-.004.331-.234.597-.516.597s-.512-.266-.517-.597M526.091 365.575h-1.033c.004.331.234.597.516.597s.513-.266.517-.597" clip-rule="evenodd"/><path fill="#0035B5" fill-rule="evenodd" d="m521.447 361.69-.159-1.233 3.74-.099-.518 1.505a1.14 1.14 0 0 1-1.119.768l-.951-.035a1.04 1.04 0 0 1-.993-.906m7.236 0 .16-1.233-3.741-.099.518 1.505a1.14 1.14 0 0 0 1.12.768l.95-.035a1.04 1.04 0 0 0 .993-.906m-6.454 2.223a.336.336 0 0 0-.335.337c0 .186.15.337.335.337h12.341a.336.336 0 0 0 .335-.337.336.336 0 0 0-.335-.337z" clip-rule="evenodd"/><path fill="#0065FF" fill-rule="evenodd" d="m532.442 366.017.098-1.455.807.055-.098 1.455z" clip-rule="evenodd"/></g><path fill="#90E6BC" d="M542.041 357.893a4.056 4.056 0 0 0 4.054-4.058 4.055 4.055 0 1 0-8.108 0 4.056 4.056 0 0 0 4.054 4.058"/><path fill="#2CC3D5" fill-rule="evenodd" d="M542.039 350.301a3.53 3.53 0 0 0-3.531 3.534 3.533 3.533 0 0 0 3.531 3.535 3.533 3.533 0 0 0 3.532-3.535 3.533 3.533 0 0 0-3.532-3.534m-4.576 3.534a4.58 4.58 0 0 1 4.576-4.58 4.58 4.58 0 0 1 4.577 4.58 4.58 4.58 0 0 1-4.577 4.581 4.58 4.58 0 0 1-4.576-4.581" clip-rule="evenodd"/><rect width="79.318" height="5.804" x="554.775" y="363.013" fill="#fff" rx="2.902"/><path fill="#0096FA" d="M644.513 326.568h-38.884c-5.101 0-9.198-3.36-9.198-7.543s4.097-7.543 9.198-7.543h38.884c5.101 0 9.199 3.36 9.199 7.543s-4.098 7.543-9.199 7.543"/><path fill="#F5F5F5" d="M671.614 323.959a4.83 4.83 0 0 0 4.828-4.832 4.83 4.83 0 0 0-4.828-4.833 4.83 4.83 0 0 0-4.829 4.833 4.83 4.83 0 0 0 4.829 4.832"/><path fill="url(#g)" fill-rule="evenodd" d="M527.075 1024.53h241.427c30.626 0 55.321-24.714 55.183-55.228V339.555c0-30.514-24.695-55.229-55.183-55.229H527.075c-30.488 0-55.183 24.715-55.183 55.229v629.747c0 30.514 24.695 55.228 55.183 55.228m2.21-14.22h237.288c25.522 0 46.078-20.711 46.216-46.255V344.664c0-25.543-20.694-46.254-46.216-46.254H529.285c-25.522 0-46.215 20.711-46.215 46.254v619.391c0 25.544 20.693 46.255 46.215 46.255" clip-rule="evenodd"/><path fill="#fff" d="M664.708 730.15c0-7.092-5.745-12.842-12.832-12.842H534.468c-7.087 0-12.832 5.75-12.832 12.842v17.329a4.28 4.28 0 0 0 4.277 4.281h125.963c7.087 0 12.832-5.75 12.832-12.842z"/><path fill="#C5D9FB" d="M642.051 777.444c0-7.093 5.745-12.842 12.831-12.842h130.317c7.087 0 12.832 5.749 12.832 12.842v17.329a4.28 4.28 0 0 1-4.278 4.28H654.882c-7.086 0-12.831-5.749-12.831-12.842zM642.051 892.488c0-7.093 5.745-12.842 12.831-12.842h130.317c7.087 0 12.832 5.749 12.832 12.842v17.328a4.28 4.28 0 0 1-4.278 4.281H654.882c-7.086 0-12.831-5.749-12.831-12.842z"/><path fill="#fff" d="M716.34 824.737c0-7.092-5.745-12.842-12.831-12.842H534.466c-7.087 0-12.832 5.75-12.832 12.842v37.785a4.28 4.28 0 0 0 4.278 4.28h177.597c7.086 0 12.831-5.749 12.831-12.842z"/><g filter="url(#h)"><path fill="#fff" d="M692.678 461.228c0-7.999-6.485-14.483-14.483-14.483H367.29c-7.999 0-14.483 6.484-14.483 14.483v63.726c0 1.6 1.297 2.897 2.897 2.897h322.491c7.998 0 14.483-6.485 14.483-14.484z"/></g><path fill="#FCCCCC" d="M368.336 463.804c0 24.263 19.669 43.932 43.932 43.932s43.932-19.669 43.932-43.932-19.669-43.932-43.932-43.932-43.932 19.669-43.932 43.932"/><path fill="#D2DFE6" fill-rule="evenodd" d="M493.133 477.25a4.53 4.53 0 0 1 4.53-4.529h162.693a4.53 4.53 0 1 1 0 9.058H497.663a4.53 4.53 0 0 1-4.53-4.529M493.133 497.526a4.53 4.53 0 0 1 4.53-4.529h109.818a4.53 4.53 0 0 1 0 9.059H497.663a4.53 4.53 0 0 1-4.53-4.53" clip-rule="evenodd"/><path fill="#C5D9FB" d="M411.52 501.927c24.102 0 43.639-19.555 43.639-43.676s-19.537-43.675-43.639-43.675c-24.101 0-43.639 19.554-43.639 43.675s19.538 43.676 43.639 43.676"/><path fill="url(#i)" d="M368.776 466.751c3.576 18.007 18.272 32.435 37.437 34.784 18.998 2.348 36.655-7.997 44.534-24.327z"/><path fill="url(#j)" d="M435.437 462.166v-4.027l-5.7-15.938 1.621-1.454 5.029 6.487 1.341-.839 4.135-14.819 1.788.224-.671 10.345 4.023-12.75 2.291.336-2.067 12.918 4.861-9.563 1.955 1.118-2.793 10.346 4.805-6.934 1.397.671-6.37 19.964v3.635z"/><path fill="url(#k)" d="M431.246 497.117c11.454-5.816 20.003-16.553 22.853-29.471v-4.027a2.36 2.36 0 0 0-2.347-2.348h-18.104a2.36 2.36 0 0 0-2.346 2.348v33.498z"/><path fill="#000" d="M398.334 468.205c16.325 0 29.558-12.794 29.558-28.576s-13.233-28.576-29.558-28.576-29.559 12.794-29.559 28.576 13.234 28.576 29.559 28.576"/><path fill="#6E3A0C" d="m395.484 452.547.056-11.576 15.981-5.312 10.225 15.77-3.632 2.572-.223 11.464-5.923-.335v7.158l-16.484-2.125v-9.172h-2.067a2.386 2.386 0 0 1-2.403-2.404v-6.096h4.47z"/><path fill="url(#l)" d="m412.023 465.13-7.488-.615 7.432 6.151z"/><g filter="url(#m)"><path fill="#F6F6F6" d="M616.109 602.463c0-7.999 6.485-14.483 14.483-14.483h310.905c7.999 0 14.483 6.484 14.483 14.483v63.726c0 1.6-1.297 2.896-2.897 2.896H630.592c-7.998 0-14.483-6.484-14.483-14.483z"/></g><path fill="#1968F0" fill-rule="evenodd" d="M815.652 618.485a4.53 4.53 0 0 0-4.529-4.529H648.429a4.53 4.53 0 0 0 0 9.059h162.694a4.53 4.53 0 0 0 4.529-4.53M815.652 638.761a4.53 4.53 0 0 0-4.529-4.529H701.305a4.53 4.53 0 1 0 0 9.059h109.818a4.53 4.53 0 0 0 4.529-4.53" clip-rule="evenodd"/><mask id="n" width="88" height="89" x="836" y="567" maskUnits="userSpaceOnUse" style="mask-type:alpha"><path fill="#FDE99B" d="M880.322 655.303c24.102 0 43.639-19.554 43.639-43.675 0-24.122-19.537-43.676-43.639-43.676-24.101 0-43.639 19.554-43.639 43.676 0 24.121 19.538 43.675 43.639 43.675"/></mask><g mask="url(#n)"><path fill="#1156CF" d="M873.773 665.375c30.075 4.038 57.727-17.091 61.761-47.192s-17.077-57.775-47.152-61.812c-30.076-4.038-57.728 17.091-61.762 47.191s17.077 57.776 47.153 61.813"/><path fill="#F06305" d="m891.266 632.143 18.151-20.654-2.295-22.086-45.251-9.552-4.259 10.786 9.637 5.801z"/><path fill="#FCAA73" d="m868.254 591.035-5.942 9.34-.422 5.952-5.568 11.455 3.286 1.38.101 14.658 9.505-.225 1.35 11.634 23.464.617-3.554-23.195 4.71-4.342-4.401-7.069-3.068 2.592-2.074-13.233z"/><path fill="url(#o)" d="m870.147 641.325 9.898-8.058-10.832.329z"/><path fill="url(#p)" d="m885.574 629.784 7.043 6.954-2.147-14.088z"/><path fill="url(#q)" d="m859.598 625.546 3.653-4.861-3.643-1.521z"/></g><g filter="url(#r)"><path fill="#fff" d="M738.36 708.215c0-7.465 6.052-13.517 13.518-13.517h47.311c7.466 0 13.518 6.052 13.518 13.517v18.346a4.345 4.345 0 0 1-4.345 4.345h-56.484c-7.466 0-13.518-6.052-13.518-13.518z"/></g><path fill="#F6A721" d="M786.251 715.845c1.547-5.918-1.997-11.97-7.915-13.518-5.918-1.547-11.97 1.997-13.518 7.915-1.547 5.919 1.997 11.971 7.915 13.518s11.971-1.997 13.518-7.915"/><path fill="#2C2A46" d="M771.946 711.017c0 .75-.512 1.359-1.139 1.359s-1.136-.609-1.136-1.359.512-1.359 1.136-1.359c.625 0 1.139.609 1.139 1.359M781.026 712.386a.36.36 0 0 1-.256-.095c-.742-.683-1.835-.148-1.848-.141a.361.361 0 0 1-.463-.511 2.89 2.89 0 0 1 2.6-1.3.36.36 0 0 1 .318.246.358.358 0 0 1-.229.458.4.4 0 0 1-.14.017 2.15 2.15 0 0 0-.985.174c.46.031.897.219 1.236.533a.36.36 0 0 1-.096.591.4.4 0 0 1-.137.028M776.299 720.253a5.44 5.44 0 0 1-3.327-1.139.542.542 0 0 1 .663-.857 4.35 4.35 0 0 0 7.005-3.565.54.54 0 0 1 .526-.559.54.54 0 0 1 .559.526 5.44 5.44 0 0 1-5.262 5.591z"/><g filter="url(#s)"><path fill="#fff" d="M589.186 551.798c0-7.466-6.052-13.518-13.518-13.518h-47.311c-7.466 0-13.518 6.052-13.518 13.518v18.345c0 2.4 1.946 4.345 4.345 4.345h56.484c7.466 0 13.518-6.052 13.518-13.517z"/></g><path fill="#F6A721" d="M553.876 568.279c6.436-1.03 10.818-7.082 9.788-13.518s-7.081-10.818-13.517-9.789c-6.436 1.03-10.819 7.082-9.789 13.518s7.082 10.818 13.518 9.789"/><path fill="#2C2A46" d="M558.849 555.098a.2.2 0 0 0 .09.022.2.2 0 0 0 .089-.024.2.2 0 0 0 .066-.064.2.2 0 0 0 .027-.089 1.56 1.56 0 0 0-1.559-1.56 1.56 1.56 0 0 0-1.56 1.56.2.2 0 0 0 .028.093.186.186 0 0 0 .258.062 2.42 2.42 0 0 1 2.55 0zM547.722 555.098a.2.2 0 0 0 .09.022.187.187 0 0 0 .156-.088.2.2 0 0 0 .027-.089 1.558 1.558 0 0 0-2.663-1.103 1.56 1.56 0 0 0-.457 1.103.2.2 0 0 0 .027.089q.026.04.067.064a.2.2 0 0 0 .089.024.2.2 0 0 0 .09-.022 2.43 2.43 0 0 1 2.552 0zM552.073 561.996a7.95 7.95 0 0 1-5.369-2.097.576.576 0 0 1-.004-.791.58.58 0 0 1 .79-.054 6.755 6.755 0 0 0 9.031.106.57.57 0 0 1 .635-.085.58.58 0 0 1 .322.553.57.57 0 0 1-.194.397 7.86 7.86 0 0 1-5.211 1.971"/><path fill="#8C3A03" d="M878.889 436.802v-39.298h23.313v39.298z"/><path fill="url(#t)" d="m873.023 397.585 31.256 39.014c-1.961 2.425-3.661 15.988 3.127 25.679 12.861 18.49-1.192 18.159-1.192 18.159l-51.499-64.28z"/><path fill="url(#u)" d="M737.987 239.644h123.461c17.678 0 32.03 14.36 32.03 32.048v.286l23.38 138.181H852.8l-18.534-109.651h-82.498c-4.181 1.997-69.024 3.138-73.966 3.138-17.678 0 28.061-14.36 28.061-32.049.095-17.594 14.446-31.953 32.124-31.953"/><path fill="#072F73" d="m846.318 367.81 47.621-15.207c1.562 2.7 13.615 9.147 25.186 6.252 21.87-5.385 16.526 7.617 16.526 7.617l-78.462 25.055z"/><path fill="#0096FA" d="m902.647 349.823-61.137 19.522-63.675-124.904 61.137-19.522z"/><path fill="#0096FA" d="M818.073 264.976c-16.882 5.391-34.939-3.925-40.33-20.807-5.391-16.883 3.925-34.939 20.808-40.33s34.938 3.925 40.329 20.807c5.391 16.883-3.924 34.939-20.807 40.33M695.319 300.83c-25.16 8.034-52.067-5.849-60.102-31.009s5.848-52.068 31.008-60.102c25.16-8.035 52.069 5.849 60.103 31.008 8.034 25.16-5.849 52.068-31.009 60.103"/><path fill="#0096FA" d="m676.271 239.465 122.288-35.626 18.538 58.052-117.829 37.626zM634.629 267.774l-7.303-67.262h65.276z"/><path fill="#141414" d="M732.992 92.505h-68.367c-4.195 0-7.631-3.436-7.631-7.63V33.196c0-4.194 3.436-7.63 7.631-7.63h68.367c4.195 0 7.631 3.436 7.631 7.63v51.677c0 4.195-3.436 7.631-7.631 7.631"/><path fill="#141414" d="M746.379 106.428h-50.606c-4.195 0-7.631-3.436-7.631-7.63V61.355c0-4.195 3.436-7.63 7.631-7.63h50.606c4.195 0 7.631 3.435 7.631 7.63v37.441a7.6 7.6 0 0 1-7.631 7.631"/><path fill="#141414" d="M696.667 111.159h-50.606c-4.195 0-7.631-3.436-7.631-7.631V66.087c0-4.195 3.436-7.631 7.631-7.631h50.606c4.195 0 7.631 3.436 7.631 7.63v37.442a7.6 7.6 0 0 1-7.631 7.631"/><path fill="#8C3A03" d="M724.293 12h-42.618l-3.257 3.258V95.45h31.506V82.598h14.369l3.258-3.257V15.258z"/><path fill="#141414" d="m681.675 12-3.257 3.258-.224 36.727.268.178 32.488-32.666 16.601 19.993V15.258L724.293 12z"/><path fill="#8C3A03" d="M674.532 64.97h8.926V51.004h-12.094v10.844c0 1.74 1.428 3.124 3.168 3.124"/><path fill="url(#v)" d="M685.736 82.018h-7.319V64.971h7.319z"/><path fill="url(#w)" d="M698.804 82.554h11.112v4.462h-11.112z"/><path fill="#141414" fill-rule="evenodd" d="M714.66 46.729a.865.865 0 0 0-.447 1.14l6.654 15.21h-6.574a.866.866 0 1 0 0 1.732h7.899a.865.865 0 0 0 .793-1.214L715.8 47.175a.866.866 0 0 0-1.14-.446" clip-rule="evenodd"/><path fill="#35DE90" d="M616.263 136.335a33.09 33.09 0 0 1 22.335-25.713l39.865-13.124V87.267h31.366v10.231l5.073 1.69 34.792 11.434c11.613 3.826 20.2 13.702 22.335 25.713l-5.509 69.16v9.658l-134.548 36.635-23.646-71.937z"/><path fill="#8C3A03" d="M650.062 209.159h-46.837l5.871-33.304h46.749z"/><path fill="#8C3A03" d="M629.976 239.799c-14.898 0-26.976-12.227-26.976-27.31s12.078-27.309 26.976-27.309 26.976 12.227 26.976 27.309-12.077 27.31-26.976 27.31"/><path fill="url(#x)" d="m661.004 149.212-11.152 59.947h53.286z"/><path fill="#8C3A03" d="m619.211 209.159 32.129-21.737 31.904-21.558 22.557 32.627-64.505 39.309z"/><path fill="url(#y)" d="m655.845 178.52-1.292 7.029-34.798 23.61h-16.53l1.916-11.009z"/><path fill="#8C3A03" d="m683.158 166.022 49.271-5.487 22.481 7.036 13.506 10-3.865 3.762-8.575-3.673 9.463 9.115-5.065 3.408-21.058-13.364 13.239 15.001-3.999 2.92-15.994-10.487 9.775 10.709-3.466 2.832-15.727-10.134-17.816 10.842z"/><path fill="#072F73" d="M709.785 204.343h106.344c2.187 0 3.838 2.008 3.436 4.15l-.669 3.437c-.313 1.651-1.741 2.811-3.437 2.811H709.116c-2.187 0-3.838-2.008-3.436-4.15l.669-3.436c.312-1.651 1.74-2.812 3.436-2.812"/><path fill="#0C4EC0" d="M884.583 136.557H767.395c-1.651 0-3.079 1.16-3.436 2.811l-13.834 71.223c-.402 2.142 1.249 4.15 3.436 4.15h117.188c1.651 0 3.079-1.16 3.436-2.811l13.834-71.223c.402-2.142-1.249-4.15-3.436-4.15"/><path fill="#0188FB" fill-rule="evenodd" d="M173.737 891.775c-32.52 12.725-58.164-2.267-67.4-12.14l11.454-10.715c5.925 6.334 25.034 18.109 50.23 8.249zM352.452 886.65c34.898-1.273 52.453-25.235 56.995-37.969l-14.772-5.269c-2.914 8.17-15.755 26.578-42.795 27.565z" clip-rule="evenodd"/><path fill="#072F73" d="M199.11 882.904c0 10.827-8.777 19.605-19.605 19.605-10.827 0-19.605-8.778-19.605-19.605s8.778-19.605 19.605-19.605 19.605 8.777 19.605 19.605M324.581 882.905c0 10.827 8.778 19.605 19.605 19.605s19.605-8.778 19.605-19.605-8.777-19.605-19.605-19.605c-10.827 0-19.605 8.777-19.605 19.605"/><path fill="#2C2A46" fill-rule="evenodd" d="M228.91 966.813c6.064 0 10.979-4.915 10.979-10.979s-4.915-10.978-10.979-10.978-10.979 4.915-10.979 10.978c0 6.064 4.916 10.979 10.979 10.979m0 9.411c11.261 0 20.389-9.129 20.389-20.39 0-11.26-9.128-20.389-20.389-20.389s-20.389 9.129-20.389 20.389 9.129 20.39 20.389 20.39M296.351 966.813c6.063 0 10.979-4.915 10.979-10.979s-4.916-10.978-10.979-10.978-10.979 4.915-10.979 10.978c0 6.064 4.916 10.979 10.979 10.979m0 9.411c11.261 0 20.389-9.129 20.389-20.39 0-11.26-9.128-20.389-20.389-20.389s-20.389 9.129-20.389 20.389 9.128 20.39 20.389 20.39" clip-rule="evenodd"/><path fill="#072F73" d="M227.341 938.582h69.01v42.347c0 19.056-15.449 34.501-34.505 34.501s-34.505-15.445-34.505-34.501z"/><path fill="#F4F5F6" fill-rule="evenodd" d="M242.241 969.95a3.137 3.137 0 0 1 3.137-3.137h35.289a3.137 3.137 0 0 1 0 6.274h-35.289a3.14 3.14 0 0 1-3.137-3.137M242.241 985.634a3.137 3.137 0 0 1 3.137-3.137h35.289a3.137 3.137 0 0 1 0 6.274h-35.289a3.14 3.14 0 0 1-3.137-3.137" clip-rule="evenodd"/><path fill="#0188FB" fill-rule="evenodd" d="M91.675 842.91a6.274 6.274 0 0 1 6.274-6.274c14.292 0 25.878 11.586 25.878 25.879 0 14.292-11.586 25.878-25.878 25.878S72.07 876.807 72.07 862.515a6.274 6.274 0 1 1 12.548 0c0 7.362 5.968 13.331 13.33 13.331 7.364 0 13.332-5.969 13.332-13.331 0-7.363-5.968-13.332-13.331-13.332a6.273 6.273 0 0 1-6.274-6.273M402.007 806.905a6.274 6.274 0 0 0-8.766-1.371c-11.547 8.422-14.081 24.61-5.659 36.157 8.422 11.548 24.611 14.081 36.158 5.659s14.081-24.61 5.659-36.158a6.274 6.274 0 0 0-10.137 7.394c4.338 5.949 3.033 14.288-2.916 18.627s-14.288 3.033-18.626-2.915-3.034-14.288 2.915-18.627a6.275 6.275 0 0 0 1.372-8.766" clip-rule="evenodd"/><path fill="url(#z)" d="M258.704 960.014c49.012 0 73.826-7.198 73.826-58.08 0-52.421-30.048-69.217-73.826-69.217s-73.826 16.796-73.826 69.217c0 50.882 24.814 58.08 73.826 58.08"/><path fill="url(#A)" d="M241.457 897.804c0 6.93-5.617 12.547-12.547 12.547s-12.547-5.617-12.547-12.547 5.617-12.547 12.547-12.547 12.547 5.617 12.547 12.547"/><path fill="url(#B)" d="M274.393 897.804c0 6.93-5.617 12.547-12.547 12.547s-12.547-5.617-12.547-12.547 5.617-12.547 12.547-12.547 12.547 5.617 12.547 12.547"/><path fill="url(#C)" d="M307.33 897.804c0 6.93-5.618 12.547-12.547 12.547s-12.548-5.617-12.548-12.547 5.618-12.547 12.548-12.547 12.547 5.617 12.547 12.547"/><path fill="#072F73" d="M191.164 779.422c23.112.823 34.909-2.126 35.732-26.13.891-24.69-12.962-33.125-33.606-33.88-20.575-.754-35.046 6.653-35.937 31.343-.823 24.072 10.699 27.844 33.811 28.667M327.644 779.353c-23.112.823-34.909-2.126-35.732-26.13-.891-24.69 12.962-33.125 33.606-33.88 20.575-.754 35.046 6.653 35.937 31.343.823 24.004-10.699 27.844-33.811 28.667"/><path fill="#072F73" fill-rule="evenodd" d="M258.718 627.171a3.29 3.29 0 0 1 3.289 3.289v75.441a3.288 3.288 0 1 1-6.578 0V630.46a3.29 3.29 0 0 1 3.289-3.289" clip-rule="evenodd"/><path fill="url(#D)" d="M259.404 708.918c16.597 0 24.964-2.469 24.964-19.683 0-17.763-10.15-23.455-24.964-23.455s-24.964 5.692-24.964 23.455c0 17.283 8.367 19.683 24.964 19.683"/><path fill="#0096FA" d="M258.741 651.439c10.339 0 18.72-8.381 18.72-18.719S269.08 614 258.741 614s-18.72 8.381-18.72 18.72 8.382 18.719 18.72 18.719"/><path fill="url(#E)" d="M258.741 651.439c10.339 0 18.72-8.381 18.72-18.719S269.08 614 258.741 614s-18.72 8.381-18.72 18.72 8.382 18.719 18.72 18.719"/><path fill="url(#F)" d="M259.404 820.298c54.592 0 82.231-8.025 82.231-64.743 0-58.432-33.468-77.156-82.231-77.156s-82.231 18.724-82.231 77.156c0 56.718 27.639 64.743 82.231 64.743"/><path fill="#072F73" d="M293.558 704.872a406 406 0 0 0-68.308 0c-9.053.755-17.078 8.985-19.478 17.352-3.704 17.9-5.281 34.977-4.252 53.289 1.371 8.504 9.327 16.871 18.174 17.763 26.61 2.606 52.809 2.606 79.488 0 8.298-1.509 17.42-8.847 18.174-17.763 1.029-18.312-.548-35.389-4.252-53.289-1.989-8.847-10.904-15.98-19.546-17.352"/><path fill="#35DE90" d="M231.069 757.886a9.003 9.003 0 1 0 0-18.007 9.003 9.003 0 0 0 0 18.007M287.559 757.886a9.003 9.003 0 0 0 9.003-9.003 9.003 9.003 0 1 0-9.003 9.003"/><path fill="#35DE90" fill-rule="evenodd" d="M251.864 749.048a2.293 2.293 0 0 1 2.293 2.293c0 2.917 2.403 5.32 5.32 5.32s5.321-2.403 5.321-5.32a2.293 2.293 0 1 1 4.584 0c0 5.449-4.455 9.904-9.905 9.904s-9.905-4.455-9.905-9.904a2.293 2.293 0 0 1 2.292-2.293" clip-rule="evenodd"/><path fill="#0188FB" fill-rule="evenodd" d="M236.625 826.335c0-1.62 1.405-2.933 3.137-2.933h36.85c1.732 0 3.136 1.313 3.136 2.933s-1.404 2.932-3.136 2.932h-36.85c-1.732 0-3.137-1.313-3.137-2.932" clip-rule="evenodd"/><g filter="url(#G)" opacity=".1"><path fill="#0A0F1A" d="M319 1025c0 9.94-25.296 18-56.5 18s-56.5-8.06-56.5-18 25.296-18 56.5-18 56.5 8.06 56.5 18"/></g><defs><linearGradient id="b" x1="362.767" x2="830.582" y1="81.693" y2="1085.03" gradientUnits="userSpaceOnUse"><stop stop-color="#fff"/><stop offset=".148" stop-color="#F7FAFE"/><stop offset=".304" stop-color="#E2ECFD"/><stop offset=".516" stop-color="#FAFCFF"/><stop offset=".97" stop-color="#C5D9FB"/></linearGradient><linearGradient id="c" x1="681.229" x2="651.627" y1="349.762" y2="276.536" gradientUnits="userSpaceOnUse"><stop stop-color="#0D4FC1"/><stop offset=".483" stop-color="#135CD8"/><stop offset="1" stop-color="#1A69F1"/></linearGradient><linearGradient id="e" x1="524.775" x2="519.482" y1="369.336" y2="370.516" gradientUnits="userSpaceOnUse"><stop offset=".011" stop-color="#0012FF" stop-opacity=".2"/><stop offset=".52" stop-color="#0012FF" stop-opacity="0"/></linearGradient><linearGradient id="f" x1="532.146" x2="537.44" y1="369.336" y2="370.516" gradientUnits="userSpaceOnUse"><stop offset=".011" stop-color="#0012FF" stop-opacity=".2"/><stop offset=".52" stop-color="#0012FF" stop-opacity="0"/></linearGradient><linearGradient id="g" x1="420.028" x2="956.291" y1="438.302" y2="946.069" gradientUnits="userSpaceOnUse"><stop stop-color="#1968F0"/><stop offset=".291" stop-color="#125BD8"/><stop offset=".589" stop-color="#0E51C6"/><stop offset=".805" stop-color="#0C4EC0"/></linearGradient><linearGradient id="i" x1="381.042" x2="438.431" y1="492.23" y2="461.253" gradientUnits="userSpaceOnUse"><stop offset=".065" stop-color="#0096FA"/><stop offset=".289" stop-color="#0093FA"/><stop offset=".469" stop-color="#0089FB"/><stop offset=".635" stop-color="#0078FC"/><stop offset=".792" stop-color="#0060FD"/><stop offset=".941" stop-color="#0041FE"/><stop offset="1" stop-color="#03F"/></linearGradient><linearGradient id="j" x1="443.597" x2="443.597" y1="443.227" y2="471.014" gradientUnits="userSpaceOnUse"><stop offset=".375" stop-color="#6E3A0C"/><stop offset=".5" stop-color="#6A380C"/><stop offset=".619" stop-color="#5F320A"/><stop offset=".734" stop-color="#4C2808"/><stop offset=".847" stop-color="#311A05"/><stop offset=".958" stop-color="#0F0802"/><stop offset="1"/></linearGradient><linearGradient id="k" x1="425.611" x2="463.278" y1="464.298" y2="498.607" gradientUnits="userSpaceOnUse"><stop offset=".205" stop-color="#0096FA"/><stop offset=".362" stop-color="#0092FA"/><stop offset=".523" stop-color="#0086FB"/><stop offset=".685" stop-color="#0071FC"/><stop offset=".848" stop-color="#0055FD"/><stop offset="1" stop-color="#03F"/></linearGradient><linearGradient id="l" x1="406.816" x2="413.933" y1="469.171" y2="461.328" gradientUnits="userSpaceOnUse"><stop offset=".211" stop-color="#6E3A0C"/><stop offset=".322" stop-color="#65350B"/><stop offset=".502" stop-color="#4E2908"/><stop offset=".726" stop-color="#271504"/><stop offset=".922"/></linearGradient><linearGradient id="o" x1="878.223" x2="869.565" y1="639.919" y2="630.973" gradientUnits="userSpaceOnUse"><stop offset=".294" stop-opacity="0"/><stop offset="1" stop-opacity=".5"/></linearGradient><linearGradient id="p" x1="886.252" x2="896.779" y1="639.519" y2="620.849" gradientUnits="userSpaceOnUse"><stop offset=".367" stop-opacity="0"/><stop offset=".884" stop-opacity=".5"/></linearGradient><linearGradient id="q" x1="863.748" x2="860.018" y1="627.934" y2="617.124" gradientUnits="userSpaceOnUse"><stop offset=".367" stop-opacity="0"/><stop offset=".928" stop-opacity=".5"/></linearGradient><linearGradient id="t" x1="921.468" x2="843.38" y1="443.111" y2="433.108" gradientUnits="userSpaceOnUse"><stop offset=".26" stop-color="#072F73"/><stop offset=".366" stop-color="#072C6D"/><stop offset=".513" stop-color="#06255B"/><stop offset=".684" stop-color="#04193D"/><stop offset=".871" stop-color="#010915"/><stop offset=".956"/></linearGradient><linearGradient id="u" x1="908.689" x2="735.287" y1="263.956" y2="386.243" gradientUnits="userSpaceOnUse"><stop offset=".026" stop-color="#0096FA"/><stop offset=".641" stop-color="#1968F0"/></linearGradient><linearGradient id="v" x1="688.931" x2="669.311" y1="75.175" y2="70.384" gradientUnits="userSpaceOnUse"><stop stop-color="#8C3A03" stop-opacity=".2"/><stop offset=".938" stop-color="#763103"/></linearGradient><linearGradient id="w" x1="699.663" x2="709.272" y1="91.651" y2="77.61" gradientUnits="userSpaceOnUse"><stop stop-color="#8C3A03" stop-opacity=".13"/><stop offset="1" stop-color="#642901"/></linearGradient><linearGradient id="x" x1="690.927" x2="642.975" y1="171.507" y2="213.722" gradientUnits="userSpaceOnUse"><stop offset=".145" stop-color="#35DE90"/><stop offset=".653" stop-color="#1BA766"/></linearGradient><linearGradient id="y" x1="621.185" x2="642.205" y1="175.107" y2="223.001" gradientUnits="userSpaceOnUse"><stop offset=".281" stop-color="#F8BC9A" stop-opacity="0"/><stop offset=".297" stop-color="#8C3A03"/><stop offset=".79" stop-color="#732F02"/></linearGradient><linearGradient id="z" x1="239.773" x2="281.849" y1="965.426" y2="824.055" gradientUnits="userSpaceOnUse"><stop stop-color="#C5D9FB"/><stop offset=".047" stop-color="#CEDEFA"/><stop offset=".169" stop-color="#E0E8F8"/><stop offset=".317" stop-color="#ECF0F6"/><stop offset=".518" stop-color="#F3F4F5"/><stop offset="1" stop-color="#F5F5F5"/></linearGradient><linearGradient id="A" x1="228.91" x2="212.99" y1="885.257" y2="910.979" gradientUnits="userSpaceOnUse"><stop offset=".239" stop-color="#0096FA"/><stop offset="1" stop-color="#072F73"/></linearGradient><linearGradient id="B" x1="261.846" x2="245.926" y1="885.257" y2="910.979" gradientUnits="userSpaceOnUse"><stop offset=".239" stop-color="#0096FA"/><stop offset="1" stop-color="#072F73"/></linearGradient><linearGradient id="C" x1="294.783" x2="278.863" y1="885.257" y2="910.979" gradientUnits="userSpaceOnUse"><stop offset=".239" stop-color="#0096FA"/><stop offset="1" stop-color="#072F73"/></linearGradient><linearGradient id="D" x1="252.993" x2="267.257" y1="710.767" y2="662.88" gradientUnits="userSpaceOnUse"><stop stop-color="#C5D9FB"/><stop offset=".047" stop-color="#CEDEFA"/><stop offset=".169" stop-color="#E0E8F8"/><stop offset=".317" stop-color="#ECF0F6"/><stop offset=".518" stop-color="#F3F4F5"/><stop offset="1" stop-color="#F5F5F5"/></linearGradient><linearGradient id="E" x1="270.963" x2="244.474" y1="612.193" y2="656.655" gradientUnits="userSpaceOnUse"><stop stop-color="#03F" stop-opacity="0"/><stop offset="1" stop-color="#03F" stop-opacity=".5"/></linearGradient><linearGradient id="F" x1="238.318" x2="285.249" y1="826.33" y2="668.763" gradientUnits="userSpaceOnUse"><stop stop-color="#C5D9FB"/><stop offset=".047" stop-color="#CEDEFA"/><stop offset=".169" stop-color="#E0E8F8"/><stop offset=".317" stop-color="#ECF0F6"/><stop offset=".518" stop-color="#F3F4F5"/><stop offset="1" stop-color="#F5F5F5"/></linearGradient><filter id="a" width="513.422" height="102.11" x="447.423" y="948.035" color-interpolation-filters="sRGB" filterUnits="userSpaceOnUse"><feFlood flood-opacity="0" result="BackgroundImageFix"/><feBlend in="SourceGraphic" in2="BackgroundImageFix" result="shape"/><feGaussianBlur result="effect1_foregroundBlur_10272_1619" stdDeviation="8"/></filter><filter id="h" width="356.161" height="97.396" x="344.662" y="439.957" color-interpolation-filters="sRGB" filterUnits="userSpaceOnUse"><feFlood flood-opacity="0" result="BackgroundImageFix"/><feColorMatrix in="SourceAlpha" result="hardAlpha" values="0 0 0 0 0 0 0 0 0 0 0 0 0 0 0 0 0 0 127 0"/><feOffset dy="1.358"/><feGaussianBlur stdDeviation="4.073"/><feColorMatrix values="0 0 0 0 0.374547 0 0 0 0 0.481553 0 0 0 0 0.601935 0 0 0 0.15 0"/><feBlend in2="BackgroundImageFix" result="effect1_dropShadow_10272_1619"/><feBlend in="SourceGraphic" in2="effect1_dropShadow_10272_1619" result="shape"/></filter><filter id="m" width="356.161" height="97.396" x="607.964" y="581.192" color-interpolation-filters="sRGB" filterUnits="userSpaceOnUse"><feFlood flood-opacity="0" result="BackgroundImageFix"/><feColorMatrix in="SourceAlpha" result="hardAlpha" values="0 0 0 0 0 0 0 0 0 0 0 0 0 0 0 0 0 0 127 0"/><feOffset dy="1.358"/><feGaussianBlur stdDeviation="4.073"/><feColorMatrix values="0 0 0 0 0.374547 0 0 0 0 0.481553 0 0 0 0 0.601935 0 0 0 0.15 0"/><feBlend in2="BackgroundImageFix" result="effect1_dropShadow_10272_1619"/><feBlend in="SourceGraphic" in2="effect1_dropShadow_10272_1619" result="shape"/></filter><filter id="r" width="81.784" height="43.645" x="734.642" y="691.599" color-interpolation-filters="sRGB" filterUnits="userSpaceOnUse"><feFlood flood-opacity="0" result="BackgroundImageFix"/><feColorMatrix in="SourceAlpha" result="hardAlpha" values="0 0 0 0 0 0 0 0 0 0 0 0 0 0 0 0 0 0 127 0"/><feOffset dy=".62"/><feGaussianBlur stdDeviation="1.859"/><feColorMatrix values="0 0 0 0 0.374547 0 0 0 0 0.481553 0 0 0 0 0.601935 0 0 0 0.15 0"/><feBlend in2="BackgroundImageFix" result="effect1_dropShadow_10272_1619"/><feBlend in="SourceGraphic" in2="effect1_dropShadow_10272_1619" result="shape"/></filter><filter id="s" width="81.784" height="43.645" x="511.121" y="535.182" color-interpolation-filters="sRGB" filterUnits="userSpaceOnUse"><feFlood flood-opacity="0" result="BackgroundImageFix"/><feColorMatrix in="SourceAlpha" result="hardAlpha" values="0 0 0 0 0 0 0 0 0 0 0 0 0 0 0 0 0 0 127 0"/><feOffset dy=".62"/><feGaussianBlur stdDeviation="1.859"/><feColorMatrix values="0 0 0 0 0.374547 0 0 0 0 0.481553 0 0 0 0 0.601935 0 0 0 0.15 0"/><feBlend in2="BackgroundImageFix" result="effect1_dropShadow_10272_1619"/><feBlend in="SourceGraphic" in2="effect1_dropShadow_10272_1619" result="shape"/></filter><filter id="G" width="140.513" height="63.513" x="192.244" y="993.244" color-interpolation-filters="sRGB" filterUnits="userSpaceOnUse"><feFlood flood-opacity="0" result="BackgroundImageFix"/><feBlend in="SourceGraphic" in2="BackgroundImageFix" result="shape"/><feGaussianBlur result="effect1_foregroundBlur_10272_1619" stdDeviation="6.878"/></filter><clipPath id="d"><path fill="#fff" d="M518.315 352.407h20.307v20.459h-20.307z"/></clipPath></defs></svg>