<svg width="1080" height="1094" fill="none" xmlns="http://www.w3.org/2000/svg"><path d="M684.196 473.328c-68.197-3.873-124.659-27.503-236.135-137.507-157.435-155.436-324.415 54.944-281.867 196.2 42.547 141.256 147.97 124.122 185.851 369.326 51.524 333.943 399.277 57.404 516.52-71.484 139.815-153.775 122.136-338.938-184.369-356.535Z" fill="#B9CBD3" style="mix-blend-mode:luminosity" opacity=".16"/><path d="M313.215 334.378c0-33.565 27.21-60.775 60.775-60.775h265.703c33.565 0 60.775 27.21 60.775 60.775v657.477c0 33.565-27.21 60.775-60.775 60.775H373.99c-33.565 0-60.775-27.21-60.775-60.775V334.378Z" fill="#1A2437"/><path d="M339.279 328.842c0-18.309 14.842-33.151 33.15-33.151h273.74c18.308 0 33.15 14.842 33.15 33.151v666.016c0 18.312-14.842 33.152-33.15 33.152h-273.74c-18.308 0-33.15-14.84-33.15-33.152V328.842Z" fill="#E7DCD4"/><path d="M339.279 326.723c0-17.138 13.893-31.032 31.031-31.032h278.098c17.138 0 31.031 13.894 31.031 31.032v8.727h-340.16v-8.727Z" fill="#0C4E44"/><path d="M679.439 335.45h-340.16v48.594h340.16V335.45Z" fill="#0F5D54"/><path d="M411.929 295.799h189.357v2.511c0 14.425-11.693 26.118-26.118 26.118H438.047c-14.425 0-26.118-11.693-26.118-26.118v-2.511Z" fill="#1A2437"/><path d="M523.1 306.312h-57.249a2.526 2.526 0 0 0 0 5.052H523.1a2.525 2.525 0 0 0 0-5.052Zm27.332 3.568a3.593 3.593 0 1 1-3.569-3.568 3.571 3.571 0 0 1 3.569 3.568Z" fill="#3A4A65"/><path d="m659.001 357.688 5.201-5.182a.827.827 0 0 0-.611-1.345.839.839 0 0 0-.567.185l-5.204 5.168-5.204-5.168a.823.823 0 0 0-.603-.311.84.84 0 0 0-.636.239.821.821 0 0 0-.246.63.821.821 0 0 0 .307.602l5.201 5.172-5.201 5.182a.821.821 0 0 0-.177.901.827.827 0 0 0 .768.511.808.808 0 0 0 .587-.242l5.204-5.172 5.204 5.172a.81.81 0 0 0 .588.242.83.83 0 0 0 .59-1.412l-5.201-5.172Zm-301.983 5.199a.582.582 0 0 1-.439-.206l-4.019-4.758a1.157 1.157 0 0 1 0-1.494l4.019-4.758a.582.582 0 0 1 .394-.191.582.582 0 0 1 .501.936l-4.019 4.76 4.012 4.76a.575.575 0 0 1-.449.951Z" fill="#fff"/><path fill-rule="evenodd" clip-rule="evenodd" d="M383.414 373.65a15.083 15.083 0 0 0 8.338-2.519 14.943 14.943 0 0 0 5.526-6.697 14.843 14.843 0 0 0 .852-8.619 14.896 14.896 0 0 0-4.109-7.638 15.045 15.045 0 0 0-7.685-4.083 15.103 15.103 0 0 0-8.673.846 15.007 15.007 0 0 0-6.739 5.492 14.85 14.85 0 0 0-2.535 8.286 14.915 14.915 0 0 0 4.41 10.549 15.106 15.106 0 0 0 10.615 4.383Z" fill="#202C44"/><path d="M387.56 349.657a22.675 22.675 0 0 0-4.449-.432c-2.681 0-4.92.468-6.32 1.322-2.832 1.734-3.151 5.376-3.088 7.393.064 2.087.55 4.992 2.479 6.98 1.547 1.595 5.041 2.456 7.55 2.46a1.421 1.421 0 0 1 1.433 1.408v.954a.165.165 0 0 0 .096.149.166.166 0 0 0 .177-.025c.809-.701 1.668-1.459 2.516-2.238.208-.182.42-.385.633-.578 1.017-.912 2.068-1.873 2.797-2.902.852-1.2 1.404-2.695 1.652-4.444a15.09 15.09 0 0 0-.184-4.944c-.541-2.698-2.42-4.509-5.292-5.103Z" fill="#00C6D7"/><path opacity=".25" d="M393.018 358.756a7.905 7.905 0 0 1-1.652 3.845c-.734.892-1.78 1.714-2.797 2.511-.212.168-.425.334-.633.5-.847.676-1.15.888-1.961 1.495a.173.173 0 0 1-.078.032.165.165 0 0 1-.152-.059.16.16 0 0 1-.036-.075l-.122-.771c0-.675-1.075-.821-1.862-.823-2.509 0-6.003-.747-7.55-2.126-1.932-1.727-2.415-4.24-2.479-6.044v-.1.756c.064 2.087.55 4.992 2.479 6.98 1.547 1.596 5.041 2.456 7.55 2.46a1.437 1.437 0 0 1 1.011.408 1.414 1.414 0 0 1 .422 1v.954c0 .031.009.062.026.089a.166.166 0 0 0 .247.035c.81-.7 1.669-1.459 2.516-2.238.208-.182.421-.385.634-.578 1.016-.912 2.068-1.873 2.796-2.902.852-1.2 1.404-2.695 1.652-4.444.101-.752.141-1.512.121-2.271-.015.458-.06.914-.132 1.366Z" fill="#00C6D7"/><path d="M379.459 358.102a.745.745 0 0 0 .746-.743.745.745 0 0 0-.746-.742.745.745 0 0 0-.747.742c0 .41.334.743.747.743Zm7.867 0a.745.745 0 0 0 .747-.743.745.745 0 0 0-.747-.742.745.745 0 0 0-.747.742c0 .41.335.743.747.743Zm-3.894 3.502c-1.141 0-2.117-.393-2.427-.981a.273.273 0 0 1-.022-.198.275.275 0 0 1 .121-.16.276.276 0 0 1 .305.029.273.273 0 0 1 .068.083c.176.336.919.691 1.942.691s1.812-.368 1.957-.726a.277.277 0 0 1 .511-.003.273.273 0 0 1 .001.21c-.256.618-1.276 1.055-2.456 1.055Z" fill="#167491"/><path d="M397.671 353.442c2.321 0 4.203-1.87 4.203-4.177 0-2.307-1.882-4.177-4.203-4.177-2.322 0-4.203 1.87-4.203 4.177 0 2.307 1.881 4.177 4.203 4.177Z" fill="#21CC79"/><rect x="407" y="355" width="114" height="8" rx="4" fill="#fff"/><path d="M355.038 982.524c0-7.742 6.277-14.018 14.019-14.018H597.6c7.742 0 14.018 6.276 14.018 14.018v19.796a4.67 4.67 0 0 1-4.673 4.67H369.057c-7.743 0-14.019-6.27-14.019-14.015v-10.451Z" fill="#fff"/><path fill-rule="evenodd" clip-rule="evenodd" d="M375.873 977.059a10.143 10.143 0 0 0-9.372 6.263 10.145 10.145 0 1 0 9.372-6.263Zm0 19.174a8.963 8.963 0 0 1-6.34-2.638 8.76 8.76 0 0 1-1.636-2.206 9.04 9.04 0 0 1 12.691-11.932 9.04 9.04 0 0 1 .78 14.939 9.043 9.043 0 0 1-5.469 1.837h-.026Z" fill="#0F5D54"/><path fill-rule="evenodd" clip-rule="evenodd" d="M372.565 986.036a1.099 1.099 0 0 0 1.096-1.31 1.1 1.1 0 0 0-2-.407 1.11 1.11 0 0 0 .132 1.39c.204.206.482.324.772.327Zm6.786.001a1.105 1.105 0 0 0 .216-2.186 1.11 1.11 0 0 0-1.133.469 1.107 1.107 0 0 0 .137 1.393 1.11 1.11 0 0 0 .78.324Zm-4.074 5.643a5.268 5.268 0 0 1-3.804-2.346l-.913.596a6.339 6.339 0 0 0 4.565 2.84c.237.013.474.013.71 0a6.342 6.342 0 0 0 5.314-2.878l-.926-.596a5.239 5.239 0 0 1-4.946 2.384Z" fill="#0F5D54"/><path d="M657.782 987.311c0 10.386-8.42 18.809-18.805 18.809-10.386 0-18.806-8.423-18.806-18.809 0-10.386 8.42-18.805 18.806-18.805 10.385 0 18.805 8.419 18.805 18.805Z" fill="#13897B"/><path fill-rule="evenodd" clip-rule="evenodd" d="M639.628 993.099h-.138a5.108 5.108 0 0 1-5.098-5.103v-6.424a5.097 5.097 0 0 1 1.486-3.621 5.114 5.114 0 0 1 3.612-1.506h.138a5.11 5.11 0 0 1 5.098 5.127v6.424a5.108 5.108 0 0 1-5.098 5.103Zm-2.361-13.75a3.152 3.152 0 0 0-.922 2.223v6.424a3.152 3.152 0 0 0 3.145 3.146h.138a3.153 3.153 0 0 0 3.145-3.146v-6.424a3.152 3.152 0 0 0-3.145-3.145h-.138a3.152 3.152 0 0 0-2.223.922Zm9.219 6.553a.979.979 0 0 1 1.381-.002.974.974 0 0 1 .285.689v2.851c0 4.091-3.397 7.427-7.64 7.602v2.552c0 .252-.1.496-.278.676a.98.98 0 0 1-.672.27.978.978 0 0 1-.672-.27.96.96 0 0 1-.279-.676v-2.547c-4.247-.18-7.645-3.516-7.645-7.602v-2.851a.983.983 0 0 1 .586-.966.992.992 0 0 1 .781 0 .982.982 0 0 1 .586.966v2.851c0 3.122 2.718 5.664 6.044 5.664h1.193c3.335 0 6.043-2.542 6.043-5.664v-2.851a.98.98 0 0 1 .287-.692Z" fill="#fff"/><g filter="url(#whatsapp__a)"><path d="M504.121 433.585c0-7.391-5.992-13.382-13.383-13.382H203.456c-7.391 0-13.383 5.991-13.383 13.382v58.884a2.676 2.676 0 0 0 2.677 2.677h297.988c7.391 0 13.383-5.992 13.383-13.383v-48.178Z" fill="#E5FECE"/></g><path d="M204.423 435.965c0 22.42 18.175 40.595 40.594 40.595 22.42 0 40.595-18.175 40.595-40.595 0-22.419-18.175-40.594-40.595-40.594-22.419 0-40.594 18.175-40.594 40.594Z" fill="#FFD6D7"/><path fill-rule="evenodd" clip-rule="evenodd" d="M319.739 448.39a4.184 4.184 0 0 1 4.185-4.185h150.332a4.185 4.185 0 1 1 0 8.37H323.924a4.185 4.185 0 0 1-4.185-4.185Zm0 18.736a4.185 4.185 0 0 1 4.185-4.186h101.474a4.185 4.185 0 1 1 0 8.371H323.924a4.185 4.185 0 0 1-4.185-4.185Z" fill="#3A4A65"/><mask id="whatsapp__b" style="mask-type:alpha" maskUnits="userSpaceOnUse" x="204" y="395" width="82" height="82"><path d="M245.017 476.56c22.42 0 40.594-18.175 40.594-40.595 0-22.419-18.174-40.594-40.594-40.594s-40.594 18.175-40.594 40.594c0 22.42 18.174 40.595 40.594 40.595Z" fill="#FF5A60"/></mask><g mask="url(#whatsapp__b)"><path fill-rule="evenodd" clip-rule="evenodd" d="M228.884 466.195c.46.59.355 1.44-.233 1.902l-.002.001-.024.02c-.025.021-.067.056-.125.107a10.66 10.66 0 0 0-.516.495 18.515 18.515 0 0 0-1.816 2.197c-1.448 2.032-3.238 5.254-4.492 9.941a1.357 1.357 0 0 1-2.623-.702c1.343-5.017 3.278-8.534 4.904-10.815a21.062 21.062 0 0 1 2.088-2.521 12.909 12.909 0 0 1 .846-.791l.058-.048.019-.015.006-.005.003-.002.001-.001c.001 0 .001-.001.835 1.071l-.834-1.072a1.358 1.358 0 0 1 1.905.238Zm31.872.24a1.358 1.358 0 0 1 1.919-.063l-.928.991.928-.991.002.002.002.002.005.005.016.015.053.051.18.182c.152.157.366.385.626.683a26.44 26.44 0 0 1 2 2.632c1.547 2.311 3.367 5.733 4.491 10.211a1.358 1.358 0 0 1-2.633.661c-1.035-4.122-2.707-7.26-4.114-9.361a23.59 23.59 0 0 0-1.792-2.359 14.725 14.725 0 0 0-.66-.711l-.03-.029-.004-.004c-.001-.001-.001-.001 0 0l.001.001a1.357 1.357 0 0 1-.062-1.918Z" fill="#B97CE8"/><path d="M225.715 465.763s-4.427 17.008-5.383 18.261l-.486.6a5.903 5.903 0 0 0 1.812-.129l1.293-1.59 3.383-11.551-.619-5.591Zm37.168 2.024s3.997 14.744 4.971 15.996l.569.864a5.733 5.733 0 0 1-1.747-.392l-1.289-1.59L262 471.114l.883-3.327Z" fill="#2498A8"/><path d="M267.221 486.094c-1.645-7.056-5.66-23.565-5.66-23.565 0-.809-4.916-1.095-15.95-1.312v-.056l-1.599.023-1.603-.023v.056c-11.029.217-15.95.503-15.95 1.312 0 0-4.016 16.523-5.66 23.565-1.581 6.796 3.095 12.799 7.536 12.799h31.35c4.44 0 9.121-6.003 7.536-12.799Z" fill="#B97CE8"/><path d="M250.187 404.554c-.664-.838-1.605-1.174-2.387-1.902l-.256.058a20.775 20.775 0 0 1 2.139 2.241c.324.411.656.785.924 1.247.29.425.552.868.786 1.326a9.349 9.349 0 0 1 .924 5.969 13.158 13.158 0 0 1-2.772 5.545 12.843 12.843 0 0 0 3.123-5.466 9.84 9.84 0 0 0-.781-6.293 14.323 14.323 0 0 0-1.7-2.725Zm-8.228 10.852a4.45 4.45 0 0 0-3.366-1.369 9.715 9.715 0 0 0-3.654.753 11.018 11.018 0 0 0-3.12 1.987 16.37 16.37 0 0 0-2.489 2.75 16.625 16.625 0 0 0-1.835 3.234 12.157 12.157 0 0 0-.92 3.561 9.695 9.695 0 0 0 1.945 6.884c.362.49.766.941 1.183 1.455.405.506.772 1.039 1.1 1.597a11.273 11.273 0 0 1 1.316 3.646c.462 2.565.023 5.133-.119 7.606a7.578 7.578 0 0 0 .536 3.591c.269.545.63 1.04 1.069 1.461.45.42.949.783 1.486 1.083a9.527 9.527 0 0 1 2.936 2.423c.384.502.709 1.048.968 1.625.249.586.463 1.185.643 1.796a10.392 10.392 0 0 0-1.752-3.308 9.27 9.27 0 0 0-2.955-2.241 7.89 7.89 0 0 1-1.604-1.087 5.64 5.64 0 0 1-1.19-1.55 8.045 8.045 0 0 1-.673-3.798c.02-1.284.16-2.534.219-3.784.084-1.24.024-2.485-.179-3.71a10.672 10.672 0 0 0-1.267-3.426 13.333 13.333 0 0 0-1.055-1.506c-.383-.464-.827-.947-1.215-1.47a10.734 10.734 0 0 1-1.697-3.473 10.133 10.133 0 0 1-.302-3.867c.138-1.286.474-2.543.995-3.726a15.393 15.393 0 0 1 1.953-3.324 16.573 16.573 0 0 1 2.627-2.778 11.002 11.002 0 0 1 3.282-1.968 9.918 9.918 0 0 1 3.76-.606c.641.029 1.271.17 1.863.416a3.685 3.685 0 0 1 1.511 1.123Z" fill="#202C44"/><path d="M239.636 416.733a4.453 4.453 0 0 1 2.567-2.572 9.709 9.709 0 0 1 3.658-.731 10.998 10.998 0 0 1 3.648.614c1.177.391 2.305.916 3.364 1.563 1.065.641 2.054 1.4 2.949 2.262a12.192 12.192 0 0 1 2.237 2.921 9.703 9.703 0 0 1 .891 7.098c-.143.592-.338 1.165-.522 1.801a13.496 13.496 0 0 0-.391 1.899 11.275 11.275 0 0 0 .21 3.871c.574 2.542 1.979 4.736 3.074 6.958a7.584 7.584 0 0 1 .906 3.515 5.233 5.233 0 0 1-.415 1.763 7.615 7.615 0 0 1-.947 1.576 9.52 9.52 0 0 0-1.759 3.376 8.225 8.225 0 0 0-.259 1.873c0 .637.036 1.273.109 1.905a10.379 10.379 0 0 1 .324-3.729 9.255 9.255 0 0 1 1.848-3.215 7.928 7.928 0 0 0 1.053-1.626 5.654 5.654 0 0 0 .492-1.892 8.045 8.045 0 0 0-.861-3.76c-.519-1.174-1.135-2.271-1.676-3.4a15.97 15.97 0 0 1-1.281-3.486 10.653 10.653 0 0 1-.169-3.648c.087-.608.215-1.209.384-1.799.172-.576.394-1.194.547-1.827a10.76 10.76 0 0 0 .209-3.86 10.122 10.122 0 0 0-1.23-3.678 12.567 12.567 0 0 0-2.368-3.044 15.437 15.437 0 0 0-3.094-2.3 16.518 16.518 0 0 0-3.502-1.534 11.02 11.02 0 0 0-3.79-.534 9.919 9.919 0 0 0-3.699.908 5.483 5.483 0 0 0-1.553 1.109 3.702 3.702 0 0 0-.954 1.623Z" fill="#202C44"/><path d="M259.93 429.681v15.67c0 7.042-5.294 12.923-12.355 14.362a17.09 17.09 0 0 1-3.369.332h-.823a16.871 16.871 0 0 1-3.369-.337c-7.06-1.444-12.349-7.32-12.349-14.357v-15.67c0-8.115 7.036-14.694 15.709-14.694h.837c8.687 0 15.719 6.579 15.719 14.694Z" fill="#202C44"/><path d="M243.99 468.395c2.671 0 4.837-1.784 4.837-3.985 0-2.201-2.166-3.985-4.837-3.985s-4.837 1.784-4.837 3.985c0 2.201 2.166 3.985 4.837 3.985Z" fill="#F3C29F"/><path fill-rule="evenodd" clip-rule="evenodd" d="M243.99 460.523c-2.636 0-4.739 1.757-4.739 3.887s2.103 3.888 4.739 3.888c2.636 0 4.739-1.758 4.739-3.888s-2.103-3.887-4.739-3.887Zm-4.935 3.887c0-2.271 2.228-4.082 4.935-4.082 2.707 0 4.934 1.811 4.934 4.082 0 2.272-2.227 4.083-4.934 4.083-2.707 0-4.935-1.811-4.935-4.083Z" fill="#fff"/><path d="M244.38 455.146h-.785a14.623 14.623 0 0 1-3.162-.341v9.144a3.176 3.176 0 0 0 .932 2.256 3.2 3.2 0 0 0 2.254.935h.737a3.196 3.196 0 0 0 2.254-.935 3.185 3.185 0 0 0 .932-2.256V454.8a14.882 14.882 0 0 1-3.162.346Z" fill="#F3C29F"/><path d="M240.443 457.283v2.632s.765-1.304 3.556-1.318c2.792-.015 3.552 1.444 3.552 1.444v-3.163l-7.108-.129v.534Z" fill="#E8AA7D"/><path d="M259.169 427.482v15.362c0 6.897-4.977 12.663-11.628 14.073-1.04.22-2.099.329-3.162.327h-.785a14.882 14.882 0 0 1-3.162-.332c-6.646-1.405-11.627-7.176-11.627-14.068v-15.362c0-7.956 6.622-14.405 14.789-14.405h.785c8.172 0 14.79 6.454 14.79 14.405Z" fill="#F3C29F"/><path d="M228.806 435.822v6.767a2.3 2.3 0 0 1-2.262-2.306v-2.156a2.306 2.306 0 0 1 2.262-2.305Zm32.624 2.305v2.156a2.3 2.3 0 0 1-2.262 2.306v-6.767a2.303 2.303 0 0 1 2.262 2.305Z" fill="#F3C29F"/><path d="M258.813 431.366s.279 4.847 0 6.709c-.279 1.863 1.116-6.709 1.116-6.709h-1.116Zm-29.469 2.604s-.255 4.847 0 6.738c.255 1.892-1.117-6.738-1.117-6.738h1.117Z" fill="#2C2A46"/><path d="M237.462 410.165a7.26 7.26 0 0 1 12.336-6.08 7.26 7.26 0 0 1-1.71 11.539 7.264 7.264 0 0 1-10.626-5.459Z" fill="#202C44"/><path fill-rule="evenodd" clip-rule="evenodd" d="M249.703 401.784a.195.195 0 0 1 .103.256l-4.962 11.661a.194.194 0 0 1-.356.006l-2.801-6.026a.195.195 0 1 1 .354-.164l2.616 5.628 4.79-11.258a.195.195 0 0 1 .256-.103Z" fill="#F99B45"/><path d="M229.205 436.535a2.235 2.235 0 0 1-2.474-1.891c-.159-1.069-.327-2.306-.38-3.081-.583-8.278 6.107-17.942 13.577-17.942h10.362c8.937 1.117 12.354 11.83 10.366 20.31a1.197 1.197 0 0 1-.651.803 1.198 1.198 0 0 1-1.033.001 92.38 92.38 0 0 0-2.763-1.203c-3.407-1.444-5.679-6.478-5.679-6.478s0 2.719-8.085 6.478c-3.629 1.689-9.944 2.613-13.24 3.003Z" fill="#202C44"/><path d="M251.703 422.288a21.525 21.525 0 0 1-.841 3.632 21.812 21.812 0 0 1-1.423 3.474 16.94 16.94 0 0 1-2.056 3.179c-.406.489-.843.952-1.308 1.386-.244.207-.494.411-.743.614-.125.102-.245.208-.379.3l-.407.259a19.918 19.918 0 0 1-7.082 2.592c-1.232.22-2.478.348-3.729.383a21.674 21.674 0 0 1-3.724-.189c2.459-.06 4.904-.37 7.3-.924a26.53 26.53 0 0 0 3.479-1.049c.286-.101.559-.226.841-.346.282-.12.559-.227.822-.37l.809-.406c.263-.144.499-.315.753-.462l.379-.231c.12-.084.231-.181.346-.273l.712-.587c.42-.425.864-.822 1.243-1.289a18.566 18.566 0 0 0 2.079-2.966 27.39 27.39 0 0 0 1.644-3.276 35.554 35.554 0 0 0 1.285-3.451Z" fill="#202C44"/></g><g filter="url(#whatsapp__c)"><path d="M439.957 617.552c0-7.391 5.992-13.383 13.383-13.383h287.283c7.391 0 13.382 5.992 13.382 13.383v58.884a2.676 2.676 0 0 1-2.676 2.676H453.34c-7.391 0-13.383-5.991-13.383-13.382v-48.178Z" fill="#fff"/></g><path fill-rule="evenodd" clip-rule="evenodd" d="M624.34 632.357a4.186 4.186 0 0 0-4.185-4.186H469.822a4.186 4.186 0 0 0 0 8.371h150.333a4.185 4.185 0 0 0 4.185-4.185Zm0 18.735a4.185 4.185 0 0 0-4.185-4.185H518.68a4.185 4.185 0 0 0 0 8.371h101.475a4.186 4.186 0 0 0 4.185-4.186Z" fill="#D2DFE6"/><path d="M739.731 619.932c0 22.42-18.174 40.594-40.594 40.594s-40.594-18.174-40.594-40.594c0-22.419 18.174-40.594 40.594-40.594s40.594 18.175 40.594 40.594Z" fill="#DFEA95"/><mask id="whatsapp__d" style="mask-type:alpha" maskUnits="userSpaceOnUse" x="658" y="579" width="82" height="82"><path d="M699.137 660.526c22.42 0 40.594-18.174 40.594-40.594 0-22.419-18.174-40.594-40.594-40.594s-40.594 18.175-40.594 40.594c0 22.42 18.174 40.594 40.594 40.594Z" fill="#FF5A60"/></mask><g mask="url(#whatsapp__d)"><path d="M699.588 643.958c-14.178 0-25.67 1.23-25.67 2.745v71.013c0 1.515 11.492 2.74 25.67 2.74s25.674-1.225 25.674-2.74v-71.013c0-1.515-11.496-2.745-25.674-2.745Z" fill="#E7EEF1"/><path d="M717.354 612.909v2.196a2.342 2.342 0 0 1-2.304 2.348v-6.892a2.347 2.347 0 0 1 2.304 2.348Z" fill="#CB8591"/><path fill-rule="evenodd" clip-rule="evenodd" d="M678.095 653.867a1.878 1.878 0 0 0-.903-2.498Zm0 0-.005.012-.023.049-.095.21c-.084.189-.211.477-.374.861-.327.769-.8 1.922-1.376 3.441-1.151 3.038-2.714 7.539-4.343 13.354a1.879 1.879 0 1 1-3.618-1.013c1.661-5.931 3.26-10.539 4.448-13.673a97.381 97.381 0 0 1 1.431-3.579c.172-.406.308-.715.402-.925l.109-.241.03-.065.008-.018.004-.007 1.701.797-1.701-.798a1.879 1.879 0 0 1 2.499-.903m44.102.039a1.88 1.88 0 0 1 2.576.652l-1.614.962 1.614-.962.002.004.004.006.011.019.036.063.129.227c.109.198.266.486.461.865a57.87 57.87 0 0 1 1.593 3.374c1.304 2.984 3.018 7.442 4.694 13.402a1.879 1.879 0 1 1-3.617 1.017c-1.628-5.787-3.282-10.082-4.52-12.914a54.613 54.613 0 0 0-1.489-3.156 28.265 28.265 0 0 0-.407-.762l-.1-.178-.022-.039-.003-.005m.652-2.575a1.878 1.878 0 0 0-.652 2.575Z" fill="#E7EEF1"/><path d="M699.831 650.589c2.721 0 4.927-1.818 4.927-4.059 0-2.242-2.206-4.06-4.927-4.06-2.721 0-4.927 1.818-4.927 4.06 0 2.241 2.206 4.059 4.927 4.059Z" fill="#CB9685"/><path fill-rule="evenodd" clip-rule="evenodd" d="M699.831 650.464c2.676 0 4.802-1.783 4.802-3.934 0-2.152-2.126-3.935-4.802-3.935-2.676 0-4.802 1.783-4.802 3.935 0 2.151 2.126 3.934 4.802 3.934Zm4.927-3.934c0 2.241-2.206 4.059-4.927 4.059-2.721 0-4.927-1.818-4.927-4.059 0-2.242 2.206-4.06 4.927-4.06 2.721 0 4.927 1.818 4.927 4.06Z" fill="#CB9685"/><path fill-rule="evenodd" clip-rule="evenodd" d="M699.831 650.464c2.676 0 4.802-1.783 4.802-3.934 0-2.152-2.126-3.935-4.802-3.935-2.676 0-4.802 1.783-4.802 3.935 0 2.151 2.126 3.934 4.802 3.934Zm4.927-3.934c0 2.241-2.206 4.059-4.927 4.059-2.721 0-4.927-1.818-4.927-4.059 0-2.242 2.206-4.06 4.927-4.06 2.721 0 4.927 1.818 4.927 4.06Z" fill="#fff"/><path d="M715.3 604.285v16.071a15.048 15.048 0 0 1-4.406 10.66 15.037 15.037 0 0 1-10.66 4.405h-.774a15.069 15.069 0 0 1-15.066-15.056v-16.08a15.065 15.065 0 0 1 15.066-15.065h.799a15.062 15.062 0 0 1 15.041 15.065Z" fill="#CB9685"/><path fill-rule="evenodd" clip-rule="evenodd" d="M715.175 620.356v-16.071a14.942 14.942 0 0 0-14.916-14.94h-.799a14.94 14.94 0 0 0-14.94 14.94v16.08a14.947 14.947 0 0 0 11.746 14.586 14.78 14.78 0 0 0 3.194.345h.774a14.917 14.917 0 0 0 14.941-14.94Zm-30.781.009v-16.08a15.065 15.065 0 0 1 15.066-15.065h.799a15.062 15.062 0 0 1 15.041 15.065v16.071a15.048 15.048 0 0 1-4.406 10.66 15.037 15.037 0 0 1-10.66 4.405h-.774a15.069 15.069 0 0 1-15.066-15.056Z" fill="#CB9685"/><path d="M684.369 610.561v6.892a2.343 2.343 0 0 1-2.305-2.348v-2.196a2.35 2.35 0 0 1 2.305-2.348Z" fill="#CB9685"/><path fill-rule="evenodd" clip-rule="evenodd" d="M684.243 610.566c.042-.003.084-.005.126-.005v6.892a2.346 2.346 0 0 1-2.305-2.348m2.179 2.217v-6.63a2.224 2.224 0 0 0-2.053 2.217v2.196a2.215 2.215 0 0 0 2.053 2.217Z" fill="#CB9685"/><path d="M717.598 612.909v2.196a2.339 2.339 0 0 1-2.304 2.348v-6.892a2.347 2.347 0 0 1 2.304 2.348Z" fill="#CB9685"/><path fill-rule="evenodd" clip-rule="evenodd" d="M717.473 615.105v-2.196h.125v2.196a2.339 2.339 0 0 1-2.304 2.348v-6.892a2.35 2.35 0 0 1 2.304 2.348h-.125a2.224 2.224 0 0 0-2.054-2.217v6.63a2.215 2.215 0 0 0 2.054-2.217Z" fill="#CB9685"/><path opacity=".2" fill-rule="evenodd" clip-rule="evenodd" d="M697.645 594.34a8.67 8.67 0 0 0-8.669 8.67.377.377 0 0 1-.752 0 9.42 9.42 0 0 1 9.421-9.421.376.376 0 1 1 0 .751Z" fill="#fff"/><path d="M700.232 635.422h-.774a14.911 14.911 0 0 1-3.221-.348v9.315a3.244 3.244 0 0 0 3.221 3.23h.75a3.254 3.254 0 0 0 2.296-.952 3.238 3.238 0 0 0 .949-2.298v-9.29a15.16 15.16 0 0 1-3.221.343Z" fill="#CB9685"/><path fill-rule="evenodd" clip-rule="evenodd" d="M703.328 644.369v-9.136c-1.018.21-2.056.315-3.096.314h-.774a14.98 14.98 0 0 1-3.096-.318v9.159a3.12 3.12 0 0 0 3.096 3.106h.75a3.122 3.122 0 0 0 3.12-3.125Zm-3.87 3.25a3.243 3.243 0 0 1-3.221-3.23v-9.315l.125.027m6.966.004.125-.026v.128m-3.995 12.412h.75Zm.75 0c.426 0 .849-.084 1.243-.247Zm1.243-.247a3.248 3.248 0 0 0 1.053-.705Zm1.053-.705c.302-.302.541-.66.704-1.055Zm.704-1.055a3.23 3.23 0 0 0 .245-1.243Z" fill="#CB9685"/><path d="M696.222 638.554v2.682s.78-1.329 3.618-1.344c2.839-.014 3.623 1.471 3.623 1.471v-3.221l-7.241-.132v.544Z" fill="#BF7D68"/><path d="M714.712 619.925a6.585 6.585 0 0 1-6.648 6.265h-.304a2.783 2.783 0 0 1-2.079-.98 7.966 7.966 0 0 0-11.976-.123 2.805 2.805 0 0 1-2.089.946 6.596 6.596 0 0 1-6.52-6.196l-.726-11.825v18.468c0 7.005 3.692 12.687 12.683 12.687h5.948c9.452 0 12.299-5.682 12.299-12.687v-18.468l-.588 11.913Z" fill="#2C2A46"/></g><g filter="url(#whatsapp__e)"><path d="M571.926 706.028c0-6.899 5.592-12.491 12.491-12.491h43.717c6.898 0 12.49 5.592 12.49 12.491v16.951a4.015 4.015 0 0 1-4.015 4.015h-52.192c-6.899 0-12.491-5.592-12.491-12.491v-8.475Z" fill="#fff"/></g><path d="M616.178 713.077c1.43-5.469-1.845-11.061-7.313-12.491-5.469-1.429-11.061 1.845-12.491 7.314-1.429 5.468 1.845 11.061 7.314 12.49 5.468 1.43 11.061-1.845 12.49-7.313Z" fill="#F9B42F"/><path d="M602.96 708.616c0 .693-.473 1.256-1.052 1.256-.579 0-1.05-.563-1.05-1.256 0-.693.473-1.256 1.05-1.256.577 0 1.052.563 1.052 1.256Zm8.391 1.265a.33.33 0 0 1-.237-.087c-.685-.632-1.695-.137-1.707-.13a.336.336 0 0 1-.474-.269.332.332 0 0 1 .046-.204 2.678 2.678 0 0 1 2.403-1.201.324.324 0 0 1 .228.114.337.337 0 0 1 .081.243.324.324 0 0 1-.114.228.337.337 0 0 1-.243.081 1.973 1.973 0 0 0-.91.161c.426.029.829.202 1.142.492a.336.336 0 0 1 .019.473.328.328 0 0 1-.234.099Zm-4.369 7.27a5.025 5.025 0 0 1-3.074-1.053.5.5 0 0 1 .25-.876.508.508 0 0 1 .363.084 4.025 4.025 0 0 0 4.277.399 4.013 4.013 0 0 0 1.632-1.529 4.013 4.013 0 0 0 .563-2.164.503.503 0 0 1 1.003-.031 5.022 5.022 0 0 1-1.364 3.588 5.019 5.019 0 0 1-3.498 1.579l-.152.003Z" fill="#202C44"/><g filter="url(#whatsapp__f)"><path d="M434.085 522.061c0-6.898-5.592-12.491-12.491-12.491h-43.717c-6.898 0-12.49 5.593-12.49 12.491v16.951a4.014 4.014 0 0 0 4.015 4.015h52.192c6.899 0 12.491-5.592 12.491-12.49v-8.476Z" fill="#fff"/></g><path d="M401.458 537.289c5.947-.951 9.997-6.543 9.045-12.49-.951-5.947-6.543-9.997-12.49-9.045-5.947.951-9.997 6.543-9.045 12.49.951 5.947 6.544 9.997 12.49 9.045Z" fill="#F9B42F"/><path d="M406.055 525.11a.16.16 0 0 0 .083.02.168.168 0 0 0 .144-.082.175.175 0 0 0 .025-.081 1.44 1.44 0 0 0-2.461-1.019 1.44 1.44 0 0 0-.422 1.019.176.176 0 0 0 .091.148.179.179 0 0 0 .088.021c.03-.001.06-.01.086-.026a2.24 2.24 0 0 1 2.356 0h.01Zm-10.283 0a.175.175 0 0 0 .166-.002.167.167 0 0 0 .061-.06.164.164 0 0 0 .025-.081 1.44 1.44 0 1 0-2.882 0 .154.154 0 0 0 .025.081.167.167 0 0 0 .143.082.165.165 0 0 0 .084-.02 2.24 2.24 0 0 1 2.358 0h.02Zm4.021 6.374a7.351 7.351 0 0 1-4.961-1.938.533.533 0 0 1 .726-.781 6.242 6.242 0 0 0 8.344.098.533.533 0 0 1 .706.799 7.264 7.264 0 0 1-4.815 1.822Z" fill="#202C44"/><path d="M517.95 768.091c0-6.93-5.618-12.547-12.547-12.547H377.974c-6.929 0-12.547 5.617-12.547 12.547v16.931a4.182 4.182 0 0 0 4.183 4.182h135.793c6.929 0 12.547-5.617 12.547-12.547v-8.566Zm0 122.993c0-6.929-5.618-12.547-12.547-12.547H377.974c-6.929 0-12.547 5.618-12.547 12.547v16.931a4.182 4.182 0 0 0 4.183 4.182h135.793c6.929 0 12.547-5.617 12.547-12.547v-8.566Z" fill="#E5FECE"/><path d="M450.144 819.595c0-6.93 5.618-12.547 12.547-12.547h165.296c6.93 0 12.547 5.617 12.547 12.547v36.916a4.182 4.182 0 0 1-4.182 4.183H462.691c-6.929 0-12.547-5.618-12.547-12.547v-28.552Z" fill="#fff"/><path fill-rule="evenodd" clip-rule="evenodd" d="M713.299 383.439c-5.297 0-9.592 4.295-9.592 9.592v12.301c0 5.298 4.295 9.592 9.592 9.592 5.297 0 9.591-4.294 9.591-9.592v-12.301c0-5.297-4.294-9.592-9.591-9.592Z" fill="#845D37"/><path d="M750.256 431.609c.054 2.243-1.267 4.1-2.92 4.1l-43.077.237c-1.288 0-2.318-1.46-2.265-3.221l.075-2.64a2.505 2.505 0 0 0 2.147 2.275l43.163-.204a3.145 3.145 0 0 0 2.727-2.544c.104.661.155 1.328.15 1.997Z" fill="#fff"/><path d="M749.076 426.574a7.294 7.294 0 0 0-2.64-2.597l-9.758-5.432a13.194 13.194 0 0 1-2.319-1.342l-9.049-5.421a8.738 8.738 0 0 0-1.846-.772v-3.371a2.226 2.226 0 0 0-.654-1.59 2.225 2.225 0 0 0-1.589-.653h-16.22a2.234 2.234 0 0 0-1.586.657 2.234 2.234 0 0 0-.657 1.586v6.269c-.065.461-.086.944-.108 1.47l-.612 15.555c-.013.228.012.456.075.676a2.24 2.24 0 0 0 2.147 1.664l42.938-.161a2.945 2.945 0 0 0 2.716-1.868c.138-.363.207-.749.204-1.138a7.416 7.416 0 0 0-1.042-3.532Z" fill="#202C44"/><path d="M713.278 408.798c-5.371 0-9.725-.635-9.725-1.417 0-.783 4.354-1.417 9.725-1.417 5.371 0 9.725.634 9.725 1.417 0 .782-4.354 1.417-9.725 1.417Z" fill="#845D37"/><path d="M723.003 404.022v3.36h-19.461l.097-3.961 19.364.601Z" fill="#845D37"/><path fill-rule="evenodd" clip-rule="evenodd" d="M711.687 417.212a3.513 3.513 0 1 1 0 7.025 3.513 3.513 0 0 1 0-7.025Zm4.924 3.513a4.924 4.924 0 1 0-9.848 0 4.924 4.924 0 0 0 9.848 0Z" fill="#fff"/><path d="m733.339 416.58-4.036 3.585a1.074 1.074 0 0 1-.751.28 1.158 1.158 0 0 1-.848-.376 1.14 1.14 0 0 1 .096-1.6l3.5-3.102 2.039 1.213Zm3.951 2.297-4.455 3.961a1.077 1.077 0 0 1-1.254.19 1.073 1.073 0 0 1-.345-.287 1.134 1.134 0 0 1 .086-1.599l3.843-3.403c.49.3 1 .569 1.524.805l.601.333Zm4.551 2.544-4.831 4.294a1.06 1.06 0 0 1-.376.238 1.063 1.063 0 0 1-.869-.053 1.078 1.078 0 0 1-.344-.282 1.071 1.071 0 0 1-.193-1.243c.068-.133.163-.251.279-.346l4.294-3.778 2.04 1.17Zm84.919-20.244c1.245 1.867 1.074 4.143-.268 5.023l-36.164 23.39c-1.074.709-2.738 0-3.639-1.481l-1.364-2.265a2.512 2.512 0 0 0 3.081.741l36.175-23.412a3.136 3.136 0 0 0 .923-3.617c.46.507.88 1.049 1.256 1.621Z" fill="#fff"/><path d="M823.024 397.603a7.294 7.294 0 0 0-3.639-.773l-11.142.676c-.885.131-1.78.171-2.673.119l-10.552.3a8.8 8.8 0 0 0-1.964.344l-1.814-2.845a2.255 2.255 0 0 0-3.102-.687l-13.676 8.738a2.228 2.228 0 0 0-.981 1.411 2.246 2.246 0 0 0 .305 1.691l3.403 5.367c.193.408.429.837.697 1.288l7.858 13.44c.11.2.255.378.429.526a2.248 2.248 0 0 0 2.737.236l36.068-23.24c.329-.212.612-.487.832-.81a2.92 2.92 0 0 0 .455-2.23 2.923 2.923 0 0 0-.45-1.071 7.33 7.33 0 0 0-2.791-2.48Z" fill="#202C44"/><path d="M774.308 405.918c-.422-.659 2.906-3.538 7.433-6.429 4.526-2.892 8.537-4.701 8.958-4.041.422.659-2.906 3.538-7.433 6.429-4.526 2.891-8.537 4.701-8.958 4.041Z" fill="#845D37"/><path d="m788.9 392.622 1.804 2.834-16.392 10.477-2.05-3.392 16.638-9.919Z" fill="#845D37"/><path fill-rule="evenodd" clip-rule="evenodd" d="M786.828 408.172a3.514 3.514 0 1 1 0 7.027 3.514 3.514 0 0 1 0-7.027Zm4.924 3.514a4.923 4.923 0 1 0-9.847 0 4.924 4.924 0 1 0 9.847 0Z" fill="#fff"/><path d="m804.369 397.646-1.513 5.195a1.075 1.075 0 0 1-.473.644 1.16 1.16 0 0 1-.923.14 1.133 1.133 0 0 1-.683-.541 1.13 1.13 0 0 1-.1-.866l1.277-4.497 2.415-.075Zm4.563-.195-1.61 5.732a1.172 1.172 0 0 1-.483.655 1.2 1.2 0 0 1-.923.14 1.151 1.151 0 0 1-.784-1.407l1.406-4.937a15.229 15.229 0 0 0 1.707-.129l.687-.054Zm5.215-.309-1.76 6.215a1.134 1.134 0 0 1-1.395.783 1.06 1.06 0 0 1-.704-.522 1.065 1.065 0 0 1-.08-.873l1.535-5.453 2.404-.15Z" fill="#fff"/><path d="m602.23 202.355-1.074 2.351c-.343.741-.676 1.46-.987 2.147a220.082 220.082 0 0 0-1.814 4.401c-1.074 2.963-2.147 5.969-3.103 9.092a87.96 87.96 0 0 0-3.714 20.492 49.78 49.78 0 0 0 1.074 13.139 36.147 36.147 0 0 0 2.877 8.169 31.19 31.19 0 0 0 6.44 8.781 30.238 30.238 0 0 0 10.133 6.344 33.88 33.88 0 0 0 10.08 2.146c3.167.301 6.333.526 9.468.655 6.184.222 12.375.125 18.549-.29 6.054-.397 11.958-1.073 17.604-1.599a512.57 512.57 0 0 1 8.18-.762c2.608-.215 5.098-.376 7.256-.387a24.663 24.663 0 0 1 4.551.269c.237 0 .172.096-.654-.236a11.548 11.548 0 0 1-3.908-2.899 12.453 12.453 0 0 1-1.878-2.737 11.23 11.23 0 0 1-.88-2.415c-.065-.365-.118-.58-.14-.848-.021-.269 0 0 0 .107v.226l.086.461.376 1.857.375 1.857c.129.601.247 1.235.365 1.922l.677 3.982c.472 2.63.869 5.367 1.298 8.137.43 2.769.805 5.507 1.203 8.265 1.578 11.089 2.952 22.306 4.401 33.545a3637.217 3637.217 0 0 1 4.186 33.781l4.176 33.835 29.745-1.825c0-11.496-.204-22.918-.365-34.35-.161-11.432-.58-22.896-.945-34.35-.365-11.453-.955-22.95-1.621-34.543-.171-2.898-.333-5.786-.558-8.716-.225-2.931-.386-5.829-.676-8.845l-.397-4.487c-.065-.73-.14-1.503-.247-2.308l-.269-2.362-.289-2.372-.065-.591v-.3c0-.129 0-.107-.064-.419-.172-.966-.344-1.889-.623-2.93a29.499 29.499 0 0 0-6.805-12.581 30.812 30.812 0 0 0-10.96-7.589 37.334 37.334 0 0 0-8.888-2.426 54.04 54.04 0 0 0-6.806-.58c-2.039 0-3.918 0-5.689.065-7.042.354-12.881 1.073-18.624 1.664-5.743.59-11.11 1.202-16.413 1.685-5.303.483-10.477.934-15.586 1.234a202.68 202.68 0 0 1-7.6.387c.58.154 1.15.345 1.707.569a8.857 8.857 0 0 1 2.866 1.975 5.72 5.72 0 0 1 1.32 2.007c.129.397 0 .451-.15.204a11.026 11.026 0 0 1-.945-3.789 41.68 41.68 0 0 1-.311-6.248c0-2.275.129-4.69.365-7.159.236-2.469.461-5.003.816-7.514.15-1.267.322-2.555.504-3.822l.268-1.889.14-.923c.042-.26.071-.521.086-.784l-28.124-9.876Z" fill="#125AD5"/><path d="m574.88 209.548-.623 2.887a60.241 60.241 0 0 0-.493 2.652c-.301 1.75-.591 3.51-.795 5.281a96.794 96.794 0 0 0-.73 10.842c-.075 3.86.137 7.721.634 11.55a57.518 57.518 0 0 0 3.08 12.881 43.092 43.092 0 0 0 3.371 7.106c1.568 2.662 3.457 6.73 5.625 8.931 5.039 5.127 5.793 6.031 12.881 7.226.837.129 2.662.365 3.467.429l2.072.183 2.533.225c1.685.161 3.392.258 5.088.387 3.403.15 6.827.289 10.23.257 6.795 0 13.633-.526 19.698-1.009 3.027-.236 5.828-.429 8.308-.472a52.058 52.058 0 0 1 6.666.236c2.014.22 4.004.619 5.947 1.192 2.018.558 4.122 1.341 6.376 2.211 2.254.869 4.616 1.793 7.074 2.845l.462.193s0-.075.075 0c.082.048.168.087.257.118.097 0 .258.161.387.236.129.075.655.429.987.633l1.192.902a71.667 71.667 0 0 1 5.464 4.884 147.42 147.42 0 0 1 5.753 5.99c3.843 4.208 7.665 8.738 11.422 13.375 7.514 9.317 14.824 19.118 22.08 28.983 7.257 9.865 14.298 20.041 21.286 30.238a2223.779 2223.779 0 0 1 20.696 30.722l25.763-15.028a907.92 907.92 0 0 0-8.985-16.799 1443.744 1443.744 0 0 0-9.221-16.574 1178.058 1178.058 0 0 0-19.322-32.772c-6.644-10.874-13.589-21.619-21.093-32.278-3.757-5.367-7.653-10.66-11.882-15.973-2.147-2.662-4.294-5.367-6.72-8.008-2.426-2.641-4.949-5.367-7.976-8.169-.762-.697-1.578-1.406-2.404-2.147-.827-.74-1.718-1.417-2.759-2.146-.515-.376-.977-.73-1.535-1.074l-1.718-1.138c-.558-.365-1.32-.783-1.975-1.159l-1.588-.859a94.413 94.413 0 0 0-10.026-4.798 87.646 87.646 0 0 0-11.411-3.671 86.165 86.165 0 0 0-12.495-2.072 96.03 96.03 0 0 0-12.054-.29c-3.768.14-7.192.419-10.391.676-6.441.548-12.023 1.074-17.723 1.428-2.833.193-5.657.365-8.501.505-1.428.064-2.856.161-4.294.193l-2.147.075h-.268s.118 0 .182.075c.436.181.856.396 1.256.644.359.229.66.538.88.902.097.204 0 .258-.268.064a5.058 5.058 0 0 1-.955-1.191 24.9 24.9 0 0 1-2.233-5.121 71.44 71.44 0 0 1-1.76-7.03 119.986 119.986 0 0 1-1.224-7.89c-.161-1.342-.333-2.716-.462-4.079l-.193-2.029-.097-.977v-.472c0-.118 0-.354-.064-.333l-24.807-2.599Z" fill="#3F7DE8"/><path fill-rule="evenodd" clip-rule="evenodd" d="M629.501 117.681a9.005 9.005 0 0 0 .669 12.717c1.422 1.279 4.135 5.072 7.777 11.645 3.434 6.196 7.165 13.865 10.783 21.848 7.255 16.006 13.771 32.642 16.24 40.075a9.005 9.005 0 0 0 11.384 5.706 9.004 9.004 0 0 0 5.707-11.384c-2.726-8.207-9.504-25.452-16.928-41.832-3.721-8.21-7.675-16.359-11.433-23.142-3.55-6.406-7.536-12.751-11.482-16.302a9.005 9.005 0 0 0-12.717.669Z" fill="#845D37"/><path fill-rule="evenodd" clip-rule="evenodd" d="m637.383 113.769-.03-.122c0-1.428-8.684-1.943-28.177-2.319v-.129h-5.658v.097c-19.493.376-28.177.891-28.177 2.318 0 0-.612 25.516-3.585 37.957a32.92 32.92 0 0 0-.376 5.926 99.507 99.507 0 0 0 .601 11.131c.273 2.77.793 5.083 1.814 6.705.561 4.684.197 15.441-.11 24.527-.092 2.726-.179 5.301-.234 7.518-.044 1.673.029 3.769.107 6.031.192 5.559.418 12.12-.955 15.867v9.124c0 2.132 5.953 2.019 17.787 1.796h.001c4.494-.085 9.838-.186 16.025-.186 22.478 0 40.619-2.426 40.619-5.367h-.011a1.872 1.872 0 0 0-.054-.687l-.816-2.211c-1.942-5.271-6.623-18.582-6.762-24.367a259.83 259.83 0 0 1 2.029-32.44l-.279.153c2.987-2.443 5.404-6.305 6.344-10.86 2.02 4.738 7.372 7.214 12.349 5.564 5.245-1.739 8.087-7.4 6.349-12.645-5.235-15.791-10.46-29.33-23.296-40.882a9.957 9.957 0 0 0-5.505-2.499Z" fill="#F6A721"/><path opacity=".1" d="M585.881 177.924c-6.644-1.707-8.04-7.182-8.168-13.204-.355-16.209 3.939-38.547 4.293-39.33l-8.587 16.316c-.515 4.766-1.814 9.156-1.943 12.591-.408 10.423 1.527 15.055 2.257 20.562.171 2.759.169 37.163-.604 39.889-.816 2.909 4.584 1.246 4.584 1.246s10.734-32.671 34.693-38.07h-26.525Zm39.932.622 8.233-.623c3.016 0 2.694-1.503 4.616-3.832a9.84 9.84 0 0 0 .751-1.02c11.99-18.72-2.565-39.137-4.068-47.682-.193-1.073.161-2.082 1.234-1.975l2.319.236a1.307 1.307 0 0 1 1.127.977c2.319 9.607 5.582 23.176 7.332 30.679a19.956 19.956 0 0 1-6.098 19.708 1.28 1.28 0 0 0-.472.913l-1.535 26.943a1.28 1.28 0 0 1-.783 1.073l-.483.215a1.304 1.304 0 0 1-1.344-.203 1.3 1.3 0 0 1-.428-1.289l.644-2.78c.483-1.407 2.373-11.078 0-16.51-1.921-4.379-7.685-4.873-11.045-4.83Z" fill="#FF4C4C"/><path fill-rule="evenodd" clip-rule="evenodd" d="M580.857 115.096a9.006 9.006 0 0 0-12.096 3.983l8.04 4.056c-8.04-4.056-8.04-4.054-8.041-4.053l-.01.019-.023.046-.081.163-.296.597c-.253.517-.616 1.264-1.07 2.216a293.501 293.501 0 0 0-3.638 7.961c-2.923 6.644-6.673 15.787-9.921 25.672-3.224 9.815-6.078 20.732-7.004 30.836-.89 9.705-.207 20.694 5.92 28.795l.004.005c4.277 5.646 10.675 9.293 16.71 11.741 6.186 2.51 12.971 4.15 19.071 5.241 6.144 1.099 11.865 1.688 16.032 2.005 2.091.159 3.812.251 5.024.303.606.026 1.086.042 1.423.052l.397.011.114.002.035.001h.016c.002 0 .004 0 .16-9.003l-.156 9.003a9.005 9.005 0 0 0 .315-18.006h-.004l-.062-.001-.284-.008a134.724 134.724 0 0 1-5.614-.311c-3.759-.286-8.847-.814-14.225-1.776-5.422-.97-10.872-2.335-15.472-4.201-4.747-1.926-7.682-4.025-9.122-5.924-1.918-2.538-3.134-7.72-2.348-16.285.749-8.17 3.147-17.628 6.179-26.859 3.009-9.159 6.521-17.733 9.297-24.042a274.213 274.213 0 0 1 3.414-7.471 168.08 168.08 0 0 1 1.226-2.526l.059-.119.014-.027.001-.002a9.005 9.005 0 0 0-3.984-12.094Z" fill="#845D37"/><path fill-rule="evenodd" clip-rule="evenodd" d="M581.745 114.443c-4.913-2.528-10.946-.596-13.474 4.317a262.766 262.766 0 0 0-16.193 38.812c-1.712 5.254 1.158 10.901 6.412 12.614 5.254 1.712 10.901-1.158 12.613-6.412a242.76 242.76 0 0 1 14.959-35.856c2.529-4.913.596-10.946-4.317-13.475Z" fill="#F6A721"/><path d="M765.844 402.369c-1.262-1.994 3.354-7.181 10.31-11.588 6.957-4.406 13.62-6.362 14.882-4.369 1.263 1.994-3.353 7.181-10.31 11.588-6.956 4.406-13.619 6.362-14.882 4.369Z" fill="#B3D4FF"/><path d="m766.478 402.176-.623.225-.569-.944-2.029-4.992 4.208-1.041.569 3.896-1.245 2.705-.311.151Z" fill="#B3D4FF"/><path d="M791.778 379.482a5.002 5.002 0 0 0-6.909-1.521l-24.132 15.422a5.002 5.002 0 0 0-1.521 6.909l3.016 4.719a5.003 5.003 0 0 0 6.909 1.522l24.131-15.423a5.002 5.002 0 0 0 1.522-6.909l-3.016-4.719Zm-59.771 8.298a5.002 5.002 0 0 0-5.002-5.003h-28.639a5.002 5.002 0 0 0-5.002 5.003v5.6a5.002 5.002 0 0 0 5.002 5.003h28.639a5.002 5.002 0 0 0 5.002-5.003v-5.6Z" fill="#125AD5"/><path fill-rule="evenodd" clip-rule="evenodd" d="m629.783 233.339 17.373-58.728a6.847 6.847 0 0 1 6.569-4.917h79.692a6.856 6.856 0 0 1 5.557 2.846 6.867 6.867 0 0 1 .948 6.171l-19.032 57.504a6.854 6.854 0 0 1-6.515 4.702h-86.627a.15.15 0 0 1-.154-.123.15.15 0 0 1-.002-.021h-47.361c-.232 0-.455-.165-.619-.458-.164-.293-.257-.69-.257-1.104v-1.635c0-1.123.251-2.201.696-2.996.446-.795 1.051-1.241 1.681-1.241h48.051Z" fill="#F3F6FA"/><path opacity=".7" d="M699.657 204.685a4.474 4.474 0 0 0-.568-3.64 4.487 4.487 0 0 0-3.102-1.988 18.233 18.233 0 0 0-3.89-.402 15.273 15.273 0 0 0-6.679 1.323 12.963 12.963 0 0 0-6.186 7.781c-.688 2.062-1.297 4.954 0 7.016.985 1.66 3.735 2.477 6.069 2.594l-.674 1.854a.757.757 0 0 0 .038.769.768.768 0 0 0 .688.347h.091c.259-.026.509-.115.726-.26a163.454 163.454 0 0 0 4.383-2.944l.701-.479a30.194 30.194 0 0 0 3.566-2.724 16.856 16.856 0 0 0 4.837-9.247Z" fill="#D2DFE6"/><path opacity=".5" d="m670.428 123.246-10.538 35.652a.097.097 0 0 0-.002.038.086.086 0 0 0 .016.035.079.079 0 0 0 .067.031h46.673a3.693 3.693 0 0 0 3.51-2.535l10.254-31.01a3.697 3.697 0 0 0-3.505-4.862h-42.936a3.685 3.685 0 0 0-3.539 2.651Z" fill="#fff"/><path opacity=".5" d="m665.473 126.964-10.537 35.652a.07.07 0 0 0-.002.038.073.073 0 0 0 .015.035.1.1 0 0 0 .03.024.083.083 0 0 0 .038.007h46.672a3.69 3.69 0 0 0 3.511-2.535l10.254-31.01a3.711 3.711 0 0 0-.511-3.328 3.71 3.71 0 0 0-2.994-1.535h-42.936a3.695 3.695 0 0 0-3.54 2.652Zm61.563 11.554-7.345 24.417a.057.057 0 0 0 .01.05.058.058 0 0 0 .047.021h32.531c.542 0 1.07-.167 1.509-.479.44-.312.768-.752.938-1.257l7.147-21.238a2.503 2.503 0 0 0-.356-2.279 2.557 2.557 0 0 0-.914-.772 2.619 2.619 0 0 0-1.172-.279h-29.928a2.6 2.6 0 0 0-1.54.504c-.445.328-.77.788-.927 1.312Z" fill="#fff"/><path opacity=".5" d="m722.462 141.948-7.344 24.416a.059.059 0 0 0-.002.026.066.066 0 0 0 .011.024.068.068 0 0 0 .021.017.075.075 0 0 0 .026.005h32.532c.541 0 1.069-.168 1.509-.479.439-.312.767-.752.937-1.258l7.148-21.237a2.51 2.51 0 0 0 .101-1.182 2.516 2.516 0 0 0-.457-1.097 2.573 2.573 0 0 0-.915-.773 2.618 2.618 0 0 0-1.172-.278H724.93c-.556 0-1.096.177-1.541.504-.445.327-.77.787-.927 1.312Z" fill="#fff"/><path fill-rule="evenodd" clip-rule="evenodd" d="M601.383 111.344a12.29 12.29 0 0 0 5.174-2.586 14.673 14.673 0 0 0 13.344 4.312 15.602 15.602 0 0 0 10.947-9.254 14.311 14.311 0 0 0 12.886.074 16.714 16.714 0 0 0 7.994-11.466 14.182 14.182 0 0 0 8.092-6.462c1.077-1.887 1.981-4.173 2.328-6.452-.004.94-.075 1.88-.212 2.816-.023.188-.06.371-.096.557l-.033.166-.029.158c-.035.188-.068.372-.123.554l-.185.71a5.384 5.384 0 0 1-.135.385 6.382 6.382 0 0 0-.106.292l-.121.341a2.79 2.79 0 0 1-.114.233l-.047.091-.354.671-.222.342a9.358 9.358 0 0 1-.616.885 15.919 15.919 0 0 1-2.077 2.218 24.315 24.315 0 0 1-2.417 1.944 32.274 32.274 0 0 1-2.633 1.702 19.588 19.588 0 0 0 2.867-1.395 19.568 19.568 0 0 0 2.626-1.814 14.71 14.71 0 0 0 2.258-2.243c.331-.415.634-.848.907-1.297.126-.231.248-.466.37-.7v-.002l.046-.085v-.001l.001-.001c.046-.088.093-.175.132-.267l.138-.368c.676-1.952.951-3.993.813-6.016a18.946 18.946 0 0 0-.677-4.133 17.297 17.297 0 0 0 5.557-14.026 20.211 20.211 0 0 0-8.377-14.146l.023-.038a34.594 34.594 0 0 1 3.337 2.668 25.59 25.59 0 0 1 2.575 2.684c.157.181.3.372.445.566l.129.172.125.163c.148.193.294.382.421.589l.514.78a6.4 6.4 0 0 1 .249.458c.061.117.121.235.187.35l.22.405c.046.099.085.203.123.307h.001l.045.122.334.908c.044.169.089.336.135.503.121.44.241.88.312 1.338a20.36 20.36 0 0 1 .329 3.86 30.959 30.959 0 0 1-.221 3.95 41.099 41.099 0 0 1-.634 3.947 25.02 25.02 0 0 0 1.125-3.907c.284-1.334.459-2.684.522-4.036a18.715 18.715 0 0 0-.198-4.054 15.864 15.864 0 0 0-.455-1.965c-.111-.318-.23-.634-.348-.95l-.044-.119a4.124 4.124 0 0 0-.14-.353l-.231-.445a19.363 19.363 0 0 0-5.006-5.904 24.033 24.033 0 0 0-3.625-2.435c3.146-5.809 1.595-14.617-3.165-19.172a17.571 17.571 0 0 0-6.387-13.232 17.84 17.84 0 0 0-14.246-3.966A16.491 16.491 0 0 0 625.547.613C620.926-.87 614.65.477 610.61 3.146c-4.584-2.953-12.12.074-16.161 3.706a14.354 14.354 0 0 0-13.59-.234c-3.782 1.98-5.315 5.47-5.864 9.6-.832.015-1.664.083-2.491.2a16.333 16.333 0 0 0-4.83 1.39c-1.601.346-3.09.975-4.335 2.067a10.497 10.497 0 0 0-3.089 5.807c-.138.91-.244 1.823-.318 2.739a21.285 21.285 0 0 0-.388 1.736c.106-.308.217-.615.332-.92a38.482 38.482 0 0 0-.033 3.932 13.288 13.288 0 0 0-8.649 9.452c-1.013 4.36.618 10.897 3.818 14.01a13.587 13.587 0 0 0-3.582 6.036 16.584 16.584 0 0 0-1.617 4.403l-.078.418a3.468 3.468 0 0 0-.028.322l-.006.107c-.019.286-.038.572-.05.858.001.568.038 1.139.112 1.708.154 1.133.434 2.254.834 3.343a21.023 21.023 0 0 0 1.414 3.151 21.276 21.276 0 0 0 1.872 2.899 34.957 34.957 0 0 1-1.483-3.051 26.191 26.191 0 0 1-1.148-3.156 17.246 17.246 0 0 1-.68-3.218c-.055-.39-.065-.776-.075-1.163a21.804 21.804 0 0 0-.013-.442l.048-.82.008-.11c.005-.095.011-.188.025-.28l.079-.383c.025-.11.045-.22.066-.33a6.07 6.07 0 0 1 .09-.433l.124-.416c-.018.865.047 1.733.196 2.591a14.214 14.214 0 0 0 8.068 10.18 9.948 9.948 0 0 0-.853 9.885 9.272 9.272 0 0 0 7.537 5.613c.05.4.113.798.189 1.194a15.193 15.193 0 0 0 2.225 5.648l.222.324c.06.08.126.154.192.228l.066.074c.175.199.349.398.528.594.372.37.769.719 1.189 1.042a14.68 14.68 0 0 0 2.729 1.64c.957.457 1.955.837 2.982 1.134 1.016.308 2.059.532 3.117.671a32.457 32.457 0 0 1-2.962-1.024 24.384 24.384 0 0 1-2.812-1.312 15.919 15.919 0 0 1-2.546-1.658c-.29-.219-.549-.465-.809-.711-.099-.094-.197-.188-.297-.28l-.504-.567-.068-.077c-.057-.066-.115-.131-.166-.199l-.198-.303a6.465 6.465 0 0 0-.174-.258c-.076-.112-.154-.223-.223-.342l-.349-.645a5.234 5.234 0 0 1-.251-.509l-.001-.001-.032-.072-.033-.074-.071-.152a8.266 8.266 0 0 1-.227-.518c-.103-.254-.201-.51-.294-.768a14.95 14.95 0 0 0 7.017 6.604 15.327 15.327 0 0 0 12.874-.21 12.27 12.27 0 0 0 3.303 4.748 12.282 12.282 0 0 0 10.895 2.78Zm-30.215-93.91c1.236-.028 2.482.027 3.686.093.023-.266.048-.53.078-.791-.78.09-1.556.213-2.329.366-.481.095-.96.205-1.435.332Z" fill="#202C44"/><path fill-rule="evenodd" clip-rule="evenodd" d="M613.477 93.958h-1.396a26.605 26.605 0 0 1-5.646-.655v15.437c-1.783 1.394-2.916 3.381-2.916 5.639 0 4.378 4.26 7.734 9.254 7.734 4.993 0 9.254-3.356 9.254-7.734 0-2.253-1.128-4.235-2.904-5.628V93.34a25.954 25.954 0 0 1-5.646.618Z" fill="#845D37"/><path d="M619.099 97.787v4.695s-1.372-2.323-6.351-2.348c-4.979-.024-6.338 2.583-6.338 2.583v-5.709l12.689-.222v1Z" fill="#8E3925"/><path fill-rule="evenodd" clip-rule="evenodd" d="M585.703 65.71V43.189a26.377 26.377 0 0 1 26.378-26.378h1.396a26.378 26.378 0 0 1 26.378 26.378v28.145a26.393 26.393 0 0 1-20.732 25.773c-1.854.407-3.748.61-5.646.605h-1.396a26.277 26.277 0 0 1-25.388-19.132c-1.653-.225-3.528-.831-5.081-2.254-3.694-3.385-3.817-12.244 2.83-11.008a5.53 5.53 0 0 1 1.261.392Z" fill="#845D37"/><path fill-rule="evenodd" clip-rule="evenodd" d="M576.844 58.979a7.522 7.522 0 0 0 .655 6.177 6.015 6.015 0 0 0 4.942 2.94c-.115.595-.305 1.237-.5 1.895-.433 1.463-.89 3.005-.6 4.283.42 1.854 1.89 3.707 3.645 3.583 1.754-.123 3.052-1.89 3.373-3.706a14.274 14.274 0 0 0-.532-5.671 12.958 12.958 0 0 0 3.497-8.086 16.15 16.15 0 0 0 2.227-.374 18.84 18.84 0 0 0 2.85-.91 15.2 15.2 0 0 0 5.098-3.295l.274-.282c.067-.074.126-.153.185-.233a35.827 35.827 0 0 0 .537-.713c.29-.438.553-.896.788-1.372.461-.95.82-1.956 1.069-2.998.259-1.029.434-2.082.523-3.148.044-.458.071-.917.082-1.377a9.313 9.313 0 0 0 8.297 2.155 11.636 11.636 0 0 0 7.846-5.733c.053.094.107.187.162.28-.137.239-.276.475-.419.71a20.7 20.7 0 0 1-1.499 2.176 13.614 13.614 0 0 1-1.751 1.904c-.225.213-.469.396-.712.579l-.277.21-.547.343-.075.046a2.628 2.628 0 0 1-.191.111l-.281.124a5.72 5.72 0 0 0-.242.109 4.625 4.625 0 0 1-.318.14l-.591.202c-.152.057-.306.097-.463.138l-.133.035-.138.038c-.156.043-.309.086-.467.117-.811.182-1.632.303-2.456.365-1.672.13-3.347.077-5.001-.156.806.261 1.632.447 2.471.556.842.115 1.692.163 2.543.143a12.938 12.938 0 0 0 5.057-1.07l.304-.142c.075-.038.147-.083.218-.128l.072-.045c.191-.119.383-.237.572-.36.364-.26.713-.544 1.044-.851a12.49 12.49 0 0 0 1.762-2.06 16.63 16.63 0 0 0 1.374-2.345c.104-.209.203-.42.298-.635a14.911 14.911 0 0 0 8.37 6.422 10.783 10.783 0 0 0 9.315-2.138 5.56 5.56 0 0 0 5.597 5.078c2.681 0 5.14-2.001 6.4-4.633a15.927 15.927 0 0 0 1.137-8.71c-1.038-8.982-6.894-16.655-14.048-20.917-7.154-4.263-15.456-5.51-23.561-5.51-7.611 0-15.407 1.111-22.153 5.053-8.649 5.053-14.826 14.38-18.533 24.487a24.194 24.194 0 0 0-1.779 8.402c.111 2.891 2.607 7.055 4.683 8.797Zm19.314-.459a27.038 27.038 0 0 1-4.827 1.75 12.935 12.935 0 0 0-.205-3.058c3.077.605 6.511-.79 9.032-2.866a13.462 13.462 0 0 0 4.066-6.021 23.983 23.983 0 0 1-.457 1.677 16.007 16.007 0 0 1-1.122 2.824c-.158.327-.348.63-.538.933-.073.115-.145.23-.216.347l-.457.606-.062.081c-.053.07-.105.139-.162.203l-.257.253a6.358 6.358 0 0 0-.22.221 5.26 5.26 0 0 1-.291.287l-.563.47a5.148 5.148 0 0 1-.45.346l-.13.094-.136.1c-.153.112-.303.223-.463.323a20.015 20.015 0 0 1-2.542 1.43Z" fill="#202C44"/><g opacity=".06" filter="url(#whatsapp__g)"><path fill-rule="evenodd" clip-rule="evenodd" d="M518.77 1073.76c128.294 0 232.297-6.92 232.297-15.45s-104.003-15.44-232.297-15.44c-118.933 0-216.991 5.94-230.667 13.6-1.583-.01-3.177-.01-4.779-.01-53.537 0-96.937 5.27-96.937 11.77s43.4 11.77 96.937 11.77c46.811 0 85.872-4.03 94.948-9.39 39.014 1.98 87.699 3.15 140.498 3.15Z" fill="#0A0F1A"/></g><path fill-rule="evenodd" clip-rule="evenodd" d="M209.74 959.031c-28.022 10.966-50.096-1.958-58.018-10.427l9.27-8.671c5.242 5.604 22.027 15.923 44.123 7.277l4.625 11.821Zm155.339-4.481c30.071-1.097 45.175-21.74 49.071-32.662l-11.956-4.265c-2.578 7.228-13.867 23.377-37.578 24.242l.463 12.685Z" fill="#FB5A8B"/><path d="M231.944 951.76c0 9.402-7.622 17.024-17.024 17.024-9.402 0-17.024-7.622-17.024-17.024 0-9.401 7.622-17.023 17.024-17.023 9.402 0 17.024 7.622 17.024 17.023Zm108.949 0c0 9.402 7.622 17.024 17.024 17.024 9.402 0 17.024-7.622 17.024-17.024 0-9.401-7.622-17.023-17.024-17.023-9.402 0-17.024 7.622-17.024 17.023Z" fill="#E55A89"/><path fill-rule="evenodd" clip-rule="evenodd" d="M257.82 1025.18c5.571 0 10.088-4.52 10.088-10.09S263.391 1005 257.82 1005c-5.572 0-10.089 4.52-10.089 10.09s4.517 10.09 10.089 10.09Zm0 7.61c9.778 0 17.704-7.93 17.704-17.7 0-9.78-7.926-17.708-17.704-17.708s-17.705 7.928-17.705 17.708c0 9.77 7.927 17.7 17.705 17.7Zm58.56-7.61c5.572 0 10.088-4.52 10.088-10.09S321.952 1005 316.38 1005c-5.572 0-10.088 4.52-10.088 10.09s4.516 10.09 10.088 10.09Zm0 7.61c9.778 0 17.705-7.93 17.705-17.7 0-9.78-7.927-17.708-17.705-17.708-9.778 0-17.704 7.928-17.704 17.708 0 9.77 7.926 17.7 17.704 17.7Z" fill="#202C44"/><path d="M256.458 1000.11h59.923v36.77c0 16.55-13.415 29.96-29.962 29.96s-29.961-13.41-29.961-29.96v-36.77Z" fill="#8CA0B3"/><path fill-rule="evenodd" clip-rule="evenodd" d="M269.58 1027.34c0-1.4 1.137-2.53 2.539-2.53h30.642a2.535 2.535 0 1 1 0 5.07h-30.642a2.535 2.535 0 0 1-2.539-2.54Zm0 13.62c0-1.4 1.137-2.54 2.539-2.54h30.642a2.541 2.541 0 0 1 2.539 2.54c0 1.41-1.137 2.54-2.539 2.54h-30.642a2.535 2.535 0 0 1-2.539-2.54Z" fill="#D2DFE6"/><path d="M214.238 924.833a5.079 5.079 0 0 1 5.078-5.078h134.205a5.079 5.079 0 0 1 5.078 5.078v70.937c0 8.41-6.82 15.23-15.233 15.23H229.471c-8.413 0-15.233-6.82-15.233-15.23v-70.937Z" fill="#FB5A8B"/><path d="M292.8 772.254h-8.055v26.851h8.055v-26.851Z" fill="#E55A89"/><path d="M288.774 780.229c6.977 0 12.632-5.655 12.632-12.631 0-6.977-5.655-12.632-12.632-12.632-6.976 0-12.631 5.655-12.631 12.632 0 6.976 5.655 12.631 12.631 12.631Z" fill="#FB5A8B"/><path d="M348.026 857.249a60.854 60.854 0 0 0-3.064-19.092h17.248a11.3 11.3 0 0 1 11.3 11.301v21.896c0 2.997-1.19 5.871-3.31 7.99a11.296 11.296 0 0 1-7.99 3.31h-14.18l-.004-25.405Zm-121.926 0a60.942 60.942 0 0 1 3.065-19.092H211.92a11.289 11.289 0 0 0-10.441 6.976 11.281 11.281 0 0 0-.859 4.325v21.896a11.285 11.285 0 0 0 3.309 7.991 11.289 11.289 0 0 0 7.991 3.309h14.18v-25.405Z" fill="#E55A89"/><path d="M287.123 796.225a61.027 61.027 0 0 1 61.024 61.024v27.93a14.32 14.32 0 0 1-14.318 14.318h-93.397a14.318 14.318 0 0 1-14.317-14.318v-27.93a61.024 61.024 0 0 1 61.008-61.024Z" fill="#202C44"/><path d="M333.834 907.551h-93.401a22.399 22.399 0 0 1-22.373-22.369v-27.934c0-38.088 30.991-69.079 69.079-69.079 38.089 0 69.079 30.991 69.079 69.079v27.934a22.392 22.392 0 0 1-22.384 22.369Zm-46.711-103.272c-29.206 0-52.969 23.763-52.969 52.969v27.934a6.264 6.264 0 0 0 3.879 5.786 6.27 6.27 0 0 0 2.4.473h93.417a6.263 6.263 0 0 0 6.258-6.259v-27.934c-.023-29.222-23.778-52.969-52.985-52.969Z" fill="#FB5A8B"/><path d="M266.988 849.62a7.035 7.035 0 1 0 0-14.07 7.035 7.035 0 0 0 0 14.07Zm40.276 0a7.035 7.035 0 0 0 7.034-7.035 7.035 7.035 0 1 0-7.034 7.035Zm-31.479 15.22h25.996v.788a12.998 12.998 0 1 1-25.996 0v-.788Z" fill="#F3F6FA"/><path fill-rule="evenodd" clip-rule="evenodd" d="M139.024 917.032a5.077 5.077 0 0 1 5.077-5.078c12.206 0 22.101 9.895 22.101 22.101s-9.895 22.101-22.101 22.101S122 946.261 122 934.055a5.077 5.077 0 1 1 10.155 0c0 6.598 5.348 11.946 11.946 11.946s11.946-5.348 11.946-11.946c0-6.597-5.348-11.946-11.946-11.946a5.077 5.077 0 0 1-5.077-5.077Zm268.802-31.048a5.08 5.08 0 0 0-7.095-1.11c-9.861 7.193-12.025 21.018-4.832 30.88 7.192 9.862 21.018 12.025 30.879 4.833 9.862-7.193 12.026-21.018 4.833-30.88a5.076 5.076 0 0 0-7.094-1.11 5.076 5.076 0 0 0-1.11 7.094c3.887 5.33 2.718 12.803-2.613 16.691-5.33 3.888-12.803 2.718-16.691-2.612-3.888-5.331-2.718-12.804 2.612-16.691a5.079 5.079 0 0 0 1.111-7.095Z" fill="#FB5A8B"/><path d="M268.714 964.697c0 6.018-4.878 10.895-10.895 10.895-6.017 0-10.895-4.877-10.895-10.895 0-6.017 4.878-10.895 10.895-10.895 6.017 0 10.895 4.878 10.895 10.895Zm28.6 0c0 6.018-4.878 10.895-10.895 10.895-6.017 0-10.895-4.877-10.895-10.895 0-6.017 4.878-10.895 10.895-10.895 6.017 0 10.895 4.878 10.895 10.895Zm28.6 0c0 6.018-4.878 10.895-10.895 10.895-6.017 0-10.895-4.877-10.895-10.895 0-6.017 4.878-10.895 10.895-10.895 6.017 0 10.895 4.878 10.895 10.895Z" fill="#FDACC5"/><path fill-rule="evenodd" clip-rule="evenodd" d="M270.262 914.309a2.54 2.54 0 0 1 2.539-2.539h32.004a2.54 2.54 0 0 1 0 5.077h-32.004a2.538 2.538 0 0 1-2.539-2.538Z" fill="#E55A89"/><defs><filter id="whatsapp__a" x="180.583" y="412.294" width="333.028" height="93.923" filterUnits="userSpaceOnUse" color-interpolation-filters="sRGB"><feFlood flood-opacity="0" result="BackgroundImageFix"/><feColorMatrix in="SourceAlpha" values="0 0 0 0 0 0 0 0 0 0 0 0 0 0 0 0 0 0 127 0" result="hardAlpha"/><feOffset dy="1.582"/><feGaussianBlur stdDeviation="4.745"/><feColorMatrix values="0 0 0 0 0.374547 0 0 0 0 0.481553 0 0 0 0 0.601935 0 0 0 0.15 0"/><feBlend in2="BackgroundImageFix" result="effect1_dropShadow_10272_1619"/><feBlend in="SourceGraphic" in2="effect1_dropShadow_10272_1619" result="shape"/></filter><filter id="whatsapp__c" x="430.467" y="596.261" width="333.028" height="93.923" filterUnits="userSpaceOnUse" color-interpolation-filters="sRGB"><feFlood flood-opacity="0" result="BackgroundImageFix"/><feColorMatrix in="SourceAlpha" values="0 0 0 0 0 0 0 0 0 0 0 0 0 0 0 0 0 0 127 0" result="hardAlpha"/><feOffset dy="1.582"/><feGaussianBlur stdDeviation="4.745"/><feColorMatrix values="0 0 0 0 0.374547 0 0 0 0 0.481553 0 0 0 0 0.601935 0 0 0 0.15 0"/><feBlend in2="BackgroundImageFix" result="effect1_dropShadow_10272_1619"/><feBlend in="SourceGraphic" in2="effect1_dropShadow_10272_1619" result="shape"/></filter><filter id="whatsapp__e" x="567.594" y="689.927" width="77.363" height="42.122" filterUnits="userSpaceOnUse" color-interpolation-filters="sRGB"><feFlood flood-opacity="0" result="BackgroundImageFix"/><feColorMatrix in="SourceAlpha" values="0 0 0 0 0 0 0 0 0 0 0 0 0 0 0 0 0 0 127 0" result="hardAlpha"/><feOffset dy=".722"/><feGaussianBlur stdDeviation="2.166"/><feColorMatrix values="0 0 0 0 0.374547 0 0 0 0 0.481553 0 0 0 0 0.601935 0 0 0 0.15 0"/><feBlend in2="BackgroundImageFix" result="effect1_dropShadow_10272_1619"/><feBlend in="SourceGraphic" in2="effect1_dropShadow_10272_1619" result="shape"/></filter><filter id="whatsapp__f" x="361.055" y="505.96" width="77.363" height="42.122" filterUnits="userSpaceOnUse" color-interpolation-filters="sRGB"><feFlood flood-opacity="0" result="BackgroundImageFix"/><feColorMatrix in="SourceAlpha" values="0 0 0 0 0 0 0 0 0 0 0 0 0 0 0 0 0 0 127 0" result="hardAlpha"/><feOffset dy=".722"/><feGaussianBlur stdDeviation="2.166"/><feColorMatrix values="0 0 0 0 0.374547 0 0 0 0 0.481553 0 0 0 0 0.601935 0 0 0 0.15 0"/><feBlend in2="BackgroundImageFix" result="effect1_dropShadow_10272_1619"/><feBlend in="SourceGraphic" in2="effect1_dropShadow_10272_1619" result="shape"/></filter><filter id="whatsapp__g" x="172.387" y="1028.87" width="592.68" height="65.134" filterUnits="userSpaceOnUse" color-interpolation-filters="sRGB"><feFlood flood-opacity="0" result="BackgroundImageFix"/><feBlend in="SourceGraphic" in2="BackgroundImageFix" result="shape"/><feGaussianBlur stdDeviation="7" result="effect1_foregroundBlur_10272_1619"/></filter></defs></svg>