<svg width="24" height="24" viewBox="0 0 24 24" fill="none" xmlns="http://www.w3.org/2000/svg">
<path fill-rule="evenodd" clip-rule="evenodd" d="M8.93003 2.64001V4.52001C10.4032 4.70965 11.7569 5.42945 12.7379 6.5448C13.7189 7.66015 14.26 9.09465 14.26 10.58C14.26 12.0654 13.7189 13.4999 12.7379 14.6152C11.7569 15.7306 10.4032 16.4504 8.93003 16.64V21.36C8.93003 21.5589 8.85102 21.7497 8.71036 21.8903C8.56971 22.031 8.37895 22.11 8.18003 22.11C7.98112 22.11 7.79036 22.031 7.6497 21.8903C7.50905 21.7497 7.43003 21.5589 7.43003 21.36V16.64C5.95682 16.4504 4.60314 15.7306 3.62216 14.6152C2.64119 13.4999 2.1001 12.0654 2.1001 10.58C2.1001 9.09465 2.64119 7.66015 3.62216 6.5448C4.60314 5.42945 5.95682 4.70965 7.43003 4.52001V2.64001C7.43003 2.4411 7.50905 2.25034 7.6497 2.10968C7.79036 1.96903 7.98112 1.89001 8.18003 1.89001C8.37895 1.89001 8.56971 1.96903 8.71036 2.10968C8.85102 2.25034 8.93003 2.4411 8.93003 2.64001ZM5.61614 14.418C6.37556 14.9233 7.26784 15.192 8.18003 15.19C9.40095 15.1874 10.571 14.7005 11.4333 13.8362C12.2957 12.972 12.78 11.8009 12.78 10.58C12.78 9.66782 12.5094 8.77613 12.0024 8.0178C11.4954 7.25947 10.7748 6.66861 9.93189 6.31998C9.08894 5.97136 8.16151 5.88065 7.26698 6.05934C6.37246 6.23803 5.55105 6.67808 4.90673 7.3238C4.26241 7.96953 3.82414 8.79188 3.6474 9.68679C3.47065 10.5817 3.56337 11.5089 3.91383 12.3511C4.26428 13.1933 4.85671 13.9126 5.61614 14.418ZM21.1058 13.3712C21.6392 14.0302 21.93 14.8523 21.9298 15.7C21.9323 16.5495 21.6425 17.3739 21.109 18.0349C20.5754 18.6959 19.8307 19.1532 18.9998 19.33V21.33C18.9998 21.5289 18.9208 21.7197 18.7801 21.8603C18.6395 22.001 18.4487 22.08 18.2498 22.08C18.0509 22.08 17.8601 22.001 17.7195 21.8603C17.5788 21.7197 17.4998 21.5289 17.4998 21.33V19.33C16.6645 19.1592 15.9138 18.7052 15.3746 18.0446C14.8355 17.3841 14.541 16.5576 14.541 15.705C14.541 14.8524 14.8355 14.0259 15.3746 13.3654C15.9138 12.7049 16.6645 12.2508 17.4998 12.08V2.64001C17.4998 2.4411 17.5788 2.25034 17.7195 2.10968C17.8601 1.96903 18.0509 1.89001 18.2498 1.89001C18.4487 1.89001 18.6395 1.96903 18.7801 2.10968C18.9208 2.25034 18.9998 2.4411 18.9998 2.64001V12.08C19.829 12.2564 20.5725 12.7123 21.1058 13.3712ZM16.9993 17.5424C17.364 17.7841 17.7923 17.912 18.2298 17.91C18.8142 17.9074 19.3738 17.6734 19.7861 17.2592C20.1984 16.845 20.4298 16.2844 20.4298 15.7C20.4298 15.2625 20.2999 14.8348 20.0567 14.4712C19.8134 14.1075 19.4676 13.8243 19.0632 13.6573C18.6588 13.4903 18.2139 13.4472 17.785 13.5332C17.356 13.6193 16.9622 13.8308 16.6536 14.1409C16.3449 14.451 16.1352 14.8457 16.0511 15.275C15.9669 15.7044 16.0121 16.1491 16.1809 16.5527C16.3497 16.9563 16.6345 17.3008 16.9993 17.5424Z" fill="black"/>
</svg>
