<svg width="24" height="24" viewBox="0 0 24 24" fill="none" xmlns="http://www.w3.org/2000/svg">
<path d="M5.13696 22.1833C4.51181 22.1835 3.91045 21.9436 3.45696 21.5133L2.76696 20.8233C2.29709 20.3792 2.02185 19.7673 2.00125 19.121C1.98064 18.4747 2.21634 17.8465 2.65696 17.3733L7.10696 12.6333C6.45385 11.1655 6.28532 9.52781 6.62582 7.95774C6.96631 6.38768 7.79812 4.9669 9.0006 3.9015C10.2031 2.83609 11.7137 2.18146 13.3134 2.03255C14.913 1.88364 16.5185 2.2482 17.897 3.07335C17.9936 3.13065 18.0761 3.20892 18.1384 3.30239C18.2007 3.39585 18.2412 3.50212 18.257 3.61335C18.2703 3.725 18.2593 3.83821 18.2248 3.94523C18.1903 4.05224 18.133 4.15053 18.057 4.23335L14.767 7.76335L15.767 8.69335L19.087 5.16335C19.1618 5.07997 19.2549 5.01496 19.359 4.97334C19.463 4.93172 19.5752 4.91461 19.687 4.92335C19.7979 4.93302 19.9054 4.96664 20.0021 5.02189C20.0988 5.07713 20.1823 5.15269 20.247 5.24335C21.2388 6.67439 21.7121 8.4013 21.5884 10.1381C21.4648 11.8748 20.7516 13.5173 19.567 14.7933C18.5388 15.8754 17.2147 16.6306 15.76 16.965C14.3053 17.2993 12.7844 17.1979 11.387 16.6733L6.90696 21.4133C6.68973 21.6492 6.42728 21.8389 6.13523 21.9711C5.84317 22.1034 5.52749 22.1756 5.20696 22.1833H5.13696ZM13.957 3.47335C12.9003 3.45393 11.8573 3.71394 10.9334 4.22707C10.0096 4.74021 9.23761 5.48825 8.69568 6.39553C8.15375 7.30281 7.86106 8.33714 7.84724 9.39386C7.83342 10.4506 8.09895 11.4922 8.61696 12.4133C8.69075 12.552 8.71979 12.71 8.7001 12.8658C8.6804 13.0216 8.61293 13.1675 8.50696 13.2833L3.69696 18.4033C3.5339 18.5865 3.44381 18.8231 3.44381 19.0683C3.44381 19.3136 3.5339 19.5502 3.69696 19.7333L4.43696 20.4233C4.52733 20.5097 4.63401 20.5772 4.75077 20.6218C4.86753 20.6665 4.99202 20.6874 5.11696 20.6833C5.24007 20.6805 5.36127 20.6524 5.47307 20.6008C5.58488 20.5492 5.6849 20.4752 5.76696 20.3833L10.567 15.2633C10.676 15.1509 10.8167 15.0744 10.9704 15.044C11.1241 15.0136 11.2833 15.0308 11.427 15.0933C12.5856 15.6347 13.8853 15.7976 15.1418 15.5589C16.3982 15.3202 17.5476 14.692 18.427 13.7633V13.7633C19.262 12.8539 19.8039 11.7141 19.9823 10.4924C20.1606 9.27069 19.9671 8.02358 19.427 6.91335L16.317 10.2733C16.1763 10.4138 15.9857 10.4927 15.787 10.4927C15.5882 10.4927 15.3976 10.4138 15.257 10.2733L13.167 8.27335C13.0207 8.13486 12.9346 7.9446 12.927 7.74335C12.9218 7.54733 12.9936 7.35707 13.127 7.21335L16.277 3.85335C15.5351 3.5794 14.7475 3.4504 13.957 3.47335V3.47335Z" fill="black"/>
</svg>
